<?xml version="1.0" standalone="no"?>
<!DOCTYPE svg PUBLIC "-//W3C//DTD SVG 20010904//EN"
 "http://www.w3.org/TR/2001/REC-SVG-20010904/DTD/svg10.dtd">
<svg version="1.0" xmlns="http://www.w3.org/2000/svg"
 width="123.000000pt" height="89.000000pt" viewBox="0 0 123.000000 89.000000"
 preserveAspectRatio="xMidYMid meet">
<metadata>
Created by potrace 1.16, written by Peter Selinger 2001-2019
</metadata>
<g transform="translate(0.000000,89.000000) scale(0.100000,-0.100000)"
fill="#000000" stroke="none">
<path d="M300 445 l0 -148 143 6 c290 12 482 68 482 142 0 74 -192 130 -482
142 l-143 6 0 -148z m210 125 c262 -23 438 -83 404 -138 -36 -56 -208 -99
-474 -118 -93 -6 -95 -6 -78 13 53 59 59 150 13 217 l-24 36 22 0 c12 0 74 -5
137 -10z"/>
</g>
</svg>
