<?xml version="1.0" standalone="no"?>
<!DOCTYPE svg PUBLIC "-//W3C//DTD SVG 20010904//EN"
 "http://www.w3.org/TR/2001/REC-SVG-20010904/DTD/svg10.dtd">
<svg version="1.0" xmlns="http://www.w3.org/2000/svg"
 width="126.000000pt" height="94.000000pt" viewBox="0 0 126.000000 94.000000"
 preserveAspectRatio="xMidYMid meet">
<metadata>
Created by potrace 1.16, written by Peter Selinger 2001-2019
</metadata>
<g transform="translate(0.000000,94.000000) scale(0.100000,-0.100000)"
fill="#000000" stroke="none">
<path d="M300 497 c0 -80 3 -147 8 -150 16 -8 283 12 375 28 l97 16 85 -46
c47 -25 85 -42 85 -38 0 4 -31 28 -68 52 l-67 44 40 17 c22 10 48 27 58 38 77
86 -130 165 -470 179 l-143 6 0 -146z m340 108 c181 -26 300 -79 274 -122 -14
-22 -82 -63 -108 -63 -10 0 -45 18 -78 41 -55 37 -88 45 -88 19 0 -5 26 -24
57 -42 l58 -33 -53 -11 c-56 -13 -254 -34 -315 -34 l-37 0 20 20 c55 55 54
167 -3 229 l-22 23 100 -7 c55 -3 143 -13 195 -20z"/>
</g>
</svg>
