<?xml version="1.0" standalone="no"?>
<!DOCTYPE svg PUBLIC "-//W3C//DTD SVG 20010904//EN"
 "http://www.w3.org/TR/2001/REC-SVG-20010904/DTD/svg10.dtd">
<svg version="1.0" xmlns="http://www.w3.org/2000/svg"
 width="123.000000pt" height="89.000000pt" viewBox="0 0 123.000000 89.000000"
 preserveAspectRatio="xMidYMid meet">
<metadata>
Created by potrace 1.16, written by Peter Selinger 2001-2019
</metadata>
<g transform="translate(0.000000,89.000000) scale(0.100000,-0.100000)"
fill="#000000" stroke="none">
<path d="M300 446 l0 -146 98 0 c165 1 393 38 468 77 51 27 66 46 62 75 -10
68 -210 124 -485 135 l-143 6 0 -147z m213 123 c66 -5 147 -16 180 -24 58 -13
51 -13 -123 -8 -164 4 -187 7 -205 24 -19 19 -19 19 5 19 14 0 78 -5 143 -11z
m356 -73 c67 -35 61 -74 -16 -108 -42 -18 -60 -20 -212 -14 -91 3 -184 5 -205
6 -25 0 -36 4 -30 9 5 5 103 13 219 17 250 9 235 22 -27 23 -172 1 -225 9
-165 25 12 3 106 6 210 6 118 0 187 4 187 10 0 6 -56 10 -147 10 -82 0 -179 3
-216 7 -126 11 -46 23 166 23 161 0 214 -3 236 -14z m-234 -161 c-44 -7 -127
-16 -185 -20 -93 -6 -103 -5 -91 8 17 21 42 24 211 24 l145 1 -80 -13z"/>
</g>
</svg>
