<?xml version="1.0" standalone="no"?>
<!DOCTYPE svg PUBLIC "-//W3C//DTD SVG 20010904//EN"
 "http://www.w3.org/TR/2001/REC-SVG-20010904/DTD/svg10.dtd">
<svg version="1.0" xmlns="http://www.w3.org/2000/svg"
 width="133.000000pt" height="94.000000pt" viewBox="0 0 133.000000 94.000000"
 preserveAspectRatio="xMidYMid meet">
<metadata>
Created by potrace 1.16, written by Peter Selinger 2001-2019
</metadata>
<g transform="translate(0.000000,94.000000) scale(0.100000,-0.100000)"
fill="#000000" stroke="none">
<path d="M880 582 c0 -42 -4 -61 -14 -65 -16 -6 -95 17 -147 44 -22 11 -40 14
-45 9 -6 -6 -31 -6 -65 -1 -30 5 -112 12 -182 16 l-127 8 0 -147 c0 -126 2
-146 16 -146 40 0 84 52 84 101 0 22 0 22 15 3 8 -10 15 -14 15 -8 0 17 99 59
110 48 7 -7 -2 -14 -25 -23 -19 -7 -35 -17 -35 -22 0 -12 35 -3 67 17 12 8 35
14 50 14 28 -1 27 -1 -9 -21 -21 -11 -38 -24 -38 -29 0 -6 22 1 49 14 35 18
56 23 76 18 l28 -8 -42 -18 c-22 -11 -41 -23 -41 -28 0 -12 6 -10 61 17 32 17
58 24 71 19 19 -6 18 -8 -13 -21 -18 -7 -37 -19 -41 -26 -4 -7 -56 -19 -115
-28 -89 -14 -99 -17 -57 -18 28 0 91 6 139 14 65 12 90 13 95 4 5 -7 24 -2 59
16 29 14 64 25 79 23 26 -3 25 -5 -18 -27 -59 -32 -35 -39 27 -8 34 17 55 22
73 16 52 -15 51 -19 48 144 l-3 152 -72 3 -73 3 0 -59z m124 -54 c10 -154 9
-180 -11 -174 -10 3 -38 10 -62 16 l-43 11 21 23 c28 29 27 50 -4 74 -15 12
-21 23 -15 27 5 3 10 15 10 26 0 16 7 19 45 19 60 0 58 20 -2 22 -48 1 -48 1
-8 5 59 6 68 23 12 23 -26 0 -47 5 -47 10 0 6 22 10 49 10 l48 0 7 -92z m-389
3 l49 -31 -32 0 c-20 0 -48 12 -74 30 -42 31 -58 37 -58 21 0 -5 19 -21 43
-35 l42 -25 -33 -1 c-18 0 -55 11 -82 25 -27 14 -52 25 -55 25 -3 0 -5 -21 -6
-47 -1 -46 -1 -47 -9 -14 -4 18 -18 47 -30 64 l-23 30 109 -5 c101 -5 113 -8
159 -37z m120 -7 c14 -10 15 -14 5 -14 -8 0 -24 -2 -35 -5 -12 -3 -32 5 -50
21 l-30 25 45 -7 c25 -3 54 -13 65 -20z m-265 -29 c17 -9 30 -20 30 -25 0 -8
-51 -40 -65 -40 -3 0 -5 18 -5 40 0 45 0 46 40 25z m408 -15 c37 -23 41 -49
12 -75 -19 -17 -24 -17 -147 15 -183 47 -182 46 -48 59 66 7 125 14 130 16 17
6 19 5 53 -15z m-73 -115 c-42 -19 -66 -19 -41 0 11 8 31 15 45 14 26 -1 26
-1 -4 -14z"/>
</g>
</svg>
