<?xml version="1.0" standalone="no"?>
<!DOCTYPE svg PUBLIC "-//W3C//DTD SVG 20010904//EN"
 "http://www.w3.org/TR/2001/REC-SVG-20010904/DTD/svg10.dtd">
<svg version="1.0" xmlns="http://www.w3.org/2000/svg"
 width="123.000000pt" height="89.000000pt" viewBox="0 0 123.000000 89.000000"
 preserveAspectRatio="xMidYMid meet">
<metadata>
Created by potrace 1.16, written by Peter Selinger 2001-2019
</metadata>
<g transform="translate(0.000000,89.000000) scale(0.100000,-0.100000)"
fill="#000000" stroke="none">
<path d="M380 554 l0 -37 -40 7 c-38 6 -40 5 -40 -19 0 -23 4 -25 40 -25 39 0
40 -1 40 -34 0 -25 5 -36 18 -39 9 -2 1 -2 -18 0 -19 2 -45 7 -57 10 -20 4
-23 1 -23 -22 0 -26 2 -27 43 -24 l42 4 -4 -38 -3 -37 213 2 214 3 3 31 c3 34
20 44 79 44 17 0 34 4 37 9 6 9 -40 21 -85 21 -26 0 -29 3 -29 34 0 37 15 46
77 46 17 0 34 4 37 9 7 11 -28 21 -76 21 -34 0 -37 2 -40 33 l-3 32 -212 3
-213 2 0 -36z m410 -4 c0 -27 -2 -30 -25 -24 -22 5 -25 3 -25 -20 0 -21 5 -26
25 -26 22 0 25 -4 25 -35 0 -33 -2 -35 -25 -29 -22 5 -25 3 -25 -20 0 -21 5
-26 25 -26 21 0 25 -5 25 -30 l0 -30 -135 0 -135 0 0 135 0 135 135 0 135 0 0
-30z m-307 -47 c-7 -2 -19 -2 -25 0 -7 3 -2 5 12 5 14 0 19 -2 13 -5z m7 -107
c0 -2 -11 -6 -25 -8 -13 -3 -22 -1 -19 3 5 9 44 13 44 5z"/>
</g>
</svg>
