<?xml version="1.0" standalone="no"?>
<!DOCTYPE svg PUBLIC "-//W3C//DTD SVG 20010904//EN"
 "http://www.w3.org/TR/2001/REC-SVG-20010904/DTD/svg10.dtd">
<svg version="1.0" xmlns="http://www.w3.org/2000/svg"
 width="90.000000pt" height="147.000000pt" viewBox="0 0 90.000000 147.000000"
 preserveAspectRatio="xMidYMid meet">
<metadata>
Created by potrace 1.16, written by Peter Selinger 2001-2019
</metadata>
<g transform="translate(0.000000,147.000000) scale(0.100000,-0.100000)"
fill="#000000" stroke="none">
<path d="M300 1043 c0 -111 5 -184 24 -398 2 -22 7 -52 11 -67 5 -18 3 -28 -4
-28 -16 0 -14 -27 3 -33 7 -3 16 -17 18 -31 4 -20 1 -26 -13 -26 -11 0 -19 -7
-19 -15 0 -9 9 -15 25 -15 15 0 25 -6 25 -14 0 -8 3 -21 6 -30 5 -13 -1 -16
-25 -16 -21 0 -31 -5 -31 -15 0 -11 11 -15 40 -15 29 0 42 -5 50 -20 14 -27
55 -26 75 3 17 24 17 24 70 26 49 1 44 21 -5 21 -22 0 -40 2 -40 4 0 1 5 17
11 35 9 25 16 31 41 31 17 0 27 4 23 10 -3 6 -17 10 -30 10 -21 0 -22 3 -16
28 4 15 17 32 30 38 22 11 22 11 1 17 -17 4 -20 10 -14 34 4 15 14 33 23 40
11 8 12 12 4 13 -8 0 -13 14 -13 34 0 19 6 37 13 40 9 5 9 7 -1 12 -6 3 -9 10
-6 16 3 5 9 106 11 224 l6 214 -147 0 -146 0 0 -127z m145 57 c40 0 74 7 98
19 l37 19 0 -29 0 -29 -130 0 c-113 0 -130 -2 -130 -16 0 -14 15 -16 130 -12
l130 4 0 -34 c0 -34 0 -35 -37 -28 -21 3 -82 6 -135 6 l-98 0 0 69 0 69 37
-19 c24 -12 58 -19 98 -19z m127 -165 l-4 -36 -124 2 -124 1 0 34 0 34 128 0
128 0 -4 -35z m-4 -92 c-2 -23 -8 -38 -15 -37 -7 1 -62 2 -123 3 l-110 1 0 30
0 29 88 4 c48 1 104 4 125 5 l38 2 -3 -37z m-8 -94 l0 -32 -46 7 c-26 3 -78 6
-115 6 -67 0 -69 1 -69 25 l0 25 115 0 115 0 0 -31z m-8 -81 l-4 -33 -104 3
c-102 3 -104 4 -104 27 0 29 11 32 125 34 l91 1 -4 -32z m-10 -88 l-4 -30 -94
0 -94 0 0 30 0 30 98 0 99 0 -5 -30z m-12 -67 c0 -5 -3 -18 -6 -30 -6 -21 -12
-23 -80 -23 -41 0 -74 3 -74 8 0 4 -3 17 -6 30 -6 22 -5 22 80 22 47 0 86 -3
86 -7z m-20 -87 c0 -3 -4 -16 -10 -30 -8 -23 -15 -26 -55 -26 -40 0 -47 3 -55
26 -6 14 -10 27 -10 30 0 2 29 4 65 4 36 0 65 -2 65 -4z m-41 -101 c-9 -9 -23
-13 -32 -9 -28 10 -19 24 15 24 29 0 31 -2 17 -15z"/>
</g>
</svg>
