<?xml version="1.0" standalone="no"?>
<!DOCTYPE svg PUBLIC "-//W3C//DTD SVG 20010904//EN"
 "http://www.w3.org/TR/2001/REC-SVG-20010904/DTD/svg10.dtd">
<svg version="1.0" xmlns="http://www.w3.org/2000/svg"
 width="94.000000pt" height="92.000000pt" viewBox="0 0 94.000000 92.000000"
 preserveAspectRatio="xMidYMid meet">
<metadata>
Created by potrace 1.16, written by Peter Selinger 2001-2019
</metadata>
<g transform="translate(0.000000,92.000000) scale(0.100000,-0.100000)"
fill="#000000" stroke="none">
<path d="M367 613 c-4 -3 -7 -26 -7 -49 0 -43 0 -43 -30 -37 -27 5 -30 3 -30
-21 0 -22 4 -26 30 -26 28 0 30 -3 30 -35 0 -33 -1 -34 -30 -28 -27 5 -30 3
-30 -21 0 -23 4 -26 33 -26 31 0 33 -2 33 -32 l-1 -33 103 -3 102 -3 0 41 c0
38 2 40 29 40 43 0 47 18 6 26 -33 6 -35 9 -35 45 0 36 2 39 29 39 43 0 47 18
6 26 -34 6 -35 7 -35 55 l0 49 -98 0 c-54 0 -102 -3 -105 -7z"/>
</g>
</svg>
