<?xml version="1.0" standalone="no"?>
<!DOCTYPE svg PUBLIC "-//W3C//DTD SVG 20010904//EN"
 "http://www.w3.org/TR/2001/REC-SVG-20010904/DTD/svg10.dtd">
<svg version="1.0" xmlns="http://www.w3.org/2000/svg"
 width="166.000000pt" height="89.000000pt" viewBox="0 0 166.000000 89.000000"
 preserveAspectRatio="xMidYMid meet">
<metadata>
Created by potrace 1.16, written by Peter Selinger 2001-2019
</metadata>
<g transform="translate(0.000000,89.000000) scale(0.100000,-0.100000)"
fill="#000000" stroke="none">
<path d="M300 445 l0 -145 98 0 c109 0 278 21 370 45 57 14 67 14 124 0 91
-24 260 -45 366 -45 l92 0 0 145 0 145 -92 0 c-106 0 -275 -21 -366 -45 -57
-14 -67 -14 -124 0 -92 24 -261 45 -370 45 l-98 0 0 -145z m368 104 c63 -10
118 -22 123 -25 5 -3 -5 -16 -23 -28 -46 -30 -46 -72 0 -102 18 -12 28 -25 23
-28 -18 -11 -237 -44 -341 -51 l-105 -7 21 24 c33 35 44 63 44 107 0 49 -14
89 -43 119 l-22 24 105 -7 c58 -4 156 -16 218 -26z m624 9 c-56 -61 -56 -165
1 -227 l22 -23 -95 6 c-265 19 -438 62 -474 118 -40 64 223 137 523 147 l44 1
-21 -22z"/>
</g>
</svg>
