<?xml version="1.0" standalone="no"?>
<!DOCTYPE svg PUBLIC "-//W3C//DTD SVG 20010904//EN"
 "http://www.w3.org/TR/2001/REC-SVG-20010904/DTD/svg10.dtd">
<svg version="1.0" xmlns="http://www.w3.org/2000/svg"
 width="122.000000pt" height="111.000000pt" viewBox="0 0 122.000000 111.000000"
 preserveAspectRatio="xMidYMid meet">
<metadata>
Created by potrace 1.16, written by Peter Selinger 2001-2019
</metadata>
<g transform="translate(0.000000,111.000000) scale(0.100000,-0.100000)"
fill="#000000" stroke="none">
<path d="M450 790 c0 -74 43 -187 84 -217 l23 -18 -37 -42 c-39 -44 -62 -106
-64 -171 l-1 -37 148 -3 147 -3 0 30 c0 57 -38 155 -74 190 l-35 34 28 23 c36
30 69 106 77 178 l7 56 -152 0 c-143 0 -151 -1 -151 -20z m150 -50 c26 0 66 7
89 15 38 13 41 13 41 -4 0 -42 -33 -123 -64 -156 -46 -48 -86 -48 -132 0 -31
33 -64 114 -64 156 0 17 3 17 41 4 23 -8 63 -15 89 -15z m62 -227 c36 -39 57
-85 65 -138 l6 -45 -34 17 c-45 22 -153 23 -196 1 -33 -16 -33 -16 -33 8 0 38
37 125 67 156 37 38 89 39 125 1z"/>
<path d="M565 459 c-8 -25 -9 -24 35 -33 l34 -6 -29 30 c-16 16 -30 30 -31 30
-2 0 -6 -9 -9 -21z"/>
<path d="M356 705 c-9 -24 -7 -32 7 -32 7 0 26 -3 42 -7 17 -4 26 -4 20 1 -5
5 -22 19 -36 31 -23 20 -27 21 -33 7z"/>
<path d="M817 668 c-4 -12 -5 -23 -4 -24 8 -5 78 -12 71 -6 -5 4 -21 18 -35
30 l-26 23 -6 -23z"/>
<path d="M306 494 c-8 -22 -9 -21 18 -28 13 -3 32 -9 43 -12 11 -4 5 5 -15 25
-39 36 -38 36 -46 15z"/>
<path d="M846 455 c-9 -24 -7 -32 7 -32 7 0 26 -3 42 -7 17 -4 26 -4 20 1 -5
5 -22 19 -36 31 -23 20 -27 21 -33 7z"/>
</g>
</svg>
