<?xml version="1.0" standalone="no"?>
<!DOCTYPE svg PUBLIC "-//W3C//DTD SVG 20010904//EN"
 "http://www.w3.org/TR/2001/REC-SVG-20010904/DTD/svg10.dtd">
<svg version="1.0" xmlns="http://www.w3.org/2000/svg"
 width="119.000000pt" height="119.000000pt" viewBox="0 0 119.000000 119.000000"
 preserveAspectRatio="xMidYMid meet">
<metadata>
Created by potrace 1.16, written by Peter Selinger 2001-2019
</metadata>
<g transform="translate(0.000000,119.000000) scale(0.100000,-0.100000)"
fill="#000000" stroke="none">
<path d="M452 827 c3 -35 13 -77 21 -94 l16 -31 -49 19 c-28 10 -70 19 -95 19
l-45 0 0 -146 0 -147 63 5 c35 3 77 13 94 21 l31 16 -19 -49 c-10 -28 -19 -70
-19 -95 l0 -45 145 0 145 0 0 45 c0 25 -9 67 -19 95 l-19 49 31 -16 c17 -8 59
-18 94 -21 l63 -5 0 147 0 146 -45 0 c-25 0 -67 -9 -95 -19 l-49 -19 16 31 c8
17 18 59 21 94 l5 63 -148 0 -148 0 5 -63z m273 -9 c-15 -95 -76 -178 -130
-178 -53 0 -113 81 -130 174 -6 35 -5 38 12 31 75 -30 183 -31 226 -1 30 21
30 21 22 -26z m-270 -118 c48 -20 95 -72 95 -105 0 -28 -42 -80 -80 -100 -30
-15 -120 -38 -126 -32 -3 2 3 20 11 40 19 45 19 129 0 182 -8 22 -15 41 -15
43 0 7 79 -12 115 -28z m389 5 c-25 -38 -30 -151 -10 -199 9 -22 15 -41 12
-43 -6 -6 -96 17 -126 32 -38 20 -80 72 -80 100 0 28 42 80 81 100 29 15 90
32 122 34 16 1 16 -1 1 -24z m-214 -110 c0 -33 -2 -35 -35 -35 -33 0 -35 2
-35 35 0 33 2 35 35 35 33 0 35 -2 35 -35z m21 -72 c36 -31 64 -87 74 -151 l7
-44 -26 17 c-47 31 -153 31 -229 0 -17 -7 -18 -4 -11 31 12 66 35 112 70 144
43 37 73 38 115 3z"/>
</g>
</svg>
