<?xml version="1.0" standalone="no"?>
<!DOCTYPE svg PUBLIC "-//W3C//DTD SVG 20010904//EN"
 "http://www.w3.org/TR/2001/REC-SVG-20010904/DTD/svg10.dtd">
<svg version="1.0" xmlns="http://www.w3.org/2000/svg"
 width="119.000000pt" height="139.000000pt" viewBox="0 0 119.000000 139.000000"
 preserveAspectRatio="xMidYMid meet">
<metadata>
Created by potrace 1.16, written by Peter Selinger 2001-2019
</metadata>
<g transform="translate(0.000000,139.000000) scale(0.100000,-0.100000)"
fill="#000000" stroke="none">
<path d="M530 1055 c0 -26 -4 -35 -17 -37 -10 0 -22 -2 -28 -3 -5 -2 -16 -3
-22 -4 -18 -1 -17 -78 2 -131 8 -23 15 -44 15 -46 0 -2 -17 3 -38 10 -20 8
-61 17 -90 21 l-52 7 0 -152 0 -153 58 6 c32 4 75 13 95 22 l38 16 -17 -33
c-9 -18 -19 -60 -22 -95 l-5 -63 40 0 c44 0 53 -12 53 -77 0 -17 4 -34 9 -37
11 -7 21 28 21 77 0 36 1 37 39 37 l39 0 7 -60 c4 -33 11 -60 15 -60 4 0 11
27 15 60 6 56 9 60 32 60 25 0 26 1 21 63 -3 35 -13 77 -22 95 -19 36 -16 38
24 17 16 -8 57 -18 90 -22 l60 -6 0 153 0 152 -52 -7 c-29 -4 -70 -13 -90 -21
-21 -7 -38 -12 -38 -10 0 2 7 23 15 46 8 23 15 62 15 86 0 32 -4 44 -15 45 -8
1 -21 2 -27 3 -9 1 -12 15 -10 39 3 34 1 37 -23 37 -22 0 -25 -4 -25 -39 0
-35 -2 -38 -27 -36 -16 1 -32 3 -37 3 -4 1 -5 18 -2 37 6 33 5 35 -19 35 -22
0 -25 -4 -25 -35z m-32 -91 c18 -9 62 -16 102 -17 64 -2 70 0 70 18 0 16 2 17
9 6 8 -12 12 -13 25 -1 27 22 30 4 12 -64 -45 -166 -163 -191 -224 -48 -20 47
-38 122 -30 122 3 0 19 -7 36 -16z m-28 -149 c50 -25 80 -64 80 -104 0 -48
-91 -110 -182 -124 l-38 -6 17 32 c22 43 22 162 0 206 l-17 34 45 -6 c25 -4
67 -18 95 -32z m372 3 c-22 -44 -21 -162 1 -205 l17 -32 -38 6 c-91 14 -182
76 -182 124 0 34 29 78 62 95 49 25 101 43 130 43 l26 1 -16 -32z m-212 -101
c0 -31 -2 -33 -35 -33 -33 0 -35 2 -35 33 0 31 2 33 35 33 33 0 35 -2 35 -33z
m24 -72 c32 -30 61 -93 71 -154 l7 -44 -30 22 c-41 29 -151 30 -206 1 l-38
-19 6 42 c23 142 118 219 190 152z"/>
</g>
</svg>
