<?xml version="1.0" standalone="no"?>
<!DOCTYPE svg PUBLIC "-//W3C//DTD SVG 20010904//EN"
 "http://www.w3.org/TR/2001/REC-SVG-20010904/DTD/svg10.dtd">
<svg version="1.0" xmlns="http://www.w3.org/2000/svg"
 width="127.000000pt" height="142.000000pt" viewBox="0 0 127.000000 142.000000"
 preserveAspectRatio="xMidYMid meet">
<metadata>
Created by potrace 1.16, written by Peter Selinger 2001-2019
</metadata>
<g transform="translate(0.000000,142.000000) scale(0.100000,-0.100000)"
fill="#000000" stroke="none">
<path d="M580 1100 c0 -16 -7 -20 -36 -20 l-37 0 6 -45 c4 -25 9 -56 13 -71
l6 -25 -37 25 c-45 31 -95 46 -152 46 l-43 0 0 -291 0 -292 57 6 c32 3 82 19
115 35 40 20 57 24 54 15 -4 -8 -9 -39 -12 -69 l-7 -54 42 0 c37 0 41 -2 41
-24 0 -14 5 -28 10 -31 6 -4 10 7 10 24 0 30 1 31 50 31 49 0 50 -1 50 -31 0
-17 4 -28 10 -24 5 3 10 17 10 31 0 22 4 24 41 24 l42 0 -6 58 c-11 101 -63
188 -123 206 -26 8 -71 -8 -99 -34 -21 -19 -21 -19 -22 2 -3 38 -37 72 -103
105 -36 18 -57 33 -47 33 27 0 96 38 123 67 13 14 24 36 24 49 l0 23 36 -24
c48 -32 94 -32 132 0 37 31 72 111 79 181 l6 54 -38 0 c-28 0 -38 5 -42 20 -3
11 -12 20 -19 20 -8 0 -14 -9 -14 -20 0 -17 -7 -20 -40 -20 -33 0 -40 3 -40
20 0 13 -7 20 -20 20 -13 0 -20 -7 -20 -20z m10 -105 c0 -14 5 -25 10 -25 6 0
10 11 10 25 0 23 3 25 50 25 47 0 50 -2 50 -25 0 -14 5 -25 10 -25 6 0 10 11
10 25 0 17 9 29 31 40 17 9 33 15 35 13 2 -2 -3 -30 -10 -61 -17 -72 -55 -130
-97 -147 -28 -12 -36 -11 -67 6 -42 22 -79 89 -89 159 l-6 47 31 -16 c23 -12
32 -24 32 -41z m-135 -25 c119 -53 125 -149 13 -204 -29 -14 -72 -28 -95 -32
l-43 -7 17 34 c24 47 23 162 -1 208 l-18 33 44 -7 c24 -4 61 -15 83 -25z m-11
-281 c63 -23 106 -67 106 -108 0 -58 -75 -115 -167 -128 -43 -6 -46 -5 -39 13
21 55 27 116 17 166 -7 28 -16 58 -23 65 -17 21 42 17 106 -8z m274 -104 c32
-27 66 -98 75 -157 l6 -37 -35 16 c-20 10 -33 22 -30 30 8 20 -16 28 -29 10
-16 -22 -81 -23 -89 -2 -8 23 -25 18 -36 -10 -5 -14 -11 -25 -14 -25 -2 0 -11
-3 -20 -6 -40 -15 -2 118 49 171 40 43 80 46 123 10z"/>
<path d="M860 876 c-89 -25 -134 -59 -149 -113 -23 -79 68 -156 201 -170 l58
-6 0 152 0 151 -32 -1 c-18 0 -53 -6 -78 -13z m62 -38 c-23 -46 -22 -162 2
-206 17 -33 17 -34 -1 -29 -10 3 -34 9 -53 12 -85 17 -150 73 -150 128 0 56
101 124 187 126 l31 1 -16 -32z"/>
</g>
</svg>
