<?xml version="1.0" standalone="no"?>
<!DOCTYPE svg PUBLIC "-//W3C//DTD SVG 20010904//EN"
 "http://www.w3.org/TR/2001/REC-SVG-20010904/DTD/svg10.dtd">
<svg version="1.0" xmlns="http://www.w3.org/2000/svg"
 width="127.000000pt" height="119.000000pt" viewBox="0 0 127.000000 119.000000"
 preserveAspectRatio="xMidYMid meet">
<metadata>
Created by potrace 1.16, written by Peter Selinger 2001-2019
</metadata>
<g transform="translate(0.000000,119.000000) scale(0.100000,-0.100000)"
fill="#000000" stroke="none">
<path d="M520 845 c0 -25 9 -67 19 -95 l19 -49 -29 14 c-29 16 -145 35 -154
27 -3 -3 -5 -70 -5 -150 l0 -145 63 5 c35 3 77 13 94 21 l31 16 -19 -49 c-10
-28 -19 -70 -19 -95 l0 -45 145 0 145 0 0 43 c-1 23 -9 65 -19 94 l-17 52 27
-15 c30 -15 145 -34 154 -26 3 3 5 70 5 149 l0 143 -45 0 c-25 0 -66 -8 -93
-18 l-48 -18 18 50 c9 28 17 70 18 94 l0 42 -145 0 -145 0 0 -45z m275 -17
c-23 -114 -74 -188 -132 -188 -35 0 -98 65 -111 115 -24 97 -24 98 -5 90 75
-30 183 -31 226 -1 30 20 29 20 22 -16z m-270 -128 c48 -20 95 -72 95 -105 0
-28 -42 -80 -80 -100 -30 -15 -120 -38 -126 -32 -3 2 3 20 11 40 19 46 19 137
0 184 -8 19 -15 37 -15 40 0 8 75 -9 115 -27z m395 26 c0 -2 -7 -20 -15 -39
-19 -47 -19 -138 0 -184 8 -20 14 -38 11 -40 -7 -8 -101 19 -136 38 -40 22
-70 65 -70 97 0 26 44 78 81 97 38 20 129 42 129 31z m-222 -131 c0 -33 -2
-35 -34 -35 -32 0 -34 2 -34 35 0 33 2 35 34 35 32 0 34 -2 34 -35z m26 -75
c33 -30 55 -78 71 -158 l7 -34 -28 19 c-21 14 -47 18 -109 18 -62 0 -88 -4
-109 -18 l-28 -19 7 34 c18 89 29 115 65 150 47 47 77 49 124 8z"/>
<path d="M491 663 c-9 -18 -6 -21 26 -31 21 -6 38 -10 40 -8 1 1 -10 15 -26
30 -28 27 -30 27 -40 9z"/>
<path d="M631 481 c-13 -23 -9 -26 39 -35 33 -7 34 -6 15 9 -11 8 -25 22 -32
31 -10 14 -13 13 -22 -5z"/>
<path d="M896 814 c-8 -21 -9 -20 38 -28 l39 -8 -30 26 c-36 31 -39 31 -47 10z"/>
<path d="M306 403 c-7 -16 8 -33 31 -33 6 0 20 -3 30 -7 10 -4 4 7 -16 25 -39
37 -37 37 -45 15z"/>
<path d="M881 392 c-8 -16 -4 -20 30 -29 46 -12 48 -6 9 25 -28 22 -29 22 -39
4z"/>
</g>
</svg>
