<?xml version="1.0" standalone="no"?>
<!DOCTYPE svg PUBLIC "-//W3C//DTD SVG 20010904//EN"
 "http://www.w3.org/TR/2001/REC-SVG-20010904/DTD/svg10.dtd">
<svg version="1.0" xmlns="http://www.w3.org/2000/svg"
 width="113.000000pt" height="90.000000pt" viewBox="0 0 113.000000 90.000000"
 preserveAspectRatio="xMidYMid meet">
<metadata>
Created by potrace 1.16, written by Peter Selinger 2001-2019
</metadata>
<g transform="translate(0.000000,90.000000) scale(0.100000,-0.100000)"
fill="#000000" stroke="none">
<path d="M482 580 c-66 -40 -89 -116 -56 -186 35 -73 111 -100 188 -65 38 17
50 29 67 67 33 75 13 144 -54 184 -41 26 -103 25 -145 0z m93 -168 c-1 -2 -18
4 -36 12 -19 9 -24 13 -11 10 22 -5 31 9 12 21 -5 3 -10 11 -10 18 0 6 11 -4
24 -23 13 -19 23 -36 21 -38z"/>
<path d="M753 565 c-7 -20 -5 -21 37 -30 l35 -7 -27 26 c-32 30 -37 31 -45 11z"/>
<path d="M306 554 c-8 -21 -9 -20 38 -28 l39 -8 -30 26 c-36 31 -39 31 -47 10z"/>
<path d="M701 331 c-10 -18 -8 -21 13 -27 40 -10 49 0 22 25 l-24 23 -11 -21z"/>
</g>
</svg>
