<?xml version="1.0" standalone="no"?>
<!DOCTYPE svg PUBLIC "-//W3C//DTD SVG 20010904//EN"
 "http://www.w3.org/TR/2001/REC-SVG-20010904/DTD/svg10.dtd">
<svg version="1.0" xmlns="http://www.w3.org/2000/svg"
 width="89.000000pt" height="121.000000pt" viewBox="0 0 89.000000 121.000000"
 preserveAspectRatio="xMidYMid meet">
<metadata>
Created by potrace 1.16, written by Peter Selinger 2001-2019
</metadata>
<g transform="translate(0.000000,121.000000) scale(0.100000,-0.100000)"
fill="#000000" stroke="none">
<path d="M370 875 c0 -33 -2 -35 -35 -35 -34 0 -35 -1 -35 -38 0 -62 28 -140
66 -181 l34 -38 -33 -35 c-37 -39 -67 -120 -67 -179 l0 -39 44 0 c26 0 46 -5
49 -12 4 -10 6 -10 6 0 1 17 98 17 104 0 4 -10 6 -10 6 0 1 7 16 12 41 12 40
0 40 0 40 39 0 58 -29 136 -65 179 l-33 37 34 37 c36 40 64 119 64 180 0 37
-1 38 -36 38 -36 0 -36 0 -30 35 6 33 5 35 -19 35 -22 0 -25 -4 -25 -35 0 -33
-2 -35 -35 -35 -36 0 -36 0 -29 35 6 33 5 35 -20 35 -23 0 -26 -4 -26 -35z
m37 -77 c-3 -8 -6 -5 -6 6 -1 11 2 17 5 13 3 -3 4 -12 1 -19z m-62 -10 c22
-10 28 -9 36 3 7 11 9 10 9 -7 0 -18 4 -20 55 -14 36 4 55 2 55 -4 0 -8 3 -8
8 -1 6 9 56 35 68 35 6 0 -3 -41 -23 -102 -16 -54 -71 -108 -108 -108 -55 0
-105 70 -129 183 -7 31 -6 31 29 15z m157 -238 c28 -22 62 -96 71 -152 l6 -38
-31 16 c-27 14 -29 19 -24 50 6 31 5 34 -19 34 -22 0 -25 -4 -25 -33 0 -32 -1
-33 -35 -29 -32 4 -34 6 -28 33 5 26 3 29 -21 29 -23 0 -26 -4 -26 -35 0 -28
-5 -37 -29 -50 l-30 -15 6 38 c9 56 43 130 71 152 32 25 82 25 114 0z m-95
-192 c-3 -8 -6 -5 -6 6 -1 11 2 17 5 13 3 -3 4 -12 1 -19z"/>
</g>
</svg>
