<?xml version="1.0" standalone="no"?>
<!DOCTYPE svg PUBLIC "-//W3C//DTD SVG 20010904//EN"
 "http://www.w3.org/TR/2001/REC-SVG-20010904/DTD/svg10.dtd">
<svg version="1.0" xmlns="http://www.w3.org/2000/svg"
 width="111.000000pt" height="140.000000pt" viewBox="0 0 111.000000 140.000000"
 preserveAspectRatio="xMidYMid meet">
<metadata>
Created by potrace 1.16, written by Peter Selinger 2001-2019
</metadata>
<g transform="translate(0.000000,140.000000) scale(0.100000,-0.100000)"
fill="#000000" stroke="none">
<path d="M600 1065 c0 -29 -4 -35 -22 -37 -13 0 -30 -2 -38 -2 -11 -1 -15 -13
-14 -42 1 -73 25 -134 69 -181 47 -49 80 -55 131 -24 35 21 88 118 81 148 -3
13 -6 10 -12 -12 -23 -91 -94 -157 -147 -136 -49 19 -94 91 -105 166 l-6 45
35 -15 c20 -8 38 -11 42 -8 3 4 6 2 6 -3 0 -6 22 -8 55 -4 36 4 55 2 55 -4 0
-7 3 -8 8 -1 4 6 21 17 37 25 31 17 41 44 15 46 -40 3 -41 4 -34 39 6 33 5 35
-20 35 -23 0 -26 -4 -26 -34 0 -30 -3 -34 -30 -38 -37 -6 -44 3 -35 42 6 27 4
30 -19 30 -23 0 -26 -4 -26 -35z"/>
<path d="M307 839 c-4 -46 -7 -115 -7 -153 l0 -69 62 7 c120 12 208 75 208
148 0 61 -103 132 -209 145 l-48 5 -6 -83z m153 35 c89 -36 118 -120 60 -174
-33 -31 -107 -60 -152 -60 -33 0 -32 -2 -13 43 19 47 19 153 0 191 -8 15 -15
30 -15 31 0 6 80 -15 120 -31z"/>
<path d="M601 692 c-40 -42 -71 -122 -71 -183 l0 -39 140 0 c120 0 140 2 140
16 0 39 -163 60 -236 29 l-35 -14 7 37 c35 195 166 237 240 77 12 -27 23 -42
23 -31 1 30 -48 111 -79 129 -48 29 -88 22 -129 -21z"/>
<path d="M604 373 c4 -37 9 -69 12 -72 11 -11 18 15 22 74 4 62 3 65 -18 65
-22 0 -23 -2 -16 -67z"/>
<path d="M723 374 c8 -103 24 -104 34 0 6 64 5 66 -17 66 -22 0 -23 -2 -17
-66z"/>
</g>
</svg>
