<?xml version="1.0" standalone="no"?>
<!DOCTYPE svg PUBLIC "-//W3C//DTD SVG 20010904//EN"
 "http://www.w3.org/TR/2001/REC-SVG-20010904/DTD/svg10.dtd">
<svg version="1.0" xmlns="http://www.w3.org/2000/svg"
 width="131.000000pt" height="134.000000pt" viewBox="0 0 131.000000 134.000000"
 preserveAspectRatio="xMidYMid meet">
<metadata>
Created by potrace 1.16, written by Peter Selinger 2001-2019
</metadata>
<g transform="translate(0.000000,134.000000) scale(0.100000,-0.100000)"
fill="#000000" stroke="none">
<path d="M513 988 c3 -29 9 -62 13 -72 7 -18 5 -18 -25 3 -40 29 -111 51 -163
51 l-38 0 0 -291 0 -292 58 7 c32 3 82 19 113 35 l57 28 -9 -31 c-5 -17 -9
-47 -9 -66 l0 -35 147 2 c167 2 156 -5 140 89 l-7 40 58 -28 c31 -15 81 -30
110 -34 l52 -7 0 293 0 293 -54 -6 c-46 -4 -82 -17 -160 -55 -4 -2 -6 4 -3 14
3 11 9 40 13 67 l6 47 -152 0 -153 0 6 -52z m52 -3 c53 -19 137 -19 182 0 19
8 38 15 40 15 11 0 -10 -78 -33 -128 -51 -105 -140 -106 -195 -2 -10 21 -41
130 -36 130 1 0 20 -7 42 -15z m-113 -57 c56 -24 86 -54 94 -96 6 -28 1 -37
-33 -71 -37 -37 -116 -71 -165 -71 -18 0 -18 1 -1 27 24 37 25 165 1 211 l-17
33 37 -7 c20 -3 58 -15 84 -26z m528 28 c0 -2 -7 -17 -15 -32 -19 -38 -20
-154 0 -200 l15 -36 -38 7 c-58 11 -131 45 -152 73 -38 48 -21 107 43 147 31
20 147 52 147 41z m-321 -176 c26 0 46 7 63 23 l25 23 12 -33 c15 -40 66 -81
123 -97 l42 -13 -50 -17 c-52 -17 -107 -65 -118 -103 l-7 -22 -37 25 c-45 31
-83 27 -124 -13 l-28 -27 0 23 c0 39 -40 82 -104 112 -34 15 -53 28 -43 29 52
1 147 79 147 122 0 19 2 18 31 -6 21 -18 42 -26 68 -26z m-190 -142 c29 -15
53 -37 66 -60 18 -35 19 -38 3 -72 -12 -25 -32 -43 -67 -60 -46 -24 -131 -45
-131 -33 0 2 7 21 15 40 19 45 19 120 0 172 -8 22 -15 42 -15 44 0 11 88 -11
129 -31z m496 2 c-21 -40 -20 -161 1 -202 l16 -31 -46 6 c-90 13 -166 69 -166
123 0 65 89 130 183 133 27 1 27 1 12 -29z m-239 -105 c31 -33 64 -114 64
-156 0 -17 -3 -17 -35 -3 -45 19 -162 18 -199 -1 -15 -8 -29 -15 -31 -15 -6 0
15 91 28 122 19 46 71 88 109 88 22 0 40 -10 64 -35z"/>
<path d="M646 913 c-4 -9 -5 -17 -4 -18 7 -5 72 -25 74 -22 2 1 -12 15 -31 30
-28 23 -34 24 -39 10z"/>
<path d="M426 883 c-4 -9 -5 -17 -4 -18 7 -5 72 -25 74 -22 2 1 -12 15 -31 30
-28 23 -34 24 -39 10z"/>
<path d="M857 843 c-18 -18 -6 -41 26 -46 17 -2 33 -4 34 -3 2 2 -10 15 -25
29 -16 15 -31 24 -35 20z"/>
<path d="M581 642 c-8 -16 -4 -20 30 -29 46 -12 48 -6 9 25 -28 22 -29 22 -39
4z"/>
<path d="M936 364 c-3 -9 -6 -17 -6 -19 0 -5 73 -25 76 -22 2 2 -12 15 -31 30
-28 22 -34 24 -39 11z"/>
<path d="M395 340 c-8 -26 -9 -26 40 -35 22 -4 38 -5 35 -3 -3 1 -19 16 -37
31 -31 29 -31 29 -38 7z"/>
</g>
</svg>
