<?xml version="1.0" standalone="no"?>
<!DOCTYPE svg PUBLIC "-//W3C//DTD SVG 20010904//EN"
 "http://www.w3.org/TR/2001/REC-SVG-20010904/DTD/svg10.dtd">
<svg version="1.0" xmlns="http://www.w3.org/2000/svg"
 width="137.000000pt" height="136.000000pt" viewBox="0 0 137.000000 136.000000"
 preserveAspectRatio="xMidYMid meet">
<metadata>
Created by potrace 1.16, written by Peter Selinger 2001-2019
</metadata>
<g transform="translate(0.000000,136.000000) scale(0.100000,-0.100000)"
fill="#000000" stroke="none">
<path d="M563 1039 c5 -19 4 -20 -12 -5 -16 15 -24 10 -102 -55 -46 -40 -86
-76 -87 -81 -2 -5 2 -16 9 -25 12 -14 11 -15 -7 -9 -20 6 -23 1 -39 -91 -9
-54 -19 -108 -22 -120 -5 -22 7 -29 42 -24 6 1 -1 -7 -14 -17 l-23 -19 57 -99
c32 -54 60 -101 62 -103 1 -2 12 4 23 14 21 19 21 19 11 -7 -10 -26 -9 -27 88
-62 111 -41 126 -43 140 -18 10 16 10 16 11 0 0 -27 40 -23 142 15 79 28 89
34 85 54 -3 18 -1 21 12 14 12 -7 26 11 74 96 32 58 57 106 55 108 -2 1 -12 7
-23 13 -19 11 -19 11 3 12 12 0 22 1 22 3 0 1 -9 54 -20 117 -11 63 -20 117
-20 119 0 2 -9 1 -19 -2 -17 -4 -18 -2 -9 13 10 15 6 23 -22 47 -19 15 -59 49
-89 75 -52 44 -57 46 -73 31 -17 -15 -18 -15 -18 5 0 21 -4 22 -121 22 -118 0
-121 -1 -116 -21z m119 -39 c18 1 50 7 72 15 l38 13 -6 -31 c-20 -98 -79 -155
-133 -126 -27 14 -58 72 -69 128 l-7 31 36 -15 c20 -8 51 -15 69 -15z m-94
-97 c6 -72 -15 -97 -73 -90 -38 4 -125 51 -125 66 0 4 15 12 33 19 38 14 103
74 113 105 6 18 8 17 27 -13 12 -18 23 -56 25 -87z m320 14 c21 -15 49 -27 61
-27 19 0 21 -3 11 -15 -22 -27 -99 -65 -131 -65 -18 0 -41 7 -51 17 -25 23
-24 95 3 151 l22 44 23 -40 c13 -21 40 -51 62 -65z m-112 -106 c15 -12 36 -21
46 -21 15 0 18 -4 13 -17 -21 -49 -18 -73 14 -102 l31 -29 -25 -6 c-34 -9 -58
-49 -53 -86 4 -29 4 -30 -29 -24 -38 7 -78 -13 -88 -46 -6 -19 -8 -18 -29 12
-20 30 -26 33 -74 33 -48 -1 -51 1 -46 21 10 38 -30 93 -68 94 -13 0 -10 7 13
29 32 32 37 67 14 97 -21 27 -19 31 18 32 34 1 77 39 77 68 0 13 3 13 22 0 30
-21 84 -20 106 2 16 17 17 16 25 -10 4 -15 19 -36 33 -47z m-340 -1 c38 -24
57 -58 52 -95 -5 -42 -47 -68 -118 -73 l-61 -4 23 38 c18 30 23 54 23 105 l0
67 25 -10 c14 -5 39 -18 56 -28z m539 -28 c0 -51 5 -76 22 -104 l22 -38 -32 0
c-47 0 -106 19 -128 41 -23 23 -25 66 -3 97 12 18 95 70 114 72 3 0 5 -30 5
-68z m-492 -163 c30 -16 37 -28 37 -65 0 -34 -46 -106 -80 -124 -17 -9 -20 -8
-20 12 -1 37 -35 102 -69 130 -32 28 -30 34 17 48 40 12 90 11 115 -1z m506
-3 l34 -12 -26 -16 c-34 -23 -66 -78 -75 -128 l-7 -42 -27 21 c-66 52 -90 139
-48 173 26 21 96 23 149 4z m-358 -115 c20 -16 24 -30 27 -95 2 -42 2 -76 -1
-76 -4 0 -23 11 -43 25 -42 28 -108 49 -135 42 -11 -3 -19 -3 -19 -1 0 15 32
63 57 85 46 43 78 49 114 20z m194 -22 c20 -18 42 -44 50 -59 l14 -28 -55 -4
c-40 -4 -66 -13 -99 -36 l-43 -31 -7 40 c-8 44 1 94 21 127 22 34 74 30 119
-9z"/>
<path d="M635 816 c-42 -18 -81 -67 -89 -110 -9 -46 21 -117 59 -142 41 -27
114 -29 152 -5 99 62 93 205 -10 252 -49 22 -71 23 -112 5z"/>
</g>
</svg>
