<?xml version="1.0" standalone="no"?>
<!DOCTYPE svg PUBLIC "-//W3C//DTD SVG 20010904//EN"
 "http://www.w3.org/TR/2001/REC-SVG-20010904/DTD/svg10.dtd">
<svg version="1.0" xmlns="http://www.w3.org/2000/svg"
 width="139.000000pt" height="131.000000pt" viewBox="0 0 139.000000 131.000000"
 preserveAspectRatio="xMidYMid meet">
<metadata>
Created by potrace 1.16, written by Peter Selinger 2001-2019
</metadata>
<g transform="translate(0.000000,131.000000) scale(0.100000,-0.100000)"
fill="#000000" stroke="none">
<path d="M584 956 c3 -30 9 -62 13 -72 6 -16 3 -15 -21 4 -35 27 -116 52 -168
52 l-38 0 0 -250 c0 -137 -3 -250 -7 -250 -3 0 -15 8 -25 17 -17 15 -20 15
-28 3 -14 -22 -12 -30 9 -30 37 0 51 -12 51 -41 0 -24 4 -29 23 -29 39 0 139
30 176 52 33 21 34 21 27 2 -4 -10 -10 -40 -13 -66 l-6 -48 153 0 153 0 -6 48
c-3 26 -9 55 -13 66 -6 17 -2 16 37 -7 41 -23 126 -47 169 -47 19 0 20 9 20
290 l0 290 -38 0 c-52 0 -133 -25 -168 -52 -24 -19 -27 -20 -21 -4 4 10 10 42
13 72 l7 54 -153 0 -153 0 7 -54z m145 -9 c44 0 78 6 100 18 l34 17 -5 -46
c-3 -26 -17 -68 -30 -94 l-24 -47 -74 0 -74 0 -24 47 c-13 26 -27 68 -29 93
l-6 45 33 -17 c21 -10 58 -16 99 -16z m-217 -43 c54 -18 108 -72 108 -109 0
-23 -53 -95 -70 -95 -5 0 -16 7 -24 16 -17 17 -36 11 -36 -12 0 -8 8 -14 18
-15 26 -1 -12 -15 -66 -24 l-44 -7 17 32 c22 43 23 152 1 203 l-16 39 33 -7
c17 -4 53 -13 79 -21z m531 -6 c-23 -45 -23 -161 1 -207 l18 -33 -44 7 c-98
15 -178 76 -178 134 0 12 16 38 35 59 33 35 35 35 30 11 -5 -18 -2 -26 7 -26
7 0 27 -3 43 -7 l30 -7 -35 29 c-19 17 -33 33 -29 36 6 6 107 34 127 35 9 1 8
-8 -5 -31z m-394 -112 c9 -10 8 -15 -4 -20 -10 -4 -15 1 -15 14 0 24 4 25 19
6z m181 -6 c0 -13 -5 -18 -15 -14 -12 5 -13 10 -4 20 15 19 19 18 19 -6z
m-235 -127 l0 -58 -61 30 -61 30 41 13 c23 8 48 20 56 28 23 22 25 18 25 -43z
m300 41 c14 -9 40 -22 58 -28 l34 -11 -61 -30 -61 -30 0 58 c0 31 1 57 3 57 1
0 14 -7 27 -16z m-367 -79 c52 -21 92 -67 92 -105 0 -58 -109 -130 -196 -130
-22 0 -22 1 -7 31 21 43 21 156 -1 199 -9 18 -16 34 -16 35 0 6 92 -16 128
-30z m514 -7 c-22 -44 -21 -152 1 -197 l17 -34 -44 6 c-25 4 -60 13 -78 22
l-33 15 30 -6 30 -5 -35 29 c-30 26 -36 27 -46 14 -9 -13 -13 -12 -27 9 -24
34 -21 73 8 108 28 33 112 70 162 70 l31 1 -16 -32z m-215 -95 c-3 -3 -11 -2
-17 2 -8 5 -7 11 2 22 12 15 13 14 16 -1 2 -10 1 -20 -1 -23z m-25 -10 c28
-32 49 -83 55 -133 l6 -50 -34 17 c-47 24 -134 28 -188 10 l-44 -16 7 46 c3
25 16 64 28 86 22 38 26 40 78 44 30 2 57 6 59 9 8 8 18 4 33 -13z"/>
</g>
</svg>
