<?xml version="1.0" standalone="no"?>
<!DOCTYPE svg PUBLIC "-//W3C//DTD SVG 20010904//EN"
 "http://www.w3.org/TR/2001/REC-SVG-20010904/DTD/svg10.dtd">
<svg version="1.0" xmlns="http://www.w3.org/2000/svg"
 width="131.000000pt" height="131.000000pt" viewBox="0 0 131.000000 131.000000"
 preserveAspectRatio="xMidYMid meet">
<metadata>
Created by potrace 1.16, written by Peter Selinger 2001-2019
</metadata>
<g transform="translate(0.000000,131.000000) scale(0.100000,-0.100000)"
fill="#000000" stroke="none">
<path d="M513 958 c3 -29 9 -62 13 -73 7 -18 6 -18 -20 3 -35 27 -116 52 -168
52 l-38 0 0 -290 0 -290 23 0 c38 0 139 30 173 51 l33 20 -10 -33 c-5 -18 -9
-48 -9 -65 l0 -33 151 0 152 0 -7 43 c-4 23 -9 52 -12 63 -5 21 -3 20 53 -7
32 -16 82 -31 111 -35 l52 -7 0 293 0 293 -58 -5 c-34 -4 -80 -17 -111 -32
-46 -24 -52 -25 -47 -9 2 10 8 39 12 66 l6 47 -152 0 -153 0 6 -52z m148 -10
c43 0 78 6 99 17 l33 17 -7 -43 c-4 -24 -18 -67 -31 -95 l-25 -52 -72 2 -73 1
-22 40 c-12 22 -26 63 -31 91 l-9 52 35 -15 c20 -8 66 -15 103 -15z m-209 -50
c56 -24 86 -54 94 -94 11 -58 -69 -122 -174 -139 l-44 -7 17 32 c22 43 23 152
2 203 l-16 38 37 -7 c20 -3 58 -15 84 -26z m521 5 c-26 -39 -25 -178 1 -217
l18 -29 -42 7 c-62 10 -138 45 -160 74 -22 27 -26 72 -10 102 14 27 90 69 141
79 71 14 71 14 52 -16z m-405 -139 c-14 -14 -15 -14 -10 11 3 19 8 23 15 16 8
-8 7 -16 -5 -27z m185 17 c3 -13 1 -18 -9 -14 -7 2 -10 11 -7 19 7 19 10 18
16 -5z m-235 -97 c-6 -22 -6 -45 0 -62 l9 -27 -62 30 -62 30 45 17 c25 10 53
24 61 33 21 20 21 20 9 -21z m363 -17 l44 -15 -41 -11 c-23 -6 -52 -19 -65
-30 l-24 -19 0 59 c0 56 1 58 21 45 11 -8 40 -21 65 -29z m-413 -59 c30 -15
54 -37 67 -60 18 -35 19 -38 3 -72 -20 -41 -93 -83 -163 -93 l-45 -6 17 33
c21 44 21 156 0 200 l-17 33 45 -6 c25 -2 67 -15 93 -29z m512 28 c0 -2 -7
-20 -15 -39 -8 -20 -15 -59 -15 -87 0 -28 7 -67 15 -87 19 -44 19 -43 -3 -43
-45 0 -128 34 -159 65 -67 67 -24 149 97 186 27 8 80 12 80 5z m-226 -110 c-3
-9 -10 -13 -16 -10 -5 3 -4 12 3 20 15 18 22 13 13 -10z m-174 0 c0 -8 -4 -18
-10 -21 -5 -3 -10 3 -10 14 0 12 5 21 10 21 6 0 10 -6 10 -14z m161 -37 c21
-27 49 -110 49 -145 l0 -23 -47 21 c-54 24 -156 21 -197 -6 l-25 -16 6 38 c9
56 31 114 53 137 15 16 31 20 81 19 53 -1 64 -4 80 -25z"/>
</g>
</svg>
