<?xml version="1.0" standalone="no"?>
<!DOCTYPE svg PUBLIC "-//W3C//DTD SVG 20010904//EN"
 "http://www.w3.org/TR/2001/REC-SVG-20010904/DTD/svg10.dtd">
<svg version="1.0" xmlns="http://www.w3.org/2000/svg"
 width="129.000000pt" height="130.000000pt" viewBox="0 0 129.000000 130.000000"
 preserveAspectRatio="xMidYMid meet">
<metadata>
Created by potrace 1.16, written by Peter Selinger 2001-2019
</metadata>
<g transform="translate(0.000000,130.000000) scale(0.100000,-0.100000)"
fill="#000000" stroke="none">
<path d="M520 978 c0 -20 -1 -20 -18 -5 -17 15 -23 11 -102 -68 -83 -83 -84
-85 -65 -105 18 -20 18 -20 -8 -20 l-27 0 0 -120 0 -120 31 0 c27 0 30 -2 19
-15 -17 -21 -4 -19 28 4 54 38 137 45 159 14 20 -27 15 -94 -10 -137 -24 -42
-47 -58 -47 -32 0 43 -139 151 -163 127 -7 -7 16 -37 76 -98 l87 -88 23 29 23
29 -4 -37 -4 -36 122 0 122 0 -4 40 -3 39 27 -26 28 -27 80 79 c44 44 80 85
80 91 0 6 -10 19 -22 27 -23 16 -23 16 10 16 l32 1 0 120 0 120 -27 0 c-26 0
-26 0 -8 20 19 20 18 22 -60 100 -44 44 -85 80 -92 80 -6 0 -19 -10 -27 -22
-16 -22 -16 -22 -16 10 l0 32 -120 0 c-116 0 -120 -1 -120 -22z m128 -26 c37
2 74 7 83 12 14 6 16 2 9 -31 -12 -59 -26 -89 -56 -112 -32 -25 -52 -26 -81
-6 -26 18 -63 96 -63 132 0 21 2 22 21 13 12 -7 50 -10 87 -8z m-114 -57 c31
-66 33 -95 7 -126 -26 -32 -87 -29 -149 7 -41 24 -44 28 -28 38 61 36 96 69
112 105 9 22 21 38 24 36 4 -3 19 -30 34 -60z m329 -42 c20 -17 45 -34 56 -38
29 -9 17 -23 -43 -51 -63 -29 -86 -30 -121 -2 -24 19 -27 26 -22 64 2 24 17
64 32 90 l27 46 18 -38 c9 -22 33 -53 53 -71z m-266 -65 c-20 -13 -27 -9 -27
12 0 18 3 19 20 8 14 -9 16 -14 7 -20z m123 6 c0 -16 -2 -16 -24 -8 -13 5 -14
9 -5 20 13 16 29 9 29 -12z m-269 -68 c48 -32 59 -68 32 -104 -22 -29 -73 -57
-122 -66 -29 -5 -32 -4 -26 12 14 31 17 130 6 163 l-11 32 41 -6 c22 -3 58
-17 80 -31z m499 8 c-13 -33 -13 -116 0 -150 6 -15 8 -29 6 -31 -3 -3 -30 3
-61 12 -58 19 -105 61 -105 95 0 40 84 99 142 100 25 0 27 -2 18 -26z m-436
-19 c-5 -12 -10 -13 -20 -4 -19 15 -18 19 6 19 13 0 18 -5 14 -15z m284 -5
c-9 -14 -14 -16 -20 -7 -13 20 -9 27 12 27 18 0 19 -3 8 -20z m12 -121 c0 -5
-9 -9 -20 -9 -22 0 -23 1 -14 24 5 13 9 14 20 5 8 -6 14 -15 14 -20z m-296 6
c4 -11 -2 -15 -21 -15 -21 0 -24 2 -13 15 7 8 16 15 20 15 4 0 10 -7 14 -15z
m361 -44 c22 -10 46 -25 53 -33 10 -13 8 -17 -17 -27 -33 -14 -83 -64 -104
-105 l-14 -30 -26 40 c-38 57 -44 112 -17 147 26 33 66 35 125 8z m-267 -45
c-2 -1 -10 -7 -19 -14 -14 -11 -17 -9 -21 12 -4 22 -3 23 19 13 13 -5 22 -11
21 -11z m112 -8 c0 -31 0 -31 -21 -12 -19 17 -19 19 -3 31 24 17 24 17 24 -19z
m-42 -14 c28 -19 53 -67 62 -117 7 -33 5 -37 -9 -31 -28 13 -148 16 -170 4
-19 -10 -21 -8 -21 17 1 39 33 107 61 127 29 20 48 20 77 0z"/>
</g>
</svg>
