<?xml version="1.0" standalone="no"?>
<!DOCTYPE svg PUBLIC "-//W3C//DTD SVG 20010904//EN"
 "http://www.w3.org/TR/2001/REC-SVG-20010904/DTD/svg10.dtd">
<svg version="1.0" xmlns="http://www.w3.org/2000/svg"
 width="144.000000pt" height="140.000000pt" viewBox="0 0 144.000000 140.000000"
 preserveAspectRatio="xMidYMid meet">
<metadata>
Created by potrace 1.16, written by Peter Selinger 2001-2019
</metadata>
<g transform="translate(0.000000,140.000000) scale(0.100000,-0.100000)"
fill="#000000" stroke="none">
<path d="M600 1084 c0 -8 -4 -13 -10 -9 -5 3 -46 -22 -92 -56 -46 -34 -88 -64
-95 -66 -6 -3 -9 -12 -6 -21 5 -11 2 -14 -9 -10 -12 5 -22 -16 -47 -98 -17
-57 -34 -110 -37 -119 -4 -10 0 -15 12 -15 13 0 15 -3 7 -8 -17 -11 53 -236
72 -229 8 4 11 -1 9 -11 -3 -12 19 -34 73 -72 105 -75 112 -78 129 -55 12 17
14 17 14 2 0 -15 14 -17 120 -17 89 0 120 3 120 13 0 8 3 8 9 -2 7 -11 29 0
103 54 51 37 95 70 97 71 2 2 -1 10 -8 18 -9 11 -8 14 5 12 13 -1 24 20 46 89
30 98 34 130 17 141 -8 5 -8 8 0 13 15 9 -59 233 -75 227 -6 -2 -11 1 -10 8 1
18 -175 148 -191 141 -7 -2 -13 0 -13 5 0 6 -49 10 -120 10 -102 0 -120 -2
-120 -16z m144 -40 c26 3 54 11 62 17 19 16 19 -14 -2 -74 -16 -49 -54 -87
-84 -87 -32 0 -68 39 -86 93 -9 28 -19 57 -21 64 -3 8 9 6 39 -4 27 -10 60
-13 92 -9z m175 -63 c16 -12 47 -27 67 -34 l37 -13 -42 -33 c-72 -57 -134 -61
-161 -11 -14 26 -12 57 6 109 22 64 24 66 44 33 10 -16 32 -39 49 -51z m-305
20 c30 -94 11 -161 -46 -161 -30 0 -100 35 -127 64 l-22 24 37 6 c26 5 51 22
88 61 28 29 52 53 52 54 1 1 9 -21 18 -48z m221 -147 c15 -10 37 -14 55 -12
25 4 30 2 24 -11 -4 -9 -9 -30 -11 -47 -4 -25 1 -36 27 -57 17 -15 37 -27 43
-27 7 0 -2 -9 -19 -19 -39 -23 -50 -62 -30 -102 l14 -29 -38 0 c-44 0 -80 -35
-80 -77 l0 -25 -32 27 c-38 32 -81 29 -115 -11 l-23 -25 0 25 c0 41 -41 80
-84 80 -29 0 -35 3 -30 16 17 38 15 66 -6 93 -12 15 -28 27 -37 27 -10 0 -5
10 16 29 32 30 40 66 21 102 -10 17 -7 19 30 19 45 0 75 23 86 65 6 23 8 24
27 10 29 -21 70 -19 98 4 l24 19 8 -29 c4 -16 19 -36 32 -45z m208 -1 c4 -41
15 -69 36 -100 l31 -43 -60 0 c-71 0 -104 11 -125 44 -14 22 -15 28 -1 59 12
31 85 97 106 97 4 0 10 -26 13 -57z m-588 19 c78 -54 94 -127 34 -157 -16 -9
-56 -15 -95 -15 l-67 0 21 23 c30 32 52 90 52 137 0 22 3 40 8 40 4 -1 25 -13
47 -28z m665 -187 c0 -3 -9 -16 -20 -28 -26 -28 -54 -121 -46 -153 7 -25 6
-25 -24 -9 -16 8 -46 31 -65 51 -50 50 -46 102 10 132 20 11 145 17 145 7z
m-624 -24 c38 -23 46 -48 28 -89 -11 -28 -85 -92 -106 -92 -4 0 -8 17 -8 39 0
23 -12 62 -30 97 -16 32 -30 60 -30 62 0 1 26 2 58 2 38 0 67 -6 88 -19z m498
-160 c25 -18 46 -36 46 -40 0 -5 -12 -11 -27 -14 -39 -8 -94 -47 -119 -85
l-22 -32 -18 38 c-9 20 -18 58 -18 83 -2 94 64 114 158 50z m-379 9 c22 -24
22 -94 0 -146 l-16 -38 -30 37 c-33 41 -95 77 -130 77 -19 0 -20 2 -8 17 26
31 103 73 134 73 19 0 39 -8 50 -20z m173 -53 c24 -26 52 -87 52 -116 0 -18
-3 -19 -26 -11 -34 13 -130 13 -156 -1 -28 -15 -31 -8 -17 45 23 92 98 135
147 83z"/>
<path d="M655 811 c-46 -28 -66 -56 -72 -100 -7 -52 1 -83 33 -120 52 -62 150
-63 208 -2 37 39 48 118 22 166 -36 66 -131 94 -191 56z"/>
</g>
</svg>
