<?xml version="1.0" standalone="no"?>
<!DOCTYPE svg PUBLIC "-//W3C//DTD SVG 20010904//EN"
 "http://www.w3.org/TR/2001/REC-SVG-20010904/DTD/svg10.dtd">
<svg version="1.0" xmlns="http://www.w3.org/2000/svg"
 width="131.000000pt" height="131.000000pt" viewBox="0 0 131.000000 131.000000"
 preserveAspectRatio="xMidYMid meet">
<metadata>
Created by potrace 1.16, written by Peter Selinger 2001-2019
</metadata>
<g transform="translate(0.000000,131.000000) scale(0.100000,-0.100000)"
fill="#000000" stroke="none">
<path d="M540 982 c0 -15 4 -42 10 -61 l9 -34 -35 42 c-20 22 -41 41 -47 41
-7 -1 -36 -31 -64 -68 -29 -38 -62 -78 -73 -90 l-20 -22 37 -24 c48 -31 121
-51 156 -42 43 10 69 45 64 86 -2 19 -7 44 -11 55 -5 11 1 6 12 -12 68 -105
181 -44 199 108 l6 49 -122 0 -121 0 0 -28z m153 -25 c23 6 49 14 59 17 14 7
15 3 7 -36 -14 -58 -39 -100 -72 -116 -22 -11 -31 -10 -57 3 -34 18 -69 82
-70 126 l0 26 46 -15 c35 -11 55 -13 87 -5z m-172 -48 c47 -66 54 -137 16
-161 -30 -19 -141 -1 -169 28 -5 4 5 15 22 25 35 22 90 95 90 121 0 27 16 22
41 -13z"/>
<path d="M808 932 c-121 -126 -75 -252 77 -208 30 9 66 27 81 39 l26 23 -72
89 c-40 50 -74 91 -75 92 -1 2 -17 -14 -37 -35z m109 -129 l43 -31 -43 -21
c-46 -22 -107 -27 -137 -11 -42 22 -31 104 22 168 l22 27 26 -50 c14 -28 43
-64 67 -82z"/>
<path d="M622 774 c-57 -40 -69 -125 -24 -175 24 -27 37 -33 85 -37 31 -2 57
-1 57 4 1 14 -84 224 -90 224 -3 0 -16 -7 -28 -16z m3 -111 c3 -13 19 -38 36
-58 35 -39 22 -46 -27 -16 -46 28 -60 78 -38 128 l18 38 3 -35 c2 -19 6 -45 8
-57z"/>
<path d="M322 703 c-19 -4 -23 -9 -18 -26 3 -12 15 -65 27 -118 l22 -97 29 9
c46 13 114 56 132 83 60 93 -48 176 -192 149z m143 -27 c74 -31 68 -106 -14
-157 -57 -36 -73 -37 -65 -4 8 33 -13 119 -38 150 l-19 25 51 0 c28 0 66 -7
85 -14z"/>
<path d="M845 695 c-41 -21 -55 -43 -55 -83 0 -28 8 -43 39 -72 32 -31 127
-77 137 -67 6 6 44 188 44 212 0 24 -2 25 -67 25 -41 0 -80 -6 -98 -15z m126
-22 c-26 -35 -43 -112 -34 -154 l6 -32 -54 29 c-68 37 -101 88 -80 128 18 32
72 55 134 55 l48 1 -20 -27z"/>
<path d="M699 511 c-17 -17 -30 -41 -31 -58 -4 -79 15 -153 39 -153 8 0 60 21
114 46 111 53 110 50 41 126 -36 40 -85 68 -117 68 -9 0 -30 -13 -46 -29z
m100 -5 c15 -8 43 -32 61 -53 l34 -38 -47 -7 c-51 -7 -109 -38 -131 -70 -13
-19 -15 -18 -26 17 -16 47 -8 120 15 145 21 24 55 25 94 6z"/>
<path d="M493 510 c-28 -16 -103 -105 -102 -120 0 -10 184 -90 206 -90 17 0
25 9 32 38 40 141 -34 234 -136 172z m103 -13 c23 -20 28 -32 28 -73 0 -27 -3
-62 -7 -78 l-8 -29 -27 25 c-34 32 -66 48 -120 62 l-43 11 33 38 c32 36 81 67
105 67 7 0 24 -11 39 -23z"/>
</g>
</svg>
