<?xml version="1.0" standalone="no"?>
<!DOCTYPE svg PUBLIC "-//W3C//DTD SVG 20010904//EN"
 "http://www.w3.org/TR/2001/REC-SVG-20010904/DTD/svg10.dtd">
<svg version="1.0" xmlns="http://www.w3.org/2000/svg"
 width="161.000000pt" height="118.000000pt" viewBox="0 0 161.000000 118.000000"
 preserveAspectRatio="xMidYMid meet">
<metadata>
Created by potrace 1.16, written by Peter Selinger 2001-2019
</metadata>
<g transform="translate(0.000000,118.000000) scale(0.100000,-0.100000)"
fill="#000000" stroke="none">
<path d="M300 590 l0 -293 148 6 c260 12 481 56 628 127 80 39 154 103 154
135 0 11 11 15 41 15 24 0 38 4 34 10 -3 6 -22 10 -41 10 -24 0 -34 5 -34 15
0 9 -18 35 -40 58 -100 109 -390 188 -742 204 l-148 6 0 -293z m320 259 c309
-34 533 -118 586 -221 l16 -31 -248 8 c-229 6 -246 6 -240 -10 3 -9 6 -21 6
-27 0 -6 33 -8 93 -4 50 3 159 9 240 12 l148 6 -15 -30 c-19 -37 -65 -76 -125
-106 -109 -56 -333 -107 -521 -121 -47 -3 -113 -8 -147 -11 l-62 -5 34 35 c51
55 70 122 70 251 0 98 -3 116 -27 167 -15 32 -39 69 -55 84 l-27 25 89 -6 c50
-3 133 -11 185 -16z"/>
</g>
</svg>
