<?xml version="1.0" standalone="no"?>
<!DOCTYPE svg PUBLIC "-//W3C//DTD SVG 20010904//EN"
 "http://www.w3.org/TR/2001/REC-SVG-20010904/DTD/svg10.dtd">
<svg version="1.0" xmlns="http://www.w3.org/2000/svg"
 width="142.000000pt" height="115.000000pt" viewBox="0 0 142.000000 115.000000"
 preserveAspectRatio="xMidYMid meet">
<metadata>
Created by potrace 1.16, written by Peter Selinger 2001-2019
</metadata>
<g transform="translate(0.000000,115.000000) scale(0.100000,-0.100000)"
fill="#000000" stroke="none">
<path d="M582 819 c-67 -33 -105 -72 -134 -137 -45 -102 -29 -214 45 -298 62
-70 98 -84 220 -84 100 0 105 1 152 32 49 33 96 95 116 156 18 56 6 163 -25
215 -79 135 -237 185 -374 116z m167 -169 c1 -8 -83 1 -91 9 -5 4 9 5 30 3
l37 -4 -30 33 -30 33 42 -34 c23 -19 42 -37 42 -40z m-99 -165 c25 -26 30 -35
17 -35 -9 0 -17 5 -17 12 0 6 -10 22 -22 35 -12 13 -19 23 -17 23 3 0 20 -16
39 -35z m-22 -22 c-10 -2 -26 -2 -35 0 -10 3 -2 5 17 5 19 0 27 -2 18 -5z"/>
<path d="M1043 775 c-7 -20 -6 -21 37 -29 l35 -6 -27 25 c-32 29 -37 30 -45
10z"/>
<path d="M307 651 c-3 -14 2 -21 18 -25 13 -3 31 -9 42 -12 11 -4 5 5 -15 25
-39 37 -38 36 -45 12z"/>
<path d="M1033 335 c-7 -20 -6 -21 36 -29 l35 -6 -24 25 c-27 29 -38 31 -47
10z"/>
</g>
</svg>
