<?xml version="1.0" standalone="no"?>
<!DOCTYPE svg PUBLIC "-//W3C//DTD SVG 20010904//EN"
 "http://www.w3.org/TR/2001/REC-SVG-20010904/DTD/svg10.dtd">
<svg version="1.0" xmlns="http://www.w3.org/2000/svg"
 width="144.000000pt" height="89.000000pt" viewBox="0 0 144.000000 89.000000"
 preserveAspectRatio="xMidYMid meet">
<metadata>
Created by potrace 1.16, written by Peter Selinger 2001-2019
</metadata>
<g transform="translate(0.000000,89.000000) scale(0.100000,-0.100000)"
fill="#000000" stroke="none">
<path d="M593 574 c-23 -9 -65 -35 -92 -60 -49 -44 -49 -44 -125 -44 -69 0
-76 -2 -76 -20 0 -18 7 -20 66 -20 59 0 65 -2 59 -17 -9 -23 -24 -84 -25 -100
0 -10 66 -13 295 -13 334 0 309 -8 280 86 -8 27 -15 50 -15 52 0 1 41 2 90 2
53 0 90 4 90 10 0 6 -39 10 -97 10 l-98 0 -38 40 c-56 57 -118 84 -202 87 -44
2 -86 -3 -112 -13z m225 -28 c26 -13 58 -36 71 -50 l24 -26 -219 0 -219 1 42
38 c80 72 203 87 301 37z m136 -147 c23 -56 21 -59 -21 -39 -104 50 -336 54
-450 8 -35 -14 -63 -22 -63 -17 0 6 6 25 14 44 l15 35 223 2 c123 2 233 4 245
5 16 1 25 -8 37 -38z"/>
</g>
</svg>
