<?xml version="1.0" standalone="no"?>
<!DOCTYPE svg PUBLIC "-//W3C//DTD SVG 20010904//EN"
 "http://www.w3.org/TR/2001/REC-SVG-20010904/DTD/svg10.dtd">
<svg version="1.0" xmlns="http://www.w3.org/2000/svg"
 width="140.000000pt" height="110.000000pt" viewBox="0 0 140.000000 110.000000"
 preserveAspectRatio="xMidYMid meet">
<metadata>
Created by potrace 1.16, written by Peter Selinger 2001-2019
</metadata>
<g transform="translate(0.000000,110.000000) scale(0.100000,-0.100000)"
fill="#000000" stroke="none">
<path d="M1026 784 c-8 -21 -9 -20 34 -29 l35 -7 -24 26 c-28 30 -37 32 -45
10z"/>
<path d="M432 640 c17 -178 243 -293 411 -209 90 45 167 153 167 234 l0 25
-291 0 -292 0 5 -50z m130 -35 c119 -28 341 -12 404 30 22 14 24 14 24 0 0
-60 -85 -162 -162 -195 -43 -19 -65 -22 -129 -18 -132 8 -213 74 -254 206 -7
23 -6 23 24 8 16 -9 58 -23 93 -31z"/>
<path d="M726 514 c-8 -22 -9 -21 18 -28 13 -3 32 -9 43 -12 11 -4 5 5 -15 25
-39 36 -38 36 -46 15z"/>
<path d="M309 654 c-7 -8 -10 -16 -8 -18 8 -6 72 -26 75 -23 2 2 -10 15 -26
29 -25 22 -31 23 -41 12z"/>
<path d="M476 443 c-15 -15 -3 -30 34 -40 22 -5 40 -9 40 -8 0 9 -69 53 -74
48z"/>
<path d="M905 339 c-8 -25 -9 -24 35 -33 l34 -6 -29 30 c-16 16 -30 30 -31 30
-2 0 -6 -9 -9 -21z"/>
</g>
</svg>
