<?xml version="1.0" standalone="no"?>
<!DOCTYPE svg PUBLIC "-//W3C//DTD SVG 20010904//EN"
 "http://www.w3.org/TR/2001/REC-SVG-20010904/DTD/svg10.dtd">
<svg version="1.0" xmlns="http://www.w3.org/2000/svg"
 width="140.000000pt" height="110.000000pt" viewBox="0 0 140.000000 110.000000"
 preserveAspectRatio="xMidYMid meet">
<metadata>
Created by potrace 1.16, written by Peter Selinger 2001-2019
</metadata>
<g transform="translate(0.000000,110.000000) scale(0.100000,-0.100000)"
fill="#000000" stroke="none">
<path d="M1026 784 c-8 -21 -9 -20 34 -29 l35 -7 -24 26 c-28 30 -37 32 -45
10z"/>
<path d="M595 686 c-90 -42 -165 -142 -165 -221 0 -28 4 -35 19 -35 11 0 21
-4 23 -9 2 -5 19 -12 38 -15 33 -7 34 -6 16 9 -18 14 3 15 232 15 286 0 265
-8 236 90 -21 70 -98 149 -168 173 -73 25 -170 22 -231 -7z m251 -19 c57 -29
98 -72 125 -132 28 -61 25 -64 -47 -39 -131 44 -335 39 -436 -10 l-48 -23 7
26 c41 171 239 259 399 178z"/>
<path d="M309 654 c-7 -8 -10 -16 -8 -18 8 -6 72 -26 75 -23 2 2 -10 15 -26
29 -25 22 -31 23 -41 12z"/>
<path d="M905 339 c-8 -25 -9 -24 35 -33 l34 -6 -29 30 c-16 16 -30 30 -31 30
-2 0 -6 -9 -9 -21z"/>
</g>
</svg>
