<?xml version="1.0" standalone="no"?>
<!DOCTYPE svg PUBLIC "-//W3C//DTD SVG 20010904//EN"
 "http://www.w3.org/TR/2001/REC-SVG-20010904/DTD/svg10.dtd">
<svg version="1.0" xmlns="http://www.w3.org/2000/svg"
 width="118.000000pt" height="102.000000pt" viewBox="0 0 118.000000 102.000000"
 preserveAspectRatio="xMidYMid meet">
<metadata>
Created by potrace 1.16, written by Peter Selinger 2001-2019
</metadata>
<g transform="translate(0.000000,102.000000) scale(0.100000,-0.100000)"
fill="#000000" stroke="none">
<path d="M449 713 c-1 -5 0 -18 1 -30 1 -22 -2 -23 -76 -23 l-77 0 6 -45 c13
-92 88 -185 179 -219 41 -16 46 -22 52 -57 8 -48 26 -51 26 -4 0 27 4 35 18
35 9 0 26 3 38 6 18 5 22 0 28 -35 7 -43 26 -57 26 -18 0 44 12 66 43 78 80
33 167 151 167 227 l0 32 -141 0 -141 0 6 30 c5 27 3 30 -19 30 -21 0 -25 -5
-25 -30 0 -28 -3 -30 -36 -30 -35 0 -36 1 -30 30 5 27 3 30 -19 30 -14 0 -25
-3 -26 -7z m6 -138 c158 -20 280 -11 362 25 l45 20 -6 -33 c-8 -44 -53 -105
-105 -144 -57 -44 -74 -43 -69 2 4 33 2 35 -24 35 -27 0 -27 -1 -21 -45 l6
-45 -38 0 -37 0 4 45 c3 43 2 45 -25 45 -26 0 -27 -1 -21 -40 8 -47 0 -50 -62
-19 -68 32 -144 129 -144 183 0 13 7 12 43 -4 23 -10 65 -21 92 -25z"/>
</g>
</svg>
