<?xml version="1.0" standalone="no"?>
<!DOCTYPE svg PUBLIC "-//W3C//DTD SVG 20010904//EN"
 "http://www.w3.org/TR/2001/REC-SVG-20010904/DTD/svg10.dtd">
<svg version="1.0" xmlns="http://www.w3.org/2000/svg"
 width="138.000000pt" height="118.000000pt" viewBox="0 0 138.000000 118.000000"
 preserveAspectRatio="xMidYMid meet">
<metadata>
Created by potrace 1.16, written by Peter Selinger 2001-2019
</metadata>
<g transform="translate(0.000000,118.000000) scale(0.100000,-0.100000)"
fill="#000000" stroke="none">
<path d="M300 590 l0 -290 390 0 390 0 0 290 0 290 -390 0 -390 0 0 -290z
m768 -2 l2 -278 -315 0 -315 0 0 280 0 280 313 -2 312 -3 3 -277z"/>
<path d="M660 600 l0 -160 100 0 100 0 0 160 0 160 -100 0 -100 0 0 -160z"/>
</g>
</svg>
