<?xml version="1.0" standalone="no"?>
<!DOCTYPE svg PUBLIC "-//W3C//DTD SVG 20010904//EN"
 "http://www.w3.org/TR/2001/REC-SVG-20010904/DTD/svg10.dtd">
<svg version="1.0" xmlns="http://www.w3.org/2000/svg"
 width="118.000000pt" height="146.000000pt" viewBox="0 0 118.000000 146.000000"
 preserveAspectRatio="xMidYMid meet">
<metadata>
Created by potrace 1.16, written by Peter Selinger 2001-2019
</metadata>
<g transform="translate(0.000000,146.000000) scale(0.100000,-0.100000)"
fill="#000000" stroke="none">
<path d="M300 730 l0 -430 290 0 290 0 0 430 0 430 -290 0 -290 0 0 -430z
m568 153 l3 -143 -281 0 -280 0 0 138 c0 76 3 142 7 145 4 4 128 6 277 5 l271
-3 3 -142z m0 -305 l-3 -143 -275 0 -275 0 -3 143 -3 142 281 0 281 0 -3 -142z"/>
</g>
</svg>
