<?xml version="1.0" standalone="no"?>
<!DOCTYPE svg PUBLIC "-//W3C//DTD SVG 20010904//EN"
 "http://www.w3.org/TR/2001/REC-SVG-20010904/DTD/svg10.dtd">
<svg version="1.0" xmlns="http://www.w3.org/2000/svg"
 width="118.000000pt" height="129.000000pt" viewBox="0 0 118.000000 129.000000"
 preserveAspectRatio="xMidYMid meet">
<metadata>
Created by potrace 1.16, written by Peter Selinger 2001-2019
</metadata>
<g transform="translate(0.000000,129.000000) scale(0.100000,-0.100000)"
fill="#000000" stroke="none">
<path d="M300 957 c0 -54 55 -152 107 -192 25 -19 49 -35 54 -35 4 0 0 -18 -8
-40 -14 -35 -14 -44 -1 -85 9 -25 12 -45 8 -45 -4 0 -28 -16 -53 -35 -50 -38
-107 -138 -107 -187 l0 -28 285 0 c318 0 308 -2 287 68 -18 61 -67 127 -115
158 -33 21 -44 33 -39 44 8 19 8 111 0 130 -5 11 6 23 37 43 69 44 125 137
125 208 l0 29 -290 0 -290 0 0 -33z m154 -56 c123 -23 323 -5 382 34 22 14 24
14 24 -3 0 -38 -53 -123 -98 -157 -24 -19 -49 -35 -53 -35 -4 0 -25 12 -46 26
-31 21 -47 25 -84 22 -26 -3 -60 -15 -78 -27 l-31 -22 -45 31 c-47 33 -91 96
-101 148 l-6 31 38 -18 c22 -11 66 -24 98 -30z m54 -371 c53 -39 120 -35 183
11 13 10 25 6 62 -20 50 -34 93 -96 103 -150 l7 -33 -25 16 c-86 56 -369 60
-479 6 -36 -17 -39 -17 -39 -1 0 39 53 123 99 157 25 18 50 34 54 34 4 0 20
-9 35 -20z"/>
</g>
</svg>
