<?xml version="1.0" standalone="no"?>
<!DOCTYPE svg PUBLIC "-//W3C//DTD SVG 20010904//EN"
 "http://www.w3.org/TR/2001/REC-SVG-20010904/DTD/svg10.dtd">
<svg version="1.0" xmlns="http://www.w3.org/2000/svg"
 width="134.000000pt" height="127.000000pt" viewBox="0 0 134.000000 127.000000"
 preserveAspectRatio="xMidYMid meet">
<metadata>
Created by potrace 1.16, written by Peter Selinger 2001-2019
</metadata>
<g transform="translate(0.000000,127.000000) scale(0.100000,-0.100000)"
fill="#000000" stroke="none">
<path d="M370 941 c0 -16 4 -41 10 -55 9 -26 9 -26 -35 -26 -39 0 -45 -3 -45
-21 0 -20 4 -21 53 -16 52 6 52 5 91 -39 l40 -45 -90 2 c-76 2 -89 0 -92 -15
-3 -14 10 -16 116 -16 l120 0 -14 -40 c-13 -39 -10 -95 7 -106 28 -17 -3 -24
-111 -24 -113 0 -120 -1 -120 -20 0 -18 7 -20 80 -20 l81 0 -28 -36 c-27 -34
-30 -35 -80 -31 -46 3 -53 1 -53 -15 0 -15 8 -18 46 -18 40 0 45 -2 39 -17 -4
-10 -9 -33 -12 -50 l-6 -33 293 0 293 0 -6 38 c-3 20 -8 45 -12 55 -6 15 0 17
49 17 31 0 56 5 56 10 0 6 -28 10 -62 11 -60 1 -64 2 -97 40 l-33 39 96 0 c57
0 96 4 96 10 0 6 -44 10 -111 10 -122 0 -155 9 -139 40 13 24 13 96 0 119 -8
16 -4 19 37 25 25 3 83 6 129 6 49 0 84 4 84 10 0 6 -40 10 -99 10 l-98 0 33
36 c19 19 34 40 34 45 0 5 17 10 38 10 20 1 51 5 67 9 25 6 20 8 -27 9 -57 1
-57 1 -48 27 6 14 10 41 10 60 l0 34 -290 0 -290 0 0 -29z m170 -60 c125 -21
275 -8 354 30 22 10 40 18 42 16 1 -1 -3 -17 -10 -36 l-11 -33 -255 1 c-140 1
-256 3 -257 5 -2 1 -6 17 -9 34 l-6 32 43 -19 c24 -11 73 -25 109 -30z m344
-76 c-39 -59 -115 -83 -158 -50 -25 19 -103 19 -136 0 -44 -25 -80 -19 -122
22 -21 20 -38 41 -38 45 0 4 106 8 235 8 l235 0 -16 -25z m-194 -312 c19 5 57
12 83 14 45 5 52 2 83 -28 19 -18 34 -37 34 -41 0 -4 -103 -8 -230 -8 -126 0
-230 4 -230 8 0 5 12 20 28 34 31 31 94 39 157 22 26 -7 51 -8 75 -1z m229
-105 c5 -13 12 -34 16 -46 7 -23 6 -23 -17 -8 -88 57 -386 63 -491 9 -35 -18
-44 -11 -31 25 l9 27 215 5 c118 3 232 7 253 8 31 2 39 -2 46 -20z"/>
</g>
</svg>
