<?xml version="1.0" standalone="no"?>
<!DOCTYPE svg PUBLIC "-//W3C//DTD SVG 20010904//EN"
 "http://www.w3.org/TR/2001/REC-SVG-20010904/DTD/svg10.dtd">
<svg version="1.0" xmlns="http://www.w3.org/2000/svg"
 width="118.000000pt" height="116.000000pt" viewBox="0 0 118.000000 116.000000"
 preserveAspectRatio="xMidYMid meet">
<metadata>
Created by potrace 1.16, written by Peter Selinger 2001-2019
</metadata>
<g transform="translate(0.000000,116.000000) scale(0.100000,-0.100000)"
fill="#000000" stroke="none">
<path d="M300 828 c0 -45 41 -128 82 -169 25 -24 37 -46 40 -75 5 -38 3 -44
-34 -79 -44 -41 -88 -125 -88 -167 l0 -28 290 0 290 0 0 28 c0 43 -44 126 -89
169 -33 30 -41 45 -41 73 0 28 8 43 41 73 47 44 89 127 89 175 l0 32 -290 0
-290 0 0 -32z m120 -115 c0 -50 -3 -61 -14 -57 -17 7 -61 69 -75 107 -20 53
-15 57 39 34 l50 -21 0 -63z m426 44 c-16 -41 -43 -77 -79 -106 -16 -12 -17
-8 -17 53 l0 67 38 15 c20 8 44 18 52 23 22 13 24 -5 6 -52z m-356 -27 c0 -23
-9 -53 -21 -72 l-21 -33 6 34 c3 18 6 51 6 72 0 28 4 39 15 39 11 0 15 -11 15
-40z m230 -21 l0 -61 -24 29 c-29 35 -26 93 5 93 17 0 19 -8 19 -61z m-160 32
c0 -10 -7 -21 -15 -25 -11 -4 -15 1 -15 19 0 16 6 25 15 25 8 0 15 -9 15 -19z
m80 -1 c0 -13 -7 -20 -20 -20 -13 0 -20 7 -20 20 0 13 7 20 20 20 13 0 20 -7
20 -20z m-140 -315 c0 -31 -3 -35 -25 -35 -24 0 -25 2 -25 71 l0 72 25 -37
c15 -22 25 -51 25 -71z m-70 28 l0 -68 -55 -21 c-64 -25 -68 -18 -36 51 16 34
75 105 87 105 2 0 4 -30 4 -67z m360 35 c33 -34 69 -100 70 -129 0 -15 -7 -14
-57 7 l-58 23 -3 65 c-2 37 1 66 6 66 5 0 24 -15 42 -32z m-68 -50 c3 -46 2
-48 -24 -48 -25 0 -28 4 -28 31 0 17 10 43 23 58 24 30 25 29 29 -41z m-161 2
c5 0 9 -9 9 -20 0 -15 -7 -20 -25 -20 -20 0 -25 5 -25 26 0 20 4 25 16 20 9
-3 20 -6 25 -6z m89 -20 c0 -16 -7 -20 -30 -20 -23 0 -30 4 -30 20 0 16 7 20
30 20 23 0 30 -4 30 -20z"/>
</g>
</svg>
