<?xml version="1.0" standalone="no"?>
<!DOCTYPE svg PUBLIC "-//W3C//DTD SVG 20010904//EN"
 "http://www.w3.org/TR/2001/REC-SVG-20010904/DTD/svg10.dtd">
<svg version="1.0" xmlns="http://www.w3.org/2000/svg"
 width="198.000000pt" height="122.000000pt" viewBox="0 0 198.000000 122.000000"
 preserveAspectRatio="xMidYMid meet">
<metadata>
Created by potrace 1.16, written by Peter Selinger 2001-2019
</metadata>
<g transform="translate(0.000000,122.000000) scale(0.100000,-0.100000)"
fill="#000000" stroke="none">
<path d="M300 769 l0 -151 77 7 c42 4 98 13 125 20 45 11 48 11 48 -7 0 -19 5
-20 73 -13 73 7 140 19 170 31 13 5 17 1 17 -16 0 -22 2 -22 77 -15 42 4 98
13 125 20 45 11 48 11 48 -6 0 -14 7 -19 28 -19 31 0 152 17 188 26 18 5 24 2
24 -10 0 -19 24 -20 125 -6 194 29 296 108 239 188 -35 51 -194 102 -315 102
-38 0 -49 -4 -49 -16 0 -10 -6 -13 -17 -10 -41 13 -129 26 -174 26 -37 0 -49
-4 -49 -15 0 -8 -1 -15 -3 -15 -1 0 -34 7 -72 15 -95 20 -175 20 -175 0 0 -18
1 -18 -85 0 -95 20 -175 20 -175 0 0 -8 -1 -15 -3 -15 -1 0 -34 7 -72 15 -39
8 -94 15 -122 15 l-53 0 0 -151z m199 116 l46 -11 3 -101 3 -100 -43 -11 c-24
-6 -65 -14 -93 -18 l-50 -7 21 24 c33 37 44 64 44 108 0 51 -14 86 -45 115
l-25 24 47 -6 c26 -3 67 -10 92 -17z m203 10 c18 -3 49 -10 70 -16 l39 -10 -3
-97 -3 -97 -65 -17 c-36 -9 -78 -17 -94 -17 l-29 -1 20 23 c33 36 43 63 43
114 0 49 -19 90 -56 118 -21 16 -21 16 78 0z m323 -13 l30 -8 3 -101 c3 -115
11 -104 -92 -122 -90 -16 -94 -15 -61 19 21 21 29 42 33 79 6 66 -2 93 -37
128 l-29 29 62 -8 c33 -4 75 -11 91 -16z m208 7 l67 -11 0 -104 0 -103 -37
-10 c-21 -5 -60 -13 -88 -17 l-50 -7 33 37 c55 63 45 165 -21 217 -24 20 -29
20 96 -2z m287 -9 c62 -16 129 -57 142 -86 24 -53 -55 -112 -184 -138 -111
-23 -117 -22 -86 12 14 15 31 44 39 64 16 47 0 105 -40 145 l-29 29 57 -7 c31
-3 76 -12 101 -19z"/>
<path d="M300 451 l0 -151 53 0 c28 0 83 7 122 15 38 8 71 15 72 15 2 0 3 -7
3 -15 0 -20 80 -20 175 0 86 18 85 18 85 0 0 -12 13 -15 58 -15 50 0 79 5 170
25 15 4 22 1 22 -10 0 -19 76 -20 173 -1 56 11 67 11 67 -1 0 -32 213 -2 301
43 159 80 69 199 -177 233 -104 15 -124 14 -124 -5 0 -12 -6 -15 -24 -10 -36
9 -157 26 -188 26 -21 0 -28 -5 -28 -19 0 -17 -3 -17 -48 -6 -27 7 -83 16
-125 20 -75 7 -77 7 -77 -15 0 -17 -4 -21 -17 -16 -30 12 -97 24 -170 31 -68
7 -73 6 -73 -13 0 -18 -3 -18 -48 -7 -27 7 -83 16 -125 20 l-77 7 0 -151z
m181 113 l70 -16 -3 -101 -3 -101 -31 -8 c-18 -4 -60 -12 -94 -17 -54 -7 -61
-6 -45 5 35 26 55 68 55 117 0 51 -10 78 -43 115 l-20 22 22 0 c12 0 53 -7 92
-16z m283 -8 l41 -12 3 -96 3 -97 -39 -10 c-21 -6 -67 -15 -102 -19 -54 -8
-61 -7 -45 4 35 26 55 68 55 117 0 52 -10 78 -44 116 l-21 23 54 -7 c30 -4 73
-13 95 -19z m259 3 l38 -10 -3 -101 -3 -102 -46 -11 c-25 -7 -67 -14 -93 -17
l-49 -6 26 22 c35 30 47 57 47 111 0 50 -10 76 -44 114 l-21 23 55 -7 c30 -3
72 -11 93 -16z m245 0 l32 -11 0 -103 0 -103 -67 -11 c-38 -7 -76 -14 -85 -16
-10 -2 -18 1 -18 6 0 5 4 9 10 9 14 0 41 45 50 85 10 46 -3 96 -38 136 l-26
32 54 -7 c30 -4 70 -11 88 -17z m213 6 c125 -27 205 -87 181 -139 -22 -49
-164 -106 -262 -106 -30 1 -32 2 -17 11 22 13 56 84 57 117 0 27 -24 78 -53
110 l-20 22 21 0 c11 0 53 -7 93 -15z"/>
</g>
</svg>
