<?xml version="1.0" standalone="no"?>
<!DOCTYPE svg PUBLIC "-//W3C//DTD SVG 20010904//EN"
 "http://www.w3.org/TR/2001/REC-SVG-20010904/DTD/svg10.dtd">
<svg version="1.0" xmlns="http://www.w3.org/2000/svg"
 width="123.000000pt" height="125.000000pt" viewBox="0 0 123.000000 125.000000"
 preserveAspectRatio="xMidYMid meet">
<metadata>
Created by potrace 1.16, written by Peter Selinger 2001-2019
</metadata>
<g transform="translate(0.000000,125.000000) scale(0.100000,-0.100000)"
fill="#000000" stroke="none">
<path d="M380 914 l0 -37 -40 6 c-37 5 -40 3 -40 -19 0 -21 4 -24 39 -24 38 0
39 -1 43 -39 2 -23 -1 -37 -7 -36 -5 2 -25 6 -42 9 -30 5 -33 3 -33 -20 0 -24
3 -26 43 -23 l42 4 -3 -36 -4 -36 114 -7 c144 -9 278 -6 302 6 13 7 17 18 14
38 -4 29 -4 29 59 36 35 3 63 10 63 15 0 4 -27 11 -59 15 -58 6 -59 7 -63 40
l-4 33 63 7 c35 3 63 10 63 15 0 4 -27 11 -59 15 -58 6 -60 7 -63 38 l-3 31
-212 3 -213 2 0 -36z m410 -5 c0 -28 -2 -31 -25 -25 -22 6 -25 3 -25 -19 0
-20 5 -25 25 -25 22 0 25 -4 25 -36 0 -34 -2 -36 -25 -30 -22 6 -25 3 -25 -19
0 -20 5 -25 25 -25 21 0 25 -5 25 -30 l0 -30 -135 0 -135 0 0 135 0 135 135 0
135 0 0 -31z m-310 -49 c-19 -13 -30 -13 -30 0 0 6 10 10 23 10 18 0 19 -2 7
-10z m0 -110 c-19 -13 -30 -13 -30 0 0 6 10 10 23 10 18 0 19 -2 7 -10z"/>
<path d="M453 593 l-73 -4 0 -35 0 -34 -40 6 c-38 6 -40 6 -40 -21 0 -26 2
-27 40 -23 l40 4 0 -38 c0 -20 6 -38 13 -41 12 -4 -14 0 -64 10 -26 5 -29 3
-29 -22 0 -26 2 -27 40 -23 38 3 40 2 40 -24 0 -28 0 -28 70 -28 l70 0 0 130
0 130 135 0 135 0 0 -29 c0 -25 -3 -28 -25 -23 -22 4 -25 1 -25 -22 0 -21 5
-26 25 -26 22 0 25 -4 25 -34 0 -30 -2 -33 -25 -28 -22 4 -25 1 -25 -22 0 -21
5 -26 25 -26 20 0 25 -5 25 -26 0 -14 4 -23 10 -19 6 3 10 17 10 31 0 22 3 24
54 24 57 0 82 13 43 24 -12 3 -39 6 -59 6 -38 0 -38 0 -38 40 l0 40 48 0 c53
0 85 13 57 24 -9 3 -37 6 -61 6 -40 0 -44 2 -44 24 0 54 -1 54 -148 53 -75 0
-170 -2 -209 -4z m30 -90 c-7 -2 -19 -2 -25 0 -7 3 -2 5 12 5 14 0 19 -2 13
-5z m0 -110 c-7 -2 -19 -2 -25 0 -7 3 -2 5 12 5 14 0 19 -2 13 -5z"/>
</g>
</svg>
