<?xml version="1.0" standalone="no"?>
<!DOCTYPE svg PUBLIC "-//W3C//DTD SVG 20010904//EN"
 "http://www.w3.org/TR/2001/REC-SVG-20010904/DTD/svg10.dtd">
<svg version="1.0" xmlns="http://www.w3.org/2000/svg"
 width="126.000000pt" height="127.000000pt" viewBox="0 0 126.000000 127.000000"
 preserveAspectRatio="xMidYMid meet">
<metadata>
Created by potrace 1.16, written by Peter Selinger 2001-2019
</metadata>
<g transform="translate(0.000000,127.000000) scale(0.100000,-0.100000)"
fill="#000000" stroke="none">
<path d="M300 822 l0 -152 53 0 c81 0 264 19 349 36 l77 15 81 -47 c45 -25 83
-44 86 -41 3 3 -24 25 -60 49 -36 24 -66 45 -66 48 0 4 16 12 36 19 74 27 96
82 48 120 -61 48 -252 88 -466 98 l-138 6 0 -151z m305 117 c44 -6 107 -17
140 -25 185 -46 221 -95 110 -149 l-53 -26 -72 47 c-58 39 -73 45 -81 33 -13
-21 -13 -22 47 -53 40 -21 52 -31 41 -37 -21 -12 -238 -39 -313 -39 l-65 0 21
28 c42 57 38 159 -7 212 l-26 31 89 -6 c49 -4 125 -11 169 -16z"/>
<path d="M300 499 l0 -152 153 6 c83 4 191 15 239 25 l88 18 85 -49 c48 -27
89 -47 91 -44 3 3 -26 27 -66 53 l-71 48 38 19 c53 27 73 47 73 73 0 74 -195
131 -512 149 l-118 7 0 -153z m366 106 c200 -35 292 -88 236 -138 -18 -16 -83
-47 -100 -47 -5 0 -40 20 -78 44 -48 32 -71 41 -76 33 -13 -20 -10 -24 48 -57
31 -17 54 -33 52 -36 -8 -8 -201 -33 -303 -39 -55 -3 -95 -3 -89 2 28 20 54
80 54 125 0 56 -12 90 -41 119 l-22 22 115 -6 c63 -4 155 -14 204 -22z"/>
</g>
</svg>
