<?xml version="1.0" standalone="no"?>
<!DOCTYPE svg PUBLIC "-//W3C//DTD SVG 20010904//EN"
 "http://www.w3.org/TR/2001/REC-SVG-20010904/DTD/svg10.dtd">
<svg version="1.0" xmlns="http://www.w3.org/2000/svg"
 width="134.000000pt" height="143.000000pt" viewBox="0 0 134.000000 143.000000"
 preserveAspectRatio="xMidYMid meet">
<metadata>
Created by potrace 1.16, written by Peter Selinger 2001-2019
</metadata>
<g transform="translate(0.000000,143.000000) scale(0.100000,-0.100000)"
fill="#000000" stroke="none">
<path d="M850 1125 c0 -4 18 -14 40 -24 40 -18 43 -31 8 -31 -10 0 -41 11 -68
25 -54 27 -60 29 -60 17 0 -5 18 -17 40 -27 59 -26 29 -38 -34 -14 -28 11 -76
21 -106 24 -30 2 -102 8 -160 14 -58 6 -129 10 -157 11 l-53 0 0 -150 0 -150
83 0 c160 1 375 35 471 75 l38 16 -2 -48 c-1 -26 -1 -54 -1 -61 1 -10 20 -12
74 -10 l72 3 3 153 3 153 -44 -6 c-35 -5 -51 -2 -78 14 -32 20 -69 28 -69 16z
m-299 -33 c38 -5 73 -14 82 -23 8 -9 30 -22 48 -29 l33 -14 -27 -7 c-20 -5
-39 -1 -72 18 -24 13 -50 21 -56 17 -8 -4 4 -16 32 -30 35 -18 39 -23 21 -24
-12 0 -40 9 -62 20 -43 22 -60 25 -60 11 0 -5 17 -16 38 -24 28 -12 33 -17 21
-22 -10 -4 -39 5 -69 20 -33 17 -56 23 -63 17 -8 -7 -18 4 -33 34 l-21 44 61
-1 c34 0 91 -3 127 -7z m199 -34 c32 -10 33 -11 12 -19 -17 -6 -35 -3 -63 11
-21 11 -39 23 -39 25 0 6 38 -1 90 -17z m270 -21 c0 -24 -3 -85 -6 -135 l-7
-92 -48 0 c-27 0 -49 5 -49 10 0 6 20 10 45 10 25 0 45 5 45 10 0 6 -21 10
-47 10 -54 0 -54 8 1 12 54 3 56 18 2 18 -51 0 -55 8 -34 68 12 32 11 35 -20
63 -21 19 -28 31 -20 34 39 13 115 34 126 34 8 1 12 -14 12 -42z m-150 -22
c41 -21 54 -49 34 -70 -10 -9 -26 -14 -38 -12 -12 3 -79 11 -150 18 -71 7
-123 15 -115 18 40 14 206 59 222 60 10 0 31 -6 47 -14z m-440 -135 c4 0 10 4
12 8 8 20 82 52 121 52 l42 0 -42 -26 c-24 -14 -43 -29 -43 -35 0 -14 8 -11
56 22 29 20 54 29 72 27 27 -3 27 -3 -13 -27 -25 -15 -35 -26 -26 -29 7 -2 33
10 57 27 45 32 60 36 88 25 12 -5 6 -13 -28 -34 -45 -29 -106 -40 -305 -55
l-75 -6 21 23 c27 29 42 69 45 116 1 20 3 9 5 -25 2 -35 8 -63 13 -63z m50
105 c39 -20 38 -28 -5 -48 l-35 -17 0 40 c0 45 0 46 40 25z m354 -80 c-17 -8
-44 -17 -60 -20 l-29 -7 30 21 c17 11 44 21 60 20 l30 -1 -31 -13z"/>
<path d="M850 633 c0 -5 19 -17 43 -27 40 -19 41 -20 15 -23 -15 -3 -48 7 -77
21 -57 29 -61 30 -61 16 0 -6 19 -19 43 -29 63 -28 24 -37 -45 -11 -31 11 -60
20 -64 18 -5 -1 -54 3 -109 10 -55 6 -144 14 -197 16 l-98 5 0 -151 0 -151
148 6 c156 6 325 34 400 67 l43 20 -2 -58 -3 -57 75 0 74 0 3 153 c3 162 4
158 -48 143 -18 -6 -39 -1 -72 16 -49 24 -68 28 -68 16z m-316 -33 c53 -5 93
-14 100 -23 6 -8 26 -20 45 -27 l35 -14 -29 -7 c-20 -6 -40 -2 -76 16 -26 14
-50 21 -53 16 -3 -4 13 -16 35 -27 34 -15 38 -19 23 -25 -12 -4 -38 3 -66 17
-52 26 -58 28 -58 16 0 -5 17 -17 38 -27 26 -13 32 -20 20 -22 -9 -2 -38 7
-65 20 -52 26 -75 26 -67 -1 2 -9 -3 -1 -12 18 -9 19 -25 45 -37 58 l-20 22
49 0 c27 0 89 -5 138 -10z m225 -40 c14 -8 14 -9 -1 -15 -14 -5 -98 28 -98 39
0 6 81 -14 99 -24z m261 -22 c0 -29 -3 -90 -7 -135 l-6 -83 -48 0 c-27 0 -49
5 -49 10 0 6 21 10 47 10 56 0 47 17 -12 23 -40 4 -40 4 8 5 61 2 62 22 1 22
l-46 0 6 33 c15 69 12 80 -21 103 l-33 22 73 20 c39 11 75 21 80 21 4 1 7 -23
7 -51z m-150 -13 c39 -20 53 -47 37 -69 -12 -16 -21 -16 -162 -1 -83 10 -151
18 -153 20 -3 2 217 62 236 64 7 1 26 -6 42 -14z m-363 -52 c4 -10 -44 -43
-62 -43 -3 0 -5 18 -5 40 l0 40 32 -13 c17 -7 33 -18 35 -24z m-76 -83 c5 0 9
4 9 8 0 14 89 52 120 52 40 0 38 -13 -5 -33 -19 -9 -35 -21 -35 -27 0 -17 15
-12 58 20 26 19 54 30 74 30 l33 0 -43 -26 c-23 -14 -40 -29 -37 -35 3 -5 28
6 55 24 38 26 57 32 81 29 l31 -5 -46 -28 c-50 -31 -107 -42 -281 -54 l-100
-7 22 23 c25 28 42 68 45 107 1 15 3 3 5 -25 2 -29 8 -53 14 -53z m394 19
c-53 -25 -78 -25 -45 1 14 11 39 19 55 19 l30 -1 -40 -19z"/>
</g>
</svg>
