<?xml version="1.0" standalone="no"?>
<!DOCTYPE svg PUBLIC "-//W3C//DTD SVG 20010904//EN"
 "http://www.w3.org/TR/2001/REC-SVG-20010904/DTD/svg10.dtd">
<svg version="1.0" xmlns="http://www.w3.org/2000/svg"
 width="134.000000pt" height="147.000000pt" viewBox="0 0 134.000000 147.000000"
 preserveAspectRatio="xMidYMid meet">
<metadata>
Created by potrace 1.16, written by Peter Selinger 2001-2019
</metadata>
<g transform="translate(0.000000,147.000000) scale(0.100000,-0.100000)"
fill="#000000" stroke="none">
<path d="M882 1110 c5 -69 -3 -76 -60 -56 -91 32 -332 66 -469 66 l-53 0 0
-152 0 -151 138 6 c120 6 260 24 326 42 15 5 17 4 7 -3 -31 -22 8 -19 53 4 48
24 96 32 96 15 0 -5 -16 -15 -35 -21 -19 -6 -35 -16 -35 -21 0 -15 23 -10 67
15 35 21 48 23 75 15 18 -5 35 -9 38 -9 3 0 4 70 2 155 l-3 155 -76 0 -75 0 4
-60z m131 -92 c3 -73 4 -134 2 -136 -1 -1 -30 5 -64 14 l-61 17 20 22 c25 26
25 47 2 68 -13 12 -17 26 -14 47 4 29 6 30 54 30 63 0 54 19 -10 22 l-47 1 45
4 c66 6 75 23 12 23 -29 0 -52 5 -52 10 0 6 24 10 54 10 l53 0 6 -132z m-340
57 c145 -26 144 -31 -9 -44 l-139 -13 -48 28 c-32 17 -52 23 -58 17 -7 -7 5
-17 35 -29 25 -11 46 -25 46 -31 0 -7 -18 -22 -40 -33 -22 -11 -40 -25 -40
-30 0 -6 22 1 50 15 27 14 56 25 65 25 26 0 17 -17 -15 -29 -16 -5 -30 -15
-30 -20 0 -15 5 -14 51 10 22 11 50 19 62 17 19 -3 16 -6 -15 -20 -21 -10 -38
-22 -38 -27 0 -15 4 -14 60 14 34 17 55 22 70 17 20 -7 18 -10 -19 -27 -23
-10 -41 -22 -41 -27 0 -14 22 -9 68 18 34 20 49 24 65 17 20 -9 19 -11 -15
-22 -20 -7 -39 -18 -41 -25 -5 -14 -119 -30 -276 -40 l-73 -5 20 22 c48 51 55
129 18 202 l-25 48 112 -6 c62 -4 151 -14 200 -22z m208 -66 c34 -24 37 -49 9
-74 -18 -17 -25 -16 -162 21 -79 21 -135 40 -126 42 10 2 66 9 125 17 60 7
112 13 116 14 5 0 22 -8 38 -20z m-76 -114 c-40 -19 -67 -18 -35 0 14 8 34 14
45 14 15 -1 13 -4 -10 -14z"/>
<path d="M889 643 c0 -4 -1 -33 -2 -63 -2 -64 0 -64 -120 -31 -100 26 -214 41
-352 44 l-110 2 -3 -147 -3 -148 86 0 c97 0 240 14 331 33 51 11 61 11 57 0
-7 -18 1 -17 57 12 49 25 90 32 90 17 0 -5 -17 -16 -37 -27 -21 -10 -33 -20
-26 -22 6 -2 31 6 54 18 33 16 53 20 86 15 l44 -6 -3 153 -3 152 -72 3 c-40 2
-73 -1 -74 -5z m125 -105 c10 -154 9 -180 -11 -174 -10 3 -38 10 -61 16 -41
11 -43 12 -28 29 22 24 20 56 -5 80 -13 12 -17 21 -10 26 6 3 11 15 11 26 0
16 7 19 45 19 60 0 58 20 -2 22 -48 1 -48 1 -8 5 59 6 68 23 12 23 -26 0 -47
5 -47 10 0 6 22 10 49 10 l48 0 7 -92z m-449 32 c86 -10 248 -40 243 -46 -2
-1 -64 -8 -139 -14 l-136 -12 -51 26 c-57 29 -62 30 -62 16 0 -5 20 -18 45
-29 25 -11 45 -25 45 -31 0 -6 -20 -20 -45 -31 -25 -11 -43 -24 -40 -29 3 -6
28 1 55 15 27 14 54 25 60 25 21 0 9 -18 -20 -30 -30 -13 -41 -30 -17 -30 6 0
27 9 45 20 18 11 45 20 60 20 25 -1 23 -3 -17 -24 -24 -13 -40 -26 -35 -29 5
-3 31 5 56 18 33 17 54 22 74 16 27 -7 27 -7 -15 -25 -22 -11 -41 -23 -41 -28
0 -12 6 -10 59 16 29 15 57 23 70 19 20 -5 18 -8 -18 -24 -23 -10 -41 -22 -41
-27 0 -9 -107 -24 -269 -37 l-73 -6 20 29 c44 61 45 156 3 213 l-22 29 58 0
c32 0 99 -5 148 -10z m316 -77 c40 -24 47 -52 18 -75 -25 -21 -15 -23 -194 25
-66 17 -111 33 -100 35 11 1 70 9 130 16 61 7 112 14 113 15 2 0 17 -7 33 -16z
m-56 -112 c-11 -10 -85 -32 -85 -26 0 3 12 11 28 19 30 17 72 22 57 7z"/>
</g>
</svg>
