<?xml version="1.0" standalone="no"?>
<!DOCTYPE svg PUBLIC "-//W3C//DTD SVG 20010904//EN"
 "http://www.w3.org/TR/2001/REC-SVG-20010904/DTD/svg10.dtd">
<svg version="1.0" xmlns="http://www.w3.org/2000/svg"
 width="101.000000pt" height="119.000000pt" viewBox="0 0 101.000000 119.000000"
 preserveAspectRatio="xMidYMid meet">
<metadata>
Created by potrace 1.16, written by Peter Selinger 2001-2019
</metadata>
<g transform="translate(0.000000,119.000000) scale(0.100000,-0.100000)"
fill="#000000" stroke="none">
<path d="M445 878 c-11 -6 -30 -20 -42 -31 -17 -15 -31 -19 -63 -14 -37 5 -40
3 -40 -19 0 -20 5 -24 33 -24 32 0 33 -1 29 -36 -4 -34 -6 -36 -34 -30 -27 5
-29 4 -26 -22 3 -24 6 -27 37 -24 26 3 40 -3 65 -26 68 -65 153 -59 223 15 14
14 34 23 53 23 16 0 30 5 30 10 0 6 -13 10 -30 10 -29 0 -30 2 -30 45 0 43 1
45 30 45 17 0 30 5 30 10 0 9 -11 11 -66 14 -10 1 -32 16 -49 34 -28 27 -40
32 -81 32 -27 0 -58 -6 -69 -12z m122 -54 c-3 -3 -12 -4 -19 -1 -8 3 -5 6 6 6
11 1 17 -2 13 -5z m-87 -14 c-19 -13 -30 -13 -30 0 0 6 10 10 23 10 18 0 19
-2 7 -10z m87 -16 c-3 -3 -12 -4 -19 -1 -8 3 -5 6 6 6 11 1 17 -2 13 -5z m-92
-94 c-3 -5 -10 -10 -16 -10 -5 0 -9 5 -9 10 0 6 7 10 16 10 8 0 12 -4 9 -10z
m92 -16 c-3 -3 -12 -4 -19 -1 -8 3 -5 6 6 6 11 1 17 -2 13 -5z"/>
<path d="M472 579 c-43 -9 -88 -49 -70 -61 9 -6 7 -8 -7 -5 -11 3 -37 8 -57
12 -36 6 -38 4 -38 -20 0 -22 4 -25 33 -25 32 0 33 -1 29 -36 -4 -34 -6 -36
-33 -30 -26 5 -29 3 -29 -19 0 -22 4 -25 38 -25 27 0 45 -7 58 -21 30 -33 69
-49 119 -49 39 0 51 5 89 40 27 25 53 40 69 40 37 0 42 17 7 24 -27 5 -30 9
-30 46 0 36 3 40 24 40 44 0 38 19 -9 25 -25 4 -45 11 -45 15 0 12 -51 42 -84
50 -17 3 -46 3 -64 -1z m131 -66 c-7 -2 -21 -2 -30 0 -10 3 -4 5 12 5 17 0 24
-2 18 -5z m-113 -7 c0 -2 -9 -6 -20 -9 -11 -3 -20 -1 -20 4 0 5 9 9 20 9 11 0
20 -2 20 -4z m60 -22 c0 -2 -7 -4 -15 -4 -8 0 -15 4 -15 10 0 5 7 7 15 4 8 -4
15 -8 15 -10z m33 -81 c-7 -2 -19 -2 -25 0 -7 3 -2 5 12 5 14 0 19 -2 13 -5z
m-108 -13 c-28 -12 -37 -12 -30 0 3 6 16 10 28 9 21 0 21 -1 2 -9z m75 -16 c0
-2 -7 -4 -15 -4 -8 0 -15 4 -15 10 0 5 7 7 15 4 8 -4 15 -8 15 -10z"/>
</g>
</svg>
