<?xml version="1.0" standalone="no"?>
<!DOCTYPE svg PUBLIC "-//W3C//DTD SVG 20010904//EN"
 "http://www.w3.org/TR/2001/REC-SVG-20010904/DTD/svg10.dtd">
<svg version="1.0" xmlns="http://www.w3.org/2000/svg"
 width="94.000000pt" height="130.000000pt" viewBox="0 0 94.000000 130.000000"
 preserveAspectRatio="xMidYMid meet">
<metadata>
Created by potrace 1.16, written by Peter Selinger 2001-2019
</metadata>
<g transform="translate(0.000000,130.000000) scale(0.100000,-0.100000)"
fill="#000000" stroke="none">
<path d="M360 952 c0 -48 0 -49 -30 -44 -27 4 -30 1 -30 -22 0 -22 4 -26 30
-26 27 0 30 -3 30 -33 0 -32 -2 -33 -30 -29 -27 4 -30 2 -30 -23 0 -25 3 -27
30 -23 27 4 29 2 32 -31 l3 -36 103 -3 102 -3 0 41 c0 33 3 40 19 40 28 0 52
11 45 21 -3 5 -18 9 -35 9 -27 0 -29 2 -29 40 0 35 3 40 23 40 12 0 28 4 35 9
11 7 10 10 -3 15 -9 3 -25 6 -36 6 -16 0 -19 7 -19 50 l0 50 -105 0 -105 0 0
-48z"/>
<path d="M367 613 c-4 -3 -7 -26 -7 -51 0 -44 0 -44 -30 -38 -27 5 -30 3 -30
-19 0 -21 5 -25 30 -25 28 0 30 -3 30 -36 0 -35 -1 -36 -30 -30 -27 5 -30 3
-30 -19 0 -21 5 -25 30 -25 28 0 30 -3 30 -35 l0 -35 105 0 105 0 0 40 c0 38
2 40 29 40 43 0 47 17 6 24 -33 7 -35 9 -35 46 0 38 2 40 29 40 43 0 47 17 6
24 -34 7 -35 8 -35 56 l0 50 -98 0 c-54 0 -102 -3 -105 -7z"/>
</g>
</svg>
