<?xml version="1.0" standalone="no"?>
<!DOCTYPE svg PUBLIC "-//W3C//DTD SVG 20010904//EN"
 "http://www.w3.org/TR/2001/REC-SVG-20010904/DTD/svg10.dtd">
<svg version="1.0" xmlns="http://www.w3.org/2000/svg"
 width="110.000000pt" height="119.000000pt" viewBox="0 0 110.000000 119.000000"
 preserveAspectRatio="xMidYMid meet">
<metadata>
Created by potrace 1.16, written by Peter Selinger 2001-2019
</metadata>
<g transform="translate(0.000000,119.000000) scale(0.100000,-0.100000)"
fill="#000000" stroke="none">
<path d="M390 883 c-8 -3 -26 -15 -38 -27 -101 -91 -45 -248 87 -250 32 -1 56
6 75 19 16 11 34 23 40 27 6 4 65 11 131 15 66 4 105 9 87 11 l-33 3 3 62 c3
59 4 62 31 65 15 2 27 8 27 13 0 5 -54 9 -125 9 -78 0 -125 4 -125 10 0 32
-109 62 -160 43z m27 -79 c-3 -3 -12 -4 -19 -1 -8 3 -5 6 6 6 11 1 17 -2 13
-5z m253 -54 c0 -33 -4 -60 -10 -60 -11 0 -14 78 -4 104 11 28 14 18 14 -44z
m45 -68 c-3 -3 -10 -1 -16 5 -7 7 -8 31 -3 69 l8 59 8 -64 c5 -35 6 -66 3 -69z
m-85 58 c0 -27 -4 -50 -10 -50 -11 0 -14 83 -3 93 12 12 13 8 13 -43z m-43
-42 c-3 -7 -5 -2 -5 12 0 14 2 19 5 13 2 -7 2 -19 0 -25z"/>
<path d="M405 563 c-33 -9 -74 -43 -91 -75 -24 -47 -14 -121 21 -158 27 -29
33 -30 112 -30 72 0 84 3 95 20 12 18 24 20 135 20 75 0 123 4 123 10 0 6 -13
10 -30 10 -30 0 -30 1 -30 55 0 41 4 57 15 60 49 16 38 20 -75 27 -103 8 -129
13 -146 29 -11 11 -36 24 -55 29 -36 11 -42 11 -74 3z m183 -108 c-3 -3 -9 2
-12 12 -6 14 -5 15 5 6 7 -7 10 -15 7 -18z m82 -35 c0 -33 -4 -60 -10 -60 -11
0 -14 78 -4 104 11 28 14 18 14 -44z m44 -2 c6 -49 5 -58 -8 -58 -10 0 -16 9
-16 23 0 26 12 99 15 95 1 -2 6 -29 9 -60z m-84 -8 c0 -27 -4 -50 -10 -50 -5
0 -10 23 -10 50 0 28 5 50 10 50 6 0 10 -22 10 -50z m-43 -42 c-3 -7 -5 -2 -5
12 0 14 2 19 5 13 2 -7 2 -19 0 -25z m-170 -34 c-3 -3 -12 -4 -19 -1 -8 3 -5
6 6 6 11 1 17 -2 13 -5z"/>
</g>
</svg>
