<?xml version="1.0" standalone="no"?>
<!DOCTYPE svg PUBLIC "-//W3C//DTD SVG 20010904//EN"
 "http://www.w3.org/TR/2001/REC-SVG-20010904/DTD/svg10.dtd">
<svg version="1.0" xmlns="http://www.w3.org/2000/svg"
 width="127.000000pt" height="233.000000pt" viewBox="0 0 127.000000 233.000000"
 preserveAspectRatio="xMidYMid meet">
<metadata>
Created by potrace 1.16, written by Peter Selinger 2001-2019
</metadata>
<g transform="translate(0.000000,233.000000) scale(0.100000,-0.100000)"
fill="#000000" stroke="none">
<path d="M580 2012 c0 -14 -8 -18 -32 -18 -31 1 -33 -1 -33 -34 0 -19 4 -50 7
-67 l7 -33 -48 25 c-47 25 -156 50 -172 39 -11 -6 -12 -571 -1 -577 15 -10
126 15 173 38 l49 25 -8 -32 c-3 -18 -7 -49 -7 -68 0 -30 3 -35 25 -37 14 0
31 -1 38 -2 6 -1 12 -12 12 -26 0 -14 5 -25 10 -25 6 0 10 11 10 25 0 26 1 27
40 27 54 1 60 -2 60 -27 0 -14 5 -25 10 -25 6 0 10 11 10 25 0 17 6 25 18 26
60 4 57 0 56 61 -1 40 -9 74 -29 113 -44 91 -114 119 -173 70 -30 -25 -42 -24
-42 6 0 25 -73 86 -120 100 l-41 12 47 18 c58 22 114 74 114 106 0 29 5 29 42
-2 59 -49 129 -21 173 70 20 39 28 73 29 113 l1 57 -35 1 c-26 0 -35 5 -34 17
1 10 -6 17 -17 17 -12 0 -19 -7 -19 -18 0 -14 -8 -17 -40 -17 -31 0 -40 4 -40
18 0 10 -8 17 -20 17 -13 0 -20 -7 -20 -18z m10 -99 c0 -12 5 -25 10 -28 6 -4
10 5 10 19 0 24 3 26 50 26 47 0 50 -2 50 -25 0 -14 5 -25 10 -25 6 0 10 13
10 28 0 22 7 30 32 40 17 6 33 10 35 9 7 -8 -29 -124 -48 -154 -68 -110 -194
-44 -215 112 l-7 44 32 -12 c22 -8 31 -18 31 -34z m-128 -35 c54 -23 88 -63
88 -101 0 -54 -83 -114 -183 -131 l-38 -7 17 33 c24 46 24 161 0 207 l-18 34
42 -7 c24 -4 65 -16 92 -28z m-20 -274 c57 -18 108 -72 108 -113 0 -54 -81
-111 -178 -127 l-42 -7 17 34 c24 47 23 162 -1 207 l-18 34 34 -7 c18 -3 54
-13 80 -21z m252 -88 c18 -7 42 -29 54 -48 21 -33 56 -148 48 -155 -9 -9 -66
28 -66 42 0 8 -7 15 -15 15 -8 0 -15 -7 -15 -15 0 -11 -11 -15 -40 -15 -29 0
-40 4 -40 15 0 8 -9 15 -20 15 -13 0 -20 -7 -20 -18 0 -11 -12 -24 -26 -31
l-27 -12 6 46 c12 85 64 157 125 174 1 1 18 -5 36 -13z"/>
<path d="M845 1783 c-97 -29 -152 -94 -134 -157 16 -59 99 -107 212 -122 l47
-7 0 152 0 151 -37 -1 c-21 0 -60 -7 -88 -16z m78 -30 c-22 -50 -22 -158 -1
-200 16 -32 16 -33 -7 -33 -84 0 -195 72 -195 127 0 59 74 117 169 133 25 4
47 8 48 9 1 0 -5 -16 -14 -36z"/>
<path d="M583 1100 c-4 -15 -14 -20 -41 -20 l-35 0 7 -54 c3 -30 8 -61 12 -69
3 -9 -14 -5 -53 14 -32 16 -84 32 -115 35 l-58 7 0 -292 0 -291 38 0 c52 0
133 25 167 52 l28 22 -7 -27 c-3 -15 -9 -47 -13 -72 l-6 -45 42 0 c37 0 41 -2
41 -24 0 -14 5 -28 10 -31 6 -4 10 7 10 24 0 30 1 31 50 31 49 0 50 -1 50 -31
0 -17 4 -28 10 -24 6 3 10 17 10 31 0 22 4 24 41 24 l42 0 -6 60 c-17 162
-120 245 -216 173 -20 -14 -33 -23 -29 -19 3 4 2 21 -4 38 -13 36 -78 85 -126
94 l-35 7 60 27 c65 30 103 69 103 108 l0 25 23 -20 c60 -55 107 -53 161 7 38
42 66 120 66 182 0 38 0 38 -40 38 -33 0 -40 3 -38 16 4 25 -22 29 -29 5 -8
-30 -78 -31 -86 -1 -3 11 -10 20 -17 20 -7 0 -14 -9 -17 -20z m207 -102 c-26
-138 -115 -205 -189 -143 -31 27 -71 117 -71 160 0 29 1 29 35 13 16 -7 25
-19 25 -34 0 -13 5 -26 10 -29 6 -4 10 5 10 19 0 24 3 26 50 26 43 0 50 -3 50
-20 0 -11 5 -20 10 -20 6 0 10 10 10 23 0 16 10 28 33 39 17 9 33 15 34 14 1
0 -3 -22 -7 -48z m-346 -29 c106 -39 136 -113 71 -175 -35 -32 -114 -64 -161
-64 -22 0 -22 1 -6 33 21 43 21 151 0 195 l-16 32 28 0 c16 0 54 -9 84 -21z
m18 -291 c94 -40 114 -107 49 -168 -35 -34 -64 -46 -154 -65 l-28 -6 18 33
c23 45 23 161 0 207 l-17 34 42 -7 c22 -4 63 -16 90 -28z m252 -89 c31 -24 61
-79 71 -129 3 -19 9 -43 11 -52 5 -16 2 -16 -28 -4 -19 9 -33 22 -33 32 0 25
-25 30 -31 6 -7 -26 -75 -26 -86 1 -10 23 -32 17 -36 -9 -1 -10 -14 -24 -29
-31 l-26 -12 7 46 c13 95 72 173 132 173 12 0 33 -9 48 -21z"/>
<path d="M836 864 c-92 -34 -144 -93 -130 -148 15 -61 131 -126 226 -126 l38
0 0 145 0 145 -47 -1 c-27 0 -65 -7 -87 -15z m87 -26 c-23 -45 -23 -161 1
-206 l18 -34 -34 7 c-89 18 -115 29 -150 65 -40 40 -46 62 -26 105 19 42 120
92 191 94 17 1 17 -1 0 -31z"/>
</g>
</svg>
