<?xml version="1.0" standalone="no"?>
<!DOCTYPE svg PUBLIC "-//W3C//DTD SVG 20010904//EN"
 "http://www.w3.org/TR/2001/REC-SVG-20010904/DTD/svg10.dtd">
<svg version="1.0" xmlns="http://www.w3.org/2000/svg"
 width="166.000000pt" height="127.000000pt" viewBox="0 0 166.000000 127.000000"
 preserveAspectRatio="xMidYMid meet">
<metadata>
Created by potrace 1.16, written by Peter Selinger 2001-2019
</metadata>
<g transform="translate(0.000000,127.000000) scale(0.100000,-0.100000)"
fill="#000000" stroke="none">
<path d="M300 820 l0 -153 128 7 c127 8 325 36 374 55 18 7 39 6 71 -4 75 -23
246 -45 362 -48 l110 -2 3 149 3 149 -133 -6 c-140 -7 -223 -18 -325 -43 -57
-14 -69 -14 -125 0 -105 26 -187 36 -330 43 l-138 6 0 -153z m330 114 c52 -7
112 -18 134 -25 l38 -11 -36 -24 c-48 -33 -48 -63 0 -102 l36 -30 -73 -16
c-91 -20 -233 -36 -317 -36 l-64 0 25 30 c46 54 44 153 -4 214 l-21 27 93 -6
c52 -4 137 -13 189 -21z m661 0 c-49 -62 -50 -160 -3 -216 l27 -31 -120 6
c-271 15 -473 78 -449 141 20 51 230 106 454 119 30 2 68 4 83 5 l28 2 -20
-26z"/>
<path d="M300 450 l0 -153 138 6 c139 6 273 25 348 47 35 11 54 9 130 -8 106
-25 254 -42 359 -42 l76 0 -3 148 -3 147 -105 -2 c-126 -3 -244 -17 -339 -42
-68 -17 -74 -17 -141 0 -88 23 -193 36 -342 45 l-118 7 0 -153z m265 120 c50
-6 123 -17 163 -26 l73 -16 -37 -32 c-31 -27 -36 -37 -31 -58 4 -14 21 -35 38
-46 l31 -19 -32 -11 c-39 -14 -215 -39 -334 -47 l-88 -6 21 27 c48 62 48 169
-1 222 l-21 22 64 0 c35 0 105 -5 154 -10z m728 -12 c-49 -55 -53 -146 -7
-213 l24 -35 -83 5 c-211 15 -347 41 -428 81 -26 13 -49 31 -53 40 -18 46 105
100 279 124 50 6 97 13 105 15 8 1 53 3 99 4 l84 1 -20 -22z"/>
</g>
</svg>
