<?xml version="1.0" standalone="no"?>
<!DOCTYPE svg PUBLIC "-//W3C//DTD SVG 20010904//EN"
 "http://www.w3.org/TR/2001/REC-SVG-20010904/DTD/svg10.dtd">
<svg version="1.0" xmlns="http://www.w3.org/2000/svg"
 width="119.000000pt" height="132.000000pt" viewBox="0 0 119.000000 132.000000"
 preserveAspectRatio="xMidYMid meet">
<metadata>
Created by potrace 1.16, written by Peter Selinger 2001-2019
</metadata>
<g transform="translate(0.000000,132.000000) scale(0.100000,-0.100000)"
fill="#000000" stroke="none">
<path d="M498 1013 l-198 -3 0 -149 0 -148 287 -6 c158 -4 291 -3 295 1 5 5 7
76 6 158 l-3 149 -95 0 c-52 1 -184 -1 -292 -2z m192 -158 l0 -135 -130 0
-130 0 0 135 0 135 130 0 130 0 0 -135z"/>
<path d="M498 613 l-198 -3 0 -149 0 -148 287 -6 c158 -4 291 -3 295 1 5 5 7
76 6 158 l-3 149 -95 0 c-52 1 -184 -1 -292 -2z m192 -149 l0 -134 -130 0
-130 0 0 135 0 136 130 -2 130 -1 0 -134z"/>
</g>
</svg>
