<?xml version="1.0" standalone="no"?>
<!DOCTYPE svg PUBLIC "-//W3C//DTD SVG 20010904//EN"
 "http://www.w3.org/TR/2001/REC-SVG-20010904/DTD/svg10.dtd">
<svg version="1.0" xmlns="http://www.w3.org/2000/svg"
 width="161.000000pt" height="183.000000pt" viewBox="0 0 161.000000 183.000000"
 preserveAspectRatio="xMidYMid meet">
<metadata>
Created by potrace 1.16, written by Peter Selinger 2001-2019
</metadata>
<g transform="translate(0.000000,183.000000) scale(0.100000,-0.100000)"
fill="#000000" stroke="none">
<path d="M300 1240 l0 -290 63 0 c34 0 114 5 177 10 367 32 633 126 680 240
11 26 17 30 52 30 24 0 37 4 33 10 -3 6 -21 10 -40 10 -26 0 -34 5 -39 23 -7
28 -47 71 -94 101 -136 85 -469 156 -734 156 l-98 0 0 -290z m360 255 c290
-36 519 -131 554 -229 6 -18 2 -18 -86 -13 -51 4 -160 7 -243 8 l-150 2 3 -24
c1 -12 3 -24 5 -25 1 -1 76 2 167 6 91 5 198 9 238 10 l74 0 -19 -32 c-64
-111 -375 -208 -717 -225 l-129 -6 22 22 c13 13 35 48 49 80 24 50 27 68 27
166 0 130 -19 196 -70 251 l-34 36 97 -7 c53 -3 149 -13 212 -20z"/>
<path d="M300 592 l0 -292 98 0 c263 0 598 71 732 155 43 27 100 90 100 110 0
11 12 15 43 16 l42 1 -40 8 c-21 4 -41 12 -43 18 -2 6 -13 26 -25 44 -79 117
-379 205 -769 224 l-138 7 0 -291z m440 238 c235 -40 417 -118 464 -199 l20
-34 -248 6 c-222 6 -247 5 -242 -9 3 -9 6 -20 6 -25 0 -9 332 -4 428 6 35 4
42 2 42 -13 0 -30 -71 -89 -152 -127 -131 -60 -346 -103 -610 -120 l-97 -7 34
37 c98 103 99 372 2 482 l-32 36 130 -6 c72 -3 186 -16 255 -27z"/>
</g>
</svg>
