<?xml version="1.0" standalone="no"?>
<!DOCTYPE svg PUBLIC "-//W3C//DTD SVG 20010904//EN"
 "http://www.w3.org/TR/2001/REC-SVG-20010904/DTD/svg10.dtd">
<svg version="1.0" xmlns="http://www.w3.org/2000/svg"
 width="138.000000pt" height="191.000000pt" viewBox="0 0 138.000000 191.000000"
 preserveAspectRatio="xMidYMid meet">
<metadata>
Created by potrace 1.16, written by Peter Selinger 2001-2019
</metadata>
<g transform="translate(0.000000,191.000000) scale(0.100000,-0.100000)"
fill="#000000" stroke="none">
<path d="M300 1320 l0 -290 390 0 390 0 0 290 0 290 -390 0 -390 0 0 -290z
m770 5 l0 -275 -315 0 -315 0 0 275 0 275 315 0 315 0 0 -275z"/>
<path d="M300 595 l0 -286 68 3 67 3 3 273 2 272 315 0 315 0 3 -277 2 -278 3
288 2 287 -390 0 -390 0 0 -285z"/>
</g>
</svg>
