<?xml version="1.0" standalone="no"?>
<!DOCTYPE svg PUBLIC "-//W3C//DTD SVG 20010904//EN"
 "http://www.w3.org/TR/2001/REC-SVG-20010904/DTD/svg10.dtd">
<svg version="1.0" xmlns="http://www.w3.org/2000/svg"
 width="164.000000pt" height="177.000000pt" viewBox="0 0 164.000000 177.000000"
 preserveAspectRatio="xMidYMid meet">
<metadata>
Created by potrace 1.16, written by Peter Selinger 2001-2019
</metadata>
<g transform="translate(0.000000,177.000000) scale(0.100000,-0.100000)"
fill="#000000" stroke="none">
<path d="M400 1366 l0 -108 -50 4 c-49 3 -50 2 -50 -24 0 -27 1 -27 50 -21
l50 6 0 -38 0 -37 -50 4 c-49 3 -50 2 -50 -24 0 -27 1 -27 50 -21 l50 6 0
-112 0 -111 58 0 c31 0 109 5 172 10 305 27 538 94 637 184 22 20 48 36 57 36
9 0 16 5 16 10 0 6 -4 10 -8 10 -5 0 -9 20 -10 45 0 25 4 45 9 45 5 0 9 5 9
10 0 6 -7 10 -16 10 -9 0 -35 16 -58 35 -120 98 -400 169 -713 182 l-153 6 0
-107z m330 73 c209 -24 400 -80 498 -145 30 -19 52 -37 50 -38 -1 -2 -31 0
-65 3 -63 7 -63 7 -63 -19 0 -26 1 -26 77 -25 l78 0 3 -29 c2 -16 0 -32 -5
-36 -4 -5 -41 -5 -80 -1 l-73 7 0 -27 0 -27 63 5 62 6 -20 -22 c-26 -30 -144
-85 -235 -111 -113 -31 -300 -60 -440 -67 l-125 -6 21 24 c63 70 93 201 75
320 -14 88 -29 125 -72 173 l-33 38 100 -7 c54 -3 137 -11 184 -16z m-253
-205 c-3 -3 -12 -4 -19 -1 -8 3 -5 6 6 6 11 1 17 -2 13 -5z m0 -110 c-3 -3
-12 -4 -19 -1 -8 3 -5 6 6 6 11 1 17 -2 13 -5z"/>
<path d="M400 761 c0 -78 4 -111 13 -115 6 -3 3 -4 -8 -2 -11 3 -39 8 -62 11
-41 6 -43 6 -43 -19 0 -24 3 -26 49 -26 l49 0 4 -38 3 -38 -40 7 c-61 12 -65
11 -65 -16 0 -23 3 -25 50 -25 l50 0 0 -100 c0 -98 0 -100 24 -100 82 0 152
190 127 343 -13 80 -41 150 -74 186 l-22 24 125 -6 c140 -7 327 -36 440 -67
92 -26 209 -81 235 -111 l20 -22 -62 6 c-63 7 -63 7 -63 -19 0 -26 0 -26 78
-22 l77 3 0 -35 0 -35 -77 0 c-76 1 -78 0 -78 -23 0 -24 1 -25 65 -19 36 4 65
4 65 2 0 -3 -24 -21 -53 -40 -100 -66 -283 -118 -527 -149 -90 -12 -97 -14
-48 -15 66 -1 261 31 368 60 99 28 193 71 244 112 23 19 50 37 61 41 12 4 15
10 8 14 -13 8 -14 82 0 100 7 8 5 12 -6 12 -8 0 -35 16 -59 37 -109 92 -334
156 -638 183 -63 5 -141 10 -172 10 l-58 0 0 -109z m83 -128 c-7 -2 -19 -2
-25 0 -7 3 -2 5 12 5 14 0 19 -2 13 -5z m0 -110 c-7 -2 -19 -2 -25 0 -7 3 -2
5 12 5 14 0 19 -2 13 -5z"/>
</g>
</svg>
