<?xml version="1.0" standalone="no"?>
<!DOCTYPE svg PUBLIC "-//W3C//DTD SVG 20010904//EN"
 "http://www.w3.org/TR/2001/REC-SVG-20010904/DTD/svg10.dtd">
<svg version="1.0" xmlns="http://www.w3.org/2000/svg"
 width="153.000000pt" height="179.000000pt" viewBox="0 0 153.000000 179.000000"
 preserveAspectRatio="xMidYMid meet">
<metadata>
Created by potrace 1.16, written by Peter Selinger 2001-2019
</metadata>
<g transform="translate(0.000000,179.000000) scale(0.100000,-0.100000)"
fill="#000000" stroke="none">
<path d="M300 1200 l0 -290 58 0 c185 0 472 43 617 91 143 48 245 118 245 167
0 11 -7 5 -20 -15 -66 -108 -375 -203 -714 -219 l-131 -7 27 29 c54 58 73 118
73 239 0 130 -19 196 -70 251 l-34 36 97 -7 c372 -25 641 -99 735 -203 20 -23
37 -36 37 -28 0 20 -53 71 -103 100 -139 80 -465 146 -719 146 l-98 0 0 -290z"/>
<path d="M300 590 l0 -290 98 0 c207 0 474 46 641 110 81 32 181 106 181 136
0 8 -17 -5 -37 -28 -94 -103 -364 -178 -735 -203 l-97 -7 33 36 c44 46 66 111
73 212 8 120 -18 215 -75 277 l-26 27 66 0 c326 0 709 -109 778 -222 12 -21
20 -27 20 -16 0 49 -102 119 -245 167 -145 48 -432 91 -617 91 l-58 0 0 -290z"/>
</g>
</svg>
