<?xml version="1.0" standalone="no"?>
<!DOCTYPE svg PUBLIC "-//W3C//DTD SVG 20010904//EN"
 "http://www.w3.org/TR/2001/REC-SVG-20010904/DTD/svg10.dtd">
<svg version="1.0" xmlns="http://www.w3.org/2000/svg"
 width="110.000000pt" height="177.000000pt" viewBox="0 0 110.000000 177.000000"
 preserveAspectRatio="xMidYMid meet">
<metadata>
Created by potrace 1.16, written by Peter Selinger 2001-2019
</metadata>
<g transform="translate(0.000000,177.000000) scale(0.100000,-0.100000)"
fill="#000000" stroke="none">
<path d="M360 1379 l0 -91 -30 7 c-27 6 -30 4 -30 -19 0 -22 4 -26 30 -26 28
0 30 -3 30 -36 0 -35 -1 -36 -30 -30 -27 5 -30 3 -30 -19 0 -21 5 -25 30 -25
l30 0 0 -110 0 -110 170 0 170 0 0 109 c0 120 0 121 73 121 46 0 30 18 -23 25
-48 7 -50 8 -50 40 0 35 16 45 73 45 46 0 30 19 -23 26 l-50 7 0 88 0 89 -170
0 -170 0 0 -91z m263 -109 c3 -11 1 -20 -4 -20 -5 0 -9 9 -9 20 0 11 2 20 4
20 2 0 6 -9 9 -20z m60 13 c-7 -2 -19 -2 -25 0 -7 3 -2 5 12 5 14 0 19 -2 13
-5z m-206 -9 c-3 -3 -12 -4 -19 -1 -8 3 -5 6 6 6 11 1 17 -2 13 -5z m200 -100
c-3 -3 -12 -4 -19 -1 -8 3 -5 6 6 6 11 1 17 -2 13 -5z m-204 -11 c-7 -2 -19
-2 -25 0 -7 3 -2 5 12 5 14 0 19 -2 13 -5z"/>
<path d="M360 759 l0 -91 -30 4 c-27 4 -30 2 -30 -25 0 -27 2 -28 30 -22 29 6
30 5 30 -30 0 -36 -1 -37 -30 -33 -28 4 -30 2 -30 -25 0 -27 2 -29 30 -23 l30
6 0 -110 0 -110 170 0 170 0 0 110 0 110 28 0 c37 0 72 10 72 21 0 5 -17 9
-37 9 -50 0 -60 8 -65 51 -3 31 -1 35 14 31 25 -6 88 7 88 18 0 6 -15 10 -34
10 -64 0 -66 3 -66 101 l0 89 -170 0 -170 0 0 -91z m263 -109 c-3 -11 -7 -20
-9 -20 -2 0 -4 9 -4 20 0 11 4 20 9 20 5 0 7 -9 4 -20z m-150 -7 c-7 -2 -19
-2 -25 0 -7 3 -2 5 12 5 14 0 19 -2 13 -5z m-66 -9 c-3 -3 -12 -4 -19 -1 -8 3
-5 6 6 6 11 1 17 -2 13 -5z m216 -94 c-3 -11 -7 -20 -9 -20 -2 0 -4 9 -4 20 0
11 4 20 9 20 5 0 7 -9 4 -20z m-150 -7 c-7 -2 -19 -2 -25 0 -7 3 -2 5 12 5 14
0 19 -2 13 -5z m-66 -9 c-3 -3 -12 -4 -19 -1 -8 3 -5 6 6 6 11 1 17 -2 13 -5z"/>
</g>
</svg>
