<?xml version="1.0" standalone="no"?>
<!DOCTYPE svg PUBLIC "-//W3C//DTD SVG 20010904//EN"
 "http://www.w3.org/TR/2001/REC-SVG-20010904/DTD/svg10.dtd">
<svg version="1.0" xmlns="http://www.w3.org/2000/svg"
 width="118.000000pt" height="131.000000pt" viewBox="0 0 118.000000 131.000000"
 preserveAspectRatio="xMidYMid meet">
<metadata>
Created by potrace 1.16, written by Peter Selinger 2001-2019
</metadata>
<g transform="translate(0.000000,131.000000) scale(0.100000,-0.100000)"
fill="#000000" stroke="none">
<path d="M450 980 l0 -30 -76 0 -77 0 6 -45 c15 -104 97 -194 210 -229 9 -3
17 -10 17 -16 0 -8 -37 -10 -115 -8 l-115 3 0 -26 c0 -42 28 -113 61 -152 33
-40 122 -97 152 -97 11 0 17 -8 17 -24 0 -57 27 -77 32 -23 3 29 6 32 39 35
35 3 37 1 43 -32 8 -43 26 -48 26 -8 0 36 14 53 72 85 78 45 138 138 138 216
l0 26 -100 -3 c-80 -3 -100 -1 -100 10 0 8 15 22 34 30 83 40 151 129 162 211
l7 47 -143 0 -142 0 6 30 c5 27 3 30 -19 30 -21 0 -25 -5 -25 -30 0 -28 -3
-30 -36 -30 -35 0 -36 1 -30 30 5 27 3 30 -19 30 -21 0 -25 -5 -25 -30z m26
-117 c106 -14 237 -6 315 20 l71 24 -6 -31 c-8 -43 -53 -104 -105 -143 -58
-44 -73 -43 -69 5 2 25 -1 37 -10 36 -39 -3 -40 -4 -34 -49 l5 -45 -37 0 -36
0 0 51 c0 43 -3 50 -16 45 -9 -3 -20 -6 -25 -6 -5 0 -6 -17 -3 -40 8 -47 2
-49 -61 -19 -51 24 -110 85 -131 135 -25 59 -20 65 34 44 27 -10 75 -22 108
-27z m164 -203 c0 -5 -16 -10 -35 -10 -19 0 -35 5 -35 10 0 6 16 10 35 10 19
0 35 -4 35 -10z m222 -65 c-9 -49 -66 -130 -116 -162 -26 -18 -53 -33 -58 -33
-5 0 -8 17 -6 38 3 34 1 37 -22 37 -23 0 -25 -3 -22 -39 4 -42 -7 -56 -46 -56
-22 0 -23 4 -21 48 3 44 2 47 -21 47 -23 0 -25 -3 -22 -43 4 -42 3 -44 -20
-37 -75 22 -167 112 -184 182 -9 33 -1 37 33 20 48 -25 129 -37 241 -37 108 0
183 14 237 43 17 9 31 16 31 17 1 0 -1 -11 -4 -25z"/>
</g>
</svg>
