<?xml version="1.0" standalone="no"?>
<!DOCTYPE svg PUBLIC "-//W3C//DTD SVG 20010904//EN"
 "http://www.w3.org/TR/2001/REC-SVG-20010904/DTD/svg10.dtd">
<svg version="1.0" xmlns="http://www.w3.org/2000/svg"
 width="131.000000pt" height="176.000000pt" viewBox="0 0 131.000000 176.000000"
 preserveAspectRatio="xMidYMid meet">
<metadata>
Created by potrace 1.16, written by Peter Selinger 2001-2019
</metadata>
<g transform="translate(0.000000,176.000000) scale(0.100000,-0.100000)"
fill="#000000" stroke="none">
<path d="M535 1436 c-62 -28 -119 -86 -142 -143 -18 -43 -19 -44 -55 -37 -36
5 -38 4 -38 -21 0 -25 3 -27 35 -23 35 4 35 4 35 -34 l0 -39 -35 7 c-33 6 -35
5 -35 -21 0 -26 2 -27 40 -23 31 3 40 0 40 -12 0 -29 58 -108 101 -140 24 -17
68 -38 98 -47 133 -38 285 41 333 173 11 30 16 34 49 34 52 0 59 18 9 26 -39
6 -40 8 -40 45 0 38 1 39 34 39 38 0 55 14 30 24 -9 3 -28 6 -44 6 -24 0 -30
6 -40 34 -17 51 -87 126 -145 152 -69 33 -161 33 -230 0z m-52 -203 c-7 -2
-21 -2 -30 0 -10 3 -4 5 12 5 17 0 24 -2 18 -5z m0 -110 c-7 -2 -21 -2 -30 0
-10 3 -4 5 12 5 17 0 24 -2 18 -5z"/>
<path d="M563 852 c-28 -10 -68 -31 -88 -46 -40 -31 -95 -110 -95 -137 0 -14
-6 -15 -40 -9 -39 7 -40 7 -40 -22 0 -26 2 -28 28 -22 53 12 67 14 55 8 -7 -3
-13 -23 -13 -44 l0 -38 -35 8 c-34 8 -35 7 -35 -22 0 -32 3 -32 72 -12 13 4
16 1 12 -9 -7 -20 27 -85 68 -126 79 -81 211 -105 313 -57 57 26 128 101 145
151 10 29 16 34 55 40 55 8 59 23 8 27 -36 3 -38 5 -41 39 -3 35 -2 36 37 43
43 7 57 26 19 26 -46 0 -65 12 -85 54 -31 64 -69 102 -126 130 -72 35 -148 41
-214 18z m-83 -218 c0 -2 -9 -4 -21 -4 -11 0 -18 4 -14 10 5 8 35 3 35 -6z
m-7 -111 c-7 -2 -19 -2 -25 0 -7 3 -2 5 12 5 14 0 19 -2 13 -5z"/>
</g>
</svg>
