<?xml version="1.0" standalone="no"?>
<!DOCTYPE svg PUBLIC "-//W3C//DTD SVG 20010904//EN"
 "http://www.w3.org/TR/2001/REC-SVG-20010904/DTD/svg10.dtd">
<svg version="1.0" xmlns="http://www.w3.org/2000/svg"
 width="153.000000pt" height="176.000000pt" viewBox="0 0 153.000000 176.000000"
 preserveAspectRatio="xMidYMid meet">
<metadata>
Created by potrace 1.16, written by Peter Selinger 2001-2019
</metadata>
<g transform="translate(0.000000,176.000000) scale(0.100000,-0.100000)"
fill="#000000" stroke="none">
<path d="M300 880 l0 -580 98 0 c249 0 597 71 719 146 50 31 103 87 102 109 0
20 0 20 -9 0 -49 -118 -349 -213 -762 -240 l-97 -7 34 37 c101 107 99 380 -3
489 l-27 29 130 -6 c342 -16 638 -106 712 -216 19 -28 23 -30 23 -13 0 32 -83
97 -167 132 -135 56 -396 110 -533 110 -28 0 -50 5 -50 10 0 6 22 10 50 10
137 0 398 54 533 110 86 36 167 100 167 133 0 19 -3 18 -19 -10 -68 -110 -370
-203 -715 -220 l-129 -6 22 22 c13 13 35 48 49 80 24 50 27 68 27 166 0 130
-19 196 -70 251 l-34 36 97 -7 c413 -27 713 -122 762 -240 9 -20 9 -20 9 0 1
24 -37 67 -87 99 -136 85 -469 156 -734 156 l-98 0 0 -580z"/>
<path d="M663 1300 c-99 -45 -113 -179 -26 -244 60 -45 166 -25 204 38 25 41
25 112 -1 154 -19 32 -86 72 -120 72 -8 0 -34 -9 -57 -20z"/>
<path d="M670 722 c-58 -26 -90 -73 -90 -132 0 -75 42 -125 123 -144 40 -10
112 25 137 66 26 42 26 113 1 154 -31 50 -119 79 -171 56z"/>
</g>
</svg>
