<?xml version="1.0" standalone="no"?>
<!DOCTYPE svg PUBLIC "-//W3C//DTD SVG 20010904//EN"
 "http://www.w3.org/TR/2001/REC-SVG-20010904/DTD/svg10.dtd">
<svg version="1.0" xmlns="http://www.w3.org/2000/svg"
 width="140.000000pt" height="140.000000pt" viewBox="0 0 140.000000 140.000000"
 preserveAspectRatio="xMidYMid meet">
<metadata>
Created by potrace 1.16, written by Peter Selinger 2001-2019
</metadata>
<g transform="translate(0.000000,140.000000) scale(0.100000,-0.100000)"
fill="#000000" stroke="none">
<path d="M933 1093 c-32 -4 -40 -16 -25 -39 5 -8 18 -3 42 17 19 16 30 28 25
27 -6 0 -25 -3 -42 -5z"/>
<path d="M498 993 c-16 -2 -28 -11 -28 -18 0 -26 20 -26 47 -1 15 15 23 25 18
25 -6 -1 -22 -4 -37 -6z"/>
<path d="M655 991 c-123 -32 -225 -144 -225 -247 l0 -34 290 0 c329 0 303 -8
275 87 -39 130 -210 228 -340 194z m157 -27 c63 -21 126 -78 154 -138 30 -65
31 -81 3 -66 -17 10 -18 14 -7 27 11 14 10 15 -11 8 -13 -4 -72 -2 -131 5
-130 16 -259 3 -332 -33 l-48 -24 6 26 c20 86 105 176 188 200 49 14 128 12
178 -5z"/>
<path d="M760 917 c-44 -13 -42 -11 -34 -31 8 -21 14 -20 48 10 34 30 32 34
-14 21z"/>
<path d="M323 773 c-25 -5 -27 -11 -14 -32 8 -12 15 -9 41 12 32 28 28 31 -27
20z"/>
<path d="M493 693 c-13 -2 -23 -11 -23 -18 0 -25 18 -26 46 0 26 24 23 27 -23
18z"/>
<path d="M638 687 c-115 -33 -208 -140 -208 -242 l0 -35 290 0 c329 0 303 -8
275 87 -42 140 -212 230 -357 190z m197 -31 c75 -35 131 -102 151 -181 l6 -25
-44 20 c-64 28 -180 43 -278 36 -84 -5 -186 -29 -204 -47 -19 -18 -24 -8 -14
28 21 77 88 149 166 178 61 22 159 19 217 -9z"/>
<path d="M758 618 c-40 -11 -43 -14 -29 -37 7 -11 16 -8 42 18 19 17 32 30 29
30 -3 -1 -22 -6 -42 -11z"/>
<path d="M338 477 c-41 -11 -43 -14 -28 -37 8 -13 15 -10 42 18 18 17 30 31
28 31 -3 -1 -22 -6 -42 -12z"/>
<path d="M1048 343 c-30 -5 -33 -10 -19 -32 8 -12 15 -9 41 12 17 15 26 26 18
26 -7 -1 -25 -4 -40 -6z"/>
</g>
</svg>
