<?xml version="1.0" standalone="no"?>
<!DOCTYPE svg PUBLIC "-//W3C//DTD SVG 20010904//EN"
 "http://www.w3.org/TR/2001/REC-SVG-20010904/DTD/svg10.dtd">
<svg version="1.0" xmlns="http://www.w3.org/2000/svg"
 width="107.000000pt" height="123.000000pt" viewBox="0 0 107.000000 123.000000"
 preserveAspectRatio="xMidYMid meet">
<metadata>
Created by potrace 1.16, written by Peter Selinger 2001-2019
</metadata>
<g transform="translate(0.000000,123.000000) scale(0.100000,-0.100000)"
fill="#000000" stroke="none">
<path d="M300 778 l0 -151 108 6 c108 6 237 33 290 61 l30 15 7 -52 c7 -44 9
-48 15 -27 5 14 8 69 9 123 1 84 -1 97 -16 97 -9 0 -44 11 -78 25 -74 29 -214
55 -301 55 l-64 0 0 -152z m155 131 c86 -11 239 -52 249 -67 2 -4 -63 -5 -145
-4 -136 4 -149 2 -143 -13 6 -14 25 -16 160 -13 l154 3 0 -33 0 -33 -155 2
c-85 1 -158 5 -162 8 -5 3 -8 14 -9 24 -2 54 -6 67 -29 101 -13 20 -21 36 -17
36 4 0 48 -5 97 -11z m250 -193 c-43 -29 -159 -56 -303 -70 l-53 -5 21 28 c11
16 20 34 20 40 0 7 44 12 123 14 67 1 142 4 167 5 40 2 43 1 25 -12z"/>
<path d="M300 468 l0 -151 108 6 c116 7 201 25 273 55 l47 20 7 -51 c8 -48 9
-50 15 -22 4 17 8 72 9 123 1 80 -1 92 -16 92 -9 0 -44 11 -78 25 -74 29 -214
55 -301 55 l-64 0 0 -152z m220 121 c65 -12 183 -49 177 -56 -3 -2 -72 -1
-153 3 l-149 7 -22 34 -22 33 57 -6 c31 -3 82 -10 112 -15z m210 -124 c0 -25
-4 -44 -8 -41 -5 3 -76 6 -158 7 -133 1 -149 -1 -152 -16 -4 -15 9 -17 142
-13 80 1 142 0 138 -3 -13 -12 -107 -38 -172 -48 -87 -13 -170 -21 -170 -16 0
2 11 21 25 41 17 25 25 50 25 80 0 51 -12 47 193 52 l137 4 0 -47z"/>
</g>
</svg>
