<?xml version="1.0" standalone="no"?>
<!DOCTYPE svg PUBLIC "-//W3C//DTD SVG 20010904//EN"
 "http://www.w3.org/TR/2001/REC-SVG-20010904/DTD/svg10.dtd">
<svg version="1.0" xmlns="http://www.w3.org/2000/svg"
 width="118.000000pt" height="204.000000pt" viewBox="0 0 118.000000 204.000000"
 preserveAspectRatio="xMidYMid meet">
<metadata>
Created by potrace 1.16, written by Peter Selinger 2001-2019
</metadata>
<g transform="translate(0.000000,204.000000) scale(0.100000,-0.100000)"
fill="#000000" stroke="none">
<path d="M300 1708 c1 -68 62 -166 128 -207 l39 -24 -15 -38 c-13 -33 -13 -43
0 -82 l14 -44 -34 -19 c-68 -37 -132 -140 -132 -213 l0 -26 290 0 290 0 0 26
c0 74 -64 176 -134 214 -25 14 -34 24 -30 35 13 32 16 90 6 118 -9 27 -7 30
30 53 66 41 127 139 128 207 l0 32 -290 0 -290 0 0 -32z m238 -65 c110 -6 225
8 283 36 35 17 39 18 39 3 -1 -53 -70 -146 -132 -178 -28 -15 -31 -14 -54 7
-17 16 -40 24 -76 27 -45 3 -59 0 -92 -22 l-38 -27 -37 27 c-47 35 -68 60 -91
109 -34 70 -29 76 40 48 43 -17 88 -26 158 -30z m-32 -362 c43 -34 90 -36 151
-5 l55 26 41 -29 c66 -46 143 -190 90 -168 -73 31 -110 38 -213 43 -124 4
-213 -7 -272 -37 -38 -18 -38 -18 -38 3 0 35 58 125 102 156 48 35 52 36 84
11z"/>
<path d="M300 959 c0 -74 64 -176 132 -213 l35 -19 -16 -42 c-13 -37 -13 -46
0 -81 l15 -39 -50 -35 c-56 -39 -116 -138 -116 -191 l0 -29 290 0 290 0 0 28
c-1 63 -64 162 -130 202 -29 18 -38 29 -33 40 10 19 10 111 0 130 -5 11 3 21
29 35 70 38 134 140 134 214 l0 26 -290 0 -290 0 0 -26z m155 -60 c33 -6 111
-9 175 -7 103 5 140 12 213 43 51 22 -21 -119 -85 -165 -49 -36 -51 -36 -87
-9 -47 34 -102 36 -157 4 l-46 -27 -42 29 c-44 31 -106 123 -106 159 l0 21 38
-18 c20 -10 64 -24 97 -30z m147 -396 c23 3 54 15 71 27 26 20 32 21 55 9 60
-32 131 -129 132 -181 0 -15 -3 -15 -38 2 -111 54 -363 51 -471 -5 -27 -13
-31 -13 -31 -1 0 49 59 138 113 170 l39 24 45 -25 c34 -20 53 -24 85 -20z"/>
</g>
</svg>
