<?xml version="1.0" standalone="no"?>
<!DOCTYPE svg PUBLIC "-//W3C//DTD SVG 20010904//EN"
 "http://www.w3.org/TR/2001/REC-SVG-20010904/DTD/svg10.dtd">
<svg version="1.0" xmlns="http://www.w3.org/2000/svg"
 width="161.000000pt" height="130.000000pt" viewBox="0 0 161.000000 130.000000"
 preserveAspectRatio="xMidYMid meet">
<metadata>
Created by potrace 1.16, written by Peter Selinger 2001-2019
</metadata>
<g transform="translate(0.000000,130.000000) scale(0.100000,-0.100000)"
fill="#000000" stroke="none">
<path d="M470 970 l0 -33 -24 22 -24 23 -11 -21 c-10 -18 -9 -21 8 -21 49 0
51 -5 51 -127 l0 -116 73 7 c108 11 166 25 229 56 34 16 67 26 80 23 22 -4 22
-4 5 10 -15 12 -16 19 -8 36 39 72 -106 156 -291 168 l-88 6 0 -33z m259 -22
c67 -25 114 -68 109 -100 -2 -15 -9 -22 -20 -20 -11 2 -20 -6 -23 -21 -4 -14
-21 -31 -42 -41 -35 -17 -37 -17 -64 3 -28 21 -28 21 -39 1 -9 -18 -8 -20 17
-21 25 0 26 -1 7 -9 -11 -4 -47 -11 -80 -15 l-59 -8 27 28 c57 57 58 148 3
213 l-24 28 66 -8 c36 -5 91 -19 122 -30z"/>
<path d="M621 942 c-8 -16 -4 -20 30 -29 46 -12 48 -6 9 25 -28 22 -29 22 -39
4z"/>
<path d="M920 970 l0 -33 -24 22 c-24 23 -24 23 -35 3 -9 -18 -7 -21 24 -26
l35 -7 0 -116 0 -116 73 7 c109 11 166 25 230 56 33 17 65 26 75 23 15 -6 15
-4 4 9 -10 13 -11 22 -3 37 39 72 -106 156 -291 168 l-88 6 0 -33z m256 -21
c74 -28 116 -64 112 -98 -2 -18 -8 -25 -20 -23 -11 2 -20 -6 -23 -21 -4 -14
-21 -31 -42 -41 -35 -17 -37 -17 -64 3 -28 21 -28 21 -39 1 -9 -18 -8 -20 17
-21 25 0 26 -1 7 -9 -11 -4 -47 -11 -80 -15 l-59 -8 28 28 c57 58 58 146 2
213 l-24 28 66 -8 c36 -5 90 -18 119 -29z"/>
<path d="M1071 942 c-8 -16 -4 -20 30 -29 46 -12 48 -6 9 25 -28 22 -29 22
-39 4z"/>
<path d="M306 644 c-8 -20 -11 -17 38 -32 l39 -11 -28 30 c-33 33 -40 35 -49
13z"/>
<path d="M1026 634 c-8 -22 -9 -21 18 -28 13 -3 32 -9 43 -12 11 -4 5 5 -15
25 -39 36 -38 36 -46 15z"/>
<path d="M470 536 c0 -58 -3 -106 -7 -106 -4 0 -19 12 -34 26 -26 25 -27 25
-38 6 -9 -18 -6 -21 34 -32 44 -12 45 -14 45 -53 l0 -40 143 6 c285 12 487 73
487 146 0 68 -212 128 -517 146 l-113 7 0 -106z m248 73 c250 -27 393 -82 362
-139 -25 -46 -193 -91 -410 -110 -164 -14 -154 -16 -126 25 46 67 42 158 -7
213 l-20 22 52 0 c28 0 95 -5 149 -11z"/>
<path d="M726 494 c-8 -22 -9 -21 18 -28 13 -3 32 -9 43 -12 11 -4 5 5 -15 25
-39 36 -38 36 -46 15z"/>
<path d="M980 341 c-12 -23 -11 -24 45 -36 30 -6 30 -6 10 12 -11 10 -25 24
-32 31 -9 11 -13 10 -23 -7z"/>
</g>
</svg>
