<?xml version="1.0" standalone="no"?>
<!DOCTYPE svg PUBLIC "-//W3C//DTD SVG 20010904//EN"
 "http://www.w3.org/TR/2001/REC-SVG-20010904/DTD/svg10.dtd">
<svg version="1.0" xmlns="http://www.w3.org/2000/svg"
 width="139.000000pt" height="123.000000pt" viewBox="0 0 139.000000 123.000000"
 preserveAspectRatio="xMidYMid meet">
<metadata>
Created by potrace 1.16, written by Peter Selinger 2001-2019
</metadata>
<g transform="translate(0.000000,123.000000) scale(0.100000,-0.100000)"
fill="#000000" stroke="none">
<path d="M300 779 l0 -151 68 6 c236 23 360 103 296 194 -34 50 -196 102 -314
102 l-50 0 0 -151z m200 115 c123 -28 189 -85 161 -137 -19 -36 -99 -76 -186
-92 -108 -21 -111 -20 -81 15 59 71 52 163 -19 222 -19 17 -19 17 20 12 22 -3
69 -12 105 -20z"/>
<path d="M710 780 l0 -150 24 0 c14 0 59 5 102 11 242 33 332 154 175 233 -55
29 -179 56 -251 56 l-50 0 0 -150z m200 114 c109 -25 180 -78 165 -124 -16
-49 -123 -100 -247 -116 l-52 -7 27 32 c52 62 51 151 -3 206 l-33 34 39 -5
c21 -4 68 -13 104 -20z"/>
<path d="M300 450 l0 -150 80 0 c314 0 595 86 550 170 -17 31 -105 68 -213 90
-90 19 -290 40 -374 40 l-43 0 0 -150z m370 105 c153 -27 250 -70 250 -110 0
-56 -200 -110 -484 -130 l-89 -6 27 31 c14 17 29 43 32 56 11 44 -2 120 -26
154 l-24 33 115 -6 c63 -4 152 -14 199 -22z"/>
</g>
</svg>
