<?xml version="1.0" standalone="no"?>
<!DOCTYPE svg PUBLIC "-//W3C//DTD SVG 20010904//EN"
 "http://www.w3.org/TR/2001/REC-SVG-20010904/DTD/svg10.dtd">
<svg version="1.0" xmlns="http://www.w3.org/2000/svg"
 width="160.000000pt" height="123.000000pt" viewBox="0 0 160.000000 123.000000"
 preserveAspectRatio="xMidYMid meet">
<metadata>
Created by potrace 1.16, written by Peter Selinger 2001-2019
</metadata>
<g transform="translate(0.000000,123.000000) scale(0.100000,-0.100000)"
fill="#000000" stroke="none">
<path d="M370 901 c0 -29 -2 -31 -35 -31 -31 0 -35 -3 -35 -26 0 -25 2 -26 35
-20 35 7 35 7 35 -29 0 -33 -2 -35 -35 -35 -31 0 -35 -3 -35 -26 0 -24 2 -26
34 -20 l35 7 3 -43 3 -43 65 3 c88 4 185 28 237 57 23 13 57 26 75 30 27 6 29
9 17 19 -9 6 -18 30 -21 54 -5 37 -4 42 14 42 33 0 11 18 -29 23 -21 3 -71 17
-112 32 -49 17 -104 28 -163 32 l-88 6 0 -32z m155 4 c98 -17 141 -34 89 -35
-27 0 -31 -3 -27 -24 5 -23 8 -23 69 -18 60 4 64 4 75 -21 21 -47 9 -55 -74
-49 l-75 4 5 -26 c5 -25 7 -26 57 -20 38 4 47 3 36 -5 -23 -17 -129 -48 -190
-56 l-55 -7 28 29 c57 61 56 156 -3 215 -16 15 -27 28 -26 28 2 0 43 -7 91
-15z m-48 -61 c-3 -3 -12 -4 -19 -1 -8 3 -5 6 6 6 11 1 17 -2 13 -5z m6 -111
c-7 -2 -19 -2 -25 0 -7 3 -2 5 12 5 14 0 19 -2 13 -5z m-76 -9 c-3 -3 -12 -4
-19 -1 -8 3 -5 6 6 6 11 1 17 -2 13 -5z"/>
<path d="M898 901 c4 -30 4 -31 -37 -31 -37 0 -41 -2 -41 -25 0 -24 3 -26 38
-23 35 3 37 1 40 -29 3 -32 2 -33 -37 -33 -38 0 -41 -2 -41 -26 0 -24 3 -26
29 -21 50 10 76 14 64 10 -11 -4 -18 -58 -10 -80 8 -26 254 19 305 55 15 11
42 23 60 27 33 7 45 25 16 25 -10 0 -14 5 -10 15 3 8 1 27 -4 41 -9 22 -7 27
10 31 33 9 23 21 -22 26 -24 3 -76 17 -117 32 -49 17 -104 28 -161 32 l-87 6
5 -32z m205 -8 c68 -15 92 -29 37 -21 -27 4 -30 2 -30 -23 l0 -28 63 6 c69 6
91 -6 85 -49 -3 -22 -6 -23 -75 -20 -73 4 -73 4 -73 -22 0 -26 1 -27 53 -21
l52 6 -35 -20 c-33 -18 -166 -51 -206 -51 -12 0 -9 8 14 34 34 39 47 82 37
126 -5 24 -12 30 -33 31 -24 2 -24 2 -4 6 30 6 28 16 -9 47 l-31 27 43 -6 c24
-4 74 -13 112 -22z m-100 -160 c-7 -2 -19 -2 -25 0 -7 3 -2 5 12 5 14 0 19 -2
13 -5z"/>
<path d="M380 549 l0 -42 -40 6 c-37 5 -40 3 -40 -19 0 -21 4 -24 39 -24 38 0
39 -1 43 -39 2 -23 -1 -37 -7 -36 -5 2 -25 6 -42 9 -30 5 -33 3 -33 -20 0 -24
3 -26 43 -23 l42 4 -3 -32 c-4 -30 -2 -33 21 -33 16 0 35 11 51 31 32 37 33
53 5 44 -15 -5 -19 -4 -15 4 4 6 16 11 27 11 18 0 20 6 17 48 -3 42 -5 47 -26
45 -13 -2 -21 1 -17 7 3 6 13 10 21 10 13 0 13 4 -1 29 -8 16 -20 32 -27 35
-7 3 37 4 97 1 112 -5 266 -27 320 -45 25 -8 21 -9 -27 -6 -56 4 -58 4 -58
-21 l0 -25 101 3 c95 4 102 3 116 -18 13 -19 12 -24 -6 -42 -22 -22 -40 -22
-173 -5 -35 4 -38 2 -38 -21 0 -23 3 -25 53 -26 l52 -1 -55 -14 c-30 -7 -98
-19 -150 -26 -64 -9 -84 -14 -60 -16 87 -9 320 47 374 89 49 38 25 89 -58 123
-83 34 -368 75 -528 76 -14 0 -18 -9 -18 -41z"/>
</g>
</svg>
