<?xml version="1.0" standalone="no"?>
<!DOCTYPE svg PUBLIC "-//W3C//DTD SVG 20010904//EN"
 "http://www.w3.org/TR/2001/REC-SVG-20010904/DTD/svg10.dtd">
<svg version="1.0" xmlns="http://www.w3.org/2000/svg"
 width="134.000000pt" height="189.000000pt" viewBox="0 0 134.000000 189.000000"
 preserveAspectRatio="xMidYMid meet">
<metadata>
Created by potrace 1.16, written by Peter Selinger 2001-2019
</metadata>
<g transform="translate(0.000000,189.000000) scale(0.100000,-0.100000)"
fill="#000000" stroke="none">
<path d="M887 1584 c-4 -4 -4 -31 -1 -60 8 -64 -2 -69 -90 -42 -86 27 -220 46
-367 54 l-129 7 0 -153 0 -153 133 6 c122 6 293 28 331 43 12 5 15 2 10 -10
-6 -14 -3 -15 31 0 21 8 48 21 59 28 13 8 31 10 46 6 24 -7 23 -8 -17 -25 -24
-10 -43 -22 -43 -27 0 -14 18 -9 69 17 27 13 50 23 52 21 2 -2 19 -6 37 -9
l33 -7 -3 153 -3 152 -70 3 c-39 1 -74 0 -78 -4z m126 -111 c11 -158 10 -175
-10 -169 -10 3 -37 10 -61 16 -41 11 -42 12 -27 33 21 29 19 53 -6 76 -13 12
-17 21 -10 26 6 3 11 15 11 26 0 16 7 19 45 19 60 0 58 20 -2 21 l-48 2 42 6
c60 10 65 21 10 21 -26 0 -47 5 -47 10 0 6 22 10 48 10 l49 0 6 -97z m-411 32
c62 -8 136 -21 163 -28 l50 -13 -143 -12 -142 -12 -50 25 c-55 28 -60 29 -60
15 0 -6 20 -19 45 -30 25 -11 45 -23 45 -28 0 -4 -21 -19 -47 -31 -27 -13 -43
-26 -36 -28 6 -2 30 5 53 17 23 12 51 19 63 17 19 -3 17 -6 -15 -20 -21 -10
-38 -22 -38 -27 0 -14 5 -13 58 14 29 14 54 21 66 16 16 -5 12 -9 -23 -23 -23
-10 -39 -22 -36 -27 4 -6 27 1 56 16 33 16 58 23 72 18 19 -6 16 -9 -23 -29
-26 -13 -39 -25 -31 -29 6 -4 33 5 60 20 32 17 56 24 68 19 15 -6 12 -10 -17
-24 -19 -9 -39 -21 -45 -28 -10 -12 -147 -29 -277 -36 l-66 -3 23 28 c44 52
46 150 5 208 l-21 30 65 0 c36 0 116 -7 178 -15z m279 -72 c15 -9 31 -23 34
-31 7 -18 -10 -48 -31 -56 -9 -3 -80 11 -158 31 -77 21 -134 39 -125 41 9 1
65 9 125 16 60 7 113 14 117 15 5 0 22 -7 38 -16z m-71 -118 c-47 -18 -71 -18
-40 0 14 8 36 14 50 14 22 0 21 -2 -10 -14z"/>
<path d="M887 1104 c-3 -4 -4 -33 0 -65 7 -69 8 -68 -84 -39 -78 24 -235 47
-385 56 l-118 7 0 -152 0 -151 80 0 c93 0 247 16 337 34 51 11 60 11 56 0 -7
-19 0 -18 57 11 49 25 90 32 90 17 0 -5 -17 -16 -37 -27 -21 -10 -33 -20 -26
-22 6 -2 31 6 54 18 33 16 53 20 86 15 l44 -6 -3 153 -3 152 -70 3 c-39 1 -74
0 -78 -4z m126 -111 c11 -158 10 -175 -10 -169 -10 3 -38 10 -61 16 -41 11
-43 12 -28 29 22 24 20 54 -4 76 -14 13 -17 22 -10 29 5 5 10 18 10 28 0 15 8
18 45 18 60 0 58 20 -2 22 l-48 2 48 3 c60 5 62 23 2 23 -25 0 -45 5 -45 10 0
6 22 10 48 10 l49 0 6 -97z m-343 22 c94 -17 154 -33 128 -34 -10 -1 -74 -6
-144 -12 l-125 -11 -49 26 c-53 29 -60 31 -60 15 0 -5 20 -19 45 -30 25 -11
45 -24 45 -29 0 -5 -20 -18 -45 -29 -25 -11 -45 -25 -45 -30 0 -15 4 -14 60
14 27 14 54 25 60 25 21 0 9 -18 -20 -30 -16 -7 -30 -16 -30 -21 0 -13 6 -11
50 11 22 11 52 20 67 20 26 -1 26 -2 -15 -23 -24 -13 -40 -26 -36 -29 3 -4 28
4 55 17 36 19 53 23 71 16 22 -9 21 -10 -20 -27 -27 -11 -39 -21 -33 -27 6 -6
27 0 57 17 30 17 54 24 68 20 18 -6 16 -9 -17 -26 -20 -10 -37 -22 -37 -27 0
-9 -118 -24 -275 -37 l-80 -6 22 24 c50 53 57 138 18 207 l-26 44 113 -6 c62
-4 151 -14 198 -22z m233 -83 c20 -22 14 -48 -15 -63 -15 -8 -52 -2 -161 28
-87 23 -132 39 -117 41 106 16 248 27 260 21 8 -4 23 -16 33 -27z m-65 -87
c-6 -7 -98 -34 -98 -29 0 9 57 33 79 34 13 0 22 -2 19 -5z"/>
<path d="M887 643 c-4 -4 -5 -33 -1 -65 8 -67 9 -67 -83 -38 -77 24 -233 46
-385 55 l-118 7 0 -151 0 -151 85 0 c97 0 240 14 331 33 51 11 61 11 57 0 -7
-18 1 -17 57 12 50 26 90 32 90 16 0 -5 -16 -15 -35 -22 -19 -7 -35 -17 -35
-21 0 -13 18 -9 62 13 32 16 52 20 85 15 l44 -6 -3 153 -3 152 -70 3 c-39 1
-74 -1 -78 -5z m128 -144 c4 -72 5 -133 2 -135 -3 -3 -30 2 -62 11 -53 16 -55
18 -41 34 22 24 20 54 -4 76 -14 13 -17 22 -10 29 5 5 10 18 10 28 0 15 8 18
45 18 60 0 58 20 -2 22 l-48 2 48 3 c60 5 62 23 2 23 -25 0 -45 5 -45 10 0 6
22 10 49 10 l48 0 8 -131z m-344 55 c165 -29 160 -33 -62 -50 -81 -6 -89 -5
-131 20 -49 29 -58 31 -58 15 0 -5 20 -19 45 -30 25 -11 45 -24 45 -30 0 -5
-20 -18 -45 -29 -25 -11 -45 -24 -45 -30 0 -14 5 -13 60 15 27 14 54 25 60 25
21 0 9 -18 -20 -30 -16 -7 -30 -16 -30 -21 0 -13 6 -11 50 11 22 11 52 20 67
20 27 -1 26 -2 -12 -22 -48 -24 -50 -26 -43 -34 3 -3 29 6 56 20 39 20 56 24
74 17 22 -9 21 -10 -20 -27 -26 -10 -39 -21 -34 -26 6 -6 30 1 61 17 34 16 57
23 67 17 11 -6 7 -12 -21 -25 -19 -9 -35 -21 -35 -26 0 -9 -116 -24 -275 -37
l-80 -6 22 24 c50 53 57 138 18 207 l-26 44 110 -7 c60 -3 151 -13 202 -22z
m229 -79 c22 -23 22 -25 6 -50 -9 -14 -23 -25 -30 -25 -8 0 -74 16 -146 35
-72 19 -135 36 -138 36 -15 4 177 26 229 28 47 1 59 -3 79 -24z m-75 -94 c-11
-10 -85 -32 -85 -26 0 3 12 11 28 19 30 17 72 22 57 7z"/>
</g>
</svg>
