<?xml version="1.0" standalone="no"?>
<!DOCTYPE svg PUBLIC "-//W3C//DTD SVG 20010904//EN"
 "http://www.w3.org/TR/2001/REC-SVG-20010904/DTD/svg10.dtd">
<svg version="1.0" xmlns="http://www.w3.org/2000/svg"
 width="144.000000pt" height="119.000000pt" viewBox="0 0 144.000000 119.000000"
 preserveAspectRatio="xMidYMid meet">
<metadata>
Created by potrace 1.16, written by Peter Selinger 2001-2019
</metadata>
<g transform="translate(0.000000,119.000000) scale(0.100000,-0.100000)"
fill="#000000" stroke="none">
<path d="M445 878 c-11 -6 -30 -20 -42 -31 -17 -15 -31 -19 -63 -14 -39 5 -40
4 -40 -23 0 -27 2 -28 33 -23 33 5 33 5 29 -32 -4 -34 -6 -37 -33 -33 -26 4
-29 2 -29 -24 0 -28 1 -29 36 -22 31 6 39 3 64 -24 15 -17 46 -36 68 -43 35
-10 48 -9 87 6 25 9 53 27 61 40 10 15 29 26 55 30 45 8 53 25 10 25 -26 0
-29 3 -33 40 -4 41 4 50 43 50 10 0 19 5 19 10 0 9 -61 15 -75 8 -2 -2 -12 7
-20 20 -33 46 -121 67 -170 40z m30 -68 c3 -5 -1 -10 -10 -10 -9 0 -13 5 -10
10 3 6 8 10 10 10 2 0 7 -4 10 -10z m92 -16 c-3 -3 -12 -4 -19 -1 -8 3 -5 6 6
6 11 1 17 -2 13 -5z m-87 -100 c0 -2 -7 -4 -15 -4 -8 0 -15 4 -15 10 0 5 7 7
15 4 8 -4 15 -8 15 -10z"/>
<path d="M885 878 c-11 -6 -30 -20 -42 -30 -16 -15 -32 -19 -62 -16 -39 3 -41
2 -41 -24 0 -25 2 -27 30 -21 29 5 30 4 30 -32 0 -36 -1 -37 -30 -33 -27 4
-30 2 -30 -24 0 -27 2 -29 33 -23 28 6 38 1 70 -28 62 -59 137 -58 202 3 17
15 45 31 63 35 35 7 34 25 -1 25 -19 0 -22 6 -23 41 0 36 3 41 28 46 37 7 36
23 -2 23 -16 0 -32 -1 -35 -2 -2 -2 -12 7 -20 20 -33 46 -121 67 -170 40z m35
-74 c0 -2 -9 -4 -21 -4 -11 0 -18 4 -14 10 5 8 35 3 35 -6z m87 -10 c-3 -3
-12 -4 -19 -1 -8 3 -5 6 6 6 11 1 17 -2 13 -5z m-94 -101 c-7 -2 -19 -2 -25 0
-7 3 -2 5 12 5 14 0 19 -2 13 -5z"/>
<path d="M444 571 c-48 -22 -62 -39 -43 -53 10 -7 9 -8 -6 -4 -11 3 -37 8 -57
12 -36 6 -38 5 -38 -20 0 -23 4 -26 33 -26 32 0 33 -1 29 -35 -4 -32 -6 -34
-33 -28 -26 5 -29 3 -29 -21 0 -24 4 -26 38 -26 27 0 45 -7 58 -21 61 -67 167
-64 222 6 13 17 30 25 50 25 42 0 49 17 12 25 -23 5 -30 12 -30 30 0 13 -3 30
-6 39 -5 12 0 16 17 16 38 0 56 16 27 23 -12 4 -33 7 -44 7 -12 0 -25 7 -28
15 -7 18 -81 55 -111 55 -11 0 -39 -9 -61 -19z m153 -57 c-3 -3 -12 -4 -19 -1
-8 3 -5 6 6 6 11 1 17 -2 13 -5z m-114 -11 c-7 -2 -19 -2 -25 0 -7 3 -2 5 12
5 14 0 19 -2 13 -5z m52 -13 c3 -5 1 -10 -4 -10 -6 0 -11 5 -11 10 0 6 2 10 4
10 3 0 8 -4 11 -10z m52 -86 c-3 -3 -12 -4 -19 -1 -8 3 -5 6 6 6 11 1 17 -2
13 -5z m-97 -8 c0 -2 -11 -6 -25 -8 -13 -3 -22 -1 -19 3 5 9 44 13 44 5z m60
-22 c0 -2 -7 -4 -15 -4 -8 0 -15 4 -15 10 0 5 7 7 15 4 8 -4 15 -8 15 -10z"/>
</g>
</svg>
