<?xml version="1.0" standalone="no"?>
<!DOCTYPE svg PUBLIC "-//W3C//DTD SVG 20010904//EN"
 "http://www.w3.org/TR/2001/REC-SVG-20010904/DTD/svg10.dtd">
<svg version="1.0" xmlns="http://www.w3.org/2000/svg"
 width="119.000000pt" height="118.000000pt" viewBox="0 0 119.000000 118.000000"
 preserveAspectRatio="xMidYMid meet">
<metadata>
Created by potrace 1.16, written by Peter Selinger 2001-2019
</metadata>
<g transform="translate(0.000000,118.000000) scale(0.100000,-0.100000)"
fill="#000000" stroke="none">
<path d="M373 864 c-95 -47 -97 -200 -4 -249 69 -35 163 -8 197 56 64 125 -66
255 -193 193z"/>
<path d="M672 859 c-117 -76 -61 -263 79 -261 81 1 139 60 139 141 0 111 -124
180 -218 120z"/>
<path d="M363 560 c-89 -54 -82 -200 11 -244 128 -61 256 68 192 192 -35 68
-135 94 -203 52z"/>
</g>
</svg>
