<?xml version="1.0" standalone="no"?>
<!DOCTYPE svg PUBLIC "-//W3C//DTD SVG 20010904//EN"
 "http://www.w3.org/TR/2001/REC-SVG-20010904/DTD/svg10.dtd">
<svg version="1.0" xmlns="http://www.w3.org/2000/svg"
 width="123.000000pt" height="119.000000pt" viewBox="0 0 123.000000 119.000000"
 preserveAspectRatio="xMidYMid meet">
<metadata>
Created by potrace 1.16, written by Peter Selinger 2001-2019
</metadata>
<g transform="translate(0.000000,119.000000) scale(0.100000,-0.100000)"
fill="#000000" stroke="none">
<path d="M373 874 c-97 -48 -97 -200 -1 -250 99 -51 208 15 208 127 0 105
-110 170 -207 123z m84 -110 c-3 -3 -12 -4 -19 -1 -8 3 -5 6 6 6 11 1 17 -2
13 -5z"/>
<path d="M732 874 c-83 -42 -100 -148 -36 -224 49 -58 147 -59 205 -1 25 25
28 35 28 98 0 67 -2 72 -34 103 -42 41 -111 51 -163 24z m85 -110 c-3 -3 -12
-4 -19 -1 -8 3 -5 6 6 6 11 1 17 -2 13 -5z"/>
<path d="M397 565 c-46 -16 -64 -30 -83 -66 -30 -60 -11 -144 42 -184 26 -19
142 -19 168 0 75 57 75 180 -1 233 -39 27 -81 33 -126 17z m15 -130 c3 -14 1
-25 -3 -25 -5 0 -9 11 -9 25 0 14 2 25 4 25 2 0 6 -11 8 -25z"/>
</g>
</svg>
