<?xml version="1.0" standalone="no"?>
<!DOCTYPE svg PUBLIC "-//W3C//DTD SVG 20010904//EN"
 "http://www.w3.org/TR/2001/REC-SVG-20010904/DTD/svg10.dtd">
<svg version="1.0" xmlns="http://www.w3.org/2000/svg"
 width="136.000000pt" height="125.000000pt" viewBox="0 0 136.000000 125.000000"
 preserveAspectRatio="xMidYMid meet">
<metadata>
Created by potrace 1.16, written by Peter Selinger 2001-2019
</metadata>
<g transform="translate(0.000000,125.000000) scale(0.100000,-0.100000)"
fill="#000000" stroke="none">
<path d="M366 931 c-120 -79 -66 -261 77 -261 22 0 56 9 77 21 l37 21 79 -45
c151 -86 165 -72 24 23 -86 58 -89 61 -79 87 19 52 -15 129 -71 158 -40 21
-109 19 -144 -4z"/>
<path d="M680 928 c-46 -31 -72 -82 -66 -131 12 -105 122 -159 216 -106 l38
22 81 -47 c76 -43 111 -56 111 -38 0 4 -38 31 -84 60 l-85 54 6 47 c10 86 -43
152 -129 159 -44 3 -59 0 -88 -20z m111 -125 c13 -16 12 -17 -3 -4 -10 7 -18
15 -18 17 0 8 8 3 21 -13z m59 -39 c0 -2 -9 0 -20 6 -11 6 -20 13 -20 16 0 2
9 0 20 -6 11 -6 20 -13 20 -16z"/>
<path d="M385 630 c-74 -30 -108 -136 -65 -205 41 -66 127 -85 199 -45 l36 21
90 -51 c148 -83 156 -62 12 30 l-84 53 9 38 c13 50 -17 120 -64 149 -34 21
-97 26 -133 10z m165 -186 c0 -2 -9 0 -20 6 -11 6 -20 13 -20 16 0 2 9 0 20
-6 11 -6 20 -13 20 -16z"/>
</g>
</svg>
