<?xml version="1.0" standalone="no"?>
<!DOCTYPE svg PUBLIC "-//W3C//DTD SVG 20010904//EN"
 "http://www.w3.org/TR/2001/REC-SVG-20010904/DTD/svg10.dtd">
<svg version="1.0" xmlns="http://www.w3.org/2000/svg"
 width="278.000000pt" height="123.000000pt" viewBox="0 0 278.000000 123.000000"
 preserveAspectRatio="xMidYMid meet">
<metadata>
Created by potrace 1.16, written by Peter Selinger 2001-2019
</metadata>
<g transform="translate(0.000000,123.000000) scale(0.100000,-0.100000)"
fill="#000000" stroke="none">
<path d="M300 780 l0 -153 118 7 c135 8 301 31 365 50 39 12 53 11 116 -5 97
-25 213 -39 344 -42 l108 -2 2 149 2 149 -135 -6 c-143 -7 -223 -17 -332 -43
-51 -12 -75 -13 -100 -5 -67 21 -217 42 -350 48 l-138 6 0 -153z m250 125 c68
-6 186 -27 233 -41 15 -5 12 -9 -15 -28 -55 -36 -48 -84 18 -122 16 -10 12
-13 -36 -23 -86 -19 -259 -41 -326 -41 l-61 0 24 48 c33 63 28 135 -11 187
l-28 37 63 -6 c35 -3 98 -8 139 -11z m737 -11 c-49 -49 -53 -154 -7 -216 l21
-28 -56 0 c-151 0 -384 42 -457 83 -109 60 -10 126 239 162 97 13 134 17 252
23 l34 2 -26 -26z"/>
<path d="M1427 783 l2 -148 108 2 c118 3 295 25 368 47 40 13 53 13 93 0 65
-19 225 -41 360 -50 l112 -7 0 152 0 151 -75 0 c-104 0 -253 -17 -356 -41 -81
-19 -91 -19 -145 -5 -87 22 -283 46 -382 46 l-87 0 2 -147z m188 127 c135 -11
292 -38 300 -51 3 -4 -8 -15 -25 -24 -55 -29 -50 -77 13 -115 l27 -17 -77 -16
c-94 -20 -237 -37 -316 -37 l-58 0 21 28 c44 59 43 152 -1 214 -11 15 -17 28
-12 28 4 0 62 -5 128 -10z m797 -12 c-48 -52 -55 -129 -18 -201 l23 -47 -58 0
c-32 0 -109 7 -171 15 -511 67 -378 224 216 254 l29 1 -21 -22z"/>
<path d="M300 451 l0 -151 80 0 c109 0 257 17 363 42 84 19 92 19 145 4 81
-22 278 -46 380 -46 l87 0 -2 147 -2 148 -108 -2 c-131 -3 -247 -17 -344 -42
-63 -16 -77 -17 -116 -5 -64 19 -230 42 -365 50 l-118 7 0 -152z m290 114 c58
-7 130 -19 160 -26 48 -10 52 -13 36 -23 -66 -38 -73 -86 -18 -122 38 -26 39
-25 -73 -48 -66 -13 -93 -17 -275 -32 l-75 -6 22 24 c49 52 56 129 19 201
l-23 47 61 0 c33 0 108 -7 166 -15z m690 -13 c-44 -59 -43 -152 1 -213 l20
-28 -83 5 c-293 19 -494 78 -474 140 18 59 254 119 484 123 l73 1 -21 -28z"/>
</g>
</svg>
