<?xml version="1.0" standalone="no"?>
<!DOCTYPE svg PUBLIC "-//W3C//DTD SVG 20010904//EN"
 "http://www.w3.org/TR/2001/REC-SVG-20010904/DTD/svg10.dtd">
<svg version="1.0" xmlns="http://www.w3.org/2000/svg"
 width="233.000000pt" height="189.000000pt" viewBox="0 0 233.000000 189.000000"
 preserveAspectRatio="xMidYMid meet">
<metadata>
Created by potrace 1.16, written by Peter Selinger 2001-2019
</metadata>
<g transform="translate(0.000000,189.000000) scale(0.100000,-0.100000)"
fill="#000000" stroke="none">
<path d="M300 1300 l0 -290 390 0 390 0 0 290 0 290 -390 0 -390 0 0 -290z
m760 0 l0 -280 -312 2 -313 3 -3 265 c-1 146 0 270 3 277 3 10 74 13 315 13
l310 0 0 -280z"/>
<path d="M1250 1300 l0 -290 383 2 382 3 -312 2 -313 3 0 280 0 280 313 3 312
2 -382 3 -383 2 0 -290z"/>
<path d="M300 590 l0 -290 390 0 390 0 0 290 0 290 -390 0 -390 0 0 -290z
m760 0 l0 -280 -312 2 -313 3 -3 265 c-1 146 0 270 3 277 3 10 74 13 315 13
l310 0 0 -280z"/>
</g>
</svg>
