<?xml version="1.0" standalone="no"?>
<!DOCTYPE svg PUBLIC "-//W3C//DTD SVG 20010904//EN"
 "http://www.w3.org/TR/2001/REC-SVG-20010904/DTD/svg10.dtd">
<svg version="1.0" xmlns="http://www.w3.org/2000/svg"
 width="118.000000pt" height="144.000000pt" viewBox="0 0 118.000000 144.000000"
 preserveAspectRatio="xMidYMid meet">
<metadata>
Created by potrace 1.16, written by Peter Selinger 2001-2019
</metadata>
<g transform="translate(0.000000,144.000000) scale(0.100000,-0.100000)"
fill="#000000" stroke="none">
<path d="M464 1111 c-94 -45 -164 -143 -164 -233 l0 -28 108 0 107 0 -50 -24
c-27 -13 -65 -39 -84 -57 -41 -41 -81 -122 -81 -166 l0 -32 103 -3 102 -3 -36
-16 c-81 -37 -152 -126 -165 -206 l-7 -43 293 0 293 0 -7 41 c-13 84 -81 170
-165 207 l-36 17 103 3 102 3 0 32 c0 44 -40 125 -81 166 -19 18 -56 44 -84
57 l-50 24 109 0 109 0 -6 49 c-22 186 -236 296 -413 212z m238 -9 c81 -36
134 -97 159 -185 7 -25 6 -28 -9 -21 -152 66 -371 71 -493 11 l-46 -22 7 31
c37 164 226 256 382 186z m8 -286 c42 -22 107 -82 125 -116 7 -14 17 -42 23
-62 l10 -38 -36 19 c-56 28 -132 41 -242 41 -110 0 -186 -13 -242 -41 l-36
-19 10 38 c25 90 95 163 187 193 42 14 162 4 201 -15z m-30 -272 c72 -21 153
-101 173 -170 8 -27 13 -50 12 -52 -2 -2 -14 4 -28 12 -88 58 -406 58 -494 0
-14 -8 -26 -14 -28 -12 -1 2 4 25 12 52 20 67 102 149 169 170 64 19 119 20
184 0z"/>
</g>
</svg>
