<?xml version="1.0" standalone="no"?>
<!DOCTYPE svg PUBLIC "-//W3C//DTD SVG 20010904//EN"
 "http://www.w3.org/TR/2001/REC-SVG-20010904/DTD/svg10.dtd">
<svg version="1.0" xmlns="http://www.w3.org/2000/svg"
 width="118.000000pt" height="144.000000pt" viewBox="0 0 118.000000 144.000000"
 preserveAspectRatio="xMidYMid meet">
<metadata>
Created by potrace 1.16, written by Peter Selinger 2001-2019
</metadata>
<g transform="translate(0.000000,144.000000) scale(0.100000,-0.100000)"
fill="#000000" stroke="none">
<path d="M300 1107 c0 -49 55 -151 99 -187 21 -16 57 -38 80 -47 l42 -18 -111
3 -110 4 0 -30 c0 -80 61 -175 144 -223 l51 -30 -98 3 -97 3 0 -26 c0 -45 30
-115 67 -159 113 -132 333 -132 446 0 37 44 67 114 67 159 l0 26 -97 -3 -98
-3 51 30 c85 50 144 141 144 223 l0 28 -109 -3 -109 -2 43 21 c24 11 59 32 78
47 42 32 97 136 97 184 l0 33 -290 0 -290 0 0 -33z m147 -52 c126 -27 326 -11
389 30 22 14 24 14 24 -2 -1 -33 -37 -99 -74 -136 -54 -51 -100 -71 -184 -75
-66 -4 -79 -1 -136 27 -66 32 -105 73 -132 136 -23 56 -20 66 15 49 16 -8 60
-21 98 -29z m-17 -279 c121 -29 310 -18 393 23 43 21 47 14 22 -46 -67 -161
-266 -218 -412 -120 -51 34 -113 124 -113 164 0 22 1 23 23 9 12 -8 51 -22 87
-30z m8 -275 c72 -15 256 -14 317 3 28 7 64 20 82 29 l32 17 -8 -28 c-25 -85
-79 -149 -156 -183 -159 -69 -337 14 -385 181 l-9 30 37 -19 c20 -10 61 -24
90 -30z"/>
</g>
</svg>
