<?xml version="1.0" standalone="no"?>
<!DOCTYPE svg PUBLIC "-//W3C//DTD SVG 20010904//EN"
 "http://www.w3.org/TR/2001/REC-SVG-20010904/DTD/svg10.dtd">
<svg version="1.0" xmlns="http://www.w3.org/2000/svg"
 width="185.000000pt" height="180.000000pt" viewBox="0 0 185.000000 180.000000"
 preserveAspectRatio="xMidYMid meet">
<metadata>
Created by potrace 1.16, written by Peter Selinger 2001-2019
</metadata>
<g transform="translate(0.000000,180.000000) scale(0.100000,-0.100000)"
fill="#000000" stroke="none">
<path d="M390 1384 l0 -116 -45 4 c-44 3 -45 2 -45 -25 0 -28 1 -28 45 -21
l45 6 0 -36 0 -36 -45 0 c-42 0 -45 -2 -45 -26 0 -24 2 -25 45 -18 l45 6 0
-102 0 -103 86 7 c219 18 412 110 459 219 13 29 14 22 15 -97 l0 -129 86 7
c179 15 333 73 415 157 26 27 59 51 73 55 31 7 35 24 6 24 -17 0 -20 7 -20 41
0 32 4 42 20 46 28 7 25 23 -5 23 -14 0 -25 4 -25 9 0 20 -85 102 -133 129
-95 54 -245 92 -359 92 l-58 0 0 -127 c-1 -123 -1 -127 -16 -93 -19 43 -46 73
-101 111 -86 59 -261 109 -384 109 l-59 0 0 -116z m235 75 c203 -49 336 -167
309 -274 l-6 -26 -99 7 -99 7 0 -26 c0 -25 1 -25 58 -21 31 3 72 7 90 9 17 2
32 0 32 -4 0 -20 -82 -86 -145 -116 -77 -38 -155 -61 -245 -71 l-59 -7 39 42
c112 117 104 375 -15 479 l-35 32 47 -6 c27 -3 84 -14 128 -25z m564 0 c103
-24 209 -78 258 -133 l38 -41 -63 -3 c-59 -3 -63 -5 -60 -25 3 -21 7 -22 71
-18 66 3 67 3 67 -22 0 -49 -6 -52 -76 -49 -64 4 -66 3 -62 -20 3 -21 7 -23
56 -20 51 4 53 3 43 -15 -36 -69 -222 -151 -383 -169 l-62 -7 36 31 c19 18 46
56 59 84 20 45 24 69 24 158 0 121 -19 177 -82 242 l-36 36 44 -5 c24 -3 82
-14 128 -24z m-712 -215 c-3 -3 -12 -4 -19 -1 -8 3 -5 6 6 6 11 1 17 -2 13 -5z
m0 -110 c-3 -3 -12 -4 -19 -1 -8 3 -5 6 6 6 11 1 17 -2 13 -5z"/>
<path d="M730 1258 c0 -30 1 -30 148 -12 44 5 59 24 20 25 -13 0 -56 4 -95 8
l-73 7 0 -28z"/>
<path d="M390 770 l0 -112 -45 6 c-43 7 -45 6 -45 -18 0 -24 3 -26 45 -26 l45
0 0 -36 0 -36 -45 6 c-44 7 -45 6 -45 -19 0 -26 2 -27 45 -23 l45 3 0 -109 0
-109 153 6 c327 14 605 86 719 186 20 17 43 31 51 31 9 0 19 5 22 10 3 6 0 10
-8 10 -20 0 -18 81 3 97 13 11 13 12 -1 13 -9 0 -37 16 -63 36 -137 105 -401
172 -743 190 l-133 7 0 -113z m325 75 c232 -27 438 -89 522 -157 l38 -31 -68
6 c-60 6 -68 4 -63 -9 3 -9 6 -20 6 -26 0 -6 28 -9 73 -6 l72 3 3 -39 3 -39
-80 6 c-82 5 -93 1 -72 -32 6 -10 24 -12 65 -9 55 5 56 4 39 -14 -23 -25 -141
-81 -227 -107 -124 -38 -440 -83 -570 -81 -19 1 -20 1 -3 11 29 17 66 85 83
152 32 121 1 292 -63 359 l-27 28 70 0 c38 0 128 -7 199 -15z m-232 -202 c-7
-2 -19 -2 -25 0 -7 3 -2 5 12 5 14 0 19 -2 13 -5z m0 -110 c-7 -2 -21 -2 -30
0 -10 3 -4 5 12 5 17 0 24 -2 18 -5z"/>
</g>
</svg>
