<?xml version="1.0" standalone="no"?>
<!DOCTYPE svg PUBLIC "-//W3C//DTD SVG 20010904//EN"
 "http://www.w3.org/TR/2001/REC-SVG-20010904/DTD/svg10.dtd">
<svg version="1.0" xmlns="http://www.w3.org/2000/svg"
 width="176.000000pt" height="175.000000pt" viewBox="0 0 176.000000 175.000000"
 preserveAspectRatio="xMidYMid meet">
<metadata>
Created by potrace 1.16, written by Peter Selinger 2001-2019
</metadata>
<g transform="translate(0.000000,175.000000) scale(0.100000,-0.100000)"
fill="#000000" stroke="none">
<path d="M465 1426 c-180 -85 -222 -318 -83 -458 108 -107 289 -107 398 2 52
52 74 104 78 188 4 66 1 79 -27 136 -49 101 -138 155 -251 156 -48 0 -78 -6
-115 -24z"/>
<path d="M1064 1426 c-58 -27 -114 -81 -140 -134 -23 -47 -30 -158 -14 -209
55 -167 236 -242 396 -163 213 105 204 410 -16 509 -64 29 -159 28 -226 -3z"/>
<path d="M539 859 c-227 -34 -320 -316 -158 -478 134 -134 370 -95 455 75 27
55 27 193 -1 249 -54 110 -175 172 -296 154z"/>
</g>
</svg>
