<?xml version="1.0" standalone="no"?>
<!DOCTYPE svg PUBLIC "-//W3C//DTD SVG 20010904//EN"
 "http://www.w3.org/TR/2001/REC-SVG-20010904/DTD/svg10.dtd">
<svg version="1.0" xmlns="http://www.w3.org/2000/svg"
 width="131.000000pt" height="236.000000pt" viewBox="0 0 131.000000 236.000000"
 preserveAspectRatio="xMidYMid meet">
<metadata>
Created by potrace 1.16, written by Peter Selinger 2001-2019
</metadata>
<g transform="translate(0.000000,236.000000) scale(0.100000,-0.100000)"
fill="#000000" stroke="none">
<path d="M535 2036 c-61 -28 -119 -86 -142 -143 -18 -41 -19 -42 -55 -36 -36
5 -38 4 -38 -22 0 -25 3 -27 35 -23 35 4 35 4 35 -34 l0 -39 -35 7 c-33 6 -35
5 -35 -21 0 -26 2 -27 39 -23 35 3 40 1 44 -22 9 -40 64 -108 114 -140 94 -60
211 -60 305 -1 44 28 104 105 114 148 5 19 13 23 44 23 41 0 61 14 34 24 -9 3
-27 6 -40 6 -21 0 -24 4 -24 40 0 39 1 40 34 40 38 0 55 14 30 24 -9 3 -28 6
-44 6 -24 0 -30 6 -40 34 -16 50 -83 121 -142 150 -70 35 -162 36 -233 2z
m-52 -203 c-7 -2 -21 -2 -30 0 -10 3 -4 5 12 5 17 0 24 -2 18 -5z m-66 -9 c-3
-3 -12 -4 -19 -1 -8 3 -5 6 6 6 11 1 17 -2 13 -5z m66 -101 c-7 -2 -21 -2 -30
0 -10 3 -4 5 12 5 17 0 24 -2 18 -5z"/>
<path d="M563 1452 c-28 -10 -68 -31 -88 -46 -40 -31 -95 -110 -95 -137 0 -14
-6 -15 -40 -9 -39 7 -40 7 -40 -22 0 -26 2 -28 28 -22 53 12 67 14 55 8 -7 -3
-13 -23 -13 -44 l0 -38 -35 8 c-34 8 -35 7 -35 -21 0 -30 8 -32 68 -13 6 2 12
-3 12 -12 0 -25 36 -87 71 -122 73 -74 188 -101 290 -67 64 22 150 102 168
158 9 27 18 37 34 37 33 0 67 11 67 21 0 5 -11 9 -24 9 -43 0 -56 10 -56 45 0
31 3 34 40 40 43 7 55 25 18 25 -46 0 -65 12 -85 54 -31 64 -69 102 -126 130
-72 35 -148 41 -214 18z m-88 -212 c3 -6 -4 -10 -17 -10 -18 0 -20 2 -8 10 19
12 18 12 25 0z m5 -116 c0 -2 -9 -4 -21 -4 -11 0 -18 4 -14 10 5 8 35 3 35 -6z"/>
<path d="M570 841 c-46 -14 -85 -39 -121 -78 -44 -45 -73 -99 -65 -120 4 -10
1 -13 -12 -9 -67 20 -72 19 -72 -9 0 -25 3 -27 35 -23 34 4 35 3 35 -33 0 -21
3 -39 8 -42 4 -2 0 -2 -8 0 -63 18 -70 16 -70 -12 0 -26 2 -27 40 -23 31 3 40
0 40 -12 0 -20 35 -77 69 -113 49 -54 90 -67 204 -67 96 0 106 2 149 29 48 30
72 59 107 129 20 39 24 42 61 42 52 0 52 18 0 26 -39 6 -40 8 -40 45 0 38 1
39 34 39 19 0 37 4 40 9 6 10 -26 21 -61 21 -16 0 -25 10 -34 37 -17 54 -103
136 -163 156 -51 18 -132 21 -176 8z m327 -207 c-3 -3 -12 -4 -19 -1 -8 3 -5
6 6 6 11 1 17 -2 13 -5z m-420 -10 c-3 -3 -12 -4 -19 -1 -8 3 -5 6 6 6 11 1
17 -2 13 -5z m426 -101 c-7 -2 -19 -2 -25 0 -7 3 -2 5 12 5 14 0 19 -2 13 -5z
m-420 -10 c-7 -2 -19 -2 -25 0 -7 3 -2 5 12 5 14 0 19 -2 13 -5z m374 -19 c-3
-3 -12 -4 -19 -1 -8 3 -5 6 6 6 11 1 17 -2 13 -5z"/>
</g>
</svg>
