<?xml version="1.0" standalone="no"?>
<!DOCTYPE svg PUBLIC "-//W3C//DTD SVG 20010904//EN"
 "http://www.w3.org/TR/2001/REC-SVG-20010904/DTD/svg10.dtd">
<svg version="1.0" xmlns="http://www.w3.org/2000/svg"
 width="140.000000pt" height="169.000000pt" viewBox="0 0 140.000000 169.000000"
 preserveAspectRatio="xMidYMid meet">
<metadata>
Created by potrace 1.16, written by Peter Selinger 2001-2019
</metadata>
<g transform="translate(0.000000,169.000000) scale(0.100000,-0.100000)"
fill="#000000" stroke="none">
<path d="M1027 1371 c-3 -14 2 -21 18 -25 13 -3 31 -9 42 -12 11 -4 5 5 -15
25 -39 37 -38 36 -45 12z"/>
<path d="M430 1242 c0 -94 96 -209 198 -238 175 -51 355 58 378 230 l7 47
-292 -1 -291 -2 0 -36z m138 -51 c122 -26 336 -7 400 35 20 13 22 13 22 -3 -1
-33 -37 -100 -75 -138 -54 -54 -116 -79 -195 -79 -135 1 -233 76 -275 212 l-7
23 39 -19 c21 -11 62 -25 91 -31z"/>
<path d="M726 1094 c-8 -21 -9 -20 39 -28 l40 -7 -30 25 c-36 30 -41 31 -49
10z"/>
<path d="M310 1240 c-14 -26 -15 -26 35 -33 37 -6 39 -5 20 9 -11 8 -25 21
-32 30 -10 14 -13 13 -23 -6z"/>
<path d="M476 1023 c-8 -19 -9 -17 29 -31 28 -10 27 -10 -24 -11 l-54 -1 5
-50 c17 -177 243 -292 412 -210 87 42 166 154 166 235 l0 25 -228 0 -227 0
-37 30 c-31 25 -37 27 -42 13z m7 -102 c61 -31 168 -45 287 -36 58 4 126 8
152 8 35 0 45 3 38 11 -6 8 -2 16 11 25 20 12 21 11 14 -21 -24 -112 -144
-200 -271 -199 -131 1 -231 78 -269 209 -8 27 -8 27 38 3z"/>
<path d="M726 804 c-8 -22 -9 -21 18 -28 13 -3 32 -9 43 -13 10 -4 4 7 -16 25
-39 37 -37 37 -45 16z"/>
<path d="M306 944 c-8 -22 -9 -21 18 -28 13 -3 32 -9 43 -12 11 -4 5 5 -15 25
-39 36 -38 36 -46 15z"/>
<path d="M476 733 c-12 -13 -5 -33 12 -33 9 0 24 -5 32 -11 11 -7 1 -9 -38 -7
l-52 3 0 -35 c0 -53 41 -131 94 -177 172 -151 452 -52 482 169 l6 43 -227 -3
-228 -3 -37 30 c-21 17 -40 27 -44 24z m81 -129 c88 -20 418 -17 401 4 -8 9
-6 16 8 27 26 19 29 2 9 -47 -44 -110 -139 -173 -260 -172 -56 0 -80 6 -121
26 -74 39 -130 108 -148 182 l-7 29 25 -17 c14 -9 56 -23 93 -32z"/>
<path d="M726 504 c-8 -21 -9 -20 39 -28 l40 -7 -30 25 c-36 30 -41 31 -49 10z"/>
<path d="M310 650 c-14 -26 -15 -26 35 -33 37 -6 39 -5 20 9 -11 8 -25 21 -32
30 -10 14 -13 13 -23 -6z"/>
<path d="M476 433 c-4 -9 -5 -17 -4 -18 7 -5 72 -25 74 -22 2 1 -12 15 -31 30
-28 23 -34 24 -39 10z"/>
<path d="M903 335 c-7 -20 -5 -21 37 -30 l35 -7 -28 26 c-33 30 -36 31 -44 11z"/>
</g>
</svg>
