<?xml version="1.0" standalone="no"?>
<!DOCTYPE svg PUBLIC "-//W3C//DTD SVG 20010904//EN"
 "http://www.w3.org/TR/2001/REC-SVG-20010904/DTD/svg10.dtd">
<svg version="1.0" xmlns="http://www.w3.org/2000/svg"
 width="268.000000pt" height="186.000000pt" viewBox="0 0 268.000000 186.000000"
 preserveAspectRatio="xMidYMid meet">
<metadata>
Created by potrace 1.16, written by Peter Selinger 2001-2019
</metadata>
<g transform="translate(0.000000,186.000000) scale(0.100000,-0.100000)"
fill="#000000" stroke="none">
<path d="M360 1449 l0 -111 -30 4 c-27 4 -30 2 -30 -25 0 -26 2 -28 29 -22 27
6 29 4 33 -33 l3 -39 -32 8 c-32 7 -33 6 -33 -23 0 -28 2 -29 30 -23 l30 7 0
-108 0 -107 153 6 c166 7 354 35 487 74 270 78 361 205 230 320 -111 98 -471
182 -777 183 l-93 0 0 -111z m325 80 c260 -27 479 -101 558 -188 49 -54 49
-88 0 -142 -90 -100 -333 -171 -672 -198 -74 -6 -139 -11 -145 -11 -5 0 2 12
17 28 47 49 70 118 75 220 6 116 -16 204 -65 268 l-33 44 82 -5 c46 -3 128
-10 183 -16z m-205 -215 c0 -2 -7 -4 -15 -4 -8 0 -15 4 -15 10 0 5 7 7 15 4 8
-4 15 -8 15 -10z m10 -110 c0 -2 -9 -4 -20 -4 -11 0 -20 4 -20 9 0 5 9 7 20 4
11 -3 20 -7 20 -9z"/>
<path d="M705 1390 c-60 -40 -81 -118 -49 -186 45 -94 191 -99 250 -8 23 35
23 113 0 148 -41 64 -140 86 -201 46z"/>
<path d="M1010 1328 c0 -30 1 -30 148 -12 44 5 59 24 20 25 -13 0 -56 4 -95 8
l-73 7 0 -28z"/>
<path d="M1010 1219 c0 -27 0 -27 63 -23 92 7 127 14 127 24 0 6 -12 10 -27
11 -16 0 -58 3 -95 8 l-68 7 0 -27z"/>
<path d="M1450 1450 l0 -112 -30 4 c-27 4 -30 2 -30 -23 0 -26 2 -28 30 -22
29 5 30 4 30 -32 0 -36 -1 -37 -30 -33 -27 4 -30 2 -30 -25 0 -27 2 -28 30
-22 l30 7 0 -108 0 -107 153 6 c441 19 777 143 777 287 0 145 -337 269 -777
287 l-153 6 0 -113z m392 69 c233 -33 414 -97 488 -174 149 -154 -185 -316
-724 -349 l-98 -7 27 33 c47 56 67 115 73 216 6 115 -15 204 -64 268 l-33 43
97 -5 c53 -3 159 -14 234 -25z m-272 -205 c0 -2 -7 -4 -15 -4 -8 0 -15 4 -15
10 0 5 7 7 15 4 8 -4 15 -8 15 -10z m-3 -110 c-3 -3 -12 -4 -19 -1 -8 3 -5 6
6 6 11 1 17 -2 13 -5z"/>
<path d="M1792 1390 c-58 -35 -78 -118 -45 -187 46 -97 199 -98 249 -1 34 66
12 151 -49 188 -42 26 -112 26 -155 0z"/>
<path d="M2096 1353 c-2 -2 -1 -14 1 -28 5 -26 10 -26 151 -9 47 6 58 24 15
25 -16 0 -59 3 -96 8 -37 4 -69 6 -71 4z"/>
<path d="M2097 1216 c5 -23 8 -25 57 -20 104 10 136 15 136 23 0 9 -96 21
-160 21 -34 0 -37 -2 -33 -24z"/>
<path d="M360 770 l0 -112 -30 4 c-27 4 -30 2 -30 -25 0 -27 2 -28 30 -22 29
6 30 5 30 -30 0 -36 -1 -37 -30 -33 -27 4 -30 2 -30 -25 0 -27 2 -28 30 -22
l30 7 0 -106 0 -106 89 0 c175 0 387 29 546 75 278 81 369 210 230 327 -103
87 -409 162 -712 175 l-153 6 0 -113z m211 89 c339 -27 582 -98 672 -198 49
-54 49 -88 0 -142 -98 -108 -347 -177 -743 -204 l-85 -6 27 28 c15 15 37 51
50 78 20 44 23 65 23 175 -1 136 -13 181 -69 248 -16 17 -24 32 -19 32 5 0 70
-5 144 -11z m-94 -225 c-3 -3 -12 -4 -19 -1 -8 3 -5 6 6 6 11 1 17 -2 13 -5z
m0 -110 c-3 -3 -12 -4 -19 -1 -8 3 -5 6 6 6 11 1 17 -2 13 -5z m-74 -11 c-7
-2 -19 -2 -25 0 -7 3 -2 5 12 5 14 0 19 -2 13 -5z"/>
<path d="M705 710 c-118 -77 -64 -260 76 -260 84 0 143 58 143 140 0 55 -21
92 -67 120 -42 26 -113 26 -152 0z"/>
<path d="M1010 648 c0 -30 1 -30 148 -12 47 6 58 24 15 25 -16 0 -58 3 -95 8
l-68 7 0 -28z"/>
<path d="M1010 537 c0 -27 0 -27 63 -21 156 13 165 29 24 40 l-87 7 0 -26z"/>
</g>
</svg>
