<?xml version="1.0" standalone="no"?>
<!DOCTYPE svg PUBLIC "-//W3C//DTD SVG 20010904//EN"
 "http://www.w3.org/TR/2001/REC-SVG-20010904/DTD/svg10.dtd">
<svg version="1.0" xmlns="http://www.w3.org/2000/svg"
 width="125.000000pt" height="148.000000pt" viewBox="0 0 125.000000 148.000000"
 preserveAspectRatio="xMidYMid meet">
<metadata>
Created by potrace 1.16, written by Peter Selinger 2001-2019
</metadata>
<g transform="translate(0.000000,148.000000) scale(0.100000,-0.100000)"
fill="#000000" stroke="none">
<path d="M300 1147 c0 -52 56 -154 103 -188 l40 -29 -71 0 -72 0 0 -34 c0 -19
14 -62 33 -97 24 -48 45 -73 86 -101 l54 -38 -86 0 -87 0 0 -32 c0 -79 82
-187 174 -229 52 -24 169 -25 225 -3 l40 16 90 -51 c50 -28 93 -51 96 -51 15
0 -11 22 -78 66 -39 26 -74 49 -76 51 -3 2 12 20 32 41 20 20 45 58 57 84 21
48 21 48 45 32 14 -9 25 -12 25 -6 0 5 -11 17 -25 26 -14 9 -25 25 -25 36 0
16 -7 20 -32 20 -18 0 -43 8 -56 18 l-23 18 33 35 c27 29 44 56 75 117 1 2 13
-4 27 -13 14 -10 26 -13 26 -7 0 5 -11 17 -25 26 -17 11 -25 26 -25 46 0 29
-1 30 -49 30 -28 0 -52 4 -55 9 -3 4 12 27 34 51 40 43 70 112 70 162 l0 28
-290 0 -290 0 0 -33z m148 -53 c124 -26 326 -10 388 31 32 21 34 19 24 -16
-14 -47 -58 -117 -85 -135 -24 -15 -27 -15 -76 17 -41 26 -52 30 -60 18 -14
-22 -12 -23 39 -50 l47 -24 -122 -3 c-136 -3 -156 3 -213 60 -34 34 -69 100
-70 131 0 16 2 16 31 2 17 -9 61 -23 97 -31z m24 -255 c89 -14 244 -6 317 16
73 22 82 11 44 -57 -17 -29 -42 -61 -56 -72 l-26 -19 -51 33 c-42 27 -53 31
-61 19 -14 -22 -12 -23 39 -48 l47 -24 -35 -13 c-19 -7 -65 -13 -101 -13 -113
-2 -212 62 -255 164 -24 58 -20 66 25 44 21 -10 72 -24 113 -30z m288 -175 c0
-2 -12 -4 -27 -4 -21 0 -24 3 -14 9 13 8 41 5 41 -5z m-231 -99 c85 -7 223 8
283 32 21 8 42 13 45 9 12 -12 -29 -94 -66 -130 l-39 -38 -53 36 c-39 26 -55
32 -61 23 -13 -20 -10 -25 32 -48 22 -13 40 -26 40 -30 0 -9 -82 -29 -123 -29
-96 0 -205 68 -246 153 -35 72 -31 77 45 51 37 -12 101 -25 143 -29z"/>
</g>
</svg>
