<?xml version="1.0" standalone="no"?>
<!DOCTYPE svg PUBLIC "-//W3C//DTD SVG 20010904//EN"
 "http://www.w3.org/TR/2001/REC-SVG-20010904/DTD/svg10.dtd">
<svg version="1.0" xmlns="http://www.w3.org/2000/svg"
 width="142.000000pt" height="234.000000pt" viewBox="0 0 142.000000 234.000000"
 preserveAspectRatio="xMidYMid meet">
<metadata>
Created by potrace 1.16, written by Peter Selinger 2001-2019
</metadata>
<g transform="translate(0.000000,234.000000) scale(0.100000,-0.100000)"
fill="#000000" stroke="none">
<path d="M580 2008 c-77 -39 -122 -94 -146 -175 -58 -198 123 -393 325 -352
261 52 315 390 84 526 -36 21 -62 27 -122 31 -71 3 -81 1 -141 -30z m169 -165
c2 -2 -16 -2 -40 -2 -32 2 -36 3 -15 6 l28 5 -28 31 c-28 31 -28 31 11 -3 22
-19 42 -36 44 -37z m-72 -198 c-1 -1 -24 1 -52 5 -48 7 -49 7 -11 9 l39 1 -24
28 c-15 18 -11 15 13 -7 21 -19 37 -35 35 -36z"/>
<path d="M1045 1970 c-8 -26 -9 -26 40 -35 22 -4 38 -5 35 -3 -3 1 -19 16 -37
31 -31 29 -31 29 -38 7z"/>
<path d="M306 1844 c-8 -22 -9 -21 18 -28 13 -3 32 -9 43 -12 11 -4 5 5 -15
25 -39 36 -38 36 -46 15z"/>
<path d="M1033 1525 c-7 -20 -6 -21 41 -29 l39 -8 -30 26 c-36 30 -42 31 -50
11z"/>
<path d="M604 1434 c-149 -55 -225 -250 -152 -390 109 -209 400 -209 511 0 29
55 31 193 3 246 -26 49 -84 108 -131 133 -52 27 -173 33 -231 11z m73 -379
c-1 -1 -24 1 -52 5 -48 7 -49 7 -11 9 l40 1 -30 33 c-21 23 -18 22 13 -7 24
-22 42 -40 40 -41z"/>
<path d="M306 1254 c-8 -22 -9 -21 17 -27 12 -2 31 -8 42 -12 14 -5 9 2 -13
24 -39 36 -38 36 -46 15z"/>
<path d="M1033 935 c-7 -20 -6 -21 41 -29 l39 -8 -30 26 c-36 30 -42 31 -50
11z"/>
<path d="M647 859 c-161 -39 -258 -198 -213 -352 24 -81 69 -136 146 -175 60
-31 70 -33 141 -30 87 5 144 32 197 93 57 64 67 92 67 185 0 76 -3 91 -30 139
-30 54 -83 102 -140 126 -43 18 -124 25 -168 14z m1 -354 l37 -35 -40 1 c-25
1 -31 3 -16 6 l23 5 -28 29 c-39 41 -20 36 24 -6z"/>
<path d="M306 664 c-8 -21 -9 -21 39 -30 l40 -7 -31 26 c-37 32 -40 32 -48 11z"/>
<path d="M1036 355 c-9 -24 -7 -32 7 -32 7 0 26 -3 42 -7 17 -4 26 -4 20 1 -5
5 -22 19 -36 31 -23 20 -27 21 -33 7z"/>
</g>
</svg>
