<?xml version="1.0" standalone="no"?>
<!DOCTYPE svg PUBLIC "-//W3C//DTD SVG 20010904//EN"
 "http://www.w3.org/TR/2001/REC-SVG-20010904/DTD/svg10.dtd">
<svg version="1.0" xmlns="http://www.w3.org/2000/svg"
 width="117.000000pt" height="90.000000pt" viewBox="0 0 117.000000 90.000000"
 preserveAspectRatio="xMidYMid meet">
<metadata>
Created by potrace 1.16, written by Peter Selinger 2001-2019
</metadata>
<g transform="translate(0.000000,90.000000) scale(0.100000,-0.100000)"
fill="#000000" stroke="none">
<path d="M300 580 l0 -23 282 6 c154 4 283 9 286 12 13 13 -24 16 -287 22
l-281 6 0 -23z"/>
<path d="M300 454 l0 -24 223 5 c421 11 458 30 62 34 -126 1 -242 4 -257 6
-24 3 -28 0 -28 -21z"/>
<path d="M300 320 l0 -23 281 6 c256 5 301 8 288 21 -3 3 -132 8 -287 12
l-282 7 0 -23z"/>
</g>
</svg>
