<?xml version="1.0" standalone="no"?>
<!DOCTYPE svg PUBLIC "-//W3C//DTD SVG 20010904//EN"
 "http://www.w3.org/TR/2001/REC-SVG-20010904/DTD/svg10.dtd">
<svg version="1.0" xmlns="http://www.w3.org/2000/svg"
 width="214.000000pt" height="205.000000pt" viewBox="0 0 214.000000 205.000000"
 preserveAspectRatio="xMidYMid meet">
<metadata>
Created by potrace 1.16, written by Peter Selinger 2001-2019
</metadata>
<g transform="translate(0.000000,205.000000) scale(0.100000,-0.100000)"
fill="#000000" stroke="none">
<path d="M370 1721 c0 -16 4 -41 10 -55 9 -26 9 -26 -35 -26 -38 0 -45 -3 -45
-19 0 -18 6 -19 49 -16 48 4 50 3 86 -40 l36 -45 -85 0 c-68 0 -86 -3 -86 -14
0 -12 24 -16 123 -19 67 -2 150 -9 184 -17 55 -12 69 -11 129 5 79 21 91 23
207 24 51 1 87 5 87 11 0 6 -39 10 -96 10 l-95 0 38 45 c34 40 42 44 83 45 25
0 52 5 60 10 11 7 0 10 -39 10 -50 0 -53 1 -47 23 3 12 9 39 12 60 l7 37 -292
0 -291 0 0 -29z m57 -31 c111 -53 364 -51 472 5 34 17 36 13 21 -31 l-10 -29
-253 3 c-138 2 -253 5 -255 7 -4 3 -21 65 -18 65 1 0 20 -9 43 -20z m463 -87
c0 -4 -17 -24 -37 -45 l-37 -38 -157 0 -158 0 -35 34 c-20 18 -36 38 -36 44 0
7 75 11 230 12 127 0 230 -3 230 -7z m-203 -120 c-20 -2 -52 -2 -70 0 -17 2 0
4 38 4 39 0 53 -2 32 -4z"/>
<path d="M1198 1745 c-3 -3 -2 -25 3 -48 4 -23 8 -45 9 -49 0 -4 -19 -8 -42
-10 -30 -2 -43 -8 -43 -17 0 -11 12 -15 49 -14 45 1 51 -2 87 -40 l38 -42 -90
-3 c-65 -2 -89 -6 -86 -15 2 -8 44 -14 128 -18 68 -3 150 -12 181 -19 52 -13
66 -12 130 4 99 24 102 24 196 25 45 1 82 5 82 11 0 5 -38 11 -84 12 l-84 3
37 42 c31 36 42 42 79 45 58 3 65 18 8 18 -43 0 -45 1 -37 23 4 12 11 39 15
60 l7 37 -289 0 c-159 0 -291 -2 -294 -5z m63 -58 c112 -51 364 -47 469 8 31
16 32 16 26 -4 -19 -68 -15 -64 -63 -57 -25 3 -139 6 -253 6 l-208 0 -11 31
c-13 38 -13 42 -3 37 4 -2 23 -11 43 -21z m450 -96 c-6 -10 -24 -31 -42 -45
-30 -26 -33 -26 -184 -26 -151 0 -154 0 -184 26 -18 14 -36 34 -41 44 -10 18
1 19 226 20 229 1 235 0 225 -19z m-194 -108 c-20 -2 -52 -2 -70 0 -17 2 0 4
38 4 39 0 53 -2 32 -4z"/>
<path d="M560 1336 c-22 -9 -76 -15 -147 -15 -106 -1 -113 -2 -113 -21 0 -18
7 -20 82 -20 l82 0 -35 -36 c-31 -32 -38 -35 -82 -32 -39 2 -47 0 -47 -14 0
-15 9 -18 45 -18 44 0 44 0 35 -26 -6 -14 -10 -40 -10 -57 l0 -32 287 2 c226
2 289 5 291 15 1 7 -4 34 -12 61 l-14 47 54 0 c30 0 54 5 54 10 0 6 -26 10
-59 10 -57 0 -60 1 -91 40 l-32 40 91 0 c54 0 91 4 91 10 0 6 -43 10 -110 10
-84 0 -119 4 -143 17 -43 22 -171 27 -217 9z m187 -16 c17 -11 17 -11 0 -6
-10 3 -55 7 -100 7 -62 1 -75 3 -52 10 39 10 129 4 152 -11z m110 -67 l37 -38
-228 -3 c-126 -1 -231 0 -234 3 -3 3 7 18 23 35 31 32 41 33 267 38 l97 2 38
-37z m61 -102 c16 -52 16 -54 -13 -35 -41 27 -133 44 -241 44 -116 0 -193 -12
-245 -39 l-36 -19 9 39 10 39 197 3 c108 1 221 3 252 5 l56 2 11 -39z"/>
<path d="M1395 1337 c-16 -6 -84 -13 -150 -16 -97 -5 -120 -9 -120 -21 0 -12
18 -16 83 -20 l83 -5 -34 -33 c-31 -30 -40 -33 -83 -31 -38 3 -49 0 -49 -11 0
-11 14 -16 48 -18 41 -3 46 -5 38 -20 -4 -9 -11 -34 -14 -54 l-6 -37 291 -3
c159 -2 291 -1 293 2 4 7 -10 79 -20 103 -6 15 -1 17 39 17 25 0 46 5 46 10 0
6 -25 10 -55 10 -30 0 -55 4 -55 8 0 5 -14 23 -31 40 l-31 32 86 0 c51 0 86 4
86 10 0 6 -39 10 -97 10 -74 0 -111 5 -151 20 -57 22 -148 25 -197 7z m184
-18 c13 -8 11 -9 -9 -5 -14 3 -59 6 -100 7 -58 1 -68 3 -45 10 37 9 132 2 154
-12z m106 -69 l39 -40 -232 0 c-128 0 -232 4 -232 8 0 5 12 20 28 35 29 28 50
31 257 35 l101 2 39 -40z m53 -77 c5 -10 12 -31 16 -46 6 -27 6 -27 -16 -13
-94 62 -412 61 -506 0 -26 -17 -26 -21 -7 43 6 22 9 23 203 26 108 1 220 3
249 5 41 2 54 -2 61 -15z"/>
<path d="M374 926 l6 -59 -40 6 c-35 4 -40 2 -40 -14 0 -16 8 -19 53 -20 48
-1 55 -4 86 -40 l33 -39 -86 0 c-81 0 -86 -1 -86 -21 0 -20 3 -21 108 -15 84
5 118 3 151 -9 54 -19 143 -19 196 0 25 9 85 15 157 16 65 0 118 5 118 10 0 5
-43 9 -95 9 -57 0 -95 4 -95 10 0 6 4 10 9 10 5 0 22 18 38 40 27 38 30 40 86
40 31 0 57 5 57 10 0 6 -23 10 -51 10 l-51 0 8 33 c4 17 8 42 8 55 l1 22 -289
3 -288 2 6 -59z m113 -21 c116 -30 352 -14 418 29 28 18 30 13 14 -33 l-11
-31 -248 0 c-160 0 -251 4 -255 10 -4 6 -11 24 -15 41 -9 31 -9 31 15 15 14
-9 50 -23 82 -31z m403 -65 c0 -5 -16 -25 -35 -45 l-36 -35 -161 0 -162 0 -33
32 c-18 18 -33 35 -33 40 0 4 80 9 178 11 97 1 201 4 230 5 28 1 52 -2 52 -8z
m-170 -120 c-33 -11 -90 -11 -115 0 -13 6 7 8 60 8 55 0 72 -3 55 -8z"/>
<path d="M575 573 c-28 -9 -100 -18 -162 -20 -90 -3 -113 -7 -113 -19 0 -11
17 -14 81 -14 l80 0 -27 -35 c-24 -32 -30 -35 -81 -35 -47 0 -54 -3 -51 -17 3
-14 13 -18 46 -18 34 0 41 -3 36 -15 -3 -8 -9 -34 -11 -57 l-6 -43 292 0 291
0 0 23 c-1 12 -7 39 -14 60 l-14 37 42 2 c22 0 47 1 54 1 6 -1 12 3 12 8 0 5
-26 9 -57 9 -55 0 -60 2 -90 40 -33 39 -39 51 -25 49 4 -1 45 -1 92 1 116 2
76 18 -50 20 -66 0 -112 7 -150 20 -66 23 -108 24 -175 3z m165 -13 c16 -5
-13 -8 -80 -8 -67 0 -98 3 -85 8 25 11 132 11 165 0z m117 -72 c18 -18 33 -34
33 -38 0 -5 -396 -2 -445 3 -18 2 -17 5 12 35 l31 32 168 0 168 0 33 -32z m62
-99 c16 -47 14 -51 -20 -34 -123 64 -378 58 -511 -13 -7 -4 6 50 17 68 4 6 95
10 255 10 l248 0 11 -31z"/>
</g>
</svg>
