<?xml version="1.0" standalone="no"?>
<!DOCTYPE svg PUBLIC "-//W3C//DTD SVG 20010904//EN"
 "http://www.w3.org/TR/2001/REC-SVG-20010904/DTD/svg10.dtd">
<svg version="1.0" xmlns="http://www.w3.org/2000/svg"
 width="192.000000pt" height="246.000000pt" viewBox="0 0 192.000000 246.000000"
 preserveAspectRatio="xMidYMid meet">
<metadata>
Created by potrace 1.16, written by Peter Selinger 2001-2019
</metadata>
<g transform="translate(0.000000,246.000000) scale(0.100000,-0.100000)"
fill="#000000" stroke="none">
<path d="M300 1725 l0 -435 288 2 287 3 3 433 2 432 -290 0 -290 0 0 -435z
m568 158 l3 -143 -281 0 -280 0 0 138 c0 76 3 142 7 145 4 4 128 6 277 5 l271
-3 3 -142z m-3 -308 l0 -140 -277 -3 -278 -2 0 145 0 145 278 -2 277 -3 0
-140z"/>
<path d="M1042 1728 l3 -433 288 -3 287 -2 0 435 0 435 -290 0 -290 0 2 -432z
m566 155 l3 -143 -281 0 -280 0 0 138 c0 76 3 142 7 145 4 4 128 6 277 5 l271
-3 3 -142z m2 -308 l0 -145 -277 2 -278 3 -3 129 c-1 72 0 136 2 143 4 10 64
13 281 13 l275 0 0 -145z"/>
<path d="M300 745 l0 -425 290 0 290 0 -2 423 -3 422 -287 3 -288 2 0 -425z
m565 140 l0 -140 -277 -3 -278 -2 0 145 0 145 278 -2 277 -3 0 -140z m0 -305
l0 -145 -275 0 -275 0 -3 134 c-1 74 0 141 2 148 4 11 60 13 278 11 l273 -3 0
-145z"/>
</g>
</svg>
