<?xml version="1.0" standalone="no"?>
<!DOCTYPE svg PUBLIC "-//W3C//DTD SVG 20010904//EN"
 "http://www.w3.org/TR/2001/REC-SVG-20010904/DTD/svg10.dtd">
<svg version="1.0" xmlns="http://www.w3.org/2000/svg"
 width="106.000000pt" height="152.000000pt" viewBox="0 0 106.000000 152.000000"
 preserveAspectRatio="xMidYMid meet">
<metadata>
Created by potrace 1.16, written by Peter Selinger 2001-2019
</metadata>
<g transform="translate(0.000000,152.000000) scale(0.100000,-0.100000)"
fill="#000000" stroke="none">
<path d="M722 1171 l5 -48 -53 24 c-67 30 -164 51 -281 59 l-93 7 0 -152 0
-151 74 0 c97 0 239 25 301 54 28 12 56 21 63 18 6 -2 12 0 13 5 0 4 3 59 5
121 5 110 5 112 -17 112 -20 0 -21 -4 -17 -49z m-149 -6 c32 -8 78 -24 100
-34 l42 -19 -152 6 c-138 5 -153 3 -153 -11 0 -15 18 -17 160 -17 l160 0 0
-36 0 -37 -46 7 c-26 3 -100 6 -164 6 l-118 0 -4 53 c-3 33 -13 65 -25 83
l-21 30 81 -8 c44 -4 107 -15 140 -23z m147 -161 c0 -11 -89 -44 -156 -58 -38
-8 -102 -17 -143 -21 l-74 -7 21 30 c12 16 22 35 22 41 0 7 53 12 153 14 83 1
158 4 165 5 6 1 12 -1 12 -4z"/>
<path d="M723 860 l5 -50 -36 19 c-74 37 -240 71 -348 71 l-44 0 0 -150 0
-150 79 0 c94 0 203 20 286 51 33 13 66 22 73 21 14 -3 15 5 17 141 1 89 0 97
-18 97 -17 0 -19 -6 -14 -50z m-134 -10 c125 -35 119 -40 -44 -39 l-150 2 -23
35 -23 35 83 -6 c46 -4 116 -16 157 -27z m141 -104 l0 -44 -160 5 c-144 5
-160 4 -160 -11 0 -14 17 -16 143 -17 l142 0 -49 -20 c-50 -20 -211 -49 -275
-49 -30 0 -33 2 -18 13 23 17 47 79 47 121 l0 35 113 4 c61 1 136 4 165 5 l52
2 0 -44z"/>
<path d="M721 546 c2 -25 2 -46 -2 -46 -3 0 -23 8 -45 19 -57 27 -176 52 -281
58 l-93 6 0 -142 0 -141 28 0 c23 0 33 8 48 35 l19 35 152 0 c83 0 154 4 157
9 6 9 -121 21 -231 21 l-73 0 0 35 0 35 125 2 c69 1 142 2 163 3 l37 0 3 -47
c3 -46 2 -47 -38 -68 -23 -12 -74 -30 -113 -40 -57 -15 -65 -19 -37 -19 19 0
67 11 105 25 39 14 77 25 86 25 22 0 27 32 25 144 -1 79 -3 90 -20 93 -16 3
-18 -2 -15 -42z m-140 -11 c35 -9 75 -23 89 -31 l25 -15 -25 5 c-14 3 -81 6
-150 6 l-125 0 -21 33 -21 33 82 -8 c46 -4 111 -14 146 -23z"/>
</g>
</svg>
