<?xml version="1.0" standalone="no"?>
<!DOCTYPE svg PUBLIC "-//W3C//DTD SVG 20010904//EN"
 "http://www.w3.org/TR/2001/REC-SVG-20010904/DTD/svg10.dtd">
<svg version="1.0" xmlns="http://www.w3.org/2000/svg"
 width="129.000000pt" height="130.000000pt" viewBox="0 0 129.000000 130.000000"
 preserveAspectRatio="xMidYMid meet">
<metadata>
Created by potrace 1.16, written by Peter Selinger 2001-2019
</metadata>
<g transform="translate(0.000000,130.000000) scale(0.100000,-0.100000)"
fill="#000000" stroke="none">
<path d="M378 979 c-48 -25 -67 -54 -75 -116 -10 -93 49 -172 136 -181 105
-10 180 73 169 187 -5 55 -24 79 -85 110 -52 26 -97 26 -145 0z m165 -30 c46
-21 59 -103 28 -182 -14 -35 -90 -72 -129 -63 -57 14 -79 28 -95 62 -34 71
-12 164 45 190 37 16 107 13 151 -7z"/>
<path d="M753 978 c-49 -25 -73 -72 -73 -142 0 -35 7 -54 33 -88 18 -23 44
-48 57 -55 72 -36 175 6 205 83 24 63 17 137 -16 165 -69 60 -136 72 -206 37z
m156 -24 c33 -13 41 -22 51 -60 10 -36 10 -54 -1 -97 -13 -46 -19 -54 -59 -75
-46 -23 -84 -24 -135 0 -49 22 -71 128 -39 189 28 54 108 73 183 43z"/>
<path d="M380 598 c-52 -27 -72 -61 -78 -133 -3 -43 1 -56 29 -98 35 -53 60
-67 120 -67 92 0 158 70 159 168 0 60 -24 96 -84 126 -63 32 -89 32 -146 4z
m147 -27 c56 -26 72 -74 54 -157 -12 -51 -16 -57 -54 -75 -104 -47 -197 7
-197 114 0 62 19 98 64 118 52 23 80 23 133 0z"/>
<path d="M760 598 c-52 -27 -72 -61 -78 -133 -3 -43 1 -56 29 -98 35 -53 60
-67 120 -67 94 0 158 70 159 172 0 56 -29 96 -93 127 -55 27 -82 26 -137 -1z
m161 -33 c60 -31 62 -160 4 -212 -33 -29 -87 -38 -136 -24 -65 20 -97 108 -68
191 22 63 121 85 200 45z"/>
</g>
</svg>
