<?xml version="1.0" standalone="no"?>
<!DOCTYPE svg PUBLIC "-//W3C//DTD SVG 20010904//EN"
 "http://www.w3.org/TR/2001/REC-SVG-20010904/DTD/svg10.dtd">
<svg version="1.0" xmlns="http://www.w3.org/2000/svg"
 width="152.000000pt" height="123.000000pt" viewBox="0 0 152.000000 123.000000"
 preserveAspectRatio="xMidYMid meet">
<metadata>
Created by potrace 1.16, written by Peter Selinger 2001-2019
</metadata>
<g transform="translate(0.000000,123.000000) scale(0.100000,-0.100000)"
fill="#000000" stroke="none">
<path d="M370 898 l0 -31 -26 23 c-21 21 -27 22 -34 10 -15 -24 -12 -27 25
-34 l35 -7 0 -115 0 -116 73 7 c97 9 182 31 235 60 30 17 53 23 71 19 21 -4
23 -3 9 6 -12 8 -15 19 -11 45 7 46 -15 78 -75 109 -56 29 -180 56 -252 56
-50 0 -50 0 -50 -32z m200 -4 c110 -25 180 -78 165 -125 -5 -16 -10 -18 -21
-8 -11 9 -15 6 -20 -19 -5 -24 -15 -34 -46 -47 -40 -15 -41 -15 -65 7 -20 19
-25 20 -33 8 -15 -23 -12 -30 13 -31 21 0 21 -1 2 -8 -11 -5 -45 -12 -75 -16
l-55 -7 21 23 c33 37 44 64 44 108 0 52 -14 86 -46 116 l-26 24 39 -6 c21 -3
67 -12 103 -19z"/>
<path d="M516 874 c-8 -20 -11 -17 38 -32 l40 -11 -33 29 c-38 35 -37 35 -45
14z"/>
<path d="M818 898 l-3 -33 -23 25 c-19 21 -24 22 -32 10 -15 -24 -12 -27 25
-34 l35 -7 0 -115 0 -116 73 7 c96 9 182 31 236 61 28 16 52 22 65 18 18 -6
19 -5 8 8 -7 9 -10 27 -6 46 4 21 1 40 -9 56 -34 51 -196 105 -314 106 -51 0
-52 0 -55 -32z m226 -9 c61 -16 116 -50 132 -82 16 -29 9 -52 -16 -52 -8 0
-16 -10 -18 -22 -2 -14 -16 -27 -44 -38 -40 -15 -41 -15 -65 7 -20 19 -25 20
-33 8 -15 -23 -12 -30 13 -31 21 0 21 -1 2 -8 -11 -5 -44 -12 -74 -16 l-55 -7
27 32 c51 61 50 150 -2 204 l-32 33 62 -9 c35 -4 81 -13 103 -19z"/>
<path d="M966 874 c-8 -21 -9 -20 38 -33 l40 -10 -33 29 c-38 35 -37 35 -45
14z"/>
<path d="M370 560 c0 -34 -6 -37 -32 -13 -17 15 -20 15 -28 3 -15 -24 -12 -29
23 -32 l32 -3 3 -107 3 -108 27 0 c56 1 102 61 102 133 0 52 -10 78 -44 116
l-21 23 55 -7 c97 -13 181 -44 218 -81 35 -35 40 -70 9 -68 -10 1 -20 -8 -23
-22 -6 -25 -49 -54 -79 -54 -8 0 -24 9 -35 20 -19 19 -20 19 -30 1 -8 -15 -5
-20 13 -26 18 -6 10 -10 -38 -20 -49 -11 -54 -13 -25 -14 45 -1 123 20 179 48
29 15 52 20 70 16 24 -6 25 -5 10 10 -12 12 -15 28 -12 54 5 33 1 41 -30 68
-47 41 -127 70 -229 83 -119 15 -118 15 -118 -20z"/>
<path d="M820 561 c0 -35 -6 -38 -32 -14 -17 15 -20 15 -28 3 -14 -22 -12 -25
16 -28 14 -1 30 -4 35 -8 5 -3 9 -52 9 -110 l0 -104 29 0 c31 0 77 39 92 78
23 61 3 143 -43 177 -22 16 -21 17 37 10 120 -14 219 -57 245 -105 13 -24 2
-51 -19 -48 -10 2 -17 -5 -19 -20 -4 -24 -47 -52 -81 -52 -11 0 -27 10 -36 23
-13 19 -17 20 -25 7 -14 -21 -12 -30 5 -30 35 0 11 -18 -37 -27 -46 -9 -49
-11 -18 -12 46 -1 129 21 178 49 23 13 49 20 61 17 12 -3 21 -1 21 4 0 5 -5 9
-10 9 -6 0 -8 15 -4 38 14 86 -96 146 -308 167 l-68 7 0 -31z"/>
<path d="M516 524 c-8 -21 -9 -20 39 -28 l40 -7 -30 25 c-36 30 -41 31 -49 10z"/>
<path d="M963 525 c-7 -20 -6 -21 41 -29 l39 -8 -30 26 c-36 30 -42 31 -50 11z"/>
</g>
</svg>
