<?xml version="1.0" standalone="no"?>
<!DOCTYPE svg PUBLIC "-//W3C//DTD SVG 20010904//EN"
 "http://www.w3.org/TR/2001/REC-SVG-20010904/DTD/svg10.dtd">
<svg version="1.0" xmlns="http://www.w3.org/2000/svg"
 width="89.000000pt" height="158.000000pt" viewBox="0 0 89.000000 158.000000"
 preserveAspectRatio="xMidYMid meet">
<metadata>
Created by potrace 1.16, written by Peter Selinger 2001-2019
</metadata>
<g transform="translate(0.000000,158.000000) scale(0.100000,-0.100000)"
fill="#000000" stroke="none">
<path d="M300 1242 c0 -55 27 -136 56 -172 l26 -30 -41 0 c-41 0 -41 0 -41
-38 0 -55 27 -136 56 -172 l26 -30 -41 0 c-41 0 -41 0 -41 -38 0 -55 27 -136
56 -172 l26 -30 -41 0 c-41 0 -41 0 -41 -38 0 -55 27 -136 56 -172 37 -44 51
-37 15 8 -25 30 -61 129 -61 164 0 5 12 0 27 -9 39 -26 178 -25 217 0 l27 18
-7 -38 c-9 -51 -40 -123 -66 -150 -12 -13 -17 -23 -11 -23 37 0 93 122 93 202
0 38 0 38 -41 38 l-41 0 26 30 c29 36 56 117 56 172 0 38 0 38 -41 38 l-41 0
26 30 c29 36 56 117 56 172 0 38 0 38 -41 38 l-41 0 26 30 c29 36 56 117 56
172 l0 38 -145 0 -145 0 0 -38z m140 -27 c51 0 86 5 108 17 l33 17 -7 -37 c-9
-50 -40 -122 -66 -149 -16 -17 -33 -23 -64 -23 -65 0 -104 53 -129 178 l-7 34
28 -19 c21 -13 47 -18 104 -18z m0 -240 c51 0 86 5 108 17 l33 17 -7 -37 c-9
-50 -40 -122 -66 -149 -16 -17 -33 -23 -64 -23 -65 0 -104 53 -129 178 l-7 34
28 -19 c21 -13 47 -18 104 -18z m0 -240 c51 0 86 5 108 17 l33 17 -7 -37 c-9
-50 -40 -122 -66 -149 -16 -17 -33 -23 -64 -23 -65 0 -104 53 -129 178 l-7 34
28 -19 c21 -13 47 -18 104 -18z"/>
</g>
</svg>
