<?xml version="1.0" standalone="no"?>
<!DOCTYPE svg PUBLIC "-//W3C//DTD SVG 20010904//EN"
 "http://www.w3.org/TR/2001/REC-SVG-20010904/DTD/svg10.dtd">
<svg version="1.0" xmlns="http://www.w3.org/2000/svg"
 width="139.000000pt" height="122.000000pt" viewBox="0 0 139.000000 122.000000"
 preserveAspectRatio="xMidYMid meet">
<metadata>
Created by potrace 1.16, written by Peter Selinger 2001-2019
</metadata>
<g transform="translate(0.000000,122.000000) scale(0.100000,-0.100000)"
fill="#000000" stroke="none">
<path d="M300 769 l0 -151 73 7 c229 21 354 104 291 193 -34 50 -196 102 -314
102 l-50 0 0 -151z m200 115 c123 -28 189 -85 161 -137 -7 -14 -35 -37 -61
-51 -44 -24 -165 -56 -212 -56 -19 0 -18 2 6 30 59 71 52 163 -19 222 -19 17
-19 17 20 12 22 -3 69 -12 105 -20z"/>
<path d="M710 769 l0 -151 76 7 c350 31 416 214 101 279 -42 9 -99 16 -127 16
l-50 0 0 -151z m200 115 c109 -25 180 -78 165 -124 -16 -49 -123 -100 -247
-116 l-52 -7 27 32 c52 62 51 151 -3 206 l-33 34 39 -5 c21 -4 68 -13 104 -20z"/>
<path d="M300 450 l0 -150 50 0 c28 0 85 7 127 16 294 61 262 229 -52 274 -38
5 -82 10 -97 10 l-28 0 0 -150z m183 115 c81 -17 160 -58 178 -92 11 -21 11
-29 -2 -51 -27 -49 -103 -79 -268 -106 l-33 -6 30 29 c17 15 34 41 37 57 4 16
8 34 10 41 7 21 -16 82 -41 113 l-26 30 24 0 c12 0 54 -7 91 -15z"/>
<path d="M710 450 l0 -150 53 0 c67 0 171 23 236 51 174 74 86 204 -163 238
-43 6 -88 11 -102 11 l-24 0 0 -150z m178 114 c129 -26 208 -85 184 -138 -21
-47 -113 -87 -242 -104 -54 -8 -61 -7 -45 4 35 26 55 68 55 117 0 51 -10 78
-43 115 -26 28 -17 28 91 6z"/>
</g>
</svg>
