<?xml version="1.0" standalone="no"?>
<!DOCTYPE svg PUBLIC "-//W3C//DTD SVG 20010904//EN"
 "http://www.w3.org/TR/2001/REC-SVG-20010904/DTD/svg10.dtd">
<svg version="1.0" xmlns="http://www.w3.org/2000/svg"
 width="144.000000pt" height="119.000000pt" viewBox="0 0 144.000000 119.000000"
 preserveAspectRatio="xMidYMid meet">
<metadata>
Created by potrace 1.16, written by Peter Selinger 2001-2019
</metadata>
<g transform="translate(0.000000,119.000000) scale(0.100000,-0.100000)"
fill="#000000" stroke="none">
<path d="M445 878 c-11 -6 -30 -20 -42 -31 -17 -15 -31 -19 -63 -14 -37 5 -40
3 -40 -19 0 -20 5 -24 33 -24 32 0 33 -1 29 -36 -4 -34 -6 -36 -34 -30 -27 5
-29 4 -26 -22 3 -24 6 -27 37 -24 26 3 40 -3 66 -28 60 -58 138 -57 205 4 27
24 50 36 70 36 17 0 30 5 30 10 0 6 -13 10 -30 10 -28 0 -30 3 -30 35 0 19 -1
38 -2 43 -2 4 12 8 30 10 17 2 32 7 32 13 0 8 -12 11 -67 13 -10 1 -24 9 -31
19 -32 42 -121 61 -167 35z m122 -54 c-3 -3 -12 -4 -19 -1 -8 3 -5 6 6 6 11 1
17 -2 13 -5z m-92 -14 c-3 -5 -13 -10 -21 -10 -8 0 -12 5 -9 10 3 6 13 10 21
10 8 0 12 -4 9 -10z m0 -110 c-3 -5 -10 -10 -16 -10 -5 0 -9 5 -9 10 0 6 7 10
16 10 8 0 12 -4 9 -10z m92 -16 c-3 -3 -12 -4 -19 -1 -8 3 -5 6 6 6 11 1 17
-2 13 -5z"/>
<path d="M855 859 c-31 -27 -41 -31 -75 -26 -38 5 -40 4 -40 -22 0 -25 3 -27
30 -23 29 4 30 3 30 -33 0 -36 -1 -37 -30 -31 -28 5 -30 3 -30 -22 0 -26 2
-28 35 -24 28 3 40 -1 65 -27 60 -59 142 -58 210 3 23 21 50 36 65 36 33 0 32
18 -1 22 -23 3 -27 8 -29 46 -3 40 -2 42 26 42 35 0 39 19 4 22 -14 0 -31 1
-37 2 -7 1 -19 9 -26 19 -21 28 -68 47 -116 47 -36 0 -52 -6 -81 -31z m60 -49
c-3 -5 -13 -10 -21 -10 -8 0 -12 5 -9 10 3 6 13 10 21 10 8 0 12 -4 9 -10z m0
-110 c-3 -5 -13 -10 -21 -10 -8 0 -14 5 -14 10 0 6 9 10 21 10 11 0 17 -4 14
-10z"/>
<path d="M472 580 c-43 -10 -87 -50 -70 -62 9 -6 7 -8 -7 -5 -11 3 -37 8 -57
12 -36 6 -38 4 -38 -20 0 -22 4 -25 33 -25 32 0 33 -1 29 -36 -4 -33 -6 -35
-33 -29 -26 6 -29 4 -29 -19 0 -23 4 -26 38 -26 27 0 45 -7 58 -21 33 -37 73
-52 126 -47 40 4 57 12 87 42 23 23 46 36 63 36 38 0 43 16 8 24 -24 4 -30 11
-30 30 0 13 -3 31 -6 40 -5 12 1 16 24 16 17 0 33 4 36 9 8 12 -44 21 -101 17
-36 -3 -39 -2 -13 3 l34 6 -33 28 c-18 15 -39 27 -46 27 -7 0 -19 2 -27 4 -7
2 -28 0 -46 -4z m3 -80 c-28 -12 -37 -12 -30 0 3 6 16 10 28 9 21 0 21 -1 2
-9z m72 -16 c-3 -3 -12 -4 -19 -1 -8 3 -5 6 6 6 11 1 17 -2 13 -5z m36 -81
c-7 -2 -19 -2 -25 0 -7 3 -2 5 12 5 14 0 19 -2 13 -5z m-108 -13 c-28 -12 -37
-12 -30 0 3 6 16 10 28 9 21 0 21 -1 2 -9z m72 -16 c-3 -3 -12 -4 -19 -1 -8 3
-5 6 6 6 11 1 17 -2 13 -5z"/>
<path d="M862 559 c-18 -12 -31 -27 -28 -34 3 -9 -6 -10 -37 -4 -58 11 -57 12
-57 -16 0 -21 5 -25 30 -25 28 0 30 -3 30 -36 0 -35 -1 -36 -30 -31 -27 6 -30
4 -30 -18 0 -22 4 -25 37 -25 28 0 45 -8 69 -31 59 -57 152 -51 213 15 14 14
35 26 47 26 34 0 38 17 6 23 -24 5 -27 11 -29 46 -1 37 1 41 22 41 39 0 37 17
-3 25 -20 3 -49 18 -64 33 -39 37 -129 42 -176 11z m176 -46 c-10 -2 -26 -2
-35 0 -10 3 -2 5 17 5 19 0 27 -2 18 -5z m-118 -7 c0 -2 -9 -6 -20 -9 -11 -3
-18 -1 -14 4 5 9 34 13 34 5z m103 -103 c-7 -2 -19 -2 -25 0 -7 3 -2 5 12 5
14 0 19 -2 13 -5z m-103 -7 c0 -2 -9 -6 -20 -9 -11 -3 -18 -1 -14 4 5 9 34 13
34 5z m67 -22 c-3 -3 -12 -4 -19 -1 -8 3 -5 6 6 6 11 1 17 -2 13 -5z"/>
</g>
</svg>
