<?xml version="1.0" standalone="no"?>
<!DOCTYPE svg PUBLIC "-//W3C//DTD SVG 20010904//EN"
 "http://www.w3.org/TR/2001/REC-SVG-20010904/DTD/svg10.dtd">
<svg version="1.0" xmlns="http://www.w3.org/2000/svg"
 width="144.000000pt" height="119.000000pt" viewBox="0 0 144.000000 119.000000"
 preserveAspectRatio="xMidYMid meet">
<metadata>
Created by potrace 1.16, written by Peter Selinger 2001-2019
</metadata>
<g transform="translate(0.000000,119.000000) scale(0.100000,-0.100000)"
fill="#000000" stroke="none">
<path d="M385 880 c-11 -4 -33 -22 -49 -38 -36 -39 -47 -112 -22 -160 42 -82
164 -105 221 -42 26 29 134 29 160 0 42 -46 123 -48 182 -4 24 18 45 24 90 25
73 1 190 16 146 18 -36 1 -40 14 -27 94 6 31 11 37 31 37 14 0 21 4 18 10 -4
6 -55 10 -119 10 -91 0 -116 3 -127 16 -21 25 -65 44 -104 44 -39 0 -83 -19
-104 -44 -9 -11 -31 -16 -66 -16 -35 0 -57 5 -66 16 -32 39 -113 56 -164 34z
m319 -66 c3 -8 2 -12 -4 -9 -6 3 -10 10 -10 16 0 14 7 11 14 -7z m-287 -10
c-3 -3 -12 -4 -19 -1 -8 3 -5 6 6 6 11 1 17 -2 13 -5z m346 -1 c-7 -2 -19 -2
-25 0 -7 3 -2 5 12 5 14 0 19 -2 13 -5z m252 -56 c6 -49 4 -57 -11 -57 -14 0
-16 6 -10 38 3 20 6 48 6 61 0 42 9 18 15 -42z m45 -2 c0 -37 -4 -65 -10 -65
-11 0 -14 113 -3 123 12 13 13 7 13 -58z m-473 33 c-3 -8 -6 -5 -6 6 -1 11 2
17 5 13 3 -3 4 -12 1 -19z m380 -87 c-14 -6 -15 2 -9 59 l7 55 5 -55 c3 -30 1
-57 -3 -59z m-337 49 c0 -27 -4 -50 -10 -50 -11 0 -14 83 -3 93 12 12 13 8 13
-43z m-43 -42 c-3 -7 -5 -2 -5 12 0 14 2 19 5 13 2 -7 2 -19 0 -25z m349 -5
c-10 -10 -19 5 -10 18 6 11 8 11 12 0 2 -7 1 -15 -2 -18z m-469 -9 c-3 -3 -12
-4 -19 -1 -8 3 -5 6 6 6 11 1 17 -2 13 -5z"/>
<path d="M383 550 c-60 -27 -85 -71 -80 -138 3 -41 10 -59 32 -82 27 -29 33
-30 112 -30 72 0 84 3 95 20 10 16 24 20 69 20 43 0 60 -5 74 -20 15 -17 31
-20 100 -20 69 0 85 3 100 20 16 18 31 20 137 20 72 0 118 4 118 10 0 6 -13
10 -30 10 -26 0 -30 3 -30 29 0 63 11 91 36 91 13 0 24 4 24 9 0 4 -52 11
-115 15 -99 6 -120 10 -151 31 -66 45 -137 40 -189 -11 -25 -26 -120 -21 -151
7 -19 18 -74 39 -99 39 -5 0 -29 -9 -52 -20z m-6 -46 c-3 -3 -12 -4 -19 -1 -8
3 -5 6 6 6 11 1 17 -2 13 -5z m210 -46 c-3 -8 -6 -5 -6 6 -1 11 2 17 5 13 3
-3 4 -12 1 -19z m386 -97 c-11 -15 -19 22 -14 69 l5 55 6 -60 c4 -33 5 -62 3
-64z m43 56 c6 -50 4 -57 -11 -57 -15 0 -17 6 -11 38 3 20 6 48 6 61 0 42 10
17 16 -42z m46 -9 c2 -34 -1 -48 -9 -48 -14 0 -19 101 -5 114 8 9 10 1 14 -66z
m-432 7 c0 -30 -4 -55 -10 -55 -11 0 -14 69 -4 94 11 27 14 18 14 -39z m-43
-42 c-3 -10 -5 -4 -5 12 0 17 2 24 5 18 2 -7 2 -21 0 -30z m349 -10 c-11 -11
-19 6 -11 24 8 17 8 17 12 0 3 -10 2 -21 -1 -24z m-230 -12 c0 -11 -4 -17 -8
-15 -4 3 -8 12 -8 20 0 8 4 14 8 14 4 0 8 -9 8 -19z m-293 -18 c-7 -2 -19 -2
-25 0 -7 3 -2 5 12 5 14 0 19 -2 13 -5z m350 0 c-7 -2 -21 -2 -30 0 -10 3 -4
5 12 5 17 0 24 -2 18 -5z"/>
</g>
</svg>
