<?xml version="1.0" standalone="no"?>
<!DOCTYPE svg PUBLIC "-//W3C//DTD SVG 20010904//EN"
 "http://www.w3.org/TR/2001/REC-SVG-20010904/DTD/svg10.dtd">
<svg version="1.0" xmlns="http://www.w3.org/2000/svg"
 width="185.000000pt" height="183.000000pt" viewBox="0 0 185.000000 183.000000"
 preserveAspectRatio="xMidYMid meet">
<metadata>
Created by potrace 1.16, written by Peter Selinger 2001-2019
</metadata>
<g transform="translate(0.000000,183.000000) scale(0.100000,-0.100000)"
fill="#000000" stroke="none">
<path d="M390 1418 c0 -63 -2 -117 -5 -120 -3 -3 -23 -2 -45 2 -39 7 -40 7
-40 -22 0 -29 0 -29 45 -22 l45 6 0 -36 0 -36 -45 0 c-42 0 -45 -2 -45 -26 0
-24 2 -25 45 -18 l45 6 0 -102 0 -103 86 7 c219 18 412 110 459 219 13 29 14
22 15 -97 l0 -129 86 7 c178 15 333 73 414 156 25 26 58 50 73 54 31 7 36 26
7 26 -17 0 -20 7 -20 41 0 32 4 42 20 46 28 7 25 23 -5 23 -14 0 -25 4 -25 9
0 5 -20 31 -45 59 -79 88 -233 147 -412 159 l-93 6 0 -129 0 -129 -19 40 c-24
53 -79 101 -165 141 -95 44 -172 64 -283 71 l-93 6 0 -115z m235 71 c203 -48
336 -167 309 -274 l-7 -26 -98 7 -99 7 0 -27 c0 -24 2 -25 43 -21 23 2 66 7
95 9 l53 5 -19 -24 c-67 -85 -218 -152 -385 -171 l-62 -7 32 27 c123 104 122
386 -2 494 l-35 32 47 -6 c27 -3 84 -14 128 -25z m564 0 c103 -24 209 -78 258
-133 l38 -41 -63 -3 c-59 -3 -63 -5 -60 -25 3 -21 7 -22 71 -18 66 3 67 3 67
-22 0 -49 -6 -53 -76 -49 -64 4 -66 4 -62 -19 3 -22 7 -24 56 -21 52 4 53 3
43 -17 -38 -71 -275 -170 -409 -171 l-33 0 34 30 c19 16 45 54 58 82 20 45 24
69 24 158 0 121 -19 177 -82 242 l-36 36 44 -5 c24 -3 82 -14 128 -24z m-716
-216 c-7 -2 -19 -2 -25 0 -7 3 -2 5 12 5 14 0 19 -2 13 -5z m4 -109 c-3 -3
-12 -4 -19 -1 -8 3 -5 6 6 6 11 1 17 -2 13 -5z"/>
<path d="M730 1288 l0 -28 63 6 c96 8 127 14 127 24 0 6 -12 10 -27 11 -16 0
-58 3 -95 8 l-68 7 0 -28z"/>
<path d="M390 760 l0 -122 -45 6 c-43 7 -45 6 -45 -18 0 -24 3 -26 45 -26 l45
0 0 -36 0 -37 -45 6 c-43 6 -45 5 -45 -18 0 -23 4 -25 45 -25 l45 0 0 -96 0
-97 93 6 c111 7 188 27 283 71 86 40 141 88 165 141 l19 40 0 -127 0 -128 59
0 c176 0 381 79 458 175 20 25 36 35 56 35 31 0 36 15 7 23 -16 4 -20 14 -20
45 0 32 4 41 23 47 22 6 22 6 -5 16 -14 6 -38 28 -53 50 -64 98 -291 187 -477
189 l-48 0 0 -127 c-1 -118 -2 -125 -15 -96 -47 110 -238 201 -459 219 l-86 7
0 -123z m247 74 c74 -19 176 -66 216 -100 60 -50 91 -119 80 -175 -6 -32 2
-31 -160 -14 -41 4 -43 3 -43 -21 l0 -27 91 8 c88 6 90 6 80 -13 -41 -76 -211
-150 -405 -176 l-39 -5 36 37 c101 103 116 310 32 442 -13 21 -34 46 -47 55
-22 16 -21 17 39 11 34 -4 88 -14 120 -22z m565 0 c90 -23 187 -73 236 -121
58 -58 55 -67 -18 -60 -60 7 -60 7 -60 -19 l0 -27 70 5 70 5 0 -26 c0 -48 -12
-55 -79 -48 -61 7 -61 6 -61 -19 0 -25 2 -26 55 -22 30 1 55 0 55 -3 0 -4 -18
-23 -40 -43 -70 -63 -197 -116 -315 -131 -27 -3 -60 -8 -73 -11 -21 -4 -20 -2
11 29 18 19 44 56 58 83 21 43 24 63 24 159 0 100 -2 115 -28 167 -15 31 -42
69 -60 84 l-32 27 63 -6 c35 -4 91 -14 124 -23z m-719 -211 c-7 -2 -19 -2 -25
0 -7 3 -2 5 12 5 14 0 19 -2 13 -5z m0 -110 c-7 -2 -19 -2 -25 0 -7 3 -2 5 12
5 14 0 19 -2 13 -5z"/>
<path d="M730 633 l0 -26 88 7 c140 12 130 27 -25 40 -63 6 -63 6 -63 -21z"/>
</g>
</svg>
