<?xml version="1.0" standalone="no"?>
<!DOCTYPE svg PUBLIC "-//W3C//DTD SVG 20010904//EN"
 "http://www.w3.org/TR/2001/REC-SVG-20010904/DTD/svg10.dtd">
<svg version="1.0" xmlns="http://www.w3.org/2000/svg"
 width="172.000000pt" height="180.000000pt" viewBox="0 0 172.000000 180.000000"
 preserveAspectRatio="xMidYMid meet">
<metadata>
Created by potrace 1.16, written by Peter Selinger 2001-2019
</metadata>
<g transform="translate(0.000000,180.000000) scale(0.100000,-0.100000)"
fill="#000000" stroke="none">
<path d="M300 1211 l0 -291 33 0 c59 0 211 27 277 50 113 38 207 107 236 174
12 28 13 19 14 -96 l0 -128 34 0 c64 0 190 22 266 46 155 49 260 146 260 240
0 57 -12 85 -56 133 -81 91 -277 161 -446 161 l-58 0 0 -127 0 -128 -19 41
c-49 108 -239 198 -448 211 l-93 6 0 -292z m220 253 c41 -9 112 -33 157 -55
181 -87 219 -217 96 -334 -61 -58 -215 -116 -343 -131 l-59 -7 39 42 c106 112
105 353 -4 466 l-42 45 40 -6 c23 -3 75 -12 116 -20z m577 -5 c46 -10 110 -32
143 -49 243 -123 217 -317 -55 -419 -62 -23 -188 -51 -231 -51 -24 0 -24 1 9
30 19 16 45 54 58 82 20 45 24 69 24 158 0 92 -3 112 -26 160 -14 30 -41 69
-59 87 l-32 31 43 -5 c24 -3 81 -13 126 -24z"/>
<path d="M300 590 l0 -293 93 6 c209 13 399 103 448 211 l19 41 0 -129 0 -129
93 6 c163 11 310 62 393 139 148 137 69 308 -182 391 -78 25 -203 47 -270 47
l-34 0 0 -127 c-1 -117 -2 -125 -14 -97 -48 109 -243 202 -460 220 l-86 7 0
-293z m260 239 c93 -25 161 -61 215 -110 177 -164 4 -353 -369 -403 l-39 -5
36 37 c61 63 81 121 82 237 0 94 -2 105 -33 167 -18 37 -45 77 -60 89 l-27 22
62 -7 c34 -4 94 -16 133 -27z m547 5 c204 -52 328 -172 294 -285 -31 -104
-194 -201 -376 -224 -27 -3 -60 -8 -73 -11 -21 -4 -19 -1 13 32 63 62 79 112
80 239 0 101 -2 115 -28 167 -15 31 -42 69 -60 84 l-32 27 62 -7 c34 -4 88
-14 120 -22z"/>
</g>
</svg>
