<?xml version="1.0" standalone="no"?>
<!DOCTYPE svg PUBLIC "-//W3C//DTD SVG 20010904//EN"
 "http://www.w3.org/TR/2001/REC-SVG-20010904/DTD/svg10.dtd">
<svg version="1.0" xmlns="http://www.w3.org/2000/svg"
 width="118.000000pt" height="172.000000pt" viewBox="0 0 118.000000 172.000000"
 preserveAspectRatio="xMidYMid meet">
<metadata>
Created by potrace 1.16, written by Peter Selinger 2001-2019
</metadata>
<g transform="translate(0.000000,172.000000) scale(0.100000,-0.100000)"
fill="#000000" stroke="none">
<path d="M465 1392 c-93 -45 -151 -120 -162 -210 l-5 -47 113 3 114 2 -62 -30
c-93 -46 -163 -144 -163 -230 l0 -26 98 3 97 3 -38 -20 c-84 -46 -145 -132
-155 -218 l-5 -44 111 4 c105 3 134 -3 74 -17 -15 -3 -48 -21 -73 -40 -53 -38
-109 -137 -109 -192 l0 -33 290 0 290 0 0 33 c0 34 -37 118 -67 153 -28 33
-85 72 -115 79 -55 14 -26 20 78 17 l107 -3 -5 43 c-10 86 -71 172 -155 218
l-38 20 98 -3 97 -4 0 27 c0 86 -70 184 -163 230 l-62 30 113 -2 112 -3 0 26
c0 46 -31 117 -69 161 -56 63 -119 92 -211 96 -66 3 -82 0 -135 -26z m237 -10
c81 -36 134 -97 159 -185 8 -29 8 -29 -16 -13 -89 59 -378 64 -487 10 -15 -8
-29 -14 -33 -14 -22 0 21 98 64 143 74 80 208 106 313 59z m-3 -278 c57 -24
99 -62 131 -117 34 -60 40 -93 13 -82 -73 31 -110 38 -213 43 -124 4 -213 -7
-272 -37 l-38 -18 0 21 c0 36 62 128 107 159 79 56 184 68 272 31z m-5 -270
c21 -8 54 -27 73 -41 39 -30 93 -117 93 -151 0 -21 -1 -22 -23 -8 -88 58 -405
59 -493 1 -22 -14 -24 -14 -24 3 0 10 12 41 26 70 61 123 210 177 348 126z
m11 -288 c28 -12 66 -38 84 -57 35 -34 70 -100 71 -131 0 -15 -3 -15 -39 2
-109 53 -363 51 -470 -5 -29 -14 -31 -14 -31 2 1 31 36 97 71 132 52 52 122
81 199 81 47 0 79 -7 115 -24z"/>
</g>
</svg>
