<?xml version="1.0" standalone="no"?>
<!DOCTYPE svg PUBLIC "-//W3C//DTD SVG 20010904//EN"
 "http://www.w3.org/TR/2001/REC-SVG-20010904/DTD/svg10.dtd">
<svg version="1.0" xmlns="http://www.w3.org/2000/svg"
 width="268.000000pt" height="185.000000pt" viewBox="0 0 268.000000 185.000000"
 preserveAspectRatio="xMidYMid meet">
<metadata>
Created by potrace 1.16, written by Peter Selinger 2001-2019
</metadata>
<g transform="translate(0.000000,185.000000) scale(0.100000,-0.100000)"
fill="#000000" stroke="none">
<path d="M360 1439 l0 -111 -30 6 c-28 5 -30 3 -30 -23 0 -25 3 -27 30 -23 29
4 30 3 30 -33 0 -36 -1 -37 -30 -31 -27 5 -30 3 -30 -19 0 -21 5 -25 30 -25
l30 0 0 -105 0 -105 58 0 c95 0 290 19 408 40 285 50 464 146 464 249 0 129
-226 232 -610 276 -69 8 -169 15 -222 15 l-98 0 0 -111z m365 75 c507 -62 710
-257 414 -397 -150 -71 -441 -127 -655 -127 l-63 0 25 25 c46 46 67 111 72
221 5 123 -12 191 -64 259 l-36 47 94 -6 c51 -4 147 -14 213 -22z m-250 -204
c-3 -5 -13 -10 -21 -10 -8 0 -12 5 -9 10 3 6 13 10 21 10 8 0 12 -4 9 -10z m0
-110 c-3 -5 -13 -10 -21 -10 -8 0 -12 5 -9 10 3 6 13 10 21 10 8 0 12 -4 9
-10z"/>
<path d="M737 1396 c-48 -18 -62 -29 -81 -70 -22 -46 -20 -94 4 -134 76 -125
264 -76 264 70 0 99 -95 167 -187 134z"/>
<path d="M1010 1320 l0 -26 91 8 c87 7 109 12 97 23 -2 3 -46 8 -96 13 l-92 8
0 -26z"/>
<path d="M1010 1210 l0 -26 91 8 c87 7 109 12 97 23 -2 3 -46 8 -96 13 l-92 8
0 -26z"/>
<path d="M1450 1439 l0 -111 -30 6 c-28 5 -30 3 -30 -23 0 -25 3 -27 30 -23
29 4 30 3 30 -33 0 -36 -1 -37 -30 -31 -28 5 -30 3 -30 -23 0 -25 3 -27 30
-23 l30 4 0 -107 0 -108 133 7 c624 32 967 230 712 411 -125 89 -468 165 -747
165 l-98 0 0 -111z m361 76 c301 -38 532 -136 554 -235 26 -119 -215 -231
-593 -275 -120 -14 -282 -19 -254 -8 7 3 24 22 37 42 79 127 72 355 -16 463
l-32 40 94 -6 c52 -4 146 -14 210 -21z m-246 -205 c-3 -5 -13 -10 -21 -10 -8
0 -12 5 -9 10 3 6 13 10 21 10 8 0 12 -4 9 -10z m0 -110 c-3 -5 -13 -10 -21
-10 -8 0 -12 5 -9 10 3 6 13 10 21 10 8 0 12 -4 9 -10z"/>
<path d="M1827 1395 c-72 -25 -102 -71 -95 -147 18 -180 283 -162 280 20 -1
95 -94 159 -185 127z"/>
<path d="M2096 1343 c-2 -2 -1 -14 1 -26 4 -22 6 -22 95 -15 86 7 108 12 96
23 -5 6 -187 22 -192 18z"/>
<path d="M2095 1230 c-2 -4 -2 -15 1 -26 5 -18 11 -19 96 -12 86 7 108 12 96
23 -7 8 -189 22 -193 15z"/>
<path d="M360 749 l0 -111 -31 6 c-28 5 -30 4 -27 -22 3 -23 7 -27 31 -24 25
3 27 1 27 -34 0 -35 -1 -36 -30 -30 -27 5 -30 3 -30 -19 0 -21 5 -25 30 -25
l30 0 0 -95 0 -95 30 0 c38 0 74 34 103 98 19 40 22 65 22 172 0 109 -3 131
-23 175 -13 28 -35 63 -50 79 l-27 28 105 -7 c58 -3 166 -15 240 -26 463 -65
651 -235 415 -374 -93 -54 -299 -108 -510 -134 l-70 -8 61 -2 c33 0 110 8 171
19 605 109 621 385 28 499 -137 27 -275 41 -395 41 l-100 0 0 -111z m115 -129
c-3 -5 -13 -10 -21 -10 -8 0 -12 5 -9 10 3 6 13 10 21 10 8 0 12 -4 9 -10z m0
-110 c-3 -5 -13 -10 -21 -10 -8 0 -12 5 -9 10 3 6 13 10 21 10 8 0 12 -4 9
-10z"/>
<path d="M1450 749 l0 -111 -30 6 c-28 5 -30 3 -30 -23 0 -25 3 -27 30 -23 29
4 30 3 30 -33 0 -36 -1 -37 -30 -31 -27 5 -30 3 -30 -19 0 -21 5 -25 30 -25
l30 0 0 -95 0 -95 28 0 c15 0 34 6 42 13 110 87 121 373 20 499 l-32 39 99 -6
c470 -30 793 -154 758 -293 -25 -102 -253 -195 -577 -237 -89 -11 -95 -13 -46
-14 80 -1 266 32 378 69 221 72 306 169 236 270 -80 118 -458 220 -812 220
l-94 0 0 -111z m115 -129 c-3 -5 -13 -10 -21 -10 -8 0 -12 5 -9 10 3 6 13 10
21 10 8 0 12 -4 9 -10z m-5 -110 c-19 -13 -30 -13 -30 0 0 6 10 10 23 10 18 0
19 -2 7 -10z"/>
<path d="M720 698 c-75 -39 -102 -127 -60 -196 42 -69 132 -92 198 -52 44 27
75 96 66 146 -9 48 -57 101 -102 114 -50 13 -51 13 -102 -12z"/>
<path d="M1813 701 c-60 -28 -85 -72 -80 -139 13 -183 282 -169 279 16 -1 102
-105 166 -199 123z"/>
<path d="M1010 632 l0 -28 78 8 c42 3 85 7 95 7 9 1 17 5 17 10 0 5 -30 12
-67 16 -38 3 -80 8 -95 10 -25 4 -28 1 -28 -23z"/>
<path d="M2094 644 c3 -9 6 -21 6 -27 0 -9 22 -11 83 -5 45 3 88 7 95 7 6 1
12 5 12 10 0 5 -30 12 -67 15 -38 4 -83 8 -101 11 -27 3 -33 1 -28 -11z"/>
<path d="M1010 522 l0 -28 78 8 c42 3 85 7 95 7 9 1 17 5 17 10 0 5 -30 12
-67 16 -38 3 -80 8 -95 10 -25 4 -28 1 -28 -23z"/>
<path d="M2096 543 c-2 -2 -1 -14 1 -26 4 -22 6 -23 96 -15 87 8 106 12 95 23
-5 6 -187 22 -192 18z"/>
</g>
</svg>
