<?xml version="1.0" standalone="no"?>
<!DOCTYPE svg PUBLIC "-//W3C//DTD SVG 20010904//EN"
 "http://www.w3.org/TR/2001/REC-SVG-20010904/DTD/svg10.dtd">
<svg version="1.0" xmlns="http://www.w3.org/2000/svg"
 width="240.000000pt" height="176.000000pt" viewBox="0 0 240.000000 176.000000"
 preserveAspectRatio="xMidYMid meet">
<metadata>
Created by potrace 1.16, written by Peter Selinger 2001-2019
</metadata>
<g transform="translate(0.000000,176.000000) scale(0.100000,-0.100000)"
fill="#000000" stroke="none">
<path d="M300 880 l0 -583 153 6 c292 12 527 65 671 152 l57 34 -3 -94 -3 -95
95 0 c274 0 606 72 738 160 52 35 101 94 89 106 -3 3 -13 -9 -23 -26 -66 -110
-361 -200 -748 -225 l-99 -7 35 41 c92 108 96 347 8 469 l-30 42 67 0 c181 0
467 -52 608 -111 75 -31 165 -99 165 -125 0 -8 4 -14 9 -14 19 0 -3 41 -41 76
-80 72 -251 132 -473 165 -71 10 -154 19 -182 19 -29 0 -53 5 -53 10 0 6 24
10 53 10 80 0 301 36 402 65 123 35 225 86 269 135 36 40 45 60 26 60 -5 0
-10 -6 -10 -14 0 -26 -90 -94 -165 -125 -141 -59 -427 -111 -609 -111 l-69 0
21 23 c54 58 88 203 72 314 -10 73 -41 148 -78 186 l-27 29 100 -7 c386 -25
683 -115 749 -225 10 -17 20 -29 23 -26 12 12 -37 71 -89 106 -132 88 -464
160 -738 160 l-95 0 3 -95 3 -94 -57 34 c-144 87 -379 140 -671 152 l-153 6 0
-583z m216 560 c289 -23 522 -84 632 -167 31 -23 32 -26 32 -102 0 -73 -2 -78
-28 -98 -119 -88 -390 -157 -667 -170 l-130 -6 26 29 c71 77 97 221 65 355
-14 63 -57 143 -84 158 -15 9 -15 10 4 11 12 0 79 -5 150 -10z m663 -560 c0
-104 -2 -190 -4 -190 -2 0 -23 13 -47 28 -24 16 -66 38 -95 50 -111 47 -385
101 -510 102 -29 0 -53 5 -53 10 0 6 24 10 53 10 76 0 244 26 361 55 78 20
234 85 293 124 1 0 2 -84 2 -189z m-449 -49 c196 -34 352 -88 428 -149 21 -16
23 -24 20 -97 l-3 -80 -47 -31 c-120 -81 -363 -138 -680 -159 l-97 -7 34 36
c50 53 70 122 70 241 0 117 -20 187 -69 243 l-31 35 130 -6 c72 -3 182 -15
245 -26z"/>
<path d="M673 1309 c-61 -18 -111 -107 -93 -168 13 -48 28 -68 66 -91 54 -34
124 -25 171 23 104 103 -2 278 -144 236z"/>
<path d="M643 711 c-70 -44 -87 -145 -36 -209 97 -120 278 -32 249 121 -4 19
-21 48 -41 67 -45 43 -122 53 -172 21z"/>
<path d="M1553 1309 c-43 -13 -91 -63 -99 -104 -29 -155 166 -241 257 -114 75
106 -32 255 -158 218z"/>
<path d="M1523 710 c-126 -76 -74 -263 74 -263 110 0 178 132 114 222 -44 61
-126 79 -188 41z"/>
</g>
</svg>
