<?xml version="1.0" standalone="no"?>
<!DOCTYPE svg PUBLIC "-//W3C//DTD SVG 20010904//EN"
 "http://www.w3.org/TR/2001/REC-SVG-20010904/DTD/svg10.dtd">
<svg version="1.0" xmlns="http://www.w3.org/2000/svg"
 width="118.000000pt" height="192.000000pt" viewBox="0 0 118.000000 192.000000"
 preserveAspectRatio="xMidYMid meet">
<metadata>
Created by potrace 1.16, written by Peter Selinger 2001-2019
</metadata>
<g transform="translate(0.000000,192.000000) scale(0.100000,-0.100000)"
fill="#000000" stroke="none">
<path d="M450 1590 l0 -30 -76 0 -77 0 7 -47 c12 -89 91 -184 183 -219 23 -9
43 -21 43 -26 0 -5 -49 -8 -115 -6 l-115 3 0 -26 c0 -42 28 -113 61 -152 33
-40 122 -97 152 -97 9 0 17 -4 17 -10 0 -6 -45 -10 -116 -10 l-117 0 5 -43
c11 -95 87 -192 177 -224 28 -10 51 -21 51 -25 0 -5 -52 -8 -116 -8 l-117 0 6
-45 c13 -92 88 -185 179 -219 43 -17 46 -21 53 -62 8 -55 25 -58 25 -4 0 36 3
40 24 40 13 0 31 3 39 6 11 4 16 -6 21 -40 8 -50 26 -63 26 -18 0 49 11 70 43
83 80 33 167 151 167 227 l0 32 -100 0 c-75 0 -100 3 -100 13 0 7 16 19 35 25
44 17 115 86 139 137 10 21 21 59 24 82 l5 43 -102 0 c-59 0 -101 4 -101 10 0
5 22 21 49 34 83 42 151 144 151 225 l0 26 -100 -3 c-83 -3 -100 -1 -100 11 0
8 15 21 33 28 44 18 115 85 138 131 11 21 22 58 26 83 l6 45 -143 0 -142 0 6
30 c5 27 3 30 -19 30 -21 0 -25 -5 -25 -30 0 -28 -3 -30 -36 -30 -35 0 -36 1
-30 30 5 27 3 30 -19 30 -21 0 -25 -5 -25 -30z m-35 -104 c130 -33 311 -26
404 15 l43 19 -6 -33 c-8 -44 -53 -105 -105 -144 -58 -44 -73 -43 -69 5 1 20
0 36 -5 35 -4 -2 -15 -3 -26 -3 -16 0 -18 -6 -13 -45 l5 -45 -37 0 -38 0 3 45
c2 25 0 45 -4 45 -49 1 -48 2 -41 -41 l7 -42 -29 7 c-71 17 -156 101 -179 179
l-14 47 22 -15 c12 -8 49 -21 82 -29z m225 -216 c0 -5 -16 -10 -35 -10 -19 0
-35 5 -35 10 0 6 16 10 35 10 19 0 35 -4 35 -10z m-193 -90 c38 -8 111 -11
185 -8 106 3 131 8 180 30 l56 26 -8 -27 c-22 -76 -62 -129 -130 -170 -47 -28
-52 -27 -48 17 3 34 1 37 -22 37 -23 0 -25 -4 -25 -45 0 -43 -1 -45 -32 -48
l-33 -3 0 51 c0 48 -2 51 -22 48 -21 -3 -23 -8 -20 -46 4 -42 3 -44 -20 -37
-93 29 -161 100 -189 197 l-8 28 37 -19 c21 -11 65 -25 99 -31z m181 -207
c-10 -2 -28 -2 -40 0 -13 2 -5 4 17 4 22 1 32 -1 23 -4z m-192 -88 c130 -28
337 -12 402 31 l25 16 -7 -33 c-14 -73 -87 -156 -160 -182 -16 -6 -18 -3 -14
33 3 38 2 40 -24 40 -27 0 -27 -1 -21 -45 l6 -45 -38 0 -37 0 4 45 c3 43 2 45
-24 45 -27 0 -27 -1 -21 -45 l6 -45 -34 12 c-86 29 -159 107 -175 187 l-7 33
25 -16 c14 -9 56 -23 94 -31z m187 -212 c-13 -2 -33 -2 -45 0 -13 2 -3 4 22 4
25 0 35 -2 23 -4z m-166 -89 c126 -24 271 -13 360 26 36 16 43 16 43 4 0 -52
-77 -152 -143 -186 l-39 -20 4 41 c3 39 2 41 -24 41 -27 0 -27 -1 -21 -45 l6
-45 -38 0 -37 0 4 45 c3 43 2 45 -25 45 -26 0 -27 -1 -21 -40 8 -47 0 -49 -61
-21 -69 32 -145 129 -145 186 0 14 3 14 31 0 17 -9 64 -23 106 -31z"/>
</g>
</svg>
