<?xml version="1.0" standalone="no"?>
<!DOCTYPE svg PUBLIC "-//W3C//DTD SVG 20010904//EN"
 "http://www.w3.org/TR/2001/REC-SVG-20010904/DTD/svg10.dtd">
<svg version="1.0" xmlns="http://www.w3.org/2000/svg"
 width="180.000000pt" height="130.000000pt" viewBox="0 0 180.000000 130.000000"
 preserveAspectRatio="xMidYMid meet">
<metadata>
Created by potrace 1.16, written by Peter Selinger 2001-2019
</metadata>
<g transform="translate(0.000000,130.000000) scale(0.100000,-0.100000)"
fill="#000000" stroke="none">
<path d="M300 971 c0 -40 26 -109 55 -147 14 -18 25 -43 25 -56 0 -44 13 -98
21 -92 5 3 9 25 9 49 l0 44 30 -17 c24 -13 30 -24 30 -49 0 -18 5 -33 10 -33
6 0 10 12 10 26 0 21 4 25 23 22 14 -2 23 -11 25 -25 4 -28 22 -30 22 -3 0 16
7 20 30 20 23 0 30 -4 30 -20 0 -11 5 -20 10 -20 6 0 10 11 10 24 0 17 7 25
25 28 22 5 25 2 25 -23 0 -16 5 -29 10 -29 6 0 10 15 10 33 0 26 6 36 30 50
l30 18 0 -45 c0 -25 4 -47 9 -50 9 -6 21 49 21 97 0 16 12 44 26 62 25 34 54
111 54 147 0 17 -15 18 -290 18 l-290 0 0 -29z m53 -30 c24 -13 27 -19 27 -68
0 -29 -2 -53 -5 -53 -7 0 -46 80 -56 113 -4 16 -5 27 -1 25 4 -2 19 -10 35
-17z m483 -56 c-14 -30 -27 -55 -30 -55 -4 0 -6 22 -6 50 0 44 3 51 28 64 36
19 38 7 8 -59z m-380 21 c1 0 4 -36 6 -78 l5 -77 -29 16 c-26 16 -28 21 -28
86 0 66 1 68 23 61 12 -3 23 -7 23 -8z m293 -128 c-27 -22 -43 -23 -35 -2 3 9
6 42 6 74 0 48 3 59 18 62 14 3 18 -7 25 -57 7 -55 6 -62 -14 -77z m-217 40
c3 -46 4 -85 2 -86 -1 -2 -12 -1 -24 3 -14 4 -19 12 -16 22 3 8 6 44 6 79 0
48 4 64 14 64 10 0 15 -22 18 -82z m80 -3 l3 -85 -29 0 c-27 0 -28 2 -22 31 3
17 6 56 6 85 0 47 3 54 19 54 18 0 20 -9 23 -85z m70 8 c2 -43 3 -79 3 -79 0
-1 -10 -5 -22 -8 -23 -7 -23 -6 -23 78 0 78 2 86 19 86 17 0 20 -9 23 -77z"/>
<path d="M920 982 c0 -37 29 -114 56 -150 22 -29 29 -50 32 -99 5 -71 19 -84
24 -21 2 23 8 43 13 45 19 6 55 -37 56 -65 l1 -27 11 28 c14 35 48 33 57 -3
l6 -25 8 23 c10 29 56 31 56 2 0 -11 5 -20 10 -20 6 0 10 9 10 20 0 12 9 24
23 29 19 7 24 4 33 -23 l11 -31 7 37 c8 42 50 79 60 52 3 -9 6 -31 6 -50 0
-19 5 -34 10 -34 6 0 10 27 10 61 0 49 5 66 25 93 29 38 55 107 55 147 l0 29
-290 0 c-275 0 -290 -1 -290 -18z m80 -102 c0 -28 -2 -50 -5 -50 -8 0 -55 102
-55 118 0 9 7 9 30 -3 27 -14 30 -20 30 -65z m481 53 c-11 -37 -43 -103 -50
-103 -4 0 -5 21 -3 48 3 33 10 52 25 64 31 24 37 22 28 -9z m-400 -23 c5 0 9
-34 9 -75 0 -41 -3 -75 -6 -75 -3 0 -14 5 -25 10 -16 9 -19 22 -19 81 0 61 2
70 16 65 9 -3 20 -6 25 -6z m309 -56 c0 -52 -4 -70 -17 -80 -10 -7 -21 -14
-25 -14 -5 0 -8 33 -8 74 0 76 1 78 43 85 4 0 7 -29 7 -65z m-230 -40 c0 -74
-2 -85 -16 -80 -9 3 -18 6 -20 6 -2 0 -4 36 -4 80 0 73 2 80 20 80 18 0 20 -7
20 -86z m70 69 c0 -10 3 -48 6 -85 l7 -68 -27 0 -26 0 0 85 c0 78 2 85 20 85
12 0 20 -7 20 -17z m80 -62 c0 -77 -6 -91 -38 -91 -4 0 -6 38 -4 85 3 76 5 85
23 85 17 0 19 -8 19 -79z"/>
<path d="M300 598 c0 -36 27 -102 60 -148 11 -15 20 -41 20 -58 0 -16 3 -44 6
-62 9 -41 24 -20 24 33 l0 38 30 -18 c24 -14 30 -24 30 -50 0 -18 5 -33 10
-33 6 0 10 13 10 29 0 25 3 28 25 23 18 -3 25 -11 25 -28 0 -13 5 -24 10 -24
6 0 10 9 10 20 0 16 7 20 30 20 24 0 30 -4 30 -21 0 -11 5 -17 10 -14 6 3 10
15 10 26 0 10 4 19 9 19 5 0 16 3 25 6 13 5 16 -1 16 -25 0 -17 5 -31 10 -31
6 0 10 15 10 34 0 25 6 38 25 50 13 9 27 16 30 16 3 0 5 -20 5 -44 0 -71 18
-63 25 11 4 38 13 75 20 83 24 28 54 98 61 139 l7 41 -292 0 -291 0 0 -32z
m80 -90 c0 -31 -4 -47 -10 -43 -13 8 -45 72 -54 107 l-6 27 35 -20 c33 -20 35
-24 35 -71z m456 7 c-14 -30 -27 -55 -30 -55 -4 0 -6 22 -6 50 0 44 3 51 28
64 36 19 38 7 8 -59z m-390 27 c12 -7 25 -152 14 -152 -3 0 -16 7 -28 16 -19
13 -22 24 -22 80 0 64 7 75 36 56z m317 -54 c5 -57 4 -65 -16 -80 -12 -10 -25
-18 -28 -18 -7 0 -1 124 6 148 3 6 11 12 18 12 10 0 16 -19 20 -62z m-232 -39
c4 -46 5 -85 4 -87 -2 -2 -12 1 -22 6 -16 9 -18 21 -15 92 5 109 25 103 33
-11z m151 10 c3 -74 1 -82 -17 -89 -19 -7 -20 -3 -23 73 -3 76 3 96 30 97 3 0
8 -37 10 -81z m-70 -14 l3 -85 -29 0 c-28 0 -28 1 -22 38 3 20 6 58 6 85 0 40
3 47 19 47 18 0 20 -9 23 -85z"/>
<path d="M925 588 c8 -48 45 -128 69 -147 12 -10 16 -31 16 -77 0 -36 4 -64
10 -64 6 0 10 20 10 44 0 25 4 47 8 50 15 9 54 -31 61 -65 l8 -34 9 31 c8 27
12 30 32 23 13 -5 22 -17 23 -31 l0 -23 11 23 c14 29 58 31 58 2 0 -11 5 -20
10 -20 6 0 10 11 10 24 0 17 7 25 25 28 20 4 25 0 31 -26 l7 -31 9 35 c11 42
47 78 59 58 5 -7 9 -30 9 -50 0 -21 5 -38 10 -38 6 0 10 27 10 61 0 45 5 68
20 89 33 46 60 112 60 148 l0 32 -291 0 -291 0 7 -42z m58 -14 c13 -5 17 -18
17 -62 0 -54 -1 -55 -15 -34 -19 25 -45 87 -45 103 0 6 6 8 13 5 6 -3 20 -9
30 -12z m498 -12 c-10 -35 -38 -89 -49 -96 -5 -3 -8 7 -6 22 1 15 2 39 3 53 1
16 9 30 24 37 33 16 36 14 28 -16z m-407 -18 c13 -5 16 -22 16 -80 0 -41 -3
-74 -7 -74 -5 0 -16 7 -25 14 -14 10 -18 28 -18 80 0 65 4 72 34 60z m314 -60
c-3 -56 -7 -69 -25 -82 l-23 -14 0 75 c0 74 4 84 38 86 10 1 12 -16 10 -65z
m-228 -39 c0 -78 -1 -83 -20 -78 -18 5 -20 14 -20 82 0 82 3 93 26 84 10 -4
14 -26 14 -88z m148 7 c3 -77 2 -82 -18 -82 -18 0 -20 6 -20 78 0 43 3 82 7
86 19 18 28 -7 31 -82z m-78 54 c0 -12 3 -51 6 -85 7 -61 7 -61 -20 -61 l-26
0 0 85 c0 78 2 85 20 85 14 0 20 -7 20 -24z"/>
</g>
</svg>
