<?xml version="1.0" standalone="no"?>
<!DOCTYPE svg PUBLIC "-//W3C//DTD SVG 20010904//EN"
 "http://www.w3.org/TR/2001/REC-SVG-20010904/DTD/svg10.dtd">
<svg version="1.0" xmlns="http://www.w3.org/2000/svg"
 width="184.000000pt" height="175.000000pt" viewBox="0 0 184.000000 175.000000"
 preserveAspectRatio="xMidYMid meet">
<metadata>
Created by potrace 1.16, written by Peter Selinger 2001-2019
</metadata>
<g transform="translate(0.000000,175.000000) scale(0.100000,-0.100000)"
fill="#000000" stroke="none">
<path d="M300 1417 c0 -19 14 -62 31 -97 33 -65 87 -114 152 -136 l32 -11 -45
-20 c-94 -42 -156 -121 -167 -212 l-6 -51 292 0 c330 0 304 -8 276 87 -19 64
-82 136 -148 169 l-50 26 40 18 c86 38 154 127 169 219 l7 41 -292 0 -291 0 0
-33z m97 -39 c110 -39 319 -33 420 12 29 13 43 15 43 7 0 -31 -51 -117 -88
-148 -156 -133 -397 -62 -453 134 -7 25 -6 28 9 21 9 -4 41 -15 69 -26z m303
-239 c60 -27 107 -74 136 -134 31 -65 31 -80 1 -61 -89 59 -384 60 -497 1
l-29 -15 8 28 c26 88 88 159 166 186 61 22 161 19 215 -5z"/>
<path d="M965 1408 c16 -94 82 -180 168 -218 l39 -18 -47 -23 c-65 -32 -131
-108 -150 -172 -28 -95 -54 -87 276 -87 l292 0 -6 51 c-11 91 -73 170 -167
212 l-45 20 32 11 c65 22 119 71 152 136 17 35 31 78 31 97 l0 33 -291 0 -291
0 7 -42z m165 -47 c126 -21 276 -8 353 29 22 11 42 19 43 17 6 -6 -27 -82 -50
-115 -115 -165 -387 -141 -472 42 -34 72 -32 78 19 56 23 -10 71 -24 107 -29z
m222 -217 c81 -27 142 -94 168 -184 l8 -27 -61 25 c-113 46 -351 41 -448 -9
-47 -23 -49 -15 -15 56 61 129 207 187 348 139z"/>
<path d="M300 832 c0 -87 67 -184 155 -228 l55 -27 -48 -22 c-89 -41 -150
-122 -160 -212 l-5 -43 293 0 293 0 -7 41 c-15 92 -83 181 -169 219 l-39 18
47 23 c65 32 131 108 150 172 28 95 54 87 -275 87 l-290 0 0 -28z m43 -27 c89
-58 405 -58 494 1 30 19 30 4 -1 -61 -47 -99 -135 -155 -246 -154 -106 0 -185
40 -234 118 -23 36 -50 111 -40 111 3 0 15 -7 27 -15z m339 -251 c63 -21 126
-78 154 -138 34 -73 32 -78 -22 -55 -109 48 -340 48 -450 0 -26 -12 -48 -20
-50 -19 -6 7 26 83 50 116 66 95 202 136 318 96z"/>
<path d="M960 842 c0 -84 78 -197 165 -241 l47 -23 -39 -18 c-86 -38 -154
-127 -169 -219 l-7 -41 293 0 293 0 -5 43 c-10 90 -71 171 -160 212 l-48 22
55 27 c88 44 155 141 155 228 l0 28 -290 0 c-274 0 -290 -1 -290 -18z m165
-73 c105 -18 267 -7 341 23 l61 25 -9 -35 c-66 -239 -414 -260 -517 -32 -29
65 -27 71 17 50 21 -10 69 -24 107 -31z m218 -213 c83 -30 144 -92 172 -173 7
-21 12 -39 11 -41 -2 -1 -17 5 -34 13 -110 55 -350 58 -469 5 -51 -22 -53 -16
-19 56 27 58 91 117 150 138 52 18 140 19 189 2z"/>
</g>
</svg>
