<?xml version="1.0" standalone="no"?>
<!DOCTYPE svg PUBLIC "-//W3C//DTD SVG 20010904//EN"
 "http://www.w3.org/TR/2001/REC-SVG-20010904/DTD/svg10.dtd">
<svg version="1.0" xmlns="http://www.w3.org/2000/svg"
 width="177.000000pt" height="176.000000pt" viewBox="0 0 177.000000 176.000000"
 preserveAspectRatio="xMidYMid meet">
<metadata>
Created by potrace 1.16, written by Peter Selinger 2001-2019
</metadata>
<g transform="translate(0.000000,176.000000) scale(0.100000,-0.100000)"
fill="#000000" stroke="none">
<path d="M470 1439 c-55 -25 -114 -80 -143 -134 -31 -58 -31 -193 0 -251 68
-128 216 -186 355 -138 154 52 228 242 152 390 -33 65 -101 124 -164 143 -59
18 -149 13 -200 -10z m189 -138 c67 -47 85 -115 52 -185 -68 -139 -271 -91
-271 64 0 70 30 112 97 136 44 15 87 10 122 -15z"/>
<path d="M525 1300 c-11 -4 -31 -20 -45 -35 -21 -22 -25 -37 -25 -86 0 -52 3
-62 31 -89 104 -105 273 3 218 139 -26 67 -110 100 -179 71z"/>
<path d="M1085 1443 c-229 -92 -241 -413 -20 -518 138 -65 305 -8 378 129 31
58 31 193 0 251 -53 98 -146 155 -253 154 -36 0 -83 -7 -105 -16z m178 -139
c39 -21 67 -71 67 -122 0 -138 -158 -200 -249 -97 -54 62 -51 143 8 199 47 45
111 52 174 20z"/>
<path d="M1113 1289 c-101 -64 -62 -229 57 -239 53 -5 71 1 106 33 62 57 57
152 -12 206 -35 28 -108 28 -151 0z"/>
<path d="M465 836 c-59 -27 -107 -72 -138 -130 -31 -58 -31 -193 0 -251 29
-54 88 -109 143 -134 51 -23 141 -28 200 -10 63 19 131 78 164 143 76 148 2
338 -152 390 -68 24 -157 20 -217 -8z m181 -127 c78 -37 106 -141 56 -208 -48
-65 -121 -83 -190 -47 -89 46 -98 185 -15 244 51 36 92 39 149 11z"/>
<path d="M551 709 c-18 -4 -48 -21 -65 -38 -28 -28 -31 -38 -31 -91 0 -54 3
-63 32 -91 24 -25 42 -33 81 -37 66 -6 113 21 136 80 41 102 -44 201 -153 177z"/>
<path d="M1067 836 c-103 -51 -161 -143 -161 -256 0 -296 396 -388 537 -125
17 32 22 57 22 125 0 95 -18 141 -77 200 -80 80 -221 105 -321 56z m201 -132
c60 -39 81 -138 42 -201 -30 -49 -79 -69 -157 -64 -32 2 -90 56 -103 97 -16
48 -5 98 32 139 47 54 127 67 186 29z"/>
<path d="M1175 713 c-96 -18 -144 -96 -109 -181 20 -53 66 -82 126 -82 80 0
135 65 125 148 -8 70 -78 126 -142 115z"/>
</g>
</svg>
