<?xml version="1.0" standalone="no"?>
<!DOCTYPE svg PUBLIC "-//W3C//DTD SVG 20010904//EN"
 "http://www.w3.org/TR/2001/REC-SVG-20010904/DTD/svg10.dtd">
<svg version="1.0" xmlns="http://www.w3.org/2000/svg"
 width="183.000000pt" height="178.000000pt" viewBox="0 0 183.000000 178.000000"
 preserveAspectRatio="xMidYMid meet">
<metadata>
Created by potrace 1.16, written by Peter Selinger 2001-2019
</metadata>
<g transform="translate(0.000000,178.000000) scale(0.100000,-0.100000)"
fill="#000000" stroke="none">
<path d="M300 1452 c0 -56 32 -125 82 -175 62 -62 66 -101 14 -141 -41 -31
-96 -136 -96 -183 l0 -33 291 0 291 0 -7 43 c-10 60 -48 128 -91 167 -54 47
-50 85 16 157 33 36 55 71 65 105 28 96 54 88 -275 88 l-290 0 0 -28z m55 -32
c22 -11 45 -20 51 -20 11 0 27 -128 18 -139 -7 -8 -46 34 -70 76 -21 35 -47
103 -40 103 1 0 19 -9 41 -20z m485 -48 c-12 -27 -37 -64 -56 -83 l-34 -33 0
67 0 67 53 24 c28 12 53 19 55 15 2 -4 -6 -30 -18 -57z m-346 -34 c7 -66 8
-118 0 -118 -3 0 -13 4 -22 9 -14 7 -16 22 -14 85 4 92 26 106 36 24z m224
-23 c2 -57 0 -72 -14 -82 -29 -21 -34 -16 -34 35 0 80 11 123 29 120 13 -3 17
-18 19 -73z m-154 34 c3 -17 6 -56 6 -86 0 -51 -2 -54 -22 -51 -14 2 -23 10
-22 21 0 9 1 46 2 82 2 48 6 65 16 65 7 0 16 -14 20 -31z m76 -54 c0 -85 0
-85 -26 -85 -20 0 -25 4 -20 16 3 9 6 47 6 85 0 62 2 69 20 69 18 0 20 -7 20
-85z m-158 -86 c17 -9 18 -13 7 -20 -23 -15 -39 -10 -39 11 0 23 4 24 32 9z
m238 -10 c0 -15 -4 -19 -16 -15 -9 3 -21 6 -27 6 -13 1 22 30 35 30 4 0 8 -9
8 -21z m-150 -94 c0 -84 0 -85 -25 -85 -25 0 -25 1 -25 78 0 84 3 92 32 92 16
0 18 -9 18 -85z m74 24 c11 -106 10 -109 -24 -109 l-30 0 0 85 c0 83 1 85 24
85 21 0 24 -5 30 -61z m74 -43 c3 -76 3 -76 -23 -76 -25 0 -25 1 -25 85 0 83
0 84 23 76 20 -7 22 -16 25 -85z m-218 4 c0 -79 0 -80 -25 -80 -24 0 -25 2
-25 74 0 73 4 83 38 85 9 1 12 -21 12 -79z m-70 -20 c0 -52 -3 -70 -13 -70 -8
0 -35 -11 -60 -24 l-47 -23 7 26 c10 43 40 97 73 130 18 17 33 31 36 31 2 0 4
-31 4 -70z m357 38 c30 -31 72 -109 73 -135 0 -8 -14 -6 -42 7 -24 11 -51 20
-60 20 -15 0 -18 10 -18 70 0 39 4 70 8 70 4 0 22 -15 39 -32z"/>
<path d="M950 1462 c0 -52 33 -124 80 -175 65 -71 68 -111 14 -159 -41 -37
-81 -109 -90 -167 l-7 -41 292 0 291 0 0 33 c0 47 -42 130 -89 174 -58 54 -56
86 8 152 50 51 81 118 81 173 l0 28 -290 0 c-274 0 -290 -1 -290 -18z m130
-136 l0 -70 -31 30 c-29 27 -79 115 -79 140 0 7 20 4 55 -10 l55 -21 0 -69z
m430 83 c-18 -61 -90 -162 -105 -147 -3 3 -3 35 1 71 7 64 7 65 45 76 21 6 41
16 44 21 14 22 23 8 15 -21z m-360 -104 c0 -83 -1 -85 -20 -75 -16 9 -20 21
-20 63 0 66 9 97 26 97 11 0 14 -19 14 -85z m220 5 c0 -44 -4 -80 -9 -80 -5 0
-15 -2 -23 -5 -10 -4 -12 10 -10 67 3 87 7 98 27 98 12 0 15 -15 15 -80z
m-150 -15 c0 -78 -2 -85 -20 -85 -18 0 -20 7 -20 69 0 78 6 101 26 101 11 0
14 -19 14 -85z m79 0 c2 -85 2 -85 -23 -85 -25 0 -26 2 -26 63 0 79 8 107 30
107 15 0 18 -11 19 -85z m-159 -85 c13 -9 13 -11 0 -20 -22 -15 -30 -12 -30
10 0 22 8 25 30 10z m227 -26 c-6 -7 -37 7 -37 16 0 15 35 16 38 2 2 -7 2 -16
-1 -18z m-147 -18 c0 -12 3 -51 7 -85 l6 -63 -26 6 c-15 3 -27 8 -27 11 0 3 0
39 0 80 0 68 2 75 20 75 14 0 20 -7 20 -24z m80 -61 c0 -84 0 -85 -25 -85 -25
0 -25 1 -25 85 0 84 0 85 25 85 25 0 25 -1 25 -85z m53 64 c22 -10 24 -17 26
-85 l2 -74 -30 0 -31 0 0 85 c0 47 2 85 5 85 2 0 15 -5 28 -11z m-199 -60 c10
-98 10 -99 -23 -99 l-29 0 5 68 c6 82 9 92 26 92 10 0 16 -19 21 -61z m-65
-80 c1 -22 -5 -28 -41 -38 -24 -7 -49 -18 -56 -23 -45 -37 -8 69 46 133 l37
43 7 -44 c3 -25 7 -57 7 -71z m398 17 c19 -37 34 -89 25 -84 -4 2 -31 12 -59
23 l-53 20 0 69 0 70 36 -35 c20 -18 43 -47 51 -63z"/>
<path d="M300 827 c0 -47 54 -150 95 -182 53 -40 49 -79 -14 -144 -50 -51 -81
-118 -81 -173 l0 -28 285 0 c240 0 287 2 291 14 13 34 -26 124 -78 182 -45 49
-52 61 -49 91 2 25 12 44 37 66 42 36 81 109 90 166 l7 41 -292 0 -291 0 0
-33z m123 -117 c3 -36 4 -66 2 -68 -1 -2 -17 11 -34 29 -33 33 -64 87 -74 129
l-6 26 53 -25 54 -26 5 -65z m432 83 c-9 -39 -48 -103 -79 -132 l-26 -24 0 70
0 70 40 12 c21 6 42 16 45 21 13 21 27 9 20 -17z m-360 -98 c4 -42 5 -78 2
-81 -12 -12 -48 8 -43 23 3 8 6 41 6 74 0 44 4 59 14 59 10 0 16 -20 21 -75z
m223 -3 c3 -68 1 -73 -20 -81 -21 -8 -23 -5 -26 23 -2 17 -1 55 3 84 5 42 10
53 23 50 14 -3 18 -17 20 -76z m-154 37 c3 -17 6 -56 6 -86 0 -51 -2 -54 -22
-51 -13 2 -23 9 -22 16 1 6 2 44 3 82 1 52 5 70 15 70 7 0 16 -14 20 -31z m76
-54 l0 -85 -26 0 c-22 0 -25 3 -20 23 3 12 6 50 6 85 0 55 2 62 20 62 18 0 20
-7 20 -85z m-151 -84 c11 -7 10 -11 -7 -20 -28 -15 -32 -14 -32 9 0 21 16 26
39 11z m231 -11 c0 -23 -4 -24 -33 -8 -21 11 -21 11 -2 19 31 12 35 11 35 -11z
m-150 -95 c0 -84 0 -85 -25 -85 -25 0 -25 1 -25 85 0 84 0 85 25 85 25 0 25
-1 25 -85z m74 24 c11 -106 10 -109 -24 -109 l-30 0 0 85 c0 83 1 85 24 85 21
0 24 -5 30 -61z m-144 -34 c0 -84 0 -85 -25 -85 -24 0 -25 2 -25 75 0 60 3 76
18 84 9 6 20 11 25 11 4 0 7 -38 7 -85z m201 75 c16 -9 19 -22 19 -86 0 -72
-1 -75 -22 -72 -21 3 -23 9 -26 86 -2 45 0 82 3 82 4 0 15 -5 26 -10z m-271
-100 c0 -57 -3 -70 -15 -70 -9 0 -35 -9 -57 -20 -23 -11 -43 -20 -44 -20 -8 0
19 68 41 105 20 36 59 75 72 75 2 0 3 -31 3 -70z m357 38 c30 -31 72 -109 73
-134 0 -7 -22 -3 -57 12 l-58 23 -3 65 c-2 37 1 66 6 66 4 0 22 -15 39 -32z"/>
<path d="M954 818 c9 -55 51 -132 93 -168 51 -45 47 -87 -17 -157 -50 -55 -89
-146 -76 -179 4 -12 51 -14 291 -14 l285 0 0 28 c0 55 -31 122 -81 173 -64 66
-66 98 -8 152 47 44 89 127 89 175 l0 32 -291 0 -292 0 7 -42z m42 -7 c5 -5
26 -14 47 -21 l37 -12 0 -71 0 -70 -26 24 c-31 29 -70 93 -79 132 -7 27 2 35
21 18z m515 -19 c-14 -46 -38 -88 -72 -121 -17 -18 -33 -30 -35 -28 -2 2 -1
33 3 69 l6 65 46 21 c61 26 61 26 52 -6z m-361 -103 c0 -71 -2 -80 -17 -77
-14 2 -19 15 -21 58 -4 67 4 100 23 100 12 0 15 -16 15 -81z m220 6 c0 -64 -3
-76 -20 -85 -19 -10 -20 -8 -20 75 0 78 2 85 20 85 18 0 20 -7 20 -75z m-150
-20 c0 -78 -2 -85 -20 -85 -18 0 -20 7 -20 69 0 78 6 101 26 101 11 0 14 -19
14 -85z m79 0 c2 -85 2 -85 -23 -85 -25 0 -26 2 -26 63 0 79 8 107 30 107 15
0 18 -11 19 -85z m-159 -85 c13 -9 13 -11 0 -20 -22 -15 -30 -12 -30 10 0 22
8 25 30 10z m230 -9 c0 -14 -5 -18 -20 -14 -23 6 -26 19 -7 26 22 9 27 7 27
-12z m-150 -35 c0 -12 3 -51 6 -85 l7 -61 -29 0 -29 0 3 85 c3 76 5 85 23 85
13 0 19 -7 19 -24z m80 -61 c0 -84 0 -85 -25 -85 -25 0 -25 1 -25 85 0 84 0
85 25 85 25 0 25 -1 25 -85z m-144 -81 c-3 -8 -17 -14 -31 -14 -25 0 -25 0
-19 73 4 51 10 76 22 85 15 12 18 6 25 -59 4 -39 6 -78 3 -85z m214 139 c3 -2
6 -38 8 -79 4 -61 2 -74 -11 -74 -42 0 -47 10 -47 92 0 78 0 79 23 72 12 -3
24 -8 27 -11z m-282 -141 c-4 -17 -118 -64 -118 -48 1 25 43 103 73 134 l32
33 8 -53 c4 -29 6 -59 5 -66z m356 87 c31 -36 55 -80 67 -121 4 -15 7 -28 5
-28 -1 0 -19 9 -41 20 -22 11 -47 20 -57 20 -16 0 -18 9 -18 70 0 39 4 70 9
70 5 0 21 -14 35 -31z"/>
</g>
</svg>
