<?xml version="1.0" standalone="no"?>
<!DOCTYPE svg PUBLIC "-//W3C//DTD SVG 20010904//EN"
 "http://www.w3.org/TR/2001/REC-SVG-20010904/DTD/svg10.dtd">
<svg version="1.0" xmlns="http://www.w3.org/2000/svg"
 width="102.000000pt" height="101.000000pt" viewBox="0 0 102.000000 101.000000"
 preserveAspectRatio="xMidYMid meet">
<metadata>
Created by potrace 1.16, written by Peter Selinger 2001-2019
</metadata>
<g transform="translate(0.000000,101.000000) scale(0.100000,-0.100000)"
fill="#000000" stroke="none">
<path d="M300 689 c0 -22 0 -22 203 -14 111 4 207 10 212 13 18 12 -85 20
-252 21 -160 1 -163 1 -163 -20z"/>
<path d="M300 569 c0 -22 0 -22 198 -14 108 4 203 10 211 14 20 12 -95 21
-260 21 -145 0 -149 -1 -149 -21z"/>
<path d="M300 439 c0 -21 1 -22 193 -15 105 4 201 10 212 14 37 11 -63 20
-237 21 -165 1 -168 1 -168 -20z"/>
<path d="M300 319 c0 -18 8 -19 168 -18 176 1 279 10 232 22 -14 3 -109 8
-212 11 -181 4 -188 4 -188 -15z"/>
</g>
</svg>
