<?xml version="1.0" standalone="no"?>
<!DOCTYPE svg PUBLIC "-//W3C//DTD SVG 20010904//EN"
 "http://www.w3.org/TR/2001/REC-SVG-20010904/DTD/svg10.dtd">
<svg version="1.0" xmlns="http://www.w3.org/2000/svg"
 width="135.000000pt" height="193.000000pt" viewBox="0 0 135.000000 193.000000"
 preserveAspectRatio="xMidYMid meet">
<metadata>
Created by potrace 1.16, written by Peter Selinger 2001-2019
</metadata>
<g transform="translate(0.000000,193.000000) scale(0.100000,-0.100000)"
fill="#000000" stroke="none">
<path d="M300 1479 l0 -151 108 7 c59 3 149 11 199 17 92 10 93 10 127 -16 46
-35 60 -33 18 3 l-32 28 35 10 c32 10 38 8 86 -28 29 -21 55 -39 58 -39 3 0
-14 19 -37 43 l-42 43 35 12 c34 13 36 12 110 -44 41 -31 77 -55 80 -53 2 3
-23 28 -55 56 -47 40 -56 53 -43 56 11 3 7 5 -9 6 -28 1 -37 14 -18 26 19 12
10 53 -15 73 -14 11 -25 23 -25 26 0 3 19 7 43 7 26 1 12 5 -38 10 -45 4 -115
14 -156 23 -106 22 -239 36 -341 36 l-88 0 0 -151z m305 118 l100 -12 -143 -3
c-127 -2 -143 -4 -140 -19 2 -9 16 -20 31 -24 23 -6 89 -52 132 -92 6 -5 -23
-8 -75 -5 -79 3 -85 2 -85 -17 0 -19 6 -20 105 -17 82 2 109 -1 124 -13 11 -8
18 -17 15 -19 -7 -6 -205 -26 -265 -26 l-56 0 25 30 c46 54 44 153 -5 215
l-21 27 79 -6 c43 -4 124 -12 179 -19z m189 -102 l69 -55 -48 0 c-41 0 -56 6
-101 41 -79 61 -81 65 -31 67 37 2 50 -5 111 -53z m87 32 c36 -24 45 -43 30
-66 -10 -15 -22 -8 -106 63 l-30 25 36 1 c21 0 50 -9 70 -23z m-226 -35 l60
-47 -38 -3 c-37 -3 -56 9 -151 90 -6 4 8 8 30 8 31 0 50 -9 99 -48z m115 -91
c0 -16 -64 -20 -80 -5 -12 12 -8 14 33 14 26 0 47 -4 47 -9z"/>
<path d="M300 1129 l0 -152 113 7 c61 4 151 12 199 18 86 10 86 10 122 -17 20
-15 39 -25 42 -22 3 2 -9 15 -27 28 -29 20 -30 23 -13 30 37 14 66 9 103 -19
59 -46 69 -47 23 -2 -24 23 -42 43 -40 44 22 14 62 25 71 20 7 -4 43 -29 80
-57 37 -27 70 -48 72 -45 2 2 -23 27 -55 55 -47 40 -56 53 -43 56 11 3 7 5
-10 6 -24 1 -26 3 -17 20 17 32 12 58 -16 80 -28 22 -24 27 31 34 17 2 1 5
-35 6 -36 0 -106 10 -155 20 -112 25 -260 41 -365 41 l-80 0 0 -151z m305 118
l100 -12 -142 -3 c-135 -2 -143 -4 -143 -22 0 -14 7 -20 24 -20 13 0 51 -22
87 -51 l63 -50 -84 2 c-78 2 -85 0 -85 -17 0 -18 7 -19 105 -16 82 2 109 -1
124 -13 11 -8 18 -17 15 -19 -7 -7 -194 -26 -259 -26 l-61 0 21 22 c47 50 49
148 4 213 l-24 36 78 -6 c42 -3 122 -11 177 -18z m187 -100 c37 -28 67 -54 68
-58 0 -3 -24 -2 -53 1 -44 5 -62 13 -105 50 -37 31 -49 46 -40 52 30 18 65 6
130 -45z m91 28 c38 -26 44 -39 28 -64 -8 -12 -20 -6 -66 29 -30 23 -58 47
-61 51 -12 20 64 7 99 -16z m-230 -32 l62 -48 -38 -3 c-32 -3 -46 4 -97 44
-33 26 -60 49 -60 50 0 2 16 4 36 4 27 0 50 -11 97 -47z m117 -92 c0 -17 -63
-22 -79 -6 -14 13 -10 15 32 15 26 0 47 -4 47 -9z"/>
<path d="M302 793 l3 -148 95 3 c52 1 141 7 198 13 l103 11 35 -27 c43 -33 56
-27 15 7 l-29 25 33 10 c31 10 38 7 92 -30 l58 -40 -43 44 -42 45 35 12 c34
13 36 12 108 -42 93 -70 109 -72 33 -5 -42 38 -54 54 -44 60 9 6 4 9 -14 9
-28 0 -37 13 -18 25 21 13 10 54 -22 79 l-33 26 50 1 c40 1 33 3 -33 10 -45 4
-115 15 -155 23 -105 23 -228 36 -335 36 l-93 0 3 -147z m218 126 c189 -17
203 -27 42 -28 -129 -1 -143 -3 -140 -18 2 -9 15 -20 30 -24 29 -8 127 -78
128 -92 0 -5 -35 -7 -77 -5 -67 3 -78 1 -81 -14 -3 -16 7 -18 103 -18 99 0
145 -9 145 -29 0 -9 -196 -31 -274 -31 l-48 0 25 30 c46 54 44 153 -4 214
l-20 26 28 0 c15 0 80 -5 143 -11z m133 -115 l62 -49 -38 -3 c-32 -3 -46 4
-97 45 -32 26 -59 51 -59 54 -1 3 15 5 34 4 25 -2 54 -17 98 -51z m139 4 l69
-53 -47 -3 c-41 -3 -52 1 -99 38 -82 63 -85 70 -35 70 36 0 53 -8 112 -52z
m86 32 c39 -24 49 -45 32 -65 -10 -13 -21 -8 -71 32 -32 25 -59 48 -59 49 0
13 70 1 98 -16z m-108 -129 c0 -16 -64 -20 -80 -5 -12 12 -8 14 33 14 26 0 47
-4 47 -9z"/>
<path d="M306 623 c-3 -3 -6 -71 -6 -150 l0 -143 103 1 c56 0 145 6 197 13 92
13 96 13 125 -9 51 -37 61 -39 33 -8 -16 16 -28 32 -28 35 0 3 14 8 32 12 26
5 40 0 85 -35 67 -50 81 -46 17 6 l-46 38 23 13 c38 21 48 17 126 -42 41 -31
77 -54 79 -51 3 3 -20 26 -51 52 -33 28 -54 54 -51 62 4 8 -2 13 -16 13 -17 0
-19 3 -10 12 21 21 13 55 -19 82 l-31 26 49 1 c43 1 45 2 18 9 -16 4 -54 8
-84 9 -29 0 -79 7 -110 15 -95 24 -420 53 -435 39z m240 -24 c178 -17 188 -29
24 -26 -131 2 -145 0 -148 -15 -2 -12 3 -18 15 -18 11 0 48 -21 83 -47 l64
-48 -82 -3 c-74 -3 -82 -5 -82 -22 0 -19 7 -20 114 -20 87 0 116 -3 126 -15
10 -12 8 -15 -12 -20 -24 -5 -236 -25 -275 -25 l-22 0 24 36 c13 20 27 52 31
71 8 43 -11 110 -39 141 l-20 22 45 0 c24 0 94 -5 154 -11z m103 -109 l65 -50
-45 0 c-38 1 -51 7 -99 50 l-55 49 35 1 c27 0 50 -12 99 -50z m147 -2 l66 -53
-46 -3 c-42 -3 -51 1 -111 49 -36 29 -65 54 -65 56 0 2 20 3 45 3 40 0 54 -7
111 -52z m91 26 c35 -26 40 -43 21 -62 -10 -10 -39 8 -122 80 -6 4 7 8 29 8
25 0 49 -8 72 -26z m-127 -124 c-20 -13 -67 -13 -75 0 -4 6 12 10 42 10 35 0
44 -3 33 -10z"/>
</g>
</svg>
