<?xml version="1.0" standalone="no"?>
<!DOCTYPE svg PUBLIC "-//W3C//DTD SVG 20010904//EN"
 "http://www.w3.org/TR/2001/REC-SVG-20010904/DTD/svg10.dtd">
<svg version="1.0" xmlns="http://www.w3.org/2000/svg"
 width="124.000000pt" height="136.000000pt" viewBox="0 0 124.000000 136.000000"
 preserveAspectRatio="xMidYMid meet">
<metadata>
Created by potrace 1.16, written by Peter Selinger 2001-2019
</metadata>
<g transform="translate(0.000000,136.000000) scale(0.100000,-0.100000)"
fill="#000000" stroke="none">
<path d="M300 1027 c0 -48 26 -128 55 -171 l24 -36 -41 0 -41 0 6 -54 c7 -70
42 -150 79 -181 l30 -25 -58 0 -57 0 6 -58 c4 -32 13 -74 21 -94 20 -46 63
-98 83 -98 11 0 7 7 -11 21 -33 26 -56 69 -72 137 -7 28 -11 52 -11 52 1 0 20
-7 42 -15 51 -18 129 -18 180 0 21 8 41 12 43 10 2 -2 -1 -26 -8 -54 -14 -58
-57 -129 -83 -137 -10 -3 -16 -8 -14 -11 12 -12 47 10 69 45 29 43 44 88 54
155 l6 47 -63 0 c-62 1 -63 1 -39 16 48 30 82 100 96 197 l6 47 -48 1 c-27 1
-72 1 -99 -1 -41 -1 -54 3 -72 22 -27 29 -59 101 -66 150 l-6 38 25 -16 c36
-24 140 -29 194 -10 24 8 46 13 48 11 9 -9 -22 -108 -45 -141 -25 -38 -24 -62
2 -28 26 34 45 81 55 135 16 85 27 79 -140 79 l-150 0 0 -33z m117 -274 c53
-5 96 2 147 23 17 7 18 4 12 -32 -12 -62 -40 -117 -75 -147 -39 -32 -55 -33
-99 -7 -36 22 -76 98 -85 162 l-6 38 24 -16 c13 -9 50 -18 82 -21z"/>
<path d="M645 1013 c12 -87 38 -151 75 -180 12 -10 6 -12 -33 -13 l-48 0 6
-47 c23 -171 122 -260 210 -191 34 26 75 112 74 153 -1 28 -1 28 -10 -8 -20
-85 -63 -142 -116 -153 -43 -8 -95 40 -123 112 -26 70 -27 99 -2 89 50 -22
114 -29 168 -17 60 12 84 26 84 48 0 9 -12 14 -37 14 -34 0 -35 1 -20 18 26
28 57 104 56 137 -1 28 -2 28 -10 -8 -11 -47 -35 -95 -62 -124 -15 -17 -32
-23 -63 -23 -35 0 -47 5 -73 35 -16 19 -37 58 -46 87 -20 68 -20 82 3 73 50
-22 114 -29 168 -17 60 12 84 26 84 48 0 11 -29 14 -146 14 l-145 0 6 -47z"/>
</g>
</svg>
