<?xml version="1.0" standalone="no"?>
<!DOCTYPE svg PUBLIC "-//W3C//DTD SVG 20010904//EN"
 "http://www.w3.org/TR/2001/REC-SVG-20010904/DTD/svg10.dtd">
<svg version="1.0" xmlns="http://www.w3.org/2000/svg"
 width="161.000000pt" height="164.000000pt" viewBox="0 0 161.000000 164.000000"
 preserveAspectRatio="xMidYMid meet">
<metadata>
Created by potrace 1.16, written by Peter Selinger 2001-2019
</metadata>
<g transform="translate(0.000000,164.000000) scale(0.100000,-0.100000)"
fill="#000000" stroke="none">
<path d="M470 1310 l0 -33 -24 22 -24 23 -11 -21 c-10 -18 -9 -21 11 -21 43 0
47 -11 50 -125 l3 -110 65 3 c90 5 184 28 240 58 33 18 55 24 71 19 22 -6 23
-5 6 8 -13 11 -15 20 -8 38 29 79 -101 153 -291 166 l-88 6 0 -33z m152 5
c100 -17 164 -43 196 -78 28 -29 27 -74 0 -69 -16 3 -23 -8 -19 -30 1 -8 -23
-23 -63 -37 -19 -8 -30 -6 -51 11 -22 17 -29 19 -36 7 -14 -23 -11 -29 19 -30
l27 -1 -25 -7 c-14 -4 -49 -11 -79 -15 l-54 -7 30 35 c40 45 50 99 27 155 -9
23 -28 50 -42 61 -13 11 -22 20 -20 20 3 0 44 -7 90 -15z"/>
<path d="M618 1282 c-4 -15 3 -21 33 -29 22 -6 39 -8 39 -6 0 6 -54 52 -61 53
-4 0 -9 -8 -11 -18z"/>
<path d="M920 1310 l0 -33 -24 22 -24 23 -11 -21 c-10 -18 -9 -21 11 -21 43 0
47 -11 50 -125 l3 -110 65 3 c90 5 184 28 241 58 26 15 55 24 63 21 9 -4 16
-2 16 2 0 5 -5 11 -11 13 -9 3 -9 10 0 26 40 75 -100 156 -291 169 l-88 6 0
-33z m152 5 c100 -17 164 -43 196 -78 28 -29 27 -74 0 -69 -12 2 -20 -6 -24
-23 -3 -14 -7 -25 -9 -25 -1 0 -19 -7 -39 -15 -34 -14 -37 -14 -57 6 -22 22
-22 22 -36 3 -13 -17 -12 -20 14 -25 25 -5 24 -6 -17 -13 -25 -4 -61 -10 -80
-13 l-35 -6 32 36 c18 20 35 53 39 72 8 45 -18 117 -53 145 -14 11 -23 20 -21
20 3 0 44 -7 90 -15z"/>
<path d="M1068 1282 c-4 -15 3 -21 33 -29 22 -6 39 -8 39 -6 0 6 -54 52 -61
53 -4 0 -9 -8 -11 -18z"/>
<path d="M470 970 l0 -33 -24 22 c-24 23 -24 23 -35 2 -10 -18 -8 -21 24 -27
l35 -6 0 -114 0 -114 44 0 c75 0 209 30 262 59 37 20 57 25 73 20 11 -5 21 -4
21 0 0 5 -7 11 -15 15 -12 4 -13 11 -5 31 30 80 -101 155 -302 171 l-78 7 0
-33z m243 -20 c76 -24 130 -68 125 -102 -2 -15 -9 -22 -20 -20 -17 3 -20 -1
-22 -30 -1 -14 -53 -47 -75 -48 -8 0 -25 9 -37 21 l-22 21 -11 -21 c-10 -18
-9 -21 11 -21 46 0 2 -19 -60 -26 l-64 -7 25 25 c57 57 56 155 -1 213 l-27 28
56 -6 c31 -4 86 -16 122 -27z"/>
<path d="M620 940 c-12 -22 -11 -23 43 -34 15 -4 27 -5 27 -4 0 2 -13 16 -29
31 -29 27 -30 27 -41 7z"/>
<path d="M920 970 l0 -33 -24 22 c-24 23 -24 23 -35 2 -10 -18 -8 -21 24 -27
l35 -6 0 -116 0 -115 83 7 c97 7 166 24 227 56 25 13 54 23 65 21 16 -2 17 0
8 9 -8 9 -9 20 -3 36 31 81 -97 153 -304 171 l-76 6 0 -33z m243 -20 c76 -24
130 -68 125 -102 -2 -15 -9 -22 -20 -20 -17 3 -20 -1 -22 -30 -1 -14 -53 -47
-75 -48 -8 0 -25 9 -37 21 l-22 21 -11 -21 c-10 -18 -9 -21 11 -21 47 0 1 -20
-61 -26 l-63 -7 25 25 c58 58 58 154 0 213 l-28 28 56 -6 c31 -4 86 -16 122
-27z"/>
<path d="M1070 940 c-12 -22 -11 -23 43 -34 15 -4 27 -5 27 -4 0 2 -13 16 -29
31 -29 27 -30 27 -41 7z"/>
<path d="M310 640 c-14 -26 -15 -26 35 -33 37 -6 39 -5 20 9 -11 8 -25 21 -32
30 -10 14 -13 13 -23 -6z"/>
<path d="M1026 624 c-8 -21 -9 -20 39 -27 l40 -7 -30 25 c-36 29 -41 30 -49 9z"/>
<path d="M470 532 c0 -56 -4 -102 -9 -102 -4 0 -20 11 -34 24 -26 24 -27 24
-37 6 -12 -22 -8 -25 43 -34 35 -7 37 -9 37 -46 l0 -40 98 0 c110 0 278 21
372 45 125 32 177 75 150 125 -30 57 -232 107 -467 117 l-153 6 0 -101z m345
63 c152 -24 245 -58 265 -95 34 -63 -161 -124 -463 -146 l-98 -6 25 36 c46 68
46 134 0 201 l-25 38 103 -7 c57 -4 144 -13 193 -21z"/>
<path d="M726 493 c-4 -9 -5 -17 -4 -18 7 -5 72 -25 74 -22 2 1 -12 15 -31 30
-28 23 -34 24 -39 10z"/>
<path d="M980 340 c-14 -26 -15 -26 35 -33 37 -6 39 -5 20 9 -11 8 -25 21 -32
30 -10 14 -13 13 -23 -6z"/>
</g>
</svg>
