<?xml version="1.0" standalone="no"?>
<!DOCTYPE svg PUBLIC "-//W3C//DTD SVG 20010904//EN"
 "http://www.w3.org/TR/2001/REC-SVG-20010904/DTD/svg10.dtd">
<svg version="1.0" xmlns="http://www.w3.org/2000/svg"
 width="192.000000pt" height="161.000000pt" viewBox="0 0 192.000000 161.000000"
 preserveAspectRatio="xMidYMid meet">
<metadata>
Created by potrace 1.16, written by Peter Selinger 2001-2019
</metadata>
<g transform="translate(0.000000,161.000000) scale(0.100000,-0.100000)"
fill="#000000" stroke="none">
<path d="M380 1276 c0 -19 6 -36 13 -39 15 -5 -17 -1 -60 8 -30 6 -33 5 -33
-19 0 -24 4 -26 40 -26 39 0 40 -1 40 -34 0 -19 6 -36 13 -39 14 -5 -39 3 -70
10 -20 4 -23 1 -23 -22 0 -26 2 -27 40 -23 l40 4 0 -38 0 -38 210 0 210 0 0
34 c0 30 4 34 31 40 17 3 44 6 60 6 15 0 30 4 33 9 6 10 -41 21 -90 21 -32 0
-34 2 -34 34 0 30 4 34 31 40 17 3 44 6 60 6 15 0 30 4 33 9 6 10 -41 21 -90
21 -32 0 -34 2 -34 35 l0 35 -210 0 -210 0 0 -34z m410 -6 c0 -27 -2 -29 -30
-23 -27 5 -30 3 -30 -21 0 -22 4 -26 30 -26 28 0 30 -3 30 -35 0 -33 -1 -34
-30 -28 -27 5 -30 3 -30 -21 0 -22 4 -26 30 -26 27 0 30 -3 30 -30 l0 -30
-140 0 -140 0 0 135 0 135 140 0 140 0 0 -30z m-307 -47 c-7 -2 -19 -2 -25 0
-7 3 -2 5 12 5 14 0 19 -2 13 -5z m0 -110 c-7 -2 -19 -2 -25 0 -7 3 -2 5 12 5
14 0 19 -2 13 -5z"/>
<path d="M1070 1274 l0 -36 -40 7 c-38 6 -40 6 -40 -20 0 -26 2 -27 43 -24 38
4 43 2 41 -16 -1 -11 -3 -28 -3 -38 -1 -16 -7 -18 -41 -12 -38 6 -40 6 -40
-20 0 -26 2 -27 43 -24 l43 4 -2 -37 -2 -38 214 0 214 0 0 34 c0 37 15 46 77
46 17 0 34 4 37 9 6 9 -40 21 -85 21 -26 0 -29 3 -29 34 0 37 15 46 83 46 20
0 37 4 37 9 0 12 -36 21 -82 21 -37 0 -38 1 -38 35 l0 35 -215 0 -215 0 0 -36z
m410 -4 c0 -27 -2 -30 -25 -24 -22 5 -25 3 -25 -20 0 -21 5 -26 25 -26 22 0
25 -4 25 -35 0 -33 -2 -35 -25 -29 -22 5 -25 3 -25 -20 0 -21 5 -26 25 -26 21
0 25 -5 25 -30 l0 -30 -135 0 -135 0 0 135 0 135 135 0 135 0 0 -30z m-300
-44 c0 -2 -11 -6 -25 -8 -13 -3 -22 -1 -19 3 5 9 44 13 44 5z m-73 -102 c-3
-3 -12 -4 -19 -1 -8 3 -5 6 6 6 11 1 17 -2 13 -5z m66 -11 c-7 -2 -19 -2 -25
0 -7 3 -2 5 12 5 14 0 19 -2 13 -5z"/>
<path d="M380 914 c0 -36 0 -36 -40 -32 -38 3 -40 2 -40 -24 0 -31 0 -31 50
-19 l35 8 -3 -42 -4 -42 -39 7 c-38 7 -39 7 -39 -21 0 -32 0 -32 50 -20 l35 8
-4 -44 -3 -43 211 0 211 0 0 40 0 40 43 1 c50 1 96 13 82 21 -6 3 -36 9 -67
12 -58 7 -58 7 -58 42 0 32 2 34 34 34 47 0 97 11 91 20 -3 5 -32 11 -65 15
l-60 7 0 34 0 34 -210 0 -210 0 0 -36z m410 -10 c0 -22 -4 -25 -27 -22 -24 3
-28 -1 -28 -22 0 -21 4 -25 28 -22 25 3 27 0 27 -33 0 -32 -2 -35 -31 -35 -26
0 -30 -3 -27 -22 2 -18 9 -23 31 -21 24 2 27 -2 27 -28 l0 -29 -140 0 -140 0
0 130 0 130 140 0 140 0 0 -26z m-319 -52 c-7 -2 -18 1 -23 6 -8 8 -4 9 13 5
13 -4 18 -8 10 -11z m6 -108 c-3 -3 -12 -4 -19 -1 -8 3 -5 6 6 6 11 1 17 -2
13 -5z"/>
<path d="M1075 941 c-3 -6 -3 -21 -1 -36 4 -24 2 -25 -40 -25 -41 0 -45 -2
-42 -22 3 -20 8 -23 41 -20 30 3 37 0 38 -15 0 -10 2 -27 3 -38 2 -18 -3 -20
-42 -16 -41 3 -43 2 -40 -20 3 -25 12 -27 72 -15 23 5 26 3 18 -7 -6 -7 -10
-26 -9 -42 l2 -30 210 0 210 0 3 38 c3 33 6 37 31 37 40 0 91 11 91 20 0 4
-27 10 -60 14 l-60 7 0 34 c0 32 3 35 29 35 40 0 91 11 91 20 0 4 -27 10 -59
14 -58 7 -60 8 -63 39 l-3 32 -207 3 c-126 1 -209 -1 -213 -7z m405 -37 c0
-23 -3 -26 -25 -22 -22 5 -25 2 -25 -24 0 -27 3 -30 25 -24 23 6 25 4 25 -30
0 -33 -2 -36 -25 -32 -22 5 -25 2 -25 -24 0 -27 3 -30 25 -24 23 6 25 3 25
-24 l0 -30 -135 0 -135 0 0 130 0 130 135 0 135 0 0 -26z m-307 -51 c-7 -2
-19 -2 -25 0 -7 3 -2 5 12 5 14 0 19 -2 13 -5z m-8 -103 c19 -8 19 -9 -2 -9
-12 -1 -25 4 -28 9 -7 12 2 12 30 0z"/>
<path d="M380 556 c0 -19 6 -36 13 -39 15 -5 -17 -1 -60 8 -30 6 -33 5 -33
-19 0 -24 4 -26 40 -26 39 0 40 -1 40 -34 0 -19 6 -36 13 -39 14 -5 -39 3 -70
10 -20 4 -23 1 -23 -22 0 -26 2 -27 40 -23 39 3 40 3 40 -29 l0 -33 65 0 65 0
0 135 0 135 140 0 140 0 0 -30 c0 -27 -2 -29 -30 -23 -27 5 -30 3 -30 -21 0
-22 4 -26 30 -26 28 0 30 -3 30 -36 0 -34 -1 -35 -30 -29 -27 6 -30 4 -30 -19
0 -22 4 -26 29 -26 26 0 30 -4 34 -32 l4 -33 1 31 c2 27 7 32 33 38 17 3 44 6
60 6 15 0 30 4 33 9 6 10 -41 21 -90 21 -32 0 -34 2 -34 34 0 30 4 34 31 40
17 3 44 6 60 6 15 0 30 4 33 9 6 10 -41 21 -90 21 -32 0 -34 2 -34 35 l0 35
-210 0 -210 0 0 -34z m103 -53 c-7 -2 -19 -2 -25 0 -7 3 -2 5 12 5 14 0 19 -2
13 -5z m0 -110 c-7 -2 -19 -2 -25 0 -7 3 -2 5 12 5 14 0 19 -2 13 -5z"/>
</g>
</svg>
