<?xml version="1.0" standalone="no"?>
<!DOCTYPE svg PUBLIC "-//W3C//DTD SVG 20010904//EN"
 "http://www.w3.org/TR/2001/REC-SVG-20010904/DTD/svg10.dtd">
<svg version="1.0" xmlns="http://www.w3.org/2000/svg"
 width="139.000000pt" height="153.000000pt" viewBox="0 0 139.000000 153.000000"
 preserveAspectRatio="xMidYMid meet">
<metadata>
Created by potrace 1.16, written by Peter Selinger 2001-2019
</metadata>
<g transform="translate(0.000000,153.000000) scale(0.100000,-0.100000)"
fill="#000000" stroke="none">
<path d="M302 1084 l3 -149 65 3 c178 9 310 72 310 148 0 69 -126 130 -293
141 l-88 6 3 -149z m200 110 c103 -24 168 -69 168 -115 0 -47 -123 -107 -254
-124 l-49 -7 26 31 c59 70 51 179 -16 226 -21 15 -20 16 23 9 25 -3 71 -12
102 -20z"/>
<path d="M712 1084 l3 -149 65 3 c175 9 310 72 310 145 0 70 -129 134 -293
144 l-88 6 3 -149z m202 110 c76 -19 136 -52 155 -86 14 -25 14 -29 -5 -55
-38 -50 -115 -81 -244 -98 -53 -6 -54 -6 -32 10 67 49 71 170 7 229 l-26 24
43 -5 c24 -3 70 -11 102 -19z"/>
<path d="M300 769 l0 -152 78 7 c232 21 354 107 282 198 -37 47 -198 97 -317
98 l-43 0 0 -151z m247 100 c70 -23 123 -66 123 -99 0 -52 -112 -109 -245
-125 l-60 -7 28 30 c54 57 54 147 0 204 l-28 31 60 -7 c33 -3 88 -16 122 -27z"/>
<path d="M710 770 l0 -150 34 0 c56 0 201 28 247 49 129 55 131 146 4 202 -53
24 -178 49 -241 49 l-44 0 0 -150z m205 110 c174 -44 213 -120 95 -184 -47
-26 -159 -55 -209 -56 l-24 0 20 23 c32 35 43 62 43 107 0 45 -11 72 -43 108
l-20 22 30 0 c16 0 65 -9 108 -20z"/>
<path d="M310 455 l0 -145 24 0 c53 0 98 101 81 179 -4 17 -18 45 -32 61 l-25
30 45 0 c77 0 248 -20 339 -40 277 -60 229 -158 -99 -204 -161 -23 -163 -23
-98 -24 115 -2 315 46 369 89 77 61 -24 132 -239 169 -45 7 -297 29 -357 30
-5 0 -8 -65 -8 -145z"/>
</g>
</svg>
