<?xml version="1.0" standalone="no"?>
<!DOCTYPE svg PUBLIC "-//W3C//DTD SVG 20010904//EN"
 "http://www.w3.org/TR/2001/REC-SVG-20010904/DTD/svg10.dtd">
<svg version="1.0" xmlns="http://www.w3.org/2000/svg"
 width="140.000000pt" height="156.000000pt" viewBox="0 0 140.000000 156.000000"
 preserveAspectRatio="xMidYMid meet">
<metadata>
Created by potrace 1.16, written by Peter Selinger 2001-2019
</metadata>
<g transform="translate(0.000000,156.000000) scale(0.100000,-0.100000)"
fill="#000000" stroke="none">
<path d="M385 1250 c-11 -4 -33 -22 -49 -39 -39 -41 -47 -120 -17 -168 41 -65
144 -87 203 -43 l29 21 74 -42 c41 -24 75 -46 75 -50 0 -3 -7 -12 -16 -20 -72
-59 -52 -187 36 -231 47 -24 88 -22 134 6 l39 23 71 -41 c96 -56 129 -70 124
-54 -2 7 -42 38 -88 69 l-84 57 3 60 c2 54 0 63 -29 95 -33 39 -87 62 -125 54
-17 -3 -48 12 -108 52 -82 55 -83 56 -76 90 12 58 -14 121 -64 151 -33 21 -96
25 -132 10z m475 -516 c0 -2 -9 0 -20 6 -11 6 -20 13 -20 16 0 2 9 0 20 -6 11
-6 20 -13 20 -16z"/>
<path d="M715 1244 c-45 -22 -68 -61 -72 -118 -5 -67 21 -110 82 -137 52 -23
100 -18 140 13 l25 20 78 -45 c145 -85 170 -71 34 18 l-88 58 4 52 c5 63 -15
107 -61 135 -38 24 -100 25 -142 4z"/>
<path d="M380 932 c-19 -9 -45 -32 -57 -51 -46 -69 -19 -165 57 -203 48 -24
88 -22 134 6 l40 24 38 -24 c47 -30 153 -84 163 -84 17 0 -31 42 -105 90 -77
51 -78 52 -69 83 18 63 -25 140 -94 166 -40 15 -67 14 -107 -7z m140 -198 c0
-2 -9 0 -20 6 -11 6 -20 13 -20 16 0 2 9 0 20 -6 11 -6 20 -13 20 -16z"/>
<path d="M397 636 c-66 -24 -97 -66 -97 -131 0 -115 117 -181 219 -124 l38 21
88 -51 c85 -49 124 -63 110 -41 -4 6 -46 37 -95 70 -86 58 -88 60 -80 89 13
46 -7 106 -47 141 -18 17 -42 30 -53 30 -10 0 -24 2 -32 5 -7 2 -30 -2 -51 -9z
m83 -182 c0 -2 -9 0 -20 6 -11 6 -20 13 -20 16 0 2 9 0 20 -6 11 -6 20 -13 20
-16z"/>
</g>
</svg>
