<?xml version="1.0" standalone="no"?>
<!DOCTYPE svg PUBLIC "-//W3C//DTD SVG 20010904//EN"
 "http://www.w3.org/TR/2001/REC-SVG-20010904/DTD/svg10.dtd">
<svg version="1.0" xmlns="http://www.w3.org/2000/svg"
 width="148.000000pt" height="323.000000pt" viewBox="0 0 148.000000 323.000000"
 preserveAspectRatio="xMidYMid meet">
<metadata>
Created by potrace 1.16, written by Peter Selinger 2001-2019
</metadata>
<g transform="translate(0.000000,323.000000) scale(0.100000,-0.100000)"
fill="#000000" stroke="none">
<path d="M526 2911 c-65 -43 -86 -132 -46 -198 51 -85 189 -85 240 0 24 39 26
107 5 148 -34 65 -137 91 -199 50z"/>
<path d="M833 2910 c-41 -25 -63 -68 -63 -122 0 -81 58 -138 140 -138 109 0
172 104 124 206 -33 69 -133 96 -201 54z"/>
<path d="M535 2611 c-46 -28 -66 -56 -72 -100 -7 -52 1 -83 33 -120 51 -61
151 -62 209 -1 39 41 47 123 16 173 -39 63 -126 85 -186 48z"/>
<path d="M843 2614 c-47 -23 -73 -71 -73 -132 0 -43 5 -57 31 -87 94 -107 260
-35 247 107 -10 100 -114 157 -205 112z"/>
<path d="M526 2311 c-62 -41 -85 -125 -51 -191 32 -62 129 -89 196 -55 89 47
93 193 6 245 -42 26 -113 26 -151 1z"/>
<path d="M405 873 c-88 -23 -133 -133 -85 -211 77 -126 265 -73 262 76 -1 88
-93 157 -177 135z"/>
<path d="M706 870 c-58 -18 -96 -73 -96 -140 0 -85 72 -147 158 -137 38 4 53
12 84 46 33 35 38 46 38 88 0 103 -90 172 -184 143z"/>
<path d="M1010 869 c-116 -48 -127 -210 -17 -263 61 -28 113 -20 165 27 19 18
22 30 22 103 0 82 0 83 -33 108 -38 29 -101 40 -137 25z"/>
<path d="M368 555 c-55 -31 -83 -114 -59 -178 6 -14 22 -37 38 -51 24 -23 36
-26 96 -26 62 0 71 3 97 28 68 69 53 184 -30 227 -36 19 -107 19 -142 0z"/>
<path d="M673 550 c-80 -49 -85 -183 -9 -234 34 -22 138 -22 172 0 34 23 54
65 54 114 0 83 -57 140 -140 140 -27 0 -58 -8 -77 -20z"/>
</g>
</svg>
