<?xml version="1.0" standalone="no"?>
<!DOCTYPE svg PUBLIC "-//W3C//DTD SVG 20010904//EN"
 "http://www.w3.org/TR/2001/REC-SVG-20010904/DTD/svg10.dtd">
<svg version="1.0" xmlns="http://www.w3.org/2000/svg"
 width="144.000000pt" height="148.000000pt" viewBox="0 0 144.000000 148.000000"
 preserveAspectRatio="xMidYMid meet">
<metadata>
Created by potrace 1.16, written by Peter Selinger 2001-2019
</metadata>
<g transform="translate(0.000000,148.000000) scale(0.100000,-0.100000)"
fill="#000000" stroke="none">
<path d="M445 1169 c-11 -6 -30 -21 -42 -32 -17 -15 -31 -19 -63 -14 -37 5
-40 3 -40 -19 0 -20 5 -24 33 -24 32 0 33 -1 29 -36 -4 -34 -6 -36 -33 -30
-26 5 -29 3 -29 -19 0 -22 4 -25 37 -25 28 0 45 -8 70 -32 28 -27 42 -32 92
-36 58 -4 60 -3 104 37 32 30 53 41 76 41 17 0 31 5 31 10 0 6 -13 10 -30 10
-28 0 -30 3 -30 35 0 19 -1 38 -2 43 -2 4 12 8 30 10 17 2 32 7 32 13 0 8 -12
11 -67 13 -10 1 -29 14 -44 30 -21 24 -35 30 -80 33 -30 2 -63 -2 -74 -8z
m122 -55 c-3 -3 -12 -4 -19 -1 -8 3 -5 6 6 6 11 1 17 -2 13 -5z m-92 -14 c-3
-5 -13 -10 -21 -10 -8 0 -12 5 -9 10 3 6 13 10 21 10 8 0 12 -4 9 -10z m78
-17 c-7 -2 -19 -2 -25 0 -7 3 -2 5 12 5 14 0 19 -2 13 -5z m14 -79 c-3 -3 -12
-4 -19 -1 -8 3 -5 6 6 6 11 1 17 -2 13 -5z m-92 -14 c-3 -5 -13 -10 -21 -10
-8 0 -12 5 -9 10 3 6 13 10 21 10 8 0 12 -4 9 -10z"/>
<path d="M855 1149 c-31 -27 -41 -31 -75 -26 -37 5 -40 3 -40 -19 0 -20 5 -24
30 -24 28 0 30 -3 30 -36 0 -35 -1 -36 -30 -30 -27 5 -30 3 -30 -19 0 -22 4
-25 39 -25 27 0 44 -6 53 -18 24 -33 62 -52 106 -52 49 0 86 17 121 54 15 16
35 26 53 26 35 0 37 18 2 22 -23 3 -27 8 -29 46 -3 40 -2 42 26 42 16 0 29 5
29 10 0 6 -10 10 -22 10 -23 0 -37 7 -99 47 -53 35 -119 32 -164 -8z m152 -35
c-3 -3 -12 -4 -19 -1 -8 3 -5 6 6 6 11 1 17 -2 13 -5z m-92 -14 c-3 -5 -13
-10 -21 -10 -8 0 -12 5 -9 10 3 6 13 10 21 10 8 0 12 -4 9 -10z m78 -17 c-7
-2 -19 -2 -25 0 -7 3 -2 5 12 5 14 0 19 -2 13 -5z m-78 -93 c-3 -5 -13 -10
-21 -10 -8 0 -12 5 -9 10 3 6 13 10 21 10 8 0 12 -4 9 -10z m78 -17 c-7 -2
-19 -2 -25 0 -7 3 -2 5 12 5 14 0 19 -2 13 -5z"/>
<path d="M445 868 c-11 -6 -30 -20 -42 -30 -16 -15 -32 -19 -62 -16 -39 3 -41
2 -41 -24 0 -25 2 -26 33 -21 33 5 33 5 29 -32 -4 -34 -6 -37 -33 -33 -26 4
-29 2 -29 -23 0 -26 2 -27 35 -22 31 5 40 1 67 -26 59 -60 149 -60 205 0 17
18 42 32 66 35 44 8 50 24 8 24 -26 0 -29 3 -33 40 -4 41 4 50 43 50 10 0 19
5 19 10 0 9 -61 15 -75 8 -2 -2 -12 7 -20 20 -33 46 -121 67 -170 40z m102
-54 c-3 -3 -12 -4 -19 -1 -8 3 -5 6 6 6 11 1 17 -2 13 -5z m-72 -14 c3 -5 -1
-10 -9 -10 -8 0 -18 5 -21 10 -3 6 1 10 9 10 8 0 18 -4 21 -10z m118 -17 c-7
-2 -21 -2 -30 0 -10 3 -4 5 12 5 17 0 24 -2 18 -5z m-46 -79 c-3 -3 -12 -4
-19 -1 -8 3 -5 6 6 6 11 1 17 -2 13 -5z m-72 -14 c3 -5 -1 -10 -9 -10 -8 0
-18 5 -21 10 -3 6 1 10 9 10 8 0 18 -4 21 -10z m118 -17 c-7 -2 -21 -2 -30 0
-10 3 -4 5 12 5 17 0 24 -2 18 -5z"/>
<path d="M885 868 c-11 -6 -30 -20 -42 -30 -16 -15 -32 -19 -62 -16 -39 3 -41
2 -41 -24 0 -25 2 -27 30 -21 29 5 30 4 30 -32 0 -36 -1 -37 -30 -33 -27 4
-30 2 -30 -23 0 -27 2 -28 33 -23 17 3 38 8 45 10 7 2 10 -1 7 -6 -10 -16 40
-58 82 -69 51 -14 101 0 138 39 16 16 43 33 62 36 40 7 43 21 7 26 -23 3 -27
8 -29 41 -2 35 1 39 27 44 37 7 36 23 -2 23 -16 0 -32 -1 -35 -2 -2 -2 -12 7
-20 20 -33 46 -121 67 -170 40z m102 -54 c-3 -3 -12 -4 -19 -1 -8 3 -5 6 6 6
11 1 17 -2 13 -5z m-77 -14 c13 -8 13 -10 -2 -10 -9 0 -20 5 -23 10 -8 13 5
13 25 0z m113 -17 c-7 -2 -19 -2 -25 0 -7 3 -2 5 12 5 14 0 19 -2 13 -5z m-36
-79 c-3 -3 -12 -4 -19 -1 -8 3 -5 6 6 6 11 1 17 -2 13 -5z m-72 -14 c3 -5 -1
-10 -9 -10 -8 0 -18 5 -21 10 -3 6 1 10 9 10 8 0 18 -4 21 -10z m108 -17 c-7
-2 -19 -2 -25 0 -7 3 -2 5 12 5 14 0 19 -2 13 -5z"/>
<path d="M442 563 c-19 -9 -38 -24 -44 -32 -7 -12 -22 -15 -54 -12 -42 3 -44
2 -44 -24 0 -26 2 -27 33 -22 32 5 33 4 29 -29 -4 -30 -8 -34 -33 -34 -25 0
-29 -4 -29 -26 0 -25 2 -26 40 -20 33 5 41 3 50 -14 35 -65 195 -66 229 -1 6
11 26 21 51 25 43 7 47 26 5 26 -19 0 -23 6 -27 39 -3 38 -2 40 30 46 42 8 32
25 -16 25 -25 0 -41 6 -49 18 -15 25 -74 52 -110 52 -15 0 -43 -8 -61 -17z
m41 -70 c-7 -2 -19 -2 -25 0 -7 3 -2 5 12 5 14 0 19 -2 13 -5z m-76 -9 c-3 -3
-12 -4 -19 -1 -8 3 -5 6 6 6 11 1 17 -2 13 -5z m206 -1 c-7 -2 -19 -2 -25 0
-7 3 -2 5 12 5 14 0 19 -2 13 -5z m-130 -100 c-7 -2 -19 -2 -25 0 -7 3 -2 5
12 5 14 0 19 -2 13 -5z m-66 -9 c-3 -3 -12 -4 -19 -1 -8 3 -5 6 6 6 11 1 17
-2 13 -5z m196 -1 c-7 -2 -19 -2 -25 0 -7 3 -2 5 12 5 14 0 19 -2 13 -5z"/>
</g>
</svg>
