<?xml version="1.0" standalone="no"?>
<!DOCTYPE svg PUBLIC "-//W3C//DTD SVG 20010904//EN"
 "http://www.w3.org/TR/2001/REC-SVG-20010904/DTD/svg10.dtd">
<svg version="1.0" xmlns="http://www.w3.org/2000/svg"
 width="144.000000pt" height="152.000000pt" viewBox="0 0 144.000000 152.000000"
 preserveAspectRatio="xMidYMid meet">
<metadata>
Created by potrace 1.16, written by Peter Selinger 2001-2019
</metadata>
<g transform="translate(0.000000,152.000000) scale(0.100000,-0.100000)"
fill="#000000" stroke="none">
<path d="M365 1200 c-118 -77 -65 -260 75 -260 42 0 110 29 110 47 0 16 117 9
136 -8 33 -28 61 -39 105 -39 41 0 109 32 109 51 0 6 3 8 8 5 4 -2 59 -1 122
3 88 6 107 10 83 16 -36 8 -38 17 -27 88 6 31 11 37 30 37 13 0 24 5 24 10 0
6 -46 10 -117 10 -113 0 -118 1 -144 26 -50 48 -155 42 -198 -10 -9 -11 -31
-16 -66 -16 -35 0 -57 5 -66 16 -38 46 -132 58 -184 24z m33 -67 c-10 -2 -26
-2 -35 0 -10 3 -2 5 17 5 19 0 27 -2 18 -5z m355 0 c-7 -2 -19 -2 -25 0 -7 3
-2 5 12 5 14 0 19 -2 13 -5z m262 -56 c6 -49 4 -57 -11 -57 -14 0 -16 6 -10
38 3 20 6 48 6 61 0 42 9 18 15 -42z m45 3 c0 -33 -4 -60 -10 -60 -11 0 -14
103 -3 113 12 12 13 8 13 -53z m-473 28 c-3 -8 -6 -5 -6 6 -1 11 2 17 5 13 3
-3 4 -12 1 -19z m43 -33 c0 -30 -4 -55 -10 -55 -11 0 -14 69 -4 94 11 27 14
18 14 -39z m337 -54 c-14 -6 -15 2 -9 59 l7 55 5 -55 c3 -30 1 -57 -3 -59z
m-380 7 c-3 -7 -5 -2 -5 12 0 14 2 19 5 13 2 -7 2 -19 0 -25z m349 -5 c-10
-10 -19 5 -10 18 6 11 8 11 12 0 2 -7 1 -15 -2 -18z m-109 -9 c-3 -3 -12 -4
-19 -1 -8 3 -5 6 6 6 11 1 17 -2 13 -5z m-384 -21 c-7 -2 -19 -2 -25 0 -7 3
-2 5 12 5 14 0 19 -2 13 -5z m350 0 c-7 -2 -21 -2 -30 0 -10 3 -4 5 12 5 17 0
24 -2 18 -5z"/>
<path d="M372 880 c-88 -54 -96 -176 -16 -239 51 -40 138 -36 179 9 26 29 134
29 160 0 24 -26 80 -44 118 -36 16 3 45 17 63 31 30 23 41 25 136 25 57 0 110
5 118 10 11 7 7 10 -17 10 -29 0 -33 3 -33 28 0 15 3 44 6 65 6 31 11 37 33
38 61 3 -36 17 -125 18 -77 1 -94 4 -109 21 -43 47 -132 50 -190 5 -44 -33
-125 -36 -158 -4 -46 44 -112 51 -165 19z m106 -47 c-10 -2 -26 -2 -35 0 -10
3 -2 5 17 5 19 0 27 -2 18 -5z m335 0 c-7 -2 -21 -2 -30 0 -10 3 -4 5 12 5 17
0 24 -2 18 -5z m-350 -20 c-7 -2 -19 -2 -25 0 -7 3 -2 5 12 5 14 0 19 -2 13
-5z m350 0 c-7 -2 -21 -2 -30 0 -10 3 -4 5 12 5 17 0 24 -2 18 -5z m-226 -25
c-3 -8 -6 -5 -6 6 -1 11 2 17 5 13 3 -3 4 -12 1 -19z m380 -87 c-13 -5 -14 0
-8 59 l5 55 6 -55 c3 -30 1 -57 -3 -59z m52 17 c1 -10 -6 -18 -15 -18 -14 0
-15 7 -10 38 3 20 6 46 7 57 1 21 17 -47 18 -77z m41 32 c0 -33 -4 -60 -10
-60 -11 0 -14 103 -3 113 12 12 13 8 13 -53z m-430 0 c0 -27 -4 -50 -10 -50
-11 0 -14 59 -4 84 10 27 14 18 14 -34z m-43 -42 c-3 -7 -5 -2 -5 12 0 14 2
19 5 13 2 -7 2 -19 0 -25z m349 -5 c-10 -10 -19 5 -10 18 6 11 8 11 12 0 2 -7
1 -15 -2 -18z m-513 -10 c-7 -2 -21 -2 -30 0 -10 3 -4 5 12 5 17 0 24 -2 18
-5z m340 0 c-7 -2 -19 -2 -25 0 -7 3 -2 5 12 5 14 0 19 -2 13 -5z"/>
<path d="M380 552 c-89 -44 -107 -153 -37 -229 18 -20 30 -23 97 -23 64 0 80
3 95 20 16 18 31 20 142 20 75 0 123 4 123 10 0 6 -14 10 -30 10 l-31 0 3 62
c3 61 4 63 33 69 39 9 40 8 -100 16 -66 3 -122 9 -125 13 -13 19 -78 50 -105
50 -16 0 -46 -8 -65 -18z m98 -49 c-10 -2 -28 -2 -40 0 -13 2 -5 4 17 4 22 1
32 -1 23 -4z m0 -20 c-10 -2 -26 -2 -35 0 -10 3 -2 5 17 5 19 0 27 -2 18 -5z
m109 -25 c-3 -8 -6 -5 -6 6 -1 11 2 17 5 13 3 -3 4 -12 1 -19z m83 -38 c0 -33
-4 -60 -10 -60 -11 0 -14 78 -4 104 11 28 14 18 14 -44z m49 -27 c1 -23 -4
-33 -14 -33 -17 0 -19 23 -8 85 l7 40 7 -30 c4 -16 7 -45 8 -62z m-89 27 c0
-27 -4 -50 -10 -50 -11 0 -14 83 -3 93 12 12 13 8 13 -43z m-43 -42 c-3 -7 -5
-2 -5 12 0 14 2 19 5 13 2 -7 2 -19 0 -25z"/>
</g>
</svg>
