<?xml version="1.0" standalone="no"?>
<!DOCTYPE svg PUBLIC "-//W3C//DTD SVG 20010904//EN"
 "http://www.w3.org/TR/2001/REC-SVG-20010904/DTD/svg10.dtd">
<svg version="1.0" xmlns="http://www.w3.org/2000/svg"
 width="160.000000pt" height="167.000000pt" viewBox="0 0 160.000000 167.000000"
 preserveAspectRatio="xMidYMid meet">
<metadata>
Created by potrace 1.16, written by Peter Selinger 2001-2019
</metadata>
<g transform="translate(0.000000,167.000000) scale(0.100000,-0.100000)"
fill="#000000" stroke="none">
<path d="M495 1360 c-72 -29 -105 -130 -67 -200 71 -129 268 -77 266 70 -1 56
-21 92 -67 120 -33 21 -96 25 -132 10z m84 -174 c-2 -2 -20 3 -39 10 -19 8
-25 12 -12 10 22 -4 30 8 12 19 -5 3 -10 11 -10 16 0 6 12 -4 26 -21 15 -17
25 -32 23 -34z"/>
<path d="M952 1350 c-125 -77 -72 -263 75 -263 50 0 86 22 121 73 78 116 -74
264 -196 190z m97 -164 c-2 -2 -20 3 -39 10 -19 8 -25 12 -12 10 22 -4 30 8
12 19 -5 3 -10 11 -10 16 0 6 12 -4 26 -21 15 -17 25 -32 23 -34z"/>
<path d="M755 1339 c-8 -25 -9 -24 35 -33 l34 -6 -29 30 c-16 16 -30 30 -31
30 -2 0 -6 -9 -9 -21z"/>
<path d="M1223 1335 c-7 -20 -6 -21 41 -29 l39 -8 -30 26 c-36 30 -42 31 -50
11z"/>
<path d="M306 1324 c-8 -21 -9 -20 39 -28 l40 -7 -30 25 c-36 30 -41 31 -49
10z"/>
<path d="M701 1102 c-8 -16 -4 -20 30 -29 46 -12 48 -6 9 25 -28 22 -29 22
-39 4z"/>
<path d="M1171 1102 c-8 -16 -4 -20 30 -29 46 -12 48 -6 9 25 -28 22 -29 22
-39 4z"/>
<path d="M523 990 c-47 -11 -78 -34 -97 -73 -45 -96 12 -196 116 -205 63 -5
112 22 141 78 53 102 -47 226 -160 200z m36 -151 l24 -32 -29 7 c-16 4 -33 11
-38 16 -5 5 1 6 15 3 20 -5 22 -3 12 8 -12 12 -17 29 -10 29 2 0 14 -14 26
-31z"/>
<path d="M985 989 c-40 -12 -58 -27 -84 -69 -26 -44 -27 -95 -1 -138 60 -98
200 -94 253 8 54 105 -55 234 -168 199z m44 -150 l24 -32 -29 7 c-16 4 -33 11
-38 16 -5 5 1 6 14 3 20 -5 21 -4 11 16 -17 30 -8 26 18 -10z"/>
<path d="M751 963 c-8 -15 -3 -20 32 -30 23 -7 42 -11 44 -10 1 2 -13 15 -32
30 -31 25 -35 26 -44 10z"/>
<path d="M1221 963 c-8 -15 -3 -20 32 -30 23 -7 42 -11 44 -10 1 2 -13 15 -32
30 -31 25 -35 26 -44 10z"/>
<path d="M307 951 c-3 -14 2 -21 18 -25 13 -3 31 -9 42 -12 11 -4 5 5 -15 25
-39 37 -38 36 -45 12z"/>
<path d="M696 724 c-8 -21 -9 -20 39 -28 l40 -7 -30 25 c-36 30 -41 31 -49 10z"/>
<path d="M1166 724 c-8 -21 -9 -20 39 -28 l40 -7 -30 25 c-36 30 -41 31 -49
10z"/>
<path d="M491 592 c-60 -30 -93 -102 -77 -166 17 -67 98 -115 170 -102 50 10
102 64 111 115 10 59 -21 124 -74 150 -49 26 -85 26 -130 3z m85 -170 c-2 -1
-19 4 -37 12 -19 9 -23 13 -11 10 22 -5 23 -4 12 18 -9 18 -6 17 14 -7 14 -16
24 -31 22 -33z"/>
<path d="M751 572 c-9 -17 -6 -20 26 -25 20 -4 38 -5 39 -4 1 1 -11 12 -27 25
-27 22 -28 22 -38 4z"/>
<path d="M306 564 c-8 -20 -10 -18 37 -31 44 -13 46 -10 10 22 -33 29 -39 30
-47 9z"/>
<path d="M700 341 c-12 -23 -11 -24 45 -36 30 -6 30 -6 10 12 -11 10 -25 24
-32 31 -9 11 -13 10 -23 -7z"/>
</g>
</svg>
