<?xml version="1.0" standalone="no"?>
<!DOCTYPE svg PUBLIC "-//W3C//DTD SVG 20010904//EN"
 "http://www.w3.org/TR/2001/REC-SVG-20010904/DTD/svg10.dtd">
<svg version="1.0" xmlns="http://www.w3.org/2000/svg"
 width="204.000000pt" height="250.000000pt" viewBox="0 0 204.000000 250.000000"
 preserveAspectRatio="xMidYMid meet">
<metadata>
Created by potrace 1.16, written by Peter Selinger 2001-2019
</metadata>
<g transform="translate(0.000000,250.000000) scale(0.100000,-0.100000)"
fill="#000000" stroke="none">
<path d="M300 1910 l0 -293 83 6 c163 13 311 71 386 152 l41 45 0 -102 0 -101
138 6 c360 16 652 95 752 204 33 35 40 49 40 85 0 38 -5 47 -53 94 -41 39 -73
59 -137 83 -167 65 -351 98 -587 108 l-153 6 0 -99 0 -98 -47 46 c-85 83 -215
133 -375 145 l-88 6 0 -293z m225 248 c153 -38 285 -135 285 -210 l0 -23 -174
3 -174 3 -7 47 c-11 71 -43 149 -76 182 l-30 30 48 -6 c26 -3 84 -15 128 -26z
m645 7 c236 -30 447 -102 520 -179 69 -72 37 -148 -89 -214 -140 -73 -358
-118 -659 -135 l-73 -4 20 21 c32 34 70 127 77 189 6 55 8 57 36 57 17 0 27 4
23 10 -3 6 -17 10 -29 10 -21 0 -24 6 -30 58 -7 66 -44 151 -81 188 l-26 26
98 -7 c54 -3 150 -13 213 -20z m-360 -294 c0 -46 -78 -124 -164 -165 -74 -36
-190 -66 -250 -66 l-35 0 24 26 c27 30 59 108 70 172 5 34 11 42 28 43 12 1
83 5 157 8 74 4 143 8 153 9 13 2 17 -5 17 -27z"/>
<path d="M1095 1929 c-2 -3 -1 -16 2 -28 6 -22 9 -23 67 -18 34 4 161 9 284
13 222 7 304 23 130 25 -51 1 -180 4 -286 8 -107 3 -196 3 -197 0z"/>
<path d="M300 1255 l0 -297 78 7 c166 15 327 79 397 156 l35 39 0 -95 c0 -74
3 -97 14 -101 22 -8 318 14 421 32 250 42 438 122 480 204 85 164 -218 306
-726 341 -88 6 -167 8 -175 5 -11 -4 -14 -27 -14 -102 l0 -98 -34 41 c-67 78
-230 142 -403 158 l-73 7 0 -297z m172 261 c92 -18 164 -45 230 -87 57 -37
108 -100 108 -136 l0 -23 -137 0 c-76 0 -154 3 -174 6 -36 6 -37 8 -49 67 -13
67 -41 129 -73 165 l-20 22 20 0 c12 0 54 -6 95 -14z m732 -11 c278 -42 470
-120 513 -209 32 -68 -10 -128 -131 -186 -140 -67 -361 -114 -594 -126 l-127
-7 26 29 c15 16 32 40 39 54 17 33 40 119 40 153 0 22 4 27 24 27 14 0 28 5
31 10 4 6 -6 10 -23 10 -28 0 -30 2 -36 53 -8 75 -31 135 -68 181 l-32 39 120
-7 c66 -3 164 -13 218 -21z m-394 -288 c0 -58 -98 -146 -209 -188 -55 -21
-184 -49 -223 -49 -18 0 -17 3 10 34 31 35 56 100 67 173 l7 42 91 4 c264 9
257 9 257 -16z"/>
<path d="M1094 1263 c3 -8 6 -19 6 -24 0 -11 551 0 563 11 8 7 -127 15 -436
24 -118 3 -137 1 -133 -11z"/>
<path d="M300 601 l0 -282 37 3 c34 3 41 9 69 56 79 132 66 362 -27 458 l-32
33 79 -5 c441 -27 731 -117 784 -244 33 -79 -64 -163 -258 -224 -89 -28 -283
-66 -341 -66 -27 -1 -32 -3 -20 -10 33 -19 308 35 439 87 84 34 128 62 168
107 146 167 -213 340 -754 363 l-144 6 0 -282z"/>
<path d="M580 597 c1 -36 10 -37 245 -27 127 5 255 10 285 10 35 0 50 4 40 9
-8 5 -140 11 -292 15 -219 5 -278 3 -278 -7z"/>
</g>
</svg>
