<?xml version="1.0" standalone="no"?>
<!DOCTYPE svg PUBLIC "-//W3C//DTD SVG 20010904//EN"
 "http://www.w3.org/TR/2001/REC-SVG-20010904/DTD/svg10.dtd">
<svg version="1.0" xmlns="http://www.w3.org/2000/svg"
 width="140.000000pt" height="244.000000pt" viewBox="0 0 140.000000 244.000000"
 preserveAspectRatio="xMidYMid meet">
<metadata>
Created by potrace 1.16, written by Peter Selinger 2001-2019
</metadata>
<g transform="translate(0.000000,244.000000) scale(0.100000,-0.100000)"
fill="#000000" stroke="none">
<path d="M300 1865 l0 -275 170 0 170 0 0 275 0 275 -170 0 -170 0 0 -275z"/>
<path d="M760 1865 l0 -275 165 0 165 0 0 275 0 275 -165 0 -165 0 0 -275z"/>
<path d="M300 1215 l0 -275 170 0 170 0 0 275 0 275 -170 0 -170 0 0 -275z"/>
<path d="M760 1215 l0 -275 165 0 165 0 0 275 0 275 -165 0 -165 0 0 -275z"/>
<path d="M300 575 l0 -275 170 0 170 0 0 275 0 275 -170 0 -170 0 0 -275z"/>
</g>
</svg>
