<?xml version="1.0" standalone="no"?>
<!DOCTYPE svg PUBLIC "-//W3C//DTD SVG 20010904//EN"
 "http://www.w3.org/TR/2001/REC-SVG-20010904/DTD/svg10.dtd">
<svg version="1.0" xmlns="http://www.w3.org/2000/svg"
 width="176.000000pt" height="234.000000pt" viewBox="0 0 176.000000 234.000000"
 preserveAspectRatio="xMidYMid meet">
<metadata>
Created by potrace 1.16, written by Peter Selinger 2001-2019
</metadata>
<g transform="translate(0.000000,234.000000) scale(0.100000,-0.100000)"
fill="#000000" stroke="none">
<path d="M470 2019 c-151 -68 -213 -240 -139 -387 50 -101 137 -153 255 -154
104 -1 203 62 249 157 24 50 31 160 15 212 -50 153 -236 237 -380 172z"/>
<path d="M1065 2016 c-177 -82 -223 -314 -89 -452 77 -79 177 -105 284 -75
160 44 247 236 176 386 -67 142 -234 205 -371 141z"/>
<path d="M485 1438 c-64 -23 -123 -77 -154 -140 -96 -191 38 -409 249 -407
119 1 200 50 250 152 29 60 32 73 28 139 -4 84 -26 136 -78 188 -54 54 -103
74 -190 77 -41 1 -88 -3 -105 -9z"/>
<path d="M1085 1437 c-85 -33 -148 -98 -175 -180 -16 -52 -9 -162 15 -212 25
-50 80 -105 130 -130 24 -11 69 -21 112 -23 60 -3 80 0 125 20 151 70 211 238
138 385 -49 99 -139 153 -250 152 -36 0 -79 -6 -95 -12z"/>
<path d="M518 856 c-214 -46 -293 -320 -137 -475 136 -135 372 -95 455 77 23
47 30 150 14 206 -18 67 -77 136 -140 168 -68 33 -119 39 -192 24z"/>
</g>
</svg>
