<?xml version="1.0" standalone="no"?>
<!DOCTYPE svg PUBLIC "-//W3C//DTD SVG 20010904//EN"
 "http://www.w3.org/TR/2001/REC-SVG-20010904/DTD/svg10.dtd">
<svg version="1.0" xmlns="http://www.w3.org/2000/svg"
 width="180.000000pt" height="279.000000pt" viewBox="0 0 180.000000 279.000000"
 preserveAspectRatio="xMidYMid meet">
<metadata>
Created by potrace 1.16, written by Peter Selinger 2001-2019
</metadata>
<g transform="translate(0.000000,279.000000) scale(0.100000,-0.100000)"
fill="#000000" stroke="none">
<path d="M300 2458 c0 -69 84 -195 141 -213 22 -7 22 -8 9 -57 -8 -27 -8 -50
0 -79 10 -36 9 -44 -5 -51 -70 -40 -133 -130 -141 -204 l-6 -49 292 0 292 0
-6 49 c-3 26 -17 67 -31 91 -27 47 -100 115 -123 115 -9 0 -12 6 -7 18 14 34
17 91 7 120 -9 27 -7 30 30 53 66 41 127 139 128 207 l0 32 -290 0 -290 0 0
-32z m148 -54 c122 -25 293 -13 375 26 23 11 42 20 43 20 5 0 -14 -58 -29 -86
-20 -38 -73 -91 -110 -111 -27 -14 -31 -13 -53 8 -17 16 -40 24 -76 27 -44 3
-59 0 -90 -21 l-37 -26 -40 27 c-59 40 -111 118 -111 167 0 14 3 14 31 0 17
-9 61 -23 97 -31z m64 -374 c44 -27 111 -26 155 1 29 18 38 19 63 9 54 -22
130 -124 130 -174 0 -11 -10 -10 -52 7 -41 15 -83 21 -182 25 -137 5 -212 -6
-278 -39 l-37 -19 8 28 c21 71 72 140 126 170 27 15 30 15 67 -8z"/>
<path d="M920 2458 c0 -65 58 -158 133 -213 25 -19 26 -22 16 -60 -8 -32 -7
-50 4 -82 l14 -42 -28 -12 c-63 -26 -138 -139 -139 -209 l0 -35 291 0 291 0
-5 47 c-3 26 -13 61 -22 78 -24 46 -81 106 -115 120 -25 10 -29 16 -23 34 10
26 10 106 0 126 -5 11 1 21 22 33 74 43 141 146 141 215 l0 32 -290 0 -290 0
0 -32z m100 -42 c77 -28 298 -30 380 -2 30 10 61 23 68 29 18 14 15 -20 -7
-68 -21 -46 -70 -99 -113 -121 -28 -15 -31 -14 -54 7 -17 16 -40 24 -76 27
-44 3 -59 0 -90 -21 l-37 -26 -40 27 c-51 35 -79 71 -103 134 -18 48 -18 50
-1 43 10 -5 43 -17 73 -29z m102 -383 c10 -9 42 -18 73 -21 43 -4 61 0 90 18
31 19 39 21 65 10 55 -23 106 -91 131 -173 8 -29 8 -29 -16 -13 -95 62 -415
62 -510 0 l-25 -16 15 47 c16 55 57 110 105 143 39 26 48 27 72 5z"/>
<path d="M300 1711 c0 -70 56 -164 123 -207 l44 -27 -15 -38 c-13 -34 -13 -43
0 -83 l15 -45 -28 -12 c-33 -13 -90 -73 -114 -119 -9 -17 -19 -52 -22 -78 l-5
-47 292 0 292 0 -5 47 c-3 26 -13 61 -22 78 -24 47 -81 106 -116 120 -22 9
-28 17 -24 29 14 33 17 91 7 119 -9 27 -7 30 30 53 66 41 127 139 128 207 l0
32 -290 0 -290 0 0 -29z m95 -45 c111 -37 344 -30 429 14 35 17 36 17 36 -1 0
-49 -71 -143 -131 -174 -26 -14 -31 -13 -65 10 -49 33 -109 34 -156 1 l-36
-24 -39 24 c-55 32 -113 121 -113 171 0 11 4 13 13 6 6 -6 35 -18 62 -27z
m114 -387 c39 -29 106 -29 159 1 l41 23 41 -27 c22 -14 53 -45 69 -67 42 -58
55 -132 18 -101 -28 24 -133 42 -239 42 -117 0 -193 -12 -250 -41 l-37 -19 8
28 c21 71 72 140 126 170 28 16 32 15 64 -9z"/>
<path d="M920 1707 c0 -57 56 -154 112 -194 36 -26 47 -40 43 -54 -3 -11 -7
-28 -11 -39 -3 -10 0 -38 6 -62 11 -38 10 -44 -6 -53 -73 -43 -131 -126 -140
-201 l-6 -49 292 0 292 0 -5 47 c-3 26 -13 61 -22 78 -24 47 -81 106 -116 120
-22 10 -28 17 -22 29 9 20 10 111 1 131 -5 11 8 25 45 50 39 27 59 50 84 98
18 36 33 79 33 98 l0 34 -290 0 -290 0 0 -33z m161 -56 c130 -22 316 -5 375
34 21 13 24 13 24 1 0 -51 -60 -139 -117 -173 l-44 -26 -24 23 c-18 17 -40 25
-77 28 -44 3 -59 0 -90 -21 l-37 -26 -40 27 c-46 32 -76 67 -96 116 -25 59
-21 67 23 46 20 -9 67 -23 103 -29z m48 -372 c38 -28 108 -28 160 2 l39 22 36
-22 c59 -37 93 -84 117 -164 8 -29 8 -29 -16 -13 -44 29 -136 46 -247 46 -118
0 -193 -12 -250 -41 -35 -18 -37 -18 -32 -2 29 89 51 124 107 164 48 35 50 35
86 8z"/>
<path d="M304 936 c9 -75 67 -158 141 -201 15 -9 16 -15 5 -53 -11 -35 -11
-48 2 -81 15 -38 15 -38 -13 -55 -67 -39 -139 -145 -139 -203 l0 -23 290 0
290 0 0 23 c0 60 -76 169 -142 203 -22 12 -28 19 -22 32 11 22 11 112 0 135
-6 12 -4 17 6 17 23 0 96 68 123 115 14 24 28 65 31 91 l6 49 -292 0 -292 0 6
-49z m252 -44 c133 -4 215 6 268 33 37 20 42 14 28 -33 -14 -47 -81 -125 -121
-142 -26 -10 -33 -9 -60 11 -43 32 -118 32 -160 1 -37 -27 -57 -23 -106 20
-41 35 -70 80 -83 129 l-10 37 57 -26 c49 -23 72 -27 187 -30z m31 -387 c38 0
59 6 82 23 29 21 33 22 60 8 61 -32 130 -126 131 -178 0 -15 -3 -15 -39 2
-109 53 -363 51 -470 -5 -28 -14 -31 -14 -31 0 0 49 52 127 112 167 l40 28 32
-23 c22 -16 45 -22 83 -22z"/>
</g>
</svg>
