<?xml version="1.0" standalone="no"?>
<!DOCTYPE svg PUBLIC "-//W3C//DTD SVG 20010904//EN"
 "http://www.w3.org/TR/2001/REC-SVG-20010904/DTD/svg10.dtd">
<svg version="1.0" xmlns="http://www.w3.org/2000/svg"
 width="177.000000pt" height="236.000000pt" viewBox="0 0 177.000000 236.000000"
 preserveAspectRatio="xMidYMid meet">
<metadata>
Created by potrace 1.16, written by Peter Selinger 2001-2019
</metadata>
<g transform="translate(0.000000,236.000000) scale(0.100000,-0.100000)"
fill="#000000" stroke="none">
<path d="M487 2046 c-160 -59 -233 -242 -156 -394 50 -102 136 -155 249 -155
162 -1 284 121 283 283 0 110 -61 208 -158 255 -51 24 -166 30 -218 11z m184
-153 c59 -50 73 -116 39 -183 -38 -74 -137 -100 -206 -55 -59 38 -82 131 -49
196 37 71 154 94 216 42z"/>
<path d="M513 1890 c-67 -40 -84 -133 -36 -191 54 -63 124 -72 190 -23 66 50
65 144 -3 204 -42 36 -101 41 -151 10z"/>
<path d="M1063 2030 c-105 -53 -157 -136 -157 -250 1 -162 122 -284 284 -283
114 0 199 54 251 158 29 59 31 71 27 139 -6 84 -33 142 -93 194 -56 50 -94 65
-175 70 -69 3 -80 1 -137 -28z m204 -130 c47 -28 66 -72 61 -138 -4 -48 -10
-60 -41 -88 -46 -43 -94 -52 -153 -29 -102 39 -124 158 -44 237 34 35 42 38
91 38 36 0 65 -7 86 -20z"/>
<path d="M1117 1892 c-41 -25 -70 -91 -61 -139 9 -48 60 -98 109 -107 46 -9
113 22 138 63 36 62 11 153 -52 186 -39 20 -99 19 -134 -3z"/>
<path d="M487 1446 c-74 -27 -146 -99 -173 -173 -16 -47 -18 -133 -3 -183 19
-63 78 -131 142 -164 190 -97 411 40 410 254 0 113 -53 199 -155 249 -69 35
-152 41 -221 17z m193 -161 c62 -60 64 -150 5 -210 -60 -59 -150 -57 -210 5
-22 23 -29 41 -33 83 -8 103 49 161 151 154 46 -3 63 -9 87 -32z"/>
<path d="M513 1290 c-60 -36 -81 -121 -46 -181 24 -40 94 -73 138 -65 77 15
129 99 105 171 -6 19 -27 48 -46 65 -42 36 -101 41 -151 10z"/>
<path d="M1060 1428 c-212 -110 -207 -398 10 -509 34 -17 61 -23 115 -23 118
1 203 53 254 156 69 137 19 295 -116 375 -36 21 -62 27 -122 31 -71 4 -80 2
-141 -30z m207 -128 c42 -25 63 -68 63 -129 0 -55 -28 -99 -81 -126 -78 -41
-182 9 -204 98 -15 60 26 146 79 167 38 16 110 11 143 -10z"/>
<path d="M1140 1303 c-28 -10 -69 -56 -80 -89 -24 -71 28 -155 105 -170 44 -8
114 25 138 65 62 105 -48 236 -163 194z"/>
<path d="M508 856 c-92 -25 -168 -100 -199 -194 -15 -46 -7 -158 15 -200 26
-50 85 -111 130 -134 26 -13 68 -23 112 -26 61 -4 80 -1 125 20 76 35 114 70
146 135 52 107 29 244 -55 326 -70 69 -183 99 -274 73z m142 -146 c43 -22 80
-80 80 -125 0 -37 -23 -86 -54 -114 -34 -32 -119 -41 -165 -17 -99 52 -93 207
9 258 46 23 82 23 130 -2z"/>
<path d="M525 700 c-49 -24 -75 -65 -75 -117 0 -112 131 -175 214 -103 46 40
61 86 46 139 -21 79 -112 119 -185 81z"/>
</g>
</svg>
