<?xml version="1.0" standalone="no"?>
<!DOCTYPE svg PUBLIC "-//W3C//DTD SVG 20010904//EN"
 "http://www.w3.org/TR/2001/REC-SVG-20010904/DTD/svg10.dtd">
<svg version="1.0" xmlns="http://www.w3.org/2000/svg"
 width="129.000000pt" height="165.000000pt" viewBox="0 0 129.000000 165.000000"
 preserveAspectRatio="xMidYMid meet">
<metadata>
Created by potrace 1.16, written by Peter Selinger 2001-2019
</metadata>
<g transform="translate(0.000000,165.000000) scale(0.100000,-0.100000)"
fill="#000000" stroke="none">
<path d="M378 1329 c-48 -25 -67 -54 -74 -116 -5 -38 -2 -58 14 -89 46 -90
120 -116 207 -73 61 30 89 87 83 165 -5 58 -22 81 -85 113 -52 26 -97 26 -145
0z m151 -25 c46 -18 67 -62 58 -124 -8 -64 -28 -93 -78 -114 -42 -17 -51 -17
-90 -5 -78 25 -110 109 -74 195 24 59 105 80 184 48z"/>
<path d="M753 1328 c-49 -25 -73 -72 -73 -142 0 -35 7 -54 33 -88 57 -74 115
-87 197 -42 59 32 85 88 78 164 -5 54 -24 78 -85 109 -53 26 -96 26 -150 -1z
m156 -24 c33 -13 41 -22 51 -60 10 -36 10 -54 -1 -97 -13 -47 -19 -54 -59 -74
-46 -23 -86 -24 -135 -1 -49 22 -71 128 -39 189 28 54 108 73 183 43z"/>
<path d="M380 948 c-51 -26 -71 -60 -78 -130 -5 -53 17 -99 69 -143 66 -55
190 -18 224 67 37 92 13 162 -69 203 -62 31 -89 31 -146 3z m140 -24 c46 -19
70 -56 69 -106 -1 -60 -23 -101 -65 -125 -46 -27 -70 -28 -122 -8 -90 36 -99
190 -13 235 45 24 79 25 131 4z"/>
<path d="M760 948 c-82 -42 -106 -149 -51 -225 41 -56 68 -73 119 -73 64 0
120 34 143 88 40 92 17 166 -64 207 -63 31 -90 31 -147 3z m146 -27 c33 -15
45 -27 54 -56 17 -51 -2 -139 -34 -160 -77 -51 -163 -39 -197 26 -37 73 -17
163 42 192 44 22 84 21 135 -2z"/>
<path d="M373 578 c-88 -45 -98 -170 -20 -255 13 -15 31 -23 51 -22 l31 1 -33
14 c-90 39 -98 195 -12 239 64 33 171 7 189 -47 14 -39 13 -83 -3 -128 -9 -26
-24 -41 -57 -57 -35 -18 -39 -22 -21 -23 67 -1 119 79 110 170 -5 54 -24 78
-85 109 -53 26 -96 26 -150 -1z"/>
<path d="M753 579 c-48 -24 -73 -73 -73 -143 0 -63 51 -130 100 -133 l35 -2
-36 15 c-43 18 -69 66 -69 125 0 106 90 157 199 113 33 -13 41 -22 51 -60 10
-36 10 -54 -1 -97 -13 -47 -19 -54 -59 -74 -35 -17 -40 -22 -22 -23 67 -1 119
79 110 170 -5 54 -24 78 -85 109 -53 26 -97 27 -150 0z"/>
</g>
</svg>
