<?xml version="1.0" standalone="no"?>
<!DOCTYPE svg PUBLIC "-//W3C//DTD SVG 20010904//EN"
 "http://www.w3.org/TR/2001/REC-SVG-20010904/DTD/svg10.dtd">
<svg version="1.0" xmlns="http://www.w3.org/2000/svg"
 width="141.000000pt" height="157.000000pt" viewBox="0 0 141.000000 157.000000"
 preserveAspectRatio="xMidYMid meet">
<metadata>
Created by potrace 1.16, written by Peter Selinger 2001-2019
</metadata>
<g transform="translate(0.000000,157.000000) scale(0.100000,-0.100000)"
fill="#000000" stroke="none">
<path d="M300 1120 c0 -137 2 -150 18 -150 10 0 55 5 100 10 97 12 180 41 222
77 l30 25 0 -57 0 -57 68 7 c92 9 185 31 231 55 41 20 81 63 81 86 0 8 12 15
28 15 27 2 27 2 2 6 -14 3 -44 22 -66 43 -52 48 -145 79 -261 87 l-83 6 0 -53
c0 -50 -1 -52 -17 -38 -52 46 -195 88 -297 88 l-56 0 0 -150z m204 113 c67
-16 126 -44 145 -67 12 -14 4 -16 -80 -16 -111 0 -136 6 -144 31 -4 10 -19 32
-35 48 l-30 29 43 -5 c23 -3 69 -12 101 -20z m345 5 c69 -13 131 -40 155 -67
l19 -21 -94 0 c-106 0 -139 6 -139 26 0 7 -14 29 -31 49 l-31 35 34 -6 c18 -3
57 -10 87 -16z m-179 -119 c0 -6 -15 -26 -33 -44 -36 -36 -121 -67 -216 -80
l-55 -7 28 32 c15 18 30 45 33 61 6 31 24 36 148 42 33 2 68 4 78 5 9 1 17 -3
17 -9z m360 -9 c0 -44 -117 -99 -243 -115 l-57 -7 29 31 c16 17 32 45 36 61 7
33 24 38 129 43 33 1 70 3 83 4 17 2 23 -2 23 -17z"/>
<path d="M300 780 c0 -137 2 -150 18 -150 10 0 55 5 100 10 97 12 180 41 222
77 l30 25 0 -57 0 -57 68 7 c92 9 185 31 231 55 41 20 81 63 81 86 0 8 12 15
28 15 27 2 27 2 2 6 -14 3 -44 22 -66 43 -52 48 -145 79 -261 87 l-83 6 0 -53
c0 -50 -1 -52 -17 -38 -52 46 -195 88 -297 88 l-56 0 0 -150z m204 113 c67
-16 126 -44 145 -67 12 -14 3 -16 -92 -16 -83 0 -109 3 -121 16 -9 8 -16 19
-16 24 0 5 -13 22 -30 38 l-30 30 43 -5 c23 -3 69 -12 101 -20z m416 -14 c30
-10 66 -30 80 -44 l25 -25 -95 0 c-107 0 -140 6 -140 26 0 7 -13 28 -29 47
l-30 33 67 -9 c37 -4 91 -17 122 -28z m-250 -102 c0 -16 -45 -59 -78 -77 -35
-18 -110 -37 -172 -45 l-55 -7 27 29 c15 16 30 43 34 60 7 35 20 39 144 46 30
2 65 4 78 5 12 1 22 -4 22 -11z m360 -6 c0 -45 -117 -100 -243 -116 l-57 -7
29 31 c16 17 32 45 36 61 7 33 22 38 130 43 33 2 70 4 83 5 16 1 22 -3 22 -17z"/>
<path d="M302 453 l3 -148 35 -3 c87 -9 261 39 312 85 17 15 18 13 18 -37 l0
-53 83 6 c143 10 263 60 288 120 7 15 19 27 30 27 10 0 21 5 24 10 4 6 -5 10
-20 10 -17 0 -35 10 -47 25 -39 50 -142 85 -290 100 l-68 7 0 -57 0 -57 -30
25 c-42 36 -125 65 -222 77 -132 16 -119 32 -116 -137z m175 111 c86 -17 138
-41 168 -74 l20 -23 -40 6 c-22 4 -75 7 -117 7 -68 0 -77 2 -83 20 -4 11 -18
34 -32 50 -30 36 -25 37 84 14z m428 -15 c56 -17 126 -61 115 -72 -3 -2 -53
-2 -113 1 l-107 5 -16 34 c-9 18 -26 41 -38 49 -20 15 -17 15 39 9 32 -4 86
-15 120 -26z m-235 -107 c0 -4 -7 -18 -16 -30 -29 -41 -122 -78 -237 -91 l-58
-7 25 20 c28 25 46 57 46 85 0 17 8 20 53 24 105 7 187 7 187 -1z m360 -5 c0
-44 -111 -98 -232 -114 l-67 -9 29 32 c15 18 31 46 35 63 6 27 10 30 53 34
118 9 182 7 182 -6z"/>
</g>
</svg>
