<?xml version="1.0" standalone="no"?>
<!DOCTYPE svg PUBLIC "-//W3C//DTD SVG 20010904//EN"
 "http://www.w3.org/TR/2001/REC-SVG-20010904/DTD/svg10.dtd">
<svg version="1.0" xmlns="http://www.w3.org/2000/svg"
 width="177.000000pt" height="119.000000pt" viewBox="0 0 177.000000 119.000000"
 preserveAspectRatio="xMidYMid meet">
<metadata>
Created by potrace 1.16, written by Peter Selinger 2001-2019
</metadata>
<g transform="translate(0.000000,119.000000) scale(0.100000,-0.100000)"
fill="#000000" stroke="none">
<path d="M373 874 c-111 -55 -91 -232 29 -264 46 -13 107 1 133 30 27 30 113
28 161 -5 56 -38 96 -42 152 -13 26 14 46 29 45 34 -3 19 109 2 143 -21 19
-13 48 -26 64 -30 36 -8 91 9 115 35 14 15 32 20 79 21 71 1 194 15 154 18
-27 1 -28 4 -28 50 0 63 7 81 32 81 10 0 16 5 13 10 -4 6 -53 10 -114 10 -86
0 -111 3 -122 16 -47 57 -161 57 -208 0 -9 -11 -31 -16 -66 -16 -35 0 -57 5
-66 16 -21 25 -65 44 -104 44 -39 0 -83 -19 -104 -44 -17 -21 -126 -23 -134
-3 -8 20 -70 47 -109 47 -18 0 -48 -8 -65 -16z m324 -66 c-3 -7 -5 -2 -5 12 0
14 2 19 5 13 2 -7 2 -19 0 -25z m340 0 c-3 -7 -5 -2 -5 12 0 14 2 19 5 13 2
-7 2 -19 0 -25z m-620 -4 c-3 -3 -12 -4 -19 -1 -8 3 -5 6 6 6 11 1 17 -2 13
-5z m340 0 c-3 -3 -12 -4 -19 -1 -8 3 -5 6 6 6 11 1 17 -2 13 -5z m346 -1 c-7
-2 -21 -2 -30 0 -10 3 -4 5 12 5 17 0 24 -2 18 -5z m250 -60 c3 -40 1 -53 -9
-53 -15 0 -19 56 -7 100 8 29 10 22 16 -47z m45 -50 c-2 -7 -8 -9 -15 -5 -8 5
-10 25 -5 67 l6 60 8 -55 c5 -30 7 -60 6 -67z m-432 -1 c-14 -13 -17 11 -10
60 l9 53 3 -54 c2 -29 1 -56 -2 -59z m301 86 c-3 -8 -6 -5 -6 6 -1 11 2 17 5
13 3 -3 4 -12 1 -19z m43 -33 c0 -30 -4 -55 -10 -55 -11 0 -13 52 -4 88 10 36
14 26 14 -33z m-681 -32 c0 -13 -3 -23 -9 -23 -6 0 -9 23 -9 53 1 44 2 48 9
22 4 -16 8 -40 9 -52z m-39 -3 c0 -11 -4 -20 -9 -20 -5 0 -7 9 -4 20 3 11 7
20 9 20 2 0 4 -9 4 -20z m677 -12 c-3 -7 -5 -2 -5 12 0 14 2 19 5 13 2 -7 2
-19 0 -25z m-340 0 c-3 -8 -6 -5 -6 6 -1 11 2 17 5 13 3 -3 4 -12 1 -19z
m-230 -30 c-3 -8 -6 -5 -6 6 -1 11 2 17 5 13 3 -3 4 -12 1 -19z"/>
<path d="M396 560 c-97 -30 -130 -166 -56 -240 17 -17 33 -20 100 -20 67 0 83
3 100 20 28 28 119 28 145 0 15 -17 31 -20 100 -20 69 0 85 3 100 20 26 28
114 28 140 0 15 -17 31 -20 100 -20 69 0 85 3 100 20 16 18 31 20 132 20 69 0
113 4 113 10 0 6 -11 10 -25 10 -23 0 -25 3 -25 48 0 52 6 64 35 77 14 6 -17
11 -99 18 -104 7 -124 12 -148 32 -53 45 -134 39 -191 -12 -26 -24 -103 -18
-147 12 -65 44 -123 42 -186 -7 -35 -28 -119 -26 -150 3 -19 18 -76 40 -99 38
-5 0 -23 -5 -39 -9z m307 -70 c3 -11 1 -18 -4 -14 -5 3 -9 12 -9 20 0 20 7 17
13 -6z m352 -18 c-3 -3 -11 0 -18 7 -9 10 -8 11 6 5 10 -3 15 -9 12 -12z
m-128 -14 c-3 -8 -6 -5 -6 6 -1 11 2 17 5 13 3 -3 4 -12 1 -19z m39 -96 c-14
-13 -18 12 -10 65 l9 58 3 -59 c2 -32 1 -61 -2 -64z m301 96 c-3 -8 -6 -5 -6
6 -1 11 2 17 5 13 3 -3 4 -12 1 -19z m86 -45 c3 -40 1 -53 -9 -53 -15 0 -19
56 -7 100 8 29 10 22 16 -47z m46 -30 c1 -15 -5 -23 -15 -23 -14 0 -15 7 -10
38 3 20 6 48 7 62 1 28 17 -39 18 -77z m-770 -5 c1 -10 -3 -18 -9 -18 -6 0 -9
25 -9 58 1 56 1 57 10 17 4 -22 8 -48 8 -57z m681 37 c0 -30 -4 -55 -10 -55
-11 0 -13 52 -4 88 10 36 14 26 14 -33z m-720 -30 c0 -14 -4 -25 -9 -25 -4 0
-6 11 -3 25 2 14 6 25 8 25 2 0 4 -11 4 -25z m337 -17 c-3 -7 -5 -2 -5 12 0
14 2 19 5 13 2 -7 2 -19 0 -25z m340 0 c-3 -7 -5 -2 -5 12 0 14 2 19 5 13 2
-7 2 -19 0 -25z m-564 -18 c3 -11 1 -18 -4 -14 -5 3 -9 12 -9 20 0 20 7 17 13
-6z m-286 -16 c-3 -3 -12 -4 -19 -1 -8 3 -5 6 6 6 11 1 17 -2 13 -5z m346 -1
c-7 -2 -21 -2 -30 0 -10 3 -4 5 12 5 17 0 24 -2 18 -5z"/>
</g>
</svg>
