<?xml version="1.0" standalone="no"?>
<!DOCTYPE svg PUBLIC "-//W3C//DTD SVG 20010904//EN"
 "http://www.w3.org/TR/2001/REC-SVG-20010904/DTD/svg10.dtd">
<svg version="1.0" xmlns="http://www.w3.org/2000/svg"
 width="185.000000pt" height="246.000000pt" viewBox="0 0 185.000000 246.000000"
 preserveAspectRatio="xMidYMid meet">
<metadata>
Created by potrace 1.16, written by Peter Selinger 2001-2019
</metadata>
<g transform="translate(0.000000,246.000000) scale(0.100000,-0.100000)"
fill="#000000" stroke="none">
<path d="M390 2044 l0 -116 -45 4 c-43 3 -45 2 -45 -24 0 -27 1 -27 45 -21
l45 6 0 -38 0 -37 -45 4 c-43 3 -45 2 -45 -24 0 -27 1 -27 45 -21 l45 6 0
-102 0 -101 33 0 c59 0 211 27 277 50 113 38 207 107 236 174 12 28 13 19 14
-98 l0 -128 88 7 c178 15 327 71 411 155 27 27 61 52 75 56 31 7 35 24 6 24
-17 0 -20 7 -20 41 0 32 4 42 20 46 28 7 25 23 -5 23 -14 0 -25 4 -25 9 0 5
-20 31 -45 59 -79 88 -233 147 -412 159 l-93 6 0 -129 c-1 -124 -1 -128 -16
-94 -18 43 -46 73 -99 110 -89 60 -262 110 -386 110 l-59 0 0 -116z m235 75
c202 -49 330 -161 308 -270 -6 -33 -8 -33 -130 -20 l-73 7 0 -28 c0 -27 1 -28
48 -22 26 2 66 7 90 9 23 3 42 1 42 -4 0 -16 -88 -90 -138 -115 -61 -31 -173
-63 -252 -72 l-59 -7 39 42 c112 117 104 375 -15 479 l-35 32 47 -6 c27 -3 84
-14 128 -25z m564 0 c103 -24 209 -78 258 -133 l38 -41 -63 -3 c-59 -3 -63 -5
-60 -25 3 -21 7 -22 71 -19 66 4 67 3 67 -21 0 -49 -6 -52 -76 -49 -64 4 -66
3 -62 -20 3 -21 7 -23 56 -20 51 4 53 3 43 -15 -36 -69 -222 -151 -383 -169
l-62 -7 36 31 c19 18 46 56 59 84 20 45 24 69 24 158 0 121 -19 177 -82 242
l-36 36 44 -5 c24 -3 82 -14 128 -24z m-712 -215 c-3 -3 -12 -4 -19 -1 -8 3
-5 6 6 6 11 1 17 -2 13 -5z m0 -110 c-3 -3 -12 -4 -19 -1 -8 3 -5 6 6 6 11 1
17 -2 13 -5z"/>
<path d="M730 1918 c0 -30 1 -30 148 -12 44 5 59 24 20 25 -13 0 -56 4 -95 8
l-73 7 0 -28z"/>
<path d="M390 1390 l0 -122 -45 6 c-43 7 -45 6 -45 -18 0 -24 3 -26 45 -26
l45 0 0 -36 0 -36 -45 6 c-44 7 -45 6 -45 -19 0 -26 2 -27 45 -23 l45 3 0 -99
0 -99 85 6 c214 15 400 101 454 209 l21 43 0 -129 0 -129 88 6 c178 13 346 78
421 163 22 25 47 44 59 44 29 0 39 20 13 27 -31 8 -31 78 0 86 25 7 16 27 -11
27 -11 0 -26 12 -35 29 -49 97 -248 184 -450 198 l-85 6 0 -129 0 -129 -21 43
c-53 106 -239 192 -449 208 l-90 7 0 -123z m229 80 c210 -51 338 -163 315
-278 -5 -27 -10 -30 -33 -27 -14 2 -59 7 -98 10 l-73 5 0 -26 0 -26 78 7 c42
4 86 9 96 12 18 5 17 3 -3 -26 -23 -32 -80 -75 -140 -105 -44 -23 -214 -66
-259 -66 l-36 0 32 33 c106 110 108 357 3 467 l-38 40 36 0 c20 0 74 -9 120
-20z m586 -6 c90 -23 183 -71 231 -120 60 -59 58 -68 -16 -60 -60 7 -60 7 -60
-20 l0 -26 70 7 70 7 0 -28 c0 -51 -11 -58 -80 -50 -60 7 -61 7 -58 -16 3 -21
8 -23 56 -22 28 1 52 -2 52 -6 0 -15 -80 -79 -127 -104 -69 -34 -173 -64 -251
-72 l-67 -7 32 34 c59 63 78 120 78 239 0 119 -19 176 -78 239 l-32 34 60 -7
c33 -4 87 -14 120 -22z m-722 -211 c-7 -2 -21 -2 -30 0 -10 3 -4 5 12 5 17 0
24 -2 18 -5z m-56 -9 c-3 -3 -12 -4 -19 -1 -8 3 -5 6 6 6 11 1 17 -2 13 -5z
m56 -101 c-7 -2 -21 -2 -30 0 -10 3 -4 5 12 5 17 0 24 -2 18 -5z"/>
<path d="M730 1263 l0 -24 83 7 c86 7 126 18 97 28 -8 2 -52 7 -97 9 -83 5
-83 5 -83 -20z"/>
<path d="M390 759 l0 -122 -45 6 c-43 6 -45 5 -45 -18 0 -23 4 -25 45 -25 l45
0 0 -36 0 -37 -45 6 c-43 6 -45 5 -45 -18 0 -23 4 -25 45 -25 l45 0 0 -95 0
-95 59 0 c123 0 298 50 384 109 55 38 82 68 101 111 15 34 15 30 16 -94 l0
-129 93 6 c178 12 333 71 411 158 31 35 52 49 70 49 31 0 35 15 6 23 -16 4
-20 14 -20 46 0 34 3 41 20 41 28 0 25 17 -4 24 -13 3 -34 22 -46 41 -29 48
-108 102 -196 137 -70 27 -230 58 -301 58 l-33 0 0 -127 c-1 -115 -2 -125 -14
-98 -42 97 -197 182 -383 210 -54 8 -113 15 -130 15 l-33 0 0 -121z m260 70
c183 -50 303 -162 284 -264 l-6 -35 -57 5 c-31 3 -75 8 -98 10 -41 4 -43 3
-43 -21 l0 -27 91 8 c88 6 90 6 80 -13 -41 -76 -211 -150 -405 -176 l-39 -5
36 37 c62 64 82 122 82 237 0 93 -2 105 -33 167 -18 37 -45 77 -60 89 l-27 22
62 -7 c34 -4 94 -16 133 -27z m547 5 c88 -22 197 -78 242 -123 57 -57 54 -65
-19 -58 -59 7 -60 6 -60 -19 0 -26 1 -26 67 -22 72 3 80 -2 68 -49 -6 -25 -7
-26 -71 -20 -64 6 -64 6 -64 -19 0 -25 2 -26 55 -22 30 1 55 0 55 -3 0 -4 -19
-23 -41 -44 -76 -68 -202 -115 -371 -139 l-37 -5 33 33 c18 18 43 55 57 82 21
43 24 63 24 159 0 100 -2 115 -28 167 -15 31 -42 69 -60 84 l-32 27 62 -7 c34
-4 88 -14 120 -22z m-707 -208 c0 -2 -11 -6 -25 -8 -13 -3 -22 -1 -19 3 5 9
44 13 44 5z m-10 -110 c0 -2 -9 -6 -20 -9 -11 -3 -18 -1 -14 4 5 9 34 13 34 5z"/>
<path d="M730 633 l0 -26 88 7 c140 12 129 28 -25 40 -62 4 -63 4 -63 -21z"/>
</g>
</svg>
