<?xml version="1.0" standalone="no"?>
<!DOCTYPE svg PUBLIC "-//W3C//DTD SVG 20010904//EN"
 "http://www.w3.org/TR/2001/REC-SVG-20010904/DTD/svg10.dtd">
<svg version="1.0" xmlns="http://www.w3.org/2000/svg"
 width="192.000000pt" height="348.000000pt" viewBox="0 0 192.000000 348.000000"
 preserveAspectRatio="xMidYMid meet">
<metadata>
Created by potrace 1.16, written by Peter Selinger 2001-2019
</metadata>
<g transform="translate(0.000000,348.000000) scale(0.100000,-0.100000)"
fill="#000000" stroke="none">
<path d="M300 2745 l0 -435 288 2 287 3 3 433 2 432 -290 0 -290 0 0 -435z
m568 158 l3 -143 -281 0 -280 0 0 138 c0 76 3 142 7 145 4 4 128 6 277 5 l271
-3 3 -142z m-3 -308 l0 -140 -277 -3 -278 -2 0 145 0 145 278 -2 277 -3 0
-140z"/>
<path d="M1042 2748 l3 -433 288 -3 287 -2 0 435 0 435 -290 0 -290 0 2 -432z
m566 155 l3 -143 -281 0 -280 0 0 138 c0 76 3 142 7 145 4 4 128 6 277 5 l271
-3 3 -142z m2 -308 l0 -145 -277 2 -278 3 -3 129 c-2 71 -1 135 2 142 4 11 58
14 281 14 l275 0 0 -145z"/>
<path d="M300 1755 l0 -435 290 0 290 0 0 435 0 435 -290 0 -290 0 0 -435z
m570 166 c0 -71 -3 -136 -6 -145 -5 -14 -40 -16 -280 -16 l-274 0 0 145 0 145
280 0 280 0 0 -129z m-2 -318 l3 -143 -281 0 -280 0 0 145 0 145 278 -2 277
-3 3 -142z"/>
<path d="M1040 1755 l0 -435 290 0 290 0 0 435 0 435 -290 0 -290 0 0 -435z
m570 150 l0 -145 -274 0 c-240 0 -275 2 -280 16 -3 9 -6 74 -6 145 l0 129 280
0 280 0 0 -145z m0 -300 l0 -145 -280 0 -280 0 0 138 c0 76 3 142 7 145 3 4
129 7 280 7 l273 0 0 -145z"/>
<path d="M307 1163 c-4 -3 -7 -199 -7 -435 l0 -428 290 0 290 0 -2 433 -3 432
-281 3 c-154 1 -283 -1 -287 -5z m558 -155 c3 -13 4 -77 3 -143 l-3 -120 -277
-3 -278 -2 0 145 0 145 275 0 275 0 5 -22z m0 -428 l0 -145 -275 0 -275 0 -3
134 c-1 74 0 141 3 148 4 11 57 13 277 11 l273 -3 0 -145z"/>
<path d="M1047 1163 c-4 -3 -7 -199 -7 -435 l0 -428 290 0 290 0 -2 433 -3
432 -281 3 c-154 1 -283 -1 -287 -5z m563 -278 l0 -145 -277 2 -278 3 -3 120
c-1 66 0 130 3 143 l5 22 275 0 275 0 0 -145z m-5 -305 l0 -145 -275 0 -275 0
-3 134 c-1 74 0 141 2 148 4 9 66 12 278 10 l273 -2 0 -145z"/>
</g>
</svg>
