<?xml version="1.0" standalone="no"?>
<!DOCTYPE svg PUBLIC "-//W3C//DTD SVG 20010904//EN"
 "http://www.w3.org/TR/2001/REC-SVG-20010904/DTD/svg10.dtd">
<svg version="1.0" xmlns="http://www.w3.org/2000/svg"
 width="178.000000pt" height="235.000000pt" viewBox="0 0 178.000000 235.000000"
 preserveAspectRatio="xMidYMid meet">
<metadata>
Created by potrace 1.16, written by Peter Selinger 2001-2019
</metadata>
<g transform="translate(0.000000,235.000000) scale(0.100000,-0.100000)"
fill="#000000" stroke="none">
<path d="M300 2017 c0 -46 55 -152 94 -182 17 -13 51 -33 74 -43 l43 -19 -55
-27 c-87 -43 -156 -143 -156 -227 l0 -29 290 0 290 0 0 25 c0 13 -9 49 -20 79
-24 62 -95 135 -156 161 l-38 16 50 23 c64 30 130 104 149 169 28 95 54 87
-275 87 l-290 0 0 -33z m97 -39 c110 -39 319 -33 420 12 51 22 53 16 19 -56
-47 -101 -154 -161 -270 -152 -120 10 -214 86 -247 201 -7 25 -6 28 9 21 9 -4
41 -15 69 -26z m303 -239 c75 -34 140 -108 155 -176 l6 -32 -38 19 c-112 54
-394 51 -479 -5 -32 -21 -34 -19 -24 16 24 83 90 155 168 184 57 21 159 18
212 -6z"/>
<path d="M900 2032 c0 -84 74 -192 160 -235 l50 -25 -44 -21 c-65 -32 -131
-108 -150 -172 -29 -98 -55 -90 267 -87 274 3 282 4 282 23 0 15 -15 26 -60
45 -55 22 -73 25 -210 25 -140 0 -154 -2 -213 -27 l-63 -26 6 31 c23 108 140
196 261 197 118 0 198 -47 254 -150 29 -55 40 -57 19 -3 -19 51 -78 111 -136
139 l-56 28 29 9 c76 25 175 135 173 193 0 11 -10 -4 -23 -31 -44 -96 -126
-154 -232 -163 -116 -9 -223 51 -270 152 -34 72 -32 78 19 56 157 -70 507 -37
507 47 0 11 -53 13 -285 13 -269 0 -285 -1 -285 -18z"/>
<path d="M300 1418 c1 -78 77 -182 162 -223 l47 -22 -44 -21 c-93 -45 -165
-143 -165 -224 l0 -38 291 0 292 0 -6 45 c-13 90 -75 173 -161 215 l-46 22 50
25 c64 32 122 98 143 164 32 97 57 89 -273 89 l-290 0 0 -32z m62 -28 c73 -32
212 -46 320 -31 51 6 112 20 135 31 51 22 53 16 19 -56 -78 -167 -314 -205
-443 -72 -22 24 -46 54 -53 67 -13 25 -31 81 -26 81 2 0 23 -9 48 -20z m349
-253 c50 -25 104 -80 128 -133 31 -66 28 -75 -16 -53 -108 53 -359 53 -467 -1
-22 -11 -41 -18 -42 -17 -1 1 5 22 12 47 18 61 72 122 137 155 46 23 61 26
132 23 50 -2 94 -10 116 -21z"/>
<path d="M900 1432 c0 -10 7 -42 16 -72 20 -68 101 -152 163 -171 l42 -12 -52
-25 c-28 -14 -69 -43 -90 -64 -39 -40 -79 -128 -79 -173 l0 -24 282 2 c257 2
283 4 286 19 4 21 -52 51 -126 67 -118 25 -338 6 -399 -35 -21 -13 -23 -13
-23 3 1 31 36 97 71 132 107 108 301 109 403 2 15 -16 39 -51 52 -78 15 -31
23 -41 24 -27 0 29 -52 107 -92 137 -19 15 -51 34 -73 43 l-38 16 44 19 c75
34 159 132 159 186 0 10 -10 -2 -21 -27 -77 -171 -298 -223 -438 -103 -36 30
-91 120 -91 148 0 7 24 3 68 -11 88 -30 206 -39 307 -25 88 13 168 46 173 74
3 16 -16 17 -282 17 -270 0 -286 -1 -286 -18z"/>
<path d="M300 831 c0 -84 69 -184 155 -227 l55 -27 -47 -22 c-27 -12 -64 -37
-82 -56 -41 -41 -81 -122 -81 -166 l0 -33 290 0 c329 0 303 -8 275 87 -19 64
-80 134 -146 167 l-51 25 46 22 c84 39 166 156 166 236 l0 23 -290 0 -290 0 0
-29z m43 -26 c87 -57 367 -59 480 -4 l39 18 -6 -24 c-13 -50 -26 -75 -63 -116
-92 -102 -251 -120 -368 -40 -41 27 -99 112 -107 156 -6 29 -5 30 25 10z m339
-251 c63 -21 126 -78 154 -138 34 -73 32 -78 -22 -55 -109 48 -340 48 -450 0
-26 -12 -48 -20 -50 -19 -6 7 26 83 50 116 66 95 202 136 318 96z"/>
<path d="M900 842 c0 -10 7 -42 16 -71 19 -65 79 -133 147 -168 l49 -25 -49
-22 c-63 -30 -129 -104 -148 -169 -28 -95 -53 -87 270 -87 232 0 285 2 285 13
0 84 -350 117 -507 47 -30 -13 -43 -15 -43 -7 0 31 52 117 90 150 135 116 339
78 427 -78 18 -33 33 -53 33 -45 0 26 -58 117 -89 139 -16 12 -49 30 -72 40
l-42 19 38 16 c22 9 53 28 71 41 42 32 94 112 94 144 0 21 -5 16 -24 -24 -12
-27 -34 -64 -48 -80 -66 -78 -215 -108 -316 -65 -78 33 -138 104 -158 186 l-7
26 40 -21 c98 -49 335 -55 448 -10 46 18 61 29 63 47 l3 22 -285 0 c-270 0
-286 -1 -286 -18z"/>
</g>
</svg>
