<?xml version="1.0" standalone="no"?>
<!DOCTYPE svg PUBLIC "-//W3C//DTD SVG 20010904//EN"
 "http://www.w3.org/TR/2001/REC-SVG-20010904/DTD/svg10.dtd">
<svg version="1.0" xmlns="http://www.w3.org/2000/svg"
 width="139.000000pt" height="184.000000pt" viewBox="0 0 139.000000 184.000000"
 preserveAspectRatio="xMidYMid meet">
<metadata>
Created by potrace 1.16, written by Peter Selinger 2001-2019
</metadata>
<g transform="translate(0.000000,184.000000) scale(0.100000,-0.100000)"
fill="#000000" stroke="none">
<path d="M302 1394 l3 -148 55 2 c186 9 320 70 320 148 0 70 -124 130 -293
141 l-88 6 3 -149z m202 110 c77 -19 122 -41 146 -72 28 -35 25 -56 -14 -90
-39 -34 -101 -57 -196 -72 -85 -13 -88 -13 -62 6 71 49 71 188 0 239 -22 15
-21 16 22 9 25 -3 71 -12 104 -20z"/>
<path d="M710 1398 c0 -80 2 -147 5 -149 10 -11 183 12 244 32 77 26 131 73
131 114 0 69 -127 131 -292 142 l-88 6 0 -145z m202 106 c118 -28 182 -80 160
-129 -23 -50 -120 -92 -257 -110 -48 -6 -49 -6 -27 10 67 49 71 170 7 229
l-26 24 43 -5 c24 -3 69 -11 100 -19z"/>
<path d="M300 1080 l0 -152 73 7 c181 16 307 76 307 145 0 75 -115 132 -297
146 l-83 7 0 -153z m235 105 c103 -31 151 -81 125 -129 -18 -35 -99 -75 -185
-91 -109 -21 -114 -20 -83 13 60 63 54 162 -12 220 -13 11 -5 13 45 8 33 -3
83 -12 110 -21z"/>
<path d="M710 1080 c0 -137 2 -150 18 -150 10 0 55 5 100 10 209 27 317 120
232 200 -52 49 -193 90 -307 90 l-43 0 0 -150z m247 99 c66 -22 123 -66 123
-94 0 -52 -115 -112 -249 -130 l-55 -7 27 32 c33 39 41 68 34 126 -3 32 -14
55 -33 76 l-29 31 60 -6 c33 -4 88 -16 122 -28z"/>
<path d="M300 770 l0 -153 78 7 c202 17 320 83 298 170 -14 56 -140 108 -296
122 l-80 7 0 -153z m181 116 c237 -51 250 -168 25 -226 -92 -23 -150 -27 -126
-7 65 53 71 148 14 217 l-26 30 24 0 c12 0 53 -7 89 -14z"/>
<path d="M710 770 l0 -153 76 6 c182 16 304 74 304 147 0 72 -119 129 -302
146 l-78 7 0 -153z m183 115 c135 -28 209 -92 172 -148 -27 -42 -173 -96 -259
-97 l-29 0 20 23 c32 35 43 62 43 107 0 45 -11 72 -43 108 l-20 22 24 0 c13 0
55 -7 92 -15z"/>
<path d="M310 446 l0 -149 143 6 c211 9 377 42 448 90 47 32 47 72 0 104 -73
50 -269 87 -493 95 l-98 4 0 -150z m350 108 c144 -23 229 -51 259 -88 22 -26
-10 -61 -75 -86 -71 -26 -245 -56 -383 -65 l-104 -7 25 31 c49 57 49 155 0
213 l-26 31 104 -7 c58 -4 148 -14 200 -22z"/>
</g>
</svg>
