<?xml version="1.0" standalone="no"?>
<!DOCTYPE svg PUBLIC "-//W3C//DTD SVG 20010904//EN"
 "http://www.w3.org/TR/2001/REC-SVG-20010904/DTD/svg10.dtd">
<svg version="1.0" xmlns="http://www.w3.org/2000/svg"
 width="144.000000pt" height="177.000000pt" viewBox="0 0 144.000000 177.000000"
 preserveAspectRatio="xMidYMid meet">
<metadata>
Created by potrace 1.16, written by Peter Selinger 2001-2019
</metadata>
<g transform="translate(0.000000,177.000000) scale(0.100000,-0.100000)"
fill="#000000" stroke="none">
<path d="M445 1458 c-11 -6 -30 -20 -42 -31 -17 -15 -31 -19 -63 -14 -39 5
-40 4 -40 -23 0 -27 2 -28 33 -23 33 5 33 5 29 -32 -4 -35 -6 -37 -34 -31 -27
5 -29 4 -26 -22 3 -24 6 -27 37 -24 26 3 40 -3 66 -28 60 -58 138 -57 205 4
27 24 50 36 70 36 17 0 30 5 30 10 0 6 -13 10 -30 10 -28 0 -30 3 -30 35 0 19
-1 38 -2 43 -2 4 12 8 30 10 40 4 42 21 2 24 -16 0 -36 1 -42 2 -7 1 -19 9
-26 19 -32 42 -121 61 -167 35z m122 -54 c-3 -3 -12 -4 -19 -1 -8 3 -5 6 6 6
11 1 17 -2 13 -5z m-92 -14 c-3 -5 -13 -10 -21 -10 -8 0 -12 5 -9 10 3 6 13
10 21 10 8 0 12 -4 9 -10z m92 -16 c-3 -3 -12 -4 -19 -1 -8 3 -5 6 6 6 11 1
17 -2 13 -5z m0 -80 c-3 -3 -12 -4 -19 -1 -8 3 -5 6 6 6 11 1 17 -2 13 -5z
m-92 -14 c-3 -5 -13 -10 -21 -10 -8 0 -12 5 -9 10 3 6 13 10 21 10 8 0 12 -4
9 -10z m92 -16 c-3 -3 -12 -4 -19 -1 -8 3 -5 6 6 6 11 1 17 -2 13 -5z"/>
<path d="M885 1458 c-11 -6 -30 -20 -42 -31 -17 -15 -31 -19 -63 -14 -39 5
-40 4 -40 -24 0 -26 2 -28 30 -22 29 5 30 4 30 -32 0 -36 -1 -37 -30 -31 -28
5 -30 3 -30 -23 0 -28 1 -29 40 -24 31 4 41 2 46 -11 9 -24 68 -56 106 -58 48
-2 78 10 121 48 21 20 48 34 62 34 33 0 32 18 -2 22 -23 3 -26 7 -27 43 -1 36
1 40 27 43 34 4 36 21 2 24 -14 0 -31 1 -37 2 -7 1 -19 9 -26 19 -32 42 -121
61 -167 35z m122 -54 c-3 -3 -12 -4 -19 -1 -8 3 -5 6 6 6 11 1 17 -2 13 -5z
m-92 -14 c-3 -5 -13 -10 -21 -10 -8 0 -12 5 -9 10 3 6 13 10 21 10 8 0 12 -4
9 -10z m-5 -110 c0 -5 -7 -10 -16 -10 -8 0 -12 5 -9 10 3 6 10 10 16 10 5 0 9
-4 9 -10z m97 -16 c-3 -3 -12 -4 -19 -1 -8 3 -5 6 6 6 11 1 17 -2 13 -5z"/>
<path d="M450 1159 c-14 -6 -35 -19 -47 -31 -16 -15 -31 -19 -62 -16 -39 3
-41 2 -41 -25 0 -26 2 -28 33 -22 l33 7 -4 -37 c-4 -34 -7 -37 -33 -33 -26 4
-29 2 -29 -24 0 -28 2 -29 35 -22 30 5 39 2 63 -24 16 -17 47 -36 70 -43 35
-10 48 -9 87 6 25 9 53 27 61 40 10 15 29 26 55 30 41 7 45 25 4 25 -19 0 -23
6 -27 40 -3 38 -2 40 29 46 43 8 32 24 -15 24 -27 0 -41 6 -50 21 -26 41 -107
60 -162 38z m33 -76 c-7 -2 -19 -2 -25 0 -7 3 -2 5 12 5 14 0 19 -2 13 -5z
m120 -10 c-7 -2 -21 -2 -30 0 -10 3 -4 5 12 5 17 0 24 -2 18 -5z m-120 -100
c-7 -2 -19 -2 -25 0 -7 3 -2 5 12 5 14 0 19 -2 13 -5z"/>
<path d="M890 1159 c-14 -6 -35 -19 -47 -31 -16 -15 -31 -19 -62 -16 -39 3
-41 2 -41 -25 0 -27 2 -28 30 -22 29 6 30 5 30 -30 0 -36 -1 -37 -30 -33 -27
4 -30 2 -30 -24 0 -31 0 -31 52 -19 28 7 35 6 32 -4 -7 -18 54 -62 96 -70 43
-8 85 7 125 45 17 15 45 31 63 35 35 7 34 25 -1 25 -19 0 -22 6 -22 40 -1 35
2 40 27 45 36 8 26 25 -15 25 -20 0 -36 7 -44 18 -26 42 -108 63 -163 41z m27
-75 c-3 -3 -12 -4 -19 -1 -8 3 -5 6 6 6 11 1 17 -2 13 -5z m110 -10 c-3 -3
-12 -4 -19 -1 -8 3 -5 6 6 6 11 1 17 -2 13 -5z m-114 -101 c-7 -2 -19 -2 -25
0 -7 3 -2 5 12 5 14 0 19 -2 13 -5z"/>
<path d="M440 848 c-28 -14 -45 -29 -44 -39 1 -14 -4 -15 -30 -8 -52 15 -66
12 -66 -16 0 -22 4 -25 33 -25 32 0 33 -1 29 -35 -4 -32 -6 -34 -33 -28 -26 5
-29 3 -29 -22 0 -25 3 -26 38 -24 30 2 43 -3 68 -28 56 -57 157 -53 208 7 14
17 35 30 48 30 13 0 29 4 37 9 10 7 6 11 -17 15 -26 6 -30 12 -34 46 -3 37 -2
39 31 45 26 5 31 9 20 16 -8 5 -28 9 -45 9 -19 0 -34 6 -38 15 -7 18 -81 54
-111 55 -12 0 -41 -10 -65 -22z m43 -65 c-7 -2 -19 -2 -25 0 -7 3 -2 5 12 5
14 0 19 -2 13 -5z m120 -100 c-7 -2 -19 -2 -25 0 -7 3 -2 5 12 5 14 0 19 -2
13 -5z m-120 -10 c-7 -2 -19 -2 -25 0 -7 3 -2 5 12 5 14 0 19 -2 13 -5z"/>
<path d="M882 850 c-23 -10 -45 -26 -48 -35 -5 -13 -15 -15 -50 -9 -42 6 -44
5 -44 -20 0 -22 4 -26 30 -26 28 0 30 -3 30 -35 0 -33 -1 -34 -30 -28 -27 5
-30 3 -30 -21 0 -25 3 -27 38 -24 30 2 41 -2 60 -24 51 -60 148 -61 206 -3 19
18 46 35 60 37 34 4 37 21 5 28 -20 4 -24 11 -25 42 -1 32 2 37 28 42 42 8 24
29 -22 24 -21 -2 -37 -1 -34 3 6 10 -38 46 -69 58 -39 15 -55 14 -105 -9z m35
-66 c-3 -3 -12 -4 -19 -1 -8 3 -5 6 6 6 11 1 17 -2 13 -5z m0 -110 c-3 -3 -12
-4 -19 -1 -8 3 -5 6 6 6 11 1 17 -2 13 -5z"/>
<path d="M472 559 c-34 -7 -85 -46 -77 -59 2 -4 -15 -4 -38 1 -59 11 -57 12
-57 -16 0 -22 4 -25 33 -25 32 0 33 -1 29 -36 -4 -33 -6 -35 -33 -29 -26 6
-29 4 -29 -19 0 -23 4 -26 38 -26 28 0 45 -7 62 -25 21 -23 31 -25 106 -25 79
0 83 1 107 30 18 21 35 30 56 30 40 0 48 16 12 23 -25 5 -29 11 -33 47 -3 38
-2 40 24 40 15 0 29 4 32 9 8 12 -59 24 -87 16 -14 -4 -17 -3 -9 3 9 6 6 14
-12 31 -29 27 -79 40 -124 30z m105 -65 c-3 -3 -12 -4 -19 -1 -8 3 -5 6 6 6
11 1 17 -2 13 -5z m-102 -14 c-28 -12 -37 -12 -30 0 3 6 16 10 28 9 21 0 21
-1 2 -9z m72 -16 c-3 -3 -12 -4 -19 -1 -8 3 -5 6 6 6 11 1 17 -2 13 -5z m30
-80 c-3 -3 -12 -4 -19 -1 -8 3 -5 6 6 6 11 1 17 -2 13 -5z m-102 -14 c-28 -12
-37 -12 -30 0 3 6 16 10 28 9 21 0 21 -1 2 -9z m72 -16 c-3 -3 -12 -4 -19 -1
-8 3 -5 6 6 6 11 1 17 -2 13 -5z"/>
</g>
</svg>
