<?xml version="1.0" standalone="no"?>
<!DOCTYPE svg PUBLIC "-//W3C//DTD SVG 20010904//EN"
 "http://www.w3.org/TR/2001/REC-SVG-20010904/DTD/svg10.dtd">
<svg version="1.0" xmlns="http://www.w3.org/2000/svg"
 width="136.000000pt" height="193.000000pt" viewBox="0 0 136.000000 193.000000"
 preserveAspectRatio="xMidYMid meet">
<metadata>
Created by potrace 1.16, written by Peter Selinger 2001-2019
</metadata>
<g transform="translate(0.000000,193.000000) scale(0.100000,-0.100000)"
fill="#000000" stroke="none">
<path d="M365 1610 c-39 -26 -65 -75 -65 -125 0 -107 120 -170 219 -114 l36
20 83 -47 83 -47 -31 -15 c-69 -34 -95 -111 -62 -186 17 -37 30 -51 64 -66 56
-25 75 -25 131 4 l47 23 75 -43 c84 -48 115 -60 115 -45 0 5 -38 35 -85 65
l-85 56 6 39 c12 76 -35 150 -106 166 -16 4 -72 34 -123 68 -88 59 -92 63 -86
92 13 65 -17 132 -71 160 -41 21 -109 19 -145 -5z m185 -177 c0 -7 -39 17 -46
28 -3 6 5 3 20 -6 14 -10 26 -19 26 -22z m270 -339 c0 -2 -9 0 -20 6 -11 6
-20 13 -20 16 0 2 9 0 20 -6 11 -6 20 -13 20 -16z"/>
<path d="M680 1608 c-122 -82 -67 -258 81 -258 31 0 55 7 72 20 14 11 28 20
32 20 3 0 41 -20 84 -45 73 -42 120 -58 106 -35 -3 6 -42 33 -85 61 l-79 50 6
48 c10 86 -43 152 -129 159 -44 3 -59 0 -88 -20z m110 -164 c0 -2 -9 0 -20 6
-11 6 -20 13 -20 16 0 2 9 0 20 -6 11 -6 20 -13 20 -16z"/>
<path d="M372 1280 c-92 -56 -95 -188 -7 -246 40 -26 116 -24 154 4 l31 23 80
-47 80 -46 -32 -22 c-89 -59 -86 -172 5 -240 36 -27 104 -26 150 3 l35 22 52
-31 c90 -53 129 -70 135 -60 3 5 -32 35 -79 66 l-85 56 5 47 c4 33 0 56 -13
81 -19 37 -75 80 -104 80 -10 0 -60 27 -112 61 -94 60 -95 61 -86 92 10 34 -2
89 -25 123 -37 52 -127 68 -184 34z m99 -127 c13 -16 12 -17 -3 -4 -10 7 -18
15 -18 17 0 8 8 3 21 -13z m19 -49 c0 -2 -9 0 -20 6 -11 6 -20 13 -20 16 0 2
9 0 20 -6 11 -6 20 -13 20 -16z m70 -11 c0 -7 -39 17 -46 28 -3 6 5 3 20 -6
14 -10 26 -19 26 -22z"/>
<path d="M372 950 c-95 -58 -95 -197 0 -246 46 -24 114 -21 150 6 l30 22 78
-46 c84 -49 144 -71 123 -45 -6 8 -50 39 -96 68 -83 53 -84 55 -76 84 33 117
-105 220 -209 157z"/>
<path d="M365 620 c-39 -26 -65 -75 -65 -125 0 -107 120 -170 219 -115 l36 21
90 -51 c149 -83 156 -62 10 31 -71 46 -83 57 -77 74 21 61 -11 141 -68 170
-41 21 -109 19 -145 -5z m185 -177 c0 -7 -61 31 -73 46 -7 8 7 2 31 -14 23
-15 42 -30 42 -32z m-20 -19 c0 -2 -9 0 -20 6 -11 6 -20 13 -20 16 0 2 9 0 20
-6 11 -6 20 -13 20 -16z"/>
</g>
</svg>
