<?xml version="1.0" standalone="no"?>
<!DOCTYPE svg PUBLIC "-//W3C//DTD SVG 20010904//EN"
 "http://www.w3.org/TR/2001/REC-SVG-20010904/DTD/svg10.dtd">
<svg version="1.0" xmlns="http://www.w3.org/2000/svg"
 width="160.000000pt" height="202.000000pt" viewBox="0 0 160.000000 202.000000"
 preserveAspectRatio="xMidYMid meet">
<metadata>
Created by potrace 1.16, written by Peter Selinger 2001-2019
</metadata>
<g transform="translate(0.000000,202.000000) scale(0.100000,-0.100000)"
fill="#000000" stroke="none">
<path d="M495 1710 c-11 -4 -33 -22 -50 -40 -26 -27 -30 -39 -30 -88 0 -96 58
-149 154 -140 142 14 177 198 51 263 -31 16 -93 19 -125 5z m84 -174 c-2 -2
-20 3 -39 10 -19 8 -25 12 -12 10 22 -4 30 8 12 19 -5 3 -10 11 -10 16 0 6 12
-4 26 -21 15 -17 25 -32 23 -34z"/>
<path d="M952 1700 c-90 -55 -95 -163 -10 -235 29 -24 38 -27 90 -23 47 3 64
10 88 33 55 53 63 133 19 189 -45 57 -127 73 -187 36z m97 -164 c-2 -2 -20 3
-39 10 -19 8 -25 12 -12 10 22 -4 30 8 12 19 -5 3 -10 11 -10 16 0 6 12 -4 26
-21 15 -17 25 -32 23 -34z"/>
<path d="M752 1690 c-6 -10 -8 -21 -4 -23 9 -5 89 -20 82 -15 -3 1 -19 15 -35
30 -29 27 -31 27 -43 8z"/>
<path d="M1225 1690 c-8 -26 -9 -26 40 -35 22 -4 38 -5 35 -3 -3 1 -19 16 -37
31 -31 29 -31 29 -38 7z"/>
<path d="M306 1674 c-8 -21 -9 -20 39 -27 l40 -7 -30 25 c-36 29 -41 30 -49 9z"/>
<path d="M696 1454 c-8 -21 -9 -21 39 -30 l40 -7 -31 26 c-37 32 -40 32 -48
11z"/>
<path d="M1171 1452 c-9 -17 -6 -20 26 -25 20 -4 38 -5 39 -4 1 1 -11 12 -27
25 -27 22 -28 22 -38 4z"/>
<path d="M491 1342 c-60 -30 -93 -102 -77 -166 17 -67 98 -115 170 -102 50 10
102 64 111 115 10 62 -22 126 -77 151 -53 24 -83 25 -127 2z m84 -170 c-1 -2
-18 4 -36 12 -19 9 -23 13 -11 10 22 -5 23 -4 12 18 -9 18 -6 16 13 -7 14 -16
24 -31 22 -33z"/>
<path d="M962 1344 c-127 -65 -96 -252 46 -271 108 -15 194 102 147 201 -34
71 -125 104 -193 70z m84 -172 c-2 -1 -19 4 -37 12 -19 9 -24 13 -11 10 22 -5
28 4 15 22 -5 5 2 -2 14 -15 12 -14 21 -27 19 -29z"/>
<path d="M750 1320 c-9 -17 -8 -20 10 -20 12 0 30 -5 41 -10 29 -16 22 2 -11
28 -29 23 -29 23 -40 2z"/>
<path d="M1226 1333 c-15 -15 -4 -31 26 -37 42 -8 43 -4 9 22 -16 11 -31 18
-35 15z"/>
<path d="M306 1314 c-8 -20 -10 -18 37 -31 44 -13 46 -10 10 22 -33 29 -39 30
-47 9z"/>
<path d="M700 1090 c-12 -22 -11 -23 43 -34 15 -4 27 -5 27 -4 0 2 -13 16 -29
31 -29 27 -30 27 -41 7z"/>
<path d="M1170 1090 c-12 -22 -11 -23 45 -35 l30 -7 -29 31 c-17 17 -31 31
-33 31 -1 0 -7 -9 -13 -20z"/>
<path d="M500 973 c-23 -9 -60 -45 -76 -75 -31 -60 -7 -142 53 -179 50 -31
132 -23 173 16 74 71 59 184 -30 230 -28 15 -90 19 -120 8z m79 -177 c-2 -2
-20 3 -39 10 -19 8 -25 12 -12 10 22 -4 30 8 12 19 -5 3 -10 11 -10 16 0 6 12
-4 26 -21 15 -17 25 -32 23 -34z"/>
<path d="M952 960 c-90 -55 -95 -163 -12 -234 26 -21 42 -26 85 -26 46 0 60 5
89 30 60 53 71 136 25 194 -45 57 -127 73 -187 36z m97 -164 c-2 -2 -20 3 -39
10 -19 8 -25 12 -12 10 22 -4 30 8 12 19 -5 3 -10 11 -10 16 0 6 12 -4 26 -21
15 -17 25 -32 23 -34z"/>
<path d="M755 949 c-4 -11 -5 -22 -3 -23 4 -4 68 -16 68 -13 0 1 -13 14 -29
30 -29 27 -30 27 -36 6z"/>
<path d="M1225 950 c-8 -26 -9 -26 40 -35 22 -4 38 -5 35 -3 -3 1 -19 16 -37
31 -31 29 -31 29 -38 7z"/>
<path d="M306 934 c-8 -21 -9 -20 39 -28 l40 -7 -30 25 c-36 30 -41 31 -49 10z"/>
<path d="M697 711 c-3 -15 2 -20 25 -25 49 -10 51 -7 20 19 -36 30 -38 30 -45
6z"/>
<path d="M1171 711 c-9 -17 -6 -20 25 -26 20 -3 37 -5 39 -3 1 2 -10 13 -26
26 -27 22 -28 22 -38 3z"/>
<path d="M493 581 c-170 -79 -52 -329 121 -257 74 31 107 140 60 202 -50 68
-112 87 -181 55z m66 -142 l24 -32 -29 7 c-16 4 -33 11 -38 16 -5 5 1 6 14 3
20 -5 21 -4 11 16 -17 30 -8 26 18 -10z"/>
<path d="M751 562 c-8 -16 -4 -20 30 -29 46 -12 48 -6 9 25 -28 22 -29 22 -39
4z"/>
<path d="M306 554 c-8 -20 -11 -17 38 -32 l38 -11 -28 29 c-34 34 -40 36 -48
14z"/>
<path d="M700 330 c-15 -27 -13 -30 20 -30 35 0 37 3 10 30 -19 19 -20 19 -30
0z"/>
</g>
</svg>
