<?xml version="1.0" standalone="no"?>
<!DOCTYPE svg PUBLIC "-//W3C//DTD SVG 20010904//EN"
 "http://www.w3.org/TR/2001/REC-SVG-20010904/DTD/svg10.dtd">
<svg version="1.0" xmlns="http://www.w3.org/2000/svg"
 width="278.000000pt" height="192.000000pt" viewBox="0 0 278.000000 192.000000"
 preserveAspectRatio="xMidYMid meet">
<metadata>
Created by potrace 1.16, written by Peter Selinger 2001-2019
</metadata>
<g transform="translate(0.000000,192.000000) scale(0.100000,-0.100000)"
fill="#000000" stroke="none">
<path d="M300 1469 l0 -152 113 7 c149 9 256 23 345 46 64 16 77 16 118 4 70
-21 247 -43 367 -46 l108 -3 2 148 2 147 -83 0 c-111 0 -258 -17 -363 -41 -81
-19 -91 -19 -140 -5 -77 22 -275 46 -380 46 l-89 0 0 -151z m330 115 c52 -7
112 -18 134 -25 l39 -11 -32 -19 c-17 -10 -34 -26 -37 -34 -11 -28 6 -65 39
-82 l32 -17 -72 -17 c-80 -19 -246 -39 -322 -39 l-48 0 23 47 c37 72 30 149
-19 201 l-21 23 94 -6 c52 -4 138 -13 190 -21z m651 -2 c-45 -63 -45 -155 0
-215 l22 -30 -109 6 c-260 16 -454 72 -454 132 0 22 49 54 116 75 66 20 237
47 334 53 30 2 68 4 83 5 l28 2 -20 -28z"/>
<path d="M1427 1473 l2 -148 108 3 c120 3 297 25 368 46 40 13 53 13 93 0 64
-19 224 -41 360 -49 l112 -7 0 151 0 151 -87 0 c-100 0 -273 -21 -366 -45 -59
-15 -68 -14 -147 4 -104 24 -251 41 -362 41 l-83 0 2 -147z m188 127 c129 -11
292 -38 300 -49 2 -4 -9 -15 -25 -25 -17 -9 -33 -29 -36 -43 -6 -22 -1 -32 31
-58 l37 -32 -43 -11 c-66 -17 -272 -42 -340 -42 l-60 0 21 28 c45 61 42 165
-5 216 -13 14 -19 26 -12 26 7 0 66 -5 132 -10z m797 -12 c-48 -52 -55 -129
-18 -201 l23 -47 -49 0 c-79 0 -236 20 -328 41 -336 78 -132 208 359 228 l34
1 -21 -22z"/>
<path d="M302 1123 l3 -148 95 3 c129 3 269 20 356 42 65 17 77 17 126 4 120
-32 385 -59 445 -45 l28 6 0 144 0 144 -145 -6 c-136 -6 -273 -25 -348 -49
-26 -8 -47 -6 -93 6 -85 24 -259 46 -372 46 l-98 0 3 -147z m366 106 c63 -10
118 -22 123 -25 5 -3 -5 -15 -23 -28 -48 -32 -49 -66 -3 -103 l36 -30 -83 -16
c-94 -19 -249 -37 -322 -37 -42 0 -47 2 -33 13 9 6 23 29 32 49 27 67 16 138
-28 187 l-22 23 105 -7 c58 -4 156 -15 218 -26z m629 20 c-54 -32 -67 -157
-22 -223 l24 -36 -52 0 c-77 1 -272 26 -348 45 -72 18 -136 51 -153 77 -32 52
134 113 374 137 127 13 199 13 177 0z"/>
<path d="M1425 1129 c0 -119 3 -145 15 -150 35 -15 312 11 437 41 75 18 79 18
149 0 102 -26 381 -54 425 -43 18 5 19 17 19 149 l0 144 -92 0 c-106 0 -275
-21 -367 -45 -47 -12 -71 -13 -94 -6 -76 24 -212 43 -347 48 l-145 6 0 -144z
m214 121 c106 -10 255 -35 275 -47 4 -3 -6 -14 -22 -25 -17 -11 -34 -28 -37
-39 -8 -24 17 -65 45 -74 11 -3 20 -10 20 -14 0 -16 -191 -48 -338 -57 l-105
-7 22 30 c46 62 44 165 -4 217 l-24 26 27 0 c15 0 78 -5 141 -10z m773 -12
c-43 -47 -54 -120 -27 -186 9 -20 23 -43 32 -49 14 -11 9 -13 -35 -13 -147 0
-396 44 -465 82 -34 19 -42 29 -42 52 0 25 7 33 47 53 81 40 288 77 462 82
l49 1 -21 -22z"/>
<path d="M300 780 l0 -153 122 7 c147 8 246 21 337 45 59 14 75 15 117 4 86
-23 226 -42 354 -49 l125 -7 0 152 0 151 -71 0 c-106 0 -267 -18 -367 -41 -84
-20 -91 -20 -155 -5 -108 26 -189 36 -329 43 l-133 6 0 -153z m320 114 c58 -8
122 -19 143 -25 l38 -10 -33 -22 c-24 -17 -34 -31 -36 -55 -3 -28 2 -35 34
-54 34 -20 35 -22 15 -29 -44 -17 -200 -40 -308 -46 l-112 -6 25 48 c37 73 30
146 -19 202 l-19 21 84 -4 c45 -3 130 -12 188 -20z m680 18 c0 -5 -9 -17 -19
-26 -26 -23 -41 -97 -31 -143 5 -20 19 -50 31 -66 l22 -30 -122 6 c-274 15
-484 89 -431 152 35 42 220 90 405 104 61 4 118 9 128 10 9 0 17 -3 17 -7z"/>
<path d="M1425 779 l0 -152 125 7 c139 8 303 31 360 51 33 12 46 11 87 -1 70
-21 213 -42 352 -50 l121 -7 0 153 0 153 -132 -6 c-136 -7 -203 -16 -320 -43
-63 -15 -72 -15 -155 5 -100 23 -261 41 -367 41 l-71 0 0 -151z m285 120 c52
-6 123 -17 157 -26 l63 -15 -32 -22 c-62 -42 -62 -70 0 -112 l31 -21 -77 -16
c-101 -22 -231 -37 -310 -37 l-63 0 21 28 c44 59 44 145 1 203 -12 16 -21 30
-21 33 0 6 94 0 230 -15z m708 4 c-53 -61 -62 -143 -23 -210 l24 -43 -64 0
c-157 0 -396 48 -457 92 -96 68 79 144 385 167 165 13 152 14 135 -6z"/>
<path d="M300 451 l0 -151 93 0 c104 0 275 21 370 45 59 15 68 14 147 -4 104
-24 251 -41 362 -41 l83 0 -2 147 -2 148 -108 -3 c-120 -3 -297 -25 -367 -46
-41 -12 -54 -12 -118 4 -89 23 -196 37 -345 46 l-113 7 0 -152z m260 118 c55
-6 133 -18 173 -28 l72 -17 -33 -19 c-55 -33 -56 -81 -1 -114 l32 -19 -39 -11
c-55 -16 -212 -38 -324 -46 l-94 -6 21 23 c49 52 56 129 19 201 l-23 47 48 0
c27 0 93 -5 149 -11z m720 -17 c-45 -61 -45 -149 0 -212 l22 -31 -84 6 c-279
20 -478 74 -478 130 0 44 128 95 285 114 50 6 101 13 115 15 14 2 56 4 93 5
l68 1 -21 -28z"/>
</g>
</svg>
