<?xml version="1.0" standalone="no"?>
<!DOCTYPE svg PUBLIC "-//W3C//DTD SVG 20010904//EN"
 "http://www.w3.org/TR/2001/REC-SVG-20010904/DTD/svg10.dtd">
<svg version="1.0" xmlns="http://www.w3.org/2000/svg"
 width="185.000000pt" height="306.000000pt" viewBox="0 0 185.000000 306.000000"
 preserveAspectRatio="xMidYMid meet">
<metadata>
Created by potrace 1.16, written by Peter Selinger 2001-2019
</metadata>
<g transform="translate(0.000000,306.000000) scale(0.100000,-0.100000)"
fill="#000000" stroke="none">
<path d="M390 2648 c0 -63 -2 -117 -5 -120 -3 -3 -23 -2 -45 2 -39 7 -40 7
-40 -22 0 -29 0 -29 45 -22 l45 6 0 -36 0 -36 -45 0 c-42 0 -45 -2 -45 -26 0
-24 2 -25 45 -18 l45 6 0 -102 0 -103 86 7 c221 18 412 109 459 219 13 29 14
22 15 -97 l0 -129 86 7 c179 15 333 73 415 157 26 27 59 51 73 55 31 7 35 24
6 24 -17 0 -20 7 -20 41 0 32 4 42 20 46 28 7 25 23 -5 23 -14 0 -25 4 -25 9
0 5 -20 31 -45 59 -79 88 -233 147 -412 159 l-93 6 0 -129 0 -129 -19 40 c-24
53 -79 101 -165 141 -95 44 -172 64 -283 71 l-93 6 0 -115z m235 71 c203 -48
336 -167 309 -274 l-7 -26 -98 7 -99 7 0 -27 c0 -24 2 -25 43 -21 23 2 66 7
94 9 l53 5 -22 -29 c-57 -78 -218 -148 -381 -166 l-62 -7 32 27 c123 104 122
386 -2 494 l-35 32 47 -6 c27 -3 84 -14 128 -25z m564 0 c103 -24 209 -78 258
-133 l38 -41 -63 -3 c-59 -3 -63 -5 -60 -25 3 -21 7 -22 71 -18 66 3 67 3 67
-22 0 -49 -6 -52 -76 -49 -64 4 -66 3 -62 -20 3 -21 7 -23 56 -20 52 4 53 3
43 -17 -38 -71 -279 -171 -411 -171 l-31 0 34 30 c19 16 45 54 58 82 20 45 24
69 24 158 0 121 -19 177 -82 242 l-36 36 44 -5 c24 -3 82 -14 128 -24z m-712
-215 c-3 -3 -12 -4 -19 -1 -8 3 -5 6 6 6 11 1 17 -2 13 -5z m-4 -111 c-7 -2
-19 -2 -25 0 -7 3 -2 5 12 5 14 0 19 -2 13 -5z"/>
<path d="M730 2518 l0 -28 63 6 c96 8 127 14 127 24 0 6 -12 10 -27 11 -16 0
-58 3 -95 8 l-68 7 0 -28z"/>
<path d="M390 2010 l0 -122 -45 6 c-44 7 -45 6 -45 -19 0 -26 2 -27 45 -23
l45 3 0 -39 0 -38 -45 6 c-43 7 -45 6 -45 -18 0 -24 3 -26 45 -26 l45 0 0 -95
0 -95 58 0 c86 0 236 35 316 73 88 42 137 84 165 140 l21 42 0 -129 0 -129 93
6 c173 12 318 67 405 154 29 29 62 53 72 53 27 0 34 17 10 25 -16 5 -20 15
-20 46 0 32 3 39 20 39 28 0 25 18 -5 26 -13 3 -34 21 -45 40 -60 96 -243 175
-440 190 l-90 7 0 -129 c-1 -119 -2 -126 -15 -97 -48 110 -242 203 -462 220
l-83 6 0 -123z m208 85 c42 -9 114 -33 159 -55 129 -61 194 -144 177 -228 -6
-30 -8 -31 -48 -27 -162 17 -156 17 -156 -10 0 -22 4 -25 38 -24 20 0 63 4 94
8 l56 7 -18 -27 c-56 -78 -212 -148 -373 -167 l-68 -9 35 36 c111 114 114 358
7 471 l-38 40 29 0 c16 0 64 -7 106 -15z m607 -11 c90 -23 183 -71 231 -120
60 -60 58 -68 -17 -60 -59 7 -60 7 -57 -16 3 -22 7 -23 71 -21 67 2 67 2 67
-25 0 -49 -12 -56 -79 -49 -61 7 -61 7 -61 -19 0 -26 1 -26 55 -22 30 3 55 1
55 -3 0 -14 -80 -79 -127 -103 -66 -33 -174 -65 -256 -74 l-69 -9 31 29 c17
16 44 53 59 81 25 48 27 61 27 162 0 124 -15 170 -76 240 l-34 38 60 -7 c33
-4 87 -14 120 -22z m-722 -211 c-7 -2 -21 -2 -30 0 -10 3 -4 5 12 5 17 0 24
-2 18 -5z m0 -110 c-7 -2 -19 -2 -25 0 -7 3 -2 5 12 5 14 0 19 -2 13 -5z"/>
<path d="M730 1883 l0 -25 88 7 c139 11 133 28 -15 39 -73 5 -73 5 -73 -21z"/>
<path d="M390 1380 l0 -123 -45 6 c-43 6 -45 5 -45 -18 0 -23 4 -25 45 -25
l45 0 0 -36 0 -36 -45 6 c-43 7 -45 6 -45 -18 0 -24 3 -26 45 -26 l45 0 0 -96
0 -97 93 6 c208 13 392 100 446 210 l21 42 0 -127 0 -128 59 0 c176 0 381 78
458 175 17 21 37 35 50 35 29 0 38 16 13 23 -16 4 -20 14 -20 45 0 32 4 41 23
47 22 6 22 7 -6 19 -15 7 -38 28 -51 47 -66 96 -242 170 -443 186 l-83 6 0
-129 c-1 -119 -2 -126 -15 -97 -48 110 -242 203 -462 220 l-83 6 0 -123z m245
75 c196 -51 321 -165 299 -274 -7 -35 10 -33 -154 -16 -49 6 -50 5 -50 -21 l0
-26 91 7 c89 7 91 7 80 -13 -16 -30 -82 -79 -144 -107 -58 -27 -183 -60 -256
-68 l-44 -5 36 36 c112 115 116 359 7 473 l-40 42 58 -6 c31 -4 84 -13 117
-22z m568 -1 c92 -23 184 -71 233 -120 60 -59 58 -68 -16 -61 -60 7 -60 7 -60
-20 l0 -26 70 6 70 6 0 -27 c0 -49 -12 -56 -79 -49 -61 7 -61 6 -61 -19 0 -25
2 -26 55 -22 30 1 55 0 55 -3 0 -15 -84 -81 -140 -109 -59 -30 -180 -63 -268
-73 l-43 -5 34 33 c18 18 45 55 58 81 21 43 24 63 24 159 0 94 -3 117 -24 163
-13 28 -40 66 -59 84 l-36 31 63 -6 c34 -4 90 -14 124 -23z m-720 -211 c-7 -2
-19 -2 -25 0 -7 3 -2 5 12 5 14 0 19 -2 13 -5z m0 -110 c-7 -2 -19 -2 -25 0
-7 3 -2 5 12 5 14 0 19 -2 13 -5z"/>
<path d="M730 1252 l0 -24 88 7 c139 11 132 29 -15 38 -72 4 -73 4 -73 -21z"/>
<path d="M390 765 l0 -107 -45 4 c-43 3 -45 2 -45 -23 0 -26 2 -26 45 -21 l45
5 0 -38 0 -37 -45 4 c-43 3 -45 2 -45 -23 0 -26 2 -26 45 -21 l45 5 0 -108 0
-108 173 6 c94 3 215 13 267 22 197 36 369 99 439 164 19 17 43 31 53 31 10 0
18 5 18 10 0 6 -6 10 -12 10 -9 0 -13 16 -13 45 0 29 4 45 13 45 6 0 12 5 12
10 0 6 -10 10 -23 10 -13 0 -34 12 -48 26 -89 96 -403 179 -721 191 l-158 6 0
-108z m240 85 c276 -25 523 -93 610 -169 l25 -21 -60 2 c-41 1 -60 -2 -59 -10
1 -7 2 -18 3 -25 1 -9 21 -11 76 -9 l75 4 0 -35 c0 -20 -3 -38 -7 -40 -5 -2
-39 -1 -76 2 -38 4 -70 4 -72 1 -2 -4 -2 -15 1 -26 5 -18 12 -20 67 -16 l62 4
-49 -36 c-27 -20 -84 -49 -127 -66 -131 -50 -421 -100 -585 -100 l-66 0 30 34
c48 55 67 125 67 246 0 94 -3 111 -29 168 -16 35 -40 72 -54 83 l-25 19 39 0
c22 0 91 -5 154 -10z m-160 -210 c13 -8 13 -10 -2 -10 -9 0 -20 5 -23 10 -8
13 5 13 25 0z m0 -110 c13 -8 13 -10 -2 -10 -9 0 -20 5 -23 10 -8 13 5 13 25
0z"/>
</g>
</svg>
