<?xml version="1.0" standalone="no"?>
<!DOCTYPE svg PUBLIC "-//W3C//DTD SVG 20010904//EN"
 "http://www.w3.org/TR/2001/REC-SVG-20010904/DTD/svg10.dtd">
<svg version="1.0" xmlns="http://www.w3.org/2000/svg"
 width="172.000000pt" height="302.000000pt" viewBox="0 0 172.000000 302.000000"
 preserveAspectRatio="xMidYMid meet">
<metadata>
Created by potrace 1.16, written by Peter Selinger 2001-2019
</metadata>
<g transform="translate(0.000000,302.000000) scale(0.100000,-0.100000)"
fill="#000000" stroke="none">
<path d="M300 2430 l0 -293 86 7 c221 18 412 109 459 219 13 29 14 22 15 -95
l0 -128 34 0 c19 0 70 5 112 11 178 25 327 97 385 186 27 42 30 55 27 105 -5
68 -35 112 -117 170 -85 60 -257 108 -383 108 l-58 0 0 -127 0 -128 -21 43
c-55 110 -237 196 -446 209 l-93 6 0 -293z m220 254 c41 -9 112 -33 157 -55
156 -74 207 -184 136 -290 -57 -84 -216 -156 -386 -175 l-62 -7 32 27 c118 99
123 363 10 481 l-43 45 40 -6 c23 -3 75 -12 116 -20z m577 -5 c198 -45 330
-161 309 -272 -15 -78 -102 -156 -222 -198 -63 -22 -190 -49 -230 -49 -24 0
-24 1 9 30 19 16 45 54 58 82 20 45 24 69 24 158 0 92 -3 112 -26 160 -14 30
-41 69 -59 87 l-32 31 43 -5 c24 -3 81 -13 126 -24z"/>
<path d="M300 1810 l0 -293 98 6 c207 13 393 101 443 211 l19 41 0 -127 0
-128 65 0 c201 0 425 100 479 214 73 154 -95 308 -383 351 -53 8 -111 15 -128
15 l-33 0 0 -127 c-1 -116 -2 -125 -14 -98 -50 111 -241 201 -468 221 l-78 7
0 -293z m260 239 c193 -52 310 -169 279 -282 -29 -110 -196 -200 -429 -232
l-45 -6 37 38 c63 65 83 122 83 238 0 93 -2 105 -33 167 -18 37 -45 77 -60 89
l-27 21 60 -6 c33 -4 94 -16 135 -27z m560 0 c148 -41 257 -118 281 -198 43
-143 -145 -282 -424 -315 l-48 -6 35 34 c62 58 81 114 81 241 0 100 -2 115
-28 167 -15 31 -42 69 -60 84 l-32 27 62 -7 c34 -4 94 -16 133 -27z"/>
<path d="M300 1200 l0 -290 33 0 c62 0 224 29 280 50 116 44 205 110 233 174
12 28 13 19 14 -96 l0 -128 34 0 c131 0 316 51 409 114 179 119 150 292 -66
395 -82 39 -219 70 -309 71 l-68 0 0 -127 c-1 -123 -1 -127 -16 -93 -51 119
-274 220 -485 220 l-59 0 0 -290z m239 249 c153 -35 276 -119 300 -205 39
-139 -149 -281 -412 -310 l-62 -7 32 27 c18 15 45 53 60 84 25 51 28 67 28
162 -1 124 -23 188 -86 245 l-39 35 48 -6 c26 -3 85 -15 131 -25z m565 0 c303
-75 398 -277 194 -411 -83 -55 -252 -108 -344 -108 -24 0 -24 1 9 30 19 16 45
54 58 82 20 45 24 69 24 158 0 92 -3 112 -26 160 -14 30 -41 70 -59 88 l-34
32 50 -6 c27 -3 85 -15 128 -25z"/>
<path d="M300 590 l1 -293 152 6 c236 10 420 43 587 108 107 41 190 115 190
170 0 153 -317 271 -793 295 l-137 7 0 -293z m440 239 c262 -44 441 -126 470
-213 47 -143 -265 -267 -760 -302 l-95 -6 27 28 c101 107 105 390 8 494 l-31
33 128 -6 c70 -4 184 -16 253 -28z"/>
</g>
</svg>
