<?xml version="1.0" standalone="no"?>
<!DOCTYPE svg PUBLIC "-//W3C//DTD SVG 20010904//EN"
 "http://www.w3.org/TR/2001/REC-SVG-20010904/DTD/svg10.dtd">
<svg version="1.0" xmlns="http://www.w3.org/2000/svg"
 width="176.000000pt" height="293.000000pt" viewBox="0 0 176.000000 293.000000"
 preserveAspectRatio="xMidYMid meet">
<metadata>
Created by potrace 1.16, written by Peter Selinger 2001-2019
</metadata>
<g transform="translate(0.000000,293.000000) scale(0.100000,-0.100000)"
fill="#000000" stroke="none">
<path d="M470 2609 c-101 -46 -170 -147 -170 -253 0 -78 15 -124 59 -182 98
-129 288 -145 413 -35 115 101 119 299 7 410 -78 78 -211 104 -309 60z"/>
<path d="M1065 2606 c-105 -48 -165 -142 -165 -259 0 -162 118 -279 281 -281
89 0 167 38 220 108 44 58 59 104 59 182 0 197 -216 334 -395 250z"/>
<path d="M523 2040 c-85 -17 -151 -69 -192 -152 -123 -246 132 -500 378 -377
104 52 156 146 149 266 -10 177 -163 297 -335 263z"/>
<path d="M1121 2039 c-133 -26 -222 -141 -220 -283 1 -114 52 -196 149 -245
247 -123 502 131 379 377 -58 117 -180 177 -308 151z"/>
<path d="M529 1450 c-88 -15 -156 -67 -198 -152 -25 -50 -31 -73 -31 -127 1
-305 411 -390 538 -112 34 73 29 186 -11 254 -61 104 -176 157 -298 137z"/>
<path d="M1121 1449 c-88 -17 -165 -81 -203 -169 -15 -35 -19 -62 -16 -120 4
-87 23 -133 79 -189 55 -54 102 -74 186 -79 60 -3 80 0 125 21 152 71 211 237
137 385 -58 117 -177 176 -308 151z"/>
<path d="M523 860 c-82 -17 -160 -78 -198 -155 -27 -57 -32 -164 -10 -222 42
-108 150 -183 265 -183 197 0 329 191 264 382 -42 124 -187 204 -321 178z"/>
</g>
</svg>
