<?xml version="1.0" standalone="no"?>
<!DOCTYPE svg PUBLIC "-//W3C//DTD SVG 20010904//EN"
 "http://www.w3.org/TR/2001/REC-SVG-20010904/DTD/svg10.dtd">
<svg version="1.0" xmlns="http://www.w3.org/2000/svg"
 width="240.000000pt" height="294.000000pt" viewBox="0 0 240.000000 294.000000"
 preserveAspectRatio="xMidYMid meet">
<metadata>
Created by potrace 1.16, written by Peter Selinger 2001-2019
</metadata>
<g transform="translate(0.000000,294.000000) scale(0.100000,-0.100000)"
fill="#000000" stroke="none">
<path d="M300 2350 l0 -293 133 7 c268 14 488 57 632 125 45 21 85 43 89 50
19 31 27 5 25 -81 l-2 -93 44 -3 c60 -5 288 15 401 34 209 36 377 102 442 174
36 40 45 60 26 60 -5 0 -10 -6 -10 -14 0 -23 -73 -81 -142 -114 -130 -61 -361
-108 -583 -119 l-120 -6 22 24 c103 113 101 391 -5 503 l-27 28 95 -6 c231
-16 447 -55 570 -103 85 -34 161 -84 183 -123 11 -17 21 -29 24 -26 12 12 -37
71 -89 106 -132 88 -464 160 -738 160 l-95 0 3 -95 3 -94 -57 34 c-144 87
-379 140 -671 152 l-153 6 0 -293z m216 270 c289 -23 522 -84 632 -167 31 -23
32 -26 32 -98 0 -89 -9 -101 -117 -151 -137 -65 -355 -110 -578 -121 l-130 -6
28 30 c103 110 99 392 -8 499 -29 29 -37 28 141 14z"/>
<path d="M675 2489 c-100 -29 -130 -169 -53 -241 89 -83 238 -18 238 104 0 92
-96 164 -185 137z"/>
<path d="M1559 2490 c-93 -26 -137 -129 -89 -208 76 -125 262 -77 264 69 2 92
-88 163 -175 139z"/>
<path d="M300 1470 l0 -583 158 6 c296 11 563 76 695 169 l28 20 -3 -96 -3
-96 98 0 c264 0 580 66 720 150 58 35 108 88 106 114 0 6 -8 0 -17 -14 -62
-92 -211 -159 -446 -200 -102 -18 -310 -40 -380 -40 l-30 0 32 33 c96 99 102
352 11 477 l-31 43 123 -6 c332 -17 649 -115 707 -218 10 -16 20 -29 25 -29
16 0 5 22 -29 60 -87 96 -359 179 -644 197 -103 7 -110 20 -11 22 72 2 249 30
356 57 129 32 251 91 298 144 37 40 46 60 27 60 -5 0 -10 -6 -10 -14 0 -23
-80 -87 -147 -118 -133 -60 -352 -104 -568 -115 l-130 -6 21 24 c105 118 103
390 -4 502 l-27 29 65 -6 c36 -3 101 -8 145 -12 194 -14 408 -65 526 -124 30
-16 72 -47 92 -69 44 -48 55 -53 31 -11 -68 115 -394 212 -759 227 l-150 6 3
-98 3 -97 -30 21 c-125 90 -398 155 -703 168 l-148 6 0 -583z m320 549 c210
-23 403 -77 501 -140 l59 -39 0 -79 c0 -90 -1 -91 -105 -144 -137 -68 -430
-127 -637 -127 -77 0 -78 0 -58 20 104 104 103 395 -2 501 l-31 30 89 -6 c49
-3 132 -11 184 -16z m559 -549 c0 -174 -5 -211 -25 -179 -14 23 -175 90 -275
114 -128 31 -293 55 -378 55 -97 0 -67 10 61 21 226 19 468 83 568 149 25 16
46 30 47 30 1 0 2 -85 2 -190z m-479 -45 c191 -29 354 -81 443 -142 l37 -26 0
-78 c0 -77 -1 -78 -33 -103 -113 -86 -385 -153 -692 -170 -82 -5 -105 -4 -92
4 29 18 67 87 83 153 32 121 2 291 -63 360 l-28 30 120 -6 c66 -3 167 -13 225
-22z"/>
<path d="M643 1880 c-39 -23 -66 -72 -66 -120 0 -81 61 -140 146 -140 42 0 53
5 88 38 33 31 42 46 46 83 7 58 -18 114 -61 140 -41 25 -112 25 -153 -1z"/>
<path d="M652 1303 c-88 -43 -102 -166 -26 -232 90 -80 234 -16 234 104 0 107
-112 176 -208 128z"/>
<path d="M1510 1874 c-77 -65 -80 -154 -7 -223 16 -15 43 -25 71 -28 147 -17
221 149 110 247 -29 25 -43 30 -89 30 -43 0 -59 -5 -85 -26z"/>
<path d="M1519 1297 c-121 -81 -68 -260 78 -260 110 0 178 132 114 222 -45 63
-129 80 -192 38z"/>
<path d="M300 591 c0 -260 2 -291 16 -291 33 0 77 44 108 109 29 61 31 74 31
171 0 122 -19 191 -69 248 l-31 35 131 -6 c342 -18 656 -114 710 -219 23 -43
17 -83 -16 -121 -83 -96 -337 -170 -670 -198 -74 -6 -137 -13 -139 -15 -10 -9
133 -3 258 12 459 53 704 214 551 362 -110 107 -380 179 -749 198 l-131 7 0
-292z"/>
<path d="M639 706 c-98 -68 -75 -220 39 -254 64 -19 138 11 168 70 27 52 15
122 -29 166 -30 30 -44 36 -89 39 -44 4 -59 0 -89 -21z"/>
</g>
</svg>
