<?xml version="1.0" standalone="no"?>
<!DOCTYPE svg PUBLIC "-//W3C//DTD SVG 20010904//EN"
 "http://www.w3.org/TR/2001/REC-SVG-20010904/DTD/svg10.dtd">
<svg version="1.0" xmlns="http://www.w3.org/2000/svg"
 width="151.000000pt" height="203.000000pt" viewBox="0 0 151.000000 203.000000"
 preserveAspectRatio="xMidYMid meet">
<metadata>
Created by potrace 1.16, written by Peter Selinger 2001-2019
</metadata>
<g transform="translate(0.000000,203.000000) scale(0.100000,-0.100000)"
fill="#000000" stroke="none">
<path d="M300 1585 l0 -145 210 0 210 0 0 145 0 145 -210 0 -210 0 0 -145z
m400 0 l0 -135 -135 0 -135 0 0 135 0 135 135 0 135 0 0 -135z"/>
<path d="M790 1585 l0 -145 210 0 210 0 0 145 0 145 -210 0 -210 0 0 -145z
m410 0 l0 -136 -137 3 -138 3 -3 119 c-1 66 0 126 2 133 4 10 38 13 141 13
l135 0 0 -135z"/>
<path d="M300 1210 l0 -150 208 2 207 3 3 148 3 147 -211 0 -210 0 0 -150z
m400 5 l0 -135 -135 0 -135 0 0 135 0 135 135 0 135 0 0 -135z"/>
<path d="M792 1213 l3 -148 208 -3 207 -2 0 150 0 150 -210 0 -211 0 3 -147z
m406 0 l3 -133 -141 0 -140 0 0 128 c0 71 3 132 7 136 4 3 66 5 137 4 l131 -3
3 -132z"/>
<path d="M300 820 l0 -150 210 0 210 0 0 150 0 150 -210 0 -210 0 0 -150z
m400 0 l0 -130 -135 0 -135 0 0 130 0 130 135 0 135 0 0 -130z"/>
<path d="M790 820 l0 -150 210 0 210 0 0 150 0 150 -210 0 -210 0 0 -150z
m410 0 l0 -130 -140 0 -140 0 0 130 0 130 140 0 140 0 0 -130z"/>
<path d="M300 450 l0 -140 65 0 65 0 0 135 0 135 135 0 135 0 0 -135 c0 -83 4
-135 10 -135 6 0 10 53 10 140 l0 140 -210 0 -210 0 0 -140z"/>
<path d="M790 450 l0 -140 65 0 64 0 3 133 3 132 137 3 137 3 4 -138 3 -138 2
143 2 142 -210 0 -210 0 0 -140z"/>
</g>
</svg>
