<?xml version="1.0" standalone="no"?>
<!DOCTYPE svg PUBLIC "-//W3C//DTD SVG 20010904//EN"
 "http://www.w3.org/TR/2001/REC-SVG-20010904/DTD/svg10.dtd">
<svg version="1.0" xmlns="http://www.w3.org/2000/svg"
 width="139.000000pt" height="184.000000pt" viewBox="0 0 139.000000 184.000000"
 preserveAspectRatio="xMidYMid meet">
<metadata>
Created by potrace 1.16, written by Peter Selinger 2001-2019
</metadata>
<g transform="translate(0.000000,184.000000) scale(0.100000,-0.100000)"
fill="#000000" stroke="none">
<path d="M300 1392 l0 -151 58 5 c202 17 322 73 322 150 0 70 -124 130 -292
141 l-88 6 0 -151z m204 112 c104 -25 166 -68 166 -114 0 -41 -97 -97 -195
-114 -16 -2 -48 -8 -70 -11 l-40 -7 21 24 c34 36 46 66 46 113 0 49 -22 97
-54 120 -22 15 -21 16 22 9 25 -3 71 -12 104 -20z"/>
<path d="M710 1392 l0 -151 28 4 c15 2 56 7 92 10 141 12 260 75 260 137 0 71
-128 135 -292 145 l-88 6 0 -151z m202 112 c118 -28 182 -80 160 -129 -23 -50
-120 -92 -257 -110 -48 -6 -49 -6 -27 10 67 49 71 170 7 229 l-26 24 43 -5
c24 -3 69 -11 100 -19z"/>
<path d="M300 1070 l0 -150 34 0 c56 0 201 28 247 49 137 59 131 155 -13 209
-64 24 -161 42 -225 42 l-43 0 0 -150z m247 99 c105 -34 149 -93 103 -139 -42
-42 -178 -89 -259 -90 l-25 0 26 28 c54 57 54 147 0 206 l-27 29 60 -7 c33 -3
88 -16 122 -27z"/>
<path d="M710 1069 l0 -152 73 7 c145 15 231 42 280 91 53 54 26 114 -68 156
-53 24 -178 49 -241 49 l-44 0 0 -151z m247 100 c64 -21 123 -65 123 -92 0
-24 -39 -66 -82 -88 -41 -21 -153 -49 -197 -49 l-24 0 20 23 c32 35 43 62 43
107 0 45 -11 72 -44 109 l-21 24 60 -7 c33 -3 88 -16 122 -27z"/>
<path d="M300 760 l0 -150 43 0 c64 0 161 18 225 42 154 58 149 164 -11 217
-61 20 -175 40 -229 41 l-28 0 0 -150z m183 115 c120 -25 199 -83 182 -134
-14 -46 -127 -97 -238 -107 -53 -6 -60 -4 -47 7 66 58 71 150 14 219 l-26 30
24 0 c12 0 54 -7 91 -15z"/>
<path d="M710 760 l0 -150 43 0 c114 0 255 41 307 90 84 79 -19 171 -224 199
-43 6 -88 11 -102 11 l-24 0 0 -150z m177 114 c43 -9 94 -24 114 -35 40 -20
79 -63 79 -86 0 -46 -127 -108 -245 -120 l-60 -6 29 31 c19 21 30 44 33 76 7
58 -1 87 -33 125 -31 37 -27 38 83 15z"/>
<path d="M305 592 c-3 -3 -5 -70 -5 -150 l0 -145 88 6 c166 11 292 72 292 141
0 77 -124 135 -317 149 -29 2 -55 2 -58 -1z m158 -26 c40 -8 91 -22 113 -31
46 -19 94 -62 94 -85 0 -59 -107 -112 -270 -134 -43 -7 -44 -6 -22 9 71 51 71
190 0 239 -29 20 -14 21 85 2z"/>
<path d="M715 592 c-3 -3 -5 -70 -5 -150 l0 -145 88 6 c218 14 353 116 265
199 -51 49 -145 78 -295 91 -26 3 -50 2 -53 -1z m210 -38 c70 -18 131 -55 147
-89 28 -63 -87 -128 -261 -148 l-45 -6 26 22 c36 30 48 58 48 112 0 52 -19 96
-52 120 -22 16 -21 17 27 10 28 -3 77 -13 110 -21z"/>
</g>
</svg>
