<?xml version="1.0" standalone="no"?>
<!DOCTYPE svg PUBLIC "-//W3C//DTD SVG 20010904//EN"
 "http://www.w3.org/TR/2001/REC-SVG-20010904/DTD/svg10.dtd">
<svg version="1.0" xmlns="http://www.w3.org/2000/svg"
 width="123.000000pt" height="155.000000pt" viewBox="0 0 123.000000 155.000000"
 preserveAspectRatio="xMidYMid meet">
<metadata>
Created by potrace 1.16, written by Peter Selinger 2001-2019
</metadata>
<g transform="translate(0.000000,155.000000) scale(0.100000,-0.100000)"
fill="#000000" stroke="none">
<path d="M300 1210 c0 -46 32 -137 61 -174 l20 -26 -42 0 -42 0 6 -55 c3 -30
17 -80 31 -110 l25 -55 -31 0 -31 0 6 -57 c3 -32 19 -82 35 -115 l29 -58 -35
0 -35 0 6 -60 c18 -167 133 -254 219 -166 36 37 63 103 74 178 l6 48 -42 0
c-41 0 -42 1 -27 18 26 28 54 102 62 160 l7 52 -38 0 c-35 0 -36 1 -21 18 22
24 43 85 52 150 l7 52 -49 1 c-26 1 -71 1 -98 -1 -41 -1 -54 3 -72 22 -27 29
-59 100 -66 149 l-5 37 31 -17 c45 -23 174 -22 210 2 26 17 27 17 27 -1 0 -34
-30 -119 -51 -146 -12 -15 -18 -30 -15 -33 16 -16 62 75 76 148 16 85 27 79
-140 79 l-150 0 0 -40z m117 -267 c53 -5 96 2 147 23 17 7 18 4 12 -32 -4 -21
-18 -63 -32 -92 l-26 -53 -71 3 -72 3 -27 55 c-14 30 -29 72 -31 92 l-6 38 24
-16 c13 -9 50 -18 82 -21z m33 -218 c56 0 83 5 103 18 26 17 27 17 27 -1 0
-38 -31 -122 -57 -152 -24 -29 -30 -31 -81 -28 -51 3 -58 6 -79 37 -21 31 -30
55 -47 133 l-6 26 33 -16 c21 -12 57 -17 107 -17z m-95 -220 c22 -8 63 -14 90
-14 28 0 68 6 90 14 22 8 42 15 44 15 9 0 -13 -80 -34 -125 -66 -137 -192 -92
-224 80 -5 25 -8 45 -7 45 0 0 19 -7 41 -15z"/>
<path d="M630 1236 c0 -64 35 -167 71 -205 l20 -21 -47 0 -46 0 7 -52 c9 -65
30 -126 52 -150 15 -17 14 -18 -21 -18 l-38 0 7 -52 c8 -58 36 -132 62 -160
15 -17 14 -18 -25 -18 -47 0 -47 0 -32 -79 21 -111 75 -181 140 -181 73 0 134
83 147 200 l6 60 -35 0 -35 0 29 58 c16 33 32 83 35 115 l6 57 -31 0 -31 0 25
55 c14 30 28 80 31 110 l6 55 -42 0 -42 0 24 33 c31 40 57 119 57 169 l0 38
-150 0 c-120 0 -150 -3 -150 -14z m276 -76 c-24 -106 -60 -150 -121 -150 -64
0 -111 59 -131 164 -6 36 -5 39 12 32 74 -31 164 -32 221 -4 15 8 29 14 30 13
1 0 -4 -25 -11 -55z m0 -242 c-7 -31 -22 -71 -32 -89 -19 -33 -22 -34 -91 -37
l-71 -3 -26 53 c-14 29 -28 71 -32 92 -6 36 -5 39 12 32 74 -31 164 -32 221
-4 15 8 29 14 30 13 1 0 -4 -26 -11 -57z m-126 -193 c52 0 85 6 108 18 l33 18
-7 -28 c-18 -79 -26 -103 -47 -134 -21 -31 -28 -34 -79 -37 -51 -3 -57 -1 -81
28 -26 30 -57 114 -57 152 0 18 1 18 27 1 20 -13 47 -18 103 -18z m133 -232
c-7 -50 -39 -122 -65 -150 -51 -55 -123 -32 -163 52 -23 47 -43 125 -32 125 2
0 22 -7 43 -16 60 -25 150 -15 221 25 1 1 -1 -16 -4 -36z"/>
</g>
</svg>
