<?xml version="1.0" standalone="no"?>
<!DOCTYPE svg PUBLIC "-//W3C//DTD SVG 20010904//EN"
 "http://www.w3.org/TR/2001/REC-SVG-20010904/DTD/svg10.dtd">
<svg version="1.0" xmlns="http://www.w3.org/2000/svg"
 width="119.000000pt" height="179.000000pt" viewBox="0 0 119.000000 179.000000"
 preserveAspectRatio="xMidYMid meet">
<metadata>
Created by potrace 1.16, written by Peter Selinger 2001-2019
</metadata>
<g transform="translate(0.000000,179.000000) scale(0.100000,-0.100000)"
fill="#000000" stroke="none">
<path d="M366 1471 c-43 -29 -66 -70 -66 -121 0 -80 60 -140 140 -140 110 0
176 111 126 208 -35 67 -137 94 -200 53z"/>
<path d="M673 1470 c-87 -52 -83 -198 6 -245 38 -19 104 -19 142 0 91 48 91
203 -1 250 -41 21 -109 19 -147 -5z"/>
<path d="M385 1170 c-43 -18 -78 -67 -83 -118 -8 -92 48 -152 144 -152 81 0
137 59 136 142 -2 96 -108 166 -197 128z"/>
<path d="M680 1162 c-126 -69 -76 -262 68 -264 138 -2 196 173 85 256 -38 28
-110 32 -153 8z"/>
<path d="M363 860 c-41 -24 -63 -67 -63 -120 0 -141 187 -193 261 -73 59 95
-9 213 -121 213 -27 0 -58 -8 -77 -20z"/>
<path d="M673 860 c-125 -76 -59 -272 86 -258 80 8 131 61 131 138 0 83 -56
140 -140 140 -27 0 -58 -8 -77 -20z"/>
<path d="M366 561 c-65 -43 -86 -132 -46 -198 53 -88 198 -83 246 9 34 66 12
151 -49 188 -42 26 -113 26 -151 1z"/>
<path d="M673 560 c-86 -52 -86 -188 0 -240 38 -24 106 -26 147 -5 92 47 92
203 0 250 -41 21 -109 19 -147 -5z"/>
</g>
</svg>
