<?xml version="1.0" standalone="no"?>
<!DOCTYPE svg PUBLIC "-//W3C//DTD SVG 20010904//EN"
 "http://www.w3.org/TR/2001/REC-SVG-20010904/DTD/svg10.dtd">
<svg version="1.0" xmlns="http://www.w3.org/2000/svg"
 width="136.000000pt" height="194.000000pt" viewBox="0 0 136.000000 194.000000"
 preserveAspectRatio="xMidYMid meet">
<metadata>
Created by potrace 1.16, written by Peter Selinger 2001-2019
</metadata>
<g transform="translate(0.000000,194.000000) scale(0.100000,-0.100000)"
fill="#000000" stroke="none">
<path d="M375 1624 c-45 -22 -68 -61 -72 -118 -5 -61 19 -106 69 -132 46 -24
114 -21 150 6 15 11 32 19 36 17 4 -2 40 -23 80 -47 l74 -42 -30 -19 c-86 -51
-93 -161 -16 -229 29 -25 43 -30 88 -30 40 0 60 6 81 22 27 21 28 21 59 4 109
-64 155 -86 161 -77 3 6 -33 36 -80 67 l-85 57 6 38 c4 21 4 49 0 63 -10 42
-64 95 -103 102 -19 4 -77 34 -127 68 l-92 61 9 37 c12 49 -19 120 -65 148
-39 24 -101 26 -143 4z m415 -500 c0 -2 -9 0 -20 6 -11 6 -20 13 -20 16 0 2 9
0 20 -6 11 -6 20 -13 20 -16z m70 -40 c0 -2 -9 0 -20 6 -11 6 -20 13 -20 16 0
2 9 0 20 -6 11 -6 20 -13 20 -16z"/>
<path d="M679 1617 c-90 -60 -88 -172 4 -241 36 -27 104 -26 149 2 l35 22 89
-50 c49 -28 92 -50 97 -50 24 0 -3 27 -77 76 l-84 56 4 51 c4 41 1 59 -15 85
-45 71 -136 93 -202 49z m181 -203 c0 -2 -9 0 -20 6 -11 6 -20 13 -20 16 0 2
9 0 20 -6 11 -6 20 -13 20 -16z"/>
<path d="M366 1291 c-86 -57 -87 -189 -2 -243 40 -25 135 -21 166 7 20 18 21
18 53 0 18 -11 58 -34 91 -51 l59 -32 -37 -17 c-108 -52 -111 -201 -4 -256 49
-25 102 -22 145 9 l29 20 84 -49 c47 -27 91 -49 98 -49 27 0 8 20 -71 72 l-83
55 1 61 c0 46 -5 67 -21 89 -20 26 -30 33 -95 65 -15 7 -67 40 -116 72 l-90
59 9 38 c13 50 -17 120 -64 149 -43 26 -113 26 -152 1z m172 -169 c15 -13 1
-6 -30 14 -32 20 -58 39 -58 41 0 7 58 -29 88 -55z"/>
<path d="M380 952 c-127 -63 -95 -250 47 -269 28 -3 50 2 83 19 l44 24 78 -44
78 -44 -32 -22 c-96 -65 -84 -208 22 -250 53 -21 68 -20 123 8 l47 23 82 -48
c46 -27 89 -49 96 -49 29 0 7 22 -73 74 l-85 56 6 39 c13 79 -30 145 -108 165
-24 6 -82 38 -130 70 -85 57 -86 58 -77 89 9 33 -2 90 -24 118 -21 28 -81 59
-112 59 -16 0 -46 -8 -65 -18z m90 -168 c0 -2 -9 0 -20 6 -11 6 -20 13 -20 16
0 2 9 0 20 -6 11 -6 20 -13 20 -16z m70 -40 c0 -2 -9 0 -20 6 -11 6 -20 13
-20 16 0 2 9 0 20 -6 11 -6 20 -13 20 -16z m280 -310 c0 -2 -9 0 -20 6 -11 6
-20 13 -20 16 0 2 9 0 20 -6 11 -6 20 -13 20 -16z"/>
<path d="M372 620 c-98 -60 -94 -200 8 -253 43 -22 101 -17 141 12 l29 21 88
-50 c48 -27 93 -50 100 -50 27 0 7 19 -77 73 -89 57 -89 58 -80 89 18 64 -25
144 -89 169 -38 15 -85 10 -120 -11z m129 -147 c13 -16 12 -17 -3 -4 -17 13
-22 21 -14 21 2 0 10 -8 17 -17z"/>
</g>
</svg>
