<?xml version="1.0" standalone="no"?>
<!DOCTYPE svg PUBLIC "-//W3C//DTD SVG 20010904//EN"
 "http://www.w3.org/TR/2001/REC-SVG-20010904/DTD/svg10.dtd">
<svg version="1.0" xmlns="http://www.w3.org/2000/svg"
 width="144.000000pt" height="179.000000pt" viewBox="0 0 144.000000 179.000000"
 preserveAspectRatio="xMidYMid meet">
<metadata>
Created by potrace 1.16, written by Peter Selinger 2001-2019
</metadata>
<g transform="translate(0.000000,179.000000) scale(0.100000,-0.100000)"
fill="#000000" stroke="none">
<path d="M445 1479 c-11 -6 -30 -21 -42 -32 -17 -15 -31 -19 -63 -14 -37 5
-40 3 -40 -19 0 -20 5 -24 33 -24 32 0 33 -1 29 -36 -4 -34 -6 -36 -33 -30
-26 5 -29 3 -29 -19 0 -22 4 -25 38 -25 27 0 45 -7 58 -21 33 -37 73 -52 126
-47 40 4 57 12 87 42 23 23 46 36 63 36 15 0 30 5 33 10 3 6 -5 10 -19 10 -30
0 -33 4 -38 50 -3 31 0 35 22 38 14 2 29 8 35 13 8 8 0 10 -62 13 -10 1 -29
14 -44 30 -21 24 -35 30 -80 33 -30 2 -63 -2 -74 -8z m128 -56 c-7 -2 -19 -2
-25 0 -7 3 -2 5 12 5 14 0 19 -2 13 -5z m-98 -13 c-3 -5 -13 -10 -21 -10 -8 0
-12 5 -9 10 3 6 13 10 21 10 8 0 12 -4 9 -10z m78 -17 c-7 -2 -19 -2 -25 0 -7
3 -2 5 12 5 14 0 19 -2 13 -5z m-78 -93 c-28 -12 -37 -12 -30 0 3 6 16 10 28
9 21 0 21 -1 2 -9z m78 -17 c-7 -2 -19 -2 -25 0 -7 3 -2 5 12 5 14 0 19 -2 13
-5z"/>
<path d="M855 1459 c-31 -27 -41 -31 -75 -26 -37 5 -40 3 -40 -19 0 -20 5 -24
30 -24 28 0 30 -3 30 -36 0 -35 -1 -36 -30 -30 -27 5 -30 3 -30 -19 0 -22 4
-25 39 -25 27 0 44 -6 53 -18 51 -71 169 -70 226 3 12 15 30 25 45 25 36 0 42
16 9 23 -24 5 -27 11 -29 46 -1 37 1 41 22 41 41 0 37 18 -4 25 -22 4 -45 13
-52 21 -22 27 -67 44 -113 44 -36 0 -52 -6 -81 -31z m152 -35 c-3 -3 -12 -4
-19 -1 -8 3 -5 6 6 6 11 1 17 -2 13 -5z m-97 -14 c-20 -13 -33 -13 -25 0 3 6
14 10 23 10 15 0 15 -2 2 -10z m83 -17 c-7 -2 -19 -2 -25 0 -7 3 -2 5 12 5 14
0 19 -2 13 -5z m-83 -93 c-20 -13 -33 -13 -25 0 3 6 14 10 23 10 15 0 15 -2 2
-10z m77 -16 c-3 -3 -12 -4 -19 -1 -8 3 -5 6 6 6 11 1 17 -2 13 -5z"/>
<path d="M441 1168 c-47 -25 -61 -43 -39 -51 15 -5 -9 -2 -64 8 -36 7 -38 6
-38 -19 0 -23 4 -26 33 -26 31 0 33 -2 29 -33 -3 -30 -6 -33 -33 -29 -26 4
-29 1 -29 -22 0 -25 3 -27 38 -24 30 2 41 -2 60 -24 51 -60 151 -61 210 -2 19
19 44 34 56 34 11 0 27 4 35 9 10 7 5 11 -18 16 -24 5 -31 12 -31 30 0 13 -3
30 -6 39 -5 12 0 16 17 16 13 0 30 4 38 9 18 12 -35 24 -81 18 -18 -2 -25 -2
-15 0 24 6 17 24 -19 45 -52 30 -94 32 -143 6z m42 -65 c-7 -2 -19 -2 -25 0
-7 3 -2 5 12 5 14 0 19 -2 13 -5z m-70 -100 c-7 -2 -19 -2 -25 0 -7 3 -2 5 12
5 14 0 19 -2 13 -5z m210 0 c-7 -2 -19 -2 -25 0 -7 3 -2 5 12 5 14 0 19 -2 13
-5z m-140 -10 c-7 -2 -19 -2 -25 0 -7 3 -2 5 12 5 14 0 19 -2 13 -5z"/>
<path d="M884 1171 c-48 -22 -62 -39 -43 -53 10 -7 9 -8 -6 -4 -11 3 -37 8
-57 12 -36 6 -38 5 -38 -20 0 -22 4 -26 30 -26 28 0 30 -3 30 -35 0 -33 -1
-34 -30 -28 -27 5 -30 3 -30 -21 0 -25 3 -27 38 -24 30 2 41 -2 60 -24 51 -60
148 -61 207 -3 21 21 44 35 59 35 36 0 42 19 9 26 -25 5 -28 10 -28 45 -1 34
2 39 21 39 13 0 25 4 29 9 8 15 -31 23 -78 17 -23 -3 -32 -2 -19 2 l24 7 -25
23 c-21 20 -75 42 -102 42 -5 0 -29 -9 -51 -19z m39 -68 c-7 -2 -21 -2 -30 0
-10 3 -4 5 12 5 17 0 24 -2 18 -5z m-56 -99 c-3 -3 -12 -4 -19 -1 -8 3 -5 6 6
6 11 1 17 -2 13 -5z m196 -1 c-7 -2 -21 -2 -30 0 -10 3 -4 5 12 5 17 0 24 -2
18 -5z m-140 -10 c-7 -2 -21 -2 -30 0 -10 3 -4 5 12 5 17 0 24 -2 18 -5z m-56
-9 c-3 -3 -12 -4 -19 -1 -8 3 -5 6 6 6 11 1 17 -2 13 -5z"/>
<path d="M472 879 c-43 -9 -88 -49 -70 -61 9 -6 7 -8 -7 -5 -11 3 -37 8 -57
12 -36 6 -38 4 -38 -20 0 -22 4 -25 33 -25 32 0 33 -1 29 -36 -4 -33 -6 -35
-33 -29 -26 6 -29 4 -29 -19 0 -23 4 -26 38 -26 27 0 45 -7 58 -21 61 -67 167
-64 222 6 13 17 30 25 50 25 41 0 49 16 12 24 -24 4 -30 11 -30 30 0 13 -3 31
-6 40 -5 12 1 16 24 16 17 0 33 4 36 9 8 12 -40 20 -99 16 -38 -3 -42 -2 -17
3 l34 7 -25 23 c-30 28 -80 41 -125 31z m18 -73 c0 -2 -11 -6 -25 -8 -13 -3
-22 -1 -19 3 5 9 44 13 44 5z m-83 -102 c-3 -3 -12 -4 -19 -1 -8 3 -5 6 6 6
11 1 17 -2 13 -5z m211 -1 c-10 -2 -28 -2 -40 0 -13 2 -5 4 17 4 22 1 32 -1
23 -4z m-135 -10 c-7 -2 -19 -2 -25 0 -7 3 -2 5 12 5 14 0 19 -2 13 -5z"/>
<path d="M915 880 c-33 -7 -85 -38 -85 -50 0 -5 6 -11 13 -14 6 -3 3 -4 -8 -2
-91 19 -95 18 -95 -9 0 -21 5 -25 30 -25 28 0 30 -3 30 -36 0 -34 -1 -35 -30
-29 -27 6 -30 4 -30 -19 0 -23 4 -26 38 -26 27 0 45 -7 58 -21 61 -68 185 -62
224 10 7 14 21 21 40 21 38 0 47 17 13 24 -25 6 -28 11 -28 46 -1 35 2 40 21
40 13 0 25 4 28 9 8 13 -35 21 -86 17 -27 -2 -33 -1 -15 3 l29 6 -24 22 c-29
27 -84 41 -123 33z m2 -76 c-3 -3 -12 -4 -19 -1 -8 3 -5 6 6 6 11 1 17 -2 13
-5z m-74 -101 c-7 -2 -19 -2 -25 0 -7 3 -2 5 12 5 14 0 19 -2 13 -5z m210 0
c-13 -2 -33 -2 -45 0 -13 2 -3 4 22 4 25 0 35 -2 23 -4z m-136 -9 c-3 -3 -12
-4 -19 -1 -8 3 -5 6 6 6 11 1 17 -2 13 -5z"/>
<path d="M430 557 c-19 -13 -34 -29 -33 -34 1 -6 -5 -9 -15 -8 -80 16 -82 16
-82 -10 0 -22 5 -25 33 -25 32 0 33 -1 29 -36 -4 -34 -6 -36 -33 -30 -26 5
-29 3 -29 -19 0 -22 4 -25 38 -25 27 0 45 -7 58 -21 33 -37 73 -52 126 -47 40
4 57 12 87 42 23 23 46 36 63 36 15 0 30 5 33 10 3 6 -5 10 -19 10 -30 0 -33
4 -38 50 -3 31 0 35 22 38 14 2 29 8 35 13 8 8 0 10 -62 13 -10 1 -29 14 -44
30 -21 24 -36 30 -80 33 -45 4 -60 1 -89 -20z m45 -57 c-28 -12 -37 -12 -30 0
3 6 16 10 28 9 21 0 21 -1 2 -9z m78 -17 c-7 -2 -19 -2 -25 0 -7 3 -2 5 12 5
14 0 19 -2 13 -5z m24 -79 c-3 -3 -12 -4 -19 -1 -8 3 -5 6 6 6 11 1 17 -2 13
-5z m-97 -14 c-20 -13 -43 -13 -35 0 3 6 16 10 28 10 18 0 19 -2 7 -10z"/>
<path d="M855 549 c-31 -27 -41 -31 -75 -26 -37 5 -40 3 -40 -19 0 -20 5 -24
30 -24 28 0 30 -3 30 -36 0 -35 -1 -36 -30 -31 -27 6 -30 4 -30 -18 0 -22 4
-25 37 -25 28 0 45 -8 69 -31 58 -56 156 -50 209 12 14 18 33 29 49 29 35 0
41 16 8 23 -24 5 -27 11 -29 46 -1 39 1 41 28 41 16 0 29 4 29 9 0 11 -67 24
-80 16 -6 -4 -9 -1 -8 6 6 24 -62 59 -113 59 -40 0 -55 -5 -84 -31z m152 -35
c-3 -3 -12 -4 -19 -1 -8 3 -5 6 6 6 11 1 17 -2 13 -5z m-97 -14 c-20 -13 -33
-13 -25 0 3 6 14 10 23 10 15 0 15 -2 2 -10z m83 -17 c-7 -2 -19 -2 -25 0 -7
3 -2 5 12 5 14 0 19 -2 13 -5z m-83 -93 c-20 -13 -33 -13 -25 0 3 6 14 10 23
10 15 0 15 -2 2 -10z m83 -17 c-7 -2 -19 -2 -25 0 -7 3 -2 5 12 5 14 0 19 -2
13 -5z"/>
</g>
</svg>
