<?xml version="1.0" standalone="no"?>
<!DOCTYPE svg PUBLIC "-//W3C//DTD SVG 20010904//EN"
 "http://www.w3.org/TR/2001/REC-SVG-20010904/DTD/svg10.dtd">
<svg version="1.0" xmlns="http://www.w3.org/2000/svg"
 width="239.000000pt" height="127.000000pt" viewBox="0 0 239.000000 127.000000"
 preserveAspectRatio="xMidYMid meet">
<metadata>
Created by potrace 1.16, written by Peter Selinger 2001-2019
</metadata>
<g transform="translate(0.000000,127.000000) scale(0.100000,-0.100000)"
fill="#000000" stroke="none">
<path d="M485 954 c-94 -47 -99 -189 -8 -245 50 -31 132 -23 173 16 119 114
-18 304 -165 229z m94 -168 c-2 -2 -20 3 -39 10 -19 8 -25 12 -12 10 22 -4 30
8 12 19 -5 3 -10 11 -10 16 0 6 12 -4 26 -21 15 -17 25 -32 23 -34z"/>
<path d="M902 949 c-117 -75 -62 -259 77 -261 107 -1 176 115 126 213 -35 66
-136 90 -203 48z m88 -138 l20 -29 -37 11 c-23 7 -31 13 -20 15 20 4 22 13 5
31 -9 10 -10 12 -1 7 7 -4 21 -20 33 -35z"/>
<path d="M1333 950 c-87 -52 -83 -198 6 -245 38 -19 103 -19 141 0 89 46 92
191 5 245 -42 26 -110 26 -152 0z m82 -158 c-8 -2 -22 2 -32 8 -15 9 -14 10 7
4 l24 -7 -18 29 -17 29 25 -30 c20 -23 23 -31 11 -33z"/>
<path d="M1740 948 c-90 -61 -89 -173 2 -241 34 -25 112 -25 147 1 86 63 93
160 17 231 -39 36 -119 41 -166 9z m100 -160 c0 -4 -15 -2 -32 4 -39 13 -52
23 -20 15 22 -5 31 7 12 18 -5 3 -10 12 -10 18 0 12 49 -42 50 -55z"/>
<path d="M750 939 c-7 -11 -10 -22 -8 -23 4 -4 78 -16 78 -13 0 1 -13 15 -29
30 -30 28 -30 28 -41 6z"/>
<path d="M1180 940 c-14 -26 -15 -26 35 -33 37 -6 39 -5 20 9 -11 8 -25 21
-32 30 -10 14 -13 13 -23 -6z"/>
<path d="M2015 940 c-8 -26 -9 -26 40 -35 22 -4 38 -5 35 -3 -3 1 -19 16 -37
31 -31 29 -31 29 -38 7z"/>
<path d="M1603 935 c-7 -20 -6 -21 42 -28 l40 -7 -30 25 c-35 29 -44 30 -52
10z"/>
<path d="M306 924 c-8 -21 -9 -20 39 -27 l40 -7 -30 25 c-36 29 -41 30 -49 9z"/>
<path d="M696 704 c-8 -20 -11 -17 38 -32 l39 -11 -28 30 c-33 33 -40 35 -49
13z"/>
<path d="M1126 704 c-8 -20 -11 -17 38 -32 l39 -11 -28 30 c-33 33 -40 35 -49
13z"/>
<path d="M1557 713 c-16 -16 -4 -30 34 -40 l41 -11 -32 29 c-35 32 -34 32 -43
22z"/>
<path d="M1961 701 c-9 -17 -6 -20 25 -26 20 -3 37 -5 39 -3 1 2 -10 13 -26
26 -27 22 -28 22 -38 3z"/>
<path d="M490 592 c-75 -41 -102 -131 -60 -200 77 -126 263 -73 263 75 0 101
-116 173 -203 125z m69 -143 l24 -32 -29 7 c-16 4 -33 11 -38 16 -5 5 1 6 15
3 20 -5 22 -3 12 8 -12 12 -17 29 -10 29 2 0 14 -14 26 -31z"/>
<path d="M920 592 c-55 -27 -83 -77 -78 -140 9 -106 111 -162 206 -113 53 27
76 74 70 140 -6 58 -32 95 -85 117 -43 18 -71 18 -113 -4z m70 -146 l25 -29
-30 7 c-16 4 -34 11 -39 16 -5 5 1 6 15 3 20 -5 22 -3 12 8 -7 7 -13 17 -13
23 0 5 1 7 3 5 1 -2 13 -17 27 -33z"/>
<path d="M1355 596 c-54 -24 -85 -71 -85 -128 0 -87 58 -148 142 -148 71 0
138 70 138 145 0 100 -107 172 -195 131z m77 -174 c-6 -2 -25 4 -43 12 -34 15
-34 15 -4 9 l30 -6 -20 24 c-14 17 -10 15 13 -6 18 -16 29 -31 24 -33z"/>
<path d="M1752 590 c-106 -48 -103 -211 4 -256 74 -31 152 -3 186 66 37 73 11
150 -62 188 -54 27 -73 27 -128 2z m84 -168 c-2 -1 -19 4 -37 12 -19 9 -24 13
-11 10 22 -5 28 4 15 22 -5 5 2 -2 14 -15 12 -14 21 -27 19 -29z"/>
<path d="M751 572 c-8 -16 -4 -20 30 -29 46 -12 48 -6 9 25 -28 22 -29 22 -39
4z"/>
<path d="M1176 574 c-8 -20 -11 -17 38 -32 l39 -11 -28 30 c-33 33 -40 35 -49
13z"/>
<path d="M1606 574 c-8 -20 -11 -17 38 -32 l40 -11 -33 29 c-38 35 -37 35 -45
14z"/>
<path d="M2016 583 c-15 -15 -3 -30 31 -41 20 -6 38 -10 40 -9 1 2 -13 15 -31
29 -19 15 -36 24 -40 21z"/>
<path d="M306 564 c-8 -20 -11 -17 38 -32 l38 -11 -28 29 c-34 34 -40 36 -48
14z"/>
<path d="M1555 340 c-8 -26 -9 -26 40 -35 22 -4 38 -5 35 -3 -3 1 -19 16 -37
31 -31 29 -31 29 -38 7z"/>
<path d="M1960 340 c-12 -22 -11 -23 43 -34 15 -4 27 -5 27 -4 0 2 -13 16 -29
31 -29 27 -30 27 -41 7z"/>
<path d="M696 334 c-8 -21 -9 -20 39 -27 l40 -7 -30 25 c-36 29 -41 30 -49 9z"/>
<path d="M1123 335 c-7 -20 -6 -21 41 -29 l39 -8 -30 26 c-36 30 -42 31 -50
11z"/>
</g>
</svg>
