<?xml version="1.0" standalone="no"?>
<!DOCTYPE svg PUBLIC "-//W3C//DTD SVG 20010904//EN"
 "http://www.w3.org/TR/2001/REC-SVG-20010904/DTD/svg10.dtd">
<svg version="1.0" xmlns="http://www.w3.org/2000/svg"
 width="124.000000pt" height="182.000000pt" viewBox="0 0 124.000000 182.000000"
 preserveAspectRatio="xMidYMid meet">
<metadata>
Created by potrace 1.16, written by Peter Selinger 2001-2019
</metadata>
<g transform="translate(0.000000,182.000000) scale(0.100000,-0.100000)"
fill="#000000" stroke="none">
<path d="M300 1482 c0 -46 26 -126 52 -164 l19 -28 -37 0 -37 0 7 -61 c4 -39
17 -81 35 -115 l29 -54 -34 0 c-32 0 -34 -2 -34 -33 0 -48 26 -128 55 -171
l24 -36 -39 0 c-39 0 -40 -1 -40 -33 0 -79 52 -190 100 -214 23 -11 19 -13
-39 -13 l-64 0 6 -54 c9 -91 66 -196 106 -196 10 0 5 9 -15 25 -33 26 -68 97
-77 156 l-5 37 31 -17 c45 -23 174 -22 210 2 26 17 27 17 27 -1 0 -48 -34
-128 -70 -164 -22 -22 -32 -38 -23 -38 36 0 87 85 103 171 16 81 17 79 -50 79
l-61 0 34 30 c40 35 72 104 82 178 l7 52 -48 0 -47 0 21 23 c30 32 59 103 67
165 l7 52 -37 0 c-20 0 -35 3 -33 8 38 74 57 127 63 170 l7 52 -36 0 c-38 0
-45 10 -22 30 18 14 42 88 52 153 l6 47 -151 0 -151 0 0 -38z m55 -17 c51 -18
129 -18 180 0 21 8 41 12 44 9 9 -9 -20 -98 -45 -141 -25 -43 -25 -43 -83 -43
-61 0 -74 8 -102 60 -10 21 -41 130 -36 130 1 0 20 -7 42 -15z m90 -240 c61 0
88 4 108 18 26 17 27 17 27 -1 0 -38 -31 -122 -57 -152 -24 -29 -30 -31 -81
-28 -51 3 -58 6 -79 37 -21 31 -29 55 -47 134 l-7 28 28 -18 c20 -14 47 -18
108 -18z m5 -230 c56 0 83 5 103 18 26 17 27 17 27 -1 0 -41 -33 -124 -61
-157 -26 -30 -38 -35 -73 -35 -31 0 -48 6 -63 23 -27 29 -49 74 -58 117 -3 19
-9 43 -11 52 -5 16 -3 16 28 0 22 -12 57 -17 108 -17z m0 -240 c56 0 83 5 103
18 26 17 27 17 27 -1 0 -40 -32 -124 -61 -156 -36 -42 -70 -51 -110 -31 -46
24 -68 66 -93 178 l-7 28 33 -18 c23 -12 56 -18 108 -18z"/>
<path d="M644 1473 c9 -64 24 -111 48 -150 l20 -33 -37 0 -37 0 7 -52 c8 -59
31 -125 52 -149 20 -24 16 -29 -23 -29 l-36 0 7 -52 c8 -62 37 -133 67 -165
l21 -23 -47 0 -48 0 7 -52 c9 -72 56 -169 93 -190 40 -24 84 -23 117 4 32 25
75 111 74 148 0 19 -3 16 -13 -15 -21 -66 -45 -105 -79 -125 -46 -28 -64 -25
-107 18 -36 36 -70 116 -70 164 0 18 1 18 27 1 37 -25 165 -25 211 0 44 24 42
47 -5 47 -34 0 -35 1 -20 18 26 28 57 104 56 137 -1 28 -2 28 -10 -8 -12 -53
-45 -113 -71 -131 -12 -9 -39 -16 -59 -16 -30 0 -43 7 -68 35 -28 33 -61 116
-61 157 0 18 1 18 27 1 37 -25 165 -25 211 0 40 22 43 47 4 47 l-29 0 29 56
c15 31 28 71 27 88 -1 30 -1 30 -10 -7 -10 -43 -34 -94 -57 -119 -11 -13 -30
-18 -71 -18 -55 0 -57 1 -83 41 -24 37 -56 135 -46 144 2 2 24 -3 48 -11 78
-27 210 -4 218 39 3 13 -3 17 -28 17 l-31 0 18 28 c29 42 43 80 42 115 l-1 32
-9 -38 c-10 -43 -34 -94 -57 -119 -11 -13 -30 -18 -73 -18 -58 0 -58 0 -83 43
-24 41 -53 133 -44 142 2 2 24 -3 48 -11 79 -28 210 -4 218 39 3 16 -9 17
-143 17 l-147 0 6 -47z"/>
</g>
</svg>
