<?xml version="1.0" standalone="no"?>
<!DOCTYPE svg PUBLIC "-//W3C//DTD SVG 20010904//EN"
 "http://www.w3.org/TR/2001/REC-SVG-20010904/DTD/svg10.dtd">
<svg version="1.0" xmlns="http://www.w3.org/2000/svg"
 width="180.000000pt" height="370.000000pt" viewBox="0 0 180.000000 370.000000"
 preserveAspectRatio="xMidYMid meet">
<metadata>
Created by potrace 1.16, written by Peter Selinger 2001-2019
</metadata>
<g transform="translate(0.000000,370.000000) scale(0.100000,-0.100000)"
fill="#000000" stroke="none">
<path d="M300 3253 l0 -149 58 3 c137 8 242 40 295 90 88 85 -44 185 -265 200
l-88 6 0 -150z m204 111 c76 -19 136 -52 155 -86 14 -25 14 -29 -5 -55 -38
-50 -115 -81 -244 -98 -53 -6 -54 -6 -32 10 72 52 70 183 -4 240 -17 14 -15
14 26 9 25 -3 72 -12 104 -20z"/>
<path d="M710 3253 l0 -149 63 4 c89 5 215 38 259 67 76 50 76 108 0 156 -63
40 -130 59 -234 66 l-88 6 0 -150z m205 110 c117 -29 177 -82 152 -134 -23
-46 -118 -84 -257 -104 -44 -7 -45 -6 -21 10 44 33 66 128 40 178 -6 12 -23
34 -36 49 l-25 26 43 -5 c24 -3 71 -12 104 -20z"/>
<path d="M1122 3254 l3 -149 65 3 c78 4 179 26 223 48 178 90 64 223 -206 241
l-88 6 3 -149z m200 110 c118 -28 182 -80 160 -129 -23 -51 -120 -92 -257
-110 -48 -6 -49 -6 -27 10 72 52 70 185 -4 239 -17 13 -15 14 26 9 25 -2 71
-11 102 -19z"/>
<path d="M300 2930 l0 -150 33 0 c17 0 61 5 97 10 208 33 305 121 220 200 -52
49 -193 90 -307 90 l-43 0 0 -150z m247 99 c68 -22 123 -66 123 -96 0 -26 -32
-58 -81 -84 -41 -21 -153 -49 -197 -49 l-24 0 26 31 c32 38 40 67 33 125 -3
32 -14 55 -33 76 l-29 31 60 -7 c33 -3 88 -16 122 -27z"/>
<path d="M710 2930 l0 -150 24 0 c56 0 183 23 235 42 65 25 121 75 121 110 0
30 -51 81 -103 102 -52 21 -176 46 -232 46 l-45 0 0 -150z m188 115 c112 -27
187 -80 175 -125 -13 -49 -123 -101 -243 -116 l-55 -7 21 24 c33 37 44 64 44
109 0 45 -11 72 -43 108 l-20 22 29 0 c16 0 57 -7 92 -15z"/>
<path d="M1120 2930 l0 -150 28 0 c15 0 59 5 97 10 257 37 339 162 158 242
-51 22 -175 47 -240 48 l-43 0 0 -150z m247 99 c68 -22 123 -66 123 -96 0 -26
-32 -58 -81 -84 -41 -21 -153 -49 -197 -49 l-24 0 26 30 c52 63 52 138 -2 201
l-27 32 60 -7 c33 -3 88 -16 122 -27z"/>
<path d="M300 2621 l0 -151 43 0 c114 0 255 41 307 90 93 87 -34 183 -273 205
l-77 7 0 -151z m191 111 c118 -29 190 -82 174 -131 -14 -46 -127 -97 -238
-107 -53 -6 -60 -4 -46 7 33 29 49 64 49 112 0 51 -10 78 -43 115 l-20 22 24
0 c13 0 58 -8 100 -18z"/>
<path d="M710 2621 l0 -151 44 0 c108 0 256 44 303 89 93 89 -34 183 -279 207
l-68 6 0 -151z m237 98 c67 -21 117 -57 126 -89 14 -56 -103 -123 -238 -137
l-60 -6 21 24 c32 36 44 64 44 104 0 47 -22 98 -51 120 -23 16 -23 17 36 10
32 -4 87 -16 122 -26z"/>
<path d="M1120 2620 l0 -150 43 0 c114 0 262 44 309 91 80 79 -24 170 -226
198 -43 6 -88 11 -102 11 l-24 0 0 -150z m191 112 c118 -29 190 -82 174 -131
-14 -46 -127 -97 -238 -107 -53 -6 -60 -4 -46 7 33 29 49 64 49 112 0 51 -10
78 -43 115 l-20 22 24 0 c13 0 58 -8 100 -18z"/>
<path d="M450 1720 l0 -150 50 0 c111 0 253 43 308 93 33 31 30 82 -8 117 -47
44 -210 89 -322 90 l-28 0 0 -150z m226 105 c68 -20 133 -62 140 -90 8 -34
-17 -70 -66 -95 -45 -23 -150 -50 -197 -50 l-32 0 24 24 c54 54 53 150 -2 209
l-28 29 59 -7 c32 -4 78 -13 102 -20z"/>
<path d="M860 1720 l0 -150 43 0 c114 0 255 41 307 90 84 79 -19 171 -224 199
-43 6 -88 11 -102 11 l-24 0 0 -150z m178 114 c88 -18 146 -47 175 -86 18 -25
19 -30 7 -53 -26 -48 -123 -90 -233 -102 l-60 -6 22 22 c28 28 41 63 41 112 0
44 -11 72 -43 107 -26 28 -17 28 91 6z"/>
<path d="M450 1394 l0 -147 88 6 c166 10 292 71 292 141 0 78 -147 145 -317
146 l-63 0 0 -146z m215 109 c71 -18 91 -27 128 -61 36 -34 34 -64 -4 -96 -48
-40 -106 -61 -234 -81 l-40 -7 26 29 c58 62 59 145 3 213 l-26 31 43 -7 c24
-3 71 -13 104 -21z"/>
<path d="M860 1395 l0 -148 88 6 c163 10 292 72 292 142 0 70 -129 132 -292
142 l-88 6 0 -148z m196 113 c68 -14 133 -47 158 -81 19 -26 19 -30 5 -55 -26
-48 -124 -88 -259 -106 -43 -7 -44 -6 -22 9 70 50 70 189 0 240 -22 16 -22 17
22 10 25 -3 68 -11 96 -17z"/>
<path d="M452 1083 l3 -148 60 3 c90 4 162 19 220 46 66 30 95 61 95 102 0 36
-37 74 -99 100 -48 21 -171 44 -232 44 l-50 0 3 -147z m228 104 c154 -46 182
-125 66 -182 -48 -24 -167 -54 -210 -55 -18 0 -17 3 8 28 56 59 54 158 -4 212
l-28 26 57 -7 c31 -3 81 -14 111 -22z"/>
<path d="M860 1079 l0 -151 68 7 c235 23 359 104 296 193 -34 50 -196 102
-314 102 l-50 0 0 -151z m224 110 c54 -14 123 -55 136 -80 34 -63 -79 -135
-245 -154 -58 -7 -59 -6 -37 10 32 23 52 68 52 114 0 52 -13 83 -45 113 l-26
25 62 -9 c35 -4 81 -13 103 -19z"/>
<path d="M450 770 l0 -153 78 7 c154 12 284 66 298 122 22 87 -96 153 -298
170 l-78 7 0 -153z m243 100 c72 -22 127 -66 127 -100 0 -53 -114 -111 -247
-127 l-55 -6 26 28 c54 59 54 151 0 210 l-26 28 55 -6 c30 -4 84 -16 120 -27z"/>
<path d="M860 770 l0 -153 76 6 c82 7 183 31 224 52 43 22 80 66 80 95 0 29
-37 73 -80 95 -41 21 -142 45 -224 52 l-76 6 0 -153z m243 99 c138 -45 161
-116 57 -173 -49 -27 -154 -56 -204 -56 l-29 0 20 23 c32 35 43 62 43 107 0
45 -11 72 -44 109 l-21 24 58 -7 c31 -3 85 -15 120 -27z"/>
<path d="M466 592 c-3 -3 -6 -68 -6 -144 0 -138 0 -138 23 -138 27 0 61 33 76
73 22 59 9 131 -31 175 l-21 22 40 0 c74 0 257 -21 345 -40 89 -19 154 -47
177 -74 37 -44 -58 -94 -227 -122 -137 -22 -176 -35 -85 -28 128 9 268 50 316
92 47 41 -1 96 -115 131 -106 32 -474 72 -492 53z"/>
</g>
</svg>
