<?xml version="1.0" standalone="no"?>
<!DOCTYPE svg PUBLIC "-//W3C//DTD SVG 20010904//EN"
 "http://www.w3.org/TR/2001/REC-SVG-20010904/DTD/svg10.dtd">
<svg version="1.0" xmlns="http://www.w3.org/2000/svg"
 width="141.000000pt" height="219.000000pt" viewBox="0 0 141.000000 219.000000"
 preserveAspectRatio="xMidYMid meet">
<metadata>
Created by potrace 1.16, written by Peter Selinger 2001-2019
</metadata>
<g transform="translate(0.000000,219.000000) scale(0.100000,-0.100000)"
fill="#000000" stroke="none">
<path d="M302 1744 l3 -149 65 3 c121 6 227 38 278 85 l22 20 0 -55 0 -56 63
5 c93 7 216 40 260 69 22 14 44 39 50 55 8 21 18 29 37 30 24 0 24 1 -5 12
-17 7 -41 22 -52 34 -49 50 -187 93 -297 93 l-56 0 0 -51 0 -50 -35 26 c-48
37 -145 65 -248 72 l-88 6 3 -149z m200 110 c65 -15 128 -45 147 -68 12 -14 5
-16 -65 -16 -114 0 -152 8 -160 34 -4 11 -20 33 -35 47 l-29 27 42 -5 c24 -3
69 -11 100 -19z m373 -1 c63 -15 145 -57 145 -73 0 -11 -134 -13 -192 -4 -22
4 -38 12 -38 20 0 7 -14 29 -30 48 l-30 34 42 -5 c24 -3 70 -12 103 -20z
m-205 -112 c0 -21 -53 -70 -92 -86 -40 -16 -172 -45 -203 -45 -8 0 -1 13 16
29 16 16 32 43 35 60 7 33 19 38 119 44 107 7 125 7 125 -2z m360 -2 c0 -54
-98 -101 -260 -125 l-45 -6 25 23 c14 13 32 40 40 59 7 19 15 37 18 40 3 4 74
11 195 18 15 1 27 -3 27 -9z"/>
<path d="M300 1405 l0 -148 88 6 c102 6 209 37 252 73 l30 26 0 -51 0 -51 58
0 c136 1 280 54 309 115 12 26 23 35 40 35 14 0 21 4 18 10 -3 6 -17 10 -30
10 -14 0 -29 9 -35 20 -25 47 -182 100 -297 100 l-63 0 0 -52 0 -51 -24 22
c-41 38 -151 72 -253 78 l-93 6 0 -148z m195 113 c62 -13 128 -43 151 -69 17
-19 16 -19 -47 -19 -35 0 -87 3 -116 6 -45 6 -53 10 -64 36 -6 16 -23 38 -37
49 l-26 20 45 -6 c24 -4 67 -11 94 -17z m379 -4 c67 -16 137 -52 144 -73 4
-12 -14 -13 -104 -8 -89 4 -111 8 -119 23 -5 9 -23 32 -39 51 l-29 34 44 -7
c24 -3 71 -12 103 -20z m-204 -113 c0 -4 -9 -20 -20 -33 -33 -43 -116 -74
-249 -94 l-45 -6 27 23 c16 13 34 42 41 64 l14 40 69 6 c113 9 163 9 163 0z
m360 -6 c0 -40 -101 -95 -200 -109 -25 -4 -58 -10 -75 -13 l-30 -5 27 28 c15
16 34 46 42 66 16 37 16 37 83 41 156 8 153 8 153 -8z"/>
<path d="M300 1071 l0 -151 28 0 c102 1 247 38 299 76 17 13 34 24 37 24 3 0
6 -22 6 -50 0 -46 2 -50 24 -50 56 0 183 23 235 42 58 22 121 75 121 101 0 9
11 17 28 20 l27 4 -28 2 c-18 0 -38 12 -55 33 -14 17 -46 40 -69 50 -51 23
-177 48 -239 48 l-44 0 0 -50 0 -49 -36 24 c-52 35 -152 64 -250 72 l-84 6 0
-152z m199 113 c64 -14 161 -63 161 -81 0 -5 -50 -6 -110 -3 -105 5 -129 12
-130 40 0 3 -11 18 -25 33 l-26 27 31 0 c17 0 62 -7 99 -16z m359 1 c69 -16
131 -45 151 -69 12 -14 4 -16 -80 -16 -106 0 -139 6 -139 25 0 8 -12 27 -26
44 l-26 31 29 0 c15 0 56 -7 91 -15z m-188 -124 c0 -14 -42 -51 -78 -70 -38
-19 -164 -51 -203 -51 -23 0 -22 0 4 28 15 15 29 42 33 59 6 30 10 32 58 38
117 13 186 11 186 -4z m332 -43 c-35 -30 -129 -62 -215 -73 l-57 -7 29 31 c16
17 32 45 36 61 6 26 11 29 58 34 171 20 209 8 149 -46z"/>
<path d="M300 759 l0 -152 84 6 c98 8 196 36 249 72 l37 26 0 -52 0 -52 78 6
c92 8 204 38 241 64 14 11 35 34 46 51 11 17 28 31 37 32 27 0 32 20 5 20 -15
0 -39 14 -58 33 -42 41 -121 72 -223 86 -129 18 -126 19 -126 -39 0 -54 -7
-61 -35 -30 -30 33 -205 80 -302 80 l-33 0 0 -151z m183 116 c73 -15 162 -58
172 -82 4 -12 0 -14 -17 -9 -13 3 -64 6 -115 6 -83 0 -92 2 -98 20 -4 11 -18
34 -32 50 l-25 30 24 0 c12 0 54 -7 91 -15z m425 -17 c37 -11 76 -32 95 -49
31 -30 31 -30 7 -25 -14 3 -66 6 -117 6 l-92 0 -17 35 c-9 20 -26 43 -38 51
-20 15 -17 15 39 9 32 -4 88 -16 123 -27z m-238 -109 c0 -23 -63 -68 -123 -88
-77 -27 -190 -39 -167 -19 27 23 50 62 50 85 0 19 6 22 43 26 98 9 197 7 197
-4z m360 -2 c0 -17 -36 -50 -77 -71 -38 -19 -146 -46 -186 -46 l-29 0 25 30
c14 16 28 43 32 59 7 33 17 36 163 39 54 2 72 -1 72 -11z"/>
<path d="M311 592 c-7 -2 -11 -53 -11 -149 l0 -146 88 6 c114 8 211 38 257 81
19 18 35 41 35 50 0 11 9 16 30 16 17 0 30 5 30 10 0 6 -13 10 -28 10 -18 0
-38 10 -53 26 -29 31 -79 58 -139 74 -48 13 -191 28 -209 22z m153 -27 c88
-16 153 -43 180 -74 l19 -21 -49 0 c-27 0 -79 3 -116 6 -62 6 -68 9 -79 36 -6
16 -23 38 -37 48 -30 24 -20 25 82 5z m206 -123 c0 -18 -34 -54 -71 -72 -41
-21 -123 -44 -197 -54 l-44 -7 27 23 c14 13 32 41 39 63 14 39 15 40 73 46 92
9 173 10 173 1z"/>
</g>
</svg>
