<?xml version="1.0" standalone="no"?>
<!DOCTYPE svg PUBLIC "-//W3C//DTD SVG 20010904//EN"
 "http://www.w3.org/TR/2001/REC-SVG-20010904/DTD/svg10.dtd">
<svg version="1.0" xmlns="http://www.w3.org/2000/svg"
 width="232.000000pt" height="400.000000pt" viewBox="0 0 232.000000 400.000000"
 preserveAspectRatio="xMidYMid meet">
<metadata>
Created by potrace 1.16, written by Peter Selinger 2001-2019
</metadata>
<g transform="translate(0.000000,400.000000) scale(0.100000,-0.100000)"
fill="#000000" stroke="none">
<path d="M682 3679 c-42 -27 -62 -67 -62 -121 0 -111 122 -177 218 -118 l33
20 80 -43 81 -44 -35 -22 c-64 -39 -85 -126 -47 -189 43 -70 128 -91 200 -51
l38 22 79 -45 c43 -25 89 -49 103 -53 23 -7 24 -7 10 10 -8 10 -49 41 -90 68
l-75 49 0 58 c0 43 -5 66 -21 86 -27 37 -63 63 -94 66 -14 2 -66 30 -116 62
l-90 59 4 52 c5 63 -15 107 -61 135 -43 27 -112 26 -155 -1z m423 -449 c3 -6
-1 -7 -9 -4 -18 7 -21 14 -7 14 6 0 13 -4 16 -10z m25 -56 c0 -2 -9 0 -20 6
-11 6 -20 13 -20 16 0 2 9 0 20 -6 11 -6 20 -13 20 -16z m55 -2 c-3 -3 -11 0
-18 7 -9 10 -8 11 6 5 10 -3 15 -9 12 -12z"/>
<path d="M1014 3690 c-27 -11 -72 -65 -80 -96 -13 -49 3 -97 45 -136 35 -33
47 -38 87 -38 28 0 61 8 83 21 l38 21 88 -51 c145 -83 156 -63 16 29 l-79 51
1 58 c2 66 -16 101 -66 131 -33 21 -96 25 -133 10z m166 -216 c0 -2 -9 0 -20
6 -11 6 -20 13 -20 16 0 2 9 0 20 -6 11 -6 20 -13 20 -16z"/>
<path d="M717 3365 c-67 -23 -97 -65 -97 -136 0 -110 110 -170 215 -118 l42
21 76 -43 c42 -24 76 -46 77 -49 0 -3 -14 -13 -30 -22 -89 -51 -92 -184 -4
-239 46 -28 117 -28 155 0 16 12 30 21 32 21 2 0 44 -22 93 -50 144 -81 155
-61 15 29 l-78 50 1 58 c1 41 -5 68 -17 87 -20 30 -73 66 -99 66 -9 0 -58 29
-109 64 l-93 63 2 54 c2 39 -3 63 -17 86 -34 55 -104 80 -164 58z m434 -502
c13 -16 12 -17 -3 -4 -10 7 -18 15 -18 17 0 8 8 3 21 -13z"/>
<path d="M682 3019 c-42 -27 -62 -67 -62 -121 0 -112 118 -177 215 -119 l37
21 74 -42 c41 -23 74 -45 74 -48 0 -4 -11 -12 -24 -19 -13 -7 -33 -30 -45 -51
-71 -128 69 -262 199 -189 l37 21 79 -45 c44 -25 90 -48 104 -52 23 -7 24 -6
10 9 -7 10 -49 41 -93 68 l-79 51 6 42 c12 75 -36 149 -103 161 -20 4 -77 34
-127 68 l-91 60 5 50 c6 60 -16 107 -63 136 -43 27 -110 26 -153 -1z m148
-185 c0 -2 -9 0 -20 6 -11 6 -20 13 -20 16 0 2 9 0 20 -6 11 -6 20 -13 20 -16z
m280 -310 c0 -2 -9 0 -20 6 -11 6 -20 13 -20 16 0 2 9 0 20 -6 11 -6 20 -13
20 -16z"/>
<path d="M683 2690 c-87 -52 -83 -198 6 -245 42 -21 106 -19 150 5 l36 21 90
-51 c148 -82 156 -63 12 30 l-83 54 4 51 c8 93 -48 155 -138 155 -27 0 -58 -8
-77 -20z m167 -196 c0 -2 -9 0 -20 6 -11 6 -20 13 -20 16 0 2 9 0 20 -6 11 -6
20 -13 20 -16z"/>
<path d="M716 2380 c-109 -34 -131 -185 -38 -255 36 -27 131 -28 159 -2 27 24
34 22 121 -27 42 -24 88 -47 102 -51 22 -7 23 -6 11 9 -8 9 -50 40 -95 70
l-81 52 3 55 c4 84 -40 141 -118 153 -19 3 -48 1 -64 -4z m84 -186 c0 -2 -9 0
-20 6 -11 6 -20 13 -20 16 0 2 9 0 20 -6 11 -6 20 -13 20 -16z"/>
<path d="M383 960 c-60 -27 -85 -71 -80 -138 8 -108 110 -162 212 -111 l42 21
83 -47 82 -48 -31 -20 c-83 -52 -82 -186 2 -237 42 -26 112 -26 155 0 l33 20
93 -50 c149 -80 158 -63 14 29 l-84 54 4 52 c7 87 -48 155 -125 155 -17 0 -34
4 -38 10 -3 5 -44 34 -90 64 -82 53 -84 56 -75 85 19 68 -29 151 -99 171 -47
13 -49 13 -98 -10z m157 -176 c0 -2 -9 0 -20 6 -11 6 -20 13 -20 16 0 2 9 0
20 -6 11 -6 20 -13 20 -16z"/>
<path d="M713 961 c-53 -25 -83 -71 -83 -129 0 -55 23 -94 70 -121 48 -27 92
-27 145 0 l42 21 76 -43 c74 -42 92 -59 64 -59 -15 0 -59 -45 -76 -77 -26 -52
-6 -120 49 -167 41 -34 123 -37 163 -6 14 11 28 20 31 20 3 0 45 -22 93 -50
144 -83 153 -62 12 31 l-80 52 6 38 c13 73 -36 151 -103 165 -31 6 -25 3 -133
75 l-84 55 3 55 c6 116 -93 187 -195 140z m117 -187 c0 -2 -9 0 -20 6 -11 6
-20 13 -20 16 0 2 9 0 20 -6 11 -6 20 -13 20 -16z m290 -320 c0 -2 -9 0 -20 6
-11 6 -20 13 -20 16 0 2 9 0 20 -6 11 -6 20 -13 20 -16z m70 -40 c0 -2 -9 0
-20 6 -11 6 -20 13 -20 16 0 2 9 0 20 -6 11 -6 20 -13 20 -16z"/>
<path d="M1037 966 c-48 -18 -62 -29 -81 -70 -33 -69 -10 -145 56 -187 41 -25
117 -21 156 8 l27 20 73 -44 c41 -23 78 -43 84 -43 6 0 -4 -10 -22 -22 -52
-36 -75 -74 -74 -122 1 -55 27 -99 77 -126 46 -26 104 -23 147 8 l27 20 68
-40 c155 -89 184 -80 43 14 l-86 57 5 40 c3 22 3 51 -1 65 -10 41 -55 85 -99
97 -23 7 -81 37 -128 67 l-86 56 1 57 c1 44 -4 64 -20 85 -45 62 -104 82 -167
60z m123 -202 c0 -2 -9 0 -20 6 -11 6 -20 13 -20 16 0 2 9 0 20 -6 11 -6 20
-13 20 -16z m300 -320 c0 -2 -9 0 -20 6 -11 6 -20 13 -20 16 0 2 9 0 20 -6 11
-6 20 -13 20 -16z"/>
<path d="M1356 970 c-42 -13 -85 -58 -97 -104 -8 -31 -7 -48 6 -82 32 -84 135
-120 206 -71 l36 24 74 -43 c148 -87 179 -77 42 14 l-88 58 3 54 c4 70 -22
113 -81 140 -46 21 -58 22 -101 10z"/>
<path d="M1653 960 c-60 -27 -85 -71 -80 -138 8 -109 110 -162 213 -111 l42
22 80 -47 c73 -43 121 -59 107 -36 -3 5 -44 34 -90 64 -82 53 -84 56 -75 85
19 68 -29 151 -99 171 -47 13 -49 13 -98 -10z m117 -186 c0 -2 -9 0 -20 6 -11
6 -20 13 -20 16 0 2 9 0 20 -6 11 -6 20 -13 20 -16z m55 -2 c-3 -3 -11 0 -18
7 -9 10 -8 11 6 5 10 -3 15 -9 12 -12z"/>
<path d="M366 621 c-89 -59 -88 -198 3 -246 42 -21 106 -19 151 6 l37 21 39
-25 c54 -33 141 -77 155 -77 21 0 -7 24 -95 80 -78 50 -85 57 -78 80 16 62 -9
129 -61 160 -42 26 -113 26 -151 1z m130 -142 c3 -6 -5 -3 -20 6 -14 10 -26
19 -26 22 0 7 39 -17 46 -28z m60 -40 c3 -6 -5 -3 -20 6 -14 10 -26 19 -26 22
0 7 39 -17 46 -28z"/>
</g>
</svg>
