<?xml version="1.0" standalone="no"?>
<!DOCTYPE svg PUBLIC "-//W3C//DTD SVG 20010904//EN"
 "http://www.w3.org/TR/2001/REC-SVG-20010904/DTD/svg10.dtd">
<svg version="1.0" xmlns="http://www.w3.org/2000/svg"
 width="160.000000pt" height="240.000000pt" viewBox="0 0 160.000000 240.000000"
 preserveAspectRatio="xMidYMid meet">
<metadata>
Created by potrace 1.16, written by Peter Selinger 2001-2019
</metadata>
<g transform="translate(0.000000,240.000000) scale(0.100000,-0.100000)"
fill="#000000" stroke="none">
<path d="M495 2090 c-40 -16 -77 -67 -82 -113 -11 -91 50 -157 145 -157 43 0
57 5 86 30 77 68 69 178 -17 230 -33 21 -96 25 -132 10z m84 -174 c-2 -2 -20
3 -39 10 -19 8 -25 12 -12 10 22 -4 30 8 12 19 -5 3 -10 11 -10 16 0 6 12 -4
26 -21 15 -17 25 -32 23 -34z"/>
<path d="M952 2080 c-68 -41 -89 -117 -53 -188 25 -48 70 -74 128 -74 52 0 85
20 121 72 78 116 -74 264 -196 190z m97 -164 c-2 -2 -20 3 -39 10 -19 8 -25
12 -12 10 22 -4 30 8 12 19 -5 3 -10 11 -10 16 0 6 12 -4 26 -21 15 -17 25
-32 23 -34z"/>
<path d="M755 2069 c-8 -25 -9 -24 35 -33 l34 -6 -29 30 c-16 16 -30 30 -31
30 -2 0 -6 -9 -9 -21z"/>
<path d="M1223 2065 c-7 -20 -6 -21 41 -29 l39 -8 -30 26 c-36 30 -42 31 -50
11z"/>
<path d="M306 2054 c-8 -21 -9 -20 39 -28 l40 -7 -30 25 c-36 30 -41 31 -49
10z"/>
<path d="M696 1834 c-8 -20 -10 -18 37 -31 44 -13 46 -10 10 22 -33 29 -39 30
-47 9z"/>
<path d="M1171 1832 c-8 -16 -4 -20 30 -29 46 -12 48 -6 9 25 -28 22 -29 22
-39 4z"/>
<path d="M491 1708 c-76 -39 -103 -127 -61 -196 76 -125 262 -77 264 69 2 109
-108 177 -203 127z m68 -139 l24 -32 -29 7 c-16 4 -33 11 -38 16 -5 5 1 6 15
3 20 -5 22 -3 12 8 -12 12 -17 29 -10 29 2 0 14 -14 26 -31z"/>
<path d="M961 1708 c-101 -52 -107 -182 -12 -245 116 -78 263 50 206 178 -34
75 -121 105 -194 67z m68 -139 l24 -32 -29 7 c-16 4 -33 11 -38 16 -5 5 1 6
14 3 20 -5 21 -4 11 16 -17 30 -8 26 18 -10z"/>
<path d="M751 1692 c-8 -16 -4 -20 30 -29 46 -12 48 -6 9 25 -28 22 -29 22
-39 4z"/>
<path d="M1226 1703 c-15 -15 -3 -30 31 -41 20 -6 38 -10 40 -9 1 2 -13 15
-31 29 -19 15 -36 24 -40 21z"/>
<path d="M306 1684 c-8 -22 -9 -21 18 -28 13 -3 32 -9 43 -12 11 -4 5 5 -15
25 -39 36 -38 36 -46 15z"/>
<path d="M696 1454 c-8 -21 -9 -20 39 -28 l40 -7 -30 25 c-36 30 -41 31 -49
10z"/>
<path d="M1166 1454 c-8 -21 -9 -20 39 -28 l40 -7 -30 25 c-36 30 -41 31 -49
10z"/>
<path d="M482 1340 c-50 -31 -74 -76 -69 -132 2 -26 12 -59 21 -73 24 -37 99
-69 142 -60 45 8 100 57 114 101 40 120 -99 230 -208 164z m93 -168 c-1 -2
-18 4 -36 12 -19 9 -24 13 -11 10 22 -5 31 9 12 21 -5 3 -10 11 -10 18 0 6 11
-4 24 -23 13 -19 23 -36 21 -38z"/>
<path d="M953 1340 c-154 -94 -35 -325 130 -252 110 49 114 200 6 254 -45 23
-96 23 -136 -2z m94 -166 c-2 -3 -20 2 -38 10 -19 9 -24 13 -11 10 22 -5 31 9
12 21 -5 3 -10 11 -10 16 0 6 12 -4 26 -21 15 -17 24 -33 21 -36z"/>
<path d="M751 1321 c-9 -17 -6 -19 27 -24 20 -2 38 -3 39 -2 2 1 -11 11 -27
23 -28 21 -30 21 -39 3z"/>
<path d="M1223 1325 c-7 -21 -5 -22 42 -30 l40 -6 -27 16 c-16 9 -28 20 -28
25 0 16 -20 11 -27 -5z"/>
<path d="M306 1314 c-8 -21 -9 -20 38 -28 l39 -8 -30 26 c-36 31 -39 31 -47
10z"/>
<path d="M701 1092 c-8 -16 -4 -20 30 -29 l40 -11 -27 29 c-33 34 -31 34 -43
11z"/>
<path d="M1171 1092 c-8 -16 -4 -20 30 -29 l40 -11 -27 29 c-33 34 -31 34 -43
11z"/>
<path d="M473 959 c-107 -69 -67 -242 61 -256 147 -17 221 149 110 247 -29 25
-43 30 -87 30 -35 0 -62 -7 -84 -21z m92 -157 c-8 -2 -22 2 -32 8 -17 11 -17
11 0 6 18 -6 24 9 7 19 -5 3 -10 12 -10 18 0 7 11 -1 24 -18 18 -22 21 -31 11
-33z"/>
<path d="M940 954 c-61 -52 -77 -122 -40 -182 54 -88 176 -96 239 -16 46 58
35 141 -25 194 -29 25 -43 30 -89 30 -43 0 -59 -5 -85 -26z m88 -124 c15 -20
18 -30 9 -30 -7 0 -18 14 -24 30 -6 17 -10 30 -9 30 1 0 12 -13 24 -30z"/>
<path d="M751 952 c-9 -17 -5 -21 30 -31 23 -7 42 -11 43 -9 2 2 -12 16 -30
31 -31 27 -33 27 -43 9z"/>
<path d="M1226 954 c-3 -9 -6 -17 -6 -19 0 -5 73 -25 76 -22 2 2 -12 15 -31
30 -28 22 -34 24 -39 11z"/>
<path d="M310 940 c-9 -16 -5 -20 27 -29 20 -6 38 -9 39 -8 1 1 -11 14 -27 29
-28 24 -30 25 -39 8z"/>
<path d="M696 714 c-8 -21 -9 -20 38 -28 l39 -8 -30 26 c-36 31 -39 31 -47 10z"/>
<path d="M1167 710 c-4 -14 0 -20 11 -20 10 0 28 -3 42 -6 24 -6 24 -6 -5 20
-37 31 -41 31 -48 6z"/>
<path d="M490 581 c-127 -67 -95 -249 48 -268 75 -10 143 43 158 124 10 51
-27 117 -80 142 -52 26 -81 26 -126 2z m69 -142 l24 -32 -29 7 c-16 4 -33 11
-38 16 -5 5 1 6 14 3 20 -5 21 -4 11 16 -17 30 -8 26 18 -10z"/>
<path d="M751 562 c-8 -16 -4 -20 30 -29 46 -12 48 -6 9 25 -28 22 -29 22 -39
4z"/>
<path d="M306 554 c-8 -20 -10 -18 37 -31 44 -13 46 -10 10 22 -33 29 -39 30
-47 9z"/>
<path d="M700 329 c-12 -22 4 -33 39 -27 19 3 19 4 -4 25 -25 21 -25 21 -35 2z"/>
</g>
</svg>
