<?xml version="1.0" standalone="no"?>
<!DOCTYPE svg PUBLIC "-//W3C//DTD SVG 20010904//EN"
 "http://www.w3.org/TR/2001/REC-SVG-20010904/DTD/svg10.dtd">
<svg version="1.0" xmlns="http://www.w3.org/2000/svg"
 width="185.000000pt" height="372.000000pt" viewBox="0 0 185.000000 372.000000"
 preserveAspectRatio="xMidYMid meet">
<metadata>
Created by potrace 1.16, written by Peter Selinger 2001-2019
</metadata>
<g transform="translate(0.000000,372.000000) scale(0.100000,-0.100000)"
fill="#000000" stroke="none">
<path d="M390 3306 l0 -116 -45 0 c-42 0 -45 -2 -45 -26 0 -24 2 -25 46 -18
l45 6 -3 -38 -3 -39 -42 3 c-41 3 -43 2 -43 -23 0 -25 1 -26 45 -19 l45 6 0
-102 0 -103 83 7 c218 17 403 101 455 207 l22 44 0 -129 0 -129 83 6 c176 14
337 74 417 157 25 26 58 50 73 54 31 7 36 26 7 26 -17 0 -20 7 -20 41 0 32 4
42 20 46 28 7 25 23 -5 23 -14 0 -25 4 -25 9 0 5 -20 31 -45 59 -79 88 -233
147 -412 159 l-93 6 0 -129 0 -129 -21 42 c-28 56 -78 99 -163 139 -95 44
-172 64 -283 71 l-93 6 0 -117z m235 73 c203 -48 330 -160 308 -271 l-6 -29
-98 7 -99 7 0 -27 c0 -24 2 -25 43 -21 23 2 66 7 95 9 l53 5 -19 -24 c-67 -85
-218 -152 -385 -171 l-62 -7 32 27 c123 104 122 386 -2 494 l-35 32 47 -6 c27
-3 84 -14 128 -25z m564 0 c101 -23 209 -78 256 -130 19 -22 35 -43 35 -47 0
-4 -27 -6 -61 -4 -59 4 -61 4 -57 -19 3 -23 6 -24 71 -20 66 3 67 3 67 -22 0
-49 -6 -53 -76 -49 -64 4 -66 3 -62 -20 3 -21 7 -23 56 -20 52 4 53 3 42 -17
-37 -70 -216 -149 -375 -167 l-60 -7 32 34 c59 63 78 120 78 239 0 121 -19
178 -82 242 l-36 36 44 -5 c24 -3 82 -14 128 -24z m-716 -216 c-7 -2 -19 -2
-25 0 -7 3 -2 5 12 5 14 0 19 -2 13 -5z m4 -109 c-3 -3 -12 -4 -19 -1 -8 3 -5
6 6 6 11 1 17 -2 13 -5z"/>
<path d="M730 3178 l0 -28 63 6 c96 8 127 14 127 24 0 6 -12 10 -27 11 -16 0
-58 3 -95 8 l-68 7 0 -28z"/>
<path d="M390 2650 l0 -123 -45 6 c-43 6 -45 5 -45 -18 0 -23 4 -25 45 -25
l45 0 0 -36 0 -37 -45 6 c-43 6 -45 5 -45 -18 0 -23 4 -25 45 -25 l45 0 0 -95
0 -95 59 0 c116 0 277 43 366 98 60 37 95 73 116 117 l19 40 0 -129 0 -129 93
6 c179 12 332 70 410 157 32 36 53 50 71 50 31 0 35 15 6 23 -16 4 -20 14 -20
46 0 34 3 41 20 41 28 0 25 17 -4 24 -13 3 -35 24 -50 46 -66 100 -299 190
-492 190 l-34 0 0 -127 c-1 -118 -2 -125 -15 -96 -47 110 -238 201 -459 219
l-86 7 0 -123z m247 74 c79 -20 191 -76 232 -116 47 -46 74 -108 65 -153 l-6
-36 -62 6 c-33 3 -78 8 -98 10 -36 5 -38 4 -38 -21 l0 -27 90 7 c56 5 90 4 90
-2 0 -21 -86 -86 -154 -117 -65 -30 -162 -56 -260 -69 l-39 -5 36 37 c61 63
81 121 82 237 0 90 -3 107 -29 163 -16 35 -43 75 -60 89 l-31 26 62 -7 c34 -4
88 -14 120 -22z m558 1 c91 -24 198 -78 244 -124 57 -57 54 -65 -19 -58 -59 7
-60 6 -60 -19 0 -26 1 -26 67 -22 72 3 80 -2 68 -49 -6 -25 -7 -26 -71 -20
-64 6 -64 6 -64 -19 0 -25 2 -26 55 -22 30 1 55 1 55 -3 0 -10 -65 -67 -107
-93 -56 -34 -173 -73 -248 -81 -33 -4 -69 -9 -79 -12 -13 -4 -7 7 18 32 64 63
80 113 81 240 0 101 -2 115 -28 167 -15 31 -42 69 -60 84 l-32 27 60 -6 c33
-4 87 -13 120 -22z m-718 -211 c-3 -3 -12 -4 -19 -1 -8 3 -5 6 6 6 11 1 17 -2
13 -5z m-12 -114 c-27 -12 -43 -12 -25 0 8 5 22 9 30 9 10 0 8 -3 -5 -9z"/>
<path d="M730 2523 l0 -26 88 7 c140 12 129 28 -25 40 -62 4 -63 4 -63 -21z"/>
<path d="M396 2132 c-3 -3 -6 -57 -6 -120 l0 -114 -45 4 c-43 3 -45 2 -45 -23
0 -26 2 -26 45 -21 l45 5 0 -38 0 -37 -45 4 c-43 3 -45 2 -45 -23 0 -26 2 -26
45 -21 l45 5 0 -102 c0 -116 -12 -107 120 -91 205 25 365 104 420 209 l19 36
1 -129 0 -128 78 6 c185 16 334 73 426 162 31 30 65 54 76 54 11 0 20 5 20 10
0 6 -9 10 -20 10 -17 0 -20 7 -20 45 0 38 3 45 20 45 11 0 20 5 20 10 0 6 -11
10 -24 10 -15 0 -27 7 -31 19 -10 33 -103 111 -168 141 -34 16 -89 36 -122 45
-68 18 -222 35 -242 28 -10 -4 -13 -36 -13 -127 l-1 -121 -19 36 c-45 86 -160
155 -314 188 -95 21 -211 33 -220 23z m241 -43 c194 -49 318 -162 296 -271
l-6 -29 -76 6 c-42 3 -86 8 -98 11 -20 4 -23 0 -23 -26 0 -27 3 -29 28 -25 69
11 152 14 152 6 0 -23 -106 -102 -174 -130 -61 -25 -214 -61 -261 -61 -6 0 5
18 26 40 109 114 102 366 -12 479 l-34 33 55 -7 c30 -4 87 -16 127 -26z m553
4 c125 -30 247 -102 282 -166 10 -19 7 -19 -51 -15 -61 4 -62 4 -59 -21 3 -24
5 -25 71 -22 64 2 67 1 67 -21 0 -44 -13 -51 -79 -46 -61 4 -62 4 -59 -21 3
-24 6 -25 57 -22 53 3 53 3 38 -19 -22 -31 -97 -83 -159 -110 -52 -22 -212
-60 -256 -60 -23 0 -23 1 7 25 16 14 42 51 57 82 65 132 30 356 -67 426 -24
17 -23 17 31 11 30 -3 84 -12 120 -21z m-715 -213 c3 -5 -1 -10 -9 -10 -8 0
-18 5 -21 10 -3 6 1 10 9 10 8 0 18 -4 21 -10z m-5 -110 c13 -8 13 -10 -2 -10
-9 0 -20 5 -23 10 -8 13 5 13 25 0z"/>
<path d="M730 1891 c0 -32 -14 -31 133 -16 31 4 57 10 57 15 0 5 -30 11 -67
15 -38 3 -80 8 -95 10 -25 4 -28 2 -28 -24z"/>
<path d="M395 1501 c-3 -2 -5 -56 -5 -119 l0 -114 -45 4 c-43 3 -45 2 -45 -24
0 -27 1 -27 45 -21 l45 6 0 -38 0 -37 -45 4 c-43 3 -45 2 -45 -24 0 -27 1 -27
45 -21 l45 6 0 -103 0 -102 78 6 c229 21 406 104 466 221 15 29 16 24 16 -99
l0 -129 78 7 c188 17 336 73 428 163 30 29 64 53 74 53 11 0 20 5 20 10 0 6
-9 10 -20 10 -17 0 -20 7 -20 45 0 38 3 45 20 45 11 0 20 5 20 10 0 6 -11 10
-25 10 -14 0 -25 4 -25 9 0 5 -20 31 -44 58 -54 59 -134 104 -239 133 -72 20
-252 41 -262 31 -3 -2 -5 -61 -5 -130 l0 -126 -19 40 c-36 81 -147 153 -291
190 -63 16 -237 35 -245 26z m242 -42 c193 -48 318 -162 296 -271 l-6 -29 -86
6 c-47 4 -92 8 -98 10 -9 3 -13 -6 -13 -25 0 -27 2 -28 33 -25 83 11 147 13
147 6 0 -19 -96 -95 -155 -123 -58 -27 -220 -68 -271 -68 -18 0 -16 5 17 40
55 58 84 155 76 260 -6 92 -33 159 -85 213 l-37 38 55 -7 c30 -4 87 -15 127
-25z m563 0 c124 -32 238 -99 272 -162 10 -19 7 -19 -51 -15 -62 4 -62 4 -59
-21 3 -25 4 -26 71 -23 l68 4 -3 -34 -3 -33 -68 0 c-66 0 -68 -1 -65 -25 3
-24 6 -25 56 -22 l54 4 -16 -24 c-47 -71 -217 -145 -380 -164 l-60 -7 36 32
c51 44 80 119 86 217 7 123 -27 221 -97 282 l-26 23 55 -7 c30 -4 89 -15 130
-25z m-729 -217 c-7 -2 -18 1 -23 6 -8 8 -4 9 13 5 13 -4 18 -8 10 -11z m0
-110 c-7 -2 -18 1 -23 6 -8 8 -4 9 13 5 13 -4 18 -8 10 -11z"/>
<path d="M730 1259 c0 -25 1 -26 53 -22 96 7 137 14 137 24 0 5 -8 9 -17 10
-10 0 -53 4 -95 7 l-78 8 0 -27z"/>
<path d="M390 770 l0 -112 -45 6 c-43 7 -45 6 -45 -18 0 -24 3 -26 45 -26 l45
0 0 -36 0 -36 -45 6 c-44 7 -45 6 -45 -19 0 -26 2 -27 45 -23 l45 3 0 -109 0
-109 153 6 c321 13 600 85 716 183 19 16 46 34 60 41 17 7 20 12 9 12 -12 1
-16 10 -15 44 1 23 8 47 16 53 12 9 9 12 -12 18 -14 3 -38 18 -52 32 -14 14
-62 43 -108 65 -140 67 -368 112 -629 125 l-138 7 0 -113z m430 61 c200 -35
357 -90 430 -151 l25 -22 -67 7 c-52 4 -68 2 -68 -7 1 -33 17 -39 86 -36 l69
3 3 -39 3 -39 -80 6 c-82 5 -93 1 -72 -32 7 -11 23 -13 66 -8 55 6 56 5 40
-13 -48 -53 -223 -117 -408 -150 -97 -17 -329 -41 -391 -40 -19 1 -20 1 -3 11
29 17 66 85 83 152 32 121 2 291 -63 360 l-28 30 130 -6 c72 -4 182 -15 245
-26z m-337 -188 c-7 -2 -21 -2 -30 0 -10 3 -4 5 12 5 17 0 24 -2 18 -5z m0
-110 c-7 -2 -21 -2 -30 0 -10 3 -4 5 12 5 17 0 24 -2 18 -5z"/>
</g>
</svg>
