<?xml version="1.0" standalone="no"?>
<!DOCTYPE svg PUBLIC "-//W3C//DTD SVG 20010904//EN"
 "http://www.w3.org/TR/2001/REC-SVG-20010904/DTD/svg10.dtd">
<svg version="1.0" xmlns="http://www.w3.org/2000/svg"
 width="192.000000pt" height="549.000000pt" viewBox="0 0 192.000000 549.000000"
 preserveAspectRatio="xMidYMid meet">
<metadata>
Created by potrace 1.16, written by Peter Selinger 2001-2019
</metadata>
<g transform="translate(0.000000,549.000000) scale(0.100000,-0.100000)"
fill="#000000" stroke="none">
<path d="M302 4760 l3 -431 285 0 285 0 3 431 2 430 -290 0 -290 0 2 -430z
m566 153 l3 -143 -281 0 -280 0 0 138 c0 76 3 142 7 145 4 4 128 6 277 5 l271
-3 3 -142z m-3 -308 l0 -140 -277 -3 -278 -2 0 145 0 145 278 -2 277 -3 0
-140z"/>
<path d="M1042 4760 l3 -431 285 0 285 0 3 431 2 430 -290 0 -290 0 2 -430z
m566 153 l3 -143 -281 0 -280 0 0 138 c0 76 3 142 7 145 4 4 128 6 277 5 l271
-3 3 -142z m2 -308 l0 -145 -277 2 -278 3 -3 129 c-1 72 0 136 2 143 4 10 64
13 281 13 l275 0 0 -145z"/>
<path d="M300 3765 l0 -435 290 0 290 0 0 435 0 435 -290 0 -290 0 0 -435z
m565 150 l0 -140 -275 0 -275 0 -3 143 -3 142 278 -2 278 -3 0 -140z m3 -302
l3 -143 -281 0 -280 0 0 145 0 145 278 -2 277 -3 3 -142z"/>
<path d="M1040 3765 l0 -435 290 0 290 0 0 435 0 435 -290 0 -290 0 0 -435z
m568 153 l-3 -143 -275 0 -275 0 -3 129 c-1 72 0 136 2 143 4 10 64 13 281 13
l276 0 -3 -142z m2 -303 l0 -145 -280 0 -280 0 0 138 c0 76 3 142 7 145 3 4
129 7 280 7 l273 0 0 -145z"/>
<path d="M300 2745 l0 -435 290 0 290 0 0 435 0 435 -290 0 -290 0 0 -435z
m568 170 c1 -66 0 -130 -3 -142 l-5 -23 -275 0 -275 0 0 145 0 145 278 -2 277
-3 3 -120z m-4 -191 c3 -9 6 -74 6 -145 l0 -129 -280 0 -280 0 0 145 0 145
274 0 c240 0 275 -2 280 -16z"/>
<path d="M1040 2745 l0 -435 290 0 290 0 0 435 0 435 -290 0 -290 0 0 -435z
m570 150 l0 -145 -274 0 c-240 0 -275 2 -280 16 -8 21 -8 259 1 267 3 4 129 7
280 7 l273 0 0 -145z m0 -300 l0 -145 -280 0 -280 0 0 129 c0 71 3 136 6 145
5 14 40 16 280 16 l274 0 0 -145z"/>
<path d="M300 1750 l0 -430 23 -5 c12 -3 141 -4 287 -3 l265 3 3 433 2 432
-290 0 -290 0 0 -430z m568 153 l3 -143 -280 0 -281 0 0 138 c0 76 3 142 7
145 4 4 128 6 277 5 l271 -3 3 -142z m0 -305 l-3 -143 -277 -3 -278 -2 0 145
0 145 280 0 281 0 -3 -142z"/>
<path d="M1042 1748 l3 -433 265 -3 c146 -1 275 0 288 3 l22 5 0 430 0 430
-290 0 -290 0 2 -432z m566 155 l3 -143 -281 0 -281 0 2 138 c0 75 3 140 6
145 2 4 127 6 276 5 l272 -3 3 -142z m2 -308 l0 -145 -277 2 -278 3 -3 143 -3
142 281 0 280 0 0 -145z"/>
<path d="M304 1161 c-2 -2 -4 -195 -4 -428 l0 -423 290 0 290 0 -2 426 -3 426
-283 1 c-156 1 -286 0 -288 -2z m564 -278 l3 -143 -281 0 -280 0 0 145 0 145
278 -2 277 -3 3 -142z m-3 -303 l0 -145 -277 -3 -278 -2 0 145 0 145 248 2
c136 2 261 3 277 3 l30 0 0 -145z"/>
</g>
</svg>
