<?xml version="1.0" standalone="no"?>
<!DOCTYPE svg PUBLIC "-//W3C//DTD SVG 20010904//EN"
 "http://www.w3.org/TR/2001/REC-SVG-20010904/DTD/svg10.dtd">
<svg version="1.0" xmlns="http://www.w3.org/2000/svg"
 width="139.000000pt" height="114.000000pt" viewBox="0 0 139.000000 114.000000"
 preserveAspectRatio="xMidYMid meet">
<metadata>
Created by potrace 1.16, written by Peter Selinger 2001-2019
</metadata>
<g transform="translate(0.000000,114.000000) scale(0.100000,-0.100000)"
fill="#000000" stroke="none">
<path d="M710 825 c0 -13 23 -15 144 -15 79 0 165 3 192 7 85 12 15 21 -168
22 -143 1 -168 -1 -168 -14z"/>
<path d="M300 765 c0 -13 21 -15 129 -15 70 0 157 3 192 7 104 11 36 21 -153
22 -143 1 -168 -1 -168 -14z"/>
<path d="M715 700 c-14 -23 13 -27 177 -23 187 5 235 12 148 24 -85 11 -318
10 -325 -1z"/>
<path d="M300 632 c0 -16 13 -17 158 -14 86 1 173 5 192 9 34 7 33 7 -20 14
-30 4 -117 7 -192 8 -125 1 -138 -1 -138 -17z"/>
<path d="M712 563 c3 -17 18 -18 178 -14 96 1 181 6 189 10 18 11 -101 21
-247 21 -112 0 -123 -2 -120 -17z"/>
<path d="M300 503 c0 -17 13 -18 157 -15 87 1 174 5 193 9 34 7 33 7 -20 14
-30 4 -117 7 -192 8 -125 1 -138 -1 -138 -16z"/>
<path d="M714 449 c-16 -27 17 -31 195 -24 100 4 181 11 181 15 0 18 -364 27
-376 9z"/>
<path d="M300 381 l0 -23 183 7 c100 4 184 9 186 11 12 11 -20 14 -187 20
l-182 7 0 -22z"/>
<path d="M718 324 c-21 -20 6 -24 182 -24 120 0 190 4 190 10 0 6 -43 10 -108
10 -60 0 -142 3 -183 6 -41 3 -77 3 -81 -2z"/>
</g>
</svg>
