<?xml version="1.0" standalone="no"?>
<!DOCTYPE svg PUBLIC "-//W3C//DTD SVG 20010904//EN"
 "http://www.w3.org/TR/2001/REC-SVG-20010904/DTD/svg10.dtd">
<svg version="1.0" xmlns="http://www.w3.org/2000/svg"
 width="127.000000pt" height="152.000000pt" viewBox="0 0 127.000000 152.000000"
 preserveAspectRatio="xMidYMid meet">
<metadata>
Created by potrace 1.16, written by Peter Selinger 2001-2019
</metadata>
<g transform="translate(0.000000,152.000000) scale(0.100000,-0.100000)"
fill="#000000" stroke="none">
<path d="M495 1180 l7 -40 -101 0 c-94 0 -101 -1 -101 -20 0 -19 7 -20 104
-20 111 0 116 -2 116 -56 0 -24 0 -24 -110 -24 -103 0 -110 -1 -110 -20 0 -19
7 -20 110 -20 l110 0 0 -40 0 -40 -110 0 c-109 0 -110 0 -110 -23 0 -24 0 -24
105 -19 l105 5 0 -24 c-1 -67 -3 -69 -111 -69 -92 0 -99 -1 -99 -20 0 -18 7
-20 85 -20 l85 0 0 -50 0 -50 -85 0 c-78 0 -85 -2 -85 -20 0 -18 7 -20 89 -20
l89 0 6 -36 c4 -19 9 -41 12 -47 3 -9 -22 -11 -96 -9 l-100 4 0 -26 0 -26 105
0 104 0 11 -37 c5 -21 13 -55 16 -75 4 -21 11 -38 17 -38 5 0 7 13 3 33 -4 17
-10 53 -13 80 l-6 47 95 0 95 0 18 -80 c10 -44 22 -80 27 -80 5 0 7 8 4 18 -2
9 -7 37 -11 62 -4 25 -9 53 -11 63 -5 15 3 17 63 18 63 0 165 13 153 19 -3 1
-54 5 -115 9 l-110 6 -9 43 c-5 23 -6 46 -2 50 4 4 59 9 122 10 119 4 161 22
50 22 -34 0 -91 3 -126 7 l-62 6 5 44 c2 24 7 46 10 49 3 3 57 8 121 11 64 3
116 10 116 14 0 5 -52 9 -116 9 -105 0 -115 2 -110 18 2 9 7 31 11 48 6 30 9
32 67 38 33 3 81 6 105 6 27 0 42 4 38 10 -3 6 -49 10 -102 10 l-96 0 7 42 c4
23 12 46 19 50 7 4 49 8 95 8 48 0 82 4 82 10 0 6 -38 10 -94 10 l-93 0 -7 41
c-4 23 -4 44 -2 47 3 2 48 7 101 10 52 2 95 8 95 13 0 5 -46 10 -102 11 l-103
3 -9 43 c-7 35 -13 42 -32 42 -21 0 -22 -3 -13 -32 5 -18 9 -37 9 -43 0 -15
-170 -7 -175 8 -2 7 -6 24 -9 40 -5 19 -13 27 -27 27 -19 0 -20 -4 -14 -40z
m235 -89 c0 -5 3 -23 6 -40 l7 -31 -92 0 -91 0 0 40 0 40 85 0 c47 0 85 -4 85
-9z m10 -150 c0 -22 -3 -42 -8 -44 -4 -3 -45 -3 -92 0 l-85 6 3 38 4 39 89 0
89 0 0 -39z m-14 -112 c-3 -17 -6 -38 -6 -45 0 -11 -21 -14 -96 -14 l-96 0 7
37 c4 21 9 41 11 45 3 5 46 8 96 8 l91 0 -7 -31z m-39 -149 l-2 -51 -90 3 -90
3 3 35 c4 60 5 60 96 60 l85 0 -2 -50z m12 -121 c23 -67 21 -69 -79 -69 -88 0
-90 1 -95 25 -3 14 -7 36 -10 50 l-5 25 89 0 89 0 11 -31z"/>
</g>
</svg>
