<?xml version="1.0" standalone="no"?>
<!DOCTYPE svg PUBLIC "-//W3C//DTD SVG 20010904//EN"
 "http://www.w3.org/TR/2001/REC-SVG-20010904/DTD/svg10.dtd">
<svg version="1.0" xmlns="http://www.w3.org/2000/svg"
 width="152.000000pt" height="90.000000pt" viewBox="0 0 152.000000 90.000000"
 preserveAspectRatio="xMidYMid meet">
<metadata>
Created by potrace 1.16, written by Peter Selinger 2001-2019
</metadata>
<g transform="translate(0.000000,90.000000) scale(0.100000,-0.100000)"
fill="#000000" stroke="none">
<path d="M425 594 c-11 -3 -44 -10 -72 -15 -42 -8 -53 -14 -53 -30 0 -23 -4
-23 93 -4 129 25 332 13 382 -21 34 -24 131 -16 290 23 83 20 152 38 154 40
19 13 -30 8 -183 -18 l-177 -32 -117 29 c-111 26 -267 40 -317 28z"/>
<path d="M400 373 c-73 -13 -100 -24 -100 -43 0 -24 -8 -23 82 -4 40 8 111 15
158 15 92 0 217 -17 226 -32 13 -22 179 -9 312 25 122 30 167 46 131 46 -8 0
-75 -11 -149 -25 -168 -31 -218 -31 -350 0 -100 23 -234 31 -310 18z"/>
</g>
</svg>
