<?xml version="1.0" standalone="no"?>
<!DOCTYPE svg PUBLIC "-//W3C//DTD SVG 20010904//EN"
 "http://www.w3.org/TR/2001/REC-SVG-20010904/DTD/svg10.dtd">
<svg version="1.0" xmlns="http://www.w3.org/2000/svg"
 width="125.000000pt" height="287.000000pt" viewBox="0 0 125.000000 287.000000"
 preserveAspectRatio="xMidYMid meet">
<metadata>
Created by potrace 1.16, written by Peter Selinger 2001-2019
</metadata>
<g transform="translate(0.000000,287.000000) scale(0.100000,-0.100000)"
fill="#000000" stroke="none">
<path d="M661 2520 c-212 -127 -321 -257 -321 -384 0 -99 67 -244 182 -397 83
-110 195 -236 203 -228 2 3 -27 46 -67 95 -131 163 -237 342 -267 449 -44 160
55 301 311 448 59 33 75 46 66 55 -17 17 -16 17 -107 -38z"/>
<path d="M516 2343 c-21 -22 14 -46 324 -224 l74 -42 -94 -27 c-302 -87 -379
-118 -354 -143 11 -11 455 151 461 169 2 6 -22 28 -54 49 -47 32 -298 192
-339 218 -6 3 -14 4 -18 0z"/>
<path d="M601 1203 c-196 -121 -301 -252 -301 -374 0 -136 82 -292 248 -473
28 -32 56 -56 61 -54 6 2 -16 67 -48 145 l-58 141 131 46 c215 75 310 113 314
124 3 10 -156 121 -293 205 -33 20 -66 41 -73 45 -11 7 5 35 67 118 45 60 79
114 78 119 -8 23 -37 13 -126 -42z m8 -90 c-29 -43 -58 -82 -66 -86 -17 -10
-17 -44 0 -44 6 0 31 -12 55 -26 23 -15 108 -65 189 -112 82 -47 140 -86 132
-89 -8 -3 -61 -19 -119 -36 -210 -60 -315 -97 -318 -111 -1 -8 15 -62 37 -121
21 -60 38 -108 36 -108 -1 0 -27 35 -57 78 -138 191 -188 360 -139 467 27 60
111 146 203 209 45 31 86 56 90 56 5 0 -15 -35 -43 -77z"/>
</g>
</svg>
