<?xml version="1.0" standalone="no"?>
<!DOCTYPE svg PUBLIC "-//W3C//DTD SVG 20010904//EN"
 "http://www.w3.org/TR/2001/REC-SVG-20010904/DTD/svg10.dtd">
<svg version="1.0" xmlns="http://www.w3.org/2000/svg"
 width="223.000000pt" height="209.000000pt" viewBox="0 0 223.000000 209.000000"
 preserveAspectRatio="xMidYMid meet">
<metadata>
Created by potrace 1.16, written by Peter Selinger 2001-2019
</metadata>
<g transform="translate(0.000000,209.000000) scale(0.100000,-0.100000)"
fill="#000000" stroke="none">
<path d="M933 1615 l-168 -176 -155 6 c-85 3 -191 8 -234 11 l-79 5 6 -103 c4
-57 10 -120 13 -140 13 -74 24 -36 24 77 l0 115 143 2 c78 1 183 2 234 4 l91
2 79 88 c43 49 105 120 136 157 31 38 57 65 57 60 0 -4 -11 -53 -24 -108 -14
-55 -43 -194 -65 -310 -23 -115 -43 -221 -46 -233 l-6 -24 -21 29 c-12 15 -43
51 -70 80 -26 28 -48 59 -48 67 0 14 -19 16 -133 16 -74 0 -175 -3 -225 -6
-88 -7 -92 -8 -92 -30 0 -22 3 -23 43 -18 23 3 110 11 192 18 l150 14 107
-109 c59 -60 112 -109 117 -109 6 0 13 5 16 10 8 13 89 452 116 622 10 70 22
134 25 142 15 40 -27 3 -183 -159z"/>
<path d="M1397 1568 c8 -292 26 -594 34 -602 5 -6 9 70 9 190 l0 201 236 6
c341 10 340 35 -2 36 -94 1 -186 4 -203 7 l-31 7 0 138 0 139 -24 0 -23 0 4
-122z"/>
<path d="M1630 962 l0 -68 -147 -43 c-82 -23 -156 -45 -165 -47 -12 -4 -18 0
-18 10 0 9 -7 16 -15 16 -8 0 -15 -9 -15 -20 0 -14 -10 -22 -32 -28 -31 -8
-33 -7 -36 20 -5 41 -36 34 -37 -7 0 -20 -6 -31 -17 -33 -15 -3 -18 4 -18 32
0 29 -4 36 -20 36 -17 0 -20 -7 -20 -40 0 -22 -4 -40 -9 -40 -5 0 -16 -3 -25
-6 -13 -5 -16 2 -16 40 0 34 -4 46 -15 46 -11 0 -15 -12 -15 -44 0 -31 -5 -46
-16 -50 -37 -14 -44 -7 -44 45 0 43 -3 50 -17 47 -15 -3 -17 -12 -15 -56 l4
-52 -167 0 -166 0 3 -27 3 -28 162 3 161 4 8 -81 c3 -45 11 -81 15 -81 5 0 9
36 9 80 l0 80 29 0 c35 0 41 -13 41 -96 0 -36 4 -64 10 -64 6 0 10 33 10 80
l0 80 30 0 c28 0 30 -2 30 -39 0 -21 3 -60 7 -87 9 -65 21 -32 22 59 1 59 3
67 20 67 17 0 20 -10 27 -80 3 -44 11 -80 15 -80 5 0 9 36 9 80 l0 80 40 0 40
0 0 -62 c0 -105 14 -125 20 -28 6 102 -3 98 196 99 l142 1 6 -137 c4 -76 10
-163 13 -193 l7 -55 7 50 c4 28 8 116 8 197 1 131 3 147 19 151 16 4 16 5 0 6
-16 1 -18 16 -18 166 l0 165 -25 0 c-24 0 -25 -2 -25 -68z m8 -256 c-1 -1 -77
1 -168 4 -165 5 -165 5 -165 28 0 21 15 29 160 81 l160 57 8 -84 c5 -46 7 -85
5 -86z m-368 26 c0 -15 -6 -17 -35 -14 -41 5 -43 9 -12 22 34 14 47 12 47 -8z"/>
</g>
</svg>
