<?xml version="1.0" standalone="no"?>
<!DOCTYPE svg PUBLIC "-//W3C//DTD SVG 20010904//EN"
 "http://www.w3.org/TR/2001/REC-SVG-20010904/DTD/svg10.dtd">
<svg version="1.0" xmlns="http://www.w3.org/2000/svg"
 width="209.000000pt" height="147.000000pt" viewBox="0 0 209.000000 147.000000"
 preserveAspectRatio="xMidYMid meet">
<metadata>
Created by potrace 1.16, written by Peter Selinger 2001-2019
</metadata>
<g transform="translate(0.000000,147.000000) scale(0.100000,-0.100000)"
fill="#000000" stroke="none">
<path d="M735 1093 c-128 -74 -398 -245 -423 -268 -11 -10 -8 -20 17 -57 37
-54 37 -54 11 -61 -11 -3 -20 -11 -20 -19 0 -14 276 -218 439 -323 69 -45 106
-63 111 -56 7 12 20 472 20 707 0 117 -5 155 -19 153 -3 0 -64 -34 -136 -76z
m115 -113 l0 -150 -87 1 c-49 1 -149 4 -223 8 l-134 6 214 142 c118 78 218
142 223 142 4 1 7 -66 7 -149z m0 -225 c0 -54 -1 -55 -29 -55 -68 0 -88 10
-105 54 -9 23 -16 45 -16 49 0 4 34 7 75 7 l75 0 0 -55z m-435 8 c11 -21 21
-41 23 -45 2 -5 -10 -8 -26 -8 -24 0 -32 6 -40 28 -5 15 -13 35 -17 45 -6 13
-2 17 17 17 18 0 29 -10 43 -37z m75 -3 c25 -49 25 -50 -3 -50 -17 0 -27 9
-37 38 -8 20 -16 40 -18 45 -2 4 6 7 17 7 14 0 27 -13 41 -40z m80 0 c26 -50
25 -52 -7 -48 -20 2 -30 13 -44 46 l-18 42 24 0 c19 0 30 -10 45 -40z m118 -6
l22 -45 -45 3 c-43 3 -47 5 -65 46 l-19 42 42 0 c41 0 44 -2 65 -46z m162
-127 c0 -35 3 -119 7 -187 l6 -122 -231 173 c-127 95 -229 175 -227 178 3 2
89 6 192 8 104 3 189 6 190 7 1 1 16 3 33 4 l30 2 0 -63z"/>
<path d="M1675 1109 c-55 -33 -150 -92 -211 -130 l-110 -69 -113 7 c-104 6
-115 5 -127 -12 -15 -20 -18 -98 -7 -208 l6 -68 116 2 116 2 105 -65 c167
-102 310 -180 323 -175 7 3 7 6 1 6 -7 1 -8 25 -3 74 9 83 17 697 9 697 -3 0
-50 -28 -105 -61z m75 -286 c1 -164 3 -324 6 -357 5 -47 4 -57 -7 -50 -8 5
-66 43 -129 85 -63 42 -155 102 -204 133 -76 49 -87 60 -82 79 3 12 6 49 6 82
l0 60 101 65 c55 35 144 95 197 132 53 37 100 68 105 68 4 0 7 -134 7 -297z
m-442 -45 l-3 -113 -87 -3 -88 -3 0 109 c0 60 3 112 7 115 3 4 44 7 90 7 l84
0 -3 -112z"/>
</g>
</svg>
