<?xml version="1.0" standalone="no"?>
<!DOCTYPE svg PUBLIC "-//W3C//DTD SVG 20010904//EN"
 "http://www.w3.org/TR/2001/REC-SVG-20010904/DTD/svg10.dtd">
<svg version="1.0" xmlns="http://www.w3.org/2000/svg"
 width="127.000000pt" height="227.000000pt" viewBox="0 0 127.000000 227.000000"
 preserveAspectRatio="xMidYMid meet">
<metadata>
Created by potrace 1.16, written by Peter Selinger 2001-2019
</metadata>
<g transform="translate(0.000000,227.000000) scale(0.100000,-0.100000)"
fill="#000000" stroke="none">
<path d="M855 1904 c-60 -36 -155 -95 -211 -130 -55 -35 -109 -64 -118 -64
-10 0 -20 -9 -23 -20 -3 -11 -6 -20 -7 -20 -1 0 -41 13 -89 29 -83 29 -87 29
-97 11 -12 -23 -13 -240 -1 -259 10 -15 43 -7 138 35 66 30 67 29 59 0 -5 -22
4 -31 108 -95 121 -74 342 -201 350 -201 3 0 5 176 6 390 0 215 -1 390 -2 390
-2 0 -52 -30 -113 -66z m90 -331 c4 -194 5 -353 3 -353 -4 0 -375 242 -403
263 -17 13 -18 18 -7 36 15 25 15 34 2 26 -7 -5 -10 9 -8 39 2 31 8 46 17 46
10 0 11 3 2 14 -10 12 23 38 186 149 109 73 199 133 199 133 1 -1 5 -160 9
-353z m-530 93 l80 -24 6 -48 c4 -27 4 -52 0 -56 -3 -4 -46 -20 -95 -37 l-88
-30 6 37 c3 20 6 70 6 110 0 39 1 72 3 72 1 -1 38 -11 82 -24z"/>
<path d="M905 1048 c-27 -18 -117 -74 -200 -125 l-150 -93 -121 0 c-102 0
-123 -3 -128 -16 -8 -20 -8 -222 0 -250 5 -19 11 -20 115 -16 l109 5 118 -70
c150 -90 311 -183 317 -183 2 0 4 176 5 390 0 215 -3 390 -7 389 -5 0 -30 -14
-58 -31z m43 -661 l-3 -58 -85 58 c-47 32 -140 94 -207 137 l-123 78 1 46 c1
120 -7 110 209 256 l195 133 8 -296 c4 -163 6 -322 5 -354z m-445 318 c4 -57
5 -110 2 -117 -4 -10 -28 -12 -93 -9 -48 1 -87 4 -88 5 0 0 1 49 4 108 l4 107
77 4 c42 1 79 4 82 5 3 1 9 -45 12 -103z"/>
</g>
</svg>
