<?xml version="1.0" standalone="no"?>
<!DOCTYPE svg PUBLIC "-//W3C//DTD SVG 20010904//EN"
 "http://www.w3.org/TR/2001/REC-SVG-20010904/DTD/svg10.dtd">
<svg version="1.0" xmlns="http://www.w3.org/2000/svg"
 width="135.000000pt" height="139.000000pt" viewBox="0 0 135.000000 139.000000"
 preserveAspectRatio="xMidYMid meet">
<metadata>
Created by potrace 1.16, written by Peter Selinger 2001-2019
</metadata>
<g transform="translate(0.000000,139.000000) scale(0.100000,-0.100000)"
fill="#000000" stroke="none">
<path d="M1030 1082 c-8 -4 -26 -14 -40 -23 -14 -9 -103 -65 -198 -124 l-173
-107 -114 7 c-106 6 -115 6 -122 -12 -4 -10 -24 -41 -45 -70 -21 -29 -38 -58
-38 -64 0 -16 92 -159 103 -159 4 0 7 5 7 10 0 6 40 10 100 10 l100 0 88 -54
c101 -62 331 -196 337 -196 2 0 4 8 4 18 0 9 3 187 7 395 4 207 5 377 3 376
-2 0 -11 -3 -19 -7z m-16 -393 c4 -193 6 -352 4 -354 -2 -1 -89 54 -195 124
-105 69 -198 131 -207 136 -13 8 -15 24 -10 95 l7 86 131 86 c72 48 158 107
191 132 33 24 63 45 66 45 3 1 9 -157 13 -350z m-439 99 c3 -13 5 -63 3 -113
l-3 -90 -93 0 -92 0 -29 51 -29 50 33 55 c33 52 35 54 87 60 108 12 117 11
123 -13z"/>
</g>
</svg>
