<?xml version="1.0" standalone="no"?>
<!DOCTYPE svg PUBLIC "-//W3C//DTD SVG 20010904//EN"
 "http://www.w3.org/TR/2001/REC-SVG-20010904/DTD/svg10.dtd">
<svg version="1.0" xmlns="http://www.w3.org/2000/svg"
 width="198.000000pt" height="148.000000pt" viewBox="0 0 198.000000 148.000000"
 preserveAspectRatio="xMidYMid meet">
<metadata>
Created by potrace 1.16, written by Peter Selinger 2001-2019
</metadata>
<g transform="translate(0.000000,148.000000) scale(0.100000,-0.100000)"
fill="#000000" stroke="none">
<path d="M350 1165 c-10 -12 4 -30 86 -108 l97 -93 -69 -49 c-106 -75 -164
-133 -164 -163 0 -37 88 -118 178 -165 39 -21 72 -41 72 -45 0 -4 -38 -59 -85
-121 -47 -63 -83 -117 -79 -120 16 -16 237 255 282 345 l25 51 106 -66 c59
-36 128 -77 154 -91 29 -15 47 -32 47 -42 0 -10 5 -18 10 -18 6 0 10 40 10
100 l0 100 25 0 c24 0 25 -3 25 -62 0 -108 13 -258 22 -258 4 0 8 72 8 160 l0
160 24 0 c23 0 24 -3 30 -87 14 -198 18 -233 27 -233 5 0 9 70 9 160 0 130 3
160 14 160 11 0 15 -29 21 -129 4 -71 10 -144 14 -163 7 -30 9 -27 15 32 4 36
6 109 4 163 -3 84 -1 97 13 97 14 0 17 -22 23 -146 4 -80 10 -153 14 -162 4
-10 9 57 12 148 l5 165 93 1 c82 2 100 5 144 29 42 23 54 26 74 16 38 -17 52
-13 25 8 l-24 18 24 16 c31 22 18 32 -18 13 -28 -14 -32 -13 -83 15 -29 16
-57 29 -62 29 -13 0 -9 -28 5 -34 6 -4 -26 -4 -73 -1 -47 3 -158 5 -247 5
l-162 0 -3 68 c-3 66 -3 67 -30 65 -16 -1 -89 -31 -165 -67 -75 -37 -137 -65
-138 -64 -1 2 -18 28 -38 59 -56 90 -256 319 -278 319 -4 0 -12 -7 -19 -15z
m238 -272 c76 -97 80 -145 21 -253 -23 -41 -42 -77 -44 -79 -2 -2 -35 17 -73
43 -72 48 -152 126 -152 149 0 7 15 27 33 44 36 34 168 133 179 133 3 0 20
-17 36 -37z m392 -5 c0 -13 3 -61 5 -108 3 -47 7 -120 10 -163 2 -43 1 -77 -3
-75 -39 16 -291 197 -291 208 -1 9 52 43 132 86 72 40 135 72 140 73 4 0 7 -9
7 -21z m583 -125 c4 -3 -10 -16 -30 -28 -36 -20 -48 -21 -275 -17 -225 4 -238
5 -238 23 0 17 11 19 158 22 86 1 207 4 268 5 61 1 114 -1 117 -5z"/>
</g>
</svg>
