<?xml version="1.0" standalone="no"?>
<!DOCTYPE svg PUBLIC "-//W3C//DTD SVG 20010904//EN"
 "http://www.w3.org/TR/2001/REC-SVG-20010904/DTD/svg10.dtd">
<svg version="1.0" xmlns="http://www.w3.org/2000/svg"
 width="119.000000pt" height="209.000000pt" viewBox="0 0 119.000000 209.000000"
 preserveAspectRatio="xMidYMid meet">
<metadata>
Created by potrace 1.16, written by Peter Selinger 2001-2019
</metadata>
<g transform="translate(0.000000,209.000000) scale(0.100000,-0.100000)"
fill="#000000" stroke="none">
<path d="M495 1772 c-43 -21 -117 -94 -154 -154 -12 -21 -27 -38 -32 -38 -14
0 -11 -107 7 -211 20 -116 63 -253 121 -383 24 -55 41 -106 39 -113 -3 -7 0
-13 7 -13 7 0 32 -39 55 -86 34 -68 40 -89 30 -95 -10 -7 -8 -10 7 -15 13 -3
50 -60 110 -172 50 -92 91 -173 93 -179 9 -35 20 0 40 130 12 78 33 235 48
349 l26 206 -105 184 c-58 100 -104 184 -102 186 10 10 178 50 191 45 27 -10
15 59 -26 141 -82 166 -149 228 -254 233 -44 3 -72 -1 -101 -15z m166 -38 c28
-14 100 -89 118 -123 13 -23 7 -41 -13 -41 -20 0 -330 -101 -340 -111 -6 -5
-7 -9 -4 -9 14 0 149 33 267 66 69 18 126 32 127 31 2 -2 12 -23 23 -47 l20
-45 -22 -7 c-208 -62 -323 -108 -232 -94 39 6 41 5 64 -36 13 -24 62 -101 108
-172 56 -88 80 -133 73 -140 -5 -5 -10 -29 -10 -53 l0 -43 -54 0 c-30 0 -62
-3 -71 -6 -13 -5 -16 -2 -13 17 3 22 8 24 61 27 50 3 57 6 57 23 0 19 -5 21
-55 17 l-54 -3 4 35 c2 19 7 70 9 113 l5 77 -101 0 -101 0 6 -125 6 -125 -28
0 c-26 0 -31 7 -70 106 -61 152 -91 279 -98 409 l-5 110 57 63 c95 104 177
131 266 86z m-36 -594 c22 0 51 7 63 16 22 15 22 15 22 -34 0 -27 -3 -70 -6
-96 -6 -43 -9 -46 -35 -46 l-29 0 0 74 c0 66 -2 74 -17 70 -16 -4 -18 -15 -15
-79 l4 -75 -30 0 c-29 0 -29 1 -35 68 -4 37 -7 82 -7 100 0 32 1 33 22 18 12
-9 41 -16 63 -16z m60 -219 c-8 -27 -45 -28 -45 -2 0 13 8 21 23 23 29 5 30 3
22 -21z m-132 -3 c12 -44 -27 -55 -43 -12 -13 34 -13 34 14 34 16 0 26 -7 29
-22z m57 -3 c0 -18 -5 -25 -20 -25 -11 0 -20 4 -20 9 0 5 -3 16 -6 25 -5 12 0
16 20 16 21 0 26 -5 26 -25z m220 -64 c0 -28 -3 -30 -45 -35 -25 -3 -65 -9
-90 -12 l-45 -5 20 33 c18 31 24 33 87 39 38 3 69 6 71 7 1 1 2 -11 2 -27z
m-160 10 c0 -5 -9 -19 -20 -32 l-19 -24 -1 27 c0 17 6 28 18 31 9 3 18 5 20 6
1 0 2 -3 2 -8z m-93 -18 c3 -10 13 -26 21 -35 14 -16 13 -18 -10 -18 -18 0
-29 9 -41 35 -16 34 -16 35 3 35 12 0 23 -8 27 -17z m43 -9 c0 -27 -14 -25
-30 7 -9 16 -7 19 10 19 15 0 20 -7 20 -26z m200 -76 c0 -40 -15 -50 -91 -59
-118 -13 -116 -13 -139 31 l-20 40 25 0 c17 0 25 -6 26 -17 1 -17 2 -17 6 -1
4 17 30 22 146 26 43 2 47 0 47 -20z m-15 -150 c-4 -35 -10 -108 -14 -163 l-7
-100 -77 152 c-42 84 -77 157 -77 162 0 4 41 9 90 10 l91 2 -6 -63z"/>
</g>
</svg>
