<?xml version="1.0" standalone="no"?>
<!DOCTYPE svg PUBLIC "-//W3C//DTD SVG 20010904//EN"
 "http://www.w3.org/TR/2001/REC-SVG-20010904/DTD/svg10.dtd">
<svg version="1.0" xmlns="http://www.w3.org/2000/svg"
 width="209.000000pt" height="119.000000pt" viewBox="0 0 209.000000 119.000000"
 preserveAspectRatio="xMidYMid meet">
<metadata>
Created by potrace 1.16, written by Peter Selinger 2001-2019
</metadata>
<g transform="translate(0.000000,119.000000) scale(0.100000,-0.100000)"
fill="#000000" stroke="none">
<path d="M589 861 c-98 -41 -181 -95 -228 -146 -50 -54 -61 -81 -61 -143 1
-88 54 -169 154 -234 l59 -38 112 0 c141 0 255 28 440 106 72 31 138 56 148
56 9 -1 17 3 17 9 0 5 40 29 90 54 50 25 90 41 90 35 0 -5 5 -10 10 -10 6 0
10 6 10 14 0 8 28 30 63 49 34 18 115 63 180 98 85 46 112 65 100 70 -18 6
-352 55 -568 82 l-110 14 -100 -55 c-55 -31 -139 -79 -186 -108 l-87 -52 -26
93 c-15 51 -26 97 -25 102 3 17 -1 33 -8 33 -5 0 -38 -13 -74 -29z m542 -36
l47 -7 4 -66 c3 -37 4 -68 4 -69 -1 -1 -12 0 -23 3 -19 5 -23 14 -25 62 -2 46
-7 57 -21 60 -17 3 -19 -2 -15 -52 l3 -57 -112 7 -113 7 0 -103 0 -103 101 7
c56 3 113 9 126 12 23 6 24 4 21 -27 -3 -31 -7 -34 -98 -71 -131 -54 -256 -86
-381 -99 -128 -12 -155 -4 -227 68 -124 124 -114 247 28 345 29 21 55 36 57
35 2 -2 28 -84 59 -183 50 -162 74 -221 74 -185 0 7 -12 58 -26 114 -21 87
-34 132 -70 260 -4 13 6 22 41 38 26 11 48 19 49 17 2 -1 22 -62 45 -135 23
-73 46 -135 51 -138 12 -8 13 11 1 52 -7 25 -6 31 4 27 12 -5 203 108 305 179
19 14 37 21 40 17 3 -4 26 -11 51 -15z m144 -64 c3 -25 8 -63 11 -84 l6 -38
-36 18 -36 17 0 71 c0 71 0 72 25 68 20 -4 25 -12 30 -52z m109 0 c3 -20 8
-65 12 -101 l6 -65 -36 -18 c-20 -9 -39 -17 -41 -17 -11 0 -4 39 8 43 9 4 9 8
0 14 -6 4 -14 49 -18 99 l-7 90 35 -4 c32 -4 36 -7 41 -41z m295 12 l65 -6
-155 -78 c-85 -43 -157 -78 -161 -78 -5 -1 -8 40 -8 90 l0 92 98 -7 c53 -4
126 -10 161 -13z m-586 -89 c11 -4 17 -15 17 -36 l0 -31 -70 5 c-65 5 -70 4
-70 -14 0 -18 6 -20 73 -16 72 3 72 3 75 -24 3 -29 9 -28 -142 -44 l-58 -6 16
23 c21 30 21 108 0 138 l-16 23 78 -7 c44 -4 87 -9 97 -11z m97 -39 c0 -18 -5
-25 -19 -25 -12 0 -20 9 -23 25 -4 21 -1 25 18 25 19 0 24 -5 24 -25z m76 -10
c18 -14 18 -14 -7 -15 -15 0 -29 7 -33 15 -7 19 14 19 40 0z m-68 -57 c-2 -15
-11 -24 -25 -26 -19 -3 -23 1 -23 22 0 21 5 26 26 26 21 0 25 -4 22 -22z m68
7 c-25 -19 -36 -19 -36 0 0 10 10 15 28 15 26 -1 26 -1 8 -15z m34 -15 c0 -11
-12 -26 -30 -35 -37 -19 -40 -19 -40 3 0 13 41 44 68 51 1 1 2 -8 2 -19z m-92
-51 c2 -11 -8 -20 -27 -27 -29 -10 -31 -9 -31 12 0 12 3 26 7 30 12 12 48 2
51 -15z"/>
</g>
</svg>
