<?xml version="1.0" standalone="no"?>
<!DOCTYPE svg PUBLIC "-//W3C//DTD SVG 20010904//EN"
 "http://www.w3.org/TR/2001/REC-SVG-20010904/DTD/svg10.dtd">
<svg version="1.0" xmlns="http://www.w3.org/2000/svg"
 width="163.000000pt" height="119.000000pt" viewBox="0 0 163.000000 119.000000"
 preserveAspectRatio="xMidYMid meet">
<metadata>
Created by potrace 1.16, written by Peter Selinger 2001-2019
</metadata>
<g transform="translate(0.000000,119.000000) scale(0.100000,-0.100000)"
fill="#000000" stroke="none">
<path d="M819 868 c-11 -24 -15 -26 -141 -32 -143 -8 -249 -31 -327 -70 -49
-25 -51 -28 -46 -61 6 -52 73 -172 114 -206 35 -29 114 -59 155 -59 23 0 66
36 93 76 10 16 23 24 37 22 20 -3 21 -8 18 -120 l-4 -118 96 0 c52 0 107 4
121 10 l26 10 -3 110 -3 110 60 0 c33 0 116 3 185 6 l125 7 -9 135 c-7 109 -6
136 5 144 11 7 11 11 2 15 -7 2 -13 13 -13 24 0 10 -4 19 -10 19 -5 0 -10 -9
-10 -20 0 -18 -7 -20 -57 -20 -32 0 -138 -3 -237 -7 l-178 -6 12 22 c6 13 9
25 6 28 -3 3 -10 -6 -17 -19z m467 -60 c-3 -13 -5 -72 -5 -132 l-1 -109 -162
7 c-90 3 -206 6 -259 5 l-97 0 -4 52 c-2 40 3 66 23 111 14 32 29 61 33 65 8
8 178 17 373 21 102 2 103 2 99 -20z m-556 -54 c0 -45 -7 -69 -32 -115 -18
-33 -38 -59 -45 -59 -7 0 -13 -7 -13 -15 0 -23 -25 -58 -60 -83 l-30 -22 -47
24 c-27 13 -60 37 -75 53 -30 31 -88 143 -88 168 0 30 140 80 265 94 134 16
125 19 125 -45z m44 26 c-9 -16 -17 -30 -20 -30 -2 0 -4 14 -4 30 0 23 5 30
19 30 18 0 19 -2 5 -30z m-48 -197 c-10 -10 -19 5 -10 18 6 11 8 11 12 0 2 -7
1 -15 -2 -18z m204 -122 c0 -43 -3 -91 -6 -107 l-5 -29 -80 3 -79 4 0 104 0
104 85 0 85 0 0 -79z"/>
</g>
</svg>
