<?xml version="1.0" standalone="no"?>
<!DOCTYPE svg PUBLIC "-//W3C//DTD SVG 20010904//EN"
 "http://www.w3.org/TR/2001/REC-SVG-20010904/DTD/svg10.dtd">
<svg version="1.0" xmlns="http://www.w3.org/2000/svg"
 width="210.000000pt" height="119.000000pt" viewBox="0 0 210.000000 119.000000"
 preserveAspectRatio="xMidYMid meet">
<metadata>
Created by potrace 1.16, written by Peter Selinger 2001-2019
</metadata>
<g transform="translate(0.000000,119.000000) scale(0.100000,-0.100000)"
fill="#000000" stroke="none">
<path d="M715 878 c-4 -13 -14 -175 -15 -235 l0 -32 -200 6 c-197 6 -200 6
-200 -15 0 -20 3 -20 198 -15 l199 6 6 -93 c4 -51 7 -117 7 -147 l0 -53 340 0
340 0 1 43 c1 23 4 92 8 152 l6 110 192 6 c106 3 196 8 199 12 4 4 2 8 -4 8
-7 1 -16 3 -22 4 -5 1 -89 3 -185 4 l-175 1 0 118 0 119 -172 6 c-291 11 -518
9 -523 -5z m655 -290 l0 -273 -297 3 c-164 1 -309 5 -322 8 l-23 5 6 122 c3
67 9 184 12 259 l6 138 222 3 c121 1 260 3 309 5 l87 2 0 -272z"/>
<path d="M822 753 c4 -23 208 -88 208 -66 0 9 -179 83 -200 83 -6 0 -10 -8 -8
-17z"/>
<path d="M1158 707 c-53 -6 -78 -14 -78 -23 0 -23 15 -24 96 -8 119 24 124 26
124 35 0 11 -37 10 -142 -4z"/>
<path d="M822 633 c5 -24 208 -89 208 -66 0 9 -181 83 -201 83 -6 0 -9 -7 -7
-17z"/>
<path d="M1148 558 c-37 -7 -58 -15 -58 -24 0 -7 3 -15 8 -17 10 -6 177 29
199 42 23 14 -66 13 -149 -1z"/>
<path d="M814 509 c-10 -17 5 -26 88 -53 82 -28 151 -36 113 -14 -17 10 -184
78 -191 78 -2 0 -6 -5 -10 -11z"/>
<path d="M1148 447 c-57 -8 -68 -12 -68 -29 0 -21 15 -20 140 9 127 30 81 43
-72 20z"/>
</g>
</svg>
