<?xml version="1.0" standalone="no"?>
<!DOCTYPE svg PUBLIC "-//W3C//DTD SVG 20010904//EN"
 "http://www.w3.org/TR/2001/REC-SVG-20010904/DTD/svg10.dtd">
<svg version="1.0" xmlns="http://www.w3.org/2000/svg"
 width="188.000000pt" height="147.000000pt" viewBox="0 0 188.000000 147.000000"
 preserveAspectRatio="xMidYMid meet">
<metadata>
Created by potrace 1.16, written by Peter Selinger 2001-2019
</metadata>
<g transform="translate(0.000000,147.000000) scale(0.100000,-0.100000)"
fill="#000000" stroke="none">
<path d="M354 1156 c-5 -12 96 -118 147 -154 19 -13 15 -17 -86 -74 -97 -54
-106 -62 -92 -76 14 -14 18 -14 39 0 23 15 26 14 82 -32 32 -26 58 -51 58 -55
0 -4 -45 -31 -98 -59 -54 -29 -99 -56 -101 -62 -1 -5 1 -15 6 -23 7 -10 22 -4
72 29 35 24 81 56 102 73 22 17 44 27 53 23 12 -4 15 -2 10 9 -5 15 -5 15 471
20 l46 0 5 -69 4 -69 -269 4 -268 4 -3 -22 -3 -23 270 0 271 0 0 -56 0 -55
-262 2 c-215 1 -263 -1 -266 -12 -2 -8 -6 -21 -8 -29 -3 -9 -33 16 -88 75 -70
75 -86 88 -98 77 -11 -11 0 -26 69 -92 l82 -78 -84 -48 c-80 -44 -99 -64 -75
-79 9 -6 94 47 170 105 l35 27 405 7 c223 4 414 9 425 11 11 2 62 4 113 4 54
1 92 5 92 11 0 6 -7 10 -16 10 -14 0 -15 26 -9 255 l8 255 -24 1 c-13 0 -246
4 -517 8 l-494 8 -75 82 c-76 82 -90 92 -99 67z m1164 -272 c3 -78 2 -86 -13
-80 -9 3 -46 6 -81 6 l-64 0 0 73 c0 41 3 77 7 80 3 4 38 7 77 7 l71 0 3 -86z
m-458 5 l0 -69 -264 0 c-259 0 -265 0 -268 -20 -3 -18 -11 -13 -56 33 l-53 54
46 34 46 34 274 1 275 1 0 -68z m80 -4 c0 -68 -2 -75 -20 -75 -18 0 -20 7 -20
75 0 68 2 75 20 75 18 0 20 -7 20 -75z m100 0 l0 -75 -30 0 -30 0 0 75 0 75
30 0 30 0 0 -75z m90 0 l0 -75 -31 0 -32 0 7 46 c3 26 6 60 6 75 0 24 4 29 25
29 24 0 25 -2 25 -75z m190 -175 l0 -80 -34 0 c-18 0 -54 3 -80 6 l-46 7 0 68
c0 77 -2 76 98 78 l62 1 0 -80z m-380 16 c0 -30 3 -61 6 -70 5 -12 0 -16 -20
-16 -26 0 -26 1 -26 70 0 63 2 70 20 70 18 0 20 -7 20 -54z m102 -16 l3 -70
-38 0 -39 0 5 68 c3 37 6 68 6 70 1 1 14 2 30 2 29 0 29 0 33 -70z m88 0 l0
-70 -30 0 -30 0 0 70 0 70 30 0 30 0 0 -70z m194 -121 c3 -17 6 -49 6 -70 l0
-39 -83 0 c-46 0 -86 2 -88 4 -2 2 -2 31 -1 65 l4 60 56 4 c32 2 67 4 78 5 17
2 23 -5 28 -29z m-374 -39 l0 -60 -30 0 c-30 0 -30 1 -30 53 0 60 4 67 37 67
22 0 23 -4 23 -60z m100 0 l0 -60 -40 0 -40 0 0 60 0 60 40 0 40 0 0 -60z m89
0 l2 -60 -35 0 -36 0 0 60 0 60 33 0 34 0 2 -60z"/>
</g>
</svg>
