<?xml version="1.0" standalone="no"?>
<!DOCTYPE svg PUBLIC "-//W3C//DTD SVG 20010904//EN"
 "http://www.w3.org/TR/2001/REC-SVG-20010904/DTD/svg10.dtd">
<svg version="1.0" xmlns="http://www.w3.org/2000/svg"
 width="167.000000pt" height="113.000000pt" viewBox="0 0 167.000000 113.000000"
 preserveAspectRatio="xMidYMid meet">
<metadata>
Created by potrace 1.16, written by Peter Selinger 2001-2019
</metadata>
<g transform="translate(0.000000,113.000000) scale(0.100000,-0.100000)"
fill="#000000" stroke="none">
<path d="M457 824 c-4 -4 -7 -18 -7 -32 0 -24 0 -24 -75 -17 -65 6 -75 5 -75
-9 0 -13 13 -16 75 -16 l75 0 0 -31 0 -31 -75 7 c-65 6 -75 5 -75 -9 0 -13 13
-16 75 -16 69 0 75 -2 75 -21 0 -11 6 -26 13 -32 14 -14 77 -18 77 -6 0 20 67
19 125 -1 56 -19 68 -20 180 -10 66 6 180 20 254 30 127 19 135 19 147 2 11
-16 14 -16 36 3 49 41 88 79 88 86 0 4 -27 29 -60 54 -53 41 -65 44 -62 14 1
-4 -148 -5 -331 -2 -324 5 -354 7 -443 40 -5 2 -13 0 -17 -3z m50 -46 c5 -7
10 -41 12 -75 3 -63 3 -63 -24 -63 -28 0 -28 0 -21 53 3 28 6 62 6 75 0 24 12
29 27 10z m83 -37 c0 -16 3 -43 6 -60 6 -29 5 -31 -25 -31 -34 0 -37 9 -25 83
5 27 11 37 25 37 14 0 19 -7 19 -29z m122 -46 c3 -72 0 -75 -57 -48 -29 14
-35 22 -35 49 0 53 8 64 50 64 l38 0 4 -65z m68 41 c0 -13 3 -44 6 -70 l7 -46
-33 0 c-32 0 -33 1 -26 38 3 20 6 52 6 70 0 25 4 32 20 32 14 0 20 -7 20 -24z
m535 3 l36 -22 -38 -22 c-32 -20 -71 -26 -250 -44 -116 -12 -221 -21 -232 -21
-19 0 -21 6 -21 65 l0 65 234 0 c222 0 237 -1 271 -21z"/>
<path d="M456 533 c-3 -4 -6 -17 -6 -30 0 -22 -3 -23 -75 -23 -62 0 -75 -3
-75 -16 0 -14 10 -15 75 -9 l75 7 0 -34 0 -33 -75 3 c-65 3 -75 1 -75 -14 0
-15 8 -16 75 -10 75 7 75 7 75 -17 0 -14 6 -30 14 -36 14 -12 64 -12 81 -1 25
17 60 17 110 -1 30 -10 78 -19 108 -19 46 0 252 23 429 48 31 5 55 6 53 2 -2
-3 0 -11 3 -18 5 -7 26 4 65 34 31 25 57 49 57 54 0 13 -104 100 -115 96 -5
-2 -9 -11 -8 -21 1 -14 -4 -16 -30 -11 -18 4 -171 9 -342 12 -271 4 -316 7
-361 24 -29 10 -55 16 -58 13z m58 -75 c13 -64 7 -106 -15 -113 -11 -4 -23 -5
-25 -2 -3 3 -2 39 2 80 5 54 10 74 19 71 7 -3 16 -19 19 -36z m78 -38 c3 -30
6 -56 5 -57 -1 -1 -14 -4 -30 -8 -25 -7 -27 -5 -27 21 0 63 12 105 29 102 11
-2 18 -19 23 -58z m188 11 c0 -14 3 -43 6 -63 6 -37 6 -38 -25 -38 l-31 0 6
58 c3 31 7 63 9 69 7 22 35 2 35 -26z m533 15 l38 -24 -36 -22 c-29 -18 -67
-25 -228 -40 -105 -11 -211 -21 -234 -24 l-43 -6 0 64 c0 34 3 66 7 69 3 4
108 7 232 7 219 -1 227 -1 264 -24z m-601 -48 c2 -35 3 -65 2 -66 -1 -2 -23 5
-48 17 -43 19 -46 22 -46 59 0 48 4 52 51 52 l37 0 4 -62z"/>
</g>
</svg>
