<?xml version="1.0" standalone="no"?>
<!DOCTYPE svg PUBLIC "-//W3C//DTD SVG 20010904//EN"
 "http://www.w3.org/TR/2001/REC-SVG-20010904/DTD/svg10.dtd">
<svg version="1.0" xmlns="http://www.w3.org/2000/svg"
 width="164.000000pt" height="110.000000pt" viewBox="0 0 164.000000 110.000000"
 preserveAspectRatio="xMidYMid meet">
<metadata>
Created by potrace 1.16, written by Peter Selinger 2001-2019
</metadata>
<g transform="translate(0.000000,110.000000) scale(0.100000,-0.100000)"
fill="#000000" stroke="none">
<path d="M800 795 c-8 -2 -124 -9 -257 -16 -211 -11 -243 -14 -243 -28 0 -9 4
-22 9 -30 11 -16 124 -48 366 -102 318 -70 370 -82 360 -85 -6 -2 -122 -28
-260 -58 -421 -93 -465 -108 -465 -152 0 -17 161 -26 415 -22 l210 3 -250 18
c-137 11 -257 21 -265 24 -8 4 39 19 105 34 66 16 212 52 325 79 113 28 208
50 213 50 4 0 7 -24 7 -52 0 -78 11 -158 21 -152 5 3 9 52 9 110 0 63 4 104
10 104 6 0 51 -9 102 -20 125 -28 145 -20 29 11 l-94 25 89 23 c49 13 93 27
98 32 14 13 7 12 -116 -16 -61 -14 -113 -25 -116 -25 -2 0 -1 52 3 115 7 108
6 115 -12 116 -13 1 -11 3 7 9 23 7 -265 12 -300 5z m265 -121 c4 -58 5 -107
3 -110 -3 -2 -126 25 -274 61 -432 105 -424 103 -384 105 19 1 152 12 295 24
143 13 281 24 306 25 l47 1 7 -106z"/>
</g>
</svg>
