<?xml version="1.0" standalone="no"?>
<!DOCTYPE svg PUBLIC "-//W3C//DTD SVG 20010904//EN"
 "http://www.w3.org/TR/2001/REC-SVG-20010904/DTD/svg10.dtd">
<svg version="1.0" xmlns="http://www.w3.org/2000/svg"
 width="171.000000pt" height="156.000000pt" viewBox="0 0 171.000000 156.000000"
 preserveAspectRatio="xMidYMid meet">
<metadata>
Created by potrace 1.16, written by Peter Selinger 2001-2019
</metadata>
<g transform="translate(0.000000,156.000000) scale(0.100000,-0.100000)"
fill="#000000" stroke="none">
<path d="M410 1250 c0 -6 14 -37 30 -70 17 -33 26 -60 20 -60 -19 0 -60 48
-60 70 0 22 -7 25 -30 10 -12 -8 -12 -14 3 -45 13 -28 30 -42 67 -58 41 -17
51 -27 65 -64 10 -24 14 -47 10 -51 -4 -4 -33 -7 -65 -7 -65 1 -103 24 -115
72 -3 13 -11 23 -18 20 -22 -7 -18 -44 8 -75 31 -37 91 -56 152 -49 41 4 43 3
43 -23 0 -15 -12 -73 -26 -130 -38 -150 -26 -188 75 -248 41 -24 47 -25 90
-13 54 14 78 34 96 78 12 28 12 38 -1 68 -14 34 -95 104 -121 105 -29 0 -20
-21 20 -44 24 -14 54 -37 67 -51 22 -23 22 -26 9 -62 -16 -41 -68 -83 -104
-83 -31 0 -110 83 -124 130 -10 35 -9 50 14 122 14 45 28 101 32 123 5 40 7
42 55 55 65 16 119 15 155 -4 55 -28 57 -39 24 -98 -41 -72 -42 -128 -5 -157
30 -24 114 -51 156 -51 23 0 32 -8 54 -52 14 -29 58 -110 96 -180 57 -104 74
-128 92 -128 26 0 188 91 194 109 3 10 0 11 -17 1 -20 -10 -24 -7 -52 57 -17
37 -55 119 -85 182 -30 63 -54 115 -54 116 0 3 209 179 239 202 14 11 14 14
-2 30 -16 16 -41 18 -248 21 -205 3 -231 5 -235 20 -36 118 -115 148 -265 103
-35 -10 -80 -22 -100 -25 l-36 -6 -33 75 c-24 55 -38 75 -51 75 -11 0 -19 -5
-19 -10z m415 -148 c36 -19 68 -61 69 -89 l1 -28 140 3 c77 1 184 5 239 8 l98
6 -128 -125 -128 -124 97 -178 c54 -98 96 -179 95 -180 -13 -9 -149 -67 -151
-64 -3 4 -94 201 -135 290 -23 51 -29 57 -56 57 -40 1 -144 37 -168 59 -10 9
-18 22 -18 30 0 19 37 90 52 100 7 4 18 17 25 29 10 18 7 25 -18 48 -16 15
-29 31 -29 36 0 15 -69 40 -112 40 -25 0 -67 -7 -94 -15 -27 -8 -50 -15 -51
-15 0 0 -8 20 -16 44 l-15 43 82 19 c146 33 170 34 221 6z"/>
</g>
</svg>
