<?xml version="1.0" standalone="no"?>
<!DOCTYPE svg PUBLIC "-//W3C//DTD SVG 20010904//EN"
 "http://www.w3.org/TR/2001/REC-SVG-20010904/DTD/svg10.dtd">
<svg version="1.0" xmlns="http://www.w3.org/2000/svg"
 width="156.000000pt" height="223.000000pt" viewBox="0 0 156.000000 223.000000"
 preserveAspectRatio="xMidYMid meet">
<metadata>
Created by potrace 1.16, written by Peter Selinger 2001-2019
</metadata>
<g transform="translate(0.000000,223.000000) scale(0.100000,-0.100000)"
fill="#000000" stroke="none">
<path d="M445 1847 c-29 -45 -74 -124 -99 -175 -39 -77 -44 -93 -31 -98 14 -6
14 -8 -1 -19 -15 -11 -12 -22 39 -116 67 -124 137 -231 156 -237 8 -3 11 0 8
5 -4 6 105 12 296 16 322 7 447 15 447 28 0 4 -8 8 -17 8 -10 0 -179 3 -375 7
l-358 7 0 -24 c0 -14 -34 45 -80 140 -44 90 -80 170 -80 177 0 8 32 78 72 157
l71 144 288 6 c158 4 314 10 346 13 l60 7 7 -209 c6 -186 27 -408 39 -420 9
-9 15 219 11 425 -3 118 -6 216 -8 218 -2 2 -151 6 -332 9 -181 2 -346 6 -367
8 -38 4 -39 4 -92 -77z"/>
<path d="M778 1709 l-3 -101 -50 66 c-43 57 -51 64 -64 52 -12 -13 -6 -24 43
-83 l57 -68 -96 -3 c-86 -2 -95 -5 -95 -22 0 -17 9 -20 87 -22 l87 -3 -67 -44
c-37 -24 -67 -47 -67 -52 0 -26 35 -15 98 30 38 28 73 51 76 51 3 0 6 -38 6
-84 0 -47 5 -88 10 -91 6 -4 10 20 10 64 0 38 3 76 6 85 6 16 18 4 117 -109
49 -56 27 -8 -32 71 l-59 79 51 7 c29 3 96 6 149 7 53 1 100 6 103 11 4 6 -17
10 -57 10 -35 0 -100 3 -145 7 l-83 6 73 54 c128 96 93 90 -55 -9 l-58 -39 0
116 c0 108 -1 115 -20 115 -18 0 -20 -8 -22 -101z"/>
<path d="M454 949 c-26 -39 -71 -118 -102 -176 -44 -84 -52 -107 -41 -114 12
-8 12 -10 0 -18 -11 -7 -1 -32 47 -122 34 -63 76 -136 94 -163 l34 -48 204 1
c228 1 437 8 520 18 l55 6 -40 8 c-22 4 -165 11 -317 15 l-278 7 0 144 c0 140
1 144 23 153 l22 9 -22 0 c-23 1 -23 3 -23 144 l0 144 251 7 c138 4 263 9 278
12 l28 6 7 -209 c6 -187 26 -407 38 -419 9 -9 16 224 12 426 -4 196 -5 205
-25 212 -11 4 -165 10 -342 13 -177 3 -334 8 -349 10 -24 4 -32 -4 -74 -66z
m136 -82 l0 -93 -40 -39 -40 -39 0 87 c0 51 -4 87 -10 87 -6 0 -10 -31 -11
-72 l0 -73 -22 43 c-11 23 -25 42 -29 42 -15 0 -8 -30 17 -80 l25 -49 -45 -3
c-58 -4 -63 -22 -7 -28 l44 -5 -31 -29 c-28 -27 -42 -66 -23 -66 4 0 21 17 39
37 l32 38 1 -62 c0 -83 18 -91 22 -11 l3 63 29 -55 c39 -74 45 -48 6 29 l-30
61 34 0 c34 0 35 0 40 -52 3 -29 8 -95 11 -145 l6 -93 -51 0 c-45 0 -50 -2
-50 -22 -1 -22 -160 292 -160 314 0 6 32 77 72 159 l71 149 49 0 48 0 0 -93z
m-3 -184 c-3 -2 -15 -3 -27 -1 l-22 3 24 30 23 30 3 -29 c2 -15 1 -30 -1 -33z"/>
</g>
</svg>
