<?xml version="1.0" standalone="no"?>
<!DOCTYPE svg PUBLIC "-//W3C//DTD SVG 20010904//EN"
 "http://www.w3.org/TR/2001/REC-SVG-20010904/DTD/svg10.dtd">
<svg version="1.0" xmlns="http://www.w3.org/2000/svg"
 width="140.000000pt" height="122.000000pt" viewBox="0 0 140.000000 122.000000"
 preserveAspectRatio="xMidYMid meet">
<metadata>
Created by potrace 1.16, written by Peter Selinger 2001-2019
</metadata>
<g transform="translate(0.000000,122.000000) scale(0.100000,-0.100000)"
fill="#000000" stroke="none">
<path d="M820 910 c0 -5 9 -27 20 -48 21 -39 18 -72 -5 -72 -19 0 -63 38 -70
60 -6 17 -35 29 -35 15 0 -10 33 -60 49 -72 22 -19 72 -16 87 5 18 23 17 45
-3 87 -15 32 -43 48 -43 25z"/>
<path d="M890 907 c0 -9 14 -14 38 -15 24 -1 43 -9 53 -21 16 -19 16 -26 -2
-93 -27 -101 -25 -157 6 -199 55 -75 66 -97 87 -164 15 -48 24 -63 26 -47 5
36 -25 115 -74 189 -50 76 -52 90 -25 203 22 92 16 130 -25 149 -35 15 -84 14
-84 -2z"/>
<path d="M698 753 c-21 -5 -24 -23 -4 -23 40 0 105 14 100 21 -5 9 -65 10 -96
2z"/>
<path d="M360 737 l-45 -12 85 -6 c47 -4 120 -10 162 -14 57 -6 82 -4 93 5 26
21 17 25 -62 26 -43 0 -103 3 -133 7 -32 3 -74 1 -100 -6z"/>
<path d="M320 649 c44 -36 124 -69 166 -69 52 0 134 28 134 46 0 17 -5 17 -55
-1 -61 -22 -109 -18 -182 15 -76 35 -98 38 -63 9z"/>
<path d="M745 531 c-42 -22 -61 -25 -123 -24 -52 2 -87 -3 -125 -17 -56 -21
-122 -58 -115 -65 2 -2 39 7 81 20 54 18 101 25 154 25 89 0 193 38 193 71 0
23 -2 23 -65 -10z"/>
<path d="M825 401 c-16 -19 -50 -43 -74 -54 -40 -18 -59 -19 -180 -13 -75 3
-152 8 -171 11 -69 12 -6 -13 80 -31 104 -21 248 -16 300 11 43 21 90 64 90
82 0 7 15 -4 34 -25 19 -20 38 -34 41 -30 11 11 -54 87 -73 85 -9 -1 -30 -17
-47 -36z"/>
<path d="M611 401 c-69 -6 -100 -31 -39 -31 34 0 135 24 146 34 6 6 -5 6 -107
-3z"/>
</g>
</svg>
