<?xml version="1.0" standalone="no"?>
<!DOCTYPE svg PUBLIC "-//W3C//DTD SVG 20010904//EN"
 "http://www.w3.org/TR/2001/REC-SVG-20010904/DTD/svg10.dtd">
<svg version="1.0" xmlns="http://www.w3.org/2000/svg"
 width="144.000000pt" height="136.000000pt" viewBox="0 0 144.000000 136.000000"
 preserveAspectRatio="xMidYMid meet">
<metadata>
Created by potrace 1.16, written by Peter Selinger 2001-2019
</metadata>
<g transform="translate(0.000000,136.000000) scale(0.100000,-0.100000)"
fill="#000000" stroke="none">
<path d="M839 1011 c-41 -27 -99 -69 -128 -95 -40 -33 -58 -42 -67 -35 -21 17
-116 39 -172 39 -32 0 -67 -7 -90 -19 -48 -24 -79 -58 -66 -71 9 -9 75 -24
203 -47 l44 -8 -55 -37 c-65 -43 -201 -155 -207 -170 -2 -6 1 -8 8 -4 6 4 11
2 11 -5 0 -18 106 -5 243 31 65 16 124 27 130 23 50 -29 274 -217 345 -290 13
-12 28 -23 34 -23 9 0 9 3 1 11 -8 8 0 34 28 95 40 86 48 124 27 124 -6 0 -41
28 -77 63 -36 34 -88 81 -116 104 l-49 42 22 88 c40 157 44 233 11 233 -3 0
-40 -22 -80 -49z m52 -137 c-10 -65 -22 -126 -26 -136 -5 -12 24 -42 118 -122
l124 -106 -30 -85 -30 -86 -111 109 c-61 59 -136 127 -166 150 -63 47 -46 46
-263 11 -70 -11 -133 -19 -139 -17 -12 4 202 147 233 155 10 3 19 8 19 12 -1
21 -29 34 -130 56 -63 15 -120 30 -128 34 -22 13 72 41 135 41 60 0 133 -25
133 -46 0 -8 58 25 137 77 76 50 139 87 140 82 2 -6 -5 -63 -16 -129z"/>
</g>
</svg>
