<?xml version="1.0" standalone="no"?>
<!DOCTYPE svg PUBLIC "-//W3C//DTD SVG 20010904//EN"
 "http://www.w3.org/TR/2001/REC-SVG-20010904/DTD/svg10.dtd">
<svg version="1.0" xmlns="http://www.w3.org/2000/svg"
 width="144.000000pt" height="122.000000pt" viewBox="0 0 144.000000 122.000000"
 preserveAspectRatio="xMidYMid meet">
<metadata>
Created by potrace 1.16, written by Peter Selinger 2001-2019
</metadata>
<g transform="translate(0.000000,122.000000) scale(0.100000,-0.100000)"
fill="#000000" stroke="none">
<path d="M781 874 c-30 -25 -112 -83 -182 -130 -75 -50 -151 -110 -183 -145
-51 -55 -116 -168 -116 -202 0 -29 42 -25 137 14 53 21 98 37 100 36 2 -2 -13
-25 -33 -51 -20 -26 -34 -49 -32 -52 3 -2 35 28 73 67 40 41 85 77 109 87 22
8 35 17 28 20 -14 4 -163 -41 -261 -79 -40 -17 -75 -28 -77 -26 -2 2 10 32 27
66 45 90 123 169 231 234 51 30 121 81 156 112 72 65 60 65 180 -1 l63 -35
-32 -42 c-43 -56 -101 -117 -111 -117 -5 0 -20 7 -34 17 l-25 16 68 69 68 68
-30 25 c-17 13 -34 24 -38 25 -19 0 -155 -155 -145 -165 2 -3 17 9 33 25 52
54 81 34 33 -24 -16 -20 -29 -38 -27 -40 2 -1 56 -32 119 -68 212 -121 230
-132 230 -145 0 -20 -50 -115 -58 -111 -29 13 -278 141 -281 144 -2 2 2 10 9
19 22 27 3 16 -65 -35 -47 -36 -88 -57 -141 -72 -43 -13 -74 -27 -74 -35 0 -7
5 -13 10 -13 30 0 141 46 182 75 l46 34 144 -63 c200 -88 180 -87 222 -19 20
31 36 65 36 73 0 13 -130 106 -244 175 -15 9 -5 22 63 91 l79 82 -21 20 c-18
16 -111 78 -172 114 -6 4 -35 -14 -64 -38z m104 -64 c3 -5 2 -10 -4 -10 -5 0
-13 5 -16 10 -3 6 -2 10 4 10 5 0 13 -4 16 -10z m-20 -30 c3 -6 -1 -7 -9 -4
-18 7 -21 14 -7 14 6 0 13 -4 16 -10z m-31 -16 c9 -3 14 -10 11 -15 -7 -10
-35 0 -35 12 0 11 3 11 24 3z"/>
</g>
</svg>
