<?xml version="1.0" standalone="no"?>
<!DOCTYPE svg PUBLIC "-//W3C//DTD SVG 20010904//EN"
 "http://www.w3.org/TR/2001/REC-SVG-20010904/DTD/svg10.dtd">
<svg version="1.0" xmlns="http://www.w3.org/2000/svg"
 width="242.000000pt" height="173.000000pt" viewBox="0 0 242.000000 173.000000"
 preserveAspectRatio="xMidYMid meet">
<metadata>
Created by potrace 1.16, written by Peter Selinger 2001-2019
</metadata>
<g transform="translate(0.000000,173.000000) scale(0.100000,-0.100000)"
fill="#000000" stroke="none">
<path d="M1282 1378 c-11 -29 -25 -72 -32 -95 -12 -39 -20 -46 -132 -112 -65
-39 -127 -71 -138 -71 -19 0 -20 -7 -20 -129 0 -72 4 -132 9 -135 5 -3 12 40
16 95 l7 100 41 -25 c23 -14 79 -47 124 -73 80 -46 83 -49 83 -85 l0 -36 -200
5 c-199 5 -200 5 -200 -16 0 -21 3 -21 200 -21 l200 0 0 -55 c0 -73 18 -71 22
3 l3 57 78 3 c99 4 101 22 3 22 -41 0 -77 3 -79 8 -3 4 -2 22 0 39 4 26 17 41
57 70 28 20 74 53 101 73 l50 37 195 7 c107 4 196 9 199 12 11 11 -17 14 -198
20 l-192 7 -37 30 c-20 16 -70 51 -109 78 -40 27 -73 51 -73 52 0 2 16 41 35
87 40 95 41 100 21 100 -8 0 -23 -23 -34 -52z m-46 -186 c8 14 23 8 105 -44
91 -57 96 -61 90 -89 -5 -22 -23 -39 -81 -75 -41 -25 -81 -47 -88 -48 -8 -1
-17 -8 -21 -15 -5 -8 -41 11 -119 65 l-110 78 86 59 c48 32 94 65 102 73 13
13 15 12 21 -3 5 -15 7 -16 15 -1z"/>
<path d="M500 970 c0 -38 -2 -70 -5 -70 -3 0 -36 23 -72 50 -37 28 -71 49 -77
47 -29 -10 -9 -36 62 -84 l77 -53 -93 0 c-85 0 -92 -1 -92 -20 0 -18 7 -20 87
-20 l86 0 -72 -51 c-66 -46 -81 -67 -55 -76 6 -2 42 19 80 47 l69 50 7 -42 c3
-24 7 -69 7 -100 1 -32 6 -58 11 -58 6 0 10 21 10 48 0 26 3 77 6 114 l7 67
86 -58 c109 -73 111 -74 111 -63 0 5 -32 34 -70 64 -40 32 -65 58 -58 60 7 3
49 6 93 7 44 1 82 4 84 7 10 10 -9 13 -91 15 -47 1 -91 5 -97 8 -5 4 24 33 65
65 42 32 73 60 70 63 -3 4 -36 -14 -73 -39 -38 -24 -81 -53 -97 -63 l-29 -19
5 87 c4 86 4 87 -19 87 -22 0 -23 -3 -23 -70z"/>
<path d="M1467 723 c-29 -177 -29 -170 5 -247 37 -85 100 -186 105 -169 2 6
-5 30 -17 52 -11 23 -36 80 -55 127 l-35 85 21 107 c11 59 22 115 25 125 4 12
0 17 -14 17 -16 0 -21 -14 -35 -97z"/>
<path d="M1562 763 c3 -16 15 -18 108 -15 188 6 182 29 -8 31 -93 1 -103 -1
-100 -16z"/>
<path d="M1872 763 c3 -16 15 -18 108 -15 188 6 182 29 -8 31 -93 1 -103 -1
-100 -16z"/>
<path d="M1560 660 c0 -22 0 -22 123 -15 67 4 124 9 126 11 13 12 -21 17 -129
22 -119 5 -120 5 -120 -18z"/>
<path d="M1870 660 c0 -22 0 -22 123 -15 67 4 124 9 126 11 13 12 -21 17 -129
22 -119 5 -120 5 -120 -18z"/>
<path d="M1560 575 c0 -12 16 -15 88 -15 48 0 104 3 124 6 72 12 26 24 -93 24
-99 0 -119 -3 -119 -15z"/>
<path d="M1870 575 c0 -12 16 -15 88 -15 48 0 104 3 124 6 72 12 26 24 -93 24
-99 0 -119 -3 -119 -15z"/>
<path d="M1560 480 c0 -23 0 -23 121 -17 111 6 140 10 128 21 -2 2 -59 7 -126
11 l-123 7 0 -22z"/>
<path d="M1870 479 c0 -22 1 -22 121 -16 112 6 139 10 128 21 -2 2 -59 7 -126
11 -123 7 -123 7 -123 -16z"/>
</g>
</svg>
