<?xml version="1.0" standalone="no"?>
<!DOCTYPE svg PUBLIC "-//W3C//DTD SVG 20010904//EN"
 "http://www.w3.org/TR/2001/REC-SVG-20010904/DTD/svg10.dtd">
<svg version="1.0" xmlns="http://www.w3.org/2000/svg"
 width="115.000000pt" height="215.000000pt" viewBox="0 0 115.000000 215.000000"
 preserveAspectRatio="xMidYMid meet">
<metadata>
Created by potrace 1.16, written by Peter Selinger 2001-2019
</metadata>
<g transform="translate(0.000000,215.000000) scale(0.100000,-0.100000)"
fill="#000000" stroke="none">
<path d="M452 1841 c-11 -6 -6 -17 19 -47 18 -22 39 -46 46 -55 11 -14 9 -21
-16 -52 -15 -20 -34 -50 -41 -67 -7 -16 -16 -30 -21 -30 -5 0 -34 11 -65 25
-39 17 -61 22 -68 15 -14 -14 -2 -24 64 -51 30 -12 56 -23 57 -24 2 -1 -4 -33
-12 -71 -29 -140 -49 -684 -25 -684 6 0 10 36 10 88 l0 87 105 3 c103 2 105 2
105 -20 0 -23 -2 -23 -100 -20 -95 3 -100 2 -100 -17 0 -19 4 -20 100 -14
l100 6 0 -36 0 -35 -100 5 c-99 6 -100 6 -100 -17 0 -23 1 -23 99 -17 l98 6 7
-76 c3 -42 6 -159 6 -260 0 -100 4 -183 9 -183 10 0 20 306 24 685 l2 240
-118 3 -119 3 7 72 c8 79 31 227 38 233 3 4 309 -115 354 -138 13 -6 26 -8 30
-4 6 6 -4 17 -27 28 -3 2 -59 70 -124 151 -93 117 -116 151 -105 158 8 5 29
19 47 30 17 11 32 24 32 29 0 23 -26 19 -68 -10 l-46 -32 -46 51 c-32 36 -49
48 -58 42z m213 -272 c59 -66 105 -122 103 -123 -1 -2 -69 26 -150 62 l-147
65 14 27 c13 26 63 90 70 90 1 0 51 -54 110 -121z m-55 -389 l0 -30 -94 0
c-96 0 -111 5 -100 34 5 12 26 16 97 19 51 1 93 4 95 5 1 1 2 -11 2 -28z m0
-80 l0 -30 -100 0 c-100 0 -100 0 -100 25 0 24 2 24 93 28 50 1 95 4 100 5 4
1 7 -11 7 -28z m-2 -93 c-2 -1 -47 -1 -100 1 -76 3 -98 7 -98 17 0 11 22 15
98 17 87 3 97 1 100 -15 2 -10 2 -19 0 -20z"/>
</g>
</svg>
