<?xml version="1.0" standalone="no"?>
<!DOCTYPE svg PUBLIC "-//W3C//DTD SVG 20010904//EN"
 "http://www.w3.org/TR/2001/REC-SVG-20010904/DTD/svg10.dtd">
<svg version="1.0" xmlns="http://www.w3.org/2000/svg"
 width="215.000000pt" height="115.000000pt" viewBox="0 0 215.000000 115.000000"
 preserveAspectRatio="xMidYMid meet">
<metadata>
Created by potrace 1.16, written by Peter Selinger 2001-2019
</metadata>
<g transform="translate(0.000000,115.000000) scale(0.100000,-0.100000)"
fill="#000000" stroke="none">
<path d="M746 838 c-8 -19 -301 -258 -316 -258 -5 0 -21 21 -36 46 -19 33 -29
42 -35 32 -14 -22 -10 -39 17 -76 l27 -34 -29 -23 c-77 -60 -79 -63 -67 -76
10 -10 23 -4 64 31 43 36 54 41 68 32 34 -25 106 -72 116 -75 5 -2 -3 -32 -18
-66 -32 -74 -32 -71 -9 -71 12 0 24 18 41 61 l23 61 37 -7 c113 -22 172 -26
436 -29 160 -2 274 -2 255 0 -80 10 -75 2 -78 119 l-4 105 36 0 35 0 -6 -105
c-6 -105 -6 -105 17 -105 23 0 23 0 17 105 l-6 105 147 0 c81 0 199 3 262 7
200 12 74 21 -387 29 l-433 7 0 -116 0 -117 -46 0 c-43 0 -255 28 -262 34 -4
5 129 339 140 353 5 7 8 20 5 30 -4 17 -4 17 -11 1z m-101 -219 c-36 -79 -68
-145 -72 -146 -13 -5 -108 61 -108 73 0 10 237 225 242 220 1 -1 -27 -67 -62
-147z m354 -109 c-1 -98 -2 -100 -25 -100 -24 0 -24 1 -24 100 l0 100 25 0 26
0 -2 -100z m79 -2 c-3 -95 -4 -103 -23 -103 -18 0 -20 8 -25 98 -3 54 -3 101
-1 103 2 2 15 4 28 4 24 0 24 -1 21 -102z m68 86 c-3 -9 -6 -56 -6 -105 0 -72
-3 -89 -15 -89 -12 0 -15 17 -15 89 0 49 -3 96 -6 105 -5 12 0 16 21 16 21 0
26 -4 21 -16z m64 -89 c0 -93 -2 -105 -17 -105 -16 0 -18 13 -21 105 -2 100
-1 105 18 105 19 0 20 -6 20 -105z"/>
</g>
</svg>
