<?xml version="1.0" standalone="no"?>
<!DOCTYPE svg PUBLIC "-//W3C//DTD SVG 20010904//EN"
 "http://www.w3.org/TR/2001/REC-SVG-20010904/DTD/svg10.dtd">
<svg version="1.0" xmlns="http://www.w3.org/2000/svg"
 width="115.000000pt" height="215.000000pt" viewBox="0 0 115.000000 215.000000"
 preserveAspectRatio="xMidYMid meet">
<metadata>
Created by potrace 1.16, written by Peter Selinger 2001-2019
</metadata>
<g transform="translate(0.000000,215.000000) scale(0.100000,-0.100000)"
fill="#000000" stroke="none">
<path d="M644 1800 c-21 -27 -40 -50 -42 -50 -2 0 -18 11 -36 25 -35 26 -52
30 -74 16 -10 -6 -1 -16 32 -35 25 -15 46 -31 46 -36 0 -13 -216 -280 -248
-307 -22 -18 -23 -23 -9 -23 9 0 25 5 35 11 38 23 338 137 344 130 10 -9 38
-194 38 -253 l0 -48 -117 0 -116 0 7 -432 c8 -462 17 -588 29 -388 4 63 7 181
7 262 l0 147 105 -6 c105 -6 105 -6 105 17 0 23 0 23 -105 17 l-105 -6 0 35 0
36 105 -4 c117 -3 109 2 119 -78 2 -19 3 96 1 255 -3 206 -8 313 -19 370 -9
44 -16 85 -16 92 0 6 27 22 60 35 42 16 60 28 60 40 0 23 1 23 -66 -7 -31 -14
-60 -25 -65 -25 -5 0 -20 22 -33 48 -13 27 -32 54 -40 61 -23 19 -21 27 25 81
36 43 44 70 19 70 -4 0 -25 -22 -46 -50z m2 -165 c21 -30 34 -58 31 -61 -7 -7
-290 -134 -293 -131 -4 4 211 247 218 247 4 0 24 -25 44 -55z m94 -455 c0 -25
-19 -30 -116 -30 -81 0 -84 1 -84 23 0 13 2 26 4 28 2 2 47 3 100 1 85 -3 96
-5 96 -22z m4 -77 c11 -28 -5 -33 -105 -33 -97 0 -99 0 -99 23 0 13 2 26 4 28
2 2 47 3 99 1 74 -3 97 -7 101 -19z m-83 -63 c72 0 89 -3 89 -15 0 -12 -17
-15 -89 -15 -49 0 -96 -3 -105 -6 -12 -5 -16 0 -16 21 0 21 4 26 16 21 9 -3
56 -6 105 -6z m89 -82 c0 -14 -14 -17 -105 -20 -104 -3 -105 -3 -105 20 0 22
2 22 105 20 90 -3 105 -5 105 -20z"/>
</g>
</svg>
