<?xml version="1.0" standalone="no"?>
<!DOCTYPE svg PUBLIC "-//W3C//DTD SVG 20010904//EN"
 "http://www.w3.org/TR/2001/REC-SVG-20010904/DTD/svg10.dtd">
<svg version="1.0" xmlns="http://www.w3.org/2000/svg"
 width="173.000000pt" height="140.000000pt" viewBox="0 0 173.000000 140.000000"
 preserveAspectRatio="xMidYMid meet">
<metadata>
Created by potrace 1.16, written by Peter Selinger 2001-2019
</metadata>
<g transform="translate(0.000000,140.000000) scale(0.100000,-0.100000)"
fill="#000000" stroke="none">
<path d="M1255 1002 c-88 -54 -182 -113 -210 -131 l-50 -32 -117 7 c-109 6
-118 5 -125 -12 -4 -11 -24 -42 -45 -70 -21 -28 -38 -57 -38 -64 0 -8 18 -42
41 -76 43 -67 69 -95 69 -75 0 7 33 11 101 11 l101 0 107 -64 c159 -95 319
-186 327 -186 5 0 3 5 -2 10 -6 6 -7 37 -3 83 9 83 17 697 9 697 -3 0 -77 -45
-165 -98z m135 -254 c0 -167 3 -327 7 -357 4 -44 3 -52 -8 -45 -8 4 -72 47
-144 94 -71 47 -163 106 -203 130 -72 44 -73 46 -68 80 3 19 6 58 6 85 l0 50
69 43 c37 23 126 82 197 132 71 49 132 90 137 90 4 0 7 -136 7 -302z m-442
-40 l-3 -113 -92 -3 -91 -3 -30 55 -29 54 33 54 c36 58 49 64 162 67 l53 1 -3
-112z"/>
<path d="M346 1053 c-5 -13 14 -37 76 -94 46 -42 81 -79 78 -81 -3 -2 -34 -25
-70 -50 -140 -99 -157 -135 -92 -197 33 -31 145 -104 176 -114 9 -3 -76 -129
-122 -179 -14 -15 -22 -31 -18 -35 4 -5 30 16 58 46 132 143 218 274 218 330
-1 60 -72 168 -204 309 -43 45 -82 82 -86 82 -4 0 -11 -8 -14 -17z m206 -235
c35 -46 58 -93 58 -119 0 -24 -69 -169 -80 -169 -4 0 -35 19 -69 42 -65 43
-121 100 -121 121 0 7 15 27 33 44 34 34 138 112 148 113 4 0 18 -15 31 -32z"/>
</g>
</svg>
