<?xml version="1.0" standalone="no"?>
<!DOCTYPE svg PUBLIC "-//W3C//DTD SVG 20010904//EN"
 "http://www.w3.org/TR/2001/REC-SVG-20010904/DTD/svg10.dtd">
<svg version="1.0" xmlns="http://www.w3.org/2000/svg"
 width="235.000000pt" height="139.000000pt" viewBox="0 0 235.000000 139.000000"
 preserveAspectRatio="xMidYMid meet">
<metadata>
Created by potrace 1.16, written by Peter Selinger 2001-2019
</metadata>
<g transform="translate(0.000000,139.000000) scale(0.100000,-0.100000)"
fill="#000000" stroke="none">
<path d="M1386 1026 c-119 -166 -136 -274 -66 -426 32 -69 130 -219 143 -220
4 0 7 33 7 73 0 41 3 128 6 194 l7 120 102 6 c137 8 448 47 459 58 13 12 -5
11 -279 -6 -126 -8 -242 -15 -257 -15 l-28 0 0 140 0 140 -24 0 c-19 0 -36
-15 -70 -64z m52 -101 l3 -105 -52 0 c-42 0 -50 -3 -45 -16 3 -9 6 -20 6 -25
0 -5 20 -9 44 -9 l43 0 6 -167 c3 -93 4 -169 2 -171 -7 -7 -78 138 -101 207
-34 100 -30 170 14 264 26 57 68 127 75 127 1 0 3 -47 5 -105z"/>
<path d="M380 847 c-29 -62 -59 -120 -67 -129 -14 -15 -8 -27 58 -124 41 -59
80 -109 88 -112 8 -3 11 0 7 7 -4 6 -5 11 -3 11 36 0 536 81 653 105 17 4 22
-3 33 -45 16 -63 73 -140 131 -178 80 -53 168 -74 330 -79 149 -5 374 16 409
38 12 7 2 9 -34 5 -27 -3 -117 -8 -200 -12 -231 -9 -403 23 -504 96 -77 56
-131 198 -115 300 6 38 5 42 -12 38 -16 -3 -19 -14 -22 -76 -2 -56 -6 -72 -18
-72 -27 0 -397 -40 -536 -58 l-138 -18 -48 84 -49 85 50 86 c28 47 52 88 54
90 3 4 42 -2 174 -30 l46 -10 6 -126 c4 -69 9 -128 12 -131 12 -13 17 14 22
127 6 116 7 120 27 115 12 -2 104 -20 206 -39 164 -30 204 -34 189 -21 -7 6
-349 94 -494 127 -77 17 -154 37 -171 44 l-32 13 -52 -111z"/>
</g>
</svg>
