<?xml version="1.0" standalone="no"?>
<!DOCTYPE svg PUBLIC "-//W3C//DTD SVG 20010904//EN"
 "http://www.w3.org/TR/2001/REC-SVG-20010904/DTD/svg10.dtd">
<svg version="1.0" xmlns="http://www.w3.org/2000/svg"
 width="184.000000pt" height="169.000000pt" viewBox="0 0 184.000000 169.000000"
 preserveAspectRatio="xMidYMid meet">
<metadata>
Created by potrace 1.16, written by Peter Selinger 2001-2019
</metadata>
<g transform="translate(0.000000,169.000000) scale(0.100000,-0.100000)"
fill="#000000" stroke="none">
<path d="M839 1376 c-48 -17 -204 -107 -314 -180 -172 -115 -224 -181 -225
-286 0 -105 8 -129 54 -152 49 -26 160 -28 271 -4 38 8 70 14 71 13 0 -1 29
-56 64 -122 76 -145 170 -316 182 -332 7 -9 13 -8 26 4 9 8 70 44 135 80 64
37 117 70 117 75 0 5 -9 4 -20 -2 -19 -10 -23 -6 -45 45 -14 30 -25 62 -25 70
0 8 -4 15 -8 15 -11 0 -58 100 -54 116 1 6 -4 14 -13 18 -8 3 -15 11 -15 17 0
6 39 57 87 112 48 55 89 109 90 119 3 16 -7 18 -115 19 -64 1 -159 4 -211 8
l-93 6 113 99 c63 55 114 105 114 111 0 11 -138 166 -147 165 -2 -1 -19 -7
-39 -14z m95 -85 l59 -60 -54 -49 c-30 -27 -71 -63 -91 -81 -60 -52 -99 -107
-91 -127 6 -16 20 -16 177 -10 94 3 189 9 211 13 l40 6 -46 -54 c-25 -30 -61
-75 -81 -101 l-36 -48 -12 30 c-13 32 -18 34 -38 22 -9 -6 -5 -22 18 -65 l31
-56 -70 -36 c-39 -19 -71 -39 -71 -43 0 -22 18 -19 82 15 76 40 71 41 108 -28
l19 -35 -75 -37 c-43 -22 -74 -43 -74 -52 0 -23 17 -18 93 25 38 22 71 39 72
38 13 -17 57 -100 54 -102 -2 -2 -52 -26 -111 -54 l-106 -50 -33 72 c-43 93
-199 420 -203 423 -2 2 -11 1 -20 -3 -13 -5 -15 -14 -11 -35 l6 -28 -113 -3
c-189 -5 -238 16 -238 101 1 56 19 109 55 162 l28 39 73 -70 c102 -97 125 -91
35 9 -39 43 -71 81 -71 84 0 8 178 121 236 150 l51 26 49 -50 c105 -108 144
-113 44 -6 -33 36 -60 67 -60 71 0 5 88 54 100 56 3 0 32 -27 64 -59z"/>
<path d="M1204 1334 c-119 -58 -62 -236 72 -221 40 4 43 2 62 -32 21 -37 21
-37 1 -49 -31 -20 -53 -74 -45 -114 13 -70 107 -119 166 -88 21 11 26 10 41
-9 10 -12 19 -27 22 -34 2 -6 8 -9 12 -5 4 4 0 26 -9 48 -12 30 -13 46 -6 60
16 30 12 82 -9 116 -21 35 -76 59 -116 52 -19 -4 -26 2 -39 34 -14 37 -14 42
6 79 34 66 13 130 -54 165 -35 18 -65 17 -104 -2z"/>
</g>
</svg>
