<?xml version="1.0" standalone="no"?>
<!DOCTYPE svg PUBLIC "-//W3C//DTD SVG 20010904//EN"
 "http://www.w3.org/TR/2001/REC-SVG-20010904/DTD/svg10.dtd">
<svg version="1.0" xmlns="http://www.w3.org/2000/svg"
 width="177.000000pt" height="165.000000pt" viewBox="0 0 177.000000 165.000000"
 preserveAspectRatio="xMidYMid meet">
<metadata>
Created by potrace 1.16, written by Peter Selinger 2001-2019
</metadata>
<g transform="translate(0.000000,165.000000) scale(0.100000,-0.100000)"
fill="#000000" stroke="none">
<path d="M744 1324 c-4 -14 -4 -65 -2 -114 l5 -87 -51 -22 c-78 -32 -143 -93
-159 -149 l-14 -47 -112 4 -111 3 0 -85 c0 -47 3 -92 6 -100 4 -12 25 -14 120
-10 85 4 114 3 114 -6 0 -7 12 -33 27 -59 16 -26 27 -51 26 -57 -3 -13 55 -51
115 -74 l47 -19 3 -93 c2 -57 8 -97 15 -101 18 -12 225 -10 232 2 3 6 -1 10
-9 10 -13 0 -14 15 -9 103 3 56 8 105 12 108 9 9 134 54 151 54 12 0 44 64 63
126 5 14 26 18 116 24 60 4 114 4 119 1 13 -8 22 42 22 119 l0 63 -130 -2
c-92 -1 -130 2 -130 10 0 7 -18 38 -39 70 -37 56 -43 59 -127 90 -61 22 -89
37 -88 47 1 9 5 58 9 110 l7 94 -32 7 c-18 3 -68 6 -111 6 -76 0 -79 -1 -85
-26z m186 -73 c0 -37 3 -82 6 -98 l6 -30 -91 1 c-76 1 -90 3 -86 16 2 8 5 47
6 85 2 39 7 75 11 81 5 6 40 12 78 13 l70 1 0 -69z m96 -182 c73 -22 91 -38
130 -112 38 -73 46 -134 30 -225 -23 -126 -19 -122 -130 -153 -161 -46 -231
-54 -307 -35 -87 22 -108 39 -152 127 -45 88 -55 158 -37 251 10 53 17 67 43
85 53 36 125 73 164 83 54 13 181 3 259 -21z m414 -245 l0 -67 -52 7 c-29 3
-77 6 -105 6 l-53 0 0 54 c0 63 -3 62 133 65 l77 1 0 -66z m-922 -15 c1 -60
-1 -70 -14 -65 -9 3 -51 6 -95 6 l-79 0 0 59 0 60 33 4 c17 2 59 5 93 5 l60 2
2 -71z m442 -388 l0 -99 -87 5 c-49 3 -89 6 -90 7 -1 1 1 38 4 84 l6 82 46 1
c25 1 57 5 71 9 50 16 50 16 50 -89z"/>
<path d="M838 956 l-3 -64 -67 48 c-57 42 -68 47 -79 34 -6 -8 -10 -16 -8 -18
2 -1 34 -24 72 -50 37 -26 67 -50 67 -53 0 -2 -37 -3 -82 -2 -72 3 -83 1 -86
-14 -3 -15 6 -17 79 -17 l83 0 -65 -45 c-69 -49 -79 -62 -56 -71 9 -3 42 14
79 41 l63 47 10 -93 c12 -105 23 -93 26 29 1 40 6 75 10 78 5 3 41 -17 81 -44
96 -64 101 -67 97 -54 -2 6 -33 33 -68 61 -58 46 -61 51 -37 52 14 1 31 3 36
4 6 1 36 3 67 4 90 2 50 20 -52 23 l-90 3 64 50 c36 28 69 53 75 57 6 4 8 10
4 13 -3 4 -44 -19 -90 -49 l-83 -56 -3 75 c-2 66 -5 75 -22 75 -16 0 -19 -9
-22 -64z"/>
</g>
</svg>
