<?xml version="1.0" standalone="no"?>
<!DOCTYPE svg PUBLIC "-//W3C//DTD SVG 20010904//EN"
 "http://www.w3.org/TR/2001/REC-SVG-20010904/DTD/svg10.dtd">
<svg version="1.0" xmlns="http://www.w3.org/2000/svg"
 width="225.000000pt" height="119.000000pt" viewBox="0 0 225.000000 119.000000"
 preserveAspectRatio="xMidYMid meet">
<metadata>
Created by potrace 1.16, written by Peter Selinger 2001-2019
</metadata>
<g transform="translate(0.000000,119.000000) scale(0.100000,-0.100000)"
fill="#000000" stroke="none">
<path d="M773 883 c-7 -2 -13 -15 -13 -27 l0 -23 -230 5 -230 5 0 -23 0 -23
230 6 230 7 0 -29 c0 -16 3 -37 7 -47 6 -16 -9 -16 -230 -10 l-237 8 0 -24 c0
-23 3 -24 53 -22 28 2 134 5 235 7 l182 4 0 -61 0 -61 -52 2 c-29 2 -135 4
-235 5 -181 3 -183 3 -183 -18 0 -21 3 -21 143 -18 78 2 184 6 235 9 l92 4 0
-48 0 -49 -235 5 -235 6 0 -23 0 -23 234 7 234 6 3 -44 4 -44 -237 6 -238 5 0
-23 0 -23 237 7 c229 6 239 7 322 37 131 46 195 48 316 10 55 -18 142 -41 195
-52 94 -19 95 -19 160 0 70 22 118 50 302 176 107 73 132 95 110 95 -4 0 -72
42 -150 94 -155 103 -225 140 -294 155 -62 14 -217 -1 -361 -35 -115 -27 -118
-27 -170 -11 -28 9 -79 35 -112 56 -63 42 -63 42 -82 34z m197 -132 c35 -8 59
-6 108 6 34 9 65 14 67 11 3 -2 27 -85 55 -183 51 -178 56 -192 64 -184 5 5
-32 184 -62 302 -11 42 -17 79 -13 81 3 2 22 6 43 10 43 8 32 32 108 -249 52
-189 56 -202 64 -194 6 6 -34 196 -71 341 -15 59 -24 110 -20 114 4 5 45 8 90
8 98 0 109 -4 348 -140 l169 -96 -147 -91 c-177 -109 -253 -148 -303 -154 -39
-6 -77 4 -284 69 -147 47 -191 47 -319 4 -40 -13 -73 -23 -73 -23 -1 1 2 65 6
142 5 77 6 177 3 222 l-6 82 64 -34 c35 -19 84 -38 109 -44z"/>
</g>
</svg>
