<?xml version="1.0" standalone="no"?>
<!DOCTYPE svg PUBLIC "-//W3C//DTD SVG 20010904//EN"
 "http://www.w3.org/TR/2001/REC-SVG-20010904/DTD/svg10.dtd">
<svg version="1.0" xmlns="http://www.w3.org/2000/svg"
 width="221.000000pt" height="236.000000pt" viewBox="0 0 221.000000 236.000000"
 preserveAspectRatio="xMidYMid meet">
<metadata>
Created by potrace 1.16, written by Peter Selinger 2001-2019
</metadata>
<g transform="translate(0.000000,236.000000) scale(0.100000,-0.100000)"
fill="#000000" stroke="none">
<path d="M1290 2044 c-67 -17 -203 -66 -210 -74 -3 -3 -143 -2 -313 3 -169 5
-314 6 -322 3 -11 -4 -15 -22 -15 -72 l0 -67 210 6 210 7 0 -51 0 -51 -207 3
-208 4 0 -68 0 -69 165 3 c91 2 235 2 320 0 150 -3 159 -4 270 -41 176 -59
176 -59 267 -10 42 22 91 54 109 70 l33 29 80 -35 c44 -19 93 -37 109 -40 l29
-6 6 123 c4 67 7 157 7 199 0 74 -1 78 -24 84 -27 7 -48 0 -148 -46 l-67 -31
-34 30 c-38 33 -180 113 -199 112 -7 0 -38 -7 -68 -15z m137 -51 c94 -49 144
-80 155 -97 5 -7 42 7 104 37 53 26 98 47 99 45 6 -6 17 -368 11 -368 -3 0
-48 21 -99 46 l-93 47 -26 -25 c-15 -13 -72 -48 -127 -76 l-100 -53 -119 46
c-66 25 -126 45 -134 45 -12 0 -14 20 -10 133 2 72 9 143 16 156 8 18 38 35
121 67 61 23 111 42 112 43 1 1 41 -20 90 -46z m-577 -85 l0 -41 -107 6 c-58
4 -146 7 -195 7 l-88 0 0 30 0 29 128 4 c70 1 157 4 195 5 l67 2 0 -42z m210
-113 l0 -145 -96 0 c-95 0 -96 0 -91 23 3 12 7 66 8 119 3 157 -3 148 95 148
l84 0 0 -145z m-210 -105 l0 -40 -179 0 c-99 0 -186 3 -195 6 -10 4 -16 18
-16 35 l0 28 158 4 c86 1 174 4 195 5 37 2 37 2 37 -38z"/>
<path d="M1245 995 c-83 -34 -202 -90 -213 -100 -5 -4 10 -35 17 -35 5 0 70
34 146 76 81 45 140 72 144 66 3 -6 53 -29 111 -52 58 -23 172 -73 253 -111
81 -38 150 -69 153 -69 47 0 -313 191 -491 259 -14 6 -50 -4 -120 -34z"/>
<path d="M776 1004 c-3 -9 -6 -28 -6 -42 l0 -27 -235 4 -236 3 3 -77 3 -77
155 1 c85 1 188 4 228 8 l72 6 0 -62 0 -62 -227 3 -228 3 -3 -79 -3 -79 230 7
c215 6 230 6 234 -11 4 -17 5 -17 6 0 1 21 19 23 27 2 4 -8 11 -15 17 -15 5 0
56 28 111 61 56 34 106 62 111 62 6 0 52 -24 103 -53 52 -29 133 -69 181 -90
l88 -38 109 54 c116 57 124 60 124 44 0 -31 65 -172 96 -208 31 -37 41 -42 77
-42 l42 0 -40 23 c-48 27 -91 94 -125 196 l-25 72 38 35 c21 20 36 39 33 41
-3 3 -36 -14 -74 -39 -38 -24 -117 -66 -175 -92 l-105 -49 -161 92 -160 91
-50 -20 c-28 -11 -87 -38 -132 -60 -52 -26 -85 -38 -91 -32 -6 6 -6 51 1 123
5 63 13 151 17 197 3 45 8 82 10 82 3 0 27 -11 54 -25 68 -34 152 -67 157 -61
9 9 -217 146 -241 146 -2 0 -7 -7 -10 -16z m-10 -116 c-3 -13 -6 -33 -6 -46
l0 -23 -212 7 c-117 4 -215 8 -216 10 -2 1 -1 16 3 33 l6 30 107 4 c325 9 325
9 318 -15z m-6 -276 l0 -48 -212 4 c-117 2 -214 6 -216 7 -2 2 0 19 3 39 l7
36 177 3 c97 1 191 4 209 5 32 2 32 2 32 -46z"/>
<path d="M1865 750 c-6 -10 12 -415 20 -437 13 -39 20 3 23 134 5 187 -5 313
-23 313 -8 0 -17 -4 -20 -10z"/>
</g>
</svg>
