<?xml version="1.0" standalone="no"?>
<!DOCTYPE svg PUBLIC "-//W3C//DTD SVG 20010904//EN"
 "http://www.w3.org/TR/2001/REC-SVG-20010904/DTD/svg10.dtd">
<svg version="1.0" xmlns="http://www.w3.org/2000/svg"
 width="140.000000pt" height="130.000000pt" viewBox="0 0 140.000000 130.000000"
 preserveAspectRatio="xMidYMid meet">
<metadata>
Created by potrace 1.16, written by Peter Selinger 2001-2019
</metadata>
<g transform="translate(0.000000,130.000000) scale(0.100000,-0.100000)"
fill="#000000" stroke="none">
<path d="M450 870 l0 -130 -51 0 -51 0 7 57 c4 32 16 85 26 118 24 76 24 75
-6 75 -21 0 -27 -7 -39 -52 -29 -103 -39 -191 -33 -303 5 -100 40 -321 52
-333 11 -11 12 6 4 88 -4 47 -10 131 -12 187 -5 113 -6 113 64 113 l39 0 1
-142 c0 -79 4 -163 8 -188 l7 -45 8 55 c3 30 10 113 14 185 l7 130 83 3 c80 3
82 2 82 -20 0 -13 7 -50 15 -82 15 -58 90 -265 100 -274 15 -15 11 13 -15 101
-29 95 -65 266 -58 272 2 2 47 5 102 7 l98 3 -5 -60 c-4 -33 -22 -118 -42
-189 -19 -71 -33 -131 -31 -133 13 -13 110 259 121 340 l7 47 69 0 c37 0 71 5
74 10 4 6 -11 10 -38 10 -25 0 -58 3 -75 6 -27 5 -30 11 -36 55 -4 27 -26 86
-49 132 l-42 82 -47 3 c-47 3 -48 2 -78 -44 -37 -59 -70 -145 -70 -183 0 -28
-2 -29 -57 -33 -112 -6 -105 -15 -101 133 l3 129 -27 0 -28 0 0 -130z m411 15
c16 -33 33 -82 38 -108 l8 -47 -103 0 c-82 0 -104 3 -104 14 0 32 42 144 71
190 30 48 32 49 46 30 9 -10 28 -46 44 -79z"/>
</g>
</svg>
