<?xml version="1.0" standalone="no"?>
<!DOCTYPE svg PUBLIC "-//W3C//DTD SVG 20010904//EN"
 "http://www.w3.org/TR/2001/REC-SVG-20010904/DTD/svg10.dtd">
<svg version="1.0" xmlns="http://www.w3.org/2000/svg"
 width="169.000000pt" height="114.000000pt" viewBox="0 0 169.000000 114.000000"
 preserveAspectRatio="xMidYMid meet">
<metadata>
Created by potrace 1.16, written by Peter Selinger 2001-2019
</metadata>
<g transform="translate(0.000000,114.000000) scale(0.100000,-0.100000)"
fill="#000000" stroke="none">
<path d="M510 829 c0 -6 -28 -43 -63 -83 -130 -148 -169 -202 -138 -193 5 1
45 -45 89 -103 83 -109 118 -147 128 -138 3 3 -36 67 -86 142 l-92 137 99 102
c54 56 103 103 108 104 6 1 59 -61 119 -137 60 -77 113 -140 118 -140 5 0 6 6
2 13 -13 22 -117 171 -152 217 l-35 45 269 7 c217 6 271 5 282 -6 11 -11 -14
-33 -145 -132 -307 -230 -426 -314 -450 -314 -16 0 -23 -6 -23 -20 0 -11 6
-21 13 -21 56 -5 658 7 661 13 6 14 32 50 99 137 60 78 77 108 73 124 -3 12
-48 72 -100 133 l-95 111 -152 6 c-246 11 -529 9 -529 -4z m760 -151 l86 -92
-70 -101 c-39 -55 -75 -101 -81 -102 -5 0 -52 53 -104 119 -91 117 -93 121
-75 139 27 26 148 128 154 129 2 0 43 -41 90 -92z m-243 -131 c22 -29 69 -83
102 -121 34 -38 61 -73 61 -77 0 -10 -168 -10 -390 0 l-145 6 66 47 c36 25
107 80 159 122 51 42 96 76 99 76 3 -1 25 -24 48 -53z"/>
</g>
</svg>
