<?xml version="1.0" standalone="no"?>
<!DOCTYPE svg PUBLIC "-//W3C//DTD SVG 20010904//EN"
 "http://www.w3.org/TR/2001/REC-SVG-20010904/DTD/svg10.dtd">
<svg version="1.0" xmlns="http://www.w3.org/2000/svg"
 width="260.000000pt" height="156.000000pt" viewBox="0 0 260.000000 156.000000"
 preserveAspectRatio="xMidYMid meet">
<metadata>
Created by potrace 1.16, written by Peter Selinger 2001-2019
</metadata>
<g transform="translate(0.000000,156.000000) scale(0.100000,-0.100000)"
fill="#000000" stroke="none">
<path d="M2039 1218 c-42 -57 -89 -160 -129 -283 -18 -55 -39 -105 -46 -111
-36 -29 -1 -154 97 -355 43 -87 81 -159 84 -159 16 0 205 307 229 370 30 82
31 88 13 109 -7 9 -23 70 -36 136 -36 191 -89 325 -129 323 -9 0 -25 3 -34 6
-12 6 -25 -4 -49 -36z m100 -60 c17 -35 51 -131 75 -214 52 -178 52 -184 -22
-337 l-46 -99 -78 4 c-64 3 -78 0 -78 -12 -1 -48 -75 164 -90 257 -10 60 -9
64 31 155 40 92 59 124 59 100 0 -7 16 -12 44 -12 60 0 136 11 136 20 0 4 -40
11 -90 14 -49 4 -90 11 -90 15 0 17 99 170 111 171 3 0 20 -28 38 -62z m-50
-749 c-23 -41 -43 -75 -44 -77 -2 -3 -55 135 -55 143 0 4 130 12 138 9 1 -1
-16 -34 -39 -75z"/>
<path d="M1982 923 c2 -14 14 -16 73 -14 39 1 81 5 95 8 22 6 23 7 5 14 -11 4
-55 8 -98 8 -68 1 -78 -1 -75 -16z"/>
<path d="M1984 849 c-14 -24 15 -31 100 -24 47 4 86 11 86 15 0 18 -174 27
-186 9z"/>
<path d="M1985 760 c-15 -25 9 -31 88 -24 92 7 114 15 77 25 -39 11 -158 10
-165 -1z"/>
<path d="M1980 665 c0 -8 6 -15 13 -16 39 -2 145 3 162 8 l20 6 -20 8 c-11 4
-55 8 -97 8 -63 1 -78 -2 -78 -14z"/>
<path d="M1984 589 c-15 -24 15 -31 100 -24 47 4 86 10 86 15 0 18 -174 27
-186 9z"/>
<path d="M1164 1216 c-3 -8 -11 -12 -19 -10 -17 7 -172 -151 -246 -249 -32
-43 -65 -98 -74 -122 l-17 -43 -191 5 c-106 2 -207 6 -224 9 l-33 5 0 84 0 85
111 0 c120 0 395 18 419 27 31 12 -59 23 -235 28 -99 3 -210 7 -247 10 -62 3
-68 2 -68 -16 0 -13 -7 -19 -21 -19 -22 0 -22 -2 -15 -117 7 -128 34 -351 43
-366 6 -10 255 -4 428 9 l81 7 49 -67 c48 -66 170 -176 195 -176 7 0 -21 33
-62 72 -71 69 -127 141 -132 170 -1 7 -12 28 -24 47 -11 19 -24 53 -27 75 -3
23 -8 53 -11 69 -4 19 -2 27 9 27 8 0 18 -7 21 -16 6 -15 40 -16 374 -9 202 4
378 9 392 10 14 1 39 4 55 5 85 8 -137 18 -426 19 -179 0 -347 4 -373 7 -41 6
-46 9 -40 28 16 55 80 140 189 253 l121 123 99 -72 c55 -39 191 -133 303 -209
l203 -138 -178 -119 c-281 -188 -448 -308 -448 -323 0 -34 44 -11 206 107 220
161 438 327 439 335 0 9 -544 424 -608 463 -7 4 -14 1 -18 -8z m-352 -533 c9
-43 20 -87 24 -97 7 -18 4 -19 -37 -13 -25 3 -134 9 -242 13 l-197 7 0 74 0
73 133 1 c108 1 239 9 292 17 6 1 18 -33 27 -75z"/>
</g>
</svg>
