<?xml version="1.0" standalone="no"?>
<!DOCTYPE svg PUBLIC "-//W3C//DTD SVG 20010904//EN"
 "http://www.w3.org/TR/2001/REC-SVG-20010904/DTD/svg10.dtd">
<svg version="1.0" xmlns="http://www.w3.org/2000/svg"
 width="165.000000pt" height="114.000000pt" viewBox="0 0 165.000000 114.000000"
 preserveAspectRatio="xMidYMid meet">
<metadata>
Created by potrace 1.16, written by Peter Selinger 2001-2019
</metadata>
<g transform="translate(0.000000,114.000000) scale(0.100000,-0.100000)"
fill="#000000" stroke="none">
<path d="M304 826 c-9 -23 1 -499 10 -514 5 -9 144 -12 524 -11 284 0 512 3
506 5 -9 4 -10 74 -6 259 l5 255 -47 0 c-26 0 -46 5 -46 11 0 5 -6 7 -12 3
-14 -9 -670 -7 -825 3 -91 5 -103 4 -109 -11z m809 -60 l26 -33 -47 -47 c-43
-41 -53 -46 -93 -46 -43 0 -46 2 -106 73 l-61 72 122 5 c66 3 124 7 127 8 4 1
18 -13 32 -32z m72 14 c-14 -15 -21 -17 -32 -9 -22 19 -15 29 19 29 30 0 31 0
13 -20z m115 -64 c0 -78 -1 -84 -19 -79 -19 5 -101 94 -101 109 0 24 46 54 82
54 l38 0 0 -84z m-750 4 l0 -70 -30 0 -30 0 0 64 c0 63 1 65 28 69 15 2 28 5
30 6 1 0 2 -30 2 -69z m81 60 c5 0 9 -29 9 -65 0 -63 -1 -65 -25 -65 -24 0
-25 2 -25 71 0 61 2 70 16 65 9 -3 20 -6 25 -6z m212 -60 c31 -38 57 -70 57
-72 0 -2 -49 -2 -110 0 l-110 3 0 70 0 69 53 0 52 0 58 -70z m-473 18 c0 -24
3 -53 6 -65 5 -19 2 -23 -15 -23 -19 0 -21 5 -21 65 0 51 3 65 15 65 11 0 15
-11 15 -42z m80 -23 c0 -58 -2 -65 -20 -65 -18 0 -20 7 -20 65 0 58 2 65 20
65 18 0 20 -7 20 -65z m739 -35 l32 -40 -73 0 -72 0 39 40 c21 22 40 40 40 40
1 0 16 -18 34 -40z m75 -79 c22 -25 21 -28 -32 -85 -36 -39 -48 -46 -81 -46
-33 0 -45 7 -86 51 -45 48 -46 51 -30 69 17 19 49 25 156 28 44 2 60 -2 73
-17z m36 9 c0 -5 -2 -10 -4 -10 -3 0 -8 5 -11 10 -3 6 -1 10 4 10 6 0 11 -4
11 -10z m-848 -12 c3 -7 6 -37 7 -65 2 -51 1 -53 -23 -53 -25 0 -26 2 -26 59
0 55 6 67 31 70 4 1 9 -5 11 -11z m102 -30 c3 -17 6 -43 6 -59 0 -27 -3 -29
-37 -29 l-38 0 3 59 c3 46 8 61 20 64 28 6 39 -3 46 -35z m86 0 c0 -24 3 -53
6 -65 6 -21 3 -23 -28 -23 l-35 0 4 53 c6 70 9 77 33 77 17 0 20 -6 20 -42z
m323 24 c16 -17 14 -21 -33 -67 -39 -38 -56 -48 -82 -48 -188 2 -178 1 -178
31 0 15 3 44 6 65 l7 37 132 0 c114 0 134 -2 148 -18z m-583 -52 c0 -57 -1
-60 -24 -60 -18 0 -23 5 -21 18 2 9 4 36 4 60 1 35 4 42 21 42 18 0 20 -7 20
-60z m659 -25 c17 -20 31 -38 31 -40 0 -3 -32 -5 -71 -5 l-71 0 32 40 c17 22
35 40 40 40 4 0 22 -16 39 -35z m263 -47 c-4 -4 -20 -4 -35 0 l-27 7 27 39 28
38 8 -38 c4 -21 4 -41 -1 -46z m-147 -28 c3 -5 1 -10 -4 -10 -6 0 -11 5 -11
10 0 6 2 10 4 10 3 0 8 -4 11 -10z m155 -60 c0 -66 -1 -70 -22 -70 -27 0 -33
4 -76 52 -33 35 -34 36 -17 62 15 22 25 26 66 26 l49 0 0 -70z m-660 -1 c0
-32 -4 -49 -12 -50 -7 -1 -23 -3 -35 -4 -21 -2 -23 2 -23 51 0 50 1 53 28 56
39 5 42 2 42 -53z m166 17 c-20 -24 -34 -51 -31 -58 5 -11 -7 -14 -52 -13
l-58 2 -3 51 -3 51 43 4 c24 2 65 4 92 5 l48 2 -36 -44z m307 26 c16 -17 15
-20 -13 -47 -17 -16 -28 -35 -26 -42 4 -10 -24 -13 -134 -13 -77 0 -140 3
-140 6 0 4 19 31 43 60 l42 53 106 1 c90 0 108 -3 122 -18z m-743 -42 c0 -47
-2 -50 -25 -50 -23 0 -25 3 -25 50 0 47 2 50 25 50 23 0 25 -3 25 -50z m80 0
c0 -49 -1 -50 -30 -50 -29 0 -30 1 -30 50 0 49 1 50 30 50 29 0 30 -1 30 -50z
m100 -3 l0 -53 -40 4 -40 4 0 49 0 49 40 0 40 0 0 -53z m645 -35 c22 -26 25
-34 12 -29 -10 4 -39 7 -65 7 l-46 0 29 30 c16 17 31 30 34 29 3 0 20 -17 36
-37z"/>
</g>
</svg>
