<?xml version="1.0" standalone="no"?>
<!DOCTYPE svg PUBLIC "-//W3C//DTD SVG 20010904//EN"
 "http://www.w3.org/TR/2001/REC-SVG-20010904/DTD/svg10.dtd">
<svg version="1.0" xmlns="http://www.w3.org/2000/svg"
 width="163.000000pt" height="237.000000pt" viewBox="0 0 163.000000 237.000000"
 preserveAspectRatio="xMidYMid meet">
<metadata>
Created by potrace 1.16, written by Peter Selinger 2001-2019
</metadata>
<g transform="translate(0.000000,237.000000) scale(0.100000,-0.100000)"
fill="#000000" stroke="none">
<path d="M415 1978 c-44 -50 -88 -98 -99 -108 -17 -17 -18 -34 -15 -220 3
-165 7 -202 19 -210 8 -5 11 -10 7 -10 -13 0 12 -31 91 -115 41 -42 76 -75 78
-72 3 3 -31 47 -75 98 -43 52 -74 96 -68 98 6 2 53 -39 103 -92 50 -54 94 -97
98 -97 10 0 -76 108 -114 145 -36 34 -38 45 -7 45 16 0 49 -29 112 -99 50 -55
91 -96 93 -90 2 5 -30 48 -72 96 -69 82 -73 88 -51 91 23 3 83 -52 178 -163
14 -16 28 -27 32 -24 3 4 -22 39 -57 79 -104 119 -103 110 -12 111 44 1 126 3
184 5 l105 4 7 82 c3 46 6 129 7 186 l1 102 93 0 c119 0 258 11 252 20 -2 4
-105 10 -227 14 -219 6 -481 17 -485 20 -1 1 32 41 73 90 41 49 73 91 70 94
-5 5 -116 -110 -158 -164 -13 -16 -30 -24 -49 -24 -30 0 -30 0 47 90 42 50 75
93 72 96 -3 3 -46 -38 -95 -91 -69 -74 -95 -96 -112 -93 -20 3 -15 12 49 86
68 81 101 142 38 72 -102 -114 -149 -160 -164 -160 -10 0 13 34 65 94 45 52
81 97 81 100 0 17 -22 -3 -95 -86z m505 -148 c0 -5 -5 -10 -10 -10 -6 0 -44
-23 -85 -50 l-75 -51 0 51 c0 42 -3 50 -19 50 -16 0 -18 -8 -17 -61 1 -55 -1
-63 -26 -80 -14 -10 -29 -19 -33 -19 -5 0 -5 32 -1 70 6 66 5 70 -14 70 -18 0
-20 -7 -20 -66 0 -58 -2 -65 -15 -54 -10 9 -15 32 -15 76 0 57 -2 64 -20 64
-17 0 -20 -7 -20 -50 0 -54 -1 -55 -31 -39 -15 7 -19 19 -17 42 2 23 -1 32
-14 35 -13 3 -18 -3 -18 -22 l0 -25 -35 21 c-61 35 -41 43 131 48 295 10 354
10 354 0z m5 -359 c-2 -2 -109 0 -237 5 l-232 9 49 32 c47 30 50 31 53 13 5
-31 22 -24 22 9 0 35 27 62 41 40 5 -8 9 -32 9 -54 0 -30 3 -36 10 -25 5 8 10
38 10 67 l0 52 35 -20 c29 -17 35 -27 35 -55 0 -19 5 -34 10 -34 6 0 10 13 10
29 l0 30 81 -46 c139 -78 97 -33 -49 52 -32 19 -33 21 -26 70 3 27 7 50 7 51
1 0 38 26 82 58 l80 58 7 -168 c3 -93 5 -171 3 -173z m-559 308 c4 -7 9 -76
11 -155 l5 -144 -29 0 -28 0 7 117 c3 65 7 135 7 156 1 36 13 48 27 26z m97
-56 c3 -5 6 -47 8 -96 l3 -87 -37 -26 -37 -25 0 136 0 136 29 -16 c17 -8 32
-18 34 -22z m87 -58 c0 -7 3 -26 6 -43 5 -27 2 -32 -25 -46 l-31 -17 0 71 0
70 25 -12 c14 -6 25 -17 25 -23z m170 -30 c0 -23 -2 -24 -21 -15 -16 9 -18 14
-8 26 17 21 29 17 29 -11z m-111 6 c11 -7 9 -11 -8 -20 -18 -10 -21 -9 -21 9
0 22 7 25 29 11z"/>
<path d="M980 1755 c0 -13 23 -15 153 -14 169 0 231 12 128 22 -35 4 -113 7
-172 7 -90 0 -109 -3 -109 -15z"/>
<path d="M980 1665 c0 -13 20 -15 123 -15 67 0 147 3 177 7 49 6 52 8 25 14
-16 4 -96 7 -177 8 -125 1 -148 -1 -148 -14z"/>
<path d="M970 1583 c0 -15 15 -15 163 -10 89 4 165 7 170 7 4 0 7 5 7 10 0 6
-63 10 -170 10 -151 0 -170 -2 -170 -17z"/>
<path d="M967 1493 c-20 -19 7 -23 151 -22 179 1 240 12 118 22 -102 9 -261 9
-269 0z"/>
<path d="M311 931 c-12 -8 -13 -42 -7 -207 7 -194 14 -231 41 -220 7 2 12 -1
11 -8 -1 -14 164 -199 172 -192 5 6 -92 128 -132 165 -14 14 -26 28 -26 32 0
18 43 -7 76 -45 84 -93 136 -147 141 -142 3 3 -29 45 -71 95 -42 49 -76 92
-76 95 0 3 14 6 31 6 16 0 28 -3 26 -7 -6 -10 169 -200 177 -192 3 3 -30 46
-74 97 -44 50 -80 94 -80 97 0 3 11 5 25 5 17 0 38 -15 67 -47 155 -172 208
-207 68 -45 l-80 92 127 2 c71 1 149 3 175 3 57 0 54 -9 64 218 l7 157 146 1
c80 1 157 5 171 9 14 4 23 9 20 9 -3 1 -156 8 -340 16 -384 16 -639 19 -659 6z
m619 -31 c0 -5 -5 -10 -10 -10 -6 0 -67 -38 -137 -84 -140 -94 -122 -92 -220
-30 -48 30 -53 37 -53 69 0 24 -5 35 -15 35 -9 0 -15 -9 -15 -25 l0 -25 -35
17 c-21 10 -35 24 -35 35 0 16 16 18 213 21 116 1 233 3 260 5 26 1 47 -2 47
-8z m1 -193 l3 -168 -234 1 c-129 0 -236 2 -238 4 -4 5 185 136 197 136 5 0
61 -29 126 -66 64 -36 121 -64 127 -62 6 2 -44 37 -111 77 -67 41 -120 75
-119 76 100 74 242 175 244 173 1 -2 4 -79 5 -171z m-565 145 c16 -10 24 -300
10 -305 -6 -2 -19 -2 -30 1 -16 4 -17 11 -12 50 3 25 6 94 6 153 0 106 3 117
26 101z m85 -49 c29 -17 29 -18 29 -108 l0 -90 -36 -23 c-20 -13 -37 -22 -39
-20 -4 5 7 258 12 258 3 0 18 -8 34 -17z m169 -103 c0 -5 -113 -81 -116 -77 0
1 1 34 4 73 l4 72 54 -31 c30 -17 54 -34 54 -37z"/>
<path d="M985 830 c-3 -5 -4 -14 -1 -18 6 -11 328 -3 339 7 4 5 -50 11 -120
14 -174 9 -211 9 -218 -3z"/>
<path d="M990 735 c0 -13 25 -15 164 -15 91 0 167 4 170 9 6 10 -123 21 -246
21 -72 0 -88 -3 -88 -15z"/>
<path d="M970 655 c0 -13 22 -15 138 -14 75 0 155 3 177 8 l40 7 -55 7 c-30 4
-110 7 -177 7 -103 0 -123 -2 -123 -15z"/>
<path d="M975 561 c-4 -7 -3 -17 2 -22 11 -11 333 1 333 13 0 4 -24 8 -52 8
-29 0 -103 3 -164 6 -83 5 -113 4 -119 -5z"/>
</g>
</svg>
