<?xml version="1.0" standalone="no"?>
<!DOCTYPE svg PUBLIC "-//W3C//DTD SVG 20010904//EN"
 "http://www.w3.org/TR/2001/REC-SVG-20010904/DTD/svg10.dtd">
<svg version="1.0" xmlns="http://www.w3.org/2000/svg"
 width="168.000000pt" height="117.000000pt" viewBox="0 0 168.000000 117.000000"
 preserveAspectRatio="xMidYMid meet">
<metadata>
Created by potrace 1.16, written by Peter Selinger 2001-2019
</metadata>
<g transform="translate(0.000000,117.000000) scale(0.100000,-0.100000)"
fill="#000000" stroke="none">
<path d="M443 828 c-15 -24 -46 -82 -70 -130 -24 -48 -51 -91 -60 -96 -19 -11
-8 -32 104 -205 53 -82 66 -96 80 -88 10 5 90 25 178 46 88 20 272 63 408 96
136 33 256 58 266 54 15 -4 19 1 25 32 3 21 6 57 6 79 l0 42 -152 37 c-188 45
-747 175 -753 175 -3 0 -17 -19 -32 -42z m195 -42 c63 -13 117 -27 120 -31 4
-4 -5 -4 -20 0 -23 6 -30 2 -52 -32 -13 -21 -28 -50 -31 -65 -6 -25 -12 -28
-49 -28 l-42 0 4 66 c4 60 3 66 -14 62 -16 -3 -20 -14 -22 -66 -3 -58 -4 -62
-27 -62 -29 0 -31 16 -10 75 8 22 15 41 15 43 0 1 -9 2 -20 2 -40 0 -56 -140
-31 -272 7 -38 17 -68 21 -68 4 0 5 43 2 95 l-5 95 27 0 c26 0 26 0 27 -82 1
-46 1 -86 0 -90 0 -5 3 -8 8 -8 10 0 21 73 21 136 l0 44 45 0 c29 0 45 -4 45
-12 0 -7 15 -50 34 -95 18 -46 32 -83 29 -83 -2 0 -56 -11 -120 -25 -64 -14
-120 -22 -124 -18 -13 14 -119 211 -119 221 0 6 30 60 66 121 57 94 70 110 88
106 11 -3 72 -16 134 -29z m450 -90 c134 -24 246 -47 250 -50 3 -3 7 -30 10
-60 l4 -54 -93 -16 c-209 -38 -465 -87 -481 -92 -14 -4 -12 7 12 63 16 37 30
77 30 89 0 18 9 23 53 31 l52 10 -47 2 c-46 1 -48 2 -58 40 -5 21 -19 50 -30
64 -27 34 -26 36 18 26 20 -4 147 -28 280 -53z m-303 -34 c3 -13 4 -26 2 -29
-3 -2 -28 -3 -56 -1 l-51 3 26 55 26 55 23 -29 c13 -17 27 -41 30 -54z m5 -81
c0 -27 -39 -149 -49 -156 -9 -5 -41 82 -55 148 -6 27 -6 27 49 27 47 0 55 -3
55 -19z"/>
</g>
</svg>
