<?xml version="1.0" standalone="no"?>
<!DOCTYPE svg PUBLIC "-//W3C//DTD SVG 20010904//EN"
 "http://www.w3.org/TR/2001/REC-SVG-20010904/DTD/svg10.dtd">
<svg version="1.0" xmlns="http://www.w3.org/2000/svg"
 width="190.000000pt" height="118.000000pt" viewBox="0 0 190.000000 118.000000"
 preserveAspectRatio="xMidYMid meet">
<metadata>
Created by potrace 1.16, written by Peter Selinger 2001-2019
</metadata>
<g transform="translate(0.000000,118.000000) scale(0.100000,-0.100000)"
fill="#000000" stroke="none">
<path d="M939 866 c-8 -7 -70 -37 -139 -66 -69 -29 -169 -75 -223 -103 l-98
-50 -75 53 c-71 49 -76 51 -89 33 -8 -10 -15 -22 -15 -26 0 -4 27 -24 60 -45
32 -20 59 -40 60 -43 0 -3 -27 -17 -60 -32 -63 -27 -68 -33 -47 -61 12 -17 18
-16 88 19 l76 38 89 -60 c49 -33 141 -90 204 -127 63 -37 120 -74 126 -82 10
-13 47 4 239 106 l226 121 115 -71 c163 -100 168 -90 12 26 l-89 67 28 17 c15
10 62 37 103 60 41 24 70 45 64 47 -6 2 -59 -19 -118 -47 -60 -27 -113 -47
-119 -43 -6 4 -95 66 -197 138 -225 160 -204 147 -221 131z m205 -181 c91 -60
166 -112 166 -115 0 -3 -96 -53 -213 -111 l-213 -107 -24 20 c-14 11 -94 70
-178 130 l-153 110 198 108 c196 107 198 108 224 92 15 -10 101 -66 193 -127z"/>
</g>
</svg>
