<?xml version="1.0" standalone="no"?>
<!DOCTYPE svg PUBLIC "-//W3C//DTD SVG 20010904//EN"
 "http://www.w3.org/TR/2001/REC-SVG-20010904/DTD/svg10.dtd">
<svg version="1.0" xmlns="http://www.w3.org/2000/svg"
 width="123.000000pt" height="134.000000pt" viewBox="0 0 123.000000 134.000000"
 preserveAspectRatio="xMidYMid meet">
<metadata>
Created by potrace 1.16, written by Peter Selinger 2001-2019
</metadata>
<g transform="translate(0.000000,134.000000) scale(0.100000,-0.100000)"
fill="#000000" stroke="none">
<path d="M463 788 c9 -339 18 -478 30 -478 7 0 8 119 4 355 -5 295 -4 355 7
355 8 0 45 -12 82 -26 233 -87 351 -204 329 -323 -22 -118 -156 -248 -340
-332 -93 -42 -73 -49 26 -9 133 54 255 144 313 230 12 19 16 49 16 134 l0 110
-59 57 c-86 85 -289 179 -384 179 l-30 0 6 -252z"/>
<path d="M320 1000 c0 -5 16 -10 35 -10 19 0 35 5 35 10 0 6 -16 10 -35 10
-19 0 -35 -4 -35 -10z"/>
<path d="M310 936 c0 -18 54 -23 65 -6 3 6 0 10 -7 10 -7 0 -23 3 -35 6 -17 5
-23 2 -23 -10z"/>
<path d="M550 940 c0 -5 16 -10 35 -10 19 0 35 5 35 10 0 6 -16 10 -35 10 -19
0 -35 -4 -35 -10z"/>
<path d="M540 870 c0 -5 16 -10 35 -10 19 0 35 5 35 10 0 6 -16 10 -35 10 -19
0 -35 -4 -35 -10z"/>
<path d="M310 840 c0 -5 16 -10 36 -10 21 0 33 4 29 10 -3 6 -19 10 -36 10
-16 0 -29 -4 -29 -10z"/>
<path d="M540 781 c0 -6 4 -12 10 -16 13 -8 61 5 54 16 -7 12 -64 12 -64 0z"/>
<path d="M310 761 c0 -6 5 -13 11 -16 15 -10 61 4 54 15 -8 13 -65 13 -65 1z"/>
<path d="M550 695 c0 -10 10 -15 29 -15 37 0 49 16 18 24 -35 9 -47 7 -47 -9z"/>
<path d="M300 670 c0 -5 16 -10 36 -10 21 0 33 4 29 10 -3 6 -19 10 -36 10
-16 0 -29 -4 -29 -10z"/>
<path d="M540 605 c0 -10 10 -15 29 -15 37 0 49 16 18 24 -35 9 -47 7 -47 -9z"/>
<path d="M310 585 c0 -10 10 -15 29 -15 37 0 49 16 18 24 -35 9 -47 7 -47 -9z"/>
<path d="M545 532 c-13 -14 -2 -22 30 -22 19 0 35 4 35 9 0 10 -57 21 -65 13z"/>
<path d="M310 513 c0 -8 13 -13 35 -13 19 0 35 4 35 9 0 5 -16 11 -35 13 -24
3 -35 0 -35 -9z"/>
<path d="M300 436 c0 -18 54 -23 65 -6 3 6 0 10 -7 10 -7 0 -23 3 -35 6 -17 5
-23 2 -23 -10z"/>
<path d="M307 364 c-11 -12 3 -24 28 -24 13 0 26 4 29 9 10 15 -43 29 -57 15z"/>
</g>
</svg>
