<?xml version="1.0" standalone="no"?>
<!DOCTYPE svg PUBLIC "-//W3C//DTD SVG 20010904//EN"
 "http://www.w3.org/TR/2001/REC-SVG-20010904/DTD/svg10.dtd">
<svg version="1.0" xmlns="http://www.w3.org/2000/svg"
 width="202.000000pt" height="161.000000pt" viewBox="0 0 202.000000 161.000000"
 preserveAspectRatio="xMidYMid meet">
<metadata>
Created by potrace 1.16, written by Peter Selinger 2001-2019
</metadata>
<g transform="translate(0.000000,161.000000) scale(0.100000,-0.100000)"
fill="#000000" stroke="none">
<path d="M620 1297 c-22 -20 -148 -97 -158 -97 -5 0 -33 19 -61 41 -46 36 -54
40 -67 27 -12 -12 -7 -19 42 -55 l56 -41 -66 -39 c-70 -41 -70 -41 -56 -63 7
-12 21 -5 79 34 l70 49 97 -67 c54 -36 101 -62 104 -56 13 21 176 111 193 106
13 -3 17 0 13 9 -3 9 14 18 59 30 94 26 152 15 255 -45 46 -27 107 -55 136
-61 75 -17 196 -7 282 24 68 24 128 55 120 62 -1 2 -43 -11 -93 -28 -76 -25
-106 -30 -190 -31 -114 0 -149 10 -256 75 -64 38 -79 43 -147 47 -59 3 -92 -1
-142 -17 l-65 -21 -28 21 c-58 43 -155 109 -159 109 -2 0 -10 -6 -18 -13z m98
-83 l91 -55 -81 -42 c-44 -22 -82 -47 -85 -53 -3 -8 -32 9 -80 48 -41 33 -71
64 -66 68 31 28 116 90 123 90 4 0 49 -25 98 -56z"/>
<path d="M626 571 c-3 -5 -42 -32 -86 -60 l-80 -50 -56 45 c-49 40 -58 44 -71
31 -13 -12 -8 -19 36 -51 28 -21 51 -41 51 -44 0 -4 -27 -24 -60 -45 -33 -20
-60 -41 -60 -46 0 -26 28 -19 91 23 l69 46 88 -60 c48 -33 92 -60 97 -60 6 0
47 22 92 49 l82 49 408 6 c224 4 428 10 453 14 l45 8 -56 7 c-32 4 -236 10
-454 13 l-397 6 -89 64 c-95 68 -95 69 -103 55z m92 -88 l94 -57 -79 -39 c-43
-21 -83 -45 -88 -52 -8 -10 -27 0 -82 44 -40 31 -72 58 -72 61 0 5 121 99 128
100 3 0 47 -26 99 -57z"/>
</g>
</svg>
