<?xml version="1.0" standalone="no"?>
<!DOCTYPE svg PUBLIC "-//W3C//DTD SVG 20010904//EN"
 "http://www.w3.org/TR/2001/REC-SVG-20010904/DTD/svg10.dtd">
<svg version="1.0" xmlns="http://www.w3.org/2000/svg"
 width="193.000000pt" height="140.000000pt" viewBox="0 0 193.000000 140.000000"
 preserveAspectRatio="xMidYMid meet">
<metadata>
Created by potrace 1.16, written by Peter Selinger 2001-2019
</metadata>
<g transform="translate(0.000000,140.000000) scale(0.100000,-0.100000)"
fill="#000000" stroke="none">
<path d="M553 1089 c-9 -9 2 -26 50 -70 l62 -58 -182 -1 c-176 0 -183 -1 -183
-20 0 -19 7 -20 183 -20 l182 0 -63 -56 c-51 -46 -61 -59 -51 -71 10 -12 24
-3 83 56 l71 70 169 7 170 7 -67 -63 c-37 -34 -67 -66 -67 -71 0 -23 31 -3 94
60 l69 69 136 2 c75 1 183 5 241 9 l105 7 -190 9 c-104 4 -183 10 -175 11 8 2
83 13 166 25 l151 22 46 -38 45 -38 -81 -64 c-45 -35 -82 -69 -82 -75 0 -28
28 -13 98 52 41 38 80 70 86 70 22 0 10 17 -72 98 -65 64 -85 80 -95 70 -9 -9
-7 -17 9 -34 11 -12 17 -24 12 -27 -4 -3 -99 -15 -211 -28 l-203 -23 -64 64
c-53 52 -67 62 -77 51 -11 -10 -2 -23 44 -65 l58 -53 -98 -6 c-53 -4 -124 -7
-157 -7 l-60 0 -70 70 c-54 54 -73 68 -82 59z"/>
<path d="M546 611 c-3 -5 22 -36 57 -70 l62 -61 -182 0 c-178 0 -183 -1 -183
-21 0 -20 4 -20 184 -17 l185 3 -67 -62 c-58 -53 -64 -62 -48 -69 15 -6 33 7
85 62 l66 69 168 3 168 4 -63 -58 c-35 -33 -65 -60 -67 -62 -3 -1 1 -8 7 -14
10 -10 28 4 85 60 39 39 74 71 77 71 3 -1 111 2 240 7 259 9 256 21 -5 24
l-150 2 172 25 171 26 41 -34 c22 -19 41 -37 41 -41 0 -3 -36 -35 -80 -69 -75
-59 -89 -78 -64 -86 5 -2 44 28 86 67 42 38 81 70 87 70 22 0 9 17 -72 98 -70
70 -86 81 -96 69 -9 -12 -7 -19 14 -35 33 -26 38 -25 -208 -53 l-197 -23 -65
64 c-53 52 -67 62 -77 51 -11 -10 -2 -23 45 -65 l59 -53 -158 -7 -157 -7 -71
70 c-73 73 -81 78 -90 62z"/>
</g>
</svg>
