<?xml version="1.0" standalone="no"?>
<!DOCTYPE svg PUBLIC "-//W3C//DTD SVG 20010904//EN"
 "http://www.w3.org/TR/2001/REC-SVG-20010904/DTD/svg10.dtd">
<svg version="1.0" xmlns="http://www.w3.org/2000/svg"
 width="227.000000pt" height="147.000000pt" viewBox="0 0 227.000000 147.000000"
 preserveAspectRatio="xMidYMid meet">
<metadata>
Created by potrace 1.16, written by Peter Selinger 2001-2019
</metadata>
<g transform="translate(0.000000,147.000000) scale(0.100000,-0.100000)"
fill="#000000" stroke="none">
<path d="M1652 1057 l-112 -112 -58 65 c-127 144 -115 134 -135 112 -17 -19
-15 -22 68 -113 46 -52 85 -99 85 -104 0 -6 -26 -37 -59 -69 l-58 -57 -99 113
c-54 62 -99 115 -101 117 -2 3 -12 -4 -23 -15 -20 -19 -20 -20 65 -113 47 -51
85 -95 85 -97 0 -3 -109 -4 -242 -3 l-243 1 -35 27 c-19 16 -60 45 -91 65
l-56 37 -87 -55 c-47 -31 -89 -56 -93 -56 -5 1 -32 21 -62 45 -30 24 -58 42
-63 39 -19 -12 -5 -35 43 -70 l50 -37 -63 -39 c-78 -50 -73 -45 -58 -63 11
-13 20 -9 76 30 34 25 68 45 74 45 6 0 51 -27 100 -60 l89 -60 88 53 88 53
264 3 265 3 -85 -92 c-46 -50 -96 -106 -111 -124 -28 -33 -28 -33 -8 -51 11
-10 21 -16 23 -14 10 15 138 162 171 197 l40 42 63 -62 62 -61 -72 -79 c-121
-132 -120 -132 -98 -152 17 -16 22 -12 109 88 l91 104 117 -119 c65 -65 120
-117 122 -114 2 2 -43 61 -102 132 -58 70 -106 130 -106 133 1 3 28 34 61 70
l60 65 135 -139 c74 -76 138 -136 141 -133 3 3 -52 74 -122 157 -115 137 -126
153 -112 168 91 105 227 275 223 279 -2 3 -63 -55 -135 -129 l-130 -133 -60
65 c-33 36 -60 68 -61 72 0 3 46 61 101 128 56 66 100 123 97 125 -2 2 -54
-46 -116 -108z m-858 -284 c17 -10 9 -16 -65 -53 -46 -23 -86 -46 -89 -51 -6
-9 -147 99 -143 109 2 4 31 28 65 53 l62 47 75 -47 c42 -26 85 -52 95 -58z
m792 48 l49 -54 -75 6 c-41 4 -83 6 -93 7 -15 0 -10 10 25 49 24 27 43 48 44
47 0 0 23 -25 50 -55z m74 -79 c0 -4 -29 -36 -63 -70 l-64 -63 -56 63 -56 63
42 6 c64 9 197 10 197 1z"/>
</g>
</svg>
