<?xml version="1.0" standalone="no"?>
<!DOCTYPE svg PUBLIC "-//W3C//DTD SVG 20010904//EN"
 "http://www.w3.org/TR/2001/REC-SVG-20010904/DTD/svg10.dtd">
<svg version="1.0" xmlns="http://www.w3.org/2000/svg"
 width="105.000000pt" height="144.000000pt" viewBox="0 0 105.000000 144.000000"
 preserveAspectRatio="xMidYMid meet">
<metadata>
Created by potrace 1.16, written by Peter Selinger 2001-2019
</metadata>
<g transform="translate(0.000000,144.000000) scale(0.100000,-0.100000)"
fill="#000000" stroke="none">
<path d="M381 1121 c-88 -33 -82 1 -79 -405 l3 -361 50 -25 c42 -21 64 -25
140 -25 76 1 101 5 161 29 l72 29 5 61 c4 34 9 187 13 342 l7 280 -27 22 c-81
63 -248 89 -345 53z m118 -201 c5 0 12 37 16 81 6 64 4 83 -6 91 -14 9 -5 8
99 -8 20 -3 53 -9 72 -14 l35 -9 -3 -70 c-3 -68 -4 -70 -34 -80 -17 -6 -33
-11 -36 -11 -2 0 -1 36 3 80 6 70 5 80 -9 80 -13 0 -16 -14 -16 -84 l0 -83
-37 -7 c-79 -13 -147 -6 -200 19 l-53 24 0 59 c0 53 2 60 25 70 14 7 28 12 30
12 3 0 5 -36 5 -80 0 -44 4 -80 9 -80 5 0 12 34 16 76 5 58 4 79 -6 85 -9 5
-6 9 12 13 68 15 64 20 67 -76 1 -49 7 -88 11 -88z m211 -201 c0 -169 -1 -181
-17 -174 -107 45 -122 49 -198 49 -62 0 -91 -5 -129 -22 l-49 -22 7 76 c3 43
6 117 6 167 0 81 2 88 18 82 9 -4 49 -16 87 -26 39 -9 66 -18 60 -18 -10 -1
-11 -23 -7 -151 4 -97 20 -54 24 62 l3 98 50 10 c27 6 68 19 90 30 22 10 43
19 48 19 4 1 7 -80 7 -180z m-210 -269 l0 -110 -27 0 c-73 0 -74 3 -72 111 1
107 1 105 67 108 l32 1 0 -110z m104 100 c8 0 10 -30 8 -97 -2 -54 -5 -99 -5
-99 -1 -1 -21 -5 -44 -9 l-43 -7 0 50 c0 27 3 77 7 111 l6 63 30 -6 c16 -3 35
-6 41 -6z m73 -21 c32 -11 43 -40 43 -115 0 -27 -5 -32 -39 -42 -21 -7 -41
-12 -44 -12 -3 0 -4 40 -4 90 1 49 5 90 8 90 3 0 20 -5 36 -11z m-298 -137 l1
-33 -30 18 c-33 19 -33 19 -30 78 1 28 8 46 23 59 l22 18 7 -53 c3 -30 6 -69
7 -87z"/>
<path d="M380 731 c0 -66 4 -122 9 -125 4 -3 11 36 15 86 9 138 8 158 -9 158
-12 0 -15 -20 -15 -119z"/>
<path d="M571 753 c0 -43 3 -96 8 -118 l7 -40 7 55 c12 99 9 180 -8 180 -12 0
-15 -15 -14 -77z"/>
<path d="M661 738 c1 -125 13 -166 22 -79 12 110 9 171 -8 171 -12 0 -15 -17
-14 -92z"/>
</g>
</svg>
