<?xml version="1.0" standalone="no"?>
<!DOCTYPE svg PUBLIC "-//W3C//DTD SVG 20010904//EN"
 "http://www.w3.org/TR/2001/REC-SVG-20010904/DTD/svg10.dtd">
<svg version="1.0" xmlns="http://www.w3.org/2000/svg"
 width="106.000000pt" height="144.000000pt" viewBox="0 0 106.000000 144.000000"
 preserveAspectRatio="xMidYMid meet">
<metadata>
Created by potrace 1.16, written by Peter Selinger 2001-2019
</metadata>
<g transform="translate(0.000000,144.000000) scale(0.100000,-0.100000)"
fill="#000000" stroke="none">
<path d="M330 1125 c0 -8 -7 -15 -15 -15 -13 0 -15 -37 -15 -272 0 -309 9
-528 22 -528 4 0 8 38 8 85 l0 85 89 0 c101 0 101 0 101 -86 l0 -54 -90 0
c-83 0 -90 -1 -90 -20 0 -19 7 -20 123 -20 150 0 277 10 277 21 0 5 -20 9 -44
9 -23 0 -71 3 -105 6 l-61 7 0 51 c0 94 -2 92 110 95 l98 2 6 -53 c3 -29 8
-71 9 -93 2 -22 4 139 5 358 1 259 -1 397 -8 397 -6 0 -10 -30 -10 -70 l0 -70
-100 0 -100 0 0 69 0 68 46 7 c26 3 71 6 100 6 30 0 54 4 54 9 0 12 -114 21
-272 21 -116 0 -138 -2 -138 -15z m180 -95 l0 -70 -69 0 c-100 0 -101 1 -101
76 l0 64 85 0 85 0 0 -70z m230 -305 l0 -216 -100 3 c-55 2 -100 6 -100 11 0
4 0 97 0 206 l0 200 28 4 c15 2 60 5 100 6 l72 1 0 -215z m-230 -6 l0 -212
-67 6 c-38 4 -77 7 -89 7 -15 0 -20 6 -18 23 1 12 3 104 3 205 l1 182 85 0 85
0 0 -211z"/>
</g>
</svg>
