<?xml version="1.0" standalone="no"?>
<!DOCTYPE svg PUBLIC "-//W3C//DTD SVG 20010904//EN"
 "http://www.w3.org/TR/2001/REC-SVG-20010904/DTD/svg10.dtd">
<svg version="1.0" xmlns="http://www.w3.org/2000/svg"
 width="118.000000pt" height="139.000000pt" viewBox="0 0 118.000000 139.000000"
 preserveAspectRatio="xMidYMid meet">
<metadata>
Created by potrace 1.16, written by Peter Selinger 2001-2019
</metadata>
<g transform="translate(0.000000,139.000000) scale(0.100000,-0.100000)"
fill="#000000" stroke="none">
<path d="M320 1077 c0 -10 -4 -17 -10 -17 -6 0 -10 -103 -10 -288 0 -308 9
-500 21 -447 6 26 7 27 8 6 l1 -24 265 5 c193 4 265 2 267 -6 5 -37 15 240 17
472 1 235 -1 275 -14 288 -13 13 -59 17 -280 22 -242 5 -265 4 -265 -11z m500
-36 c-5 -11 -16 -23 -23 -28 -6 -4 -104 -6 -217 -4 -178 2 -207 5 -218 19 -12
16 -2 17 135 22 330 12 335 12 323 -9z m32 -463 c3 -211 2 -226 -13 -210 -32
33 -249 324 -249 333 0 10 196 275 234 317 l21 24 2 -119 c2 -65 4 -220 5
-345z m-442 310 c38 -57 84 -122 101 -145 l32 -43 -45 -57 c-24 -32 -73 -100
-107 -150 -34 -51 -63 -93 -64 -93 -1 0 -1 133 1 295 1 162 5 295 7 295 3 0
36 -46 75 -102z m360 94 c0 -5 -11 -19 -24 -31 -23 -22 -27 -22 -177 -15 -124
6 -156 10 -166 23 -10 14 5 17 150 21 89 3 174 7 190 8 15 1 27 -2 27 -6z
m-79 -98 c-20 -25 -26 -27 -120 -28 -99 -1 -100 -1 -116 27 l-16 27 136 0 136
0 -20 -26z m-60 -71 c-11 -16 -31 -41 -44 -57 l-23 -29 -37 51 -36 51 62 4
c34 2 70 4 80 5 17 2 17 0 -2 -25z m-16 -251 c-25 -2 -65 -2 -90 0 l-44 3 41
54 42 55 48 -55 48 -54 -45 -3z m-27 -27 l89 7 22 -31 22 -30 -138 6 c-76 3
-139 7 -141 9 -2 1 4 14 13 28 14 21 21 24 31 15 9 -8 42 -9 102 -4z m171 -96
l22 -30 -195 2 c-108 1 -196 4 -196 8 0 4 6 15 13 24 10 14 36 17 167 20 85 1
158 4 161 5 3 1 15 -12 28 -29z m61 -72 l25 -29 -245 7 c-135 4 -247 9 -249
11 -1 1 0 7 4 13 4 7 57 11 138 12 73 1 170 4 217 8 47 3 85 6 85 6 0 0 11
-13 25 -28z"/>
</g>
</svg>
