<?xml version="1.0" standalone="no"?>
<!DOCTYPE svg PUBLIC "-//W3C//DTD SVG 20010904//EN"
 "http://www.w3.org/TR/2001/REC-SVG-20010904/DTD/svg10.dtd">
<svg version="1.0" xmlns="http://www.w3.org/2000/svg"
 width="172.000000pt" height="131.000000pt" viewBox="0 0 172.000000 131.000000"
 preserveAspectRatio="xMidYMid meet">
<metadata>
Created by potrace 1.16, written by Peter Selinger 2001-2019
</metadata>
<g transform="translate(0.000000,131.000000) scale(0.100000,-0.100000)"
fill="#000000" stroke="none">
<path d="M1201 963 c-63 -24 -157 -53 -210 -64 -80 -16 -100 -25 -121 -48 -34
-39 -171 -117 -245 -140 -33 -10 -120 -29 -193 -42 -111 -20 -132 -26 -132
-41 0 -25 24 -23 190 12 146 31 220 61 311 126 54 39 54 39 37 -17 -10 -34
-15 -39 -40 -39 -87 0 -187 -60 -159 -94 7 -8 10 -20 7 -25 -4 -6 8 -18 25
-27 25 -12 46 -15 93 -10 86 9 90 9 192 1 92 -8 92 -8 122 -47 16 -21 63 -76
103 -123 l74 -84 23 22 c13 12 42 47 63 79 33 49 36 58 23 68 -8 7 -46 53 -85
102 l-71 89 50 53 c59 63 107 134 123 185 6 20 18 41 26 47 11 10 5 17 -33 38
-26 14 -49 25 -53 25 -3 -1 -57 -21 -120 -46z m159 -4 c0 -44 -104 -221 -167
-283 l-25 -26 52 -62 c29 -35 72 -80 94 -100 l41 -37 -54 -54 -53 -55 -85 113
-85 112 -86 12 c-48 7 -102 17 -121 23 -28 9 -35 8 -43 -6 -13 -24 -118 -22
-149 3 l-23 18 27 26 c26 24 93 47 136 47 15 0 29 18 56 75 30 64 40 76 67 83
23 6 36 5 43 -4 9 -11 75 -34 98 -34 22 0 2 19 -33 30 -21 7 -37 16 -35 20 9
14 63 19 99 9 52 -14 81 -6 37 11 l-34 13 99 47 c81 38 103 45 122 37 12 -6
22 -14 22 -18z"/>
</g>
</svg>
