<?xml version="1.0" standalone="no"?>
<!DOCTYPE svg PUBLIC "-//W3C//DTD SVG 20010904//EN"
 "http://www.w3.org/TR/2001/REC-SVG-20010904/DTD/svg10.dtd">
<svg version="1.0" xmlns="http://www.w3.org/2000/svg"
 width="171.000000pt" height="144.000000pt" viewBox="0 0 171.000000 144.000000"
 preserveAspectRatio="xMidYMid meet">
<metadata>
Created by potrace 1.16, written by Peter Selinger 2001-2019
</metadata>
<g transform="translate(0.000000,144.000000) scale(0.100000,-0.100000)"
fill="#000000" stroke="none">
<path d="M1285 1093 c-132 -100 -490 -290 -524 -280 -9 3 -49 17 -90 32 -67
24 -78 25 -122 15 -79 -19 -79 -20 61 -91 30 -16 63 -29 73 -29 24 0 22 -6
-24 -61 l-41 -49 -63 0 c-34 0 -81 6 -103 14 -38 14 -52 12 -52 -5 0 -17 103
-41 152 -36 27 4 48 3 46 -1 -2 -4 -10 -24 -17 -44 -17 -44 -40 -52 -139 -46
-72 3 -95 -11 -40 -25 34 -9 110 -5 140 8 33 13 19 -17 -27 -61 -59 -57 -110
-73 -165 -51 -37 14 -42 14 -47 0 -7 -18 10 -30 55 -39 87 -17 184 57 237 179
18 43 46 95 61 115 51 69 127 153 132 147 7 -7 318 155 402 210 56 35 70 40
90 32 14 -5 40 -9 59 -8 l34 2 -6 -46 c-4 -25 -18 -65 -32 -89 -13 -23 -31
-78 -40 -122 l-15 -79 49 -97 c28 -54 47 -98 42 -98 -4 0 -38 -21 -77 -47 -44
-29 -102 -57 -159 -75 -49 -15 -92 -28 -96 -28 -4 0 -11 15 -14 33 -11 47 -60
194 -84 250 -18 43 -22 46 -40 35 -15 -9 -28 -8 -67 7 l-49 19 57 11 c88 16
80 25 -21 25 -80 0 -92 -2 -89 -16 4 -23 104 -74 144 -74 29 0 35 -5 53 -44
10 -24 36 -97 57 -163 21 -65 39 -119 40 -121 2 -4 194 66 219 80 115 66 140
78 153 73 18 -7 16 -1 -43 143 -56 135 -55 156 5 282 25 51 40 95 40 118 -1
43 -30 135 -45 138 -5 1 -37 -18 -70 -43z m69 -5 c10 -41 7 -48 -23 -48 -40 0
-48 17 -20 46 28 30 35 30 43 2z m-670 -268 c77 -26 80 -29 60 -51 -9 -10 -21
-19 -26 -19 -18 0 -158 71 -158 80 0 16 63 11 124 -10z"/>
<path d="M1119 871 c-48 -31 -96 -78 -87 -86 3 -3 29 10 58 30 29 20 55 33 58
31 10 -11 -31 -58 -63 -72 -33 -14 -51 -31 -42 -40 9 -10 86 28 100 49 23 35
40 98 30 108 -5 5 -27 -2 -54 -20z"/>
</g>
</svg>
