<?xml version="1.0" standalone="no"?>
<!DOCTYPE svg PUBLIC "-//W3C//DTD SVG 20010904//EN"
 "http://www.w3.org/TR/2001/REC-SVG-20010904/DTD/svg10.dtd">
<svg version="1.0" xmlns="http://www.w3.org/2000/svg"
 width="106.000000pt" height="144.000000pt" viewBox="0 0 106.000000 144.000000"
 preserveAspectRatio="xMidYMid meet">
<metadata>
Created by potrace 1.16, written by Peter Selinger 2001-2019
</metadata>
<g transform="translate(0.000000,144.000000) scale(0.100000,-0.100000)"
fill="#000000" stroke="none">
<path d="M330 1125 c0 -8 -7 -15 -15 -15 -13 0 -15 -37 -15 -272 0 -309 9
-528 22 -528 4 0 8 29 8 65 l0 65 34 0 c36 0 46 -15 46 -72 0 -25 -3 -28 -35
-28 -28 0 -35 -4 -35 -20 0 -19 7 -20 123 -20 150 0 277 10 277 21 0 5 -16 9
-35 9 l-35 0 0 61 0 60 38 -3 37 -3 6 -70 c3 -38 6 109 7 328 1 259 -1 397 -8
397 -5 0 -10 -16 -10 -35 0 -33 -2 -35 -35 -35 -34 0 -35 1 -35 40 0 39 1 40
35 40 19 0 35 4 35 9 0 12 -114 21 -272 21 -116 0 -138 -2 -138 -15z m320 -56
c0 -38 -1 -40 -27 -37 -24 3 -28 8 -31 41 -3 35 -2 37 27 37 30 0 31 -2 31
-41z m-250 1 c0 -27 -3 -30 -30 -30 -27 0 -30 3 -30 30 0 27 3 30 30 30 27 0
30 -3 30 -30z m70 0 c0 -23 -4 -30 -20 -30 -16 0 -20 7 -20 30 0 23 4 30 20
30 16 0 20 -7 20 -30z m90 0 c0 -27 -3 -30 -30 -30 -27 0 -30 3 -30 30 0 27 3
30 30 30 27 0 30 -3 30 -30z m-160 -332 l0 -268 -36 0 -37 0 7 46 c3 26 6 145
6 265 0 199 1 218 18 221 43 10 42 17 42 -264z m70 88 c1 -94 3 -213 6 -263
l6 -93 -33 0 c-31 0 -32 1 -25 37 3 21 6 142 6 270 0 226 0 231 20 226 19 -5
20 -14 20 -177z m90 -55 c0 -131 3 -253 6 -270 6 -30 6 -31 -30 -31 l-36 0 0
270 0 270 30 0 30 0 0 -239z m90 -31 l0 -270 -30 0 -30 0 0 270 0 270 30 0 30
0 0 -270z m90 0 l0 -270 -35 0 -35 0 0 270 0 270 35 0 35 0 0 -270z m-90 -350
c0 -62 -3 -66 -47 -54 -18 5 -21 13 -20 52 2 47 12 60 50 61 14 1 17 -8 17
-59z m-170 0 c0 -49 -1 -50 -30 -50 -29 0 -30 1 -30 50 0 49 1 50 30 50 29 0
30 -1 30 -50z m90 0 l0 -50 -35 0 -35 0 0 50 0 50 35 0 35 0 0 -50z"/>
</g>
</svg>
