<?xml version="1.0" standalone="no"?>
<!DOCTYPE svg PUBLIC "-//W3C//DTD SVG 20010904//EN"
 "http://www.w3.org/TR/2001/REC-SVG-20010904/DTD/svg10.dtd">
<svg version="1.0" xmlns="http://www.w3.org/2000/svg"
 width="109.000000pt" height="144.000000pt" viewBox="0 0 109.000000 144.000000"
 preserveAspectRatio="xMidYMid meet">
<metadata>
Created by potrace 1.16, written by Peter Selinger 2001-2019
</metadata>
<g transform="translate(0.000000,144.000000) scale(0.100000,-0.100000)"
fill="#000000" stroke="none">
<path d="M330 1125 c0 -8 -7 -15 -15 -15 -13 0 -15 -37 -15 -272 0 -303 9
-528 21 -528 4 0 10 10 12 22 4 20 4 19 6 -4 l1 -28 138 1 c75 0 167 3 205 8
43 4 67 3 67 -3 0 -6 3 -6 9 -1 5 6 11 107 14 225 3 118 7 222 8 230 1 8 1 88
1 178 -2 154 -3 162 -22 162 -12 0 -17 5 -14 13 6 18 -94 27 -283 27 -112 0
-133 -2 -133 -15z m388 -25 c-7 -22 -193 -339 -199 -340 -3 0 -42 75 -87 168
l-81 167 127 5 c228 10 244 10 240 0z m15 -269 c-1 -2 -21 13 -43 33 -22 20
-45 36 -51 36 -5 0 11 40 38 90 l48 89 5 -122 c3 -67 4 -124 3 -126z m-293 2
c0 -3 -19 12 -42 31 -23 20 -45 36 -50 36 -4 0 -8 30 -7 68 l0 67 50 -99 c27
-54 49 -101 49 -103z m238 -3 c56 -40 58 -42 56 -83 -2 -23 -3 -43 -3 -45 -1
-2 -28 20 -61 49 -37 32 -65 49 -75 46 -8 -4 -15 -10 -15 -14 0 -4 36 -33 80
-63 75 -52 79 -57 80 -93 l0 -39 -67 60 c-51 45 -71 58 -80 50 -7 -6 -13 -13
-13 -17 0 -3 35 -31 79 -61 l78 -55 6 -109 c4 -60 5 -111 3 -113 -2 -2 -41 65
-86 149 -45 84 -92 170 -103 191 l-21 38 37 74 c20 41 39 75 42 75 3 0 32 -18
63 -40z m-242 -34 c61 -42 74 -65 55 -94 -6 -11 -19 -4 -52 28 -24 22 -56 48
-71 58 -20 12 -28 24 -28 45 0 29 1 29 23 14 12 -9 45 -32 73 -51z m-21 -85
c28 -19 51 -36 53 -37 2 -1 -4 -16 -13 -33 l-16 -31 -49 42 c-41 35 -50 49
-50 76 0 37 -3 38 75 -17z m214 -207 c54 -93 96 -170 92 -171 -3 -2 -88 1
-187 5 l-182 7 45 100 c52 116 57 123 78 105 18 -15 19 -7 3 19 -10 16 -8 29
12 71 13 29 27 47 32 42 5 -5 53 -85 107 -178z m-243 110 c19 -15 34 -30 34
-34 0 -4 -20 -49 -45 -101 l-46 -94 5 120 c3 66 6 123 6 128 0 12 10 8 46 -19z"/>
</g>
</svg>
