<?xml version="1.0" standalone="no"?>
<!DOCTYPE svg PUBLIC "-//W3C//DTD SVG 20010904//EN"
 "http://www.w3.org/TR/2001/REC-SVG-20010904/DTD/svg10.dtd">
<svg version="1.0" xmlns="http://www.w3.org/2000/svg"
 width="160.000000pt" height="192.000000pt" viewBox="0 0 160.000000 192.000000"
 preserveAspectRatio="xMidYMid meet">
<metadata>
Created by potrace 1.16, written by Peter Selinger 2001-2019
</metadata>
<g transform="translate(0.000000,192.000000) scale(0.100000,-0.100000)"
fill="#000000" stroke="none">
<path d="M506 1528 c-3 -50 -6 -119 -6 -153 l0 -62 -62 -23 c-40 -14 -77 -37
-102 -61 -38 -38 -38 -40 -34 -99 3 -39 11 -70 25 -88 40 -54 55 -57 335 -57
l256 0 -47 -45 c-26 -25 -103 -95 -171 -157 -69 -61 -138 -125 -155 -142 -28
-30 -28 -32 -11 -49 16 -16 25 -9 182 151 l165 168 -8 -53 c-26 -172 8 -268
137 -391 76 -73 194 -167 210 -167 9 0 43 465 50 693 0 4 7 7 15 7 8 0 15 4
15 8 0 10 -284 22 -490 22 l-128 0 -4 93 c-3 68 -9 99 -22 120 -22 33 -91 71
-113 63 -12 -5 -14 -1 -10 16 3 13 9 85 13 161 6 132 6 137 -13 137 -18 0 -21
-9 -27 -92z m105 -297 c28 -30 49 -103 49 -167 l0 -35 -111 2 c-71 1 -114 -2
-118 -9 -11 -19 -71 25 -87 63 -30 72 -11 113 70 151 77 36 86 33 86 -26 0
-27 5 -50 10 -50 6 0 10 11 10 24 0 13 3 38 6 55 6 29 10 32 33 26 14 -3 38
-19 52 -34z m602 -563 c-3 -183 -6 -337 -7 -342 -4 -18 -221 210 -256 269 -34
58 -35 62 -35 165 0 73 6 124 19 167 l18 62 102 4 c55 1 115 4 132 5 l31 2 -4
-332z"/>
</g>
</svg>
