<?xml version="1.0" standalone="no"?>
<!DOCTYPE svg PUBLIC "-//W3C//DTD SVG 20010904//EN"
 "http://www.w3.org/TR/2001/REC-SVG-20010904/DTD/svg10.dtd">
<svg version="1.0" xmlns="http://www.w3.org/2000/svg"
 width="221.000000pt" height="115.000000pt" viewBox="0 0 221.000000 115.000000"
 preserveAspectRatio="xMidYMid meet">
<metadata>
Created by potrace 1.16, written by Peter Selinger 2001-2019
</metadata>
<g transform="translate(0.000000,115.000000) scale(0.100000,-0.100000)"
fill="#000000" stroke="none">
<path d="M380 832 c0 -17 24 -26 178 -69 97 -28 294 -79 437 -114 143 -35 263
-68 267 -73 6 -9 568 1 577 10 15 14 -42 18 -312 21 l-302 4 -405 116 c-223
63 -413 118 -422 120 -13 4 -18 0 -18 -15z"/>
<path d="M357 745 c-4 -8 -3 -16 1 -19 9 -5 404 -114 595 -164 81 -21 147 -35
147 -31 0 12 -693 229 -729 229 -5 0 -11 -7 -14 -15z"/>
<path d="M343 664 c-3 -8 -2 -19 3 -23 21 -19 671 -187 682 -177 8 8 -30 21
-338 112 -157 47 -298 89 -313 94 -22 7 -29 6 -34 -6z"/>
<path d="M327 581 c-4 -17 2 -23 36 -32 23 -6 103 -28 177 -49 178 -50 408
-102 429 -97 23 6 28 4 -314 103 -165 47 -305 88 -311 91 -6 2 -14 -5 -17 -16z"/>
<path d="M1879 553 c-1 -21 -1 -52 0 -68 l2 -31 -283 -12 c-309 -13 -391 -26
-531 -81 -43 -17 -82 -31 -88 -31 -6 0 -55 16 -108 36 -174 66 -272 86 -386
81 -116 -6 -179 -24 -183 -54 l-3 -21 58 19 c137 46 271 33 514 -47 l137 -46
95 36 c53 20 135 43 184 51 90 15 445 45 541 45 49 0 52 -2 52 -25 0 -50 17
-23 24 36 10 105 8 149 -9 149 -10 0 -15 -11 -16 -37z"/>
</g>
</svg>
