<?xml version="1.0" standalone="no"?>
<!DOCTYPE svg PUBLIC "-//W3C//DTD SVG 20010904//EN"
 "http://www.w3.org/TR/2001/REC-SVG-20010904/DTD/svg10.dtd">
<svg version="1.0" xmlns="http://www.w3.org/2000/svg"
 width="102.000000pt" height="147.000000pt" viewBox="0 0 102.000000 147.000000"
 preserveAspectRatio="xMidYMid meet">
<metadata>
Created by potrace 1.16, written by Peter Selinger 2001-2019
</metadata>
<g transform="translate(0.000000,147.000000) scale(0.100000,-0.100000)"
fill="#000000" stroke="none">
<path d="M421 1071 c-26 -53 -60 -130 -76 -171 -15 -41 -32 -85 -37 -97 -8
-16 -4 -44 16 -115 32 -114 80 -213 146 -304 27 -38 50 -72 50 -76 0 -5 7 -8
17 -8 9 0 14 3 11 6 -3 3 14 37 38 76 76 124 134 296 134 398 0 40 -54 157
-132 287 -56 93 -64 102 -90 101 -27 -1 -33 -9 -77 -97z m127 -8 c49 -74 135
-223 131 -227 -2 -2 -77 -1 -167 3 l-163 6 51 105 c60 122 88 170 100 170 5 0
27 -26 48 -57z m127 -314 l-7 -62 -67 7 c-36 3 -105 6 -152 6 l-87 0 -9 48 -8
47 165 10 c91 6 167 9 169 8 2 -1 0 -30 -4 -64z m-20 -111 c-9 -39 -63 -181
-98 -256 l-25 -54 -45 84 c-54 99 -93 183 -102 220 l-7 27 109 4 c59 1 123 4
141 5 33 2 33 1 27 -30z"/>
</g>
</svg>
