<?xml version="1.0" standalone="no"?>
<!DOCTYPE svg PUBLIC "-//W3C//DTD SVG 20010904//EN"
 "http://www.w3.org/TR/2001/REC-SVG-20010904/DTD/svg10.dtd">
<svg version="1.0" xmlns="http://www.w3.org/2000/svg"
 width="146.000000pt" height="361.000000pt" viewBox="0 0 146.000000 361.000000"
 preserveAspectRatio="xMidYMid meet">
<metadata>
Created by potrace 1.16, written by Peter Selinger 2001-2019
</metadata>
<g transform="translate(0.000000,361.000000) scale(0.100000,-0.100000)"
fill="#000000" stroke="none">
<path d="M416 3264 c-38 -43 -40 -44 -59 -27 -14 13 -21 14 -24 6 -2 -7 -11
-9 -19 -6 -11 4 -14 -9 -13 -73 0 -44 3 -97 7 -119 l7 -40 75 -18 c75 -18 208
-18 302 -2 74 14 118 -69 118 -223 0 -54 -13 -194 -23 -245 -6 -32 232 -46
304 -18 32 12 34 21 50 181 20 216 1 412 -50 494 -45 72 -115 85 -216 41 -161
-72 -324 -84 -433 -34 l-53 24 33 32 34 33 39 -55 c37 -51 55 -66 55 -47 0 14
-75 135 -85 138 -5 1 -28 -18 -49 -42z m71 -129 c112 -29 236 -17 371 36 91
36 131 37 172 3 41 -35 54 -63 75 -158 14 -64 17 -114 13 -282 -2 -112 -8
-207 -12 -211 -13 -14 -181 -15 -241 -3 l-57 12 6 46 c28 192 24 324 -12 386
-10 17 -33 39 -51 50 -32 18 -35 18 -111 1 -87 -20 -150 -17 -248 10 l-60 17
-4 47 c-1 25 -2 61 0 78 l3 33 49 -25 c28 -14 75 -32 107 -40z"/>
<path d="M573 2181 c-73 -55 -79 -58 -112 -49 -25 7 -36 7 -39 -1 -2 -6 -10
-11 -17 -11 -15 0 -21 -15 -31 -82 -6 -47 12 -174 27 -192 20 -22 301 -15 407
11 22 5 22 4 22 -113 1 -113 12 -279 26 -371 l6 -43 92 1 c50 1 115 4 144 7
l52 7 6 365 c5 346 4 365 -13 371 -10 4 -80 8 -155 8 -128 1 -138 2 -165 24
-15 13 -61 47 -100 75 l-72 52 -78 -59z m215 -85 c-2 -2 -57 1 -122 6 -111 7
-147 15 -119 25 7 2 31 17 54 33 l42 28 74 -45 c41 -25 73 -46 71 -47z m7 -40
c132 0 258 3 281 7 l41 7 6 -352 c3 -194 5 -353 4 -353 -1 0 -58 2 -127 5
l-125 5 -3 243 c-2 237 -2 244 18 249 11 3 20 10 20 15 0 5 -36 7 -92 2 -136
-9 -327 -10 -370 -1 l-38 8 0 93 c0 51 2 95 5 98 3 2 35 -2 72 -11 52 -12 125
-16 308 -15z"/>
<path d="M570 1135 c-69 -54 -72 -55 -108 -45 -24 6 -38 6 -40 0 -2 -6 -10
-10 -17 -10 -15 0 -21 -15 -30 -82 -8 -52 13 -189 29 -200 13 -9 308 -3 379 8
l47 7 0 -104 c0 -140 9 -167 83 -246 66 -70 189 -163 217 -163 15 0 17 24 23
233 4 127 7 293 7 368 l0 136 -157 8 -158 7 -40 32 c-48 39 -147 106 -156 106
-4 0 -39 -25 -79 -55z m145 -34 c36 -22 69 -42 73 -46 8 -8 -190 5 -227 14
-22 7 -21 9 25 39 27 17 52 32 55 32 4 0 37 -18 74 -39z m-180 -81 c68 -12
329 -14 481 -4 l101 7 6 -354 c3 -194 5 -354 3 -356 -5 -5 -152 118 -184 155
-64 72 -72 99 -72 231 l0 121 28 7 c26 7 25 8 -13 13 -22 3 -78 1 -125 -3 -93
-9 -320 -5 -338 7 -8 5 -12 41 -12 103 l0 96 33 -6 c17 -3 59 -11 92 -17z"/>
</g>
</svg>
