<?xml version="1.0" standalone="no"?>
<!DOCTYPE svg PUBLIC "-//W3C//DTD SVG 20010904//EN"
 "http://www.w3.org/TR/2001/REC-SVG-20010904/DTD/svg10.dtd">
<svg version="1.0" xmlns="http://www.w3.org/2000/svg"
 width="194.000000pt" height="105.000000pt" viewBox="0 0 194.000000 105.000000"
 preserveAspectRatio="xMidYMid meet">
<metadata>
Created by potrace 1.16, written by Peter Selinger 2001-2019
</metadata>
<g transform="translate(0.000000,105.000000) scale(0.100000,-0.100000)"
fill="#000000" stroke="none">
<path d="M1076 734 c-3 -9 -6 -17 -6 -19 0 -6 98 -41 305 -111 105 -35 197
-67 205 -70 9 -4 -6 -13 -40 -26 -247 -91 -427 -163 -436 -174 -24 -30 -175
90 -190 151 -17 68 23 146 108 210 37 29 47 41 35 43 -39 8 -145 -87 -173
-155 -8 -18 -19 -31 -24 -28 -5 3 -62 41 -127 85 -109 74 -119 78 -127 60 -5
-11 -13 -20 -18 -20 -4 0 -8 -25 -8 -55 l0 -55 -140 6 -140 7 0 -23 0 -23 145
5 145 5 0 -66 c0 -36 3 -76 6 -88 7 -27 13 -25 158 56 60 33 110 60 110 58 1
-1 12 -24 26 -52 19 -37 40 -59 87 -90 33 -23 78 -47 100 -54 36 -12 44 -10
168 42 197 81 395 170 395 176 -1 7 -538 221 -556 221 -1 0 -5 -7 -8 -16z
m-288 -164 c34 -19 62 -37 62 -40 0 -3 -55 -31 -121 -62 -79 -38 -119 -52
-115 -42 3 9 6 67 6 130 l0 115 53 -34 c28 -18 80 -49 115 -67z"/>
</g>
</svg>
