<?xml version="1.0" standalone="no"?>
<!DOCTYPE svg PUBLIC "-//W3C//DTD SVG 20010904//EN"
 "http://www.w3.org/TR/2001/REC-SVG-20010904/DTD/svg10.dtd">
<svg version="1.0" xmlns="http://www.w3.org/2000/svg"
 width="176.000000pt" height="94.000000pt" viewBox="0 0 176.000000 94.000000"
 preserveAspectRatio="xMidYMid meet">
<metadata>
Created by potrace 1.16, written by Peter Selinger 2001-2019
</metadata>
<g transform="translate(0.000000,94.000000) scale(0.100000,-0.100000)"
fill="#000000" stroke="none">
<path d="M452 618 c-18 -11 -43 -41 -57 -68 -25 -50 -41 -62 -75 -55 -16 3
-20 -1 -20 -20 l0 -24 235 6 c233 6 235 6 235 -15 0 -23 76 -94 132 -123 56
-29 193 -26 284 5 93 32 274 117 274 129 0 5 -6 7 -12 4 -7 -3 -50 -22 -96
-41 -210 -90 -347 -112 -432 -67 -50 26 -130 88 -130 101 0 4 10 11 23 15 19
6 19 8 5 12 -26 7 -22 16 20 50 140 113 240 104 610 -54 6 -3 12 -1 12 4 0 13
-180 96 -276 129 -168 56 -268 39 -375 -66 -57 -56 -60 -57 -104 -52 -37 4
-49 10 -59 31 -18 34 -50 62 -110 94 -27 15 -49 27 -50 26 0 0 -16 -10 -34
-21z m162 -97 l30 -31 -117 0 c-75 0 -117 4 -117 10 0 15 29 71 47 92 14 16
19 15 72 -11 31 -16 69 -43 85 -60z"/>
</g>
</svg>
