<?xml version="1.0" standalone="no"?>
<!DOCTYPE svg PUBLIC "-//W3C//DTD SVG 20010904//EN"
 "http://www.w3.org/TR/2001/REC-SVG-20010904/DTD/svg10.dtd">
<svg version="1.0" xmlns="http://www.w3.org/2000/svg"
 width="105.000000pt" height="235.000000pt" viewBox="0 0 105.000000 235.000000"
 preserveAspectRatio="xMidYMid meet">
<metadata>
Created by potrace 1.16, written by Peter Selinger 2001-2019
</metadata>
<g transform="translate(0.000000,235.000000) scale(0.100000,-0.100000)"
fill="#000000" stroke="none">
<path d="M610 2031 c-160 -52 -227 -117 -285 -280 l-26 -72 25 -54 c14 -30 37
-71 52 -90 33 -44 134 -112 247 -166 67 -32 87 -46 88 -63 1 -17 2 -17 6 -3 2
9 12 17 21 18 15 0 15 2 2 10 -13 9 -14 33 -9 157 4 81 7 235 8 342 l1 195
-27 13 c-34 15 -36 15 -103 -7z m92 -348 c2 -181 3 -329 2 -330 0 -1 -47 26
-105 60 -134 80 -218 161 -247 240 -20 53 -21 60 -7 94 25 59 100 157 145 188
41 29 159 74 192 75 16 0 18 -25 20 -327z"/>
<path d="M540 1871 c0 -12 72 -72 79 -66 6 6 -60 75 -71 75 -4 0 -8 -4 -8 -9z"/>
<path d="M438 1824 c-14 -13 -9 -22 32 -54 22 -17 40 -28 40 -23 0 17 -65 85
-72 77z"/>
<path d="M590 1746 c0 -14 59 -66 74 -66 4 0 -7 18 -24 40 -33 42 -50 50 -50
26z"/>
<path d="M380 1691 c0 -11 71 -71 83 -71 14 0 -56 78 -70 79 -7 1 -13 -3 -13
-8z"/>
<path d="M500 1641 c0 -11 61 -71 73 -71 12 0 8 8 -24 45 -31 34 -49 44 -49
26z"/>
<path d="M590 1486 c0 -14 59 -66 74 -66 4 0 -7 18 -24 40 -33 42 -50 50 -50
26z"/>
<path d="M625 1031 c-168 -49 -246 -126 -310 -307 l-18 -51 32 -65 c18 -36 49
-81 69 -101 44 -42 179 -126 257 -158 32 -13 55 -29 56 -38 0 -10 3 -11 5 -4
3 7 12 9 20 6 8 -3 14 -1 14 5 0 5 -6 12 -12 15 -10 3 -12 39 -7 153 10 231
10 546 0 540 -5 -3 -14 1 -21 9 -15 18 -10 18 -85 -4z m75 -129 c0 -60 -3
-111 -6 -115 -4 -3 -28 13 -55 36 l-49 42 47 47 c59 60 51 72 -11 18 -26 -22
-50 -40 -54 -40 -8 1 -62 47 -62 53 0 8 156 66 178 67 9 0 12 -28 12 -108z
m-186 -11 l28 -29 -39 -36 c-45 -42 -53 -43 -82 -12 l-23 24 37 41 c21 23 40
41 44 41 4 0 20 -13 35 -29z m106 -90 c25 -22 43 -41 40 -43 -3 -2 -24 -20
-47 -42 l-41 -39 -46 44 -46 43 37 38 c20 21 42 38 48 38 5 0 30 -18 55 -39z
m-210 -19 l23 -18 -42 -36 c-22 -19 -41 -39 -41 -44 1 -5 25 -29 55 -53 46
-38 52 -46 42 -62 -15 -24 -1 -36 23 -21 16 10 29 3 97 -53 42 -36 82 -65 88
-65 5 0 -25 35 -69 77 l-78 78 33 27 c19 16 37 24 43 20 6 -5 32 -26 59 -46
60 -49 61 -35 0 26 l-46 47 39 43 c21 24 43 43 49 43 6 0 12 -72 15 -195 3
-107 4 -197 3 -199 -1 -2 -42 20 -90 50 -173 104 -224 153 -263 258 l-20 51
22 45 c12 25 25 45 29 45 4 0 17 -8 29 -18z m94 -81 l45 -39 -28 -26 c-15 -14
-31 -26 -37 -26 -10 1 -84 67 -84 76 0 4 51 53 57 54 1 0 22 -17 47 -39z"/>
</g>
</svg>
