<?xml version="1.0" standalone="no"?>
<!DOCTYPE svg PUBLIC "-//W3C//DTD SVG 20010904//EN"
 "http://www.w3.org/TR/2001/REC-SVG-20010904/DTD/svg10.dtd">
<svg version="1.0" xmlns="http://www.w3.org/2000/svg"
 width="194.000000pt" height="127.000000pt" viewBox="0 0 194.000000 127.000000"
 preserveAspectRatio="xMidYMid meet">
<metadata>
Created by potrace 1.16, written by Peter Selinger 2001-2019
</metadata>
<g transform="translate(0.000000,127.000000) scale(0.100000,-0.100000)"
fill="#000000" stroke="none">
<path d="M690 918 c-47 -28 -151 -98 -231 -155 -115 -81 -148 -110 -152 -131
-3 -15 -5 -27 -4 -28 1 -1 107 -69 235 -153 128 -83 234 -151 236 -151 1 0 6
50 9 111 3 61 8 113 11 116 3 3 38 -15 77 -41 67 -42 89 -53 89 -42 0 3 -39
35 -86 72 l-85 68 3 74 3 74 82 58 c45 32 83 55 85 51 2 -5 38 -30 81 -56 43
-26 80 -53 82 -59 2 -6 6 -39 10 -73 l6 -61 -86 -56 c-47 -31 -85 -59 -85 -63
0 -5 4 -14 9 -22 7 -10 25 -1 84 42 l75 55 7 -124 c4 -68 11 -124 16 -124 5 0
9 8 9 18 0 14 2 14 9 3 14 -21 24 -15 255 159 185 140 235 183 191 166 -10 -3
-48 20 -103 63 -48 38 -150 111 -226 164 -164 112 -165 112 -166 -15 0 -43 -2
-78 -4 -78 -3 0 -35 20 -71 46 -49 33 -70 42 -79 35 -7 -6 -16 -8 -19 -5 -3 3
-40 -13 -81 -36 l-76 -41 0 80 c0 68 -3 81 -16 81 -14 0 -14 3 -4 15 22 27 -4
16 -90 -37z m70 -77 l0 -89 -50 -32 c-50 -32 -58 -44 -40 -55 7 -4 6 -13 -1
-27 -12 -22 -10 -25 44 -54 38 -21 47 -50 47 -159 l0 -94 -108 82 c-60 45
-152 111 -205 147 -54 35 -97 67 -96 70 0 7 392 298 402 299 4 1 7 -39 7 -88z
m628 -76 c111 -71 201 -132 201 -135 0 -3 -60 -44 -132 -92 -73 -48 -167 -112
-209 -143 l-78 -56 0 116 0 115 50 36 c28 20 50 40 50 44 0 4 -22 27 -50 50
l-50 42 0 80 c0 44 4 78 8 76 5 -1 99 -61 210 -133z m-633 -110 c0 -25 -2 -45
-3 -45 -8 0 -62 35 -62 40 0 3 60 50 65 50 0 0 0 -20 0 -45z m461 24 c19 -11
34 -23 34 -25 0 -6 -63 -44 -72 -44 -5 0 -8 20 -8 45 0 25 3 45 6 45 4 0 22
-9 40 -21z"/>
</g>
</svg>
