<?xml version="1.0" standalone="no"?>
<!DOCTYPE svg PUBLIC "-//W3C//DTD SVG 20010904//EN"
 "http://www.w3.org/TR/2001/REC-SVG-20010904/DTD/svg10.dtd">
<svg version="1.0" xmlns="http://www.w3.org/2000/svg"
 width="155.000000pt" height="127.000000pt" viewBox="0 0 155.000000 127.000000"
 preserveAspectRatio="xMidYMid meet">
<metadata>
Created by potrace 1.16, written by Peter Selinger 2001-2019
</metadata>
<g transform="translate(0.000000,127.000000) scale(0.100000,-0.100000)"
fill="#000000" stroke="none">
<path d="M518 937 c-56 -43 -108 -112 -162 -217 -40 -76 -43 -87 -30 -104 7
-11 16 -18 18 -15 2 2 18 38 36 79 58 133 136 231 196 246 41 11 118 -1 170
-26 81 -39 215 -191 249 -282 9 -23 -83 -129 -170 -195 -126 -96 -224 -116
-308 -63 -46 29 -122 121 -158 193 -13 24 -26 37 -39 37 -26 0 -26 -4 11 -64
51 -83 117 -161 163 -195 41 -28 51 -31 123 -31 69 0 84 4 133 32 55 31 171
140 226 212 l30 38 45 -68 c76 -118 187 -244 166 -191 -16 41 -171 279 -188
288 -18 9 -11 18 65 97 99 102 162 180 152 189 -6 7 -37 -20 -177 -155 l-75
-73 -46 73 c-96 151 -206 228 -325 228 -54 0 -67 -4 -105 -33z"/>
</g>
</svg>
