<?xml version="1.0" standalone="no"?>
<!DOCTYPE svg PUBLIC "-//W3C//DTD SVG 20010904//EN"
 "http://www.w3.org/TR/2001/REC-SVG-20010904/DTD/svg10.dtd">
<svg version="1.0" xmlns="http://www.w3.org/2000/svg"
 width="148.000000pt" height="136.000000pt" viewBox="0 0 148.000000 136.000000"
 preserveAspectRatio="xMidYMid meet">
<metadata>
Created by potrace 1.16, written by Peter Selinger 2001-2019
</metadata>
<g transform="translate(0.000000,136.000000) scale(0.100000,-0.100000)"
fill="#000000" stroke="none">
<path d="M1014 999 c-32 -33 -85 -83 -116 -110 l-56 -50 -62 40 c-128 83 -245
104 -310 56 -40 -29 -91 -98 -131 -178 -24 -47 -28 -61 -18 -73 10 -12 20 1
56 75 30 60 59 103 90 132 44 40 47 41 97 36 75 -8 153 -40 247 -103 124 -84
192 -144 178 -160 -20 -24 -200 -136 -275 -171 -76 -35 -153 -50 -196 -40 -32
8 -106 84 -148 151 -33 52 -56 73 -68 62 -7 -8 35 -75 89 -141 102 -125 164
-139 313 -67 47 22 107 55 132 73 l46 31 119 -118 c65 -65 119 -114 119 -108
0 11 -75 99 -157 185 -52 53 -53 56 -35 72 17 16 24 11 132 -93 63 -60 116
-107 118 -105 5 4 -113 140 -175 203 l-32 32 27 17 c15 9 29 18 31 20 2 1 -8
12 -22 24 -34 26 -34 34 1 67 56 54 175 192 170 198 -4 3 -35 -24 -70 -59 -34
-35 -85 -84 -111 -107 -45 -41 -49 -42 -65 -27 -15 16 -13 20 34 70 80 83 154
170 154 181 0 6 -51 -40 -114 -103 -65 -65 -119 -111 -125 -107 -6 4 31 54 96
127 113 128 135 168 37 68z"/>
<path d="M852 528 c-8 -10 17 -39 104 -121 63 -60 114 -105 114 -102 0 8 -157
190 -187 218 -16 14 -22 15 -31 5z"/>
</g>
</svg>
