<?xml version="1.0" standalone="no"?>
<!DOCTYPE svg PUBLIC "-//W3C//DTD SVG 20010904//EN"
 "http://www.w3.org/TR/2001/REC-SVG-20010904/DTD/svg10.dtd">
<svg version="1.0" xmlns="http://www.w3.org/2000/svg"
 width="157.000000pt" height="111.000000pt" viewBox="0 0 157.000000 111.000000"
 preserveAspectRatio="xMidYMid meet">
<metadata>
Created by potrace 1.16, written by Peter Selinger 2001-2019
</metadata>
<g transform="translate(0.000000,111.000000) scale(0.100000,-0.100000)"
fill="#000000" stroke="none">
<path d="M300 566 c0 -165 3 -246 11 -246 5 0 60 13 122 30 126 33 269 61 313
61 221 -1 287 -6 427 -38 65 -14 67 -16 68 -46 1 -30 2 -30 10 8 10 52 12 445
1 445 -4 0 -12 -4 -17 -9 -16 -16 -231 -51 -350 -57 -143 -8 -298 17 -562 92
l-23 6 0 -246z m153 174 c64 -17 158 -36 209 -43 86 -12 93 -14 92 -35 0 -12
-1 -66 -2 -121 l-2 -98 -87 -12 c-49 -7 -146 -27 -218 -46 -72 -18 -130 -32
-131 -32 -1 5 20 417 21 417 1 0 54 -14 118 -30z m787 -31 l0 -42 -61 7 c-34
3 -112 7 -173 7 -61 1 -97 4 -81 6 71 8 216 36 256 48 61 19 59 20 59 -26z
m-410 -149 l0 -120 -31 0 -32 0 7 46 c3 26 6 80 6 120 0 72 1 74 25 74 l25 0
0 -120z m226 92 l184 4 -4 -56 c-2 -30 -4 -65 -5 -78 l-1 -23 -181 7 c-175 7
-181 6 -177 -12 3 -18 13 -19 186 -15 l182 3 0 -51 c0 -28 -3 -51 -7 -51 -5 0
-33 7 -63 15 -75 21 -226 45 -277 45 l-43 0 1 43 c2 86 -9 82 194 86 170 3
194 5 184 15 -4 4 -236 15 -326 16 l-43 0 1 43 c1 23 3 34 6 23 5 -17 16 -18
189 -14z"/>
<path d="M350 665 c0 -13 23 -15 148 -14 81 0 165 3 187 8 40 7 40 7 -24 14
-35 4 -120 7 -187 7 -104 0 -124 -2 -124 -15z"/>
<path d="M342 583 c3 -17 16 -18 183 -14 99 2 182 5 184 7 11 10 -16 12 -187
18 -173 7 -183 6 -180 -11z"/>
<path d="M352 493 c3 -17 18 -18 178 -15 96 2 179 7 183 11 8 8 -182 21 -300
21 -56 0 -64 -2 -61 -17z"/>
</g>
</svg>
