<?xml version="1.0" standalone="no"?>
<!DOCTYPE svg PUBLIC "-//W3C//DTD SVG 20010904//EN"
 "http://www.w3.org/TR/2001/REC-SVG-20010904/DTD/svg10.dtd">
<svg version="1.0" xmlns="http://www.w3.org/2000/svg"
 width="192.000000pt" height="248.000000pt" viewBox="0 0 192.000000 248.000000"
 preserveAspectRatio="xMidYMid meet">
<metadata>
Created by potrace 1.16, written by Peter Selinger 2001-2019
</metadata>
<g transform="translate(0.000000,248.000000) scale(0.100000,-0.100000)"
fill="#000000" stroke="none">
<path d="M830 2123 c-108 -120 -180 -254 -180 -336 l0 -34 -168 63 c-92 34
-169 61 -171 58 -2 -2 -3 -69 -2 -149 2 -113 6 -158 21 -200 33 -97 93 -162
171 -186 55 -17 245 -14 324 6 39 10 77 18 86 19 19 2 646 360 685 391 l25 20
-63 37 c-508 294 -622 357 -646 363 -26 5 -35 0 -82 -52z m390 -156 c107 -58
234 -124 283 -148 48 -24 87 -46 87 -49 0 -3 -44 -27 -97 -54 -54 -26 -210
-109 -347 -184 l-250 -135 -50 54 c-99 106 -166 235 -166 318 0 82 68 208 167
313 l56 58 61 -34 c34 -18 149 -81 256 -139z m-677 -199 c59 -18 107 -37 107
-43 0 -5 -73 -33 -161 -62 l-161 -51 6 45 c3 25 6 74 6 109 l0 63 48 -15 c26
-8 95 -29 155 -46z m117 -85 c0 -57 103 -204 186 -267 l45 -34 -58 -13 c-89
-19 -268 -17 -329 4 -76 26 -138 96 -157 177 -6 24 0 27 146 87 84 33 155 62
160 62 4 1 7 -7 7 -16z"/>
<path d="M847 1061 c-24 -26 -65 -76 -91 -111 l-47 -63 -192 2 -192 2 3 -203
c2 -112 5 -209 7 -215 3 -10 44 -11 167 -7 90 2 177 6 193 8 26 3 35 -2 60
-36 40 -54 144 -138 171 -138 28 0 684 376 691 395 1 6 -39 34 -90 64 -367
213 -581 334 -606 341 -27 8 -34 4 -74 -39z m284 -117 c118 -64 272 -145 342
-181 l129 -65 -169 -88 c-92 -49 -249 -133 -348 -189 l-180 -100 -54 57 c-163
171 -199 314 -117 469 33 63 157 213 175 213 5 0 104 -52 222 -116z m-431 -79
c0 -4 -7 -19 -15 -35 -8 -16 -20 -52 -26 -80 l-11 -50 -144 0 -145 0 3 78 3
77 125 5 c69 3 144 7 168 8 23 1 42 0 42 -3z m-45 -212 c6 -27 33 -106 50
-147 8 -18 5 -19 -40 -13 -26 4 -109 7 -183 7 l-135 0 5 75 c3 42 8 79 12 83
4 4 60 10 124 13 64 3 127 6 139 7 17 2 24 -5 28 -25z"/>
</g>
</svg>
