<?xml version="1.0" standalone="no"?>
<!DOCTYPE svg PUBLIC "-//W3C//DTD SVG 20010904//EN"
 "http://www.w3.org/TR/2001/REC-SVG-20010904/DTD/svg10.dtd">
<svg version="1.0" xmlns="http://www.w3.org/2000/svg"
 width="190.000000pt" height="240.000000pt" viewBox="0 0 190.000000 240.000000"
 preserveAspectRatio="xMidYMid meet">
<metadata>
Created by potrace 1.16, written by Peter Selinger 2001-2019
</metadata>
<g transform="translate(0.000000,240.000000) scale(0.100000,-0.100000)"
fill="#000000" stroke="none">
<path d="M800 2029 c-79 -92 -127 -167 -152 -238 -11 -31 -21 -57 -23 -59 -2
-2 -69 24 -149 57 -80 34 -150 61 -155 61 -5 0 -11 -10 -15 -22 -8 -33 -7
-296 2 -302 4 -2 70 22 146 55 77 32 147 61 156 64 13 4 20 -7 33 -52 27 -97
98 -193 202 -273 l54 -42 278 160 c417 240 423 243 423 251 0 14 -668 397
-709 406 -27 6 -34 0 -91 -66z m405 -143 c88 -48 206 -110 262 -139 57 -28
103 -54 103 -57 0 -3 -64 -38 -143 -79 -78 -41 -231 -123 -339 -182 -108 -60
-201 -109 -206 -109 -15 0 -108 103 -145 162 -47 72 -66 120 -73 182 -11 92
48 212 164 338 l54 58 82 -44 c44 -24 153 -83 241 -130z m-713 -133 c99 -35
138 -52 138 -64 0 -11 -39 -29 -142 -64 -79 -26 -148 -49 -153 -52 -10 -3 -10
184 0 215 6 17 3 17 157 -35z"/>
<path d="M824 1058 c-60 -62 -115 -136 -144 -192 l-25 -47 -177 7 -178 7 0
-151 c0 -132 2 -151 17 -154 9 -2 89 0 177 5 159 7 161 7 176 -15 86 -127 183
-218 234 -218 23 0 186 90 668 369 16 9 28 19 28 23 0 15 -665 396 -705 403
-26 5 -36 0 -71 -37z m232 -89 c93 -51 250 -134 348 -185 l179 -92 -124 -62
c-68 -35 -227 -119 -352 -187 l-228 -126 -31 29 c-86 83 -172 230 -184 315
-13 93 49 220 163 341 31 32 57 58 58 58 1 0 78 -41 171 -91z m-418 -206 c-10
-39 -6 -153 7 -185 7 -17 -5 -18 -157 -18 l-165 0 4 103 c3 56 6 107 8 114 4
12 56 17 232 21 l81 2 -10 -37z"/>
</g>
</svg>
