<?xml version="1.0" standalone="no"?>
<!DOCTYPE svg PUBLIC "-//W3C//DTD SVG 20010904//EN"
 "http://www.w3.org/TR/2001/REC-SVG-20010904/DTD/svg10.dtd">
<svg version="1.0" xmlns="http://www.w3.org/2000/svg"
 width="139.000000pt" height="134.000000pt" viewBox="0 0 139.000000 134.000000"
 preserveAspectRatio="xMidYMid meet">
<metadata>
Created by potrace 1.16, written by Peter Selinger 2001-2019
</metadata>
<g transform="translate(0.000000,134.000000) scale(0.100000,-0.100000)"
fill="#000000" stroke="none">
<path d="M550 1021 c-111 -25 -137 -36 -145 -60 -3 -12 -15 -21 -25 -21 -15 0
-25 -18 -46 -82 -24 -72 -27 -100 -28 -208 -1 -112 1 -130 22 -172 32 -64 85
-116 151 -147 52 -24 65 -26 191 -25 118 1 146 4 220 28 47 15 92 28 100 28
17 2 44 27 45 42 0 6 13 48 28 94 23 72 27 99 27 205 0 142 -12 177 -81 244
-70 68 -124 86 -259 90 -85 2 -137 -2 -200 -16z m368 -62 c56 -29 72 -43 99
-88 37 -62 49 -130 40 -235 -8 -91 -43 -228 -62 -242 -35 -26 -180 -49 -315
-49 -118 0 -141 3 -182 22 -62 28 -113 85 -135 148 -32 91 -18 257 33 385 14
35 21 39 87 58 116 34 166 41 270 38 89 -3 104 -6 165 -37z"/>
<path d="M452 673 c3 -16 18 -18 168 -15 251 4 418 13 395 23 -11 4 -143 8
-293 8 -255 1 -273 0 -270 -16z"/>
</g>
</svg>
