<?xml version="1.0" standalone="no"?>
<!DOCTYPE svg PUBLIC "-//W3C//DTD SVG 20010904//EN"
 "http://www.w3.org/TR/2001/REC-SVG-20010904/DTD/svg10.dtd">
<svg version="1.0" xmlns="http://www.w3.org/2000/svg"
 width="188.000000pt" height="164.000000pt" viewBox="0 0 188.000000 164.000000"
 preserveAspectRatio="xMidYMid meet">
<metadata>
Created by potrace 1.16, written by Peter Selinger 2001-2019
</metadata>
<g transform="translate(0.000000,164.000000) scale(0.100000,-0.100000)"
fill="#000000" stroke="none">
<path d="M1276 1323 c-5 -12 16 -39 76 -100 45 -45 80 -84 77 -86 -2 -2 -22
-17 -44 -32 -77 -56 -147 -118 -155 -139 -16 -44 49 -116 160 -175 33 -18 60
-35 60 -39 0 -4 -36 -56 -80 -117 -43 -60 -77 -111 -74 -114 14 -14 207 223
253 313 49 93 40 143 -46 265 -54 75 -200 241 -213 241 -4 0 -11 -8 -14 -17z
m245 -305 c27 -53 24 -89 -17 -171 -20 -39 -38 -74 -39 -75 -6 -7 -125 79
-160 115 -58 60 -49 81 85 178 l65 47 23 -29 c13 -15 32 -45 43 -65z"/>
<path d="M933 915 l-169 -175 -225 10 c-123 5 -227 10 -231 10 -5 0 -8 -23 -8
-52 0 -74 21 -228 31 -228 5 0 9 52 9 115 l0 115 108 1 c59 1 163 3 232 5
l125 3 58 63 c32 35 93 104 135 155 42 51 78 91 80 89 1 -2 -8 -48 -22 -102
-14 -55 -43 -196 -66 -314 -56 -291 -48 -266 -73 -232 -11 15 -42 50 -69 79
-26 28 -48 59 -48 67 0 14 -21 16 -148 16 -82 0 -183 -3 -225 -6 -71 -6 -77
-9 -77 -30 0 -20 4 -22 38 -18 20 3 107 11 191 19 l155 14 107 -110 c104 -106
122 -119 133 -100 8 12 91 468 117 635 11 71 22 133 25 138 3 4 1 8 -5 8 -5 0
-85 -79 -178 -175z"/>
</g>
</svg>
