<?xml version="1.0" standalone="no"?>
<!DOCTYPE svg PUBLIC "-//W3C//DTD SVG 20010904//EN"
 "http://www.w3.org/TR/2001/REC-SVG-20010904/DTD/svg10.dtd">
<svg version="1.0" xmlns="http://www.w3.org/2000/svg"
 width="142.000000pt" height="144.000000pt" viewBox="0 0 142.000000 144.000000"
 preserveAspectRatio="xMidYMid meet">
<metadata>
Created by potrace 1.16, written by Peter Selinger 2001-2019
</metadata>
<g transform="translate(0.000000,144.000000) scale(0.100000,-0.100000)"
fill="#000000" stroke="none">
<path d="M933 964 l-168 -177 -98 7 -99 6 -50 55 c-41 45 -53 53 -65 44 -12
-10 -7 -19 29 -57 l43 -44 -112 4 -113 4 0 -46 c0 -64 19 -211 30 -229 6 -10
9 28 10 107 l0 122 112 0 c61 0 109 -2 107 -4 -2 -2 -31 -25 -64 -52 -76 -60
-86 -74 -80 -101 5 -21 2 -23 -30 -23 -31 0 -35 -3 -35 -25 0 -25 1 -26 51
-19 46 6 58 3 115 -27 35 -19 64 -37 64 -40 0 -3 -27 -42 -60 -87 -33 -45 -56
-82 -51 -82 21 0 182 197 196 239 3 12 18 21 38 24 30 4 40 -3 139 -104 59
-60 112 -109 118 -109 6 0 15 10 20 23 10 25 91 464 115 627 9 58 18 113 21
123 3 9 1 17 -4 17 -6 0 -86 -79 -179 -176z m128 20 c-11 -44 -41 -187 -66
-319 -26 -132 -49 -246 -51 -254 -3 -9 -11 -4 -26 15 -12 16 -44 53 -70 82
-26 30 -48 60 -48 68 0 10 -15 14 -60 14 -54 0 -60 2 -60 20 0 25 -23 73 -56
117 l-24 31 64 7 c34 4 81 5 103 4 38 -4 43 -1 99 61 32 36 92 105 133 153 40
48 76 86 78 83 2 -2 -5 -39 -16 -82z m-447 -287 c27 -36 44 -91 29 -100 -4 -3
-49 -7 -98 -8 -89 -3 -90 -3 -90 21 0 17 16 37 60 72 32 26 62 48 66 48 5 0
19 -15 33 -33z m-1 -172 c-9 -19 -20 -35 -25 -35 -12 0 -78 44 -78 52 0 4 24
9 53 11 28 2 55 4 59 5 4 1 0 -14 -9 -33z"/>
</g>
</svg>
