<?xml version="1.0" standalone="no"?>
<!DOCTYPE svg PUBLIC "-//W3C//DTD SVG 20010904//EN"
 "http://www.w3.org/TR/2001/REC-SVG-20010904/DTD/svg10.dtd">
<svg version="1.0" xmlns="http://www.w3.org/2000/svg"
 width="225.000000pt" height="159.000000pt" viewBox="0 0 225.000000 159.000000"
 preserveAspectRatio="xMidYMid meet">
<metadata>
Created by potrace 1.16, written by Peter Selinger 2001-2019
</metadata>
<g transform="translate(0.000000,159.000000) scale(0.100000,-0.100000)"
fill="#000000" stroke="none">
<path d="M1334 1123 c15 -411 19 -473 26 -473 7 0 20 193 20 310 l0 67 278 7
c152 4 281 12 286 17 11 10 26 9 -314 18 l-245 6 -3 108 -3 107 -25 0 -26 0 6
-167z"/>
<path d="M899 1268 c-3 -38 2 -272 7 -326 l6 -63 -293 1 c-162 0 -300 1 -306
0 -23 0 -15 -220 8 -220 4 0 34 31 66 69 58 69 73 77 121 64 23 -6 22 -8 -24
-54 -33 -34 -45 -52 -38 -59 7 -7 27 7 63 45 51 54 75 64 116 49 14 -6 10 -13
-20 -44 -54 -56 -25 -64 31 -9 39 38 49 43 82 40 48 -4 57 -13 32 -36 -19 -18
-27 -45 -13 -45 4 0 23 15 43 34 30 29 40 33 73 29 28 -4 37 -9 33 -20 -11
-27 6 -35 28 -14 22 21 24 21 130 6 59 -8 112 -17 117 -20 10 -7 11 18 11 355
l0 225 -136 3 c-105 2 -136 0 -137 -10z m245 -215 c4 -115 9 -236 12 -270 7
-74 13 -71 -116 -48 -47 8 -86 15 -88 15 -2 0 18 25 44 55 42 49 52 55 88 56
35 2 36 3 11 6 -16 3 -35 9 -40 13 -6 5 -16 6 -22 2 -6 -4 -34 -5 -63 -3 -49
3 -51 4 -48 30 3 23 8 26 43 28 22 2 65 6 95 10 l55 6 -40 8 c-22 4 -64 8 -92
8 -49 1 -53 3 -53 25 0 24 3 25 90 32 50 3 90 10 90 15 0 5 -40 9 -90 9 -89 0
-90 0 -90 25 0 25 1 25 90 25 53 0 90 4 90 10 0 6 -37 10 -90 10 -89 0 -90 0
-90 25 0 24 2 25 68 26 37 1 78 4 92 8 21 6 18 8 -24 14 -27 4 -71 7 -97 7
-45 0 -49 2 -49 25 0 24 2 24 88 28 48 1 97 4 108 5 21 2 22 -1 28 -205z
m-145 -210 c-43 -58 -74 -83 -103 -83 -55 0 -63 14 -31 52 24 28 36 34 84 39
31 3 58 6 60 7 2 1 -2 -6 -10 -15z m-419 -8 c-13 -16 -40 -19 -77 -9 -38 10
-15 24 39 24 44 0 49 -2 38 -15z m130 7 c0 -5 -9 -17 -19 -26 -15 -14 -29 -16
-60 -11 -43 7 -49 13 -29 33 14 14 108 17 108 4z m130 -27 c-34 -35 -52 -40
-109 -29 l-31 6 21 29 c19 27 25 29 87 29 l66 0 -34 -35z m-421 -10 c5 -6 -79
-95 -90 -95 -3 0 -6 25 -5 56 l0 56 45 -6 c24 -3 47 -8 50 -11z"/>
<path d="M616 541 c-3 -5 15 -26 40 -46 25 -20 43 -40 40 -43 -3 -3 -67 -4
-141 -3 -130 2 -135 2 -135 -18 0 -20 5 -21 143 -21 l142 -1 -47 -43 c-35 -33
-44 -46 -35 -55 8 -8 25 2 67 43 l55 54 135 6 135 6 -54 -48 c-37 -32 -52 -52
-47 -61 6 -9 25 3 67 46 l60 58 182 3 c100 1 189 6 197 10 8 4 -52 9 -135 12
l-150 5 133 19 134 19 30 -30 30 -30 -66 -52 c-36 -29 -64 -57 -60 -62 9 -16
19 -10 80 44 32 30 64 56 71 58 16 5 11 11 -64 83 -36 35 -66 55 -73 51 -8 -5
-7 -12 5 -25 9 -10 13 -20 8 -23 -4 -2 -81 -13 -171 -23 l-163 -18 -47 47
c-45 44 -72 59 -72 38 0 -5 18 -25 40 -45 22 -20 40 -38 40 -41 0 -3 -55 -5
-122 -5 l-123 1 -53 49 c-53 50 -66 57 -76 41z"/>
</g>
</svg>
