<?xml version="1.0" standalone="no"?>
<!DOCTYPE svg PUBLIC "-//W3C//DTD SVG 20010904//EN"
 "http://www.w3.org/TR/2001/REC-SVG-20010904/DTD/svg10.dtd">
<svg version="1.0" xmlns="http://www.w3.org/2000/svg"
 width="225.000000pt" height="181.000000pt" viewBox="0 0 225.000000 181.000000"
 preserveAspectRatio="xMidYMid meet">
<metadata>
Created by potrace 1.16, written by Peter Selinger 2001-2019
</metadata>
<g transform="translate(0.000000,181.000000) scale(0.100000,-0.100000)"
fill="#000000" stroke="none">
<path d="M1334 1358 c3 -84 9 -228 12 -320 3 -93 9 -168 14 -168 7 0 20 201
20 316 l0 61 260 8 c407 11 402 33 -8 36 -112 1 -214 4 -228 7 -24 4 -24 6
-24 108 l0 104 -26 0 -26 0 6 -152z"/>
<path d="M899 1483 c-3 -44 2 -245 7 -310 l6 -72 -306 6 -306 6 0 -85 c0 -88
8 -148 19 -148 3 0 33 31 66 70 53 62 64 70 96 70 20 0 39 -3 43 -7 3 -4 -14
-28 -40 -54 -33 -34 -42 -49 -33 -55 9 -5 29 11 63 48 48 52 53 55 89 51 20
-3 37 -8 37 -12 0 -4 -16 -22 -35 -41 -25 -24 -32 -37 -24 -44 8 -8 23 3 53
36 l42 48 52 -7 53 -6 -31 -32 c-46 -48 -19 -57 29 -11 35 34 41 36 80 30 30
-5 39 -10 32 -17 -15 -15 -14 -27 4 -27 7 0 18 7 23 17 9 15 18 15 128 0 65
-9 120 -14 123 -12 2 2 3 132 3 287 l0 283 -136 3 c-124 2 -136 1 -137 -15z
m242 -70 c0 -38 4 -158 8 -268 5 -110 8 -201 6 -203 -1 -1 -48 5 -103 14
l-101 17 46 53 c40 48 50 54 84 54 50 0 51 20 2 21 -159 2 -158 2 -158 29 0
24 3 25 92 34 51 4 90 12 87 17 -3 5 -43 9 -90 9 l-84 0 0 30 0 30 90 0 c53 0
90 4 90 10 0 6 -37 10 -90 10 -89 0 -90 0 -90 25 0 25 1 25 90 25 53 0 90 4
90 10 0 6 -37 10 -90 10 -89 0 -90 0 -90 25 0 23 4 25 44 25 24 0 65 3 92 7
68 9 31 21 -68 22 -76 1 -78 2 -78 26 0 23 3 24 78 28 42 1 92 4 110 5 l32 2
1 -67z m-177 -383 c-48 -49 -52 -51 -92 -44 l-41 6 31 39 c31 38 39 42 113 47
l40 3 -51 -51z m-385 25 c-12 -12 -26 -14 -57 -9 -61 10 -51 24 15 24 52 0 56
-2 42 -15z m115 -10 c-14 -22 -21 -24 -58 -19 -50 8 -52 10 -36 29 8 10 30 15
61 15 l49 0 -16 -25z m145 -11 c-33 -34 -36 -35 -84 -28 -27 3 -52 8 -54 10
-3 2 6 15 19 29 20 22 32 25 89 25 l65 0 -35 -36z m-441 0 c22 -6 21 -8 -20
-53 -23 -25 -45 -47 -49 -49 -3 -1 -6 22 -5 53 0 52 2 55 26 55 14 0 35 -3 48
-6z"/>
<path d="M361 796 c-9 -10 3 -21 55 -52 44 -26 95 -69 148 -127 45 -49 83 -93
85 -99 7 -20 -103 3 -149 31 -50 30 -104 97 -146 178 -22 45 -29 52 -37 38 -6
-12 0 -34 22 -79 38 -78 101 -151 154 -177 46 -24 170 -38 342 -39 l110 -1
-79 -72 c-67 -62 -76 -74 -64 -85 13 -10 28 1 93 68 74 76 79 79 97 63 20 -18
25 -4 6 15 -9 9 1 12 48 12 l59 0 -80 -74 c-65 -60 -78 -77 -67 -87 10 -11 28
2 96 70 51 50 86 79 90 72 10 -15 26 -14 21 2 -4 8 7 12 36 13 l42 0 -79 -72
c-64 -59 -77 -75 -66 -85 10 -11 28 2 96 70 51 50 86 79 90 72 4 -6 12 -11 17
-11 6 0 7 4 4 10 -4 7 53 10 164 10 102 0 172 4 176 10 4 6 -39 10 -123 10
-143 0 -224 8 -216 21 3 5 1 9 -5 9 -5 0 -13 -5 -17 -11 -4 -7 -39 22 -90 72
-68 68 -86 81 -96 70 -11 -10 1 -26 60 -82 l74 -69 -37 0 c-21 0 -34 4 -30 10
3 6 2 10 -4 10 -5 0 -13 -5 -17 -11 -4 -7 -39 22 -90 72 -68 68 -86 81 -96 70
-11 -10 1 -26 59 -82 l73 -69 -40 0 c-29 0 -40 4 -40 15 0 13 -3 13 -20 3 -18
-11 -28 -5 -100 67 -67 66 -80 76 -86 60 -6 -13 7 -32 53 -76 l61 -59 -58 0
c-31 0 -84 3 -118 6 l-61 7 -66 89 c-93 124 -227 227 -254 194z"/>
</g>
</svg>
