<?xml version="1.0" standalone="no"?>
<!DOCTYPE svg PUBLIC "-//W3C//DTD SVG 20010904//EN"
 "http://www.w3.org/TR/2001/REC-SVG-20010904/DTD/svg10.dtd">
<svg version="1.0" xmlns="http://www.w3.org/2000/svg"
 width="273.000000pt" height="442.000000pt" viewBox="0 0 273.000000 442.000000"
 preserveAspectRatio="xMidYMid meet">
<metadata>
Created by potrace 1.16, written by Peter Selinger 2001-2019
</metadata>
<g transform="translate(0.000000,442.000000) scale(0.100000,-0.100000)"
fill="#000000" stroke="none">
<path d="M1381 4108 c0 -7 25 -33 54 -58 29 -25 52 -50 50 -56 -2 -6 7 -11 21
-11 13 0 24 5 24 12 0 7 23 33 50 59 47 44 61 66 42 66 -4 0 -30 -22 -57 -50
-27 -27 -54 -50 -60 -50 -6 0 -33 23 -60 50 -50 51 -66 60 -64 38z"/>
<path d="M955 4011 c-4 -7 -4 -99 0 -204 l7 -192 -303 0 -304 0 3 -105 c2 -58
7 -109 11 -113 7 -7 50 35 112 109 23 28 29 30 68 25 l42 -6 -45 -45 c-43 -41
-58 -70 -37 -70 4 0 32 25 60 55 50 53 54 55 92 49 l40 -7 -36 -37 c-58 -59
-33 -72 25 -15 48 47 48 47 95 39 l47 -9 -27 -29 c-18 -20 -23 -32 -16 -39 7
-7 20 0 42 26 31 37 51 43 97 31 17 -5 20 -10 12 -19 -18 -22 9 -29 31 -9 18
16 27 16 122 5 56 -7 110 -15 120 -17 16 -5 17 13 17 285 l0 291 -43 0 c-24 0
-84 3 -134 6 -66 5 -92 4 -98 -5z m248 -288 c4 -147 5 -268 4 -270 -3 -3 -189
28 -196 33 -2 2 16 26 40 53 40 46 48 51 87 51 23 0 42 5 42 10 0 11 -38 14
-138 10 l-63 -2 3 34 3 33 93 3 c122 4 120 22 -3 22 l-95 0 0 30 0 30 89 0
c121 0 129 18 9 22 -88 3 -93 4 -96 26 -3 21 0 22 75 23 102 1 137 13 63 22
-30 4 -74 7 -97 7 -35 0 -43 3 -43 19 0 24 26 31 118 31 46 0 71 4 67 10 -3 6
-46 10 -96 10 -87 0 -89 0 -89 24 0 32 8 34 121 35 l96 1 6 -267z m-308 -173
c-35 -36 -43 -39 -75 -34 -61 10 -62 11 -44 38 14 22 25 26 82 29 37 2 69 4
72 5 2 1 -14 -16 -35 -38z m130 -10 c-49 -49 -51 -50 -93 -42 l-43 7 33 43
c32 41 33 42 93 42 l60 0 -50 -50z m-508 34 c-3 -3 -12 -4 -19 -1 -8 3 -5 6 6
6 11 1 17 -2 13 -5z m113 -9 c-11 -10 -26 -13 -53 -8 -54 8 -45 23 15 23 46 0
51 -2 38 -15z m121 -9 c-19 -20 -30 -23 -60 -19 -44 7 -45 8 -38 28 5 11 21
15 63 15 l57 0 -22 -24z m-284 -15 c9 -5 -3 -23 -37 -56 l-50 -49 0 61 0 62
38 -6 c20 -3 43 -9 49 -12z"/>
<path d="M1400 3999 c0 -6 20 -29 45 -51 24 -21 42 -44 39 -51 -2 -7 5 -12 21
-12 14 0 23 5 21 10 -2 6 17 31 42 57 60 62 46 76 -16 15 l-48 -47 -44 45
c-45 46 -60 54 -60 34z"/>
<path d="M1405 3920 c-5 -7 11 -28 41 -54 31 -28 45 -47 40 -55 -6 -9 -17 -4
-41 19 -21 20 -35 28 -40 21 -3 -7 14 -30 41 -54 31 -29 45 -48 40 -56 -6 -9
-17 -4 -41 19 -22 22 -35 28 -40 20 -4 -7 12 -29 41 -55 l49 -44 -68 -1 -67 0
2 -131 3 -132 135 6 136 6 47 -65 c56 -77 108 -105 196 -107 47 -1 67 5 126
36 88 48 98 55 110 92 l10 30 105 6 c58 4 126 7 153 8 l47 1 0 119 0 118 -150
8 c-82 4 -150 11 -150 16 0 5 -7 9 -15 9 -19 0 -19 -8 0 -53 21 -51 18 -140
-8 -221 l-22 -69 -75 -33 c-89 -40 -131 -42 -218 -11 -66 23 -72 29 -124 141
-19 42 -14 132 11 198 21 54 26 59 88 90 100 49 155 44 321 -29 6 -3 12 -1 12
4 0 12 -101 69 -158 89 -61 20 -113 12 -200 -31 -52 -27 -72 -42 -85 -70 -16
-34 -19 -35 -71 -35 -30 0 -57 4 -60 8 -3 5 15 25 39 46 25 20 45 44 45 51 0
22 -10 18 -42 -12 -19 -18 -31 -24 -38 -17 -8 8 3 24 35 53 42 39 56 61 37 61
-4 0 -28 -20 -52 -45 -26 -27 -48 -41 -53 -36 -14 14 1 31 20 24 12 -5 15 -2
10 10 -4 11 8 28 38 54 41 35 57 63 37 63 -4 0 -28 -20 -52 -45 l-44 -45 -47
46 c-31 31 -49 42 -54 34z m110 -210 c-5 -8 -11 -8 -17 -2 -6 6 -7 16 -3 22 5
8 11 8 17 2 6 -6 7 -16 3 -22z m111 -85 c-15 -59 -18 -116 -7 -146 l11 -32
-38 7 c-20 3 -74 6 -119 6 l-83 0 0 78 c0 42 4 82 8 89 5 8 44 13 107 16 55 1
106 4 114 5 9 1 11 -5 7 -23z m777 -72 c4 -53 6 -98 4 -99 -1 -1 -59 0 -130 3
l-127 6 7 36 c8 38 7 82 -2 118 -5 22 -3 22 102 26 60 1 115 4 124 5 13 2 17
-14 22 -95z"/>
<path d="M1310 3172 c0 -134 12 -302 22 -302 4 0 8 21 8 48 0 26 3 77 7 115
l6 67 126 0 c69 0 164 3 211 7 133 11 62 21 -152 22 l-188 1 0 65 c0 58 -2 65
-20 65 -18 0 -20 -7 -20 -88z"/>
<path d="M430 3125 l0 -65 -62 2 c-53 2 -63 0 -66 -15 -3 -15 5 -17 61 -17 72
0 77 -4 77 -71 0 -21 5 -39 10 -39 6 0 10 25 10 55 0 48 3 55 19 55 16 0 21
-10 26 -55 4 -30 11 -55 16 -55 5 0 9 25 9 55 0 52 1 55 25 55 23 0 25 -3 25
-49 0 -28 5 -53 10 -56 6 -4 10 15 10 50 0 56 0 56 28 53 25 -3 27 -7 30 -55
4 -70 22 -68 22 2 0 51 2 55 24 55 28 0 36 -16 36 -71 0 -21 5 -39 10 -39 6 0
10 24 10 54 0 52 1 54 30 58 17 3 32 2 35 0 3 -3 5 -27 5 -53 0 -69 18 -71 22
-2 l3 58 187 5 187 5 7 -39 c11 -65 24 -21 24 82 0 92 -8 111 -34 77 -7 -9
-62 -21 -166 -35 -85 -11 -167 -22 -182 -25 -27 -4 -28 -3 -28 40 0 33 -4 45
-15 45 -11 0 -15 -12 -15 -44 0 -37 -4 -45 -22 -50 -37 -9 -38 -8 -38 44 0 41
-3 50 -18 50 -14 0 -17 -7 -13 -46 2 -32 -1 -49 -10 -55 -31 -19 -39 -10 -39
46 0 42 -3 55 -15 55 -12 0 -15 -13 -15 -55 0 -30 -4 -55 -9 -55 -5 0 -16 -3
-25 -6 -14 -5 -16 3 -16 55 0 48 -3 61 -15 61 -12 0 -15 -13 -15 -59 0 -50 -3
-59 -20 -64 -18 -5 -20 0 -20 59 0 58 -2 64 -20 64 -19 0 -20 -4 -14 -65 6
-62 6 -65 -15 -65 -19 0 -21 5 -21 65 0 51 -3 65 -15 65 -12 0 -15 -14 -15
-65z m800 -31 l0 -34 -192 0 c-105 0 -189 2 -187 4 2 2 83 18 179 35 96 18
176 34 178 36 11 11 22 -9 22 -41z"/>
<path d="M1935 3130 l-40 -60 -152 0 c-95 0 -153 -4 -153 -10 0 -6 55 -10 145
-10 80 0 145 -3 145 -7 0 -5 -7 -16 -14 -25 -11 -16 -31 -18 -139 -18 -73 0
-128 -4 -132 -10 -4 -6 40 -10 124 -10 l130 0 -8 -22 c-8 -22 -14 -23 -130
-26 -156 -3 -153 -22 4 -22 94 0 114 -3 119 -16 3 -9 6 -18 6 -20 0 -2 -54 -4
-120 -4 -73 0 -120 -4 -120 -10 0 -6 48 -10 123 -10 122 0 124 0 135 -25 l12
-25 -135 0 c-83 0 -135 -4 -135 -10 0 -6 53 -10 139 -10 136 0 139 0 155 -25
9 -13 16 -27 16 -30 0 -3 -70 -5 -155 -5 -97 0 -155 -4 -155 -10 0 -6 62 -10
165 -10 l164 0 26 -37 c14 -21 25 -44 25 -52 0 -8 3 -11 7 -8 3 4 12 2 20 -4
17 -15 16 1 -1 23 -13 18 -13 150 0 254 l5 41 142 6 c78 4 172 7 210 7 38 0
67 4 67 10 0 6 -77 10 -210 10 l-210 0 0 120 c0 108 -2 120 -17 120 -11 0 -35
-26 -58 -60z m45 -25 c0 -31 -3 -35 -25 -35 l-25 0 22 35 c13 19 24 35 26 35
1 0 2 -16 2 -35z m-10 -80 c0 -22 -4 -25 -40 -25 -39 0 -39 1 -28 25 8 18 19
25 40 25 23 0 28 -4 28 -25z m0 -60 c0 -10 -10 -15 -30 -15 -16 0 -30 -4 -30
-10 0 -5 -9 -10 -20 -10 -13 0 -20 7 -20 18 0 27 9 32 57 32 32 0 43 -4 43
-15z m0 -70 c0 -23 -3 -25 -50 -25 -43 0 -50 3 -50 19 0 15 8 21 38 24 20 2
43 4 50 5 7 1 12 -9 12 -23z m0 -71 c0 -23 -3 -25 -36 -22 -27 2 -39 9 -45 26
-8 21 -6 22 36 22 42 0 45 -2 45 -26z m0 -80 c0 -43 -17 -42 -43 4 l-19 32 31
0 c29 0 31 -2 31 -36z m10 -54 c0 -5 -4 -10 -10 -10 -5 0 -10 5 -10 10 0 6 5
10 10 10 6 0 10 -4 10 -10z"/>
<path d="M955 1591 c-4 -7 -4 -99 0 -205 l7 -192 -303 0 -304 1 3 -105 c2 -58
7 -109 11 -113 5 -5 38 25 75 65 61 69 68 74 101 70 19 -2 35 -7 35 -9 0 -3
-18 -25 -40 -49 -22 -24 -40 -48 -40 -54 0 -15 28 -12 37 4 4 7 25 32 46 55
35 39 40 41 78 35 l40 -7 -36 -37 c-57 -58 -34 -73 24 -16 46 45 48 46 94 40
26 -4 47 -9 47 -13 0 -3 -12 -17 -26 -30 -18 -17 -22 -27 -14 -35 8 -8 20 0
43 28 31 37 35 38 75 31 34 -5 41 -10 32 -20 -18 -22 8 -30 31 -9 18 16 27 16
117 5 53 -7 107 -15 120 -18 l22 -5 0 291 0 291 -52 0 c-29 0 -89 3 -134 6
-59 5 -83 3 -89 -5z m245 -154 c0 -74 3 -195 7 -271 l6 -137 -39 7 c-21 3 -68
11 -102 17 l-64 12 43 53 c39 48 46 52 86 52 24 0 43 5 43 10 0 11 -38 14
-137 10 l-63 -2 0 31 c0 17 5 32 10 32 6 1 19 3 30 4 11 1 50 3 86 4 101 2 68
21 -37 21 l-89 0 0 30 0 30 89 0 c50 0 93 5 96 10 4 6 -28 10 -89 10 -96 0
-96 0 -96 25 0 24 2 25 73 26 107 1 139 13 58 22 -35 4 -79 7 -97 7 -27 0 -34
4 -34 19 0 21 40 31 133 31 36 0 56 4 52 10 -3 6 -46 10 -96 10 -88 0 -89 0
-89 24 0 30 11 33 128 35 l92 1 0 -133z m-175 -317 c-49 -49 -51 -50 -93 -42
l-43 7 33 43 c32 41 33 42 93 42 l60 0 -50 -50z m-508 34 c-3 -3 -12 -4 -19
-1 -8 3 -5 6 6 6 11 1 17 -2 13 -5z m113 -9 c-11 -10 -26 -13 -53 -8 -54 8
-45 23 15 23 46 0 51 -2 38 -15z m121 -9 c-19 -20 -30 -23 -60 -19 -44 7 -45
8 -38 28 5 11 21 15 63 15 l57 0 -22 -24z m139 -11 c-30 -31 -38 -34 -70 -29
-61 10 -62 11 -44 39 15 23 23 25 82 25 l66 0 -34 -35z m-414 -8 c2 -2 -19
-25 -46 -52 l-50 -49 0 61 0 60 47 -8 c25 -5 48 -10 49 -12z"/>
<path d="M1439 1368 c-89 -73 -95 -79 -82 -84 10 -4 10 -10 1 -24 -27 -43 7
-30 61 24 l59 59 66 -54 c36 -30 66 -60 66 -68 0 -15 -14 -6 -82 58 -42 38
-31 42 -125 -37 -29 -25 -50 -48 -47 -54 3 -5 33 15 67 45 l62 54 60 -50 c33
-28 63 -61 67 -74 6 -21 1 -19 -40 18 -26 23 -55 50 -64 61 -17 20 -19 19 -83
-32 -36 -28 -65 -58 -65 -66 0 -15 16 -19 22 -6 2 4 24 27 50 51 l48 43 70
-57 c38 -31 70 -62 70 -68 0 -6 -19 7 -42 29 -88 82 -82 79 -119 47 -85 -73
-103 -92 -97 -98 4 -4 33 16 65 44 31 28 59 51 63 51 14 0 130 -104 130 -116
0 -29 29 -24 106 20 77 43 79 44 84 23 5 -20 7 -20 13 -4 4 10 7 30 7 44 0 24
5 21 69 -40 93 -90 111 -96 164 -55 53 42 86 79 87 97 0 10 -6 8 -20 -7 -11
-12 -45 -40 -74 -62 l-54 -41 -55 58 c-30 32 -65 70 -77 86 -12 15 -26 25 -31
22 -5 -4 -9 2 -8 12 0 10 37 50 82 90 l82 71 29 -16 c16 -10 50 -37 77 -60 31
-28 49 -38 49 -29 0 19 -108 116 -137 123 -24 6 -94 -39 -142 -90 -28 -29 -41
-33 -41 -11 0 8 -8 15 -18 15 -10 0 -54 20 -97 45 -43 24 -81 43 -83 41 -2 -3
-10 -21 -17 -42 l-13 -37 -49 46 c-28 26 -53 47 -56 47 -3 0 -29 -19 -58 -42z
m112 -29 c33 -28 59 -58 59 -66 0 -9 -23 5 -59 36 -32 28 -62 51 -67 51 -4 0
-31 -19 -58 -42 l-51 -41 55 56 c30 32 56 57 58 57 2 0 31 -23 63 -51z m206
-36 l42 -18 3 -67 3 -67 -74 -33 c-41 -18 -78 -34 -83 -36 -10 -4 -11 120 -2
206 l7 61 31 -13 c17 -8 50 -22 73 -33z"/>
<path d="M2266 1335 c-86 -46 -106 -58 -106 -67 0 -18 34 -5 100 37 l70 45 0
-141 c0 -109 -3 -139 -12 -133 -7 4 -41 25 -76 47 -43 27 -67 36 -74 29 -7 -7
10 -21 54 -45 78 -44 117 -62 122 -56 10 10 9 313 -1 316 -6 2 -40 -12 -77
-32z"/>
<path d="M603 878 c-11 -13 -33 -42 -48 -65 -15 -24 -31 -40 -36 -37 -5 3 -9
-4 -9 -16 0 -11 -9 -38 -20 -60 -39 -77 -17 -165 75 -296 25 -36 45 -72 45
-81 0 -9 3 -13 7 -10 3 4 12 2 20 -4 16 -14 17 -5 2 23 -7 13 -8 65 -4 159 l8
139 191 1 c239 2 299 12 121 22 -71 4 -172 7 -224 7 l-94 0 7 120 c6 99 5 120
-7 120 -7 0 -23 -10 -34 -22z m7 -73 c0 -28 -4 -35 -20 -35 -11 0 -20 3 -20 6
0 7 33 64 37 64 2 0 3 -16 3 -35z m-3 -89 c-5 -12 -77 -10 -77 3 1 17 18 30
45 33 30 3 42 -10 32 -36z m1 -43 c2 -8 -6 -13 -20 -13 -27 0 -78 -21 -78 -32
0 -5 23 -8 50 -8 43 0 50 -3 50 -20 0 -18 -7 -20 -55 -20 l-55 0 0 38 c0 20 4
42 8 48 14 23 92 28 100 7z m2 -143 c0 -30 -1 -31 -37 -24 -38 7 -53 18 -53
42 0 8 16 12 45 12 43 0 45 -1 45 -30z m0 -100 c0 -27 -2 -50 -4 -50 -4 0 -56
89 -56 96 0 2 14 4 30 4 29 0 30 -1 30 -50z"/>
<path d="M1219 838 c-3 -45 3 -273 8 -320 9 -93 23 -56 23 63 l0 109 123 0
c161 0 317 11 292 21 -11 4 -105 7 -209 8 -104 1 -193 4 -199 8 -6 3 -7 30 -3
64 5 54 4 59 -14 59 -11 0 -20 -6 -21 -12z"/>
<path d="M1512 555 l3 -65 -68 0 c-60 0 -68 -2 -65 -17 3 -15 16 -19 71 -21
l67 -3 1 -32 c1 -18 5 -43 9 -57 7 -20 8 -16 10 25 1 28 2 53 1 58 0 4 10 7
24 7 23 0 25 -3 25 -49 0 -28 5 -53 10 -56 6 -4 10 15 10 49 0 52 2 56 24 56
24 0 36 -28 36 -87 0 -14 4 -21 10 -18 6 3 10 28 10 56 0 45 2 49 24 49 21 0
25 -6 32 -57 l8 -58 9 63 c9 56 12 63 31 60 16 -2 22 -11 24 -38 1 -19 6 -46
9 -60 6 -19 9 -11 13 35 5 59 6 60 37 63 l32 3 7 -60 c8 -74 24 -71 24 5 l0
54 130 2 c72 1 156 2 188 3 l57 0 3 -32 c8 -83 32 6 32 120 0 37 -3 47 -16 47
-9 0 -22 -6 -28 -14 -9 -11 -286 -56 -349 -56 -12 0 -17 11 -19 43 -2 29 -8
42 -18 42 -12 0 -14 -11 -12 -47 l3 -48 -35 0 -36 0 0 50 c0 38 -4 50 -15 50
-12 0 -15 -13 -15 -55 0 -47 -3 -55 -19 -55 -20 0 -31 26 -31 78 0 23 -5 32
-16 32 -14 0 -16 -10 -12 -60 4 -57 3 -60 -18 -60 -21 0 -23 5 -26 58 -2 43
-7 57 -18 57 -12 0 -14 -12 -12 -62 3 -62 3 -63 -22 -63 -25 0 -26 2 -26 65 0
51 -3 65 -15 65 -12 0 -15 -14 -15 -66 0 -57 -2 -65 -17 -62 -15 3 -19 16 -21
66 -2 48 -6 62 -18 62 -13 0 -15 -12 -12 -65z m798 -36 l0 -41 -184 3 c-101 2
-182 7 -179 12 2 4 19 7 36 8 18 0 93 13 167 29 74 15 141 28 148 29 8 1 12
-13 12 -40z"/>
</g>
</svg>
