<?xml version="1.0" standalone="no"?>
<!DOCTYPE svg PUBLIC "-//W3C//DTD SVG 20010904//EN"
 "http://www.w3.org/TR/2001/REC-SVG-20010904/DTD/svg10.dtd">
<svg version="1.0" xmlns="http://www.w3.org/2000/svg"
 width="177.000000pt" height="454.000000pt" viewBox="0 0 177.000000 454.000000"
 preserveAspectRatio="xMidYMid meet">
<metadata>
Created by potrace 1.16, written by Peter Selinger 2001-2019
</metadata>
<g transform="translate(0.000000,454.000000) scale(0.100000,-0.100000)"
fill="#000000" stroke="none">
<path d="M1204 4121 l7 -118 -123 -7 c-68 -4 -226 -16 -352 -26 l-229 -19 -98
49 c-69 35 -100 46 -105 38 -4 -7 -3 -13 2 -15 5 -2 43 -19 84 -37 66 -29 75
-37 78 -62 3 -28 -1 -31 -77 -64 -45 -19 -81 -41 -81 -47 0 -19 4 -17 102 32
77 39 95 44 129 39 22 -4 41 -10 44 -14 2 -4 -32 -23 -77 -44 -59 -26 -79 -39
-71 -47 8 -8 36 2 102 36 75 39 96 46 123 40 63 -14 61 -20 -22 -57 -44 -20
-80 -41 -80 -47 0 -19 23 -12 109 35 l84 45 54 -12 c30 -7 56 -15 58 -19 2 -4
-32 -22 -76 -41 -44 -18 -83 -37 -86 -42 -15 -24 18 -16 106 27 l98 49 53 -13
53 -13 -61 -28 c-34 -15 -70 -30 -82 -34 -17 -5 -30 -35 -15 -35 3 0 46 20 96
45 l90 46 59 -13 c33 -6 57 -15 52 -18 -4 -4 -45 -24 -92 -44 -98 -44 -94 -41
-86 -55 5 -7 47 9 114 43 l107 53 58 -15 59 -15 -89 -39 c-101 -46 -97 -43
-88 -57 4 -7 42 7 106 40 l99 51 65 -15 c36 -8 65 -11 65 -6 0 9 25 2 -325 94
-426 112 -556 148 -551 152 2 2 46 8 97 14 592 62 539 51 539 105 l0 44 90 0
c53 0 90 4 90 10 0 6 -37 10 -90 10 -83 0 -90 1 -90 20 0 16 7 20 38 20 20 0
61 3 90 7 76 9 45 23 -50 23 -69 0 -78 2 -78 18 0 17 12 20 102 26 55 3 103 4
105 2 3 -2 9 -111 14 -242 5 -131 12 -240 14 -243 3 -2 5 111 5 252 l0 257
-136 0 -137 0 7 -119z"/>
<path d="M1134 3255 c-4 -9 -4 -116 -1 -236 6 -200 2 -241 -18 -209 -6 9 -146
118 -171 133 -7 4 -14 0 -18 -8 -4 -10 27 -37 104 -91 61 -41 110 -80 110 -86
0 -7 -29 -8 -87 -3 -72 5 -93 11 -113 30 -57 51 -173 135 -181 129 -19 -11 -6
-25 82 -86 l91 -63 -77 -3 c-75 -3 -77 -2 -123 36 -26 21 -71 55 -99 76 -45
32 -54 35 -59 21 -4 -9 -5 -17 -3 -18 2 -2 37 -25 77 -52 41 -28 76 -53 79
-58 3 -4 -37 -7 -87 -6 l-92 2 -57 46 c-31 26 -80 64 -109 85 -79 57 -82 51
-82 -153 0 -111 4 -171 11 -178 13 -13 23 -8 145 78 l81 58 59 -6 c93 -9 94
-13 9 -77 -67 -50 -85 -76 -54 -76 6 0 47 31 92 69 l82 68 58 -5 c31 -2 59 -8
62 -12 2 -3 -29 -31 -70 -61 -69 -51 -92 -79 -62 -79 7 0 51 31 98 69 l85 70
85 -7 84 -7 -92 -70 c-71 -53 -90 -72 -81 -82 11 -14 37 3 147 100 58 50 77
55 165 39 l39 -7 -79 -59 c-43 -33 -81 -61 -83 -63 -3 -2 0 -8 7 -15 12 -12
39 6 137 91 l55 48 95 -5 95 -5 0 322 0 321 -52 0 c-29 0 -104 3 -165 7 -102
5 -113 4 -119 -12z m306 -168 c0 -85 3 -222 7 -306 l6 -152 -69 7 c-38 4 -71
8 -73 10 -2 2 2 10 9 19 16 19 6 19 -24 0 -31 -21 -183 -10 -165 11 8 10 8 14
1 14 -6 0 -14 -5 -18 -11 -7 -12 -163 -3 -177 11 -21 19 35 35 134 38 57 2
106 6 109 8 2 3 -1 14 -8 24 -7 11 -12 33 -12 50 l0 30 74 0 c40 0 95 3 122 7
75 10 27 21 -93 22 l-103 1 0 34 0 33 68 6 c37 4 88 7 114 7 26 0 50 4 53 10
3 6 -39 10 -112 12 -116 3 -118 3 -121 27 -2 13 2 28 10 32 7 5 59 9 115 9 57
0 105 4 108 10 4 6 -11 10 -38 10 -24 0 -78 3 -120 6 -76 7 -77 7 -77 35 l0
29 98 1 c53 1 108 4 122 8 21 6 18 8 -24 14 -27 4 -82 7 -122 7 l-74 0 0 35 0
34 108 4 c59 1 122 4 140 5 l32 2 0 -153z m-912 -352 c-2 -12 -38 -41 -103
-82 -54 -34 -100 -61 -101 -60 -1 1 0 68 3 149 l6 147 99 -67 c74 -51 98 -72
96 -87z m205 -22 c-7 -2 -19 -2 -25 0 -7 3 -2 5 12 5 14 0 19 -2 13 -5z m182
-9 c-15 -11 -33 -13 -75 -8 -92 11 -89 22 5 23 82 0 88 -1 70 -15z"/>
<path d="M1132 2201 c-3 -7 -2 -121 1 -253 l7 -239 -373 1 c-204 0 -378 1
-386 0 -11 0 -13 -21 -7 -121 11 -180 7 -178 107 -70 86 93 94 98 158 85 l31
-6 -55 -61 c-30 -33 -55 -64 -55 -68 0 -27 27 -10 82 51 l63 71 50 -7 c28 -3
52 -8 54 -10 2 -2 -17 -25 -42 -51 -32 -33 -43 -51 -36 -58 7 -7 28 9 65 48
59 63 49 61 158 40 l28 -5 -38 -39 c-28 -28 -35 -42 -27 -50 8 -8 23 2 53 35
44 48 62 53 129 40 30 -6 31 -8 15 -25 -15 -17 -15 -19 0 -25 10 -4 23 2 35
17 l19 23 133 -18 c74 -9 142 -20 152 -22 16 -5 17 17 17 360 l0 365 -166 3
c-134 2 -168 0 -172 -11z m309 -183 c0 -95 4 -249 8 -343 5 -93 8 -171 7 -172
-3 -3 -250 39 -255 43 -2 2 20 33 49 69 l52 65 54 0 c30 0 54 5 54 10 0 6 -20
10 -45 10 -28 0 -45 4 -45 12 0 9 -3 9 -12 0 -13 -13 -53 -15 -110 -6 -36 6
-38 8 -38 45 l0 39 103 1 c122 1 168 12 87 22 -30 4 -85 7 -122 7 l-68 0 0 34
0 33 120 8 c68 4 118 11 114 16 -3 5 -57 9 -120 9 l-114 0 0 29 0 29 120 7
c66 4 117 11 114 16 -3 5 -57 9 -120 9 l-114 0 0 35 0 35 114 0 c63 0 117 4
120 9 6 9 -96 21 -181 21 l-53 0 0 35 0 34 123 4 c67 1 130 4 140 5 16 2 17
-12 18 -170z m-382 -389 l-42 -51 -55 7 c-91 11 -95 15 -58 57 22 25 32 27
108 31 45 1 85 4 86 5 2 1 -15 -21 -39 -49z m211 47 c0 -2 -26 -31 -57 -65
l-58 -60 -58 11 -58 10 23 27 c75 86 66 81 140 81 37 0 68 -2 68 -4z m-694
-15 c-5 -8 -56 -3 -56 5 0 2 14 4 31 4 16 0 28 -4 25 -9z m148 -12 c-18 -17
-27 -19 -69 -12 -79 13 -69 33 16 33 l73 0 -20 -21z m149 -10 c-30 -30 -33
-31 -87 -25 l-56 7 16 25 c15 22 23 24 87 24 l72 0 -32 -31z m-359 -19 c17 -6
11 -15 -47 -76 l-66 -69 -1 83 0 83 48 -7 c26 -4 56 -10 66 -14z"/>
<path d="M1133 851 l5 -229 -28 -27 c-27 -26 -32 -27 -102 -22 -40 3 -75 6
-78 6 -2 1 1 6 8 13 22 22 12 32 -11 10 -19 -18 -35 -22 -91 -22 -60 0 -67 2
-56 15 7 8 8 15 2 15 -5 0 -15 -7 -22 -15 -8 -10 -30 -15 -63 -15 -40 0 -48 3
-39 12 22 22 12 32 -11 10 -20 -19 -36 -22 -147 -24 l-125 -3 2 -115 c3 -130
8 -163 26 -158 7 3 55 54 107 114 92 106 95 109 140 112 l45 3 -68 -69 c-58
-58 -66 -70 -53 -81 12 -10 26 1 83 68 l68 80 65 1 64 0 -64 -65 c-52 -52 -62
-67 -52 -77 13 -13 30 1 128 113 31 35 34 36 110 38 l78 2 -19 -23 c-11 -12
-41 -45 -67 -73 -32 -33 -44 -53 -37 -60 10 -10 84 60 136 128 20 26 25 28 88
25 l67 -3 -56 -62 c-39 -42 -53 -64 -44 -69 8 -5 37 19 81 67 37 41 72 75 78
75 5 1 37 2 72 3 71 3 54 19 -21 20 l-43 1 20 26 c35 44 24 51 -17 11 -33 -32
-44 -37 -85 -37 l-47 0 0 39 0 39 120 7 c66 4 117 11 114 16 -3 5 -57 9 -120
9 l-114 0 0 40 0 40 114 0 c63 0 117 4 120 9 6 9 -89 21 -175 21 -59 0 -59 0
-59 30 l0 30 98 1 c53 1 108 4 122 8 21 6 18 8 -24 14 -27 4 -82 7 -122 7
l-74 0 0 30 c0 29 2 30 43 30 82 0 196 13 191 21 -3 5 -57 9 -120 9 l-114 0 0
33 0 34 98 6 c53 4 115 7 138 7 l41 0 7 -312 c11 -450 23 -469 25 -37 l1 366
-67 6 c-38 4 -115 7 -172 7 l-104 0 6 -229z m7 -266 c0 -8 -4 -15 -10 -15 -5
0 -7 7 -4 15 4 8 8 15 10 15 2 0 4 -7 4 -15z m-579 -72 c-5 -10 -43 -51 -85
-92 l-75 -74 1 91 0 92 84 0 c78 0 84 -1 75 -17z"/>
</g>
</svg>
