<?xml version="1.0" standalone="no"?>
<!DOCTYPE svg PUBLIC "-//W3C//DTD SVG 20010904//EN"
 "http://www.w3.org/TR/2001/REC-SVG-20010904/DTD/svg10.dtd">
<svg version="1.0" xmlns="http://www.w3.org/2000/svg"
 width="185.000000pt" height="246.000000pt" viewBox="0 0 185.000000 246.000000"
 preserveAspectRatio="xMidYMid meet">
<metadata>
Created by potrace 1.16, written by Peter Selinger 2001-2019
</metadata>
<g transform="translate(0.000000,246.000000) scale(0.100000,-0.100000)"
fill="#000000" stroke="none">
<path d="M1130 2150 c0 -5 42 -29 93 -53 l92 -43 -62 -13 -62 -13 -101 52
c-72 36 -105 49 -113 41 -7 -7 13 -20 66 -45 41 -19 85 -37 97 -41 29 -9 20
-16 -42 -30 -53 -12 -54 -12 -140 31 -91 45 -108 51 -108 34 0 -5 37 -26 82
-47 l81 -37 -51 -13 -52 -13 -99 49 c-89 45 -111 51 -111 31 0 -4 41 -25 91
-46 l91 -39 -64 -16 -63 -15 -83 43 c-45 24 -89 43 -97 43 -34 0 -10 -19 67
-55 l83 -38 -48 -12 c-48 -13 -49 -13 -133 32 -51 27 -91 42 -101 39 -23 -9
-11 -17 80 -57 l79 -33 -47 -13 c-47 -11 -49 -11 -135 33 -49 24 -96 44 -105
44 -14 0 -16 -14 -14 -117 2 -126 6 -153 20 -153 5 0 9 8 9 18 1 11 29 31 88
60 88 43 112 47 196 36 l47 -7 -83 -49 c-98 -59 -94 -56 -82 -68 5 -5 46 15
105 55 l96 64 62 -7 62 -7 -88 -52 c-62 -37 -82 -54 -71 -58 15 -6 149 73 164
96 6 10 157 13 167 2 4 -3 -30 -28 -76 -56 -97 -58 -93 -55 -81 -67 7 -7 42
12 105 55 100 69 110 71 215 59 l52 -7 7 -109 7 -109 140 3 139 3 -1 270 c0
158 -5 274 -10 279 -6 6 -34 4 -78 -6 l-68 -17 -95 49 c-95 50 -119 58 -119
40z m334 -167 c3 -49 8 -166 12 -262 l6 -174 -77 6 c-43 4 -98 7 -122 7 -36 0
-43 3 -43 20 0 18 7 20 83 21 106 1 143 13 67 22 -30 4 -76 7 -102 7 -41 0
-48 3 -48 20 0 19 7 20 100 20 60 0 100 4 100 10 0 6 -40 10 -100 10 l-100 0
0 35 c0 28 -4 36 -22 40 -25 5 -434 50 -563 62 l-80 7 59 18 c33 10 146 41
250 68 105 27 272 72 371 99 99 27 185 49 191 50 8 1 14 -30 18 -86z m-1029
-108 c28 -12 35 -21 35 -43 0 -25 -7 -31 -70 -59 l-70 -31 0 89 0 89 35 -15
c19 -8 51 -22 70 -30z"/>
<path d="M796 1145 c-4 -11 3 -19 20 -25 39 -15 224 -92 224 -94 0 -1 -45 0
-100 2 -99 3 -101 4 -226 64 -99 47 -128 57 -135 47 -11 -18 -9 -20 104 -65
l97 -39 -60 -3 c-44 -2 -60 -7 -60 -17 0 -11 19 -15 80 -17 l80 -3 -135 -55
c-74 -30 -135 -59 -135 -63 0 -24 42 -12 156 43 71 33 131 64 134 69 3 4 149
11 326 14 l321 6 7 -305 c4 -167 9 -311 13 -320 5 -14 -10 -16 -138 -12 l-144
4 0 34 0 35 123 3 c67 1 122 6 122 11 0 5 -54 12 -120 16 l-120 7 0 29 0 29
103 1 c120 1 168 12 93 22 -27 4 -82 7 -122 7 l-74 0 0 30 0 30 93 1 c50 1
106 4 122 8 l30 7 -40 7 c-22 4 -77 7 -122 7 -81 0 -83 0 -84 25 -1 14 -2 30
-3 37 -1 9 34 13 119 16 113 4 134 6 124 16 -2 2 -58 6 -124 8 l-120 5 -3 86
-3 87 35 17 c19 9 33 20 30 25 -3 4 -14 3 -24 -2 -11 -6 -30 -8 -43 -4 -18 4
-25 1 -29 -13 -4 -13 -33 -30 -93 -53 -78 -30 -107 -51 -93 -66 6 -5 122 43
153 63 11 7 22 13 26 13 6 0 25 -446 22 -533 l-2 -49 155 4 154 3 1 -25 c2
-24 2 -24 6 -2 3 13 11 26 20 29 11 4 12 8 3 13 -10 6 -12 68 -11 248 1 132
-1 279 -5 326 l-7 86 -92 0 -92 0 -131 65 c-147 72 -182 85 -182 63 0 -9 46
-33 121 -63 66 -27 122 -52 124 -55 2 -3 -38 -4 -88 -4 -92 2 -92 2 -228 68
-75 36 -139 66 -142 66 -3 0 -8 -7 -11 -15z"/>
<path d="M363 1136 c-8 -9 -11 -55 -10 -142 2 -115 11 -159 27 -135 3 4 60 34
128 66 67 32 122 62 122 67 0 12 3 12 -116 -37 -60 -25 -113 -45 -119 -45 -6
0 -11 41 -11 100 -1 55 0 100 2 100 5 0 246 -100 257 -107 4 -2 7 1 7 7 0 9
-257 141 -271 140 -2 -1 -9 -7 -16 -14z"/>
<path d="M908 932 c-76 -31 -138 -61 -138 -65 0 -24 42 -12 153 41 68 33 127
64 131 71 11 17 2 14 -146 -47z"/>
</g>
</svg>
