<?xml version="1.0" standalone="no"?>
<!DOCTYPE svg PUBLIC "-//W3C//DTD SVG 20010904//EN"
 "http://www.w3.org/TR/2001/REC-SVG-20010904/DTD/svg10.dtd">
<svg version="1.0" xmlns="http://www.w3.org/2000/svg"
 width="119.000000pt" height="156.000000pt" viewBox="0 0 119.000000 156.000000"
 preserveAspectRatio="xMidYMid meet">
<metadata>
Created by potrace 1.16, written by Peter Selinger 2001-2019
</metadata>
<g transform="translate(0.000000,156.000000) scale(0.100000,-0.100000)"
fill="#000000" stroke="none">
<path d="M515 1245 c-134 -24 -193 -75 -182 -157 6 -48 57 -133 119 -200 94
-102 75 -167 -83 -287 -72 -55 -88 -128 -43 -197 29 -45 75 -80 125 -94 40
-12 383 -12 419 0 15 5 -26 8 -109 9 l-134 1 7 57 c4 31 9 237 12 457 l6 401
42 3 c22 2 45 7 50 13 14 13 -145 10 -229 -6z m95 -387 c0 -200 3 -400 7 -445
4 -64 3 -83 -7 -83 -21 0 -148 90 -170 120 -31 44 -27 98 13 149 68 90 75 102
81 145 7 43 0 96 -14 106 -17 13 -71 165 -76 217 -6 54 -4 61 21 91 24 28 90
59 133 61 9 1 12 -78 12 -361z m-180 307 c-16 -19 -16 -102 0 -151 7 -22 26
-66 42 -99 l29 -60 -30 35 c-58 68 -94 139 -99 194 -4 49 -2 54 28 80 33 27
53 29 30 1z m-41 -617 c-18 -64 21 -121 125 -187 56 -35 43 -39 -43 -16 -56
15 -102 50 -127 97 -22 42 -17 76 15 109 37 37 42 36 30 -3z"/>
</g>
</svg>
