<?xml version="1.0" standalone="no"?>
<!DOCTYPE svg PUBLIC "-//W3C//DTD SVG 20010904//EN"
 "http://www.w3.org/TR/2001/REC-SVG-20010904/DTD/svg10.dtd">
<svg version="1.0" xmlns="http://www.w3.org/2000/svg"
 width="165.000000pt" height="302.000000pt" viewBox="0 0 165.000000 302.000000"
 preserveAspectRatio="xMidYMid meet">
<metadata>
Created by potrace 1.16, written by Peter Selinger 2001-2019
</metadata>
<g transform="translate(0.000000,302.000000) scale(0.100000,-0.100000)"
fill="#000000" stroke="none">
<path d="M725 2701 c-6 -19 18 -88 55 -161 l20 -39 -42 -12 c-23 -6 -72 -26
-109 -45 -74 -37 -91 -62 -125 -180 l-18 -61 -94 44 c-60 28 -98 41 -104 35
-10 -10 -1 -182 11 -201 5 -8 30 -2 82 20 105 44 109 44 109 23 0 -26 51 -116
102 -180 38 -47 51 -56 111 -75 55 -17 67 -24 61 -38 -36 -87 -62 -173 -58
-186 6 -14 23 -16 105 -13 55 2 99 6 99 9 0 4 -15 51 -34 106 l-33 100 52 22
c29 12 75 36 104 54 53 34 79 74 111 172 7 22 14 43 16 46 2 4 42 -9 90 -28
125 -49 136 -36 19 24 -81 42 -96 53 -80 59 11 4 49 20 84 36 35 15 67 28 72
28 4 0 10 -21 12 -47 3 -44 4 -43 5 14 l2 62 -52 -15 c-29 -8 -72 -22 -96 -31
-25 -9 -46 -12 -51 -7 -4 5 -15 35 -25 67 -10 35 -23 57 -32 57 -7 0 -14 7
-14 15 0 18 -119 88 -188 111 -29 9 -51 19 -50 23 2 3 22 45 46 93 23 48 42
94 42 102 0 13 -16 16 -99 16 -89 0 -100 -2 -106 -19z m162 -13 c-2 -7 -19
-53 -38 -101 l-33 -89 -17 59 c-9 32 -22 71 -28 86 -15 39 -14 45 12 50 52 10
109 7 104 -5z m104 -277 l75 -31 24 -68 c31 -86 30 -153 -5 -261 l-27 -83 -84
-40 c-102 -47 -155 -51 -259 -15 -68 23 -71 26 -107 87 -53 91 -65 152 -45
233 28 117 43 137 127 180 71 37 79 39 150 34 55 -3 96 -12 151 -36z m-565
-203 c46 -17 82 -34 79 -36 -3 -3 -43 -17 -90 -33 l-85 -27 0 64 c0 35 3 64 6
64 4 0 45 -14 90 -32z m427 -433 c8 -22 23 -57 31 -77 l16 -38 -80 0 -80 0 42
85 c23 47 45 81 49 77 3 -4 13 -25 22 -47z"/>
<path d="M760 1370 c-43 -5 -45 -6 -52 -45 -4 -22 -7 -76 -7 -121 l-1 -80 -62
-30 c-56 -27 -64 -34 -90 -90 l-28 -60 -111 4 -110 5 2 -117 c1 -64 5 -118 8
-119 3 -1 51 0 106 3 l100 5 36 -55 c50 -77 94 -125 127 -139 l28 -12 -4 -109
-5 -110 100 0 100 0 6 47 c4 27 9 78 13 115 5 52 11 69 24 73 10 3 45 23 77
44 49 31 61 45 71 80 16 52 36 61 140 62 42 0 86 4 96 8 18 7 18 8 -5 14 -13
4 -61 7 -106 7 l-81 0 5 78 c3 42 7 79 9 81 2 2 43 6 92 9 l89 4 10 -88 10
-89 1 92 c1 57 -2 94 -9 99 -6 3 -57 9 -115 12 -94 4 -104 7 -110 26 -10 31
-77 89 -145 126 -61 32 -61 33 -55 69 3 20 9 73 12 119 l7 82 -29 1 c-71 4
-102 4 -144 -1z m136 -36 c-3 -9 -6 -56 -6 -104 l0 -89 -48 6 c-26 3 -65 0
-86 -5 l-38 -11 6 32 c4 18 9 64 13 104 7 81 3 78 112 82 45 1 52 -2 47 -15z
m35 -253 c120 -41 131 -51 158 -136 27 -88 25 -128 -11 -245 l-23 -75 -85 -43
c-80 -40 -89 -43 -155 -39 -40 2 -94 13 -127 26 -57 22 -58 24 -99 106 -48 97
-54 155 -24 246 31 96 41 108 118 145 85 40 161 45 248 15z m-426 -248 l0 -88
-94 3 -93 3 6 37 c3 20 6 56 6 79 0 41 1 42 38 46 20 2 60 4 87 5 l50 2 0 -87z
m375 -420 l0 -93 -81 0 c-80 0 -81 0 -75 23 3 13 8 55 12 93 l6 69 69 0 69 0
0 -92z"/>
</g>
</svg>
