<?xml version="1.0" standalone="no"?>
<!DOCTYPE svg PUBLIC "-//W3C//DTD SVG 20010904//EN"
 "http://www.w3.org/TR/2001/REC-SVG-20010904/DTD/svg10.dtd">
<svg version="1.0" xmlns="http://www.w3.org/2000/svg"
 width="171.000000pt" height="171.000000pt" viewBox="0 0 171.000000 171.000000"
 preserveAspectRatio="xMidYMid meet">
<metadata>
Created by potrace 1.16, written by Peter Selinger 2001-2019
</metadata>
<g transform="translate(0.000000,171.000000) scale(0.100000,-0.100000)"
fill="#000000" stroke="none">
<path d="M510 1270 l0 -140 -105 0 -105 0 0 -31 0 -32 105 7 105 7 2 -186 c0
-102 1 -191 2 -197 1 -10 -25 -12 -106 -9 l-108 3 0 -31 0 -31 110 0 110 0 1
-142 c1 -176 12 -230 22 -108 4 47 7 122 7 168 0 78 1 82 23 82 12 0 104 3
205 6 l182 6 0 -79 c0 -44 3 -122 7 -174 9 -135 21 -83 22 97 l1 151 128 6
c70 4 164 7 210 7 45 0 82 4 82 9 0 5 -92 12 -205 16 l-205 7 0 84 c0 66 3 86
15 90 8 4 15 10 15 15 0 4 -7 6 -15 3 -9 -4 -15 0 -15 10 0 10 6 14 18 10 16
-5 16 -5 0 9 -15 11 -18 30 -18 94 l0 80 61 7 c34 3 121 6 193 6 72 0 137 4
144 9 16 10 -138 21 -292 21 l-109 0 5 145 6 145 -29 0 -29 0 0 -144 0 -144
-37 2 c-21 2 -109 3 -195 4 l-158 2 0 140 0 140 -25 0 -25 0 0 -140z m150
-214 l53 -24 -61 -31 c-77 -39 -92 -34 -92 30 0 45 2 49 24 49 13 0 48 -11 76
-24z m130 9 c-32 -18 -42 -18 -66 0 -17 13 -15 14 36 14 53 0 54 0 30 -14z
m160 -24 c0 -33 -4 -40 -29 -51 -25 -10 -35 -8 -81 15 l-53 27 39 23 c23 14
56 24 82 24 l42 1 0 -39z m-140 -56 l45 -23 -65 -30 -64 -30 -43 21 c-24 12
-43 24 -43 27 0 7 101 59 115 59 6 0 30 -11 55 -24z m140 -20 c0 -8 -4 -15 -9
-15 -13 0 -22 16 -14 24 11 11 23 6 23 -9z m-31 -30 c22 -11 30 -23 33 -51 4
-34 2 -38 -30 -51 -31 -13 -39 -13 -71 2 -20 9 -47 24 -60 34 l-25 19 60 30
c71 37 59 35 93 17z m-279 -29 l45 -24 -47 -22 c-57 -28 -78 -22 -78 24 0 29
9 43 30 45 3 0 25 -10 50 -23z m160 -75 l54 -28 -49 -26 -49 -25 -63 31 -63
31 42 23 c55 28 62 28 128 -6z m157 -31 c2 -22 -5 -25 -27 -10 -13 9 -13 11 0
20 21 14 26 12 27 -10z m-303 -37 l55 -27 -52 -28 c-28 -16 -63 -28 -77 -26
-22 3 -25 8 -24 40 2 77 15 82 98 41z m270 12 c33 -14 36 -19 36 -55 0 -39 -1
-40 -35 -40 -20 0 -59 12 -87 26 l-51 26 49 28 c27 15 50 28 50 29 1 1 18 -6
38 -14z m-124 -80 c24 -13 21 -14 -40 -14 -59 0 -63 1 -46 14 25 19 54 19 86
0z"/>
</g>
</svg>
