<?xml version="1.0" standalone="no"?>
<!DOCTYPE svg PUBLIC "-//W3C//DTD SVG 20010904//EN"
 "http://www.w3.org/TR/2001/REC-SVG-20010904/DTD/svg10.dtd">
<svg version="1.0" xmlns="http://www.w3.org/2000/svg"
 width="117.000000pt" height="150.000000pt" viewBox="0 0 117.000000 150.000000"
 preserveAspectRatio="xMidYMid meet">
<metadata>
Created by potrace 1.16, written by Peter Selinger 2001-2019
</metadata>
<g transform="translate(0.000000,150.000000) scale(0.100000,-0.100000)"
fill="#000000" stroke="none">
<path d="M613 1189 c-8 -8 -10 -39 -6 -95 l6 -84 -158 0 -158 0 7 -77 c4 -43
8 -78 9 -79 1 -1 67 2 147 5 80 4 146 7 146 6 1 0 5 -49 8 -108 l7 -109 -158
4 -158 3 0 -65 c-1 -36 1 -71 3 -77 5 -15 57 -16 205 -6 53 3 97 10 97 15 0 4
-63 8 -140 8 l-140 0 0 50 0 50 114 0 c62 0 128 3 145 6 l31 7 0 -159 c0 -88
4 -165 9 -172 6 -10 35 -12 118 -10 l110 3 6 194 c4 107 7 303 7 436 l0 242
-39 11 c-50 15 -203 16 -218 1z m221 -518 l7 -344 -97 6 c-53 4 -98 8 -99 9
-1 2 0 186 3 409 l4 406 82 9 81 9 6 -80 c4 -44 10 -235 13 -424z m-224 264
l0 -55 -94 0 c-51 0 -114 3 -140 6 l-46 7 0 43 0 43 93 4 c50 1 113 4 140 5
l47 2 0 -55z"/>
</g>
</svg>
