<?xml version="1.0" standalone="no"?>
<!DOCTYPE svg PUBLIC "-//W3C//DTD SVG 20010904//EN"
 "http://www.w3.org/TR/2001/REC-SVG-20010904/DTD/svg10.dtd">
<svg version="1.0" xmlns="http://www.w3.org/2000/svg"
 width="114.000000pt" height="150.000000pt" viewBox="0 0 114.000000 150.000000"
 preserveAspectRatio="xMidYMid meet">
<metadata>
Created by potrace 1.16, written by Peter Selinger 2001-2019
</metadata>
<g transform="translate(0.000000,150.000000) scale(0.100000,-0.100000)"
fill="#000000" stroke="none">
<path d="M603 1193 c-8 -3 -13 -24 -13 -54 l0 -50 -142 2 -143 1 0 -73 0 -74
142 1 141 1 6 -30 c3 -16 6 -44 6 -61 l0 -31 -141 3 c-78 2 -144 0 -148 -5 -5
-4 -6 -41 -3 -81 l4 -74 144 8 144 7 0 -57 0 -56 -151 0 -151 0 6 -22 c3 -13
6 -47 6 -77 l0 -54 150 5 150 5 0 -64 0 -64 115 3 115 3 0 437 0 437 -37 10
c-38 11 -177 14 -200 4z m212 -486 l7 -377 -50 0 c-27 0 -71 3 -97 7 l-47 6 6
316 c3 174 6 357 6 407 l0 91 78 9 77 9 6 -46 c4 -25 10 -215 14 -422z m-225
313 l0 -50 -133 0 -132 0 3 44 4 45 46 4 c26 2 84 4 130 5 l82 2 0 -50z m10
-265 l0 -55 -135 0 -135 0 0 50 0 49 113 4 c61 1 122 4 135 5 20 2 22 -2 22
-53z m2 -256 c1 -28 1 -52 -2 -53 -3 -1 -65 0 -137 2 l-133 4 0 43 0 44 63 4
c34 2 94 4 134 5 l71 2 4 -51z"/>
</g>
</svg>
