<?xml version="1.0" standalone="no"?>
<!DOCTYPE svg PUBLIC "-//W3C//DTD SVG 20010904//EN"
 "http://www.w3.org/TR/2001/REC-SVG-20010904/DTD/svg10.dtd">
<svg version="1.0" xmlns="http://www.w3.org/2000/svg"
 width="115.000000pt" height="150.000000pt" viewBox="0 0 115.000000 150.000000"
 preserveAspectRatio="xMidYMid meet">
<metadata>
Created by potrace 1.16, written by Peter Selinger 2001-2019
</metadata>
<g transform="translate(0.000000,150.000000) scale(0.100000,-0.100000)"
fill="#000000" stroke="none">
<path d="M603 1193 c-8 -3 -13 -24 -13 -54 l0 -49 -145 0 c-161 0 -153 4 -139
-69 l6 -31 139 0 c77 0 140 -3 140 -7 1 -5 3 -23 5 -42 l2 -33 -144 4 c-82 3
-147 1 -150 -4 -4 -5 -3 -30 1 -55 l7 -45 144 4 144 3 0 -42 0 -43 -150 0
c-166 0 -158 4 -144 -69 l6 -31 144 0 144 0 0 -45 0 -45 -150 0 c-166 0 -156
5 -144 -70 l6 -36 149 4 149 4 0 -72 0 -72 114 4 113 3 7 65 c3 36 6 232 6
436 l0 372 -44 11 c-45 11 -180 14 -203 4z m211 -350 c3 -186 8 -377 11 -425
l6 -88 -54 0 c-30 0 -76 3 -102 7 l-48 6 6 291 c4 160 7 343 7 407 l0 116 78
10 c42 5 80 11 83 11 4 1 9 -150 13 -335z m-224 197 l0 -30 -130 0 -130 0 0
30 0 30 130 0 130 0 0 -30z m10 -175 l0 -35 -119 0 c-66 0 -126 3 -135 6 -9 3
-16 17 -16 30 0 23 2 23 113 27 61 1 122 4 135 5 19 2 22 -3 22 -33z m0 -185
l0 -30 -135 0 -135 0 0 30 0 30 135 0 135 0 0 -30z m10 -190 l0 -30 -140 0
c-140 0 -140 0 -140 23 0 13 3 27 7 30 3 4 66 7 140 7 l133 0 0 -30z"/>
</g>
</svg>
