<?xml version="1.0" standalone="no"?>
<!DOCTYPE svg PUBLIC "-//W3C//DTD SVG 20010904//EN"
 "http://www.w3.org/TR/2001/REC-SVG-20010904/DTD/svg10.dtd">
<svg version="1.0" xmlns="http://www.w3.org/2000/svg"
 width="161.000000pt" height="117.000000pt" viewBox="0 0 161.000000 117.000000"
 preserveAspectRatio="xMidYMid meet">
<metadata>
Created by potrace 1.16, written by Peter Selinger 2001-2019
</metadata>
<g transform="translate(0.000000,117.000000) scale(0.100000,-0.100000)"
fill="#000000" stroke="none">
<path d="M311 862 c-12 -8 -13 -54 -8 -276 3 -146 9 -271 13 -277 5 -9 122
-11 492 -6 267 4 487 8 489 10 9 10 15 534 6 540 -18 11 -977 19 -992 9z m953
-189 c3 -93 9 -207 12 -255 l5 -86 -303 4 c-167 2 -380 7 -474 10 l-170 6 4
231 c2 128 5 233 6 233 0 1 154 4 342 7 l341 6 6 -235 c5 -212 9 -257 21 -243
2 3 15 359 16 466 0 12 38 17 141 21 l47 2 6 -167z"/>
</g>
</svg>
