<?xml version="1.0" standalone="no"?>
<!DOCTYPE svg PUBLIC "-//W3C//DTD SVG 20010904//EN"
 "http://www.w3.org/TR/2001/REC-SVG-20010904/DTD/svg10.dtd">
<svg version="1.0" xmlns="http://www.w3.org/2000/svg"
 width="161.000000pt" height="117.000000pt" viewBox="0 0 161.000000 117.000000"
 preserveAspectRatio="xMidYMid meet">
<metadata>
Created by potrace 1.16, written by Peter Selinger 2001-2019
</metadata>
<g transform="translate(0.000000,117.000000) scale(0.100000,-0.100000)"
fill="#000000" stroke="none">
<path d="M311 862 c-12 -8 -13 -54 -8 -276 3 -146 9 -271 13 -277 5 -9 122
-11 492 -6 267 4 487 8 489 10 9 10 15 534 6 540 -18 11 -977 19 -992 9z m953
-189 c3 -93 9 -208 12 -256 l6 -88 -74 3 c-71 3 -73 4 -71 28 1 14 2 125 3
247 1 160 5 223 13 227 7 2 33 5 58 5 l47 1 6 -167z m-154 -20 c0 -98 3 -208
7 -245 l6 -68 -291 0 c-160 0 -292 3 -294 8 -2 4 -2 112 0 239 l3 232 147 4
c81 1 209 4 285 5 l137 2 0 -177z m-601 -20 c1 -104 4 -209 7 -235 l7 -48 -98
0 -98 0 7 61 c3 34 6 140 6 235 l0 174 84 0 84 0 1 -187z"/>
</g>
</svg>
