<?xml version="1.0" standalone="no"?>
<!DOCTYPE svg PUBLIC "-//W3C//DTD SVG 20010904//EN"
 "http://www.w3.org/TR/2001/REC-SVG-20010904/DTD/svg10.dtd">
<svg version="1.0" xmlns="http://www.w3.org/2000/svg"
 width="146.000000pt" height="152.000000pt" viewBox="0 0 146.000000 152.000000"
 preserveAspectRatio="xMidYMid meet">
<metadata>
Created by potrace 1.16, written by Peter Selinger 2001-2019
</metadata>
<g transform="translate(0.000000,152.000000) scale(0.100000,-0.100000)"
fill="#000000" stroke="none">
<path d="M695 1129 l0 -90 -135 -58 c-74 -32 -162 -68 -196 -81 l-61 -24 1
-43 1 -42 196 -82 196 -82 7 -90 c3 -50 6 -123 6 -164 0 -42 4 -73 10 -73 6 0
10 36 10 88 0 48 3 117 6 153 l7 66 199 -79 c110 -43 205 -77 212 -75 11 4
-30 24 -288 143 l-126 58 2 179 3 179 200 94 c110 51 205 95 210 97 6 2 7 7 4
11 -3 3 -97 -30 -208 -74 -111 -44 -203 -80 -204 -80 -1 0 -1 36 1 80 l4 80
-29 0 -28 0 0 -91z m5 -299 l0 -159 -112 50 c-62 28 -140 62 -173 76 -33 14
-63 28 -67 32 -6 5 318 156 345 160 4 1 7 -71 7 -159z"/>
</g>
</svg>
