<?xml version="1.0" standalone="no"?>
<!DOCTYPE svg PUBLIC "-//W3C//DTD SVG 20010904//EN"
 "http://www.w3.org/TR/2001/REC-SVG-20010904/DTD/svg10.dtd">
<svg version="1.0" xmlns="http://www.w3.org/2000/svg"
 width="161.000000pt" height="117.000000pt" viewBox="0 0 161.000000 117.000000"
 preserveAspectRatio="xMidYMid meet">
<metadata>
Created by potrace 1.16, written by Peter Selinger 2001-2019
</metadata>
<g transform="translate(0.000000,117.000000) scale(0.100000,-0.100000)"
fill="#000000" stroke="none">
<path d="M311 862 c-12 -8 -13 -54 -8 -276 3 -146 9 -271 13 -277 5 -9 122
-11 492 -6 267 4 487 8 489 10 9 10 15 534 6 540 -18 11 -977 19 -992 9z m953
-199 c4 -98 9 -213 12 -255 l6 -77 -273 6 c-151 3 -276 7 -278 9 -2 2 5 7 15
10 53 19 159 100 185 143 28 43 39 101 20 101 -5 0 -21 20 -36 45 -14 25 -53
75 -87 110 -33 36 -54 66 -47 66 8 1 97 5 199 8 102 4 206 8 231 9 l47 2 6
-177z m-592 -75 c2 -128 1 -237 -3 -242 -4 -4 -82 -5 -174 -1 l-168 8 7 60 c3
33 6 138 6 233 l0 174 164 0 164 0 4 -232z m66 213 c21 -19 22 -24 22 -218 l0
-198 -31 -18 c-18 -10 -33 -16 -34 -15 -5 7 8 468 14 468 3 -1 16 -9 29 -19z
m179 -198 c17 -33 17 -34 -7 -79 -20 -38 -118 -130 -127 -120 -2 2 0 81 3 177
l7 173 53 -59 c29 -32 61 -74 71 -92z"/>
</g>
</svg>
