<?xml version="1.0" standalone="no"?>
<!DOCTYPE svg PUBLIC "-//W3C//DTD SVG 20010904//EN"
 "http://www.w3.org/TR/2001/REC-SVG-20010904/DTD/svg10.dtd">
<svg version="1.0" xmlns="http://www.w3.org/2000/svg"
 width="190.000000pt" height="126.000000pt" viewBox="0 0 190.000000 126.000000"
 preserveAspectRatio="xMidYMid meet">
<metadata>
Created by potrace 1.16, written by Peter Selinger 2001-2019
</metadata>
<g transform="translate(0.000000,126.000000) scale(0.100000,-0.100000)"
fill="#000000" stroke="none">
<path d="M300 934 l0 -27 243 7 c133 3 268 9 300 12 l57 7 0 -57 0 -56 -300 7
-300 6 0 -28 0 -28 258 8 c141 5 277 9 302 9 l45 1 3 -47 3 -47 -128 4 c-70 3
-208 7 -305 10 l-178 5 0 -27 0 -26 305 6 305 6 0 -49 0 -49 -305 6 -305 6 0
-28 0 -28 253 8 c138 5 277 9 307 9 l55 1 3 -44 3 -43 -63 6 c-35 3 -174 9
-310 12 l-248 7 0 -27 0 -26 183 1 c100 1 239 4 310 7 l127 7 0 -27 c0 -14 3
-33 6 -41 5 -14 -31 -15 -310 -10 l-316 6 0 -27 0 -27 183 5 c100 4 242 9 315
12 l132 6 0 -26 c0 -14 5 -26 10 -26 6 0 10 116 10 328 l0 327 -325 3 -325 4
0 -28z"/>
<path d="M970 675 l0 -28 238 7 c489 13 521 33 69 43 l-307 6 0 -28z"/>
</g>
</svg>
