<?xml version="1.0" standalone="no"?>
<!DOCTYPE svg PUBLIC "-//W3C//DTD SVG 20010904//EN"
 "http://www.w3.org/TR/2001/REC-SVG-20010904/DTD/svg10.dtd">
<svg version="1.0" xmlns="http://www.w3.org/2000/svg"
 width="214.000000pt" height="307.000000pt" viewBox="0 0 214.000000 307.000000"
 preserveAspectRatio="xMidYMid meet">
<metadata>
Created by potrace 1.16, written by Peter Selinger 2001-2019
</metadata>
<g transform="translate(0.000000,307.000000) scale(0.100000,-0.100000)"
fill="#000000" stroke="none">
<path d="M732 2758 c-8 -8 -9 -15 -1 -25 6 -7 19 -42 28 -78 l16 -65 -58 -61
c-56 -59 -107 -144 -121 -201 l-6 -27 -48 20 c-150 65 -258 93 -238 61 3 -5 6
-70 7 -146 1 -75 6 -139 10 -142 5 -2 63 24 131 58 68 34 127 63 131 63 5 0
17 -24 28 -54 23 -67 72 -149 122 -206 43 -49 44 -64 18 -160 -11 -39 -16 -74
-11 -79 14 -14 208 130 433 319 114 96 210 175 212 175 3 0 5 -47 5 -105 0
-63 4 -105 10 -105 6 0 10 38 10 95 0 52 2 95 5 95 3 0 46 -20 95 -45 138 -69
113 -39 -42 52 -32 19 -58 40 -58 47 0 7 19 23 43 36 87 49 151 94 139 98 -7
2 -46 -15 -88 -37 -41 -23 -80 -41 -85 -41 -5 0 -9 43 -9 95 0 78 -3 95 -15
95 -12 0 -15 -17 -15 -96 l0 -96 -42 34 c-215 175 -569 438 -590 438 -2 0 -9
-5 -16 -12z m93 -80 c27 -18 35 -30 35 -53 0 -16 3 -41 7 -53 l6 -24 -42 21
c-35 18 -41 26 -41 54 0 17 -3 42 -6 55 -4 12 -3 22 0 22 3 0 22 -10 41 -22z
m93 -107 c3 -48 2 -51 -15 -43 -15 8 -18 20 -15 57 5 63 26 53 30 -14z m60 3
c16 -11 22 -25 22 -55 l0 -40 -30 16 c-26 13 -30 21 -30 55 0 44 5 47 38 24z
m109 -174 c161 -79 290 -147 287 -151 -2 -4 -70 -42 -152 -84 -81 -43 -214
-113 -295 -158 -120 -65 -151 -77 -158 -66 -45 66 -96 165 -116 219 -32 91
-30 153 7 226 29 58 116 168 129 162 3 -2 137 -68 298 -148z m-19 81 c4 -34 0
-36 -29 -21 -13 8 -19 21 -19 47 0 35 1 35 23 21 13 -9 23 -28 25 -47z m180
-105 c72 -54 132 -100 132 -101 0 -2 -65 33 -145 77 -137 76 -145 82 -145 110
0 23 3 28 13 21 6 -5 72 -53 145 -107z m-827 -56 c35 -10 88 -24 117 -30 80
-18 71 -38 -36 -76 -48 -17 -104 -39 -124 -48 l-38 -16 0 95 c0 52 4 95 9 95
5 0 37 -9 72 -20z m939 -104 c0 -5 -257 -206 -264 -206 -3 0 -6 11 -6 25 0 21
20 36 133 104 143 86 137 83 137 77z m-312 -247 c-23 -18 -23 -18 -26 13 -3
24 2 36 20 49 23 18 23 18 26 -13 3 -24 -2 -36 -20 -49z m-59 -45 c-7 -8 -21
-20 -31 -25 -16 -9 -18 -5 -18 33 0 36 4 45 28 58 27 16 27 16 30 -18 2 -18
-2 -40 -9 -48z m-69 -8 c0 -25 -6 -48 -14 -55 -12 -10 -15 -4 -18 34 -3 43 5
65 24 65 4 0 8 -20 8 -44z m-56 -33 c-5 -37 -13 -54 -38 -75 -38 -34 -50 -35
-42 -5 3 12 6 38 6 57 0 29 6 38 33 51 47 24 47 23 41 -28z"/>
<path d="M732 1338 c-8 -8 -9 -15 -1 -25 6 -7 19 -42 28 -78 l16 -65 -56 -59
c-30 -32 -68 -83 -83 -112 l-29 -54 -151 0 c-176 0 -162 12 -151 -133 l7 -94
148 7 148 7 23 -43 c29 -58 91 -149 118 -173 29 -27 26 -64 -16 -198 -22 -72
180 71 555 394 l90 78 7 -56 c3 -30 5 -97 4 -147 l-3 -91 52 -1 52 0 0 90 c0
50 3 113 6 140 l6 51 154 -62 c85 -33 157 -64 161 -67 19 -20 23 10 23 188 0
107 -3 195 -7 195 -10 0 -165 -59 -260 -99 l-73 -30 0 125 c0 124 0 124 -26
134 -14 6 -41 10 -60 10 l-34 0 0 -146 0 -146 -24 19 c-13 10 -102 80 -197
156 -144 114 -397 297 -411 297 -2 0 -9 -5 -16 -12z m166 -130 c103 -69 482
-346 482 -353 0 -2 -80 41 -177 94 -98 54 -227 124 -288 155 -60 32 -113 61
-116 64 -8 9 -20 112 -13 112 2 0 53 -32 112 -72z m562 -140 c0 -112 10 -447
15 -500 3 -42 2 -48 -15 -48 -52 0 -50 -11 -50 316 l0 304 25 0 c24 0 25 -2
25 -72z m-570 2 c0 -3 -17 -12 -38 -21 -36 -15 -41 -15 -75 3 -21 10 -37 21
-37 25 0 4 10 17 21 29 l21 23 54 -27 c30 -14 54 -29 54 -32z m82 -36 l52 -26
-39 -20 -39 -20 -55 27 -56 28 40 18 c22 10 41 19 43 19 1 0 26 -12 54 -26z
m-251 -41 c-29 -13 -55 -22 -57 -20 -2 2 8 19 21 39 l25 37 32 -17 33 -16 -54
-23z m134 -15 c25 -12 45 -24 45 -27 0 -4 -25 -17 -56 -30 l-55 -24 -50 23
c-27 13 -49 26 -49 29 0 7 90 49 107 50 7 1 33 -9 58 -21z m293 -33 c2 -2 -16
-12 -40 -23 l-43 -19 -47 24 c-27 13 -48 25 -48 28 0 2 17 13 37 24 l38 19 50
-25 c27 -14 52 -27 53 -28z m662 -33 c0 -49 3 -123 6 -165 l7 -76 -159 73
c-128 59 -160 77 -162 95 -3 18 6 26 60 49 35 15 101 46 148 69 47 23 88 42
93 42 4 1 7 -39 7 -87z m-827 3 c26 -11 47 -22 47 -25 0 -7 -102 -50 -118 -50
-7 0 -32 10 -54 21 l-42 22 54 28 c30 15 57 27 60 26 3 -1 27 -11 53 -22z
m-288 -7 c25 -12 45 -25 45 -28 0 -13 -73 -40 -91 -35 -19 6 -25 38 -13 69 8
20 5 20 59 -6z m590 -25 c52 -26 95 -50 95 -53 0 -3 -51 -31 -114 -63 l-114
-59 -33 18 -33 17 64 32 c35 18 73 30 84 28 17 -4 18 -3 6 6 -10 7 -11 11 -2
11 6 0 12 4 12 9 0 4 -11 6 -24 4 -16 -3 -45 6 -82 27 l-57 33 34 18 c19 10
42 18 51 19 10 0 61 -21 113 -47z m-690 -48 c1 -68 -2 -84 -13 -80 -7 3 -67 5
-133 5 l-119 0 0 75 0 74 83 4 c45 1 105 4 132 5 l50 2 0 -85z m533 11 l64
-32 -68 -29 -67 -29 -54 29 c-29 16 -53 32 -53 35 0 6 96 56 110 58 3 1 34
-14 68 -32z m-301 -3 c24 -10 43 -21 43 -25 0 -3 -20 -14 -45 -24 -43 -16 -47
-16 -85 1 -22 10 -40 21 -40 25 0 7 59 38 75 39 5 1 29 -7 52 -16z m-122 -60
c19 -9 35 -20 35 -24 0 -11 -74 -38 -82 -30 -4 4 -11 21 -14 39 -8 38 6 41 61
15z m270 -10 l55 -27 -42 -23 c-55 -28 -55 -28 -118 6 l-53 29 39 21 c50 26
53 26 119 -6z m358 -1 c-291 -231 -541 -418 -548 -410 -1 2 0 28 2 59 5 48 9
57 32 67 27 11 81 41 236 132 50 29 99 56 110 61 11 5 56 32 100 59 82 51 107
63 68 32z m-487 -59 l58 -26 -51 -25 -51 -25 -56 23 c-31 13 -56 26 -56 30 0
6 78 48 91 49 4 1 33 -11 65 -26z m257 1 l32 -17 -52 -25 c-46 -23 -54 -24
-82 -12 -17 7 -31 15 -31 19 0 7 78 49 93 50 4 1 22 -6 40 -15z m-123 -63 l35
-19 -56 -27 -55 -27 -33 20 -34 20 49 26 c58 30 51 29 94 7z m-232 -37 c-20
-12 -25 -11 -40 7 -28 33 -21 39 23 21 40 -15 40 -16 17 -28z m119 -35 l28
-11 -55 -28 c-30 -16 -57 -29 -60 -30 -7 0 -43 60 -38 64 21 19 66 33 80 25 9
-5 29 -14 45 -20z"/>
</g>
</svg>
