<?xml version="1.0" standalone="no"?>
<!DOCTYPE svg PUBLIC "-//W3C//DTD SVG 20010904//EN"
 "http://www.w3.org/TR/2001/REC-SVG-20010904/DTD/svg10.dtd">
<svg version="1.0" xmlns="http://www.w3.org/2000/svg"
 width="205.000000pt" height="264.000000pt" viewBox="0 0 205.000000 264.000000"
 preserveAspectRatio="xMidYMid meet">
<metadata>
Created by potrace 1.16, written by Peter Selinger 2001-2019
</metadata>
<g transform="translate(0.000000,264.000000) scale(0.100000,-0.100000)"
fill="#000000" stroke="none">
<path d="M741 2312 c-13 -15 -35 -44 -50 -66 l-25 -38 -178 4 c-168 3 -178 2
-178 -15 0 -18 10 -19 170 -16 111 3 169 1 166 -6 -2 -5 -13 -38 -26 -72 l-22
-62 -143 6 c-107 4 -144 3 -150 -6 -4 -7 -4 -60 0 -118 l7 -106 152 7 153 7
12 -43 c7 -24 22 -60 33 -82 l20 -38 -186 7 -186 7 0 -22 0 -23 189 6 188 7
37 -56 c21 -31 39 -54 42 -52 2 3 -16 47 -40 99 -87 187 -112 317 -82 425 18
61 61 146 103 201 l25 32 291 -145 c161 -81 299 -153 309 -161 19 -17 15 -19
210 94 71 41 131 73 133 71 1 -2 5 -99 8 -216 l5 -213 -26 18 c-15 10 -92 55
-172 100 -132 75 -146 81 -153 64 -5 -10 -88 -60 -185 -111 -179 -94 -413
-220 -421 -227 -3 -2 2 -10 10 -18 12 -12 23 -8 79 24 36 21 167 98 291 170
l226 131 177 -86 c97 -47 176 -89 176 -95 0 -5 5 -9 10 -9 6 0 10 92 10 255 0
140 -3 255 -6 255 -4 0 -90 -40 -192 -90 l-185 -90 -161 89 c-176 97 -431 231
-437 231 -2 0 -15 -13 -28 -28z m-143 -358 c1 -36 4 -75 8 -87 6 -19 4 -20
-47 -14 -30 4 -93 7 -141 7 l-88 0 0 75 0 74 103 4 c56 1 116 4 133 5 l31 2 1
-66z"/>
<path d="M737 1064 c-19 -20 -43 -51 -52 -68 l-17 -31 -179 4 c-178 3 -179 3
-179 -18 0 -22 1 -22 158 -16 86 4 163 8 170 11 15 4 16 11 -13 -71 l-24 -70
-148 0 c-172 0 -159 12 -148 -133 l7 -95 153 6 152 6 13 -42 c7 -23 21 -59 32
-81 l20 -38 -186 4 c-179 4 -186 3 -186 -16 0 -18 7 -19 190 -14 l190 6 32
-54 c18 -30 36 -54 40 -54 12 0 10 6 -27 81 -52 102 -96 242 -102 323 -7 88
22 178 89 282 l45 70 294 -144 c162 -79 302 -151 311 -159 15 -14 24 -11 95
27 113 60 283 164 283 172 0 12 -43 -7 -217 -94 l-161 -81 -219 118 c-120 65
-255 137 -299 161 l-82 44 -35 -36z m-138 -351 c1 -38 4 -77 7 -87 6 -18 2
-19 -71 -13 -43 4 -107 7 -142 7 l-64 0 3 73 3 72 115 6 c63 3 122 6 131 7 14
2 17 -10 18 -65z"/>
<path d="M1365 659 c-11 -12 -144 -87 -295 -166 -151 -80 -281 -151 -288 -157
-11 -11 -11 -15 0 -24 11 -8 31 -1 88 32 41 24 173 100 293 170 l217 126 148
-74 c173 -87 222 -108 222 -97 0 12 -339 211 -359 211 -3 0 -15 -10 -26 -21z"/>
</g>
</svg>
