<?xml version="1.0" standalone="no"?>
<!DOCTYPE svg PUBLIC "-//W3C//DTD SVG 20010904//EN"
 "http://www.w3.org/TR/2001/REC-SVG-20010904/DTD/svg10.dtd">
<svg version="1.0" xmlns="http://www.w3.org/2000/svg"
 width="193.000000pt" height="129.000000pt" viewBox="0 0 193.000000 129.000000"
 preserveAspectRatio="xMidYMid meet">
<metadata>
Created by potrace 1.16, written by Peter Selinger 2001-2019
</metadata>
<g transform="translate(0.000000,129.000000) scale(0.100000,-0.100000)"
fill="#000000" stroke="none">
<path d="M715 927 c-33 -35 -71 -85 -85 -113 l-25 -49 -140 3 c-77 2 -140 5
-141 5 0 1 1 23 4 50 l4 47 87 0 c119 0 254 11 244 21 -4 4 -85 11 -180 15
l-172 7 -7 -27 c-3 -14 -3 -56 1 -93 l7 -66 141 7 142 7 0 -81 1 -81 -137 2
c-75 1 -141 -1 -148 -5 -12 -8 -14 -50 -4 -121 l6 -48 170 7 c160 6 187 9 176
21 -3 2 -81 8 -173 11 -164 7 -167 8 -162 28 3 12 6 31 6 43 0 23 23 27 203
36 l77 4 19 -43 c36 -80 139 -214 166 -214 7 0 143 68 304 151 222 114 297
148 314 143 12 -4 66 -28 119 -54 l98 -47 0 159 c0 87 -2 158 -5 158 -8 0
-230 -103 -239 -111 -5 -4 -140 59 -301 141 -160 83 -296 150 -301 150 -5 0
-36 -28 -69 -63z m380 -122 l290 -137 105 53 c57 30 107 55 111 57 3 1 7 -54
8 -123 1 -69 0 -125 -3 -125 -3 0 -51 25 -106 55 -107 58 -120 63 -120 41 0
-7 -33 -28 -72 -46 -40 -18 -174 -82 -297 -142 -123 -59 -227 -108 -231 -108
-9 0 -93 147 -120 210 -12 30 -25 83 -28 118 -4 55 -1 69 26 125 35 70 119
171 136 163 6 -2 142 -66 301 -141z"/>
</g>
</svg>
