<?xml version="1.0" standalone="no"?>
<!DOCTYPE svg PUBLIC "-//W3C//DTD SVG 20010904//EN"
 "http://www.w3.org/TR/2001/REC-SVG-20010904/DTD/svg10.dtd">
<svg version="1.0" xmlns="http://www.w3.org/2000/svg"
 width="106.000000pt" height="152.000000pt" viewBox="0 0 106.000000 152.000000"
 preserveAspectRatio="xMidYMid meet">
<metadata>
Created by potrace 1.16, written by Peter Selinger 2001-2019
</metadata>
<g transform="translate(0.000000,152.000000) scale(0.100000,-0.100000)"
fill="#000000" stroke="none">
<path d="M321 1206 l-23 -11 3 -447 c3 -264 8 -448 13 -448 11 0 149 62 156
70 3 4 33 23 67 44 76 45 175 141 203 195 27 54 27 129 -1 173 -93 147 -130
198 -199 271 -70 74 -180 169 -191 166 -2 -1 -15 -7 -28 -13z m82 -79 l37 -29
1 -166 c1 -92 4 -248 8 -347 8 -203 11 -192 -73 -240 l-49 -28 6 234 c4 129 7
321 7 427 0 152 3 192 13 186 6 -4 29 -20 50 -37z m206 -212 c91 -111 121
-160 121 -196 0 -46 -34 -111 -91 -173 -44 -48 -148 -136 -161 -136 -3 0 -4
26 -2 58 2 31 6 172 8 312 3 140 5 257 6 259 1 10 65 -57 119 -124z"/>
</g>
</svg>
