<?xml version="1.0" standalone="no"?>
<!DOCTYPE svg PUBLIC "-//W3C//DTD SVG 20010904//EN"
 "http://www.w3.org/TR/2001/REC-SVG-20010904/DTD/svg10.dtd">
<svg version="1.0" xmlns="http://www.w3.org/2000/svg"
 width="106.000000pt" height="152.000000pt" viewBox="0 0 106.000000 152.000000"
 preserveAspectRatio="xMidYMid meet">
<metadata>
Created by potrace 1.16, written by Peter Selinger 2001-2019
</metadata>
<g transform="translate(0.000000,152.000000) scale(0.100000,-0.100000)"
fill="#000000" stroke="none">
<path d="M321 1206 l-23 -11 3 -447 c2 -247 7 -448 11 -448 10 0 152 63 158
70 3 3 34 24 70 47 70 46 153 125 194 187 36 53 36 138 2 180 -14 16 -22 35
-19 43 3 7 1 13 -5 13 -6 0 -31 30 -56 68 -24 37 -68 94 -98 126 -53 60 -196
187 -207 185 -3 -1 -17 -7 -30 -13z m85 -83 l32 -28 6 -352 7 -351 -58 -35
c-32 -19 -59 -33 -61 -32 -2 1 0 192 4 423 8 466 2 435 70 375z m130 -125 c41
-43 104 -121 118 -146 6 -10 -11 -13 -84 -11 l-91 2 2 98 c1 55 4 99 8 99 4 0
25 -19 47 -42z m163 -207 c25 -34 35 -80 23 -99 -6 -9 -36 -11 -125 -6 l-117
7 0 58 0 58 78 4 c42 1 87 4 99 5 14 1 29 -8 42 -27z m11 -139 c0 -13 -46 -81
-79 -115 -32 -36 -151 -131 -155 -126 -2 2 -1 58 1 124 l6 120 113 3 c68 3
114 0 114 -6z"/>
</g>
</svg>
