<?xml version="1.0" standalone="no"?>
<!DOCTYPE svg PUBLIC "-//W3C//DTD SVG 20010904//EN"
 "http://www.w3.org/TR/2001/REC-SVG-20010904/DTD/svg10.dtd">
<svg version="1.0" xmlns="http://www.w3.org/2000/svg"
 width="106.000000pt" height="152.000000pt" viewBox="0 0 106.000000 152.000000"
 preserveAspectRatio="xMidYMid meet">
<metadata>
Created by potrace 1.16, written by Peter Selinger 2001-2019
</metadata>
<g transform="translate(0.000000,152.000000) scale(0.100000,-0.100000)"
fill="#000000" stroke="none">
<path d="M321 1206 l-23 -11 3 -447 c2 -247 7 -448 11 -448 10 0 152 63 158
70 3 3 35 25 71 48 73 47 176 149 202 199 27 51 22 125 -11 175 -16 24 -49 75
-75 113 -25 39 -70 97 -99 129 -53 60 -196 187 -207 185 -3 -1 -17 -7 -30 -13z
m82 -80 l37 -29 0 -99 0 -98 -50 0 -50 0 0 136 c0 148 -4 143 63 90z m150
-147 c31 -33 83 -100 117 -147 58 -81 61 -90 55 -127 -7 -45 -41 -109 -87
-160 -33 -38 -157 -140 -162 -134 -2 2 -1 59 2 127 l5 122 41 1 c22 0 50 4 61
8 16 7 14 9 -14 14 -19 4 -46 7 -62 7 l-29 0 0 85 0 84 60 7 c78 9 77 24 -1
24 l-60 0 2 75 c1 41 5 75 10 75 4 0 32 -27 62 -61z m-113 -204 l0 -85 -50 0
-50 0 0 85 0 85 50 0 50 0 0 -85z m10 -248 c3 -80 1 -132 -5 -137 -5 -4 -34
-22 -62 -39 l-53 -30 0 164 c0 184 -5 172 80 171 l35 -1 5 -128z"/>
</g>
</svg>
