<?xml version="1.0" standalone="no"?>
<!DOCTYPE svg PUBLIC "-//W3C//DTD SVG 20010904//EN"
 "http://www.w3.org/TR/2001/REC-SVG-20010904/DTD/svg10.dtd">
<svg version="1.0" xmlns="http://www.w3.org/2000/svg"
 width="197.000000pt" height="148.000000pt" viewBox="0 0 197.000000 148.000000"
 preserveAspectRatio="xMidYMid meet">
<metadata>
Created by potrace 1.16, written by Peter Selinger 2001-2019
</metadata>
<g transform="translate(0.000000,148.000000) scale(0.100000,-0.100000)"
fill="#000000" stroke="none">
<path d="M805 1106 c-39 -40 -79 -90 -90 -111 l-20 -37 -198 7 -199 6 5 -206
c3 -137 8 -210 15 -217 9 -9 12 -9 12 0 0 9 47 12 179 12 l180 0 31 -59 c17
-32 56 -89 86 -127 75 -94 91 -95 233 -13 215 126 621 370 626 378 6 10 -759
441 -783 441 -4 0 -39 -33 -77 -74z m305 -92 c124 -63 293 -150 377 -192 84
-42 149 -80 145 -84 -4 -4 -146 -83 -317 -176 -170 -93 -339 -186 -375 -206
-61 -35 -65 -36 -78 -19 -23 32 -110 187 -117 211 -6 21 -4 22 44 22 28 0 51
5 51 10 0 6 -13 10 -30 10 -34 0 -35 3 -24 109 5 46 11 61 23 61 14 1 14 2 -1
11 -15 8 -18 24 -18 84 0 53 -4 75 -12 76 -7 1 1 5 17 9 28 7 27 8 -13 9 l-43
1 18 31 c15 25 120 149 127 149 1 0 103 -52 226 -116z m-490 -159 l0 -75 -30
0 -30 0 0 75 0 75 30 0 30 0 0 -75z m54 60 c-4 -8 -8 -15 -10 -15 -2 0 -4 7
-4 15 0 8 4 15 10 15 5 0 7 -7 4 -15z m78 -60 l3 -75 -38 0 c-38 0 -39 0 -32
33 12 57 37 117 51 117 9 0 13 -22 16 -75z m-362 0 c0 -64 -1 -65 -26 -65 -25
0 -26 2 -20 38 3 20 6 49 6 65 0 20 5 27 20 27 18 0 20 -7 20 -65z m130 0 l0
-65 -47 0 -48 0 3 65 4 65 44 0 44 0 0 -65z m240 -180 c0 -77 -2 -85 -19 -85
-15 0 -22 14 -36 68 -9 37 -19 72 -21 79 -3 11 17 18 59 22 15 1 17 -9 17 -84z
m-240 53 c0 -13 3 -47 6 -75 l7 -53 -57 0 -56 0 0 69 0 70 38 4 c20 2 43 4 50
5 6 1 12 -8 12 -20z m103 -50 c3 -39 4 -74 2 -78 -2 -3 -20 -4 -39 -2 l-36 4
0 74 0 74 34 0 33 0 6 -72z m-233 45 c0 -10 3 -42 6 -70 l7 -53 -38 0 -38 0 7
38 c3 20 6 52 6 70 0 27 3 32 25 32 17 0 25 -6 25 -17z m279 -120 c1 -7 -3
-13 -9 -13 -5 0 -10 15 -9 33 0 27 2 29 9 12 5 -11 9 -26 9 -32z"/>
</g>
</svg>
