<?xml version="1.0" standalone="no"?>
<!DOCTYPE svg PUBLIC "-//W3C//DTD SVG 20010904//EN"
 "http://www.w3.org/TR/2001/REC-SVG-20010904/DTD/svg10.dtd">
<svg version="1.0" xmlns="http://www.w3.org/2000/svg"
 width="177.000000pt" height="605.000000pt" viewBox="0 0 177.000000 605.000000"
 preserveAspectRatio="xMidYMid meet">
<metadata>
Created by potrace 1.16, written by Peter Selinger 2001-2019
</metadata>
<g transform="translate(0.000000,605.000000) scale(0.100000,-0.100000)"
fill="#000000" stroke="none">
<path d="M695 5740 c-4 -7 -7 -55 -6 -108 l2 -95 -28 18 c-68 45 -177 103
-185 99 -9 -6 -11 -204 -2 -228 9 -24 21 -20 119 39 l90 53 3 -125 c1 -69 1
-128 -2 -130 -2 -3 -47 20 -98 51 -52 31 -99 56 -106 56 -9 0 -12 -33 -12
-120 0 -118 0 -120 23 -120 12 0 60 23 106 50 46 28 85 49 86 48 7 -9 15 -163
15 -305 0 -102 4 -163 10 -163 6 0 10 58 10 153 0 148 5 197 19 197 4 0 27
-14 50 -32 l44 -32 -22 -18 c-13 -9 -35 -26 -49 -37 -21 -15 -24 -22 -15 -32
9 -9 23 -4 61 25 27 20 52 36 56 36 3 0 24 -13 46 -29 l41 -29 -88 -64 c-47
-34 -91 -66 -97 -70 -6 -4 -5 -12 3 -22 12 -14 10 -16 -7 -16 -12 0 -24 -4
-27 -10 -10 -16 27 -12 121 15 116 34 201 74 241 114 41 41 86 134 112 235 25
96 26 122 5 130 -22 9 -24 8 -24 -10 0 -9 -8 -48 -17 -86 -12 -50 -23 -74 -40
-85 -25 -16 -30 -15 -91 35 l-24 19 50 41 c35 30 55 40 68 35 12 -4 15 -3 10
6 -4 6 -2 18 4 26 15 17 -1 20 -17 4 -9 -9 -25 -2 -62 27 -28 22 -50 41 -50
44 0 3 20 20 44 38 42 32 45 33 67 18 31 -22 48 -19 21 3 -13 11 -23 24 -23
30 0 6 -6 11 -13 11 -8 0 -39 20 -70 44 l-57 44 32 25 c23 18 37 23 48 17 42
-22 108 -139 132 -232 6 -26 15 -48 20 -48 12 0 10 10 -18 106 -53 186 -100
229 -349 319 -115 42 -151 49 -160 35z m62 -65 c-4 -8 5 -22 20 -33 l27 -20
-30 -25 c-41 -37 -48 -34 -40 19 3 26 6 53 6 60 0 8 5 14 11 14 6 0 9 -7 6
-15z m72 -9 c13 -7 20 -16 15 -19 -5 -3 -21 3 -34 14 -29 21 -17 25 19 5z
m150 -57 l65 -29 -35 -24 c-19 -13 -38 -21 -44 -16 -89 66 -113 88 -102 99 13
13 29 9 116 -30z m-392 -33 l87 -44 -92 -46 -92 -46 0 90 c0 49 2 90 5 90 2 0
44 -20 92 -44z m356 -56 c8 -7 -64 -60 -82 -60 -5 0 -31 17 -58 38 -26 21 -55
37 -63 34 -19 -6 -15 -1 39 41 l44 35 56 -40 c31 -23 60 -44 64 -48z m-155
-51 c23 -17 42 -32 42 -34 0 -6 -84 -65 -92 -65 -4 0 -8 29 -8 65 0 36 4 65 8
65 4 0 27 -14 50 -31z m243 -10 c32 -23 59 -45 59 -48 0 -13 -90 -62 -102 -55
-7 4 -33 23 -57 42 l-44 36 39 33 c21 18 41 33 42 33 2 0 30 -19 63 -41z
m-114 -85 c29 -20 53 -40 53 -45 0 -4 -20 -22 -45 -39 l-46 -32 -54 41 c-30
23 -55 43 -55 45 0 6 82 66 89 66 3 0 29 -16 58 -36z m-329 -88 l84 -42 -91
-47 -91 -47 0 90 c0 50 3 90 8 89 4 0 45 -19 90 -43z m208 -3 c29 -21 54 -40
53 -43 0 -7 -85 -69 -104 -76 -13 -5 -15 7 -15 75 0 45 3 81 6 81 3 0 30 -17
60 -37z m256 -5 c27 -18 48 -36 48 -39 0 -8 -89 -69 -101 -69 -13 0 -89 61
-89 71 0 7 79 69 89 69 3 0 27 -15 53 -32z m-126 -90 c24 -17 44 -34 44 -38 0
-10 -98 -80 -112 -80 -7 0 -30 15 -52 33 l-38 33 53 41 c30 23 56 42 57 42 2
1 24 -13 48 -31z m123 -88 c23 -17 40 -34 37 -38 -2 -4 -29 -25 -60 -46 l-55
-38 -40 29 c-22 15 -41 31 -41 35 0 8 101 88 111 88 3 0 25 -14 48 -30z m68
-87 c-14 -26 -34 -59 -45 -73 -19 -23 -20 -24 -46 -7 -14 10 -26 21 -26 26 0
10 132 112 138 106 2 -1 -8 -25 -21 -52z m-108 -92 l24 -18 -44 -26 c-45 -27
-170 -77 -191 -77 -6 0 29 31 78 70 49 38 94 70 99 70 6 0 21 -9 34 -19z"/>
<path d="M477 5043 c-4 -3 -7 -57 -7 -120 0 -86 3 -115 14 -119 15 -6 206 103
206 117 0 17 -203 133 -213 122z m113 -77 l85 -44 -93 -46 -92 -46 0 90 c0 49
3 90 8 89 4 0 45 -19 92 -43z"/>
<path d="M695 4619 c-4 -6 -6 -66 -6 -134 l2 -124 -89 53 c-141 85 -132 89
-132 -53 0 -106 2 -120 18 -123 9 -2 57 20 106 50 48 29 89 52 91 50 6 -8 13
-458 7 -455 -4 2 -50 30 -104 61 -53 31 -101 56 -107 56 -7 0 -11 -39 -11
-120 0 -118 0 -120 23 -120 12 0 63 24 112 54 l90 54 3 -114 c3 -130 22 -159
22 -33 l0 80 40 -28 c45 -32 48 -38 21 -55 -15 -9 -17 -16 -10 -30 8 -15 6
-18 -10 -18 -11 0 -23 -4 -26 -10 -10 -16 27 -12 121 15 116 34 201 74 241
114 41 41 86 134 112 235 25 96 26 122 5 130 -22 9 -24 8 -24 -10 0 -9 -8 -48
-17 -86 -12 -50 -23 -74 -40 -85 -25 -16 -30 -15 -91 35 l-24 19 50 41 c35 30
55 40 68 35 12 -4 15 -3 10 6 -4 6 -2 18 4 26 15 17 -1 20 -17 4 -9 -9 -25 -2
-62 27 -28 22 -50 41 -50 44 0 3 20 20 44 39 44 33 46 33 71 16 14 -9 28 -14
31 -11 3 2 -4 11 -16 18 -12 7 -21 18 -21 25 0 7 -6 13 -13 13 -8 0 -39 20
-70 44 l-57 44 32 25 c23 18 37 23 48 17 42 -22 108 -139 132 -232 6 -26 15
-48 20 -48 12 0 10 10 -18 106 -43 151 -84 204 -198 258 -66 32 -274 106 -296
106 -5 0 -12 -5 -15 -11z m62 -64 c-4 -8 5 -22 20 -33 l27 -20 -30 -25 c-41
-37 -48 -34 -40 19 3 26 6 53 6 60 0 8 5 14 11 14 6 0 9 -7 6 -15z m87 -26
c-3 -5 -16 -2 -30 7 -32 22 -30 25 6 13 16 -6 27 -15 24 -20z m135 -40 l65
-29 -35 -24 c-19 -13 -38 -21 -44 -16 -89 66 -113 88 -102 99 13 13 29 9 116
-30z m-36 -89 c8 -7 -64 -60 -82 -60 -5 0 -31 17 -58 38 -26 21 -55 37 -63 34
-19 -6 -14 -1 40 41 l45 34 55 -40 c30 -22 59 -43 63 -47z m-353 -4 l85 -44
-93 -46 -92 -46 0 90 c0 49 3 90 8 89 4 0 45 -19 92 -43z m198 -47 c23 -17 42
-32 42 -34 0 -6 -84 -65 -92 -65 -4 0 -8 29 -8 65 0 36 4 65 8 65 4 0 27 -14
50 -31z m243 -10 c32 -23 59 -45 59 -48 0 -13 -90 -62 -102 -55 -7 4 -33 23
-57 42 l-44 36 39 33 c21 18 41 33 42 33 2 0 30 -19 63 -41z m-114 -85 c29
-20 53 -40 53 -45 0 -4 -20 -22 -46 -39 l-45 -32 -55 42 c-29 24 -54 44 -54
45 0 5 83 65 89 65 3 0 29 -16 58 -36z m-121 -91 c29 -21 54 -40 53 -43 0 -7
-85 -69 -104 -76 -13 -5 -15 7 -15 75 0 45 3 81 6 81 3 0 30 -17 60 -37z m256
-5 c27 -18 48 -36 48 -39 0 -8 -89 -69 -101 -69 -12 0 -89 60 -89 70 0 6 80
70 89 70 3 0 27 -15 53 -32z m-126 -90 c24 -17 44 -35 44 -39 0 -10 -98 -79
-113 -79 -6 0 -29 15 -51 33 l-38 33 53 41 c30 23 56 42 57 42 2 1 24 -13 48
-31z m123 -88 c23 -17 40 -34 37 -38 -2 -4 -29 -25 -60 -46 l-55 -38 -40 29
c-22 15 -41 31 -41 34 0 7 102 89 111 89 3 0 25 -14 48 -30z m-260 -22 l44
-32 -22 -18 c-13 -9 -33 -25 -47 -35 -16 -13 -21 -22 -15 -32 7 -11 19 -7 59
22 27 21 52 37 56 37 3 0 24 -13 46 -29 l40 -29 -33 -24 c-17 -13 -46 -34 -63
-46 l-32 -22 -51 41 -51 41 0 63 c0 64 6 95 19 95 4 0 27 -14 50 -32z m-201
-42 l84 -42 -91 -47 -91 -47 0 90 c0 50 3 90 8 89 4 0 45 -19 90 -43z m520
-37 c-42 -77 -59 -90 -87 -65 -12 11 -21 23 -21 27 0 9 133 109 138 104 3 -2
-11 -32 -30 -66z m-99 -78 l24 -18 -45 -27 c-63 -37 -104 -49 -123 -38 -14 7
-7 17 42 55 32 26 63 47 68 47 6 0 21 -9 34 -19z m-160 -105 c-2 -2 -18 -8
-34 -12 l-30 -7 25 21 c15 12 29 17 34 11 5 -5 8 -11 5 -13z"/>
<path d="M695 3479 c-4 -6 -6 -69 -6 -140 1 -71 0 -129 -3 -129 -3 0 -46 25
-96 55 -103 62 -165 95 -180 95 -11 0 -14 -248 -4 -311 9 -50 24 -47 162 35
63 37 115 66 117 64 3 -3 12 -328 9 -328 -1 0 -59 34 -130 75 -71 41 -137 75
-147 75 -18 0 -19 -10 -15 -165 2 -131 6 -168 17 -175 16 -9 30 -2 187 92 45
26 85 48 88 48 3 0 6 -61 6 -135 0 -120 2 -135 17 -135 9 0 76 39 147 87 179
118 578 392 594 408 11 10 -25 37 -195 146 -227 145 -553 349 -558 349 -2 0
-7 -5 -10 -11z m88 -89 c29 -17 36 -28 39 -60 5 -54 3 -56 -47 -52 -43 4 -45
5 -45 37 0 34 10 95 16 95 1 0 18 -9 37 -20z m135 -80 c43 -26 40 -40 -8 -40
-38 0 -40 2 -40 30 0 35 5 36 48 10z m-353 -62 c69 -35 125 -65 125 -68 0 -8
-260 -133 -266 -128 -5 6 7 258 12 258 2 0 60 -28 129 -62z m491 -19 c30 -18
34 -25 34 -65 l0 -44 -50 0 -50 0 0 58 c0 80 9 87 66 51z m-228 -46 l3 -53
-50 0 -51 0 0 56 0 55 48 -3 47 -3 3 -52z m122 -4 c0 -59 -1 -61 -22 -55 -13
3 -31 6 -40 6 -15 0 -18 9 -18 55 l0 55 40 0 40 0 0 -61z m237 -24 c23 -14 43
-28 43 -30 0 -3 -22 -5 -50 -5 -49 0 -50 1 -50 30 0 17 3 30 7 30 3 0 26 -11
50 -25z m-93 -101 c3 -26 6 -62 6 -80 l0 -34 -55 0 -55 0 0 78 0 77 49 3 48 2
7 -46z m136 -36 l0 -83 -55 3 c-62 4 -59 -1 -49 101 l7 61 48 0 49 0 0 -82z
m134 35 c72 -40 82 -49 68 -59 -9 -6 -54 -34 -99 -63 -73 -45 -83 -49 -83 -31
0 15 7 20 28 21 23 2 24 2 5 6 -22 4 -23 9 -23 89 0 49 4 84 10 84 5 0 48 -21
94 -47z m-534 -39 c0 -65 -2 -75 -16 -70 -9 3 -31 6 -50 6 l-34 0 0 70 0 70
50 0 50 0 0 -76z m124 39 c3 -21 6 -55 6 -75 l0 -38 -44 0 c-25 0 -48 5 -51
11 -4 6 -4 39 0 75 l7 64 37 0 c37 0 39 -2 45 -37z m-389 -325 c-75 -38 -138
-68 -142 -68 -3 0 -3 33 0 73 4 39 7 100 7 134 l0 63 135 -67 135 -68 -135
-67z m668 170 c4 -12 5 -23 4 -24 -1 -1 -28 -18 -59 -38 l-58 -37 0 54 c0 30
3 57 7 60 3 4 28 7 54 7 40 0 48 -3 52 -22z m-403 -58 l0 -70 -56 0 -57 0 7
38 c3 20 6 52 6 70 0 32 0 32 50 32 l50 0 0 -70z m130 -2 l0 -73 -50 3 -50 4
0 69 0 69 50 0 50 0 0 -72z m140 13 c0 -70 -19 -91 -82 -91 l-38 0 0 75 0 75
60 0 60 0 0 -59z m-268 -131 c4 -8 7 -33 7 -55 1 -34 -4 -43 -32 -61 -17 -11
-44 -29 -59 -38 l-28 -18 0 90 0 91 43 3 c60 5 61 5 69 -12z m128 1 c0 -12
-18 -31 -48 -50 -58 -37 -63 -38 -58 -8 3 12 5 34 5 50 1 26 3 27 51 27 42 0
50 -3 50 -19z m50 9 c-19 -13 -30 -13 -30 0 0 6 10 10 23 10 18 0 19 -2 7 -10z"/>
<path d="M694 2429 c-4 -7 -6 -43 -5 -80 l2 -69 -195 0 -196 0 0 -115 0 -115
195 0 195 0 0 -81 0 -81 -192 3 -193 3 -3 -117 -3 -118 198 1 198 2 3 -106 c2
-86 5 -106 18 -106 16 0 135 78 507 333 201 138 246 173 235 183 -25 23 -739
474 -752 474 -2 0 -8 -5 -12 -11z m128 -136 c-4 -22 -9 -24 -44 -20 -21 2 -41
7 -44 9 -2 3 -2 24 2 46 l6 40 42 -25 c35 -21 42 -30 38 -50z m78 -19 c0 -2
-7 -4 -15 -4 -8 0 -15 4 -15 10 0 5 7 7 15 4 8 -4 15 -8 15 -10z m50 -104 l0
-80 -40 0 -40 0 0 80 0 80 40 0 40 0 0 -80z m-260 0 l0 -70 -180 0 -180 0 0
65 0 64 148 4 c81 1 162 4 180 5 l32 2 0 -70z m137 -2 l-2 -73 -40 2 c-22 1
-43 2 -47 2 -5 1 -8 33 -8 71 l0 70 49 0 49 0 -1 -72z m221 20 c38 -21 42 -27
42 -60 l0 -38 -50 0 -50 0 0 60 c0 33 3 60 8 60 4 0 26 -10 50 -22z m167 -101
c7 -6 1 -8 -15 -3 -14 3 -35 6 -47 6 -18 0 -23 6 -23 26 l0 26 38 -23 c20 -12
42 -27 47 -32z m-116 -159 l1 -48 -55 0 -55 0 0 89 0 90 48 3 47 3 7 -45 c3
-25 7 -66 7 -92z m131 47 l0 -95 -55 0 c-63 0 -61 -6 -48 123 l6 67 48 0 49 0
0 -95z m-400 0 l0 -85 -50 0 -50 0 0 78 c0 43 3 82 7 85 3 4 26 7 50 7 l43 0
0 -85z m124 33 c3 -29 6 -70 6 -90 l0 -38 -44 0 c-25 0 -48 5 -51 11 -4 5 -4
46 0 90 l7 79 38 0 37 0 7 -52z m406 0 l89 -52 -76 -47 c-58 -35 -82 -45 -97
-39 -12 4 -21 12 -20 19 1 6 2 47 3 91 0 44 4 80 7 80 3 0 45 -23 94 -52z
m-123 -165 c4 -10 -94 -83 -112 -83 -3 0 -5 23 -5 50 l0 51 57 -3 c33 -2 58
-8 60 -15z m38 7 c-3 -5 -10 -10 -16 -10 -5 0 -9 5 -9 10 0 6 7 10 16 10 8 0
12 -4 9 -10z m-581 -22 c3 -13 6 -44 6 -70 l0 -48 -185 0 -185 0 0 65 0 65
163 3 c89 1 169 4 178 5 10 1 19 -7 23 -20z m136 -53 l0 -75 -49 0 c-28 0 -52
4 -56 10 -3 5 -3 39 1 75 l7 65 48 0 49 0 0 -75z m130 -6 c0 -70 -2 -80 -16
-75 -9 3 -31 6 -50 6 l-34 0 0 75 0 75 50 0 50 0 0 -81z m140 26 c0 -53 -1
-55 -43 -80 -72 -41 -77 -38 -77 55 l0 80 60 0 60 0 0 -55z m-140 -129 c0 -10
-90 -76 -105 -76 -3 0 -1 30 4 72 1 4 22 9 49 11 26 2 48 4 50 5 1 1 2 -4 2
-12z m-120 -43 c0 -48 -1 -48 -60 -85 l-60 -37 0 84 0 85 60 0 60 0 0 -47z"/>
<path d="M694 1279 c-4 -7 -6 -43 -5 -80 l2 -69 -196 0 -197 0 4 -310 3 -310
198 0 197 0 0 -105 c0 -87 3 -105 15 -105 16 0 251 154 568 373 152 105 186
132 175 142 -25 23 -740 475 -752 475 -3 0 -8 -5 -12 -11z m96 -92 c26 -16 34
-28 32 -44 -3 -19 -10 -23 -42 -23 -21 0 -42 4 -45 10 -7 12 4 80 14 80 3 0
22 -11 41 -23z m110 -63 c0 -2 -7 -4 -15 -4 -8 0 -15 4 -15 10 0 5 7 7 15 4 8
-4 15 -8 15 -10z m50 -104 l0 -80 -40 0 -40 0 0 80 0 80 40 0 40 0 0 -80z
m-260 0 l0 -70 -176 0 -176 0 6 31 c3 17 6 47 6 65 l0 33 158 4 c86 1 163 4
170 5 9 1 12 -17 12 -68z m138 -5 l2 -75 -50 0 -50 0 0 75 0 75 48 0 48 0 2
-75z m217 22 c34 -19 40 -28 43 -60 l3 -37 -50 0 -51 0 0 60 c0 33 3 60 8 60
4 0 25 -10 47 -23z m147 -105 c-47 -5 -62 3 -62 32 l0 25 48 -27 47 -27 -33
-3z m38 -111 l0 -98 -52 5 c-29 2 -55 6 -56 8 -2 1 -1 41 3 88 8 92 8 93 73
95 l32 1 0 -99z m-402 -5 c2 -78 1 -88 -13 -82 -9 3 -32 6 -51 6 l-34 0 0 79
c0 87 1 87 70 86 25 0 25 -2 28 -89z m126 42 c3 -29 6 -70 6 -90 l0 -38 -50 0
c-57 0 -56 -2 -44 119 l7 61 37 0 37 0 7 -52z m140 0 c3 -29 6 -70 6 -90 l0
-38 -55 0 -55 0 0 90 0 90 49 0 48 0 7 -52z m264 -1 l90 -53 -94 -58 c-52 -32
-98 -55 -102 -52 -3 4 5 10 18 13 22 6 22 7 4 13 -17 7 -19 16 -16 99 2 50 5
91 7 91 1 0 43 -24 93 -53z m-668 -37 l0 -80 -175 0 -175 0 0 80 0 80 175 0
175 0 0 -80z m548 -130 c1 -9 -22 -30 -58 -52 l-60 -37 0 49 c0 45 2 49 28 53
49 8 87 3 90 -13z m-543 -23 c9 -49 2 -112 -12 -111 -7 1 -90 2 -183 3 l-171
1 3 63 3 62 170 5 c94 3 173 7 177 8 4 1 10 -13 13 -31z m135 -42 l0 -75 -56
0 -57 0 7 53 c3 28 6 62 6 75 0 20 5 22 50 22 l50 0 0 -75z m130 -6 l0 -82
-37 7 c-21 3 -44 6 -50 6 -9 0 -13 22 -13 75 l0 75 50 0 50 0 0 -81z m140 26
c0 -53 -1 -56 -40 -80 -22 -14 -49 -25 -60 -25 -18 0 -20 6 -20 80 l0 80 60 0
60 0 0 -55z m-262 -175 l3 -45 -61 -38 -60 -37 0 79 c0 89 2 91 70 88 l45 -2
3 -45z m122 41 c0 -12 -99 -75 -107 -68 -3 3 -2 22 1 42 7 34 8 35 56 35 28 0
50 -4 50 -9z"/>
</g>
</svg>
