<?xml version="1.0" standalone="no"?>
<!DOCTYPE svg PUBLIC "-//W3C//DTD SVG 20010904//EN"
 "http://www.w3.org/TR/2001/REC-SVG-20010904/DTD/svg10.dtd">
<svg version="1.0" xmlns="http://www.w3.org/2000/svg"
 width="197.000000pt" height="148.000000pt" viewBox="0 0 197.000000 148.000000"
 preserveAspectRatio="xMidYMid meet">
<metadata>
Created by potrace 1.16, written by Peter Selinger 2001-2019
</metadata>
<g transform="translate(0.000000,148.000000) scale(0.100000,-0.100000)"
fill="#000000" stroke="none">
<path d="M834 1138 c-25 -23 -68 -72 -95 -109 l-50 -66 -195 5 -196 4 5 -206
c2 -138 8 -211 15 -218 9 -9 12 -9 12 -1 0 8 55 12 179 13 l179 1 32 -59 c17
-33 56 -90 86 -128 80 -100 84 -99 293 22 226 132 543 324 559 339 10 9 -35
39 -220 142 -263 148 -547 303 -554 303 -2 0 -25 -19 -50 -42z m118 -42 l55
-30 2 -53 2 -53 -55 0 -55 0 -3 53 c-3 44 -6 52 -23 52 -17 0 -20 -8 -23 -52
l-3 -53 -50 0 c-27 0 -49 3 -49 7 0 19 128 166 141 161 3 -2 31 -16 61 -32z
m149 -77 c31 -15 40 -25 37 -42 -2 -14 -10 -22 -20 -21 -10 1 -29 2 -43 3 -22
1 -25 5 -25 41 0 22 2 40 5 40 3 0 24 -9 46 -21z m119 -64 c0 -3 -9 -5 -20 -5
-11 0 -20 7 -20 15 0 13 4 14 20 5 11 -6 20 -13 20 -15z m53 -22 c3 -4 8 -83
12 -175 l8 -168 -62 0 -61 0 0 85 0 85 53 0 c37 0 48 3 37 10 -8 5 -30 10 -47
10 l-33 0 0 78 0 78 44 3 c24 1 46 -2 49 -6z m-423 -79 l0 -77 -52 7 c-29 3
-68 6 -85 6 -31 0 -32 1 -26 33 18 91 31 102 126 106 l37 1 0 -76z m160 1 l0
-75 -60 0 -60 0 0 68 c0 38 3 72 7 75 3 4 30 7 60 7 l53 0 0 -75z m130 0 l0
-75 -45 0 -45 0 0 75 0 75 45 0 45 0 0 -75z m-750 0 c0 -64 -1 -65 -26 -65
-26 0 -27 1 -20 46 3 26 6 55 6 65 0 12 7 19 20 19 18 0 20 -7 20 -65z m130 0
l0 -65 -45 0 -45 0 0 65 0 65 45 0 45 0 0 -65z m145 48 c-3 -10 -11 -39 -17
-65 -11 -47 -12 -48 -50 -48 l-38 0 0 65 0 65 56 0 c49 0 55 -2 49 -17z m755
-82 c0 -20 3 -72 6 -116 l6 -80 -59 -32 c-70 -38 -64 -55 -56 163 l5 152 49
-25 c45 -24 49 -29 49 -62z m139 -35 l85 -43 -50 -28 c-115 -65 -133 -75 -138
-75 -8 0 -7 139 0 168 4 12 9 22 13 21 3 0 44 -19 90 -43z m-419 -88 c0 -35 3
-73 6 -85 6 -22 4 -23 -50 -23 -64 0 -61 -5 -50 106 l6 59 44 3 44 2 0 -62z
m-493 -5 c6 -32 14 -66 18 -75 6 -16 0 -18 -54 -18 l-61 0 0 69 0 70 38 4 c20
2 39 4 42 5 3 1 10 -24 17 -55z m207 5 c12 -103 15 -98 -64 -98 l-69 0 -16 52
c-8 28 -15 62 -15 75 0 22 3 23 79 23 l78 0 7 -52z m156 -28 l0 -81 -57 3 -58
3 -3 78 -3 77 61 0 60 0 0 -80z m-620 53 c0 -10 3 -42 6 -70 l7 -53 -38 0 -38
0 7 38 c3 20 6 52 6 70 0 27 3 32 25 32 17 0 25 -6 25 -17z m134 -29 c13 -95
13 -94 -49 -94 l-55 0 0 70 0 70 49 0 48 0 7 -46z m496 -214 l0 -78 -72 -42
c-39 -22 -75 -37 -79 -33 -12 12 -129 217 -129 225 0 5 27 8 60 8 l60 0 0 -90
c0 -53 4 -90 10 -90 6 0 10 37 10 90 l0 89 63 3 c34 2 65 2 70 0 4 -2 7 -39 7
-82z m130 41 l0 -49 -55 -30 -55 -30 0 79 0 79 55 0 55 0 0 -49z m140 39 c0
-9 -97 -70 -112 -70 -5 0 -8 18 -8 40 l0 40 60 0 c33 0 60 -4 60 -10z"/>
</g>
</svg>
