<?xml version="1.0" standalone="no"?>
<!DOCTYPE svg PUBLIC "-//W3C//DTD SVG 20010904//EN"
 "http://www.w3.org/TR/2001/REC-SVG-20010904/DTD/svg10.dtd">
<svg version="1.0" xmlns="http://www.w3.org/2000/svg"
 width="177.000000pt" height="159.000000pt" viewBox="0 0 177.000000 159.000000"
 preserveAspectRatio="xMidYMid meet">
<metadata>
Created by potrace 1.16, written by Peter Selinger 2001-2019
</metadata>
<g transform="translate(0.000000,159.000000) scale(0.100000,-0.100000)"
fill="#000000" stroke="none">
<path d="M694 1279 c-4 -7 -6 -44 -5 -84 l2 -71 -196 4 -196 5 3 -113 2 -113
193 5 193 6 0 -90 0 -90 -195 7 -196 7 2 -117 3 -118 198 8 198 7 0 -116 c0
-97 2 -116 15 -116 16 0 215 130 553 363 165 113 201 142 190 152 -23 21 -742
475 -752 475 -3 0 -8 -5 -12 -11z m258 -187 c112 -65 269 -156 350 -203 l146
-84 -65 -40 c-84 -52 -565 -353 -621 -388 l-42 -27 5 387 c6 364 10 473 20
473 3 0 96 -53 207 -118z m-262 -72 l0 -80 -177 7 c-98 3 -180 7 -181 9 -2 1
-1 32 3 68 l7 65 112 4 c61 1 139 4 174 5 l62 2 0 -80z m4 -337 c3 -21 6 -60
6 -87 l0 -48 -31 6 c-17 3 -101 6 -186 6 l-155 0 7 68 c4 37 8 68 9 69 1 2 72
7 157 11 85 5 161 10 170 11 12 1 18 -10 23 -36z"/>
</g>
</svg>
