<?xml version="1.0" standalone="no"?>
<!DOCTYPE svg PUBLIC "-//W3C//DTD SVG 20010904//EN"
 "http://www.w3.org/TR/2001/REC-SVG-20010904/DTD/svg10.dtd">
<svg version="1.0" xmlns="http://www.w3.org/2000/svg"
 width="173.000000pt" height="127.000000pt" viewBox="0 0 173.000000 127.000000"
 preserveAspectRatio="xMidYMid meet">
<metadata>
Created by potrace 1.16, written by Peter Selinger 2001-2019
</metadata>
<g transform="translate(0.000000,127.000000) scale(0.100000,-0.100000)"
fill="#000000" stroke="none">
<path d="M322 944 l3 -29 160 3 c88 1 215 5 282 8 l121 6 6 -44 c3 -23 7 -146
9 -271 4 -208 3 -228 -12 -222 -9 4 -145 9 -303 12 l-288 6 0 -28 0 -28 273 7
c149 3 287 9 305 12 32 6 32 6 32 -35 0 -70 20 -45 22 27 0 37 2 72 3 77 2 6
3 54 4 108 l1 97 103 0 c107 0 378 18 386 26 12 12 -26 16 -245 22 l-239 7 -3
121 -3 122 -32 6 c-18 3 -157 9 -310 12 l-279 7 4 -29z"/>
</g>
</svg>
