<?xml version="1.0" standalone="no"?>
<!DOCTYPE svg PUBLIC "-//W3C//DTD SVG 20010904//EN"
 "http://www.w3.org/TR/2001/REC-SVG-20010904/DTD/svg10.dtd">
<svg version="1.0" xmlns="http://www.w3.org/2000/svg"
 width="168.000000pt" height="360.000000pt" viewBox="0 0 168.000000 360.000000"
 preserveAspectRatio="xMidYMid meet">
<metadata>
Created by potrace 1.16, written by Peter Selinger 2001-2019
</metadata>
<g transform="translate(0.000000,360.000000) scale(0.100000,-0.100000)"
fill="#000000" stroke="none">
<path d="M322 3262 c2 -48 -17 -39 193 -90 66 -16 153 -35 193 -42 l72 -12 0
-68 c0 -37 3 -87 6 -112 l6 -45 -93 -17 c-52 -9 -160 -33 -240 -52 l-147 -35
2 -42 1 -41 145 2 c80 1 189 5 243 8 l97 7 0 -42 c0 -22 4 -41 9 -41 4 0 10
75 13 166 4 113 9 168 17 174 7 4 105 10 219 13 114 4 218 10 232 14 l25 7
-30 8 c-17 4 -126 11 -242 14 l-213 7 0 117 0 118 -27 6 c-16 3 -130 9 -255
12 l-228 7 2 -41z m458 -62 c0 -33 -1 -60 -3 -60 -2 0 -48 15 -103 33 -54 19
-130 42 -169 53 l-70 19 110 6 c61 3 138 6 173 7 l62 2 0 -60z m10 -396 l0
-65 -82 6 c-46 4 -126 10 -178 14 l-95 6 65 17 c36 10 110 33 165 52 55 19
106 35 113 35 8 1 12 -18 12 -65z"/>
<path d="M803 2100 c-4 -4 -71 -20 -148 -35 -133 -25 -323 -69 -329 -77 -5 -5
-15 -78 -11 -78 2 0 55 -7 117 -15 98 -12 329 -35 366 -35 7 0 12 -15 12 -40
0 -22 -1 -40 -3 -40 -21 0 -261 -48 -359 -71 -127 -31 -128 -31 -129 -60 -1
-16 -2 -35 -3 -41 -1 -14 200 -41 397 -54 l107 -7 0 -43 c0 -24 5 -44 10 -44
6 0 10 21 10 48 0 26 3 77 6 113 l7 66 201 7 c110 4 224 10 251 13 l50 7 -40
7 c-22 4 -112 8 -200 9 -88 0 -184 3 -212 6 l-53 7 0 53 0 54 138 1 c75 0 188
4 250 7 l112 7 0 -40 c0 -65 12 -145 22 -145 5 0 7 43 6 97 -3 87 -5 96 -23
100 -11 2 -129 7 -262 10 l-243 6 0 102 c0 93 -2 103 -19 108 -11 2 -23 1 -28
-3z m2 -121 c3 -50 4 -93 2 -96 -3 -2 -74 9 -159 26 -84 16 -175 33 -203 37
l-49 7 149 43 c83 23 168 49 190 58 22 8 45 15 51 15 7 1 14 -33 19 -90z m9
-315 c4 -53 5 -98 4 -99 -2 -2 -211 37 -388 72 -18 4 20 18 125 48 83 24 168
50 190 59 22 8 45 15 51 15 7 1 14 -35 18 -95z"/>
<path d="M466 969 c-22 -5 -68 -24 -103 -41 l-64 -31 3 -46 c3 -46 3 -46 71
-80 59 -30 79 -35 155 -38 80 -4 96 -1 187 32 55 20 108 39 118 42 16 5 17 -6
17 -131 0 -75 -2 -136 -4 -136 -2 0 -35 13 -74 29 -39 16 -103 37 -143 47 -91
22 -172 11 -266 -37 l-64 -32 3 -46 3 -46 70 -35 c66 -33 76 -35 170 -35 100
0 136 10 298 80 15 6 17 0 17 -73 0 -45 4 -83 9 -86 10 -7 21 116 21 246 l0
98 114 0 c115 0 366 17 375 25 12 13 -24 16 -245 23 l-239 7 -3 123 c-3 121
-3 123 -25 120 -18 -2 -21 -9 -19 -32 3 -24 0 -27 -15 -21 -166 69 -289 94
-367 74z m229 -55 c207 -51 205 -78 -9 -126 -125 -27 -200 -22 -293 21 -40 19
-73 38 -73 42 0 13 117 69 164 79 49 10 128 4 211 -16z m20 -355 c103 -26 148
-46 143 -61 -5 -15 -120 -51 -216 -68 -92 -17 -164 -9 -239 25 -94 41 -95 48
-24 85 110 55 177 59 336 19z"/>
</g>
</svg>
