<?xml version="1.0" standalone="no"?>
<!DOCTYPE svg PUBLIC "-//W3C//DTD SVG 20010904//EN"
 "http://www.w3.org/TR/2001/REC-SVG-20010904/DTD/svg10.dtd">
<svg version="1.0" xmlns="http://www.w3.org/2000/svg"
 width="117.000000pt" height="235.000000pt" viewBox="0 0 117.000000 235.000000"
 preserveAspectRatio="xMidYMid meet">
<metadata>
Created by potrace 1.16, written by Peter Selinger 2001-2019
</metadata>
<g transform="translate(0.000000,235.000000) scale(0.100000,-0.100000)"
fill="#000000" stroke="none">
<path d="M440 2036 c-20 -7 -59 -25 -88 -40 -51 -26 -52 -27 -52 -70 0 -41 2
-44 48 -69 75 -40 157 -60 221 -54 82 9 312 89 298 104 -3 3 -45 -7 -94 -21
-136 -40 -219 -50 -283 -37 -58 12 -161 60 -164 76 -2 16 120 73 172 81 60 9
175 -8 280 -41 46 -15 86 -24 89 -21 7 7 -80 46 -169 77 -78 27 -208 34 -258
15z"/>
<path d="M422 1680 c-29 -10 -68 -28 -87 -40 -31 -19 -35 -26 -35 -64 0 -43 0
-43 66 -76 100 -49 171 -58 270 -32 90 23 234 79 234 92 0 4 -34 -3 -76 -16
-120 -38 -240 -56 -301 -44 -54 10 -173 64 -173 79 0 4 33 23 73 42 68 32 78
34 172 33 92 -1 190 -22 288 -59 9 -4 17 -3 17 2 0 10 -28 22 -160 69 -113 40
-203 45 -288 14z"/>
<path d="M710 928 c-58 -4 -169 -13 -246 -19 l-142 -11 -11 -40 c-7 -22 -11
-41 -9 -43 6 -4 413 -105 453 -111 27 -4 37 -3 30 4 -12 12 -235 94 -324 118
-33 10 -60 19 -58 21 2 2 57 10 123 19 65 8 153 22 194 30 41 8 78 14 81 14 3
0 9 -98 13 -217 8 -261 16 -393 26 -393 8 0 20 286 20 493 0 146 0 147 -22
146 -13 -1 -70 -6 -128 -11z"/>
<path d="M710 594 c-30 -8 -130 -38 -222 -66 l-168 -51 0 -42 0 -42 137 -6
c192 -10 363 -9 363 2 0 5 -19 11 -42 15 -94 13 -305 36 -343 36 -37 1 -32 4
55 35 118 43 292 115 305 127 13 12 -21 9 -85 -8z"/>
</g>
</svg>
