<?xml version="1.0" standalone="no"?>
<!DOCTYPE svg PUBLIC "-//W3C//DTD SVG 20010904//EN"
 "http://www.w3.org/TR/2001/REC-SVG-20010904/DTD/svg10.dtd">
<svg version="1.0" xmlns="http://www.w3.org/2000/svg"
 width="252.000000pt" height="156.000000pt" viewBox="0 0 252.000000 156.000000"
 preserveAspectRatio="xMidYMid meet">
<metadata>
Created by potrace 1.16, written by Peter Selinger 2001-2019
</metadata>
<g transform="translate(0.000000,156.000000) scale(0.100000,-0.100000)"
fill="#000000" stroke="none">
<path d="M385 1250 c-7 -12 4 -28 143 -205 113 -143 123 -156 94 -130 -12 11
-70 81 -130 155 -100 125 -122 146 -129 123 -2 -5 46 -66 107 -137 60 -71 110
-132 110 -137 0 -23 -22 -15 -47 19 -88 118 -188 231 -196 223 -6 -6 -4 -18 6
-33 30 -46 249 -289 254 -284 3 3 0 12 -6 20 -10 12 -9 14 8 9 15 -4 21 -13
21 -33 0 -37 -9 -60 -24 -60 -16 0 -39 48 -30 62 8 12 -224 248 -243 248 -26
0 -10 -20 91 -114 64 -60 103 -102 100 -111 -3 -7 0 -23 6 -35 7 -12 -36 19
-94 70 -72 63 -110 90 -117 83 -7 -7 29 -42 111 -109 87 -71 131 -115 155
-154 44 -72 117 -145 174 -172 49 -24 130 -33 409 -46 l163 -7 -96 -84 c-53
-45 -94 -88 -92 -95 9 -28 40 -10 129 77 l96 93 26 -19 c29 -21 34 -13 9 15
-15 17 -13 18 61 18 l78 0 -44 -36 c-80 -67 -158 -143 -158 -153 0 -6 10 -11
22 -11 15 0 55 32 119 96 83 83 97 93 109 80 7 -9 17 -16 23 -16 7 0 7 4 -1
12 -22 22 -12 28 51 28 l62 0 -35 -28 c-60 -46 -165 -146 -168 -159 -2 -8 6
-13 20 -13 16 0 52 29 118 95 91 91 95 94 113 77 19 -16 19 -16 13 6 l-7 22
228 2 c188 1 211 3 128 8 -55 4 -158 8 -229 9 -113 1 -127 3 -116 16 15 18 7
19 -20 3 -18 -12 -30 -3 -125 92 -85 85 -107 102 -115 90 -5 -8 -10 -18 -10
-21 0 -7 83 -85 149 -142 l45 -37 -30 0 c-41 0 -75 11 -68 21 7 13 -3 11 -26
-3 -18 -12 -30 -3 -123 90 -90 90 -105 101 -116 88 -17 -20 -12 -27 92 -118
l77 -68 -55 0 c-48 0 -54 2 -48 17 7 17 5 17 -21 -1 l-29 -18 -98 98 c-93 93
-100 97 -116 81 -16 -16 -13 -20 46 -73 34 -31 72 -65 84 -75 22 -18 20 -18
-88 -18 -195 1 -194 1 -268 99 -77 101 -139 167 -199 210 -24 17 -61 57 -83
89 -83 121 -230 320 -237 320 -4 1 -10 -4 -13 -9z m293 -422 c22 -22 14 -48
-13 -48 -25 0 -31 13 -19 44 7 19 16 20 32 4z m71 -52 c17 -20 -3 -66 -29 -66
-18 0 -20 4 -14 23 4 12 11 25 17 28 5 4 6 12 3 18 -10 16 9 14 23 -3z m-69
-40 c0 -17 -7 -25 -25 -28 -26 -5 -35 6 -27 35 3 10 14 17 28 17 19 0 24 -5
24 -24z m270 -179 c0 -5 -26 -6 -57 -2 -129 14 -198 65 -88 65 30 0 55 5 55
10 0 6 -22 10 -50 10 -44 0 -50 2 -50 21 0 13 8 23 21 26 21 6 21 7 4 19 -10
7 -14 18 -9 25 5 8 34 -16 90 -77 46 -49 83 -93 84 -97z m-210 109 c0 -34 -33
-40 -61 -10 -12 13 -17 24 -11 24 7 0 12 -6 12 -12 0 -9 2 -10 8 -2 4 7 16 14
27 17 11 2 21 5 23 6 1 0 2 -10 2 -23z"/>
</g>
</svg>
