<?xml version="1.0" standalone="no"?>
<!DOCTYPE svg PUBLIC "-//W3C//DTD SVG 20010904//EN"
 "http://www.w3.org/TR/2001/REC-SVG-20010904/DTD/svg10.dtd">
<svg version="1.0" xmlns="http://www.w3.org/2000/svg"
 width="205.000000pt" height="115.000000pt" viewBox="0 0 205.000000 115.000000"
 preserveAspectRatio="xMidYMid meet">
<metadata>
Created by potrace 1.16, written by Peter Selinger 2001-2019
</metadata>
<g transform="translate(0.000000,115.000000) scale(0.100000,-0.100000)"
fill="#000000" stroke="none">
<path d="M885 836 c-22 -7 -60 -23 -85 -36 -43 -22 -52 -23 -272 -21 -208 2
-228 1 -228 -15 0 -15 18 -16 215 -12 118 2 215 3 215 1 0 -1 -8 -18 -17 -37
l-17 -36 -198 7 -198 6 0 -23 0 -22 194 7 195 7 -8 -28 -7 -29 -187 0 c-176 0
-187 -1 -187 -19 0 -18 9 -18 185 -14 l185 5 0 -26 0 -26 -185 3 c-165 3 -185
2 -185 -13 0 -14 20 -16 189 -13 l189 3 16 -28 16 -28 -205 3 c-196 3 -205 2
-205 -16 0 -18 9 -19 211 -14 l210 6 47 -50 c62 -67 91 -78 206 -78 91 0 97 1
173 41 73 38 80 44 102 95 l23 54 87 0 86 -1 -70 -64 c-56 -52 -67 -67 -57
-77 11 -11 27 2 85 65 l72 78 62 -1 61 0 -64 -62 c-58 -55 -78 -88 -56 -88 5
0 43 36 86 80 77 79 79 80 130 81 l51 1 -40 9 c-22 5 -123 9 -225 9 l-185 0 0
65 0 65 178 -2 c97 -2 177 0 177 5 0 4 23 7 52 7 66 0 59 6 -17 14 -59 6 -61
7 -129 82 -49 53 -72 72 -79 65 -8 -8 7 -30 53 -76 l64 -65 -61 0 -61 0 -73
75 c-50 52 -76 72 -83 65 -7 -7 10 -31 54 -75 l64 -65 -77 0 c-73 0 -78 1 -89
25 -6 14 -17 25 -25 25 -7 0 -13 6 -13 13 0 14 -98 67 -169 92 -52 18 -121 18
-176 1z m172 -36 c23 -5 67 -19 98 -31 52 -19 59 -26 81 -73 31 -67 31 -131
-2 -228 l-25 -77 -82 -32 c-111 -43 -139 -45 -235 -19 -68 18 -87 28 -106 54
-73 97 -86 178 -44 281 26 65 46 82 140 115 59 21 112 24 175 10z"/>
<path d="M881 776 c-9 -11 -1 -21 39 -52 27 -21 50 -41 50 -44 -1 -8 -88 -70
-98 -70 -5 0 -17 9 -27 20 -10 11 -24 20 -32 20 -21 0 -15 -27 12 -48 l25 -20
-31 -25 c-22 -17 -30 -30 -25 -42 5 -15 11 -13 44 13 l38 30 47 -36 48 -37
-28 -25 c-15 -14 -41 -35 -57 -48 -23 -17 -27 -25 -17 -35 13 -13 16 -12 85
47 l46 38 56 -42 c30 -23 58 -40 60 -37 2 2 -18 25 -45 51 l-50 46 42 40 c47
45 66 49 92 20 10 -11 25 -20 34 -20 11 1 5 11 -18 30 l-35 30 29 30 c33 35
26 39 -16 9 l-29 -21 -52 43 -51 43 48 43 c64 56 53 64 -15 13 l-54 -40 -35
33 c-60 55 -67 59 -80 43z m169 -155 l49 -39 -51 -40 -52 -40 -48 40 -48 39
46 40 c25 21 47 39 50 39 2 0 27 -18 54 -39z"/>
<path d="M300 365 c0 -13 25 -15 169 -15 92 0 197 3 232 7 l64 7 -45 7 c-25 4
-129 8 -232 8 -161 1 -188 -1 -188 -14z"/>
</g>
</svg>
