<?xml version="1.0" standalone="no"?>
<!DOCTYPE svg PUBLIC "-//W3C//DTD SVG 20010904//EN"
 "http://www.w3.org/TR/2001/REC-SVG-20010904/DTD/svg10.dtd">
<svg version="1.0" xmlns="http://www.w3.org/2000/svg"
 width="230.000000pt" height="169.000000pt" viewBox="0 0 230.000000 169.000000"
 preserveAspectRatio="xMidYMid meet">
<metadata>
Created by potrace 1.16, written by Peter Selinger 2001-2019
</metadata>
<g transform="translate(0.000000,169.000000) scale(0.100000,-0.100000)"
fill="#000000" stroke="none">
<path d="M1154 1371 c-27 -10 -64 -26 -82 -35 -26 -13 -68 -16 -262 -16 -206
0 -230 -2 -230 -16 0 -15 21 -16 219 -12 l220 5 -19 -37 -19 -37 -201 5 c-194
5 -202 4 -198 -14 3 -18 14 -19 197 -15 l194 3 -6 -23 c-4 -13 -7 -28 -7 -33
0 -5 -82 -7 -187 -5 -178 4 -188 3 -191 -15 -4 -19 3 -19 184 -13 l189 6 1
-25 2 -24 -189 0 c-168 0 -189 -2 -189 -16 0 -15 19 -16 194 -12 l194 5 11
-24 c6 -13 11 -26 11 -28 0 -3 -91 -4 -202 -2 -191 2 -203 1 -206 -17 -4 -18
4 -18 210 -12 l213 7 54 -55 c50 -51 61 -57 129 -72 93 -21 133 -14 240 38 73
37 86 47 99 80 8 21 19 38 24 38 4 0 32 -10 61 -21 115 -46 269 -96 273 -89 5
8 -69 43 -230 111 -58 25 -88 43 -86 51 3 7 7 37 10 67 l6 55 95 41 c168 74
215 97 205 101 -11 4 -123 -32 -247 -80 l-67 -26 -12 23 c-23 42 -68 78 -146
115 -95 45 -179 52 -259 23z m211 -36 c114 -30 137 -46 163 -109 29 -73 28
-113 -6 -211 l-27 -80 -84 -34 c-99 -39 -154 -42 -253 -11 -59 18 -71 26 -98
65 -35 51 -60 115 -60 154 0 43 39 147 64 170 30 29 150 71 201 71 23 0 67 -7
100 -15z"/>
<path d="M350 915 c-10 -12 -6 -17 24 -29 70 -29 155 -97 255 -203 55 -59 101
-110 101 -114 0 -16 -128 4 -177 27 -68 33 -145 118 -203 225 -42 79 -45 82
-48 52 -4 -44 55 -157 119 -227 93 -102 168 -123 444 -127 61 -1 138 -4 173
-8 l63 -6 -74 -63 c-112 -95 -124 -109 -106 -127 13 -13 27 -3 116 85 92 91
102 98 119 85 28 -21 40 -18 19 5 -18 20 -17 20 59 20 l78 0 -42 -35 c-23 -19
-69 -60 -103 -90 -58 -53 -60 -56 -44 -73 17 -16 23 -12 119 86 96 97 102 101
120 85 22 -19 36 -10 18 12 -11 13 -5 15 50 15 l63 0 -35 -27 c-19 -16 -66
-57 -105 -93 -54 -49 -69 -68 -61 -77 6 -7 16 -13 22 -13 7 0 57 45 111 100
96 98 99 100 118 83 20 -17 20 -17 15 5 l-6 22 226 2 c156 1 207 3 162 8 -36
4 -139 8 -229 9 -144 1 -162 3 -151 16 15 18 7 19 -20 3 -18 -12 -30 -3 -125
92 -85 85 -107 102 -115 90 -5 -8 -10 -18 -10 -22 0 -6 111 -109 170 -157 l25
-20 -40 4 c-22 2 -46 4 -53 4 -7 1 -10 6 -7 11 8 13 -1 13 -27 -1 -18 -10 -32
0 -123 91 -91 91 -103 100 -115 85 -13 -15 -8 -22 35 -64 28 -25 70 -63 94
-84 l45 -37 -57 0 c-46 0 -55 3 -51 15 8 20 -5 19 -28 -2 -18 -16 -23 -12
-118 82 -93 93 -101 98 -116 83 -18 -18 -9 -28 121 -141 l30 -26 -75 -1 c-41
0 -112 3 -157 6 l-82 7 -32 46 c-106 149 -208 249 -306 300 -50 25 -57 26 -73
6z"/>
<path d="M584 921 c-2 -2 -4 -11 -4 -19 0 -13 29 -14 227 -9 209 6 244 10 232
21 -5 6 -449 12 -455 7z"/>
</g>
</svg>
