<?xml version="1.0" standalone="no"?>
<!DOCTYPE svg PUBLIC "-//W3C//DTD SVG 20010904//EN"
 "http://www.w3.org/TR/2001/REC-SVG-20010904/DTD/svg10.dtd">
<svg version="1.0" xmlns="http://www.w3.org/2000/svg"
 width="184.000000pt" height="148.000000pt" viewBox="0 0 184.000000 148.000000"
 preserveAspectRatio="xMidYMid meet">
<metadata>
Created by potrace 1.16, written by Peter Selinger 2001-2019
</metadata>
<g transform="translate(0.000000,148.000000) scale(0.100000,-0.100000)"
fill="#000000" stroke="none">
<path d="M1287 1075 c-37 -57 -67 -108 -67 -113 0 -10 -27 -10 -267 3 l-83 4
0 -26 0 -26 148 8 c81 4 157 8 168 9 16 1 40 -23 93 -91 39 -51 71 -94 71 -97
0 -3 -29 -49 -64 -103 -35 -54 -66 -107 -70 -119 -4 -15 8 -39 46 -90 71 -94
105 -134 115 -134 8 1 59 64 126 157 l39 54 -33 57 c-17 31 -49 83 -70 114
-22 31 -39 60 -39 63 0 3 32 48 71 99 l70 94 -17 34 c-9 18 -42 72 -72 119
-74 116 -80 115 -165 -16z m223 -118 c0 -3 -28 -45 -61 -93 l-61 -89 6 108 c6
105 5 107 -16 107 -21 0 -21 -2 -14 -116 l6 -117 -65 98 c-36 54 -64 102 -63
107 2 5 32 48 68 96 l64 88 68 -92 c38 -51 68 -94 68 -97z m-61 -342 c34 -43
61 -82 61 -86 0 -4 -27 -47 -61 -95 l-61 -89 4 110 c3 101 2 110 -16 113 -18
4 -19 -1 -12 -119 l7 -123 -66 99 c-36 54 -64 104 -61 111 12 31 129 175 137
167 4 -4 35 -44 68 -88z"/>
<path d="M360 1018 c0 -2 -9 -49 -20 -106 -11 -56 -20 -132 -20 -167 0 -40 -4
-65 -11 -65 -14 0 -6 -24 42 -135 38 -89 136 -252 145 -243 2 3 -14 45 -37 94
-23 49 -59 134 -81 188 -39 99 -39 100 -28 170 7 39 20 110 31 158 23 108 23
108 -1 108 -11 0 -20 -1 -20 -2z"/>
<path d="M460 942 l0 -25 144 7 c79 4 157 11 172 15 28 8 27 9 -16 14 -25 3
-102 8 -172 11 l-128 4 0 -26z"/>
<path d="M460 812 c0 -21 3 -22 123 -21 138 1 228 10 210 22 -7 4 -84 10 -172
14 -160 6 -161 6 -161 -15z"/>
<path d="M870 812 c0 -21 3 -22 123 -21 136 1 228 10 211 21 -7 5 -84 11 -173
14 -160 7 -161 7 -161 -14z"/>
<path d="M460 689 c0 -22 1 -22 162 -15 89 4 167 10 172 14 19 12 -66 21 -201
21 -130 1 -133 0 -133 -20z"/>
<path d="M870 688 c0 -21 1 -21 155 -14 86 4 163 10 173 14 30 11 -54 21 -195
21 -130 1 -133 0 -133 -21z"/>
<path d="M460 558 c0 -21 1 -21 161 -14 89 3 166 9 173 13 18 12 -69 21 -206
22 -125 1 -128 0 -128 -21z"/>
<path d="M870 558 c0 -21 1 -21 161 -14 89 3 166 9 173 13 18 12 -69 21 -206
22 -125 1 -128 0 -128 -21z"/>
</g>
</svg>
