<?xml version="1.0" standalone="no"?>
<!DOCTYPE svg PUBLIC "-//W3C//DTD SVG 20010904//EN"
 "http://www.w3.org/TR/2001/REC-SVG-20010904/DTD/svg10.dtd">
<svg version="1.0" xmlns="http://www.w3.org/2000/svg"
 width="219.000000pt" height="121.000000pt" viewBox="0 0 219.000000 121.000000"
 preserveAspectRatio="xMidYMid meet">
<metadata>
Created by potrace 1.16, written by Peter Selinger 2001-2019
</metadata>
<g transform="translate(0.000000,121.000000) scale(0.100000,-0.100000)"
fill="#000000" stroke="none">
<path d="M1028 887 c-69 -30 -160 -94 -256 -182 -54 -51 -76 -64 -85 -56 -7 5
-44 53 -82 105 -38 52 -73 92 -77 90 -18 -12 -4 -43 53 -119 l60 -80 -170 -3
-171 -2 0 -30 0 -30 175 0 176 0 -66 -81 c-61 -75 -75 -108 -50 -115 6 -2 27
20 47 49 21 29 55 72 77 97 l39 45 84 -81 c139 -134 243 -194 339 -194 74 0
182 29 320 85 129 53 449 214 449 226 0 12 -155 94 -304 162 -287 130 -444
162 -558 114z m237 -34 c110 -26 335 -113 525 -201 l85 -40 -100 -46 c-352
-166 -604 -248 -697 -227 -71 16 -162 76 -253 164 -69 68 -84 87 -65 83 24 -5
402 -56 540 -73 l65 -8 3 -40 c4 -45 22 -74 22 -34 0 13 3 34 6 47 6 22 10 23
58 17 28 -3 63 -8 79 -11 16 -3 27 -1 27 5 0 6 -8 11 -17 11 -9 0 -45 5 -80
11 l-63 11 0 44 0 44 118 1 c184 1 239 16 72 19 -74 2 -142 4 -150 6 -8 1 -21
2 -27 3 -9 1 -13 19 -13 56 0 48 -2 55 -20 55 -18 0 -20 -7 -20 -57 l0 -58
-302 3 -303 3 60 55 c83 76 184 143 247 165 57 20 96 19 203 -8z m98 -285 c2
-18 3 -35 1 -36 -1 -2 -89 9 -195 25 l-193 28 79 6 c44 3 130 6 191 7 l112 2
5 -32z"/>
</g>
</svg>
