<?xml version="1.0" standalone="no"?>
<!DOCTYPE svg PUBLIC "-//W3C//DTD SVG 20010904//EN"
 "http://www.w3.org/TR/2001/REC-SVG-20010904/DTD/svg10.dtd">
<svg version="1.0" xmlns="http://www.w3.org/2000/svg"
 width="152.000000pt" height="144.000000pt" viewBox="0 0 152.000000 144.000000"
 preserveAspectRatio="xMidYMid meet">
<metadata>
Created by potrace 1.16, written by Peter Selinger 2001-2019
</metadata>
<g transform="translate(0.000000,144.000000) scale(0.100000,-0.100000)"
fill="#000000" stroke="none">
<path d="M418 1111 c-83 -42 -118 -70 -118 -92 0 -25 4 -24 53 10 68 46 128
73 163 73 38 0 115 -41 138 -74 9 -12 19 -19 23 -15 9 9 -73 94 -109 113 -41
21 -87 17 -150 -15z"/>
<path d="M694 1013 c-12 -13 -41 -66 -64 -117 -41 -90 -46 -96 -112 -142 -82
-56 -120 -99 -149 -171 -30 -73 -20 -82 63 -58 88 26 142 55 222 119 38 31 77
56 85 55 24 -1 46 -13 46 -24 1 -17 181 -355 199 -373 7 -6 155 73 215 115 13
9 -11 13 -27 4 -18 -10 -24 -1 -67 97 -26 59 -63 138 -82 176 -19 37 -33 69
-31 71 2 1 37 30 79 62 78 62 155 162 145 189 -5 14 -25 15 -391 19 -102 2
-110 0 -131 -22z m469 -35 c-25 -45 -166 -186 -198 -198 l-27 -10 58 -108 c31
-59 74 -138 96 -175 21 -38 38 -72 38 -76 0 -12 -143 -72 -151 -64 -4 5 -19
37 -34 73 -15 36 -49 109 -76 163 -28 54 -47 102 -44 107 3 4 -32 21 -77 36
-46 14 -96 33 -112 41 -24 12 -30 13 -37 2 -11 -18 -1 -26 55 -48 l47 -17 -54
-36 c-29 -20 -73 -46 -97 -58 -46 -23 -139 -54 -146 -47 -13 12 71 120 135
173 41 35 76 69 77 76 2 19 93 166 107 175 11 7 171 16 375 21 l83 2 -18 -32z"/>
<path d="M807 898 c-2 -7 10 -21 26 -31 49 -30 137 -67 137 -57 0 8 -140 100
-153 100 -3 0 -7 -6 -10 -12z"/>
<path d="M740 835 c0 -16 131 -85 160 -85 17 0 -129 99 -147 100 -7 0 -13 -7
-13 -15z"/>
</g>
</svg>
