<?xml version="1.0" standalone="no"?>
<!DOCTYPE svg PUBLIC "-//W3C//DTD SVG 20010904//EN"
 "http://www.w3.org/TR/2001/REC-SVG-20010904/DTD/svg10.dtd">
<svg version="1.0" xmlns="http://www.w3.org/2000/svg"
 width="152.000000pt" height="144.000000pt" viewBox="0 0 152.000000 144.000000"
 preserveAspectRatio="xMidYMid meet">
<metadata>
Created by potrace 1.16, written by Peter Selinger 2001-2019
</metadata>
<g transform="translate(0.000000,144.000000) scale(0.100000,-0.100000)"
fill="#000000" stroke="none">
<path d="M455 1128 c-62 -23 -150 -83 -153 -106 -4 -28 1 -28 51 7 135 92 197
95 286 12 18 -17 35 -31 37 -31 21 0 -53 82 -101 112 -33 20 -74 22 -120 6z"/>
<path d="M681 994 c-15 -23 -42 -76 -60 -117 -30 -69 -38 -78 -102 -122 -83
-57 -121 -100 -150 -172 -30 -73 -20 -82 63 -58 88 26 142 55 222 119 38 31
77 56 85 55 24 -1 46 -13 46 -24 1 -17 192 -375 201 -375 14 0 163 82 213 117
14 10 -11 13 -28 3 -19 -10 -23 -7 -37 30 -9 22 -45 102 -80 177 -35 75 -63
137 -61 139 1 1 36 28 77 61 80 63 157 161 147 187 -5 13 -29 16 -134 18 -70
1 -184 2 -251 4 l-124 2 -27 -44z m482 -16 c-24 -43 -168 -187 -199 -198 l-25
-10 22 -41 c11 -23 17 -45 12 -49 -4 -4 -34 -19 -66 -33 l-57 -26 -15 30 c-9
16 -13 34 -10 38 3 5 -32 22 -77 37 -46 14 -96 33 -112 41 -24 12 -30 13 -37
2 -11 -18 -1 -26 55 -48 l47 -17 -54 -36 c-29 -20 -73 -46 -97 -58 -46 -23
-139 -54 -146 -47 -13 12 71 120 135 173 41 35 76 69 77 76 2 19 93 166 107
175 11 7 164 16 380 21 l78 2 -18 -32z m-159 -334 c8 -21 11 -18 -57 -49 -65
-28 -77 -30 -77 -12 0 10 103 75 121 77 4 0 10 -7 13 -16z m36 -65 c14 -25 19
-20 -59 -55 -62 -27 -64 -27 -77 -9 -13 18 -10 22 48 52 76 38 74 38 88 12z
m40 -73 c0 -7 -32 -26 -71 -43 -58 -26 -71 -29 -76 -17 -7 19 -3 22 65 59 56
31 82 31 82 1z m34 -61 c11 -19 17 -37 15 -39 -2 -2 -35 -18 -74 -35 -65 -30
-70 -31 -82 -15 -23 32 -14 49 50 86 34 20 64 37 67 37 3 1 14 -15 24 -34z"/>
</g>
</svg>
