<?xml version="1.0" standalone="no"?>
<!DOCTYPE svg PUBLIC "-//W3C//DTD SVG 20010904//EN"
 "http://www.w3.org/TR/2001/REC-SVG-20010904/DTD/svg10.dtd">
<svg version="1.0" xmlns="http://www.w3.org/2000/svg"
 width="152.000000pt" height="144.000000pt" viewBox="0 0 152.000000 144.000000"
 preserveAspectRatio="xMidYMid meet">
<metadata>
Created by potrace 1.16, written by Peter Selinger 2001-2019
</metadata>
<g transform="translate(0.000000,144.000000) scale(0.100000,-0.100000)"
fill="#000000" stroke="none">
<path d="M415 1109 c-85 -44 -115 -67 -115 -90 0 -25 4 -24 53 10 53 35 102
61 141 72 36 11 95 -14 145 -60 51 -48 51 -27 0 25 -81 84 -127 93 -224 43z"/>
<path d="M695 1015 c-12 -14 -42 -68 -65 -119 -41 -90 -46 -96 -112 -142 -82
-56 -120 -99 -149 -171 -30 -73 -20 -82 63 -58 88 26 142 55 222 119 38 31 77
56 85 55 24 -1 46 -13 46 -24 1 -17 181 -355 199 -373 7 -6 155 73 215 115 13
9 -11 13 -27 4 -18 -9 -26 3 -96 157 -43 92 -79 172 -82 177 -2 6 25 32 61 59
91 67 182 184 160 205 -6 5 -119 12 -253 15 l-244 5 -23 -24z m468 -37 c-25
-45 -166 -186 -198 -198 l-25 -10 29 -57 c16 -32 59 -112 95 -177 36 -66 66
-122 66 -125 0 -5 -75 -41 -142 -69 -5 -2 -18 20 -30 50 -12 29 -48 106 -80
171 -32 65 -56 122 -53 127 3 5 -32 21 -77 36 -46 14 -96 33 -112 41 -24 12
-30 13 -37 2 -11 -18 -1 -26 55 -48 l47 -17 -54 -36 c-29 -20 -73 -46 -97 -58
-46 -23 -139 -54 -146 -47 -13 12 71 120 135 173 41 35 76 69 77 76 2 19 93
166 107 175 11 7 152 15 385 21 l73 2 -18 -32z"/>
</g>
</svg>
