<?xml version="1.0" standalone="no"?>
<!DOCTYPE svg PUBLIC "-//W3C//DTD SVG 20010904//EN"
 "http://www.w3.org/TR/2001/REC-SVG-20010904/DTD/svg10.dtd">
<svg version="1.0" xmlns="http://www.w3.org/2000/svg"
 width="155.000000pt" height="164.000000pt" viewBox="0 0 155.000000 164.000000"
 preserveAspectRatio="xMidYMid meet">
<metadata>
Created by potrace 1.16, written by Peter Selinger 2001-2019
</metadata>
<g transform="translate(0.000000,164.000000) scale(0.100000,-0.100000)"
fill="#000000" stroke="none">
<path d="M1003 1315 c-95 -43 -143 -83 -168 -139 -13 -28 -26 -68 -29 -88 -10
-56 31 -96 173 -166 64 -32 135 -66 159 -75 42 -17 42 -17 43 -69 1 -29 4
-140 8 -246 3 -105 4 -192 1 -192 -16 0 -271 147 -307 176 -57 47 -62 70 -28
133 31 57 69 86 169 131 51 23 66 34 57 43 -14 14 -65 -3 -144 -49 -32 -19
-59 -34 -60 -34 -2 0 -1 47 1 105 l4 105 -151 0 -152 0 2 -107 c1 -87 5 -110
18 -119 10 -6 58 -8 136 -4 66 3 121 5 123 4 2 -1 -6 -17 -17 -35 -10 -19 -24
-58 -30 -87 -14 -65 -2 -86 72 -135 80 -52 353 -174 364 -163 3 2 -5 9 -16 16
-20 10 -21 18 -21 256 0 242 0 245 20 234 12 -7 20 -7 20 -1 0 5 -9 13 -20 16
-25 8 -28 22 -34 165 -5 124 -22 201 -63 292 -30 68 -45 72 -130 33z m126
-122 c31 -92 59 -333 39 -333 -28 0 -248 131 -295 175 l-52 50 23 51 c28 61
69 97 161 140 l69 34 17 -28 c10 -15 27 -55 38 -89z m-279 -360 l0 -88 -122 5
c-68 3 -122 8 -120 13 1 4 2 38 2 76 0 82 -7 78 138 80 l102 1 0 -87z"/>
<path d="M453 1103 c-139 -252 -157 -291 -140 -308 9 -8 30 -41 48 -72 70
-124 191 -313 200 -313 11 0 -59 141 -153 308 l-70 123 112 184 c61 102 109
189 105 195 -16 25 -36 1 -102 -117z"/>
</g>
</svg>
