<?xml version="1.0" standalone="no"?>
<!DOCTYPE svg PUBLIC "-//W3C//DTD SVG 20010904//EN"
 "http://www.w3.org/TR/2001/REC-SVG-20010904/DTD/svg10.dtd">
<svg version="1.0" xmlns="http://www.w3.org/2000/svg"
 width="109.000000pt" height="162.000000pt" viewBox="0 0 109.000000 162.000000"
 preserveAspectRatio="xMidYMid meet">
<metadata>
Created by potrace 1.16, written by Peter Selinger 2001-2019
</metadata>
<g transform="translate(0.000000,162.000000) scale(0.100000,-0.100000)"
fill="#000000" stroke="none">
<path d="M573 1263 c-76 -80 -148 -191 -163 -255 -7 -29 -35 -102 -62 -162
-27 -59 -47 -111 -44 -114 8 -8 11 -4 61 84 61 107 57 71 -9 -73 -29 -65 -51
-120 -49 -123 7 -8 39 39 80 117 21 40 41 73 44 73 12 0 20 -32 11 -44 -14
-17 -102 -216 -102 -229 1 -19 36 31 81 116 23 42 46 77 50 77 5 0 11 -10 14
-23 4 -14 -9 -55 -38 -117 -81 -173 -70 -187 21 -27 l50 87 24 -32 c35 -47 44
-63 29 -54 -8 5 -31 -33 -71 -117 -33 -69 -60 -128 -60 -131 0 -25 27 11 85
114 l67 119 19 -22 c33 -39 20 -7 -26 67 -25 40 -45 80 -45 89 0 10 -4 17 -9
17 -25 0 -96 215 -85 263 5 27 7 27 82 27 42 0 86 3 98 6 20 5 21 2 27 -212 4
-120 2 -222 -2 -228 -9 -11 40 -119 95 -214 55 -93 34 -10 -36 143 l-32 70 7
214 7 215 43 -50 c54 -61 67 -54 22 12 -19 27 -32 55 -30 62 3 7 -4 12 -16 12
-20 0 -21 5 -21 104 0 57 -3 124 -6 150 -10 67 -38 64 -111 -11z m76 -170 l1
-73 -95 0 c-52 0 -95 2 -95 5 0 20 59 115 112 181 l63 78 6 -59 c4 -33 7 -93
8 -132z"/>
</g>
</svg>
