<?xml version="1.0" standalone="no"?>
<!DOCTYPE svg PUBLIC "-//W3C//DTD SVG 20010904//EN"
 "http://www.w3.org/TR/2001/REC-SVG-20010904/DTD/svg10.dtd">
<svg version="1.0" xmlns="http://www.w3.org/2000/svg"
 width="110.000000pt" height="298.000000pt" viewBox="0 0 110.000000 298.000000"
 preserveAspectRatio="xMidYMid meet">
<metadata>
Created by potrace 1.16, written by Peter Selinger 2001-2019
</metadata>
<g transform="translate(0.000000,298.000000) scale(0.100000,-0.100000)"
fill="#000000" stroke="none">
<path d="M583 2637 c-95 -99 -163 -205 -178 -277 -3 -19 -29 -86 -56 -148 -28
-63 -48 -119 -46 -125 2 -6 25 27 52 72 l48 83 22 -54 c33 -82 63 -137 111
-205 29 -42 38 -63 29 -63 -8 0 -24 -19 -36 -42 -38 -74 -90 -201 -86 -211 3
-10 56 74 107 171 35 66 43 72 59 45 5 -10 12 -15 16 -12 3 4 -7 26 -23 50
-17 24 -47 76 -67 114 l-38 70 77 -80 c61 -65 75 -85 72 -105 -5 -28 101 -251
122 -258 13 -4 -1 37 -63 183 l-34 80 9 190 c5 105 9 198 10 207 0 11 16 0 47
-35 26 -29 49 -54 50 -56 2 -2 6 -2 9 2 7 6 -85 137 -96 137 -4 0 -10 66 -14
147 -4 81 -8 148 -9 149 -1 1 -14 4 -28 7 -21 5 -33 -1 -66 -36z m57 -80 l0
-61 -30 34 c-16 19 -29 39 -30 44 0 15 42 56 51 50 5 -3 9 -33 9 -67z m4 -160
c0 -31 0 -57 0 -57 -1 0 -29 36 -63 80 l-62 79 18 27 17 27 44 -49 c41 -45 45
-53 46 -107z m4 -257 l-3 -174 -70 92 c-39 51 -75 90 -82 87 -16 -5 -54 116
-51 161 1 18 3 32 4 31 25 -36 187 -217 191 -214 8 8 -169 237 -178 231 -13
-8 -11 12 6 53 29 70 31 69 111 -15 l74 -77 -2 -175z"/>
<path d="M574 1267 c-101 -111 -174 -234 -174 -292 0 -8 -17 -51 -38 -97 -53
-116 -66 -148 -59 -154 3 -3 27 31 53 76 l48 82 12 -34 c20 -57 74 -160 120
-226 24 -35 44 -64 44 -66 0 -2 -7 -3 -17 -2 -12 1 -31 -32 -70 -117 -30 -66
-52 -124 -51 -129 5 -13 21 12 88 132 29 52 54 97 56 99 2 3 11 -4 18 -15 8
-10 16 -17 19 -14 3 3 -20 46 -50 95 l-54 90 63 6 c35 3 64 5 65 5 6 -3 5
-145 -2 -155 -7 -12 99 -236 118 -248 19 -12 13 9 -38 131 l-54 129 9 191 c5
105 9 199 10 209 0 13 16 0 53 -42 28 -34 54 -56 55 -51 4 10 -68 113 -93 135
-7 6 -15 66 -19 155 -4 79 -8 145 -9 146 -1 1 -14 4 -29 8 -23 5 -33 -1 -74
-47z m66 -62 l0 -55 -47 7 c-27 3 -50 7 -52 9 -7 7 81 104 90 98 5 -3 9 -30 9
-59z m2 -110 c2 -20 2 -38 0 -40 -3 -2 -40 -1 -83 2 -70 5 -79 4 -79 -11 0
-15 10 -17 81 -15 l81 2 3 -42 3 -42 -96 2 c-64 1 -97 -2 -100 -10 -3 -8 26
-11 97 -11 l101 0 0 -46 0 -46 -95 4 -96 3 -10 38 c-17 65 -2 143 42 214 20
32 23 33 84 33 l63 0 4 -35z m8 -326 c0 -43 -3 -50 -16 -45 -9 3 -42 6 -74 6
l-58 0 -16 40 c-9 22 -16 43 -16 45 0 3 41 5 90 5 l90 0 0 -51z"/>
</g>
</svg>
