<?xml version="1.0" standalone="no"?>
<!DOCTYPE svg PUBLIC "-//W3C//DTD SVG 20010904//EN"
 "http://www.w3.org/TR/2001/REC-SVG-20010904/DTD/svg10.dtd">
<svg version="1.0" xmlns="http://www.w3.org/2000/svg"
 width="110.000000pt" height="162.000000pt" viewBox="0 0 110.000000 162.000000"
 preserveAspectRatio="xMidYMid meet">
<metadata>
Created by potrace 1.16, written by Peter Selinger 2001-2019
</metadata>
<g transform="translate(0.000000,162.000000) scale(0.100000,-0.100000)"
fill="#000000" stroke="none">
<path d="M578 1273 c-91 -95 -158 -201 -172 -273 -4 -19 -30 -86 -58 -148 -27
-62 -47 -116 -44 -119 8 -8 6 -11 58 79 l45 77 13 -42 c17 -58 54 -129 112
-216 27 -41 43 -71 35 -68 -11 4 -28 -23 -65 -101 -27 -59 -53 -118 -56 -132
-7 -25 -7 -25 17 4 14 16 46 69 72 117 25 49 50 89 54 89 5 0 14 -7 21 -15 7
-9 15 -14 17 -11 2 2 -16 35 -40 72 -24 38 -54 89 -66 114 -22 44 -21 43 53
-35 82 -87 90 -97 74 -113 -7 -7 9 -48 52 -131 35 -67 67 -121 71 -121 10 0
-21 87 -70 198 -34 77 -33 64 -16 347 2 39 4 84 5 102 l0 32 52 -55 c28 -30
53 -52 56 -49 6 6 -37 68 -76 111 -28 31 -29 36 -36 175 -4 78 -9 146 -12 151
-13 21 -53 5 -96 -39z m60 -50 c-4 -54 -20 -65 -44 -28 -16 25 -16 27 6 50 34
36 41 31 38 -22z m-57 -107 l-22 -24 -23 22 c-22 21 -22 21 -3 49 l20 29 25
-26 26 -25 -23 -25z m63 -67 c0 -24 -4 -45 -8 -47 -4 -2 -20 14 -36 34 l-28
38 22 29 c20 27 21 28 36 10 9 -11 15 -38 14 -64z m-119 41 c17 -19 17 -21
-15 -57 -32 -36 -60 -51 -60 -31 0 16 42 108 50 108 4 0 15 -9 25 -20z m75
-160 c-20 -22 -39 -40 -43 -40 -3 0 -19 17 -36 39 l-30 38 31 42 31 42 42 -41
41 -41 -36 -39z m-135 10 c7 0 27 -16 44 -37 l30 -36 -20 -28 c-25 -36 -5 -53
22 -18 l19 24 19 -25 c19 -24 19 -25 -1 -52 -24 -35 -33 -35 -54 -2 -9 14 -23
23 -30 20 -17 -7 -55 110 -53 163 1 23 3 28 6 14 2 -13 11 -23 18 -23z m168
-112 c-17 -19 -18 -19 -41 7 -25 30 -28 24 33 93 l20 24 3 -52 c2 -39 -1 -57
-15 -72z m15 -169 l-3 -50 -38 50 -38 50 22 31 c14 18 29 28 37 25 10 -4 12 0
8 11 -3 9 -3 21 1 27 9 14 15 -70 11 -144z"/>
</g>
</svg>
