<?xml version="1.0" standalone="no"?>
<!DOCTYPE svg PUBLIC "-//W3C//DTD SVG 20010904//EN"
 "http://www.w3.org/TR/2001/REC-SVG-20010904/DTD/svg10.dtd">
<svg version="1.0" xmlns="http://www.w3.org/2000/svg"
 width="202.000000pt" height="100.000000pt" viewBox="0 0 202.000000 100.000000"
 preserveAspectRatio="xMidYMid meet">
<metadata>
Created by potrace 1.16, written by Peter Selinger 2001-2019
</metadata>
<g transform="translate(0.000000,100.000000) scale(0.100000,-0.100000)"
fill="#000000" stroke="none">
<path d="M1696 588 c-3 -62 -8 -138 -11 -168 l-4 -55 14 55 c19 68 32 280 18
280 -6 0 -13 -49 -17 -112z"/>
<path d="M1585 664 c-294 -66 -423 -71 -692 -25 -198 34 -346 40 -463 18 -66
-12 -85 -34 -27 -30 246 16 303 15 465 -11 299 -48 407 -45 663 19 149 38 191
60 54 29z"/>
<path d="M326 564 c-10 -25 -20 -75 -22 -112 l-4 -67 16 50 c31 104 43 142 50
158 4 11 1 17 -7 17 -8 0 -22 -21 -33 -46z"/>
<path d="M411 440 c-125 -44 -126 -50 -2 -21 77 19 113 18 137 -1 8 -5 14 -2
18 9 8 21 -17 43 -48 43 -12 0 -59 -14 -105 -30z"/>
<path d="M1589 455 c-11 -10 -472 -97 -621 -116 -127 -16 -179 -19 -235 -12
-67 8 -73 8 -73 -9 0 -16 11 -18 133 -18 180 0 425 42 736 126 101 28 117 34
84 34 -11 0 -22 -2 -24 -5z"/>
</g>
</svg>
