<?xml version="1.0" standalone="no"?>
<!DOCTYPE svg PUBLIC "-//W3C//DTD SVG 20010904//EN"
 "http://www.w3.org/TR/2001/REC-SVG-20010904/DTD/svg10.dtd">
<svg version="1.0" xmlns="http://www.w3.org/2000/svg"
 width="208.000000pt" height="351.000000pt" viewBox="0 0 208.000000 351.000000"
 preserveAspectRatio="xMidYMid meet">
<metadata>
Created by potrace 1.16, written by Peter Selinger 2001-2019
</metadata>
<g transform="translate(0.000000,351.000000) scale(0.100000,-0.100000)"
fill="#000000" stroke="none">
<path d="M367 3203 c-4 -3 -7 -10 -7 -14 0 -15 298 -234 307 -225 7 6 -21 31
-168 151 -120 99 -121 99 -132 88z"/>
<path d="M336 3124 c-4 -9 -5 -18 -4 -19 2 -1 48 -35 103 -77 148 -110 194
-142 200 -136 3 3 -23 30 -57 59 -86 75 -226 189 -232 189 -2 0 -7 -7 -10 -16z"/>
<path d="M1133 3094 c-3 -9 2 -21 13 -29 11 -8 78 -57 149 -109 123 -91 163
-114 135 -81 -11 13 -3 15 60 15 77 0 160 -18 236 -50 26 -11 49 -18 53 -15 8
8 -13 20 -99 56 -58 25 -97 34 -175 40 -63 5 -102 4 -105 -2 -4 -5 -26 8 -51
29 -75 65 -197 162 -204 162 -3 0 -8 -7 -12 -16z"/>
<path d="M327 3043 c-14 -13 -4 -23 111 -109 179 -134 183 -136 189 -130 7 7
-50 58 -186 169 -98 79 -103 82 -114 70z"/>
<path d="M787 3005 c-98 -20 -107 -24 -107 -47 0 -14 5 -18 15 -14 8 3 52 13
98 22 72 15 100 16 235 5 84 -6 166 -14 182 -18 17 -3 30 -1 30 4 0 12 -226
53 -320 58 -36 3 -96 -2 -133 -10z"/>
<path d="M317 2963 c-4 -3 -7 -10 -7 -14 0 -15 298 -235 307 -226 5 6 -72 74
-191 171 -97 79 -98 80 -109 69z"/>
<path d="M682 2913 c9 -49 249 -62 441 -24 64 13 117 27 117 32 0 5 -10 7 -22
4 -45 -10 -232 -25 -307 -25 -42 1 -105 7 -141 15 -84 19 -92 18 -88 -2z"/>
<path d="M1685 2779 c-91 -32 -281 -53 -257 -28 32 34 5 26 -55 -17 -143 -101
-238 -176 -238 -187 0 -28 40 -6 140 76 l107 89 112 1 c108 2 113 3 199 44 48
23 87 44 87 47 0 9 -7 7 -95 -25z"/>
<path d="M753 2743 c-59 -13 -73 -19 -73 -34 0 -23 2 -23 87 -3 67 16 215 16
413 -1 97 -8 46 9 -100 34 -141 24 -225 25 -327 4z"/>
<path d="M680 2662 c0 -17 12 -23 78 -39 42 -9 109 -17 147 -16 81 1 315 40
330 55 7 7 -3 9 -30 5 -22 -3 -103 -11 -180 -18 -122 -10 -151 -9 -228 5 -48
9 -94 19 -102 22 -10 4 -15 0 -15 -14z"/>
<path d="M359 2143 c-15 -17 -31 -3 167 -148 271 -199 235 -144 -58 88 -85 67
-98 74 -109 60z"/>
<path d="M1120 2050 c0 -6 -62 -10 -165 -10 -142 0 -165 -2 -165 -15 0 -14 24
-16 177 -15 l176 2 86 -64 c157 -117 191 -140 191 -129 0 6 -41 45 -92 88 -50
43 -102 88 -115 101 -13 12 -28 22 -32 22 -5 0 -14 7 -21 15 -14 17 -40 20
-40 5z"/>
<path d="M309 1964 c-14 -18 -21 -11 106 -106 193 -144 287 -210 283 -196 -4
13 -193 175 -315 270 -53 42 -62 46 -74 32z"/>
<path d="M1380 1885 c0 -9 9 -15 25 -15 24 0 25 -3 25 -54 0 -29 3 -68 6 -85
5 -26 3 -31 -12 -31 -16 0 -16 2 -4 10 8 5 12 12 8 15 -6 6 -97 -55 -211 -143
l-58 -44 -182 4 c-172 3 -182 2 -185 -16 -4 -18 3 -19 166 -14 137 5 170 3
166 -7 -15 -39 29 -17 130 65 l114 91 163 5 c135 5 166 9 177 22 7 10 12 49
12 104 0 86 -1 89 -26 98 -14 6 -90 10 -170 10 -121 0 -144 -2 -144 -15z m310
-54 c0 -26 3 -69 6 -95 l7 -48 -29 4 c-16 2 -28 6 -26 11 1 4 2 45 2 92 0 78
2 85 20 85 17 0 20 -7 20 -49z m-160 0 c0 -21 3 -59 6 -85 l7 -46 -42 0 -41 0
0 85 0 85 35 0 c34 0 35 -1 35 -39z m90 -30 c0 -38 3 -76 6 -85 5 -13 -1 -16
-30 -16 l-36 0 0 85 0 85 30 0 30 0 0 -69z"/>
<path d="M792 1853 c3 -17 19 -18 198 -14 107 2 199 7 203 11 11 10 -131 20
-281 20 -112 0 -123 -2 -120 -17z"/>
<path d="M792 1694 c3 -18 14 -19 203 -16 187 3 215 5 204 16 -2 3 -96 8 -208
12 -196 7 -203 6 -199 -12z"/>
<path d="M594 929 c-3 -6 -3 -14 2 -18 161 -115 285 -216 302 -245 12 -20 18
-36 13 -36 -5 0 -21 -34 -37 -75 -16 -41 -31 -75 -35 -75 -3 0 -28 19 -54 43
-97 84 -229 186 -237 181 -4 -3 -8 -11 -8 -18 0 -11 163 -138 258 -201 51 -34
52 -33 107 72 l37 71 -24 50 -24 50 155 6 c86 4 174 7 196 8 33 1 52 -7 110
-48 97 -69 100 -71 92 -51 -3 10 -2 17 3 17 6 0 10 -31 10 -70 0 -38 -4 -70
-10 -70 -5 0 -6 7 -3 17 8 19 1 16 -72 -36 -158 -112 -233 -173 -228 -187 3
-8 8 -14 12 -14 4 0 59 42 122 93 l116 94 159 7 c87 3 162 10 167 15 4 4 7 46
5 92 l-3 84 -164 3 -163 3 -97 80 c-117 98 -137 113 -151 104 -19 -11 -11 -23
49 -67 l59 -44 -214 3 -214 2 -104 86 c-105 86 -119 94 -132 74z m1046 -346
l0 -63 -30 0 -30 0 0 69 c0 65 2 70 23 73 31 5 37 -8 37 -79z m64 41 c12 -89
9 -104 -20 -104 -26 0 -27 1 -20 53 3 28 6 62 6 75 0 43 27 24 34 -24z m-150
-16 c10 -89 11 -88 -34 -88 l-40 0 3 70 2 70 31 0 c30 0 31 -2 38 -52z"/>
<path d="M567 863 c-14 -13 -4 -23 111 -109 179 -134 183 -136 189 -130 7 7
-50 58 -186 169 -98 79 -103 82 -114 70z"/>
<path d="M553 774 c-3 -9 -2 -19 4 -23 5 -3 52 -38 104 -77 141 -106 188 -138
194 -132 7 7 -274 248 -290 248 -3 0 -8 -7 -12 -16z"/>
<path d="M870 450 c0 -19 5 -20 198 -14 108 4 201 10 205 14 11 10 -132 20
-280 20 -116 0 -123 -1 -123 -20z"/>
</g>
</svg>
