<?xml version="1.0" standalone="no"?>
<!DOCTYPE svg PUBLIC "-//W3C//DTD SVG 20010904//EN"
 "http://www.w3.org/TR/2001/REC-SVG-20010904/DTD/svg10.dtd">
<svg version="1.0" xmlns="http://www.w3.org/2000/svg"
 width="211.000000pt" height="143.000000pt" viewBox="0 0 211.000000 143.000000"
 preserveAspectRatio="xMidYMid meet">
<metadata>
Created by potrace 1.16, written by Peter Selinger 2001-2019
</metadata>
<g transform="translate(0.000000,143.000000) scale(0.100000,-0.100000)"
fill="#000000" stroke="none">
<path d="M1021 1044 c-105 -74 -134 -104 -101 -104 7 0 146 105 215 164 65 55
2 22 -114 -60z"/>
<path d="M1055 995 l-119 -84 -42 34 c-23 19 -47 35 -53 35 -34 0 -7 -29 106
-111 l127 -92 360 7 c199 4 365 11 369 15 11 11 -352 23 -575 19 -97 -2 -176
-2 -175 -2 49 37 207 166 212 173 14 23 -12 8 -123 -70 -75 -53 -117 -78 -124
-71 -6 6 17 31 69 70 181 140 192 170 14 42 -62 -44 -116 -80 -121 -80 -24 0
-3 22 89 94 55 43 105 84 112 92 26 32 -15 9 -126 -71z"/>
<path d="M300 909 l0 -22 263 7 c144 4 266 11 270 15 10 10 -200 21 -390 21
-140 0 -143 -1 -143 -21z"/>
<path d="M300 830 c0 -19 7 -20 158 -20 192 0 386 11 375 20 -4 4 -126 10
-270 13 -257 6 -263 6 -263 -13z"/>
<path d="M300 731 c0 -18 9 -19 208 -15 114 3 236 8 272 11 l65 7 -50 7 c-27
4 -150 8 -272 8 -213 1 -223 0 -223 -18z"/>
<path d="M300 659 l0 -22 263 8 c144 3 266 10 270 14 10 10 -201 21 -390 21
-139 0 -143 -1 -143 -21z"/>
<path d="M1063 659 c-3 -9 -58 -55 -124 -104 -105 -78 -131 -105 -98 -105 6 0
30 16 53 35 l42 34 119 -84 c111 -80 152 -103 126 -71 -7 8 -57 49 -112 92
-92 72 -113 94 -90 94 5 0 60 -36 121 -80 102 -73 140 -95 126 -71 -3 4 -53
46 -111 91 -143 113 -122 127 29 20 64 -46 120 -80 123 -76 4 3 -1 12 -9 19
-193 149 -208 162 -192 174 11 8 103 12 307 13 161 1 303 3 317 5 14 1 47 3
74 4 27 0 46 4 42 9 -4 4 -172 9 -373 12 -329 4 -367 3 -370 -11z"/>
<path d="M300 591 c0 -20 4 -21 143 -21 189 0 400 11 390 21 -4 4 -126 11
-270 14 l-263 8 0 -22z"/>
<path d="M300 510 l0 -23 267 7 c147 4 270 9 272 12 12 11 -26 14 -272 21
l-267 6 0 -23z"/>
<path d="M906 481 c-5 -8 100 -88 214 -164 38 -26 49 -19 15 9 -69 59 -208
164 -215 164 -5 0 -11 -4 -14 -9z"/>
</g>
</svg>
