<?xml version="1.0" standalone="no"?>
<!DOCTYPE svg PUBLIC "-//W3C//DTD SVG 20010904//EN"
 "http://www.w3.org/TR/2001/REC-SVG-20010904/DTD/svg10.dtd">
<svg version="1.0" xmlns="http://www.w3.org/2000/svg"
 width="222.000000pt" height="143.000000pt" viewBox="0 0 222.000000 143.000000"
 preserveAspectRatio="xMidYMid meet">
<metadata>
Created by potrace 1.16, written by Peter Selinger 2001-2019
</metadata>
<g transform="translate(0.000000,143.000000) scale(0.100000,-0.100000)"
fill="#000000" stroke="none">
<path d="M1017 1044 c-102 -74 -130 -104 -97 -104 11 0 224 168 228 181 7 19
-16 5 -131 -77z"/>
<path d="M1054 996 l-118 -85 -26 20 c-59 46 -71 52 -81 42 -7 -7 29 -39 113
-101 l123 -91 195 0 c107 1 280 4 383 8 164 5 192 4 220 -11 18 -9 31 -19 30
-22 -2 -4 -26 -26 -56 -49 -42 -35 -59 -43 -87 -41 -19 2 -181 3 -360 4 -282
1 -325 0 -330 -14 -3 -8 -58 -54 -123 -102 -81 -59 -115 -90 -108 -97 10 -10
22 -4 82 42 l26 21 74 -56 c96 -72 168 -118 175 -111 4 4 -148 130 -204 169
-16 11 -20 18 -12 23 7 4 35 -9 63 -30 112 -80 187 -128 192 -123 3 3 -44 45
-105 93 -60 48 -110 91 -110 96 0 18 25 7 89 -39 190 -139 231 -150 62 -16
-77 61 -108 91 -100 99 6 6 73 11 162 12 500 8 535 8 530 -4 -3 -7 2 -16 12
-19 17 -7 71 38 126 108 l30 37 -37 33 c-20 18 -59 48 -86 67 -39 27 -51 32
-61 22 -9 -10 -8 -16 8 -27 66 -44 84 -42 -317 -40 -207 0 -374 4 -370 7 4 4
54 44 110 89 163 128 116 114 -69 -22 -64 -47 -89 -57 -89 -39 0 5 50 48 110
96 61 49 108 90 105 93 -5 5 -83 -45 -177 -114 -33 -24 -64 -44 -69 -44 -23 0
-1 23 96 100 58 45 108 87 111 91 14 24 -25 1 -132 -75z"/>
<path d="M300 909 l0 -22 263 7 c144 4 266 11 270 15 10 10 -200 21 -390 21
-140 0 -143 -1 -143 -21z"/>
<path d="M300 830 c0 -19 7 -20 158 -20 192 0 386 11 375 20 -4 4 -126 10
-270 13 -257 6 -263 6 -263 -13z"/>
<path d="M300 731 c0 -18 9 -19 208 -15 114 3 236 8 272 11 l65 7 -50 7 c-27
4 -150 8 -272 8 -213 1 -223 0 -223 -18z"/>
<path d="M300 660 l0 -23 263 7 c144 4 264 10 266 12 13 12 -31 16 -268 21
l-261 6 0 -23z"/>
<path d="M300 590 l0 -23 261 6 c239 6 281 9 268 21 -2 2 -122 7 -266 11
l-263 8 0 -23z"/>
<path d="M300 510 l0 -23 262 7 c145 4 265 9 267 12 12 11 -25 14 -267 20
l-262 7 0 -23z"/>
<path d="M906 481 c-5 -8 224 -181 240 -181 19 0 -49 61 -170 153 -51 39 -61
43 -70 28z"/>
</g>
</svg>
