<?xml version="1.0" standalone="no"?>
<!DOCTYPE svg PUBLIC "-//W3C//DTD SVG 20010904//EN"
 "http://www.w3.org/TR/2001/REC-SVG-20010904/DTD/svg10.dtd">
<svg version="1.0" xmlns="http://www.w3.org/2000/svg"
 width="267.000000pt" height="131.000000pt" viewBox="0 0 267.000000 131.000000"
 preserveAspectRatio="xMidYMid meet">
<metadata>
Created by potrace 1.16, written by Peter Selinger 2001-2019
</metadata>
<g transform="translate(0.000000,131.000000) scale(0.100000,-0.100000)"
fill="#000000" stroke="none">
<path d="M370 992 c0 -16 212 -270 240 -287 6 -4 32 7 59 24 26 17 51 31 54
31 4 0 25 -13 47 -29 l39 -28 -31 -23 -30 -22 -30 22 c-26 19 -32 20 -45 8
-12 -13 -11 -17 13 -33 l28 -18 -28 -22 c-23 -19 -25 -23 -12 -34 12 -10 20
-8 44 9 l30 22 31 -23 30 -22 -32 -24 c-18 -14 -39 -28 -47 -33 -12 -7 -12
-11 -1 -24 12 -14 18 -12 58 19 25 19 50 35 55 35 17 0 89 -53 81 -61 -9 -9
-119 -39 -142 -39 -17 0 -87 55 -163 128 -47 45 -60 53 -71 43 -12 -10 -32 11
-118 121 -56 73 -104 135 -106 137 -2 3 -8 0 -15 -7 -33 -33 282 -348 429
-429 l58 -32 60 15 c77 20 109 37 173 92 l54 45 306 -27 c169 -15 339 -30 379
-33 l72 -6 -121 -79 c-109 -72 -120 -81 -106 -95 14 -14 28 -6 142 78 l125 92
63 -2 c35 -2 142 -8 238 -15 96 -7 179 -9 184 -4 6 5 -11 60 -44 140 -29 73
-55 134 -56 136 -1 2 -11 -1 -21 -6 -10 -5 -92 -12 -181 -14 -157 -5 -165 -4
-190 17 -97 80 -204 155 -212 150 -22 -14 -6 -33 76 -90 47 -33 93 -65 101
-71 11 -7 -69 -14 -288 -22 -458 -18 -419 -22 -498 40 -36 29 -70 56 -76 60
-5 4 -27 22 -48 39 l-38 32 -60 -18 c-33 -10 -95 -40 -137 -67 -42 -26 -81
-48 -87 -48 -5 0 -57 61 -114 135 -57 74 -108 135 -112 135 -5 0 -9 -8 -9 -18z
m529 -180 l33 -28 -41 -27 c-22 -15 -44 -27 -48 -27 -15 0 -82 53 -77 61 6 11
75 48 89 49 6 0 26 -13 44 -28z m131 -92 c37 -25 60 -48 60 -59 0 -24 46 -29
172 -19 51 4 216 15 366 23 254 15 275 15 299 0 13 -9 28 -13 31 -9 4 4 1 9
-5 11 -36 13 0 21 120 27 72 4 139 9 148 12 12 3 23 -14 45 -67 15 -40 41 -92
57 -117 15 -24 26 -46 24 -48 -7 -7 -402 37 -420 47 -10 5 -22 7 -27 4 -5 -3
-187 13 -405 35 -394 41 -396 41 -413 21 -9 -10 -42 -35 -72 -54 l-56 -35 -43
37 -43 37 34 26 34 26 39 -29 c58 -41 76 -35 25 8 l-43 37 43 38 c50 45 36 50
-24 9 l-42 -29 -33 25 -33 26 38 33 c22 18 45 31 52 29 7 -3 39 -23 72 -45z
m-156 -63 l29 -24 -32 -22 -31 -22 -31 22 -32 22 29 24 c16 12 31 23 34 23 3
0 18 -11 34 -23z"/>
<path d="M346 943 c-15 -15 0 -39 83 -135 161 -186 190 -199 54 -25 -123 158
-130 167 -137 160z"/>
</g>
</svg>
