<?xml version="1.0" standalone="no"?>
<!DOCTYPE svg PUBLIC "-//W3C//DTD SVG 20010904//EN"
 "http://www.w3.org/TR/2001/REC-SVG-20010904/DTD/svg10.dtd">
<svg version="1.0" xmlns="http://www.w3.org/2000/svg"
 width="150.000000pt" height="86.000000pt" viewBox="0 0 150.000000 86.000000"
 preserveAspectRatio="xMidYMid meet">
<metadata>
Created by potrace 1.16, written by Peter Selinger 2001-2019
</metadata>
<g transform="translate(0.000000,86.000000) scale(0.100000,-0.100000)"
fill="#000000" stroke="none">
<path d="M301 442 c2 -66 7 -124 11 -128 5 -4 93 -1 198 6 128 9 271 11 442 7
139 -4 247 -3 240 1 -10 7 -11 31 -4 113 5 57 8 104 8 105 -1 1 -116 -4 -256
-9 -241 -10 -398 -5 -599 20 l-43 5 3 -120z m859 -8 l0 -97 -62 6 c-285 28
-531 32 -717 10 l-54 -6 6 78 c4 43 8 79 10 81 1 1 58 -2 127 -8 134 -10 340
-4 535 17 66 7 128 13 138 14 15 1 17 -10 17 -95z"/>
</g>
</svg>
