<?xml version="1.0" standalone="no"?>
<!DOCTYPE svg PUBLIC "-//W3C//DTD SVG 20010904//EN"
 "http://www.w3.org/TR/2001/REC-SVG-20010904/DTD/svg10.dtd">
<svg version="1.0" xmlns="http://www.w3.org/2000/svg"
 width="231.000000pt" height="139.000000pt" viewBox="0 0 231.000000 139.000000"
 preserveAspectRatio="xMidYMid meet">
<metadata>
Created by potrace 1.16, written by Peter Selinger 2001-2019
</metadata>
<g transform="translate(0.000000,139.000000) scale(0.100000,-0.100000)"
fill="#000000" stroke="none">
<path d="M1121 974 l-112 -115 -185 7 -184 7 0 -69 0 -69 -170 4 c-167 3 -170
3 -170 -18 0 -21 2 -21 176 -14 l177 6 -5 -71 c-4 -49 -2 -72 6 -73 27 -2 160
2 256 6 l105 5 68 -82 c37 -46 91 -110 120 -142 l53 -59 160 83 c235 123 578
310 588 320 8 8 -740 390 -762 390 -5 0 -59 -52 -121 -116z m312 -18 c111 -52
273 -126 361 -165 87 -39 165 -75 173 -80 11 -6 -88 -59 -352 -190 -202 -99
-369 -181 -371 -181 -7 0 -184 240 -184 250 0 5 -4 10 -10 10 -11 0 -13 82 -4
182 7 66 8 68 91 167 47 56 87 101 90 101 2 0 95 -42 206 -94z m-423 -198 c0
-46 3 -100 6 -120 l7 -38 -64 0 c-35 0 -115 3 -178 7 l-113 6 6 50 c3 28 11
54 18 59 10 6 10 8 1 8 -9 0 -13 17 -13 50 l0 49 83 4 c45 1 119 4 165 5 l82
2 0 -82z"/>
</g>
</svg>
