<?xml version="1.0" standalone="no"?>
<!DOCTYPE svg PUBLIC "-//W3C//DTD SVG 20010904//EN"
 "http://www.w3.org/TR/2001/REC-SVG-20010904/DTD/svg10.dtd">
<svg version="1.0" xmlns="http://www.w3.org/2000/svg"
 width="186.000000pt" height="114.000000pt" viewBox="0 0 186.000000 114.000000"
 preserveAspectRatio="xMidYMid meet">
<metadata>
Created by potrace 1.16, written by Peter Selinger 2001-2019
</metadata>
<g transform="translate(0.000000,114.000000) scale(0.100000,-0.100000)"
fill="#000000" stroke="none">
<path d="M456 832 c-9 -16 33 -91 74 -131 120 -116 333 -152 702 -117 95 9
201 17 236 18 l62 3 0 -55 c0 -30 3 -65 6 -77 l6 -21 -284 -4 c-274 -4 -286
-5 -372 -32 -49 -15 -125 -42 -170 -60 l-80 -33 -86 23 c-47 13 -118 35 -159
49 -50 17 -78 22 -85 15 -6 -6 -6 -13 -1 -18 16 -14 215 -71 291 -83 l71 -12
106 42 c58 22 134 48 170 56 69 16 276 32 477 37 69 2 128 8 132 13 4 6 8 44
8 87 l0 76 -31 11 c-41 14 -188 14 -304 0 -136 -16 -347 -14 -434 5 -139 30
-258 103 -295 181 -17 34 -30 43 -40 27z"/>
<path d="M386 665 c-3 -9 0 -17 7 -20 6 -2 35 -10 62 -19 28 -9 129 -38 225
-65 153 -44 195 -53 179 -37 -4 4 -456 156 -464 156 -2 0 -6 -7 -9 -15z"/>
<path d="M345 592 c-12 -12 -3 -30 18 -35 12 -2 116 -32 231 -66 177 -52 237
-65 215 -48 -20 16 -457 156 -464 149z"/>
<path d="M340 486 c0 -9 34 -25 98 -45 163 -50 280 -74 257 -52 -9 8 -332 111
-349 111 -3 0 -6 -6 -6 -14z"/>
</g>
</svg>
