<?xml version="1.0" standalone="no"?>
<!DOCTYPE svg PUBLIC "-//W3C//DTD SVG 20010904//EN"
 "http://www.w3.org/TR/2001/REC-SVG-20010904/DTD/svg10.dtd">
<svg version="1.0" xmlns="http://www.w3.org/2000/svg"
 width="136.000000pt" height="231.000000pt" viewBox="0 0 136.000000 231.000000"
 preserveAspectRatio="xMidYMid meet">
<metadata>
Created by potrace 1.16, written by Peter Selinger 2001-2019
</metadata>
<g transform="translate(0.000000,231.000000) scale(0.100000,-0.100000)"
fill="#000000" stroke="none">
<path d="M559 1995 c-31 -8 -85 -26 -122 -40 -75 -30 -82 -41 -112 -178 -27
-120 -19 -215 26 -304 49 -98 119 -190 149 -198 58 -15 170 -22 229 -14 71 10
284 104 278 123 -2 6 9 49 25 95 24 73 28 100 28 195 0 112 -13 185 -34 198
-29 19 -32 6 -14 -64 24 -92 19 -216 -14 -343 l-23 -90 -90 -35 c-85 -33 -96
-35 -205 -34 -63 1 -137 8 -165 16 -48 13 -51 16 -88 88 -56 114 -73 195 -59
289 6 42 18 100 27 129 15 48 21 56 61 73 24 11 81 29 127 41 74 19 91 20 172
10 50 -7 125 -22 168 -36 42 -13 77 -21 77 -16 0 10 -145 76 -209 94 -65 19
-156 19 -232 1z"/>
<path d="M632 1919 c2 -6 7 -10 11 -10 4 1 19 1 33 1 14 0 23 4 19 10 -8 14
-68 13 -63 -1z"/>
<path d="M900 1865 c0 -16 12 -18 47 -9 31 8 19 24 -18 24 -19 0 -29 -5 -29
-15z"/>
<path d="M420 1860 c0 -5 14 -10 30 -10 17 0 30 5 30 10 0 6 -13 10 -30 10
-16 0 -30 -4 -30 -10z"/>
<path d="M660 1805 c0 -9 9 -15 24 -15 33 0 42 16 13 24 -33 9 -37 8 -37 -9z"/>
<path d="M837 1813 c-15 -14 -6 -23 22 -23 37 0 49 16 18 24 -28 7 -32 7 -40
-1z"/>
<path d="M457 1794 c-15 -15 -6 -24 22 -24 17 0 33 5 36 10 3 6 0 10 -9 10 -8
0 -21 2 -28 5 -8 3 -17 2 -21 -1z"/>
<path d="M640 1684 c0 -11 5 -14 16 -10 9 3 22 6 30 6 8 0 14 5 14 10 0 6 -13
10 -30 10 -21 0 -30 -5 -30 -16z"/>
<path d="M457 1683 c-15 -14 -6 -23 22 -23 37 0 49 16 18 24 -28 7 -32 7 -40
-1z"/>
<path d="M863 1678 c2 -7 9 -13 15 -12 7 1 21 2 33 3 31 2 12 21 -22 21 -20 0
-29 -4 -26 -12z"/>
<path d="M540 1575 c0 -16 12 -18 48 -8 18 4 20 8 10 14 -22 14 -58 10 -58 -6z"/>
<path d="M405 1561 c-9 -15 14 -24 43 -16 20 5 23 8 11 16 -18 11 -46 12 -54
0z"/>
<path d="M670 1544 c0 -11 5 -14 16 -10 9 3 22 6 30 6 8 0 14 5 14 10 0 6 -13
10 -30 10 -21 0 -30 -5 -30 -16z"/>
<path d="M850 1534 c0 -12 6 -15 23 -10 12 3 28 6 35 6 7 0 10 5 7 10 -11 17
-65 12 -65 -6z"/>
<path d="M480 1440 c0 -5 16 -10 35 -10 19 0 35 5 35 10 0 6 -16 10 -35 10
-19 0 -35 -4 -35 -10z"/>
<path d="M770 1435 c0 -16 36 -20 58 -6 10 6 8 10 -10 14 -36 10 -48 8 -48 -8z"/>
<path d="M910 1427 c0 -9 10 -12 30 -9 17 2 30 8 30 13 0 5 -13 9 -30 9 -18 0
-30 -5 -30 -13z"/>
<path d="M637 1366 c-5 -12 0 -16 23 -16 16 0 32 5 35 10 3 6 0 10 -9 10 -8 0
-21 3 -29 6 -8 3 -17 -2 -20 -10z"/>
<path d="M612 1050 c-29 -4 -96 -23 -149 -41 -92 -32 -97 -35 -114 -74 -29
-67 -52 -201 -47 -279 4 -54 13 -87 38 -136 47 -94 118 -190 148 -202 15 -5
73 -12 128 -15 86 -5 112 -2 170 16 86 26 207 91 210 111 1 8 16 59 33 113 35
110 39 189 17 296 -13 57 -26 80 -48 81 -11 0 -10 -10 8 -87 20 -87 14 -206
-18 -327 l-23 -89 -71 -28 c-116 -45 -180 -55 -282 -41 -154 20 -159 23 -198
107 -68 148 -75 234 -33 395 l20 76 57 22 c167 66 283 67 476 3 79 -26 69 -6
-16 34 -126 57 -219 77 -306 65z"/>
<path d="M410 900 c0 -22 2 -23 71 -17 66 6 88 11 78 21 -2 2 -37 7 -76 11
-71 7 -73 6 -73 -15z"/>
<path d="M700 899 c0 -21 3 -22 76 -16 70 5 94 11 83 21 -2 2 -39 6 -81 10
-76 7 -78 6 -78 -15z"/>
<path d="M400 765 c0 -16 68 -21 129 -9 53 11 23 24 -55 24 -59 0 -74 -3 -74
-15z"/>
<path d="M696 765 c7 -16 65 -20 123 -9 57 12 32 24 -49 24 -66 0 -78 -2 -74
-15z"/>
<path d="M425 640 c-15 -25 8 -33 78 -26 68 6 85 11 76 20 -10 10 -148 16
-154 6z"/>
<path d="M720 630 c0 -22 2 -23 72 -16 109 10 110 21 1 31 -71 7 -73 7 -73
-15z"/>
<path d="M430 515 c0 -12 13 -15 58 -15 31 0 68 3 80 7 41 10 3 23 -70 23 -54
0 -68 -3 -68 -15z"/>
<path d="M720 515 c0 -12 13 -15 58 -15 31 0 68 3 80 7 41 10 3 23 -70 23 -54
0 -68 -3 -68 -15z"/>
</g>
</svg>
