<?xml version="1.0" standalone="no"?>
<!DOCTYPE svg PUBLIC "-//W3C//DTD SVG 20010904//EN"
 "http://www.w3.org/TR/2001/REC-SVG-20010904/DTD/svg10.dtd">
<svg version="1.0" xmlns="http://www.w3.org/2000/svg"
 width="136.000000pt" height="135.000000pt" viewBox="0 0 136.000000 135.000000"
 preserveAspectRatio="xMidYMid meet">
<metadata>
Created by potrace 1.16, written by Peter Selinger 2001-2019
</metadata>
<g transform="translate(0.000000,135.000000) scale(0.100000,-0.100000)"
fill="#000000" stroke="none">
<path d="M557 1026 c-66 -28 -153 -78 -201 -118 -26 -21 -35 -39 -45 -84 -17
-88 -14 -193 8 -257 26 -75 101 -218 111 -212 5 3 49 -8 100 -25 74 -24 109
-30 179 -30 114 0 199 17 212 42 6 11 9 21 7 23 -2 3 -28 -2 -58 -10 -107 -29
-166 -29 -305 -1 -92 19 -135 32 -146 45 -22 27 -70 175 -76 238 -7 67 23 239
47 263 27 27 161 78 238 92 59 10 82 9 157 -6 139 -27 148 -32 178 -114 34
-93 50 -184 42 -246 -9 -67 -31 -162 -50 -215 -18 -52 -18 -54 -4 -45 17 10
76 145 94 213 27 104 17 191 -40 341 -29 75 -47 87 -178 114 -112 23 -200 21
-270 -8z"/>
<path d="M756 878 c3 -40 9 -77 13 -83 7 -12 20 56 20 113 1 36 -2 42 -20 42
-19 0 -20 -4 -13 -72z"/>
<path d="M890 883 c0 -75 14 -115 25 -72 10 40 2 132 -12 137 -10 3 -13 -14
-13 -65z"/>
<path d="M619 923 c-3 -29 4 -139 9 -148 9 -15 20 33 21 98 1 44 -2 57 -14 57
-8 0 -15 -3 -16 -7z"/>
<path d="M500 876 c0 -54 10 -106 20 -106 5 0 10 34 12 75 3 66 1 75 -14 75
-14 0 -18 -9 -18 -44z"/>
<path d="M756 588 c3 -40 9 -77 13 -83 8 -14 18 39 20 103 1 46 -1 52 -20 52
-19 0 -20 -4 -13 -72z"/>
<path d="M890 588 c0 -67 12 -103 24 -73 3 9 6 43 6 76 0 46 -3 59 -15 59 -12
0 -15 -14 -15 -62z"/>
<path d="M626 633 c-9 -10 -7 -141 3 -147 11 -7 21 42 21 100 0 41 -10 61 -24
47z"/>
<path d="M500 588 c0 -61 11 -119 21 -112 5 3 9 39 9 80 0 59 -3 74 -15 74
-11 0 -15 -11 -15 -42z"/>
</g>
</svg>
