<?xml version="1.0" standalone="no"?>
<!DOCTYPE svg PUBLIC "-//W3C//DTD SVG 20010904//EN"
 "http://www.w3.org/TR/2001/REC-SVG-20010904/DTD/svg10.dtd">
<svg version="1.0" xmlns="http://www.w3.org/2000/svg"
 width="172.000000pt" height="179.000000pt" viewBox="0 0 172.000000 179.000000"
 preserveAspectRatio="xMidYMid meet">
<metadata>
Created by potrace 1.16, written by Peter Selinger 2001-2019
</metadata>
<g transform="translate(0.000000,179.000000) scale(0.100000,-0.100000)"
fill="#000000" stroke="none">
<path d="M438 1483 c-30 -3 -38 -8 -38 -25 0 -14 -5 -18 -16 -14 -11 4 -20 -6
-34 -38 -61 -136 -65 -270 -12 -396 18 -41 32 -82 32 -91 0 -28 76 -116 124
-144 24 -14 60 -29 79 -32 l34 -5 7 -121 c3 -66 7 -166 7 -221 1 -81 3 -93 10
-61 4 22 8 119 8 215 l1 175 163 0 c177 0 261 13 410 64 96 33 200 82 204 96
4 14 -111 89 -176 114 -28 12 -74 21 -100 21 -41 0 -169 -30 -233 -55 -15 -6
-14 0 4 57 23 68 30 241 15 348 l-8 55 -92 29 c-80 26 -108 30 -222 32 -71 1
-147 0 -167 -3z m162 -120 c0 -49 3 -98 6 -110 l6 -23 -137 0 -137 0 7 33 c4
17 19 62 32 100 19 49 31 68 47 72 34 7 77 12 129 14 l47 1 0 -87z m179 76
c98 -17 97 -16 110 -120 7 -50 10 -93 8 -95 -2 -2 -58 -1 -125 3 l-122 6 0
109 0 108 32 0 c17 0 61 -5 97 -11z m121 -276 c0 -46 -15 -160 -26 -195 -7
-24 -88 -48 -166 -48 l-68 0 0 79 c0 43 3 106 6 139 l7 61 116 4 c64 1 119 4
124 5 4 1 7 -19 7 -45z m-290 -108 l0 -134 -32 5 c-18 3 -72 15 -119 25 -85
20 -86 21 -98 57 -6 20 -15 70 -18 110 l-6 72 137 0 136 0 0 -135z m690 -112
c119 -57 119 -55 -6 -96 -60 -20 -142 -43 -181 -51 -110 -24 -308 -40 -395
-32 l-78 8 0 52 0 53 89 12 c50 7 150 30 223 52 170 50 248 51 348 2z m-781
-47 c46 -9 85 -16 87 -16 2 0 4 -23 4 -51 l0 -52 -36 6 c-46 8 -106 48 -146
100 -26 32 -28 38 -12 34 10 -3 57 -13 103 -21z"/>
</g>
</svg>
