<?xml version="1.0" standalone="no"?>
<!DOCTYPE svg PUBLIC "-//W3C//DTD SVG 20010904//EN"
 "http://www.w3.org/TR/2001/REC-SVG-20010904/DTD/svg10.dtd">
<svg version="1.0" xmlns="http://www.w3.org/2000/svg"
 width="172.000000pt" height="136.000000pt" viewBox="0 0 172.000000 136.000000"
 preserveAspectRatio="xMidYMid meet">
<metadata>
Created by potrace 1.16, written by Peter Selinger 2001-2019
</metadata>
<g transform="translate(0.000000,136.000000) scale(0.100000,-0.100000)"
fill="#000000" stroke="none">
<path d="M443 1053 c-34 -3 -43 -8 -43 -24 0 -12 -7 -19 -19 -19 -15 0 -26
-18 -47 -77 -25 -67 -29 -93 -29 -178 0 -87 4 -108 28 -165 15 -36 30 -76 33
-89 9 -43 32 -77 88 -128 78 -71 99 -75 377 -71 221 4 239 6 324 32 102 31
252 94 262 109 9 15 -52 61 -134 102 -103 52 -153 54 -277 16 -54 -17 -102
-31 -106 -31 -4 0 1 28 13 63 33 100 27 407 -9 407 -7 0 -49 12 -91 27 -66 22
-97 27 -203 28 -69 2 -144 1 -167 -2z m157 -120 c0 -49 3 -98 6 -110 l6 -23
-137 0 -137 0 7 33 c10 46 43 130 59 152 14 19 68 31 154 34 l42 1 0 -87z
m232 64 c47 -14 47 -14 62 -151 l7 -59 -118 6 c-65 4 -121 7 -125 7 -5 0 -8
50 -8 111 l0 112 70 -7 c38 -4 89 -13 112 -19z m68 -269 c0 -43 -16 -156 -26
-191 -8 -26 -63 -45 -154 -53 l-81 -7 2 141 1 141 36 4 c21 2 79 4 130 5 l92
2 0 -42z m-289 -60 c0 -51 3 -113 6 -137 l5 -44 -53 7 c-63 8 -170 34 -188 45
-17 11 -41 107 -41 169 l0 52 135 0 135 0 1 -92z m706 -168 c47 -23 81 -46 77
-50 -15 -15 -188 -69 -291 -92 -82 -19 -130 -22 -298 -23 -135 0 -214 4 -242
13 -42 13 -164 114 -152 126 3 3 40 -1 83 -9 150 -29 257 -18 491 50 159 46
213 44 332 -15z"/>
</g>
</svg>
