<?xml version="1.0" standalone="no"?>
<!DOCTYPE svg PUBLIC "-//W3C//DTD SVG 20010904//EN"
 "http://www.w3.org/TR/2001/REC-SVG-20010904/DTD/svg10.dtd">
<svg version="1.0" xmlns="http://www.w3.org/2000/svg"
 width="196.000000pt" height="115.000000pt" viewBox="0 0 196.000000 115.000000"
 preserveAspectRatio="xMidYMid meet">
<metadata>
Created by potrace 1.16, written by Peter Selinger 2001-2019
</metadata>
<g transform="translate(0.000000,115.000000) scale(0.100000,-0.100000)"
fill="#000000" stroke="none">
<path d="M620 824 c-1 -16 -1 -98 0 -181 1 -92 -3 -153 -9 -153 -21 0 -199 73
-234 96 -37 24 -37 24 -58 5 -25 -23 -21 -44 24 -115 36 -57 105 -114 183
-151 81 -38 103 -27 26 14 -78 43 -147 102 -184 160 -40 63 -36 74 15 46 23
-13 85 -35 136 -49 51 -14 95 -27 98 -29 2 -3 7 -37 10 -76 3 -39 12 -76 19
-82 17 -14 979 -8 993 6 6 6 13 114 17 263 l7 252 -24 1 c-13 0 -33 2 -44 5
-11 2 -235 7 -497 10 l-478 7 0 -29z m995 -44 l0 -34 -260 3 c-143 2 -263 5
-267 8 -5 2 -8 13 -8 24 0 17 8 19 68 20 37 1 146 5 242 9 241 10 225 12 225
-30z m-565 -7 l0 -26 -142 6 c-79 4 -167 7 -195 7 -46 0 -53 3 -53 20 0 19 7
20 195 20 l195 0 0 -27z m568 -90 l-3 -46 -254 2 c-139 1 -259 5 -267 8 -11 4
-21 59 -11 64 1 1 106 5 232 8 127 4 247 8 268 9 l38 2 -3 -47z m-568 -3 l0
-29 -82 -3 c-46 -2 -134 -2 -195 0 l-113 3 0 30 0 29 195 0 195 0 0 -30z m570
-107 l0 -46 -172 6 c-95 4 -217 7 -271 7 l-98 0 3 33 3 32 220 5 c121 3 241 7
268 8 l47 2 0 -47z m-570 -3 l0 -30 -195 0 -195 0 0 30 0 30 195 0 195 0 0
-30z m570 -100 c0 -22 0 -43 0 -47 0 -8 -437 -5 -497 3 -41 6 -43 8 -43 40 l0
33 133 4 c72 1 194 4 270 5 l137 2 0 -40z m-568 -5 l4 -35 -203 0 -203 0 0 28
c0 16 3 32 7 35 3 4 93 7 199 7 l192 0 4 -35z m578 -102 l0 -38 -127 2 c-71 2
-196 6 -279 9 l-151 6 5 24 4 24 207 3 c113 1 236 3 274 5 l67 2 0 -37z m-570
-4 c0 -18 -9 -19 -205 -19 -198 0 -205 1 -205 20 0 19 8 20 198 22 108 2 200
2 205 0 4 -2 7 -12 7 -23z"/>
</g>
</svg>
