<?xml version="1.0" standalone="no"?>
<!DOCTYPE svg PUBLIC "-//W3C//DTD SVG 20010904//EN"
 "http://www.w3.org/TR/2001/REC-SVG-20010904/DTD/svg10.dtd">
<svg version="1.0" xmlns="http://www.w3.org/2000/svg"
 width="102.000000pt" height="142.000000pt" viewBox="0 0 102.000000 142.000000"
 preserveAspectRatio="xMidYMid meet">
<metadata>
Created by potrace 1.16, written by Peter Selinger 2001-2019
</metadata>
<g transform="translate(0.000000,142.000000) scale(0.100000,-0.100000)"
fill="#000000" stroke="none">
<path d="M405 1113 c-30 -7 -46 -24 -62 -61 -13 -32 -13 -34 28 -82 l42 -50
-41 -44 c-97 -105 -95 -157 15 -322 l35 -53 -38 -71 c-31 -60 -36 -76 -28 -98
10 -26 12 -27 79 -25 69 1 71 2 109 45 58 64 125 157 152 210 20 40 24 62 24
143 0 81 -4 103 -24 143 -30 59 -91 139 -165 215 -56 57 -71 63 -126 50z m91
-70 c123 -118 192 -227 201 -318 10 -93 -43 -214 -147 -340 -41 -50 -49 -55
-97 -61 -54 -6 -83 4 -83 31 0 7 25 52 55 100 73 116 98 184 99 265 1 77 -28
144 -106 240 -26 33 -48 69 -48 79 0 18 43 61 60 61 3 0 33 -26 66 -57z m-30
-217 c37 -79 27 -187 -26 -287 -12 -21 -13 -20 -46 32 -47 76 -76 156 -69 190
8 34 93 132 107 123 6 -4 21 -30 34 -58z"/>
</g>
</svg>
