<?xml version="1.0" standalone="no"?>
<!DOCTYPE svg PUBLIC "-//W3C//DTD SVG 20010904//EN"
 "http://www.w3.org/TR/2001/REC-SVG-20010904/DTD/svg10.dtd">
<svg version="1.0" xmlns="http://www.w3.org/2000/svg"
 width="167.000000pt" height="327.000000pt" viewBox="0 0 167.000000 327.000000"
 preserveAspectRatio="xMidYMid meet">
<metadata>
Created by potrace 1.16, written by Peter Selinger 2001-2019
</metadata>
<g transform="translate(0.000000,327.000000) scale(0.100000,-0.100000)"
fill="#000000" stroke="none">
<path d="M637 2948 c-3 -12 -4 -25 -1 -29 3 -6 227 -164 310 -220 19 -12 -15
-14 -257 -11 -246 3 -280 2 -285 -12 -3 -9 -2 -73 2 -143 l9 -128 160 -1 c88
0 219 2 290 6 72 3 131 5 132 5 1 0 -90 -65 -202 -144 -179 -126 -203 -146
-194 -162 5 -11 16 -19 24 -19 7 0 15 -5 17 -11 3 -9 92 -9 346 0 188 7 346
10 351 7 15 -10 21 92 28 492 l6 392 -26 0 c-14 0 -27 -4 -29 -8 -1 -4 -75 -5
-163 -1 -88 4 -239 8 -336 8 -173 1 -177 1 -182 -21z m683 -65 c1 -139 10
-567 15 -667 l6 -109 -122 6 c-67 4 -214 7 -326 7 -111 0 -203 3 -203 8 0 4
46 41 103 82 56 41 137 105 179 143 59 51 84 67 107 67 17 0 31 5 31 10 0 6
-9 10 -20 10 -14 0 -18 5 -13 16 5 15 4 15 -18 2 -20 -13 -70 -15 -328 -10
l-303 5 6 51 c3 28 6 69 6 92 l0 41 266 7 c147 4 276 9 287 12 11 2 44 -10 74
-27 56 -32 73 -25 26 10 -27 20 -27 20 -5 21 12 0 22 5 22 10 0 6 -16 10 -35
10 -29 0 -62 20 -192 118 l-158 117 250 7 c138 4 264 9 280 11 69 9 65 12 65
-50z"/>
<path d="M640 1166 c0 -8 -2 -20 -5 -28 -3 -8 50 -51 146 -118 83 -58 159
-112 170 -120 18 -13 3 -14 -143 -7 -90 4 -239 6 -333 5 l-170 -3 -3 -70 c-2
-38 0 -103 3 -142 l7 -73 181 0 c100 1 256 5 347 10 90 5 166 8 167 6 2 -2
-36 -29 -84 -61 -49 -32 -142 -96 -208 -143 -66 -47 -122 -87 -124 -89 -2 -1
2 -9 9 -18 11 -13 63 -15 380 -15 l367 0 7 46 c3 26 9 224 13 440 l6 394 -26
0 c-15 0 -27 -5 -27 -10 0 -7 -48 -9 -137 -5 -426 15 -543 16 -543 1z m680
-88 c1 -161 10 -554 15 -654 l6 -111 -23 4 c-13 2 -161 7 -330 11 l-308 7 103
75 c156 113 390 301 383 307 -3 3 -34 -13 -69 -36 -35 -22 -66 -41 -69 -41 -5
0 -1 87 8 158 5 42 6 43 27 28 61 -42 139 -87 143 -83 6 6 -249 209 -383 305
-51 37 -93 70 -93 74 0 4 93 9 208 11 114 1 246 3 295 5 l87 2 0 -62z m-318
-320 c2 -62 4 -113 4 -114 -1 0 -66 3 -146 7 -80 4 -232 8 -337 8 l-193 1 0
58 c0 31 3 74 6 95 l7 37 181 1 c151 1 288 7 447 17 l27 2 4 -112z"/>
</g>
</svg>
