<?xml version="1.0" standalone="no"?>
<!DOCTYPE svg PUBLIC "-//W3C//DTD SVG 20010904//EN"
 "http://www.w3.org/TR/2001/REC-SVG-20010904/DTD/svg10.dtd">
<svg version="1.0" xmlns="http://www.w3.org/2000/svg"
 width="160.000000pt" height="192.000000pt" viewBox="0 0 160.000000 192.000000"
 preserveAspectRatio="xMidYMid meet">
<metadata>
Created by potrace 1.16, written by Peter Selinger 2001-2019
</metadata>
<g transform="translate(0.000000,192.000000) scale(0.100000,-0.100000)"
fill="#000000" stroke="none">
<path d="M506 1528 c-3 -50 -6 -119 -6 -153 l0 -62 -62 -23 c-40 -14 -77 -37
-102 -61 -38 -38 -38 -40 -34 -99 3 -39 11 -70 25 -88 40 -54 55 -57 334 -57
198 0 253 -3 243 -12 -18 -19 -39 -140 -38 -225 1 -109 37 -180 144 -281 75
-73 194 -167 209 -167 8 0 27 223 36 420 11 238 16 280 31 280 8 0 14 4 14 8
0 10 -284 22 -490 22 l-128 0 -4 93 c-3 68 -9 99 -22 120 -22 33 -91 71 -113
63 -12 -5 -14 -1 -10 16 3 13 9 85 13 161 6 132 6 137 -13 137 -18 0 -21 -9
-27 -92z m105 -297 c28 -30 49 -103 49 -167 l0 -35 -111 2 c-71 1 -114 -2
-118 -9 -11 -19 -71 25 -87 63 -30 72 -11 113 70 151 77 36 86 33 86 -26 0
-27 5 -50 10 -50 6 0 10 11 10 24 0 13 3 38 6 55 6 29 10 32 33 26 14 -3 38
-19 52 -34z m608 -311 c-1 -44 -5 -83 -10 -85 -4 -3 -40 19 -81 49 -50 38 -75
51 -80 43 -12 -19 -12 -20 77 -77 l84 -55 1 -53 0 -53 -80 61 c-72 55 -100 66
-100 40 0 -5 41 -37 90 -70 88 -59 90 -61 90 -100 l0 -40 -84 65 c-69 54 -86
62 -95 51 -10 -12 0 -23 51 -59 35 -24 78 -52 96 -63 27 -16 32 -24 32 -56 0
-37 -12 -49 -25 -27 -14 21 -156 120 -165 114 -21 -13 -7 -28 90 -91 l100 -65
0 -66 0 -65 -66 59 c-79 68 -162 165 -201 231 -26 43 -28 55 -28 152 0 73 6
124 19 167 l18 62 102 4 c55 1 116 4 134 5 l33 2 -2 -80z"/>
</g>
</svg>
