<?xml version="1.0" standalone="no"?>
<!DOCTYPE svg PUBLIC "-//W3C//DTD SVG 20010904//EN"
 "http://www.w3.org/TR/2001/REC-SVG-20010904/DTD/svg10.dtd">
<svg version="1.0" xmlns="http://www.w3.org/2000/svg"
 width="134.000000pt" height="154.000000pt" viewBox="0 0 134.000000 154.000000"
 preserveAspectRatio="xMidYMid meet">
<metadata>
Created by potrace 1.16, written by Peter Selinger 2001-2019
</metadata>
<g transform="translate(0.000000,154.000000) scale(0.100000,-0.100000)"
fill="#000000" stroke="none">
<path d="M481 1183 c-7 -32 -14 -65 -17 -74 -2 -8 -21 -21 -42 -28 -80 -29
-122 -78 -122 -145 0 -50 18 -83 52 -97 26 -11 40 -9 102 11 39 12 76 25 82
27 6 2 36 -33 67 -79 31 -46 85 -115 122 -155 l66 -72 -15 -58 c-8 -32 -18
-84 -22 -116 -9 -76 11 -76 26 1 7 31 17 82 24 112 l12 55 -49 63 c-27 35 -48
65 -45 67 2 2 32 -18 68 -45 35 -28 66 -48 69 -45 6 7 -80 84 -147 132 -43 30
-122 125 -122 147 0 9 74 26 116 26 23 0 62 -3 88 -6 42 -6 49 -11 67 -45 16
-32 19 -59 19 -164 0 -139 2 -145 66 -222 24 -28 44 -54 44 -57 0 -3 -11 -6
-24 -6 -14 0 -37 -5 -52 -10 l-27 -11 7 55 c4 40 2 57 -8 65 -12 10 -15 5 -21
-28 -4 -22 -4 -54 0 -70 6 -27 3 -30 -39 -46 -44 -17 -84 -50 -74 -60 6 -6 69
18 179 68 56 26 80 32 88 24 6 -6 14 -8 18 -4 4 4 -9 24 -29 45 -92 97 -93
100 -94 258 -1 127 -3 145 -23 177 -38 62 -140 87 -251 61 -39 -9 -73 -14 -75
-12 -1 1 -19 36 -39 76 -20 39 -41 72 -46 72 -7 0 -7 6 0 18 17 28 49 135 44
144 -14 23 -32 3 -43 -49z m18 -208 c19 -35 33 -66 30 -68 -2 -2 -40 -13 -84
-25 -74 -19 -81 -19 -92 -4 -18 23 -16 93 3 120 18 26 47 40 84 41 21 1 31
-10 59 -64z"/>
<path d="M660 826 c0 -7 170 -137 186 -143 28 -11 12 7 -68 76 -46 39 -91 71
-100 71 -10 0 -18 -2 -18 -4z"/>
</g>
</svg>
