<?xml version="1.0" standalone="no"?>
<!DOCTYPE svg PUBLIC "-//W3C//DTD SVG 20010904//EN"
 "http://www.w3.org/TR/2001/REC-SVG-20010904/DTD/svg10.dtd">
<svg version="1.0" xmlns="http://www.w3.org/2000/svg"
 width="138.000000pt" height="156.000000pt" viewBox="0 0 138.000000 156.000000"
 preserveAspectRatio="xMidYMid meet">
<metadata>
Created by potrace 1.16, written by Peter Selinger 2001-2019
</metadata>
<g transform="translate(0.000000,156.000000) scale(0.100000,-0.100000)"
fill="#000000" stroke="none">
<path d="M953 1235 c-141 -54 -234 -110 -347 -207 -37 -32 -41 -34 -90 -27
-28 4 -85 8 -127 8 l-77 1 -6 -35 c-7 -34 -2 -103 30 -475 18 -203 41 -278 30
-100 -3 58 -9 162 -12 233 l-7 127 117 0 c70 0 116 -4 116 -10 0 -10 14 -30
67 -90 54 -62 190 -121 376 -165 59 -14 82 -2 25 13 l-32 8 2 264 c2 146 5
313 8 373 4 59 2 107 -2 107 -5 -1 -37 -12 -71 -25z m39 -377 c2 -221 0 -328
-7 -328 -16 0 -158 56 -213 84 -67 34 -105 68 -143 126 -30 47 -32 54 -30 137
2 75 6 91 24 111 47 51 148 123 252 181 105 58 110 60 112 39 1 -13 4 -170 5
-350z m-427 99 c3 -12 5 -56 3 -97 l-3 -74 -110 3 c-60 1 -111 3 -111 4 -1 1
-4 41 -6 89 -5 102 -14 95 124 97 93 1 98 0 103 -22z"/>
</g>
</svg>
