<?xml version="1.0" standalone="no"?>
<!DOCTYPE svg PUBLIC "-//W3C//DTD SVG 20010904//EN"
 "http://www.w3.org/TR/2001/REC-SVG-20010904/DTD/svg10.dtd">
<svg version="1.0" xmlns="http://www.w3.org/2000/svg"
 width="161.000000pt" height="105.000000pt" viewBox="0 0 161.000000 105.000000"
 preserveAspectRatio="xMidYMid meet">
<metadata>
Created by potrace 1.16, written by Peter Selinger 2001-2019
</metadata>
<g transform="translate(0.000000,105.000000) scale(0.100000,-0.100000)"
fill="#000000" stroke="none">
<path d="M383 730 c-12 -17 -7 -21 50 -47 34 -15 114 -53 177 -85 l115 -57
-212 0 -213 -1 0 -26 0 -25 200 3 c110 2 200 2 200 1 0 -1 -19 -11 -42 -22
-149 -68 -279 -130 -280 -133 -1 -1 3 -12 9 -22 10 -17 24 -12 208 83 109 55
201 101 205 101 6 0 334 -156 383 -182 14 -7 18 -7 16 1 -3 7 -74 50 -159 96
l-155 85 113 1 c61 1 117 3 122 4 6 1 51 3 101 4 132 2 103 21 -34 22 -62 1
-157 4 -212 8 l-100 6 163 88 c89 49 162 93 162 98 0 4 -86 -34 -192 -86 -105
-52 -197 -95 -203 -95 -7 0 -100 45 -207 100 -107 55 -197 100 -199 100 -2 0
-10 -9 -16 -20z"/>
</g>
</svg>
