<?xml version="1.0" standalone="no"?>
<!DOCTYPE svg PUBLIC "-//W3C//DTD SVG 20010904//EN"
 "http://www.w3.org/TR/2001/REC-SVG-20010904/DTD/svg10.dtd">
<svg version="1.0" xmlns="http://www.w3.org/2000/svg"
 width="210.000000pt" height="118.000000pt" viewBox="0 0 210.000000 118.000000"
 preserveAspectRatio="xMidYMid meet">
<metadata>
Created by potrace 1.16, written by Peter Selinger 2001-2019
</metadata>
<g transform="translate(0.000000,118.000000) scale(0.100000,-0.100000)"
fill="#000000" stroke="none">
<path d="M494 790 l8 -90 -101 0 c-56 0 -101 -4 -101 -8 0 -24 30 -32 112 -32
l88 0 0 -49 c0 -26 3 -77 7 -112 9 -88 21 -50 22 69 1 90 2 92 25 92 21 0 24
-5 30 -61 3 -34 6 -82 6 -105 0 -24 5 -44 10 -44 6 0 10 24 10 53 0 28 3 76 6
105 7 51 7 52 40 52 l34 0 1 -92 c1 -115 13 -157 22 -78 4 30 7 81 7 113 0 50
2 57 20 57 17 0 20 -7 20 -49 0 -26 3 -76 6 -110 10 -89 24 -56 24 57 0 50 3
92 8 92 41 -1 52 -13 52 -59 0 -25 3 -71 7 -101 5 -45 8 -50 14 -30 4 14 7 55
8 93 1 37 3 67 6 67 30 0 237 -134 327 -212 85 -73 154 -100 264 -106 104 -5
181 12 252 56 54 35 67 71 67 192 0 86 -3 99 -27 140 -55 90 -69 101 -136 107
-89 8 -143 -10 -269 -88 -103 -64 -124 -84 -107 -101 3 -4 54 25 112 63 114
74 177 99 253 99 43 0 51 -4 78 -37 60 -72 78 -145 66 -257 l-6 -63 -56 -28
c-80 -39 -211 -60 -283 -46 -81 16 -157 57 -230 123 -74 68 -169 133 -254 174
l-58 29 7 108 7 107 -28 0 -27 0 7 -104 6 -103 -25 5 c-25 4 -25 5 -25 103 0
92 -1 99 -20 99 -19 0 -20 -7 -20 -96 0 -86 -2 -95 -17 -92 -16 3 -18 16 -17
96 1 90 0 92 -23 92 -22 0 -23 -2 -23 -90 l0 -90 -30 0 -30 0 0 90 c0 83 -1
90 -20 90 -19 0 -20 -7 -20 -90 0 -83 -1 -90 -20 -90 -22 0 -22 -3 -20 103 l1
77 -27 0 -27 0 7 -90z"/>
</g>
</svg>
