<?xml version="1.0" standalone="no"?>
<!DOCTYPE svg PUBLIC "-//W3C//DTD SVG 20010904//EN"
 "http://www.w3.org/TR/2001/REC-SVG-20010904/DTD/svg10.dtd">
<svg version="1.0" xmlns="http://www.w3.org/2000/svg"
 width="148.000000pt" height="163.000000pt" viewBox="0 0 148.000000 163.000000"
 preserveAspectRatio="xMidYMid meet">
<metadata>
Created by potrace 1.16, written by Peter Selinger 2001-2019
</metadata>
<g transform="translate(0.000000,163.000000) scale(0.100000,-0.100000)"
fill="#000000" stroke="none">
<path d="M946 1280 c-117 -72 -197 -132 -192 -145 2 -7 -1 -12 -7 -12 -25 0
-447 -269 -447 -284 0 -4 5 -11 10 -14 8 -5 7 -11 -1 -21 -6 -8 -10 -16 -8
-18 32 -33 426 -279 445 -279 7 0 10 -5 8 -12 -3 -6 24 -31 58 -57 73 -53 226
-143 233 -137 2 3 -54 48 -126 101 l-130 95 118 88 c163 122 273 214 273 230
0 16 -110 108 -272 229 l-118 88 48 37 c26 20 81 61 122 90 92 65 98 71 80 70
-8 0 -50 -22 -94 -49z m5 -322 c103 -68 195 -128 204 -134 16 -9 13 -13 -26
-36 l-44 -26 -30 22 c-16 13 -100 75 -186 139 -86 64 -161 123 -168 131 -9 11
-6 18 15 35 23 18 28 19 38 6 6 -8 95 -69 197 -137z m-241 42 c19 -15 108 -77
197 -137 l163 -111 -41 -27 -41 -26 -195 147 -196 147 28 23 c31 25 32 24 85
-16z m-63 -86 c41 -31 130 -92 197 -136 66 -44 122 -83 124 -87 1 -4 -13 -16
-31 -26 l-34 -18 -191 144 c-190 142 -192 144 -171 162 12 9 23 17 26 17 2 0
38 -25 80 -56z m-106 -37 c24 -19 113 -80 197 -137 l154 -103 -29 -23 c-15
-13 -32 -23 -36 -24 -5 0 -94 64 -199 142 -190 142 -190 142 -168 160 29 24
30 23 81 -15z m-121 -25 c0 -8 174 -133 318 -227 71 -47 72 -48 50 -63 -13 -8
-28 -21 -34 -28 -9 -11 -32 3 -115 68 -57 44 -146 110 -197 146 l-93 66 28 22
c30 25 43 29 43 16z"/>
</g>
</svg>
