<?xml version="1.0" standalone="no"?>
<!DOCTYPE svg PUBLIC "-//W3C//DTD SVG 20010904//EN"
 "http://www.w3.org/TR/2001/REC-SVG-20010904/DTD/svg10.dtd">
<svg version="1.0" xmlns="http://www.w3.org/2000/svg"
 width="148.000000pt" height="125.000000pt" viewBox="0 0 148.000000 125.000000"
 preserveAspectRatio="xMidYMid meet">
<metadata>
Created by potrace 1.16, written by Peter Selinger 2001-2019
</metadata>
<g transform="translate(0.000000,125.000000) scale(0.100000,-0.100000)"
fill="#000000" stroke="none">
<path d="M766 943 c-3 -4 -13 -8 -20 -9 -24 -3 -414 -249 -445 -280 -2 -2 2
-10 8 -18 8 -10 9 -16 1 -21 -5 -3 -10 -10 -10 -14 0 -14 416 -281 444 -285 6
-1 16 -5 23 -9 20 -13 413 290 413 318 0 16 -111 109 -278 233 -136 101 -126
95 -136 85z m83 -107 c44 -31 133 -90 198 -132 65 -41 117 -78 116 -81 -1 -3
-19 -16 -40 -28 l-38 -23 -131 96 c-71 54 -161 121 -199 151 l-68 54 27 24
c24 20 29 21 42 9 8 -8 50 -40 93 -70z m-12 -113 c81 -57 168 -116 192 -132
l43 -29 -42 -27 -41 -26 -196 147 -196 147 29 23 c24 19 32 21 46 11 9 -7 83
-58 165 -114z m-160 -20 c60 -43 150 -105 201 -138 50 -33 92 -63 92 -66 0 -3
-15 -14 -33 -24 l-34 -18 -164 123 c-90 68 -176 133 -192 146 l-27 23 22 15
c12 9 23 16 24 16 1 0 51 -35 111 -77z m-135 -17 c25 -19 114 -81 198 -137
l154 -102 -30 -23 c-16 -13 -33 -24 -37 -24 -5 0 -94 64 -199 142 -189 142
-189 143 -168 160 29 24 30 23 82 -16z m-122 -24 c0 -9 136 -107 288 -207 100
-67 102 -68 80 -83 -13 -8 -28 -21 -34 -28 -9 -11 -32 3 -115 68 -57 44 -146
110 -196 147 l-93 65 28 23 c28 23 42 28 42 15z"/>
</g>
</svg>
