<?xml version="1.0" standalone="no"?>
<!DOCTYPE svg PUBLIC "-//W3C//DTD SVG 20010904//EN"
 "http://www.w3.org/TR/2001/REC-SVG-20010904/DTD/svg10.dtd">
<svg version="1.0" xmlns="http://www.w3.org/2000/svg"
 width="138.000000pt" height="147.000000pt" viewBox="0 0 138.000000 147.000000"
 preserveAspectRatio="xMidYMid meet">
<metadata>
Created by potrace 1.16, written by Peter Selinger 2001-2019
</metadata>
<g transform="translate(0.000000,147.000000) scale(0.100000,-0.100000)"
fill="#000000" stroke="none">
<path d="M382 988 c-70 -247 -85 -321 -80 -387 8 -115 94 -230 203 -271 78
-29 252 -38 380 -20 50 8 104 14 120 15 27 2 32 8 52 61 33 90 29 184 -8 184
-16 0 -18 -5 -12 -27 9 -35 9 -85 -1 -145 l-7 -47 -53 -6 c-104 -13 -348 -11
-406 4 -145 37 -195 82 -226 201 -14 54 -14 68 1 145 9 47 40 169 70 271 30
102 55 189 55 194 0 6 -8 10 -18 10 -16 0 -27 -31 -70 -182z"/>
<path d="M478 913 c-47 -189 -85 -390 -74 -400 7 -7 3 -24 79 287 36 146 66
271 68 279 2 8 -3 16 -11 18 -12 3 -25 -36 -62 -184z"/>
<path d="M536 723 c-31 -168 -41 -233 -33 -233 8 0 21 50 58 213 33 147 34
157 15 157 -10 0 -21 -39 -40 -137z"/>
<path d="M655 837 c-20 -57 -55 -341 -40 -326 2 3 18 70 35 149 17 80 33 152
36 161 5 19 -25 35 -31 16z"/>
<path d="M766 808 c-7 -20 -35 -169 -38 -203 -3 -28 -5 -30 -40 -27 -29 3 -38
0 -38 -12 0 -9 8 -16 19 -16 35 0 51 -12 52 -39 l1 -26 11 28 c9 22 16 27 32
23 11 -3 30 -6 43 -6 19 0 22 -6 23 -37 l1 -38 11 33 c9 29 14 33 41 30 28 -3
31 -6 32 -40 1 -53 12 -58 20 -9 l7 42 45 -7 c54 -8 51 10 -3 20 -19 4 -35 10
-35 14 0 4 11 56 24 115 20 98 19 136 -3 111 -9 -10 -41 -168 -41 -201 0 -17
-6 -23 -22 -23 -49 0 -50 9 -24 131 13 63 22 116 20 118 -2 2 -9 1 -17 -2 -8
-3 -20 -44 -31 -108 -10 -57 -20 -109 -21 -116 -4 -11 -69 -3 -82 11 -3 2 5
51 16 108 12 57 23 109 24 117 3 18 -22 27 -27 9z"/>
</g>
</svg>
