<?xml version="1.0" standalone="no"?>
<!DOCTYPE svg PUBLIC "-//W3C//DTD SVG 20010904//EN"
 "http://www.w3.org/TR/2001/REC-SVG-20010904/DTD/svg10.dtd">
<svg version="1.0" xmlns="http://www.w3.org/2000/svg"
 width="105.000000pt" height="152.000000pt" viewBox="0 0 105.000000 152.000000"
 preserveAspectRatio="xMidYMid meet">
<metadata>
Created by potrace 1.16, written by Peter Selinger 2001-2019
</metadata>
<g transform="translate(0.000000,152.000000) scale(0.100000,-0.100000)"
fill="#000000" stroke="none">
<path d="M631 1179 c-111 -60 -161 -98 -153 -118 5 -14 4 -14 -12 -1 -17 13
-22 11 -62 -33 -23 -26 -55 -73 -71 -105 -25 -52 -28 -66 -27 -167 0 -87 6
-130 27 -208 31 -114 84 -247 99 -247 6 0 7 7 2 18 -26 59 -66 198 -85 294
-34 177 -16 273 67 375 58 71 58 71 193 4 90 -43 123 -55 131 -46 6 7 6 15 -1
22 -7 7 -7 28 0 69 6 32 11 86 11 121 0 59 -2 63 -22 63 -13 0 -56 -18 -97
-41z m84 -97 l-7 -100 -57 25 c-31 14 -80 34 -110 43 l-54 17 114 61 c62 34
115 59 117 57 2 -2 1 -49 -3 -103z"/>
<path d="M470 933 c0 -14 183 -84 193 -74 12 12 -27 32 -112 60 -70 23 -81 25
-81 14z"/>
<path d="M440 863 c0 -5 43 -23 96 -42 69 -24 99 -30 106 -23 13 13 -9 23
-116 53 -79 21 -86 22 -86 12z"/>
<path d="M415 743 c6 -6 44 -16 85 -22 41 -7 85 -14 98 -18 15 -3 22 -1 22 10
0 19 -27 26 -130 33 -56 4 -82 3 -75 -3z"/>
<path d="M430 630 c-51 -10 -20 -18 87 -22 64 -3 94 -1 97 8 3 7 -16 13 -56
18 -68 7 -78 6 -128 -4z"/>
<path d="M440 521 c-59 -13 -12 -22 91 -19 54 2 94 7 94 13 0 12 -134 16 -185
6z"/>
<path d="M445 400 c-4 -6 24 -10 77 -10 46 0 93 -3 106 -6 16 -5 22 -2 22 10
0 14 -15 16 -99 16 -56 0 -103 -4 -106 -10z"/>
</g>
</svg>
