<?xml version="1.0" standalone="no"?>
<!DOCTYPE svg PUBLIC "-//W3C//DTD SVG 20010904//EN"
 "http://www.w3.org/TR/2001/REC-SVG-20010904/DTD/svg10.dtd">
<svg version="1.0" xmlns="http://www.w3.org/2000/svg"
 width="234.000000pt" height="312.000000pt" viewBox="0 0 234.000000 312.000000"
 preserveAspectRatio="xMidYMid meet">
<metadata>
Created by potrace 1.16, written by Peter Selinger 2001-2019
</metadata>
<g transform="translate(0.000000,312.000000) scale(0.100000,-0.100000)"
fill="#000000" stroke="none">
<path d="M1519 2630 c-4 -128 -9 -175 -23 -207 -10 -24 -20 -43 -22 -43 -2 0
-54 24 -116 54 -81 38 -107 55 -93 59 17 4 16 5 -5 6 -14 0 -53 -6 -88 -14
-35 -8 -68 -12 -73 -9 -16 9 -299 -215 -299 -237 0 -14 16 -10 31 7 23 27 64
43 175 64 60 12 118 24 129 27 38 10 -78 -97 -159 -147 l-80 -49 -41 38 c-25
23 -56 41 -78 45 -38 7 -112 -7 -122 -24 -4 -6 -17 -3 -33 9 -22 15 -112 64
-144 79 -5 2 -8 -5 -8 -15 0 -15 18 -26 72 -47 40 -16 77 -32 82 -36 4 -5 0
-19 -10 -33 -18 -24 -19 -24 -155 -19 -129 4 -136 4 -141 -15 -4 -15 8 -31 50
-64 100 -80 108 -83 45 -18 -35 36 -63 68 -63 72 0 9 96 9 178 1 60 -7 61 -7
56 -34 -3 -14 1 -44 10 -64 9 -21 16 -40 16 -42 0 -2 -31 -4 -69 -4 -71 0 -86
-6 -72 -28 6 -10 23 -9 78 4 l70 15 38 -25 c50 -35 127 -36 176 -3 46 30 82
101 75 148 -6 35 -5 36 82 92 91 58 178 139 233 217 18 25 33 47 35 49 11 13
260 -100 322 -147 l22 -17 -45 -70 c-64 -97 -87 -119 -192 -182 l-92 -55 -113
37 c-62 21 -133 49 -156 63 -36 21 -45 23 -53 11 -4 -8 -5 -17 -1 -20 14 -13
142 -60 222 -81 93 -25 92 -25 -31 -69 l-67 -23 -72 58 c-62 50 -74 56 -86 44
-12 -12 2 -26 108 -100 68 -47 133 -90 146 -97 32 -17 213 -49 312 -55 46 -3
109 -7 140 -10 48 -5 50 -4 15 4 -22 4 -73 11 -113 15 -40 4 -72 11 -70 16 2
4 38 33 80 63 l78 56 24 -38 c14 -20 32 -56 41 -79 10 -24 23 -43 31 -43 15 0
-23 93 -57 142 -11 15 -17 33 -13 39 4 7 3 9 -3 6 -6 -4 -23 10 -38 31 -16 20
-48 58 -72 83 l-45 46 37 49 c21 27 51 73 67 102 l30 52 37 -22 c20 -12 54
-34 76 -48 59 -39 69 -44 62 -33 -4 6 -42 34 -86 63 l-80 52 49 99 c28 54 48
99 46 99 -2 0 -27 -43 -55 -95 l-52 -95 -58 37 -58 36 23 58 c21 50 24 75 23
171 -1 198 -15 224 -20 38z m-279 -172 c-1 -13 -14 -39 -31 -58 -28 -33 -36
-36 -166 -61 l-136 -26 49 43 c59 52 96 71 194 100 94 28 90 28 90 2z m295
-475 c36 -47 65 -89 65 -92 -1 -7 -72 -52 -153 -96 l-59 -32 -81 15 c-45 8
-85 18 -90 21 -10 10 158 101 252 137 40 15 69 30 64 31 -20 7 -162 -50 -256
-102 l-99 -56 -34 23 c-19 13 -34 26 -34 29 0 8 161 79 169 74 4 -2 48 27 97
64 49 38 90 69 91 70 1 1 32 -38 68 -86z"/>
<path d="M1247 2598 c-37 -28 -66 -53 -63 -55 5 -5 136 94 136 103 0 6 -1 6
-73 -48z"/>
<path d="M1770 2560 c0 -25 5 -65 11 -90 6 -25 19 -112 30 -195 l18 -150 -4
120 c-5 127 -33 333 -47 350 -4 5 -8 -11 -8 -35z"/>
<path d="M1280 2558 c-41 -11 -84 -21 -95 -21 -22 0 -90 -46 -81 -54 3 -3 17
4 32 16 15 12 31 18 36 13 4 -4 41 2 81 15 39 12 95 29 122 37 48 13 48 14 15
14 -19 1 -69 -8 -110 -20z"/>
<path d="M1154 1142 c-38 -27 -135 -94 -217 -150 l-147 -102 -245 7 -245 6 0
-26 0 -27 115 5 c63 3 167 7 232 10 92 4 119 2 132 -9 14 -13 30 -4 144 80 70
52 131 94 135 94 4 0 39 -31 76 -69 38 -39 72 -69 75 -69 3 1 13 -2 23 -6 10
-5 41 7 89 34 40 23 80 39 89 37 8 -3 81 -50 163 -105 l148 -100 -108 -98
c-60 -54 -110 -100 -112 -101 -3 -2 1 -9 7 -15 19 -19 14 -33 -6 -15 -9 9 -78
57 -152 107 -122 82 -136 89 -147 74 -7 -10 -67 -39 -134 -66 l-121 -48 -60
50 c-33 28 -63 50 -68 50 -7 0 -20 -23 -20 -35 0 -9 473 -356 478 -350 4 3 2
9 -4 13 -47 31 -283 246 -277 252 4 4 53 28 108 54 l100 47 135 -84 c172 -107
270 -161 270 -149 0 5 -18 22 -41 37 l-40 29 114 114 114 114 129 -83 c71 -46
131 -87 132 -91 2 -5 8 -6 13 -2 5 3 9 103 9 225 0 196 -2 219 -16 219 -9 0
-22 -6 -28 -13 -20 -25 -244 -209 -253 -208 -4 0 -72 47 -151 103 -111 79
-140 104 -130 113 7 6 57 37 110 68 92 54 121 77 99 77 -5 0 -111 -51 -235
-114 l-225 -114 -62 75 c-35 42 -58 78 -52 81 31 21 133 108 133 115 0 11 -2
10 -76 -41z m855 -373 c5 -101 9 -185 8 -185 -1 -1 -49 32 -107 73 -58 41
-111 78 -119 83 -11 6 13 34 95 113 60 58 110 104 111 103 1 -1 7 -85 12 -187z"/>
<path d="M300 675 l0 -27 158 6 c241 10 335 17 325 27 -5 5 -115 12 -246 15
l-237 7 0 -28z"/>
</g>
</svg>
