<?xml version="1.0" standalone="no"?>
<!DOCTYPE svg PUBLIC "-//W3C//DTD SVG 20010904//EN"
 "http://www.w3.org/TR/2001/REC-SVG-20010904/DTD/svg10.dtd">
<svg version="1.0" xmlns="http://www.w3.org/2000/svg"
 width="215.000000pt" height="118.000000pt" viewBox="0 0 215.000000 118.000000"
 preserveAspectRatio="xMidYMid meet">
<metadata>
Created by potrace 1.16, written by Peter Selinger 2001-2019
</metadata>
<g transform="translate(0.000000,118.000000) scale(0.100000,-0.100000)"
fill="#000000" stroke="none">
<path d="M543 869 c-10 -10 -10 -198 1 -386 l4 -63 -124 0 -124 0 0 -27 0 -26
598 6 c328 4 649 10 712 13 l115 7 -34 -37 c-23 -24 -32 -39 -25 -46 6 -6 40
21 99 80 49 49 87 91 84 94 -2 2 -51 27 -108 56 -80 40 -106 49 -112 38 -5 -8
-1 -17 14 -24 19 -11 15 -14 -48 -32 -39 -12 -126 -35 -195 -52 -69 -17 -132
-33 -140 -35 -13 -4 -15 23 -11 213 l3 219 -158 6 c-254 11 -538 9 -551 -4z
m567 -237 l5 -212 -45 0 -45 0 4 207 c2 142 7 210 15 216 6 4 22 6 36 5 l25
-3 5 -213z m103 121 c4 -54 7 -151 7 -215 l0 -118 -47 0 -46 0 6 107 c4 58 7
155 7 215 l0 108 33 0 34 0 6 -97z m-543 -46 c0 -74 3 -168 6 -210 l7 -77 -63
0 c-60 0 -62 1 -56 23 3 12 6 106 6 210 l0 187 50 0 50 0 0 -133z m100 -16 c0
-81 3 -176 6 -210 l7 -61 -48 0 c-44 0 -47 1 -41 23 3 12 6 106 6 210 l0 187
35 0 35 0 0 -149z m120 -30 c0 -98 3 -193 6 -210 l7 -31 -58 0 -57 0 6 31 c3
17 6 112 6 210 l0 179 45 0 45 0 0 -179z m110 46 c0 -74 3 -168 6 -210 l7 -77
-53 0 -53 0 6 68 c4 37 7 131 7 210 l0 142 40 0 40 0 0 -133z m769 -210 l53
-23 -44 -35 -43 -34 -215 5 -215 5 65 18 c36 10 119 35 185 57 66 21 129 37
141 35 11 -3 44 -15 73 -28z"/>
</g>
</svg>
