<?xml version="1.0" standalone="no"?>
<!DOCTYPE svg PUBLIC "-//W3C//DTD SVG 20010904//EN"
 "http://www.w3.org/TR/2001/REC-SVG-20010904/DTD/svg10.dtd">
<svg version="1.0" xmlns="http://www.w3.org/2000/svg"
 width="215.000000pt" height="118.000000pt" viewBox="0 0 215.000000 118.000000"
 preserveAspectRatio="xMidYMid meet">
<metadata>
Created by potrace 1.16, written by Peter Selinger 2001-2019
</metadata>
<g transform="translate(0.000000,118.000000) scale(0.100000,-0.100000)"
fill="#000000" stroke="none">
<path d="M543 869 c-10 -10 -9 -254 1 -401 l3 -48 -123 0 -124 0 0 -27 0 -26
598 6 c328 4 649 10 712 13 l115 7 -34 -37 c-23 -24 -32 -39 -25 -46 6 -6 40
21 99 80 49 49 87 91 84 94 -2 2 -51 27 -108 56 -80 40 -106 49 -112 38 -5 -8
-1 -17 14 -24 19 -11 15 -14 -48 -32 -39 -12 -126 -35 -195 -52 -69 -17 -132
-33 -140 -35 -13 -4 -15 23 -11 213 l3 219 -158 6 c-251 11 -538 9 -551 -4z
m496 -59 l-33 -40 -34 32 -33 33 43 5 c99 11 93 15 57 -30z m176 -92 c4 -73 5
-144 4 -158 -4 -23 -7 -20 -53 33 l-48 57 41 45 c57 62 52 80 -7 22 -26 -26
-50 -47 -53 -47 -2 0 -22 20 -42 45 l-38 45 38 45 c37 43 40 44 94 45 l57 0 7
-132z m-468 73 l42 -47 -38 -38 -38 -37 -42 47 c-31 33 -46 43 -54 35 -8 -8 1
-23 33 -56 l44 -45 -53 -54 c-41 -41 -52 -59 -46 -73 6 -15 15 -9 61 41 l54
60 35 -34 c19 -19 35 -37 35 -41 0 -4 -20 -29 -45 -57 -25 -27 -45 -53 -45
-56 0 -18 30 -1 72 41 l48 47 40 -39 c60 -59 48 -65 -137 -65 l-154 0 5 28 c2
15 5 109 5 210 l1 182 68 -1 c67 -1 67 -1 109 -48z m101 13 c-39 -39 -46 -39
-78 6 l-21 30 68 0 68 0 -37 -36z m97 -14 l39 -40 -41 -42 c-23 -23 -44 -40
-45 -37 -2 2 -18 21 -37 41 l-34 37 34 40 c19 21 36 40 39 40 3 1 24 -17 45
-39z m100 -101 l38 -41 -44 -43 -44 -44 -38 44 -38 44 37 41 c20 22 40 40 44
40 4 0 24 -18 45 -41z m-195 -4 l34 -35 -39 -40 c-42 -43 -48 -42 -87 12 l-20
30 33 34 c18 19 36 34 39 34 3 0 21 -16 40 -35z m370 -217 l0 -48 -50 0 c-53
0 -62 7 -133 96 l-20 26 44 44 43 44 58 -58 c53 -53 57 -60 58 -104z m-278
115 l37 -38 -35 -37 c-19 -21 -38 -38 -43 -38 -5 0 -23 18 -40 39 l-32 40 32
35 c17 20 34 36 38 36 4 0 23 -17 43 -37z m827 -86 l53 -23 -44 -35 -43 -34
-215 5 -215 5 65 18 c36 10 119 35 185 57 66 21 129 37 141 35 11 -3 44 -15
73 -28z m-714 -27 l49 -50 -81 0 c-45 0 -85 4 -88 10 -6 9 53 89 65 90 3 0 28
-22 55 -50z"/>
</g>
</svg>
