<?xml version="1.0" standalone="no"?>
<!DOCTYPE svg PUBLIC "-//W3C//DTD SVG 20010904//EN"
 "http://www.w3.org/TR/2001/REC-SVG-20010904/DTD/svg10.dtd">
<svg version="1.0" xmlns="http://www.w3.org/2000/svg"
 width="185.000000pt" height="146.000000pt" viewBox="0 0 185.000000 146.000000"
 preserveAspectRatio="xMidYMid meet">
<metadata>
Created by potrace 1.16, written by Peter Selinger 2001-2019
</metadata>
<g transform="translate(0.000000,146.000000) scale(0.100000,-0.100000)"
fill="#000000" stroke="none">
<path d="M1500 1150 c0 -5 -6 -10 -13 -10 -7 0 -36 -62 -66 -139 l-53 -139
-134 -33 c-73 -18 -135 -31 -138 -28 -3 3 -10 47 -16 99 -21 190 -17 177 -50
175 -87 -5 -427 -219 -406 -254 4 -6 5 -11 1 -11 -14 0 -117 57 -192 106 -44
30 -85 54 -91 54 -11 0 -16 -46 -33 -283 -6 -87 -9 -161 -6 -164 3 -3 27 2 54
11 79 26 192 39 278 32 95 -7 215 -38 231 -60 13 -18 69 -21 108 -6 22 8 26 6
31 -13 9 -44 8 -53 -18 -110 -15 -32 -27 -61 -27 -65 0 -15 46 -11 180 13 262
48 268 57 75 107 -44 12 -86 28 -92 37 -7 8 -13 34 -13 58 0 41 2 44 73 97 39
30 110 75 157 100 l84 45 65 -45 64 -46 -6 199 c-8 231 -14 283 -33 283 -8 0
-14 -4 -14 -10z m18 -262 c11 -104 13 -164 7 -160 -5 3 -28 21 -51 39 -41 33
-64 41 -64 24 0 -5 -42 -29 -92 -55 -51 -25 -117 -63 -146 -85 -29 -23 -57
-41 -62 -41 -6 0 -10 27 -10 59 0 33 -2 66 -6 74 -4 11 28 25 138 60 l144 46
46 93 c25 51 52 111 59 132 16 47 12 68 37 -186z m-475 40 c18 -143 17 -148
-34 -148 -24 0 -27 4 -32 46 -2 25 -9 50 -14 55 -10 10 -81 -26 -170 -85 -41
-27 -45 -28 -88 -16 -25 7 -48 17 -51 21 -11 19 129 127 271 208 49 28 92 51
95 51 4 0 14 -59 23 -132z m-517 -102 c169 -86 216 -100 331 -100 l103 -1 6
-35 c4 -19 12 -63 19 -97 12 -59 11 -62 -9 -67 -41 -11 -69 -6 -155 28 -150
60 -281 69 -435 30 -32 -8 -59 -14 -61 -12 -1 2 3 41 10 88 8 47 16 124 20
172 l7 87 37 -23 c20 -13 78 -44 127 -70z m420 -53 c-3 -3 -38 -8 -78 -10
l-73 -5 70 49 70 50 8 -39 c5 -22 6 -42 3 -45z m129 -103 c4 -44 6 -83 5 -87
-1 -5 -14 -16 -30 -26 l-28 -17 -11 82 c-7 46 -14 91 -17 100 -3 11 2 18 18
21 57 11 55 12 63 -73z m19 -152 c3 -13 6 -37 6 -55 0 -34 9 -39 110 -58 80
-15 74 -19 -75 -56 -82 -20 -151 -36 -153 -34 -1 1 9 23 24 48 20 36 25 58 23
98 -3 45 0 53 22 65 33 18 36 17 43 -8z"/>
</g>
</svg>
