<?xml version="1.0" standalone="no"?>
<!DOCTYPE svg PUBLIC "-//W3C//DTD SVG 20010904//EN"
 "http://www.w3.org/TR/2001/REC-SVG-20010904/DTD/svg10.dtd">
<svg version="1.0" xmlns="http://www.w3.org/2000/svg"
 width="227.000000pt" height="289.000000pt" viewBox="0 0 227.000000 289.000000"
 preserveAspectRatio="xMidYMid meet">
<metadata>
Created by potrace 1.16, written by Peter Selinger 2001-2019
</metadata>
<g transform="translate(0.000000,289.000000) scale(0.100000,-0.100000)"
fill="#000000" stroke="none">
<path d="M506 2498 c21 -144 22 -138 -35 -138 -95 0 -171 -12 -171 -27 0 -12
14 -14 78 -8 42 3 94 8 115 11 29 5 37 3 37 -10 0 -18 16 -22 22 -6 2 6 19 -3
38 -19 l35 -30 -40 -1 c-83 -1 -145 -12 -145 -27 0 -14 38 -13 163 2 28 4 37
2 37 -10 0 -17 17 -20 22 -4 2 7 15 2 33 -13 l29 -25 -92 -7 c-71 -6 -92 -11
-92 -22 0 -12 13 -14 78 -9 42 3 87 8 100 11 17 3 22 0 22 -16 0 -23 17 -27
22 -5 3 14 6 13 28 -2 25 -18 24 -18 -67 -23 -50 -3 -95 -9 -99 -13 -18 -18
17 -23 101 -16 64 5 92 4 97 -4 18 -28 7 -36 -49 -39 -47 -2 -58 -7 -61 -21
-3 -14 1 -18 15 -14 10 3 54 7 98 9 l80 3 3 -30 c2 -16 8 -34 13 -39 5 -6 9
-59 9 -118 0 -59 4 -108 9 -108 10 0 31 132 31 201 0 31 5 51 13 54 14 5 928
27 932 23 2 -2 6 -55 10 -120 l7 -116 -483 1 -484 2 -3 -28 c-3 -24 -1 -27 20
-23 13 3 147 7 298 11 480 9 690 17 690 26 0 5 -6 9 -13 9 -11 0 -12 15 -6 68
4 37 9 94 11 128 l4 61 -185 6 c-103 4 -319 7 -482 7 -163 0 -299 3 -303 8 -4
4 -22 7 -39 7 l-32 0 -12 84 c-14 97 -19 115 -33 106 -10 -6 -8 -36 6 -102 3
-18 0 -23 -15 -23 -28 0 -34 14 -46 109 -7 56 -15 86 -24 89 -12 4 -13 -7 -7
-62 5 -53 4 -66 -7 -66 -26 0 -36 24 -43 104 -5 52 -12 80 -21 83 -21 8 -22 3
-12 -61 6 -32 8 -63 7 -68 -2 -5 -17 3 -35 17 -29 25 -32 32 -38 111 -5 61
-11 84 -21 84 -16 0 -18 -41 -5 -107 8 -40 7 -42 -12 -32 -10 6 -22 20 -25 31
-2 10 -10 17 -17 14 -14 -5 -22 30 -32 149 -5 61 -9 75 -23 75 -16 0 -16 -7
-4 -92z m375 -446 c-24 -4 -41 11 -41 36 0 9 11 6 33 -10 31 -23 32 -23 8 -26z"/>
<path d="M870 1169 c0 -6 24 -38 54 -71 32 -35 52 -66 49 -74 -3 -8 0 -14 6
-14 6 0 11 -15 11 -32 l-1 -33 -18 22 c-10 12 -31 37 -45 54 -17 20 -31 28
-37 22 -5 -5 9 -29 39 -64 27 -29 47 -60 44 -68 -3 -8 0 -11 7 -7 7 5 11 -4
11 -26 l-1 -33 -18 22 c-10 12 -31 37 -45 54 -17 20 -31 28 -37 22 -5 -5 10
-30 41 -65 39 -43 47 -58 37 -66 -10 -8 -20 -2 -41 24 -20 25 -31 33 -39 25
-7 -7 4 -25 36 -60 44 -46 60 -81 38 -81 -5 0 -21 14 -35 31 -14 17 -31 27
-36 24 -7 -4 8 -29 36 -61 48 -57 52 -81 13 -91 -20 -6 -21 -11 -15 -66 3 -33
6 -104 6 -158 0 -55 4 -99 9 -99 10 0 31 132 31 200 0 27 4 51 9 54 10 7 930
31 935 25 2 -2 7 -56 11 -120 l7 -116 -363 3 c-200 3 -417 6 -482 7 -116 3
-118 3 -124 -20 -3 -13 -3 -26 0 -29 3 -4 196 -1 429 5 233 6 458 11 501 11
45 0 77 4 77 10 0 6 -6 10 -13 10 -11 0 -12 15 -6 67 4 38 9 95 11 129 l4 61
-125 7 c-70 3 -256 6 -416 7 -438 2 -460 7 -370 99 33 34 46 53 39 60 -7 7
-19 0 -39 -20 -62 -65 -62 -21 1 49 26 29 42 55 38 62 -4 8 -18 -2 -40 -27
-28 -34 -33 -37 -40 -21 -5 14 5 31 41 67 30 31 45 53 40 61 -6 8 -19 -1 -47
-32 l-38 -44 4 38 c2 29 14 49 46 82 26 26 39 48 35 55 -5 8 -20 -2 -46 -31
l-39 -44 3 36 c3 28 16 51 55 95 74 83 64 103 -11 23 l-63 -67 -53 64 c-52 62
-71 76 -71 53z m120 -391 c0 -18 -2 -20 -9 -8 -6 8 -7 18 -5 22 9 14 14 9 14
-14z m0 -80 c0 -16 -3 -19 -11 -11 -6 6 -8 16 -5 22 11 17 16 13 16 -11z m20
-74 c0 -2 -9 -4 -21 -4 -11 0 -18 4 -14 10 5 8 35 3 35 -6z"/>
</g>
</svg>
