<?xml version="1.0" standalone="no"?>
<!DOCTYPE svg PUBLIC "-//W3C//DTD SVG 20010904//EN"
 "http://www.w3.org/TR/2001/REC-SVG-20010904/DTD/svg10.dtd">
<svg version="1.0" xmlns="http://www.w3.org/2000/svg"
 width="143.000000pt" height="138.000000pt" viewBox="0 0 143.000000 138.000000"
 preserveAspectRatio="xMidYMid meet">
<metadata>
Created by potrace 1.16, written by Peter Selinger 2001-2019
</metadata>
<g transform="translate(0.000000,138.000000) scale(0.100000,-0.100000)"
fill="#000000" stroke="none">
<path d="M372 993 c-102 -219 -98 -332 24 -576 52 -103 65 -122 73 -109 3 5
107 66 231 135 276 153 423 240 427 253 6 19 -647 384 -688 384 -23 0 -31 -11
-67 -87z m159 -4 c69 -34 79 -42 68 -55 -10 -12 -8 -18 10 -30 12 -9 50 -39
84 -68 74 -63 237 -186 255 -193 21 -9 13 -19 -27 -38 l-39 -17 -218 186
c-119 102 -223 186 -230 186 -57 0 48 -98 316 -294 58 -43 106 -80 108 -84 1
-4 -28 -22 -64 -40 l-66 -33 -51 46 c-29 24 -108 94 -177 155 -69 60 -131 108
-138 105 -9 -3 -10 3 -6 23 15 62 73 192 86 192 4 0 45 -18 89 -41z m526 -321
c-29 -15 -58 -27 -66 -28 -7 0 -50 33 -95 73 -44 40 -112 99 -151 131 -38 33
-76 65 -83 71 -8 7 90 -40 217 -104 l230 -116 -52 -27z m-612 36 c50 -41 130
-105 178 -142 l88 -66 -46 -23 -45 -24 -125 101 c-68 55 -128 100 -133 100 -6
0 -13 7 -16 16 -9 22 -7 114 2 114 4 0 48 -34 97 -76z m84 -215 l73 -51 -77
-40 c-42 -22 -78 -38 -80 -36 -8 8 -73 185 -80 217 l-7 35 48 -37 c27 -21 82
-60 123 -88z"/>
</g>
</svg>
