<?xml version="1.0" standalone="no"?>
<!DOCTYPE svg PUBLIC "-//W3C//DTD SVG 20010904//EN"
 "http://www.w3.org/TR/2001/REC-SVG-20010904/DTD/svg10.dtd">
<svg version="1.0" xmlns="http://www.w3.org/2000/svg"
 width="111.000000pt" height="146.000000pt" viewBox="0 0 111.000000 146.000000"
 preserveAspectRatio="xMidYMid meet">
<metadata>
Created by potrace 1.16, written by Peter Selinger 2001-2019
</metadata>
<g transform="translate(0.000000,146.000000) scale(0.100000,-0.100000)"
fill="#000000" stroke="none">
<path d="M317 1145 c-18 -13 -18 -30 -7 -417 7 -222 15 -408 19 -415 10 -18
481 393 481 421 0 12 -148 148 -340 313 -140 120 -131 114 -153 98z m61 -80
l30 -25 6 -167 c4 -93 9 -195 11 -228 8 -104 8 -191 1 -203 -3 -6 -24 -25 -46
-42 l-40 -31 -2 360 c-2 199 0 361 4 361 3 0 20 -11 36 -25z m167 -137 c44
-35 117 -93 163 -127 46 -35 82 -66 80 -71 -2 -4 -64 -55 -138 -113 -74 -58
-150 -118 -167 -132 l-33 -26 0 101 0 102 49 -36 c27 -20 55 -36 62 -36 17 1
-81 90 -98 90 -8 0 -13 13 -13 35 0 40 4 39 69 -9 19 -14 39 -26 43 -26 20 0
3 19 -52 61 -51 38 -59 48 -60 77 0 36 -1 37 64 -10 21 -15 44 -28 49 -28 14
0 -39 54 -80 82 -18 13 -33 31 -33 41 0 23 3 22 52 -13 60 -44 61 -26 2 28
-29 26 -54 57 -57 70 -4 17 -2 21 6 14 7 -5 48 -38 92 -74z"/>
<path d="M550 841 c0 -13 112 -93 119 -85 3 3 -16 26 -44 50 -47 42 -75 55
-75 35z"/>
<path d="M540 758 c1 -12 100 -88 114 -88 19 0 -1 25 -47 60 -58 43 -67 47
-67 28z"/>
</g>
</svg>
