<?xml version="1.0" standalone="no"?>
<!DOCTYPE svg PUBLIC "-//W3C//DTD SVG 20010904//EN"
 "http://www.w3.org/TR/2001/REC-SVG-20010904/DTD/svg10.dtd">
<svg version="1.0" xmlns="http://www.w3.org/2000/svg"
 width="106.000000pt" height="150.000000pt" viewBox="0 0 106.000000 150.000000"
 preserveAspectRatio="xMidYMid meet">
<metadata>
Created by potrace 1.16, written by Peter Selinger 2001-2019
</metadata>
<g transform="translate(0.000000,150.000000) scale(0.100000,-0.100000)"
fill="#000000" stroke="none">
<path d="M312 1182 c-12 -29 -8 -834 5 -862 9 -21 11 -13 17 60 3 47 8 240 12
430 3 190 7 346 8 348 2 1 40 -5 86 -14 220 -41 287 -111 306 -318 7 -78 -10
-235 -29 -276 -15 -31 -143 -119 -268 -184 -107 -56 -104 -54 -97 -61 16 -17
326 130 376 178 l32 31 0 211 c0 158 -4 224 -15 262 -17 57 -49 108 -85 135
-30 21 -189 63 -278 72 -54 5 -64 3 -70 -12z"/>
<path d="M390 987 c0 -28 33 -61 80 -80 55 -23 140 -47 140 -39 0 4 -37 27
-81 52 -45 24 -92 55 -106 67 -30 29 -33 29 -33 0z"/>
<path d="M440 776 c0 -15 12 -34 30 -49 29 -25 187 -84 197 -74 3 3 -19 18
-48 32 -68 35 -159 95 -159 106 0 5 -4 9 -10 9 -5 0 -10 -11 -10 -24z"/>
<path d="M367 639 c-8 -29 50 -73 130 -99 37 -13 74 -25 81 -28 6 -2 12 0 12
4 0 5 -30 25 -67 44 -37 19 -86 49 -109 66 -39 30 -43 31 -47 13z"/>
</g>
</svg>
