<?xml version="1.0" standalone="no"?>
<!DOCTYPE svg PUBLIC "-//W3C//DTD SVG 20010904//EN"
 "http://www.w3.org/TR/2001/REC-SVG-20010904/DTD/svg10.dtd">
<svg version="1.0" xmlns="http://www.w3.org/2000/svg"
 width="131.000000pt" height="136.000000pt" viewBox="0 0 131.000000 136.000000"
 preserveAspectRatio="xMidYMid meet">
<metadata>
Created by potrace 1.16, written by Peter Selinger 2001-2019
</metadata>
<g transform="translate(0.000000,136.000000) scale(0.100000,-0.100000)"
fill="#000000" stroke="none">
<path d="M336 1045 c-3 -8 -11 -14 -18 -13 -10 2 -14 -56 -16 -277 -3 -288 3
-449 18 -440 5 3 11 1 15 -5 3 -5 13 -10 21 -10 31 0 654 357 654 375 0 14
-639 385 -663 385 -3 0 -7 -7 -11 -15z m78 -339 c3 -149 9 -282 12 -296 5 -22
-1 -28 -49 -52 l-54 -27 3 132 c2 73 7 225 10 339 l6 207 33 -16 32 -15 7
-272z m123 -30 l0 -232 -49 -27 -48 -27 0 219 c0 120 3 245 6 279 l7 60 42
-20 41 -20 1 -232z m97 178 l46 -26 0 -138 c0 -76 2 -144 5 -152 3 -8 -16 -25
-55 -47 -34 -18 -63 -31 -65 -29 -8 7 8 418 15 418 4 0 28 -12 54 -26z m353
-177 c4 -4 -261 -137 -273 -137 -6 0 -5 109 2 192 l7 76 129 -63 c71 -35 132
-66 135 -68z"/>
</g>
</svg>
