<?xml version="1.0" standalone="no"?>
<!DOCTYPE svg PUBLIC "-//W3C//DTD SVG 20010904//EN"
 "http://www.w3.org/TR/2001/REC-SVG-20010904/DTD/svg10.dtd">
<svg version="1.0" xmlns="http://www.w3.org/2000/svg"
 width="175.000000pt" height="206.000000pt" viewBox="0 0 175.000000 206.000000"
 preserveAspectRatio="xMidYMid meet">
<metadata>
Created by potrace 1.16, written by Peter Selinger 2001-2019
</metadata>
<g transform="translate(0.000000,206.000000) scale(0.100000,-0.100000)"
fill="#000000" stroke="none">
<path d="M320 1740 c0 -19 8 -20 188 -22 l187 -3 3 -64 3 -63 -188 3 c-178 4
-188 3 -191 -15 -4 -19 2 -19 187 -13 l191 7 0 -44 c0 -24 3 -64 6 -90 l7 -46
-197 0 c-189 0 -196 -1 -196 -20 0 -19 7 -20 243 -20 314 0 697 11 697 20 0 4
-90 11 -200 15 l-200 7 0 84 0 84 93 0 c139 0 307 12 307 22 0 4 -35 8 -78 8
-44 0 -132 3 -198 6 l-119 7 -3 57 -3 57 83 6 c46 4 136 7 201 7 64 0 117 4
117 8 0 12 -304 22 -652 22 -280 0 -288 -1 -288 -20z m510 -132 c0 -62 3 -137
6 -165 l7 -53 -57 0 -56 0 0 165 0 165 50 0 50 0 0 -112z"/>
<path d="M307 934 c-4 -4 -7 -16 -7 -26 0 -16 10 -18 123 -17 67 0 177 4 245
7 105 6 122 5 122 -8 0 -8 3 -32 6 -53 l7 -37 -252 6 -251 7 0 -26 c0 -25 2
-25 53 -22 28 3 141 7 250 9 l197 5 0 -49 0 -48 -97 4 c-54 2 -167 6 -250 8
l-153 4 0 -25 0 -26 221 7 c122 4 234 10 250 13 l29 6 0 -61 0 -60 -102 4
c-57 2 -169 6 -250 8 l-148 4 0 -24 0 -24 118 1 c64 0 176 4 247 8 72 4 131 7
131 7 1 -1 4 -29 6 -64 l4 -63 -254 7 -254 7 4 -23 c3 -23 4 -23 143 -22 77 1
191 5 253 8 l112 7 0 -47 c0 -29 4 -45 10 -41 6 4 10 119 10 314 l0 307 -237
2 c-131 2 -247 5 -258 8 -11 3 -24 2 -28 -2z"/>
<path d="M939 932 c-13 -2 -15 -29 -12 -175 5 -286 15 -457 24 -451 5 3 9 20
9 38 l0 33 143 2 c181 2 347 12 347 21 0 8 -212 20 -372 20 l-118 0 0 48 0 49
216 7 c120 4 231 10 248 14 l31 6 -40 7 c-22 5 -112 8 -201 8 -89 1 -182 4
-208 7 -45 7 -46 7 -46 44 l0 37 220 7 c120 4 232 11 247 15 25 7 23 8 -22 14
-27 4 -125 7 -218 8 -203 1 -221 5 -222 45 l0 29 238 7 c219 5 259 9 246 23
-3 2 -114 8 -247 11 l-242 7 0 37 0 37 226 7 c245 8 321 19 194 30 -81 6 -417
13 -441 8z"/>
</g>
</svg>
