<?xml version="1.0" standalone="no"?>
<!DOCTYPE svg PUBLIC "-//W3C//DTD SVG 20010904//EN"
 "http://www.w3.org/TR/2001/REC-SVG-20010904/DTD/svg10.dtd">
<svg version="1.0" xmlns="http://www.w3.org/2000/svg"
 width="144.000000pt" height="123.000000pt" viewBox="0 0 144.000000 123.000000"
 preserveAspectRatio="xMidYMid meet">
<metadata>
Created by potrace 1.16, written by Peter Selinger 2001-2019
</metadata>
<g transform="translate(0.000000,123.000000) scale(0.100000,-0.100000)"
fill="#000000" stroke="none">
<path d="M354 894 c-16 -37 -17 -38 -25 -16 -9 24 -29 30 -29 9 0 -7 15 -44
33 -82 34 -71 79 -120 150 -164 45 -28 43 -33 -43 -97 -55 -42 -71 -61 -104
-127 -25 -50 -36 -83 -31 -95 6 -14 9 -12 21 13 l13 30 11 -32 c18 -51 31 -39
15 14 -9 31 -11 51 -5 57 7 7 10 6 10 -1 0 -7 5 -24 10 -39 17 -44 23 -19 9
35 -10 40 -10 54 -1 63 9 9 12 8 12 -8 1 -10 8 -30 16 -44 15 -24 15 -24 8 15
-13 73 -11 77 41 117 28 21 52 38 55 37 3 0 32 -39 65 -86 l61 -86 144 2 c80
0 191 4 248 7 l102 7 0 187 0 187 -82 6 c-115 9 -400 8 -415 -1 -7 -4 -37 -45
-66 -90 l-54 -82 -51 37 c-61 45 -66 55 -52 99 7 19 10 42 8 51 -3 12 -9 3
-18 -24 -23 -75 -41 -47 -19 30 15 54 5 71 -11 19 -7 -23 -17 -39 -22 -34 -4
4 -1 32 8 61 19 64 11 80 -12 25z m766 -189 l0 -75 -165 0 -164 0 -44 68 -43
67 110 5 c61 3 155 6 209 8 l97 3 0 -76z m-411 0 c28 -35 51 -67 51 -71 0 -3
-45 -4 -100 -2 -66 2 -99 7 -96 14 4 12 87 124 92 124 1 0 25 -29 53 -65z
m414 -177 c4 -45 5 -83 3 -85 -2 -2 -98 -1 -213 3 l-210 7 49 71 49 71 87 6
c48 3 119 6 158 7 l71 2 6 -82z m-363 67 c0 -10 -83 -140 -91 -143 -5 -2 -9
-11 -9 -20 0 -9 -16 10 -36 43 -20 33 -45 75 -56 93 l-20 32 106 0 c58 0 106
-2 106 -5z"/>
</g>
</svg>
