<?xml version="1.0" standalone="no"?>
<!DOCTYPE svg PUBLIC "-//W3C//DTD SVG 20010904//EN"
 "http://www.w3.org/TR/2001/REC-SVG-20010904/DTD/svg10.dtd">
<svg version="1.0" xmlns="http://www.w3.org/2000/svg"
 width="161.000000pt" height="146.000000pt" viewBox="0 0 161.000000 146.000000"
 preserveAspectRatio="xMidYMid meet">
<metadata>
Created by potrace 1.16, written by Peter Selinger 2001-2019
</metadata>
<g transform="translate(0.000000,146.000000) scale(0.100000,-0.100000)"
fill="#000000" stroke="none">
<path d="M372 1103 l-19 -58 -13 38 c-14 37 -24 45 -35 27 -9 -15 53 -154 91
-204 26 -34 118 -110 170 -140 1 -1 4 -15 7 -32 6 -30 2 -34 -64 -79 -38 -26
-86 -67 -105 -90 -38 -47 -109 -200 -99 -215 11 -18 21 -10 35 28 l13 37 19
-57 c11 -32 24 -58 30 -58 6 0 7 7 4 15 -24 63 -37 129 -29 147 8 18 12 12 28
-36 11 -31 23 -56 27 -56 11 0 11 -1 -12 74 -17 54 -19 70 -9 88 14 25 9 32
44 -56 24 -61 29 -35 7 38 -19 62 -19 66 -2 81 16 14 18 12 35 -32 33 -88 46
-84 19 7 -13 46 -14 55 -1 67 12 12 17 6 37 -49 14 -37 25 -56 28 -45 4 19 22
24 22 5 0 -17 690 -4 701 14 5 7 9 88 9 180 l0 166 -62 6 c-35 3 -201 7 -371
9 l-307 3 -22 -58 c-18 -51 -23 -57 -35 -45 -12 12 -12 22 2 71 23 80 13 93
-15 18 -21 -58 -24 -61 -40 -47 -17 15 -17 19 1 78 21 70 22 77 11 77 -5 0
-16 -25 -26 -55 -9 -30 -19 -55 -21 -55 -2 0 -9 8 -14 19 -8 13 -5 38 9 87 23
80 22 74 12 74 -4 0 -16 -25 -27 -56 -16 -48 -20 -54 -28 -36 -8 18 5 84 29
147 3 8 2 15 -4 15 -6 0 -19 -26 -30 -57z m911 -310 c4 -58 7 -132 7 -165 l0
-58 -78 0 c-44 0 -147 3 -231 7 l-152 6 4 31 3 31 212 5 c116 3 213 8 217 11
8 9 -159 19 -302 19 l-123 0 0 39 0 38 68 6 c37 4 133 7 215 7 91 0 147 4 147
10 0 6 -31 10 -72 10 -40 0 -137 3 -215 7 l-143 6 0 43 0 44 173 3 c94 1 193
4 218 5 l46 2 6 -107z m-653 52 c0 -33 -4 -45 -15 -45 -11 0 -15 11 -15 39 0
33 5 43 28 50 1 1 2 -19 2 -44z m50 0 c0 -25 -4 -45 -10 -45 -11 0 -14 73 -3
83 11 12 13 8 13 -38z m70 0 c0 -38 -3 -45 -20 -45 -17 0 -20 7 -20 45 0 38 3
45 20 45 17 0 20 -7 20 -45z m60 0 c0 -33 -4 -45 -15 -45 -11 0 -15 12 -15 45
0 33 4 45 15 45 11 0 15 -12 15 -45z m-240 -27 c0 -28 -3 -39 -10 -32 -9 9 -3
74 6 74 2 0 4 -19 4 -42z m60 -98 c0 -29 -4 -40 -15 -40 -11 0 -15 11 -15 40
0 29 4 40 15 40 11 0 15 -11 15 -40z m54 18 c10 -38 7 -58 -9 -58 -11 0 -15
11 -15 40 0 43 14 54 24 18z m66 -18 c0 -33 -3 -40 -20 -40 -17 0 -20 7 -20
40 0 33 3 40 20 40 17 0 20 -7 20 -40z m60 0 c0 -29 -4 -40 -15 -40 -11 0 -15
11 -15 40 0 29 4 40 15 40 11 0 15 -11 15 -40z m-231 -97 l0 -58 -15 45 c-14
46 -12 70 6 70 6 0 10 -24 9 -57z m59 -11 c3 -27 0 -32 -17 -32 -17 0 -21 6
-21 36 0 28 3 35 18 32 11 -2 18 -14 20 -36z m52 3 c0 -28 -4 -35 -20 -35 -15
0 -20 7 -20 28 0 32 7 42 27 42 8 0 13 -12 13 -35z m68 -2 c3 -30 1 -33 -22
-33 -23 0 -26 4 -26 36 0 31 3 35 23 32 17 -2 23 -11 25 -35z m60 -1 c3 -29 1
-32 -22 -32 -22 0 -26 5 -26 28 0 33 8 44 30 40 9 -2 16 -16 18 -36z"/>
</g>
</svg>
