<?xml version="1.0" standalone="no"?>
<!DOCTYPE svg PUBLIC "-//W3C//DTD SVG 20010904//EN"
 "http://www.w3.org/TR/2001/REC-SVG-20010904/DTD/svg10.dtd">
<svg version="1.0" xmlns="http://www.w3.org/2000/svg"
 width="227.000000pt" height="125.000000pt" viewBox="0 0 227.000000 125.000000"
 preserveAspectRatio="xMidYMid meet">
<metadata>
Created by potrace 1.16, written by Peter Selinger 2001-2019
</metadata>
<g transform="translate(0.000000,125.000000) scale(0.100000,-0.100000)"
fill="#000000" stroke="none">
<path d="M833 935 c-6 -18 3 -625 11 -632 2 -3 130 63 284 146 153 83 283 151
288 151 13 0 505 -255 522 -270 7 -7 16 -10 19 -7 3 3 8 141 11 306 l5 301
-22 0 c-11 0 -21 -4 -21 -9 0 -9 -477 -261 -508 -269 -6 -2 -138 64 -291 147
-153 83 -282 151 -285 151 -4 0 -9 -7 -13 -15z m93 -71 l44 -26 0 -101 c0 -56
3 -151 6 -212 l6 -110 -63 -34 -62 -34 6 138 c4 76 7 198 7 272 0 73 3 133 6
133 3 0 25 -12 50 -26z m1004 -86 c0 -62 3 -184 7 -271 l6 -159 -52 29 -53 28
6 80 c3 44 6 144 6 222 l0 141 33 20 c17 11 35 21 40 21 4 1 7 -50 7 -111z
m-835 -11 c2 -7 6 -73 9 -147 l6 -135 -51 -28 c-28 -16 -52 -27 -54 -25 -2 1
-1 89 2 195 l6 192 39 -20 c21 -11 41 -25 43 -32z m715 -34 c0 -49 3 -139 7
-202 l6 -114 -62 34 -63 34 6 59 c3 32 6 96 6 142 l0 83 43 25 c23 14 45 26
50 26 4 0 7 -39 7 -87z m-630 -3 l40 -20 0 -85 0 -85 -40 -20 c-21 -11 -42
-20 -45 -20 -3 0 -5 56 -5 125 0 69 2 125 5 125 3 0 24 -9 45 -20z m497 -110
l6 -123 -54 29 -54 29 0 69 0 70 45 26 c25 15 46 26 48 24 2 -1 6 -57 9 -124z
m-307 5 c0 -6 -121 -67 -125 -63 -1 2 0 31 3 65 l4 62 59 -30 c33 -16 59 -31
59 -34z m170 0 c0 -25 -2 -45 -6 -45 -3 0 -22 10 -44 22 l-38 22 36 23 c21 12
40 23 45 23 4 0 7 -20 7 -45z"/>
<path d="M300 849 l0 -22 213 8 c116 4 218 10 226 14 21 12 -96 21 -275 21
-161 0 -164 0 -164 -21z"/>
<path d="M300 664 c0 -22 1 -22 153 -18 356 10 381 30 45 36 -198 4 -198 4
-198 -18z"/>
<path d="M300 469 l0 -22 218 7 c119 4 221 11 225 15 12 12 -110 21 -285 21
-155 0 -158 0 -158 -21z"/>
</g>
</svg>
