<?xml version="1.0" standalone="no"?>
<!DOCTYPE svg PUBLIC "-//W3C//DTD SVG 20010904//EN"
 "http://www.w3.org/TR/2001/REC-SVG-20010904/DTD/svg10.dtd">
<svg version="1.0" xmlns="http://www.w3.org/2000/svg"
 width="210.000000pt" height="106.000000pt" viewBox="0 0 210.000000 106.000000"
 preserveAspectRatio="xMidYMid meet">
<metadata>
Created by potrace 1.16, written by Peter Selinger 2001-2019
</metadata>
<g transform="translate(0.000000,106.000000) scale(0.100000,-0.100000)"
fill="#000000" stroke="none">
<path d="M1068 710 c-54 -27 -100 -50 -103 -50 -3 0 -5 21 -5 46 0 43 -2 46
-22 40 -13 -3 -161 -6 -330 -6 -243 0 -308 -3 -308 -13 0 -10 65 -12 315 -9
l315 3 0 -198 -1 -198 -30 35 c-47 55 -69 105 -69 155 0 33 4 45 15 45 8 0 15
5 15 10 0 6 -6 10 -14 10 -11 0 -13 9 -9 34 l5 33 -260 8 c-143 4 -265 4 -271
0 -34 -21 8 -25 244 -25 l255 0 0 -25 c0 -22 -4 -25 -40 -25 -31 0 -38 3 -34
15 5 13 -22 15 -210 15 -134 0 -216 -4 -216 -10 0 -6 80 -11 205 -12 l204 -3
-35 -25 c-25 -17 -57 -26 -105 -31 -48 -5 -87 -17 -126 -39 -75 -40 -148 -103
-139 -119 5 -8 19 -1 46 23 82 74 167 114 250 119 28 2 59 12 77 25 20 14 46
22 72 22 l41 0 0 -40 c0 -22 7 -57 15 -78 17 -41 102 -132 122 -132 10 0 13
27 13 111 0 61 3 109 8 107 4 -2 53 -27 110 -56 l102 -52 0 -55 c0 -29 5 -57
10 -60 6 -4 10 37 10 114 l0 121 209 0 c115 0 223 3 240 6 24 5 31 3 31 -10 0
-9 5 -16 11 -16 19 0 119 64 116 75 -2 5 -27 24 -57 42 -50 31 -77 34 -67 9 3
-8 -51 -10 -207 -8 -300 4 -269 -3 -270 62 -1 40 -5 55 -16 57 -8 2 -59 -19
-112 -47z m102 -120 l0 -149 -107 62 c-105 61 -123 81 -100 111 9 11 191 123
205 126 1 0 2 -67 2 -150z m580 15 l25 -13 -30 -13 c-22 -9 -99 -12 -290 -10
-143 2 -261 4 -263 6 -1 1 0 9 4 18 5 15 34 17 222 20 120 1 237 3 262 4 25 1
56 -4 70 -12z"/>
<path d="M300 688 c0 -10 58 -12 265 -10 162 2 265 6 265 12 0 6 -101 10 -265
10 -205 0 -265 -3 -265 -12z"/>
<path d="M300 550 c0 -6 53 -10 140 -10 87 0 140 4 140 10 0 6 -53 10 -140 10
-87 0 -140 -4 -140 -10z"/>
</g>
</svg>
