<?xml version="1.0" standalone="no"?>
<!DOCTYPE svg PUBLIC "-//W3C//DTD SVG 20010904//EN"
 "http://www.w3.org/TR/2001/REC-SVG-20010904/DTD/svg10.dtd">
<svg version="1.0" xmlns="http://www.w3.org/2000/svg"
 width="165.000000pt" height="117.000000pt" viewBox="0 0 165.000000 117.000000"
 preserveAspectRatio="xMidYMid meet">
<metadata>
Created by potrace 1.16, written by Peter Selinger 2001-2019
</metadata>
<g transform="translate(0.000000,117.000000) scale(0.100000,-0.100000)"
fill="#000000" stroke="none">
<path d="M300 681 c0 -104 3 -196 6 -205 5 -14 28 -16 154 -16 200 0 361 11
365 24 2 6 7 46 10 89 7 77 7 77 36 77 l29 0 0 -175 c0 -110 4 -175 10 -175 6
0 10 65 10 175 l0 175 25 0 25 0 0 -175 c0 -110 4 -175 10 -175 6 0 10 65 10
175 l0 175 24 0 c21 0 24 -5 30 -61 3 -34 6 -113 6 -175 0 -69 4 -114 10 -114
6 0 10 65 10 175 0 165 1 175 19 175 10 0 22 -7 25 -16 3 -9 6 -87 6 -175 0
-99 4 -159 10 -159 6 0 10 65 10 174 l0 173 53 7 c28 3 76 6 105 6 33 0 51 4
47 10 -4 6 -100 10 -256 10 l-249 0 0 89 0 88 -92 7 c-50 3 -171 6 -270 6
l-178 0 0 -189z m510 137 l0 -23 -180 3 c-147 2 -180 5 -180 17 0 14 24 16
278 23 79 2 82 1 82 -20z m-390 -3 c0 -11 -12 -15 -50 -15 -38 0 -50 4 -50 15
0 11 12 15 50 15 38 0 50 -4 50 -15z m390 -67 l0 -33 -180 3 -180 3 0 24 0 24
148 4 c81 1 162 4 180 5 30 2 32 0 32 -30z m-387 3 c7 -27 0 -31 -55 -31 -45
0 -48 2 -48 25 0 23 3 25 49 25 40 0 50 -4 54 -19z m387 -81 c0 -30 -1 -30
-52 -30 -29 0 -110 3 -180 7 -115 5 -128 8 -128 24 0 17 13 19 143 22 78 1
159 4 180 5 35 2 37 0 37 -28z m-380 0 c0 -18 -7 -20 -55 -20 -48 0 -55 2 -55
20 0 18 7 20 55 20 48 0 55 -2 55 -20z m382 -80 c3 -17 3 -31 2 -33 -1 -1 -84
-1 -183 1 l-181 3 0 24 c0 27 -1 26 271 33 l87 2 4 -30z m-382 -5 c0 -24 -3
-25 -55 -25 -52 0 -55 1 -55 25 0 24 3 25 55 25 52 0 55 -1 55 -25z m390 -72
l0 -26 -112 6 c-62 4 -146 7 -185 7 -58 0 -73 3 -73 15 0 12 25 15 138 18 75
1 158 4 185 5 45 2 47 1 47 -25z m-390 2 c0 -12 -13 -15 -55 -15 -42 0 -55 3
-55 15 0 12 13 15 55 15 42 0 55 -3 55 -15z"/>
</g>
</svg>
