<?xml version="1.0" standalone="no"?>
<!DOCTYPE svg PUBLIC "-//W3C//DTD SVG 20010904//EN"
 "http://www.w3.org/TR/2001/REC-SVG-20010904/DTD/svg10.dtd">
<svg version="1.0" xmlns="http://www.w3.org/2000/svg"
 width="152.000000pt" height="260.000000pt" viewBox="0 0 152.000000 260.000000"
 preserveAspectRatio="xMidYMid meet">
<metadata>
Created by potrace 1.16, written by Peter Selinger 2001-2019
</metadata>
<g transform="translate(0.000000,260.000000) scale(0.100000,-0.100000)"
fill="#000000" stroke="none">
<path d="M1045 2290 c-3 -5 1 -23 10 -39 8 -17 15 -32 15 -34 0 -2 -169 -7
-376 -10 -206 -4 -380 -9 -385 -12 -5 -4 -9 -59 -9 -124 l0 -118 68 -6 c37 -4
210 -10 385 -13 174 -4 317 -11 317 -16 0 -5 -11 -31 -25 -58 -14 -28 -21 -50
-16 -50 8 0 85 114 127 188 11 18 24 30 32 27 23 -9 8 35 -53 158 -55 109 -75
132 -90 107z m70 -145 c19 -31 35 -60 35 -65 0 -6 -14 -37 -30 -70 -36 -71 -7
-66 -301 -46 -112 8 -271 18 -353 22 l-148 7 7 76 c4 42 9 78 11 80 2 2 90 8
196 13 171 8 539 33 545 37 1 0 18 -24 38 -54z"/>
<path d="M840 1376 c0 -2 66 -70 147 -150 80 -80 144 -148 142 -149 -2 -2
-178 1 -391 6 -212 5 -393 7 -402 4 -14 -5 -16 -29 -16 -163 l0 -157 358 7
c196 3 380 10 407 13 l50 7 -50 7 c-27 4 -156 8 -285 8 -129 1 -285 4 -345 7
l-111 7 3 66 c2 36 6 84 9 107 l5 41 337 8 c502 13 442 17 469 -30 12 -22 23
-56 23 -75 0 -66 -103 -265 -267 -519 -41 -62 -72 -116 -68 -119 3 -3 7 -3 8
-1 27 33 162 230 217 317 150 237 171 322 109 432 -40 70 -298 330 -328 330
-12 0 -21 -2 -21 -4z"/>
</g>
</svg>
