<?xml version="1.0" standalone="no"?>
<!DOCTYPE svg PUBLIC "-//W3C//DTD SVG 20010904//EN"
 "http://www.w3.org/TR/2001/REC-SVG-20010904/DTD/svg10.dtd">
<svg version="1.0" xmlns="http://www.w3.org/2000/svg"
 width="147.000000pt" height="143.000000pt" viewBox="0 0 147.000000 143.000000"
 preserveAspectRatio="xMidYMid meet">
<metadata>
Created by potrace 1.16, written by Peter Selinger 2001-2019
</metadata>
<g transform="translate(0.000000,143.000000) scale(0.100000,-0.100000)"
fill="#000000" stroke="none">
<path d="M924 1094 c23 -140 26 -186 16 -268 -17 -140 -19 -142 -178 -206 -75
-30 -143 -56 -149 -58 -10 -3 -13 36 -13 167 0 94 1 171 3 171 2 0 70 -27 152
-60 82 -33 151 -58 153 -55 7 7 12 4 -130 70 -71 33 -128 62 -128 66 0 3 57
32 128 64 138 63 138 63 130 70 -2 3 -71 -22 -153 -55 -82 -33 -150 -60 -152
-60 -2 0 -3 9 -3 20 0 22 -27 28 -32 6 -2 -10 -34 0 -123 40 -129 58 -148 63
-143 38 2 -10 51 -36 125 -67 68 -29 123 -54 123 -57 0 -3 -53 -27 -118 -54
-131 -55 -141 -61 -125 -77 8 -8 45 4 134 44 l124 55 3 -156 c1 -85 1 -156 -1
-158 -2 -2 -59 21 -127 51 -85 39 -126 53 -134 45 -15 -15 -1 -24 119 -75 61
-26 114 -50 118 -54 4 -4 -49 -32 -118 -61 -113 -48 -137 -65 -119 -82 3 -3
64 20 135 52 94 43 129 55 130 44 1 -8 3 -18 4 -24 1 -5 3 -36 4 -67 1 -78 11
-61 19 35 l7 81 145 -60 c80 -32 149 -59 155 -59 22 0 -17 22 -139 79 l-129
60 34 14 c19 8 78 35 132 61 l97 45 0 -41 c0 -22 14 -97 30 -167 34 -143 38
-156 46 -149 2 3 -7 77 -22 164 l-27 159 23 100 c41 177 33 394 -14 403 -17 4
-18 0 -12 -34z"/>
<path d="M1110 1120 c0 -5 7 -51 16 -102 13 -77 14 -108 4 -190 -6 -54 -18
-110 -26 -125 -21 -42 -17 -109 17 -250 35 -148 38 -158 45 -151 2 3 -7 77
-22 166 l-27 160 23 94 c29 122 36 221 20 324 -10 71 -15 84 -31 84 -10 0 -19
-4 -19 -10z"/>
</g>
</svg>
