<?xml version="1.0" standalone="no"?>
<!DOCTYPE svg PUBLIC "-//W3C//DTD SVG 20010904//EN"
 "http://www.w3.org/TR/2001/REC-SVG-20010904/DTD/svg10.dtd">
<svg version="1.0" xmlns="http://www.w3.org/2000/svg"
 width="190.000000pt" height="127.000000pt" viewBox="0 0 190.000000 127.000000"
 preserveAspectRatio="xMidYMid meet">
<metadata>
Created by potrace 1.16, written by Peter Selinger 2001-2019
</metadata>
<g transform="translate(0.000000,127.000000) scale(0.100000,-0.100000)"
fill="#000000" stroke="none">
<path d="M459 918 c-137 -156 -161 -188 -150 -201 8 -10 7 -17 -1 -25 -12 -12
8 -39 129 -164 l75 -78 187 0 c102 1 339 5 526 9 187 5 342 7 344 5 2 -2 6
-40 9 -84 2 -44 8 -80 13 -80 13 0 12 647 -1 655 -5 3 -251 8 -547 10 l-538 5
-46 -52z m926 10 c2 -7 6 -109 8 -225 l5 -213 -61 0 -62 0 3 217 c3 151 7 220
15 225 20 13 87 9 92 -4z m178 -100 c4 -62 7 -166 7 -232 l0 -118 -72 7 c-40
4 -74 8 -74 9 -1 0 1 101 4 224 l5 222 62 0 62 0 6 -112z m-890 -25 c4 -71 7
-167 7 -215 l0 -88 -73 0 -74 0 4 203 c3 111 6 208 8 215 3 8 25 12 63 12 l59
0 6 -127z m130 15 c4 -62 7 -162 7 -222 l0 -109 -51 6 c-29 4 -53 8 -54 9 -1
2 0 99 3 216 l5 212 42 0 42 0 6 -112z m157 14 c0 -55 3 -154 7 -220 l6 -122
-73 0 -73 0 6 68 c4 37 7 136 7 220 l0 152 60 0 60 0 0 -98z m145 76 c2 -13 6
-112 7 -221 l3 -197 -62 0 -63 0 0 83 c0 46 3 145 7 220 l6 137 48 0 c42 0 49
-3 54 -22z m145 -152 c0 -95 3 -194 6 -220 l7 -47 -64 3 c-63 3 -64 4 -63 31
0 15 1 113 2 217 l2 190 55 0 55 0 0 -174z m-746 -265 c-3 -3 -10 2 -16 13 -5
10 -39 56 -73 102 -35 46 -66 88 -69 92 -3 5 28 53 69 108 41 54 76 103 77
109 0 5 5 -87 9 -205 5 -117 6 -216 3 -219z"/>
</g>
</svg>
