<?xml version="1.0" standalone="no"?>
<!DOCTYPE svg PUBLIC "-//W3C//DTD SVG 20010904//EN"
 "http://www.w3.org/TR/2001/REC-SVG-20010904/DTD/svg10.dtd">
<svg version="1.0" xmlns="http://www.w3.org/2000/svg"
 width="192.000000pt" height="259.000000pt" viewBox="0 0 192.000000 259.000000"
 preserveAspectRatio="xMidYMid meet">
<metadata>
Created by potrace 1.16, written by Peter Selinger 2001-2019
</metadata>
<g transform="translate(0.000000,259.000000) scale(0.100000,-0.100000)"
fill="#000000" stroke="none">
<path d="M785 2213 c-76 -89 -116 -152 -147 -236 -15 -42 -25 -56 -36 -52 -8
3 -75 30 -149 61 -85 36 -138 53 -144 47 -5 -5 -8 -76 -7 -165 l3 -156 154 64
c84 35 155 64 156 64 2 0 11 -26 20 -57 23 -79 95 -184 166 -243 33 -27 67
-54 77 -59 13 -7 62 17 207 101 384 221 505 292 505 298 0 11 -677 398 -708
405 -27 6 -35 0 -97 -72z m365 -113 c129 -71 274 -148 323 -171 48 -24 87 -46
87 -49 0 -3 -55 -33 -123 -67 -67 -34 -221 -117 -342 -183 -161 -89 -224 -119
-235 -112 -34 21 -134 151 -167 220 -30 60 -37 84 -37 135 0 95 54 199 165
321 45 50 53 55 72 44 12 -6 128 -68 257 -138z m-582 -186 c89 -26 74 -42 -98
-101 l-150 -51 0 36 c0 20 3 73 6 118 l7 81 91 -34 c50 -19 115 -41 144 -49z"/>
<path d="M990 2110 c0 -12 69 -42 84 -37 13 4 -53 47 -71 47 -7 0 -13 -4 -13
-10z"/>
<path d="M770 2039 c0 -12 67 -42 83 -36 5 1 -6 13 -27 25 -41 24 -56 27 -56
11z"/>
<path d="M970 1987 c0 -16 77 -50 85 -38 4 7 -64 51 -79 51 -3 0 -6 -6 -6 -13z"/>
<path d="M1127 1936 c-4 -9 4 -18 21 -24 15 -6 35 -13 45 -17 33 -14 17 11
-22 33 -32 18 -40 19 -44 8z"/>
<path d="M706 1933 c-13 -13 -5 -21 34 -37 46 -18 53 -19 46 -7 -9 15 -74 50
-80 44z"/>
<path d="M1255 1930 c-6 -10 62 -43 79 -37 6 2 -5 14 -24 25 -39 25 -46 26
-55 12z"/>
<path d="M875 1891 c-6 -11 -3 -13 48 -34 46 -20 49 -6 3 22 -38 24 -42 25
-51 12z"/>
<path d="M1115 1829 c-4 -6 -5 -11 -4 -12 11 -7 80 -37 84 -37 3 0 5 4 5 10 0
16 -78 52 -85 39z"/>
<path d="M810 1778 c0 -15 78 -50 84 -39 5 7 -63 51 -78 51 -3 0 -6 -6 -6 -12z"/>
<path d="M990 1699 c0 -12 67 -42 83 -36 12 4 -54 47 -72 47 -6 0 -11 -5 -11
-11z"/>
<path d="M366 1913 c-13 -13 -5 -21 34 -37 46 -18 53 -19 46 -7 -9 15 -74 50
-80 44z"/>
<path d="M485 1911 c-6 -11 -3 -13 48 -34 46 -20 49 -4 5 23 -37 22 -44 24
-53 11z"/>
<path d="M853 1077 c-62 -65 -111 -129 -143 -188 l-29 -54 -182 4 -181 3 6
-38 c3 -22 5 -90 6 -152 l0 -113 179 6 179 6 30 -49 c36 -59 113 -139 169
-176 l41 -27 263 152 c341 196 429 249 429 258 0 3 -44 32 -97 63 -54 31 -207
119 -339 196 -133 76 -253 142 -266 145 -20 5 -32 -2 -65 -36z m304 -136 c131
-71 285 -152 342 -181 l104 -52 -179 -93 c-98 -51 -255 -136 -349 -189 l-170
-96 -54 58 c-29 31 -69 81 -88 110 l-34 53 7 140 c5 105 4 139 -5 139 -21 0
38 95 106 169 35 39 69 71 74 71 5 0 116 -58 246 -129z m-487 -132 c0 -5 -5
-30 -11 -55 -11 -43 -4 -114 16 -166 6 -15 2 -18 -24 -18 l-32 0 7 118 c6 107
13 131 37 132 4 0 7 -5 7 -11z m-260 -120 l0 -109 -31 0 -32 0 7 53 c3 28 6
78 6 109 0 46 3 57 18 61 9 2 20 2 25 0 4 -2 7 -53 7 -114z m84 99 c3 -13 6
-65 6 -115 l0 -93 -33 0 -34 0 4 103 c3 56 6 108 8 115 7 21 42 14 49 -10z
m100 -30 c3 -29 6 -81 6 -115 l0 -63 -41 0 -42 0 7 46 c3 26 6 78 6 115 l0 69
29 0 c27 0 29 -3 35 -52z m115 -113 c0 -31 -2 -36 -9 -20 -5 11 -8 49 -8 85 0
64 1 64 9 20 4 -25 8 -63 8 -85z"/>
<path d="M830 686 c0 -80 4 -146 9 -146 10 0 19 84 23 205 2 69 0 80 -15 83
-15 3 -17 -9 -17 -142z"/>
<path d="M950 792 c0 -93 14 -253 21 -240 4 7 11 73 15 146 7 130 7 132 -15
132 -18 0 -21 -6 -21 -38z"/>
<path d="M1104 753 c3 -42 6 -108 6 -147 0 -121 18 -60 26 87 l7 137 -23 0
c-22 0 -23 -2 -16 -77z"/>
<path d="M1230 686 c0 -225 23 -176 32 69 3 59 0 70 -14 73 -17 3 -18 -9 -18
-142z"/>
</g>
</svg>
