<?xml version="1.0" standalone="no"?>
<!DOCTYPE svg PUBLIC "-//W3C//DTD SVG 20010904//EN"
 "http://www.w3.org/TR/2001/REC-SVG-20010904/DTD/svg10.dtd">
<svg version="1.0" xmlns="http://www.w3.org/2000/svg"
 width="190.000000pt" height="142.000000pt" viewBox="0 0 190.000000 142.000000"
 preserveAspectRatio="xMidYMid meet">
<metadata>
Created by potrace 1.16, written by Peter Selinger 2001-2019
</metadata>
<g transform="translate(0.000000,142.000000) scale(0.100000,-0.100000)"
fill="#000000" stroke="none">
<path d="M808 1058 c-30 -35 -70 -85 -90 -112 l-35 -48 -191 1 -192 2 0 -196
c0 -131 4 -200 11 -208 9 -9 61 -11 198 -9 l186 4 48 -56 c27 -31 73 -75 103
-97 l53 -41 153 87 c353 202 548 317 548 324 0 11 -675 398 -708 406 -26 5
-34 0 -84 -57z m392 -151 c107 -58 234 -124 283 -148 48 -24 87 -47 87 -51 0
-4 -75 -45 -166 -91 l-166 -84 6 61 c3 33 7 95 8 136 1 62 -1 76 -15 78 -15 3
-17 -14 -19 -143 l-3 -147 -160 -89 c-88 -49 -165 -89 -171 -89 -13 0 -118
110 -134 140 -10 19 -7 20 57 22 62 1 64 2 23 7 -27 4 -45 11 -44 19 1 6 2 41
3 76 1 69 8 77 59 68 20 -4 22 -9 22 -78 0 -41 4 -74 9 -74 9 0 20 98 23 215
1 58 -1 71 -15 73 -14 3 -17 -6 -17 -57 l0 -61 -35 0 -34 0 -3 57 c-2 47 -7
58 -21 61 -16 3 -18 -3 -17 -45 3 -78 5 -75 -47 -69 -27 2 -50 5 -52 5 -8 2
10 82 28 124 l19 45 74 10 73 9 -62 2 c-35 0 -63 4 -63 7 0 10 60 86 109 136
l45 48 60 -34 c34 -18 149 -81 256 -139z m-750 -122 c0 -84 0 -85 -25 -85 -28
0 -29 6 -19 109 6 50 10 61 25 61 17 0 19 -9 19 -85z m110 0 l0 -85 -40 0 -40
0 0 48 c0 26 3 64 6 85 6 34 9 37 40 37 l34 0 0 -85z m105 68 c-24 -57 -34
-92 -35 -120 0 -26 -4 -33 -20 -33 -18 0 -20 7 -20 54 0 29 3 68 6 85 6 28 10
31 41 31 30 0 34 -3 28 -17z m-295 -73 c0 -73 -2 -80 -20 -80 -18 0 -20 7 -20
80 0 73 2 80 20 80 18 0 20 -7 20 -80z m80 -150 c0 -22 5 -40 10 -40 6 0 10
11 10 24 0 45 10 56 51 56 38 0 39 -1 39 -34 0 -19 5 -38 10 -41 6 -3 10 5 10
19 0 72 42 79 59 9 7 -25 19 -59 27 -75 l15 -28 -181 0 -180 0 0 54 c0 70 7
86 36 86 21 0 24 -5 25 -37 l1 -38 11 43 c8 35 14 42 33 42 21 0 24 -5 24 -40z
m320 -35 c0 -74 0 -75 -26 -75 -20 0 -29 9 -46 46 -11 26 -24 60 -28 75 l-9
29 55 0 54 0 0 -75z"/>
<path d="M990 666 c0 -226 22 -175 32 74 3 55 0 65 -14 68 -17 3 -18 -9 -18
-142z"/>
<path d="M1103 703 c4 -58 7 -125 7 -147 1 -28 3 -36 9 -26 5 8 12 75 16 148
l8 132 -23 0 c-23 0 -23 0 -17 -107z"/>
</g>
</svg>
