<?xml version="1.0" standalone="no"?>
<!DOCTYPE svg PUBLIC "-//W3C//DTD SVG 20010904//EN"
 "http://www.w3.org/TR/2001/REC-SVG-20010904/DTD/svg10.dtd">
<svg version="1.0" xmlns="http://www.w3.org/2000/svg"
 width="192.000000pt" height="263.000000pt" viewBox="0 0 192.000000 263.000000"
 preserveAspectRatio="xMidYMid meet">
<metadata>
Created by potrace 1.16, written by Peter Selinger 2001-2019
</metadata>
<g transform="translate(0.000000,263.000000) scale(0.100000,-0.100000)"
fill="#000000" stroke="none">
<path d="M825 2263 c-32 -37 -72 -89 -89 -115 -17 -26 -35 -48 -41 -48 -5 1
-84 27 -174 60 -91 32 -168 57 -173 54 -20 -13 -5 -34 31 -44 87 -23 303 -88
307 -93 2 -2 -3 -20 -11 -40 -8 -20 -18 -59 -23 -86 l-7 -49 -80 32 c-142 57
-245 90 -253 80 -13 -16 -2 -294 11 -294 7 0 84 29 172 64 l159 63 22 -54 c12
-30 35 -73 50 -96 32 -49 129 -145 170 -169 l29 -16 345 198 c189 109 346 202
347 207 4 10 20 0 -356 218 -174 100 -330 185 -347 189 -29 6 -35 2 -89 -61z
m495 -197 c140 -75 260 -138 265 -140 15 -5 11 -7 -140 -86 -77 -40 -230 -122
-339 -183 -151 -83 -204 -107 -215 -100 -35 22 -134 152 -168 221 -30 61 -37
84 -37 136 0 95 64 216 177 333 l41 43 80 -44 c45 -25 196 -105 336 -180z
m-813 -138 c79 -23 143 -47 143 -53 0 -5 -73 -33 -161 -61 l-161 -52 6 30 c3
17 6 64 6 104 0 52 4 74 12 74 7 0 77 -19 155 -42z"/>
<path d="M900 2016 c0 -95 15 -115 25 -33 8 66 4 109 -12 115 -10 3 -13 -18
-13 -82z"/>
<path d="M774 1994 c3 -26 6 -65 6 -88 1 -63 16 -23 24 62 6 69 5 72 -15 72
-20 0 -21 -4 -15 -46z"/>
<path d="M1034 2018 c3 -13 6 -52 6 -87 0 -87 16 -67 25 32 7 75 6 77 -15 77
-18 0 -21 -4 -16 -22z"/>
<path d="M1274 1989 c3 -17 6 -57 6 -87 0 -80 16 -53 25 41 7 75 6 77 -15 77
-20 0 -22 -4 -16 -31z"/>
<path d="M1160 1835 c0 -85 12 -112 24 -54 3 17 6 56 6 85 0 41 -4 54 -15 54
-12 0 -15 -16 -15 -85z"/>
<path d="M941 1796 c2 -89 13 -113 23 -48 13 90 11 127 -7 130 -16 3 -18 -5
-16 -82z"/>
<path d="M409 1895 c-8 -7 2 -75 11 -75 8 0 20 35 20 63 0 15 -20 24 -31 12z"/>
<path d="M823 1054 c-32 -36 -62 -72 -67 -81 -7 -13 -35 -14 -217 -8 l-209 8
0 -22 0 -22 200 7 200 7 -35 -67 c-19 -37 -35 -73 -35 -81 0 -11 -32 -12 -175
-8 l-175 6 0 -45 c0 -25 3 -93 7 -153 l6 -107 189 6 189 7 69 -74 c37 -40 86
-86 109 -101 l40 -28 307 177 c400 230 398 229 382 242 -33 26 -676 391 -700
396 -24 6 -33 0 -85 -59z m291 -93 c111 -59 263 -141 339 -181 l139 -73 -84
-44 c-116 -63 -236 -123 -244 -123 -4 0 -4 54 0 120 6 118 6 120 -15 120 -21
0 -21 -3 -18 -130 l4 -130 -170 -95 -170 -95 -49 52 c-26 29 -63 75 -82 102
l-33 50 6 123 c6 122 6 123 -16 123 -22 0 -22 -2 -16 -97 5 -77 4 -94 -5 -80
-7 11 -14 45 -17 77 -7 71 13 135 68 221 43 66 135 169 152 169 6 0 101 -49
211 -109z m-620 -223 c3 -13 6 -65 6 -115 l0 -93 -34 0 -34 0 5 103 c2 56 6
108 8 115 7 21 42 14 49 -10z m100 -9 c3 -17 6 -71 6 -120 l0 -89 -41 0 -42 0
7 61 c3 34 6 88 6 120 0 58 0 59 29 59 24 0 29 -5 35 -31z m53 -31 c0 -38 9
-85 22 -118 11 -30 21 -56 21 -57 0 -2 -16 -3 -36 -3 l-37 0 6 68 c4 37 7 91
7 120 0 28 4 52 8 52 5 0 9 -28 9 -62z m-237 -58 l0 -110 -36 0 -37 0 6 83 c4
45 7 94 7 110 0 23 4 27 30 27 l30 0 0 -110z"/>
<path d="M830 635 c0 -82 4 -145 9 -145 9 0 16 52 25 208 5 77 4 82 -14 82
-19 0 -20 -7 -20 -145z"/>
<path d="M958 638 c2 -79 6 -145 8 -147 10 -11 13 15 20 147 7 138 6 142 -13
142 -20 0 -20 -5 -15 -142z"/>
<path d="M1108 638 c2 -79 5 -145 8 -147 11 -11 15 16 21 147 6 135 5 142 -13
142 -18 0 -19 -8 -16 -142z"/>
</g>
</svg>
