<?xml version="1.0" standalone="no"?>
<!DOCTYPE svg PUBLIC "-//W3C//DTD SVG 20010904//EN"
 "http://www.w3.org/TR/2001/REC-SVG-20010904/DTD/svg10.dtd">
<svg version="1.0" xmlns="http://www.w3.org/2000/svg"
 width="164.000000pt" height="148.000000pt" viewBox="0 0 164.000000 148.000000"
 preserveAspectRatio="xMidYMid meet">
<metadata>
Created by potrace 1.16, written by Peter Selinger 2001-2019
</metadata>
<g transform="translate(0.000000,148.000000) scale(0.100000,-0.100000)"
fill="#000000" stroke="none">
<path d="M691 1163 c-11 -12 -13 -41 -8 -144 l6 -129 -195 0 -196 0 7 -112 c4
-62 9 -115 11 -117 3 -3 88 -4 189 -2 l185 2 1 -68 c1 -37 2 -72 4 -78 1 -5 3
-56 3 -112 l2 -103 149 0 c89 0 152 4 156 10 4 6 -12 10 -39 10 l-46 0 0 68
c0 38 3 117 7 175 l6 107 204 0 c129 0 203 4 203 10 0 6 -5 10 -11 10 -10 0
-5 129 7 173 5 16 -8 17 -169 17 -96 0 -189 3 -206 6 l-31 7 0 128 0 129 38 1
c20 0 46 4 57 8 12 5 -23 10 -89 14 -172 11 -229 8 -245 -10z m192 -45 c3 -12
4 -24 3 -27 -2 -3 -38 -5 -80 -3 -66 3 -76 6 -76 22 0 22 17 27 91 29 50 1 57
-1 62 -21z m7 -98 l0 -50 -80 0 -80 0 0 44 0 45 43 4 c23 2 59 4 80 5 l37 2 0
-50z m0 -100 l0 -30 -80 0 -80 0 0 30 0 30 80 0 80 0 0 -30z m404 -121 c12
-119 21 -109 -96 -109 -57 0 -140 3 -185 7 l-83 6 0 73 c0 87 -16 81 201 83
l156 1 7 -61z m-604 -24 l0 -75 -170 0 c-150 0 -170 -2 -180 -17 -9 -15 -10
-14 -6 9 4 15 9 54 12 87 l7 60 36 4 c20 2 96 4 169 5 l132 2 0 -75z m200 0
l0 -75 -85 0 -85 0 0 68 c0 38 3 72 7 75 3 4 42 7 85 7 l78 0 0 -75z m10 -167
l0 -51 -46 7 c-26 3 -66 6 -90 6 l-44 0 0 45 0 44 83 3 c45 2 85 2 90 0 4 -2
7 -26 7 -54z m0 -110 l0 -53 -90 3 -90 3 0 44 0 44 68 4 c37 2 77 4 90 5 20 2
22 -2 22 -50z m0 -123 l0 -55 -59 0 c-32 0 -73 3 -90 6 -29 6 -31 9 -31 50 0
49 3 50 113 53 l67 1 0 -55z"/>
</g>
</svg>
