<?xml version="1.0" standalone="no"?>
<!DOCTYPE svg PUBLIC "-//W3C//DTD SVG 20010904//EN"
 "http://www.w3.org/TR/2001/REC-SVG-20010904/DTD/svg10.dtd">
<svg version="1.0" xmlns="http://www.w3.org/2000/svg"
 width="181.000000pt" height="110.000000pt" viewBox="0 0 181.000000 110.000000"
 preserveAspectRatio="xMidYMid meet">
<metadata>
Created by potrace 1.16, written by Peter Selinger 2001-2019
</metadata>
<g transform="translate(0.000000,110.000000) scale(0.100000,-0.100000)"
fill="#000000" stroke="none">
<path d="M304 775 c-4 -16 -4 -122 -1 -237 4 -174 8 -210 22 -224 15 -15 67
-16 586 -12 432 3 572 7 582 17 8 8 13 76 15 235 l4 223 -29 7 c-15 3 -285 9
-600 13 l-572 6 -7 -28z m906 -110 l0 -105 -277 0 c-153 0 -295 3 -315 6 l-38
7 0 93 0 94 248 3 c136 1 277 3 315 5 l67 2 0 -105z m260 0 l0 -105 -110 0
-110 0 0 105 0 105 110 0 110 0 0 -105z m-920 0 l0 -95 -105 0 -105 0 0 34 c0
18 3 61 6 95 l7 61 98 0 99 0 0 -95z m668 -232 l3 -103 -327 0 -327 0 7 31 c3
17 6 62 6 100 l0 69 258 3 c141 1 284 3 317 2 l60 0 3 -102z m256 75 c3 -18 7
-68 9 -112 l4 -79 -60 7 c-33 3 -89 6 -123 6 l-64 0 0 44 c0 23 3 71 6 105 l7
61 108 0 108 0 5 -32z m-924 -40 c0 -35 3 -80 6 -100 l7 -38 -118 0 -118 0 7
53 c3 28 6 73 6 100 l0 47 105 0 105 0 0 -62z"/>
</g>
</svg>
