<?xml version="1.0" standalone="no"?>
<!DOCTYPE svg PUBLIC "-//W3C//DTD SVG 20010904//EN"
 "http://www.w3.org/TR/2001/REC-SVG-20010904/DTD/svg10.dtd">
<svg version="1.0" xmlns="http://www.w3.org/2000/svg"
 width="171.000000pt" height="159.000000pt" viewBox="0 0 171.000000 159.000000"
 preserveAspectRatio="xMidYMid meet">
<metadata>
Created by potrace 1.16, written by Peter Selinger 2001-2019
</metadata>
<g transform="translate(0.000000,159.000000) scale(0.100000,-0.100000)"
fill="#000000" stroke="none">
<path d="M300 1269 l0 -22 189 6 188 7 7 -38 c12 -77 28 -71 -189 -65 l-195 6
0 -23 0 -23 199 7 199 7 6 -28 c3 -15 10 -57 16 -93 11 -63 45 -217 56 -252 4
-15 -1 -18 -31 -18 -32 0 -36 -3 -33 -22 l3 -23 275 3 c151 2 284 6 296 8 21
5 21 2 27 -183 3 -103 4 -189 3 -191 -2 -1 -74 41 -162 94 -208 126 -471 267
-484 259 -26 -16 2 -36 163 -119 94 -50 246 -129 336 -178 153 -82 200 -103
176 -79 -6 6 -7 50 -4 108 4 54 7 142 8 196 1 90 2 97 21 97 11 0 20 4 20 9 0
5 -133 12 -295 16 -290 7 -295 8 -300 29 -2 11 -11 68 -19 126 -8 58 -25 170
-37 250 l-22 145 -209 3 -208 3 0 -22z"/>
<path d="M300 1020 l0 -23 197 7 c108 3 199 9 202 11 12 13 -21 17 -203 22
l-196 6 0 -23z"/>
<path d="M300 920 l0 -23 197 7 c109 4 200 9 202 12 13 13 -26 17 -203 22
l-196 5 0 -23z"/>
<path d="M300 820 l0 -23 195 5 c175 5 218 9 204 22 -2 2 -93 7 -201 11 l-198
7 0 -22z"/>
<path d="M300 710 l0 -23 196 5 c176 5 216 9 203 22 -2 2 -93 7 -201 11 l-198
8 0 -23z"/>
</g>
</svg>
