<?xml version="1.0" standalone="no"?>
<!DOCTYPE svg PUBLIC "-//W3C//DTD SVG 20010904//EN"
 "http://www.w3.org/TR/2001/REC-SVG-20010904/DTD/svg10.dtd">
<svg version="1.0" xmlns="http://www.w3.org/2000/svg"
 width="102.000000pt" height="147.000000pt" viewBox="0 0 102.000000 147.000000"
 preserveAspectRatio="xMidYMid meet">
<metadata>
Created by potrace 1.16, written by Peter Selinger 2001-2019
</metadata>
<g transform="translate(0.000000,147.000000) scale(0.100000,-0.100000)"
fill="#000000" stroke="none">
<path d="M405 1036 c-35 -72 -68 -149 -75 -171 -6 -22 -16 -50 -22 -62 -8 -16
-4 -43 16 -115 32 -114 80 -213 146 -304 27 -38 50 -72 50 -76 0 -5 7 -8 17
-8 9 0 14 3 11 6 -3 3 14 37 38 76 76 124 134 296 134 398 0 40 -54 157 -132
287 -56 93 -63 102 -91 101 -28 -1 -33 -8 -92 -132z m155 9 c27 -41 50 -75 50
-77 0 -2 -22 -1 -49 0 l-48 4 -7 51 c-7 62 -8 97 -1 97 2 0 27 -34 55 -75z
m-88 -32 c3 -42 3 -43 -29 -43 l-33 0 28 56 c15 31 28 50 29 42 1 -7 3 -32 5
-55z m8 -108 l0 -35 -60 0 -60 0 17 35 c15 32 20 35 60 35 42 0 43 0 43 -35z
m169 -7 l23 -41 -38 6 c-22 4 -58 7 -81 7 -42 0 -43 1 -43 35 l0 35 58 0 c56
0 57 -1 81 -42z m-228 -58 c59 0 59 0 59 -29 0 -16 3 -36 6 -44 4 -13 -7 -16
-64 -19 l-70 -3 -6 35 c-5 35 4 95 12 72 2 -8 25 -12 63 -12z m259 -40 c0 -32
-5 -52 -13 -56 -7 -2 -44 -1 -82 3 l-70 8 -3 42 -3 42 68 4 c37 2 76 4 86 5
14 2 17 -6 17 -48z m-10 -79 c0 -5 -3 -23 -6 -40 l-6 -31 -69 0 -69 0 0 34 c0
35 0 35 53 39 28 2 62 4 75 5 12 1 22 -2 22 -7z m-180 -36 l0 -35 -54 0 c-59
0 -60 1 -70 43 l-6 27 65 0 65 0 0 -35z m160 -61 c0 -4 -5 -24 -12 -45 -11
-39 -11 -39 -65 -39 l-53 0 0 39 0 40 53 4 c28 2 58 4 65 5 6 1 12 -1 12 -4z
m-156 -20 c3 -9 6 -27 6 -40 0 -21 -4 -24 -41 -24 -36 0 -41 3 -55 35 -7 19
-14 37 -14 40 0 3 22 5 49 5 35 0 51 -4 55 -16z m9 -156 c3 -35 4 -64 3 -66
-3 -3 -66 113 -66 122 0 3 13 6 29 6 27 0 28 -2 34 -62z m107 57 c0 -15 -74
-165 -81 -165 -5 0 -9 38 -9 85 l0 85 45 0 c25 0 45 -2 45 -5z"/>
</g>
</svg>
