<?xml version="1.0" standalone="no"?>
<!DOCTYPE svg PUBLIC "-//W3C//DTD SVG 20010904//EN"
 "http://www.w3.org/TR/2001/REC-SVG-20010904/DTD/svg10.dtd">
<svg version="1.0" xmlns="http://www.w3.org/2000/svg"
 width="102.000000pt" height="147.000000pt" viewBox="0 0 102.000000 147.000000"
 preserveAspectRatio="xMidYMid meet">
<metadata>
Created by potrace 1.16, written by Peter Selinger 2001-2019
</metadata>
<g transform="translate(0.000000,147.000000) scale(0.100000,-0.100000)"
fill="#000000" stroke="none">
<path d="M421 1071 c-26 -53 -60 -130 -76 -171 -15 -41 -32 -85 -37 -97 -8
-16 -4 -44 16 -115 25 -86 70 -199 88 -223 34 -43 108 -151 108 -157 0 -5 7
-8 17 -8 9 0 14 3 11 6 -3 3 14 37 38 76 76 124 134 296 134 398 0 40 -54 157
-132 287 -56 93 -64 102 -90 101 -27 -1 -33 -9 -77 -97z m194 -116 c48 -81 65
-119 65 -146 0 -58 -29 -196 -56 -268 -34 -91 -86 -201 -94 -201 -4 0 -10 149
-14 331 -3 182 -9 359 -12 393 l-5 61 25 -30 c14 -16 55 -79 91 -140z m-164
53 c-11 -13 -27 -32 -36 -43 -8 -11 -1 11 17 49 27 56 34 64 36 43 2 -15 -5
-35 -17 -49z m29 -54 c0 -14 -4 -23 -9 -19 -10 5 -54 -53 -96 -127 -21 -38
-23 -39 -30 -18 -4 12 -3 25 2 29 5 3 33 43 63 88 55 82 70 92 70 47z m-49
-180 c-28 -42 -51 -81 -51 -87 0 -20 -20 17 -20 37 0 10 26 58 58 105 56 84
57 85 60 53 3 -25 -8 -49 -47 -108z m11 -97 c-46 -71 -50 -75 -56 -51 -5 20 4
41 41 96 41 63 48 69 56 51 7 -16 -2 -36 -41 -96z m17 -91 c-32 -44 -49 -51
-49 -19 0 9 17 43 38 75 l37 58 3 -34 c2 -25 -5 -46 -29 -80z m46 -204 c-1 -1
-17 26 -36 62 l-33 64 29 43 30 44 6 -105 c3 -58 5 -106 4 -108z"/>
</g>
</svg>
