<?xml version="1.0" standalone="no"?>
<!DOCTYPE svg PUBLIC "-//W3C//DTD SVG 20010904//EN"
 "http://www.w3.org/TR/2001/REC-SVG-20010904/DTD/svg10.dtd">
<svg version="1.0" xmlns="http://www.w3.org/2000/svg"
 width="102.000000pt" height="130.000000pt" viewBox="0 0 102.000000 130.000000"
 preserveAspectRatio="xMidYMid meet">
<metadata>
Created by potrace 1.16, written by Peter Selinger 2001-2019
</metadata>
<g transform="translate(0.000000,130.000000) scale(0.100000,-0.100000)"
fill="#000000" stroke="none">
<path d="M381 921 c-12 -43 -30 -118 -41 -166 -10 -49 -23 -91 -28 -94 -6 -3
12 -49 39 -103 52 -105 148 -262 156 -254 3 2 -16 43 -42 90 -26 47 -43 86
-38 86 5 0 26 -18 48 -40 51 -52 58 -43 11 14 -20 24 -36 47 -36 50 0 4 17 29
38 57 35 47 37 48 44 27 3 -13 6 -55 7 -95 1 -39 6 -84 11 -99 8 -21 7 -32 -5
-51 -9 -13 -15 -29 -13 -35 5 -13 110 155 158 250 17 35 30 75 28 89 -2 20
-21 -9 -78 -123 l-75 -149 -2 45 c-1 25 -8 158 -14 295 -6 141 -16 256 -22
263 -8 10 -15 8 -33 -9 l-24 -22 -21 26 c-33 43 -45 34 -68 -52z m58 26 c8
-11 5 -19 -14 -37 l-24 -23 9 34 c6 19 10 35 10 36 0 7 8 2 19 -10z m71 -18
c0 -18 -2 -19 -15 -9 -15 12 -12 30 6 30 5 0 9 -10 9 -21z m-11 -45 c26 -33
26 -42 0 -70 l-21 -22 -30 34 -31 35 23 24 c29 31 34 31 59 -1z m-66 -136
c-20 -21 -32 -26 -51 -21 -21 5 -23 3 -18 -14 4 -13 0 -25 -10 -34 -15 -12
-16 -12 -11 6 3 11 13 47 23 80 9 33 19 64 21 68 3 5 20 -6 39 -24 l34 -33
-27 -28z m87 20 c0 -30 -1 -31 -14 -12 -10 13 -11 23 -4 31 15 19 18 16 18
-19z m9 -90 c1 -25 -6 -45 -18 -57 -19 -19 -20 -19 -55 24 -20 24 -36 47 -36
51 0 4 12 20 26 36 l27 27 28 -22 c21 -17 28 -31 28 -59z m-49 -88 c0 -3 -11
-17 -24 -32 -21 -24 -27 -26 -49 -15 -14 6 -35 31 -46 55 -21 42 -30 81 -13
54 7 -9 13 -8 27 8 l19 21 43 -43 c24 -23 43 -45 43 -48z"/>
<path d="M540 990 c0 -19 143 -295 147 -284 6 18 -120 294 -134 294 -7 0 -13
-5 -13 -10z"/>
</g>
</svg>
