<?xml version="1.0" standalone="no"?>
<!DOCTYPE svg PUBLIC "-//W3C//DTD SVG 20010904//EN"
 "http://www.w3.org/TR/2001/REC-SVG-20010904/DTD/svg10.dtd">
<svg version="1.0" xmlns="http://www.w3.org/2000/svg"
 width="206.000000pt" height="152.000000pt" viewBox="0 0 206.000000 152.000000"
 preserveAspectRatio="xMidYMid meet">
<metadata>
Created by potrace 1.16, written by Peter Selinger 2001-2019
</metadata>
<g transform="translate(0.000000,152.000000) scale(0.100000,-0.100000)"
fill="#000000" stroke="none">
<path d="M317 1212 c-17 -3 -18 -26 -16 -439 1 -240 4 -444 6 -453 3 -10 11
-17 18 -16 16 2 178 150 355 323 115 112 128 123 163 123 20 0 37 5 37 10 0 6
-17 10 -37 10 -35 1 -51 13 -217 176 -222 217 -286 271 -309 266z m318 -321
c150 -125 149 -114 8 -109 l-123 4 0 -29 0 -29 123 7 122 6 -40 -33 c-22 -18
-102 -87 -179 -153 -76 -66 -156 -136 -179 -155 l-40 -34 6 174 c4 96 10 270
13 387 l7 212 91 -83 c50 -45 136 -120 191 -165z"/>
<path d="M1230 1126 c-106 -32 -150 -53 -150 -70 0 -9 -6 -16 -14 -16 -25 0
-50 -116 -51 -235 l0 -111 58 -114 c31 -63 63 -123 70 -132 20 -26 206 -44
297 -29 81 13 217 55 244 74 13 9 26 52 47 153 34 168 36 224 8 308 l-21 64
-90 47 c-175 91 -258 104 -398 61z m268 -42 c35 -9 89 -26 120 -39 52 -21 59
-27 75 -71 33 -88 34 -121 13 -299 l-21 -170 -100 -24 c-118 -28 -266 -33
-369 -12 l-68 14 -24 54 c-14 30 -34 89 -46 131 -24 91 -21 200 9 297 19 59
19 60 78 84 134 54 221 63 333 35z"/>
<path d="M1294 927 c-53 -20 -66 -42 -71 -115 -4 -60 -2 -73 25 -122 27 -51
33 -56 75 -64 38 -7 60 -5 118 12 40 12 74 23 75 25 13 12 26 151 18 183 -17
72 -148 115 -240 81z m171 -32 c21 -8 39 -25 45 -41 11 -27 4 -152 -9 -171
-15 -23 -146 -41 -198 -27 -39 11 -68 147 -44 208 16 42 137 60 206 31z"/>
</g>
</svg>
