<?xml version="1.0" standalone="no"?>
<!DOCTYPE svg PUBLIC "-//W3C//DTD SVG 20010904//EN"
 "http://www.w3.org/TR/2001/REC-SVG-20010904/DTD/svg10.dtd">
<svg version="1.0" xmlns="http://www.w3.org/2000/svg"
 width="154.000000pt" height="140.000000pt" viewBox="0 0 154.000000 140.000000"
 preserveAspectRatio="xMidYMid meet">
<metadata>
Created by potrace 1.16, written by Peter Selinger 2001-2019
</metadata>
<g transform="translate(0.000000,140.000000) scale(0.100000,-0.100000)"
fill="#000000" stroke="none">
<path d="M855 1034 c-192 -34 -356 -61 -363 -59 -9 4 -12 -3 -10 -23 2 -15 8
-26 14 -25 82 15 533 109 604 127 l95 23 6 -174 c6 -161 10 -195 24 -181 3 3
9 89 12 192 6 179 5 186 -13 185 -10 -1 -176 -30 -369 -65z"/>
<path d="M520 881 c0 -5 -9 -11 -20 -14 -12 -3 -20 -14 -20 -25 0 -16 9 -21
48 -27 84 -12 654 -114 658 -117 7 -8 -665 -120 -685 -115 -18 4 -21 1 -21
-24 0 -16 5 -29 11 -29 19 0 409 80 538 110 69 17 136 32 149 35 22 5 22 4 22
-107 0 -144 10 -252 22 -240 5 5 12 92 15 193 l6 184 -187 43 c-148 34 -518
112 -532 112 -2 0 -1 7 2 15 4 8 3 15 0 15 -3 0 -6 -4 -6 -9z"/>
<path d="M457 799 c7 -7 15 -10 18 -7 3 3 -2 9 -12 12 -14 6 -15 5 -6 -5z"/>
<path d="M420 796 c0 -2 7 -7 16 -10 8 -3 12 -2 9 4 -6 10 -25 14 -25 6z"/>
<path d="M345 577 c-24 -20 -25 -23 -7 -23 13 0 18 5 14 14 -4 11 0 13 16 8
11 -4 23 -2 27 3 4 7 -1 8 -11 4 -12 -4 -15 -3 -10 5 11 19 0 14 -29 -11z"/>
<path d="M520 510 c-1 -8 -2 -21 -1 -27 1 -7 -7 -13 -19 -13 -14 0 -20 -7 -20
-23 0 -21 7 -24 113 -41 61 -9 222 -37 357 -62 228 -41 300 -51 289 -39 -10
10 -670 155 -706 155 -1 0 -4 15 -6 33 -2 17 -5 25 -7 17z"/>
<path d="M340 416 c0 -2 8 -10 18 -17 15 -13 16 -12 3 4 -13 16 -21 21 -21 13z"/>
<path d="M420 396 c0 -2 7 -7 16 -10 8 -3 12 -2 9 4 -6 10 -25 14 -25 6z"/>
</g>
</svg>
