<?xml version="1.0" standalone="no"?>
<!DOCTYPE svg PUBLIC "-//W3C//DTD SVG 20010904//EN"
 "http://www.w3.org/TR/2001/REC-SVG-20010904/DTD/svg10.dtd">
<svg version="1.0" xmlns="http://www.w3.org/2000/svg"
 width="144.000000pt" height="131.000000pt" viewBox="0 0 144.000000 131.000000"
 preserveAspectRatio="xMidYMid meet">
<metadata>
Created by potrace 1.16, written by Peter Selinger 2001-2019
</metadata>
<g transform="translate(0.000000,131.000000) scale(0.100000,-0.100000)"
fill="#000000" stroke="none">
<path d="M419 994 c-56 -36 -107 -147 -116 -256 l-6 -68 182 0 c166 0 181 1
181 18 0 16 18 17 213 20 361 5 339 29 -28 31 l-191 1 -10 54 -9 53 250 8
c137 4 252 9 254 11 11 10 -22 13 -267 20 -208 5 -262 10 -262 20 0 8 -19 34
-43 59 -37 39 -49 45 -83 45 -21 0 -51 -8 -65 -16z m111 -17 c19 -12 42 -37
53 -55 l19 -32 -86 0 c-79 0 -86 -2 -86 -20 0 -19 7 -20 94 -20 l94 0 11 -50
c14 -67 15 -67 -12 -42 -70 66 -203 69 -271 5 l-29 -26 7 48 c11 71 48 146 90
183 43 38 71 40 116 9z"/>
<path d="M434 616 c-63 -28 -118 -136 -131 -256 l-6 -60 183 0 182 0 -7 48
c-3 26 -9 57 -12 70 -5 22 -5 22 128 22 141 0 361 10 368 16 11 10 -21 12
-255 15 l-251 4 -25 48 -26 47 152 0 c189 0 406 11 406 20 0 4 -141 12 -312
17 -172 6 -324 13 -338 17 -14 3 -39 0 -56 -8z m-4 -36 c0 -6 28 -10 64 -10
59 0 66 -2 84 -27 11 -16 22 -37 26 -48 6 -19 2 -20 -84 -17 -85 3 -90 2 -90
-17 0 -20 6 -21 100 -21 78 0 100 -3 100 -14 0 -7 3 -28 7 -47 l6 -33 -24 23
c-72 69 -204 71 -281 3 -16 -14 -18 -13 -18 5 0 36 29 118 59 166 28 44 51 60
51 37z"/>
</g>
</svg>
