<?xml version="1.0" standalone="no"?>
<!DOCTYPE svg PUBLIC "-//W3C//DTD SVG 20010904//EN"
 "http://www.w3.org/TR/2001/REC-SVG-20010904/DTD/svg10.dtd">
<svg version="1.0" xmlns="http://www.w3.org/2000/svg"
 width="139.000000pt" height="135.000000pt" viewBox="0 0 139.000000 135.000000"
 preserveAspectRatio="xMidYMid meet">
<metadata>
Created by potrace 1.16, written by Peter Selinger 2001-2019
</metadata>
<g transform="translate(0.000000,135.000000) scale(0.100000,-0.100000)"
fill="#000000" stroke="none">
<path d="M820 979 c-135 -38 -246 -73 -248 -79 -6 -18 -22 -11 -127 55 -57 36
-114 65 -126 65 -22 0 -22 -1 -16 -141 5 -136 10 -166 25 -142 6 9 146 85 223
120 23 10 25 10 25 -9 -1 -18 28 -30 234 -97 161 -53 229 -79 215 -84 -11 -3
-117 -33 -235 -66 -118 -33 -216 -65 -218 -70 -6 -18 -27 -13 -68 17 -76 54
-162 102 -184 102 l-23 0 6 -141 c5 -136 10 -165 25 -143 7 10 199 114 233
126 11 4 15 0 15 -14 -1 -16 33 -30 239 -98 132 -44 245 -80 251 -80 13 0 12
-13 20 200 l6 175 -158 63 c-88 34 -202 78 -254 97 -77 27 -91 35 -72 41 13 4
120 39 238 79 l214 72 0 -163 c0 -168 12 -224 24 -106 11 121 7 292 -6 291 -7
0 -123 -32 -258 -70z m-302 -104 c-9 -8 -180 -77 -182 -74 -2 2 -1 41 2 86 l4
82 90 -46 c49 -24 88 -46 86 -48z m545 -553 c-1 -2 -82 27 -180 66 -98 38
-204 78 -235 88 -32 10 -58 20 -58 23 0 4 44 19 98 34 53 16 158 50 232 76
l135 48 5 -166 c3 -91 4 -168 3 -169z m-632 146 c-50 -22 -93 -39 -95 -37 -2
2 -1 41 2 86 l5 82 90 -45 90 -46 -92 -40z"/>
</g>
</svg>
