<?xml version="1.0" standalone="no"?>
<!DOCTYPE svg PUBLIC "-//W3C//DTD SVG 20010904//EN"
 "http://www.w3.org/TR/2001/REC-SVG-20010904/DTD/svg10.dtd">
<svg version="1.0" xmlns="http://www.w3.org/2000/svg"
 width="201.000000pt" height="143.000000pt" viewBox="0 0 201.000000 143.000000"
 preserveAspectRatio="xMidYMid meet">
<metadata>
Created by potrace 1.16, written by Peter Selinger 2001-2019
</metadata>
<g transform="translate(0.000000,143.000000) scale(0.100000,-0.100000)"
fill="#000000" stroke="none">
<path d="M1225 1120 c-9 -14 201 -307 213 -296 10 11 -181 306 -198 306 -5 0
-12 -4 -15 -10z"/>
<path d="M837 1064 c-7 -8 121 -194 210 -303 1 -2 6 -2 9 1 6 7 5 9 -106 181
-76 117 -96 138 -113 121z"/>
<path d="M305 940 c-5 -9 66 -114 170 -251 l35 -46 -93 -36 c-56 -21 -93 -41
-95 -51 -5 -25 15 -20 138 32 132 56 204 92 198 98 -3 2 -33 -5 -69 -17 -60
-20 -64 -20 -74 -4 -50 85 -186 285 -194 285 -5 0 -13 -4 -16 -10z"/>
<path d="M1283 771 c-185 -13 -224 -19 -235 -33 -22 -29 -305 -148 -352 -148
-13 0 -34 9 -47 19 -17 14 -29 17 -41 10 -27 -15 -22 -25 22 -43 73 -29 105
-22 264 57 l148 73 18 -36 c10 -20 42 -65 71 -99 32 -38 48 -65 42 -69 -6 -4
-54 -45 -106 -92 -83 -74 -94 -87 -81 -100 12 -13 27 -2 114 85 l100 99 57
-56 c89 -86 80 -88 292 35 l105 60 23 -28 c28 -32 41 -28 20 7 -64 104 -180
278 -186 277 -3 -1 -106 -9 -228 -18z m282 -111 c41 -58 75 -107 75 -110 0 -3
-71 -39 -157 -80 l-156 -74 -53 59 -53 59 21 23 c24 26 13 31 -18 9 -19 -13
-23 -10 -66 42 -44 56 -83 120 -76 127 2 2 67 11 143 20 77 9 165 20 195 24
30 5 58 8 62 7 4 0 41 -48 83 -106z"/>
</g>
</svg>
