<?xml version="1.0" standalone="no"?>
<!DOCTYPE svg PUBLIC "-//W3C//DTD SVG 20010904//EN"
 "http://www.w3.org/TR/2001/REC-SVG-20010904/DTD/svg10.dtd">
<svg version="1.0" xmlns="http://www.w3.org/2000/svg"
 width="185.000000pt" height="256.000000pt" viewBox="0 0 185.000000 256.000000"
 preserveAspectRatio="xMidYMid meet">
<metadata>
Created by potrace 1.16, written by Peter Selinger 2001-2019
</metadata>
<g transform="translate(0.000000,256.000000) scale(0.100000,-0.100000)"
fill="#000000" stroke="none">
<path d="M367 2246 c-5 -13 1 -16 43 -16 27 0 50 -3 52 -7 2 -5 1 -28 -2 -52
l-5 -44 -56 51 c-31 29 -60 52 -63 52 -3 0 -6 -9 -6 -20 0 -25 103 -111 180
-150 31 -16 88 -34 125 -41 66 -11 235 -7 284 7 20 6 22 4 16 -15 -3 -11 -2
-21 3 -21 11 0 32 53 32 81 0 29 16 31 68 9 l48 -21 175 20 c96 11 193 23 217
27 l42 7 0 -45 0 -44 -82 -35 c-46 -18 -94 -34 -108 -34 -24 0 -25 -2 -33 -95
-4 -52 -6 -137 -5 -188 l3 -93 -69 3 -69 3 -32 123 c-18 68 -34 125 -36 127
-2 2 -43 -16 -90 -40 -48 -23 -93 -45 -100 -48 -11 -3 -11 -8 -3 -17 13 -13
72 12 131 56 l31 24 44 -132 44 -131 70 2 c38 1 85 6 104 11 33 8 33 9 12 15
-20 7 -23 13 -18 39 2 17 7 76 11 131 9 162 13 184 33 179 9 -3 52 15 95 40
67 38 77 42 77 25 0 -10 5 -19 10 -19 11 0 15 192 4 203 -11 11 -34 -5 -34
-23 0 -20 5 -20 -275 -40 -82 -6 -151 -15 -153 -20 -2 -5 -38 8 -80 27 -214
98 -332 130 -517 140 -98 5 -113 4 -118 -11z m178 -43 c-10 -48 -12 -103 -5
-103 8 0 22 38 34 91 6 26 6 26 63 17 32 -4 95 -19 140 -33 80 -25 82 -26 77
-53 -2 -15 -6 -38 -8 -52 -2 -20 -9 -26 -34 -28 l-30 -3 15 51 c11 37 12 55 4
63 -16 16 -22 4 -30 -55 -6 -51 -7 -53 -38 -56 -82 -8 -253 49 -253 85 0 10 5
35 11 56 8 29 15 37 34 37 17 0 22 -5 20 -17z m396 -122 c-6 -32 -10 -36 -39
-39 -36 -4 -38 2 -22 60 10 34 12 36 38 26 26 -10 28 -14 23 -47z"/>
<path d="M605 2157 c-4 -24 -5 -55 -3 -68 l4 -24 12 28 c7 16 15 46 18 68 5
31 4 39 -9 39 -11 0 -18 -13 -22 -43z"/>
<path d="M685 2126 c-4 -30 -5 -61 -2 -68 6 -17 25 30 33 83 5 31 4 39 -9 39
-11 0 -17 -15 -22 -54z"/>
<path d="M305 1948 c-7 -30 -3 -36 40 -75 26 -24 82 -60 124 -80 69 -34 85
-38 179 -41 109 -5 292 21 292 40 0 6 -9 7 -22 3 -13 -3 -88 -9 -168 -12 -131
-5 -151 -3 -209 16 -99 34 -111 45 -111 102 0 42 3 49 20 49 14 0 21 -9 25
-37 4 -21 10 -47 14 -58 7 -16 9 -13 15 21 4 22 6 47 4 54 -2 8 5 15 14 17 13
3 18 -7 23 -51 9 -72 25 -72 25 -1 0 52 1 55 25 55 26 0 27 -3 40 -83 9 -54
25 -36 25 29 0 51 2 54 24 54 22 0 26 -6 32 -47 10 -70 21 -85 29 -40 4 20 4
48 1 62 -6 22 -3 25 18 25 21 0 25 -6 31 -50 10 -69 25 -73 25 -6 l0 56 35 0
c33 0 35 -2 35 -32 0 -18 3 -43 6 -55 11 -41 24 -24 24 31 l0 54 53 8 52 8
-70 7 c-38 4 -199 7 -357 8 l-286 1 -7 -32z m91 -24 c13 -50 1 -54 -45 -15
l-44 38 42 0 c35 0 42 -4 47 -23z"/>
<path d="M985 1717 c-86 -38 -81 -35 -66 -50 9 -9 23 -6 66 16 49 26 100 68
79 66 -5 0 -40 -15 -79 -32z"/>
<path d="M1012 1635 c-73 -32 -77 -35 -70 -57 4 -12 79 24 128 62 41 31 19 30
-58 -5z"/>
<path d="M1101 1170 c-41 -28 -99 -71 -129 -97 -32 -28 -56 -42 -60 -35 -10
15 -123 42 -178 42 -60 0 -154 -49 -154 -79 0 -16 13 -22 68 -34 37 -8 93 -18
124 -22 l58 -6 -55 -37 c-66 -45 -214 -164 -215 -174 0 -12 62 -20 108 -13 26
3 100 20 165 37 65 16 120 28 123 25 5 -4 -13 -100 -41 -220 -7 -31 -10 -57
-5 -57 7 0 29 71 61 203 11 47 25 60 35 32 4 -8 -6 -68 -20 -132 -29 -130 -30
-136 -18 -129 5 3 22 57 38 121 15 63 31 115 35 115 4 0 13 -7 20 -16 11 -13
9 -35 -10 -131 -13 -63 -26 -125 -29 -136 -3 -15 -1 -19 6 -12 6 6 22 57 37
115 36 146 32 137 56 114 l20 -21 -21 -99 c-29 -133 -34 -170 -25 -162 4 4 22
61 39 128 l32 121 22 -24 23 -24 -29 -129 c-27 -119 -30 -146 -17 -132 3 3 19
60 37 128 l32 123 37 -40 c43 -47 73 -63 64 -34 -5 18 51 153 67 159 15 7 9
52 -8 52 -8 0 -43 26 -77 58 -34 32 -86 81 -114 108 l-53 49 20 75 c31 122 43
210 29 226 -6 8 -14 14 -18 14 -3 0 -39 -23 -80 -50z m69 -26 c0 -37 -33 -230
-41 -239 -5 -5 -9 -12 -9 -16 0 -5 222 -197 248 -215 3 -2 -48 -155 -54 -163
-2 -2 -44 34 -93 81 -49 47 -123 113 -164 146 -86 71 -61 68 -285 32 -67 -11
-130 -20 -140 -20 -18 0 173 131 220 151 32 13 36 34 11 47 -10 5 -69 19 -130
32 -62 13 -113 26 -113 31 0 12 91 39 135 39 23 0 64 -7 93 -15 40 -12 50 -19
45 -32 -8 -19 -16 -24 140 79 65 43 123 78 128 78 5 0 9 -7 9 -16z"/>
</g>
</svg>
