<?xml version="1.0" standalone="no"?>
<!DOCTYPE svg PUBLIC "-//W3C//DTD SVG 20010904//EN"
 "http://www.w3.org/TR/2001/REC-SVG-20010904/DTD/svg10.dtd">
<svg version="1.0" xmlns="http://www.w3.org/2000/svg"
 width="169.000000pt" height="189.000000pt" viewBox="0 0 169.000000 189.000000"
 preserveAspectRatio="xMidYMid meet">
<metadata>
Created by potrace 1.16, written by Peter Selinger 2001-2019
</metadata>
<g transform="translate(0.000000,189.000000) scale(0.100000,-0.100000)"
fill="#000000" stroke="none">
<path d="M305 1580 c-4 -6 16 -52 43 -103 l49 -92 480 3 480 2 6 -97 c4 -54 7
-251 7 -438 l0 -340 -490 3 c-425 3 -490 2 -490 -11 0 -8 -21 -53 -46 -101
-41 -77 -48 -106 -25 -106 9 0 66 123 77 164 6 24 11 26 55 26 l49 0 -45 -87
c-30 -58 -42 -90 -35 -97 6 -6 13 -6 18 -1 8 10 39 78 66 148 14 35 17 37 60
37 26 0 46 -2 46 -4 0 -2 -18 -39 -40 -82 -43 -84 -48 -104 -27 -104 8 0 31
41 52 95 l39 95 271 0 c150 0 320 3 378 7 l107 6 0 454 0 453 -332 2 c-183 1
-355 3 -382 4 l-49 1 -35 86 c-20 48 -41 87 -49 87 -20 0 -16 -15 22 -91 19
-39 35 -73 35 -77 0 -8 -75 -6 -89 2 -5 3 -11 16 -15 29 -9 39 -57 137 -66
137 -21 0 -17 -22 19 -93 l39 -77 -44 0 c-39 0 -46 3 -55 28 -25 65 -62 142
-70 142 -4 0 -11 -5 -14 -10z"/>
<path d="M876 1300 c-55 -61 -113 -154 -120 -194 -4 -19 -22 -69 -41 -111 -19
-42 -35 -81 -35 -86 0 -20 19 2 46 52 l27 49 38 -77 c20 -43 47 -93 60 -111
l24 -33 -47 -97 c-27 -53 -48 -101 -48 -106 0 -20 30 20 70 94 41 76 44 79 62
64 27 -25 22 -11 -19 53 -60 93 -103 201 -103 257 l0 50 23 -31 c38 -52 98
-115 104 -109 3 3 -20 42 -52 86 -42 61 -55 88 -51 104 3 13 29 54 58 91 l53
69 7 -70 c4 -38 7 -166 6 -285 l0 -217 42 -81 c68 -131 73 -96 6 53 -27 60
-32 116 -18 204 l7 43 54 -61 c85 -98 78 -65 -14 60 l-40 55 -5 160 -5 160
-26 3 c-20 2 -35 -7 -63 -38z"/>
</g>
</svg>
