<?xml version="1.0" standalone="no"?>
<!DOCTYPE svg PUBLIC "-//W3C//DTD SVG 20010904//EN"
 "http://www.w3.org/TR/2001/REC-SVG-20010904/DTD/svg10.dtd">
<svg version="1.0" xmlns="http://www.w3.org/2000/svg"
 width="130.000000pt" height="162.000000pt" viewBox="0 0 130.000000 162.000000"
 preserveAspectRatio="xMidYMid meet">
<metadata>
Created by potrace 1.16, written by Peter Selinger 2001-2019
</metadata>
<g transform="translate(0.000000,162.000000) scale(0.100000,-0.100000)"
fill="#000000" stroke="none">
<path d="M566 1258 c-80 -88 -133 -170 -152 -236 -9 -31 -39 -108 -66 -171
-27 -62 -47 -116 -44 -119 8 -7 6 -9 58 80 l45 77 13 -42 c17 -57 43 -107 106
-204 29 -45 47 -80 40 -77 -13 5 -26 -19 -88 -160 -21 -49 -36 -91 -33 -94 3
-3 6 -3 8 -1 11 13 79 132 101 177 15 28 29 52 33 52 3 0 15 -8 26 -18 26 -22
22 -14 -45 99 -72 120 -118 234 -123 303 l-4 53 101 7 c55 4 102 6 103 4 7 -7
8 -425 1 -436 -4 -7 18 -61 54 -130 68 -128 68 -128 75 -121 5 5 -33 109 -77
209 -24 53 -24 60 -17 220 4 91 8 186 8 213 l1 47 118 1 c64 0 135 3 157 8 40
7 40 7 -24 14 -35 4 -106 7 -157 7 l-94 0 -1 98 c0 53 -4 120 -7 147 -6 44
-10 50 -33 53 -21 2 -37 -9 -83 -60z m74 -45 c0 -32 3 -88 7 -125 l6 -68 -97
0 c-66 0 -96 4 -96 12 0 31 148 238 170 238 6 0 10 -26 10 -57z"/>
</g>
</svg>
