<?xml version="1.0" standalone="no"?>
<!DOCTYPE svg PUBLIC "-//W3C//DTD SVG 20010904//EN"
 "http://www.w3.org/TR/2001/REC-SVG-20010904/DTD/svg10.dtd">
<svg version="1.0" xmlns="http://www.w3.org/2000/svg"
 width="223.000000pt" height="105.000000pt" viewBox="0 0 223.000000 105.000000"
 preserveAspectRatio="xMidYMid meet">
<metadata>
Created by potrace 1.16, written by Peter Selinger 2001-2019
</metadata>
<g transform="translate(0.000000,105.000000) scale(0.100000,-0.100000)"
fill="#000000" stroke="none">
<path d="M1357 730 c-6 -23 -2 -24 295 -125 106 -36 200 -68 208 -71 8 -3 -66
-36 -165 -73 -99 -38 -207 -79 -240 -91 -33 -13 -65 -29 -71 -36 -9 -11 -41 1
-162 62 -84 42 -169 92 -189 111 l-38 34 35 -4 c54 -8 90 -25 90 -43 0 -11 5
-14 18 -9 9 3 19 7 22 8 3 1 26 -4 51 -12 38 -10 46 -16 42 -32 -6 -21 4 -23
39 -10 14 5 33 4 48 -1 l25 -10 -27 -10 c-30 -10 -36 -25 -15 -34 17 -6 327
141 327 155 0 6 -14 4 -35 -5 -34 -14 -80 -11 -90 7 -3 4 8 15 25 24 29 15 36
15 77 1 40 -14 66 -15 52 -2 -5 4 -285 111 -316 121 -37 11 -28 -21 10 -35
l32 -11 -28 -15 c-25 -14 -33 -14 -74 0 -57 20 -63 20 -63 1 0 -8 12 -18 27
-21 24 -6 25 -8 8 -20 -15 -11 -26 -10 -68 6 -27 11 -54 17 -59 14 -17 -11 -7
-23 29 -35 l36 -12 -27 -14 c-25 -13 -33 -13 -70 0 -22 9 -50 17 -61 19 -26 4
64 60 202 126 71 33 92 47 76 50 -26 4 -226 -89 -307 -143 -47 -31 -61 -36
-93 -31 -21 3 -116 11 -211 16 -169 11 -202 15 -202 29 0 4 55 24 123 45 67
21 117 41 111 43 -7 2 -73 -12 -149 -31 l-136 -34 -35 30 -34 30 0 -24 c0 -13
5 -29 12 -36 13 -13 -13 -26 -76 -37 -20 -4 -36 -11 -36 -16 0 -19 30 -20 91
-2 62 18 63 18 104 -3 37 -18 66 -22 249 -27 l207 -7 24 -28 c24 -29 154 -100
317 -172 l96 -43 91 36 c136 55 435 187 445 198 6 6 4 9 -5 9 -8 0 -133 47
-279 105 -145 58 -267 105 -271 105 -3 0 -9 -9 -12 -20z m168 -156 c-39 -17
-51 -16 -105 5 l-44 18 29 15 c26 14 34 14 89 -5 l61 -21 -30 -12z m-115 -19
l35 -13 -25 -11 c-20 -9 -34 -8 -74 7 -44 17 -47 20 -30 30 19 11 29 10 94
-13z m-81 -40 l34 -11 -31 -13 c-25 -10 -38 -10 -69 -1 -55 18 -58 21 -32 36
24 13 32 12 98 -11z m188 4 l28 -11 -30 -13 c-21 -9 -35 -10 -53 -2 -22 10
-23 12 -6 24 22 16 25 16 61 2z m-72 -38 c18 -7 15 -10 -19 -25 -57 -24 -106
-4 -53 22 26 13 45 13 72 3z"/>
</g>
</svg>
