<?xml version="1.0" standalone="no"?>
<!DOCTYPE svg PUBLIC "-//W3C//DTD SVG 20010904//EN"
 "http://www.w3.org/TR/2001/REC-SVG-20010904/DTD/svg10.dtd">
<svg version="1.0" xmlns="http://www.w3.org/2000/svg"
 width="117.000000pt" height="219.000000pt" viewBox="0 0 117.000000 219.000000"
 preserveAspectRatio="xMidYMid meet">
<metadata>
Created by potrace 1.16, written by Peter Selinger 2001-2019
</metadata>
<g transform="translate(0.000000,219.000000) scale(0.100000,-0.100000)"
fill="#000000" stroke="none">
<path d="M676 1817 l-78 -72 48 -35 c27 -19 66 -50 87 -69 l37 -33 -1 98 c0
55 -4 118 -7 141 l-7 42 -79 -72z"/>
<path d="M416 1666 l-79 -72 56 -42 c31 -23 68 -54 81 -69 14 -15 28 -24 32
-20 4 3 3 67 -2 141 l-9 135 -79 -73z"/>
<path d="M668 1481 c-42 -36 -77 -69 -77 -73 -1 -4 20 -21 47 -39 26 -18 64
-48 85 -67 l37 -36 -1 94 c0 52 -4 116 -7 141 l-7 47 -77 -67z"/>
<path d="M650 928 c-90 -60 -89 -173 1 -240 33 -25 109 -26 150 -2 78 46 91
156 26 222 -30 30 -44 36 -89 40 -44 3 -59 0 -88 -20z m160 -74 c0 -2 -11 -4
-25 -4 -14 0 -25 4 -25 9 0 4 11 6 25 3 14 -2 25 -6 25 -8z m-73 -10 c-3 -3
-12 -4 -19 -1 -8 3 -5 6 6 6 11 1 17 -2 13 -5z m-24 -71 c-7 -2 -19 -2 -25 0
-7 3 -2 5 12 5 14 0 19 -2 13 -5z m87 -13 c0 -5 -9 -10 -20 -10 -11 0 -20 5
-20 10 0 6 9 10 20 10 11 0 20 -4 20 -10z m-83 -16 c-3 -3 -12 -4 -19 -1 -8 3
-5 6 6 6 11 1 17 -2 13 -5z"/>
<path d="M380 742 c-128 -64 -95 -250 48 -269 56 -7 116 25 143 79 63 123 -67
253 -191 190z m68 -59 c-10 -2 -26 -2 -35 0 -10 3 -2 5 17 5 19 0 27 -2 18 -5z
m71 -7 c-2 -2 -20 -6 -39 -10 -25 -4 -31 -3 -20 4 14 9 69 15 59 6z m1 -102
c0 -2 -12 -4 -26 -4 -14 0 -23 4 -20 9 6 8 46 4 46 -5z m-73 -10 c-3 -3 -12
-4 -19 -1 -8 3 -5 6 6 6 11 1 17 -2 13 -5z"/>
<path d="M653 561 c-67 -42 -88 -113 -54 -183 26 -54 65 -78 128 -78 138 0
192 153 89 249 -36 34 -118 40 -163 12z m150 -68 c-7 -2 -21 -2 -30 0 -10 3
-4 5 12 5 17 0 24 -2 18 -5z m-60 -10 c-7 -2 -19 -2 -25 0 -7 3 -2 5 12 5 14
0 19 -2 13 -5z m-36 -69 c-3 -3 -12 -4 -19 -1 -8 3 -5 6 6 6 11 1 17 -2 13 -5z
m93 -14 c0 -5 -9 -10 -20 -10 -11 0 -20 5 -20 10 0 6 9 10 20 10 11 0 20 -4
20 -10z m-83 -16 c-3 -3 -12 -4 -19 -1 -8 3 -5 6 6 6 11 1 17 -2 13 -5z"/>
</g>
</svg>
