<?xml version="1.0" standalone="no"?>
<!DOCTYPE svg PUBLIC "-//W3C//DTD SVG 20010904//EN"
 "http://www.w3.org/TR/2001/REC-SVG-20010904/DTD/svg10.dtd">
<svg version="1.0" xmlns="http://www.w3.org/2000/svg"
 width="179.000000pt" height="100.000000pt" viewBox="0 0 179.000000 100.000000"
 preserveAspectRatio="xMidYMid meet">
<metadata>
Created by potrace 1.16, written by Peter Selinger 2001-2019
</metadata>
<g transform="translate(0.000000,100.000000) scale(0.100000,-0.100000)"
fill="#000000" stroke="none">
<path d="M492 683 c-19 -9 -46 -32 -60 -51 -15 -18 -51 -44 -79 -57 -70 -32
-72 -57 -5 -102 67 -46 119 -61 222 -67 49 -3 109 -10 132 -16 53 -13 178 -71
178 -82 0 -24 256 8 448 58 132 33 186 53 150 54 -9 0 -93 -13 -187 -30 -94
-16 -228 -34 -297 -40 -108 -10 -128 -10 -142 3 -22 19 -106 61 -154 76 -21 7
-79 13 -130 15 -78 2 -101 7 -144 28 -27 15 -56 33 -63 42 -11 13 -7 18 26 32
41 18 118 21 260 9 71 -6 93 -4 155 16 124 39 257 16 552 -96 66 -25 122 -43
124 -40 8 8 4 10 -103 55 -127 54 -214 84 -340 117 -127 32 -126 32 -150 17
-11 -7 -42 -18 -69 -24 -49 -11 -50 -10 -85 24 -75 71 -168 94 -239 59z m169
-50 c65 -33 71 -38 49 -43 -14 -3 -56 -1 -95 4 -38 5 -91 10 -117 10 -39 1
-44 3 -35 15 21 25 71 51 98 51 15 0 60 -17 100 -37z"/>
</g>
</svg>
