<?xml version="1.0" standalone="no"?>
<!DOCTYPE svg PUBLIC "-//W3C//DTD SVG 20010904//EN"
 "http://www.w3.org/TR/2001/REC-SVG-20010904/DTD/svg10.dtd">
<svg version="1.0" xmlns="http://www.w3.org/2000/svg"
 width="179.000000pt" height="119.000000pt" viewBox="0 0 179.000000 119.000000"
 preserveAspectRatio="xMidYMid meet">
<metadata>
Created by potrace 1.16, written by Peter Selinger 2001-2019
</metadata>
<g transform="translate(0.000000,119.000000) scale(0.100000,-0.100000)"
fill="#000000" stroke="none">
<path d="M472 878 c-8 -10 8 -34 67 -98 l78 -85 -60 -12 c-34 -7 -62 -12 -63
-10 -137 176 -167 208 -182 193 -13 -13 -6 -25 73 -111 70 -76 86 -98 74 -106
-8 -5 -17 -9 -21 -9 -3 0 -20 -12 -37 -26 -46 -38 -43 -81 8 -127 21 -19 48
-38 60 -42 12 -3 21 -9 21 -13 0 -4 -43 -29 -95 -57 -52 -27 -93 -54 -92 -60
8 -24 42 -13 130 43 92 57 94 58 130 46 116 -40 274 -37 522 12 134 26 394 90
403 99 14 14 -10 12 -76 -4 l-71 -19 -143 64 -143 63 -70 85 c-88 107 -82 101
-100 86 -14 -12 -12 -18 22 -54 21 -23 49 -53 62 -68 l24 -27 -69 19 c-73 21
-75 23 -169 138 -27 34 -55 62 -62 62 -31 0 -19 -26 41 -92 36 -40 64 -73 63
-74 -1 0 -36 2 -78 5 l-76 6 -72 90 c-40 50 -76 91 -80 93 -4 1 -13 -3 -19
-10z m379 -236 c19 -6 66 -18 104 -28 39 -9 81 -24 95 -32 14 -9 30 -15 37
-14 11 2 97 -28 178 -63 l40 -18 -94 -18 c-178 -34 -316 -52 -426 -53 -110 -1
-215 17 -215 36 0 5 -6 8 -12 5 -17 -6 -96 34 -137 69 -26 21 -29 29 -19 41
20 24 107 64 172 78 68 15 224 13 277 -3z"/>
</g>
</svg>
