<?xml version="1.0" standalone="no"?>
<!DOCTYPE svg PUBLIC "-//W3C//DTD SVG 20010904//EN"
 "http://www.w3.org/TR/2001/REC-SVG-20010904/DTD/svg10.dtd">
<svg version="1.0" xmlns="http://www.w3.org/2000/svg"
 width="167.000000pt" height="148.000000pt" viewBox="0 0 167.000000 148.000000"
 preserveAspectRatio="xMidYMid meet">
<metadata>
Created by potrace 1.16, written by Peter Selinger 2001-2019
</metadata>
<g transform="translate(0.000000,148.000000) scale(0.100000,-0.100000)"
fill="#000000" stroke="none">
<path d="M614 1036 l7 -144 -68 -38 c-37 -20 -83 -47 -101 -60 -30 -19 -37
-20 -59 -9 -64 33 -126 -52 -73 -100 21 -19 66 -23 82 -7 7 7 26 0 62 -22 28
-19 75 -45 104 -60 l52 -27 -6 -134 -7 -135 72 0 c81 0 95 14 22 24 l-48 6 -7
62 c-3 33 -6 85 -6 114 0 52 1 53 23 43 21 -9 22 -16 22 -107 l0 -97 54 -3
c72 -4 89 14 22 23 l-51 7 0 79 c0 43 1 79 3 79 1 0 24 -7 51 -15 63 -19 146
-19 219 0 32 8 60 15 62 15 3 0 5 -52 5 -115 l0 -115 70 0 c83 0 93 15 16 24
l-53 7 -6 107 c-3 58 -5 107 -4 108 1 1 13 5 25 9 l24 7 -7 -91 c-9 -126 -7
-131 66 -131 72 0 78 16 9 25 l-50 7 0 102 0 102 38 18 c57 27 192 109 192
118 0 4 -51 -19 -112 -52 -226 -118 -374 -147 -518 -100 -102 34 -310 148
-310 170 0 13 173 114 240 140 112 45 152 53 235 47 108 -7 244 -56 394 -141
35 -20 66 -34 69 -32 5 6 -77 59 -166 107 l-62 34 2 110 3 110 40 3 c63 5 63
20 0 27 -44 6 -59 4 -66 -6 -5 -8 -6 -65 -3 -127 l5 -112 -27 12 c-25 12 -26
14 -20 72 3 32 6 85 6 117 l0 59 43 0 c52 0 80 14 45 23 -12 4 -44 7 -70 7
l-48 0 0 -130 0 -129 -42 15 c-70 25 -155 28 -226 10 -35 -9 -66 -16 -68 -16
-2 0 -4 41 -4 90 l0 90 44 0 c25 0 47 4 51 9 6 11 -99 26 -115 16 -7 -4 -10
-43 -9 -112 1 -103 -4 -122 -33 -123 -10 0 -10 105 -2 189 l7 61 41 0 c51 0
78 14 44 23 -12 4 -47 7 -77 7 l-54 0 7 -144z"/>
</g>
</svg>
