<?xml version="1.0" standalone="no"?>
<!DOCTYPE svg PUBLIC "-//W3C//DTD SVG 20010904//EN"
 "http://www.w3.org/TR/2001/REC-SVG-20010904/DTD/svg10.dtd">
<svg version="1.0" xmlns="http://www.w3.org/2000/svg"
 width="201.000000pt" height="117.000000pt" viewBox="0 0 201.000000 117.000000"
 preserveAspectRatio="xMidYMid meet">
<metadata>
Created by potrace 1.16, written by Peter Selinger 2001-2019
</metadata>
<g transform="translate(0.000000,117.000000) scale(0.100000,-0.100000)"
fill="#000000" stroke="none">
<path d="M1436 837 c-7 -19 -17 -44 -21 -57 -7 -22 -10 -22 -89 -16 -186 14
-484 18 -572 7 -137 -17 -176 -34 -259 -112 -40 -38 -78 -69 -85 -69 -26 0
-78 -41 -94 -74 -36 -76 -8 -162 64 -198 95 -48 207 16 215 123 3 40 6 45 41
61 72 31 195 41 438 35 125 -3 231 -8 233 -11 3 -3 -5 -30 -17 -61 -31 -78
-16 -83 18 -6 l27 63 70 -7 c39 -4 72 -8 74 -11 2 -2 -10 -41 -27 -86 -17 -45
-29 -84 -25 -87 3 -3 7 -1 10 4 2 6 19 44 38 85 l35 75 62 -2 c99 -4 108 -8
108 -48 0 -18 4 -36 9 -39 11 -7 21 93 21 214 0 106 -2 109 -68 110 -21 0 -23
4 -17 29 9 42 -19 49 -36 9 l-12 -30 -66 7 c-36 4 -67 8 -69 10 -2 2 6 22 18
45 21 41 21 70 0 70 -5 0 -16 -15 -24 -33z m-48 -111 c1 -2 -12 -42 -30 -90
l-33 -87 -100 8 c-55 4 -199 8 -320 8 -191 0 -227 -2 -271 -19 l-50 -19 -47
36 -46 35 43 40 c76 70 105 80 280 92 93 7 565 3 574 -4z m160 -59 c-11 -29
-28 -72 -37 -96 l-16 -43 -69 6 c-39 4 -71 8 -73 10 -2 2 8 30 23 62 14 33 32
73 39 89 13 30 14 30 84 27 l70 -4 -21 -51z m132 -63 l0 -106 -47 6 c-27 4
-62 9 -79 12 l-32 6 41 94 42 94 37 0 38 0 0 -106z"/>
</g>
</svg>
