<?xml version="1.0" standalone="no"?>
<!DOCTYPE svg PUBLIC "-//W3C//DTD SVG 20010904//EN"
 "http://www.w3.org/TR/2001/REC-SVG-20010904/DTD/svg10.dtd">
<svg version="1.0" xmlns="http://www.w3.org/2000/svg"
 width="251.000000pt" height="161.000000pt" viewBox="0 0 251.000000 161.000000"
 preserveAspectRatio="xMidYMid meet">
<metadata>
Created by potrace 1.16, written by Peter Selinger 2001-2019
</metadata>
<g transform="translate(0.000000,161.000000) scale(0.100000,-0.100000)"
fill="#000000" stroke="none">
<path d="M1340 1300 c0 -15 -44 -40 -122 -68 -66 -23 -87 -26 -213 -26 -112 1
-154 5 -209 21 -38 12 -76 19 -84 16 -12 -5 -13 -38 -9 -214 3 -114 8 -212 11
-218 4 -6 26 -3 62 9 75 26 194 41 280 35 108 -7 275 -64 286 -97 3 -9 52 2
179 41 298 91 689 222 689 229 0 8 -839 282 -864 282 -3 0 -6 -4 -6 -10z m475
-171 c138 -39 275 -78 304 -86 l55 -16 -180 -49 c-98 -27 -277 -78 -397 -113
-119 -36 -220 -65 -223 -65 -4 0 1 449 5 456 1 1 43 -11 94 -27 50 -16 205
-61 342 -100z m-485 114 c1 -5 3 -60 5 -123 3 -63 7 -163 10 -221 l5 -106 -87
43 c-48 24 -94 44 -102 44 -11 0 -13 14 -7 77 3 42 6 108 6 148 l0 72 38 11
c20 7 55 23 77 36 44 26 55 30 55 19z m-507 -63 l57 -11 0 -78 c0 -43 3 -106
6 -139 5 -48 4 -62 -7 -66 -8 -2 -45 -10 -83 -19 l-69 -15 7 52 c3 28 6 107 6
175 0 96 3 122 13 118 7 -2 38 -10 70 -17z m161 -103 c13 -177 10 -187 -51
-187 -26 0 -26 0 -20 68 4 37 7 99 7 138 l0 71 29 -5 c28 -4 28 -5 35 -85z
m141 -185 c-2 -2 -27 -1 -57 3 l-53 7 3 128 3 129 47 3 47 3 7 -135 c3 -74 5
-136 3 -138z"/>
<path d="M310 905 c-9 -11 -11 -84 -8 -299 3 -156 8 -289 12 -295 8 -12 5 -14
164 122 l91 77 44 -31 c27 -19 62 -33 88 -36 l44 -5 0 146 0 146 -31 0 c-17 0
-51 -11 -75 -23 l-44 -24 -137 118 c-115 100 -138 116 -148 104z m230 -214
c19 -14 36 -25 38 -26 1 -1 -5 -18 -13 -39 -8 -20 -13 -46 -10 -59 5 -19 -8
-33 -80 -92 -48 -39 -100 -81 -116 -94 l-29 -24 0 252 0 251 88 -72 c48 -40
103 -84 122 -97z m127 -15 c-20 -31 -23 -33 -40 -18 -17 15 -16 17 15 34 47
24 50 22 25 -16z m-49 -37 c26 -16 17 -52 -19 -73 l-29 -17 0 31 c0 29 15 70
25 70 3 0 13 -5 23 -11z m22 -93 c0 -7 11 -30 25 -50 28 -42 24 -44 -25 -15
-46 28 -52 40 -33 61 19 21 33 23 33 4z"/>
</g>
</svg>
