<?xml version="1.0" standalone="no"?>
<!DOCTYPE svg PUBLIC "-//W3C//DTD SVG 20010904//EN"
 "http://www.w3.org/TR/2001/REC-SVG-20010904/DTD/svg10.dtd">
<svg version="1.0" xmlns="http://www.w3.org/2000/svg"
 width="210.000000pt" height="173.000000pt" viewBox="0 0 210.000000 173.000000"
 preserveAspectRatio="xMidYMid meet">
<metadata>
Created by potrace 1.16, written by Peter Selinger 2001-2019
</metadata>
<g transform="translate(0.000000,173.000000) scale(0.100000,-0.100000)"
fill="#000000" stroke="none">
<path d="M1036 1423 c-4 -5 -11 -8 -14 -8 -15 -1 -85 -43 -229 -137 l-151 -99
-171 3 c-169 3 -171 3 -171 -18 0 -12 6 -24 14 -27 9 -3 16 -30 20 -74 4 -37
18 -147 32 -243 32 -235 34 -220 -21 -220 -39 0 -45 -3 -45 -22 0 -21 1 -21
179 -15 134 4 179 2 175 -6 -2 -7 49 -46 114 -89 152 -99 252 -159 252 -152 0
4 6 1 14 -5 12 -10 33 2 113 62 54 41 128 99 165 129 l67 55 202 7 c111 3 206
10 213 13 15 10 -35 20 -101 22 -56 1 -65 11 -62 67 1 28 -8 124 -16 174 -2
14 -7 60 -11 103 -3 43 -9 103 -14 135 -4 31 -6 59 -4 61 2 2 36 5 76 8 218
12 161 31 -100 32 l-193 1 -77 63 c-84 69 -238 187 -245 187 -2 0 -7 -3 -11
-7z m14 -58 c0 -7 -15 -9 -36 -7 -33 4 -34 5 -18 23 13 15 20 16 35 6 10 -6
19 -17 19 -22z m313 -211 c-3 -7 -286 -194 -289 -191 -2 2 0 89 3 193 l6 191
141 -94 c78 -52 140 -96 139 -99z m-415 -88 l-3 -95 -124 92 c-102 76 -120 93
-101 95 16 3 19 6 10 12 -10 6 -8 10 6 18 11 6 62 42 114 81 l95 72 3 -90 c1
-50 1 -133 0 -185z m102 249 c0 -10 -11 -15 -35 -15 -24 0 -35 5 -35 15 0 10
11 15 35 15 24 0 35 -5 35 -15z m0 -58 c0 -20 -4 -23 -35 -19 -39 5 -48 28
-12 35 43 8 47 7 47 -16z m0 -77 c0 -28 -2 -30 -40 -30 -42 0 -43 1 -34 38 5
17 14 22 40 22 31 0 34 -3 34 -30z m-395 -42 c-2 -8 39 -41 98 -80 152 -99
267 -169 267 -162 0 4 6 1 14 -5 11 -9 36 5 122 70 60 45 135 104 167 131 48
39 66 48 98 48 21 0 39 -3 39 -7 0 -12 58 -441 66 -490 l7 -43 -83 0 -82 0
-51 44 c-29 24 -101 80 -161 125 -86 65 -111 79 -122 70 -8 -6 -14 -9 -14 -5
0 7 -165 -94 -289 -178 -83 -56 -85 -56 -159 -56 l-74 0 4 45 c2 25 0 45 -5
45 -4 0 -8 17 -7 38 0 20 -4 73 -10 117 -6 44 -12 107 -15 140 -3 33 -8 81
-10 107 l-5 47 53 4 c124 8 156 7 152 -5z m-240 -8 c4 -6 -7 -10 -24 -10 -17
0 -31 5 -31 10 0 6 11 10 24 10 14 0 28 -4 31 -10z m1135 0 c0 -5 -13 -10 -30
-10 -16 0 -30 5 -30 10 0 6 14 10 30 10 17 0 30 -4 30 -10z m-503 -47 c-3 -2
-21 -1 -41 2 -48 9 -47 33 2 37 29 2 38 -1 40 -15 2 -10 1 -21 -1 -24z m-627
-2 c0 -5 3 -16 6 -25 5 -13 -1 -16 -25 -16 -17 0 -31 4 -31 9 0 5 -3 16 -6 25
-5 13 1 16 25 16 17 0 31 -4 31 -9z m1140 -16 c0 -21 -5 -25 -30 -25 -25 0
-30 4 -30 25 0 21 5 25 30 25 25 0 30 -4 30 -25z m-510 -30 c0 -22 -4 -25 -40
-25 -36 0 -40 3 -40 25 0 23 4 25 40 25 36 0 40 -2 40 -25z m-617 -41 c4 -23
2 -25 -27 -22 -23 2 -32 8 -34 26 -3 18 1 22 26 22 24 0 31 -5 35 -26z m1135
-1 c3 -20 -1 -23 -27 -23 -27 0 -31 4 -31 26 0 22 4 25 28 22 19 -2 28 -9 30
-25z m-518 -26 c0 -13 -8 -31 -17 -40 -17 -14 -20 -13 -45 8 -43 37 -34 51 35
54 22 1 27 -3 27 -22z m-610 -42 c0 -21 -5 -25 -30 -25 -41 0 -43 37 -2 43 15
2 28 5 30 6 1 0 2 -10 2 -24z m1140 -6 c0 -27 -56 -27 -63 0 -4 16 1 21 22 23
34 5 41 1 41 -23z m-1130 -64 c0 -21 -5 -25 -30 -25 -25 0 -30 4 -30 25 0 21
5 25 30 25 25 0 30 -4 30 -25z m1130 16 c0 -5 3 -17 6 -26 6 -14 1 -16 -27
-13 -26 2 -35 8 -37 26 -3 19 1 22 27 22 17 0 31 -4 31 -9z m-530 -93 c0 -4
-16 -8 -35 -8 -39 0 -42 5 -18 32 15 17 17 17 35 2 10 -10 18 -21 18 -26z
m-590 7 c0 -23 -3 -25 -27 -19 -51 13 -53 44 -2 44 24 0 29 -4 29 -25z m1135
4 c9 -26 7 -28 -32 -22 -24 4 -33 11 -33 24 0 28 56 27 65 -2z m-236 -216 c-3
-10 -280 -195 -285 -190 -2 1 0 88 3 192 l6 190 139 -92 c76 -51 138 -96 137
-100z m-411 -88 l-3 -96 -95 72 c-52 39 -107 78 -122 87 -16 9 -28 20 -28 25
0 4 4 6 8 3 4 -2 14 -1 22 5 12 7 12 9 1 9 -7 0 38 38 100 85 l114 84 3 -89
c1 -49 1 -132 0 -185z m102 245 c0 -16 -7 -20 -35 -20 -37 0 -50 25 -17 33 38
10 52 7 52 -13z m-580 -10 c0 -16 -7 -20 -35 -20 -28 0 -35 4 -35 20 0 16 7
20 35 20 28 0 35 -4 35 -20z m1133 0 c4 -17 0 -20 -29 -20 -27 0 -34 4 -34 20
0 15 7 20 29 20 20 0 30 -6 34 -20z m-553 -50 c0 -16 -7 -20 -35 -20 -28 0
-35 4 -35 20 0 16 7 20 35 20 28 0 35 -4 35 -20z m-570 -35 c0 -33 -2 -35 -35
-35 -33 0 -35 2 -35 35 0 33 2 35 35 35 33 0 35 -2 35 -35z m1134 19 c15 -39
7 -54 -28 -54 -33 0 -45 15 -46 58 0 19 67 16 74 -4z m-564 -59 c0 -34 -1 -35
-40 -35 -38 0 -41 2 -38 28 2 19 10 29 28 33 46 12 50 10 50 -26z m0 -75 c0
-17 -7 -20 -40 -20 -28 0 -40 4 -40 14 0 17 15 24 53 25 21 1 27 -4 27 -19z
m-2 -94 c-2 -2 -20 -1 -40 2 -28 3 -38 9 -38 22 0 14 9 20 38 22 32 3 37 0 40
-20 2 -13 2 -25 0 -26z m2 -49 c0 -12 -8 -27 -18 -33 -14 -9 -23 -7 -46 11
-36 28 -27 45 25 45 34 0 39 -3 39 -23z"/>
</g>
</svg>
