<?xml version="1.0" standalone="no"?>
<!DOCTYPE svg PUBLIC "-//W3C//DTD SVG 20010904//EN"
 "http://www.w3.org/TR/2001/REC-SVG-20010904/DTD/svg10.dtd">
<svg version="1.0" xmlns="http://www.w3.org/2000/svg"
 width="214.000000pt" height="123.000000pt" viewBox="0 0 214.000000 123.000000"
 preserveAspectRatio="xMidYMid meet">
<metadata>
Created by potrace 1.16, written by Peter Selinger 2001-2019
</metadata>
<g transform="translate(0.000000,123.000000) scale(0.100000,-0.100000)"
fill="#000000" stroke="none">
<path d="M304 642 c9 -346 8 -334 22 -339 6 -2 83 70 170 161 l159 165 95 -74
c106 -83 136 -91 45 -12 -33 29 -73 64 -89 78 l-30 27 63 71 c77 87 68 94 -14
11 -33 -33 -65 -59 -72 -58 -7 2 -80 58 -163 126 -83 68 -160 125 -172 127
l-21 4 7 -287z m54 216 c9 -9 12 -76 12 -242 0 -214 -2 -233 -20 -256 -20 -25
-20 -25 -20 243 0 147 4 267 8 267 4 0 13 -5 20 -12z m72 -232 c0 -170 -1
-184 -20 -201 -20 -18 -20 -17 -20 194 0 209 0 212 20 201 19 -10 20 -21 20
-194z m48 142 c8 -8 12 -53 12 -138 0 -114 -2 -129 -20 -145 -20 -18 -20 -17
-20 138 0 87 4 157 8 157 4 0 13 -5 20 -12z m92 -132 c0 -54 -3 -65 -25 -84
-14 -12 -27 -22 -30 -22 -3 0 -5 48 -5 106 l0 105 30 -21 c28 -20 30 -26 30
-84z m45 -16 c-26 -29 -31 -25 -27 21 l4 41 21 -21 c20 -20 20 -21 2 -41z"/>
<path d="M1203 860 c-169 -44 -264 -97 -284 -158 -15 -45 -4 -127 24 -177 32
-57 75 -78 171 -83 95 -5 480 23 615 44 76 12 96 12 103 2 4 -7 8 35 8 93 l0
107 -192 -4 c-106 -2 -214 -6 -239 -9 l-47 -4 -7 92 c-8 107 -12 127 -28 127
-7 -1 -63 -14 -124 -30z m127 -130 c7 -71 16 -127 21 -124 5 3 9 13 9 23 0 17
15 19 188 25 103 4 208 9 235 12 l47 6 0 -79 0 -79 -337 -23 c-186 -13 -340
-27 -343 -31 -7 -11 -111 18 -140 38 -42 30 -60 79 -60 159 0 39 3 74 8 76 4
3 7 -18 8 -47 1 -63 26 -119 62 -135 14 -7 57 -15 95 -18 l69 -6 -5 39 c-3 21
-9 71 -12 109 -8 100 -15 125 -31 125 -11 0 -14 -8 -10 -32 3 -18 10 -62 16
-98 6 -36 13 -78 16 -94 l6 -29 -50 6 c-99 12 -124 39 -136 148 l-5 47 57 25
c31 14 100 38 152 52 52 15 100 28 105 30 6 2 13 4 16 4 3 1 12 -57 19 -129z"/>
</g>
</svg>
