<?xml version="1.0" standalone="no"?>
<!DOCTYPE svg PUBLIC "-//W3C//DTD SVG 20010904//EN"
 "http://www.w3.org/TR/2001/REC-SVG-20010904/DTD/svg10.dtd">
<svg version="1.0" xmlns="http://www.w3.org/2000/svg"
 width="179.000000pt" height="126.000000pt" viewBox="0 0 179.000000 126.000000"
 preserveAspectRatio="xMidYMid meet">
<metadata>
Created by potrace 1.16, written by Peter Selinger 2001-2019
</metadata>
<g transform="translate(0.000000,126.000000) scale(0.100000,-0.100000)"
fill="#000000" stroke="none">
<path d="M1430 928 c-25 -16 -78 -46 -117 -66 -40 -20 -73 -43 -73 -50 0 -8
-21 4 -50 28 -46 39 -50 40 -72 26 -38 -24 -195 -86 -220 -86 -12 0 -40 17
-63 39 -22 22 -75 58 -118 81 l-78 42 -69 -16 c-85 -19 -131 -42 -192 -95 -81
-72 -98 -175 -49 -301 33 -88 140 -157 270 -175 31 -4 56 -3 60 2 3 5 40 32
81 60 42 28 82 58 89 67 25 30 90 20 197 -31 55 -25 101 -50 102 -55 2 -4 19
5 39 21 l35 29 66 -37 c37 -20 93 -54 126 -75 32 -20 60 -35 63 -33 6 7 -124
109 -180 141 l-47 27 54 67 c30 37 53 69 51 71 -2 2 -48 -38 -102 -88 -54 -50
-101 -91 -105 -91 -4 0 -47 22 -94 49 -47 28 -99 53 -115 56 l-29 7 20 25 c31
40 14 41 -28 2 -53 -50 -105 -89 -198 -146 l-81 -50 -60 22 c-61 22 -131 69
-157 107 -8 11 -19 18 -24 14 -9 -5 -36 103 -28 111 2 2 139 7 305 12 166 5
304 11 307 13 6 7 -276 18 -458 18 l-159 0 7 23 c27 88 94 153 204 195 l61 24
56 -23 c82 -33 164 -91 218 -155 47 -55 72 -67 41 -20 -21 33 -21 33 18 39 19
3 71 26 116 52 l83 47 96 -97 96 -96 -55 5 c-30 3 -104 8 -164 12 -89 5 -108
4 -104 -7 4 -11 42 -15 171 -17 92 -1 167 1 167 5 0 5 -21 35 -46 67 -53 67
-53 65 31 108 47 24 164 110 165 121 0 12 -13 7 -60 -25z"/>
</g>
</svg>
