<?xml version="1.0" standalone="no"?>
<!DOCTYPE svg PUBLIC "-//W3C//DTD SVG 20010904//EN"
 "http://www.w3.org/TR/2001/REC-SVG-20010904/DTD/svg10.dtd">
<svg version="1.0" xmlns="http://www.w3.org/2000/svg"
 width="169.000000pt" height="156.000000pt" viewBox="0 0 169.000000 156.000000"
 preserveAspectRatio="xMidYMid meet">
<metadata>
Created by potrace 1.16, written by Peter Selinger 2001-2019
</metadata>
<g transform="translate(0.000000,156.000000) scale(0.100000,-0.100000)"
fill="#000000" stroke="none">
<path d="M614 1246 c-54 -11 -88 -32 -78 -47 13 -21 32 -155 23 -164 -12 -12
-12 -45 1 -45 21 0 -1 -208 -26 -245 -25 -35 -16 -137 23 -296 20 -82 41 -149
45 -149 5 0 6 10 3 23 -14 62 -55 308 -55 330 0 14 11 72 25 129 14 57 28 131
31 165 l7 62 55 7 c91 11 263 -1 307 -22 56 -26 121 -23 275 15 74 19 137 36
139 37 16 14 -23 10 -144 -11 -172 -31 -174 -31 -315 1 -94 21 -134 25 -220
22 l-105 -3 -7 50 c-4 27 -9 60 -13 72 -4 19 0 23 47 32 29 5 73 12 98 15 55
7 219 -16 280 -39 51 -19 61 -18 245 28 141 34 141 34 133 42 -3 3 -69 -6
-146 -20 -172 -31 -172 -31 -307 0 -120 27 -233 31 -321 11z"/>
<path d="M320 1212 c0 -4 7 -39 15 -77 24 -116 13 -367 -18 -387 -6 -3 -13
-34 -15 -67 -3 -47 4 -95 33 -213 21 -84 42 -157 48 -163 6 -7 7 4 2 30 -62
346 -61 292 -9 528 28 129 5 357 -37 357 -11 0 -19 -3 -19 -8z"/>
</g>
</svg>
