<?xml version="1.0" standalone="no"?>
<!DOCTYPE svg PUBLIC "-//W3C//DTD SVG 20010904//EN"
 "http://www.w3.org/TR/2001/REC-SVG-20010904/DTD/svg10.dtd">
<svg version="1.0" xmlns="http://www.w3.org/2000/svg"
 width="194.000000pt" height="126.000000pt" viewBox="0 0 194.000000 126.000000"
 preserveAspectRatio="xMidYMid meet">
<metadata>
Created by potrace 1.16, written by Peter Selinger 2001-2019
</metadata>
<g transform="translate(0.000000,126.000000) scale(0.100000,-0.100000)"
fill="#000000" stroke="none">
<path d="M1005 908 c-27 -29 -65 -80 -86 -113 l-39 -60 -142 0 -143 0 3 -55 3
-55 -150 3 c-138 4 -151 2 -151 -14 0 -16 12 -17 150 -11 l150 6 0 -59 0 -59
143 6 142 5 44 -61 c37 -51 135 -141 154 -141 10 0 532 302 547 317 13 13 13
16 -4 28 -42 31 -524 304 -547 310 -22 5 -33 -1 -74 -47z m300 -111 c127 -67
249 -131 273 -141 23 -10 42 -22 42 -25 0 -4 -35 -24 -77 -45 -43 -21 -168
-88 -278 -148 l-200 -110 -53 57 c-56 61 -106 149 -117 208 -10 54 12 129 57
194 40 57 107 133 118 133 3 0 109 -55 235 -123z m-441 -140 c-3 -29 -1 -70 5
-92 6 -21 9 -40 7 -42 -2 -2 -60 0 -130 3 l-126 7 0 36 c0 20 3 60 6 89 l7 52
118 0 119 0 -6 -53z"/>
<path d="M1154 766 c-91 -52 -164 -110 -164 -130 0 -15 28 -40 101 -89 86 -58
104 -66 118 -55 47 36 171 140 171 144 0 3 -179 154 -183 154 -1 0 -20 -11
-43 -24z m115 -68 l90 -62 -37 -24 c-20 -14 -60 -43 -89 -64 l-52 -40 -81 63
c-44 34 -77 66 -73 70 19 17 146 119 149 119 2 0 44 -28 93 -62z"/>
</g>
</svg>
