<?xml version="1.0" standalone="no"?>
<!DOCTYPE svg PUBLIC "-//W3C//DTD SVG 20010904//EN"
 "http://www.w3.org/TR/2001/REC-SVG-20010904/DTD/svg10.dtd">
<svg version="1.0" xmlns="http://www.w3.org/2000/svg"
 width="148.000000pt" height="444.000000pt" viewBox="0 0 148.000000 444.000000"
 preserveAspectRatio="xMidYMid meet">
<metadata>
Created by potrace 1.16, written by Peter Selinger 2001-2019
</metadata>
<g transform="translate(0.000000,444.000000) scale(0.100000,-0.100000)"
fill="#000000" stroke="none">
<path d="M1089 4126 c-53 -19 -96 -52 -111 -86 -10 -24 -19 -30 -43 -30 -66 0
-185 -83 -185 -128 0 -7 -13 -12 -29 -12 -65 0 -149 -47 -176 -100 -19 -37
-19 -93 0 -130 27 -53 111 -100 176 -100 l29 0 0 125 0 126 32 -37 c39 -44 99
-73 151 -74 l37 0 0 118 1 117 21 -29 c26 -34 110 -76 156 -76 l32 0 0 165 0
165 -27 0 c-16 -1 -44 -7 -64 -14z m24 -38 c-27 -50 -25 -181 4 -230 l21 -36
-31 9 c-81 23 -146 100 -132 157 12 48 45 90 88 111 61 30 71 28 50 -11z
m-210 -124 c-11 -18 -18 -53 -21 -108 -3 -67 0 -88 17 -120 l20 -38 -31 6
c-40 8 -94 49 -113 86 -34 65 -3 138 75 178 60 30 75 29 53 -4z m-223 -156
c-12 -27 -20 -65 -20 -103 0 -38 8 -76 20 -102 17 -40 18 -43 2 -43 -26 0 -93
42 -114 71 -32 42 -34 98 -6 139 24 36 90 80 120 80 16 0 15 -3 -2 -42z"/>
<path d="M1092 3761 c-54 -19 -107 -60 -117 -92 -4 -11 -21 -20 -48 -24 -74
-13 -157 -68 -172 -115 -4 -11 -20 -20 -47 -24 -58 -9 -129 -50 -155 -89 -16
-23 -23 -48 -23 -80 0 -41 5 -53 40 -91 38 -41 112 -76 161 -76 13 0 19 -7 19
-21 0 -34 78 -105 130 -119 65 -17 73 -23 82 -57 16 -61 111 -123 191 -123
l27 0 0 465 c0 527 9 480 -88 446z m27 -36 c-28 -47 -35 -136 -15 -200 8 -27
13 -51 11 -53 -10 -10 -57 11 -90 39 -46 41 -62 93 -42 141 16 38 64 79 112
96 45 16 46 15 24 -23z m-199 -98 c0 -1 -9 -20 -20 -42 -24 -48 -27 -149 -5
-202 20 -47 20 -46 -16 -39 -106 21 -152 144 -82 219 31 32 123 81 123 64z
m131 -152 c27 -9 24 -18 -12 -39 -17 -10 -39 -32 -50 -50 l-19 -31 0 98 0 98
31 -35 c16 -19 39 -38 50 -41z m-371 -27 c-27 -59 -27 -161 0 -213 11 -21 18
-40 16 -43 -9 -9 -93 38 -121 67 -25 27 -30 41 -30 81 0 40 5 54 30 81 26 27
95 68 117 69 4 0 -2 -19 -12 -42z m450 -2 c0 -2 -7 -17 -15 -32 -19 -37 -20
-154 -1 -199 13 -29 12 -34 0 -39 -38 -15 -122 61 -131 117 -8 50 13 94 60
128 33 24 87 40 87 25z m-306 -95 c26 -14 35 -31 16 -31 -5 0 -28 -18 -50 -40
l-40 -40 0 97 0 98 24 -35 c13 -20 35 -42 50 -49z m86 -35 c0 -2 -7 -20 -15
-39 -22 -53 -19 -154 5 -202 11 -21 19 -40 17 -41 -9 -9 -87 31 -114 59 -48
47 -55 103 -20 155 25 38 76 71 110 72 9 0 17 -2 17 -4z m135 -165 c-11 -8
-32 -25 -47 -39 l-28 -26 0 85 0 85 48 -45 c46 -45 47 -46 27 -60z m67 3 c4
-3 -1 -22 -9 -42 -22 -52 -19 -154 5 -203 17 -35 18 -39 3 -39 -29 0 -95 44
-118 79 -44 65 -18 143 62 188 43 24 49 26 57 17z"/>
<path d="M463 3680 c-175 -35 -222 -211 -79 -295 24 -14 64 -28 89 -31 l47 -7
0 172 c0 94 -3 171 -7 170 -5 -1 -27 -5 -50 -9z m-10 -51 c-27 -53 -29 -157
-5 -213 12 -25 17 -46 11 -46 -5 0 -29 10 -54 21 -106 50 -123 165 -34 231 30
22 89 49 97 43 1 -1 -6 -17 -15 -36z"/>
<path d="M1087 2386 c-51 -19 -116 -75 -117 -102 0 -6 -22 -14 -48 -18 -63 -8
-137 -55 -159 -101 -14 -29 -22 -35 -48 -35 -46 0 -136 -49 -162 -89 -27 -40
-30 -99 -8 -141 26 -51 111 -100 171 -100 18 0 28 -9 39 -37 9 -21 23 -46 33
-57 21 -23 109 -66 137 -66 14 0 27 -15 45 -53 30 -62 89 -103 163 -113 l47
-7 0 467 0 466 -27 0 c-16 -1 -45 -7 -66 -14z m43 -9 c0 -2 -8 -19 -17 -38
-25 -50 -28 -129 -9 -190 10 -28 15 -54 12 -57 -11 -11 -89 33 -111 62 -44 60
-38 123 16 173 37 34 109 67 109 50z m-230 -169 c-24 -52 -26 -154 -5 -204 13
-31 13 -36 -1 -41 -20 -8 -91 41 -114 80 -41 66 -13 141 69 184 65 34 74 31
51 -19z m168 -118 c11 0 7 -6 -13 -19 -17 -10 -43 -33 -58 -50 l-27 -33 0 90
0 89 40 -39 c23 -21 49 -38 58 -38z m-390 -26 c-24 -56 -22 -159 4 -211 15
-31 15 -33 0 -33 -30 0 -96 44 -120 80 -44 65 -15 143 68 187 65 34 72 31 48
-23z m436 -29 c-7 -19 -14 -64 -14 -100 0 -36 7 -81 14 -100 14 -34 14 -35 -7
-35 -32 0 -84 35 -108 72 -15 25 -19 44 -16 78 4 38 12 51 47 83 28 24 52 37
71 37 l28 0 -15 -35z m-273 -70 c17 -6 15 -10 -20 -35 -21 -16 -46 -39 -55
-52 -15 -21 -16 -17 -16 75 l0 97 36 -40 c19 -21 44 -42 55 -45z m52 -63 c-20
-48 -14 -179 11 -216 16 -25 15 -26 -1 -26 -31 0 -96 44 -120 79 -44 65 -18
143 61 187 54 30 69 23 49 -24z m157 -97 c23 -7 27 -25 5 -25 -8 0 -30 -16
-50 -35 l-35 -36 0 88 0 88 30 -37 c17 -20 39 -40 50 -43z m70 -30 c0 -4 -7
-20 -16 -37 -23 -45 -21 -158 4 -209 l20 -41 -26 7 c-145 36 -177 188 -55 262
35 21 73 30 73 18z"/>
<path d="M1055 978 c-22 -11 -50 -30 -62 -41 l-23 -20 0 28 c0 27 -1 27 -41
21 -40 -6 -98 -33 -129 -58 -57 -46 -67 -128 -25 -191 14 -20 30 -37 35 -37
21 0 9 -18 -20 -30 -17 -7 -43 -27 -59 -45 -67 -76 -40 -178 60 -227 30 -14
71 -29 92 -32 l37 -5 0 145 0 144 25 0 c24 0 25 2 25 65 l0 64 25 -25 c34 -34
102 -64 148 -64 l37 0 0 165 0 165 -42 0 c-24 -1 -61 -10 -83 -22z m52 -25
c-29 -50 -31 -180 -4 -230 10 -19 13 -33 7 -33 -26 0 -83 32 -110 62 -25 27
-30 41 -30 81 0 74 42 121 130 148 14 4 26 8 27 8 1 1 -8 -16 -20 -36z m-209
-49 c-16 -37 -19 -61 -16 -118 3 -39 8 -78 12 -87 11 -25 -36 -30 -72 -7 -61
38 -77 124 -35 183 16 22 104 75 124 75 5 0 -1 -21 -13 -46z m-55 -292 c-22
-54 -21 -147 4 -204 l21 -46 -28 8 c-43 12 -65 27 -99 65 -39 44 -42 96 -8
146 22 33 102 83 118 73 4 -2 1 -21 -8 -42z"/>
<path d="M1060 614 c-84 -36 -133 -120 -110 -189 21 -63 117 -125 194 -125
l26 0 0 165 0 165 -37 0 c-21 -1 -54 -8 -73 -16z m39 -41 c-27 -56 -28 -159
-1 -214 17 -35 18 -39 3 -39 -29 0 -95 45 -119 80 -49 72 -4 171 92 203 23 8
42 14 43 13 1 -1 -7 -21 -18 -43z"/>
</g>
</svg>
