<?xml version="1.0" standalone="no"?>
<!DOCTYPE svg PUBLIC "-//W3C//DTD SVG 20010904//EN"
 "http://www.w3.org/TR/2001/REC-SVG-20010904/DTD/svg10.dtd">
<svg version="1.0" xmlns="http://www.w3.org/2000/svg"
 width="129.000000pt" height="130.000000pt" viewBox="0 0 129.000000 130.000000"
 preserveAspectRatio="xMidYMid meet">
<metadata>
Created by potrace 1.16, written by Peter Selinger 2001-2019
</metadata>
<g transform="translate(0.000000,130.000000) scale(0.100000,-0.100000)"
fill="#000000" stroke="none">
<path d="M308 995 c-10 -10 -10 -175 -2 -239 l7 -46 142 0 143 0 7 -205 7
-205 177 0 c97 0 183 5 191 10 11 7 12 10 2 10 -11 0 -12 58 -6 320 6 307 6
320 -12 327 -11 3 -22 10 -25 15 -7 11 -622 23 -631 13z m636 -312 c4 -159 9
-303 13 -322 l6 -34 -84 6 c-46 4 -122 7 -167 7 l-84 0 7 183 c6 152 10 184
24 191 28 17 -23 24 -187 25 l-153 1 2 108 1 107 77 6 c42 3 180 6 307 7 l231
2 7 -287z"/>
<path d="M390 915 c0 -12 14 -15 73 -14 39 1 86 4 102 8 25 6 20 8 -34 14
-103 11 -141 9 -141 -8z"/>
<path d="M690 901 c0 -19 20 -21 117 -14 70 5 89 9 68 14 -46 10 -185 10 -185
0z"/>
<path d="M398 834 c-5 -4 -8 -11 -8 -16 0 -12 198 -10 205 2 4 6 -7 10 -27 10
-18 0 -62 3 -98 6 -36 3 -68 3 -72 -2z"/>
<path d="M700 800 c0 -6 40 -10 100 -10 60 0 100 4 100 10 0 6 -40 10 -100 10
-60 0 -100 -4 -100 -10z"/>
<path d="M666 692 c-18 -17 4 -22 93 -22 114 0 153 19 44 21 -37 1 -82 3 -100
5 -17 1 -34 0 -37 -4z"/>
<path d="M662 628 c6 -17 67 -22 148 -12 l65 8 -45 7 c-77 13 -172 11 -168 -3z"/>
<path d="M660 560 c0 -6 42 -10 105 -10 63 0 105 4 105 10 0 6 -42 10 -105 10
-63 0 -105 -4 -105 -10z"/>
<path d="M660 480 c0 -6 42 -10 106 -10 67 0 103 4 99 10 -3 6 -50 10 -106 10
-59 0 -99 -4 -99 -10z"/>
<path d="M662 398 c7 -19 31 -21 127 -12 82 7 84 8 41 15 -77 13 -172 11 -168
-3z"/>
</g>
</svg>
