<?xml version="1.0" standalone="no"?>
<!DOCTYPE svg PUBLIC "-//W3C//DTD SVG 20010904//EN"
 "http://www.w3.org/TR/2001/REC-SVG-20010904/DTD/svg10.dtd">
<svg version="1.0" xmlns="http://www.w3.org/2000/svg"
 width="119.000000pt" height="201.000000pt" viewBox="0 0 119.000000 201.000000"
 preserveAspectRatio="xMidYMid meet">
<metadata>
Created by potrace 1.16, written by Peter Selinger 2001-2019
</metadata>
<g transform="translate(0.000000,201.000000) scale(0.100000,-0.100000)"
fill="#000000" stroke="none">
<path d="M445 1692 c-111 -38 -151 -90 -141 -181 4 -31 8 -65 10 -76 3 -11 5
-23 5 -27 2 -16 103 -128 139 -154 l40 -29 -43 -85 c-24 -47 -50 -110 -59
-139 -17 -59 -21 -137 -7 -143 4 -1 50 -61 101 -133 117 -164 349 -442 349
-420 1 6 -47 71 -105 145 l-105 135 53 12 c29 6 83 16 121 21 l67 9 0 -141 c0
-78 5 -148 10 -156 6 -10 10 94 10 303 0 205 -4 317 -10 317 -5 0 -10 -24 -10
-52 l0 -53 -53 -1 c-56 -2 -276 -51 -291 -65 -13 -12 7 -11 64 2 25 6 98 18
163 28 l117 18 0 -37 0 -37 -81 -11 c-84 -12 -225 -50 -216 -58 2 -3 57 4 122
16 65 11 131 20 146 20 26 0 29 -3 29 -34 l0 -33 -61 -7 c-33 -4 -90 -16 -126
-27 -36 -11 -66 -19 -67 -17 -2 2 -47 66 -101 143 -54 77 -102 143 -107 146
-19 12 12 111 67 220 30 60 55 112 54 116 0 4 -25 27 -55 51 -30 24 -73 68
-95 97 -36 48 -42 63 -46 117 -3 52 -1 69 17 96 25 40 112 83 180 90 41 4 50
0 96 -36 53 -41 141 -136 194 -209 l30 -41 -135 -48 c-74 -27 -135 -53 -135
-58 0 -5 13 -6 29 -3 27 6 33 0 96 -90 48 -68 64 -98 55 -103 -7 -4 -36 -11
-64 -14 -73 -10 -249 -55 -261 -68 -7 -7 -4 -8 10 -4 11 3 90 17 175 32 85 14
158 30 161 35 3 5 21 -11 39 -37 19 -25 36 -41 38 -35 2 5 -40 74 -92 152 -66
99 -92 145 -83 150 6 4 53 21 102 39 50 17 94 35 99 40 10 10 -107 161 -176
227 -64 62 -136 103 -177 103 -20 -1 -59 -8 -86 -18z"/>
<path d="M571 1485 c-129 -57 -138 -62 -129 -70 7 -8 278 99 278 110 2 21 -29
13 -149 -40z"/>
<path d="M735 1013 c-31 -4 -171 -36 -237 -54 -21 -5 -38 -13 -38 -18 0 -4 50
2 112 15 62 12 138 26 170 29 40 5 58 11 58 21 0 14 -8 15 -65 7z"/>
<path d="M750 923 c-14 -2 -74 -16 -135 -30 -179 -42 -183 -60 -5 -24 52 11
123 23 158 27 42 4 62 11 62 20 0 14 -26 16 -80 7z"/>
</g>
</svg>
