<?xml version="1.0" standalone="no"?>
<!DOCTYPE svg PUBLIC "-//W3C//DTD SVG 20010904//EN"
 "http://www.w3.org/TR/2001/REC-SVG-20010904/DTD/svg10.dtd">
<svg version="1.0" xmlns="http://www.w3.org/2000/svg"
 width="172.000000pt" height="138.000000pt" viewBox="0 0 172.000000 138.000000"
 preserveAspectRatio="xMidYMid meet">
<metadata>
Created by potrace 1.16, written by Peter Selinger 2001-2019
</metadata>
<g transform="translate(0.000000,138.000000) scale(0.100000,-0.100000)"
fill="#000000" stroke="none">
<path d="M425 1071 c-10 -17 -1 -25 112 -93 134 -81 153 -91 153 -79 0 8 -227
172 -249 179 -5 2 -12 -2 -16 -7z"/>
<path d="M869 944 c-74 -43 -136 -79 -138 -81 -3 -2 1 -9 7 -15 14 -14 28 -7
175 90 53 35 97 68 97 73 0 5 -1 9 -3 9 -2 0 -64 -34 -138 -76z"/>
<path d="M406 994 c-4 -9 -5 -18 -4 -19 193 -121 258 -158 264 -152 6 6 -83
75 -171 134 -84 55 -82 55 -89 37z"/>
<path d="M1136 953 c-8 -19 -13 -15 54 -48 89 -45 212 -96 223 -92 9 3 -133
87 -230 136 -37 18 -42 19 -47 4z"/>
<path d="M392 923 c3 -18 232 -163 256 -163 18 0 -22 32 -139 114 -100 68
-123 78 -117 49z"/>
<path d="M904 891 c-166 -95 -184 -106 -184 -118 0 -26 20 -19 106 36 122 78
176 119 167 124 -4 2 -44 -17 -89 -42z"/>
<path d="M1127 883 c-15 -14 -5 -24 56 -54 84 -43 219 -100 224 -96 6 7 -20
23 -145 91 -136 73 -126 69 -135 59z"/>
<path d="M365 870 c-10 -16 -1 -24 112 -92 132 -80 153 -91 153 -80 0 8 -30
31 -172 129 -82 57 -84 58 -93 43z"/>
<path d="M945 836 c-11 -7 -66 -39 -123 -71 -108 -61 -120 -71 -104 -87 7 -7
52 18 141 76 72 47 131 88 131 91 0 9 -24 4 -45 -9z"/>
<path d="M1116 813 c-4 -9 -5 -17 -4 -18 23 -20 277 -129 284 -122 5 5 -113
75 -213 125 -53 27 -62 29 -67 15z"/>
<path d="M346 795 c-3 -10 12 -26 49 -50 102 -65 215 -128 221 -123 6 7 -244
188 -259 188 -3 0 -7 -7 -11 -15z"/>
<path d="M905 733 c-86 -44 -215 -124 -215 -133 0 -27 34 -13 150 64 72 47
130 88 130 91 0 9 -14 4 -65 -22z"/>
<path d="M1094 749 c-3 -6 -2 -15 3 -20 15 -15 275 -130 281 -124 3 3 3 7 1 9
-21 17 -261 146 -273 146 -3 0 -8 -5 -12 -11z"/>
<path d="M330 696 c0 -13 85 -70 223 -149 70 -41 57 -16 -20 39 -169 121 -203
139 -203 110z"/>
<path d="M1086 674 c-5 -12 22 -28 117 -74 67 -32 133 -61 147 -65 50 -14 -3
22 -129 89 -69 36 -126 66 -127 66 -1 0 -5 -7 -8 -16z"/>
<path d="M812 604 c-120 -68 -146 -91 -116 -101 11 -4 247 148 258 166 13 21
-9 11 -142 -65z"/>
<path d="M1084 579 c-3 -6 -2 -15 3 -20 15 -15 275 -130 281 -124 7 6 11 4
-83 57 -84 48 -181 98 -189 98 -3 0 -8 -5 -12 -11z"/>
<path d="M305 569 c-4 -6 -2 -16 6 -21 107 -68 255 -155 259 -151 7 6 -36 40
-142 113 -100 69 -113 76 -123 59z"/>
<path d="M900 553 c-25 -14 -84 -49 -133 -77 -80 -47 -105 -73 -63 -70 20 2
256 155 256 167 0 12 -13 8 -60 -20z"/>
<path d="M798 407 c-118 -66 -142 -87 -119 -101 7 -5 238 139 266 165 29 28
-35 0 -147 -64z"/>
<path d="M1074 445 c-4 -9 -5 -17 -3 -18 25 -18 274 -127 282 -124 14 4 -171
113 -265 155 -5 2 -11 -4 -14 -13z"/>
</g>
</svg>
