<?xml version="1.0" standalone="no"?>
<!DOCTYPE svg PUBLIC "-//W3C//DTD SVG 20010904//EN"
 "http://www.w3.org/TR/2001/REC-SVG-20010904/DTD/svg10.dtd">
<svg version="1.0" xmlns="http://www.w3.org/2000/svg"
 width="223.000000pt" height="231.000000pt" viewBox="0 0 223.000000 231.000000"
 preserveAspectRatio="xMidYMid meet">
<metadata>
Created by potrace 1.16, written by Peter Selinger 2001-2019
</metadata>
<g transform="translate(0.000000,231.000000) scale(0.100000,-0.100000)"
fill="#000000" stroke="none">
<path d="M1210 1994 c-101 -21 -225 -87 -294 -156 l-59 -59 -51 11 c-58 13
-465 26 -492 16 -16 -6 -16 -8 -2 -23 14 -13 51 -16 255 -17 l238 -1 68 -32
c88 -42 204 -122 257 -179 47 -50 168 -116 256 -139 96 -25 243 6 359 76 65
39 144 120 170 175 18 37 17 39 -5 81 -33 62 -144 162 -223 201 -37 18 -98 40
-135 47 -84 18 -257 18 -342 -1z m390 -43 c115 -37 228 -117 289 -205 l29 -42
-35 -45 c-82 -104 -204 -178 -340 -206 -69 -15 -91 -15 -140 -5 -102 21 -193
72 -291 164 -49 46 -117 99 -151 117 -59 31 -60 33 -46 54 19 30 98 89 160
120 150 75 373 95 525 48z"/>
<path d="M1499 765 c-33 -12 -187 -103 -234 -139 -16 -11 -17 -17 -8 -27 9 -9
33 2 110 52 112 73 176 98 249 99 47 0 55 -3 83 -35 53 -60 64 -93 69 -190 5
-122 -2 -136 -80 -168 -190 -76 -351 -48 -495 85 -123 113 -272 196 -398 223
-78 16 -495 22 -495 6 0 -27 34 -31 247 -30 142 1 234 -3 263 -11 96 -26 291
-142 410 -246 90 -77 111 -84 290 -84 l156 0 56 35 c51 32 57 40 68 87 31 128
10 227 -66 316 l-36 42 -76 -1 c-42 0 -93 -6 -113 -14z"/>
</g>
</svg>
