<?xml version="1.0" standalone="no"?>
<!DOCTYPE svg PUBLIC "-//W3C//DTD SVG 20010904//EN"
 "http://www.w3.org/TR/2001/REC-SVG-20010904/DTD/svg10.dtd">
<svg version="1.0" xmlns="http://www.w3.org/2000/svg"
 width="127.000000pt" height="169.000000pt" viewBox="0 0 127.000000 169.000000"
 preserveAspectRatio="xMidYMid meet">
<metadata>
Created by potrace 1.16, written by Peter Selinger 2001-2019
</metadata>
<g transform="translate(0.000000,169.000000) scale(0.100000,-0.100000)"
fill="#000000" stroke="none">
<path d="M315 1381 c-3 -5 14 -21 37 -35 l43 -26 -47 0 c-27 0 -48 -4 -48 -10
0 -11 10 -13 60 -10 52 3 56 20 13 57 -41 35 -49 38 -58 24z"/>
<path d="M434 1321 c-16 -17 15 -21 154 -21 175 0 229 -11 297 -57 33 -23 40
-34 40 -60 0 -31 -2 -33 -37 -33 -24 0 -38 5 -38 13 0 14 -62 67 -115 98 -33
20 -53 22 -164 23 -178 1 -175 -18 4 -24 122 -4 145 -8 176 -27 73 -46 71 -38
71 -280 1 -267 -14 -437 -39 -465 -39 -44 -73 -53 -211 -58 -168 -6 -179 -25
-14 -25 140 1 155 4 214 50 l46 35 7 82 7 83 44 -4 c36 -2 44 -7 44 -23 0 -18
-5 -20 -40 -15 -30 4 -40 2 -40 -9 0 -9 12 -14 34 -14 l35 0 -15 -45 c-24 -68
-55 -108 -104 -132 -40 -21 -58 -23 -203 -23 -110 0 -158 -3 -155 -11 2 -7 56
-10 167 -10 178 2 207 9 253 57 33 36 85 157 104 244 16 77 19 323 4 455 -9
83 -12 92 -43 119 -70 61 -105 71 -300 76 -98 3 -181 3 -183 1z m496 -211 c0
-17 -7 -20 -40 -20 -33 0 -40 3 -40 20 0 17 7 20 40 20 33 0 40 -3 40 -20z
m10 -130 l0 -90 -40 0 c-37 0 -40 2 -40 29 0 15 -3 56 -6 90 l-7 61 47 0 46 0
0 -90z m0 -130 c0 -17 -7 -20 -45 -20 -38 0 -45 3 -45 20 0 17 7 20 45 20 38
0 45 -3 45 -20z m0 -79 c0 -21 -3 -53 -6 -70 -6 -29 -9 -31 -50 -31 -49 0 -50
2 -38 94 l7 46 43 0 44 0 0 -39z"/>
<path d="M353 1269 c-30 -19 -43 -39 -26 -39 8 0 83 51 83 56 0 10 -28 1 -57
-17z"/>
<path d="M320 451 c0 -13 68 -53 81 -49 6 2 -6 16 -28 31 -42 29 -53 33 -53
18z"/>
<path d="M300 383 c0 -9 16 -13 44 -13 62 0 67 17 6 22 -35 2 -50 -1 -50 -9z"/>
<path d="M352 344 c-30 -18 -41 -29 -34 -36 11 -11 55 15 82 47 18 22 1 18
-48 -11z"/>
</g>
</svg>
