<?xml version="1.0" standalone="no"?>
<!DOCTYPE svg PUBLIC "-//W3C//DTD SVG 20010904//EN"
 "http://www.w3.org/TR/2001/REC-SVG-20010904/DTD/svg10.dtd">
<svg version="1.0" xmlns="http://www.w3.org/2000/svg"
 width="227.000000pt" height="248.000000pt" viewBox="0 0 227.000000 248.000000"
 preserveAspectRatio="xMidYMid meet">
<metadata>
Created by potrace 1.16, written by Peter Selinger 2001-2019
</metadata>
<g transform="translate(0.000000,248.000000) scale(0.100000,-0.100000)"
fill="#000000" stroke="none">
<path d="M302 1874 l3 -308 210 2 c349 4 639 14 655 23 13 7 13 8 0 9 -13 0
-14 15 -9 97 4 54 7 112 8 128 l1 30 268 2 c312 2 518 11 505 24 -4 4 -181 11
-391 15 l-383 7 3 128 3 128 -30 5 c-16 4 -214 9 -438 13 l-409 6 4 -309z
m818 264 c1 -28 10 -261 15 -396 l6 -144 -93 7 c-51 4 -94 8 -95 9 -1 1 0 120
4 264 l6 261 61 4 c34 2 69 4 79 5 9 1 17 -4 17 -10z m-196 -260 c3 -143 5
-263 2 -265 -2 -2 -137 -1 -301 3 l-298 7 7 66 c3 36 6 150 6 253 l0 188 238
3 c130 1 260 3 288 5 l51 2 7 -262z"/>
<path d="M330 900 c-5 -9 -5 -133 -1 -275 5 -143 6 -275 3 -294 l-5 -34 379 8
c317 6 548 17 497 23 -14 2 -17 97 -7 199 l7 61 216 1 c274 1 551 12 551 21 0
11 -231 20 -513 20 l-259 0 4 134 3 134 -200 6 c-110 3 -305 7 -433 9 -202 2
-235 0 -242 -13z m820 -47 c0 -16 3 -73 5 -128 2 -55 7 -165 10 -244 l6 -144
-197 6 c-109 4 -245 7 -304 7 l-106 0 4 253 c2 138 6 254 8 256 3 4 199 11
512 19 61 2 62 2 62 -25z m-617 -175 c4 -99 7 -214 7 -255 l0 -73 -91 0 -92 0
7 77 c3 42 6 156 6 255 l0 178 78 0 79 0 6 -182z"/>
</g>
</svg>
