<?xml version="1.0" standalone="no"?>
<!DOCTYPE svg PUBLIC "-//W3C//DTD SVG 20010904//EN"
 "http://www.w3.org/TR/2001/REC-SVG-20010904/DTD/svg10.dtd">
<svg version="1.0" xmlns="http://www.w3.org/2000/svg"
 width="223.000000pt" height="122.000000pt" viewBox="0 0 223.000000 122.000000"
 preserveAspectRatio="xMidYMid meet">
<metadata>
Created by potrace 1.16, written by Peter Selinger 2001-2019
</metadata>
<g transform="translate(0.000000,122.000000) scale(0.100000,-0.100000)"
fill="#000000" stroke="none">
<path d="M302 616 l3 -308 225 1 c249 2 640 17 648 26 3 3 -1 5 -9 5 -12 0
-13 17 -8 97 4 54 7 112 8 128 l1 30 238 2 c299 3 522 13 522 22 0 11 -270 21
-538 21 l-223 0 2 132 c1 121 0 132 -17 135 -11 1 -207 6 -437 10 l-419 6 4
-307z m818 257 c1 -32 10 -256 15 -391 l6 -132 -403 6 c-222 4 -403 7 -404 8
-1 0 1 115 4 254 l5 252 211 1 c176 1 453 10 544 17 15 1 22 -4 22 -15z"/>
</g>
</svg>
