<?xml version="1.0" standalone="no"?>
<!DOCTYPE svg PUBLIC "-//W3C//DTD SVG 20010904//EN"
 "http://www.w3.org/TR/2001/REC-SVG-20010904/DTD/svg10.dtd">
<svg version="1.0" xmlns="http://www.w3.org/2000/svg"
 width="147.000000pt" height="136.000000pt" viewBox="0 0 147.000000 136.000000"
 preserveAspectRatio="xMidYMid meet">
<metadata>
Created by potrace 1.16, written by Peter Selinger 2001-2019
</metadata>
<g transform="translate(0.000000,136.000000) scale(0.100000,-0.100000)"
fill="#000000" stroke="none">
<path d="M588 895 l5 -165 -147 0 -146 0 0 -25 0 -25 143 0 144 0 6 -107 c4
-58 7 -136 8 -172 0 -36 4 -75 8 -86 11 -27 21 38 21 136 0 42 3 110 6 151 l7
76 181 6 c368 13 443 30 151 35 -77 1 -149 4 -160 6 -11 2 -55 4 -97 4 l-78 1
0 165 0 165 -28 0 -28 0 4 -165z"/>
</g>
</svg>
