<?xml version="1.0" standalone="no"?>
<!DOCTYPE svg PUBLIC "-//W3C//DTD SVG 20010904//EN"
 "http://www.w3.org/TR/2001/REC-SVG-20010904/DTD/svg10.dtd">
<svg version="1.0" xmlns="http://www.w3.org/2000/svg"
 width="210.000000pt" height="136.000000pt" viewBox="0 0 210.000000 136.000000"
 preserveAspectRatio="xMidYMid meet">
<metadata>
Created by potrace 1.16, written by Peter Selinger 2001-2019
</metadata>
<g transform="translate(0.000000,136.000000) scale(0.100000,-0.100000)"
fill="#000000" stroke="none">
<path d="M590 895 l0 -165 -145 0 -145 0 0 -25 0 -25 144 0 144 0 6 -137 c9
-189 16 -253 27 -228 4 11 8 54 8 95 1 41 4 118 7 171 l7 96 128 6 129 6 112
-78 c141 -97 336 -216 343 -209 7 6 -129 116 -267 216 l-97 70 90 7 c49 4 88
9 86 11 -2 3 -45 8 -95 12 l-91 7 87 62 c128 90 295 224 288 230 -14 14 -450
-272 -440 -289 5 -8 -14 -9 -71 -5 -43 4 -107 7 -142 7 l-63 0 0 165 0 165
-25 0 -25 0 0 -165z"/>
<path d="M1370 1020 c-6 -11 -8 -25 -5 -30 3 -5 98 -70 210 -145 l205 -137
-102 -65 c-125 -79 -318 -215 -318 -223 0 -3 6 -14 13 -24 12 -17 25 -9 168
99 171 131 259 204 259 215 0 10 -116 105 -270 221 -158 119 -147 113 -160 89z"/>
</g>
</svg>
