<?xml version="1.0" standalone="no"?>
<!DOCTYPE svg PUBLIC "-//W3C//DTD SVG 20010904//EN"
 "http://www.w3.org/TR/2001/REC-SVG-20010904/DTD/svg10.dtd">
<svg version="1.0" xmlns="http://www.w3.org/2000/svg"
 width="152.000000pt" height="156.000000pt" viewBox="0 0 152.000000 156.000000"
 preserveAspectRatio="xMidYMid meet">
<metadata>
Created by potrace 1.16, written by Peter Selinger 2001-2019
</metadata>
<g transform="translate(0.000000,156.000000) scale(0.100000,-0.100000)"
fill="#000000" stroke="none">
<path d="M884 1233 c-8 -31 2 -893 11 -901 3 -3 8 -3 11 1 3 3 8 189 10 414 3
224 7 423 10 441 5 31 6 32 53 32 65 0 147 -26 166 -53 40 -58 0 -171 -97
-272 -63 -65 -69 -87 -47 -170 12 -44 97 -134 149 -157 34 -15 55 -56 45 -90
-28 -91 -151 -158 -294 -158 -27 0 -32 -3 -21 -10 8 -5 49 -10 90 -10 92 0
157 27 213 88 35 40 37 46 37 108 0 36 -5 74 -10 84 -15 28 -48 44 -64 31 -10
-9 -22 -2 -49 28 -20 22 -43 53 -51 70 -17 31 -22 151 -8 151 15 0 108 123
136 177 35 71 34 113 -5 158 -39 44 -106 65 -206 65 -71 0 -73 -1 -79 -27z"/>
<path d="M300 1227 c0 -14 25 -81 57 -149 44 -95 56 -133 55 -166 -1 -23 4
-56 13 -71 11 -22 16 -83 21 -253 3 -122 7 -228 9 -233 1 -7 30 -8 76 -5 41 4
77 2 80 -3 13 -18 19 62 19 250 0 148 3 203 14 226 8 18 17 57 19 87 3 41 18
86 60 175 31 65 53 122 49 126 -9 9 -182 27 -344 35 l-128 7 0 -26z m430 -30
c0 -4 -16 -47 -36 -95 -20 -48 -40 -97 -45 -109 l-8 -23 -38 26 c-44 30 -94
29 -140 -4 l-29 -20 -26 66 c-14 37 -35 91 -47 120 l-21 54 195 -4 c107 -1
195 -7 195 -11z m-130 -597 c0 -92 3 -181 6 -197 l6 -29 -72 9 c-66 9 -71 12
-66 31 3 12 6 98 6 191 l0 170 60 -3 60 -4 0 -168z"/>
</g>
</svg>
