<?xml version="1.0" standalone="no"?>
<!DOCTYPE svg PUBLIC "-//W3C//DTD SVG 20010904//EN"
 "http://www.w3.org/TR/2001/REC-SVG-20010904/DTD/svg10.dtd">
<svg version="1.0" xmlns="http://www.w3.org/2000/svg"
 width="161.000000pt" height="234.000000pt" viewBox="0 0 161.000000 234.000000"
 preserveAspectRatio="xMidYMid meet">
<metadata>
Created by potrace 1.16, written by Peter Selinger 2001-2019
</metadata>
<g transform="translate(0.000000,234.000000) scale(0.100000,-0.100000)"
fill="#000000" stroke="none">
<path d="M303 2024 c-8 -22 4 -531 13 -546 7 -10 513 -6 869 8 l110 4 6 97 c4
54 7 175 8 269 l1 171 -242 6 c-133 4 -358 7 -500 7 -230 0 -259 -2 -265 -16z
m961 -181 c3 -92 9 -205 12 -250 l5 -83 -473 6 c-260 4 -473 7 -474 8 0 1 1
106 4 234 l4 232 187 1 c168 2 449 9 652 17 l77 3 6 -168z"/>
<path d="M852 1825 c2 -63 3 -115 0 -115 -2 0 -23 16 -46 35 -47 38 -56 42
-56 23 0 -7 24 -29 52 -48 l52 -35 -37 -3 c-30 -3 -45 4 -87 37 -29 23 -56 41
-61 41 -20 0 -7 -19 31 -44 22 -14 40 -29 40 -31 0 -17 -77 9 -116 39 -25 20
-51 33 -57 29 -6 -4 -2 -12 9 -20 10 -8 30 -23 44 -33 l25 -18 -50 5 c-32 4
-59 13 -75 28 -40 35 -78 57 -89 50 -11 -6 -4 -174 8 -187 3 -4 31 10 61 30
44 30 61 37 87 32 l33 -5 -35 -24 c-19 -13 -35 -30 -35 -37 0 -20 3 -18 50 21
29 24 52 35 73 35 l32 -1 -37 -30 c-21 -17 -35 -35 -32 -40 3 -6 25 6 49 26
35 28 52 35 86 35 l43 0 -42 -31 c-40 -29 -53 -49 -33 -49 5 0 31 18 57 40 27
22 55 38 62 35 8 -3 21 -5 29 -5 10 0 2 -11 -20 -27 -20 -16 -36 -34 -37 -40
0 -20 8 -16 59 27 42 36 53 40 92 38 l44 -3 7 70 c4 39 6 113 3 165 l-4 95
-92 3 -92 3 5 -116z m158 -17 c0 -62 3 -130 6 -150 6 -37 6 -38 -25 -38 -17 0
-31 4 -31 9 0 4 -22 6 -50 3 -27 -2 -50 -1 -50 4 0 5 -22 7 -50 6 -32 -3 -50
0 -50 7 0 7 23 11 61 11 l61 0 -7 30 -7 30 61 0 c34 0 61 4 61 10 0 6 -27 10
-60 10 -47 0 -60 3 -60 15 0 11 13 15 54 15 74 0 82 18 10 22 -82 4 -86 28 -5
28 34 0 61 4 61 10 0 6 -27 10 -61 10 -81 0 -77 24 4 28 76 4 73 22 -3 22 -47
0 -60 3 -60 15 0 12 14 15 70 15 l70 0 0 -112z m-470 -140 c0 -8 -92 -69 -97
-64 -1 1 0 32 4 69 l6 66 43 -31 c24 -17 44 -35 44 -40z m193 -15 c-7 -2 -19
-2 -25 0 -7 3 -2 5 12 5 14 0 19 -2 13 -5z"/>
<path d="M308 853 c-12 -15 -5 -523 8 -544 5 -9 126 -11 491 -6 267 3 487 7
489 10 2 2 7 123 11 269 l6 266 -194 6 c-107 3 -330 7 -497 9 -243 2 -305 0
-314 -10z m784 -53 c2 -16 6 -102 7 -191 l3 -162 -49 7 c-86 13 -87 13 -57 52
19 25 34 34 55 34 16 0 29 5 29 10 0 6 -28 10 -65 10 -58 0 -65 2 -65 20 0 17
7 20 43 21 23 1 53 5 67 9 23 7 23 8 -10 11 -19 1 -42 3 -50 5 -8 1 -23 2 -32
3 -10 1 -18 8 -18 16 0 11 12 15 43 16 23 1 53 5 67 9 23 8 23 8 -10 11 -19 2
-48 3 -64 4 -16 1 -31 6 -33 12 -4 12 42 23 94 23 20 0 32 4 28 10 -3 6 -33
10 -66 10 -46 0 -59 3 -59 15 0 12 13 15 60 15 33 0 60 4 60 10 0 6 -27 10
-60 10 -46 0 -60 3 -60 14 0 14 25 20 106 24 28 2 32 -2 36 -28z m172 -137 c4
-93 9 -206 12 -252 l6 -84 -163 7 c-90 3 -302 7 -472 7 -169 1 -309 4 -310 8
-2 3 -1 109 2 235 l6 229 71 4 71 4 6 -28 c3 -15 6 -107 7 -203 0 -96 5 -191
10 -210 6 -25 8 -28 9 -12 1 34 89 132 118 132 30 0 29 -11 -2 -40 -23 -22
-34 -50 -19 -50 4 0 23 19 43 41 30 34 41 40 60 34 l23 -7 -23 -24 c-16 -17
-20 -27 -12 -35 7 -7 18 1 36 24 22 29 30 33 62 29 l36 -4 -21 -23 c-12 -13
-17 -25 -12 -29 5 -3 20 6 32 19 23 24 89 37 75 15 -12 -20 7 -32 25 -15 15
13 27 14 81 5 110 -17 99 -38 99 190 l0 200 69 0 69 0 6 -167z m-340 65 c3
-50 6 -108 6 -130 l0 -38 -172 5 c-95 3 -185 5 -200 5 l-28 0 0 118 c0 65 3
122 7 125 3 4 90 7 193 7 l187 0 7 -92z m-142 -211 c-7 -8 -24 -12 -43 -9 -36
5 -27 19 16 24 37 4 41 2 27 -15z m101 -2 c-19 -25 -32 -29 -71 -19 -22 6 -22
8 -6 25 11 12 31 19 56 19 l39 0 -18 -25z m88 -9 c-24 -24 -38 -32 -57 -28
-29 5 -29 6 -6 37 13 19 27 24 56 25 l40 0 -33 -34z m-283 17 c-10 -2 -26 -2
-35 0 -10 3 -2 5 17 5 19 0 27 -2 18 -5z m-125 -47 c-15 -17 -29 -33 -30 -35
-2 -2 -3 14 -3 36 0 38 1 39 31 35 l30 -4 -28 -32z"/>
</g>
</svg>
