<?xml version="1.0" standalone="no"?>
<!DOCTYPE svg PUBLIC "-//W3C//DTD SVG 20010904//EN"
 "http://www.w3.org/TR/2001/REC-SVG-20010904/DTD/svg10.dtd">
<svg version="1.0" xmlns="http://www.w3.org/2000/svg"
 width="108.000000pt" height="251.000000pt" viewBox="0 0 108.000000 251.000000"
 preserveAspectRatio="xMidYMid meet">
<metadata>
Created by potrace 1.16, written by Peter Selinger 2001-2019
</metadata>
<g transform="translate(0.000000,251.000000) scale(0.100000,-0.100000)"
fill="#000000" stroke="none">
<path d="M341 2201 c-12 -8 -13 -66 -7 -362 4 -195 10 -363 12 -374 5 -19 12
-20 182 -17 97 2 181 7 186 12 7 7 -5 10 -30 10 -39 0 -40 1 -36 30 3 18 0 30
-7 30 -6 0 -11 -13 -11 -30 l0 -29 -92 4 c-51 3 -112 5 -135 5 l-43 0 0 85 c0
69 3 85 15 85 9 0 15 -9 15 -24 0 -14 5 -28 10 -31 6 -4 10 7 10 25 l0 31 158
-3 c117 -2 157 -6 158 -15 1 -7 2 -49 3 -93 0 -46 5 -80 11 -80 6 0 10 130 10
369 l0 368 -37 7 c-58 9 -356 7 -372 -3z m379 -95 l0 -86 -35 0 c-28 0 -35 4
-35 20 0 11 -4 20 -10 20 -5 0 -10 -9 -10 -20 0 -15 -7 -20 -25 -20 -20 0 -25
5 -25 25 0 14 -5 25 -11 25 -7 0 -9 -10 -7 -25 5 -25 4 -25 -64 -25 l-70 0 7
30 c5 24 3 30 -10 30 -14 0 -16 -6 -11 -30 5 -27 3 -30 -19 -30 -25 0 -25 2
-25 80 l0 79 118 3 c64 2 143 4 175 6 l57 3 0 -85z m0 -271 l0 -165 -157 1
c-165 1 -199 6 -197 27 1 6 2 75 3 152 l1 139 98 4 c53 1 132 4 175 5 l77 2 0
-165z"/>
<path d="M390 2153 c0 -10 5 -25 10 -33 7 -11 10 -7 10 18 0 17 -4 32 -10 32
-5 0 -10 -8 -10 -17z"/>
<path d="M520 2146 c0 -14 5 -28 10 -31 6 -4 10 7 10 24 0 17 -4 31 -10 31 -5
0 -10 -11 -10 -24z"/>
<path d="M610 2146 c0 -14 5 -28 10 -31 6 -4 10 7 10 24 0 17 -4 31 -10 31 -5
0 -10 -11 -10 -24z"/>
<path d="M441 2128 c1 -18 17 -55 18 -43 1 6 4 20 7 33 5 16 2 22 -10 22 -9 0
-16 -6 -15 -12z"/>
<path d="M670 2069 c0 -17 4 -28 10 -24 6 3 10 17 10 31 0 13 -4 24 -10 24 -5
0 -10 -14 -10 -31z"/>
<path d="M520 1615 c0 -14 5 -25 10 -25 6 0 10 11 10 25 0 14 -4 25 -10 25 -5
0 -10 -11 -10 -25z"/>
<path d="M610 1616 c0 -14 5 -28 10 -31 6 -4 10 7 10 24 0 17 -4 31 -10 31 -5
0 -10 -11 -10 -24z"/>
<path d="M444 1607 c-3 -9 -1 -24 4 -33 9 -16 10 -15 17 5 8 27 -11 54 -21 28z"/>
<path d="M668 1540 c5 -35 22 -30 22 6 0 13 -6 24 -13 24 -9 0 -12 -10 -9 -30z"/>
<path d="M415 1551 c-3 -6 -3 -21 1 -33 l7 -23 9 24 c9 26 -4 52 -17 32z"/>
<path d="M560 1526 c0 -14 5 -28 10 -31 6 -4 10 7 10 24 0 17 -4 31 -10 31 -5
0 -10 -11 -10 -24z"/>
<path d="M307 1083 c-9 -8 -9 -488 0 -655 l6 -128 166 0 c91 0 196 3 233 6
l67 7 1 382 0 382 -97 6 c-128 9 -368 9 -376 0z m434 -115 c0 -51 2 -101 4
-110 2 -14 -4 -18 -26 -18 l-29 0 0 110 0 110 25 0 c25 0 25 -1 26 -92z m-349
58 c3 -13 6 -58 7 -100 l2 -76 -35 0 -36 0 0 93 c0 52 3 97 7 100 3 4 16 7 29
7 15 0 23 -7 26 -24z m98 -38 c0 -35 3 -80 6 -100 l7 -38 -43 0 c-42 0 -42 0
-36 31 3 17 6 62 6 100 l0 69 30 0 30 0 0 -62z m80 30 c0 -18 3 -63 7 -100 l6
-68 -32 0 -31 0 0 100 0 100 25 0 c22 0 25 -5 25 -32z m90 -15 c0 -27 3 -72 6
-100 l7 -53 -37 0 -36 0 2 100 3 100 28 0 c26 0 27 -2 27 -47z m86 -213 c2
-19 5 -131 8 -247 l4 -213 -34 0 -34 0 0 100 0 100 25 0 c14 0 25 4 25 9 0 10
-148 21 -297 21 l-113 0 0 125 0 125 43 1 c23 1 110 5 192 9 193 9 179 11 181
-30z m-176 -302 c0 -24 3 -67 6 -95 l7 -53 -32 0 -31 0 0 88 c0 94 3 102 32
102 15 0 18 -8 18 -42z m93 -55 c3 -54 4 -99 2 -101 -2 -2 -18 -1 -35 3 l-31
7 6 91 c2 51 5 93 5 95 0 1 11 2 24 2 22 0 23 -3 29 -97z m-269 41 c3 -26 6
-66 6 -90 0 -44 0 -44 -35 -44 l-35 0 0 90 0 90 29 0 c26 0 29 -3 35 -46z m96
-21 c0 -38 3 -78 6 -90 6 -21 3 -23 -36 -23 -39 0 -42 2 -36 23 3 12 6 52 6
90 l0 67 30 0 30 0 0 -67z"/>
</g>
</svg>
