<?xml version="1.0" standalone="no"?>
<!DOCTYPE svg PUBLIC "-//W3C//DTD SVG 20010904//EN"
 "http://www.w3.org/TR/2001/REC-SVG-20010904/DTD/svg10.dtd">
<svg version="1.0" xmlns="http://www.w3.org/2000/svg"
 width="194.000000pt" height="110.000000pt" viewBox="0 0 194.000000 110.000000"
 preserveAspectRatio="xMidYMid meet">
<metadata>
Created by potrace 1.16, written by Peter Selinger 2001-2019
</metadata>
<g transform="translate(0.000000,110.000000) scale(0.100000,-0.100000)"
fill="#000000" stroke="none">
<path d="M667 793 c-4 -3 -7 -19 -7 -34 l0 -27 -180 5 c-165 6 -180 5 -180
-11 0 -16 15 -17 180 -14 l180 3 0 -25 0 -25 -180 3 c-165 3 -180 2 -180 -14
0 -16 15 -17 180 -11 l180 5 0 -28 0 -29 -180 6 c-165 6 -180 5 -180 -11 0
-15 16 -17 180 -14 l179 3 6 -24 c3 -13 4 -26 1 -29 -4 -3 -87 -4 -186 -3
-164 2 -180 1 -180 -15 0 -16 15 -17 185 -12 l185 6 0 -29 0 -29 -185 0 c-165
0 -185 -2 -185 -17 0 -15 17 -15 185 -9 l185 7 0 -61 c0 -33 2 -60 3 -60 2 0
73 18 158 39 209 53 296 65 447 58 160 -6 342 -34 342 -53 0 -7 5 -16 10 -19
7 -4 10 69 10 211 l0 216 -22 -6 c-65 -19 -296 -46 -389 -46 -124 0 -232 17
-417 65 -150 40 -137 37 -145 28z m339 -108 l51 -7 7 -45 c3 -25 6 -83 6 -128
l0 -82 -52 -7 c-50 -7 -281 -60 -314 -73 -14 -5 -15 13 -10 158 3 90 6 185 6
210 l0 46 128 -32 c70 -18 150 -36 178 -40z m613 -229 c1 -78 -1 -87 -15 -82
-26 10 -259 56 -283 56 -21 0 -22 3 -18 115 2 63 5 116 8 119 2 2 47 11 100
20 53 10 118 23 145 30 l49 12 6 -90 c4 -50 7 -131 8 -180z m-489 117 c0 -54
3 -108 6 -120 5 -20 2 -23 -21 -23 l-28 0 7 61 c3 34 6 88 6 120 0 46 3 59 15
59 12 0 15 -18 15 -97z m70 28 c0 -31 3 -80 6 -108 l7 -53 -29 0 -29 0 3 114
c3 107 4 114 23 109 16 -5 19 -14 19 -62z m74 -8 c3 -42 6 -96 6 -120 0 -40
-2 -44 -22 -41 -22 3 -23 8 -26 112 -3 105 2 125 29 126 3 0 9 -34 13 -77z"/>
</g>
</svg>
