<?xml version="1.0" standalone="no"?>
<!DOCTYPE svg PUBLIC "-//W3C//DTD SVG 20010904//EN"
 "http://www.w3.org/TR/2001/REC-SVG-20010904/DTD/svg10.dtd">
<svg version="1.0" xmlns="http://www.w3.org/2000/svg"
 width="193.000000pt" height="92.000000pt" viewBox="0 0 193.000000 92.000000"
 preserveAspectRatio="xMidYMid meet">
<metadata>
Created by potrace 1.16, written by Peter Selinger 2001-2019
</metadata>
<g transform="translate(0.000000,92.000000) scale(0.100000,-0.100000)"
fill="#000000" stroke="none">
<path d="M546 613 c-3 -4 22 -35 56 -70 l62 -63 -182 0 c-175 0 -182 -1 -182
-20 0 -19 7 -20 183 -20 l182 0 -63 -56 c-51 -46 -61 -59 -51 -71 10 -12 24
-3 84 57 l71 70 169 7 168 6 -68 -65 c-46 -43 -66 -69 -60 -77 5 -9 30 9 84
62 l76 75 125 2 c69 1 136 3 150 4 14 2 65 4 114 4 179 4 50 19 -189 23 l-100
1 166 26 167 25 45 -38 45 -38 -81 -64 c-45 -35 -82 -69 -82 -75 0 -28 28 -13
98 52 41 38 80 70 86 70 22 0 10 17 -72 98 -71 71 -85 81 -96 68 -10 -12 -8
-18 14 -32 20 -13 23 -19 13 -24 -7 -4 -104 -18 -216 -31 l-202 -23 -65 64
c-53 52 -67 62 -77 51 -11 -10 -2 -23 46 -66 l58 -52 -157 -8 -158 -7 -71 71
c-73 73 -78 76 -90 64z"/>
</g>
</svg>
