<?xml version="1.0" standalone="no"?>
<!DOCTYPE svg PUBLIC "-//W3C//DTD SVG 20010904//EN"
 "http://www.w3.org/TR/2001/REC-SVG-20010904/DTD/svg10.dtd">
<svg version="1.0" xmlns="http://www.w3.org/2000/svg"
 width="210.000000pt" height="115.000000pt" viewBox="0 0 210.000000 115.000000"
 preserveAspectRatio="xMidYMid meet">
<metadata>
Created by potrace 1.16, written by Peter Selinger 2001-2019
</metadata>
<g transform="translate(0.000000,115.000000) scale(0.100000,-0.100000)"
fill="#000000" stroke="none">
<path d="M936 835 c-7 -20 -100 -62 -180 -80 -107 -26 -301 -14 -398 24 -60
23 -61 19 -55 -210 3 -114 8 -212 11 -217 3 -5 42 2 88 15 64 19 109 25 193
26 124 2 202 -15 301 -63 34 -17 70 -30 81 -30 45 0 815 250 820 267 2 5 -115
49 -259 96 -272 89 -582 187 -591 187 -3 0 -8 -7 -11 -15z m564 -191 c129 -36
244 -68 254 -71 12 -3 -56 -27 -175 -60 -107 -29 -286 -81 -398 -114 -112 -33
-205 -58 -208 -55 -3 2 -2 105 2 229 l8 223 141 -43 c77 -24 247 -73 376 -109z
m-568 134 c2 -7 5 -78 6 -158 1 -80 5 -178 8 -217 4 -40 4 -73 1 -73 -4 0 -22
11 -42 24 -20 14 -63 35 -97 48 l-60 23 6 74 c3 41 6 106 6 146 l0 72 38 11
c20 7 55 23 77 36 48 29 52 30 57 14z m-509 -58 l57 -11 0 -72 c0 -40 3 -102
6 -139 5 -53 4 -68 -7 -72 -8 -2 -45 -10 -83 -19 l-68 -15 6 45 c3 25 6 104 6
175 0 101 3 129 13 125 7 -2 38 -10 70 -17z m302 -288 c-2 -2 -27 -1 -54 3
l-51 7 0 128 0 129 48 3 47 3 7 -135 c4 -74 5 -136 3 -138z m-140 186 c4 -46
5 -105 3 -133 l-3 -50 -39 -3 -39 -3 6 53 c4 29 7 90 7 136 l0 82 29 0 29 0 7
-82z"/>
</g>
</svg>
