<?xml version="1.0" standalone="no"?>
<!DOCTYPE svg PUBLIC "-//W3C//DTD SVG 20010904//EN"
 "http://www.w3.org/TR/2001/REC-SVG-20010904/DTD/svg10.dtd">
<svg version="1.0" xmlns="http://www.w3.org/2000/svg"
 width="152.000000pt" height="160.000000pt" viewBox="0 0 152.000000 160.000000"
 preserveAspectRatio="xMidYMid meet">
<metadata>
Created by potrace 1.16, written by Peter Selinger 2001-2019
</metadata>
<g transform="translate(0.000000,160.000000) scale(0.100000,-0.100000)"
fill="#000000" stroke="none">
<path d="M938 1224 l-3 -75 -74 55 c-41 31 -78 56 -82 56 -7 0 -22 -31 -17
-35 20 -12 146 -100 153 -107 6 -6 -26 -8 -85 -6 -89 3 -95 2 -95 -17 0 -19 5
-20 84 -16 48 2 81 0 78 -6 -3 -5 -35 -29 -71 -53 -70 -48 -70 -48 -57 -69 8
-12 25 -3 88 42 l78 57 3 -105 c1 -58 6 -105 11 -105 9 0 21 97 21 176 0 30 3
54 7 54 4 0 49 -28 100 -61 51 -34 96 -59 99 -56 3 2 -29 31 -71 63 -52 40
-70 60 -58 61 10 1 53 5 97 8 44 4 74 11 69 16 -4 4 -50 9 -102 11 l-94 3 82
64 c121 95 105 98 -35 6 -45 -30 -84 -55 -86 -55 -2 0 -2 38 0 85 3 80 2 85
-17 85 -18 0 -20 -7 -23 -76z"/>
<path d="M510 1015 c0 -41 -3 -75 -7 -75 -3 0 -40 25 -81 56 -58 44 -76 53
-83 43 -14 -23 -12 -26 68 -81 l77 -53 -92 -3 c-83 -2 -92 -5 -92 -22 0 -17 9
-20 83 -22 l82 -3 -65 -45 c-60 -43 -79 -69 -55 -77 6 -2 44 21 85 51 l75 55
3 -104 c1 -58 6 -105 11 -105 5 0 12 52 17 115 l9 115 93 -62 c51 -33 95 -59
98 -55 3 3 -27 31 -67 64 l-73 58 90 3 c130 4 134 14 11 26 l-108 11 76 59
c41 32 75 63 75 68 0 11 -1 10 -113 -65 l-89 -59 7 91 c7 88 7 91 -14 91 -20
0 -21 -5 -21 -75z"/>
<path d="M940 685 c0 -41 -2 -75 -5 -75 -3 0 -40 26 -81 57 -61 45 -77 54 -85
42 -5 -8 -9 -16 -9 -19 0 -3 37 -31 82 -62 l82 -58 -97 0 c-90 0 -97 -1 -97
-20 0 -17 8 -19 83 -22 l82 -3 -67 -45 c-37 -25 -68 -47 -68 -50 0 -3 5 -12
10 -20 10 -16 1 -21 118 64 l52 38 0 -106 c0 -58 4 -106 9 -106 9 0 21 96 21
176 0 30 2 54 5 54 3 0 46 -27 96 -61 50 -33 95 -59 101 -57 5 2 -25 31 -68
63 l-78 60 91 5 c50 3 94 8 98 12 4 3 -29 9 -72 13 -43 3 -88 7 -101 8 -18 2
-8 14 58 66 45 35 79 66 76 69 -3 3 -47 -23 -98 -56 l-93 -62 -3 85 c-2 77 -5
85 -22 85 -18 0 -20 -7 -20 -75z"/>
</g>
</svg>
