<?xml version="1.0" standalone="no"?>
<!DOCTYPE svg PUBLIC "-//W3C//DTD SVG 20010904//EN"
 "http://www.w3.org/TR/2001/REC-SVG-20010904/DTD/svg10.dtd">
<svg version="1.0" xmlns="http://www.w3.org/2000/svg"
 width="131.000000pt" height="134.000000pt" viewBox="0 0 131.000000 134.000000"
 preserveAspectRatio="xMidYMid meet">
<metadata>
Created by potrace 1.16, written by Peter Selinger 2001-2019
</metadata>
<g transform="translate(0.000000,134.000000) scale(0.100000,-0.100000)"
fill="#000000" stroke="none">
<path d="M311 1023 c-12 -13 -13 -72 -8 -361 4 -202 10 -349 16 -355 10 -10
122 49 352 185 64 37 120 68 124 68 4 0 49 -32 101 -71 51 -39 98 -68 103 -64
17 10 15 481 -2 488 -8 3 -52 -24 -98 -60 -46 -36 -89 -67 -96 -70 -6 -2 -65
27 -130 65 -128 74 -339 192 -345 192 -2 -1 -9 -8 -17 -17z m52 -44 l24 -11 7
-281 c6 -257 9 -298 20 -286 6 7 16 245 16 397 l0 142 112 -56 c108 -54 111
-57 88 -69 -14 -7 -29 -10 -35 -7 -5 3 -37 23 -70 44 -41 25 -62 34 -67 26
-10 -17 -4 -23 57 -58 30 -17 55 -33 55 -35 0 -2 -14 -12 -32 -23 -32 -20 -32
-20 -59 -1 -34 24 -39 24 -39 0 0 -10 8 -22 18 -26 16 -6 16 -7 -2 -21 -30
-21 -6 -42 24 -21 20 14 25 13 51 -1 16 -10 29 -19 29 -22 0 -3 -13 -12 -29
-22 -26 -14 -31 -15 -51 -1 -30 21 -54 0 -24 -21 18 -14 18 -15 2 -21 -10 -4
-18 -16 -18 -26 0 -24 5 -24 39 0 27 19 27 19 60 -1 37 -24 39 -22 -43 -70
-32 -19 -44 -32 -40 -43 6 -14 9 -14 28 -2 110 72 125 79 146 64 20 -14 12
-19 -135 -96 -85 -44 -157 -81 -160 -81 -3 0 -5 144 -5 320 0 176 2 320 5 320
2 0 15 -5 28 -11z m621 -453 l5 -89 -52 49 c-128 121 -125 119 -144 102 -10
-9 -41 -27 -70 -42 -50 -25 -52 -25 -73 -8 l-22 18 35 19 c30 16 40 17 61 7
29 -13 36 1 9 17 -20 11 -21 10 26 38 l34 21 47 -29 c63 -39 88 -37 28 2 -27
17 -48 35 -48 39 0 4 21 22 48 39 60 39 35 41 -28 2 l-47 -29 -34 21 c-47 28
-46 27 -26 38 27 16 20 30 -9 17 -21 -10 -31 -9 -61 7 l-35 19 22 18 c21 17
23 17 73 -8 29 -15 60 -33 69 -42 17 -14 24 -9 95 55 l78 70 7 -131 c3 -72 9
-171 12 -220z m-351 225 c35 -18 34 -24 -6 -46 -32 -17 -35 -17 -62 1 l-27 18
28 23 c16 13 31 22 34 20 3 -1 17 -9 33 -16z m98 -58 c16 -10 29 -20 29 -23 0
-3 -14 -14 -32 -24 -30 -18 -32 -18 -65 -1 -18 10 -33 21 -33 24 0 8 51 40 63
41 5 0 22 -8 38 -17z m-100 -60 c16 -10 29 -20 29 -23 0 -3 -14 -13 -31 -23
-30 -17 -32 -16 -61 4 l-30 22 23 18 c30 23 34 23 70 2z"/>
</g>
</svg>
