<?xml version="1.0" standalone="no"?>
<!DOCTYPE svg PUBLIC "-//W3C//DTD SVG 20010904//EN"
 "http://www.w3.org/TR/2001/REC-SVG-20010904/DTD/svg10.dtd">
<svg version="1.0" xmlns="http://www.w3.org/2000/svg"
 width="213.000000pt" height="135.000000pt" viewBox="0 0 213.000000 135.000000"
 preserveAspectRatio="xMidYMid meet">
<metadata>
Created by potrace 1.16, written by Peter Selinger 2001-2019
</metadata>
<g transform="translate(0.000000,135.000000) scale(0.100000,-0.100000)"
fill="#000000" stroke="none">
<path d="M995 1043 c-77 -19 -223 -72 -289 -105 -122 -61 -239 -184 -309 -323
-14 -27 -35 -59 -47 -70 -69 -62 -66 -167 6 -224 20 -16 41 -21 86 -21 99 0
148 45 148 137 0 54 -22 95 -65 123 -33 22 -27 26 66 45 202 43 469 11 992
-120 98 -25 181 -45 186 -45 9 0 67 178 59 185 -8 9 -321 52 -503 70 -88 9
-183 18 -211 21 l-51 5 5 165 5 164 -29 -1 c-16 -1 -38 -4 -49 -6z m47 -168
l3 -155 -85 0 c-153 0 -395 -51 -502 -106 -16 -8 -28 -12 -28 -8 0 3 17 34 37
68 56 92 164 195 253 241 77 40 271 114 302 114 15 1 17 -16 20 -154z m358
-220 c224 -19 394 -37 399 -41 6 -5 -33 -154 -40 -154 -5 0 -82 22 -171 49
-329 99 -527 139 -728 149 -100 5 -125 8 -95 14 60 10 436 1 635 -17z m-687
-2 c-7 -2 -19 -2 -25 0 -7 3 -2 5 12 5 14 0 19 -2 13 -5z"/>
</g>
</svg>
