<?xml version="1.0" standalone="no"?>
<!DOCTYPE svg PUBLIC "-//W3C//DTD SVG 20010904//EN"
 "http://www.w3.org/TR/2001/REC-SVG-20010904/DTD/svg10.dtd">
<svg version="1.0" xmlns="http://www.w3.org/2000/svg"
 width="165.000000pt" height="101.000000pt" viewBox="0 0 165.000000 101.000000"
 preserveAspectRatio="xMidYMid meet">
<metadata>
Created by potrace 1.16, written by Peter Selinger 2001-2019
</metadata>
<g transform="translate(0.000000,101.000000) scale(0.100000,-0.100000)"
fill="#000000" stroke="none">
<path d="M517 663 l-77 -45 -49 36 c-55 41 -57 41 -64 22 -3 -8 12 -26 40 -46
l45 -33 -49 -28 c-26 -16 -52 -30 -57 -32 -5 -2 -5 -10 0 -20 9 -15 17 -12 71
24 l62 40 85 -55 c47 -30 88 -51 91 -46 3 4 37 27 76 49 53 31 82 41 114 41
37 0 44 -3 48 -22 l4 -23 8 23 c7 20 14 22 75 22 63 0 69 -2 73 -22 4 -22 4
-22 6 -2 1 17 9 22 47 28 67 9 94 8 94 -5 0 -10 34 -61 139 -208 77 -109 57
-49 -29 85 -59 93 -77 129 -68 135 7 4 9 11 6 15 -4 4 11 27 32 52 60 68 48
74 -18 9 l-58 -57 -67 0 -67 0 0 45 c0 33 -4 45 -15 45 -11 0 -15 -12 -15 -45
l0 -45 -65 0 -65 0 0 50 c0 64 -18 66 -22 3 l-3 -48 -41 -3 c-35 -3 -51 4
-105 41 -105 73 -95 72 -182 20z m146 -31 l77 -44 -81 -39 -80 -39 -55 42
c-30 24 -54 45 -54 48 1 7 104 79 110 77 3 -1 40 -22 83 -45z"/>
</g>
</svg>
