<?xml version="1.0" standalone="no"?>
<!DOCTYPE svg PUBLIC "-//W3C//DTD SVG 20010904//EN"
 "http://www.w3.org/TR/2001/REC-SVG-20010904/DTD/svg10.dtd">
<svg version="1.0" xmlns="http://www.w3.org/2000/svg"
 width="139.000000pt" height="138.000000pt" viewBox="0 0 139.000000 138.000000"
 preserveAspectRatio="xMidYMid meet">
<metadata>
Created by potrace 1.16, written by Peter Selinger 2001-2019
</metadata>
<g transform="translate(0.000000,138.000000) scale(0.100000,-0.100000)"
fill="#000000" stroke="none">
<path d="M505 973 c4 -60 8 -114 10 -120 3 -10 -22 -13 -105 -13 l-110 0 0
-67 c0 -108 12 -263 20 -258 12 7 204 35 209 30 2 -3 7 -58 10 -122 l6 -118
50 2 c27 1 64 4 82 8 33 6 33 6 33 65 l0 60 38 1 c20 0 105 6 187 12 l150 12
3 48 c2 26 2 47 0 47 -2 0 -70 9 -153 20 -82 11 -167 20 -187 20 l-38 0 0 103
0 103 133 17 c72 10 144 17 158 17 27 0 39 19 39 66 0 19 -10 23 -107 37 -60
9 -136 17 -170 18 l-63 2 -1 41 c-1 23 -1 46 0 52 1 13 -67 24 -146 24 l-54 0
6 -107z m173 -160 c7 -131 13 -273 15 -315 l2 -78 -66 0 -66 0 -6 233 c-4 127
-10 269 -13 315 l-7 82 65 0 64 0 12 -237z m320 102 c6 -2 12 -15 12 -28 0
-23 -3 -24 -147 -35 -163 -14 -163 -14 -163 48 l0 35 143 -8 c78 -4 148 -10
155 -12z m-478 -124 c0 -35 -16 -41 -117 -41 l-73 0 0 29 c0 33 9 36 133 39
57 2 57 2 57 -27z m10 -96 l0 -45 -47 0 c-27 0 -72 -3 -100 -6 l-53 -7 0 36
c0 33 3 37 33 42 17 3 52 10 77 14 88 17 90 16 90 -34z m0 -95 c0 -35 -9 -38
-123 -42 -77 -3 -88 1 -79 33 4 16 84 34 170 38 29 1 32 -2 32 -29z m422 -46
l107 -6 6 -30 c4 -16 5 -31 3 -32 -1 -2 -83 -6 -180 -9 l-178 -5 0 50 0 50 68
-6 c37 -3 115 -8 174 -12z m-254 -186 l-3 -33 -72 -2 c-40 -2 -73 1 -73 5 1
37 14 51 54 55 102 9 98 10 94 -25z"/>
</g>
</svg>
