<?xml version="1.0" standalone="no"?>
<!DOCTYPE svg PUBLIC "-//W3C//DTD SVG 20010904//EN"
 "http://www.w3.org/TR/2001/REC-SVG-20010904/DTD/svg10.dtd">
<svg version="1.0" xmlns="http://www.w3.org/2000/svg"
 width="171.000000pt" height="134.000000pt" viewBox="0 0 171.000000 134.000000"
 preserveAspectRatio="xMidYMid meet">
<metadata>
Created by potrace 1.16, written by Peter Selinger 2001-2019
</metadata>
<g transform="translate(0.000000,134.000000) scale(0.100000,-0.100000)"
fill="#000000" stroke="none">
<path d="M834 1016 c-3 -14 -4 -52 -2 -84 l3 -60 -105 0 c-58 0 -113 5 -122
10 -17 8 -18 1 -18 -88 0 -95 0 -96 -22 -90 -13 3 -71 6 -130 6 l-108 0 0 59
0 58 77 7 c42 3 99 6 127 6 37 0 47 3 36 10 -8 5 -65 10 -127 10 -64 0 -114 4
-118 10 -19 31 -25 -3 -24 -142 1 -157 14 -333 17 -237 l2 46 61 7 c34 3 96 6
137 6 58 0 73 3 64 12 -7 7 -55 12 -135 12 l-123 1 4 50 c3 28 5 51 6 52 1 1
59 4 128 7 l126 5 8 -122 9 -122 5 117 c3 64 8 119 11 122 3 3 50 8 105 11
117 5 116 5 84 15 -14 4 -62 8 -107 9 -45 1 -83 5 -85 11 -1 5 -1 32 0 59 4
47 5 49 40 55 21 3 67 6 103 6 52 0 68 -4 73 -16 3 -9 6 -75 6 -147 l0 -132
-110 3 c-98 3 -110 2 -110 -13 0 -16 10 -17 110 -10 l110 7 0 -38 c0 -22 3
-49 6 -61 6 -23 6 -23 -107 -20 -99 2 -114 0 -117 -15 -3 -15 8 -16 112 -11
l116 6 0 -39 c0 -61 9 -68 76 -60 92 11 106 16 94 31 -6 8 -10 37 -8 66 l3 52
168 28 c158 26 212 39 156 39 -13 0 -80 -7 -149 -15 -185 -22 -180 -23 -180
24 0 49 5 50 185 52 77 0 149 4 160 9 14 6 -2 9 -50 9 -38 1 -121 4 -183 8
l-113 6 3 86 3 86 145 6 c245 11 246 11 170 19 -36 4 -122 8 -192 9 l-128 1 0
26 0 27 168 -7 c92 -4 182 -9 200 -13 18 -3 32 -1 32 5 0 9 -135 27 -307 40
l-88 7 -5 55 c-6 67 -25 65 -25 -3 l0 -47 -37 0 c-31 0 -38 -4 -38 -20 0 -17
7 -20 40 -20 36 0 40 -3 40 -24 0 -20 -6 -25 -38 -31 -21 -3 -45 -5 -53 -3 -8
2 -14 -5 -14 -17 0 -17 6 -19 53 -16 l52 2 0 -90 0 -91 -60 0 c-53 0 -60 -2
-60 -20 0 -18 5 -19 59 -14 l59 7 4 -42 c2 -23 2 -44 -1 -47 -2 -2 -31 -4 -63
-4 -52 0 -58 -2 -58 -21 0 -20 3 -21 65 -14 l65 7 0 -59 0 -59 -70 -2 -70 -3
0 340 0 339 63 7 c100 11 102 24 5 25 -85 0 -88 -1 -94 -24z"/>
<path d="M334 416 c-4 -9 -4 -19 -2 -22 3 -2 65 -1 137 2 159 9 153 22 -13 31
-103 5 -116 4 -122 -11z"/>
</g>
</svg>
