<?xml version="1.0" standalone="no"?>
<!DOCTYPE svg PUBLIC "-//W3C//DTD SVG 20010904//EN"
 "http://www.w3.org/TR/2001/REC-SVG-20010904/DTD/svg10.dtd">
<svg version="1.0" xmlns="http://www.w3.org/2000/svg"
 width="227.000000pt" height="439.000000pt" viewBox="0 0 227.000000 439.000000"
 preserveAspectRatio="xMidYMid meet">
<metadata>
Created by potrace 1.16, written by Peter Selinger 2001-2019
</metadata>
<g transform="translate(0.000000,439.000000) scale(0.100000,-0.100000)"
fill="#000000" stroke="none">
<path d="M609 4017 c-157 -107 -309 -219 -309 -228 0 -4 8 -10 18 -12 16 -4
16 -5 0 -6 -10 0 -18 -4 -18 -8 1 -13 408 -303 425 -303 4 0 1 7 -6 16 -10 13
-13 73 -10 285 3 250 2 269 -15 269 -16 0 -17 -17 -11 -260 5 -244 4 -259 -12
-247 -10 6 -48 38 -87 69 -38 31 -106 86 -152 121 l-82 65 57 43 c32 23 105
81 163 127 58 47 110 89 117 94 18 14 270 -69 561 -184 139 -55 251 -102 250
-104 -2 -1 -91 -30 -198 -64 -198 -62 -563 -181 -568 -185 -1 -1 0 -9 3 -18 6
-13 15 -12 73 9 37 13 211 73 387 134 176 61 324 115 329 120 5 5 -19 21 -60
40 -192 88 -432 186 -563 230 -80 27 -154 54 -163 60 -10 5 -19 10 -20 10 -2
0 -51 -33 -109 -73z"/>
<path d="M1694 3864 c-49 -31 -101 -64 -115 -72 -49 -30 -35 -51 80 -124 179
-112 181 -92 3 30 -83 56 -83 57 -61 72 13 8 61 43 108 76 l86 62 6 -30 c4
-17 8 -85 8 -152 1 -66 6 -125 11 -130 7 -7 10 51 10 157 l0 167 -23 0 c-13 0
-64 -25 -113 -56z"/>
<path d="M605 3089 c-231 -162 -307 -222 -293 -230 11 -8 11 -10 -1 -18 -15
-9 64 -71 287 -225 l113 -78 162 72 c89 40 223 102 297 137 74 36 142 65 150
65 8 1 53 -23 100 -54 99 -64 150 -92 150 -81 -1 9 -22 25 -138 104 l-82 57
102 72 c119 84 126 87 125 63 -1 -165 5 -293 13 -293 6 0 10 39 10 98 l0 97
108 -3 109 -3 59 -49 c79 -66 91 -63 25 4 l-54 55 53 48 c68 61 46 69 -24 9
l-54 -46 -111 0 -111 0 0 60 c0 48 -3 60 -16 60 -29 0 -261 -146 -256 -161 4
-15 -5 -11 -146 72 -120 70 -216 120 -418 215 -28 13 -53 24 -55 23 -2 0 -49
-32 -104 -70z m468 -138 c125 -62 227 -117 227 -120 0 -4 -80 -40 -177 -81
-322 -133 -404 -172 -399 -186 3 -7 0 -11 -7 -8 -9 3 -12 74 -12 276 0 225 -2
272 -14 276 -12 4 -13 -35 -8 -261 l6 -265 -162 129 c-89 71 -163 133 -165
138 -1 4 53 51 120 103 68 52 143 113 168 135 l44 40 76 -31 c41 -17 177 -82
303 -145z"/>
<path d="M734 2075 c-4 -8 -12 -15 -20 -15 -8 0 -14 -6 -14 -14 0 -8 -38 -67
-84 -132 -47 -65 -82 -123 -78 -129 4 -5 5 -17 4 -25 -1 -8 37 -69 84 -135 48
-66 91 -132 96 -147 l10 -27 36 18 c21 10 145 67 277 126 268 120 299 135 292
141 -2 2 -104 -36 -227 -86 -123 -50 -224 -89 -225 -88 -2 2 -1 89 2 195 l6
192 51 -21 c118 -47 380 -138 384 -133 6 5 -19 16 -278 124 -322 134 -312 129
-300 152 8 13 8 19 0 19 -6 0 -13 -7 -16 -15z m54 -81 l59 -25 7 -112 c3 -62
7 -156 7 -210 l2 -99 -53 -24 c-28 -13 -55 -24 -59 -24 -15 0 -183 272 -177
286 3 8 29 51 59 97 29 45 61 94 70 110 10 15 19 27 22 27 2 0 30 -12 63 -26z"/>
<path d="M1436 1859 c-57 -55 -74 -78 -72 -96 2 -14 31 -53 72 -94 106 -107
113 -86 9 29 l-57 63 53 62 c29 34 59 70 67 80 9 9 13 20 9 23 -3 3 -39 -27
-81 -67z"/>
<path d="M724 902 c-12 -9 -23 -24 -26 -32 -3 -8 -42 -66 -87 -129 -53 -74
-77 -117 -70 -122 8 -5 8 -8 0 -13 -11 -7 25 -66 126 -203 29 -40 53 -80 53
-88 0 -27 34 -16 216 66 279 126 240 118 320 72 38 -22 110 -62 159 -88 50
-27 92 -52 93 -57 2 -4 8 -8 13 -8 5 0 9 73 9 169 l0 169 133 7 134 7 82 -82
c87 -87 120 -102 55 -24 -21 25 -52 61 -67 80 l-29 34 66 77 c36 42 66 81 66
87 0 6 -38 -27 -84 -73 l-84 -83 -136 7 -136 7 0 94 c0 78 -3 94 -15 94 -19 0
-115 -48 -248 -123 l-97 -56 -193 89 c-107 48 -204 91 -215 95 -25 7 -27 16
-10 33 18 18 -4 14 -28 -6z m127 -173 c4 -41 8 -135 9 -209 l2 -135 -58 -28
c-54 -26 -60 -27 -69 -12 -5 9 -45 71 -87 138 -43 66 -78 124 -78 129 0 5 22
41 48 81 27 40 61 93 76 119 l27 47 62 -28 62 -28 6 -74z m651 -131 c3 -139 4
-255 2 -256 -1 -2 -49 25 -106 60 -198 124 -194 122 -231 105 -28 -14 -67 -30
-239 -98 l-47 -18 6 192 c3 106 7 193 8 195 2 2 65 -22 141 -52 76 -31 144
-56 151 -56 12 0 238 133 278 164 11 8 23 16 26 16 3 0 9 -114 11 -252z"/>
</g>
</svg>
