<?xml version="1.0" standalone="no"?>
<!DOCTYPE svg PUBLIC "-//W3C//DTD SVG 20010904//EN"
 "http://www.w3.org/TR/2001/REC-SVG-20010904/DTD/svg10.dtd">
<svg version="1.0" xmlns="http://www.w3.org/2000/svg"
 width="110.000000pt" height="152.000000pt" viewBox="0 0 110.000000 152.000000"
 preserveAspectRatio="xMidYMid meet">
<metadata>
Created by potrace 1.16, written by Peter Selinger 2001-2019
</metadata>
<g transform="translate(0.000000,152.000000) scale(0.100000,-0.100000)"
fill="#000000" stroke="none">
<path d="M303 1204 c-3 -9 -2 -190 2 -403 4 -212 8 -412 9 -444 l1 -57 236 0
236 0 6 83 c4 45 7 249 7 453 l0 371 -107 6 c-58 4 -169 7 -245 7 -118 0 -140
-2 -145 -16z m447 -141 l0 -128 -132 3 c-73 1 -161 5 -195 8 l-63 6 0 114 0
113 133 4 c72 1 160 4 195 5 l62 2 0 -127z m0 -184 c0 -36 -44 -175 -84 -264
l-13 -30 -153 3 -152 3 6 112 c3 62 6 131 6 155 l0 42 49 0 49 0 -49 -141
c-54 -153 -52 -149 -41 -149 4 0 13 12 19 28 103 249 118 277 148 266 9 -4 0
-41 -36 -146 -50 -142 -60 -206 -19 -113 57 128 107 254 102 259 -3 4 13 6 36
6 23 0 42 -3 42 -6 0 -6 -80 -238 -95 -276 -4 -10 -3 -18 3 -18 9 0 70 132
113 243 19 49 30 61 62 66 4 0 7 -18 7 -40z m9 -261 c1 -38 1 -38 -39 -38 -22
0 -40 3 -40 7 0 4 15 41 33 83 l32 77 7 -46 c3 -25 7 -63 7 -83z m5 -135 c3
-42 6 -97 6 -122 l0 -46 -112 2 c-62 2 -159 6 -215 9 l-103 6 0 41 c0 23 3 72
6 109 l7 67 141 4 c78 1 168 4 202 5 l61 2 7 -77z"/>
</g>
</svg>
