<?xml version="1.0" standalone="no"?>
<!DOCTYPE svg PUBLIC "-//W3C//DTD SVG 20010904//EN"
 "http://www.w3.org/TR/2001/REC-SVG-20010904/DTD/svg10.dtd">
<svg version="1.0" xmlns="http://www.w3.org/2000/svg"
 width="184.000000pt" height="217.000000pt" viewBox="0 0 184.000000 217.000000"
 preserveAspectRatio="xMidYMid meet">
<metadata>
Created by potrace 1.16, written by Peter Selinger 2001-2019
</metadata>
<g transform="translate(0.000000,217.000000) scale(0.100000,-0.100000)"
fill="#000000" stroke="none">
<path d="M466 1824 c-3 -26 -6 -97 -6 -159 l0 -112 -45 -18 c-25 -9 -61 -32
-80 -50 -30 -28 -35 -39 -35 -78 0 -57 24 -121 53 -140 40 -25 80 -29 321 -27
195 1 237 -2 229 -12 -11 -14 -29 -86 -39 -160 -6 -46 -7 -48 -100 -109 -82
-54 -92 -64 -83 -80 9 -18 16 -15 91 36 59 39 84 51 90 42 19 -29 6 -49 -62
-92 -63 -40 -69 -47 -60 -65 10 -19 13 -19 68 18 31 21 62 42 69 46 8 4 18 -4
27 -22 8 -15 36 -52 63 -82 l47 -53 -3 -203 c-2 -126 1 -204 7 -204 10 0 18
64 27 215 4 50 8 105 11 124 l5 33 25 -23 c24 -22 24 -26 24 -186 0 -90 4
-162 9 -159 4 3 14 69 21 146 7 77 15 140 17 140 3 0 17 -9 31 -21 25 -19 26
-19 33 -2 3 10 10 74 13 143 4 69 10 133 12 143 5 14 18 17 82 17 100 0 212
11 212 20 0 5 -65 11 -145 15 l-145 7 0 57 c0 103 -7 97 147 104 124 5 154 10
142 22 -3 2 -66 5 -142 6 l-137 1 0 67 c0 69 5 84 30 94 8 3 -3 6 -25 7 -22 0
-65 3 -95 5 -30 3 -153 7 -272 11 l-218 6 0 67 c0 92 -14 135 -55 169 l-35 28
10 140 c13 181 13 174 -9 174 -28 0 -31 -18 -31 -171 0 -85 -4 -138 -9 -134
-6 3 -14 -3 -20 -12 -6 -10 -11 -12 -11 -5 0 6 -7 12 -16 12 -13 0 -15 8 -10
38 3 20 8 90 12 155 6 112 5 117 -14 117 -15 0 -21 -9 -26 -46z m94 -360 c0
-34 4 -53 10 -49 6 3 10 27 10 51 0 32 4 45 13 42 22 -7 57 -92 63 -156 l7
-62 -116 0 c-83 0 -117 -3 -120 -12 -7 -21 -59 15 -79 53 -10 19 -18 46 -18
61 0 35 43 83 93 103 l37 15 0 -50 c0 -27 5 -50 10 -50 6 0 10 18 10 39 0 59
8 71 46 71 l34 0 0 -56z m652 -549 c-1 -184 -5 -335 -9 -335 -4 0 -17 9 -28
20 -20 19 -22 28 -17 90 4 65 3 70 -16 70 -17 0 -21 -9 -27 -51 l-7 -51 -24
23 c-14 13 -24 34 -24 51 0 23 -4 28 -25 28 -25 0 -67 46 -100 111 -14 25 -12
27 91 104 58 42 102 80 100 83 -3 2 -49 -21 -103 -53 -54 -32 -101 -60 -105
-62 -5 -2 -8 12 -8 31 0 32 7 40 80 97 44 34 78 64 76 67 -3 2 -37 -14 -76
-38 -40 -23 -74 -40 -76 -37 -6 6 14 119 26 152 10 27 30 30 185 33 l90 2 -3
-335z"/>
</g>
</svg>
