<?xml version="1.0" standalone="no"?>
<!DOCTYPE svg PUBLIC "-//W3C//DTD SVG 20010904//EN"
 "http://www.w3.org/TR/2001/REC-SVG-20010904/DTD/svg10.dtd">
<svg version="1.0" xmlns="http://www.w3.org/2000/svg"
 width="248.000000pt" height="327.000000pt" viewBox="0 0 248.000000 327.000000"
 preserveAspectRatio="xMidYMid meet">
<metadata>
Created by potrace 1.16, written by Peter Selinger 2001-2019
</metadata>
<g transform="translate(0.000000,327.000000) scale(0.100000,-0.100000)"
fill="#000000" stroke="none">
<path d="M1914 2945 c-23 -36 -111 -228 -129 -284 -10 -30 -22 -60 -28 -65 -6
-7 -73 -10 -193 -8 l-184 4 0 -23 0 -22 189 6 190 6 16 -57 c31 -111 69 -196
126 -281 71 -104 88 -126 92 -120 2 2 30 49 61 104 61 107 97 207 116 323 l12
72 -45 93 c-24 51 -70 134 -101 184 -49 79 -59 91 -82 89 -15 0 -33 -10 -40
-21z m88 -80 c32 -46 98 -158 98 -166 0 -2 -49 -2 -110 -1 -98 3 -110 2 -110
-13 0 -15 13 -16 116 -14 158 5 155 9 123 -178 l-11 -63 -115 7 c-110 6 -115
5 -111 -13 3 -18 12 -19 111 -16 59 2 107 1 107 -1 0 -3 -4 -18 -10 -32 -10
-26 -11 -26 -104 -24 -51 1 -98 -1 -104 -5 -11 -7 -52 106 -76 210 l-14 61 52
109 c66 138 107 208 116 197 3 -4 22 -30 42 -58z m62 -557 c-4 -13 -23 -58
-43 -101 l-36 -77 -32 59 -33 60 55 6 c75 10 69 25 -10 25 -36 0 -65 2 -65 4
0 2 -3 11 -6 20 -5 13 7 16 73 19 43 1 84 4 91 5 9 1 11 -5 6 -20z"/>
<path d="M1880 2775 c0 -11 12 -15 53 -15 28 0 63 3 75 7 40 10 4 23 -65 23
-49 0 -63 -3 -63 -15z"/>
<path d="M1880 2595 c0 -12 18 -15 103 -15 113 0 158 13 81 24 -26 3 -78 6
-115 6 -55 0 -69 -3 -69 -15z"/>
<path d="M1887 2513 c-4 -3 -7 -13 -7 -21 0 -13 17 -14 112 -8 107 7 127 10
117 20 -7 8 -215 16 -222 9z"/>
<path d="M815 2532 c-156 -96 -265 -171 -265 -182 0 -6 -42 -10 -100 -10
l-100 0 0 -27 0 -26 653 7 c358 4 676 9 705 13 l52 6 0 -96 c0 -53 4 -98 9
-101 15 -10 30 288 15 303 -2 3 -62 0 -132 -7 -351 -33 -520 -45 -534 -40 -9
4 -53 56 -99 117 -46 60 -86 110 -89 110 -3 0 -54 -30 -115 -67z m123 8 c12
-16 22 -31 22 -34 0 -2 -17 -14 -37 -26 l-37 -22 -23 29 c-13 15 -23 30 -23
33 0 6 62 50 70 50 4 0 16 -13 28 -30z m-99 -69 l21 -29 -86 -51 c-76 -45 -92
-51 -141 -51 l-56 0 114 80 c63 43 117 79 121 80 4 0 16 -13 27 -29z m195
-109 c-56 -3 -60 -2 -91 32 -18 20 -33 40 -33 46 0 6 15 19 33 31 l32 20 59
-63 58 -63 -58 -3z m-111 -4 c-10 -3 -51 -7 -92 -7 l-74 -1 59 39 59 38 33
-31 c29 -27 31 -31 15 -38z m837 6 l0 -47 -61 7 c-34 3 -168 7 -298 7 l-236 2
120 14 c66 8 194 25 285 38 91 12 171 23 178 24 8 1 12 -14 12 -45z"/>
<path d="M863 1147 c-35 -23 -119 -78 -188 -122 -69 -44 -125 -86 -125 -92 0
-10 -27 -13 -100 -13 l-100 0 0 -25 0 -26 189 3 189 3 -34 -65 c-18 -36 -43
-87 -54 -113 l-20 -49 -160 8 -160 7 0 -23 0 -23 161 4 161 4 23 -67 c13 -37
33 -85 45 -105 34 -58 113 -153 128 -153 20 0 108 143 131 213 36 111 37 141
6 200 -16 29 -44 76 -63 105 -19 29 -33 54 -31 56 2 2 205 6 452 9 l447 5 0
-94 c0 -52 4 -94 9 -94 10 0 27 180 23 248 -2 28 -9 53 -15 55 -7 2 -118 -6
-247 -18 -129 -13 -276 -26 -326 -30 l-90 -7 -94 121 c-51 67 -94 121 -94 120
-1 -1 -29 -20 -63 -42z m77 -28 c12 -16 21 -32 19 -33 -2 -2 -19 -13 -38 -24
l-34 -20 -25 30 -25 30 29 23 c38 32 48 31 74 -6z m-100 -64 c13 -14 22 -26
19 -28 -2 -2 -38 -24 -79 -50 -61 -37 -87 -47 -140 -53 -36 -4 -62 -4 -59 0
11 12 223 156 229 156 4 0 17 -11 30 -25z m194 -42 c51 -54 54 -58 33 -65 -12
-3 -38 -6 -58 -7 -31 -1 -42 5 -72 42 l-35 43 32 21 c17 12 34 22 38 22 3 1
31 -25 62 -56z m-146 -75 c-29 -3 -71 -6 -93 -7 l-40 -1 60 40 60 40 33 -33
33 -32 -53 -7z m872 11 l0 -40 -260 2 c-143 1 -265 6 -272 11 -8 4 5 8 32 9
25 0 137 13 250 28 275 38 250 39 250 -10z m-900 -136 c27 -38 50 -72 50 -77
0 -5 -40 -6 -90 -3 -74 4 -90 3 -90 -9 0 -11 20 -14 100 -14 115 0 122 -5 109
-79 -18 -99 -8 -91 -114 -91 -81 0 -95 -2 -95 -16 0 -15 10 -16 91 -10 84 6
90 5 87 -11 -3 -15 -17 -19 -97 -23 l-94 -5 -15 35 c-8 19 -23 62 -32 95 l-18
60 44 86 c47 92 76 129 99 129 9 0 38 -30 65 -67z m-5 -423 c-19 -38 -37 -70
-39 -70 -6 0 -46 65 -46 74 0 3 12 6 28 7 15 0 36 4 47 8 15 6 5 10 -40 16
-87 11 -90 19 -10 26 39 3 76 6 83 7 7 1 -2 -26 -23 -68z"/>
<path d="M730 784 c0 -11 5 -14 16 -10 9 3 38 6 65 6 31 0 48 4 44 10 -3 6
-33 10 -66 10 -47 0 -59 -3 -59 -16z"/>
<path d="M730 655 c0 -12 15 -15 78 -14 92 1 135 12 83 22 -19 4 -62 7 -97 7
-50 0 -64 -3 -64 -15z"/>
<path d="M730 585 c0 -12 14 -15 64 -15 35 0 78 3 97 7 52 10 9 21 -83 22 -63
1 -78 -2 -78 -14z"/>
</g>
</svg>
