<?xml version="1.0" standalone="no"?>
<!DOCTYPE svg PUBLIC "-//W3C//DTD SVG 20010904//EN"
 "http://www.w3.org/TR/2001/REC-SVG-20010904/DTD/svg10.dtd">
<svg version="1.0" xmlns="http://www.w3.org/2000/svg"
 width="244.000000pt" height="147.000000pt" viewBox="0 0 244.000000 147.000000"
 preserveAspectRatio="xMidYMid meet">
<metadata>
Created by potrace 1.16, written by Peter Selinger 2001-2019
</metadata>
<g transform="translate(0.000000,147.000000) scale(0.100000,-0.100000)"
fill="#000000" stroke="none">
<path d="M1832 1041 c-33 -69 -67 -151 -77 -181 -10 -30 -19 -56 -20 -58 -2
-2 -29 16 -61 38 -33 23 -113 73 -178 112 -112 67 -120 70 -133 52 -12 -16 -7
-22 64 -61 43 -24 129 -69 191 -99 170 -83 167 -85 -130 -113 -134 -12 -284
-25 -335 -29 l-91 -8 -82 107 c-45 58 -86 112 -90 119 -5 9 -36 -5 -111 -51
-144 -86 -276 -176 -281 -190 -3 -8 -34 -11 -101 -10 l-97 2 0 -27 0 -27 673
7 c369 5 686 9 702 10 l30 1 3 -97 c1 -54 6 -98 11 -98 8 0 22 154 22 235 0
39 0 38 17 -20 26 -89 72 -180 138 -272 33 -46 61 -83 64 -83 3 0 30 44 60 98
69 122 111 243 117 344 6 76 6 77 -45 180 -28 57 -71 134 -96 173 -38 59 -49
70 -74 71 -29 2 -32 -3 -90 -125z m182 -42 c68 -113 73 -105 -54 -101 -98 3
-110 2 -110 -13 0 -16 12 -17 119 -13 156 5 152 11 119 -179 l-10 -63 -115 7
c-110 6 -115 5 -111 -13 3 -18 12 -19 111 -16 59 2 107 2 107 -1 0 -3 -4 -18
-10 -32 -10 -26 -11 -26 -104 -24 -51 1 -98 -1 -104 -4 -16 -11 -82 194 -82
255 0 29 58 161 117 266 l35 64 24 -28 c12 -16 43 -63 68 -105z m-1130 -126
c11 -15 51 -62 88 -104 l67 -76 -132 -7 c-73 -3 -188 -9 -257 -12 l-125 -6 75
53 c41 29 116 81 165 116 50 34 92 63 94 63 2 0 13 -12 25 -27z m826 -179 l0
-47 -82 6 c-46 4 -182 7 -303 8 l-220 1 160 19 c126 15 394 50 438 58 4 0 7
-20 7 -45z m325 -186 c-4 -13 -24 -58 -44 -101 l-36 -77 -32 59 -33 60 55 6
c75 10 69 25 -10 25 -36 0 -65 2 -65 4 0 2 -3 11 -6 20 -5 13 7 16 68 19 40 1
81 4 91 5 15 2 17 -3 12 -20z"/>
<path d="M1850 975 c0 -11 12 -15 53 -15 28 0 63 3 75 7 40 10 4 23 -65 23
-49 0 -63 -3 -63 -15z"/>
<path d="M1850 795 c0 -12 19 -15 109 -15 110 0 153 12 83 24 -20 3 -72 6
-114 6 -63 0 -78 -3 -78 -15z"/>
<path d="M1857 714 c-4 -4 -7 -14 -7 -22 0 -13 17 -14 112 -8 106 7 127 11
117 20 -8 8 -214 17 -222 10z"/>
</g>
</svg>
