<?xml version="1.0" standalone="no"?>
<!DOCTYPE svg PUBLIC "-//W3C//DTD SVG 20010904//EN"
 "http://www.w3.org/TR/2001/REC-SVG-20010904/DTD/svg10.dtd">
<svg version="1.0" xmlns="http://www.w3.org/2000/svg"
 width="130.000000pt" height="139.000000pt" viewBox="0 0 130.000000 139.000000"
 preserveAspectRatio="xMidYMid meet">
<metadata>
Created by potrace 1.16, written by Peter Selinger 2001-2019
</metadata>
<g transform="translate(0.000000,139.000000) scale(0.100000,-0.100000)"
fill="#000000" stroke="none">
<path d="M850 1007 c-74 -46 -169 -105 -210 -131 l-75 -48 -112 7 c-154 9
-153 10 -153 -127 0 -59 4 -118 10 -132 9 -26 10 -26 126 -26 l116 0 122 -74
c118 -72 300 -176 307 -176 2 0 5 154 7 343 1 188 5 366 9 395 3 28 1 52 -3
52 -5 0 -70 -38 -144 -83z m110 -91 c0 -69 -3 -126 -7 -129 -5 -2 -34 -1 -65
1 l-58 4 0 64 c0 56 -2 64 -19 64 -24 0 -87 -69 -107 -118 -9 -20 -27 -61 -40
-90 -26 -58 -28 -62 -16 -62 4 0 16 14 26 30 l17 30 25 -47 c14 -27 32 -54 39
-62 12 -12 10 -21 -11 -62 l-25 -48 -90 57 c-85 54 -90 59 -85 86 4 16 6 53 6
82 l0 54 133 89 c72 49 161 110 197 135 36 25 68 46 73 46 4 0 7 -56 7 -124z
m-151 -103 c1 -20 -4 -23 -39 -23 -22 0 -40 4 -40 8 0 4 15 28 32 52 l33 44 6
-29 c4 -17 7 -40 8 -52z m-291 -115 l-3 -113 -99 -3 -99 -3 7 32 c3 17 6 67 6
110 l0 78 58 4 c31 2 74 4 95 5 l38 2 -3 -112z m444 -145 c2 -120 3 -219 2
-221 -3 -5 -223 142 -223 150 -1 4 8 23 20 42 26 44 41 39 76 -26 33 -61 43
-46 14 22 -16 38 -21 69 -21 144 0 106 -4 102 87 105 l41 1 4 -217z m-152 112
c0 -52 -3 -95 -8 -95 -17 0 -82 129 -82 164 0 24 3 26 45 26 l45 0 0 -95z"/>
</g>
</svg>
