<?xml version="1.0" standalone="no"?>
<!DOCTYPE svg PUBLIC "-//W3C//DTD SVG 20010904//EN"
 "http://www.w3.org/TR/2001/REC-SVG-20010904/DTD/svg10.dtd">
<svg version="1.0" xmlns="http://www.w3.org/2000/svg"
 width="122.000000pt" height="147.000000pt" viewBox="0 0 122.000000 147.000000"
 preserveAspectRatio="xMidYMid meet">
<metadata>
Created by potrace 1.16, written by Peter Selinger 2001-2019
</metadata>
<g transform="translate(0.000000,147.000000) scale(0.100000,-0.100000)"
fill="#000000" stroke="none">
<path d="M453 1091 c-26 -42 -72 -123 -101 -181 l-53 -105 12 -75 c18 -110 54
-215 106 -305 25 -44 51 -90 57 -102 6 -13 14 -23 17 -23 13 0 121 161 153
230 50 106 90 249 77 275 -6 11 -22 50 -35 88 l-25 67 22 14 c12 7 69 41 127
76 58 35 106 64 108 65 7 5 -12 35 -22 35 -7 0 -65 -36 -130 -80 -65 -44 -119
-80 -120 -80 -1 0 -21 40 -45 88 -40 81 -46 89 -72 89 -25 0 -35 -10 -76 -76z
m114 -26 c9 -16 12 -27 8 -23 -10 9 -99 -111 -90 -120 4 -4 28 18 55 48 27 30
50 53 53 50 2 -3 10 -15 16 -28 11 -20 9 -25 -11 -42 -13 -11 -26 -19 -30 -20
-5 0 -8 -5 -8 -11 0 -6 7 -8 15 -5 9 3 -2 -20 -25 -51 -22 -31 -37 -59 -34
-62 12 -11 104 103 98 122 -3 9 -1 17 5 17 6 0 24 -27 41 -60 l30 -60 -20 -88
c-25 -103 -57 -184 -125 -310 l-49 -93 -22 43 c-11 24 -31 69 -44 100 l-23 57
47 51 c35 38 45 55 37 63 -6 6 -12 9 -14 6 -3 -2 -20 -25 -40 -51 -39 -52 -40
-52 -56 6 -10 39 -10 40 45 98 48 53 60 78 35 78 -5 0 -26 -25 -46 -55 -21
-30 -41 -55 -45 -55 -4 0 -12 36 -18 81 l-12 81 41 71 c23 40 64 107 92 150
57 85 56 85 94 12z"/>
<path d="M401 864 c-49 -68 -53 -89 -10 -48 48 46 73 84 61 96 -6 6 -23 -9
-51 -48z"/>
<path d="M556 730 c-47 -63 -54 -89 -15 -54 46 41 82 95 71 106 -7 7 -24 -8
-56 -52z"/>
<path d="M560 579 c-23 -33 -40 -63 -36 -66 7 -7 95 88 96 104 1 31 -21 17
-60 -38z"/>
</g>
</svg>
