<?xml version="1.0" standalone="no"?>
<!DOCTYPE svg PUBLIC "-//W3C//DTD SVG 20010904//EN"
 "http://www.w3.org/TR/2001/REC-SVG-20010904/DTD/svg10.dtd">
<svg version="1.0" xmlns="http://www.w3.org/2000/svg"
 width="136.000000pt" height="121.000000pt" viewBox="0 0 136.000000 121.000000"
 preserveAspectRatio="xMidYMid meet">
<metadata>
Created by potrace 1.16, written by Peter Selinger 2001-2019
</metadata>
<g transform="translate(0.000000,121.000000) scale(0.100000,-0.100000)"
fill="#000000" stroke="none">
<path d="M456 902 c-2 -4 29 -69 69 -145 71 -134 73 -138 52 -149 -12 -6 -22
-7 -24 -2 -2 5 -35 68 -73 141 -52 97 -74 131 -85 127 -15 -6 4 -46 106 -230
35 -63 35 -67 4 -88 l-25 -16 -44 87 c-91 179 -111 212 -125 204 -9 -6 8 -46
69 -160 l82 -152 -40 -52 c-44 -58 -86 -136 -78 -144 9 -9 304 -22 499 -23
l177 0 0 25 c0 25 0 25 -95 25 -52 0 -95 2 -95 5 0 4 98 192 105 203 2 1 14
-3 29 -9 21 -10 29 -10 39 0 9 10 9 14 -3 21 -44 27 -44 24 10 128 30 59 50
111 48 124 -3 17 -19 -6 -66 -94 l-63 -117 -30 11 -30 10 61 115 c43 81 58
119 51 126 -13 13 -7 23 -80 -115 -58 -109 -80 -134 -96 -108 -4 6 21 63 55
126 48 90 59 119 50 128 -8 7 -14 7 -16 1 -3 -5 -33 -64 -68 -130 l-63 -120
-49 -6 c-28 -4 -59 -9 -69 -12 -17 -6 -30 13 -93 133 -69 131 -84 152 -96 132z
m274 -317 c-5 -14 -17 -39 -26 -57 l-17 -32 -22 45 c-13 24 -22 46 -20 48 4 4
63 18 82 20 9 1 10 -6 3 -24z m54 -62 c-76 -165 -72 -188 6 -38 30 58 58 105
62 105 4 0 18 -4 32 -10 l25 -9 -51 -111 -51 -110 -61 -1 c-34 0 -87 -2 -119
-2 l-58 -2 -36 79 -36 79 24 18 c13 10 26 19 29 19 3 0 25 -36 49 -81 23 -44
45 -78 48 -75 3 2 -11 40 -31 84 -20 44 -36 82 -36 85 0 4 9 11 20 17 17 9 23
4 49 -48 20 -40 27 -63 20 -73 -5 -8 -9 -21 -8 -29 0 -9 6 -5 14 10 12 22 14
23 20 8 4 -10 11 -18 16 -18 6 0 5 10 -2 22 -10 18 -6 32 22 90 29 60 36 68
61 68 l27 0 -35 -77z m-268 -109 c20 -36 35 -66 33 -68 -7 -6 -189 -15 -189
-9 0 11 108 143 116 143 2 0 20 -29 40 -66z"/>
</g>
</svg>
