<?xml version="1.0" standalone="no"?>
<!DOCTYPE svg PUBLIC "-//W3C//DTD SVG 20010904//EN"
 "http://www.w3.org/TR/2001/REC-SVG-20010904/DTD/svg10.dtd">
<svg version="1.0" xmlns="http://www.w3.org/2000/svg"
 width="160.000000pt" height="305.000000pt" viewBox="0 0 160.000000 305.000000"
 preserveAspectRatio="xMidYMid meet">
<metadata>
Created by potrace 1.16, written by Peter Selinger 2001-2019
</metadata>
<g transform="translate(0.000000,305.000000) scale(0.100000,-0.100000)"
fill="#000000" stroke="none">
<path d="M460 2736 c0 -8 48 -40 108 -71 59 -31 108 -58 110 -60 3 -3 -15 -43
-24 -53 -1 -2 -54 24 -117 57 -92 49 -116 58 -120 46 -5 -11 24 -30 113 -76
66 -33 120 -66 120 -72 -1 -37 -19 -32 -134 30 -82 44 -122 61 -129 54 -14
-14 -15 -14 124 -86 l124 -64 6 -48 c4 -27 9 -58 13 -70 6 -20 -7 -29 -134
-93 -77 -39 -140 -75 -140 -80 0 -23 27 -14 148 50 71 39 135 70 140 70 9 0
26 -30 20 -35 -2 -2 -65 -35 -140 -74 -98 -52 -135 -76 -131 -86 4 -11 39 3
150 61 79 42 145 75 146 73 1 -2 10 -14 20 -25 18 -22 18 -22 -127 -99 -85
-44 -146 -82 -146 -91 0 -8 3 -14 6 -14 4 0 74 36 156 81 l150 80 22 -19 c31
-29 147 -102 161 -102 17 0 23 85 31 408 l7 272 -26 0 -27 0 0 -99 0 -99 -102
54 c-78 41 -102 58 -100 71 7 41 6 56 -4 60 -6 2 -16 -8 -22 -22 -6 -14 -17
-25 -23 -25 -7 0 -58 25 -114 55 -57 30 -106 55 -109 55 -3 0 -6 -6 -6 -14z
m375 -203 l105 -47 2 -103 c1 -57 2 -110 2 -119 1 -10 -26 -28 -78 -52 l-79
-36 -18 23 c-11 13 -19 26 -19 30 0 3 34 23 75 44 88 46 101 69 18 31 -107
-49 -113 -50 -123 -34 -15 23 -13 25 42 55 44 24 56 27 80 17 17 -6 28 -6 28
-1 0 5 -7 12 -16 16 -15 5 -15 7 0 15 27 15 18 28 -10 16 -23 -11 -34 -8 -90
22 -49 27 -64 40 -64 58 0 27 10 28 59 2 80 -40 151 -69 151 -60 0 6 -39 30
-87 54 -118 60 -115 58 -107 89 3 15 10 27 15 27 4 0 56 -21 114 -47z m-89
-144 l48 -22 -45 -22 c-24 -13 -47 -20 -50 -17 -10 11 -18 82 -10 82 5 0 30
-10 57 -21z m206 -254 c2 -52 1 -95 -1 -95 -8 0 -98 70 -120 93 l-23 25 28 16
c16 8 45 24 64 35 19 11 38 20 42 20 4 1 8 -42 10 -94z"/>
<path d="M375 1059 c-4 -6 -5 -12 -3 -15 3 -2 78 -42 166 -87 l162 -83 -30
-22 -30 -22 -138 74 c-150 81 -167 88 -167 67 0 -7 66 -48 147 -90 137 -72
147 -79 134 -96 -12 -17 -22 -14 -158 58 -133 70 -158 79 -158 56 0 -4 66 -42
148 -84 l147 -77 -2 -55 -1 -55 -139 -70 c-154 -78 -161 -84 -147 -98 6 -6 58
16 149 65 76 41 142 72 147 69 4 -3 8 -13 8 -22 0 -12 -45 -40 -141 -90 -81
-43 -138 -79 -136 -85 6 -17 15 -14 160 63 l132 70 17 -22 c10 -13 18 -25 18
-28 0 -3 -66 -39 -145 -80 -80 -41 -145 -78 -145 -82 0 -23 35 -11 162 58 139
75 143 76 168 60 130 -83 268 -118 457 -115 61 1 115 -1 121 -5 13 -8 22 154
22 432 0 209 -2 242 -15 242 -8 0 -24 5 -34 12 -15 9 -45 9 -133 0 -136 -14
-251 -42 -334 -81 l-62 -29 -166 89 c-92 49 -169 89 -171 89 -2 0 -7 -5 -10
-11z m885 -262 c0 -101 3 -245 7 -320 l6 -137 -106 0 c-170 0 -318 37 -407
101 l-43 31 72 40 c40 22 70 42 67 45 -2 2 -36 -9 -74 -26 -39 -17 -75 -31
-81 -31 -10 0 -31 31 -31 47 0 4 34 26 75 47 41 22 75 43 75 48 0 8 -17 2
-114 -42 -40 -18 -50 -20 -57 -9 -16 26 -9 36 41 59 41 19 54 21 75 12 14 -6
25 -8 25 -3 0 5 -7 12 -17 15 -14 6 -14 8 3 22 18 14 17 15 -13 9 -22 -4 -44
0 -75 16 -54 27 -52 24 -39 48 11 21 11 21 69 -5 84 -38 102 -44 102 -36 0 4
-32 24 -70 45 -39 21 -70 40 -70 42 0 2 13 13 28 24 l29 20 53 -25 c72 -33 89
-24 20 11 l-55 28 50 23 c95 43 272 80 403 83 l52 1 0 -183z m-585 -94 l36
-17 -33 -18 c-45 -24 -48 -23 -48 17 0 19 2 35 5 35 2 0 20 -8 40 -17z"/>
</g>
</svg>
