<?xml version="1.0" standalone="no"?>
<!DOCTYPE svg PUBLIC "-//W3C//DTD SVG 20010904//EN"
 "http://www.w3.org/TR/2001/REC-SVG-20010904/DTD/svg10.dtd">
<svg version="1.0" xmlns="http://www.w3.org/2000/svg"
 width="164.000000pt" height="238.000000pt" viewBox="0 0 164.000000 238.000000"
 preserveAspectRatio="xMidYMid meet">
<metadata>
Created by potrace 1.16, written by Peter Selinger 2001-2019
</metadata>
<g transform="translate(0.000000,238.000000) scale(0.100000,-0.100000)"
fill="#000000" stroke="none">
<path d="M1125 2073 c-76 -9 -235 -47 -287 -68 -31 -13 -77 -37 -102 -54 l-45
-31 -195 0 c-168 0 -196 -2 -196 -15 0 -13 27 -15 180 -15 99 0 180 -2 180 -5
0 -4 -7 -19 -15 -35 l-16 -30 -164 0 c-140 0 -165 -2 -165 -15 0 -13 24 -15
160 -15 l160 0 0 -25 0 -25 -155 0 c-131 0 -155 -2 -155 -15 0 -13 24 -15 159
-15 l159 0 4 -30 5 -30 -169 0 c-143 0 -168 -2 -168 -15 0 -13 26 -15 174 -15
l174 0 21 -35 20 -35 -194 0 c-167 0 -195 -2 -195 -15 0 -13 30 -15 209 -15
l209 0 49 -33 c60 -41 162 -74 263 -87 100 -12 257 -13 265 0 4 6 -29 10 -93
10 l-98 0 0 300 c1 279 0 300 -16 300 -15 0 -18 -9 -18 -45 0 -42 -2 -45 -26
-45 -24 0 -25 2 -22 53 l3 52 80 12 c44 6 103 12 131 12 l51 1 7 -277 c4 -153
10 -303 13 -333 13 -109 23 -3 30 313 l6 307 -21 0 c-11 0 -24 5 -27 10 -6 9
-105 11 -170 3z m-135 -103 c0 -49 -1 -50 -31 -50 -29 0 -30 1 -27 42 2 35 7
43 28 49 14 4 26 7 28 8 1 1 2 -21 2 -49z m-90 -15 c0 -35 0 -35 -45 -35 -37
0 -45 3 -45 19 0 12 13 24 38 34 51 22 52 22 52 -18z m-120 -25 c0 -5 -5 -10
-11 -10 -5 0 -7 5 -4 10 3 6 8 10 11 10 2 0 4 -4 4 -10z m210 -70 c0 -38 -2
-40 -30 -40 -28 0 -30 2 -30 40 0 38 2 40 30 40 28 0 30 -2 30 -40z m80 0 c0
-36 -2 -40 -25 -40 -22 0 -25 4 -25 40 0 36 3 40 25 40 23 0 25 -4 25 -40z
m-290 -5 l0 -35 -56 0 c-56 0 -56 0 -42 23 8 12 18 28 22 35 4 6 23 12 42 12
32 0 34 -2 34 -35z m120 0 c0 -35 0 -35 -45 -35 -45 0 -45 0 -45 35 0 35 0 35
45 35 45 0 45 0 45 -35z m90 -85 c0 -27 -3 -30 -30 -30 -27 0 -30 3 -30 30 0
27 3 30 30 30 27 0 30 -3 30 -30z m84 14 c13 -33 6 -44 -24 -44 -27 0 -30 3
-30 30 0 25 4 30 24 30 13 0 27 -7 30 -16z m-294 -19 c0 -24 -3 -25 -60 -25
-57 0 -60 1 -60 25 0 24 3 25 60 25 57 0 60 -1 60 -25z m120 0 c0 -23 -4 -25
-45 -25 -41 0 -45 2 -45 25 0 23 4 25 45 25 41 0 45 -2 45 -25z m0 -80 c0 -35
0 -35 -45 -35 -43 0 -45 1 -45 29 0 28 3 30 43 34 23 2 43 4 45 5 1 1 2 -14 2
-33z m90 23 c0 -7 3 -23 6 -35 6 -21 3 -23 -30 -23 -34 0 -36 1 -36 35 0 32 2
35 30 35 17 0 30 -5 30 -12z m90 -66 c0 -44 3 -113 6 -154 l7 -74 -37 4 -36 4
0 54 c0 53 6 61 43 55 4 0 7 4 7 9 0 5 -11 10 -25 10 -22 0 -25 4 -25 40 0 33
3 40 19 40 11 0 23 5 26 10 4 6 -5 10 -19 10 -23 0 -26 4 -26 35 0 32 2 35 30
35 l30 0 0 -78z m-298 43 c7 -32 3 -35 -53 -35 -33 0 -49 4 -53 16 -14 37 -7
44 48 44 49 0 54 -2 58 -25z m122 -77 c14 -52 9 -58 -44 -58 l-50 0 0 34 c0
30 4 35 28 39 54 8 60 7 66 -15z m96 -18 c0 -39 -1 -40 -35 -40 -34 0 -35 1
-35 40 0 39 1 40 35 40 34 0 35 -1 35 -40z m-210 -5 c0 -30 -3 -35 -24 -35
-22 0 -66 43 -66 64 0 3 20 6 45 6 45 0 45 0 45 -35z m120 -85 c0 -16 5 -30
10 -30 6 0 10 14 10 30 0 28 3 30 35 30 21 0 35 -5 35 -12 0 -7 3 -30 6 -50 8
-47 -1 -48 -100 -13 -109 38 -126 69 -42 74 45 2 46 1 46 -29z"/>
<path d="M1150 1868 c0 -181 18 -429 32 -443 7 -7 9 20 4 84 -3 52 -6 188 -6
303 0 178 -2 208 -15 208 -13 0 -15 -24 -15 -152z"/>
<path d="M380 1056 c0 -9 67 -49 160 -98 l160 -83 -24 -24 -24 -24 -155 82
c-123 64 -156 78 -161 66 -4 -11 29 -33 132 -85 75 -38 143 -73 150 -78 14 -9
6 -42 -10 -42 -6 0 -73 34 -150 75 -128 69 -158 79 -158 56 0 -5 68 -43 150
-85 l150 -77 0 -54 0 -53 -147 -77 c-82 -42 -150 -79 -152 -81 -3 -2 0 -9 6
-15 7 -7 53 12 153 66 78 42 143 75 145 73 1 -1 5 -12 9 -23 5 -18 -12 -29
-139 -93 -111 -55 -143 -75 -139 -87 4 -9 9 -15 13 -13 4 2 69 36 145 76 76
41 139 72 140 70 1 -1 9 -15 18 -29 l16 -25 -144 -72 c-95 -47 -144 -77 -144
-88 0 -20 -6 -22 163 66 l143 74 36 -27 c88 -68 260 -109 445 -106 61 1 116
-1 121 -5 10 -6 19 148 25 487 4 178 3 187 -14 187 -11 0 -28 5 -38 12 -45 28
-357 -26 -475 -82 l-59 -28 -168 89 c-92 49 -170 89 -173 89 -3 0 -6 -6 -6
-14z m890 -91 c0 -8 -4 -15 -9 -15 -4 0 -42 -27 -83 -59 l-75 -59 -44 39 -44
39 34 29 c35 31 56 36 169 39 40 2 52 -1 52 -13z m-250 -25 c-19 -14 -28 -16
-39 -7 -11 10 -10 13 10 18 45 13 55 9 29 -11z m-63 -20 c11 -16 9 -21 -9 -35
-28 -19 -42 -19 -58 0 -9 11 -16 13 -23 6 -7 -7 -5 -16 6 -29 12 -14 14 -21 5
-30 -8 -8 -24 -4 -61 15 -58 29 -57 30 48 70 74 27 77 27 92 3z m313 -65 c0
-79 -2 -86 -25 -101 -24 -15 -26 -15 -70 22 -25 20 -44 41 -43 45 3 7 129 119
136 119 1 0 2 -38 2 -85z m-232 -2 l45 -37 -28 -22 -28 -23 -44 36 -44 36 22
23 c13 13 25 24 27 24 3 0 25 -17 50 -37z m-195 -42 c4 -4 -4 -13 -18 -21 -22
-12 -27 -11 -48 8 -29 28 -51 29 -44 3 4 -17 2 -18 -19 -9 -30 14 -30 22 1 47
l26 20 47 -21 c26 -11 50 -24 55 -27z m121 -25 l38 -33 -40 -33 c-22 -17 -43
-32 -47 -32 -4 0 -25 15 -47 32 l-40 33 38 33 c22 18 44 33 49 33 6 0 27 -15
49 -33z m232 -58 c2 -3 -9 -16 -26 -28 -30 -21 -30 -21 -57 -2 -16 11 -36 29
-46 40 -17 19 -17 20 10 40 l27 20 44 -31 c24 -17 46 -35 48 -39z m-446 -2
c-19 -19 -20 -19 -60 -1 -45 20 -44 19 -30 45 10 18 12 18 59 -3 49 -22 49
-22 31 -41z m520 -2 c0 -22 -2 -25 -15 -14 -12 10 -13 16 -4 26 16 20 19 18
19 -12z m-424 -28 c34 -30 37 -35 25 -50 -28 -34 -72 -59 -83 -48 -8 8 -3 15
15 23 15 7 27 16 27 21 0 11 -7 10 -38 -6 -24 -13 -30 -12 -51 5 -31 25 -19
36 21 21 38 -14 49 -7 22 12 -17 13 -18 15 -2 21 9 4 14 13 11 21 -9 23 12 16
53 -20z m229 -2 l40 -35 -40 -34 c-22 -19 -43 -34 -48 -35 -4 0 -24 16 -45 35
l-37 35 39 35 c22 19 42 35 45 35 3 -1 24 -17 46 -36z m-375 -7 c0 -4 -5 -5
-10 -2 -6 3 -13 0 -16 -9 -3 -8 -12 -17 -20 -20 -10 -4 -14 3 -14 28 0 34 0
34 30 23 17 -6 30 -15 30 -20z m548 7 c29 -20 28 -57 -2 -73 -21 -12 -28 -10
-55 10 -17 12 -31 24 -31 26 0 5 54 52 60 53 3 0 16 -7 28 -16z m-518 -84 c0
-6 -60 -30 -73 -30 -4 0 -7 11 -7 25 0 17 4 23 14 19 8 -3 17 -1 20 5 7 10 46
-6 46 -19z m264 -39 c3 -4 -14 -24 -37 -43 l-43 -36 -28 24 c-15 13 -24 29
-21 34 3 6 -4 10 -17 10 -20 1 -18 5 22 39 l45 39 37 -30 c21 -16 40 -33 42
-37z m181 43 c25 -20 27 -26 15 -34 -8 -5 -30 -20 -49 -34 l-34 -25 -30 21
-30 22 43 38 c23 21 45 38 49 38 3 -1 20 -12 36 -26z m93 -29 c-2 -10 -7 -12
-17 -5 -13 7 -13 11 -1 25 15 18 24 8 18 -20z m-500 -8 c8 -9 1 -20 -28 -44
-38 -33 -43 -32 -64 4 -4 8 5 20 26 33 38 23 52 25 66 7z m481 -17 c20 -17 24
-31 29 -107 l5 -87 -39 32 c-21 17 -57 48 -79 67 l-40 35 45 39 c25 22 47 40
50 40 3 0 16 -9 29 -19z m-169 -59 c0 -3 -21 -21 -46 -40 l-45 -34 -25 24 -25
23 43 37 43 36 27 -20 c16 -12 28 -23 28 -26z m-207 -10 c16 -14 16 -16 -9
-42 -33 -34 -15 -48 25 -18 27 20 30 20 55 4 25 -16 25 -18 8 -41 -9 -13 -23
-24 -30 -24 -35 -1 -192 82 -192 101 0 5 21 20 48 33 49 25 49 25 95 -13z
m322 -78 c47 -36 85 -68 85 -70 0 -1 -42 -3 -92 -3 -92 0 -94 1 -133 35 l-40
35 40 35 c22 19 43 35 48 35 4 0 45 -30 92 -67z m-160 -47 l30 -24 -30 5 c-73
11 -77 13 -65 28 17 21 30 19 65 -9z"/>
</g>
</svg>
