<?xml version="1.0" standalone="no"?>
<!DOCTYPE svg PUBLIC "-//W3C//DTD SVG 20010904//EN"
 "http://www.w3.org/TR/2001/REC-SVG-20010904/DTD/svg10.dtd">
<svg version="1.0" xmlns="http://www.w3.org/2000/svg"
 width="197.000000pt" height="342.000000pt" viewBox="0 0 197.000000 342.000000"
 preserveAspectRatio="xMidYMid meet">
<metadata>
Created by potrace 1.16, written by Peter Selinger 2001-2019
</metadata>
<g transform="translate(0.000000,342.000000) scale(0.100000,-0.100000)"
fill="#000000" stroke="none">
<path d="M917 3105 c-69 -26 -156 -77 -162 -94 -5 -16 -13 -16 -98 -5 -50 7
-146 18 -212 25 -66 6 -124 12 -130 13 -5 0 -10 -8 -10 -19 0 -19 11 -21 145
-32 80 -6 177 -12 217 -12 l72 -1 -11 -32 c-6 -18 -14 -36 -17 -41 -4 -4 -54
-3 -112 2 -57 6 -148 12 -201 16 -91 5 -98 4 -98 -13 0 -17 11 -20 92 -26 50
-3 140 -6 200 -6 112 0 118 -3 103 -43 -5 -12 -38 -13 -200 -9 l-195 5 0 -23
0 -23 195 6 c185 6 195 5 195 -13 0 -17 -15 -19 -191 -25 -188 -8 -214 -13
-196 -43 5 -7 263 9 350 22 33 6 39 3 46 -16 11 -30 -2 -33 -194 -48 -82 -6
-162 -13 -178 -16 -25 -5 -37 -27 -19 -37 7 -4 243 23 355 41 51 8 59 7 68 -9
8 -15 4 -19 -23 -23 -381 -59 -408 -65 -408 -88 0 -24 -8 -25 240 29 91 20
176 38 190 40 20 3 33 -6 70 -51 53 -65 96 -86 192 -94 62 -4 73 -2 140 31
101 49 138 77 153 117 40 105 59 155 61 158 1 1 50 -23 110 -55 144 -77 204
-104 204 -94 0 9 -138 101 -232 155 -27 16 -48 32 -48 36 0 4 21 20 48 36 160
92 306 201 195 146 -21 -11 -56 -28 -78 -38 -22 -10 -75 -38 -118 -62 -43 -24
-80 -42 -81 -40 -2 1 -11 28 -21 58 -23 71 -70 117 -170 166 -89 44 -173 54
-238 29z m208 -52 c28 -9 70 -26 95 -38 43 -22 46 -27 69 -100 27 -89 25 -139
-11 -255 l-23 -75 -83 -42 c-46 -22 -100 -43 -119 -45 l-36 -4 6 215 c4 119 7
250 7 293 0 86 -7 82 95 51z m-135 -131 c0 -82 3 -211 7 -287 l6 -138 -39 7
c-21 4 -62 18 -90 30 -41 19 -57 34 -82 77 -22 39 -28 57 -20 66 8 10 6 13 -5
13 -37 0 -35 144 3 243 25 62 50 83 138 118 86 33 82 39 82 -129z"/>
<path d="M941 1984 c-30 -8 -80 -28 -110 -45 l-56 -31 -237 2 c-216 1 -238 0
-238 -15 0 -15 21 -17 228 -13 l228 3 -19 -45 -19 -45 -209 3 -209 4 0 -22 0
-22 206 7 206 8 -6 -22 c-3 -11 -8 -29 -11 -38 -4 -17 -21 -18 -201 -15 -185
3 -196 3 -192 -15 3 -17 16 -18 196 -14 l192 4 0 -33 0 -33 -195 6 c-194 7
-195 7 -195 -14 0 -21 1 -22 199 -17 l199 4 16 -34 16 -34 -212 3 c-198 2
-213 1 -216 -15 -4 -17 10 -18 222 -15 l227 4 17 -26 c37 -56 80 -96 121 -112
65 -27 148 -32 201 -12 61 22 190 103 190 120 0 8 5 25 11 38 11 24 13 24 191
30 169 5 199 9 186 22 -3 3 -82 9 -176 12 l-170 6 10 36 c6 20 8 69 5 109 l-5
72 116 0 c129 0 222 9 222 20 0 4 -80 11 -177 15 -130 6 -184 12 -200 22 -28
19 -28 18 -2 -69 15 -50 20 -84 16 -119 -8 -61 -45 -190 -60 -206 -19 -19
-176 -83 -204 -83 l-25 0 7 288 c4 158 8 288 10 290 6 7 105 -23 164 -49 74
-33 78 -34 61 -14 -23 27 -133 83 -195 99 -32 9 -62 16 -65 15 -3 0 -29 -7
-59 -15z m49 -181 c0 -82 3 -213 7 -292 l6 -143 -34 7 c-19 4 -59 17 -89 29
-53 21 -57 25 -99 106 -42 83 -43 87 -38 160 6 104 38 184 86 216 32 21 132
63 154 64 4 0 7 -66 7 -147z"/>
<path d="M300 1420 l0 -23 237 7 c130 3 239 9 242 11 12 13 -23 16 -242 22
l-237 6 0 -23z"/>
<path d="M920 946 c-20 -7 -59 -25 -87 -40 -52 -26 -53 -26 -293 -26 -225 0
-241 -1 -238 -17 3 -17 20 -18 227 -14 217 4 224 3 216 -15 -4 -11 -10 -27
-12 -36 -5 -16 -24 -18 -220 -18 -199 0 -214 -1 -211 -17 3 -17 19 -18 207
-14 l204 3 -6 -23 c-4 -13 -7 -27 -7 -31 0 -5 -90 -8 -200 -8 -171 0 -200 -2
-200 -15 0 -13 28 -15 195 -15 l195 0 0 -26 0 -26 -192 3 c-176 4 -193 3 -196
-13 -3 -16 13 -18 194 -20 194 -3 197 -3 205 -25 l8 -23 -204 0 c-176 0 -205
-2 -205 -15 0 -13 30 -15 211 -15 190 0 213 -2 225 -17 7 -10 14 -20 14 -23 0
-3 -100 -6 -222 -5 -204 0 -223 -1 -226 -17 -3 -17 13 -18 236 -18 l239 0 40
-44 c75 -83 201 -99 318 -42 100 49 136 77 149 116 13 42 39 48 186 50 113 0
201 10 195 20 -3 5 -81 11 -174 15 l-169 7 10 30 c6 16 8 62 6 103 l-5 73 151
7 c252 12 236 33 -28 36 l-138 1 -42 42 c-61 62 -182 119 -260 123 -34 1 -77
-3 -96 -11z m185 -47 c28 -7 75 -24 105 -40 55 -27 55 -27 79 -104 27 -89 25
-139 -11 -255 l-23 -75 -85 -41 c-47 -23 -100 -44 -117 -48 l-33 -5 0 49 c0
38 4 50 15 50 8 0 15 5 15 10 0 6 -7 10 -15 10 -10 0 -15 10 -15 30 0 22 5 30
18 30 15 1 15 2 1 10 -13 8 -15 31 -11 172 3 105 8 166 16 170 8 6 7 8 -1 8
-7 0 -13 11 -13 25 0 15 5 23 13 21 6 -2 35 -10 62 -17z m-115 -9 c0 -18 -6
-20 -55 -18 -59 2 -61 7 -12 25 49 18 67 16 67 -7z m-2 -124 c-2 -1 -49 0
-105 2 -89 3 -103 6 -103 21 0 43 25 56 117 61 l88 5 3 -44 c2 -24 2 -44 0
-45z m2 -57 l0 -42 -52 7 c-29 3 -78 6 -108 6 -69 0 -85 10 -76 44 l6 26 115
0 115 0 0 -41z m-52 -55 l52 -7 0 -58 0 -59 -119 0 c-114 0 -119 1 -124 22 -4
12 -4 24 -2 26 2 3 54 7 114 10 61 2 108 9 105 13 -3 5 -54 9 -115 9 l-109 0
0 25 c0 24 2 25 73 25 39 0 96 -3 125 -6z m60 -176 l3 -28 -105 0 c-94 0 -106
2 -116 19 -5 11 -10 22 -10 25 0 6 110 13 180 12 41 -1 45 -3 48 -28z m2 -94
l0 -46 -37 6 c-47 9 -146 57 -151 74 -3 9 20 12 92 12 l96 0 0 -46z"/>
</g>
</svg>
