<?xml version="1.0" standalone="no"?>
<!DOCTYPE svg PUBLIC "-//W3C//DTD SVG 20010904//EN"
 "http://www.w3.org/TR/2001/REC-SVG-20010904/DTD/svg10.dtd">
<svg version="1.0" xmlns="http://www.w3.org/2000/svg"
 width="213.000000pt" height="101.000000pt" viewBox="0 0 213.000000 101.000000"
 preserveAspectRatio="xMidYMid meet">
<metadata>
Created by potrace 1.16, written by Peter Selinger 2001-2019
</metadata>
<g transform="translate(0.000000,101.000000) scale(0.100000,-0.100000)"
fill="#000000" stroke="none">
<path d="M372 680 c-8 -17 -27 -67 -43 -112 l-28 -81 41 -79 c23 -44 47 -82
53 -84 15 -6 320 35 609 82 179 29 221 33 227 22 50 -88 101 -128 164 -128 83
0 236 60 373 147 69 43 67 42 60 48 -3 3 -30 -8 -59 -26 -121 -72 -279 -129
-356 -129 -53 0 -94 20 -123 59 -28 40 -62 140 -54 163 3 10 2 18 -1 18 -4 0
-101 16 -217 35 -179 30 -607 95 -627 95 -3 0 -12 -14 -19 -30z m152 -35 c60
-8 110 -16 111 -17 1 -2 5 -54 7 -116 5 -130 22 -114 -140 -133 -59 -6 -107
-8 -111 -3 -4 5 -19 37 -34 71 l-26 62 35 76 c19 41 38 75 42 75 4 0 56 -7
116 -15z m356 -44 c91 -11 200 -22 243 -26 72 -7 77 -9 77 -31 0 -12 5 -35 10
-50 6 -15 8 -29 6 -31 -3 -3 -110 -16 -238 -29 -128 -13 -251 -26 -272 -30
l-39 -6 6 47 c4 26 7 76 7 111 0 54 3 64 18 64 9 0 91 -9 182 -19z"/>
</g>
</svg>
