<?xml version="1.0" standalone="no"?>
<!DOCTYPE svg PUBLIC "-//W3C//DTD SVG 20010904//EN"
 "http://www.w3.org/TR/2001/REC-SVG-20010904/DTD/svg10.dtd">
<svg version="1.0" xmlns="http://www.w3.org/2000/svg"
 width="131.000000pt" height="148.000000pt" viewBox="0 0 131.000000 148.000000"
 preserveAspectRatio="xMidYMid meet">
<metadata>
Created by potrace 1.16, written by Peter Selinger 2001-2019
</metadata>
<g transform="translate(0.000000,148.000000) scale(0.100000,-0.100000)"
fill="#000000" stroke="none">
<path d="M313 1173 c-10 -4 -13 -94 -12 -406 0 -221 4 -411 8 -422 7 -18 15
-13 76 45 37 36 126 128 198 205 71 77 133 141 138 143 5 2 9 -27 9 -66 0 -38
3 -137 7 -220 l6 -152 128 0 128 0 3 103 c2 56 5 251 6 434 l3 331 -141 1
-140 2 0 -203 0 -203 -47 50 c-175 187 -346 365 -352 364 -3 0 -12 -3 -18 -6z
m657 -154 l0 -121 -31 6 c-17 3 -62 6 -100 6 l-69 0 0 109 0 110 48 4 c26 2
71 4 100 5 l52 2 0 -121z m-413 -118 l133 -126 -105 3 -105 3 0 -27 0 -27 105
6 105 6 -57 -52 c-32 -28 -112 -104 -178 -169 -67 -65 -124 -118 -127 -118 -4
0 -5 10 -3 22 3 13 8 170 12 350 l6 327 41 -36 c23 -20 101 -93 173 -162z
m413 -130 c0 -59 3 -129 6 -155 l7 -46 -50 0 c-28 0 -78 3 -112 7 l-63 6 5 79
c3 54 9 83 18 89 10 7 11 11 2 17 -6 4 -12 23 -13 42 -4 65 -19 59 163 68 l37
2 0 -109z m10 -342 c0 -106 -2 -120 -16 -115 -9 3 -58 6 -110 6 l-94 0 0 105
c0 58 1 105 3 106 1 0 43 3 92 6 50 3 92 7 94 9 2 2 10 4 18 4 10 0 13 -27 13
-121z"/>
</g>
</svg>
