<?xml version="1.0" standalone="no"?>
<!DOCTYPE svg PUBLIC "-//W3C//DTD SVG 20010904//EN"
 "http://www.w3.org/TR/2001/REC-SVG-20010904/DTD/svg10.dtd">
<svg version="1.0" xmlns="http://www.w3.org/2000/svg"
 width="273.000000pt" height="212.000000pt" viewBox="0 0 273.000000 212.000000"
 preserveAspectRatio="xMidYMid meet">
<metadata>
Created by potrace 1.16, written by Peter Selinger 2001-2019
</metadata>
<g transform="translate(0.000000,212.000000) scale(0.100000,-0.100000)"
fill="#000000" stroke="none">
<path d="M1380 1808 c0 -7 25 -33 55 -58 29 -25 52 -50 50 -56 -2 -6 7 -11 21
-11 13 0 24 4 24 10 0 6 23 35 52 64 28 29 49 56 45 60 -4 4 -32 -17 -61 -46
-60 -59 -57 -59 -124 3 -49 46 -62 53 -62 34z"/>
<path d="M1400 1700 c0 -5 20 -28 44 -51 31 -28 43 -46 39 -57 -6 -14 -4 -15
8 -5 12 10 18 10 28 0 11 -10 12 -9 8 3 -3 9 14 34 41 62 60 62 46 76 -16 15
l-48 -47 -44 45 c-44 45 -60 54 -60 35z"/>
<path d="M1400 1619 c0 -6 20 -29 45 -51 28 -25 42 -44 38 -54 -4 -12 -12 -9
-37 15 -18 17 -35 31 -39 31 -17 0 -3 -22 40 -63 29 -28 43 -48 38 -56 -5 -9
-16 -4 -40 19 -19 18 -35 27 -39 22 -3 -6 15 -31 41 -56 l48 -46 -68 0 -67 0
2 -131 3 -131 136 7 135 7 19 -28 c74 -114 136 -150 245 -142 76 5 193 72 214
122 l14 34 139 7 c76 3 144 8 151 10 9 3 12 36 12 118 l0 114 -92 7 c-50 3
-117 6 -150 6 -32 0 -58 4 -58 10 0 6 -7 10 -15 10 -8 0 -15 -4 -15 -9 0 -5 7
-25 15 -44 21 -50 19 -117 -6 -208 l-21 -77 -68 -31 c-95 -44 -125 -47 -212
-21 -68 20 -76 25 -101 66 -15 25 -27 50 -27 57 0 7 -6 19 -12 26 -20 19 -14
128 11 194 21 53 27 60 79 86 100 50 172 49 286 -5 27 -13 52 -22 55 -19 7 8
-27 32 -99 67 -89 46 -149 45 -248 -1 -60 -28 -77 -42 -93 -73 -19 -38 -21
-39 -69 -37 -74 4 -77 12 -26 54 25 20 46 44 46 51 0 20 -11 17 -41 -12 -16
-15 -32 -23 -39 -19 -8 5 4 24 36 56 51 52 54 82 4 34 -21 -20 -33 -26 -40
-19 -8 8 3 24 35 53 42 39 56 61 37 61 -4 0 -28 -20 -52 -45 l-44 -45 -46 45
c-47 46 -60 54 -60 34z m124 -118 c3 -5 -1 -14 -8 -20 -16 -13 -32 2 -21 19 8
12 22 13 29 1z m-5 -88 c-8 -9 -16 -10 -22 -4 -13 13 0 31 19 24 11 -4 12 -8
3 -20z m104 -95 c-4 -18 -8 -62 -7 -98 l1 -65 -114 3 -114 3 3 87 3 87 95 6
c52 3 105 6 118 7 22 2 23 0 15 -30z m780 -65 c4 -53 6 -97 4 -98 -1 -1 -59 1
-130 3 l-128 4 8 37 c9 45 9 67 0 108 l-6 32 97 4 c53 1 109 4 123 5 26 2 26
2 32 -95z"/>
<path d="M667 1613 c-4 -3 -7 -138 -7 -300 0 -237 3 -293 13 -293 12 0 205
197 263 268 l21 26 8 -168 7 -169 67 7 c36 3 78 6 94 6 l27 0 0 309 0 308 -90
7 c-49 4 -94 5 -100 1 -6 -4 -10 -61 -10 -143 l0 -137 -136 143 c-75 78 -139
142 -143 142 -4 0 -11 -3 -14 -7z m463 -103 l0 -80 -70 0 -70 0 0 74 c0 84 -3
81 98 85 l42 1 0 -80z m-275 -168 c-58 -3 -65 -5 -65 -24 0 -19 5 -20 71 -16
l71 4 -33 -29 c-19 -17 -76 -71 -128 -121 l-94 -91 6 115 c4 63 7 175 7 248
l0 133 115 -108 116 -108 -66 -3z m275 -26 c0 -52 3 -101 6 -110 5 -14 -5 -16
-70 -16 l-76 0 0 59 c0 38 5 61 13 65 10 5 10 7 0 12 -7 3 -13 21 -13 39 l0
34 63 4 c34 2 65 4 70 5 4 1 7 -40 7 -92z m10 -227 l0 -81 -77 7 c-43 4 -78 8
-78 9 0 0 1 31 3 68 l4 67 46 4 c26 2 59 4 75 5 l27 2 0 -81z"/>
<path d="M1313 955 c-9 -24 5 -367 16 -378 4 -4 11 42 14 104 4 62 8 113 9
115 2 1 95 5 208 9 113 4 207 9 209 11 12 11 -22 13 -212 14 l-206 1 -3 66
c-3 66 -20 95 -35 58z"/>
<path d="M430 836 l0 -66 -65 0 c-58 0 -65 -2 -65 -20 0 -18 7 -20 64 -20 71
0 76 -4 76 -71 0 -21 5 -39 10 -39 6 0 10 25 10 55 0 47 3 55 19 55 19 0 31
-34 31 -87 0 -14 4 -21 10 -18 6 3 10 28 10 56 0 46 2 49 25 49 23 0 25 -3 25
-49 0 -28 5 -53 10 -56 6 -4 10 15 10 49 0 56 8 67 43 58 13 -3 17 -15 17 -53
0 -69 18 -71 22 -2 3 50 6 58 24 61 24 3 34 -19 34 -80 0 -21 5 -38 10 -38 6
0 10 27 10 60 l0 60 35 0 35 0 0 -54 c0 -30 5 -58 10 -61 6 -4 10 17 10 54 l0
61 108 0 c59 0 144 3 188 6 l81 7 7 -38 c12 -63 26 -21 26 78 0 68 -3 87 -14
87 -8 0 -16 -5 -18 -11 -4 -11 -287 -58 -350 -59 -26 0 -28 3 -28 45 0 33 -4
45 -15 45 -11 0 -15 -12 -15 -49 0 -46 -1 -49 -30 -53 -29 -4 -29 -4 -32 46
-2 37 -7 51 -18 51 -11 0 -13 -12 -11 -52 2 -51 1 -53 -23 -53 -25 0 -26 3
-26 55 0 42 -3 55 -15 55 -12 0 -15 -13 -15 -60 0 -57 -1 -60 -25 -60 -24 0
-25 3 -25 60 0 47 -3 60 -15 60 -12 0 -15 -14 -15 -65 0 -58 -2 -65 -20 -65
-16 0 -19 8 -22 63 -2 47 -7 62 -18 62 -12 0 -14 -12 -12 -62 3 -58 2 -63 -17
-63 -18 0 -20 7 -23 62 -2 38 -8 63 -15 66 -10 3 -13 -14 -13 -62z m800 -36
l0 -40 -185 3 c-102 1 -185 5 -185 8 0 3 39 11 88 18 48 7 125 21 172 31 116
25 110 26 110 -20z"/>
<path d="M1939 836 l-44 -65 -153 -1 c-100 0 -151 -4 -147 -10 4 -6 63 -10
145 -10 l140 0 -11 -23 c-11 -23 -14 -24 -140 -23 -78 1 -130 -3 -131 -9 -2
-6 45 -11 123 -13 120 -2 127 -4 122 -22 -5 -18 -16 -20 -127 -22 -74 -2 -120
-7 -118 -13 1 -6 47 -9 115 -8 106 1 126 -4 127 -29 0 -4 -53 -9 -117 -10 -75
-2 -116 -7 -113 -13 3 -6 53 -10 121 -9 l116 1 11 -29 11 -30 -131 4 c-98 2
-132 0 -135 -9 -4 -10 28 -13 136 -13 133 0 141 -1 155 -22 9 -12 16 -26 16
-31 0 -4 -68 -7 -152 -6 -103 1 -154 -3 -156 -10 -3 -8 46 -11 162 -11 l165 0
25 -33 c15 -19 26 -39 26 -46 0 -7 4 -10 9 -7 5 4 11 0 14 -6 2 -7 8 -10 12
-6 5 5 1 16 -7 25 -13 15 -14 38 -7 158 4 77 8 141 8 143 1 1 96 2 211 2 117
0 210 4 210 9 0 5 -95 12 -211 16 l-210 8 2 116 c2 143 -8 151 -72 57z m38
-63 c-3 -2 -15 -3 -26 -1 -20 3 -20 3 2 38 l22 35 3 -33 c2 -19 1 -36 -1 -39z
m-7 -48 c0 -22 -4 -25 -40 -25 -44 0 -45 1 -28 30 8 12 24 20 40 20 23 0 28
-4 28 -25z m0 -50 c0 -10 -10 -15 -30 -15 -19 0 -30 -5 -30 -14 0 -9 -7 -12
-20 -9 -23 6 -26 23 -8 41 18 18 88 16 88 -3z m0 -81 c0 -24 -2 -25 -47 -22
-41 3 -48 6 -51 26 -3 20 0 22 47 22 48 0 51 -2 51 -26z m0 -64 c0 -28 -3 -30
-35 -30 -29 0 -37 5 -45 26 -6 14 -10 27 -10 30 0 2 20 4 45 4 43 0 45 -1 45
-30z m0 -80 c0 -39 -20 -39 -42 0 l-17 30 29 0 c27 0 30 -3 30 -30z m10 -60
c0 -5 -2 -10 -4 -10 -3 0 -8 5 -11 10 -3 6 -1 10 4 10 6 0 11 -4 11 -10z"/>
</g>
</svg>
