<?xml version="1.0" standalone="no"?>
<!DOCTYPE svg PUBLIC "-//W3C//DTD SVG 20010904//EN"
 "http://www.w3.org/TR/2001/REC-SVG-20010904/DTD/svg10.dtd">
<svg version="1.0" xmlns="http://www.w3.org/2000/svg"
 width="148.000000pt" height="143.000000pt" viewBox="0 0 148.000000 143.000000"
 preserveAspectRatio="xMidYMid meet">
<metadata>
Created by potrace 1.16, written by Peter Selinger 2001-2019
</metadata>
<g transform="translate(0.000000,143.000000) scale(0.100000,-0.100000)"
fill="#000000" stroke="none">
<path d="M344 1103 c-8 -30 3 -303 13 -329 6 -16 31 -16 350 -12 190 3 348 9
353 14 5 5 12 84 16 175 l7 166 -108 6 c-60 4 -224 7 -366 7 l-259 0 -6 -27z
m696 -24 c0 -21 -2 -21 -92 -16 -51 4 -148 7 -215 7 -69 0 -123 4 -123 9 0 14
26 16 238 19 l192 4 0 -23z m-640 1 c0 -5 -4 -10 -9 -10 -6 0 -13 5 -16 10 -3
6 1 10 9 10 9 0 16 -4 16 -10z m50 0 c0 -5 -7 -10 -15 -10 -8 0 -15 5 -15 10
0 6 7 10 15 10 8 0 15 -4 15 -10z m70 0 c0 -5 -9 -10 -20 -10 -11 0 -20 5 -20
10 0 6 9 10 20 10 11 0 20 -4 20 -10z m60 0 c0 -5 -7 -10 -15 -10 -8 0 -15 5
-15 10 0 6 7 10 15 10 8 0 15 -4 15 -10z m460 -62 l0 -31 -157 6 c-87 4 -184
7 -215 7 -51 0 -58 2 -58 20 0 19 8 20 203 23 111 1 208 3 215 5 7 1 12 -10
12 -30z m-640 -4 c0 -8 -7 -14 -15 -14 -15 0 -21 21 -9 33 10 9 24 -2 24 -19z
m50 6 c0 -11 -7 -20 -15 -20 -15 0 -21 21 -8 33 12 13 23 7 23 -13z m70 0 c0
-13 -7 -20 -20 -20 -13 0 -20 7 -20 20 0 13 7 20 20 20 13 0 20 -7 20 -20z
m60 0 c0 -11 -7 -20 -15 -20 -8 0 -15 9 -15 20 0 11 7 20 15 20 8 0 15 -9 15
-20z m-60 -76 c0 -8 -9 -14 -20 -14 -22 0 -28 26 -7 33 16 6 27 -1 27 -19z
m528 -3 l4 -24 -114 6 c-62 4 -161 7 -220 7 -87 0 -108 3 -108 14 0 21 25 24
240 22 l195 -1 3 -24z m-648 4 c0 -8 -7 -15 -15 -15 -8 0 -15 7 -15 15 0 8 7
15 15 15 8 0 15 -7 15 -15z m50 0 c0 -8 -7 -15 -15 -15 -8 0 -15 7 -15 15 0 8
7 15 15 15 8 0 15 -7 15 -15z m134 0 c4 -10 -1 -15 -14 -15 -11 0 -20 7 -20
15 0 8 6 15 14 15 8 0 16 -7 20 -15z m466 -65 l0 -30 -220 0 -220 0 0 25 0 25
213 3 c116 1 215 3 220 5 4 1 7 -11 7 -28z m-650 -5 c0 -28 -17 -34 -27 -9 -3
9 0 20 8 25 19 12 19 12 19 -16z m50 0 c0 -16 -6 -25 -15 -25 -28 0 -18 40 13
49 1 1 2 -10 2 -24z m73 6 c6 -24 0 -31 -25 -31 -13 0 -18 7 -18 25 0 31 35
35 43 6z m65 -9 c3 -17 -2 -22 -17 -22 -16 0 -21 6 -21 26 0 33 33 30 38 -4z
m462 -62 c0 -19 -7 -20 -220 -20 -187 0 -220 2 -220 15 0 15 -4 15 348 23 86
2 92 1 92 -18z m-650 0 c0 -5 -7 -10 -15 -10 -8 0 -15 5 -15 10 0 6 7 10 15
10 8 0 15 -4 15 -10z m60 0 c0 -5 -9 -10 -20 -10 -11 0 -20 5 -20 10 0 6 9 10
20 10 11 0 20 -4 20 -10z m70 0 c0 -5 -13 -10 -30 -10 -16 0 -30 5 -30 10 0 6
14 10 30 10 17 0 30 -4 30 -10z m60 -5 c0 -16 -9 -19 -34 -9 -25 9 -19 24 9
24 16 0 25 -6 25 -15z"/>
<path d="M390 575 l0 -65 -45 0 c-38 0 -45 -3 -45 -20 0 -17 7 -20 44 -20 l44
0 7 -86 c9 -103 25 -94 25 14 0 54 3 72 14 72 18 0 26 -31 26 -107 0 -35 4
-63 10 -63 6 0 10 35 10 85 0 76 2 85 19 85 14 0 20 -10 25 -46 3 -26 6 -64 6
-86 0 -24 4 -37 10 -33 6 3 10 42 10 86 0 72 2 79 20 79 11 0 19 -3 19 -7 -6
-35 3 -163 11 -163 6 0 10 35 10 85 0 69 3 85 15 85 11 0 15 -14 16 -57 1 -32
4 -71 8 -88 6 -27 8 -24 14 25 4 30 7 70 7 88 0 17 4 32 9 32 10 0 21 -59 21
-122 0 -27 5 -48 10 -48 6 0 10 35 10 84 l0 83 61 7 c34 3 128 6 208 6 201 0
211 16 16 25 l-157 7 153 39 c84 22 153 38 155 36 1 -1 7 -36 12 -77 l9 -75 2
103 c0 62 -3 102 -9 102 -5 0 -10 -6 -10 -14 0 -10 -23 -20 -67 -30 -109 -24
-265 -54 -321 -62 l-52 -7 0 57 c0 43 -3 56 -15 56 -12 0 -15 -13 -15 -60 0
-33 -4 -60 -10 -60 -6 0 -10 27 -10 60 0 47 -3 60 -15 60 -12 0 -15 -13 -15
-60 0 -47 -3 -60 -15 -60 -12 0 -15 13 -15 60 0 47 -3 60 -15 60 -12 0 -15
-13 -15 -59 0 -43 -4 -60 -15 -65 -12 -4 -15 6 -15 59 0 51 -3 65 -15 65 -12
0 -15 -14 -15 -65 0 -58 -2 -65 -20 -65 -18 0 -20 7 -20 65 0 51 -3 65 -15 65
-12 0 -15 -14 -15 -65 0 -51 -3 -65 -15 -65 -12 0 -15 14 -15 65 0 51 -3 65
-15 65 -12 0 -15 -14 -15 -65z"/>
</g>
</svg>
