<?xml version="1.0" standalone="no"?>
<!DOCTYPE svg PUBLIC "-//W3C//DTD SVG 20010904//EN"
 "http://www.w3.org/TR/2001/REC-SVG-20010904/DTD/svg10.dtd">
<svg version="1.0" xmlns="http://www.w3.org/2000/svg"
 width="205.000000pt" height="122.000000pt" viewBox="0 0 205.000000 122.000000"
 preserveAspectRatio="xMidYMid meet">
<metadata>
Created by potrace 1.16, written by Peter Selinger 2001-2019
</metadata>
<g transform="translate(0.000000,122.000000) scale(0.100000,-0.100000)"
fill="#000000" stroke="none">
<path d="M300 900 c0 -19 7 -20 90 -20 l90 0 0 -72 c0 -40 5 -80 10 -88 7 -10
10 -11 10 -2 0 9 20 12 73 11 39 -1 83 2 97 7 24 8 24 8 -10 14 l-35 5 4 60
c1 33 4 61 5 62 0 1 83 5 182 9 l182 7 6 -239 c4 -131 9 -251 12 -266 l6 -28
-69 0 c-37 0 -126 3 -196 7 l-128 6 3 46 c3 42 5 46 33 52 l30 5 -35 9 c-19 4
-68 9 -108 9 l-72 1 0 -62 0 -63 -90 0 c-83 0 -90 -1 -90 -20 0 -19 7 -20 89
-20 62 0 91 -4 95 -12 5 -10 7 -10 12 0 7 15 100 16 110 1 4 -7 9 -8 13 -1 4
6 88 13 204 18 l197 7 1 -24 1 -24 7 25 c5 14 9 77 10 140 1 74 6 117 14 122
6 4 119 7 252 7 268 1 447 10 440 22 -3 4 -103 8 -223 9 -119 1 -235 3 -257 5
-22 1 -82 3 -132 4 l-93 1 0 138 0 139 -172 6 c-95 4 -262 7 -370 7 -191 0
-198 -1 -198 -20z m300 -80 l0 -60 -51 0 c-43 0 -50 3 -45 16 3 9 6 36 6 60
l0 44 45 0 45 0 0 -60z m0 -405 l0 -45 -45 0 -45 0 0 45 0 45 45 0 45 0 0 -45z"/>
</g>
</svg>
