<?xml version="1.0" standalone="no"?>
<!DOCTYPE svg PUBLIC "-//W3C//DTD SVG 20010904//EN"
 "http://www.w3.org/TR/2001/REC-SVG-20010904/DTD/svg10.dtd">
<svg version="1.0" xmlns="http://www.w3.org/2000/svg"
 width="163.000000pt" height="139.000000pt" viewBox="0 0 163.000000 139.000000"
 preserveAspectRatio="xMidYMid meet">
<metadata>
Created by potrace 1.16, written by Peter Selinger 2001-2019
</metadata>
<g transform="translate(0.000000,139.000000) scale(0.100000,-0.100000)"
fill="#000000" stroke="none">
<path d="M562 1056 c-187 -101 -269 -210 -260 -345 7 -98 45 -170 137 -261
103 -102 240 -180 241 -137 0 6 78 54 173 105 239 128 472 266 471 277 -1 16
-624 371 -682 389 -9 3 -45 -10 -80 -28z m63 -99 c11 -146 10 -147 -66 -58
l-66 77 56 37 c31 20 59 37 63 37 3 0 9 -42 13 -93z m399 -121 l286 -143 -133
-63 c-72 -34 -212 -105 -310 -157 -99 -52 -180 -93 -182 -91 -1 2 -5 146 -9
321 l-6 319 34 -22 c19 -11 163 -85 320 -164z m-394 -41 c0 -1 7 -104 15 -229
8 -125 13 -232 9 -237 -15 -24 -216 157 -258 232 -13 24 12 4 83 -66 55 -55
101 -95 101 -89 0 12 -129 163 -168 197 -11 11 -25 16 -30 13 -13 -8 -31 37
-38 98 -8 66 16 124 76 190 l42 45 84 -76 c46 -43 84 -78 84 -78z"/>
<path d="M432 867 c-11 -12 1 -27 75 -96 48 -44 89 -78 91 -76 5 5 -40 62
-109 139 -38 42 -46 46 -57 33z"/>
<path d="M365 779 c-5 -7 37 -56 106 -125 163 -164 159 -135 -7 46 -86 94 -89
96 -99 79z"/>
</g>
</svg>
