<?xml version="1.0" standalone="no"?>
<!DOCTYPE svg PUBLIC "-//W3C//DTD SVG 20010904//EN"
 "http://www.w3.org/TR/2001/REC-SVG-20010904/DTD/svg10.dtd">
<svg version="1.0" xmlns="http://www.w3.org/2000/svg"
 width="210.000000pt" height="115.000000pt" viewBox="0 0 210.000000 115.000000"
 preserveAspectRatio="xMidYMid meet">
<metadata>
Created by potrace 1.16, written by Peter Selinger 2001-2019
</metadata>
<g transform="translate(0.000000,115.000000) scale(0.100000,-0.100000)"
fill="#000000" stroke="none">
<path d="M1032 838 c-7 -7 -12 -9 -12 -5 0 8 -146 -80 -276 -167 l-99 -66
-172 0 c-170 0 -173 0 -173 -22 0 -21 1 -21 179 -15 137 4 179 3 176 -6 -4
-11 103 -86 283 -196 45 -28 82 -48 82 -45 0 4 6 1 14 -5 11 -9 36 5 122 70
60 45 134 103 165 129 l57 47 196 7 c107 3 203 9 213 13 37 14 -32 21 -225 22
l-194 1 -51 44 c-49 41 -265 206 -270 206 -2 0 -8 -5 -15 -12z m58 -205 c0
-72 4 -134 9 -137 10 -6 21 64 22 143 1 99 0 99 126 17 62 -39 115 -75 118
-78 3 -3 -31 -29 -77 -58 -46 -29 -126 -83 -178 -120 l-96 -67 -91 71 c-49 39
-121 93 -159 121 -61 44 -66 50 -45 53 15 2 20 7 13 11 -8 5 15 26 60 58 40
28 106 78 147 110 l75 60 38 -26 37 -26 1 -132z"/>
<path d="M951 673 c1 -105 11 -192 21 -177 4 5 10 67 14 137 7 125 7 127 -15
127 -20 0 -21 -4 -20 -87z"/>
</g>
</svg>
