<?xml version="1.0" standalone="no"?>
<!DOCTYPE svg PUBLIC "-//W3C//DTD SVG 20010904//EN"
 "http://www.w3.org/TR/2001/REC-SVG-20010904/DTD/svg10.dtd">
<svg version="1.0" xmlns="http://www.w3.org/2000/svg"
 width="194.000000pt" height="134.000000pt" viewBox="0 0 194.000000 134.000000"
 preserveAspectRatio="xMidYMid meet">
<metadata>
Created by potrace 1.16, written by Peter Selinger 2001-2019
</metadata>
<g transform="translate(0.000000,134.000000) scale(0.100000,-0.100000)"
fill="#000000" stroke="none">
<path d="M690 985 l-12 -56 -189 3 -189 3 0 -29 0 -29 184 6 c101 3 186 4 188
2 1 -2 2 -25 0 -52 l-4 -48 -184 3 -184 3 0 -26 0 -25 184 0 183 0 7 -42 c4
-24 9 -53 13 -65 l5 -23 -196 0 -196 0 0 -25 0 -25 203 0 204 0 19 -41 c10
-23 18 -60 19 -83 l0 -41 85 -28 c234 -76 371 -83 543 -27 119 38 267 99 267
110 0 4 -42 -5 -92 -22 -285 -90 -383 -97 -593 -43 -74 19 -143 39 -153 44
-16 8 -52 99 -52 129 0 8 28 12 89 12 48 0 110 3 137 7 l49 7 -40 7 c-22 5
-83 8 -135 9 -52 0 -100 4 -107 8 -6 4 -15 35 -18 68 l-7 61 53 6 c30 4 90 7
134 8 110 1 139 14 50 22 -39 4 -107 7 -152 7 l-83 0 0 49 c0 28 3 52 8 55 4
2 71 8 150 12 78 4 142 11 142 15 0 5 -21 9 -47 9 -27 0 -92 3 -146 7 -83 5
-97 8 -93 22 3 9 8 33 12 54 6 35 5 37 -19 37 -23 0 -27 -6 -37 -55z"/>
</g>
</svg>
