<?xml version="1.0" standalone="no"?>
<!DOCTYPE svg PUBLIC "-//W3C//DTD SVG 20010904//EN"
 "http://www.w3.org/TR/2001/REC-SVG-20010904/DTD/svg10.dtd">
<svg version="1.0" xmlns="http://www.w3.org/2000/svg"
 width="264.000000pt" height="148.000000pt" viewBox="0 0 264.000000 148.000000"
 preserveAspectRatio="xMidYMid meet">
<metadata>
Created by potrace 1.16, written by Peter Selinger 2001-2019
</metadata>
<g transform="translate(0.000000,148.000000) scale(0.100000,-0.100000)"
fill="#000000" stroke="none">
<path d="M351 1166 c-10 -12 -4 -18 31 -34 62 -28 152 -99 233 -184 l70 -73
-30 -3 c-56 -7 -133 18 -184 58 -47 37 -151 180 -151 207 0 7 -4 13 -10 13
-20 0 -10 -53 21 -109 40 -76 112 -148 175 -178 46 -21 74 -24 270 -34 121 -5
223 -11 227 -12 5 -1 -28 -33 -72 -70 -104 -87 -104 -96 -12 -173 38 -33 68
-60 66 -62 -2 -2 -64 -1 -138 3 l-134 7 -42 58 c-79 109 -206 220 -286 250
-17 6 -27 5 -36 -6 -6 -8 -10 -15 -8 -17 2 -1 31 -15 64 -32 42 -20 95 -63
175 -142 l115 -112 -60 6 c-33 3 -82 15 -108 26 -58 24 -140 111 -188 200 -31
57 -34 60 -37 34 -7 -58 87 -198 166 -248 63 -40 119 -49 349 -57 l202 -7 -85
-69 c-46 -38 -84 -75 -84 -82 0 -33 28 -19 111 57 80 73 93 81 110 71 28 -18
34 -14 14 8 -18 20 -17 20 48 20 37 0 67 -1 67 -3 0 -1 -41 -36 -90 -77 -80
-65 -89 -76 -76 -88 13 -13 23 -8 83 45 37 34 79 73 92 87 23 25 25 25 44 8
19 -16 19 -16 13 3 -5 18 -1 20 44 20 27 0 46 -3 42 -6 -4 -4 -43 -37 -87 -74
-44 -37 -80 -73 -80 -79 0 -30 39 -8 122 69 50 47 94 81 98 75 9 -14 28 -12
22 3 -3 9 42 11 212 9 223 -3 370 4 355 18 -5 4 -62 11 -126 14 -88 5 -118 4
-118 -5 0 -15 -310 -6 -319 10 -4 6 -12 6 -21 1 -10 -6 -37 13 -98 68 l-84 77
83 77 c71 65 86 75 103 66 16 -9 18 -7 13 6 -6 14 14 16 196 17 142 2 184 4
142 9 -33 4 -124 8 -202 9 -131 1 -142 2 -136 19 5 16 5 16 -12 0 -18 -16 -23
-13 -113 73 -86 82 -96 89 -110 75 -9 -8 -14 -17 -11 -19 10 -8 155 -130 164
-138 5 -5 -8 -9 -33 -9 -31 0 -42 4 -42 15 0 12 -3 13 -19 3 -17 -10 -30 -2
-107 70 -48 45 -90 82 -94 82 -4 0 -12 -6 -18 -12 -7 -10 12 -31 70 -80 l79
-68 -46 0 c-28 0 -44 4 -40 10 8 13 -1 13 -24 -2 -17 -10 -30 -1 -109 71 -83
76 -112 91 -112 57 0 -6 32 -38 70 -70 39 -33 69 -60 68 -60 -2 -1 -62 0 -135
2 l-132 4 -76 94 c-81 100 -149 160 -227 200 -56 28 -52 28 -67 10z m761 -420
c-49 -41 -89 -82 -89 -90 0 -9 36 -46 79 -83 44 -37 74 -69 68 -71 -19 -7 -81
9 -75 19 4 5 2 9 -4 9 -5 0 -13 -4 -16 -10 -14 -23 -44 -6 -113 63 l-72 72 80
80 c78 78 80 79 100 60 23 -21 39 -13 20 10 -11 13 -5 15 49 15 l62 0 -89 -74z
m233 58 c-69 -51 -165 -138 -165 -149 0 -7 11 -22 24 -32 13 -10 51 -42 85
-70 l62 -53 -40 0 c-22 0 -41 5 -44 13 -3 9 -7 9 -18 0 -11 -9 -30 4 -97 65
l-83 77 81 79 c61 61 83 77 92 68 7 -7 18 -12 26 -12 12 0 12 3 2 15 -11 13
-5 15 41 15 50 -1 53 -2 34 -16z"/>
<path d="M1750 891 c0 -20 5 -21 78 -20 94 1 181 12 167 21 -6 3 -63 10 -128
13 -115 8 -117 7 -117 -14z"/>
<path d="M2098 904 c-5 -4 -8 -14 -8 -22 0 -13 18 -14 121 -9 111 6 139 10
128 21 -8 8 -234 18 -241 10z"/>
<path d="M1750 781 c0 -20 5 -21 78 -20 95 1 181 12 166 21 -6 4 -63 10 -127
14 -115 7 -117 7 -117 -15z"/>
<path d="M2098 794 c-5 -4 -8 -14 -8 -22 0 -13 18 -14 121 -9 113 6 139 10
128 21 -9 9 -234 18 -241 10z"/>
<path d="M2094 711 c-2 -2 -4 -10 -4 -18 0 -10 23 -13 103 -12 56 1 113 4 127
9 l25 7 -25 6 c-29 8 -220 14 -226 8z"/>
<path d="M1750 695 c0 -12 17 -15 94 -15 108 0 165 8 144 21 -7 5 -64 9 -125
9 -94 0 -113 -3 -113 -15z"/>
<path d="M1750 598 c0 -16 9 -18 88 -17 94 0 177 12 152 22 -8 3 -66 7 -127
10 -104 3 -113 2 -113 -15z"/>
<path d="M2094 611 c-2 -2 -4 -10 -4 -18 0 -10 21 -13 88 -12 95 0 177 12 152
22 -18 7 -229 14 -236 8z"/>
<path d="M2096 503 c-3 -4 -6 -13 -6 -21 0 -12 19 -14 120 -10 108 5 142 10
129 22 -7 7 -236 15 -243 9z"/>
</g>
</svg>
