<?xml version="1.0" standalone="no"?>
<!DOCTYPE svg PUBLIC "-//W3C//DTD SVG 20010904//EN"
 "http://www.w3.org/TR/2001/REC-SVG-20010904/DTD/svg10.dtd">
<svg version="1.0" xmlns="http://www.w3.org/2000/svg"
 width="96.000000pt" height="161.000000pt" viewBox="0 0 96.000000 161.000000"
 preserveAspectRatio="xMidYMid meet">
<metadata>
Created by potrace 1.16, written by Peter Selinger 2001-2019
</metadata>
<g transform="translate(0.000000,161.000000) scale(0.100000,-0.100000)"
fill="#000000" stroke="none">
<path d="M392 1293 c-75 -37 -116 -149 -79 -219 23 -43 71 -85 109 -94 l33 -7
-30 -12 c-46 -19 -92 -69 -105 -115 -23 -83 24 -173 105 -200 l39 -14 -35 -15
c-67 -28 -118 -119 -103 -184 17 -71 80 -133 135 -133 l26 0 1 101 c1 56 4
104 7 107 3 3 5 -43 5 -101 l0 -107 30 0 c33 0 92 46 116 91 18 35 18 100 0
143 -16 38 -67 81 -108 91 -27 7 -27 8 22 32 137 68 112 268 -40 311 -19 6
-27 11 -17 11 54 3 113 62 128 129 30 132 -117 246 -239 185z m55 -100 c-3
-10 -5 -2 -5 17 0 19 2 27 5 18 2 -10 2 -26 0 -35z m32 -110 c0 -65 -3 -89 -9
-72 -7 24 -2 169 6 169 2 0 4 -44 3 -97z m-22 15 c-3 -8 -6 -5 -6 6 -1 11 2
17 5 13 3 -3 4 -12 1 -19z m0 -245 c-3 -10 -5 -4 -5 12 0 17 2 24 5 18 2 -7 2
-21 0 -30z m32 -100 c0 -66 -4 -98 -8 -83 -8 24 -3 190 5 190 2 0 4 -48 3
-107z m-22 -235 c-2 -13 -4 -5 -4 17 -1 22 1 32 4 23 2 -10 2 -28 0 -40z"/>
</g>
</svg>
