<?xml version="1.0" standalone="no"?>
<!DOCTYPE svg PUBLIC "-//W3C//DTD SVG 20010904//EN"
 "http://www.w3.org/TR/2001/REC-SVG-20010904/DTD/svg10.dtd">
<svg version="1.0" xmlns="http://www.w3.org/2000/svg"
 width="88.000000pt" height="127.000000pt" viewBox="0 0 88.000000 127.000000"
 preserveAspectRatio="xMidYMid meet">
<metadata>
Created by potrace 1.16, written by Peter Selinger 2001-2019
</metadata>
<g transform="translate(0.000000,127.000000) scale(0.100000,-0.100000)"
fill="#000000" stroke="none">
<path d="M363 950 c-64 -39 -83 -128 -40 -191 13 -19 29 -33 35 -32 8 2 12
-19 12 -65 0 -37 5 -74 10 -82 7 -10 10 6 10 56 l0 71 30 -5 29 -4 4 73 c2 50
4 28 7 -66 1 -77 5 -126 7 -110 12 108 14 112 38 123 60 27 83 127 45 189 -37
62 -124 82 -187 43z m4 -172 c-2 -13 -4 -3 -4 22 0 25 2 35 4 23 2 -13 2 -33
0 -45z"/>
<path d="M408 553 c-16 -4 -18 -18 -20 -101 l-1 -97 -6 82 c-4 45 -9 84 -12
87 -11 12 -50 -42 -56 -77 -7 -47 1 -79 33 -116 24 -29 30 -31 98 -31 67 0 74
2 100 29 37 38 47 110 22 156 -15 27 -61 65 -80 65 -3 0 -7 -46 -7 -102 l-2
-103 -8 95 c-5 52 -7 101 -4 108 4 12 -21 15 -57 5z"/>
</g>
</svg>
