<?xml version="1.0" standalone="no"?>
<!DOCTYPE svg PUBLIC "-//W3C//DTD SVG 20010904//EN"
 "http://www.w3.org/TR/2001/REC-SVG-20010904/DTD/svg10.dtd">
<svg version="1.0" xmlns="http://www.w3.org/2000/svg"
 width="168.000000pt" height="176.000000pt" viewBox="0 0 168.000000 176.000000"
 preserveAspectRatio="xMidYMid meet">
<metadata>
Created by potrace 1.16, written by Peter Selinger 2001-2019
</metadata>
<g transform="translate(0.000000,176.000000) scale(0.100000,-0.100000)"
fill="#000000" stroke="none">
<path d="M1002 1397 l-63 -62 80 -176 c43 -97 91 -199 105 -227 l26 -51 -64
-168 c-34 -92 -71 -193 -81 -223 -10 -30 -27 -74 -38 -98 -11 -23 -17 -45 -14
-48 5 -6 92 -28 142 -37 30 -5 31 -3 107 136 104 191 133 257 159 355 21 76
21 83 6 95 -9 6 -50 82 -90 167 -161 341 -191 400 -201 399 -6 0 -39 -28 -74
-62z m328 -587 c-24 -89 -44 -138 -135 -328 -62 -128 -82 -161 -94 -157 -9 4
-40 14 -69 23 -29 9 -51 20 -50 24 42 118 186 458 194 458 12 0 -14 69 -133
349 l-65 153 43 44 42 43 142 -272 142 -272 -17 -65z"/>
<path d="M447 1088 c-35 -51 -83 -121 -106 -156 l-42 -63 101 -197 c113 -219
128 -242 126 -190 0 18 3 111 7 206 l9 172 166 1 c92 0 187 4 212 8 l45 7 -64
7 c-35 4 -131 7 -212 7 l-149 0 7 145 c6 142 6 145 -15 145 -15 0 -39 -26 -85
-92z m58 -273 c0 -162 -1 -295 -2 -295 -1 0 -20 37 -41 83 -22 45 -60 126 -86
179 l-47 97 86 115 c47 64 87 116 88 116 1 0 2 -133 2 -295z"/>
</g>
</svg>
