<?xml version="1.0" standalone="no"?>
<!DOCTYPE svg PUBLIC "-//W3C//DTD SVG 20010904//EN"
 "http://www.w3.org/TR/2001/REC-SVG-20010904/DTD/svg10.dtd">
<svg version="1.0" xmlns="http://www.w3.org/2000/svg"
 width="164.000000pt" height="94.000000pt" viewBox="0 0 164.000000 94.000000"
 preserveAspectRatio="xMidYMid meet">
<metadata>
Created by potrace 1.16, written by Peter Selinger 2001-2019
</metadata>
<g transform="translate(0.000000,94.000000) scale(0.100000,-0.100000)"
fill="#000000" stroke="none">
<path d="M642 628 c-7 -7 -12 -17 -11 -22 1 -14 179 -175 243 -221 l50 -35
-312 0 -312 0 0 -27 0 -26 468 7 c257 4 492 11 522 14 l55 7 -49 8 c-27 4
-112 7 -189 7 l-139 0 -147 143 c-80 78 -147 145 -149 150 -5 10 -16 9 -30 -5z"/>
</g>
</svg>
