<?xml version="1.0" standalone="no"?>
<!DOCTYPE svg PUBLIC "-//W3C//DTD SVG 20010904//EN"
 "http://www.w3.org/TR/2001/REC-SVG-20010904/DTD/svg10.dtd">
<svg version="1.0" xmlns="http://www.w3.org/2000/svg"
 width="164.000000pt" height="193.000000pt" viewBox="0 0 164.000000 193.000000"
 preserveAspectRatio="xMidYMid meet">
<metadata>
Created by potrace 1.16, written by Peter Selinger 2001-2019
</metadata>
<g transform="translate(0.000000,193.000000) scale(0.100000,-0.100000)"
fill="#000000" stroke="none">
<path d="M300 1606 l0 -27 310 3 c171 2 310 2 310 2 0 -1 -39 -34 -87 -73
-157 -127 -209 -179 -198 -197 6 -8 15 -15 20 -14 6 1 78 66 162 146 l151 144
119 0 c65 0 150 3 188 7 68 7 69 7 30 15 -22 4 -257 11 -522 14 l-483 7 0 -27z"/>
<path d="M880 480 l-165 -60 -207 0 -208 0 0 -25 0 -25 138 0 c128 -1 135 -2
104 -15 -29 -13 -32 -17 -22 -35 6 -11 12 -20 14 -20 3 0 40 15 83 34 l79 33
317 8 c174 4 319 11 322 15 5 8 -153 20 -281 20 -50 0 -120 3 -155 7 l-63 6
119 58 c66 31 113 57 105 58 -8 0 -89 -27 -180 -59z"/>
</g>
</svg>
