<?xml version="1.0" standalone="no"?>
<!DOCTYPE svg PUBLIC "-//W3C//DTD SVG 20010904//EN"
 "http://www.w3.org/TR/2001/REC-SVG-20010904/DTD/svg10.dtd">
<svg version="1.0" xmlns="http://www.w3.org/2000/svg"
 width="165.000000pt" height="314.000000pt" viewBox="0 0 165.000000 314.000000"
 preserveAspectRatio="xMidYMid meet">
<metadata>
Created by potrace 1.16, written by Peter Selinger 2001-2019
</metadata>
<g transform="translate(0.000000,314.000000) scale(0.100000,-0.100000)"
fill="#000000" stroke="none">
<path d="M712 2827 c-10 -11 5 -29 71 -88 46 -41 98 -85 116 -99 l33 -25 -311
4 -311 3 0 -31 0 -31 83 0 c209 0 943 23 950 29 9 9 -162 21 -290 21 l-84 0
-115 113 c-63 61 -118 113 -123 115 -4 1 -13 -4 -19 -11z"/>
<path d="M711 2546 c-9 -11 4 -28 71 -87 46 -41 99 -86 118 -100 l35 -26 -313
5 -312 5 0 -32 0 -31 148 0 c262 0 877 21 886 31 6 5 -5 9 -30 9 -21 0 -109 3
-194 6 l-155 6 -115 114 c-63 63 -118 114 -121 114 -4 0 -12 -6 -18 -14z"/>
<path d="M665 1808 c3 -40 8 -88 11 -105 l5 -33 -186 0 -185 0 0 -25 0 -25
189 0 189 0 7 -40 c9 -51 25 -52 25 -1 l0 38 273 9 c149 4 275 9 280 10 4 1
24 3 45 4 l37 2 -40 8 c-36 7 -388 20 -542 20 l-63 0 0 59 c0 103 -10 151 -32
151 -18 0 -19 -6 -13 -72z"/>
<path d="M941 1573 c0 -21 3 -68 8 -105 l7 -68 -329 0 -328 0 3 -26 3 -27 328
2 c262 2 328 0 331 -11 2 -7 8 -26 12 -43 8 -30 8 -30 12 10 2 22 9 43 15 47
7 4 68 8 137 8 69 1 143 4 165 9 l40 7 -55 7 c-30 4 -110 7 -176 7 l-122 0 -7
110 c-6 99 -9 110 -26 110 -15 0 -19 -7 -18 -37z"/>
<path d="M666 823 c-6 -6 -2 -72 9 -165 l5 -38 -185 0 -185 0 0 -29 0 -30 187
2 188 2 12 -80 c6 -44 14 -92 17 -107 l6 -28 -210 0 -210 0 0 -27 0 -26 498 6
c661 8 711 24 132 43 -102 3 -188 9 -191 12 -4 4 -10 52 -14 108 l-6 101 283
7 c462 12 438 28 -59 42 l-233 6 0 58 c0 118 -16 171 -44 143z"/>
</g>
</svg>
