<?xml version="1.0" standalone="no"?>
<!DOCTYPE svg PUBLIC "-//W3C//DTD SVG 20010904//EN"
 "http://www.w3.org/TR/2001/REC-SVG-20010904/DTD/svg10.dtd">
<svg version="1.0" xmlns="http://www.w3.org/2000/svg"
 width="164.000000pt" height="113.000000pt" viewBox="0 0 164.000000 113.000000"
 preserveAspectRatio="xMidYMid meet">
<metadata>
Created by potrace 1.16, written by Peter Selinger 2001-2019
</metadata>
<g transform="translate(0.000000,113.000000) scale(0.100000,-0.100000)"
fill="#000000" stroke="none">
<path d="M300 807 l0 -27 226 0 226 0 -99 -94 c-54 -52 -95 -97 -91 -101 9 -9
101 59 184 136 l61 56 179 7 c514 18 444 33 -198 42 l-488 7 0 -26z"/>
<path d="M300 521 l0 -32 228 6 227 7 -99 -96 c-54 -53 -96 -99 -93 -102 9 -9
84 46 170 124 l77 70 237 6 c131 4 252 10 268 14 57 12 -87 19 -557 27 l-458
8 0 -32z"/>
</g>
</svg>
