<?xml version="1.0" standalone="no"?>
<!DOCTYPE svg PUBLIC "-//W3C//DTD SVG 20010904//EN"
 "http://www.w3.org/TR/2001/REC-SVG-20010904/DTD/svg10.dtd">
<svg version="1.0" xmlns="http://www.w3.org/2000/svg"
 width="152.000000pt" height="156.000000pt" viewBox="0 0 152.000000 156.000000"
 preserveAspectRatio="xMidYMid meet">
<metadata>
Created by potrace 1.16, written by Peter Selinger 2001-2019
</metadata>
<g transform="translate(0.000000,156.000000) scale(0.100000,-0.100000)"
fill="#000000" stroke="none">
<path d="M860 1197 c-197 -91 -378 -184 -440 -225 -73 -49 -111 -118 -118
-214 -3 -49 -1 -68 7 -68 7 0 10 -4 7 -9 -10 -15 28 -40 79 -51 29 -7 104 -10
177 -8 l128 3 103 -160 103 -160 45 1 c60 2 232 81 207 95 -10 6 -18 14 -18
20 0 7 -144 254 -156 268 -2 2 -10 1 -19 -3 -13 -4 -6 -21 36 -88 28 -46 71
-110 94 -144 l42 -60 -56 -21 c-31 -11 -79 -30 -108 -41 -85 -35 -71 -6 19 39
92 46 94 47 86 54 -3 3 -42 -10 -87 -30 -91 -39 -101 -41 -101 -22 1 6 37 29
80 51 44 21 80 42 80 47 0 9 -76 -18 -130 -46 -38 -19 -56 -19 -64 1 -8 20
-16 14 74 59 84 42 85 43 78 50 -3 3 -42 -10 -88 -29 -46 -20 -87 -33 -93 -29
-6 3 29 26 76 50 48 24 87 47 87 53 0 8 -156 -52 -169 -65 -6 -6 -31 15 -31
26 0 5 37 28 83 50 102 52 86 63 -22 16 l-80 -35 -16 24 c-15 23 -15 24 65 64
91 46 109 73 23 34 -82 -37 -113 -47 -120 -40 -9 8 -9 8 87 56 104 53 91 64
-18 16 -45 -19 -89 -32 -100 -29 -21 5 -39 -12 -22 -22 28 -17 1 -25 -89 -25
-115 0 -197 13 -223 37 -12 10 -18 30 -18 56 l0 39 56 -51 c31 -29 59 -49 62
-46 3 3 -20 31 -51 63 -56 56 -66 82 -47 112 8 12 23 2 79 -54 39 -39 73 -67
77 -63 4 3 -25 40 -65 80 -70 72 -71 74 -52 91 19 17 22 15 103 -53 46 -39 87
-71 93 -71 5 0 -25 35 -68 78 -42 42 -77 81 -77 84 0 4 12 14 28 22 27 15 28
14 100 -57 88 -87 95 -75 10 17 -48 53 -58 70 -47 77 10 6 32 -10 81 -58 37
-37 70 -64 73 -61 3 3 -21 37 -54 76 -48 55 -58 71 -45 76 10 4 36 -13 77 -49
81 -74 96 -70 22 5 -49 50 -57 62 -45 70 24 16 32 12 82 -37 26 -26 51 -44 55
-40 4 4 -15 29 -41 56 -40 41 -45 49 -30 55 12 5 29 -4 56 -31 47 -46 64 -35
17 13 -28 29 -31 36 -19 44 24 15 32 12 72 -27 50 -48 63 -34 14 16 -32 33
-35 39 -20 45 12 5 29 -4 54 -29 50 -49 73 -45 25 5 -21 22 -37 41 -34 44 12
11 110 56 122 56 7 0 26 -13 41 -29 l27 -28 -167 -162 c-125 -120 -165 -164
-157 -172 9 -9 24 0 59 34 45 42 52 45 119 52 l72 6 56 -58 c64 -66 79 -56 17
11 -29 32 -37 45 -27 49 14 5 97 -70 97 -88 0 -5 -33 -42 -72 -82 -40 -40 -67
-73 -60 -73 17 0 149 127 183 176 34 49 36 74 11 98 -17 15 -31 15 -133 6
-191 -17 -182 -21 -113 53 97 103 134 146 134 155 0 14 -65 72 -80 71 -8 0
-76 -28 -150 -62z m330 -242 c16 -15 16 -18 -8 -45 l-26 -30 -34 33 -33 32 38
12 c21 6 40 12 42 12 3 1 12 -6 21 -14z"/>
<path d="M960 902 c0 -13 89 -96 96 -90 3 4 -13 27 -36 52 -40 43 -60 56 -60
38z"/>
<path d="M877 883 c-8 -12 90 -109 100 -100 4 4 -16 31 -44 58 -28 28 -53 47
-56 42z"/>
</g>
</svg>
