<?xml version="1.0" standalone="no"?>
<!DOCTYPE svg PUBLIC "-//W3C//DTD SVG 20010904//EN"
 "http://www.w3.org/TR/2001/REC-SVG-20010904/DTD/svg10.dtd">
<svg version="1.0" xmlns="http://www.w3.org/2000/svg"
 width="139.000000pt" height="164.000000pt" viewBox="0 0 139.000000 164.000000"
 preserveAspectRatio="xMidYMid meet">
<metadata>
Created by potrace 1.16, written by Peter Selinger 2001-2019
</metadata>
<g transform="translate(0.000000,164.000000) scale(0.100000,-0.100000)"
fill="#000000" stroke="none">
<path d="M499 1232 c-64 -108 -179 -358 -179 -390 0 -9 28 35 61 98 75 142
195 347 209 355 15 9 65 -24 83 -55 13 -21 16 -61 17 -195 1 -102 -2 -170 -8
-174 -6 -4 -3 -19 9 -41 10 -19 18 -28 19 -20 0 9 20 22 49 33 27 9 72 33 101
53 50 34 53 35 46 13 -4 -13 -10 -70 -12 -125 -4 -117 -6 -114 96 -113 60 0
52 9 -27 29 -24 6 -43 16 -43 23 0 7 9 63 19 125 14 89 15 115 6 119 -7 2 -41
-10 -76 -27 -34 -18 -82 -38 -106 -45 l-43 -13 0 166 c-1 223 -19 265 -126
285 -31 6 -32 4 -95 -101z"/>
<path d="M520 1134 c0 -9 74 -94 82 -94 18 0 6 38 -19 62 -27 24 -63 43 -63
32z"/>
<path d="M306 804 c-4 -11 16 -43 67 -103 40 -47 77 -92 81 -98 4 -7 0 -45 -8
-85 -11 -58 -15 -153 -7 -210 1 -10 182 -11 206 -2 8 4 23 20 31 36 14 26 17
28 27 14 10 -13 47 -18 185 -26 105 -6 179 -7 189 -1 20 11 3 15 -137 32 -52
6 -129 19 -172 28 -73 15 -79 19 -150 87 -80 78 -121 125 -222 254 -37 47 -71
86 -75 88 -5 2 -11 -5 -15 -14z m324 -374 l55 -50 -25 -20 c-17 -14 -34 -19
-54 -15 -16 3 -55 5 -88 5 l-60 0 7 43 c3 23 13 66 21 95 l15 53 37 -30 c20
-17 62 -53 92 -81z"/>
</g>
</svg>
