<?xml version="1.0" standalone="no"?>
<!DOCTYPE svg PUBLIC "-//W3C//DTD SVG 20010904//EN"
 "http://www.w3.org/TR/2001/REC-SVG-20010904/DTD/svg10.dtd">
<svg version="1.0" xmlns="http://www.w3.org/2000/svg"
 width="150.000000pt" height="167.000000pt" viewBox="0 0 150.000000 167.000000"
 preserveAspectRatio="xMidYMid meet">
<metadata>
Created by potrace 1.16, written by Peter Selinger 2001-2019
</metadata>
<g transform="translate(0.000000,167.000000) scale(0.100000,-0.100000)"
fill="#000000" stroke="none">
<path d="M721 1289 c-292 -175 -378 -247 -405 -340 -18 -59 -21 -149 -6 -149
6 0 10 -6 10 -13 0 -45 187 -67 351 -42 23 3 29 -3 58 -63 46 -94 191 -365
201 -376 8 -8 182 78 229 113 19 15 21 21 12 37 -38 66 -138 295 -131 299 16
10 160 205 160 217 0 8 -59 9 -212 4 l-211 -7 127 124 127 124 -81 77 c-45 42
-85 76 -88 76 -4 0 -67 -36 -141 -81z m217 -16 l62 -58 -67 -59 c-38 -32 -96
-85 -130 -117 -59 -55 -61 -59 -50 -84 l12 -27 105 7 c58 3 145 11 193 16 49
6 90 9 93 7 2 -3 -26 -49 -63 -103 l-67 -98 -15 32 c-14 29 -30 39 -44 25 -3
-4 8 -33 24 -66 17 -33 29 -61 27 -63 -2 -1 -34 -16 -73 -33 -38 -17 -71 -35
-73 -41 -6 -18 16 -12 88 24 l70 35 25 -50 c14 -27 25 -51 25 -53 0 -2 -34
-18 -75 -36 -41 -18 -75 -37 -75 -42 0 -17 28 -9 95 25 l66 35 29 -47 c16 -26
30 -51 30 -57 0 -5 -49 -33 -109 -61 l-109 -52 -30 67 c-16 36 -69 148 -118
249 -65 136 -92 182 -103 179 -9 -2 -14 -10 -12 -18 2 -8 6 -22 8 -31 5 -16
-2 -18 -48 -18 -104 1 -240 18 -265 35 -35 23 -34 111 1 182 41 81 41 81 134
3 45 -39 88 -70 94 -70 7 0 -25 36 -70 80 l-82 79 37 29 c20 16 84 61 141 100
l104 72 74 -67 c40 -36 76 -63 79 -60 3 3 -24 37 -61 75 l-66 70 48 30 c56 34
54 35 141 -45z"/>
</g>
</svg>
