<?xml version="1.0" standalone="no"?>
<!DOCTYPE svg PUBLIC "-//W3C//DTD SVG 20010904//EN"
 "http://www.w3.org/TR/2001/REC-SVG-20010904/DTD/svg10.dtd">
<svg version="1.0" xmlns="http://www.w3.org/2000/svg"
 width="201.000000pt" height="162.000000pt" viewBox="0 0 201.000000 162.000000"
 preserveAspectRatio="xMidYMid meet">
<metadata>
Created by potrace 1.16, written by Peter Selinger 2001-2019
</metadata>
<g transform="translate(0.000000,162.000000) scale(0.100000,-0.100000)"
fill="#000000" stroke="none">
<path d="M831 1275 c-58 -49 -95 -92 -156 -179 l-40 -57 -167 7 -168 7 0 -22
c0 -22 2 -22 148 -20 205 3 255 8 243 23 -12 14 56 117 133 203 l45 50 60 -8
c148 -21 349 -82 389 -119 23 -21 57 -107 74 -183 14 -67 5 -230 -16 -292 -23
-64 -97 -185 -113 -185 -7 0 -13 -10 -13 -21 0 -22 0 -22 225 -17 124 3 228 7
230 10 6 5 -93 292 -135 392 -47 113 -106 215 -147 257 -63 66 -181 119 -363
162 -180 43 -169 43 -229 -8z m705 -420 c65 -137 150 -352 142 -360 -2 -2 -86
-2 -185 2 l-181 6 44 64 c95 139 112 318 48 510 -18 51 78 -109 132 -222z"/>
<path d="M810 981 l0 -58 -77 -6 c-53 -4 -81 -11 -89 -21 -6 -9 -16 -16 -22
-16 -11 0 -40 -69 -51 -122 l-7 -33 -93 -3 c-81 -2 -92 -5 -89 -20 3 -14 17
-17 89 -20 l87 -3 6 -42 c10 -62 55 -155 79 -163 11 -3 54 -12 96 -18 l76 -12
3 -72 c4 -94 22 -93 22 1 l0 73 43 3 c56 3 128 19 144 33 17 14 53 132 53 174
l0 34 54 0 c86 0 101 14 21 20 l-70 5 -8 76 -9 75 -72 22 c-39 12 -88 25 -109
29 l-37 6 0 58 c0 52 -2 59 -20 59 -18 0 -20 -7 -20 -59z m0 -176 l0 -85 -106
0 -106 0 7 32 c4 18 16 51 26 75 19 44 25 47 119 56 19 2 41 5 48 5 9 2 12
-21 12 -83z m140 70 c30 -3 61 -9 67 -13 14 -9 35 -134 24 -142 -3 -3 -50 -4
-103 -2 l-98 3 0 53 c0 87 9 117 34 111 11 -2 46 -7 76 -10z m-137 -289 c3
-55 4 -103 2 -105 -3 -2 -45 4 -95 14 -61 12 -94 23 -100 34 -11 22 -32 139
-26 149 2 4 51 8 109 8 l104 2 6 -102z m237 78 c0 -14 -5 -57 -12 -95 -13 -83
-21 -89 -129 -89 l-69 0 0 105 0 105 105 0 105 0 0 -26z"/>
</g>
</svg>
