<?xml version="1.0" standalone="no"?>
<!DOCTYPE svg PUBLIC "-//W3C//DTD SVG 20010904//EN"
 "http://www.w3.org/TR/2001/REC-SVG-20010904/DTD/svg10.dtd">
<svg version="1.0" xmlns="http://www.w3.org/2000/svg"
 width="160.000000pt" height="183.000000pt" viewBox="0 0 160.000000 183.000000"
 preserveAspectRatio="xMidYMid meet">
<metadata>
Created by potrace 1.16, written by Peter Selinger 2001-2019
</metadata>
<g transform="translate(0.000000,183.000000) scale(0.100000,-0.100000)"
fill="#000000" stroke="none">
<path d="M545 1280 l-7 -250 -53 0 c-32 0 -55 -5 -57 -12 -7 -19 -66 22 -83
58 -31 65 -12 115 56 150 26 13 66 26 88 30 23 4 41 8 41 9 0 19 -17 35 -37
35 -37 0 -149 -56 -172 -87 -42 -52 -19 -162 42 -207 23 -17 46 -21 157 -24
l130 -4 0 -65 c0 -40 4 -62 10 -58 6 3 10 33 10 66 l0 59 115 0 c63 0 115 -2
115 -4 0 -2 -7 -33 -17 -68 -9 -35 -16 -103 -17 -153 -1 -113 19 -159 113
-258 65 -69 220 -197 238 -197 12 0 41 380 53 693 0 4 8 7 18 8 58 3 -71 17
-177 19 -69 1 -137 3 -151 5 -14 2 -83 4 -154 4 l-128 1 6 143 c4 78 9 186 12
240 6 93 5 97 -14 97 -19 0 -35 -25 -31 -46 1 -5 1 -105 0 -221 l-1 -213 -43
0 -42 0 11 133 c7 72 14 185 17 250 4 116 4 117 -18 117 l-23 0 -7 -250z m668
-617 c-3 -181 -6 -332 -7 -337 -5 -19 -231 219 -261 274 -28 51 -30 62 -30
160 1 129 23 216 58 223 12 2 72 5 133 6 l111 1 -4 -327z"/>
</g>
</svg>
