<?xml version="1.0" standalone="no"?>
<!DOCTYPE svg PUBLIC "-//W3C//DTD SVG 20010904//EN"
 "http://www.w3.org/TR/2001/REC-SVG-20010904/DTD/svg10.dtd">
<svg version="1.0" xmlns="http://www.w3.org/2000/svg"
 width="202.000000pt" height="127.000000pt" viewBox="0 0 202.000000 127.000000"
 preserveAspectRatio="xMidYMid meet">
<metadata>
Created by potrace 1.16, written by Peter Selinger 2001-2019
</metadata>
<g transform="translate(0.000000,127.000000) scale(0.100000,-0.100000)"
fill="#000000" stroke="none">
<path d="M555 915 c-44 -30 -84 -54 -89 -54 -5 -1 -33 18 -63 41 -42 32 -56
38 -66 29 -13 -13 2 -29 66 -76 l28 -20 -66 -40 c-69 -43 -69 -43 -56 -64 7
-11 23 -4 76 33 37 26 74 45 81 42 8 -3 54 -33 104 -66 49 -33 90 -56 90 -51
0 5 35 30 78 55 l77 45 295 5 c375 7 610 17 610 26 0 10 -317 20 -627 20
l-263 0 -94 65 c-52 36 -95 65 -97 64 -2 0 -40 -25 -84 -54z m166 -40 l90 -54
-83 -42 c-46 -23 -86 -46 -89 -51 -5 -8 -85 48 -137 97 -11 10 -1 21 49 59 35
25 67 46 71 46 5 0 49 -25 99 -55z"/>
<path d="M624 570 c-13 -13 -154 -100 -162 -100 -3 0 -30 18 -60 41 -41 31
-57 38 -65 29 -12 -12 3 -29 67 -76 l29 -21 -67 -38 c-70 -41 -71 -42 -57 -63
6 -11 24 -3 80 33 l71 48 93 -62 94 -62 84 50 85 50 319 5 c369 6 585 16 585
26 0 10 -326 20 -633 20 l-257 0 -94 65 c-52 36 -96 65 -98 65 -2 0 -9 -5 -14
-10z m51 -57 c22 -15 62 -39 89 -54 l49 -27 -64 -32 c-35 -18 -76 -41 -91 -52
l-28 -19 -70 57 c-38 31 -70 58 -70 59 0 7 125 95 135 95 5 0 28 -12 50 -27z"/>
</g>
</svg>
