<?xml version="1.0" standalone="no"?>
<!DOCTYPE svg PUBLIC "-//W3C//DTD SVG 20010904//EN"
 "http://www.w3.org/TR/2001/REC-SVG-20010904/DTD/svg10.dtd">
<svg version="1.0" xmlns="http://www.w3.org/2000/svg"
 width="197.000000pt" height="140.000000pt" viewBox="0 0 197.000000 140.000000"
 preserveAspectRatio="xMidYMid meet">
<metadata>
Created by potrace 1.16, written by Peter Selinger 2001-2019
</metadata>
<g transform="translate(0.000000,140.000000) scale(0.100000,-0.100000)"
fill="#000000" stroke="none">
<path d="M743 1036 c-286 -179 -443 -331 -443 -429 0 -49 40 -154 80 -209 63
-89 84 -98 233 -98 151 0 138 -4 520 168 241 110 467 221 491 243 25 22 -30 2
-251 -94 -131 -57 -316 -137 -410 -178 -95 -41 -173 -79 -173 -85 0 -16 -30
-23 -120 -30 -106 -9 -175 12 -225 67 -49 54 -93 150 -101 219 l-6 56 96 91
c53 51 105 97 115 103 22 11 8 34 187 -299 48 -91 89 -160 92 -153 2 6 -6 28
-16 48 l-20 38 57 42 c60 46 70 45 91 -6 7 -17 16 -30 21 -30 11 0 6 12 -117
269 -57 118 -101 218 -98 223 7 10 94 61 97 57 2 -2 41 -88 88 -191 82 -183
84 -187 87 -144 l3 44 182 70 c100 38 219 86 264 105 45 20 84 33 86 29 3 -4
17 -45 32 -92 50 -151 97 -243 81 -155 -10 53 -77 269 -86 279 -5 5 -23 2 -43
-8 -19 -9 -38 -16 -41 -16 -3 0 -114 -40 -247 -90 -132 -49 -242 -90 -244 -90
-5 0 -56 110 -97 208 -31 77 -45 102 -57 102 -3 0 -52 -29 -108 -64z m-23
-101 c0 -5 -23 -25 -50 -42 -47 -31 -50 -32 -59 -14 -9 16 -3 24 42 53 49 33
67 34 67 3z m40 -80 c0 -5 -20 -23 -45 -38 -25 -16 -45 -33 -45 -37 0 -22 21
-17 62 15 l45 34 11 -24 c12 -26 12 -26 -53 -69 l-39 -27 -32 63 -31 62 51 37
c51 37 51 37 63 15 7 -11 12 -25 13 -31z m73 -131 l16 -32 -55 -37 c-31 -20
-57 -35 -59 -33 -10 10 -33 78 -25 73 6 -3 31 10 56 30 26 19 48 34 49 33 1
-2 10 -17 18 -34z m52 -93 c14 -28 14 -28 -44 -68 l-59 -40 -16 35 c-14 29
-15 37 -4 43 7 4 31 21 53 37 44 34 49 33 70 -7z"/>
</g>
</svg>
