<?xml version="1.0" standalone="no"?>
<!DOCTYPE svg PUBLIC "-//W3C//DTD SVG 20010904//EN"
 "http://www.w3.org/TR/2001/REC-SVG-20010904/DTD/svg10.dtd">
<svg version="1.0" xmlns="http://www.w3.org/2000/svg"
 width="115.000000pt" height="167.000000pt" viewBox="0 0 115.000000 167.000000"
 preserveAspectRatio="xMidYMid meet">
<metadata>
Created by potrace 1.16, written by Peter Selinger 2001-2019
</metadata>
<g transform="translate(0.000000,167.000000) scale(0.100000,-0.100000)"
fill="#000000" stroke="none">
<path d="M490 1314 c0 -66 -2 -66 -84 -4 -36 27 -63 40 -78 38 -21 -3 -23 -9
-26 -70 -2 -45 1 -68 8 -68 6 0 43 -19 81 -41 38 -23 72 -39 75 -36 6 5 -108
94 -133 104 -9 4 -8 68 2 81 1 2 35 -16 74 -40 83 -50 79 -31 57 -264 -17
-176 -23 -255 -36 -508 -8 -151 -8 -191 2 -198 7 -4 104 -8 215 -8 158 0 201
3 198 13 -3 6 -14 122 -24 257 -11 135 -30 367 -42 516 l-23 271 -74 7 c-41 3
-101 6 -134 6 l-58 0 0 -56z m76 4 c-3 -13 -6 -33 -6 -45 0 -16 -6 -23 -20
-23 -17 0 -20 7 -20 38 0 44 5 52 33 52 15 0 18 -5 13 -22z m64 -28 c0 -52 0
-53 -22 -45 -19 7 -11 95 8 95 10 0 14 -14 14 -50z m80 38 c0 -7 3 -30 6 -50
6 -36 5 -38 -20 -38 -25 0 -26 3 -26 50 0 43 3 50 20 50 11 0 20 -6 20 -12z
m-155 -152 c-6 -51 -25 -300 -25 -338 0 -28 -13 -35 -38 -20 -12 8 -10 35 24
358 5 46 8 51 25 47 17 -5 19 -12 14 -47z m165 47 c0 -5 9 -96 20 -203 11
-107 20 -198 20 -202 0 -5 -22 -8 -50 -8 l-50 0 0 159 c0 191 7 248 29 254 26
7 31 7 31 0z m-90 -208 l0 -205 -35 0 c-42 0 -40 -17 -20 215 8 94 15 176 15
183 0 6 9 12 20 12 19 0 20 -7 20 -205z m-100 -255 c0 -27 -3 -30 -30 -30 -32
0 -33 2 -24 38 4 15 14 22 30 22 20 0 24 -5 24 -30z m240 -5 l0 -35 -55 0
c-54 0 -55 0 -55 29 0 32 10 38 73 40 36 1 37 0 37 -34z m-140 -5 c0 -28 -3
-30 -35 -30 -32 0 -35 2 -35 30 0 28 3 30 35 30 32 0 35 -2 35 -30z m-100
-206 l0 -144 -32 0 c-56 0 -56 2 -42 150 7 74 13 138 14 141 0 3 14 4 30 1
l30 -4 0 -144z m266 1 l20 -156 -76 3 -75 3 -3 147 -3 147 33 4 c18 2 45 5 59
5 l25 2 20 -155z m-162 99 c3 -26 6 -91 6 -145 l0 -99 -45 0 -45 0 0 138 c0
76 3 142 7 145 3 4 21 7 38 7 31 0 33 -2 39 -46z m-118 -274 c8 0 14 -7 14
-16 0 -24 -84 -15 -88 10 -4 16 0 18 28 12 18 -3 39 -6 46 -6z m300 -47 c-2
-3 -39 -2 -80 2 -65 6 -76 10 -76 26 0 16 10 19 78 21 74 3 77 2 80 -20 2 -13
1 -26 -2 -29z m-169 26 c2 -17 -2 -20 -20 -15 -12 3 -37 6 -54 6 -23 0 -33 5
-33 15 0 11 13 15 53 15 46 0 53 -3 54 -21z"/>
</g>
</svg>
