<?xml version="1.0" standalone="no"?>
<!DOCTYPE svg PUBLIC "-//W3C//DTD SVG 20010904//EN"
 "http://www.w3.org/TR/2001/REC-SVG-20010904/DTD/svg10.dtd">
<svg version="1.0" xmlns="http://www.w3.org/2000/svg"
 width="171.000000pt" height="150.000000pt" viewBox="0 0 171.000000 150.000000"
 preserveAspectRatio="xMidYMid meet">
<metadata>
Created by potrace 1.16, written by Peter Selinger 2001-2019
</metadata>
<g transform="translate(0.000000,150.000000) scale(0.100000,-0.100000)"
fill="#000000" stroke="none">
<path d="M1145 1179 c-8 -24 2 -719 11 -812 l6 -58 108 3 108 3 6 75 c3 41 6
226 8 410 1 184 5 347 9 361 7 26 6 26 -54 33 -33 3 -90 6 -128 6 -60 0 -68
-2 -74 -21z m209 -336 c3 -175 8 -360 11 -411 l5 -92 -53 0 c-30 0 -76 3 -102
7 l-47 6 6 51 c3 28 6 207 6 398 l1 347 42 5 c60 8 111 12 118 9 4 -2 9 -146
13 -320z"/>
<path d="M300 1160 c0 -6 37 -49 82 -96 l82 -85 -84 -84 c-68 -69 -82 -87 -71
-97 10 -11 16 -9 31 9 10 13 45 53 79 89 54 59 63 65 78 53 15 -12 16 -12 10
4 -5 15 0 17 41 17 l46 0 -63 -64 c-49 -49 -62 -69 -57 -83 7 -16 10 -15 33
12 89 104 114 126 131 113 13 -11 15 -10 9 5 -4 12 -1 17 11 18 9 0 27 2 40 3
12 2 22 0 22 -3 0 -4 -29 -36 -65 -71 -36 -35 -65 -68 -65 -72 0 -24 36 0 94
64 51 54 70 68 78 60 7 -7 16 -12 22 -12 6 0 5 5 -2 12 -20 20 -14 28 20 28
l32 0 -68 -69 c-51 -52 -67 -74 -62 -87 6 -15 20 -4 79 59 68 72 73 76 92 62
18 -15 18 -17 -24 -59 -32 -33 -42 -49 -37 -63 7 -16 9 -16 28 7 11 14 43 49
70 78 l50 53 29 -27 c16 -15 29 -23 29 -17 0 5 -9 18 -20 28 -11 10 -20 22
-20 27 0 4 31 8 69 8 39 0 73 5 76 10 4 6 -19 10 -61 10 -53 0 -65 3 -56 12 7
7 12 19 12 27 0 10 -10 5 -31 -15 l-31 -29 -66 73 c-37 40 -70 72 -74 72 -18
0 -5 -28 32 -69 41 -47 43 -61 7 -61 -14 0 -42 23 -81 66 -42 47 -62 62 -69
55 -8 -8 4 -26 41 -64 l51 -52 -33 -2 c-30 -3 -41 5 -96 63 -46 49 -64 64 -73
55 -8 -8 3 -25 43 -66 l54 -55 -45 0 c-43 0 -48 3 -104 66 -38 43 -61 62 -68
55 -6 -6 5 -27 34 -60 24 -28 47 -51 52 -51 4 0 7 -4 7 -10 0 -5 -13 -10 -30
-10 -16 0 -30 5 -30 11 0 8 -4 8 -15 -1 -15 -12 -48 18 -140 128 -26 31 -55
43 -55 22z m640 -183 c0 -2 -8 -11 -18 -21 -18 -15 -20 -15 -37 4 -18 20 -18
20 18 20 21 0 37 -2 37 -3z"/>
<path d="M306 681 c-9 -14 4 -30 99 -129 35 -37 56 -66 50 -70 -5 -4 -44 -42
-85 -85 -56 -58 -71 -80 -63 -88 11 -11 56 31 145 136 23 27 27 28 44 15 16
-13 17 -13 11 2 -7 20 4 25 50 20 l35 -4 -68 -69 c-52 -52 -64 -70 -52 -74 14
-6 92 66 133 122 11 15 15 16 30 3 16 -14 17 -13 11 8 -7 21 -5 22 41 22 l47
0 -73 -74 c-53 -53 -69 -76 -60 -82 9 -5 34 16 81 66 53 59 70 72 80 62 6 -6
16 -12 22 -12 6 0 5 5 -2 12 -20 20 -14 28 20 28 l32 0 -67 -68 c-63 -63 -81
-92 -57 -92 5 0 40 32 77 71 64 66 69 69 88 55 19 -14 19 -16 -22 -58 -41 -41
-54 -68 -34 -68 5 0 39 32 76 71 l67 71 29 -28 c34 -32 38 -24 8 14 l-21 27
71 6 c92 7 103 19 17 19 -65 0 -66 1 -56 21 16 28 7 33 -15 9 -10 -11 -25 -20
-34 -20 -9 0 -42 29 -74 65 -32 36 -62 65 -68 65 -20 0 -7 -26 32 -66 23 -23
38 -47 35 -53 -15 -24 -47 -8 -107 54 -34 36 -66 65 -71 65 -20 0 -4 -28 42
-75 l49 -50 -34 -2 c-30 -3 -40 4 -94 65 -49 55 -62 65 -73 54 -8 -8 -9 -15
-3 -20 6 -4 30 -29 54 -54 l44 -47 -44 1 c-41 0 -48 5 -102 64 -32 35 -63 64
-68 64 -21 0 -6 -29 41 -75 28 -27 50 -52 50 -55 0 -12 -54 -10 -62 2 -6 10
-10 10 -17 0 -9 -14 -9 -13 -138 127 -28 31 -42 40 -47 32z m634 -194 c0 -2
-8 -11 -18 -21 -18 -15 -20 -15 -37 4 -18 20 -18 20 18 20 21 0 37 -2 37 -3z"/>
</g>
</svg>
