<?xml version="1.0" standalone="no"?>
<!DOCTYPE svg PUBLIC "-//W3C//DTD SVG 20010904//EN"
 "http://www.w3.org/TR/2001/REC-SVG-20010904/DTD/svg10.dtd">
<svg version="1.0" xmlns="http://www.w3.org/2000/svg"
 width="157.000000pt" height="144.000000pt" viewBox="0 0 157.000000 144.000000"
 preserveAspectRatio="xMidYMid meet">
<metadata>
Created by potrace 1.16, written by Peter Selinger 2001-2019
</metadata>
<g transform="translate(0.000000,144.000000) scale(0.100000,-0.100000)"
fill="#000000" stroke="none">
<path d="M303 729 c6 -408 18 -534 30 -323 4 59 7 151 7 206 l0 98 44 0 43 0
7 -46 c3 -26 6 -78 6 -115 0 -116 19 -78 22 44 l3 112 36 3 c34 3 37 1 43 -29
3 -17 6 -58 6 -91 0 -37 4 -57 10 -53 6 3 10 44 10 91 l0 84 40 0 40 0 1 -52
c0 -39 3 -48 9 -33 5 11 9 35 9 53 1 31 3 32 41 32 24 0 40 -5 40 -12 0 -9 3
-9 12 0 7 7 45 12 98 13 47 0 108 4 135 8 42 6 28 8 -87 15 l-138 8 0 49 0 49
163 1 c230 1 241 15 19 24 l-183 8 3 46 3 46 178 3 c107 1 177 6 177 12 0 6
-48 10 -119 10 -65 0 -146 3 -180 7 l-63 6 7 46 c4 25 8 47 9 48 1 1 109 5
239 9 131 4 240 10 242 14 7 11 -295 20 -648 20 l-320 0 6 -411z m127 321 l0
-50 -46 0 -46 0 6 31 c3 17 6 40 6 50 0 15 8 19 40 19 l40 0 0 -50z m110 0 l0
-50 -35 0 -35 0 0 50 0 50 35 0 35 0 0 -50z m100 0 c0 -49 -1 -50 -30 -50 -29
0 -30 1 -30 50 0 49 1 50 30 50 29 0 30 -1 30 -50z m100 0 l0 -50 -35 0 -35 0
0 50 0 50 35 0 35 0 0 -50z m0 -130 l0 -50 -35 0 c-35 0 -35 0 -35 44 0 43 1
45 33 49 17 2 33 5 35 5 1 1 2 -20 2 -48z m-310 -5 l0 -45 -45 0 -45 0 0 45 0
45 45 0 45 0 0 -45z m110 0 c0 -45 0 -45 -35 -45 -35 0 -35 0 -35 45 0 45 0
45 35 45 35 0 35 0 35 -45z m100 0 c0 -43 -1 -45 -30 -45 -29 0 -30 2 -30 45
0 43 1 45 30 45 29 0 30 -2 30 -45z m-112 -84 c8 -1 12 -17 12 -46 0 -45 0
-45 -35 -45 l-35 0 0 50 c0 46 2 50 23 46 12 -3 28 -5 35 -5z m112 -42 l0 -49
-35 0 c-32 0 -35 3 -35 28 0 52 9 67 41 68 28 1 29 0 29 -47z m104 35 c3 -9 6
-31 6 -50 0 -33 -1 -34 -40 -34 l-40 0 0 43 c0 24 3 47 7 50 13 13 61 7 67 -9z
m-314 -39 l0 -45 -45 0 -45 0 0 45 0 45 45 0 45 0 0 -45z"/>
</g>
</svg>
