<?xml version="1.0" standalone="no"?>
<!DOCTYPE svg PUBLIC "-//W3C//DTD SVG 20010904//EN"
 "http://www.w3.org/TR/2001/REC-SVG-20010904/DTD/svg10.dtd">
<svg version="1.0" xmlns="http://www.w3.org/2000/svg"
 width="172.000000pt" height="314.000000pt" viewBox="0 0 172.000000 314.000000"
 preserveAspectRatio="xMidYMid meet">
<metadata>
Created by potrace 1.16, written by Peter Selinger 2001-2019
</metadata>
<g transform="translate(0.000000,314.000000) scale(0.100000,-0.100000)"
fill="#000000" stroke="none">
<path d="M351 2762 c-53 -199 -66 -421 -30 -538 39 -128 159 -331 283 -480 58
-69 61 -52 5 24 -28 37 -71 99 -95 138 l-44 71 6 202 7 201 42 0 c41 0 43 -1
49 -37 3 -21 6 -66 6 -100 0 -35 4 -63 10 -63 6 0 10 40 10 100 l0 100 39 0
c35 0 39 -3 45 -31 3 -17 6 -51 6 -76 0 -27 4 -42 10 -38 6 3 10 37 10 76 l0
69 40 0 c39 0 40 -1 40 -37 0 -44 8 -40 12 5 2 27 7 32 28 33 14 1 32 2 40 3
8 2 79 3 158 4 87 1 142 6 142 12 0 6 -50 10 -130 10 l-130 0 0 45 0 45 165 0
c103 0 165 4 165 10 0 6 -41 10 -104 10 -56 0 -131 3 -165 6 -61 7 -61 7 -61
39 l0 32 83 6 c45 4 126 7 180 7 56 0 97 4 97 10 0 6 -70 11 -177 12 l-178 3
-3 36 -3 36 122 6 c67 4 164 7 216 7 55 0 93 4 93 10 0 6 -78 10 -215 10
l-215 0 0 28 0 29 152 6 c83 4 198 7 255 7 56 0 103 4 103 8 0 12 -314 22
-679 22 l-304 0 6 -412 5 -413 -24 47 c-13 27 -38 88 -54 137 -24 72 -30 106
-30 176 0 105 22 259 53 378 l24 87 -22 0 c-20 0 -26 -10 -44 -78z m219 14 c0
-31 -10 -37 -49 -30 -24 5 -31 12 -31 30 0 21 5 24 40 24 36 0 40 -3 40 -24z
m108 -3 c-2 -23 -8 -29 -35 -31 -31 -3 -33 -1 -33 27 0 29 3 31 36 31 33 0 35
-2 32 -27z m97 -3 c0 -20 -6 -26 -27 -28 -25 -3 -28 0 -28 28 0 28 3 31 28 28
21 -2 27 -8 27 -28z m105 0 c0 -28 -3 -30 -35 -30 -32 0 -35 2 -35 30 0 28 3
30 35 30 32 0 35 -2 35 -30z m-310 -95 c0 -35 -1 -35 -42 -35 -41 0 -43 1 -42
30 1 17 2 32 3 35 0 3 19 5 41 5 39 0 40 -1 40 -35z m108 -2 c-3 -35 -6 -38
-35 -41 -32 -3 -33 -2 -33 37 0 40 1 41 36 41 35 0 35 -1 32 -37z m102 -4 c0
-39 -1 -40 -32 -37 -33 3 -34 4 -29 63 1 10 11 15 31 15 28 0 30 -2 30 -41z
m100 1 c0 -39 -1 -40 -35 -40 -34 0 -35 1 -35 40 0 39 1 40 35 40 34 0 35 -1
35 -40z m-310 -105 c0 -35 0 -35 -45 -35 -45 0 -45 0 -45 35 0 35 0 35 45 35
45 0 45 0 45 -35z m110 0 c0 -33 -2 -35 -35 -35 -33 0 -35 2 -35 35 0 33 2 35
35 35 33 0 35 -2 35 -35z m100 0 c0 -33 -2 -35 -35 -35 -31 0 -34 3 -31 23 3
12 5 28 5 35 1 7 14 12 31 12 28 0 30 -3 30 -35z m100 0 c0 -33 -2 -35 -35
-35 -33 0 -35 2 -35 35 0 33 2 35 35 35 33 0 35 -2 35 -35z m4 -81 c3 -9 6
-29 6 -45 0 -27 -2 -29 -40 -29 -40 0 -40 0 -40 39 0 22 5 42 13 44 25 11 55
6 61 -9z m-314 -35 l0 -40 -42 3 c-42 3 -43 4 -46 41 l-3 37 45 0 46 0 0 -41z
m110 1 c0 -39 -1 -40 -34 -40 -38 0 -44 9 -38 52 4 24 9 28 38 28 33 0 34 -1
34 -40z m100 0 c0 -39 -1 -40 -35 -40 -34 0 -35 1 -35 40 0 39 1 40 35 40 34
0 35 -1 35 -40z"/>
<path d="M369 1423 c-6 -16 -22 -82 -36 -148 -21 -96 -26 -149 -27 -265 -1
-136 1 -149 27 -215 43 -109 122 -244 214 -367 97 -130 101 -134 109 -126 3 3
-15 32 -39 65 -25 32 -67 93 -94 136 l-50 78 4 167 c2 92 6 182 9 200 5 31 7
32 49 32 l45 0 0 -95 c0 -57 4 -95 10 -95 6 0 10 28 10 64 0 35 3 78 6 95 6
28 10 31 45 31 l39 0 0 -70 c0 -40 4 -70 10 -70 6 0 10 30 10 70 l0 70 40 0
c39 0 40 -1 40 -36 0 -21 4 -33 10 -29 6 3 10 19 10 36 l0 29 153 1 c163 0
309 8 317 16 3 2 6 100 8 217 l4 213 -23 6 c-37 9 -773 21 -804 13 l-28 -7 6
-378 c4 -208 9 -393 12 -412 10 -58 -72 109 -96 198 -18 66 -21 94 -16 183 8
133 30 254 73 403 9 30 -35 21 -47 -10z m887 -50 l4 -43 -170 0 -170 0 0 40 0
39 128 4 c220 6 204 9 208 -40z m-686 -10 c0 -28 -3 -34 -16 -29 -9 3 -27 6
-40 6 -20 0 -24 5 -24 29 0 25 5 30 28 33 43 6 52 -2 52 -39z m110 1 c0 -33
-1 -35 -35 -32 -32 2 -35 5 -35 34 0 28 4 33 28 36 38 5 42 1 42 -38z m98 4
c3 -36 2 -38 -27 -38 -30 0 -31 2 -31 41 0 38 1 40 28 37 23 -3 27 -8 30 -40z
m102 2 c0 -37 -2 -40 -28 -40 -37 0 -39 3 -34 45 4 31 7 35 33 35 27 0 29 -3
29 -40z m380 -111 l0 -52 -46 7 c-26 3 -102 6 -170 6 l-124 0 0 40 0 39 58 4
c31 2 108 4 170 5 l112 2 0 -51z m-690 1 l0 -40 -40 0 -40 0 0 40 0 40 40 0
40 0 0 -40z m110 0 c0 -39 -1 -40 -35 -40 -34 0 -35 1 -35 40 0 39 1 40 35 40
34 0 35 -1 35 -40z m100 0 c0 -38 -2 -40 -30 -40 -28 0 -30 2 -30 40 0 38 2
40 30 40 28 0 30 -2 30 -40z m100 0 c0 -38 -2 -40 -30 -40 -28 0 -30 2 -30 40
0 38 2 40 30 40 28 0 30 -2 30 -40z m380 -111 l0 -51 -31 6 c-17 3 -96 6 -175
6 l-144 0 0 40 0 39 108 4 c59 1 137 4 175 5 l67 2 0 -51z m-690 1 l0 -40 -40
0 -40 0 0 40 0 40 40 0 40 0 0 -40z m110 0 c0 -39 -1 -40 -35 -40 -34 0 -35 1
-35 40 0 39 1 40 35 40 34 0 35 -1 35 -40z m100 0 c0 -38 -2 -40 -30 -40 -28
0 -30 2 -30 40 0 38 2 40 30 40 28 0 30 -2 30 -40z m100 23 c0 -10 3 -28 6
-40 6 -21 3 -23 -35 -23 l-41 0 0 40 c0 39 1 40 35 40 27 0 35 -4 35 -17z
m384 -124 c4 -23 4 -44 2 -47 -3 -2 -84 -1 -181 3 l-175 7 0 34 0 33 98 4 c53
1 131 4 173 5 l76 2 7 -41z m-694 12 c0 -11 3 -26 6 -35 5 -13 -2 -16 -40 -16
-46 0 -46 0 -46 35 0 34 1 35 40 35 33 0 40 -3 40 -19z m110 0 c0 -11 3 -26 6
-35 5 -13 -2 -16 -35 -16 -40 0 -41 1 -41 35 0 33 2 35 35 35 28 0 35 -4 35
-19z m104 -3 c11 -43 7 -48 -34 -48 -39 0 -40 1 -36 33 3 17 5 33 5 35 1 1 14
2 30 2 21 0 30 -6 35 -22z m106 -13 c0 -34 -1 -35 -40 -35 -39 0 -40 1 -40 35
0 34 1 35 40 35 39 0 40 -1 40 -35z"/>
</g>
</svg>
