<?xml version="1.0" standalone="no"?>
<!DOCTYPE svg PUBLIC "-//W3C//DTD SVG 20010904//EN"
 "http://www.w3.org/TR/2001/REC-SVG-20010904/DTD/svg10.dtd">
<svg version="1.0" xmlns="http://www.w3.org/2000/svg"
 width="139.000000pt" height="168.000000pt" viewBox="0 0 139.000000 168.000000"
 preserveAspectRatio="xMidYMid meet">
<metadata>
Created by potrace 1.16, written by Peter Selinger 2001-2019
</metadata>
<g transform="translate(0.000000,168.000000) scale(0.100000,-0.100000)"
fill="#000000" stroke="none">
<path d="M367 1373 c-14 -13 -6 -22 58 -69 36 -27 64 -52 62 -57 -1 -4 -40
-23 -86 -42 -81 -33 -83 -34 -77 -12 23 92 27 130 17 140 -16 16 -20 6 -31
-59 -13 -80 -13 -127 1 -118 6 3 14 2 18 -4 5 -8 35 2 89 30 l83 42 93 -23
c89 -21 190 -63 228 -94 21 -17 38 -118 38 -232 0 -105 -28 -234 -85 -397 -61
-175 -60 -173 -47 -164 7 4 12 2 12 -3 0 -7 36 -11 98 -11 128 0 252 11 252
21 0 5 -6 9 -14 9 -9 0 -18 32 -30 108 -30 181 -94 486 -122 574 -20 65 -35
91 -64 119 -43 41 -151 89 -272 121 -71 18 -92 29 -145 75 -65 56 -66 57 -76
46z m571 -548 c17 -66 47 -194 66 -285 20 -91 39 -176 42 -189 4 -20 2 -23
-18 -18 -13 3 -81 7 -151 8 -70 0 -127 4 -125 8 2 3 11 27 21 52 16 40 22 45
43 41 34 -6 194 8 194 18 0 4 -45 11 -101 15 -70 5 -99 10 -95 18 56 134 93
327 82 427 -8 79 6 45 42 -95z"/>
</g>
</svg>
