<?xml version="1.0" standalone="no"?>
<!DOCTYPE svg PUBLIC "-//W3C//DTD SVG 20010904//EN"
 "http://www.w3.org/TR/2001/REC-SVG-20010904/DTD/svg10.dtd">
<svg version="1.0" xmlns="http://www.w3.org/2000/svg"
 width="177.000000pt" height="346.000000pt" viewBox="0 0 177.000000 346.000000"
 preserveAspectRatio="xMidYMid meet">
<metadata>
Created by potrace 1.16, written by Peter Selinger 2001-2019
</metadata>
<g transform="translate(0.000000,346.000000) scale(0.100000,-0.100000)"
fill="#000000" stroke="none">
<path d="M820 3143 c-55 -19 -53 -17 -45 -42 3 -11 14 -19 23 -18 33 2 112
-45 151 -90 46 -52 58 -102 41 -176 -27 -124 -86 -177 -203 -186 -99 -8 -245
4 -292 23 -21 9 -40 15 -42 13 -7 -7 19 -291 36 -399 l17 -107 -23 -12 c-22
-12 -30 -38 -16 -52 3 -4 13 -1 22 7 44 39 110 49 371 55 281 8 294 10 362 74
46 44 52 74 45 235 -7 176 -49 366 -125 560 l-37 93 -63 19 c-76 24 -160 25
-222 3z m234 -42 c10 -9 29 -32 41 -51 24 -38 70 -158 64 -165 -3 -2 -30 -1
-62 2 -49 5 -57 9 -57 27 0 43 -44 100 -113 146 l-68 45 38 12 c47 14 132 6
157 -16z m120 -253 c14 -56 12 -58 -69 -58 l-75 0 0 29 c0 26 4 29 53 38 79
15 84 15 91 -9z m40 -218 c23 -154 33 -340 18 -340 -6 0 -38 46 -72 103 -35
56 -91 139 -126 183 l-63 82 22 40 c22 42 39 51 92 53 17 0 46 6 65 13 43 16
42 19 64 -134z m-231 -41 c157 -206 229 -314 220 -328 -32 -51 -157 -77 -316
-66 l-105 7 -5 36 c-4 21 -9 105 -13 189 l-7 152 29 6 c16 3 46 10 67 15 20 4
37 4 37 0 0 -4 40 -61 88 -126 48 -66 109 -148 135 -183 26 -36 47 -59 47 -52
0 22 -117 208 -185 296 -49 62 -61 85 -53 93 17 17 19 16 61 -39z m-457 23 c6
-4 15 -52 18 -107 4 -55 14 -149 22 -209 8 -59 14 -110 12 -111 -2 -2 -15 -6
-31 -10 -26 -7 -27 -6 -28 36 0 24 -6 126 -12 227 -12 179 -10 194 19 174z
m89 -22 c9 0 15 -21 20 -67 3 -38 12 -123 20 -190 8 -68 15 -127 15 -133 0 -5
-15 -10 -34 -10 l-34 0 -6 78 c-3 42 -8 127 -11 187 -4 61 -9 119 -12 129 -4
15 -2 18 12 13 9 -4 23 -7 30 -7z m109 -41 c3 -17 6 -55 6 -83 0 -28 7 -96 15
-150 8 -55 15 -103 15 -108 0 -4 -15 -8 -34 -8 l-34 0 -6 78 c-3 42 -8 128
-12 190 l-6 112 25 0 c19 0 26 -6 31 -31z"/>
<path d="M1050 1360 c-12 -8 -2 -23 56 -82 241 -248 270 -305 319 -609 14 -90
30 -184 34 -209 l9 -45 1 60 c1 72 -31 322 -54 422 -19 84 -60 155 -149 261
-106 126 -199 213 -216 202z"/>
<path d="M970 1305 c0 -4 18 -43 40 -89 69 -142 95 -286 69 -379 -14 -52 -72
-115 -113 -123 -18 -3 -116 -1 -217 5 -131 8 -223 8 -314 1 -71 -6 -131 -13
-134 -15 -5 -5 28 -358 35 -364 10 -11 11 13 5 159 -4 85 -6 156 -6 157 0 1
19 5 41 8 l40 7 14 -161 15 -162 -37 -6 c-29 -4 -38 -10 -38 -26 0 -18 4 -19
48 -13 233 34 369 48 626 66 163 11 322 20 351 20 30 0 57 4 60 10 8 12 -13
12 -389 0 -164 -6 -300 -9 -301 -8 -2 2 -6 69 -10 151 l-7 147 74 0 75 0 37
-90 c34 -82 56 -117 56 -91 0 6 -13 47 -30 92 -16 46 -29 83 -27 84 1 1 14 5
28 8 22 6 27 2 39 -31 26 -72 72 -167 77 -156 2 6 -12 54 -31 107 l-35 96 24
15 c14 9 27 16 31 16 3 0 40 -25 81 -55 126 -92 115 -62 -17 47 -31 25 -42 39
-35 47 8 7 34 -6 88 -46 127 -91 103 -47 -28 53 -32 25 -42 39 -38 54 6 22 3
24 97 -44 37 -26 70 -45 74 -42 3 4 2 10 -4 14 -6 4 -43 33 -82 66 -52 42 -72
65 -72 81 0 13 -3 31 -7 41 -4 11 25 -5 76 -40 45 -32 85 -56 88 -53 6 7 -29
38 -109 99 -52 39 -59 49 -78 113 -32 102 -85 211 -109 224 -12 7 -21 9 -21 6z
m-400 -627 c0 -2 7 -66 15 -143 8 -77 15 -145 15 -152 0 -7 -16 -15 -35 -18
-19 -3 -50 -7 -69 -10 l-33 -5 -7 156 c-6 125 -5 159 6 165 11 8 108 13 108 7z
m159 -144 c7 -80 11 -147 9 -148 -1 -2 -28 -6 -59 -9 l-57 -5 -6 46 c-4 38 -9
222 -7 255 1 4 25 7 54 7 l53 0 13 -146z"/>
</g>
</svg>
