<?xml version="1.0" standalone="no"?>
<!DOCTYPE svg PUBLIC "-//W3C//DTD SVG 20010904//EN"
 "http://www.w3.org/TR/2001/REC-SVG-20010904/DTD/svg10.dtd">
<svg version="1.0" xmlns="http://www.w3.org/2000/svg"
 width="173.000000pt" height="148.000000pt" viewBox="0 0 173.000000 148.000000"
 preserveAspectRatio="xMidYMid meet">
<metadata>
Created by potrace 1.16, written by Peter Selinger 2001-2019
</metadata>
<g transform="translate(0.000000,148.000000) scale(0.100000,-0.100000)"
fill="#000000" stroke="none">
<path d="M323 1168 c-6 -7 -12 -18 -16 -23 -3 -7 90 -10 276 -11 223 0 298 -4
360 -17 120 -25 129 -32 144 -102 17 -83 16 -219 -2 -289 -20 -78 -65 -180
-133 -306 -69 -127 -70 -129 -49 -111 11 9 17 10 17 2 0 -8 73 -11 255 -11
163 0 255 4 255 10 0 6 -8 10 -17 10 -15 0 -25 29 -56 156 -81 330 -188 609
-246 639 -86 44 -267 65 -559 65 -164 0 -222 -3 -229 -12z m857 -260 c0 -5 -7
-8 -15 -8 -8 0 -15 8 -15 18 0 9 -3 28 -6 42 -4 20 -1 18 15 -10 11 -19 20
-38 21 -42z m37 -93 c13 -32 23 -62 23 -65 0 -3 -23 -3 -51 -1 -46 3 -50 5
-45 25 3 11 6 40 6 64 0 39 2 43 22 40 16 -2 28 -18 45 -63z m52 -141 c11 -31
21 -60 21 -65 0 -5 -44 -9 -99 -9 l-98 0 21 60 21 59 50 4 c27 2 53 4 56 5 3
1 16 -23 28 -54z m73 -219 c21 -66 38 -124 38 -129 0 -5 -17 -6 -37 -3 -21 4
-122 7 -225 8 -104 1 -188 3 -188 5 0 2 18 29 40 60 22 32 40 51 40 44 0 -11
30 -12 156 -7 142 6 175 10 163 21 -2 2 -71 6 -154 10 -82 3 -151 6 -152 6 -2
0 9 22 25 50 l27 49 95 4 c52 2 104 3 115 3 16 -1 26 -22 57 -121z"/>
</g>
</svg>
