<?xml version="1.0" standalone="no"?>
<!DOCTYPE svg PUBLIC "-//W3C//DTD SVG 20010904//EN"
 "http://www.w3.org/TR/2001/REC-SVG-20010904/DTD/svg10.dtd">
<svg version="1.0" xmlns="http://www.w3.org/2000/svg"
 width="219.000000pt" height="339.000000pt" viewBox="0 0 219.000000 339.000000"
 preserveAspectRatio="xMidYMid meet">
<metadata>
Created by potrace 1.16, written by Peter Selinger 2001-2019
</metadata>
<g transform="translate(0.000000,339.000000) scale(0.100000,-0.100000)"
fill="#000000" stroke="none">
<path d="M755 2959 l-100 -130 -177 6 -178 6 0 -22 0 -22 188 7 187 6 28 33
c15 17 53 68 85 113 l57 81 65 7 c36 3 109 6 164 6 84 0 97 -2 92 -15 -3 -9
-9 -95 -12 -193 -6 -147 -4 -188 10 -242 24 -94 135 -316 136 -272 0 7 -13 39
-29 71 -78 153 -92 241 -77 471 l11 175 65 -4 c83 -4 212 -37 227 -57 32 -43
42 -238 18 -340 -18 -78 -80 -220 -144 -333 -53 -93 -61 -112 -36 -91 12 10
15 9 15 -5 0 -17 14 -18 245 -12 137 3 253 10 262 16 16 9 15 10 -7 11 -24 0
-27 7 -64 158 -73 296 -169 559 -225 619 -51 54 -235 83 -516 82 l-190 0 -100
-130z m926 -328 c53 -147 132 -392 127 -395 -2 -1 -102 3 -224 9 l-220 10 54
80 c121 181 167 316 160 470 l-4 90 29 -65 c16 -36 51 -125 78 -199z"/>
<path d="M1220 2950 c0 -22 1 -22 113 -15 61 4 114 9 116 11 10 9 -10 12 -116
19 -112 7 -113 6 -113 -15z"/>
<path d="M1211 2875 c4 -17 14 -19 114 -16 61 1 112 5 114 7 11 10 -14 15
-119 21 -105 6 -112 5 -109 -12z"/>
<path d="M1210 2778 c0 -15 9 -18 48 -18 76 0 182 12 182 21 0 4 -52 9 -115
11 -104 3 -115 1 -115 -14z"/>
<path d="M1200 2690 c0 -22 1 -23 113 -15 106 6 126 10 116 19 -2 2 -55 7
-116 11 -112 7 -113 7 -113 -15z"/>
<path d="M1222 2604 c3 -18 12 -19 113 -15 61 2 112 5 114 7 11 10 -13 14
-118 20 -108 7 -113 6 -109 -12z"/>
<path d="M779 1062 l-104 -131 -177 0 c-151 -1 -178 -3 -178 -16 0 -13 20 -15
128 -14 70 1 156 4 192 8 l65 6 83 110 82 110 73 6 c39 4 112 7 160 8 l88 1
-7 -37 c-4 -20 -7 -120 -8 -223 -1 -180 0 -187 27 -257 32 -85 99 -205 116
-211 6 -2 -4 27 -23 65 -80 159 -95 240 -84 458 11 222 2 203 95 193 42 -5 78
-9 79 -11 1 -1 -1 -17 -3 -34 l-5 -33 -74 0 c-62 0 -74 -3 -74 -16 0 -15 9
-16 75 -11 l75 7 0 -31 0 -31 -75 6 c-71 5 -75 4 -75 -16 0 -20 3 -20 70 -14
l70 7 0 -35 0 -36 -75 0 c-63 0 -75 -3 -75 -16 0 -14 10 -16 75 -12 l75 5 0
-34 0 -33 -75 0 c-63 0 -75 -3 -75 -16 0 -15 10 -16 75 -11 l75 5 0 -35 0 -35
-67 4 c-55 2 -68 0 -68 -12 0 -12 13 -15 68 -13 l67 1 0 -84 c0 -46 4 -84 9
-84 8 0 11 34 32 398 8 132 16 202 23 202 6 0 30 -9 52 -19 l42 -19 12 -85
c18 -117 9 -234 -25 -327 -31 -84 -90 -206 -141 -291 -37 -61 -42 -78 -19 -59
12 10 15 10 15 -4 0 -14 19 -16 153 -16 191 0 367 10 367 22 0 4 -10 8 -22 8
-21 0 -26 13 -61 156 -74 301 -172 570 -228 620 -58 53 -182 74 -470 81 l-226
5 -104 -130z m883 -225 c41 -104 168 -480 168 -499 0 -6 -13 -8 -32 -4 -18 3
-120 6 -225 7 -106 1 -193 2 -193 4 0 1 25 40 57 86 73 109 138 248 153 326 7
35 10 101 8 149 -5 101 -2 98 64 -69z"/>
</g>
</svg>
