<?xml version="1.0" standalone="no"?>
<!DOCTYPE svg PUBLIC "-//W3C//DTD SVG 20010904//EN"
 "http://www.w3.org/TR/2001/REC-SVG-20010904/DTD/svg10.dtd">
<svg version="1.0" xmlns="http://www.w3.org/2000/svg"
 width="135.000000pt" height="389.000000pt" viewBox="0 0 135.000000 389.000000"
 preserveAspectRatio="xMidYMid meet">
<metadata>
Created by potrace 1.16, written by Peter Selinger 2001-2019
</metadata>
<g transform="translate(0.000000,389.000000) scale(0.100000,-0.100000)"
fill="#000000" stroke="none">
<path d="M520 3566 c-106 -32 -150 -53 -150 -70 0 -9 -6 -16 -14 -16 -25 0
-59 -175 -54 -271 4 -74 9 -88 69 -207 l65 -127 69 -17 c88 -21 149 -22 208
-4 40 12 47 12 47 0 0 -8 5 -14 10 -14 6 0 10 8 10 18 0 13 23 24 103 47 l102
31 14 62 c11 48 19 62 33 62 10 0 18 5 18 10 0 6 -7 10 -15 10 -18 0 -18 -3 1
95 18 92 13 160 -16 237 -20 53 -21 53 -128 105 -59 29 -125 57 -147 63 -63
16 -143 11 -225 -14z m224 -42 c3 -9 6 -67 6 -130 l0 -115 -77 3 c-43 2 -77 6
-75 11 1 4 2 61 2 127 l0 120 69 0 c54 0 70 -4 75 -16z m-194 -125 l0 -121
-97 7 c-53 3 -98 7 -100 9 -5 5 37 160 45 168 10 10 122 56 140 57 9 1 12 -29
12 -120z m311 102 c102 -35 105 -38 128 -107 12 -36 21 -77 21 -92 l0 -27
-110 3 -110 3 0 120 c0 65 4 119 8 119 5 0 33 -8 63 -19z m-111 -333 l0 -78
-81 0 -81 0 4 73 3 72 65 5 c36 3 71 5 78 6 9 0 12 -21 12 -78z m256 45 c-3
-21 -8 -60 -12 -87 l-7 -48 -45 6 c-25 3 -70 6 -101 6 l-56 0 3 80 4 80 110 0
110 0 -6 -37z m-447 -48 l2 -75 -94 0 -95 0 -11 50 c-22 104 -26 100 92 100
l103 0 3 -75z m423 -160 c-4 -61 5 -55 -107 -75 -33 -6 -68 -14 -77 -16 -16
-5 -18 3 -18 65 0 81 -6 77 130 80 l75 1 -3 -55z m-420 -31 c2 -42 2 -77 0
-79 -2 -1 -30 4 -64 13 -59 15 -61 16 -84 69 -13 29 -24 58 -24 63 0 6 36 10
84 10 l84 0 4 -76z m192 24 c11 -96 12 -94 -46 -106 -29 -5 -68 -8 -85 -5
l-33 5 0 79 0 79 79 0 78 0 7 -52z"/>
<path d="M520 2336 c-106 -32 -150 -53 -150 -70 0 -9 -6 -16 -14 -16 -25 0
-59 -175 -54 -271 4 -74 9 -89 69 -207 l65 -127 49 -13 c28 -7 82 -15 120 -17
63 -5 84 -1 225 43 l155 48 14 62 c11 48 19 62 33 62 10 0 18 5 18 10 0 6 -7
10 -15 10 -18 0 -18 -3 1 95 18 92 13 161 -17 237 -20 52 -22 54 -117 101
-168 84 -246 95 -382 53z m140 -156 l0 -130 -55 0 -56 0 3 122 c3 121 3 122
28 129 14 4 37 7 53 8 l27 1 0 -130z m133 114 c15 -5 17 -20 17 -125 l0 -119
-49 0 c-28 0 -53 5 -56 10 -4 6 -3 65 0 131 l8 120 31 -6 c17 -4 39 -9 49 -11z
m-283 -129 l0 -115 -77 5 c-42 3 -78 7 -80 8 -5 6 36 160 45 169 7 7 95 45
110 48 1 0 2 -52 2 -115z m409 84 c47 -20 50 -23 70 -88 11 -36 21 -78 21 -91
0 -25 0 -25 -86 -22 l-87 4 7 81 c3 45 6 94 6 110 0 32 7 33 69 6z m80 -315
c-6 -43 -12 -80 -14 -82 -2 -2 -35 0 -74 4 l-71 7 0 78 0 78 78 3 c42 2 80 0
85 -3 4 -3 2 -41 -4 -85z m-189 6 l0 -80 -55 0 -55 0 0 74 c0 82 -2 80 83 85
l27 1 0 -80z m-300 48 c0 -13 3 -47 6 -75 l7 -53 -76 0 -75 0 -11 50 c-22 101
-22 100 69 100 76 0 80 -1 80 -22z m158 -53 l3 -75 -60 0 -61 0 0 75 0 75 58
0 57 0 3 -75z m314 -157 c-2 -29 -6 -55 -8 -57 -2 -2 -33 -10 -69 -16 l-65
-13 0 69 0 69 74 0 73 0 -5 -52z m-462 -28 c0 -40 4 -70 10 -70 6 0 10 24 10
54 0 82 3 86 71 86 l59 0 2 -70 c0 -38 1 -76 2 -82 2 -26 -221 7 -242 35 -9
13 -42 98 -42 110 0 4 29 7 65 7 l65 0 0 -70z m296 3 l-1 -66 -55 -13 c-30 -7
-57 -13 -60 -14 -3 0 -4 36 -2 80 l4 80 58 0 58 0 -2 -67z"/>
<path d="M402 1122 c-6 -18 5 -812 12 -819 2 -3 10 -2 17 3 7 4 69 9 138 11
69 1 183 5 254 7 107 5 127 3 127 -9 0 -8 5 -15 10 -15 6 0 10 64 10 173 0 94
1 271 3 392 2 202 1 220 -15 223 -16 3 -18 -8 -18 -133 l0 -137 -22 6 c-13 3
-56 6 -95 6 l-73 0 0 134 0 133 92 2 c50 1 98 6 107 10 19 12 -100 20 -347 24
-163 3 -195 1 -200 -11z m188 -163 l0 -130 -62 5 c-35 3 -69 5 -75 5 -10 1
-13 33 -13 126 l0 125 75 0 75 0 0 -131z m120 11 c0 -66 1 -123 3 -127 1 -5
-19 -9 -45 -11 l-48 -3 0 130 0 131 45 0 45 0 0 -120z m230 -235 c0 -75 10
-70 -125 -58 l-77 6 5 50 c2 27 11 53 18 58 8 5 51 9 97 9 l82 0 0 -65z m-350
0 l0 -55 -75 0 -75 0 0 55 0 55 75 0 75 0 0 -55z m127 0 l2 -55 -49 0 -50 0 0
55 0 55 48 0 47 0 2 -55z m228 -231 c4 -80 4 -148 1 -151 -3 -3 -53 -2 -112 2
l-107 7 7 67 c3 36 6 98 6 138 l0 72 68 4 c37 2 81 4 98 5 l31 2 8 -146z
m-355 -3 l0 -141 -80 0 -81 0 2 134 1 135 27 3 c14 2 50 4 79 6 l52 3 0 -140z
m130 -1 l0 -140 -55 0 -55 0 0 48 c0 27 3 90 6 140 l7 92 48 0 49 0 0 -140z"/>
</g>
</svg>
