<?xml version="1.0" standalone="no"?>
<!DOCTYPE svg PUBLIC "-//W3C//DTD SVG 20010904//EN"
 "http://www.w3.org/TR/2001/REC-SVG-20010904/DTD/svg10.dtd">
<svg version="1.0" xmlns="http://www.w3.org/2000/svg"
 width="135.000000pt" height="135.000000pt" viewBox="0 0 135.000000 135.000000"
 preserveAspectRatio="xMidYMid meet">
<metadata>
Created by potrace 1.16, written by Peter Selinger 2001-2019
</metadata>
<g transform="translate(0.000000,135.000000) scale(0.100000,-0.100000)"
fill="#000000" stroke="none">
<path d="M540 1031 c-103 -29 -165 -57 -162 -74 1 -8 -6 -17 -16 -19 -31 -8
-56 -115 -57 -238 l0 -105 57 -115 c32 -63 64 -123 72 -134 8 -10 41 -25 73
-32 97 -23 169 -18 290 20 59 19 127 39 150 45 48 13 44 3 79 186 29 157 28
218 -5 305 -22 55 -23 55 -119 103 -166 81 -236 93 -362 58z m253 -50 c41 -11
98 -30 126 -41 47 -21 51 -25 70 -83 25 -74 26 -144 3 -322 l-17 -130 -130
-29 c-74 -17 -160 -30 -200 -31 -66 0 -179 19 -204 34 -7 4 -28 55 -47 112
-48 138 -53 230 -22 348 l23 83 58 24 c136 57 219 66 340 35z"/>
<path d="M465 703 c3 -126 9 -239 13 -253 10 -40 19 93 21 298 1 178 1 182
-20 182 -20 0 -20 -2 -14 -227z"/>
<path d="M619 923 c-5 -27 3 -406 9 -443 l6 -45 7 55 c4 30 7 142 8 248 1 164
-1 192 -14 192 -8 0 -16 -3 -16 -7z"/>
<path d="M739 923 c-4 -39 3 -408 8 -443 l7 -45 7 50 c4 28 8 139 8 248 1 169
-1 197 -14 197 -8 0 -15 -3 -16 -7z"/>
<path d="M860 923 c-4 -63 2 -401 7 -438 l7 -50 7 40 c4 22 8 133 8 248 1 178
-1 207 -14 207 -8 0 -15 -3 -15 -7z"/>
</g>
</svg>
