<?xml version="1.0" standalone="no"?>
<!DOCTYPE svg PUBLIC "-//W3C//DTD SVG 20010904//EN"
 "http://www.w3.org/TR/2001/REC-SVG-20010904/DTD/svg10.dtd">
<svg version="1.0" xmlns="http://www.w3.org/2000/svg"
 width="107.000000pt" height="140.000000pt" viewBox="0 0 107.000000 140.000000"
 preserveAspectRatio="xMidYMid meet">
<metadata>
Created by potrace 1.16, written by Peter Selinger 2001-2019
</metadata>
<g transform="translate(0.000000,140.000000) scale(0.100000,-0.100000)"
fill="#000000" stroke="none">
<path d="M300 712 c0 -214 2 -391 4 -393 2 -2 102 0 222 4 174 6 219 5 225 -5
5 -7 9 160 9 372 0 282 -3 381 -11 373 -8 -8 -10 -113 -8 -361 l4 -350 -210 5
c-115 3 -210 6 -211 7 0 0 1 160 4 354 l5 352 186 1 c102 1 200 4 216 8 28 6
27 7 -19 14 -27 4 -131 7 -232 7 l-184 0 0 -388z"/>
<path d="M380 990 c0 -22 5 -40 10 -40 6 0 10 18 10 40 0 22 -4 40 -10 40 -5
0 -10 -18 -10 -40z"/>
<path d="M450 996 c0 -45 16 -55 24 -15 9 45 8 49 -9 49 -10 0 -15 -10 -15
-34z"/>
<path d="M550 979 c0 -24 4 -38 10 -34 6 3 10 22 10 41 0 19 -4 34 -10 34 -5
0 -10 -18 -10 -41z"/>
<path d="M660 960 c0 -22 5 -40 10 -40 6 0 10 18 10 40 0 22 -4 40 -10 40 -5
0 -10 -18 -10 -40z"/>
<path d="M600 930 c0 -22 5 -40 10 -40 6 0 10 18 10 40 0 22 -4 40 -10 40 -5
0 -10 -18 -10 -40z"/>
<path d="M400 874 c0 -27 4 -43 10 -39 6 3 10 24 10 46 0 21 -4 39 -10 39 -5
0 -10 -21 -10 -46z"/>
<path d="M485 868 c-4 -9 -2 -31 3 -49 l9 -34 8 38 c8 40 -8 76 -20 45z"/>
<path d="M687 874 c-10 -11 -8 -74 2 -74 11 0 21 62 12 73 -4 4 -10 4 -14 1z"/>
<path d="M597 843 c-2 -5 -3 -15 -2 -23 1 -8 3 -23 3 -33 3 -32 22 -7 22 29 0
31 -13 46 -23 27z"/>
<path d="M370 689 c0 -24 4 -38 10 -34 6 3 10 22 10 41 0 19 -4 34 -10 34 -5
0 -10 -18 -10 -41z"/>
<path d="M440 680 c0 -22 5 -40 10 -40 6 0 10 18 10 40 0 22 -4 40 -10 40 -5
0 -10 -18 -10 -40z"/>
<path d="M560 673 c0 -41 16 -61 23 -31 11 38 8 58 -8 58 -10 0 -15 -10 -15
-27z"/>
<path d="M710 590 c0 -22 5 -40 10 -40 6 0 10 18 10 40 0 22 -4 40 -10 40 -5
0 -10 -18 -10 -40z"/>
<path d="M490 541 c0 -23 5 -41 10 -41 6 0 10 14 10 30 0 17 0 33 1 37 0 4 -4
9 -10 11 -7 2 -11 -12 -11 -37z"/>
<path d="M630 539 c0 -24 4 -38 10 -34 6 3 10 22 10 41 0 19 -4 34 -10 34 -5
0 -10 -18 -10 -41z"/>
<path d="M410 514 c0 -27 4 -43 10 -39 6 3 10 24 10 46 0 21 -4 39 -10 39 -5
0 -10 -21 -10 -46z"/>
<path d="M450 453 c0 -10 3 -29 7 -41 4 -18 8 -20 14 -10 15 22 11 68 -6 68
-8 0 -15 -8 -15 -17z"/>
<path d="M610 410 c0 -22 5 -40 10 -40 6 0 10 18 10 40 0 22 -4 40 -10 40 -5
0 -10 -18 -10 -40z"/>
</g>
</svg>
