<?xml version="1.0" standalone="no"?>
<!DOCTYPE svg PUBLIC "-//W3C//DTD SVG 20010904//EN"
 "http://www.w3.org/TR/2001/REC-SVG-20010904/DTD/svg10.dtd">
<svg version="1.0" xmlns="http://www.w3.org/2000/svg"
 width="135.000000pt" height="135.000000pt" viewBox="0 0 135.000000 135.000000"
 preserveAspectRatio="xMidYMid meet">
<metadata>
Created by potrace 1.16, written by Peter Selinger 2001-2019
</metadata>
<g transform="translate(0.000000,135.000000) scale(0.100000,-0.100000)"
fill="#000000" stroke="none">
<path d="M555 1035 c-101 -27 -180 -62 -177 -78 1 -8 -6 -17 -16 -19 -30 -8
-57 -123 -57 -238 0 -107 16 -155 96 -295 49 -87 62 -93 199 -101 80 -5 94 -3
235 41 82 25 153 49 156 53 12 13 59 282 59 336 0 30 -9 83 -20 118 l-20 64
-97 51 c-158 82 -245 99 -358 68z m248 -55 l37 -11 0 -64 0 -65 -35 0 -35 0 0
70 c0 58 -3 70 -16 70 -16 0 -16 -27 -12 -311 l6 -310 -25 -10 c-13 -5 -49 -9
-79 -9 l-54 0 7 320 6 320 -23 0 c-21 0 -22 -3 -18 -70 l4 -70 -33 0 -33 0 0
65 c0 36 3 65 8 65 4 1 30 7 57 15 55 16 174 14 238 -5z m-336 -607 c-31 -30
-117 206 -117 320 0 27 9 90 21 139 19 82 23 90 52 102 l32 13 8 -285 c4 -157
6 -287 4 -289z m467 560 c25 -11 40 -28 51 -56 33 -82 35 -124 14 -302 -11
-93 -21 -170 -22 -171 -1 0 -26 -6 -56 -11 l-54 -11 6 202 c4 110 7 238 7 284
0 46 4 82 10 82 5 0 25 -7 44 -17z m-366 -183 l3 -60 -36 0 c-43 0 -50 13 -41
75 7 43 9 45 39 45 l32 0 3 -60z m274 0 l3 -60 -37 0 -38 0 0 60 0 60 34 0 34
0 4 -60z m-270 -237 c2 -87 2 -159 2 -161 -1 -1 -20 0 -43 4 l-41 7 0 148 0
148 33 4 c17 2 35 5 39 5 4 1 8 -69 10 -155z m276 9 l3 -141 -42 -11 c-22 -6
-42 -10 -44 -8 -1 2 0 69 3 150 l5 147 26 4 c14 2 31 3 36 2 6 -1 11 -59 13
-143z"/>
</g>
</svg>
