<?xml version="1.0" standalone="no"?>
<!DOCTYPE svg PUBLIC "-//W3C//DTD SVG 20010904//EN"
 "http://www.w3.org/TR/2001/REC-SVG-20010904/DTD/svg10.dtd">
<svg version="1.0" xmlns="http://www.w3.org/2000/svg"
 width="231.000000pt" height="134.000000pt" viewBox="0 0 231.000000 134.000000"
 preserveAspectRatio="xMidYMid meet">
<metadata>
Created by potrace 1.16, written by Peter Selinger 2001-2019
</metadata>
<g transform="translate(0.000000,134.000000) scale(0.100000,-0.100000)"
fill="#000000" stroke="none">
<path d="M585 1033 c-63 -13 -208 -69 -213 -82 -3 -8 -13 -22 -22 -31 -27 -27
-54 -176 -48 -266 5 -70 11 -88 68 -201 47 -93 69 -127 89 -135 15 -7 90 -12
171 -12 138 -1 150 1 242 32 54 18 103 39 111 46 7 7 24 70 37 140 13 69 28
126 33 126 6 0 67 -33 136 -74 186 -109 319 -178 330 -172 5 3 14 -1 21 -8 9
-12 30 -2 128 62 153 100 342 234 342 243 0 10 -144 112 -312 222 -122 80
-149 93 -159 81 -6 -7 -15 -11 -20 -8 -11 6 -186 -85 -348 -181 -60 -36 -112
-65 -114 -65 -3 0 -11 24 -18 53 -23 96 -28 102 -129 155 -139 73 -234 95
-325 75z m208 -62 c41 -11 98 -29 125 -41 42 -18 52 -28 66 -63 32 -85 34
-128 13 -305 l-20 -169 -91 -23 c-124 -30 -259 -37 -365 -16 -47 8 -88 21 -92
28 -5 7 -22 55 -40 108 -42 128 -47 225 -17 339 l23 83 58 24 c136 57 219 66
340 35z m862 -78 c72 -44 174 -103 228 -132 53 -29 97 -56 97 -59 0 -4 -53
-36 -117 -72 -145 -81 -337 -199 -341 -210 -2 -4 -56 29 -121 74 -65 45 -162
108 -215 140 -53 32 -96 62 -96 66 0 4 57 44 128 88 70 44 165 107 212 140 47
32 87 56 90 52 3 -4 64 -44 135 -87z"/>
<path d="M585 815 c-22 -8 -41 -15 -41 -15 -1 0 -9 -15 -18 -34 -22 -46 -20
-114 3 -170 30 -68 53 -86 109 -86 66 0 164 32 173 57 13 35 21 132 15 168 -6
31 -15 39 -66 65 -66 33 -113 37 -175 15z m165 -29 c51 -18 62 -47 54 -136 -3
-41 -9 -79 -13 -83 -5 -4 -36 -15 -70 -23 -67 -15 -136 -7 -152 18 -14 21 -29
80 -29 114 0 69 11 92 49 108 44 18 113 19 161 2z"/>
<path d="M1350 683 l0 -28 152 7 c214 9 428 29 428 39 0 5 -130 9 -290 9
l-290 0 0 -27z"/>
</g>
</svg>
