<?xml version="1.0" standalone="no"?>
<!DOCTYPE svg PUBLIC "-//W3C//DTD SVG 20010904//EN"
 "http://www.w3.org/TR/2001/REC-SVG-20010904/DTD/svg10.dtd">
<svg version="1.0" xmlns="http://www.w3.org/2000/svg"
 width="132.000000pt" height="135.000000pt" viewBox="0 0 132.000000 135.000000"
 preserveAspectRatio="xMidYMid meet">
<metadata>
Created by potrace 1.16, written by Peter Selinger 2001-2019
</metadata>
<g transform="translate(0.000000,135.000000) scale(0.100000,-0.100000)"
fill="#000000" stroke="none">
<path d="M310 1035 c-8 -10 -9 -19 -4 -24 22 -21 276 -197 371 -258 l105 -67
-26 -23 c-14 -12 -120 -90 -236 -173 -115 -83 -210 -155 -210 -158 1 -19 19
-34 31 -26 33 20 286 211 370 279 51 41 97 75 102 75 6 0 46 -23 90 -50 43
-28 84 -49 89 -48 5 2 -25 28 -68 58 -43 30 -79 60 -80 65 -2 6 38 43 87 84
50 40 88 76 85 79 -3 2 -51 -29 -107 -71 l-101 -76 -181 131 c-100 72 -208
151 -239 175 -31 23 -59 43 -61 43 -3 0 -10 -7 -17 -15z"/>
</g>
</svg>
