<?xml version="1.0" standalone="no"?>
<!DOCTYPE svg PUBLIC "-//W3C//DTD SVG 20010904//EN"
 "http://www.w3.org/TR/2001/REC-SVG-20010904/DTD/svg10.dtd">
<svg version="1.0" xmlns="http://www.w3.org/2000/svg"
 width="169.000000pt" height="235.000000pt" viewBox="0 0 169.000000 235.000000"
 preserveAspectRatio="xMidYMid meet">
<metadata>
Created by potrace 1.16, written by Peter Selinger 2001-2019
</metadata>
<g transform="translate(0.000000,235.000000) scale(0.100000,-0.100000)"
fill="#000000" stroke="none">
<path d="M1094 2039 c-3 -6 8 -30 25 -54 l30 -42 -142 -114 c-78 -62 -144
-114 -146 -116 -3 -2 2 -10 10 -18 12 -12 32 2 149 105 74 66 138 118 141 117
4 -1 50 -60 103 -130 l96 -128 -54 -67 c-29 -37 -77 -101 -106 -142 -30 -41
-55 -77 -56 -79 -2 -2 -66 46 -143 107 -106 84 -142 108 -150 98 -7 -9 12 -29
77 -78 48 -36 113 -83 145 -103 55 -36 57 -39 42 -59 -25 -34 -28 -47 -16 -59
6 -6 12 -9 14 -6 16 19 182 259 220 317 48 73 48 74 31 100 -57 91 -249 362
-255 362 -4 0 -11 -5 -15 -11z"/>
<path d="M456 1802 c-3 -5 -37 -21 -75 -36 -41 -16 -71 -34 -71 -42 0 -21 20
-17 84 20 l59 33 58 -23 c67 -27 93 -31 64 -8 -35 27 -114 64 -119 56z"/>
<path d="M617 1758 c-7 -24 5 -253 15 -265 8 -10 19 -8 51 9 76 38 177 100
177 109 0 9 -48 -10 -144 -58 -37 -19 -70 -32 -73 -29 -3 2 -1 50 2 106 7 88
10 100 24 94 21 -8 184 -64 188 -64 2 0 3 4 3 9 0 8 -209 101 -228 101 -6 0
-12 -6 -15 -12z"/>
<path d="M454 1719 c-3 -6 -2 -14 2 -19 14 -12 126 -51 132 -45 7 7 5 9 -65
44 -41 20 -64 27 -69 20z"/>
<path d="M1010 1693 c0 -21 3 -63 7 -93 8 -73 21 -40 22 58 1 58 -2 72 -14 72
-11 0 -15 -11 -15 -37z"/>
<path d="M1091 1658 c1 -96 13 -131 22 -64 12 85 9 136 -8 136 -12 0 -15 -14
-14 -72z"/>
<path d="M375 1675 c-33 -14 -61 -25 -62 -25 -5 0 -3 -30 2 -30 13 0 135 65
135 72 0 12 -10 10 -75 -17z"/>
<path d="M450 1616 c0 -12 59 -43 118 -61 45 -13 20 13 -42 44 -72 35 -76 36
-76 17z"/>
<path d="M366 1570 c-59 -23 -76 -37 -54 -45 16 -6 75 19 113 49 28 22 3 20
-59 -4z"/>
<path d="M456 1553 c-14 -14 -4 -25 40 -43 64 -28 99 -36 90 -21 -10 16 -122
71 -130 64z"/>
<path d="M367 1497 c-32 -13 -58 -26 -58 -30 1 -4 1 -11 1 -17 0 -5 29 5 65
22 36 18 65 36 65 40 0 11 -8 10 -73 -15z"/>
<path d="M1111 1061 c-11 -7 -8 -17 17 -52 35 -46 34 -52 -8 -74 l-29 -15 -42
70 c-23 38 -48 70 -55 70 -22 0 -17 -14 27 -85 56 -89 40 -105 -30 -30 -36 38
-58 54 -69 50 -12 -4 -2 -19 42 -64 l57 -58 -68 -43 -68 -43 -165 7 c-91 3
-222 9 -293 12 -126 7 -127 7 -127 -15 l0 -22 169 7 169 7 -5 -24 -4 -24 -165
3 c-149 3 -164 2 -164 -14 0 -15 15 -16 165 -12 l165 4 0 -23 0 -23 -166 0
c-128 0 -165 -3 -161 -12 3 -10 44 -12 165 -11 161 2 162 2 162 -20 0 -22 0
-22 -165 -19 -149 3 -165 2 -165 -14 0 -15 15 -16 164 -12 159 3 165 3 170
-17 3 -11 6 -25 6 -30 0 -7 -58 -9 -170 -7 -156 4 -170 3 -170 -13 0 -16 19
-17 285 -10 l285 7 133 -67 c72 -37 134 -70 136 -72 3 -2 -5 -17 -17 -33 -27
-36 -27 -40 -4 -40 19 0 29 12 180 233 l95 139 -16 31 c-13 28 -227 341 -245
359 -4 4 -13 3 -21 -1z m163 -251 c63 -85 94 -135 89 -143 -11 -17 -193 -260
-203 -271 -8 -8 -283 145 -295 164 -3 5 -2 47 1 93 l7 85 85 56 85 55 59 -54
c89 -83 101 -73 42 33 l-37 66 27 23 c15 13 30 23 35 23 4 0 51 -59 105 -130z
m-154 13 c25 -35 27 -43 11 -28 -30 26 -65 75 -53 75 5 0 24 -21 42 -47z
m-285 -173 l0 -113 -90 2 c-49 1 -90 3 -90 4 0 1 1 50 3 109 l3 107 77 3 c42
2 82 3 87 3 6 -1 10 -47 10 -115z"/>
</g>
</svg>
