<?xml version="1.0" standalone="no"?>
<!DOCTYPE svg PUBLIC "-//W3C//DTD SVG 20010904//EN"
 "http://www.w3.org/TR/2001/REC-SVG-20010904/DTD/svg10.dtd">
<svg version="1.0" xmlns="http://www.w3.org/2000/svg"
 width="135.000000pt" height="135.000000pt" viewBox="0 0 135.000000 135.000000"
 preserveAspectRatio="xMidYMid meet">
<metadata>
Created by potrace 1.16, written by Peter Selinger 2001-2019
</metadata>
<g transform="translate(0.000000,135.000000) scale(0.100000,-0.100000)"
fill="#000000" stroke="none">
<path d="M540 1031 c-103 -29 -165 -57 -162 -74 1 -8 -6 -17 -16 -19 -31 -8
-56 -115 -57 -238 l0 -105 57 -115 c32 -63 64 -123 72 -134 8 -10 41 -25 73
-32 97 -23 169 -18 290 20 59 19 127 39 150 45 48 13 44 3 79 186 29 157 28
218 -5 305 -22 55 -23 55 -119 103 -166 81 -236 93 -362 58z m253 -50 c41 -11
98 -30 126 -41 47 -21 51 -25 70 -83 25 -74 26 -144 3 -322 l-17 -130 -65 -13
c-36 -7 -103 -22 -149 -34 -64 -16 -100 -19 -150 -14 -62 6 -168 29 -178 39
-2 3 -20 52 -40 108 -47 138 -52 230 -21 348 l23 83 58 24 c136 57 219 66 340
35z"/>
<path d="M597 918 c12 -78 7 -196 -11 -258 -15 -53 -15 -60 8 -168 36 -171 52
-161 20 11 -15 83 -15 94 1 175 27 135 21 292 -12 292 -12 0 -14 -8 -6 -52z"/>
<path d="M726 904 c12 -93 7 -178 -13 -242 -15 -50 -15 -58 7 -165 13 -62 27
-116 32 -121 11 -14 10 -1 -8 120 -15 97 -15 111 0 187 24 124 18 275 -12 285
-11 3 -12 -9 -6 -64z"/>
</g>
</svg>
