<?xml version="1.0" standalone="no"?>
<!DOCTYPE svg PUBLIC "-//W3C//DTD SVG 20010904//EN"
 "http://www.w3.org/TR/2001/REC-SVG-20010904/DTD/svg10.dtd">
<svg version="1.0" xmlns="http://www.w3.org/2000/svg"
 width="194.000000pt" height="144.000000pt" viewBox="0 0 194.000000 144.000000"
 preserveAspectRatio="xMidYMid meet">
<metadata>
Created by potrace 1.16, written by Peter Selinger 2001-2019
</metadata>
<g transform="translate(0.000000,144.000000) scale(0.100000,-0.100000)"
fill="#000000" stroke="none">
<path d="M311 1113 c-11 -25 -10 -30 12 -48 13 -11 64 -54 113 -95 49 -41 102
-85 118 -98 16 -12 27 -24 25 -26 -2 -2 -50 -27 -106 -56 -124 -62 -131 -79
-50 -114 28 -13 78 -32 110 -42 31 -10 57 -20 57 -24 0 -3 -18 -24 -41 -45
-22 -22 -76 -79 -120 -127 -76 -82 -79 -87 -67 -113 12 -26 14 -27 73 -20 238
26 424 74 570 144 105 52 305 177 305 193 0 4 -13 2 -30 -7 l-30 -15 7 32 c3
18 10 37 14 42 12 14 11 29 -1 21 -6 -4 -10 5 -10 19 0 18 5 26 18 26 16 1 16
1 0 14 -19 14 -26 62 -8 51 6 -3 10 -1 10 4 0 6 -4 11 -10 11 -5 0 -10 16 -10
36 0 28 3 35 15 30 8 -3 15 -1 15 4 0 13 -141 84 -258 132 -175 70 -345 98
-593 98 l-116 0 -12 -27z m319 -64 l0 -41 -41 5 c-49 6 -81 -1 -76 -17 4 -12
8 -13 72 -15 l45 -1 0 -60 c0 -33 -4 -60 -9 -60 -6 0 -43 30 -83 68 -40 37
-97 88 -127 115 l-53 47 136 0 136 0 0 -41z m120 -4 c0 -34 -1 -35 -40 -35
-39 0 -40 1 -40 35 0 34 1 35 40 35 39 0 40 -1 40 -35z m108 9 c13 -4 17 -64
3 -64 -5 0 -23 3 -40 6 -27 6 -31 10 -31 40 0 32 2 34 28 28 15 -3 33 -7 40
-10z m115 -31 c4 -2 7 -17 7 -33 0 -28 0 -28 -40 -18 -35 9 -40 14 -40 40 0
28 2 29 33 23 17 -4 35 -9 40 -12z m105 -34 c16 -6 22 -17 22 -40 0 -26 -3
-30 -17 -24 -10 4 -30 12 -45 17 -22 8 -28 16 -28 40 0 31 2 31 68 7z m-336
-14 c9 -4 12 -19 10 -50 -4 -39 -7 -45 -27 -45 -13 0 -30 -3 -39 -6 -13 -5
-16 3 -16 50 0 55 0 56 29 56 16 0 35 -2 43 -5z m97 -11 c29 -6 31 -9 31 -50
0 -47 -7 -51 -57 -38 -19 5 -23 13 -23 50 0 47 1 47 49 38z m389 -67 l3 -36
-50 22 c-47 19 -51 24 -51 54 l0 33 48 -19 c43 -17 47 -22 50 -54z m-255 36
c10 -6 9 -83 -2 -83 -5 0 -23 3 -40 6 -29 6 -31 9 -31 51 l0 45 33 -7 c17 -4
35 -9 40 -12z m92 -27 c31 -13 35 -19 35 -51 0 -30 -3 -35 -17 -31 -10 3 -30
8 -45 12 -25 5 -28 11 -28 45 0 43 5 45 55 25z m138 -53 c18 -9 27 -21 27 -38
0 -29 2 -28 -56 -14 -41 11 -44 13 -44 46 0 31 2 34 23 27 12 -3 34 -13 50
-21z m-443 -52 l0 -39 -45 -4 c-32 -2 -45 1 -45 10 0 7 5 10 10 7 14 -8 13 1
-2 25 -16 26 1 40 50 40 31 0 32 -2 32 -39z m94 33 c23 -9 22 -64 -1 -64 -10
0 -28 -3 -40 -6 -21 -6 -23 -3 -23 35 0 37 3 41 24 41 13 0 31 -3 40 -6z m102
-14 c19 0 24 -5 24 -25 0 -22 -4 -25 -40 -25 -38 0 -40 1 -40 31 0 24 3 30 16
25 9 -3 27 -6 40 -6z m-328 -65 c-5 -4 -168 -22 -168 -18 0 2 37 22 83 44 l82
40 3 -32 c2 -17 2 -32 0 -34z m458 45 c8 0 14 -7 14 -16 0 -24 -84 -15 -88 10
-4 16 0 18 28 12 18 -3 39 -6 46 -6z m84 -20 c12 -8 11 -10 -7 -10 -12 0 -25
5 -28 10 -8 13 15 13 35 0z m0 -30 c-20 -13 -40 -13 -40 0 0 6 12 10 28 10 21
0 24 -2 12 -10z m-190 -29 c0 -25 -5 -30 -40 -39 l-40 -10 0 33 c0 34 2 36 68
44 7 0 12 -11 12 -28z m120 20 c0 -13 -9 -18 -53 -26 -33 -7 -37 -5 -37 14 0
18 6 21 45 21 25 0 45 -4 45 -9z m130 -21 c0 -27 -6 -33 -46 -50 -25 -11 -48
-20 -50 -20 -2 0 -4 15 -4 33 0 29 4 34 43 49 58 22 57 22 57 -12z m-360 -20
c0 -22 -4 -40 -9 -40 -5 0 -23 -3 -40 -6 l-31 -6 0 46 0 46 40 0 40 0 0 -40z
m-110 -15 l0 -45 -45 0 c-49 0 -56 11 -28 42 9 10 13 21 9 25 -4 4 -11 1 -16
-7 -8 -12 -10 -10 -10 8 0 20 5 22 45 22 l45 0 0 -45z m-130 0 c0 -19 -4 -35
-8 -35 -10 0 -118 36 -142 47 -14 6 47 17 123 21 25 2 27 -1 27 -33z m468 -21
c-3 -31 -8 -37 -46 -54 l-43 -20 3 42 c3 37 7 43 38 54 50 18 52 18 48 -22z
m142 -23 c0 -25 -8 -34 -55 -60 -30 -17 -56 -31 -58 -31 -2 0 -1 16 1 35 4 31
11 39 51 60 59 31 61 31 61 -4z m-260 0 c0 -11 3 -27 6 -35 4 -12 -4 -20 -30
-31 -51 -22 -56 -19 -56 24 0 34 3 39 33 49 46 14 47 14 47 -7z m-100 -63 c0
-23 -6 -29 -37 -37 -53 -15 -53 -15 -53 27 0 36 2 39 38 48 42 11 52 4 52 -38z
m-241 -45 c1 -18 -6 -23 -33 -28 -66 -13 -69 -4 -23 53 l42 52 6 -27 c4 -16 7
-38 8 -50z m121 27 c0 -32 -4 -40 -19 -40 -10 0 -33 -3 -50 -6 l-31 -6 0 46 0
46 50 0 50 0 0 -40z m350 10 c0 -30 -20 -47 -77 -64 -21 -7 -23 -4 -23 26 0
29 5 35 38 50 54 23 62 22 62 -12z m-120 -54 c0 -30 -4 -35 -46 -51 -25 -9
-47 -15 -50 -12 -3 3 -2 21 1 40 5 28 13 37 38 45 52 16 57 15 57 -22z m-110
-35 c0 -35 -3 -40 -31 -50 -50 -17 -67 -14 -64 12 1 12 3 29 4 39 1 13 40 31
84 37 4 1 7 -17 7 -38z m-294 -10 l49 3 3 -47 c2 -26 -1 -47 -6 -47 -5 0 -55
-7 -112 -15 -56 -9 -105 -14 -107 -11 -3 3 21 34 53 70 33 36 61 61 65 55 3
-6 28 -9 55 -8z m184 -21 c0 -37 -2 -40 -37 -49 -67 -19 -73 -16 -73 33 0 48
5 52 78 55 31 1 32 0 32 -39z"/>
<path d="M1464 980 c-155 -79 -163 -85 -147 -101 9 -9 42 6 135 60 139 82 164
98 156 106 -3 3 -68 -26 -144 -65z"/>
<path d="M1326 675 c-4 -11 3 -19 22 -26 199 -79 294 -111 290 -98 -3 10 -231
116 -285 133 -14 4 -23 2 -27 -9z"/>
</g>
</svg>
