<?xml version="1.0" standalone="no"?>
<!DOCTYPE svg PUBLIC "-//W3C//DTD SVG 20010904//EN"
 "http://www.w3.org/TR/2001/REC-SVG-20010904/DTD/svg10.dtd">
<svg version="1.0" xmlns="http://www.w3.org/2000/svg"
 width="194.000000pt" height="144.000000pt" viewBox="0 0 194.000000 144.000000"
 preserveAspectRatio="xMidYMid meet">
<metadata>
Created by potrace 1.16, written by Peter Selinger 2001-2019
</metadata>
<g transform="translate(0.000000,144.000000) scale(0.100000,-0.100000)"
fill="#000000" stroke="none">
<path d="M311 1113 c-11 -25 -10 -30 12 -48 13 -11 64 -54 113 -95 49 -41 102
-85 118 -98 16 -12 27 -24 25 -26 -2 -2 -50 -27 -106 -56 -124 -62 -131 -79
-50 -114 28 -13 78 -32 110 -42 31 -10 57 -20 57 -24 0 -3 -18 -24 -41 -45
-22 -22 -76 -79 -120 -127 -76 -82 -79 -87 -67 -113 12 -26 14 -27 73 -20 334
37 537 105 773 260 97 64 138 104 71 69 -30 -15 -31 -15 -25 1 3 9 6 41 6 71
0 45 3 54 18 54 16 1 16 1 0 14 -24 18 -27 141 -3 132 8 -3 15 -1 15 4 0 13
-141 84 -258 132 -175 70 -345 98 -593 98 l-116 0 -12 -27z m319 -138 c0 -65
-4 -115 -9 -115 -6 0 -43 30 -83 68 -40 37 -97 88 -127 115 l-53 47 136 0 136
0 0 -115z m120 5 c0 -99 0 -100 -24 -100 -13 0 -31 -3 -40 -6 -14 -5 -16 7
-16 100 l0 106 40 0 40 0 0 -100z m108 74 c14 -4 18 -184 3 -184 -5 0 -23 3
-40 6 l-31 7 0 93 0 94 28 -6 c15 -3 33 -7 40 -10z m96 -24 c25 -9 26 -12 26
-95 0 -47 -4 -85 -9 -85 -5 0 -23 3 -40 6 l-31 7 0 88 c0 96 2 99 54 79z m124
-41 c20 -8 22 -15 22 -89 0 -73 -2 -81 -17 -76 -10 3 -30 8 -45 12 -28 6 -28
7 -28 91 0 93 -5 89 68 62z m150 -128 c2 -39 0 -71 -3 -71 -3 0 -26 5 -51 11
l-44 11 0 79 0 79 48 -19 47 -19 3 -71z m-468 -121 l0 -100 -45 0 c-49 0 -56
11 -28 42 9 10 13 21 9 25 -4 4 -11 1 -16 -7 -7 -11 -10 0 -10 33 0 30 4 46
10 42 14 -8 13 1 -2 25 -16 26 1 40 50 40 l32 0 0 -100z m94 94 c13 -5 16 -23
16 -90 0 -46 -4 -84 -9 -84 -5 0 -23 -3 -40 -6 l-31 -6 0 96 c0 95 0 96 24 96
13 0 31 -3 40 -6z m102 -14 c23 0 24 -3 24 -64 l0 -64 -40 -10 -40 -10 0 80
c0 69 2 79 16 74 9 -3 27 -6 40 -6z m-330 -167 c-7 -7 -196 58 -196 67 0 3 44
28 98 53 l97 47 3 -81 c2 -45 1 -84 -2 -86z m460 147 c9 0 14 -12 14 -34 0
-40 -2 -42 -52 -51 l-38 -7 1 52 2 52 30 -6 c16 -3 36 -6 43 -6z m128 -28 c7
-4 -62 -31 -81 -32 -2 0 -3 11 -3 25 0 24 2 26 38 19 20 -4 41 -9 46 -12z m16
-54 c0 -18 3 -49 6 -69 6 -35 5 -37 -50 -67 -31 -18 -57 -32 -58 -32 -2 0 -2
37 0 83 l3 83 42 16 c58 22 57 22 57 -14z m-130 -45 c0 -16 3 -51 6 -80 l7
-51 -41 -21 c-66 -34 -68 -32 -62 66 l5 86 35 13 c49 18 50 17 50 -13z m-116
-44 c3 -17 6 -57 6 -89 l0 -57 -46 -18 c-25 -9 -47 -16 -48 -14 -2 2 -1 45 2
95 l4 92 32 10 c17 5 34 10 37 11 4 1 9 -13 13 -30z m-104 -106 l0 -81 -31
-11 c-47 -16 -68 -14 -64 7 2 9 4 51 4 93 l1 75 38 10 c24 6 39 6 44 -1 4 -5
8 -47 8 -92z m-241 -55 c0 -49 -3 -88 -7 -88 -5 0 -55 -7 -112 -15 -56 -9
-105 -14 -108 -11 -2 3 24 36 58 73 34 37 83 94 109 126 46 57 46 57 52 30 4
-16 7 -67 8 -115z m124 65 c12 -120 12 -121 -30 -132 -75 -21 -73 -23 -73 94
l0 105 49 0 48 0 6 -67z"/>
<path d="M1464 980 c-155 -79 -163 -85 -147 -101 9 -9 42 6 135 60 139 82 164
98 156 106 -3 3 -68 -26 -144 -65z"/>
<path d="M1326 675 c-4 -11 3 -19 22 -26 199 -79 294 -111 290 -98 -3 10 -231
116 -285 133 -14 4 -23 2 -27 -9z"/>
</g>
</svg>
