<?xml version="1.0" standalone="no"?>
<!DOCTYPE svg PUBLIC "-//W3C//DTD SVG 20010904//EN"
 "http://www.w3.org/TR/2001/REC-SVG-20010904/DTD/svg10.dtd">
<svg version="1.0" xmlns="http://www.w3.org/2000/svg"
 width="188.000000pt" height="119.000000pt" viewBox="0 0 188.000000 119.000000"
 preserveAspectRatio="xMidYMid meet">
<metadata>
Created by potrace 1.16, written by Peter Selinger 2001-2019
</metadata>
<g transform="translate(0.000000,119.000000) scale(0.100000,-0.100000)"
fill="#000000" stroke="none">
<path d="M310 866 c0 -22 6 -25 43 -30 66 -8 337 -26 510 -33 l157 -6 0 -60 0
-60 -187 6 c-104 4 -261 10 -350 14 -143 5 -163 4 -163 -9 0 -9 6 -18 13 -21
8 -3 165 -8 350 -12 l337 -8 0 -30 0 -29 -360 3 c-275 3 -360 1 -360 -8 0 -6
4 -14 8 -17 5 -3 167 -7 360 -8 l352 -3 0 -26 0 -26 -142 -6 c-79 -4 -239 -7
-356 -7 -198 0 -213 -1 -210 -17 3 -17 24 -18 298 -15 162 2 321 5 353 8 l58
6 -3 -48 -3 -49 -357 -14 -358 -14 0 -24 c0 -22 3 -23 84 -23 160 0 732 40
1111 78 l70 7 7 50 c3 28 7 121 7 208 l1 157 -29 0 c-38 0 -965 68 -1101 80
-144 14 -140 14 -140 -14z m834 -119 c-3 -84 0 -78 -46 -75 -27 2 -43 8 -42
16 1 6 2 33 3 60 l1 47 43 -3 42 -4 -1 -41z m96 -17 l0 -60 -35 0 -35 0 0 60
0 60 35 0 35 0 0 -60z m100 0 l0 -60 -35 0 -35 0 0 60 0 60 35 0 35 0 0 -60z
m90 -5 l0 -65 -29 0 c-39 0 -43 8 -35 74 6 53 8 56 35 56 29 0 29 0 29 -65z
m110 -5 l0 -60 -40 0 -40 0 0 60 0 60 40 0 40 0 0 -60z m-400 -106 l0 -35 -42
3 c-32 2 -44 8 -46 21 -7 35 6 47 48 47 39 0 40 -1 40 -36z m100 1 c0 -33 -2
-35 -35 -35 -33 0 -35 2 -35 35 0 33 2 35 35 35 33 0 35 -2 35 -35z m100 -5
c0 -28 -3 -30 -35 -30 -32 0 -35 2 -35 30 0 28 3 30 35 30 32 0 35 -2 35 -30z
m90 0 c0 -28 -3 -30 -35 -30 -32 0 -35 2 -35 30 0 28 3 30 35 30 32 0 35 -2
35 -30z m110 0 c0 -28 -2 -30 -40 -30 -38 0 -40 2 -40 30 0 28 2 30 40 30 38
0 40 -2 40 -30z m-394 -82 c3 -27 1 -28 -47 -28 -48 0 -49 1 -49 31 0 30 1 30
46 27 43 -3 47 -5 50 -30z m94 2 c0 -28 -3 -30 -35 -30 -32 0 -35 2 -35 30 0
28 3 30 35 30 32 0 35 -2 35 -30z m100 0 c0 -27 -3 -30 -33 -30 -41 0 -45 4
-39 35 4 21 10 25 38 25 31 0 34 -3 34 -30z m90 0 c0 -28 -3 -30 -35 -30 -32
0 -35 2 -35 30 0 28 3 30 35 30 32 0 35 -2 35 -30z m112 5 c7 -32 3 -35 -50
-35 -36 0 -43 3 -38 16 3 9 6 22 6 30 0 10 12 14 39 14 33 0 39 -3 43 -25z m6
-92 l3 -41 -50 -3 -51 -4 0 42 c0 41 1 42 38 46 55 5 57 4 60 -40z m-208 -8
l0 -45 -40 0 c-40 0 -40 0 -40 38 0 47 4 52 47 52 33 0 33 -1 33 -45z m94 23
c3 -13 6 -33 6 -45 0 -20 -5 -23 -43 -23 l-42 0 3 45 c4 43 5 45 37 45 25 0
34 -5 39 -22z m-284 -33 l0 -45 -55 0 -55 0 0 45 0 45 55 0 55 0 0 -45z m92 4
c2 -22 2 -42 -1 -45 -2 -2 -22 -4 -43 -4 l-38 0 0 45 0 45 39 0 c38 0 39 -1
43 -41z"/>
</g>
</svg>
