<?xml version="1.0" standalone="no"?>
<!DOCTYPE svg PUBLIC "-//W3C//DTD SVG 20010904//EN"
 "http://www.w3.org/TR/2001/REC-SVG-20010904/DTD/svg10.dtd">
<svg version="1.0" xmlns="http://www.w3.org/2000/svg"
 width="177.000000pt" height="285.000000pt" viewBox="0 0 177.000000 285.000000"
 preserveAspectRatio="xMidYMid meet">
<metadata>
Created by potrace 1.16, written by Peter Selinger 2001-2019
</metadata>
<g transform="translate(0.000000,285.000000) scale(0.100000,-0.100000)"
fill="#000000" stroke="none">
<path d="M760 2505 c-40 -41 -48 -45 -92 -45 -61 0 -156 -32 -222 -74 -52 -34
-146 -127 -146 -146 0 -22 25 -7 88 51 64 60 66 61 81 41 61 -79 73 -92 82
-92 5 0 -9 28 -32 61 -46 68 -47 64 31 102 38 18 61 21 150 20 164 -2 367 -44
484 -99 l55 -26 58 35 c79 48 146 97 140 103 -3 3 -49 -20 -103 -50 -55 -31
-105 -56 -112 -56 -7 0 -36 12 -63 26 l-51 26 28 29 c38 40 23 48 -23 11 -31
-24 -42 -28 -62 -20 -14 5 -54 16 -90 24 -101 24 -98 21 -66 54 42 44 22 49
-26 6 -24 -23 -47 -35 -56 -32 -8 3 -26 6 -41 6 l-26 0 37 38 c20 21 37 41 37
45 0 16 -18 4 -60 -38z"/>
<path d="M340 2216 l0 -26 183 1 c178 0 182 -1 200 -23 50 -65 80 -99 84 -94
3 2 -8 24 -24 48 -48 70 -48 68 -11 68 27 -1 39 -8 66 -45 42 -58 62 -59 23
-1 l-31 44 123 4 c120 4 122 3 142 -22 46 -58 64 -75 70 -68 4 4 -7 24 -24 45
-17 21 -31 41 -31 45 0 5 20 8 43 8 42 0 46 -3 91 -61 57 -74 72 -72 22 3 -20
29 -32 54 -27 56 6 2 46 -8 91 -22 75 -24 152 -35 137 -19 -4 3 -46 19 -94 34
-88 29 -88 29 -433 34 -190 3 -402 8 -472 11 l-128 5 0 -25z"/>
<path d="M725 891 c-42 -58 -65 -81 -81 -81 -12 0 -36 -3 -55 -7 l-33 -6 24
39 c13 21 32 54 43 73 35 58 -1 30 -61 -48 -38 -50 -67 -77 -87 -83 -71 -22
-145 -51 -145 -58 0 -11 47 -4 145 21 74 19 117 23 240 23 163 1 252 -16 448
-82 48 -17 87 -27 87 -22 0 5 -5 10 -12 12 -7 3 -1 20 19 49 50 73 85 139 75
139 -5 0 -37 -38 -72 -84 l-62 -85 -52 21 c-28 11 -70 27 -93 35 l-41 14 50
79 c27 43 48 84 46 90 -2 6 -32 -28 -67 -75 -47 -62 -69 -84 -80 -80 -9 4 -28
9 -44 12 -15 3 -30 9 -32 14 -3 4 10 32 28 61 48 75 59 98 48 98 -5 0 -34 -34
-63 -75 l-53 -75 -67 3 c-38 1 -68 3 -68 4 0 1 18 31 41 67 60 96 43 100 -26
7z"/>
<path d="M601 716 c-59 -61 -95 -65 -230 -29 -21 5 -23 3 -19 -15 4 -15 2 -22
-8 -22 -24 0 -16 -14 31 -50 25 -19 57 -55 71 -80 15 -25 41 -63 57 -85 17
-22 32 -42 34 -44 2 -2 6 -2 9 2 4 3 -8 31 -25 62 -17 30 -28 55 -24 55 15 0
60 -45 96 -95 41 -59 77 -94 77 -76 0 7 -13 32 -30 56 -16 24 -30 46 -30 49 0
2 21 -2 48 -11 33 -11 65 -33 106 -75 32 -32 61 -57 63 -54 3 3 -10 27 -30 54
l-35 49 59 9 59 10 42 -44 c49 -50 97 -86 104 -79 3 3 -22 34 -55 70 l-61 64
44 17 45 17 72 -60 c40 -34 76 -61 81 -61 20 0 3 23 -57 76 l-65 57 41 25 c45
27 36 30 129 -45 77 -64 83 -52 10 22 -35 35 -62 66 -59 67 2 2 18 13 35 25
l31 22 29 -30 c42 -44 124 -103 132 -94 4 3 -25 35 -63 70 l-70 63 20 22 c25
28 21 27 -88 -34 -173 -95 -362 -157 -427 -140 -14 3 -38 8 -55 10 -44 6 -180
76 -260 135 -65 48 -68 51 -35 44 101 -19 138 -18 169 4 35 25 74 77 69 92 -2
5 -18 -6 -37 -25z"/>
</g>
</svg>
