<?xml version="1.0" standalone="no"?>
<!DOCTYPE svg PUBLIC "-//W3C//DTD SVG 20010904//EN"
 "http://www.w3.org/TR/2001/REC-SVG-20010904/DTD/svg10.dtd">
<svg version="1.0" xmlns="http://www.w3.org/2000/svg"
 width="181.000000pt" height="139.000000pt" viewBox="0 0 181.000000 139.000000"
 preserveAspectRatio="xMidYMid meet">
<metadata>
Created by potrace 1.16, written by Peter Selinger 2001-2019
</metadata>
<g transform="translate(0.000000,139.000000) scale(0.100000,-0.100000)"
fill="#000000" stroke="none">
<path d="M1068 1055 c-25 -19 -51 -41 -55 -50 -8 -14 -19 -15 -99 -4 -49 7
-90 14 -92 15 -2 1 4 14 14 28 9 15 15 29 12 31 -5 5 -68 -54 -68 -64 0 -5
-23 -11 -50 -15 -28 -4 -78 -15 -110 -25 -33 -11 -60 -16 -60 -12 0 3 9 21 21
40 37 61 13 57 -32 -5 -30 -42 -58 -69 -89 -84 -25 -12 -71 -37 -102 -56 -50
-31 -56 -38 -53 -63 5 -41 66 -158 113 -217 22 -28 43 -66 47 -85 8 -38 28
-80 57 -122 28 -40 32 -28 8 24 -19 44 -27 94 -12 87 116 -59 127 -62 234 -66
96 -4 108 -6 114 -24 6 -20 79 -78 97 -78 6 0 -3 15 -20 33 -35 37 -56 74 -46
80 5 2 29 10 54 16 l47 13 58 -46 c32 -25 60 -43 62 -41 6 5 -49 75 -59 75 -4
0 -13 8 -18 19 -9 16 -4 23 30 46 l41 27 59 -47 c70 -55 78 -40 13 26 l-47 47
24 31 c26 33 41 38 57 18 18 -22 102 -79 102 -69 0 4 -22 33 -50 62 -47 50
-49 55 -33 72 22 25 36 23 147 -18 123 -46 158 -40 54 9 -130 60 -128 56 -58
111 52 41 90 88 90 111 0 4 -23 -13 -51 -37 -65 -56 -111 -88 -124 -88 -5 0
-18 14 -28 31 l-17 31 42 39 c50 44 32 53 -27 14 -29 -20 -40 -23 -51 -14 -21
17 -17 30 23 71 20 21 34 40 32 43 -3 3 -28 -11 -55 -30 -54 -39 -53 -38 -73
-26 -12 8 -6 20 33 61 26 28 46 54 43 56 -9 9 -50 -16 -89 -54 -34 -32 -40
-34 -63 -24 l-26 12 19 28 c11 15 32 38 46 51 26 24 33 41 19 41 -5 0 -29 -16
-55 -35z m-303 -104 c-6 -10 64 -145 72 -137 2 2 -5 34 -16 71 -12 37 -21 69
-21 71 0 2 22 4 48 4 66 0 192 -33 254 -67 62 -34 158 -128 158 -155 0 -12
-27 -46 -62 -80 -143 -138 -278 -206 -425 -216 -78 -5 -85 -3 -155 30 -79 38
-175 117 -184 152 -3 12 0 34 5 49 6 15 8 34 4 43 -6 15 -7 15 -20 -2 -7 -10
-13 -27 -13 -38 -1 -25 -59 80 -60 107 0 12 19 27 62 47 l61 29 15 -27 c7 -15
20 -43 29 -64 l14 -36 -45 -42 c-49 -46 -50 -48 -37 -69 12 -19 32 -3 76 61
l32 48 -19 71 c-11 39 -16 74 -11 78 18 16 119 54 177 66 34 7 62 14 64 14 2
1 1 -3 -3 -8z"/>
<path d="M955 920 c-7 -12 55 -140 68 -140 5 0 6 8 3 18 -32 100 -43 126 -53
129 -6 2 -14 -1 -18 -7z"/>
<path d="M1071 756 c-8 -10 -3 -27 21 -72 36 -68 37 -69 43 -63 6 7 -34 137
-44 144 -5 2 -14 -1 -20 -9z"/>
<path d="M861 726 c-8 -10 -3 -27 21 -72 36 -68 37 -69 43 -63 6 7 -34 137
-44 144 -5 2 -14 -1 -20 -9z"/>
<path d="M702 707 c-7 -8 1 -36 30 -95 22 -46 42 -82 44 -79 7 7 -45 175 -55
182 -5 2 -13 -1 -19 -8z"/>
<path d="M951 686 c-11 -13 -8 -26 20 -80 18 -36 36 -63 40 -60 7 4 -23 112
-39 141 -7 12 -10 12 -21 -1z"/>
<path d="M731 391 c-11 -7 -8 -17 18 -50 28 -35 51 -52 51 -37 0 4 -51 96 -53
96 -1 0 -8 -4 -16 -9z"/>
</g>
</svg>
