<?xml version="1.0" standalone="no"?>
<!DOCTYPE svg PUBLIC "-//W3C//DTD SVG 20010904//EN"
 "http://www.w3.org/TR/2001/REC-SVG-20010904/DTD/svg10.dtd">
<svg version="1.0" xmlns="http://www.w3.org/2000/svg"
 width="162.000000pt" height="110.000000pt" viewBox="0 0 162.000000 110.000000"
 preserveAspectRatio="xMidYMid meet">
<metadata>
Created by potrace 1.16, written by Peter Selinger 2001-2019
</metadata>
<g transform="translate(0.000000,110.000000) scale(0.100000,-0.100000)"
fill="#000000" stroke="none">
<path d="M780 766 c-41 -18 -98 -45 -127 -59 -48 -25 -63 -27 -175 -28 -68 -1
-134 -4 -148 -8 -44 -12 -36 -43 27 -104 99 -96 175 -144 263 -167 25 -6 91
-32 148 -56 56 -25 108 -44 114 -42 7 3 -23 25 -67 51 -75 43 -78 46 -55 55
95 35 95 35 129 17 73 -37 192 -84 189 -74 -2 6 -45 35 -95 63 l-91 52 51 32
c29 17 68 42 86 54 19 12 31 17 27 10 -5 -9 25 -28 106 -66 133 -62 148 -68
148 -57 0 9 -103 72 -189 116 -52 26 -53 27 -32 41 11 8 21 20 21 25 0 5 -19
-3 -42 -19 -72 -49 -194 -112 -216 -112 -12 0 -22 -4 -22 -10 0 -10 -108 -45
-116 -38 -2 3 34 26 81 51 82 46 108 67 85 67 -7 0 -68 -27 -137 -60 l-126
-60 -43 19 c-71 32 -241 157 -230 169 9 8 711 20 721 12 11 -9 255 109 255
123 0 11 -26 3 -150 -49 -117 -49 -128 -50 -358 -37 l-121 6 77 44 c76 43 116
73 97 73 -6 0 -44 -15 -85 -34z"/>
</g>
</svg>
