<?xml version="1.0" standalone="no"?>
<!DOCTYPE svg PUBLIC "-//W3C//DTD SVG 20010904//EN"
 "http://www.w3.org/TR/2001/REC-SVG-20010904/DTD/svg10.dtd">
<svg version="1.0" xmlns="http://www.w3.org/2000/svg"
 width="181.000000pt" height="135.000000pt" viewBox="0 0 181.000000 135.000000"
 preserveAspectRatio="xMidYMid meet">
<metadata>
Created by potrace 1.16, written by Peter Selinger 2001-2019
</metadata>
<g transform="translate(0.000000,135.000000) scale(0.100000,-0.100000)"
fill="#000000" stroke="none">
<path d="M890 1026 c-30 -12 -80 -36 -110 -52 -52 -27 -62 -29 -174 -29 -112
0 -119 -1 -127 -22 -7 -19 5 -31 99 -102 59 -44 120 -91 137 -104 l30 -25
-216 6 -216 5 -6 -29 c-6 -25 0 -35 46 -77 108 -101 254 -183 343 -193 28 -4
75 0 112 9 34 8 62 11 62 7 0 -7 196 -102 239 -115 48 -15 9 15 -97 75 l-106
60 33 11 c45 16 195 89 259 127 28 17 52 28 52 23 0 -11 251 -123 259 -115 7
7 1 10 -138 87 l-105 59 -131 -65 c-152 -77 -290 -126 -378 -133 -49 -5 -74
-2 -118 15 -106 40 -315 195 -288 212 8 5 106 9 218 9 l204 0 43 -36 c60 -48
56 -28 -6 30 l-49 46 25 70 c15 40 23 77 19 87 -9 24 -17 8 -40 -80 l-18 -68
-36 34 c-20 19 -67 60 -105 92 l-70 58 130 -6 c139 -6 201 -20 299 -69 33 -17
61 -32 63 -33 1 -1 -6 -36 -18 -76 -23 -83 -23 -89 -12 -89 5 0 19 33 32 74
l23 75 39 -20 c42 -22 45 -31 23 -103 -17 -56 -18 -66 -7 -66 4 0 18 29 30 65
l24 65 42 -24 43 -24 54 30 c139 78 193 112 183 115 -11 4 -228 -90 -249 -107
-7 -6 -41 11 -95 47 -100 66 -269 149 -322 158 -21 4 -38 10 -38 14 0 3 37 26
81 51 118 66 133 90 29 46z"/>
<path d="M856 852 c-6 -10 -36 -127 -36 -143 0 -25 17 6 39 69 11 34 21 67 21
72 0 12 -17 13 -24 2z"/>
<path d="M926 768 c-25 -89 -29 -108 -19 -108 11 0 64 146 56 154 -14 14 -22
3 -37 -46z"/>
</g>
</svg>
