<?xml version="1.0" standalone="no"?>
<!DOCTYPE svg PUBLIC "-//W3C//DTD SVG 20010904//EN"
 "http://www.w3.org/TR/2001/REC-SVG-20010904/DTD/svg10.dtd">
<svg version="1.0" xmlns="http://www.w3.org/2000/svg"
 width="119.000000pt" height="255.000000pt" viewBox="0 0 119.000000 255.000000"
 preserveAspectRatio="xMidYMid meet">
<metadata>
Created by potrace 1.16, written by Peter Selinger 2001-2019
</metadata>
<g transform="translate(0.000000,255.000000) scale(0.100000,-0.100000)"
fill="#000000" stroke="none">
<path d="M735 2177 c-98 -56 -411 -252 -433 -272 -8 -7 13 -35 23 -31 8 3 25
-12 39 -34 l25 -39 -32 -3 c-64 -6 -45 -31 110 -144 185 -135 384 -265 398
-261 22 8 32 846 10 854 -6 2 -69 -30 -140 -70z m113 -262 c-2 -1 -103 1 -226
4 l-223 6 223 147 223 147 3 -151 c1 -83 1 -152 0 -153z m2 -70 l0 -55 -44 0
c-42 0 -46 2 -75 50 l-30 49 57 4 c31 2 65 4 75 5 14 2 17 -7 17 -53z m-313
-8 l23 -37 -30 0 c-24 0 -33 7 -50 40 -25 50 -25 50 7 41 15 -4 37 -23 50 -44z
m73 9 c16 -25 30 -46 30 -49 0 -2 -13 -2 -29 1 -26 4 -36 16 -69 85 -2 4 5 7
17 7 13 0 31 -16 51 -44z m90 0 c16 -25 30 -47 30 -50 0 -3 -13 -6 -29 -6 -24
0 -34 8 -55 44 -32 55 -32 56 -1 56 17 0 32 -12 55 -44z m-247 -6 l26 -40 -33
0 c-27 0 -36 6 -55 40 l-22 40 29 0 c22 0 34 -9 55 -40z m305 -82 c9 -9 12 -9
12 0 0 7 15 12 39 12 l38 0 7 -176 c4 -97 6 -178 3 -180 -2 -2 -108 74 -236
170 l-232 175 145 -1 c81 -1 149 2 153 5 11 11 58 8 71 -5z"/>
<path d="M728 1086 c-231 -133 -429 -267 -424 -285 3 -9 6 -40 7 -69 l3 -53
143 -105 c210 -153 403 -278 413 -268 5 5 10 198 12 429 3 367 1 420 -12 422
-8 1 -72 -31 -142 -71z m122 -107 l0 -151 -224 4 c-123 1 -222 5 -219 8 11 11
429 289 436 289 4 1 7 -67 7 -150z m0 -225 l0 -56 -107 7 c-60 4 -109 8 -111
10 -1 1 0 21 4 43 l6 41 52 4 c28 2 75 4 104 5 l52 2 0 -56z m-466 15 c10 -51
8 -59 -19 -59 -23 0 -25 4 -25 45 0 37 3 45 19 45 13 0 20 -10 25 -31z m76 9
c0 -13 3 -33 6 -45 6 -20 3 -23 -25 -23 -30 0 -31 1 -31 45 0 41 2 45 25 45
19 0 25 -5 25 -22z m70 -7 c0 -16 3 -36 6 -45 5 -12 0 -16 -20 -16 -24 0 -26
3 -26 45 0 38 3 45 20 45 15 0 20 -7 20 -29z m80 -16 c0 -41 -2 -45 -25 -45
-23 0 -25 4 -25 45 0 41 2 45 25 45 23 0 25 -4 25 -45z m240 -122 c0 -26 3
-108 7 -182 6 -132 6 -134 -13 -120 -11 8 -116 86 -234 174 l-214 160 99 5
c55 3 157 6 228 8 l127 3 0 -48z"/>
</g>
</svg>
