<?xml version="1.0" standalone="no"?>
<!DOCTYPE svg PUBLIC "-//W3C//DTD SVG 20010904//EN"
 "http://www.w3.org/TR/2001/REC-SVG-20010904/DTD/svg10.dtd">
<svg version="1.0" xmlns="http://www.w3.org/2000/svg"
 width="123.000000pt" height="144.000000pt" viewBox="0 0 123.000000 144.000000"
 preserveAspectRatio="xMidYMid meet">
<metadata>
Created by potrace 1.16, written by Peter Selinger 2001-2019
</metadata>
<g transform="translate(0.000000,144.000000) scale(0.100000,-0.100000)"
fill="#000000" stroke="none">
<path d="M749 1057 c-75 -45 -205 -127 -290 -182 -149 -96 -155 -101 -155
-133 0 -31 9 -40 156 -146 251 -182 421 -298 427 -292 4 3 4 7 2 9 -2 2 -53
42 -114 88 -60 47 -175 134 -255 194 -80 59 -149 112 -155 116 -5 5 20 9 57 9
l66 0 43 -66 c50 -77 65 -72 19 5 -16 29 -30 54 -30 56 0 3 13 5 29 5 24 0 35
-10 71 -65 24 -36 45 -64 47 -61 2 2 -8 28 -24 58 -15 29 -29 56 -31 61 -2 4
8 7 22 7 20 0 35 -14 71 -67 51 -76 61 -68 15 12 l-30 52 31 7 c17 3 51 6 76
6 27 0 42 4 38 10 -3 6 -42 10 -85 10 -78 0 -80 1 -95 30 -9 17 -22 30 -30 30
-19 0 -19 -5 1 -35 16 -24 16 -25 -10 -25 -20 0 -32 9 -48 36 -22 38 -50 34
-29 -4 15 -29 14 -32 -14 -32 -19 0 -31 10 -47 36 -22 38 -50 34 -29 -4 17
-31 15 -32 -44 -31 -30 1 -55 3 -55 5 0 2 121 85 270 184 l270 180 0 -312 c0
-328 8 -514 21 -501 4 4 11 194 15 421 l7 412 -24 0 c-13 -1 -85 -38 -160 -83z"/>
</g>
</svg>
