<?xml version="1.0" standalone="no"?>
<!DOCTYPE svg PUBLIC "-//W3C//DTD SVG 20010904//EN"
 "http://www.w3.org/TR/2001/REC-SVG-20010904/DTD/svg10.dtd">
<svg version="1.0" xmlns="http://www.w3.org/2000/svg"
 width="105.000000pt" height="135.000000pt" viewBox="0 0 105.000000 135.000000"
 preserveAspectRatio="xMidYMid meet">
<metadata>
Created by potrace 1.16, written by Peter Selinger 2001-2019
</metadata>
<g transform="translate(0.000000,135.000000) scale(0.100000,-0.100000)"
fill="#000000" stroke="none">
<path d="M323 1037 c-21 -11 -22 -14 -17 -192 3 -99 9 -252 14 -340 7 -142 6
-161 -8 -172 -16 -11 -16 -12 0 -13 9 0 19 -6 21 -12 3 -8 6 -6 6 5 1 11 21
26 57 42 101 45 216 119 264 172 58 64 98 154 82 186 -6 12 -21 47 -32 77 -41
112 -117 185 -237 230 -68 25 -122 32 -150 17z m128 -51 c36 -12 81 -34 101
-47 46 -31 108 -106 141 -170 l26 -51 -19 -50 c-40 -107 -94 -160 -256 -259
-52 -31 -89 -48 -93 -41 -3 5 -5 41 -3 79 l3 69 52 28 c69 38 115 82 137 130
16 35 17 43 4 80 -29 82 -86 134 -176 160 -14 4 -18 16 -18 51 0 54 5 55 101
21z m-18 -128 c38 -19 97 -96 97 -127 0 -41 -45 -103 -105 -146 -34 -25 -65
-45 -69 -45 -3 0 -6 79 -6 176 l0 175 23 -7 c12 -3 39 -15 60 -26z"/>
</g>
</svg>
