<?xml version="1.0" standalone="no"?>
<!DOCTYPE svg PUBLIC "-//W3C//DTD SVG 20010904//EN"
 "http://www.w3.org/TR/2001/REC-SVG-20010904/DTD/svg10.dtd">
<svg version="1.0" xmlns="http://www.w3.org/2000/svg"
 width="102.000000pt" height="147.000000pt" viewBox="0 0 102.000000 147.000000"
 preserveAspectRatio="xMidYMid meet">
<metadata>
Created by potrace 1.16, written by Peter Selinger 2001-2019
</metadata>
<g transform="translate(0.000000,147.000000) scale(0.100000,-0.100000)"
fill="#000000" stroke="none">
<path d="M430 1121 c-44 -70 -95 -188 -114 -263 -15 -62 -15 -74 -1 -143 27
-131 72 -227 158 -343 23 -31 41 -60 39 -64 -1 -5 5 -8 13 -8 8 0 15 4 15 9 0
5 20 42 45 84 63 103 91 177 115 299 l21 105 -26 80 c-28 86 -77 176 -137 246
-28 34 -43 44 -67 44 -26 0 -36 -8 -61 -46z m117 -44 c26 -29 69 -94 94 -145
l45 -91 -8 -83 c-12 -112 -30 -172 -96 -311 l-56 -118 -33 53 c-57 89 -120
229 -136 303 -31 137 -31 137 8 232 34 82 111 213 126 213 4 0 29 -24 56 -53z"/>
<path d="M458 938 c-55 -97 -64 -162 -34 -246 19 -53 85 -154 96 -147 20 12
63 106 81 173 18 72 18 74 -1 125 -25 67 -76 137 -100 137 -11 0 -28 -17 -42
-42z m75 -20 c48 -64 60 -98 54 -153 -5 -54 -56 -190 -71 -190 -14 0 -68 114
-82 173 -14 57 -14 57 22 130 19 39 39 72 44 72 5 0 20 -15 33 -32z"/>
</g>
</svg>
