<?xml version="1.0" standalone="no"?>
<!DOCTYPE svg PUBLIC "-//W3C//DTD SVG 20010904//EN"
 "http://www.w3.org/TR/2001/REC-SVG-20010904/DTD/svg10.dtd">
<svg version="1.0" xmlns="http://www.w3.org/2000/svg"
 width="102.000000pt" height="147.000000pt" viewBox="0 0 102.000000 147.000000"
 preserveAspectRatio="xMidYMid meet">
<metadata>
Created by potrace 1.16, written by Peter Selinger 2001-2019
</metadata>
<g transform="translate(0.000000,147.000000) scale(0.100000,-0.100000)"
fill="#000000" stroke="none">
<path d="M432 1121 c-44 -65 -96 -184 -116 -263 -15 -62 -15 -74 -1 -143 28
-133 72 -227 163 -351 44 -60 62 -76 62 -55 0 5 20 42 45 84 63 103 91 177
115 299 l21 105 -26 80 c-28 86 -77 176 -137 246 -51 61 -84 60 -126 -2z m115
-44 c26 -29 69 -94 94 -145 l45 -91 -8 -83 c-12 -112 -30 -172 -96 -311 l-56
-118 -33 53 c-58 92 -120 230 -136 303 -31 137 -31 137 8 232 34 82 111 213
126 213 4 0 29 -24 56 -53z"/>
<path d="M444 898 c-1 -68 -4 -141 -9 -162 -8 -42 22 -226 37 -226 11 0 10 1
-8 104 -14 79 -14 95 0 163 23 109 18 231 -10 240 -6 2 -10 -42 -10 -119z"/>
<path d="M554 997 c14 -58 17 -137 6 -187 -22 -103 -22 -117 -5 -196 18 -80
34 -125 35 -94 0 8 -7 54 -15 101 -12 75 -12 95 0 145 25 103 17 254 -12 254
-11 0 -13 -7 -9 -23z"/>
</g>
</svg>
