<?xml version="1.0" standalone="no"?>
<!DOCTYPE svg PUBLIC "-//W3C//DTD SVG 20010904//EN"
 "http://www.w3.org/TR/2001/REC-SVG-20010904/DTD/svg10.dtd">
<svg version="1.0" xmlns="http://www.w3.org/2000/svg"
 width="105.000000pt" height="135.000000pt" viewBox="0 0 105.000000 135.000000"
 preserveAspectRatio="xMidYMid meet">
<metadata>
Created by potrace 1.16, written by Peter Selinger 2001-2019
</metadata>
<g transform="translate(0.000000,135.000000) scale(0.100000,-0.100000)"
fill="#000000" stroke="none">
<path d="M605 1030 c-132 -42 -223 -124 -265 -240 -11 -30 -25 -64 -31 -76
-22 -44 45 -168 130 -237 25 -21 97 -63 159 -94 71 -35 112 -62 113 -72 0 -10
2 -12 6 -3 2 6 12 12 21 12 16 1 16 2 1 13 -14 11 -15 32 -8 182 4 94 8 248 8
343 1 146 -1 172 -14 172 -8 0 -15 5 -15 10 0 15 -38 11 -105 -10z m95 -345
c0 -179 -3 -325 -6 -325 -12 0 -175 102 -223 140 -59 47 -87 85 -117 158 l-22
56 25 50 c61 121 137 190 251 227 101 32 92 64 92 -306z"/>
<path d="M545 871 c-50 -23 -78 -53 -105 -113 -18 -42 -19 -51 -7 -80 18 -42
71 -89 135 -119 28 -13 51 -31 52 -39 0 -9 3 -11 10 -4 5 5 11 89 13 186 4
148 2 178 -10 182 -24 10 -46 6 -88 -13z m75 -161 l0 -160 -50 31 c-64 39
-105 80 -118 118 -16 45 31 114 101 146 28 14 55 25 60 25 4 0 7 -72 7 -160z"/>
</g>
</svg>
