<?xml version="1.0" standalone="no"?>
<!DOCTYPE svg PUBLIC "-//W3C//DTD SVG 20010904//EN"
 "http://www.w3.org/TR/2001/REC-SVG-20010904/DTD/svg10.dtd">
<svg version="1.0" xmlns="http://www.w3.org/2000/svg"
 width="147.000000pt" height="102.000000pt" viewBox="0 0 147.000000 102.000000"
 preserveAspectRatio="xMidYMid meet">
<metadata>
Created by potrace 1.16, written by Peter Selinger 2001-2019
</metadata>
<g transform="translate(0.000000,102.000000) scale(0.100000,-0.100000)"
fill="#000000" stroke="none">
<path d="M576 690 c-142 -52 -269 -144 -272 -197 -1 -26 6 -35 49 -63 72 -47
182 -95 263 -114 69 -17 73 -17 161 4 125 29 223 78 361 180 31 23 41 40 23
40 -5 0 -42 20 -84 45 -42 25 -102 57 -135 70 -55 22 -242 66 -274 64 -7 0
-48 -14 -92 -29z m274 -35 c30 -9 108 -42 173 -73 l118 -56 -53 -33 c-92 -58
-230 -120 -303 -136 -137 -31 -137 -31 -232 8 -82 34 -213 111 -213 127 0 18
123 112 194 148 l81 41 90 -5 c50 -3 115 -13 145 -21z"/>
<path d="M527 550 c-56 -14 -117 -48 -117 -65 0 -13 7 -12 40 5 95 49 196 59
413 43 102 -8 133 -4 85 12 -36 11 -379 15 -421 5z"/>
<path d="M657 431 c-26 -3 -47 -10 -47 -16 0 -12 -6 -12 138 -1 61 5 112 12
112 17 0 10 -126 10 -203 0z"/>
</g>
</svg>
