<?xml version="1.0" standalone="no"?>
<!DOCTYPE svg PUBLIC "-//W3C//DTD SVG 20010904//EN"
 "http://www.w3.org/TR/2001/REC-SVG-20010904/DTD/svg10.dtd">
<svg version="1.0" xmlns="http://www.w3.org/2000/svg"
 width="193.000000pt" height="138.000000pt" viewBox="0 0 193.000000 138.000000"
 preserveAspectRatio="xMidYMid meet">
<metadata>
Created by potrace 1.16, written by Peter Selinger 2001-2019
</metadata>
<g transform="translate(0.000000,138.000000) scale(0.100000,-0.100000)"
fill="#000000" stroke="none">
<path d="M1020 1070 c0 -5 -6 -10 -14 -10 -8 0 -38 -27 -67 -60 l-53 -59 -293
6 -293 6 0 -28 0 -27 286 7 286 8 -18 -28 -18 -27 -268 4 -268 3 0 -24 0 -24
264 5 264 5 -11 -30 -10 -30 -253 6 -254 7 0 -27 0 -26 249 6 c258 6 261 5
261 -33 0 -5 -115 -6 -255 -3 l-255 6 0 -28 0 -28 260 8 c173 4 260 3 260 -3
0 -6 2 -17 5 -24 5 -12 -37 -13 -260 -10 l-265 5 0 -27 0 -26 271 7 c258 6
273 5 285 -12 8 -10 14 -23 14 -28 0 -6 -107 -8 -285 -5 l-285 6 0 -26 0 -25
298 6 298 7 18 -31 18 -31 -316 8 -316 7 0 -27 0 -26 158 1 c86 1 231 4 322 8
l165 7 32 -30 c22 -20 30 -33 23 -41 -6 -8 -5 -18 4 -30 12 -17 26 -9 205 123
l191 142 39 -25 c44 -30 120 -55 163 -55 l28 0 0 176 0 176 -54 -4 c-30 -2
-77 -16 -105 -30 l-51 -25 -87 64 c-49 36 -136 100 -195 144 -109 81 -118 86
-118 69z m17 -52 c6 -7 14 -101 18 -208 3 -107 10 -242 15 -300 8 -105 8 -105
-18 -129 l-26 -23 -23 28 -23 29 23 7 c21 6 20 6 -5 7 -18 1 -32 11 -46 33
-12 18 -19 34 -18 36 2 1 23 6 47 11 l44 9 -47 1 c-50 1 -88 25 -88 56 0 12
14 15 66 15 41 0 63 4 59 10 -3 6 -37 10 -74 10 -62 0 -69 2 -74 22 -4 12 -5
24 -3 26 2 2 39 6 82 9 93 7 75 21 -28 22 -66 1 -68 2 -68 26 0 23 4 25 43 26
23 0 62 4 87 8 43 7 41 8 -42 15 l-86 8 10 29 c9 27 14 29 61 30 29 1 63 5 77
9 20 6 14 8 -27 9 -78 2 -86 7 -67 42 13 26 19 29 66 29 56 0 57 16 1 22 l-32
3 35 43 c38 45 46 49 61 30z m125 -249 c4 -90 10 -193 14 -229 l7 -65 9 40 c5
22 8 118 6 213 -2 94 -2 172 0 172 2 0 23 -13 46 -29 l43 -30 7 -118 c4 -65 9
-128 12 -139 5 -18 -11 -33 -92 -90 -54 -38 -103 -72 -108 -76 -8 -4 -11 82
-12 278 l-2 285 32 -24 31 -24 7 -164z m362 20 c-38 -37 -43 -40 -63 -28 -11
8 -21 17 -21 20 0 10 82 48 105 49 16 0 12 -8 -21 -41z m-126 -14 c2 -2 -4
-15 -13 -28 -18 -28 -23 -78 -11 -118 6 -21 3 -29 -18 -43 l-26 -16 0 120 0
121 33 -17 c17 -9 33 -18 35 -19z m53 -31 c20 -10 29 -20 25 -30 -3 -9 -6 -27
-6 -40 0 -32 -65 -68 -80 -44 -14 22 -12 67 5 100 18 35 17 35 56 14z m99
-204 c12 -6 19 -14 17 -17 -9 -8 -99 25 -127 47 l-25 20 30 23 29 24 27 -43
c15 -23 37 -48 49 -54z"/>
</g>
</svg>
