<?xml version="1.0" standalone="no"?>
<!DOCTYPE svg PUBLIC "-//W3C//DTD SVG 20010904//EN"
 "http://www.w3.org/TR/2001/REC-SVG-20010904/DTD/svg10.dtd">
<svg version="1.0" xmlns="http://www.w3.org/2000/svg"
 width="217.000000pt" height="173.000000pt" viewBox="0 0 217.000000 173.000000"
 preserveAspectRatio="xMidYMid meet">
<metadata>
Created by potrace 1.16, written by Peter Selinger 2001-2019
</metadata>
<g transform="translate(0.000000,173.000000) scale(0.100000,-0.100000)"
fill="#000000" stroke="none">
<path d="M1156 1419 c-3 -8 -6 -25 -8 -38 -3 -22 -8 -24 -50 -25 -27 -1 -47
-5 -45 -11 1 -5 23 -10 48 -10 l47 1 6 -60 c3 -32 6 -77 6 -98 l0 -40 278 4
277 3 7 135 c3 74 4 137 1 140 -2 3 -130 7 -284 9 -228 2 -280 1 -283 -10z
m538 -101 c3 -50 6 -106 6 -125 l0 -34 -57 3 c-53 3 -58 5 -57 26 0 12 1 67 2
122 l2 100 49 0 48 0 7 -92z m-134 13 c0 -37 3 -89 6 -115 l7 -46 -197 0 -196
0 0 115 0 115 190 0 190 0 0 -69z"/>
<path d="M1740 1345 c0 -17 29 -19 95 -8 31 5 35 8 20 14 -11 4 -41 8 -67 8
-36 1 -48 -3 -48 -14z"/>
<path d="M1750 1286 c0 -13 11 -16 54 -16 30 0 58 5 61 10 3 6 -4 10 -17 10
-13 0 -40 3 -60 6 -31 5 -38 4 -38 -10z"/>
<path d="M817 1131 c-14 -21 -49 -80 -77 -131 -42 -76 -49 -94 -38 -107 10
-12 23 8 81 127 37 78 66 144 64 146 -2 3 -16 -13 -30 -35z"/>
<path d="M887 1163 c-13 -13 -7 -21 21 -26 15 -3 48 -12 75 -21 66 -21 59 -4
-12 28 -62 27 -74 30 -84 19z"/>
<path d="M894 1098 c-14 -46 -44 -78 -74 -78 -33 0 -49 -17 -24 -27 32 -12 68
11 96 62 30 54 33 65 19 65 -5 0 -13 -10 -17 -22z"/>
<path d="M1024 1035 c-8 -46 1 -89 27 -131 30 -49 280 -246 294 -232 3 3 -37
40 -89 82 -167 136 -223 214 -209 290 3 15 1 26 -5 26 -6 0 -14 -16 -18 -35z"/>
<path d="M374 991 c-28 -17 -74 -70 -74 -85 0 -16 25 -2 59 34 33 35 43 40 83
40 61 0 122 -44 150 -108 18 -40 20 -60 15 -156 -3 -72 -2 -104 5 -92 16 29
22 190 9 243 -13 50 -55 104 -103 129 -38 20 -107 18 -144 -5z"/>
<path d="M796 838 c-10 -38 -7 -73 8 -94 14 -19 15 -18 41 6 15 14 30 24 33
22 13 -6 14 31 2 54 -11 19 -16 21 -33 13 -16 -9 -18 -18 -14 -52 5 -39 5 -41
-9 -22 -10 13 -14 33 -11 58 6 40 -7 51 -17 15z m74 -45 c0 -7 -4 -13 -10 -13
-5 0 -10 12 -10 28 0 21 2 24 10 12 5 -8 10 -21 10 -27z"/>
<path d="M1095 698 c-39 -44 -83 -100 -100 -124 -16 -23 -36 -43 -42 -43 -7
-1 -13 -7 -13 -13 0 -16 141 -118 161 -118 8 1 -15 27 -50 58 l-64 58 19 30
c10 16 35 48 55 72 48 55 114 151 108 157 -3 2 -36 -32 -74 -77z"/>
<path d="M1274 593 c-27 -37 -72 -94 -101 -125 -52 -57 -66 -83 -40 -76 36 9
211 247 195 264 -3 3 -27 -26 -54 -63z"/>
<path d="M650 571 c0 -19 5 -21 62 -21 34 0 89 -5 124 -11 34 -6 71 -9 81 -7
25 5 -140 49 -209 56 -54 4 -58 3 -58 -17z"/>
<path d="M719 493 c-33 -52 -70 -135 -65 -141 15 -14 37 15 66 88 36 89 35
112 -1 53z"/>
<path d="M787 436 c-9 -27 -29 -64 -43 -83 -37 -49 -17 -65 24 -19 31 36 47
84 40 127 -3 19 -7 15 -21 -25z"/>
</g>
</svg>
