<?xml version="1.0" standalone="no"?>
<!DOCTYPE svg PUBLIC "-//W3C//DTD SVG 20010904//EN"
 "http://www.w3.org/TR/2001/REC-SVG-20010904/DTD/svg10.dtd">
<svg version="1.0" xmlns="http://www.w3.org/2000/svg"
 width="156.000000pt" height="143.000000pt" viewBox="0 0 156.000000 143.000000"
 preserveAspectRatio="xMidYMid meet">
<metadata>
Created by potrace 1.16, written by Peter Selinger 2001-2019
</metadata>
<g transform="translate(0.000000,143.000000) scale(0.100000,-0.100000)"
fill="#000000" stroke="none">
<path d="M306 1121 c-4 -5 7 -22 23 -39 57 -57 61 -129 15 -266 -47 -137 -41
-248 19 -365 35 -68 96 -150 112 -151 22 0 155 230 155 270 0 8 5 22 10 30 7
11 9 0 4 -34 -8 -61 5 -258 16 -251 4 3 11 70 15 150 6 113 10 145 21 145 11
0 14 -27 15 -132 0 -141 10 -200 22 -139 4 19 7 59 7 91 0 101 12 180 26 180
11 0 14 -30 14 -150 0 -149 12 -197 24 -97 3 28 6 89 6 134 0 90 5 113 26 113
11 0 14 -26 15 -127 1 -71 4 -139 8 -153 7 -24 7 -24 14 9 4 18 7 57 7 85 0
28 3 81 7 119 5 56 9 67 24 67 18 0 19 -11 19 -150 0 -149 12 -197 24 -97 3
28 6 81 6 117 0 95 10 140 29 140 14 0 16 -12 13 -92 -2 -51 -1 -122 3 -158
11 -99 23 -47 27 114 l3 136 51 0 c28 0 72 3 98 6 44 6 48 5 53 -17 13 -47 22
13 22 149 l1 132 -162 0 c-233 1 -448 16 -498 36 -45 18 -64 49 -54 90 5 20 2
24 -16 24 -21 0 -22 -3 -18 -50 4 -34 13 -59 28 -75 44 -46 73 -50 393 -49
l297 2 0 -111 0 -110 -167 6 c-91 4 -224 7 -294 7 l-127 0 -7 33 c-26 132 -28
137 -50 137 l-21 0 18 -72 c30 -115 22 -192 -34 -308 -25 -52 -52 -104 -60
-114 -14 -18 -16 -17 -42 26 -55 94 -78 168 -84 265 -4 80 -1 103 22 178 44
142 35 249 -25 300 -33 27 -44 30 -53 16z"/>
</g>
</svg>
