<?xml version="1.0" standalone="no"?>
<!DOCTYPE svg PUBLIC "-//W3C//DTD SVG 20010904//EN"
 "http://www.w3.org/TR/2001/REC-SVG-20010904/DTD/svg10.dtd">
<svg version="1.0" xmlns="http://www.w3.org/2000/svg"
 width="169.000000pt" height="147.000000pt" viewBox="0 0 169.000000 147.000000"
 preserveAspectRatio="xMidYMid meet">
<metadata>
Created by potrace 1.16, written by Peter Selinger 2001-2019
</metadata>
<g transform="translate(0.000000,147.000000) scale(0.100000,-0.100000)"
fill="#000000" stroke="none">
<path d="M305 1159 c-4 -6 3 -18 16 -27 72 -49 119 -128 126 -213 5 -45 -1
-78 -27 -164 -38 -126 -37 -185 6 -272 27 -57 111 -147 159 -173 26 -14 28
-13 57 20 49 59 70 115 71 183 0 34 -3 72 -7 85 -7 21 -5 22 38 22 l46 0 0
-72 c0 -105 16 -117 24 -19 6 71 10 81 27 81 17 0 19 -8 19 -75 0 -43 4 -75
10 -75 6 0 10 24 10 53 0 71 9 97 31 97 17 0 19 -8 19 -81 0 -51 4 -78 10 -74
6 3 10 40 10 81 l0 74 180 0 180 0 0 -35 c0 -19 5 -35 10 -35 6 0 10 16 10 35
0 32 2 35 31 35 17 0 28 4 24 10 -3 6 -16 10 -28 10 -22 0 -22 2 -17 102 5 99
6 102 30 108 56 14 -136 21 -495 19 -275 -2 -375 -6 -375 -15 0 -14 78 -24
198 -24 l92 0 0 -79 0 -78 -52 5 c-29 2 -57 8 -63 13 -11 11 -48 12 -43 2 36
-69 42 -94 42 -168 0 -67 -4 -89 -28 -137 -15 -32 -34 -58 -41 -58 -19 0 -98
92 -131 153 -37 68 -44 172 -18 248 13 37 19 83 19 144 0 77 -4 98 -27 147
-25 53 -110 158 -129 158 -4 0 -11 -5 -14 -11z m999 -428 l1 -103 -55 6 c-30
3 -108 8 -172 12 l-118 7 0 83 c0 67 -3 84 -15 84 -11 0 -15 -18 -17 -82 -2
-66 -6 -83 -18 -83 -12 0 -16 17 -18 83 -2 45 -2 83 0 84 4 2 343 15 382 14
l28 -1 2 -104z m-444 9 c0 -73 -2 -80 -20 -80 -17 0 -20 7 -20 49 0 68 10 111
26 111 11 0 14 -19 14 -80z"/>
</g>
</svg>
