<?xml version="1.0" standalone="no"?>
<!DOCTYPE svg PUBLIC "-//W3C//DTD SVG 20010904//EN"
 "http://www.w3.org/TR/2001/REC-SVG-20010904/DTD/svg10.dtd">
<svg version="1.0" xmlns="http://www.w3.org/2000/svg"
 width="90.000000pt" height="336.000000pt" viewBox="0 0 90.000000 336.000000"
 preserveAspectRatio="xMidYMid meet">
<metadata>
Created by potrace 1.16, written by Peter Selinger 2001-2019
</metadata>
<g transform="translate(0.000000,336.000000) scale(0.100000,-0.100000)"
fill="#000000" stroke="none">
<path d="M375 3041 c-16 -10 -40 -30 -52 -45 -23 -26 -23 -30 -22 -294 1 -147
4 -355 8 -462 l6 -195 44 -24 c59 -33 107 -31 173 7 l55 32 6 196 c4 109 7
313 7 455 l0 257 -67 46 c-75 51 -110 57 -158 27z m133 -41 l42 -19 0 -66 0
-66 -42 29 c-52 35 -154 92 -160 89 -2 -1 9 10 24 26 34 33 74 35 136 7z m-54
-120 l95 -45 1 -67 c0 -38 -2 -68 -3 -68 -2 0 -45 25 -95 55 -50 30 -96 55
-102 55 -6 0 -10 26 -10 61 0 33 4 59 9 57 5 -1 52 -23 105 -48z m-5 -157
c110 -52 111 -53 111 -158 l0 -53 -97 59 c-54 32 -103 59 -110 59 -9 0 -13 20
-13 70 0 39 2 70 5 70 3 0 50 -21 104 -47z m8 -180 l103 -48 0 -76 c0 -42 3
-137 6 -211 l7 -135 -43 -17 c-60 -24 -109 -24 -155 0 -37 20 -40 24 -43 70
-2 27 -1 63 3 81 l6 32 91 -45 c50 -24 99 -44 107 -44 17 0 -51 48 -141 99
l-58 32 0 60 c0 32 2 59 4 59 1 0 47 -21 101 -46 53 -25 99 -43 102 -40 5 5
-111 83 -176 118 -30 17 -31 19 -31 88 0 38 3 70 8 70 4 0 53 -21 109 -47z"/>
<path d="M313 1216 c-14 -17 -16 -390 -4 -731 l6 -180 135 0 135 0 6 145 c4
80 7 283 8 451 l1 307 -28 5 c-15 3 -77 8 -137 12 -91 5 -112 3 -122 -9z m234
-113 c-3 -2 -50 -1 -106 3 l-101 7 0 33 0 32 63 6 c34 3 80 7 102 9 l40 2 3
-44 c2 -24 1 -45 -1 -48z m3 -79 l0 -57 -77 7 c-42 3 -89 6 -105 6 -27 0 -28
2 -28 45 l0 44 58 4 c31 2 78 4 105 5 l47 2 0 -56z m2 -116 c3 -24 2 -45 -1
-48 -3 -3 -51 -3 -106 0 l-100 5 -3 37 -3 37 63 4 c35 2 82 4 104 5 l42 2 4
-42z m8 -119 l0 -52 -77 7 c-42 3 -91 6 -110 6 -33 0 -34 1 -31 38 l3 37 90 6
c50 3 98 6 108 7 14 2 17 -6 17 -49z m0 -120 c0 -43 -3 -50 -16 -45 -9 3 -58
6 -110 6 l-94 0 0 40 0 39 58 4 c31 2 81 4 110 5 l52 2 0 -51z m3 -156 c4 -54
7 -120 7 -148 l0 -50 -107 3 c-60 2 -114 5 -120 7 -8 3 -13 23 -13 54 0 81 1
81 99 81 47 0 97 3 110 7 23 6 23 7 5 14 -10 4 -61 8 -111 8 l-93 1 0 55 0 54
93 4 c50 1 99 4 108 5 13 2 17 -14 22 -95z"/>
</g>
</svg>
