<?xml version="1.0" standalone="no"?>
<!DOCTYPE svg PUBLIC "-//W3C//DTD SVG 20010904//EN"
 "http://www.w3.org/TR/2001/REC-SVG-20010904/DTD/svg10.dtd">
<svg version="1.0" xmlns="http://www.w3.org/2000/svg"
 width="156.000000pt" height="194.000000pt" viewBox="0 0 156.000000 194.000000"
 preserveAspectRatio="xMidYMid meet">
<metadata>
Created by potrace 1.16, written by Peter Selinger 2001-2019
</metadata>
<g transform="translate(0.000000,194.000000) scale(0.100000,-0.100000)"
fill="#000000" stroke="none">
<path d="M1170 1619 c-130 -47 -227 -70 -287 -70 l-62 1 -93 -96 c-51 -53
-128 -123 -170 -156 -43 -33 -80 -70 -84 -81 -4 -12 -26 -43 -50 -69 -24 -26
-62 -75 -84 -109 -34 -53 -40 -70 -40 -116 0 -77 16 -135 65 -238 66 -138 240
-385 271 -385 22 0 18 8 -45 89 -133 172 -242 367 -260 465 -13 70 5 127 69
224 l54 82 14 -46 c13 -45 12 -47 -12 -73 -14 -14 -35 -48 -46 -74 l-22 -49
22 -20 21 -20 62 30 c34 16 78 33 97 37 19 4 65 21 103 38 l67 30 98 -45 c53
-25 113 -51 132 -58 19 -7 39 -17 45 -22 28 -25 34 -12 70 165 2 11 -4 20 -13
23 -9 3 -65 28 -123 56 l-106 51 25 76 c20 59 26 98 26 172 1 83 3 95 17 92 9
-3 21 -20 27 -40 10 -32 9 -36 -9 -40 -26 -7 -18 -29 9 -26 44 5 302 118 302
133 0 25 -20 90 -28 89 -4 0 -32 -9 -62 -20z m61 -36 c7 -18 6 -30 -1 -37 -13
-13 -25 0 -34 37 -9 37 21 37 35 0z m-46 -54 c-13 -19 -33 -8 -39 23 -9 45 15
58 32 17 7 -16 10 -34 7 -40z m-56 11 c8 -25 7 -32 -5 -37 -19 -7 -22 -3 -30
35 -9 43 20 44 35 2z m-56 -26 c1 -19 -3 -29 -14 -32 -21 -4 -36 58 -17 69 17
11 28 -2 31 -37z m-57 -9 c12 -38 9 -45 -16 -45 -22 0 -36 60 -18 72 20 12 22
10 34 -27z m-142 -1 c16 -42 -6 -257 -34 -321 -9 -21 -4 -26 48 -52 31 -15 86
-39 122 -51 36 -13 66 -25 68 -26 2 -1 -6 -34 -18 -72 l-20 -71 -127 66 -126
66 -82 -26 c-96 -32 -113 -34 -95 -12 7 8 9 15 6 15 -7 0 -62 -37 -82 -55 -19
-18 -94 -49 -100 -42 -10 9 45 117 59 117 7 0 17 11 24 25 9 20 8 25 -3 25
-10 0 -14 15 -14 58 0 54 2 59 37 86 20 17 38 25 40 19 5 -13 92 2 108 18 7 8
-5 10 -45 5 l-55 -7 30 25 c33 28 41 31 98 41 47 8 50 29 3 23 l-34 -4 20 26
c12 14 41 51 66 83 35 44 51 57 73 57 15 0 29 -7 33 -16z"/>
</g>
</svg>
