<?xml version="1.0" standalone="no"?>
<!DOCTYPE svg PUBLIC "-//W3C//DTD SVG 20010904//EN"
 "http://www.w3.org/TR/2001/REC-SVG-20010904/DTD/svg10.dtd">
<svg version="1.0" xmlns="http://www.w3.org/2000/svg"
 width="123.000000pt" height="148.000000pt" viewBox="0 0 123.000000 148.000000"
 preserveAspectRatio="xMidYMid meet">
<metadata>
Created by potrace 1.16, written by Peter Selinger 2001-2019
</metadata>
<g transform="translate(0.000000,148.000000) scale(0.100000,-0.100000)"
fill="#000000" stroke="none">
<path d="M404 1169 c-3 -6 -3 -81 1 -167 l7 -157 -32 -20 c-65 -41 -98 -184
-66 -282 21 -63 98 -176 123 -179 10 -1 47 -15 83 -30 89 -38 161 -42 243 -15
55 19 88 44 74 57 -2 2 -32 -9 -67 -23 -90 -37 -150 -35 -264 8 l-90 34 -40
79 c-37 70 -41 85 -41 150 0 61 5 82 30 131 31 60 55 81 55 48 0 -17 8 -19 85
-19 47 0 85 3 85 7 0 4 -36 10 -80 14 -54 5 -80 11 -80 20 0 19 114 66 175 72
l55 6 1 -34 c1 -19 4 -45 9 -59 6 -21 8 -17 15 28 9 59 2 58 108 20 36 -13 57
-26 57 -36 0 -8 7 -23 15 -32 8 -9 22 -45 31 -80 19 -77 14 -137 -21 -247 -14
-43 -25 -82 -25 -88 0 -19 28 31 54 99 25 63 27 78 24 175 -3 91 -7 114 -31
160 -27 55 -27 55 -20 208 6 152 6 153 -15 153 -22 0 -22 -3 -22 -145 0 -80
-1 -145 -2 -145 -2 0 -34 11 -73 25 l-70 24 0 120 c0 112 -1 120 -20 125 -38
11 -264 6 -271 -5z m246 -41 c1 -13 3 -62 6 -110 l6 -88 -49 0 c-32 0 -68 -10
-110 -30 l-63 -29 0 134 c0 155 -11 142 123 144 84 1 87 0 87 -21z"/>
<path d="M470 1054 c0 -11 5 -14 16 -10 9 3 48 7 87 7 54 1 65 3 42 9 -16 4
-56 8 -87 9 -47 1 -58 -2 -58 -15z"/>
<path d="M470 956 c0 -13 13 -16 85 -16 50 0 85 4 85 10 0 6 -21 10 -47 10
-27 0 -65 3 -85 6 -31 5 -38 4 -38 -10z"/>
<path d="M667 764 c-18 -19 0 -24 85 -24 53 0 88 4 82 9 -12 11 -158 24 -167
15z"/>
<path d="M420 700 c0 -6 35 -10 86 -10 54 0 83 4 79 10 -3 6 -42 10 -86 10
-46 0 -79 -4 -79 -10z"/>
<path d="M665 632 c-16 -17 5 -22 87 -22 54 0 88 4 82 9 -10 10 -161 21 -169
13z"/>
<path d="M420 575 c0 -12 16 -15 85 -15 99 0 113 14 24 24 -92 9 -109 8 -109
-9z"/>
<path d="M664 501 c-15 -16 7 -21 88 -21 55 0 88 4 82 9 -9 9 -162 20 -170 12z"/>
<path d="M420 460 c0 -6 36 -10 88 -10 60 0 82 3 72 10 -20 13 -160 13 -160 0z"/>
</g>
</svg>
