<?xml version="1.0" standalone="no"?>
<!DOCTYPE svg PUBLIC "-//W3C//DTD SVG 20010904//EN"
 "http://www.w3.org/TR/2001/REC-SVG-20010904/DTD/svg10.dtd">
<svg version="1.0" xmlns="http://www.w3.org/2000/svg"
 width="135.000000pt" height="135.000000pt" viewBox="0 0 135.000000 135.000000"
 preserveAspectRatio="xMidYMid meet">
<metadata>
Created by potrace 1.16, written by Peter Selinger 2001-2019
</metadata>
<g transform="translate(0.000000,135.000000) scale(0.100000,-0.100000)"
fill="#000000" stroke="none">
<path d="M590 1029 c-30 -10 -58 -23 -62 -27 -4 -4 4 -36 18 -70 14 -35 28
-94 31 -133 l6 -71 -49 7 c-27 4 -78 18 -113 31 -34 13 -67 22 -71 19 -4 -2
-17 -31 -30 -64 l-22 -60 22 -68 c29 -89 26 -85 63 -66 40 20 123 43 160 43
27 0 28 -1 21 -37 -4 -21 -15 -71 -25 -112 -11 -41 -19 -78 -19 -82 0 -17 74
-39 129 -38 31 0 76 8 101 17 53 21 55 30 23 160 l-20 82 26 0 c14 0 71 -12
125 -25 55 -14 102 -22 106 -18 4 4 15 29 25 55 21 57 17 163 -7 200 l-16 24
-109 -27 c-59 -16 -121 -28 -137 -29 l-29 0 6 64 c5 54 22 117 51 187 6 13 -8
20 -66 37 -40 12 -75 22 -78 21 -3 0 -30 -9 -60 -20z m124 -20 l43 -11 -19
-61 c-11 -34 -22 -95 -25 -134 l-6 -73 -48 0 -49 0 0 53 c0 29 -9 85 -20 125
-25 89 -25 87 3 100 29 14 68 14 121 1z m307 -280 c20 -41 20 -43 3 -116 -9
-40 -20 -76 -24 -78 -4 -3 -62 10 -128 28 -131 35 -132 35 -132 108 l0 37 76
17 c42 9 93 23 113 30 58 22 69 18 92 -26z m-493 -24 l53 -7 -3 -47 -3 -46
-60 -7 c-32 -4 -81 -15 -108 -24 -26 -9 -51 -13 -54 -10 -3 3 -11 29 -18 58
-11 47 -10 57 6 90 l18 36 58 -18 c32 -10 82 -21 111 -25z m191 -87 c1 -14 -7
-18 -36 -18 -71 0 -78 6 -75 55 l4 44 46 3 c46 3 47 3 54 -32 4 -19 7 -43 7
-52z m6 -52 c1 0 15 -49 31 -109 l31 -107 -51 -15 c-98 -27 -102 -27 -147 -5
-24 13 -45 24 -47 25 -2 2 8 41 21 86 14 46 28 97 31 112 7 28 7 28 69 21 34
-4 62 -7 62 -8z"/>
</g>
</svg>
