<?xml version="1.0" standalone="no"?>
<!DOCTYPE svg PUBLIC "-//W3C//DTD SVG 20010904//EN"
 "http://www.w3.org/TR/2001/REC-SVG-20010904/DTD/svg10.dtd">
<svg version="1.0" xmlns="http://www.w3.org/2000/svg"
 width="186.000000pt" height="298.000000pt" viewBox="0 0 186.000000 298.000000"
 preserveAspectRatio="xMidYMid meet">
<metadata>
Created by potrace 1.16, written by Peter Selinger 2001-2019
</metadata>
<g transform="translate(0.000000,298.000000) scale(0.100000,-0.100000)"
fill="#000000" stroke="none">
<path d="M970 2669 c-32 -5 -186 -6 -363 -3 l-307 7 1 -113 1 -112 239 3 239
4 0 -115 c0 -63 3 -125 6 -137 l6 -22 -246 6 -247 6 2 -113 1 -113 269 5 268
4 6 -27 c8 -34 28 -42 167 -65 119 -20 200 -13 353 32 50 14 99 28 109 30 22
4 46 24 30 24 -6 0 4 50 22 113 29 97 33 127 33 227 0 77 -5 138 -17 185 l-18
70 -59 29 c-133 64 -192 79 -320 82 -66 1 -145 -2 -175 -7z m-240 -112 l5 -77
-32 0 -33 0 0 74 c0 63 3 75 18 79 32 9 37 0 42 -76z m140 74 c0 -5 -8 -7 -17
-5 -32 8 -46 -13 -57 -83 -8 -48 -16 -68 -26 -68 -8 0 -15 8 -14 18 0 9 1 46
2 82 l2 65 55 0 c30 0 55 -4 55 -9z m-500 -33 c0 -18 3 -50 6 -70 6 -36 5 -38
-20 -38 -26 0 -26 1 -26 70 0 63 2 70 20 70 16 0 20 -7 20 -32z m68 -41 c3
-62 2 -67 -17 -67 -19 0 -21 6 -21 71 0 62 2 70 18 67 14 -3 18 -16 20 -71z
m62 -1 c0 -69 -1 -74 -20 -69 -18 5 -20 14 -20 74 0 62 2 69 20 69 18 0 20 -7
20 -74z m72 7 c3 -38 4 -71 2 -74 -2 -4 -15 -4 -29 -1 -18 3 -24 9 -21 19 3 8
6 39 6 69 0 46 3 54 19 54 16 0 19 -10 23 -67z m72 30 c3 -21 6 -55 6 -75 0
-34 -3 -38 -25 -38 -24 0 -25 2 -25 75 0 67 2 75 19 75 14 0 20 -10 25 -37z
m588 -39 c-2 -41 -7 -74 -10 -72 -4 2 -44 28 -89 58 -113 76 -112 90 10 90
l92 0 -3 -76z m-220 -271 c2 -186 2 -340 0 -342 -1 -3 -36 3 -76 13 -86 20
-78 5 -102 191 -16 133 -14 253 7 371 18 102 11 97 131 102 l37 2 3 -337z
m399 306 l76 -20 21 -94 c28 -120 27 -187 -6 -365 l-27 -145 -80 -17 c-44 -9
-92 -17 -106 -17 l-26 -1 4 273 c2 149 6 305 9 345 l6 74 26 -7 c15 -3 61 -15
103 -26z m-266 -84 c44 -26 82 -51 85 -56 3 -4 4 -28 2 -53 l-4 -45 -89 60
-89 60 0 45 c0 25 3 43 8 41 4 -2 43 -26 87 -52z m85 -231 l0 -55 -90 61 -90
61 0 49 0 49 90 -56 90 -55 0 -54z m6 -120 c3 -25 5 -47 3 -49 -2 -2 -46 24
-96 58 -92 62 -92 62 -93 104 l0 42 89 -55 c88 -54 90 -56 97 -100z m-68 -33
l72 -42 0 -60 0 -61 -28 19 c-181 120 -173 113 -171 157 3 55 7 60 32 43 12
-7 55 -33 95 -56z m-519 -78 c1 -39 -1 -43 -24 -43 -24 0 -25 2 -25 74 0 63 3
75 18 78 19 4 30 -35 31 -109z m81 37 l0 -80 -30 0 -30 0 0 73 c0 41 3 77 7
80 3 4 17 7 30 7 22 0 23 -3 23 -80z m82 -4 c10 -43 17 -80 15 -82 -2 -2 -20
-1 -41 3 -32 5 -37 9 -32 27 3 12 6 47 6 79 0 49 3 58 16 55 12 -2 23 -26 36
-82z m-442 42 c0 -18 3 -50 6 -70 6 -36 5 -38 -20 -38 -26 0 -26 1 -26 70 0
63 2 70 20 70 16 0 20 -7 20 -32z m68 -41 c3 -62 2 -67 -17 -67 -19 0 -21 6
-21 71 0 62 2 70 18 67 14 -3 18 -16 20 -71z m62 3 c0 -63 -2 -70 -20 -70 -18
0 -20 7 -20 70 0 63 2 70 20 70 18 0 20 -7 20 -70z m70 23 c0 -27 3 -58 6 -70
6 -20 3 -23 -26 -23 -25 0 -31 3 -26 16 3 9 6 40 6 70 0 47 2 54 20 54 17 0
20 -7 20 -47z m669 -174 c2 -8 -27 -10 -97 -7 -56 2 -103 6 -104 8 -2 3 -2 33
0 66 l4 61 96 -58 c53 -33 99 -64 101 -70z"/>
<path d="M1010 1098 c-71 -11 -405 -12 -593 -2 l-117 6 1 -111 1 -111 239 0
239 0 0 -117 c0 -65 3 -128 6 -141 6 -22 5 -22 -62 -17 -38 2 -149 7 -247 10
l-177 6 1 -111 1 -110 269 0 270 0 5 -28 c5 -26 13 -30 77 -46 40 -10 117 -21
172 -23 92 -5 111 -2 240 31 187 49 177 45 171 63 -4 9 8 65 25 126 30 105 31
118 26 241 -3 81 -11 151 -21 182 -16 51 -16 52 -99 87 -45 19 -107 43 -137
52 -69 20 -205 27 -290 13z m-140 -38 c0 -5 -13 -10 -29 -10 -33 0 -37 -8 -47
-89 -6 -52 -10 -61 -27 -61 -17 0 -19 5 -13 31 3 17 6 53 6 80 l0 48 43 4 c23
2 48 4 55 5 6 1 12 -2 12 -8z m-500 -29 c0 -15 3 -49 6 -75 7 -45 6 -46 -20
-46 -26 0 -26 1 -26 75 0 68 2 75 20 75 15 0 20 -7 20 -29z m64 -2 c3 -17 6
-51 6 -75 0 -37 -3 -44 -20 -44 -18 0 -20 7 -20 75 0 57 3 75 14 75 7 0 16
-14 20 -31z m66 -44 c0 -68 -2 -75 -20 -75 -18 0 -20 7 -20 75 0 68 2 75 20
75 18 0 20 -7 20 -75z m70 23 c0 -29 3 -63 6 -75 6 -20 3 -23 -25 -23 -27 0
-30 3 -27 23 3 12 5 46 5 75 1 45 4 52 21 52 17 0 20 -7 20 -52z m74 15 c3
-21 6 -55 6 -75 0 -34 -3 -38 -25 -38 -24 0 -25 2 -25 75 0 67 2 75 19 75 14
0 20 -10 25 -37z m88 -39 c2 -42 -1 -78 -5 -81 -5 -3 -19 -2 -33 1 -23 6 -24
10 -24 81 l0 75 29 0 29 0 4 -76z m496 27 c3 -41 2 -43 -20 -37 -13 3 -53 6
-90 6 l-68 0 0 40 0 41 88 -3 87 -3 3 -44z m-216 -303 c2 -189 2 -344 2 -346
-2 -4 -129 28 -143 37 -15 9 -38 146 -47 279 -6 88 13 286 32 337 5 12 75 31
131 34 l22 1 3 -342z m429 296 c47 -15 47 -15 64 -82 31 -121 31 -203 0 -368
-15 -82 -31 -153 -36 -158 -6 -7 -72 -23 -173 -41 l-39 -6 7 103 c3 57 7 195
8 308 0 113 3 224 6 246 l4 42 56 -15 c32 -8 78 -21 103 -29z m-215 -131 c-2
-3 -43 -2 -90 2 l-86 7 0 34 0 33 88 3 87 3 3 -39 c2 -21 1 -40 -2 -43z m6
-45 c10 -60 5 -63 -92 -60 l-90 3 0 40 0 39 89 0 c84 0 89 -1 93 -22z m0 -109
c7 -45 -1 -49 -95 -42 l-87 6 0 32 0 33 89 -1 89 0 4 -28z m-2 -99 c0 -30 0
-30 -59 -30 -93 0 -121 8 -121 36 0 23 2 24 90 24 l90 0 0 -30z m-419 -111
c10 -40 18 -77 19 -81 0 -5 -18 -8 -39 -8 l-40 0 5 73 c3 39 8 78 10 85 9 30
28 1 45 -69z m-441 34 c0 -21 3 -55 6 -75 6 -36 5 -38 -20 -38 -26 0 -26 1
-26 75 0 68 2 75 20 75 16 0 20 -7 20 -37z m64 6 c3 -17 6 -51 6 -75 0 -37 -3
-44 -20 -44 -18 0 -20 7 -20 75 0 57 3 75 14 75 7 0 16 -14 20 -31z m66 -44
c0 -68 -2 -75 -20 -75 -18 0 -20 7 -20 75 0 68 2 75 20 75 18 0 20 -7 20 -75z
m70 31 c0 -24 3 -58 6 -75 6 -30 5 -31 -26 -31 -25 0 -31 3 -26 16 3 9 6 42 6
75 0 52 2 59 20 59 17 0 20 -7 20 -44z m74 7 c3 -21 6 -55 6 -75 0 -34 -3 -38
-25 -38 -24 0 -25 2 -25 75 0 67 2 75 19 75 14 0 20 -10 25 -37z m86 -41 l0
-79 -30 5 -30 4 0 74 0 74 30 0 30 0 0 -78z m510 37 c0 -28 -3 -31 -22 -25
-13 3 -58 6 -100 6 -76 0 -78 0 -78 25 l0 25 100 0 100 0 0 -31z m0 -72 l0
-30 -52 7 c-29 3 -74 6 -100 6 -44 0 -48 2 -48 24 0 23 1 24 100 23 l100 0 0
-30z m0 -81 c0 -30 -4 -35 -30 -41 -27 -6 -156 2 -171 11 -3 2 -4 17 -1 34 l4
30 99 0 99 0 0 -34z"/>
</g>
</svg>
