<?xml version="1.0" standalone="no"?>
<!DOCTYPE svg PUBLIC "-//W3C//DTD SVG 20010904//EN"
 "http://www.w3.org/TR/2001/REC-SVG-20010904/DTD/svg10.dtd">
<svg version="1.0" xmlns="http://www.w3.org/2000/svg"
 width="106.000000pt" height="209.000000pt" viewBox="0 0 106.000000 209.000000"
 preserveAspectRatio="xMidYMid meet">
<metadata>
Created by potrace 1.16, written by Peter Selinger 2001-2019
</metadata>
<g transform="translate(0.000000,209.000000) scale(0.100000,-0.100000)"
fill="#000000" stroke="none">
<path d="M490 1781 c-24 -7 -24 -7 9 -14 18 -4 76 -7 127 -7 52 0 94 -3 94 -7
0 -5 2 -201 5 -438 3 -236 7 -553 10 -702 l5 -273 -102 0 c-57 0 -112 -3 -124
-6 -21 -5 -21 -2 -28 173 -7 187 -20 305 -38 362 -6 19 -28 62 -50 95 -45 70
-73 155 -63 194 7 30 42 72 59 72 6 0 16 8 21 18 6 10 24 40 42 66 43 64 53
121 53 291 0 122 -2 145 -15 145 -12 0 -15 -20 -15 -117 0 -65 -4 -146 -9
-180 -11 -75 -53 -171 -78 -179 -87 -27 -119 -131 -72 -234 11 -25 37 -72 59
-105 28 -45 41 -78 49 -130 14 -87 41 -373 41 -432 0 -56 11 -60 163 -65 l117
-3 5 30 c3 17 4 350 3 740 l-3 710 -120 2 c-66 1 -131 -2 -145 -6z"/>
</g>
</svg>
