<?xml version="1.0" standalone="no"?>
<!DOCTYPE svg PUBLIC "-//W3C//DTD SVG 20010904//EN"
 "http://www.w3.org/TR/2001/REC-SVG-20010904/DTD/svg10.dtd">
<svg version="1.0" xmlns="http://www.w3.org/2000/svg"
 width="158.000000pt" height="123.000000pt" viewBox="0 0 158.000000 123.000000"
 preserveAspectRatio="xMidYMid meet">
<metadata>
Created by potrace 1.16, written by Peter Selinger 2001-2019
</metadata>
<g transform="translate(0.000000,123.000000) scale(0.100000,-0.100000)"
fill="#000000" stroke="none">
<path d="M644 886 c-42 -57 -91 -154 -99 -198 l-7 -35 -110 63 c-60 36 -114
62 -119 59 -12 -8 -12 -302 0 -310 9 -5 192 94 216 116 5 6 17 -14 31 -51 23
-65 69 -145 113 -199 l28 -34 134 80 c74 44 191 112 261 152 131 74 149 88
129 100 -7 5 0 28 24 72 19 35 35 69 35 75 0 6 -25 28 -55 48 l-55 36 -23 -37
c-13 -21 -32 -53 -42 -70 -11 -18 -23 -33 -28 -33 -5 0 -90 47 -189 105 -100
58 -188 105 -197 105 -9 -1 -30 -20 -47 -44z m291 -123 c129 -71 244 -132 254
-138 16 -8 -4 -22 -128 -86 -82 -43 -197 -107 -257 -143 l-109 -65 -23 27
c-12 15 -39 60 -60 101 -30 61 -37 88 -40 147 -4 65 -1 81 27 140 27 58 85
144 97 144 2 0 110 -57 239 -127z m285 37 c22 -11 40 -22 40 -24 0 -3 -16 -32
-36 -65 l-36 -61 -37 22 c-20 12 -38 23 -40 25 -7 5 52 123 61 123 5 0 27 -9
48 -20z m-780 -120 c55 -28 100 -54 100 -60 0 -11 -4 -14 -123 -72 l-100 -49
6 103 c4 57 7 109 7 116 0 17 0 17 110 -38z"/>
<path d="M680 791 c0 -11 50 -24 58 -16 8 8 -19 25 -40 25 -10 0 -18 -4 -18
-9z"/>
<path d="M806 782 c-14 -13 -4 -22 25 -22 16 0 28 4 25 9 -7 11 -43 21 -50 13z"/>
<path d="M650 711 c0 -9 52 -22 60 -15 7 7 -23 24 -42 24 -10 0 -18 -4 -18 -9z"/>
<path d="M960 664 c0 -9 10 -14 30 -14 17 0 30 2 30 4 0 2 -13 9 -30 15 -24 8
-30 7 -30 -5z"/>
<path d="M815 641 c-6 -11 42 -27 52 -17 8 8 3 12 -24 20 -12 4 -24 2 -28 -3z"/>
<path d="M647 624 c-3 -4 -4 -11 -1 -15 7 -12 54 -11 54 1 0 6 -4 10 -9 10 -5
0 -16 2 -23 5 -8 3 -17 3 -21 -1z"/>
<path d="M936 561 c-7 -10 43 -25 52 -16 7 7 -18 25 -35 25 -6 0 -14 -4 -17
-9z"/>
<path d="M690 534 c0 -9 10 -14 30 -14 17 0 30 2 30 4 0 2 -13 9 -30 15 -24 8
-30 7 -30 -5z"/>
<path d="M802 518 c5 -15 58 -24 58 -10 0 5 -10 12 -22 16 -34 9 -40 7 -36 -6z"/>
<path d="M1165 780 c-7 -11 42 -26 53 -16 7 8 -17 26 -35 26 -6 0 -15 -4 -18
-10z"/>
<path d="M1140 711 c0 -11 49 -21 55 -11 5 9 -18 20 -41 20 -8 0 -14 -4 -14
-9z"/>
<path d="M346 682 c-14 -13 -4 -22 25 -22 16 0 28 4 25 9 -7 11 -43 21 -50 13z"/>
<path d="M415 650 c-7 -11 42 -26 53 -16 7 8 -17 26 -35 26 -6 0 -15 -4 -18
-10z"/>
<path d="M350 611 c0 -11 49 -21 55 -11 5 9 -18 20 -41 20 -8 0 -14 -4 -14 -9z"/>
</g>
</svg>
