<?xml version="1.0" standalone="no"?>
<!DOCTYPE svg PUBLIC "-//W3C//DTD SVG 20010904//EN"
 "http://www.w3.org/TR/2001/REC-SVG-20010904/DTD/svg10.dtd">
<svg version="1.0" xmlns="http://www.w3.org/2000/svg"
 width="136.000000pt" height="134.000000pt" viewBox="0 0 136.000000 134.000000"
 preserveAspectRatio="xMidYMid meet">
<metadata>
Created by potrace 1.16, written by Peter Selinger 2001-2019
</metadata>
<g transform="translate(0.000000,134.000000) scale(0.100000,-0.100000)"
fill="#000000" stroke="none">
<path d="M432 1017 c-28 -29 -121 -275 -129 -337 -5 -40 1 -64 42 -166 58
-145 92 -214 106 -214 6 0 31 16 56 35 25 19 49 32 54 29 5 -3 9 1 10 8 0 7
60 56 133 109 l133 96 29 -24 c33 -27 112 -53 161 -53 l33 0 -2 173 -3 172
-45 -3 c-41 -3 -121 -34 -161 -63 -14 -11 -46 9 -203 124 -103 75 -188 137
-190 137 -1 0 -12 -10 -24 -23z m70 -63 l38 -27 0 -162 c0 -89 3 -202 6 -252
l7 -89 -50 -37 c-28 -20 -55 -37 -61 -37 -10 0 -86 218 -97 282 -4 21 -2 53 5
75 23 72 103 273 108 273 3 0 23 -12 44 -26z m205 -143 c96 -63 111 -76 103
-92 -13 -23 -13 -75 0 -98 8 -15 -9 -30 -113 -99 -67 -44 -122 -80 -122 -79
-4 35 8 447 13 445 4 -2 57 -36 119 -77z m268 -12 c-20 -18 -43 -45 -51 -61
l-15 -28 -29 22 c-28 20 -29 23 -14 40 16 17 106 56 132 57 7 1 -3 -13 -23
-30z m-99 -90 c19 -11 34 -29 34 -39 0 -20 -64 -65 -79 -56 -16 10 -22 61 -12
89 13 32 15 33 57 6z m96 -161 l37 -36 -37 10 c-39 11 -88 34 -110 51 -10 8
-7 15 15 33 l28 23 15 -22 c8 -12 31 -38 52 -59z"/>
</g>
</svg>
