<?xml version="1.0" standalone="no"?>
<!DOCTYPE svg PUBLIC "-//W3C//DTD SVG 20010904//EN"
 "http://www.w3.org/TR/2001/REC-SVG-20010904/DTD/svg10.dtd">
<svg version="1.0" xmlns="http://www.w3.org/2000/svg"
 width="130.000000pt" height="134.000000pt" viewBox="0 0 130.000000 134.000000"
 preserveAspectRatio="xMidYMid meet">
<metadata>
Created by potrace 1.16, written by Peter Selinger 2001-2019
</metadata>
<g transform="translate(0.000000,134.000000) scale(0.100000,-0.100000)"
fill="#000000" stroke="none">
<path d="M315 1020 c-17 -19 -18 -41 -12 -353 5 -319 9 -367 28 -367 4 0 103
70 220 156 116 86 217 158 223 160 7 3 45 -18 85 -47 40 -28 88 -57 107 -65
l34 -14 0 179 c0 140 -3 180 -13 184 -8 3 -59 -26 -114 -63 l-100 -69 -217
160 c-119 87 -218 159 -220 159 -1 0 -11 -9 -21 -20z m172 -141 c68 -48 164
-111 213 -139 l89 -51 75 55 c41 30 77 59 81 65 16 27 25 5 26 -61 0 -40 4
-110 7 -155 l7 -81 -21 16 c-64 52 -151 115 -161 119 -18 7 -174 -85 -320
-189 -70 -50 -134 -93 -141 -96 -11 -4 -13 7 -8 59 3 35 5 176 6 312 0 192 3
246 12 241 7 -4 68 -47 135 -95z"/>
</g>
</svg>
