<?xml version="1.0" standalone="no"?>
<!DOCTYPE svg PUBLIC "-//W3C//DTD SVG 20010904//EN"
 "http://www.w3.org/TR/2001/REC-SVG-20010904/DTD/svg10.dtd">
<svg version="1.0" xmlns="http://www.w3.org/2000/svg"
 width="123.000000pt" height="134.000000pt" viewBox="0 0 123.000000 134.000000"
 preserveAspectRatio="xMidYMid meet">
<metadata>
Created by potrace 1.16, written by Peter Selinger 2001-2019
</metadata>
<g transform="translate(0.000000,134.000000) scale(0.100000,-0.100000)"
fill="#000000" stroke="none">
<path d="M317 1022 c-15 -16 -17 -46 -17 -209 0 -238 11 -488 21 -505 10 -16
-8 -27 217 138 l179 131 29 -24 c36 -28 106 -53 151 -53 l33 0 0 175 0 175
-42 -6 c-50 -7 -124 -38 -150 -61 -9 -8 -23 -13 -30 -10 -7 3 -93 64 -191 136
-98 72 -180 131 -181 131 -2 0 -10 -8 -19 -18z m70 -74 c7 -8 13 -118 18 -278
l6 -265 -35 -24 c-20 -13 -38 -22 -39 -20 -2 2 -1 142 1 311 4 287 5 307 21
298 10 -5 22 -15 28 -22z m123 -184 c0 -55 3 -141 6 -190 l6 -89 -46 -32 -46
-33 0 103 c0 56 3 166 7 244 l6 141 33 -21 34 -22 0 -101z m110 -23 c0 -25 3
-76 6 -112 l7 -66 -47 -32 -46 -32 0 171 0 170 40 -26 c37 -25 40 -30 40 -73z
m235 58 c-20 -18 -43 -45 -51 -61 l-15 -28 -29 22 c-28 20 -29 23 -14 40 16
17 106 56 132 57 7 1 -3 -13 -23 -30z m-174 -49 c15 -9 17 -15 9 -30 -13 -24
-13 -76 0 -100 8 -14 5 -21 -15 -34 l-25 -16 0 95 c0 52 3 95 6 95 3 0 14 -5
25 -10z m75 -41 c19 -11 34 -29 34 -39 0 -20 -64 -65 -79 -56 -16 10 -22 61
-12 89 13 32 15 33 57 6z m96 -161 l37 -36 -37 10 c-39 11 -88 34 -110 51 -10
8 -7 15 15 33 l28 23 15 -22 c8 -12 31 -38 52 -59z"/>
</g>
</svg>
