<?xml version="1.0" standalone="no"?>
<!DOCTYPE svg PUBLIC "-//W3C//DTD SVG 20010904//EN"
 "http://www.w3.org/TR/2001/REC-SVG-20010904/DTD/svg10.dtd">
<svg version="1.0" xmlns="http://www.w3.org/2000/svg"
 width="159.000000pt" height="106.000000pt" viewBox="0 0 159.000000 106.000000"
 preserveAspectRatio="xMidYMid meet">
<metadata>
Created by potrace 1.16, written by Peter Selinger 2001-2019
</metadata>
<g transform="translate(0.000000,106.000000) scale(0.100000,-0.100000)"
fill="#000000" stroke="none">
<path d="M480 740 c0 -13 7 -20 20 -20 15 0 20 -7 20 -25 0 -21 -5 -25 -30
-25 -23 0 -30 -4 -30 -20 0 -16 7 -20 30 -20 23 0 30 -5 30 -19 0 -17 -8 -20
-47 -23 -36 -2 -49 -7 -51 -20 -3 -15 4 -18 47 -18 44 0 51 -3 51 -20 0 -17
-8 -19 -67 -22 -53 -2 -68 -6 -68 -18 0 -12 15 -15 64 -17 40 -1 67 -6 73 -15
7 -10 10 -10 18 4 10 16 50 14 50 -3 0 -5 5 -9 10 -9 6 0 10 7 10 15 0 8 9 15
20 15 11 0 20 -7 20 -15 0 -8 5 -15 10 -15 6 0 10 7 10 15 0 21 30 19 46 -2
13 -17 13 -17 14 0 0 15 12 17 99 17 56 0 103 4 106 10 4 6 -32 10 -99 10
-105 0 -106 0 -106 24 0 23 3 24 103 31 56 4 134 5 172 3 l70 -3 -114 -93
c-78 -64 -119 -91 -130 -87 -61 24 -182 47 -271 52 l-105 4 -77 -51 c-43 -28
-78 -55 -78 -60 0 -24 26 -18 73 18 99 75 100 75 185 68 95 -9 272 -44 289
-58 16 -13 17 -12 153 102 112 95 290 272 290 290 0 10 -132 15 -527 18 -278
3 -283 2 -283 -18z m780 -14 c0 -2 -41 -40 -91 -86 -67 -62 -93 -80 -102 -71
-7 7 -64 11 -169 11 -98 0 -158 4 -159 10 -6 47 -17 45 193 50 109 3 200 8
203 11 8 8 -158 19 -287 19 l-108 0 0 25 0 24 138 4 c283 6 382 7 382 3z
m-670 -31 c0 -18 -5 -25 -20 -25 -15 0 -20 7 -20 25 0 18 5 25 20 25 15 0 20
-7 20 -25z m60 0 c0 -16 -6 -25 -15 -25 -9 0 -15 9 -15 25 0 16 6 25 15 25 9
0 15 -9 15 -25z m60 0 c0 -16 -6 -25 -15 -25 -9 0 -15 9 -15 25 0 16 6 25 15
25 9 0 15 -9 15 -25z m-120 -85 c0 -29 -14 -38 -35 -22 -9 6 -10 17 -6 45 0 4
10 7 21 7 16 0 20 -7 20 -30z m60 0 c0 -32 -23 -42 -34 -15 -8 21 3 45 20 45
9 0 14 -11 14 -30z m60 -1 c0 -23 -4 -30 -17 -27 -16 3 -27 34 -17 50 13 20
34 6 34 -23z m-120 -79 c0 -15 -7 -20 -25 -20 -18 0 -25 5 -25 20 0 15 7 20
25 20 18 0 25 -5 25 -20z m60 0 c0 -13 -7 -20 -20 -20 -13 0 -20 7 -20 20 0
13 7 20 20 20 13 0 20 -7 20 -20z m60 -6 c0 -33 -33 -30 -38 4 -3 17 2 22 17
22 16 0 21 -6 21 -26z"/>
</g>
</svg>
