<?xml version="1.0" standalone="no"?>
<!DOCTYPE svg PUBLIC "-//W3C//DTD SVG 20010904//EN"
 "http://www.w3.org/TR/2001/REC-SVG-20010904/DTD/svg10.dtd">
<svg version="1.0" xmlns="http://www.w3.org/2000/svg"
 width="160.000000pt" height="105.000000pt" viewBox="0 0 160.000000 105.000000"
 preserveAspectRatio="xMidYMid meet">
<metadata>
Created by potrace 1.16, written by Peter Selinger 2001-2019
</metadata>
<g transform="translate(0.000000,105.000000) scale(0.100000,-0.100000)"
fill="#000000" stroke="none">
<path d="M322 734 c2 -11 54 -48 133 -96 72 -42 137 -82 145 -87 11 -8 -32
-10 -143 -8 -151 2 -157 1 -157 -18 0 -19 6 -20 157 -18 108 2 153 -1 143 -8
-8 -5 -73 -45 -145 -88 -76 -46 -131 -86 -134 -96 -5 -25 10 -18 157 78 l127
83 30 -45 c17 -25 46 -56 65 -69 30 -20 43 -23 89 -19 75 8 126 44 157 111
l24 53 107 6 c58 4 133 7 166 7 33 0 58 2 56 4 -9 9 -85 15 -210 15 -126 1
-127 1 -133 26 -9 35 -65 96 -103 111 -18 8 -56 14 -84 14 -49 0 -55 -3 -99
-47 -26 -27 -49 -54 -51 -62 -3 -9 -46 14 -136 73 -153 100 -167 107 -161 80z
m524 -93 c36 -16 94 -75 94 -94 0 -4 -65 -7 -145 -7 -95 0 -145 4 -145 10 0
21 30 69 56 89 33 26 85 27 140 2z m90 -160 c-35 -66 -132 -120 -190 -105 -45
11 -130 117 -103 128 7 2 78 5 160 5 l148 1 -15 -29z"/>
</g>
</svg>
