<?xml version="1.0" standalone="no"?>
<!DOCTYPE svg PUBLIC "-//W3C//DTD SVG 20010904//EN"
 "http://www.w3.org/TR/2001/REC-SVG-20010904/DTD/svg10.dtd">
<svg version="1.0" xmlns="http://www.w3.org/2000/svg"
 width="152.000000pt" height="304.000000pt" viewBox="0 0 152.000000 304.000000"
 preserveAspectRatio="xMidYMid meet">
<metadata>
Created by potrace 1.16, written by Peter Selinger 2001-2019
</metadata>
<g transform="translate(0.000000,304.000000) scale(0.100000,-0.100000)"
fill="#000000" stroke="none">
<path d="M776 2683 c-36 -31 -66 -60 -66 -64 0 -4 27 -62 60 -130 88 -183 124
-299 117 -374 -8 -82 -38 -175 -108 -333 -32 -73 -59 -139 -59 -147 0 -9 21
-18 58 -25 31 -6 67 -15 79 -20 26 -11 45 11 137 152 118 182 165 321 145 433
-20 110 -110 299 -231 484 -29 45 -56 81 -60 81 -3 0 -36 -26 -72 -57z m119
-79 c139 -211 207 -374 207 -494 0 -127 -78 -308 -214 -494 -5 -8 -148 30
-148 39 0 2 20 39 45 83 60 107 121 262 135 344 18 101 -8 193 -115 413 l-56
115 38 44 c21 24 41 42 45 40 3 -2 32 -43 63 -90z"/>
<path d="M300 2200 l0 -23 236 6 c130 3 239 8 242 11 15 15 -25 19 -243 24
l-235 5 0 -23z"/>
<path d="M300 2085 l0 -27 188 6 c368 13 388 31 45 42 l-233 7 0 -28z"/>
<path d="M300 1940 l0 -23 236 6 c130 3 239 8 242 11 14 15 -23 19 -242 24
l-236 5 0 -23z"/>
<path d="M855 1409 c-33 -28 -62 -53 -64 -55 -3 -2 26 -64 62 -137 76 -149
102 -236 92 -306 -10 -64 -47 -159 -96 -242 l-42 -72 22 -51 21 -51 -20 -63
c-28 -91 -27 -99 19 -112 66 -18 135 -24 127 -12 -3 6 21 48 54 94 33 46 82
126 109 178 114 221 110 318 -28 585 -72 141 -170 295 -186 295 -5 0 -37 -23
-70 -51z m161 -152 c171 -281 200 -425 125 -612 -34 -83 -113 -224 -163 -287
l-29 -37 -47 16 c-26 8 -52 16 -59 18 -8 3 -5 22 13 65 l25 61 -22 68 -22 67
39 59 c66 103 104 202 104 271 0 85 -43 200 -136 361 l-19 32 40 41 40 41 23
-28 c13 -15 52 -76 88 -136z"/>
<path d="M300 902 c0 -11 4 -23 8 -26 10 -6 463 12 470 19 3 3 3 7 1 10 -3 2
-112 8 -242 11 -236 7 -237 7 -237 -14z"/>
<path d="M304 801 c-2 -2 -4 -13 -4 -24 0 -20 5 -20 225 -13 250 7 324 20 185
30 -103 8 -400 13 -406 7z"/>
<path d="M300 636 l0 -28 143 6 c268 12 349 18 340 27 -4 4 -115 11 -246 15
l-237 7 0 -27z"/>
</g>
</svg>
