<?xml version="1.0" standalone="no"?>
<!DOCTYPE svg PUBLIC "-//W3C//DTD SVG 20010904//EN"
 "http://www.w3.org/TR/2001/REC-SVG-20010904/DTD/svg10.dtd">
<svg version="1.0" xmlns="http://www.w3.org/2000/svg"
 width="239.000000pt" height="139.000000pt" viewBox="0 0 239.000000 139.000000"
 preserveAspectRatio="xMidYMid meet">
<metadata>
Created by potrace 1.16, written by Peter Selinger 2001-2019
</metadata>
<g transform="translate(0.000000,139.000000) scale(0.100000,-0.100000)"
fill="#000000" stroke="none">
<path d="M1135 1009 c-144 -90 -285 -196 -315 -237 l-20 -27 -183 7 c-244 9
-271 8 -275 -16 -4 -18 4 -18 219 -11 l223 7 -19 -28 c-46 -73 -22 -66 -254
-65 -191 2 -211 0 -211 -15 0 -15 19 -16 210 -12 l210 3 0 -22 c0 -12 3 -28 6
-37 5 -14 -18 -15 -208 -13 -177 2 -213 0 -213 -12 0 -12 36 -14 215 -12 l215
2 17 -41 17 -40 -225 0 c-202 0 -224 -2 -224 -17 0 -15 19 -16 225 -9 l226 7
58 -62 58 -61 159 4 159 4 285 128 c289 130 560 264 560 278 0 10 -4 8 -265
-105 -494 -213 -575 -250 -575 -262 0 -17 -108 -29 -200 -23 -85 6 -125 30
-174 101 -37 54 -76 158 -76 203 0 37 26 69 120 152 85 74 356 262 378 262 7
0 12 -4 12 -10 0 -5 33 -80 74 -167 40 -87 77 -167 82 -178 7 -16 9 -12 12 22
l3 42 122 47 c67 25 181 71 252 101 72 30 136 55 144 56 8 1 26 -35 51 -103
55 -156 61 -170 71 -170 12 0 11 19 0 56 -6 16 -26 81 -45 145 l-36 117 -72
-29 c-40 -16 -163 -62 -273 -103 -110 -41 -207 -77 -216 -80 -16 -7 -53 64
-120 224 -24 58 -37 80 -48 80 -4 0 -65 -36 -136 -81z"/>
<path d="M1020 860 c-13 -8 -8 -23 31 -102 26 -51 69 -132 97 -180 l50 -88
-41 -11 c-73 -19 -154 -28 -192 -19 -52 12 -90 52 -135 143 -33 66 -41 75 -49
59 -8 -15 -2 -35 25 -88 79 -157 150 -182 336 -119 37 12 70 20 74 16 16 -15
-15 57 -95 221 -70 146 -89 176 -101 168z"/>
<path d="M390 325 c0 -13 27 -15 183 -14 100 0 202 4 227 8 l45 7 -70 7 c-38
4 -141 7 -227 7 -134 0 -158 -2 -158 -15z"/>
</g>
</svg>
