<?xml version="1.0" standalone="no"?>
<!DOCTYPE svg PUBLIC "-//W3C//DTD SVG 20010904//EN"
 "http://www.w3.org/TR/2001/REC-SVG-20010904/DTD/svg10.dtd">
<svg version="1.0" xmlns="http://www.w3.org/2000/svg"
 width="197.000000pt" height="165.000000pt" viewBox="0 0 197.000000 165.000000"
 preserveAspectRatio="xMidYMid meet">
<metadata>
Created by potrace 1.16, written by Peter Selinger 2001-2019
</metadata>
<g transform="translate(0.000000,165.000000) scale(0.100000,-0.100000)"
fill="#000000" stroke="none">
<path d="M743 1286 c-172 -107 -256 -172 -332 -252 -115 -121 -129 -170 -81
-296 40 -106 109 -176 195 -199 29 -8 69 -40 158 -125 66 -63 126 -114 135
-114 10 0 -32 49 -97 114 l-113 113 43 7 42 7 96 -94 c97 -94 160 -147 177
-147 5 0 -47 56 -115 124 l-123 123 47 16 47 16 91 -88 c103 -100 164 -151
181 -151 6 0 -44 55 -112 123 -67 67 -122 125 -122 128 0 4 14 12 31 19 30 13
31 13 122 -77 111 -108 164 -153 180 -153 6 0 -46 58 -116 128 l-128 128 41
19 41 18 37 -36 c133 -129 225 -207 243 -207 8 0 -45 58 -116 130 l-129 129
35 15 c193 80 542 257 523 263 -19 6 -814 -342 -831 -364 -25 -33 -188 -44
-266 -17 -84 28 -172 160 -184 276 l-5 53 96 92 c60 58 151 129 246 192 83 56
154 101 158 101 4 0 27 -46 52 -103 24 -56 63 -142 87 -192 l43 -90 0 46 0 46
183 70 c100 39 219 87 264 106 45 20 84 33 86 29 3 -4 17 -45 32 -92 35 -107
73 -195 81 -187 8 8 -7 70 -53 215 -34 110 -36 113 -57 99 -11 -7 -50 -24 -86
-36 -36 -13 -154 -57 -263 -97 -109 -41 -200 -74 -202 -74 -5 0 -56 109 -97
208 -31 77 -45 102 -57 102 -3 0 -52 -29 -108 -64z"/>
<path d="M587 1114 c-6 -6 68 -153 145 -286 21 -36 38 -71 38 -76 0 -14 -127
-42 -187 -42 -29 0 -60 7 -79 19 -33 20 -83 92 -109 159 -19 47 -35 55 -35 17
0 -51 83 -186 130 -210 44 -23 128 -18 222 11 46 14 84 27 86 29 3 3 -90 209
-139 308 -36 70 -54 88 -72 71z"/>
</g>
</svg>
