<?xml version="1.0" standalone="no"?>
<!DOCTYPE svg PUBLIC "-//W3C//DTD SVG 20010904//EN"
 "http://www.w3.org/TR/2001/REC-SVG-20010904/DTD/svg10.dtd">
<svg version="1.0" xmlns="http://www.w3.org/2000/svg"
 width="177.000000pt" height="114.000000pt" viewBox="0 0 177.000000 114.000000"
 preserveAspectRatio="xMidYMid meet">
<metadata>
Created by potrace 1.16, written by Peter Selinger 2001-2019
</metadata>
<g transform="translate(0.000000,114.000000) scale(0.100000,-0.100000)"
fill="#000000" stroke="none">
<path d="M925 830 c-4 -6 3 -26 15 -45 12 -19 18 -35 13 -36 -4 0 -152 -15
-328 -32 l-320 -32 -3 -102 c-2 -84 0 -103 12 -103 18 0 637 -59 653 -63 8 -1
1 -19 -19 -50 -23 -36 -28 -51 -20 -59 14 -14 6 -25 84 107 99 167 94 148 59
210 l-31 54 52 16 c28 8 69 15 91 15 43 0 143 -37 225 -83 29 -16 55 -27 58
-24 14 14 -193 122 -255 133 -44 9 -152 -12 -167 -32 -10 -12 -20 -1 -55 60
-44 76 -52 85 -64 66z m103 -176 c29 -42 52 -80 52 -86 0 -5 -21 -38 -46 -73
-40 -57 -48 -64 -72 -60 -15 3 -96 14 -181 24 -84 11 -154 21 -156 23 -4 6 11
197 17 203 6 6 256 42 304 44 27 1 36 -7 82 -75z m-425 -71 c5 -99 4 -103 -15
-103 -20 0 -20 4 -13 98 6 88 12 119 20 110 1 -2 5 -49 8 -105z m-53 2 c0 -89
-1 -95 -20 -95 -19 0 -20 4 -14 83 7 94 9 107 24 107 6 0 10 -36 10 -95z
m-130 0 c0 -80 -1 -85 -21 -85 -21 0 -21 3 -14 78 6 64 15 91 33 92 1 0 2 -38
2 -85z m70 -6 c0 -79 -2 -90 -16 -85 -9 3 -20 6 -24 6 -5 0 -7 24 -4 53 9 96
15 117 29 117 12 0 15 -18 15 -91z m-130 6 c0 -68 -2 -75 -20 -75 -15 0 -20 7
-20 29 0 62 13 121 26 121 11 0 14 -18 14 -75z"/>
<path d="M1380 494 c-142 -74 -168 -78 -307 -48 -26 5 -33 3 -33 -9 0 -10 16
-19 50 -26 76 -16 143 -13 195 9 63 27 185 100 185 111 0 11 9 15 -90 -37z"/>
</g>
</svg>
