<?xml version="1.0" standalone="no"?>
<!DOCTYPE svg PUBLIC "-//W3C//DTD SVG 20010904//EN"
 "http://www.w3.org/TR/2001/REC-SVG-20010904/DTD/svg10.dtd">
<svg version="1.0" xmlns="http://www.w3.org/2000/svg"
 width="169.000000pt" height="93.000000pt" viewBox="0 0 169.000000 93.000000"
 preserveAspectRatio="xMidYMid meet">
<metadata>
Created by potrace 1.16, written by Peter Selinger 2001-2019
</metadata>
<g transform="translate(0.000000,93.000000) scale(0.100000,-0.100000)"
fill="#000000" stroke="none">
<path d="M305 619 c-4 -6 -6 -80 -4 -165 l4 -154 268 0 c151 0 267 4 267 9 0
5 -31 37 -70 71 -38 34 -70 65 -70 69 0 3 32 41 71 85 53 59 67 81 57 87 -20
13 -515 11 -523 -2z m430 -89 c-41 -42 -75 -79 -75 -83 0 -4 35 -35 78 -68
l77 -62 -160 6 c-88 4 -199 7 -246 7 l-86 0 4 128 c2 70 6 132 8 139 3 9 65
11 239 10 l236 -2 -75 -75z"/>
<path d="M857 615 c-4 -8 -3 -15 2 -15 5 0 12 -59 16 -131 7 -120 6 -131 -11
-144 -11 -7 -16 -16 -13 -19 5 -5 294 30 457 55 100 16 102 31 3 23 l-80 -7 5
79 c9 131 3 124 86 124 120 0 70 11 -119 25 -357 28 -340 27 -346 10z m103
-151 l0 -124 -30 0 -30 0 0 99 c0 136 5 159 36 153 24 -4 24 -5 24 -128z m80
6 l0 -120 -33 0 -32 0 7 88 c3 48 7 102 7 120 1 27 5 32 26 32 l25 0 0 -120z
m64 114 c13 -5 16 -25 16 -115 l0 -109 -31 0 -31 0 7 108 c8 127 9 128 39 116z
m106 -93 c0 -49 3 -96 6 -105 5 -13 -2 -16 -36 -16 l-43 0 7 53 c3 28 6 76 6
105 0 51 0 52 30 52 l30 0 0 -89z"/>
</g>
</svg>
