<?xml version="1.0" standalone="no"?>
<!DOCTYPE svg PUBLIC "-//W3C//DTD SVG 20010904//EN"
 "http://www.w3.org/TR/2001/REC-SVG-20010904/DTD/svg10.dtd">
<svg version="1.0" xmlns="http://www.w3.org/2000/svg"
 width="177.000000pt" height="119.000000pt" viewBox="0 0 177.000000 119.000000"
 preserveAspectRatio="xMidYMid meet">
<metadata>
Created by potrace 1.16, written by Peter Selinger 2001-2019
</metadata>
<g transform="translate(0.000000,119.000000) scale(0.100000,-0.100000)"
fill="#000000" stroke="none">
<path d="M650 878 c-1 -7 -37 -40 -81 -73 -44 -33 -76 -61 -70 -63 5 -2 44 20
86 48 41 28 81 53 88 56 11 4 128 -78 173 -121 6 -6 13 -64 16 -136 l5 -125
-90 -69 c-49 -39 -95 -73 -101 -77 -6 -4 -8 -10 -4 -13 7 -7 98 48 158 95 31
25 53 30 210 50 96 12 207 28 247 35 l72 12 -20 -29 c-12 -16 -19 -31 -16 -34
2 -2 36 33 76 79 99 118 99 126 -22 206 -100 66 -133 79 -77 30 l35 -30 -65 5
c-36 3 -141 11 -235 17 l-170 12 -87 59 c-49 32 -88 63 -88 68 0 15 -40 12
-40 -2z m290 -282 c0 -104 -3 -125 -16 -130 -41 -16 -43 -11 -37 112 6 138 6
142 33 142 19 0 20 -6 20 -124z m87 2 c2 -119 -1 -128 -45 -128 -23 0 -23 1
-17 88 10 139 13 152 38 152 21 0 22 -4 24 -112z m78 8 c4 -57 4 -109 1 -115
-4 -6 -20 -11 -36 -11 l-28 0 4 63 c11 150 14 167 34 167 16 0 19 -12 25 -104z
m80 94 c11 0 13 -22 12 -102 l-2 -103 -32 -3 -33 -3 0 58 c0 102 11 165 27
159 8 -4 21 -6 28 -6z m220 -32 c25 -17 45 -36 45 -40 0 -5 -18 -33 -40 -62
l-40 -53 -71 -7 c-39 -4 -73 -5 -76 -2 -3 3 -2 48 2 101 l7 95 64 0 c55 0 69
-4 109 -32z"/>
<path d="M300 726 c0 -14 14 -16 105 -16 63 0 105 4 105 10 0 6 -24 10 -52 10
-29 0 -77 3 -105 6 -45 6 -53 4 -53 -10z"/>
<path d="M300 440 c0 -6 33 -10 78 -10 l77 0 84 -65 c74 -57 122 -80 121 -57
-1 4 -39 32 -86 62 -51 33 -79 56 -70 58 9 2 14 8 11 13 -8 12 -215 12 -215
-1z"/>
</g>
</svg>
