<?xml version="1.0" standalone="no"?>
<!DOCTYPE svg PUBLIC "-//W3C//DTD SVG 20010904//EN"
 "http://www.w3.org/TR/2001/REC-SVG-20010904/DTD/svg10.dtd">
<svg version="1.0" xmlns="http://www.w3.org/2000/svg"
 width="160.000000pt" height="98.000000pt" viewBox="0 0 160.000000 98.000000"
 preserveAspectRatio="xMidYMid meet">
<metadata>
Created by potrace 1.16, written by Peter Selinger 2001-2019
</metadata>
<g transform="translate(0.000000,98.000000) scale(0.100000,-0.100000)"
fill="#000000" stroke="none">
<path d="M350 616 c0 -59 -2 -66 -20 -66 -25 0 -35 -35 -27 -102 4 -28 8 -52
9 -54 2 -1 151 -24 331 -50 l327 -47 44 31 c43 31 47 32 158 33 126 1 114 13
-24 24 l-83 7 -55 -37 c-45 -30 -61 -36 -90 -32 -207 31 -586 101 -592 110
-10 16 -10 59 0 75 11 16 642 31 642 14 0 -5 24 -25 52 -42 l52 -33 99 12 c55
7 100 11 102 9 2 -2 8 -34 13 -73 l9 -70 2 71 c1 60 -2 73 -16 79 -10 4 -64 7
-121 5 -101 -2 -103 -1 -142 30 -40 31 -40 32 -40 101 0 57 -3 69 -16 69 -14
0 -15 -9 -9 -68 l7 -69 -31 5 c-31 4 -31 4 -31 68 0 53 -3 64 -16 64 -15 0
-16 -9 -10 -65 l7 -65 -32 0 -31 0 3 62 c3 43 0 62 -8 65 -10 4 -13 -13 -13
-61 l0 -66 -38 0 -38 0 4 65 c4 56 2 65 -13 65 -14 0 -16 -9 -13 -65 l3 -65
-36 0 -37 0 6 65 c4 56 2 65 -12 65 -13 0 -16 -11 -16 -65 l0 -65 -40 0 -40 0
0 65 c0 37 -4 65 -10 65 -6 0 -10 -28 -10 -65 l0 -65 -31 0 -31 0 6 65 c5 53
3 65 -9 65 -12 0 -15 -14 -15 -65 l0 -65 -31 0 -31 0 4 62 c2 43 -1 63 -9 65
-10 4 -13 -13 -13 -61z"/>
</g>
</svg>
