<?xml version="1.0" standalone="no"?>
<!DOCTYPE svg PUBLIC "-//W3C//DTD SVG 20010904//EN"
 "http://www.w3.org/TR/2001/REC-SVG-20010904/DTD/svg10.dtd">
<svg version="1.0" xmlns="http://www.w3.org/2000/svg"
 width="198.000000pt" height="119.000000pt" viewBox="0 0 198.000000 119.000000"
 preserveAspectRatio="xMidYMid meet">
<metadata>
Created by potrace 1.16, written by Peter Selinger 2001-2019
</metadata>
<g transform="translate(0.000000,119.000000) scale(0.100000,-0.100000)"
fill="#000000" stroke="none">
<path d="M757 883 c-14 -14 -4 -24 93 -99 55 -42 100 -78 100 -79 0 -4 -373
49 -496 70 -77 14 -144 25 -148 25 -4 0 -6 -97 -4 -215 3 -185 5 -214 18 -210
28 8 304 53 434 70 107 14 130 15 137 4 6 -11 9 -10 15 4 3 9 15 17 26 17 14
0 -13 -26 -78 -76 -55 -41 -100 -80 -102 -85 -8 -21 86 -6 196 32 138 47 314
94 542 144 181 39 195 43 188 50 -14 15 -630 -118 -762 -164 -33 -12 -61 -21
-63 -21 -3 0 113 98 186 157 2 1 2 6 -1 9 -4 3 -17 -1 -30 -9 -12 -8 -40 -17
-60 -20 l-38 -6 0 105 0 104 31 0 c18 0 47 -9 65 -21 65 -40 33 0 -61 76 -52
43 -95 79 -95 81 0 1 33 -8 73 -22 108 -37 278 -78 512 -123 116 -23 218 -43
228 -45 9 -2 17 0 17 4 0 5 -26 14 -57 20 -203 41 -506 119 -659 170 -183 61
-196 65 -207 53z m-391 -131 c7 -4 13 -67 16 -169 l5 -163 -28 0 -29 0 0 170
c0 172 3 184 36 162z m97 -160 c7 -152 5 -161 -35 -162 -16 0 -18 14 -18 159
l0 158 23 -4 c23 -5 24 -8 30 -151z m81 46 c10 -145 8 -188 -8 -188 -8 0 -22
-3 -30 -6 -15 -6 -16 8 -12 137 2 79 4 145 5 147 1 1 9 2 20 2 16 0 19 -11 25
-92z m86 -48 c3 -69 5 -125 5 -126 0 -1 -15 -4 -32 -7 l-33 -6 0 135 0 135 28
-3 27 -3 5 -125z m74 104 c3 -9 6 -62 6 -120 0 -103 0 -104 -25 -110 -14 -4
-27 -5 -29 -3 -1 2 0 59 2 127 4 109 6 122 22 122 10 0 21 -7 24 -16z m89 -61
c4 -38 7 -89 7 -115 l0 -48 -35 0 -35 0 0 115 0 115 29 0 c28 0 28 -1 34 -67z
m73 59 c6 -4 14 -53 18 -109 l7 -103 -36 0 -35 0 0 110 c0 98 2 110 18 110 9
0 22 -4 28 -8z"/>
</g>
</svg>
