<?xml version="1.0" standalone="no"?>
<!DOCTYPE svg PUBLIC "-//W3C//DTD SVG 20010904//EN"
 "http://www.w3.org/TR/2001/REC-SVG-20010904/DTD/svg10.dtd">
<svg version="1.0" xmlns="http://www.w3.org/2000/svg"
 width="152.000000pt" height="121.000000pt" viewBox="0 0 152.000000 121.000000"
 preserveAspectRatio="xMidYMid meet">
<metadata>
Created by potrace 1.16, written by Peter Selinger 2001-2019
</metadata>
<g transform="translate(0.000000,121.000000) scale(0.100000,-0.100000)"
fill="#000000" stroke="none">
<path d="M431 833 c1 -43 4 -89 8 -103 6 -21 8 -18 14 24 12 87 9 156 -8 156
-12 0 -15 -15 -14 -77z"/>
<path d="M527 893 c-11 -11 -8 -193 3 -193 6 0 10 40 10 100 0 100 -1 106 -13
93z"/>
<path d="M606 863 c-9 -9 -7 -166 3 -181 5 -9 10 6 14 40 13 105 6 164 -17
141z"/>
<path d="M690 748 c0 -107 16 -129 22 -29 l3 54 57 -69 c52 -62 55 -70 38 -78
-15 -7 -267 32 -386 60 -17 4 -31 -9 -73 -65 l-53 -71 30 -37 c17 -21 43 -51
60 -66 l29 -28 144 26 c79 14 163 30 186 35 43 10 73 5 73 -11 0 -5 -27 -42
-59 -81 -54 -66 -65 -88 -42 -88 5 0 32 34 60 75 55 79 66 91 75 76 4 -5 23
-4 48 4 24 7 86 15 138 19 52 4 114 9 138 12 l42 6 0 63 0 63 -102 7 c-57 3
-130 11 -163 17 -33 6 -74 11 -90 10 -27 0 -37 9 -85 79 -30 43 -58 79 -62 79
-5 0 -8 9 -8 20 0 11 -4 20 -10 20 -6 0 -10 -41 -10 -102z m-55 -123 l140 -21
-28 -18 c-35 -23 -35 -49 1 -66 15 -7 23 -14 17 -16 -5 -2 -88 -17 -183 -32
l-173 -29 -32 46 c-18 25 -36 52 -41 59 -4 7 9 31 35 63 42 49 44 50 84 43 22
-4 103 -17 180 -29z m225 -75 l0 -81 -25 18 c-19 14 -24 27 -25 62 0 42 20 81
42 81 4 0 8 -36 8 -80z m68 3 c2 -36 -1 -63 -7 -63 -5 0 -16 -3 -25 -6 -14 -5
-16 4 -16 66 0 68 1 71 23 68 20 -3 22 -9 25 -65z m62 18 c0 -22 3 -46 6 -55
5 -12 0 -16 -20 -16 -28 0 -32 16 -20 79 9 46 34 40 34 -8z m65 31 c6 -4 11
-28 13 -54 4 -48 4 -48 -28 -48 -25 0 -31 3 -26 16 3 9 6 33 6 55 0 38 12 48
35 31z m85 -52 c0 -47 -2 -50 -25 -50 -23 0 -25 3 -25 50 0 47 2 50 25 50 23
0 25 -3 25 -50z m60 0 c0 -43 -3 -50 -20 -50 -17 0 -20 7 -20 50 0 43 3 50 20
50 17 0 20 -7 20 -50z m-417 0 c3 -11 2 -20 -3 -20 -12 0 -31 26 -23 33 11 12
21 7 26 -13z"/>
</g>
</svg>
