<?xml version="1.0" standalone="no"?>
<!DOCTYPE svg PUBLIC "-//W3C//DTD SVG 20010904//EN"
 "http://www.w3.org/TR/2001/REC-SVG-20010904/DTD/svg10.dtd">
<svg version="1.0" xmlns="http://www.w3.org/2000/svg"
 width="106.000000pt" height="159.000000pt" viewBox="0 0 106.000000 159.000000"
 preserveAspectRatio="xMidYMid meet">
<metadata>
Created by potrace 1.16, written by Peter Selinger 2001-2019
</metadata>
<g transform="translate(0.000000,159.000000) scale(0.100000,-0.100000)"
fill="#000000" stroke="none">
<path d="M683 1218 l-48 -73 1 -110 c1 -99 19 -202 49 -276 4 -11 -22 -51 -85
-128 -50 -61 -93 -111 -96 -111 -2 0 -1 147 2 326 7 318 7 326 -12 322 -18 -3
-19 -15 -15 -318 2 -188 7 -320 13 -327 7 -9 -13 -38 -72 -103 -46 -49 -84
-90 -86 -90 -2 0 -1 176 3 390 l6 390 -21 0 c-22 0 -22 -1 -22 -223 0 -285 11
-587 21 -587 17 0 197 181 289 290 114 136 115 137 102 153 -14 17 -49 194
-58 289 -7 85 -7 86 68 185 36 47 42 73 18 73 -4 0 -30 -33 -57 -72z"/>
<path d="M555 1200 c-10 -16 5 -554 15 -543 14 14 17 546 3 550 -6 2 -14 -1
-18 -7z"/>
<path d="M391 858 c1 -150 4 -304 8 -343 l7 -70 7 75 c4 41 8 195 10 343 2
249 1 267 -15 267 -17 0 -18 -19 -17 -272z"/>
</g>
</svg>
