<?xml version="1.0" standalone="no"?>
<!DOCTYPE svg PUBLIC "-//W3C//DTD SVG 20010904//EN"
 "http://www.w3.org/TR/2001/REC-SVG-20010904/DTD/svg10.dtd">
<svg version="1.0" xmlns="http://www.w3.org/2000/svg"
 width="173.000000pt" height="132.000000pt" viewBox="0 0 173.000000 132.000000"
 preserveAspectRatio="xMidYMid meet">
<metadata>
Created by potrace 1.16, written by Peter Selinger 2001-2019
</metadata>
<g transform="translate(0.000000,132.000000) scale(0.100000,-0.100000)"
fill="#000000" stroke="none">
<path d="M1239 1013 c0 -4 0 -74 1 -156 l2 -147 -124 71 c-68 40 -171 100
-229 134 -151 88 -146 88 -216 10 l-58 -66 -151 7 c-114 5 -153 4 -159 -6 -14
-22 10 -25 158 -20 81 3 147 5 147 5 -5 0 -50 -104 -50 -117 0 -16 -11 -18
-130 -18 l-131 0 3 -112 3 -113 158 4 159 3 28 -34 c15 -19 46 -46 68 -62 l40
-28 237 137 c130 75 239 135 241 132 3 -3 8 -80 11 -171 l6 -166 89 0 88 0 -2
358 -3 357 -92 3 c-51 1 -93 -1 -94 -5z m165 -140 c11 -231 10 -558 -3 -557
-6 1 -38 2 -72 3 l-61 1 3 318 c2 174 5 325 7 334 4 18 25 24 83 27 l36 1 7
-127z m-409 -52 c132 -71 241 -136 243 -143 2 -9 -22 -26 -59 -43 -35 -17
-146 -76 -247 -132 -102 -55 -190 -99 -196 -96 -19 8 -100 112 -126 161 -37
71 -34 149 8 227 31 57 113 155 129 155 5 0 116 -59 248 -129z m-441 -175 c4
-25 18 -66 31 -91 l23 -47 -138 4 c-76 2 -141 6 -143 8 -3 3 -2 40 0 82 l6 77
31 4 c17 2 65 5 107 5 l77 2 6 -44z"/>
</g>
</svg>
