<?xml version="1.0" standalone="no"?>
<!DOCTYPE svg PUBLIC "-//W3C//DTD SVG 20010904//EN"
 "http://www.w3.org/TR/2001/REC-SVG-20010904/DTD/svg10.dtd">
<svg version="1.0" xmlns="http://www.w3.org/2000/svg"
 width="205.000000pt" height="132.000000pt" viewBox="0 0 205.000000 132.000000"
 preserveAspectRatio="xMidYMid meet">
<metadata>
Created by potrace 1.16, written by Peter Selinger 2001-2019
</metadata>
<g transform="translate(0.000000,132.000000) scale(0.100000,-0.100000)"
fill="#000000" stroke="none">
<path d="M1550 1013 c-1 -5 -1 -74 0 -155 l1 -147 -208 121 c-252 146 -274
158 -290 158 -17 0 -110 -107 -145 -168 l-30 -53 -142 3 -141 3 3 -47 4 -48
-151 0 c-126 0 -151 -2 -151 -15 0 -12 22 -13 150 -8 l150 6 0 -57 0 -58 144
3 145 4 40 -57 c23 -31 63 -73 91 -93 l50 -37 236 137 c130 75 238 134 241
131 8 -7 9 -36 11 -201 l2 -135 89 0 88 0 6 67 c4 38 7 197 7 354 0 252 -2
288 -16 293 -23 9 -184 7 -184 -1z m164 -140 c12 -267 12 -558 -2 -557 -6 1
-40 2 -73 3 l-62 1 7 263 c3 144 6 294 6 334 0 79 -1 79 81 82 l36 1 7 -127z
m-409 -52 c132 -71 241 -136 243 -143 1 -8 -34 -32 -90 -59 -51 -26 -163 -86
-248 -133 l-155 -87 -51 55 c-107 113 -133 219 -83 326 23 49 121 170 138 170
3 0 114 -58 246 -129z m-438 -123 c-1 -29 2 -71 6 -92 l8 -39 -47 7 c-26 3
-84 6 -130 6 l-84 0 0 63 c0 112 -6 107 130 107 l118 0 -1 -52z"/>
</g>
</svg>
