<?xml version="1.0" standalone="no"?>
<!DOCTYPE svg PUBLIC "-//W3C//DTD SVG 20010904//EN"
 "http://www.w3.org/TR/2001/REC-SVG-20010904/DTD/svg10.dtd">
<svg version="1.0" xmlns="http://www.w3.org/2000/svg"
 width="160.000000pt" height="105.000000pt" viewBox="0 0 160.000000 105.000000"
 preserveAspectRatio="xMidYMid meet">
<metadata>
Created by potrace 1.16, written by Peter Selinger 2001-2019
</metadata>
<g transform="translate(0.000000,105.000000) scale(0.100000,-0.100000)"
fill="#000000" stroke="none">
<path d="M768 743 c-16 -4 -18 -18 -18 -107 l0 -102 -147 4 -147 5 -44 48
c-24 27 -52 59 -62 71 -15 19 -21 21 -32 10 -11 -11 -1 -25 55 -79 l68 -66
-73 -74 c-53 -53 -69 -76 -61 -84 11 -11 42 18 118 109 l27 32 147 0 148 0 7
-61 c3 -34 6 -82 6 -106 0 -34 4 -44 14 -41 8 2 67 51 130 111 113 106 115
107 164 107 92 0 232 13 232 21 0 5 -67 9 -148 9 l-148 0 -103 98 c-112 105
-108 102 -133 95z m137 -138 c39 -32 72 -59 74 -61 2 -2 -41 -51 -94 -109 -54
-58 -100 -103 -103 -101 -2 3 -1 86 3 186 l8 181 21 -19 c11 -10 53 -45 91
-77z"/>
</g>
</svg>
