<?xml version="1.0" standalone="no"?>
<!DOCTYPE svg PUBLIC "-//W3C//DTD SVG 20010904//EN"
 "http://www.w3.org/TR/2001/REC-SVG-20010904/DTD/svg10.dtd">
<svg version="1.0" xmlns="http://www.w3.org/2000/svg"
 width="135.000000pt" height="269.000000pt" viewBox="0 0 135.000000 269.000000"
 preserveAspectRatio="xMidYMid meet">
<metadata>
Created by potrace 1.16, written by Peter Selinger 2001-2019
</metadata>
<g transform="translate(0.000000,269.000000) scale(0.100000,-0.100000)"
fill="#000000" stroke="none">
<path d="M520 2366 c-100 -30 -150 -52 -150 -67 0 -6 -7 -17 -16 -23 -22 -17
-54 -157 -54 -238 0 -82 27 -163 96 -281 47 -84 49 -85 98 -96 132 -28 153
-27 326 25 127 38 164 52 171 69 4 11 20 81 35 155 29 147 28 207 -1 296 -17
50 -19 53 -108 99 -174 91 -257 104 -397 61z m268 -42 c35 -9 89 -26 120 -39
55 -22 58 -25 80 -85 24 -68 29 -122 17 -212 l-7 -58 -37 0 c-35 0 -37 2 -69
73 -17 39 -32 75 -32 80 0 4 33 7 73 8 58 1 66 3 42 9 -16 5 -157 10 -313 12
-256 3 -282 1 -282 -13 0 -9 6 -19 13 -22 11 -4 87 -120 87 -133 0 -2 -22 -4
-50 -4 -45 0 -50 -2 -50 -22 l0 -21 306 7 307 7 -7 -78 c-4 -43 -9 -79 -11
-81 -2 -3 -46 -13 -97 -23 -51 -11 -121 -26 -155 -34 -63 -16 -128 -11 -241
17 -49 12 -53 18 -94 137 -41 122 -46 197 -19 315 26 109 21 105 151 147 99
33 174 36 268 13z m-263 -311 c22 -37 41 -70 43 -74 2 -4 -12 -6 -30 -4 -29 2
-35 8 -64 74 -33 70 -33 71 -10 71 16 0 31 -16 61 -67z m100 0 c22 -37 41 -69
42 -72 2 -3 -15 -6 -37 -6 -39 0 -40 1 -70 68 -16 37 -30 69 -30 72 0 3 13 5
28 5 24 0 34 -10 67 -67z m120 0 c22 -38 42 -72 44 -76 1 -4 -20 -7 -48 -5
l-51 3 -35 73 -34 72 42 0 c42 0 43 -1 82 -67z m119 -9 l46 -75 -50 3 -50 3
-35 73 -34 72 39 0 c37 0 40 -2 84 -76z"/>
<path d="M555 1021 c-125 -34 -190 -64 -179 -83 3 -5 -3 -12 -14 -15 -13 -3
-24 -19 -31 -46 -52 -198 -42 -282 57 -462 36 -65 58 -93 78 -102 17 -7 76
-12 141 -13 103 0 124 3 244 40 72 21 134 42 137 45 10 10 62 290 62 336 0 26
-9 76 -20 112 l-20 66 -93 49 c-164 89 -245 105 -362 73z m252 -57 c94 -24
153 -54 169 -86 30 -57 42 -147 31 -230 l-10 -78 -59 0 -58 0 0 80 0 80 60 0
c33 0 60 4 60 8 0 9 -304 22 -507 22 -105 0 -113 -1 -113 -19 0 -15 8 -21 33
-23 l32 -3 3 -67 3 -68 -36 0 c-28 0 -35 -4 -35 -19 0 -19 9 -19 268 -15 147
2 284 6 305 9 42 6 42 7 31 -103 l-7 -60 -66 -12 c-36 -6 -100 -20 -143 -31
-42 -10 -98 -19 -125 -19 -62 0 -203 34 -214 51 -4 8 -22 56 -39 108 -43 129
-48 213 -21 320 11 46 26 89 31 96 13 16 137 62 200 75 52 10 129 4 207 -16z
m-67 -272 c0 -20 3 -54 6 -74 l7 -38 -53 0 -53 0 7 38 c3 20 6 53 6 72 0 34 2
35 40 37 40 3 40 2 40 -35z m113 -34 c2 -40 3 -75 2 -78 -2 -3 -22 -4 -44 -2
l-41 4 0 74 0 74 39 0 38 0 6 -72z m-313 45 c0 -10 3 -42 6 -70 l7 -53 -43 0
-43 0 7 46 c3 26 6 57 6 70 0 20 5 24 30 24 22 0 30 -5 30 -17z m90 -53 l0
-70 -30 0 -30 0 0 70 0 70 30 0 30 0 0 -70z"/>
</g>
</svg>
