<?xml version="1.0" standalone="no"?>
<!DOCTYPE svg PUBLIC "-//W3C//DTD SVG 20010904//EN"
 "http://www.w3.org/TR/2001/REC-SVG-20010904/DTD/svg10.dtd">
<svg version="1.0" xmlns="http://www.w3.org/2000/svg"
 width="136.000000pt" height="131.000000pt" viewBox="0 0 136.000000 131.000000"
 preserveAspectRatio="xMidYMid meet">
<metadata>
Created by potrace 1.16, written by Peter Selinger 2001-2019
</metadata>
<g transform="translate(0.000000,131.000000) scale(0.100000,-0.100000)"
fill="#000000" stroke="none">
<path d="M348 992 c-26 -27 -52 -217 -45 -337 5 -99 39 -301 57 -340 8 -19 9
-19 9 2 1 12 -6 71 -15 130 -23 148 -23 288 -1 403 l18 95 67 -3 c111 -4 556
-43 562 -48 2 -3 7 -94 10 -202 5 -186 6 -194 18 -142 18 83 31 196 32 282 l0
76 -51 11 c-149 32 -577 93 -632 90 -7 0 -19 -8 -29 -17z"/>
<path d="M438 819 c-16 -6 -28 -15 -28 -19 0 -5 87 -9 193 -9 204 1 349 10
332 20 -19 12 -468 19 -497 8z"/>
<path d="M465 637 l-30 -14 40 -8 c40 -8 484 1 493 10 13 13 -19 15 -239 20
-189 5 -240 3 -264 -8z"/>
<path d="M925 487 c-33 -12 -167 -53 -298 -92 -225 -66 -271 -86 -220 -93 23
-3 313 87 483 150 114 43 115 44 103 51 -4 2 -35 -5 -68 -16z"/>
</g>
</svg>
