<?xml version="1.0" standalone="no"?>
<!DOCTYPE svg PUBLIC "-//W3C//DTD SVG 20010904//EN"
 "http://www.w3.org/TR/2001/REC-SVG-20010904/DTD/svg10.dtd">
<svg version="1.0" xmlns="http://www.w3.org/2000/svg"
 width="140.000000pt" height="142.000000pt" viewBox="0 0 140.000000 142.000000"
 preserveAspectRatio="xMidYMid meet">
<metadata>
Created by potrace 1.16, written by Peter Selinger 2001-2019
</metadata>
<g transform="translate(0.000000,142.000000) scale(0.100000,-0.100000)"
fill="#000000" stroke="none">
<path d="M625 1097 c-167 -73 -222 -138 -294 -340 l-31 -89 32 -61 c45 -84
114 -151 233 -222 54 -33 109 -66 121 -74 20 -13 32 -9 156 62 163 93 177 103
222 171 43 65 46 108 15 228 -23 93 -59 170 -98 211 -57 62 -231 148 -256 127
-9 -8 -15 -8 -20 0 -9 14 -23 12 -80 -13z m221 -62 c41 -21 90 -55 109 -76 45
-50 89 -139 114 -229 23 -81 21 -89 -42 -177 -38 -54 -312 -242 -331 -228
-221 160 -275 211 -329 313 l-38 71 51 100 c78 152 134 205 270 257 53 20 114
11 196 -31z"/>
<path d="M766 972 c-7 -11 104 -464 116 -477 14 -14 5 49 -43 285 -21 107 -39
196 -39 197 0 7 -29 2 -34 -5z"/>
<path d="M563 904 c-6 -16 93 -438 109 -464 15 -24 1 77 -38 270 -19 96 -37
183 -40 193 -7 21 -23 22 -31 1z"/>
</g>
</svg>
