<?xml version="1.0" standalone="no"?>
<!DOCTYPE svg PUBLIC "-//W3C//DTD SVG 20010904//EN"
 "http://www.w3.org/TR/2001/REC-SVG-20010904/DTD/svg10.dtd">
<svg version="1.0" xmlns="http://www.w3.org/2000/svg"
 width="189.000000pt" height="104.000000pt" viewBox="0 0 189.000000 104.000000"
 preserveAspectRatio="xMidYMid meet">
<metadata>
Created by potrace 1.16, written by Peter Selinger 2001-2019
</metadata>
<g transform="translate(0.000000,104.000000) scale(0.100000,-0.100000)"
fill="#000000" stroke="none">
<path d="M1440 726 c0 -9 -6 -16 -14 -16 -9 0 -18 -22 -25 -67 -20 -115 -20
-115 -39 -109 -9 3 -82 17 -162 32 -118 21 -160 25 -230 19 -136 -10 -149 -8
-315 50 -88 30 -162 55 -167 55 -4 0 -8 -6 -8 -14 0 -9 42 -29 112 -54 196
-69 257 -85 302 -77 92 17 337 1 482 -30 19 -4 23 5 44 95 l24 100 58 0 c40 0
58 -4 58 -12 0 -24 -30 -193 -43 -242 -12 -45 -15 -49 -47 -52 -19 -2 -149
-20 -289 -40 -140 -19 -261 -33 -270 -30 -9 2 -36 12 -61 21 -44 16 -146 14
-438 -11 l-72 -7 24 44 c29 51 106 246 106 267 0 32 -26 1 -49 -59 -60 -163
-95 -245 -107 -255 -8 -6 -14 -17 -14 -24 0 -9 17 -11 73 -6 330 30 478 33
521 11 15 -8 36 -15 47 -15 20 0 534 88 561 96 32 10 106 301 82 323 -5 5 -39
12 -76 16 -58 6 -68 4 -68 -9z"/>
</g>
</svg>
