<?xml version="1.0" standalone="no"?>
<!DOCTYPE svg PUBLIC "-//W3C//DTD SVG 20010904//EN"
 "http://www.w3.org/TR/2001/REC-SVG-20010904/DTD/svg10.dtd">
<svg version="1.0" xmlns="http://www.w3.org/2000/svg"
 width="139.000000pt" height="131.000000pt" viewBox="0 0 139.000000 131.000000"
 preserveAspectRatio="xMidYMid meet">
<metadata>
Created by potrace 1.16, written by Peter Selinger 2001-2019
</metadata>
<g transform="translate(0.000000,131.000000) scale(0.100000,-0.100000)"
fill="#000000" stroke="none">
<path d="M313 996 c-10 -11 -13 -89 -12 -313 0 -164 4 -318 8 -343 l7 -45 7
64 c4 35 7 187 7 337 l0 274 105 0 105 0 0 -94 c0 -52 3 -101 6 -110 4 -11 1
-16 -10 -16 -9 0 -16 -7 -16 -15 0 -8 -7 -15 -15 -15 -13 0 -15 -22 -15 -142
0 -79 3 -174 7 -211 11 -124 23 -48 23 154 l0 197 269 3 c148 2 273 8 277 12
7 7 23 257 17 266 -1 2 -172 5 -380 8 -329 4 -380 2 -390 -11z m599 -131 l3
-115 -45 0 -45 0 3 102 c1 57 5 109 7 116 2 6 20 12 39 12 l35 0 3 -115z m140
-2 c3 -65 4 -120 2 -122 -1 -2 -30 0 -64 4 -48 6 -60 10 -56 22 3 8 6 59 6
114 l0 99 54 0 53 0 5 -117z m-422 58 c0 -26 3 -76 6 -110 l7 -61 -43 0 c-42
0 -42 0 -36 31 3 17 6 67 6 110 l0 79 30 0 c29 0 30 -1 30 -49z m80 -23 c0
-40 3 -90 6 -110 6 -37 6 -38 -25 -38 l-31 0 0 110 0 110 25 0 c24 0 25 -2 25
-72z m92 -38 l3 -110 -32 0 -33 0 0 110 0 110 29 0 30 0 3 -110z"/>
</g>
</svg>
