<?xml version="1.0" standalone="no"?>
<!DOCTYPE svg PUBLIC "-//W3C//DTD SVG 20010904//EN"
 "http://www.w3.org/TR/2001/REC-SVG-20010904/DTD/svg10.dtd">
<svg version="1.0" xmlns="http://www.w3.org/2000/svg"
 width="131.000000pt" height="331.000000pt" viewBox="0 0 131.000000 331.000000"
 preserveAspectRatio="xMidYMid meet">
<metadata>
Created by potrace 1.16, written by Peter Selinger 2001-2019
</metadata>
<g transform="translate(0.000000,331.000000) scale(0.100000,-0.100000)"
fill="#000000" stroke="none">
<path d="M667 2990 c-13 -11 -27 -30 -30 -42 -5 -20 -17 -25 -72 -36 -83 -15
-133 -41 -173 -86 -28 -33 -52 -89 -52 -126 0 -100 99 -194 233 -222 41 -8 56
-17 72 -42 29 -45 67 -60 110 -46 19 6 39 20 45 29 5 11 36 25 75 36 38 10 64
22 62 29 -2 6 -31 18 -65 26 -34 9 -67 23 -74 33 -18 22 -59 36 -91 30 -29 -6
-77 -55 -77 -78 0 -12 -9 -11 -52 1 -254 74 -280 310 -43 383 86 27 92 27 109
-8 30 -56 116 -65 155 -15 10 13 25 24 33 24 24 0 108 31 108 40 0 7 -94 40
-115 40 -4 0 -20 11 -37 25 -36 31 -86 33 -121 5z m198 -70 c4 -6 -5 -10 -19
-10 -14 0 -26 5 -26 10 0 6 9 10 19 10 11 0 23 -4 26 -10z m-7 -441 c-20 -13
-38 -11 -38 5 0 9 8 12 26 8 19 -3 22 -7 12 -13z"/>
<path d="M693 2271 c-17 -11 -39 -33 -49 -50 -15 -25 -28 -32 -89 -46 -141
-31 -210 -101 -210 -212 0 -52 4 -68 30 -105 35 -50 134 -106 204 -115 31 -4
45 -12 51 -27 9 -24 57 -70 83 -79 28 -10 69 10 107 53 35 39 55 48 118 49 61
2 32 21 -32 21 -61 0 -65 1 -90 35 -39 51 -73 66 -112 50 -30 -13 -74 -62 -74
-84 0 -15 -8 -14 -73 8 -126 44 -195 124 -184 217 9 85 95 155 210 170 40 6
52 13 79 46 51 64 80 66 141 10 35 -33 34 -54 -4 -86 -43 -37 -91 -35 -131 4
-33 34 -38 36 -38 17 0 -18 49 -63 81 -75 35 -14 83 10 115 57 13 20 33 37 44
37 11 1 38 2 60 3 65 2 46 21 -22 21 -60 0 -63 1 -102 44 -50 54 -72 62 -113
37z m110 -491 l40 -41 -24 -25 c-41 -44 -76 -58 -110 -43 -45 18 -71 56 -58
83 41 78 91 86 152 26z"/>
<path d="M465 1520 c-11 -4 -29 -10 -40 -14 -27 -9 -80 -88 -105 -154 -40
-105 -18 -207 82 -370 33 -53 32 -29 -1 35 -93 185 -93 284 -2 417 48 69 144
89 211 44 46 -32 47 -43 3 -72 -44 -30 -104 -34 -160 -11 -44 19 -53 19 -53 1
0 -18 82 -46 135 -46 33 0 50 7 82 35 39 33 45 35 115 35 103 0 208 11 202 21
-3 5 -64 9 -136 9 l-131 0 -43 40 c-39 36 -49 40 -91 39 -27 -1 -57 -4 -68 -9z"/>
<path d="M500 1124 c-73 -24 -100 -38 -100 -51 0 -11 5 -13 18 -8 99 41 149
41 201 -3 l32 -27 -31 -30 c-26 -24 -40 -30 -78 -30 -26 0 -62 4 -80 8 -32 8
-33 8 -23 -11 8 -15 25 -22 65 -27 59 -8 94 5 135 49 22 24 32 26 101 26 43 0
106 3 141 7 97 10 45 21 -102 22 -122 1 -126 2 -150 27 -42 45 -86 61 -129 48z"/>
<path d="M427 842 c-16 -3 -18 -21 -16 -235 1 -128 4 -249 6 -269 l5 -38 88 4
c101 5 210 24 210 38 0 5 -16 6 -35 2 -19 -3 -84 -7 -144 -8 -106 -1 -110 -1
-106 19 2 11 4 31 4 44 l1 24 113 -6 c61 -3 126 -9 142 -13 21 -4 27 -3 20 4
-18 19 -131 42 -204 42 l-72 0 3 123 3 122 85 6 c92 6 176 25 187 42 4 6 -4 7
-23 3 -16 -4 -79 -10 -141 -13 l-111 -5 5 38 c3 22 6 40 8 42 5 6 214 3 239
-4 15 -3 26 -2 26 4 0 18 -239 46 -293 34z"/>
<path d="M735 769 c-4 -6 -2 -15 4 -19 12 -7 262 -1 270 6 10 9 -11 12 -136
18 -96 5 -133 4 -138 -5z"/>
<path d="M733 397 c-3 -5 -1 -13 5 -19 12 -12 272 0 272 13 0 11 -270 16 -277
6z"/>
</g>
</svg>
