<?xml version="1.0" standalone="no"?>
<!DOCTYPE svg PUBLIC "-//W3C//DTD SVG 20010904//EN"
 "http://www.w3.org/TR/2001/REC-SVG-20010904/DTD/svg10.dtd">
<svg version="1.0" xmlns="http://www.w3.org/2000/svg"
 width="167.000000pt" height="119.000000pt" viewBox="0 0 167.000000 119.000000"
 preserveAspectRatio="xMidYMid meet">
<metadata>
Created by potrace 1.16, written by Peter Selinger 2001-2019
</metadata>
<g transform="translate(0.000000,119.000000) scale(0.100000,-0.100000)"
fill="#000000" stroke="none">
<path d="M1188 883 l-146 -4 -55 -57 c-75 -77 -109 -122 -130 -168 l-18 -39
-84 3 -84 3 -3 76 c-2 50 -7 78 -15 81 -10 3 -13 -17 -13 -77 0 -80 0 -81 -25
-81 -25 0 -25 1 -25 80 0 64 -3 80 -15 80 -12 0 -15 -16 -15 -80 0 -79 0 -80
-25 -80 -25 0 -25 1 -25 80 0 64 -3 80 -15 80 -12 0 -15 -16 -15 -80 0 -73 -2
-80 -20 -80 -19 0 -20 7 -20 96 0 86 -2 95 -17 92 -16 -3 -18 -14 -14 -96 l3
-92 -56 0 c-49 0 -56 -2 -56 -20 0 -18 7 -20 55 -20 l55 0 0 -74 c0 -40 3
-102 7 -137 6 -54 8 -59 14 -34 4 17 7 79 8 138 1 87 4 109 16 114 9 3 19 2
23 -2 4 -3 9 -56 10 -116 2 -60 8 -109 13 -109 4 0 10 51 11 113 l3 112 25 0
25 0 3 -112 c4 -150 22 -148 22 2 l0 115 25 0 c25 0 25 -1 26 -87 2 -147 14
-163 23 -30 l8 117 79 0 c46 0 79 -4 79 -10 0 -6 5 -9 10 -8 6 2 30 -34 53
-80 40 -78 126 -182 151 -182 6 0 79 -2 162 -3 l151 -2 7 149 c3 82 6 214 6
293 0 130 -2 143 -17 141 -10 -1 -84 -4 -165 -5z m142 -57 c0 -32 -5 -37 -117
-109 -105 -66 -118 -77 -118 -102 0 -25 13 -37 120 -105 l120 -76 3 -50 3 -51
-153 4 -153 4 -32 36 c-26 28 -123 199 -123 215 0 2 14 5 32 6 48 4 47 12 0
12 -23 0 -42 4 -42 8 0 16 60 99 117 161 l59 65 105 6 c195 13 179 15 179 -24z
m4 -220 l6 -158 -35 31 c-19 16 -69 53 -110 81 -41 28 -75 52 -75 55 0 2 40
31 89 65 49 34 95 68 102 76 6 8 13 13 14 12 1 -2 5 -74 9 -162z"/>
</g>
</svg>
