<?xml version="1.0" standalone="no"?>
<!DOCTYPE svg PUBLIC "-//W3C//DTD SVG 20010904//EN"
 "http://www.w3.org/TR/2001/REC-SVG-20010904/DTD/svg10.dtd">
<svg version="1.0" xmlns="http://www.w3.org/2000/svg"
 width="173.000000pt" height="161.000000pt" viewBox="0 0 173.000000 161.000000"
 preserveAspectRatio="xMidYMid meet">
<metadata>
Created by potrace 1.16, written by Peter Selinger 2001-2019
</metadata>
<g transform="translate(0.000000,161.000000) scale(0.100000,-0.100000)"
fill="#000000" stroke="none">
<path d="M420 1294 c0 -9 10 -52 22 -95 11 -44 19 -80 17 -82 -2 -1 -39 -19
-81 -39 -48 -23 -78 -44 -78 -53 0 -12 20 -6 85 28 47 24 85 41 85 37 0 -4 14
-7 30 -7 17 0 33 -3 37 -6 8 -8 11 -6 -59 -40 -33 -15 -58 -33 -58 -42 0 -12
17 -7 71 21 52 26 74 32 79 24 6 -9 9 -9 11 -1 3 9 12 9 29 3 23 -9 21 -11
-42 -40 -38 -17 -68 -36 -68 -41 0 -17 16 -13 81 19 57 29 79 31 79 9 0 -6
-20 -19 -45 -30 -25 -11 -45 -27 -45 -35 0 -9 3 -14 8 -12 4 2 35 18 70 36 59
30 82 34 82 12 0 -5 -19 -19 -42 -31 -53 -26 -51 -25 -43 -38 4 -7 31 2 75 24
l70 35 6 -25 c3 -14 11 -25 16 -25 6 0 7 11 4 25 -4 14 -4 25 -2 25 2 0 42
-16 88 -36 45 -20 93 -40 105 -44 19 -8 21 -13 12 -44 -13 -48 21 -199 67
-296 33 -69 140 -230 153 -230 7 0 69 105 104 175 32 64 61 161 76 251 12 66
11 76 -13 150 -47 146 -149 291 -204 291 -24 0 -35 -9 -59 -46 -41 -63 -78
-138 -93 -188 -7 -24 -17 -43 -21 -43 -4 0 -48 20 -98 44 -67 33 -87 46 -78
55 9 9 3 10 -20 5 -30 -6 -32 -4 -42 33 -6 21 -14 53 -17 71 -4 19 -13 32 -21
32 -11 0 -13 -6 -9 -22 18 -61 19 -88 3 -88 -10 0 -21 19 -32 58 -9 31 -19 65
-22 76 -3 13 -8 15 -16 7 -7 -7 -7 -22 1 -49 16 -51 15 -62 -2 -62 -14 0 -46
87 -46 123 0 20 -16 31 -25 17 -5 -8 6 -66 21 -105 5 -11 0 -12 -24 -3 -22 8
-32 20 -36 42 -15 76 -27 106 -42 106 -10 0 -14 -6 -11 -14 28 -72 30 -131 4
-95 -7 9 -17 14 -23 12 -6 -2 -16 20 -23 50 -21 93 -32 127 -41 127 -6 0 -10
-7 -10 -16z m844 -221 c26 -32 65 -97 89 -145 l43 -87 -8 -88 c-4 -48 -18
-117 -29 -153 -22 -67 -114 -270 -122 -270 -14 0 -126 210 -151 283 -20 59
-48 216 -40 228 3 5 19 3 36 -4 28 -11 32 -18 34 -57 2 -25 10 -64 18 -88 16
-44 83 -152 95 -152 15 0 73 124 86 186 13 61 12 70 -6 118 -22 59 -75 136
-93 136 -19 0 -42 -29 -68 -86 l-24 -52 -30 16 c-16 8 -30 16 -32 17 -2 2 13
38 33 82 41 90 95 173 112 173 6 0 32 -26 57 -57z m-574 -73 c0 -5 -4 -10 -10
-10 -5 0 -10 5 -10 10 0 6 5 10 10 10 6 0 10 -4 10 -10z m75 -30 c3 -5 -1 -10
-9 -10 -9 0 -16 5 -16 10 0 6 4 10 9 10 6 0 13 -4 16 -10z m478 -52 c48 -65
60 -98 54 -158 -4 -49 -57 -190 -71 -190 -3 0 -21 31 -40 68 -33 66 -61 172
-45 172 4 0 28 -9 53 -20 59 -25 60 -11 1 18 -25 12 -45 27 -45 33 0 17 52
109 61 109 4 0 19 -15 32 -32z"/>
</g>
</svg>
