<?xml version="1.0" standalone="no"?>
<!DOCTYPE svg PUBLIC "-//W3C//DTD SVG 20010904//EN"
 "http://www.w3.org/TR/2001/REC-SVG-20010904/DTD/svg10.dtd">
<svg version="1.0" xmlns="http://www.w3.org/2000/svg"
 width="135.000000pt" height="393.000000pt" viewBox="0 0 135.000000 393.000000"
 preserveAspectRatio="xMidYMid meet">
<metadata>
Created by potrace 1.16, written by Peter Selinger 2001-2019
</metadata>
<g transform="translate(0.000000,393.000000) scale(0.100000,-0.100000)"
fill="#000000" stroke="none">
<path d="M444 3198 c4 -238 9 -435 12 -437 10 -10 12 13 18 197 3 107 8 198
11 203 4 5 32 9 64 9 l58 0 7 -92 c3 -50 6 -144 6 -210 0 -72 4 -118 10 -118
6 0 10 46 10 118 0 66 3 160 6 209 l7 91 71 4 c39 3 72 4 74 3 1 -1 5 -97 9
-214 3 -116 9 -211 13 -211 8 0 20 411 20 688 0 185 -1 192 -20 192 -19 0 -20
-7 -20 -105 l0 -105 -75 0 -75 0 0 105 c0 98 -1 105 -20 105 -18 0 -20 -8 -22
-102 l-3 -101 -37 0 c-99 3 -88 -10 -88 103 0 96 -1 100 -22 100 l-21 0 7
-432z m356 162 l0 -40 -75 0 -75 0 0 34 c0 38 5 39 113 44 37 2 37 2 37 -38z
m-190 -5 c0 -32 -3 -35 -27 -35 -16 0 -45 3 -65 6 -34 6 -38 10 -38 35 0 29 0
29 65 29 l65 0 0 -35z m190 -111 c0 -47 -3 -55 -16 -50 -9 3 -42 6 -75 6 l-59
0 0 44 0 45 43 4 c23 2 57 4 75 5 l32 2 0 -56z m-190 1 l0 -45 -65 0 -65 0 0
45 0 45 65 0 65 0 0 -45z"/>
<path d="M443 1978 c4 -211 7 -407 7 -435 0 -29 5 -53 10 -53 6 0 10 34 10 83
0 46 3 138 6 204 l7 120 36 -1 36 -1 5 -202 c3 -111 8 -204 11 -207 6 -7 19
220 19 341 l0 73 34 0 c22 0 36 -6 40 -16 3 -9 6 -101 6 -204 0 -104 4 -191 9
-194 5 -3 12 87 16 203 l7 209 47 5 c25 3 47 4 49 3 1 -2 5 -98 9 -215 3 -116
9 -211 13 -211 8 0 20 411 20 688 0 185 -1 192 -20 192 -18 0 -20 -7 -20 -61
l0 -60 -47 3 -48 3 -3 58 c-3 49 -6 57 -22 57 -17 0 -20 -7 -20 -55 l0 -55
-35 0 -35 0 0 55 c0 48 -2 55 -20 55 -18 0 -20 -7 -20 -55 l0 -55 -35 0 -35 0
0 55 c0 50 -2 55 -22 55 l-21 0 6 -382z m217 208 c0 -32 -2 -34 -27 -31 -16 2
-31 4 -35 4 -5 1 -8 12 -8 25 0 20 6 25 33 29 17 2 33 5 35 5 1 1 2 -13 2 -32z
m140 -1 l0 -35 -50 0 -50 0 0 35 0 35 50 0 50 0 0 -35z m-250 0 c0 -22 -4 -25
-35 -25 -31 0 -35 3 -35 25 0 22 4 25 35 25 31 0 35 -3 35 -25z m250 -95 l0
-40 -50 0 c-50 0 -50 0 -50 33 0 43 5 47 57 47 l43 0 0 -40z m-250 -4 c0 -32
-2 -33 -35 -32 -33 1 -35 3 -35 34 0 30 2 32 35 32 33 0 35 -2 35 -34z m110
-1 c0 -33 -2 -35 -35 -35 -33 0 -35 2 -35 35 0 33 2 35 35 35 33 0 35 -2 35
-35z m140 -111 c0 -47 -3 -55 -16 -50 -9 3 -31 6 -50 6 -34 0 -34 1 -34 44 0
48 6 53 68 55 l32 1 0 -56z m-248 5 c2 -22 2 -42 -1 -45 -2 -2 -19 -4 -38 -4
-33 0 -33 1 -33 45 0 44 0 45 34 45 32 0 34 -2 38 -41z m108 -4 c0 -45 0 -45
-35 -45 -35 0 -35 0 -35 45 0 45 0 45 35 45 35 0 35 0 35 -45z"/>
<path d="M300 698 c0 -278 8 -428 21 -373 4 17 7 60 8 98 l1 67 39 0 c35 0 39
-3 45 -31 3 -17 6 -60 6 -95 0 -36 4 -64 10 -64 6 0 10 38 10 95 l0 95 39 0
c38 0 38 0 45 -46 3 -26 6 -70 6 -98 0 -37 3 -47 10 -36 5 8 10 52 10 98 l0
82 55 0 55 0 1 -57 c0 -32 4 -76 8 -98 7 -35 9 -28 15 57 l8 96 39 4 c21 2 43
2 48 0 7 -2 11 -40 11 -98 0 -125 18 -122 22 4 l3 97 43 3 42 3 0 -100 c0 -61
4 -101 10 -101 6 0 10 40 10 100 l0 100 50 0 c28 0 50 5 50 10 0 6 -20 10 -43
10 -24 0 -46 2 -48 4 -2 3 -3 25 -1 50 l4 46 44 0 c24 0 44 5 44 10 0 6 -20
10 -45 10 l-45 0 0 40 c0 40 0 40 39 40 22 0 43 5 46 10 4 6 -12 10 -39 10
l-46 0 0 40 0 40 48 1 47 2 -47 10 -47 10 -3 56 c-2 44 -7 57 -20 59 -16 3
-18 -5 -18 -57 l0 -61 -35 0 -35 0 0 60 c0 53 -2 60 -20 60 -18 0 -20 -7 -20
-60 l0 -60 -45 0 -45 0 0 61 c0 52 -2 60 -17 57 -14 -2 -19 -15 -21 -61 l-3
-58 -46 3 -46 3 -1 55 c-1 44 -4 55 -18 58 -16 3 -18 -5 -18 -58 l0 -61 -37 3
-36 3 -1 55 c-1 44 -5 55 -18 58 -16 3 -18 -5 -18 -57 0 -60 -1 -61 -27 -61
-46 0 -55 12 -51 66 2 40 0 49 -14 52 -17 3 -18 -14 -18 -260z m110 82 c0 -28
-2 -30 -40 -30 -38 0 -40 2 -40 30 0 28 2 30 40 30 38 0 40 -2 40 -30z m110 0
c0 -28 -3 -30 -35 -30 -32 0 -35 2 -35 30 0 28 3 30 35 30 32 0 35 -2 35 -30z
m134 -2 c2 -27 0 -28 -51 -28 -52 0 -53 0 -53 31 0 30 0 30 52 27 48 -3 51 -5
52 -30z m126 2 c0 -29 -2 -30 -45 -30 -43 0 -45 1 -45 30 0 29 2 30 45 30 43
0 45 -1 45 -30z m110 -6 c0 -33 -2 -36 -22 -30 -13 3 -29 6 -35 6 -8 0 -13 13
-13 30 0 28 3 30 35 30 34 0 35 -2 35 -36z m-110 -89 c0 -35 0 -35 -45 -35
-45 0 -45 0 -45 35 0 35 0 35 45 35 45 0 45 0 45 -35z m110 -6 c0 -39 -1 -40
-32 -37 -30 3 -33 6 -36 41 -3 36 -3 37 32 37 35 0 36 -1 36 -41z m-480 1 c0
-28 -2 -30 -40 -30 -38 0 -40 2 -40 30 0 28 2 30 40 30 38 0 40 -2 40 -30z
m110 0 c0 -28 -2 -30 -38 -30 -36 0 -39 2 -39 30 0 28 3 30 39 30 36 0 38 -2
38 -30z m140 0 c0 -30 -1 -30 -55 -30 -54 0 -55 0 -55 30 0 30 1 30 55 30 54
0 55 0 55 -30z m124 -110 l1 -45 -45 1 c-43 0 -45 2 -48 33 -5 53 3 63 50 59
l41 -3 1 -45z m107 33 c1 -10 2 -33 4 -50 3 -32 2 -33 -36 -33 l-39 0 0 50 0
50 35 0 c26 0 35 -4 36 -17z m-481 -33 l0 -40 -40 0 -40 0 0 40 0 40 40 0 40
0 0 -40z m110 0 l0 -40 -40 0 -40 0 0 40 0 40 40 0 40 0 0 -40z m140 0 l0 -40
-55 0 -55 0 0 40 0 40 55 0 55 0 0 -40z"/>
<path d="M1031 723 c1 -131 5 -281 9 -333 5 -66 7 7 8 238 1 216 -2 332 -8
332 -6 0 -10 -85 -9 -237z"/>
</g>
</svg>
