<?xml version="1.0" standalone="no"?>
<!DOCTYPE svg PUBLIC "-//W3C//DTD SVG 20010904//EN"
 "http://www.w3.org/TR/2001/REC-SVG-20010904/DTD/svg10.dtd">
<svg version="1.0" xmlns="http://www.w3.org/2000/svg"
 width="123.000000pt" height="376.000000pt" viewBox="0 0 123.000000 376.000000"
 preserveAspectRatio="xMidYMid meet">
<metadata>
Created by potrace 1.16, written by Peter Selinger 2001-2019
</metadata>
<g transform="translate(0.000000,376.000000) scale(0.100000,-0.100000)"
fill="#000000" stroke="none">
<path d="M441 3453 c-22 -3 -35 -11 -38 -24 -3 -11 -12 -18 -20 -17 -17 3 -55
-83 -72 -162 -22 -103 -10 -184 44 -302 23 -51 28 -55 74 -66 137 -31 219 -37
317 -20 124 21 138 31 164 117 16 55 20 96 20 213 0 211 6 197 -103 233 -81
26 -108 29 -222 31 -71 1 -145 0 -164 -3z m169 -103 l0 -70 -46 0 c-32 0 -44
-4 -41 -12 2 -9 19 -12 46 -10 40 3 41 2 41 -27 l0 -31 -135 0 c-74 0 -135 2
-135 4 0 17 52 165 63 180 15 21 69 33 155 35 l52 1 0 -70z m216 50 c58 -12
54 -5 70 -149 l7 -64 -69 6 c-38 4 -95 7 -126 7 l-58 0 0 111 0 112 63 -6 c34
-3 85 -11 113 -17z m64 -387 c-7 -45 -17 -89 -24 -98 -10 -13 -35 -18 -119
-22 l-107 -6 1 94 c0 52 4 114 7 139 l7 45 120 5 120 5 3 -40 c2 -22 -1 -77
-8 -122z m-276 16 c4 -72 5 -133 3 -135 -6 -7 -206 35 -228 47 -22 11 -38 63
-46 152 l-6 67 135 0 135 0 7 -131z"/>
<path d="M730 3375 c0 -10 7 -14 23 -11 12 3 34 5 50 5 49 2 28 21 -23 21 -38
0 -50 -4 -50 -15z"/>
<path d="M710 3300 c0 -5 25 -10 55 -10 30 0 55 5 55 10 0 6 -25 10 -55 10
-30 0 -55 -4 -55 -10z"/>
<path d="M770 3225 c0 -16 19 -19 69 -9 48 10 37 24 -19 24 -38 0 -50 -4 -50
-15z"/>
<path d="M750 3085 c0 -16 19 -19 69 -9 48 10 37 24 -19 24 -38 0 -50 -4 -50
-15z"/>
<path d="M700 2985 c0 -16 19 -19 69 -9 48 10 37 24 -19 24 -38 0 -50 -4 -50
-15z"/>
<path d="M440 3124 c0 -14 7 -15 38 -10 20 3 45 6 55 6 10 0 15 5 12 10 -3 6
-28 10 -56 10 -39 0 -49 -3 -49 -16z"/>
<path d="M500 3065 c0 -16 36 -20 77 -9 36 10 16 24 -33 24 -32 0 -44 -4 -44
-15z"/>
<path d="M441 2593 c-22 -3 -35 -11 -38 -24 -3 -11 -13 -18 -22 -17 -22 4 -71
-137 -78 -227 -6 -78 8 -140 52 -237 28 -61 18 -56 170 -84 102 -18 148 -18
243 2 105 21 117 31 142 113 16 56 20 96 20 222 0 85 -3 163 -6 174 -4 15 -28
28 -97 50 -81 26 -107 30 -222 31 -71 1 -145 0 -164 -3z m169 -143 l0 -110
-135 0 -135 0 6 28 c13 51 44 136 59 158 15 24 39 28 153 32 l52 2 0 -110z
m180 96 l65 -14 -98 -1 c-74 -1 -98 -4 -94 -13 3 -10 32 -12 109 -10 100 3
106 2 111 -18 5 -21 4 -21 -106 -19 -81 2 -112 -1 -115 -10 -3 -9 23 -12 111
-9 l116 3 6 -58 c4 -32 5 -60 3 -63 -3 -2 -59 -1 -126 3 l-122 6 0 109 0 108
38 0 c20 -1 66 -7 102 -14z m100 -393 c-7 -45 -17 -89 -24 -98 -10 -13 -35
-18 -119 -22 l-107 -6 1 99 c0 54 3 117 7 139 l7 40 120 5 120 5 3 -40 c2 -22
-1 -77 -8 -122z m-276 16 c4 -72 5 -133 3 -135 -6 -7 -206 35 -228 47 -23 12
-39 65 -46 152 l-6 67 135 0 135 0 7 -131z"/>
<path d="M667 2403 c-19 -18 2 -23 96 -23 120 0 158 14 66 24 -80 8 -154 8
-162 -1z"/>
<path d="M660 2261 c0 -6 5 -13 10 -16 15 -9 220 6 214 16 -7 12 -224 11 -224
0z"/>
<path d="M456 1673 c-37 -3 -49 -9 -53 -24 -3 -10 -13 -19 -22 -19 -24 0 -72
-141 -79 -229 -5 -71 12 -149 49 -225 10 -22 19 -45 19 -51 0 -15 131 -45 227
-52 76 -6 206 10 259 32 26 11 33 22 52 86 18 61 22 99 22 220 0 162 -6 209
-26 209 -7 0 -49 12 -91 27 -64 21 -98 27 -193 28 -63 2 -137 1 -164 -2z m154
-143 l0 -110 -135 0 c-74 0 -135 2 -135 4 0 17 52 165 63 180 13 18 79 32 170
35 l37 1 0 -110z m213 88 c27 -5 45 -13 40 -17 -4 -4 -43 -21 -86 -37 -42 -16
-76 -33 -74 -38 2 -6 47 -26 100 -46 72 -26 97 -40 97 -52 0 -20 -39 -23 -173
-12 l-77 7 0 110 0 110 63 -7 c34 -4 84 -12 110 -18z m61 -60 c3 -13 7 -40 10
-60 l5 -37 -47 21 c-26 11 -60 26 -75 32 l-28 13 58 26 c71 32 72 32 77 5z
m16 -202 c0 -33 -3 -35 -57 -54 -119 -42 -137 -50 -141 -60 -1 -5 38 -25 87
-43 79 -30 90 -36 85 -54 -4 -11 -8 -21 -9 -23 -5 -5 -179 -17 -202 -14 -22 3
-23 8 -23 85 0 45 3 105 6 134 7 51 7 52 43 56 20 2 75 4 124 5 l87 2 0 -34z
m-286 -107 c4 -72 5 -133 2 -137 -6 -5 -141 19 -207 38 -35 10 -38 14 -53 75
-9 35 -16 85 -16 110 l0 45 134 0 133 0 7 -131z m280 4 c-3 -32 -8 -61 -10
-65 -4 -7 -123 43 -124 52 0 4 119 63 138 69 2 1 0 -25 -4 -56z"/>
<path d="M466 903 c-47 -3 -59 -8 -63 -24 -3 -10 -12 -19 -20 -19 -29 0 -83
-165 -83 -255 0 -59 12 -107 47 -195 15 -36 28 -66 29 -68 5 -10 217 -42 275
-42 76 0 207 25 226 44 6 6 21 42 32 80 18 57 21 93 20 225 0 86 -4 165 -8
175 -5 13 -36 28 -102 48 -97 31 -213 41 -353 31z m144 -143 l0 -110 -134 0
-134 0 9 39 c12 55 48 149 60 156 10 7 117 22 167 24 l32 1 0 -110z m203 88
c31 -6 57 -14 57 -18 0 -3 -32 -28 -70 -54 -76 -52 -85 -62 -71 -70 5 -3 41
18 79 48 80 62 75 65 88 -51 l7 -63 -74 0 c-41 0 -98 3 -126 6 l-53 7 0 110 0
110 53 -7 c28 -4 78 -12 110 -18z m84 -320 c-4 -51 -10 -105 -14 -120 l-8 -26
-74 59 c-40 32 -77 56 -83 53 -14 -9 6 -28 83 -80 38 -26 69 -51 69 -55 0 -8
-44 -15 -152 -24 l-78 -7 0 95 c0 52 3 115 6 140 l7 46 51 4 c28 2 84 4 125 5
l74 2 -6 -92z m-283 -49 c4 -72 4 -134 1 -137 -6 -6 -133 16 -196 34 -39 12
-47 19 -58 51 -6 21 -15 71 -18 111 l-6 72 135 0 135 0 7 -131z"/>
</g>
</svg>
