<?xml version="1.0" standalone="no"?>
<!DOCTYPE svg PUBLIC "-//W3C//DTD SVG 20010904//EN"
 "http://www.w3.org/TR/2001/REC-SVG-20010904/DTD/svg10.dtd">
<svg version="1.0" xmlns="http://www.w3.org/2000/svg"
 width="163.000000pt" height="227.000000pt" viewBox="0 0 163.000000 227.000000"
 preserveAspectRatio="xMidYMid meet">
<metadata>
Created by potrace 1.16, written by Peter Selinger 2001-2019
</metadata>
<g transform="translate(0.000000,227.000000) scale(0.100000,-0.100000)"
fill="#000000" stroke="none">
<path d="M366 1961 c-6 -9 16 -38 68 -90 l76 -76 -79 -57 c-72 -50 -82 -54
-99 -42 -18 12 -32 10 -32 -6 0 -4 27 -26 60 -50 l60 -43 -43 -31 c-64 -47
-80 -63 -72 -76 5 -8 12 -7 25 5 16 15 23 12 99 -42 l81 -58 -76 -76 c-52 -52
-74 -81 -68 -90 5 -9 31 12 88 74 l81 88 270 54 c203 41 271 51 277 42 6 -9 8
-9 8 0 0 8 39 -8 93 -37 52 -28 96 -50 98 -50 2 0 6 90 7 200 3 137 1 200 -7
200 -10 0 -88 -40 -167 -86 -30 -17 -35 -16 -310 40 l-279 56 -76 82 c-54 59
-78 78 -83 69z m282 -207 c56 -10 98 -20 93 -23 -5 -3 -11 -19 -13 -35 l-3
-29 -110 2 c-60 1 -119 3 -130 4 -12 1 -20 -4 -20 -13 0 -12 23 -16 130 -20
l130 -5 3 -31 3 -31 -77 -6 c-124 -11 -166 -9 -186 10 -17 15 -17 17 -2 35 18
19 6 26 -13 7 -8 -8 -21 -4 -47 16 l-35 27 72 59 c39 32 79 57 87 55 8 -3 61
-13 118 -22z m610 -238 l-3 -85 -82 53 c-55 35 -79 56 -74 64 4 7 6 38 5 70
l-3 57 77 46 77 47 3 -84 c1 -46 1 -122 0 -168z m-448 179 c0 -30 -3 -35 -24
-35 -31 0 -36 8 -29 43 4 20 11 27 29 27 21 0 24 -5 24 -35z m68 19 c15 -4 22
-14 22 -30 0 -20 -5 -24 -30 -24 -27 0 -30 3 -30 30 0 32 2 33 38 24z m104
-40 c-4 -20 -10 -24 -30 -22 -18 2 -26 9 -27 26 -1 18 3 22 30 22 29 0 32 -2
27 -26z m72 10 c9 -3 16 -14 16 -23 0 -14 -7 -17 -30 -13 -21 3 -30 10 -30 23
0 19 16 24 44 13z m-244 -84 c0 -27 -3 -30 -30 -30 -27 0 -30 3 -30 30 0 27 3
30 30 30 27 0 30 -3 30 -30z m88 3 c-2 -22 -9 -29 -30 -31 -25 -3 -28 0 -28
27 0 28 3 31 31 31 27 0 30 -3 27 -27z m82 -3 c0 -27 -3 -30 -30 -30 -27 0
-30 3 -30 30 0 27 3 30 30 30 27 0 30 -3 30 -30z m90 5 c0 -15 -6 -25 -14 -25
-8 0 -21 -3 -30 -6 -13 -5 -16 1 -16 25 0 28 3 31 30 31 25 0 30 -4 30 -25z
m-612 -55 l4 -23 134 7 134 7 0 -40 c0 -46 10 -41 -133 -67 -55 -9 -93 -12
-100 -6 -7 5 -38 30 -69 55 l-57 45 32 26 c37 29 51 28 55 -4z m615 -9 c5 -21
-10 -31 -49 -31 -17 0 -24 6 -24 18 0 25 9 32 41 32 18 0 28 -6 32 -19z m-173
-20 c0 -21 -6 -30 -22 -35 -40 -10 -48 -7 -48 22 0 36 6 42 42 42 24 0 28 -4
28 -29z m80 4 c0 -15 -6 -25 -14 -25 -8 0 -21 -3 -30 -6 -13 -5 -16 1 -16 25
0 28 3 31 30 31 25 0 30 -4 30 -25z m-170 -19 c0 -30 -3 -34 -30 -38 -29 -4
-30 -3 -30 34 0 36 2 38 30 38 27 0 30 -3 30 -34z"/>
<path d="M317 734 c-13 -14 -7 -23 38 -55 l46 -33 -38 -34 -37 -35 36 -31 37
-31 -34 -25 c-19 -14 -35 -27 -35 -30 0 -9 15 -26 42 -47 l28 -21 -46 -37
c-28 -23 -42 -41 -36 -47 5 -5 66 -7 138 -5 109 3 171 13 399 61 l270 57 98
-51 c100 -53 142 -62 68 -16 -23 15 -66 42 -96 62 -44 28 -59 33 -74 24 -28
-14 -81 -13 -81 3 0 24 24 37 67 37 24 0 43 5 43 11 0 7 -16 9 -50 4 l-50 -7
0 31 c0 31 1 31 53 32 l52 2 -52 10 c-41 8 -53 14 -53 28 0 21 11 23 58 10 31
-9 41 -5 123 46 83 51 111 73 93 73 -4 0 -51 -23 -104 -52 l-97 -51 -284 59
c-231 48 -306 59 -399 62 -64 2 -119 0 -123 -4z m246 -27 c3 -7 51 -21 117
-32 61 -11 107 -21 101 -23 -6 -2 -11 -19 -11 -38 0 -34 -1 -35 -33 -30 -18 3
-80 6 -139 7 -99 1 -108 3 -129 26 l-23 24 39 38 c42 40 69 50 78 28z m-73 -1
c0 -2 -16 -14 -36 -27 l-36 -22 -26 27 -27 26 63 0 c34 0 62 -2 62 -4z m358
-93 c3 -30 1 -33 -22 -33 -23 0 -26 4 -26 36 0 31 3 35 23 32 17 -2 23 -11 25
-35z m78 17 c8 0 14 -10 14 -25 0 -21 -5 -25 -30 -25 -27 0 -30 3 -30 31 0 24
3 30 16 25 9 -3 22 -6 30 -6z m-466 -29 l31 -19 -30 -21 c-32 -23 -60 -22 -81
4 -10 12 -8 19 11 35 30 24 32 24 69 1z m562 -6 c-3 -18 -11 -25 -28 -25 -19
0 -24 5 -24 25 0 21 5 25 29 25 25 0 28 -3 23 -25z m-264 -40 c6 -2 12 -18 12
-34 l0 -29 -77 -6 c-165 -12 -197 -11 -226 8 l-28 19 25 26 c25 26 26 26 153
23 70 -2 134 -5 141 -7z m92 -35 c0 -27 -3 -30 -30 -30 -27 0 -30 3 -30 30 0
27 3 30 30 30 27 0 30 -3 30 -30z m90 0 c0 -27 -3 -30 -30 -30 -27 0 -30 3
-30 30 0 27 3 30 30 30 27 0 30 -3 30 -30z m80 0 c0 -27 -3 -30 -30 -30 -25 0
-30 4 -30 23 0 30 7 37 37 37 19 0 23 -5 23 -30z m-559 -47 c43 -28 72 -31
237 -17 l72 6 0 -40 c0 -46 5 -44 -120 -67 -47 -8 -86 -20 -88 -25 -7 -19 -38
-9 -74 25 -21 20 -38 38 -38 41 0 3 10 14 23 24 12 10 19 21 16 24 -3 4 -18
-3 -32 -15 -27 -20 -37 -19 -70 9 -16 15 -16 17 5 39 12 13 23 23 25 23 2 0
22 -12 44 -27z m479 -32 c0 -29 -14 -41 -51 -41 -14 0 -19 7 -19 28 0 35 2 37
40 40 27 2 30 -1 30 -27z m83 9 c6 -22 3 -24 -35 -34 -26 -6 -28 -4 -28 24 0
26 3 30 29 30 20 0 30 -6 34 -20z m-173 -24 c0 -30 -3 -34 -30 -38 -29 -4 -30
-3 -30 34 0 36 2 38 30 38 27 0 30 -3 30 -34z m-376 -85 l30 -22 -74 2 -73 2
34 28 c19 15 38 24 44 20 5 -4 23 -17 39 -30z"/>
</g>
</svg>
