<?xml version="1.0" standalone="no"?>
<!DOCTYPE svg PUBLIC "-//W3C//DTD SVG 20010904//EN"
 "http://www.w3.org/TR/2001/REC-SVG-20010904/DTD/svg10.dtd">
<svg version="1.0" xmlns="http://www.w3.org/2000/svg"
 width="209.000000pt" height="364.000000pt" viewBox="0 0 209.000000 364.000000"
 preserveAspectRatio="xMidYMid meet">
<metadata>
Created by potrace 1.16, written by Peter Selinger 2001-2019
</metadata>
<g transform="translate(0.000000,364.000000) scale(0.100000,-0.100000)"
fill="#000000" stroke="none">
<path d="M550 3334 c-118 -9 -150 -16 -150 -30 0 -8 -7 -14 -15 -14 -37 0 -90
-180 -83 -285 5 -68 57 -220 81 -237 6 -3 51 -14 101 -24 112 -22 228 -21 321
3 59 15 72 23 84 47 13 27 16 28 60 22 200 -28 418 -56 479 -61 126 -12 118
-7 -287 176 -131 60 -177 76 -183 67 -13 -21 -11 -23 60 -53 37 -15 141 -59
232 -97 91 -38 149 -67 130 -63 -134 23 -455 75 -460 75 -4 0 -1 28 7 63 12
47 14 93 9 190 l-7 127 24 0 c21 0 398 62 457 75 14 3 -9 -8 -50 -25 -41 -17
-140 -59 -220 -92 -80 -33 -155 -64 -167 -69 -23 -8 -23 -39 0 -39 14 0 332
142 442 198 64 33 84 47 70 50 -23 5 -157 -10 -404 -44 l-174 -24 -91 29 c-92
29 -183 41 -266 35z m58 -161 c-2 -71 -6 -98 -15 -97 -7 1 -67 2 -132 3 l-119
1 14 53 c7 28 23 73 35 99 l22 47 61 5 c34 3 75 7 91 8 17 2 34 -3 38 -9 4 -7
6 -57 5 -110z m233 97 c40 -11 40 -11 55 -149 7 -64 7 -64 -17 -58 -13 4 -70
7 -126 7 l-103 0 0 111 0 112 78 -6 c42 -4 93 -11 113 -17z m59 -270 c0 -60
-19 -192 -30 -210 -9 -15 -87 -28 -172 -29 l-58 -1 0 79 c0 43 3 106 6 139 l7
61 91 4 c50 1 106 4 124 5 l32 2 0 -50z m-290 -17 c0 -32 3 -94 6 -139 l7 -81
-61 9 c-33 5 -88 17 -123 26 -58 16 -63 19 -76 57 -8 22 -17 70 -20 107 l-6
67 119 4 c65 1 127 4 137 5 14 2 17 -7 17 -55z"/>
<path d="M535 2083 c-98 -6 -135 -14 -135 -29 0 -8 -7 -14 -15 -14 -19 0 -40
-41 -65 -131 -22 -81 -26 -163 -9 -224 14 -52 60 -158 73 -167 5 -3 50 -14
100 -24 102 -20 204 -22 286 -6 33 7 233 13 505 16 404 4 518 11 489 28 -13 8
-458 129 -656 179 l-168 41 1 32 c0 17 3 26 5 20 7 -17 844 197 844 216 0 9 8
9 -280 19 -392 15 -620 14 -620 -2 0 -10 -22 -6 -82 14 -83 28 -174 38 -273
32z m73 -176 c-3 -77 -4 -81 -25 -80 -13 0 -72 1 -132 2 l-109 1 9 42 c10 40
46 136 58 150 3 4 47 11 96 15 l90 8 8 -28 c4 -15 6 -65 5 -110z m233 113 c40
-11 40 -11 55 -149 7 -64 7 -64 -17 -58 -13 4 -70 7 -126 7 l-103 0 0 108 c0
60 2 111 5 114 6 6 139 -10 186 -22z m874 -6 c-5 -2 -85 -19 -177 -39 -92 -19
-254 -55 -360 -80 -106 -25 -203 -47 -215 -50 -19 -4 -22 0 -28 58 -3 34 -9
70 -11 80 -5 16 10 17 208 18 117 1 287 5 378 9 91 3 176 7 190 7 14 1 21 0
15 -3z m-815 -264 c0 -60 -19 -192 -30 -210 -9 -15 -87 -28 -173 -29 l-59 -1
3 110 c1 61 5 124 7 140 l4 29 87 4 c47 1 103 4 124 5 l37 2 0 -50z m-290 -23
c0 -35 3 -98 6 -139 l7 -75 -61 9 c-33 5 -88 17 -123 26 -58 16 -63 19 -76 57
-8 22 -17 70 -20 107 l-6 67 114 4 c63 1 124 4 137 5 21 2 22 -2 22 -61z m538
-73 c107 -25 274 -63 371 -84 l176 -39 -135 5 c-74 2 -254 7 -400 10 l-266 6
21 74 c11 41 24 74 30 74 5 0 97 -21 203 -46z"/>
<path d="M486 903 c-47 -3 -59 -8 -63 -24 -3 -10 -11 -19 -19 -19 -19 0 -40
-44 -65 -136 -28 -103 -22 -180 22 -296 l33 -87 70 -16 c98 -22 243 -30 313
-17 34 7 238 14 488 17 237 3 446 9 465 13 33 8 32 9 -26 15 -33 3 -225 9
-426 13 l-365 7 15 49 16 48 285 1 c298 2 456 10 411 21 -23 6 -422 18 -605
18 l-80 0 3 90 3 90 288 0 c159 0 317 3 352 7 64 7 64 7 24 14 -22 5 -98 8
-170 8 -71 1 -214 4 -317 8 l-186 6 -4 44 -3 43 90 0 c156 0 738 20 743 25 3
3 3 7 0 10 -2 3 -197 8 -432 12 -312 4 -430 3 -435 -5 -5 -8 -30 -4 -86 15
-82 26 -205 36 -339 26z m144 -143 l0 -110 -134 0 -134 0 14 55 c8 30 23 75
34 99 17 41 22 45 62 50 74 10 102 13 131 15 l27 1 0 -110z m211 87 c60 -14
63 -20 75 -139 l7 -68 -80 0 c-44 0 -101 3 -127 6 l-46 7 0 109 0 110 59 -7
c33 -4 83 -12 112 -18z m76 -314 c-2 -49 -10 -109 -17 -135 -14 -53 -16 -54
-162 -63 l-78 -4 0 63 c0 35 3 97 6 139 l7 76 56 4 c31 2 87 4 125 5 l69 2 -6
-87z m-283 -54 c4 -72 5 -133 2 -137 -7 -6 -133 15 -197 34 -46 14 -47 14 -63
79 -9 35 -16 85 -16 110 l0 45 134 0 133 0 7 -131z"/>
</g>
</svg>
