<?xml version="1.0" standalone="no"?>
<!DOCTYPE svg PUBLIC "-//W3C//DTD SVG 20010904//EN"
 "http://www.w3.org/TR/2001/REC-SVG-20010904/DTD/svg10.dtd">
<svg version="1.0" xmlns="http://www.w3.org/2000/svg"
 width="181.000000pt" height="121.000000pt" viewBox="0 0 181.000000 121.000000"
 preserveAspectRatio="xMidYMid meet">
<metadata>
Created by potrace 1.16, written by Peter Selinger 2001-2019
</metadata>
<g transform="translate(0.000000,121.000000) scale(0.100000,-0.100000)"
fill="#000000" stroke="none">
<path d="M446 903 c-27 -3 -40 -10 -43 -24 -3 -10 -13 -19 -23 -19 -12 0 -24
-17 -39 -57 -54 -150 -54 -248 0 -379 l33 -82 76 -17 c118 -27 224 -30 321
-11 46 10 91 25 100 34 22 22 45 94 60 185 10 57 10 99 1 187 -7 62 -10 115
-8 117 1 2 120 2 262 1 l259 -3 -130 -27 c-363 -76 -404 -89 -365 -113 5 -3
110 19 232 50 284 70 332 85 321 96 -11 11 -184 25 -414 35 -154 6 -167 5
-177 -11 -9 -17 -14 -17 -93 10 -72 24 -102 29 -209 30 -69 2 -142 1 -164 -2z
m384 -55 c42 -13 45 -17 53 -58 14 -73 13 -298 -1 -372 l-14 -66 -43 -7 c-68
-10 -235 -7 -295 6 -136 27 -156 37 -169 77 -7 20 -15 78 -18 127 -6 97 11
184 48 257 26 51 58 58 259 53 76 -2 155 -9 180 -17z"/>
<path d="M942 533 c3 -18 23 -23 328 -87 l155 -33 -254 -7 c-140 -3 -257 -8
-259 -11 -3 -2 -2 -11 2 -20 5 -14 21 -15 118 -10 440 23 501 29 469 49 -16
10 -518 136 -541 136 -15 0 -20 -5 -18 -17z"/>
</g>
</svg>
