<?xml version="1.0" standalone="no"?>
<!DOCTYPE svg PUBLIC "-//W3C//DTD SVG 20010904//EN"
 "http://www.w3.org/TR/2001/REC-SVG-20010904/DTD/svg10.dtd">
<svg version="1.0" xmlns="http://www.w3.org/2000/svg"
 width="194.000000pt" height="121.000000pt" viewBox="0 0 194.000000 121.000000"
 preserveAspectRatio="xMidYMid meet">
<metadata>
Created by potrace 1.16, written by Peter Selinger 2001-2019
</metadata>
<g transform="translate(0.000000,121.000000) scale(0.100000,-0.100000)"
fill="#000000" stroke="none">
<path d="M446 903 c-27 -3 -40 -10 -43 -24 -3 -10 -13 -19 -23 -19 -12 0 -24
-17 -39 -57 -54 -150 -54 -248 0 -379 l33 -82 76 -17 c102 -23 234 -30 300
-16 128 27 127 27 148 84 11 28 25 78 32 110 l12 58 54 -31 c113 -63 260 -137
287 -144 23 -5 44 4 120 50 154 95 237 154 237 168 0 13 -72 64 -238 168 -95
59 -112 66 -112 47 0 -5 -4 -8 -10 -4 -10 6 -151 -62 -263 -127 -38 -22 -70
-38 -72 -36 -1 1 -7 45 -13 97 -6 51 -13 94 -14 95 -2 1 -43 15 -93 30 -75 24
-110 29 -215 31 -69 2 -142 1 -164 -2z m164 -143 l0 -110 -136 0 c-124 0 -135
1 -130 18 3 9 8 31 12 47 4 17 17 53 30 82 26 60 44 67 177 72 l47 1 0 -110z
m183 96 c37 -7 72 -17 77 -22 9 -9 29 -126 30 -171 0 -21 -5 -23 -48 -23 -27
0 -83 3 -125 6 l-77 7 0 108 0 109 38 0 c20 -1 68 -7 105 -14z m610 -130 c73
-41 154 -85 182 -99 l49 -25 -99 -50 c-55 -28 -136 -72 -181 -99 l-81 -49 -74
48 c-41 27 -114 71 -162 100 l-88 51 88 51 c48 29 119 73 158 99 38 26 71 47
73 47 2 0 63 -33 135 -74z m-503 -160 c0 -50 -24 -204 -34 -213 -6 -6 -177
-19 -203 -15 -22 3 -23 8 -23 85 0 45 3 105 6 134 8 61 4 60 152 62 l102 1 0
-54z m-286 -88 c3 -72 4 -133 1 -136 -5 -5 -143 20 -206 38 -43 12 -57 45 -66
158 l-6 72 135 0 135 0 7 -132z"/>
</g>
</svg>
