<?xml version="1.0" standalone="no"?>
<!DOCTYPE svg PUBLIC "-//W3C//DTD SVG 20010904//EN"
 "http://www.w3.org/TR/2001/REC-SVG-20010904/DTD/svg10.dtd">
<svg version="1.0" xmlns="http://www.w3.org/2000/svg"
 width="123.000000pt" height="121.000000pt" viewBox="0 0 123.000000 121.000000"
 preserveAspectRatio="xMidYMid meet">
<metadata>
Created by potrace 1.16, written by Peter Selinger 2001-2019
</metadata>
<g transform="translate(0.000000,121.000000) scale(0.100000,-0.100000)"
fill="#000000" stroke="none">
<path d="M446 903 c-27 -3 -40 -10 -43 -24 -3 -10 -13 -19 -23 -19 -12 0 -24
-17 -38 -57 -57 -157 -55 -266 6 -392 12 -25 22 -50 22 -56 0 -20 157 -50 265
-50 107 0 218 19 241 42 7 8 23 43 34 80 16 53 20 93 20 213 0 215 7 200 -108
235 -82 25 -116 30 -217 31 -66 1 -137 0 -159 -3z m164 -143 l0 -110 -136 0
c-124 0 -135 1 -130 18 3 9 8 31 12 47 4 17 17 53 30 82 26 60 44 67 177 72
l47 1 0 -110z m216 89 c58 -13 54 -6 70 -146 l7 -63 -50 0 c-28 0 -84 3 -126
6 l-77 7 0 110 0 110 63 -7 c34 -3 85 -11 113 -17z m74 -283 c0 -50 -24 -204
-34 -213 -6 -6 -177 -19 -203 -15 -22 3 -23 8 -23 91 0 49 3 109 6 134 8 54 6
54 152 56 l102 1 0 -54z m-286 -87 c4 -72 4 -134 2 -137 -6 -5 -142 20 -207
38 -35 10 -38 14 -53 75 -9 35 -16 85 -16 110 l0 45 134 0 133 0 7 -131z"/>
</g>
</svg>
