<?xml version="1.0" standalone="no"?>
<!DOCTYPE svg PUBLIC "-//W3C//DTD SVG 20010904//EN"
 "http://www.w3.org/TR/2001/REC-SVG-20010904/DTD/svg10.dtd">
<svg version="1.0" xmlns="http://www.w3.org/2000/svg"
 width="157.000000pt" height="117.000000pt" viewBox="0 0 157.000000 117.000000"
 preserveAspectRatio="xMidYMid meet">
<metadata>
Created by potrace 1.16, written by Peter Selinger 2001-2019
</metadata>
<g transform="translate(0.000000,117.000000) scale(0.100000,-0.100000)"
fill="#000000" stroke="none">
<path d="M1035 807 c-45 -69 -99 -133 -126 -148 -25 -13 -309 69 -418 121 -83
40 -84 40 -114 23 -48 -28 -68 -64 -74 -129 l-5 -59 59 -80 c62 -83 118 -129
246 -200 59 -32 73 -36 111 -31 81 13 160 59 251 150 47 47 88 86 91 86 3 0
31 -21 61 -46 54 -44 122 -84 141 -84 6 0 10 51 11 113 1 106 0 115 -26 159
-28 48 -148 188 -161 188 -4 0 -25 -28 -47 -63z m108 -33 c79 -96 100 -145
105 -246 3 -61 1 -88 -7 -88 -8 0 -88 62 -154 120 -5 5 -1 20 8 34 30 46 4 28
-84 -57 -129 -124 -184 -164 -258 -187 -36 -11 -73 -20 -83 -20 -22 0 -154 86
-210 136 -56 51 -130 156 -130 185 0 37 19 95 38 118 l17 21 102 -45 c69 -31
148 -57 250 -80 81 -18 155 -36 164 -40 24 -9 99 69 139 147 19 38 40 66 45
65 6 -2 32 -30 58 -63z"/>
</g>
</svg>
