<?xml version="1.0" standalone="no"?>
<!DOCTYPE svg PUBLIC "-//W3C//DTD SVG 20010904//EN"
 "http://www.w3.org/TR/2001/REC-SVG-20010904/DTD/svg10.dtd">
<svg version="1.0" xmlns="http://www.w3.org/2000/svg"
 width="110.000000pt" height="162.000000pt" viewBox="0 0 110.000000 162.000000"
 preserveAspectRatio="xMidYMid meet">
<metadata>
Created by potrace 1.16, written by Peter Selinger 2001-2019
</metadata>
<g transform="translate(0.000000,162.000000) scale(0.100000,-0.100000)"
fill="#000000" stroke="none">
<path d="M577 1261 c-52 -49 -66 -70 -81 -118 -32 -102 -73 -171 -109 -187
-58 -24 -81 -59 -85 -129 -3 -50 1 -71 20 -106 36 -70 66 -86 153 -84 l73 1
23 -42 22 -43 -25 -34 c-67 -90 -72 -147 -17 -193 36 -31 91 -34 162 -10 49
17 95 54 48 39 -24 -7 -23 -6 7 31 18 21 32 50 32 64 0 14 -16 64 -36 110 -53
127 -54 152 -4 322 l42 146 -62 133 c-63 136 -76 159 -91 159 -4 0 -37 -27
-72 -59z m149 -124 l55 -107 -43 6 c-99 14 -163 35 -185 60 -41 45 -25 93 48
151 52 41 45 47 125 -110z m-104 -106 c26 -6 67 -11 92 -11 56 0 56 1 15 -139
-18 -58 -34 -118 -36 -133 -3 -14 -12 -28 -22 -31 -9 -3 -39 -15 -68 -26 l-52
-21 -40 68 c-22 37 -58 93 -80 125 l-41 59 29 27 c16 15 43 55 61 90 l32 63
31 -29 c18 -17 52 -35 79 -42z m-156 -266 c30 -44 54 -86 54 -94 0 -21 -113
-10 -141 15 -46 40 -64 140 -37 200 l12 26 29 -33 c16 -19 53 -70 83 -114z
m269 -214 l35 -90 -31 -65 -31 -66 -58 0 c-51 0 -61 3 -79 26 -24 31 -27 74
-7 113 19 35 48 60 53 45 2 -6 11 -20 19 -30 15 -18 15 -18 9 6 -4 14 -8 39
-9 55 -1 20 -6 29 -16 28 -8 -2 -24 15 -36 37 l-22 39 62 29 61 29 7 -33 c4
-18 23 -74 43 -123z"/>
</g>
</svg>
