<?xml version="1.0" standalone="no"?>
<!DOCTYPE svg PUBLIC "-//W3C//DTD SVG 20010904//EN"
 "http://www.w3.org/TR/2001/REC-SVG-20010904/DTD/svg10.dtd">
<svg version="1.0" xmlns="http://www.w3.org/2000/svg"
 width="154.000000pt" height="140.000000pt" viewBox="0 0 154.000000 140.000000"
 preserveAspectRatio="xMidYMid meet">
<metadata>
Created by potrace 1.16, written by Peter Selinger 2001-2019
</metadata>
<g transform="translate(0.000000,140.000000) scale(0.100000,-0.100000)"
fill="#000000" stroke="none">
<path d="M800 1081 c-96 -31 -115 -45 -142 -108 -15 -32 -32 -85 -39 -118 -7
-33 -13 -61 -14 -63 -1 -1 -35 13 -76 32 -118 53 -210 81 -219 65 -8 -12 -6
-276 2 -284 4 -4 152 39 252 74 33 12 60 20 60 19 1 -2 13 -27 29 -56 15 -28
27 -54 27 -57 0 -3 -22 -5 -50 -5 -206 0 -273 -104 -142 -222 92 -83 121 -74
34 10 -59 57 -80 96 -68 127 9 23 82 52 165 66 69 12 75 11 88 -7 36 -49 56
-64 104 -78 79 -24 154 -20 218 9 57 27 155 94 147 102 -2 2 10 37 27 76 25
60 31 86 31 152 1 95 -24 175 -56 175 -18 0 -18 -1 2 -40 36 -71 44 -133 26
-206 -9 -35 -27 -88 -40 -118 -23 -52 -28 -56 -108 -94 -45 -22 -98 -43 -117
-46 l-33 -6 6 98 c3 53 6 186 6 295 l0 199 43 -7 c23 -4 79 -19 125 -34 45
-15 82 -24 82 -20 0 10 -98 55 -160 73 -69 21 -141 19 -210 -3z m84 -273 c4
-139 9 -268 13 -285 5 -30 3 -33 -20 -33 -14 0 -53 15 -88 33 -58 29 -65 38
-98 102 -47 93 -54 183 -21 285 12 38 27 76 34 85 13 18 122 64 152 65 21 0
21 -4 28 -252z m-411 3 c70 -21 128 -37 130 -34 3 2 7 -10 9 -27 3 -18 0 -33
-6 -35 -98 -24 -269 -64 -270 -63 -3 8 6 198 9 198 1 0 59 -17 128 -39z"/>
</g>
</svg>
