<?xml version="1.0" standalone="no"?>
<!DOCTYPE svg PUBLIC "-//W3C//DTD SVG 20010904//EN"
 "http://www.w3.org/TR/2001/REC-SVG-20010904/DTD/svg10.dtd">
<svg version="1.0" xmlns="http://www.w3.org/2000/svg"
 width="152.000000pt" height="226.000000pt" viewBox="0 0 152.000000 226.000000"
 preserveAspectRatio="xMidYMid meet">
<metadata>
Created by potrace 1.16, written by Peter Selinger 2001-2019
</metadata>
<g transform="translate(0.000000,226.000000) scale(0.100000,-0.100000)"
fill="#000000" stroke="none">
<path d="M337 1953 c-20 -19 4 -35 116 -76 67 -25 140 -50 163 -57 l41 -12
-23 -75 c-13 -40 -24 -85 -24 -99 0 -14 -3 -24 -7 -22 -65 33 -153 70 -211 89
-61 19 -75 21 -82 10 -4 -8 -7 -75 -5 -150 3 -106 6 -136 17 -134 10 1 211 63
289 89 11 4 18 -2 22 -18 4 -13 29 -57 58 -97 65 -92 109 -116 219 -116 65 1
83 5 135 32 33 17 74 44 91 60 36 32 84 146 83 196 0 24 -9 7 -36 -71 l-36
-103 -90 -44 c-115 -58 -162 -60 -263 -11 -66 31 -72 37 -101 97 -60 121 -63
172 -16 311 25 74 28 78 72 97 117 50 196 51 335 6 92 -30 112 -25 35 8 -110
49 -158 60 -233 55 -84 -6 -202 -50 -211 -79 -6 -18 -7 -18 -43 0 -36 18 -278
121 -285 121 -2 0 -7 -3 -10 -7z m132 -318 c62 -19 119 -35 126 -35 7 0 15
-14 17 -30 4 -25 1 -31 -16 -35 -12 -2 -75 -17 -141 -33 -66 -16 -120 -29
-120 -28 -4 10 9 196 13 196 4 0 58 -16 121 -35z"/>
<path d="M1165 1803 c4 -10 18 -45 31 -78 l23 -60 0 42 c1 63 -22 112 -53 113
-4 0 -5 -8 -1 -17z"/>
<path d="M780 917 c-36 -13 -75 -29 -88 -36 -16 -9 -68 -11 -175 -9 -144 3
-152 2 -152 -16 0 -18 8 -19 147 -17 l146 2 -26 -76 -26 -76 -120 2 -121 1 0
-143 0 -144 162 3 161 3 29 -36 c61 -76 201 -97 308 -46 74 35 145 87 145 104
0 8 11 41 25 75 20 50 25 79 25 150 0 149 -29 194 -158 245 -106 41 -195 46
-282 14z m291 -42 c40 -13 75 -28 79 -32 24 -27 55 -134 55 -188 -1 -81 -48
-219 -86 -246 -63 -45 -153 -79 -208 -79 -89 0 -229 73 -178 93 6 3 2 6 -11 6
-30 1 -72 92 -79 174 l-6 57 34 1 c19 0 43 4 54 8 16 7 10 10 -28 16 -48 7
-48 8 -41 39 13 63 46 126 65 126 11 0 19 4 19 9 0 8 55 30 115 45 38 9 145
-5 216 -29z m-468 -267 c4 -29 19 -79 35 -110 l29 -58 -140 0 -140 0 7 53 c3
28 6 75 6 104 l0 52 68 4 c37 2 81 4 98 5 31 2 31 1 37 -50z"/>
</g>
</svg>
