<?xml version="1.0" standalone="no"?>
<!DOCTYPE svg PUBLIC "-//W3C//DTD SVG 20010904//EN"
 "http://www.w3.org/TR/2001/REC-SVG-20010904/DTD/svg10.dtd">
<svg version="1.0" xmlns="http://www.w3.org/2000/svg"
 width="98.000000pt" height="171.000000pt" viewBox="0 0 98.000000 171.000000"
 preserveAspectRatio="xMidYMid meet">
<metadata>
Created by potrace 1.16, written by Peter Selinger 2001-2019
</metadata>
<g transform="translate(0.000000,171.000000) scale(0.100000,-0.100000)"
fill="#000000" stroke="none">
<path d="M395 1399 c-4 -5 18 -36 48 -68 114 -120 159 -216 185 -398 14 -105
14 -117 -2 -175 -9 -35 -33 -96 -53 -135 -32 -63 -35 -76 -25 -98 26 -56 5
-120 -57 -171 -30 -25 -43 -29 -93 -28 -32 0 -58 -2 -58 -6 0 -21 122 -27 156
-7 12 7 39 33 60 59 38 46 39 48 36 117 -3 54 -7 71 -18 71 -10 0 -6 12 15 37
89 112 114 270 67 432 -31 108 -67 183 -129 267 -40 54 -103 114 -120 114 -3
0 -9 -5 -12 -11z"/>
<path d="M307 1314 c-3 -4 12 -30 33 -58 109 -144 155 -344 130 -566 -12 -109
-13 -113 -47 -143 -19 -17 -45 -51 -58 -76 -27 -54 -57 -151 -47 -151 5 0 20
27 35 60 15 33 53 88 85 121 31 34 52 64 46 66 -8 3 -5 20 9 56 30 74 29 258
-2 372 -24 92 -95 245 -135 293 -28 32 -37 37 -49 26z"/>
</g>
</svg>
