<?xml version="1.0" standalone="no"?>
<!DOCTYPE svg PUBLIC "-//W3C//DTD SVG 20010904//EN"
 "http://www.w3.org/TR/2001/REC-SVG-20010904/DTD/svg10.dtd">
<svg version="1.0" xmlns="http://www.w3.org/2000/svg"
 width="144.000000pt" height="173.000000pt" viewBox="0 0 144.000000 173.000000"
 preserveAspectRatio="xMidYMid meet">
<metadata>
Created by potrace 1.16, written by Peter Selinger 2001-2019
</metadata>
<g transform="translate(0.000000,173.000000) scale(0.100000,-0.100000)"
fill="#000000" stroke="none">
<path d="M536 1421 c-6 -10 82 -66 90 -58 3 3 -10 16 -28 30 -47 34 -56 39
-62 28z"/>
<path d="M612 1301 c-114 -200 -177 -396 -170 -530 l3 -64 -42 -14 c-24 -8
-43 -19 -43 -24 0 -13 15 -11 57 6 20 8 37 14 38 13 1 -2 14 -27 27 -55 l25
-52 -54 -16 c-31 -9 -53 -21 -53 -30 0 -11 12 -9 58 9 l57 22 61 -62 61 -62
-39 -13 c-21 -7 -41 -17 -45 -21 -12 -20 9 -19 54 2 l47 22 58 -28 57 -27 -49
-31 c-47 -29 -62 -46 -40 -46 5 0 32 16 59 35 l48 35 55 -19 c59 -20 222 -51
270 -51 l29 0 -3 62 -3 62 -69 13 c-142 26 -294 91 -365 156 -38 36 -78 100
-90 144 -25 91 55 320 183 529 l25 41 -52 50 c-77 73 -83 71 -155 -56z m139
36 l37 -29 -50 -84 c-105 -179 -176 -383 -164 -468 9 -61 59 -140 119 -187 88
-71 213 -119 403 -155 17 -3 23 -13 26 -46 3 -24 3 -45 1 -47 -8 -11 -169 20
-255 49 -174 58 -294 154 -360 288 -30 60 -33 75 -32 152 0 71 6 103 36 191
34 100 98 239 155 337 27 45 27 45 84 -1z"/>
<path d="M450 1323 c0 -5 23 -21 50 -36 59 -33 67 -21 10 17 -40 26 -60 32
-60 19z"/>
<path d="M380 1212 c0 -7 82 -52 95 -52 17 0 -1 20 -34 38 -40 23 -61 28 -61
14z"/>
<path d="M340 1092 c0 -16 9 -19 65 -26 50 -6 50 -6 19 8 -47 22 -84 30 -84
18z"/>
<path d="M310 960 c0 -5 22 -10 49 -10 28 0 53 5 56 10 4 6 -15 10 -49 10 -31
0 -56 -4 -56 -10z"/>
<path d="M318 833 c-10 -2 -18 -9 -18 -14 0 -11 86 -2 110 12 16 9 -60 11 -92
2z"/>
</g>
</svg>
