<?xml version="1.0" standalone="no"?>
<!DOCTYPE svg PUBLIC "-//W3C//DTD SVG 20010904//EN"
 "http://www.w3.org/TR/2001/REC-SVG-20010904/DTD/svg10.dtd">
<svg version="1.0" xmlns="http://www.w3.org/2000/svg"
 width="169.000000pt" height="231.000000pt" viewBox="0 0 169.000000 231.000000"
 preserveAspectRatio="xMidYMid meet">
<metadata>
Created by potrace 1.16, written by Peter Selinger 2001-2019
</metadata>
<g transform="translate(0.000000,231.000000) scale(0.100000,-0.100000)"
fill="#000000" stroke="none">
<path d="M1105 2000 c-4 -6 7 -28 24 -49 17 -21 31 -43 30 -47 0 -5 -65 -60
-145 -123 -116 -92 -142 -117 -133 -128 10 -11 15 -11 28 0 96 80 212 181 235
205 l29 31 91 -121 c50 -66 95 -126 100 -133 6 -8 -23 -56 -94 -151 -57 -76
-106 -142 -110 -147 -3 -4 -66 40 -140 98 -124 98 -160 119 -160 95 0 -10 117
-101 218 -169 34 -23 62 -45 62 -49 0 -4 -9 -18 -20 -32 -24 -30 -24 -36 -6
-43 10 -4 49 43 127 155 61 88 121 177 132 197 l21 38 -109 159 c-159 234
-164 240 -180 214z"/>
<path d="M633 1715 c-9 -25 2 -254 13 -265 10 -10 57 13 201 96 28 16 43 34
28 34 -2 0 -52 -22 -111 -50 -59 -27 -107 -50 -108 -50 -2 0 6 205 8 207 1 2
46 -13 100 -32 161 -58 160 -41 -4 30 -115 50 -118 51 -127 30z"/>
<path d="M364 1701 c-2 -2 -4 -11 -4 -19 0 -13 18 -14 122 -8 114 6 138 10
127 20 -6 5 -240 12 -245 7z"/>
<path d="M364 1629 c-3 -6 -2 -15 2 -19 11 -10 244 0 244 10 0 18 -235 26
-246 9z"/>
<path d="M364 1571 c-2 -2 -4 -11 -4 -19 0 -13 18 -14 122 -8 116 7 137 10
127 20 -6 5 -240 12 -245 7z"/>
<path d="M360 1475 c0 -17 63 -20 183 -8 109 10 77 23 -58 23 -104 0 -125 -2
-125 -15z"/>
<path d="M1106 1061 c-3 -5 8 -27 25 -51 17 -23 29 -43 27 -45 -2 -1 -64 -41
-139 -88 l-136 -85 -159 8 c-87 5 -219 9 -291 10 -117 0 -133 -2 -133 -16 0
-15 17 -16 168 -12 l169 6 -5 -25 -5 -25 -163 8 -164 7 0 -23 0 -22 165 7 165
8 0 -25 0 -25 -165 5 c-150 4 -165 3 -165 -12 0 -15 16 -17 165 -14 l165 3 0
-23 0 -23 -166 6 c-158 7 -166 6 -162 -11 3 -18 14 -19 162 -15 167 3 175 1
176 -43 0 -18 -7 -18 -165 -11 -147 6 -166 5 -171 -10 -4 -9 -4 -18 -1 -21 2
-3 132 -1 288 4 l283 9 133 -69 c73 -38 133 -72 133 -75 0 -3 -9 -16 -20 -30
-20 -26 -19 -43 3 -43 11 1 159 206 236 328 l34 54 -20 34 c-44 78 -239 353
-250 354 -6 0 -14 -4 -17 -9z m114 -173 c24 -35 68 -93 97 -130 29 -37 53 -69
53 -72 0 -3 -42 -61 -92 -128 -51 -68 -100 -134 -108 -147 l-15 -22 -149 87
-148 88 6 51 c3 27 6 67 6 87 0 36 3 39 118 117 64 44 131 92 147 105 17 14
32 25 36 26 3 0 25 -28 49 -62z m-382 -230 l-3 -113 -87 0 c-49 0 -88 3 -88 8
0 4 0 54 0 112 l0 105 90 0 91 0 -3 -112z"/>
</g>
</svg>
