<?xml version="1.0" standalone="no"?>
<!DOCTYPE svg PUBLIC "-//W3C//DTD SVG 20010904//EN"
 "http://www.w3.org/TR/2001/REC-SVG-20010904/DTD/svg10.dtd">
<svg version="1.0" xmlns="http://www.w3.org/2000/svg"
 width="160.000000pt" height="117.000000pt" viewBox="0 0 160.000000 117.000000"
 preserveAspectRatio="xMidYMid meet">
<metadata>
Created by potrace 1.16, written by Peter Selinger 2001-2019
</metadata>
<g transform="translate(0.000000,117.000000) scale(0.100000,-0.100000)"
fill="#000000" stroke="none">
<path d="M307 863 c-9 -8 -9 -304 0 -452 l6 -114 485 6 c267 3 487 9 491 12 3
4 7 127 9 274 l4 268 -272 6 c-351 9 -715 9 -723 0z m953 -105 l0 -81 -197 6
c-108 4 -272 7 -365 7 l-168 0 0 64 0 64 313 9 c171 5 336 10 365 11 l52 2 0
-82z m-769 -20 c0 -46 2 -96 4 -113 1 -16 4 -86 5 -154 l2 -124 -83 2 c-46 1
-84 3 -85 4 0 1 1 107 4 235 l5 232 73 0 74 0 1 -82z m100 -90 c0 -7 2 -32 5
-55 l6 -43 -36 0 -36 0 0 55 c0 54 0 55 30 55 17 0 30 -5 31 -12z m97 -50 l4
-58 -34 3 c-31 2 -33 5 -36 46 -4 60 2 73 35 69 26 -3 28 -6 31 -60z m82 40
c0 -13 3 -39 6 -58 6 -35 5 -36 -30 -38 l-36 -3 0 61 0 60 30 0 c24 0 30 -4
30 -22z m490 -38 l0 -60 -230 0 -230 0 0 60 0 60 230 0 230 0 0 -60z m8 -179
l3 -94 -113 6 c-62 4 -231 7 -375 7 l-263 0 0 48 c0 26 3 64 6 84 l7 38 156 3
c86 1 250 3 366 2 l210 0 3 -94z"/>
</g>
</svg>
