<?xml version="1.0" standalone="no"?>
<!DOCTYPE svg PUBLIC "-//W3C//DTD SVG 20010904//EN"
 "http://www.w3.org/TR/2001/REC-SVG-20010904/DTD/svg10.dtd">
<svg version="1.0" xmlns="http://www.w3.org/2000/svg"
 width="172.000000pt" height="119.000000pt" viewBox="0 0 172.000000 119.000000"
 preserveAspectRatio="xMidYMid meet">
<metadata>
Created by potrace 1.16, written by Peter Selinger 2001-2019
</metadata>
<g transform="translate(0.000000,119.000000) scale(0.100000,-0.100000)"
fill="#000000" stroke="none">
<path d="M356 749 c-31 -78 -56 -151 -55 -162 0 -12 28 -74 62 -137 81 -152
85 -157 94 -144 7 9 336 19 919 27 l31 0 7 120 c3 66 6 188 6 272 l0 152 -272
6 c-149 4 -376 7 -503 7 l-232 0 -57 -141z m1018 -46 c4 -87 9 -202 12 -255
l6 -98 -43 0 c-24 0 -60 3 -80 6 l-37 6 6 242 c2 132 9 244 14 247 5 3 33 7
62 8 l54 2 6 -158z m-169 -93 c4 -133 5 -244 2 -247 -3 -2 -179 -1 -390 3
l-385 7 -49 108 c-26 60 -53 109 -60 109 -8 0 12 51 49 125 l62 125 231 2
c126 2 298 4 381 6 l151 3 8 -241z"/>
<path d="M486 803 c-8 -8 -6 -289 3 -328 6 -25 8 -20 14 34 4 35 7 115 7 177
0 103 -6 134 -24 117z"/>
<path d="M696 803 c-14 -14 1 -353 16 -353 11 0 11 347 -1 354 -4 3 -11 3 -15
-1z"/>
<path d="M1015 799 c-10 -16 6 -349 16 -349 5 0 9 78 9 174 0 160 -7 206 -25
175z"/>
<path d="M593 688 c4 -62 7 -141 7 -175 0 -35 4 -63 10 -63 6 0 10 65 10 175
0 156 -2 175 -17 175 -14 0 -15 -12 -10 -112z"/>
<path d="M790 638 c0 -90 5 -170 10 -178 9 -13 10 -13 10 0 0 8 3 88 7 178 5
146 4 162 -10 162 -15 0 -17 -18 -17 -162z"/>
<path d="M890 732 c0 -117 13 -282 22 -282 4 0 8 79 8 175 0 149 -2 175 -15
175 -12 0 -15 -14 -15 -68z"/>
</g>
</svg>
