<?xml version="1.0" standalone="no"?>
<!DOCTYPE svg PUBLIC "-//W3C//DTD SVG 20010904//EN"
 "http://www.w3.org/TR/2001/REC-SVG-20010904/DTD/svg10.dtd">
<svg version="1.0" xmlns="http://www.w3.org/2000/svg"
 width="150.000000pt" height="152.000000pt" viewBox="0 0 150.000000 152.000000"
 preserveAspectRatio="xMidYMid meet">
<metadata>
Created by potrace 1.16, written by Peter Selinger 2001-2019
</metadata>
<g transform="translate(0.000000,152.000000) scale(0.100000,-0.100000)"
fill="#000000" stroke="none">
<path d="M685 1200 c-17 -19 -18 -43 -11 -448 l7 -427 -51 50 c-29 28 -106
116 -172 198 -67 81 -124 147 -128 147 -4 0 -13 -6 -19 -13 -8 -11 14 -43 97
-143 129 -154 273 -282 290 -259 4 6 59 56 123 113 64 56 176 165 249 242 111
118 130 142 120 155 -7 8 -17 15 -22 15 -6 0 -45 32 -87 72 -75 70 -366 318
-374 318 -2 0 -12 -9 -22 -20z m140 -132 l100 -81 -64 6 c-35 4 -84 7 -107 7
l-44 0 0 75 c0 41 3 75 8 75 4 0 52 -37 107 -82z m193 -152 c34 -27 62 -51 62
-54 0 -2 -79 0 -175 3 -174 7 -175 7 -175 -14 0 -20 5 -21 73 -20 39 0 124 4
187 8 94 6 118 5 133 -7 9 -8 17 -19 17 -24 0 -5 -25 -35 -55 -67 l-54 -57
-151 4 c-135 4 -150 3 -150 -12 0 -15 14 -17 140 -14 77 2 140 2 140 0 0 -2
-24 -30 -52 -63 l-53 -59 -98 0 c-75 0 -98 -3 -94 -12 3 -10 27 -12 88 -10
l84 3 -80 -82 c-44 -45 -86 -89 -93 -97 -10 -11 -11 46 -6 295 3 169 7 313 9
320 4 12 207 24 230 14 6 -3 38 -27 73 -55z"/>
<path d="M446 929 c-50 -55 -120 -172 -114 -189 2 -6 22 18 45 52 23 35 64 88
91 118 46 50 55 70 32 70 -4 0 -29 -23 -54 -51z"/>
</g>
</svg>
