<?xml version="1.0" standalone="no"?>
<!DOCTYPE svg PUBLIC "-//W3C//DTD SVG 20010904//EN"
 "http://www.w3.org/TR/2001/REC-SVG-20010904/DTD/svg10.dtd">
<svg version="1.0" xmlns="http://www.w3.org/2000/svg"
 width="205.000000pt" height="189.000000pt" viewBox="0 0 205.000000 189.000000"
 preserveAspectRatio="xMidYMid meet">
<metadata>
Created by potrace 1.16, written by Peter Selinger 2001-2019
</metadata>
<g transform="translate(0.000000,189.000000) scale(0.100000,-0.100000)"
fill="#000000" stroke="none">
<path d="M784 1532 c-208 -131 -282 -183 -287 -201 -4 -18 -11 -19 -101 -14
-92 6 -96 5 -96 -14 0 -17 8 -22 43 -27 23 -3 344 -9 713 -12 l671 -7 7 68 c4
40 3 72 -3 78 -5 5 -113 -1 -287 -17 -154 -14 -302 -27 -330 -28 l-51 -3 -77
99 c-42 54 -82 107 -89 117 -6 10 -14 19 -17 18 -3 0 -46 -26 -96 -57z m169
-78 c68 -80 83 -104 68 -104 -12 0 -47 30 -87 74 l-67 74 -31 -17 c-17 -10
-79 -48 -138 -85 -74 -45 -118 -66 -140 -66 -28 0 -16 10 103 91 74 51 148
103 164 115 17 13 32 23 35 23 3 0 45 -47 93 -105z m-72 -15 c12 -17 40 -44
62 -60 29 -21 35 -29 21 -29 -10 -1 -44 -3 -74 -5 -111 -9 -240 -15 -240 -11
0 2 26 19 58 39 31 19 74 49 96 66 21 17 42 31 47 31 4 0 18 -14 30 -31z m829
-101 l0 -63 -169 6 c-92 4 -300 11 -462 15 -162 5 -274 10 -249 11 225 13 402
28 610 54 135 16 250 32 255 34 6 2 11 4 13 4 1 1 2 -27 2 -61z"/>
<path d="M815 749 c-33 -21 -117 -76 -187 -121 -71 -45 -128 -88 -128 -95 0
-10 -25 -13 -100 -13 -98 0 -100 0 -100 -23 0 -23 2 -24 73 -21 39 2 357 5
705 8 l632 4 0 -89 c0 -48 4 -90 9 -93 15 -10 33 286 18 301 -2 2 -121 -8
-263 -21 -142 -14 -293 -27 -335 -31 l-75 -6 -93 120 c-50 67 -93 121 -94 120
-1 0 -29 -18 -62 -40z m95 -57 c0 -4 -16 -16 -35 -27 l-36 -19 -27 28 -27 27
35 29 35 30 28 -30 c15 -17 27 -34 27 -38z m-120 -37 c13 -14 22 -26 19 -28
-2 -1 -38 -23 -79 -48 -63 -38 -87 -47 -145 -53 l-70 -7 115 80 c63 43 120 80
126 80 6 1 21 -10 34 -24z m246 -101 c0 -1 -26 -4 -57 -7 l-55 -7 -37 44 -36
44 37 24 37 25 56 -61 c31 -34 56 -61 55 -62z m-223 -16 c-43 -5 -84 -7 -92
-5 -8 1 12 19 45 39 l59 37 33 -32 33 -32 -78 -7z m897 12 l0 -40 -162 1
c-184 2 -429 14 -353 18 28 1 142 15 255 30 281 39 260 39 260 -9z"/>
</g>
</svg>
