<?xml version="1.0" standalone="no"?>
<!DOCTYPE svg PUBLIC "-//W3C//DTD SVG 20010904//EN"
 "http://www.w3.org/TR/2001/REC-SVG-20010904/DTD/svg10.dtd">
<svg version="1.0" xmlns="http://www.w3.org/2000/svg"
 width="202.000000pt" height="92.000000pt" viewBox="0 0 202.000000 92.000000"
 preserveAspectRatio="xMidYMid meet">
<metadata>
Created by potrace 1.16, written by Peter Selinger 2001-2019
</metadata>
<g transform="translate(0.000000,92.000000) scale(0.100000,-0.100000)"
fill="#000000" stroke="none">
<path d="M1680 611 c-38 -12 -358 -21 -805 -23 -544 -3 -575 -4 -575 -29 0
-17 8 -19 80 -19 80 0 81 0 158 -51 90 -60 253 -164 280 -178 16 -9 44 8 172
104 102 77 162 115 179 115 85 1 491 -23 519 -30 l32 -8 0 64 c0 35 -3 64 -7
63 -5 0 -19 -4 -33 -8z m23 -53 c2 -18 4 -34 2 -36 -1 -1 -74 4 -161 13 -88 8
-188 15 -224 16 -102 1 -56 9 132 23 265 20 245 22 251 -16z m-1001 -95 l117
-74 49 36 c110 79 243 138 242 108 0 -5 -66 -52 -146 -106 l-146 -97 -67 47
c-36 26 -103 73 -149 105 -70 47 -80 57 -60 60 28 5 20 9 160 -79z m253 78
l70 -6 -50 -21 c-27 -12 -76 -37 -109 -57 l-58 -35 -82 55 c-44 30 -85 59 -90
64 -11 10 208 10 319 0z"/>
</g>
</svg>
