<?xml version="1.0" standalone="no"?>
<!DOCTYPE svg PUBLIC "-//W3C//DTD SVG 20010904//EN"
 "http://www.w3.org/TR/2001/REC-SVG-20010904/DTD/svg10.dtd">
<svg version="1.0" xmlns="http://www.w3.org/2000/svg"
 width="126.000000pt" height="110.000000pt" viewBox="0 0 126.000000 110.000000"
 preserveAspectRatio="xMidYMid meet">
<metadata>
Created by potrace 1.16, written by Peter Selinger 2001-2019
</metadata>
<g transform="translate(0.000000,110.000000) scale(0.100000,-0.100000)"
fill="#000000" stroke="none">
<path d="M523 785 c-8 -8 -13 -42 -13 -85 l0 -70 -105 0 -105 0 0 -87 0 -86
105 6 105 6 0 -85 0 -84 143 2 c78 1 113 3 78 5 l-64 4 6 112 c4 62 7 164 7
228 l0 117 116 7 c63 4 117 5 119 3 2 -2 6 -107 9 -232 5 -214 8 -247 21 -234
3 2 8 110 11 240 l7 235 -24 6 c-13 4 -109 7 -214 6 -151 0 -193 -3 -202 -14z
m127 -41 l0 -26 -37 23 c-21 12 -40 24 -42 26 -2 2 14 3 37 3 38 0 42 -2 42
-26z m-2 -69 c4 -31 4 -31 -60 10 -34 22 -47 37 -48 53 l0 24 53 -31 c39 -22
53 -36 55 -56z m0 -74 l3 -30 -55 36 c-42 27 -56 42 -56 60 l0 23 53 -29 c42
-25 53 -36 55 -60z m-138 -51 l0 -60 -95 0 -95 0 0 55 0 54 73 4 c39 1 82 4
95 5 21 2 22 -2 22 -58z m99 25 c35 -22 41 -30 41 -60 l0 -35 -55 36 c-46 31
-55 42 -55 66 0 34 6 34 69 -7z m-6 -85 c42 -21 47 -28 47 -57 l0 -33 -52 34
c-40 25 -54 40 -56 61 -2 15 0 25 5 23 4 -2 29 -14 56 -28z m45 -146 l3 -39
-23 21 c-13 11 -40 31 -60 43 -39 23 -42 28 -32 55 6 14 13 13 58 -12 46 -26
51 -33 54 -68z m-63 -9 l40 -25 -47 0 c-45 0 -48 2 -48 25 0 31 5 31 55 0z"/>
</g>
</svg>
