<?xml version="1.0" standalone="no"?>
<!DOCTYPE svg PUBLIC "-//W3C//DTD SVG 20010904//EN"
 "http://www.w3.org/TR/2001/REC-SVG-20010904/DTD/svg10.dtd">
<svg version="1.0" xmlns="http://www.w3.org/2000/svg"
 width="126.000000pt" height="110.000000pt" viewBox="0 0 126.000000 110.000000"
 preserveAspectRatio="xMidYMid meet">
<metadata>
Created by potrace 1.16, written by Peter Selinger 2001-2019
</metadata>
<g transform="translate(0.000000,110.000000) scale(0.100000,-0.100000)"
fill="#000000" stroke="none">
<path d="M523 785 c-8 -8 -13 -42 -13 -85 l0 -70 -105 0 -105 0 0 -85 0 -85
28 -1 c91 -3 143 -1 148 4 3 3 12 3 20 0 10 -4 14 -26 14 -84 l0 -79 143 2
c78 1 113 3 78 5 l-64 4 6 112 c4 62 7 164 7 228 l0 117 116 7 c63 4 117 5
119 3 2 -2 6 -107 9 -232 5 -214 8 -247 21 -234 3 2 8 110 11 240 l7 235 -24
6 c-13 4 -109 7 -214 6 -151 0 -193 -3 -202 -14z m127 -87 l0 -73 -55 3 -55 4
0 69 0 69 55 0 55 0 0 -72z m0 -148 l0 -60 -55 0 -55 0 0 60 0 60 55 0 55 0 0
-60z m-310 -5 c0 -30 -4 -55 -10 -55 -5 0 -10 25 -10 55 0 30 5 55 10 55 6 0
10 -25 10 -55z m52 0 c3 -48 1 -55 -16 -55 -12 0 -16 5 -12 16 3 9 6 33 6 55
0 60 18 47 22 -16z m68 0 c0 -48 -2 -55 -20 -55 -18 0 -20 7 -20 55 0 48 2 55
20 55 18 0 20 -7 20 -55z m50 0 c0 -42 -3 -55 -15 -55 -12 0 -15 13 -15 55 0
42 3 55 15 55 12 0 15 -13 15 -55z m140 -155 l0 -80 -60 0 -60 0 0 43 c0 23 3
59 6 80 l7 37 53 0 54 0 0 -80z"/>
</g>
</svg>
