<?xml version="1.0" standalone="no"?>
<!DOCTYPE svg PUBLIC "-//W3C//DTD SVG 20010904//EN"
 "http://www.w3.org/TR/2001/REC-SVG-20010904/DTD/svg10.dtd">
<svg version="1.0" xmlns="http://www.w3.org/2000/svg"
 width="143.000000pt" height="169.000000pt" viewBox="0 0 143.000000 169.000000"
 preserveAspectRatio="xMidYMid meet">
<metadata>
Created by potrace 1.16, written by Peter Selinger 2001-2019
</metadata>
<g transform="translate(0.000000,169.000000) scale(0.100000,-0.100000)"
fill="#000000" stroke="none">
<path d="M592 1252 c-111 -135 -292 -386 -292 -404 0 -12 102 -186 161 -275
27 -39 85 -117 129 -172 99 -124 104 -125 216 -45 82 58 144 112 144 126 0 4
-6 5 -13 2 -9 -3 -34 33 -75 109 -34 62 -62 118 -62 124 0 9 291 207 317 214
7 2 -5 22 -27 46 l-39 41 -143 -88 c-79 -49 -147 -85 -152 -80 -14 14 41 269
72 332 l29 58 -76 75 c-41 41 -75 75 -75 75 -1 0 -52 -62 -114 -138z m211 -40
c-10 -18 -21 -32 -25 -32 -3 0 -29 25 -56 56 -33 36 -52 52 -57 44 -5 -7 15
-35 49 -69 l57 -58 -15 -84 c-8 -46 -20 -123 -27 -171 l-12 -87 -130 -82
c-150 -95 -127 -101 -208 48 l-50 93 60 84 c79 109 178 233 259 324 l65 74 54
-54 54 -54 -18 -32z m266 -246 c24 -25 16 -41 -17 -33 -9 3 -30 8 -46 12 l-30
6 30 20 c36 24 36 24 63 -5z m-55 -73 c-30 -21 -43 -24 -80 -18 -24 3 -44 9
-44 13 0 4 15 16 32 28 28 18 38 19 80 11 l49 -10 -37 -24z m-88 -33 c22 0 16
-16 -10 -28 -26 -12 -96 -5 -96 9 0 16 35 29 64 24 16 -3 35 -5 42 -5z m-77
-49 c25 -7 24 -7 -12 -29 -39 -22 -61 -21 -71 5 -12 31 22 41 83 24z m-104
-68 c3 -9 4 -17 3 -17 -2 -1 -15 -10 -30 -19 -29 -18 -60 -21 -93 -8 -18 7
-15 12 28 39 49 31 81 33 92 5z m25 -51 c0 -5 32 -57 70 -115 39 -58 70 -108
70 -111 0 -5 -105 -78 -187 -129 l-42 -27 -64 93 c-35 50 -72 104 -81 118
l-16 26 117 76 c118 77 133 84 133 69z m-127 -22 c13 -12 -59 -49 -85 -43 -51
11 -52 13 -17 38 33 24 80 26 102 5z m-106 -58 c22 -7 22 -7 -7 -24 -28 -16
-29 -16 -45 8 -15 23 -15 24 7 23 13 -1 33 -4 45 -7z"/>
<path d="M457 959 c-60 -65 -84 -101 -58 -84 5 3 47 -22 92 -54 80 -57 100
-67 84 -41 -4 7 -7 54 -6 104 2 84 0 94 -22 120 l-24 28 -66 -73z m88 -68 l7
-83 -29 20 c-15 12 -41 32 -58 46 l-30 25 45 45 c24 25 47 43 51 38 4 -4 10
-45 14 -91z"/>
</g>
</svg>
