<?xml version="1.0" standalone="no"?>
<!DOCTYPE svg PUBLIC "-//W3C//DTD SVG 20010904//EN"
 "http://www.w3.org/TR/2001/REC-SVG-20010904/DTD/svg10.dtd">
<svg version="1.0" xmlns="http://www.w3.org/2000/svg"
 width="121.000000pt" height="102.000000pt" viewBox="0 0 121.000000 102.000000"
 preserveAspectRatio="xMidYMid meet">
<metadata>
Created by potrace 1.16, written by Peter Selinger 2001-2019
</metadata>
<g transform="translate(0.000000,102.000000) scale(0.100000,-0.100000)"
fill="#000000" stroke="none">
<path d="M357 683 c-70 -114 -74 -186 -16 -302 l40 -81 203 0 c112 0 231 3
265 6 l62 7 -3 60 c-4 73 3 70 -196 88 -75 6 -138 13 -140 14 -1 1 5 18 13 38
29 69 18 124 -33 180 -24 25 -32 27 -99 27 l-73 0 -23 -37z m189 -25 c34 -49
37 -102 9 -161 -10 -22 -14 -42 -9 -47 5 -5 82 -12 171 -16 l161 -7 4 -47 3
-48 -80 -6 c-44 -3 -153 -8 -241 -12 l-162 -7 -15 24 c-31 47 -59 135 -59 184
0 51 29 134 59 168 12 12 32 17 73 17 56 0 58 -1 86 -42z"/>
</g>
</svg>
