<?xml version="1.0" standalone="no"?>
<!DOCTYPE svg PUBLIC "-//W3C//DTD SVG 20010904//EN"
 "http://www.w3.org/TR/2001/REC-SVG-20010904/DTD/svg10.dtd">
<svg version="1.0" xmlns="http://www.w3.org/2000/svg"
 width="194.000000pt" height="121.000000pt" viewBox="0 0 194.000000 121.000000"
 preserveAspectRatio="xMidYMid meet">
<metadata>
Created by potrace 1.16, written by Peter Selinger 2001-2019
</metadata>
<g transform="translate(0.000000,121.000000) scale(0.100000,-0.100000)"
fill="#000000" stroke="none">
<path d="M446 903 c-27 -3 -40 -10 -43 -24 -3 -10 -13 -19 -23 -19 -14 0 -25
-19 -45 -77 -48 -142 -43 -255 16 -377 10 -22 19 -45 19 -51 0 -16 135 -45
236 -52 78 -5 223 15 264 37 15 8 49 105 65 188 l7 33 61 -34 c130 -73 253
-134 280 -141 23 -5 44 3 120 50 154 95 237 154 237 168 0 13 -72 64 -239 168
-67 42 -97 56 -106 48 -6 -5 -14 -7 -17 -4 -7 6 -159 -68 -260 -127 -36 -22
-69 -39 -71 -39 -3 0 -8 35 -12 78 -11 122 -4 113 -113 147 -83 25 -114 30
-217 31 -66 1 -137 -1 -159 -3z m163 -143 l2 -110 -136 0 c-74 0 -135 2 -135
4 0 17 52 165 63 181 15 19 69 31 158 34 l47 1 1 -110z m217 89 c58 -13 54 -6
70 -146 l7 -63 -44 0 c-24 0 -81 3 -126 7 l-83 6 0 110 0 110 63 -7 c34 -3 85
-11 113 -17z m464 -59 c8 -5 11 -10 5 -10 -15 0 63 -76 157 -153 l88 -71 -58
-31 c-31 -17 -82 -45 -112 -63 l-56 -32 -122 123 -123 123 27 13 c32 14 23 21
175 -116 56 -51 107 -93 113 -93 6 1 -45 55 -114 120 -120 114 -124 120 -105
134 26 20 29 20 51 -5 39 -44 226 -200 232 -194 4 4 -4 16 -18 27 -14 11 -67
61 -119 111 l-93 90 23 18 c28 22 29 22 49 9z m205 -114 l137 -74 -39 -20 -39
-20 -102 94 c-56 52 -100 94 -98 94 2 0 66 -33 141 -74z m-206 -262 c-8 -9
-43 8 -142 70 -73 46 -147 91 -164 101 l-32 19 46 27 46 27 128 -116 c93 -85
125 -119 118 -128z m-389 156 c0 -58 -19 -192 -29 -209 -8 -12 -164 -29 -208
-23 -21 3 -23 8 -23 76 0 40 3 100 6 134 8 72 2 69 152 71 l102 1 0 -50z
m-286 -91 c4 -72 4 -134 2 -137 -6 -5 -142 20 -207 38 -43 12 -57 45 -66 158
l-6 72 135 0 135 0 7 -131z"/>
</g>
</svg>
