<?xml version="1.0" standalone="no"?>
<!DOCTYPE svg PUBLIC "-//W3C//DTD SVG 20010904//EN"
 "http://www.w3.org/TR/2001/REC-SVG-20010904/DTD/svg10.dtd">
<svg version="1.0" xmlns="http://www.w3.org/2000/svg"
 width="169.000000pt" height="165.000000pt" viewBox="0 0 169.000000 165.000000"
 preserveAspectRatio="xMidYMid meet">
<metadata>
Created by potrace 1.16, written by Peter Selinger 2001-2019
</metadata>
<g transform="translate(0.000000,165.000000) scale(0.100000,-0.100000)"
fill="#000000" stroke="none">
<path d="M1122 1301 c-164 -98 -282 -214 -312 -307 -8 -22 -11 -67 -8 -109 8
-128 117 -317 293 -512 37 -40 70 -73 75 -73 5 0 -28 47 -73 106 -162 208
-257 393 -259 502 -2 130 126 271 350 387 42 22 50 30 41 41 -6 8 -15 14 -19
14 -4 0 -43 -22 -88 -49z"/>
<path d="M338 1217 c-23 -24 -42 -138 -35 -221 3 -39 15 -105 26 -146 26 -97
26 -117 -5 -277 -14 -74 -24 -139 -22 -145 3 -7 33 -10 84 -9 127 3 117 -6
158 149 39 147 45 215 21 249 -8 12 -20 63 -27 115 -10 80 -9 106 6 187 9 51
15 95 13 97 -2 2 -48 7 -103 10 -84 6 -102 4 -116 -9z m178 -35 c-14 -44 -23
-162 -16 -212 5 -30 18 -94 30 -141 l22 -86 -26 -138 c-14 -76 -26 -142 -26
-147 0 -4 -40 -8 -90 -8 -49 0 -90 3 -90 7 0 3 14 58 31 122 36 132 40 193 17
242 -19 39 -37 178 -31 229 2 19 9 58 14 87 l10 52 62 4 c34 2 70 4 80 5 13 1
17 -3 13 -16z"/>
<path d="M965 1109 c-4 -6 -5 -12 -4 -14 8 -7 258 -154 333 -195 l80 -44 -40
-12 c-21 -7 -122 -38 -224 -70 -102 -31 -188 -59 -192 -63 -4 -3 -3 -12 2 -20
9 -15 2 -17 305 91 126 46 177 71 164 81 -11 10 -224 149 -305 200 -94 59
-108 64 -119 46z"/>
</g>
</svg>
