<?xml version="1.0" standalone="no"?>
<!DOCTYPE svg PUBLIC "-//W3C//DTD SVG 20010904//EN"
 "http://www.w3.org/TR/2001/REC-SVG-20010904/DTD/svg10.dtd">
<svg version="1.0" xmlns="http://www.w3.org/2000/svg"
 width="140.000000pt" height="190.000000pt" viewBox="0 0 140.000000 190.000000"
 preserveAspectRatio="xMidYMid meet">
<metadata>
Created by potrace 1.16, written by Peter Selinger 2001-2019
</metadata>
<g transform="translate(0.000000,190.000000) scale(0.100000,-0.100000)"
fill="#000000" stroke="none">
<path d="M796 1564 c-220 -128 -346 -273 -346 -400 0 -126 81 -286 224 -443
36 -39 66 -76 66 -81 0 -6 7 -10 15 -10 8 0 15 4 15 9 0 5 -25 70 -56 145 -31
75 -55 138 -53 140 2 1 67 24 144 51 223 76 295 106 295 121 0 14 -104 87
-277 193 l-102 62 84 111 c106 142 104 168 -9 102z m-22 -101 c-26 -38 -58
-79 -71 -94 -13 -14 -23 -29 -23 -35 1 -5 20 -18 43 -30 23 -11 116 -63 206
-114 l163 -95 -63 -18 c-99 -28 -394 -120 -398 -123 -2 -2 14 -55 37 -119 22
-63 39 -115 37 -115 -11 0 -111 153 -145 220 -99 196 -93 291 28 421 47 52
203 168 225 169 4 0 -13 -30 -39 -67z"/>
<path d="M377 556 c-33 -7 -63 -19 -68 -27 -10 -14 -7 -205 4 -215 3 -3 47 2
97 12 80 15 102 16 191 4 54 -7 102 -16 105 -21 13 -21 163 -9 279 23 l115 31
0 104 c0 56 -3 103 -7 103 -5 0 -64 -11 -133 -25 -152 -30 -184 -30 -280 -5
-98 27 -228 33 -303 16z m701 -98 l3 -85 -146 -28 -146 -27 -111 27 c-116 28
-226 34 -303 15 -22 -5 -41 -8 -42 -6 -2 1 0 37 3 79 l7 76 49 10 c95 21 291
7 327 -22 23 -20 129 -9 236 22 55 16 105 29 110 27 6 -1 11 -41 13 -88z"/>
</g>
</svg>
