<?xml version="1.0" standalone="no"?>
<!DOCTYPE svg PUBLIC "-//W3C//DTD SVG 20010904//EN"
 "http://www.w3.org/TR/2001/REC-SVG-20010904/DTD/svg10.dtd">
<svg version="1.0" xmlns="http://www.w3.org/2000/svg"
 width="171.000000pt" height="158.000000pt" viewBox="0 0 171.000000 158.000000"
 preserveAspectRatio="xMidYMid meet">
<metadata>
Created by potrace 1.16, written by Peter Selinger 2001-2019
</metadata>
<g transform="translate(0.000000,158.000000) scale(0.100000,-0.100000)"
fill="#000000" stroke="none">
<path d="M1065 1266 c-11 -7 -79 -49 -152 -94 l-132 -81 -93 -3 -93 -3 0 -105
0 -105 90 0 90 0 80 -51 c44 -28 114 -69 156 -92 l76 -42 6 128 c9 173 9 462
0 461 -5 0 -17 -6 -28 -13z m7 -286 c2 -143 2 -260 1 -260 -1 0 -55 34 -120
76 -65 42 -135 87 -155 100 l-38 24 7 63 c3 34 11 65 17 69 6 4 70 47 141 96
72 49 133 90 137 91 4 0 9 -116 10 -259z m-332 5 l0 -85 -65 0 -65 0 0 79 c0
89 -4 86 93 90 l37 1 0 -85z"/>
<path d="M575 814 c-11 -8 -77 -45 -147 -82 -103 -54 -128 -71 -128 -88 0 -16
33 -44 138 -116 126 -88 366 -228 389 -228 10 0 23 145 23 263 l0 67 83 0 c45
0 164 3 265 7 l182 6 0 -67 c0 -86 20 -87 21 -1 1 36 2 82 3 103 1 43 24 41
-209 18 -162 -17 -451 -36 -538 -36 l-47 0 6 85 c7 92 2 101 -41 69z m12 -151
c-2 -2 -55 -2 -118 -1 l-113 3 115 66 114 66 3 -65 c2 -35 1 -66 -1 -69z m793
17 c0 -19 -6 -20 -132 -19 l-133 1 120 18 c66 9 126 18 133 19 6 0 12 -8 12
-19z m-560 -206 l0 -155 -57 32 c-74 41 -400 257 -408 269 -4 6 85 9 230 9
l235 0 0 -155z"/>
</g>
</svg>
