<?xml version="1.0" standalone="no"?>
<!DOCTYPE svg PUBLIC "-//W3C//DTD SVG 20010904//EN"
 "http://www.w3.org/TR/2001/REC-SVG-20010904/DTD/svg10.dtd">
<svg version="1.0" xmlns="http://www.w3.org/2000/svg"
 width="131.000000pt" height="143.000000pt" viewBox="0 0 131.000000 143.000000"
 preserveAspectRatio="xMidYMid meet">
<metadata>
Created by potrace 1.16, written by Peter Selinger 2001-2019
</metadata>
<g transform="translate(0.000000,143.000000) scale(0.100000,-0.100000)"
fill="#000000" stroke="none">
<path d="M320 1116 c0 -8 -6 -16 -12 -18 -15 -5 117 -185 231 -316 l72 -83
-113 -127 c-180 -202 -186 -209 -181 -237 5 -23 7 -24 122 -27 64 -2 143 0
176 3 33 4 133 7 222 8 96 1 164 5 168 11 3 6 0 10 -8 10 -13 0 -67 56 -264
276 -35 38 -63 72 -63 76 0 4 65 76 144 160 194 206 203 218 185 229 -10 7
-44 -22 -135 -113 l-120 -123 3 85 c2 47 6 104 9 128 l5 42 110 1 c123 2 125
2 133 10 10 10 -219 19 -461 19 -186 0 -223 -2 -223 -14z m400 -159 l0 -143
-44 -43 -43 -43 -35 44 -36 43 5 130 c3 72 9 135 14 140 4 6 37 11 73 13 l66
2 0 -143z m-182 12 c0 -66 -1 -119 -3 -117 -1 2 -38 50 -80 108 -43 58 -82
111 -88 118 -7 9 10 12 81 12 l90 0 0 -121z m142 -344 l35 -34 -3 -121 -3
-120 -71 0 -71 0 6 126 c5 121 6 127 33 155 15 16 30 29 33 29 3 0 21 -16 41
-35z m-138 -192 l3 -83 -110 0 -110 0 105 105 c89 90 105 102 107 83 1 -13 4
-60 5 -105z m408 -89 c0 -6 -78 -5 -149 2 l-61 7 0 46 c0 25 3 70 7 99 l6 54
99 -102 c54 -55 98 -103 98 -106z"/>
</g>
</svg>
