<?xml version="1.0" standalone="no"?>
<!DOCTYPE svg PUBLIC "-//W3C//DTD SVG 20010904//EN"
 "http://www.w3.org/TR/2001/REC-SVG-20010904/DTD/svg10.dtd">
<svg version="1.0" xmlns="http://www.w3.org/2000/svg"
 width="123.000000pt" height="121.000000pt" viewBox="0 0 123.000000 121.000000"
 preserveAspectRatio="xMidYMid meet">
<metadata>
Created by potrace 1.16, written by Peter Selinger 2001-2019
</metadata>
<g transform="translate(0.000000,121.000000) scale(0.100000,-0.100000)"
fill="#000000" stroke="none">
<path d="M446 903 c-27 -3 -40 -10 -43 -24 -3 -10 -13 -19 -23 -19 -12 0 -24
-17 -38 -57 -57 -156 -56 -263 3 -388 14 -28 25 -56 25 -62 0 -19 161 -48 265
-48 107 0 218 19 241 42 7 8 23 43 34 80 16 53 20 93 20 213 0 215 7 200 -108
235 -82 25 -116 30 -217 31 -66 1 -137 0 -159 -3z m385 -53 l47 -11 12 -98
c14 -105 9 -253 -10 -337 -11 -51 -12 -52 -55 -58 -115 -18 -270 -5 -411 33
-41 11 -42 13 -58 76 -29 116 -15 258 35 357 26 52 58 58 259 53 74 -2 156 -9
181 -15z"/>
<path d="M400 742 c0 -4 20 -28 45 -52 l45 -44 -47 -48 c-26 -26 -43 -51 -39
-55 4 -4 28 14 52 40 25 26 50 45 55 42 5 -4 9 -1 9 4 0 7 23 11 56 11 l56 0
-35 -37 c-20 -20 -33 -41 -30 -46 3 -6 24 9 45 32 22 23 43 39 49 36 5 -4 9
-1 9 4 0 6 17 11 37 11 l37 0 -33 -34 c-19 -20 -30 -39 -26 -46 4 -7 19 3 42
30 25 29 39 38 46 31 16 -16 27 -13 21 4 -5 12 3 15 39 15 25 0 49 5 52 10 4
6 -11 10 -39 10 -26 0 -46 5 -49 13 -4 9 -7 9 -18 -1 -11 -10 -20 -5 -51 25
-44 43 -65 37 -23 -7 l28 -30 -47 2 c-40 2 -51 7 -72 35 -14 18 -32 33 -40 33
-17 0 -18 -16 -1 -27 6 -4 18 -16 26 -26 14 -17 11 -18 -43 -16 -54 2 -60 5
-95 46 -36 40 -61 54 -61 35z"/>
</g>
</svg>
