<?xml version="1.0" standalone="no"?>
<!DOCTYPE svg PUBLIC "-//W3C//DTD SVG 20010904//EN"
 "http://www.w3.org/TR/2001/REC-SVG-20010904/DTD/svg10.dtd">
<svg version="1.0" xmlns="http://www.w3.org/2000/svg"
 width="159.000000pt" height="136.000000pt" viewBox="0 0 159.000000 136.000000"
 preserveAspectRatio="xMidYMid meet">
<metadata>
Created by potrace 1.16, written by Peter Selinger 2001-2019
</metadata>
<g transform="translate(0.000000,136.000000) scale(0.100000,-0.100000)"
fill="#000000" stroke="none">
<path d="M497 1053 c-4 -4 -38 -14 -75 -24 -144 -37 -153 -51 -60 -95 34 -16
77 -39 96 -52 32 -22 35 -22 98 -7 127 29 141 55 16 30 l-81 -17 -77 45 -78
45 89 27 c80 25 94 26 139 16 27 -6 65 -21 83 -33 30 -18 48 -20 128 -19 64 2
95 -2 101 -10 4 -7 9 -46 12 -86 l5 -75 -103 77 c-77 58 -105 74 -114 65 -8
-8 -7 -13 4 -20 8 -5 61 -43 118 -84 93 -69 102 -79 102 -108 0 -18 3 -55 6
-83 l6 -50 -119 -84 c-65 -47 -120 -86 -122 -88 -3 -2 0 -8 6 -14 8 -8 41 12
119 70 59 45 111 81 116 81 4 0 8 -12 8 -27 0 -16 3 -51 6 -80 l7 -52 -42 -11
c-24 -6 -80 -10 -126 -9 -69 1 -89 -2 -117 -19 -19 -12 -57 -27 -84 -33 -45
-10 -58 -9 -137 16 l-87 28 75 44 76 44 62 -11 c34 -6 73 -14 87 -16 23 -5 24
-4 7 9 -10 9 -50 23 -88 32 -62 15 -72 16 -87 2 -9 -8 -52 -32 -95 -53 -51
-25 -77 -44 -75 -53 4 -19 133 -60 214 -68 64 -6 105 8 150 49 14 13 24 16 29
9 9 -16 132 -13 200 4 62 17 146 60 206 107 20 15 39 28 42 28 10 0 152 139
146 144 -3 3 -32 -17 -65 -44 l-59 -49 -8 120 c-5 66 -6 123 -4 126 3 3 34
-18 68 -46 35 -28 65 -48 68 -45 10 10 -130 133 -217 191 -45 30 -106 64 -135
75 -62 24 -230 37 -241 19 -5 -7 -19 -2 -44 18 -48 38 -137 63 -155 44z m474
-125 c22 -13 41 -32 44 -43 8 -39 13 -186 6 -183 -3 2 -28 19 -53 38 -46 34
-47 36 -48 91 0 31 -3 71 -6 88 -8 38 2 39 57 9z m140 -94 c5 -6 13 -62 19
-125 15 -177 16 -172 -31 -204 l-41 -27 4 111 c2 61 1 112 -3 113 -4 2 -9 42
-10 90 l-4 86 28 -16 c16 -10 33 -22 38 -28z m-135 -124 c24 -17 44 -33 44
-35 0 -2 -20 -18 -44 -34 l-44 -31 -4 65 c-1 36 -2 65 0 65 2 0 23 -14 48 -30z
m58 -102 c3 -24 7 -64 10 -90 l5 -47 -49 -30 -49 -30 -5 27 c-3 15 -6 53 -8
85 -2 57 -1 60 38 93 21 18 42 33 46 34 4 0 9 -19 12 -42z"/>
</g>
</svg>
