<?xml version="1.0" standalone="no"?>
<!DOCTYPE svg PUBLIC "-//W3C//DTD SVG 20010904//EN"
 "http://www.w3.org/TR/2001/REC-SVG-20010904/DTD/svg10.dtd">
<svg version="1.0" xmlns="http://www.w3.org/2000/svg"
 width="106.000000pt" height="152.000000pt" viewBox="0 0 106.000000 152.000000"
 preserveAspectRatio="xMidYMid meet">
<metadata>
Created by potrace 1.16, written by Peter Selinger 2001-2019
</metadata>
<g transform="translate(0.000000,152.000000) scale(0.100000,-0.100000)"
fill="#000000" stroke="none">
<path d="M577 1149 l-67 -70 -28 20 c-16 11 -52 41 -81 67 -74 67 -84 49 -31
-57 l42 -83 -27 -55 c-33 -65 -85 -200 -85 -219 0 -7 4 -11 8 -8 4 3 29 -37
54 -87 46 -93 135 -224 145 -213 3 3 -16 38 -41 78 -61 94 -129 236 -129 268
0 14 20 66 45 115 36 71 49 89 64 87 15 -3 16 -1 7 9 -9 9 -9 18 2 40 17 32
42 52 32 25 -6 -14 -3 -16 16 -10 12 4 24 11 25 16 6 14 42 -38 42 -61 0 -12
5 -18 13 -16 11 5 53 -54 108 -151 l23 -41 -38 -104 c-21 -57 -54 -134 -72
-171 -19 -37 -34 -73 -34 -80 0 -36 108 166 135 254 10 31 25 58 32 60 16 3
-52 149 -106 227 -29 43 -29 46 -14 74 24 47 53 138 47 148 -9 16 -18 10 -87
-62z m36 -34 c-17 -53 -26 -60 -43 -39 -11 12 -8 20 20 49 19 19 35 35 36 35
2 0 -4 -20 -13 -45z m-170 -16 c5 -4 3 -17 -3 -30 -12 -22 -13 -22 -36 22 -31
58 -30 68 4 38 15 -13 31 -27 35 -30z"/>
<path d="M479 412 c-13 -10 -53 -36 -89 -57 -77 -46 -75 -44 -68 -50 15 -15
198 88 198 111 0 19 -12 18 -41 -4z"/>
<path d="M562 413 c4 -24 198 -107 198 -86 0 8 -182 103 -196 103 -3 0 -4 -8
-2 -17z"/>
</g>
</svg>
