<?xml version="1.0" standalone="no"?>
<!DOCTYPE svg PUBLIC "-//W3C//DTD SVG 20010904//EN"
 "http://www.w3.org/TR/2001/REC-SVG-20010904/DTD/svg10.dtd">
<svg version="1.0" xmlns="http://www.w3.org/2000/svg"
 width="123.000000pt" height="252.000000pt" viewBox="0 0 123.000000 252.000000"
 preserveAspectRatio="xMidYMid meet">
<metadata>
Created by potrace 1.16, written by Peter Selinger 2001-2019
</metadata>
<g transform="translate(0.000000,252.000000) scale(0.100000,-0.100000)"
fill="#000000" stroke="none">
<path d="M401 2141 c-78 -150 -100 -259 -76 -377 23 -111 121 -344 145 -344 6
0 0 21 -14 48 -24 49 -76 186 -76 203 0 10 131 12 166 3 12 -3 30 -25 42 -50
30 -61 72 -127 78 -121 3 3 -13 41 -35 86 l-41 81 95 0 95 0 22 -35 c13 -19
26 -35 31 -35 11 0 9 8 -9 35 -9 13 -13 28 -10 33 3 5 -4 16 -15 26 -11 9 -19
22 -16 29 2 7 -3 18 -12 25 -12 10 -13 15 -3 18 16 7 15 24 -2 24 -15 0 -26
21 -26 51 0 13 7 19 23 20 l22 0 -22 9 c-27 11 -26 8 -12 49 11 30 13 31 71
31 37 0 57 4 53 10 -3 6 -26 10 -51 10 -42 0 -44 1 -34 20 8 15 22 20 53 21
l42 1 -32 9 c-24 7 -30 13 -26 29 7 26 -13 26 -27 0 -12 -22 -56 -25 -153 -12
l-47 7 35 52 c39 58 41 63 22 63 -15 0 -45 -37 -71 -87 -15 -30 -21 -33 -60
-33 -24 0 -64 3 -89 6 l-46 7 40 78 c44 89 44 89 25 89 -8 0 -32 -36 -55 -79z
m103 -127 c28 -4 45 -11 43 -18 -2 -7 -32 -10 -88 -7 -91 3 -94 4 -84 20 7 12
60 14 129 5z m255 -25 c-8 -15 -17 -19 -32 -15 -12 3 -52 6 -89 6 -56 0 -66 3
-62 15 5 12 26 15 100 15 93 0 95 0 83 -21z m-235 -56 c-4 -16 -10 -32 -15
-37 -12 -14 -159 3 -159 19 0 40 10 45 96 45 l84 0 -6 -27z m202 -19 c-12 -38
-22 -40 -132 -26 -50 7 -50 7 -43 37 l8 30 89 -3 89 -3 -11 -35z m-262 -50
c36 -5 46 -11 46 -26 0 -17 -7 -19 -85 -17 -82 2 -85 3 -85 25 0 21 5 24 39
24 21 0 59 -3 85 -6z m246 -11 c0 -5 3 -19 7 -31 6 -23 5 -24 -53 -17 -114 12
-124 15 -124 35 0 18 7 20 85 20 47 0 85 -3 85 -7z m-186 -80 c6 -14 -4 -15
-78 -9 -64 5 -85 4 -89 -6 -3 -7 -6 -2 -6 12 -1 25 -1 25 83 22 65 -3 86 -7
90 -19z m208 -7 c10 -15 -41 -19 -116 -9 -34 5 -61 14 -64 21 -3 11 14 12 84
6 49 -4 92 -12 96 -18z m-188 -47 c17 -16 1 -18 -92 -12 -71 5 -92 9 -92 20 0
12 15 14 88 8 48 -4 91 -11 96 -16z m216 -10 c11 -20 11 -21 -82 -14 -98 8
-108 10 -108 26 0 5 40 9 90 9 80 0 90 -2 100 -21z"/>
<path d="M448 1081 c-4 -58 -14 -84 -77 -208 -71 -140 -72 -143 -60 -185 15
-58 46 -116 75 -143 l24 -22 -40 -112 c-22 -61 -35 -111 -29 -111 5 0 15 14
21 31 7 21 13 27 18 19 6 -9 36 -11 114 -8 l106 5 -7 -26 c-4 -19 -3 -23 6
-15 11 10 125 265 119 268 -49 22 -101 102 -119 182 -7 33 -18 54 -26 54 -7 0
-13 -8 -13 -17 0 -16 -10 -18 -96 -15 -89 4 -96 3 -92 -15 3 -16 12 -18 99
-15 l96 4 12 -33 c6 -17 11 -34 11 -36 0 -2 -42 -3 -92 -1 -77 3 -93 0 -93
-12 0 -12 17 -15 96 -15 l96 0 28 -33 27 -33 -104 7 -104 7 -13 -29 -13 -29
-24 30 c-25 31 -68 154 -62 177 2 7 26 52 53 100 l50 87 87 1 c47 0 94 3 103
6 15 6 14 2 -4 -33 l-20 -41 -92 6 c-70 4 -93 2 -99 -9 -16 -25 2 -30 88 -23
77 6 85 5 79 -9 -8 -22 5 -22 23 1 79 97 132 262 94 292 -11 10 -15 9 -20 -4
-3 -9 -4 -25 -1 -35 2 -10 2 -23 -2 -27 -3 -5 -48 -8 -98 -6 l-93 3 0 39 c0
23 -5 40 -14 43 -10 4 -15 -10 -18 -62z m222 -50 c0 -5 -4 -21 -10 -35 -9 -25
-12 -26 -106 -26 -95 0 -96 0 -90 23 3 12 6 25 6 29 0 4 42 9 93 11 50 1 95 4
100 5 4 1 7 -2 7 -7z m-6 -510 l-16 -41 -94 0 c-77 0 -94 -3 -94 -15 0 -12 17
-15 89 -15 l89 0 -16 -42 -15 -43 -106 3 c-58 2 -108 5 -110 7 -2 2 12 44 32
92 l35 88 103 10 c57 6 108 8 112 4 4 -3 1 -25 -9 -48z"/>
<path d="M887 1074 c-4 -53 -15 -85 -60 -175 l-56 -110 16 -52 c22 -75 49
-123 82 -148 l29 -21 -19 -45 c-19 -44 -79 -211 -79 -219 0 -2 4 -4 9 -4 4 0
34 62 67 137 41 96 54 138 46 141 -41 13 -92 102 -111 189 -10 51 -10 53 28
110 60 91 73 123 79 189 3 48 1 62 -10 67 -12 4 -16 -7 -21 -59z"/>
</g>
</svg>
