<?xml version="1.0" standalone="no"?>
<!DOCTYPE svg PUBLIC "-//W3C//DTD SVG 20010904//EN"
 "http://www.w3.org/TR/2001/REC-SVG-20010904/DTD/svg10.dtd">
<svg version="1.0" xmlns="http://www.w3.org/2000/svg"
 width="122.000000pt" height="148.000000pt" viewBox="0 0 122.000000 148.000000"
 preserveAspectRatio="xMidYMid meet">
<metadata>
Created by potrace 1.16, written by Peter Selinger 2001-2019
</metadata>
<g transform="translate(0.000000,148.000000) scale(0.100000,-0.100000)"
fill="#000000" stroke="none">
<path d="M310 1166 c0 -9 4 -16 9 -16 63 0 235 -46 354 -95 9 -4 17 -3 17 2 0
14 -144 79 -211 97 -31 8 -82 17 -113 21 -48 6 -56 5 -56 -9z"/>
<path d="M710 1055 c0 -3 29 -33 64 -66 73 -68 87 -96 116 -241 12 -56 23
-105 26 -107 20 -20 -18 224 -43 277 -22 46 -120 142 -144 142 -10 0 -19 -2
-19 -5z"/>
<path d="M584 998 c11 -69 56 -432 53 -434 -1 -1 -48 -25 -104 -53 -65 -34
-124 -73 -167 -112 -69 -64 -71 -66 -57 -87 6 -9 24 3 68 45 72 69 170 129
370 225 81 39 143 73 137 75 -6 2 -59 -17 -117 -41 -125 -52 -112 -62 -122 99
-13 218 -30 325 -52 325 -13 0 -14 -8 -9 -42z"/>
</g>
</svg>
