<?xml version="1.0" standalone="no"?>
<!DOCTYPE svg PUBLIC "-//W3C//DTD SVG 20010904//EN"
 "http://www.w3.org/TR/2001/REC-SVG-20010904/DTD/svg10.dtd">
<svg version="1.0" xmlns="http://www.w3.org/2000/svg"
 width="169.000000pt" height="323.000000pt" viewBox="0 0 169.000000 323.000000"
 preserveAspectRatio="xMidYMid meet">
<metadata>
Created by potrace 1.16, written by Peter Selinger 2001-2019
</metadata>
<g transform="translate(0.000000,323.000000) scale(0.100000,-0.100000)"
fill="#000000" stroke="none">
<path d="M825 2911 c-122 -55 -198 -185 -199 -340 l-1 -73 -107 4 c-100 4
-108 3 -108 -14 0 -16 10 -18 113 -18 l112 0 24 -45 c35 -67 95 -130 173 -185
89 -62 103 -59 76 20 -11 32 -18 71 -16 87 3 24 7 28 33 26 133 -8 192 -4 245
17 30 12 62 23 70 24 19 4 40 86 40 164 0 76 -17 98 -106 132 -48 19 -79 24
-166 24 l-108 1 -6 31 c-4 22 1 48 15 79 25 57 25 55 6 55 -34 0 -56 -106 -35
-166 l10 -29 108 0 c210 0 252 -28 252 -166 0 -45 -5 -82 -12 -91 -24 -30
-115 -49 -232 -47 -96 1 -111 -1 -123 -17 -23 -32 -26 -61 -10 -109 9 -25 12
-45 8 -45 -24 0 -211 223 -198 236 2 3 56 7 120 11 64 3 114 10 111 15 -3 4
-61 8 -128 8 l-124 0 -6 34 c-4 20 0 65 10 106 26 116 85 190 220 277 18 11
18 12 -1 12 -11 0 -38 -8 -60 -18z"/>
<path d="M664 1894 c-4 -11 -24 -48 -45 -84 -20 -36 -42 -82 -49 -102 l-12
-38 -56 0 c-31 1 -82 10 -112 21 -71 26 -85 27 -85 9 0 -18 116 -48 192 -49
57 -1 59 -3 64 -46 4 -28 2 -30 -40 -37 -46 -8 -122 -31 -179 -55 -27 -11 -31
-17 -22 -28 9 -11 19 -9 56 12 49 27 135 53 174 52 22 0 31 -14 73 -99 26 -54
47 -106 47 -115 0 -11 6 -15 18 -11 9 3 103 26 207 52 211 51 488 124 494 130
13 12 -12 11 -68 -2 -35 -8 -64 -13 -65 -12 -1 2 0 60 2 131 4 141 0 135 77
118 30 -6 30 -7 41 -101 l12 -95 -2 100 -1 100 -105 26 c-146 37 -549 131
-582 137 -21 3 -30 -1 -34 -14z m101 -39 c16 -4 33 -12 37 -18 4 -7 8 -70 8
-141 l0 -128 -31 6 c-17 3 -67 6 -110 6 l-79 0 0 35 c0 32 3 35 28 35 51 0
182 23 182 33 0 5 -13 7 -28 4 -16 -3 -64 -9 -107 -13 l-77 -7 7 24 c26 82 96
183 124 175 9 -2 29 -7 46 -11z m270 -56 c77 -16 150 -31 162 -34 22 -5 23
-10 36 -249 l2 -29 -190 -43 c-104 -24 -193 -43 -197 -43 -5 -1 -8 98 -8 220
l0 221 28 -7 c15 -4 90 -20 167 -36z m-221 -276 c3 -21 6 -59 6 -84 l0 -46
-57 -12 c-31 -6 -63 -11 -70 -11 -13 0 -70 110 -87 168 -7 22 -7 22 97 22
l104 0 7 -37z"/>
<path d="M936 1773 c-14 -14 1 -313 16 -313 11 0 11 307 -1 314 -4 3 -11 3
-15 -1z"/>
<path d="M768 992 c-26 -10 -97 -108 -130 -179 l-30 -63 -128 0 c-122 0 -130
-1 -144 -22 -20 -28 -20 -61 0 -127 l15 -53 130 3 130 4 24 -60 c30 -72 70
-130 120 -170 l36 -29 50 54 c104 115 106 140 4 45 -38 -36 -70 -65 -71 -65
-8 0 -90 140 -105 179 l-19 51 118 1 c157 2 205 12 98 22 -43 4 -112 7 -151 7
l-73 0 -4 43 c-7 69 -3 74 64 81 34 3 101 6 149 6 53 0 89 4 89 10 0 6 -36 10
-87 10 -87 1 -195 9 -201 15 -7 6 68 139 97 174 l29 35 69 -62 70 -62 197 -14
c108 -8 199 -15 200 -17 3 -4 24 -321 22 -326 -1 -1 -90 -7 -200 -14 -149 -9
-199 -16 -203 -26 -3 -8 -3 -16 0 -19 6 -6 225 12 325 28 58 9 76 8 82 -1 5
-9 9 -8 14 4 9 24 7 363 -2 369 -16 9 -236 36 -338 41 l-104 5 -57 62 c-64 71
-62 69 -85 60z m-168 -319 c0 -21 3 -48 6 -60 6 -23 6 -23 -119 -23 l-126 0
-7 45 c-11 75 -10 75 126 75 l120 0 0 -37z"/>
</g>
</svg>
