<?xml version="1.0" standalone="no"?>
<!DOCTYPE svg PUBLIC "-//W3C//DTD SVG 20010904//EN"
 "http://www.w3.org/TR/2001/REC-SVG-20010904/DTD/svg10.dtd">
<svg version="1.0" xmlns="http://www.w3.org/2000/svg"
 width="192.000000pt" height="243.000000pt" viewBox="0 0 192.000000 243.000000"
 preserveAspectRatio="xMidYMid meet">
<metadata>
Created by potrace 1.16, written by Peter Selinger 2001-2019
</metadata>
<g transform="translate(0.000000,243.000000) scale(0.100000,-0.100000)"
fill="#000000" stroke="none">
<path d="M1498 2105 c-105 -37 -200 -91 -256 -147 -50 -50 -92 -118 -92 -150
0 -17 -97 -26 -334 -31 l-109 -2 -22 65 c-30 87 -47 119 -85 155 -28 27 -38
30 -93 30 -53 0 -68 -4 -100 -29 -44 -34 -53 -62 -37 -110 11 -33 100 -126
121 -126 5 0 9 -7 9 -15 0 -13 43 -15 323 -15 l323 0 12 -46 c17 -62 112 -157
207 -206 69 -36 234 -93 242 -84 3 2 7 162 10 354 7 425 14 404 -119 357z m82
-127 c1 -62 3 -139 7 -170 4 -43 2 -58 -7 -58 -8 0 -11 11 -8 31 3 21 0 33 -9
36 -8 3 -93 0 -189 -7 -96 -7 -177 -11 -180 -7 -3 3 3 26 14 50 23 52 86 117
151 155 44 26 184 80 209 81 9 1 12 -28 12 -111z m-998 -5 c36 -39 69 -96 93
-163 l13 -37 -84 -7 c-84 -7 -85 -7 -124 24 -49 39 -78 79 -86 118 -5 25 -1
33 26 52 31 22 93 49 115 50 6 0 27 -17 47 -37z m966 -190 c-2 -22 -8 -28 -25
-27 -13 0 -94 2 -180 3 -87 1 -153 5 -146 7 9 4 247 34 341 43 9 1 12 -8 10
-26z m2 -108 c0 -37 4 -65 10 -65 6 0 10 28 10 65 0 37 4 65 10 65 6 0 10 -62
10 -165 l0 -164 -41 14 c-178 63 -330 182 -354 278 l-7 26 99 4 c54 1 135 4
181 5 l82 2 0 -65z"/>
<path d="M1508 1015 c-180 -63 -309 -161 -344 -261 -17 -50 -19 -52 -62 -58
-25 -3 -82 -6 -128 -6 -81 0 -86 1 -250 74 l-167 75 -111 -50 c-61 -28 -119
-53 -129 -56 -26 -8 -21 -17 21 -40 95 -54 133 -58 483 -57 l326 1 11 -41 c17
-62 65 -120 146 -174 66 -44 208 -105 277 -119 l26 -5 6 138 c4 75 7 236 7
356 0 177 -3 222 -14 234 -18 17 -17 18 -98 -11z m72 -132 c0 -65 3 -142 6
-170 4 -36 3 -53 -5 -53 -6 0 -11 16 -11 35 0 42 17 40 -210 21 -91 -8 -166
-13 -168 -11 -2 2 6 26 18 54 26 60 96 129 171 167 48 24 172 72 192 73 4 1 7
-52 7 -116z m-904 -123 c214 -84 213 -76 14 -84 -139 -5 -186 -4 -230 8 -116
31 -116 28 -15 79 50 25 93 46 96 46 3 1 64 -22 135 -49z m874 -75 l0 -25
-180 0 c-99 0 -180 4 -180 9 0 8 230 37 318 40 39 1 42 -1 42 -24z m-422 -22
c-10 -2 -28 -2 -40 0 -13 2 -5 4 17 4 22 1 32 -1 23 -4z m462 -179 l0 -165
-22 6 c-70 20 -231 109 -281 155 -50 46 -97 117 -97 148 0 9 48 12 180 12
l180 0 0 -66 c0 -41 4 -63 10 -59 6 3 10 35 10 71 0 36 4 64 10 64 6 0 10 -62
10 -166z"/>
</g>
</svg>
