<?xml version="1.0" standalone="no"?>
<!DOCTYPE svg PUBLIC "-//W3C//DTD SVG 20010904//EN"
 "http://www.w3.org/TR/2001/REC-SVG-20010904/DTD/svg10.dtd">
<svg version="1.0" xmlns="http://www.w3.org/2000/svg"
 width="143.000000pt" height="135.000000pt" viewBox="0 0 143.000000 135.000000"
 preserveAspectRatio="xMidYMid meet">
<metadata>
Created by potrace 1.16, written by Peter Selinger 2001-2019
</metadata>
<g transform="translate(0.000000,135.000000) scale(0.100000,-0.100000)"
fill="#000000" stroke="none">
<path d="M526 1025 c-33 -13 -70 -37 -82 -52 -29 -36 -108 -220 -128 -299 -33
-127 -12 -245 58 -337 l28 -37 170 0 c161 0 171 1 221 26 80 39 178 108 173
121 -3 6 1 19 8 28 11 15 18 13 80 -30 37 -26 70 -45 73 -41 4 3 4 7 2 9 -5 4
-133 100 -137 103 -2 1 6 32 17 69 12 37 21 87 21 111 0 46 -29 133 -75 224
-36 72 -45 83 -59 70 -9 -7 0 -35 37 -108 29 -58 51 -118 54 -146 6 -47 -14
-196 -26 -196 -3 0 -24 14 -45 30 -22 17 -43 30 -48 30 -20 0 -4 -21 41 -54
49 -36 49 -36 39 -75 -9 -37 -15 -41 -106 -84 -54 -25 -117 -51 -142 -57 -50
-14 -171 -7 -260 14 -53 12 -56 14 -74 62 -24 63 -24 186 -1 274 9 36 37 114
62 174 l46 108 56 27 c78 37 185 35 324 -5 9 -3 17 -1 17 5 0 6 -36 22 -81 36
-105 33 -184 33 -263 0z"/>
<path d="M670 913 c0 -15 7 -18 45 -15 41 4 45 2 45 -18 0 -20 4 -22 31 -16
17 3 38 6 45 6 8 0 14 5 14 10 0 6 -18 10 -40 10 -23 0 -42 6 -47 14 -4 7 -27
17 -50 21 -38 6 -43 4 -43 -12z"/>
<path d="M460 855 c0 -11 12 -15 44 -15 49 0 69 14 33 24 -41 11 -77 7 -77 -9z"/>
<path d="M700 775 c0 -16 43 -21 74 -9 27 10 7 24 -35 24 -28 0 -39 -4 -39
-15z"/>
<path d="M413 767 c-3 -5 -1 -12 3 -17 11 -9 84 -1 84 10 0 11 -80 18 -87 7z"/>
<path d="M583 738 c2 -7 11 -13 20 -12 10 0 31 1 47 2 51 3 33 22 -21 22 -36
0 -49 -4 -46 -12z"/>
<path d="M840 735 c0 -11 11 -15 39 -15 42 0 62 14 35 24 -31 12 -74 7 -74 -9z"/>
<path d="M460 635 c0 -16 36 -20 77 -9 36 10 16 24 -33 24 -32 0 -44 -4 -44
-15z"/>
<path d="M700 555 c0 -16 28 -19 68 -9 37 10 25 24 -23 24 -33 0 -45 -4 -45
-15z"/>
<path d="M463 497 c-10 -17 13 -26 50 -20 20 3 37 9 37 13 0 11 -80 17 -87 7z"/>
<path d="M830 485 c0 -11 11 -15 39 -15 42 0 62 14 35 24 -31 12 -74 7 -74 -9z"/>
<path d="M570 471 c0 -6 4 -12 9 -16 14 -8 91 6 85 16 -7 12 -94 11 -94 0z"/>
</g>
</svg>
