<?xml version="1.0" standalone="no"?>
<!DOCTYPE svg PUBLIC "-//W3C//DTD SVG 20010904//EN"
 "http://www.w3.org/TR/2001/REC-SVG-20010904/DTD/svg10.dtd">
<svg version="1.0" xmlns="http://www.w3.org/2000/svg"
 width="139.000000pt" height="133.000000pt" viewBox="0 0 139.000000 133.000000"
 preserveAspectRatio="xMidYMid meet">
<metadata>
Created by potrace 1.16, written by Peter Selinger 2001-2019
</metadata>
<g transform="translate(0.000000,133.000000) scale(0.100000,-0.100000)"
fill="#000000" stroke="none">
<path d="M300 743 c0 -325 6 -422 27 -430 14 -6 253 101 583 259 162 78 183
91 168 102 -35 26 -745 356 -765 356 -10 0 -13 -62 -13 -287z m81 208 c4 -3 9
-133 12 -288 l6 -281 -31 -11 c-17 -6 -34 -11 -37 -11 -3 0 -5 138 -3 306 l3
305 22 -7 c12 -3 25 -9 28 -13z m142 -52 l77 -31 0 -76 0 -75 -87 7 c-48 3
-88 8 -90 9 -5 6 10 197 16 197 3 0 41 -14 84 -31z m152 -67 l30 -17 3 -151 4
-150 -43 -17 c-23 -9 -43 -16 -43 -14 -5 13 7 367 12 367 4 -1 21 -9 37 -18z
m255 -109 c3 -3 -35 -3 -85 1 -49 3 -96 5 -102 6 -8 0 -13 15 -13 39 l0 40 98
-41 c53 -22 99 -43 102 -45z m-330 -58 l0 -35 -74 0 c-94 0 -106 5 -106 41 l0
29 90 0 90 0 0 -35z m426 19 l39 -16 -35 -19 c-28 -15 -58 -18 -152 -19 -64 0
-123 3 -132 6 -10 4 -16 18 -16 35 l0 29 129 0 c95 0 138 -4 167 -16z m-426
-106 c0 -18 3 -49 6 -69 4 -25 2 -38 -7 -42 -8 -3 -51 -21 -96 -41 l-83 -35 0
109 0 110 90 0 90 0 0 -32z m320 25 c-8 -3 -54 -23 -102 -44 l-88 -38 0 45 0
44 103 -1 c56 0 95 -3 87 -6z"/>
</g>
</svg>
