<?xml version="1.0" standalone="no"?>
<!DOCTYPE svg PUBLIC "-//W3C//DTD SVG 20010904//EN"
 "http://www.w3.org/TR/2001/REC-SVG-20010904/DTD/svg10.dtd">
<svg version="1.0" xmlns="http://www.w3.org/2000/svg"
 width="148.000000pt" height="394.000000pt" viewBox="0 0 148.000000 394.000000"
 preserveAspectRatio="xMidYMid meet">
<metadata>
Created by potrace 1.16, written by Peter Selinger 2001-2019
</metadata>
<g transform="translate(0.000000,394.000000) scale(0.100000,-0.100000)"
fill="#000000" stroke="none">
<path d="M638 3633 c-10 -2 -18 -11 -18 -20 0 -10 6 -13 16 -9 77 30 147 13
216 -52 l48 -45 0 -72 c0 -100 -21 -163 -75 -223 -82 -91 -207 -114 -315 -58
-86 44 -111 66 -131 112 -36 79 -23 170 29 217 19 18 20 17 15 -25 -6 -58 23
-103 83 -130 145 -64 272 111 158 219 -51 48 -108 54 -180 17 -111 -56 -163
-136 -149 -228 14 -86 26 -110 80 -153 101 -82 185 -103 300 -74 37 9 67 26
112 66 72 65 93 109 100 215 5 63 2 82 -15 115 -26 51 -78 104 -119 121 -31
13 -118 17 -155 7z"/>
<path d="M384 2789 c-62 -18 -103 -155 -74 -245 18 -57 92 -165 139 -202 69
-55 146 -85 198 -78 50 7 177 59 241 99 36 24 42 32 42 62 0 27 -8 43 -32 66
-30 26 -38 29 -83 26 -27 -3 -58 -8 -67 -12 -16 -6 -18 -1 -18 48 0 49 -3 58
-27 77 -22 17 -38 21 -75 18 l-46 -3 -6 37 c-9 55 -24 83 -56 101 -30 18 -86
21 -136 6z m129 -30 c42 -32 52 -84 33 -161 -20 -82 -20 -101 2 -127 28 -35
81 -37 148 -7 104 48 175 45 204 -9 20 -37 8 -51 -91 -101 -124 -63 -165 -72
-231 -51 -56 17 -138 65 -138 80 0 5 -15 27 -34 50 -18 23 -41 58 -51 77 -24
46 -31 154 -13 205 11 33 19 41 53 51 59 18 89 16 118 -7z m168 -145 c29 -14
30 -18 27 -72 l-3 -56 -44 -13 c-35 -10 -49 -10 -70 0 -23 11 -26 18 -26 67 0
30 4 63 7 73 9 22 67 23 109 1z"/>
<path d="M549 1979 c-70 -10 -114 -35 -169 -96 -53 -58 -68 -95 -77 -190 -5
-54 -2 -69 25 -128 54 -114 176 -222 273 -240 21 -4 60 0 100 10 79 21 209 74
209 86 0 5 12 6 28 4 15 -3 53 5 86 18 l58 22 24 75 c28 88 26 80 15 80 -5 0
-23 -33 -39 -72 -28 -67 -34 -74 -69 -85 -21 -6 -50 -12 -65 -12 -25 -1 -28 2
-28 33 0 85 4 89 101 120 49 16 89 33 89 38 0 5 -8 7 -17 4 -10 -3 -31 -8 -48
-11 -16 -4 -51 -13 -77 -22 -46 -14 -49 -17 -64 -69 -9 -31 -13 -66 -10 -78 5
-21 -2 -27 -63 -54 -109 -49 -186 -66 -240 -52 -54 13 -143 64 -157 90 -5 10
-24 40 -43 66 -44 61 -60 106 -61 169 0 77 16 119 71 179 57 62 106 84 212 93
l68 6 40 -39 c54 -52 69 -83 69 -142 0 -62 -42 -149 -79 -164 -44 -17 -128 -5
-157 23 -54 50 -64 118 -22 155 17 16 23 17 61 3 39 -13 42 -17 42 -49 0 -53
20 -52 23 0 3 54 -15 69 -89 76 -43 3 -51 1 -64 -20 -26 -40 -27 -100 -2 -137
40 -59 71 -74 149 -74 69 0 71 1 104 39 34 40 64 112 64 156 0 37 -44 120 -82
157 -27 25 -43 32 -88 35 -30 2 -76 1 -101 -3z"/>
<path d="M963 1009 c-40 -19 -63 -36 -63 -47 0 -13 -2 -14 -9 -4 -6 11 -35 12
-137 7 -166 -8 -210 -18 -263 -60 -55 -44 -122 -130 -157 -201 -37 -77 -41
-136 -14 -222 19 -62 29 -78 81 -127 l60 -55 82 0 c115 0 166 34 182 120 9 52
-20 86 -81 93 -65 7 -98 -7 -112 -47 -17 -47 -16 -96 3 -96 11 0 15 11 15 41
0 64 13 79 69 79 63 0 83 -21 79 -81 -3 -40 -6 -45 -51 -67 -69 -36 -144 -34
-194 4 -62 47 -92 87 -109 143 -28 92 -7 186 62 277 13 17 21 34 18 37 -8 7
83 83 124 103 27 13 76 20 182 26 l144 7 31 -33 c16 -18 48 -42 71 -54 l40
-21 79 43 c109 59 106 74 -4 24 l-90 -41 -36 27 c-67 52 -66 63 11 105 l41 23
71 -31 c39 -17 74 -31 77 -31 18 0 -19 29 -65 50 -27 13 -50 27 -50 32 0 14
-23 8 -87 -23z"/>
</g>
</svg>
