<?xml version="1.0" standalone="no"?>
<!DOCTYPE svg PUBLIC "-//W3C//DTD SVG 20010904//EN"
 "http://www.w3.org/TR/2001/REC-SVG-20010904/DTD/svg10.dtd">
<svg version="1.0" xmlns="http://www.w3.org/2000/svg"
 width="102.000000pt" height="373.000000pt" viewBox="0 0 102.000000 373.000000"
 preserveAspectRatio="xMidYMid meet">
<metadata>
Created by potrace 1.16, written by Peter Selinger 2001-2019
</metadata>
<g transform="translate(0.000000,373.000000) scale(0.100000,-0.100000)"
fill="#000000" stroke="none">
<path d="M480 3420 c0 -5 -7 -10 -15 -10 -11 0 -15 -11 -15 -42 0 -101 22
-527 29 -570 9 -50 0 -68 -30 -68 -21 0 -77 -62 -85 -95 -13 -53 43 -82 176
-92 65 -4 90 -3 90 6 0 6 -16 11 -38 11 -57 0 -154 19 -180 36 -40 26 -28 49
64 119 93 72 173 159 208 225 34 64 36 73 36 164 0 108 -8 132 -68 198 -38 42
-147 128 -163 128 -5 0 -9 -4 -9 -10z m82 -77 c61 -44 105 -105 124 -170 30
-102 -21 -235 -133 -353 l-62 -65 -1 318 c0 252 3 317 13 311 6 -4 33 -22 59
-41z"/>
<path d="M480 2306 c0 -9 -7 -16 -16 -16 -12 0 -14 -5 -9 -17 5 -10 23 -66 41
-124 41 -132 50 -210 34 -281 -15 -66 -89 -226 -137 -295 -65 -94 -26 -134
140 -141 59 -3 97 -1 97 5 0 6 -40 12 -88 15 -98 6 -152 26 -152 58 0 13 28
42 78 82 114 92 186 170 221 239 29 57 31 70 31 163 0 99 -1 102 -35 154 -34
50 -108 116 -174 155 -27 16 -31 16 -31 3z m113 -105 c66 -61 100 -130 100
-201 0 -30 -3 -66 -7 -79 -7 -21 -12 -23 -57 -19 -37 4 -49 2 -49 -8 0 -10 14
-14 45 -14 49 0 50 -1 35 -31 -8 -15 -21 -19 -60 -19 l-48 0 10 38 c15 54 3
174 -27 277 -15 50 -30 98 -33 109 -4 16 -3 17 18 6 13 -7 46 -33 73 -59z m37
-401 c0 -3 -24 -35 -53 -71 -52 -62 -127 -128 -127 -112 0 4 21 49 46 98 l47
90 44 0 c23 0 43 -2 43 -5z"/>
<path d="M314 1163 c-9 -14 2 -41 52 -138 83 -158 100 -223 85 -324 -14 -92
-45 -198 -78 -269 -41 -88 -10 -136 84 -130 l48 4 -43 8 c-58 12 -87 36 -79
67 3 13 43 67 88 119 91 105 143 201 160 295 28 152 -37 261 -205 346 -89 44
-97 46 -112 22z m108 -55 c96 -51 145 -107 172 -195 7 -22 5 -23 -57 -23 l-65
0 -58 118 c-32 64 -60 120 -62 125 -7 13 9 7 70 -25z m178 -265 c0 -42 -26
-129 -55 -189 -30 -61 -114 -179 -122 -171 -3 3 6 41 20 84 36 110 50 189 44
244 -3 26 -3 50 0 53 4 3 30 6 60 6 51 0 53 -1 53 -27z"/>
</g>
</svg>
