<?xml version="1.0" standalone="no"?>
<!DOCTYPE svg PUBLIC "-//W3C//DTD SVG 20010904//EN"
 "http://www.w3.org/TR/2001/REC-SVG-20010904/DTD/svg10.dtd">
<svg version="1.0" xmlns="http://www.w3.org/2000/svg"
 width="152.000000pt" height="151.000000pt" viewBox="0 0 152.000000 151.000000"
 preserveAspectRatio="xMidYMid meet">
<metadata>
Created by potrace 1.16, written by Peter Selinger 2001-2019
</metadata>
<g transform="translate(0.000000,151.000000) scale(0.100000,-0.100000)"
fill="#000000" stroke="none">
<path d="M1010 1070 l-185 -139 -107 -1 c-96 0 -108 -2 -108 -17 0 -10 -31
-46 -69 -80 l-68 -62 -79 80 c-52 52 -82 75 -88 69 -7 -7 16 -37 68 -89 l79
-79 -78 -76 c-67 -64 -76 -76 -60 -82 15 -6 33 8 86 66 l68 74 23 -19 c58 -49
118 -110 118 -122 0 -10 26 -13 103 -13 l103 0 188 -140 c104 -78 191 -138
194 -135 3 3 -2 11 -10 18 -9 6 -83 67 -165 133 l-150 121 90 7 c50 3 123 6
164 6 l73 0 1 -92 c0 -51 4 -115 9 -143 4 -28 8 145 9 403 1 356 -2 452 -11
452 -7 0 -96 -63 -198 -140z m180 -21 l0 -131 -160 4 c-87 1 -156 6 -152 10
11 11 307 248 310 248 1 0 2 -59 2 -131z m0 -226 c0 -43 3 -108 6 -145 l7 -66
-289 5 -289 5 -68 66 -67 66 67 68 67 68 231 3 c126 1 254 3 283 5 l52 2 0
-77z"/>
</g>
</svg>
