<?xml version="1.0" standalone="no"?>
<!DOCTYPE svg PUBLIC "-//W3C//DTD SVG 20010904//EN"
 "http://www.w3.org/TR/2001/REC-SVG-20010904/DTD/svg10.dtd">
<svg version="1.0" xmlns="http://www.w3.org/2000/svg"
 width="114.000000pt" height="130.000000pt" viewBox="0 0 114.000000 130.000000"
 preserveAspectRatio="xMidYMid meet">
<metadata>
Created by potrace 1.16, written by Peter Selinger 2001-2019
</metadata>
<g transform="translate(0.000000,130.000000) scale(0.100000,-0.100000)"
fill="#000000" stroke="none">
<path d="M300 906 l0 -96 55 0 55 0 0 -166 0 -166 -55 7 -55 6 0 -97 0 -97
118 6 c119 5 371 41 407 57 l20 9 -20 0 c-11 1 -87 -6 -170 -13 -229 -22 -333
-28 -337 -19 -3 4 -3 32 0 61 4 51 4 52 37 52 19 0 41 -8 51 -17 13 -13 19
-14 22 -5 4 12 44 17 54 6 4 -3 32 -7 65 -8 32 -2 112 -7 178 -11 66 -4 117
-5 114 -1 -3 4 -80 17 -170 29 l-164 23 -3 39 c-2 21 -1 49 2 62 6 20 12 23
56 23 28 0 50 5 50 10 0 6 -9 10 -21 10 -15 0 -19 4 -15 16 3 9 6 24 6 35 0
14 7 19 25 19 16 0 25 -6 25 -15 0 -8 5 -15 10 -15 6 0 10 22 10 48 0 26 5 53
12 60 9 9 9 12 0 12 -14 0 -16 38 -4 58 5 7 45 18 90 26 84 13 118 26 66 26
-16 0 -92 -7 -169 -15 -77 -8 -183 -15 -236 -15 l-96 0 5 53 c2 28 6 54 8 56
2 2 74 -4 161 -13 87 -8 203 -18 258 -21 195 -10 48 16 -392 71 l-53 7 0 -97z
m330 -106 c0 -25 -4 -30 -25 -30 -21 0 -25 5 -25 30 0 25 4 30 25 30 21 0 25
-5 25 -30z m-148 -40 c-3 -36 -9 -58 -20 -67 -16 -11 -16 -12 1 -13 13 0 17
-8 17 -35 0 -31 -3 -35 -26 -35 l-27 0 7 97 c7 92 16 117 41 109 6 -1 9 -26 7
-56z m78 35 c0 -20 -5 -25 -25 -25 -20 0 -25 5 -25 25 0 20 5 25 25 25 20 0
25 -5 25 -25z m0 -70 c0 -20 -5 -25 -25 -25 -20 0 -25 5 -25 25 0 20 5 25 25
25 20 0 25 -5 25 -25z m70 0 c0 -20 -5 -25 -25 -25 -20 0 -25 5 -25 25 0 20 5
25 25 25 20 0 25 -5 25 -25z m-70 -80 c0 -32 -3 -35 -28 -35 -26 0 -28 2 -24
35 3 29 8 35 28 35 21 0 24 -5 24 -35z m-78 -115 c3 -60 3 -60 -24 -60 -27 0
-28 1 -28 60 0 57 1 60 24 60 23 0 24 -4 28 -60z"/>
</g>
</svg>
