<?xml version="1.0" standalone="no"?>
<!DOCTYPE svg PUBLIC "-//W3C//DTD SVG 20010904//EN"
 "http://www.w3.org/TR/2001/REC-SVG-20010904/DTD/svg10.dtd">
<svg version="1.0" xmlns="http://www.w3.org/2000/svg"
 width="151.000000pt" height="135.000000pt" viewBox="0 0 151.000000 135.000000"
 preserveAspectRatio="xMidYMid meet">
<metadata>
Created by potrace 1.16, written by Peter Selinger 2001-2019
</metadata>
<g transform="translate(0.000000,135.000000) scale(0.100000,-0.100000)"
fill="#000000" stroke="none">
<path d="M660 993 c-21 -105 -21 -105 -36 -92 -11 9 -29 -1 -86 -47 -99 -79
-207 -183 -224 -216 -20 -39 -17 -112 6 -159 24 -45 84 -107 149 -152 l44 -30
89 12 c97 13 119 20 196 69 29 18 71 39 92 47 58 21 270 57 298 52 24 -5 24
-4 18 47 -3 28 -6 58 -6 67 0 13 -22 16 -162 18 -90 1 -165 5 -168 7 -3 3 -5
51 -6 107 0 119 -7 141 -40 134 -28 -5 -28 -8 -8 82 9 40 13 75 10 79 -13 12
-24 -20 -42 -127 -15 -88 -48 -181 -59 -169 -2 2 10 64 26 138 31 146 34 170
20 170 -5 0 -23 -78 -40 -172 -22 -121 -40 -189 -59 -226 -37 -73 -40 -42 -8
84 14 55 34 142 46 194 11 52 23 103 26 113 3 10 0 17 -8 17 -9 0 -24 -52 -48
-167 -29 -140 -36 -161 -40 -128 -3 24 4 76 17 130 12 50 25 109 29 133 10 65
-13 52 -26 -15z m-56 -165 c3 -13 8 -77 11 -143 3 -66 7 -121 9 -122 12 -13
46 26 117 134 97 145 102 144 98 -17 l-3 -95 166 1 167 1 6 -26 c3 -14 8 -34
11 -43 4 -13 -4 -18 -38 -22 -259 -33 -296 -43 -375 -103 -43 -33 -110 -52
-208 -59 l-81 -7 -48 54 c-45 51 -76 100 -90 145 -5 17 0 22 28 31 33 10 56 3
56 -18 0 -12 42 -80 47 -76 2 3 -5 28 -16 56 l-19 52 24 10 c14 5 29 9 33 9 4
0 16 7 27 16 21 17 24 17 -64 -1 -30 -6 -33 -4 -43 24 -6 17 -18 31 -26 31
-14 0 -13 -11 4 -57 5 -13 -43 -30 -54 -20 -13 14 21 67 80 125 66 65 157 141
169 142 4 0 10 -10 12 -22z"/>
</g>
</svg>
