<?xml version="1.0" standalone="no"?>
<!DOCTYPE svg PUBLIC "-//W3C//DTD SVG 20010904//EN"
 "http://www.w3.org/TR/2001/REC-SVG-20010904/DTD/svg10.dtd">
<svg version="1.0" xmlns="http://www.w3.org/2000/svg"
 width="165.000000pt" height="139.000000pt" viewBox="0 0 165.000000 139.000000"
 preserveAspectRatio="xMidYMid meet">
<metadata>
Created by potrace 1.16, written by Peter Selinger 2001-2019
</metadata>
<g transform="translate(0.000000,139.000000) scale(0.100000,-0.100000)"
fill="#000000" stroke="none">
<path d="M937 915 l-173 -176 -120 15 c-65 8 -153 17 -194 21 -41 3 -92 8
-113 11 -35 5 -37 4 -37 -20 0 -22 5 -26 27 -26 41 0 402 -19 444 -24 36 -4
39 -1 150 127 63 72 126 144 141 161 l26 31 -29 -120 c-15 -66 -48 -220 -72
-342 l-43 -223 -62 74 c-94 109 -108 122 -127 106 -11 -9 -33 -11 -74 -7 -33
4 -132 4 -220 0 -147 -6 -161 -8 -161 -25 0 -16 9 -18 73 -18 39 0 141 5 225
11 l154 12 104 -104 c120 -120 123 -120 143 -2 14 83 3 77 160 88 106 8 148
23 76 26 -27 2 -88 1 -134 0 l-83 -3 7 33 c4 19 8 35 10 37 1 1 56 7 121 13
168 16 176 28 17 29 -73 0 -133 1 -133 3 0 10 29 149 31 152 4 3 210 25 241
25 10 0 18 5 18 10 0 6 -48 10 -125 10 -123 0 -125 0 -125 23 0 12 4 27 8 33
4 6 52 14 107 18 56 4 114 10 130 15 55 16 0 24 -115 18 -60 -3 -110 -4 -113
-1 -2 2 2 39 8 82 7 42 11 79 10 80 -2 2 -82 -76 -178 -173z"/>
</g>
</svg>
