<?xml version="1.0" standalone="no"?>
<!DOCTYPE svg PUBLIC "-//W3C//DTD SVG 20010904//EN"
 "http://www.w3.org/TR/2001/REC-SVG-20010904/DTD/svg10.dtd">
<svg version="1.0" xmlns="http://www.w3.org/2000/svg"
 width="142.000000pt" height="222.000000pt" viewBox="0 0 142.000000 222.000000"
 preserveAspectRatio="xMidYMid meet">
<metadata>
Created by potrace 1.16, written by Peter Selinger 2001-2019
</metadata>
<g transform="translate(0.000000,222.000000) scale(0.100000,-0.100000)"
fill="#000000" stroke="none">
<path d="M304 1894 c-7 -28 1 -172 10 -181 12 -12 145 -13 196 -1 44 11 55 18
60 38 7 29 41 36 193 40 68 2 92 -1 104 -12 31 -32 35 -94 17 -305 -9 -112
-15 -206 -12 -208 3 -3 49 -2 103 2 116 9 105 -7 129 185 29 219 18 337 -37
397 -37 40 -73 49 -162 40 -194 -20 -318 -29 -322 -25 -3 2 -6 12 -7 23 -4 23
-50 32 -173 32 -92 1 -93 1 -99 -25z m243 -16 c10 -16 9 -126 -1 -136 -4 -4
-53 -7 -109 -7 l-101 0 -7 33 c-3 18 -4 52 -1 77 l5 45 103 0 c71 0 105 -4
111 -12z m479 -27 c57 -35 68 -86 60 -274 -8 -172 -18 -272 -28 -283 -4 -3
-44 -3 -91 1 l-83 7 14 92 c8 50 15 152 16 228 1 123 -1 139 -20 164 l-20 28
-147 -2 c-82 -1 -147 2 -147 7 0 5 46 14 103 21 56 7 127 16 157 20 99 14 153
11 186 -9z"/>
<path d="M306 934 c-8 -20 -6 -132 3 -164 10 -34 65 -45 160 -30 94 15 101 18
101 40 0 11 4 22 10 25 5 3 64 11 131 16 152 13 163 9 178 -63 11 -52 10 -68
-15 -380 l-7 -78 75 0 c138 0 133 -4 152 113 23 136 32 330 17 384 -13 48 -51
97 -90 117 -22 12 -54 12 -201 0 -96 -7 -189 -15 -207 -18 -30 -4 -51 13 -38
34 7 12 -60 20 -166 20 -79 0 -98 -3 -103 -16z m88 -30 c3 -9 6 -33 6 -55 0
-21 5 -39 10 -39 6 0 10 25 10 55 l0 56 62 -3 c59 -3 62 -4 70 -33 4 -16 5
-49 2 -72 l-6 -41 -74 -7 c-40 -4 -89 -4 -108 -1 -30 6 -34 11 -38 44 -3 20
-3 54 0 75 4 33 8 37 32 37 16 0 30 -7 34 -16z m634 -21 c31 -19 62 -88 62
-137 l0 -39 -61 7 c-34 3 -73 6 -85 6 -19 0 -24 5 -24 24 0 32 -14 69 -34 89
-14 14 -39 16 -161 13 -80 -1 -145 1 -145 6 0 4 3 8 8 9 4 0 86 11 182 24 181
23 219 23 258 -2z m62 -238 l0 -45 -85 0 -85 0 0 39 c0 40 0 40 43 44 23 2 61
4 85 5 l42 2 0 -45z m-8 -137 l-4 -58 -86 6 c-48 4 -87 7 -88 8 0 0 2 24 4 53
l4 52 81 3 c45 2 85 1 88 -2 3 -3 3 -31 1 -62z m-12 -120 c0 -24 -4 -48 -8
-54 -4 -7 -37 -9 -92 -6 l-86 4 4 37 c2 20 10 41 18 47 8 6 48 12 89 13 l75 2
0 -43z"/>
</g>
</svg>
