<?xml version="1.0" standalone="no"?>
<!DOCTYPE svg PUBLIC "-//W3C//DTD SVG 20010904//EN"
 "http://www.w3.org/TR/2001/REC-SVG-20010904/DTD/svg10.dtd">
<svg version="1.0" xmlns="http://www.w3.org/2000/svg"
 width="149.000000pt" height="142.000000pt" viewBox="0 0 149.000000 142.000000"
 preserveAspectRatio="xMidYMid meet">
<metadata>
Created by potrace 1.16, written by Peter Selinger 2001-2019
</metadata>
<g transform="translate(0.000000,142.000000) scale(0.100000,-0.100000)"
fill="#000000" stroke="none">
<path d="M300 1100 c0 -13 7 -20 20 -20 11 0 115 -22 232 -50 117 -27 266 -59
330 -72 l117 -23 7 -63 c3 -35 4 -65 2 -67 -3 -3 -74 -10 -159 -15 -198 -13
-502 -40 -507 -45 -24 -23 115 -62 536 -152 l133 -28 -3 -40 -3 -39 -70 -14
c-38 -7 -188 -40 -333 -73 -144 -32 -272 -59 -283 -59 -14 0 -19 -5 -17 -17 3
-17 33 -18 441 -21 l437 -2 0 410 0 410 -440 0 c-433 0 -440 0 -440 -20z m854
-352 c4 -194 9 -373 13 -397 5 -42 4 -44 -18 -38 -13 4 -43 7 -66 7 l-43 0 0
120 c0 87 3 120 12 120 9 0 9 3 0 12 -9 9 -12 83 -12 269 l0 258 48 3 c26 2
50 2 53 1 3 -1 9 -161 13 -355z m-154 276 c0 -64 -2 -75 -15 -70 -18 7 -277
76 -390 104 l-80 20 115 2 c101 2 323 13 358 18 9 2 12 -19 12 -74z m10 -339
c0 -52 -3 -95 -7 -95 -5 0 -48 12 -98 25 -49 14 -166 44 -260 67 l-170 42 190
18 c105 10 215 22 245 27 108 17 100 24 100 -84z m10 -291 l0 -76 -32 5 c-18
4 -131 9 -251 13 l-218 7 208 53 c114 29 222 57 238 63 54 17 55 17 55 -65z"/>
</g>
</svg>
