<?xml version="1.0" standalone="no"?>
<!DOCTYPE svg PUBLIC "-//W3C//DTD SVG 20010904//EN"
 "http://www.w3.org/TR/2001/REC-SVG-20010904/DTD/svg10.dtd">
<svg version="1.0" xmlns="http://www.w3.org/2000/svg"
 width="165.000000pt" height="135.000000pt" viewBox="0 0 165.000000 135.000000"
 preserveAspectRatio="xMidYMid meet">
<metadata>
Created by potrace 1.16, written by Peter Selinger 2001-2019
</metadata>
<g transform="translate(0.000000,135.000000) scale(0.100000,-0.100000)"
fill="#000000" stroke="none">
<path d="M1144 1034 c3 -9 9 -40 12 -70 l7 -55 -49 20 c-27 11 -82 33 -123 50
-41 17 -84 31 -96 31 -22 0 -125 -98 -125 -118 0 -5 -57 8 -127 31 -101 31
-130 37 -145 28 -10 -6 -58 -11 -108 -11 -77 0 -90 -2 -90 -16 0 -15 12 -16
100 -11 96 5 100 4 100 -15 0 -20 -4 -21 -100 -14 -98 7 -100 7 -100 -15 0
-21 2 -22 100 -15 96 7 100 6 100 -14 0 -19 -6 -20 -100 -20 -86 0 -100 -2
-100 -16 0 -15 12 -16 100 -11 94 5 100 4 100 -14 0 -27 14 -24 146 21 64 22
117 40 118 40 1 0 9 -15 19 -33 10 -18 40 -48 67 -66 l50 -34 118 48 c64 26
123 50 131 53 12 4 13 -6 8 -57 -4 -34 -12 -71 -18 -83 -7 -13 -10 -50 -7 -95
4 -52 2 -73 -6 -70 -6 3 -58 24 -115 47 -63 24 -113 39 -126 36 -21 -5 -108
-90 -116 -114 -3 -8 -44 2 -133 30 -110 36 -130 40 -140 27 -8 -11 -32 -13
-103 -11 -81 2 -93 1 -93 -14 0 -14 13 -15 100 -12 90 3 100 1 100 -14 0 -16
-11 -18 -100 -18 -86 0 -100 -2 -100 -17 0 -14 11 -15 100 -10 98 6 100 6 100
-16 0 -21 -2 -22 -100 -19 -89 3 -100 2 -100 -13 0 -15 11 -16 100 -13 86 3
100 1 100 -13 0 -9 3 -18 6 -22 3 -3 62 14 132 39 69 24 126 43 127 41 29 -65
91 -117 140 -117 17 0 81 20 143 45 61 25 114 45 116 45 2 0 7 -18 11 -40 4
-22 11 -40 16 -40 7 0 4 43 -7 78 -2 7 13 19 36 28 22 9 40 20 40 24 0 5 -20
16 -45 25 -41 16 -45 20 -51 62 -7 48 -1 114 19 228 12 64 15 71 45 84 40 18
40 25 3 41 -30 12 -32 17 -47 123 -5 38 -10 47 -26 47 -14 0 -18 -5 -14 -16z
m-96 -102 c114 -44 123 -49 120 -72 -3 -21 -19 -30 -137 -77 -96 -37 -139 -49
-151 -43 -9 5 -33 27 -53 50 -54 59 -51 90 14 153 34 33 56 47 67 42 9 -3 72
-27 140 -53z m-289 -68 c2 -2 2 -5 0 -7 -8 -6 -234 -65 -237 -62 -2 2 -1 33 3
68 l7 65 112 -30 c61 -16 113 -32 115 -34z m466 -4 c-3 -5 -10 -10 -16 -10 -5
0 -9 5 -9 10 0 6 7 10 16 10 8 0 12 -4 9 -10z m-200 -340 c61 -23 113 -45 117
-49 4 -3 9 -18 13 -32 6 -25 3 -27 -125 -78 -146 -57 -144 -57 -203 9 -53 58
-50 88 13 151 28 28 56 49 63 46 7 -3 62 -24 122 -47z m-265 -79 c0 -7 -231
-73 -237 -67 -2 2 -1 32 3 68 l6 64 114 -30 c63 -16 114 -32 114 -35z m466 -2
c3 -5 1 -9 -5 -9 -5 0 -16 -3 -25 -6 -11 -4 -16 0 -16 14 0 15 5 19 20 15 11
-3 23 -9 26 -14z"/>
<path d="M1303 1013 c18 -60 14 -290 -6 -337 -23 -52 -21 -86 9 -224 29 -134
33 -147 40 -140 2 3 -5 68 -17 144 l-22 139 23 118 c18 92 22 135 17 205 -8
109 -15 132 -37 132 -17 0 -17 -4 -7 -37z"/>
</g>
</svg>
