<?xml version="1.0" standalone="no"?>
<!DOCTYPE svg PUBLIC "-//W3C//DTD SVG 20010904//EN"
 "http://www.w3.org/TR/2001/REC-SVG-20010904/DTD/svg10.dtd">
<svg version="1.0" xmlns="http://www.w3.org/2000/svg"
 width="151.000000pt" height="107.000000pt" viewBox="0 0 151.000000 107.000000"
 preserveAspectRatio="xMidYMid meet">
<metadata>
Created by potrace 1.16, written by Peter Selinger 2001-2019
</metadata>
<g transform="translate(0.000000,107.000000) scale(0.100000,-0.100000)"
fill="#000000" stroke="none">
<path d="M312 758 c-15 -15 -17 -393 -2 -434 9 -24 14 -26 48 -21 20 4 109 15
197 26 88 12 267 38 399 58 276 43 256 30 256 168 0 71 -3 84 -17 89 -33 9
-468 75 -633 96 -91 11 -181 23 -200 26 -21 3 -40 0 -48 -8z m141 -54 l57 -6
0 -48 0 -48 -67 14 c-122 25 -113 20 -113 65 0 41 0 41 33 36 17 -3 58 -9 90
-13z m431 -44 c158 -16 289 -30 291 -32 1 -2 5 -44 8 -95 l6 -91 -47 -6 c-26
-3 -164 -17 -307 -31 -143 -14 -268 -27 -277 -29 -16 -4 -18 4 -18 60 0 43 4
64 12 64 9 0 9 3 0 12 -7 7 -12 25 -12 40 0 15 5 28 12 28 9 0 9 3 0 12 -7 7
-12 31 -12 55 0 53 -32 51 344 13z m-391 -76 c12 -4 17 -15 17 -38 l0 -33 -72
-7 c-40 -4 -81 -9 -90 -12 -16 -5 -18 2 -18 51 l0 57 73 -7 c39 -3 80 -9 90
-11z m21 -110 c3 -9 6 -35 6 -59 l0 -43 -57 -6 c-32 -4 -78 -9 -102 -13 l-43
-6 7 54 c4 30 8 55 9 56 2 2 141 31 157 32 9 1 20 -6 23 -15z"/>
</g>
</svg>
