<?xml version="1.0" standalone="no"?>
<!DOCTYPE svg PUBLIC "-//W3C//DTD SVG 20010904//EN"
 "http://www.w3.org/TR/2001/REC-SVG-20010904/DTD/svg10.dtd">
<svg version="1.0" xmlns="http://www.w3.org/2000/svg"
 width="227.000000pt" height="155.000000pt" viewBox="0 0 227.000000 155.000000"
 preserveAspectRatio="xMidYMid meet">
<metadata>
Created by potrace 1.16, written by Peter Selinger 2001-2019
</metadata>
<g transform="translate(0.000000,155.000000) scale(0.100000,-0.100000)"
fill="#000000" stroke="none">
<path d="M1636 1218 c-3 -18 -8 -120 -12 -225 l-7 -193 -27 0 c-56 0 -569 60
-825 96 -109 15 -110 16 -157 61 -26 26 -51 42 -57 38 -7 -4 -18 -2 -25 4 -26
22 -158 -140 -203 -249 -55 -133 -1 -293 123 -366 53 -31 82 -27 31 5 -35 21
-77 66 -77 81 0 4 37 10 83 13 94 7 187 25 187 37 0 4 -19 6 -42 4 -24 -2 -91
-5 -149 -8 l-107 -4 -11 38 c-22 74 -19 77 62 84 292 26 355 52 97 41 -147 -7
-160 -6 -160 9 0 42 18 54 87 61 244 23 309 51 94 40 l-144 -7 21 33 c31 49
113 149 122 149 14 0 164 -165 225 -248 33 -45 61 -78 63 -73 3 10 -62 119
-105 177 -13 17 -23 33 -23 35 0 3 100 -5 222 -17 303 -31 579 -54 644 -54 51
0 54 -1 54 -25 0 -14 5 -25 10 -25 6 0 10 11 10 25 0 19 5 25 23 26 22 0 22 0
-2 10 -13 5 -22 11 -20 13 2 2 64 6 137 10 l132 7 1 -48 1 -48 9 40 c4 22 15
117 24 210 10 94 19 191 22 216 l5 46 -98 6 c-55 4 -129 7 -165 7 l-67 0 -6
-32z m280 -55 c-4 -31 -8 -58 -9 -59 -1 -2 -55 0 -119 3 -131 7 -119 -2 -103
77 6 27 20 30 174 34 l64 2 -7 -57z m-6 -134 l0 -51 -119 3 c-66 2 -123 7
-126 11 -4 4 -4 23 -1 42 6 33 9 35 54 39 26 2 80 4 120 5 l72 2 0 -51z m0
-129 l0 -60 -77 0 c-43 0 -102 3 -131 7 l-53 6 3 46 3 46 90 6 c50 3 107 6
128 7 l37 2 0 -60z"/>
<path d="M1590 680 c-72 -24 -907 -299 -944 -310 l-28 -10 35 40 c37 40 121
203 115 222 -2 5 -28 -30 -58 -78 -31 -52 -80 -115 -117 -150 -50 -47 -61 -63
-51 -71 41 -33 59 -28 523 147 143 54 334 124 425 155 154 54 204 76 170 74
-8 0 -40 -9 -70 -19z"/>
</g>
</svg>
