<?xml version="1.0" standalone="no"?>
<!DOCTYPE svg PUBLIC "-//W3C//DTD SVG 20010904//EN"
 "http://www.w3.org/TR/2001/REC-SVG-20010904/DTD/svg10.dtd">
<svg version="1.0" xmlns="http://www.w3.org/2000/svg"
 width="214.000000pt" height="110.000000pt" viewBox="0 0 214.000000 110.000000"
 preserveAspectRatio="xMidYMid meet">
<metadata>
Created by potrace 1.16, written by Peter Selinger 2001-2019
</metadata>
<g transform="translate(0.000000,110.000000) scale(0.100000,-0.100000)"
fill="#000000" stroke="none">
<path d="M896 793 c-16 -3 -43 -19 -60 -37 -92 -97 -364 -114 -438 -28 -22 24
-31 30 -62 35 -24 4 -38 -79 -33 -193 8 -201 33 -259 85 -198 75 88 346 69
441 -31 l33 -35 118 -4 c151 -6 229 10 464 93 293 103 391 142 394 156 1 9
-37 29 -115 58 -253 93 -453 160 -526 175 -70 15 -230 19 -301 9z m399 -70
c246 -74 525 -167 518 -174 -11 -10 -491 -162 -596 -189 -73 -18 -110 -21
-215 -18 -126 3 -129 4 -167 34 -76 60 -172 94 -263 94 -56 0 -148 -27 -190
-55 l-37 -25 -7 97 c-6 91 -4 155 8 211 4 22 6 22 22 6 9 -10 41 -29 72 -43
47 -21 69 -25 150 -25 82 0 103 3 153 27 32 15 75 40 95 55 21 16 44 32 52 35
8 4 80 5 160 3 126 -3 158 -7 245 -33z"/>
</g>
</svg>
