<?xml version="1.0" standalone="no"?>
<!DOCTYPE svg PUBLIC "-//W3C//DTD SVG 20010904//EN"
 "http://www.w3.org/TR/2001/REC-SVG-20010904/DTD/svg10.dtd">
<svg version="1.0" xmlns="http://www.w3.org/2000/svg"
 width="176.000000pt" height="146.000000pt" viewBox="0 0 176.000000 146.000000"
 preserveAspectRatio="xMidYMid meet">
<metadata>
Created by potrace 1.16, written by Peter Selinger 2001-2019
</metadata>
<g transform="translate(0.000000,146.000000) scale(0.100000,-0.100000)"
fill="#000000" stroke="none">
<path d="M1005 1139 c-22 -12 -64 -37 -94 -56 l-54 -35 -270 3 c-262 4 -270 3
-278 -16 -5 -11 -8 -181 -7 -377 l1 -358 191 0 c217 0 765 26 775 36 3 3 -199
3 -449 -1 l-455 -7 167 169 c220 222 230 247 153 363 -46 70 -81 102 -150 138
l-40 21 40 1 c22 0 99 3 171 7 124 5 131 5 136 -14 5 -19 182 -133 207 -133 7
0 52 29 99 65 l87 65 112 0 c62 0 113 4 113 9 0 5 -53 11 -117 13 l-118 3 -84
63 c-47 34 -87 62 -90 62 -4 0 -24 -10 -46 -21z m205 -120 c0 -4 -87 -63 -165
-111 -6 -4 -48 19 -93 52 l-81 58 81 59 82 60 88 -56 c48 -31 88 -59 88 -62z
m-710 -34 c82 -41 142 -92 175 -149 30 -51 23 -96 -27 -167 -47 -67 -300 -337
-317 -338 -12 -1 -13 30 -8 196 4 108 7 263 7 345 l0 148 50 0 c38 0 68 -9
120 -35z"/>
<path d="M490 845 c-69 -8 -128 -14 -132 -14 -5 -1 -8 -6 -8 -12 0 -9 20 -10
70 -5 119 11 220 28 220 37 0 5 -6 8 -12 8 -7 -1 -69 -7 -138 -14z"/>
<path d="M463 687 c-85 -7 -113 -13 -113 -23 0 -8 5 -14 12 -14 42 0 265 34
273 41 11 10 -14 10 -172 -4z"/>
</g>
</svg>
