<?xml version="1.0" standalone="no"?>
<!DOCTYPE svg PUBLIC "-//W3C//DTD SVG 20010904//EN"
 "http://www.w3.org/TR/2001/REC-SVG-20010904/DTD/svg10.dtd">
<svg version="1.0" xmlns="http://www.w3.org/2000/svg"
 width="204.000000pt" height="98.000000pt" viewBox="0 0 204.000000 98.000000"
 preserveAspectRatio="xMidYMid meet">
<metadata>
Created by potrace 1.16, written by Peter Selinger 2001-2019
</metadata>
<g transform="translate(0.000000,98.000000) scale(0.100000,-0.100000)"
fill="#000000" stroke="none">
<path d="M1560 604 l-165 -75 -100 48 c-89 42 -107 47 -165 47 -37 -1 -82 -8
-103 -17 -35 -15 -46 -15 -124 -2 -158 28 -228 14 -310 -59 -27 -24 -86 -73
-132 -110 -84 -68 -91 -71 -145 -50 -12 5 -16 0 -16 -20 0 -19 5 -26 19 -26
14 0 18 -5 14 -20 -6 -23 8 -26 36 -8 14 9 35 9 89 0 86 -14 275 -15 357 -2
83 13 397 37 598 46 122 5 167 4 167 -5 0 -52 82 94 106 190 9 35 24 79 35 97
21 37 23 42 12 41 -5 0 -82 -34 -173 -75z m118 -16 c-23 -74 -69 -190 -77
-199 -3 -4 -125 -9 -271 -13 l-265 -6 110 39 c61 21 136 50 168 64 l58 27 61
-31 c33 -17 63 -28 66 -25 7 7 8 6 -52 41 l-50 28 135 68 c74 37 135 68 136
68 0 1 -8 -27 -19 -61z m-396 -33 c35 -15 67 -30 71 -34 4 -4 -79 -41 -185
-81 -176 -67 -204 -75 -313 -86 -129 -14 -336 -17 -398 -6 -33 6 -5 15 210 65
136 32 250 60 252 63 14 13 -26 7 -229 -37 -124 -27 -227 -49 -230 -49 -2 0
18 22 45 50 27 27 51 47 54 45 2 -3 18 8 35 24 73 69 155 90 301 76 55 -5 75
-11 75 -21 0 -18 4 -18 42 2 73 38 161 34 270 -11z"/>
</g>
</svg>
