<?xml version="1.0" standalone="no"?>
<!DOCTYPE svg PUBLIC "-//W3C//DTD SVG 20010904//EN"
 "http://www.w3.org/TR/2001/REC-SVG-20010904/DTD/svg10.dtd">
<svg version="1.0" xmlns="http://www.w3.org/2000/svg"
 width="165.000000pt" height="131.000000pt" viewBox="0 0 165.000000 131.000000"
 preserveAspectRatio="xMidYMid meet">
<metadata>
Created by potrace 1.16, written by Peter Selinger 2001-2019
</metadata>
<g transform="translate(0.000000,131.000000) scale(0.100000,-0.100000)"
fill="#000000" stroke="none">
<path d="M387 993 c-3 -10 -24 -83 -45 -162 l-40 -144 18 -51 c9 -28 32 -86
49 -128 27 -65 35 -76 49 -68 9 5 109 25 222 45 113 20 242 44 288 54 l82 18
0 -122 c0 -67 2 -124 4 -126 2 -2 71 1 153 6 130 10 149 9 160 -5 7 -8 13 -13
13 -10 0 3 3 121 7 263 l6 257 -22 0 c-12 0 -110 21 -219 46 -174 40 -564 120
-678 139 -35 5 -42 3 -47 -12z m293 -78 c118 -20 307 -53 420 -74 l205 -37 6
-70 c4 -38 7 -140 8 -226 l1 -158 -140 0 -140 0 0 49 c0 100 12 171 29 172 13
1 13 2 -1 6 -12 3 -18 14 -18 34 0 22 -5 29 -20 29 -16 0 -20 -7 -20 -30 0
-34 2 -33 -140 -50 -53 -6 -179 -24 -280 -40 -135 -21 -186 -25 -190 -17 -2 7
-18 57 -35 112 l-30 100 40 122 c38 116 41 121 65 117 14 -2 122 -20 240 -39z"/>
</g>
</svg>
