<?xml version="1.0" standalone="no"?>
<!DOCTYPE svg PUBLIC "-//W3C//DTD SVG 20010904//EN"
 "http://www.w3.org/TR/2001/REC-SVG-20010904/DTD/svg10.dtd">
<svg version="1.0" xmlns="http://www.w3.org/2000/svg"
 width="150.000000pt" height="140.000000pt" viewBox="0 0 150.000000 140.000000"
 preserveAspectRatio="xMidYMid meet">
<metadata>
Created by potrace 1.16, written by Peter Selinger 2001-2019
</metadata>
<g transform="translate(0.000000,140.000000) scale(0.100000,-0.100000)"
fill="#000000" stroke="none">
<path d="M607 1093 c-4 -3 -7 -14 -7 -23 0 -11 -14 -21 -39 -29 -59 -17 -152
-84 -192 -138 -67 -88 -72 -106 -66 -211 5 -83 9 -100 39 -149 41 -68 126
-148 199 -187 29 -16 59 -36 64 -43 8 -11 68 -13 300 -11 l290 3 3 112 3 111
-93 7 c-51 3 -185 5 -298 3 l-205 -3 2 -98 c2 -75 0 -96 -10 -91 -50 29 -141
101 -174 138 -80 91 -102 159 -95 297 3 53 110 167 198 210 35 18 68 29 71 25
4 -4 8 -43 8 -87 l0 -79 236 0 c130 0 264 3 298 6 l61 7 0 112 0 112 -82 6
c-109 9 -503 9 -511 0z m571 -217 c-2 -2 -126 0 -276 2 l-273 4 3 92 3 91 240
3 c132 1 251 3 265 5 25 2 25 1 33 -97 4 -54 6 -99 5 -100z m-4 -458 c3 -55 5
-101 4 -102 -2 -1 -126 0 -276 2 l-273 3 3 92 3 92 245 5 c135 3 254 7 266 8
20 2 21 -4 28 -100z"/>
</g>
</svg>
