<?xml version="1.0" standalone="no"?>
<!DOCTYPE svg PUBLIC "-//W3C//DTD SVG 20010904//EN"
 "http://www.w3.org/TR/2001/REC-SVG-20010904/DTD/svg10.dtd">
<svg version="1.0" xmlns="http://www.w3.org/2000/svg"
 width="109.000000pt" height="198.000000pt" viewBox="0 0 109.000000 198.000000"
 preserveAspectRatio="xMidYMid meet">
<metadata>
Created by potrace 1.16, written by Peter Selinger 2001-2019
</metadata>
<g transform="translate(0.000000,198.000000) scale(0.100000,-0.100000)"
fill="#000000" stroke="none">
<path d="M723 1668 c-17 -6 -47 -23 -65 -38 -32 -27 -32 -29 -31 -103 l2 -76
-55 -41 c-120 -93 -223 -227 -259 -339 -25 -77 -17 -187 19 -264 37 -77 122
-167 218 -229 l78 -51 -3 -79 c-2 -76 -1 -81 26 -103 43 -38 137 -59 137 -31
0 8 -22 18 -60 25 -72 14 -80 27 -80 128 0 56 -4 70 -27 97 -42 50 -90 161
-103 239 -21 120 -9 254 34 381 20 60 54 144 76 185 22 42 36 77 30 79 -5 2
-10 32 -10 67 0 77 22 109 89 128 25 7 46 18 49 25 4 14 -20 14 -65 0z m-154
-349 c-17 -35 -44 -98 -58 -139 l-26 -75 -63 5 -62 5 39 60 c37 57 190 219
198 211 3 -2 -10 -33 -28 -67z m-93 -270 c-3 -17 -6 -58 -6 -89 l0 -58 -61 5
c-46 5 -63 2 -71 -8 -11 -17 -6 150 6 169 4 7 32 12 73 12 l66 0 -7 -31z m-6
-187 c0 -56 47 -184 92 -252 l23 -35 -35 25 c-87 60 -181 179 -205 258 -6 21
-4 22 59 22 57 0 66 -3 66 -18z"/>
</g>
</svg>
