<?xml version="1.0" standalone="no"?>
<!DOCTYPE svg PUBLIC "-//W3C//DTD SVG 20010904//EN"
 "http://www.w3.org/TR/2001/REC-SVG-20010904/DTD/svg10.dtd">
<svg version="1.0" xmlns="http://www.w3.org/2000/svg"
 width="160.000000pt" height="129.000000pt" viewBox="0 0 160.000000 129.000000"
 preserveAspectRatio="xMidYMid meet">
<metadata>
Created by potrace 1.16, written by Peter Selinger 2001-2019
</metadata>
<g transform="translate(0.000000,129.000000) scale(0.100000,-0.100000)"
fill="#000000" stroke="none">
<path d="M560 910 l0 -80 -130 0 -130 0 0 -25 0 -25 129 0 130 0 3 -110 3
-110 -132 0 -133 0 0 -25 0 -25 135 0 135 0 0 -105 c0 -63 4 -105 10 -105 6 0
10 24 10 53 0 28 3 76 6 105 l7 52 128 0 129 0 1 -67 c0 -38 3 -86 8 -108 l7
-40 7 55 c4 30 7 78 7 106 l0 52 43 4 c23 3 109 6 191 7 82 1 156 6 164 10 18
10 -132 21 -285 21 l-113 0 0 114 c0 82 4 115 13 119 6 2 82 5 167 7 85 1 173
5 195 10 51 10 42 11 -190 19 l-180 6 1 83 c2 80 1 82 -22 82 -23 0 -24 -2
-24 -79 0 -44 -4 -81 -10 -83 -5 -2 -61 -2 -125 0 l-115 3 0 80 c0 72 -2 79
-20 79 -18 0 -20 -7 -20 -80z m290 -168 c0 -22 3 -72 6 -113 l7 -74 -129 2
-129 2 -3 110 -3 111 126 0 125 0 0 -38z"/>
</g>
</svg>
