<?xml version="1.0" standalone="no"?>
<!DOCTYPE svg PUBLIC "-//W3C//DTD SVG 20010904//EN"
 "http://www.w3.org/TR/2001/REC-SVG-20010904/DTD/svg10.dtd">
<svg version="1.0" xmlns="http://www.w3.org/2000/svg"
 width="227.000000pt" height="113.000000pt" viewBox="0 0 227.000000 113.000000"
 preserveAspectRatio="xMidYMid meet">
<metadata>
Created by potrace 1.16, written by Peter Selinger 2001-2019
</metadata>
<g transform="translate(0.000000,113.000000) scale(0.100000,-0.100000)"
fill="#000000" stroke="none">
<path d="M750 811 c0 -10 10 -25 22 -33 21 -14 19 -15 -43 -32 -432 -114 -424
-111 -427 -131 -3 -23 -16 -17 287 -122 161 -56 190 -68 173 -76 -13 -6 -22
-19 -22 -33 0 -22 3 -21 103 26 140 66 222 85 301 70 79 -14 280 -69 483 -131
89 -27 166 -49 170 -49 30 0 -42 30 -213 89 l-199 69 1 36 c0 20 1 69 2 109
l2 73 166 34 c181 36 261 37 342 5 56 -23 66 -43 57 -124 -13 -139 -56 -235
-117 -267 -18 -10 -28 -19 -21 -21 21 -7 73 27 102 67 41 57 52 110 49 235
l-3 110 -45 23 c-41 21 -55 23 -150 19 -58 -2 -199 -19 -315 -37 -123 -19
-253 -33 -315 -34 -104 -1 -106 -1 -194 42 -49 23 -111 56 -138 72 -57 35 -58
36 -58 11z m156 -103 c49 -23 109 -46 134 -53 l45 -11 3 -62 c3 -62 3 -62 -25
-62 -15 0 -73 -16 -128 -36 -55 -19 -108 -38 -117 -41 -10 -3 -60 12 -113 33
l-95 37 1 36 c1 20 4 60 7 89 l7 54 85 28 c47 15 90 28 96 29 6 1 51 -18 100
-41z m-323 -109 l7 -77 -98 38 c-53 20 -106 40 -117 44 -15 6 8 16 90 40 61
18 110 32 111 32 1 -1 4 -35 7 -77z m771 -30 c4 -56 6 -102 4 -103 -2 -2 -31
6 -65 17 l-63 19 0 73 0 73 48 10 c26 5 52 10 58 11 7 1 14 -36 18 -100z
m-154 5 l0 -65 -37 7 c-21 4 -40 8 -43 9 -3 2 -3 28 -2 58 4 54 5 56 35 59 18
2 35 2 40 0 4 -2 7 -32 7 -68z"/>
</g>
</svg>
