<?xml version="1.0" standalone="no"?>
<!DOCTYPE svg PUBLIC "-//W3C//DTD SVG 20010904//EN"
 "http://www.w3.org/TR/2001/REC-SVG-20010904/DTD/svg10.dtd">
<svg version="1.0" xmlns="http://www.w3.org/2000/svg"
 width="144.000000pt" height="98.000000pt" viewBox="0 0 144.000000 98.000000"
 preserveAspectRatio="xMidYMid meet">
<metadata>
Created by potrace 1.16, written by Peter Selinger 2001-2019
</metadata>
<g transform="translate(0.000000,98.000000) scale(0.100000,-0.100000)"
fill="#000000" stroke="none">
<path d="M305 669 c-7 -11 27 -69 81 -136 19 -23 34 -44 34 -47 0 -3 -27 -43
-60 -89 -33 -47 -60 -87 -60 -91 0 -3 6 -6 14 -6 8 0 40 36 70 80 31 44 59 80
61 80 3 0 26 -16 51 -35 25 -19 67 -47 92 -61 26 -15 60 -35 75 -46 18 -13 32
-16 40 -10 7 5 56 43 109 85 53 43 99 77 102 77 15 0 -1 -86 -29 -152 -6 -14
-2 -18 16 -18 30 1 234 160 234 182 0 17 -221 198 -242 198 -23 0 -23 -20 2
-95 15 -42 25 -80 23 -85 -2 -4 -55 32 -118 81 -92 72 -117 87 -125 76 -5 -8
-30 -24 -55 -37 -25 -12 -73 -43 -108 -67 l-63 -45 -22 20 c-12 12 -40 50 -62
86 -41 67 -49 74 -60 55z m783 -156 l42 -30 -105 -77 c-59 -42 -108 -76 -110
-76 -1 0 6 28 17 63 21 69 19 112 -12 202 l-19 55 72 -54 c40 -29 91 -66 115
-83z m-286 39 l98 -70 -96 -69 c-52 -37 -101 -72 -108 -77 -9 -6 -41 10 -102
53 -143 98 -134 88 -99 117 67 56 190 132 200 124 5 -4 54 -39 107 -78z"/>
</g>
</svg>
