<?xml version="1.0" standalone="no"?>
<!DOCTYPE svg PUBLIC "-//W3C//DTD SVG 20010904//EN"
 "http://www.w3.org/TR/2001/REC-SVG-20010904/DTD/svg10.dtd">
<svg version="1.0" xmlns="http://www.w3.org/2000/svg"
 width="114.000000pt" height="381.000000pt" viewBox="0 0 114.000000 381.000000"
 preserveAspectRatio="xMidYMid meet">
<metadata>
Created by potrace 1.16, written by Peter Selinger 2001-2019
</metadata>
<g transform="translate(0.000000,381.000000) scale(0.100000,-0.100000)"
fill="#000000" stroke="none">
<path d="M312 3493 c-12 -31 -8 -571 4 -583 14 -14 195 -19 236 -7 24 6 28 4
34 -20 7 -30 65 -146 89 -177 30 -39 24 -7 -15 80 -47 106 -50 136 -15 152 20
10 26 9 34 -6 15 -28 31 -131 32 -206 1 -65 2 -68 11 -36 15 50 4 220 -17 263
-16 34 -16 46 0 187 22 208 10 313 -36 318 -13 1 -91 13 -174 27 -179 30 -174
30 -183 8z m216 -44 c126 -11 131 -13 137 -37 7 -29 7 -430 0 -442 -8 -14
-140 -40 -198 -40 -30 0 -75 3 -100 6 l-46 7 5 181 c3 99 7 219 10 265 l6 83
28 -5 c15 -4 86 -11 158 -18z"/>
<path d="M400 3396 c0 -15 31 -21 165 -32 113 -9 86 10 -41 30 -123 19 -124
19 -124 2z"/>
<path d="M410 3326 c0 -18 27 -24 145 -31 112 -6 105 6 -15 24 -41 6 -87 14
-102 16 -19 3 -28 0 -28 -9z"/>
<path d="M400 3247 c0 -16 31 -23 160 -33 107 -8 97 8 -15 25 -44 7 -95 15
-112 18 -25 4 -33 2 -33 -10z"/>
<path d="M400 3163 c0 -19 10 -21 128 -30 171 -14 131 6 -70 36 -47 6 -58 5
-58 -6z"/>
<path d="M395 3071 c-11 -19 34 -30 141 -36 123 -6 117 6 -12 24 -43 7 -89 14
-101 16 -12 3 -24 1 -28 -4z"/>
<path d="M308 2344 c-10 -9 -11 -479 -1 -525 5 -26 35 -63 123 -151 64 -65
119 -115 122 -112 3 3 -5 37 -17 77 -12 40 -25 88 -29 108 l-6 37 47 11 c26 7
68 21 93 32 l46 20 17 172 c14 130 16 190 8 245 -5 41 -11 75 -13 77 -8 7
-384 16 -390 9z m356 -40 c12 -30 7 -124 -6 -124 -7 0 -67 7 -133 15 -154 18
-185 19 -185 1 0 -10 26 -15 103 -20 56 -4 131 -9 167 -12 l65 -6 -3 -70 -4
-70 -31 6 c-18 3 -79 10 -137 16 -58 6 -120 13 -137 16 l-33 5 0 93 c0 52 3
107 6 124 l6 31 132 4 c72 1 143 4 157 5 17 1 29 -4 33 -14z m-141 -290 l147
-7 0 -78 0 -78 -42 -11 c-86 -24 -155 -30 -227 -21 -40 5 -75 12 -78 14 -3 3
-2 49 2 102 7 92 9 96 29 91 11 -3 87 -8 169 -12z m-53 -256 c1 -13 9 -48 19
-78 l19 -55 -54 60 c-82 91 -84 95 -29 95 40 0 45 -3 45 -22z"/>
<path d="M313 1194 c-10 -4 -13 -64 -13 -249 0 -133 3 -257 6 -274 6 -28 10
-31 43 -31 31 0 48 -11 121 -76 178 -160 301 -264 313 -264 7 0 -67 77 -163
170 -147 142 -171 169 -150 170 14 0 48 3 75 6 l51 6 28 -43 c73 -112 211
-300 214 -291 3 10 -89 170 -151 262 -42 62 -44 70 -18 70 13 0 18 7 17 28 0
15 3 136 8 270 l8 242 -145 0 c-79 0 -164 2 -188 5 -24 2 -50 2 -56 -1z m347
-61 l0 -38 -164 3 -165 3 2 27 2 27 140 5 c77 3 150 7 163 8 19 2 22 -3 22
-35z m0 -84 l0 -32 -52 7 c-29 3 -104 6 -165 6 -106 0 -113 1 -113 20 0 21
-11 19 263 28 l67 2 0 -31z m0 -75 c0 -29 -3 -35 -16 -30 -9 3 -83 6 -165 6
l-149 0 0 25 0 24 138 4 c75 1 149 4 165 5 25 2 27 -1 27 -34z m0 -76 l0 -33
-165 3 -165 3 0 24 c0 24 1 24 108 28 59 1 133 4 165 5 l57 2 0 -32z m4 -94
c3 -26 6 -66 6 -90 l0 -44 -52 4 c-29 2 -108 4 -175 5 l-123 1 0 40 0 40 118
0 c64 0 142 3 172 7 l55 7 -40 7 c-22 5 -99 8 -171 8 l-131 1 4 25 c6 26 10
27 249 33 l81 2 7 -46z"/>
</g>
</svg>
