<?xml version="1.0" standalone="no"?>
<!DOCTYPE svg PUBLIC "-//W3C//DTD SVG 20010904//EN"
 "http://www.w3.org/TR/2001/REC-SVG-20010904/DTD/svg10.dtd">
<svg version="1.0" xmlns="http://www.w3.org/2000/svg"
 width="236.000000pt" height="172.000000pt" viewBox="0 0 236.000000 172.000000"
 preserveAspectRatio="xMidYMid meet">
<metadata>
Created by potrace 1.16, written by Peter Selinger 2001-2019
</metadata>
<g transform="translate(0.000000,172.000000) scale(0.100000,-0.100000)"
fill="#000000" stroke="none">
<path d="M1718 1397 c-50 -20 -67 -35 -163 -147 -91 -107 -205 -274 -205 -300
0 -4 7 -10 14 -13 15 -6 29 12 80 109 l27 50 102 -52 c56 -28 150 -71 210 -95
59 -24 107 -47 107 -52 0 -14 -83 -149 -158 -257 -120 -172 -196 -229 -365
-272 -81 -20 -89 -21 -487 -8 -223 6 -421 16 -440 21 -76 19 -117 102 -100
203 9 53 40 148 60 186 12 22 11 22 -16 16 -40 -10 -41 -12 -64 -100 -36 -143
-21 -255 41 -313 56 -51 71 -53 473 -53 264 0 375 -3 378 -11 3 -8 35 -7 115
2 62 7 110 15 108 18 -3 2 26 18 65 34 94 39 156 98 244 231 109 165 325 560
313 573 -5 5 -20 -19 -97 -157 -23 -41 -45 -79 -50 -83 -4 -5 -99 37 -210 93
-150 76 -200 106 -196 116 3 8 36 55 73 104 59 77 75 92 121 111 128 53 179
42 288 -62 35 -34 67 -59 70 -56 10 10 -149 165 -180 177 -42 15 -95 11 -158
-13z"/>
</g>
</svg>
