<?xml version="1.0" standalone="no"?>
<!DOCTYPE svg PUBLIC "-//W3C//DTD SVG 20010904//EN"
 "http://www.w3.org/TR/2001/REC-SVG-20010904/DTD/svg10.dtd">
<svg version="1.0" xmlns="http://www.w3.org/2000/svg"
 width="136.000000pt" height="147.000000pt" viewBox="0 0 136.000000 147.000000"
 preserveAspectRatio="xMidYMid meet">
<metadata>
Created by potrace 1.16, written by Peter Selinger 2001-2019
</metadata>
<g transform="translate(0.000000,147.000000) scale(0.100000,-0.100000)"
fill="#000000" stroke="none">
<path d="M318 1163 c-17 -4 -18 -30 -18 -372 0 -203 3 -396 6 -429 l7 -61 226
5 c124 2 255 7 291 11 l65 7 -50 7 c-27 4 -157 8 -289 8 l-238 1 6 31 c3 17 6
35 6 40 0 5 85 9 188 9 218 0 374 9 366 21 -3 5 -101 9 -218 9 -117 0 -241 3
-275 6 -61 7 -61 7 -61 39 l0 32 276 6 c253 6 295 9 283 21 -2 2 -129 8 -282
12 l-278 7 3 31 3 31 255 6 c140 3 266 7 280 9 l25 2 -25 8 c-14 4 -139 8
-277 9 l-253 1 0 38 0 39 107 6 c58 4 172 7 252 8 146 1 250 14 149 19 -27 1
-52 4 -58 5 -5 1 -109 3 -230 4 l-220 1 0 35 0 35 208 0 c114 0 239 3 277 7
122 12 31 21 -237 22 l-248 1 0 23 c0 23 4 24 98 30 53 4 165 7 247 8 83 1
164 4 180 8 53 12 -80 21 -311 21 l-214 0 0 28 0 29 272 7 c150 4 275 9 277
12 13 12 -30 16 -278 21 l-271 6 0 22 0 23 270 7 c149 4 272 11 275 15 10 16
-511 28 -567 13z"/>
<path d="M462 720 l3 -23 205 2 c237 2 395 11 383 21 -4 5 -140 11 -301 15
l-294 7 4 -22z"/>
</g>
</svg>
