<?xml version="1.0" standalone="no"?>
<!DOCTYPE svg PUBLIC "-//W3C//DTD SVG 20010904//EN"
 "http://www.w3.org/TR/2001/REC-SVG-20010904/DTD/svg10.dtd">
<svg version="1.0" xmlns="http://www.w3.org/2000/svg"
 width="143.000000pt" height="227.000000pt" viewBox="0 0 143.000000 227.000000"
 preserveAspectRatio="xMidYMid meet">
<metadata>
Created by potrace 1.16, written by Peter Selinger 2001-2019
</metadata>
<g transform="translate(0.000000,227.000000) scale(0.100000,-0.100000)"
fill="#000000" stroke="none">
<path d="M720 1884 l-145 -84 -137 0 c-134 0 -138 -1 -138 -21 l0 -22 398 7
397 7 -142 -81 c-79 -45 -143 -86 -143 -91 0 -11 53 -45 188 -120 57 -32 105
-59 107 -61 2 -2 -179 -2 -401 0 -356 2 -404 1 -404 -13 0 -13 22 -15 143 -15
128 0 146 -2 177 -22 51 -31 261 -148 266 -148 20 0 -14 27 -115 90 -66 41
-119 76 -118 76 1 1 108 4 236 8 129 4 237 9 240 12 3 2 -2 11 -10 19 -11 11
-159 108 -246 161 -16 10 -13 14 27 39 156 97 229 148 224 156 -3 5 -49 9
-102 9 -53 0 -161 3 -238 7 l-142 6 117 74 c127 82 143 93 121 92 -8 0 -80
-38 -160 -85z"/>
<path d="M675 924 l-110 -75 -132 4 c-125 4 -133 3 -133 -14 0 -18 10 -19 142
-19 l142 0 108 -71 c60 -40 111 -69 114 -66 4 3 -32 34 -79 69 -47 34 -85 63
-84 64 1 1 103 4 227 8 182 5 222 4 208 -6 -10 -7 -74 -44 -143 -83 -69 -38
-125 -75 -125 -80 0 -11 59 -48 210 -132 l95 -53 -230 6 c-126 4 -231 8 -232
9 -2 1 110 86 141 107 6 4 8 10 4 13 -3 4 -50 -23 -105 -59 l-98 -66 -148 0
c-136 0 -148 -1 -145 -17 3 -16 18 -18 134 -19 l130 0 64 -45 c112 -76 152
-100 162 -97 8 3 -30 34 -167 133 -18 13 8 14 220 15 234 0 285 4 285 20 0 5
-61 48 -135 96 -74 48 -135 88 -135 90 0 1 28 19 63 40 125 75 209 136 200
145 -5 5 -120 10 -256 11 l-247 3 90 65 c81 59 104 81 83 80 -5 -1 -57 -35
-118 -76z"/>
</g>
</svg>
