<?xml version="1.0" standalone="no"?>
<!DOCTYPE svg PUBLIC "-//W3C//DTD SVG 20010904//EN"
 "http://www.w3.org/TR/2001/REC-SVG-20010904/DTD/svg10.dtd">
<svg version="1.0" xmlns="http://www.w3.org/2000/svg"
 width="186.000000pt" height="127.000000pt" viewBox="0 0 186.000000 127.000000"
 preserveAspectRatio="xMidYMid meet">
<metadata>
Created by potrace 1.16, written by Peter Selinger 2001-2019
</metadata>
<g transform="translate(0.000000,127.000000) scale(0.100000,-0.100000)"
fill="#000000" stroke="none">
<path d="M866 954 c-3 -9 -6 -26 -6 -38 0 -51 -30 -130 -76 -200 -53 -82 -48
-80 -134 -52 l-35 11 -3 103 c-1 56 2 110 7 121 9 16 6 19 -21 25 -51 10 -238
7 -238 -4 0 -5 -7 -10 -15 -10 -8 0 -15 -3 -15 -7 0 -5 -7 -51 -15 -103 -8
-52 -15 -147 -15 -210 0 -142 10 -164 105 -237 60 -47 94 -66 82 -45 -3 4 88
7 201 8 198 1 308 10 800 70 28 4 52 11 52 16 0 6 -16 7 -37 4 -60 -9 -462
-44 -638 -56 -106 -6 -206 -7 -294 0 l-135 10 -39 37 c-37 36 -76 102 -77 131
0 9 26 12 93 13 50 0 115 4 142 8 l50 7 -70 7 c-38 4 -102 7 -142 7 l-72 0 6
58 c3 31 7 59 9 61 1 1 50 6 108 8 58 3 106 10 106 14 0 5 -48 9 -106 9 l-105
0 3 33 c3 31 4 32 53 34 28 2 75 6 105 9 45 6 51 8 30 15 -14 4 -60 7 -102 8
l-77 1 6 33 c3 17 8 35 12 39 3 4 51 8 106 9 l100 1 -3 -38 c-3 -44 16 -194
27 -212 10 -17 117 -42 178 -42 l53 0 0 -48 c0 -89 13 -202 23 -202 6 0 8 46
5 124 l-5 124 54 6 c30 3 59 4 64 1 5 -4 9 -30 9 -58 0 -88 12 -187 23 -187 6
0 8 44 4 125 -5 104 -3 125 9 125 8 0 14 4 14 10 0 5 -57 11 -136 12 l-136 3
19 24 c14 17 31 25 54 26 19 0 71 2 117 3 120 3 94 22 -30 22 l-100 0 21 33
c15 24 28 33 53 35 18 1 48 5 67 8 49 8 20 24 -43 24 -40 0 -47 3 -42 16 3 9
9 34 12 56 8 44 9 45 80 52 l51 5 13 -62 c6 -34 23 -90 36 -126 13 -35 24 -71
24 -81 0 -19 33 -20 267 -6 l61 4 7 -97 c12 -164 23 -180 24 -35 l1 132 39 4
39 3 7 -125 c10 -180 24 -183 25 -5 l0 150 -227 0 -228 0 -23 105 c-13 58 -25
115 -27 126 -5 25 -39 34 -125 34 -44 0 -59 -4 -64 -16z"/>
<path d="M1060 606 c0 -71 12 -166 21 -166 5 0 9 47 9 105 0 87 -3 105 -15
105 -11 0 -15 -12 -15 -44z"/>
<path d="M1324 553 c10 -137 26 -143 26 -10 0 92 -2 107 -16 107 -15 0 -16
-11 -10 -97z"/>
<path d="M1227 558 c9 -127 22 -138 22 -20 1 83 -2 102 -14 102 -12 0 -13 -14
-8 -82z"/>
</g>
</svg>
