<?xml version="1.0" standalone="no"?>
<!DOCTYPE svg PUBLIC "-//W3C//DTD SVG 20010904//EN"
 "http://www.w3.org/TR/2001/REC-SVG-20010904/DTD/svg10.dtd">
<svg version="1.0" xmlns="http://www.w3.org/2000/svg"
 width="161.000000pt" height="159.000000pt" viewBox="0 0 161.000000 159.000000"
 preserveAspectRatio="xMidYMid meet">
<metadata>
Created by potrace 1.16, written by Peter Selinger 2001-2019
</metadata>
<g transform="translate(0.000000,159.000000) scale(0.100000,-0.100000)"
fill="#000000" stroke="none">
<path d="M497 1191 c-48 -49 -87 -92 -87 -97 0 -5 43 34 95 86 52 52 95 96 95
97 0 14 -30 -11 -103 -86z"/>
<path d="M730 1255 c0 -12 13 -15 60 -15 35 0 60 -4 60 -10 0 -6 5 -88 11
-181 11 -174 26 -258 30 -169 1 25 2 51 2 58 -1 15 1 15 192 46 83 14 157 26
165 28 12 2 16 -19 22 -112 3 -63 9 -144 12 -180 l7 -65 -193 0 -193 0 -3
-142 -3 -142 -127 6 c-154 7 -242 -2 -242 -24 0 -14 23 -15 185 -11 l185 4 8
-26 9 -25 8 25 c4 14 13 29 19 33 7 6 8 10 0 13 -10 4 -7 243 3 254 3 3 84 7
181 10 l177 5 -1 208 c-1 114 -4 210 -7 213 -3 3 -19 -2 -36 -10 -16 -9 -47
-16 -68 -16 -33 0 -123 -12 -259 -35 l-40 -7 -2 99 c-1 54 -5 110 -8 126 -4
20 -2 27 10 27 9 0 16 4 16 9 0 12 -52 21 -121 21 -46 0 -59 -3 -59 -15z"/>
<path d="M500 1015 c-107 -107 -192 -197 -189 -199 3 -3 92 82 199 189 107
107 192 197 189 199 -3 3 -92 -82 -199 -189z"/>
<path d="M485 820 c-105 -105 -185 -190 -180 -190 5 0 81 71 167 157 l158 158
0 -75 0 -75 -150 -150 c-82 -82 -150 -154 -150 -160 0 -5 68 58 150 140 l150
150 0 -58 c0 -52 -2 -57 -22 -58 -22 -1 -22 -1 1 -8 34 -9 39 -31 7 -31 -27 0
-45 -18 -28 -29 7 -4 -30 -49 -93 -111 -58 -58 -105 -109 -105 -115 0 -5 53
43 118 108 l117 117 52 0 c64 0 79 17 23 26 -60 10 -48 24 20 24 33 0 60 4 60
10 0 6 -26 10 -57 10 l-58 0 3 150 c3 115 1 150 -9 150 -8 0 -6 7 6 20 10 11
16 22 14 25 -3 2 -90 -81 -194 -185z"/>
</g>
</svg>
