<?xml version="1.0" standalone="no"?>
<!DOCTYPE svg PUBLIC "-//W3C//DTD SVG 20010904//EN"
 "http://www.w3.org/TR/2001/REC-SVG-20010904/DTD/svg10.dtd">
<svg version="1.0" xmlns="http://www.w3.org/2000/svg"
 width="110.000000pt" height="136.000000pt" viewBox="0 0 110.000000 136.000000"
 preserveAspectRatio="xMidYMid meet">
<metadata>
Created by potrace 1.16, written by Peter Selinger 2001-2019
</metadata>
<g transform="translate(0.000000,136.000000) scale(0.100000,-0.100000)"
fill="#000000" stroke="none">
<path d="M599 992 c-42 -37 -126 -114 -187 -171 -107 -99 -112 -106 -110 -143
1 -35 10 -47 97 -131 154 -148 271 -250 278 -243 7 6 -103 123 -254 272 -46
45 -83 85 -83 88 0 3 80 6 178 7 180 1 299 10 272 22 -8 3 -105 8 -215 11
-110 3 -204 5 -210 6 -5 0 47 57 115 128 165 167 205 211 199 216 -2 3 -39
-25 -80 -62z"/>
</g>
</svg>
