<?xml version="1.0" standalone="no"?>
<!DOCTYPE svg PUBLIC "-//W3C//DTD SVG 20010904//EN"
 "http://www.w3.org/TR/2001/REC-SVG-20010904/DTD/svg10.dtd">
<svg version="1.0" xmlns="http://www.w3.org/2000/svg"
 width="165.000000pt" height="154.000000pt" viewBox="0 0 165.000000 154.000000"
 preserveAspectRatio="xMidYMid meet">
<metadata>
Created by potrace 1.16, written by Peter Selinger 2001-2019
</metadata>
<g transform="translate(0.000000,154.000000) scale(0.100000,-0.100000)"
fill="#000000" stroke="none">
<path d="M863 1234 c-10 -4 -13 -45 -13 -155 l0 -149 -272 3 -273 2 1 -157 c0
-87 2 -159 5 -161 2 -2 126 -1 274 2 149 4 271 6 272 6 1 0 5 -74 9 -164 l7
-164 220 7 c121 3 224 9 228 12 5 3 9 -1 10 -8 0 -7 4 -4 9 7 5 11 9 221 9
468 l1 447 -42 0 c-24 0 -131 2 -238 5 -107 3 -201 2 -207 -1z m437 -63 c0
-29 -6 -42 -22 -53 -22 -15 -26 -13 -82 31 l-59 46 49 6 c113 14 114 14 114
-30z m-225 21 c-5 -5 -32 -26 -58 -47 l-48 -38 -29 28 c-34 33 -38 52 -12 57
42 8 156 9 147 0z m93 -54 c31 -23 59 -44 62 -46 5 -4 -19 -24 -82 -68 l-38
-27 -47 38 c-27 21 -52 43 -58 48 -6 5 8 24 40 53 28 24 54 44 58 44 4 0 34
-19 65 -42z m-228 -53 c0 -1 -7 -8 -15 -15 -13 -10 -15 -9 -15 8 0 15 5 20 15
16 8 -4 15 -7 15 -9z m360 -1 c0 -8 -4 -12 -10 -9 -5 3 -10 10 -10 16 0 5 5 9
10 9 6 0 10 -7 10 -16z m-17 -28 c13 -10 17 -28 17 -74 0 -54 -3 -63 -26 -81
l-27 -21 -49 42 c-28 24 -51 46 -51 49 -2 7 104 99 113 98 3 0 13 -6 23 -13z
m-225 -67 l22 -17 -50 -37 -50 -37 -35 26 c-46 35 -49 84 -7 114 l27 20 35
-26 c19 -14 45 -33 58 -43z m157 -119 c5 -8 -87 -80 -101 -80 -11 0 -94 71
-94 79 0 5 21 24 46 44 l46 36 49 -36 c27 -19 51 -39 54 -43z m-380 20 c-14
-15 -21 -17 -32 -9 -22 19 -15 29 19 29 30 0 31 0 13 -20z m-470 -10 c18 -20
18 -21 -8 -48 l-27 -27 0 48 c0 52 8 57 35 27z m135 -7 l21 -27 -25 -24 -24
-25 -26 29 c-29 33 -31 45 -14 62 19 19 45 14 68 -15z m52 15 c-9 -9 -15 -9
-24 0 -9 9 -7 12 12 12 19 0 21 -3 12 -12z m78 -13 l24 -26 -26 -26 -27 -27
-20 25 c-25 30 -25 37 -4 61 21 23 25 23 53 -7z m60 10 c-12 -15 -30 -12 -30
6 0 5 10 9 21 9 18 0 19 -2 9 -15z m86 -10 c15 -23 15 -26 -8 -54 -12 -17 -25
-30 -28 -30 -3 0 -15 13 -28 29 -22 28 -22 30 -6 55 21 32 49 32 70 0z m161
-8 c-6 -20 -27 -19 -27 2 0 14 5 19 15 14 9 -3 14 -10 12 -16z m363 -3 c0 -22
-2 -25 -15 -14 -12 10 -13 16 -4 26 16 20 19 18 19 -12z m-450 -11 c0 -19 -3
-24 -10 -17 -6 6 -8 18 -4 27 9 24 14 21 14 -10z m433 -29 c39 -36 35 -96 -8
-129 l-30 -23 -50 44 -50 44 50 45 c28 25 52 45 55 45 3 0 18 -12 33 -26z
m-860 -76 c-15 -15 -30 -28 -33 -28 -3 0 -17 14 -29 31 l-23 31 29 30 28 29
27 -32 28 -33 -27 -28z m601 60 c22 -17 45 -35 49 -38 5 -4 -15 -26 -44 -49
l-51 -41 -33 28 c-28 22 -34 34 -34 69 -1 35 2 40 17 36 10 -2 24 3 31 11 17
21 17 21 65 -16z m-444 -39 c0 -3 -12 -16 -26 -30 l-25 -24 -19 25 c-24 31
-24 32 2 65 l22 28 23 -29 c12 -16 23 -32 23 -35z m119 22 l20 -28 -28 -27
-29 -27 -22 30 -21 31 23 29 c26 32 29 32 57 -8z m133 22 c25 -22 23 -75 -3
-99 -21 -19 -21 -19 -45 11 -29 37 -29 40 -1 75 26 34 26 34 49 13z m-474
-133 c-21 -32 -42 -26 -34 11 3 17 6 38 6 47 0 10 7 6 20 -11 18 -22 19 -29 8
-47z m135 44 c18 -24 18 -26 1 -45 -20 -22 -69 -26 -77 -6 -5 13 38 77 51 77
4 0 15 -12 25 -26z m140 -46 c-21 -23 -69 -23 -77 -1 -4 10 3 26 20 44 l26 27
23 -26 c21 -25 22 -28 8 -44z m135 31 c20 -24 22 -32 11 -45 -18 -22 -83 -15
-87 9 -3 17 33 68 47 66 3 0 17 -13 29 -30z m452 -50 c0 -4 -25 -24 -55 -44
l-55 -38 -43 34 c-24 19 -46 37 -48 40 -2 4 18 25 46 47 l49 40 53 -37 c29
-20 52 -39 53 -42z m-365 -7 c-6 -15 -8 -15 -21 2 -12 17 -12 22 4 39 17 19
17 19 20 -3 2 -12 1 -29 -3 -38z m455 1 l0 -37 -22 22 c-22 21 -22 22 -3 37
11 8 21 15 23 15 1 0 2 -17 2 -37z m-386 -14 c-14 -15 -15 -21 -4 -34 12 -14
15 -14 30 0 9 8 22 15 29 15 13 0 91 -59 91 -69 0 -4 -24 -25 -53 -48 l-53
-41 -32 25 c-30 23 -32 28 -32 93 0 84 6 105 26 89 12 -10 12 -15 -2 -30z
m359 -22 c21 -17 29 -33 33 -72 5 -48 4 -51 -28 -71 l-33 -21 -57 46 c-31 25
-57 48 -57 51 0 6 102 89 109 90 3 0 18 -10 33 -23z m-108 -134 c30 -21 54
-41 55 -44 0 -3 -29 -27 -66 -53 l-65 -48 -46 39 c-26 21 -48 44 -50 50 -4 11
92 93 109 93 5 0 34 -17 63 -37z m-252 -55 c-13 -14 -13 -20 -3 -33 12 -14 15
-14 31 1 20 18 26 16 89 -35 l25 -21 -87 0 -88 0 0 28 c0 15 3 44 6 64 6 33 8
35 25 25 17 -10 17 -13 2 -29z m397 5 l0 -37 -22 22 c-22 21 -22 22 -3 37 11
8 21 15 23 15 1 0 2 -17 2 -37z m-23 -39 c18 -14 33 -34 33 -45 0 -21 -29 -24
-123 -11 l-48 7 48 37 c26 21 50 38 52 38 2 0 19 -11 38 -26z"/>
</g>
</svg>
