<?xml version="1.0" standalone="no"?>
<!DOCTYPE svg PUBLIC "-//W3C//DTD SVG 20010904//EN"
 "http://www.w3.org/TR/2001/REC-SVG-20010904/DTD/svg10.dtd">
<svg version="1.0" xmlns="http://www.w3.org/2000/svg"
 width="151.000000pt" height="122.000000pt" viewBox="0 0 151.000000 122.000000"
 preserveAspectRatio="xMidYMid meet">
<metadata>
Created by potrace 1.16, written by Peter Selinger 2001-2019
</metadata>
<g transform="translate(0.000000,122.000000) scale(0.100000,-0.100000)"
fill="#000000" stroke="none">
<path d="M735 910 c-3 -5 22 -51 57 -102 89 -130 85 -122 57 -115 -56 14 -521
68 -535 63 -13 -5 -15 -35 -12 -225 2 -121 6 -222 10 -226 12 -12 872 106 888
122 3 2 7 51 8 107 l4 103 -139 21 c-76 12 -146 22 -155 22 -10 0 -24 10 -31
23 -8 12 -39 66 -71 120 -55 94 -68 108 -81 87z m-164 -224 c123 -14 310 -33
415 -42 l191 -18 6 -90 c3 -50 3 -93 1 -95 -4 -4 -625 -69 -630 -67 -1 1 25
47 58 104 33 56 58 107 56 113 -2 6 -39 -41 -82 -105 -86 -125 -78 -120 -200
-131 l-69 -7 7 32 c3 18 6 99 6 181 0 82 4 149 9 149 5 0 109 -11 232 -24z"/>
</g>
</svg>
