<?xml version="1.0" standalone="no"?>
<!DOCTYPE svg PUBLIC "-//W3C//DTD SVG 20010904//EN"
 "http://www.w3.org/TR/2001/REC-SVG-20010904/DTD/svg10.dtd">
<svg version="1.0" xmlns="http://www.w3.org/2000/svg"
 width="151.000000pt" height="104.000000pt" viewBox="0 0 151.000000 104.000000"
 preserveAspectRatio="xMidYMid meet">
<metadata>
Created by potrace 1.16, written by Peter Selinger 2001-2019
</metadata>
<g transform="translate(0.000000,104.000000) scale(0.100000,-0.100000)"
fill="#000000" stroke="none">
<path d="M995 730 c-55 -4 -224 -13 -375 -20 -151 -7 -279 -16 -284 -21 -6 -5
14 -9 48 -9 31 0 65 -4 75 -10 10 -5 116 -12 235 -16 l216 -7 0 -81 c0 -45 3
-111 6 -147 l7 -66 -312 -8 c-235 -5 -311 -10 -311 -19 0 -18 891 -31 902 -13
4 7 7 104 5 217 l-2 205 -55 1 c-30 1 -100 -2 -155 -6z m189 -418 c-1 -2 -21
-1 -42 3 l-40 6 -1 199 0 199 37 3 37 3 6 -205 c3 -113 4 -207 3 -208z m-114
378 c0 -18 -7 -20 -65 -20 -50 0 -65 3 -65 14 0 17 20 23 83 25 41 1 47 -2 47
-19z m-160 -6 c0 -15 -9 -16 -61 -10 -34 3 -74 7 -88 8 -14 1 6 4 44 8 39 4
78 7 88 8 10 1 17 -5 17 -14z m164 -76 c3 -24 7 -98 8 -166 l3 -122 -75 2
c-45 1 -59 3 -35 5 59 6 68 23 12 23 l-47 0 0 150 0 150 64 0 65 0 5 -42z"/>
</g>
</svg>
