<?xml version="1.0" standalone="no"?>
<!DOCTYPE svg PUBLIC "-//W3C//DTD SVG 20010904//EN"
 "http://www.w3.org/TR/2001/REC-SVG-20010904/DTD/svg10.dtd">
<svg version="1.0" xmlns="http://www.w3.org/2000/svg"
 width="147.000000pt" height="135.000000pt" viewBox="0 0 147.000000 135.000000"
 preserveAspectRatio="xMidYMid meet">
<metadata>
Created by potrace 1.16, written by Peter Selinger 2001-2019
</metadata>
<g transform="translate(0.000000,135.000000) scale(0.100000,-0.100000)"
fill="#000000" stroke="none">
<path d="M785 1044 c-70 -12 -154 -38 -209 -65 -112 -56 -280 -188 -270 -213
3 -7 38 -24 79 -37 41 -13 75 -27 75 -31 0 -5 -4 -8 -8 -8 -5 0 -30 -14 -56
-31 -32 -22 -45 -36 -41 -47 3 -8 0 -19 -7 -24 -16 -10 13 -35 142 -123 107
-72 197 -117 285 -141 68 -18 301 -32 292 -17 -3 5 14 30 39 54 25 24 50 53
56 64 6 11 -19 -9 -55 -44 l-66 -64 -69 6 c-110 11 -257 52 -341 98 -69 37
-256 168 -249 174 66 59 116 95 130 95 11 0 15 5 12 15 -3 8 -9 13 -13 12 -11
-3 -131 55 -131 64 0 14 158 131 215 160 72 35 205 64 341 74 l99 7 -47 -49
c-70 -71 -59 -78 12 -8 48 48 57 61 45 68 -18 10 -215 18 -260 11z"/>
<path d="M574 898 c3 -13 7 -48 11 -78 16 -151 35 -157 35 -10 0 80 -3 99 -16
104 -27 11 -35 7 -30 -16z"/>
<path d="M1010 815 c-52 -52 -90 -95 -85 -95 13 0 191 178 184 184 -3 3 -47
-37 -99 -89z"/>
<path d="M1025 660 c-60 -60 -107 -112 -104 -114 3 -3 56 46 119 109 63 63
110 115 105 115 -6 0 -60 -49 -120 -110z"/>
<path d="M600 643 c0 -43 22 -199 30 -206 10 -11 24 155 15 182 -3 12 -15 26
-26 31 -15 9 -19 7 -19 -7z"/>
<path d="M1055 510 c-60 -60 -107 -112 -104 -114 3 -3 54 44 114 104 60 60
107 112 104 114 -3 3 -54 -44 -114 -104z"/>
</g>
</svg>
