<?xml version="1.0" standalone="no"?>
<!DOCTYPE svg PUBLIC "-//W3C//DTD SVG 20010904//EN"
 "http://www.w3.org/TR/2001/REC-SVG-20010904/DTD/svg10.dtd">
<svg version="1.0" xmlns="http://www.w3.org/2000/svg"
 width="197.000000pt" height="94.000000pt" viewBox="0 0 197.000000 94.000000"
 preserveAspectRatio="xMidYMid meet">
<metadata>
Created by potrace 1.16, written by Peter Selinger 2001-2019
</metadata>
<g transform="translate(0.000000,94.000000) scale(0.100000,-0.100000)"
fill="#000000" stroke="none">
<path d="M340 625 c-23 -28 -40 -109 -40 -195 0 -116 10 -125 124 -124 82 1
116 11 311 92 36 15 90 17 488 15 l447 -1 0 54 c0 50 -2 54 -27 60 -15 4 -222
4 -459 1 -476 -7 -447 -10 -557 56 -84 51 -258 77 -287 42z m228 -39 c24 -9
56 -25 72 -36 75 -53 125 -59 418 -46 123 5 207 5 215 -1 6 -5 45 -22 85 -37
40 -16 72 -29 70 -30 -2 -1 -79 1 -173 4 -93 3 -242 2 -330 -3 -142 -7 -168
-11 -230 -37 -179 -73 -312 -93 -355 -55 -21 19 -22 26 -18 117 4 70 10 104
23 124 17 26 19 27 99 21 44 -3 100 -13 124 -21z m861 -100 c36 -13 82 -31
101 -40 l35 -15 -45 0 c-32 0 -68 11 -125 39 -92 46 -72 55 34 16z m130 -10
c84 -33 119 -60 65 -50 -38 7 -194 84 -169 83 11 0 58 -15 104 -33z m91 9 c0
-14 -2 -25 -4 -25 -2 0 -28 11 -57 24 l-54 25 58 0 c54 1 57 0 57 -24z"/>
<path d="M788 473 c-49 -2 -88 -8 -88 -13 0 -11 426 -2 505 10 50 8 -235 10
-417 3z"/>
</g>
</svg>
