<?xml version="1.0" standalone="no"?>
<!DOCTYPE svg PUBLIC "-//W3C//DTD SVG 20010904//EN"
 "http://www.w3.org/TR/2001/REC-SVG-20010904/DTD/svg10.dtd">
<svg version="1.0" xmlns="http://www.w3.org/2000/svg"
 width="151.000000pt" height="107.000000pt" viewBox="0 0 151.000000 107.000000"
 preserveAspectRatio="xMidYMid meet">
<metadata>
Created by potrace 1.16, written by Peter Selinger 2001-2019
</metadata>
<g transform="translate(0.000000,107.000000) scale(0.100000,-0.100000)"
fill="#000000" stroke="none">
<path d="M312 758 c-15 -15 -17 -393 -2 -434 9 -24 14 -26 48 -21 20 4 109 15
197 26 88 12 267 38 399 58 276 43 256 30 256 168 0 80 -1 85 -22 90 -56 13
-419 68 -597 90 -108 14 -212 27 -231 30 -22 4 -40 1 -48 -7z m144 -54 l62 -6
51 -78 52 -78 -57 -83 c-62 -92 -60 -90 -183 -104 l-64 -6 6 38 c4 21 7 105 7
187 l0 148 33 -5 c17 -4 60 -9 93 -13z m428 -44 c158 -16 289 -30 291 -32 3
-4 15 -188 12 -188 -1 0 -137 -14 -301 -30 -164 -17 -307 -30 -317 -30 -14 0
-10 12 24 70 l42 70 19 -22 19 -23 -8 25 c-10 33 -10 61 0 85 8 19 8 19 -12 2
-19 -17 -21 -16 -56 43 -28 48 -32 60 -19 60 10 0 147 -14 306 -30z"/>
</g>
</svg>
