<?xml version="1.0" standalone="no"?>
<!DOCTYPE svg PUBLIC "-//W3C//DTD SVG 20010904//EN"
 "http://www.w3.org/TR/2001/REC-SVG-20010904/DTD/svg10.dtd">
<svg version="1.0" xmlns="http://www.w3.org/2000/svg"
 width="163.000000pt" height="172.000000pt" viewBox="0 0 163.000000 172.000000"
 preserveAspectRatio="xMidYMid meet">
<metadata>
Created by potrace 1.16, written by Peter Selinger 2001-2019
</metadata>
<g transform="translate(0.000000,172.000000) scale(0.100000,-0.100000)"
fill="#000000" stroke="none">
<path d="M1244 1389 c-27 -17 -68 -47 -92 -66 l-43 -35 -19 25 c-28 35 -109
82 -147 86 -45 4 -140 -17 -188 -41 -90 -45 -205 -120 -205 -134 0 -19 7 -18
39 6 28 19 28 19 69 -1 56 -28 75 -19 28 13 l-38 26 46 27 c59 34 126 60 198
74 57 12 57 12 110 -23 48 -33 50 -36 25 -36 -17 0 -27 -5 -27 -15 0 -11 11
-15 41 -15 28 0 46 -6 54 -17 11 -15 15 -14 41 11 16 15 62 53 102 83 39 31
72 57 72 59 0 10 -20 2 -66 -27z"/>
<path d="M325 1360 c-3 -5 9 -23 27 -40 47 -43 178 -133 178 -122 0 5 -37 40
-82 78 -109 92 -115 96 -123 84z"/>
<path d="M750 1271 c0 -14 69 -65 77 -57 9 8 -47 66 -64 66 -7 0 -13 -4 -13
-9z"/>
<path d="M1020 1215 c0 -11 11 -15 39 -15 42 0 62 14 35 24 -31 12 -74 7 -74
-9z"/>
<path d="M574 1199 c-5 -8 5 -23 26 -41 58 -48 71 -32 16 21 -25 24 -36 29
-42 20z"/>
<path d="M428 1130 c-97 -66 -133 -99 -121 -111 6 -6 28 7 60 34 28 24 73 60
102 81 28 21 51 40 51 42 0 12 -25 -1 -92 -46z"/>
<path d="M550 1156 c0 -16 119 -93 215 -137 54 -26 80 -32 139 -33 64 -1 78 2
121 29 46 29 95 84 95 109 0 5 -19 -8 -42 -31 -24 -22 -62 -53 -86 -68 -41
-25 -47 -26 -95 -15 -29 6 -74 18 -100 26 l-49 16 31 32 c17 18 31 35 31 39 0
12 -58 -21 -72 -42 -11 -16 -16 -17 -31 -6 -16 11 -16 13 3 30 11 10 20 25 20
33 0 10 -9 7 -34 -11 l-33 -26 -51 35 c-57 38 -62 40 -62 20z"/>
<path d="M1120 1151 c0 -22 195 -170 207 -157 4 3 4 7 2 9 -46 35 -158 129
-168 141 -14 17 -41 22 -41 7z"/>
<path d="M994 1128 c-11 -17 6 -23 50 -20 25 2 46 8 46 12 0 10 -90 18 -96 8z"/>
<path d="M719 601 c-62 -20 -137 -67 -168 -107 l-21 -26 -64 51 c-36 28 -68
46 -71 41 -5 -8 8 -20 87 -80 17 -14 15 -15 -36 -12 -48 3 -56 1 -56 -13 0
-15 7 -17 50 -12 28 3 50 5 50 3 0 -1 -25 -20 -55 -41 -30 -20 -55 -44 -55
-52 0 -11 4 -13 13 -6 6 6 39 31 73 56 l61 46 45 -43 c138 -132 341 -140 521
-22 l63 41 59 -42 c33 -23 63 -42 68 -43 19 -1 2 18 -48 54 -30 22 -55 42 -55
46 0 3 10 6 23 7 79 1 100 4 93 10 -4 4 -31 10 -59 13 l-52 5 45 33 c25 19 52
37 60 42 8 5 12 12 8 16 -4 4 -34 -11 -65 -32 -76 -51 -69 -50 -106 -21 -124
95 -281 129 -408 88z m111 -141 c0 -123 -1 -130 -20 -130 -19 0 -20 7 -20 130
0 123 1 130 20 130 19 0 20 -7 20 -130z m60 0 c0 -123 -1 -130 -20 -130 -19 0
-20 7 -20 114 0 122 4 146 26 146 11 0 14 -26 14 -130z m-129 118 c0 -2 2 -58
5 -125 l6 -123 -46 14 c-51 15 -132 64 -162 97 -19 21 -19 21 21 55 44 37 130
83 158 84 9 0 17 -1 18 -2z m295 -42 c38 -20 78 -44 89 -56 17 -19 17 -21 1
-39 -24 -27 -130 -81 -187 -96 l-49 -13 0 125 0 126 38 -6 c20 -4 69 -22 108
-41z"/>
</g>
</svg>
