<?xml version="1.0" standalone="no"?>
<!DOCTYPE svg PUBLIC "-//W3C//DTD SVG 20010904//EN"
 "http://www.w3.org/TR/2001/REC-SVG-20010904/DTD/svg10.dtd">
<svg version="1.0" xmlns="http://www.w3.org/2000/svg"
 width="119.000000pt" height="123.000000pt" viewBox="0 0 119.000000 123.000000"
 preserveAspectRatio="xMidYMid meet">
<metadata>
Created by potrace 1.16, written by Peter Selinger 2001-2019
</metadata>
<g transform="translate(0.000000,123.000000) scale(0.100000,-0.100000)"
fill="#000000" stroke="none">
<path d="M313 923 c-10 -4 -13 -76 -13 -314 l0 -309 51 0 c28 0 124 7 213 14
88 8 196 18 238 21 l77 7 6 51 c9 76 2 180 -12 184 -10 4 -11 -23 -6 -111 l6
-116 -125 0 c-69 0 -193 -3 -276 -7 l-151 -6 6 89 c3 49 6 90 7 91 0 1 89 9
196 18 190 16 301 32 238 34 l-28 1 0 174 c0 169 -1 174 -21 179 -21 6 -22 4
-15 -71 3 -42 9 -123 13 -179 l6 -103 -44 0 -44 0 0 177 c0 167 -1 178 -19
181 -18 4 -19 -1 -12 -74 3 -44 9 -125 13 -181 l6 -103 -51 0 -51 0 2 178 2
177 -24 3 c-22 3 -23 1 -17 -35 3 -21 9 -100 12 -177 7 -147 5 -156 -42 -156
-21 0 -21 3 -20 177 1 167 0 178 -18 181 -18 4 -19 -2 -12 -104 4 -60 9 -142
13 -181 l6 -73 -48 0 -48 0 7 185 c4 102 3 185 -1 184 -4 0 -14 -3 -20 -6z"/>
</g>
</svg>
