<?xml version="1.0" standalone="no"?>
<!DOCTYPE svg PUBLIC "-//W3C//DTD SVG 20010904//EN"
 "http://www.w3.org/TR/2001/REC-SVG-20010904/DTD/svg10.dtd">
<svg version="1.0" xmlns="http://www.w3.org/2000/svg"
 width="118.000000pt" height="156.000000pt" viewBox="0 0 118.000000 156.000000"
 preserveAspectRatio="xMidYMid meet">
<metadata>
Created by potrace 1.16, written by Peter Selinger 2001-2019
</metadata>
<g transform="translate(0.000000,156.000000) scale(0.100000,-0.100000)"
fill="#000000" stroke="none">
<path d="M306 1245 c-6 -18 2 -909 10 -933 3 -9 27 -12 94 -10 l90 3 0 127 c0
69 2 133 5 140 4 11 20 13 64 10 48 -3 70 1 115 21 63 29 153 109 181 161 l19
35 -28 40 c-43 61 -111 120 -173 148 -44 21 -66 24 -114 21 l-59 -4 0 113 c0
133 1 132 -120 140 -67 5 -78 3 -84 -12z m164 -137 l0 -123 -57 -25 c-31 -14
-60 -26 -65 -28 -4 -2 -8 62 -8 142 l0 145 43 4 c98 9 87 23 87 -115z m205
-157 c62 -29 185 -133 185 -156 0 -21 -127 -132 -183 -160 -49 -24 -116 -33
-151 -19 -20 7 -22 80 -3 87 6 2 53 5 102 6 135 3 131 21 -4 21 l-112 0 3 48
3 47 100 3 c142 4 148 22 7 22 l-112 0 0 59 c0 38 4 61 13 64 33 14 96 5 152
-22z m-201 -32 c3 -17 6 -90 6 -161 l0 -129 -70 37 -71 37 3 91 3 91 55 32
c30 18 57 33 61 33 3 0 9 -14 13 -31z m-59 -291 l65 -32 0 -134 0 -134 -31 6
c-17 3 -51 6 -75 6 l-44 0 0 53 c0 70 12 267 16 267 2 0 33 -14 69 -32z"/>
</g>
</svg>
