<?xml version="1.0" standalone="no"?>
<!DOCTYPE svg PUBLIC "-//W3C//DTD SVG 20010904//EN"
 "http://www.w3.org/TR/2001/REC-SVG-20010904/DTD/svg10.dtd">
<svg version="1.0" xmlns="http://www.w3.org/2000/svg"
 width="156.000000pt" height="127.000000pt" viewBox="0 0 156.000000 127.000000"
 preserveAspectRatio="xMidYMid meet">
<metadata>
Created by potrace 1.16, written by Peter Selinger 2001-2019
</metadata>
<g transform="translate(0.000000,127.000000) scale(0.100000,-0.100000)"
fill="#000000" stroke="none">
<path d="M354 923 c-17 -27 -37 -59 -43 -72 -14 -26 -14 -26 109 -153 l64 -68
-64 -67 c-36 -38 -78 -82 -94 -100 l-29 -32 39 -65 c27 -46 45 -66 59 -66 13
0 48 34 100 96 44 53 83 101 87 107 4 6 28 -4 63 -27 120 -80 283 -108 397
-68 90 32 218 133 218 171 0 11 -10 6 -30 -16 -34 -38 -121 -106 -127 -100 -6
7 18 270 27 286 5 10 18 2 52 -30 24 -24 51 -55 60 -69 l17 -25 0 24 c1 34
-112 141 -185 177 -48 22 -76 29 -151 32 -107 5 -193 -16 -283 -70 l-54 -33
-80 95 c-77 92 -104 120 -116 120 -3 0 -19 -21 -36 -47z m278 -161 l55 26 -4
-147 c-3 -80 -5 -150 -6 -154 -2 -5 -19 3 -40 17 -29 20 -43 24 -56 17 -10 -6
-55 -51 -101 -101 l-82 -90 -35 45 -34 45 85 103 c47 56 86 104 86 107 0 3
-39 51 -86 107 l-85 103 33 45 33 45 91 -97 90 -96 56 25z m429 37 c42 -18 47
-24 40 -43 -5 -11 -12 -84 -16 -161 -7 -137 -12 -154 -44 -155 -12 0 -13 30
-8 180 4 141 2 180 -7 180 -18 0 -27 -125 -19 -256 7 -114 3 -124 -44 -124
-21 0 -22 4 -18 43 3 23 10 103 15 177 6 74 12 144 13 155 1 12 -4 20 -13 20
-18 0 -27 -84 -29 -272 l-1 -123 -40 0 -40 0 5 53 c2 28 7 108 10 177 3 69 8
135 11 148 5 16 2 22 -9 22 -24 0 -27 -22 -27 -215 l0 -183 -27 7 -28 7 0 115
c0 63 3 147 7 187 5 56 4 72 -6 72 -19 0 -26 -56 -26 -217 0 -84 -4 -143 -10
-143 -5 0 -20 5 -34 12 -24 10 -25 15 -21 62 10 100 25 258 25 267 0 27 151
50 239 36 30 -4 76 -17 102 -28z"/>
</g>
</svg>
