<?xml version="1.0" standalone="no"?>
<!DOCTYPE svg PUBLIC "-//W3C//DTD SVG 20010904//EN"
 "http://www.w3.org/TR/2001/REC-SVG-20010904/DTD/svg10.dtd">
<svg version="1.0" xmlns="http://www.w3.org/2000/svg"
 width="180.000000pt" height="152.000000pt" viewBox="0 0 180.000000 152.000000"
 preserveAspectRatio="xMidYMid meet">
<metadata>
Created by potrace 1.16, written by Peter Selinger 2001-2019
</metadata>
<g transform="translate(0.000000,152.000000) scale(0.100000,-0.100000)"
fill="#000000" stroke="none">
<path d="M870 1190 c-328 -74 -464 -146 -524 -275 -38 -81 -61 -225 -36 -225
6 0 10 16 10 35 0 79 56 200 121 262 31 29 165 100 173 92 5 -6 14 -729 8
-729 -21 0 -135 36 -172 55 -85 43 -120 105 -120 213 0 41 -3 52 -16 52 -14 0
-16 -11 -12 -79 10 -165 94 -236 332 -276 100 -17 313 -20 240 -4 l-42 10 5
87 c3 48 7 89 9 91 2 2 19 0 39 -3 l35 -7 1 -87 c1 -48 1 -90 0 -94 0 -5 3 -8
8 -8 12 0 21 52 21 126 0 67 2 70 48 58 20 -6 22 -13 23 -68 2 -72 12 -125 21
-110 4 5 8 47 9 93 l2 82 36 -5 c20 -3 101 -10 181 -16 80 -6 164 -12 188 -15
23 -2 42 -1 42 4 0 5 -48 16 -107 25 -140 22 -585 78 -588 74 -2 -2 0 -52 4
-113 4 -60 6 -111 5 -113 -1 -2 -38 2 -83 9 l-81 12 0 139 0 138 188 2 c103 0
192 2 197 3 6 2 65 3 133 4 79 1 121 5 117 11 -4 6 -56 10 -124 10 -65 0 -206
3 -315 7 -192 6 -197 7 -194 27 3 21 7 21 321 24 200 1 317 6 317 12 0 6 -46
11 -112 12 -62 0 -117 2 -123 3 -5 2 -99 3 -207 4 -169 1 -198 3 -198 16 0 12
19 15 108 15 194 0 532 13 532 20 0 4 -144 11 -320 15 -262 6 -320 10 -320 21
0 11 36 14 198 14 220 0 445 10 436 19 -3 3 -144 8 -314 11 -170 3 -310 7
-312 10 -2 3 -2 53 0 111 l4 107 57 16 c32 9 60 16 63 16 3 0 8 -41 12 -92 4
-51 8 -94 10 -95 7 -7 686 84 695 93 2 2 2 6 0 9 -5 4 -341 -20 -410 -30 l-36
-5 5 90 c5 97 -3 121 -42 119 -11 0 -77 -13 -146 -29z m158 -96 l3 -81 -32 -7
c-62 -12 -61 -14 -58 77 4 78 5 82 29 88 52 14 55 9 58 -77z m-115 -11 c2 -43
4 -79 3 -80 -2 -2 -24 -6 -49 -9 l-47 -7 0 56 c0 76 12 105 47 110 15 2 31 5
34 6 4 0 9 -34 12 -76z"/>
</g>
</svg>
