<?xml version="1.0" standalone="no"?>
<!DOCTYPE svg PUBLIC "-//W3C//DTD SVG 20010904//EN"
 "http://www.w3.org/TR/2001/REC-SVG-20010904/DTD/svg10.dtd">
<svg version="1.0" xmlns="http://www.w3.org/2000/svg"
 width="188.000000pt" height="125.000000pt" viewBox="0 0 188.000000 125.000000"
 preserveAspectRatio="xMidYMid meet">
<metadata>
Created by potrace 1.16, written by Peter Selinger 2001-2019
</metadata>
<g transform="translate(0.000000,125.000000) scale(0.100000,-0.100000)"
fill="#000000" stroke="none">
<path d="M405 893 c-44 -29 -87 -58 -95 -63 -13 -7 -12 -11 3 -28 25 -28 197
-145 197 -134 0 5 35 30 79 55 l79 46 283 5 283 5 -115 -63 c-155 -87 -155
-88 1 -185 66 -41 120 -75 120 -77 0 -1 -129 0 -287 3 -258 4 -290 6 -308 22
-43 39 -147 102 -158 97 -47 -21 -182 -114 -182 -126 0 -7 45 -44 99 -82 85
-58 102 -66 115 -55 9 7 48 32 86 54 l70 41 431 6 c426 5 568 16 393 29 -46 4
-116 7 -155 7 -65 0 -73 2 -110 34 -21 18 -74 58 -117 89 l-77 56 52 30 c29
16 79 50 110 74 l58 45 160 7 c88 4 160 11 160 15 0 10 -324 20 -638 20 l-263
0 -52 38 c-77 55 -132 92 -138 91 -2 -1 -40 -26 -84 -56z m166 -37 l90 -55
-53 -27 c-29 -15 -69 -37 -90 -50 l-36 -23 -64 50 c-35 28 -67 54 -71 58 -8 8
108 101 125 101 5 0 49 -25 99 -54z m17 -376 l73 -43 -83 -45 c-46 -24 -85
-48 -88 -52 -5 -7 -149 99 -149 110 0 3 30 26 66 52 60 42 69 46 88 34 11 -7
53 -32 93 -56z"/>
</g>
</svg>
