<?xml version="1.0" standalone="no"?>
<!DOCTYPE svg PUBLIC "-//W3C//DTD SVG 20010904//EN"
 "http://www.w3.org/TR/2001/REC-SVG-20010904/DTD/svg10.dtd">
<svg version="1.0" xmlns="http://www.w3.org/2000/svg"
 width="135.000000pt" height="123.000000pt" viewBox="0 0 135.000000 123.000000"
 preserveAspectRatio="xMidYMid meet">
<metadata>
Created by potrace 1.16, written by Peter Selinger 2001-2019
</metadata>
<g transform="translate(0.000000,123.000000) scale(0.100000,-0.100000)"
fill="#000000" stroke="none">
<path d="M465 920 c-6 -10 20 -41 98 -115 59 -56 107 -106 107 -112 0 -6 45
-13 113 -17 61 -4 140 -9 175 -12 l62 -6 0 -159 0 -159 -37 0 c-21 0 -62 3
-92 7 l-53 6 3 96 c3 80 2 96 -11 96 -12 0 -15 -17 -14 -97 l0 -98 -44 0 -45
0 8 100 c7 99 6 100 -16 100 -22 0 -22 -1 -15 -100 l6 -100 -95 0 -95 0 6 83
c3 45 7 87 9 93 4 15 -213 207 -225 199 -20 -12 -8 -26 90 -101 l100 -77 0
-121 0 -121 172 2 c95 1 184 4 198 7 14 2 59 5 100 5 l75 1 3 179 4 179 -29 6
c-15 3 -100 13 -188 22 l-160 16 -101 106 c-76 80 -102 103 -109 92z"/>
<path d="M370 828 c0 -12 40 -53 157 -162 24 -22 46 -37 50 -33 7 8 -175 200
-194 205 -7 2 -13 -3 -13 -10z"/>
</g>
</svg>
