<?xml version="1.0" standalone="no"?>
<!DOCTYPE svg PUBLIC "-//W3C//DTD SVG 20010904//EN"
 "http://www.w3.org/TR/2001/REC-SVG-20010904/DTD/svg10.dtd">
<svg version="1.0" xmlns="http://www.w3.org/2000/svg"
 width="173.000000pt" height="147.000000pt" viewBox="0 0 173.000000 147.000000"
 preserveAspectRatio="xMidYMid meet">
<metadata>
Created by potrace 1.16, written by Peter Selinger 2001-2019
</metadata>
<g transform="translate(0.000000,147.000000) scale(0.100000,-0.100000)"
fill="#000000" stroke="none">
<path d="M1125 1110 l-59 -60 -369 0 c-306 0 -371 -2 -383 -14 -11 -12 -14
-65 -14 -294 0 -296 7 -442 21 -420 5 7 9 162 9 344 l0 331 61 7 c118 12 148
9 153 -16 42 -194 41 -227 -9 -388 -30 -92 -68 -154 -148 -237 -87 -91 -51
-78 41 14 84 84 121 149 150 260 9 35 19 63 22 63 3 0 14 -29 23 -64 24 -92
50 -147 88 -191 48 -55 81 -65 207 -65 l108 0 200 201 c109 110 201 203 204
207 3 4 -83 -79 -190 -183 -107 -103 -196 -192 -198 -196 -2 -4 -60 -5 -130
-2 -125 5 -127 6 -160 37 -19 17 -42 48 -53 68 -23 45 -71 209 -64 217 4 3 37
7 74 9 l68 4 26 -45 c15 -25 47 -63 72 -85 25 -22 45 -45 45 -51 0 -6 18 -11
42 -11 l41 0 -24 -27 -24 -28 31 28 c22 20 41 27 69 27 l39 0 -49 -52 -50 -52
62 57 c43 39 70 57 90 58 17 1 21 3 11 6 -10 2 -18 7 -18 11 0 4 66 74 147
157 l148 150 -155 -152 c-148 -145 -157 -153 -195 -153 l-40 0 90 90 c49 49
98 90 108 90 11 0 15 5 11 11 -4 6 30 49 77 98 l84 86 -90 -87 c-83 -81 -94
-88 -130 -88 l-40 0 115 118 115 117 -121 -118 c-110 -108 -124 -118 -153
-115 -33 3 -33 3 103 138 75 74 136 139 136 145 0 5 -66 -57 -148 -138 -133
-133 -151 -147 -182 -147 -34 0 -33 2 130 165 91 91 160 165 155 165 -6 0 -84
-75 -175 -165 l-165 -166 -84 3 -85 3 -13 50 c-7 28 -16 80 -19 118 l-7 67 50
0 c27 0 92 3 144 6 l94 6 -65 -68 -65 -69 70 68 c63 60 75 67 110 67 l40 0
-115 -117 -115 -118 120 118 c66 64 126 117 133 117 6 0 12 5 12 12 0 7 21 35
47 63 l48 50 -55 -52 c-48 -46 -61 -53 -95 -53 l-39 0 59 60 c33 33 57 60 54
60 -2 0 -31 -27 -64 -60z m-401 -122 c16 -106 27 -166 32 -185 6 -22 4 -23
-65 -23 -65 0 -71 2 -76 23 -3 12 -14 63 -24 114 -21 106 -25 100 71 102 57 1
57 1 62 -31z m310 -321 l-79 -82 91 88 c83 79 95 87 130 87 l39 0 -90 -91 -90
-91 -46 5 c-26 2 -60 14 -77 25 -34 25 -94 110 -89 126 2 6 28 12 58 14 43 3
52 1 42 -9 -23 -23 -13 -33 10 -11 15 14 36 22 57 22 l34 0 -52 -53 c-29 -29
-52 -57 -52 -62 0 -5 27 19 59 52 45 47 67 62 93 65 18 2 35 2 37 0 3 -1 -31
-39 -75 -85z"/>
<path d="M1025 1098 l-40 -43 43 40 c23 21 42 40 42 42 0 8 -9 0 -45 -39z"/>
<path d="M1253 536 c-92 -90 -166 -166 -163 -170 3 -3 82 71 175 164 94 94
167 170 163 170 -3 0 -82 -74 -175 -164z"/>
<path d="M1285 480 c-71 -72 -125 -130 -120 -130 13 0 261 248 254 254 -3 3
-63 -53 -134 -124z"/>
<path d="M1309 413 l-34 -38 38 34 c20 19 37 36 37 38 0 8 -8 0 -41 -34z"/>
</g>
</svg>
