<?xml version="1.0" standalone="no"?>
<!DOCTYPE svg PUBLIC "-//W3C//DTD SVG 20010904//EN"
 "http://www.w3.org/TR/2001/REC-SVG-20010904/DTD/svg10.dtd">
<svg version="1.0" xmlns="http://www.w3.org/2000/svg"
 width="86.000000pt" height="136.000000pt" viewBox="0 0 86.000000 136.000000"
 preserveAspectRatio="xMidYMid meet">
<metadata>
Created by potrace 1.16, written by Peter Selinger 2001-2019
</metadata>
<g transform="translate(0.000000,136.000000) scale(0.100000,-0.100000)"
fill="#000000" stroke="none">
<path d="M454 959 c-65 -115 -95 -192 -130 -334 l-25 -100 80 -76 c94 -91 170
-154 176 -147 3 2 -49 58 -115 124 l-119 119 28 90 c39 127 71 202 127 300
l49 85 8 -298 c11 -445 24 -465 26 -40 1 344 0 358 -18 368 -11 5 -22 10 -25
10 -3 0 -31 -45 -62 -101z"/>
</g>
</svg>
