<?xml version="1.0" standalone="no"?>
<!DOCTYPE svg PUBLIC "-//W3C//DTD SVG 20010904//EN"
 "http://www.w3.org/TR/2001/REC-SVG-20010904/DTD/svg10.dtd">
<svg version="1.0" xmlns="http://www.w3.org/2000/svg"
 width="156.000000pt" height="260.000000pt" viewBox="0 0 156.000000 260.000000"
 preserveAspectRatio="xMidYMid meet">
<metadata>
Created by potrace 1.16, written by Peter Selinger 2001-2019
</metadata>
<g transform="translate(0.000000,260.000000) scale(0.100000,-0.100000)"
fill="#000000" stroke="none">
<path d="M620 2190 l0 -110 -64 0 c-68 0 -88 -11 -81 -45 2 -11 4 -32 4 -47 1
-28 1 -28 71 -28 l70 0 0 -82 c0 -46 3 -107 7 -137 l6 -53 54 4 c29 3 56 7 59
10 3 4 6 138 7 300 l2 293 -67 3 -68 3 0 -111z m110 -67 c0 -87 3 -216 7 -287
6 -120 5 -129 -11 -123 -10 4 -33 7 -52 7 l-34 0 0 198 c0 108 3 234 7 280 l6
82 38 0 39 0 0 -157z m-110 -103 l0 -40 -60 0 -60 0 0 40 0 40 60 0 60 0 0
-40z"/>
<path d="M920 2235 l0 -65 -75 0 c-58 0 -75 -3 -75 -14 0 -12 14 -13 75 -9
l75 6 0 -132 0 -132 -75 7 c-67 6 -75 5 -75 -10 0 -15 9 -17 75 -14 l74 3 3
-90 c3 -101 4 -102 84 -90 l44 6 0 300 0 299 -65 0 -65 0 0 -65z m110 -55 l0
-100 -45 0 -45 0 0 100 0 100 45 0 45 0 0 -100z m0 -160 l0 -40 -45 0 -45 0 0
40 0 40 45 0 45 0 0 -40z m2 -182 c2 -68 3 -124 3 -125 0 0 -21 1 -47 4 l-48
6 0 118 0 119 44 0 45 0 3 -122z"/>
<path d="M557 1473 c-4 -3 -7 -40 -7 -80 l0 -74 -109 7 c-141 9 -141 9 -140
-118 0 -51 4 -111 8 -133 8 -38 9 -37 10 23 0 34 4 62 9 62 4 0 55 3 115 6
l107 6 0 -85 c0 -47 4 -88 9 -92 5 -3 35 -2 65 1 l56 7 0 83 0 84 160 0 160 0
0 -84 c0 -47 5 -88 10 -91 6 -4 35 -3 65 0 l55 7 0 89 0 89 65 0 c37 0 65 4
65 10 0 6 -27 10 -60 10 -54 0 -60 2 -65 23 -6 26 -2 53 9 64 8 9 13 9 74 11
69 3 48 22 -24 22 l-66 0 7 74 7 74 -56 7 c-83 11 -86 8 -86 -80 l0 -75 -160
0 -160 0 0 74 0 74 -31 6 c-41 8 -84 8 -92 -1z m103 -83 c0 -56 -3 -70 -15
-70 -8 0 -15 -5 -15 -10 0 -6 7 -13 15 -16 10 -4 15 -20 15 -49 0 -29 -5 -45
-15 -49 -8 -3 -15 -10 -15 -16 0 -5 7 -10 15 -10 12 0 15 -15 15 -75 l0 -75
-45 0 -45 0 0 214 0 215 38 4 c20 2 40 4 45 5 4 1 7 -29 7 -68z m450 -134 c0
-112 3 -211 6 -220 5 -13 -2 -16 -45 -16 l-51 0 0 75 0 75 30 0 c17 0 30 5 30
10 0 6 -13 10 -30 10 -30 0 -30 1 -30 55 0 52 1 55 25 55 14 0 25 5 25 10 0 6
-11 10 -25 10 -24 0 -25 2 -25 64 l0 65 38 4 c20 2 40 4 45 5 4 1 7 -90 7
-202z m-560 -8 l0 -63 -110 3 -110 3 0 54 0 54 93 4 c50 1 100 4 110 5 15 2
17 -7 17 -60z m450 -3 l0 -57 -157 5 -158 4 -3 46 -3 46 58 3 c32 2 104 5 161
6 l102 4 0 -57z"/>
<path d="M994 771 c-2 -2 -4 -40 -4 -84 l0 -80 -37 7 c-21 3 -91 6 -155 6
l-118 0 0 75 0 75 -70 0 -70 0 0 -75 0 -75 -115 0 c-70 0 -115 -4 -115 -10 0
-6 45 -10 115 -10 l115 0 0 -150 0 -150 65 0 64 0 3 83 3 82 158 3 157 3 1
-73 c1 -40 1 -79 0 -85 -1 -9 17 -13 64 -13 l65 0 0 30 c0 29 1 30 53 31 89 1
102 16 20 24 l-72 7 4 37 c1 20 3 64 4 99 1 61 1 62 30 62 16 0 43 3 62 7 28
5 30 7 14 14 -11 4 -39 8 -62 8 l-43 1 0 74 0 74 -66 4 c-36 1 -68 1 -70 -1z
m-344 -82 c0 -47 -4 -65 -17 -75 -17 -12 -17 -13 0 -19 23 -9 25 -105 2 -105
-8 0 -15 -4 -15 -10 0 -5 6 -10 14 -10 9 0 15 -22 19 -77 3 -43 5 -79 3 -80
-1 -2 -24 0 -49 3 l-47 7 0 213 0 214 45 0 45 0 0 -61z m452 -156 c3 -120 4
-219 3 -221 -1 -1 -23 1 -48 4 l-47 7 0 73 0 74 30 0 c17 0 30 5 30 10 0 6
-13 10 -29 10 -28 0 -28 1 -27 52 1 47 4 53 26 59 22 6 23 7 4 8 -12 1 -25 8
-28 17 -8 21 -8 109 1 117 3 4 23 7 43 7 l37 0 5 -217z m-112 12 l0 -55 -161
0 -161 0 6 23 c3 12 6 34 6 49 l0 27 138 4 c75 1 145 4 155 5 14 2 17 -6 17
-53z"/>
</g>
</svg>
