<?xml version="1.0" standalone="no"?>
<!DOCTYPE svg PUBLIC "-//W3C//DTD SVG 20010904//EN"
 "http://www.w3.org/TR/2001/REC-SVG-20010904/DTD/svg10.dtd">
<svg version="1.0" xmlns="http://www.w3.org/2000/svg"
 width="119.000000pt" height="159.000000pt" viewBox="0 0 119.000000 159.000000"
 preserveAspectRatio="xMidYMid meet">
<metadata>
Created by potrace 1.16, written by Peter Selinger 2001-2019
</metadata>
<g transform="translate(0.000000,159.000000) scale(0.100000,-0.100000)"
fill="#000000" stroke="none">
<path d="M301 795 l4 -497 286 3 286 4 6 185 c4 102 7 315 7 473 0 247 -2 291
-15 304 -13 13 -62 16 -296 21 l-281 5 3 -498z m559 228 l0 -238 -22 35 c-32
52 -141 205 -149 208 -6 3 -1 197 6 220 3 8 29 12 85 12 l80 0 0 -237z m-365
122 l7 -104 -49 -68 c-28 -37 -67 -93 -87 -123 l-36 -55 0 228 0 227 79 0 79
0 7 -105z m166 -7 c1 -62 1 -117 0 -122 -2 -10 68 -102 146 -192 43 -50 53
-68 53 -98 0 -30 -7 -42 -37 -69 -79 -67 -153 -140 -153 -151 0 -6 37 -48 83
-94 l82 -84 -130 6 c-71 3 -179 6 -238 6 l-108 0 81 83 81 82 -95 93 c-88 85
-96 96 -96 131 0 30 8 48 38 82 21 24 64 76 95 116 l57 71 6 126 7 126 64 0
63 0 1 -112z m-253 -707 c-39 -47 -75 -87 -79 -89 -11 -4 -11 48 -3 190 l7
106 73 -60 73 -60 -71 -87z m457 51 c4 -83 3 -152 -2 -152 -4 0 -20 18 -35 38
-15 21 -47 61 -72 89 -25 28 -46 55 -46 59 1 8 143 124 147 120 1 0 4 -70 8
-154z"/>
</g>
</svg>
