<?xml version="1.0" standalone="no"?>
<!DOCTYPE svg PUBLIC "-//W3C//DTD SVG 20010904//EN"
 "http://www.w3.org/TR/2001/REC-SVG-20010904/DTD/svg10.dtd">
<svg version="1.0" xmlns="http://www.w3.org/2000/svg"
 width="188.000000pt" height="376.000000pt" viewBox="0 0 188.000000 376.000000"
 preserveAspectRatio="xMidYMid meet">
<metadata>
Created by potrace 1.16, written by Peter Selinger 2001-2019
</metadata>
<g transform="translate(0.000000,376.000000) scale(0.100000,-0.100000)"
fill="#000000" stroke="none">
<path d="M864 3448 c2 -7 6 -20 9 -28 3 -8 8 -26 11 -39 5 -23 4 -24 -49 -18
-53 5 -56 4 -232 -92 -307 -168 -302 -164 -300 -185 2 -21 67 -67 302 -211 88
-54 163 -100 168 -102 4 -2 7 0 7 6 0 5 -103 79 -229 163 l-229 154 243 122
244 122 145 0 c91 0 146 4 146 10 0 6 -21 10 -46 10 -45 0 -45 0 -42 33 l3 32
267 5 c146 3 269 8 272 11 12 11 -159 19 -426 19 -208 0 -266 -3 -264 -12z
m124 -56 c3 -31 2 -32 -37 -32 -39 0 -41 2 -41 29 0 23 5 30 23 33 42 7 52 2
55 -30z"/>
<path d="M855 2901 c-3 -5 1 -15 8 -23 8 -7 16 -28 20 -46 l7 -32 -45 0 c-33
0 -45 -4 -45 -15 0 -13 20 -15 128 -14 132 1 240 15 135 18 l-53 1 0 38 0 39
188 6 c103 4 222 7 265 7 42 0 77 4 77 8 0 18 -674 30 -685 13z m133 -71 l3
-36 -41 4 c-38 4 -40 6 -40 39 0 33 1 34 38 31 35 -3 37 -5 40 -38z"/>
<path d="M826 2354 c-239 -32 -352 -95 -411 -228 -31 -71 -56 -216 -37 -216 4
0 13 29 19 64 23 133 95 237 198 285 53 25 207 61 263 61 l32 0 0 -54 c0 -30
-4 -58 -10 -61 -17 -11 -11 -45 8 -46 41 -1 192 2 223 6 19 2 122 6 230 10
l196 7 6 -129 c4 -70 7 -158 7 -195 l0 -68 -335 0 c-296 0 -336 -2 -342 -16
-3 -8 -1 -20 6 -27 6 -6 11 -44 11 -88 0 -43 4 -80 9 -83 10 -7 21 51 21 115
0 44 2 47 31 53 17 3 35 3 40 0 5 -3 9 -35 10 -72 0 -37 4 -76 8 -86 7 -18 8
-18 14 5 4 13 7 54 7 92 l0 67 29 0 c36 0 41 -13 41 -101 0 -38 4 -69 9 -69 9
0 21 72 21 130 l0 37 148 7 c81 4 181 9 222 12 l75 6 0 214 0 214 -62 1 c-35
1 -67 3 -73 4 -5 1 -79 3 -162 4 l-153 1 3 65 c2 42 -1 71 -8 80 -16 19 -154
19 -294 -1z m268 -30 c3 -9 6 -38 6 -65 l0 -49 -35 0 -35 0 0 58 c0 32 3 62 7
65 12 13 51 7 57 -9z m-94 -54 l0 -60 -40 0 -40 0 0 60 0 60 40 0 40 0 0 -60z"/>
<path d="M373 1831 c16 -150 94 -227 268 -266 87 -19 479 -34 479 -18 0 6 -63
12 -152 16 -390 15 -543 85 -557 256 -5 54 -9 66 -25 69 -18 4 -19 -1 -13 -57z"/>
<path d="M955 1205 c-328 -72 -470 -146 -534 -278 -36 -74 -65 -227 -43 -227
4 0 13 29 19 64 23 132 88 229 190 283 66 35 204 83 248 86 l30 2 3 -85 c2
-47 7 -88 10 -92 13 -13 679 76 697 93 10 10 -2 9 -302 -15 l-142 -11 -3 100
-3 100 -30 2 c-16 1 -79 -9 -140 -22z m148 -97 c3 -46 5 -83 4 -84 -1 -1 -24
-5 -51 -9 l-49 -7 7 32 c3 18 6 56 6 86 0 47 3 53 23 57 55 11 54 12 60 -75z
m-113 -17 l0 -80 -45 -7 c-25 -3 -47 -5 -49 -3 -2 2 0 38 3 79 6 73 7 75 36
81 57 12 55 14 55 -70z"/>
<path d="M373 674 c-3 -8 -3 -44 -1 -79 17 -200 168 -276 589 -292 l156 -6 6
48 c4 26 7 70 7 97 l0 50 38 -6 c20 -3 100 -10 177 -16 77 -6 159 -12 183 -14
23 -2 45 0 48 5 3 5 -1 9 -8 9 -7 0 -71 9 -143 20 -224 35 -538 71 -546 63 -4
-4 -3 -55 3 -112 5 -57 7 -105 4 -108 -8 -8 -239 35 -301 57 -127 44 -179 107
-179 222 -1 46 -5 69 -14 73 -7 2 -15 -2 -19 -11z m603 -172 c6 -4 14 -46 17
-94 l6 -88 -27 0 c-65 0 -67 4 -64 88 2 42 5 83 7 90 5 13 43 16 61 4z m100
-8 c18 -5 20 -14 23 -95 3 -97 1 -98 -57 -83 -22 6 -23 10 -21 95 2 95 3 97
55 83z"/>
</g>
</svg>
