<?xml version="1.0" standalone="no"?>
<!DOCTYPE svg PUBLIC "-//W3C//DTD SVG 20010904//EN"
 "http://www.w3.org/TR/2001/REC-SVG-20010904/DTD/svg10.dtd">
<svg version="1.0" xmlns="http://www.w3.org/2000/svg"
 width="117.000000pt" height="123.000000pt" viewBox="0 0 117.000000 123.000000"
 preserveAspectRatio="xMidYMid meet">
<metadata>
Created by potrace 1.16, written by Peter Selinger 2001-2019
</metadata>
<g transform="translate(0.000000,123.000000) scale(0.100000,-0.100000)"
fill="#000000" stroke="none">
<path d="M470 904 c-67 -38 -105 -79 -136 -148 -36 -79 -43 -158 -19 -202 27
-50 74 -68 159 -61 39 4 82 9 96 12 25 6 25 6 -2 -10 -31 -17 -58 -62 -58 -95
0 -84 139 -132 221 -77 40 26 93 110 115 182 9 28 19 89 21 136 7 121 -12 177
-78 229 -61 48 -101 60 -199 60 -62 0 -83 -5 -120 -26z m230 -15 c98 -25 142
-91 142 -213 -1 -159 -53 -277 -146 -330 -67 -39 -87 -39 -124 -5 -54 51 -41
104 36 143 26 13 64 36 85 50 42 29 43 26 22 -34 -17 -48 -19 -69 -6 -54 15
16 50 131 62 203 10 59 9 80 -6 140 -17 72 -31 94 -45 71 -4 -7 -13 -9 -19 -5
-7 3 -31 7 -55 7 -43 0 -72 -12 -111 -43 -19 -16 -22 -15 -59 8 l-38 25 23 16
c58 41 136 48 239 21z m20 -85 c20 -20 25 -36 28 -94 2 -38 2 -80 -2 -93 -9
-39 -72 -73 -159 -85 -205 -31 -271 -3 -266 112 4 70 9 74 86 69 78 -5 71 11
-9 22 -26 4 -48 9 -48 11 0 10 51 84 58 84 4 0 26 -8 49 -17 41 -18 42 -19 36
-56 -3 -24 -1 -48 7 -63 18 -32 70 -64 105 -64 37 0 105 21 105 32 0 5 -9 7
-19 3 -39 -12 -111 -7 -136 9 -75 49 -44 132 58 156 44 11 78 3 107 -26z"/>
<path d="M787 768 c8 -44 36 -98 40 -78 5 23 -21 103 -35 108 -8 2 -10 -6 -5
-30z"/>
<path d="M357 614 c-15 -15 7 -22 51 -17 75 9 85 22 16 23 -33 0 -64 -3 -67
-6z"/>
</g>
</svg>
