<?xml version="1.0" standalone="no"?>
<!DOCTYPE svg PUBLIC "-//W3C//DTD SVG 20010904//EN"
 "http://www.w3.org/TR/2001/REC-SVG-20010904/DTD/svg10.dtd">
<svg version="1.0" xmlns="http://www.w3.org/2000/svg"
 width="156.000000pt" height="110.000000pt" viewBox="0 0 156.000000 110.000000"
 preserveAspectRatio="xMidYMid meet">
<metadata>
Created by potrace 1.16, written by Peter Selinger 2001-2019
</metadata>
<g transform="translate(0.000000,110.000000) scale(0.100000,-0.100000)"
fill="#000000" stroke="none">
<path d="M659 780 c-199 -37 -264 -70 -326 -165 -75 -113 -15 -236 145 -298
50 -20 276 -23 512 -7 169 12 220 19 220 30 0 4 -17 6 -37 4 -21 -2 -130 -5
-243 -8 l-205 -4 0 213 0 214 24 6 c13 3 25 5 26 3 2 -2 6 -99 10 -216 5 -123
11 -208 16 -200 5 7 9 48 9 91 l0 77 208 0 209 0 -5 -105 c-3 -70 -1 -105 6
-105 12 0 22 72 25 169 l2 64 -215 5 c-145 3 -217 8 -222 16 -4 6 -8 55 -8
108 0 53 -3 103 -6 112 -7 19 -23 19 -145 -4z m35 -112 c3 -46 8 -140 12 -210
l6 -128 -38 0 -39 0 3 210 3 210 23 0 c22 0 24 -4 30 -82z m-84 5 c0 -32 3
-122 7 -199 l6 -141 -35 -5 -35 -4 -1 203 -1 203 29 0 c30 0 30 0 30 -57z
m-85 -149 c4 -102 5 -188 2 -190 -3 -3 -13 -2 -22 4 -15 8 -17 32 -19 186 -1
97 0 179 3 181 2 3 10 5 16 5 9 0 15 -51 20 -186z m-66 -62 c1 -103 1 -103
-20 -89 -19 14 -21 25 -21 151 -1 102 2 139 13 152 12 15 15 10 20 -47 4 -35
7 -110 8 -167z m-66 66 c3 -62 4 -114 2 -117 -8 -7 -44 43 -56 77 -15 46 13
152 41 152 4 0 10 -51 13 -112z"/>
</g>
</svg>
