<?xml version="1.0" standalone="no"?>
<!DOCTYPE svg PUBLIC "-//W3C//DTD SVG 20010904//EN"
 "http://www.w3.org/TR/2001/REC-SVG-20010904/DTD/svg10.dtd">
<svg version="1.0" xmlns="http://www.w3.org/2000/svg"
 width="109.000000pt" height="277.000000pt" viewBox="0 0 109.000000 277.000000"
 preserveAspectRatio="xMidYMid meet">
<metadata>
Created by potrace 1.16, written by Peter Selinger 2001-2019
</metadata>
<g transform="translate(0.000000,277.000000) scale(0.100000,-0.100000)"
fill="#000000" stroke="none">
<path d="M444 2455 c-3 -8 1 -22 10 -30 36 -36 13 -166 -73 -419 -57 -166 -81
-270 -81 -346 0 -55 20 -104 45 -114 53 -20 286 10 372 49 44 20 53 29 62 62
15 51 13 114 -3 135 -29 39 -118 47 -145 14 -10 -11 -2 -14 40 -13 43 1 55 -3
71 -24 17 -19 19 -33 14 -74 -3 -30 -12 -55 -23 -62 -31 -24 -118 -51 -211
-67 -82 -14 -98 -14 -128 -1 -77 32 -81 133 -13 327 22 62 56 157 75 212 19
54 37 118 41 141 l5 43 74 7 c41 4 74 11 74 16 0 5 -31 9 -69 9 l-68 0 -6 51
c-9 74 -47 125 -63 84z"/>
<path d="M658 2404 c-4 -3 -2 -20 3 -37 10 -36 12 -169 3 -213 l-5 -29 -85 4
c-75 3 -84 1 -84 -14 0 -16 8 -17 81 -12 l81 7 -6 -33 c-3 -17 -17 -87 -30
-154 -13 -68 -19 -123 -15 -123 9 0 16 23 58 202 24 102 31 154 33 255 1 71
-1 134 -5 141 -9 13 -20 16 -29 6z"/>
<path d="M500 2205 c0 -12 13 -15 59 -15 33 0 67 3 76 6 30 12 -6 24 -72 24
-49 0 -63 -3 -63 -15z"/>
<path d="M470 2025 c0 -17 35 -19 113 -9 69 10 46 24 -39 24 -59 0 -74 -3 -74
-15z"/>
<path d="M430 1915 c0 -12 15 -15 74 -15 81 0 109 14 48 24 -69 11 -122 7
-122 -9z"/>
<path d="M400 1794 c0 -15 9 -16 61 -10 34 3 71 6 81 6 11 0 16 5 13 10 -3 6
-40 10 -81 10 -62 0 -74 -3 -74 -16z"/>
<path d="M380 1709 c0 -19 4 -20 73 -13 70 6 85 10 76 18 -2 2 -37 6 -76 9
-68 5 -73 5 -73 -14z"/>
<path d="M380 1615 c0 -16 53 -20 122 -9 61 10 33 24 -48 24 -59 0 -74 -3 -74
-15z"/>
<path d="M444 1205 c-3 -8 1 -22 10 -30 35 -35 11 -174 -70 -408 -82 -238
-103 -372 -69 -437 14 -27 20 -30 63 -29 l47 1 -33 14 c-46 20 -66 71 -58 148
6 54 25 116 119 382 43 121 62 220 53 282 -9 70 -47 117 -62 77z"/>
<path d="M655 1143 c5 -10 10 -58 12 -108 4 -76 -2 -120 -35 -285 -22 -107
-38 -197 -36 -199 10 -11 20 19 55 166 33 136 38 176 40 288 3 135 -1 155 -28
155 -11 0 -13 -5 -8 -17z"/>
<path d="M654 570 c-42 -17 -35 -28 17 -27 42 2 54 -2 70 -22 21 -26 24 -63 8
-109 -13 -37 -75 -66 -187 -88 -42 -8 -78 -17 -81 -19 -10 -11 74 -4 142 11
106 24 144 46 156 91 12 42 14 103 5 128 -14 35 -83 54 -130 35z"/>
</g>
</svg>
