<?xml version="1.0" standalone="no"?>
<!DOCTYPE svg PUBLIC "-//W3C//DTD SVG 20010904//EN"
 "http://www.w3.org/TR/2001/REC-SVG-20010904/DTD/svg10.dtd">
<svg version="1.0" xmlns="http://www.w3.org/2000/svg"
 width="193.000000pt" height="111.000000pt" viewBox="0 0 193.000000 111.000000"
 preserveAspectRatio="xMidYMid meet">
<metadata>
Created by potrace 1.16, written by Peter Selinger 2001-2019
</metadata>
<g transform="translate(0.000000,111.000000) scale(0.100000,-0.100000)"
fill="#000000" stroke="none">
<path d="M1557 753 c-51 -52 -69 -63 -179 -105 -118 -45 -244 -77 -465 -117
-57 -10 -103 -15 -103 -12 0 4 -23 33 -51 64 -74 83 -114 101 -219 101 -76 0
-240 -28 -240 -40 0 -25 58 -104 124 -170 93 -92 169 -134 285 -159 116 -24
150 -17 46 10 -172 44 -251 93 -346 212 -33 41 -59 76 -59 78 0 7 72 24 146
34 125 18 223 -30 299 -145 30 -44 48 -61 87 -78 l49 -21 -6 -47 c-3 -27 -2
-48 3 -48 11 0 22 34 22 66 0 19 7 21 99 27 161 11 167 26 11 27 -109 0 -143
4 -176 19 -23 10 -44 23 -47 28 -4 5 24 15 61 22 169 30 385 86 472 122 l95
40 -150 -151 c-82 -82 -145 -150 -138 -150 6 0 82 72 168 159 136 138 166 164
221 188 35 15 64 31 64 35 0 11 -11 9 -40 -7 -45 -26 -45 -16 0 30 24 25 40
45 34 45 -5 0 -35 -26 -67 -57z"/>
<path d="M1505 520 c-49 -50 -85 -90 -80 -90 13 0 180 168 174 174 -3 3 -45
-35 -94 -84z"/>
</g>
</svg>
