<?xml version="1.0" standalone="no"?>
<!DOCTYPE svg PUBLIC "-//W3C//DTD SVG 20010904//EN"
 "http://www.w3.org/TR/2001/REC-SVG-20010904/DTD/svg10.dtd">
<svg version="1.0" xmlns="http://www.w3.org/2000/svg"
 width="185.000000pt" height="144.000000pt" viewBox="0 0 185.000000 144.000000"
 preserveAspectRatio="xMidYMid meet">
<metadata>
Created by potrace 1.16, written by Peter Selinger 2001-2019
</metadata>
<g transform="translate(0.000000,144.000000) scale(0.100000,-0.100000)"
fill="#000000" stroke="none">
<path d="M796 1130 c-72 -13 -145 -38 -194 -67 -43 -24 -52 -50 -17 -46 10 1
-48 -65 -136 -153 -85 -85 -149 -154 -144 -154 14 0 315 302 315 316 0 9 89
59 95 52 1 -2 5 -54 9 -116 l6 -113 -60 -26 c-33 -15 -60 -32 -60 -39 0 -14
23 -40 42 -47 8 -3 -44 -62 -127 -146 -77 -77 -135 -141 -130 -141 6 0 71 61
145 135 74 74 142 135 152 135 26 0 48 -28 48 -63 0 -27 -19 -51 -137 -169
-76 -76 -133 -138 -128 -138 6 0 66 56 134 124 74 74 129 122 137 119 9 -3 14
2 14 14 0 21 39 63 57 63 6 0 32 -9 56 -19 l45 -20 4 -81 3 -82 -58 7 c-32 3
-65 9 -73 12 -9 3 -14 -2 -14 -15 0 -18 9 -21 66 -27 122 -14 320 0 407 28 43
14 84 30 92 37 8 6 19 9 25 5 5 -3 10 -2 10 4 0 5 -34 17 -75 27 l-75 18 0
152 0 152 68 -18 c38 -10 103 -24 145 -31 42 -7 77 -15 77 -18 0 -12 -190 -81
-222 -81 -36 0 -58 -15 -58 -38 0 -11 9 -13 38 -8 48 9 273 117 269 130 -2 5
-60 24 -129 42 -70 18 -137 38 -150 45 -13 7 -26 12 -29 12 -8 -3 -22 134 -15
145 3 5 37 21 76 37 44 18 67 32 61 38 -12 12 -502 19 -565 7z m103 -108 l2
-87 -75 -37 -74 -37 -4 112 c-3 62 -4 113 -3 115 1 1 35 6 76 11 41 5 75 9 75
10 1 0 2 -38 3 -87z m151 34 l0 -55 -57 -25 c-31 -15 -57 -25 -58 -24 -1 2 -5
38 -8 81 l-7 77 65 0 65 0 0 -54z m140 27 c0 -25 -7 -30 -60 -50 l-60 -22 0
50 0 49 60 0 c59 0 60 -1 60 -27z m87 14 c2 -3 -10 -9 -26 -15 -28 -10 -31 -9
-31 9 0 15 5 18 26 15 15 -3 28 -7 31 -9z m-73 -234 c4 -93 8 -196 9 -230 2
-35 -1 -63 -5 -63 -5 0 -35 7 -68 17 l-60 16 0 191 0 191 48 22 c26 11 52 22
58 22 8 1 14 -50 18 -166z m-145 -101 l1 -152 -27 6 c-16 4 -43 13 -60 21 -30
12 -33 17 -33 57 0 23 -3 83 -6 132 l-7 90 59 25 59 25 6 -25 c4 -14 7 -95 8
-179z m-147 18 c2 -66 2 -120 0 -120 -2 0 -37 14 -78 31 -65 27 -74 34 -75 57
-1 15 -2 40 -3 55 -2 26 5 32 64 62 36 19 70 34 77 35 8 0 13 -35 15 -120z
m-203 -5 c-21 -21 -27 -22 -48 -11 l-25 14 45 19 c50 22 63 12 28 -22z m17
-32 c-10 -10 -19 5 -10 18 6 11 8 11 12 0 2 -7 1 -15 -2 -18z m64 -63 c0 -4
-7 -13 -15 -20 -13 -11 -15 -8 -15 13 0 19 4 25 15 21 8 -4 15 -10 15 -14z
m228 -84 l52 -18 2 -51 2 -52 3 51 4 52 67 -17 c59 -15 67 -20 70 -43 3 -24 0
-25 -67 -36 -38 -7 -102 -12 -140 -12 l-71 0 0 76 c0 57 3 75 13 72 6 -3 36
-13 65 -22z m301 -72 c8 -7 -4 -12 -46 -19 -39 -6 -43 -5 -43 14 0 19 4 21 43
15 23 -4 44 -8 46 -10z"/>
<path d="M415 1010 c-60 -60 -107 -112 -104 -114 3 -3 54 44 114 104 60 60
107 112 104 114 -3 3 -54 -44 -114 -104z"/>
<path d="M508 747 c-97 -100 -174 -184 -172 -187 6 -5 290 277 335 333 66 80
6 27 -163 -146z"/>
<path d="M680 385 c-47 -47 -80 -85 -75 -85 14 0 170 158 164 164 -3 3 -43
-33 -89 -79z"/>
</g>
</svg>
