<?xml version="1.0" standalone="no"?>
<!DOCTYPE svg PUBLIC "-//W3C//DTD SVG 20010904//EN"
 "http://www.w3.org/TR/2001/REC-SVG-20010904/DTD/svg10.dtd">
<svg version="1.0" xmlns="http://www.w3.org/2000/svg"
 width="181.000000pt" height="135.000000pt" viewBox="0 0 181.000000 135.000000"
 preserveAspectRatio="xMidYMid meet">
<metadata>
Created by potrace 1.16, written by Peter Selinger 2001-2019
</metadata>
<g transform="translate(0.000000,135.000000) scale(0.100000,-0.100000)"
fill="#000000" stroke="none">
<path d="M400 1030 c0 -20 67 -67 191 -134 192 -103 331 -136 589 -137 137 0
140 -1 140 -22 0 -12 3 -31 6 -42 4 -18 -5 -24 -78 -47 -278 -90 -458 -108
-630 -64 -93 24 -225 78 -270 111 -22 16 -16 17 117 12 80 -3 189 -15 255 -27
185 -35 411 -19 564 39 50 20 23 21 -60 4 -112 -23 -396 -23 -524 1 -52 9
-164 20 -247 23 l-153 6 0 -30 c0 -16 8 -37 18 -45 29 -26 152 -84 242 -114
74 -25 100 -28 205 -28 123 0 174 8 330 50 136 37 133 37 113 24 -43 -27 -245
-83 -412 -114 -180 -33 -396 -92 -396 -107 0 -21 39 -38 137 -60 165 -36 359
-34 508 5 114 29 350 106 421 136 l40 18 -7 68 c-21 179 -26 279 -16 286 15 9
15 10 -228 62 -325 69 -508 104 -650 121 -216 26 -205 25 -205 5z m665 -121
l370 -62 19 -146 c10 -80 21 -160 23 -178 l5 -31 -112 -37 c-140 -45 -324 -90
-432 -106 -114 -17 -384 3 -437 31 -26 14 169 64 384 100 97 16 232 62 347
119 105 53 102 53 113 -23 13 -81 25 -61 20 31 -3 48 -8 104 -11 124 l-6 36
-146 6 c-251 11 -374 41 -568 141 -165 84 -166 85 -43 70 57 -7 271 -41 474
-75z"/>
</g>
</svg>
