<?xml version="1.0" standalone="no"?>
<!DOCTYPE svg PUBLIC "-//W3C//DTD SVG 20010904//EN"
 "http://www.w3.org/TR/2001/REC-SVG-20010904/DTD/svg10.dtd">
<svg version="1.0" xmlns="http://www.w3.org/2000/svg"
 width="147.000000pt" height="190.000000pt" viewBox="0 0 147.000000 190.000000"
 preserveAspectRatio="xMidYMid meet">
<metadata>
Created by potrace 1.16, written by Peter Selinger 2001-2019
</metadata>
<g transform="translate(0.000000,190.000000) scale(0.100000,-0.100000)"
fill="#000000" stroke="none">
<path d="M533 1584 c-68 -34 -93 -126 -53 -191 28 -47 72 -66 137 -61 59 5 96
31 118 82 l13 29 17 -38 c10 -20 32 -46 49 -56 78 -46 74 -55 -26 -63 -46 -4
-97 -9 -115 -12 -27 -5 -32 -3 -35 18 -4 32 -32 30 -36 -4 -3 -21 -11 -29 -40
-39 -166 -54 -253 -152 -260 -296 -9 -156 65 -255 240 -322 l68 -27 -42 -11
c-141 -38 -142 -229 -2 -264 24 -6 44 -15 44 -20 0 -14 20 -10 20 4 0 6 19 21
42 31 29 14 45 29 57 56 l16 38 20 -37 c13 -22 37 -44 64 -58 25 -13 48 -28
53 -35 4 -7 8 -8 8 -3 0 6 22 18 50 28 34 12 57 28 73 51 l22 34 64 -29 c35
-16 66 -27 69 -24 7 7 5 9 -64 43 -57 29 -62 34 -68 71 -8 52 -48 98 -97 111
l-39 11 0 364 0 365 25 0 c30 0 88 50 105 90 15 37 6 89 -21 124 -71 90 -207
68 -256 -42 -10 -24 -11 -25 -12 -6 -1 28 -35 71 -71 89 -38 19 -97 19 -137
-1z m335 -661 l-3 -328 -60 3 c-33 1 -85 8 -115 15 l-55 13 0 304 0 305 30 6
c17 4 69 7 118 8 l87 1 -2 -327z m-260 -255 l-3 -36 -63 25 c-73 29 -154 98
-184 157 -31 58 -30 163 1 231 35 79 83 122 180 161 l56 23 8 -262 c4 -144 6
-278 5 -299z m144 -85 l57 -6 -24 -28 c-13 -16 -27 -38 -30 -50 -6 -19 -9 -17
-26 20 -14 31 -29 47 -61 62 l-43 20 35 -6 c19 -3 61 -8 92 -12z"/>
</g>
</svg>
