<?xml version="1.0" standalone="no"?>
<!DOCTYPE svg PUBLIC "-//W3C//DTD SVG 20010904//EN"
 "http://www.w3.org/TR/2001/REC-SVG-20010904/DTD/svg10.dtd">
<svg version="1.0" xmlns="http://www.w3.org/2000/svg"
 width="181.000000pt" height="152.000000pt" viewBox="0 0 181.000000 152.000000"
 preserveAspectRatio="xMidYMid meet">
<metadata>
Created by potrace 1.16, written by Peter Selinger 2001-2019
</metadata>
<g transform="translate(0.000000,152.000000) scale(0.100000,-0.100000)"
fill="#000000" stroke="none">
<path d="M313 1213 c-10 -3 -13 -48 -13 -173 0 -225 3 -227 115 -107 l82 87
94 6 94 6 112 -75 c62 -41 121 -77 131 -79 14 -4 50 17 118 70 l99 77 170 3
c94 2 177 6 185 9 25 11 -86 21 -233 22 l-138 1 -91 69 c-107 81 -92 81 -238
-13 l-100 -64 -108 5 -107 4 -77 80 c-42 43 -78 79 -80 78 -2 0 -9 -3 -15 -6z
m152 -179 c0 -6 -33 -43 -74 -80 l-74 -69 6 79 c4 43 7 108 7 144 l0 64 68
-63 c37 -35 67 -68 67 -75z m552 75 c51 -34 93 -67 93 -74 0 -7 -42 -40 -94
-74 l-94 -62 -86 63 c-85 62 -86 63 -53 66 48 5 59 22 13 22 l-37 0 78 60 c43
32 80 59 83 60 2 0 46 -28 97 -61z"/>
<path d="M313 663 c-10 -3 -13 -48 -13 -173 0 -221 1 -222 116 -101 l86 91 94
0 93 0 88 -59 c48 -32 106 -68 127 -79 l39 -21 101 78 102 78 173 6 c95 3 175
8 177 10 3 2 -78 6 -179 9 l-183 6 -93 71 c-51 39 -96 71 -99 71 -9 0 -115
-61 -174 -101 l-57 -39 -112 0 -112 0 -74 80 c-41 44 -78 80 -81 79 -4 0 -13
-3 -19 -6z m152 -177 c0 -6 -33 -43 -74 -81 l-74 -70 6 85 c4 47 7 111 7 143
l0 59 68 -62 c37 -34 67 -67 67 -74z m547 79 l81 -55 -162 0 -162 0 73 55 c40
30 76 55 80 55 5 0 45 -25 90 -55z m6 -150 l-97 -65 -86 65 -86 65 183 0 183
0 -97 -65z"/>
</g>
</svg>
