<?xml version="1.0" standalone="no"?>
<!DOCTYPE svg PUBLIC "-//W3C//DTD SVG 20010904//EN"
 "http://www.w3.org/TR/2001/REC-SVG-20010904/DTD/svg10.dtd">
<svg version="1.0" xmlns="http://www.w3.org/2000/svg"
 width="195.000000pt" height="138.000000pt" viewBox="0 0 195.000000 138.000000"
 preserveAspectRatio="xMidYMid meet">
<metadata>
Created by potrace 1.16, written by Peter Selinger 2001-2019
</metadata>
<g transform="translate(0.000000,138.000000) scale(0.100000,-0.100000)"
fill="#000000" stroke="none">
<path d="M300 1051 c0 -25 4 -31 21 -31 18 0 20 -2 8 -16 -11 -13 7 -35 134
-162 l147 -147 -146 -146 c-133 -133 -145 -148 -135 -168 10 -18 9 -21 -9 -21
-16 0 -20 -6 -20 -30 0 -17 5 -30 12 -30 7 0 161 11 342 25 421 33 869 84 885
101 3 4 -50 4 -119 0 l-126 -7 -27 29 -27 28 95 94 94 93 66 -59 c114 -102
145 -127 145 -117 0 6 -41 54 -90 107 -50 54 -90 100 -90 103 0 3 40 48 90
100 49 52 90 100 90 105 0 10 -30 -14 -145 -116 l-66 -59 -94 93 -95 94 22 24
c22 23 26 23 153 18 181 -8 129 7 -135 39 -292 35 -272 33 -565 55 -143 11
-295 23 -337 26 l-78 7 0 -32z m313 -47 c91 -6 107 -9 102 -22 -4 -10 11 -33
41 -63 l47 -48 -73 -68 c-40 -37 -77 -70 -83 -72 -6 -2 -39 27 -74 65 -35 38
-98 104 -141 148 l-77 78 75 -6 c41 -3 124 -8 183 -12z m295 -22 c9 -6 1 -18
-29 -42 l-41 -33 -41 42 -42 41 70 0 c39 0 76 -4 83 -8z m252 -48 l35 -35 -95
-91 -94 -91 -31 38 c-16 21 -49 58 -72 84 l-41 45 41 50 41 49 90 -7 c87 -6
92 -8 126 -42z m78 30 c21 -6 21 -7 5 -19 -18 -13 -43 -4 -43 16 0 10 7 11 38
3z m70 -177 l92 -92 -95 -95 -95 -95 -90 90 c-49 49 -90 94 -90 100 0 10 170
185 180 185 3 0 47 -42 98 -93z m-405 -169 l-78 -78 -77 77 -78 78 77 77 78
78 77 -77 78 -78 -77 -77z m212 -48 l80 -80 -40 -40 c-38 -38 -44 -40 -119
-47 l-79 -6 -48 53 -48 53 27 31 c15 17 35 40 45 51 10 11 29 35 43 52 32 40
33 40 139 -67z m-386 19 l74 -70 -48 -49 c-41 -42 -46 -51 -35 -65 7 -8 11
-17 9 -19 -5 -4 -370 -28 -374 -24 -5 6 279 298 290 298 5 -1 43 -32 84 -71z
m158 -145 c24 -20 41 -39 38 -42 -7 -7 -175 -19 -175 -12 0 6 83 90 89 90 2 0
24 -16 48 -36z m347 -28 c-43 -10 -53 -2 -29 24 16 18 18 18 40 2 l23 -17 -34
-9z"/>
</g>
</svg>
