<?xml version="1.0" standalone="no"?>
<!DOCTYPE svg PUBLIC "-//W3C//DTD SVG 20010904//EN"
 "http://www.w3.org/TR/2001/REC-SVG-20010904/DTD/svg10.dtd">
<svg version="1.0" xmlns="http://www.w3.org/2000/svg"
 width="202.000000pt" height="273.000000pt" viewBox="0 0 202.000000 273.000000"
 preserveAspectRatio="xMidYMid meet">
<metadata>
Created by potrace 1.16, written by Peter Selinger 2001-2019
</metadata>
<g transform="translate(0.000000,273.000000) scale(0.100000,-0.100000)"
fill="#000000" stroke="none">
<path d="M745 2419 c-132 -3 -284 -7 -337 -8 l-98 -1 0 -26 0 -26 142 3 141 4
3 -30 c1 -16 5 -92 8 -168 l5 -137 -144 7 -145 6 0 -26 0 -27 118 -1 c140 -1
174 -5 185 -25 41 -73 131 -128 238 -146 41 -7 77 -17 81 -22 9 -14 135 11
194 38 48 22 97 69 116 111 9 19 17 20 241 18 139 -1 224 1 212 6 -19 9 -433
34 -779 48 l-158 6 6 51 c3 28 6 108 6 179 l0 127 79 0 78 0 6 -67 c4 -38 7
-103 7 -145 0 -43 4 -78 8 -78 9 0 22 148 22 242 l0 46 73 6 c39 3 185 11 322
17 138 6 273 14 300 19 60 9 -589 9 -930 -1z m-2 -221 c3 -95 5 -173 4 -173
-1 -1 -28 1 -61 3 l-59 4 7 60 c3 34 6 110 6 169 l0 109 48 0 49 0 6 -172z
m365 -228 c78 0 132 -4 132 -10 0 -24 -65 -80 -113 -98 -83 -31 -187 -44 -249
-31 -86 18 -157 61 -199 121 l-23 31 160 -6 c87 -4 219 -7 292 -7z"/>
<path d="M1500 2326 c-248 -95 -303 -122 -292 -142 9 -17 502 -208 511 -199 2
3 2 6 0 8 -12 10 -313 148 -366 168 -35 13 -63 26 -63 29 0 3 88 46 195 95
107 49 195 93 195 97 0 12 -5 11 -180 -56z"/>
<path d="M300 947 l0 -27 148 0 148 0 2 -92 c1 -51 5 -132 8 -180 l7 -88 -152
0 -151 0 0 -25 0 -25 158 0 157 0 24 -46 c49 -91 127 -138 268 -160 50 -8 131
25 179 74 29 29 74 109 74 132 0 6 32 10 78 10 149 0 472 13 472 19 0 4 -98
49 -217 100 -120 52 -221 97 -225 100 -4 4 90 49 208 101 118 52 217 97 219
100 7 12 -242 19 -833 26 l-572 7 0 -26z m1325 -22 c-60 -29 -399 -155 -414
-155 -9 1 -40 11 -70 24 l-54 23 -1 52 c0 28 -1 52 -1 53 0 1 124 4 275 8 151
3 280 7 285 7 6 1 -3 -5 -20 -12z m-883 -180 c3 -93 5 -172 2 -174 -2 -2 -29
-6 -61 -9 l-56 -5 6 69 c4 38 7 120 7 182 l0 113 48 -3 47 -3 7 -170z m198
156 c0 -18 -3 -19 -30 -10 -16 6 -30 15 -30 20 0 5 14 9 30 9 23 0 30 -5 30
-19z m110 -26 l0 -45 -35 17 c-28 13 -35 23 -35 45 0 25 3 28 35 28 35 0 35 0
35 -45z m-215 -19 c2 -12 6 -71 8 -132 l3 -111 -34 -13 c-18 -6 -35 -10 -36
-8 -1 1 0 71 2 155 l4 152 24 -11 c14 -6 26 -21 29 -32z m113 -113 l3 -89 -36
-13 c-20 -7 -38 -11 -39 -9 -1 1 -1 53 2 115 l4 111 32 -13 31 -13 3 -89z
m112 1 c0 -39 -2 -43 -40 -58 -22 -9 -43 -16 -46 -16 -6 0 -3 118 3 136 3 9
16 7 44 -5 36 -15 39 -19 39 -57z m71 11 c19 -8 31 -14 28 -15 -4 0 -23 -7
-43 -15 l-36 -15 0 30 c0 34 5 36 51 15z m304 -120 l220 -86 -235 5 c-129 2
-306 5 -392 5 -93 0 -158 4 -158 10 0 5 48 29 108 54 59 25 134 57 167 71 33
14 62 25 65 26 3 0 104 -38 225 -85z m-285 -129 c0 -48 -103 -138 -187 -162
-115 -33 -216 16 -277 133 l-16 32 122 4 c329 8 358 7 358 -7z"/>
</g>
</svg>
