<?xml version="1.0" standalone="no"?>
<!DOCTYPE svg PUBLIC "-//W3C//DTD SVG 20010904//EN"
 "http://www.w3.org/TR/2001/REC-SVG-20010904/DTD/svg10.dtd">
<svg version="1.0" xmlns="http://www.w3.org/2000/svg"
 width="181.000000pt" height="97.000000pt" viewBox="0 0 181.000000 97.000000"
 preserveAspectRatio="xMidYMid meet">
<metadata>
Created by potrace 1.16, written by Peter Selinger 2001-2019
</metadata>
<g transform="translate(0.000000,97.000000) scale(0.100000,-0.100000)"
fill="#000000" stroke="none">
<path d="M313 663 c-10 -3 -13 -48 -13 -173 0 -225 2 -227 119 -103 l86 91 90
2 90 1 90 -59 c50 -33 108 -69 129 -81 l39 -20 103 79 103 80 168 0 c92 0 174
4 181 9 21 13 -64 21 -224 21 l-144 0 -92 69 c-92 69 -92 70 -125 56 -18 -8
-75 -41 -126 -74 l-92 -60 -108 6 -107 6 -71 79 c-39 43 -74 78 -77 77 -4 0
-13 -3 -19 -6z m157 -178 c0 -5 -35 -41 -77 -80 l-76 -69 6 78 c4 44 7 108 7
143 l0 64 70 -63 c38 -35 70 -67 70 -73z m504 105 l40 -30 -85 0 -84 1 35 29
c19 17 39 30 45 30 5 0 28 -14 49 -30z m-31 -56 c92 6 105 5 135 -13 17 -12
32 -27 32 -35 0 -8 -21 -26 -46 -41 -42 -25 -52 -26 -144 -23 -88 3 -102 7
-139 33 -23 15 -38 32 -34 36 4 4 26 21 48 38 32 24 41 27 43 14 3 -13 18 -14
105 -9z m47 -138 c0 -2 -16 -14 -35 -26 l-35 -22 -25 20 c-22 17 -23 21 -9 24
32 6 104 9 104 4z"/>
</g>
</svg>
