<?xml version="1.0" standalone="no"?>
<!DOCTYPE svg PUBLIC "-//W3C//DTD SVG 20010904//EN"
 "http://www.w3.org/TR/2001/REC-SVG-20010904/DTD/svg10.dtd">
<svg version="1.0" xmlns="http://www.w3.org/2000/svg"
 width="200.000000pt" height="139.000000pt" viewBox="0 0 200.000000 139.000000"
 preserveAspectRatio="xMidYMid meet">
<metadata>
Created by potrace 1.16, written by Peter Selinger 2001-2019
</metadata>
<g transform="translate(0.000000,139.000000) scale(0.100000,-0.100000)"
fill="#000000" stroke="none">
<path d="M703 1083 c-10 -3 -13 -45 -13 -159 0 -85 -2 -154 -5 -154 -2 0 -85
36 -183 80 -99 44 -184 80 -191 80 -14 0 -14 -13 0 -220 15 -241 16 -255 26
-254 12 1 166 72 271 126 l92 47 1 -135 c1 -73 3 -138 4 -144 1 -5 3 -20 4
-32 l1 -21 486 6 c267 3 488 7 489 9 2 2 7 174 11 384 l7 381 -243 6 c-277 8
-739 8 -757 0z m951 -175 c3 -84 8 -248 11 -364 l6 -211 -413 4 c-483 4 -538
8 -538 31 1 9 38 64 83 122 95 122 94 122 96 -45 1 -66 4 -95 11 -85 5 8 9
158 10 344 0 181 2 331 3 332 1 1 130 6 287 11 157 4 319 9 361 11 l77 3 6
-153z m-857 45 l-62 -88 -3 35 c-2 19 -1 59 3 88 l6 52 60 0 59 0 -63 -87z
m31 -64 c-35 -46 -71 -95 -80 -109 l-17 -25 0 37 c-1 37 18 67 127 204 l27 34
3 -28 c2 -23 -11 -48 -60 -113z m-9 -126 c-94 -127 -89 -123 -89 -78 0 34 11
54 78 140 75 97 77 99 80 68 3 -26 -10 -49 -69 -130z m-428 100 c13 -4 18 -34
28 -164 7 -88 11 -162 9 -164 -2 -3 -21 -11 -41 -20 l-37 -15 0 47 c0 27 -3
113 -7 192 -6 140 -6 144 13 137 10 -5 26 -10 35 -13z m242 -99 c54 -17 57
-20 59 -51 1 -18 2 -40 2 -49 1 -10 -35 -31 -113 -65 -63 -27 -118 -49 -123
-49 -4 0 -8 65 -8 144 l0 145 63 -28 c34 -16 88 -37 120 -47z m227 -56 c-18
-22 -54 -71 -81 -110 l-49 -72 0 45 c0 40 8 54 78 143 76 98 77 99 80 66 3
-24 -4 -42 -28 -72z m-32 -151 c-35 -46 -73 -97 -85 -113 l-22 -29 6 45 c5 36
22 65 82 144 73 95 76 98 79 68 3 -24 -9 -47 -60 -115z"/>
</g>
</svg>
