<?xml version="1.0" standalone="no"?>
<!DOCTYPE svg PUBLIC "-//W3C//DTD SVG 20010904//EN"
 "http://www.w3.org/TR/2001/REC-SVG-20010904/DTD/svg10.dtd">
<svg version="1.0" xmlns="http://www.w3.org/2000/svg"
 width="152.000000pt" height="90.000000pt" viewBox="0 0 152.000000 90.000000"
 preserveAspectRatio="xMidYMid meet">
<metadata>
Created by potrace 1.16, written by Peter Selinger 2001-2019
</metadata>
<g transform="translate(0.000000,90.000000) scale(0.100000,-0.100000)"
fill="#000000" stroke="none">
<path d="M665 568 c-44 -16 -143 -49 -220 -73 -77 -24 -141 -48 -143 -54 -8
-25 21 -41 72 -41 60 0 129 -16 290 -65 101 -30 131 -35 218 -35 100 0 101 0
188 46 136 72 163 103 35 40 -166 -82 -192 -86 -343 -54 -29 6 -49 15 -45 18
4 4 60 24 123 45 132 43 270 103 270 117 0 6 -8 7 -17 3 -10 -4 -92 -32 -183
-62 -91 -30 -188 -62 -216 -72 -28 -10 -59 -14 -70 -11 -14 5 11 16 84 39 123
38 322 121 322 134 0 5 -8 6 -17 2 -56 -22 -409 -135 -438 -141 -19 -3 -43 -3
-52 1 -12 5 32 24 137 59 161 55 265 99 276 118 5 8 1 9 -12 4 -10 -4 -125
-43 -255 -85 -172 -57 -244 -77 -269 -73 -30 4 -17 10 101 51 152 53 259 100
259 112 0 12 -2 11 -95 -23z"/>
</g>
</svg>
