<?xml version="1.0" standalone="no"?>
<!DOCTYPE svg PUBLIC "-//W3C//DTD SVG 20010904//EN"
 "http://www.w3.org/TR/2001/REC-SVG-20010904/DTD/svg10.dtd">
<svg version="1.0" xmlns="http://www.w3.org/2000/svg"
 width="219.000000pt" height="127.000000pt" viewBox="0 0 219.000000 127.000000"
 preserveAspectRatio="xMidYMid meet">
<metadata>
Created by potrace 1.16, written by Peter Selinger 2001-2019
</metadata>
<g transform="translate(0.000000,127.000000) scale(0.100000,-0.100000)"
fill="#000000" stroke="none">
<path d="M1430 935 c-224 -21 -387 -41 -443 -55 -163 -40 -313 -113 -441 -216
l-68 -56 -29 28 c-16 15 -55 63 -86 106 -36 49 -59 72 -61 62 -5 -19 33 -74
105 -153 l55 -61 -51 -56 c-63 -69 -111 -137 -111 -158 0 -28 14 -17 48 39 18
30 55 79 83 109 l50 55 65 -50 c91 -69 251 -144 369 -175 111 -28 245 -37 713
-50 l262 -7 0 118 0 118 -32 -7 c-373 -75 -561 -102 -806 -115 -96 -5 -176
-12 -179 -14 -17 -17 -218 78 -313 148 l-64 48 39 35 c60 52 168 120 248 156
l72 32 280 -7 c260 -6 459 -24 714 -65 l41 -7 0 117 0 116 -52 -1 c-29 -1
-213 -16 -408 -34z m432 -72 c2 -54 3 -99 2 -101 -1 -2 -71 8 -155 22 -145 24
-262 39 -389 50 -30 3 -129 6 -220 7 l-165 1 75 19 c41 10 208 32 370 49 314
31 461 46 472 49 3 0 8 -43 10 -96z m1 -450 c2 -54 4 -99 3 -100 -2 -2 -464
16 -651 27 -99 6 -205 16 -235 23 -54 13 -53 13 135 25 211 13 359 35 575 86
80 18 150 34 156 35 7 1 13 -33 17 -96z"/>
</g>
</svg>
