<?xml version="1.0" standalone="no"?>
<!DOCTYPE svg PUBLIC "-//W3C//DTD SVG 20010904//EN"
 "http://www.w3.org/TR/2001/REC-SVG-20010904/DTD/svg10.dtd">
<svg version="1.0" xmlns="http://www.w3.org/2000/svg"
 width="148.000000pt" height="150.000000pt" viewBox="0 0 148.000000 150.000000"
 preserveAspectRatio="xMidYMid meet">
<metadata>
Created by potrace 1.16, written by Peter Selinger 2001-2019
</metadata>
<g transform="translate(0.000000,150.000000) scale(0.100000,-0.100000)"
fill="#000000" stroke="none">
<path d="M398 1107 c-149 -142 -138 -157 122 -160 114 -1 158 3 205 17 76 22
181 68 248 108 62 36 54 44 141 -131 33 -69 62 -118 64 -110 3 18 -101 271
-123 297 -1 1 -49 -20 -106 -47 -103 -48 -226 -91 -258 -90 -9 0 -51 47 -94
105 -43 57 -84 104 -90 104 -7 -1 -56 -42 -109 -93z m182 -33 l83 -96 -161 4
c-89 2 -164 6 -167 10 -4 4 152 176 161 178 1 0 38 -43 84 -96z"/>
<path d="M1101 631 l-71 -141 -93 50 c-50 27 -128 61 -172 77 -76 26 -89 28
-245 27 -185 -1 -220 -9 -217 -49 2 -18 30 -50 102 -115 55 -50 103 -90 106
-90 3 0 43 49 88 109 l82 109 72 -19 c40 -11 123 -45 186 -75 63 -30 115 -53
116 -52 6 8 95 210 110 251 36 95 5 56 -64 -82z m-478 -18 l38 -6 -44 -46
c-24 -25 -61 -68 -82 -94 l-38 -48 -82 88 c-46 48 -81 90 -80 91 12 13 232 25
288 15z"/>
<path d="M476 332 c-3 -3 -6 -11 -6 -19 0 -10 30 -13 143 -12 160 1 268 11
227 22 -33 8 -357 16 -364 9z"/>
</g>
</svg>
