<?xml version="1.0" standalone="no"?>
<!DOCTYPE svg PUBLIC "-//W3C//DTD SVG 20010904//EN"
 "http://www.w3.org/TR/2001/REC-SVG-20010904/DTD/svg10.dtd">
<svg version="1.0" xmlns="http://www.w3.org/2000/svg"
 width="221.000000pt" height="147.000000pt" viewBox="0 0 221.000000 147.000000"
 preserveAspectRatio="xMidYMid meet">
<metadata>
Created by potrace 1.16, written by Peter Selinger 2001-2019
</metadata>
<g transform="translate(0.000000,147.000000) scale(0.100000,-0.100000)"
fill="#000000" stroke="none">
<path d="M1350 1148 c0 -13 7 -47 14 -76 8 -29 18 -87 21 -129 10 -105 29 -70
22 41 -6 107 -25 186 -43 186 -8 0 -14 -10 -14 -22z"/>
<path d="M1579 1048 c-23 -35 -64 -89 -91 -120 -27 -32 -45 -58 -39 -58 18 0
116 97 158 158 35 50 40 62 28 72 -11 9 -22 -1 -56 -52z"/>
<path d="M697 1064 c-4 -4 24 -41 62 -83 l69 -76 -41 -29 -40 -29 -26 29 c-14
16 -47 54 -73 84 -32 38 -50 52 -57 45 -7 -7 13 -36 64 -92 l75 -82 -40 -28
c-39 -27 -49 -46 -31 -57 8 -6 162 112 176 133 3 6 13 7 22 4 10 -4 14 -2 10
4 -4 6 9 25 29 43 46 40 37 52 -12 15 -30 -23 -38 -25 -48 -14 -7 8 -37 42
-66 77 -53 62 -61 68 -73 56z"/>
<path d="M1722 1016 c-34 -30 -87 -70 -117 -88 -90 -54 -65 -59 37 -7 50 25
163 117 163 132 0 24 -24 14 -83 -37z"/>
<path d="M1030 1021 c0 -14 10 -20 42 -25 23 -4 56 -15 73 -26 26 -16 527
-541 547 -573 4 -6 10 -8 14 -4 4 4 -4 20 -17 35 -56 61 -56 61 36 36 47 -12
85 -19 85 -14 0 4 -44 23 -97 41 -90 30 -103 37 -155 93 -32 33 -58 63 -58 66
0 3 34 11 75 17 41 7 93 22 116 34 76 38 226 209 213 243 -9 23 -16 20 -40
-17 -45 -69 -128 -160 -173 -188 -44 -28 -107 -50 -178 -63 -30 -5 -36 1 -136
117 -198 229 -220 247 -307 247 -32 0 -40 -4 -40 -19z"/>
<path d="M992 841 l5 -52 -31 7 c-54 13 -71 10 -70 -9 1 -12 -37 -46 -115
-103 -142 -106 -135 -99 -127 -119 7 -19 27 -5 182 127 86 73 93 77 128 71 21
-3 40 -12 43 -20 4 -10 9 -11 18 -3 9 7 33 3 85 -16 39 -14 74 -24 76 -21 7 6
-62 46 -116 67 -43 17 -45 19 -50 65 -3 29 -11 50 -19 53 -11 4 -13 -6 -9 -47z"/>
<path d="M334 849 c-9 -16 4 -23 165 -79 139 -49 200 -61 135 -27 -41 21 -274
117 -285 117 -4 0 -11 -5 -15 -11z"/>
<path d="M1233 660 l6 -140 -22 5 c-46 10 -290 36 -294 31 -3 -3 -3 -11 0 -19
4 -10 44 -17 148 -26 79 -6 144 -13 146 -15 2 -1 -27 -29 -63 -61 -47 -41 -62
-61 -55 -68 8 -8 29 7 75 52 60 59 64 61 69 39 4 -12 7 -45 8 -73 1 -101 18
-92 18 10 l1 100 72 -2 c51 -1 65 1 48 7 -14 4 -39 8 -57 9 -50 2 -63 23 -63
100 0 117 -11 191 -28 191 -13 0 -14 -19 -9 -140z"/>
<path d="M300 636 c0 -19 7 -21 180 -51 164 -28 163 -28 156 -16 -6 9 -290 81
-320 81 -9 0 -16 -6 -16 -14z"/>
<path d="M1758 622 c-27 -2 -38 -8 -38 -19 0 -12 7 -14 38 -9 20 3 54 6 75 6
20 0 37 4 37 9 0 10 -59 17 -112 13z"/>
</g>
</svg>
