<?xml version="1.0" standalone="no"?>
<!DOCTYPE svg PUBLIC "-//W3C//DTD SVG 20010904//EN"
 "http://www.w3.org/TR/2001/REC-SVG-20010904/DTD/svg10.dtd">
<svg version="1.0" xmlns="http://www.w3.org/2000/svg"
 width="85.000000pt" height="140.000000pt" viewBox="0 0 85.000000 140.000000"
 preserveAspectRatio="xMidYMid meet">
<metadata>
Created by potrace 1.16, written by Peter Selinger 2001-2019
</metadata>
<g transform="translate(0.000000,140.000000) scale(0.100000,-0.100000)"
fill="#000000" stroke="none">
<path d="M460 1043 c-72 -81 -148 -197 -156 -238 -8 -45 17 -79 131 -176 l85
-73 1 -75 c1 -42 4 -101 8 -131 l6 -55 8 85 c4 47 7 228 7 403 0 306 -1 317
-19 317 -11 0 -42 -25 -71 -57z m50 -74 l0 -70 -29 21 c-20 13 -32 17 -36 10
-4 -6 -5 -12 -4 -14 2 -1 19 -13 37 -25 30 -21 32 -26 32 -82 l0 -60 -64 46
c-41 29 -67 42 -71 35 -4 -6 -5 -13 -4 -14 2 -2 37 -24 77 -49 l72 -47 0 -70
c0 -38 -1 -70 -3 -70 -1 0 -38 37 -82 81 -77 78 -75 85 8 31 20 -14 40 -22 43
-19 9 8 -105 90 -129 92 -32 2 -30 15 8 79 32 53 136 196 142 196 2 0 3 -32 3
-71z"/>
</g>
</svg>
