<?xml version="1.0" standalone="no"?>
<!DOCTYPE svg PUBLIC "-//W3C//DTD SVG 20010904//EN"
 "http://www.w3.org/TR/2001/REC-SVG-20010904/DTD/svg10.dtd">
<svg version="1.0" xmlns="http://www.w3.org/2000/svg"
 width="122.000000pt" height="206.000000pt" viewBox="0 0 122.000000 206.000000"
 preserveAspectRatio="xMidYMid meet">
<metadata>
Created by potrace 1.16, written by Peter Selinger 2001-2019
</metadata>
<g transform="translate(0.000000,206.000000) scale(0.100000,-0.100000)"
fill="#000000" stroke="none">
<path d="M770 1548 l0 -213 -100 3 -100 3 0 205 0 204 -26 0 -26 0 3 -200 3
-199 -81 -41 c-86 -43 -123 -83 -123 -133 0 -14 -6 -27 -12 -29 -19 -7 49 -91
98 -122 23 -14 59 -32 80 -40 l39 -13 3 -96 3 -96 -51 -102 c-29 -57 -49 -108
-45 -117 8 -23 20 -7 58 81 l34 78 7 -47 c9 -72 8 -146 -4 -139 -13 8 -13 -7
0 -40 8 -22 3 -39 -30 -104 -32 -65 -37 -80 -24 -85 11 -4 22 9 39 47 24 50
25 51 25 20 0 -46 20 -41 21 5 l1 37 25 -57 c15 -32 32 -58 40 -58 20 0 17 13
-24 95 -34 68 -36 78 -25 107 12 34 7 52 -8 28 -6 -10 -9 22 -9 90 l1 105 18
-40 c11 -22 28 -61 39 -86 18 -42 23 -45 50 -41 27 4 34 13 70 95 l40 91 3
-106 c2 -81 0 -104 -9 -101 -16 6 -16 -2 -3 -27 8 -16 1 -38 -34 -109 -25 -49
-42 -91 -39 -95 15 -15 26 -2 58 66 l34 73 2 -50 c2 -47 2 -48 8 -15 l7 35 27
-57 c19 -42 30 -56 41 -52 13 5 9 19 -23 83 l-39 77 0 135 c0 132 0 133 16 95
43 -104 67 -146 80 -137 11 6 2 31 -39 112 l-53 104 3 493 3 492 -26 0 -26 0
0 -212z m-240 -325 l0 -86 -22 19 c-13 10 -42 36 -66 58 l-42 40 52 28 c29 15
59 27 66 28 9 0 12 -24 12 -87z m240 22 l0 -65 -100 0 -100 0 0 65 0 65 100 0
100 0 0 -65z m-306 -90 c57 -44 65 -54 66 -84 l0 -33 -52 50 c-67 64 -103 92
-118 92 -25 0 -1 -27 81 -93 75 -61 106 -97 82 -97 -26 0 -122 72 -155 115
-39 52 -41 67 -11 113 14 23 15 23 28 5 7 -10 43 -40 79 -68z m308 -37 c3 -24
4 -44 4 -45 -1 0 -46 2 -101 5 l-100 7 -3 32 -3 32 83 4 c46 1 90 4 99 5 13 2
18 -8 21 -40z m8 -103 l0 -35 -105 0 -105 0 0 35 0 35 105 0 105 0 0 -35z m0
-138 c0 -82 -1 -86 -57 -192 l-56 -108 -48 94 c-47 92 -48 96 -48 186 l-1 92
73 4 c39 1 87 4 105 5 l32 2 0 -83z"/>
</g>
</svg>
