<?xml version="1.0" standalone="no"?>
<!DOCTYPE svg PUBLIC "-//W3C//DTD SVG 20010904//EN"
 "http://www.w3.org/TR/2001/REC-SVG-20010904/DTD/svg10.dtd">
<svg version="1.0" xmlns="http://www.w3.org/2000/svg"
 width="135.000000pt" height="156.000000pt" viewBox="0 0 135.000000 156.000000"
 preserveAspectRatio="xMidYMid meet">
<metadata>
Created by potrace 1.16, written by Peter Selinger 2001-2019
</metadata>
<g transform="translate(0.000000,156.000000) scale(0.100000,-0.100000)"
fill="#000000" stroke="none">
<path d="M809 1223 c-18 -21 -60 -68 -94 -105 l-62 -68 -107 91 c-59 49 -111
87 -116 84 -17 -10 -10 -88 11 -135 20 -45 98 -155 105 -148 2 2 -16 42 -40
88 -24 47 -47 98 -50 114 -7 28 -6 28 12 15 78 -56 175 -119 184 -119 6 0 46
35 89 77 l79 76 34 -39 c44 -50 55 -40 15 14 -17 23 -27 47 -23 53 7 12 7 12
67 -63 l27 -36 -40 -83 c-22 -45 -38 -85 -35 -87 6 -7 4 -11 58 86 l46 82 -52
70 c-28 39 -57 70 -63 70 -7 0 -27 -17 -45 -37z"/>
<path d="M307 983 c-25 -24 24 -119 77 -152 44 -28 178 -83 184 -76 7 7 5 9
-68 45 -83 41 -126 74 -144 109 l-15 27 52 -17 c63 -20 167 -34 167 -22 0 5
-34 17 -75 27 -41 10 -96 29 -122 42 -56 28 -48 26 -56 17z"/>
<path d="M861 891 c-10 -7 -10 -14 2 -37 8 -16 27 -74 41 -128 21 -78 24 -101
14 -108 -7 -4 -43 -27 -80 -49 -65 -39 -83 -59 -55 -59 36 0 182 116 169 134
-5 6 -12 35 -16 64 -8 59 -42 179 -54 186 -4 3 -14 1 -21 -3z"/>
<path d="M610 751 c0 -12 105 -188 131 -221 20 -24 20 -24 16 -3 -9 41 -118
233 -133 233 -7 0 -14 -4 -14 -9z"/>
<path d="M960 552 c0 -5 18 -46 40 -91 22 -45 40 -84 40 -86 0 -2 -21 -19 -47
-37 -35 -24 -43 -34 -31 -36 10 -2 34 9 54 24 32 25 36 32 31 63 -6 45 -63
171 -77 171 -5 0 -10 -4 -10 -8z"/>
<path d="M838 494 c-8 -7 79 -188 92 -192 11 -4 -57 167 -75 186 -6 7 -14 10
-17 6z"/>
</g>
</svg>
