<?xml version="1.0" standalone="no"?>
<!DOCTYPE svg PUBLIC "-//W3C//DTD SVG 20010904//EN"
 "http://www.w3.org/TR/2001/REC-SVG-20010904/DTD/svg10.dtd">
<svg version="1.0" xmlns="http://www.w3.org/2000/svg"
 width="148.000000pt" height="146.000000pt" viewBox="0 0 148.000000 146.000000"
 preserveAspectRatio="xMidYMid meet">
<metadata>
Created by potrace 1.16, written by Peter Selinger 2001-2019
</metadata>
<g transform="translate(0.000000,146.000000) scale(0.100000,-0.100000)"
fill="#000000" stroke="none">
<path d="M794 1090 c-27 -39 -125 -180 -219 -315 l-169 -245 -54 0 c-46 0 -53
-3 -50 -17 3 -13 13 -18 38 -17 19 1 109 2 199 4 l163 2 80 -99 c84 -102 98
-115 98 -88 0 8 29 50 64 93 35 42 103 129 150 192 83 109 87 115 69 130 -10
8 -65 83 -121 165 -158 230 -183 265 -192 265 -4 0 -30 -32 -56 -70z m257
-258 c43 -53 77 -101 76 -107 -4 -11 -528 -8 -539 3 -4 4 54 87 128 184 l135
178 61 -81 c33 -44 96 -124 139 -177z m-427 -225 l67 -88 -128 7 c-70 4 -129
8 -131 9 -1 1 26 39 60 83 34 45 62 81 63 79 1 -1 32 -42 69 -90z m476 78 c0
-3 -41 -63 -91 -133 -50 -70 -102 -146 -116 -169 -14 -24 -27 -43 -29 -43 -2
0 -31 42 -66 93 -34 50 -86 124 -115 164 -29 40 -53 74 -53 77 0 3 73 7 163 9
89 1 195 4 235 5 39 1 72 0 72 -3z"/>
</g>
</svg>
