<?xml version="1.0" standalone="no"?>
<!DOCTYPE svg PUBLIC "-//W3C//DTD SVG 20010904//EN"
 "http://www.w3.org/TR/2001/REC-SVG-20010904/DTD/svg10.dtd">
<svg version="1.0" xmlns="http://www.w3.org/2000/svg"
 width="181.000000pt" height="159.000000pt" viewBox="0 0 181.000000 159.000000"
 preserveAspectRatio="xMidYMid meet">
<metadata>
Created by potrace 1.16, written by Peter Selinger 2001-2019
</metadata>
<g transform="translate(0.000000,159.000000) scale(0.100000,-0.100000)"
fill="#000000" stroke="none">
<path d="M847 1185 l6 -104 -129 -3 -129 -3 -3 -134 -3 -134 -144 5 c-140 5
-145 4 -145 -15 0 -19 5 -20 145 -15 l145 5 2 -61 c2 -34 3 -88 3 -121 l0 -60
121 -3 121 -3 7 -46 c3 -25 6 -76 6 -114 0 -37 4 -70 9 -73 12 -8 21 55 21
157 l0 87 105 2 c58 1 122 2 143 3 35 0 37 2 44 40 3 22 7 133 7 246 1 203 1
206 -21 217 -13 7 -78 13 -152 14 l-129 3 2 108 c2 101 1 107 -18 107 -19 0
-20 -5 -14 -105z m305 -355 c1 -121 2 -228 2 -237 1 -16 -15 -17 -179 -15 -99
1 -219 5 -267 8 l-88 7 0 218 0 219 68 1 c57 1 293 11 425 17 l37 2 2 -220z"/>
<path d="M648 994 c-5 -4 -8 -14 -8 -22 0 -12 14 -13 83 -8 45 4 86 12 91 17
6 5 0 9 -16 9 -14 0 -52 3 -84 6 -32 3 -62 3 -66 -2z"/>
<path d="M910 980 c0 -22 1 -22 83 -15 79 6 95 10 86 19 -2 2 -41 7 -86 11
-82 7 -83 7 -83 -15z"/>
<path d="M642 893 c3 -16 14 -18 83 -14 44 2 85 6 90 10 11 7 -67 19 -133 20
-36 1 -43 -2 -40 -16z"/>
<path d="M910 891 c0 -21 3 -21 83 -15 45 4 84 8 86 10 10 9 -10 14 -87 20
-80 7 -82 6 -82 -15z"/>
<path d="M642 783 c3 -16 14 -18 83 -14 44 2 85 6 90 10 11 7 -67 19 -133 20
-36 1 -43 -2 -40 -16z"/>
<path d="M912 784 c3 -17 11 -19 83 -15 44 2 82 5 84 7 10 9 -9 14 -88 20 -78
7 -83 6 -79 -12z"/>
<path d="M644 681 c-2 -2 -4 -10 -4 -18 0 -9 14 -13 48 -12 66 1 140 14 122
22 -18 7 -160 14 -166 8z"/>
<path d="M914 681 c-2 -2 -4 -10 -4 -18 0 -8 13 -13 39 -13 57 0 131 12 131
21 0 8 -158 17 -166 10z"/>
<path d="M1210 797 c0 -19 5 -20 145 -15 130 5 167 10 154 22 -2 2 -70 6 -151
8 -143 5 -148 4 -148 -15z"/>
</g>
</svg>
