<?xml version="1.0" standalone="no"?>
<!DOCTYPE svg PUBLIC "-//W3C//DTD SVG 20010904//EN"
 "http://www.w3.org/TR/2001/REC-SVG-20010904/DTD/svg10.dtd">
<svg version="1.0" xmlns="http://www.w3.org/2000/svg"
 width="167.000000pt" height="139.000000pt" viewBox="0 0 167.000000 139.000000"
 preserveAspectRatio="xMidYMid meet">
<metadata>
Created by potrace 1.16, written by Peter Selinger 2001-2019
</metadata>
<g transform="translate(0.000000,139.000000) scale(0.100000,-0.100000)"
fill="#000000" stroke="none">
<path d="M1092 1055 c-17 -19 -54 -71 -82 -115 -29 -44 -56 -80 -60 -80 -5 0
-21 5 -37 11 -15 6 -142 51 -282 100 -234 81 -255 87 -267 71 -16 -21 -20 -49
-39 -285 -9 -104 -18 -201 -22 -218 -4 -23 -2 -29 12 -29 53 0 509 111 754
184 l49 14 22 -96 c26 -111 93 -305 98 -281 1 9 -13 85 -32 170 -19 85 -37
171 -40 192 -4 20 -10 37 -14 37 -4 0 -124 -25 -267 -56 -434 -93 -547 -115
-551 -111 -2 2 3 41 11 88 8 46 22 145 31 219 9 74 17 136 19 138 2 2 52 -14
112 -36 225 -82 493 -157 493 -139 0 14 109 197 117 197 4 0 163 -99 201 -125
5 -3 -28 -317 -48 -449 -23 -157 -23 -159 -11 -152 4 3 11 20 14 38 3 18 19
98 36 178 16 80 34 191 40 246 6 56 13 108 16 116 7 17 -43 61 -157 142 -38
26 -68 51 -68 57 0 18 -18 9 -48 -26z"/>
</g>
</svg>
