<?xml version="1.0" standalone="no"?>
<!DOCTYPE svg PUBLIC "-//W3C//DTD SVG 20010904//EN"
 "http://www.w3.org/TR/2001/REC-SVG-20010904/DTD/svg10.dtd">
<svg version="1.0" xmlns="http://www.w3.org/2000/svg"
 width="188.000000pt" height="147.000000pt" viewBox="0 0 188.000000 147.000000"
 preserveAspectRatio="xMidYMid meet">
<metadata>
Created by potrace 1.16, written by Peter Selinger 2001-2019
</metadata>
<g transform="translate(0.000000,147.000000) scale(0.100000,-0.100000)"
fill="#000000" stroke="none">
<path d="M1347 1134 c-225 -60 -324 -106 -515 -239 -39 -27 -72 -56 -72 -63 0
-8 -4 -12 -9 -10 -25 8 -178 138 -231 195 -97 103 -119 66 -48 -78 l33 -66
-55 42 c-30 23 -70 57 -89 74 -35 33 -69 35 -57 4 27 -70 113 -181 228 -295
70 -69 130 -122 133 -117 3 5 34 -15 68 -44 99 -84 152 -117 290 -179 130 -59
201 -76 97 -23 -140 70 -344 206 -392 262 -17 19 -16 21 50 70 37 29 71 52 75
52 4 0 16 9 25 19 26 30 278 177 373 218 46 20 133 54 193 76 60 21 116 43
125 48 37 22 -22 8 -158 -35 -203 -66 -294 -106 -445 -200 l-135 -83 -30 22
-30 23 137 91 c163 108 246 148 447 214 82 27 152 52 154 54 11 11 -45 0 -162
-32z m-609 -337 l103 -61 -23 -18 c-13 -9 -56 -36 -96 -59 l-73 -42 -45 44
c-45 43 -123 137 -180 214 l-29 39 40 -24 c22 -13 58 -36 79 -51 21 -16 43
-26 47 -23 4 2 -13 43 -38 91 l-47 87 80 -68 c43 -38 125 -96 182 -129z"/>
<path d="M871 716 c-9 -11 -1 -23 41 -59 94 -79 165 -124 294 -181 131 -60
194 -72 87 -18 -146 74 -362 220 -388 261 -9 15 -20 14 -34 -3z"/>
</g>
</svg>
