<?xml version="1.0" standalone="no"?>
<!DOCTYPE svg PUBLIC "-//W3C//DTD SVG 20010904//EN"
 "http://www.w3.org/TR/2001/REC-SVG-20010904/DTD/svg10.dtd">
<svg version="1.0" xmlns="http://www.w3.org/2000/svg"
 width="151.000000pt" height="122.000000pt" viewBox="0 0 151.000000 122.000000"
 preserveAspectRatio="xMidYMid meet">
<metadata>
Created by potrace 1.16, written by Peter Selinger 2001-2019
</metadata>
<g transform="translate(0.000000,122.000000) scale(0.100000,-0.100000)"
fill="#000000" stroke="none">
<path d="M318 913 c-7 -17 4 -293 11 -293 8 0 31 188 31 258 0 35 -3 42 -19
42 -11 0 -21 -3 -23 -7z"/>
<path d="M609 844 c-7 -9 -9 -18 -3 -24 5 -5 86 -38 179 -74 94 -36 187 -75
209 -86 l38 -20 53 46 c60 50 132 134 116 134 -5 0 -13 -5 -17 -11 -3 -6 -42
-39 -87 -74 l-80 -64 -61 31 c-34 17 -123 59 -198 93 -117 54 -139 61 -149 49z"/>
<path d="M303 572 c-13 -31 14 -34 236 -27 122 4 221 11 221 15 0 4 -71 11
-157 14 -87 4 -189 8 -227 9 -50 2 -70 -1 -73 -11z"/>
<path d="M1010 505 c-6 -8 -22 -17 -33 -21 -57 -17 -377 -147 -377 -153 0 -3
4 -12 9 -19 9 -15 69 8 293 115 l117 56 93 -76 c51 -41 95 -73 97 -71 6 5
-170 184 -180 184 -4 0 -12 -7 -19 -15z"/>
</g>
</svg>
