<?xml version="1.0" standalone="no"?>
<!DOCTYPE svg PUBLIC "-//W3C//DTD SVG 20010904//EN"
 "http://www.w3.org/TR/2001/REC-SVG-20010904/DTD/svg10.dtd">
<svg version="1.0" xmlns="http://www.w3.org/2000/svg"
 width="236.000000pt" height="131.000000pt" viewBox="0 0 236.000000 131.000000"
 preserveAspectRatio="xMidYMid meet">
<metadata>
Created by potrace 1.16, written by Peter Selinger 2001-2019
</metadata>
<g transform="translate(0.000000,131.000000) scale(0.100000,-0.100000)"
fill="#000000" stroke="none">
<path d="M969 844 l-267 -165 -167 106 c-133 84 -170 103 -181 94 -8 -6 -14
-17 -14 -23 0 -6 63 -48 140 -94 77 -46 140 -84 140 -86 0 -1 -72 0 -160 2
l-160 4 0 -31 0 -30 150 -3 150 -3 -130 -78 c-71 -43 -130 -80 -130 -83 0 -3
5 -14 10 -24 9 -17 24 -10 177 86 92 57 171 104 176 104 6 0 126 -72 268 -160
142 -88 264 -160 271 -160 7 0 100 73 206 161 106 88 199 159 206 156 7 -3 99
-69 205 -147 105 -79 194 -140 197 -137 3 2 -76 72 -175 153 l-180 149 159 3
c93 1 160 7 160 12 0 6 -68 11 -162 12 l-162 3 169 139 c200 164 200 164 194
171 -3 2 -97 -63 -208 -146 l-203 -150 -102 82 c-55 46 -145 120 -198 166 -53
46 -100 83 -105 83 -4 -1 -128 -75 -274 -166z m391 10 c74 -60 157 -126 184
-147 l49 -37 -408 0 c-225 0 -406 2 -403 5 24 24 434 300 438 295 3 -4 66 -56
140 -116z m41 -370 c-106 -86 -178 -151 -174 -157 4 -6 -45 25 -108 68 -63 44
-161 111 -217 150 l-104 70 174 5 c95 3 271 7 391 8 l219 2 -181 -146z"/>
</g>
</svg>
