<?xml version="1.0" standalone="no"?>
<!DOCTYPE svg PUBLIC "-//W3C//DTD SVG 20010904//EN"
 "http://www.w3.org/TR/2001/REC-SVG-20010904/DTD/svg10.dtd">
<svg version="1.0" xmlns="http://www.w3.org/2000/svg"
 width="151.000000pt" height="169.000000pt" viewBox="0 0 151.000000 169.000000"
 preserveAspectRatio="xMidYMid meet">
<metadata>
Created by potrace 1.16, written by Peter Selinger 2001-2019
</metadata>
<g transform="translate(0.000000,169.000000) scale(0.100000,-0.100000)"
fill="#000000" stroke="none">
<path d="M650 1388 c0 -2 9 -27 21 -57 11 -30 31 -99 45 -155 30 -124 33 -279
9 -466 l-17 -125 -134 -140 c-73 -76 -131 -142 -127 -145 3 -3 74 66 158 153
176 181 152 171 331 136 106 -20 143 -20 88 1 -16 7 -83 23 -149 37 -66 14
-123 28 -126 32 -4 3 0 42 8 86 21 119 13 396 -16 492 -34 117 -51 153 -72
153 -10 0 -19 -1 -19 -2z m90 -768 c0 -11 -4 -20 -9 -20 -5 0 -7 9 -4 20 3 11
7 20 9 20 2 0 4 -9 4 -20z"/>
<path d="M440 1346 c0 -2 7 -21 16 -42 35 -83 64 -246 64 -359 0 -100 -11
-236 -26 -308 -3 -15 -1 -27 4 -27 16 0 43 159 49 285 7 142 -8 268 -44 377
-20 60 -30 78 -44 78 -11 0 -19 -2 -19 -4z"/>
<path d="M790 1053 c1 -25 27 -28 218 -25 202 4 256 13 141 26 -86 8 -359 8
-359 -1z"/>
<path d="M800 873 c1 -26 23 -29 213 -25 108 2 197 8 197 12 0 4 -30 10 -67
13 -94 9 -343 9 -343 0z"/>
<path d="M440 485 c-79 -79 -142 -147 -139 -149 3 -3 70 60 149 139 79 79 142
147 139 149 -3 3 -70 -60 -149 -139z"/>
<path d="M750 445 c-74 -74 -132 -137 -129 -139 3 -3 68 58 144 134 77 77 135
140 130 140 -6 0 -71 -61 -145 -135z"/>
<path d="M885 400 c-55 -55 -95 -100 -90 -100 6 0 55 45 110 100 55 55 95 100
90 100 -6 0 -55 -45 -110 -100z"/>
</g>
</svg>
