<?xml version="1.0" standalone="no"?>
<!DOCTYPE svg PUBLIC "-//W3C//DTD SVG 20010904//EN"
 "http://www.w3.org/TR/2001/REC-SVG-20010904/DTD/svg10.dtd">
<svg version="1.0" xmlns="http://www.w3.org/2000/svg"
 width="240.000000pt" height="127.000000pt" viewBox="0 0 240.000000 127.000000"
 preserveAspectRatio="xMidYMid meet">
<metadata>
Created by potrace 1.16, written by Peter Selinger 2001-2019
</metadata>
<g transform="translate(0.000000,127.000000) scale(0.100000,-0.100000)"
fill="#000000" stroke="none">
<path d="M314 949 c-19 -21 -18 -21 91 -128 131 -127 255 -234 263 -227 3 3
-60 71 -139 151 -79 81 -146 149 -149 152 -5 5 296 -203 374 -259 22 -16 42
-26 44 -23 7 7 11 4 -143 122 -147 113 -311 233 -317 233 -3 0 -13 -9 -24 -21z"/>
<path d="M1960 790 c-97 -18 -697 -110 -905 -140 -121 -17 -221 -33 -223 -34
-1 -2 0 -10 4 -19 6 -16 17 -16 90 -2 18 4 22 -3 31 -58 6 -34 9 -64 7 -65 -1
-2 -42 1 -91 8 l-88 12 -169 -81 -169 -81 108 110 c121 125 136 164 17 49 -42
-42 -99 -96 -126 -121 -49 -46 -54 -68 -14 -68 12 0 90 36 175 80 l153 79 138
-19 c235 -33 373 -40 746 -40 408 0 389 -4 434 81 21 39 23 55 20 140 -3 85
-6 100 -31 137 -29 44 -32 45 -107 32z m90 -60 c38 -67 36 -164 -5 -245 -21
-43 -36 -61 -52 -63 -29 -4 -30 5 -38 195 -6 141 -5 152 12 156 40 11 58 1 83
-43z m-130 18 c1 -33 20 -257 26 -290 l6 -38 -140 0 -141 0 -5 53 c-3 28 -7
95 -8 147 l-3 94 110 22 c133 26 155 28 155 12z m-296 -70 c3 -18 7 -71 11
-118 3 -47 8 -98 11 -113 l7 -28 -64 7 c-35 3 -67 9 -70 13 -4 3 -9 60 -13
127 l-6 121 52 10 c29 6 56 11 60 12 4 0 9 -14 12 -31z m-150 -29 c3 -17 6
-55 6 -83 1 -28 5 -70 9 -93 l8 -43 -86 0 c-91 1 -290 15 -296 22 -2 2 -7 41
-11 85 -7 81 -6 82 17 87 34 7 311 53 330 55 11 1 19 -10 23 -30z m-396 -111
c6 -46 10 -84 9 -85 -1 0 -23 1 -49 4 l-47 5 -6 53 c-10 76 -5 89 35 96 19 4
38 7 41 8 4 0 11 -36 17 -81z"/>
</g>
</svg>
