<?xml version="1.0" standalone="no"?>
<!DOCTYPE svg PUBLIC "-//W3C//DTD SVG 20010904//EN"
 "http://www.w3.org/TR/2001/REC-SVG-20010904/DTD/svg10.dtd">
<svg version="1.0" xmlns="http://www.w3.org/2000/svg"
 width="215.000000pt" height="98.000000pt" viewBox="0 0 215.000000 98.000000"
 preserveAspectRatio="xMidYMid meet">
<metadata>
Created by potrace 1.16, written by Peter Selinger 2001-2019
</metadata>
<g transform="translate(0.000000,98.000000) scale(0.100000,-0.100000)"
fill="#000000" stroke="none">
<path d="M1250 669 c-8 -4 -71 -20 -140 -34 -69 -15 -167 -38 -218 -51 l-94
-25 -44 22 c-62 29 -121 20 -174 -27 l-38 -34 -103 55 c-149 80 -143 84 -136
-86 3 -78 9 -145 15 -151 5 -5 48 12 112 47 57 30 104 54 105 52 1 -1 7 -17
15 -35 38 -96 172 -116 246 -36 l32 33 52 -15 c76 -23 359 -84 387 -84 36 0
263 121 263 141 0 10 -46 -8 -181 -73 l-106 -50 -205 57 -206 58 -5 46 c-3 25
-4 47 -3 48 1 1 95 28 210 61 l209 59 121 -57 c66 -32 131 -61 144 -65 46 -14
19 12 -61 57 -134 76 -181 96 -197 87z m-713 -185 c3 -8 -121 -71 -199 -102
-4 -2 -8 44 -8 102 l0 105 102 -48 c56 -26 103 -52 105 -57z"/>
<path d="M1790 619 c-229 -63 -275 -82 -241 -104 5 -3 60 13 123 36 62 22 120
43 129 46 14 4 17 -9 23 -94 4 -54 9 -110 12 -124 l5 -26 -122 44 c-155 56
-182 62 -178 38 4 -19 24 -26 184 -70 137 -38 126 -48 123 117 -2 84 -7 142
-13 144 -5 1 -26 -2 -45 -7z"/>
</g>
</svg>
