<?xml version="1.0" standalone="no"?>
<!DOCTYPE svg PUBLIC "-//W3C//DTD SVG 20010904//EN"
 "http://www.w3.org/TR/2001/REC-SVG-20010904/DTD/svg10.dtd">
<svg version="1.0" xmlns="http://www.w3.org/2000/svg"
 width="85.000000pt" height="152.000000pt" viewBox="0 0 85.000000 152.000000"
 preserveAspectRatio="xMidYMid meet">
<metadata>
Created by potrace 1.16, written by Peter Selinger 2001-2019
</metadata>
<g transform="translate(0.000000,152.000000) scale(0.100000,-0.100000)"
fill="#000000" stroke="none">
<path d="M368 1214 c-17 -16 35 -123 77 -157 6 -6 5 -10 -3 -14 -26 -10 -74
-70 -104 -131 -63 -126 -46 -284 44 -423 21 -33 38 -62 38 -65 0 -3 -11 -20
-24 -37 -74 -100 -68 -118 8 -24 l47 57 -25 33 c-14 18 -40 64 -58 102 -28 60
-33 83 -36 165 -5 114 16 180 80 262 l41 51 18 -34 c67 -132 73 -346 14 -519
l-25 -72 37 -47 c54 -67 53 -67 53 -49 0 9 -15 37 -34 61 l-34 45 31 83 c29
79 31 92 32 229 0 127 -3 153 -24 214 -13 38 -31 76 -40 85 -16 15 -15 20 26
73 24 31 43 62 43 69 0 19 -39 -21 -67 -69 l-25 -43 -34 53 c-18 29 -34 65
-34 81 0 25 -9 34 -22 21z"/>
</g>
</svg>
