<?xml version="1.0" standalone="no"?>
<!DOCTYPE svg PUBLIC "-//W3C//DTD SVG 20010904//EN"
 "http://www.w3.org/TR/2001/REC-SVG-20010904/DTD/svg10.dtd">
<svg version="1.0" xmlns="http://www.w3.org/2000/svg"
 width="138.000000pt" height="158.000000pt" viewBox="0 0 138.000000 158.000000"
 preserveAspectRatio="xMidYMid meet">
<metadata>
Created by potrace 1.16, written by Peter Selinger 2001-2019
</metadata>
<g transform="translate(0.000000,158.000000) scale(0.100000,-0.100000)"
fill="#000000" stroke="none">
<path d="M620 1234 c-85 -45 -155 -103 -165 -135 -3 -9 -17 -20 -30 -23 -14
-4 -25 -13 -25 -21 0 -8 -7 -15 -16 -15 -30 0 -84 -163 -84 -256 0 -52 28
-158 55 -211 8 -15 15 -33 15 -40 0 -6 18 -14 41 -18 24 -4 48 -16 57 -28 46
-60 109 -109 186 -148 88 -43 127 -49 59 -8 -98 58 -173 113 -188 136 l-17 25
54 -7 c34 -5 62 -15 78 -30 44 -41 108 -65 208 -80 114 -17 112 -17 112 -7 0
4 -28 14 -62 21 -99 20 -160 39 -198 63 l-35 22 80 14 c80 13 80 13 208 -21
70 -19 127 -30 127 -26 0 4 -47 23 -105 42 -61 20 -101 37 -96 43 5 5 19 41
32 79 21 61 24 89 24 210 0 165 -8 215 -34 215 -10 0 -33 5 -51 12 -33 11 -32
12 91 51 68 22 118 42 112 44 -19 7 -226 -48 -239 -63 -9 -11 -27 -10 -98 5
l-87 17 41 28 c38 25 206 76 253 76 9 0 17 5 17 10 0 13 4 13 -110 -4 -52 -8
-111 -22 -131 -30 -45 -19 -101 -65 -93 -77 3 -5 -12 -9 -33 -9 -21 0 -48 -3
-60 -6 -66 -18 13 64 131 135 47 29 86 54 86 57 0 12 -33 -1 -110 -42z m199
-206 c71 -17 74 -26 75 -243 1 -207 -8 -250 -57 -259 -98 -18 -292 -5 -413 29
l-51 15 -16 60 -15 60 244 0 c156 0 244 4 244 10 0 6 -18 10 -41 10 l-40 0 32
45 c18 24 40 53 50 64 11 11 15 22 11 24 -4 3 -114 8 -244 12 -214 6 -238 5
-238 -9 0 -13 12 -16 61 -16 l60 0 -47 -55 c-34 -39 -55 -55 -72 -55 -25 0
-25 0 -19 78 5 70 44 203 66 225 27 27 304 30 410 5z m-279 -253 c-40 -40 -62
-55 -82 -55 -15 0 -28 3 -28 6 0 3 17 28 38 55 34 45 40 48 82 49 l44 0 -54
-55z m113 0 c-42 -48 -53 -55 -86 -55 -42 0 -42 -2 8 68 28 39 33 42 78 42
l48 0 -48 -55z m112 -5 c-55 -55 -64 -60 -92 -54 l-31 6 41 54 c41 52 43 54
92 54 l50 0 -60 -60z"/>
</g>
</svg>
