<?xml version="1.0" standalone="no"?>
<!DOCTYPE svg PUBLIC "-//W3C//DTD SVG 20010904//EN"
 "http://www.w3.org/TR/2001/REC-SVG-20010904/DTD/svg10.dtd">
<svg version="1.0" xmlns="http://www.w3.org/2000/svg"
 width="131.000000pt" height="142.000000pt" viewBox="0 0 131.000000 142.000000"
 preserveAspectRatio="xMidYMid meet">
<metadata>
Created by potrace 1.16, written by Peter Selinger 2001-2019
</metadata>
<g transform="translate(0.000000,142.000000) scale(0.100000,-0.100000)"
fill="#000000" stroke="none">
<path d="M513 1060 c-91 -76 -168 -170 -194 -240 -16 -43 -20 -71 -17 -125 8
-127 81 -236 217 -324 61 -39 147 -78 156 -70 2 3 5 43 6 89 1 47 4 103 7 126
l4 41 156 7 c147 7 172 10 161 20 -3 3 -76 8 -162 12 l-158 7 3 106 3 106 155
6 c85 3 157 7 160 9 16 9 -73 18 -188 19 l-134 1 7 135 c7 130 6 135 -13 135
-18 0 -20 -8 -24 -95 -2 -52 -7 -97 -10 -100 -7 -7 -148 66 -148 77 0 3 29 30
65 58 36 28 65 54 65 56 0 2 -10 4 -22 4 -13 0 -55 -26 -95 -60z m137 -220 l0
-49 -67 29 c-38 16 -92 42 -121 58 l-54 29 32 36 32 36 89 -44 89 -45 0 -50z
m-187 9 c34 -18 89 -42 122 -54 l60 -23 3 -55 3 -55 -143 75 c-79 42 -144 77
-146 79 -5 3 27 64 34 64 2 0 33 -14 67 -31z m195 -254 c2 -30 -1 -46 -7 -44
-6 2 -78 38 -160 79 l-149 75 -1 36 c-1 20 2 38 5 41 3 3 74 -27 157 -67 l152
-73 3 -47z m-149 5 l151 -74 0 -48 0 -47 -62 36 c-35 19 -102 55 -150 79 -47
24 -89 47 -91 51 -12 19 -19 85 -9 82 5 -2 78 -38 161 -79z m16 -117 l135 -68
0 -48 c0 -43 -2 -48 -17 -43 -47 18 -132 76 -183 126 -51 50 -89 100 -75 100
2 0 66 -30 140 -67z"/>
</g>
</svg>
