<?xml version="1.0" standalone="no"?>
<!DOCTYPE svg PUBLIC "-//W3C//DTD SVG 20010904//EN"
 "http://www.w3.org/TR/2001/REC-SVG-20010904/DTD/svg10.dtd">
<svg version="1.0" xmlns="http://www.w3.org/2000/svg"
 width="180.000000pt" height="106.000000pt" viewBox="0 0 180.000000 106.000000"
 preserveAspectRatio="xMidYMid meet">
<metadata>
Created by potrace 1.16, written by Peter Selinger 2001-2019
</metadata>
<g transform="translate(0.000000,106.000000) scale(0.100000,-0.100000)"
fill="#000000" stroke="none">
<path d="M1390 739 c-236 -59 -514 -81 -596 -47 -47 19 -173 38 -179 27 -3 -4
-24 -10 -48 -14 -91 -13 -247 -49 -247 -55 0 -35 176 -63 360 -58 l139 3 7
-72 c3 -40 10 -70 15 -67 5 3 9 45 9 93 l0 88 98 2 c118 2 245 22 372 57 52
15 104 28 116 31 20 5 21 1 28 -193 3 -108 5 -199 2 -201 -2 -2 -56 12 -121
32 -142 43 -245 61 -390 71 -100 6 -113 5 -145 -14 -80 -47 -204 -52 -360 -14
l-75 19 40 13 c23 7 115 15 215 17 207 6 202 23 -8 23 -123 1 -249 -14 -304
-35 -45 -18 -13 -33 124 -59 79 -16 147 -32 151 -36 11 -10 153 14 205 35 89
36 403 -1 677 -80 20 -6 20 0 24 225 4 264 16 240 -109 209z m-602 -70 c24 -8
32 -16 32 -35 l0 -24 -167 4 c-148 5 -235 14 -249 29 -3 2 44 14 103 26 59 12
112 23 117 25 15 4 128 -13 164 -25z"/>
</g>
</svg>
