<?xml version="1.0" standalone="no"?>
<!DOCTYPE svg PUBLIC "-//W3C//DTD SVG 20010904//EN"
 "http://www.w3.org/TR/2001/REC-SVG-20010904/DTD/svg10.dtd">
<svg version="1.0" xmlns="http://www.w3.org/2000/svg"
 width="117.000000pt" height="484.000000pt" viewBox="0 0 117.000000 484.000000"
 preserveAspectRatio="xMidYMid meet">
<metadata>
Created by potrace 1.16, written by Peter Selinger 2001-2019
</metadata>
<g transform="translate(0.000000,484.000000) scale(0.100000,-0.100000)"
fill="#000000" stroke="none">
<path d="M383 4515 c-39 -18 -53 -30 -53 -45 0 -14 -4 -19 -12 -14 -8 5 -10
-64 -5 -287 4 -162 7 -360 7 -441 0 -92 4 -148 10 -148 6 0 10 7 10 15 0 11 8
11 43 -5 61 -28 159 -27 217 3 24 12 46 27 48 34 2 8 -8 6 -30 -5 -23 -12 -57
-17 -113 -17 -67 0 -87 4 -124 25 l-43 25 6 330 c3 181 6 362 6 401 l0 70 43
25 c35 20 56 24 122 24 56 0 90 -5 113 -17 22 -11 32 -13 30 -5 -2 7 -24 22
-48 35 -62 31 -156 30 -227 -3z"/>
<path d="M676 4432 c-11 -75 -90 -121 -181 -107 l-42 6 4 -208 c4 -216 14
-395 21 -355 4 25 32 29 96 11 49 -14 85 -52 92 -101 8 -48 24 -50 24 -3 0 38
-19 83 -43 103 -8 7 -48 21 -88 31 -69 17 -74 21 -73 45 0 14 1 118 2 231 2
204 2 205 24 205 44 0 137 33 159 56 14 15 24 40 27 74 5 59 -12 69 -22 12z"/>
<path d="M330 3387 c0 -8 -5 -17 -11 -19 -8 -3 -9 -125 -2 -438 l8 -435 155 3
c223 3 361 13 354 23 -3 5 -115 9 -251 9 l-246 0 6 302 c4 166 7 352 7 413 l0
112 232 7 c248 8 346 25 148 26 -63 0 -179 3 -257 7 -125 5 -143 4 -143 -10z"/>
<path d="M820 3349 c-82 -55 -154 -87 -239 -104 -60 -12 -86 -14 -94 -6 -31
31 -34 12 -30 -201 2 -117 7 -251 10 -298 l7 -85 7 85 c4 47 7 168 8 271 l1
185 98 23 c105 25 184 62 247 116 51 44 42 53 -15 14z"/>
<path d="M490 2686 c0 -10 13 -17 38 -21 125 -21 214 -57 300 -122 39 -29 59
-21 22 8 -74 60 -146 98 -217 117 -129 34 -143 36 -143 18z"/>
<path d="M313 2324 c-3 -9 -3 -131 0 -273 4 -141 7 -334 7 -428 l0 -173 80 3
80 2 0 95 c0 84 2 96 18 96 26 1 222 67 222 75 0 4 -52 25 -115 46 l-115 37 0
136 0 135 111 35 c61 19 111 40 111 45 0 6 -50 26 -111 45 l-111 35 0 39 c0
53 -20 65 -103 66 -53 0 -69 -3 -74 -16z m141 -116 c3 -62 7 -251 9 -421 l2
-307 -60 6 c-33 4 -62 8 -64 10 -2 2 0 184 5 406 l9 403 40 6 c22 3 43 7 47 8
3 0 9 -50 12 -111z m138 -30 l87 -23 -82 -22 c-45 -13 -88 -23 -94 -23 -9 0
-13 16 -13 45 0 25 3 45 8 45 4 0 46 -10 94 -22z m0 -433 c43 -10 76 -21 73
-23 -3 -3 -43 -15 -90 -27 l-85 -22 0 49 c0 36 4 49 13 45 6 -2 47 -12 89 -22z"/>
<path d="M376 1121 c-3 -9 -19 -88 -37 -176 -44 -219 -44 -298 0 -485 33 -141
44 -171 57 -157 11 10 94 377 100 442 5 43 -1 101 -20 205 -15 80 -29 152 -32
161 -7 23 -62 31 -68 10z m57 -131 c33 -150 40 -202 34 -252 -7 -57 -66 -365
-74 -388 -11 -29 -64 291 -60 356 5 75 69 376 77 366 4 -4 14 -41 23 -82z"/>
<path d="M490 1025 c0 -12 16 -15 80 -15 76 0 219 -23 248 -39 31 -17 -110
-46 -220 -45 -89 1 -108 -2 -108 -14 0 -12 20 -14 123 -10 107 4 130 8 185 32
34 16 62 32 62 37 0 12 -122 48 -200 59 -102 15 -170 13 -170 -5z"/>
<path d="M490 627 c0 -10 6 -13 19 -10 45 12 340 -34 316 -49 -37 -23 -130
-38 -228 -38 -82 0 -108 -3 -105 -12 6 -17 145 -22 212 -8 72 15 157 51 153
64 -13 39 -367 91 -367 53z"/>
</g>
</svg>
