<?xml version="1.0" standalone="no"?>
<!DOCTYPE svg PUBLIC "-//W3C//DTD SVG 20010904//EN"
 "http://www.w3.org/TR/2001/REC-SVG-20010904/DTD/svg10.dtd">
<svg version="1.0" xmlns="http://www.w3.org/2000/svg"
 width="190.000000pt" height="311.000000pt" viewBox="0 0 190.000000 311.000000"
 preserveAspectRatio="xMidYMid meet">
<metadata>
Created by potrace 1.16, written by Peter Selinger 2001-2019
</metadata>
<g transform="translate(0.000000,311.000000) scale(0.100000,-0.100000)"
fill="#000000" stroke="none">
<path d="M693 2798 c-19 -22 25 -78 101 -127 l65 -43 -46 -49 c-95 -101 -166
-222 -179 -306 -3 -24 -9 -43 -13 -43 -3 1 -71 34 -150 74 -79 41 -150 72
-158 69 -10 -4 -13 -44 -13 -184 0 -114 4 -179 10 -179 6 0 78 34 160 75 82
41 154 75 158 75 5 0 14 -19 21 -42 24 -80 108 -193 181 -245 22 -16 40 -30
39 -33 0 -3 -32 -27 -72 -53 -81 -55 -123 -103 -105 -124 15 -19 22 -16 36 16
14 33 141 140 172 146 31 6 700 392 700 403 0 9 15 0 -359 216 -178 102 -329
186 -336 186 -6 0 -41 22 -77 49 -62 47 -88 74 -113 116 -9 15 -12 15 -22 3z
m452 -340 c138 -75 292 -157 344 -183 l94 -47 -189 -97 c-104 -54 -262 -139
-351 -189 l-163 -90 -65 71 c-42 46 -81 102 -107 155 -36 71 -42 92 -42 147 0
53 6 76 37 137 35 71 171 243 185 234 4 -2 120 -64 257 -138z m-670 -185 c66
-28 128 -53 138 -56 24 -9 21 -34 -5 -43 -13 -3 -81 -31 -151 -62 -70 -30
-129 -53 -130 -51 -1 2 -1 64 1 137 3 97 7 132 15 129 7 -3 66 -27 132 -54z"/>
<path d="M690 1445 c-18 -22 29 -79 107 -127 l63 -40 -57 -62 c-56 -60 -127
-161 -138 -196 -5 -16 -19 -17 -185 -12 l-180 5 0 -153 0 -152 183 7 182 7 20
-39 c11 -21 57 -75 102 -120 l82 -82 -58 -36 c-70 -42 -133 -108 -125 -130 10
-25 31 -17 44 16 7 16 29 42 49 57 20 14 51 39 69 54 18 15 39 28 47 28 12 0
432 237 623 352 70 42 82 53 70 63 -7 8 -96 62 -198 120 -102 59 -247 143
-323 187 -75 44 -147 82 -160 85 -33 9 -156 111 -179 149 -23 39 -22 39 -38
19z m418 -320 c117 -63 271 -144 343 -181 l131 -66 -179 -93 c-98 -52 -254
-136 -348 -188 l-170 -96 -61 63 c-118 122 -176 255 -154 359 6 29 25 78 43
110 38 67 153 207 171 207 7 0 108 -52 224 -115z m-468 -176 c-14 -48 -12
-127 5 -173 l14 -39 -91 7 c-50 3 -126 6 -168 6 l-77 0 5 108 c2 59 6 109 9
112 3 3 300 17 310 14 2 0 -2 -16 -7 -35z"/>
</g>
</svg>
