<?xml version="1.0" standalone="no"?>
<!DOCTYPE svg PUBLIC "-//W3C//DTD SVG 20010904//EN"
 "http://www.w3.org/TR/2001/REC-SVG-20010904/DTD/svg10.dtd">
<svg version="1.0" xmlns="http://www.w3.org/2000/svg"
 width="164.000000pt" height="152.000000pt" viewBox="0 0 164.000000 152.000000"
 preserveAspectRatio="xMidYMid meet">
<metadata>
Created by potrace 1.16, written by Peter Selinger 2001-2019
</metadata>
<g transform="translate(0.000000,152.000000) scale(0.100000,-0.100000)"
fill="#000000" stroke="none">
<path d="M440 1188 c0 -29 -7 -37 -51 -66 -53 -35 -89 -83 -89 -120 0 -37 26
-77 84 -128 54 -49 54 -50 57 -111 l2 -63 -54 -39 c-93 -67 -111 -127 -60
-197 17 -21 50 -52 75 -69 38 -25 46 -35 46 -62 0 -18 5 -33 10 -33 6 0 10 30
10 69 l0 68 78 5 c42 3 200 6 350 7 l272 2 1 -53 c1 -29 5 -64 9 -78 7 -23 8
-22 9 10 1 30 8 39 47 65 87 58 122 132 90 193 -9 17 -41 48 -71 69 l-54 38
-1 72 c0 62 3 72 19 78 28 8 109 99 117 129 3 14 3 38 -1 54 -7 29 -84 107
-116 117 -14 5 -19 16 -19 41 0 27 -4 34 -20 34 -18 0 -20 -7 -20 -82 l0 -83
-342 5 -343 5 0 75 c0 63 -3 75 -17 78 -14 3 -18 -4 -18 -30z m0 -198 c0 -71
-4 -130 -8 -130 -11 0 -79 83 -93 114 -9 19 -9 32 1 56 12 29 75 90 92 90 5 0
8 -58 8 -130z m811 100 c75 -61 73 -105 -6 -195 l-44 -50 -1 138 c0 75 3 137
8 137 4 0 24 -13 43 -30z m-91 -137 l0 -88 -60 -48 -60 -48 -45 38 c-25 20
-44 40 -43 44 2 4 45 44 96 89 51 45 91 84 88 87 -2 3 -48 -31 -101 -76 -53
-45 -100 -81 -105 -81 -11 0 -95 70 -95 79 0 4 18 23 39 41 43 38 79 46 214
49 l72 1 0 -87z m-662 68 c-2 -6 13 -23 32 -40 l35 -30 -30 -26 c-59 -50 -60
-50 -63 22 -1 36 1 69 4 74 7 12 25 12 22 0z m133 -21 l-42 -31 -34 27 c-19
14 -35 28 -35 30 0 2 34 4 77 4 l76 0 -42 -30z m259 26 c0 -2 -18 -16 -40 -31
l-40 -28 -35 27 c-19 15 -35 29 -35 32 0 2 34 4 75 4 41 0 75 -2 75 -4z m-145
-43 l44 -36 -45 -34 -44 -34 -28 19 c-15 11 -35 29 -45 40 -18 19 -17 21 20
51 21 17 41 31 46 31 4 0 28 -16 52 -37z m-75 -123 c0 -11 -89 -80 -102 -80
-13 1 -92 69 -86 75 2 2 25 21 52 43 l49 41 43 -37 c24 -20 44 -39 44 -42z
m203 18 l38 -33 -46 -38 -46 -39 -47 44 c-26 23 -47 46 -47 50 0 3 17 20 39
37 43 34 46 33 109 -21z m-120 -81 l48 -43 -51 -43 c-57 -48 -53 -48 -127 16
l-33 28 51 43 c28 23 54 42 58 42 3 -1 28 -20 54 -43z m416 -48 l2 -92 -38 31
c-21 16 -46 39 -56 50 -17 19 -17 21 29 61 26 22 50 41 54 41 4 0 8 -41 9 -91z
m-190 43 l43 -38 -46 -38 -46 -37 -28 19 c-15 11 -35 29 -45 40 -17 19 -17 21
25 56 24 19 45 36 48 36 3 -1 25 -18 49 -38z m-461 -11 l32 -28 -40 -32 -41
-33 3 61 c2 34 5 61 8 61 3 -1 20 -13 38 -29z m588 -93 l64 -53 0 -82 0 -83
-92 0 c-119 1 -157 10 -207 51 -22 19 -40 36 -40 39 1 8 89 80 99 80 4 0 51
-37 104 -81 53 -45 99 -80 102 -77 2 3 -31 36 -73 73 -132 116 -123 98 -72
144 24 22 45 40 47 41 2 0 32 -24 68 -52z m-483 6 c26 -20 47 -40 47 -43 0 -4
-19 -23 -43 -43 l-43 -36 -53 41 -53 41 41 38 c22 21 44 38 49 38 5 0 30 -16
55 -36z m249 2 l38 -33 -49 -41 c-27 -23 -53 -42 -58 -42 -4 1 -26 16 -47 35
l-39 35 44 39 c24 22 51 40 59 40 8 0 32 -15 52 -33z m-422 -184 l-1 -137 -49
54 c-63 69 -77 101 -60 142 14 33 86 92 101 83 5 -3 9 -67 9 -142z m831 89
c28 -35 33 -65 16 -97 -20 -38 -86 -114 -99 -114 -7 0 -8 38 -5 113 4 61 6
122 7 135 0 23 0 23 31 5 17 -10 40 -29 50 -42z m-746 -16 l30 -26 -35 -30
c-19 -17 -34 -34 -32 -40 1 -5 -5 -9 -13 -9 -12 0 -15 15 -15 75 0 84 1 84 65
30z m210 11 l44 -33 -47 -41 c-51 -43 -46 -43 -108 7 l-29 23 44 39 c24 21 46
39 48 39 2 0 24 -15 48 -34z m-115 -86 l35 -29 -75 -1 -74 0 34 30 c19 16 37
29 40 29 3 0 21 -13 40 -29z m222 4 c21 -15 38 -28 38 -30 0 -2 -35 -4 -77 -4
l-78 1 35 29 c19 17 36 30 39 30 3 0 22 -12 43 -26z"/>
</g>
</svg>
