<?xml version="1.0" standalone="no"?>
<!DOCTYPE svg PUBLIC "-//W3C//DTD SVG 20010904//EN"
 "http://www.w3.org/TR/2001/REC-SVG-20010904/DTD/svg10.dtd">
<svg version="1.0" xmlns="http://www.w3.org/2000/svg"
 width="119.000000pt" height="139.000000pt" viewBox="0 0 119.000000 139.000000"
 preserveAspectRatio="xMidYMid meet">
<metadata>
Created by potrace 1.16, written by Peter Selinger 2001-2019
</metadata>
<g transform="translate(0.000000,139.000000) scale(0.100000,-0.100000)"
fill="#000000" stroke="none">
<path d="M724 1078 c-4 -6 -6 -94 -5 -195 l2 -183 -75 0 -76 0 0 190 c0 187 0
190 -21 190 -21 0 -22 -1 -17 -190 l5 -190 -104 0 -103 0 0 185 c0 158 -2 185
-15 185 -13 0 -15 -32 -15 -227 0 -283 10 -543 22 -543 4 0 8 81 8 180 l0 180
59 0 c32 0 79 3 105 6 l46 7 0 -116 c0 -66 4 -118 10 -122 6 -4 10 36 10 113
l0 119 53 7 c105 12 107 11 107 -36 0 -24 3 -81 7 -128 l8 -85 6 55 c4 30 7
169 8 308 1 138 4 252 7 252 3 0 35 -16 70 -36 35 -20 64 -31 64 -26 0 9 -141
112 -154 112 -2 0 -8 -5 -12 -12z"/>
</g>
</svg>
