<?xml version="1.0" standalone="no"?>
<!DOCTYPE svg PUBLIC "-//W3C//DTD SVG 20010904//EN"
 "http://www.w3.org/TR/2001/REC-SVG-20010904/DTD/svg10.dtd">
<svg version="1.0" xmlns="http://www.w3.org/2000/svg"
 width="177.000000pt" height="96.000000pt" viewBox="0 0 177.000000 96.000000"
 preserveAspectRatio="xMidYMid meet">
<metadata>
Created by potrace 1.16, written by Peter Selinger 2001-2019
</metadata>
<g transform="translate(0.000000,96.000000) scale(0.100000,-0.100000)"
fill="#000000" stroke="none">
<path d="M410 650 c0 -6 16 -52 35 -101 19 -50 35 -94 35 -99 0 -4 -17 -5 -37
-3 -61 7 -94 48 -114 143 -8 37 -14 49 -22 41 -16 -16 9 -110 44 -166 17 -27
39 -71 50 -99 11 -28 25 -55 31 -61 10 -10 10 0 -7 81 -3 18 4 8 20 -25 28
-60 33 -67 40 -59 3 2 -2 27 -10 54 -8 27 -15 50 -15 52 0 1 9 2 21 2 13 0 23
-10 30 -30 6 -16 15 -30 20 -30 5 0 4 12 -1 26 -6 14 -10 28 -10 30 0 13 278
-4 330 -20 83 -26 228 -31 340 -12 142 23 280 56 280 68 0 5 -8 7 -17 4 -28
-9 -275 -46 -307 -46 l-28 0 3 79 c2 44 7 83 11 87 4 4 22 3 40 -2 32 -9 33
-11 36 -69 4 -82 18 -90 27 -16 4 34 11 61 16 61 8 0 134 -47 207 -77 6 -3 12
-1 12 5 0 13 -202 98 -294 124 -101 29 -148 22 -274 -43 -99 -51 -135 -79
-120 -95 4 -3 19 3 35 13 15 11 38 25 51 32 21 11 22 10 22 -39 0 -43 -3 -50
-19 -50 -11 0 -21 5 -23 11 -2 7 -60 13 -163 16 -88 2 -165 6 -170 7 -6 2 -26
51 -45 110 -20 63 -39 106 -47 106 -7 0 -13 -5 -13 -10z m688 -162 l-3 -93
-46 -3 -46 -3 4 83 c3 46 6 89 8 96 3 7 21 12 45 12 l41 0 -3 -92z m-110 -8
l3 -80 -42 0 -42 0 7 38 c3 20 6 49 6 64 0 19 8 32 28 42 15 8 29 15 32 16 3
0 6 -36 8 -80z"/>
</g>
</svg>
