<?xml version="1.0" standalone="no"?>
<!DOCTYPE svg PUBLIC "-//W3C//DTD SVG 20010904//EN"
 "http://www.w3.org/TR/2001/REC-SVG-20010904/DTD/svg10.dtd">
<svg version="1.0" xmlns="http://www.w3.org/2000/svg"
 width="148.000000pt" height="144.000000pt" viewBox="0 0 148.000000 144.000000"
 preserveAspectRatio="xMidYMid meet">
<metadata>
Created by potrace 1.16, written by Peter Selinger 2001-2019
</metadata>
<g transform="translate(0.000000,144.000000) scale(0.100000,-0.100000)"
fill="#000000" stroke="none">
<path d="M1080 1126 c-76 -41 -525 -210 -640 -241 -74 -20 -134 -37 -135 -38
0 -1 2 -58 5 -125 3 -68 2 -126 -2 -129 -20 -11 -2 -21 70 -37 129 -31 226
-64 475 -163 131 -52 241 -92 244 -89 3 3 -9 12 -28 20 -19 8 -77 33 -129 57
-52 23 -158 68 -235 100 l-140 58 3 83 c2 45 4 83 5 84 1 1 99 7 217 13 324
17 390 23 390 33 0 6 -26 7 -62 4 -35 -3 -172 -8 -305 -12 l-243 -6 0 74 0 74
265 113 c257 111 318 140 285 140 -8 0 -26 -6 -40 -13z m-540 -316 l0 -70 -40
0 -40 0 0 58 0 58 38 11 c20 6 38 11 40 12 1 0 2 -30 2 -69z m-119 18 c5 -87
5 -86 -23 -92 -45 -9 -58 2 -58 45 0 32 5 41 23 49 32 13 57 12 58 -2z m121
-195 c2 -43 2 -80 1 -82 -1 -2 -23 2 -48 9 l-45 13 0 51 c0 68 12 83 67 85 20
1 22 -4 25 -76z m-112 6 l0 -61 -32 7 c-58 13 -64 19 -60 69 l4 46 44 0 44 0
0 -61z"/>
</g>
</svg>
