<?xml version="1.0" standalone="no"?>
<!DOCTYPE svg PUBLIC "-//W3C//DTD SVG 20010904//EN"
 "http://www.w3.org/TR/2001/REC-SVG-20010904/DTD/svg10.dtd">
<svg version="1.0" xmlns="http://www.w3.org/2000/svg"
 width="260.000000pt" height="192.000000pt" viewBox="0 0 260.000000 192.000000"
 preserveAspectRatio="xMidYMid meet">
<metadata>
Created by potrace 1.16, written by Peter Selinger 2001-2019
</metadata>
<g transform="translate(0.000000,192.000000) scale(0.100000,-0.100000)"
fill="#000000" stroke="none">
<path d="M328 1607 c-14 -11 -17 -46 -22 -247 -6 -262 5 -273 23 -24 7 88 14
178 17 202 l5 42 52 -43 c29 -24 87 -70 130 -102 42 -31 77 -63 77 -69 0 -6
-51 -50 -113 -98 -175 -136 -174 -135 -160 -149 9 -9 36 8 125 83 62 53 124
108 137 122 23 24 30 26 118 26 l93 0 0 -277 c0 -153 -3 -295 -6 -315 l-7 -38
-102 0 c-92 0 -104 2 -121 21 -24 27 -216 189 -223 189 -3 0 -13 -6 -22 -13
-15 -11 -18 -46 -23 -242 -7 -261 5 -276 23 -30 7 88 14 179 17 203 l5 43 47
-39 c26 -21 84 -66 130 -101 45 -34 82 -68 82 -75 0 -8 -12 -22 -27 -32 -53
-34 -253 -196 -253 -204 0 -29 42 -3 160 100 l135 117 88 5 87 6 0 -184 c0
-101 4 -184 9 -184 4 0 11 60 15 132 3 73 9 157 12 186 l6 52 66 0 65 0 -5
-145 c-6 -153 5 -207 16 -80 3 41 9 109 12 150 l7 75 68 0 69 0 0 -130 c0 -72
4 -130 9 -130 8 0 21 126 21 213 l0 47 70 0 70 0 0 -101 c0 -64 4 -98 10 -94
6 3 10 28 10 54 0 27 3 69 6 95 l7 46 82 0 82 0 10 -62 9 -63 8 61 8 61 181 6
c99 4 253 7 341 8 89 0 179 4 201 8 54 10 -125 20 -462 24 -139 2 -255 5 -257
8 -2 2 -1 146 2 320 l5 316 246 6 c135 4 303 7 374 7 70 0 127 4 127 8 0 14
-283 22 -1015 28 l-690 6 -70 62 c-92 81 -170 146 -176 146 -2 0 -11 -6 -21
-13z m812 -567 l0 -320 -65 0 -66 0 6 193 c3 105 8 247 11 314 l6 122 51 4
c29 2 53 4 55 5 1 1 2 -142 2 -318z m170 0 l0 -320 -65 0 -64 0 5 308 c3 169
7 313 10 320 2 8 23 12 59 12 l55 0 0 -320z m190 92 c0 -126 3 -270 6 -320 l7
-92 -88 0 -88 0 7 46 c3 25 9 169 13 320 l6 274 69 0 68 0 0 -228z m-528 113
c0 -55 0 -196 -1 -312 l-1 -213 -66 0 -67 0 6 53 c3 28 9 170 13 315 l7 263
54 -3 54 -3 1 -100z"/>
</g>
</svg>
