<?xml version="1.0" standalone="no"?>
<!DOCTYPE svg PUBLIC "-//W3C//DTD SVG 20010904//EN"
 "http://www.w3.org/TR/2001/REC-SVG-20010904/DTD/svg10.dtd">
<svg version="1.0" xmlns="http://www.w3.org/2000/svg"
 width="156.000000pt" height="106.000000pt" viewBox="0 0 156.000000 106.000000"
 preserveAspectRatio="xMidYMid meet">
<metadata>
Created by potrace 1.16, written by Peter Selinger 2001-2019
</metadata>
<g transform="translate(0.000000,106.000000) scale(0.100000,-0.100000)"
fill="#000000" stroke="none">
<path d="M1230 540 c0 -121 4 -220 8 -220 11 0 22 171 22 327 0 94 -3 113 -15
113 -13 0 -15 -31 -15 -220z"/>
<path d="M304 711 c-2 -2 -4 -10 -4 -18 0 -10 25 -13 113 -12 127 1 230 12
207 22 -17 7 -309 15 -316 8z"/>
<path d="M920 561 c0 -88 4 -162 9 -165 11 -7 21 94 21 220 0 86 -3 104 -15
104 -13 0 -15 -24 -15 -159z"/>
<path d="M605 508 c4 -90 9 -165 11 -167 10 -10 13 14 20 167 l7 162 -23 0
-23 0 8 -162z"/>
<path d="M980 620 c0 -6 33 -10 80 -10 47 0 80 4 80 10 0 6 -33 10 -80 10 -47
0 -80 -4 -80 -10z"/>
<path d="M690 510 c0 -6 33 -10 80 -10 47 0 80 4 80 10 0 6 -33 10 -80 10 -47
0 -80 -4 -80 -10z"/>
<path d="M980 510 c0 -6 33 -10 80 -10 47 0 80 4 80 10 0 6 -33 10 -80 10 -47
0 -80 -4 -80 -10z"/>
<path d="M690 415 c0 -12 13 -15 58 -14 31 1 68 4 82 8 24 7 24 7 -9 14 -62
13 -131 9 -131 -8z"/>
<path d="M987 424 c-22 -22 72 -32 133 -15 24 7 24 7 -9 14 -42 9 -116 9 -124
1z"/>
<path d="M668 325 c-5 -5 -8 -12 -8 -17 0 -4 126 -8 280 -8 180 0 280 4 280
10 0 6 -36 10 -87 10 -49 0 -171 3 -273 6 -102 4 -188 3 -192 -1z"/>
<path d="M300 310 c0 -6 62 -10 168 -9 116 1 155 4 127 10 -58 12 -295 11
-295 -1z"/>
</g>
</svg>
