<?xml version="1.0" standalone="no"?>
<!DOCTYPE svg PUBLIC "-//W3C//DTD SVG 20010904//EN"
 "http://www.w3.org/TR/2001/REC-SVG-20010904/DTD/svg10.dtd">
<svg version="1.0" xmlns="http://www.w3.org/2000/svg"
 width="232.000000pt" height="112.000000pt" viewBox="0 0 232.000000 112.000000"
 preserveAspectRatio="xMidYMid meet">
<metadata>
Created by potrace 1.16, written by Peter Selinger 2001-2019
</metadata>
<g transform="translate(0.000000,112.000000) scale(0.100000,-0.100000)"
fill="#000000" stroke="none">
<path d="M300 801 c0 -19 6 -21 58 -22 135 -1 412 -15 417 -21 3 -3 -11 -41
-31 -84 -59 -128 -95 -217 -89 -222 7 -8 9 -5 59 88 25 47 46 78 46 69 0 -9 8
-20 18 -24 409 -161 768 -283 784 -267 4 4 -28 39 -72 78 l-80 69 217 6 c120
4 238 7 262 8 30 1 42 4 35 11 -5 5 -105 11 -234 12 l-225 3 75 39 c41 21 82
45 91 52 8 8 22 15 30 15 8 1 -6 5 -31 9 -25 4 -133 9 -240 9 -107 1 -287 6
-400 10 -118 5 -206 5 -208 0 -2 -5 -8 -9 -13 -9 -5 0 6 30 24 66 l32 66 185
-6 c700 -25 1009 -31 998 -20 -7 7 -885 53 -1318 68 -74 3 -192 8 -262 12
-126 6 -128 6 -128 -15z m1305 -201 c-2 -3 -48 -25 -102 -50 -124 -56 -139
-77 -87 -122 19 -17 47 -40 62 -51 50 -38 47 -38 -33 -9 -139 52 -574 220
-589 229 -8 4 158 8 369 8 211 0 382 -2 380 -5z"/>
</g>
</svg>
