<?xml version="1.0" standalone="no"?>
<!DOCTYPE svg PUBLIC "-//W3C//DTD SVG 20010904//EN"
 "http://www.w3.org/TR/2001/REC-SVG-20010904/DTD/svg10.dtd">
<svg version="1.0" xmlns="http://www.w3.org/2000/svg"
 width="148.000000pt" height="105.000000pt" viewBox="0 0 148.000000 105.000000"
 preserveAspectRatio="xMidYMid meet">
<metadata>
Created by potrace 1.16, written by Peter Selinger 2001-2019
</metadata>
<g transform="translate(0.000000,105.000000) scale(0.100000,-0.100000)"
fill="#000000" stroke="none">
<path d="M300 727 l0 -27 120 0 c108 0 123 -2 143 -21 29 -27 107 -78 184
-119 l61 -34 -94 -57 c-52 -32 -112 -72 -133 -88 -39 -31 -40 -31 -160 -31
l-121 0 0 -27 0 -26 418 7 c229 4 425 7 434 7 10 0 20 4 23 10 4 5 2 9 -3 9
-5 0 -60 38 -122 84 -76 56 -119 82 -131 79 -11 -3 -19 -9 -19 -13 0 -5 51
-41 113 -80 l112 -72 -60 6 c-33 3 -151 7 -262 8 -112 2 -203 6 -203 9 0 3 52
43 115 89 63 45 115 84 115 86 0 1 -47 35 -104 74 -143 97 -145 100 -60 101
38 0 161 4 274 9 113 4 207 7 208 5 2 -2 -11 -11 -30 -21 -55 -28 -218 -136
-218 -144 0 -4 8 -10 19 -13 24 -6 272 175 258 190 -10 9 -116 14 -469 20
l-408 6 0 -26z"/>
</g>
</svg>
