<?xml version="1.0" standalone="no"?>
<!DOCTYPE svg PUBLIC "-//W3C//DTD SVG 20010904//EN"
 "http://www.w3.org/TR/2001/REC-SVG-20010904/DTD/svg10.dtd">
<svg version="1.0" xmlns="http://www.w3.org/2000/svg"
 width="184.000000pt" height="134.000000pt" viewBox="0 0 184.000000 134.000000"
 preserveAspectRatio="xMidYMid meet">
<metadata>
Created by potrace 1.16, written by Peter Selinger 2001-2019
</metadata>
<g transform="translate(0.000000,134.000000) scale(0.100000,-0.100000)"
fill="#000000" stroke="none">
<path d="M1398 1006 c-48 -18 -112 -48 -143 -67 -78 -47 -162 -139 -177 -194
l-12 -43 -64 -6 c-35 -4 -66 -6 -67 -4 -1 2 -35 64 -75 138 -41 74 -75 137
-76 139 -5 6 -165 -132 -258 -221 l-81 -78 -72 0 c-58 0 -73 -3 -73 -15 0 -13
49 -15 385 -15 381 0 385 0 385 -20 0 -25 24 -73 58 -118 31 -40 138 -112 217
-145 74 -31 175 -61 182 -54 2 3 7 163 10 355 7 432 17 408 -139 348z m103
-118 c1 -62 4 -216 8 -341 l6 -228 -25 6 c-14 3 -72 29 -129 57 -120 59 -219
146 -240 211 -7 21 -11 40 -9 42 1 1 82 4 178 6 l175 4 5 -70 c3 -38 8 -65 13
-58 8 13 12 202 3 210 -3 3 -87 -1 -188 -9 -101 -9 -185 -14 -187 -12 -2 2 4
23 13 47 20 54 90 126 159 166 44 25 186 80 210 81 4 0 8 -51 8 -112z m-709
-41 c-35 -39 -49 -39 -70 -3 l-20 34 31 30 31 31 22 -37 c21 -35 21 -38 6 -55z
m-88 -28 c10 -17 14 -34 10 -38 -114 -97 -122 -102 -175 -107 l-54 -6 95 91
c52 49 97 90 100 91 3 0 14 -14 24 -31z m166 -54 l51 -75 -53 0 c-52 1 -54 1
-80 46 -16 25 -28 49 -28 54 0 7 48 48 57 50 1 0 25 -34 53 -75z m-106 -33
c14 -21 26 -41 26 -45 0 -4 -35 -7 -77 -7 l-78 0 50 45 c28 24 51 44 51 45 1
0 13 -17 28 -38z m704 -48 c-3 -17 -14 -19 -103 -18 -153 1 -262 6 -243 11 42
11 334 39 341 32 5 -4 7 -15 5 -25z"/>
</g>
</svg>
