<?xml version="1.0" standalone="no"?>
<!DOCTYPE svg PUBLIC "-//W3C//DTD SVG 20010904//EN"
 "http://www.w3.org/TR/2001/REC-SVG-20010904/DTD/svg10.dtd">
<svg version="1.0" xmlns="http://www.w3.org/2000/svg"
 width="161.000000pt" height="147.000000pt" viewBox="0 0 161.000000 147.000000"
 preserveAspectRatio="xMidYMid meet">
<metadata>
Created by potrace 1.16, written by Peter Selinger 2001-2019
</metadata>
<g transform="translate(0.000000,147.000000) scale(0.100000,-0.100000)"
fill="#000000" stroke="none">
<path d="M1235 1128 c-33 -23 -115 -84 -182 -135 l-122 -94 -316 7 -315 7 0
-23 0 -23 314 6 c191 3 318 1 323 -4 12 -12 358 260 371 293 7 16 -15 6 -73
-34z"/>
<path d="M936 601 c-4 -6 -132 -7 -321 -4 l-315 6 0 -23 0 -23 315 7 315 7
146 -111 c167 -127 223 -164 232 -155 8 7 -9 22 -203 178 -161 130 -162 130
-169 118z"/>
</g>
</svg>
