<?xml version="1.0" standalone="no"?>
<!DOCTYPE svg PUBLIC "-//W3C//DTD SVG 20010904//EN"
 "http://www.w3.org/TR/2001/REC-SVG-20010904/DTD/svg10.dtd">
<svg version="1.0" xmlns="http://www.w3.org/2000/svg"
 width="235.000000pt" height="89.000000pt" viewBox="0 0 235.000000 89.000000"
 preserveAspectRatio="xMidYMid meet">
<metadata>
Created by potrace 1.16, written by Peter Selinger 2001-2019
</metadata>
<g transform="translate(0.000000,89.000000) scale(0.100000,-0.100000)"
fill="#000000" stroke="none">
<path d="M760 582 c0 -5 -25 -13 -54 -16 -39 -5 -72 -19 -115 -46 l-59 -38
-41 38 c-30 29 -54 41 -96 50 -30 6 -65 8 -76 5 -21 -7 -22 -11 -16 -133 3
-69 10 -128 14 -133 4 -4 39 1 77 11 55 14 77 25 103 53 l33 37 60 -39 c41
-27 77 -41 113 -46 28 -4 55 -12 58 -17 10 -15 116 17 161 49 23 15 46 32 52
37 7 5 29 -3 58 -23 25 -17 70 -36 99 -42 30 -6 62 -15 72 -20 31 -17 137 20
185 64 l23 21 57 -31 c32 -18 78 -35 102 -39 25 -4 50 -11 57 -16 23 -18 149
29 187 71 l19 21 31 -27 c44 -37 104 -63 149 -63 48 0 48 16 0 25 -48 9 -102
37 -131 68 l-23 24 83 6 c45 4 84 4 87 2 2 -3 8 -24 12 -48 4 -29 7 -5 8 77
l1 119 -55 -6 c-42 -4 -68 -14 -105 -41 -28 -20 -53 -36 -56 -36 -3 0 -22 13
-42 29 -43 34 -147 68 -165 53 -7 -5 -33 -12 -58 -16 -26 -4 -72 -22 -102 -40
-56 -34 -56 -34 -74 -14 -37 41 -159 86 -190 69 -10 -5 -44 -14 -75 -21 -32
-6 -74 -24 -97 -41 -23 -16 -43 -29 -46 -29 -3 0 -25 16 -50 35 -25 19 -63 39
-83 44 -81 21 -92 23 -92 13z m135 -67 c28 -14 61 -34 75 -45 l25 -20 -217 0
c-120 0 -218 2 -218 5 0 12 100 70 148 85 64 20 107 14 187 -25z m452 -3 c23
-12 47 -31 53 -42 11 -20 8 -20 -197 -20 l-208 0 25 21 c35 28 98 60 145 74
47 14 114 2 182 -33z m348 29 c22 -6 67 -27 99 -46 l59 -36 31 30 c36 33 80
57 116 62 24 4 25 1 28 -48 l3 -53 -307 0 -308 0 35 26 c62 47 156 86 189 78
8 -1 33 -7 55 -13z m-1255 -22 c19 -9 50 -29 69 -43 l35 -26 -102 0 c-84 0
-102 -3 -102 -15 0 -12 16 -15 88 -15 l87 0 -25 -20 c-35 -27 -78 -46 -122
-54 l-38 -7 0 105 0 105 38 -6 c20 -3 53 -14 72 -24z m1380 -109 c-34 -27 -85
-51 -142 -66 -56 -14 -111 -2 -187 43 l-46 27 30 7 c17 3 107 7 200 7 l170 2
-25 -20z m-880 -10 c-33 -26 -124 -60 -164 -62 -44 -2 -125 27 -161 57 l-30
24 190 0 190 1 -25 -20z m455 10 c-10 -16 -85 -52 -138 -66 -41 -11 -56 -10
-99 3 -47 14 -128 57 -128 68 0 3 84 5 186 5 123 0 183 -3 179 -10z"/>
</g>
</svg>
