<?xml version="1.0" standalone="no"?>
<!DOCTYPE svg PUBLIC "-//W3C//DTD SVG 20010904//EN"
 "http://www.w3.org/TR/2001/REC-SVG-20010904/DTD/svg10.dtd">
<svg version="1.0" xmlns="http://www.w3.org/2000/svg"
 width="152.000000pt" height="123.000000pt" viewBox="0 0 152.000000 123.000000"
 preserveAspectRatio="xMidYMid meet">
<metadata>
Created by potrace 1.16, written by Peter Selinger 2001-2019
</metadata>
<g transform="translate(0.000000,123.000000) scale(0.100000,-0.100000)"
fill="#000000" stroke="none">
<path d="M317 912 c-15 -16 -17 -45 -17 -194 0 -96 3 -230 7 -296 6 -120 6
-122 30 -122 13 0 119 58 235 129 l211 129 27 -37 c62 -86 126 -116 224 -109
67 6 116 26 159 66 43 41 32 58 -13 19 -72 -61 -190 -76 -265 -34 -36 20 -97
88 -107 118 -4 12 -161 -62 -280 -132 -27 -16 -51 -29 -53 -29 -2 0 -4 85 -3
190 l1 189 41 -25 c51 -31 273 -144 284 -144 4 0 16 16 27 36 46 86 136 130
232 114 62 -10 88 -23 131 -63 21 -21 32 -26 32 -16 0 22 -59 75 -102 93 -49
21 -160 21 -204 0 -33 -16 -101 -82 -121 -119 -9 -16 -28 -7 -204 100 -107 65
-206 126 -221 137 -32 22 -31 22 -51 0z m79 -68 c24 -14 44 -33 44 -41 0 -13
-3 -13 -25 1 -14 9 -36 23 -50 32 -23 15 -34 34 -19 34 3 0 25 -12 50 -26z m0
-60 c33 -19 44 -32 44 -50 0 -13 -3 -24 -6 -24 -18 0 -94 66 -94 82 0 23 3 23
56 -8z m-2 -80 c38 -21 46 -31 46 -55 l0 -29 -50 32 c-35 23 -50 40 -50 56 0
12 2 22 4 22 2 0 24 -12 50 -26z m46 -136 c0 -16 -3 -28 -6 -28 -3 0 -25 14
-50 30 -32 23 -44 38 -44 55 l0 25 50 -28 c41 -22 50 -32 50 -54z m-46 -34
c45 -25 62 -53 54 -88 -2 -12 -14 -8 -55 20 -44 29 -53 40 -53 65 0 16 2 29 4
29 2 0 24 -12 50 -26z m5 -103 l52 -28 -60 -36 -61 -36 0 27 c0 27 11 102 15
102 1 0 25 -13 54 -29z"/>
<path d="M950 751 c0 -5 14 -14 31 -21 l30 -13 -30 -19 c-23 -15 -34 -17 -50
-9 -11 6 -28 11 -38 11 -16 -1 -16 -3 4 -19 l22 -19 -22 -7 c-12 -4 -31 -8
-42 -9 -31 -2 -27 -41 5 -42 14 0 34 -5 44 -11 19 -10 18 -11 -2 -17 -12 -4
-22 -12 -22 -17 0 -12 27 -12 51 1 14 8 27 6 51 -6 l33 -17 -33 -15 c-17 -9
-32 -19 -32 -24 0 -13 30 -9 61 9 27 16 31 16 64 0 19 -9 35 -13 35 -8 0 4
-12 13 -27 20 l-26 12 32 20 c26 16 36 17 47 8 8 -7 18 -9 21 -5 4 4 1 11 -6
16 -10 6 -5 13 20 26 19 10 37 17 42 16 4 -1 7 4 7 11 0 6 -19 20 -43 31 -23
10 -36 20 -29 23 22 9 12 23 -12 17 -13 -3 -37 1 -52 9 l-29 15 28 13 c15 7
27 16 27 21 0 6 -3 8 -7 6 -5 -2 -21 -10 -36 -18 -25 -12 -31 -12 -57 3 -30
18 -60 22 -60 8z m119 -65 l25 -14 -34 -17 c-27 -14 -37 -15 -56 -4 -30 15
-30 23 -1 37 29 14 37 14 66 -2z m81 -41 c17 -9 30 -18 30 -20 0 -2 -14 -12
-31 -21 -29 -15 -34 -15 -65 2 l-33 18 27 18 c33 22 36 22 72 3z m-172 -9 l24
-13 -30 -12 c-24 -10 -35 -10 -53 -1 -22 12 -22 13 -4 26 23 17 33 17 63 0z
m79 -38 c40 -15 41 -21 6 -37 -20 -9 -33 -9 -55 0 -32 13 -35 24 -10 38 22 13
20 13 59 -1z"/>
</g>
</svg>
