<?xml version="1.0" standalone="no"?>
<!DOCTYPE svg PUBLIC "-//W3C//DTD SVG 20010904//EN"
 "http://www.w3.org/TR/2001/REC-SVG-20010904/DTD/svg10.dtd">
<svg version="1.0" xmlns="http://www.w3.org/2000/svg"
 width="160.000000pt" height="131.000000pt" viewBox="0 0 160.000000 131.000000"
 preserveAspectRatio="xMidYMid meet">
<metadata>
Created by potrace 1.16, written by Peter Selinger 2001-2019
</metadata>
<g transform="translate(0.000000,131.000000) scale(0.100000,-0.100000)"
fill="#000000" stroke="none">
<path d="M485 960 c-14 -27 -25 -52 -25 -54 0 -3 41 -24 90 -47 71 -33 89 -46
85 -58 -4 -9 -9 -31 -12 -48 -3 -18 -6 -33 -7 -33 0 0 -66 23 -145 50 -111 39
-147 48 -157 39 -17 -14 -20 -200 -3 -247 l10 -31 146 50 c80 27 147 48 148
47 1 -2 16 -30 33 -64 l30 -61 -109 -48 c-80 -36 -109 -53 -109 -66 0 -30 33
-89 49 -89 9 0 65 24 124 54 l108 54 57 -26 c47 -22 71 -26 137 -26 44 0 91 2
105 5 39 7 190 105 190 122 0 6 16 49 36 96 33 76 36 90 32 155 -5 79 -38 166
-62 166 -20 0 -20 2 6 -56 31 -71 36 -106 19 -126 -26 -31 -15 -46 -149 190
-13 23 -20 42 -14 42 5 0 35 -9 67 -20 80 -28 82 -16 3 19 -80 37 -172 61
-230 61 -74 0 -254 -62 -241 -82 7 -13 8 -13 -94 40 -46 23 -85 42 -88 42 -2
0 -16 -22 -30 -50z m562 -2 c13 -10 83 -134 83 -146 0 -4 -14 -31 -31 -61 -35
-60 -31 -62 -84 37 l-29 54 28 49 c15 27 26 55 23 62 -2 7 -13 -6 -25 -28 -37
-70 -36 -70 -67 -14 -17 33 -24 54 -17 58 15 9 105 1 119 -11z m-444 -23 c37
-16 67 -33 67 -37 0 -4 -4 -18 -10 -33 l-10 -25 -80 40 -80 40 16 26 c9 13 20
23 24 22 4 -2 37 -16 73 -33z m262 8 c-10 -14 -26 -41 -37 -60 -11 -18 -23
-33 -26 -33 -4 0 -17 18 -28 40 l-22 39 57 20 c74 26 76 25 56 -6z m62 -53
l32 -59 -38 -66 -39 -66 -31 54 c-17 30 -31 58 -31 63 -1 12 64 134 70 134 3
0 19 -27 37 -60z m-157 -51 c11 -25 8 -34 -21 -85 l-32 -57 -23 44 c-29 55
-29 59 -1 59 20 1 20 2 6 13 -15 11 -15 17 -3 45 12 29 15 31 38 21 13 -7 30
-24 36 -40z m280 -166 c0 -9 -75 -133 -80 -133 -3 0 -21 31 -39 68 l-33 69 22
44 c51 99 48 98 91 23 22 -36 39 -68 39 -71z m134 62 c20 -30 36 -58 36 -62 0
-5 -17 -34 -38 -65 l-38 -58 -34 63 -33 62 33 58 c17 31 33 57 35 57 1 0 19
-25 39 -55z m-616 -25 c34 -9 42 -15 42 -33 0 -21 -12 -27 -127 -59 -71 -20
-137 -40 -147 -44 -17 -6 -18 -4 -13 17 4 13 7 61 7 105 l0 82 98 -28 c53 -16
116 -34 140 -40z m269 16 l31 -54 -28 -46 c-40 -70 -42 -70 -76 -8 l-32 57 30
53 c17 28 33 52 37 52 4 0 21 -24 38 -54z m-154 -87 c-15 -25 -19 -27 -25 -12
-9 24 -10 98 -1 107 4 4 15 -9 25 -29 18 -34 18 -37 1 -66z m591 36 c-4 -17
-10 -23 -16 -17 -6 6 -6 18 2 32 15 28 23 20 14 -15z m-169 -91 l28 -51 -37
-67 c-20 -36 -41 -66 -46 -66 -5 0 -22 24 -36 52 l-27 53 39 72 c21 40 41 69
45 65 3 -4 19 -30 34 -58z m149 50 c3 -8 -7 -48 -22 -87 -26 -64 -33 -73 -81
-100 l-52 -29 23 38 c12 22 26 41 30 42 4 2 8 9 8 14 0 15 72 138 81 138 4 0
10 -7 13 -16z m-494 -61 c23 -42 23 -43 4 -78 -10 -19 -21 -35 -24 -35 -3 0
-19 25 -35 55 l-30 54 19 36 c22 41 28 38 66 -32z m162 5 l37 -62 -32 -58
c-17 -32 -34 -58 -37 -58 -3 0 -21 29 -40 64 l-34 63 30 57 c16 31 31 56 34
56 3 0 22 -28 42 -62z m-103 -100 c8 -13 23 -38 34 -56 l20 -33 -39 16 c-21 9
-45 19 -51 22 -16 6 -16 15 -1 48 14 31 19 31 37 3z m-96 -48 c-4 -4 -53 -29
-108 -54 -91 -42 -101 -44 -112 -29 -7 9 -13 22 -13 27 0 6 44 34 98 62 l97
50 23 -24 c13 -14 20 -28 15 -32z m281 8 c19 -31 22 -44 13 -50 -14 -9 -97
-11 -97 -2 0 7 51 94 55 94 2 0 15 -19 29 -42z"/>
</g>
</svg>
