<?xml version="1.0" standalone="no"?>
<!DOCTYPE svg PUBLIC "-//W3C//DTD SVG 20010904//EN"
 "http://www.w3.org/TR/2001/REC-SVG-20010904/DTD/svg10.dtd">
<svg version="1.0" xmlns="http://www.w3.org/2000/svg"
 width="135.000000pt" height="161.000000pt" viewBox="0 0 135.000000 161.000000"
 preserveAspectRatio="xMidYMid meet">
<metadata>
Created by potrace 1.16, written by Peter Selinger 2001-2019
</metadata>
<g transform="translate(0.000000,161.000000) scale(0.100000,-0.100000)"
fill="#000000" stroke="none">
<path d="M731 1301 c-11 -7 -13 -43 -10 -184 l4 -175 -212 6 -213 5 0 -142 0
-143 214 4 213 3 7 -125 c3 -69 6 -154 6 -189 l0 -63 149 3 149 4 6 35 c3 19
6 242 6 496 l0 461 -82 6 c-115 9 -220 8 -237 -2z m279 -82 l0 -62 -77 7 c-42
3 -96 6 -120 6 l-44 0 3 48 3 47 75 3 c41 1 84 4 95 6 65 11 65 11 65 -55z m0
-170 l0 -92 -61 7 c-34 3 -88 6 -120 6 l-59 0 0 79 c0 93 -9 88 143 90 l97 1
0 -91z m0 -174 l0 -75 -97 0 c-144 0 -143 0 -143 76 l0 63 118 4 c64 1 118 4
120 5 1 1 2 -32 2 -73z m-420 -65 l0 -110 -46 0 -47 0 7 53 c3 28 6 75 6 104
0 51 1 52 33 56 17 2 35 5 40 5 4 1 7 -47 7 -108z m140 -4 l0 -115 -57 6 c-32
3 -59 7 -61 8 -1 1 0 50 4 109 l7 106 53 0 54 0 0 -114z m-340 27 c0 -43 3
-88 6 -100 6 -21 3 -23 -36 -23 l-42 0 6 98 c3 53 5 98 6 100 0 1 14 2 30 2
l30 0 0 -77z m90 -23 l0 -100 -36 0 c-33 0 -36 2 -30 23 3 12 6 57 6 100 l0
77 30 0 30 0 0 -100z m534 -52 c3 -13 7 -115 9 -227 l3 -204 -80 7 c-45 3
-105 6 -133 6 l-53 0 0 55 0 55 88 0 c105 0 169 9 150 21 -7 5 -64 9 -126 9
l-113 0 3 58 3 57 123 3 c67 1 122 6 122 11 0 9 -106 21 -190 21 l-55 0 3 69
4 70 41 4 c23 2 77 4 119 5 73 2 78 1 82 -20z"/>
</g>
</svg>
