<?xml version="1.0" standalone="no"?>
<!DOCTYPE svg PUBLIC "-//W3C//DTD SVG 20010904//EN"
 "http://www.w3.org/TR/2001/REC-SVG-20010904/DTD/svg10.dtd">
<svg version="1.0" xmlns="http://www.w3.org/2000/svg"
 width="143.000000pt" height="122.000000pt" viewBox="0 0 143.000000 122.000000"
 preserveAspectRatio="xMidYMid meet">
<metadata>
Created by potrace 1.16, written by Peter Selinger 2001-2019
</metadata>
<g transform="translate(0.000000,122.000000) scale(0.100000,-0.100000)"
fill="#000000" stroke="none">
<path d="M446 913 c-27 -3 -40 -10 -43 -24 -3 -10 -13 -19 -23 -19 -31 0 -80
-157 -80 -255 0 -69 11 -116 48 -200 31 -70 32 -71 88 -80 24 -3 46 -11 50
-16 3 -6 12 -8 19 -5 7 2 40 1 72 -3 32 -4 87 -5 123 -1 36 4 67 3 68 -2 6
-13 22 -9 22 6 0 9 18 17 48 22 l47 9 19 76 20 76 94 6 c52 4 97 9 100 12 12
12 -12 17 -105 26 -54 4 -124 11 -155 15 l-58 7 0 63 0 64 64 0 c36 0 68 -5
71 -11 7 -10 117 -5 175 8 25 5 25 5 3 14 -12 4 -58 9 -102 10 l-81 2 0 52 c0
69 -18 88 -116 121 -67 23 -98 28 -204 30 -69 1 -142 0 -164 -3z m154 -113 l0
-80 -40 0 -40 0 0 80 0 80 40 0 40 0 0 -80z m138 74 c20 -6 22 -12 22 -85 l0
-79 -32 0 c-75 0 -78 4 -78 91 l0 79 33 0 c17 0 42 -3 55 -6z m-258 -79 l0
-75 -60 0 c-71 0 -73 6 -36 86 25 53 35 62 74 63 21 1 22 -3 22 -74z m401 49
c4 -2 10 -21 13 -41 4 -21 9 -50 12 -65 6 -28 5 -28 -50 -28 l-56 0 0 76 0 76
37 -7 c21 -4 41 -9 44 -11z m-401 -224 l0 -61 -65 7 -65 7 0 -27 c0 -25 2 -26
64 -26 l64 0 7 -71 c4 -38 5 -73 1 -76 -3 -3 -29 1 -58 9 -48 13 -54 18 -67
54 -7 21 -16 83 -18 136 l-6 96 29 5 c16 2 48 5 72 6 l42 1 0 -60z m130 0 l0
-60 -45 0 -45 0 0 60 0 60 45 0 45 0 0 -60z m150 0 l0 -60 -54 0 c-30 0 -57 3
-59 8 -2 4 -2 31 1 60 l4 52 54 0 54 0 0 -60z m150 -96 c0 -8 -6 -22 -14 -29
-8 -8 -17 -41 -21 -74 -7 -61 -16 -70 -67 -71 -20 0 -23 33 -12 127 7 57 0 52
97 61 9 1 17 -5 17 -14z m-146 -31 c3 -21 6 -61 6 -89 0 -59 -6 -64 -81 -64
l-49 0 0 95 0 95 59 0 58 0 7 -37z m-154 -12 c0 -21 3 -59 6 -85 6 -44 6 -46
-18 -46 -14 0 -40 3 -57 6 l-31 7 0 72 c0 39 3 75 7 78 3 4 26 7 50 7 l43 0 0
-39z"/>
</g>
</svg>
