<?xml version="1.0" standalone="no"?>
<!DOCTYPE svg PUBLIC "-//W3C//DTD SVG 20010904//EN"
 "http://www.w3.org/TR/2001/REC-SVG-20010904/DTD/svg10.dtd">
<svg version="1.0" xmlns="http://www.w3.org/2000/svg"
 width="205.000000pt" height="146.000000pt" viewBox="0 0 205.000000 146.000000"
 preserveAspectRatio="xMidYMid meet">
<metadata>
Created by potrace 1.16, written by Peter Selinger 2001-2019
</metadata>
<g transform="translate(0.000000,146.000000) scale(0.100000,-0.100000)"
fill="#000000" stroke="none">
<path d="M1120 1149 c-10 -6 -159 -7 -405 -3 -390 6 -390 6 -403 -15 -11 -18
-8 -30 19 -84 104 -206 155 -267 265 -319 35 -16 64 -35 64 -41 0 -7 82 -8
270 -4 l270 6 34 -42 c45 -56 226 -326 226 -339 0 -12 257 0 280 13 11 6 7 9
-15 9 -28 0 -37 11 -120 148 -49 81 -121 194 -159 252 -68 104 -293 417 -306
425 -3 2 -12 -1 -20 -6z m128 -207 c120 -161 421 -590 422 -602 0 -3 -45 -4
-99 -2 l-100 3 -42 77 c-46 85 -126 208 -169 260 l-28 34 -233 5 c-129 3 -236
7 -238 9 -2 1 0 89 4 194 l7 190 84 0 84 0 0 -92 c0 -134 12 -288 22 -288 4 0
8 51 8 113 0 61 3 149 7 195 l6 82 66 0 66 -1 133 -177z m-518 86 c0 -46 3
-134 7 -195 l6 -113 -42 0 c-23 0 -55 7 -71 15 l-30 16 0 128 c0 70 3 149 6
174 l7 46 51 4 c28 2 54 4 59 5 4 1 7 -35 7 -80z m-158 -90 c3 -90 4 -165 2
-167 -2 -2 -27 21 -56 50 -36 37 -71 89 -111 167 l-58 112 109 0 109 0 5 -162z"/>
</g>
</svg>
