<?xml version="1.0" standalone="no"?>
<!DOCTYPE svg PUBLIC "-//W3C//DTD SVG 20010904//EN"
 "http://www.w3.org/TR/2001/REC-SVG-20010904/DTD/svg10.dtd">
<svg version="1.0" xmlns="http://www.w3.org/2000/svg"
 width="230.000000pt" height="313.000000pt" viewBox="0 0 230.000000 313.000000"
 preserveAspectRatio="xMidYMid meet">
<metadata>
Created by potrace 1.16, written by Peter Selinger 2001-2019
</metadata>
<g transform="translate(0.000000,313.000000) scale(0.100000,-0.100000)"
fill="#000000" stroke="none">
<path d="M351 2816 c-10 -12 1 -21 61 -52 58 -30 98 -64 196 -162 67 -68 122
-129 122 -134 0 -16 -118 1 -173 24 -64 28 -153 126 -209 231 -40 77 -43 80
-46 50 -6 -61 82 -208 163 -274 83 -66 127 -74 490 -85 132 -3 241 -7 242 -8
1 -1 -29 -28 -67 -61 -71 -62 -79 -75 -57 -93 10 -9 33 8 97 73 l85 85 165 0
165 -1 -79 -72 c-71 -66 -77 -74 -62 -86 15 -13 26 -5 104 72 l87 87 185 1
185 2 -149 8 c-160 10 -189 19 -160 50 21 23 11 37 -11 19 -14 -12 -30 0 -120
90 -90 90 -106 102 -120 90 -8 -7 -14 -16 -13 -20 3 -9 113 -108 172 -157 35
-28 38 -34 25 -49 -12 -15 -31 -16 -162 -11 -82 2 -153 9 -158 14 -6 6 -2 20
11 36 22 28 12 39 -10 12 -7 -8 -15 -15 -19 -15 -4 0 -51 43 -106 95 -54 53
-104 94 -110 92 -29 -10 -8 -41 84 -122 55 -48 98 -92 94 -98 -6 -9 -259 -4
-420 9 l-73 6 -45 64 c-95 133 -182 217 -286 277 -52 31 -62 32 -78 13z"/>
<path d="M922 2142 c-2 -7 -2 -15 1 -18 9 -9 127 7 127 16 0 15 -122 17 -128
2z"/>
<path d="M1170 2135 c0 -12 17 -15 98 -15 102 0 149 12 92 24 -18 3 -68 6
-111 6 -64 0 -79 -3 -79 -15z"/>
<path d="M920 2071 c0 -21 3 -22 63 -15 94 10 94 19 -1 30 -59 6 -62 6 -62
-15z"/>
<path d="M1170 2065 c0 -12 15 -15 79 -15 43 0 93 3 111 6 57 12 10 24 -92 24
-81 0 -98 -3 -98 -15z"/>
<path d="M922 2005 c3 -16 11 -18 63 -16 94 4 92 17 -4 28 -58 6 -63 5 -59
-12z"/>
<path d="M1170 1995 c0 -12 14 -15 64 -15 81 0 156 10 156 21 0 5 -49 9 -110
9 -91 0 -110 -3 -110 -15z"/>
<path d="M920 1935 c0 -16 29 -19 93 -9 59 10 43 24 -28 24 -51 0 -65 -3 -65
-15z"/>
<path d="M1170 1935 c0 -12 18 -15 104 -15 58 0 107 4 110 9 7 11 -67 21 -150
21 -50 0 -64 -3 -64 -15z"/>
<path d="M980 1015 c0 -12 15 -15 79 -15 43 0 93 3 112 7 55 11 7 21 -98 22
-76 1 -93 -2 -93 -14z"/>
<path d="M1240 1015 c0 -13 21 -15 128 -15 70 0 152 3 182 7 49 6 52 8 25 14
-16 4 -99 7 -182 8 -130 1 -153 -1 -153 -14z"/>
<path d="M982 948 c3 -7 15 -15 29 -16 40 -6 189 9 183 19 -3 5 -53 9 -110 9
-80 0 -105 -3 -102 -12z"/>
<path d="M1240 945 c0 -12 16 -15 83 -15 124 0 277 12 277 22 0 4 -81 8 -180
8 -153 0 -180 -2 -180 -15z"/>
<path d="M357 922 c-15 -16 -11 -20 51 -52 67 -34 226 -177 295 -264 l31 -39
-70 5 c-132 9 -234 94 -321 266 l-38 76 -3 -37 c-7 -84 127 -267 231 -315 56
-26 212 -41 430 -42 75 0 137 -3 136 -7 0 -5 -21 -25 -47 -47 -26 -21 -69 -59
-95 -84 -45 -41 -47 -46 -33 -60 15 -15 25 -8 116 83 98 98 99 99 120 80 26
-24 39 -11 15 15 -18 20 -18 20 6 16 13 -3 46 -5 74 -5 l50 -1 -55 -47 c-132
-114 -146 -131 -130 -147 14 -14 25 -6 115 84 66 66 105 98 115 94 8 -3 22 -9
30 -12 13 -5 13 -3 1 11 -12 16 -9 17 45 17 49 0 56 -2 44 -13 -8 -7 -52 -46
-97 -86 -46 -40 -83 -76 -83 -80 0 -3 5 -13 10 -21 8 -12 30 5 113 89 93 92
107 102 125 92 29 -15 37 -14 22 4 -11 13 14 15 214 15 132 0 226 4 226 9 0 6
-92 11 -215 13 -174 2 -217 6 -225 17 -7 12 -11 12 -23 3 -12 -11 -32 4 -115
88 -55 55 -104 100 -110 100 -5 0 -15 -6 -21 -13 -8 -11 9 -32 84 -98 52 -46
95 -85 95 -86 0 -2 -20 -3 -45 -3 -35 0 -43 3 -39 15 8 19 -5 19 -26 0 -16
-14 -26 -7 -118 86 -87 88 -103 101 -116 90 -9 -8 -16 -17 -16 -21 0 -4 40
-42 90 -85 49 -43 88 -81 85 -83 -8 -8 -105 10 -99 19 3 5 1 9 -5 9 -5 0 -13
-4 -16 -10 -15 -24 -45 -4 -136 86 -82 82 -97 93 -108 80 -17 -20 -14 -24 81
-108 l82 -71 -94 6 c-51 4 -123 7 -159 7 l-66 0 -40 57 c-96 139 -212 251
-316 304 -35 17 -37 17 -52 1z"/>
<path d="M985 890 c-15 -25 9 -30 108 -24 97 6 116 9 106 18 -11 10 -208 16
-214 6z"/>
<path d="M1245 891 c-17 -28 14 -32 184 -25 94 4 171 11 171 15 0 5 -31 9 -68
9 -38 0 -116 3 -174 6 -78 5 -107 4 -113 -5z"/>
<path d="M980 815 c0 -17 70 -20 167 -9 85 11 50 24 -63 24 -86 0 -104 -3
-104 -15z"/>
<path d="M1240 815 c0 -12 16 -15 88 -15 127 0 272 12 272 21 0 5 -81 9 -180
9 -153 0 -180 -2 -180 -15z"/>
</g>
</svg>
