<?xml version="1.0" standalone="no"?>
<!DOCTYPE svg PUBLIC "-//W3C//DTD SVG 20010904//EN"
 "http://www.w3.org/TR/2001/REC-SVG-20010904/DTD/svg10.dtd">
<svg version="1.0" xmlns="http://www.w3.org/2000/svg"
 width="230.000000pt" height="135.000000pt" viewBox="0 0 230.000000 135.000000"
 preserveAspectRatio="xMidYMid meet">
<metadata>
Created by potrace 1.16, written by Peter Selinger 2001-2019
</metadata>
<g transform="translate(0.000000,135.000000) scale(0.100000,-0.100000)"
fill="#000000" stroke="none">
<path d="M1086 1035 c5 -12 26 -15 100 -15 77 0 94 -3 94 -15 0 -12 -17 -15
-95 -15 -78 0 -95 -3 -95 -15 0 -12 17 -15 95 -15 85 0 95 -2 95 -18 0 -16 -9
-17 -95 -14 -82 3 -95 2 -95 -12 0 -14 15 -16 95 -16 87 0 95 -2 95 -19 0 -11
3 -26 6 -35 5 -14 -7 -16 -100 -16 -90 0 -105 -2 -100 -15 5 -12 26 -15 105
-15 99 0 99 0 99 -25 0 -14 5 -25 10 -25 6 0 10 11 10 25 0 22 4 25 34 25 28
0 35 -4 41 -27 l8 -28 8 30 c7 26 13 30 41 29 28 -1 33 -5 36 -27 4 -37 22
-34 22 3 l0 30 131 0 c84 0 128 4 124 10 -4 6 -58 10 -131 10 -116 0 -124 1
-124 19 0 49 5 51 130 51 69 0 121 4 125 10 4 6 -38 10 -119 10 l-126 0 0 25
c0 14 3 24 8 24 4 -1 60 -1 125 0 76 1 116 5 112 11 -4 6 -57 10 -126 10 -112
0 -119 1 -119 20 0 19 7 20 126 20 81 0 123 4 119 10 -4 6 -128 10 -340 10
-293 0 -334 -2 -329 -15z m384 -31 c0 -9 -11 -14 -30 -14 -27 0 -40 17 -25 32
10 10 55 -5 55 -18z m-100 1 c0 -9 -9 -15 -25 -15 -16 0 -25 6 -25 15 0 9 9
15 25 15 16 0 25 -6 25 -15z m8 -62 c-5 -25 -58 -26 -58 -1 0 13 8 18 31 18
24 0 30 -4 27 -17z m92 -4 c0 -16 -5 -20 -27 -17 -17 2 -29 10 -31 21 -3 13 3
17 27 17 25 0 31 -4 31 -21z m-90 -74 c0 -34 -2 -35 -36 -35 -33 0 -36 2 -30
23 3 12 6 28 6 35 0 7 13 12 30 12 28 0 30 -3 30 -35z m92 0 c4 -34 3 -35 -29
-35 -31 0 -33 2 -33 35 0 32 3 35 29 35 25 0 29 -4 33 -35z"/>
<path d="M352 868 c-9 -9 5 -21 59 -51 72 -39 189 -144 280 -248 l48 -56 -52
4 c-82 6 -128 21 -180 59 -53 39 -123 129 -170 219 -31 59 -32 60 -35 28 -4
-44 56 -159 121 -229 28 -31 71 -65 104 -80 60 -30 135 -37 505 -50 l167 -6
-69 -61 c-69 -59 -83 -83 -56 -93 9 -3 47 26 98 75 l83 81 165 -1 165 0 -25
-20 c-65 -54 -130 -121 -125 -130 14 -22 46 -4 120 71 l80 80 183 0 c120 0
181 3 177 10 -4 6 -64 10 -147 10 -123 0 -142 2 -154 18 -10 14 -10 20 3 35
18 19 4 24 -15 5 -10 -10 -35 10 -117 92 -94 94 -106 103 -120 89 -14 -14 -10
-21 42 -70 32 -30 81 -73 108 -97 48 -40 49 -43 31 -57 -15 -12 -45 -13 -165
-8 -80 3 -150 9 -155 14 -6 5 0 19 14 34 26 27 17 33 -16 11 -19 -14 -27 -9
-119 84 -76 76 -102 97 -112 88 -7 -6 -13 -15 -13 -21 0 -10 74 -80 159 -151
63 -52 47 -56 -179 -46 -107 5 -213 9 -235 10 -39 0 -43 3 -95 77 -77 108
-193 221 -267 261 -68 36 -74 37 -91 20z"/>
</g>
</svg>
