<?xml version="1.0" standalone="no"?>
<!DOCTYPE svg PUBLIC "-//W3C//DTD SVG 20010904//EN"
 "http://www.w3.org/TR/2001/REC-SVG-20010904/DTD/svg10.dtd">
<svg version="1.0" xmlns="http://www.w3.org/2000/svg"
 width="221.000000pt" height="160.000000pt" viewBox="0 0 221.000000 160.000000"
 preserveAspectRatio="xMidYMid meet">
<metadata>
Created by potrace 1.16, written by Peter Selinger 2001-2019
</metadata>
<g transform="translate(0.000000,160.000000) scale(0.100000,-0.100000)"
fill="#000000" stroke="none">
<path d="M1377 1293 c-4 -3 -7 -29 -7 -57 l0 -51 -69 -53 c-39 -29 -95 -80
-125 -113 l-55 -59 -411 7 -410 6 0 -28 0 -28 303 7 c166 3 348 9 403 12 l102
7 -29 -59 c-16 -33 -32 -79 -35 -104 -13 -98 79 -203 258 -296 l88 -45 0 -69
0 -70 65 0 65 0 0 68 c0 38 3 103 6 145 l7 77 50 0 c28 0 113 5 189 12 l138
11 0 67 0 67 -52 7 c-29 3 -105 9 -168 12 -168 8 -160 5 -160 67 l0 53 173 12
c94 7 180 12 190 12 15 0 17 10 17 74 0 41 -4 77 -9 80 -5 4 -11 2 -13 -4 -2
-7 -28 -7 -78 0 -41 5 -104 10 -140 10 -36 0 -82 3 -102 6 l-38 7 0 108 0 109
-73 0 c-41 0 -77 -3 -80 -7z m117 -478 c3 -256 9 -472 12 -480 5 -12 -4 -15
-47 -15 l-52 0 6 302 c4 166 7 379 7 474 l0 173 28 4 c15 2 30 5 33 6 3 0 9
-208 13 -464z m-112 -52 l3 -301 -48 26 c-83 47 -191 136 -224 186 -26 38 -33
59 -33 98 0 95 84 217 219 320 l66 50 7 -39 c3 -21 8 -174 10 -340z m498 220
l0 -48 -175 0 -175 0 0 48 0 47 175 0 175 0 0 -47z m0 -287 c0 -19 2 -41 6
-49 4 -12 -22 -14 -175 -14 l-181 0 0 49 0 48 175 0 175 0 0 -34z"/>
</g>
</svg>
