<?xml version="1.0" standalone="no"?>
<!DOCTYPE svg PUBLIC "-//W3C//DTD SVG 20010904//EN"
 "http://www.w3.org/TR/2001/REC-SVG-20010904/DTD/svg10.dtd">
<svg version="1.0" xmlns="http://www.w3.org/2000/svg"
 width="252.000000pt" height="361.000000pt" viewBox="0 0 252.000000 361.000000"
 preserveAspectRatio="xMidYMid meet">
<metadata>
Created by potrace 1.16, written by Peter Selinger 2001-2019
</metadata>
<g transform="translate(0.000000,361.000000) scale(0.100000,-0.100000)"
fill="#000000" stroke="none">
<path d="M727 3304 c-3 -4 5 -23 18 -43 14 -19 25 -39 25 -43 0 -4 -16 -10
-35 -14 -22 -4 -35 -12 -35 -21 0 -15 29 -14 72 2 13 5 26 -7 53 -49 38 -60
40 -61 120 -42 l50 11 212 -94 212 -94 3 -75 c2 -59 0 -76 -12 -80 -8 -3 -105
-46 -215 -95 l-200 -89 -55 12 c-30 7 -59 14 -65 16 -5 2 -26 -21 -45 -52 -36
-58 -41 -59 -109 -42 -31 7 -19 -21 13 -32 41 -13 42 -16 16 -50 -22 -28 -25
-46 -10 -55 5 -3 19 13 30 35 12 23 26 43 33 46 7 2 39 -2 72 -9 l59 -13 37
56 c24 38 47 61 70 70 19 7 114 53 213 102 98 48 180 88 182 88 2 0 4 -6 4
-13 0 -8 14 -35 32 -62 51 -77 148 -140 276 -179 22 -7 22 -7 22 117 l0 124
172 7 c95 4 175 9 177 12 14 14 -29 19 -180 19 l-169 0 0 88 c0 61 4 87 12 87
9 0 9 3 0 12 -8 8 -12 53 -12 135 0 103 -2 123 -15 123 -8 0 -15 7 -15 15 0
23 -12 19 -86 -34 -84 -59 -166 -146 -200 -213 -14 -27 -29 -48 -33 -46 -5 2
-101 48 -213 102 -192 93 -207 103 -234 145 -16 24 -32 48 -35 53 -5 8 -67 -2
-120 -18 -12 -3 -25 9 -43 41 -26 44 -36 52 -49 39z m221 -125 c36 -54 36 -54
-40 -64 l-47 -6 -21 41 c-12 23 -20 44 -17 46 4 4 79 32 87 33 3 0 20 -22 38
-50z m787 -35 l0 -46 -58 -23 c-47 -20 -63 -22 -83 -13 -13 6 -24 15 -24 19 0
11 139 109 154 109 6 0 11 -19 11 -46z m5 -110 c0 -25 -3 -44 -7 -42 -5 2 -25
12 -45 23 l-38 19 38 22 c20 12 40 23 45 23 4 1 7 -20 7 -45z m-172 8 c8 -6 1
-13 -23 -25 -47 -22 -49 -22 -28 8 19 26 30 30 51 17z m172 -184 c0 -98 -2
-108 -20 -118 -17 -9 -34 -4 -100 32 l-79 42 90 49 c49 27 89 52 89 57 0 9
-96 -27 -164 -62 -38 -20 -106 -19 -106 2 0 21 13 38 26 33 8 -3 14 -1 14 5 0
5 -7 12 -15 16 -12 4 -13 10 -4 30 6 13 17 22 23 20 7 -3 36 9 65 25 l53 29
64 -27 64 -26 0 -107z m-80 -130 c9 -4 -9 -17 -49 -36 -35 -17 -68 -29 -74
-25 -5 3 -22 26 -38 51 -26 42 -27 47 -13 63 15 16 20 15 87 -15 40 -18 79
-35 87 -38z m88 -117 l3 -103 -38 23 c-21 12 -62 40 -92 62 l-54 40 79 42 c44
23 84 41 89 40 6 -1 11 -46 13 -104z m-769 -57 c2 -2 -11 -22 -30 -46 -18 -24
-34 -45 -36 -47 -5 -7 -93 22 -93 31 0 5 10 26 22 47 l21 37 56 -9 c31 -5 58
-11 60 -13z"/>
<path d="M1790 3040 l0 -23 166 6 c151 5 185 9 173 21 -3 3 -80 8 -172 12
l-167 7 0 -23z"/>
<path d="M1760 1338 c0 -5 -7 -8 -15 -8 -12 0 -15 -13 -15 -57 l0 -58 -88 -65
c-48 -36 -109 -94 -137 -128 l-49 -62 -360 6 -360 7 -74 53 -74 52 -75 -49
-75 -49 -27 20 c-62 49 -72 53 -83 42 -7 -7 -10 -13 -7 -15 2 -2 21 -16 42
-31 20 -16 37 -31 37 -35 0 -3 -23 -19 -50 -36 -28 -16 -50 -32 -50 -36 0 -23
27 -17 75 15 30 20 58 36 62 36 5 -1 41 -25 82 -54 l74 -52 71 46 71 47 250 1
c138 1 298 5 358 8 l107 7 -15 -36 c-26 -63 -19 -159 20 -249 5 -13 2 -16 -12
-14 -10 2 -171 5 -358 7 l-340 4 -77 52 c-42 29 -79 53 -82 53 -3 0 -37 -20
-76 -46 -41 -26 -75 -42 -83 -38 -6 4 -29 21 -49 37 -33 26 -58 30 -58 8 0 -5
18 -21 40 -36 22 -15 40 -31 40 -35 0 -5 -21 -20 -47 -36 -27 -15 -50 -28 -51
-30 -2 -1 0 -9 5 -18 7 -13 18 -10 68 24 32 21 63 36 69 33 6 -4 44 -29 84
-56 51 -35 76 -47 81 -39 4 7 34 28 67 48 l59 36 135 -1 c74 0 240 3 369 8
l234 8 40 -44 c37 -40 157 -110 215 -125 22 -6 23 -11 21 -80 l-2 -73 83 -3
c48 -2 87 1 94 8 7 7 3 10 -12 10 -22 0 -22 2 -22 153 l0 154 156 7 c86 3 162
10 168 14 18 11 -69 20 -201 21 l-123 1 0 38 0 39 157 7 c86 4 161 10 167 14
18 11 -71 20 -201 21 l-123 1 0 64 0 63 160 5 c148 5 182 10 168 23 -2 3 -77
8 -166 11 l-162 7 0 38 0 37 148 7 c81 3 156 9 167 13 40 12 -27 20 -172 21
l-143 1 0 120 0 120 27 0 c17 0 23 4 18 9 -12 11 -175 19 -175 9z m90 -205 c0
-98 5 -319 10 -492 6 -172 9 -314 8 -316 -2 -1 -24 0 -50 3 l-48 4 0 182 c0
128 4 186 12 194 9 9 9 12 0 12 -8 0 -12 28 -12 95 0 67 4 95 12 95 9 0 9 3 0
12 -8 8 -12 67 -12 200 l0 188 40 0 40 0 0 -177z m-120 -83 l0 -100 -25 12
c-18 8 -24 17 -20 29 5 14 1 16 -15 12 -19 -5 -100 23 -100 35 0 9 138 110
153 111 4 1 7 -44 7 -99z m-1078 -55 c37 -22 68 -42 68 -45 0 -3 -33 -22 -73
-42 l-74 -36 -57 45 -57 45 53 39 c29 22 57 38 63 37 5 -2 40 -21 77 -43z
m934 -5 l28 -11 -43 -20 c-50 -22 -71 -24 -71 -7 0 15 41 59 50 53 4 -2 20 -9
36 -15z m101 -46 c31 -12 43 -22 44 -38 0 -11 2 -33 4 -48 5 -38 -4 -40 -48
-14 l-37 23 26 12 c37 16 22 27 -16 11 -26 -11 -36 -10 -71 5 l-40 19 38 23
c45 27 46 27 100 7z m-138 -63 l35 -18 -32 -17 c-30 -15 -34 -15 -64 0 l-31
16 24 19 c29 22 26 22 68 0z m114 -85 c-35 -17 -38 -17 -72 -1 l-36 17 34 18
c32 16 37 16 72 1 l38 -16 -36 -19z m-188 14 c-3 -5 -10 -10 -16 -10 -5 0 -9
5 -9 10 0 6 7 10 16 10 8 0 12 -4 9 -10z m265 -58 l0 -48 -50 -21 -50 -21 -40
21 c-22 12 -40 25 -40 28 0 3 16 13 35 22 32 15 39 16 65 2 33 -17 40 -18 40
-7 0 5 -12 14 -27 21 l-28 13 35 19 c54 28 60 25 60 -29z m-172 25 c22 -13 22
-13 -14 -31 -31 -14 -42 -15 -66 -5 -34 14 -35 22 -5 37 30 14 57 14 85 -1z
m-927 -88 c38 -23 71 -45 74 -48 2 -4 -29 -24 -69 -46 l-73 -39 -57 47 -56 46
52 40 c29 22 54 41 56 41 2 0 35 -19 73 -41z m916 -16 c24 -10 43 -21 43 -24
0 -3 -12 -11 -26 -18 -22 -10 -30 -9 -46 6 -11 10 -24 26 -29 35 -13 23 3 23
58 1z m185 -110 l4 -91 -36 18 c-20 10 -60 38 -90 61 l-53 42 38 19 c22 12 47
17 61 14 14 -4 24 -2 24 4 0 5 -6 10 -12 10 -7 1 3 9 22 20 40 21 38 28 42
-97z"/>
</g>
</svg>
