<?xml version="1.0" standalone="no"?>
<!DOCTYPE svg PUBLIC "-//W3C//DTD SVG 20010904//EN"
 "http://www.w3.org/TR/2001/REC-SVG-20010904/DTD/svg10.dtd">
<svg version="1.0" xmlns="http://www.w3.org/2000/svg"
 width="187.000000pt" height="169.000000pt" viewBox="0 0 187.000000 169.000000"
 preserveAspectRatio="xMidYMid meet">
<metadata>
Created by potrace 1.16, written by Peter Selinger 2001-2019
</metadata>
<g transform="translate(0.000000,169.000000) scale(0.100000,-0.100000)"
fill="#000000" stroke="none">
<path d="M400 1382 c0 -5 6 -30 14 -57 l15 -47 -65 4 c-56 3 -64 2 -64 -14 0
-15 9 -18 55 -19 76 -2 77 -2 86 -19 5 -8 20 -50 35 -92 l26 -77 88 -7 c82 -6
88 -8 104 -35 9 -16 34 -43 55 -61 36 -30 38 -34 30 -68 -5 -21 -5 -57 -1 -81
7 -40 5 -48 -24 -87 -18 -24 -34 -48 -36 -53 -2 -5 -42 -17 -90 -26 l-87 -17
-22 -92 -23 -92 -45 -7 c-75 -11 -91 -16 -91 -32 0 -12 9 -14 48 -9 26 4 55
10 65 13 15 4 18 1 14 -14 -3 -10 -9 -35 -13 -56 -6 -34 -4 -39 12 -35 13 2
21 18 28 58 l11 55 87 14 87 15 21 90 c11 50 32 115 47 144 l26 54 15 -29 c50
-97 172 -190 315 -238 l87 -30 0 -47 0 -48 68 1 c37 1 78 5 92 9 l25 8 -22 7
c-20 7 -23 14 -23 66 l0 59 43 0 c23 0 72 3 110 7 l67 6 0 67 0 67 -46 7 c-26
3 -75 6 -110 6 l-64 0 0 214 0 213 88 3 c48 2 97 4 110 4 22 1 23 4 20 71 l-3
70 -65 2 c-36 2 -84 5 -107 9 l-43 5 0 59 c0 56 1 60 27 66 25 7 25 8 8 15
-30 11 -154 11 -176 -1 -13 -7 -19 -21 -19 -44 0 -26 -6 -35 -27 -45 -109 -49
-290 -203 -340 -288 -14 -24 -30 -42 -37 -40 -24 7 -86 117 -114 202 l-29 90
-91 9 -90 9 -14 56 c-9 38 -19 57 -31 59 -9 2 -17 -1 -17 -6z m914 -359 c3
-186 9 -409 13 -495 l6 -158 -51 0 -52 0 0 495 0 495 38 0 39 0 7 -337z m-128
71 c-7 -27 -123 -152 -174 -188 l-40 -28 -62 23 c-34 12 -64 28 -67 36 -3 7 9
35 26 62 51 79 155 169 274 237 l42 24 3 -73 c2 -39 1 -81 -2 -93z m-542 58
c27 -66 30 -82 17 -78 -9 3 -47 10 -86 16 -38 6 -70 12 -70 13 -1 1 -7 27 -14
57 -8 30 -16 61 -19 68 -3 10 12 12 67 10 l72 -3 33 -83z m900 6 l7 -48 -69 0
c-38 0 -84 3 -101 6 -28 6 -31 10 -31 44 l0 37 87 2 c48 1 89 4 92 7 7 6 8 3
15 -48z m-345 -292 l3 -193 -96 94 -96 95 48 43 c26 23 65 68 87 98 22 31 42
56 45 57 3 0 7 -87 9 -194z m-323 13 l48 -22 -36 -18 c-20 -10 -40 -23 -43
-29 -14 -23 -25 -7 -25 40 0 28 2 50 4 50 2 0 25 -10 52 -21z m160 -83 c33
-24 83 -68 112 -98 l53 -55 6 -91 c5 -79 4 -92 -10 -92 -8 0 -56 21 -106 46
-107 53 -194 129 -235 205 -28 51 -28 53 -10 67 19 14 113 60 125 61 4 1 33
-19 65 -43z m-344 -248 c-14 -46 -27 -85 -29 -88 -8 -9 -133 -16 -133 -7 0 22
23 147 27 143 2 -2 34 4 71 14 37 10 72 19 78 19 7 1 2 -29 -14 -81z m852 25
c3 -25 5 -47 4 -48 -2 -1 -47 0 -100 3 l-98 4 0 39 0 38 68 4 c37 2 79 4 93 5
24 2 27 -2 33 -45z"/>
</g>
</svg>
