<?xml version="1.0" standalone="no"?>
<!DOCTYPE svg PUBLIC "-//W3C//DTD SVG 20010904//EN"
 "http://www.w3.org/TR/2001/REC-SVG-20010904/DTD/svg10.dtd">
<svg version="1.0" xmlns="http://www.w3.org/2000/svg"
 width="189.000000pt" height="256.000000pt" viewBox="0 0 189.000000 256.000000"
 preserveAspectRatio="xMidYMid meet">
<metadata>
Created by potrace 1.16, written by Peter Selinger 2001-2019
</metadata>
<g transform="translate(0.000000,256.000000) scale(0.100000,-0.100000)"
fill="#000000" stroke="none">
<path d="M1090 2175 c0 -47 -3 -85 -6 -85 -3 0 -43 22 -88 49 -126 73 -123 73
-200 -10 -74 -80 -129 -165 -155 -239 -10 -28 -20 -53 -24 -56 -3 -3 -72 22
-153 56 -114 47 -149 58 -155 48 -5 -7 -9 -82 -9 -167 0 -119 3 -152 13 -148
6 3 57 24 112 47 55 23 121 51 147 61 l47 18 12 -42 c27 -104 144 -256 236
-309 29 -17 29 -17 126 39 54 31 100 53 103 51 2 -3 3 -89 2 -190 l-3 -186
-90 53 c-130 76 -133 76 -195 11 -89 -93 -180 -238 -180 -288 0 -9 -4 -19 -9
-22 -5 -3 -75 22 -156 55 -92 39 -150 58 -156 52 -5 -5 -8 -76 -7 -165 l3
-156 153 64 c85 35 155 64 157 64 2 0 11 -24 19 -52 29 -99 92 -184 201 -273
l57 -46 31 19 c79 47 176 102 181 102 3 0 6 -49 6 -109 0 -63 4 -112 10 -116
6 -4 10 38 10 118 l0 124 230 133 c127 73 230 136 230 140 0 5 -103 68 -230
141 l-230 133 0 211 1 210 226 131 c125 72 228 135 230 140 2 5 -100 70 -227
143 l-230 133 0 93 c0 90 -5 105 -36 105 -2 0 -4 -38 -4 -85z m-104 -78 l99
-53 6 -135 c4 -74 7 -187 8 -251 l1 -118 -52 -30 c-29 -16 -81 -45 -115 -62
l-62 -33 -37 35 c-50 48 -119 147 -150 214 -48 105 -31 217 50 330 45 63 129
156 142 156 6 0 55 -24 110 -53z m458 -243 l129 -66 -194 -100 c-107 -54 -204
-106 -216 -114 -12 -8 -25 -14 -28 -14 -3 0 -5 104 -5 230 l0 231 93 -51 c50
-28 150 -80 221 -116z m-956 -4 c98 -33 132 -49 132 -61 0 -12 -36 -29 -137
-64 -76 -26 -144 -50 -150 -52 -15 -6 -16 33 -6 151 4 48 10 76 17 74 6 -2 71
-23 144 -48z m604 -779 c3 -3 9 -116 13 -251 l7 -245 -113 -60 c-62 -33 -118
-61 -125 -63 -20 -5 -142 146 -180 224 -75 150 -36 281 139 472 l40 42 106
-56 c58 -31 109 -59 113 -63z m396 -209 c39 -20 72 -39 72 -42 0 -3 -42 -27
-92 -52 -51 -26 -148 -76 -215 -112 l-123 -66 0 230 0 231 143 -76 c78 -42
175 -92 215 -113z m-1006 22 c105 -35 138 -50 138 -63 0 -13 -36 -29 -150 -68
l-150 -51 0 37 c0 64 13 191 19 191 3 0 68 -21 143 -46z"/>
</g>
</svg>
