<?xml version="1.0" standalone="no"?>
<!DOCTYPE svg PUBLIC "-//W3C//DTD SVG 20010904//EN"
 "http://www.w3.org/TR/2001/REC-SVG-20010904/DTD/svg10.dtd">
<svg version="1.0" xmlns="http://www.w3.org/2000/svg"
 width="171.000000pt" height="144.000000pt" viewBox="0 0 171.000000 144.000000"
 preserveAspectRatio="xMidYMid meet">
<metadata>
Created by potrace 1.16, written by Peter Selinger 2001-2019
</metadata>
<g transform="translate(0.000000,144.000000) scale(0.100000,-0.100000)"
fill="#000000" stroke="none">
<path d="M311 1043 c1 -54 4 -109 9 -123 l7 -25 7 25 c3 14 10 69 14 123 8 97
8 97 -15 97 -22 0 -23 -2 -22 -97z"/>
<path d="M571 1046 c-10 -19 -12 -47 -7 -111 l6 -85 -135 0 -135 0 1 -162 c0
-188 15 -187 25 1 l7 118 75 7 c41 3 95 6 119 6 l43 0 0 -119 c0 -66 3 -127 6
-136 6 -16 -4 -16 -125 -10 -130 8 -131 7 -131 -14 0 -22 3 -22 128 -20 l127
1 6 -106 c3 -59 9 -109 13 -113 3 -3 6 1 6 10 0 14 11 17 68 17 267 1 771 20
725 28 -23 3 -23 5 -23 181 0 98 -3 252 -7 343 l-6 166 -141 6 c-78 3 -251 8
-386 12 l-246 6 -13 -26z m749 -53 c1 -86 19 -474 26 -547 l7 -78 -249 4 -249
4 0 319 0 320 140 3 c77 1 147 4 155 6 8 2 50 4 93 5 l77 1 0 -37z m-506 -215
c4 -128 10 -270 14 -315 5 -53 4 -84 -3 -86 -5 -1 -35 -2 -65 -1 -30 1 -76 3
-102 3 l-47 1 -1 188 c0 103 -3 244 -6 315 l-6 127 104 0 105 0 7 -232z"/>
</g>
</svg>
