<?xml version="1.0" standalone="no"?>
<!DOCTYPE svg PUBLIC "-//W3C//DTD SVG 20010904//EN"
 "http://www.w3.org/TR/2001/REC-SVG-20010904/DTD/svg10.dtd">
<svg version="1.0" xmlns="http://www.w3.org/2000/svg"
 width="188.000000pt" height="142.000000pt" viewBox="0 0 188.000000 142.000000"
 preserveAspectRatio="xMidYMid meet">
<metadata>
Created by potrace 1.16, written by Peter Selinger 2001-2019
</metadata>
<g transform="translate(0.000000,142.000000) scale(0.100000,-0.100000)"
fill="#000000" stroke="none">
<path d="M940 1086 c-30 -18 -187 -109 -347 -201 -161 -92 -293 -170 -293
-174 0 -3 4 -11 8 -17 7 -11 296 -177 462 -266 272 -145 250 -135 250 -118 0
6 29 38 64 71 36 33 79 82 96 109 l32 50 117 2 c64 1 145 3 181 4 l65 2 3 151
3 151 -185 0 c-175 0 -185 1 -191 20 -16 49 -175 250 -199 250 -6 -1 -36 -16
-66 -34z m166 -128 c25 -32 59 -88 77 -125 46 -98 45 -174 -6 -275 -33 -66
-158 -228 -177 -228 -4 0 -124 69 -266 153 -142 84 -283 166 -311 183 -29 16
-53 32 -53 36 0 4 57 42 127 85 70 43 208 128 308 190 l180 112 38 -37 c22
-20 59 -63 83 -94z m438 -190 c3 -35 7 -93 10 -130 l4 -68 -103 0 c-56 0 -130
3 -163 6 -61 7 -62 7 -54 33 4 14 7 65 7 113 l-1 86 106 7 c58 3 112 8 120 9
8 2 27 4 42 5 25 1 27 -1 32 -61z"/>
<path d="M800 855 c-111 -75 -186 -131 -187 -142 -2 -13 33 -41 130 -103 174
-111 266 -164 273 -157 6 6 -109 222 -131 247 -12 13 -8 23 21 70 73 114 113
211 87 210 -5 0 -91 -57 -193 -125z m109 -27 l-57 -112 29 -58 c16 -32 45 -83
65 -113 19 -30 32 -55 28 -55 -3 0 -43 26 -87 58 -45 33 -117 82 -160 111
l-78 52 133 96 c73 52 144 104 157 114 13 11 25 19 26 19 1 0 -24 -50 -56
-112z"/>
</g>
</svg>
