<?xml version="1.0" standalone="no"?>
<!DOCTYPE svg PUBLIC "-//W3C//DTD SVG 20010904//EN"
 "http://www.w3.org/TR/2001/REC-SVG-20010904/DTD/svg10.dtd">
<svg version="1.0" xmlns="http://www.w3.org/2000/svg"
 width="213.000000pt" height="164.000000pt" viewBox="0 0 213.000000 164.000000"
 preserveAspectRatio="xMidYMid meet">
<metadata>
Created by potrace 1.16, written by Peter Selinger 2001-2019
</metadata>
<g transform="translate(0.000000,164.000000) scale(0.100000,-0.100000)"
fill="#000000" stroke="none">
<path d="M350 1326 c-10 -12 -1 -20 48 -45 68 -34 156 -108 234 -195 l52 -59
-66 5 c-112 9 -196 75 -276 218 -34 59 -37 62 -40 38 -4 -38 52 -140 108 -198
81 -82 130 -95 428 -108 l174 -7 -87 -74 c-80 -67 -86 -74 -71 -89 15 -15 23
-9 106 73 85 85 90 88 108 72 26 -24 39 -21 17 3 -18 20 -17 20 49 20 l67 0
-91 -76 c-83 -69 -90 -78 -76 -92 14 -14 23 -9 88 53 40 38 81 78 90 89 14 17
19 19 29 9 18 -18 32 -16 25 2 -4 12 4 15 46 15 29 0 48 -4 43 -8 -6 -5 -47
-39 -92 -77 -46 -37 -83 -72 -83 -77 0 -5 7 -11 15 -14 10 -4 49 25 109 80 54
50 97 82 101 76 10 -16 28 -12 21 6 -5 12 2 15 37 12 l42 -3 3 -237 2 -238
-40 0 c-32 0 -38 3 -33 16 5 14 3 15 -16 4 -21 -10 -30 -4 -112 75 -75 72 -92
85 -105 74 -18 -15 -7 -28 83 -102 35 -28 63 -53 63 -57 0 -3 -16 -4 -35 -2
-19 2 -35 8 -35 13 0 6 -9 5 -21 -1 -18 -10 -31 -1 -111 75 -82 78 -92 85
-106 71 -9 -9 -14 -17 -11 -19 3 -3 146 -123 158 -133 2 -2 -17 -4 -43 -4 -29
0 -45 4 -41 10 9 14 -18 13 -32 -1 -9 -9 -34 9 -100 70 -48 44 -91 81 -95 81
-5 0 -11 -7 -14 -15 -4 -8 9 -27 32 -47 21 -18 54 -46 72 -63 l33 -30 -133 6
c-73 4 -136 7 -139 8 -3 1 -32 35 -64 76 -116 152 -293 277 -312 220 -1 -5 27
-26 65 -45 48 -25 98 -65 177 -143 l110 -108 -69 6 c-70 6 -121 27 -167 67
-41 36 -94 108 -124 168 -24 46 -29 52 -35 35 -22 -60 112 -242 208 -282 50
-21 165 -32 350 -33 83 -1 152 -5 152 -8 0 -4 -36 -36 -80 -72 -73 -60 -92
-88 -65 -97 6 -2 50 34 98 78 66 61 91 79 100 70 6 -6 17 -11 25 -11 12 0 12
3 2 15 -11 13 -5 15 46 15 l59 0 -50 -43 c-116 -98 -128 -112 -112 -126 14
-11 29 0 106 74 82 79 91 85 112 75 19 -11 21 -10 16 4 -5 13 1 16 40 16 54 0
58 7 -55 -90 -68 -57 -72 -64 -58 -78 15 -15 24 -9 106 73 84 84 92 89 112 76
18 -11 20 -11 15 4 -6 14 0 16 36 13 l42 -3 3 -78 3 -79 94 4 95 3 0 55 c0 94
4 100 66 100 30 0 54 5 54 10 0 6 -25 10 -55 10 l-55 0 0 239 0 240 53 4 52 3
-52 2 -53 2 0 99 0 99 -32 5 c-52 9 -151 10 -172 2 -17 -7 -18 -17 -13 -102
l6 -93 -45 0 c-28 0 -43 4 -39 10 3 6 2 10 -4 10 -5 0 -13 -5 -16 -10 -3 -6
-47 27 -96 72 -83 77 -124 100 -124 71 0 -11 80 -85 140 -130 l30 -22 -42 -1
c-32 0 -43 4 -43 15 0 12 -3 13 -19 3 -17 -10 -30 -2 -111 72 -79 72 -93 81
-105 69 -13 -13 -5 -23 60 -78 41 -35 75 -66 75 -68 0 -1 -18 -3 -41 -3 -24 0
-38 4 -34 10 8 13 -1 13 -24 -2 -17 -11 -30 -2 -110 71 -84 76 -111 90 -111
57 0 -7 31 -40 70 -72 38 -32 68 -59 67 -61 -2 -1 -64 1 -137 4 l-135 6 -70
89 c-76 97 -124 141 -212 194 -65 39 -66 39 -83 20z m1330 -196 l0 -41 -67 3
-68 3 -3 32 c-3 30 -1 32 35 36 105 11 103 11 103 -33z m0 -100 c0 -45 1 -44
-87 -34 -50 6 -53 8 -53 35 0 27 1 28 63 32 34 2 65 4 70 5 4 1 7 -16 7 -38z
m0 -59 c0 -8 -130 -3 -139 5 -2 2 28 4 67 4 40 0 72 -4 72 -9z m4 -71 l2 -41
-70 3 -71 3 0 35 0 35 65 5 c36 3 67 4 69 3 2 -1 4 -20 5 -43z m6 -105 l0 -46
-72 3 -73 3 -3 37 -3 37 58 4 c32 2 66 4 76 5 14 2 17 -6 17 -43z m0 -111 l0
-47 -46 7 c-26 3 -60 6 -75 6 -26 0 -29 3 -29 34 0 34 1 35 48 39 112 9 102
12 102 -39z m0 -119 l0 -55 -52 0 c-88 0 -98 6 -98 56 0 47 2 48 108 52 l42 2
0 -55z m0 -134 c0 -27 3 -57 6 -66 6 -14 -3 -15 -77 -9 -46 4 -85 7 -85 8 -1
0 1 27 3 59 l5 57 74 0 74 0 0 -49z"/>
</g>
</svg>
