<?xml version="1.0" standalone="no"?>
<!DOCTYPE svg PUBLIC "-//W3C//DTD SVG 20010904//EN"
 "http://www.w3.org/TR/2001/REC-SVG-20010904/DTD/svg10.dtd">
<svg version="1.0" xmlns="http://www.w3.org/2000/svg"
 width="244.000000pt" height="156.000000pt" viewBox="0 0 244.000000 156.000000"
 preserveAspectRatio="xMidYMid meet">
<metadata>
Created by potrace 1.16, written by Peter Selinger 2001-2019
</metadata>
<g transform="translate(0.000000,156.000000) scale(0.100000,-0.100000)"
fill="#000000" stroke="none">
<path d="M350 1245 c-15 -18 -20 -14 55 -51 42 -20 94 -62 175 -141 l115 -113
-65 6 c-36 4 -84 15 -107 26 -54 25 -139 117 -183 198 -34 64 -35 64 -38 33
-6 -66 96 -207 185 -255 59 -32 99 -38 345 -46 l187 -7 -88 -72 c-61 -49 -87
-77 -86 -91 0 -11 31 -46 69 -79 l68 -58 -84 -3 c-46 -2 -106 0 -135 3 -48 6
-54 10 -91 58 -125 165 -310 301 -329 242 -1 -5 27 -26 64 -45 64 -34 273
-219 273 -242 0 -16 -118 1 -162 23 -68 35 -161 145 -200 236 l-12 28 -4 -32
c-7 -68 105 -220 194 -264 56 -26 151 -37 365 -40 87 -1 159 -3 159 -3 0 -1
-41 -35 -90 -76 -81 -66 -89 -75 -75 -89 16 -16 15 -17 142 103 41 39 55 48
65 38 7 -7 18 -12 26 -12 12 0 12 3 2 15 -11 13 -5 15 46 15 34 0 54 -4 49 -9
-9 -8 -154 -130 -164 -138 -3 -2 2 -10 10 -18 13 -13 26 -5 107 70 83 78 93
85 113 74 19 -10 21 -9 16 5 -5 13 1 16 40 16 28 0 43 -4 38 -9 -9 -8 -154
-130 -164 -138 -3 -2 2 -11 11 -19 15 -15 24 -9 108 72 84 81 93 87 112 75 18
-11 20 -11 15 3 -6 14 12 16 163 16 l170 0 5 -28 c19 -88 28 -119 45 -153 22
-43 55 -69 85 -69 19 1 19 1 -2 13 -22 12 -18 17 103 137 91 90 125 118 120
100 -3 -14 -6 -32 -6 -41 0 -8 -40 -56 -90 -106 -50 -50 -90 -95 -90 -99 0 -5
36 27 80 71 44 44 80 75 80 69 0 -26 -62 -105 -97 -123 -24 -13 -31 -20 -20
-21 73 -1 151 141 162 295 4 61 3 65 -5 30 -8 -32 -36 -65 -141 -170 -123
-123 -131 -129 -144 -111 -8 11 -15 23 -15 26 0 3 70 75 155 160 85 84 155
156 155 159 0 3 -72 -66 -160 -154 l-159 -159 -11 29 c-11 28 -7 32 157 199
l168 171 -165 -163 c-91 -89 -169 -162 -173 -162 -4 0 -7 15 -7 34 0 30 17 50
175 205 96 94 172 171 167 171 -4 0 -74 -67 -155 -148 -125 -125 -153 -148
-173 -144 -13 2 -24 8 -24 12 0 4 78 85 172 179 141 139 174 167 181 153 16
-37 -3 147 -23 210 -28 92 -72 138 -131 138 -38 0 -48 -5 -90 -49 -50 -52 -80
-117 -106 -235 l-16 -68 -164 4 c-127 3 -166 7 -173 18 -7 11 -11 11 -24 1
-13 -11 -19 -10 -33 6 -10 11 -51 50 -91 88 -65 62 -74 67 -88 54 -13 -14 -9
-21 42 -65 32 -27 71 -59 88 -71 l30 -23 -41 0 c-24 0 -43 5 -46 13 -3 9 -8 9
-21 -2 -15 -13 -26 -6 -107 75 -81 81 -90 87 -105 72 -15 -14 -9 -21 65 -83
45 -38 81 -70 81 -72 0 -1 -20 -3 -45 -3 -36 0 -45 4 -45 17 0 13 -3 14 -12 5
-23 -23 -43 -12 -119 64 -53 53 -82 75 -93 71 -27 -11 -19 -24 54 -87 l71 -60
-73 1 c-40 1 -103 4 -139 8 l-66 6 -60 75 c-78 98 -155 168 -230 208 -53 28
-62 30 -73 17z m1630 2 c0 -1 -32 -34 -71 -72 -68 -67 -70 -68 -51 -30 20 41
51 73 87 93 19 11 35 15 35 9z m50 -17 c12 -8 -9 -33 -105 -129 -65 -66 -121
-119 -123 -117 -2 2 2 22 8 45 8 31 31 61 98 125 48 47 92 86 97 86 6 0 17 -5
25 -10z m39 -41 c12 -20 5 -30 -115 -150 -127 -128 -164 -151 -164 -107 0 16
40 63 127 150 70 71 130 128 133 128 3 0 11 -10 19 -21z m26 -66 c6 -24 -8
-41 -152 -185 -87 -87 -161 -158 -165 -158 -4 0 -4 17 -1 38 5 31 27 59 152
185 80 81 149 147 152 147 4 0 10 -12 14 -27z m18 -70 c4 -23 -14 -45 -167
-193 -167 -164 -171 -167 -174 -137 -3 27 12 46 160 194 89 89 166 163 169
163 4 0 9 -12 12 -27z m9 -75 c3 -24 -20 -50 -172 -203 -173 -174 -175 -176
-178 -144 -3 30 9 45 169 205 95 95 174 172 175 171 1 -1 4 -14 6 -29z m-932
-88 c0 -5 -3 -10 -7 -10 -16 -1 -157 -131 -159 -148 -2 -15 19 -36 134 -129
l27 -23 -48 0 c-30 0 -46 4 -42 10 9 14 -18 13 -32 -1 -9 -9 -31 6 -90 61 -43
40 -79 76 -81 80 -4 10 149 145 162 144 6 -1 20 -5 31 -10 20 -7 20 -7 1 14
l-19 22 61 0 c35 0 62 -4 62 -10z m144 -17 c-63 -46 -154 -130 -153 -143 0 -8
38 -46 84 -85 47 -38 85 -71 85 -72 0 -6 -76 12 -78 18 -2 5 -13 4 -23 -2 -18
-9 -31 0 -97 62 -42 40 -78 76 -80 79 -1 3 35 40 81 82 80 73 85 76 102 60 17
-16 17 -16 12 0 -5 13 1 18 26 20 48 5 64 -2 41 -19z m89 -3 c4 0 5 5 2 10 -4
7 55 10 170 10 157 0 176 -2 171 -16 -3 -9 -6 -81 -6 -160 l0 -144 -170 0
c-157 0 -169 1 -163 18 6 15 5 15 -10 4 -9 -8 -21 -12 -26 -10 -5 1 -44 36
-86 77 l-76 74 83 78 c51 47 87 74 93 68 5 -5 13 -9 18 -9z m377 16 c0 -3 -4
-8 -10 -11 -5 -3 -10 -1 -10 4 0 6 5 11 10 11 6 0 10 -2 10 -4z m10 -340 c0
-2 -7 -9 -15 -16 -12 -10 -15 -10 -15 4 0 9 7 16 15 16 8 0 15 -2 15 -4z"/>
</g>
</svg>
