<?xml version="1.0" standalone="no"?>
<!DOCTYPE svg PUBLIC "-//W3C//DTD SVG 20010904//EN"
 "http://www.w3.org/TR/2001/REC-SVG-20010904/DTD/svg10.dtd">
<svg version="1.0" xmlns="http://www.w3.org/2000/svg"
 width="211.000000pt" height="156.000000pt" viewBox="0 0 211.000000 156.000000"
 preserveAspectRatio="xMidYMid meet">
<metadata>
Created by potrace 1.16, written by Peter Selinger 2001-2019
</metadata>
<g transform="translate(0.000000,156.000000) scale(0.100000,-0.100000)"
fill="#000000" stroke="none">
<path d="M351 1246 c-10 -12 -1 -20 58 -51 63 -33 203 -156 264 -231 17 -20
16 -20 -54 -13 -116 13 -190 70 -274 215 -36 62 -40 66 -43 41 -4 -36 51 -138
105 -194 24 -24 69 -56 100 -70 53 -24 72 -27 283 -36 l227 -10 -82 -69 c-106
-88 -107 -98 -13 -179 l69 -59 -103 1 c-161 0 -166 2 -235 89 -77 98 -155 168
-230 207 -45 25 -62 30 -71 21 -17 -17 -15 -26 11 -34 50 -15 157 -97 242
-184 l90 -92 -64 7 c-35 3 -81 13 -102 22 -50 20 -145 122 -189 203 -35 65
-35 65 -38 32 -3 -25 7 -51 36 -100 51 -85 102 -134 174 -167 55 -25 69 -27
284 -33 l226 -7 -87 -73 c-79 -68 -95 -90 -69 -99 6 -2 49 33 97 77 75 70 89
80 106 71 28 -15 36 -14 21 4 -11 13 -5 15 44 15 31 0 56 -2 56 -3 0 -2 -36
-34 -80 -71 -44 -38 -80 -74 -80 -81 0 -37 29 -21 111 61 80 80 91 88 109 76
27 -16 35 -15 20 3 -11 13 -6 15 39 15 l52 0 -92 -76 c-83 -69 -90 -78 -75
-92 14 -14 22 -10 83 48 37 35 78 75 90 89 20 23 25 25 44 13 19 -12 21 -12
16 2 -6 14 4 16 68 16 l75 0 1 -102 c1 -57 2 -107 4 -113 1 -5 3 -16 3 -23 2
-10 29 -12 117 -10 l115 3 0 437 c0 406 -1 438 -17 447 -21 11 -202 17 -223 8
-13 -6 -14 -30 -12 -142 l4 -135 -67 0 c-41 0 -64 4 -60 10 3 6 -1 10 -9 10
-8 0 -18 -5 -22 -11 -4 -7 -32 14 -73 53 -111 107 -120 113 -134 99 -13 -13
25 -53 118 -128 l40 -32 -43 -1 c-26 0 -41 4 -37 10 3 6 -1 10 -9 10 -8 0 -18
-5 -21 -10 -4 -6 -48 28 -98 75 -50 47 -96 84 -102 82 -26 -9 -8 -37 61 -94
l75 -63 -46 0 c-28 0 -44 4 -40 10 8 13 -1 13 -24 -2 -17 -10 -30 -1 -109 71
-83 76 -112 91 -112 57 0 -6 32 -38 70 -70 39 -33 69 -61 67 -62 -2 -2 -64 -1
-138 2 l-135 7 -39 55 c-58 81 -163 182 -225 219 -74 43 -85 46 -99 29z m1423
-158 c3 -50 6 -111 6 -135 l0 -44 -87 3 -88 3 -3 122 c-3 139 -9 129 88 136
25 2 52 4 61 5 13 2 17 -14 23 -90z m-585 -201 c-101 -78 -166 -141 -162 -158
3 -10 38 -46 79 -80 41 -34 74 -63 74 -65 0 -2 -21 -4 -46 -4 -27 0 -43 4 -39
10 8 13 -1 13 -26 -1 -17 -9 -31 0 -100 68 l-80 78 83 76 c77 71 84 76 101 61
21 -19 35 -9 17 13 -11 13 -5 15 51 15 52 -1 61 -3 48 -13z m166 4 c-6 -5 -46
-39 -90 -76 -43 -37 -80 -73 -81 -80 -2 -12 71 -81 140 -132 l30 -23 -43 0
c-25 0 -40 4 -36 10 8 13 -1 13 -25 -2 -18 -11 -28 -5 -100 67 l-80 79 83 77
c50 47 86 74 92 68 5 -5 15 -9 23 -9 12 0 12 3 2 15 -11 13 -5 15 41 15 31 0
49 -4 44 -9z m209 -83 c3 -50 6 -124 6 -165 l0 -73 -71 0 c-59 0 -70 3 -65 15
6 18 -5 20 -21 4 -9 -9 -33 8 -98 66 l-85 78 82 76 c45 42 84 75 87 74 3 -1
15 -5 26 -9 18 -7 18 -6 6 9 -12 16 -8 17 56 17 l70 0 7 -92z m216 -35 c0 -71
3 -145 6 -165 l7 -38 -97 0 -96 0 0 165 0 165 90 0 90 0 0 -127z m10 -334 l0
-112 -97 7 c-54 4 -99 9 -101 11 -2 2 -1 49 3 104 l8 101 93 0 94 0 0 -111z"/>
</g>
</svg>
