<?xml version="1.0" standalone="no"?>
<!DOCTYPE svg PUBLIC "-//W3C//DTD SVG 20010904//EN"
 "http://www.w3.org/TR/2001/REC-SVG-20010904/DTD/svg10.dtd">
<svg version="1.0" xmlns="http://www.w3.org/2000/svg"
 width="181.000000pt" height="123.000000pt" viewBox="0 0 181.000000 123.000000"
 preserveAspectRatio="xMidYMid meet">
<metadata>
Created by potrace 1.16, written by Peter Selinger 2001-2019
</metadata>
<g transform="translate(0.000000,123.000000) scale(0.100000,-0.100000)"
fill="#000000" stroke="none">
<path d="M542 915 c-10 -12 -8 -26 9 -77 12 -35 28 -75 35 -90 8 -15 14 -29
14 -31 0 -2 -51 -2 -114 1 -62 2 -130 2 -150 -2 l-37 -7 3 -127 3 -127 133 2
c72 2 132 -1 132 -5 0 -5 -9 -35 -20 -67 -24 -70 -24 -71 -3 -79 12 -5 39 15
98 74 l80 80 138 0 137 0 -19 -47 c-30 -78 -33 -100 -15 -107 11 -4 45 21 107
79 l92 85 173 0 c97 0 172 4 172 9 0 5 -4 11 -9 13 -5 2 -6 47 -1 108 8 110 2
132 -28 114 -10 -7 -64 -9 -142 -6 l-125 4 -112 110 c-102 102 -113 110 -127
95 -15 -14 -14 -22 13 -94 16 -43 32 -86 36 -95 7 -17 -2 -18 -111 -18 l-119
0 -110 110 c-60 60 -112 110 -115 109 -3 0 -11 -6 -18 -14z m147 -203 c-28 -2
-55 0 -59 5 -4 4 -17 33 -28 63 -11 30 -24 64 -28 75 -4 11 31 -16 79 -60 l88
-80 -52 -3z m426 45 l50 -48 -59 3 -59 3 -29 80 -29 80 38 -36 c21 -19 61 -56
88 -82z m355 -167 l0 -100 -140 0 c-77 0 -140 4 -140 9 0 4 25 32 56 61 l55
53 -32 33 -32 33 44 4 c24 2 77 4 117 5 l72 2 0 -100z m-655 59 c20 -18 34
-35 33 -40 -2 -4 -29 -30 -61 -58 -55 -48 -62 -51 -112 -51 l-54 0 21 54 c16
44 18 61 10 85 -10 29 -9 30 21 34 87 11 106 8 142 -24z m237 -3 c16 -32 15
-35 -9 -90 l-26 -56 -126 0 -125 0 57 58 57 57 -32 33 -33 32 111 0 110 0 16
-34z m188 0 l38 -34 -63 -56 c-59 -52 -67 -56 -114 -56 -28 0 -51 4 -51 8 0 5
7 30 16 56 15 45 15 59 -1 99 -6 15 0 17 65 17 68 0 75 -2 110 -34z m-606 -7
c7 -21 4 -40 -14 -83 l-22 -56 -139 0 -139 0 0 33 c0 17 3 56 7 85 l6 53 146
-3 146 -3 9 -26z m426 -224 c-30 -30 -57 -55 -61 -55 -11 0 27 91 42 101 8 5
27 9 44 9 l29 0 -54 -55z m-396 24 c-10 -12 -36 -35 -56 -51 l-38 -29 15 41
c21 58 22 60 62 60 36 0 36 0 17 -21z"/>
</g>
</svg>
