<?xml version="1.0" standalone="no"?>
<!DOCTYPE svg PUBLIC "-//W3C//DTD SVG 20010904//EN"
 "http://www.w3.org/TR/2001/REC-SVG-20010904/DTD/svg10.dtd">
<svg version="1.0" xmlns="http://www.w3.org/2000/svg"
 width="233.000000pt" height="125.000000pt" viewBox="0 0 233.000000 125.000000"
 preserveAspectRatio="xMidYMid meet">
<metadata>
Created by potrace 1.16, written by Peter Selinger 2001-2019
</metadata>
<g transform="translate(0.000000,125.000000) scale(0.100000,-0.100000)"
fill="#000000" stroke="none">
<path d="M765 940 c-3 -5 -13 -10 -22 -10 -18 0 -183 -99 -333 -199 -98 -66
-104 -72 -106 -106 -1 -34 1 -36 150 -133 194 -127 270 -172 288 -172 8 0 19
-5 24 -10 10 -10 193 119 327 231 l58 49 120 -81 c133 -89 298 -191 314 -193
5 -1 15 -5 22 -9 18 -11 422 293 422 318 0 11 -147 131 -307 249 -63 47 -108
74 -115 69 -7 -4 -17 -8 -22 -9 -16 -2 -181 -104 -314 -193 l-119 -80 -69 56
c-61 51 -271 208 -300 226 -6 4 -14 3 -18 -3z m195 -179 l180 -120 -372 6
c-205 3 -374 7 -375 8 -2 1 30 24 70 52 39 28 118 87 175 131 101 79 104 80
122 62 10 -10 100 -73 200 -139z m843 -1 l178 -119 -368 6 c-202 3 -369 7
-371 8 -2 1 43 36 100 78 57 41 134 100 172 130 l69 55 21 -20 c12 -11 101
-73 199 -138z m-654 -144 c-2 -2 -86 -59 -187 -126 -101 -66 -192 -130 -202
-140 -18 -18 -21 -17 -122 62 -57 44 -136 103 -176 132 l-74 51 304 7 c166 4
319 9 338 11 54 6 124 7 119 3z m821 -18 c-90 -55 -347 -229 -366 -247 l-21
-19 -61 49 c-34 27 -114 87 -177 134 l-117 85 199 1 c109 1 261 5 338 8 77 4
163 8 190 9 l50 2 -35 -22z"/>
</g>
</svg>
