<?xml version="1.0" standalone="no"?>
<!DOCTYPE svg PUBLIC "-//W3C//DTD SVG 20010904//EN"
 "http://www.w3.org/TR/2001/REC-SVG-20010904/DTD/svg10.dtd">
<svg version="1.0" xmlns="http://www.w3.org/2000/svg"
 width="183.000000pt" height="140.000000pt" viewBox="0 0 183.000000 140.000000"
 preserveAspectRatio="xMidYMid meet">
<metadata>
Created by potrace 1.16, written by Peter Selinger 2001-2019
</metadata>
<g transform="translate(0.000000,140.000000) scale(0.100000,-0.100000)"
fill="#000000" stroke="none">
<path d="M985 1041 c-108 -51 -124 -56 -155 -48 -19 5 -71 7 -115 5 -113 -6
-220 -57 -358 -171 -35 -29 -46 -44 -42 -58 4 -12 2 -19 -6 -19 -18 0 54 -72
126 -127 33 -25 94 -62 135 -82 64 -30 85 -36 145 -36 39 0 84 3 101 7 29 7
32 5 38 -24 3 -17 6 -63 6 -104 0 -40 5 -76 10 -79 6 -4 10 34 10 108 l0 114
48 18 c60 23 188 86 273 136 l67 39 113 -54 c131 -61 149 -68 149 -58 0 9 -23
24 -139 88 l-93 52 43 22 c78 40 179 102 179 111 0 11 -15 5 -138 -52 l-102
-48 -83 50 c-46 27 -127 69 -181 93 l-97 44 84 46 c177 96 164 115 -18 27z
m-167 -87 c21 -6 22 -12 22 -93 l0 -86 -245 0 c-135 0 -245 2 -245 5 0 7 143
101 190 125 88 46 210 67 278 49z m192 -64 c52 -20 131 -56 175 -78 l80 -41
-192 -1 -193 0 0 24 c0 12 -3 51 -7 86 -7 73 -19 72 137 10z m255 -139 c7 -12
-162 -99 -287 -147 -48 -19 -90 -34 -93 -34 -3 0 -5 40 -5 90 l0 89 143 3 c78
2 163 4 189 6 25 2 49 -2 53 -7z m-421 -38 c11 -68 7 -150 -7 -156 -50 -19
-130 -18 -195 2 -67 20 -193 94 -260 152 l-32 29 177 3 c98 1 208 4 244 5 l66
2 7 -37z"/>
</g>
</svg>
