<?xml version="1.0" standalone="no"?>
<!DOCTYPE svg PUBLIC "-//W3C//DTD SVG 20010904//EN"
 "http://www.w3.org/TR/2001/REC-SVG-20010904/DTD/svg10.dtd">
<svg version="1.0" xmlns="http://www.w3.org/2000/svg"
 width="207.000000pt" height="140.000000pt" viewBox="0 0 207.000000 140.000000"
 preserveAspectRatio="xMidYMid meet">
<metadata>
Created by potrace 1.16, written by Peter Selinger 2001-2019
</metadata>
<g transform="translate(0.000000,140.000000) scale(0.100000,-0.100000)"
fill="#000000" stroke="none">
<path d="M1340 1044 c-63 -30 -117 -59 -120 -64 -4 -6 -27 -2 -57 10 -79 30
-171 42 -234 30 -77 -14 -199 -78 -307 -159 l-92 -71 -115 0 -115 0 0 -90 0
-90 118 0 117 0 80 -65 c94 -76 237 -151 314 -165 63 -12 156 0 234 30 30 12
53 16 57 10 9 -14 240 -122 253 -117 10 3 -114 82 -192 122 l-33 17 93 47 c52
26 116 61 143 78 l48 30 93 -43 c51 -24 105 -46 121 -49 l29 -7 -25 21 c-24
19 -193 113 -215 119 -6 1 -15 -8 -20 -20 -7 -16 -50 -41 -146 -85 -169 -78
-288 -113 -380 -113 -38 0 -69 1 -69 3 0 6 78 178 83 183 7 7 54 10 211 12
116 2 145 8 75 16 -19 2 -89 4 -156 5 -120 1 -121 1 -116 24 l5 22 -19 -22
c-18 -21 -20 -21 -243 -13 -124 5 -271 9 -327 10 l-103 0 0 40 0 40 103 0 c56
1 203 5 327 10 223 8 225 8 243 -13 l19 -22 -5 23 c-5 22 -4 22 111 23 65 0
137 4 162 8 36 7 23 9 -70 11 -63 1 -139 5 -168 8 l-53 7 -35 80 c-19 44 -38
86 -41 94 -11 26 159 9 263 -27 143 -48 321 -136 329 -161 4 -12 12 -21 18
-19 23 6 192 99 217 119 l25 21 -29 -7 c-16 -3 -70 -25 -121 -49 l-93 -43 -48
30 c-27 17 -91 52 -142 77 l-93 48 110 62 c174 97 163 111 -19 24z m-412 -169
l42 -85 -186 0 c-214 0 -212 -3 -82 80 78 51 153 89 173 90 6 0 30 -38 53 -85z
m1 -347 c-23 -46 -43 -85 -45 -87 -13 -14 -258 126 -279 159 -4 6 60 10 180
10 l185 0 -41 -82z"/>
</g>
</svg>
