<?xml version="1.0" standalone="no"?>
<!DOCTYPE svg PUBLIC "-//W3C//DTD SVG 20010904//EN"
 "http://www.w3.org/TR/2001/REC-SVG-20010904/DTD/svg10.dtd">
<svg version="1.0" xmlns="http://www.w3.org/2000/svg"
 width="193.000000pt" height="138.000000pt" viewBox="0 0 193.000000 138.000000"
 preserveAspectRatio="xMidYMid meet">
<metadata>
Created by potrace 1.16, written by Peter Selinger 2001-2019
</metadata>
<g transform="translate(0.000000,138.000000) scale(0.100000,-0.100000)"
fill="#000000" stroke="none">
<path d="M1020 1070 c0 -5 -6 -10 -14 -10 -9 0 -21 -25 -32 -66 l-18 -67 -328
5 c-322 6 -328 6 -328 -14 0 -19 7 -19 325 -16 359 3 333 8 319 -61 l-6 -31
-319 7 -319 6 0 -23 0 -22 320 3 320 4 0 -47 0 -47 -320 6 -320 6 0 -23 0 -23
320 5 320 5 5 -23 c3 -13 7 -35 10 -48 l5 -23 -330 5 -330 5 0 -23 0 -23 330
6 c181 3 331 3 334 -1 2 -4 7 -20 10 -37 l7 -30 -341 3 c-335 3 -340 2 -340
-17 0 -20 3 -21 344 -14 l343 6 16 -48 c12 -33 14 -52 7 -60 -10 -12 -4 -45 7
-45 3 0 90 63 194 140 l189 140 46 -29 c43 -28 119 -51 164 -51 19 0 20 8 20
176 l0 176 -54 -4 c-30 -2 -77 -16 -105 -30 l-51 -25 -194 144 c-107 78 -197
143 -200 143 -3 0 -6 -4 -6 -10z m150 -146 c63 -45 140 -97 170 -115 30 -18
57 -34 58 -35 2 -1 -4 -16 -14 -32 l-17 -30 -61 49 c-33 27 -67 49 -75 49 -7
0 -40 -18 -73 -40 -33 -22 -62 -40 -64 -40 -2 0 -5 44 -6 98 l-3 97 -37 3
c-42 4 -42 3 -27 55 6 25 14 35 22 31 7 -4 64 -44 127 -90z m-120 -64 c0 -49
-1 -50 -29 -50 -29 0 -30 1 -25 38 8 56 12 62 34 62 17 0 20 -6 20 -50z m474
-71 c-38 -37 -43 -40 -63 -28 -11 8 -21 17 -21 20 0 10 82 48 105 49 16 0 12
-8 -21 -41z m-464 -49 l0 -50 -35 0 -35 0 0 50 0 50 35 0 35 0 0 -50z m235 -2
c45 -31 71 -56 66 -61 -8 -8 -151 95 -151 108 0 10 13 3 85 -47z m-33 -24 c64
-46 80 -64 58 -64 -12 0 -140 97 -140 106 0 13 27 -1 82 -42z m189 30 c20 -10
29 -20 25 -30 -3 -9 -6 -26 -6 -39 0 -16 -11 -30 -35 -44 l-36 -21 -9 25 c-11
28 -7 74 10 104 13 25 13 25 51 5z m-276 -14 c3 -6 34 -29 68 -52 34 -23 56
-43 49 -46 -6 -2 -38 17 -71 42 -63 48 -79 66 -62 66 5 0 13 -5 16 -10z m34
-70 c35 -24 58 -46 52 -48 -13 -4 -140 88 -141 101 0 10 9 4 89 -53z m-35 -19
c37 -27 63 -52 57 -55 -6 -4 -36 14 -68 40 -75 60 -79 64 -67 64 5 0 40 -22
78 -49z m-110 -2 c12 -62 9 -69 -29 -69 -33 0 -35 2 -35 34 0 19 -3 41 -6 50
-5 13 1 16 29 16 31 0 35 -3 41 -31z m254 -76 c-38 -23 -116 -77 -174 -119
-58 -42 -106 -75 -108 -73 -2 2 -7 23 -11 47 l-7 42 39 1 38 2 -40 6 c-38 6
-40 8 -43 44 -3 35 -2 37 27 37 26 0 31 -4 31 -24 0 -14 5 -28 10 -31 6 -4 10
22 10 69 0 42 2 76 6 76 3 0 32 -18 64 -40 32 -22 65 -40 72 -40 7 1 40 23 73
49 l60 49 11 -26 c10 -26 8 -28 -58 -69z m182 31 c12 -19 33 -42 46 -51 14 -9
23 -18 20 -20 -8 -9 -100 27 -126 48 l-24 21 24 19 c33 25 35 24 60 -17z"/>
</g>
</svg>
