<?xml version="1.0" standalone="no"?>
<!DOCTYPE svg PUBLIC "-//W3C//DTD SVG 20010904//EN"
 "http://www.w3.org/TR/2001/REC-SVG-20010904/DTD/svg10.dtd">
<svg version="1.0" xmlns="http://www.w3.org/2000/svg"
 width="193.000000pt" height="138.000000pt" viewBox="0 0 193.000000 138.000000"
 preserveAspectRatio="xMidYMid meet">
<metadata>
Created by potrace 1.16, written by Peter Selinger 2001-2019
</metadata>
<g transform="translate(0.000000,138.000000) scale(0.100000,-0.100000)"
fill="#000000" stroke="none">
<path d="M1020 1070 c0 -5 -7 -10 -15 -10 -10 0 -15 -10 -15 -34 l0 -35 -345
6 -345 6 0 -26 0 -26 98 4 c53 3 208 7 345 10 l247 4 0 -42 c0 -23 3 -52 6
-65 l6 -22 -351 6 -351 7 0 -27 0 -27 208 5 c114 4 271 9 350 12 l143 5 -3
-68 c-2 -38 -7 -67 -13 -66 -5 1 -162 5 -347 9 l-338 7 0 -27 0 -26 113 0 c61
0 218 5 347 10 129 5 236 7 238 5 2 -2 7 -33 9 -69 l6 -66 -89 5 c-49 2 -209
7 -356 10 l-268 5 0 -25 0 -25 153 0 c83 1 242 5 352 10 110 4 201 7 201 7 1
-1 5 -25 9 -53 l7 -51 -361 5 -361 5 0 -22 c0 -21 1 -21 223 -20 122 1 284 4
360 8 130 6 137 5 137 -13 0 -10 -7 -24 -15 -30 -14 -10 -14 -14 -2 -30 14
-19 19 -16 108 50 52 39 138 103 192 142 l97 72 39 -26 c44 -29 120 -54 163
-54 l28 0 0 176 0 176 -54 -4 c-30 -2 -77 -16 -105 -30 l-51 -25 -194 143
c-107 79 -197 144 -200 144 -3 0 -6 -4 -6 -10z m157 -151 c70 -50 148 -103
173 -117 25 -14 46 -26 48 -27 1 -1 -5 -16 -15 -32 l-17 -31 -60 49 c-34 27
-67 49 -75 49 -8 0 -50 -23 -93 -51 -102 -68 -102 -78 2 -146 43 -29 84 -53
90 -53 6 0 40 23 75 51 36 28 65 47 65 42 0 -4 3 -17 6 -29 4 -17 -3 -26 -38
-47 -24 -14 -100 -66 -170 -116 l-128 -90 0 319 c0 176 2 320 4 320 3 0 63
-41 133 -91z m347 -130 c-38 -37 -43 -40 -63 -28 -11 8 -21 17 -21 20 0 10 82
48 105 49 16 0 12 -8 -21 -41z m-229 -51 c47 -32 70 -55 63 -59 -11 -7 -147
88 -148 104 0 13 9 8 85 -45z m26 -81 c-6 -6 -33 8 -72 39 -89 70 -86 87 5 24
48 -34 73 -57 67 -63z m130 87 c20 -10 29 -20 25 -30 -3 -9 -6 -27 -6 -40 0
-32 -65 -67 -81 -44 -11 18 -5 80 10 109 14 25 14 25 52 5z m-212 -64 c35 -24
58 -46 52 -48 -12 -4 -140 88 -141 101 0 10 9 4 89 -53z m-34 -18 c74 -54 72
-52 53 -52 -17 0 -131 85 -137 102 -5 13 6 7 84 -50z m-33 -21 c38 -27 65 -52
59 -55 -9 -6 -141 88 -141 100 0 10 16 1 82 -45z m378 -101 c12 -6 19 -14 17
-17 -9 -8 -99 25 -127 47 l-25 20 30 23 29 24 27 -43 c15 -23 37 -48 49 -54z"/>
</g>
</svg>
