<?xml version="1.0" standalone="no"?>
<!DOCTYPE svg PUBLIC "-//W3C//DTD SVG 20010904//EN"
 "http://www.w3.org/TR/2001/REC-SVG-20010904/DTD/svg10.dtd">
<svg version="1.0" xmlns="http://www.w3.org/2000/svg"
 width="131.000000pt" height="113.000000pt" viewBox="0 0 131.000000 113.000000"
 preserveAspectRatio="xMidYMid meet">
<metadata>
Created by potrace 1.16, written by Peter Selinger 2001-2019
</metadata>
<g transform="translate(0.000000,113.000000) scale(0.100000,-0.100000)"
fill="#000000" stroke="none">
<path d="M300 663 c0 -187 8 -289 21 -258 4 11 8 111 8 223 1 173 -1 202 -14
202 -13 0 -15 -25 -15 -167z"/>
<path d="M496 805 c-8 -8 -19 -15 -25 -15 -5 0 -20 -26 -32 -57 -34 -85 -32
-197 3 -278 l26 -60 78 -17 c44 -9 98 -17 121 -17 53 -1 141 17 170 35 35 22
57 113 56 229 -2 140 -5 147 -95 173 -91 28 -277 32 -302 7z m144 -95 l0 -80
-96 0 -96 0 7 37 c4 20 15 54 26 74 20 39 30 44 122 47 l37 2 0 -80z m155 67
c47 -12 50 -14 57 -52 4 -22 7 -55 7 -74 l1 -34 -92 7 c-50 3 -93 8 -96 10 -2
3 -1 39 3 80 l7 76 32 -1 c17 0 53 -6 81 -12z m-151 -223 c3 -26 6 -71 6 -100
0 -51 -1 -54 -25 -54 -14 0 -55 7 -90 16 -71 18 -78 28 -91 124 l-6 49 53 4
c30 2 75 4 100 5 l46 2 7 -46z m216 -4 c0 -27 -5 -71 -11 -98 l-10 -49 -61 -7
c-118 -12 -108 -20 -108 92 0 54 3 102 7 105 3 4 46 7 95 7 l88 0 0 -50z"/>
<path d="M978 543 c4 -328 29 -305 31 30 1 153 0 167 -17 167 -16 0 -17 -15
-14 -197z"/>
</g>
</svg>
