<?xml version="1.0" standalone="no"?>
<!DOCTYPE svg PUBLIC "-//W3C//DTD SVG 20010904//EN"
 "http://www.w3.org/TR/2001/REC-SVG-20010904/DTD/svg10.dtd">
<svg version="1.0" xmlns="http://www.w3.org/2000/svg"
 width="205.000000pt" height="169.000000pt" viewBox="0 0 205.000000 169.000000"
 preserveAspectRatio="xMidYMid meet">
<metadata>
Created by potrace 1.16, written by Peter Selinger 2001-2019
</metadata>
<g transform="translate(0.000000,169.000000) scale(0.100000,-0.100000)"
fill="#000000" stroke="none">
<path d="M530 1327 c-58 -35 -133 -81 -168 -103 l-62 -39 6 -45 c3 -25 9 -49
14 -54 16 -16 255 -185 287 -203 18 -9 34 -15 37 -12 10 10 11 512 1 516 -6 2
-57 -25 -115 -60z m100 -68 l0 -100 -32 3 -33 3 0 75 c-1 68 2 77 25 97 14 13
28 23 33 23 4 0 7 -45 7 -101z m-90 -24 c0 -63 -1 -65 -25 -65 -23 0 -25 3
-25 51 0 38 5 55 18 65 29 22 32 17 32 -51z m-70 -25 c0 -33 -3 -40 -20 -40
-16 0 -20 7 -20 34 0 31 9 43 33 45 4 1 7 -17 7 -39z m-72 -38 c-5 -2 -16 -1
-26 3 -16 6 -15 8 3 21 17 13 20 13 26 -3 3 -10 2 -20 -3 -21z m232 -153 l0
-130 -40 28 c-23 16 -38 34 -35 41 3 8 5 51 5 97 0 89 -1 87 58 94 9 1 12 -31
12 -130z m-280 106 c0 -8 5 -15 10 -15 6 0 10 7 10 15 0 8 9 15 20 15 17 0 20
-7 20 -40 0 -22 -3 -40 -6 -40 -3 0 -21 12 -40 26 -32 25 -45 54 -24 54 6 0
10 -7 10 -15z m120 -50 c0 -63 -1 -65 -20 -53 -16 10 -20 24 -20 65 0 46 3 53
20 53 18 0 20 -7 20 -65z m70 -26 c0 -93 -2 -96 -40 -63 -11 9 -14 30 -12 83
3 67 5 71 28 71 24 0 24 -1 24 -91z"/>
<path d="M1483 1285 c-7 -7 -11 -22 -9 -32 2 -10 7 -200 11 -423 4 -223 10
-409 12 -413 3 -5 54 -7 113 -5 l107 3 7 90 c3 50 6 244 6 433 1 258 4 342 13
343 7 1 -6 5 -28 10 -67 14 -218 10 -232 -6z m211 -352 c3 -186 8 -373 10
-415 l4 -78 -68 0 c-37 0 -81 3 -97 6 l-29 6 4 396 c2 219 6 399 9 402 3 3 35
8 71 11 37 3 72 7 78 7 9 2 13 -93 18 -335z"/>
<path d="M776 1261 c-6 -9 14 -35 59 -81 l68 -68 -67 -68 c-36 -37 -66 -71
-66 -76 0 -21 25 -3 82 57 45 49 65 64 79 60 13 -5 17 -2 14 7 -4 11 3 13 31
10 l36 -4 -53 -54 c-29 -29 -50 -57 -46 -61 4 -4 34 19 65 50 42 41 63 56 75
51 12 -4 16 -2 12 7 -4 10 4 14 25 15 16 1 30 0 30 -2 0 -2 -25 -26 -55 -55
-38 -36 -52 -56 -45 -63 7 -7 29 8 70 49 47 46 62 57 72 47 9 -9 4 -20 -25
-50 -20 -21 -37 -41 -37 -45 0 -20 30 -1 82 50 45 45 60 55 70 45 9 -9 4 -20
-26 -51 -26 -26 -34 -41 -26 -46 7 -5 35 15 71 51 l59 58 25 -24 c31 -29 33
-15 3 17 l-21 23 66 0 c38 0 67 4 67 10 0 6 -25 10 -56 10 -49 0 -55 2 -44 15
17 20 1 19 -22 -2 -18 -16 -22 -14 -77 41 -36 36 -64 56 -71 51 -8 -5 0 -19
25 -45 34 -34 40 -60 15 -60 -5 0 -34 25 -63 56 -35 37 -59 54 -67 49 -8 -5 0
-20 30 -50 36 -36 39 -43 24 -49 -13 -5 -33 8 -75 50 -35 35 -62 54 -69 49 -8
-5 3 -23 36 -56 l47 -48 -36 2 c-29 2 -48 13 -90 55 -29 29 -56 52 -60 52 -18
0 -3 -28 35 -67 l42 -43 -41 3 c-36 2 -48 10 -105 72 -46 49 -67 65 -72 56z
m434 -160 c0 -11 -26 -22 -34 -14 -12 12 -5 23 14 23 11 0 20 -4 20 -9z m88
-7 c-9 -9 -21 -13 -27 -10 -20 13 -11 26 16 26 25 0 26 -1 11 -16z"/>
<path d="M565 769 c-53 -31 -189 -116 -264 -166 -2 -1 0 -22 3 -47 7 -42 12
-48 94 -109 136 -100 209 -147 230 -147 19 0 20 11 27 223 7 236 6 279 -10
284 -5 1 -41 -16 -80 -38z m65 -89 l0 -100 -36 0 -36 0 5 81 c3 72 7 84 28
100 13 10 27 19 32 19 4 0 7 -45 7 -100z m-90 -31 c0 -61 -2 -70 -16 -65 -9 3
-20 6 -25 6 -5 0 -9 23 -9 51 0 38 5 55 18 65 29 22 32 17 32 -57z m-70 -19
c0 -33 -3 -40 -20 -40 -16 0 -20 7 -20 34 0 31 9 43 33 45 4 1 7 -17 7 -39z
m-64 -20 c0 -12 -7 -20 -18 -20 -25 0 -31 17 -11 29 25 15 29 14 29 -9z m224
-171 l0 -130 -40 28 c-23 16 -38 34 -35 41 3 8 5 51 5 97 l0 84 33 4 c17 2 33
5 35 5 1 1 2 -57 2 -129z m-280 106 c0 -8 5 -15 10 -15 6 0 10 7 10 15 0 8 9
15 20 15 17 0 20 -7 20 -40 0 -22 -3 -40 -6 -40 -3 0 -21 12 -40 26 -32 25
-45 54 -24 54 6 0 10 -7 10 -15z m120 -50 c0 -63 -1 -65 -20 -53 -16 10 -20
24 -20 65 0 46 3 53 20 53 18 0 20 -7 20 -65z m70 -26 l0 -91 -22 14 c-20 13
-23 25 -26 92 -3 76 -3 76 23 76 25 0 25 0 25 -91z"/>
<path d="M770 728 c0 -7 30 -42 66 -79 l66 -67 -47 -43 c-54 -49 -90 -97 -81
-107 4 -3 37 24 74 61 49 49 73 66 85 61 13 -4 16 -2 11 9 -4 12 3 15 30 15
20 0 36 -4 36 -8 0 -5 -22 -28 -50 -53 -46 -41 -62 -67 -42 -67 4 0 32 25 62
55 38 39 60 53 72 49 13 -4 16 -1 12 10 -5 12 1 16 25 16 17 0 31 -2 31 -4 0
-3 -25 -28 -55 -57 -38 -36 -52 -56 -45 -63 7 -7 29 8 70 49 47 46 62 57 72
47 9 -9 4 -20 -26 -51 -26 -26 -34 -41 -26 -46 7 -5 35 15 71 51 46 46 61 56
71 46 9 -9 4 -20 -26 -51 -26 -26 -34 -41 -26 -46 7 -5 35 15 71 51 l59 58 25
-24 c31 -29 33 -15 3 17 l-21 23 66 0 c38 0 67 4 67 10 0 6 -26 10 -57 10 -44
0 -54 3 -45 12 24 24 11 31 -13 8 l-25 -24 -59 58 c-36 36 -64 56 -71 51 -8
-5 0 -20 26 -46 30 -31 35 -42 26 -51 -10 -10 -25 0 -71 46 -36 36 -64 56 -71
51 -8 -5 2 -21 31 -51 41 -41 42 -44 19 -44 -16 0 -43 18 -76 51 -32 31 -57
49 -64 44 -8 -5 1 -21 30 -50 l42 -42 -29 -6 c-24 -5 -36 2 -83 49 -31 30 -59
54 -63 54 -18 0 -3 -28 35 -67 l42 -43 -39 3 c-35 2 -49 12 -104 70 -64 67
-81 78 -81 55z m430 -163 c-12 -15 -30 -12 -30 6 0 5 10 9 21 9 18 0 19 -2 9
-15z m94 1 c-10 -8 -21 -11 -24 -8 -3 4 -9 10 -14 15 -5 4 6 7 24 7 32 0 33
-1 14 -14z"/>
</g>
</svg>
