<?xml version="1.0" standalone="no"?>
<!DOCTYPE svg PUBLIC "-//W3C//DTD SVG 20010904//EN"
 "http://www.w3.org/TR/2001/REC-SVG-20010904/DTD/svg10.dtd">
<svg version="1.0" xmlns="http://www.w3.org/2000/svg"
 width="112.000000pt" height="102.000000pt" viewBox="0 0 112.000000 102.000000"
 preserveAspectRatio="xMidYMid meet">
<metadata>
Created by potrace 1.16, written by Peter Selinger 2001-2019
</metadata>
<g transform="translate(0.000000,102.000000) scale(0.100000,-0.100000)"
fill="#000000" stroke="none">
<path d="M390 625 l0 -95 -45 0 c-38 0 -45 -3 -45 -20 0 -17 7 -20 45 -20 l45
0 0 -95 0 -95 150 0 150 0 0 100 0 100 65 0 c37 0 65 4 65 10 0 6 -28 10 -65
10 l-65 0 0 100 0 100 -150 0 -150 0 0 -95z m280 -65 l0 -30 -130 0 -130 0 0
30 0 30 130 0 130 0 0 -30z m0 -155 l0 -95 -130 0 -130 0 0 90 0 89 123 4 c67
1 125 4 130 5 4 1 7 -41 7 -93z"/>
</g>
</svg>
