<?xml version="1.0" standalone="no"?>
<!DOCTYPE svg PUBLIC "-//W3C//DTD SVG 20010904//EN"
 "http://www.w3.org/TR/2001/REC-SVG-20010904/DTD/svg10.dtd">
<svg version="1.0" xmlns="http://www.w3.org/2000/svg"
 width="185.000000pt" height="269.000000pt" viewBox="0 0 185.000000 269.000000"
 preserveAspectRatio="xMidYMid meet">
<metadata>
Created by potrace 1.16, written by Peter Selinger 2001-2019
</metadata>
<g transform="translate(0.000000,269.000000) scale(0.100000,-0.100000)"
fill="#000000" stroke="none">
<path d="M859 2378 c-3 -45 4 -110 17 -149 18 -55 64 -104 91 -95 18 6 82 116
84 146 2 28 17 -45 18 -90 1 -33 16 -77 56 -160 l55 -115 0 -132 0 -133 -125
0 c-113 0 -151 -8 -110 -24 8 -3 15 -14 15 -25 0 -12 17 -31 43 -49 321 -221
360 -244 186 -110 -52 40 -123 96 -157 123 l-62 50 109 14 109 14 7 81 c6 76
22 166 24 139 1 -7 12 -13 25 -13 14 0 62 -9 108 -20 46 -11 98 -20 116 -20
17 0 32 -4 32 -9 0 -30 -111 -289 -159 -369 -42 -71 -39 -78 5 -17 37 51 194
360 194 381 0 7 -24 17 -52 23 -29 6 -102 25 -162 43 l-109 33 -59 125 c-57
120 -60 129 -65 223 -3 53 -9 97 -13 97 -12 0 -37 -33 -60 -80 -26 -52 -58
-90 -76 -90 -16 0 -40 81 -50 163 -4 39 -11 57 -20 57 -8 0 -14 -6 -15 -12z"/>
<path d="M784 2288 c59 -110 56 -159 -14 -259 -59 -85 -93 -164 -86 -201 5
-24 0 -37 -27 -68 l-32 -39 -23 22 c-20 18 -24 19 -32 7 -7 -11 -4 -20 12 -34
20 -16 23 -29 26 -110 5 -138 6 -146 19 -146 31 0 122 24 159 42 l42 20 93
-64 c112 -77 119 -81 119 -71 0 4 -43 41 -95 82 -52 40 -95 77 -95 81 0 4 16
34 35 65 42 71 50 94 37 107 -7 7 -20 -8 -40 -48 -16 -33 -38 -69 -48 -81
l-19 -22 -75 60 c-41 34 -76 67 -78 74 -2 7 11 29 28 49 18 20 27 36 21 36
-20 0 -11 74 15 130 14 30 44 79 66 109 52 68 62 106 49 178 -12 63 -54 143
-76 143 -11 0 -5 -17 19 -62z m-65 -680 c36 -29 68 -53 70 -55 16 -12 -110
-73 -151 -73 -4 0 -8 33 -8 74 0 70 6 106 17 106 3 0 35 -23 72 -52z"/>
<path d="M930 1948 c-22 -40 -40 -78 -40 -84 0 -13 43 -33 80 -36 25 -3 25 -3
28 95 3 122 -10 127 -68 25z m49 -70 c1 -21 -1 -38 -3 -38 -11 0 -66 23 -66
28 0 3 12 23 27 45 23 34 28 36 34 20 4 -10 8 -35 8 -55z"/>
<path d="M684 1115 c-4 -10 1 -22 15 -31 56 -39 68 -139 31 -253 l-22 -67 -72
8 c-39 4 -131 7 -203 7 -120 1 -133 -1 -133 -16 0 -17 15 -18 198 -15 l197 3
-3 -80 c-3 -61 1 -97 17 -150 26 -85 113 -221 142 -221 32 0 141 182 162 271
l7 27 187 6 c104 4 214 9 246 12 53 5 57 3 57 -16 0 -35 18 -22 24 18 3 20 8
88 12 150 l6 112 -93 0 c-136 0 -416 19 -459 30 -53 14 -84 51 -77 90 6 25 3
30 -13 30 -12 0 -20 -7 -21 -17 -4 -66 21 -110 79 -136 44 -20 62 -21 264 -20
120 1 231 4 248 8 l30 7 0 -118 0 -117 -82 6 c-46 4 -156 7 -245 7 l-162 0 -7
38 c-18 106 -30 137 -53 140 -20 3 -23 0 -17 -15 17 -44 36 -142 36 -188 0
-91 -105 -330 -134 -306 -24 20 -86 168 -102 242 -18 85 -13 135 22 253 38
125 31 221 -19 274 -34 37 -56 46 -63 27z"/>
</g>
</svg>
