<?xml version="1.0" standalone="no"?>
<!DOCTYPE svg PUBLIC "-//W3C//DTD SVG 20010904//EN"
 "http://www.w3.org/TR/2001/REC-SVG-20010904/DTD/svg10.dtd">
<svg version="1.0" xmlns="http://www.w3.org/2000/svg"
 width="156.000000pt" height="147.000000pt" viewBox="0 0 156.000000 147.000000"
 preserveAspectRatio="xMidYMid meet">
<metadata>
Created by potrace 1.16, written by Peter Selinger 2001-2019
</metadata>
<g transform="translate(0.000000,147.000000) scale(0.100000,-0.100000)"
fill="#000000" stroke="none">
<path d="M1135 1107 c-115 -66 -399 -245 -434 -275 l-21 -17 30 -47 c17 -27
30 -50 30 -52 0 -2 -9 -6 -20 -9 -11 -3 -20 -11 -19 -19 1 -25 530 -395 549
-383 12 7 14 865 3 865 -5 0 -57 -28 -118 -63z m92 -273 c-1 -2 -103 0 -225 3
l-222 6 222 147 223 146 3 -149 c1 -83 1 -151 -1 -153z m-130 -74 l22 -50 -38
0 c-34 0 -39 4 -58 44 -12 24 -19 47 -16 50 4 3 20 6 37 6 27 0 34 -6 53 -50z
m133 -6 c0 -54 -1 -56 -22 -50 -13 3 -33 6 -44 6 -12 0 -24 6 -27 13 -3 6 -12
29 -21 50 l-16 37 65 0 65 0 0 -56z m-412 1 l22 -45 -38 0 c-34 0 -40 4 -55
35 -23 49 -22 55 16 55 28 -1 35 -6 55 -45z m89 -1 l23 -45 -37 3 c-32 3 -38
8 -54 46 l-18 42 32 0 c28 -1 35 -7 54 -46z m88 9 c11 -21 21 -41 23 -45 2 -5
-12 -8 -32 -8 -36 0 -44 8 -66 64 -9 25 -8 26 23 26 28 0 36 -6 52 -37z m235
-130 c0 -32 3 -116 7 -187 l6 -129 -238 179 -237 179 198 5 c110 3 214 7 232
8 l32 2 0 -57z"/>
<path d="M300 885 c0 -13 22 -15 143 -15 78 0 172 3 209 6 128 13 56 24 -148
24 -175 0 -204 -2 -204 -15z"/>
<path d="M300 645 c0 -13 24 -15 158 -15 175 0 271 8 250 21 -7 5 -102 9 -210
9 -169 0 -198 -2 -198 -15z"/>
</g>
</svg>
