<?xml version="1.0" standalone="no"?>
<!DOCTYPE svg PUBLIC "-//W3C//DTD SVG 20010904//EN"
 "http://www.w3.org/TR/2001/REC-SVG-20010904/DTD/svg10.dtd">
<svg version="1.0" xmlns="http://www.w3.org/2000/svg"
 width="197.000000pt" height="167.000000pt" viewBox="0 0 197.000000 167.000000"
 preserveAspectRatio="xMidYMid meet">
<metadata>
Created by potrace 1.16, written by Peter Selinger 2001-2019
</metadata>
<g transform="translate(0.000000,167.000000) scale(0.100000,-0.100000)"
fill="#000000" stroke="none">
<path d="M1265 1338 c-424 -264 -474 -308 -492 -433 l-6 -47 -56 6 c-31 3
-135 6 -231 7 -172 2 -175 1 -178 -20 -3 -21 -1 -21 125 -20 70 1 175 4 232 8
87 5 104 4 108 -9 21 -75 62 -92 224 -92 63 0 128 2 145 6 l29 6 105 -205 c57
-112 112 -214 121 -226 l16 -22 101 53 c161 86 152 64 81 210 -80 164 -90 188
-79 195 15 10 160 207 160 218 0 7 -69 8 -212 3 l-213 -7 128 124 128 124 -82
77 c-45 42 -87 76 -93 75 -6 0 -33 -14 -61 -31z m163 -85 l43 -38 -56 -47
c-31 -26 -90 -79 -130 -117 -72 -66 -74 -69 -62 -96 l12 -27 100 6 c55 4 142
11 193 17 52 6 96 9 98 7 2 -3 -26 -48 -63 -102 l-67 -98 -15 31 c-14 29 -30
39 -44 25 -3 -4 8 -33 24 -66 17 -33 29 -61 27 -63 -2 -2 -38 -17 -80 -35 -52
-22 -75 -36 -71 -46 4 -10 24 -4 84 26 l79 40 25 -51 c15 -28 25 -52 23 -54
-2 -1 -34 -16 -73 -33 -38 -17 -71 -35 -73 -41 -6 -19 21 -12 90 23 l67 35 30
-50 c17 -27 31 -53 31 -57 0 -4 -50 -30 -110 -59 l-110 -51 -27 61 c-15 34
-55 118 -88 187 -34 69 -74 153 -90 188 -27 58 -46 75 -60 52 -3 -5 0 -18 7
-29 7 -11 9 -23 5 -27 -3 -4 -69 -3 -145 2 -174 12 -192 21 -192 96 0 66 17
120 49 158 l26 30 83 -70 c46 -39 88 -70 95 -70 7 1 -25 36 -70 80 l-83 79 40
31 c22 18 86 63 142 101 l102 69 41 -38 c84 -78 105 -95 105 -85 0 5 -27 40
-60 75 l-60 66 47 30 47 31 35 -29 c20 -16 55 -46 79 -67z"/>
<path d="M300 1035 l0 -28 193 7 c355 12 365 29 24 41 l-217 7 0 -27z"/>
<path d="M300 655 l0 -28 203 7 c111 4 218 11 237 15 l35 8 -30 6 c-16 3 -123
9 -237 13 l-208 6 0 -27z"/>
</g>
</svg>
