<?xml version="1.0" standalone="no"?>
<!DOCTYPE svg PUBLIC "-//W3C//DTD SVG 20010904//EN"
 "http://www.w3.org/TR/2001/REC-SVG-20010904/DTD/svg10.dtd">
<svg version="1.0" xmlns="http://www.w3.org/2000/svg"
 width="227.000000pt" height="114.000000pt" viewBox="0 0 227.000000 114.000000"
 preserveAspectRatio="xMidYMid meet">
<metadata>
Created by potrace 1.16, written by Peter Selinger 2001-2019
</metadata>
<g transform="translate(0.000000,114.000000) scale(0.100000,-0.100000)"
fill="#000000" stroke="none">
<path d="M905 800 c-7 -41 0 -313 11 -437 l6 -63 526 1 c290 1 519 3 509 6
-18 5 -19 17 -12 259 l7 254 -51 0 c-32 0 -50 4 -46 10 7 12 -8 14 -19 3 -9
-9 -576 -6 -787 3 l-137 6 -7 -42z m790 -110 c-44 -44 -54 -50 -92 -50 -40 0
-45 4 -103 73 l-61 72 123 5 123 5 30 -27 29 -28 -49 -50z m92 93 c-16 -16
-18 -16 -34 0 -16 16 -15 17 17 17 32 0 33 -1 17 -17z m117 -20 c3 -21 6 -57
6 -80 0 -38 -3 -43 -22 -42 -15 0 -37 18 -64 52 l-41 53 21 26 c15 20 30 27
57 27 34 1 37 -1 43 -36z m-654 -49 l0 -64 -30 0 -30 0 0 63 c0 35 2 66 5 69
3 3 17 3 30 0 24 -4 25 -8 25 -68z m200 6 c34 -39 61 -72 59 -73 -2 -1 -55 -1
-116 1 l-113 3 0 70 0 69 54 0 53 0 63 -70z m-470 -5 c0 -58 -2 -65 -20 -65
-18 0 -20 7 -20 58 0 61 4 72 27 72 9 0 13 -17 13 -65z m80 0 c0 -58 -2 -65
-20 -65 -18 0 -20 7 -20 65 0 58 2 65 20 65 18 0 20 -7 20 -65z m100 0 l0 -65
-35 0 -35 0 0 65 0 65 35 0 35 0 0 -65z m636 -73 c-20 -2 -52 -2 -71 0 l-36 3
32 38 32 38 39 -38 39 -38 -35 -3z m72 -44 l21 -23 -46 -52 c-41 -49 -48 -53
-87 -53 -39 0 -47 4 -86 51 -53 63 -47 81 26 90 111 13 149 10 172 -13z m42 6
c0 -8 -4 -12 -10 -9 -5 3 -10 10 -10 16 0 5 5 9 10 9 6 0 10 -7 10 -16z m-750
-61 l0 -63 -35 0 -35 0 0 58 c0 32 2 61 5 63 2 3 18 5 35 4 l30 0 0 -62z m90
2 l0 -65 -30 0 c-30 0 -30 0 -30 59 0 60 5 69 43 70 14 1 17 -8 17 -64z m315
45 c18 -20 18 -21 -28 -68 -43 -44 -52 -48 -90 -46 -23 0 -70 2 -104 3 l-63 1
0 65 0 65 133 0 c122 0 136 -2 152 -20z m52 14 c-3 -3 -12 -4 -19 -1 -8 3 -5
6 6 6 11 1 17 -2 13 -5z m-636 -31 c0 -16 2 -43 5 -60 3 -30 1 -33 -21 -33
-24 0 -25 3 -25 60 0 53 2 60 20 60 15 0 20 -7 21 -27z m79 -33 c0 -57 -1 -60
-25 -60 -23 0 -25 4 -25 44 0 57 8 76 31 76 17 0 19 -8 19 -60z m554 -68 c-36
-2 -69 0 -72 3 -3 3 10 21 28 40 l34 35 39 -37 38 -38 -67 -3z m293 -8 c-2 -2
-18 -1 -35 2 l-32 6 33 41 32 41 3 -43 c2 -24 1 -45 -1 -47z m-137 -24 c0 -5
-4 -10 -10 -10 -5 0 -10 5 -10 10 0 6 5 10 10 10 6 0 10 -4 10 -10z m144 -27
c3 -21 6 -53 6 -70 0 -30 -3 -33 -29 -33 -21 0 -39 12 -71 46 l-42 46 23 24
c17 18 33 24 64 24 41 0 43 -1 49 -37z m-660 5 c3 -13 6 -38 6 -55 0 -26 -4
-33 -19 -33 -11 0 -26 -3 -35 -6 -13 -5 -16 3 -16 49 0 50 2 56 23 60 12 2 25
5 28 6 4 0 9 -9 13 -21z m196 14 c0 -5 -14 -21 -30 -37 -21 -20 -29 -36 -26
-50 5 -19 1 -20 -60 -17 -53 3 -64 7 -60 19 3 8 6 30 6 48 0 33 2 34 43 38 83
7 127 7 127 -1z m280 -7 c10 -12 6 -22 -19 -53 -17 -22 -28 -42 -24 -46 3 -3
-58 -6 -137 -6 -112 0 -140 3 -133 13 5 6 27 33 47 60 l38 47 108 0 c83 0 110
-3 120 -15z m-740 -45 c0 -49 0 -50 -31 -50 -28 0 -31 3 -25 23 3 12 6 34 6
50 0 22 4 27 25 27 23 0 25 -3 25 -50z m80 0 c0 -49 -1 -50 -30 -50 -29 0 -30
1 -30 50 0 49 1 50 30 50 29 0 30 -1 30 -50z m100 1 c0 -53 -6 -60 -52 -53
-26 4 -28 7 -28 53 l0 49 40 0 40 0 0 -49z m641 -38 c22 -23 27 -34 16 -30
-10 4 -39 7 -63 7 l-45 0 21 30 c12 17 25 30 29 30 4 0 23 -16 42 -37z"/>
<path d="M300 795 l0 -28 228 6 c443 13 459 32 36 43 l-264 7 0 -28z"/>
<path d="M300 575 l0 -28 263 6 c278 8 373 18 262 30 -33 3 -165 9 -292 13
l-233 7 0 -28z"/>
<path d="M300 348 l0 -21 281 6 c155 3 285 9 291 15 13 13 -145 22 -379 22
-191 0 -193 0 -193 -22z"/>
</g>
</svg>
