<?xml version="1.0" standalone="no"?>
<!DOCTYPE svg PUBLIC "-//W3C//DTD SVG 20010904//EN"
 "http://www.w3.org/TR/2001/REC-SVG-20010904/DTD/svg10.dtd">
<svg version="1.0" xmlns="http://www.w3.org/2000/svg"
 width="160.000000pt" height="135.000000pt" viewBox="0 0 160.000000 135.000000"
 preserveAspectRatio="xMidYMid meet">
<metadata>
Created by potrace 1.16, written by Peter Selinger 2001-2019
</metadata>
<g transform="translate(0.000000,135.000000) scale(0.100000,-0.100000)"
fill="#000000" stroke="none">
<path d="M322 953 c2 -71 0 -97 -9 -100 -15 -5 -18 -258 -6 -447 l6 -108 487
3 488 3 6 59 c3 33 6 156 6 273 l0 214 -187 2 c-104 0 -192 2 -198 3 -5 2 -98
3 -205 4 l-195 1 3 95 c3 89 2 95 -17 95 -18 0 -19 -5 -14 -95 l6 -95 -31 0
-30 0 5 95 c6 94 6 95 -17 95 -23 0 -23 -1 -16 -95 l6 -95 -31 0 -32 0 5 95
c5 89 4 95 -14 95 -19 0 -20 -6 -16 -97z m938 -205 l0 -81 -127 6 c-71 4 -235
7 -365 7 l-238 0 0 64 0 64 313 9 c171 5 336 10 365 11 l52 2 0 -82z m-769
-25 c1 -49 4 -154 8 -236 l6 -147 -89 0 -89 0 7 77 c3 42 6 147 6 235 l0 158
75 0 75 0 1 -87z m103 -110 c11 -69 9 -73 -29 -73 l-35 0 0 55 c0 54 1 55 29
55 25 0 29 -4 35 -37z m94 -20 l4 -53 -36 0 -36 0 0 56 0 55 33 -3 c31 -3 32
-4 35 -55z m82 40 c0 -10 3 -35 6 -55 l7 -38 -37 0 -36 0 0 55 c0 54 0 55 30
55 22 0 30 -5 30 -17z m490 -45 l0 -61 -157 6 c-87 4 -191 7 -230 7 l-73 0 0
55 0 55 230 0 230 0 0 -62z m4 -94 c3 -9 6 -52 6 -95 0 -72 -2 -80 -17 -75
-10 3 -179 8 -377 12 l-359 7 7 81 c3 45 6 82 6 84 0 1 164 2 364 2 323 0 365
-2 370 -16z"/>
</g>
</svg>
