<?xml version="1.0" standalone="no"?>
<!DOCTYPE svg PUBLIC "-//W3C//DTD SVG 20010904//EN"
 "http://www.w3.org/TR/2001/REC-SVG-20010904/DTD/svg10.dtd">
<svg version="1.0" xmlns="http://www.w3.org/2000/svg"
 width="185.000000pt" height="143.000000pt" viewBox="0 0 185.000000 143.000000"
 preserveAspectRatio="xMidYMid meet">
<metadata>
Created by potrace 1.16, written by Peter Selinger 2001-2019
</metadata>
<g transform="translate(0.000000,143.000000) scale(0.100000,-0.100000)"
fill="#000000" stroke="none">
<path d="M684 1119 c-4 -7 2 -19 13 -28 61 -48 72 -131 33 -251 -17 -54 -26
-70 -38 -65 -8 3 -100 8 -204 12 l-188 6 0 -23 0 -23 201 7 202 7 -7 -23 c-3
-13 -6 -43 -6 -68 l0 -45 -82 7 c-46 3 -134 7 -195 7 -109 1 -113 0 -113 -21
0 -21 0 -21 193 -15 l193 6 22 -74 c21 -72 112 -223 139 -232 25 -9 139 178
162 263 l11 41 222 7 c122 3 232 9 244 12 17 4 24 0 30 -18 7 -23 7 -22 15 6
5 16 11 85 15 153 l7 123 -134 0 c-203 0 -394 17 -445 40 -44 19 -59 45 -52
86 2 11 -4 20 -14 22 -30 6 -25 -79 7 -117 44 -51 75 -56 348 -55 l247 1 0
-110 0 -110 -97 6 c-54 4 -164 7 -245 7 l-146 0 -7 33 c-26 132 -28 137 -50
137 l-21 0 17 -67 c24 -91 23 -166 -1 -239 -24 -71 -91 -196 -105 -197 -15 0
-72 108 -96 183 -29 89 -28 204 1 285 12 33 24 96 27 140 5 69 3 87 -16 122
-19 38 -54 73 -73 73 -4 0 -10 -5 -14 -11z"/>
<path d="M300 902 c0 -21 5 -22 78 -22 138 0 323 13 314 22 -4 4 -95 11 -200
15 l-192 6 0 -21z"/>
</g>
</svg>
