<?xml version="1.0" standalone="no"?>
<!DOCTYPE svg PUBLIC "-//W3C//DTD SVG 20010904//EN"
 "http://www.w3.org/TR/2001/REC-SVG-20010904/DTD/svg10.dtd">
<svg version="1.0" xmlns="http://www.w3.org/2000/svg"
 width="138.000000pt" height="160.000000pt" viewBox="0 0 138.000000 160.000000"
 preserveAspectRatio="xMidYMid meet">
<metadata>
Created by potrace 1.16, written by Peter Selinger 2001-2019
</metadata>
<g transform="translate(0.000000,160.000000) scale(0.100000,-0.100000)"
fill="#000000" stroke="none">
<path d="M857 1222 c-84 -74 -157 -154 -157 -174 0 -6 -78 -7 -200 -2 -182 6
-200 5 -200 -10 0 -14 21 -16 194 -16 l195 0 -9 -27 c-4 -16 -11 -41 -14 -56
l-7 -28 -179 7 c-164 6 -180 6 -180 -9 0 -15 19 -17 180 -17 l180 0 -3 -55 -2
-55 -177 0 c-159 0 -178 -2 -178 -17 0 -15 16 -16 178 -10 l178 7 12 -82 c17
-103 66 -191 171 -300 100 -106 109 -105 200 26 45 66 47 71 27 79 -10 4 -23
-7 -38 -31 -12 -20 -38 -62 -57 -92 l-34 -54 -63 69 c-35 39 -90 115 -122 170
-48 81 -61 111 -65 158 l-6 57 40 0 c24 0 38 4 34 10 -3 6 -22 10 -41 10 -33
0 -34 1 -34 39 0 57 8 71 40 71 16 0 32 5 35 10 4 6 -8 10 -29 10 -28 0 -36 4
-35 18 0 10 3 12 6 5 5 -14 65 -17 162 -7 98 11 70 24 -50 24 -111 0 -111 0
-105 23 3 12 6 25 6 30 0 4 12 13 28 19 22 9 24 12 9 15 -10 3 -16 10 -14 16
2 8 38 13 103 14 54 2 110 6 124 10 23 6 21 7 -15 14 -22 4 -69 8 -104 8 l-65
1 30 31 c16 17 54 53 86 80 l56 49 35 -62 34 -63 -27 -55 c-15 -30 -33 -73
-40 -95 -7 -22 -16 -44 -20 -50 -5 -5 -11 -31 -15 -57 l-7 -48 -104 0 c-89 0
-104 -2 -104 -16 0 -14 13 -16 100 -12 l99 4 11 -49 c5 -26 10 -51 10 -55 0
-4 -49 -5 -110 -4 -99 3 -110 2 -110 -13 0 -16 11 -17 110 -13 l110 4 40 -61
c39 -60 96 -123 104 -114 2 2 -24 49 -59 104 -48 76 -65 112 -70 151 -9 68 15
166 67 276 39 81 41 89 30 125 -14 44 -69 143 -80 143 -4 -1 -47 -36 -95 -78z"/>
<path d="M300 1146 c0 -14 23 -16 224 -16 139 0 227 4 231 10 4 7 -56 10 -172
10 -98 0 -202 3 -230 6 -45 6 -53 4 -53 -10z"/>
<path d="M744 596 c-4 -9 -4 -19 -1 -23 10 -9 217 8 217 18 0 5 -40 9 -89 9
-49 0 -96 3 -105 6 -10 4 -18 0 -22 -10z"/>
<path d="M810 475 c0 -12 15 -15 79 -15 43 0 94 3 112 7 33 7 33 7 9 14 -14 4
-64 7 -112 8 -72 1 -88 -2 -88 -14z"/>
</g>
</svg>
