<?xml version="1.0" standalone="no"?>
<!DOCTYPE svg PUBLIC "-//W3C//DTD SVG 20010904//EN"
 "http://www.w3.org/TR/2001/REC-SVG-20010904/DTD/svg10.dtd">
<svg version="1.0" xmlns="http://www.w3.org/2000/svg"
 width="131.000000pt" height="138.000000pt" viewBox="0 0 131.000000 138.000000"
 preserveAspectRatio="xMidYMid meet">
<metadata>
Created by potrace 1.16, written by Peter Selinger 2001-2019
</metadata>
<g transform="translate(0.000000,138.000000) scale(0.100000,-0.100000)"
fill="#000000" stroke="none">
<path d="M305 928 c4 -84 13 -251 20 -370 8 -120 12 -224 9 -232 -8 -21 15
-31 29 -13 7 9 109 70 227 135 285 158 413 235 413 247 0 21 -647 385 -683
385 -21 0 -21 -2 -15 -152z m140 27 c2 -11 9 -103 15 -205 6 -102 14 -214 17
-250 l5 -65 -57 -28 c-32 -15 -58 -27 -60 -25 -1 2 -5 146 -9 320 l-6 318 45
-22 c28 -14 47 -30 50 -43z m300 -138 l246 -123 -129 -62 -130 -63 -37 26
c-41 27 -55 31 -55 15 0 -6 16 -18 35 -27 19 -9 35 -19 35 -22 0 -3 -47 -30
-105 -59 l-105 -52 0 105 c0 82 3 105 13 99 6 -4 31 -20 55 -36 71 -48 70 -26
-1 27 -47 36 -66 57 -67 73 l0 23 43 -29 c56 -39 87 -54 87 -45 0 10 -105 93
-118 93 -5 0 -12 14 -14 30 l-5 30 26 -17 c14 -9 41 -27 60 -39 19 -13 37 -21
40 -18 8 8 -67 71 -101 86 -19 9 -28 21 -28 35 0 13 2 23 5 23 3 0 30 -16 60
-37 31 -20 58 -34 61 -31 5 6 -91 86 -113 95 -12 5 -18 23 -8 23 2 0 115 -55
250 -123z"/>
<path d="M660 810 c0 -5 18 -19 40 -30 48 -24 54 -8 8 20 -37 22 -48 25 -48
10z"/>
<path d="M655 750 c-6 -10 51 -50 74 -50 19 0 1 20 -38 43 -18 11 -32 14 -36
7z"/>
<path d="M655 679 c-8 -12 -9 -12 32 -33 64 -32 67 -10 4 27 -20 12 -32 14
-36 6z"/>
</g>
</svg>
