<?xml version="1.0" standalone="no"?>
<!DOCTYPE svg PUBLIC "-//W3C//DTD SVG 20010904//EN"
 "http://www.w3.org/TR/2001/REC-SVG-20010904/DTD/svg10.dtd">
<svg version="1.0" xmlns="http://www.w3.org/2000/svg"
 width="127.000000pt" height="138.000000pt" viewBox="0 0 127.000000 138.000000"
 preserveAspectRatio="xMidYMid meet">
<metadata>
Created by potrace 1.16, written by Peter Selinger 2001-2019
</metadata>
<g transform="translate(0.000000,138.000000) scale(0.100000,-0.100000)"
fill="#000000" stroke="none">
<path d="M890 1037 c-36 -22 -125 -78 -198 -124 l-134 -83 -123 0 c-103 0
-124 -3 -129 -16 -8 -21 -8 -203 0 -244 l7 -32 108 8 108 7 153 -90 c210 -124
278 -163 284 -163 2 0 4 176 4 390 0 215 -3 390 -7 389 -5 0 -37 -19 -73 -42z
m52 -155 c3 -106 1 -121 -12 -116 -61 26 -105 37 -167 42 l-73 5 0 -123 0
-123 73 6 c39 3 96 14 126 26 30 11 56 19 58 17 2 -2 2 -67 1 -144 l-3 -141
-203 133 c-112 74 -206 136 -209 139 -3 3 -2 42 2 87 l7 80 197 133 c137 93
197 128 198 118 1 -9 4 -71 5 -139z m-434 -202 c1 -47 -1 -90 -5 -95 -5 -7
-42 -9 -96 -7 -85 4 -89 5 -83 26 3 11 6 60 6 108 l0 87 83 3 c97 4 93 8 95
-122z m314 105 c106 -22 121 -33 125 -93 2 -48 1 -51 -30 -65 -38 -18 -94 -33
-159 -42 l-47 -6 16 31 c16 32 15 134 -2 173 -9 21 6 22 97 2z"/>
</g>
</svg>
