<?xml version="1.0" standalone="no"?>
<!DOCTYPE svg PUBLIC "-//W3C//DTD SVG 20010904//EN"
 "http://www.w3.org/TR/2001/REC-SVG-20010904/DTD/svg10.dtd">
<svg version="1.0" xmlns="http://www.w3.org/2000/svg"
 width="127.000000pt" height="138.000000pt" viewBox="0 0 127.000000 138.000000"
 preserveAspectRatio="xMidYMid meet">
<metadata>
Created by potrace 1.16, written by Peter Selinger 2001-2019
</metadata>
<g transform="translate(0.000000,138.000000) scale(0.100000,-0.100000)"
fill="#000000" stroke="none">
<path d="M920 1056 c-148 -97 -382 -236 -399 -236 -10 0 -21 -4 -23 -10 -2 -5
-38 -3 -92 6 -74 13 -90 13 -97 2 -10 -15 -11 -236 -1 -259 6 -14 15 -14 95 2
l88 18 97 -61 c109 -68 368 -218 377 -218 3 0 5 176 5 390 0 215 -3 390 -7
389 -5 0 -24 -11 -43 -23z m25 -375 c6 -294 4 -352 -7 -345 -7 4 -94 61 -192
126 -99 65 -184 118 -189 118 -5 0 -7 7 -3 15 3 9 0 15 -10 15 -12 0 -14 14
-12 76 3 66 6 78 23 85 11 4 16 8 11 8 -5 1 76 59 180 129 104 71 190 128 190
128 1 -1 5 -160 9 -355z m-448 95 c1 -1 3 -39 5 -85 l3 -85 -89 -13 c-49 -7
-90 -12 -91 -10 -1 1 0 49 3 105 l4 104 82 -7 c44 -4 82 -8 83 -9z"/>
<path d="M820 838 c-123 -74 -189 -122 -194 -141 -3 -11 -4 -22 -3 -23 16 -12
173 -107 203 -122 l41 -21 7 52 c3 29 6 98 6 153 0 120 -8 133 -60 102z m33
-276 c0 -2 -45 27 -98 64 -53 36 -93 70 -88 75 4 4 46 35 93 68 l85 61 5 -133
c3 -72 4 -133 3 -135z"/>
</g>
</svg>
