<?xml version="1.0" standalone="no"?>
<!DOCTYPE svg PUBLIC "-//W3C//DTD SVG 20010904//EN"
 "http://www.w3.org/TR/2001/REC-SVG-20010904/DTD/svg10.dtd">
<svg version="1.0" xmlns="http://www.w3.org/2000/svg"
 width="139.000000pt" height="139.000000pt" viewBox="0 0 139.000000 139.000000"
 preserveAspectRatio="xMidYMid meet">
<metadata>
Created by potrace 1.16, written by Peter Selinger 2001-2019
</metadata>
<g transform="translate(0.000000,139.000000) scale(0.100000,-0.100000)"
fill="#000000" stroke="none">
<path d="M1000 1063 c-25 -15 -121 -74 -213 -131 l-168 -104 -114 7 c-106 6
-115 6 -122 -12 -4 -10 -24 -41 -45 -70 -21 -29 -38 -58 -38 -64 0 -16 92
-159 103 -159 4 0 7 5 7 10 0 6 40 10 100 10 l100 0 147 -88 c245 -147 282
-166 281 -145 0 10 3 114 7 231 7 197 9 212 27 212 10 0 18 5 18 10 0 6 -9 10
-20 10 -20 0 -21 4 -18 155 2 85 1 155 -2 155 -3 -1 -25 -13 -50 -27z m-19
-281 c-18 -2 -34 -2 -36 0 -3 3 -14 83 -14 111 -1 31 -37 18 -83 -31 -25 -26
-50 -64 -57 -83 -6 -19 -22 -56 -35 -84 -14 -27 -22 -52 -20 -55 3 -3 9 2 14
10 32 56 35 56 68 -3 17 -30 35 -58 41 -61 5 -3 -4 -31 -21 -61 l-29 -54 -87
56 c-48 31 -95 61 -105 67 -14 9 -17 20 -13 51 3 22 5 60 5 85 1 44 3 47 55
79 30 18 119 77 198 132 l143 99 5 -127 5 -128 -34 -3z m-71 36 l0 -38 -46 0
-46 0 17 28 c10 15 27 37 38 50 25 27 37 15 37 -40z m-332 -120 l-3 -113 -92
-3 -91 -3 -30 55 -29 54 33 54 c32 51 35 53 86 59 29 3 70 6 91 7 l38 2 -3
-112z m332 -39 c0 -88 -2 -100 -15 -89 -35 29 -93 159 -80 180 3 5 26 10 51
10 l44 0 0 -101z m104 55 c3 -26 6 -123 6 -215 l0 -169 -95 62 c-52 35 -95 66
-95 71 0 4 11 25 25 46 31 50 52 46 85 -15 14 -24 28 -44 32 -44 11 0 11 4
-17 66 -26 58 -32 127 -19 207 6 34 9 37 39 37 31 0 33 -2 39 -46z"/>
</g>
</svg>
