<?xml version="1.0" standalone="no"?>
<!DOCTYPE svg PUBLIC "-//W3C//DTD SVG 20010904//EN"
 "http://www.w3.org/TR/2001/REC-SVG-20010904/DTD/svg10.dtd">
<svg version="1.0" xmlns="http://www.w3.org/2000/svg"
 width="134.000000pt" height="139.000000pt" viewBox="0 0 134.000000 139.000000"
 preserveAspectRatio="xMidYMid meet">
<metadata>
Created by potrace 1.16, written by Peter Selinger 2001-2019
</metadata>
<g transform="translate(0.000000,139.000000) scale(0.100000,-0.100000)"
fill="#000000" stroke="none">
<path d="M953 1077 c-40 -22 -117 -69 -262 -160 l-143 -89 -113 7 c-107 6
-114 6 -124 -13 -12 -22 -15 -229 -5 -256 5 -13 25 -16 119 -16 l113 0 79 -48
c86 -54 342 -202 347 -202 2 0 5 66 5 147 1 80 4 150 7 155 3 4 16 8 29 8 13
0 27 5 30 10 4 6 -7 10 -24 10 l-31 0 0 79 0 80 33 4 32 3 -33 9 -33 8 3 138
c2 77 1 139 -2 139 -3 0 -15 -6 -27 -13z m-13 -150 c0 -113 0 -113 -24 -112
-14 0 -33 12 -46 28 -12 15 -26 24 -32 21 -5 -4 0 -16 13 -30 12 -13 18 -24
12 -24 -6 0 -22 13 -36 29 -28 34 -45 29 -22 -6 22 -33 10 -28 -25 10 -17 19
-30 26 -30 18 0 -8 7 -23 17 -33 14 -16 14 -18 0 -18 -8 0 -25 14 -37 30 -12
17 -26 27 -32 24 -5 -4 -1 -15 11 -28 12 -12 21 -25 21 -29 0 -12 -35 7 -51
27 -16 19 -12 23 100 99 64 43 123 85 131 93 8 8 18 14 22 14 4 0 8 -51 8
-113z m-270 -112 l23 -24 -37 -41 c-20 -22 -36 -43 -36 -46 0 -3 15 -24 34
-47 l34 -42 -31 -37 -32 -38 -48 32 -49 32 4 83 4 83 49 35 c28 18 53 34 56
34 3 1 16 -10 29 -24z m-170 -57 c1 -29 3 -70 6 -91 3 -21 3 -49 0 -63 -6 -23
-9 -24 -97 -24 l-91 0 6 31 c3 17 6 67 6 110 l0 78 53 4 c28 2 67 4 85 5 l32
2 0 -52z m215 -8 c-16 -16 -25 -33 -21 -37 4 -5 20 6 35 23 39 43 69 54 39 14
-30 -41 -15 -50 18 -11 14 18 29 29 32 26 3 -2 -3 -14 -13 -25 -10 -11 -15
-23 -11 -27 4 -5 20 8 36 27 16 19 31 32 34 29 4 -3 0 -12 -9 -19 -14 -12 -21
-40 -9 -40 3 0 17 14 31 30 21 26 28 29 41 18 13 -11 15 -10 9 5 -3 9 -2 17 3
17 6 0 10 -34 9 -77 0 -43 -3 -72 -6 -65 -4 9 -9 10 -18 2 -10 -8 -19 -3 -39
21 -31 37 -46 33 -21 -5 24 -37 7 -32 -26 7 -15 17 -30 29 -35 25 -4 -5 0 -16
9 -26 10 -10 17 -23 17 -28 -1 -5 -14 6 -30 25 -33 39 -51 37 -25 -3 24 -36 8
-33 -32 6 -38 37 -53 33 -22 -5 16 -22 17 -27 5 -27 -15 0 -66 59 -66 76 1 13
44 60 61 67 30 12 32 6 4 -23z m-1 -175 c-35 -46 -16 -45 30 1 39 39 64 40 28
1 -12 -13 -22 -30 -22 -38 1 -8 16 4 35 26 19 22 35 36 35 31 0 -5 -7 -18 -17
-28 -9 -10 -13 -21 -9 -26 4 -4 21 8 38 26 16 19 32 31 35 28 4 -3 -4 -17 -17
-31 -19 -20 -20 -25 -7 -25 8 0 25 14 37 30 19 26 24 29 38 18 13 -11 15 -10
9 5 -3 9 -2 17 3 17 15 0 21 -59 18 -172 l-3 -107 -147 97 c-81 53 -147 100
-147 104 -1 11 66 78 78 78 7 0 0 -16 -15 -35z"/>
</g>
</svg>
