<?xml version="1.0" standalone="no"?>
<!DOCTYPE svg PUBLIC "-//W3C//DTD SVG 20010904//EN"
 "http://www.w3.org/TR/2001/REC-SVG-20010904/DTD/svg10.dtd">
<svg version="1.0" xmlns="http://www.w3.org/2000/svg"
 width="127.000000pt" height="138.000000pt" viewBox="0 0 127.000000 138.000000"
 preserveAspectRatio="xMidYMid meet">
<metadata>
Created by potrace 1.16, written by Peter Selinger 2001-2019
</metadata>
<g transform="translate(0.000000,138.000000) scale(0.100000,-0.100000)"
fill="#000000" stroke="none">
<path d="M920 1056 c-19 -13 -109 -69 -200 -125 l-165 -101 -121 0 c-102 0
-123 -3 -128 -16 -8 -20 -8 -222 0 -252 6 -22 8 -23 118 -16 l111 6 75 -47
c90 -57 347 -205 355 -205 3 0 5 176 5 390 0 215 -3 390 -7 389 -5 0 -24 -11
-43 -23z m20 -144 l0 -128 -147 22 c-93 14 -152 19 -158 13 -16 -16 12 -26 91
-34 68 -6 74 -9 74 -29 0 -22 -2 -22 -86 -18 -112 6 -106 -13 6 -23 44 -4 80
-12 80 -17 0 -7 -29 -8 -85 -4 -73 6 -85 5 -85 -8 0 -13 15 -16 85 -16 109 0
112 -18 3 -22 -51 -2 -81 -7 -78 -13 3 -6 37 -9 83 -6 64 2 77 0 77 -12 0 -16
-34 -24 -125 -29 -27 -2 -41 -8 -43 -19 -3 -19 48 -16 204 10 90 15 99 18 105
41 4 14 7 -46 8 -133 1 -129 -1 -157 -12 -150 -8 4 -103 66 -211 137 l-198
130 5 80 4 81 199 137 c109 75 200 137 202 137 1 1 2 -57 2 -127z m-436 -212
c3 -58 3 -110 -1 -115 -5 -7 -42 -9 -97 -7 l-88 4 6 30 c3 17 6 66 6 109 l0
78 83 3 c45 2 83 3 83 3 1 0 4 -47 8 -105z m323 43 c-3 -10 -5 -4 -5 12 0 17
2 24 5 18 2 -7 2 -21 0 -30z m20 -5 c-3 -7 -5 -2 -5 12 0 14 2 19 5 13 2 -7 2
-19 0 -25z m70 0 c-3 -7 -5 -2 -5 12 0 14 2 19 5 13 2 -7 2 -19 0 -25z m-20
-120 c-3 -8 -6 -5 -6 6 -1 11 2 17 5 13 3 -3 4 -12 1 -19z m20 0 c-3 -8 -6 -5
-6 6 -1 11 2 17 5 13 3 -3 4 -12 1 -19z m-87 -3 c0 -8 -4 -15 -10 -15 -5 0
-10 7 -10 15 0 8 5 15 10 15 6 0 10 -7 10 -15z m17 -7 c-3 -8 -6 -5 -6 6 -1
11 2 17 5 13 3 -3 4 -12 1 -19z"/>
</g>
</svg>
