<?xml version="1.0" standalone="no"?>
<!DOCTYPE svg PUBLIC "-//W3C//DTD SVG 20010904//EN"
 "http://www.w3.org/TR/2001/REC-SVG-20010904/DTD/svg10.dtd">
<svg version="1.0" xmlns="http://www.w3.org/2000/svg"
 width="135.000000pt" height="139.000000pt" viewBox="0 0 135.000000 139.000000"
 preserveAspectRatio="xMidYMid meet">
<metadata>
Created by potrace 1.16, written by Peter Selinger 2001-2019
</metadata>
<g transform="translate(0.000000,139.000000) scale(0.100000,-0.100000)"
fill="#000000" stroke="none">
<path d="M1030 1082 c-8 -4 -26 -14 -40 -23 -14 -9 -103 -65 -198 -124 l-173
-107 -114 7 c-106 6 -115 6 -122 -12 -4 -10 -24 -41 -45 -70 -21 -29 -38 -58
-38 -64 0 -16 92 -159 103 -159 4 0 7 5 7 10 0 6 40 10 100 10 l100 0 88 -54
c101 -62 331 -196 337 -196 2 0 4 8 4 18 0 9 3 187 7 395 4 207 5 377 3 376
-2 0 -11 -3 -19 -7z m-16 -393 c4 -193 6 -353 4 -355 -8 -7 -163 107 -170 125
-3 10 -12 52 -19 94 -11 68 -11 87 5 166 15 73 16 97 7 141 -6 30 -8 57 -4 61
14 14 158 117 164 118 3 1 9 -157 13 -350z m-199 96 c-1 -61 -5 -99 -13 -107
-17 -17 -15 -63 8 -142 11 -38 18 -71 17 -72 -2 -2 -53 29 -115 68 l-112 71 7
86 c3 47 11 89 17 93 6 4 47 31 91 61 51 35 84 51 90 45 6 -5 10 -51 10 -103z
m-240 3 c3 -13 5 -63 3 -113 l-3 -90 -93 0 -92 0 -29 51 -29 50 33 55 c33 52
35 54 87 60 108 12 117 11 123 -13z"/>
<path d="M924 885 c15 -58 16 -113 6 -160 -22 -93 -22 -119 -1 -194 11 -41 23
-76 26 -79 9 -9 5 42 -10 108 -12 57 -12 72 2 125 26 99 18 225 -14 225 -11 0
-14 -6 -9 -25z"/>
</g>
</svg>
