<?xml version="1.0" standalone="no"?>
<!DOCTYPE svg PUBLIC "-//W3C//DTD SVG 20010904//EN"
 "http://www.w3.org/TR/2001/REC-SVG-20010904/DTD/svg10.dtd">
<svg version="1.0" xmlns="http://www.w3.org/2000/svg"
 width="189.000000pt" height="139.000000pt" viewBox="0 0 189.000000 139.000000"
 preserveAspectRatio="xMidYMid meet">
<metadata>
Created by potrace 1.16, written by Peter Selinger 2001-2019
</metadata>
<g transform="translate(0.000000,139.000000) scale(0.100000,-0.100000)"
fill="#000000" stroke="none">
<path d="M953 1077 c-39 -21 -162 -96 -294 -178 -69 -44 -133 -79 -142 -79 -9
0 -17 -4 -17 -8 0 -5 -41 -2 -91 6 -78 13 -92 13 -100 1 -11 -18 -11 -240 0
-258 8 -12 21 -12 95 2 l85 17 128 -78 c141 -87 339 -202 347 -202 2 0 5 77 6
172 0 94 3 174 5 178 3 4 34 13 71 20 74 14 177 7 232 -15 19 -8 50 -15 69
-15 42 0 224 48 238 62 7 7 2 9 -15 5 -192 -40 -214 -42 -320 -17 -100 22
-205 24 -252 5 -16 -6 -18 0 -18 58 l0 65 66 12 c74 14 177 7 232 -15 49 -21
90 -19 195 10 115 32 121 34 115 41 -3 3 -58 -5 -121 -17 l-115 -23 -95 22
c-101 23 -177 27 -239 13 l-37 -9 -3 119 -3 118 -22 -12z m-10 -389 c4 -194 5
-353 4 -355 -2 -1 -54 32 -117 75 -63 42 -152 101 -198 130 -46 29 -80 57 -77
62 3 6 -1 10 -9 10 -13 0 -16 14 -16 80 0 64 3 80 15 80 8 0 15 4 15 8 0 5 64
52 143 104 78 53 160 110 182 127 22 17 43 31 46 31 3 0 9 -158 12 -352z
m-505 96 l62 -7 1 -41 c0 -22 2 -60 5 -83 3 -24 4 -43 2 -43 -1 -1 -43 -7 -93
-15 -49 -7 -90 -13 -91 -12 -1 1 1 51 4 110 4 104 6 108 26 103 11 -2 49 -8
84 -12z"/>
</g>
</svg>
