<?xml version="1.0" standalone="no"?>
<!DOCTYPE svg PUBLIC "-//W3C//DTD SVG 20010904//EN"
 "http://www.w3.org/TR/2001/REC-SVG-20010904/DTD/svg10.dtd">
<svg version="1.0" xmlns="http://www.w3.org/2000/svg"
 width="219.000000pt" height="141.000000pt" viewBox="0 0 219.000000 141.000000"
 preserveAspectRatio="xMidYMid meet">
<metadata>
Created by potrace 1.16, written by Peter Selinger 2001-2019
</metadata>
<g transform="translate(0.000000,141.000000) scale(0.100000,-0.100000)"
fill="#000000" stroke="none">
<path d="M300 1084 c0 -24 29 -58 177 -206 l178 -178 -175 -175 c-150 -150
-173 -178 -164 -193 10 -15 37 -17 302 -19 l291 -2 82 87 c45 48 118 131 162
185 44 53 84 97 88 97 11 0 12 27 2 32 -5 2 -42 44 -83 93 -88 106 -241 275
-250 275 -3 0 -14 -6 -24 -13 -16 -11 0 -30 159 -192 l176 -179 -176 -176
c-97 -97 -172 -180 -168 -185 4 -4 0 -5 -9 -2 -9 3 -123 9 -252 13 l-236 7 65
68 c35 38 99 110 141 161 42 51 81 95 86 96 4 2 8 8 8 13 0 13 -118 155 -227
275 l-83 91 223 6 c122 4 240 10 262 14 l40 6 -30 9 c-16 4 -150 11 -297 15
l-268 6 0 -29z"/>
<path d="M1260 700 l0 -163 68 6 c121 11 227 59 257 118 15 28 18 29 84 29 95
0 221 11 221 20 0 4 -66 11 -146 15 l-147 7 -36 37 c-45 48 -132 81 -228 88
l-73 6 0 -163z m173 123 c57 -16 137 -64 137 -83 0 -6 -40 -10 -99 -10 l-99 0
-7 30 c-4 17 -18 44 -32 60 l-25 30 34 -6 c18 -3 59 -13 91 -21z m135 -165
c-23 -34 -110 -77 -186 -92 l-71 -14 24 33 c14 17 28 46 31 63 l7 32 104 0
105 0 -14 -22z"/>
</g>
</svg>
