<?xml version="1.0" standalone="no"?>
<!DOCTYPE svg PUBLIC "-//W3C//DTD SVG 20010904//EN"
 "http://www.w3.org/TR/2001/REC-SVG-20010904/DTD/svg10.dtd">
<svg version="1.0" xmlns="http://www.w3.org/2000/svg"
 width="177.000000pt" height="173.000000pt" viewBox="0 0 177.000000 173.000000"
 preserveAspectRatio="xMidYMid meet">
<metadata>
Created by potrace 1.16, written by Peter Selinger 2001-2019
</metadata>
<g transform="translate(0.000000,173.000000) scale(0.100000,-0.100000)"
fill="#000000" stroke="none">
<path d="M606 1422 c-3 -5 35 -63 83 -129 l89 -121 -32 -31 -32 -31 -42 58
c-55 76 -102 102 -197 109 -64 5 -75 3 -81 -11 -10 -25 24 -104 62 -146 36
-40 76 -55 167 -66 l58 -7 -8 -31 c-20 -76 -6 -200 31 -286 5 -13 -7 -15 -88
-12 -107 4 -115 1 -238 -85 -43 -30 -78 -61 -78 -69 0 -20 47 -38 149 -59 124
-25 203 -18 273 24 31 19 69 47 86 62 27 25 34 27 64 18 18 -5 70 -8 115 -7
l83 1 47 47 c27 25 71 73 99 106 50 58 194 167 220 167 13 0 21 28 26 95 3 33
1 34 -62 57 -83 29 -196 79 -332 145 l-106 51 -79 -37 c-43 -21 -82 -38 -86
-38 -4 -1 -43 50 -86 113 -76 113 -93 131 -105 113z m-21 -206 c47 -28 115
-106 115 -132 0 -14 -7 -16 -53 -10 -66 7 -134 31 -160 54 -18 16 -67 103 -67
118 0 16 126 -7 165 -30z m360 -103 c16 -260 34 -475 41 -481 4 -4 4 126 1
290 l-7 296 128 -58 c70 -32 173 -73 230 -90 l102 -33 0 -42 0 -42 -92 -54
c-67 -40 -109 -74 -162 -132 -132 -146 -176 -165 -300 -130 -47 13 -72 28
-112 67 -61 60 -84 122 -84 225 0 81 22 131 78 186 36 35 145 105 164 105 3 0
9 -48 13 -107z m-179 -453 c19 -16 40 -30 46 -30 45 0 -124 -93 -190 -105 -36
-6 -228 26 -259 43 -16 10 131 111 179 123 18 4 68 6 111 4 70 -4 83 -8 113
-35z"/>
<path d="M809 441 c-100 -96 -122 -121 -112 -132 11 -11 31 6 109 89 107 114
138 151 132 157 -2 3 -60 -49 -129 -114z"/>
</g>
</svg>
