<?xml version="1.0" standalone="no"?>
<!DOCTYPE svg PUBLIC "-//W3C//DTD SVG 20010904//EN"
 "http://www.w3.org/TR/2001/REC-SVG-20010904/DTD/svg10.dtd">
<svg version="1.0" xmlns="http://www.w3.org/2000/svg"
 width="148.000000pt" height="165.000000pt" viewBox="0 0 148.000000 165.000000"
 preserveAspectRatio="xMidYMid meet">
<metadata>
Created by potrace 1.16, written by Peter Selinger 2001-2019
</metadata>
<g transform="translate(0.000000,165.000000) scale(0.100000,-0.100000)"
fill="#000000" stroke="none">
<path d="M730 1298 c-181 -144 -280 -287 -280 -403 0 -102 74 -234 212 -381
80 -84 235 -220 243 -212 2 2 -51 60 -118 128 -251 257 -329 408 -283 546 31
93 162 236 306 336 21 15 23 19 10 27 -21 15 -18 16 -90 -41z"/>
<path d="M320 1328 c1 -7 7 -42 15 -78 25 -115 13 -336 -21 -385 -23 -33 -16
-122 23 -285 20 -85 38 -157 40 -159 13 -17 8 28 -18 179 -33 193 -34 161 16
390 29 128 6 350 -36 350 -11 0 -19 -6 -19 -12z"/>
<path d="M1136 1283 c32 -135 24 -353 -14 -413 -24 -38 -20 -131 12 -260 48
-192 63 -178 26 25 -25 134 -25 161 0 255 15 59 20 108 20 231 0 191 -4 219
-35 219 -22 0 -22 -1 -9 -57z"/>
<path d="M597 1083 c-4 -3 -7 -10 -7 -14 0 -7 259 -119 368 -159 34 -12 62
-26 62 -29 0 -4 -26 -18 -57 -31 -150 -61 -363 -169 -363 -184 0 -9 5 -16 12
-16 12 0 395 195 416 212 24 20 11 35 -55 66 -38 16 -132 60 -211 96 -146 68
-154 71 -165 59z"/>
</g>
</svg>
