<?xml version="1.0" standalone="no"?>
<!DOCTYPE svg PUBLIC "-//W3C//DTD SVG 20010904//EN"
 "http://www.w3.org/TR/2001/REC-SVG-20010904/DTD/svg10.dtd">
<svg version="1.0" xmlns="http://www.w3.org/2000/svg"
 width="152.000000pt" height="152.000000pt" viewBox="0 0 152.000000 152.000000"
 preserveAspectRatio="xMidYMid meet">
<metadata>
Created by potrace 1.16, written by Peter Selinger 2001-2019
</metadata>
<g transform="translate(0.000000,152.000000) scale(0.100000,-0.100000)"
fill="#000000" stroke="none">
<path d="M320 1208 c1 -7 7 -42 15 -78 25 -115 13 -336 -21 -385 -24 -33 -16
-128 23 -288 20 -84 38 -154 40 -156 13 -17 8 28 -18 183 l-31 179 29 116 c22
90 28 139 28 221 0 133 -18 220 -46 220 -10 0 -19 -6 -19 -12z"/>
<path d="M1150 1218 c0 -2 7 -28 15 -58 8 -30 17 -87 21 -125 8 -85 -12 -251
-34 -285 -27 -42 -20 -130 23 -300 21 -85 41 -148 43 -141 2 7 -8 89 -24 181
l-28 168 27 123 c30 137 36 281 16 382 -10 50 -15 57 -35 57 -13 0 -24 -1 -24
-2z"/>
<path d="M824 975 c-3 -8 -4 -62 -2 -120 l3 -106 -125 1 c-69 1 -149 1 -179 1
l-53 -1 4 -60 c2 -33 8 -63 12 -67 4 -4 23 11 42 35 20 23 44 42 55 42 25 0
24 -8 -3 -37 -12 -13 -18 -26 -14 -30 4 -5 21 7 37 25 16 17 39 32 51 32 l21
0 -22 -24 c-12 -13 -18 -26 -13 -30 5 -3 20 6 32 19 13 14 34 25 47 25 25 0
29 -10 11 -28 -22 -22 2 -26 25 -4 27 25 57 29 57 7 0 -18 12 -19 27 -4 7 7
27 7 69 0 32 -6 64 -11 71 -11 10 0 13 36 13 169 l0 168 -52 7 c-81 9 -108 7
-114 -9z m136 -53 c0 -27 3 -97 7 -157 l6 -108 -49 8 c-27 4 -51 9 -53 11 -11
11 32 54 54 54 14 0 25 5 25 10 0 6 -25 10 -55 10 -42 0 -55 3 -55 15 0 11 12
15 40 16 53 2 57 3 66 12 4 4 -18 7 -49 7 -44 0 -57 3 -57 15 0 12 13 15 55
15 30 0 55 5 55 10 0 6 -25 10 -55 10 -61 0 -77 20 -17 21 20 0 46 4 57 9 14
6 4 9 -38 9 -76 1 -73 24 4 31 61 6 45 20 -22 20 -58 0 -47 18 14 23 28 2 55
4 60 5 4 1 7 -20 7 -46z m-337 -199 c-7 -2 -19 -2 -25 0 -7 3 -2 5 12 5 14 0
19 -2 13 -5z m82 -3 c-3 -5 -17 -10 -31 -10 -14 0 -22 4 -19 10 3 6 17 10 31
10 14 0 22 -4 19 -10z m80 -10 c-16 -18 -46 -20 -64 -4 -11 10 16 24 46 24 36
0 36 0 18 -20z m75 -5 c-25 -27 -45 -32 -55 -15 -11 18 16 40 48 40 l30 0 -23
-25z m-337 -20 c-23 -31 -33 -31 -33 0 0 20 5 25 25 25 26 0 26 0 8 -25z"/>
</g>
</svg>
