<?xml version="1.0" standalone="no"?>
<!DOCTYPE svg PUBLIC "-//W3C//DTD SVG 20010904//EN"
 "http://www.w3.org/TR/2001/REC-SVG-20010904/DTD/svg10.dtd">
<svg version="1.0" xmlns="http://www.w3.org/2000/svg"
 width="151.000000pt" height="152.000000pt" viewBox="0 0 151.000000 152.000000"
 preserveAspectRatio="xMidYMid meet">
<metadata>
Created by potrace 1.16, written by Peter Selinger 2001-2019
</metadata>
<g transform="translate(0.000000,152.000000) scale(0.100000,-0.100000)"
fill="#000000" stroke="none">
<path d="M320 1218 c0 -2 7 -38 15 -81 8 -43 15 -121 15 -172 0 -99 -23 -234
-42 -246 -22 -14 -3 -185 32 -294 18 -55 36 -104 40 -108 4 -5 -3 45 -16 110
-32 154 -33 293 -4 378 29 85 35 191 17 304 -14 84 -26 110 -49 111 -5 0 -8
-1 -8 -2z"/>
<path d="M1140 1208 c0 -2 7 -38 15 -81 27 -143 16 -346 -22 -406 -25 -39 -11
-166 32 -300 20 -62 38 -111 41 -108 2 2 -7 60 -22 128 -30 148 -29 270 6 389
18 64 21 90 16 175 -9 147 -25 204 -58 205 -5 0 -8 -1 -8 -2z"/>
<path d="M510 1002 c0 -5 7 -29 15 -52 26 -75 22 -108 -24 -193 -31 -56 -41
-84 -37 -102 13 -51 212 -232 233 -212 3 4 8 55 11 113 3 65 9 107 16 109 6 2
77 5 159 7 143 4 147 4 148 -16 0 -19 2 -18 12 4 6 14 16 28 22 32 6 5 5 8 -2
8 -9 0 -13 20 -13 65 0 81 5 79 -194 94 -162 12 -180 19 -191 72 -6 28 -22 46
-31 36 -9 -9 19 -86 37 -103 14 -13 50 -17 178 -21 182 -7 164 3 175 -95 l6
-48 -160 0 -160 0 -6 29 c-4 17 -13 32 -22 36 -21 8 -24 2 -12 -29 16 -43 25
-262 11 -270 -17 -11 -191 165 -191 193 0 12 19 56 42 98 l41 75 -19 86 c-10
47 -25 87 -31 90 -7 2 -13 -1 -13 -6z"/>
</g>
</svg>
