<?xml version="1.0" standalone="no"?>
<!DOCTYPE svg PUBLIC "-//W3C//DTD SVG 20010904//EN"
 "http://www.w3.org/TR/2001/REC-SVG-20010904/DTD/svg10.dtd">
<svg version="1.0" xmlns="http://www.w3.org/2000/svg"
 width="148.000000pt" height="152.000000pt" viewBox="0 0 148.000000 152.000000"
 preserveAspectRatio="xMidYMid meet">
<metadata>
Created by potrace 1.16, written by Peter Selinger 2001-2019
</metadata>
<g transform="translate(0.000000,152.000000) scale(0.100000,-0.100000)"
fill="#000000" stroke="none">
<path d="M320 1212 c0 -4 7 -39 15 -77 26 -122 15 -323 -20 -391 -24 -46 -18
-124 20 -277 41 -162 44 -172 51 -165 2 3 -9 84 -25 180 -33 192 -34 156 14
376 22 101 17 247 -11 345 -5 16 -44 25 -44 9z"/>
<path d="M1114 1203 c4 -9 14 -60 23 -112 14 -82 14 -111 4 -201 -7 -58 -19
-118 -27 -135 -31 -62 -28 -103 17 -286 50 -200 62 -196 24 8 -31 174 -31 186
0 317 28 119 33 255 13 362 -10 58 -14 64 -36 64 -19 0 -23 -4 -18 -17z"/>
<path d="M810 1143 c-1 -5 -29 -39 -64 -76 l-63 -69 -59 47 c-32 27 -66 54
-74 61 -31 26 -39 3 -26 -69 12 -61 34 -102 71 -129 21 -16 -27 -7 -91 17 -36
14 -68 25 -70 25 -13 0 0 -46 23 -84 28 -46 59 -65 136 -85 58 -15 43 4 -22
28 -45 16 -65 30 -80 55 -12 18 -21 36 -21 39 0 2 17 -1 38 -9 66 -23 153 -14
111 12 -25 15 -69 100 -69 131 l0 34 38 -29 c20 -16 52 -38 70 -48 l32 -18 55
54 55 54 30 -29 c35 -33 39 -26 9 16 -30 42 -13 54 21 15 l30 -34 -31 -66
c-17 -36 -28 -73 -25 -81 3 -8 1 -15 -4 -15 -5 0 6 -44 25 -97 19 -53 34 -97
32 -98 -1 -1 -25 -16 -53 -33 -28 -18 -55 -32 -60 -32 -5 0 -31 41 -59 90 -49
89 -58 99 -70 80 -6 -10 95 -169 120 -190 11 -9 29 -2 80 31 75 50 74 41 26
185 l-26 82 31 57 c18 32 38 61 45 65 9 6 3 19 -20 49 -43 55 -90 87 -91 64z"/>
<path d="M903 642 c-8 -5 -1 -24 22 -62 19 -30 35 -61 35 -67 0 -10 -48 -43
-63 -43 -2 0 -16 28 -32 63 -36 77 -33 73 -47 59 -8 -8 0 -29 31 -81 23 -39
46 -71 50 -71 4 0 27 14 50 30 l41 30 -36 73 c-20 39 -37 73 -38 74 -1 1 -7
-1 -13 -5z"/>
</g>
</svg>
