<?xml version="1.0" standalone="no"?>
<!DOCTYPE svg PUBLIC "-//W3C//DTD SVG 20010904//EN"
 "http://www.w3.org/TR/2001/REC-SVG-20010904/DTD/svg10.dtd">
<svg version="1.0" xmlns="http://www.w3.org/2000/svg"
 width="176.000000pt" height="206.000000pt" viewBox="0 0 176.000000 206.000000"
 preserveAspectRatio="xMidYMid meet">
<metadata>
Created by potrace 1.16, written by Peter Selinger 2001-2019
</metadata>
<g transform="translate(0.000000,206.000000) scale(0.100000,-0.100000)"
fill="#000000" stroke="none">
<path d="M1314 1706 c-61 -29 -130 -70 -152 -90 l-40 -37 -238 2 -238 1 -55
49 c-30 27 -59 49 -63 49 -5 0 -33 -18 -63 -41 l-54 -41 -38 31 c-21 17 -41
31 -45 31 -17 0 -7 -26 22 -55 l31 -32 -41 -28 c-22 -15 -40 -31 -40 -36 0
-22 25 -17 62 14 l42 35 63 -49 62 -50 55 40 54 40 245 6 244 5 39 -36 c21
-20 85 -63 141 -96 56 -32 104 -66 107 -74 5 -12 8 -13 20 -2 9 9 11 17 4 25
-5 7 -8 16 -5 20 3 4 10 83 17 176 10 133 10 170 0 182 -7 8 -15 15 -19 15 -3
0 -56 -24 -117 -54z m116 25 c0 -23 -14 -43 -40 -56 -23 -12 -30 -12 -45 -1
-16 12 -14 15 26 38 49 29 59 32 59 19z m-107 -74 c16 -11 15 -14 -10 -28 -23
-13 -32 -14 -52 -3 l-23 12 28 16 c36 19 36 19 57 3z m97 -12 c0 -23 -2 -24
-20 -13 -19 12 -19 14 -3 26 22 16 23 16 23 -13z m-840 -41 l52 -37 -59 -38
-58 -37 -44 43 -43 43 38 36 c22 19 44 34 51 31 6 -2 34 -20 63 -41z m662 -20
c-20 -15 -72 -19 -72 -5 0 5 12 19 27 30 24 20 27 20 44 5 18 -16 18 -18 1
-30z m146 30 c29 -20 28 -28 -4 -43 -22 -10 -31 -9 -52 5 l-26 17 23 18 c28
23 31 23 59 3z m-74 -53 c28 -19 28 -19 7 -30 -28 -16 -78 14 -60 35 15 18 18
18 53 -5z m102 -38 c-3 -3 -12 0 -21 7 -14 11 -13 14 2 26 16 11 18 10 21 -8
2 -11 1 -22 -2 -25z m-181 15 c19 -13 35 -31 35 -42 0 -12 5 -16 15 -12 22 8
134 -65 132 -86 -1 -10 -3 -18 -4 -18 -2 0 -43 25 -91 56 -96 62 -144 103
-136 116 7 11 10 11 49 -14z m156 -29 c18 -13 29 -29 29 -45 0 -31 -3 -30 -56
8 -40 28 -42 32 -26 44 22 17 19 17 53 -7z"/>
<path d="M1364 696 c-100 -39 -140 -63 -182 -111 l-40 -45 -247 0 -247 0 -57
50 c-32 27 -61 50 -65 50 -4 0 -31 -18 -61 -41 -58 -43 -70 -43 -109 0 -11 12
-23 21 -28 21 -17 0 -7 -25 23 -56 l31 -32 -41 -27 c-22 -15 -41 -31 -41 -36
0 -23 25 -17 63 14 l42 35 62 -50 62 -49 63 46 62 45 111 0 c62 0 173 3 248 7
l137 6 0 -26 c0 -53 66 -102 235 -173 51 -22 65 -24 65 -13 0 5 -5 9 -11 9 -7
0 -9 9 -6 23 3 12 11 95 18 184 10 143 10 164 -4 178 -9 8 -17 15 -19 15 -2
-1 -30 -11 -64 -24z m62 -12 c-3 -9 -6 -84 -6 -167 0 -84 -4 -158 -9 -166 -7
-10 -27 -3 -100 34 -98 50 -131 82 -131 124 0 31 27 74 41 65 6 -3 27 -3 47 1
l37 8 -35 12 -35 12 90 46 c100 51 110 54 101 31z m-859 -111 c27 -21 50 -42
50 -48 -1 -5 -24 -24 -51 -42 l-51 -32 -42 42 -43 41 37 38 c20 21 40 38 43
38 4 0 29 -17 57 -37z"/>
<path d="M1325 631 c-3 -5 -1 -12 4 -15 13 -9 72 5 65 15 -7 12 -61 11 -69 0z"/>
<path d="M1325 561 c-3 -5 -1 -12 4 -15 13 -8 71 5 71 15 0 12 -67 11 -75 0z"/>
<path d="M1220 544 c0 -13 7 -15 31 -10 17 3 37 6 43 6 24 0 -21 20 -46 20
-19 0 -28 -5 -28 -16z"/>
<path d="M1320 500 c0 -5 18 -10 40 -10 22 0 40 5 40 10 0 6 -18 10 -40 10
-22 0 -40 -4 -40 -10z"/>
<path d="M1220 484 c0 -12 6 -15 23 -10 12 3 30 6 40 6 10 0 15 5 12 10 -3 6
-22 10 -41 10 -25 0 -34 -4 -34 -16z"/>
<path d="M1320 440 c0 -5 18 -10 40 -10 22 0 40 5 40 10 0 6 -18 10 -40 10
-22 0 -40 -4 -40 -10z"/>
</g>
</svg>
