<?xml version="1.0" standalone="no"?>
<!DOCTYPE svg PUBLIC "-//W3C//DTD SVG 20010904//EN"
 "http://www.w3.org/TR/2001/REC-SVG-20010904/DTD/svg10.dtd">
<svg version="1.0" xmlns="http://www.w3.org/2000/svg"
 width="176.000000pt" height="202.000000pt" viewBox="0 0 176.000000 202.000000"
 preserveAspectRatio="xMidYMid meet">
<metadata>
Created by potrace 1.16, written by Peter Selinger 2001-2019
</metadata>
<g transform="translate(0.000000,202.000000) scale(0.100000,-0.100000)"
fill="#000000" stroke="none">
<path d="M344 1705 c-3 -8 14 -43 40 -80 l46 -65 -66 -95 -65 -94 19 -28 c11
-15 36 -53 55 -84 l35 -56 5 -436 c3 -241 10 -444 15 -453 13 -24 21 123 28
534 l6 354 59 84 c32 47 59 87 59 91 0 3 -25 46 -56 94 l-56 89 39 48 c53 63
55 68 39 81 -11 9 -21 2 -51 -39 -20 -27 -40 -50 -45 -50 -5 0 -25 27 -45 60
-37 61 -51 72 -61 45z m159 -240 l47 -65 -57 -95 -57 -95 -43 82 c-25 46 -48
85 -53 88 -8 5 99 149 110 149 3 0 26 -29 53 -64z"/>
<path d="M927 1494 c-3 -4 -4 -34 0 -67 4 -39 3 -58 -4 -54 -15 9 -162 -112
-218 -180 -64 -78 -106 -167 -107 -232 -1 -39 5 -60 28 -98 38 -61 128 -133
229 -184 l80 -40 5 -72 5 -72 60 0 60 0 6 60 c4 33 7 97 8 142 l1 82 43 5 c23
3 87 7 143 10 257 14 260 36 4 36 l-190 0 0 48 0 48 185 0 c166 1 208 5 194
18 -2 3 -89 10 -192 17 l-187 13 0 57 0 56 133 6 c303 15 337 37 57 37 l-190
0 0 50 0 50 190 0 c268 0 249 22 -30 36 -178 8 -162 -4 -158 122 l3 107 -75 3
c-42 1 -79 0 -83 -4z m117 -451 c4 -236 9 -452 13 -481 l6 -54 -49 7 c-27 4
-50 8 -51 9 -1 1 1 214 4 474 l6 472 32 0 32 0 7 -427z m-114 192 l0 -106 -62
51 c-35 27 -67 49 -71 47 -21 -7 -5 -26 60 -72 l72 -50 0 -68 c1 -52 -2 -66
-11 -61 -12 7 -190 146 -211 164 -11 10 104 123 167 166 28 19 52 34 53 34 2
0 3 -47 3 -105z m-135 -200 c50 -37 100 -72 113 -78 19 -9 22 -18 22 -70 l0
-59 -57 49 c-137 116 -195 157 -203 143 -7 -11 27 -41 129 -116 l137 -101 3
-48 2 -48 -63 55 c-35 30 -98 82 -142 117 -66 52 -81 60 -94 49 -13 -11 -14
-6 -10 43 5 66 44 154 62 140 6 -5 52 -39 101 -76z m8 -244 c75 -57 137 -110
137 -117 0 -8 -3 -14 -7 -14 -3 0 -50 29 -103 64 -93 62 -155 120 -180 166
-16 29 -13 28 153 -99z"/>
</g>
</svg>
