<?xml version="1.0" standalone="no"?>
<!DOCTYPE svg PUBLIC "-//W3C//DTD SVG 20010904//EN"
 "http://www.w3.org/TR/2001/REC-SVG-20010904/DTD/svg10.dtd">
<svg version="1.0" xmlns="http://www.w3.org/2000/svg"
 width="202.000000pt" height="108.000000pt" viewBox="0 0 202.000000 108.000000"
 preserveAspectRatio="xMidYMid meet">
<metadata>
Created by potrace 1.16, written by Peter Selinger 2001-2019
</metadata>
<g transform="translate(0.000000,108.000000) scale(0.100000,-0.100000)"
fill="#000000" stroke="none">
<path d="M1200 670 l0 -109 -184 -3 -184 -3 -97 68 c-86 60 -99 66 -114 54 -9
-8 -48 -34 -87 -60 l-72 -45 -57 45 c-49 39 -59 43 -71 31 -12 -12 -6 -20 41
-55 l56 -40 -66 -41 c-36 -23 -65 -46 -65 -51 0 -26 28 -19 91 24 l69 47 97
-66 c53 -36 99 -62 102 -57 3 5 41 30 84 56 l79 47 186 -1 c132 -2 189 -6 194
-14 4 -7 8 -33 8 -58 0 -69 11 -139 22 -139 6 0 8 42 6 104 -2 87 0 106 12
109 8 2 74 4 145 5 177 3 326 13 320 22 -2 4 -108 10 -235 13 -127 4 -235 9
-240 12 -6 4 -10 53 -10 111 0 86 -3 104 -15 104 -12 0 -15 -19 -15 -110z
m-482 -76 l91 -55 -77 -40 c-42 -22 -81 -46 -86 -54 -8 -10 -26 0 -83 47 -41
33 -72 62 -70 64 13 14 123 94 128 94 4 0 48 -25 97 -56z"/>
</g>
</svg>
