<?xml version="1.0" standalone="no"?>
<!DOCTYPE svg PUBLIC "-//W3C//DTD SVG 20010904//EN"
 "http://www.w3.org/TR/2001/REC-SVG-20010904/DTD/svg10.dtd">
<svg version="1.0" xmlns="http://www.w3.org/2000/svg"
 width="202.000000pt" height="131.000000pt" viewBox="0 0 202.000000 131.000000"
 preserveAspectRatio="xMidYMid meet">
<metadata>
Created by potrace 1.16, written by Peter Selinger 2001-2019
</metadata>
<g transform="translate(0.000000,131.000000) scale(0.100000,-0.100000)"
fill="#000000" stroke="none">
<path d="M1455 993 c20 -53 28 -175 17 -256 -16 -123 -22 -130 -104 -124 -46
3 -83 12 -115 29 -27 14 -75 40 -107 57 -51 27 -69 31 -135 31 -47 -1 -96 -8
-130 -19 l-54 -19 -93 64 -93 65 -85 -56 c-47 -30 -89 -55 -93 -55 -5 0 -30
18 -58 40 -53 42 -70 48 -78 27 -3 -7 19 -29 50 -52 l54 -39 -65 -41 c-70 -43
-70 -43 -57 -64 7 -11 23 -5 75 33 37 25 70 46 73 46 4 0 48 -27 99 -61 l92
-60 39 24 c122 77 149 91 166 89 11 -2 17 1 13 7 -9 14 86 41 145 41 57 0 115
-20 172 -58 60 -41 120 -62 193 -69 59 -5 64 -8 64 -30 0 -22 49 -233 57 -242
12 -15 10 20 -7 115 -27 147 -26 164 3 164 13 0 45 6 70 14 l47 14 0 -40 c0
-22 11 -85 25 -141 31 -122 34 -131 41 -124 3 3 -4 56 -15 118 -22 118 -26
176 -13 195 4 6 23 19 42 29 19 10 30 20 23 22 -7 2 -21 -1 -32 -7 -25 -13
-24 -16 -6 85 10 60 11 99 4 155 -12 96 -17 110 -38 110 -16 0 -17 -4 -3 -67
14 -66 12 -228 -4 -280 -7 -24 -42 -39 -114 -49 l-48 -6 19 78 c21 89 24 198
8 274 -9 40 -15 50 -31 50 -15 0 -18 -4 -13 -17z m-735 -267 l90 -54 -82 -42
c-46 -24 -86 -47 -89 -53 -5 -7 -85 50 -142 103 -8 7 108 100 125 100 5 0 49
-24 98 -54z"/>
</g>
</svg>
