<?xml version="1.0" standalone="no"?>
<!DOCTYPE svg PUBLIC "-//W3C//DTD SVG 20010904//EN"
 "http://www.w3.org/TR/2001/REC-SVG-20010904/DTD/svg10.dtd">
<svg version="1.0" xmlns="http://www.w3.org/2000/svg"
 width="202.000000pt" height="150.000000pt" viewBox="0 0 202.000000 150.000000"
 preserveAspectRatio="xMidYMid meet">
<metadata>
Created by potrace 1.16, written by Peter Selinger 2001-2019
</metadata>
<g transform="translate(0.000000,150.000000) scale(0.100000,-0.100000)"
fill="#000000" stroke="none">
<path d="M1124 1185 c-4 -9 -5 -92 -2 -185 l3 -170 -148 0 -148 0 -82 58 c-45
32 -87 61 -94 65 -7 4 -49 -16 -97 -48 -47 -30 -89 -55 -92 -55 -4 0 -31 19
-61 42 -42 32 -56 38 -66 29 -13 -13 2 -29 66 -76 l28 -20 -66 -40 c-69 -43
-69 -43 -56 -64 7 -11 23 -4 76 33 37 26 74 45 81 42 8 -3 54 -33 104 -66 49
-33 90 -57 90 -52 0 5 35 30 78 56 l77 47 158 2 157 2 1 -165 c1 -91 2 -169 4
-175 1 -5 3 -41 3 -78 l2 -68 114 3 113 3 6 140 c4 77 7 185 7 241 l0 101 113
6 c61 4 138 7 170 7 31 0 57 4 57 10 0 6 -33 10 -78 10 -44 0 -120 3 -170 6
l-92 7 0 172 0 172 -39 11 c-21 7 -77 12 -125 12 -68 0 -88 -3 -92 -15z m215
-222 l1 -133 -91 0 c-79 0 -90 2 -85 16 3 9 6 82 6 163 l0 148 78 9 77 9 7
-40 c3 -22 7 -100 7 -172z m-618 -98 l90 -54 -83 -42 c-46 -23 -86 -46 -89
-51 -4 -7 -102 62 -142 101 -8 8 108 101 125 101 5 0 49 -25 99 -55z m622
-142 c4 -38 7 -141 7 -230 l0 -163 -54 0 c-29 0 -73 3 -97 6 l-44 6 3 212 c1
116 5 217 7 224 3 8 30 12 88 12 l84 0 6 -67z"/>
</g>
</svg>
