<?xml version="1.0" standalone="no"?>
<!DOCTYPE svg PUBLIC "-//W3C//DTD SVG 20010904//EN"
 "http://www.w3.org/TR/2001/REC-SVG-20010904/DTD/svg10.dtd">
<svg version="1.0" xmlns="http://www.w3.org/2000/svg"
 width="217.000000pt" height="134.000000pt" viewBox="0 0 217.000000 134.000000"
 preserveAspectRatio="xMidYMid meet">
<metadata>
Created by potrace 1.16, written by Peter Selinger 2001-2019
</metadata>
<g transform="translate(0.000000,134.000000) scale(0.100000,-0.100000)"
fill="#000000" stroke="none">
<path d="M451 1031 c-29 -18 111 -81 180 -81 55 0 135 -23 222 -63 48 -22 87
-43 87 -46 0 -3 -4 -23 -9 -43 -5 -20 -5 -54 -1 -76 l7 -40 -76 -4 c-53 -3
-98 -14 -146 -34 -60 -24 -81 -28 -147 -26 -65 2 -88 -2 -155 -28 -44 -16 -88
-36 -99 -44 -40 -30 -2 -26 90 8 88 33 101 36 165 30 64 -6 75 -4 137 25 75
35 97 35 35 -1 -22 -13 -41 -27 -41 -31 0 -14 94 -49 145 -53 35 -3 62 1 90
14 l40 19 22 -30 c29 -39 212 -227 222 -227 16 0 215 202 204 207 -7 2 -13 10
-13 16 0 7 -18 43 -40 81 -22 38 -39 70 -38 72 2 1 59 -4 128 -12 200 -24 206
-19 63 50 l-122 59 38 27 c42 31 70 85 53 102 -12 12 -35 1 -26 -14 8 -13 -40
-62 -101 -103 -64 -43 -105 -86 -87 -92 6 -3 12 -9 12 -14 0 -5 26 -48 57 -95
l58 -86 -31 -27 c-17 -14 -61 -53 -98 -85 -57 -50 -69 -57 -80 -45 -7 8 -54
65 -106 127 -78 95 -96 113 -114 107 -44 -14 -161 -17 -191 -5 l-30 12 36 18
c20 11 75 27 123 36 83 17 101 26 72 37 -22 9 -31 108 -13 143 31 61 49 69
165 71 181 4 319 19 329 36 4 6 -19 8 -68 3 -51 -5 -69 -4 -59 4 8 5 34 10 58
10 42 0 56 13 26 24 -29 11 -60 6 -125 -21 -56 -23 -76 -26 -162 -25 -100 2
-124 -4 -163 -39 -21 -19 -21 -19 -79 16 -84 50 -150 72 -267 90 -68 10 -112
22 -130 35 -31 23 -29 22 -47 11z m1014 -316 c44 -19 72 -35 63 -35 -21 0
-165 19 -197 26 l-25 5 30 20 c16 10 34 19 39 19 6 0 46 -16 90 -35z"/>
<path d="M1585 1021 c-3 -5 4 -16 15 -24 21 -14 21 -15 -6 -21 -20 -5 -32 -2
-48 13 -24 22 -46 28 -46 11 0 -5 10 -15 22 -21 22 -12 22 -12 3 -19 -13 -5
-28 -1 -44 11 -13 11 -28 19 -32 19 -20 0 -7 -21 26 -43 19 -13 32 -26 29 -30
-3 -3 -3 -10 1 -16 4 -7 15 -2 28 13 12 14 33 28 47 31 24 7 24 6 -8 -28 -23
-23 -30 -37 -22 -42 7 -4 18 2 27 15 11 16 18 18 23 10 5 -8 20 1 46 29 34 37
49 44 124 62 47 11 89 25 95 30 7 8 1 9 -20 5 -159 -30 -155 -29 -174 -12 -19
18 -41 21 -41 6 0 -5 8 -14 18 -19 9 -6 12 -11 6 -11 -6 0 -19 9 -29 20 -20
22 -31 25 -40 11z"/>
<path d="M1006 829 c-17 -13 -26 -29 -24 -42 4 -28 28 -34 28 -7 0 11 12 32
28 45 35 31 7 35 -32 4z"/>
<path d="M1051 769 c-23 -38 -27 -63 -9 -57 12 4 41 78 34 86 -3 2 -14 -11
-25 -29z"/>
</g>
</svg>
