<?xml version="1.0" standalone="no"?>
<!DOCTYPE svg PUBLIC "-//W3C//DTD SVG 20010904//EN"
 "http://www.w3.org/TR/2001/REC-SVG-20010904/DTD/svg10.dtd">
<svg version="1.0" xmlns="http://www.w3.org/2000/svg"
 width="156.000000pt" height="127.000000pt" viewBox="0 0 156.000000 127.000000"
 preserveAspectRatio="xMidYMid meet">
<metadata>
Created by potrace 1.16, written by Peter Selinger 2001-2019
</metadata>
<g transform="translate(0.000000,127.000000) scale(0.100000,-0.100000)"
fill="#000000" stroke="none">
<path d="M396 829 c-53 -78 -96 -143 -93 -145 2 -2 47 60 101 137 53 78 95
143 93 145 -2 2 -47 -60 -101 -137z"/>
<path d="M514 928 c-109 -156 -164 -238 -162 -245 1 -4 -2 -19 -6 -32 -6 -16
-3 -28 8 -39 14 -14 17 -11 36 34 12 27 33 64 46 82 14 17 22 37 18 44 -4 6
-3 8 3 5 6 -4 30 23 54 59 39 60 83 103 94 92 2 -2 -48 -80 -113 -174 -87
-126 -122 -169 -135 -166 -9 2 -15 9 -11 15 3 7 -4 1 -15 -12 -12 -13 -21 -28
-21 -35 0 -6 4 -4 10 4 15 24 24 -14 9 -42 -12 -23 -12 -23 9 -5 26 24 35 2
13 -33 -15 -25 -15 -25 6 -7 28 24 40 5 19 -28 -9 -13 -16 -28 -16 -32 0 -4 8
4 18 19 14 21 21 25 30 16 8 -8 6 -18 -9 -40 -11 -15 -17 -28 -12 -28 4 0 14
10 21 21 10 15 17 18 24 11 8 -8 6 -19 -6 -39 l-17 -28 21 24 c29 34 48 14 25
-25 l-17 -29 21 24 c16 18 25 21 33 13 8 -8 7 -16 -3 -28 -13 -16 -12 -16 9
-3 20 12 24 12 32 -1 7 -11 33 -16 96 -19 75 -3 92 0 126 19 l40 22 -13 -23
c-6 -13 14 5 46 39 61 66 92 84 52 30 -13 -18 -33 -46 -43 -63 -32 -53 2 -12
62 75 86 126 132 181 139 170 8 -12 8 -11 -87 -148 -44 -63 -78 -115 -76 -118
3 -2 43 52 90 121 63 92 88 121 96 113 8 -8 -5 -35 -51 -102 -35 -50 -67 -98
-71 -106 -14 -28 29 27 83 105 l54 79 21 -30 c58 -80 137 -174 147 -174 12 0
-1 22 -98 177 -36 57 -62 107 -59 112 4 5 -6 11 -20 13 -26 3 -23 6 52 88 44
47 94 104 112 128 62 78 27 66 -68 -24 -51 -49 -90 -82 -86 -74 4 8 -7 -2 -25
-23 -44 -52 -58 -29 -18 29 39 57 37 68 -2 14 -23 -32 -33 -39 -39 -29 -10 14
-8 19 28 67 14 18 23 35 20 37 -3 3 -17 -13 -32 -36 -20 -29 -31 -38 -38 -31
-8 8 -6 19 6 36 35 56 49 81 39 71 -6 -5 -21 -27 -35 -48 -20 -30 -27 -35 -36
-24 -9 10 -4 23 19 56 17 23 29 44 27 47 -3 2 -17 -14 -32 -37 -20 -29 -31
-38 -38 -31 -8 8 -4 23 15 51 15 22 27 44 27 48 0 8 -47 -55 -53 -71 -3 -8 -8
-7 -18 1 -11 11 -9 18 7 40 11 16 24 35 28 43 9 19 -31 -27 -44 -49 -7 -12
-12 -13 -21 -4 -9 9 -6 19 11 43 12 17 20 33 18 35 -2 2 -12 -9 -23 -26 -11
-16 -26 -29 -32 -29 -15 0 -17 26 -3 35 6 3 10 11 10 17 0 5 -8 0 -18 -12 -20
-25 -44 -20 -36 8 5 13 4 14 -4 4 -7 -11 -18 -11 -48 -3 -62 17 -135 14 -172
-9 l-33 -20 11 20 c18 33 6 23 -26 -22z m139 -10 c-4 -7 -59 -87 -122 -178
-63 -91 -120 -174 -127 -184 -12 -18 -14 -18 -20 -2 -5 12 7 38 36 79 23 34
79 115 123 180 55 79 87 117 99 117 13 0 17 -4 11 -12z m43 -3 c-3 -8 -66
-103 -141 -211 -75 -108 -134 -198 -132 -200 2 -2 68 91 148 206 79 115 150
210 157 210 8 0 12 -6 10 -14 -4 -19 -291 -435 -300 -435 -4 -1 -15 13 -23 30
-16 30 -16 31 30 97 26 37 87 127 137 200 50 72 97 132 105 132 9 0 13 -6 9
-15z m84 -22 c0 -3 -70 -107 -156 -230 -85 -124 -154 -227 -152 -229 2 -2 75
100 163 226 140 204 175 245 175 208 0 -5 -33 -57 -72 -114 -179 -255 -240
-345 -237 -349 2 -2 75 100 162 226 87 126 162 229 165 229 4 0 18 -9 31 -19
l24 -18 -158 -229 c-185 -269 -167 -245 -183 -235 -10 6 30 70 148 240 89 128
160 234 158 237 -2 2 -75 -100 -162 -226 -87 -127 -162 -230 -165 -230 -4 0
-22 16 -41 35 -26 27 -31 38 -24 54 27 57 301 437 312 433 6 -2 12 -6 12 -9z
m-290 -73 c-12 -16 -24 -30 -26 -30 -3 0 4 14 16 30 12 17 24 30 26 30 3 0 -4
-13 -16 -30z m415 -19 c8 -14 -305 -461 -322 -461 -9 0 -13 6 -10 13 9 24 311
457 319 457 4 0 9 -4 13 -9z m25 -41 c0 -16 -283 -422 -297 -427 -8 -3 -16 -3
-19 0 -4 3 63 105 146 226 135 194 170 236 170 201z m-106 -234 c-94 -137
-141 -196 -154 -196 -14 0 16 50 127 211 110 159 148 207 155 196 6 -11 -29
-68 -128 -211z m156 164 c0 -23 -221 -327 -245 -338 -32 -15 -41 -30 109 186
105 151 136 186 136 152z m20 -36 c0 -24 -147 -230 -182 -255 -17 -12 -29 -18
-27 -13 10 24 194 284 201 284 4 0 8 -7 8 -16z m24 -39 c3 -9 -22 -43 -70 -92
l-74 -78 62 92 c35 51 66 93 69 93 4 0 9 -7 13 -15z"/>
<path d="M368 860 c-26 -39 -44 -70 -40 -70 4 1 28 32 54 70 26 39 44 70 40
70 -4 0 -28 -32 -54 -70z"/>
<path d="M321 651 c-24 -33 -28 -56 -5 -26 20 26 36 55 30 55 -3 0 -14 -13
-25 -29z"/>
</g>
</svg>
