<?xml version="1.0" standalone="no"?>
<!DOCTYPE svg PUBLIC "-//W3C//DTD SVG 20010904//EN"
 "http://www.w3.org/TR/2001/REC-SVG-20010904/DTD/svg10.dtd">
<svg version="1.0" xmlns="http://www.w3.org/2000/svg"
 width="190.000000pt" height="142.000000pt" viewBox="0 0 190.000000 142.000000"
 preserveAspectRatio="xMidYMid meet">
<metadata>
Created by potrace 1.16, written by Peter Selinger 2001-2019
</metadata>
<g transform="translate(0.000000,142.000000) scale(0.100000,-0.100000)"
fill="#000000" stroke="none">
<path d="M791 1038 c-39 -46 -85 -110 -102 -143 l-32 -60 -179 3 -179 4 3
-149 3 -148 180 3 180 4 22 -39 c29 -53 104 -135 163 -178 l50 -37 152 87
c353 202 548 317 548 324 0 12 -676 398 -708 406 -27 6 -35 0 -101 -77z m409
-131 c107 -58 234 -124 283 -148 48 -24 87 -47 87 -51 0 -4 -55 -35 -122 -69
-68 -34 -220 -115 -340 -180 -119 -66 -220 -119 -226 -119 -16 0 -109 104
-152 171 -111 172 -84 313 95 507 l57 62 62 -33 c33 -19 149 -82 256 -140z
m-562 -124 c-10 -37 -6 -146 7 -189 6 -20 5 -21 -157 -16 -90 2 -163 5 -164 6
0 0 2 51 5 111 l6 110 120 5 c66 4 137 7 157 8 l36 2 -10 -37z"/>
<path d="M850 854 l0 -117 39 6 c51 6 91 34 108 75 20 48 -6 99 -67 130 -79
40 -80 39 -80 -94z m91 73 c62 -41 65 -112 6 -147 -49 -30 -57 -26 -41 21 14
41 11 95 -8 132 -12 23 2 22 43 -6z"/>
<path d="M1040 725 l0 -115 33 0 c46 0 95 34 114 78 14 34 14 39 -3 72 -12 22
-36 43 -64 58 -79 40 -80 38 -80 -93z m80 80 c66 -34 79 -99 30 -145 -16 -15
-38 -30 -48 -32 -18 -5 -18 -3 -4 48 13 46 13 58 0 98 -8 25 -13 46 -11 46 2
0 17 -7 33 -15z"/>
<path d="M850 606 l0 -116 31 0 c44 0 99 37 116 77 12 31 12 38 -4 71 -19 39
-58 66 -110 77 l-33 7 0 -116z m80 79 c83 -43 78 -126 -9 -170 -33 -16 -34
-16 -26 1 26 65 27 120 3 167 -11 21 -5 21 32 2z"/>
</g>
</svg>
