<?xml version="1.0" standalone="no"?>
<!DOCTYPE svg PUBLIC "-//W3C//DTD SVG 20010904//EN"
 "http://www.w3.org/TR/2001/REC-SVG-20010904/DTD/svg10.dtd">
<svg version="1.0" xmlns="http://www.w3.org/2000/svg"
 width="190.000000pt" height="246.000000pt" viewBox="0 0 190.000000 246.000000"
 preserveAspectRatio="xMidYMid meet">
<metadata>
Created by potrace 1.16, written by Peter Selinger 2001-2019
</metadata>
<g transform="translate(0.000000,246.000000) scale(0.100000,-0.100000)"
fill="#000000" stroke="none">
<path d="M800 2089 c-79 -92 -127 -167 -152 -238 -11 -31 -21 -57 -23 -59 -1
-2 -68 24 -149 58 -80 33 -150 60 -155 60 -5 0 -11 -10 -15 -22 -8 -33 -7
-296 2 -301 4 -3 70 22 147 54 77 33 147 61 156 64 13 4 19 -5 28 -43 18 -73
65 -148 143 -224 118 -116 70 -126 468 102 189 109 346 203 348 208 1 5 -16
21 -40 34 -24 14 -177 101 -340 195 -163 94 -310 174 -326 178 -28 6 -35 1
-92 -66z m415 -149 c78 -41 189 -100 248 -130 59 -30 107 -57 107 -60 0 -3
-48 -30 -107 -60 -59 -30 -212 -112 -341 -182 -129 -71 -238 -128 -242 -128
-13 0 -111 112 -146 167 -50 77 -69 131 -69 198 0 96 51 195 160 313 l57 62
97 -52 c53 -29 159 -86 236 -128z m-723 -127 c96 -34 138 -53 138 -63 0 -11
-42 -30 -142 -64 -79 -27 -147 -50 -153 -52 -10 -4 -10 183 0 214 6 17 3 17
157 -35z"/>
<path d="M892 2013 c-18 -19 -6 -47 65 -160 29 -47 53 -87 53 -90 0 -3 -24
-44 -53 -91 -139 -228 -107 -223 260 39 34 24 63 47 63 51 0 7 -97 78 -260
189 -121 83 -113 79 -128 62z m243 -172 l125 -79 -117 -73 c-65 -40 -131 -83
-148 -95 -76 -55 -78 -51 -19 60 l55 104 -56 112 -56 112 45 -31 c25 -18 102
-67 171 -110z"/>
<path d="M817 1064 c-66 -72 -120 -145 -141 -191 l-17 -39 -180 4 -179 4 0
-151 0 -152 183 6 182 7 24 -43 c30 -54 100 -129 163 -175 l48 -36 263 150
c354 203 437 252 437 260 0 4 -28 23 -63 43 -34 19 -188 108 -342 196 -154 88
-291 163 -305 165 -20 4 -34 -5 -73 -48z m293 -110 c118 -64 273 -145 344
-181 l129 -65 -189 -97 c-104 -54 -262 -139 -351 -189 l-162 -90 -55 57 c-71
75 -133 172 -152 239 -22 73 -12 139 33 224 38 72 155 218 176 218 7 0 109
-52 227 -116z m-467 -156 c-11 -30 -10 -154 1 -197 l8 -34 -62 6 c-35 4 -109
7 -165 7 l-102 0 5 108 c2 59 7 109 9 112 3 3 68 8 146 11 78 3 148 6 155 7
10 1 11 -4 5 -20z"/>
<path d="M890 960 c-12 -8 -11 -16 9 -57 12 -26 43 -80 68 -120 l45 -72 -50
-83 c-57 -95 -82 -143 -82 -156 0 -26 37 -20 89 14 103 68 311 217 311 224 0
3 -28 26 -62 51 -117 83 -302 209 -308 209 -3 0 -12 -5 -20 -10z m313 -214
c26 -15 47 -32 47 -36 0 -5 -28 -26 -62 -46 -35 -21 -107 -66 -160 -101 -54
-34 -98 -60 -98 -58 0 3 23 50 50 105 l50 100 -50 100 c-27 55 -50 102 -50
105 0 2 51 -28 113 -68 61 -41 133 -86 160 -101z"/>
</g>
</svg>
