<?xml version="1.0" standalone="no"?>
<!DOCTYPE svg PUBLIC "-//W3C//DTD SVG 20010904//EN"
 "http://www.w3.org/TR/2001/REC-SVG-20010904/DTD/svg10.dtd">
<svg version="1.0" xmlns="http://www.w3.org/2000/svg"
 width="190.000000pt" height="142.000000pt" viewBox="0 0 190.000000 142.000000"
 preserveAspectRatio="xMidYMid meet">
<metadata>
Created by potrace 1.16, written by Peter Selinger 2001-2019
</metadata>
<g transform="translate(0.000000,142.000000) scale(0.100000,-0.100000)"
fill="#000000" stroke="none">
<path d="M794 1041 c-38 -45 -85 -109 -104 -142 l-35 -62 -178 2 -178 2 3
-148 3 -148 180 3 180 4 22 -39 c29 -53 104 -135 163 -178 l50 -37 152 87
c353 202 548 317 548 324 0 12 -676 398 -709 406 -27 6 -34 0 -97 -74z m406
-134 c107 -58 234 -124 283 -148 48 -24 87 -47 87 -51 0 -4 -55 -35 -122 -69
-68 -34 -220 -115 -340 -180 -119 -66 -220 -119 -226 -119 -14 0 -105 99 -145
161 -43 64 -77 154 -77 204 0 83 64 204 165 313 l57 62 62 -33 c33 -19 149
-82 256 -140z m-562 -124 c-10 -37 -6 -146 7 -189 6 -20 5 -21 -157 -16 -90 2
-163 5 -164 6 0 0 2 51 5 111 l6 110 120 5 c66 4 137 7 157 8 l36 2 -10 -37z"/>
<path d="M990 825 c-90 -52 -156 -59 -220 -23 -21 13 -42 19 -46 15 -10 -10
-11 -134 -1 -169 8 -30 28 -36 46 -14 31 37 141 27 197 -16 24 -19 40 -23 104
-22 63 1 99 10 229 56 85 29 156 58 158 64 3 10 -187 83 -287 109 -70 19 -148
19 -180 0z m315 -65 l130 -43 -135 -45 c-157 -51 -287 -67 -318 -39 -49 45
-143 59 -207 33 l-35 -15 0 70 0 69 23 -14 c53 -36 159 -28 209 14 20 18 34
20 113 17 72 -4 116 -13 220 -47z"/>
</g>
</svg>
