<?xml version="1.0" standalone="no"?>
<!DOCTYPE svg PUBLIC "-//W3C//DTD SVG 20010904//EN"
 "http://www.w3.org/TR/2001/REC-SVG-20010904/DTD/svg10.dtd">
<svg version="1.0" xmlns="http://www.w3.org/2000/svg"
 width="190.000000pt" height="142.000000pt" viewBox="0 0 190.000000 142.000000"
 preserveAspectRatio="xMidYMid meet">
<metadata>
Created by potrace 1.16, written by Peter Selinger 2001-2019
</metadata>
<g transform="translate(0.000000,142.000000) scale(0.100000,-0.100000)"
fill="#000000" stroke="none">
<path d="M794 1040 c-38 -44 -85 -108 -104 -141 l-35 -62 -177 2 -178 2 0
-150 0 -151 183 6 182 6 22 -39 c29 -53 104 -135 163 -178 l50 -37 152 87 c84
47 160 90 168 95 8 4 97 56 198 115 100 58 182 110 182 114 0 11 -675 398
-708 406 -27 5 -35 -1 -98 -75z m299 -74 c59 -32 107 -58 107 -59 0 -1 -33 -2
-72 -2 l-73 0 -5 -68 -5 -67 -90 65 c-49 35 -93 65 -98 65 -19 0 -98 -86 -112
-124 -19 -51 -9 -115 30 -176 28 -45 94 -98 103 -84 13 19 171 132 176 126 3
-3 6 -45 6 -94 0 -85 1 -88 23 -88 22 -1 -26 -32 -150 -97 l-52 -28 -46 45
c-64 62 -131 164 -156 235 -43 122 2 248 146 403 l57 62 52 -29 c28 -15 99
-54 159 -85z m97 -97 c0 -18 -2 -19 -15 -9 -8 7 -15 16 -15 21 0 5 7 9 15 9 9
0 15 -9 15 -21z m214 -69 c91 -47 164 -89 163 -93 -1 -5 -80 -48 -175 -97
l-172 -88 0 185 c0 113 4 183 10 181 5 -1 84 -41 174 -88z m-294 71 c0 -17
-18 -21 -24 -6 -3 9 0 15 9 15 8 0 15 -4 15 -9z m-258 -41 c4 -46 -3 -51 -22
-15 -11 20 -11 27 0 40 17 21 17 20 22 -25z m305 -11 c-15 -24 -24 -24 -37 2
-9 15 -8 24 1 35 10 13 14 12 30 -2 15 -13 16 -20 6 -35z m-164 -43 c49 -34
57 -43 57 -71 0 -29 -8 -37 -85 -89 l-85 -56 0 146 0 146 28 -19 c15 -10 53
-36 85 -57z m-355 7 c-10 -37 -6 -146 7 -189 6 -20 5 -21 -157 -16 -90 2 -163
5 -164 6 0 0 2 51 5 111 l6 110 120 5 c66 4 137 7 157 8 l36 2 -10 -37z m195
0 c25 -33 27 -44 27 -124 0 -48 3 -95 7 -105 4 -11 2 -15 -7 -12 -8 2 -18 18
-22 34 -4 16 -23 48 -43 71 -19 23 -35 51 -35 63 0 18 8 12 41 -30 22 -28 43
-49 46 -47 6 6 -53 97 -74 114 -12 10 -12 15 2 42 8 17 19 31 23 31 4 -1 19
-17 35 -37z m357 2 c0 -38 -15 -47 -25 -15 -6 18 8 50 21 50 2 0 4 -16 4 -35z
m-80 10 c10 -12 10 -18 0 -30 -11 -13 -15 -13 -21 -3 -11 17 -11 48 0 48 5 0
14 -7 21 -15z m49 -48 c8 -11 6 -18 -8 -31 -18 -17 -20 -16 -26 3 -11 36 12
54 34 28z m31 -67 c0 -16 -4 -30 -9 -30 -12 0 -24 37 -16 50 12 20 25 10 25
-20z m-70 1 c0 -12 -20 -25 -27 -18 -7 7 6 27 18 27 5 0 9 -4 9 -9z m39 -35
c9 -10 8 -16 -4 -26 -19 -16 -41 1 -32 24 8 20 21 20 36 2z m41 -60 c0 -32
-11 -39 -32 -19 -17 15 -17 18 -2 34 20 22 34 16 34 -15z m-92 -23 c-16 -15
-18 -15 -24 0 -3 9 -3 25 0 34 6 15 8 15 24 0 15 -16 15 -18 0 -34z m52 -19
c11 -13 10 -19 -7 -36 l-21 -20 -12 21 c-9 17 -9 26 1 37 15 18 23 18 39 -2z
m-55 -44 c3 -5 -1 -10 -10 -10 -9 0 -13 5 -10 10 3 6 8 10 10 10 2 0 7 -4 10
-10z"/>
<path d="M785 790 c-3 -5 8 -28 26 -50 34 -43 49 -47 28 -8 -22 41 -47 69 -54
58z"/>
</g>
</svg>
