<?xml version="1.0" standalone="no"?>
<!DOCTYPE svg PUBLIC "-//W3C//DTD SVG 20010904//EN"
 "http://www.w3.org/TR/2001/REC-SVG-20010904/DTD/svg10.dtd">
<svg version="1.0" xmlns="http://www.w3.org/2000/svg"
 width="190.000000pt" height="142.000000pt" viewBox="0 0 190.000000 142.000000"
 preserveAspectRatio="xMidYMid meet">
<metadata>
Created by potrace 1.16, written by Peter Selinger 2001-2019
</metadata>
<g transform="translate(0.000000,142.000000) scale(0.100000,-0.100000)"
fill="#000000" stroke="none">
<path d="M794 1040 c-38 -44 -85 -108 -104 -141 l-35 -62 -177 2 -178 2 0
-150 0 -151 183 6 182 6 22 -39 c29 -53 104 -135 163 -178 l50 -37 152 87
c353 202 548 317 548 324 0 11 -676 398 -708 406 -27 5 -35 -1 -98 -75z m416
-138 c124 -66 255 -135 293 -153 37 -18 67 -36 67 -40 0 -4 -87 -52 -192 -107
-106 -54 -259 -136 -339 -180 -80 -45 -150 -82 -156 -82 -15 0 -105 98 -146
161 -43 64 -77 154 -77 204 0 83 64 204 165 313 l57 62 52 -29 c28 -15 152
-83 276 -149z m-572 -119 c-10 -37 -6 -146 7 -189 6 -20 5 -21 -157 -16 -90 2
-163 5 -164 6 0 0 2 51 5 111 l6 110 120 5 c66 4 137 7 157 8 l36 2 -10 -37z"/>
<path d="M942 922 c-8 -2 -12 -26 -12 -69 l0 -64 -114 7 c-131 8 -123 13 -118
-87 l4 -59 119 0 119 0 0 -71 0 -71 103 3 c56 2 105 9 109 14 4 6 8 97 8 203
l0 192 -47 0 c-27 1 -73 2 -103 4 -30 1 -61 1 -68 -2z m66 -38 c-9 -9 -21 -13
-27 -10 -20 13 -11 26 16 26 25 0 26 -1 11 -16z m122 7 c0 -19 -22 -23 -38 -7
-15 15 -14 16 11 16 15 0 27 -4 27 -9z m-57 -19 c13 -14 14 -21 5 -30 -17 -17
-43 -15 -59 4 -11 14 -10 18 6 30 24 18 29 18 48 -4z m-55 -55 c10 -8 8 -13
-8 -24 -23 -16 -40 -10 -40 16 0 33 13 35 48 8z m112 -7 c0 -22 -5 -30 -18
-30 -31 0 -44 21 -25 42 25 27 43 22 43 -12z m-56 -35 c20 -15 20 -15 0 -30
-24 -18 -29 -18 -44 0 -10 12 -10 18 0 30 15 18 20 18 44 0z m-293 -18 c-1
-12 -15 -9 -19 4 -3 6 1 10 8 8 6 -3 11 -8 11 -12z m59 -2 c0 -8 -4 -15 -10
-15 -5 0 -10 7 -10 15 0 8 5 15 10 15 6 0 10 -7 10 -15z m65 6 c7 -12 -12 -24
-25 -16 -11 7 -4 25 10 25 5 0 11 -4 15 -9z m225 -46 c0 -29 -20 -37 -43 -17
-16 14 -16 17 -1 33 20 22 44 14 44 -16z m-376 16 c3 -5 0 -14 -8 -20 -10 -9
-15 -8 -19 3 -9 22 15 37 27 17z m173 -28 c-3 -3 -11 -2 -17 2 -8 5 -7 11 2
22 12 15 13 14 16 -1 2 -10 1 -20 -1 -23z m88 23 c18 -13 18 -14 -4 -26 -27
-14 -47 -1 -38 24 8 20 18 20 42 2z m-205 -6 c0 -5 -4 -10 -10 -10 -5 0 -10 5
-10 10 0 6 5 10 10 10 6 0 10 -4 10 -10z m60 2 c0 -13 -12 -22 -22 -16 -10 6
-1 24 13 24 5 0 9 -4 9 -8z m-90 -30 c0 -13 -12 -22 -22 -16 -10 6 -1 24 13
24 5 0 9 -4 9 -8z m60 0 c0 -13 -12 -22 -22 -16 -10 6 -1 24 13 24 5 0 9 -4 9
-8z m60 -13 c0 -5 -7 -9 -15 -9 -15 0 -20 12 -9 23 8 8 24 -1 24 -14z m174 6
c20 -15 20 -15 0 -30 -24 -18 -29 -18 -44 0 -10 12 -10 18 0 30 15 18 20 18
44 0z m-61 -49 c16 -13 16 -14 -6 -29 -18 -12 -27 -13 -36 -4 -15 15 -14 34 2
40 18 8 21 7 40 -7z m120 -12 c6 -33 -17 -43 -43 -19 -15 14 -17 21 -9 32 19
22 46 16 52 -13z m-59 -66 c-21 -22 -37 -23 -55 -2 -11 14 -10 19 10 35 22 18
25 19 43 3 17 -16 17 -18 2 -36z m-69 -9 c4 -5 -5 -9 -19 -9 -14 0 -26 4 -26
8 0 11 39 12 45 1z m119 5 c25 -9 19 -24 -9 -24 -24 0 -32 10 -18 23 8 8 8 8
27 1z"/>
</g>
</svg>
