<?xml version="1.0" standalone="no"?>
<!DOCTYPE svg PUBLIC "-//W3C//DTD SVG 20010904//EN"
 "http://www.w3.org/TR/2001/REC-SVG-20010904/DTD/svg10.dtd">
<svg version="1.0" xmlns="http://www.w3.org/2000/svg"
 width="190.000000pt" height="142.000000pt" viewBox="0 0 190.000000 142.000000"
 preserveAspectRatio="xMidYMid meet">
<metadata>
Created by potrace 1.16, written by Peter Selinger 2001-2019
</metadata>
<g transform="translate(0.000000,142.000000) scale(0.100000,-0.100000)"
fill="#000000" stroke="none">
<path d="M794 1041 c-38 -45 -85 -109 -104 -142 l-35 -62 -178 2 -178 2 3
-148 3 -148 180 3 180 4 22 -39 c29 -53 104 -135 163 -178 l50 -37 152 87
c353 202 548 317 548 324 0 12 -676 398 -709 406 -27 6 -34 0 -97 -74z m406
-134 c107 -58 234 -124 283 -148 48 -24 87 -47 87 -51 0 -4 -55 -35 -122 -69
-68 -34 -220 -115 -340 -180 -119 -66 -220 -119 -226 -119 -16 0 -109 104
-152 171 -111 172 -85 310 95 507 l57 63 62 -34 c33 -19 149 -82 256 -140z
m-562 -124 c-10 -37 -6 -146 7 -189 6 -20 5 -21 -157 -16 -90 2 -163 5 -164 6
0 0 2 51 5 111 l6 110 120 5 c66 4 137 7 157 8 l36 2 -10 -37z"/>
<path d="M1132 828 c-57 -82 -58 -83 -153 -55 -46 14 -105 34 -131 46 -51 24
-78 19 -98 -19 -36 -68 31 -166 158 -229 38 -19 47 -20 84 -9 25 7 65 34 99
66 l58 53 52 -35 c28 -20 55 -36 59 -36 12 0 19 63 11 107 -8 39 -45 96 -89
136 -20 18 -21 17 -50 -25z m99 -71 c13 -25 19 -52 17 -78 l-3 -41 -37 29
c-25 18 -37 34 -34 46 6 27 -3 21 -70 -43 -63 -61 -114 -90 -156 -90 -55 0
-188 122 -188 172 0 16 14 52 25 66 1 1 26 -9 56 -22 30 -14 94 -34 143 -46
105 -24 117 -20 156 54 l25 45 23 -27 c12 -15 32 -44 43 -65z"/>
</g>
</svg>
