<?xml version="1.0" standalone="no"?>
<!DOCTYPE svg PUBLIC "-//W3C//DTD SVG 20010904//EN"
 "http://www.w3.org/TR/2001/REC-SVG-20010904/DTD/svg10.dtd">
<svg version="1.0" xmlns="http://www.w3.org/2000/svg"
 width="190.000000pt" height="142.000000pt" viewBox="0 0 190.000000 142.000000"
 preserveAspectRatio="xMidYMid meet">
<metadata>
Created by potrace 1.16, written by Peter Selinger 2001-2019
</metadata>
<g transform="translate(0.000000,142.000000) scale(0.100000,-0.100000)"
fill="#000000" stroke="none">
<path d="M794 1041 c-38 -45 -85 -109 -104 -142 l-35 -62 -178 2 -178 2 3
-148 3 -148 180 3 180 4 22 -39 c29 -53 104 -135 163 -178 l50 -37 152 87
c353 202 548 317 548 324 0 12 -676 398 -709 406 -27 6 -34 0 -97 -74z m406
-134 c107 -58 234 -124 283 -148 48 -24 87 -47 87 -51 0 -4 -55 -35 -122 -69
-68 -34 -196 -101 -285 -150 -89 -49 -165 -89 -168 -89 -7 0 -6 39 1 68 9 33
27 27 22 -8 -3 -19 -1 -29 6 -27 6 2 12 34 14 70 l3 67 -66 -32 c-36 -18 -65
-38 -65 -45 0 -11 6 -10 30 2 34 18 40 18 40 5 0 -6 -20 -20 -45 -32 -24 -12
-42 -25 -39 -30 3 -4 22 1 43 11 l37 19 -1 -41 c-2 -39 -6 -44 -48 -67 l-46
-25 -46 45 c-98 95 -175 239 -175 327 0 81 63 200 165 311 l57 63 62 -35 c33
-18 149 -81 256 -139z m-562 -124 c-10 -37 -6 -146 7 -189 6 -20 5 -21 -157
-16 -90 2 -163 5 -164 6 0 0 2 51 5 111 l6 110 120 5 c66 4 137 7 157 8 l36 2
-10 -37z m378 -280 c-11 -11 -19 6 -11 24 8 17 8 17 12 0 3 -10 2 -21 -1 -24z"/>
<path d="M976 974 l7 -36 -42 21 c-31 16 -41 18 -41 8 0 -8 18 -22 40 -32 22
-10 40 -22 40 -27 0 -11 -7 -10 -40 7 -24 12 -30 13 -30 2 0 -7 29 -27 65 -45
l65 -32 0 70 c0 40 -4 70 -10 70 -5 0 -10 -13 -10 -30 0 -16 -4 -30 -10 -30
-5 0 -10 13 -10 29 0 36 -9 61 -22 61 -5 0 -6 -15 -2 -36z m50 -102 c-9 -8
-26 10 -26 26 1 15 2 15 15 -2 8 -11 13 -21 11 -24z"/>
<path d="M1058 874 l5 -67 -55 32 c-56 31 -78 38 -78 23 0 -5 32 -23 70 -42
39 -19 70 -37 70 -42 0 -12 -8 -10 -55 17 -26 16 -46 22 -50 16 -3 -6 34 -30
84 -56 l91 -45 137 1 c182 2 231 13 98 22 -55 4 -135 7 -177 7 l-78 0 0 68 c0
38 -3 72 -6 75 -15 15 -19 -5 -14 -67 3 -36 3 -66 0 -66 -19 1 -25 25 -25 99
0 50 -4 86 -10 88 -7 2 -10 -20 -7 -63z"/>
<path d="M820 771 c0 -5 12 -14 28 -20 15 -6 40 -20 56 -30 l28 -19 -61 -33
c-56 -31 -75 -49 -52 -49 6 0 37 16 70 35 32 19 64 35 70 35 25 0 7 17 -55 53
-68 38 -84 44 -84 28z"/>
<path d="M895 770 c4 -6 32 -23 63 -39 l57 -29 -68 -33 c-62 -31 -83 -49 -56
-49 12 0 151 81 147 85 -2 2 -30 19 -63 39 -59 35 -92 46 -80 26z"/>
<path d="M770 762 c0 -4 12 -15 28 -24 23 -15 24 -17 7 -17 -11 0 -31 6 -45
14 -29 17 -40 18 -40 7 0 -5 12 -14 27 -21 27 -12 27 -13 8 -28 -11 -8 -27
-18 -35 -23 -8 -5 -12 -11 -8 -15 3 -3 25 3 48 15 23 12 47 19 53 17 7 -2 -3
-11 -20 -21 -18 -9 -33 -21 -33 -27 0 -6 4 -9 9 -7 28 10 130 64 130 68 1 6
-112 70 -123 70 -3 0 -6 -3 -6 -8z m82 -64 c-12 -12 -35 -1 -27 12 3 5 13 6
21 3 10 -4 12 -9 6 -15z"/>
<path d="M1037 649 c-43 -22 -75 -44 -72 -50 4 -6 33 5 72 27 l66 37 -6 -72
c-3 -39 -2 -71 2 -71 13 0 21 38 21 95 l0 50 72 -3 c96 -5 291 9 258 18 -14 4
-95 7 -180 8 l-155 2 -78 -41z"/>
<path d="M1003 591 c-40 -19 -73 -38 -73 -43 0 -15 23 -8 78 23 l55 31 -5 -66
c-3 -36 -2 -66 3 -66 12 0 21 57 17 110 l-3 45 -72 -34z"/>
</g>
</svg>
