<?xml version="1.0" standalone="no"?>
<!DOCTYPE svg PUBLIC "-//W3C//DTD SVG 20010904//EN"
 "http://www.w3.org/TR/2001/REC-SVG-20010904/DTD/svg10.dtd">
<svg version="1.0" xmlns="http://www.w3.org/2000/svg"
 width="190.000000pt" height="142.000000pt" viewBox="0 0 190.000000 142.000000"
 preserveAspectRatio="xMidYMid meet">
<metadata>
Created by potrace 1.16, written by Peter Selinger 2001-2019
</metadata>
<g transform="translate(0.000000,142.000000) scale(0.100000,-0.100000)"
fill="#000000" stroke="none">
<path d="M791 1038 c-39 -46 -85 -110 -102 -143 l-32 -60 -179 3 -179 4 3
-149 3 -148 180 3 180 4 22 -39 c29 -53 104 -135 163 -178 l50 -37 152 87
c353 202 548 317 548 324 0 12 -676 398 -708 406 -27 6 -35 0 -101 -77z m409
-131 c107 -58 234 -124 283 -148 48 -24 87 -47 87 -51 0 -4 -55 -35 -122 -69
-68 -34 -220 -115 -340 -180 -119 -66 -220 -119 -226 -119 -16 0 -109 104
-152 171 -111 172 -84 314 98 511 l54 58 62 -33 c33 -19 149 -82 256 -140z
m-562 -124 c-10 -37 -6 -146 7 -189 6 -20 5 -21 -157 -16 -90 2 -163 5 -164 6
0 0 2 51 5 111 l6 110 120 5 c66 4 137 7 157 8 l36 2 -10 -37z"/>
<path d="M848 868 c0 -35 -1 -71 0 -80 1 -14 -6 -18 -28 -18 -35 0 -36 4 -15
84 16 62 15 72 -8 63 -35 -13 -48 -190 -25 -339 6 -43 15 -78 19 -78 5 0 5 52
2 116 l-6 116 28 -4 c25 -2 29 -8 30 -33 1 -16 2 -66 4 -110 3 -102 19 -73 20
37 1 102 4 108 55 108 l41 0 17 -68 c18 -76 56 -168 64 -159 3 3 -1 27 -9 54
-20 61 -41 162 -36 167 2 2 28 6 57 10 52 7 52 7 51 -21 0 -15 -11 -68 -23
-118 -13 -49 -22 -92 -20 -94 7 -8 45 89 63 161 l19 73 46 3 c60 4 60 20 0 24
l-47 3 -13 54 c-19 73 -46 108 -81 107 -23 -1 -33 -10 -55 -56 -16 -29 -28
-64 -28 -77 0 -21 -5 -23 -45 -23 l-45 0 0 80 c0 64 -3 80 -15 80 -12 0 -15
-14 -17 -62z m247 -32 c8 -20 15 -45 15 -56 0 -20 -4 -21 -52 -17 l-53 4 3 33
c1 18 12 50 24 71 20 37 22 38 35 19 8 -11 20 -35 28 -54z"/>
</g>
</svg>
