<?xml version="1.0" standalone="no"?>
<!DOCTYPE svg PUBLIC "-//W3C//DTD SVG 20010904//EN"
 "http://www.w3.org/TR/2001/REC-SVG-20010904/DTD/svg10.dtd">
<svg version="1.0" xmlns="http://www.w3.org/2000/svg"
 width="190.000000pt" height="142.000000pt" viewBox="0 0 190.000000 142.000000"
 preserveAspectRatio="xMidYMid meet">
<metadata>
Created by potrace 1.16, written by Peter Selinger 2001-2019
</metadata>
<g transform="translate(0.000000,142.000000) scale(0.100000,-0.100000)"
fill="#000000" stroke="none">
<path d="M794 1041 c-38 -45 -85 -109 -104 -142 l-35 -62 -178 2 -178 2 3
-148 3 -148 180 3 180 4 22 -39 c29 -53 104 -135 163 -178 l50 -37 152 87
c353 202 548 317 548 324 0 12 -676 398 -709 406 -27 6 -34 0 -97 -74z m321
-87 l60 -33 -105 -3 -105 -3 0 -57 0 -57 -115 -3 -115 -3 -3 -64 c-2 -35 1
-68 7 -74 5 -5 59 -9 120 -8 l111 2 0 -71 0 -71 108 3 107 3 6 185 c4 102 7
190 8 196 0 6 61 -21 134 -60 73 -39 157 -82 185 -95 29 -14 52 -28 52 -32 0
-4 -60 -38 -132 -75 -73 -37 -203 -105 -288 -152 -85 -47 -181 -99 -212 -116
l-57 -31 -46 45 c-65 63 -142 181 -161 247 -34 119 12 239 150 390 l57 62 87
-46 c48 -26 114 -61 147 -79z m45 -84 l0 -30 -80 0 -80 0 0 30 0 30 80 0 80 0
0 -30z m0 -70 c0 -30 -1 -31 -42 -26 -24 3 -60 5 -80 5 -31 1 -38 5 -38 21 0
17 8 20 73 23 39 1 75 4 80 5 4 1 7 -12 7 -28z m-522 -17 c-10 -37 -6 -146 7
-189 6 -20 5 -21 -157 -16 -90 2 -163 5 -164 6 0 0 2 51 5 111 l6 110 120 5
c66 4 137 7 157 8 l36 2 -10 -37z m243 -10 c11 -98 11 -103 -16 -103 -27 0
-31 17 -19 79 6 27 32 45 35 24z m89 -48 l0 -55 -35 0 c-38 0 -42 11 -29 79 6
26 11 31 35 31 28 0 29 -1 29 -55z m-194 -8 c3 -36 0 -47 -11 -47 -11 0 -15
13 -15 51 0 65 20 62 26 -4z m51 3 c1 -44 -1 -50 -19 -50 -18 0 -20 4 -14 38
3 20 6 43 6 50 0 6 6 12 13 12 8 0 13 -17 14 -50z m333 10 l0 -30 -80 0 c-78
0 -80 1 -80 24 0 22 5 25 48 29 117 9 112 10 112 -23z m4 -66 c15 -40 9 -44
-77 -44 -46 0 -86 2 -89 5 -3 3 -3 17 0 30 4 24 7 25 82 25 62 0 79 -3 84 -16z
m6 -94 c0 -45 -1 -46 -119 -34 -59 7 -61 8 -61 35 l0 28 78 4 c42 1 83 4 90 5
8 1 12 -12 12 -38z"/>
</g>
</svg>
