<?xml version="1.0" standalone="no"?>
<!DOCTYPE svg PUBLIC "-//W3C//DTD SVG 20010904//EN"
 "http://www.w3.org/TR/2001/REC-SVG-20010904/DTD/svg10.dtd">
<svg version="1.0" xmlns="http://www.w3.org/2000/svg"
 width="190.000000pt" height="142.000000pt" viewBox="0 0 190.000000 142.000000"
 preserveAspectRatio="xMidYMid meet">
<metadata>
Created by potrace 1.16, written by Peter Selinger 2001-2019
</metadata>
<g transform="translate(0.000000,142.000000) scale(0.100000,-0.100000)"
fill="#000000" stroke="none">
<path d="M791 1038 c-39 -46 -85 -110 -102 -143 l-32 -60 -179 3 -179 4 3
-149 3 -148 180 3 180 4 22 -39 c29 -53 104 -135 163 -178 l50 -37 152 87
c346 198 548 317 548 323 0 9 16 0 -357 215 -178 102 -336 188 -352 192 -26 6
-34 0 -100 -77z m387 -118 c106 -57 191 -107 190 -110 -2 -4 -25 -27 -53 -51
l-50 -44 -102 3 -103 3 0 70 c0 55 -3 69 -15 69 -8 0 -48 -31 -89 -70 l-73
-70 -112 0 c-69 0 -111 4 -111 10 0 26 41 122 72 171 19 30 61 83 93 117 l58
62 51 -28 c28 -16 138 -75 244 -132z m-142 -357 c-1 -1 -30 29 -65 67 l-62 70
58 65 58 65 7 -132 c4 -73 6 -133 4 -135z m-398 220 c-10 -37 -6 -146 7 -189
6 -20 5 -21 -157 -16 -90 2 -163 5 -164 6 0 0 2 51 5 111 l6 110 120 5 c66 4
137 7 157 8 l36 2 -10 -37z m847 -25 c47 -23 85 -46 85 -50 0 -4 -41 -28 -91
-54 l-92 -46 -43 43 c-24 24 -44 46 -44 49 0 10 82 100 91 100 5 0 47 -19 94
-42z m-570 -109 c28 -28 67 -64 88 -81 48 -38 57 -29 57 60 l0 62 54 0 c29 0
74 3 99 6 45 6 47 5 99 -44 29 -28 51 -52 48 -55 -14 -12 -470 -257 -478 -257
-13 0 -102 96 -141 153 -37 55 -66 118 -74 164 l-6 32 72 4 c40 1 86 4 102 5
25 2 40 -8 80 -49z"/>
</g>
</svg>
