<?xml version="1.0" standalone="no"?>
<!DOCTYPE svg PUBLIC "-//W3C//DTD SVG 20010904//EN"
 "http://www.w3.org/TR/2001/REC-SVG-20010904/DTD/svg10.dtd">
<svg version="1.0" xmlns="http://www.w3.org/2000/svg"
 width="190.000000pt" height="142.000000pt" viewBox="0 0 190.000000 142.000000"
 preserveAspectRatio="xMidYMid meet">
<metadata>
Created by potrace 1.16, written by Peter Selinger 2001-2019
</metadata>
<g transform="translate(0.000000,142.000000) scale(0.100000,-0.100000)"
fill="#000000" stroke="none">
<path d="M791 1038 c-39 -46 -85 -110 -102 -143 l-32 -60 -179 3 -179 4 3
-149 3 -148 180 3 180 4 22 -39 c29 -53 104 -135 163 -178 l50 -37 152 87
c353 202 548 317 548 324 0 12 -676 398 -708 406 -27 6 -35 0 -101 -77z m409
-131 c107 -58 234 -124 283 -148 48 -24 87 -47 87 -51 0 -4 -51 -33 -112 -64
-62 -31 -180 -92 -261 -136 -81 -44 -149 -79 -151 -77 -2 2 -16 32 -30 66 -27
66 -32 117 -20 245 l7 66 91 8 c81 7 87 8 51 15 -22 4 -64 8 -92 8 l-53 1 0
54 c0 112 -21 145 -64 103 -46 -44 -96 -119 -110 -165 -8 -26 -26 -73 -40
-105 -28 -63 -30 -67 -18 -67 4 0 18 19 31 42 l24 43 18 -43 c10 -23 32 -63
50 -88 22 -32 28 -48 20 -57 -18 -23 -70 -147 -61 -147 5 0 26 30 46 66 24 43
41 63 50 60 19 -7 19 -6 -21 60 -41 67 -75 154 -75 189 0 24 3 25 60 25 l60 0
0 -142 c0 -140 1 -144 30 -197 17 -30 30 -55 30 -55 0 -1 -34 -19 -75 -41
l-74 -40 -46 45 c-65 63 -142 181 -161 247 -35 119 13 242 151 391 l57 62 62
-33 c33 -19 149 -82 256 -140z m-231 -34 l1 -33 -55 0 c-55 0 -55 0 -44 23 6
12 28 44 48 72 l36 49 7 -39 c4 -22 7 -55 7 -72z m-331 -90 c-10 -37 -6 -146
7 -189 6 -20 5 -21 -157 -16 -90 2 -163 5 -164 6 0 0 2 51 5 111 l6 110 120 5
c66 4 137 7 157 8 l36 2 -10 -37z"/>
</g>
</svg>
