<?xml version="1.0" standalone="no"?>
<!DOCTYPE svg PUBLIC "-//W3C//DTD SVG 20010904//EN"
 "http://www.w3.org/TR/2001/REC-SVG-20010904/DTD/svg10.dtd">
<svg version="1.0" xmlns="http://www.w3.org/2000/svg"
 width="192.000000pt" height="250.000000pt" viewBox="0 0 192.000000 250.000000"
 preserveAspectRatio="xMidYMid meet">
<metadata>
Created by potrace 1.16, written by Peter Selinger 2001-2019
</metadata>
<g transform="translate(0.000000,250.000000) scale(0.100000,-0.100000)"
fill="#000000" stroke="none">
<path d="M835 2144 c-93 -105 -175 -239 -175 -286 0 -9 -4 -19 -9 -22 -5 -3
-75 22 -156 56 -141 59 -148 61 -161 43 -15 -20 -18 -179 -6 -266 l7 -46 140
58 c190 80 172 77 185 27 28 -101 94 -193 198 -278 l64 -50 31 19 c18 10 154
88 302 173 324 186 365 211 365 220 0 3 -33 25 -72 48 -439 254 -608 348 -633
354 -27 5 -35 0 -80 -50z m465 -196 c118 -64 229 -123 245 -131 28 -15 -1 -16
-368 -10 -411 6 -416 6 -417 -31 0 -5 173 -6 408 -2 l407 7 -195 -104 c-107
-57 -258 -139 -335 -181 -103 -58 -143 -76 -155 -69 -34 22 -133 152 -167 220
-73 148 -37 277 128 457 l51 56 92 -48 c50 -27 188 -101 306 -164z m-650 -157
c0 -12 -37 -29 -150 -68 l-150 -51 0 52 c0 28 3 80 6 116 l6 65 144 -48 c108
-37 144 -53 144 -66z"/>
<path d="M833 1056 c-63 -67 -126 -156 -148 -210 l-15 -35 -185 6 -185 6 0
-152 0 -153 198 7 197 7 33 -50 c33 -52 132 -148 174 -171 21 -11 48 2 313
154 345 198 405 234 405 243 0 4 -60 41 -133 83 -72 42 -223 129 -334 193
-111 65 -216 121 -232 126 -28 8 -34 4 -88 -54z m242 -73 c88 -47 237 -126
330 -174 l170 -89 -397 1 c-219 0 -402 -2 -408 -6 -5 -3 -10 -13 -10 -20 0
-12 25 -14 153 -10 83 3 269 7 412 10 l260 5 -170 -89 c-93 -49 -246 -132
-340 -185 l-170 -95 -68 72 c-94 99 -151 213 -150 300 1 67 27 138 79 214 34
49 130 153 141 153 4 0 80 -39 168 -87z m-422 -251 c-4 -39 0 -77 11 -114 9
-31 16 -59 16 -63 0 -5 -352 4 -356 9 0 0 1 49 4 108 l4 107 32 4 c17 2 90 5
163 5 l131 2 -5 -58z"/>
</g>
</svg>
