<?xml version="1.0" standalone="no"?>
<!DOCTYPE svg PUBLIC "-//W3C//DTD SVG 20010904//EN"
 "http://www.w3.org/TR/2001/REC-SVG-20010904/DTD/svg10.dtd">
<svg version="1.0" xmlns="http://www.w3.org/2000/svg"
 width="190.000000pt" height="142.000000pt" viewBox="0 0 190.000000 142.000000"
 preserveAspectRatio="xMidYMid meet">
<metadata>
Created by potrace 1.16, written by Peter Selinger 2001-2019
</metadata>
<g transform="translate(0.000000,142.000000) scale(0.100000,-0.100000)"
fill="#000000" stroke="none">
<path d="M791 1038 c-39 -46 -85 -110 -102 -143 l-32 -60 -179 3 -179 4 3
-149 3 -148 180 3 180 4 22 -39 c29 -53 104 -135 163 -178 l50 -37 152 87
c353 202 548 317 548 324 0 12 -676 398 -708 406 -27 6 -35 0 -101 -77z m419
-136 c113 -60 240 -127 283 -148 42 -21 77 -42 77 -46 0 -4 -55 -35 -122 -69
-68 -34 -220 -115 -340 -180 -119 -66 -220 -119 -226 -119 -16 0 -109 104
-152 171 -111 172 -84 314 98 511 l54 58 62 -34 c33 -18 153 -83 266 -144z
m-572 -119 c-10 -37 -6 -146 7 -189 6 -20 5 -21 -157 -16 -90 2 -163 5 -164 6
0 0 2 51 5 111 l6 110 120 5 c66 4 137 7 157 8 l36 2 -10 -37z"/>
<path d="M780 870 c0 -20 4 -20 150 -14 l150 7 0 -34 c0 -19 3 -77 6 -130 l7
-97 -158 6 c-150 5 -157 4 -153 -14 3 -18 13 -19 156 -16 100 2 152 -1 152 -8
0 -5 5 -10 10 -10 6 0 10 29 10 68 l0 69 157 7 c148 6 173 9 162 21 -3 2 -76
8 -163 11 l-158 7 4 68 3 67 -44 6 c-24 3 -99 6 -167 6 -118 0 -124 -1 -124
-20z"/>
</g>
</svg>
