<?xml version="1.0" standalone="no"?>
<!DOCTYPE svg PUBLIC "-//W3C//DTD SVG 20010904//EN"
 "http://www.w3.org/TR/2001/REC-SVG-20010904/DTD/svg10.dtd">
<svg version="1.0" xmlns="http://www.w3.org/2000/svg"
 width="190.000000pt" height="142.000000pt" viewBox="0 0 190.000000 142.000000"
 preserveAspectRatio="xMidYMid meet">
<metadata>
Created by potrace 1.16, written by Peter Selinger 2001-2019
</metadata>
<g transform="translate(0.000000,142.000000) scale(0.100000,-0.100000)"
fill="#000000" stroke="none">
<path d="M794 1040 c-38 -44 -85 -108 -104 -141 l-35 -62 -177 2 -178 2 0
-150 0 -151 183 6 182 6 22 -39 c29 -53 104 -135 163 -178 l50 -37 152 87
c353 202 548 317 548 324 0 11 -676 398 -708 406 -27 5 -35 -1 -98 -75z m416
-138 c124 -66 255 -135 293 -153 37 -18 67 -37 67 -41 0 -4 -55 -35 -122 -69
-68 -34 -220 -115 -340 -180 -119 -66 -220 -119 -226 -119 -5 0 -31 24 -59 53
-110 116 -170 241 -159 333 11 92 62 185 161 292 l57 62 52 -29 c28 -15 152
-83 276 -149z m-572 -119 c-10 -37 -6 -146 7 -189 6 -20 5 -21 -157 -16 -90 2
-163 5 -164 6 0 0 2 51 5 111 l6 110 120 5 c66 4 137 7 157 8 l36 2 -10 -37z"/>
<path d="M848 919 c-10 -6 -1 -384 9 -402 3 -5 51 -7 107 -5 l101 4 5 198 c3
128 1 200 -5 202 -19 7 -207 9 -217 3z m70 -35 c-9 -9 -21 -13 -27 -10 -20 13
-11 26 16 26 25 0 26 -1 11 -16z m122 7 c0 -19 -22 -23 -38 -7 -15 15 -14 16
11 16 15 0 27 -4 27 -9z m-53 -19 l22 -17 -24 -17 c-22 -17 -24 -17 -47 2 -23
19 -23 19 -3 34 25 19 25 19 52 -2z m-52 -62 c7 -11 -25 -29 -42 -23 -14 5
-18 35 -7 46 7 7 40 -8 49 -23z m105 0 c0 -22 -5 -30 -18 -30 -31 0 -44 21
-25 42 25 27 43 22 43 -12z m-56 -35 c20 -15 20 -15 1 -29 -14 -10 -25 -11
-37 -5 -21 11 -22 21 -6 37 15 15 19 15 42 -3z m56 -61 c0 -27 -30 -34 -49
-10 -10 11 -7 17 10 30 27 19 39 13 39 -20z m-111 12 c9 -10 8 -16 -4 -26 -17
-14 -45 -7 -45 13 0 29 30 37 49 13z m71 -56 c0 -3 -10 -11 -21 -18 -18 -12
-24 -11 -38 3 -15 15 -15 17 3 30 14 11 22 11 37 2 10 -6 19 -14 19 -17z m50
-52 c0 -27 -27 -34 -51 -12 l-21 19 23 17 c25 21 49 9 49 -24z m-129 -10 c-18
-14 -27 -16 -37 -7 -33 27 0 56 40 36 19 -9 19 -10 -3 -29z m61 -51 c-16 -16
-23 -17 -41 -8 -27 15 -27 26 1 45 20 14 24 14 40 -1 18 -16 18 -17 0 -36z
m-66 -10 c4 -4 -5 -7 -19 -7 -15 0 -27 4 -27 8 0 10 36 9 46 -1z m132 -4 c2
-8 -6 -13 -22 -13 -25 0 -33 10 -19 24 10 10 36 3 41 -11z"/>
</g>
</svg>
