<?xml version="1.0" standalone="no"?>
<!DOCTYPE svg PUBLIC "-//W3C//DTD SVG 20010904//EN"
 "http://www.w3.org/TR/2001/REC-SVG-20010904/DTD/svg10.dtd">
<svg version="1.0" xmlns="http://www.w3.org/2000/svg"
 width="190.000000pt" height="142.000000pt" viewBox="0 0 190.000000 142.000000"
 preserveAspectRatio="xMidYMid meet">
<metadata>
Created by potrace 1.16, written by Peter Selinger 2001-2019
</metadata>
<g transform="translate(0.000000,142.000000) scale(0.100000,-0.100000)"
fill="#000000" stroke="none">
<path d="M791 1038 c-39 -46 -85 -110 -102 -143 l-32 -60 -179 3 -179 4 3
-149 3 -148 180 3 180 4 22 -39 c29 -53 104 -135 163 -178 l50 -37 152 87
c353 202 548 317 548 324 0 12 -676 398 -708 406 -27 6 -35 0 -101 -77z m419
-136 c113 -60 240 -127 283 -148 42 -21 77 -42 77 -46 0 -4 -55 -35 -122 -69
-68 -34 -220 -115 -340 -180 -119 -66 -220 -119 -226 -119 -16 0 -109 104
-152 171 -111 172 -84 314 98 511 l54 58 62 -34 c33 -18 153 -83 266 -144z
m-572 -119 c-10 -37 -6 -146 7 -189 6 -20 5 -21 -157 -16 -90 2 -163 5 -164 6
0 0 2 51 5 111 l6 110 120 5 c66 4 137 7 157 8 l36 2 -10 -37z"/>
<path d="M967 954 c-3 -3 -3 -21 0 -40 l6 -34 -102 0 -101 0 0 -160 0 -160
100 0 100 0 0 -55 c0 -32 4 -55 11 -55 15 0 389 253 386 262 -3 11 -374 248
-389 248 -2 0 -7 -3 -11 -6z m61 -61 c2 -8 -5 -13 -17 -13 -12 0 -21 6 -21 16
0 18 31 15 38 -3z m11 -90 c1 -8 -10 -13 -25 -13 -22 0 -25 4 -22 28 4 35 31
47 40 18 3 -11 6 -27 7 -33z m61 16 c0 -33 -3 -40 -17 -37 -32 6 -30 78 2 78
11 0 15 -11 15 -41z m-132 1 l1 -30 -85 0 -84 0 0 30 0 30 83 0 84 0 1 -30z
m202 -22 c0 -11 -8 -18 -20 -18 -16 0 -20 7 -20 30 0 28 2 29 20 18 11 -7 20
-21 20 -30z m45 -8 c3 -5 1 -10 -4 -10 -6 0 -11 5 -11 10 0 6 2 10 4 10 3 0 8
-4 11 -10z m25 -70 c0 -42 -2 -47 -22 -45 -40 3 -38 91 2 91 17 0 20 -7 20
-46z m-270 0 l0 -41 -87 3 c-83 3 -88 4 -91 26 -7 47 2 52 93 52 l85 0 0 -40z
m70 0 c0 -36 -2 -40 -25 -40 -22 0 -25 4 -25 40 0 36 3 40 25 40 23 0 25 -4
25 -40z m60 0 c0 -33 -3 -40 -20 -40 -17 0 -20 7 -20 40 0 33 3 40 20 40 17 0
20 -7 20 -40z m70 0 c0 -36 -2 -40 -25 -40 -20 0 -25 5 -25 24 0 37 10 56 31
56 15 0 19 -7 19 -40z m170 -8 c0 -9 -54 -42 -69 -42 -6 0 -11 19 -11 45 l0
45 40 -20 c22 -11 40 -24 40 -28z m-240 -92 c0 -33 -3 -40 -20 -40 -16 0 -20
7 -20 34 0 31 9 43 33 45 4 1 7 -17 7 -39z m73 15 c3 -18 -2 -30 -17 -40 -11
-8 -24 -15 -28 -15 -10 0 -11 64 -1 73 15 16 41 6 46 -18z m67 19 c0 -8 -32
-33 -42 -34 -5 0 -8 9 -8 20 0 15 7 20 25 20 14 0 25 -3 25 -6z m-270 -34 l0
-30 -90 0 -90 0 0 30 0 30 90 0 90 0 0 -30z m70 -6 c0 -29 -3 -35 -16 -30 -9
3 -20 6 -25 6 -5 0 -9 14 -9 30 0 25 4 30 25 30 22 0 25 -4 25 -36z m-2 -75
c-2 -12 -13 -28 -25 -37 -22 -14 -23 -14 -23 22 0 32 3 36 26 36 20 0 25 -4
22 -21z m61 18 c-2 -1 -12 -9 -21 -16 -15 -12 -18 -11 -18 3 0 10 8 16 22 16
12 0 19 -1 17 -3z"/>
</g>
</svg>
