<?xml version="1.0" standalone="no"?>
<!DOCTYPE svg PUBLIC "-//W3C//DTD SVG 20010904//EN"
 "http://www.w3.org/TR/2001/REC-SVG-20010904/DTD/svg10.dtd">
<svg version="1.0" xmlns="http://www.w3.org/2000/svg"
 width="190.000000pt" height="142.000000pt" viewBox="0 0 190.000000 142.000000"
 preserveAspectRatio="xMidYMid meet">
<metadata>
Created by potrace 1.16, written by Peter Selinger 2001-2019
</metadata>
<g transform="translate(0.000000,142.000000) scale(0.100000,-0.100000)"
fill="#000000" stroke="none">
<path d="M794 1041 c-38 -45 -85 -109 -104 -142 l-35 -62 -178 2 -178 2 3
-148 3 -148 180 3 180 4 22 -39 c29 -53 104 -135 163 -178 l50 -37 152 87
c353 202 548 317 548 324 0 12 -676 398 -709 406 -27 6 -34 0 -97 -74z m282
-67 l42 -24 -39 -42 c-44 -48 -69 -95 -69 -128 0 -22 0 -22 -162 -19 -153 4
-163 3 -166 -15 -4 -18 4 -18 160 -15 l163 4 5 -70 c4 -57 11 -78 36 -115 18
-25 41 -54 53 -64 l21 -20 -112 -63 c-62 -34 -118 -63 -124 -63 -17 0 -109
101 -154 171 -111 172 -85 310 94 506 l57 63 77 -42 c42 -22 96 -51 118 -64z
m372 -197 c67 -34 122 -65 122 -69 0 -4 -62 -38 -137 -76 -76 -39 -158 -82
-183 -96 -51 -29 -68 -33 -49 -10 9 11 10 17 1 23 -6 3 -23 33 -37 65 -19 43
-25 70 -21 100 6 51 25 106 37 106 15 0 10 24 -14 72 l-23 46 90 -50 c50 -27
146 -77 214 -111z m-296 100 c22 -47 7 -63 -54 -59 -27 2 -48 6 -48 9 0 12 63
83 74 83 7 0 19 -15 28 -33z m-514 -94 c-10 -37 -6 -146 7 -189 6 -20 5 -21
-157 -16 -90 2 -163 5 -164 6 0 0 2 51 5 111 l6 110 120 5 c66 4 137 7 157 8
l36 2 -10 -37z m498 -8 c-3 -11 -6 -26 -6 -32 0 -9 -17 -13 -52 -12 -29 1 -43
4 -30 6 27 5 29 23 2 23 -12 0 -20 7 -20 18 0 14 9 17 56 17 50 0 55 -2 50
-20z m-14 -100 c5 -24 3 -25 -43 -25 -27 0 -49 3 -50 8 0 4 -2 15 -4 25 -3 14
4 17 45 17 43 0 48 -2 52 -25z m26 -70 c7 -14 12 -27 12 -28 0 -1 -25 -2 -55
-2 -47 0 -55 3 -65 23 -14 33 -15 32 43 32 48 0 55 -3 65 -25z m32 -61 c0 -7
-40 -74 -44 -74 -2 0 -17 18 -35 40 l-32 40 56 0 c30 0 55 -3 55 -6z"/>
</g>
</svg>
