<?xml version="1.0" standalone="no"?>
<!DOCTYPE svg PUBLIC "-//W3C//DTD SVG 20010904//EN"
 "http://www.w3.org/TR/2001/REC-SVG-20010904/DTD/svg10.dtd">
<svg version="1.0" xmlns="http://www.w3.org/2000/svg"
 width="190.000000pt" height="244.000000pt" viewBox="0 0 190.000000 244.000000"
 preserveAspectRatio="xMidYMid meet">
<metadata>
Created by potrace 1.16, written by Peter Selinger 2001-2019
</metadata>
<g transform="translate(0.000000,244.000000) scale(0.100000,-0.100000)"
fill="#000000" stroke="none">
<path d="M795 2063 c-79 -93 -127 -169 -150 -240 -10 -29 -20 -53 -24 -53 -4
0 -71 27 -149 60 -77 33 -145 60 -150 60 -6 0 -12 -10 -16 -22 -9 -34 -7 -296
2 -302 4 -2 70 22 147 55 77 32 147 61 156 64 12 4 19 -8 32 -52 27 -97 108
-205 208 -279 l49 -36 152 88 c369 211 548 316 548 322 0 9 15 0 -357 215
-178 102 -336 188 -352 192 -27 6 -34 0 -96 -72z m435 -151 c124 -66 251 -133
283 -148 31 -16 57 -31 57 -34 0 -3 -60 -37 -132 -74 -73 -38 -226 -120 -340
-183 -114 -62 -211 -113 -216 -113 -15 0 -105 100 -145 161 -43 64 -77 154
-77 204 0 83 64 204 165 313 l57 62 62 -34 c33 -18 162 -88 286 -154z m-743
-119 c103 -35 143 -52 143 -64 0 -11 -42 -30 -152 -67 -83 -28 -152 -50 -153
-49 -4 11 8 227 13 227 4 1 71 -21 149 -47z"/>
<path d="M945 1838 l0 -73 -90 0 c-77 0 -90 -3 -93 -18 -3 -15 7 -17 92 -17
l96 0 0 -32 c0 -58 13 -138 21 -138 5 0 9 38 9 85 l0 85 28 1 c15 1 34 2 42 3
8 2 75 3 148 4 80 1 132 6 132 12 0 6 -63 10 -169 10 -133 0 -170 3 -174 14
-3 7 -3 41 -1 75 4 58 3 61 -18 61 -22 0 -23 -4 -23 -72z"/>
<path d="M819 1063 c-60 -64 -132 -162 -149 -202 l-13 -32 -178 7 -179 7 0
-152 c0 -137 2 -151 18 -152 53 -2 197 2 263 7 l77 6 35 -55 c42 -66 131 -155
180 -181 l35 -19 318 183 c176 101 331 191 346 199 16 9 28 19 28 23 0 15
-665 395 -706 404 -26 5 -35 0 -75 -43z m258 -95 c103 -56 260 -139 347 -184
l159 -82 -124 -62 c-68 -34 -227 -119 -352 -187 l-228 -126 -31 29 c-86 83
-172 230 -184 315 -13 93 51 226 164 342 31 31 57 57 59 57 1 0 86 -46 190
-102z m-439 -195 c-10 -39 -6 -153 7 -185 7 -17 -5 -18 -157 -18 l-165 0 4
103 c3 56 6 107 8 114 4 12 58 18 222 21 l91 2 -10 -37z"/>
<path d="M945 950 c-4 -6 -3 -57 1 -115 l7 -105 -107 0 c-99 0 -106 -1 -106
-20 0 -19 7 -20 105 -20 l105 0 0 -67 c0 -38 3 -99 7 -138 9 -98 21 -51 22 91
l1 111 92 7 c50 3 133 6 184 6 164 0 111 18 -74 25 -97 3 -183 8 -191 11 -11
4 -13 25 -7 114 6 105 5 110 -13 110 -11 0 -23 -5 -26 -10z"/>
</g>
</svg>
