<?xml version="1.0" standalone="no"?>
<!DOCTYPE svg PUBLIC "-//W3C//DTD SVG 20010904//EN"
 "http://www.w3.org/TR/2001/REC-SVG-20010904/DTD/svg10.dtd">
<svg version="1.0" xmlns="http://www.w3.org/2000/svg"
 width="194.000000pt" height="285.000000pt" viewBox="0 0 194.000000 285.000000"
 preserveAspectRatio="xMidYMid meet">
<metadata>
Created by potrace 1.16, written by Peter Selinger 2001-2019
</metadata>
<g transform="translate(0.000000,285.000000) scale(0.100000,-0.100000)"
fill="#000000" stroke="none">
<path d="M804 2488 c-94 -98 -174 -231 -174 -288 0 -11 -3 -20 -7 -20 -5 0
-75 28 -156 62 -122 50 -150 59 -158 47 -5 -8 -9 -83 -9 -167 l0 -152 38 16
c168 72 275 113 282 109 5 -3 11 -23 15 -44 13 -80 121 -221 221 -291 l40 -28
175 100 c379 217 519 300 519 308 0 10 -68 51 -430 258 -135 77 -256 143 -270
147 -22 5 -34 -3 -86 -57z m242 -70 c93 -50 249 -133 347 -183 l179 -92 -64
-36 c-34 -19 -97 -52 -138 -72 -41 -21 -168 -89 -282 -151 -114 -63 -211 -114
-217 -114 -18 0 -140 154 -173 219 -26 52 -34 79 -37 139 -3 68 -1 79 32 145
29 57 166 237 181 237 2 0 79 -41 172 -92z m-523 -227 c140 -47 136 -55 -54
-119 l-152 -51 7 91 c3 50 6 104 6 119 l0 29 48 -19 c26 -10 91 -33 145 -50z"/>
<path d="M945 2314 c-33 -20 -90 -59 -127 -86 -53 -39 -67 -54 -64 -71 3 -23
120 -114 208 -162 l46 -25 111 90 c61 50 111 94 111 99 0 8 -121 112 -190 164
l-36 26 -59 -35z m153 -75 c53 -38 100 -69 104 -69 19 0 5 -17 -37 -43 -24
-16 -75 -50 -111 -77 -65 -48 -68 -49 -89 -32 -12 9 -57 44 -99 76 -42 32 -75
62 -74 66 7 17 193 158 201 153 6 -3 53 -37 105 -74z"/>
<path d="M852 1056 c-57 -59 -135 -168 -147 -205 -5 -15 -22 -17 -185 -13
l-181 4 3 -148 3 -149 180 3 180 3 30 -52 c30 -51 141 -163 186 -187 22 -12
43 -2 279 134 362 207 440 254 440 262 0 4 -28 23 -63 43 -34 19 -185 107
-336 193 -151 87 -287 162 -302 166 -25 7 -33 2 -87 -54z m288 -97 c113 -61
267 -142 343 -181 l139 -70 -189 -98 c-103 -54 -260 -139 -348 -188 l-160 -89
-44 41 c-70 66 -139 173 -162 248 -26 85 -21 132 26 225 36 71 157 223 178
223 7 0 104 -50 217 -111z m-461 -178 c-12 -33 -7 -142 7 -190 l7 -24 -69 6
c-38 4 -112 7 -164 7 l-96 0 4 103 c2 56 8 107 14 112 6 7 289 25 306 19 1 0
-3 -15 -9 -33z"/>
<path d="M1055 890 c-11 -4 -65 -39 -120 -77 -137 -94 -136 -101 5 -198 58
-40 115 -75 126 -79 17 -5 45 12 133 84 95 78 110 94 100 107 -19 22 -208 173
-217 172 -4 0 -16 -4 -27 -9z m97 -81 c46 -33 94 -68 107 -77 l24 -18 -104
-73 c-57 -40 -108 -75 -114 -77 -5 -2 -39 20 -75 49 -36 28 -81 63 -99 77
l-32 25 97 78 c54 42 102 77 106 77 4 0 45 -27 90 -61z"/>
</g>
</svg>
