<?xml version="1.0" standalone="no"?>
<!DOCTYPE svg PUBLIC "-//W3C//DTD SVG 20010904//EN"
 "http://www.w3.org/TR/2001/REC-SVG-20010904/DTD/svg10.dtd">
<svg version="1.0" xmlns="http://www.w3.org/2000/svg"
 width="190.000000pt" height="142.000000pt" viewBox="0 0 190.000000 142.000000"
 preserveAspectRatio="xMidYMid meet">
<metadata>
Created by potrace 1.16, written by Peter Selinger 2001-2019
</metadata>
<g transform="translate(0.000000,142.000000) scale(0.100000,-0.100000)"
fill="#000000" stroke="none">
<path d="M797 1043 l-67 -78 -207 0 c-188 0 -208 -2 -211 -17 -3 -16 11 -17
199 -11 120 4 200 3 197 -3 -2 -5 -19 -41 -38 -80 l-34 -70 -168 4 -168 5 0
-152 0 -152 198 6 197 6 34 -46 c35 -47 118 -123 157 -143 18 -9 55 9 265 129
346 199 449 260 449 268 0 12 -673 398 -706 405 -28 6 -35 1 -97 -71z m373
-118 c135 -73 280 -150 323 -171 42 -21 77 -42 77 -46 0 -4 -62 -39 -137 -77
-76 -38 -231 -121 -345 -184 l-206 -114 -45 46 c-68 71 -104 123 -139 197 -66
142 -33 259 127 440 51 58 58 63 78 53 12 -7 132 -72 267 -144z m-540 -217 c0
-29 11 -84 24 -121 l23 -68 -176 7 c-97 4 -176 7 -177 8 0 0 1 49 4 108 5 126
-12 115 175 117 l127 1 0 -52z"/>
<path d="M950 985 l0 -36 -30 16 c-16 8 -34 15 -40 15 -20 0 0 -20 41 -40 21
-11 39 -25 39 -30 0 -6 -13 -4 -30 5 -16 8 -34 15 -40 15 -22 0 2 -20 65 -53
74 -39 71 -42 59 61 -7 56 -24 72 -24 21 0 -17 -4 -28 -10 -24 -5 3 -10 24
-10 46 0 21 -4 39 -10 39 -5 0 -10 -16 -10 -35z m50 -91 c0 -9 -5 -14 -12 -12
-18 6 -21 28 -4 28 9 0 16 -7 16 -16z"/>
<path d="M1034 885 c4 -36 4 -65 1 -65 -3 0 -29 14 -58 30 -58 32 -67 35 -67
21 0 -6 34 -27 75 -49 72 -38 75 -39 75 -17 0 57 -14 145 -23 145 -6 0 -7 -24
-3 -65z"/>
<path d="M1073 832 c4 -40 4 -72 0 -72 -3 0 -30 14 -60 30 -53 30 -73 36 -73
22 0 -4 38 -27 85 -50 l85 -42 160 0 c95 0 161 4 165 10 4 7 -53 10 -164 10
l-169 0 -7 75 c-4 41 -12 78 -18 82 -7 4 -8 -17 -4 -65z"/>
<path d="M800 781 c0 -6 25 -24 57 -39 l56 -29 -61 -34 c-34 -18 -62 -37 -62
-41 0 -13 11 -9 77 28 35 19 69 34 76 31 7 -2 -12 -16 -41 -31 -29 -15 -50
-31 -47 -37 4 -6 25 1 53 17 26 15 59 35 74 43 16 9 28 18 28 21 0 9 -125 80
-140 80 -23 0 7 -25 60 -50 27 -13 50 -27 50 -32 0 -15 -17 -8 -85 33 -80 48
-95 55 -95 40z"/>
<path d="M740 772 c0 -5 11 -15 25 -22 13 -7 22 -17 19 -22 -3 -5 -21 0 -40
12 -37 21 -54 25 -54 12 0 -5 14 -15 32 -23 l31 -15 -38 -24 c-48 -30 -28 -40
21 -11 38 23 54 26 54 12 0 -5 -13 -14 -30 -21 -27 -11 -41 -30 -22 -30 10 -1
132 64 132 70 0 6 -114 70 -124 70 -3 0 -6 -4 -6 -8z m90 -63 c0 -5 -7 -9 -15
-9 -8 0 -15 7 -15 15 0 9 6 12 15 9 8 -4 15 -10 15 -15z"/>
<path d="M1022 660 c-45 -21 -82 -44 -82 -50 0 -15 6 -13 75 26 l64 35 -6 -70
c-4 -49 -2 -71 5 -71 7 0 12 27 14 68 l3 67 167 5 c91 3 169 8 172 11 7 6
-170 19 -269 19 -51 0 -75 -7 -143 -40z"/>
<path d="M972 598 c-40 -21 -70 -44 -66 -49 3 -6 33 5 69 26 l64 35 -6 -72
c-4 -49 -2 -70 4 -63 12 12 26 166 15 164 -4 -1 -40 -19 -80 -41z"/>
<path d="M945 545 c-33 -19 -61 -38 -63 -44 -5 -15 8 -13 38 4 14 8 29 14 34
15 17 0 -15 -28 -49 -45 -19 -9 -35 -20 -35 -25 0 -13 10 -12 40 5 36 21 40
19 40 -21 0 -21 4 -33 10 -29 6 3 10 24 10 45 0 21 5 42 10 45 6 4 10 -9 10
-31 0 -23 4 -34 9 -28 12 12 25 144 14 143 -4 -1 -35 -16 -68 -34z m55 -15 c0
-11 -7 -20 -15 -20 -18 0 -19 12 -3 28 16 16 18 15 18 -8z"/>
</g>
</svg>
