<?xml version="1.0" standalone="no"?>
<!DOCTYPE svg PUBLIC "-//W3C//DTD SVG 20010904//EN"
 "http://www.w3.org/TR/2001/REC-SVG-20010904/DTD/svg10.dtd">
<svg version="1.0" xmlns="http://www.w3.org/2000/svg"
 width="190.000000pt" height="142.000000pt" viewBox="0 0 190.000000 142.000000"
 preserveAspectRatio="xMidYMid meet">
<metadata>
Created by potrace 1.16, written by Peter Selinger 2001-2019
</metadata>
<g transform="translate(0.000000,142.000000) scale(0.100000,-0.100000)"
fill="#000000" stroke="none">
<path d="M797 1043 l-67 -78 -207 0 c-188 0 -208 -2 -211 -17 -3 -16 11 -17
199 -11 120 4 200 3 197 -3 -2 -5 -19 -41 -38 -80 l-34 -70 -168 4 -168 5 0
-152 0 -152 198 6 197 6 34 -46 c35 -47 118 -123 157 -143 18 -10 58 10 295
146 355 204 419 243 419 251 0 4 -24 20 -52 37 -29 17 -181 105 -338 196 -157
91 -299 168 -316 172 -28 6 -35 1 -97 -71z m363 -113 c129 -70 277 -149 329
-175 l94 -47 -189 -97 c-104 -54 -262 -138 -351 -188 l-162 -90 -44 46 c-68
71 -104 123 -139 197 -66 142 -33 259 127 440 51 58 58 63 78 52 12 -6 128
-68 257 -138z m-530 -222 c0 -29 11 -84 24 -121 l23 -68 -176 7 c-97 4 -176 7
-177 8 0 0 1 49 4 108 5 126 -13 114 180 117 l122 1 0 -52z"/>
<path d="M983 888 c-90 -50 -210 -143 -210 -163 -1 -22 128 -120 215 -165 l42
-22 55 41 c67 51 159 131 164 143 1 5 -16 26 -40 46 -67 57 -173 142 -179 142
-3 0 -24 -10 -47 -22z m137 -84 c58 -42 103 -79 101 -82 -2 -4 -52 -41 -110
-83 l-105 -76 -61 51 c-34 28 -78 65 -99 81 l-38 30 94 77 c51 42 98 77 103
77 6 1 57 -33 115 -75z"/>
</g>
</svg>
