<?xml version="1.0" standalone="no"?>
<!DOCTYPE svg PUBLIC "-//W3C//DTD SVG 20010904//EN"
 "http://www.w3.org/TR/2001/REC-SVG-20010904/DTD/svg10.dtd">
<svg version="1.0" xmlns="http://www.w3.org/2000/svg"
 width="190.000000pt" height="142.000000pt" viewBox="0 0 190.000000 142.000000"
 preserveAspectRatio="xMidYMid meet">
<metadata>
Created by potrace 1.16, written by Peter Selinger 2001-2019
</metadata>
<g transform="translate(0.000000,142.000000) scale(0.100000,-0.100000)"
fill="#000000" stroke="none">
<path d="M791 1038 c-39 -46 -85 -110 -102 -143 l-32 -60 -179 3 -179 4 3
-149 3 -148 180 3 180 4 22 -39 c29 -53 104 -135 163 -178 l50 -37 152 87
c353 202 548 317 548 324 0 12 -676 398 -708 406 -27 6 -35 0 -101 -77z m419
-136 c113 -60 240 -127 283 -148 42 -21 77 -42 77 -45 0 -4 -87 -52 -192 -107
-106 -54 -259 -136 -339 -180 -80 -45 -150 -82 -156 -82 -17 0 -109 103 -153
171 -111 172 -84 314 98 511 l54 58 62 -34 c33 -18 153 -83 266 -144z m-572
-119 c-10 -37 -6 -146 7 -189 6 -20 5 -21 -157 -16 -90 2 -163 5 -164 6 0 0 2
51 5 111 l6 110 120 5 c66 4 137 7 157 8 l36 2 -10 -37z"/>
<path d="M786 951 c-4 -6 2 -19 14 -31 24 -24 26 -69 4 -134 -26 -75 -16 -161
25 -225 20 -31 40 -51 49 -49 8 2 29 29 47 61 l32 58 8 -63 c9 -74 12 -69 24
32 l8 75 2 -82 c0 -48 5 -83 11 -83 6 0 10 33 10 80 0 47 4 80 10 80 6 0 10
-35 11 -82 1 -98 17 -80 18 20 1 37 5 62 12 62 6 0 10 -15 8 -32 -1 -18 -1
-55 1 -83 2 -41 3 -46 10 -25 4 14 8 51 9 83 2 91 21 68 21 -25 0 -57 3 -78
10 -68 5 8 10 45 10 83 0 38 4 67 10 67 6 0 10 -35 11 -82 1 -97 16 -72 18 30
l1 62 50 0 c32 0 50 -4 50 -12 0 -8 3 -8 9 -3 5 6 11 44 13 85 l3 75 -176 5
c-184 6 -209 12 -209 51 0 11 -7 19 -15 19 -23 0 -18 -38 10 -65 24 -25 27
-25 195 -25 l170 0 0 -55 0 -55 -155 0 -155 0 -6 28 c-9 45 -23 73 -33 67 -6
-3 -6 -18 0 -38 15 -53 10 -109 -15 -163 -13 -28 -29 -55 -35 -58 -7 -5 -21
13 -36 46 -29 63 -32 134 -9 215 9 31 13 69 10 87 -7 36 -50 84 -60 67z"/>
</g>
</svg>
