<?xml version="1.0" standalone="no"?>
<!DOCTYPE svg PUBLIC "-//W3C//DTD SVG 20010904//EN"
 "http://www.w3.org/TR/2001/REC-SVG-20010904/DTD/svg10.dtd">
<svg version="1.0" xmlns="http://www.w3.org/2000/svg"
 width="190.000000pt" height="142.000000pt" viewBox="0 0 190.000000 142.000000"
 preserveAspectRatio="xMidYMid meet">
<metadata>
Created by potrace 1.16, written by Peter Selinger 2001-2019
</metadata>
<g transform="translate(0.000000,142.000000) scale(0.100000,-0.100000)"
fill="#000000" stroke="none">
<path d="M794 1041 c-38 -45 -85 -109 -104 -142 l-35 -62 -178 2 -178 2 3
-148 3 -148 180 3 180 4 22 -39 c29 -53 104 -135 163 -178 l50 -37 152 87
c353 202 548 317 548 324 0 12 -676 398 -709 406 -27 6 -34 0 -97 -74z m406
-134 c107 -58 234 -124 283 -148 48 -24 87 -47 87 -51 0 -4 -55 -35 -122 -69
-68 -34 -220 -115 -340 -180 -119 -66 -220 -119 -226 -119 -16 0 -109 104
-152 171 -52 81 -74 156 -66 222 12 90 74 194 179 304 l41 43 60 -34 c34 -18
149 -81 256 -139z m-562 -124 c-10 -37 -6 -146 7 -189 6 -20 5 -21 -157 -16
-90 2 -163 5 -164 6 0 0 2 51 5 111 l6 110 120 5 c66 4 137 7 157 8 l36 2 -10
-37z"/>
<path d="M783 934 c-35 -16 -2 -24 100 -24 110 -1 191 -10 205 -25 4 -3 7 -41
7 -83 0 -70 -4 -84 -42 -159 -33 -66 -38 -83 -26 -87 20 -8 119 -8 176 0 38 6
44 9 36 23 -5 9 -25 69 -44 135 -49 162 -64 190 -114 204 -43 13 -278 26 -298
16z m377 -176 c0 -4 -7 -8 -15 -8 -10 0 -15 10 -15 28 1 26 1 26 15 8 8 -11
15 -23 15 -28z m10 -37 c15 -29 13 -31 -25 -31 -19 0 -35 3 -35 6 0 16 22 44
35 44 8 0 19 -9 25 -19z m20 -55 c0 -2 3 -11 6 -20 5 -14 -3 -16 -55 -16 -34
0 -61 2 -61 4 0 26 16 36 61 36 27 0 49 -2 49 -4z m23 -66 c5 -19 0 -20 -85
-20 -78 0 -89 2 -78 15 7 9 35 15 73 18 34 2 67 4 73 5 7 1 14 -7 17 -18z"/>
</g>
</svg>
