<?xml version="1.0" standalone="no"?>
<!DOCTYPE svg PUBLIC "-//W3C//DTD SVG 20010904//EN"
 "http://www.w3.org/TR/2001/REC-SVG-20010904/DTD/svg10.dtd">
<svg version="1.0" xmlns="http://www.w3.org/2000/svg"
 width="190.000000pt" height="142.000000pt" viewBox="0 0 190.000000 142.000000"
 preserveAspectRatio="xMidYMid meet">
<metadata>
Created by potrace 1.16, written by Peter Selinger 2001-2019
</metadata>
<g transform="translate(0.000000,142.000000) scale(0.100000,-0.100000)"
fill="#000000" stroke="none">
<path d="M794 1041 c-38 -45 -85 -109 -104 -142 l-35 -62 -178 2 -178 2 3
-148 3 -148 180 3 180 4 22 -39 c29 -53 104 -135 163 -178 l50 -37 152 87
c353 202 548 317 548 324 0 12 -676 398 -709 406 -27 6 -34 0 -97 -74z m365
-111 l173 -94 -63 -32 -64 -32 -67 34 c-87 44 -154 61 -274 70 -77 5 -98 4
-105 -7 -14 -22 -13 -23 51 -74 l61 -49 -46 -24 c-25 -14 -45 -31 -45 -37 0
-7 21 -21 46 -32 l47 -19 -53 -57 c-69 -76 -62 -86 56 -69 47 7 109 22 138 32
64 24 178 92 184 110 3 7 0 10 -6 6 -7 -4 -11 11 -10 46 1 59 7 76 18 57 6 -9
25 -3 77 27 l68 40 113 -55 c61 -31 112 -59 112 -63 0 -4 -55 -35 -122 -69
-68 -34 -220 -115 -340 -180 -119 -66 -220 -119 -226 -119 -16 0 -109 104
-152 171 -52 81 -74 156 -66 222 12 90 74 194 179 304 l41 43 50 -29 c28 -15
129 -70 225 -121z m-263 -127 c1 -24 -2 -43 -5 -43 -3 1 -28 21 -56 46 l-50
44 55 -2 55 -3 1 -42z m54 -3 c0 -29 -4 -40 -15 -40 -11 0 -15 11 -15 40 0 29
4 40 15 40 11 0 15 -11 15 -40z m50 -6 c0 -22 -5 -34 -13 -34 -9 0 -13 12 -12
38 3 45 3 45 15 37 6 -3 10 -22 10 -41z m-362 -11 c-10 -37 -6 -146 7 -189 6
-20 5 -21 -157 -16 -90 2 -163 5 -164 6 0 0 2 51 5 111 l6 110 120 5 c66 4
137 7 157 8 l36 2 -10 -37z m412 1 c0 -22 -4 -34 -12 -32 -16 6 -16 68 0 68 7
0 12 -14 12 -36z m48 -13 c3 -24 0 -32 -10 -29 -7 3 -14 19 -16 37 -3 24 0 32
10 29 7 -3 14 -19 16 -37z m62 -22 c0 -21 -4 -27 -15 -23 -8 4 -15 19 -15 35
0 21 4 27 15 23 8 -4 15 -19 15 -35z m-210 -54 c0 -32 -4 -45 -14 -45 -25 0
-14 88 12 90 1 0 2 -20 2 -45z m50 0 c0 -25 -4 -35 -15 -35 -12 0 -15 9 -13
35 1 21 7 35 15 35 8 0 13 -13 13 -35z m50 11 c0 -24 -16 -43 -27 -32 -8 8 6
56 17 56 6 0 10 -11 10 -24z m-150 -16 c0 -33 -9 -36 -55 -16 l-30 13 30 16
c44 24 55 21 55 -13z m203 15 c1 -5 -6 -11 -15 -13 -11 -2 -18 3 -18 13 0 17
30 18 33 0z m61 -37 c5 -22 -14 -48 -36 -48 -8 0 -1 44 9 63 8 14 21 7 27 -15z
m-54 -28 c0 -19 -7 -33 -20 -40 -18 -10 -20 -8 -20 23 0 36 6 47 27 47 8 0 13
-12 13 -30z m-60 -24 c0 -21 -6 -36 -15 -40 -11 -4 -15 2 -15 28 0 18 3 36 7
39 14 15 23 5 23 -27z m-42 -13 c-2 -27 -8 -39 -20 -41 -14 -3 -18 4 -18 31 0
37 6 47 27 47 10 0 13 -11 11 -37z m-112 -60 c-2 -3 -24 -7 -47 -10 l-44 -6
45 50 45 50 3 -39 c2 -22 1 -42 -2 -45z m58 71 c12 -32 6 -62 -14 -67 -18 -5
-20 0 -20 39 0 31 4 44 14 44 8 0 17 -7 20 -16z"/>
<path d="M1210 660 c0 -5 2 -10 5 -10 2 0 34 -11 70 -25 80 -30 86 -16 9 19
-60 28 -84 32 -84 16z"/>
</g>
</svg>
