<?xml version="1.0" standalone="no"?>
<!DOCTYPE svg PUBLIC "-//W3C//DTD SVG 20010904//EN"
 "http://www.w3.org/TR/2001/REC-SVG-20010904/DTD/svg10.dtd">
<svg version="1.0" xmlns="http://www.w3.org/2000/svg"
 width="190.000000pt" height="142.000000pt" viewBox="0 0 190.000000 142.000000"
 preserveAspectRatio="xMidYMid meet">
<metadata>
Created by potrace 1.16, written by Peter Selinger 2001-2019
</metadata>
<g transform="translate(0.000000,142.000000) scale(0.100000,-0.100000)"
fill="#000000" stroke="none">
<path d="M791 1038 c-39 -46 -85 -110 -102 -143 l-32 -60 -179 3 -179 4 3
-149 3 -148 180 3 180 4 22 -39 c29 -53 104 -135 163 -178 l50 -37 152 87
c353 202 548 317 548 324 0 12 -676 398 -708 406 -27 6 -35 0 -101 -77z m293
-69 c5 -4 -54 -7 -130 -6 l-139 2 3 -205 c1 -113 4 -225 6 -250 l4 -45 127 -1
c86 -1 128 2 130 10 2 6 7 118 10 248 l7 238 112 -61 c61 -33 166 -88 234
-122 67 -34 122 -65 122 -69 0 -4 -55 -35 -122 -69 -68 -34 -220 -115 -340
-180 -119 -66 -220 -119 -226 -119 -16 0 -109 104 -152 171 -111 172 -84 314
94 507 l58 62 96 -52 c54 -28 101 -55 106 -59z m-24 -90 l0 -59 -105 0 -105 0
0 60 0 59 98 3 c53 2 100 2 105 0 4 -2 7 -30 7 -63z m-422 -96 c-10 -37 -6
-146 7 -189 6 -20 5 -21 -157 -16 -90 2 -163 5 -164 6 0 0 2 51 5 111 l6 110
120 5 c66 4 137 7 157 8 l36 2 -10 -37z m422 -70 l0 -88 -105 3 -105 3 0 79 0
79 78 4 c42 1 89 4 105 5 l27 2 0 -87z m4 -134 c3 -17 6 -47 6 -65 l0 -34
-112 7 c-62 3 -114 7 -116 8 -2 2 0 26 4 53 l6 51 77 4 c42 1 88 4 102 5 22 2
28 -3 33 -29z"/>
</g>
</svg>
