<?xml version="1.0" standalone="no"?>
<!DOCTYPE svg PUBLIC "-//W3C//DTD SVG 20010904//EN"
 "http://www.w3.org/TR/2001/REC-SVG-20010904/DTD/svg10.dtd">
<svg version="1.0" xmlns="http://www.w3.org/2000/svg"
 width="190.000000pt" height="142.000000pt" viewBox="0 0 190.000000 142.000000"
 preserveAspectRatio="xMidYMid meet">
<metadata>
Created by potrace 1.16, written by Peter Selinger 2001-2019
</metadata>
<g transform="translate(0.000000,142.000000) scale(0.100000,-0.100000)"
fill="#000000" stroke="none">
<path d="M794 1041 c-38 -45 -85 -109 -104 -142 l-35 -62 -178 2 -178 2 3
-148 3 -148 180 3 180 4 22 -39 c29 -53 104 -135 163 -178 l50 -37 152 87
c353 202 548 317 548 324 0 12 -676 398 -709 406 -27 6 -34 0 -97 -74z m406
-134 c107 -58 234 -124 283 -148 48 -24 87 -47 87 -51 0 -4 -55 -35 -122 -69
-68 -34 -220 -115 -340 -180 -119 -66 -220 -119 -226 -119 -16 0 -109 104
-152 171 -111 172 -85 310 95 507 l57 63 62 -34 c33 -19 149 -82 256 -140z
m-562 -124 c-10 -37 -6 -146 7 -189 6 -20 5 -21 -157 -16 -90 2 -163 5 -164 6
0 0 2 51 5 111 l6 110 120 5 c66 4 137 7 157 8 l36 2 -10 -37z"/>
<path d="M857 908 c-65 -98 -87 -148 -87 -197 0 -42 42 -136 99 -220 23 -33
41 -68 41 -77 0 -10 3 -14 7 -11 3 4 12 2 20 -4 17 -14 19 11 2 28 -8 8 -9 53
-4 151 l7 140 219 7 c122 4 216 11 213 16 -3 5 -102 9 -220 9 l-215 0 7 120
c7 117 6 120 -14 120 -15 0 -36 -23 -75 -82z m55 2 c-3 -22 -10 -30 -24 -30
-19 0 -19 1 2 30 12 17 23 30 24 30 1 0 1 -13 -2 -30z m-2 -71 c0 -17 -4 -20
-22 -15 -13 3 -30 6 -37 6 -30 0 10 22 52 29 4 0 7 -9 7 -20z m0 -44 c0 -11
-12 -15 -45 -15 -54 0 -60 17 -7 23 20 2 40 4 45 5 4 1 7 -5 7 -13z m-60 -55
c0 -16 7 -20 30 -20 20 0 30 -5 30 -15 0 -12 -13 -15 -55 -15 -54 0 -55 0 -55
29 0 16 6 32 13 34 25 11 37 6 37 -13z m57 14 c-3 -3 -12 -4 -19 -1 -8 3 -5 6
6 6 11 1 17 -2 13 -5z m3 -104 c0 -17 -7 -20 -45 -20 -25 0 -45 2 -45 4 0 2
-3 11 -6 20 -5 13 2 16 45 16 44 0 51 -3 51 -20z m0 -65 c0 -21 -5 -25 -29
-25 -17 0 -31 6 -35 16 -9 23 2 34 35 34 24 0 29 -4 29 -25z m0 -82 l0 -38
-20 33 c-25 40 -25 42 0 42 16 0 20 -7 20 -37z"/>
</g>
</svg>
