<?xml version="1.0" standalone="no"?>
<!DOCTYPE svg PUBLIC "-//W3C//DTD SVG 20010904//EN"
 "http://www.w3.org/TR/2001/REC-SVG-20010904/DTD/svg10.dtd">
<svg version="1.0" xmlns="http://www.w3.org/2000/svg"
 width="190.000000pt" height="142.000000pt" viewBox="0 0 190.000000 142.000000"
 preserveAspectRatio="xMidYMid meet">
<metadata>
Created by potrace 1.16, written by Peter Selinger 2001-2019
</metadata>
<g transform="translate(0.000000,142.000000) scale(0.100000,-0.100000)"
fill="#000000" stroke="none">
<path d="M793 1041 c-37 -44 -84 -108 -103 -142 l-35 -62 -178 2 -178 2 3
-148 3 -148 180 3 180 4 22 -39 c29 -53 104 -135 163 -178 l50 -37 152 87
c353 202 548 317 548 324 0 12 -676 398 -709 406 -28 6 -34 1 -98 -74z m332
-93 c39 -21 65 -38 58 -38 -25 0 -73 -52 -73 -78 0 -23 -8 -30 -52 -47 -67
-26 -86 -64 -60 -116 13 -26 28 -37 64 -49 30 -9 48 -21 48 -31 0 -8 -49 -58
-110 -109 -97 -84 -128 -120 -102 -120 4 0 56 46 115 101 l108 102 23 -22 c12
-11 28 -21 34 -21 7 0 12 -4 12 -8 0 -9 -292 -172 -308 -172 -16 0 -109 104
-152 171 -111 172 -85 310 94 506 l57 62 87 -46 c48 -26 119 -64 157 -85z m60
-128 c0 -38 -4 -70 -8 -70 -16 0 -57 50 -57 70 0 20 41 70 57 70 4 0 8 -31 8
-70z m385 -112 c0 -4 -64 -39 -142 -79 -79 -39 -152 -78 -163 -85 -11 -8 -23
-14 -27 -14 -5 0 -8 39 -8 86 0 74 -2 85 -16 80 -9 -3 -22 -6 -31 -6 -8 0 -28
-13 -44 -29 l-29 -29 0 81 c1 61 3 77 11 64 12 -21 61 -47 89 -47 18 0 20 6
20 80 l0 79 170 -87 c93 -48 170 -90 170 -94z m-932 75 c-10 -37 -6 -146 7
-189 6 -20 5 -21 -157 -16 -90 2 -163 5 -164 6 0 0 2 51 5 111 l6 110 120 5
c66 4 137 7 157 8 l36 2 -10 -37z m427 -78 c0 -41 -3 -75 -6 -75 -3 0 -18 11
-33 25 -40 37 -32 84 19 113 11 6 20 12 20 12 0 0 0 -34 0 -75z m125 -51 c-13
-33 -13 -80 0 -105 14 -25 -1 -24 -34 2 -40 31 -37 83 7 109 40 25 38 25 27
-6z"/>
<path d="M850 1016 c-17 -33 -7 -93 22 -123 30 -32 128 -96 135 -89 4 3 4 7 2
9 -102 78 -129 104 -138 129 -26 75 -13 71 105 -32 64 -55 120 -98 123 -94 6
5 -217 223 -230 224 -3 0 -12 -11 -19 -24z"/>
<path d="M940 569 c-69 -47 -100 -88 -100 -136 0 -48 17 -48 23 0 6 43 45 89
122 144 57 41 18 33 -45 -8z"/>
</g>
</svg>
