<?xml version="1.0" standalone="no"?>
<!DOCTYPE svg PUBLIC "-//W3C//DTD SVG 20010904//EN"
 "http://www.w3.org/TR/2001/REC-SVG-20010904/DTD/svg10.dtd">
<svg version="1.0" xmlns="http://www.w3.org/2000/svg"
 width="190.000000pt" height="142.000000pt" viewBox="0 0 190.000000 142.000000"
 preserveAspectRatio="xMidYMid meet">
<metadata>
Created by potrace 1.16, written by Peter Selinger 2001-2019
</metadata>
<g transform="translate(0.000000,142.000000) scale(0.100000,-0.100000)"
fill="#000000" stroke="none">
<path d="M791 1038 c-39 -46 -85 -110 -102 -143 l-32 -60 -179 3 -179 4 3
-149 3 -148 180 3 180 4 22 -39 c29 -53 104 -135 163 -178 l50 -37 152 87
c353 202 548 317 548 324 0 12 -676 398 -708 406 -27 6 -35 0 -101 -77z m409
-131 c107 -58 234 -124 283 -148 48 -24 87 -47 87 -51 0 -4 -71 -43 -157 -87
-87 -44 -243 -128 -348 -186 l-189 -105 97 98 c53 53 97 102 97 107 0 5 -45
-35 -100 -90 l-100 -99 -40 39 -40 39 87 88 c75 75 92 88 121 88 29 0 32 -2
23 -19 -14 -25 2 -31 78 -31 89 0 153 11 142 24 -4 6 -23 60 -40 121 -50 168
-66 201 -111 219 -42 17 -252 33 -294 22 -47 -12 -27 -26 37 -26 l63 0 -112
-115 c-61 -63 -114 -115 -118 -115 -13 0 -5 63 14 117 11 32 33 74 50 94 16
21 30 42 30 47 0 5 27 39 61 76 l61 66 62 -33 c33 -19 149 -82 256 -140z
m-128 -12 c19 -8 28 -35 28 -95 0 -42 -4 -49 -67 -112 l-67 -68 -73 0 c-58 0
-73 -3 -73 -15 0 -12 13 -15 57 -15 l57 0 -74 -75 c-80 -81 -82 -81 -121 -18
l-22 35 179 179 c98 98 174 179 169 179 -6 0 -87 -76 -180 -170 -93 -93 -173
-170 -176 -170 -8 0 -39 75 -39 95 0 8 55 72 123 141 l122 126 70 -5 c39 -3
77 -8 87 -12z m-434 -112 c-10 -37 -6 -146 7 -189 6 -20 5 -21 -157 -16 -90 2
-163 5 -164 6 0 0 2 51 5 111 l6 110 120 5 c66 4 137 7 157 8 l36 2 -10 -37z
m522 -25 c0 -4 -7 -8 -15 -8 -10 0 -15 10 -15 28 1 26 1 26 15 8 8 -11 15 -23
15 -28z m10 -37 c15 -29 13 -31 -25 -31 -19 0 -35 3 -35 6 0 16 22 44 35 44 8
0 19 -9 25 -19z m-103 -51 c-12 -27 -25 -50 -29 -50 -53 -2 -53 -1 -3 50 27
28 50 50 52 50 1 0 -8 -22 -20 -50z m123 -4 c0 -2 3 -11 6 -20 5 -14 -3 -16
-55 -16 -34 0 -61 2 -61 4 0 26 16 36 61 36 27 0 49 -2 49 -4z m23 -66 c5 -19
0 -20 -85 -20 -78 0 -89 2 -78 15 7 9 35 15 73 18 34 2 67 4 73 5 7 1 14 -7
17 -18z"/>
</g>
</svg>
