<?xml version="1.0" standalone="no"?>
<!DOCTYPE svg PUBLIC "-//W3C//DTD SVG 20010904//EN"
 "http://www.w3.org/TR/2001/REC-SVG-20010904/DTD/svg10.dtd">
<svg version="1.0" xmlns="http://www.w3.org/2000/svg"
 width="190.000000pt" height="285.000000pt" viewBox="0 0 190.000000 285.000000"
 preserveAspectRatio="xMidYMid meet">
<metadata>
Created by potrace 1.16, written by Peter Selinger 2001-2019
</metadata>
<g transform="translate(0.000000,285.000000) scale(0.100000,-0.100000)"
fill="#000000" stroke="none">
<path d="M870 2540 c0 -7 -6 -10 -14 -7 -8 3 -78 -60 -176 -158 l-163 -163
-59 20 -60 21 98 98 c54 55 94 99 89 99 -5 0 -54 -44 -107 -97 -98 -97 -98
-97 -130 -85 -17 6 -34 10 -36 7 -8 -7 -1 -289 6 -297 4 -4 37 6 72 23 36 17
90 42 120 55 l55 25 -70 -71 c-38 -38 -65 -70 -60 -70 6 0 48 38 95 85 47 47
90 85 96 85 7 0 18 -23 24 -51 l12 -51 -58 -59 c-32 -32 -53 -59 -45 -59 7 0
34 23 61 52 27 29 51 50 53 48 2 -3 15 -26 30 -51 l26 -46 -24 -23 c-14 -13
-23 -26 -20 -28 3 -3 16 5 29 17 l24 23 36 -39 c19 -21 36 -41 36 -45 0 -5 5
-8 10 -8 6 0 29 -13 51 -30 23 -16 44 -28 48 -26 8 4 616 354 653 375 16 9 28
23 28 31 0 8 -32 33 -70 54 -59 34 -69 43 -64 60 6 18 5 19 -9 8 -14 -12 -24
-10 -66 14 -40 21 -49 30 -40 41 8 9 8 13 1 13 -6 0 -13 -4 -16 -9 -9 -14
-107 42 -101 58 4 9 0 11 -11 7 -17 -6 -104 40 -104 56 0 5 -4 7 -9 4 -5 -3
-47 16 -93 43 -87 51 -148 72 -148 51z m-76 -84 c-63 -71 -121 -168 -140 -233
-9 -29 -17 -53 -20 -53 -5 0 -88 33 -94 37 -4 3 291 303 298 303 2 0 -18 -24
-44 -54z m163 20 c1 -1 -61 -65 -138 -141 -111 -112 -137 -133 -128 -108 18
53 80 148 142 218 l58 65 32 -16 c18 -9 33 -17 34 -18z m113 -63 c2 -2 -81
-88 -184 -190 -135 -132 -191 -181 -197 -172 -4 8 -10 36 -14 62 l-7 48 152
154 153 154 46 -26 c25 -15 48 -28 51 -30z m70 -35 c22 -13 40 -25 40 -28 0
-3 -96 -101 -213 -218 l-213 -213 -27 50 -28 50 193 190 c106 105 197 191 201
191 4 0 26 -10 47 -22z m117 -64 l45 -27 -234 -234 -233 -233 -32 37 c-18 21
-32 42 -33 48 0 12 421 435 433 435 5 0 29 -12 54 -26z m115 -60 l51 -26 -191
-191 c-161 -161 -204 -199 -267 -232 l-74 -40 -23 23 -23 22 235 235 c129 129
236 235 238 235 1 0 26 -12 54 -26z m-909 -57 l28 -12 -76 -75 -75 -74 0 72
c0 97 10 116 58 107 20 -4 49 -12 65 -18z m1053 -18 l76 -42 -191 -97 c-105
-54 -216 -113 -248 -130 -55 -31 -50 -25 112 139 93 94 171 171 173 171 2 0
37 -19 78 -41z m-937 -11 c80 -18 72 -27 -84 -87 -60 -24 -117 -45 -125 -48
-8 -3 19 29 60 71 41 42 80 76 86 76 7 0 35 -5 63 -12z"/>
<path d="M838 1072 c-60 -62 -114 -134 -144 -194 -23 -45 -27 -48 -59 -46 -19
1 -35 5 -35 8 0 3 56 61 125 130 68 68 122 126 119 129 -2 3 -64 -55 -137
-127 l-133 -133 -74 3 -74 3 84 83 c46 45 79 82 73 82 -6 0 -48 -38 -94 -85
-82 -83 -85 -85 -131 -85 l-48 0 0 -67 c0 -38 3 -105 7 -151 l6 -84 64 4 c59
3 76 -3 53 -17 -5 -3 -10 -11 -10 -17 0 -7 13 0 28 15 26 25 35 27 107 27 l79
0 -42 -43 c-23 -23 -42 -47 -42 -52 0 -5 25 15 55 45 58 58 58 58 93 -1 l22
-36 -25 -23 c-14 -13 -23 -26 -20 -28 3 -3 16 5 30 18 l25 23 35 -39 c19 -21
34 -42 35 -46 0 -5 4 -8 10 -8 5 0 29 -14 53 -31 l44 -31 144 83 c453 259 539
311 539 327 0 10 -28 32 -71 56 -46 26 -68 45 -64 54 3 9 -1 12 -14 7 -28 -9
-115 47 -99 63 9 9 9 12 1 12 -7 0 -15 -4 -18 -10 -9 -15 -104 42 -97 59 4 11
1 13 -13 8 -19 -8 -105 36 -105 54 0 6 -4 8 -9 5 -5 -4 -47 16 -93 42 -121 70
-125 71 -180 14z m99 -15 c22 -12 18 -17 -112 -147 -74 -74 -135 -132 -135
-128 0 34 80 159 148 230 59 62 64 64 99 45z m133 -77 c0 -13 -370 -373 -377
-367 -3 4 -9 35 -11 68 l-5 61 148 148 147 147 49 -26 c27 -14 49 -28 49 -31z
m70 -32 c22 -13 40 -26 40 -29 0 -9 -15 -24 -231 -237 l-195 -192 -27 47 -26
48 192 193 c105 105 195 192 200 192 4 0 26 -10 47 -22z m117 -64 l45 -27
-234 -234 -233 -233 -32 37 c-18 21 -32 43 -33 50 0 10 427 433 437 433 3 0
25 -12 50 -26z m115 -61 l49 -27 -196 -195 c-155 -156 -209 -204 -264 -233
l-68 -37 -24 25 -23 25 234 234 c129 129 237 235 239 235 2 0 26 -12 53 -27z
m-712 -11 c0 -45 -29 -94 -93 -159 l-71 -73 -81 0 -80 0 115 115 c89 89 120
115 144 117 17 2 39 4 49 5 9 1 17 -1 17 -5z m-120 -5 c0 -1 -46 -47 -101
-102 l-101 -100 7 85 c4 47 7 90 8 97 0 7 3 10 7 8 3 -2 12 0 20 6 13 7 160
14 160 6z m1049 -101 c-2 -2 -76 -40 -164 -86 -88 -46 -196 -103 -240 -128
-44 -24 -84 -47 -90 -50 -5 -2 68 74 164 171 l174 176 80 -40 c43 -22 77 -42
76 -43z m-925 -135 c-2 -2 -35 0 -74 4 l-72 7 58 59 59 60 15 -63 c9 -35 15
-65 14 -67z"/>
</g>
</svg>
