<?xml version="1.0" standalone="no"?>
<!DOCTYPE svg PUBLIC "-//W3C//DTD SVG 20010904//EN"
 "http://www.w3.org/TR/2001/REC-SVG-20010904/DTD/svg10.dtd">
<svg version="1.0" xmlns="http://www.w3.org/2000/svg"
 width="190.000000pt" height="142.000000pt" viewBox="0 0 190.000000 142.000000"
 preserveAspectRatio="xMidYMid meet">
<metadata>
Created by potrace 1.16, written by Peter Selinger 2001-2019
</metadata>
<g transform="translate(0.000000,142.000000) scale(0.100000,-0.100000)"
fill="#000000" stroke="none">
<path d="M794 1041 c-38 -45 -85 -109 -104 -142 l-35 -62 -178 2 -178 2 3
-148 3 -148 180 3 180 4 22 -39 c29 -53 104 -135 163 -178 l50 -37 152 87
c353 202 548 317 548 324 0 12 -676 398 -709 406 -27 6 -34 0 -97 -74z m336
-95 l85 -45 -85 -3 -85 -3 3 -77 c3 -66 1 -78 -12 -78 -9 0 -16 5 -16 11 0 8
-5 7 -16 -2 -14 -11 -20 -9 -45 19 -16 18 -31 32 -34 32 -11 0 -4 -24 12 -42
9 -10 11 -18 5 -18 -5 0 -22 14 -37 31 -30 36 -46 32 -21 -6 24 -36 6 -31 -26
7 -14 18 -30 30 -34 25 -4 -4 3 -18 16 -32 20 -21 21 -25 7 -25 -10 0 -30 15
-46 32 -16 18 -33 30 -37 25 -4 -4 3 -18 16 -32 21 -22 22 -25 5 -25 -23 0
-97 80 -91 97 13 33 79 124 131 181 l57 62 81 -44 c45 -25 120 -65 167 -90z
m90 -112 l0 -46 -31 6 c-17 3 -49 6 -70 6 -39 0 -39 0 -39 40 l0 40 70 0 70 0
0 -46z m350 -126 c0 -5 -55 -35 -122 -69 -68 -34 -220 -115 -340 -180 -119
-66 -220 -119 -226 -119 -16 0 -109 104 -152 171 -51 79 -74 156 -67 221 4 27
9 53 13 59 7 12 74 -47 74 -65 0 -6 -16 -27 -36 -47 -20 -21 -31 -39 -26 -43
6 -3 25 11 44 33 18 21 44 42 58 46 l25 7 -29 -31 c-41 -43 -24 -52 19 -11 19
19 35 30 35 26 0 -5 8 -2 18 5 9 7 4 -1 -12 -19 -40 -44 -24 -54 19 -12 35 34
49 33 18 -2 -30 -34 -3 -32 32 2 35 34 49 33 18 -2 -27 -30 -5 -34 25 -4 20
18 34 24 47 20 14 -6 17 -4 12 9 -5 12 -1 17 13 17 17 0 20 -9 22 -92 l3 -93
90 4 c50 2 92 5 95 8 3 2 6 78 8 168 l3 163 159 -81 c88 -45 160 -85 160 -89z
m-927 90 c-10 -29 -10 -154 0 -194 l8 -31 -163 5 c-90 2 -163 5 -164 6 0 0 2
51 5 111 l6 110 120 5 c66 4 137 7 158 8 36 2 38 1 30 -20z m577 -38 c0 -18
-7 -20 -70 -20 -54 0 -70 3 -70 14 0 11 14 16 48 19 26 2 57 4 70 5 16 2 22
-3 22 -18z m0 -70 l0 -30 -68 0 c-38 0 -71 2 -74 5 -3 3 -3 17 0 30 4 24 8 25
73 25 l69 0 0 -30z m4 -66 c3 -9 6 -27 6 -40 0 -23 -2 -24 -80 -24 l-80 0 0
33 c0 19 3 37 7 40 3 4 37 7 74 7 52 0 68 -4 73 -16z"/>
</g>
</svg>
