<?xml version="1.0" standalone="no"?>
<!DOCTYPE svg PUBLIC "-//W3C//DTD SVG 20010904//EN"
 "http://www.w3.org/TR/2001/REC-SVG-20010904/DTD/svg10.dtd">
<svg version="1.0" xmlns="http://www.w3.org/2000/svg"
 width="190.000000pt" height="142.000000pt" viewBox="0 0 190.000000 142.000000"
 preserveAspectRatio="xMidYMid meet">
<metadata>
Created by potrace 1.16, written by Peter Selinger 2001-2019
</metadata>
<g transform="translate(0.000000,142.000000) scale(0.100000,-0.100000)"
fill="#000000" stroke="none">
<path d="M791 1038 c-39 -46 -85 -110 -102 -143 l-32 -60 -179 3 -179 4 3
-149 3 -148 180 3 180 4 22 -39 c29 -53 104 -135 163 -178 l50 -37 152 87
c353 202 548 317 548 324 0 12 -676 398 -708 406 -27 6 -35 0 -101 -77z m419
-136 c113 -60 240 -127 283 -148 42 -21 77 -42 77 -46 0 -4 -55 -35 -122 -69
-68 -34 -220 -115 -340 -180 -119 -66 -220 -119 -226 -119 -16 0 -109 104
-152 171 -111 172 -85 310 95 507 l57 63 62 -34 c33 -19 153 -84 266 -145z
m-572 -119 c-10 -37 -6 -146 7 -189 6 -20 5 -21 -157 -16 -90 2 -163 5 -164 6
0 0 2 51 5 111 l6 110 125 5 c69 3 139 7 157 8 l31 2 -10 -37z"/>
<path d="M994 931 c-50 -23 -74 -54 -74 -97 0 -55 65 -114 125 -114 l25 0 0
115 c0 130 0 130 -76 96z m26 -27 c-6 -14 -10 -45 -10 -69 0 -24 4 -55 10 -69
8 -21 7 -26 -6 -26 -20 0 -84 63 -84 83 0 33 21 68 52 87 43 26 49 25 38 -6z"/>
<path d="M804 801 c-50 -23 -74 -54 -74 -97 0 -55 65 -114 125 -114 l25 0 0
115 c0 130 0 130 -76 96z m26 -27 c-13 -33 -13 -120 0 -145 9 -15 7 -19 -6
-19 -20 0 -84 63 -84 83 0 33 21 68 52 87 43 26 49 25 38 -6z"/>
<path d="M994 681 c-50 -23 -74 -54 -74 -97 0 -55 65 -114 125 -114 l25 0 0
115 c0 130 0 130 -76 96z m26 -27 c-6 -14 -10 -45 -10 -69 0 -24 4 -55 10 -69
8 -21 7 -26 -6 -26 -21 0 -84 63 -84 84 0 29 29 75 58 90 38 21 43 20 32 -10z"/>
</g>
</svg>
