<?xml version="1.0" standalone="no"?>
<!DOCTYPE svg PUBLIC "-//W3C//DTD SVG 20010904//EN"
 "http://www.w3.org/TR/2001/REC-SVG-20010904/DTD/svg10.dtd">
<svg version="1.0" xmlns="http://www.w3.org/2000/svg"
 width="165.000000pt" height="168.000000pt" viewBox="0 0 165.000000 168.000000"
 preserveAspectRatio="xMidYMid meet">
<metadata>
Created by potrace 1.16, written by Peter Selinger 2001-2019
</metadata>
<g transform="translate(0.000000,168.000000) scale(0.100000,-0.100000)"
fill="#000000" stroke="none">
<path d="M721 1371 c-10 -6 -15 -41 -19 -123 l-5 -114 -62 -33 c-57 -29 -65
-38 -89 -90 l-26 -58 -110 5 -111 5 3 -119 3 -119 107 3 c103 4 107 3 118 -20
26 -48 120 -155 147 -167 l28 -11 -4 -115 -3 -115 33 0 c19 0 64 3 100 6 l67
7 12 109 c12 101 15 111 39 125 84 51 132 85 127 90 -3 3 3 22 14 43 22 43 43
50 154 50 80 0 117 13 66 24 -18 3 -65 6 -104 6 l-72 0 0 80 c1 44 1 80 1 80
0 0 44 3 98 7 l97 6 1 -44 c0 -24 4 -64 8 -89 7 -39 9 -32 10 47 1 57 -3 94
-10 99 -6 3 -57 9 -115 12 -90 4 -104 7 -110 24 -10 32 -78 92 -144 127 -62
33 -62 34 -56 70 3 20 9 73 12 119 l7 82 -99 0 c-54 0 -105 -4 -113 -9z m175
-27 c-3 -9 -6 -56 -6 -105 l0 -90 -48 7 c-26 3 -65 1 -86 -4 l-38 -11 6 32 c4
18 9 64 13 104 7 81 3 78 112 82 45 1 52 -2 47 -15z m25 -250 c72 -21 145 -59
147 -76 0 -7 11 -40 22 -73 25 -69 23 -116 -11 -232 -25 -83 -35 -93 -141
-137 -56 -24 -77 -28 -130 -24 -35 3 -88 15 -119 27 -53 20 -59 26 -92 89 -63
119 -66 196 -12 318 20 45 31 57 77 80 29 15 64 30 78 35 43 13 124 10 181 -7z
m-416 -251 l0 -88 -94 3 -93 3 6 37 c3 20 6 56 6 79 0 41 1 42 38 46 20 2 60
4 87 5 l50 2 0 -87z m375 -420 l0 -93 -81 0 c-79 0 -81 1 -76 23 3 12 9 54 12
92 l7 70 69 0 69 0 0 -92z"/>
<path d="M827 1083 c-27 -7 -202 -132 -202 -144 0 -12 200 -99 225 -99 12 0
12 2 2 9 -9 5 10 25 65 67 42 32 86 64 98 71 20 12 20 12 0 19 -55 20 -143 63
-149 73 -7 11 -9 12 -39 4z m80 -55 c84 -32 95 -48 36 -53 -86 -9 -257 -16
-252 -10 11 10 124 94 128 95 2 0 42 -14 88 -32z m23 -72 c0 -2 -27 -22 -59
-45 l-59 -41 -61 26 c-34 15 -60 29 -57 31 2 2 50 10 107 17 127 17 129 17
129 12z m-250 -16 c0 -5 -2 -10 -4 -10 -3 0 -8 5 -11 10 -3 6 -1 10 4 10 6 0
11 -4 11 -10z"/>
<path d="M859 806 l-54 -45 -5 26 c-7 39 -30 42 -30 4 l0 -31 -41 26 c-43 27
-82 27 -59 -1 6 -8 20 -17 31 -20 10 -4 19 -10 19 -15 0 -5 -6 -7 -12 -5 -20
7 -71 -9 -76 -24 -4 -11 8 -13 59 -7 l64 6 -34 -31 c-24 -22 -30 -34 -22 -42
8 -8 20 -2 44 21 l34 33 10 -33 11 -33 1 38 c1 20 3 37 6 37 2 0 48 -23 100
-51 53 -28 98 -49 101 -46 3 3 -34 29 -83 58 l-88 54 87 5 c118 7 123 20 8 20
l-94 0 44 45 c24 24 41 47 38 50 -3 3 -30 -15 -59 -39z"/>
</g>
</svg>
