<?xml version="1.0" standalone="no"?>
<!DOCTYPE svg PUBLIC "-//W3C//DTD SVG 20010904//EN"
 "http://www.w3.org/TR/2001/REC-SVG-20010904/DTD/svg10.dtd">
<svg version="1.0" xmlns="http://www.w3.org/2000/svg"
 width="134.000000pt" height="206.000000pt" viewBox="0 0 134.000000 206.000000"
 preserveAspectRatio="xMidYMid meet">
<metadata>
Created by potrace 1.16, written by Peter Selinger 2001-2019
</metadata>
<g transform="translate(0.000000,206.000000) scale(0.100000,-0.100000)"
fill="#000000" stroke="none">
<path d="M491 1751 c-12 -8 -13 -35 -8 -153 4 -80 10 -165 13 -189 6 -43 5
-45 -27 -56 -24 -9 -47 -31 -76 -75 -69 -104 -87 -152 -87 -243 -1 -77 1 -84
52 -187 40 -80 62 -112 86 -127 l33 -21 7 -191 c4 -106 9 -196 13 -202 3 -5
66 -8 153 -6 l148 4 6 43 c3 24 9 112 12 196 l7 152 41 17 c32 14 51 33 89 92
72 112 87 150 87 225 0 94 -10 139 -32 151 -19 10 -19 8 -11 -48 17 -118 9
-158 -51 -279 -59 -118 -69 -128 -131 -126 -16 0 -38 -7 -48 -16 -13 -12 -38
-16 -95 -17 -70 0 -85 4 -152 37 -103 52 -109 58 -137 134 -51 142 -41 234 40
367 41 67 43 68 112 90 43 13 97 22 140 22 60 0 81 -5 145 -36 41 -20 97 -53
123 -73 27 -21 52 -35 55 -31 8 7 -88 95 -144 131 l-41 27 5 199 5 198 -159 0
c-88 0 -165 -4 -173 -9z m287 -188 c6 -97 10 -178 8 -180 -2 -2 -15 1 -30 7
-38 14 -110 12 -180 -4 l-59 -14 7 81 c3 45 6 123 6 173 l0 91 113 10 c61 5
115 10 118 11 3 1 11 -78 17 -175z m1 -1159 l1 -72 -132 5 c-73 3 -134 6 -135
7 -2 2 18 320 21 323 1 2 28 -3 59 -9 47 -10 67 -9 114 2 l58 15 6 -100 c4
-55 7 -132 8 -171z"/>
</g>
</svg>
