<?xml version="1.0" standalone="no"?>
<!DOCTYPE svg PUBLIC "-//W3C//DTD SVG 20010904//EN"
 "http://www.w3.org/TR/2001/REC-SVG-20010904/DTD/svg10.dtd">
<svg version="1.0" xmlns="http://www.w3.org/2000/svg"
 width="165.000000pt" height="168.000000pt" viewBox="0 0 165.000000 168.000000"
 preserveAspectRatio="xMidYMid meet">
<metadata>
Created by potrace 1.16, written by Peter Selinger 2001-2019
</metadata>
<g transform="translate(0.000000,168.000000) scale(0.100000,-0.100000)"
fill="#000000" stroke="none">
<path d="M721 1371 c-10 -6 -15 -41 -19 -123 l-5 -114 -62 -33 c-57 -29 -65
-38 -89 -90 l-26 -58 -110 5 -111 5 3 -119 3 -118 107 3 c103 2 107 2 119 -21
25 -48 119 -155 146 -167 l28 -11 -4 -115 -3 -115 33 0 c19 0 64 3 100 6 l67
7 13 113 c9 86 16 114 28 119 40 15 140 81 137 90 -2 6 5 26 15 46 21 42 43
49 153 49 80 0 117 13 66 24 -18 3 -65 6 -104 6 l-72 0 0 80 c1 44 1 80 1 80
0 0 44 3 98 6 l97 6 1 -43 c0 -24 4 -64 8 -89 7 -39 9 -32 10 47 1 57 -3 94
-10 99 -6 3 -57 9 -115 12 -90 4 -104 7 -110 24 -10 32 -78 92 -144 127 -62
33 -62 34 -56 70 3 20 9 73 12 119 l7 82 -99 0 c-54 0 -105 -4 -113 -9z m175
-27 c-3 -9 -6 -56 -6 -105 l0 -90 -48 7 c-26 3 -65 1 -86 -4 l-38 -11 6 32 c4
18 9 64 13 104 7 81 2 78 117 81 40 2 47 -1 42 -14z m25 -250 c72 -21 145 -59
147 -76 0 -7 11 -40 22 -73 26 -70 23 -122 -13 -237 l-22 -73 -85 -43 c-80
-40 -89 -43 -155 -39 -40 2 -94 13 -126 26 -53 20 -59 26 -92 89 -63 120 -66
196 -12 319 22 50 29 56 97 88 84 40 149 45 239 19z m-416 -251 l0 -88 -94 3
-93 3 6 37 c3 20 6 56 6 79 0 41 1 42 38 46 20 2 60 4 87 5 l50 2 0 -87z m375
-420 l0 -93 -81 0 c-79 0 -81 1 -76 23 3 12 9 54 12 92 l7 70 69 0 69 0 0 -92z"/>
<path d="M894 948 c0 -51 -4 -112 -8 -135 -6 -30 -4 -62 9 -112 23 -93 36 -92
18 2 -12 63 -12 82 2 154 9 45 13 93 10 107 -3 14 -7 37 -10 51 -11 54 -22 20
-21 -67z"/>
<path d="M988 1034 c-3 -2 -3 -36 0 -75 3 -41 -1 -93 -8 -124 -11 -45 -10 -63
4 -129 10 -42 22 -76 27 -76 6 0 8 8 5 18 -22 76 -26 142 -11 207 20 86 9 205
-17 179z"/>
<path d="M641 863 c1 -165 16 -266 18 -125 1 75 3 82 21 82 18 0 20 -7 20 -82
0 -57 3 -78 10 -68 5 8 10 45 10 83 0 53 3 67 15 67 12 0 15 -16 15 -80 0 -47
4 -80 10 -80 6 0 10 34 10 81 0 78 1 80 23 77 20 -3 22 -9 27 -83 7 -116 17
-47 19 133 2 122 0 142 -14 142 -8 0 -15 -9 -15 -20 0 -13 -7 -20 -20 -20 -13
0 -20 7 -20 20 0 11 -4 20 -10 20 -5 0 -10 -9 -10 -20 0 -11 -7 -20 -15 -20
-8 0 -15 9 -15 20 0 11 -4 20 -9 20 -5 0 -13 -9 -16 -20 -3 -11 -11 -20 -16
-20 -5 0 -9 9 -9 20 0 11 -7 20 -15 20 -13 0 -15 -23 -14 -147z m49 77 c0 -5
-4 -10 -10 -10 -5 0 -10 5 -10 10 0 6 5 10 10 10 6 0 10 -4 10 -10z m60 0 c0
-5 -7 -10 -15 -10 -8 0 -15 5 -15 10 0 6 7 10 15 10 8 0 15 -4 15 -10z m60 0
c0 -5 -9 -10 -20 -10 -11 0 -20 5 -20 10 0 6 9 10 20 10 11 0 20 -4 20 -10z
m-120 -40 c0 -5 -4 -10 -10 -10 -5 0 -10 5 -10 10 0 6 5 10 10 10 6 0 10 -4
10 -10z m60 0 c0 -5 -7 -10 -15 -10 -8 0 -15 5 -15 10 0 6 7 10 15 10 8 0 15
-4 15 -10z m60 0 c0 -5 -9 -10 -20 -10 -11 0 -20 5 -20 10 0 6 9 10 20 10 11
0 20 -4 20 -10z m-112 -48 c2 -7 -3 -12 -12 -12 -9 0 -16 7 -16 16 0 17 22 14
28 -4z m52 3 c0 -8 -7 -15 -15 -15 -8 0 -15 7 -15 15 0 8 7 15 15 15 8 0 15
-7 15 -15z m60 0 c0 -8 -9 -15 -20 -15 -11 0 -20 7 -20 15 0 8 9 15 20 15 11
0 20 -7 20 -15z"/>
</g>
</svg>
