<?xml version="1.0" standalone="no"?>
<!DOCTYPE svg PUBLIC "-//W3C//DTD SVG 20010904//EN"
 "http://www.w3.org/TR/2001/REC-SVG-20010904/DTD/svg10.dtd">
<svg version="1.0" xmlns="http://www.w3.org/2000/svg"
 width="165.000000pt" height="168.000000pt" viewBox="0 0 165.000000 168.000000"
 preserveAspectRatio="xMidYMid meet">
<metadata>
Created by potrace 1.16, written by Peter Selinger 2001-2019
</metadata>
<g transform="translate(0.000000,168.000000) scale(0.100000,-0.100000)"
fill="#000000" stroke="none">
<path d="M721 1371 c-10 -6 -15 -41 -19 -123 l-5 -114 -62 -33 c-57 -29 -65
-38 -89 -90 l-26 -58 -110 5 -111 5 3 -119 3 -119 106 3 106 4 20 -34 c38 -64
104 -139 136 -154 l32 -15 -4 -115 -3 -114 33 0 c19 0 64 3 100 6 l67 7 12
109 c12 101 15 111 39 125 84 51 132 85 127 90 -3 3 3 22 14 43 22 43 43 50
154 50 80 0 117 13 66 24 -18 3 -65 6 -104 6 l-72 0 0 80 c1 44 1 80 1 80 0 0
44 3 98 7 l97 6 1 -44 c0 -24 4 -64 8 -89 7 -39 9 -32 10 47 1 57 -3 94 -10
99 -6 3 -57 9 -115 12 -90 4 -104 7 -110 24 -10 32 -78 92 -144 127 -62 33
-62 34 -56 70 3 20 9 73 12 119 l7 82 -99 0 c-54 0 -105 -4 -113 -9z m175 -27
c-3 -9 -6 -56 -6 -105 l0 -90 -48 7 c-26 3 -65 1 -86 -4 l-38 -11 6 32 c4 18
9 64 13 104 7 81 3 78 112 82 45 1 52 -2 47 -15z m-131 -302 c-19 -37 -43 -93
-55 -125 l-22 -57 23 -78 c21 -70 108 -222 128 -222 12 0 70 104 91 161 34 97
35 146 7 210 -14 31 -41 82 -61 114 -21 31 -34 60 -31 63 17 17 221 -64 223
-89 0 -8 11 -41 22 -74 26 -70 23 -122 -13 -237 l-22 -73 -84 -42 c-47 -23
-96 -43 -110 -45 -40 -5 -110 8 -172 31 -53 20 -59 26 -92 89 -63 119 -66 196
-12 318 20 45 31 57 77 80 56 29 93 42 120 43 13 1 10 -11 -17 -67z m99 -29
c20 -32 36 -61 36 -65 0 -4 -29 -8 -65 -8 -52 0 -65 -3 -65 -15 0 -13 13 -15
78 -13 l77 3 0 -45 0 -45 -77 -3 c-45 -2 -78 -7 -78 -13 0 -7 28 -9 75 -7 63
2 75 0 73 -12 -3 -11 -21 -16 -76 -18 -92 -4 -95 -22 -2 -22 58 0 68 -3 64
-15 -5 -11 -23 -15 -73 -15 l-67 0 -16 53 c-30 98 -30 110 -3 168 13 30 25 48
25 42 0 -15 53 -16 85 -3 16 6 9 9 -31 15 l-52 7 20 34 c11 19 24 34 28 34 5
0 25 -26 44 -57z m-359 -170 l0 -88 -94 3 -93 3 6 37 c3 20 6 56 6 79 0 41 1
42 38 46 20 2 60 4 87 5 l50 2 0 -87z m375 -167 c-5 -15 -17 -40 -26 -57 l-16
-32 -19 29 -19 29 31 6 c46 10 45 17 -5 24 -25 4 -46 10 -46 14 0 3 25 7 55 9
l55 3 -10 -25z m0 -253 l0 -93 -81 0 c-79 0 -81 1 -76 23 3 12 9 54 12 92 l7
70 69 0 69 0 0 -92z"/>
<path d="M770 870 c0 -6 32 -10 75 -10 43 0 75 4 75 10 0 6 -32 10 -75 10 -43
0 -75 -4 -75 -10z"/>
</g>
</svg>
