<?xml version="1.0" standalone="no"?>
<!DOCTYPE svg PUBLIC "-//W3C//DTD SVG 20010904//EN"
 "http://www.w3.org/TR/2001/REC-SVG-20010904/DTD/svg10.dtd">
<svg version="1.0" xmlns="http://www.w3.org/2000/svg"
 width="165.000000pt" height="168.000000pt" viewBox="0 0 165.000000 168.000000"
 preserveAspectRatio="xMidYMid meet">
<metadata>
Created by potrace 1.16, written by Peter Selinger 2001-2019
</metadata>
<g transform="translate(0.000000,168.000000) scale(0.100000,-0.100000)"
fill="#000000" stroke="none">
<path d="M721 1371 c-10 -6 -15 -41 -19 -123 l-5 -114 -62 -33 c-57 -29 -65
-38 -89 -90 l-26 -58 -110 5 -111 5 3 -119 3 -118 106 3 105 2 29 -43 c48 -73
103 -135 132 -147 l28 -11 -4 -115 -3 -115 33 0 c19 0 64 3 100 6 l67 7 12
107 12 107 78 50 c60 39 78 57 83 79 12 59 26 67 123 71 49 2 100 7 114 10
l25 6 -25 7 c-14 5 -61 8 -106 9 l-80 1 0 80 c1 44 1 80 1 80 0 0 44 3 98 6
l97 6 1 -43 c0 -24 4 -64 8 -89 7 -39 9 -32 10 47 1 57 -3 94 -10 99 -6 3 -57
9 -114 12 -103 5 -104 5 -116 34 -7 16 -22 31 -36 34 -15 4 -20 9 -13 14 12 7
-35 42 -109 79 -42 22 -43 24 -37 59 3 20 9 74 12 120 l7 82 -99 0 c-54 0
-105 -4 -113 -9z m175 -27 c-3 -9 -6 -56 -6 -105 l0 -90 -48 7 c-26 3 -65 1
-86 -4 l-38 -11 6 32 c4 18 9 64 13 104 7 81 3 78 112 82 45 1 52 -2 47 -15z
m-216 -359 c-69 -69 -126 -121 -128 -116 -2 5 1 27 7 48 12 45 129 165 176
181 77 27 69 12 -55 -113z m200 118 c0 -9 -315 -323 -323 -323 -3 0 -8 12 -12
27 -6 24 7 40 132 165 121 121 142 138 170 138 18 0 33 -3 33 -7z m86 -33
c106 -52 113 -35 -116 -265 -221 -221 -213 -217 -250 -145 -19 37 -19 37 3 60
l22 23 -27 -16 c-27 -17 -28 -17 -34 9 -6 24 10 43 162 195 93 93 171 169 173
169 2 0 32 -14 67 -30z m-336 -45 c-24 -25 -46 -45 -47 -45 -13 0 33 63 55 74
41 23 40 20 -8 -29z m447 -48 c10 -22 -2 -37 -180 -215 -171 -169 -194 -189
-214 -181 -13 4 -23 12 -23 16 0 9 391 401 401 402 3 1 11 -10 16 -22z m25
-66 c4 -27 -11 -45 -162 -196 -163 -163 -167 -166 -195 -155 l-29 11 184 184
c102 102 188 185 191 185 4 0 9 -13 11 -29z m-597 -68 l0 -88 -94 3 -93 3 6
37 c3 20 6 56 6 79 0 41 1 42 38 46 20 2 60 4 87 5 l50 2 0 -87z m601 -15 c-6
-38 -21 -58 -119 -158 l-112 -115 109 105 c111 108 119 109 72 10 -18 -39 -31
-50 -92 -80 -39 -20 -80 -36 -90 -37 -11 -1 -24 -2 -29 -3 -6 -1 -21 -2 -35
-1 -21 1 -2 23 135 161 88 88 162 160 164 160 2 0 1 -19 -3 -42z m-268 -323
l42 1 0 -88 0 -88 -81 0 c-79 0 -81 1 -76 23 3 12 9 55 13 94 7 73 7 73 33 65
14 -4 45 -7 69 -7z"/>
<path d="M781 915 c-85 -86 -152 -158 -149 -160 2 -2 76 68 163 155 88 88 155
160 149 160 -5 0 -79 -70 -163 -155z"/>
<path d="M800 843 c-107 -109 -179 -184 -160 -168 57 49 371 365 363 365 -5 0
-96 -89 -203 -197z"/>
</g>
</svg>
