<?xml version="1.0" standalone="no"?>
<!DOCTYPE svg PUBLIC "-//W3C//DTD SVG 20010904//EN"
 "http://www.w3.org/TR/2001/REC-SVG-20010904/DTD/svg10.dtd">
<svg version="1.0" xmlns="http://www.w3.org/2000/svg"
 width="165.000000pt" height="168.000000pt" viewBox="0 0 165.000000 168.000000"
 preserveAspectRatio="xMidYMid meet">
<metadata>
Created by potrace 1.16, written by Peter Selinger 2001-2019
</metadata>
<g transform="translate(0.000000,168.000000) scale(0.100000,-0.100000)"
fill="#000000" stroke="none">
<path d="M721 1371 c-10 -6 -15 -41 -19 -123 l-5 -114 -62 -33 c-57 -29 -65
-38 -89 -90 l-26 -58 -110 5 -111 5 3 -119 3 -119 106 3 106 4 20 -34 c38 -64
104 -139 136 -154 l32 -15 -4 -115 -3 -114 33 0 c19 0 64 3 100 6 l67 7 12
109 c12 101 15 111 39 125 84 51 132 85 127 90 -3 3 3 22 14 43 22 43 43 50
154 50 80 0 117 13 66 24 -18 3 -65 6 -104 6 l-72 0 0 80 c1 44 1 80 1 80 0 0
44 3 98 7 l97 6 1 -44 c0 -24 4 -64 8 -89 7 -39 9 -32 10 47 1 57 -3 94 -10
99 -6 3 -57 9 -115 12 -90 4 -104 7 -110 24 -10 32 -78 92 -144 127 -62 33
-62 34 -56 70 3 20 9 73 12 119 l7 82 -99 0 c-54 0 -105 -4 -113 -9z m175 -27
c-3 -9 -6 -56 -6 -105 l0 -90 -48 7 c-26 3 -65 1 -86 -4 l-38 -11 6 32 c4 18
9 64 13 104 7 81 3 78 112 82 45 1 52 -2 47 -15z m35 -253 c77 -26 135 -57
137 -73 0 -7 10 -38 21 -68 23 -63 27 -109 9 -111 -18 -2 -15 -2 -192 25 -107
17 -165 22 -176 16 -10 -5 -31 -27 -48 -47 l-30 -38 42 -32 42 -32 104 19 c58
10 106 15 108 11 1 -5 9 -17 18 -27 14 -18 14 -17 12 11 -3 29 -2 30 55 39 31
5 59 7 62 5 2 -3 -6 -39 -18 -80 l-22 -74 -85 -43 c-80 -40 -89 -43 -155 -39
-40 2 -94 13 -126 26 -53 20 -59 26 -92 89 -63 120 -66 196 -12 319 22 50 29
56 97 88 86 41 162 46 249 16z m-426 -248 l0 -88 -94 3 -93 3 6 37 c3 20 6 56
6 79 0 41 1 42 38 46 20 2 60 4 87 5 l50 2 0 -87z m293 11 c18 -5 22 -13 22
-44 0 -36 -1 -38 -41 -44 -35 -6 -46 -3 -66 15 l-23 23 27 28 c27 29 41 32 81
22z m187 -24 c55 -7 101 -13 103 -15 3 -2 -76 -15 -201 -31 l-48 -7 5 29 c2
16 5 33 5 37 1 5 9 6 19 3 9 -3 62 -10 117 -16z m-105 -407 l0 -93 -81 0 c-79
0 -81 1 -76 23 3 12 9 54 12 92 l7 70 69 0 69 0 0 -92z"/>
</g>
</svg>
