<?xml version="1.0" standalone="no"?>
<!DOCTYPE svg PUBLIC "-//W3C//DTD SVG 20010904//EN"
 "http://www.w3.org/TR/2001/REC-SVG-20010904/DTD/svg10.dtd">
<svg version="1.0" xmlns="http://www.w3.org/2000/svg"
 width="165.000000pt" height="168.000000pt" viewBox="0 0 165.000000 168.000000"
 preserveAspectRatio="xMidYMid meet">
<metadata>
Created by potrace 1.16, written by Peter Selinger 2001-2019
</metadata>
<g transform="translate(0.000000,168.000000) scale(0.100000,-0.100000)"
fill="#000000" stroke="none">
<path d="M721 1371 c-10 -6 -15 -41 -19 -123 l-5 -114 -62 -33 c-57 -29 -65
-38 -89 -90 l-26 -58 -110 5 -111 5 3 -119 3 -118 107 3 c103 2 107 2 119 -21
25 -48 119 -155 146 -167 l28 -11 -4 -115 -3 -115 33 0 c19 0 64 3 100 6 l67
7 13 113 c9 86 16 114 28 119 40 15 140 81 137 90 -2 6 5 26 15 46 21 42 43
49 153 49 80 0 117 13 66 24 -18 3 -65 6 -104 6 l-72 0 0 80 c1 44 1 80 1 80
0 0 44 3 98 6 l97 6 1 -43 c0 -24 4 -64 8 -89 7 -39 9 -32 10 47 1 57 -3 94
-10 99 -6 3 -57 9 -115 12 -90 4 -104 7 -110 24 -10 32 -78 92 -144 127 -62
33 -62 34 -56 70 3 20 9 73 12 119 l7 82 -99 0 c-54 0 -105 -4 -113 -9z m175
-27 c-3 -9 -6 -56 -6 -105 l0 -90 -48 7 c-26 3 -65 1 -86 -4 l-38 -11 6 32 c4
18 9 64 13 104 7 81 2 78 117 81 40 2 47 -1 42 -14z m35 -253 c77 -26 135 -57
137 -73 0 -7 11 -40 22 -73 26 -70 23 -122 -13 -237 l-22 -73 -85 -43 c-80
-40 -89 -43 -155 -39 -40 2 -94 13 -126 26 -53 20 -59 26 -92 89 -63 120 -66
196 -12 319 22 50 29 56 97 88 86 41 162 46 249 16z m-426 -248 l0 -88 -94 3
-93 3 6 37 c3 20 6 56 6 79 0 41 1 42 38 46 20 2 60 4 87 5 l50 2 0 -87z m375
-420 l0 -93 -81 0 c-79 0 -81 1 -76 23 3 12 9 54 12 92 l7 70 69 0 69 0 0 -92z"/>
<path d="M860 1038 c-30 -17 -99 -58 -152 -90 l-98 -60 6 -36 c3 -20 8 -40 11
-45 10 -17 294 -199 300 -193 4 4 9 108 11 231 4 186 2 225 -9 225 -8 0 -39
-15 -69 -32z m50 -70 l0 -73 -87 3 c-152 5 -149 0 -33 74 58 36 108 67 113 67
4 1 7 -32 7 -71z m0 -113 c0 -24 -3 -25 -55 -25 -48 0 -55 3 -55 19 0 22 16
28 73 30 33 1 37 -2 37 -24z m-250 -5 c0 -11 -4 -20 -10 -20 -5 0 -10 9 -10
20 0 11 5 20 10 20 6 0 10 -9 10 -20z m40 0 c0 -11 -4 -20 -10 -20 -5 0 -10 9
-10 20 0 11 5 20 10 20 6 0 10 -9 10 -20z m40 0 c0 -11 -4 -20 -10 -20 -5 0
-10 9 -10 20 0 11 5 20 10 20 6 0 10 -9 10 -20z m40 0 c0 -11 -4 -20 -10 -20
-5 0 -10 9 -10 20 0 11 5 20 10 20 6 0 10 -9 10 -20z m135 -113 c4 -41 5 -81
4 -90 -3 -12 -30 3 -109 59 -155 111 -154 104 -18 104 l116 0 7 -73z"/>
</g>
</svg>
