<?xml version="1.0" standalone="no"?>
<!DOCTYPE svg PUBLIC "-//W3C//DTD SVG 20010904//EN"
 "http://www.w3.org/TR/2001/REC-SVG-20010904/DTD/svg10.dtd">
<svg version="1.0" xmlns="http://www.w3.org/2000/svg"
 width="161.000000pt" height="117.000000pt" viewBox="0 0 161.000000 117.000000"
 preserveAspectRatio="xMidYMid meet">
<metadata>
Created by potrace 1.16, written by Peter Selinger 2001-2019
</metadata>
<g transform="translate(0.000000,117.000000) scale(0.100000,-0.100000)"
fill="#000000" stroke="none">
<path d="M311 862 c-12 -8 -13 -54 -8 -276 3 -146 9 -271 13 -277 5 -9 122
-11 492 -6 267 4 487 8 489 10 9 10 15 534 6 540 -18 11 -977 19 -992 9z m953
-189 c3 -93 9 -207 12 -255 l6 -88 -39 0 c-21 0 -88 3 -150 7 l-111 6 -26 62
-27 61 25 65 c27 70 26 70 115 54 64 -12 44 9 -24 24 -30 7 -55 13 -55 14 0 1
11 37 24 80 22 71 21 97 -4 82 -5 -3 -10 -12 -10 -20 0 -8 -22 -85 -50 -171
-52 -162 -56 -179 -42 -170 8 5 52 -62 52 -78 0 -3 -34 -6 -76 -6 l-75 0 28
49 c15 27 30 48 33 46 3 -2 5 20 6 48 3 196 -2 177 64 250 33 36 57 68 52 71
-10 6 -66 -46 -91 -84 -16 -24 -16 -24 -21 35 -3 34 -10 60 -17 63 -10 3 -13
-15 -13 -68 l0 -72 -42 7 c-24 4 -44 9 -46 10 -5 5 28 67 55 102 l24 33 162 3
c89 1 183 4 208 5 l47 2 6 -167z m-499 92 c-31 -52 -41 -84 -36 -122 1 -6 -10
-36 -23 -67 -25 -57 -19 -79 8 -28 20 36 20 19 0 -19 -8 -17 -13 -36 -11 -42
2 -7 16 11 30 38 33 63 34 52 3 -20 -30 -65 -15 -75 16 -10 16 33 25 42 34 34
10 -8 7 -22 -12 -66 -14 -30 -23 -58 -20 -60 6 -7 46 58 46 75 0 17 20 11 32
-9 6 -9 1 -33 -16 -71 l-26 -58 -136 0 -137 0 7 53 c3 28 6 136 6 239 l0 187
133 3 c72 2 133 3 135 2 1 -1 -13 -27 -33 -59z m-273 37 c3 -10 6 -92 7 -183
1 -90 4 -189 7 -219 l6 -55 -92 3 -93 3 7 61 c3 34 6 139 6 234 l0 174 74 0
c63 0 74 -3 78 -18z m354 -145 c1 -1 4 -42 6 -91 l5 -90 -29 35 c-35 40 -78
121 -78 145 0 14 7 16 47 10 25 -3 47 -7 49 -9z"/>
</g>
</svg>
