<?xml version="1.0" standalone="no"?>
<!DOCTYPE svg PUBLIC "-//W3C//DTD SVG 20010904//EN"
 "http://www.w3.org/TR/2001/REC-SVG-20010904/DTD/svg10.dtd">
<svg version="1.0" xmlns="http://www.w3.org/2000/svg"
 width="161.000000pt" height="117.000000pt" viewBox="0 0 161.000000 117.000000"
 preserveAspectRatio="xMidYMid meet">
<metadata>
Created by potrace 1.16, written by Peter Selinger 2001-2019
</metadata>
<g transform="translate(0.000000,117.000000) scale(0.100000,-0.100000)"
fill="#000000" stroke="none">
<path d="M311 862 c-12 -8 -13 -54 -8 -276 3 -146 9 -271 13 -277 5 -9 122
-11 492 -6 267 4 487 8 489 10 9 10 15 534 6 540 -18 11 -977 19 -992 9z m953
-189 c3 -93 9 -208 12 -256 l6 -88 -74 3 c-71 3 -73 4 -71 28 1 14 2 125 3
247 1 160 5 223 13 227 7 2 33 5 58 5 l47 1 6 -167z m-152 -85 c3 -134 4 -244
3 -246 -1 -1 -80 -1 -174 0 l-172 3 123 87 c68 48 136 98 153 112 29 23 29 25
12 43 -9 11 -80 67 -157 124 l-141 104 38 6 c21 3 99 7 174 8 l137 1 4 -242z
m-592 223 c0 -5 31 -28 70 -51 69 -41 69 -42 56 -68 -21 -44 -37 -120 -30
-150 4 -15 15 -44 26 -64 l18 -38 -40 -25 c-115 -72 -109 -70 -204 -67 l-89 3
7 61 c3 33 6 139 6 234 l0 174 90 0 c50 0 90 -4 90 -9z m174 -23 c-9 -18 -18
-34 -19 -36 -2 -2 -27 12 -57 32 l-53 36 73 0 73 0 -17 -32z m200 -109 c83
-55 152 -104 153 -107 2 -4 -16 -18 -40 -31 -23 -13 -89 -54 -147 -91 -58 -37
-110 -69 -116 -73 -6 -3 -18 7 -27 22 l-16 28 75 52 c42 29 73 55 70 58 -3 3
-39 -13 -81 -36 -41 -23 -80 -39 -85 -36 -17 11 -41 112 -34 142 6 23 30 80
39 91 1 2 26 -11 54 -27 132 -79 153 -74 36 8 -47 32 -73 57 -69 64 11 19 26
37 31 37 3 0 73 -45 157 -101z m-181 -304 l28 -35 -83 0 c-46 0 -78 4 -72 9
14 13 88 61 94 61 3 0 18 -16 33 -35z"/>
</g>
</svg>
