<?xml version="1.0" standalone="no"?>
<!DOCTYPE svg PUBLIC "-//W3C//DTD SVG 20010904//EN"
 "http://www.w3.org/TR/2001/REC-SVG-20010904/DTD/svg10.dtd">
<svg version="1.0" xmlns="http://www.w3.org/2000/svg"
 width="161.000000pt" height="117.000000pt" viewBox="0 0 161.000000 117.000000"
 preserveAspectRatio="xMidYMid meet">
<metadata>
Created by potrace 1.16, written by Peter Selinger 2001-2019
</metadata>
<g transform="translate(0.000000,117.000000) scale(0.100000,-0.100000)"
fill="#000000" stroke="none">
<path d="M311 862 c-12 -8 -13 -54 -8 -276 3 -146 9 -271 13 -277 5 -9 122
-11 492 -6 267 4 487 8 489 10 9 10 15 534 6 540 -18 11 -977 19 -992 9z m953
-189 c3 -93 9 -208 12 -257 l6 -89 -114 6 c-62 4 -136 7 -164 7 l-51 0 -27 63
c-27 64 -33 133 -20 231 l7 46 41 1 c22 0 59 4 81 8 37 6 33 8 -38 13 -44 4
-80 8 -82 10 -2 2 -5 28 -7 58 l-3 55 130 5 c72 3 151 7 176 8 l47 2 6 -167z
m-469 106 c-19 -28 -39 -65 -44 -82 -5 -18 -21 -58 -35 -89 -29 -64 -20 -78
13 -22 l21 36 28 -54 c15 -29 33 -62 40 -73 12 -17 9 -29 -18 -87 l-32 -68
-125 0 -126 0 7 53 c3 28 6 136 6 239 l0 187 148 4 c81 1 148 4 150 5 1 1 -13
-21 -33 -49z m-303 23 c3 -10 6 -92 7 -183 1 -90 4 -189 7 -219 l6 -55 -92 3
-93 3 7 61 c3 34 6 139 6 234 l0 174 74 0 c63 0 74 -3 78 -18z m388 -49 l0
-43 -45 0 c-50 0 -53 4 -28 40 53 80 73 81 73 3z m0 -189 c0 -99 -2 -115 -14
-105 -24 20 -86 156 -86 189 0 32 0 32 50 32 l50 0 0 -116z m26 -175 l24 -49
-71 0 -71 0 27 48 c16 26 30 50 32 54 9 16 36 -8 59 -53z"/>
</g>
</svg>
