<?xml version="1.0" standalone="no"?>
<!DOCTYPE svg PUBLIC "-//W3C//DTD SVG 20010904//EN"
 "http://www.w3.org/TR/2001/REC-SVG-20010904/DTD/svg10.dtd">
<svg version="1.0" xmlns="http://www.w3.org/2000/svg"
 width="161.000000pt" height="117.000000pt" viewBox="0 0 161.000000 117.000000"
 preserveAspectRatio="xMidYMid meet">
<metadata>
Created by potrace 1.16, written by Peter Selinger 2001-2019
</metadata>
<g transform="translate(0.000000,117.000000) scale(0.100000,-0.100000)"
fill="#000000" stroke="none">
<path d="M311 862 c-12 -8 -13 -54 -8 -276 3 -146 9 -271 13 -277 5 -9 122
-11 492 -6 267 4 487 8 489 10 9 10 15 534 6 540 -18 11 -977 19 -992 9z m953
-189 c3 -93 9 -208 12 -256 l6 -88 -74 3 c-71 3 -73 4 -71 28 1 14 2 125 3
247 1 160 5 223 13 227 7 2 33 5 58 5 l47 1 6 -167z m-154 -20 c0 -98 3 -208
7 -245 l6 -68 -193 0 -193 0 7 38 c3 20 6 128 6 239 l0 202 43 4 c23 2 104 4
180 5 l137 2 0 -177z m-580 -12 c0 -98 3 -205 6 -239 l7 -60 -104 5 c-57 3
-104 6 -105 7 0 0 1 106 4 234 l4 232 94 0 94 0 0 -179z m180 159 c0 -18 -7
-20 -70 -20 -57 0 -70 -3 -70 -16 0 -13 11 -15 72 -12 61 2 71 0 74 -15 2 -15
-7 -17 -72 -17 -62 0 -74 -3 -74 -16 0 -15 9 -16 70 -10 65 6 70 5 70 -13 0
-18 -6 -19 -70 -15 -59 4 -70 2 -70 -11 0 -12 14 -15 76 -15 66 0 75 -2 72
-17 -3 -16 -13 -17 -76 -15 -61 3 -72 1 -72 -12 0 -13 13 -16 75 -16 68 0 75
-2 75 -20 0 -18 -7 -20 -75 -20 -62 0 -75 -3 -75 -16 0 -14 11 -16 75 -12 72
3 75 3 75 -19 0 -22 -4 -23 -75 -23 -63 0 -75 -3 -75 -16 0 -14 10 -16 75 -12
71 5 75 4 75 -16 0 -20 -4 -21 -75 -18 -63 3 -75 1 -75 -12 0 -13 14 -16 81
-16 71 0 80 -2 77 -17 -3 -15 -15 -18 -86 -18 l-83 0 1 223 c0 122 3 229 6
237 5 11 23 15 75 15 62 0 69 -2 69 -20z"/>
</g>
</svg>
