<?xml version="1.0" standalone="no"?>
<!DOCTYPE svg PUBLIC "-//W3C//DTD SVG 20010904//EN"
 "http://www.w3.org/TR/2001/REC-SVG-20010904/DTD/svg10.dtd">
<svg version="1.0" xmlns="http://www.w3.org/2000/svg"
 width="164.000000pt" height="117.000000pt" viewBox="0 0 164.000000 117.000000"
 preserveAspectRatio="xMidYMid meet">
<metadata>
Created by potrace 1.16, written by Peter Selinger 2001-2019
</metadata>
<g transform="translate(0.000000,117.000000) scale(0.100000,-0.100000)"
fill="#000000" stroke="none">
<path d="M460 860 c0 -5 -7 -10 -16 -10 -9 0 -36 -44 -74 -122 -33 -68 -60
-126 -60 -130 0 -29 38 22 130 173 l28 46 353 7 c194 4 379 9 410 13 l57 6 6
-179 c4 -99 9 -213 12 -256 l6 -76 -259 4 c-142 3 -335 7 -428 10 l-171 6 -53
114 c-30 63 -59 114 -65 114 -6 0 -17 -4 -25 -9 -16 -10 -8 -25 93 -180 l61
-94 429 6 c236 4 431 8 433 10 2 2 6 125 10 274 l6 270 -243 6 c-361 10 -640
9 -640 -3z"/>
<path d="M689 773 c-6 -7 -8 -31 -4 -57 l7 -46 -70 0 c-82 0 -82 0 -82 -100 0
-79 2 -80 90 -80 l59 0 6 -37 c4 -21 8 -44 11 -52 3 -11 39 -12 197 -6 105 4
195 9 200 12 4 2 7 85 7 183 0 178 0 180 -22 184 -13 3 -105 7 -206 8 -134 2
-186 0 -193 -9z m321 -43 c0 -27 -3 -30 -30 -30 -25 0 -30 4 -30 24 0 25 11
34 43 35 12 1 17 -7 17 -29z m70 0 c0 -25 -4 -30 -25 -30 -21 0 -25 5 -25 30
0 25 4 30 25 30 21 0 25 -5 25 -30z m-307 1 c6 -25 0 -31 -35 -31 -23 0 -28 4
-28 25 0 21 5 25 29 25 20 0 30 -6 34 -19z m77 -6 c0 -20 -5 -25 -25 -25 -20
0 -25 5 -25 25 0 20 5 25 25 25 20 0 25 -5 25 -25z m74 9 c11 -28 7 -34 -24
-34 -25 0 -30 4 -30 25 0 20 5 25 24 25 13 0 27 -7 30 -16z m-146 -97 c3 -38
3 -38 -30 -35 -30 3 -33 6 -36 41 -3 38 -3 38 30 35 30 -3 33 -6 36 -41z m72
3 c0 -36 -2 -40 -25 -40 -22 0 -25 4 -25 40 0 36 3 40 25 40 23 0 25 -4 25
-40z m80 0 c0 -38 -2 -40 -30 -40 -28 0 -30 2 -30 40 0 38 2 40 30 40 28 0 30
-2 30 -40z m80 0 c0 -38 -2 -40 -30 -40 -28 0 -30 2 -30 40 0 38 2 40 30 40
28 0 30 -2 30 -40z m74 18 c12 -47 8 -58 -24 -58 -28 0 -30 2 -30 40 0 35 3
40 24 40 16 0 26 -7 30 -22z m-394 -77 l0 -69 -62 5 c-35 3 -64 6 -65 7 -1 1
1 29 4 64 l6 62 58 0 59 0 0 -69z m90 -31 c0 -28 -3 -30 -35 -30 -32 0 -35 2
-35 30 0 28 3 30 35 30 32 0 35 -2 35 -30z m70 -5 c0 -31 -3 -35 -25 -35 -22
0 -25 4 -25 35 0 31 3 35 25 35 22 0 25 -4 25 -35z m80 -1 c0 -33 -2 -35 -27
-32 -23 2 -29 8 -31 36 -3 30 -1 32 27 32 29 0 31 -3 31 -36z m80 1 c0 -32 -2
-35 -30 -35 -28 0 -30 3 -30 35 0 32 2 35 30 35 28 0 30 -3 30 -35z m80 -1 c0
-33 -2 -35 -27 -32 -23 2 -29 8 -31 36 -3 30 -1 32 27 32 29 0 31 -3 31 -36z
m0 -61 c0 -10 3 -28 6 -40 6 -21 3 -23 -30 -23 -34 0 -36 2 -36 33 0 40 6 47
37 47 15 0 23 -6 23 -17z m-310 -29 c0 -34 -1 -35 -32 -32 -29 3 -33 7 -36 36
-3 31 -2 32 32 32 35 0 36 -1 36 -36z m80 1 c0 -32 -2 -35 -30 -35 -28 0 -30
3 -30 35 0 32 2 35 30 35 28 0 30 -3 30 -35z m70 0 c0 -32 -2 -35 -30 -35 -28
0 -30 3 -30 35 0 32 2 35 30 35 28 0 30 -3 30 -35z m90 0 c0 -33 -2 -35 -35
-35 -33 0 -35 2 -35 35 0 33 2 35 35 35 33 0 35 -2 35 -35z"/>
</g>
</svg>
