<?xml version="1.0" standalone="no"?>
<!DOCTYPE svg PUBLIC "-//W3C//DTD SVG 20010904//EN"
 "http://www.w3.org/TR/2001/REC-SVG-20010904/DTD/svg10.dtd">
<svg version="1.0" xmlns="http://www.w3.org/2000/svg"
 width="161.000000pt" height="117.000000pt" viewBox="0 0 161.000000 117.000000"
 preserveAspectRatio="xMidYMid meet">
<metadata>
Created by potrace 1.16, written by Peter Selinger 2001-2019
</metadata>
<g transform="translate(0.000000,117.000000) scale(0.100000,-0.100000)"
fill="#000000" stroke="none">
<path d="M311 862 c-12 -8 -13 -54 -8 -276 3 -146 9 -271 13 -277 5 -9 122
-11 492 -6 267 4 487 8 489 10 9 10 15 534 6 540 -18 11 -977 19 -992 9z m949
-94 l0 -73 -55 -24 -55 -24 -63 33 c-34 18 -63 34 -65 36 -2 1 19 15 47 31 28
15 51 31 51 36 0 11 -7 9 -70 -22 -50 -25 -65 -28 -92 -20 -84 24 -172 -2
-254 -73 -34 -30 -42 -33 -96 -30 l-58 4 0 -51 0 -52 58 4 c54 4 60 2 102 -34
84 -70 172 -95 248 -68 26 9 38 6 91 -20 65 -34 71 -35 71 -23 0 5 -23 21 -51
37 l-51 27 63 34 c35 19 66 34 70 34 3 0 28 -9 54 -21 60 -27 69 -18 15 16
-60 38 -66 39 -97 17 -59 -42 -231 -101 -253 -87 -8 5 13 71 27 85 2 3 39 8
81 11 l77 6 -71 1 c-39 1 -73 5 -77 8 -3 3 -76 5 -162 5 -85 -1 -160 1 -165 4
-5 3 -7 12 -3 21 5 12 31 15 165 13 88 0 162 2 165 5 4 3 37 6 75 6 37 0 68 4
68 8 0 4 -10 8 -22 8 -134 1 -134 1 -151 44 -9 24 -12 42 -6 46 24 15 218 -54
260 -92 15 -14 22 -13 71 13 29 15 56 29 59 31 3 1 6 -44 7 -100 1 -57 5 -136
8 -177 l7 -74 -119 6 c-66 4 -236 7 -379 7 l-260 0 3 238 c2 130 5 238 6 238
0 1 143 6 316 11 173 5 336 10 363 11 l47 2 0 -72z m-767 30 c3 -13 7 -119 9
-237 l3 -214 -85 2 c-47 1 -85 3 -86 4 0 1 1 107 4 235 l4 232 73 0 c67 0 73
-2 78 -22z m360 -123 l17 -35 -83 0 -82 1 55 34 c30 19 59 35 65 35 6 0 19
-16 28 -35z m1 -169 c-10 -20 -23 -36 -29 -36 -6 0 -35 16 -65 34 l-55 35 80
3 c44 2 81 2 83 2 2 -1 -5 -18 -14 -38z"/>
</g>
</svg>
