<?xml version="1.0" standalone="no"?>
<!DOCTYPE svg PUBLIC "-//W3C//DTD SVG 20010904//EN"
 "http://www.w3.org/TR/2001/REC-SVG-20010904/DTD/svg10.dtd">
<svg version="1.0" xmlns="http://www.w3.org/2000/svg"
 width="161.000000pt" height="117.000000pt" viewBox="0 0 161.000000 117.000000"
 preserveAspectRatio="xMidYMid meet">
<metadata>
Created by potrace 1.16, written by Peter Selinger 2001-2019
</metadata>
<g transform="translate(0.000000,117.000000) scale(0.100000,-0.100000)"
fill="#000000" stroke="none">
<path d="M311 862 c-12 -8 -13 -54 -8 -276 3 -146 9 -271 13 -277 5 -9 122
-11 492 -6 267 4 487 8 489 10 9 10 15 534 6 540 -18 11 -977 19 -992 9z m953
-189 c3 -93 9 -207 12 -255 l6 -88 -39 0 c-21 0 -88 3 -150 7 l-111 6 -26 62
-27 61 25 65 c27 70 26 70 115 54 64 -12 44 9 -24 24 -30 7 -55 13 -55 14 0 1
11 37 24 80 22 71 21 97 -4 82 -5 -3 -10 -12 -10 -20 0 -8 -22 -85 -50 -171
-52 -162 -56 -179 -42 -170 8 5 52 -62 52 -78 0 -3 -34 -6 -76 -6 l-75 0 28
49 c15 27 30 48 33 46 3 -2 5 20 6 48 3 196 -2 177 64 250 33 36 57 68 52 71
-10 6 -66 -46 -91 -84 -16 -24 -16 -24 -21 35 -3 34 -10 60 -17 63 -10 3 -13
-15 -13 -68 l0 -72 -42 7 c-24 4 -44 9 -46 10 -5 5 28 67 55 102 l24 33 162 3
c89 1 183 4 208 5 l47 2 6 -167z m-499 92 c-30 -51 -41 -87 -36 -118 1 -4 -13
-40 -29 -78 -39 -88 -35 -109 5 -30 l31 59 52 -71 53 -70 -24 -56 -24 -56
-138 -3 -138 -3 6 53 c4 29 7 137 7 240 l0 187 133 3 c72 2 133 3 135 2 1 -1
-13 -27 -33 -59z m-273 37 c3 -10 6 -92 7 -183 1 -90 4 -189 7 -219 l6 -55
-92 3 -93 3 7 61 c3 34 6 139 6 234 l0 174 74 0 c63 0 74 -3 78 -18z m353
-145 c1 -1 5 -42 8 -92 l5 -90 -30 35 c-32 37 -78 125 -78 149 0 11 10 12 47
7 25 -3 47 -7 48 -9z"/>
</g>
</svg>
