<?xml version="1.0" standalone="no"?>
<!DOCTYPE svg PUBLIC "-//W3C//DTD SVG 20010904//EN"
 "http://www.w3.org/TR/2001/REC-SVG-20010904/DTD/svg10.dtd">
<svg version="1.0" xmlns="http://www.w3.org/2000/svg"
 width="161.000000pt" height="117.000000pt" viewBox="0 0 161.000000 117.000000"
 preserveAspectRatio="xMidYMid meet">
<metadata>
Created by potrace 1.16, written by Peter Selinger 2001-2019
</metadata>
<g transform="translate(0.000000,117.000000) scale(0.100000,-0.100000)"
fill="#000000" stroke="none">
<path d="M311 862 c-12 -8 -13 -54 -8 -276 3 -146 9 -271 13 -277 5 -9 122
-11 492 -6 267 4 487 8 489 10 9 10 15 534 6 540 -18 11 -977 19 -992 9z m953
-189 c3 -93 9 -207 12 -254 l5 -86 -378 5 c-208 2 -379 5 -380 6 0 0 1 58 4
129 l6 127 196 0 c240 0 451 10 451 22 0 4 -139 8 -309 8 -170 0 -316 3 -325
6 -13 5 -16 23 -16 95 l0 89 128 1 c106 1 303 7 553 17 l47 2 6 -167z m-771
105 c3 -24 6 -104 6 -178 1 -74 4 -162 7 -195 l6 -60 -92 3 -93 3 7 61 c3 34
6 139 6 234 l0 174 74 0 74 0 5 -42z"/>
</g>
</svg>
