<?xml version="1.0" standalone="no"?>
<!DOCTYPE svg PUBLIC "-//W3C//DTD SVG 20010904//EN"
 "http://www.w3.org/TR/2001/REC-SVG-20010904/DTD/svg10.dtd">
<svg version="1.0" xmlns="http://www.w3.org/2000/svg"
 width="161.000000pt" height="117.000000pt" viewBox="0 0 161.000000 117.000000"
 preserveAspectRatio="xMidYMid meet">
<metadata>
Created by potrace 1.16, written by Peter Selinger 2001-2019
</metadata>
<g transform="translate(0.000000,117.000000) scale(0.100000,-0.100000)"
fill="#000000" stroke="none">
<path d="M311 862 c-12 -8 -13 -54 -8 -276 3 -146 9 -271 13 -277 5 -9 122
-11 492 -6 267 4 487 8 489 10 9 10 15 534 6 540 -18 11 -977 19 -992 9z m953
-189 c3 -93 9 -208 12 -257 l6 -89 -114 6 c-62 4 -232 7 -378 7 l-265 0 3 238
c2 130 5 238 6 239 0 0 140 4 311 8 171 4 312 9 314 11 2 2 26 4 52 4 l47 0 6
-167z m-772 129 c3 -10 6 -92 7 -183 1 -90 4 -189 7 -219 l6 -55 -92 3 -93 3
7 61 c3 34 6 139 6 234 l0 174 74 0 c63 0 74 -3 78 -18z"/>
<path d="M723 773 c-67 -28 -134 -80 -126 -98 3 -9 31 -30 61 -48 41 -23 52
-33 41 -39 -8 -5 -38 -23 -68 -40 l-54 -30 29 -24 c63 -51 145 -87 198 -87 56
0 152 39 232 93 25 16 48 30 53 30 4 0 33 -14 64 -31 31 -17 57 -26 57 -20 0
10 -101 81 -115 81 -4 0 -21 -11 -39 -25 -59 -45 -188 -95 -245 -95 -49 0
-131 25 -131 40 0 4 22 22 50 41 45 30 61 49 44 49 -4 0 -33 -16 -66 -36 -38
-23 -63 -33 -69 -27 -6 6 9 21 41 41 27 17 50 37 50 44 0 7 -23 29 -50 48 -27
19 -48 40 -46 45 1 6 31 25 67 44 56 29 71 32 120 28 62 -5 211 -69 248 -106
l21 -21 58 36 c68 43 67 42 60 50 -3 3 -32 -8 -64 -24 l-59 -30 -35 25 c-19
14 -68 41 -109 61 -89 43 -156 50 -218 25z"/>
<path d="M690 686 c0 -18 68 -72 77 -62 7 7 -56 76 -69 76 -4 0 -8 -7 -8 -14z"/>
</g>
</svg>
