<?xml version="1.0" standalone="no"?>
<!DOCTYPE svg PUBLIC "-//W3C//DTD SVG 20010904//EN"
 "http://www.w3.org/TR/2001/REC-SVG-20010904/DTD/svg10.dtd">
<svg version="1.0" xmlns="http://www.w3.org/2000/svg"
 width="161.000000pt" height="117.000000pt" viewBox="0 0 161.000000 117.000000"
 preserveAspectRatio="xMidYMid meet">
<metadata>
Created by potrace 1.16, written by Peter Selinger 2001-2019
</metadata>
<g transform="translate(0.000000,117.000000) scale(0.100000,-0.100000)"
fill="#000000" stroke="none">
<path d="M313 864 c-10 -4 -13 -69 -13 -274 0 -229 2 -269 15 -280 13 -11 113
-12 497 -7 264 4 483 8 485 10 9 10 15 534 6 540 -13 8 -974 19 -990 11z m557
-42 c0 -4 -74 -81 -165 -172 l-165 -165 0 40 c0 38 6 47 128 167 70 69 136
128 147 131 33 8 55 7 55 -1z m90 0 c0 -4 -94 -102 -210 -217 l-210 -210 0 40
c0 38 7 47 177 217 158 158 181 178 210 178 18 0 33 -3 33 -8z m-141 -237
c-171 -171 -252 -245 -267 -245 -14 0 -22 6 -22 17 0 10 102 120 227 245 220
220 229 228 267 228 l40 0 -245 -245z m291 226 c0 -10 -90 -109 -215 -235
-118 -119 -215 -219 -215 -223 0 -4 97 89 215 207 211 211 215 214 215 180 0
-32 -16 -51 -180 -217 l-181 -181 -81 0 -81 0 244 244 c134 134 252 244 261
244 11 0 18 -8 18 -19z m80 -26 c-24 -25 -45 -45 -45 -45 -6 0 2 68 8 78 5 6
25 12 45 12 l36 0 -44 -45z m70 12 c0 -27 -11 -43 -60 -92 l-60 -59 0 33 c0
27 11 46 53 92 28 31 55 57 60 58 4 0 7 -14 7 -32z m-871 -16 c-19 -22 -37
-40 -41 -40 -10 -1 -11 63 -1 72 3 4 22 7 41 7 l34 0 -33 -39z m41 -46 l-85
-86 -3 32 c-3 27 5 40 49 85 44 45 59 54 88 54 l36 0 -85 -85z m260 82 c0 -1
-33 -36 -74 -76 l-75 -74 1 76 0 76 74 0 c41 0 74 -1 74 -2z m90 0 c0 -1 -54
-56 -120 -122 l-120 -120 0 39 c0 35 8 47 82 122 74 76 85 84 120 84 21 0 38
-1 38 -3z m-272 -59 c1 -28 -11 -45 -81 -115 -45 -46 -77 -83 -72 -83 5 0 39
32 76 70 37 39 70 70 73 70 3 0 6 -15 6 -33 0 -27 -13 -45 -85 -117 l-84 -84
0 80 0 79 82 83 c45 45 82 82 83 82 0 0 1 -15 2 -32z m693 -142 l-61 -61 0 38
c0 33 8 46 58 96 l57 58 3 -35 c3 -32 -3 -42 -57 -96z m-229 -138 c-127 -128
-141 -139 -171 -136 -32 3 -31 5 136 171 166 165 168 167 171 135 3 -29 -9
-43 -136 -170z m298 149 c0 -27 -11 -44 -65 -97 l-65 -64 0 39 c0 35 7 47 57
97 32 32 61 58 65 58 4 0 8 -15 8 -33z m-760 -50 c0 -28 -13 -45 -91 -122
l-91 -90 5 43 c4 37 14 53 83 122 43 44 82 80 86 80 4 0 8 -15 8 -33z m600
-20 c0 -28 -14 -46 -93 -125 -84 -84 -97 -93 -126 -90 l-32 3 118 121 c65 67
121 122 126 123 4 0 7 -14 7 -32z m96 -116 l-66 -66 0 40 c0 35 7 47 63 103
l62 63 3 -37 c3 -34 -2 -43 -62 -103z m-747 -37 c-47 -48 -58 -54 -93 -54
l-41 0 90 90 90 91 3 -37 c3 -33 -2 -43 -49 -90z m607 -11 c-44 -47 -55 -53
-90 -53 l-41 0 85 85 85 86 6 -33 c5 -29 0 -39 -45 -85z m163 -19 c-42 -43
-80 -56 -94 -34 -4 6 24 42 62 81 l68 71 3 -37 c3 -33 -2 -43 -39 -81z m-714
9 c2 -26 1 -43 -1 -38 -2 6 -25 9 -52 7 l-47 -4 44 46 c25 25 47 44 49 41 3
-2 6 -26 7 -52z m603 0 c-3 -37 -4 -38 -48 -41 l-45 -3 40 40 c21 23 43 41 48
41 4 0 7 -17 5 -37z m152 -18 c0 -34 -1 -35 -37 -35 l-37 0 34 35 c19 19 35
35 37 35 2 0 3 -16 3 -35z"/>
<path d="M570 785 c-13 -14 -19 -25 -13 -25 12 0 48 38 41 45 -2 3 -15 -6 -28
-20z"/>
</g>
</svg>
