<?xml version="1.0" standalone="no"?>
<!DOCTYPE svg PUBLIC "-//W3C//DTD SVG 20010904//EN"
 "http://www.w3.org/TR/2001/REC-SVG-20010904/DTD/svg10.dtd">
<svg version="1.0" xmlns="http://www.w3.org/2000/svg"
 width="161.000000pt" height="117.000000pt" viewBox="0 0 161.000000 117.000000"
 preserveAspectRatio="xMidYMid meet">
<metadata>
Created by potrace 1.16, written by Peter Selinger 2001-2019
</metadata>
<g transform="translate(0.000000,117.000000) scale(0.100000,-0.100000)"
fill="#000000" stroke="none">
<path d="M311 862 c-12 -8 -13 -54 -8 -276 3 -146 9 -271 13 -277 5 -9 122
-11 492 -6 267 4 487 8 489 10 9 10 15 534 6 540 -18 11 -977 19 -992 9z m953
-189 c3 -93 9 -208 12 -257 l6 -89 -114 6 c-62 4 -232 7 -378 7 l-265 0 3 238
c2 130 5 238 6 239 0 0 140 4 311 8 171 4 312 9 314 11 2 2 26 4 52 4 l47 0 6
-167z m-772 129 c3 -10 6 -92 7 -183 1 -90 4 -189 7 -219 l6 -55 -92 3 -93 3
7 61 c3 34 6 139 6 234 l0 174 74 0 c63 0 74 -3 78 -18z"/>
<path d="M672 793 c2 -10 29 -32 60 -48 31 -17 59 -33 62 -36 3 -3 -3 -29 -14
-57 -26 -67 -25 -88 3 -145 l24 -46 -69 -36 c-37 -20 -68 -43 -68 -51 0 -22
17 -17 91 25 l67 39 33 -34 c38 -39 23 -45 207 75 80 52 131 92 130 100 -2 8
-72 61 -156 119 -160 109 -177 114 -202 67 -7 -14 -18 -25 -24 -25 -6 0 -37
16 -69 35 -65 39 -80 43 -75 18z m357 -120 c173 -104 159 -93 141 -104 -81
-50 -281 -159 -289 -159 -14 0 -36 43 -25 47 22 8 135 85 131 89 -3 3 -37 -11
-76 -30 -39 -20 -75 -36 -80 -36 -12 0 -41 74 -41 103 0 12 9 41 20 65 l19 43
81 -41 c44 -22 80 -37 80 -33 0 5 -28 26 -62 48 -33 22 -65 43 -71 46 -9 7 8
49 20 49 3 0 72 -39 152 -87z"/>
</g>
</svg>
