<?xml version="1.0" standalone="no"?>
<!DOCTYPE svg PUBLIC "-//W3C//DTD SVG 20010904//EN"
 "http://www.w3.org/TR/2001/REC-SVG-20010904/DTD/svg10.dtd">
<svg version="1.0" xmlns="http://www.w3.org/2000/svg"
 width="161.000000pt" height="117.000000pt" viewBox="0 0 161.000000 117.000000"
 preserveAspectRatio="xMidYMid meet">
<metadata>
Created by potrace 1.16, written by Peter Selinger 2001-2019
</metadata>
<g transform="translate(0.000000,117.000000) scale(0.100000,-0.100000)"
fill="#000000" stroke="none">
<path d="M311 862 c-12 -8 -13 -54 -8 -276 3 -146 9 -271 13 -277 5 -9 122
-11 492 -6 267 4 487 8 489 10 9 10 15 534 6 540 -18 11 -977 19 -992 9z m953
-189 c3 -93 9 -208 12 -256 l6 -88 -74 3 c-71 3 -73 4 -71 28 1 14 2 125 3
247 1 160 5 223 13 227 7 2 33 5 58 5 l47 1 6 -167z m-154 -20 c0 -98 3 -209
7 -247 l6 -69 -392 5 c-215 3 -393 7 -394 9 -2 2 -2 109 1 236 l4 233 247 3
c135 1 308 3 384 5 l137 2 0 -177z"/>
<path d="M612 696 c-83 -87 -82 -129 5 -212 31 -30 62 -54 69 -54 7 0 28 8 46
19 195 109 238 134 238 142 0 12 -265 159 -287 159 -11 0 -43 -24 -71 -54z
m103 9 c22 -21 25 -33 25 -97 0 -40 3 -82 6 -94 4 -17 -2 -26 -32 -43 l-37
-22 -38 37 c-52 50 -72 95 -59 128 11 29 87 116 102 116 5 0 20 -11 33 -25z
m140 -67 c47 -23 85 -45 85 -48 0 -5 -165 -90 -175 -90 -3 0 -5 41 -5 90 0 50
2 90 5 90 3 0 43 -19 90 -42z"/>
</g>
</svg>
