<?xml version="1.0" standalone="no"?>
<!DOCTYPE svg PUBLIC "-//W3C//DTD SVG 20010904//EN"
 "http://www.w3.org/TR/2001/REC-SVG-20010904/DTD/svg10.dtd">
<svg version="1.0" xmlns="http://www.w3.org/2000/svg"
 width="161.000000pt" height="117.000000pt" viewBox="0 0 161.000000 117.000000"
 preserveAspectRatio="xMidYMid meet">
<metadata>
Created by potrace 1.16, written by Peter Selinger 2001-2019
</metadata>
<g transform="translate(0.000000,117.000000) scale(0.100000,-0.100000)"
fill="#000000" stroke="none">
<path d="M311 862 c-12 -8 -13 -54 -8 -276 3 -146 9 -271 13 -277 5 -9 122
-11 492 -6 267 4 487 8 489 10 9 10 15 534 6 540 -18 11 -977 19 -992 9z m953
-189 c3 -93 9 -208 12 -257 l6 -89 -114 6 c-62 4 -232 7 -378 7 l-265 0 3 238
c2 130 5 238 6 238 0 1 143 6 316 11 173 5 336 10 361 11 l47 2 6 -167z m-771
110 c3 -21 6 -103 6 -183 1 -80 4 -170 7 -200 l6 -55 -92 3 -93 3 7 61 c3 34
6 139 6 234 l0 174 74 0 73 0 6 -37z"/>
<path d="M819 740 c-73 -9 -172 -47 -166 -64 2 -6 20 -21 41 -32 l37 -21 -46
-5 c-25 -3 -49 -8 -52 -11 -14 -14 11 -39 69 -69 84 -43 158 -43 277 0 l85 30
49 -24 c68 -35 78 -25 14 13 l-53 32 -87 -30 c-48 -16 -109 -33 -137 -36 l-50
-6 7 33 c4 24 3 31 -5 26 -7 -4 -12 -16 -12 -28 0 -17 -4 -19 -27 -13 -15 3
-45 17 -67 30 -36 21 -38 25 -21 32 11 4 102 8 202 8 101 0 183 3 183 8 0 4 9
7 21 7 11 0 18 3 16 8 -3 4 13 20 34 37 50 37 34 45 -19 10 l-40 -26 -85 42
c-47 24 -84 46 -81 51 3 4 -1 7 -8 7 -7 -1 -43 -5 -79 -9z m17 -34 c20 8 45
12 57 8 42 -13 167 -77 167 -86 0 -20 -300 7 -349 32 l-35 17 55 21 c44 16 55
17 62 7 6 -12 13 -11 43 1z"/>
<path d="M763 680 c-12 -28 -8 -39 8 -23 6 6 9 19 6 29 -3 17 -5 16 -14 -6z"/>
</g>
</svg>
