<?xml version="1.0" standalone="no"?>
<!DOCTYPE svg PUBLIC "-//W3C//DTD SVG 20010904//EN"
 "http://www.w3.org/TR/2001/REC-SVG-20010904/DTD/svg10.dtd">
<svg version="1.0" xmlns="http://www.w3.org/2000/svg"
 width="161.000000pt" height="117.000000pt" viewBox="0 0 161.000000 117.000000"
 preserveAspectRatio="xMidYMid meet">
<metadata>
Created by potrace 1.16, written by Peter Selinger 2001-2019
</metadata>
<g transform="translate(0.000000,117.000000) scale(0.100000,-0.100000)"
fill="#000000" stroke="none">
<path d="M311 862 c-12 -8 -13 -54 -8 -276 3 -146 9 -271 13 -277 5 -9 122
-11 492 -6 267 4 487 8 489 10 9 10 15 534 6 540 -18 11 -977 19 -992 9z m953
-199 c4 -98 9 -213 12 -256 l6 -79 -188 8 c-104 3 -190 7 -192 9 -1 1 -9 41
-18 90 -16 83 -16 93 0 162 17 72 23 176 11 213 -6 18 1 20 132 23 76 1 159 4
184 5 l47 2 6 -177z m-397 130 c12 -60 6 -159 -13 -213 -17 -48 -17 -51 4
-135 12 -47 22 -90 22 -95 0 -6 -24 -10 -54 -10 -62 0 -58 -6 -77 112 -11 67
-10 86 5 156 12 50 17 103 14 145 l-4 66 36 4 c19 2 40 4 47 5 7 1 16 -15 20
-35z m-374 -15 c4 -24 7 -130 9 -237 l3 -194 -85 2 c-47 1 -85 3 -86 4 0 1 1
107 4 235 l4 232 73 0 73 0 5 -42z m242 22 c12 -39 6 -163 -11 -217 -18 -57
-16 -73 22 -220 6 -23 6 -23 -111 -23 l-118 0 7 53 c3 28 6 136 6 240 l0 187
99 0 c91 0 100 -2 106 -20z"/>
</g>
</svg>
