<?xml version="1.0" standalone="no"?>
<!DOCTYPE svg PUBLIC "-//W3C//DTD SVG 20010904//EN"
 "http://www.w3.org/TR/2001/REC-SVG-20010904/DTD/svg10.dtd">
<svg version="1.0" xmlns="http://www.w3.org/2000/svg"
 width="161.000000pt" height="117.000000pt" viewBox="0 0 161.000000 117.000000"
 preserveAspectRatio="xMidYMid meet">
<metadata>
Created by potrace 1.16, written by Peter Selinger 2001-2019
</metadata>
<g transform="translate(0.000000,117.000000) scale(0.100000,-0.100000)"
fill="#000000" stroke="none">
<path d="M311 862 c-12 -8 -13 -54 -8 -276 3 -146 9 -271 13 -277 5 -9 122
-11 492 -6 267 4 487 8 489 10 9 10 15 534 6 540 -18 11 -977 19 -992 9z m953
-189 c3 -93 9 -208 12 -256 l6 -88 -73 3 -73 3 3 100 c1 55 8 106 14 113 8 10
8 19 -1 33 -17 26 -15 241 2 251 6 4 32 8 57 8 l47 0 6 -167z m-444 152 c0 -3
-7 -13 -15 -22 -8 -10 -21 -26 -28 -37 -13 -17 -16 -17 -68 15 l-54 34 75 6
c41 3 78 6 83 7 4 1 7 0 7 -3z m290 -101 c0 -99 -1 -104 -18 -92 -188 140
-252 189 -252 193 0 3 61 5 135 5 l135 0 0 -106z m-650 81 c0 -12 -13 -15 -60
-15 -47 0 -60 3 -60 15 0 12 13 15 60 15 47 0 60 -3 60 -15z m150 6 c0 -5 30
-28 68 -51 37 -24 68 -44 69 -45 2 -1 -6 -27 -17 -58 -25 -71 -25 -120 0 -176
11 -24 20 -45 20 -46 0 -2 -34 -24 -76 -50 -68 -41 -82 -46 -128 -43 l-51 3 1
50 c0 28 1 134 2 238 l2 187 55 0 c30 0 55 -4 55 -9z m363 -126 c178 -118 177
-115 20 -216 -64 -41 -127 -81 -140 -89 -20 -13 -24 -13 -37 5 -9 11 -15 25
-15 30 0 6 33 34 75 64 119 84 85 78 -64 -11 l-32 -20 -20 44 c-11 23 -20 60
-20 80 0 42 27 118 42 118 5 0 41 -18 79 -41 97 -56 106 -44 15 19 -42 29 -76
57 -76 63 0 14 24 49 31 47 4 -2 67 -43 142 -93z m-513 65 c0 -19 -5 -21 -57
-18 -75 4 -83 26 -11 31 29 2 56 4 61 5 4 1 7 -7 7 -18z m0 -60 c0 -17 -5 -20
-27 -16 -16 2 -43 5 -60 5 -18 1 -33 5 -33 10 0 9 32 16 93 19 21 2 27 -2 27
-18z m8 -57 c-2 -9 -6 -16 -10 -15 -5 1 -33 2 -63 2 -42 0 -55 3 -55 15 0 12
14 15 66 15 56 0 65 -2 62 -17z m2 -63 c0 -18 -7 -20 -65 -20 -58 0 -65 2 -65
20 0 18 7 20 65 20 58 0 65 -2 65 -20z m0 -65 c0 -24 -2 -25 -65 -25 -58 0
-65 2 -65 20 0 16 8 20 58 23 31 2 60 4 65 5 4 1 7 -9 7 -23z m645 -76 c4 -44
5 -82 2 -85 -2 -3 -59 -3 -127 -2 l-122 3 83 57 c46 32 98 69 114 82 17 14 33
25 36 26 4 0 10 -36 14 -81z m-645 11 c0 -18 -7 -20 -70 -20 -56 0 -68 3 -64
14 4 9 24 16 52 19 26 2 55 4 65 5 11 1 17 -5 17 -18z m324 -98 c-18 -2 -52
-2 -76 0 l-42 3 50 31 49 31 27 -31 26 -31 -34 -3z m-321 28 c5 -19 0 -20 -69
-20 -67 0 -74 2 -74 20 0 18 7 20 69 20 60 0 69 -2 74 -20z"/>
</g>
</svg>
