<?xml version="1.0" standalone="no"?>
<!DOCTYPE svg PUBLIC "-//W3C//DTD SVG 20010904//EN"
 "http://www.w3.org/TR/2001/REC-SVG-20010904/DTD/svg10.dtd">
<svg version="1.0" xmlns="http://www.w3.org/2000/svg"
 width="161.000000pt" height="117.000000pt" viewBox="0 0 161.000000 117.000000"
 preserveAspectRatio="xMidYMid meet">
<metadata>
Created by potrace 1.16, written by Peter Selinger 2001-2019
</metadata>
<g transform="translate(0.000000,117.000000) scale(0.100000,-0.100000)"
fill="#000000" stroke="none">
<path d="M311 862 c-12 -8 -13 -54 -8 -276 3 -146 9 -271 13 -277 5 -9 122
-11 492 -6 267 4 487 8 489 10 9 10 15 534 6 540 -18 11 -977 19 -992 9z m953
-189 c3 -93 9 -207 12 -256 l6 -87 -214 6 c-117 4 -215 8 -217 10 -2 2 8 19
23 39 26 33 26 37 13 63 -78 145 -78 146 -30 255 22 48 24 62 14 83 -6 14 -11
29 -11 34 0 5 68 11 153 13 83 1 173 4 198 5 l47 2 6 -167z m-516 109 c-58
-62 -72 -104 -66 -206 5 -92 20 -126 80 -192 l41 -44 -143 0 -143 0 7 53 c3
28 6 136 6 239 l0 187 128 4 c70 1 129 4 131 5 2 1 -16 -20 -41 -46z m-256 20
c3 -10 6 -92 7 -183 1 -90 4 -189 7 -219 l6 -55 -92 3 -93 3 7 61 c3 34 6 139
6 234 l0 174 74 0 c63 0 74 -3 78 -18z m352 -10 c20 -39 9 -48 -49 -42 l-50 5
40 33 c22 17 41 32 42 32 1 0 9 -13 17 -28z m-4 -67 c0 -22 -27 -55 -45 -55
-70 0 -101 20 -73 48 11 11 118 18 118 7z m-32 -87 c-3 -20 -10 -23 -55 -26
-47 -3 -53 -1 -53 17 0 17 8 21 48 24 26 2 51 4 55 5 5 1 7 -8 5 -20z m-4 -64
c11 -29 6 -32 -49 -31 -50 2 -55 4 -55 25 0 20 5 22 49 22 35 0 51 -4 55 -16z
m14 -57 c25 -17 10 -24 -45 -23 -51 1 -72 9 -73 26 0 8 104 6 118 -3z m43 -60
l16 -22 -65 2 c-105 2 -99 37 8 41 15 1 31 -7 41 -21z m-12 -69 c-12 -18 -24
-35 -26 -38 -4 -5 -52 51 -53 63 0 4 23 7 51 7 l50 0 -22 -32z"/>
</g>
</svg>
