<?xml version="1.0" standalone="no"?>
<!DOCTYPE svg PUBLIC "-//W3C//DTD SVG 20010904//EN"
 "http://www.w3.org/TR/2001/REC-SVG-20010904/DTD/svg10.dtd">
<svg version="1.0" xmlns="http://www.w3.org/2000/svg"
 width="161.000000pt" height="117.000000pt" viewBox="0 0 161.000000 117.000000"
 preserveAspectRatio="xMidYMid meet">
<metadata>
Created by potrace 1.16, written by Peter Selinger 2001-2019
</metadata>
<g transform="translate(0.000000,117.000000) scale(0.100000,-0.100000)"
fill="#000000" stroke="none">
<path d="M311 862 c-12 -8 -13 -54 -8 -276 3 -146 9 -271 13 -277 5 -9 122
-11 492 -6 266 3 486 8 488 10 10 10 16 534 7 540 -18 11 -977 19 -992 9z
m869 -31 c0 -7 -103 -111 -110 -111 -13 0 3 80 18 93 20 18 92 32 92 18z m80
-3 c0 -13 -179 -198 -191 -198 -3 0 -6 15 -7 33 -1 27 10 43 71 105 55 55 78
72 99 72 16 0 28 -6 28 -12z m-452 -8 c-5 -14 -461 -470 -470 -470 -4 0 -8 12
-8 28 0 22 38 65 208 234 132 132 216 208 232 211 14 2 29 5 33 6 5 0 7 -3 5
-9z m-132 -229 c-132 -132 -247 -241 -255 -244 -9 -2 -24 -1 -34 2 -13 5 37
60 220 244 220 221 239 237 272 237 35 0 33 -3 -203 -239z m86 -4 c-225 -225
-246 -243 -277 -243 l-34 1 52 54 c29 30 136 139 239 243 177 178 189 188 225
188 l38 0 -243 -243z m268 211 c0 -29 -23 -56 -212 -245 -190 -190 -216 -213
-245 -213 -18 0 -33 3 -33 7 0 10 473 483 482 483 5 0 8 -15 8 -32z m60 28 c0
-3 -4 -8 -10 -11 -5 -3 -10 -1 -10 4 0 6 5 11 10 11 6 0 10 -2 10 -4z m-720
-10 c0 -2 -7 -9 -15 -16 -12 -10 -15 -10 -15 4 0 9 7 16 15 16 8 0 15 -2 15
-4z m35 -56 l-60 -61 -3 37 c-5 51 27 84 82 84 l40 0 -59 -60z m45 -45 l-105
-106 -3 37 c-3 34 2 43 65 106 61 61 71 68 108 68 l40 0 -105 -105z m44 -45
l-149 -149 -3 36 c-3 34 3 42 110 150 106 106 115 113 152 113 l40 0 -150
-150z m42 -42 l-191 -193 -3 34 c-3 32 6 44 155 193 146 146 161 158 194 158
l36 0 -191 -192z m631 7 c-53 -52 -98 -95 -101 -95 -3 0 -6 15 -6 32 0 28 14
47 98 131 l97 98 3 -36 c3 -33 -3 -42 -91 -130z m-304 -127 c-148 -149 -172
-168 -200 -168 -18 0 -33 3 -33 7 0 4 89 97 198 206 l197 197 3 -36 c3 -36 -2
-43 -165 -206z m405 52 c1 -63 4 -126 7 -140 8 -38 -50 -93 -95 -88 l-32 3 27
30 c79 87 84 94 25 38 -55 -53 -71 -63 -100 -63 l-35 0 100 100 c55 55 95 100
90 100 -5 0 -51 -42 -102 -92 l-93 -93 0 35 c0 31 12 47 102 137 57 57 98 103
92 103 -6 0 -52 -42 -102 -94 l-92 -95 0 37 c0 33 10 46 97 134 78 78 99 94
104 80 3 -9 6 -69 7 -132z m-360 -97 c-107 -107 -127 -123 -155 -123 -18 0
-33 3 -33 7 0 4 69 77 153 161 l152 152 3 -36 c3 -36 -2 -43 -120 -161z m45
-45 c-71 -71 -81 -78 -118 -78 l-40 0 115 115 115 116 3 -37 c3 -34 -2 -43
-75 -116z m87 34 c0 -18 -11 -38 -30 -57 -16 -16 -30 -33 -30 -39 0 -5 13 3
29 18 l29 27 4 -30 4 -30 -80 0 -80 0 69 69 c38 39 73 70 77 70 5 0 8 -13 8
-28z m240 -102 c0 -13 -7 -20 -20 -20 -23 0 -26 10 -8 28 18 18 28 15 28 -8z"/>
</g>
</svg>
