<?xml version="1.0" standalone="no"?>
<!DOCTYPE svg PUBLIC "-//W3C//DTD SVG 20010904//EN"
 "http://www.w3.org/TR/2001/REC-SVG-20010904/DTD/svg10.dtd">
<svg version="1.0" xmlns="http://www.w3.org/2000/svg"
 width="161.000000pt" height="117.000000pt" viewBox="0 0 161.000000 117.000000"
 preserveAspectRatio="xMidYMid meet">
<metadata>
Created by potrace 1.16, written by Peter Selinger 2001-2019
</metadata>
<g transform="translate(0.000000,117.000000) scale(0.100000,-0.100000)"
fill="#000000" stroke="none">
<path d="M311 862 c-12 -8 -13 -54 -8 -276 3 -146 9 -271 13 -277 5 -9 122
-11 492 -6 267 4 487 8 489 10 9 10 15 534 6 540 -18 11 -977 19 -992 9z m953
-189 c3 -93 9 -207 12 -256 l6 -87 -214 6 c-117 4 -214 7 -214 8 -1 0 0 52 3
114 l6 112 71 0 c114 0 266 12 266 21 0 5 -75 10 -167 11 l-168 3 -3 108 c-2
92 -5 107 -20 109 -9 1 60 5 153 8 94 3 191 7 216 8 l47 2 6 -167z m-772 129
c3 -10 6 -92 7 -183 1 -90 4 -189 7 -219 l6 -55 -92 3 -93 3 7 61 c3 34 6 139
6 234 l0 174 74 0 c63 0 74 -3 78 -18z m330 -84 c3 -57 3 -107 0 -112 -3 -4
-45 -5 -93 -1 -85 6 -89 6 -89 -14 0 -19 7 -20 93 -23 l92 -3 5 -108 c3 -60 3
-111 1 -113 -2 -2 -74 -4 -159 -4 l-155 0 7 53 c3 28 6 136 6 240 l0 187 144
0 144 0 4 -102z"/>
</g>
</svg>
