<?xml version="1.0" standalone="no"?>
<!DOCTYPE svg PUBLIC "-//W3C//DTD SVG 20010904//EN"
 "http://www.w3.org/TR/2001/REC-SVG-20010904/DTD/svg10.dtd">
<svg version="1.0" xmlns="http://www.w3.org/2000/svg"
 width="161.000000pt" height="117.000000pt" viewBox="0 0 161.000000 117.000000"
 preserveAspectRatio="xMidYMid meet">
<metadata>
Created by potrace 1.16, written by Peter Selinger 2001-2019
</metadata>
<g transform="translate(0.000000,117.000000) scale(0.100000,-0.100000)"
fill="#000000" stroke="none">
<path d="M311 862 c-12 -8 -13 -54 -8 -276 3 -146 9 -271 13 -277 5 -9 122
-11 492 -6 267 4 487 8 489 10 9 10 15 534 6 540 -18 11 -977 19 -992 9z m950
-89 c0 -38 2 -104 4 -148 3 -44 7 -129 10 -189 l6 -109 -113 6 c-62 4 -232 7
-378 7 l-265 0 3 238 c2 130 5 238 6 238 0 1 143 6 316 11 173 5 336 10 363
11 l47 2 1 -67z m-769 29 c3 -10 6 -92 7 -183 1 -90 4 -189 7 -219 l6 -55 -92
3 -93 3 7 61 c3 34 6 139 6 234 l0 174 74 0 c63 0 74 -3 78 -18z"/>
<path d="M747 716 c-4 -11 15 -33 59 -71 l65 -55 -56 0 c-49 0 -63 5 -96 31
l-39 30 -55 -33 c-34 -20 -55 -40 -55 -51 0 -17 82 -77 105 -77 6 0 35 18 64
39 44 33 60 39 102 39 l50 1 -67 -75 c-84 -93 -79 -105 32 -81 92 20 163 51
227 101 l49 37 49 -16 c48 -16 96 -16 54 0 -67 26 -85 35 -85 42 0 5 21 19 46
31 63 31 48 40 -19 13 l-55 -22 -57 36 c-64 42 -142 71 -212 80 -26 3 -60 8
-74 11 -18 3 -28 0 -32 -10z m203 -53 c61 -20 160 -67 160 -76 0 -1 -49 0
-108 3 l-109 5 -57 52 -57 53 48 -6 c26 -4 82 -17 123 -31z m-234 -126 l-44
-28 -41 27 c-23 15 -41 28 -41 29 0 2 18 17 41 33 l41 30 44 -31 44 -31 -44
-29z m414 30 c0 -3 -31 -23 -68 -45 -69 -41 -155 -74 -226 -87 l-39 -6 52 61
c28 34 51 65 51 70 0 4 52 8 115 9 63 1 115 0 115 -2z"/>
</g>
</svg>
