<?xml version="1.0" standalone="no"?>
<!DOCTYPE svg PUBLIC "-//W3C//DTD SVG 20010904//EN"
 "http://www.w3.org/TR/2001/REC-SVG-20010904/DTD/svg10.dtd">
<svg version="1.0" xmlns="http://www.w3.org/2000/svg"
 width="193.000000pt" height="129.000000pt" viewBox="0 0 193.000000 129.000000"
 preserveAspectRatio="xMidYMid meet">
<metadata>
Created by potrace 1.16, written by Peter Selinger 2001-2019
</metadata>
<g transform="translate(0.000000,129.000000) scale(0.100000,-0.100000)"
fill="#000000" stroke="none">
<path d="M714 926 c-34 -36 -73 -87 -85 -113 l-24 -48 -152 3 -153 4 0 -49 c0
-26 3 -78 6 -115 l7 -67 116 5 c64 3 130 7 148 9 27 3 33 -1 44 -27 32 -77
147 -228 174 -228 5 0 142 68 303 150 221 114 299 149 315 144 12 -4 66 -28
119 -54 l98 -47 0 159 c0 87 -2 158 -5 158 -9 0 -229 -101 -241 -111 -6 -5
-70 23 -165 72 -208 109 -427 219 -436 219 -4 0 -35 -29 -69 -64z m381 -122
l290 -137 105 54 c57 30 107 55 111 57 3 1 7 -54 8 -124 1 -69 -1 -124 -6
-122 -4 2 -54 27 -110 56 -57 28 -105 52 -108 52 -3 0 -5 -6 -5 -14 0 -7 -35
-29 -77 -49 -43 -19 -179 -83 -302 -142 -176 -84 -225 -104 -233 -94 -135 203
-167 332 -109 447 33 66 118 165 135 158 6 -2 142 -66 301 -142z m-500 -144
l0 -81 -130 3 -130 3 -3 72 -3 72 73 4 c40 1 100 4 133 5 l60 2 0 -80z"/>
<path d="M983 822 c-10 -6 -3 -29 27 -90 l39 -82 -39 -82 c-35 -72 -38 -83
-24 -91 11 -6 22 -3 37 10 12 11 59 50 105 88 45 37 82 71 82 75 0 7 -194 172
-208 177 -4 2 -13 -1 -19 -5z m125 -107 c45 -33 81 -62 81 -65 0 -5 -156 -122
-170 -128 -5 -2 5 26 21 62 l30 66 -30 66 c-16 36 -26 64 -21 62 4 -2 44 -30
89 -63z"/>
<path d="M768 713 c-46 -29 -76 -54 -75 -63 2 -16 133 -109 155 -110 13 0 61
32 119 81 l31 27 -26 24 c-43 39 -109 88 -119 88 -5 0 -43 -21 -85 -47z m140
-18 c34 -22 62 -42 62 -45 -1 -3 -29 -24 -65 -48 l-64 -43 -56 42 c-31 23 -54
45 -53 49 4 11 102 89 109 87 3 -1 33 -20 67 -42z"/>
<path d="M310 890 l0 -23 171 6 c156 5 190 9 178 21 -2 2 -82 8 -176 11 l-173
8 0 -23z"/>
<path d="M310 430 l0 -23 172 7 c162 6 188 9 177 21 -3 2 -83 8 -177 11 l-172
7 0 -23z"/>
</g>
</svg>
