<?xml version="1.0" standalone="no"?>
<!DOCTYPE svg PUBLIC "-//W3C//DTD SVG 20010904//EN"
 "http://www.w3.org/TR/2001/REC-SVG-20010904/DTD/svg10.dtd">
<svg version="1.0" xmlns="http://www.w3.org/2000/svg"
 width="193.000000pt" height="129.000000pt" viewBox="0 0 193.000000 129.000000"
 preserveAspectRatio="xMidYMid meet">
<metadata>
Created by potrace 1.16, written by Peter Selinger 2001-2019
</metadata>
<g transform="translate(0.000000,129.000000) scale(0.100000,-0.100000)"
fill="#000000" stroke="none">
<path d="M714 926 c-34 -36 -73 -87 -85 -113 l-24 -48 -152 3 -153 4 0 -49 c0
-26 3 -78 6 -115 l7 -67 116 5 c64 3 130 7 148 9 27 3 33 -1 44 -27 32 -77
147 -228 174 -228 5 0 142 68 303 150 221 114 299 149 315 144 12 -4 66 -28
119 -54 l98 -47 0 159 c0 87 -2 158 -5 158 -9 0 -229 -101 -241 -111 -6 -5
-70 23 -165 72 -208 109 -427 219 -436 219 -4 0 -35 -29 -69 -64z m381 -122
l290 -137 105 54 c57 30 107 55 111 57 3 1 7 -54 8 -124 1 -69 -1 -124 -6
-122 -4 2 -54 27 -110 56 -57 28 -105 52 -108 52 -3 0 -5 -6 -5 -14 0 -7 -35
-29 -77 -49 -43 -19 -179 -83 -302 -142 -176 -84 -225 -104 -233 -94 -135 203
-167 332 -109 447 33 66 118 165 135 158 6 -2 142 -66 301 -142z m-500 -144
l0 -81 -130 3 -130 3 -3 72 -3 72 73 4 c40 1 100 4 133 5 l60 2 0 -80z"/>
<path d="M819 716 c-61 -40 -96 -70 -96 -81 0 -20 183 -145 211 -145 17 0 160
103 185 134 12 14 12 18 -2 29 -107 84 -169 127 -184 127 -10 -1 -61 -29 -114
-64z m196 -17 c44 -30 80 -58 80 -64 0 -5 -39 -35 -87 -67 l-86 -58 -82 61
c-54 41 -78 65 -71 72 31 31 148 115 156 113 6 -2 46 -28 90 -57z"/>
<path d="M310 890 l0 -23 171 6 c156 5 190 9 178 21 -2 2 -82 8 -176 11 l-173
8 0 -23z"/>
<path d="M310 430 l0 -23 172 7 c162 6 188 9 177 21 -3 2 -83 8 -177 11 l-172
7 0 -23z"/>
</g>
</svg>
