<?xml version="1.0" standalone="no"?>
<!DOCTYPE svg PUBLIC "-//W3C//DTD SVG 20010904//EN"
 "http://www.w3.org/TR/2001/REC-SVG-20010904/DTD/svg10.dtd">
<svg version="1.0" xmlns="http://www.w3.org/2000/svg"
 width="193.000000pt" height="134.000000pt" viewBox="0 0 193.000000 134.000000"
 preserveAspectRatio="xMidYMid meet">
<metadata>
Created by potrace 1.16, written by Peter Selinger 2001-2019
</metadata>
<g transform="translate(0.000000,134.000000) scale(0.100000,-0.100000)"
fill="#000000" stroke="none">
<path d="M316 1025 c-7 -20 11 -27 155 -59 142 -31 206 -41 196 -30 -9 10 -35
18 -212 69 -138 40 -131 40 -139 20z"/>
<path d="M733 993 c-54 -53 -102 -120 -123 -171 -13 -32 -15 -34 -54 -28 -112
16 -237 26 -247 20 -11 -6 -8 -208 3 -219 3 -3 52 2 109 11 57 8 120 18 139
21 l36 5 41 -83 c50 -100 128 -199 156 -199 17 0 479 231 565 282 l33 20 102
-46 c56 -26 110 -51 120 -57 16 -9 17 1 17 151 l0 159 -77 -33 c-43 -18 -101
-45 -130 -60 l-52 -26 -295 150 -294 151 -49 -48z m386 -154 c140 -66 261
-119 269 -119 9 0 58 23 110 51 73 39 97 47 103 37 5 -7 9 -64 9 -126 l0 -112
-22 14 c-13 8 -61 35 -108 60 -47 25 -77 46 -67 46 9 0 17 5 17 10 0 6 -58 10
-155 10 -108 0 -155 3 -155 11 0 8 -5 7 -15 -1 -13 -11 -22 -7 -54 24 -40 39
-66 38 -29 -1 12 -12 18 -26 14 -30 -4 -4 -22 10 -41 32 -38 45 -60 41 -26 -5
30 -41 13 -38 -29 5 -18 19 -37 32 -42 29 -5 -4 3 -19 18 -35 26 -27 26 -29 7
-29 -12 0 -34 16 -51 38 -35 43 -54 37 -22 -7 l21 -31 -22 3 c-12 2 -39 24
-60 48 -20 24 -41 41 -45 37 -4 -5 11 -30 34 -57 l41 -49 -41 -46 c-22 -26
-37 -50 -33 -54 4 -4 27 15 51 43 24 27 44 46 44 42 0 -4 9 -3 20 3 28 15 25
-2 -5 -30 -14 -13 -25 -30 -25 -39 0 -10 12 -4 38 19 40 38 82 65 82 53 0 -4
-14 -21 -31 -39 -17 -18 -26 -34 -21 -38 6 -3 26 12 45 35 19 22 38 36 41 31
3 -5 -3 -17 -14 -27 -11 -10 -20 -25 -20 -34 0 -10 16 0 43 27 46 46 75 47 31
1 -14 -15 -21 -29 -16 -33 6 -3 26 12 44 34 33 37 35 38 52 22 17 -16 18 -16
11 6 l-6 22 141 0 c126 0 140 -2 132 -16 -7 -13 -542 -275 -593 -291 -12 -3
-27 13 -53 56 -104 170 -129 285 -84 382 14 30 48 82 77 116 l52 63 42 -22
c23 -11 156 -74 296 -139z m-628 -69 l99 0 0 -59 0 -58 -115 -7 c-64 -4 -122
-9 -130 -12 -12 -5 -15 7 -15 71 l0 78 31 -7 c17 -3 76 -6 130 -6z"/>
<path d="M505 414 c-77 -36 -146 -68 -152 -71 -15 -6 -16 -13 -4 -32 10 -15 3
-18 183 83 114 63 146 86 120 86 -4 0 -70 -30 -147 -66z"/>
</g>
</svg>
