<?xml version="1.0" standalone="no"?>
<!DOCTYPE svg PUBLIC "-//W3C//DTD SVG 20010904//EN"
 "http://www.w3.org/TR/2001/REC-SVG-20010904/DTD/svg10.dtd">
<svg version="1.0" xmlns="http://www.w3.org/2000/svg"
 width="193.000000pt" height="129.000000pt" viewBox="0 0 193.000000 129.000000"
 preserveAspectRatio="xMidYMid meet">
<metadata>
Created by potrace 1.16, written by Peter Selinger 2001-2019
</metadata>
<g transform="translate(0.000000,129.000000) scale(0.100000,-0.100000)"
fill="#000000" stroke="none">
<path d="M714 926 c-34 -34 -73 -85 -86 -111 l-25 -48 -152 2 -152 2 3 -113 4
-113 134 3 c74 2 142 6 151 8 12 3 20 -5 27 -26 23 -65 146 -230 172 -230 7 0
146 68 309 151 l296 152 113 -52 c123 -55 122 -55 122 -43 0 8 -230 132 -244
132 -3 0 -6 -6 -6 -13 0 -7 -64 -43 -142 -80 l-143 -67 -13 58 c-11 44 -11 68
-3 105 6 27 11 73 11 104 0 41 3 54 13 50 7 -2 74 -33 149 -67 l137 -63 118
63 c131 69 129 68 121 76 -6 5 -223 -90 -245 -108 -9 -7 -23 -4 -45 10 -52 31
-545 282 -554 282 -4 0 -36 -29 -70 -64z m208 -41 c124 -60 136 -68 142 -96 9
-47 7 -94 -5 -141 -9 -34 -9 -56 3 -110 l16 -66 -150 -71 -149 -71 -20 22
c-33 40 -117 221 -128 277 -13 63 -3 113 37 181 20 36 108 140 117 140 1 0 63
-29 137 -65z m-332 -209 c0 -35 3 -71 6 -80 5 -14 -9 -16 -122 -16 -71 0 -134
4 -141 8 -7 5 -9 29 -6 74 l6 67 71 4 c39 1 97 4 129 5 l57 2 0 -64z"/>
<path d="M860 802 c-42 -21 -59 -60 -42 -97 13 -29 79 -62 94 -47 12 12 6 154
-7 159 -5 1 -26 -5 -45 -15z m15 -66 c0 -58 -2 -63 -17 -55 -19 10 -38 40 -38
59 0 9 44 60 52 60 2 0 3 -29 3 -64z"/>
<path d="M987 760 c3 -36 1 -77 -7 -104 -10 -36 -10 -59 0 -109 15 -83 34
-112 23 -37 -9 63 -8 98 2 192 8 69 2 118 -15 118 -6 0 -7 -24 -3 -60z"/>
<path d="M733 714 c-37 -19 -59 -63 -45 -91 15 -28 44 -50 75 -57 l27 -6 0 85
c0 93 -2 96 -57 69z m14 -40 c-8 -26 -8 -43 0 -65 9 -22 8 -28 0 -23 -51 29
-61 70 -25 104 31 29 38 25 25 -16z"/>
<path d="M835 615 c-14 -13 -25 -35 -25 -49 0 -35 39 -76 75 -79 l30 -2 3 78
3 77 -31 0 c-19 0 -40 -9 -55 -25z m40 -54 c0 -53 -2 -58 -17 -50 -48 26 -40
100 12 108 3 1 5 -26 5 -58z"/>
<path d="M308 904 c-5 -4 -8 -14 -8 -22 0 -13 24 -14 176 -9 160 5 195 9 183
21 -8 8 -344 18 -351 10z"/>
<path d="M308 445 c-5 -5 -8 -15 -8 -23 0 -13 24 -14 177 -8 166 6 193 9 182
21 -9 8 -344 18 -351 10z"/>
</g>
</svg>
