<?xml version="1.0" standalone="no"?>
<!DOCTYPE svg PUBLIC "-//W3C//DTD SVG 20010904//EN"
 "http://www.w3.org/TR/2001/REC-SVG-20010904/DTD/svg10.dtd">
<svg version="1.0" xmlns="http://www.w3.org/2000/svg"
 width="205.000000pt" height="140.000000pt" viewBox="0 0 205.000000 140.000000"
 preserveAspectRatio="xMidYMid meet">
<metadata>
Created by potrace 1.16, written by Peter Selinger 2001-2019
</metadata>
<g transform="translate(0.000000,140.000000) scale(0.100000,-0.100000)"
fill="#000000" stroke="none">
<path d="M754 1087 c-6 -7 -28 -35 -49 -63 -20 -27 -39 -51 -40 -52 -6 -6
-308 -2 -332 5 -19 4 -23 1 -23 -20 l0 -26 113 5 c61 2 138 6 170 8 42 3 57 1
54 -7 -2 -7 -15 -40 -27 -75 l-23 -62 -146 2 c-170 3 -157 15 -146 -130 l7
-95 153 6 152 7 13 -43 c7 -23 21 -59 32 -81 l20 -39 -186 8 -186 7 0 -23 0
-22 189 6 189 5 37 -55 c20 -30 39 -53 41 -50 3 3 -11 37 -31 76 -51 102 -95
241 -102 321 -8 89 20 179 86 282 l50 78 293 -146 c161 -80 301 -153 310 -161
15 -14 26 -11 105 33 79 43 262 150 272 160 2 2 2 7 -2 10 -3 3 -90 -35 -192
-85 l-187 -92 -172 94 c-198 109 -421 227 -427 227 -2 -1 -9 -6 -15 -13z
m-156 -373 c1 -36 4 -75 8 -87 6 -19 4 -20 -62 -14 -38 4 -102 7 -141 7 l-73
0 0 75 0 74 108 4 c59 1 119 4 133 5 26 2 26 1 27 -64z"/>
<path d="M810 821 l0 -50 -62 -3 -63 -3 -3 -95 c-1 -66 1 -90 8 -80 5 8 10 27
10 43 0 26 2 27 55 27 l55 0 0 -56 0 -55 38 3 37 3 5 55 5 55 78 3 77 3 0 -38
c0 -69 9 -84 44 -81 30 3 31 4 34 61 l3 57 34 0 c19 0 35 5 35 10 0 6 -16 10
-36 10 -33 0 -35 2 -32 28 2 22 8 28 36 30 39 4 33 22 -9 22 -28 0 -29 1 -29
51 l0 50 -37 -3 c-38 -3 -38 -3 -41 -50 l-3 -48 -79 0 -79 0 -3 48 c-3 47 -3
47 -40 50 l-38 3 0 -50z m58 -111 c0 -131 -1 -140 -19 -140 -18 0 -19 9 -19
140 0 131 1 140 19 140 18 0 19 -9 19 -140z m243 23 c0 -65 2 -128 3 -140 2
-18 -2 -23 -21 -23 -21 0 -23 4 -23 50 0 41 3 50 18 51 16 1 16 2 0 6 -13 3
-18 15 -18 39 0 26 4 34 18 34 16 1 16 1 0 11 -12 7 -18 22 -18 49 0 33 3 40
20 40 19 0 20 -7 21 -117z m-301 -18 l0 -35 -55 0 -55 0 0 35 0 35 55 0 55 0
0 -35z m240 -1 l0 -37 -46 7 c-26 3 -62 6 -80 6 -31 0 -34 3 -34 30 l0 30 80
0 80 0 0 -36z"/>
<path d="M1375 671 c-4 -13 -65 -50 -173 -107 -159 -82 -422 -223 -431 -231
-3 -2 2 -10 10 -17 16 -16 0 -24 386 201 l212 123 132 -65 c169 -85 239 -116
239 -105 0 8 -165 108 -302 183 -63 35 -67 36 -73 18z"/>
</g>
</svg>
