<?xml version="1.0" standalone="no"?>
<!DOCTYPE svg PUBLIC "-//W3C//DTD SVG 20010904//EN"
 "http://www.w3.org/TR/2001/REC-SVG-20010904/DTD/svg10.dtd">
<svg version="1.0" xmlns="http://www.w3.org/2000/svg"
 width="177.000000pt" height="159.000000pt" viewBox="0 0 177.000000 159.000000"
 preserveAspectRatio="xMidYMid meet">
<metadata>
Created by potrace 1.16, written by Peter Selinger 2001-2019
</metadata>
<g transform="translate(0.000000,159.000000) scale(0.100000,-0.100000)"
fill="#000000" stroke="none">
<path d="M694 1279 c-4 -7 -6 -43 -5 -80 l2 -69 -196 0 -197 0 4 -310 3 -310
198 0 197 0 0 -105 c0 -87 3 -105 15 -105 16 0 251 154 568 373 152 104 186
132 175 142 -26 23 -740 475 -752 475 -3 0 -8 -5 -12 -11z m95 -93 c8 -9 2
-20 -18 -40 -33 -31 -48 -22 -35 22 4 15 7 30 6 33 -2 11 36 -2 47 -15z m72
-41 c35 -20 39 -25 22 -25 -13 0 -23 5 -23 12 0 9 -3 9 -12 0 -7 -7 -28 -12
-47 -12 l-34 0 23 25 c13 14 24 25 26 25 1 0 22 -11 45 -25z m98 -60 c7 -7
-27 -48 -109 -130 l-120 -120 0 37 c0 33 8 45 85 119 47 45 85 87 85 93 0 6
-35 -24 -78 -67 -42 -42 -81 -77 -85 -77 -4 0 -7 13 -7 28 0 20 13 41 48 74
26 25 56 48 67 50 38 7 104 3 114 -7z m-269 -70 l0 -75 -172 6 c-95 4 -174 7
-175 8 -1 1 1 29 4 63 l6 62 141 3 c78 2 154 4 169 5 l27 3 0 -75z m110 72 c0
-2 -16 -18 -35 -37 l-35 -34 0 37 c0 36 1 37 35 37 19 0 35 -1 35 -3z m212
-31 c15 -11 1 -28 -133 -162 l-149 -149 0 40 c0 37 7 47 122 162 68 68 127
123 133 123 5 0 18 -6 27 -14z m54 -30 c18 -14 10 -25 -156 -191 -145 -145
-176 -172 -178 -154 -2 12 2 26 10 31 11 8 11 10 -1 15 -9 4 40 59 140 159 85
85 156 154 159 154 4 0 15 -7 26 -14z m74 -45 c0 -10 -405 -411 -415 -411 -4
0 -5 17 -2 37 6 32 33 64 188 219 169 169 184 181 206 171 12 -5 23 -13 23
-16z m40 -21 c8 -5 11 -13 7 -17 -4 -4 -94 -95 -200 -200 -176 -177 -195 -193
-227 -193 -34 0 -31 4 175 210 115 116 214 210 220 210 5 0 17 -4 25 -10z m52
-31 c19 -10 7 -25 -163 -195 -168 -169 -187 -184 -219 -184 -34 0 -32 3 160
195 107 107 196 195 198 195 2 0 13 -5 24 -11z m-542 -105 l0 -97 -67 6 c-38
4 -117 7 -176 7 l-108 0 3 83 3 82 130 5 c72 3 149 7 173 8 l42 2 0 -96z m623
60 c23 -15 44 -28 47 -31 8 -8 -236 -246 -287 -279 -49 -32 -83 -43 -83 -26 0
4 46 52 103 107 56 55 129 129 162 165 32 36 -20 -13 -116 -108 -159 -157
-178 -172 -207 -170 -18 1 -32 3 -32 3 0 3 365 365 368 365 1 0 21 -12 45 -26z
m121 -78 c1 -5 -10 -16 -24 -24 l-25 -16 20 24 c11 14 -1 7 -25 -16 -37 -34
-145 -105 -210 -139 -8 -4 34 42 95 103 l109 111 30 -17 c16 -9 30 -21 30 -26z
m-739 -139 c10 -67 3 -112 -17 -111 -10 0 -92 1 -183 2 l-165 2 0 58 c0 31 4
62 8 69 5 8 46 13 122 16 63 1 141 4 172 5 l57 2 6 -43z m280 -153 c-11 -9
-29 -20 -40 -26 -19 -11 -19 -10 -5 8 8 10 -8 -1 -36 -26 -29 -25 -79 -62
-112 -82 l-59 -36 -2 54 c-1 49 2 57 32 84 22 20 43 30 67 30 l34 0 -64 -65
c-35 -36 -59 -65 -53 -65 6 0 38 29 71 65 60 65 61 65 111 64 28 -1 54 1 58 4
3 4 9 7 12 7 3 0 -3 -8 -14 -16z m-227 -14 c-15 -23 -28 -26 -28 -6 0 8 8 17
18 19 9 3 18 5 20 6 1 0 -3 -8 -10 -19z"/>
</g>
</svg>
