<?xml version="1.0" standalone="no"?>
<!DOCTYPE svg PUBLIC "-//W3C//DTD SVG 20010904//EN"
 "http://www.w3.org/TR/2001/REC-SVG-20010904/DTD/svg10.dtd">
<svg version="1.0" xmlns="http://www.w3.org/2000/svg"
 width="265.000000pt" height="376.000000pt" viewBox="0 0 265.000000 376.000000"
 preserveAspectRatio="xMidYMid meet">
<metadata>
Created by potrace 1.16, written by Peter Selinger 2001-2019
</metadata>
<g transform="translate(0.000000,376.000000) scale(0.100000,-0.100000)"
fill="#000000" stroke="none">
<path d="M1343 3449 c-8 -8 -10 -48 -6 -130 4 -69 2 -119 -3 -119 -5 0 -52 25
-104 55 -52 30 -98 55 -102 55 -5 0 -8 -54 -8 -119 0 -88 3 -120 13 -124 7 -3
53 19 103 49 49 29 92 53 97 54 4 0 7 -103 7 -230 l0 -230 -64 39 c-66 41
-141 81 -151 81 -3 0 -5 -54 -5 -120 0 -145 -3 -143 128 -66 64 38 92 50 93
40 1 -8 3 -18 4 -24 1 -5 3 -51 4 -102 0 -50 3 -89 5 -87 4 5 15 102 16 137 0
23 0 23 40 -8 l40 -32 -22 -18 c-18 -14 -20 -20 -10 -33 10 -12 7 -16 -20 -22
-22 -5 -27 -9 -16 -12 28 -7 202 44 276 81 85 43 123 87 161 186 36 93 64 208
54 223 -4 7 -6 20 -5 29 4 24 -25 131 -52 191 -47 108 -110 151 -331 227 -132
45 -127 44 -142 29z m61 -63 c-3 -7 6 -23 20 -34 24 -18 24 -20 8 -34 -54 -45
-52 -46 -52 21 0 47 3 61 15 61 8 0 12 -6 9 -14z m87 -29 c-8 -8 -17 -5 -34
11 l-22 23 33 -12 c24 -8 30 -15 23 -22z m112 -28 c42 -17 77 -35 77 -39 0
-10 -46 -40 -61 -40 -10 0 -64 39 -113 81 -9 8 0 29 12 29 4 0 42 -14 85 -31z
m-72 -56 l62 -47 -29 -23 c-47 -37 -59 -37 -114 4 -29 21 -57 37 -63 35 -7 -1
8 16 33 38 25 21 46 40 47 40 2 0 30 -21 64 -47z m267 -112 c40 -74 66 -162
51 -172 -6 -3 -17 -37 -25 -75 -15 -71 -35 -111 -59 -120 -13 -5 -95 52 -95
66 0 13 92 75 107 72 9 -2 12 1 8 8 -4 6 1 18 11 26 18 15 18 15 -1 9 -11 -4
-23 -7 -26 -8 -9 -3 -99 65 -99 73 0 9 77 70 88 70 5 0 15 -7 22 -15 7 -8 20
-15 29 -15 11 1 8 7 -12 21 -15 11 -25 25 -21 30 3 5 -2 9 -11 9 -16 0 -125
79 -125 90 0 3 15 15 32 27 l32 23 32 -31 c18 -18 46 -57 62 -88z m-561 66
l82 -42 -89 -46 -90 -46 0 89 c0 48 3 88 8 87 4 0 44 -19 89 -42z m199 -49
c24 -17 44 -32 44 -33 0 -4 -89 -65 -94 -65 -3 0 -6 29 -6 65 0 36 3 65 6 65
3 0 26 -14 50 -32z m245 -12 l60 -44 -45 -31 c-24 -17 -48 -31 -52 -31 -6 0
-65 45 -107 80 -7 6 67 70 80 70 2 0 31 -20 64 -44z m-123 -78 c25 -18 51 -36
57 -40 10 -7 -4 -20 -66 -61 -27 -17 -27 -17 -80 24 l-53 42 40 33 c21 19 43
34 47 34 5 0 29 -15 55 -32z m-118 -95 c28 -21 50 -40 50 -44 0 -11 -96 -79
-110 -79 -10 0 -11 19 -7 78 4 42 6 78 7 80 1 7 15 -2 60 -35z m264 -9 l48
-36 -52 -35 c-58 -39 -65 -38 -124 13 -27 24 -28 26 -10 38 11 8 30 23 44 35
33 27 37 26 94 -15z m-104 -106 c13 -10 22 -19 19 -21 -2 -2 -29 -22 -60 -45
l-56 -40 -43 37 -43 37 53 42 c58 47 51 47 130 -10z m96 -69 l45 -31 -61 -45
-62 -45 -40 29 c-21 15 -40 31 -41 34 -2 8 94 88 106 89 5 0 29 -14 53 -31z
m-261 -21 l46 -33 -25 -18 c-63 -46 -71 -55 -59 -68 10 -10 22 -4 59 26 l46
38 34 -18 c61 -33 60 -39 -5 -89 l-60 -47 -50 38 -50 38 0 83 c-1 47 3 82 9
82 5 0 30 -15 55 -32z m-197 -41 l82 -42 -85 -43 c-47 -23 -87 -42 -90 -42 -3
0 -5 38 -5 85 0 47 3 85 8 84 4 0 44 -19 90 -42z m540 12 c-14 -40 -70 -124
-83 -124 -5 0 -21 8 -34 17 l-25 17 25 20 c13 10 47 37 74 59 28 23 51 41 52
42 1 0 -3 -14 -9 -31z m-119 -128 l23 -18 -74 -38 c-67 -35 -109 -42 -107 -18
1 13 103 92 119 92 8 0 26 -8 39 -18z m-166 -101 c-4 -4 -19 -11 -33 -14 l-25
-7 24 20 c21 19 54 19 34 1z"/>
<path d="M423 2693 c-10 -4 -13 -82 -13 -344 l0 -339 163 0 c210 0 408 11 401
22 -3 4 -126 8 -275 8 l-269 0 0 34 c0 18 3 47 6 64 l6 30 256 2 c140 0 262 4
270 9 19 11 -161 21 -365 21 l-163 0 0 93 c0 50 3 109 6 130 l7 37 241 1 c132
1 252 4 266 8 36 10 -138 21 -342 21 l-168 0 0 35 0 35 98 0 c177 0 431 13
426 22 -3 4 -78 8 -167 8 -89 0 -206 3 -259 7 l-98 6 0 34 0 33 198 0 c108 0
229 3 267 7 l70 7 -45 7 c-51 8 -498 10 -517 2z"/>
<path d="M560 2340 l0 -23 291 6 c267 6 310 9 298 21 -2 2 -136 8 -296 12
l-293 7 0 -23z"/>
<path d="M694 1279 c-4 -7 -6 -43 -5 -80 l2 -69 -196 0 -197 0 4 -310 3 -310
198 0 197 0 0 -105 c0 -87 3 -105 15 -105 30 0 761 499 748 510 -21 20 -748
480 -758 480 -2 0 -7 -5 -11 -11z m90 -90 c26 -15 36 -28 36 -46 0 -22 -3 -24
-42 -21 -42 3 -43 4 -44 38 -1 34 3 50 11 50 2 0 20 -9 39 -21z m101 -59 c3
-5 1 -10 -4 -10 -6 0 -11 5 -11 10 0 6 2 10 4 10 3 0 8 -4 11 -10z m63 -112
l3 -78 -41 0 -40 0 0 74 c0 79 5 86 50 83 24 -2 25 -5 28 -79z m-258 2 l0 -70
-176 0 -177 0 7 38 c3 20 6 49 6 64 l0 28 168 3 c92 1 168 4 170 5 1 1 2 -29
2 -68z m133 4 c4 -37 4 -71 1 -75 -3 -5 -25 -9 -50 -9 l-44 0 0 75 0 75 44 0
43 0 6 -66z m224 11 c38 -23 43 -30 43 -63 l0 -37 -50 3 -50 4 0 59 c0 32 3
59 7 59 3 0 26 -11 50 -25z m138 -80 l40 -24 -47 -1 c-45 0 -48 2 -48 25 0 31
5 31 55 0z m43 -139 l3 -99 -32 7 c-17 3 -42 6 -55 6 -23 0 -24 4 -24 59 0 93
8 119 39 124 66 11 66 11 69 -97z m-398 -3 c0 -84 0 -85 -22 -79 -13 3 -35 6
-50 6 l-28 0 0 79 0 80 43 3 c23 2 45 2 50 0 4 -2 7 -42 7 -89z m120 53 c0
-24 3 -64 6 -90 l7 -46 -52 0 -51 0 0 38 c0 20 3 61 6 90 l7 52 38 0 39 0 0
-44z m140 0 c0 -24 3 -64 6 -90 l7 -46 -63 0 c-53 0 -61 2 -56 16 3 9 6 49 6
90 l0 74 50 0 50 0 0 -44z m268 -11 c54 -31 80 -51 74 -57 -6 -6 -38 -27 -72
-47 -43 -26 -70 -36 -87 -33 -24 5 -25 7 -19 56 3 28 6 70 6 94 0 24 3 41 8
39 4 -2 44 -26 90 -52z m-668 -35 l0 -80 -175 0 -175 0 0 73 c0 41 3 77 7 80
3 4 82 7 175 7 l168 0 0 -80z m540 -129 c0 -16 -82 -81 -103 -81 -4 0 -7 20
-7 44 0 43 1 45 33 49 71 9 77 8 77 -12z m45 9 c-3 -5 -10 -10 -16 -10 -5 0
-9 5 -9 10 0 6 7 10 16 10 8 0 12 -4 9 -10z m-445 -75 l0 -75 -56 0 -57 0 7
67 c4 36 9 70 12 75 3 4 25 8 50 8 l44 0 0 -75z m130 -6 l0 -82 -37 7 c-21 3
-44 6 -50 6 -9 0 -13 22 -13 75 l0 75 50 0 50 0 0 -81z m140 26 c0 -53 -1 -56
-40 -80 -22 -14 -49 -25 -60 -25 -18 0 -20 6 -20 80 l0 80 60 0 60 0 0 -55z
m-406 -17 c3 -34 3 -64 -1 -67 -5 -4 -88 -5 -185 -3 l-178 3 0 58 c0 32 3 61
7 64 3 4 84 7 178 7 l172 0 7 -62z m137 -110 c0 -2 2 -23 5 -48 l5 -45 -61
-37 -60 -37 0 79 c0 66 3 79 18 83 19 5 92 9 93 5z m129 -7 c0 -8 -93 -71
-105 -71 -7 0 -6 45 1 64 4 12 20 16 55 16 27 0 49 -4 49 -9z"/>
<path d="M1598 1230 c-16 -10 -18 -33 -18 -254 0 -133 3 -324 7 -424 l6 -182
236 5 c130 3 261 8 291 12 l55 7 -50 7 c-27 4 -155 8 -282 8 l-233 1 0 40 0
40 203 0 c112 0 239 3 282 7 141 12 48 22 -224 24 l-261 2 0 39 0 38 173 0
c201 0 387 10 387 20 0 4 -124 11 -275 15 l-275 7 0 32 0 31 218 3 c119 1 244
6 277 9 l60 7 -40 7 c-22 4 -147 8 -277 8 l-238 1 0 40 0 40 83 0 c119 0 461
12 466 16 14 13 -36 17 -278 22 l-271 5 0 27 0 28 248 6 c136 4 261 11 277 15
28 8 27 9 -17 11 -27 1 -52 4 -58 5 -5 1 -109 3 -230 4 l-220 1 0 24 0 23 273
7 c149 5 274 10 276 12 13 13 -34 17 -278 22 l-271 5 0 28 0 29 163 0 c194 0
387 10 387 20 0 4 -121 11 -270 15 l-270 7 0 23 0 22 266 6 c246 6 285 9 273
22 -3 2 -128 7 -279 10 -193 4 -280 3 -292 -5z"/>
<path d="M1746 802 c-3 -3 -6 -14 -6 -24 0 -19 8 -19 263 -13 144 4 282 11
307 15 l45 7 -45 6 c-61 8 -557 17 -564 9z"/>
</g>
</svg>
