<?xml version="1.0" standalone="no"?>
<!DOCTYPE svg PUBLIC "-//W3C//DTD SVG 20010904//EN"
 "http://www.w3.org/TR/2001/REC-SVG-20010904/DTD/svg10.dtd">
<svg version="1.0" xmlns="http://www.w3.org/2000/svg"
 width="177.000000pt" height="159.000000pt" viewBox="0 0 177.000000 159.000000"
 preserveAspectRatio="xMidYMid meet">
<metadata>
Created by potrace 1.16, written by Peter Selinger 2001-2019
</metadata>
<g transform="translate(0.000000,159.000000) scale(0.100000,-0.100000)"
fill="#000000" stroke="none">
<path d="M694 1279 c-4 -7 -6 -44 -5 -84 l2 -71 -196 4 -196 5 3 -113 2 -113
193 5 193 6 0 -90 0 -90 -195 7 -196 7 2 -117 3 -118 198 8 198 7 0 -116 c0
-97 2 -116 15 -116 16 0 215 130 553 363 165 113 201 142 190 152 -7 6 -130
86 -273 177 -377 239 -472 298 -478 298 -3 0 -9 -5 -13 -11z m254 -185 c108
-63 201 -119 206 -124 5 -5 -27 -26 -71 -48 l-79 -40 -94 53 c-52 29 -98 51
-102 49 -19 -12 -3 -26 77 -69 47 -26 85 -48 85 -51 0 -2 -21 -14 -47 -28
l-47 -24 -53 30 c-29 16 -57 27 -63 23 -15 -10 -3 -23 43 -46 l41 -21 -37 -23
c-47 -28 -50 -31 -42 -45 4 -7 24 -1 58 19 l52 29 52 -27 53 -26 -90 -48 c-50
-27 -90 -55 -90 -63 0 -8 3 -14 7 -14 4 0 51 25 105 55 l97 56 76 -42 c42 -23
75 -42 73 -44 -2 -1 -75 -47 -163 -102 -88 -55 -186 -116 -218 -137 l-57 -37
5 388 c6 367 10 473 21 473 2 0 93 -52 202 -116z m-258 -74 l0 -80 -177 7
c-98 3 -180 7 -181 9 -2 1 -1 32 3 68 l7 65 112 4 c61 1 139 4 174 5 l62 2 0
-80z m667 -162 l91 -54 -134 -82 -135 -83 -64 36 c-35 19 -67 39 -70 44 -3 5
16 21 41 36 l47 28 46 -24 c25 -13 49 -25 54 -27 4 -2 7 1 7 6 0 6 -8 13 -17
16 -10 4 -29 15 -42 25 l-24 18 42 23 c60 34 50 44 -13 13 l-54 -26 -52 30
-52 30 79 45 78 46 40 -23 c22 -13 81 -48 132 -77z m-296 -37 l50 -28 -53 -28
-54 -28 -48 30 -48 30 44 26 c24 14 47 26 51 27 4 0 30 -13 58 -29z m-367
-138 c3 -21 6 -60 6 -87 l0 -48 -31 6 c-17 3 -101 6 -186 6 l-155 0 7 68 c4
37 8 68 9 69 1 2 72 7 157 11 85 5 161 10 170 11 12 1 18 -10 23 -36z"/>
</g>
</svg>
