<?xml version="1.0" standalone="no"?>
<!DOCTYPE svg PUBLIC "-//W3C//DTD SVG 20010904//EN"
 "http://www.w3.org/TR/2001/REC-SVG-20010904/DTD/svg10.dtd">
<svg version="1.0" xmlns="http://www.w3.org/2000/svg"
 width="252.000000pt" height="219.000000pt" viewBox="0 0 252.000000 219.000000"
 preserveAspectRatio="xMidYMid meet">
<metadata>
Created by potrace 1.16, written by Peter Selinger 2001-2019
</metadata>
<g transform="translate(0.000000,219.000000) scale(0.100000,-0.100000)"
fill="#000000" stroke="none">
<path d="M385 1880 c-7 -11 57 -101 174 -245 89 -111 86 -106 70 -99 -8 3 -67
73 -132 155 -103 130 -137 162 -137 130 0 -5 50 -66 110 -137 61 -71 110 -132
110 -136 0 -29 -32 0 -125 117 -96 119 -125 146 -125 115 0 -19 259 -314 268
-306 3 3 -1 13 -9 22 -13 16 -12 16 9 5 19 -10 23 -19 20 -49 -2 -23 -9 -38
-18 -40 -18 -3 -54 55 -37 61 14 4 -221 247 -239 247 -28 0 -12 -21 91 -117
62 -58 103 -103 100 -111 -3 -7 0 -23 6 -35 11 -20 9 -20 -17 4 -157 139 -186
161 -195 152 -7 -7 26 -41 109 -110 93 -76 132 -116 171 -175 56 -83 104 -127
174 -158 47 -21 263 -39 467 -40 l95 -1 -35 -32 c-19 -17 -64 -58 -100 -90
-60 -54 -63 -58 -47 -74 16 -16 23 -12 116 81 l98 98 27 -17 c29 -19 34 -11 9
17 -15 17 -13 18 63 18 l79 0 -50 -42 c-27 -24 -75 -66 -105 -94 -48 -46 -53
-54 -40 -69 12 -15 24 -6 117 87 93 93 105 102 123 90 25 -15 38 -16 22 0 -21
21 -13 26 43 26 54 -1 68 -9 41 -25 -23 -12 -176 -153 -176 -161 0 -4 5 -14
10 -22 8 -12 30 5 115 90 95 95 107 104 125 92 27 -16 35 -15 20 3 -11 13 14
15 214 15 144 0 226 4 226 10 0 6 -54 10 -142 10 -79 0 -180 3 -225 6 -69 6
-80 9 -75 23 5 14 3 14 -14 -1 -19 -17 -23 -14 -124 87 -80 80 -107 102 -117
93 -7 -6 -13 -15 -13 -20 0 -10 95 -100 156 -149 l37 -29 -53 0 c-42 0 -51 3
-46 15 7 20 -8 19 -25 -1 -11 -13 -26 -2 -115 87 -74 74 -107 100 -119 95 -27
-10 -14 -29 78 -111 48 -43 86 -79 85 -80 -2 -1 -26 1 -55 3 -40 3 -50 7 -46
18 4 12 0 11 -23 -2 l-29 -16 -99 97 c-91 88 -100 95 -115 80 -17 -17 -12 -24
112 -132 l48 -41 -138 4 c-76 3 -148 7 -159 10 -13 2 -49 41 -88 93 -67 90
-189 214 -229 232 -12 6 -29 23 -37 40 -20 39 -243 348 -252 349 -4 0 -10 -5
-13 -10z m305 -450 c0 -15 -7 -20 -25 -20 -25 0 -31 13 -19 44 8 22 44 2 44
-24z m65 -48 c-3 -8 -5 -20 -5 -28 0 -8 -10 -14 -24 -14 -19 0 -22 4 -18 25 2
14 11 25 19 25 13 0 13 2 2 17 -13 15 -12 15 9 2 12 -8 20 -20 17 -27z m-75
-17 c0 -14 -4 -25 -9 -25 -5 0 -16 -3 -25 -6 -12 -5 -16 0 -16 19 0 24 11 35
38 36 6 1 12 -10 12 -24z m252 -159 l22 -29 -69 7 c-71 7 -135 28 -135 45 0 5
25 13 55 16 64 8 64 25 -1 25 -38 0 -44 3 -44 20 0 12 10 24 23 30 17 7 18 9
5 9 -18 1 -24 21 -11 35 7 7 110 -97 155 -158z m-251 92 c0 -10 2 -10 6 0 2 6
16 12 29 12 17 0 24 -6 24 -20 0 -11 -4 -20 -9 -20 -5 0 -15 -2 -23 -5 -7 -2
-21 7 -31 20 -10 14 -13 25 -7 25 5 0 10 -6 11 -12z"/>
<path d="M385 1260 c-3 -5 -3 -16 1 -22 9 -15 168 -219 223 -287 20 -24 31
-42 25 -40 -6 2 -66 73 -134 157 -107 134 -140 165 -140 132 0 -5 50 -66 110
-136 101 -117 125 -154 101 -154 -7 0 -71 76 -213 254 -15 19 -17 19 -23 4 -5
-13 24 -54 111 -154 66 -75 125 -143 131 -152 7 -9 16 -13 19 -9 4 4 1 14 -7
23 -13 16 -12 16 9 5 19 -10 23 -19 20 -49 -2 -23 -9 -38 -18 -40 -19 -3 -56
54 -39 60 15 5 -218 248 -237 248 -28 0 -12 -20 92 -118 59 -55 103 -105 100
-111 -4 -6 -2 -21 5 -33 l12 -23 -24 21 c-13 11 -61 53 -107 94 -58 51 -86 70
-93 63 -10 -10 97 -107 202 -185 16 -13 43 -46 59 -74 48 -83 105 -140 174
-174 57 -28 76 -32 207 -40 79 -5 195 -10 257 -10 61 0 112 -3 112 -7 -1 -5
-16 -19 -34 -33 -19 -14 -62 -52 -96 -84 -58 -53 -62 -59 -46 -74 15 -15 23
-9 116 83 98 98 99 99 120 80 26 -24 39 -11 14 16 l-18 21 72 -3 c40 -2 71 -6
70 -9 -2 -3 -45 -43 -95 -89 -51 -45 -93 -87 -93 -92 0 -5 7 -12 16 -16 11 -4
46 24 115 93 90 89 101 98 119 86 27 -16 35 -15 20 3 -11 13 -5 15 45 15 32 0
56 -2 54 -3 -71 -58 -189 -172 -189 -183 0 -33 41 -8 132 83 89 88 100 97 118
85 27 -16 35 -15 20 3 -11 13 14 15 214 15 144 0 226 4 226 10 0 6 -56 10
-148 10 -82 0 -183 3 -225 6 -63 6 -74 9 -69 23 5 14 2 13 -15 -2 -19 -17 -22
-15 -123 88 -99 100 -105 104 -122 88 -18 -16 -16 -19 44 -73 35 -31 79 -71
98 -88 l35 -31 -49 -1 c-39 0 -47 3 -42 15 7 20 -8 19 -25 -1 -11 -13 -26 -2
-116 88 -97 96 -104 101 -120 85 -16 -16 -13 -20 43 -70 141 -127 132 -117
104 -113 -14 3 -40 5 -58 5 -19 1 -31 5 -27 11 3 6 2 10 -4 10 -5 0 -13 -4
-16 -10 -14 -22 -40 -6 -132 85 -75 75 -99 93 -110 84 -7 -6 -13 -15 -13 -19
0 -4 39 -43 87 -86 l87 -77 -69 6 c-39 4 -109 7 -157 7 l-86 0 -80 103 c-83
107 -165 190 -219 222 -18 11 -33 23 -33 28 0 13 -255 367 -265 367 -2 0 -7
-4 -10 -10z m305 -450 c0 -15 -7 -20 -25 -20 -25 0 -31 13 -19 44 8 22 44 2
44 -24z m45 -20 c3 -5 1 -10 -4 -10 -6 0 -11 5 -11 10 0 6 2 10 4 10 3 0 8 -4
11 -10z m19 -37 c-9 -39 -12 -42 -32 -36 -23 6 -18 50 7 56 30 8 31 7 25 -20z
m-74 -7 c0 -26 -39 -44 -51 -24 -11 17 0 36 24 41 12 2 23 5 25 6 1 0 2 -10 2
-23z m259 -169 c14 -20 13 -20 -52 -14 -68 6 -137 29 -137 45 0 5 25 13 57 17
62 8 56 25 -9 25 -30 0 -38 4 -38 18 0 11 10 24 23 30 17 8 18 11 5 11 -18 1
-24 21 -11 35 6 6 128 -119 162 -167z m-258 101 c0 -10 2 -10 6 0 2 6 16 12
29 12 32 0 33 -35 2 -43 -22 -6 -58 16 -58 35 0 13 20 9 21 -4z"/>
</g>
</svg>
