<?xml version="1.0" standalone="no"?>
<!DOCTYPE svg PUBLIC "-//W3C//DTD SVG 20010904//EN"
 "http://www.w3.org/TR/2001/REC-SVG-20010904/DTD/svg10.dtd">
<svg version="1.0" xmlns="http://www.w3.org/2000/svg"
 width="164.000000pt" height="152.000000pt" viewBox="0 0 164.000000 152.000000"
 preserveAspectRatio="xMidYMid meet">
<metadata>
Created by potrace 1.16, written by Peter Selinger 2001-2019
</metadata>
<g transform="translate(0.000000,152.000000) scale(0.100000,-0.100000)"
fill="#000000" stroke="none">
<path d="M440 1194 c-52 -14 -105 -28 -118 -31 -13 -3 -21 -11 -19 -17 5 -14
3 -14 119 8 168 32 278 13 278 -47 0 -11 -15 -54 -34 -96 -84 -186 -68 -283
45 -268 35 5 40 3 34 -11 -12 -29 -17 -146 -6 -161 12 -19 64 2 91 37 23 28
21 29 43 -16 12 -24 13 -40 6 -65 -12 -42 -12 -67 1 -67 6 0 10 9 10 19 0 11
3 27 7 37 14 37 20 -20 7 -68 -7 -27 -8 -50 -4 -53 10 -6 15 1 25 40 7 28 8
29 15 8 5 -13 3 -42 -6 -75 -17 -63 -17 -68 -4 -68 5 0 14 19 20 43 22 85 16
80 70 52 56 -28 60 -29 60 -14 0 5 -21 19 -47 31 -44 18 -82 52 -83 71 0 4 13
1 30 -8 33 -17 50 -19 50 -6 0 5 -19 17 -43 26 -24 9 -48 25 -55 36 -15 23
-12 23 33 5 26 -11 35 -12 35 -3 0 7 -20 20 -45 30 -25 11 -45 25 -45 33 0 8
-4 14 -10 14 -5 0 -10 5 -10 10 0 7 6 7 19 0 31 -16 112 -11 156 9 22 10 60
36 85 58 l44 40 26 -37 c27 -40 88 -96 96 -88 2 3 -11 22 -30 43 -82 89 -89
164 -31 319 34 92 36 101 23 134 -16 43 -61 80 -80 65 -7 -6 -57 -29 -110 -51
-53 -22 -127 -60 -165 -84 l-68 -44 0 67 c0 64 -2 70 -34 103 -69 72 -208 86
-381 40z m306 -23 c98 -45 121 -171 49 -276 -13 -21 -27 -53 -31 -74 -4 -20
-11 -42 -17 -48 -15 -20 -65 -15 -88 8 -18 18 -21 29 -16 75 3 30 22 91 42
136 20 46 39 91 42 100 10 34 -7 69 -40 83 -30 13 -30 14 -7 14 14 0 43 -8 66
-18z m520 -99 c-9 -9 -56 40 -56 57 0 11 11 5 31 -17 17 -19 28 -36 25 -40z
m-36 -7 l30 -16 -16 -37 c-45 -101 -57 -142 -60 -202 -3 -61 -5 -67 -40 -97
-41 -36 -130 -73 -172 -72 -47 1 -97 24 -94 44 2 10 -1 14 -7 11 -6 -4 -25 23
-44 61 l-34 68 28 60 c33 72 53 89 224 177 l130 67 13 -24 c7 -14 26 -32 42
-40z m-421 -325 c11 -24 11 -24 -3 -6 -9 11 -16 24 -16 30 0 12 5 7 19 -24z
m11 -70 c20 0 9 -29 -19 -49 -16 -12 -32 -21 -35 -21 -8 0 -8 59 0 99 l7 32
18 -31 c10 -16 23 -30 29 -30z"/>
<path d="M919 931 c-17 -17 -29 -40 -29 -55 0 -37 16 -32 30 9 6 19 23 43 38
54 22 17 24 20 9 21 -10 0 -32 -13 -48 -29z"/>
<path d="M946 904 c-17 -17 -22 -59 -6 -49 6 3 10 11 10 17 0 6 7 20 17 30 20
22 1 24 -21 2z"/>
<path d="M972 880 c-13 -17 -21 -34 -18 -38 11 -10 48 34 44 53 -2 13 -8 10
-26 -15z"/>
<path d="M1040 598 c0 -13 51 -189 57 -197 5 -7 90 29 122 54 41 29 124 125
116 133 -3 3 -34 -22 -68 -56 -64 -63 -155 -113 -161 -89 -2 6 -11 47 -21 90
-11 52 -21 77 -31 77 -8 0 -14 -6 -14 -12z"/>
</g>
</svg>
