<?xml version="1.0" standalone="no"?>
<!DOCTYPE svg PUBLIC "-//W3C//DTD SVG 20010904//EN"
 "http://www.w3.org/TR/2001/REC-SVG-20010904/DTD/svg10.dtd">
<svg version="1.0" xmlns="http://www.w3.org/2000/svg"
 width="152.000000pt" height="162.000000pt" viewBox="0 0 152.000000 162.000000"
 preserveAspectRatio="xMidYMid meet">
<metadata>
Created by potrace 1.16, written by Peter Selinger 2001-2019
</metadata>
<g transform="translate(0.000000,162.000000) scale(0.100000,-0.100000)"
fill="#000000" stroke="none">
<path d="M566 1258 c-80 -88 -133 -170 -152 -236 -9 -31 -39 -108 -66 -171
-27 -62 -47 -116 -44 -119 3 -3 8 -3 10 -1 13 16 86 145 86 153 0 6 15 -25 33
-69 18 -44 58 -119 89 -167 31 -48 51 -85 44 -82 -9 3 -32 -36 -70 -121 -32
-70 -55 -130 -52 -133 3 -3 7 -3 9 -1 23 32 61 97 86 145 47 92 46 91 70 70
30 -27 26 -8 -10 44 -49 74 -81 140 -67 141 7 0 36 2 64 5 l51 5 7 -76 c5 -52
3 -81 -4 -91 -9 -10 2 -40 51 -134 35 -66 67 -120 72 -120 11 0 3 24 -52 156
l-47 110 7 160 c4 87 8 181 8 207 l1 49 44 -49 c55 -60 68 -53 22 12 -19 26
-32 54 -29 61 3 9 -2 14 -16 14 -19 0 -21 6 -21 88 0 48 -4 114 -8 147 -6 55
-9 60 -33 63 -21 2 -37 -9 -83 -60z m74 -55 l0 -68 -60 3 c-68 4 -69 -4 3 85
21 26 43 47 48 47 5 0 9 -30 9 -67z m10 -138 l0 -45 -95 0 c-104 0 -108 2 -74
56 20 34 21 34 95 34 l74 0 0 -45z m-2 -128 l3 -57 -100 0 -100 0 -6 33 c-11
68 -7 71 91 78 49 3 94 4 99 4 6 -1 11 -27 13 -58z m2 -137 l0 -60 -74 0 -74
0 -21 49 c-11 27 -21 52 -21 55 0 5 59 11 143 14 l47 2 0 -60z"/>
<path d="M998 1241 c-80 -84 -129 -167 -149 -246 -6 -27 -22 -70 -34 -95 -38
-75 -74 -170 -65 -170 4 0 29 35 54 78 40 67 47 74 52 54 12 -41 72 -160 112
-219 53 -80 57 -88 43 -79 -8 5 -29 -29 -65 -106 -62 -133 -68 -148 -57 -148
9 0 72 103 116 189 26 52 27 53 41 32 8 -11 19 -21 24 -21 5 0 -18 44 -51 98
l-60 97 38 7 c21 4 53 7 71 7 l32 1 0 -85 c0 -50 -4 -85 -10 -85 -11 0 104
-235 120 -245 5 -3 10 -2 10 3 0 9 -32 91 -74 191 l-28 64 8 211 7 210 43 -49
c49 -56 61 -41 15 20 -16 22 -27 45 -24 52 3 8 -3 13 -15 13 -20 0 -21 6 -21
124 -1 203 -20 217 -133 97z m88 -98 c-2 -2 -31 -3 -64 -1 l-61 3 57 68 57 68
8 -67 c4 -37 5 -69 3 -71z m4 -78 l0 -45 -95 0 c-52 0 -95 2 -95 5 0 3 9 24
20 45 l20 40 75 0 75 0 0 -45z m0 -125 l0 -61 -97 3 -98 3 -5 30 c-13 69 -7
74 94 78 50 1 94 4 99 5 4 1 7 -25 7 -58z m2 -139 l3 -61 -76 0 -76 0 -20 53
-20 52 36 5 c20 3 61 6 93 8 l56 3 4 -60z"/>
</g>
</svg>
