<?xml version="1.0" standalone="no"?>
<!DOCTYPE svg PUBLIC "-//W3C//DTD SVG 20010904//EN"
 "http://www.w3.org/TR/2001/REC-SVG-20010904/DTD/svg10.dtd">
<svg version="1.0" xmlns="http://www.w3.org/2000/svg"
 width="165.000000pt" height="131.000000pt" viewBox="0 0 165.000000 131.000000"
 preserveAspectRatio="xMidYMid meet">
<metadata>
Created by potrace 1.16, written by Peter Selinger 2001-2019
</metadata>
<g transform="translate(0.000000,131.000000) scale(0.100000,-0.100000)"
fill="#000000" stroke="none">
<path d="M746 995 c-6 -16 13 -26 169 -90 39 -16 73 -31 77 -35 4 -3 -51 -30
-122 -60 -72 -29 -130 -57 -130 -62 0 -24 39 -15 145 32 64 28 118 50 120 48
7 -8 12 -308 5 -308 -5 0 -64 25 -131 55 -89 40 -125 52 -130 43 -4 -7 -6 -15
-4 -18 2 -4 61 -31 130 -60 69 -29 124 -54 122 -56 -1 -2 -56 -26 -122 -54
-132 -57 -138 -60 -126 -78 5 -9 39 2 130 43 67 30 127 55 132 55 5 0 9 -34 9
-75 0 -103 19 -95 22 9 l3 84 145 -59 c80 -32 150 -57 155 -55 10 3 -219 116
-236 116 -20 0 -18 21 3 29 69 27 240 112 235 117 -3 3 -67 -19 -143 -50 -75
-31 -144 -56 -152 -56 -11 0 -13 7 -8 31 3 17 6 93 6 169 l0 138 147 -59 c80
-32 149 -57 151 -54 3 3 -55 34 -129 69 l-134 64 80 37 c44 20 105 48 135 62
106 48 33 33 -103 -22 -76 -30 -140 -55 -142 -55 -3 0 -5 6 -5 14 0 23 -22 31
-35 13 -10 -13 -25 -9 -133 39 -67 30 -124 54 -126 54 -2 0 -6 -7 -10 -15z"/>
<path d="M304 825 c-7 -18 -1 -282 6 -288 3 -2 79 1 170 8 110 8 169 9 178 3
6 -6 12 -7 13 -2 0 5 2 20 3 34 2 14 7 75 11 136 l6 111 -143 6 c-214 10 -238
9 -244 -8z m346 -125 c0 -112 -1 -126 -10 -123 -3 1 -74 5 -159 9 l-154 7 6
95 c4 52 8 96 9 98 2 1 66 6 143 12 77 5 146 10 153 11 9 1 12 -27 12 -109z"/>
</g>
</svg>
