<?xml version="1.0" standalone="no"?>
<!DOCTYPE svg PUBLIC "-//W3C//DTD SVG 20010904//EN"
 "http://www.w3.org/TR/2001/REC-SVG-20010904/DTD/svg10.dtd">
<svg version="1.0" xmlns="http://www.w3.org/2000/svg"
 width="150.000000pt" height="194.000000pt" viewBox="0 0 150.000000 194.000000"
 preserveAspectRatio="xMidYMid meet">
<metadata>
Created by potrace 1.16, written by Peter Selinger 2001-2019
</metadata>
<g transform="translate(0.000000,194.000000) scale(0.100000,-0.100000)"
fill="#000000" stroke="none">
<path d="M926 1563 c-71 -100 -165 -286 -196 -387 l-25 -79 -202 5 -203 5 0
-96 c0 -53 3 -113 7 -134 l6 -39 201 7 202 7 19 -43 c31 -68 105 -176 185
-267 74 -85 250 -246 259 -237 3 3 -28 36 -69 73 -87 79 -204 212 -253 285
-39 58 -101 176 -95 182 1 2 101 7 221 11 167 5 215 10 207 19 -6 8 -7 47 -2
111 5 54 7 101 6 103 -2 2 -99 6 -216 9 -117 2 -215 6 -217 8 -3 2 3 30 13 62
27 86 119 257 191 355 63 85 75 107 56 107 -5 0 -16 3 -24 6 -11 4 -32 -18
-71 -73z m232 -585 l3 -98 -158 1 c-87 0 -180 4 -208 7 l-50 7 0 85 0 85 180
6 c99 3 191 5 205 5 25 -1 25 -2 28 -98z m-459 12 c0 -44 3 -84 6 -90 4 -7
-59 -10 -184 -10 l-191 0 0 24 c0 12 3 51 6 84 l7 62 156 3 c86 1 166 4 178 5
21 2 22 -1 22 -78z"/>
</g>
</svg>
