<?xml version="1.0" standalone="no"?>
<!DOCTYPE svg PUBLIC "-//W3C//DTD SVG 20010904//EN"
 "http://www.w3.org/TR/2001/REC-SVG-20010904/DTD/svg10.dtd">
<svg version="1.0" xmlns="http://www.w3.org/2000/svg"
 width="173.000000pt" height="165.000000pt" viewBox="0 0 173.000000 165.000000"
 preserveAspectRatio="xMidYMid meet">
<metadata>
Created by potrace 1.16, written by Peter Selinger 2001-2019
</metadata>
<g transform="translate(0.000000,165.000000) scale(0.100000,-0.100000)"
fill="#000000" stroke="none">
<path d="M557 1343 c-4 -3 -7 -50 -7 -104 0 -115 8 -109 -147 -109 -89 0 -103
-2 -103 -17 0 -14 13 -15 129 -10 l128 7 2 -93 c2 -76 16 -177 26 -177 9 0
552 183 567 191 11 6 18 13 15 15 -3 4 -341 -86 -380 -101 -16 -7 -17 1 -12
116 3 68 5 145 5 170 l0 45 63 -7 c34 -4 166 -17 292 -29 127 -12 233 -25 236
-28 3 -4 14 -68 23 -142 32 -237 49 -203 24 48 l-12 122 -34 0 c-18 0 -102 11
-187 25 -120 19 -597 85 -618 85 -2 0 -7 -3 -10 -7z m151 -59 l32 -5 0 -69 0
-70 -80 0 -80 0 0 81 0 80 48 -6 c26 -3 62 -8 80 -11z m44 -234 c1 -38 2 -80
2 -92 1 -19 -10 -25 -74 -45 -41 -13 -81 -23 -87 -23 -10 0 -13 29 -13 109 l0
110 28 4 c15 2 53 5 85 6 l57 1 2 -70z"/>
<path d="M1193 1049 c-29 -29 -6 -147 34 -179 29 -23 114 -34 168 -22 39 8 38
8 -32 15 -77 6 -126 26 -138 54 -4 10 -10 46 -14 81 -5 51 -8 61 -18 51z"/>
<path d="M557 783 c-4 -3 -7 -50 -7 -104 l0 -97 -125 -7 c-102 -6 -125 -10
-125 -23 0 -13 17 -14 129 -8 l128 7 2 -94 c3 -130 9 -151 50 -155 28 -3 488
141 544 170 49 25 -8 15 -173 -31 -99 -28 -187 -51 -195 -51 -12 0 -13 27 -8
163 3 89 6 162 7 163 0 1 100 -9 221 -21 121 -13 255 -26 298 -30 l77 -7 0
-31 c0 -42 37 -277 44 -284 10 -10 7 82 -6 215 l-11 122 -31 0 c-17 0 -69 7
-116 15 -86 15 -664 95 -685 95 -7 0 -15 -3 -18 -7z m165 -59 c13 -4 17 -20
20 -70 1 -36 1 -68 -1 -70 -2 -2 -40 -4 -83 -4 l-78 0 0 81 0 81 63 -7 c34 -3
69 -9 79 -11z m30 -234 c1 -38 2 -80 2 -92 1 -18 -10 -25 -74 -45 -41 -12 -81
-23 -87 -23 -10 0 -13 28 -13 109 0 78 4 111 13 114 6 3 45 6 85 6 l72 1 2
-70z"/>
<path d="M1193 489 c-20 -20 -15 -91 10 -139 20 -41 26 -45 62 -47 l40 -3 -36
20 c-44 23 -50 36 -58 118 -5 51 -8 61 -18 51z"/>
</g>
</svg>
