<?xml version="1.0" standalone="no"?>
<!DOCTYPE svg PUBLIC "-//W3C//DTD SVG 20010904//EN"
 "http://www.w3.org/TR/2001/REC-SVG-20010904/DTD/svg10.dtd">
<svg version="1.0" xmlns="http://www.w3.org/2000/svg"
 width="212.000000pt" height="150.000000pt" viewBox="0 0 212.000000 150.000000"
 preserveAspectRatio="xMidYMid meet">
<metadata>
Created by potrace 1.16, written by Peter Selinger 2001-2019
</metadata>
<g transform="translate(0.000000,150.000000) scale(0.100000,-0.100000)"
fill="#000000" stroke="none">
<path d="M311 1191 c-11 -7 -12 -60 -7 -297 3 -159 9 -358 12 -442 l6 -154
113 4 112 3 7 134 c3 74 6 270 6 436 l0 302 -39 11 c-45 14 -190 16 -210 3z
m214 -480 l7 -384 -97 6 c-54 4 -98 8 -99 9 -1 2 3 186 8 409 l9 406 76 9 76
9 6 -40 c4 -22 10 -213 14 -424z"/>
<path d="M763 784 c3 -142 9 -270 13 -283 l7 -24 461 7 c382 7 645 18 563 25
-18 1 -18 13 -12 255 l8 253 -29 6 c-16 4 -251 9 -523 13 l-494 7 6 -259z
m991 189 c3 -21 6 -60 6 -87 l0 -49 -127 6 c-71 4 -213 7 -316 7 l-188 0 6 67
c3 37 7 68 8 69 1 2 124 6 272 10 149 3 272 8 274 10 2 2 16 4 31 4 24 0 28
-5 34 -37z m-924 -53 c0 -56 -3 -70 -15 -70 -12 0 -15 14 -15 70 0 56 3 70 15
70 12 0 15 -14 15 -70z m80 0 c0 -63 -2 -70 -20 -70 -18 0 -20 7 -20 70 0 63
2 70 20 70 18 0 20 -7 20 -70z m100 0 l0 -70 -30 0 -30 0 0 70 0 70 30 0 30 0
0 -70z m90 0 c0 -68 -1 -70 -25 -70 -24 0 -25 2 -25 70 0 68 1 70 25 70 24 0
25 -2 25 -70z m660 -176 l0 -77 -182 6 c-99 4 -241 7 -315 7 l-133 0 0 65 0
64 128 3 c70 2 211 4 315 6 l187 3 0 -77z m-920 1 c0 -63 -1 -65 -26 -65 -22
0 -25 3 -20 23 3 12 6 41 6 65 0 35 3 42 20 42 18 0 20 -7 20 -65z m74 19 c10
-77 9 -84 -19 -84 -24 0 -25 2 -25 65 0 57 2 65 19 65 14 0 20 -10 25 -46z
m96 4 c0 -24 3 -53 6 -65 6 -21 3 -23 -36 -23 -34 0 -41 3 -36 16 3 9 6 38 6
65 0 48 1 49 30 49 29 0 30 -2 30 -42z m90 -23 l0 -65 -31 0 -32 0 7 46 c3 26
6 55 6 65 0 14 7 19 25 19 24 0 25 -2 25 -65z m664 -126 c3 -17 6 -47 6 -65
l0 -34 -78 0 c-43 0 -187 3 -320 7 l-242 6 0 53 0 54 183 3 c100 1 241 3 313
5 l132 2 6 -31z m-924 -34 c0 -52 -1 -55 -25 -55 -24 0 -25 3 -25 55 0 52 1
55 25 55 24 0 25 -3 25 -55z m80 0 c0 -54 0 -55 -30 -55 -29 0 -30 1 -30 48 0
55 4 62 37 62 21 0 23 -4 23 -55z m100 0 l0 -55 -40 0 -40 0 0 55 0 55 40 0
40 0 0 -55z m90 0 l0 -55 -35 0 -35 0 0 55 0 55 35 0 35 0 0 -55z"/>
</g>
</svg>
