<?xml version="1.0" standalone="no"?>
<!DOCTYPE svg PUBLIC "-//W3C//DTD SVG 20010904//EN"
 "http://www.w3.org/TR/2001/REC-SVG-20010904/DTD/svg10.dtd">
<svg version="1.0" xmlns="http://www.w3.org/2000/svg"
 width="243.000000pt" height="139.000000pt" viewBox="0 0 243.000000 139.000000"
 preserveAspectRatio="xMidYMid meet">
<metadata>
Created by potrace 1.16, written by Peter Selinger 2001-2019
</metadata>
<g transform="translate(0.000000,139.000000) scale(0.100000,-0.100000)"
fill="#000000" stroke="none">
<path d="M1793 1074 c-3 -8 -4 -130 -1 -270 l4 -254 -124 0 c-109 0 -123 2
-112 15 15 18 7 19 -19 3 -17 -10 -31 0 -122 90 -57 56 -106 102 -110 102 -4
0 -10 -8 -14 -17 -6 -19 -1 -25 130 -142 33 -29 52 -50 42 -47 -10 3 -34 6
-53 6 -21 0 -33 4 -29 10 8 13 -1 13 -24 -2 -16 -10 -31 1 -122 90 -93 92
-105 101 -119 86 -16 -16 -3 -32 124 -142 l49 -42 -56 0 c-46 0 -55 3 -51 15
8 20 -5 19 -28 -1 -17 -16 -23 -12 -118 82 -91 89 -102 97 -116 82 -14 -14
-11 -20 38 -65 29 -28 67 -62 83 -76 l30 -26 -90 1 c-49 0 -120 3 -157 7 l-66
6 -48 65 c-108 149 -202 236 -307 286 -34 16 -39 17 -54 2 -15 -15 -13 -18 20
-32 86 -35 176 -113 337 -289 l35 -38 -60 7 c-112 11 -154 31 -225 104 -41 42
-82 99 -110 151 -42 79 -45 82 -48 52 -4 -44 55 -157 119 -227 93 -102 168
-123 444 -127 61 -1 138 -4 173 -8 l63 -6 -74 -63 c-112 -95 -124 -109 -106
-127 13 -13 27 -3 117 86 96 95 104 100 121 85 25 -23 38 -20 16 4 -18 20 -17
20 59 20 l78 0 -42 -35 c-23 -19 -69 -60 -103 -90 -57 -52 -60 -56 -44 -72 16
-16 23 -12 120 84 95 95 103 101 121 88 24 -18 34 -11 16 10 -11 13 -5 15 50
15 l62 0 -42 -35 c-112 -94 -162 -145 -157 -160 4 -8 12 -15 19 -15 8 0 58 45
113 100 65 65 103 96 109 90 6 -6 16 -10 24 -10 12 0 12 3 2 15 -11 13 3 15
114 15 l126 0 1 -92 c1 -51 0 -104 -1 -116 l-2 -24 160 4 159 3 7 164 c3 90 6
264 6 386 l0 222 -67 6 c-38 4 -112 7 -166 7 -79 0 -99 -3 -104 -16z m289 -81
c1 -38 2 -85 4 -107 l2 -39 -66 7 c-37 3 -95 6 -129 6 -60 0 -63 1 -59 23 3
12 5 54 5 94 l1 72 53 4 c28 2 82 4 120 5 l67 2 2 -67z m8 -304 l0 -142 -52 7
c-29 3 -88 6 -131 6 l-78 0 2 130 2 129 86 4 c47 1 105 4 129 5 l42 2 0 -141z
m4 -190 c3 -17 6 -64 6 -103 l0 -71 -135 6 c-74 3 -136 7 -139 10 -2 2 -1 43
2 91 l4 87 77 4 c196 8 178 11 185 -24z"/>
</g>
</svg>
