<?xml version="1.0" standalone="no"?>
<!DOCTYPE svg PUBLIC "-//W3C//DTD SVG 20010904//EN"
 "http://www.w3.org/TR/2001/REC-SVG-20010904/DTD/svg10.dtd">
<svg version="1.0" xmlns="http://www.w3.org/2000/svg"
 width="244.000000pt" height="136.000000pt" viewBox="0 0 244.000000 136.000000"
 preserveAspectRatio="xMidYMid meet">
<metadata>
Created by potrace 1.16, written by Peter Selinger 2001-2019
</metadata>
<g transform="translate(0.000000,136.000000) scale(0.100000,-0.100000)"
fill="#000000" stroke="none">
<path d="M350 1046 c-9 -12 -3 -19 37 -39 78 -40 164 -110 249 -204 111 -122
110 -117 31 -110 -86 8 -126 26 -188 84 -59 55 -97 107 -142 196 -31 61 -32
61 -35 30 -6 -61 87 -219 162 -277 85 -64 176 -79 553 -89 l93 -2 -48 -38
c-26 -21 -71 -61 -100 -89 -49 -46 -52 -52 -38 -67 15 -14 25 -7 115 83 l98
98 27 -17 c30 -20 34 -11 9 17 -17 18 -15 19 60 17 l78 -3 -63 -55 c-143 -126
-145 -128 -128 -146 14 -14 26 -5 119 87 91 90 105 100 122 90 26 -16 34 -15
19 3 -11 13 -5 15 46 15 l58 0 -60 -52 c-126 -112 -136 -122 -129 -141 4 -9
10 -17 14 -17 4 0 53 46 110 102 91 91 104 101 121 90 27 -16 35 -15 20 3 -11
13 0 15 94 15 l106 0 0 -34 c0 -36 42 -207 61 -249 13 -30 54 -47 110 -47 42
0 72 11 140 52 l47 28 12 128 c7 70 11 178 8 240 -4 107 -6 114 -34 143 -49
54 -113 89 -159 89 -41 0 -155 -48 -145 -61 3 -4 -2 -15 -11 -25 -10 -11 -20
-46 -23 -84 -4 -36 -9 -86 -12 -112 l-6 -48 -48 0 c-69 0 -140 11 -134 21 3 5
-2 9 -10 9 -8 0 -18 -5 -22 -11 -4 -7 -49 31 -113 95 -84 84 -109 104 -119 94
-7 -7 -12 -15 -12 -19 0 -9 83 -88 148 -143 l44 -36 -51 0 c-41 0 -49 3 -45
15 8 20 -10 19 -27 -1 -11 -13 -26 -2 -116 88 -95 95 -104 101 -119 86 -16
-15 -13 -20 42 -71 33 -29 75 -68 94 -86 l35 -33 -34 6 c-18 3 -44 6 -58 6
-14 0 -21 4 -18 10 3 6 2 10 -4 10 -5 0 -13 -4 -16 -10 -14 -22 -37 -6 -129
87 -92 93 -97 96 -114 80 -19 -20 -27 -10 108 -131 l55 -49 -75 6 c-41 4 -112
7 -157 7 l-82 0 -62 83 c-88 117 -163 192 -248 248 -79 53 -92 57 -111 35z
m1690 -129 c53 -31 56 -35 68 -92 9 -42 11 -106 6 -216 -9 -226 -5 -216 -93
-251 -72 -28 -74 -29 -127 -13 -29 8 -58 23 -63 33 -10 19 -41 192 -41 229 0
23 2 23 103 22 95 -1 104 -3 129 -27 45 -42 43 -17 -3 42 -27 35 -47 52 -53
46 -6 -6 -4 -15 4 -25 11 -13 8 -15 -17 -15 -24 0 -38 10 -66 46 -30 38 -38
43 -43 30 -4 -11 3 -27 22 -47 l28 -29 -52 0 -52 0 1 63 c0 34 6 87 12 117 11
50 17 58 61 88 64 42 105 42 176 -1z"/>
<path d="M1856 842 c-6 -10 91 -109 98 -101 6 6 -73 109 -84 109 -5 0 -11 -4
-14 -8z"/>
<path d="M1970 817 c0 -16 87 -103 95 -95 7 7 -72 108 -85 108 -6 0 -10 -6
-10 -13z"/>
<path d="M1835 600 c-7 -12 84 -114 93 -105 6 6 -43 77 -68 100 -13 12 -20 13
-25 5z"/>
<path d="M1956 542 c-3 -5 17 -33 44 -63 58 -63 67 -48 13 22 -37 49 -47 56
-57 41z"/>
</g>
</svg>
