<?xml version="1.0" standalone="no"?>
<!DOCTYPE svg PUBLIC "-//W3C//DTD SVG 20010904//EN"
 "http://www.w3.org/TR/2001/REC-SVG-20010904/DTD/svg10.dtd">
<svg version="1.0" xmlns="http://www.w3.org/2000/svg"
 width="230.000000pt" height="148.000000pt" viewBox="0 0 230.000000 148.000000"
 preserveAspectRatio="xMidYMid meet">
<metadata>
Created by potrace 1.16, written by Peter Selinger 2001-2019
</metadata>
<g transform="translate(0.000000,148.000000) scale(0.100000,-0.100000)"
fill="#000000" stroke="none">
<path d="M1602 1173 c-10 -4 -13 -55 -11 -236 1 -230 1 -232 -20 -233 -17 -1
-19 2 -10 12 14 18 -11 20 -28 3 -8 -8 -37 15 -108 90 -54 55 -103 101 -110
101 -7 0 -18 -6 -24 -13 -8 -11 9 -32 84 -98 52 -46 95 -85 95 -86 0 -2 -20
-3 -45 -3 -35 0 -43 3 -39 15 8 19 -5 19 -26 0 -16 -14 -26 -7 -119 86 -96 97
-103 102 -119 85 -16 -16 -15 -19 13 -43 17 -14 59 -52 95 -85 59 -53 62 -58
39 -58 -43 0 -89 12 -83 21 3 5 1 9 -5 9 -5 0 -13 -4 -16 -10 -15 -24 -45 -4
-136 86 -87 87 -97 94 -110 78 -12 -15 -5 -25 71 -96 l85 -80 -100 6 c-55 3
-125 6 -155 6 l-55 0 -55 78 c-76 108 -202 230 -276 269 -56 30 -62 31 -77 16
-15 -15 -12 -19 44 -47 72 -37 147 -102 253 -216 l79 -85 -46 -3 c-132 -9
-252 84 -344 267 -37 73 -38 74 -41 41 -8 -82 127 -269 230 -319 55 -26 204
-40 431 -41 75 0 137 -2 137 -5 0 -3 -17 -20 -37 -38 -21 -17 -64 -56 -96 -86
-52 -49 -56 -56 -42 -70 14 -14 25 -6 115 84 98 98 99 99 120 80 25 -22 40
-12 17 12 -15 17 -12 18 55 15 l70 -4 -58 -51 c-138 -122 -140 -124 -123 -142
14 -14 25 -6 117 85 88 88 104 100 121 90 28 -14 36 -13 21 5 -11 13 -5 15 46
15 49 0 56 -2 44 -13 -8 -7 -52 -47 -98 -87 -76 -68 -99 -105 -64 -105 7 0 57
44 111 98 88 87 102 97 120 88 28 -15 36 -14 21 4 -11 13 -8 15 14 15 l26 0 0
-177 c0 -98 4 -184 9 -192 6 -10 33 -12 112 -9 l104 3 6 185 c3 102 7 186 8
188 0 1 37 2 81 2 47 0 80 4 80 10 0 6 -33 10 -80 10 l-80 0 0 234 0 233 -52
7 c-62 7 -167 7 -186 -1z m188 -69 c0 -43 -2 -46 -22 -40 -13 3 -49 6 -80 6
l-58 0 0 35 0 34 58 4 c31 2 67 4 80 5 20 2 22 -2 22 -44z m8 -115 l1 -52 -52
7 c-29 3 -67 6 -84 6 -31 0 -33 2 -33 38 0 21 3 42 7 45 3 4 41 7 84 7 l77 0
0 -51z m2 -115 c0 -43 -2 -46 -22 -40 -13 3 -51 6 -85 6 l-63 0 0 34 c0 38 5
40 123 44 l47 2 0 -46z m0 -99 l0 -45 -85 0 -85 0 0 40 0 39 78 4 c42 1 80 4
85 5 4 1 7 -18 7 -43z m-7 -72 c-7 -2 -19 -2 -25 0 -7 3 -2 5 12 5 14 0 19 -2
13 -5z m7 -53 c0 -28 -2 -30 -39 -30 -21 0 -59 3 -85 6 -40 6 -46 10 -46 30 0
23 2 24 85 24 l85 0 0 -30z m1 -87 c0 -21 2 -46 4 -55 3 -16 -6 -18 -86 -18
l-89 0 0 49 0 50 53 4 c128 9 117 11 118 -30z m9 -164 l0 -72 -61 7 c-34 3
-77 6 -95 6 -34 0 -34 0 -34 48 0 26 4 52 8 59 4 6 34 14 67 16 33 2 72 4 88
5 l27 2 0 -71z"/>
</g>
</svg>
