<?xml version="1.0" standalone="no"?>
<!DOCTYPE svg PUBLIC "-//W3C//DTD SVG 20010904//EN"
 "http://www.w3.org/TR/2001/REC-SVG-20010904/DTD/svg10.dtd">
<svg version="1.0" xmlns="http://www.w3.org/2000/svg"
 width="210.000000pt" height="136.000000pt" viewBox="0 0 210.000000 136.000000"
 preserveAspectRatio="xMidYMid meet">
<metadata>
Created by potrace 1.16, written by Peter Selinger 2001-2019
</metadata>
<g transform="translate(0.000000,136.000000) scale(0.100000,-0.100000)"
fill="#000000" stroke="none">
<path d="M350 1045 c-7 -9 -11 -16 -9 -18 2 -1 31 -15 64 -31 47 -23 93 -62
209 -179 82 -83 144 -153 138 -155 -23 -7 -143 40 -203 80 -66 44 -140 127
-203 228 -38 61 -41 63 -44 37 -5 -42 51 -128 143 -222 122 -122 249 -177 447
-193 l90 -7 -64 -52 c-34 -29 -90 -77 -123 -107 -58 -53 -59 -56 -42 -73 17
-17 22 -13 140 108 l122 127 65 7 c36 4 82 10 103 15 20 4 37 7 37 6 0 -1 -48
-44 -106 -96 -94 -83 -104 -95 -90 -108 13 -14 21 -9 76 41 33 31 85 82 114
114 48 52 61 60 121 76 38 9 69 16 70 15 1 -2 14 -83 30 -182 l28 -179 66 8
c36 3 76 7 89 8 28 2 28 11 2 227 -24 204 -24 189 3 199 69 28 179 82 174 87
-3 3 -49 -10 -102 -30 -52 -20 -97 -36 -99 -36 -2 0 -9 46 -16 103 -15 128
-16 134 -40 140 -27 7 -160 -10 -174 -22 -9 -8 -6 -43 10 -143 12 -73 21 -134
20 -136 -2 -1 -28 -7 -59 -13 l-57 -12 -120 124 c-115 119 -120 123 -135 104
-14 -18 -12 -22 42 -72 32 -29 86 -76 121 -105 42 -35 58 -54 50 -59 -7 -4
-57 -12 -111 -18 l-98 -11 -119 122 c-112 117 -119 122 -136 106 -17 -17 -14
-20 49 -78 36 -34 89 -80 116 -103 l50 -42 -42 -3 c-23 -2 -70 -1 -104 3 l-61
6 -38 57 c-99 150 -200 255 -302 315 -71 42 -75 43 -92 22z m1175 -77 c15 -68
34 -213 27 -219 -8 -8 -115 -39 -119 -35 -6 6 -35 238 -30 242 4 4 87 29 109
33 4 0 10 -9 13 -21z m71 -440 l29 -183 -23 -7 c-13 -4 -46 -8 -75 -9 l-52 -3
-17 154 c-10 85 -17 164 -15 174 1 13 18 25 52 37 28 10 55 18 61 18 7 1 22
-70 40 -181z"/>
</g>
</svg>
