<?xml version="1.0" standalone="no"?>
<!DOCTYPE svg PUBLIC "-//W3C//DTD SVG 20010904//EN"
 "http://www.w3.org/TR/2001/REC-SVG-20010904/DTD/svg10.dtd">
<svg version="1.0" xmlns="http://www.w3.org/2000/svg"
 width="251.000000pt" height="135.000000pt" viewBox="0 0 251.000000 135.000000"
 preserveAspectRatio="xMidYMid meet">
<metadata>
Created by potrace 1.16, written by Peter Selinger 2001-2019
</metadata>
<g transform="translate(0.000000,135.000000) scale(0.100000,-0.100000)"
fill="#000000" stroke="none">
<path d="M1727 1030 c-33 -12 -84 -35 -114 -52 -49 -28 -59 -39 -85 -96 -16
-36 -37 -99 -46 -141 -9 -42 -21 -79 -26 -83 -21 -14 -222 -58 -315 -68 l-94
-11 -126 132 c-123 129 -127 132 -145 114 -18 -18 -17 -20 35 -67 30 -27 87
-76 127 -110 40 -33 70 -63 68 -66 -6 -6 -207 18 -223 26 -6 4 -11 11 -11 15
0 5 -35 56 -78 114 -89 120 -164 191 -255 245 -59 35 -64 37 -81 21 -18 -16
-15 -18 49 -51 54 -28 98 -65 211 -179 78 -79 142 -148 142 -153 0 -13 -95 17
-163 52 -76 38 -178 141 -242 242 -48 76 -50 77 -53 48 -4 -41 58 -133 152
-227 53 -53 93 -81 156 -112 86 -42 227 -83 286 -83 66 0 66 -9 -4 -69 -160
-138 -159 -138 -140 -157 17 -17 23 -13 130 97 l113 116 108 12 c109 12 246
46 324 81 l43 19 6 -27 c12 -49 53 -119 112 -193 69 -85 111 -107 229 -116 65
-5 77 -3 140 26 94 44 181 102 181 121 0 8 16 53 36 100 42 101 46 165 16 264
-18 57 -39 86 -64 86 -3 0 4 -23 15 -52 46 -117 44 -168 -9 -335 l-26 -83 -95
-41 c-53 -24 -117 -44 -143 -47 -60 -6 -210 39 -243 72 -32 32 -71 111 -92
186 -14 53 -15 63 -2 72 10 6 10 11 3 14 -15 6 4 94 37 172 21 50 26 54 107
95 80 39 91 42 166 41 70 0 93 -5 171 -37 124 -52 124 -52 90 -22 -16 14 -68
45 -113 67 -104 52 -175 60 -265 28z"/>
</g>
</svg>
