<?xml version="1.0" standalone="no"?>
<!DOCTYPE svg PUBLIC "-//W3C//DTD SVG 20010904//EN"
 "http://www.w3.org/TR/2001/REC-SVG-20010904/DTD/svg10.dtd">
<svg version="1.0" xmlns="http://www.w3.org/2000/svg"
 width="230.000000pt" height="130.000000pt" viewBox="0 0 230.000000 130.000000"
 preserveAspectRatio="xMidYMid meet">
<metadata>
Created by potrace 1.16, written by Peter Selinger 2001-2019
</metadata>
<g transform="translate(0.000000,130.000000) scale(0.100000,-0.100000)"
fill="#000000" stroke="none">
<path d="M350 986 c-9 -12 -3 -19 37 -39 78 -40 164 -110 249 -204 112 -122
110 -117 29 -110 -37 4 -87 16 -111 27 -62 30 -153 133 -204 231 -42 79 -45
82 -48 52 -6 -61 87 -219 162 -277 72 -55 112 -65 287 -76 90 -5 207 -10 259
-10 l95 -1 -40 -36 c-169 -155 -159 -143 -141 -161 15 -15 23 -9 115 82 l98
98 27 -17 c29 -19 34 -11 9 17 -15 17 -13 18 62 18 l79 0 -45 -37 c-24 -21
-71 -63 -104 -94 -52 -50 -58 -59 -45 -74 12 -15 24 -6 117 87 93 93 105 102
123 90 25 -15 38 -16 22 0 -20 20 -14 23 43 23 55 1 68 -7 41 -22 -23 -12
-176 -153 -176 -161 0 -4 5 -14 10 -22 8 -12 26 1 94 69 l85 84 40 -34 c152
-131 224 -189 229 -184 6 6 -24 39 -153 173 -44 45 -74 82 -68 82 7 0 15 -5
18 -10 3 -6 11 -10 18 -10 8 0 8 3 -1 12 -7 7 -12 14 -12 17 0 4 101 5 225 3
150 -2 225 1 225 8 0 6 -51 10 -142 10 -79 0 -180 3 -225 6 -69 6 -80 9 -75
23 5 14 3 14 -14 -1 -19 -17 -23 -14 -124 87 -80 80 -107 102 -117 93 -24 -20
-20 -25 137 -166 l35 -31 -49 -1 c-39 0 -47 3 -42 15 7 20 -8 19 -25 -1 -11
-13 -25 -2 -113 85 -56 56 -107 101 -114 101 -7 0 -15 -7 -18 -15 -5 -13 30
-51 144 -151 l33 -29 -55 3 c-31 2 -54 8 -50 13 7 12 0 11 -29 -2 -21 -10 -32
-3 -122 85 -90 86 -101 94 -115 80 -16 -17 -21 -11 108 -126 l53 -47 -138 5
c-76 3 -148 7 -160 10 -12 2 -44 35 -74 76 -80 110 -166 195 -248 249 -79 53
-92 57 -111 35z"/>
</g>
</svg>
