<?xml version="1.0" standalone="no"?>
<!DOCTYPE svg PUBLIC "-//W3C//DTD SVG 20010904//EN"
 "http://www.w3.org/TR/2001/REC-SVG-20010904/DTD/svg10.dtd">
<svg version="1.0" xmlns="http://www.w3.org/2000/svg"
 width="213.000000pt" height="156.000000pt" viewBox="0 0 213.000000 156.000000"
 preserveAspectRatio="xMidYMid meet">
<metadata>
Created by potrace 1.16, written by Peter Selinger 2001-2019
</metadata>
<g transform="translate(0.000000,156.000000) scale(0.100000,-0.100000)"
fill="#000000" stroke="none">
<path d="M306 1234 c-5 -19 1 -34 23 -63 41 -52 101 -105 150 -133 23 -13 39
-27 37 -33 -81 -182 -83 -261 -11 -367 14 -20 25 -41 25 -45 0 -4 -21 -19 -47
-33 -49 -26 -137 -106 -167 -152 -11 -16 -15 -35 -11 -48 8 -26 19 -25 32 3
21 45 103 124 163 156 l62 33 57 -63 57 -63 125 53 c68 30 202 90 297 134
l172 80 0 93 0 93 -112 61 c-227 121 -500 251 -519 245 -10 -4 -35 -33 -55
-66 -20 -32 -42 -59 -48 -59 -39 0 -172 118 -198 175 -14 32 -24 32 -32 -1z
m679 -248 c77 -34 165 -73 196 -86 l56 -23 7 -66 c11 -115 19 -104 -101 -146
-60 -21 -190 -71 -290 -111 -101 -41 -187 -74 -192 -74 -5 0 -23 19 -40 42
l-32 43 43 18 c24 10 88 34 143 53 54 19 102 37 105 41 11 12 -90 -9 -198 -41
l-113 -34 -14 22 c-68 104 -77 202 -28 308 l31 67 64 -20 c79 -25 240 -69 252
-69 26 0 -17 22 -99 50 -108 38 -185 70 -185 78 0 3 14 27 31 53 l30 48 97
-46 c53 -25 160 -73 237 -107z"/>
<path d="M1570 1221 c0 -6 -7 -11 -16 -11 -11 0 -14 -5 -10 -17 4 -9 14 -60
23 -112 14 -82 14 -111 4 -200 -7 -57 -19 -117 -27 -132 -34 -67 -26 -139 47
-411 l10 -38 114 0 c63 0 115 1 115 3 0 2 -11 66 -25 143 -30 168 -31 235 -4
334 26 99 35 246 20 337 -18 104 -18 104 -144 110 -77 4 -107 3 -107 -6z m195
-43 c21 -93 25 -123 25 -203 0 -105 -14 -201 -35 -241 -23 -45 -18 -113 20
-271 20 -80 34 -148 31 -150 -7 -7 -196 9 -196 17 0 4 -11 67 -25 141 -30 162
-31 189 -5 287 35 141 43 215 30 310 -6 48 -13 95 -16 104 -5 18 17 23 118 26
42 2 48 -1 53 -20z"/>
</g>
</svg>
