<?xml version="1.0" standalone="no"?>
<!DOCTYPE svg PUBLIC "-//W3C//DTD SVG 20010904//EN"
 "http://www.w3.org/TR/2001/REC-SVG-20010904/DTD/svg10.dtd">
<svg version="1.0" xmlns="http://www.w3.org/2000/svg"
 width="135.000000pt" height="136.000000pt" viewBox="0 0 135.000000 136.000000"
 preserveAspectRatio="xMidYMid meet">
<metadata>
Created by potrace 1.16, written by Peter Selinger 2001-2019
</metadata>
<g transform="translate(0.000000,136.000000) scale(0.100000,-0.100000)"
fill="#000000" stroke="none">
<path d="M555 1046 c-27 -7 -82 -24 -120 -39 -62 -24 -72 -31 -87 -66 -30 -68
-51 -198 -46 -280 5 -87 41 -169 121 -277 42 -57 48 -61 102 -72 81 -17 182
-15 246 4 67 20 231 103 224 114 -3 4 8 49 25 100 24 74 30 109 30 179 0 114
-17 199 -42 212 -11 6 -21 9 -23 7 -3 -2 2 -28 10 -58 29 -107 29 -175 0 -310
-15 -69 -31 -130 -37 -137 -16 -19 -177 -73 -238 -80 -74 -7 -245 22 -270 47
-27 27 -78 161 -92 238 -10 59 -9 82 6 157 27 139 32 148 114 178 93 34 184
50 246 42 67 -9 162 -31 215 -50 52 -18 54 -18 45 -4 -10 17 -145 76 -213 94
-69 18 -146 18 -216 1z"/>
<path d="M620 964 c0 -12 6 -15 23 -10 12 3 26 6 30 6 5 0 5 5 2 10 -10 17
-55 12 -55 -6z"/>
<path d="M687 896 c-19 -21 -56 -44 -90 -56 -63 -24 -113 -60 -122 -90 -4 -11
-13 -20 -21 -20 -8 0 -14 -4 -14 -10 0 -5 5 -10 10 -10 6 0 10 -16 10 -36 0
-80 56 -141 152 -165 26 -7 48 -18 48 -25 0 -17 58 -64 79 -64 25 0 89 52 83
68 -2 8 10 12 42 12 25 0 46 5 46 10 0 6 -22 10 -48 10 -42 0 -50 3 -65 29
-13 22 -31 34 -73 46 -53 15 -80 13 -69 -6 4 -5 15 -9 25 -9 18 0 18 -2 -3
-34 l-22 -34 -49 19 c-27 10 -60 28 -74 41 -46 43 -71 138 -36 138 13 0 14 3
6 13 -18 21 13 56 72 83 64 30 80 30 94 -1 6 -13 25 -31 42 -40 35 -18 55 -11
93 35 16 18 35 30 51 30 13 0 32 3 41 6 25 10 -2 24 -45 24 -28 0 -41 7 -63
35 -35 44 -60 44 -100 1z m98 -26 c27 -28 27 -30 11 -54 -27 -42 -62 -44 -99
-7 -30 29 -30 31 -9 31 12 0 22 5 22 10 0 6 -5 10 -12 10 -6 0 -3 9 7 20 25
28 46 25 80 -10z m-4 -329 c36 -36 37 -51 3 -51 -21 0 -25 -4 -21 -20 4 -16 0
-20 -21 -20 -31 0 -62 26 -62 52 0 21 42 68 60 68 6 0 25 -13 41 -29z"/>
<path d="M890 915 c0 -16 36 -20 58 -6 10 6 8 10 -10 14 -36 10 -48 8 -48 -8z"/>
<path d="M410 904 c0 -11 5 -14 16 -10 9 3 22 6 30 6 8 0 14 5 14 10 0 6 -13
10 -30 10 -21 0 -30 -5 -30 -16z"/>
<path d="M440 830 c0 -5 16 -10 35 -10 19 0 35 5 35 10 0 6 -16 10 -35 10 -19
0 -35 -4 -35 -10z"/>
<path d="M627 743 c-21 -21 22 -33 51 -14 11 7 10 10 -3 15 -21 8 -40 8 -48
-1z"/>
<path d="M850 725 c0 -9 9 -15 24 -15 30 0 42 15 20 24 -27 10 -44 7 -44 -9z"/>
<path d="M530 620 c0 -5 14 -10 30 -10 17 0 30 5 30 10 0 6 -13 10 -30 10 -16
0 -30 -4 -30 -10z"/>
<path d="M390 600 c0 -5 16 -10 35 -10 19 0 35 5 35 10 0 6 -16 10 -35 10 -19
0 -35 -4 -35 -10z"/>
<path d="M840 585 c0 -9 9 -15 24 -15 33 0 42 16 13 24 -33 9 -37 8 -37 -9z"/>
<path d="M470 485 c0 -16 36 -20 58 -6 11 7 10 10 -3 15 -29 11 -55 7 -55 -9z"/>
<path d="M897 483 c-21 -21 22 -33 51 -14 10 6 8 10 -10 14 -29 8 -33 8 -41 0z"/>
<path d="M620 411 c0 -6 4 -12 10 -16 13 -8 61 5 54 16 -7 12 -64 12 -64 0z"/>
</g>
</svg>
