<?xml version="1.0" standalone="no"?>
<!DOCTYPE svg PUBLIC "-//W3C//DTD SVG 20010904//EN"
 "http://www.w3.org/TR/2001/REC-SVG-20010904/DTD/svg10.dtd">
<svg version="1.0" xmlns="http://www.w3.org/2000/svg"
 width="172.000000pt" height="136.000000pt" viewBox="0 0 172.000000 136.000000"
 preserveAspectRatio="xMidYMid meet">
<metadata>
Created by potrace 1.16, written by Peter Selinger 2001-2019
</metadata>
<g transform="translate(0.000000,136.000000) scale(0.100000,-0.100000)"
fill="#000000" stroke="none">
<path d="M443 1053 c-34 -3 -43 -8 -43 -24 0 -12 -7 -19 -19 -19 -15 0 -26
-18 -47 -77 -25 -67 -29 -93 -29 -178 0 -87 4 -108 28 -165 15 -36 30 -76 33
-89 9 -43 32 -77 88 -128 78 -71 99 -75 377 -71 221 4 239 6 324 32 102 31
252 94 262 109 9 15 -52 61 -134 102 -103 52 -153 54 -277 16 -54 -17 -102
-31 -107 -31 -5 0 -4 12 2 28 6 15 19 64 28 110 l17 83 40 -29 c21 -16 70 -47
108 -70 l68 -41 98 75 c54 41 103 81 110 89 9 11 -9 29 -92 94 -57 44 -110 80
-118 81 -9 0 -60 -29 -115 -64 -115 -74 -108 -77 -120 47 -5 48 -11 67 -21 67
-7 0 -49 12 -91 27 -66 22 -97 27 -203 28 -69 2 -144 1 -167 -2z m157 -120 c0
-49 3 -98 6 -110 l6 -23 -137 0 -137 0 7 33 c10 46 43 130 59 152 14 19 68 31
154 34 l42 1 0 -87z m232 64 c47 -14 47 -14 62 -151 l7 -59 -118 6 c-65 4
-121 7 -125 7 -5 0 -8 50 -8 111 l0 112 70 -7 c38 -4 89 -13 112 -19z m465
-174 c56 -35 60 -40 43 -50 -15 -10 -31 -2 -107 54 -108 80 -107 79 -98 92 4
8 22 0 53 -23 26 -18 75 -51 109 -73z m-148 38 c20 -15 62 -45 94 -66 60 -40
67 -49 42 -58 -17 -7 -208 130 -199 144 9 15 24 10 63 -20z m14 -75 c85 -58
96 -69 78 -80 -11 -7 -202 135 -195 146 3 4 11 5 17 1 7 -5 52 -35 100 -67z
m-71 -8 c41 -29 85 -61 98 -70 20 -14 22 -19 11 -27 -10 -7 -39 10 -107 61
-52 39 -91 74 -88 79 8 13 6 14 86 -43z m-9 -52 c69 -47 85 -62 76 -72 -13
-16 -13 -16 -103 53 -38 30 -76 57 -84 62 -8 5 -12 14 -8 20 4 6 13 8 19 4 7
-5 52 -35 100 -67z m-183 2 c0 -43 -16 -156 -26 -191 -8 -26 -63 -45 -154 -53
l-81 -7 2 141 1 141 36 4 c21 2 79 4 130 5 l92 2 0 -42z m-289 -60 c0 -51 3
-113 6 -137 l5 -44 -53 7 c-63 8 -170 34 -188 45 -17 11 -41 107 -41 169 l0
52 135 0 135 0 1 -92z m706 -168 c47 -23 81 -46 77 -50 -15 -15 -188 -69 -291
-92 -82 -19 -130 -22 -298 -23 -135 0 -214 4 -242 13 -42 13 -164 114 -152
126 3 3 40 -1 83 -9 150 -29 257 -18 491 50 159 46 213 44 332 -15z"/>
</g>
</svg>
