<?xml version="1.0" standalone="no"?>
<!DOCTYPE svg PUBLIC "-//W3C//DTD SVG 20010904//EN"
 "http://www.w3.org/TR/2001/REC-SVG-20010904/DTD/svg10.dtd">
<svg version="1.0" xmlns="http://www.w3.org/2000/svg"
 width="150.000000pt" height="147.000000pt" viewBox="0 0 150.000000 147.000000"
 preserveAspectRatio="xMidYMid meet">
<metadata>
Created by potrace 1.16, written by Peter Selinger 2001-2019
</metadata>
<g transform="translate(0.000000,147.000000) scale(0.100000,-0.100000)"
fill="#000000" stroke="none">
<path d="M643 1163 c-25 -3 -33 -9 -33 -24 0 -19 5 -19 105 -13 101 7 106 6
143 -18 32 -22 40 -34 50 -79 15 -65 32 -208 32 -265 l0 -41 -187 4 c-104 2
-227 5 -275 6 l-87 3 -35 -75 c-19 -42 -41 -97 -47 -122 -12 -44 -11 -47 25
-111 20 -36 43 -72 51 -78 8 -7 15 -21 15 -31 0 -18 10 -19 133 -19 72 0 196
3 275 7 l142 6 0 24 0 25 31 -26 c17 -14 41 -29 55 -32 94 -24 177 71 140 160
-28 68 -110 95 -173 56 l-33 -20 1 53 c1 56 15 190 17 170 3 -19 57 -43 99
-43 66 0 113 52 113 125 0 26 -9 45 -34 73 -30 32 -40 37 -79 37 -31 0 -55 -7
-75 -22 -35 -26 -42 -18 -42 48 0 48 -19 129 -31 129 -4 0 -28 21 -53 48 l-45
47 -83 1 c-46 1 -98 0 -115 -3z m297 -649 l0 -186 -112 7 c-62 4 -113 8 -114
9 0 0 2 25 4 54 l4 52 89 0 c53 0 89 4 89 10 0 6 -37 10 -90 10 l-90 0 0 60 0
60 90 0 c53 0 90 4 90 10 0 6 -37 10 -91 10 l-91 0 4 38 c2 34 6 38 38 43 19
3 68 7 108 8 l72 1 0 -186z m-500 141 c0 -32 -2 -35 -30 -35 -29 0 -30 2 -19
23 30 57 49 62 49 12z m82 0 c4 -33 2 -35 -24 -35 -25 0 -28 3 -28 35 0 30 3
35 24 35 20 0 25 -6 28 -35z m98 0 c0 -33 -2 -35 -35 -35 -36 0 -40 6 -29 48
5 16 14 22 35 22 26 0 29 -3 29 -35z m72 0 c-3 -26 -9 -35 -23 -35 -15 0 -19
7 -19 35 0 30 3 35 23 35 20 0 23 -4 19 -35z m-252 -120 l0 -55 -44 0 c-36 0
-46 4 -51 20 -4 11 -11 18 -16 15 -14 -9 -11 0 12 39 18 32 26 36 60 36 l39 0
0 -55z m81 48 c0 -5 2 -29 5 -55 l5 -48 -37 0 -37 0 7 38 c3 20 6 45 6 55 0
11 8 17 25 17 14 0 25 -3 26 -7z m99 -48 l0 -55 -35 0 -35 0 0 55 0 55 35 0
35 0 0 -55z m70 16 c0 -22 3 -46 6 -55 5 -12 0 -16 -20 -16 -25 0 -26 2 -26
55 0 48 2 55 20 55 17 0 20 -7 20 -39z m-248 -151 c4 -63 -11 -65 -46 -6 -14
25 -26 47 -26 50 0 3 15 6 34 6 34 0 34 0 38 -50z m88 0 l0 -50 -35 0 -35 0 0
50 0 50 35 0 35 0 0 -50z m94 19 c12 -64 10 -69 -36 -69 l-43 0 3 50 c4 49 5
50 37 50 28 0 33 -4 39 -31z m76 -19 c0 -49 -1 -50 -30 -50 -29 0 -30 1 -30
50 0 49 1 50 30 50 29 0 30 -1 30 -50z"/>
</g>
</svg>
