<?xml version="1.0" standalone="no"?>
<!DOCTYPE svg PUBLIC "-//W3C//DTD SVG 20010904//EN"
 "http://www.w3.org/TR/2001/REC-SVG-20010904/DTD/svg10.dtd">
<svg version="1.0" xmlns="http://www.w3.org/2000/svg"
 width="144.000000pt" height="156.000000pt" viewBox="0 0 144.000000 156.000000"
 preserveAspectRatio="xMidYMid meet">
<metadata>
Created by potrace 1.16, written by Peter Selinger 2001-2019
</metadata>
<g transform="translate(0.000000,156.000000) scale(0.100000,-0.100000)"
fill="#000000" stroke="none">
<path d="M941 1244 c-12 -9 -31 -30 -42 -48 l-19 -31 0 33 c0 17 -4 32 -10 32
-5 0 -10 -5 -10 -11 0 -7 -70 -9 -225 -7 -124 2 -225 -1 -225 -5 0 -5 -4 -6
-9 -3 -11 7 -60 -78 -86 -148 l-19 -49 28 -52 c15 -29 40 -66 57 -83 l29 -30
240 5 240 6 0 -89 c0 -120 -15 -207 -49 -279 -55 -119 -122 -167 -203 -144
-48 13 -127 76 -168 133 -31 43 -50 51 -50 22 0 -19 88 -117 142 -158 47 -35
55 -38 119 -38 65 0 71 2 109 36 25 22 55 67 77 112 30 63 36 88 41 163 2 49
9 89 13 89 5 0 9 -4 9 -10 0 -5 13 -16 30 -25 120 -62 238 78 149 179 -49 56
-109 60 -169 9 -24 -19 -30 -21 -30 -9 0 9 6 16 13 16 9 0 9 2 0 8 -6 4 -14
36 -18 72 -3 36 -8 85 -11 110 l-6 44 29 -31 c34 -36 80 -49 127 -33 125 41
95 230 -38 230 -23 0 -52 -7 -65 -16z m-66 -171 c4 -65 8 -135 9 -157 l1 -38
-110 2 c-60 2 -126 4 -145 5 l-35 2 3 114 c5 178 -2 166 100 174 48 3 94 8
102 9 8 2 27 4 42 5 l26 1 7 -117z m-305 -43 l0 -139 -82 -3 -83 -3 -34 60
c-18 33 -37 62 -41 65 -4 3 12 40 37 83 l45 77 79 0 79 0 0 -140z"/>
</g>
</svg>
