<?xml version="1.0" standalone="no"?>
<!DOCTYPE svg PUBLIC "-//W3C//DTD SVG 20010904//EN"
 "http://www.w3.org/TR/2001/REC-SVG-20010904/DTD/svg10.dtd">
<svg version="1.0" xmlns="http://www.w3.org/2000/svg"
 width="148.000000pt" height="125.000000pt" viewBox="0 0 148.000000 125.000000"
 preserveAspectRatio="xMidYMid meet">
<metadata>
Created by potrace 1.16, written by Peter Selinger 2001-2019
</metadata>
<g transform="translate(0.000000,125.000000) scale(0.100000,-0.100000)"
fill="#000000" stroke="none">
<path d="M766 943 c-3 -4 -13 -8 -21 -9 -23 -3 -414 -249 -444 -280 -2 -2 2
-10 8 -18 8 -10 9 -16 1 -21 -5 -3 -10 -10 -10 -14 0 -14 416 -281 444 -285 6
-1 16 -5 23 -9 20 -13 413 290 413 318 0 8 -39 46 -87 86 -49 39 -89 75 -91
79 -1 4 22 26 53 50 77 59 69 71 -10 15 -36 -26 -71 -45 -78 -42 -6 3 -52 35
-100 71 -98 73 -91 69 -101 59z m77 -103 c43 -29 80 -56 83 -61 6 -11 -373
-279 -395 -279 -5 0 -167 112 -178 123 -2 2 39 33 89 69 51 36 140 102 197
146 83 65 106 79 115 68 6 -7 46 -37 89 -66z m226 -150 c87 -54 100 -66 86
-75 -67 -39 -392 -259 -401 -270 -9 -12 -25 -4 -93 50 -45 35 -81 68 -79 72 1
4 40 36 87 70 47 34 131 98 186 142 55 44 102 80 105 78 3 -1 52 -31 109 -67z"/>
</g>
</svg>
