<?xml version="1.0" standalone="no"?>
<!DOCTYPE svg PUBLIC "-//W3C//DTD SVG 20010904//EN"
 "http://www.w3.org/TR/2001/REC-SVG-20010904/DTD/svg10.dtd">
<svg version="1.0" xmlns="http://www.w3.org/2000/svg"
 width="148.000000pt" height="125.000000pt" viewBox="0 0 148.000000 125.000000"
 preserveAspectRatio="xMidYMid meet">
<metadata>
Created by potrace 1.16, written by Peter Selinger 2001-2019
</metadata>
<g transform="translate(0.000000,125.000000) scale(0.100000,-0.100000)"
fill="#000000" stroke="none">
<path d="M766 943 c-3 -4 -13 -8 -21 -9 -22 -3 -413 -249 -444 -280 -2 -2 2
-10 8 -18 8 -10 9 -16 1 -21 -5 -3 -10 -10 -10 -14 0 -14 416 -281 444 -285 6
-1 16 -5 23 -9 20 -13 413 290 413 318 0 16 -111 109 -278 233 -136 101 -126
95 -136 85z m185 -175 c102 -68 194 -128 204 -133 14 -9 3 -19 -72 -66 -67
-42 -92 -53 -99 -44 -9 12 -233 179 -327 244 -26 18 -47 37 -45 41 2 5 32 31
67 59 52 40 67 47 75 36 6 -7 95 -69 197 -137z m-378 -34 c-72 -44 -106 -24
-40 23 38 27 44 29 60 15 16 -14 15 -17 -20 -38z m87 -12 c0 -4 -20 -19 -44
-33 -35 -21 -46 -24 -59 -14 -14 10 -11 15 26 42 31 22 47 28 60 21 9 -5 17
-12 17 -16z m56 -40 c-2 -4 -25 -18 -50 -32 -38 -20 -48 -22 -58 -11 -9 9 -10
15 -2 18 6 2 26 15 44 28 25 19 37 22 52 14 10 -5 17 -13 14 -17z m-54 -116
c112 -74 205 -132 208 -129 3 3 -6 14 -20 25 -20 16 -22 21 -10 28 8 5 30 20
49 34 33 25 35 25 63 9 15 -10 28 -20 28 -23 0 -4 -48 -39 -107 -80 -60 -40
-113 -79 -119 -86 -9 -12 -25 -3 -85 45 -41 32 -127 97 -192 144 -65 48 -119
89 -120 92 -2 4 91 75 99 75 2 0 94 -60 206 -134z m99 93 c19 -10 17 -13 -26
-40 -30 -19 -54 -28 -66 -24 -27 9 -24 16 19 47 43 31 47 32 73 17z m63 -42
c17 -13 15 -16 -32 -45 -44 -27 -52 -29 -69 -17 -20 15 -19 17 29 51 39 27 48
29 72 11z m62 -41 c19 -15 19 -15 0 -29 -11 -8 -35 -23 -53 -33 -31 -16 -35
-16 -50 -2 -14 15 -12 19 27 47 49 36 50 36 76 17z"/>
</g>
</svg>
