<?xml version="1.0" standalone="no"?>
<!DOCTYPE svg PUBLIC "-//W3C//DTD SVG 20010904//EN"
 "http://www.w3.org/TR/2001/REC-SVG-20010904/DTD/svg10.dtd">
<svg version="1.0" xmlns="http://www.w3.org/2000/svg"
 width="242.000000pt" height="138.000000pt" viewBox="0 0 242.000000 138.000000"
 preserveAspectRatio="xMidYMid meet">
<metadata>
Created by potrace 1.16, written by Peter Selinger 2001-2019
</metadata>
<g transform="translate(0.000000,138.000000) scale(0.100000,-0.100000)"
fill="#000000" stroke="none">
<path d="M406 1058 c-29 -44 -75 -154 -91 -213 -19 -75 -19 -155 0 -230 26
-99 140 -328 154 -307 3 5 76 48 161 95 85 47 229 128 320 180 l165 96 6 -107
c4 -59 7 -113 8 -121 1 -12 70 -13 474 -7 259 5 479 8 488 8 13 0 17 19 23
120 3 67 6 189 6 272 l0 151 -62 0 c-35 1 -256 5 -493 9 -374 8 -432 7 -442
-6 -8 -9 -13 -61 -15 -146 l-3 -132 -161 94 c-242 141 -478 266 -502 266 -12
0 -28 -10 -36 -22z m125 -69 c68 -34 79 -42 68 -55 -6 -8 -10 -16 -8 -17 2 -2
60 -48 129 -103 69 -55 153 -119 188 -143 l63 -44 -38 -18 c-21 -10 -41 -18
-44 -19 -4 0 -104 83 -224 185 -120 102 -223 185 -230 185 -7 0 -15 -6 -18
-14 -6 -14 196 -182 356 -296 48 -34 87 -65 87 -68 0 -4 -29 -22 -65 -41 l-65
-33 -66 58 c-190 170 -290 253 -301 249 -17 -6 -17 -8 17 86 28 78 54 129 65
129 3 0 42 -18 86 -41z m1543 -176 c4 -93 9 -207 12 -256 l6 -88 -163 6 c-90
3 -262 8 -381 11 -155 4 -216 9 -213 18 4 11 14 305 15 404 l0 52 158 1 c136
1 476 12 538 17 21 2 22 -2 28 -165z m-764 19 c0 -71 3 -177 7 -235 l6 -107
-89 0 -89 0 7 127 c3 71 6 176 7 236 l1 107 75 0 75 0 0 -128z m-252 -164
c-29 -15 -59 -27 -66 -28 -7 0 -67 48 -135 108 -67 59 -142 123 -166 143 -35
29 4 12 188 -79 l232 -116 -53 -28z m-584 14 c67 -54 147 -118 179 -142 l59
-44 -46 -23 -46 -24 -125 101 c-69 55 -128 100 -131 99 -14 -2 -24 28 -24 79
0 28 3 52 7 52 3 0 61 -44 127 -98z m-7 -149 c47 -36 97 -70 110 -76 13 -5 23
-13 23 -16 0 -7 -151 -84 -155 -79 -8 9 -74 188 -80 217 -8 39 -14 42 102 -46z"/>
</g>
</svg>
