<?xml version="1.0" standalone="no"?>
<!DOCTYPE svg PUBLIC "-//W3C//DTD SVG 20010904//EN"
 "http://www.w3.org/TR/2001/REC-SVG-20010904/DTD/svg10.dtd">
<svg version="1.0" xmlns="http://www.w3.org/2000/svg"
 width="155.000000pt" height="148.000000pt" viewBox="0 0 155.000000 148.000000"
 preserveAspectRatio="xMidYMid meet">
<metadata>
Created by potrace 1.16, written by Peter Selinger 2001-2019
</metadata>
<g transform="translate(0.000000,148.000000) scale(0.100000,-0.100000)"
fill="#000000" stroke="none">
<path d="M685 1169 c-9 -13 -5 -16 138 -138 60 -51 112 -89 115 -86 4 4 -29
40 -73 81 -137 127 -173 155 -180 143z"/>
<path d="M1190 1011 c-68 -21 -120 -66 -120 -105 0 -8 -16 -20 -35 -26 -19 -6
-46 -25 -59 -41 l-25 -29 -198 2 -198 3 3 40 c2 22 5 42 7 43 2 2 100 6 219 9
119 3 216 9 216 13 0 11 -219 20 -472 20 l-228 0 0 -170 c0 -111 4 -178 12
-196 l12 -26 316 7 c309 7 368 10 376 18 7 7 -200 17 -338 17 l-128 0 0 33 0
34 122 6 c226 13 296 9 349 -15 37 -18 48 -29 53 -54 10 -52 96 -114 156 -114
20 0 20 4 18 267 -3 290 -1 281 -58 264z m1 -35 c-20 -24 -25 -125 -8 -173
l14 -41 -26 9 c-43 17 -51 29 -51 81 0 45 -2 50 -20 45 -24 -6 -24 -4 -5 32 8
16 33 38 57 49 45 23 59 22 39 -2z m-841 -121 c0 -25 -4 -45 -10 -45 -5 0 -10
20 -10 45 0 25 5 45 10 45 6 0 10 -20 10 -45z m50 0 c0 -25 -4 -45 -10 -45 -5
0 -10 20 -10 45 0 25 5 45 10 45 6 0 10 -20 10 -45z m70 0 c0 -38 -3 -45 -20
-45 -17 0 -20 7 -20 45 0 38 3 45 20 45 17 0 20 -7 20 -45z m60 0 c0 -33 -4
-45 -15 -45 -11 0 -15 12 -15 45 0 33 4 45 15 45 11 0 15 -12 15 -45z m523
-37 c-13 -51 -9 -105 12 -160 6 -16 4 -16 -24 -7 -44 15 -81 63 -81 105 0 19
4 34 9 34 5 0 8 8 7 17 0 9 14 27 33 40 53 36 60 31 44 -29z m-113 -52 c0 -14
4 -36 10 -51 l10 -25 -203 2 -202 3 1 40 1 40 124 5 c271 12 259 13 259 -14z
m-590 -26 c0 -22 -4 -40 -10 -40 -5 0 -10 18 -10 40 0 22 5 40 10 40 6 0 10
-18 10 -40z m50 0 c0 -30 -4 -40 -16 -40 -11 0 -14 5 -10 16 3 9 6 27 6 40 0
13 5 24 10 24 6 0 10 -18 10 -40z m70 -5 c0 -38 -3 -45 -20 -45 -17 0 -20 7
-20 45 0 38 3 45 20 45 17 0 20 -7 20 -45z m58 3 c-2 -30 -8 -43 -18 -43 -9 0
-14 9 -13 23 0 12 1 31 2 42 1 11 8 20 17 20 12 0 14 -9 12 -42z m642 4 c-8
-3 -23 -9 -32 -14 -15 -7 -18 -4 -18 22 l0 31 33 -17 c22 -12 27 -19 17 -22z
m23 -34 c-21 -41 -21 -135 0 -177 16 -32 16 -32 -6 -26 -37 11 -71 40 -90 76
-17 33 -17 34 3 37 16 3 20 11 20 42 0 35 4 42 38 59 50 27 53 26 35 -11z
m-843 -83 c0 -24 -5 -35 -15 -35 -10 0 -15 11 -15 35 0 24 5 35 15 35 10 0 15
-11 15 -35z m60 0 c0 -28 -4 -35 -20 -35 -16 0 -20 7 -20 35 0 28 4 35 20 35
16 0 20 -7 20 -35z m60 -1 c0 -31 -3 -35 -22 -32 -13 2 -22 6 -20 11 1 4 2 18
2 32 0 18 5 25 20 25 16 0 20 -7 20 -36z m60 1 c0 -28 -4 -35 -20 -35 -16 0
-20 7 -20 35 0 28 4 35 20 35 16 0 20 -7 20 -35z"/>
<path d="M809 436 c-114 -96 -141 -126 -114 -126 13 0 245 209 245 221 0 5 -1
9 -3 9 -2 0 -59 -47 -128 -104z"/>
</g>
</svg>
