<?xml version="1.0" standalone="no"?>
<!DOCTYPE svg PUBLIC "-//W3C//DTD SVG 20010904//EN"
 "http://www.w3.org/TR/2001/REC-SVG-20010904/DTD/svg10.dtd">
<svg version="1.0" xmlns="http://www.w3.org/2000/svg"
 width="188.000000pt" height="117.000000pt" viewBox="0 0 188.000000 117.000000"
 preserveAspectRatio="xMidYMid meet">
<metadata>
Created by potrace 1.16, written by Peter Selinger 2001-2019
</metadata>
<g transform="translate(0.000000,117.000000) scale(0.100000,-0.100000)"
fill="#000000" stroke="none">
<path d="M583 863 c-8 -3 -13 -24 -13 -54 0 -27 -2 -49 -3 -49 -2 0 -53 16
-113 35 -165 52 -154 58 -154 -87 1 -68 5 -168 10 -223 5 -64 5 -102 -1 -106
-6 -3 -4 -11 5 -18 12 -10 37 -6 132 23 64 20 121 36 125 36 5 0 9 -21 9 -47
0 -27 4 -54 9 -62 8 -12 82 -13 492 -8 265 4 484 8 486 10 2 2 6 125 10 274
l6 270 -279 6 c-317 8 -703 8 -721 0z m951 -180 c3 -87 9 -201 12 -254 l5 -96
-378 5 c-208 2 -379 5 -380 6 -2 2 1 36 5 76 6 67 9 74 32 81 14 4 78 24 143
44 64 20 117 41 117 45 0 5 -65 30 -145 55 l-145 46 0 63 0 64 313 9 c171 5
335 10 363 11 l52 2 6 -157z m-764 76 c0 -51 -3 -60 -15 -55 -9 3 -41 13 -73
22 -71 20 -76 25 -67 63 l7 31 74 0 74 0 0 -61z m-242 -20 l42 -11 2 -119 c1
-66 2 -126 2 -135 1 -13 -26 -25 -114 -50 -63 -18 -116 -31 -118 -30 -1 2 1
91 4 198 l7 196 66 -19 c36 -11 85 -24 109 -30z m190 -55 l52 -15 0 -79 0 -79
-42 -11 c-24 -6 -56 -15 -72 -20 -16 -6 -33 -10 -37 -10 -5 0 -9 54 -9 121 l0
121 28 -7 c15 -3 51 -13 80 -21z m232 -63 c58 -16 98 -31 90 -35 -8 -3 -58
-17 -110 -31 -52 -14 -103 -28 -112 -31 -16 -5 -18 3 -18 66 0 68 1 70 23 65
12 -3 69 -19 127 -34z m-176 -172 c3 -17 6 -48 6 -68 l0 -36 -90 3 c-97 4 -97
4 -81 62 6 20 20 29 76 46 39 12 73 23 76 23 4 1 9 -13 13 -30z"/>
</g>
</svg>
