<?xml version="1.0" standalone="no"?>
<!DOCTYPE svg PUBLIC "-//W3C//DTD SVG 20010904//EN"
 "http://www.w3.org/TR/2001/REC-SVG-20010904/DTD/svg10.dtd">
<svg version="1.0" xmlns="http://www.w3.org/2000/svg"
 width="147.000000pt" height="152.000000pt" viewBox="0 0 147.000000 152.000000"
 preserveAspectRatio="xMidYMid meet">
<metadata>
Created by potrace 1.16, written by Peter Selinger 2001-2019
</metadata>
<g transform="translate(0.000000,152.000000) scale(0.100000,-0.100000)"
fill="#000000" stroke="none">
<path d="M461 1206 c-13 -15 1 -32 191 -231 51 -54 56 -62 42 -75 -14 -13 -20
-11 -52 26 -201 226 -228 250 -239 217 -3 -7 53 -73 122 -148 106 -112 125
-138 115 -150 -10 -12 -23 -3 -80 58 -37 39 -93 102 -125 139 -46 53 -61 65
-72 57 -7 -6 -13 -15 -13 -20 0 -4 56 -69 125 -143 75 -80 121 -137 114 -141
-13 -9 -38 14 -162 153 -90 101 -102 111 -116 97 -17 -17 -24 -8 148 -188 l94
-99 -59 -61 c-32 -34 -90 -94 -128 -134 -60 -62 -68 -74 -56 -88 7 -9 16 -14
19 -13 6 3 131 139 216 235 21 25 31 30 41 22 11 -9 -13 -39 -109 -140 -114
-121 -138 -157 -111 -166 6 -2 66 58 133 132 100 111 125 134 137 124 12 -9 5
-21 -36 -69 -27 -31 -56 -63 -65 -70 -8 -7 -43 -44 -77 -82 -53 -60 -59 -71
-47 -84 13 -12 30 3 137 121 68 74 128 135 133 135 5 0 12 -7 15 -15 4 -10
-20 -42 -68 -93 -145 -150 -180 -191 -173 -201 14 -24 37 -6 143 112 61 68
117 129 125 135 16 13 11 17 191 -157 60 -58 107 -101 105 -94 -2 7 -61 73
-131 147 -71 74 -128 139 -128 145 0 35 36 10 155 -109 73 -73 137 -131 143
-129 5 2 -50 67 -124 144 -126 132 -132 140 -117 158 16 17 24 11 155 -120 75
-75 140 -134 144 -130 4 4 -35 51 -87 104 -185 193 -175 181 -156 200 16 17
24 10 152 -117 74 -74 138 -131 142 -127 4 4 -33 49 -83 100 -49 51 -109 113
-132 138 l-44 46 131 139 c72 77 131 143 131 149 0 5 -63 -53 -139 -129 -121
-120 -142 -138 -155 -127 -23 19 -20 34 15 67 59 56 234 247 222 243 -6 -2
-70 -62 -143 -132 -108 -105 -134 -126 -146 -116 -8 6 -14 15 -14 20 0 5 58
71 130 146 71 76 127 139 124 142 -2 3 -67 -57 -143 -133 -122 -121 -139 -135
-151 -121 -15 18 -18 14 159 198 52 53 91 100 87 104 -4 4 -69 -55 -145 -131
l-138 -138 -24 30 c-39 47 -221 247 -229 250 -4 1 -12 -4 -19 -12z m284 -326
c4 -6 1 -17 -5 -26 -10 -11 -16 -12 -26 -3 -11 9 -11 15 -3 25 14 17 25 18 34
4z m53 -52 c9 -9 8 -16 -5 -30 -15 -17 -17 -17 -29 0 -9 12 -9 21 -2 29 13 16
21 16 36 1z m-101 -15 c5 -13 -25 -26 -38 -17 -6 3 -5 11 2 20 13 16 31 14 36
-3z m42 -69 c-14 -14 -17 -14 -29 0 -10 13 -10 19 0 32 12 14 15 14 29 0 14
-15 14 -17 0 -32z m109 -1 c-14 -14 -20 -14 -33 -3 -14 12 -14 15 2 32 15 17
18 17 32 3 14 -13 14 -17 -1 -32z m-216 5 c-6 -6 -15 -9 -18 -5 -4 3 -4 14 0
23 5 13 9 15 18 6 9 -9 9 -15 0 -24z m57 -54 c-9 -11 -15 -12 -25 -3 -11 9
-12 15 -3 25 9 11 15 12 25 3 11 -9 12 -15 3 -25z m112 20 c11 -14 10 -18 -6
-30 -16 -12 -21 -12 -34 0 -12 12 -12 18 -1 30 16 20 24 20 41 0z m-55 -80
c-6 -16 -8 -16 -23 -2 -9 10 -13 23 -9 34 6 16 8 16 23 2 9 -10 13 -23 9 -34z"/>
</g>
</svg>
