<?xml version="1.0" standalone="no"?>
<!DOCTYPE svg PUBLIC "-//W3C//DTD SVG 20010904//EN"
 "http://www.w3.org/TR/2001/REC-SVG-20010904/DTD/svg10.dtd">
<svg version="1.0" xmlns="http://www.w3.org/2000/svg"
 width="234.000000pt" height="306.000000pt" viewBox="0 0 234.000000 306.000000"
 preserveAspectRatio="xMidYMid meet">
<metadata>
Created by potrace 1.16, written by Peter Selinger 2001-2019
</metadata>
<g transform="translate(0.000000,306.000000) scale(0.100000,-0.100000)"
fill="#000000" stroke="none">
<path d="M581 2699 l-54 -61 -57 57 c-35 34 -63 55 -70 50 -7 -4 11 -27 50
-62 36 -33 59 -61 56 -69 -3 -8 -1 -14 4 -14 6 0 10 -12 10 -27 0 -27 0 -27
-45 17 -31 30 -48 41 -55 34 -7 -7 5 -25 39 -57 35 -33 48 -52 44 -64 -4 -10
-2 -14 4 -10 6 4 13 -4 15 -18 7 -36 -3 -31 -45 20 -21 25 -42 45 -47 45 -22
0 -8 -27 37 -72 32 -32 44 -51 37 -58 -7 -7 -19 0 -39 20 -16 16 -32 30 -37
30 -20 0 -4 -26 42 -67 41 -37 48 -48 39 -60 -10 -12 -17 -9 -44 17 -17 16
-34 30 -38 30 -18 0 -3 -23 43 -66 48 -45 49 -48 34 -66 -10 -10 -14 -21 -11
-25 4 -4 13 2 21 12 13 18 15 14 21 -40 7 -55 6 -60 -16 -74 -41 -27 -150
-134 -181 -179 -41 -60 -45 -99 -18 -175 28 -76 79 -149 126 -178 76 -47 228
-33 370 32 38 17 149 67 246 110 258 114 478 227 446 229 -5 0 -124 -50 -265
-111 -142 -61 -311 -134 -375 -162 -65 -27 -118 -56 -118 -62 0 -16 -55 -25
-149 -25 -102 0 -148 23 -200 100 -34 52 -55 109 -63 175 -4 30 27 69 111 142
75 64 319 233 337 233 8 0 92 -175 139 -290 24 -60 40 -65 31 -11 l-6 39 153
57 c83 32 192 75 241 97 49 21 90 37 91 35 1 -1 10 -27 20 -57 30 -94 76 -200
85 -195 8 5 -1 44 -51 208 -23 75 -38 92 -64 68 -6 -4 -50 -23 -100 -40 -49
-18 -157 -57 -238 -88 -81 -31 -149 -54 -151 -52 -7 10 -106 239 -106 247 0 5
-7 15 -15 22 -12 10 -35 0 -132 -61 -65 -41 -121 -75 -125 -77 -4 -2 -8 15 -8
37 0 32 3 39 15 35 20 -8 19 5 -2 28 -16 18 -14 21 30 66 26 26 47 51 47 55 0
17 -26 4 -51 -25 -24 -29 -28 -31 -35 -15 -5 14 5 31 42 68 34 35 45 52 37 60
-7 7 -19 0 -41 -27 -27 -32 -32 -35 -38 -20 -5 13 6 31 41 66 33 33 43 50 35
55 -8 5 -25 -7 -46 -31 l-33 -39 -1 29 c0 20 13 45 40 77 36 43 49 69 35 69
-3 0 -19 -16 -36 -35 -17 -19 -35 -33 -39 -30 -22 13 1 60 54 114 49 49 60 71
37 71 -4 0 -31 -27 -60 -61z m-51 -315 c0 -8 -4 -12 -10 -9 -5 3 -10 10 -10
16 0 5 5 9 10 9 6 0 10 -7 10 -16z m0 -80 c0 -8 -5 -12 -10 -9 -6 4 -8 11 -5
16 9 14 15 11 15 -7z"/>
<path d="M955 2409 c-128 -103 -126 -101 -115 -118 7 -12 18 -7 56 25 74 60
174 155 174 165 0 18 -17 7 -115 -72z"/>
<path d="M570 2090 c-13 -8 -7 -24 34 -102 81 -152 137 -248 147 -248 4 0 -11
42 -35 93 -88 185 -127 267 -129 267 -1 0 -9 -5 -17 -10z"/>
<path d="M965 1229 c-4 -6 -13 -8 -21 -5 -17 6 -194 -100 -301 -181 -85 -64
-165 -150 -193 -208 -19 -39 -19 -44 -5 -100 34 -127 105 -213 197 -235 98
-24 200 1 432 107 l128 58 85 -87 85 -87 -78 -86 c-85 -92 -94 -105 -71 -105
11 0 140 133 164 169 1 2 10 -2 20 -10 15 -12 16 -12 10 4 -6 15 0 17 46 17
l51 0 -69 -70 c-49 -50 -66 -73 -58 -81 7 -7 29 10 76 61 56 62 68 71 88 65
21 -7 22 -6 10 9 -12 14 -9 16 30 16 l44 0 -68 -71 c-51 -53 -66 -74 -57 -83
8 -8 28 8 78 63 62 68 70 73 90 62 24 -13 30 -3 10 17 -9 9 -4 12 22 12 l34 0
-69 -70 c-47 -48 -66 -73 -59 -80 7 -7 33 13 82 63 69 72 72 74 89 55 16 -18
15 -21 -27 -63 -31 -31 -41 -48 -34 -55 8 -8 31 11 77 60 37 38 71 70 75 70 5
0 17 -9 27 -20 10 -11 23 -20 28 -20 6 0 -1 13 -16 28 -15 15 -27 31 -27 35 0
4 34 7 75 7 43 0 75 4 75 10 0 6 -27 10 -60 10 -60 0 -70 6 -48 28 7 7 8 12 2
12 -6 0 -19 -9 -29 -20 -10 -11 -24 -20 -31 -20 -6 0 -40 32 -74 71 -42 46
-66 67 -73 60 -6 -6 4 -27 32 -60 24 -28 40 -55 36 -61 -15 -24 -47 -6 -105
60 -34 38 -66 67 -71 64 -14 -9 -11 -17 24 -55 72 -80 69 -74 39 -76 -21 -1
-42 13 -93 64 -42 41 -71 63 -79 58 -8 -5 7 -26 45 -65 l58 -58 -47 0 c-45 1
-50 4 -111 71 -53 58 -66 67 -71 53 -5 -13 8 -32 47 -72 l53 -54 -32 0 c-18 0
-32 5 -32 11 0 8 -5 8 -15 -1 -13 -10 -26 -1 -82 60 -38 40 -71 79 -76 86 -5
9 46 39 186 107 168 82 229 117 201 117 -21 0 -754 -326 -754 -336 0 -29 -195
-33 -255 -5 -66 30 -136 142 -150 242 l-7 45 90 86 c70 66 267 210 358 261 6
4 42 -62 90 -169 78 -172 79 -174 84 -133 l5 41 185 72 c102 40 207 82 234 94
55 25 61 23 71 -15 6 -28 74 -205 81 -212 2 -2 7 -2 10 1 6 7 -5 54 -48 190
-27 91 -31 97 -49 87 -11 -6 -88 -35 -172 -65 l-151 -55 -56 25 c-30 13 -89
38 -132 56 -61 25 -78 37 -88 61 -7 16 -11 32 -9 34 3 2 52 -13 109 -34 121
-44 160 -55 160 -43 0 9 -68 42 -189 92 -84 35 -78 33 -86 19z m253 -223 c1
-2 -26 -13 -60 -26 -35 -12 -68 -25 -74 -27 -9 -3 -64 100 -64 120 0 5 190
-60 198 -67z m619 -543 c-14 -14 -18 -14 -33 -2 -16 13 -15 14 12 20 37 7 42
3 21 -18z"/>
<path d="M704 1016 c-6 -15 29 -90 113 -239 48 -85 73 -120 73 -103 0 21 -161
356 -172 356 -5 0 -11 -6 -14 -14z"/>
</g>
</svg>
