<?xml version="1.0" standalone="no"?>
<!DOCTYPE svg PUBLIC "-//W3C//DTD SVG 20010904//EN"
 "http://www.w3.org/TR/2001/REC-SVG-20010904/DTD/svg10.dtd">
<svg version="1.0" xmlns="http://www.w3.org/2000/svg"
 width="131.000000pt" height="165.000000pt" viewBox="0 0 131.000000 165.000000"
 preserveAspectRatio="xMidYMid meet">
<metadata>
Created by potrace 1.16, written by Peter Selinger 2001-2019
</metadata>
<g transform="translate(0.000000,165.000000) scale(0.100000,-0.100000)"
fill="#000000" stroke="none">
<path d="M536 1270 c-98 -137 -141 -206 -176 -283 -19 -42 -41 -76 -47 -77
-18 0 -16 -17 6 -83 32 -93 95 -219 138 -275 42 -55 231 -252 242 -252 3 0 11
9 16 19 6 10 42 58 81 105 95 116 138 192 175 306 34 104 49 200 31 200 -15 0
-62 88 -62 117 0 16 -7 27 -20 30 -11 3 -60 53 -110 112 -139 165 -130 156
-178 156 -41 0 -43 -1 -96 -75z m199 -62 c129 -137 132 -127 -50 -121 -184 7
-190 5 -180 -69 l7 -48 -62 0 c-46 0 -59 3 -54 13 80 133 218 316 241 317 6 0
50 -41 98 -92z m15 -178 c0 -25 -4 -30 -25 -30 -34 0 -36 46 -2 53 12 2 23 5
25 6 1 0 2 -12 2 -29z m90 0 c0 -27 -3 -30 -30 -30 -27 0 -30 3 -30 30 0 27 3
30 30 30 27 0 30 -3 30 -30z m-240 -5 c0 -22 -4 -25 -35 -25 -31 0 -35 3 -35
25 0 22 4 25 35 25 31 0 35 -3 35 -25z m70 0 c0 -20 -5 -25 -25 -25 -20 0 -25
5 -25 25 0 20 5 25 25 25 20 0 25 -5 25 -25z m220 0 l23 -25 -26 0 c-22 0 -27
5 -27 25 0 14 1 25 3 25 2 0 14 -11 27 -25z m-290 -85 c0 -39 -1 -40 -35 -40
-34 0 -35 1 -35 40 0 39 1 40 35 40 34 0 35 -1 35 -40z m74 18 c12 -47 8 -58
-24 -58 -28 0 -30 2 -30 40 0 35 3 40 24 40 16 0 26 -7 30 -22z m78 -18 c3
-38 2 -40 -24 -40 -26 0 -28 3 -28 40 0 36 3 40 24 40 21 0 24 -6 28 -40z m88
0 c0 -38 -2 -40 -30 -40 -28 0 -30 2 -30 40 0 38 2 40 30 40 28 0 30 -2 30
-40z m80 0 c0 -37 -2 -40 -28 -40 -26 0 -28 3 -28 40 1 37 3 40 29 40 25 0 27
-3 27 -40z m-410 -60 l0 -70 -60 0 c-54 0 -60 2 -66 24 -3 13 -4 41 -2 62 4
36 7 40 38 45 19 4 47 7 63 8 l27 1 0 -70z m90 -35 c0 -33 -2 -35 -32 -35 -29
0 -33 3 -35 29 -2 24 3 31 20 34 45 9 47 7 47 -28z m78 -2 c3 -31 1 -33 -27
-33 -27 0 -31 3 -31 28 0 35 8 44 35 40 15 -2 21 -12 23 -35z m80 0 c3 -31 1
-33 -27 -33 -29 0 -31 3 -31 36 0 33 2 35 28 32 22 -2 28 -8 30 -35z m84 2 c4
-34 3 -35 -29 -35 -31 0 -33 2 -33 35 0 32 3 35 29 35 25 0 29 -4 33 -35z m78
-4 c0 -32 -3 -39 -17 -36 -10 2 -22 4 -28 4 -8 1 -12 49 -6 69 1 1 12 2 26 2
22 0 25 -4 25 -39z m-403 -103 l8 -53 183 3 c137 2 182 0 182 -9 0 -31 -182
-339 -200 -339 -9 0 -122 145 -179 229 -24 35 -58 95 -76 135 l-34 71 42 6
c23 3 47 7 54 7 7 1 15 -20 20 -50z m163 11 c0 -37 -2 -39 -30 -39 -27 0 -30
3 -30 34 0 34 6 41 41 43 16 2 19 -5 19 -38z m80 1 c0 -38 -2 -40 -30 -40 -28
0 -30 3 -30 34 0 35 1 35 53 45 4 0 7 -17 7 -39z m90 0 c0 -39 -1 -40 -35 -40
-34 0 -35 1 -35 40 0 39 1 40 35 40 34 0 35 -1 35 -40z m70 26 c0 -33 -20 -66
-40 -66 -16 0 -20 7 -20 33 0 19 3 37 7 40 12 13 53 7 53 -7z m-316 -18 c11
-44 8 -49 -31 -46 -35 3 -38 6 -41 36 -3 30 -2 32 31 32 27 0 36 -5 41 -22z"/>
</g>
</svg>
