<?xml version="1.0" standalone="no"?>
<!DOCTYPE svg PUBLIC "-//W3C//DTD SVG 20010904//EN"
 "http://www.w3.org/TR/2001/REC-SVG-20010904/DTD/svg10.dtd">
<svg version="1.0" xmlns="http://www.w3.org/2000/svg"
 width="139.000000pt" height="163.000000pt" viewBox="0 0 139.000000 163.000000"
 preserveAspectRatio="xMidYMid meet">
<metadata>
Created by potrace 1.16, written by Peter Selinger 2001-2019
</metadata>
<g transform="translate(0.000000,163.000000) scale(0.100000,-0.100000)"
fill="#000000" stroke="none">
<path d="M444 1253 c-67 -92 -109 -176 -124 -250 -14 -66 2 -130 55 -218 l36
-59 -49 -106 c-55 -118 -69 -156 -54 -146 11 6 92 143 113 189 7 15 15 26 19
25 4 -2 33 -31 65 -66 l58 -63 -23 -47 c-45 -93 -89 -202 -81 -202 9 0 66 89
100 157 21 42 29 48 61 43 12 -2 12 1 -2 17 -15 17 -16 38 -8 233 5 118 9 216
10 217 2 12 136 160 183 204 37 34 57 60 53 67 -4 7 -11 12 -16 12 -20 0 -113
-97 -163 -170 l-54 -80 -7 92 c-3 50 -6 113 -6 140 0 44 -2 48 -24 48 l-24 0
5 -127 c2 -71 5 -138 7 -150 2 -15 -2 -23 -11 -23 -14 0 -185 41 -192 46 -8 6
52 119 99 187 47 69 62 107 41 107 -5 0 -35 -35 -67 -77z m135 -489 l3 -198
-37 44 c-119 142 -185 266 -185 346 l0 51 108 -22 107 -22 4 -199z"/>
<path d="M895 1227 c-2 -7 -19 -68 -39 -137 -20 -69 -70 -233 -111 -364 -41
-132 -75 -242 -75 -245 0 -4 7 3 15 13 8 11 16 18 19 15 2 -2 27 -50 56 -106
88 -173 83 -125 -10 97 l-31 75 55 140 c45 117 57 139 72 136 242 -49 258 -51
241 -35 -3 3 -59 19 -124 36 -65 16 -120 31 -122 33 -2 3 6 30 17 62 22 60 82
260 82 273 0 13 -41 19 -45 7z"/>
</g>
</svg>
