<?xml version="1.0" standalone="no"?>
<!DOCTYPE svg PUBLIC "-//W3C//DTD SVG 20010904//EN"
 "http://www.w3.org/TR/2001/REC-SVG-20010904/DTD/svg10.dtd">
<svg version="1.0" xmlns="http://www.w3.org/2000/svg"
 width="209.000000pt" height="162.000000pt" viewBox="0 0 209.000000 162.000000"
 preserveAspectRatio="xMidYMid meet">
<metadata>
Created by potrace 1.16, written by Peter Selinger 2001-2019
</metadata>
<g transform="translate(0.000000,162.000000) scale(0.100000,-0.100000)"
fill="#000000" stroke="none">
<path d="M559 1250 c-75 -83 -135 -178 -149 -235 -13 -52 -20 -72 -70 -184
-22 -51 -38 -96 -35 -99 7 -7 5 -9 57 80 l45 77 13 -42 c17 -58 54 -129 112
-216 27 -41 43 -71 35 -68 -11 4 -28 -23 -64 -101 -56 -121 -68 -152 -56 -152
7 0 79 120 117 198 18 36 28 39 46 17 33 -39 15 1 -40 91 -72 118 -121 240
-126 310 l-3 51 96 7 c53 4 99 4 104 -1 10 -10 14 -417 4 -433 -7 -11 113
-250 126 -250 13 0 14 -5 -45 138 l-54 130 9 174 c4 95 8 190 8 211 l1 37 118
1 c64 0 135 3 157 8 40 7 40 7 -24 14 -35 4 -106 7 -157 7 l-94 0 -1 83 c-1
45 -4 111 -8 147 -6 61 -8 65 -32 68 -22 3 -38 -9 -90 -68z m83 -112 l4 -118
-93 0 c-70 0 -93 3 -93 13 0 38 155 247 170 230 4 -4 10 -61 12 -125z"/>
<path d="M1090 931 l0 -151 48 0 c26 0 99 5 162 10 208 18 362 59 399 106 14
17 29 24 57 25 l39 1 -35 7 c-19 4 -49 21 -67 38 -58 54 -234 94 -485 109
l-118 7 0 -152z m400 99 c109 -22 178 -48 200 -75 14 -17 5 -18 -227 -13
l-243 6 0 -25 0 -25 98 6 c53 3 162 8 242 11 l145 6 -28 -25 c-51 -47 -252
-90 -459 -98 -69 -3 -75 -2 -63 12 22 25 45 86 45 122 0 34 -36 118 -51 118
-5 0 -9 3 -9 8 0 13 246 -7 350 -28z"/>
</g>
</svg>
