<?xml version="1.0" standalone="no"?>
<!DOCTYPE svg PUBLIC "-//W3C//DTD SVG 20010904//EN"
 "http://www.w3.org/TR/2001/REC-SVG-20010904/DTD/svg10.dtd">
<svg version="1.0" xmlns="http://www.w3.org/2000/svg"
 width="111.000000pt" height="152.000000pt" viewBox="0 0 111.000000 152.000000"
 preserveAspectRatio="xMidYMid meet">
<metadata>
Created by potrace 1.16, written by Peter Selinger 2001-2019
</metadata>
<g transform="translate(0.000000,152.000000) scale(0.100000,-0.100000)"
fill="#000000" stroke="none">
<path d="M305 1210 c-4 -6 47 -65 113 -132 65 -67 121 -117 125 -112 5 9 -210
251 -225 253 -4 1 -10 -4 -13 -9z"/>
<path d="M692 1104 c-114 -57 -134 -162 -45 -246 30 -29 100 -58 139 -58 l24
0 0 165 0 165 -33 0 c-18 0 -56 -12 -85 -26z m56 -26 c-31 -60 -31 -169 -1
-221 26 -44 15 -48 -46 -17 -85 43 -116 127 -72 193 25 38 87 77 138 87 2 0
-7 -19 -19 -42z"/>
<path d="M448 930 c-144 -43 -185 -192 -76 -273 35 -26 84 -44 133 -49 l30 -3
3 168 2 167 -32 -1 c-18 0 -45 -4 -60 -9z m15 -42 c-27 -50 -25 -181 4 -230
l21 -36 -30 8 c-155 45 -182 201 -46 269 62 30 72 28 51 -11z"/>
<path d="M692 734 c-121 -60 -135 -179 -30 -256 37 -28 89 -48 124 -48 l24 0
0 165 0 165 -33 0 c-18 0 -56 -12 -85 -26z m56 -26 c-31 -60 -31 -169 -1 -221
26 -44 15 -48 -46 -17 -85 43 -116 127 -72 193 25 38 87 77 138 87 2 0 -7 -19
-19 -42z"/>
<path d="M417 432 c-64 -64 -117 -121 -117 -125 0 -31 67 32 234 221 11 12 15
22 10 22 -5 0 -62 -53 -127 -118z"/>
</g>
</svg>
