<?xml version="1.0" standalone="no"?>
<!DOCTYPE svg PUBLIC "-//W3C//DTD SVG 20010904//EN"
 "http://www.w3.org/TR/2001/REC-SVG-20010904/DTD/svg10.dtd">
<svg version="1.0" xmlns="http://www.w3.org/2000/svg"
 width="152.000000pt" height="136.000000pt" viewBox="0 0 152.000000 136.000000"
 preserveAspectRatio="xMidYMid meet">
<metadata>
Created by potrace 1.16, written by Peter Selinger 2001-2019
</metadata>
<g transform="translate(0.000000,136.000000) scale(0.100000,-0.100000)"
fill="#000000" stroke="none">
<path d="M1030 1018 c0 -37 -3 -44 -21 -45 -54 -4 -109 -73 -109 -135 0 -67
72 -128 152 -128 55 0 107 26 135 69 45 67 18 147 -62 182 -25 11 -50 17 -56
13 -7 -4 -10 8 -8 37 3 35 0 44 -14 47 -14 3 -17 -4 -17 -40z m7 -105 c-3 -10
-5 -2 -5 17 0 19 2 27 5 18 2 -10 2 -26 0 -35z m26 -111 c3 -18 1 -30 -4 -26
-5 3 -9 19 -9 36 0 39 6 34 13 -10z"/>
<path d="M672 977 c-47 -15 -102 -79 -102 -120 0 -67 76 -137 150 -137 l30 0
0 135 c0 134 0 135 -22 134 -13 -1 -38 -6 -56 -12z m22 -32 c-20 -30 -23 -140
-4 -174 16 -32 6 -37 -35 -18 -43 21 -69 60 -68 104 1 37 21 66 68 94 44 27
59 25 39 -6z"/>
<path d="M383 790 c-108 -49 -108 -181 0 -230 23 -11 54 -20 70 -20 l27 0 0
135 0 135 -27 0 c-16 0 -47 -9 -70 -20z m42 -17 c-29 -69 -29 -128 0 -195 10
-26 -13 -23 -57 7 -72 49 -72 131 1 181 43 29 66 32 56 7z"/>
<path d="M1040 607 c0 -41 -2 -45 -29 -50 -39 -8 -89 -61 -97 -102 -9 -50 2
-83 41 -122 32 -32 36 -33 113 -33 73 0 81 2 107 28 74 74 55 181 -40 223 -25
11 -50 17 -56 13 -7 -4 -10 8 -8 37 3 35 0 44 -14 47 -14 3 -17 -4 -17 -41z
m7 -114 c-3 -10 -5 -2 -5 17 0 19 2 27 5 18 2 -10 2 -26 0 -35z m25 -93 c2
-22 1 -36 -3 -32 -10 11 -19 83 -9 77 4 -3 10 -23 12 -45z"/>
<path d="M650 608 c-51 -26 -90 -78 -90 -118 0 -58 67 -119 148 -134 l32 -5 0
139 c0 139 0 140 -23 140 -12 0 -43 -10 -67 -22z m35 -28 c-19 -37 -19 -130
-1 -175 l15 -35 -37 15 c-102 42 -112 149 -18 206 47 29 60 25 41 -11z"/>
</g>
</svg>
