<?xml version="1.0" standalone="no"?>
<!DOCTYPE svg PUBLIC "-//W3C//DTD SVG 20010904//EN"
 "http://www.w3.org/TR/2001/REC-SVG-20010904/DTD/svg10.dtd">
<svg version="1.0" xmlns="http://www.w3.org/2000/svg"
 width="134.000000pt" height="135.000000pt" viewBox="0 0 134.000000 135.000000"
 preserveAspectRatio="xMidYMid meet">
<metadata>
Created by potrace 1.16, written by Peter Selinger 2001-2019
</metadata>
<g transform="translate(0.000000,135.000000) scale(0.100000,-0.100000)"
fill="#000000" stroke="none">
<path d="M544 1027 c-106 -40 -156 -77 -186 -137 -32 -65 -58 -164 -58 -223 0
-80 47 -174 141 -281 33 -37 53 -49 106 -66 126 -39 208 -22 355 73 49 32 56
41 92 128 51 123 57 192 26 289 -14 43 -30 75 -42 81 -29 15 -31 7 -10 -42 35
-81 44 -176 23 -230 -7 -18 -9 -1 -7 59 3 95 -2 102 -59 78 l-37 -16 -81 70
c-45 38 -86 70 -90 70 -5 0 -11 -9 -14 -20 -5 -19 -14 -20 -159 -20 l-153 0
11 31 c13 37 78 80 167 110 86 29 163 22 279 -26 121 -50 121 -50 87 -20 -16
14 -68 45 -114 68 -106 53 -183 60 -277 24z m228 -225 c24 -20 56 -46 71 -57
24 -18 26 -24 19 -61 -6 -34 -17 -50 -69 -93 -35 -28 -63 -46 -63 -39 0 7 -2
75 -4 151 -2 75 -2 137 0 137 1 0 22 -17 46 -38z m-220 15 l148 6 0 -33 0 -32
-155 7 c-139 6 -155 5 -155 -9 0 -14 19 -16 155 -16 l155 0 0 -30 0 -30 -155
7 c-142 6 -155 5 -155 -11 0 -15 14 -17 155 -14 l155 3 0 -31 0 -31 -155 5
c-142 4 -155 3 -155 -13 0 -16 13 -17 158 -14 l157 4 3 -24 4 -24 -158 4
c-120 3 -158 1 -161 -8 -4 -10 31 -13 151 -13 132 0 156 -2 164 -16 7 -13 22
-5 88 53 l79 70 34 -24 c19 -13 42 -23 52 -23 24 0 24 -3 -2 -79 -24 -71 -32
-78 -150 -126 -92 -38 -136 -42 -217 -21 -115 31 -138 46 -176 113 -51 93 -69
156 -63 222 7 77 28 144 41 131 6 -6 62 -7 158 -3z m385 -84 c-9 -9 -20 -13
-24 -9 -4 4 -1 11 7 16 25 16 35 11 17 -7z m-27 -48 c0 -7 -7 -15 -15 -19 -15
-5 -22 24 -9 37 9 9 24 -2 24 -18z m18 -61 c10 -20 10 -24 0 -18 -27 15 -38
27 -32 35 9 16 20 10 32 -17z"/>
</g>
</svg>
