<?xml version="1.0" standalone="no"?>
<!DOCTYPE svg PUBLIC "-//W3C//DTD SVG 20010904//EN"
 "http://www.w3.org/TR/2001/REC-SVG-20010904/DTD/svg10.dtd">
<svg version="1.0" xmlns="http://www.w3.org/2000/svg"
 width="148.000000pt" height="125.000000pt" viewBox="0 0 148.000000 125.000000"
 preserveAspectRatio="xMidYMid meet">
<metadata>
Created by potrace 1.16, written by Peter Selinger 2001-2019
</metadata>
<g transform="translate(0.000000,125.000000) scale(0.100000,-0.100000)"
fill="#000000" stroke="none">
<path d="M308 945 c-10 -10 -10 -344 -1 -519 l6 -129 406 7 c223 4 415 8 427
8 20 0 21 7 28 136 3 74 6 215 6 314 l0 178 -32 -1 c-18 -1 -213 2 -433 6
-220 4 -403 4 -407 0z m835 -317 c3 -161 5 -293 4 -294 -1 -1 -92 2 -202 6
-110 5 -294 9 -409 10 l-209 0 6 137 c4 75 7 198 7 275 l0 138 243 1 c199 1
424 8 533 17 21 2 21 -2 27 -290z"/>
<path d="M453 863 c-34 -2 -66 -9 -71 -16 -8 -9 39 -12 206 -12 336 0 365 -13
344 -156 -13 -89 -43 -160 -102 -237 -22 -29 -40 -57 -40 -63 0 -8 31 -10 103
-5 56 3 121 6 145 6 39 0 42 2 42 28 0 62 -50 268 -80 328 -27 55 -37 66 -83
88 -81 40 -226 52 -464 39z m583 -322 c13 -51 24 -105 24 -118 l0 -24 -110 3
c-60 2 -110 5 -110 7 0 2 13 20 29 40 52 66 83 143 96 236 l7 50 20 -50 c11
-27 31 -92 44 -144z"/>
</g>
</svg>
