<?xml version="1.0" standalone="no"?>
<!DOCTYPE svg PUBLIC "-//W3C//DTD SVG 20010904//EN"
 "http://www.w3.org/TR/2001/REC-SVG-20010904/DTD/svg10.dtd">
<svg version="1.0" xmlns="http://www.w3.org/2000/svg"
 width="134.000000pt" height="135.000000pt" viewBox="0 0 134.000000 135.000000"
 preserveAspectRatio="xMidYMid meet">
<metadata>
Created by potrace 1.16, written by Peter Selinger 2001-2019
</metadata>
<g transform="translate(0.000000,135.000000) scale(0.100000,-0.100000)"
fill="#000000" stroke="none">
<path d="M542 1026 c-107 -40 -153 -75 -184 -136 -15 -30 -34 -85 -44 -123
-32 -132 -5 -223 106 -354 55 -66 66 -74 126 -93 97 -29 165 -27 244 11 83 39
180 101 178 114 -1 6 6 28 16 50 38 86 56 150 56 205 0 68 -35 176 -61 191
-24 12 -25 -4 -4 -55 43 -102 41 -162 -11 -327 l-24 -76 -77 -35 c-43 -20 -96
-41 -117 -48 -53 -17 -135 -8 -224 25 l-72 27 -48 96 c-44 88 -47 101 -47 171
0 59 6 94 29 154 32 89 49 103 171 152 92 37 168 31 292 -20 122 -50 122 -50
88 -20 -16 14 -68 45 -114 68 -107 53 -183 60 -279 23z"/>
<path d="M590 865 c-8 -9 5 -27 55 -74 l66 -61 -141 0 c-118 0 -140 -2 -140
-15 0 -12 16 -15 80 -15 72 0 80 -2 80 -19 0 -11 27 -43 63 -75 l62 -55 -142
-1 c-120 0 -143 -2 -143 -15 0 -13 24 -15 158 -15 182 0 343 10 337 20 -3 4
-44 8 -92 9 l-88 2 -66 72 -67 72 148 5 c82 3 151 8 154 11 4 3 -33 9 -81 12
l-88 6 -72 75 c-56 58 -74 72 -83 61z"/>
</g>
</svg>
