<?xml version="1.0" standalone="no"?>
<!DOCTYPE svg PUBLIC "-//W3C//DTD SVG 20010904//EN"
 "http://www.w3.org/TR/2001/REC-SVG-20010904/DTD/svg10.dtd">
<svg version="1.0" xmlns="http://www.w3.org/2000/svg"
 width="134.000000pt" height="135.000000pt" viewBox="0 0 134.000000 135.000000"
 preserveAspectRatio="xMidYMid meet">
<metadata>
Created by potrace 1.16, written by Peter Selinger 2001-2019
</metadata>
<g transform="translate(0.000000,135.000000) scale(0.100000,-0.100000)"
fill="#000000" stroke="none">
<path d="M544 1027 c-106 -41 -156 -77 -186 -137 -15 -30 -34 -85 -44 -123
-32 -131 -6 -218 106 -354 55 -67 65 -74 126 -93 127 -39 208 -22 356 73 49
32 56 41 92 128 51 123 57 192 26 289 -14 43 -30 75 -42 81 -28 15 -31 7 -11
-37 45 -105 45 -184 -3 -334 -28 -91 -32 -94 -155 -145 -113 -47 -166 -45
-312 11 -47 18 -51 23 -95 113 -44 87 -47 100 -47 170 0 59 6 94 29 154 32 89
55 108 175 154 89 34 167 28 288 -22 122 -50 122 -50 88 -20 -16 14 -68 45
-114 68 -106 53 -183 60 -277 24z"/>
<path d="M581 866 c-10 -12 -11 -58 -5 -196 4 -99 10 -180 15 -180 4 0 42 30
83 66 l75 65 28 -20 c15 -11 39 -21 53 -23 25 -3 25 -3 28 90 3 90 2 92 -20
92 -13 -1 -34 -7 -48 -14 -26 -15 -30 -12 -176 116 -18 16 -23 17 -33 4z m107
-100 c39 -31 61 -55 57 -64 -3 -7 -5 -24 -5 -36 0 -15 -22 -40 -70 -79 l-70
-57 0 150 c0 120 3 149 13 143 7 -4 41 -30 75 -57z m122 -41 c-7 -8 -17 -12
-22 -9 -6 4 -5 10 3 15 22 14 33 10 19 -6z m-20 -41 c0 -7 -9 -18 -20 -24 -21
-11 -27 1 -14 34 7 17 34 10 34 -10z m21 -77 c9 -16 8 -17 -10 -8 -25 14 -34
28 -25 42 7 11 12 6 35 -34z"/>
</g>
</svg>
