<?xml version="1.0" standalone="no"?>
<!DOCTYPE svg PUBLIC "-//W3C//DTD SVG 20010904//EN"
 "http://www.w3.org/TR/2001/REC-SVG-20010904/DTD/svg10.dtd">
<svg version="1.0" xmlns="http://www.w3.org/2000/svg"
 width="134.000000pt" height="135.000000pt" viewBox="0 0 134.000000 135.000000"
 preserveAspectRatio="xMidYMid meet">
<metadata>
Created by potrace 1.16, written by Peter Selinger 2001-2019
</metadata>
<g transform="translate(0.000000,135.000000) scale(0.100000,-0.100000)"
fill="#000000" stroke="none">
<path d="M544 1027 c-106 -41 -156 -77 -186 -137 -39 -79 -62 -180 -55 -250 6
-71 40 -136 117 -229 49 -58 63 -69 120 -88 39 -13 90 -22 126 -23 54 0 74 6
150 45 49 24 101 55 115 67 38 33 100 187 107 264 6 77 -27 197 -59 215 -29
15 -33 6 -14 -31 9 -17 22 -60 30 -95 15 -72 10 -113 -31 -247 l-27 -87 -96
-43 c-122 -55 -194 -58 -312 -15 -73 27 -76 29 -111 90 -77 135 -85 223 -32
366 31 82 55 103 173 148 89 34 167 28 288 -22 122 -50 122 -50 88 -20 -16 14
-68 45 -115 68 -108 53 -183 59 -276 24z"/>
<path d="M624 872 c-216 -131 -202 -119 -196 -171 2 -25 5 -46 6 -47 0 0 42
-30 91 -66 119 -87 234 -162 239 -157 3 2 6 119 8 258 2 177 0 255 -8 258 -6
2 -69 -32 -140 -75z m126 -37 l0 -86 -125 3 c-69 2 -125 5 -125 8 0 6 232 159
243 159 4 1 7 -37 7 -84z m0 -125 l0 -30 -64 0 c-62 0 -63 1 -59 25 5 22 11
24 62 28 31 2 57 4 59 5 1 1 2 -11 2 -28z m-280 -5 c0 -14 -4 -25 -10 -25 -5
0 -10 11 -10 25 0 14 5 25 10 25 6 0 10 -11 10 -25z m50 0 c0 -16 -6 -25 -15
-25 -15 0 -21 31 -8 43 13 14 23 6 23 -18z m40 0 c0 -14 -4 -25 -10 -25 -5 0
-10 11 -10 25 0 14 5 25 10 25 6 0 10 -11 10 -25z m40 16 c0 -5 3 -16 6 -25 4
-11 1 -16 -10 -16 -10 0 -16 9 -16 25 0 14 5 25 10 25 6 0 10 -4 10 -9z m150
-161 c0 -55 -2 -100 -4 -100 -1 0 -60 43 -131 94 l-127 95 58 4 c33 2 92 4
132 5 l72 2 0 -100z"/>
</g>
</svg>
