<?xml version="1.0" standalone="no"?>
<!DOCTYPE svg PUBLIC "-//W3C//DTD SVG 20010904//EN"
 "http://www.w3.org/TR/2001/REC-SVG-20010904/DTD/svg10.dtd">
<svg version="1.0" xmlns="http://www.w3.org/2000/svg"
 width="134.000000pt" height="135.000000pt" viewBox="0 0 134.000000 135.000000"
 preserveAspectRatio="xMidYMid meet">
<metadata>
Created by potrace 1.16, written by Peter Selinger 2001-2019
</metadata>
<g transform="translate(0.000000,135.000000) scale(0.100000,-0.100000)"
fill="#000000" stroke="none">
<path d="M542 1026 c-107 -40 -153 -75 -184 -136 -37 -75 -61 -180 -56 -244 6
-70 44 -146 116 -232 51 -61 65 -72 122 -92 91 -31 185 -27 260 12 84 43 170
100 168 111 -1 6 6 28 16 50 38 86 56 150 56 205 0 90 -45 200 -81 200 -5 0 2
-28 15 -62 44 -118 42 -173 -15 -344 l-20 -62 -77 -35 c-42 -19 -95 -40 -116
-47 -53 -17 -135 -8 -224 25 l-72 27 -48 96 c-44 88 -47 101 -47 171 0 108 42
223 94 255 60 38 167 76 213 76 58 0 149 -24 227 -61 35 -16 66 -27 68 -25 7
7 -84 66 -155 99 -90 42 -172 47 -260 13z"/>
<path d="M533 904 c-10 -4 -13 -61 -13 -235 l0 -229 123 1 c67 0 140 3 162 8
38 7 37 7 -30 14 -38 4 -107 7 -152 7 -67 0 -83 3 -83 15 0 12 19 15 113 16
61 0 130 3 152 8 37 6 34 8 -39 14 -43 4 -112 7 -153 7 -58 0 -73 3 -73 15 0
12 21 15 123 16 163 2 211 13 97 22 -47 4 -116 7 -153 7 -51 0 -68 3 -65 13 4
9 45 13 151 15 195 3 196 22 2 22 -138 0 -145 1 -145 20 0 16 7 20 30 20 20 0
30 -5 30 -15 0 -13 22 -15 143 -14 150 1 248 16 127 19 -72 2 -132 18 -71 19
76 2 18 10 -114 17 -77 4 -142 8 -144 10 -14 12 25 18 149 22 77 3 140 8 140
13 0 5 -65 9 -145 9 -90 0 -145 4 -145 10 0 6 33 10 78 10 42 0 109 3 147 7
67 7 68 7 30 14 -22 5 -88 8 -147 8 -60 1 -108 5 -108 10 0 5 65 12 145 16 80
4 145 11 145 16 0 5 -65 9 -145 9 -90 0 -145 4 -145 10 0 6 33 10 78 10 110 0
221 12 197 20 -23 9 -274 11 -292 4z"/>
</g>
</svg>
