<?xml version="1.0" standalone="no"?>
<!DOCTYPE svg PUBLIC "-//W3C//DTD SVG 20010904//EN"
 "http://www.w3.org/TR/2001/REC-SVG-20010904/DTD/svg10.dtd">
<svg version="1.0" xmlns="http://www.w3.org/2000/svg"
 width="135.000000pt" height="135.000000pt" viewBox="0 0 135.000000 135.000000"
 preserveAspectRatio="xMidYMid meet">
<metadata>
Created by potrace 1.16, written by Peter Selinger 2001-2019
</metadata>
<g transform="translate(0.000000,135.000000) scale(0.100000,-0.100000)"
fill="#000000" stroke="none">
<path d="M562 1030 c-76 -27 -157 -76 -177 -106 -23 -36 -54 -126 -69 -206
-12 -61 -12 -71 6 -120 11 -29 19 -61 19 -70 0 -10 4 -18 9 -18 15 0 71 -88
60 -95 -5 -3 -10 -11 -10 -17 0 -7 4 -7 14 1 10 9 22 3 53 -28 28 -28 37 -43
29 -51 -6 -6 -6 -10 0 -10 5 0 14 4 20 10 6 6 27 4 58 -5 110 -33 195 -14 336
77 53 34 57 40 94 134 44 114 54 188 33 256 -10 33 -11 50 -4 57 8 8 6 11 -5
11 -9 0 -19 9 -23 19 -5 18 -33 36 -42 28 -2 -2 4 -21 13 -42 l16 -38 -224
-224 -223 -223 -43 17 c-23 10 -44 25 -47 32 -4 10 77 98 237 258 198 198 246
242 263 236 17 -5 18 -3 8 9 -10 11 -10 17 -1 26 9 9 9 12 1 12 -7 0 -15 -4
-18 -10 -3 -5 -27 4 -55 21 -29 18 -47 35 -43 42 4 6 0 8 -10 4 -9 -3 -41 3
-71 14 -69 24 -135 23 -204 -1z m78 -33 c0 -1 -61 -63 -136 -137 -126 -125
-135 -132 -129 -100 4 19 19 61 33 93 27 63 47 78 162 124 53 21 70 26 70 20z
m114 -8 l39 -11 -204 -204 c-112 -112 -207 -200 -211 -196 -5 5 -11 32 -15 61
l-6 53 154 154 c164 165 165 165 243 143z m121 -40 l48 -21 -239 -239 c-131
-131 -241 -239 -245 -239 -3 0 -16 23 -29 50 l-24 50 209 210 c115 116 215
210 221 210 6 0 33 -9 59 -21z m134 -239 l1 -45 -162 -162 c-90 -90 -168 -163
-175 -163 -7 0 -35 5 -64 11 l-52 11 219 219 c239 240 231 235 233 129z m-33
-183 c-29 -93 -29 -94 -141 -144 -144 -65 -143 -59 15 101 80 80 146 142 148
136 2 -5 -8 -47 -22 -93z"/>
</g>
</svg>
