<?xml version="1.0" standalone="no"?>
<!DOCTYPE svg PUBLIC "-//W3C//DTD SVG 20010904//EN"
 "http://www.w3.org/TR/2001/REC-SVG-20010904/DTD/svg10.dtd">
<svg version="1.0" xmlns="http://www.w3.org/2000/svg"
 width="134.000000pt" height="135.000000pt" viewBox="0 0 134.000000 135.000000"
 preserveAspectRatio="xMidYMid meet">
<metadata>
Created by potrace 1.16, written by Peter Selinger 2001-2019
</metadata>
<g transform="translate(0.000000,135.000000) scale(0.100000,-0.100000)"
fill="#000000" stroke="none">
<path d="M544 1027 c-106 -41 -156 -77 -186 -137 -15 -30 -34 -85 -44 -123
-32 -132 -5 -223 106 -354 55 -66 66 -74 126 -93 126 -38 196 -25 346 66 45
28 62 45 79 82 43 95 69 183 69 232 0 64 -37 178 -62 191 -28 15 -30 7 -11
-37 46 -107 45 -190 -5 -338 l-27 -81 -75 -37 c-41 -20 -79 -36 -83 -35 -5 1
-22 34 -38 72 -28 67 -29 76 -27 195 l3 125 88 3 c48 1 87 7 87 12 0 5 -39 11
-87 12 -61 2 -88 7 -89 16 -1 6 -2 44 -3 82 -1 61 -3 70 -20 70 -21 0 -101
-81 -124 -126 -8 -16 -19 -45 -25 -64 -5 -19 -22 -61 -36 -92 -30 -67 -19 -77
17 -17 l25 41 10 -30 c6 -17 26 -55 45 -84 l34 -54 -33 -65 c-18 -35 -33 -72
-34 -83 0 -19 0 -19 -77 12 -46 19 -85 75 -124 182 -27 75 -22 153 17 259 31
82 55 103 173 148 89 34 167 28 288 -22 122 -50 122 -50 88 -20 -16 14 -68 45
-115 68 -108 53 -183 59 -276 24z m138 -195 l3 -52 -53 0 c-51 0 -52 1 -41 23
6 12 28 44 48 72 39 54 38 55 43 -43z m3 -197 c0 -66 -4 -122 -9 -125 -13 -7
-96 156 -103 202 -5 36 -5 37 33 41 84 9 79 16 79 -118z m-4 -151 c2 2 21 -27
41 -65 l37 -68 -35 -7 c-40 -7 -144 4 -144 16 0 4 17 37 37 73 26 45 41 63 49
56 6 -5 13 -7 15 -5z"/>
</g>
</svg>
