<?xml version="1.0" standalone="no"?>
<!DOCTYPE svg PUBLIC "-//W3C//DTD SVG 20010904//EN"
 "http://www.w3.org/TR/2001/REC-SVG-20010904/DTD/svg10.dtd">
<svg version="1.0" xmlns="http://www.w3.org/2000/svg"
 width="134.000000pt" height="135.000000pt" viewBox="0 0 134.000000 135.000000"
 preserveAspectRatio="xMidYMid meet">
<metadata>
Created by potrace 1.16, written by Peter Selinger 2001-2019
</metadata>
<g transform="translate(0.000000,135.000000) scale(0.100000,-0.100000)"
fill="#000000" stroke="none">
<path d="M544 1027 c-106 -41 -156 -77 -186 -137 -15 -30 -34 -85 -44 -123
-32 -132 -5 -223 106 -354 55 -66 66 -74 126 -93 126 -38 196 -25 346 66 45
28 62 45 79 82 43 95 69 183 69 232 0 64 -37 178 -62 191 -28 15 -30 7 -11
-37 28 -65 40 -143 31 -201 -15 -95 -57 -212 -82 -228 -49 -32 -192 -85 -231
-85 -45 0 -125 20 -190 47 -49 20 -86 75 -126 183 -27 75 -22 153 17 259 31
82 55 103 173 148 89 34 167 28 288 -22 122 -50 122 -50 88 -20 -16 14 -68 45
-115 68 -108 53 -183 59 -276 24z"/>
<path d="M685 905 c-84 -43 -146 -94 -175 -141 -33 -52 -25 -140 17 -191 40
-50 96 -88 161 -108 64 -21 83 -11 24 12 -23 8 -39 19 -37 24 3 4 -18 54 -46
110 -40 81 -53 99 -60 86 -11 -18 24 -96 67 -154 13 -17 24 -34 24 -38 0 -13
-64 32 -100 72 -63 68 -62 132 4 211 34 40 43 40 43 3 0 -28 42 -109 84 -160
37 -45 28 -15 -26 92 l-54 108 31 19 32 19 12 -34 c6 -19 25 -56 42 -82 30
-47 31 -52 34 -181 3 -131 10 -161 22 -99 7 32 8 403 2 442 -5 31 -27 29 -101
-10z m74 -72 l-1 -78 -28 60 c-16 33 -29 63 -30 66 0 6 39 27 53 28 4 1 7 -34
6 -76z"/>
</g>
</svg>
