<?xml version="1.0" standalone="no"?>
<!DOCTYPE svg PUBLIC "-//W3C//DTD SVG 20010904//EN"
 "http://www.w3.org/TR/2001/REC-SVG-20010904/DTD/svg10.dtd">
<svg version="1.0" xmlns="http://www.w3.org/2000/svg"
 width="148.000000pt" height="125.000000pt" viewBox="0 0 148.000000 125.000000"
 preserveAspectRatio="xMidYMid meet">
<metadata>
Created by potrace 1.16, written by Peter Selinger 2001-2019
</metadata>
<g transform="translate(0.000000,125.000000) scale(0.100000,-0.100000)"
fill="#000000" stroke="none">
<path d="M308 945 c-10 -10 -10 -344 -1 -519 l6 -129 406 7 c223 4 415 8 427
8 20 0 21 7 28 136 3 74 6 215 6 314 l0 178 -32 -1 c-18 -1 -213 2 -433 6
-220 4 -403 4 -407 0z m835 -317 c3 -161 5 -293 4 -294 -1 -1 -92 2 -202 6
-110 5 -294 9 -409 10 l-209 0 6 137 c4 75 7 198 7 275 l0 138 243 1 c199 1
424 8 533 17 21 2 21 -2 27 -290z"/>
<path d="M679 823 c0 -5 0 -34 1 -65 l1 -58 -116 0 c-106 0 -116 -2 -113 -17
3 -16 18 -18 120 -21 l117 -3 6 -47 c4 -26 9 -55 12 -64 4 -17 -7 -18 -126
-18 -124 0 -131 -1 -131 -20 0 -19 7 -20 143 -20 209 0 507 12 507 20 0 4 -85
11 -189 15 l-189 7 -4 63 -3 62 110 7 c61 3 149 6 198 6 48 0 87 4 87 8 0 9
-208 22 -337 22 l-63 0 0 49 c0 27 -3 56 -6 65 -6 16 -23 22 -25 9z"/>
</g>
</svg>
