<?xml version="1.0" standalone="no"?>
<!DOCTYPE svg PUBLIC "-//W3C//DTD SVG 20010904//EN"
 "http://www.w3.org/TR/2001/REC-SVG-20010904/DTD/svg10.dtd">
<svg version="1.0" xmlns="http://www.w3.org/2000/svg"
 width="148.000000pt" height="125.000000pt" viewBox="0 0 148.000000 125.000000"
 preserveAspectRatio="xMidYMid meet">
<metadata>
Created by potrace 1.16, written by Peter Selinger 2001-2019
</metadata>
<g transform="translate(0.000000,125.000000) scale(0.100000,-0.100000)"
fill="#000000" stroke="none">
<path d="M308 945 c-10 -10 -10 -344 -1 -519 l6 -129 406 7 c223 4 415 8 427
8 20 0 21 7 28 136 3 74 6 215 6 314 l0 178 -32 -1 c-18 -1 -213 2 -433 6
-220 4 -403 4 -407 0z m835 -317 c3 -161 5 -293 4 -294 -1 -1 -92 2 -202 6
-110 5 -294 9 -409 10 l-209 0 6 137 c4 75 7 198 7 275 l0 138 243 1 c199 1
424 8 533 17 21 2 21 -2 27 -290z"/>
<path d="M734 786 c-17 -8 -77 -43 -132 -79 -71 -46 -100 -71 -99 -84 2 -19
133 -114 217 -158 l46 -23 75 56 c42 32 94 71 115 89 l39 31 -20 22 c-18 20
-200 161 -207 160 -2 -1 -17 -7 -34 -14z m219 -152 c17 -11 7 -20 -90 -84 -59
-40 -113 -73 -119 -73 -5 0 -54 32 -107 72 l-96 73 102 77 102 76 95 -64 c52
-35 103 -70 113 -77z"/>
</g>
</svg>
