<?xml version="1.0" standalone="no"?>
<!DOCTYPE svg PUBLIC "-//W3C//DTD SVG 20010904//EN"
 "http://www.w3.org/TR/2001/REC-SVG-20010904/DTD/svg10.dtd">
<svg version="1.0" xmlns="http://www.w3.org/2000/svg"
 width="148.000000pt" height="125.000000pt" viewBox="0 0 148.000000 125.000000"
 preserveAspectRatio="xMidYMid meet">
<metadata>
Created by potrace 1.16, written by Peter Selinger 2001-2019
</metadata>
<g transform="translate(0.000000,125.000000) scale(0.100000,-0.100000)"
fill="#000000" stroke="none">
<path d="M308 945 c-10 -10 -10 -344 -1 -519 l6 -129 406 7 c223 4 415 8 427
8 20 0 21 7 28 136 3 74 6 215 6 314 l0 178 -32 -1 c-18 -1 -213 2 -433 6
-220 4 -403 4 -407 0z m835 -317 c3 -161 5 -293 4 -294 -1 -1 -92 2 -202 6
-110 5 -294 9 -409 10 l-209 0 6 137 c4 75 7 198 7 275 l0 138 243 1 c199 1
424 8 533 17 21 2 21 -2 27 -290z"/>
<path d="M630 845 c-10 -12 -12 -66 -8 -231 3 -118 9 -219 14 -224 6 -6 64 31
149 95 77 57 143 104 148 105 4 0 7 -12 8 -27 0 -16 4 -37 8 -48 7 -16 9 -14
14 14 4 19 7 62 7 97 0 49 -3 64 -14 64 -8 0 -16 -8 -18 -18 -2 -15 -29 1
-143 85 -76 56 -142 103 -146 103 -4 0 -12 -7 -19 -15z m187 -141 c28 -18 67
-41 87 -51 20 -9 36 -21 36 -27 0 -6 -24 -24 -53 -40 -28 -16 -88 -54 -132
-85 -44 -31 -86 -60 -92 -65 -10 -6 -13 35 -13 189 l0 196 58 -42 c31 -23 80
-56 109 -75z"/>
</g>
</svg>
