<?xml version="1.0" standalone="no"?>
<!DOCTYPE svg PUBLIC "-//W3C//DTD SVG 20010904//EN"
 "http://www.w3.org/TR/2001/REC-SVG-20010904/DTD/svg10.dtd">
<svg version="1.0" xmlns="http://www.w3.org/2000/svg"
 width="148.000000pt" height="125.000000pt" viewBox="0 0 148.000000 125.000000"
 preserveAspectRatio="xMidYMid meet">
<metadata>
Created by potrace 1.16, written by Peter Selinger 2001-2019
</metadata>
<g transform="translate(0.000000,125.000000) scale(0.100000,-0.100000)"
fill="#000000" stroke="none">
<path d="M308 945 c-10 -10 -10 -344 -1 -519 l6 -129 406 7 c223 4 415 8 427
8 20 0 21 7 28 136 3 74 6 215 6 314 l0 178 -32 -1 c-18 -1 -213 2 -433 6
-220 4 -403 4 -407 0z m835 -317 c3 -161 5 -293 4 -294 -1 -1 -92 2 -202 6
-110 5 -294 9 -409 10 l-209 0 6 137 c4 75 7 198 7 275 l0 138 243 1 c199 1
424 8 533 17 21 2 21 -2 27 -290z"/>
<path d="M571 725 c-21 -22 -47 -53 -59 -68 l-21 -29 20 -21 c11 -12 35 -41
52 -65 l32 -42 168 2 167 3 51 63 50 63 -52 64 -52 64 -159 3 -159 3 -38 -40z
m337 10 c-3 -3 -41 -32 -84 -65 -60 -45 -82 -56 -90 -47 -6 7 -28 36 -48 65
l-38 52 133 0 c73 0 130 -2 127 -5z m-230 -70 l53 -65 -46 -32 c-76 -53 -79
-53 -116 5 -19 29 -35 56 -38 60 -3 9 78 97 89 97 4 0 30 -29 58 -65z m283 13
l36 -42 -31 -43 c-16 -24 -33 -43 -37 -43 -4 0 -25 24 -48 54 l-41 55 37 30
c21 17 40 31 43 31 2 0 21 -19 41 -42z m-87 -97 c25 -30 45 -55 43 -56 -1 -1
-55 1 -119 3 l-117 4 67 54 c37 29 70 52 73 51 4 -1 27 -26 53 -56z"/>
</g>
</svg>
