<?xml version="1.0" standalone="no"?>
<!DOCTYPE svg PUBLIC "-//W3C//DTD SVG 20010904//EN"
 "http://www.w3.org/TR/2001/REC-SVG-20010904/DTD/svg10.dtd">
<svg version="1.0" xmlns="http://www.w3.org/2000/svg"
 width="144.000000pt" height="124.000000pt" viewBox="0 0 144.000000 124.000000"
 preserveAspectRatio="xMidYMid meet">
<metadata>
Created by potrace 1.16, written by Peter Selinger 2001-2019
</metadata>
<g transform="translate(0.000000,124.000000) scale(0.100000,-0.100000)"
fill="#000000" stroke="none">
<path d="M750 930 c-50 -22 -86 -59 -120 -125 l-35 -67 -120 7 c-66 3 -133 8
-148 11 l-28 6 2 -121 c1 -76 6 -121 12 -121 6 0 71 18 145 41 74 22 135 39
136 37 2 -2 9 -19 16 -38 23 -58 67 -116 102 -133 21 -10 78 -19 151 -23 l117
-7 6 -48 c9 -65 24 -52 24 20 l0 58 -128 6 c-71 3 -140 10 -154 16 -33 12 -83
64 -85 87 -1 11 -9 47 -19 80 -15 57 -15 66 0 117 9 31 31 75 49 98 46 60 87
79 172 79 63 0 229 -22 280 -36 14 -4 17 -3 10 4 -34 36 -330 75 -385 52z
m-162 -263 l0 -52 -106 -24 c-59 -13 -117 -26 -129 -29 -22 -4 -23 -2 -23 77
l0 81 129 0 128 0 1 -53z"/>
<path d="M1132 835 c0 -16 2 -22 5 -12 2 9 2 23 0 30 -3 6 -5 -1 -5 -18z"/>
<path d="M815 820 c-4 -6 -4 -38 0 -71 l7 -59 -66 0 c-51 0 -66 -3 -66 -15 0
-10 16 -15 63 -17 l62 -3 3 -82 c2 -46 7 -83 12 -83 5 0 10 37 12 83 l3 82
113 3 c131 3 153 21 27 23 -47 1 -89 3 -95 4 -5 1 -18 3 -28 4 -16 1 -18 10
-18 68 1 63 -12 91 -29 63z"/>
</g>
</svg>
