<?xml version="1.0" standalone="no"?>
<!DOCTYPE svg PUBLIC "-//W3C//DTD SVG 20010904//EN"
 "http://www.w3.org/TR/2001/REC-SVG-20010904/DTD/svg10.dtd">
<svg version="1.0" xmlns="http://www.w3.org/2000/svg"
 width="146.000000pt" height="127.000000pt" viewBox="0 0 146.000000 127.000000"
 preserveAspectRatio="xMidYMid meet">
<metadata>
Created by potrace 1.16, written by Peter Selinger 2001-2019
</metadata>
<g transform="translate(0.000000,127.000000) scale(0.100000,-0.100000)"
fill="#000000" stroke="none">
<path d="M993 900 l6 -69 -32 -5 c-18 -3 -75 -7 -128 -10 -110 -5 -139 -16
-191 -74 -30 -33 -37 -50 -43 -100 -4 -33 -3 -86 0 -118 l8 -57 -93 6 c-51 4
-115 7 -142 7 l-48 0 0 79 0 78 117 -28 c126 -31 153 -35 137 -20 -10 10 -247
81 -270 81 -11 0 -14 -23 -13 -117 1 -114 14 -245 19 -193 1 14 3 30 5 35 1 6
3 20 3 33 2 22 4 22 146 22 l144 0 7 -59 c7 -58 8 -60 46 -75 83 -33 424 -13
466 28 8 8 14 97 19 304 7 268 6 292 -9 292 -15 0 -17 -27 -17 -294 l0 -294
-27 -6 c-253 -50 -427 -38 -455 33 -5 14 -12 93 -13 175 l-3 148 26 25 c54 50
80 57 213 61 142 4 139 6 139 -80 0 -21 5 -38 10 -38 11 0 13 95 3 218 -5 63
-9 82 -21 82 -12 0 -14 -12 -9 -70z"/>
<path d="M855 677 c-29 -35 -76 -143 -67 -152 3 -3 11 4 18 17 11 21 12 20 34
-22 21 -42 21 -44 4 -81 -21 -47 -12 -64 10 -21 23 45 32 46 56 7 28 -45 36
-39 16 10 -9 21 -16 66 -16 101 l0 64 44 0 c61 0 68 18 9 22 l-48 3 -3 43 c-4
52 -21 55 -57 9z m35 -27 c0 -23 -4 -30 -20 -30 -24 0 -25 8 -4 38 20 29 24
28 24 -8z m0 -110 c0 -33 -2 -60 -5 -60 -9 0 -45 79 -45 100 0 15 7 20 25 20
24 0 25 -3 25 -60z"/>
</g>
</svg>
