<?xml version="1.0" standalone="no"?>
<!DOCTYPE svg PUBLIC "-//W3C//DTD SVG 20010904//EN"
 "http://www.w3.org/TR/2001/REC-SVG-20010904/DTD/svg10.dtd">
<svg version="1.0" xmlns="http://www.w3.org/2000/svg"
 width="146.000000pt" height="127.000000pt" viewBox="0 0 146.000000 127.000000"
 preserveAspectRatio="xMidYMid meet">
<metadata>
Created by potrace 1.16, written by Peter Selinger 2001-2019
</metadata>
<g transform="translate(0.000000,127.000000) scale(0.100000,-0.100000)"
fill="#000000" stroke="none">
<path d="M993 900 l6 -69 -32 -5 c-18 -3 -75 -7 -128 -10 -110 -5 -139 -16
-191 -74 -30 -33 -37 -50 -43 -100 -4 -33 -3 -86 0 -118 l8 -57 -93 6 c-51 4
-115 7 -142 7 l-48 0 0 79 0 78 117 -28 c126 -31 153 -35 137 -20 -10 10 -247
81 -270 81 -11 0 -14 -23 -13 -117 1 -114 14 -245 19 -193 1 14 3 30 5 35 1 6
3 20 3 33 2 22 4 22 146 22 l144 0 7 -59 c7 -58 8 -60 46 -75 83 -33 424 -13
466 28 8 8 14 97 19 304 7 268 6 292 -9 292 -15 0 -17 -27 -17 -294 l0 -294
-27 -6 c-253 -50 -427 -38 -455 33 -5 14 -12 93 -13 175 l-3 148 26 25 c54 50
80 57 213 61 142 4 139 6 139 -80 0 -21 5 -38 10 -38 11 0 13 95 3 218 -5 63
-9 82 -21 82 -12 0 -14 -12 -9 -70z"/>
<path d="M814 655 c-22 -34 -29 -105 -16 -157 6 -24 14 -57 17 -75 8 -42 60
-68 119 -59 65 10 74 20 55 55 -16 27 -16 30 0 45 12 12 17 40 20 101 l3 85
-36 15 c-19 8 -60 15 -90 15 -48 0 -58 -3 -72 -25z m76 -35 c0 -39 -1 -40 -33
-40 -43 0 -48 6 -36 38 12 30 26 42 52 42 13 0 17 -9 17 -40z m74 30 c20 -7
26 -16 26 -40 0 -30 -2 -31 -37 -28 -31 2 -39 7 -41 26 -4 28 4 52 17 52 5 0
21 -4 35 -10z m-74 -119 c0 -16 3 -37 7 -47 6 -15 2 -16 -32 -11 -46 7 -45 6
-52 51 l-6 36 42 0 c39 0 41 -2 41 -29z m100 -5 c0 -40 -24 -68 -54 -64 -17 2
-22 11 -24 51 l-3 47 40 0 c40 0 41 -1 41 -34z m-32 -102 c30 -20 28 -30 -9
-38 -54 -11 -119 17 -119 51 0 17 94 8 128 -13z"/>
</g>
</svg>
