<?xml version="1.0" standalone="no"?>
<!DOCTYPE svg PUBLIC "-//W3C//DTD SVG 20010904//EN"
 "http://www.w3.org/TR/2001/REC-SVG-20010904/DTD/svg10.dtd">
<svg version="1.0" xmlns="http://www.w3.org/2000/svg"
 width="146.000000pt" height="127.000000pt" viewBox="0 0 146.000000 127.000000"
 preserveAspectRatio="xMidYMid meet">
<metadata>
Created by potrace 1.16, written by Peter Selinger 2001-2019
</metadata>
<g transform="translate(0.000000,127.000000) scale(0.100000,-0.100000)"
fill="#000000" stroke="none">
<path d="M993 900 l6 -69 -32 -5 c-18 -3 -75 -7 -128 -10 -110 -5 -139 -16
-191 -74 -30 -33 -37 -50 -43 -100 -4 -33 -3 -86 0 -118 l8 -57 -93 6 c-51 4
-115 7 -142 7 l-48 0 0 79 0 78 117 -28 c126 -31 153 -35 137 -20 -10 10 -247
81 -270 81 -11 0 -14 -23 -13 -117 1 -114 14 -245 19 -193 1 14 3 30 5 35 1 6
3 20 3 33 2 22 4 22 146 22 l144 0 7 -59 c7 -58 8 -60 46 -75 83 -33 424 -13
466 28 8 8 14 97 19 304 6 266 6 292 -9 292 -15 0 -17 -22 -19 -186 l-3 -185
-40 30 c-48 36 -59 37 -104 10 -38 -23 -41 -22 -50 22 -8 41 -49 57 -144 58
-81 1 -100 -12 -117 -81 -10 -40 -9 -56 5 -102 l17 -55 55 -12 c57 -11 139 -5
160 13 7 5 15 25 19 44 7 40 12 41 56 14 43 -26 51 -25 104 10 l44 31 0 -100
0 -99 -27 -6 c-252 -50 -427 -37 -455 33 -5 14 -12 93 -13 175 l-3 148 26 25
c54 50 80 57 213 61 142 4 139 6 139 -80 0 -21 5 -38 10 -38 11 0 13 95 3 218
-5 63 -9 82 -21 82 -12 0 -14 -12 -9 -70z m-203 -276 l0 -47 -47 7 c-25 3 -48
8 -50 9 -8 9 20 66 35 70 54 14 62 9 62 -39z m112 30 c5 -3 8 -21 8 -40 l0
-35 -47 3 c-39 2 -48 6 -47 21 1 9 2 29 3 43 1 25 3 26 38 19 21 -4 41 -9 45
-11z m142 -66 c9 -33 7 -66 -3 -72 -5 -3 -11 17 -13 44 -3 52 5 67 16 28z
m-34 -17 c0 -16 3 -37 6 -45 5 -12 2 -15 -10 -10 -18 7 -23 84 -6 84 6 0 10
-13 10 -29z m87 -14 c-7 -21 -32 -13 -35 11 -3 21 -1 22 18 12 12 -6 19 -17
17 -23z m-127 1 c0 -16 -3 -19 -11 -11 -6 6 -8 16 -5 22 11 17 16 13 16 -11z
m-64 -73 c-4 -17 -15 -24 -43 -28 -21 -2 -41 -2 -45 0 -5 2 -8 26 -8 53 l0 49
48 3 c45 3 47 2 50 -26 2 -16 1 -39 -2 -51z m-116 41 c0 -19 3 -42 7 -52 6
-15 1 -16 -37 -11 -49 6 -70 27 -70 69 0 27 2 28 50 28 l50 0 0 -34z"/>
</g>
</svg>
