<?xml version="1.0" standalone="no"?>
<!DOCTYPE svg PUBLIC "-//W3C//DTD SVG 20010904//EN"
 "http://www.w3.org/TR/2001/REC-SVG-20010904/DTD/svg10.dtd">
<svg version="1.0" xmlns="http://www.w3.org/2000/svg"
 width="235.000000pt" height="127.000000pt" viewBox="0 0 235.000000 127.000000"
 preserveAspectRatio="xMidYMid meet">
<metadata>
Created by potrace 1.16, written by Peter Selinger 2001-2019
</metadata>
<g transform="translate(0.000000,127.000000) scale(0.100000,-0.100000)"
fill="#000000" stroke="none">
<path d="M634 949 c-17 -19 -28 -20 -122 -17 -103 3 -103 3 -109 -22 -3 -14
-17 -37 -31 -52 -28 -30 -20 -39 10 -11 17 15 18 13 18 -58 l0 -73 -52 -53
c-28 -29 -49 -55 -45 -59 3 -4 23 12 43 35 21 22 41 41 46 41 4 0 8 -32 8 -72
0 -70 -1 -73 -37 -110 -20 -21 -32 -38 -27 -38 6 0 21 11 34 25 13 14 27 25
32 25 4 0 8 -44 8 -97 l0 -98 150 3 c116 3 150 1 150 -9 0 -10 3 -10 12 -1 15
15 172 17 163 2 -8 -13 -2 -13 29 3 14 8 58 15 98 16 64 2 70 0 58 -13 -7 -9
-8 -16 -2 -16 5 0 15 6 21 14 8 9 44 17 105 21 l94 7 66 66 c36 36 63 68 61
71 -3 3 -35 -25 -71 -62 -37 -37 -71 -67 -77 -67 -6 0 -8 26 -5 71 5 71 6 72
62 128 l56 56 153 2 c278 5 517 15 517 23 0 9 -253 20 -462 20 -116 0 -158 3
-158 12 0 9 -3 9 -12 0 -7 -7 -39 -12 -75 -12 -61 0 -63 -1 -63 -25 0 -23 3
-25 35 -22 19 3 35 1 35 -2 0 -4 -18 -25 -40 -46 l-40 -39 0 80 0 80 60 59
c33 33 60 64 60 69 0 6 -27 -16 -60 -49 l-60 -59 0 75 c0 61 4 81 20 102 25
32 26 45 1 23 -19 -17 -19 -17 -14 3 5 19 1 21 -51 21 -36 0 -55 4 -51 10 8
13 -8 13 -22 -1 -7 -7 -35 -8 -82 -3 -59 5 -69 9 -60 20 7 9 7 14 1 14 -5 0
-15 -7 -22 -15 -9 -11 -34 -15 -93 -15 -79 0 -80 0 -62 20 10 11 14 20 8 20
-5 0 -18 -9 -28 -20 -15 -17 -31 -20 -98 -20 -79 0 -80 0 -62 20 10 11 14 20
8 20 -5 0 -18 -9 -29 -21z m221 -319 l-260 -260 -80 0 -80 0 260 260 259 259
76 3 c41 2 77 2 79 0 3 -1 -112 -119 -254 -262z m375 238 c0 -29 -25 -58 -232
-265 l-233 -233 -75 0 -75 0 265 265 c264 264 265 265 307 265 42 0 43 -1 43
-32z m-540 -223 c-135 -135 -247 -245 -250 -245 -3 0 -4 35 -2 77 l3 78 162
162 c170 171 166 169 272 172 l60 1 -245 -245z m-95 85 c-82 -83 -151 -150
-152 -150 -2 0 -3 33 -3 73 l0 72 65 69 c36 38 63 72 60 75 -3 2 -32 -22 -65
-54 l-60 -59 0 31 c0 17 3 44 6 61 l6 31 146 0 146 1 -149 -150z m488 -220
l-148 -146 -74 4 -74 4 219 219 219 219 3 -77 3 -78 -148 -145z m96 -86 l-63
-64 -81 0 -80 0 135 135 135 136 9 -71 9 -71 -64 -65z m63 -29 l3 -40 -54 3
-53 4 48 49 c27 28 50 44 51 37 1 -7 3 -31 5 -53z"/>
</g>
</svg>
