<?xml version="1.0" standalone="no"?>
<!DOCTYPE svg PUBLIC "-//W3C//DTD SVG 20010904//EN"
 "http://www.w3.org/TR/2001/REC-SVG-20010904/DTD/svg10.dtd">
<svg version="1.0" xmlns="http://www.w3.org/2000/svg"
 width="210.000000pt" height="152.000000pt" viewBox="0 0 210.000000 152.000000"
 preserveAspectRatio="xMidYMid meet">
<metadata>
Created by potrace 1.16, written by Peter Selinger 2001-2019
</metadata>
<g transform="translate(0.000000,152.000000) scale(0.100000,-0.100000)"
fill="#000000" stroke="none">
<path d="M1390 1213 c1 -5 7 -37 15 -73 8 -36 14 -104 15 -151 l0 -87 -85 -53
c-79 -50 -98 -70 -77 -83 5 -3 38 15 75 39 36 25 69 45 73 45 10 0 -4 -74 -21
-106 -19 -36 -19 -123 -1 -191 10 -39 11 -53 3 -53 -31 0 -120 54 -192 115
-143 121 -258 188 -375 218 -66 17 -374 32 -458 22 -54 -6 -60 -9 -51 -23 10
-15 38 -17 247 -17 l237 0 77 -33 c89 -39 258 -147 339 -219 33 -29 85 -62
125 -78 38 -16 70 -29 71 -30 2 -1 10 -33 19 -71 18 -74 41 -115 30 -54 -3 19
-8 54 -12 78 l-7 42 50 0 c28 0 70 3 95 6 l44 6 19 -81 c10 -45 22 -81 27 -81
5 0 6 10 3 22 -7 34 -25 140 -25 150 0 4 6 8 13 8 8 0 35 14 60 31 40 26 49
39 63 86 20 69 15 183 -10 235 -10 21 -36 57 -57 82 -33 37 -39 51 -39 88 0
23 -7 82 -16 131 -14 78 -18 87 -38 87 l-22 0 18 -87 c10 -49 18 -109 18 -134
0 -44 -1 -46 -24 -42 -23 5 -101 -8 -139 -22 -15 -6 -17 0 -17 62 0 62 -12
157 -26 206 -5 16 -44 25 -44 10z m246 -310 c-3 -16 -8 -53 -12 -83 -3 -30
-11 -61 -16 -68 -22 -27 -27 -96 -12 -171 9 -40 13 -75 10 -78 -3 -3 -43 -8
-89 -10 -95 -6 -89 -11 -102 74 -11 72 -8 125 15 221 17 71 27 95 43 104 26
14 112 36 145 37 20 1 23 -3 18 -26z m107 -78 c17 -33 21 -58 21 -141 1 -70
-3 -106 -12 -117 -15 -18 -99 -53 -108 -45 -3 3 -10 36 -16 72 -10 60 -8 78
18 191 l28 125 24 -23 c13 -12 33 -40 45 -62z"/>
</g>
</svg>
