<?xml version="1.0" standalone="no"?>
<!DOCTYPE svg PUBLIC "-//W3C//DTD SVG 20010904//EN"
 "http://www.w3.org/TR/2001/REC-SVG-20010904/DTD/svg10.dtd">
<svg version="1.0" xmlns="http://www.w3.org/2000/svg"
 width="215.000000pt" height="111.000000pt" viewBox="0 0 215.000000 111.000000"
 preserveAspectRatio="xMidYMid meet">
<metadata>
Created by potrace 1.16, written by Peter Selinger 2001-2019
</metadata>
<g transform="translate(0.000000,111.000000) scale(0.100000,-0.100000)"
fill="#000000" stroke="none">
<path d="M1505 803 c-11 -2 -68 -20 -127 -39 -96 -32 -121 -48 -103 -66 3 -3
58 13 123 36 112 39 122 41 234 41 65 -1 114 2 110 6 -25 22 -175 36 -237 22z"/>
<path d="M1760 726 c0 -2 11 -29 25 -60 14 -31 25 -59 25 -61 0 -3 -121 -5
-270 -5 -243 0 -270 -2 -270 -16 0 -15 24 -16 276 -9 l275 7 -3 -54 -3 -53
-272 -3 c-246 -2 -273 -4 -273 -19 0 -15 23 -16 271 -9 l271 6 -7 -42 c-13
-86 15 -78 -276 -78 -232 0 -259 -2 -259 -16 0 -15 25 -16 267 -10 l268 6 18
52 c10 29 21 90 24 135 5 70 2 92 -17 145 -12 35 -27 69 -32 76 -9 11 -38 17
-38 8z"/>
<path d="M300 681 c0 -27 34 -31 256 -28 226 2 230 2 294 -24 93 -38 219 -115
338 -208 56 -44 102 -76 102 -72 0 5 -38 45 -84 89 -136 128 -275 210 -404
237 -75 16 -502 21 -502 6z"/>
</g>
</svg>
