<?xml version="1.0" standalone="no"?>
<!DOCTYPE svg PUBLIC "-//W3C//DTD SVG 20010904//EN"
 "http://www.w3.org/TR/2001/REC-SVG-20010904/DTD/svg10.dtd">
<svg version="1.0" xmlns="http://www.w3.org/2000/svg"
 width="210.000000pt" height="135.000000pt" viewBox="0 0 210.000000 135.000000"
 preserveAspectRatio="xMidYMid meet">
<metadata>
Created by potrace 1.16, written by Peter Selinger 2001-2019
</metadata>
<g transform="translate(0.000000,135.000000) scale(0.100000,-0.100000)"
fill="#000000" stroke="none">
<path d="M606 990 c-121 -82 -167 -120 -160 -131 7 -13 -4 -11 -65 7 -87 25
-84 33 -78 -202 3 -113 9 -210 14 -215 5 -5 31 -1 61 8 34 11 56 14 60 7 8
-11 125 -97 189 -139 87 -56 62 -16 -39 66 -66 52 -102 87 -94 91 27 18 239 6
304 -17 8 -3 -7 -30 -43 -76 -57 -74 -64 -89 -41 -89 14 0 27 17 81 107 l32
51 56 -25 c32 -14 57 -32 57 -41 0 -8 6 -12 13 -9 6 2 89 28 182 56 341 105
665 215 662 225 -4 12 -188 74 -569 193 -276 85 -278 86 -295 66 -48 -54 -244
-99 -379 -88 l-89 7 35 27 c19 14 74 59 122 98 48 40 85 67 82 60 -5 -14 104
-162 113 -153 10 10 -98 176 -115 176 -5 0 -48 -27 -96 -60z m334 -331 c5
-123 7 -225 6 -227 -2 -1 -20 7 -40 19 -21 12 -63 32 -94 45 l-57 23 0 145 0
144 35 11 c19 6 58 24 85 39 28 16 51 27 53 26 2 -1 8 -103 12 -225z m197 185
c73 -22 131 -43 129 -49 -2 -5 15 -29 37 -52 l41 -43 -81 0 c-45 0 -84 4 -88
9 -10 18 -127 101 -141 101 -11 0 -14 -21 -13 -102 1 -148 1 -148 82 -87 l68
51 84 2 85 2 -42 -43 c-28 -29 -39 -46 -32 -53 7 -7 26 8 58 45 46 54 48 55
102 55 30 0 54 5 54 10 0 6 -26 10 -57 10 -57 1 -59 2 -102 52 -39 44 -42 50
-20 43 13 -5 125 -36 249 -71 l225 -62 -45 -12 c-81 -21 -562 -158 -664 -189
l-99 -30 6 177 c4 97 7 201 7 230 0 39 3 52 13 49 6 -3 72 -22 144 -43z m-709
-30 c24 -4 45 -12 47 -18 2 -6 6 -70 9 -142 l7 -130 -77 -17 c-43 -9 -78 -16
-79 -14 0 1 1 78 3 170 4 167 4 169 26 163 11 -3 41 -8 64 -12z m140 -23 c9
-5 15 -47 19 -134 l6 -127 -43 0 -43 0 7 53 c3 28 6 89 6 135 0 71 2 82 18 82
9 0 23 -4 30 -9z m152 -70 c0 -43 3 -105 6 -137 l6 -59 -56 3 -56 4 0 128 0
129 33 4 c72 9 67 14 67 -72z m400 7 c25 -16 43 -32 40 -36 -2 -4 -31 -24 -64
-45 l-59 -38 6 38 c4 21 7 57 7 81 0 32 3 41 13 36 6 -5 32 -21 57 -36z"/>
</g>
</svg>
