<?xml version="1.0" standalone="no"?>
<!DOCTYPE svg PUBLIC "-//W3C//DTD SVG 20010904//EN"
 "http://www.w3.org/TR/2001/REC-SVG-20010904/DTD/svg10.dtd">
<svg version="1.0" xmlns="http://www.w3.org/2000/svg"
 width="160.000000pt" height="194.000000pt" viewBox="0 0 160.000000 194.000000"
 preserveAspectRatio="xMidYMid meet">
<metadata>
Created by potrace 1.16, written by Peter Selinger 2001-2019
</metadata>
<g transform="translate(0.000000,194.000000) scale(0.100000,-0.100000)"
fill="#000000" stroke="none">
<path d="M506 1548 c-3 -50 -6 -119 -6 -153 l0 -62 -62 -23 c-39 -14 -77 -37
-100 -60 -34 -33 -38 -43 -38 -86 0 -97 51 -150 155 -161 l57 -6 -84 -86 -83
-86 90 88 c83 80 94 87 130 87 l40 0 -140 -142 -140 -143 145 143 c138 135
147 142 185 142 l40 0 -185 -187 -185 -188 190 187 c166 163 195 187 228 191
20 3 37 2 37 -2 0 -3 -100 -107 -222 -231 l-223 -225 235 233 236 232 59 -1
c33 0 54 -3 48 -6 -7 -2 -17 -21 -23 -41 -7 -30 -60 -87 -249 -277 -132 -131
-238 -241 -235 -244 3 -3 107 99 232 227 126 128 230 232 233 232 3 0 3 -17 1
-37 -3 -34 -27 -61 -220 -258 l-217 -220 211 209 211 208 6 -33 c5 -33 -2 -41
-186 -229 l-192 -195 191 188 191 189 7 -33 c6 -32 1 -38 -166 -209 l-173
-175 170 168 c94 92 173 167 177 167 4 0 12 -10 19 -21 10 -20 -2 -35 -137
-173 l-149 -151 149 146 148 146 92 -91 c104 -103 214 -185 220 -164 6 16 24
255 31 408 11 239 16 280 31 280 8 0 14 4 14 8 0 11 -223 22 -445 22 l-173 0
-4 94 c-4 100 -17 131 -64 162 -14 9 -38 17 -55 18 -25 1 -29 5 -25 21 2 11 8
82 12 158 6 132 6 137 -13 137 -18 0 -21 -9 -27 -92z m83 -273 c36 -18 60 -76
68 -162 l6 -64 -111 6 c-93 6 -111 4 -119 -9 -8 -14 -12 -13 -41 4 -35 22 -62
72 -62 116 0 35 54 86 107 102 61 18 63 17 63 -38 0 -27 5 -50 10 -50 6 0 10
11 10 24 0 45 13 86 27 86 8 0 27 -7 42 -15z m628 -367 c-4 -62 -7 -213 -7
-336 0 -138 -4 -222 -10 -220 -16 5 -172 161 -212 212 -22 27 -37 55 -34 63 3
8 1 11 -4 8 -6 -3 -15 6 -20 21 -9 21 -7 31 7 48 13 15 14 17 2 8 -9 -6 -19
-9 -22 -5 -13 12 -7 57 11 77 16 20 16 20 0 7 -16 -12 -18 -11 -18 11 0 29 15
113 30 169 l11 38 87 4 c48 1 109 4 136 5 l49 2 -6 -112z"/>
<path d="M601 734 c-127 -130 -231 -238 -229 -240 2 -2 112 105 243 236 132
132 235 240 230 240 -6 0 -116 -106 -244 -236z"/>
<path d="M820 413 l-105 -108 108 105 c59 57 107 106 107 107 0 8 -13 -5 -110
-104z"/>
</g>
</svg>
