<?xml version="1.0" standalone="no"?>
<!DOCTYPE svg PUBLIC "-//W3C//DTD SVG 20010904//EN"
 "http://www.w3.org/TR/2001/REC-SVG-20010904/DTD/svg10.dtd">
<svg version="1.0" xmlns="http://www.w3.org/2000/svg"
 width="256.000000pt" height="156.000000pt" viewBox="0 0 256.000000 156.000000"
 preserveAspectRatio="xMidYMid meet">
<metadata>
Created by potrace 1.16, written by Peter Selinger 2001-2019
</metadata>
<g transform="translate(0.000000,156.000000) scale(0.100000,-0.100000)"
fill="#000000" stroke="none">
<path d="M676 1146 c-48 -63 -97 -123 -107 -132 -18 -16 -19 -16 -19 1 0 16
-7 17 -61 11 -133 -15 -189 -61 -189 -153 0 -71 21 -107 80 -134 70 -33 212
-59 328 -59 56 0 102 -1 102 -2 0 -2 -7 -25 -15 -52 -28 -93 -17 -186 28 -235
27 -29 122 -77 169 -86 32 -6 38 -4 61 27 62 82 79 150 86 346 1 6 8 12 16 12
8 0 15 4 15 9 0 5 -117 12 -260 16 -143 4 -260 8 -260 9 0 0 7 26 15 56 26 98
18 158 -29 202 l-25 23 95 113 c78 92 93 116 83 128 -6 8 -14 14 -18 14 -4 0
-46 -51 -95 -114z m-155 -208 c-41 -56 -28 -63 19 -10 21 23 42 42 48 42 20 0
51 -51 56 -93 3 -23 3 -67 -2 -97 l-7 -55 -45 3 c-25 1 -74 11 -110 22 -36 10
-74 18 -84 17 -26 -3 -66 57 -66 97 1 76 55 116 158 116 l64 0 -31 -42z m567
-372 c-4 -112 -8 -130 -36 -189 l-31 -66 -31 11 c-45 15 -120 68 -144 101 -25
34 -29 135 -7 209 l13 47 57 4 c31 2 85 4 120 5 l64 2 -5 -124z"/>
<path d="M1263 915 c-9 -10 -13 -55 -13 -152 1 -147 15 -401 23 -409 5 -5 969
15 974 20 2 1 6 122 10 268 l6 266 -174 6 c-96 3 -318 7 -494 10 -263 4 -322
2 -332 -9z m949 -100 l3 -75 -377 0 c-349 0 -403 -4 -368 -25 14 -9 13 -108
-2 -123 -9 -9 -7 -13 5 -18 9 -3 17 -12 17 -20 0 -8 5 -14 10 -14 6 0 10 7 10
15 0 13 28 15 193 15 105 0 265 3 355 7 l162 6 0 -35 c0 -19 3 -62 6 -95 l7
-60 -454 4 c-250 2 -464 6 -476 9 -12 2 -20 10 -18 17 4 11 14 294 15 404 l0
53 328 3 c180 1 384 3 454 5 l126 2 4 -75z m6 -157 l4 -58 -357 0 -357 0 6 23
c3 12 6 37 6 54 l0 33 218 3 c119 1 276 3 347 2 l130 0 3 -57z"/>
</g>
</svg>
