<?xml version="1.0" standalone="no"?>
<!DOCTYPE svg PUBLIC "-//W3C//DTD SVG 20010904//EN"
 "http://www.w3.org/TR/2001/REC-SVG-20010904/DTD/svg10.dtd">
<svg version="1.0" xmlns="http://www.w3.org/2000/svg"
 width="209.000000pt" height="177.000000pt" viewBox="0 0 209.000000 177.000000"
 preserveAspectRatio="xMidYMid meet">
<metadata>
Created by potrace 1.16, written by Peter Selinger 2001-2019
</metadata>
<g transform="translate(0.000000,177.000000) scale(0.100000,-0.100000)"
fill="#000000" stroke="none">
<path d="M798 1399 l4 -72 -71 39 c-39 21 -74 34 -78 30 -10 -10 18 -31 94
-68 50 -25 62 -35 65 -59 3 -16 2 -29 0 -29 -3 0 -34 16 -69 35 -54 31 -63 33
-62 18 0 -13 33 -34 110 -73 60 -30 109 -58 109 -62 0 -4 4 -8 9 -8 5 0 7 19
5 43 -2 23 -6 81 -10 130 -4 68 -9 87 -21 87 -11 0 -14 -8 -9 -37 3 -21 8 -71
12 -112 l6 -74 -31 22 c-23 16 -31 30 -31 52 0 27 2 29 20 19 25 -14 26 1 1
17 -15 9 -20 29 -26 92 -4 52 -11 81 -19 81 -8 0 -10 -21 -8 -71z"/>
<path d="M1250 1455 c-9 -11 -2 -26 39 -75 80 -96 85 -109 78 -220 -3 -52 -11
-119 -17 -147 l-12 -53 -134 0 c-127 0 -134 -1 -134 -20 0 -19 7 -20 130 -20
72 0 130 -4 130 -9 0 -38 -10 -41 -136 -41 -117 0 -124 -1 -124 -20 0 -19 7
-20 123 -20 73 0 116 -4 108 -9 -7 -5 -12 -13 -10 -19 2 -5 62 -77 133 -160
115 -136 323 -342 345 -342 10 0 21 335 21 678 l0 272 -25 0 -26 0 5 -212 c3
-117 8 -325 11 -463 l5 -250 -86 90 c-48 50 -147 162 -220 250 l-134 160 62 5
c35 3 66 4 71 2 4 -2 7 -27 7 -57 0 -30 5 -57 10 -60 6 -4 10 18 10 59 l0 66
35 0 35 0 1 -102 c1 -57 2 -107 4 -113 1 -5 3 -23 5 -40 4 -39 17 89 19 183
l1 72 35 0 35 0 1 -112 c1 -62 4 -144 8 -183 l7 -70 7 45 c4 25 9 206 11 403
l4 357 -25 0 -25 0 5 -165 6 -165 -35 0 -34 0 0 185 c0 180 -1 185 -21 185
-20 0 -20 -4 -17 -185 l3 -186 -28 3 -29 3 2 208 c1 205 1 207 -21 207 -21 0
-21 -1 -18 -207 l3 -208 -37 1 c-21 1 -40 3 -42 5 -2 3 3 47 11 99 7 52 14
123 14 156 0 59 -3 67 -59 152 -66 100 -74 108 -91 87z m298 -563 c3 -26 0
-32 -17 -32 -34 0 -51 11 -51 35 0 17 7 25 23 28 35 7 42 2 45 -31z m102 3 c0
-33 -2 -35 -35 -35 -33 0 -35 2 -35 35 0 33 2 35 35 35 33 0 35 -2 35 -35z
m-190 0 c0 -24 -3 -25 -61 -25 -33 0 -58 3 -56 8 2 4 7 15 10 25 5 13 18 17
57 17 47 0 50 -2 50 -25z"/>
<path d="M948 1333 c-2 -4 1 -62 7 -128 6 -66 11 -121 11 -121 -1 -1 -54 27
-119 62 -65 35 -120 64 -123 64 -2 0 -4 -6 -4 -13 0 -8 56 -42 125 -76 85 -42
125 -67 125 -78 0 -11 3 -13 9 -8 12 13 -3 283 -17 297 -5 5 -12 6 -14 1z"/>
<path d="M1024 1149 c4 -52 10 -114 13 -138 l6 -44 -79 43 c-43 23 -103 56
-131 72 -47 26 -53 27 -53 11 1 -13 37 -36 138 -85 75 -36 138 -65 140 -63 2
2 0 68 -5 146 -6 108 -11 144 -22 147 -12 4 -13 -11 -7 -89z"/>
<path d="M641 1041 c-13 -9 25 -33 172 -109 l58 -30 -123 -67 c-141 -77 -135
-72 -122 -85 6 -6 51 15 129 61 65 39 127 74 138 78 16 6 2 18 -79 66 -55 32
-113 66 -129 76 -19 11 -36 15 -44 10z"/>
<path d="M515 1031 c-3 -6 44 -36 105 -68 60 -32 110 -60 110 -63 0 -3 -52
-32 -115 -65 -63 -33 -115 -65 -115 -72 0 -7 3 -13 6 -13 8 0 180 97 217 123
15 10 34 16 42 13 8 -3 15 -1 15 3 0 9 -236 151 -250 151 -5 0 -11 -4 -15 -9z"/>
<path d="M416 1011 c-6 -9 155 -101 175 -101 21 0 6 -19 -22 -29 -24 -8 -36
-8 -48 1 -9 7 -18 14 -20 15 -2 1 2 9 9 18 14 17 7 19 -19 5 -14 -7 -34 0 -85
30 -62 36 -86 42 -86 21 0 -4 27 -20 60 -36 33 -16 60 -31 60 -34 0 -3 -32
-22 -70 -41 -39 -19 -70 -38 -70 -42 0 -21 26 -14 92 26 68 40 77 43 104 31
l29 -12 -55 -31 c-89 -50 -87 -49 -69 -56 10 -5 54 16 119 54 57 34 109 59
117 56 7 -3 13 -1 13 3 0 9 -206 131 -221 131 -4 0 -10 -4 -13 -9z"/>
<path d="M1038 862 c-1 -5 -52 -32 -113 -61 -130 -61 -158 -79 -150 -91 6 -10
85 27 203 94 l63 35 -6 -47 c-17 -137 -21 -222 -9 -222 15 0 21 42 28 193 4
61 2 107 -3 107 -5 0 -11 -4 -13 -8z"/>
<path d="M972 760 c-1 -9 -58 -42 -132 -77 -72 -34 -130 -66 -130 -72 0 -20
22 -12 138 50 l114 60 -6 -78 c-4 -43 -9 -99 -12 -125 -5 -39 -3 -48 9 -48 12
0 17 20 22 93 6 78 3 242 -3 197z"/>
<path d="M900 650 c0 -5 -49 -34 -109 -65 -60 -30 -112 -59 -116 -65 -14 -23
5 -20 64 9 33 17 63 31 66 31 3 0 5 -11 5 -25 0 -21 -12 -31 -80 -65 -48 -24
-80 -46 -80 -56 0 -12 18 -6 76 25 l76 40 -7 -76 c-6 -61 -4 -74 7 -71 8 3 16
32 21 84 6 64 12 83 30 97 l22 19 -22 -5 c-35 -8 -32 45 3 68 14 9 27 15 29
13 2 -2 -1 -50 -6 -107 -10 -101 -8 -124 11 -105 10 10 26 264 16 264 -3 0 -6
-4 -6 -10z"/>
</g>
</svg>
