<?xml version="1.0" standalone="no"?>
<!DOCTYPE svg PUBLIC "-//W3C//DTD SVG 20010904//EN"
 "http://www.w3.org/TR/2001/REC-SVG-20010904/DTD/svg10.dtd">
<svg version="1.0" xmlns="http://www.w3.org/2000/svg"
 width="223.000000pt" height="135.000000pt" viewBox="0 0 223.000000 135.000000"
 preserveAspectRatio="xMidYMid meet">
<metadata>
Created by potrace 1.16, written by Peter Selinger 2001-2019
</metadata>
<g transform="translate(0.000000,135.000000) scale(0.100000,-0.100000)"
fill="#000000" stroke="none">
<path d="M1090 1042 c-176 -2 -216 -5 -223 -17 -4 -8 -67 -54 -140 -102 -73
-49 -133 -90 -135 -93 -1 -3 -67 -4 -147 -2 -142 4 -145 3 -145 -17 0 -19 6
-21 70 -21 39 0 70 -4 70 -9 0 -5 21 -23 48 -40 l47 -31 -57 0 c-45 0 -58 -3
-58 -15 0 -11 12 -15 52 -15 l52 0 -42 -31 c-23 -17 -42 -34 -42 -38 0 -22 18
-17 61 15 l49 36 0 -45 0 -45 -125 6 -125 5 0 -23 c0 -23 0 -23 125 -18 85 3
126 1 129 -6 3 -7 8 -6 14 3 8 11 13 11 23 2 8 -7 61 -43 119 -81 58 -38 120
-83 138 -100 l32 -31 210 3 c132 2 206 0 200 -6 -21 -21 -9 -27 14 -8 34 26
188 33 166 8 -7 -9 -8 -16 -2 -16 5 0 15 7 23 16 10 12 30 15 101 13 48 -2 90
0 94 4 4 4 41 7 83 7 54 0 72 3 64 11 -6 6 -35 9 -67 7 l-56 -3 110 110 c61
61 110 115 110 120 0 5 -55 -45 -122 -111 -119 -117 -124 -121 -163 -118 -22
1 -56 3 -75 3 -35 1 -33 2 160 196 107 107 192 197 189 199 -3 3 -95 -85 -204
-194 l-200 -200 -80 0 -80 0 258 258 c141 141 257 262 257 267 0 5 -121 -111
-268 -258 l-268 -268 -72 3 -72 3 302 303 c166 166 299 305 296 308 -3 3 -145
-135 -315 -306 l-308 -312 -135 7 c-74 5 -144 8 -156 9 -11 1 -45 23 -75 49
-74 65 -184 137 -210 137 -20 0 -21 3 -14 47 4 27 8 49 10 51 2 2 28 -13 59
-34 67 -44 84 -40 25 7 -37 29 -39 34 -23 40 11 4 37 8 59 10 36 1 34 3 -24
13 l-65 11 39 30 c21 17 43 33 49 37 6 4 8 10 4 13 -4 4 -34 -12 -67 -34 l-61
-42 0 41 c0 29 4 40 16 40 20 0 124 70 199 135 57 49 63 52 120 53 33 1 123 5
200 8 l140 6 -109 -111 c-61 -61 -107 -114 -103 -118 4 -4 58 46 119 110 l110
117 82 0 81 0 -195 -195 c-107 -107 -192 -197 -189 -199 3 -3 95 85 204 194
l200 200 80 0 80 0 -260 -260 c-143 -143 -255 -260 -250 -260 6 0 127 117 270
260 l260 260 75 1 c121 2 150 14 51 21 -48 4 -87 11 -91 18 -5 9 -9 9 -14 1
-4 -7 -39 -11 -87 -11 -51 0 -78 4 -74 10 3 6 2 10 -4 10 -5 0 -13 -5 -17 -11
-6 -10 -87 -7 -158 4 -6 1 -108 1 -226 -1z m-540 -272 c0 -37 -6 -37 -50 0
l-35 29 43 1 c40 0 42 -1 42 -30z"/>
</g>
</svg>
