<?xml version="1.0" standalone="no"?>
<!DOCTYPE svg PUBLIC "-//W3C//DTD SVG 20010904//EN"
 "http://www.w3.org/TR/2001/REC-SVG-20010904/DTD/svg10.dtd">
<svg version="1.0" xmlns="http://www.w3.org/2000/svg"
 width="240.000000pt" height="135.000000pt" viewBox="0 0 240.000000 135.000000"
 preserveAspectRatio="xMidYMid meet">
<metadata>
Created by potrace 1.16, written by Peter Selinger 2001-2019
</metadata>
<g transform="translate(0.000000,135.000000) scale(0.100000,-0.100000)"
fill="#000000" stroke="none">
<path d="M867 1027 c-3 -8 -61 -51 -129 -96 -68 -44 -130 -86 -138 -94 -12 -9
-51 -12 -158 -9 -142 4 -142 4 -142 -18 l0 -23 138 8 c75 4 146 8 158 9 29 3
116 59 195 128 l66 57 274 6 274 7 -122 -123 -122 -122 -95 71 c-53 40 -99 72
-103 72 -15 0 -86 -41 -194 -111 -143 -93 -143 -94 14 -194 66 -43 135 -84
153 -91 l34 -14 108 81 c133 102 153 119 145 132 -3 5 59 74 138 153 l144 144
80 0 80 0 -240 -242 c-132 -134 -208 -213 -170 -177 39 37 151 146 249 243
l179 177 75 4 c41 3 77 7 80 10 5 5 -5 6 -85 8 -24 0 -43 3 -43 6 0 4 -188 8
-418 10 -370 3 -420 2 -425 -12z m550 -101 c-40 -40 -103 -103 -142 -139 -65
-60 -71 -64 -90 -51 -18 14 -13 21 105 139 115 115 128 125 162 125 l36 0 -71
-74z m-332 -151 c72 -48 123 -85 115 -82 -8 2 -28 -8 -45 -23 -50 -45 -214
-152 -224 -146 -31 20 -226 170 -224 174 4 13 229 172 238 168 5 -2 69 -43
140 -91z"/>
<path d="M1560 713 l-295 -298 298 295 c163 162 297 296 297 297 0 8 -26 -18
-300 -294z"/>
<path d="M1490 733 l-265 -268 268 265 c248 246 272 270 264 270 -1 0 -121
-120 -267 -267z"/>
<path d="M1360 784 c-113 -113 -196 -201 -185 -196 26 14 412 402 400 402 -6
0 -102 -93 -215 -206z"/>
<path d="M1613 678 c-161 -160 -292 -293 -290 -294 2 -2 135 129 297 291 162
162 293 295 290 295 -3 0 -137 -131 -297 -292z"/>
<path d="M1675 653 l-290 -285 -210 7 c-348 12 -307 5 -383 70 -37 31 -93 72
-125 91 l-57 36 -155 5 c-151 6 -155 5 -155 -14 0 -20 5 -20 138 -15 l139 5
132 -88 c73 -47 141 -95 152 -106 17 -17 39 -19 344 -19 304 -1 325 -2 313
-18 -10 -14 -8 -13 9 1 12 10 41 21 65 24 l43 6 -25 -29 -25 -29 31 28 c22 20
41 27 69 27 l38 0 -24 -27 -24 -28 31 28 c22 19 41 27 68 27 35 0 37 -2 25
-17 -7 -10 58 52 144 137 86 85 157 157 157 160 0 2 -60 -55 -133 -128 -125
-125 -134 -132 -172 -132 l-40 0 175 178 175 177 -181 -178 c-176 -174 -182
-178 -218 -175 l-38 3 200 197 c110 108 203 202 207 210 4 7 -89 -83 -206
-200 -201 -198 -216 -212 -251 -212 -36 0 -36 1 189 223 123 122 229 231 235
242 5 11 -100 -89 -234 -222 -224 -224 -246 -243 -278 -243 -34 0 -29 6 230
265 146 146 262 265 258 265 -4 0 -128 -119 -275 -265 -247 -244 -271 -265
-303 -265 -34 0 -27 8 250 285 157 157 283 285 280 284 -3 0 -135 -129 -295
-286z"/>
<path d="M2005 448 l-40 -43 43 40 c39 36 47 45 39 45 -2 0 -21 -19 -42 -42z"/>
</g>
</svg>
