<?xml version="1.0" standalone="no"?>
<!DOCTYPE svg PUBLIC "-//W3C//DTD SVG 20010904//EN"
 "http://www.w3.org/TR/2001/REC-SVG-20010904/DTD/svg10.dtd">
<svg version="1.0" xmlns="http://www.w3.org/2000/svg"
 width="213.000000pt" height="130.000000pt" viewBox="0 0 213.000000 130.000000"
 preserveAspectRatio="xMidYMid meet">
<metadata>
Created by potrace 1.16, written by Peter Selinger 2001-2019
</metadata>
<g transform="translate(0.000000,130.000000) scale(0.100000,-0.100000)"
fill="#000000" stroke="none">
<path d="M853 982 c-7 -12 -68 -58 -135 -102 -68 -45 -124 -84 -125 -88 -2 -4
-68 -6 -148 -4 -137 3 -145 2 -145 -16 0 -17 7 -19 93 -15 220 8 225 9 304 66
39 29 92 69 117 90 l45 39 448 8 c246 5 466 10 488 10 36 1 38 2 16 11 -13 5
-229 12 -485 16 -460 6 -461 5 -473 -15z"/>
<path d="M1228 872 c-25 -26 -56 -67 -69 -90 l-24 -41 -110 2 -110 2 -3 -35
c-2 -19 -1 -63 3 -98 l7 -63 111 6 112 5 25 -42 c25 -40 116 -122 128 -114
203 113 432 251 430 258 -4 11 -401 241 -434 252 -16 5 -31 -4 -66 -42z m354
-145 c65 -34 118 -64 118 -67 0 -3 -45 -29 -100 -58 l-100 -53 6 96 c6 86 5
95 -10 95 -16 0 -18 -10 -14 -99 l3 -99 -102 -57 c-57 -31 -108 -53 -114 -50
-6 4 -30 33 -54 65 l-42 59 3 100 c3 110 8 124 66 187 l40 43 91 -50 c51 -27
145 -77 209 -112z m-457 -72 c0 -46 -4 -75 -11 -75 -10 0 -9 106 1 138 8 24
10 11 10 -63z m-163 53 c3 -7 6 -39 7 -70 2 -54 1 -58 -19 -58 -16 0 -20 4
-16 16 3 9 6 40 6 70 0 50 12 71 22 42z m58 -58 c0 -56 -3 -70 -15 -70 -12 0
-15 14 -15 70 0 56 3 70 15 70 12 0 15 -14 15 -70z m60 0 c0 -65 -2 -70 -21
-70 -20 0 -21 4 -15 46 3 26 6 57 6 70 0 15 6 24 15 24 12 0 15 -14 15 -70z"/>
<path d="M1230 645 c0 -52 4 -95 9 -95 10 0 25 166 16 180 -17 28 -25 1 -25
-85z"/>
<path d="M1310 644 c0 -119 16 -115 22 5 2 61 0 85 -9 88 -10 4 -13 -19 -13
-93z"/>
<path d="M1401 663 c1 -96 12 -137 22 -78 4 22 7 66 7 98 0 44 -3 57 -15 57
-12 0 -15 -15 -14 -77z"/>
<path d="M300 529 c0 -20 5 -20 145 -17 80 2 145 1 145 -2 0 -3 56 -43 125
-88 69 -46 131 -93 139 -104 15 -21 16 -21 474 -15 253 4 470 11 483 16 16 7
-63 10 -246 10 -148 1 -369 6 -489 11 l-220 10 -44 38 c-24 20 -76 60 -115 89
-79 57 -72 55 -304 67 -88 4 -93 4 -93 -15z"/>
</g>
</svg>
