<?xml version="1.0" standalone="no"?>
<!DOCTYPE svg PUBLIC "-//W3C//DTD SVG 20010904//EN"
 "http://www.w3.org/TR/2001/REC-SVG-20010904/DTD/svg10.dtd">
<svg version="1.0" xmlns="http://www.w3.org/2000/svg"
 width="215.000000pt" height="130.000000pt" viewBox="0 0 215.000000 130.000000"
 preserveAspectRatio="xMidYMid meet">
<metadata>
Created by potrace 1.16, written by Peter Selinger 2001-2019
</metadata>
<g transform="translate(0.000000,130.000000) scale(0.100000,-0.100000)"
fill="#000000" stroke="none">
<path d="M851 975 c-13 -13 -70 -55 -128 -92 -58 -37 -113 -75 -122 -83 -13
-12 -42 -14 -158 -12 -139 3 -143 3 -143 -17 0 -19 4 -20 73 -16 39 2 112 7
160 10 83 5 92 8 150 47 34 23 88 63 119 91 l58 49 247 4 c855 14 950 31 223
39 l-455 5 -24 -25z"/>
<path d="M1352 845 c-50 -23 -65 -25 -203 -25 -130 0 -149 -2 -149 -16 0 -14
17 -15 139 -12 l138 3 -12 -34 -12 -35 -126 3 c-110 2 -127 0 -127 -13 0 -14
18 -16 120 -16 l120 0 0 -35 0 -35 -120 0 c-100 0 -120 -2 -120 -15 0 -13 21
-15 125 -15 113 0 125 -2 135 -19 5 -11 10 -23 10 -27 0 -3 -59 -5 -132 -3
-99 3 -132 1 -135 -8 -4 -10 30 -13 145 -13 l151 0 20 -29 c21 -29 80 -51 137
-51 39 0 143 59 159 91 14 26 18 28 125 34 60 4 110 11 110 16 0 5 -17 9 -39
9 -21 0 -65 3 -98 6 l-59 6 0 63 0 63 95 1 c53 1 97 4 100 7 11 10 -12 14
-113 21 -95 5 -111 9 -130 29 -35 37 -115 74 -160 74 -23 0 -65 -11 -94 -25z
m78 -15 c0 -5 -12 -10 -27 -9 l-28 1 25 8 c14 4 26 8 28 9 1 1 2 -3 2 -9z
m126 -21 c69 -29 91 -118 56 -224 -15 -45 -23 -53 -71 -77 -68 -35 -91 -36
-91 -5 0 13 5 28 12 35 9 9 9 12 -1 12 -9 0 -11 8 -7 28 3 15 6 80 7 145 l0
117 27 -7 c15 -3 45 -14 68 -24z m-126 -53 l0 -44 -67 5 c-38 3 -70 7 -71 9
-2 1 -1 12 3 23 12 38 34 51 86 51 l49 0 0 -44z m0 -97 l0 -41 -72 3 c-78 4
-89 11 -80 56 4 22 9 23 78 23 l74 0 0 -41z m0 -84 c0 -24 -3 -25 -60 -25 -48
0 -61 4 -70 19 -5 11 -10 22 -10 25 0 3 32 6 70 6 68 0 70 -1 70 -25z m3 -67
c4 -12 4 -24 2 -26 -6 -6 -104 28 -110 39 -4 5 18 9 48 9 48 0 55 -3 60 -22z"/>
<path d="M300 529 c0 -20 4 -20 145 -17 80 2 145 0 145 -4 0 -4 21 -19 48 -35
77 -44 232 -155 232 -166 0 -13 915 -2 950 11 15 5 -143 12 -416 17 -603 11
-534 4 -602 62 -31 27 -85 68 -119 91 -58 39 -67 42 -150 47 -48 3 -121 8
-160 10 -69 4 -73 3 -73 -16z"/>
</g>
</svg>
