<?xml version="1.0" standalone="no"?>
<!DOCTYPE svg PUBLIC "-//W3C//DTD SVG 20010904//EN"
 "http://www.w3.org/TR/2001/REC-SVG-20010904/DTD/svg10.dtd">
<svg version="1.0" xmlns="http://www.w3.org/2000/svg"
 width="214.000000pt" height="436.000000pt" viewBox="0 0 214.000000 436.000000"
 preserveAspectRatio="xMidYMid meet">
<metadata>
Created by potrace 1.16, written by Peter Selinger 2001-2019
</metadata>
<g transform="translate(0.000000,436.000000) scale(0.100000,-0.100000)"
fill="#000000" stroke="none">
<path d="M860 4049 c0 -8 -61 -55 -135 -104 -74 -50 -135 -92 -135 -95 0 -3
-65 -3 -145 -2 -143 4 -145 4 -145 -18 0 -20 3 -21 103 -15 220 12 215 11 294
68 39 29 92 69 116 90 l46 38 448 9 c594 12 534 10 498 21 -16 5 -236 12 -487
16 -394 5 -458 4 -458 -8z"/>
<path d="M980 3905 c-9 -10 -4 -17 19 -31 35 -21 38 -29 15 -38 -8 -3 -48 -27
-89 -53 -100 -64 -99 -76 7 -144 l82 -52 -27 -21 c-18 -15 -24 -25 -18 -35 7
-11 18 -8 53 19 60 46 198 182 197 195 0 5 -51 47 -114 92 -91 65 -116 79
-125 68z m149 -115 l74 -44 -79 -73 c-43 -40 -82 -73 -87 -73 -4 0 -42 26 -84
57 -75 57 -75 57 -52 73 13 8 50 36 83 62 34 26 63 47 66 45 3 -1 38 -22 79
-47z"/>
<path d="M1370 3721 c0 -94 4 -172 9 -175 9 -6 21 72 21 137 l0 37 103 0 c133
0 267 11 267 21 0 5 -82 10 -182 11 l-183 3 2 68 c2 61 1 67 -17 67 -19 0 -20
-8 -20 -169z"/>
<path d="M300 3584 c0 -18 8 -19 139 -16 125 3 143 1 168 -16 15 -11 68 -45
116 -77 49 -32 103 -72 120 -87 l30 -29 261 0 c333 1 696 12 696 21 0 4 -197
10 -437 14 -241 3 -463 10 -494 14 -48 7 -64 15 -115 61 -32 29 -85 68 -117
88 l-59 36 -154 5 c-146 5 -154 4 -154 -14z"/>
<path d="M864 2986 c-6 -15 -133 -107 -216 -157 -32 -18 -58 -37 -58 -42 0 -4
-65 -5 -145 -1 l-145 7 0 -23 0 -23 156 7 156 7 72 48 c39 27 93 68 120 92 33
29 60 44 80 45 17 1 237 5 489 10 251 4 457 10 457 14 0 9 -231 18 -653 24
-250 4 -309 3 -313 -8z"/>
<path d="M1560 2650 c0 -120 4 -190 10 -190 6 0 10 38 10 94 0 109 -3 106 100
106 38 0 71 4 74 9 7 11 -52 21 -122 21 l-54 0 4 75 c2 55 0 75 -9 75 -10 0
-13 -45 -13 -190z"/>
<path d="M890 2818 c0 -7 12 -21 26 -33 l25 -20 -90 -58 c-64 -41 -91 -65 -91
-78 0 -14 25 -36 80 -71 44 -28 80 -54 80 -59 0 -5 -9 -13 -20 -19 -20 -11
-28 -40 -11 -40 15 0 64 41 152 127 l85 84 65 -3 64 -3 -52 -33 c-34 -22 -50
-38 -46 -48 8 -20 14 -18 74 27 l54 40 3 -75 c2 -42 7 -76 12 -76 4 0 11 35
15 78 4 42 7 80 8 85 1 4 33 -13 70 -39 86 -57 106 -54 30 6 l-58 45 78 3 c42
2 77 7 77 12 0 5 -37 10 -81 12 l-82 3 62 49 c34 26 60 51 57 54 -3 3 -37 -16
-76 -41 -38 -26 -73 -47 -76 -47 -3 0 -4 28 -3 63 3 50 1 62 -11 62 -11 0 -16
-14 -18 -52 -2 -29 -6 -53 -9 -53 -3 0 -27 16 -53 35 -50 36 -65 42 -75 26 -3
-6 22 -28 55 -51 33 -22 60 -43 60 -47 0 -3 -27 -2 -61 1 -35 4 -65 3 -72 -3
-8 -6 -45 15 -119 70 -108 79 -128 90 -128 67z m149 -110 c39 -24 71 -46 71
-49 0 -4 -37 -38 -81 -77 l-82 -70 -74 56 c-40 31 -72 59 -71 64 4 12 141 116
154 117 6 1 43 -18 83 -41z"/>
<path d="M300 2520 l0 -23 144 6 c80 4 146 3 148 -1 2 -4 62 -47 135 -95 72
-48 134 -95 137 -104 6 -14 40 -15 354 -9 410 7 618 16 603 25 -6 4 -187 8
-403 10 -215 1 -394 4 -398 6 -3 2 -41 5 -85 6 l-80 3 -60 51 c-33 29 -87 70
-121 93 l-61 41 -156 7 -157 7 0 -23z"/>
<path d="M854 1922 c-7 -10 -60 -50 -120 -89 -60 -39 -118 -79 -129 -90 -19
-16 -35 -18 -163 -13 -134 5 -142 4 -142 -14 0 -18 8 -19 154 -14 146 5 155 7
202 34 26 16 82 56 122 90 l75 62 121 6 c66 3 286 9 489 12 202 4 367 10 367
14 0 9 -383 20 -709 20 -235 0 -257 -1 -267 -18z"/>
<path d="M1640 1576 c0 -113 4 -187 10 -191 6 -4 10 18 10 58 0 36 3 79 6 96
6 28 10 31 44 31 58 0 130 12 130 21 0 5 -38 9 -85 9 l-85 0 0 80 c0 64 -3 80
-15 80 -13 0 -15 -27 -15 -184z"/>
<path d="M1405 1738 c-2 -7 -6 -32 -7 -55 l-3 -42 -53 40 c-48 37 -72 43 -72
19 0 -6 26 -27 57 -47 l56 -38 -73 -3 c-65 -3 -76 0 -99 21 -14 13 -51 43 -82
66 -67 49 -68 49 -193 -33 -52 -34 -82 -60 -83 -72 -1 -18 63 -67 178 -133
l36 -21 92 70 91 71 62 -3 62 -3 -52 -35 c-49 -33 -67 -60 -39 -60 6 0 35 16
62 36 l50 35 10 -78 c12 -90 25 -72 25 36 0 73 -2 73 91 10 33 -22 63 -38 66
-35 4 3 4 8 2 9 -2 2 -28 23 -57 45 l-54 42 54 1 c29 1 64 5 78 9 22 7 20 8
-15 10 -22 0 -58 4 -79 8 l-39 7 57 44 c31 24 54 46 52 48 -6 6 -123 -64 -131
-78 -14 -22 -20 -4 -17 56 3 55 1 65 -12 65 -9 0 -19 -6 -21 -12z m-260 -86
c44 -30 82 -56 83 -57 2 -2 -37 -31 -87 -65 l-91 -61 -80 58 c-43 32 -78 61
-77 66 4 15 152 124 162 118 6 -3 46 -29 90 -59z"/>
<path d="M300 1469 c0 -20 4 -21 145 -17 80 1 145 0 145 -3 0 -3 47 -36 105
-74 58 -37 123 -83 143 -103 l37 -35 456 6 c252 4 467 11 480 16 16 7 -68 10
-262 10 -157 1 -378 6 -490 12 l-203 10 -44 37 c-24 20 -76 60 -115 89 -79 57
-67 54 -304 68 -89 5 -93 4 -93 -16z"/>
<path d="M844 965 c-16 -16 -72 -57 -123 -90 -52 -33 -103 -69 -115 -80 -15
-13 -33 -19 -56 -18 -19 1 -83 4 -143 5 -99 3 -107 2 -107 -16 0 -18 8 -19
155 -14 l156 6 68 45 c38 25 92 66 119 90 l50 45 119 6 c65 3 286 9 491 12
204 4 372 10 372 15 0 5 -42 10 -92 10 -51 1 -266 4 -478 8 l-386 6 -30 -30z"/>
<path d="M1430 641 c0 -121 4 -191 10 -191 6 0 10 38 10 95 l0 95 53 0 c66 0
127 10 127 21 0 4 -39 10 -87 11 l-88 3 0 74 c0 50 -4 76 -12 78 -10 4 -13
-38 -13 -186z"/>
<path d="M1160 754 l0 -56 -57 41 c-52 37 -73 43 -73 21 0 -5 25 -27 57 -49
l56 -41 -72 0 c-63 0 -72 -2 -69 -17 2 -14 14 -16 66 -14 34 1 62 1 62 -2 0
-2 -22 -19 -50 -38 -47 -32 -60 -52 -42 -63 4 -2 32 14 61 36 29 22 54 38 56
36 2 -1 4 -28 6 -58 4 -83 12 -103 21 -55 4 22 7 61 7 88 1 26 3 47 6 47 3 0
37 -21 75 -47 39 -25 73 -43 76 -40 3 3 -19 25 -50 49 l-56 43 70 6 c77 6 106
19 44 20 -21 0 -57 3 -79 7 l-40 7 59 45 c73 55 57 65 -21 12 -32 -21 -64 -42
-71 -46 -10 -6 -11 7 -6 58 6 63 5 66 -15 66 -19 0 -21 -6 -21 -56z"/>
<path d="M300 520 c0 -22 2 -22 145 -18 80 1 145 1 145 -2 0 -3 61 -46 135
-95 74 -49 135 -93 135 -97 0 -10 905 -8 945 2 17 4 -89 8 -235 9 -146 1 -366
6 -490 12 l-224 10 -44 37 c-24 20 -76 60 -115 89 -79 57 -74 56 -294 68 -100
6 -103 5 -103 -15z"/>
</g>
</svg>
