<?xml version="1.0" standalone="no"?>
<!DOCTYPE svg PUBLIC "-//W3C//DTD SVG 20010904//EN"
 "http://www.w3.org/TR/2001/REC-SVG-20010904/DTD/svg10.dtd">
<svg version="1.0" xmlns="http://www.w3.org/2000/svg"
 width="213.000000pt" height="130.000000pt" viewBox="0 0 213.000000 130.000000"
 preserveAspectRatio="xMidYMid meet">
<metadata>
Created by potrace 1.16, written by Peter Selinger 2001-2019
</metadata>
<g transform="translate(0.000000,130.000000) scale(0.100000,-0.100000)"
fill="#000000" stroke="none">
<path d="M860 989 c0 -8 -61 -55 -135 -104 -74 -49 -135 -92 -135 -95 0 -3
-65 -4 -145 -2 -137 3 -145 2 -145 -16 0 -17 7 -19 93 -15 220 8 225 9 304 66
39 29 92 69 117 90 l45 39 448 8 c246 5 466 10 488 10 36 1 38 2 16 11 -13 5
-231 12 -488 16 -400 5 -463 4 -463 -8z"/>
<path d="M1152 943 c-10 -4 -12 -68 -12 -299 1 -177 5 -294 11 -294 5 0 35 13
67 29 135 68 232 170 232 242 0 22 -4 39 -8 39 -4 0 -30 34 -57 76 -49 75
-186 215 -209 213 -6 0 -17 -3 -24 -6z m55 -55 c19 -21 21 -40 26 -249 l6
-226 -41 -23 -41 -23 6 108 c4 59 7 182 7 272 0 89 4 163 8 163 5 0 18 -10 29
-22z m108 -105 c64 -76 105 -137 105 -156 0 -31 -37 -90 -82 -133 -85 -80 -78
-92 -78 135 0 110 4 201 8 201 4 0 26 -21 47 -47z"/>
<path d="M300 529 c0 -20 5 -20 145 -17 80 2 145 1 145 -2 0 -3 56 -43 125
-88 69 -46 131 -93 139 -104 15 -21 16 -21 474 -15 253 4 470 11 483 16 16 7
-63 10 -246 10 -148 1 -369 6 -489 11 l-220 10 -44 38 c-24 20 -76 60 -115 89
-79 57 -72 55 -304 67 -88 4 -93 4 -93 -15z"/>
</g>
</svg>
