<?xml version="1.0" standalone="no"?>
<!DOCTYPE svg PUBLIC "-//W3C//DTD SVG 20010904//EN"
 "http://www.w3.org/TR/2001/REC-SVG-20010904/DTD/svg10.dtd">
<svg version="1.0" xmlns="http://www.w3.org/2000/svg"
 width="227.000000pt" height="135.000000pt" viewBox="0 0 227.000000 135.000000"
 preserveAspectRatio="xMidYMid meet">
<metadata>
Created by potrace 1.16, written by Peter Selinger 2001-2019
</metadata>
<g transform="translate(0.000000,135.000000) scale(0.100000,-0.100000)"
fill="#000000" stroke="none">
<path d="M1195 1030 c-12 -14 -31 -20 -58 -20 -36 0 -38 1 -26 18 13 16 13 16
-7 0 -17 -15 -40 -18 -127 -18 -60 0 -107 -4 -107 -9 0 -11 -141 -113 -222
-162 -32 -18 -58 -37 -58 -40 0 -4 -65 -4 -145 -1 l-145 5 0 -23 0 -23 143 8
c78 4 149 8 157 8 20 0 142 83 204 138 40 35 57 43 94 46 l46 2 -90 -92 c-49
-50 -76 -80 -60 -67 17 14 60 55 97 93 60 59 72 67 106 67 l38 0 -145 -147
-145 -148 150 146 c111 108 158 148 181 152 18 3 35 3 38 -1 4 -3 -76 -90
-176 -192 l-183 -185 195 193 c188 185 197 192 235 192 l40 0 -220 -222 -220
-223 225 223 c218 215 226 222 265 222 l40 0 -238 -237 c-130 -131 -240 -242
-244 -248 -4 -5 105 102 243 238 239 237 252 248 285 245 l34 -3 -110 -108
c-60 -59 -105 -107 -100 -107 5 0 60 50 121 111 101 100 114 110 143 107 32
-3 26 -9 -253 -287 -157 -157 -283 -287 -281 -290 3 -2 137 127 297 287 l293
292 162 0 c89 0 164 4 167 9 7 10 -162 21 -337 22 -116 0 -128 2 -122 17 5 14
4 15 -6 5 -7 -7 -31 -13 -52 -13 -36 0 -38 2 -26 18 13 16 12 16 -6 1 -18 -15
-95 -31 -95 -20 0 2 7 13 17 23 9 10 14 18 11 18 -3 0 -13 -9 -23 -20z"/>
<path d="M1260 652 c-162 -163 -254 -258 -205 -210 238 230 508 499 504 503
-3 2 -137 -129 -299 -293z"/>
<path d="M1325 629 l-280 -280 -94 4 -94 5 -56 47 c-31 26 -86 68 -122 92
l-66 44 -156 6 -157 6 0 -22 0 -23 139 7 c128 6 141 5 168 -13 15 -10 73 -49
128 -85 55 -36 111 -76 124 -88 23 -22 25 -22 365 -20 187 1 350 3 361 6 11 2
73 4 138 4 71 1 117 5 117 11 0 6 -79 10 -217 10 l-218 0 145 145 c80 80 140
145 135 145 -6 0 -75 -65 -155 -145 -131 -131 -148 -145 -180 -145 -35 0 -34
0 115 150 l150 150 52 0 53 0 0 -134 c0 -74 4 -137 9 -140 5 -3 12 59 16 139
l7 145 109 0 c66 0 109 4 109 10 0 6 -31 10 -72 10 -40 0 -90 3 -112 7 l-38 6
3 111 c4 99 2 111 -13 114 -16 3 -18 -7 -18 -112 l0 -116 -32 0 -32 0 30 33
29 32 -35 -32 c-28 -26 -45 -33 -75 -33 l-39 0 59 63 60 62 -68 -65 c-37 -36
-143 -140 -235 -233 -160 -161 -168 -167 -207 -167 l-40 0 260 263 260 262
-266 -263 c-242 -240 -268 -263 -293 -258 -16 3 -30 7 -32 9 -2 1 120 126 271
277 253 252 280 280 272 280 -1 0 -128 -126 -282 -281z m125 -140 c-139 -134
-158 -149 -190 -149 -35 0 -34 0 118 153 149 149 154 153 190 149 l36 -5 -154
-148z"/>
<path d="M1018 591 c-84 -82 -151 -152 -148 -155 3 -3 75 64 160 149 85 85
152 155 148 155 -4 0 -76 -67 -160 -149z"/>
<path d="M1590 455 c-47 -47 -81 -85 -76 -85 11 0 171 159 165 164 -3 3 -43
-33 -89 -79z"/>
</g>
</svg>
