<?xml version="1.0" standalone="no"?>
<!DOCTYPE svg PUBLIC "-//W3C//DTD SVG 20010904//EN"
 "http://www.w3.org/TR/2001/REC-SVG-20010904/DTD/svg10.dtd">
<svg version="1.0" xmlns="http://www.w3.org/2000/svg"
 width="248.000000pt" height="130.000000pt" viewBox="0 0 248.000000 130.000000"
 preserveAspectRatio="xMidYMid meet">
<metadata>
Created by potrace 1.16, written by Peter Selinger 2001-2019
</metadata>
<g transform="translate(0.000000,130.000000) scale(0.100000,-0.100000)"
fill="#000000" stroke="none">
<path d="M860 989 c0 -8 -61 -55 -135 -104 -74 -49 -135 -92 -135 -95 0 -3
-65 -4 -145 -2 -137 3 -145 2 -145 -16 0 -17 7 -19 93 -15 220 8 225 9 304 66
39 29 92 69 117 90 l45 39 448 8 c605 12 544 10 508 21 -16 5 -238 12 -492 16
-400 5 -463 4 -463 -8z"/>
<path d="M951 857 c-6 -6 -11 -8 -11 -4 0 7 -119 -65 -220 -133 -86 -58 -82
-70 59 -162 142 -93 178 -111 194 -101 17 10 194 146 230 176 l28 24 -48 40
c-140 116 -220 172 -232 160z m241 -187 c23 0 -6 -24 -126 -104 l-129 -86 -96
73 c-54 39 -108 79 -121 88 -23 15 -22 16 96 105 l119 89 124 -82 c68 -46 128
-83 133 -83z"/>
<path d="M1450 786 c0 -42 -3 -76 -6 -76 -4 0 -37 23 -74 50 -71 53 -85 58
-93 36 -3 -8 23 -33 71 -67 l77 -54 -93 -3 c-82 -2 -93 -5 -90 -20 3 -14 16
-17 86 -16 45 0 82 -1 82 -2 0 -1 -30 -24 -67 -50 -38 -26 -70 -49 -72 -50 -2
-2 2 -10 9 -18 10 -13 22 -8 86 39 41 30 76 55 79 55 3 0 5 -45 5 -100 0 -55
4 -100 9 -100 5 0 12 50 16 110 3 61 9 110 11 110 3 0 45 -27 95 -61 50 -33
93 -58 96 -56 2 3 -28 31 -68 64 l-73 58 45 2 c78 5 151 14 145 20 -2 3 -49 8
-103 12 l-98 6 77 60 c43 33 74 61 69 63 -5 2 -48 -22 -96 -52 -47 -31 -88
-56 -91 -56 -3 0 -4 37 -3 82 4 72 2 83 -13 86 -16 3 -18 -5 -18 -72z"/>
<path d="M1867 854 c-10 -11 -9 -444 2 -444 9 0 21 96 21 176 l0 54 93 0 c112
0 198 10 191 21 -3 5 -60 9 -127 10 -67 0 -129 3 -137 7 -12 5 -15 26 -15 91
0 78 -9 104 -28 85z"/>
<path d="M300 529 c0 -20 5 -20 145 -17 80 2 145 1 145 -2 0 -3 61 -46 135
-95 74 -49 135 -96 135 -104 0 -12 63 -13 463 -8 524 8 687 25 247 26 -151 1
-374 6 -494 11 l-220 10 -44 38 c-24 20 -76 60 -115 89 -79 57 -72 55 -304 67
-88 4 -93 4 -93 -15z"/>
</g>
</svg>
