<?xml version="1.0" standalone="no"?>
<!DOCTYPE svg PUBLIC "-//W3C//DTD SVG 20010904//EN"
 "http://www.w3.org/TR/2001/REC-SVG-20010904/DTD/svg10.dtd">
<svg version="1.0" xmlns="http://www.w3.org/2000/svg"
 width="213.000000pt" height="130.000000pt" viewBox="0 0 213.000000 130.000000"
 preserveAspectRatio="xMidYMid meet">
<metadata>
Created by potrace 1.16, written by Peter Selinger 2001-2019
</metadata>
<g transform="translate(0.000000,130.000000) scale(0.100000,-0.100000)"
fill="#000000" stroke="none">
<path d="M853 982 c-7 -12 -68 -58 -135 -102 -68 -45 -124 -84 -125 -88 -2 -4
-68 -6 -148 -4 -137 3 -145 2 -145 -16 0 -17 7 -19 93 -15 220 8 225 9 304 66
39 29 92 69 117 90 l45 39 448 8 c246 5 466 10 488 10 36 1 38 2 16 11 -13 5
-229 12 -485 16 -460 6 -461 5 -473 -15z"/>
<path d="M1159 923 c-1 -5 0 -48 1 -96 l2 -89 -119 3 -118 3 -2 -70 c-3 -113
-9 -108 122 -101 l112 6 7 -46 c3 -25 6 -72 6 -104 0 -33 4 -59 9 -59 5 0 81
42 170 94 l161 95 0 -74 c0 -41 4 -76 9 -80 5 -3 34 -2 64 1 l55 7 6 51 c3 28
7 84 8 125 l3 74 -230 133 c-211 122 -263 147 -266 127z m71 -154 c0 -55 2
-153 4 -217 4 -100 3 -117 -12 -128 -9 -8 -20 -14 -24 -14 -5 0 -8 108 -8 240
0 238 0 241 20 230 18 -10 20 -21 20 -111z m58 73 c9 -6 14 -59 18 -188 l6
-180 -27 -12 c-15 -7 -29 -11 -31 -10 -6 6 9 398 15 398 3 0 12 -4 19 -8z m75
-44 c14 -11 17 -35 18 -147 l1 -134 -27 -14 c-15 -8 -28 -13 -30 -11 -6 6 8
318 15 318 3 0 14 -6 23 -12z m75 -141 c2 -98 1 -107 -18 -117 -18 -10 -20 -8
-20 27 0 21 3 75 7 121 9 120 27 102 31 -31z m56 72 c22 -10 25 -19 28 -75 3
-62 3 -63 -29 -78 l-33 -16 0 90 c0 50 2 90 5 90 2 0 15 -5 29 -11z m-524 -69
c0 -41 -4 -60 -12 -60 -9 0 -12 17 -10 60 5 78 22 78 22 0z m44 38 c12 -45 7
-98 -9 -98 -12 0 -15 13 -15 60 0 60 12 80 24 38z m56 -38 c0 -54 -2 -60 -21
-60 -15 0 -19 4 -15 16 3 9 6 36 6 60 0 32 4 44 15 44 12 0 15 -13 15 -60z
m90 -3 l0 -63 -35 4 -35 4 0 59 0 59 35 0 35 0 0 -63z m440 19 l44 -24 -53
-26 c-29 -15 -54 -26 -55 -24 -5 7 7 98 13 98 3 -1 26 -11 51 -24z m28 -151
l4 -95 -53 0 -52 0 7 38 c3 20 6 53 6 73 0 30 5 38 38 57 20 12 39 22 42 22 3
0 7 -43 8 -95z"/>
<path d="M300 529 c0 -20 5 -20 145 -17 80 2 145 1 145 -2 0 -3 56 -43 125
-88 69 -46 131 -93 139 -104 15 -21 16 -21 474 -15 253 4 470 11 483 16 16 7
-63 10 -246 10 -148 1 -369 6 -489 11 l-220 10 -44 38 c-24 20 -76 60 -115 89
-79 57 -72 55 -304 67 -88 4 -93 4 -93 -15z"/>
</g>
</svg>
