<?xml version="1.0" standalone="no"?>
<!DOCTYPE svg PUBLIC "-//W3C//DTD SVG 20010904//EN"
 "http://www.w3.org/TR/2001/REC-SVG-20010904/DTD/svg10.dtd">
<svg version="1.0" xmlns="http://www.w3.org/2000/svg"
 width="213.000000pt" height="130.000000pt" viewBox="0 0 213.000000 130.000000"
 preserveAspectRatio="xMidYMid meet">
<metadata>
Created by potrace 1.16, written by Peter Selinger 2001-2019
</metadata>
<g transform="translate(0.000000,130.000000) scale(0.100000,-0.100000)"
fill="#000000" stroke="none">
<path d="M853 982 c-7 -12 -68 -58 -135 -102 -68 -45 -124 -84 -125 -88 -2 -4
-68 -6 -148 -4 -137 3 -145 2 -145 -16 0 -17 7 -19 93 -15 220 8 225 9 304 66
39 29 92 69 117 90 l45 39 448 8 c246 5 466 10 488 10 36 1 38 2 16 11 -13 5
-229 12 -485 16 -460 6 -461 5 -473 -15z"/>
<path d="M927 854 c-4 -4 -7 -38 -7 -76 0 -37 -2 -68 -5 -68 -3 0 -36 23 -72
50 -72 55 -76 56 -92 37 -8 -11 7 -26 72 -70 l82 -57 -92 0 c-92 0 -108 -5
-94 -29 6 -9 30 -11 85 -9 42 2 76 3 76 1 0 -1 -31 -24 -70 -51 -59 -42 -67
-52 -57 -65 11 -15 21 -10 87 38 l75 55 3 -100 c1 -55 6 -100 11 -100 8 0 21
104 21 178 0 23 2 42 5 42 3 0 46 -27 96 -61 50 -33 94 -58 97 -54 4 3 2 9 -4
13 -6 4 -39 30 -74 57 l-63 50 44 2 c78 5 151 15 145 20 -2 3 -49 8 -102 12
l-97 6 76 60 c43 33 77 63 77 68 0 10 -4 7 -98 -55 -105 -71 -99 -72 -98 23 1
76 -8 102 -27 83z"/>
<path d="M1337 854 c-10 -11 -9 -444 2 -444 10 0 21 83 21 168 l0 62 88 0
c115 0 223 11 216 21 -3 5 -62 9 -132 10 -70 1 -136 4 -147 7 -18 6 -20 16
-20 91 0 78 -9 104 -28 85z"/>
<path d="M300 529 c0 -20 5 -20 145 -17 80 2 145 1 145 -2 0 -3 56 -43 125
-88 69 -46 131 -93 139 -104 15 -21 16 -21 474 -15 253 4 470 11 483 16 16 7
-63 10 -246 10 -148 1 -369 6 -489 11 l-220 10 -44 38 c-24 20 -76 60 -115 89
-79 57 -72 55 -304 67 -88 4 -93 4 -93 -15z"/>
</g>
</svg>
