<?xml version="1.0" standalone="no"?>
<!DOCTYPE svg PUBLIC "-//W3C//DTD SVG 20010904//EN"
 "http://www.w3.org/TR/2001/REC-SVG-20010904/DTD/svg10.dtd">
<svg version="1.0" xmlns="http://www.w3.org/2000/svg"
 width="213.000000pt" height="130.000000pt" viewBox="0 0 213.000000 130.000000"
 preserveAspectRatio="xMidYMid meet">
<metadata>
Created by potrace 1.16, written by Peter Selinger 2001-2019
</metadata>
<g transform="translate(0.000000,130.000000) scale(0.100000,-0.100000)"
fill="#000000" stroke="none">
<path d="M860 989 c0 -8 -61 -55 -135 -104 -74 -49 -135 -92 -135 -95 0 -3
-65 -4 -145 -2 -137 3 -145 2 -145 -16 0 -17 7 -19 93 -15 220 8 225 9 304 66
39 29 92 69 117 90 l45 39 448 8 c246 5 466 10 488 10 36 1 38 2 16 11 -13 5
-231 12 -488 16 -400 5 -463 4 -463 -8z"/>
<path d="M1188 851 l-3 -99 -100 73 c-73 53 -103 70 -112 63 -24 -19 -13 -33
70 -91 45 -31 93 -66 107 -78 l25 -21 -127 6 -128 6 0 -25 0 -24 116 -3 116
-3 -90 -63 c-50 -34 -94 -67 -97 -71 -6 -11 4 -41 15 -41 5 0 53 33 108 74
l100 74 7 -139 c4 -76 11 -139 15 -139 8 0 20 147 20 240 0 31 2 59 5 62 3 3
54 -27 114 -67 123 -83 151 -99 151 -88 0 4 -43 42 -95 83 l-95 75 37 7 c21 4
79 7 130 7 50 1 95 6 98 11 4 6 -11 10 -37 11 -24 1 -89 4 -146 8 l-103 6 105
84 c167 132 134 123 -81 -21 l-73 -49 0 116 0 115 -25 0 c-24 0 -24 -1 -27
-99z"/>
<path d="M300 529 c0 -20 5 -20 145 -17 80 2 145 1 145 -2 0 -3 56 -43 125
-88 69 -46 131 -93 139 -104 15 -21 16 -21 474 -15 253 4 470 11 483 16 16 7
-64 10 -251 10 -151 1 -371 6 -489 11 l-215 11 -44 37 c-24 20 -76 60 -115 89
-79 57 -72 55 -304 67 -88 4 -93 4 -93 -15z"/>
</g>
</svg>
