<?xml version="1.0" standalone="no"?>
<!DOCTYPE svg PUBLIC "-//W3C//DTD SVG 20010904//EN"
 "http://www.w3.org/TR/2001/REC-SVG-20010904/DTD/svg10.dtd">
<svg version="1.0" xmlns="http://www.w3.org/2000/svg"
 width="238.000000pt" height="130.000000pt" viewBox="0 0 238.000000 130.000000"
 preserveAspectRatio="xMidYMid meet">
<metadata>
Created by potrace 1.16, written by Peter Selinger 2001-2019
</metadata>
<g transform="translate(0.000000,130.000000) scale(0.100000,-0.100000)"
fill="#000000" stroke="none">
<path d="M851 975 c-13 -13 -70 -55 -128 -92 -58 -37 -113 -75 -122 -83 -13
-12 -43 -14 -158 -12 -138 3 -143 2 -143 -17 0 -19 5 -20 73 -16 39 2 112 7
160 10 82 5 93 8 145 44 32 21 85 62 120 91 l62 52 248 4 c854 14 949 31 222
39 l-455 5 -24 -25z"/>
<path d="M1696 880 c-32 -16 -106 -61 -165 -100 l-107 -69 -63 20 c-93 28
-227 48 -378 56 l-133 6 0 -151 0 -152 39 0 c171 0 449 43 524 82 l38 19 95
-61 c123 -80 204 -122 221 -115 16 6 231 169 283 214 l35 31 -35 31 c-52 45
-267 208 -283 214 -7 3 -39 -8 -71 -25z m189 -105 c86 -58 161 -105 166 -105
18 0 8 -15 -22 -33 l-31 -17 -155 116 c-141 106 -153 117 -136 130 10 7 19 14
20 14 1 0 72 -47 158 -105z m-144 2 c41 -29 111 -77 157 -107 45 -30 82 -56
82 -60 0 -3 -13 -12 -29 -21 l-29 -17 -133 100 c-168 124 -166 123 -149 142 7
9 16 16 20 16 4 0 40 -24 81 -53z m-516 -31 l70 -14 -177 1 c-163 2 -179 4
-198 22 l-20 20 128 -7 c70 -4 159 -14 197 -22z m544 -87 l141 -96 -25 -17
c-25 -17 -26 -16 -175 95 -132 100 -147 114 -132 125 13 10 21 10 33 1 10 -7
80 -55 158 -108z m-116 -7 c62 -43 129 -88 150 -101 43 -27 46 -37 12 -53 -23
-10 -36 -3 -169 98 -110 83 -142 112 -134 121 6 7 15 13 20 13 5 0 59 -35 121
-78z m-258 15 c0 -26 6 -42 18 -48 25 -15 21 -26 -14 -38 -47 -16 -452 -15
-447 2 4 9 56 13 209 15 115 1 208 7 213 12 7 7 -9 10 -44 10 -100 1 -365 12
-369 16 -13 12 25 15 212 21 114 3 204 10 201 15 -3 4 -97 8 -209 8 -117 0
-206 4 -210 9 -8 13 66 18 270 17 l170 -1 0 -38z m114 -6 c20 -15 89 -63 154
-107 l118 -78 -23 -18 c-30 -23 -31 -22 -65 5 -15 13 -68 54 -118 91 -66 50
-92 76 -101 102 -6 19 -9 34 -7 34 3 0 22 -13 42 -29z m-45 -7 c5 -12 2 -15
-10 -10 -8 3 -18 6 -20 6 -3 0 -2 5 1 10 9 15 22 12 29 -6z m-214 -114 c-52
-12 -221 -30 -286 -30 -48 0 -55 2 -44 15 12 15 74 20 270 22 70 1 86 -1 60
-7z"/>
<path d="M300 529 c0 -20 5 -20 145 -17 80 2 146 0 148 -3 1 -4 64 -48 140
-98 75 -51 137 -97 137 -103 0 -13 896 -3 945 10 18 5 -141 12 -405 17 -611
11 -541 4 -608 62 -31 27 -85 68 -119 91 -58 39 -69 43 -143 47 -263 16 -240
16 -240 -6z"/>
</g>
</svg>
