<?xml version="1.0" standalone="no"?>
<!DOCTYPE svg PUBLIC "-//W3C//DTD SVG 20010904//EN"
 "http://www.w3.org/TR/2001/REC-SVG-20010904/DTD/svg10.dtd">
<svg version="1.0" xmlns="http://www.w3.org/2000/svg"
 width="136.000000pt" height="138.000000pt" viewBox="0 0 136.000000 138.000000"
 preserveAspectRatio="xMidYMid meet">
<metadata>
Created by potrace 1.16, written by Peter Selinger 2001-2019
</metadata>
<g transform="translate(0.000000,138.000000) scale(0.100000,-0.100000)"
fill="#000000" stroke="none">
<path d="M360 1032 c0 -28 -5 -54 -11 -58 -8 -5 -8 -8 0 -13 6 -4 14 -38 18
-75 l6 -67 -39 -40 c-21 -21 -33 -39 -28 -39 6 0 21 12 35 26 l24 26 6 -69 c7
-68 7 -68 -29 -105 -40 -42 -33 -52 9 -12 l26 25 6 -73 c5 -69 4 -75 -21 -101
-28 -29 -20 -38 10 -10 19 17 20 14 22 -104 1 -38 14 -54 27 -31 5 9 58 42
117 74 221 118 522 296 522 309 0 8 -9 19 -20 25 -12 7 -17 16 -13 28 5 13 3
15 -7 5 -10 -9 -21 -8 -49 7 -68 36 -68 36 -41 64 28 31 16 35 -16 5 l-22 -21
-51 28 -51 27 27 29 c15 15 22 28 17 28 -6 0 -21 -11 -34 -25 l-23 -24 -46 26
c-25 15 -48 28 -50 29 -1 2 6 13 18 25 32 34 25 47 -8 15 l-29 -28 -43 22
c-57 29 -55 27 -34 50 25 27 12 37 -14 11 l-21 -21 -50 25 c-28 14 -48 30 -45
35 3 5 -3 9 -12 9 -10 0 -33 3 -50 7 l-33 6 0 -50z m140 -70 c0 -15 -69 -92
-82 -92 -4 0 -8 34 -8 75 l0 75 45 -22 c25 -12 45 -28 45 -36z m98 -40 l32
-18 -40 -39 -40 -39 0 57 c0 31 3 57 8 57 4 -1 22 -9 40 -18z m-128 -174 c-24
-27 -47 -48 -50 -48 -3 0 -7 30 -8 66 l-3 67 48 49 48 49 5 -68 5 -68 -45 -47z
m230 120 c22 -13 40 -25 40 -28 0 -3 -40 -46 -90 -95 l-90 -90 0 50 c0 28 -3
60 -6 72 -5 17 4 33 37 68 24 24 50 45 57 45 7 0 31 -10 52 -22z m119 -61 l51
-22 -155 -155 -155 -155 0 80 0 80 97 97 c54 54 101 98 104 98 4 0 30 -10 58
-23z m161 -85 c0 -4 -24 -31 -52 -59 -39 -38 -95 -72 -213 -133 l-160 -82 164
165 164 166 49 -25 c26 -13 48 -28 48 -32z m-460 -35 l0 -73 -50 -49 -50 -49
0 79 0 79 42 43 c23 24 46 43 50 43 4 0 8 -33 8 -73z m528 8 c-2 -2 -32 -17
-68 -35 l-65 -32 44 45 c39 41 46 44 67 35 13 -6 23 -12 22 -13z m-525 -257
c-16 -18 -84 -58 -98 -58 -3 0 -5 26 -5 57 0 56 1 59 53 111 l52 53 8 -72 c7
-62 6 -74 -10 -91z"/>
</g>
</svg>
