<?xml version="1.0" standalone="no"?>
<!DOCTYPE svg PUBLIC "-//W3C//DTD SVG 20010904//EN"
 "http://www.w3.org/TR/2001/REC-SVG-20010904/DTD/svg10.dtd">
<svg version="1.0" xmlns="http://www.w3.org/2000/svg"
 width="173.000000pt" height="138.000000pt" viewBox="0 0 173.000000 138.000000"
 preserveAspectRatio="xMidYMid meet">
<metadata>
Created by potrace 1.16, written by Peter Selinger 2001-2019
</metadata>
<g transform="translate(0.000000,138.000000) scale(0.100000,-0.100000)"
fill="#000000" stroke="none">
<path d="M1084 1055 c-3 -14 -3 -60 0 -104 l7 -79 -33 -5 c-18 -3 -64 -9 -103
-12 -38 -4 -78 -9 -87 -11 -15 -5 -18 2 -18 40 0 34 -4 46 -15 46 -11 0 -15
-12 -15 -44 0 -37 -4 -45 -22 -50 -37 -9 -38 -8 -38 44 0 43 -3 50 -20 50 -18
0 -19 -5 -13 -46 4 -34 2 -48 -8 -55 -31 -19 -39 -10 -39 46 0 42 -3 55 -15
55 -12 0 -15 -13 -15 -55 0 -30 -4 -55 -9 -55 -5 0 -16 -3 -25 -6 -14 -5 -16
3 -16 55 0 48 -3 61 -15 61 -12 0 -15 -13 -15 -59 0 -50 -3 -59 -20 -64 -18
-5 -20 0 -20 59 0 58 -2 64 -21 64 -19 0 -20 -4 -14 -65 7 -62 6 -65 -14 -65
-19 0 -21 5 -21 65 0 55 -3 65 -17 65 -16 0 -18 -8 -15 -66 l4 -66 -66 5 c-60
4 -66 3 -66 -14 0 -17 8 -19 64 -19 70 0 76 -6 76 -77 0 -18 5 -33 10 -33 6 0
10 25 10 55 0 48 3 55 19 55 16 0 21 -10 26 -55 4 -30 11 -55 16 -55 5 0 9 25
9 55 0 52 1 55 25 55 23 0 25 -3 25 -49 0 -28 5 -53 10 -56 6 -4 10 15 10 50
0 56 0 56 28 53 25 -3 27 -7 30 -55 4 -70 22 -68 22 2 0 51 2 55 24 55 26 0
36 -21 36 -77 0 -18 5 -33 10 -33 6 0 10 25 10 55 l0 55 35 0 35 0 0 -49 c0
-28 5 -53 10 -56 6 -4 10 14 10 48 0 53 1 55 31 61 17 3 71 6 119 6 l87 0 7
-77 c3 -42 6 -88 6 -102 l0 -27 -387 4 -386 4 6 -137 c4 -76 9 -140 11 -142 9
-9 36 14 94 81 35 40 67 78 71 85 6 9 23 10 59 5 29 -3 52 -9 52 -13 0 -3 -26
-32 -56 -65 -43 -44 -53 -61 -44 -70 9 -8 28 6 78 61 71 76 66 74 151 57 23
-5 22 -7 -25 -55 -34 -34 -45 -52 -38 -59 8 -8 27 6 65 47 l54 58 68 -9 69 -9
-38 -38 c-30 -31 -35 -42 -26 -51 10 -10 21 -2 55 35 l42 48 58 -7 c56 -7 57
-7 41 -26 -14 -15 -15 -21 -5 -31 10 -9 17 -6 35 16 l22 28 143 -20 c78 -12
146 -23 152 -26 5 -4 9 133 9 358 l0 364 -46 7 c-26 3 -102 6 -170 6 -123 0
-124 0 -130 -25z m307 -47 c0 -24 2 -63 4 -88 2 -25 6 -159 10 -298 5 -217 4
-252 -8 -252 -8 0 -50 6 -93 14 -44 8 -96 17 -117 21 l-37 6 57 69 57 70 55 0
c40 0 52 3 44 11 -7 7 -54 11 -127 10 l-116 -1 0 45 c0 37 3 44 18 43 60 -5
212 4 212 12 0 6 -45 10 -115 10 l-115 0 0 40 0 40 84 0 c46 0 98 3 115 6 29
6 30 8 14 20 -12 9 -50 13 -115 14 -98 0 -98 0 -98 25 0 24 2 25 69 25 37 0
89 3 115 6 45 7 46 7 21 20 -18 9 -51 11 -115 7 l-90 -6 0 30 c0 30 1 30 68
36 37 4 88 7 115 7 26 0 47 5 47 10 0 6 -45 10 -115 10 l-115 0 0 39 0 39 135
1 135 2 1 -43z m-301 -188 c0 -19 -6 -20 -122 -19 -135 1 -137 5 -15 24 123
19 137 19 137 -5z m129 -287 c-7 -10 -33 -40 -58 -66 -46 -48 -46 -48 -96 -41
-27 3 -54 8 -58 11 -4 2 11 26 33 53 39 47 44 49 98 53 31 2 65 4 76 5 16 2
17 0 5 -15z m-543 -22 c-14 -15 -23 -16 -71 -8 -30 6 -55 14 -55 18 0 8 118
17 133 11 5 -2 1 -12 -7 -21z m154 -6 c-30 -31 -38 -34 -70 -29 -67 11 -71 13
-58 34 13 21 35 26 112 29 l50 1 -34 -35z m183 -14 l-48 -49 -68 12 -68 11 28
37 28 37 88 1 89 0 -49 -49z m-486 33 c-3 -3 -12 -4 -19 -1 -8 3 -5 6 6 6 11
1 17 -2 13 -5z m-43 -37 c5 -2 -20 -34 -57 -73 l-66 -69 -1 81 0 81 58 -9 c31
-5 61 -10 66 -11z"/>
</g>
</svg>
