<?xml version="1.0" standalone="no"?>
<!DOCTYPE svg PUBLIC "-//W3C//DTD SVG 20010904//EN"
 "http://www.w3.org/TR/2001/REC-SVG-20010904/DTD/svg10.dtd">
<svg version="1.0" xmlns="http://www.w3.org/2000/svg"
 width="215.000000pt" height="152.000000pt" viewBox="0 0 215.000000 152.000000"
 preserveAspectRatio="xMidYMid meet">
<metadata>
Created by potrace 1.16, written by Peter Selinger 2001-2019
</metadata>
<g transform="translate(0.000000,152.000000) scale(0.100000,-0.100000)"
fill="#000000" stroke="none">
<path d="M1601 1204 c-10 -12 -12 -42 -9 -127 3 -82 1 -105 -6 -84 -9 26 -13
27 -74 27 -64 0 -65 0 -47 20 10 11 14 20 8 20 -5 0 -18 -9 -28 -20 -10 -11
-22 -20 -28 -20 -5 0 -39 32 -75 71 -46 49 -68 67 -75 60 -8 -8 2 -24 33 -56
41 -42 43 -46 28 -62 -16 -15 -22 -11 -91 56 -49 47 -77 68 -82 61 -4 -7 13
-33 44 -64 l51 -52 -34 -2 c-30 -2 -40 5 -95 65 -46 51 -63 65 -72 56 -9 -9 0
-25 39 -65 l51 -53 -41 -3 c-39 -3 -44 -1 -101 63 -42 47 -63 63 -70 56 -8 -8
2 -25 33 -58 25 -26 48 -49 53 -51 18 -9 4 -22 -23 -22 -16 0 -30 5 -30 11 0
8 -4 8 -15 -1 -15 -12 -48 18 -140 128 -25 30 -55 43 -55 23 0 -5 17 -28 38
-52 l39 -43 -111 -69 c-156 -98 -241 -163 -312 -239 -78 -83 -109 -145 -100
-198 16 -100 86 -222 149 -260 27 -17 51 -20 158 -20 129 0 185 11 268 55 31
15 34 15 45 -1 11 -15 15 -13 42 19 16 19 47 43 69 52 122 52 116 53 57 -8
-39 -39 -50 -57 -41 -62 8 -6 36 16 82 64 50 53 72 70 80 62 6 -6 16 -11 21
-11 6 0 5 5 -2 12 -19 19 -14 28 18 28 17 0 30 -4 30 -10 0 -5 -4 -10 -9 -10
-18 0 -123 -129 -115 -141 5 -8 31 14 78 65 66 72 72 76 90 63 19 -14 18 -16
-22 -62 -23 -26 -42 -51 -42 -56 0 -26 25 -10 85 57 l68 75 26 -25 c39 -37 47
-32 15 9 l-26 35 76 0 c44 0 76 4 76 10 0 6 -29 10 -67 10 -65 0 -66 0 -48 20
24 26 11 25 -27 -2 l-31 -21 -19 23 -19 23 112 59 c61 32 113 57 114 56 4 -5
15 -209 15 -286 l0 -73 113 3 114 3 6 230 c4 127 7 323 7 436 l0 206 -52 7
c-96 11 -182 7 -197 -10z m213 -517 l7 -328 -93 3 -93 3 -2 180 -3 180 20 -25
c24 -31 25 -16 5 60 -10 39 -15 108 -15 232 l0 177 33 6 c17 2 52 6 77 7 l45
3 6 -85 c3 -47 9 -233 13 -413z m-951 321 l17 -42 -67 -68 c-53 -53 -65 -70
-55 -80 10 -10 25 1 72 52 63 69 72 70 86 10 3 -14 10 -32 15 -40 5 -8 27 -51
49 -95 41 -83 43 -84 40 -25 l-1 35 111 43 c62 24 120 42 130 40 10 -2 26 4
36 13 32 28 255 118 260 106 32 -89 44 -140 44 -187 l0 -57 -129 -55 -130 -55
-32 33 c-22 23 -36 31 -43 24 -7 -7 0 -20 18 -39 l28 -29 -22 -12 c-20 -11
-27 -7 -75 40 -35 35 -55 48 -60 40 -4 -7 10 -29 36 -56 36 -37 41 -46 29 -54
-27 -17 -38 -11 -99 57 -48 53 -63 65 -73 55 -10 -10 -1 -24 42 -67 l54 -55
-43 0 c-41 0 -47 4 -104 66 -42 46 -63 62 -70 55 -8 -8 4 -27 41 -64 29 -29
52 -56 52 -60 0 -4 -13 -7 -30 -7 -16 0 -30 5 -30 11 0 8 -4 8 -14 0 -14 -12
-39 9 -136 122 -30 34 -60 49 -60 28 0 -4 37 -47 82 -95 l81 -87 -84 -87 c-46
-47 -85 -88 -86 -91 -6 -11 -162 -12 -200 -2 -77 21 -145 99 -182 209 -37 109
-34 117 73 219 59 57 151 128 246 192 83 55 155 101 158 101 4 0 15 -19 25
-42z m243 -87 c-57 -57 -65 -70 -53 -80 9 -7 17 -8 19 -2 1 5 31 39 66 75 57
59 66 65 82 53 18 -13 18 -14 -7 -43 -14 -16 -36 -42 -49 -57 -20 -24 -128
-77 -156 -77 -9 0 -38 54 -38 70 0 6 23 36 52 66 35 37 55 51 62 44 15 -15 30
-12 17 4 -10 12 -6 15 26 18 21 2 40 2 42 0 3 -1 -25 -33 -63 -71z m174 70 c0
-5 -7 -14 -15 -21 -12 -10 -18 -10 -30 0 -8 7 -13 15 -11 19 7 10 56 12 56 2z
m110 6 c0 -2 -8 -11 -18 -21 -18 -15 -20 -15 -37 4 -18 20 -18 20 18 20 21 0
37 -2 37 -3z m160 -2 c0 -6 -69 -35 -84 -35 -6 0 -17 9 -24 20 -12 19 -10 20
48 20 33 0 60 -2 60 -5z m-510 -8 c0 -2 -20 -23 -45 -47 l-44 -44 -16 38 c-18
43 -14 56 12 35 15 -12 16 -12 10 4 -5 15 0 17 38 17 25 0 45 -1 45 -3z m300
-35 c0 -17 -57 -60 -100 -76 l-45 -18 20 24 c66 79 88 97 107 87 10 -5 18 -13
18 -17z m93 -2 c-4 -4 -24 -12 -43 -19 l-34 -11 29 30 c22 23 31 27 42 18 8
-6 10 -14 6 -18z m-98 -400 c-3 -5 -14 -10 -23 -9 -14 0 -13 2 3 9 27 11 27
11 20 0z m55 -43 c0 -2 -8 -11 -18 -21 -18 -15 -20 -15 -37 4 -18 20 -18 20
18 20 21 0 37 -2 37 -3z m-366 -28 c-10 -12 -48 -35 -84 -51 -118 -54 -118
-54 -65 4 27 29 50 55 52 57 1 2 10 -2 20 -10 15 -12 16 -12 10 4 -5 15 0 17
40 17 l46 0 -19 -21z"/>
<path d="M593 862 c-11 -7 53 -135 155 -313 l32 -56 -75 -16 c-100 -22 -162
-22 -201 2 -33 20 -83 92 -109 159 -19 47 -35 55 -35 17 0 -51 83 -186 130
-210 44 -23 128 -18 222 11 46 14 84 27 86 29 8 7 -173 385 -186 385 -4 0 -12
-4 -19 -8z"/>
</g>
</svg>
