<?xml version="1.0" standalone="no"?>
<!DOCTYPE svg PUBLIC "-//W3C//DTD SVG 20010904//EN"
 "http://www.w3.org/TR/2001/REC-SVG-20010904/DTD/svg10.dtd">
<svg version="1.0" xmlns="http://www.w3.org/2000/svg"
 width="226.000000pt" height="115.000000pt" viewBox="0 0 226.000000 115.000000"
 preserveAspectRatio="xMidYMid meet">
<metadata>
Created by potrace 1.16, written by Peter Selinger 2001-2019
</metadata>
<g transform="translate(0.000000,115.000000) scale(0.100000,-0.100000)"
fill="#000000" stroke="none">
<path d="M1315 807 c-140 -47 -196 -72 -263 -121 -54 -38 -72 -71 -72 -131 0
-45 -1 -46 -45 -65 -56 -24 -108 -34 -139 -26 -23 6 -24 9 -28 118 -6 167 -37
207 -151 195 -83 -8 -205 -69 -189 -94 5 -8 28 -1 80 24 91 46 170 55 200 25
27 -27 45 -117 40 -205 -3 -70 -3 -71 27 -83 46 -20 95 -16 155 12 30 14 56
21 58 16 1 -5 11 -25 21 -45 l19 -36 -55 -21 c-96 -36 -213 -62 -248 -56 l-32
6 -5 93 c-6 104 -20 142 -59 163 -46 24 -144 17 -237 -15 -94 -33 -100 -37
-85 -52 8 -8 30 -4 78 16 208 83 276 49 280 -140 l2 -80 95 -3 c92 -3 100 -1
185 35 l88 39 33 -22 c35 -24 111 -44 166 -44 87 0 696 106 696 122 0 11 14
13 -332 -38 -172 -25 -316 -50 -319 -56 -9 -15 -128 10 -175 37 -31 18 -47 37
-63 76 -19 42 -20 53 -9 60 19 12 28 11 28 -5 0 -7 9 -25 20 -39 26 -32 110
-52 182 -42 l50 7 -7 57 c-10 79 -42 241 -49 249 -4 3 -11 1 -17 -5 -7 -7 0
-50 21 -138 16 -70 30 -134 30 -142 0 -13 -10 -14 -60 -9 -120 14 -143 35
-166 153 l-11 62 76 39 c72 38 276 112 305 112 8 0 16 -14 19 -32 3 -18 14
-84 24 -145 18 -112 29 -139 35 -86 l3 28 195 22 c107 12 200 22 206 22 7 1
13 -36 17 -100 3 -56 10 -106 16 -112 9 -9 11 21 9 113 l-3 125 -35 -4 c-19
-2 -119 -11 -222 -20 l-187 -16 -12 85 c-19 134 -24 155 -39 157 -8 2 -73 -17
-145 -40z m-278 -200 c1 -23 3 -48 5 -56 1 -7 -3 -16 -9 -18 -10 -3 -13 10
-13 50 0 43 5 67 14 67 1 0 2 -19 3 -43z"/>
</g>
</svg>
