<?xml version="1.0" standalone="no"?>
<!DOCTYPE svg PUBLIC "-//W3C//DTD SVG 20010904//EN"
 "http://www.w3.org/TR/2001/REC-SVG-20010904/DTD/svg10.dtd">
<svg version="1.0" xmlns="http://www.w3.org/2000/svg"
 width="260.000000pt" height="148.000000pt" viewBox="0 0 260.000000 148.000000"
 preserveAspectRatio="xMidYMid meet">
<metadata>
Created by potrace 1.16, written by Peter Selinger 2001-2019
</metadata>
<g transform="translate(0.000000,148.000000) scale(0.100000,-0.100000)"
fill="#000000" stroke="none">
<path d="M1346 1100 c-226 -142 -353 -255 -402 -359 -44 -93 50 -297 163 -352
90 -44 243 -26 402 47 42 20 155 71 252 114 224 100 499 237 499 249 0 11 -82
-23 -455 -186 -137 -60 -280 -122 -317 -138 -38 -16 -68 -35 -68 -41 0 -13
-25 -19 -116 -29 -87 -10 -162 8 -212 51 -51 43 -110 159 -118 230 -6 46 -4
56 22 89 45 59 168 160 320 261 77 52 145 94 150 94 5 0 29 -47 53 -103 25
-56 64 -142 88 -192 l43 -90 0 47 0 46 98 38 c195 74 345 135 384 155 22 11
44 17 48 12 4 -4 15 -33 25 -63 31 -98 78 -210 87 -210 12 0 5 34 -42 189 -21
69 -42 125 -47 124 -4 -1 -30 -11 -58 -22 -161 -66 -510 -190 -516 -183 -4 4
-34 68 -66 142 -63 146 -70 160 -82 160 -4 0 -65 -36 -135 -80z"/>
<path d="M304 1079 c-4 -7 3 -21 18 -33 114 -95 244 -211 246 -220 2 -9 79
-43 300 -133 17 -7 32 -9 32 -5 0 8 -163 89 -254 126 -22 9 -37 18 -35 20 5 5
270 166 274 166 1 0 6 -52 9 -116 11 -170 25 -185 25 -29 1 116 -1 132 -18
147 -17 15 -24 13 -107 -31 -49 -26 -118 -63 -154 -83 l-65 -37 -105 100
c-131 124 -156 143 -166 128z"/>
<path d="M1227 949 c-16 -9 -12 -20 39 -117 32 -59 74 -137 96 -174 21 -36 38
-71 38 -76 0 -11 -137 -42 -186 -42 -79 0 -137 53 -186 170 -11 28 -24 50 -28
50 -47 0 48 -189 117 -231 29 -18 45 -21 96 -17 47 4 189 40 215 54 4 2 -105
239 -149 326 -29 57 -37 65 -52 57z"/>
<path d="M300 690 c0 -5 46 -49 102 -97 57 -48 121 -106 144 -129 32 -32 72
-53 193 -103 84 -34 155 -60 159 -57 3 3 3 7 1 9 -9 6 -206 96 -246 112 -24
10 -41 20 -38 24 2 4 63 43 135 85 71 43 133 83 137 89 10 17 -21 2 -169 -78
-75 -41 -139 -75 -143 -75 -4 0 -61 52 -128 115 -111 106 -147 131 -147 105z"/>
<path d="M894 494 c11 -167 26 -180 23 -20 -1 100 -5 130 -16 134 -12 4 -13
-15 -7 -114z"/>
</g>
</svg>
