<?xml version="1.0" standalone="no"?>
<!DOCTYPE svg PUBLIC "-//W3C//DTD SVG 20010904//EN"
 "http://www.w3.org/TR/2001/REC-SVG-20010904/DTD/svg10.dtd">
<svg version="1.0" xmlns="http://www.w3.org/2000/svg"
 width="171.000000pt" height="152.000000pt" viewBox="0 0 171.000000 152.000000"
 preserveAspectRatio="xMidYMid meet">
<metadata>
Created by potrace 1.16, written by Peter Selinger 2001-2019
</metadata>
<g transform="translate(0.000000,152.000000) scale(0.100000,-0.100000)"
fill="#000000" stroke="none">
<path d="M317 1212 c-17 -3 -18 -27 -16 -438 0 -240 3 -443 6 -454 3 -10 11
-17 18 -16 17 2 159 132 345 313 124 122 138 132 173 133 20 0 37 5 37 10 0 6
-16 10 -36 10 -33 0 -51 14 -217 176 -226 219 -287 271 -310 266z m318 -322
c55 -46 107 -90 115 -98 13 -12 0 -13 -107 -10 l-123 4 0 -29 0 -30 123 7 122
7 -40 -33 c-22 -18 -102 -87 -179 -153 -76 -66 -156 -136 -178 -155 l-41 -34
6 169 c4 94 10 268 13 387 l7 217 91 -82 c50 -46 136 -121 191 -167z"/>
<path d="M1343 1110 c-62 -14 -120 -57 -143 -106 -20 -41 -21 -50 -10 -87 7
-23 27 -56 46 -73 34 -32 109 -64 151 -64 l23 0 0 170 c0 188 4 177 -67 160z
m-3 -52 c-27 -60 -27 -170 0 -221 24 -44 15 -47 -50 -13 -121 61 -119 190 2
250 29 14 55 26 59 26 5 0 -1 -19 -11 -42z"/>
<path d="M1015 901 c-84 -38 -127 -111 -106 -180 20 -68 112 -131 192 -131
l29 0 0 165 0 165 -37 0 c-21 0 -56 -9 -78 -19z m43 -33 c-31 -59 -31 -170 0
-222 25 -43 13 -47 -47 -16 -60 30 -91 73 -91 126 0 38 6 51 38 85 29 31 82
62 119 69 2 0 -7 -19 -19 -42z"/>
<path d="M1343 740 c-64 -15 -124 -59 -145 -108 -18 -39 -19 -50 -8 -86 7 -22
27 -55 46 -72 34 -32 109 -64 151 -64 l23 0 0 170 c0 188 4 177 -67 160z m-4
-56 c-28 -62 -27 -162 1 -216 l21 -40 -28 7 c-109 27 -163 129 -113 211 18 28
105 84 131 84 5 0 -1 -21 -12 -46z"/>
</g>
</svg>
