<?xml version="1.0" standalone="no"?>
<!DOCTYPE svg PUBLIC "-//W3C//DTD SVG 20010904//EN"
 "http://www.w3.org/TR/2001/REC-SVG-20010904/DTD/svg10.dtd">
<svg version="1.0" xmlns="http://www.w3.org/2000/svg"
 width="118.000000pt" height="152.000000pt" viewBox="0 0 118.000000 152.000000"
 preserveAspectRatio="xMidYMid meet">
<metadata>
Created by potrace 1.16, written by Peter Selinger 2001-2019
</metadata>
<g transform="translate(0.000000,152.000000) scale(0.100000,-0.100000)"
fill="#000000" stroke="none">
<path d="M312 1213 c-10 -4 -12 -95 -11 -441 1 -241 4 -444 8 -452 3 -8 11
-16 16 -17 6 -1 91 75 190 168 l180 168 3 -47 c1 -26 5 -63 9 -82 l6 -35 8 45
c4 25 8 70 8 100 1 48 5 60 36 93 28 31 40 37 74 37 23 0 41 5 41 10 0 6 -17
10 -38 10 -30 0 -45 7 -70 33 l-32 33 0 127 c0 120 -1 127 -20 127 -19 0 -20
-7 -20 -105 l0 -106 -182 171 c-99 93 -184 170 -187 169 -3 0 -12 -3 -19 -6z
m151 -174 c56 -51 132 -117 170 -147 55 -46 67 -61 67 -85 l0 -29 -90 4 -90 4
0 -29 0 -30 90 5 90 5 0 -26 c0 -19 -10 -35 -32 -51 -28 -21 -213 -181 -312
-269 l-28 -26 6 185 c3 102 9 274 12 383 4 108 9 197 11 197 2 0 50 -41 106
-91z m292 -249 c3 -5 1 -10 -4 -10 -6 0 -11 5 -11 10 0 6 2 10 4 10 3 0 8 -4
11 -10z m0 -60 c-3 -5 -11 -10 -16 -10 -6 0 -7 5 -4 10 3 6 11 10 16 10 6 0 7
-4 4 -10z"/>
</g>
</svg>
