<?xml version="1.0" standalone="no"?>
<!DOCTYPE svg PUBLIC "-//W3C//DTD SVG 20010904//EN"
 "http://www.w3.org/TR/2001/REC-SVG-20010904/DTD/svg10.dtd">
<svg version="1.0" xmlns="http://www.w3.org/2000/svg"
 width="147.000000pt" height="152.000000pt" viewBox="0 0 147.000000 152.000000"
 preserveAspectRatio="xMidYMid meet">
<metadata>
Created by potrace 1.16, written by Peter Selinger 2001-2019
</metadata>
<g transform="translate(0.000000,152.000000) scale(0.100000,-0.100000)"
fill="#000000" stroke="none">
<path d="M317 1212 c-17 -4 -18 -26 -16 -440 1 -239 4 -443 6 -453 3 -9 11
-16 19 -15 14 2 298 263 414 380 57 58 69 66 102 66 21 0 38 5 38 10 0 6 -16
10 -36 10 -33 0 -52 16 -242 199 -238 230 -260 249 -285 243z m318 -321 c150
-125 149 -114 8 -109 l-123 4 0 -29 0 -29 123 7 122 6 -40 -33 c-22 -18 -102
-87 -178 -153 -76 -66 -156 -135 -178 -154 l-40 -35 6 235 c4 129 8 248 10
264 2 17 4 86 4 153 l1 124 93 -84 c50 -46 137 -122 192 -167z"/>
<path d="M1048 997 c-47 -67 -102 -148 -122 -180 l-36 -58 122 -160 c68 -89
129 -168 135 -177 7 -8 16 -13 19 -9 4 4 -48 88 -115 188 l-121 182 33 41 c19
22 73 94 120 158 78 107 85 118 68 128 -16 8 -29 -6 -103 -113z"/>
</g>
</svg>
