<?xml version="1.0" standalone="no"?>
<!DOCTYPE svg PUBLIC "-//W3C//DTD SVG 20010904//EN"
 "http://www.w3.org/TR/2001/REC-SVG-20010904/DTD/svg10.dtd">
<svg version="1.0" xmlns="http://www.w3.org/2000/svg"
 width="152.000000pt" height="148.000000pt" viewBox="0 0 152.000000 148.000000"
 preserveAspectRatio="xMidYMid meet">
<metadata>
Created by potrace 1.16, written by Peter Selinger 2001-2019
</metadata>
<g transform="translate(0.000000,148.000000) scale(0.100000,-0.100000)"
fill="#000000" stroke="none">
<path d="M1065 1086 c-107 -115 -187 -223 -211 -281 l-19 -43 -267 5 -268 6 0
-28 0 -28 203 7 c111 4 230 9 264 13 l62 6 10 -39 c20 -76 104 -195 245 -349
30 -33 57 -57 60 -54 4 3 -32 57 -79 120 -46 63 -85 117 -85 121 0 4 32 24 71
44 39 21 93 57 120 82 44 39 49 48 49 86 0 40 -4 45 -62 93 -35 27 -85 65
-112 83 l-50 34 98 93 c82 78 96 96 86 108 -7 8 -16 15 -21 15 -4 0 -47 -42
-94 -94z m-16 -203 c87 -62 141 -112 141 -129 0 -24 -79 -102 -152 -150 -38
-26 -71 -44 -74 -42 -2 3 -22 40 -44 82 -44 85 -50 128 -24 179 18 35 73 107
81 107 3 0 35 -21 72 -47z"/>
</g>
</svg>
