<?xml version="1.0" standalone="no"?>
<!DOCTYPE svg PUBLIC "-//W3C//DTD SVG 20010904//EN"
 "http://www.w3.org/TR/2001/REC-SVG-20010904/DTD/svg10.dtd">
<svg version="1.0" xmlns="http://www.w3.org/2000/svg"
 width="135.000000pt" height="135.000000pt" viewBox="0 0 135.000000 135.000000"
 preserveAspectRatio="xMidYMid meet">
<metadata>
Created by potrace 1.16, written by Peter Selinger 2001-2019
</metadata>
<g transform="translate(0.000000,135.000000) scale(0.100000,-0.100000)"
fill="#000000" stroke="none">
<path d="M540 1031 c-103 -29 -165 -57 -162 -74 1 -8 -6 -17 -16 -19 -31 -8
-56 -115 -57 -238 l0 -105 57 -115 c32 -63 64 -123 72 -134 8 -10 41 -25 73
-32 97 -23 169 -18 290 20 59 19 127 39 150 45 48 13 44 3 79 186 29 157 28
218 -5 305 -22 55 -23 55 -119 103 -166 81 -236 93 -362 58z m253 -50 c41 -11
98 -30 126 -41 47 -21 51 -25 70 -83 25 -74 26 -144 3 -322 l-17 -130 -130
-29 c-74 -17 -160 -30 -200 -31 -66 0 -179 19 -204 34 -7 4 -28 55 -47 112
-48 138 -53 230 -22 348 l23 83 58 24 c136 57 219 66 340 35z"/>
<path d="M432 853 c3 -15 16 -19 74 -21 l71 -3 -40 -39 c-30 -31 -47 -40 -73
-40 -27 0 -34 -4 -34 -20 0 -15 7 -20 28 -20 26 0 27 -2 24 -40 -4 -34 -7 -40
-28 -40 -17 0 -24 -6 -24 -20 0 -16 7 -20 33 -20 25 0 39 -7 55 -30 54 -73
183 -95 267 -46 24 15 52 40 62 56 13 22 25 30 45 30 15 0 28 5 28 10 0 6 -10
10 -22 10 -21 0 -23 5 -24 50 0 46 1 50 23 50 13 0 23 5 23 10 0 6 -13 10 -28
10 -20 0 -35 9 -51 31 -12 16 -37 39 -54 50 l-32 19 70 1 c39 0 79 4 90 8 27
11 -132 21 -327 21 -146 0 -159 -1 -156 -17z"/>
<path d="M438 474 c-5 -4 -8 -14 -8 -22 0 -13 31 -14 242 -9 220 6 259 10 247
21 -8 7 -474 18 -481 10z"/>
</g>
</svg>
