<?xml version="1.0" standalone="no"?>
<!DOCTYPE svg PUBLIC "-//W3C//DTD SVG 20010904//EN"
 "http://www.w3.org/TR/2001/REC-SVG-20010904/DTD/svg10.dtd">
<svg version="1.0" xmlns="http://www.w3.org/2000/svg"
 width="194.000000pt" height="163.000000pt" viewBox="0 0 194.000000 163.000000"
 preserveAspectRatio="xMidYMid meet">
<metadata>
Created by potrace 1.16, written by Peter Selinger 2001-2019
</metadata>
<g transform="translate(0.000000,163.000000) scale(0.100000,-0.100000)"
fill="#000000" stroke="none">
<path d="M650 1319 c0 -7 14 -34 31 -62 24 -39 29 -55 21 -71 -9 -19 -11 -17
-33 27 -21 42 -38 60 -39 40 -1 -11 84 -182 90 -182 8 -1 90 150 90 166 0 26
-20 2 -54 -65 -32 -63 -34 -65 -45 -43 -14 26 1 54 24 45 10 -4 12 0 8 15 -3
12 6 39 22 67 16 28 23 50 18 55 -6 6 -19 -9 -35 -37 l-26 -47 -26 51 c-24 48
-46 67 -46 41z"/>
<path d="M616 1181 c-4 -6 16 -49 44 -96 33 -56 50 -97 50 -118 -1 -29 -4 -25
-40 42 -44 83 -60 104 -60 78 0 -9 22 -54 49 -99 36 -62 50 -98 56 -143 l8
-60 12 65 c7 44 25 89 53 137 23 39 42 76 42 82 0 26 -18 6 -53 -56 -32 -59
-37 -64 -37 -39 0 17 19 62 46 108 26 43 43 82 39 86 -8 9 -29 -19 -61 -81
-17 -33 -30 -47 -42 -45 -9 2 -34 34 -55 72 -44 81 -43 80 -51 67z"/>
<path d="M1030 1135 c-10 -13 -10 -19 3 -33 13 -15 14 -25 5 -61 -10 -37 -31
-62 -43 -49 -2 2 2 25 10 51 12 39 12 47 1 47 -9 0 -20 -26 -31 -69 -9 -38
-28 -85 -42 -103 -14 -18 -23 -26 -20 -17 33 97 43 168 21 146 -3 -3 -16 -47
-29 -98 -15 -58 -32 -100 -45 -113 l-22 -21 7 24 c40 134 43 151 29 151 -8 0
-14 -3 -14 -6 0 -19 -54 -211 -61 -219 -5 -5 -25 -8 -43 -7 -112 10 -167 -133
-76 -198 l30 -21 0 -120 c0 -73 4 -119 10 -119 6 0 10 47 10 120 0 113 1 120
20 120 19 0 20 -7 20 -120 0 -147 19 -166 22 -22 3 152 3 154 19 166 24 17 39
51 39 86 0 36 -25 90 -42 90 -8 0 -7 5 2 13 8 7 59 24 113 37 60 15 97 29 97
37 0 16 9 17 -85 -12 -43 -13 -81 -23 -82 -21 -12 11 50 41 131 63 53 14 96
30 96 34 0 14 -22 11 -91 -11 -35 -10 -65 -18 -67 -16 -11 11 56 44 122 60 50
12 76 22 76 32 0 17 7 18 -78 -10 -71 -23 -78 -22 -66 8 7 18 44 22 44 4 0 -6
9 -2 19 9 11 11 42 26 69 32 l49 12 109 -74 c60 -40 117 -78 128 -84 17 -10
17 -11 1 -43 -12 -22 -16 -47 -12 -75 4 -39 2 -44 -27 -60 -47 -27 -325 -225
-332 -237 -4 -5 0 -16 7 -23 12 -11 44 9 194 119 l180 133 38 -32 c36 -31 128
-65 175 -65 22 0 22 2 22 176 l0 177 -55 -6 c-32 -3 -75 -17 -102 -31 l-46
-26 -71 52 c-39 29 -123 91 -186 138 -143 107 -135 103 -150 85z m92 -106 c-4
-4 -22 -10 -39 -14 l-32 -6 10 30 11 31 29 -17 c16 -10 25 -20 21 -24z m415
-171 c-31 -32 -43 -39 -55 -31 -29 18 -24 33 20 53 69 32 80 25 35 -22z m-69
-44 c36 -25 28 -58 -20 -87 -43 -25 -43 -25 -51 -5 -8 22 -3 48 15 86 13 26
26 28 56 6z m87 -193 l38 -33 -34 7 c-43 9 -88 31 -117 58 l-23 22 33 26 32
27 17 -37 c9 -20 33 -51 54 -70z"/>
<path d="M376 1093 c4 -15 11 -39 16 -52 11 -31 5 -36 -33 -22 -39 13 -59 14
-59 2 0 -5 25 -17 55 -26 31 -9 58 -22 62 -30 3 -8 9 -15 15 -15 5 0 6 5 3 10
-3 6 3 10 15 10 19 0 38 -25 27 -36 -4 -4 -92 18 -134 33 -7 3 -13 -1 -13 -9
0 -10 26 -21 77 -34 43 -10 89 -29 103 -41 l25 -22 -65 19 c-36 11 -74 20 -85
20 -42 -1 14 -27 95 -46 53 -12 87 -25 101 -40 l21 -22 -79 23 c-43 12 -81 21
-86 18 -17 -10 8 -22 95 -43 51 -13 99 -27 106 -33 18 -14 25 -3 13 20 -6 10
-21 60 -35 111 -25 97 -31 110 -43 99 -3 -4 5 -47 20 -95 26 -87 26 -87 3 -61
-13 15 -32 65 -46 115 -13 49 -27 93 -31 98 -19 22 -19 -6 0 -70 11 -37 19
-69 17 -71 -10 -10 -37 42 -55 106 -21 77 -27 89 -38 78 -3 -4 -1 -25 6 -48
13 -45 12 -52 -11 -44 -8 3 -21 31 -29 62 -7 31 -20 58 -27 61 -9 3 -11 -4 -6
-25z"/>
<path d="M655 540 c-8 -14 -4 -229 5 -235 7 -5 20 115 20 191 0 42 -12 64 -25
44z"/>
<path d="M830 426 c0 -77 4 -126 10 -126 6 0 10 46 10 119 0 69 -4 122 -10
126 -6 4 -10 -38 -10 -119z"/>
</g>
</svg>
