<?xml version="1.0" standalone="no"?>
<!DOCTYPE svg PUBLIC "-//W3C//DTD SVG 20010904//EN"
 "http://www.w3.org/TR/2001/REC-SVG-20010904/DTD/svg10.dtd">
<svg version="1.0" xmlns="http://www.w3.org/2000/svg"
 width="231.000000pt" height="135.000000pt" viewBox="0 0 231.000000 135.000000"
 preserveAspectRatio="xMidYMid meet">
<metadata>
Created by potrace 1.16, written by Peter Selinger 2001-2019
</metadata>
<g transform="translate(0.000000,135.000000) scale(0.100000,-0.100000)"
fill="#000000" stroke="none">
<path d="M1391 1031 c-9 -16 6 -30 117 -108 70 -50 159 -111 199 -137 l71 -46
-19 -37 c-14 -27 -18 -49 -14 -74 6 -34 4 -37 -52 -74 -32 -21 -115 -78 -185
-128 -111 -78 -126 -92 -117 -108 5 -11 12 -19 14 -19 3 0 73 51 157 113 219
162 204 154 231 129 32 -30 109 -62 167 -69 l50 -6 0 178 0 177 -54 -4 c-30
-2 -77 -16 -105 -30 l-52 -25 -195 143 c-107 79 -197 144 -199 144 -2 0 -9 -8
-14 -19z m514 -273 c-22 -24 -40 -43 -40 -44 0 -1 -11 7 -25 18 -24 19 -24 20
-5 31 28 16 77 35 95 36 8 1 -3 -17 -25 -41z m-74 -43 c25 -13 28 -20 23 -43
-4 -15 -7 -27 -8 -28 -56 -36 -77 -43 -83 -28 -11 30 13 114 34 114 2 0 17 -7
34 -15z m37 -129 c7 -19 29 -48 48 -65 19 -17 31 -31 26 -31 -23 0 -99 33
-129 56 l-34 26 32 24 c18 13 36 24 39 24 3 0 12 -15 18 -34z"/>
<path d="M1207 816 c-44 -16 -197 -108 -197 -118 0 -23 31 -13 106 36 129 83
199 88 249 18 26 -38 30 -54 34 -123 2 -52 -1 -84 -9 -94 -22 -27 -122 -56
-195 -58 -88 -1 -135 19 -230 99 -109 92 -201 143 -295 164 -58 12 -370 13
-370 1 0 -20 25 -23 185 -21 140 1 171 -2 221 -19 68 -24 202 -107 279 -172
73 -63 131 -84 225 -83 74 1 138 21 182 57 24 19 42 99 35 162 -5 50 -47 131
-77 150 -22 14 -107 14 -143 1z"/>
</g>
</svg>
