<?xml version="1.0" standalone="no"?>
<!DOCTYPE svg PUBLIC "-//W3C//DTD SVG 20010904//EN"
 "http://www.w3.org/TR/2001/REC-SVG-20010904/DTD/svg10.dtd">
<svg version="1.0" xmlns="http://www.w3.org/2000/svg"
 width="202.000000pt" height="135.000000pt" viewBox="0 0 202.000000 135.000000"
 preserveAspectRatio="xMidYMid meet">
<metadata>
Created by potrace 1.16, written by Peter Selinger 2001-2019
</metadata>
<g transform="translate(0.000000,135.000000) scale(0.100000,-0.100000)"
fill="#000000" stroke="none">
<path d="M1101 1031 c-9 -16 7 -31 127 -116 75 -53 165 -114 199 -136 l61 -38
-19 -38 c-14 -27 -18 -49 -14 -74 6 -34 4 -37 -52 -74 -32 -21 -115 -78 -185
-128 -111 -78 -126 -92 -117 -108 5 -11 12 -19 14 -19 3 0 73 51 157 113 219
162 204 154 231 129 32 -30 109 -62 167 -69 l50 -6 0 178 0 177 -54 -4 c-32
-3 -76 -16 -105 -31 l-50 -26 -196 145 c-108 79 -198 144 -200 144 -2 0 -9 -8
-14 -19z m514 -273 c-22 -24 -40 -43 -40 -44 0 -1 -11 7 -25 18 -24 19 -24 20
-5 31 28 16 77 35 95 36 8 1 -3 -17 -25 -41z m-74 -43 c25 -13 28 -20 23 -43
-4 -15 -7 -27 -8 -28 -56 -36 -77 -43 -83 -28 -11 30 13 114 34 114 2 0 17 -7
34 -15z m37 -129 c7 -19 29 -48 48 -65 19 -17 31 -31 26 -31 -23 0 -99 33
-129 56 l-34 26 32 24 c18 13 36 24 39 24 3 0 12 -15 18 -34z"/>
<path d="M729 973 c-19 -21 -43 -49 -54 -64 l-20 -25 -169 0 c-136 1 -170 -2
-174 -13 -4 -12 22 -13 162 -9 92 3 165 2 163 -1 -1 -3 -15 -32 -31 -63 l-27
-58 -140 0 -139 0 0 -119 c0 -66 3 -122 7 -124 5 -2 77 -1 161 2 l152 6 48
-55 c27 -30 67 -68 90 -83 l41 -29 248 143 c335 192 329 188 312 204 -26 25
-540 316 -567 321 -23 5 -34 -1 -63 -33z m315 -137 c138 -74 264 -140 279
-147 27 -12 26 -13 -100 -80 -70 -38 -132 -69 -137 -69 -4 0 -7 43 -4 95 3 70
1 96 -9 99 -21 9 -24 -10 -17 -111 l7 -98 -144 -79 -143 -80 -39 45 c-84 95
-89 107 -90 220 -2 72 -6 104 -14 106 -10 4 -13 -15 -14 -69 -1 -66 -2 -70
-11 -38 -14 47 4 124 44 186 40 64 116 154 131 154 6 0 123 -60 261 -134z
m-594 -211 l0 -95 -26 0 c-26 0 -27 1 -20 53 3 28 6 69 6 89 0 26 5 38 18 41
9 3 18 5 20 6 1 0 2 -42 2 -94z m80 5 c0 -49 -1 -93 -2 -97 -2 -6 -52 -5 -54
0 0 1 2 44 4 95 4 89 5 92 28 92 24 0 24 -2 24 -90z m43 58 c-4 -30 13 -106
32 -150 6 -15 2 -18 -25 -18 -29 0 -32 3 -26 23 3 12 6 57 6 100 0 42 4 77 8
77 4 0 6 -15 5 -32z m-193 -68 l0 -90 -31 0 c-28 0 -31 3 -25 23 3 12 6 52 6
90 0 65 1 67 25 67 25 0 25 -1 25 -90z"/>
<path d="M727 733 c-3 -5 -3 -62 0 -128 7 -138 19 -126 24 24 3 73 1 105 -8
108 -6 2 -14 0 -16 -4z"/>
<path d="M829 736 c-8 -8 2 -236 11 -236 10 0 25 214 15 229 -6 11 -18 14 -26
7z"/>
<path d="M950 621 c0 -129 14 -162 25 -58 9 85 3 169 -12 175 -10 3 -13 -25
-13 -117z"/>
</g>
</svg>
