<?xml version="1.0" standalone="no"?>
<!DOCTYPE svg PUBLIC "-//W3C//DTD SVG 20010904//EN"
 "http://www.w3.org/TR/2001/REC-SVG-20010904/DTD/svg10.dtd">
<svg version="1.0" xmlns="http://www.w3.org/2000/svg"
 width="156.000000pt" height="152.000000pt" viewBox="0 0 156.000000 152.000000"
 preserveAspectRatio="xMidYMid meet">
<metadata>
Created by potrace 1.16, written by Peter Selinger 2001-2019
</metadata>
<g transform="translate(0.000000,152.000000) scale(0.100000,-0.100000)"
fill="#000000" stroke="none">
<path d="M320 1213 c0 -5 7 -43 15 -86 25 -129 13 -332 -21 -382 -24 -33 -16
-128 23 -288 20 -84 38 -154 40 -156 13 -17 8 28 -18 183 l-31 179 29 116 c22
90 28 139 28 221 0 133 -18 220 -46 220 -10 0 -19 -3 -19 -7z"/>
<path d="M534 1203 c4 -9 14 -60 23 -112 14 -82 14 -111 4 -201 -7 -58 -19
-118 -27 -135 -31 -62 -28 -103 17 -286 50 -200 62 -196 24 8 -31 175 -31 186
1 320 31 125 36 231 15 346 -13 71 -16 77 -38 77 -20 0 -24 -4 -19 -17z"/>
<path d="M651 1157 c-6 -6 -11 -16 -11 -22 0 -11 265 -202 352 -254 33 -20 37
-25 27 -43 -21 -38 -28 -79 -19 -103 8 -20 3 -26 -43 -55 -79 -49 -317 -220
-317 -228 0 -4 5 -14 10 -22 8 -12 13 -12 37 6 15 12 96 71 180 133 l152 113
38 -31 c46 -36 112 -61 164 -61 l39 0 0 176 0 177 -52 -6 c-28 -4 -76 -18
-105 -32 l-52 -26 -153 112 c-84 61 -171 127 -194 145 -31 25 -44 30 -53 21z
m505 -280 c-39 -41 -42 -43 -64 -29 -29 19 -17 34 43 56 62 23 65 19 21 -27z
m-78 -44 c15 -9 28 -18 30 -19 2 -1 0 -14 -4 -28 -6 -27 -75 -72 -88 -59 -12
12 -6 65 11 94 20 34 17 33 51 12z m40 -127 c7 -19 29 -48 48 -65 26 -23 30
-31 17 -31 -26 0 -115 44 -132 64 -13 16 -11 20 15 41 16 14 31 24 34 25 4 0
12 -15 18 -34z"/>
</g>
</svg>
