<?xml version="1.0" standalone="no"?>
<!DOCTYPE svg PUBLIC "-//W3C//DTD SVG 20010904//EN"
 "http://www.w3.org/TR/2001/REC-SVG-20010904/DTD/svg10.dtd">
<svg version="1.0" xmlns="http://www.w3.org/2000/svg"
 width="194.000000pt" height="135.000000pt" viewBox="0 0 194.000000 135.000000"
 preserveAspectRatio="xMidYMid meet">
<metadata>
Created by potrace 1.16, written by Peter Selinger 2001-2019
</metadata>
<g transform="translate(0.000000,135.000000) scale(0.100000,-0.100000)"
fill="#000000" stroke="none">
<path d="M1040 1035 c-11 -13 -11 -18 1 -29 25 -24 238 -175 307 -218 37 -23
69 -43 71 -45 2 -1 -4 -18 -14 -37 -12 -23 -16 -45 -13 -73 6 -39 5 -39 -56
-78 -97 -63 -306 -215 -306 -224 0 -5 6 -14 13 -20 11 -8 30 1 83 42 119 90
281 207 289 207 4 0 23 -13 41 -30 33 -29 116 -60 161 -60 l23 0 0 176 0 177
-51 -6 c-28 -4 -71 -18 -96 -32 l-45 -25 -180 133 c-98 72 -187 138 -197 145
-15 10 -20 10 -31 -3z m507 -277 c-31 -32 -43 -39 -55 -31 -29 18 -24 33 20
53 69 32 80 25 35 -22z m-77 -43 c45 -23 40 -58 -12 -89 l-43 -25 -8 21 c-8
22 -3 48 15 86 13 26 11 26 48 7z m35 -116 c4 -12 25 -42 47 -65 23 -25 34
-44 27 -44 -23 0 -113 46 -132 67 -17 20 -17 21 10 42 35 26 40 26 48 0z"/>
<path d="M410 730 l0 -100 -55 0 c-48 0 -55 -2 -55 -20 0 -18 7 -20 60 -20
l60 0 1 -117 c2 -163 13 -206 22 -84 4 52 7 118 7 148 0 50 1 53 25 53 25 0
25 0 26 -102 1 -123 16 -180 20 -73 1 39 3 75 4 80 2 6 3 29 4 53 1 37 4 42
25 42 28 0 36 -32 36 -152 0 -42 5 -80 10 -83 6 -4 10 37 10 114 0 120 0 121
24 121 21 0 24 -5 29 -67 4 -38 7 -92 7 -121 0 -33 4 -51 10 -47 6 4 10 55 10
119 l0 113 143 6 c78 4 216 7 307 8 91 0 183 3 205 8 57 10 -162 21 -437 21
l-218 0 0 85 c0 69 -3 85 -15 85 -12 0 -15 -16 -15 -85 0 -84 0 -85 -25 -85
-25 0 -25 1 -25 85 0 69 -3 85 -15 85 -12 0 -15 -16 -15 -85 0 -84 0 -85 -25
-85 -25 0 -25 1 -25 85 0 79 -1 85 -20 85 -20 0 -21 -5 -18 -82 3 -79 2 -83
-19 -86 -23 -3 -23 -1 -23 97 0 94 -1 101 -20 101 -19 0 -20 -7 -20 -100z"/>
</g>
</svg>
