<?xml version="1.0" standalone="no"?>
<!DOCTYPE svg PUBLIC "-//W3C//DTD SVG 20010904//EN"
 "http://www.w3.org/TR/2001/REC-SVG-20010904/DTD/svg10.dtd">
<svg version="1.0" xmlns="http://www.w3.org/2000/svg"
 width="167.000000pt" height="135.000000pt" viewBox="0 0 167.000000 135.000000"
 preserveAspectRatio="xMidYMid meet">
<metadata>
Created by potrace 1.16, written by Peter Selinger 2001-2019
</metadata>
<g transform="translate(0.000000,135.000000) scale(0.100000,-0.100000)"
fill="#000000" stroke="none">
<path d="M749 1034 c-15 -19 -26 -9 175 -151 135 -95 293 -189 302 -180 3 2
-6 14 -20 24 l-25 20 75 51 74 51 0 -92 c0 -51 3 -130 7 -175 l6 -84 -78 53
-78 52 23 19 c74 60 -64 -7 -195 -95 -104 -69 -265 -188 -265 -195 0 -4 4 -13
9 -21 7 -11 49 15 193 120 100 74 188 138 195 142 7 5 53 -16 108 -48 89 -51
134 -70 109 -45 -6 6 -7 40 -2 87 9 106 10 311 0 316 -4 3 -53 -21 -110 -54
l-102 -59 -113 82 c-61 45 -147 108 -189 140 -42 32 -79 58 -81 58 -3 0 -11
-7 -18 -16z"/>
<path d="M465 961 c-104 -30 -118 -40 -139 -101 -10 -30 -21 -93 -23 -140 -5
-82 -4 -88 30 -152 75 -143 106 -163 247 -156 63 2 88 9 161 44 47 23 86 48
86 55 0 8 10 47 23 88 19 60 22 88 18 156 -6 85 -19 125 -42 125 -12 0 -12 -8
0 -52 18 -69 18 -129 -1 -220 -22 -106 -21 -104 -78 -127 -109 -43 -154 -46
-284 -19 l-52 11 -30 71 c-16 39 -33 94 -36 121 -7 56 17 191 38 212 7 7 40
23 72 35 81 29 186 29 284 -1 40 -12 75 -20 78 -17 7 6 -70 45 -136 67 -66 23
-137 23 -216 0z"/>
<path d="M387 873 c-17 -17 -2 -23 53 -23 67 0 80 14 23 24 -49 8 -68 8 -76
-1z"/>
<path d="M600 865 c0 -12 13 -15 60 -15 67 0 80 14 23 24 -61 10 -83 7 -83 -9z"/>
<path d="M377 773 c-17 -17 -3 -23 52 -23 33 0 62 4 65 9 10 16 -102 29 -117
14z"/>
<path d="M600 765 c0 -11 13 -15 54 -15 62 0 82 14 35 24 -55 11 -89 7 -89 -9z"/>
<path d="M393 658 c2 -7 11 -13 20 -12 10 0 35 1 57 2 64 3 46 22 -21 22 -44
0 -60 -3 -56 -12z"/>
<path d="M610 661 c0 -17 16 -21 69 -14 70 8 64 23 -9 23 -33 0 -60 -4 -60 -9z"/>
<path d="M400 575 c0 -11 12 -15 48 -15 60 0 86 15 42 24 -56 11 -90 7 -90 -9z"/>
<path d="M620 575 c0 -11 12 -15 48 -15 60 0 86 15 42 24 -56 11 -90 7 -90 -9z"/>
</g>
</svg>
