<?xml version="1.0" standalone="no"?>
<!DOCTYPE svg PUBLIC "-//W3C//DTD SVG 20010904//EN"
 "http://www.w3.org/TR/2001/REC-SVG-20010904/DTD/svg10.dtd">
<svg version="1.0" xmlns="http://www.w3.org/2000/svg"
 width="235.000000pt" height="135.000000pt" viewBox="0 0 235.000000 135.000000"
 preserveAspectRatio="xMidYMid meet">
<metadata>
Created by potrace 1.16, written by Peter Selinger 2001-2019
</metadata>
<g transform="translate(0.000000,135.000000) scale(0.100000,-0.100000)"
fill="#000000" stroke="none">
<path d="M1453 1032 c-10 -17 4 -30 130 -119 78 -56 167 -116 197 -134 30 -18
57 -34 59 -36 2 -1 -4 -14 -14 -29 -10 -15 -18 -48 -19 -75 l-1 -48 -101 -69
c-141 -97 -254 -182 -254 -190 0 -4 4 -13 9 -21 7 -11 46 13 178 111 92 68
173 127 180 131 7 5 30 -5 54 -23 41 -29 123 -60 161 -60 17 0 18 13 18 176
l0 177 -45 -6 c-25 -2 -68 -16 -95 -30 l-49 -26 -194 145 c-107 79 -197 144
-199 144 -2 0 -8 -8 -15 -18z m510 -276 c-36 -42 -38 -43 -60 -27 -12 9 -23
18 -23 22 0 8 83 48 103 48 15 1 10 -8 -20 -43z m-72 -41 c25 -13 28 -20 23
-43 -4 -15 -7 -27 -8 -28 -37 -23 -76 -41 -80 -37 -11 12 -6 64 9 93 18 35 17
35 56 15z m33 -120 c3 -13 23 -43 45 -65 21 -22 35 -40 31 -40 -22 0 -100 34
-125 55 l-30 25 28 25 c35 31 43 31 51 0z"/>
<path d="M445 910 c-4 -6 -5 -36 -4 -68 l3 -57 -72 -3 c-40 -2 -72 -7 -72 -12
0 -17 26 -25 85 -25 l60 0 3 -77 c2 -43 7 -78 12 -78 6 0 10 15 10 34 0 66 12
126 26 126 10 0 14 -17 15 -62 1 -87 14 -118 22 -54 4 27 7 64 7 82 0 30 3 34
25 34 25 0 25 -1 25 -80 0 -44 4 -80 9 -80 4 0 12 36 15 80 4 44 11 80 15 80
5 0 12 -36 15 -80 4 -44 12 -80 17 -80 5 0 9 34 9 76 0 66 2 75 18 72 14 -3
18 -16 20 -68 4 -84 17 -97 25 -24 3 31 8 58 10 61 13 13 257 -146 257 -167 0
-4 28 -20 63 -36 105 -47 231 -39 314 23 25 18 34 35 43 80 16 74 1 141 -43
199 -57 75 -138 70 -283 -19 -46 -28 -84 -57 -84 -64 0 -21 16 -15 92 34 85
55 128 72 183 72 34 0 44 -5 68 -36 15 -20 32 -55 38 -77 12 -43 6 -143 -9
-158 -20 -20 -132 -50 -192 -52 -83 -1 -148 29 -245 113 -38 33 -100 77 -137
96 l-68 36 0 85 c0 76 -2 85 -17 82 -16 -3 -18 -13 -14 -81 1 -42 -1 -77 -5
-77 -29 1 -36 20 -32 86 3 59 1 69 -14 72 -16 3 -18 -6 -18 -73 0 -48 -4 -74
-10 -70 -5 3 -10 38 -10 76 0 62 -2 70 -17 67 -15 -3 -18 -15 -18 -71 0 -63
-1 -67 -22 -67 -22 0 -23 4 -23 70 0 56 -3 70 -15 70 -12 0 -15 -14 -15 -70 0
-56 -3 -70 -15 -70 -12 0 -15 14 -15 70 0 54 -3 70 -14 70 -8 0 -18 -5 -21
-10z"/>
</g>
</svg>
