<?xml version="1.0" standalone="no"?>
<!DOCTYPE svg PUBLIC "-//W3C//DTD SVG 20010904//EN"
 "http://www.w3.org/TR/2001/REC-SVG-20010904/DTD/svg10.dtd">
<svg version="1.0" xmlns="http://www.w3.org/2000/svg"
 width="152.000000pt" height="135.000000pt" viewBox="0 0 152.000000 135.000000"
 preserveAspectRatio="xMidYMid meet">
<metadata>
Created by potrace 1.16, written by Peter Selinger 2001-2019
</metadata>
<g transform="translate(0.000000,135.000000) scale(0.100000,-0.100000)"
fill="#000000" stroke="none">
<path d="M601 1032 c-8 -15 11 -32 132 -119 78 -55 167 -115 197 -134 30 -18
56 -33 58 -34 1 -1 -5 -16 -14 -34 -13 -26 -14 -40 -6 -74 6 -23 10 -42 9 -42
-75 -42 -377 -253 -377 -265 0 -4 6 -12 13 -18 10 -9 56 20 197 123 101 74
187 135 191 135 4 0 11 -5 14 -10 13 -20 103 -59 154 -66 l51 -7 0 178 0 178
-50 -6 c-28 -3 -77 -20 -109 -37 l-59 -32 -190 141 c-104 78 -192 141 -196
141 -3 0 -10 -8 -15 -18z m551 -228 c-13 -9 -36 -33 -51 -54 l-27 -37 -27 22
c-20 18 -23 26 -13 34 21 17 100 51 121 51 18 0 18 -1 -3 -16z m-107 -90 c39
-26 34 -66 -12 -88 -29 -14 -38 -15 -44 -4 -19 30 -3 108 22 108 5 0 21 -7 34
-16z m95 -178 c25 -20 28 -26 13 -26 -23 1 -102 36 -125 57 -17 15 -16 17 14
40 l32 23 18 -34 c9 -18 31 -45 48 -60z"/>
<path d="M300 700 l0 -23 328 7 c180 5 329 10 331 12 14 13 -39 16 -333 21
l-326 6 0 -23z"/>
</g>
</svg>
