<?xml version="1.0" standalone="no"?>
<!DOCTYPE svg PUBLIC "-//W3C//DTD SVG 20010904//EN"
 "http://www.w3.org/TR/2001/REC-SVG-20010904/DTD/svg10.dtd">
<svg version="1.0" xmlns="http://www.w3.org/2000/svg"
 width="202.000000pt" height="135.000000pt" viewBox="0 0 202.000000 135.000000"
 preserveAspectRatio="xMidYMid meet">
<metadata>
Created by potrace 1.16, written by Peter Selinger 2001-2019
</metadata>
<g transform="translate(0.000000,135.000000) scale(0.100000,-0.100000)"
fill="#000000" stroke="none">
<path d="M1110 1035 c-16 -19 -25 -10 128 -119 190 -137 417 -268 330 -192
l-27 24 71 47 c38 25 71 45 73 43 1 -2 5 -78 9 -171 l7 -167 -77 52 c-76 50
-77 52 -56 66 42 28 22 32 -29 7 -97 -49 -429 -276 -429 -293 0 -4 4 -13 9
-21 11 -17 -1 -24 206 129 94 69 175 129 182 133 7 5 53 -16 108 -48 53 -30
97 -55 100 -55 2 0 4 92 5 205 0 146 -3 205 -11 205 -6 0 -53 -25 -105 -55
l-94 -55 -190 140 c-105 77 -192 140 -194 140 -2 0 -9 -7 -16 -15z"/>
<path d="M703 957 l-57 -62 -165 0 c-143 0 -166 -2 -169 -16 -2 -14 15 -15
158 -11 l160 5 -27 -61 -28 -61 -137 -1 -138 0 0 -121 0 -122 155 7 155 7 56
-60 c30 -33 71 -70 90 -81 l34 -22 83 47 c417 239 479 278 465 290 -21 20
-530 311 -555 317 -18 5 -34 -6 -80 -55z m420 -164 c140 -75 195 -109 185
-115 -7 -5 -49 -27 -93 -49 -44 -23 -163 -86 -264 -142 l-185 -101 -53 59
c-149 168 -149 310 2 473 l58 62 76 -41 c42 -22 165 -88 274 -146z m-553 -118
c0 -31 7 -72 15 -92 8 -19 15 -37 15 -39 0 -2 -64 -4 -141 -4 l-141 0 6 31 c3
17 6 58 6 90 l0 58 58 4 c31 2 85 4 120 5 l62 2 0 -55z"/>
</g>
</svg>
