<?xml version="1.0" standalone="no"?>
<!DOCTYPE svg PUBLIC "-//W3C//DTD SVG 20010904//EN"
 "http://www.w3.org/TR/2001/REC-SVG-20010904/DTD/svg10.dtd">
<svg version="1.0" xmlns="http://www.w3.org/2000/svg"
 width="186.000000pt" height="135.000000pt" viewBox="0 0 186.000000 135.000000"
 preserveAspectRatio="xMidYMid meet">
<metadata>
Created by potrace 1.16, written by Peter Selinger 2001-2019
</metadata>
<g transform="translate(0.000000,135.000000) scale(0.100000,-0.100000)"
fill="#000000" stroke="none">
<path d="M961 1036 c-7 -8 -10 -19 -7 -25 8 -12 253 -186 326 -231 30 -19 57
-35 59 -37 2 -2 -4 -18 -14 -37 -12 -23 -16 -45 -13 -73 6 -39 5 -39 -56 -78
-91 -59 -306 -215 -306 -223 0 -4 4 -13 9 -21 8 -13 12 -13 29 0 11 8 92 67
180 132 88 64 163 117 167 117 4 0 23 -13 41 -30 33 -29 116 -60 161 -60 l23
0 0 176 0 177 -51 -6 c-28 -4 -71 -18 -96 -32 l-45 -25 -180 133 c-99 72 -188
138 -198 145 -14 10 -19 10 -29 -2z m506 -278 c-31 -32 -43 -39 -55 -31 -29
18 -24 33 20 53 69 32 80 25 35 -22z m-77 -43 c45 -23 40 -58 -12 -89 l-43
-26 -9 29 c-6 21 -3 38 9 65 10 20 19 36 22 36 2 0 17 -7 33 -15z m35 -116 c4
-12 25 -42 47 -65 23 -25 34 -44 27 -44 -23 0 -113 46 -132 67 -17 20 -17 21
10 42 35 26 40 26 48 0z"/>
<path d="M300 958 c0 -17 35 -51 137 -133 75 -60 147 -119 160 -130 l24 -20
-155 -125 c-85 -69 -155 -130 -155 -136 -2 -34 26 -37 289 -31 l260 5 92 83
c103 91 218 199 218 204 0 5 -129 127 -223 211 l-89 78 -106 7 c-59 4 -185 8
-279 8 -173 1 -173 1 -173 -21z m532 -11 c-9 -10 16 -35 109 -112 67 -55 139
-113 162 -129 l40 -30 -33 -25 c-19 -15 -93 -75 -164 -134 l-131 -108 -110 5
c-60 3 -159 6 -220 6 -100 1 -108 2 -90 16 46 34 253 230 253 239 0 9 -193
191 -258 244 l-25 20 135 2 c115 1 327 12 339 17 2 1 -1 -4 -7 -11z"/>
</g>
</svg>
