<?xml version="1.0" standalone="no"?>
<!DOCTYPE svg PUBLIC "-//W3C//DTD SVG 20010904//EN"
 "http://www.w3.org/TR/2001/REC-SVG-20010904/DTD/svg10.dtd">
<svg version="1.0" xmlns="http://www.w3.org/2000/svg"
 width="201.000000pt" height="144.000000pt" viewBox="0 0 201.000000 144.000000"
 preserveAspectRatio="xMidYMid meet">
<metadata>
Created by potrace 1.16, written by Peter Selinger 2001-2019
</metadata>
<g transform="translate(0.000000,144.000000) scale(0.100000,-0.100000)"
fill="#000000" stroke="none">
<path d="M667 1089 l6 -51 -51 26 c-57 29 -62 30 -62 16 0 -5 27 -23 60 -40
44 -22 60 -36 60 -51 0 -20 -1 -20 -44 5 -51 30 -56 31 -56 13 0 -7 36 -31 80
-52 44 -21 80 -43 80 -47 0 -4 4 -8 10 -8 5 0 7 35 4 88 -6 100 -11 119 -24
106 -5 -5 -6 -39 -2 -82 5 -39 5 -72 1 -72 -9 0 -24 21 -33 44 -5 14 -2 17 9
12 8 -3 15 -1 15 5 0 5 -7 12 -15 15 -11 5 -15 22 -15 65 0 45 -3 59 -15 59
-11 0 -13 -10 -8 -51z"/>
<path d="M1097 1053 c-4 -3 -7 -12 -7 -19 0 -13 179 -146 310 -229 41 -27 76
-49 78 -51 2 -1 -4 -14 -14 -29 -11 -17 -17 -44 -16 -73 l1 -47 -67 -44 c-148
-98 -292 -205 -292 -218 0 -36 39 -16 205 107 l177 132 27 -26 c34 -32 103
-62 164 -70 l47 -6 0 181 0 181 -47 -6 c-27 -4 -74 -19 -105 -34 l-56 -28
-193 143 c-107 79 -196 143 -200 143 -3 0 -9 -3 -12 -7z m510 -277 c-36 -38
-45 -43 -60 -33 -10 7 -19 16 -20 22 -2 8 94 54 115 55 4 0 -12 -20 -35 -44z
m-72 -48 c20 -9 25 -17 21 -32 -3 -12 -6 -24 -6 -28 0 -12 -71 -48 -82 -42
-13 8 -4 80 12 99 15 18 22 18 55 3z m25 -107 c0 -10 20 -41 45 -69 l46 -51
-38 11 c-51 14 -84 32 -108 57 -19 22 -19 22 10 46 36 30 45 31 45 6z"/>
<path d="M779 1035 c-3 -2 -1 -41 3 -86 4 -46 6 -84 5 -86 -2 -2 -41 17 -87
42 -46 25 -85 45 -87 45 -2 0 -3 -6 -3 -13 0 -7 37 -31 82 -52 44 -22 87 -46
95 -54 8 -7 17 -11 20 -8 8 9 -7 217 -16 217 -4 0 -10 -2 -12 -5z"/>
<path d="M835 875 c4 -52 5 -95 2 -95 -3 0 -43 20 -88 45 -88 47 -99 51 -99
35 0 -5 47 -33 105 -63 l105 -54 0 82 c0 93 -8 145 -22 145 -6 0 -7 -36 -3
-95z"/>
<path d="M552 819 c3 -8 39 -32 81 -54 42 -22 77 -42 77 -45 0 -3 -41 -27 -91
-54 -59 -31 -87 -52 -81 -58 6 -6 45 11 111 50 l102 60 -84 51 c-100 60 -122
70 -115 50z"/>
<path d="M460 811 c0 -5 34 -26 75 -48 41 -21 75 -41 75 -44 0 -3 -36 -24 -80
-48 -44 -23 -82 -46 -85 -52 -14 -22 30 -6 102 38 43 25 86 46 96 45 34 -2 16
14 -72 66 -89 52 -111 60 -111 43z"/>
<path d="M385 800 c-3 -5 27 -26 67 -46 65 -33 70 -38 50 -45 -29 -11 -55 -1
-47 18 4 11 1 13 -11 9 -9 -3 -38 6 -64 20 -65 35 -88 25 -26 -11 l49 -28 -49
-25 c-59 -30 -58 -28 -50 -41 4 -6 29 3 64 24 45 26 61 31 76 23 18 -10 15
-13 -27 -35 -26 -13 -47 -28 -47 -33 0 -16 18 -12 58 13 20 13 59 35 85 49
l48 26 -80 46 c-88 50 -87 50 -96 36z"/>
<path d="M870 745 c0 -13 20 -15 123 -15 167 0 338 11 331 21 -3 5 -106 9
-230 9 -192 0 -224 -2 -224 -15z"/>
<path d="M755 644 c-54 -29 -101 -57 -103 -63 -6 -18 7 -13 95 34 45 25 85 45
89 45 3 0 2 -43 -2 -95 -4 -64 -3 -95 4 -95 12 0 25 124 20 185 l-3 40 -100
-51z"/>
<path d="M870 686 c0 -9 8 -16 18 -17 49 -3 437 3 441 7 11 10 -17 13 -231 20
-208 6 -228 5 -228 -10z"/>
<path d="M790 612 c0 -4 -40 -28 -90 -52 -49 -24 -90 -50 -90 -58 0 -9 29 2
86 32 47 25 88 46 91 46 2 0 2 -20 -1 -45 -3 -25 -9 -65 -12 -90 -4 -37 -2
-45 10 -45 12 0 16 11 16 49 0 26 3 76 6 110 5 43 3 61 -5 61 -6 0 -11 -4 -11
-8z"/>
<path d="M740 534 c0 -6 -36 -28 -80 -49 -44 -21 -80 -45 -80 -52 0 -9 15 -6
50 12 28 14 50 23 50 20 0 -21 -25 -44 -69 -65 -28 -13 -51 -29 -51 -37 0 -18
9 -16 55 12 22 13 44 25 48 25 5 0 6 -23 2 -51 -6 -41 -4 -51 6 -47 9 3 15 25
17 62 2 38 8 59 18 63 7 3 14 9 14 14 0 4 -7 6 -15 3 -24 -10 -18 34 6 47 22
11 22 11 15 -70 -5 -50 -4 -81 2 -81 6 0 12 6 15 14 8 21 11 175 3 183 -3 3
-6 2 -6 -3z"/>
</g>
</svg>
