<?xml version="1.0" standalone="no"?>
<!DOCTYPE svg PUBLIC "-//W3C//DTD SVG 20010904//EN"
 "http://www.w3.org/TR/2001/REC-SVG-20010904/DTD/svg10.dtd">
<svg version="1.0" xmlns="http://www.w3.org/2000/svg"
 width="205.000000pt" height="259.000000pt" viewBox="0 0 205.000000 259.000000"
 preserveAspectRatio="xMidYMid meet">
<metadata>
Created by potrace 1.16, written by Peter Selinger 2001-2019
</metadata>
<g transform="translate(0.000000,259.000000) scale(0.100000,-0.100000)"
fill="#000000" stroke="none">
<path d="M1040 2275 c-8 -10 -9 -19 -4 -24 15 -14 256 -184 306 -216 l46 -29
-15 -30 c-12 -22 -14 -47 -10 -96 5 -65 5 -67 -22 -83 -15 -9 -91 -62 -169
-117 -129 -92 -141 -103 -131 -121 7 -14 14 -17 22 -11 7 5 83 61 170 125
l158 116 46 -32 c39 -28 53 -32 111 -32 87 0 135 23 174 84 26 40 29 53 26
103 -3 42 -11 65 -32 93 -58 75 -180 98 -264 50 l-43 -24 -175 129 c-96 72
-176 130 -178 130 -2 0 -9 -7 -16 -15z"/>
<path d="M702 2193 l-57 -65 -165 4 c-147 3 -165 1 -168 -14 -3 -15 12 -16
159 -11 95 4 160 2 157 -3 -2 -5 -15 -33 -28 -61 l-24 -53 -138 0 -138 0 0
-122 0 -121 156 6 157 7 57 -63 c32 -34 73 -71 92 -81 l34 -18 264 152 c146
83 271 158 279 165 11 11 7 17 -25 38 -99 62 -511 295 -532 300 -18 4 -33 -7
-80 -60z m219 -51 c79 -43 203 -109 275 -147 l132 -69 -177 -94 c-97 -52 -219
-118 -272 -148 -54 -30 -102 -54 -108 -54 -18 0 -113 123 -143 185 -38 80 -37
138 1 219 23 48 131 186 145 186 2 0 68 -35 147 -78z m-351 -221 c0 -27 7 -68
15 -91 8 -23 15 -45 15 -49 0 -3 -63 -5 -141 -3 -140 3 -141 3 -135 25 3 12 6
52 6 89 l0 67 63 4 c34 2 88 4 120 5 l57 2 0 -49z"/>
<path d="M1030 1030 c-6 -12 -10 -23 -8 -24 2 -1 71 -50 153 -108 83 -58 171
-117 197 -132 l47 -27 -21 -35 c-15 -26 -19 -45 -15 -74 5 -37 3 -41 -31 -61
-68 -41 -332 -231 -332 -239 0 -4 6 -12 13 -18 10 -9 54 19 190 118 97 72 179
130 183 130 3 0 22 -13 40 -30 36 -31 117 -60 168 -60 l31 0 0 176 0 176 -54
-5 c-30 -3 -77 -17 -104 -31 l-51 -25 -30 22 c-32 22 -332 242 -353 259 -8 6
-15 2 -23 -12z m530 -251 c-14 -12 -32 -32 -41 -45 l-16 -25 -24 21 c-24 20
-24 20 -4 33 58 36 124 48 85 16z m-68 -108 c-3 -21 -14 -33 -48 -49 l-44 -22
-1 23 c-2 39 2 61 17 84 14 22 16 22 47 7 28 -13 33 -20 29 -43z m3 -72 c4
-12 26 -42 49 -67 39 -43 40 -45 14 -39 -49 12 -74 25 -107 53 l-33 27 29 23
c35 29 40 29 48 3z"/>
<path d="M702 953 l-57 -64 -165 2 c-146 2 -165 1 -168 -14 -3 -14 13 -15 159
-10 96 4 160 2 157 -3 -2 -5 -15 -33 -28 -61 l-24 -53 -138 0 -138 0 0 -121 0
-122 155 5 155 6 79 -79 c43 -44 86 -79 95 -79 13 0 544 298 565 317 3 2 -2
10 -10 17 -21 21 -530 312 -557 318 -18 5 -33 -6 -80 -59z m454 -178 l172 -90
-112 -59 c-61 -33 -185 -99 -275 -149 -126 -69 -168 -88 -180 -80 -26 16 -110
124 -133 172 -56 116 -22 235 105 368 l41 43 105 -57 c58 -31 183 -97 277
-148z m-586 -95 c0 -27 8 -71 18 -97 l18 -48 -140 3 c-78 2 -141 5 -142 5 0 1
2 41 4 89 l4 87 77 4 c42 1 95 4 119 5 l42 2 0 -50z"/>
</g>
</svg>
