<?xml version="1.0" standalone="no"?>
<!DOCTYPE svg PUBLIC "-//W3C//DTD SVG 20010904//EN"
 "http://www.w3.org/TR/2001/REC-SVG-20010904/DTD/svg10.dtd">
<svg version="1.0" xmlns="http://www.w3.org/2000/svg"
 width="156.000000pt" height="135.000000pt" viewBox="0 0 156.000000 135.000000"
 preserveAspectRatio="xMidYMid meet">
<metadata>
Created by potrace 1.16, written by Peter Selinger 2001-2019
</metadata>
<g transform="translate(0.000000,135.000000) scale(0.100000,-0.100000)"
fill="#000000" stroke="none">
<path d="M651 1032 c-9 -16 9 -32 133 -120 204 -145 412 -265 324 -188 l-27
24 71 47 c38 25 71 45 73 43 1 -2 5 -78 9 -170 l6 -168 -76 52 -76 51 23 18
c51 39 8 26 -79 -24 -99 -56 -382 -253 -382 -267 0 -4 6 -12 13 -18 10 -9 57
21 202 128 104 77 190 140 192 140 2 0 46 -25 98 -55 53 -30 98 -55 100 -55 3
0 5 92 5 205 0 142 -3 205 -11 205 -6 0 -53 -25 -105 -55 l-94 -55 -190 140
c-105 77 -193 140 -195 140 -2 0 -9 -8 -14 -18z"/>
<path d="M300 928 c0 -47 26 -525 29 -547 1 -3 11 5 24 16 12 11 63 42 112 68
145 77 365 207 365 216 0 13 -490 289 -515 289 -11 0 -15 -11 -15 -42z m117
-199 c18 -250 19 -242 -22 -262 -20 -9 -39 -17 -43 -17 -4 0 -9 107 -11 237
l-3 236 33 -20 34 -19 12 -155z m208 44 c96 -48 175 -90 175 -93 0 -3 -79 -45
-175 -93 l-175 -87 0 158 c0 86 -3 167 -6 180 -4 12 -4 22 0 22 3 0 85 -39
181 -87z"/>
</g>
</svg>
