<?xml version="1.0" standalone="no"?>
<!DOCTYPE svg PUBLIC "-//W3C//DTD SVG 20010904//EN"
 "http://www.w3.org/TR/2001/REC-SVG-20010904/DTD/svg10.dtd">
<svg version="1.0" xmlns="http://www.w3.org/2000/svg"
 width="134.000000pt" height="135.000000pt" viewBox="0 0 134.000000 135.000000"
 preserveAspectRatio="xMidYMid meet">
<metadata>
Created by potrace 1.16, written by Peter Selinger 2001-2019
</metadata>
<g transform="translate(0.000000,135.000000) scale(0.100000,-0.100000)"
fill="#000000" stroke="none">
<path d="M423 1032 c-10 -17 4 -30 130 -119 78 -55 168 -117 200 -137 l57 -37
-17 -25 c-10 -16 -17 -45 -16 -76 1 -49 1 -49 -56 -85 -49 -31 -284 -196 -303
-212 -4 -3 0 -14 7 -25 13 -17 24 -11 182 106 92 68 173 127 180 131 7 5 30
-5 54 -23 45 -32 124 -60 171 -60 l28 0 0 176 0 176 -54 -4 c-32 -3 -76 -16
-105 -30 l-50 -26 -194 144 c-107 79 -197 144 -199 144 -2 0 -8 -8 -15 -18z
m510 -276 c-36 -42 -38 -43 -60 -27 -12 9 -23 19 -23 22 0 8 90 48 108 49 7 0
-4 -20 -25 -44z m-72 -41 c25 -13 28 -20 23 -43 -4 -15 -7 -27 -8 -28 -37 -23
-76 -41 -80 -37 -11 12 -6 64 9 93 18 35 17 35 56 15z m33 -120 c3 -13 23 -43
45 -65 21 -22 35 -40 31 -40 -22 0 -100 34 -125 55 l-30 25 28 25 c35 31 43
31 51 0z"/>
<path d="M341 872 c-14 -5 -28 -19 -34 -36 -8 -24 -5 -32 19 -57 15 -16 50
-40 78 -54 43 -21 64 -25 145 -25 99 0 171 8 171 19 0 3 -53 6 -118 6 -130 1
-182 16 -248 74 l-34 30 38 11 c90 25 190 3 305 -65 62 -37 88 -40 46 -6 -13
11 -58 39 -99 63 -71 41 -79 43 -160 45 -47 1 -96 -1 -109 -5z"/>
<path d="M437 636 c-40 -15 -109 -59 -128 -82 -17 -21 -2 -71 25 -78 67 -17
135 -18 187 -2 55 16 209 108 209 124 0 5 -48 -15 -107 -45 -98 -50 -114 -54
-174 -54 -78 0 -121 9 -116 25 5 18 95 74 135 86 20 5 86 10 147 10 147 0 128
20 -26 26 -84 3 -124 1 -152 -10z"/>
</g>
</svg>
