<?xml version="1.0" standalone="no"?>
<!DOCTYPE svg PUBLIC "-//W3C//DTD SVG 20010904//EN"
 "http://www.w3.org/TR/2001/REC-SVG-20010904/DTD/svg10.dtd">
<svg version="1.0" xmlns="http://www.w3.org/2000/svg"
 width="198.000000pt" height="135.000000pt" viewBox="0 0 198.000000 135.000000"
 preserveAspectRatio="xMidYMid meet">
<metadata>
Created by potrace 1.16, written by Peter Selinger 2001-2019
</metadata>
<g transform="translate(0.000000,135.000000) scale(0.100000,-0.100000)"
fill="#000000" stroke="none">
<path d="M1082 1038 c-7 -7 -12 -15 -12 -19 0 -9 181 -141 295 -214 50 -32 92
-60 94 -62 2 -1 -4 -18 -14 -37 -13 -23 -16 -45 -13 -74 6 -40 5 -42 -36 -66
-68 -40 -326 -226 -326 -235 0 -5 6 -13 13 -20 10 -8 55 20 193 123 l179 133
37 -33 c36 -32 118 -64 165 -64 l23 0 0 176 0 177 -51 -6 c-28 -4 -71 -18 -96
-32 l-45 -25 -186 138 c-221 164 -206 154 -220 140z m505 -280 c-31 -32 -43
-39 -55 -31 -29 18 -24 33 20 53 69 32 80 25 35 -22z m-72 -44 c39 -26 33 -58
-17 -88 l-43 -25 -8 21 c-8 22 -3 48 15 86 13 26 21 27 53 6z m30 -115 c4 -12
25 -42 47 -65 23 -25 34 -44 27 -44 -23 0 -113 46 -132 67 -17 20 -17 21 10
42 35 26 40 26 48 0z"/>
<path d="M704 968 c-22 -24 -54 -64 -72 -89 l-33 -46 -150 5 -149 5 0 -155 c0
-121 3 -158 14 -167 10 -8 53 -10 149 -5 l135 7 69 -70 c38 -39 79 -73 90 -77
14 -5 72 24 209 103 290 166 337 195 341 207 4 13 -489 302 -543 318 -16 5
-30 -3 -60 -36z m260 -107 c110 -60 230 -123 265 -141 l64 -32 -122 -64 c-66
-35 -124 -64 -127 -64 -4 0 -5 45 -2 100 3 55 1 100 -4 100 -4 0 -11 0 -15 0
-5 0 -6 -49 -5 -108 l4 -107 -131 -73 c-72 -39 -135 -72 -139 -72 -4 0 -29 26
-56 57 l-49 58 47 3 c51 3 64 22 15 22 -31 0 -31 1 -25 38 3 20 6 47 6 60 0
17 6 22 25 22 22 0 25 -5 31 -62 7 -60 8 -61 16 -30 11 43 6 197 -7 197 -5 0
-11 -19 -13 -42 -3 -38 -6 -43 -27 -43 -21 0 -24 5 -27 42 -4 59 -28 63 -28 4
0 -46 0 -46 -35 -46 -31 0 -35 3 -35 25 0 13 7 43 16 65 16 41 15 40 104 53
14 3 3 5 -23 6 -46 1 -47 2 -36 23 12 23 98 118 107 118 2 0 95 -49 206 -109z
m-606 -119 c2 -51 0 -62 -13 -62 -12 0 -15 13 -15 66 0 48 3 65 13 62 7 -3 13
-28 15 -66z m62 3 c0 -60 -2 -65 -21 -65 -17 0 -20 4 -15 23 3 12 6 41 6 65 0
31 4 42 15 42 12 0 15 -14 15 -65z m81 23 c0 -24 2 -53 5 -65 3 -20 0 -23 -32
-23 -29 0 -35 3 -30 16 3 9 6 38 6 65 0 46 2 49 25 49 23 0 25 -4 26 -42z m73
7 c-7 -19 -14 -48 -14 -65 0 -20 -5 -30 -15 -30 -12 0 -15 13 -15 58 0 65 3
72 36 72 22 0 23 -1 8 -35z m-80 -121 c10 -4 16 -19 17 -38 l1 -31 10 38 c12
46 34 48 42 5 3 -18 13 -45 20 -60 l15 -28 -140 0 -140 0 3 52 c2 41 7 54 21
56 12 3 17 -3 17 -22 0 -14 5 -26 10 -26 6 0 10 11 10 25 0 18 5 25 20 25 15
0 20 -7 20 -25 0 -14 5 -25 10 -25 6 0 10 11 10 24 0 15 7 26 18 29 9 3 18 5
19 6 1 0 8 -2 17 -5z m166 -38 c0 -24 3 -51 6 -60 4 -12 0 -16 -15 -16 -16 0
-27 12 -41 46 -28 65 -26 74 15 74 35 0 35 0 35 -44z"/>
<path d="M838 763 c-7 -18 4 -223 13 -223 8 0 12 52 14 187 0 32 -18 57 -27
36z"/>
<path d="M928 763 c-7 -13 6 -229 13 -218 13 20 15 218 2 222 -6 2 -13 0 -15
-4z"/>
</g>
</svg>
