<?xml version="1.0" standalone="no"?>
<!DOCTYPE svg PUBLIC "-//W3C//DTD SVG 20010904//EN"
 "http://www.w3.org/TR/2001/REC-SVG-20010904/DTD/svg10.dtd">
<svg version="1.0" xmlns="http://www.w3.org/2000/svg"
 width="152.000000pt" height="135.000000pt" viewBox="0 0 152.000000 135.000000"
 preserveAspectRatio="xMidYMid meet">
<metadata>
Created by potrace 1.16, written by Peter Selinger 2001-2019
</metadata>
<g transform="translate(0.000000,135.000000) scale(0.100000,-0.100000)"
fill="#000000" stroke="none">
<path d="M601 1032 c-7 -14 -5 -21 11 -31 12 -8 17 -16 11 -20 -11 -7 -106
-150 -144 -218 -23 -41 -26 -43 -73 -43 -46 0 -48 1 -34 18 29 32 158 223 158
233 0 6 -8 9 -17 7 -10 -2 -53 -59 -96 -128 -50 -80 -85 -126 -98 -128 -22 -4
-26 -37 -4 -45 8 -4 33 -43 56 -89 121 -242 161 -276 56 -49 l-65 141 37 0 37
0 80 -150 c67 -127 94 -169 94 -145 0 2 -29 68 -65 147 -36 78 -65 143 -65
145 0 2 24 3 53 3 l53 0 30 -62 c39 -82 106 -186 111 -171 2 6 -21 61 -52 122
-30 61 -52 112 -48 112 5 1 13 2 18 4 6 1 79 3 163 3 83 1 152 6 152 11 0 5
-76 12 -170 16 -93 4 -170 9 -170 11 0 9 115 174 121 174 4 0 57 -33 118 -74
61 -41 115 -76 121 -78 7 -2 5 -15 -6 -36 -13 -27 -14 -41 -6 -75 6 -23 10
-42 9 -42 -75 -42 -377 -253 -377 -265 0 -4 6 -12 13 -18 10 -9 56 20 197 123
101 74 187 135 191 135 4 0 11 -5 14 -10 13 -20 103 -59 154 -66 l51 -7 0 178
0 178 -50 -6 c-28 -3 -77 -20 -109 -37 l-59 -32 -190 141 c-104 78 -192 141
-196 141 -3 0 -10 -8 -15 -18z m98 -96 c10 -12 6 -25 -27 -73 -21 -32 -49 -77
-61 -100 -21 -43 -22 -43 -77 -43 -42 0 -53 3 -47 13 4 7 43 63 86 125 82 117
90 122 126 78z m453 -132 c-13 -9 -36 -33 -51 -54 l-27 -37 -27 22 c-20 18
-23 26 -13 34 21 17 100 51 121 51 18 0 18 -1 -3 -16z m-107 -90 c39 -26 34
-66 -12 -88 -29 -14 -38 -15 -44 -4 -19 30 -3 108 22 108 5 0 21 -7 34 -16z
m95 -178 c25 -20 28 -26 13 -26 -23 1 -102 36 -125 57 -17 15 -16 17 14 40
l32 23 18 -34 c9 -18 31 -45 48 -60z"/>
</g>
</svg>
