<?xml version="1.0" standalone="no"?>
<!DOCTYPE svg PUBLIC "-//W3C//DTD SVG 20010904//EN"
 "http://www.w3.org/TR/2001/REC-SVG-20010904/DTD/svg10.dtd">
<svg version="1.0" xmlns="http://www.w3.org/2000/svg"
 width="187.000000pt" height="135.000000pt" viewBox="0 0 187.000000 135.000000"
 preserveAspectRatio="xMidYMid meet">
<metadata>
Created by potrace 1.16, written by Peter Selinger 2001-2019
</metadata>
<g transform="translate(0.000000,135.000000) scale(0.100000,-0.100000)"
fill="#000000" stroke="none">
<path d="M956 1034 c-3 -9 -4 -20 -1 -24 8 -13 262 -193 325 -231 30 -18 57
-34 59 -35 2 -2 -3 -14 -11 -26 -20 -31 -27 -68 -19 -98 6 -22 -3 -31 -99 -95
-135 -90 -260 -183 -260 -193 0 -4 4 -13 9 -21 7 -11 46 13 178 111 92 68 173
128 180 132 7 4 31 -7 54 -24 45 -32 124 -60 171 -60 l28 0 0 176 0 176 -54
-4 c-32 -3 -76 -16 -105 -30 l-50 -26 -194 144 c-107 79 -197 144 -200 144 -3
0 -8 -7 -11 -16z m507 -278 c-36 -42 -38 -43 -60 -27 -12 9 -23 19 -23 22 0 8
90 48 108 49 7 0 -4 -20 -25 -44z m-72 -42 c26 -13 30 -19 24 -42 -4 -15 -7
-27 -8 -28 -1 0 -18 -10 -39 -21 -20 -12 -39 -19 -42 -16 -11 12 -6 64 9 93
18 35 17 35 56 14z m33 -119 c3 -13 23 -43 45 -65 21 -22 35 -40 31 -40 -22 0
-100 34 -125 55 l-30 25 28 25 c35 31 43 31 51 0z"/>
<path d="M530 875 l0 -135 -115 0 c-114 0 -115 0 -115 -24 l0 -23 113 5 114 5
6 -84 c4 -46 7 -116 7 -156 0 -39 4 -74 9 -77 9 -6 21 135 21 246 l0 68 63 0
c137 0 367 14 367 22 0 4 -33 8 -72 8 -40 0 -137 3 -216 7 l-143 6 2 130 c1
126 0 131 -20 134 -20 3 -21 0 -21 -132z"/>
</g>
</svg>
