<?xml version="1.0" standalone="no"?>
<!DOCTYPE svg PUBLIC "-//W3C//DTD SVG 20010904//EN"
 "http://www.w3.org/TR/2001/REC-SVG-20010904/DTD/svg10.dtd">
<svg version="1.0" xmlns="http://www.w3.org/2000/svg"
 width="198.000000pt" height="135.000000pt" viewBox="0 0 198.000000 135.000000"
 preserveAspectRatio="xMidYMid meet">
<metadata>
Created by potrace 1.16, written by Peter Selinger 2001-2019
</metadata>
<g transform="translate(0.000000,135.000000) scale(0.100000,-0.100000)"
fill="#000000" stroke="none">
<path d="M1061 1031 c-9 -16 6 -30 117 -108 70 -50 159 -111 199 -137 l71 -46
-19 -37 c-14 -27 -18 -49 -14 -74 6 -34 4 -37 -52 -74 -32 -21 -115 -78 -185
-128 -111 -78 -126 -92 -117 -108 5 -11 12 -19 14 -19 3 0 73 51 157 113 219
162 204 154 231 129 32 -30 109 -62 167 -69 l50 -6 0 178 0 177 -54 -4 c-30
-2 -77 -16 -105 -30 l-51 -25 -196 143 c-107 79 -197 144 -199 144 -3 0 -9 -8
-14 -19z m514 -273 c-22 -24 -40 -43 -40 -44 0 -1 -11 7 -25 18 -24 19 -24 20
-5 31 28 16 77 35 95 36 8 1 -3 -17 -25 -41z m-74 -44 c20 -10 29 -20 25 -30
-3 -9 -6 -21 -6 -28 0 -12 -60 -46 -82 -46 -14 0 -5 85 12 105 15 18 14 18 51
-1z m37 -128 c7 -19 29 -49 49 -66 l36 -32 -34 7 c-37 8 -114 49 -125 67 -7
11 38 58 55 58 4 0 13 -15 19 -34z"/>
<path d="M462 929 c-23 -4 -69 -20 -102 -35 -56 -25 -60 -29 -60 -60 0 -40 20
-56 108 -85 97 -32 227 -16 374 46 15 6 17 -5 20 -104 2 -61 2 -111 1 -111 -1
0 -43 14 -93 31 -126 42 -208 48 -296 21 -92 -28 -114 -45 -114 -86 0 -30 5
-36 43 -54 122 -56 198 -59 343 -13 54 18 105 35 112 37 9 4 12 -10 12 -53 0
-69 19 -112 21 -48 1 22 4 87 8 145 l6 105 214 7 c117 4 216 9 219 12 14 15
-20 18 -222 23 l-216 6 0 99 c0 91 -1 98 -20 98 -14 0 -20 -7 -20 -24 l0 -24
-63 24 c-58 21 -205 56 -224 53 -4 -1 -27 -5 -51 -10z m248 -60 c113 -28 117
-45 17 -71 -104 -26 -197 -37 -253 -28 -49 8 -139 44 -149 60 -5 8 95 55 135
63 45 10 157 -1 250 -24z m-60 -271 c94 -17 161 -39 157 -51 -6 -22 -176 -59
-272 -61 -81 -1 -96 2 -155 30 l-65 31 52 26 c85 44 152 49 283 25z"/>
</g>
</svg>
