<?xml version="1.0" standalone="no"?>
<!DOCTYPE svg PUBLIC "-//W3C//DTD SVG 20010904//EN"
 "http://www.w3.org/TR/2001/REC-SVG-20010904/DTD/svg10.dtd">
<svg version="1.0" xmlns="http://www.w3.org/2000/svg"
 width="190.000000pt" height="115.000000pt" viewBox="0 0 190.000000 115.000000"
 preserveAspectRatio="xMidYMid meet">
<metadata>
Created by potrace 1.16, written by Peter Selinger 2001-2019
</metadata>
<g transform="translate(0.000000,115.000000) scale(0.100000,-0.100000)"
fill="#000000" stroke="none">
<path d="M311 824 c-12 -26 -11 -30 12 -49 13 -11 64 -54 113 -95 49 -41 102
-85 118 -98 16 -12 27 -24 25 -26 -2 -2 -45 -24 -95 -49 -95 -48 -120 -68
-111 -91 6 -16 141 -70 217 -88 28 -6 50 -14 50 -17 0 -4 39 -3 88 0 63 5 122
18 217 50 72 23 136 42 143 40 6 -1 12 2 12 7 0 5 40 22 90 38 49 16 90 32 90
35 0 4 -12 9 -27 12 -28 5 -28 6 -25 71 4 67 9 74 43 56 31 -17 22 4 -11 23
-16 10 -30 27 -30 37 0 26 -17 34 -28 14 -8 -14 -13 -14 -50 5 -23 12 -42 29
-42 37 0 12 -6 15 -23 10 -14 -3 -62 8 -121 29 -130 47 -246 65 -461 72 l-180
6 -14 -29z m317 -141 c2 -83 -1 -113 -9 -113 -7 0 -42 28 -78 63 -36 34 -93
86 -126 115 l-60 53 135 -3 135 -3 3 -112z m120 5 c3 -96 2 -98 -20 -98 -13 0
-33 -3 -45 -6 -23 -6 -23 -5 -23 93 0 55 3 103 7 107 4 4 23 6 43 4 l35 -3 3
-97z m105 75 c10 -6 9 -183 -2 -183 -5 0 -23 3 -40 6 l-31 7 0 94 0 95 33 -7
c17 -4 35 -9 40 -12z m107 -116 c0 -77 -2 -88 -16 -83 -9 3 -24 6 -35 6 -17 0
-19 8 -19 94 l0 94 35 -11 35 -10 0 -90z m108 46 c7 -10 12 -46 12 -85 0 -74
-6 -80 -65 -58 -26 10 -26 12 -23 91 l2 81 31 -6 c16 -4 36 -14 43 -23z m96
-28 l36 -15 0 -71 0 -71 -37 7 c-21 4 -41 9 -45 11 -11 7 -10 154 1 154 5 0
25 -7 45 -15z m-414 -138 c0 -13 3 -58 6 -100 l7 -77 -52 0 -51 0 0 71 c0 59
3 70 15 65 8 -3 15 -2 15 3 0 5 -7 14 -15 21 -29 24 -13 36 48 39 22 1 27 -3
27 -22z m94 17 c13 -5 16 -23 16 -89 0 -77 -1 -83 -22 -89 -57 -15 -58 -14
-58 89 0 94 0 95 24 95 13 0 31 -3 40 -6z m119 -21 c4 -2 7 -31 7 -63 l0 -59
-41 -11 c-23 -6 -43 -9 -46 -6 -3 2 -2 39 2 81 l7 76 32 -7 c17 -3 34 -8 39
-11z m-331 -80 c2 -43 2 -80 1 -82 -6 -9 -203 57 -203 68 0 9 162 90 182 90
14 1 17 -12 20 -76z m417 71 c28 -6 31 -10 31 -44 0 -34 -3 -38 -39 -48 -21
-7 -41 -12 -45 -12 -3 0 -6 25 -6 55 0 59 1 60 59 49z m155 -32 c9 -5 -14 -15
-81 -36 -21 -7 -23 -4 -23 24 l0 32 48 -7 c26 -4 51 -10 56 -13z"/>
<path d="M1438 678 c-94 -49 -135 -75 -131 -84 3 -8 10 -14 15 -14 13 0 266
149 274 161 13 21 -29 4 -158 -63z"/>
</g>
</svg>
