<?xml version="1.0" standalone="no"?>
<!DOCTYPE svg PUBLIC "-//W3C//DTD SVG 20010904//EN"
 "http://www.w3.org/TR/2001/REC-SVG-20010904/DTD/svg10.dtd">
<svg version="1.0" xmlns="http://www.w3.org/2000/svg"
 width="182.000000pt" height="127.000000pt" viewBox="0 0 182.000000 127.000000"
 preserveAspectRatio="xMidYMid meet">
<metadata>
Created by potrace 1.16, written by Peter Selinger 2001-2019
</metadata>
<g transform="translate(0.000000,127.000000) scale(0.100000,-0.100000)"
fill="#000000" stroke="none">
<path d="M875 893 c-55 -74 -60 -79 -113 -91 -30 -7 -56 -11 -58 -9 -1 1 17
34 42 72 24 39 44 73 44 78 0 20 -21 -2 -80 -84 -52 -72 -75 -96 -115 -116
-27 -14 -66 -36 -85 -48 -31 -19 -45 -21 -122 -17 -77 4 -88 2 -88 -12 0 -13
13 -16 86 -16 l85 0 50 -42 c28 -24 70 -75 95 -114 43 -69 84 -117 84 -98 0 5
-13 33 -29 62 -16 28 -25 52 -21 52 13 0 71 -60 118 -123 71 -94 76 -69 7 36
-9 15 -16 27 -14 27 2 -1 27 -9 54 -18 36 -13 67 -35 107 -77 64 -66 77 -61
24 8 l-35 45 57 10 57 10 45 -42 c79 -73 100 -90 106 -83 4 3 -19 34 -50 68
-31 35 -53 66 -49 69 5 4 22 12 40 19 30 12 33 11 108 -49 43 -33 80 -58 83
-55 3 3 -22 34 -56 68 -34 34 -62 65 -62 68 0 3 18 14 39 24 l39 17 68 -56
c94 -78 113 -71 32 12 l-67 67 33 22 c34 22 34 22 51 2 32 -34 125 -102 132
-95 4 4 -21 35 -56 70 -55 55 -60 64 -46 76 35 29 2 19 -65 -20 -93 -54 -201
-103 -285 -129 -157 -49 -300 -12 -486 126 -49 35 -58 47 -49 58 14 16 131 66
215 91 122 36 309 15 540 -62 119 -39 116 -39 109 -20 -3 8 18 53 47 100 29
48 49 89 46 92 -3 3 -35 -34 -72 -83 l-66 -90 -87 34 c-48 19 -89 37 -91 38
-2 2 18 38 44 79 26 42 45 81 43 87 -2 6 -32 -27 -66 -74 l-63 -85 -46 14
c-26 8 -48 16 -50 18 -2 2 11 28 30 57 48 75 59 99 48 99 -6 0 -103 -122 -116
-147 -1 -2 -31 0 -67 4 l-66 6 32 51 c78 122 67 133 -19 19z"/>
</g>
</svg>
