<?xml version="1.0" standalone="no"?>
<!DOCTYPE svg PUBLIC "-//W3C//DTD SVG 20010904//EN"
 "http://www.w3.org/TR/2001/REC-SVG-20010904/DTD/svg10.dtd">
<svg version="1.0" xmlns="http://www.w3.org/2000/svg"
 width="186.000000pt" height="140.000000pt" viewBox="0 0 186.000000 140.000000"
 preserveAspectRatio="xMidYMid meet">
<metadata>
Created by potrace 1.16, written by Peter Selinger 2001-2019
</metadata>
<g transform="translate(0.000000,140.000000) scale(0.100000,-0.100000)"
fill="#000000" stroke="none">
<path d="M985 1079 c-107 -25 -68 -24 -408 -14 l-277 8 0 -95 c0 -52 3 -123 7
-158 l6 -63 234 6 233 7 0 -59 c0 -32 3 -73 7 -91 5 -28 4 -32 -10 -27 -8 3
-119 9 -246 13 l-231 7 1 -111 1 -112 269 0 270 0 5 -29 c6 -27 11 -30 88 -46
119 -25 321 -17 436 17 47 14 98 29 113 32 21 5 27 11 23 23 -4 9 8 65 25 126
29 103 31 117 26 241 -2 83 -10 150 -20 182 -16 49 -19 52 -94 87 -123 56
-171 69 -273 73 -72 3 -117 -1 -185 -17z m319 -44 c40 -8 97 -23 127 -34 l54
-18 18 -64 c31 -112 31 -224 -1 -389 l-28 -145 -49 -12 c-123 -31 -263 -45
-337 -33 -104 15 -108 17 -108 51 l0 29 70 0 70 0 0 -42 c0 -25 4 -38 9 -32 5
5 10 162 12 349 4 297 2 340 -11 340 -11 0 -16 -14 -18 -58 l-3 -58 -57 3 -57
3 -3 57 c-2 47 0 57 15 61 42 11 229 6 297 -8z m-460 -17 c-20 -63 -30 -87
-36 -88 -48 -2 -48 -2 -48 55 l0 55 46 0 c42 0 45 -1 38 -22z m-474 -38 c0
-43 -3 -50 -20 -50 -17 0 -20 7 -20 50 0 43 3 50 20 50 17 0 20 -7 20 -50z
m66 -2 c3 -42 1 -48 -16 -48 -17 0 -20 7 -20 51 0 41 3 50 16 47 11 -2 17 -17
20 -50z m64 2 c0 -43 -3 -50 -20 -50 -17 0 -20 7 -20 50 0 43 3 50 20 50 17 0
20 -7 20 -50z m70 0 c0 -43 -3 -50 -20 -50 -17 0 -20 7 -20 50 0 43 3 50 20
50 17 0 20 -7 20 -50z m70 23 c0 -16 3 -38 6 -50 5 -20 2 -23 -20 -23 -25 0
-26 3 -26 50 0 43 3 50 20 50 15 0 20 -7 20 -27z m90 -23 c0 -49 -1 -50 -30
-50 -29 0 -30 1 -30 50 0 49 1 50 30 50 29 0 30 -1 30 -50z m230 -284 l0 -334
-47 14 c-25 8 -48 16 -50 18 -12 11 -35 205 -36 296 -1 85 4 126 27 217 29
115 33 119 84 122 l22 1 0 -334z m-582 157 l3 -53 -32 0 c-24 0 -30 3 -25 16
3 9 6 34 6 56 0 35 2 39 23 36 19 -3 22 -10 25 -55z m60 -1 c3 -47 1 -52 -17
-52 -19 0 -21 6 -21 56 0 47 3 55 18 52 13 -2 18 -15 20 -56z m62 19 c0 -22 3
-46 6 -55 5 -12 0 -16 -20 -16 -24 0 -26 3 -26 48 0 51 5 62 27 62 9 0 13 -13
13 -39z m74 8 c13 -66 9 -79 -25 -79 -31 0 -31 1 -25 38 3 20 6 45 6 55 0 32
37 20 44 -14z m74 -32 c3 -56 2 -58 -20 -55 -21 3 -23 9 -26 61 -3 56 -2 58
20 55 21 -3 23 -9 26 -61z m82 19 c0 -24 3 -51 6 -60 5 -13 -1 -16 -30 -16
l-36 0 0 60 0 60 30 0 c29 0 30 -2 30 -44z m70 12 c-4 -18 -11 -45 -14 -60 -4
-16 -13 -28 -21 -28 -16 0 -19 22 -9 83 5 30 11 37 30 37 20 0 22 -3 14 -32z
m310 -23 l0 -45 -60 0 -60 0 0 45 0 45 60 0 60 0 0 -45z m0 -106 c0 -33 -3
-40 -16 -35 -9 3 -36 6 -60 6 -44 0 -44 0 -44 35 l0 35 60 0 60 0 0 -41z m0
-95 c0 -38 -3 -45 -16 -40 -9 3 -36 6 -60 6 -44 0 -44 0 -44 34 0 34 1 35 48
39 26 2 53 4 60 5 8 1 12 -13 12 -44z m5 -95 c0 -21 -5 -34 -12 -33 -7 1 -35
2 -63 3 -48 1 -50 2 -50 30 0 29 2 30 53 34 72 4 72 4 72 -34z m-304 -59 c10
-41 18 -78 19 -81 0 -8 -337 -2 -437 7 l-63 6 0 69 0 69 198 3 c108 1 212 3
231 2 34 0 34 0 52 -75z m309 -26 l0 -36 -67 4 c-65 3 -68 5 -71 30 -3 26 -1
27 55 31 32 2 64 4 71 5 8 1 12 -11 12 -34z"/>
<path d="M1226 948 c11 -64 7 -214 -8 -253 -10 -29 -9 -54 7 -150 10 -63 22
-115 27 -115 4 0 8 1 8 3 0 1 -6 49 -14 107 -12 88 -12 117 0 180 22 126 15
270 -13 270 -12 0 -13 -9 -7 -42z"/>
<path d="M1324 863 c0 -71 -3 -153 -8 -184 -9 -61 18 -249 36 -249 5 0 7 8 4
18 -2 9 -10 58 -16 107 -9 75 -8 107 5 190 15 91 15 173 -1 228 -13 45 -20 6
-20 -110z"/>
</g>
</svg>
