<?xml version="1.0" standalone="no"?>
<!DOCTYPE svg PUBLIC "-//W3C//DTD SVG 20010904//EN"
 "http://www.w3.org/TR/2001/REC-SVG-20010904/DTD/svg10.dtd">
<svg version="1.0" xmlns="http://www.w3.org/2000/svg"
 width="218.000000pt" height="156.000000pt" viewBox="0 0 218.000000 156.000000"
 preserveAspectRatio="xMidYMid meet">
<metadata>
Created by potrace 1.16, written by Peter Selinger 2001-2019
</metadata>
<g transform="translate(0.000000,156.000000) scale(0.100000,-0.100000)"
fill="#000000" stroke="none">
<path d="M304 1249 c-6 -11 12 -33 130 -156 l59 -62 -97 -105 c-85 -92 -106
-126 -77 -126 4 0 50 47 102 105 90 100 94 104 112 87 19 -16 19 -16 13 6 -7
21 -5 22 48 22 31 0 56 -3 56 -7 0 -4 -35 -42 -77 -85 -63 -63 -75 -80 -64
-90 10 -11 16 -8 32 11 11 14 48 54 81 90 53 56 63 63 79 53 21 -14 26 -3 7
16 -9 9 1 12 47 12 l60 0 -85 -85 c-66 -66 -82 -87 -72 -97 9 -9 30 8 96 78
83 89 84 89 105 70 23 -21 27 -16 11 15 -10 17 -7 19 26 19 l37 0 -83 -86
c-63 -66 -79 -88 -70 -97 9 -9 31 8 94 76 45 48 85 87 90 87 5 0 18 -7 27 -16
18 -16 16 -19 -31 -71 -47 -51 -62 -83 -41 -83 5 0 46 39 90 87 l81 87 35 -34
c40 -39 47 -26 10 18 l-25 30 385 7 c212 4 385 11 385 15 0 7 -408 20 -628 20
-114 0 -115 0 -97 20 10 11 15 20 11 20 -4 0 -19 -9 -33 -20 -14 -11 -34 -20
-43 -20 -10 0 -50 36 -90 80 -59 66 -75 78 -87 69 -12 -10 -5 -22 42 -69 43
-44 53 -58 43 -68 -27 -27 -56 -12 -128 68 -59 66 -75 78 -87 69 -12 -10 -3
-23 52 -79 l65 -66 -42 -1 c-41 -1 -46 2 -113 77 -38 43 -74 77 -79 76 -23 -5
-12 -25 47 -89 l63 -67 -41 1 c-22 1 -45 0 -51 -2 -7 -2 -47 33 -89 79 -54 58
-81 80 -88 73 -11 -11 -2 -24 82 -113 l45 -48 -41 0 c-24 0 -43 5 -46 13 -3 9
-7 9 -19 -1 -13 -11 -29 3 -109 93 -52 58 -97 105 -101 105 -4 0 -10 -5 -14
-11z m739 -251 c-18 -18 -24 -19 -37 -8 -25 20 -19 30 21 30 l37 0 -21 -22z"/>
<path d="M304 749 c-3 -6 18 -36 47 -67 30 -32 74 -78 98 -104 l44 -47 -97
-103 c-53 -56 -95 -107 -93 -112 8 -25 29 -9 116 89 65 72 98 102 105 95 15
-15 26 -12 20 5 -5 12 4 15 51 15 l57 0 -76 -82 c-71 -76 -84 -98 -60 -104 5
-1 45 38 89 86 74 84 80 88 97 73 20 -18 25 -4 6 15 -9 9 1 12 45 12 l57 0
-80 -82 c-73 -74 -91 -103 -64 -103 6 0 46 39 89 87 75 81 81 86 97 71 22 -19
36 -10 18 12 -11 13 -7 15 26 15 l39 0 -83 -83 c-69 -69 -81 -86 -69 -95 11
-10 30 5 97 78 l83 91 24 -23 23 -22 -55 -56 c-47 -47 -54 -59 -42 -69 12 -9
29 4 92 74 43 47 80 85 84 85 3 0 19 -12 34 -26 37 -34 48 -22 13 15 l-27 28
208 7 c114 3 280 7 368 7 88 1 169 5 180 9 26 9 -240 20 -509 20 -171 0 -217
3 -208 12 7 7 12 19 12 27 0 10 -9 6 -28 -12 -15 -15 -35 -27 -43 -27 -7 0
-47 36 -88 81 -49 54 -77 77 -84 70 -10 -10 28 -65 72 -105 16 -15 18 -22 10
-33 -24 -28 -53 -13 -130 70 -65 69 -78 79 -84 64 -6 -14 7 -34 56 -85 35 -36
57 -60 47 -53 -11 8 -18 9 -23 1 -15 -25 -48 -5 -119 72 -59 63 -79 79 -88 70
-10 -10 3 -28 57 -82 l68 -69 -61 0 c-40 1 -65 5 -69 14 -5 7 -36 43 -71 80
-47 50 -66 65 -75 56 -8 -8 6 -29 57 -80 64 -64 66 -69 44 -74 -45 -13 -68 -8
-61 11 6 16 5 16 -13 0 -19 -17 -23 -14 -114 87 -52 58 -97 105 -101 105 -5 0
-11 -5 -15 -11z m756 -232 c0 -2 -8 -11 -18 -21 -18 -15 -20 -15 -37 4 -18 20
-18 20 18 20 21 0 37 -2 37 -3z"/>
</g>
</svg>
