<?xml version="1.0" standalone="no"?>
<!DOCTYPE svg PUBLIC "-//W3C//DTD SVG 20010904//EN"
 "http://www.w3.org/TR/2001/REC-SVG-20010904/DTD/svg10.dtd">
<svg version="1.0" xmlns="http://www.w3.org/2000/svg"
 width="136.000000pt" height="134.000000pt" viewBox="0 0 136.000000 134.000000"
 preserveAspectRatio="xMidYMid meet">
<metadata>
Created by potrace 1.16, written by Peter Selinger 2001-2019
</metadata>
<g transform="translate(0.000000,134.000000) scale(0.100000,-0.100000)"
fill="#000000" stroke="none">
<path d="M432 1017 c-28 -29 -121 -275 -129 -337 -5 -40 1 -64 42 -166 58
-145 92 -214 106 -214 5 0 51 31 102 68 51 38 135 100 188 139 l95 70 30 -24
c33 -27 112 -53 161 -53 l33 0 -2 173 -3 172 -45 -3 c-41 -3 -121 -34 -161
-63 -14 -11 -46 9 -203 124 -103 75 -188 137 -190 137 -1 0 -12 -10 -24 -23z
m48 -47 c10 -6 11 -10 3 -10 -15 0 -17 -48 -4 -69 8 -12 11 -8 16 15 4 16 8
33 9 37 1 5 37 -18 81 -49 44 -32 115 -80 157 -107 67 -42 76 -51 68 -67 -6
-10 -10 -33 -10 -50 0 -17 4 -40 10 -50 10 -18 -2 -27 -168 -133 -11 -7 -13
26 -10 180 l3 188 -82 3 -83 3 0 -109 c0 -60 3 -151 7 -202 l6 -92 65 5 c35 3
60 1 55 -3 -26 -23 -152 -110 -161 -110 -10 0 -86 219 -97 282 -4 21 -2 53 5
75 24 76 103 273 109 273 3 0 13 -5 21 -10z m130 -181 c0 -43 -3 -50 -16 -45
-9 3 -33 6 -55 6 l-39 0 0 45 0 45 55 0 55 0 0 -51z m365 10 c-20 -18 -43 -45
-51 -61 l-15 -28 -29 22 c-28 20 -29 23 -14 40 16 17 106 56 132 57 7 1 -3
-13 -23 -30z m-365 -134 l0 -65 -55 0 -55 0 0 59 0 60 48 4 c26 2 50 4 55 5 4
1 7 -27 7 -63z m266 44 c19 -11 34 -29 34 -39 0 -20 -64 -65 -79 -56 -16 10
-22 61 -12 89 13 32 15 33 57 6z m96 -161 l37 -36 -37 10 c-39 11 -88 34 -110
51 -10 8 -7 15 15 33 l28 23 15 -22 c8 -12 31 -38 52 -59z m-362 -15 l0 -48
-61 3 c-49 3 -59 7 -55 19 3 8 6 25 6 38 0 19 6 24 33 28 80 10 77 11 77 -40z"/>
</g>
</svg>
