<?xml version="1.0" standalone="no"?>
<!DOCTYPE svg PUBLIC "-//W3C//DTD SVG 20010904//EN"
 "http://www.w3.org/TR/2001/REC-SVG-20010904/DTD/svg10.dtd">
<svg version="1.0" xmlns="http://www.w3.org/2000/svg"
 width="123.000000pt" height="134.000000pt" viewBox="0 0 123.000000 134.000000"
 preserveAspectRatio="xMidYMid meet">
<metadata>
Created by potrace 1.16, written by Peter Selinger 2001-2019
</metadata>
<g transform="translate(0.000000,134.000000) scale(0.100000,-0.100000)"
fill="#000000" stroke="none">
<path d="M317 1022 c-15 -16 -17 -46 -17 -209 0 -238 11 -488 21 -505 10 -16
-8 -27 217 138 l179 131 29 -24 c36 -28 106 -53 151 -53 l33 0 0 175 0 175
-42 -6 c-41 -6 -126 -41 -159 -65 -12 -9 -38 5 -145 81 -71 51 -155 113 -186
137 -31 23 -58 43 -61 43 -2 0 -11 -8 -20 -18z m148 -128 c55 -39 130 -90 167
-113 59 -37 66 -45 58 -62 -9 -17 -21 -10 -132 71 -100 74 -124 88 -136 77
-12 -10 -14 -42 -10 -195 3 -101 9 -187 14 -192 5 -5 61 30 129 80 117 86 120
88 132 67 14 -25 25 -16 -127 -117 -58 -39 -131 -89 -163 -112 -31 -23 -59
-39 -60 -37 -2 2 -1 142 1 311 3 227 7 306 16 301 6 -4 56 -39 111 -79z m168
-184 c26 -14 47 -28 47 -32 0 -4 -21 -20 -48 -35 -26 -15 -77 -49 -115 -75
-37 -26 -69 -48 -72 -48 -3 0 -5 72 -5 160 l0 160 73 -53 c41 -29 95 -64 120
-77z m222 89 c-20 -18 -43 -45 -51 -61 l-15 -28 -29 22 c-28 20 -29 23 -14 40
16 17 106 56 132 57 7 1 -3 -13 -23 -30z m-99 -90 c19 -11 34 -29 34 -39 0
-20 -64 -65 -79 -55 -16 10 -24 71 -12 94 14 26 16 26 57 0z m96 -161 l37 -36
-37 10 c-39 11 -88 34 -110 51 -10 8 -7 15 15 33 l28 23 15 -22 c8 -12 31 -38
52 -59z"/>
</g>
</svg>
