<?xml version="1.0" standalone="no"?>
<!DOCTYPE svg PUBLIC "-//W3C//DTD SVG 20010904//EN"
 "http://www.w3.org/TR/2001/REC-SVG-20010904/DTD/svg10.dtd">
<svg version="1.0" xmlns="http://www.w3.org/2000/svg"
 width="190.000000pt" height="144.000000pt" viewBox="0 0 190.000000 144.000000"
 preserveAspectRatio="xMidYMid meet">
<metadata>
Created by potrace 1.16, written by Peter Selinger 2001-2019
</metadata>
<g transform="translate(0.000000,144.000000) scale(0.100000,-0.100000)"
fill="#000000" stroke="none">
<path d="M461 1034 c-35 -58 -85 -153 -113 -210 l-50 -104 53 -103 c29 -56 84
-149 122 -207 80 -121 75 -115 83 -107 3 3 -29 70 -73 149 -96 176 -146 286
-138 306 3 9 47 85 98 169 l92 154 8 -228 c5 -134 13 -240 20 -257 l12 -29
360 7 c453 8 665 17 665 28 0 4 -7 8 -16 8 -10 0 -14 6 -10 18 2 9 8 123 12
253 l6 237 -193 6 c-107 3 -347 8 -535 11 l-340 5 -63 -106z m1083 20 c3 -26
6 -63 6 -82 l0 -35 -307 6 c-170 4 -311 7 -315 7 -5 0 -8 31 -8 70 l0 70 208
3 c114 1 253 3 308 5 l101 2 7 -46z m-746 -37 l3 -67 -36 0 -35 0 0 64 c0 59
2 65 23 69 38 7 42 2 45 -66z m91 -2 l2 -65 -30 0 -31 0 0 64 c0 59 2 65 23
68 12 2 25 3 28 1 3 -1 7 -32 8 -68z m-269 0 c0 -58 -2 -65 -20 -65 -18 0 -20
7 -20 65 0 58 2 65 20 65 18 0 20 -7 20 -65z m80 0 c0 -63 -1 -65 -25 -65 -24
0 -25 2 -25 65 0 63 1 65 25 65 24 0 25 -2 25 -65z m850 -176 l0 -82 -67 7
c-38 3 -179 6 -315 7 l-248 2 0 67 0 68 232 1 c128 1 234 4 237 6 2 3 40 5 83
5 l78 0 0 -81z m-662 0 l3 -64 -31 0 -30 0 0 61 c0 68 1 71 32 69 21 -1 23 -7
26 -66z m-268 1 c0 -53 -2 -60 -20 -60 -18 0 -20 7 -20 60 0 53 2 60 20 60 18
0 20 -7 20 -60z m80 -4 c0 -62 0 -63 -25 -58 -23 4 -25 8 -25 63 0 56 1 59 25
59 24 0 25 -2 25 -64z m100 1 l0 -63 -35 4 -35 4 0 59 0 59 35 0 35 0 0 -63z
m754 -133 c3 -26 6 -58 6 -72 l0 -25 -142 6 c-79 4 -225 7 -325 7 l-183 0 0
43 c0 23 4 48 8 55 7 9 79 15 288 21 153 4 293 9 310 9 30 2 32 0 38 -44z
m-924 -23 c0 -55 -6 -63 -38 -54 -17 4 -22 13 -22 38 0 49 9 65 36 65 22 0 24
-4 24 -49z m74 27 c3 -13 6 -38 6 -55 0 -30 -3 -33 -30 -33 -30 0 -30 1 -30
55 0 51 2 55 24 55 16 0 26 -7 30 -22z m100 -15 c11 -70 10 -73 -33 -73 -22 0
-42 3 -44 8 -2 4 -2 28 1 55 4 46 5 47 37 47 30 0 33 -3 39 -37z m88 -10 c3
-27 3 -51 1 -55 -2 -5 -20 -8 -40 -8 -36 0 -36 0 -29 38 3 20 6 45 6 55 0 12
8 17 29 17 27 0 29 -3 33 -47z"/>
</g>
</svg>
