<?xml version="1.0" standalone="no"?>
<!DOCTYPE svg PUBLIC "-//W3C//DTD SVG 20010904//EN"
 "http://www.w3.org/TR/2001/REC-SVG-20010904/DTD/svg10.dtd">
<svg version="1.0" xmlns="http://www.w3.org/2000/svg"
 width="159.000000pt" height="165.000000pt" viewBox="0 0 159.000000 165.000000"
 preserveAspectRatio="xMidYMid meet">
<metadata>
Created by potrace 1.16, written by Peter Selinger 2001-2019
</metadata>
<g transform="translate(0.000000,165.000000) scale(0.100000,-0.100000)"
fill="#000000" stroke="none">
<path d="M480 1328 l0 -21 393 6 392 6 -65 -60 c-74 -69 -305 -265 -335 -285
-17 -11 -33 -9 -105 12 -58 17 -120 27 -195 31 l-110 5 -77 -52 c-43 -28 -78
-55 -78 -60 0 -26 28 -16 87 29 36 28 78 54 92 58 51 13 334 -33 368 -59 16
-13 18 -11 160 109 111 94 283 266 283 283 0 10 -277 20 -562 20 -247 0 -248
0 -248 -22z"/>
<path d="M460 1245 c0 -9 9 -15 23 -15 75 -2 546 2 567 5 14 1 41 4 60 5 98 8
-102 18 -362 19 -250 1 -288 -1 -288 -14z"/>
<path d="M425 1172 c-3 -3 -5 -11 -5 -19 0 -10 31 -13 143 -13 214 0 509 12
500 21 -9 8 -630 19 -638 11z"/>
<path d="M382 1083 c3 -17 22 -18 273 -14 149 2 274 6 278 10 9 9 -259 21
-440 21 -104 0 -114 -2 -111 -17z"/>
<path d="M483 733 c-13 -34 6 -35 331 -29 176 4 350 9 385 12 37 3 62 2 60 -3
-6 -15 -194 -183 -308 -276 l-104 -84 -73 23 c-39 13 -121 28 -182 35 -97 10
-113 9 -143 -6 -54 -27 -149 -89 -149 -97 0 -21 46 -3 102 38 l63 46 100 -6
c112 -6 275 -40 286 -58 6 -9 12 -8 26 3 217 185 289 251 347 314 37 42 65 79
61 83 -4 4 -142 8 -308 10 -166 1 -344 3 -396 5 -65 1 -95 -2 -98 -10z"/>
<path d="M460 637 c0 -20 3 -20 336 -14 306 6 356 9 343 21 -2 2 -156 6 -341
8 -335 5 -338 5 -338 -15z"/>
<path d="M422 553 c3 -15 30 -16 300 -14 163 1 310 6 325 10 39 11 -171 21
-424 21 -185 0 -204 -2 -201 -17z"/>
<path d="M380 475 c0 -13 28 -15 188 -15 104 0 231 3 283 7 154 11 50 22 -228
22 -210 1 -243 -1 -243 -14z"/>
</g>
</svg>
