<?xml version="1.0" standalone="no"?>
<!DOCTYPE svg PUBLIC "-//W3C//DTD SVG 20010904//EN"
 "http://www.w3.org/TR/2001/REC-SVG-20010904/DTD/svg10.dtd">
<svg version="1.0" xmlns="http://www.w3.org/2000/svg"
 width="173.000000pt" height="156.000000pt" viewBox="0 0 173.000000 156.000000"
 preserveAspectRatio="xMidYMid meet">
<metadata>
Created by potrace 1.16, written by Peter Selinger 2001-2019
</metadata>
<g transform="translate(0.000000,156.000000) scale(0.100000,-0.100000)"
fill="#000000" stroke="none">
<path d="M836 1244 c-157 -31 -302 -95 -387 -172 -108 -97 -154 -204 -147
-342 6 -105 31 -164 103 -236 99 -99 316 -180 510 -189 l100 -5 -106 19 c-320
56 -519 170 -569 325 -17 54 -8 178 20 249 32 84 119 174 219 226 90 47 225
88 326 98 55 6 70 12 73 26 3 14 -3 17 -35 16 -21 0 -69 -7 -107 -15z"/>
<path d="M697 869 c-48 -50 -87 -95 -87 -100 0 -28 37 1 97 77 l68 85 40 -48
c73 -87 93 -108 99 -103 6 7 -105 172 -120 177 -5 2 -49 -38 -97 -88z"/>
<path d="M762 871 c-4 -10 -31 -45 -61 -77 l-54 -59 -144 0 c-131 1 -143 -1
-143 -17 0 -17 26 -18 481 -18 317 0 478 3 474 10 -4 6 -74 10 -177 10 -94 0
-169 2 -167 4 2 2 90 9 194 15 105 6 202 14 218 16 l27 4 0 -74 c0 -43 4 -75
10 -75 6 0 10 43 10 110 0 67 -4 110 -10 110 -5 0 -10 -13 -10 -29 l0 -28
-122 -7 c-68 -3 -186 -9 -263 -12 l-140 -6 -49 71 c-26 39 -52 71 -57 71 -5 0
-13 -8 -17 -19z m55 -74 c39 -51 33 -57 -60 -57 l-68 0 42 50 c23 28 45 50 48
50 3 -1 20 -20 38 -43z"/>
</g>
</svg>
