<?xml version="1.0" standalone="no"?>
<!DOCTYPE svg PUBLIC "-//W3C//DTD SVG 20010904//EN"
 "http://www.w3.org/TR/2001/REC-SVG-20010904/DTD/svg10.dtd">
<svg version="1.0" xmlns="http://www.w3.org/2000/svg"
 width="159.000000pt" height="164.000000pt" viewBox="0 0 159.000000 164.000000"
 preserveAspectRatio="xMidYMid meet">
<metadata>
Created by potrace 1.16, written by Peter Selinger 2001-2019
</metadata>
<g transform="translate(0.000000,164.000000) scale(0.100000,-0.100000)"
fill="#000000" stroke="none">
<path d="M478 1148 c-142 -258 -182 -339 -170 -347 6 -3 46 -67 90 -141 144
-246 232 -381 232 -355 0 12 -136 276 -209 404 l-77 137 25 40 c14 21 78 127
142 234 105 174 116 196 102 208 -9 6 -20 12 -23 12 -3 0 -54 -87 -112 -192z"/>
<path d="M585 865 l0 -148 145 6 c227 10 412 51 460 102 17 18 34 25 62 25 21
0 38 5 38 10 0 6 -16 10 -36 10 -26 0 -41 7 -59 28 -47 56 -233 100 -465 109
l-145 6 0 -148z m360 109 c50 -8 117 -24 150 -35 58 -19 115 -53 105 -62 -3
-3 -111 -2 -240 2 -129 4 -238 6 -242 4 -3 -2 -4 -12 -1 -23 5 -20 10 -20 247
-15 l241 7 -25 -21 c-55 -45 -227 -84 -428 -97 l-113 -7 25 38 c37 54 37 146
0 200 l-25 38 108 -7 c59 -4 149 -13 198 -22z"/>
</g>
</svg>
