<?xml version="1.0" standalone="no"?>
<!DOCTYPE svg PUBLIC "-//W3C//DTD SVG 20010904//EN"
 "http://www.w3.org/TR/2001/REC-SVG-20010904/DTD/svg10.dtd">
<svg version="1.0" xmlns="http://www.w3.org/2000/svg"
 width="198.000000pt" height="164.000000pt" viewBox="0 0 198.000000 164.000000"
 preserveAspectRatio="xMidYMid meet">
<metadata>
Created by potrace 1.16, written by Peter Selinger 2001-2019
</metadata>
<g transform="translate(0.000000,164.000000) scale(0.100000,-0.100000)"
fill="#000000" stroke="none">
<path d="M518 1222 c-122 -215 -221 -414 -210 -421 6 -3 46 -67 90 -141 65
-111 206 -343 219 -359 2 -2 6 -2 9 1 7 8 -112 242 -207 408 -39 69 -71 130
-72 135 0 6 27 53 60 105 33 52 97 157 141 232 74 127 79 139 62 148 -10 5
-20 10 -22 10 -2 0 -33 -53 -70 -118z"/>
<path d="M787 943 c-1 -1 -1 -60 1 -133 l3 -131 347 7 c191 4 356 8 367 9 11
1 56 3 100 4 44 1 75 5 68 9 -9 6 -10 24 -3 72 5 36 10 84 10 108 0 39 -2 42
-27 43 -49 3 -865 14 -866 12z m861 -202 l-3 -23 -205 1 c-113 0 -300 4 -415
7 l-210 7 3 76 c2 42 7 79 10 83 4 3 187 10 407 15 l400 8 8 -75 c4 -41 6 -86
5 -99z"/>
</g>
</svg>
