<?xml version="1.0" standalone="no"?>
<!DOCTYPE svg PUBLIC "-//W3C//DTD SVG 20010904//EN"
 "http://www.w3.org/TR/2001/REC-SVG-20010904/DTD/svg10.dtd">
<svg version="1.0" xmlns="http://www.w3.org/2000/svg"
 width="204.000000pt" height="426.000000pt" viewBox="0 0 204.000000 426.000000"
 preserveAspectRatio="xMidYMid meet">
<metadata>
Created by potrace 1.16, written by Peter Selinger 2001-2019
</metadata>
<g transform="translate(0.000000,426.000000) scale(0.100000,-0.100000)"
fill="#000000" stroke="none">
<path d="M569 3858 c-176 -219 -269 -394 -269 -508 0 -79 100 -254 299 -520
47 -63 89 -119 93 -125 4 -5 9 -7 12 -4 3 2 -36 65 -86 139 -118 176 -223 354
-255 432 -19 49 -24 74 -20 109 12 96 108 266 255 447 76 94 94 132 63 132 -5
0 -47 -46 -92 -102z"/>
<path d="M1394 3825 c-4 -10 -4 -116 0 -236 3 -121 5 -219 3 -219 -2 0 -44 32
-93 70 -49 39 -94 70 -101 70 -36 0 -12 -26 86 -95 61 -41 113 -81 117 -87 5
-8 -17 -9 -82 -5 -67 5 -94 11 -114 27 -153 122 -200 150 -200 120 0 -5 41
-37 91 -72 l92 -63 -77 -3 -76 -3 -68 54 c-114 91 -131 101 -138 82 -4 -9 -5
-17 -3 -19 2 -2 39 -26 82 -55 42 -28 77 -54 77 -56 0 -3 -40 -5 -89 -5 l-88
0 -68 56 c-38 30 -88 69 -112 85 -69 48 -74 39 -72 -157 0 -108 4 -168 12
-178 11 -15 22 -10 102 45 50 33 97 67 106 75 16 14 31 14 137 -2 l34 -5 -81
-61 c-65 -48 -79 -63 -70 -74 9 -11 25 -2 83 45 39 32 77 65 84 73 9 11 26 14
65 10 85 -8 86 -13 3 -75 -53 -40 -74 -62 -70 -72 7 -17 33 -1 135 86 55 48
56 48 115 43 116 -10 115 -8 20 -80 -47 -35 -86 -69 -86 -74 0 -27 29 -12 115
61 l97 81 74 -7 75 -7 -87 -65 c-62 -47 -83 -68 -75 -76 12 -12 40 6 134 87
l59 50 76 -3 c42 -2 84 -4 93 -6 14 -3 17 11 22 93 4 54 7 199 7 325 l0 227
-139 0 c-76 0 -152 3 -170 6 -24 5 -32 2 -37 -11z m306 -123 c0 -60 3 -198 7
-306 l6 -198 -69 7 c-38 4 -71 9 -73 11 -2 2 2 10 9 19 16 20 1 19 -21 -1 -14
-13 -31 -15 -94 -9 -59 6 -75 11 -71 21 6 17 -6 18 -21 3 -12 -12 -183 -2
-183 11 0 22 39 33 140 38 81 3 110 8 110 18 0 7 -4 16 -10 19 -5 3 -10 22
-10 41 l0 34 98 1 c53 1 108 4 122 8 23 7 21 8 -15 14 -22 4 -77 7 -122 7
l-83 0 0 34 0 33 77 7 c42 3 96 6 120 6 23 0 43 4 43 10 0 5 -50 11 -117 12
l-118 3 0 25 c0 14 7 28 15 32 8 4 61 7 118 7 143 1 131 20 -15 23 l-118 3 -3
33 -3 32 98 1 c54 1 109 4 123 8 21 6 18 8 -24 14 -27 4 -82 7 -122 7 l-74 0
0 35 0 34 108 4 c59 1 122 4 140 5 l32 2 0 -108z m-997 -317 c60 -41 87 -66
87 -80 0 -15 -28 -37 -101 -83 -56 -34 -103 -61 -104 -60 -1 2 0 69 3 150 3
110 8 146 16 140 7 -4 51 -34 99 -67z m290 -102 c-7 -2 -19 -2 -25 0 -7 3 -2
5 12 5 14 0 19 -2 13 -5z m186 -9 c-13 -13 -29 -14 -87 -8 -40 3 -70 10 -67
14 2 4 41 8 87 9 75 1 81 0 67 -15z"/>
<path d="M628 1533 c-49 -54 -137 -171 -193 -257 -84 -129 -127 -228 -132
-306 -4 -60 -2 -70 36 -143 54 -104 131 -222 254 -387 117 -158 106 -144 112
-139 2 3 -51 88 -118 190 -191 288 -253 414 -244 491 12 98 102 257 251 442
49 61 85 114 82 122 -8 21 -19 17 -48 -13z"/>
<path d="M1269 1523 c-2 -51 2 -215 7 -343 l7 -145 -388 3 -388 3 7 -127 c8
-128 12 -154 26 -154 4 0 42 41 85 90 43 50 85 90 94 89 9 0 34 -3 55 -7 l40
-7 -62 -67 c-44 -46 -59 -69 -50 -74 8 -5 35 17 78 64 l67 72 47 -6 c25 -4 48
-10 51 -14 2 -4 -16 -26 -40 -50 -33 -32 -42 -47 -34 -56 8 -10 24 1 67 45
l57 58 64 -9 63 -10 -38 -39 c-31 -32 -36 -41 -25 -51 10 -11 21 -4 55 35 l42
49 58 -7 c53 -7 56 -9 42 -24 -12 -13 -13 -20 -4 -29 9 -9 18 -6 39 14 l27 25
118 -16 c66 -9 131 -20 145 -25 l27 -8 7 140 c4 78 6 241 4 364 l-4 222 -29 6
c-16 3 -93 6 -172 6 -130 0 -144 -2 -145 -17z m312 -186 c0 -95 4 -246 8 -337
4 -91 7 -167 5 -169 -2 -2 -61 7 -132 19 l-130 23 56 68 56 69 53 0 c29 0 53
5 53 10 0 11 -46 13 -172 10 l-78 -2 0 46 0 46 114 0 c66 0 117 4 121 10 4 6
-18 11 -57 12 -35 1 -70 2 -78 4 -8 1 -34 2 -57 3 -42 1 -43 2 -43 36 l0 35
59 0 c32 0 87 3 122 7 91 9 48 21 -78 22 l-103 1 0 30 c0 29 2 30 43 30 82 0
196 13 191 21 -3 5 -57 9 -120 9 l-114 0 0 35 0 35 114 0 c66 0 117 4 121 10
4 6 -14 10 -47 10 -29 0 -83 3 -120 7 l-68 6 0 33 0 33 133 3 c72 2 135 2 140
0 4 -2 7 -81 8 -175z m-171 -335 c0 -4 -26 -33 -58 -65 -58 -57 -58 -57 -105
-51 -26 4 -50 11 -53 15 -3 5 11 29 31 53 38 46 50 51 143 54 23 1 42 -2 42
-6z m-690 -13 c0 -11 -21 -11 -39 0 -9 6 -5 9 13 9 14 0 26 -4 26 -9z m143
-10 c-18 -18 -28 -20 -72 -14 -86 12 -64 27 48 32 l45 2 -21 -20z m161 -1
c-37 -44 -42 -47 -60 -43 -11 2 -36 7 -57 10 l-37 6 17 24 c16 22 26 24 87 25
l69 0 -19 -22z m174 -24 l-46 -47 -66 8 c-36 3 -66 10 -66 15 0 5 12 22 26 39
25 30 28 31 112 31 l87 0 -47 -46z m-575 0 c26 -3 47 -9 47 -13 0 -4 -29 -36
-65 -71 l-65 -64 0 82 c0 75 2 83 18 78 9 -3 38 -8 65 -12z"/>
</g>
</svg>
