<?xml version="1.0" standalone="no"?>
<!DOCTYPE svg PUBLIC "-//W3C//DTD SVG 20010904//EN"
 "http://www.w3.org/TR/2001/REC-SVG-20010904/DTD/svg10.dtd">
<svg version="1.0" xmlns="http://www.w3.org/2000/svg"
 width="190.000000pt" height="144.000000pt" viewBox="0 0 190.000000 144.000000"
 preserveAspectRatio="xMidYMid meet">
<metadata>
Created by potrace 1.16, written by Peter Selinger 2001-2019
</metadata>
<g transform="translate(0.000000,144.000000) scale(0.100000,-0.100000)"
fill="#000000" stroke="none">
<path d="M458 1028 c-37 -62 -88 -157 -113 -211 l-47 -98 53 -102 c29 -56 84
-149 122 -207 80 -121 75 -115 83 -107 3 3 -29 70 -73 149 -96 176 -146 286
-138 306 3 9 47 85 98 169 l92 154 8 -228 c5 -134 13 -240 20 -257 l12 -29
360 7 c453 8 665 17 665 28 0 4 -7 8 -16 8 -10 0 -14 6 -10 18 2 9 8 123 12
253 l6 237 -193 6 c-107 3 -347 8 -534 11 l-340 5 -67 -112z m1082 50 c0 -13
3 -34 7 -47 l6 -24 -299 6 c-164 4 -307 7 -316 7 -14 0 -18 8 -18 35 l0 35
208 3 c114 1 253 3 310 5 100 2 102 2 102 -20z m-740 -29 c0 -27 -3 -29 -35
-29 -32 0 -35 2 -35 29 0 25 5 30 28 33 37 5 42 1 42 -33z m88 2 c2 -28 0 -31
-28 -31 -27 0 -30 3 -30 29 0 23 5 30 23 33 30 5 32 4 35 -31z m-268 -1 c0
-23 -4 -30 -20 -30 -16 0 -20 7 -20 30 0 23 4 30 20 30 16 0 20 -7 20 -30z
m80 0 c0 -25 -4 -30 -25 -30 -21 0 -25 5 -25 30 0 25 4 30 25 30 21 0 25 -5
25 -30z m850 -106 l0 -46 -52 6 c-29 3 -171 7 -315 8 l-263 3 0 32 0 33 228 3
c125 1 266 3 315 5 l87 2 0 -46z m-752 3 c3 -25 0 -27 -32 -27 -31 0 -36 3
-36 24 0 18 7 26 23 29 35 7 42 2 45 -26z m90 -8 c-3 -22 -9 -25 -48 -20 -5 0
-10 12 -10 25 0 18 6 26 23 28 29 5 39 -4 35 -33z m-268 6 c0 -18 -5 -25 -20
-25 -15 0 -20 7 -20 25 0 18 5 25 20 25 15 0 20 -7 20 -25z m80 0 c0 -20 -5
-25 -25 -25 -20 0 -25 5 -25 25 0 20 5 25 25 25 20 0 25 -5 25 -25z m850 -102
l0 -46 -167 6 c-91 4 -233 7 -315 7 l-148 0 0 30 c0 27 3 30 33 31 17 1 136 5
262 8 127 4 254 8 283 9 l52 2 0 -47z m-930 -3 c0 -23 -4 -30 -20 -30 -16 0
-20 7 -20 30 0 23 4 30 20 30 16 0 20 -7 20 -30z m80 0 c0 -25 -4 -30 -25 -30
-21 0 -25 5 -25 30 0 25 4 30 25 30 21 0 25 -5 25 -30z m100 0 c0 -28 -3 -30
-35 -30 -32 0 -35 2 -35 30 0 28 3 30 35 30 32 0 35 -2 35 -30z m90 0 c0 -27
-3 -30 -30 -30 -27 0 -30 3 -30 30 0 27 3 30 30 30 27 0 30 -3 30 -30z m660
-96 l0 -47 -127 6 c-71 4 -212 7 -315 7 l-188 0 0 29 0 28 313 10 c171 5 313
10 315 11 1 1 2 -19 2 -44z m-925 6 c8 -26 -1 -40 -26 -40 -14 0 -19 7 -19 30
0 23 5 30 19 30 11 0 22 -9 26 -20z m75 -10 c0 -25 -4 -30 -25 -30 -21 0 -25
5 -25 30 0 25 4 30 25 30 21 0 25 -5 25 -30z m100 0 c0 -28 -3 -30 -35 -30
-32 0 -35 2 -35 30 0 28 3 30 35 30 32 0 35 -2 35 -30z m90 0 c0 -27 -3 -30
-30 -30 -27 0 -30 3 -30 30 0 27 3 30 30 30 27 0 30 -3 30 -30z m670 -96 l0
-37 -142 6 c-79 4 -225 7 -325 7 l-183 0 0 25 0 24 158 4 c86 1 232 4 325 5
l167 2 0 -36z m-930 7 c0 -25 -11 -32 -38 -24 -13 3 -22 13 -22 24 0 14 7 19
30 19 23 0 30 -5 30 -19z m80 -6 c0 -21 -5 -25 -30 -25 -25 0 -30 4 -30 25 0
21 5 25 30 25 25 0 30 -4 30 -25z m100 0 c0 -22 -4 -25 -39 -25 -43 0 -55 9
-45 34 4 11 19 16 45 16 35 0 39 -3 39 -25z m85 0 c0 -16 -8 -21 -37 -23 -35
-3 -38 -1 -38 23 0 24 3 26 38 23 29 -2 37 -7 37 -23z"/>
</g>
</svg>
