<?xml version="1.0" standalone="no"?>
<!DOCTYPE svg PUBLIC "-//W3C//DTD SVG 20010904//EN"
 "http://www.w3.org/TR/2001/REC-SVG-20010904/DTD/svg10.dtd">
<svg version="1.0" xmlns="http://www.w3.org/2000/svg"
 width="163.000000pt" height="143.000000pt" viewBox="0 0 163.000000 143.000000"
 preserveAspectRatio="xMidYMid meet">
<metadata>
Created by potrace 1.16, written by Peter Selinger 2001-2019
</metadata>
<g transform="translate(0.000000,143.000000) scale(0.100000,-0.100000)"
fill="#000000" stroke="none">
<path d="M1194 1097 c-97 -39 -200 -111 -237 -164 -32 -46 -57 -105 -57 -133
0 -18 -6 -20 -75 -20 l-75 0 0 75 c0 68 -2 75 -20 75 -18 0 -20 -7 -20 -75 0
-68 -2 -75 -20 -75 -18 0 -20 7 -20 85 0 78 -2 85 -20 85 -18 0 -20 -7 -20
-85 0 -78 -2 -85 -20 -85 -19 0 -20 7 -20 95 0 78 -3 95 -15 95 -12 0 -15 -17
-15 -95 0 -88 -1 -95 -20 -95 -19 0 -20 7 -20 115 0 96 -3 115 -15 115 -12 0
-15 -19 -15 -115 0 -115 0 -115 -24 -115 -24 0 -24 1 -19 83 l5 82 -46 63
c-25 34 -50 62 -54 62 -24 0 -17 -18 28 -72 53 -63 55 -71 44 -165 l-7 -53
-58 0 c-52 0 -59 -2 -59 -20 0 -16 8 -19 54 -22 l55 -3 -19 -55 -19 -55 102
-103 c107 -109 238 -222 256 -222 10 0 16 131 16 368 l0 72 78 0 c67 0 77 -2
77 -17 0 -10 11 -40 24 -68 44 -96 193 -204 342 -248 l51 -15 6 136 c4 74 7
234 7 354 0 278 4 272 -136 215z m96 -151 c0 -79 3 -152 6 -161 6 -14 -7 -16
-122 -14 -71 2 -154 4 -185 7 l-57 4 8 31 c17 75 66 140 149 197 34 23 166 79
189 80 9 0 12 -35 12 -144z m10 -361 c0 -93 -4 -165 -9 -165 -18 0 -102 40
-158 76 -69 43 -148 117 -170 158 -20 39 -33 83 -25 90 3 3 86 6 184 6 l178 0
0 -165z m-809 113 c0 -24 4 -63 8 -88 7 -43 8 -41 15 43 7 76 11 87 27 87 17
0 19 -9 20 -97 0 -54 3 -116 8 -138 6 -37 8 -34 14 39 4 43 7 105 7 138 0 50
3 58 19 58 23 0 31 -50 31 -206 0 -69 4 -114 10 -114 6 0 10 29 10 68 0 38 3
110 6 160 6 81 9 92 25 92 17 0 19 -9 19 -97 0 -54 3 -150 6 -213 l6 -115
-142 140 c-174 172 -185 187 -172 223 6 15 13 35 16 45 3 11 16 17 36 17 29 0
30 -2 31 -42z"/>
</g>
</svg>
