<?xml version="1.0" standalone="no"?>
<!DOCTYPE svg PUBLIC "-//W3C//DTD SVG 20010904//EN"
 "http://www.w3.org/TR/2001/REC-SVG-20010904/DTD/svg10.dtd">
<svg version="1.0" xmlns="http://www.w3.org/2000/svg"
 width="177.000000pt" height="134.000000pt" viewBox="0 0 177.000000 134.000000"
 preserveAspectRatio="xMidYMid meet">
<metadata>
Created by potrace 1.16, written by Peter Selinger 2001-2019
</metadata>
<g transform="translate(0.000000,134.000000) scale(0.100000,-0.100000)"
fill="#000000" stroke="none">
<path d="M1345 1007 c-150 -61 -257 -154 -286 -249 -9 -27 -19 -38 -38 -42
-32 -7 -161 -26 -178 -26 -8 0 -13 21 -15 58 -2 43 -7 57 -18 57 -12 0 -14
-12 -12 -57 3 -53 2 -58 -17 -58 -19 0 -21 6 -21 60 0 47 -3 60 -15 60 -12 0
-15 -14 -15 -65 0 -58 -2 -65 -20 -65 -16 0 -19 8 -22 60 -4 78 -22 78 -26 0
-3 -56 -4 -60 -27 -60 -24 0 -25 3 -25 66 0 48 -3 65 -12 62 -8 -3 -14 -29
-16 -71 -3 -63 -4 -67 -27 -67 -23 0 -24 4 -27 68 -2 52 -6 67 -18 67 -12 0
-15 -14 -15 -65 0 -58 -2 -65 -20 -65 -17 0 -21 8 -25 65 -4 48 -9 65 -20 65
-11 0 -14 -15 -15 -65 l0 -65 -57 2 c-56 2 -58 1 -58 -22 0 -24 3 -25 60 -25
l60 0 1 -52 c0 -29 3 -71 8 -93 l7 -40 7 49 c4 27 7 68 7 92 0 40 2 44 25 44
24 0 25 -2 26 -72 0 -80 17 -144 18 -73 1 22 4 64 7 93 6 45 10 52 29 52 26 0
35 -30 35 -116 0 -30 5 -54 10 -54 6 0 10 35 10 85 0 83 1 85 24 85 21 0 24
-6 30 -52 3 -29 6 -70 6 -91 0 -23 4 -36 10 -32 6 3 10 44 10 91 0 75 2 84 19
84 20 0 31 -49 31 -138 0 -82 19 -32 22 58 2 68 6 85 18 85 9 0 16 -11 18 -30
1 -16 5 -59 9 -95 l7 -65 10 95 11 95 108 3 c98 2 107 1 107 -16 0 -31 48
-116 87 -154 51 -49 140 -101 236 -139 79 -30 135 -36 66 -6 -195 82 -320 184
-348 285 l-10 32 82 1 c45 1 114 4 152 8 l70 6 -100 8 c-55 4 -124 7 -153 7
-93 0 -54 21 103 56 83 19 151 34 151 34 1 0 5 -40 9 -90 4 -49 11 -90 16 -90
5 0 9 52 9 115 0 63 -3 115 -8 115 -4 0 -15 -8 -23 -18 -11 -13 -54 -25 -152
-42 -76 -13 -140 -21 -143 -17 -4 3 4 26 16 51 42 87 173 179 299 208 38 9 51
16 51 30 0 26 -23 23 -115 -15z m-317 -334 c-10 -2 -26 -2 -35 0 -10 3 -2 5
17 5 19 0 27 -2 18 -5z"/>
</g>
</svg>
