<?xml version="1.0" standalone="no"?>
<!DOCTYPE svg PUBLIC "-//W3C//DTD SVG 20010904//EN"
 "http://www.w3.org/TR/2001/REC-SVG-20010904/DTD/svg10.dtd">
<svg version="1.0" xmlns="http://www.w3.org/2000/svg"
 width="183.000000pt" height="156.000000pt" viewBox="0 0 183.000000 156.000000"
 preserveAspectRatio="xMidYMid meet">
<metadata>
Created by potrace 1.16, written by Peter Selinger 2001-2019
</metadata>
<g transform="translate(0.000000,156.000000) scale(0.100000,-0.100000)"
fill="#000000" stroke="none">
<path d="M350 1245 c-10 -12 4 -30 85 -107 l97 -93 -80 -58 c-114 -81 -152
-119 -152 -151 0 -40 67 -106 165 -160 99 -56 100 -38 -16 -193 -44 -58 -78
-107 -76 -110 6 -6 129 124 196 207 76 95 124 187 124 238 0 69 -75 182 -228
349 -48 51 -90 93 -94 93 -5 0 -14 -7 -21 -15z m258 -304 c53 -80 54 -112 6
-206 -20 -38 -40 -75 -46 -82 -20 -25 -228 139 -228 180 0 27 190 180 215 174
6 -2 29 -31 53 -66z"/>
<path d="M997 1134 c-20 -20 9 -143 44 -188 l20 -26 -37 0 -37 0 6 -52 c4 -29
17 -74 30 -100 l24 -48 -30 0 -30 0 7 -56 c3 -31 15 -73 25 -95 l19 -39 -25 0
c-25 0 -26 -1 -19 -55 7 -65 40 -139 69 -160 34 -24 75 -18 107 13 30 31 60
114 60 169 0 28 -4 33 -24 33 l-23 0 19 39 c11 22 22 64 25 95 l6 56 -33 0
c-32 0 -32 1 -16 19 21 24 46 103 46 148 0 31 -2 33 -35 33 l-34 0 24 36 c25
37 50 127 44 159 -4 18 -14 20 -115 23 -60 1 -113 -1 -117 -4z m92 -91 c48 -7
84 1 105 23 15 14 16 14 16 -6 0 -58 -57 -140 -98 -140 -31 0 -75 47 -90 98
-17 57 -16 68 7 48 11 -10 38 -20 60 -23z m21 -217 c28 0 58 7 74 17 25 17 26
17 26 -1 0 -10 -12 -41 -26 -70 -25 -50 -27 -52 -68 -52 -49 0 -70 18 -92 77
-20 58 -18 66 12 46 16 -10 46 -17 74 -17z m0 -206 c19 0 50 9 69 21 l34 20
-7 -31 c-3 -17 -13 -47 -22 -66 -16 -33 -18 -34 -73 -34 -55 0 -58 1 -73 33
-8 17 -19 47 -23 65 l-7 33 34 -21 c18 -11 49 -20 68 -20z m0 -190 c19 0 50 9
69 21 l33 20 -6 -38 c-10 -51 -50 -111 -80 -119 -13 -3 -34 0 -46 6 -22 12
-70 102 -70 132 0 16 3 16 33 -2 17 -11 48 -20 67 -20z"/>
<path d="M1293 1124 c-8 -23 23 -141 47 -175 l21 -29 -37 0 -37 0 7 -52 c4
-29 17 -74 30 -100 l22 -47 -25 -3 c-24 -3 -26 -6 -23 -52 1 -26 11 -68 21
-92 l20 -44 -26 0 c-25 0 -25 -1 -19 -52 9 -66 42 -144 70 -163 71 -51 152 26
163 157 6 55 5 58 -17 58 -17 0 -21 4 -15 18 25 59 34 92 35 130 0 39 -2 42
-26 42 -14 0 -24 3 -22 8 28 54 42 96 46 140 l4 52 -36 0 -37 0 25 33 c27 36
46 95 46 148 l0 35 -115 2 c-96 1 -117 -1 -122 -14z m105 -82 c33 -3 59 1 80
12 29 15 32 15 32 1 0 -25 -29 -88 -52 -112 -51 -55 -119 -4 -143 107 l-7 35
21 -19 c12 -11 41 -21 69 -24z m19 -215 c23 0 53 8 69 18 l27 17 -7 -33 c-3
-19 -15 -49 -25 -69 -16 -31 -23 -35 -60 -38 -54 -4 -76 15 -96 81 -8 28 -15
52 -15 54 0 2 15 -4 33 -13 17 -10 51 -17 74 -17z m11 -204 c24 3 52 13 62 22
19 18 20 17 20 -6 0 -13 -9 -43 -20 -67 l-19 -43 -58 3 c-51 3 -59 6 -74 33
-9 17 -20 44 -24 62 l-6 31 38 -19 c27 -14 51 -19 81 -16z m0 -190 c24 3 52
13 62 22 19 18 20 17 20 -6 0 -37 -42 -112 -72 -129 -22 -12 -30 -12 -51 -1
-28 15 -62 70 -72 118 l-6 31 38 -19 c27 -14 51 -19 81 -16z"/>
<path d="M760 1063 c-21 -11 -42 -33 -54 -57 -17 -36 -18 -43 -5 -79 39 -110
182 -109 217 0 11 35 11 46 -2 76 -26 64 -96 91 -156 60z"/>
</g>
</svg>
