<?xml version="1.0" standalone="no"?>
<!DOCTYPE svg PUBLIC "-//W3C//DTD SVG 20010904//EN"
 "http://www.w3.org/TR/2001/REC-SVG-20010904/DTD/svg10.dtd">
<svg version="1.0" xmlns="http://www.w3.org/2000/svg"
 width="125.000000pt" height="148.000000pt" viewBox="0 0 125.000000 148.000000"
 preserveAspectRatio="xMidYMid meet">
<metadata>
Created by potrace 1.16, written by Peter Selinger 2001-2019
</metadata>
<g transform="translate(0.000000,148.000000) scale(0.100000,-0.100000)"
fill="#000000" stroke="none">
<path d="M350 1165 c-10 -12 4 -30 86 -108 l98 -93 -80 -56 c-176 -125 -187
-150 -101 -233 28 -27 85 -67 125 -88 39 -21 72 -40 72 -43 0 -6 -97 -142
-137 -192 -43 -53 -34 -70 10 -22 211 229 289 357 267 439 -19 71 -110 195
-259 354 -30 31 -57 57 -61 57 -4 0 -13 -7 -20 -15z m258 -304 c30 -46 42 -73
42 -99 0 -38 -34 -122 -71 -173 l-20 -29 -57 36 c-81 52 -129 94 -149 131 -16
31 -16 33 2 54 30 33 189 149 200 146 6 -2 29 -31 53 -66z"/>
<path d="M794 950 c-11 -4 -33 -23 -48 -41 -75 -89 32 -224 138 -174 87 41 88
168 2 209 -37 18 -60 19 -92 6z"/>
<path d="M795 676 c-45 -20 -67 -50 -72 -99 -5 -39 -1 -48 27 -80 39 -45 84
-56 134 -32 59 28 82 98 54 159 -22 50 -92 75 -143 52z"/>
</g>
</svg>
