<?xml version="1.0" standalone="no"?>
<!DOCTYPE svg PUBLIC "-//W3C//DTD SVG 20010904//EN"
 "http://www.w3.org/TR/2001/REC-SVG-20010904/DTD/svg10.dtd">
<svg version="1.0" xmlns="http://www.w3.org/2000/svg"
 width="152.000000pt" height="148.000000pt" viewBox="0 0 152.000000 148.000000"
 preserveAspectRatio="xMidYMid meet">
<metadata>
Created by potrace 1.16, written by Peter Selinger 2001-2019
</metadata>
<g transform="translate(0.000000,148.000000) scale(0.100000,-0.100000)"
fill="#000000" stroke="none">
<path d="M352 1163 c-8 -14 8 -34 86 -108 l95 -91 -69 -49 c-106 -75 -164
-133 -164 -163 0 -37 88 -118 178 -165 39 -21 72 -41 72 -44 0 -7 -81 -122
-132 -187 -61 -77 -33 -68 44 14 139 150 222 275 235 354 7 44 -25 112 -96
206 -56 75 -219 250 -231 250 -5 0 -13 -8 -18 -17z m234 -265 c41 -49 74 -128
67 -158 -6 -23 -61 -139 -81 -169 -8 -10 -25 -3 -84 37 -68 46 -148 121 -148
140 0 20 40 59 119 118 47 35 89 64 93 64 3 0 19 -15 34 -32z"/>
<path d="M976 1031 c-3 -4 -1 -36 5 -71 7 -43 7 -65 0 -70 -7 -4 -8 -25 -1
-63 5 -31 6 -72 3 -90 -13 -80 60 -217 115 -217 28 0 70 36 93 82 25 49 37
137 20 148 -10 5 -10 21 -1 69 8 44 8 66 1 75 -8 9 -8 30 0 70 5 31 7 61 4 66
-8 12 -232 14 -239 1z m119 -91 c22 0 54 9 73 20 l32 20 -6 -28 c-14 -59 -19
-62 -99 -62 -80 0 -85 3 -99 62 l-6 28 32 -20 c19 -11 51 -20 73 -20z m0 -135
c48 0 68 5 84 19 24 22 25 18 9 -35 l-11 -39 -82 0 c-82 0 -83 0 -89 28 -4 15
-10 36 -13 47 l-6 20 23 -20 c17 -16 36 -20 85 -20z m5 -145 c23 0 54 7 70 15
27 14 30 14 30 0 0 -25 -29 -88 -52 -112 -46 -49 -114 -11 -138 75 -14 53 -13
54 20 37 16 -8 47 -15 70 -15z"/>
<path d="M790 943 c-95 -49 -83 -183 20 -214 53 -16 107 10 134 65 17 36 18
43 5 79 -25 71 -96 102 -159 70z"/>
</g>
</svg>
