<?xml version="1.0" standalone="no"?>
<!DOCTYPE svg PUBLIC "-//W3C//DTD SVG 20010904//EN"
 "http://www.w3.org/TR/2001/REC-SVG-20010904/DTD/svg10.dtd">
<svg version="1.0" xmlns="http://www.w3.org/2000/svg"
 width="155.000000pt" height="152.000000pt" viewBox="0 0 155.000000 152.000000"
 preserveAspectRatio="xMidYMid meet">
<metadata>
Created by potrace 1.16, written by Peter Selinger 2001-2019
</metadata>
<g transform="translate(0.000000,152.000000) scale(0.100000,-0.100000)"
fill="#000000" stroke="none">
<path d="M350 1205 c-10 -12 4 -30 86 -108 l97 -93 -79 -56 c-114 -80 -154
-119 -154 -154 0 -39 84 -118 178 -167 39 -21 72 -40 72 -43 0 -7 -99 -143
-143 -197 -60 -73 -33 -71 34 3 155 170 240 294 253 370 12 68 -71 198 -243
383 -40 42 -76 77 -81 77 -4 0 -13 -7 -20 -15z m238 -272 c42 -55 62 -97 62
-135 0 -35 -36 -120 -70 -169 l-21 -28 -52 32 c-64 39 -167 137 -167 159 0 23
181 175 212 177 3 1 20 -16 36 -36z"/>
<path d="M710 1107 c0 -47 26 -129 51 -161 l20 -26 -37 0 -37 0 6 -55 c3 -31
17 -75 31 -100 l25 -45 -31 0 -31 0 6 -56 c3 -31 14 -73 25 -95 l19 -39 -23 0
c-20 0 -24 -5 -24 -33 0 -54 28 -133 59 -166 72 -77 160 -7 177 143 7 55 6 56
-18 56 l-25 0 19 39 c11 22 22 64 25 95 l6 56 -31 0 -31 0 24 43 c14 23 27 68
31 100 l7 57 -37 0 -37 0 20 26 c25 32 51 114 51 161 l0 33 -120 0 -120 0 0
-33z m120 -62 c44 0 63 5 80 20 l23 20 -7 -35 c-10 -54 -38 -103 -68 -120 -25
-13 -31 -13 -55 0 -31 17 -59 66 -69 120 l-7 35 23 -20 c17 -15 36 -20 80 -20z
m0 -215 c23 0 54 7 70 15 35 18 37 11 16 -48 -22 -59 -43 -77 -92 -77 -41 0
-43 2 -68 52 -14 29 -26 60 -26 70 0 17 2 17 30 3 16 -8 47 -15 70 -15z m0
-210 c14 0 43 9 64 20 l38 19 -6 -30 c-3 -17 -13 -46 -22 -65 -16 -33 -18 -34
-74 -34 -56 0 -58 1 -74 34 -9 19 -19 48 -22 65 l-6 30 38 -19 c21 -11 50 -20
64 -20z m0 -190 c14 0 42 9 63 19 33 17 37 17 37 2 0 -33 -47 -116 -74 -131
-24 -12 -31 -12 -53 0 -29 17 -59 68 -69 117 l-6 32 38 -19 c21 -11 50 -20 64
-20z"/>
<path d="M1015 1129 c-16 -25 11 -127 48 -181 l18 -28 -37 0 -37 0 7 -52 c4
-29 17 -74 30 -100 l23 -48 -30 0 -30 0 6 -50 c3 -27 15 -70 26 -95 l20 -45
-26 0 c-25 0 -25 -1 -19 -52 14 -101 64 -178 116 -178 59 0 109 73 117 172 6
55 5 58 -17 58 -17 0 -21 4 -15 18 25 59 34 92 35 130 0 39 -2 42 -26 42 -14
0 -24 3 -22 8 26 50 41 95 45 139 l6 53 -36 0 -36 0 24 36 c29 43 45 94 45
147 l0 37 -114 0 c-71 0 -117 -4 -121 -11z m97 -86 c27 -3 58 1 81 10 44 19
47 11 22 -51 -53 -125 -148 -100 -180 48 -7 35 -7 35 13 16 12 -10 41 -21 64
-23z m25 -213 c29 0 58 7 72 17 l24 16 -7 -34 c-3 -18 -15 -49 -25 -69 -16
-31 -23 -35 -60 -38 -53 -4 -74 13 -95 76 -21 62 -21 65 14 47 16 -8 51 -15
77 -15z m11 -207 c24 3 52 13 62 22 19 18 20 17 20 -6 0 -13 -9 -43 -20 -67
l-19 -43 -58 3 c-51 3 -59 6 -74 33 -9 17 -20 44 -24 62 l-6 31 38 -19 c27
-14 51 -19 81 -16z m-18 -193 c14 0 42 9 63 19 l37 19 0 -22 c-1 -35 -37 -103
-64 -121 -22 -14 -31 -15 -55 -6 -30 13 -65 66 -76 118 l-6 31 37 -19 c21 -10
50 -19 64 -19z"/>
</g>
</svg>
