<?xml version="1.0" standalone="no"?>
<!DOCTYPE svg PUBLIC "-//W3C//DTD SVG 20010904//EN"
 "http://www.w3.org/TR/2001/REC-SVG-20010904/DTD/svg10.dtd">
<svg version="1.0" xmlns="http://www.w3.org/2000/svg"
 width="152.000000pt" height="148.000000pt" viewBox="0 0 152.000000 148.000000"
 preserveAspectRatio="xMidYMid meet">
<metadata>
Created by potrace 1.16, written by Peter Selinger 2001-2019
</metadata>
<g transform="translate(0.000000,148.000000) scale(0.100000,-0.100000)"
fill="#000000" stroke="none">
<path d="M350 1165 c-11 -13 2 -29 85 -108 l99 -93 -80 -56 c-176 -125 -187
-150 -101 -233 28 -27 85 -67 125 -88 39 -21 72 -40 72 -43 0 -6 -98 -143
-138 -192 -19 -23 -31 -46 -27 -50 15 -15 226 237 276 331 53 100 41 160 -60
292 -58 76 -220 255 -230 255 -5 0 -14 -7 -21 -15z m258 -304 c30 -46 42 -73
42 -99 0 -38 -34 -122 -71 -173 l-20 -29 -57 36 c-81 52 -129 94 -149 131 -16
31 -16 33 2 54 30 33 189 149 200 146 6 -2 29 -31 53 -66z"/>
<path d="M710 925 c0 -46 27 -125 53 -152 l20 -23 -38 0 -38 0 6 -56 c3 -31
17 -79 30 -105 l24 -49 -30 0 -30 0 6 -54 c9 -90 67 -176 119 -176 50 0 118
116 118 202 0 24 -4 28 -30 28 l-29 0 24 48 c14 27 27 74 31 105 l7 57 -37 0
-37 0 20 26 c24 30 51 114 51 156 l0 28 -120 0 -120 0 0 -35z m120 -55 c23 0
54 7 70 15 34 18 36 14 15 -46 -41 -115 -123 -119 -170 -7 -8 21 -15 44 -15
53 0 14 3 14 30 0 16 -8 47 -15 70 -15z m-18 -217 c30 -3 54 2 81 15 33 18 37
18 37 3 0 -28 -47 -118 -65 -124 -57 -23 -97 4 -123 82 -19 53 -16 68 8 46 10
-9 38 -19 62 -22z m108 -220 c-30 -94 -92 -129 -138 -80 -23 24 -52 87 -52
112 0 14 3 14 30 0 41 -21 112 -19 141 4 29 24 34 13 19 -36z"/>
<path d="M990 940 c0 -43 23 -122 45 -155 l24 -35 -36 0 -36 0 7 -52 c6 -44
22 -89 54 -150 2 -5 -11 -8 -28 -8 l-33 0 7 -52 c10 -75 45 -139 89 -163 36
-20 36 -20 63 1 42 31 64 65 70 109 l5 40 -20 -49 c-11 -27 -30 -59 -42 -72
-53 -57 -121 -6 -144 106 l-7 35 21 -19 c32 -29 117 -33 159 -7 41 26 46 71 8
71 l-25 0 24 43 c14 23 25 53 24 67 0 19 -5 13 -19 -24 -26 -65 -46 -86 -86
-86 -47 0 -82 42 -98 117 l-7 31 38 -19 c71 -38 173 -4 173 58 0 18 -6 23 -25
23 l-24 0 25 49 c14 27 24 57 22 68 -3 12 -9 4 -18 -25 -38 -121 -132 -123
-175 -3 -21 60 -19 64 15 46 71 -37 180 -6 180 51 l0 24 -115 0 c-107 0 -115
-1 -115 -20z"/>
</g>
</svg>
