<?xml version="1.0" standalone="no"?>
<!DOCTYPE svg PUBLIC "-//W3C//DTD SVG 20010904//EN"
 "http://www.w3.org/TR/2001/REC-SVG-20010904/DTD/svg10.dtd">
<svg version="1.0" xmlns="http://www.w3.org/2000/svg"
 width="152.000000pt" height="148.000000pt" viewBox="0 0 152.000000 148.000000"
 preserveAspectRatio="xMidYMid meet">
<metadata>
Created by potrace 1.16, written by Peter Selinger 2001-2019
</metadata>
<g transform="translate(0.000000,148.000000) scale(0.100000,-0.100000)"
fill="#000000" stroke="none">
<path d="M350 1165 c-10 -12 4 -30 86 -108 l98 -93 -80 -56 c-176 -125 -187
-150 -101 -233 28 -27 85 -67 125 -88 39 -21 72 -41 72 -45 0 -4 -39 -58 -85
-121 -47 -63 -83 -117 -79 -120 8 -8 118 112 195 213 67 88 104 156 114 207
12 67 -72 198 -244 382 -40 42 -76 77 -81 77 -4 0 -13 -7 -20 -15z m238 -272
c75 -96 79 -140 22 -249 -22 -42 -42 -79 -44 -82 -7 -7 -137 83 -178 123 -47
46 -55 70 -31 97 20 24 184 148 195 148 3 0 20 -17 36 -37z"/>
<path d="M973 1024 c-3 -8 0 -40 6 -71 8 -43 8 -59 0 -64 -8 -5 -10 -22 -4
-56 4 -26 7 -73 6 -104 -1 -30 3 -68 9 -83 7 -21 7 -32 -1 -42 -25 -31 20
-178 64 -209 72 -50 153 28 164 157 5 47 3 58 -9 58 -13 0 -13 7 -2 52 18 68
18 88 -2 88 -11 0 -14 5 -9 18 14 36 18 114 7 121 -8 5 -9 17 -2 41 6 19 10
52 10 72 l0 38 -115 0 c-95 0 -117 -3 -122 -16z m107 -82 c36 -3 57 0 76 13
32 21 40 14 28 -27 l-10 -33 -81 -3 -81 -3 -11 32 c-18 51 -15 66 9 44 11 -10
42 -20 70 -23z m7 -142 c24 0 57 7 73 15 34 18 38 9 20 -39 -9 -25 -13 -26
-89 -26 l-79 0 -11 31 c-18 53 -15 63 15 40 18 -14 41 -21 71 -21z m-1 -138
c46 -4 61 -1 85 17 32 24 33 22 18 -31 l-10 -38 -84 0 c-47 0 -85 3 -85 8 0 4
-4 24 -9 45 -9 38 -9 38 10 21 12 -10 42 -19 75 -22z m14 -152 c19 0 48 7 64
15 16 9 31 13 34 10 11 -11 -21 -90 -48 -117 -30 -30 -50 -34 -81 -18 -22 12
-53 70 -64 118 l-7 33 34 -21 c18 -11 49 -20 68 -20z"/>
<path d="M783 940 c-35 -21 -63 -66 -63 -102 0 -37 38 -88 77 -105 76 -31 153
22 153 106 0 51 -24 89 -67 107 -43 19 -62 18 -100 -6z"/>
</g>
</svg>
