<?xml version="1.0" standalone="no"?>
<!DOCTYPE svg PUBLIC "-//W3C//DTD SVG 20010904//EN"
 "http://www.w3.org/TR/2001/REC-SVG-20010904/DTD/svg10.dtd">
<svg version="1.0" xmlns="http://www.w3.org/2000/svg"
 width="152.000000pt" height="152.000000pt" viewBox="0 0 152.000000 152.000000"
 preserveAspectRatio="xMidYMid meet">
<metadata>
Created by potrace 1.16, written by Peter Selinger 2001-2019
</metadata>
<g transform="translate(0.000000,152.000000) scale(0.100000,-0.100000)"
fill="#000000" stroke="none">
<path d="M350 1205 c-10 -12 4 -30 86 -108 l97 -93 -79 -56 c-114 -80 -154
-119 -154 -154 0 -39 84 -118 178 -167 39 -21 72 -41 72 -44 0 -8 -96 -139
-143 -196 -66 -80 -31 -67 46 18 164 179 240 297 240 373 0 39 -28 103 -72
162 -61 84 -237 280 -251 280 -4 0 -13 -7 -20 -15z m258 -304 c54 -80 55 -115
7 -208 -20 -37 -41 -73 -48 -80 -22 -22 -207 118 -223 170 -5 17 3 30 42 65
60 55 156 122 169 118 6 -1 29 -30 53 -65z"/>
<path d="M713 1080 c7 -60 25 -109 55 -142 14 -17 13 -18 -21 -18 -35 0 -37
-1 -37 -35 0 -42 26 -124 48 -147 14 -17 13 -18 -18 -18 l-33 0 6 -56 c3 -31
14 -73 25 -95 l19 -39 -23 0 c-20 0 -24 -5 -24 -33 0 -55 30 -138 60 -169 32
-31 73 -37 107 -13 29 21 62 95 69 160 7 54 6 55 -19 55 l-25 0 19 39 c10 22
22 64 25 95 l7 56 -30 0 -30 0 24 48 c13 26 26 71 30 100 l6 52 -37 0 -37 0
22 31 c26 37 49 110 49 156 l0 33 -121 0 -122 0 6 -60z m117 -35 c44 0 63 5
80 20 l23 20 -7 -35 c-10 -52 -40 -103 -69 -120 -24 -13 -30 -13 -54 0 -31 17
-73 91 -73 129 0 24 0 24 21 5 16 -14 36 -19 79 -19z m-5 -215 c25 0 59 7 75
15 23 12 30 13 30 3 -1 -25 -28 -89 -46 -109 -22 -25 -85 -26 -107 -1 -19 21
-47 85 -47 108 0 15 2 15 25 0 13 -9 45 -16 70 -16z m5 -210 c14 0 42 9 63 19
45 23 47 14 16 -60 l-21 -49 -58 0 c-56 0 -58 1 -74 34 -9 19 -19 48 -22 65
l-6 30 38 -19 c21 -11 50 -20 64 -20z m-5 -190 c17 0 48 9 69 19 l37 19 -7
-31 c-11 -52 -40 -102 -69 -117 -23 -12 -30 -12 -52 0 -29 17 -59 68 -69 118
l-7 33 34 -20 c19 -12 48 -21 64 -21z"/>
<path d="M993 1123 c-9 -23 22 -139 48 -174 l20 -29 -37 0 -37 0 7 -52 c4 -29
17 -74 30 -100 l23 -48 -30 0 -30 0 7 -52 c18 -137 94 -211 164 -162 27 19 62
85 62 116 -1 15 -8 4 -23 -31 -12 -30 -34 -63 -49 -74 -23 -17 -31 -18 -56 -8
-31 13 -66 66 -77 118 l-6 31 37 -19 c50 -25 94 -24 135 4 42 28 54 77 19 77
-12 0 -20 3 -18 8 24 46 38 87 36 100 -3 10 -10 1 -18 -23 -24 -71 -38 -85
-85 -85 -49 0 -67 16 -90 79 -21 60 -19 64 15 46 71 -37 180 -6 180 51 0 20
-5 24 -32 24 -29 0 -30 1 -16 18 25 27 48 79 48 104 -1 16 -7 7 -20 -26 -33
-83 -72 -112 -121 -86 -22 12 -53 70 -64 120 l-7 35 22 -20 c17 -15 36 -20 79
-20 72 0 111 23 111 65 l0 30 -110 0 c-95 0 -112 -2 -117 -17z"/>
</g>
</svg>
