<?xml version="1.0" standalone="no"?>
<!DOCTYPE svg PUBLIC "-//W3C//DTD SVG 20010904//EN"
 "http://www.w3.org/TR/2001/REC-SVG-20010904/DTD/svg10.dtd">
<svg version="1.0" xmlns="http://www.w3.org/2000/svg"
 width="144.000000pt" height="151.000000pt" viewBox="0 0 144.000000 151.000000"
 preserveAspectRatio="xMidYMid meet">
<metadata>
Created by potrace 1.16, written by Peter Selinger 2001-2019
</metadata>
<g transform="translate(0.000000,151.000000) scale(0.100000,-0.100000)"
fill="#000000" stroke="none">
<path d="M326 1195 c3 -8 27 -26 52 -41 26 -15 61 -37 79 -50 l31 -24 -30 -32
c-41 -45 -65 -94 -78 -167 -20 -112 21 -197 114 -236 21 -9 41 -14 44 -11 7 7
8 6 -52 40 -85 49 -112 162 -64 267 24 52 73 119 86 119 11 0 121 -97 116
-102 -2 -3 2 -34 11 -69 19 -81 19 -153 1 -172 -8 -8 -20 -34 -26 -58 -29
-107 -54 -136 -263 -304 -67 -54 -44 -65 60 -29 214 73 379 193 444 320 13 27
25 51 26 53 1 2 57 -20 123 -48 132 -56 130 -55 130 -42 0 4 -54 33 -120 64
l-120 57 2 63 c1 51 -3 71 -21 100 -52 85 -194 181 -395 267 -121 52 -160 61
-150 35z m374 -178 c124 -85 166 -148 157 -236 -17 -163 -193 -336 -439 -431
-43 -17 -81 -30 -84 -30 -4 0 33 27 82 59 135 90 177 136 214 239 38 106 47
191 30 283 -13 69 -14 70 -101 154 l-88 85 92 -46 c51 -26 112 -60 137 -77z"/>
<path d="M1013 858 c-75 -34 -110 -55 -106 -64 3 -9 36 2 119 44 63 31 114 60
114 64 0 13 -9 9 -127 -44z"/>
</g>
</svg>
