<?xml version="1.0" standalone="no"?>
<!DOCTYPE svg PUBLIC "-//W3C//DTD SVG 20010904//EN"
 "http://www.w3.org/TR/2001/REC-SVG-20010904/DTD/svg10.dtd">
<svg version="1.0" xmlns="http://www.w3.org/2000/svg"
 width="98.000000pt" height="148.000000pt" viewBox="0 0 98.000000 148.000000"
 preserveAspectRatio="xMidYMid meet">
<metadata>
Created by potrace 1.16, written by Peter Selinger 2001-2019
</metadata>
<g transform="translate(0.000000,148.000000) scale(0.100000,-0.100000)"
fill="#000000" stroke="none">
<path d="M352 1164 c-8 -14 10 -36 86 -108 l95 -92 -69 -49 c-106 -75 -164
-133 -164 -163 0 -37 88 -118 178 -165 39 -21 72 -41 72 -45 0 -4 -38 -58 -85
-121 -46 -63 -82 -117 -79 -120 13 -13 202 209 259 304 31 52 35 67 35 127 0
83 -14 114 -100 222 -70 88 -199 226 -211 226 -4 0 -12 -7 -17 -16z m233 -265
c39 -47 65 -104 65 -143 0 -28 -63 -172 -84 -193 -7 -8 -114 64 -162 109 -62
57 -69 73 -49 104 15 23 182 154 197 154 3 0 18 -14 33 -31z"/>
<path d="M462 857 c-48 -27 -70 -89 -49 -139 20 -47 50 -70 100 -75 36 -4 48
-1 75 22 17 14 37 43 43 64 28 94 -81 176 -169 128z"/>
</g>
</svg>
