<?xml version="1.0" standalone="no"?>
<!DOCTYPE svg PUBLIC "-//W3C//DTD SVG 20010904//EN"
 "http://www.w3.org/TR/2001/REC-SVG-20010904/DTD/svg10.dtd">
<svg version="1.0" xmlns="http://www.w3.org/2000/svg"
 width="123.000000pt" height="148.000000pt" viewBox="0 0 123.000000 148.000000"
 preserveAspectRatio="xMidYMid meet">
<metadata>
Created by potrace 1.16, written by Peter Selinger 2001-2019
</metadata>
<g transform="translate(0.000000,148.000000) scale(0.100000,-0.100000)"
fill="#000000" stroke="none">
<path d="M590 1165 c-12 -14 -2 -27 78 -105 51 -50 92 -93 92 -97 0 -5 -30
-28 -66 -53 -36 -25 -71 -49 -78 -54 -9 -6 -47 12 -121 58 -96 59 -135 74
-135 49 0 -4 50 -37 110 -72 88 -51 108 -67 99 -77 -6 -8 -14 -12 -18 -10
-212 130 -236 143 -243 133 -10 -16 2 -26 121 -95 96 -57 104 -64 107 -95 2
-30 -1 -36 -34 -51 -62 -30 -202 -117 -202 -126 0 -25 29 -14 137 54 108 68
119 73 135 59 16 -15 12 -19 -55 -57 -156 -90 -166 -97 -160 -112 7 -20 9 -19
143 65 97 61 115 70 127 58 12 -12 0 -22 -81 -67 -121 -69 -138 -82 -127 -98
6 -10 37 5 129 63 l121 75 61 -33 60 -34 -90 -121 c-49 -67 -86 -122 -81 -122
5 0 40 33 79 74 140 148 232 292 232 365 0 68 -111 230 -257 374 -62 61 -71
66 -83 52z m237 -277 c42 -59 63 -103 63 -130 0 -24 -56 -147 -82 -181 -12
-17 -16 -16 -62 13 -34 22 -46 35 -42 46 5 12 2 15 -10 10 -23 -9 -54 11 -47
31 5 12 2 15 -9 10 -18 -6 -42 17 -52 51 -5 14 -3 22 4 22 6 0 8 5 4 12 -10
16 23 37 49 30 19 -5 20 -3 9 10 -11 14 -3 23 60 67 39 28 75 51 78 51 4 0 20
-19 37 -42z"/>
</g>
</svg>
