<?xml version="1.0" standalone="no"?>
<!DOCTYPE svg PUBLIC "-//W3C//DTD SVG 20010904//EN"
 "http://www.w3.org/TR/2001/REC-SVG-20010904/DTD/svg10.dtd">
<svg version="1.0" xmlns="http://www.w3.org/2000/svg"
 width="118.000000pt" height="148.000000pt" viewBox="0 0 118.000000 148.000000"
 preserveAspectRatio="xMidYMid meet">
<metadata>
Created by potrace 1.16, written by Peter Selinger 2001-2019
</metadata>
<g transform="translate(0.000000,148.000000) scale(0.100000,-0.100000)"
fill="#000000" stroke="none">
<path d="M539 1164 c-11 -14 -8 -21 23 -49 l36 -33 -46 -39 c-26 -21 -59 -46
-74 -56 -15 -9 -61 -56 -103 -103 -64 -74 -75 -92 -75 -123 0 -41 38 -108 88
-155 17 -16 29 -32 27 -36 -3 -4 3 -7 12 -6 9 0 22 -8 27 -20 6 -11 16 -19 22
-17 5 2 20 -6 32 -17 11 -11 24 -20 26 -20 5 0 101 -56 115 -66 2 -2 -15 -29
-39 -60 -102 -135 21 -23 145 132 153 191 160 261 41 422 -52 69 -225 262
-236 262 -4 0 -14 -7 -21 -16z m137 -156 c17 -18 37 -42 45 -52 12 -18 12 -19
-2 -14 -21 8 -39 -9 -32 -31 3 -9 1 -12 -4 -6 -4 6 -21 16 -37 23 l-29 13 24
27 24 27 -31 -27 c-16 -16 -35 -28 -42 -28 -7 0 -12 -6 -12 -13 0 -7 -49 -61
-109 -121 l-110 -109 -12 26 c-6 14 -9 37 -5 50 6 26 173 190 186 182 4 -2 26
16 50 40 24 25 49 45 55 45 6 0 25 -15 41 -32z m-30 -100 c6 -9 -234 -258
-248 -258 -4 0 -12 10 -19 21 -10 20 0 32 106 139 87 88 122 116 136 113 11
-3 22 -10 25 -15z m138 -27 c23 -32 26 -43 17 -60 -11 -20 -49 -51 -64 -51
-11 0 13 43 29 53 8 4 14 13 14 19 0 7 -5 6 -15 -2 -13 -11 -15 -8 -15 22 0
19 -5 39 -12 46 -9 9 -9 12 4 12 8 0 27 -18 42 -39z m-94 -15 c0 -6 -20 -31
-45 -56 -25 -25 -69 -69 -98 -99 -28 -30 -62 -64 -74 -77 -13 -13 -23 -27 -23
-31 0 -4 33 26 74 66 66 66 77 73 102 67 27 -7 27 -7 -51 -86 -44 -44 -77 -82
-74 -85 3 -3 40 31 83 76 63 66 80 78 92 69 8 -7 14 -18 14 -24 0 -6 -35 -46
-78 -88 l-78 -77 -65 59 -64 58 129 131 c100 100 133 128 143 119 7 -6 13 -16
13 -22z m-10 -61 c-7 -9 -23 -21 -34 -27 -16 -8 -14 -3 8 21 29 31 51 36 26 6z
m156 -71 c-4 -18 -9 -34 -11 -34 -3 0 -16 10 -30 22 -19 16 -22 24 -14 35 6 7
8 13 3 13 -4 0 3 12 17 26 l24 25 8 -26 c5 -14 6 -42 3 -61z m-139 51 c0 -22
-32 -46 -50 -39 -14 5 -11 10 16 29 17 13 32 24 33 24 0 1 1 -6 1 -14z m78
-25 c-3 -5 -14 -10 -23 -10 -15 0 -15 2 -2 10 20 13 33 13 25 0z m-85 -26 c0
-8 -5 -12 -10 -9 -6 4 -8 11 -5 16 9 14 15 11 15 -7z m92 -23 c30 -27 31 -29
18 -60 -12 -31 -55 -69 -65 -59 -3 3 7 22 21 44 15 21 19 32 10 25 -14 -12
-16 -9 -16 27 0 23 -5 43 -12 45 -10 4 -10 6 -1 6 7 1 27 -12 45 -28z m-116
-98 c-42 -36 -54 -27 -16 12 21 22 36 31 39 24 2 -7 -8 -23 -23 -36z m34 -9
c0 -3 -23 -31 -52 -62 -49 -53 -50 -54 -8 -16 30 28 57 43 83 47 42 7 43 11
-15 -75 -21 -32 -42 -58 -46 -58 -4 0 -31 16 -61 36 l-53 36 23 24 c33 33 129
84 129 68z"/>
<path d="M435 858 l-90 -93 93 90 c85 83 97 95 89 95 -1 0 -43 -42 -92 -92z"/>
</g>
</svg>
