<?xml version="1.0" standalone="no"?>
<!DOCTYPE svg PUBLIC "-//W3C//DTD SVG 20010904//EN"
 "http://www.w3.org/TR/2001/REC-SVG-20010904/DTD/svg10.dtd">
<svg version="1.0" xmlns="http://www.w3.org/2000/svg"
 width="156.000000pt" height="148.000000pt" viewBox="0 0 156.000000 148.000000"
 preserveAspectRatio="xMidYMid meet">
<metadata>
Created by potrace 1.16, written by Peter Selinger 2001-2019
</metadata>
<g transform="translate(0.000000,148.000000) scale(0.100000,-0.100000)"
fill="#000000" stroke="none">
<path d="M540 1155 c-11 -13 -7 -21 25 -48 l37 -32 -73 -62 c-154 -128 -229
-212 -229 -257 0 -72 90 -172 248 -273 56 -36 102 -68 102 -71 0 -2 -16 -26
-35 -52 -19 -26 -35 -51 -35 -56 0 -27 212 215 256 293 15 26 106 129 203 228
l176 180 -168 -165 -168 -165 7 45 c6 41 18 57 153 195 l146 150 -151 -148
-150 -148 -13 27 c-12 27 -9 31 131 173 l143 146 -146 -144 c-136 -133 -148
-142 -158 -123 -6 11 -11 24 -11 28 0 3 59 64 130 134 72 69 130 131 130 136
0 5 -61 -52 -135 -126 -74 -74 -136 -132 -138 -130 -2 3 -30 37 -62 75 -64 78
-186 205 -196 205 -4 0 -12 -7 -19 -15z m180 -223 c-11 -2 -20 -9 -20 -17 0
-11 -6 -11 -30 2 -17 8 -45 14 -63 12 -54 -3 -89 1 -85 10 2 5 28 29 58 54
l55 45 53 -51 c45 -45 50 -52 32 -55z m-226 -28 c12 -5 16 -20 16 -63 0 -52
-3 -59 -25 -69 -24 -11 -25 -11 -14 10 7 13 9 43 6 75 -3 29 -4 53 -2 53 2 0
10 -3 19 -6z m94 -6 c7 -7 12 -33 12 -60 0 -37 -4 -50 -19 -58 -29 -15 -30
-13 -21 26 5 19 4 50 -1 67 -5 18 -9 33 -9 34 0 8 28 1 38 -9z m90 -4 c28 -19
31 -83 5 -106 -36 -30 -38 -27 -38 48 0 41 2 74 5 74 3 0 16 -7 28 -16z m98
-5 c13 -15 16 -24 8 -36 -19 -31 -32 -25 -36 17 -4 45 1 49 28 19z m-352 -159
c1 -60 -1 -110 -2 -110 -16 0 -82 108 -82 135 0 17 70 98 78 90 3 -2 5 -54 6
-115z m386 102 c0 -17 -28 -49 -59 -67 -20 -11 -4 34 22 63 25 27 37 28 37 4z
m15 -32 c-3 -5 -1 -10 4 -10 14 0 14 -67 1 -75 -6 -4 -7 -12 -4 -18 4 -7 -6 0
-22 15 l-28 27 24 26 c13 14 20 25 16 25 -4 0 -4 5 -1 10 3 6 8 10 11 10 3 0
2 -4 -1 -10z m-125 -50 c0 -28 -1 -29 -26 -18 l-25 12 23 18 c29 22 28 23 28
-12z m85 10 c-10 -11 -23 -20 -29 -20 -6 0 0 9 14 20 32 25 38 25 15 0z m-192
-11 c-6 -6 -17 -8 -24 -3 -9 5 -8 9 7 14 23 9 31 3 17 -11z m-83 1 c0 -5 -7
-10 -16 -10 -8 0 -12 5 -9 10 3 6 10 10 16 10 5 0 9 -4 9 -10z m-16 -26 c12
-5 16 -21 16 -65 0 -47 -4 -60 -19 -69 -28 -15 -33 -13 -21 9 5 11 10 36 10
56 0 20 -5 45 -10 56 -11 20 -4 24 24 13z m94 -6 c16 -16 16 -100 0 -116 -24
-24 -36 -14 -28 24 5 19 4 50 -1 67 -5 18 -9 33 -9 34 0 8 28 1 38 -9z m90 -4
c28 -19 31 -83 5 -106 -36 -30 -38 -27 -38 48 0 41 2 74 5 74 3 0 16 -7 28
-16z m122 -28 c13 -23 13 -29 0 -52 -8 -15 -26 -34 -39 -43 -23 -15 -23 -15
-16 9 4 14 19 38 34 55 15 18 18 23 5 12 -29 -24 -31 -22 -36 22 -3 35 -1 38
17 31 11 -4 27 -19 35 -34z m-68 -121 c35 8 36 12 -24 -78 -45 -67 -38 -68
-156 21 -54 40 -70 58 -62 66 8 8 13 7 19 -2 6 -11 16 -10 49 1 36 12 42 13
42 1 0 -19 18 -18 60 4 34 16 35 16 38 -1 3 -15 9 -17 34 -12z"/>
<path d="M859 1103 c-39 -38 -75 -77 -81 -88 -6 -11 29 18 76 65 47 46 86 86
86 87 0 10 -18 -5 -81 -64z"/>
<path d="M900 1055 c-62 -63 -112 -116 -109 -119 2 -2 57 49 123 115 65 65
114 119 110 119 -5 0 -61 -52 -124 -115z"/>
<path d="M1011 720 c-123 -122 -222 -223 -219 -225 2 -2 105 97 228 220 124
124 223 225 220 225 -3 0 -106 -99 -229 -220z"/>
<path d="M1030 655 c-112 -112 -202 -206 -199 -209 3 -3 99 89 214 204 116
116 205 210 200 210 -6 0 -102 -92 -215 -205z"/>
<path d="M1055 588 c-105 -106 -148 -152 -97 -103 192 184 303 295 295 295 -5
0 -94 -86 -198 -192z"/>
<path d="M1085 528 c-88 -89 -157 -160 -153 -158 25 18 325 320 317 320 -2 0
-76 -73 -164 -162z"/>
<path d="M1115 468 l-110 -113 113 110 c104 102 117 115 109 115 -1 0 -52 -51
-112 -112z"/>
</g>
</svg>
