<?xml version="1.0" standalone="no"?>
<!DOCTYPE svg PUBLIC "-//W3C//DTD SVG 20010904//EN"
 "http://www.w3.org/TR/2001/REC-SVG-20010904/DTD/svg10.dtd">
<svg version="1.0" xmlns="http://www.w3.org/2000/svg"
 width="118.000000pt" height="148.000000pt" viewBox="0 0 118.000000 148.000000"
 preserveAspectRatio="xMidYMid meet">
<metadata>
Created by potrace 1.16, written by Peter Selinger 2001-2019
</metadata>
<g transform="translate(0.000000,148.000000) scale(0.100000,-0.100000)"
fill="#000000" stroke="none">
<path d="M540 1165 c-11 -13 -8 -21 21 -51 l34 -35 -45 -36 c-25 -20 -91 -82
-147 -138 -96 -96 -103 -105 -103 -142 0 -48 41 -114 108 -174 43 -38 211
-154 236 -162 6 -2 -9 -29 -32 -61 -101 -133 15 -30 139 125 65 80 119 172
126 213 9 56 -4 98 -55 174 -46 71 -247 302 -262 302 -4 0 -13 -7 -20 -15z
m142 -162 c46 -45 49 -59 8 -38 -16 8 -50 18 -76 22 l-46 6 29 23 c15 13 32
23 38 24 5 0 26 -17 47 -37z m-140 -286 c2 -108 1 -197 -2 -197 -16 0 -154
138 -175 174 -41 69 -36 80 72 185 95 91 98 93 100 65 2 -16 4 -118 5 -227z
m164 222 c48 -29 61 -65 36 -98 -23 -31 -65 -57 -109 -66 l-31 -6 19 37 c24
48 24 80 -1 128 l-19 38 35 -5 c19 -3 51 -16 70 -28z m109 -109 c33 -64 32
-82 -9 -167 -35 -73 -131 -223 -143 -223 -3 0 -29 14 -56 32 l-50 32 34 8 c85
20 112 31 144 59 68 60 31 138 -79 169 l-47 13 51 17 c61 21 110 64 110 97 0
34 16 20 45 -37z m-133 -110 c19 0 78 -64 78 -84 0 -30 -46 -72 -99 -91 -60
-21 -63 -20 -41 18 25 41 25 92 1 138 l-20 37 37 -9 c20 -5 40 -9 44 -9z"/>
</g>
</svg>
