<?xml version="1.0" standalone="no"?>
<!DOCTYPE svg PUBLIC "-//W3C//DTD SVG 20010904//EN"
 "http://www.w3.org/TR/2001/REC-SVG-20010904/DTD/svg10.dtd">
<svg version="1.0" xmlns="http://www.w3.org/2000/svg"
 width="135.000000pt" height="148.000000pt" viewBox="0 0 135.000000 148.000000"
 preserveAspectRatio="xMidYMid meet">
<metadata>
Created by potrace 1.16, written by Peter Selinger 2001-2019
</metadata>
<g transform="translate(0.000000,148.000000) scale(0.100000,-0.100000)"
fill="#000000" stroke="none">
<path d="M539 1164 c-11 -14 -8 -21 23 -50 l37 -33 -68 -55 c-38 -31 -105 -94
-150 -141 -73 -76 -81 -88 -81 -123 0 -47 42 -114 108 -173 45 -39 211 -154
235 -162 7 -2 -6 -28 -31 -61 -24 -32 -41 -60 -38 -64 16 -16 238 255 282 344
46 94 33 148 -67 281 -59 77 -218 253 -229 253 -4 0 -14 -7 -21 -16z m165
-186 c134 -149 155 -205 113 -298 -28 -64 -143 -240 -155 -240 -11 0 -148 96
-156 109 -3 5 14 16 39 24 39 14 45 14 45 1 0 -30 113 -7 155 32 51 47 24 106
-62 135 l-36 12 37 12 c103 36 114 114 23 156 -46 20 -123 25 -129 8 -3 -8
-14 -7 -37 3 l-33 13 58 47 c33 26 64 47 71 48 6 0 37 -28 67 -62z m-131 -77
c6 -6 11 -31 12 -57 1 -44 0 -47 -31 -60 -49 -21 -55 -18 -39 20 15 35 11 91
-6 102 -5 3 -9 9 -9 14 0 10 59 -5 73 -19z m139 2 c15 -7 32 -22 38 -34 15
-27 -10 -66 -55 -85 -48 -20 -58 -18 -44 7 16 31 14 85 -5 115 -17 24 -17 25
11 18 15 -4 40 -13 55 -21z m-262 -165 l0 -141 -26 24 c-39 35 -84 109 -84
136 0 23 83 123 101 123 5 0 9 -64 9 -142z m140 17 c0 -28 -6 -30 -47 -14
l-28 11 30 13 c42 19 45 18 45 -10z m-17 -40 c13 -5 17 -19 17 -56 0 -44 -3
-50 -30 -64 -16 -8 -36 -15 -44 -15 -13 0 -13 3 0 28 18 35 18 60 -1 96 -8 15
-15 30 -15 31 0 4 45 -9 73 -20z m144 -3 c56 -31 54 -76 -6 -110 -21 -12 -46
-22 -54 -22 -14 0 -14 3 -1 28 18 35 18 60 -1 96 -8 15 -15 30 -15 31 0 5 55
-12 77 -23z"/>
<path d="M927 939 c-9 -5 -24 -24 -33 -41 -25 -49 -1 -107 56 -131 23 -9 23
-11 5 -15 -56 -12 -87 -79 -61 -131 20 -37 44 -51 88 -51 56 1 68 18 68 94 0
66 -1 67 -32 80 l-32 14 32 16 c31 16 32 19 32 81 0 55 -3 66 -22 79 -25 18
-74 20 -101 5z"/>
</g>
</svg>
