<?xml version="1.0" standalone="no"?>
<!DOCTYPE svg PUBLIC "-//W3C//DTD SVG 20010904//EN"
 "http://www.w3.org/TR/2001/REC-SVG-20010904/DTD/svg10.dtd">
<svg version="1.0" xmlns="http://www.w3.org/2000/svg"
 width="98.000000pt" height="148.000000pt" viewBox="0 0 98.000000 148.000000"
 preserveAspectRatio="xMidYMid meet">
<metadata>
Created by potrace 1.16, written by Peter Selinger 2001-2019
</metadata>
<g transform="translate(0.000000,148.000000) scale(0.100000,-0.100000)"
fill="#000000" stroke="none">
<path d="M352 1164 c-8 -14 10 -36 86 -108 l95 -92 -69 -49 c-106 -75 -164
-133 -164 -163 0 -37 88 -118 178 -165 39 -21 72 -41 72 -45 0 -4 -38 -58 -85
-121 -46 -63 -82 -117 -79 -120 13 -13 202 209 259 304 31 52 35 67 35 127 0
83 -14 114 -100 222 -70 88 -199 226 -211 226 -4 0 -12 -7 -17 -16z m233 -265
c39 -47 65 -104 65 -143 0 -28 -62 -172 -84 -193 -2 -2 -28 11 -57 29 l-53 32
61 18 c160 47 165 168 9 213 -32 9 -55 19 -52 22 11 12 71 52 78 53 3 0 18
-14 33 -31z m-13 -75 c63 -33 73 -95 20 -132 -29 -21 -100 -47 -108 -40 -2 3
3 19 12 37 20 41 14 113 -12 143 l-19 21 40 -7 c21 -4 52 -14 67 -22z m-160
-102 l3 -63 -37 40 c-21 22 -38 45 -38 50 0 6 15 27 33 47 37 43 34 48 39 -74z"/>
</g>
</svg>
