<?xml version="1.0" standalone="no"?>
<!DOCTYPE svg PUBLIC "-//W3C//DTD SVG 20010904//EN"
 "http://www.w3.org/TR/2001/REC-SVG-20010904/DTD/svg10.dtd">
<svg version="1.0" xmlns="http://www.w3.org/2000/svg"
 width="118.000000pt" height="148.000000pt" viewBox="0 0 118.000000 148.000000"
 preserveAspectRatio="xMidYMid meet">
<metadata>
Created by potrace 1.16, written by Peter Selinger 2001-2019
</metadata>
<g transform="translate(0.000000,148.000000) scale(0.100000,-0.100000)"
fill="#000000" stroke="none">
<path d="M540 1165 c-11 -13 -8 -21 18 -48 18 -18 32 -35 32 -38 0 -2 -37 -36
-82 -74 -46 -38 -111 -100 -146 -138 -53 -59 -62 -74 -62 -106 0 -46 43 -114
108 -172 45 -39 211 -154 235 -162 7 -2 -6 -28 -31 -61 -104 -137 18 -26 143
130 68 86 115 164 122 207 9 57 -4 98 -55 175 -46 71 -247 302 -262 302 -4 0
-13 -7 -20 -15z m150 -172 c38 -44 40 -48 21 -51 -12 -2 -21 -10 -21 -17 0
-12 -5 -11 -27 1 -33 16 -73 19 -73 4 0 -7 -7 -7 -21 1 -12 6 -32 9 -46 6 -21
-4 -23 -2 -11 8 34 34 114 94 125 95 6 0 30 -21 53 -47z m-189 -104 c14 -51
10 -98 -10 -109 -29 -15 -33 -12 -20 12 7 13 9 43 6 75 -4 39 -2 53 6 50 6 -2
14 -14 18 -28z m73 25 c12 -5 16 -21 16 -65 0 -47 -4 -60 -19 -69 -29 -15 -33
-12 -20 11 6 12 9 45 7 75 -3 30 -4 54 -2 54 1 0 9 -3 18 -6z m91 -6 c17 -8
25 -19 26 -37 0 -14 2 -34 4 -43 2 -10 -8 -27 -22 -38 -32 -25 -47 -26 -33 -1
5 11 10 36 10 56 0 20 -5 45 -10 56 -12 22 -10 23 25 7z m119 -27 c30 -43 27
-66 -16 -95 -30 -21 -41 -20 -28 3 5 11 10 36 10 56 0 20 -5 45 -10 56 -20 37
16 21 44 -20z m-364 -137 c0 -81 -3 -113 -11 -108 -20 12 -69 98 -69 121 0 19
62 103 76 103 2 0 4 -52 4 -116z m416 -10 c-4 -18 -9 -34 -11 -34 -2 0 -16 11
-31 25 -15 14 -34 25 -43 25 -10 0 -4 7 14 18 17 11 37 27 45 36 13 17 15 17
23 -8 5 -15 6 -43 3 -62z m-143 17 c-4 -17 -8 -18 -30 -8 l-24 11 23 12 c28
15 38 10 31 -15z m-183 11 c0 -15 -11 -21 -27 -15 -12 5 -12 7 -1 14 17 11 28
11 28 1z m80 -7 c0 -9 -6 -12 -15 -9 -8 4 -12 10 -9 15 8 14 24 10 24 -6z
m-101 -24 c9 -6 16 -31 19 -62 3 -42 0 -56 -14 -66 -26 -19 -36 -16 -24 6 13
25 13 72 0 105 -10 27 -5 32 19 17z m85 3 c24 -9 23 -120 -1 -133 -16 -8 -18
-2 -18 65 0 41 1 74 2 74 1 0 8 -3 17 -6z m95 -11 c31 -26 32 -90 2 -115 -30
-24 -44 -23 -31 1 13 25 13 72 0 105 -11 30 -1 33 29 9z m94 6 c40 -18 52 -50
33 -87 -14 -28 -43 -52 -61 -52 -3 0 -1 9 5 19 5 11 10 36 10 56 0 20 -5 45
-10 56 -12 22 -10 23 23 8z m-65 -141 c-2 -9 8 -12 29 -12 37 2 38 6 -19 -78
-21 -32 -42 -58 -47 -58 -4 0 -39 22 -77 50 -110 79 -110 78 -96 92 10 10 15
10 22 -2 8 -12 14 -13 42 -2 21 8 34 9 36 2 5 -14 43 -12 72 4 32 18 41 19 38
4z"/>
</g>
</svg>
