<?xml version="1.0" standalone="no"?>
<!DOCTYPE svg PUBLIC "-//W3C//DTD SVG 20010904//EN"
 "http://www.w3.org/TR/2001/REC-SVG-20010904/DTD/svg10.dtd">
<svg version="1.0" xmlns="http://www.w3.org/2000/svg"
 width="118.000000pt" height="148.000000pt" viewBox="0 0 118.000000 148.000000"
 preserveAspectRatio="xMidYMid meet">
<metadata>
Created by potrace 1.16, written by Peter Selinger 2001-2019
</metadata>
<g transform="translate(0.000000,148.000000) scale(0.100000,-0.100000)"
fill="#000000" stroke="none">
<path d="M539 1164 c-11 -14 -8 -21 24 -50 l37 -34 -35 0 c-30 0 -35 -3 -35
-24 0 -18 -32 -56 -115 -138 -108 -108 -115 -117 -115 -154 0 -68 77 -164 193
-242 36 -24 37 -26 37 -88 0 -70 7 -76 64 -54 33 12 33 5 0 -37 -36 -47 -20
-56 19 -11 18 20 53 45 79 56 49 21 68 45 68 86 0 14 15 47 34 73 112 157 112
221 0 374 -19 26 -34 58 -34 71 0 30 -41 73 -77 83 -14 3 -46 28 -70 56 -49
54 -54 56 -74 33z m190 -138 c27 -33 4 -30 -24 3 -23 26 -25 32 -9 23 11 -6
26 -18 33 -26z m-131 -97 c-22 -14 -29 -10 -18 10 5 11 10 30 10 44 0 43 15
40 18 -4 2 -27 -1 -45 -10 -50z m122 26 c0 -9 -40 -35 -54 -35 -2 0 2 18 7 40
10 37 12 39 29 23 10 -9 18 -21 18 -28z m-192 -316 l-3 -112 -75 71 -75 70 42
-5 c37 -5 46 -2 73 25 41 42 42 92 1 133 -18 18 -40 29 -58 29 -27 1 -26 3 32
55 l60 55 3 -104 c1 -58 1 -155 0 -217z m288 189 c13 -26 24 -58 24 -72 0 -26
-84 -198 -105 -216 -9 -7 -20 -7 -39 1 l-25 12 32 16 c69 35 74 107 9 141
l-32 18 34 20 c63 37 58 107 -8 139 l-35 16 32 18 32 18 28 -32 c16 -18 39
-53 53 -79z m-201 72 c8 -13 -5 -13 -25 0 -13 8 -13 10 2 10 9 0 20 -4 23 -10z
m-16 -19 c8 -5 16 -32 18 -62 3 -43 1 -56 -13 -66 -26 -19 -36 -16 -24 6 5 11
10 36 10 56 0 20 -5 45 -10 56 -11 20 -4 24 19 10z m137 -36 c20 -30 4 -69
-35 -90 -40 -20 -42 -20 -29 15 10 30 8 69 -7 102 -6 16 -4 17 25 7 17 -6 38
-21 46 -34z m-116 -115 c0 -5 -8 -10 -17 -10 -15 0 -16 2 -3 10 19 12 20 12
20 0z m-2 -85 c4 -59 -4 -74 -37 -75 -12 0 -12 3 -3 12 15 15 16 92 2 118 -9
17 -8 19 12 11 18 -7 23 -17 26 -66z m121 18 c14 -31 1 -57 -39 -78 -38 -20
-43 -19 -29 6 11 22 8 80 -6 112 -7 17 -6 17 28 1 19 -9 40 -28 46 -41z m-124
-113 c-3 -5 -12 -7 -20 -3 -21 7 -19 13 6 13 11 0 18 -4 14 -10z m-1 -53 c2
-35 -12 -30 -29 10 -13 30 -13 31 7 24 14 -5 22 -17 22 -34z m89 -8 l-17 -28
-13 37 c-7 20 -13 38 -13 39 0 1 13 -3 30 -8 30 -11 30 -11 13 -40z m38 -41
c-4 -13 -23 -32 -42 -43 l-34 -20 34 43 c38 46 55 54 42 20z m-124 -14 c4 -11
-1 -22 -12 -30 -29 -21 -34 -17 -22 16 13 33 24 38 34 14z"/>
</g>
</svg>
