<?xml version="1.0" standalone="no"?>
<!DOCTYPE svg PUBLIC "-//W3C//DTD SVG 20010904//EN"
 "http://www.w3.org/TR/2001/REC-SVG-20010904/DTD/svg10.dtd">
<svg version="1.0" xmlns="http://www.w3.org/2000/svg"
 width="121.000000pt" height="148.000000pt" viewBox="0 0 121.000000 148.000000"
 preserveAspectRatio="xMidYMid meet">
<metadata>
Created by potrace 1.16, written by Peter Selinger 2001-2019
</metadata>
<g transform="translate(0.000000,148.000000) scale(0.100000,-0.100000)"
fill="#000000" stroke="none">
<path d="M569 1164 c-11 -14 0 -28 85 -107 l98 -92 -76 -53 c-75 -52 -78 -54
-127 -47 -28 4 -95 4 -150 0 -80 -6 -99 -10 -99 -23 0 -13 17 -14 136 -9 134
6 136 6 119 -13 -15 -17 -34 -20 -134 -22 -103 -3 -116 -5 -119 -21 -4 -18 3
-18 98 -12 82 6 104 5 111 -6 15 -24 10 -34 -18 -35 -172 -2 -193 -4 -193 -20
0 -14 15 -16 120 -13 109 4 121 2 139 -16 l21 -20 -78 3 c-112 5 -202 -6 -202
-25 0 -13 20 -14 158 -8 l157 7 78 -44 77 -45 -56 -79 c-32 -43 -73 -98 -92
-122 -61 -74 -17 -45 68 46 141 150 220 274 220 347 0 81 -101 225 -291 418
-32 32 -33 32 -50 11z m233 -266 c36 -47 68 -113 68 -140 0 -24 -56 -147 -82
-181 -12 -17 -18 -14 -88 33 -41 29 -84 60 -95 71 -19 19 -19 19 3 19 34 0 26
18 -10 22 -25 2 -34 8 -36 26 -3 18 2 22 22 23 38 2 44 3 52 12 4 4 -5 7 -20
7 -17 0 -25 4 -20 11 8 13 165 129 175 129 3 0 18 -15 31 -32z"/>
</g>
</svg>
