<?xml version="1.0" standalone="no"?>
<!DOCTYPE svg PUBLIC "-//W3C//DTD SVG 20010904//EN"
 "http://www.w3.org/TR/2001/REC-SVG-20010904/DTD/svg10.dtd">
<svg version="1.0" xmlns="http://www.w3.org/2000/svg"
 width="122.000000pt" height="148.000000pt" viewBox="0 0 122.000000 148.000000"
 preserveAspectRatio="xMidYMid meet">
<metadata>
Created by potrace 1.16, written by Peter Selinger 2001-2019
</metadata>
<g transform="translate(0.000000,148.000000) scale(0.100000,-0.100000)"
fill="#000000" stroke="none">
<path d="M581 1166 c-13 -16 -5 -26 75 -106 49 -49 90 -92 91 -97 1 -4 -27
-28 -64 -53 -36 -24 -90 -66 -118 -92 l-53 -48 -106 0 c-88 0 -106 -3 -106
-15 0 -12 19 -15 113 -15 l112 0 17 -30 c19 -34 79 -79 172 -130 l64 -36 -69
-94 c-38 -52 -78 -107 -90 -122 -41 -55 1 -26 72 50 159 169 235 298 226 380
-7 61 -90 181 -220 317 -93 98 -103 106 -116 91z m248 -297 c59 -88 61 -115
18 -202 -60 -120 -51 -117 -139 -58 -73 49 -138 111 -138 131 0 6 14 10 30 10
17 0 30 5 30 10 0 6 -15 10 -32 10 l-33 1 35 30 c44 39 171 129 181 129 4 0
26 -27 48 -61z"/>
</g>
</svg>
