<?xml version="1.0" standalone="no"?>
<!DOCTYPE svg PUBLIC "-//W3C//DTD SVG 20010904//EN"
 "http://www.w3.org/TR/2001/REC-SVG-20010904/DTD/svg10.dtd">
<svg version="1.0" xmlns="http://www.w3.org/2000/svg"
 width="122.000000pt" height="148.000000pt" viewBox="0 0 122.000000 148.000000"
 preserveAspectRatio="xMidYMid meet">
<metadata>
Created by potrace 1.16, written by Peter Selinger 2001-2019
</metadata>
<g transform="translate(0.000000,148.000000) scale(0.100000,-0.100000)"
fill="#000000" stroke="none">
<path d="M581 1166 c-13 -16 -5 -26 75 -106 49 -49 90 -92 91 -97 1 -4 -26
-27 -60 -50 l-63 -42 -85 6 c-119 8 -239 -4 -239 -24 0 -14 18 -15 148 -9
l147 7 -40 -40 -39 -41 -108 0 c-89 0 -108 -3 -108 -15 0 -12 19 -15 114 -15
105 0 115 -2 121 -19 3 -11 22 -34 41 -50 l35 -31 -156 0 c-146 0 -155 -1
-155 -19 0 -16 6 -19 38 -15 20 2 97 5 170 8 l133 5 69 -38 68 -37 -69 -94
c-38 -52 -78 -107 -90 -122 -40 -54 -1 -27 70 47 156 165 237 301 228 383 -7
61 -90 181 -220 317 -93 98 -103 106 -116 91z m248 -297 c59 -88 61 -115 18
-202 -60 -120 -51 -117 -139 -58 -73 49 -138 111 -138 131 0 6 14 10 30 10 17
0 30 5 30 10 0 6 -15 10 -32 10 l-33 1 35 30 c44 39 171 129 181 129 4 0 26
-27 48 -61z"/>
</g>
</svg>
