<?xml version="1.0" standalone="no"?>
<!DOCTYPE svg PUBLIC "-//W3C//DTD SVG 20010904//EN"
 "http://www.w3.org/TR/2001/REC-SVG-20010904/DTD/svg10.dtd">
<svg version="1.0" xmlns="http://www.w3.org/2000/svg"
 width="140.000000pt" height="148.000000pt" viewBox="0 0 140.000000 148.000000"
 preserveAspectRatio="xMidYMid meet">
<metadata>
Created by potrace 1.16, written by Peter Selinger 2001-2019
</metadata>
<g transform="translate(0.000000,148.000000) scale(0.100000,-0.100000)"
fill="#000000" stroke="none">
<path d="M539 1164 c-12 -14 -9 -21 25 -49 l38 -32 -79 -65 c-108 -91 -210
-199 -219 -232 -19 -79 68 -185 243 -296 56 -36 103 -68 103 -72 0 -3 -18 -29
-41 -58 -22 -28 -38 -55 -34 -58 8 -8 115 105 185 197 27 35 64 71 82 80 50
24 60 55 48 142 -7 52 -7 82 1 106 20 62 -22 123 -86 123 -24 0 -39 10 -70 47
-60 72 -166 183 -175 183 -4 0 -14 -7 -21 -16z m153 -171 c51 -51 57 -63 33
-83 -8 -7 -15 -22 -15 -33 0 -21 0 -21 -16 1 -22 32 -87 62 -134 62 l-40 0 0
-191 0 -192 44 5 c57 7 117 38 133 69 9 16 13 19 13 8 0 -9 12 -28 26 -42 l26
-26 -46 -66 c-26 -36 -51 -65 -56 -65 -18 0 -209 151 -250 198 -42 46 -70 97
-70 126 0 23 86 111 191 196 55 44 103 80 106 80 4 0 29 -21 55 -47z m-35 -98
c32 -21 38 -41 23 -69 -12 -23 -68 -56 -95 -56 -12 0 -12 4 1 28 18 35 18 60
-1 96 -8 15 -15 30 -15 31 0 7 64 -15 87 -30z m105 -121 l32 -16 -33 -14 c-20
-8 -37 -25 -44 -43 l-10 -28 -24 28 c-14 16 -43 34 -66 40 l-42 12 34 9 c46
13 79 36 87 61 6 20 7 20 21 -6 7 -15 28 -34 45 -43z m78 -14 c0 -5 -7 -10
-16 -10 -8 0 -12 5 -9 10 3 6 10 10 16 10 5 0 9 -4 9 -10z m-193 -48 c57 -31
54 -81 -7 -112 -21 -11 -46 -20 -55 -20 -15 0 -15 2 -1 22 20 28 20 71 1 108
l-15 29 29 -9 c15 -4 37 -13 48 -18z"/>
<path d="M910 868 c1 -79 46 -148 97 -148 44 0 100 100 91 160 -3 24 -6 25
-95 28 l-93 3 0 -43z m95 -38 c20 0 45 5 56 10 26 14 26 -14 -1 -57 -39 -64
-83 -64 -114 1 -23 48 -22 70 3 56 11 -5 36 -10 56 -10z"/>
</g>
</svg>
