<?xml version="1.0" standalone="no"?>
<!DOCTYPE svg PUBLIC "-//W3C//DTD SVG 20010904//EN"
 "http://www.w3.org/TR/2001/REC-SVG-20010904/DTD/svg10.dtd">
<svg version="1.0" xmlns="http://www.w3.org/2000/svg"
 width="148.000000pt" height="123.000000pt" viewBox="0 0 148.000000 123.000000"
 preserveAspectRatio="xMidYMid meet">
<metadata>
Created by potrace 1.16, written by Peter Selinger 2001-2019
</metadata>
<g transform="translate(0.000000,123.000000) scale(0.100000,-0.100000)"
fill="#000000" stroke="none">
<path d="M665 906 c-38 -12 -81 -28 -95 -36 -17 -9 -60 -13 -147 -11 -110 2
-123 1 -123 -15 0 -15 12 -16 119 -12 l118 4 -23 -51 c-13 -27 -29 -74 -36
-104 l-12 -53 -83 6 -83 7 0 -105 0 -106 118 6 117 6 45 -58 c57 -73 83 -82
229 -83 108 -1 117 1 175 30 66 34 130 78 123 86 -3 2 11 39 31 80 43 91 51
157 28 237 -20 68 -58 109 -131 141 -133 59 -253 69 -370 31z m235 -17 c36 -5
94 -20 128 -32 63 -22 64 -22 91 -87 45 -106 46 -126 9 -237 -38 -117 -57
-138 -166 -184 -111 -48 -189 -47 -294 3 l-76 36 -41 82 c-48 96 -54 160 -22
252 34 100 46 115 108 138 105 40 161 46 263 29z m-430 -301 c0 -13 11 -47 25
-75 l24 -53 -43 0 c-24 0 -70 3 -102 6 l-59 6 3 64 c4 70 1 68 110 72 37 2 42
0 42 -20z"/>
<path d="M748 718 c-2 -73 -1 -179 0 -235 l4 -103 37 0 c86 0 191 66 191 120
0 33 -52 80 -110 100 -30 11 -46 20 -35 20 30 1 99 35 124 61 12 13 21 36 21
55 0 59 -94 114 -194 114 l-34 0 -4 -132z m148 93 c43 -20 74 -54 74 -81 0
-25 -50 -67 -99 -85 -60 -21 -63 -20 -41 18 11 17 20 48 20 67 0 19 -9 50 -20
68 l-20 32 23 0 c12 0 41 -9 63 -19z m-25 -226 c115 -41 119 -123 7 -170 -21
-8 -45 -15 -53 -15 -15 0 -15 2 -1 22 24 34 21 119 -5 152 -25 31 -13 34 52
11z"/>
</g>
</svg>
