<?xml version="1.0" standalone="no"?>
<!DOCTYPE svg PUBLIC "-//W3C//DTD SVG 20010904//EN"
 "http://www.w3.org/TR/2001/REC-SVG-20010904/DTD/svg10.dtd">
<svg version="1.0" xmlns="http://www.w3.org/2000/svg"
 width="147.000000pt" height="123.000000pt" viewBox="0 0 147.000000 123.000000"
 preserveAspectRatio="xMidYMid meet">
<metadata>
Created by potrace 1.16, written by Peter Selinger 2001-2019
</metadata>
<g transform="translate(0.000000,123.000000) scale(0.100000,-0.100000)"
fill="#000000" stroke="none">
<path d="M730 911 c-30 -10 -70 -25 -89 -35 -28 -15 -55 -17 -185 -14 -144 3
-151 2 -151 -16 0 -19 7 -20 147 -17 l146 3 -24 -59 c-13 -32 -24 -66 -24 -75
0 -16 -13 -18 -125 -18 l-125 0 0 -146 0 -147 163 7 163 8 25 -36 c33 -48 84
-66 192 -66 67 0 97 5 125 19 59 31 136 89 138 105 1 8 14 45 30 83 38 94 41
155 15 242 -17 55 -26 71 -40 71 -17 0 -17 -4 7 -62 32 -79 33 -142 3 -233
-38 -113 -42 -118 -134 -165 -79 -40 -89 -42 -150 -38 -67 4 -176 50 -185 78
-3 7 0 10 6 6 6 -3 13 -2 16 3 4 5 -4 11 -16 13 -27 4 -61 67 -78 144 -15 69
-8 80 53 89 29 5 45 9 37 11 -8 1 -31 5 -52 9 -36 6 -36 6 -26 41 21 77 47
124 68 124 11 0 20 4 20 9 0 5 24 18 53 27 79 28 174 23 280 -13 48 -17 87
-27 87 -23 0 9 -124 65 -175 79 -58 16 -132 13 -195 -8z m-188 -313 c4 -44 20
-91 56 -160 2 -5 -58 -8 -133 -8 l-136 0 3 103 3 102 65 6 c36 3 81 6 101 7
l37 2 4 -52z"/>
<path d="M753 782 c-12 -7 -3 -27 61 -137 l18 -30 -46 -80 c-38 -66 -43 -81
-31 -88 11 -6 45 12 118 63 56 39 113 79 126 89 l24 18 -119 83 c-131 91 -134
93 -151 82z m134 -98 c48 -31 92 -60 96 -64 6 -5 -85 -69 -190 -133 -7 -5 3
22 23 59 l37 66 -29 57 c-38 74 -36 71 -30 71 3 0 45 -25 93 -56z"/>
</g>
</svg>
