<?xml version="1.0" standalone="no"?>
<!DOCTYPE svg PUBLIC "-//W3C//DTD SVG 20010904//EN"
 "http://www.w3.org/TR/2001/REC-SVG-20010904/DTD/svg10.dtd">
<svg version="1.0" xmlns="http://www.w3.org/2000/svg"
 width="148.000000pt" height="123.000000pt" viewBox="0 0 148.000000 123.000000"
 preserveAspectRatio="xMidYMid meet">
<metadata>
Created by potrace 1.16, written by Peter Selinger 2001-2019
</metadata>
<g transform="translate(0.000000,123.000000) scale(0.100000,-0.100000)"
fill="#000000" stroke="none">
<path d="M665 906 c-38 -12 -81 -28 -95 -36 -17 -9 -60 -13 -147 -11 -110 2
-123 1 -123 -15 0 -15 12 -16 119 -12 l118 4 -23 -51 c-13 -27 -29 -74 -36
-104 l-12 -53 -83 6 -83 7 0 -105 0 -106 118 6 117 6 45 -58 c57 -73 83 -82
229 -83 108 -1 117 1 175 30 66 34 130 78 123 86 -3 2 11 39 31 80 43 91 51
157 28 237 -20 68 -58 109 -131 141 -133 59 -253 69 -370 31z m232 -16 c66
-11 197 -49 191 -55 -2 -2 -26 2 -53 10 -63 20 -115 20 -115 1 0 -12 -6 -13
-27 -6 -16 4 -48 11 -71 14 -38 6 -44 4 -49 -14 -4 -16 -9 -18 -25 -9 -11 6
-41 14 -67 18 l-46 8 30 12 c70 29 141 36 232 21z m-295 -152 c1 -57 1 -159
-2 -228 l-5 -125 -42 84 c-49 95 -55 148 -27 242 19 64 51 129 63 129 5 0 11
-46 13 -102z m146 76 c31 -13 32 -14 32 -77 l0 -64 -37 -16 c-21 -9 -48 -19
-61 -22 l-23 -7 21 34 c26 42 26 103 0 146 l-20 32 28 -6 c15 -4 42 -13 60
-20z m135 15 l37 -10 0 -83 c0 -83 0 -84 -27 -90 -16 -4 -37 -10 -47 -13 -18
-5 -18 -4 2 22 30 38 31 121 1 159 -23 29 -20 30 34 15z m178 -6 c32 -12 46
-26 59 -57 13 -27 16 -45 9 -57 -10 -20 -104 -69 -133 -69 -19 0 -19 0 0 21
27 30 27 128 0 158 -19 21 -19 21 2 21 12 0 40 -7 63 -17z m68 -288 c-39 -119
-57 -140 -167 -186 -104 -45 -188 -46 -281 -4 l-64 29 57 13 c31 7 66 17 76
23 17 9 20 7 20 -15 0 -21 5 -25 28 -25 86 0 202 68 202 118 0 46 -74 102
-155 118 l-40 8 55 11 c30 6 59 7 65 3 25 -21 141 7 191 47 l29 23 8 -31 c7
-25 1 -54 -24 -132z m-349 99 c0 -31 -22 -41 -65 -29 l-40 12 45 16 c58 20 60
20 60 1z m-310 -46 c0 -13 11 -47 25 -75 l24 -53 -43 0 c-24 0 -70 3 -102 6
l-59 6 3 64 c4 70 1 68 110 72 37 2 42 0 42 -20z m250 1 c36 -11 38 -14 44
-63 11 -98 9 -102 -78 -122 l-28 -7 18 28 c23 35 24 114 1 149 -20 29 -13 32
43 15z m178 -14 c112 -47 108 -129 -7 -170 -60 -21 -64 -19 -46 15 8 16 15 47
15 70 0 23 -7 54 -15 70 -14 27 -14 30 0 30 9 0 32 -7 53 -15z"/>
</g>
</svg>
