<?xml version="1.0" standalone="no"?>
<!DOCTYPE svg PUBLIC "-//W3C//DTD SVG 20010904//EN"
 "http://www.w3.org/TR/2001/REC-SVG-20010904/DTD/svg10.dtd">
<svg version="1.0" xmlns="http://www.w3.org/2000/svg"
 width="148.000000pt" height="123.000000pt" viewBox="0 0 148.000000 123.000000"
 preserveAspectRatio="xMidYMid meet">
<metadata>
Created by potrace 1.16, written by Peter Selinger 2001-2019
</metadata>
<g transform="translate(0.000000,123.000000) scale(0.100000,-0.100000)"
fill="#000000" stroke="none">
<path d="M665 906 c-38 -12 -81 -28 -95 -36 -17 -9 -60 -13 -147 -11 -110 2
-123 1 -123 -15 0 -15 12 -16 119 -12 l118 4 -23 -51 c-13 -27 -29 -74 -36
-104 l-12 -53 -83 6 -83 7 0 -105 0 -106 118 6 117 6 45 -58 c57 -73 83 -82
229 -83 108 -1 117 1 175 30 66 34 130 78 123 86 -3 2 11 39 31 80 43 91 51
157 28 237 -20 68 -58 109 -131 141 -133 59 -253 69 -370 31z m235 -17 c36 -5
94 -20 128 -32 63 -22 64 -22 91 -87 45 -106 46 -126 9 -237 -38 -117 -57
-138 -166 -184 -111 -48 -189 -47 -294 3 l-76 36 -41 82 c-48 96 -54 160 -22
252 34 100 46 115 108 138 110 41 157 46 263 29z m-430 -301 c0 -13 11 -47 25
-75 l24 -53 -43 0 c-24 0 -70 3 -102 6 l-59 6 3 64 c4 70 1 68 110 72 37 2 42
0 42 -20z"/>
<path d="M669 758 c-37 -82 -34 -172 10 -265 19 -40 37 -73 40 -73 14 0 335
187 338 197 4 11 -14 23 -200 127 -65 36 -129 66 -142 66 -18 0 -28 -11 -46
-52z m89 5 c17 -16 21 -35 26 -146 l6 -127 -35 -17 c-19 -9 -37 -14 -40 -11
-17 16 -45 125 -45 172 0 61 31 146 54 146 7 0 23 -8 34 -17z m170 -201 c-103
-52 -113 -55 -115 -37 -1 11 -4 63 -5 116 l-3 97 118 -59 118 -60 -113 -57z"/>
</g>
</svg>
