<?xml version="1.0" standalone="no"?>
<!DOCTYPE svg PUBLIC "-//W3C//DTD SVG 20010904//EN"
 "http://www.w3.org/TR/2001/REC-SVG-20010904/DTD/svg10.dtd">
<svg version="1.0" xmlns="http://www.w3.org/2000/svg"
 width="148.000000pt" height="123.000000pt" viewBox="0 0 148.000000 123.000000"
 preserveAspectRatio="xMidYMid meet">
<metadata>
Created by potrace 1.16, written by Peter Selinger 2001-2019
</metadata>
<g transform="translate(0.000000,123.000000) scale(0.100000,-0.100000)"
fill="#000000" stroke="none">
<path d="M665 906 c-38 -12 -81 -28 -95 -36 -17 -9 -60 -13 -147 -11 -110 2
-123 1 -123 -15 0 -15 12 -16 119 -12 l118 4 -23 -51 c-13 -27 -29 -74 -36
-104 l-12 -53 -83 6 -83 7 0 -105 0 -106 118 6 117 6 45 -58 c57 -73 83 -82
229 -83 108 -1 117 1 175 30 66 34 130 78 123 86 -3 2 11 39 31 80 43 91 51
157 28 237 -20 68 -58 109 -131 141 -133 59 -253 69 -370 31z m235 -17 c36 -5
94 -20 128 -32 63 -22 64 -22 91 -87 45 -106 46 -126 9 -237 -38 -117 -57
-138 -166 -184 -111 -48 -189 -47 -294 3 l-76 36 -41 82 c-48 96 -54 160 -22
252 34 100 46 115 108 138 110 41 157 46 263 29z m-430 -301 c0 -13 11 -47 25
-75 l24 -53 -43 0 c-24 0 -70 3 -102 6 l-59 6 3 64 c4 70 1 68 110 72 37 2 42
0 42 -20z"/>
<path d="M805 783 c-16 -8 -78 -47 -136 -85 -138 -89 -138 -93 -13 -176 51
-34 113 -73 139 -86 l46 -25 97 74 c125 96 142 111 142 123 0 9 -229 192 -240
192 -3 -1 -18 -8 -35 -17z m127 -89 c139 -94 135 -90 109 -104 -19 -10 -35 -1
-138 76 -86 64 -112 88 -102 95 8 5 15 9 16 9 2 0 53 -34 115 -76z m-42 -44
c61 -41 110 -77 110 -80 0 -3 -8 -10 -18 -17 -16 -9 -35 2 -131 74 -84 63
-110 88 -100 94 19 12 15 14 139 -71z m-54 -39 c98 -68 113 -81 97 -89 -15 -9
-38 4 -123 68 -100 75 -125 100 -101 100 6 0 63 -36 127 -79z m-48 -31 c61
-41 111 -78 112 -81 0 -4 -8 -10 -17 -13 -11 -4 -35 6 -67 28 -97 67 -167 127
-160 137 8 13 2 16 132 -71z m-14 -60 c72 -48 78 -54 61 -66 -14 -10 -21 -11
-34 -1 -9 7 -58 43 -109 81 -73 55 -90 72 -81 82 9 11 18 9 48 -14 20 -16 72
-53 115 -82z"/>
</g>
</svg>
