<?xml version="1.0" standalone="no"?>
<!DOCTYPE svg PUBLIC "-//W3C//DTD SVG 20010904//EN"
 "http://www.w3.org/TR/2001/REC-SVG-20010904/DTD/svg10.dtd">
<svg version="1.0" xmlns="http://www.w3.org/2000/svg"
 width="190.000000pt" height="127.000000pt" viewBox="0 0 190.000000 127.000000"
 preserveAspectRatio="xMidYMid meet">
<metadata>
Created by potrace 1.16, written by Peter Selinger 2001-2019
</metadata>
<g transform="translate(0.000000,127.000000) scale(0.100000,-0.100000)"
fill="#000000" stroke="none">
<path d="M950 956 c-260 -139 -413 -230 -418 -248 -6 -24 -16 -23 -120 16 -64
24 -94 30 -101 23 -14 -14 -15 -224 -1 -232 6 -4 55 14 110 38 100 45 100 45
100 21 0 -15 6 -24 15 -24 8 0 45 -19 82 -43 69 -44 342 -207 347 -207 2 0 6
57 9 127 5 83 11 129 19 134 7 4 40 11 75 15 68 7 193 -16 227 -41 25 -19 89
-18 198 3 99 20 131 38 48 28 -180 -21 -190 -20 -290 14 -88 30 -102 32 -183
27 l-88 -6 3 185 c2 101 1 184 -2 184 -3 0 -16 -6 -30 -14z m0 -312 c0 -157 1
-291 3 -297 4 -21 -14 -11 -161 87 l-142 96 33 14 c19 7 43 17 55 20 12 4 22
12 22 18 0 5 -6 8 -12 5 -7 -2 -39 -13 -70 -22 l-57 -18 -39 25 c-37 25 -38
27 -33 72 l6 46 148 89 c81 50 166 104 190 120 23 17 45 30 49 31 4 0 7 -129
8 -286z m-515 42 c69 -21 80 -27 80 -46 0 -20 -13 -28 -93 -58 -51 -19 -94
-33 -95 -31 -1 2 -1 39 1 82 2 50 8 77 15 77 7 -1 48 -11 92 -24z"/>
<path d="M770 762 c0 -13 100 -35 132 -30 19 3 15 6 -17 16 -65 20 -115 26
-115 14z"/>
<path d="M665 698 c-68 -23 -69 -23 -61 -37 7 -10 136 38 136 52 0 10 -6 9
-75 -15z"/>
<path d="M770 707 c0 -12 94 -37 141 -37 27 0 -7 17 -56 29 -27 7 -58 14 -67
17 -11 3 -18 0 -18 -9z"/>
<path d="M668 638 c-34 -11 -58 -26 -58 -34 0 -11 10 -10 51 7 60 23 89 38 89
44 0 9 -24 4 -82 -17z"/>
<path d="M770 637 c0 -9 15 -17 43 -21 23 -4 57 -9 76 -13 55 -10 28 13 -31
27 -29 6 -61 14 -70 17 -11 3 -18 -1 -18 -10z"/>
<path d="M770 542 c0 -12 27 -19 100 -26 53 -6 54 -6 25 8 -40 19 -125 31
-125 18z"/>
<path d="M1008 759 c-39 -22 -17 -30 70 -23 91 6 193 -11 236 -42 27 -19 73
-18 185 6 149 30 135 38 -37 19 -97 -11 -99 -11 -189 20 -72 25 -106 31 -169
31 -44 0 -87 -5 -96 -11z"/>
</g>
</svg>
