<?xml version="1.0" standalone="no"?>
<!DOCTYPE svg PUBLIC "-//W3C//DTD SVG 20010904//EN"
 "http://www.w3.org/TR/2001/REC-SVG-20010904/DTD/svg10.dtd">
<svg version="1.0" xmlns="http://www.w3.org/2000/svg"
 width="197.000000pt" height="110.000000pt" viewBox="0 0 197.000000 110.000000"
 preserveAspectRatio="xMidYMid meet">
<metadata>
Created by potrace 1.16, written by Peter Selinger 2001-2019
</metadata>
<g transform="translate(0.000000,110.000000) scale(0.100000,-0.100000)"
fill="#000000" stroke="none">
<path d="M590 784 c-75 -16 -210 -78 -257 -118 -43 -37 -42 -60 8 -157 47 -90
112 -155 166 -165 79 -15 191 23 302 104 l55 39 30 -27 c17 -15 65 -57 106
-93 l75 -65 20 41 c47 97 160 137 345 122 52 -5 112 -9 134 -9 l39 -1 23 77
c26 90 40 168 28 168 -4 0 -116 16 -248 35 -449 65 -688 79 -826 49z m470 -35
c123 -9 572 -59 578 -64 1 -1 -7 -52 -19 -114 -18 -95 -24 -111 -38 -106 -9 3
-65 13 -126 22 -128 18 -220 12 -283 -18 -44 -22 -99 -80 -108 -115 -4 -17
-17 -8 -91 68 -48 48 -90 88 -95 88 -4 0 -33 -16 -64 -36 -118 -76 -236 -112
-304 -94 -61 16 -130 101 -166 203 -16 46 -17 45 71 96 147 86 271 99 645 70z"/>
<path d="M454 611 c-2 -2 -4 -10 -4 -18 0 -11 64 -13 348 -12 191 1 388 4 437
8 l90 7 -75 7 c-81 8 -789 15 -796 8z"/>
</g>
</svg>
