<?xml version="1.0" standalone="no"?>
<!DOCTYPE svg PUBLIC "-//W3C//DTD SVG 20010904//EN"
 "http://www.w3.org/TR/2001/REC-SVG-20010904/DTD/svg10.dtd">
<svg version="1.0" xmlns="http://www.w3.org/2000/svg"
 width="160.000000pt" height="117.000000pt" viewBox="0 0 160.000000 117.000000"
 preserveAspectRatio="xMidYMid meet">
<metadata>
Created by potrace 1.16, written by Peter Selinger 2001-2019
</metadata>
<g transform="translate(0.000000,117.000000) scale(0.100000,-0.100000)"
fill="#000000" stroke="none">
<path d="M307 863 c-9 -8 -9 -304 0 -452 l6 -114 485 6 c267 3 487 9 491 12 3
4 8 127 10 274 l3 268 -273 6 c-350 9 -714 9 -722 0z m953 -78 l0 -55 -342 0
c-189 0 -353 3 -365 6 -19 5 -23 13 -23 44 l0 38 313 9 c171 5 336 10 365 11
l52 2 0 -55z m-766 -182 c4 -120 8 -227 9 -237 2 -17 -5 -19 -83 -17 -47 1
-85 3 -86 4 0 1 1 107 4 235 l5 232 72 0 73 0 6 -217z m546 57 l0 -50 -46 0
c-59 0 -55 -24 4 -28 l42 -3 0 -60 0 -59 -131 0 -132 0 7 53 c3 28 6 82 6 119
l0 67 48 4 c26 2 82 4 125 5 l77 2 0 -50z m220 -44 c0 -51 3 -108 6 -125 l7
-31 -107 0 -106 0 0 60 0 60 75 0 c43 0 75 4 75 10 0 6 -24 10 -52 10 -92 0
-99 5 -96 61 l3 49 98 0 97 0 0 -94z m-680 32 c0 -29 3 -83 7 -120 l6 -68 -32
0 -31 0 0 120 0 120 25 0 c23 0 25 -3 25 -52z m93 -30 c4 -46 7 -100 7 -120 0
-38 0 -38 -41 -38 l-42 0 7 46 c3 26 6 80 6 120 l0 74 29 0 28 0 6 -82z m87
23 c0 -32 3 -86 6 -120 l7 -62 -37 3 c-20 2 -36 6 -36 11 0 4 0 57 0 117 l0
110 30 0 c30 0 30 0 30 -59z m510 -257 l0 -57 -112 6 c-62 4 -231 7 -375 7
l-263 0 0 45 0 45 268 3 c147 1 315 3 375 5 l107 2 0 -56z"/>
</g>
</svg>
