<?xml version="1.0" standalone="no"?>
<!DOCTYPE svg PUBLIC "-//W3C//DTD SVG 20010904//EN"
 "http://www.w3.org/TR/2001/REC-SVG-20010904/DTD/svg10.dtd">
<svg version="1.0" xmlns="http://www.w3.org/2000/svg"
 width="173.000000pt" height="148.000000pt" viewBox="0 0 173.000000 148.000000"
 preserveAspectRatio="xMidYMid meet">
<metadata>
Created by potrace 1.16, written by Peter Selinger 2001-2019
</metadata>
<g transform="translate(0.000000,148.000000) scale(0.100000,-0.100000)"
fill="#000000" stroke="none">
<path d="M870 1165 c-6 -8 -9 -19 -6 -24 4 -7 -27 -11 -86 -13 l-93 -3 -3
-187 -2 -188 -190 0 -190 0 0 -205 c0 -157 3 -205 13 -206 6 -1 147 -1 312 1
l300 2 -19 -21 c-16 -17 -16 -21 -4 -21 9 0 22 9 29 20 13 19 31 21 249 31
129 6 237 13 240 15 3 3 7 173 8 378 l4 373 -159 6 c-87 4 -197 7 -244 7 -78
0 -87 2 -109 25 -27 29 -33 30 -50 10z m530 -363 c0 -165 3 -327 6 -361 l7
-61 -213 0 -212 0 33 38 c61 67 129 160 159 218 42 79 41 132 -5 208 -40 66
-119 167 -165 211 l-31 30 93 5 c51 3 146 6 211 8 l117 3 0 -299z m-413 225
l64 -62 -80 -58 c-118 -84 -151 -119 -151 -155 0 -41 60 -99 168 -161 l83 -47
-58 -83 -58 -82 -80 2 c-44 0 -187 3 -317 6 l-238 5 0 133 c0 73 3 146 6 163
l6 30 172 4 c100 3 176 1 184 -5 8 -6 12 -5 13 4 3 67 5 123 7 237 l2 132 106
0 106 0 65 -63z m135 -158 c57 -81 60 -119 13 -213 -20 -41 -42 -80 -49 -85
-25 -21 -226 136 -226 177 0 10 15 32 33 50 44 42 170 132 181 129 5 -2 27
-28 48 -58z"/>
</g>
</svg>
