<?xml version="1.0" standalone="no"?>
<!DOCTYPE svg PUBLIC "-//W3C//DTD SVG 20010904//EN"
 "http://www.w3.org/TR/2001/REC-SVG-20010904/DTD/svg10.dtd">
<svg version="1.0" xmlns="http://www.w3.org/2000/svg"
 width="173.000000pt" height="139.000000pt" viewBox="0 0 173.000000 139.000000"
 preserveAspectRatio="xMidYMid meet">
<metadata>
Created by potrace 1.16, written by Peter Selinger 2001-2019
</metadata>
<g transform="translate(0.000000,139.000000) scale(0.100000,-0.100000)"
fill="#000000" stroke="none">
<path d="M600 1075 c-10 -12 -12 -55 -7 -190 l7 -175 -150 0 -150 0 0 -207 0
-206 463 7 c254 3 505 9 558 12 l96 7 7 75 c3 41 6 211 6 377 l0 302 -122 6
c-66 4 -250 7 -408 7 -247 0 -289 -2 -300 -15z m800 -307 c0 -161 3 -324 7
-362 l6 -69 -384 6 c-211 4 -457 7 -546 7 l-163 0 0 134 c0 73 3 147 6 164 l6
31 132 3 c72 2 134 -1 137 -6 17 -23 24 53 28 301 l1 73 238 2 c130 2 303 4
385 6 l147 3 0 -293z"/>
<path d="M695 754 c-43 -16 -62 -30 -52 -40 3 -4 24 3 46 14 37 20 43 20 75 7
41 -17 46 -18 46 -7 0 7 -65 44 -73 41 -1 0 -20 -7 -42 -15z"/>
<path d="M831 731 c-12 -7 -13 -32 -8 -132 4 -68 11 -127 17 -133 6 -6 90 5
242 33 128 23 242 44 253 45 18 3 20 12 23 74 2 40 2 72 0 72 -2 0 -109 11
-238 25 -263 28 -269 28 -289 16z m214 -34 c138 -12 139 -12 140 -37 1 -14 2
-44 3 -67 3 -69 22 -50 22 22 l0 66 63 -3 62 -3 3 -57 c2 -36 -1 -58 -8 -58
-5 0 -116 -16 -246 -35 -129 -19 -237 -35 -239 -35 -2 0 -2 8 -1 17 4 22 25
27 181 43 138 13 214 35 90 26 -251 -19 -265 -20 -265 -4 0 23 31 28 182 28
80 0 139 4 143 10 4 7 -52 10 -159 10 -161 0 -166 1 -166 21 0 20 3 20 163 15
179 -6 169 7 -15 18 -122 8 -148 12 -148 27 0 11 16 11 195 -4z"/>
<path d="M725 711 c-6 -5 -27 -14 -47 -21 -21 -6 -38 -18 -38 -26 0 -20 12
-18 53 11 35 23 39 23 71 10 41 -17 46 -18 46 -7 0 5 -16 16 -35 25 -42 20
-38 19 -50 8z"/>
<path d="M690 634 c-25 -13 -49 -25 -55 -27 -5 -2 -7 -8 -3 -12 9 -9 64 12 84
32 11 12 18 12 43 -2 33 -17 51 -19 51 -7 0 7 -67 44 -73 41 -1 -1 -22 -12
-47 -25z"/>
<path d="M730 585 c0 -8 2 -15 4 -15 2 0 20 -7 40 -15 49 -21 46 -1 -4 25 -34
17 -40 18 -40 5z"/>
<path d="M668 563 c-39 -16 -50 -33 -22 -33 19 0 74 31 74 42 0 10 -8 9 -52
-9z"/>
<path d="M730 529 c0 -12 67 -42 83 -36 7 2 -7 14 -30 25 -48 25 -53 26 -53
11z"/>
<path d="M668 513 c-35 -14 -51 -33 -28 -33 16 0 80 33 80 42 0 11 -9 10 -52
-9z"/>
</g>
</svg>
