<?xml version="1.0" standalone="no"?>
<!DOCTYPE svg PUBLIC "-//W3C//DTD SVG 20010904//EN"
 "http://www.w3.org/TR/2001/REC-SVG-20010904/DTD/svg10.dtd">
<svg version="1.0" xmlns="http://www.w3.org/2000/svg"
 width="165.000000pt" height="181.000000pt" viewBox="0 0 165.000000 181.000000"
 preserveAspectRatio="xMidYMid meet">
<metadata>
Created by potrace 1.16, written by Peter Selinger 2001-2019
</metadata>
<g transform="translate(0.000000,181.000000) scale(0.100000,-0.100000)"
fill="#000000" stroke="none">
<path d="M570 1450 l0 -60 -135 0 -136 0 3 -111 3 -111 133 1 132 2 0 -231 c0
-147 -4 -230 -10 -230 -5 0 -10 -9 -10 -20 0 -11 5 -20 10 -20 6 0 10 -68 10
-185 0 -117 4 -185 10 -185 6 0 10 44 10 113 0 63 3 148 6 189 l7 75 359 2
c198 1 366 5 374 8 20 7 21 681 2 687 -11 4 -563 16 -700 16 l-38 0 0 60 c0
47 -3 60 -15 60 -12 0 -15 -13 -15 -60z m762 -410 c2 -177 1 -326 -2 -330 -3
-4 -168 -5 -367 -2 l-363 5 0 228 0 229 30 0 c17 0 30 5 30 10 0 6 -13 10 -30
10 l-30 0 0 78 c0 43 2 81 4 83 2 2 167 6 365 8 l360 3 3 -322z m-764 233 c-3
-67 -6 -78 -20 -77 -10 0 -63 1 -118 2 l-100 2 0 68 c0 38 3 72 7 75 3 4 58 7
120 7 l114 0 -3 -77z"/>
<path d="M511 948 c2 -351 22 -333 34 30 6 179 6 182 -14 182 -21 0 -21 -4
-20 -212z"/>
</g>
</svg>
