<?xml version="1.0" standalone="no"?>
<!DOCTYPE svg PUBLIC "-//W3C//DTD SVG 20010904//EN"
 "http://www.w3.org/TR/2001/REC-SVG-20010904/DTD/svg10.dtd">
<svg version="1.0" xmlns="http://www.w3.org/2000/svg"
 width="173.000000pt" height="139.000000pt" viewBox="0 0 173.000000 139.000000"
 preserveAspectRatio="xMidYMid meet">
<metadata>
Created by potrace 1.16, written by Peter Selinger 2001-2019
</metadata>
<g transform="translate(0.000000,139.000000) scale(0.100000,-0.100000)"
fill="#000000" stroke="none">
<path d="M687 1083 c-4 -3 -7 -89 -7 -190 l0 -183 -190 0 -190 0 0 -207 0
-206 463 7 c254 3 505 9 558 12 l96 7 7 75 c3 41 6 211 6 377 l0 302 -122 6
c-158 9 -613 9 -621 0z m713 -315 c0 -161 3 -324 7 -362 l6 -69 -384 6 c-211
4 -457 7 -546 7 l-163 0 0 134 c0 73 3 147 6 163 l6 30 171 5 c108 4 177 2
185 -4 8 -7 12 -6 13 3 2 28 5 108 7 236 l2 133 203 3 c111 1 266 3 345 5
l142 2 0 -292z"/>
<path d="M988 882 c-30 -16 -95 -57 -145 -90 -127 -85 -127 -88 12 -181 60
-40 129 -82 153 -93 l42 -19 53 38 c102 73 206 158 206 168 0 6 -23 28 -51 50
-104 81 -203 155 -209 155 -4 0 -31 -13 -61 -28z m244 -139 c54 -34 58 -38 42
-50 -10 -7 -23 -13 -30 -13 -8 0 -210 146 -243 176 -2 2 2 10 8 18 10 12 24 6
88 -40 42 -30 103 -71 135 -91z m-144 18 c57 -39 112 -76 123 -82 20 -10 20
-11 2 -24 -10 -8 -23 -15 -29 -15 -9 0 -213 148 -244 177 -7 6 24 23 35 19 6
-2 56 -36 113 -75z m-29 -61 c101 -68 108 -75 91 -87 -18 -13 -31 -5 -141 78
-88 66 -118 94 -108 100 8 5 21 3 31 -4 9 -7 67 -46 127 -87z m-72 -20 c65
-45 119 -85 121 -90 2 -4 -6 -11 -18 -15 -16 -5 -47 13 -136 80 -100 75 -127
105 -94 105 5 0 62 -36 127 -80z m-14 -65 c83 -55 86 -59 71 -76 -16 -18 -20
-16 -98 45 -44 34 -101 76 -124 91 -40 26 -42 30 -26 42 14 10 22 8 53 -16 20
-15 75 -54 124 -86z"/>
</g>
</svg>
