<?xml version="1.0" standalone="no"?>
<!DOCTYPE svg PUBLIC "-//W3C//DTD SVG 20010904//EN"
 "http://www.w3.org/TR/2001/REC-SVG-20010904/DTD/svg10.dtd">
<svg version="1.0" xmlns="http://www.w3.org/2000/svg"
 width="173.000000pt" height="139.000000pt" viewBox="0 0 173.000000 139.000000"
 preserveAspectRatio="xMidYMid meet">
<metadata>
Created by potrace 1.16, written by Peter Selinger 2001-2019
</metadata>
<g transform="translate(0.000000,139.000000) scale(0.100000,-0.100000)"
fill="#000000" stroke="none">
<path d="M687 1083 c-4 -3 -7 -89 -7 -190 l0 -183 -190 0 -190 0 0 -207 0
-206 468 7 c257 3 508 9 558 12 l91 7 7 75 c3 41 6 211 6 377 l0 302 -122 6
c-158 9 -613 9 -621 0z m713 -315 c0 -161 3 -324 7 -362 l6 -69 -384 6 c-211
4 -457 7 -546 7 l-163 0 0 134 c0 73 3 147 6 163 l6 30 171 5 c108 4 177 2
185 -4 8 -7 12 -6 13 3 3 31 5 101 7 231 l2 138 198 2 c108 2 263 4 345 6
l147 3 0 -293z"/>
<path d="M777 916 c-4 -10 15 -26 61 -51 37 -21 68 -38 69 -39 2 -1 -6 -26
-17 -54 -26 -68 -25 -98 3 -154 l23 -46 -73 -39 c-77 -40 -77 -41 -64 -61 6
-10 26 -2 83 32 l75 44 36 -35 35 -36 94 58 c118 74 211 137 220 150 4 5 5 12
2 16 -10 17 -321 219 -336 219 -9 0 -26 -15 -37 -34 l-22 -34 -67 39 c-75 44
-78 45 -85 25z m376 -130 l156 -93 -157 -91 c-155 -89 -157 -90 -174 -70 -10
11 -18 23 -18 27 0 3 34 26 75 51 67 40 90 60 68 60 -5 0 -41 -18 -81 -40 -41
-22 -78 -37 -84 -34 -15 10 -38 70 -38 101 0 15 9 47 20 71 l19 43 82 -41 c44
-23 83 -39 86 -37 2 3 -30 26 -71 53 -42 26 -76 49 -76 51 0 8 25 43 31 43 3
0 76 -42 162 -94z"/>
</g>
</svg>
