<?xml version="1.0" standalone="no"?>
<!DOCTYPE svg PUBLIC "-//W3C//DTD SVG 20010904//EN"
 "http://www.w3.org/TR/2001/REC-SVG-20010904/DTD/svg10.dtd">
<svg version="1.0" xmlns="http://www.w3.org/2000/svg"
 width="173.000000pt" height="139.000000pt" viewBox="0 0 173.000000 139.000000"
 preserveAspectRatio="xMidYMid meet">
<metadata>
Created by potrace 1.16, written by Peter Selinger 2001-2019
</metadata>
<g transform="translate(0.000000,139.000000) scale(0.100000,-0.100000)"
fill="#000000" stroke="none">
<path d="M687 1083 c-4 -3 -7 -89 -7 -190 l0 -183 -190 0 -190 0 0 -207 0
-206 468 7 c257 3 508 9 558 12 l91 7 7 75 c3 41 6 211 6 377 l0 302 -122 6
c-158 9 -613 9 -621 0z m713 -315 c0 -161 3 -324 7 -362 l6 -69 -384 6 c-211
4 -457 7 -546 7 l-163 0 0 134 c0 73 3 147 6 163 l6 30 171 5 c108 4 177 2
185 -4 8 -7 12 -6 13 3 3 31 5 101 7 231 l2 138 188 2 c103 2 258 4 345 6
l157 3 0 -293z"/>
<path d="M947 998 c11 -58 8 -255 -4 -270 -24 -30 -23 -72 4 -186 28 -123 30
-129 38 -120 3 3 -4 57 -15 120 l-21 116 22 93 c15 70 20 114 16 174 -6 91
-13 115 -34 115 -12 0 -13 -8 -6 -42z"/>
<path d="M1097 978 c16 -73 9 -204 -13 -257 -8 -18 -14 -47 -14 -63 0 -43 51
-238 62 -238 6 0 8 6 5 13 -3 7 -13 61 -23 121 -16 101 -16 112 -1 179 27 114
30 159 17 236 -9 56 -15 71 -29 71 -16 0 -17 -5 -4 -62z"/>
</g>
</svg>
