<?xml version="1.0" standalone="no"?>
<!DOCTYPE svg PUBLIC "-//W3C//DTD SVG 20010904//EN"
 "http://www.w3.org/TR/2001/REC-SVG-20010904/DTD/svg10.dtd">
<svg version="1.0" xmlns="http://www.w3.org/2000/svg"
 width="212.000000pt" height="119.000000pt" viewBox="0 0 212.000000 119.000000"
 preserveAspectRatio="xMidYMid meet">
<metadata>
Created by potrace 1.16, written by Peter Selinger 2001-2019
</metadata>
<g transform="translate(0.000000,119.000000) scale(0.100000,-0.100000)"
fill="#000000" stroke="none">
<path d="M1416 881 c-5 -8 67 -200 99 -261 16 -30 16 -32 -2 -26 -55 16 -378
95 -578 140 -184 42 -232 50 -242 40 -8 -8 -13 -42 -13 -93 0 -93 17 -81 -150
-106 -183 -27 -230 -37 -230 -46 0 -5 9 -9 21 -9 18 0 242 38 330 56 l26 5 6
-127 c4 -70 9 -129 11 -132 7 -6 479 86 699 136 l169 39 61 -80 c92 -119 95
-122 102 -116 3 4 -27 55 -67 115 -40 60 -74 112 -76 115 -2 5 179 169 227
206 15 11 15 13 0 28 -14 15 -25 6 -128 -101 -62 -64 -113 -115 -115 -113 -10
15 -40 93 -77 207 -39 120 -57 150 -73 123z m-337 -221 c196 -39 379 -75 408
-81 39 -8 51 -14 46 -25 -3 -8 0 -21 7 -29 9 -11 6 -15 -22 -19 -287 -49 -813
-134 -813 -133 0 1 1 50 3 110 l3 107 30 0 c16 0 29 5 29 11 0 7 -11 9 -30 6
l-30 -6 0 64 c0 36 3 65 7 65 3 0 166 -32 362 -70z"/>
</g>
</svg>
