<?xml version="1.0" standalone="no"?>
<!DOCTYPE svg PUBLIC "-//W3C//DTD SVG 20010904//EN"
 "http://www.w3.org/TR/2001/REC-SVG-20010904/DTD/svg10.dtd">
<svg version="1.0" xmlns="http://www.w3.org/2000/svg"
 width="185.000000pt" height="171.000000pt" viewBox="0 0 185.000000 171.000000"
 preserveAspectRatio="xMidYMid meet">
<metadata>
Created by potrace 1.16, written by Peter Selinger 2001-2019
</metadata>
<g transform="translate(0.000000,171.000000) scale(0.100000,-0.100000)"
fill="#000000" stroke="none">
<path d="M656 1394 c-3 -9 -6 -54 -6 -100 l0 -84 -175 0 c-173 0 -175 0 -175
-22 0 -21 0 -21 175 -15 l175 7 0 -101 c0 -101 10 -142 33 -134 6 2 106 16
222 30 173 22 457 64 613 90 l32 6 0 109 c0 81 -3 110 -12 110 -7 0 -98 14
-203 30 -170 28 -631 90 -661 90 -7 0 -15 -7 -18 -16z m162 -50 l62 -6 0 -69
0 -69 -77 0 c-124 0 -123 -1 -123 87 l0 75 38 -6 c20 -3 65 -8 100 -12z m407
-40 c160 -15 293 -30 296 -33 4 -3 9 -47 12 -96 l5 -91 -291 -28 c-161 -15
-302 -30 -314 -33 l-23 -5 0 156 c0 118 3 156 13 156 6 0 143 -12 302 -26z
m-337 -200 l3 -82 -33 -5 c-18 -4 -69 -9 -112 -13 l-79 -7 6 48 c4 26 7 67 7
91 l0 43 83 4 c134 6 122 14 125 -79z"/>
<path d="M657 753 c-4 -3 -7 -48 -7 -100 l0 -93 -175 0 c-168 0 -175 -1 -175
-20 0 -19 5 -19 175 -13 l175 6 1 -94 c1 -95 3 -127 12 -136 11 -10 853 107
878 123 5 3 9 52 9 109 l0 103 -27 6 c-129 25 -780 116 -835 116 -14 0 -28 -3
-31 -7z m201 -60 c20 -5 22 -11 22 -75 0 -68 -1 -70 -22 -64 -13 3 -58 6 -100
6 l-78 0 0 76 0 76 78 -7 c42 -3 87 -9 100 -12z m387 -39 c154 -14 281 -27
281 -28 1 0 4 -43 6 -94 5 -88 5 -92 -16 -96 -11 -3 -149 -17 -306 -32 -157
-14 -288 -28 -292 -31 -10 -5 -11 301 -2 310 4 4 16 5 28 2 12 -2 147 -16 301
-31z m-357 -200 l3 -81 -107 -12 c-58 -7 -108 -10 -110 -8 -3 2 -1 43 2 90 l7
86 36 4 c20 2 65 4 101 3 l65 -1 3 -81z"/>
</g>
</svg>
