<?xml version="1.0" standalone="no"?>
<!DOCTYPE svg PUBLIC "-//W3C//DTD SVG 20010904//EN"
 "http://www.w3.org/TR/2001/REC-SVG-20010904/DTD/svg10.dtd">
<svg version="1.0" xmlns="http://www.w3.org/2000/svg"
 width="163.000000pt" height="151.000000pt" viewBox="0 0 163.000000 151.000000"
 preserveAspectRatio="xMidYMid meet">
<metadata>
Created by potrace 1.16, written by Peter Selinger 2001-2019
</metadata>
<g transform="translate(0.000000,151.000000) scale(0.100000,-0.100000)"
fill="#000000" stroke="none">
<path d="M850 1157 l0 -52 -272 -279 c-150 -153 -275 -284 -277 -290 -1 -6
121 113 273 264 l276 276 0 -45 0 -45 -212 -216 c-130 -131 -222 -216 -236
-218 -14 -2 -22 -10 -22 -22 0 -10 -6 -25 -13 -32 -72 -80 -76 -95 -6 -25 22
22 36 27 75 27 l48 0 -39 -40 c-21 -22 -44 -40 -51 -40 -6 0 -14 -8 -18 -17
-3 -10 -8 -22 -11 -28 -3 -6 16 -9 50 -7 38 3 55 0 55 -8 0 -10 3 -10 14 -1 8
7 41 12 73 11 32 0 113 3 180 7 l121 8 5 -30 c3 -16 0 -36 -5 -42 -18 -22 6
-15 90 26 224 108 382 270 382 391 0 35 -3 40 -24 40 -21 0 -24 -5 -24 -41 -1
-52 -32 -116 -87 -177 -42 -46 -145 -132 -158 -132 -4 0 -7 28 -7 62 l0 63
147 147 c81 81 144 150 140 154 -4 4 -66 -54 -138 -130 -72 -75 -136 -136
-141 -136 -5 0 -6 20 -3 48 7 44 15 55 136 177 71 72 129 135 129 140 0 5 -58
-49 -130 -120 l-130 -130 0 50 0 50 110 110 c61 60 110 114 110 120 0 5 -49
-40 -110 -100 l-110 -110 0 50 c0 50 1 52 80 130 44 44 80 84 80 90 0 5 -36
-26 -80 -70 l-80 -80 0 51 c0 46 4 53 45 94 25 24 45 49 45 54 0 6 -20 -10
-45 -34 -40 -39 -45 -42 -45 -22 0 15 -6 22 -20 22 -17 0 -20 -7 -20 -43 0
-39 -5 -48 -55 -97 l-55 -54 0 50 c0 49 1 51 80 129 44 43 77 81 74 84 -2 3
-38 -28 -79 -69 l-75 -74 0 46 c0 39 6 54 31 83 17 19 26 35 20 35 -6 0 -16
-9 -23 -20 -19 -30 -31 -24 -24 10 5 27 3 30 -19 30 -23 0 -25 -3 -25 -53z
m96 -316 l-56 -56 0 50 c0 46 3 53 53 103 l52 53 3 -47 c3 -46 1 -50 -52 -103z
m-253 -133 l-158 -158 -47 0 -47 0 202 205 202 206 3 -47 3 -48 -158 -158z
m253 13 l-56 -56 0 50 c0 46 3 53 53 103 l52 53 3 -47 c3 -46 1 -50 -52 -103z
m-193 -73 c-98 -98 -98 -98 -148 -98 l-50 0 145 145 145 145 3 -46 3 -47 -98
-99z m193 -47 l-56 -56 0 50 c0 46 3 53 53 103 l52 53 3 -47 c3 -46 1 -50 -52
-103z m-87 59 c1 -16 -15 -40 -46 -72 -42 -43 -52 -48 -90 -48 -24 0 -43 3
-43 7 0 4 37 45 82 90 86 87 95 89 97 23z m89 -177 c-29 -29 -48 -53 -43 -53
5 0 31 21 58 48 l48 47 -3 -64 -3 -65 -55 -33 c-30 -18 -58 -33 -62 -33 -14 0
-9 60 5 61 10 0 10 2 0 6 -16 6 -17 71 -2 110 5 15 31 50 57 76 l47 48 3 -47
c3 -45 1 -50 -50 -101z m-88 92 c0 -34 -1 -35 -37 -35 l-37 0 34 35 c19 19 35
35 37 35 2 0 3 -16 3 -35z m-50 -110 c-51 -52 -57 -55 -104 -55 l-50 0 49 50
c39 40 56 50 89 53 23 2 48 4 56 5 8 1 -10 -23 -40 -53z m-124 -4 c-43 -44
-52 -48 -92 -47 -24 0 -44 3 -44 6 0 2 19 24 42 47 39 39 46 43 92 43 l50 0
-48 -49z m-125 -5 c-24 -24 -50 -43 -60 -41 -9 2 -29 4 -46 4 l-29 1 39 40
c35 36 44 40 89 40 l50 0 -43 -44z m297 -51 c-2 -1 -20 0 -41 3 l-39 4 39 40
38 39 3 -41 c2 -23 2 -43 0 -45z"/>
<path d="M565 930 c-143 -143 -255 -260 -250 -260 13 0 521 508 514 514 -3 3
-122 -112 -264 -254z"/>
<path d="M505 990 c-98 -98 -177 -182 -174 -184 3 -3 88 78 189 179 102 102
180 185 175 185 -6 0 -91 -81 -190 -180z"/>
<path d="M440 1045 c-57 -57 -102 -107 -99 -109 3 -3 52 42 109 99 57 57 102
107 99 109 -3 3 -52 -42 -109 -99z"/>
</g>
</svg>
