<?xml version="1.0" standalone="no"?>
<!DOCTYPE svg PUBLIC "-//W3C//DTD SVG 20010904//EN"
 "http://www.w3.org/TR/2001/REC-SVG-20010904/DTD/svg10.dtd">
<svg version="1.0" xmlns="http://www.w3.org/2000/svg"
 width="156.000000pt" height="194.000000pt" viewBox="0 0 156.000000 194.000000"
 preserveAspectRatio="xMidYMid meet">
<metadata>
Created by potrace 1.16, written by Peter Selinger 2001-2019
</metadata>
<g transform="translate(0.000000,194.000000) scale(0.100000,-0.100000)"
fill="#000000" stroke="none">
<path d="M307 1633 c-9 -8 -9 -382 0 -492 l6 -84 356 7 c196 4 370 9 386 12
25 4 30 10 31 32 0 15 1 53 2 85 l2 57 33 0 c57 0 137 13 137 21 0 5 -45 9
-100 9 l-100 0 0 -96 0 -97 -77 7 c-42 3 -115 6 -163 6 l-88 0 33 63 c34 64
62 149 66 202 3 32 -32 117 -81 197 l-30 48 160 0 c88 0 163 1 168 3 4 1 8
-41 10 -93 2 -52 7 -99 12 -104 7 -7 10 -6 10 2 0 8 27 12 90 12 50 0 90 4 90
9 0 15 -29 21 -103 21 l-72 0 3 83 4 84 -129 6 c-167 9 -648 9 -656 0z m343
-33 c0 -6 -11 -33 -25 -60 -14 -27 -34 -74 -46 -105 l-21 -55 23 -76 c13 -42
40 -103 61 -136 21 -32 38 -61 38 -63 0 -3 -79 -5 -175 -5 l-175 0 0 68 c0 38
3 150 7 250 l6 181 121 4 c67 1 136 4 154 5 17 1 32 -3 32 -8z m66 -37 c11
-16 35 -54 53 -85 l32 -58 -100 0 c-56 0 -101 2 -101 5 0 13 81 165 88 165 5
0 17 -12 28 -27z m82 -195 l-3 -33 -94 0 c-94 0 -95 0 -102 27 -7 27 -7 27 54
31 161 9 149 11 145 -25z m-13 -80 c-15 -54 -68 -178 -76 -178 -9 0 -89 156
-89 176 0 9 20 14 68 17 37 2 75 4 85 5 15 2 17 -3 12 -20z"/>
<path d="M307 853 c-9 -8 -9 -396 0 -485 l6 -68 386 0 386 0 1 81 c1 44 4 82
6 85 3 2 42 7 87 11 86 6 110 22 39 25 -24 0 -47 2 -53 3 -5 2 -25 3 -42 4
l-33 1 0 70 0 70 63 0 c69 0 107 8 107 21 0 5 -38 9 -85 9 l-85 0 0 84 0 83
-77 7 c-100 8 -698 8 -706 -1z m743 -126 c0 -63 3 -182 7 -266 l6 -151 -24 4
c-13 3 -33 5 -44 5 -20 1 -20 7 -17 248 2 137 5 254 7 261 2 6 18 12 35 12
l30 0 0 -113z m-400 95 c0 -5 -13 -35 -28 -68 -16 -32 -37 -82 -46 -109 -18
-50 -18 -50 8 -128 15 -43 42 -103 61 -133 19 -30 35 -57 35 -59 0 -7 -236 -6
-299 2 l-53 6 6 211 c3 116 6 228 6 249 l0 37 155 0 c85 0 155 -4 155 -8z
m300 -149 c0 -87 3 -202 7 -255 l6 -98 -115 0 -116 0 39 78 c38 74 76 221 61
232 -4 3 -16 25 -27 50 -11 24 -34 68 -52 97 l-32 53 115 0 114 0 0 -157z
m-201 60 l52 -88 -97 -3 c-53 -1 -99 -1 -101 2 -6 6 78 176 87 176 4 0 30 -39
59 -87z m51 -135 c0 -44 -11 -49 -105 -46 -87 3 -89 4 -96 30 -4 15 -4 29 -1
32 3 3 50 6 104 6 95 0 98 -1 98 -22z m-15 -90 c-20 -65 -68 -178 -75 -178
-10 0 -90 156 -90 176 0 12 29 17 133 22 35 2 38 0 32 -20z"/>
</g>
</svg>
