<?xml version="1.0" standalone="no"?>
<!DOCTYPE svg PUBLIC "-//W3C//DTD SVG 20010904//EN"
 "http://www.w3.org/TR/2001/REC-SVG-20010904/DTD/svg10.dtd">
<svg version="1.0" xmlns="http://www.w3.org/2000/svg"
 width="180.000000pt" height="152.000000pt" viewBox="0 0 180.000000 152.000000"
 preserveAspectRatio="xMidYMid meet">
<metadata>
Created by potrace 1.16, written by Peter Selinger 2001-2019
</metadata>
<g transform="translate(0.000000,152.000000) scale(0.100000,-0.100000)"
fill="#000000" stroke="none">
<path d="M870 1190 c-328 -74 -464 -146 -524 -275 -38 -81 -61 -225 -36 -225
6 0 10 16 10 35 0 40 32 143 57 184 32 51 89 103 143 131 49 24 237 90 259 90
4 0 11 -41 15 -92 4 -51 8 -94 10 -95 7 -7 686 84 695 93 2 2 2 6 0 9 -5 4
-341 -20 -410 -30 l-36 -5 5 90 c5 97 -3 121 -42 119 -11 0 -77 -13 -146 -29z
m158 -96 l3 -81 -32 -7 c-62 -12 -61 -14 -58 77 4 78 5 82 29 88 52 14 55 9
58 -77z m-115 -11 c2 -43 4 -79 3 -80 -2 -2 -24 -6 -49 -9 l-47 -7 0 56 c0 76
12 105 47 110 15 2 31 5 34 6 4 0 9 -34 12 -76z"/>
<path d="M546 1043 c-18 -5 -18 -16 -11 -316 4 -172 8 -313 10 -315 6 -7 91
41 135 76 64 50 98 89 126 147 27 56 30 90 10 102 -7 4 -24 28 -36 53 -13 25
-36 65 -53 90 -33 48 -146 171 -156 169 -3 -1 -14 -3 -25 -6z m51 -55 c19 -22
21 -39 26 -265 l5 -243 -28 -20 c-15 -11 -31 -20 -35 -20 -3 0 -5 128 -4 285
1 157 5 285 8 285 4 0 17 -10 28 -22z m142 -177 c56 -84 63 -119 35 -174 -19
-36 -66 -93 -101 -120 l-23 -18 0 212 c0 245 -3 241 89 100z"/>
<path d="M302 591 c10 -165 94 -236 332 -276 100 -17 313 -20 240 -4 l-42 10
5 87 c3 48 7 89 9 91 2 2 19 0 39 -3 l35 -7 1 -87 c1 -48 1 -90 0 -95 0 -4 3
-7 8 -7 11 0 21 60 21 133 0 59 3 63 48 51 20 -6 22 -13 23 -68 2 -72 12 -125
21 -110 4 5 8 47 9 93 l2 82 36 -5 c20 -3 101 -10 181 -16 80 -6 164 -12 188
-15 23 -2 42 -1 42 4 0 5 -48 16 -107 25 -95 15 -565 76 -585 76 -7 0 -3 -121
7 -198 l4 -34 -52 7 c-105 14 -244 48 -302 74 -97 44 -135 105 -135 219 0 41
-3 52 -16 52 -14 0 -16 -11 -12 -79z"/>
</g>
</svg>
