<?xml version="1.0" standalone="no"?>
<!DOCTYPE svg PUBLIC "-//W3C//DTD SVG 20010904//EN"
 "http://www.w3.org/TR/2001/REC-SVG-20010904/DTD/svg10.dtd">
<svg version="1.0" xmlns="http://www.w3.org/2000/svg"
 width="180.000000pt" height="152.000000pt" viewBox="0 0 180.000000 152.000000"
 preserveAspectRatio="xMidYMid meet">
<metadata>
Created by potrace 1.16, written by Peter Selinger 2001-2019
</metadata>
<g transform="translate(0.000000,152.000000) scale(0.100000,-0.100000)"
fill="#000000" stroke="none">
<path d="M870 1190 c-328 -74 -464 -146 -524 -275 -26 -55 -46 -138 -46 -190
0 -54 17 -41 23 18 13 126 91 243 196 296 50 25 238 91 260 91 4 0 11 -41 15
-92 4 -51 8 -94 10 -95 7 -7 686 84 695 93 2 2 2 6 0 9 -5 4 -341 -20 -410
-30 l-36 -5 5 90 c5 97 -3 121 -42 119 -11 0 -77 -13 -146 -29z m154 -26 c3
-9 6 -46 6 -84 l0 -67 -31 -7 c-62 -12 -61 -13 -58 77 4 78 5 82 29 88 41 11
48 10 54 -7z m-111 -81 c2 -43 4 -79 3 -80 -2 -2 -24 -6 -49 -9 l-47 -7 0 56
c0 76 12 105 47 110 15 2 31 5 34 6 4 0 9 -34 12 -76z"/>
<path d="M480 801 l0 -50 -42 -3 c-55 -4 -56 -22 -2 -26 47 -3 54 -15 54 -89
0 -24 5 -43 10 -43 6 0 10 28 10 65 0 49 3 65 14 65 10 0 16 -19 22 -67 8 -76
22 -64 23 20 1 40 4 47 21 47 18 0 20 -7 20 -65 0 -37 4 -65 10 -65 6 0 10 28
10 65 0 49 3 65 14 65 19 0 26 -22 26 -81 0 -27 5 -49 10 -49 6 0 10 28 10 65
0 51 3 65 15 65 12 0 15 -14 15 -65 0 -37 4 -65 10 -65 6 0 10 28 10 65 0 51
3 65 15 65 12 0 15 -14 15 -65 0 -37 4 -65 10 -65 6 0 10 28 10 65 l0 65 93 0
c50 0 144 3 207 7 140 8 114 20 -50 23 l-115 1 115 25 c63 13 127 27 143 30
l27 7 0 -61 c0 -71 20 -97 21 -28 0 25 1 62 2 81 0 39 -10 56 -22 36 -9 -14
-314 -70 -383 -71 -38 0 -38 0 -38 41 0 28 -4 39 -12 36 -7 -2 -13 -21 -14
-42 0 -21 -6 -41 -12 -43 -8 -2 -12 12 -12 43 0 33 -4 45 -12 42 -8 -2 -13
-21 -13 -45 0 -27 -5 -42 -12 -42 -9 0 -13 16 -13 45 0 33 -4 45 -14 45 -11 0
-16 -14 -18 -47 -4 -67 -28 -70 -28 -3 0 37 -4 50 -12 47 -8 -2 -13 -22 -14
-48 0 -33 -5 -45 -17 -47 -14 -3 -17 5 -17 47 0 39 -4 51 -15 51 -11 0 -15
-12 -15 -50 0 -38 -4 -50 -15 -50 -11 0 -15 12 -15 50 0 38 -4 50 -15 50 -11
0 -15 -12 -15 -49z"/>
<path d="M302 591 c10 -165 94 -236 332 -276 100 -17 313 -20 240 -4 l-42 10
5 87 c3 48 7 89 9 91 2 2 19 0 39 -3 l35 -7 0 -94 c0 -96 12 -126 24 -57 3 20
6 63 6 95 0 59 3 63 48 51 20 -6 22 -13 23 -68 2 -72 12 -125 21 -110 4 5 8
47 9 93 l2 82 36 -5 c20 -3 101 -10 181 -16 80 -6 164 -12 188 -15 23 -2 42
-1 42 4 0 5 -48 16 -107 25 -95 15 -565 76 -585 76 -7 0 -3 -121 7 -198 l4
-34 -52 7 c-105 14 -244 48 -302 74 -97 44 -135 105 -135 219 0 41 -3 52 -16
52 -14 0 -16 -11 -12 -79z"/>
</g>
</svg>
