<?xml version="1.0" standalone="no"?>
<!DOCTYPE svg PUBLIC "-//W3C//DTD SVG 20010904//EN"
 "http://www.w3.org/TR/2001/REC-SVG-20010904/DTD/svg10.dtd">
<svg version="1.0" xmlns="http://www.w3.org/2000/svg"
 width="156.000000pt" height="118.000000pt" viewBox="0 0 156.000000 118.000000"
 preserveAspectRatio="xMidYMid meet">
<metadata>
Created by potrace 1.16, written by Peter Selinger 2001-2019
</metadata>
<g transform="translate(0.000000,118.000000) scale(0.100000,-0.100000)"
fill="#000000" stroke="none">
<path d="M307 873 c-9 -8 -9 -382 0 -490 l6 -83 241 1 c133 1 306 4 386 8
l144 6 1 25 c1 14 2 53 3 88 l2 62 48 0 c63 0 122 11 122 21 0 10 -153 12
-189 2 -23 -6 -24 -7 -17 -96 l7 -90 -137 6 c-75 4 -241 7 -367 7 l-230 0 8
248 c4 136 8 248 9 249 0 0 159 4 352 8 l351 8 7 -79 c4 -43 12 -84 18 -91 12
-15 188 -19 188 -4 0 12 -52 21 -119 21 l-57 0 4 83 4 84 -143 6 c-188 9 -634
9 -642 0z"/>
<path d="M415 720 c-5 -7 11 -30 40 -60 l48 -49 -47 -55 c-59 -69 -43 -83 18
-15 25 28 50 48 56 44 5 -3 10 -1 10 4 0 6 10 11 22 11 20 0 18 -4 -17 -40
-52 -53 -36 -65 18 -13 23 22 48 38 56 36 8 -4 11 -1 7 6 -5 7 1 11 15 11 21
0 20 -3 -16 -40 -21 -22 -35 -43 -31 -47 4 -4 25 11 47 35 22 23 45 40 50 36
6 -4 -1 -18 -17 -35 -44 -46 -18 -47 29 -1 48 47 71 46 31 -2 -19 -21 -22 -32
-13 -35 7 -2 29 16 50 40 37 43 37 44 58 25 22 -20 30 -9 9 12 -9 9 0 12 43
13 29 1 97 5 149 9 l95 7 -95 2 c-122 3 -173 9 -181 22 -4 7 -13 7 -26 -2 -18
-11 -24 -8 -53 24 -18 20 -39 37 -48 37 -12 0 -9 -7 11 -28 53 -55 21 -59 -35
-5 -44 43 -65 37 -23 -7 42 -44 9 -38 -37 7 -44 43 -65 37 -23 -7 l29 -30 -27
0 c-18 0 -35 11 -54 35 -15 19 -34 35 -40 35 -20 0 -15 -11 20 -48 l32 -35
-30 7 c-18 4 -48 26 -76 58 -32 34 -49 47 -54 38z"/>
</g>
</svg>
