<?xml version="1.0" standalone="no"?>
<!DOCTYPE svg PUBLIC "-//W3C//DTD SVG 20010904//EN"
 "http://www.w3.org/TR/2001/REC-SVG-20010904/DTD/svg10.dtd">
<svg version="1.0" xmlns="http://www.w3.org/2000/svg"
 width="156.000000pt" height="118.000000pt" viewBox="0 0 156.000000 118.000000"
 preserveAspectRatio="xMidYMid meet">
<metadata>
Created by potrace 1.16, written by Peter Selinger 2001-2019
</metadata>
<g transform="translate(0.000000,118.000000) scale(0.100000,-0.100000)"
fill="#000000" stroke="none">
<path d="M307 873 c-9 -8 -9 -382 0 -490 l6 -83 241 1 c133 1 306 4 386 8
l144 6 1 30 c1 17 2 56 3 88 l2 57 48 0 c26 0 64 3 85 6 69 12 37 24 -63 24
l-100 0 0 -97 0 -96 -137 6 c-75 4 -240 7 -366 7 l-230 0 8 248 c4 136 8 248
9 249 0 0 162 4 359 8 l357 8 0 -96 c0 -53 4 -99 10 -102 6 -3 10 -1 10 4 0 7
33 11 90 11 89 0 119 12 59 24 -17 3 -57 6 -88 6 l-56 0 3 83 4 84 -144 6
c-187 9 -633 9 -641 0z"/>
<path d="M537 653 l-38 -26 -29 21 c-34 26 -40 27 -40 7 0 -8 10 -20 22 -26
21 -12 21 -12 -12 -39 -43 -35 -22 -51 22 -17 l31 25 50 -33 49 -33 46 29 46
29 210 1 c116 0 220 4 231 8 23 9 -159 21 -328 21 -114 0 -118 1 -159 30 -22
17 -46 30 -52 29 -6 0 -28 -12 -49 -26z m83 -19 c22 -15 40 -28 40 -30 0 -2
-18 -13 -41 -25 l-41 -20 -27 23 c-14 13 -28 24 -31 26 -4 2 50 51 58 52 1 0
20 -12 42 -26z"/>
</g>
</svg>
