<?xml version="1.0" standalone="no"?>
<!DOCTYPE svg PUBLIC "-//W3C//DTD SVG 20010904//EN"
 "http://www.w3.org/TR/2001/REC-SVG-20010904/DTD/svg10.dtd">
<svg version="1.0" xmlns="http://www.w3.org/2000/svg"
 width="180.000000pt" height="152.000000pt" viewBox="0 0 180.000000 152.000000"
 preserveAspectRatio="xMidYMid meet">
<metadata>
Created by potrace 1.16, written by Peter Selinger 2001-2019
</metadata>
<g transform="translate(0.000000,152.000000) scale(0.100000,-0.100000)"
fill="#000000" stroke="none">
<path d="M870 1190 c-328 -74 -464 -146 -524 -275 -38 -81 -61 -225 -36 -225
6 0 10 16 10 35 0 40 32 143 57 184 32 51 89 103 143 131 49 24 237 90 259 90
4 0 11 -41 15 -92 4 -51 8 -94 10 -95 7 -7 686 84 695 93 2 2 2 6 0 9 -5 4
-341 -20 -410 -30 l-36 -5 5 90 c5 97 -3 121 -42 119 -11 0 -77 -13 -146 -29z
m158 -96 l3 -81 -32 -7 c-62 -12 -61 -14 -58 77 4 78 5 82 29 88 52 14 55 9
58 -77z m-115 -11 c2 -43 4 -79 3 -80 -2 -2 -24 -6 -49 -9 l-47 -7 0 56 c0 76
12 105 47 110 15 2 31 5 34 6 4 0 9 -34 12 -76z"/>
<path d="M678 876 l-3 -74 -74 54 c-57 41 -78 51 -88 43 -18 -15 -13 -21 72
-80 41 -28 75 -54 75 -56 0 -3 -42 -4 -92 -2 -88 4 -93 3 -93 -16 0 -19 6 -20
83 -17 58 2 82 0 77 -7 -3 -6 -34 -30 -68 -53 -34 -22 -64 -43 -66 -45 -3 -2
2 -10 10 -18 13 -13 24 -8 89 40 l75 54 3 -82 c1 -45 5 -93 9 -107 6 -23 7
-21 14 15 4 22 8 67 9 100 2 103 2 103 108 33 51 -33 95 -58 98 -55 3 3 -29
33 -72 66 l-77 61 59 1 c56 0 155 14 144 19 -3 1 -51 5 -108 9 l-102 6 81 64
c44 35 78 66 75 69 -3 3 -47 -23 -98 -56 l-93 -62 -3 85 c-2 76 -5 85 -22 85
-17 0 -20 -9 -22 -74z"/>
<path d="M302 591 c10 -165 94 -236 332 -276 100 -17 313 -20 240 -4 l-42 10
5 87 c3 48 7 89 9 91 2 2 19 0 39 -3 l35 -7 1 -87 c1 -48 1 -90 0 -95 0 -4 3
-7 8 -7 11 0 21 60 21 133 0 59 3 63 48 51 20 -6 22 -13 23 -68 2 -72 12 -125
21 -110 4 5 8 47 9 93 l2 82 36 -5 c20 -3 101 -10 181 -16 80 -6 164 -12 188
-15 23 -2 42 -1 42 4 0 5 -48 16 -107 25 -95 15 -565 76 -585 76 -7 0 -3 -121
7 -198 l4 -34 -52 7 c-105 14 -244 48 -302 74 -97 44 -135 105 -135 219 0 41
-3 52 -16 52 -14 0 -16 -11 -12 -79z"/>
</g>
</svg>
