<?xml version="1.0" standalone="no"?>
<!DOCTYPE svg PUBLIC "-//W3C//DTD SVG 20010904//EN"
 "http://www.w3.org/TR/2001/REC-SVG-20010904/DTD/svg10.dtd">
<svg version="1.0" xmlns="http://www.w3.org/2000/svg"
 width="156.000000pt" height="118.000000pt" viewBox="0 0 156.000000 118.000000"
 preserveAspectRatio="xMidYMid meet">
<metadata>
Created by potrace 1.16, written by Peter Selinger 2001-2019
</metadata>
<g transform="translate(0.000000,118.000000) scale(0.100000,-0.100000)"
fill="#000000" stroke="none">
<path d="M307 873 c-9 -8 -9 -382 0 -492 l6 -84 384 4 c210 2 383 6 383 9 1 3
2 37 4 75 2 39 4 78 5 88 1 13 11 17 49 17 63 0 122 11 122 21 0 5 -38 9 -85
9 l-85 0 0 75 0 75 85 0 c85 0 112 12 54 24 -17 3 -56 6 -85 6 l-54 0 0 83 0
84 -142 6 c-187 9 -633 9 -641 0z m473 -26 c0 -3 -26 -20 -57 -37 -32 -18
-103 -62 -159 -98 l-101 -66 5 -45 c2 -25 5 -46 6 -47 0 0 42 -30 91 -66 50
-36 117 -83 149 -104 l59 -39 -218 -3 c-120 -1 -220 0 -223 2 -2 3 -1 115 3
250 l7 245 152 3 c83 2 181 4 219 6 37 2 67 1 67 -1z m270 -105 c0 -60 3 -177
7 -260 l6 -152 -69 0 c-38 0 -98 3 -134 6 l-65 6 0 254 0 254 128 0 127 0 0
-108z m-280 -8 l0 -85 -115 3 c-63 2 -115 5 -115 8 1 4 213 152 228 159 1 0 2
-38 2 -85z m-260 -129 c0 -14 -4 -25 -10 -25 -5 0 -10 11 -10 25 0 14 5 25 10
25 6 0 10 -11 10 -25z m42 0 c4 -17 1 -25 -8 -25 -8 0 -14 11 -14 25 0 14 4
25 9 25 5 0 11 -11 13 -25z m34 -23 c-11 -10 -15 4 -8 28 l7 25 3 -23 c2 -13
1 -26 -2 -30z m48 32 c10 -25 7 -34 -9 -34 -9 0 -15 9 -15 25 0 28 15 34 24 9z
m136 -9 c0 -24 -3 -25 -55 -25 -52 0 -55 1 -55 25 0 24 3 25 55 25 52 0 55 -1
55 -25z m0 -68 c0 -13 3 -59 7 -102 l6 -78 -126 94 c-69 52 -126 97 -127 102
0 4 54 7 120 7 119 0 120 0 120 -23z"/>
</g>
</svg>
