<?xml version="1.0" standalone="no"?>
<!DOCTYPE svg PUBLIC "-//W3C//DTD SVG 20010904//EN"
 "http://www.w3.org/TR/2001/REC-SVG-20010904/DTD/svg10.dtd">
<svg version="1.0" xmlns="http://www.w3.org/2000/svg"
 width="119.000000pt" height="131.000000pt" viewBox="0 0 119.000000 131.000000"
 preserveAspectRatio="xMidYMid meet">
<metadata>
Created by potrace 1.16, written by Peter Selinger 2001-2019
</metadata>
<g transform="translate(0.000000,131.000000) scale(0.100000,-0.100000)"
fill="#000000" stroke="none">
<path d="M584 848 l-280 -161 1 -40 1 -40 268 -154 c147 -85 273 -152 279
-150 12 4 -206 152 -385 261 -71 43 -128 81 -128 84 1 8 223 143 227 138 2 -2
4 -61 5 -132 0 -71 2 -132 4 -135 6 -11 135 10 179 30 25 11 56 31 69 44 l24
24 6 -116 c4 -64 10 -136 13 -161 6 -41 7 -38 15 45 11 124 6 617 -7 621 -5 2
-136 -69 -291 -158z m261 -7 l0 -130 -26 25 c-31 29 -105 59 -172 69 l-48 7
118 79 c65 44 120 79 123 79 3 0 5 -58 5 -129z m-92 -83 c143 -61 104 -177
-72 -217 l-41 -9 23 32 c32 45 32 151 -2 196 l-23 32 33 -7 c19 -4 56 -16 82
-27z"/>
</g>
</svg>
