<?xml version="1.0" standalone="no"?>
<!DOCTYPE svg PUBLIC "-//W3C//DTD SVG 20010904//EN"
 "http://www.w3.org/TR/2001/REC-SVG-20010904/DTD/svg10.dtd">
<svg version="1.0" xmlns="http://www.w3.org/2000/svg"
 width="156.000000pt" height="118.000000pt" viewBox="0 0 156.000000 118.000000"
 preserveAspectRatio="xMidYMid meet">
<metadata>
Created by potrace 1.16, written by Peter Selinger 2001-2019
</metadata>
<g transform="translate(0.000000,118.000000) scale(0.100000,-0.100000)"
fill="#000000" stroke="none">
<path d="M307 873 c-9 -8 -9 -382 0 -491 l6 -83 251 3 c138 1 312 5 386 8
l134 5 1 25 c1 14 2 53 3 88 l2 62 48 0 c63 0 122 11 122 21 0 10 -153 12
-189 2 -23 -6 -24 -7 -17 -96 l7 -90 -148 6 c-81 4 -246 7 -367 7 l-219 0 8
248 c4 136 8 248 9 249 0 0 159 4 352 8 l351 8 7 -79 c4 -43 12 -84 18 -91 12
-15 188 -19 188 -4 0 12 -52 21 -119 21 l-57 0 4 83 4 84 -143 6 c-188 9 -634
9 -642 0z"/>
<path d="M799 762 c-134 -92 -169 -119 -162 -126 14 -14 -30 -4 -72 16 -40 19
-47 20 -56 8 -10 -15 -5 -147 6 -158 3 -4 29 6 56 22 44 24 52 26 62 13 17
-21 247 -190 252 -185 10 10 18 468 8 468 -5 0 -47 -26 -94 -58z m73 -182 c2
-110 2 -200 0 -200 -6 0 -152 125 -152 131 0 3 11 11 25 17 41 19 28 32 -15
15 -37 -15 -41 -15 -60 2 -11 10 -20 31 -20 46 0 23 16 40 103 108 56 43 105
80 109 80 4 1 9 -89 10 -199z m-244 8 c2 -10 -15 -22 -45 -34 -26 -10 -50 -20
-53 -22 -3 -1 -3 22 -2 52 l4 53 46 -17 c26 -10 48 -24 50 -32z"/>
<path d="M776 671 c6 -6 28 -14 50 -18 29 -4 36 -3 28 6 -6 6 -28 14 -50 18
-29 4 -36 3 -28 -6z"/>
<path d="M713 633 c-28 -14 -44 -33 -28 -33 12 0 75 35 75 42 0 11 -10 9 -47
-9z"/>
<path d="M775 632 c6 -6 28 -14 50 -17 30 -6 37 -5 29 4 -6 7 -28 14 -50 18
-27 4 -36 2 -29 -5z"/>
<path d="M718 593 c-36 -15 -51 -33 -28 -33 18 0 70 30 70 40 0 6 -1 10 -2 9
-2 -1 -20 -8 -40 -16z"/>
<path d="M772 589 c4 -13 77 -34 86 -24 5 4 -18 15 -67 30 -17 5 -22 4 -19 -6z"/>
<path d="M770 521 c0 -12 79 -31 85 -20 3 4 -11 13 -32 18 -46 13 -53 13 -53
2z"/>
</g>
</svg>
