<?xml version="1.0" standalone="no"?>
<!DOCTYPE svg PUBLIC "-//W3C//DTD SVG 20010904//EN"
 "http://www.w3.org/TR/2001/REC-SVG-20010904/DTD/svg10.dtd">
<svg version="1.0" xmlns="http://www.w3.org/2000/svg"
 width="156.000000pt" height="118.000000pt" viewBox="0 0 156.000000 118.000000"
 preserveAspectRatio="xMidYMid meet">
<metadata>
Created by potrace 1.16, written by Peter Selinger 2001-2019
</metadata>
<g transform="translate(0.000000,118.000000) scale(0.100000,-0.100000)"
fill="#000000" stroke="none">
<path d="M307 873 c-9 -8 -9 -382 0 -492 l6 -84 384 4 c245 3 383 8 384 14 1
6 0 19 -1 29 -1 11 1 48 5 83 l7 63 46 0 c63 0 122 11 122 21 0 5 -38 9 -85 9
l-85 0 0 75 0 75 85 0 c85 0 112 12 54 24 -17 3 -56 6 -85 6 l-54 0 0 83 0 84
-142 6 c-187 9 -633 9 -641 0z m747 -279 c4 -141 5 -258 4 -259 -2 -2 -166 -1
-366 3 l-364 5 6 216 c3 119 5 231 6 248 l0 33 168 3 c92 1 251 4 353 5 l186
2 7 -256z"/>
<path d="M390 747 c0 -19 9 -22 118 -38 51 -7 92 -16 92 -21 0 -11 -35 -10
-125 3 -69 11 -98 8 -82 -7 4 -4 171 -32 205 -34 2 0 2 -8 0 -17 -3 -16 -15
-18 -106 -15 -60 2 -102 0 -102 -6 0 -9 99 -22 173 -22 25 0 37 -5 37 -14 0
-19 -32 -26 -122 -26 -62 0 -78 -3 -78 -15 0 -12 16 -13 100 -8 72 4 100 3
100 -5 0 -7 5 -12 10 -12 6 0 10 6 10 13 0 10 32 17 113 26 61 7 120 15 130
17 10 3 17 0 17 -8 0 -13 -117 -36 -382 -75 -76 -11 -108 -20 -108 -30 0 -7
10 -13 23 -13 31 0 257 41 451 81 l156 33 0 61 0 61 -202 23 c-181 20 -320 40
-400 57 -21 4 -28 2 -28 -9z m448 -74 c38 -5 42 -8 42 -34 l0 -29 -130 0
c-124 0 -130 1 -130 20 0 20 5 20 128 15 143 -5 120 8 -34 20 -53 4 -94 11
-94 17 0 10 113 5 218 -9z m131 -9 c30 -6 31 -9 31 -55 0 -41 -3 -49 -19 -49
-10 0 -33 -3 -50 -6 l-31 -6 0 61 c0 67 2 68 69 55z m-89 -73 c0 -4 -35 -11
-77 -15 -43 -4 -102 -10 -130 -13 -44 -5 -53 -3 -53 10 0 13 14 17 73 20 154
7 187 7 187 -2z"/>
</g>
</svg>
