<?xml version="1.0" standalone="no"?>
<!DOCTYPE svg PUBLIC "-//W3C//DTD SVG 20010904//EN"
 "http://www.w3.org/TR/2001/REC-SVG-20010904/DTD/svg10.dtd">
<svg version="1.0" xmlns="http://www.w3.org/2000/svg"
 width="100.000000pt" height="189.000000pt" viewBox="0 0 100.000000 189.000000"
 preserveAspectRatio="xMidYMid meet">
<metadata>
Created by potrace 1.16, written by Peter Selinger 2001-2019
</metadata>
<g transform="translate(0.000000,189.000000) scale(0.100000,-0.100000)"
fill="#000000" stroke="none">
<path d="M505 1574 c-49 -25 -84 -65 -117 -131 -37 -76 -49 -176 -24 -208 14
-19 15 -16 16 47 0 115 63 236 140 268 16 7 30 18 30 24 0 7 3 7 8 1 4 -6 21
-15 37 -20 48 -16 70 -72 70 -175 0 -74 -4 -92 -29 -140 -15 -30 -34 -62 -41
-70 -10 -12 -8 -57 11 -225 28 -254 29 -271 11 -257 -21 18 -86 23 -179 14
-85 -8 -87 -7 -91 15 -5 28 -4 28 131 44 62 7 112 17 112 22 0 5 -10 7 -22 4
-13 -3 -63 -7 -113 -8 -49 -1 -96 -7 -104 -13 -12 -9 -13 -3 -7 41 3 28 11 65
17 81 10 29 14 31 77 37 116 12 138 23 46 24 -79 1 -82 2 -88 26 -4 14 -4 30
-1 35 3 5 41 12 85 16 109 9 105 28 -5 22 -82 -4 -86 -4 -83 16 3 22 23 29
123 44 l60 9 -83 2 -84 1 8 33 c11 51 21 147 16 152 -14 13 -20 0 -27 -52 -4
-31 -16 -90 -27 -131 -12 -47 -17 -89 -13 -111 4 -27 -1 -51 -21 -95 -35 -76
-41 -163 -17 -231 18 -49 18 -51 -5 -118 -19 -55 -22 -84 -20 -160 l3 -92 40
3 c22 2 102 9 178 15 128 12 137 12 137 -4 0 -10 4 -20 9 -23 12 -8 20 54 11
79 -4 11 -10 76 -14 145 -4 69 -17 238 -29 377 l-22 251 27 31 c58 65 78 243
37 328 -33 69 -106 93 -174 57z m112 -909 c27 -18 32 -42 6 -29 -10 5 -73 9
-140 8 -68 0 -123 3 -123 8 0 12 15 17 85 27 74 12 141 6 172 -14z m-8 -46
c21 -7 31 -18 31 -31 0 -16 -4 -18 -17 -12 -10 5 -73 9 -140 8 -113 -1 -140 4
-113 21 36 22 189 31 239 14z m6 -63 c29 -13 35 -20 35 -45 0 -17 -1 -31 -2
-31 -2 0 -25 7 -53 16 -82 25 -270 6 -250 -26 2 -3 42 0 88 8 66 11 97 11 139
3 70 -15 76 -20 84 -68 8 -51 13 -49 -183 -58 l-153 -7 0 37 c0 48 30 176 39
170 5 -2 28 -1 52 4 70 14 167 12 204 -3z"/>
<path d="M445 421 c-79 -5 -100 -9 -103 -21 -2 -14 8 -14 90 -4 51 7 112 13
136 13 23 1 42 6 42 11 0 6 -15 9 -32 8 -18 -1 -78 -4 -133 -7z"/>
<path d="M545 1423 c-41 -8 -76 -26 -86 -45 -6 -11 -9 -43 -8 -72 1 -29 -1
-57 -4 -63 -12 -20 8 -23 70 -12 l60 11 7 60 c12 117 8 129 -39 121z m15 -92
c0 -63 -2 -69 -22 -75 -54 -14 -63 -9 -62 37 2 72 3 76 32 91 48 26 52 22 52
-53z"/>
</g>
</svg>
