<?xml version="1.0" standalone="no"?>
<!DOCTYPE svg PUBLIC "-//W3C//DTD SVG 20010904//EN"
 "http://www.w3.org/TR/2001/REC-SVG-20010904/DTD/svg10.dtd">
<svg version="1.0" xmlns="http://www.w3.org/2000/svg"
 width="94.000000pt" height="161.000000pt" viewBox="0 0 94.000000 161.000000"
 preserveAspectRatio="xMidYMid meet">
<metadata>
Created by potrace 1.16, written by Peter Selinger 2001-2019
</metadata>
<g transform="translate(0.000000,161.000000) scale(0.100000,-0.100000)"
fill="#000000" stroke="none">
<path d="M316 1175 c5 -102 4 -135 -5 -135 -9 0 -12 -57 -10 -231 l2 -231 156
4 c86 2 162 7 169 11 9 6 12 49 12 160 0 240 -12 557 -22 557 -4 0 -8 -61 -8
-135 l0 -135 -30 0 -30 0 0 135 c0 83 -4 135 -10 135 -6 0 -10 -52 -10 -135
l0 -135 -25 0 -25 0 0 135 c0 83 -4 135 -10 135 -6 0 -10 -52 -10 -135 l0
-135 -30 0 -30 0 0 135 c0 83 -4 135 -10 135 -6 0 -10 -52 -10 -135 0 -128 -1
-135 -20 -135 -19 0 -20 7 -20 135 0 116 -2 135 -16 135 -14 0 -15 -16 -8
-135z m294 -220 l0 -65 -50 0 -50 0 0 54 c0 37 -4 56 -14 59 -19 7 -93 -73
-102 -110 -4 -15 -16 -47 -27 -71 -22 -50 -17 -66 9 -27 l17 26 28 -51 28 -51
-25 -54 c-23 -54 -25 -55 -65 -55 l-42 0 6 98 c4 53 7 143 7 199 l0 102 68 4
c37 2 100 4 140 5 l72 2 0 -65z m-130 -25 c0 -38 -2 -40 -30 -40 -29 0 -30 2
-19 23 12 22 39 57 46 57 1 0 3 -18 3 -40z m0 -94 c0 -18 3 -54 6 -80 4 -30 3
-46 -4 -46 -12 0 -57 89 -68 133 -6 26 -4 27 30 27 34 0 36 -2 36 -34z m132
17 c3 -10 6 -71 7 -135 l2 -118 -40 0 c-28 0 -41 4 -41 14 0 7 -9 33 -19 57
-16 36 -19 58 -14 122 l6 77 47 0 c37 0 49 -4 52 -17z m-105 -203 l21 -40 -54
0 -54 0 20 40 c11 22 26 40 33 40 6 0 22 -18 34 -40z"/>
<path d="M314 478 c3 -50 6 -111 6 -135 0 -27 4 -42 10 -38 6 4 10 60 10 136
0 113 -2 129 -16 129 -15 0 -16 -11 -10 -92z"/>
<path d="M380 435 c0 -83 4 -135 10 -135 6 0 10 52 10 135 0 83 -4 135 -10
135 -6 0 -10 -52 -10 -135z"/>
<path d="M460 441 c0 -76 4 -132 10 -136 6 -4 10 42 10 129 0 84 -4 136 -10
136 -6 0 -10 -50 -10 -129z"/>
<path d="M530 435 c0 -83 4 -135 10 -135 6 0 10 52 10 135 0 83 -4 135 -10
135 -6 0 -10 -52 -10 -135z"/>
<path d="M610 441 c0 -76 4 -132 10 -136 6 -4 10 42 10 129 0 84 -4 136 -10
136 -6 0 -10 -50 -10 -129z"/>
</g>
</svg>
