<?xml version="1.0" standalone="no"?>
<!DOCTYPE svg PUBLIC "-//W3C//DTD SVG 20010904//EN"
 "http://www.w3.org/TR/2001/REC-SVG-20010904/DTD/svg10.dtd">
<svg version="1.0" xmlns="http://www.w3.org/2000/svg"
 width="94.000000pt" height="161.000000pt" viewBox="0 0 94.000000 161.000000"
 preserveAspectRatio="xMidYMid meet">
<metadata>
Created by potrace 1.16, written by Peter Selinger 2001-2019
</metadata>
<g transform="translate(0.000000,161.000000) scale(0.100000,-0.100000)"
fill="#000000" stroke="none">
<path d="M316 1175 c5 -102 4 -135 -5 -135 -9 0 -12 -57 -10 -231 l2 -231 156
4 c86 2 162 7 169 11 9 6 12 49 12 160 0 240 -12 557 -22 557 -4 0 -8 -61 -8
-135 l0 -135 -30 0 -30 0 0 135 c0 83 -4 135 -10 135 -6 0 -10 -52 -10 -135
l0 -135 -25 0 -25 0 0 135 c0 83 -4 135 -10 135 -6 0 -10 -52 -10 -135 l0
-135 -30 0 -30 0 0 135 c0 83 -4 135 -10 135 -6 0 -10 -52 -10 -135 0 -128 -1
-135 -20 -135 -19 0 -20 7 -20 135 0 116 -2 135 -16 135 -14 0 -15 -16 -8
-135z m145 -172 c-19 -17 -65 -95 -112 -191 -11 -24 -21 -42 -22 -40 -1 2 -1
56 1 120 l3 117 67 4 c37 2 71 4 76 5 4 1 -1 -6 -13 -15z m150 -65 c0 -46 2
-92 4 -103 l4 -20 -14 20 c-8 11 -19 25 -25 32 -5 7 -10 16 -10 21 0 4 -16 34
-35 66 -19 32 -35 60 -35 62 0 2 25 4 55 4 l55 0 1 -82z m-65 -50 l18 -39 -37
-72 -36 -72 0 140 -1 140 19 -29 c11 -16 27 -46 37 -68z m-78 -115 l-3 -68
-32 62 c-18 34 -33 69 -33 78 0 17 35 90 54 114 13 16 19 -69 14 -186z m-44
-34 l33 -56 -19 -37 c-18 -34 -21 -36 -69 -36 l-50 0 2 75 c1 52 6 75 14 75 7
0 18 14 26 32 10 24 15 28 21 17 5 -8 23 -39 42 -70z m179 50 c12 -22 17 -53
17 -110 l0 -79 -32 0 c-43 0 -53 8 -71 52 -16 37 -15 38 19 95 19 31 34 60 34
65 0 17 16 6 33 -23z m-103 -148 c15 -28 13 -31 -20 -31 -16 0 -30 3 -30 6 0
12 21 44 30 44 5 0 14 -9 20 -19z"/>
<path d="M314 478 c3 -50 6 -111 6 -135 0 -27 4 -42 10 -38 6 4 10 60 10 136
0 113 -2 129 -16 129 -15 0 -16 -11 -10 -92z"/>
<path d="M380 435 c0 -83 4 -135 10 -135 6 0 10 52 10 135 0 83 -4 135 -10
135 -6 0 -10 -52 -10 -135z"/>
<path d="M460 441 c0 -76 4 -132 10 -136 6 -4 10 42 10 129 0 84 -4 136 -10
136 -6 0 -10 -50 -10 -129z"/>
<path d="M530 435 c0 -83 4 -135 10 -135 6 0 10 52 10 135 0 83 -4 135 -10
135 -6 0 -10 -52 -10 -135z"/>
<path d="M610 441 c0 -76 4 -132 10 -136 6 -4 10 42 10 129 0 84 -4 136 -10
136 -6 0 -10 -50 -10 -129z"/>
</g>
</svg>
