<?xml version="1.0" standalone="no"?>
<!DOCTYPE svg PUBLIC "-//W3C//DTD SVG 20010904//EN"
 "http://www.w3.org/TR/2001/REC-SVG-20010904/DTD/svg10.dtd">
<svg version="1.0" xmlns="http://www.w3.org/2000/svg"
 width="152.000000pt" height="147.000000pt" viewBox="0 0 152.000000 147.000000"
 preserveAspectRatio="xMidYMid meet">
<metadata>
Created by potrace 1.16, written by Peter Selinger 2001-2019
</metadata>
<g transform="translate(0.000000,147.000000) scale(0.100000,-0.100000)"
fill="#000000" stroke="none">
<path d="M830 1154 c-110 -16 -253 -55 -311 -85 -53 -27 -117 -92 -151 -155
-33 -60 -71 -194 -66 -232 3 -24 5 -22 16 18 7 25 21 67 31 95 17 47 20 50 71
63 29 7 54 11 57 9 2 -3 1 -16 -2 -30 -5 -20 -20 -30 -66 -47 -32 -12 -59 -26
-59 -31 0 -9 34 -4 78 12 36 14 42 11 42 -18 -1 -24 -11 -34 -70 -68 -39 -22
-78 -39 -87 -37 -14 3 -15 -4 -10 -51 6 -62 42 -140 84 -179 77 -73 234 -109
476 -109 88 0 161 2 163 4 3 2 8 43 11 91 l6 86 83 0 c46 0 85 4 88 9 9 15
-114 23 -302 20 -193 -3 -209 1 -295 60 -119 81 -145 224 -72 404 23 58 19 75
-9 35 -9 -12 -21 -23 -28 -24 -7 -1 -22 -5 -33 -10 -18 -7 -18 -5 3 18 41 45
150 88 279 112 l32 5 3 -86 3 -86 100 2 c165 2 325 13 325 22 0 5 -35 9 -77 9
-121 0 -120 0 -115 75 2 36 1 76 -2 90 -6 23 -11 25 -54 24 -26 -1 -90 -7
-142 -15z m80 -94 l0 -70 -45 0 -45 0 0 64 c0 69 2 72 63 75 27 1 27 1 27 -69z
m88 0 l3 -70 -33 0 -33 0 3 70 c4 68 4 70 30 70 26 0 27 -2 30 -70z m-498
-126 c-9 -25 -20 -33 -63 -46 -29 -9 -53 -15 -54 -14 -2 1 8 17 21 36 15 22
36 38 62 45 21 6 40 11 42 10 1 -1 -3 -15 -8 -31z m-4 -271 c10 -26 6 -33 -43
-85 -29 -31 -53 -62 -53 -68 0 -7 30 12 66 41 61 48 67 51 82 36 15 -16 14
-20 -7 -64 -65 -131 -59 -156 10 -44 l43 69 41 -20 40 -20 -9 -79 -10 -80 -30
7 c-180 39 -273 112 -291 229 l-7 40 74 32 c40 17 76 31 79 32 3 0 10 -11 15
-26z m298 -184 c2 -2 6 -37 10 -77 l6 -72 -57 6 c-32 4 -61 10 -66 13 -4 4 0
39 9 78 l16 70 39 -7 c22 -4 41 -9 43 -11z m214 -76 l3 -83 -41 3 -41 2 2 75
c1 41 4 79 6 83 3 4 19 7 36 5 l32 -3 3 -82z m-108 40 c0 -21 3 -55 6 -75 l7
-38 -43 0 -43 0 7 46 c3 26 6 60 6 75 0 26 4 29 30 29 28 0 30 -3 30 -37z"/>
<path d="M1030 811 c-36 -11 -110 -59 -110 -71 0 -15 10 -12 59 19 25 16 60
32 78 36 29 6 34 3 53 -27 11 -18 20 -50 20 -70 0 -31 -5 -40 -30 -53 -16 -8
-53 -15 -83 -15 -45 0 -61 5 -93 30 -131 100 -149 107 -274 113 -88 4 -110 1
-110 -14 0 -5 45 -9 100 -9 112 0 151 -13 245 -86 55 -42 103 -64 139 -64 37
0 105 30 116 51 27 49 0 142 -46 159 -28 11 -29 11 -64 1z"/>
</g>
</svg>
