<?xml version="1.0" standalone="no"?>
<!DOCTYPE svg PUBLIC "-//W3C//DTD SVG 20010904//EN"
 "http://www.w3.org/TR/2001/REC-SVG-20010904/DTD/svg10.dtd">
<svg version="1.0" xmlns="http://www.w3.org/2000/svg"
 width="156.000000pt" height="118.000000pt" viewBox="0 0 156.000000 118.000000"
 preserveAspectRatio="xMidYMid meet">
<metadata>
Created by potrace 1.16, written by Peter Selinger 2001-2019
</metadata>
<g transform="translate(0.000000,118.000000) scale(0.100000,-0.100000)"
fill="#000000" stroke="none">
<path d="M307 873 c-9 -8 -9 -382 0 -490 l6 -83 241 1 c133 1 306 4 386 8
l144 6 1 30 c1 17 2 56 3 88 l2 57 48 0 c26 0 64 3 85 6 69 12 37 24 -63 24
l-100 0 0 -97 0 -96 -137 6 c-75 4 -223 7 -329 7 l-192 0 5 248 c3 136 6 248
7 249 1 1 147 5 324 9 l322 7 0 -96 c0 -53 4 -99 10 -102 6 -3 10 -1 10 4 0 7
33 11 90 11 89 0 119 12 59 24 -17 3 -57 6 -88 6 l-56 0 3 83 4 84 -144 6
c-187 9 -633 9 -641 0z m73 -260 c0 -126 3 -238 6 -250 6 -20 3 -23 -25 -23
l-31 0 0 68 c0 38 3 151 7 250 6 168 8 182 25 182 17 0 18 -13 18 -227z"/>
<path d="M535 760 c-4 -6 5 -14 19 -20 41 -15 30 -23 -24 -17 l-50 6 1 -42 c1
-23 4 -52 7 -65 7 -23 7 -23 65 17 55 39 90 50 101 33 3 -4 -15 -19 -40 -32
-42 -23 -56 -40 -34 -40 6 0 34 16 64 36 42 27 59 34 81 28 l27 -7 -45 -26
c-25 -14 -44 -30 -43 -36 2 -14 14 -8 68 31 27 19 49 34 51 34 1 0 1 -37 -1
-82 -2 -44 -1 -96 3 -115 l6 -33 67 0 67 0 3 91 c2 50 0 115 -4 145 l-6 54
-42 0 c-24 0 -61 10 -90 25 -27 14 -55 25 -63 25 -25 0 -13 -15 25 -32 30 -13
33 -16 14 -17 -12 -1 -45 10 -72 24 -52 27 -70 31 -70 16 0 -5 15 -15 33 -22
30 -11 30 -13 9 -16 -13 -3 -33 2 -45 9 -42 26 -76 38 -82 28z m28 -70 c34 0
31 -6 -25 -39 l-38 -23 0 37 c0 30 3 36 16 31 9 -3 30 -6 47 -6z m337 -11 c0
-20 -4 -21 -52 -14 -29 3 -82 12 -118 19 l-65 14 118 1 c113 1 117 0 117 -20z
m-37 -35 c57 -10 48 -34 -13 -34 -43 0 -50 3 -50 20 0 22 6 23 63 14z m46
-161 l1 -33 -55 0 c-42 0 -55 3 -55 15 0 11 13 15 53 16 l52 1 -55 11 -55 11
47 6 c66 8 72 20 10 20 -29 0 -52 5 -52 10 0 6 20 10 45 10 25 0 45 5 45 10 0
6 -20 10 -45 10 -60 0 -58 18 3 22 l47 3 7 -40 c3 -22 7 -55 7 -72z"/>
</g>
</svg>
