<?xml version="1.0" standalone="no"?>
<!DOCTYPE svg PUBLIC "-//W3C//DTD SVG 20010904//EN"
 "http://www.w3.org/TR/2001/REC-SVG-20010904/DTD/svg10.dtd">
<svg version="1.0" xmlns="http://www.w3.org/2000/svg"
 width="156.000000pt" height="118.000000pt" viewBox="0 0 156.000000 118.000000"
 preserveAspectRatio="xMidYMid meet">
<metadata>
Created by potrace 1.16, written by Peter Selinger 2001-2019
</metadata>
<g transform="translate(0.000000,118.000000) scale(0.100000,-0.100000)"
fill="#000000" stroke="none">
<path d="M307 873 c-9 -8 -9 -382 0 -490 l6 -83 241 1 c133 1 306 4 386 8
l144 6 1 30 c1 17 2 56 3 88 l2 57 48 0 c26 0 64 3 85 6 69 12 37 24 -63 24
l-100 0 0 -97 0 -96 -137 6 c-75 4 -240 7 -366 7 l-230 0 8 248 c4 136 8 248
9 249 0 0 162 4 359 8 l357 8 0 -96 c0 -53 4 -99 10 -102 6 -3 10 -1 10 4 0 7
33 11 90 11 89 0 119 12 59 24 -17 3 -57 6 -88 6 l-56 0 3 83 4 84 -144 6
c-187 9 -633 9 -641 0z"/>
<path d="M741 678 l3 -101 -152 2 c-120 2 -152 0 -153 -11 -2 -28 3 -103 7
-107 2 -3 21 12 42 32 49 48 87 53 42 5 -10 -12 -17 -26 -13 -31 3 -6 18 4 32
22 14 17 35 31 45 31 18 0 19 -1 1 -20 -25 -28 -10 -38 18 -12 35 33 78 27 45
-6 -9 -9 -8 -12 4 -12 8 0 21 7 28 15 16 20 36 19 44 -1 5 -12 9 -14 20 -5 8
7 35 9 75 5 l61 -7 0 152 0 151 -76 0 -76 0 3 -102z m128 -52 c2 -148 8 -136
-63 -121 l-29 6 23 25 c13 13 33 24 44 25 21 0 21 1 1 8 -11 5 -35 6 -52 3
-26 -4 -33 -1 -33 12 0 12 10 16 45 16 25 0 45 5 45 10 0 6 -20 10 -45 10 -25
0 -45 5 -45 10 0 6 20 10 44 10 25 0 48 5 51 10 4 6 -13 10 -44 10 -28 0 -51
5 -51 10 0 6 20 10 45 10 25 0 45 5 45 10 0 6 -20 10 -45 10 -25 0 -45 5 -45
10 0 6 23 10 51 10 31 0 48 4 44 10 -3 6 -26 10 -51 10 -24 0 -44 5 -44 10 0
6 24 10 54 10 l54 0 1 -134z m-96 -97 c-15 -16 -25 -19 -38 -12 -13 8 -14 12
-3 20 14 12 50 22 57 16 3 -2 -4 -13 -16 -24z m-138 11 c-3 -5 -12 -7 -20 -3
-21 7 -19 13 6 13 11 0 18 -4 14 -10z m75 -5 c-9 -8 -24 -12 -37 -9 -32 9 -18
24 20 24 27 0 30 -2 17 -15z m-226 -4 c3 -5 -1 -14 -9 -21 -13 -10 -15 -9 -15
9 0 21 14 28 24 12z"/>
</g>
</svg>
