<?xml version="1.0" standalone="no"?>
<!DOCTYPE svg PUBLIC "-//W3C//DTD SVG 20010904//EN"
 "http://www.w3.org/TR/2001/REC-SVG-20010904/DTD/svg10.dtd">
<svg version="1.0" xmlns="http://www.w3.org/2000/svg"
 width="96.000000pt" height="161.000000pt" viewBox="0 0 96.000000 161.000000"
 preserveAspectRatio="xMidYMid meet">
<metadata>
Created by potrace 1.16, written by Peter Selinger 2001-2019
</metadata>
<g transform="translate(0.000000,161.000000) scale(0.100000,-0.100000)"
fill="#000000" stroke="none">
<path d="M318 1175 c3 -98 0 -135 -8 -135 -9 0 -11 -59 -8 -230 l3 -230 125 1
c69 0 143 3 165 7 l40 7 3 100 c2 64 7 102 15 107 9 6 9 10 0 16 -8 5 -14 84
-19 250 -7 258 -24 332 -24 107 l0 -135 -30 0 -30 0 0 135 c0 83 -4 135 -10
135 -6 0 -10 -52 -10 -135 l0 -135 -25 0 -25 0 0 135 c0 83 -4 135 -10 135 -6
0 -10 -52 -10 -135 l0 -135 -30 0 -30 0 0 135 c0 83 -4 135 -10 135 -6 0 -10
-52 -10 -135 0 -128 -1 -135 -20 -135 -19 0 -20 7 -20 135 0 101 -3 135 -12
135 -10 0 -12 -32 -10 -135z m292 -251 c0 -84 -2 -95 -16 -90 -9 3 -19 6 -24
6 -4 0 1 27 11 61 24 77 24 76 -8 84 -24 6 -33 1 -65 -37 l-38 -43 0 48 c0 35
-4 47 -15 47 -12 0 -14 -10 -9 -55 6 -51 5 -55 -14 -55 -27 0 -52 10 -52 21 0
17 55 99 70 103 8 2 48 4 88 5 l72 1 0 -96z m-230 40 c-42 -66 -46 -96 -20
-148 l21 -45 -21 -41 c-29 -56 -19 -75 11 -22 13 23 27 42 30 42 4 0 14 -11
23 -24 14 -23 14 -28 -5 -70 -19 -44 -22 -46 -61 -46 l-41 0 6 68 c4 37 7 127
7 200 l0 132 40 0 40 0 -30 -46z m150 -140 c-23 -75 -38 -140 -33 -143 4 -3
16 -21 26 -38 l18 -33 -61 0 c-34 0 -60 3 -58 8 24 48 32 62 40 62 4 0 8 44 8
98 l0 98 47 47 c25 26 48 45 51 43 2 -3 -14 -67 -38 -142z m-82 41 c2 -1 2
-34 0 -71 l-3 -69 -33 47 c-18 26 -35 61 -39 79 l-6 32 39 -7 c21 -5 40 -9 42
-11z m150 -51 c21 -6 22 -11 22 -111 l0 -104 -31 3 c-28 3 -34 9 -52 57 -20
52 -20 54 -2 107 19 55 23 58 63 48z"/>
<path d="M314 548 c3 -13 6 -74 6 -135 0 -69 4 -113 10 -113 6 0 10 52 10 135
0 118 -2 135 -16 135 -12 0 -15 -6 -10 -22z"/>
<path d="M380 441 c0 -76 4 -132 10 -136 6 -4 10 42 10 129 0 84 -4 136 -10
136 -6 0 -10 -50 -10 -129z"/>
<path d="M460 441 c0 -76 4 -132 10 -136 6 -4 10 42 10 129 0 84 -4 136 -10
136 -6 0 -10 -50 -10 -129z"/>
<path d="M530 435 c0 -83 4 -135 10 -135 6 0 10 52 10 135 0 83 -4 135 -10
135 -6 0 -10 -52 -10 -135z"/>
<path d="M610 435 c0 -83 4 -135 10 -135 6 0 10 52 10 135 0 83 -4 135 -10
135 -6 0 -10 -52 -10 -135z"/>
</g>
</svg>
