<?xml version="1.0" standalone="no"?>
<!DOCTYPE svg PUBLIC "-//W3C//DTD SVG 20010904//EN"
 "http://www.w3.org/TR/2001/REC-SVG-20010904/DTD/svg10.dtd">
<svg version="1.0" xmlns="http://www.w3.org/2000/svg"
 width="198.000000pt" height="176.000000pt" viewBox="0 0 198.000000 176.000000"
 preserveAspectRatio="xMidYMid meet">
<metadata>
Created by potrace 1.16, written by Peter Selinger 2001-2019
</metadata>
<g transform="translate(0.000000,176.000000) scale(0.100000,-0.100000)"
fill="#000000" stroke="none">
<path d="M1329 1403 c-35 -31 -65 -59 -67 -63 -1 -3 21 -53 49 -109 50 -103
110 -251 123 -303 7 -31 -5 -36 -25 -12 -35 43 -247 189 -331 228 -122 58
-172 72 -201 59 -12 -6 -69 -30 -125 -53 -57 -24 -131 -63 -164 -88 l-61 -44
-51 16 c-28 10 -79 20 -113 23 l-63 6 0 -183 0 -183 64 7 c35 3 84 13 110 22
47 16 48 16 74 -9 43 -41 135 -92 248 -138 l106 -42 57 17 c124 39 231 102
396 234 69 56 80 62 83 44 7 -45 -67 -262 -138 -402 -37 -73 -37 -88 -2 -96
15 -3 51 -12 81 -20 50 -12 56 -11 67 4 94 126 140 197 180 279 l49 98 3 125
c3 115 1 131 -23 195 -45 121 -231 445 -255 445 -4 0 -36 -25 -71 -57z m242
-298 c60 -122 89 -211 89 -275 0 -59 -28 -159 -70 -246 -48 -103 -145 -254
-163 -254 -7 0 -41 9 -74 21 l-61 20 63 122 c74 142 114 253 121 340 7 80 -24
181 -112 366 l-64 135 42 43 42 43 64 -97 c35 -54 90 -152 123 -218z m-629 39
c46 -14 117 -44 158 -65 105 -54 325 -194 324 -205 -1 -11 -222 -150 -324
-203 -41 -21 -114 -51 -162 -66 l-87 -27 -82 47 c-44 27 -108 68 -141 92 l-59
44 35 40 c49 53 50 103 4 155 l-33 37 34 26 c39 31 232 151 243 151 4 0 44
-12 90 -26z m-483 -120 l54 -16 -39 -39 -38 -39 -13 33 c-8 17 -24 42 -35 54
-21 23 -21 23 -2 23 11 0 44 -7 73 -16z m158 -108 c18 -34 11 -65 -23 -105
-33 -39 -44 -39 -80 2 -59 66 -59 59 -3 116 50 51 51 52 71 34 11 -10 27 -31
35 -47z m-124 -167 c-8 -7 -94 -29 -113 -29 -7 0 0 13 13 30 14 16 29 39 32
51 7 20 8 20 41 -12 19 -18 31 -36 27 -40z"/>
</g>
</svg>
