<?xml version="1.0" standalone="no"?>
<!DOCTYPE svg PUBLIC "-//W3C//DTD SVG 20010904//EN"
 "http://www.w3.org/TR/2001/REC-SVG-20010904/DTD/svg10.dtd">
<svg version="1.0" xmlns="http://www.w3.org/2000/svg"
 width="156.000000pt" height="118.000000pt" viewBox="0 0 156.000000 118.000000"
 preserveAspectRatio="xMidYMid meet">
<metadata>
Created by potrace 1.16, written by Peter Selinger 2001-2019
</metadata>
<g transform="translate(0.000000,118.000000) scale(0.100000,-0.100000)"
fill="#000000" stroke="none">
<path d="M307 873 c-9 -8 -9 -382 0 -490 l6 -83 241 1 c133 1 306 4 386 8
l144 6 1 30 c1 17 2 56 3 88 l2 57 48 0 c26 0 64 3 85 6 69 12 37 24 -63 24
l-100 0 0 -97 0 -96 -127 6 c-71 4 -235 7 -367 7 l-239 0 8 248 c4 136 8 248
9 248 0 1 145 5 321 9 l320 6 -80 -49 c-44 -27 -102 -63 -129 -80 -46 -29 -57
-32 -132 -32 -98 0 -99 -1 -89 -115 l7 -75 76 0 c71 0 79 -2 146 -44 110 -67
196 -116 206 -116 5 0 9 111 10 246 0 136 3 251 6 255 3 5 16 9 30 9 24 0 24
-1 24 -94 0 -53 4 -98 10 -101 6 -3 10 -1 10 4 0 7 33 11 90 11 89 0 119 12
59 24 -17 3 -57 6 -88 6 l-56 0 3 83 4 84 -144 6 c-187 9 -633 9 -641 0z m667
-285 l7 -227 -128 85 c-70 46 -131 84 -135 84 -4 0 -8 24 -8 54 0 52 2 56 38
81 20 14 78 54 127 89 50 34 91 62 91 62 1 -1 4 -103 8 -228z m-284 7 l0 -75
-55 0 -55 0 0 69 c0 77 2 79 68 80 l42 1 0 -75z"/>
</g>
</svg>
