<?xml version="1.0" standalone="no"?>
<!DOCTYPE svg PUBLIC "-//W3C//DTD SVG 20010904//EN"
 "http://www.w3.org/TR/2001/REC-SVG-20010904/DTD/svg10.dtd">
<svg version="1.0" xmlns="http://www.w3.org/2000/svg"
 width="156.000000pt" height="118.000000pt" viewBox="0 0 156.000000 118.000000"
 preserveAspectRatio="xMidYMid meet">
<metadata>
Created by potrace 1.16, written by Peter Selinger 2001-2019
</metadata>
<g transform="translate(0.000000,118.000000) scale(0.100000,-0.100000)"
fill="#000000" stroke="none">
<path d="M307 873 c-9 -8 -9 -382 0 -490 l6 -83 241 1 c133 1 306 4 386 8
l144 6 1 30 c1 17 2 56 3 88 l2 57 48 0 c26 0 64 3 85 6 69 12 37 24 -63 24
l-100 0 0 -97 0 -96 -137 6 c-75 4 -161 7 -192 7 l-56 0 65 44 c149 99 171
158 100 262 -22 33 -40 62 -40 66 0 5 -25 34 -55 65 -30 32 -55 61 -55 66 0 4
83 7 185 7 l185 0 0 -94 c0 -53 4 -98 10 -101 6 -3 10 -1 10 4 0 7 33 11 90
11 89 0 119 12 59 24 -17 3 -57 6 -88 6 l-56 0 3 83 4 84 -144 6 c-187 9 -633
9 -641 0z m327 -116 c3 -45 8 -157 11 -249 l6 -168 -160 0 -161 0 0 68 c0 38
3 150 7 250 l6 181 131 3 c72 2 136 2 143 0 7 -2 14 -36 17 -85z m106 -17 c0
-3 -18 -4 -40 -2 -40 4 -40 5 -40 45 l0 41 40 -39 c22 -21 40 -42 40 -45z m38
-42 c23 -23 11 -30 -42 -25 -60 5 -79 13 -71 28 9 13 99 11 113 -3z m54 -78
c30 -57 24 -104 -20 -152 -38 -40 -39 -40 -90 -33 -67 9 -67 25 1 25 67 0 93
15 40 23 -21 4 -50 7 -65 7 -17 0 -28 5 -28 14 0 10 20 16 68 21 75 8 63 23
-20 24 -41 1 -48 4 -48 21 0 18 7 20 66 20 41 0 63 4 59 10 -3 6 -33 10 -66
10 -52 0 -59 2 -59 20 0 16 8 20 63 22 82 5 78 7 99 -32z m-117 -235 c-38 -31
-45 -31 -45 0 0 22 4 25 38 25 l37 0 -30 -25z"/>
</g>
</svg>
