<?xml version="1.0" standalone="no"?>
<!DOCTYPE svg PUBLIC "-//W3C//DTD SVG 20010904//EN"
 "http://www.w3.org/TR/2001/REC-SVG-20010904/DTD/svg10.dtd">
<svg version="1.0" xmlns="http://www.w3.org/2000/svg"
 width="156.000000pt" height="118.000000pt" viewBox="0 0 156.000000 118.000000"
 preserveAspectRatio="xMidYMid meet">
<metadata>
Created by potrace 1.16, written by Peter Selinger 2001-2019
</metadata>
<g transform="translate(0.000000,118.000000) scale(0.100000,-0.100000)"
fill="#000000" stroke="none">
<path d="M307 873 c-9 -8 -9 -382 0 -490 l6 -83 241 1 c133 1 306 4 386 8
l144 6 1 30 c1 17 2 56 3 88 l2 57 48 0 c26 0 64 3 85 6 69 12 37 24 -63 24
l-100 0 0 -95 0 -95 -77 1 c-43 1 -130 4 -193 8 l-115 6 45 28 c25 15 117 68
205 118 88 50 164 94 169 99 10 10 -28 35 -237 152 -89 50 -166 94 -172 99 -5
5 71 9 183 9 l192 0 0 -94 c0 -53 4 -98 10 -101 6 -3 10 -1 10 4 0 7 33 11 90
11 89 0 119 12 59 24 -17 3 -57 6 -88 6 l-56 0 3 83 4 84 -144 6 c-187 9 -633
9 -641 0z m323 -29 c0 -1 -22 -16 -49 -34 -66 -41 -117 -100 -130 -146 -27
-99 47 -223 180 -299 l44 -25 -172 0 -173 0 0 68 c0 38 3 150 7 250 l6 181
126 3 c69 2 134 3 144 3 9 1 17 0 17 -1z m20 -91 l0 -68 -35 40 c-19 22 -34
43 -35 48 0 6 58 47 68 47 1 0 2 -30 2 -67z m412 -152 c3 -3 -79 -50 -183
-103 l-189 -97 0 147 c0 81 -3 171 -6 200 l-7 52 189 -96 c104 -53 192 -100
196 -103z m-459 106 c54 -47 53 -44 62 -221 l7 -129 -39 31 c-21 17 -56 50
-78 74 -36 39 -35 39 12 -6 29 -28 55 -48 58 -45 7 8 -105 139 -120 139 -16 0
-25 22 -25 63 l0 31 76 -74 c42 -41 75 -70 73 -63 -8 25 -125 152 -136 148 -7
-3 -13 -2 -13 1 0 19 56 95 69 94 3 -1 27 -20 54 -43z"/>
<path d="M530 703 c1 -9 42 -55 83 -92 43 -39 31 -11 -19 47 -42 48 -64 64
-64 45z"/>
</g>
</svg>
