<?xml version="1.0" standalone="no"?>
<!DOCTYPE svg PUBLIC "-//W3C//DTD SVG 20010904//EN"
 "http://www.w3.org/TR/2001/REC-SVG-20010904/DTD/svg10.dtd">
<svg version="1.0" xmlns="http://www.w3.org/2000/svg"
 width="156.000000pt" height="118.000000pt" viewBox="0 0 156.000000 118.000000"
 preserveAspectRatio="xMidYMid meet">
<metadata>
Created by potrace 1.16, written by Peter Selinger 2001-2019
</metadata>
<g transform="translate(0.000000,118.000000) scale(0.100000,-0.100000)"
fill="#000000" stroke="none">
<path d="M307 873 c-9 -8 -9 -382 0 -491 l6 -83 251 3 c138 1 312 5 386 8
l134 5 1 30 c1 17 2 56 3 88 l2 57 48 0 c26 0 64 3 85 6 69 12 37 24 -63 24
l-100 0 0 -96 0 -95 -97 2 c-149 3 -134 -27 -126 250 l6 238 -25 6 c-13 3 -47
5 -74 3 l-49 -3 -3 -47 -3 -48 -80 0 -79 0 0 -45 0 -45 79 0 79 0 4 -50 3 -50
-82 0 -83 0 0 -45 0 -45 85 0 85 0 0 -55 0 -55 -186 0 -187 0 8 248 c4 136 8
248 9 249 0 0 162 4 359 8 l357 8 0 -96 c0 -53 4 -99 10 -102 6 -3 10 -1 10 4
0 7 33 11 90 11 89 0 119 12 59 24 -17 3 -57 6 -88 6 l-56 0 3 83 4 84 -144 6
c-187 9 -633 9 -641 0z m502 -288 l2 -225 -30 0 c-63 0 -61 -8 -61 224 0 117
3 216 7 219 3 4 23 7 44 7 l37 0 1 -225z m-119 100 c0 -24 -2 -25 -70 -25 -68
0 -70 1 -70 25 0 24 2 25 70 25 68 0 70 -1 70 -25z m10 -190 c0 -24 -2 -25
-75 -25 -73 0 -75 1 -75 25 0 24 2 25 75 25 73 0 75 -1 75 -25z"/>
</g>
</svg>
