<?xml version="1.0" standalone="no"?>
<!DOCTYPE svg PUBLIC "-//W3C//DTD SVG 20010904//EN"
 "http://www.w3.org/TR/2001/REC-SVG-20010904/DTD/svg10.dtd">
<svg version="1.0" xmlns="http://www.w3.org/2000/svg"
 width="160.000000pt" height="356.000000pt" viewBox="0 0 160.000000 356.000000"
 preserveAspectRatio="xMidYMid meet">
<metadata>
Created by potrace 1.16, written by Peter Selinger 2001-2019
</metadata>
<g transform="translate(0.000000,356.000000) scale(0.100000,-0.100000)"
fill="#000000" stroke="none">
<path d="M704 3205 c-115 -57 -192 -116 -271 -208 -60 -69 -65 -86 -47 -140
21 -63 73 -119 158 -172 77 -48 285 -145 311 -145 13 0 15 20 15 128 0 70 3
229 7 355 5 191 4 227 -8 227 -8 0 -23 3 -34 5 -12 3 -64 -16 -131 -50z m126
-102 c0 -60 5 -204 11 -321 7 -117 9 -215 6 -219 -7 -7 -217 112 -301 171 -71
49 -123 113 -132 162 -6 33 -3 40 42 85 65 66 176 142 277 189 45 21 85 39 90
39 4 1 7 -47 7 -106z"/>
<path d="M610 3032 c-106 -53 -105 -194 3 -242 54 -25 71 -25 125 1 86 42 104
146 37 213 -47 48 -107 58 -165 28z"/>
<path d="M908 3185 c-5 -5 -8 -15 -8 -23 0 -13 27 -14 196 -10 178 5 216 9
203 23 -9 8 -384 18 -391 10z"/>
<path d="M902 3043 c3 -16 19 -18 178 -16 96 2 186 6 200 9 47 13 -45 23 -218
23 -151 1 -163 0 -160 -16z"/>
<path d="M902 2913 c3 -17 19 -18 188 -15 102 1 192 5 200 9 28 12 -73 22
-233 22 -146 1 -158 0 -155 -16z"/>
<path d="M902 2793 c3 -16 19 -18 178 -16 96 2 186 6 200 9 47 13 -45 23 -218
23 -151 1 -163 0 -160 -16z"/>
<path d="M908 2685 c-5 -5 -8 -15 -8 -23 0 -13 28 -14 195 -10 177 5 217 9
204 22 -8 9 -384 18 -391 11z"/>
<path d="M1225 2213 c-44 -6 -266 -42 -292 -48 -16 -4 -20 -10 -16 -25 6 -24
-4 -24 173 15 182 41 210 48 210 57 0 8 -19 8 -75 1z"/>
<path d="M650 2065 c-118 -69 -245 -142 -281 -162 -64 -36 -66 -37 -66 -77 l0
-41 285 -163 c156 -90 285 -162 287 -160 9 9 9 722 0 724 -5 2 -107 -53 -225
-121z m201 -308 c6 -142 9 -260 7 -263 -3 -2 -56 30 -118 73 -63 42 -176 115
-253 163 -77 47 -140 90 -140 95 0 5 63 48 141 96 77 48 187 118 244 157 l103
71 2 -67 c1 -37 7 -183 14 -325z"/>
<path d="M627 1965 c-46 -16 -64 -30 -84 -68 -43 -84 29 -197 127 -197 108 0
176 100 131 193 -33 67 -103 97 -174 72z"/>
<path d="M990 2021 c-41 -3 -74 -9 -72 -13 1 -5 2 -14 2 -21 0 -14 20 -14 220
9 74 9 142 20 150 25 16 9 -174 9 -300 0z"/>
<path d="M917 1866 c-4 -11 -1 -19 9 -23 19 -7 364 4 372 12 14 13 -20 17
-191 22 -166 5 -184 4 -190 -11z"/>
<path d="M918 1752 c-7 -25 14 -29 225 -38 115 -5 157 -4 157 5 0 6 -4 11 -8
11 -4 0 -59 6 -122 14 -232 29 -247 30 -252 8z"/>
<path d="M920 1601 c0 -16 15 -21 98 -36 129 -24 276 -44 281 -39 12 11 -46
28 -236 70 -135 29 -143 29 -143 5z"/>
<path d="M720 962 c-127 -63 -172 -95 -258 -186 -90 -94 -96 -110 -75 -173 28
-83 108 -150 278 -233 162 -80 232 -93 94 -18 -113 62 -257 158 -291 194 -31
33 -58 93 -57 126 1 47 203 196 348 258 l66 28 6 -176 c10 -297 21 -482 29
-482 7 0 25 688 18 695 -1 1 -16 5 -33 9 -23 4 -51 -5 -125 -42z"/>
<path d="M904 925 c-5 -11 -1 -22 9 -30 22 -16 24 -85 2 -85 -8 0 -15 -7 -15
-15 0 -9 7 -18 15 -21 10 -4 15 -20 15 -50 0 -32 -4 -44 -15 -44 -19 0 -20
-26 -1 -37 7 -4 16 -25 20 -45 6 -34 5 -38 -14 -38 -26 0 -27 -30 -1 -37 11
-3 21 -17 25 -35 9 -44 8 -46 -16 -50 -15 -2 -23 -10 -23 -23 0 -19 6 -20 120
-17 168 3 275 13 275 23 0 5 -24 9 -52 9 -29 0 -103 3 -165 7 l-111 6 -4 37
-3 38 167 7 c93 4 168 10 168 15 0 11 -107 20 -231 20 l-109 0 0 39 0 38 170
8 c94 4 170 10 170 15 0 11 -107 20 -231 20 l-109 0 0 44 0 44 170 7 c94 4
170 11 170 15 0 11 -107 20 -232 20 l-109 0 3 43 3 42 163 6 c148 6 184 11
171 23 -2 2 -91 7 -196 11 -179 7 -193 7 -199 -10z"/>
<path d="M635 783 c-82 -21 -128 -119 -90 -193 35 -67 107 -93 180 -65 80 30
110 102 76 180 -28 63 -96 95 -166 78z"/>
</g>
</svg>
