<?xml version="1.0" standalone="no"?>
<!DOCTYPE svg PUBLIC "-//W3C//DTD SVG 20010904//EN"
 "http://www.w3.org/TR/2001/REC-SVG-20010904/DTD/svg10.dtd">
<svg version="1.0" xmlns="http://www.w3.org/2000/svg"
 width="175.000000pt" height="127.000000pt" viewBox="0 0 175.000000 127.000000"
 preserveAspectRatio="xMidYMid meet">
<metadata>
Created by potrace 1.16, written by Peter Selinger 2001-2019
</metadata>
<g transform="translate(0.000000,127.000000) scale(0.100000,-0.100000)"
fill="#000000" stroke="none">
<path d="M885 962 c-6 -4 -28 -14 -50 -21 -91 -31 -223 -96 -262 -131 l-42
-37 -53 18 c-29 9 -81 21 -115 25 l-63 7 0 -183 0 -183 68 6 c37 3 85 12 107
20 40 14 40 14 100 -28 70 -50 151 -91 254 -130 68 -26 79 -27 120 -16 93 24
244 108 365 203 65 51 124 101 130 110 9 15 4 23 -29 50 -22 18 -52 45 -67 59
-15 15 -29 25 -31 22 -3 -2 -13 7 -23 20 -11 13 -23 25 -29 26 -28 9 -35 14
-35 28 0 8 -5 11 -11 8 -5 -4 -18 0 -27 8 -26 23 -140 77 -216 103 -78 27 -78
27 -91 16z m53 -57 c34 -10 62 -20 62 -24 0 -3 -88 -94 -195 -201 -193 -193
-194 -194 -215 -175 -20 18 -20 19 162 202 101 101 185 187 188 191 2 4 -64
-60 -148 -143 l-152 -150 0 37 c0 32 8 45 58 95 32 32 82 85 112 118 30 33 2
9 -61 -53 -110 -108 -116 -112 -132 -94 -16 17 -13 22 56 89 70 69 171 137
193 129 5 -2 38 -12 72 -21z m118 -47 c4 -6 -83 -101 -192 -212 l-199 -201
206 204 c189 186 208 202 228 192 11 -7 21 -14 21 -17 0 -10 -394 -404 -405
-404 -6 0 -30 14 -54 32 l-43 31 197 197 c195 196 219 213 241 178z m-421 -78
c-37 -38 -55 -49 -55 -32 1 7 80 72 90 72 2 0 -14 -18 -35 -40z m542 15 c2 -1
-87 -92 -197 -202 -110 -110 -200 -204 -200 -209 0 -5 93 84 208 198 195 195
208 206 227 192 18 -14 10 -24 -175 -209 -107 -107 -191 -195 -187 -195 4 0
93 84 198 188 105 103 192 188 194 190 2 2 13 -2 25 -8 22 -12 14 -20 -156
-193 -99 -99 -170 -174 -159 -166 11 8 92 87 182 177 146 147 164 162 182 152
12 -6 21 -14 21 -18 0 -4 -64 -71 -142 -148 -150 -148 -175 -164 -300 -195
-45 -11 -50 -10 -105 21 -32 18 -60 34 -63 37 -2 2 88 96 200 208 209 209 210
210 247 180z m-704 -16 c20 -5 37 -13 37 -16 0 -9 -62 -73 -71 -73 -4 0 -10
11 -13 24 -3 14 -18 39 -33 56 l-27 32 35 -7 c19 -3 51 -11 72 -16z m97 -154
l-55 -56 -27 33 -27 33 52 53 51 52 30 -30 30 -30 -54 -55z m862 4 c-4 -4 -34
-24 -67 -44 l-60 -38 35 39 c24 26 17 22 -20 -13 -50 -47 -195 -143 -216 -143
-5 0 49 58 120 129 l129 129 43 -26 c24 -15 40 -30 36 -33z m-802 6 c0 -27
-54 -95 -76 -95 -33 0 -26 32 17 76 50 51 59 54 59 19z m-135 -125 c-5 -8 -85
-30 -109 -30 -11 0 -8 7 10 27 13 14 27 37 31 50 l6 24 33 -32 c18 -18 31 -35
29 -39z"/>
<path d="M525 670 c-27 -28 -45 -50 -39 -50 13 0 99 88 93 95 -3 2 -27 -18
-54 -45z"/>
</g>
</svg>
