<?xml version="1.0" standalone="no"?>
<!DOCTYPE svg PUBLIC "-//W3C//DTD SVG 20010904//EN"
 "http://www.w3.org/TR/2001/REC-SVG-20010904/DTD/svg10.dtd">
<svg version="1.0" xmlns="http://www.w3.org/2000/svg"
 width="91.000000pt" height="123.000000pt" viewBox="0 0 91.000000 123.000000"
 preserveAspectRatio="xMidYMid meet">
<metadata>
Created by potrace 1.16, written by Peter Selinger 2001-2019
</metadata>
<g transform="translate(0.000000,123.000000) scale(0.100000,-0.100000)"
fill="#000000" stroke="none">
<path d="M304 788 c3 -79 13 -179 21 -223 9 -49 11 -81 5 -83 -15 -6 -12 -32
4 -32 8 0 20 -17 26 -37 20 -63 57 -113 84 -113 32 0 70 46 91 109 13 41 21
51 43 54 l27 4 -24 8 c-20 7 -22 12 -17 44 3 20 6 42 6 49 0 6 8 12 18 12 13
0 14 2 3 9 -10 7 -12 22 -8 57 4 27 9 102 13 167 l6 117 -153 0 -152 0 7 -142z
m47 43 c-9 -2 -22 -8 -28 -13 -10 -8 -13 -2 -13 27 l0 37 28 -24 c22 -18 25
-24 13 -27z m229 19 c0 -28 -2 -30 -37 -29 -34 0 -36 2 -19 12 11 7 26 20 35
29 21 22 21 22 21 -12z m-2 -88 l-3 -37 -127 -3 -128 -3 0 38 0 38 131 2 130
2 -3 -37z m-13 -128 l-6 -35 -112 3 -112 3 -6 42 -5 42 120 3 c133 3 133 3
121 -58z m-16 -101 c-5 -21 -9 -41 -9 -45 0 -10 -177 -10 -184 0 -2 4 -7 24
-11 45 l-7 37 110 0 110 0 -9 -37z m-25 -105 c-25 -81 -59 -123 -88 -112 -18
7 -66 93 -66 119 0 12 15 15 81 15 78 0 80 -1 73 -22z"/>
</g>
</svg>
