<?xml version="1.0" standalone="no"?>
<!DOCTYPE svg PUBLIC "-//W3C//DTD SVG 20010904//EN"
 "http://www.w3.org/TR/2001/REC-SVG-20010904/DTD/svg10.dtd">
<svg version="1.0" xmlns="http://www.w3.org/2000/svg"
 width="131.000000pt" height="89.000000pt" viewBox="0 0 131.000000 89.000000"
 preserveAspectRatio="xMidYMid meet">
<metadata>
Created by potrace 1.16, written by Peter Selinger 2001-2019
</metadata>
<g transform="translate(0.000000,89.000000) scale(0.100000,-0.100000)"
fill="#000000" stroke="none">
<path d="M380 555 l0 -38 -41 6 c-39 5 -40 4 -37 -21 3 -24 6 -27 39 -24 36 3
37 3 41 -36 2 -24 -1 -38 -7 -37 -5 2 -25 6 -42 9 -30 5 -33 3 -33 -20 0 -24
3 -26 43 -23 l42 4 -4 -39 -3 -39 143 6 c282 11 479 67 487 138 9 74 -191 134
-485 146 l-143 6 0 -38z m340 -1 c52 -7 109 -18 125 -24 26 -9 24 -9 -22 -6
-49 3 -53 1 -53 -19 0 -12 2 -24 5 -26 2 -3 46 -1 96 3 79 7 95 6 111 -8 23
-22 23 -36 0 -58 -16 -14 -32 -15 -112 -8 -71 6 -93 5 -97 -5 -11 -28 3 -37
53 -34 27 1 46 0 43 -3 -10 -10 -232 -44 -338 -51 l-104 -7 28 34 c28 32 28
33 6 36 -26 4 -18 22 10 22 16 0 19 7 19 45 0 38 -3 45 -19 45 -28 0 -36 18
-10 22 22 3 22 4 -6 37 l-29 33 100 -7 c54 -3 142 -13 194 -21z"/>
</g>
</svg>
