<?xml version="1.0" standalone="no"?>
<!DOCTYPE svg PUBLIC "-//W3C//DTD SVG 20010904//EN"
 "http://www.w3.org/TR/2001/REC-SVG-20010904/DTD/svg10.dtd">
<svg version="1.0" xmlns="http://www.w3.org/2000/svg"
 width="140.000000pt" height="96.000000pt" viewBox="0 0 140.000000 96.000000"
 preserveAspectRatio="xMidYMid meet">
<metadata>
Created by potrace 1.16, written by Peter Selinger 2001-2019
</metadata>
<g transform="translate(0.000000,96.000000) scale(0.100000,-0.100000)"
fill="#000000" stroke="none">
<path d="M307 641 c-3 -14 2 -21 18 -25 13 -3 31 -9 42 -12 11 -4 5 5 -15 25
-39 37 -38 36 -45 12z"/>
<path d="M1030 630 c-9 -16 -5 -20 27 -29 20 -6 38 -9 39 -8 1 1 -11 14 -27
29 -28 24 -30 25 -39 8z"/>
<path d="M470 533 c0 -57 -3 -103 -7 -103 -4 0 -19 12 -34 26 -27 25 -27 26
-38 6 -9 -18 -6 -21 34 -31 44 -11 45 -12 45 -53 l0 -41 143 6 c347 15 566
103 461 186 -75 59 -251 94 -531 105 l-73 3 0 -104z m231 77 c254 -25 410 -83
379 -140 -25 -46 -193 -91 -410 -110 -164 -14 -154 -16 -125 25 44 66 45 133
0 199 l-24 36 38 0 c21 0 85 -5 142 -10z"/>
<path d="M726 494 c-8 -20 -11 -17 38 -32 l40 -11 -33 29 c-38 35 -37 35 -45
14z"/>
<path d="M980 340 c-9 -16 -5 -20 27 -29 20 -6 38 -9 40 -8 1 2 -11 15 -27 29
-29 25 -31 25 -40 8z"/>
</g>
</svg>
