<?xml version="1.0" standalone="no"?>
<!DOCTYPE svg PUBLIC "-//W3C//DTD SVG 20010904//EN"
 "http://www.w3.org/TR/2001/REC-SVG-20010904/DTD/svg10.dtd">
<svg version="1.0" xmlns="http://www.w3.org/2000/svg"
 width="89.000000pt" height="115.000000pt" viewBox="0 0 89.000000 115.000000"
 preserveAspectRatio="xMidYMid meet">
<metadata>
Created by potrace 1.16, written by Peter Selinger 2001-2019
</metadata>
<g transform="translate(0.000000,115.000000) scale(0.100000,-0.100000)"
fill="#000000" stroke="none">
<path d="M373 764 l6 -86 -41 4 -40 4 5 -62 c3 -42 14 -80 35 -120 20 -39 33
-81 37 -124 4 -35 9 -68 12 -73 11 -17 23 19 23 68 l0 50 40 0 c39 1 39 1 45
-45 4 -25 7 -52 8 -60 1 -8 7 -15 12 -15 6 0 13 38 16 85 4 60 13 98 29 130
13 26 25 70 28 106 l4 61 -32 -5 -33 -5 5 87 6 86 -25 0 -26 0 7 -85 7 -85
-45 0 -46 0 0 85 c0 80 -1 85 -21 85 -21 0 -22 -3 -16 -86z m73 -146 c33 0 77
7 97 16 l36 15 -5 -32 c-11 -67 -35 -116 -57 -119 -13 -2 -23 -12 -27 -28 -5
-20 -13 -26 -44 -28 -36 -3 -37 -2 -34 25 2 21 -2 29 -16 31 -10 2 -22 -1 -26
-8 -9 -14 -45 70 -53 122 l-5 36 36 -15 c20 -8 64 -15 98 -15z"/>
</g>
</svg>
