<?xml version="1.0" standalone="no"?>
<!DOCTYPE svg PUBLIC "-//W3C//DTD SVG 20010904//EN"
 "http://www.w3.org/TR/2001/REC-SVG-20010904/DTD/svg10.dtd">
<svg version="1.0" xmlns="http://www.w3.org/2000/svg"
 width="89.000000pt" height="86.000000pt" viewBox="0 0 89.000000 86.000000"
 preserveAspectRatio="xMidYMid meet">
<metadata>
Created by potrace 1.16, written by Peter Selinger 2001-2019
</metadata>
<g transform="translate(0.000000,86.000000) scale(0.100000,-0.100000)"
fill="#000000" stroke="none">
<path d="M300 522 c0 -86 63 -212 107 -212 9 0 3 10 -15 25 -32 27 -66 98 -75
157 l-6 38 27 -18 c36 -23 164 -24 210 0 l33 17 -7 -37 c-11 -61 -45 -131 -76
-157 -18 -15 -24 -25 -15 -25 44 0 107 126 107 212 l0 38 -145 0 -145 0 0 -38z"/>
</g>
</svg>
