<?xml version="1.0" standalone="no"?>
<!DOCTYPE svg PUBLIC "-//W3C//DTD SVG 20010904//EN"
 "http://www.w3.org/TR/2001/REC-SVG-20010904/DTD/svg10.dtd">
<svg version="1.0" xmlns="http://www.w3.org/2000/svg"
 width="134.000000pt" height="94.000000pt" viewBox="0 0 134.000000 94.000000"
 preserveAspectRatio="xMidYMid meet">
<metadata>
Created by potrace 1.16, written by Peter Selinger 2001-2019
</metadata>
<g transform="translate(0.000000,94.000000) scale(0.100000,-0.100000)"
fill="#000000" stroke="none">
<path d="M850 632 c0 -4 16 -14 35 -21 19 -7 35 -17 35 -22 0 -17 -48 -9 -94
17 -32 18 -51 23 -58 16 -6 -6 5 -15 37 -27 60 -23 39 -39 -24 -18 -58 19
-210 39 -363 48 l-118 8 0 -152 0 -151 94 0 c158 0 356 32 472 77 9 3 14 -9
16 -49 l3 -53 69 -3 c49 -2 72 1 77 10 5 7 9 77 9 156 l0 143 -44 -6 c-33 -5
-52 -2 -84 14 -44 22 -62 26 -62 13z m-307 -31 c38 -4 72 -12 76 -19 3 -6 25
-19 46 -28 38 -16 39 -17 17 -25 -17 -7 -36 -2 -72 16 -55 28 -60 29 -60 15 0
-5 17 -17 38 -27 32 -14 34 -17 15 -20 -12 -2 -40 5 -62 16 -45 23 -51 25 -51
12 0 -5 14 -14 30 -21 17 -7 30 -16 30 -21 0 -16 -34 -9 -75 16 -49 31 -53 31
-65 3 -8 -22 -9 -22 -9 -2 -1 12 -12 38 -26 58 l-24 36 62 -1 c34 0 93 -3 130
-8z m197 -33 c31 -10 33 -12 14 -20 -15 -7 -31 -3 -64 17 -39 22 -41 25 -15
19 17 -3 46 -11 65 -16z m280 -113 l0 -135 -60 0 c-33 0 -60 4 -60 10 0 6 23
10 51 10 64 0 56 19 -9 22 l-47 1 45 4 c66 6 75 23 12 23 -57 0 -67 15 -37 54
23 30 18 52 -16 80 -24 21 -27 27 -15 32 24 9 109 32 124 33 9 1 12 -32 12
-134z m-150 70 c39 -20 53 -47 37 -69 -12 -16 -22 -16 -172 0 l-159 18 85 23
c46 12 98 26 114 32 44 13 63 13 95 -4z m-387 -32 c26 -8 20 -31 -13 -48 -16
-8 -30 -15 -32 -15 -2 0 -4 19 -5 41 -2 35 0 40 15 34 9 -4 25 -10 35 -12z
m-69 -64 c2 -13 5 -28 5 -33 1 -5 9 -3 19 5 36 31 88 51 122 47 l35 -3 -43
-26 c-25 -15 -39 -30 -33 -33 6 -4 31 7 55 23 25 17 57 31 73 31 l28 -1 -37
-22 c-37 -22 -48 -37 -27 -37 6 0 30 14 55 31 36 25 51 29 76 24 l32 -7 -30
-15 c-16 -9 -36 -21 -44 -28 -17 -15 -120 -31 -258 -41 l-93 -6 26 37 c14 21
25 49 25 63 0 30 8 25 14 -9z m432 -11 c-11 -6 -40 -17 -65 -25 l-46 -13 30
25 c19 15 43 24 65 24 31 0 33 -1 16 -11z"/>
</g>
</svg>
