<?xml version="1.0" standalone="no"?>
<!DOCTYPE svg PUBLIC "-//W3C//DTD SVG 20010904//EN"
 "http://www.w3.org/TR/2001/REC-SVG-20010904/DTD/svg10.dtd">
<svg version="1.0" xmlns="http://www.w3.org/2000/svg"
 width="90.000000pt" height="147.000000pt" viewBox="0 0 90.000000 147.000000"
 preserveAspectRatio="xMidYMid meet">
<metadata>
Created by potrace 1.16, written by Peter Selinger 2001-2019
</metadata>
<g transform="translate(0.000000,147.000000) scale(0.100000,-0.100000)"
fill="#000000" stroke="none">
<path d="M300 1043 c0 -111 5 -184 24 -398 2 -22 7 -52 11 -67 5 -18 3 -28 -4
-28 -16 0 -14 -27 2 -33 8 -3 20 -32 26 -64 7 -33 23 -79 35 -104 19 -37 27
-44 51 -44 37 0 58 35 84 136 14 55 24 77 40 85 l22 11 -21 6 c-17 4 -20 10
-14 34 4 15 14 33 23 40 11 8 12 12 4 13 -8 0 -13 14 -13 34 0 19 6 37 13 40
9 5 9 7 -1 12 -6 3 -9 10 -6 16 3 5 9 106 11 224 l6 214 -147 0 -146 0 0 -127z
m145 57 c40 0 74 7 98 19 l37 19 0 -29 0 -29 -130 0 c-113 0 -130 -2 -130 -16
0 -14 15 -16 130 -12 l130 4 0 -34 c0 -34 0 -35 -37 -28 -21 3 -82 6 -135 6
l-98 0 0 69 0 69 37 -19 c24 -12 58 -19 98 -19z m127 -165 l-4 -36 -124 2
-124 1 0 34 0 34 128 0 128 0 -4 -35z m-4 -92 c-2 -23 -8 -38 -15 -37 -7 1
-62 2 -123 3 l-110 1 0 30 0 29 88 4 c48 1 104 4 125 5 l38 2 -3 -37z m-8 -94
l0 -32 -46 7 c-26 3 -78 6 -115 6 -67 0 -69 1 -69 25 l0 25 115 0 115 0 0 -31z
m-8 -81 l-4 -33 -104 3 c-102 3 -104 4 -104 27 0 29 11 32 125 34 l91 1 -4
-32z m-10 -88 l-4 -30 -94 0 -94 0 0 30 0 30 98 0 99 0 -5 -30z m-12 -68 c0
-22 -43 -157 -56 -178 -23 -34 -41 -30 -63 14 -16 32 -51 145 -51 166 0 3 38
6 85 6 47 0 85 -3 85 -8z"/>
</g>
</svg>
