<?xml version="1.0" standalone="no"?>
<!DOCTYPE svg PUBLIC "-//W3C//DTD SVG 20010904//EN"
 "http://www.w3.org/TR/2001/REC-SVG-20010904/DTD/svg10.dtd">
<svg version="1.0" xmlns="http://www.w3.org/2000/svg"
 width="142.000000pt" height="88.000000pt" viewBox="0 0 142.000000 88.000000"
 preserveAspectRatio="xMidYMid meet">
<metadata>
Created by potrace 1.16, written by Peter Selinger 2001-2019
</metadata>
<g transform="translate(0.000000,88.000000) scale(0.100000,-0.100000)"
fill="#000000" stroke="none">
<path d="M593 560 c-32 -19 -63 -66 -63 -95 0 -13 -18 -15 -115 -15 -98 0
-115 -2 -115 -16 0 -14 13 -15 109 -9 l109 7 20 -46 c36 -81 133 -112 207 -66
30 19 65 72 65 99 0 7 38 12 113 13 61 1 94 3 72 5 -22 1 -73 5 -112 9 -40 3
-73 10 -73 16 0 26 -35 80 -65 98 -42 26 -110 26 -152 0z"/>
</g>
</svg>
