<?xml version="1.0" standalone="no"?>
<!DOCTYPE svg PUBLIC "-//W3C//DTD SVG 20010904//EN"
 "http://www.w3.org/TR/2001/REC-SVG-20010904/DTD/svg10.dtd">
<svg version="1.0" xmlns="http://www.w3.org/2000/svg"
 width="136.000000pt" height="131.000000pt" viewBox="0 0 136.000000 131.000000"
 preserveAspectRatio="xMidYMid meet">
<metadata>
Created by potrace 1.16, written by Peter Selinger 2001-2019
</metadata>
<g transform="translate(0.000000,131.000000) scale(0.100000,-0.100000)"
fill="#000000" stroke="none">
<path d="M660 901 l0 -110 -45 -20 c-45 -20 -85 -69 -85 -104 0 -17 -9 -19
-112 -16 -82 3 -113 0 -116 -9 -3 -9 24 -12 111 -12 l115 0 7 -29 c7 -35 48
-75 97 -95 22 -9 35 -21 33 -29 -3 -6 -1 -34 4 -62 l9 -50 1 67 c1 65 2 67 31
73 40 9 89 56 96 94 6 30 8 31 58 31 28 0 69 4 91 8 34 6 27 8 -49 12 l-90 5
-8 31 c-10 40 -70 94 -105 94 l-25 0 3 112 c3 83 1 112 -8 115 -10 4 -13 -22
-13 -106z"/>
</g>
</svg>
