<?xml version="1.0" standalone="no"?>
<!DOCTYPE svg PUBLIC "-//W3C//DTD SVG 20010904//EN"
 "http://www.w3.org/TR/2001/REC-SVG-20010904/DTD/svg10.dtd">
<svg version="1.0" xmlns="http://www.w3.org/2000/svg"
 width="101.000000pt" height="88.000000pt" viewBox="0 0 101.000000 88.000000"
 preserveAspectRatio="xMidYMid meet">
<metadata>
Created by potrace 1.16, written by Peter Selinger 2001-2019
</metadata>
<g transform="translate(0.000000,88.000000) scale(0.100000,-0.100000)"
fill="#000000" stroke="none">
<path d="M445 568 c-11 -6 -30 -20 -42 -31 -17 -15 -31 -19 -63 -14 -37 5 -40
3 -40 -19 0 -21 5 -24 36 -24 29 0 35 -3 30 -16 -3 -9 -6 -25 -6 -36 0 -17 -4
-20 -30 -14 -27 5 -30 3 -30 -19 0 -22 4 -25 38 -25 27 0 45 -7 58 -21 30 -33
69 -49 119 -49 39 0 51 5 89 40 31 29 52 40 75 40 38 0 41 17 4 22 -25 3 -28
7 -31 46 -3 41 -2 42 27 42 17 0 31 5 31 10 0 9 -11 11 -66 14 -10 1 -32 16
-49 34 -28 27 -40 32 -81 32 -27 0 -58 -6 -69 -12z m35 -68 c-20 -13 -43 -13
-35 0 3 6 16 10 28 10 18 0 19 -2 7 -10z m-5 -110 c-28 -12 -37 -12 -30 0 3 6
16 10 28 9 21 0 21 -1 2 -9z m78 -17 c-7 -2 -19 -2 -25 0 -7 3 -2 5 12 5 14 0
19 -2 13 -5z"/>
</g>
</svg>
