<?xml version="1.0" standalone="no"?>
<!DOCTYPE svg PUBLIC "-//W3C//DTD SVG 20010904//EN"
 "http://www.w3.org/TR/2001/REC-SVG-20010904/DTD/svg10.dtd">
<svg version="1.0" xmlns="http://www.w3.org/2000/svg"
 width="140.000000pt" height="142.000000pt" viewBox="0 0 140.000000 142.000000"
 preserveAspectRatio="xMidYMid meet">
<metadata>
Created by potrace 1.16, written by Peter Selinger 2001-2019
</metadata>
<g transform="translate(0.000000,142.000000) scale(0.100000,-0.100000)"
fill="#000000" stroke="none">
<path d="M560 1093 c0 -81 50 -190 100 -220 l29 -17 -40 -29 c-21 -16 -39 -34
-39 -40 0 -7 -11 11 -24 39 -26 55 -68 93 -144 130 l-47 23 -47 -142 c-36
-106 -45 -143 -35 -149 20 -12 115 -21 158 -14 23 4 54 13 70 22 27 13 29 13
29 -4 0 -9 7 -28 16 -41 16 -22 16 -23 -4 -17 -49 16 -166 -43 -215 -108 l-25
-33 116 -84 c64 -46 119 -85 123 -87 12 -5 69 121 75 168 4 31 1 58 -9 82
l-16 37 25 -10 c14 -5 42 -9 63 -9 l39 0 -15 -42 c-17 -50 -10 -103 22 -173
41 -86 30 -87 164 10 l121 87 -26 33 c-26 34 -80 75 -126 96 -18 8 -32 26 -42
55 l-14 42 36 -21 c26 -15 52 -21 101 -21 95 -1 121 8 121 41 0 21 -66 244
-77 262 -1 2 -28 -9 -59 -24 -64 -31 -131 -95 -141 -134 -6 -23 -8 -20 -25 29
-16 47 -16 55 -3 70 25 28 54 105 61 163 l7 57 -152 0 -151 0 0 -27z m103 -36
c46 -11 111 -3 161 18 17 8 19 5 13 -34 -8 -66 -47 -133 -89 -156 -35 -18 -38
-19 -72 -3 -40 20 -81 90 -92 159 -7 39 -6 42 12 34 10 -4 40 -13 67 -18z
m-145 -164 c68 -51 82 -137 29 -177 -23 -17 -46 -22 -118 -24 -49 -2 -89 -1
-89 2 0 4 11 19 25 34 32 35 59 114 58 174 l-1 47 32 -16 c17 -8 46 -26 64
-40z m478 -26 c0 -64 25 -128 63 -166 19 -19 19 -19 -2 -25 -40 -11 -127 -6
-162 8 -77 33 -84 108 -15 175 34 32 92 70 110 71 3 0 5 -28 6 -63z m-249 -55
c1 -63 20 -118 58 -168 l25 -33 -53 -6 c-104 -13 -187 28 -187 93 0 59 44 111
135 161 11 5 20 11 20 11 0 0 1 -26 2 -58z m-132 -217 c32 -31 34 -101 4 -180
-19 -51 -39 -73 -39 -41 0 36 -136 136 -185 136 -25 0 -17 17 24 49 82 65 155
78 196 36z m334 -43 c30 -21 56 -43 58 -48 2 -5 -18 -17 -45 -26 -57 -21 -130
-80 -148 -122 l-13 -31 -22 50 c-42 93 -35 195 15 216 39 16 97 2 155 -39z"/>
</g>
</svg>
