<?xml version="1.0" standalone="no"?>
<!DOCTYPE svg PUBLIC "-//W3C//DTD SVG 20010904//EN"
 "http://www.w3.org/TR/2001/REC-SVG-20010904/DTD/svg10.dtd">
<svg version="1.0" xmlns="http://www.w3.org/2000/svg"
 width="100.000000pt" height="111.000000pt" viewBox="0 0 100.000000 111.000000"
 preserveAspectRatio="xMidYMid meet">
<metadata>
Created by potrace 1.16, written by Peter Selinger 2001-2019
</metadata>
<g transform="translate(0.000000,111.000000) scale(0.100000,-0.100000)"
fill="#000000" stroke="none">
<path d="M300 772 c0 -67 29 -143 69 -182 l36 -35 -37 -38 c-39 -40 -68 -113
-68 -174 l0 -33 145 0 145 0 0 33 c0 62 -30 139 -70 179 -52 53 -26 48 82 -13
49 -28 92 -49 95 -46 3 4 -36 33 -86 65 -78 50 -90 61 -77 71 23 20 56 117 56
166 l0 45 -145 0 -145 0 0 -38z m140 -27 c51 0 86 5 108 17 l33 17 -7 -37
c-11 -58 -37 -124 -55 -135 -12 -8 -24 -4 -49 13 -26 19 -34 20 -41 9 -6 -10
-1 -19 14 -31 12 -10 26 -18 30 -18 20 0 -7 -20 -28 -20 -52 0 -112 85 -129
183 l-7 38 27 -18 c21 -13 48 -18 104 -18z m72 -232 c26 -25 49 -79 63 -150
l6 -32 -33 17 c-47 24 -174 24 -212 -1 l-28 -19 7 34 c16 79 32 114 67 151 33
35 41 39 70 33 18 -3 45 -18 60 -33z"/>
</g>
</svg>
