<?xml version="1.0" standalone="no"?>
<!DOCTYPE svg PUBLIC "-//W3C//DTD SVG 20010904//EN"
 "http://www.w3.org/TR/2001/REC-SVG-20010904/DTD/svg10.dtd">
<svg version="1.0" xmlns="http://www.w3.org/2000/svg"
 width="123.000000pt" height="89.000000pt" viewBox="0 0 123.000000 89.000000"
 preserveAspectRatio="xMidYMid meet">
<metadata>
Created by potrace 1.16, written by Peter Selinger 2001-2019
</metadata>
<g transform="translate(0.000000,89.000000) scale(0.100000,-0.100000)"
fill="#000000" stroke="none">
<path d="M300 445 l0 -146 189 4 c160 3 196 7 242 25 30 11 75 28 101 37 139
49 125 127 -31 171 -31 9 -67 23 -80 32 -20 12 -66 16 -223 19 l-198 4 0 -146z
m224 125 c37 0 38 -1 23 -18 -9 -10 -24 -35 -32 -56 -21 -49 -13 -95 22 -136
14 -17 24 -32 22 -34 -2 -2 -51 -7 -109 -11 l-105 -7 21 24 c33 35 44 63 44
107 0 49 -14 88 -43 120 l-22 24 70 -7 c39 -3 88 -6 109 -6z m309 -60 c30 -11
62 -29 72 -40 16 -18 16 -21 2 -44 -10 -14 -40 -33 -72 -45 -72 -27 -77 -26
-59 7 7 15 14 41 14 57 0 17 -7 42 -14 58 -18 32 -13 33 57 7z"/>
</g>
</svg>
