<?xml version="1.0" standalone="no"?>
<!DOCTYPE svg PUBLIC "-//W3C//DTD SVG 20010904//EN"
 "http://www.w3.org/TR/2001/REC-SVG-20010904/DTD/svg10.dtd">
<svg version="1.0" xmlns="http://www.w3.org/2000/svg"
 width="89.000000pt" height="111.000000pt" viewBox="0 0 89.000000 111.000000"
 preserveAspectRatio="xMidYMid meet">
<metadata>
Created by potrace 1.16, written by Peter Selinger 2001-2019
</metadata>
<g transform="translate(0.000000,111.000000) scale(0.100000,-0.100000)"
fill="#000000" stroke="none">
<path d="M300 772 c0 -67 29 -143 69 -182 l36 -35 -37 -38 c-39 -40 -68 -113
-68 -174 l0 -33 145 0 145 0 0 33 c0 62 -30 139 -69 177 l-36 36 33 29 c38 35
71 118 72 183 l0 42 -145 0 -145 0 0 -38z m140 -27 c51 0 86 5 108 17 l33 17
-7 -37 c-11 -61 -45 -131 -76 -157 -42 -36 -74 -32 -117 13 -35 36 -50 71 -66
150 l-7 34 28 -19 c21 -13 47 -18 104 -18z m76 -240 c29 -33 44 -68 59 -142
l6 -32 -33 17 c-47 24 -174 24 -212 -1 l-28 -19 7 34 c16 79 32 114 67 151 33
35 41 39 70 33 20 -3 45 -20 64 -41z"/>
</g>
</svg>
