<?xml version="1.0" standalone="no"?>
<!DOCTYPE svg PUBLIC "-//W3C//DTD SVG 20010904//EN"
 "http://www.w3.org/TR/2001/REC-SVG-20010904/DTD/svg10.dtd">
<svg version="1.0" xmlns="http://www.w3.org/2000/svg"
 width="89.000000pt" height="122.000000pt" viewBox="0 0 89.000000 122.000000"
 preserveAspectRatio="xMidYMid meet">
<metadata>
Created by potrace 1.16, written by Peter Selinger 2001-2019
</metadata>
<g transform="translate(0.000000,122.000000) scale(0.100000,-0.100000)"
fill="#000000" stroke="none">
<path d="M300 610 l0 -310 145 0 145 0 0 310 0 310 -145 0 -145 0 0 -310z
m280 100 l0 -80 -135 0 -135 0 0 80 0 80 135 0 135 0 0 -80z m0 -185 l0 -95
-135 0 -135 0 0 95 0 95 135 0 135 0 0 -95z"/>
</g>
</svg>
