<?xml version="1.0" standalone="no"?>
<!DOCTYPE svg PUBLIC "-//W3C//DTD SVG 20010904//EN"
 "http://www.w3.org/TR/2001/REC-SVG-20010904/DTD/svg10.dtd">
<svg version="1.0" xmlns="http://www.w3.org/2000/svg"
 width="138.000000pt" height="247.000000pt" viewBox="0 0 138.000000 247.000000"
 preserveAspectRatio="xMidYMid meet">
<metadata>
Created by potrace 1.16, written by Peter Selinger 2001-2019
</metadata>
<g transform="translate(0.000000,247.000000) scale(0.100000,-0.100000)"
fill="#000000" stroke="none">
<path d="M545 2118 c9 -66 38 -134 73 -171 l26 -27 -33 11 c-41 14 -119 5
-183 -23 -26 -11 -48 -23 -48 -26 0 -11 144 -252 150 -252 15 0 90 61 115 94
15 20 33 55 40 78 13 41 14 41 14 12 1 -17 14 -48 30 -71 32 -44 109 -113 126
-113 6 0 18 15 27 33 8 17 40 74 71 125 l56 92 -23 15 c-12 8 -53 22 -90 32
-54 13 -77 14 -108 6 l-39 -11 19 22 c35 38 64 108 69 168 l6 58 -153 0 -152
0 7 -52z m271 -38 c-17 -75 -41 -117 -79 -141 -71 -44 -149 26 -173 155 -6 36
-5 39 12 32 74 -31 164 -32 221 -4 15 8 29 14 30 13 1 0 -4 -25 -11 -55z
m-169 -184 c22 -19 28 -32 27 -64 -1 -44 -44 -115 -91 -152 l-28 -21 -12 46
c-15 62 -61 134 -102 162 l-32 22 48 15 c26 8 74 15 105 15 46 1 62 -3 85 -23z
m60 -17 c-10 -25 -13 -27 -21 -11 -5 9 -15 24 -22 32 -12 14 -9 15 20 12 32
-4 33 -5 23 -33z m215 25 l47 -15 -39 -35 c-44 -40 -90 -124 -90 -166 0 -15
-4 -28 -8 -28 -13 0 -89 83 -106 117 -28 57 -18 104 29 131 29 16 114 15 167
-4z"/>
<path d="M556 1863 c-15 -15 -3 -29 31 -40 21 -6 39 -11 40 -9 1 1 -13 14 -31
28 -19 15 -36 24 -40 21z"/>
<path d="M436 2074 c-9 -23 -7 -31 7 -31 7 0 25 -3 41 -7 l29 -7 -32 30 c-39
36 -37 36 -45 15z"/>
<path d="M906 2064 c-8 -21 -9 -20 39 -28 l40 -7 -30 25 c-36 30 -41 31 -49
10z"/>
<path d="M336 1754 c-8 -20 -11 -17 38 -32 l40 -11 -33 29 c-38 35 -37 35 -45
14z"/>
<path d="M1006 1714 c-8 -22 1 -30 44 -38 19 -3 30 -3 25 1 -6 5 -22 19 -36
31 -24 21 -27 21 -33 6z"/>
<path d="M464 744 c3 -30 13 -71 21 -90 8 -19 13 -34 11 -34 -1 0 -22 6 -47
14 -24 8 -63 17 -86 19 l-43 5 0 -150 0 -151 56 6 c114 12 210 83 201 150 -3
25 -1 27 33 27 34 0 36 -2 33 -27 -9 -68 89 -140 204 -150 l58 -5 -2 148 -2
149 -47 -4 c-26 -1 -65 -9 -87 -17 -22 -8 -41 -14 -43 -14 -2 0 3 15 11 34 8
19 18 60 21 90 l7 56 -153 0 -153 0 7 -56z m148 -14 c27 0 65 7 85 15 20 8 38
13 41 10 10 -10 -19 -112 -43 -147 -13 -19 -38 -41 -56 -48 -28 -12 -36 -11
-67 6 -41 22 -81 90 -89 153 l-6 41 43 -15 c23 -8 65 -15 92 -15z m-179 -107
c102 -28 152 -98 117 -163 -13 -25 -85 -66 -130 -75 -19 -3 -43 -9 -52 -11
-16 -5 -16 -3 -2 33 21 49 21 147 1 196 -19 43 -17 44 66 20z m421 -15 c-22
-42 -22 -150 -1 -201 15 -36 15 -38 -1 -33 -9 2 -33 8 -52 11 -45 9 -117 50
-130 75 -21 39 -12 81 24 115 31 29 113 62 159 64 17 1 17 -1 1 -31z"/>
<path d="M571 672 c-8 -16 -4 -20 30 -29 l40 -11 -27 29 c-33 34 -31 34 -43
11z"/>
<path d="M443 515 c-7 -20 -5 -21 37 -30 l35 -7 -28 26 c-33 30 -36 31 -44 11z"/>
<path d="M306 764 c-8 -21 -9 -21 39 -30 l40 -7 -31 26 c-37 32 -40 32 -48 11z"/>
<path d="M933 565 c-7 -20 -6 -21 41 -29 l39 -8 -30 26 c-36 30 -42 31 -50 11z"/>
<path d="M675 340 c-8 -26 -9 -26 40 -35 22 -4 38 -5 35 -3 -3 1 -19 16 -37
31 -31 29 -31 29 -38 7z"/>
</g>
</svg>
