<?xml version="1.0" standalone="no"?>
<!DOCTYPE svg PUBLIC "-//W3C//DTD SVG 20010904//EN"
 "http://www.w3.org/TR/2001/REC-SVG-20010904/DTD/svg10.dtd">
<svg version="1.0" xmlns="http://www.w3.org/2000/svg"
 width="122.000000pt" height="251.000000pt" viewBox="0 0 122.000000 251.000000"
 preserveAspectRatio="xMidYMid meet">
<metadata>
Created by potrace 1.16, written by Peter Selinger 2001-2019
</metadata>
<g transform="translate(0.000000,251.000000) scale(0.100000,-0.100000)"
fill="#000000" stroke="none">
<path d="M460 2170 c0 -47 25 -124 52 -162 l19 -28 -50 0 c-49 0 -155 -32
-166 -50 -3 -5 27 -66 66 -134 66 -113 75 -124 92 -114 39 20 106 90 125 129
19 37 21 39 27 18 9 -29 91 -117 125 -134 25 -13 26 -13 95 108 39 67 70 126
70 132 0 19 -108 54 -166 55 l-56 0 25 51 c16 31 28 75 30 110 l4 59 -146 0
-146 0 0 -40z m145 -25 c62 0 88 4 109 18 l28 19 -7 -44 c-30 -187 -168 -234
-233 -80 -11 26 -22 64 -25 84 l-6 38 27 -18 c19 -12 47 -17 107 -17z m241
-187 c16 -7 30 -13 31 -13 2 -1 -19 -25 -47 -53 -36 -37 -53 -66 -65 -106 -9
-31 -13 -61 -9 -67 14 -24 -34 11 -69 50 -44 49 -56 71 -58 107 -6 75 38 108
132 99 32 -2 70 -10 85 -17z m-269 -19 c46 -44 21 -132 -59 -204 l-43 -40 -5
45 c-6 54 -47 127 -91 164 -17 15 -29 30 -25 33 3 3 27 12 53 19 65 18 140 11
170 -17z m47 -4 c-5 -12 -10 -13 -20 -4 -19 15 -18 19 6 19 13 0 18 -5 14 -15z"/>
<path d="M445 688 c4 -29 13 -70 21 -90 7 -21 12 -38 10 -38 -2 0 -23 7 -46
15 -23 8 -62 15 -86 15 l-44 0 0 -145 0 -145 39 0 c61 0 141 31 183 71 30 29
38 43 38 72 0 35 2 37 33 37 30 0 32 -3 33 -34 0 -19 7 -45 16 -58 25 -38 112
-79 179 -85 l59 -6 0 147 0 146 -38 0 c-22 0 -61 -7 -88 -15 -27 -8 -49 -15
-50 -15 0 0 7 24 17 53 10 28 18 69 19 90 l0 37 -151 0 -151 0 7 -52z m58 -3
c45 -19 129 -19 181 0 l39 14 -7 -45 c-16 -117 -93 -187 -164 -150 -33 17 -76
95 -88 159 -7 42 -8 42 39 22z m-91 -121 c64 -18 124 -65 133 -104 13 -58 -71
-126 -178 -145 l-38 -6 18 28 c25 38 25 178 0 216 -21 32 -15 33 65 11z m421
-21 c-20 -48 -20 -147 1 -196 14 -36 14 -38 -2 -33 -9 2 -33 8 -52 11 -111 22
-171 106 -124 173 18 26 78 59 131 71 63 15 64 15 46 -26z"/>
</g>
</svg>
