<?xml version="1.0" standalone="no"?>
<!DOCTYPE svg PUBLIC "-//W3C//DTD SVG 20010904//EN"
 "http://www.w3.org/TR/2001/REC-SVG-20010904/DTD/svg10.dtd">
<svg version="1.0" xmlns="http://www.w3.org/2000/svg"
 width="131.000000pt" height="240.000000pt" viewBox="0 0 131.000000 240.000000"
 preserveAspectRatio="xMidYMid meet">
<metadata>
Created by potrace 1.16, written by Peter Selinger 2001-2019
</metadata>
<g transform="translate(0.000000,240.000000) scale(0.100000,-0.100000)"
fill="#000000" stroke="none">
<path d="M512 2037 c9 -110 73 -197 145 -197 71 0 143 111 143 222 l0 38 -146
0 -147 0 5 -63z m138 0 c38 0 80 6 103 16 l37 16 -5 -27 c-19 -88 -31 -118
-65 -153 -45 -47 -75 -50 -121 -12 -36 31 -64 87 -74 151 l-7 44 33 -18 c22
-11 57 -17 99 -17z"/>
<path d="M346 1857 c-21 -67 -41 -129 -43 -138 -6 -22 44 -39 115 -39 l56 0
-45 -29 c-59 -38 -116 -98 -103 -110 31 -31 230 -168 237 -164 16 9 67 127 67
153 0 20 2 22 10 10 5 -8 10 -24 10 -36 0 -33 60 -146 75 -140 7 2 63 41 124
86 l112 82 -24 31 c-31 41 -108 94 -158 109 -51 15 -105 -8 -122 -52 -13 -35
-27 -39 -27 -9 0 27 -53 79 -80 79 -20 0 -19 2 8 25 56 47 51 109 -16 178 -36
38 -118 87 -144 87 -8 0 -29 -50 -52 -123z m125 75 c24 -16 59 -45 77 -66 84
-96 -3 -189 -160 -171 l-58 7 30 34 c35 40 63 130 58 185 -2 21 -1 39 2 39 3
0 26 -13 51 -28z m128 -290 c20 -22 23 -33 19 -81 -2 -31 -14 -78 -26 -105
l-22 -49 -30 42 c-35 48 -108 98 -157 107 l-34 6 23 25 c54 58 133 96 178 86
14 -3 36 -17 49 -31z m216 -1 c22 -10 58 -34 80 -53 l40 -35 -35 -8 c-69 -14
-142 -68 -173 -128 l-15 -28 -23 48 c-14 29 -25 73 -27 110 -4 56 -2 64 21 87
31 31 75 34 132 7z"/>
<path d="M876 1946 c-200 -99 -191 -278 14 -280 98 -1 120 7 120 48 0 37 -67
256 -78 256 -4 0 -29 -11 -56 -24z m30 -58 c1 -58 34 -146 65 -174 27 -25 9
-34 -71 -34 -105 0 -172 50 -156 116 12 45 115 140 156 144 3 0 6 -24 6 -52z"/>
<path d="M588 1002 c-25 -3 -28 -7 -28 -40 0 -21 4 -52 9 -70 l10 -32 -25 19
c-37 29 -117 53 -166 49 l-43 -3 0 -285 0 -285 55 3 c56 3 130 30 164 60 19
16 19 16 11 -3 -4 -11 -10 -41 -12 -67 l-6 -48 147 0 146 0 0 39 c0 21 -7 58
-15 82 -42 119 -133 162 -201 94 -20 -20 -24 -21 -24 -7 0 39 -41 84 -101 111
l-60 27 40 13 c50 15 121 79 121 110 l0 23 31 -26 c86 -73 199 26 210 184 l4
45 -120 5 c-66 3 -132 4 -147 2z m18 -47 c37 -19 154 -20 199 -1 41 17 41 15
19 -66 -18 -64 -65 -124 -104 -133 -40 -9 -88 28 -115 88 -20 45 -40 127 -31
127 2 0 17 -7 32 -15z m-126 -55 c45 -12 108 -67 115 -100 13 -58 -71 -126
-177 -144 l-37 -7 14 35 c19 46 19 157 0 203 l-15 36 32 -7 c18 -3 48 -11 68
-16z m38 -301 c83 -41 100 -109 40 -165 -34 -30 -117 -64 -159 -64 -17 0 -17
3 -3 35 18 44 18 162 -1 195 -8 14 -14 28 -15 31 0 11 93 -11 138 -32z m244
-89 c28 -21 62 -94 73 -152 8 -43 9 -43 -38 -23 -47 19 -138 19 -184 0 -20 -8
-37 -14 -39 -12 -2 1 3 28 10 59 14 60 47 122 74 138 28 16 78 11 104 -10z"/>
<path d="M900 796 c-153 -41 -199 -166 -88 -234 40 -24 131 -52 170 -52 l28 0
0 150 0 150 -32 -1 c-18 0 -53 -6 -78 -13z m53 -52 c-19 -56 -13 -153 12 -191
l17 -26 -47 6 c-68 10 -145 54 -162 94 -11 28 -11 38 1 66 20 48 101 95 168
96 l27 1 -16 -46z"/>
</g>
</svg>
