<?xml version="1.0" standalone="no"?>
<!DOCTYPE svg PUBLIC "-//W3C//DTD SVG 20010904//EN"
 "http://www.w3.org/TR/2001/REC-SVG-20010904/DTD/svg10.dtd">
<svg version="1.0" xmlns="http://www.w3.org/2000/svg"
 width="137.000000pt" height="131.000000pt" viewBox="0 0 137.000000 131.000000"
 preserveAspectRatio="xMidYMid meet">
<metadata>
Created by potrace 1.16, written by Peter Selinger 2001-2019
</metadata>
<g transform="translate(0.000000,131.000000) scale(0.100000,-0.100000)"
fill="#000000" stroke="none">
<path d="M620 972 c0 -20 4 -52 9 -70 l10 -32 -26 20 c-32 25 -114 50 -165 50
l-38 0 0 -290 0 -290 23 0 c40 0 141 30 169 50 35 26 39 25 28 -6 -6 -14 -10
-43 -10 -65 l0 -39 150 0 c115 0 148 3 145 13 -2 6 -6 36 -10 64 l-6 53 26
-10 c14 -5 25 -7 25 -4 0 8 -46 45 -57 46 -4 0 -18 16 -31 34 -22 33 -68 64
-94 64 -7 0 -31 -10 -53 -21 -21 -12 -41 -17 -42 -13 -14 41 -49 76 -102 101
l-60 29 49 17 c53 19 110 75 110 108 0 20 1 20 31 -5 46 -39 92 -35 139 12 20
20 39 44 42 52 4 13 11 13 46 4 23 -6 42 -9 42 -7 0 2 -12 15 -27 28 -26 22
-29 23 -42 7 -13 -16 -13 -15 -6 3 4 11 10 46 14 78 l7 57 -148 0 -148 0 0
-38z m145 -27 c62 0 88 4 109 18 l28 19 -7 -44 c-30 -187 -168 -234 -233 -80
-11 26 -22 64 -25 84 l-6 38 27 -18 c19 -12 47 -17 107 -17z m-203 -47 c113
-48 126 -142 25 -195 -30 -15 -45 -9 -73 26 -10 12 -13 11 -23 -7 -10 -19 -8
-22 21 -30 l33 -9 -40 -11 c-62 -18 -68 -16 -48 15 24 37 25 165 1 211 l-17
33 37 -7 c20 -3 58 -15 84 -26z m-23 -273 c58 -20 104 -54 97 -71 -3 -8 -9
-20 -12 -28 -3 -9 2 -16 15 -18 19 -3 19 -5 5 -34 -18 -37 -91 -80 -154 -90
-40 -7 -43 -6 -35 12 29 69 30 159 0 227 -6 13 -2 17 18 17 13 0 43 -7 66 -15z
m280 -101 c26 -18 66 -101 76 -158 l7 -36 -36 15 c-45 19 -156 19 -201 0 l-35
-14 6 27 c33 152 107 219 183 166z"/>
<path d="M961 804 c-99 -26 -151 -75 -151 -139 0 -64 93 -129 203 -141 l57 -7
0 152 0 151 -27 -1 c-16 0 -52 -7 -82 -15z m64 -21 c-30 -68 -29 -158 0 -227
8 -17 5 -19 -34 -13 -61 8 -132 47 -154 85 -36 61 4 121 103 155 63 22 94 22
85 0z"/>
<path d="M306 464 c-3 -9 -6 -17 -6 -19 0 -5 73 -25 76 -22 2 2 -12 15 -31 30
-28 22 -34 24 -39 11z"/>
</g>
</svg>
