<?xml version="1.0" standalone="no"?>
<!DOCTYPE svg PUBLIC "-//W3C//DTD SVG 20010904//EN"
 "http://www.w3.org/TR/2001/REC-SVG-20010904/DTD/svg10.dtd">
<svg version="1.0" xmlns="http://www.w3.org/2000/svg"
 width="159.000000pt" height="118.000000pt" viewBox="0 0 159.000000 118.000000"
 preserveAspectRatio="xMidYMid meet">
<metadata>
Created by potrace 1.16, written by Peter Selinger 2001-2019
</metadata>
<g transform="translate(0.000000,118.000000) scale(0.100000,-0.100000)"
fill="#000000" stroke="none">
<path d="M402 777 c3 -88 1 -103 -12 -101 -79 15 -90 13 -90 -12 0 -22 4 -24
50 -24 l50 0 0 -36 0 -37 -50 5 c-47 5 -50 4 -50 -18 0 -22 4 -24 50 -24 l50
0 0 -115 0 -115 390 0 390 0 0 114 0 113 31 7 c17 3 42 6 55 6 46 0 23 19 -31
25 -54 7 -55 8 -55 40 0 36 15 45 78 45 52 0 37 18 -23 25 l-55 7 0 99 0 99
-391 0 -390 0 3 -103z m758 -3 l0 -96 -30 6 c-27 5 -30 3 -30 -19 0 -21 5 -25
30 -25 28 0 30 -3 30 -36 0 -35 -1 -36 -30 -30 -27 5 -30 3 -30 -19 0 -21 5
-25 30 -25 l30 0 0 -110 0 -110 -315 0 -315 0 0 280 0 280 315 0 315 0 0 -96z
m-670 -108 c0 -2 -9 -6 -20 -9 -11 -3 -20 -1 -20 4 0 5 9 9 20 9 11 0 20 -2
20 -4z m-10 -116 c-19 -13 -30 -13 -30 0 0 6 10 10 23 10 18 0 19 -2 7 -10z"/>
</g>
</svg>
