<?xml version="1.0" standalone="no"?>
<!DOCTYPE svg PUBLIC "-//W3C//DTD SVG 20010904//EN"
 "http://www.w3.org/TR/2001/REC-SVG-20010904/DTD/svg10.dtd">
<svg version="1.0" xmlns="http://www.w3.org/2000/svg"
 width="131.000000pt" height="146.000000pt" viewBox="0 0 131.000000 146.000000"
 preserveAspectRatio="xMidYMid meet">
<metadata>
Created by potrace 1.16, written by Peter Selinger 2001-2019
</metadata>
<g transform="translate(0.000000,146.000000) scale(0.100000,-0.100000)"
fill="#000000" stroke="none">
<path d="M585 1150 c-3 -5 -3 -14 0 -20 4 -6 -10 -10 -36 -10 l-42 0 6 -52 c3
-29 9 -62 13 -73 7 -18 6 -18 -20 3 -35 27 -116 52 -168 52 l-38 0 0 -291 0
-291 48 6 c64 10 138 34 152 52 21 24 29 16 19 -18 -5 -18 -9 -50 -9 -70 0
-37 1 -38 39 -38 l38 0 7 -50 c4 -27 11 -50 16 -50 9 0 15 53 11 88 -1 8 13
12 44 12 l45 0 0 -37 c0 -46 14 -73 24 -48 3 9 6 32 6 50 0 31 3 34 33 37 28
3 32 6 32 33 -1 17 -4 47 -8 67 l-8 37 43 -24 c35 -19 132 -45 170 -45 4 0 8
131 8 291 l0 292 -62 -7 c-37 -3 -79 -16 -106 -31 -25 -14 -46 -24 -48 -23 -1
2 2 25 7 53 12 63 7 75 -31 75 -23 0 -30 4 -30 20 0 13 -7 20 -20 20 -13 0
-20 -7 -20 -20 0 -17 -7 -20 -40 -20 -33 0 -40 3 -40 20 0 21 -24 28 -35 10z
m11 -121 l11 -34 7 30 c6 28 10 30 51 31 41 1 45 -1 45 -22 0 -33 16 -30 23 4
4 18 16 33 33 41 l27 12 -7 -43 c-4 -24 -18 -66 -31 -94 l-25 -52 -72 2 -73 1
-22 40 c-12 22 -26 63 -31 91 l-9 52 31 -13 c20 -9 34 -24 42 -46z m-163 -12
c21 -5 54 -25 74 -42 30 -26 37 -39 37 -70 0 -30 -7 -44 -36 -71 -34 -31 -67
-44 -147 -60 l-33 -7 17 33 c22 42 22 153 1 204 l-16 38 33 -7 c17 -4 49 -12
70 -18z m540 -4 c-26 -39 -25 -178 1 -217 l18 -29 -42 7 c-62 10 -138 45 -160
74 -22 27 -26 72 -10 102 14 27 90 69 141 79 71 14 71 14 52 -16z m-405 -139
c-14 -14 -15 -14 -10 11 3 19 8 23 15 16 8 -8 7 -16 -5 -27z m185 17 c3 -13 1
-18 -9 -14 -7 2 -10 11 -7 19 7 19 10 18 16 -5z m-235 -97 c-6 -22 -6 -45 0
-62 l9 -27 -62 30 -62 30 45 17 c25 10 53 24 61 33 21 20 21 20 9 -21z m388
-24 c11 -1 -3 -9 -30 -20 -26 -10 -56 -26 -65 -34 -15 -13 -16 -10 -16 43 l0
58 46 -24 c26 -13 55 -23 65 -23z m-439 -51 c32 -16 54 -36 68 -61 18 -35 19
-38 3 -71 -19 -40 -94 -82 -167 -93 l-43 -7 17 33 c23 44 23 156 2 200 l-17
33 45 -5 c24 -3 66 -16 92 -29z m498 -10 c-19 -53 -19 -130 0 -176 19 -44 19
-43 -3 -43 -83 0 -192 72 -192 127 0 64 90 129 182 132 l27 1 -14 -41z m-211
-73 c-3 -9 -10 -13 -16 -10 -5 3 -4 12 3 20 15 18 22 13 13 -10z m-174 0 c0
-8 -4 -18 -10 -21 -5 -3 -10 3 -10 14 0 12 5 21 10 21 6 0 10 -6 10 -14z m167
-45 c22 -33 51 -136 40 -147 -9 -9 -47 16 -47 31 0 8 -9 15 -20 15 -11 0 -20
-4 -20 -10 0 -5 -18 -10 -40 -10 -22 0 -40 5 -40 10 0 15 -28 12 -37 -4 -7
-12 -45 -36 -56 -36 -6 0 9 80 22 113 24 63 39 73 110 71 62 -1 67 -3 88 -33z"/>
</g>
</svg>
