<?xml version="1.0" standalone="no"?>
<!DOCTYPE svg PUBLIC "-//W3C//DTD SVG 20010904//EN"
 "http://www.w3.org/TR/2001/REC-SVG-20010904/DTD/svg10.dtd">
<svg version="1.0" xmlns="http://www.w3.org/2000/svg"
 width="165.000000pt" height="118.000000pt" viewBox="0 0 165.000000 118.000000"
 preserveAspectRatio="xMidYMid meet">
<metadata>
Created by potrace 1.16, written by Peter Selinger 2001-2019
</metadata>
<g transform="translate(0.000000,118.000000) scale(0.100000,-0.100000)"
fill="#000000" stroke="none">
<path d="M420 588 l0 -291 148 6 c444 19 782 142 782 286 0 96 -138 182 -379
237 -134 30 -338 54 -458 54 l-93 0 0 -292z m265 266 c198 -15 414 -67 526
-126 165 -87 165 -189 0 -276 -112 -59 -328 -111 -526 -126 -44 -4 -109 -9
-145 -12 l-65 -6 27 29 c48 50 71 118 76 221 6 117 -16 204 -65 269 l-34 45
63 -6 c35 -3 99 -8 143 -12z"/>
<path d="M935 660 c-8 -26 -9 -26 40 -35 22 -4 38 -5 35 -3 -3 1 -19 16 -37
31 -31 29 -31 29 -38 7z"/>
<path d="M650 491 c-9 -18 -6 -21 31 -31 23 -6 42 -10 43 -8 2 2 -12 16 -30
31 -32 27 -33 27 -44 8z"/>
<path d="M1176 844 c-8 -21 -9 -20 38 -28 l39 -8 -30 26 c-36 31 -39 31 -47
10z"/>
<path d="M306 764 c-8 -21 -9 -20 38 -28 l39 -8 -30 26 c-36 31 -39 31 -47 10z"/>
<path d="M1280 390 c-9 -17 -6 -21 22 -28 44 -12 46 -7 15 22 -26 24 -27 24
-37 6z"/>
</g>
</svg>
