<?xml version="1.0" standalone="no"?>
<!DOCTYPE svg PUBLIC "-//W3C//DTD SVG 20010904//EN"
 "http://www.w3.org/TR/2001/REC-SVG-20010904/DTD/svg10.dtd">
<svg version="1.0" xmlns="http://www.w3.org/2000/svg"
 width="142.000000pt" height="231.000000pt" viewBox="0 0 142.000000 231.000000"
 preserveAspectRatio="xMidYMid meet">
<metadata>
Created by potrace 1.16, written by Peter Selinger 2001-2019
</metadata>
<g transform="translate(0.000000,231.000000) scale(0.100000,-0.100000)"
fill="#000000" stroke="none">
<path d="M564 1958 c8 -66 52 -156 88 -182 83 -60 182 28 195 173 l6 61 -148
0 -148 0 7 -52z m141 -12 c48 0 80 5 103 17 31 17 32 17 32 -1 0 -43 -33 -123
-64 -157 -45 -47 -89 -48 -133 -2 -34 35 -50 69 -62 134 l-8 42 31 -16 c20
-11 56 -17 101 -17z"/>
<path d="M376 1852 c-37 -64 -68 -121 -68 -127 -1 -14 67 -45 116 -54 l41 -6
-60 -17 c-109 -30 -108 -27 -29 -163 38 -65 74 -120 80 -122 17 -6 113 85 134
128 40 77 20 136 -55 163 -22 8 -32 15 -22 15 34 2 75 30 85 60 11 32 2 91
-19 119 -31 41 -86 95 -110 107 l-26 14 -67 -117z m146 41 c54 -57 68 -81 68
-122 0 -43 -9 -60 -41 -76 -37 -19 -102 -19 -169 1 l-53 16 30 18 c51 31 104
121 105 181 1 16 4 29 7 29 4 0 27 -21 53 -47z m43 -267 c57 -37 41 -119 -38
-198 l-52 -52 -7 47 c-8 57 -46 125 -89 161 -17 15 -29 30 -25 33 3 3 27 12
53 19 58 17 124 12 158 -10z"/>
<path d="M895 1907 c-71 -71 -93 -122 -75 -174 11 -30 55 -63 87 -63 10 -1 0
-7 -22 -15 -61 -22 -78 -49 -72 -115 l6 -54 -25 31 c-29 38 -81 58 -115 44
-54 -20 -102 -104 -115 -198 l-7 -53 147 0 146 0 0 38 c0 22 -7 61 -15 88 -8
27 -15 50 -15 51 0 0 29 -28 64 -63 35 -35 70 -64 78 -64 20 1 152 240 139
253 -6 6 -41 21 -78 33 -43 15 -59 23 -42 23 33 1 115 29 127 44 7 8 -12 50
-61 135 -39 67 -75 122 -80 122 -5 0 -37 -28 -72 -63z m63 2 c1 -50 50 -137
94 -169 l39 -29 -52 -15 c-93 -28 -186 -14 -203 29 -11 31 -6 80 12 110 19 31
92 105 103 105 3 0 6 -14 7 -31z m60 -274 c29 -9 52 -18 52 -21 0 -3 -14 -17
-30 -31 -43 -35 -80 -104 -88 -160 l-7 -47 -52 52 c-86 86 -96 168 -23 204 43
22 81 23 148 3z m-243 -118 c31 -31 65 -114 65 -158 0 -16 -2 -16 -32 -1 -44
23 -162 22 -204 0 l-31 -17 8 44 c28 148 117 209 194 132z"/>
<path d="M543 1003 c-3 -7 0 -35 6 -63 6 -28 11 -52 11 -54 0 -1 -26 10 -57
26 -32 15 -84 31 -115 34 l-58 7 0 -293 0 -292 59 4 c36 2 79 14 112 31 29 14
54 25 56 24 1 -2 -2 -20 -7 -42 -21 -90 -29 -85 140 -85 l150 0 0 38 c0 20 -4
52 -9 70 l-10 32 26 -20 c32 -25 114 -50 165 -50 l38 0 0 290 0 290 -23 0
c-38 0 -139 -30 -173 -51 l-33 -20 10 33 c5 18 9 49 9 68 l0 35 -146 0 c-105
0 -148 -3 -151 -12z m148 -55 c42 0 80 6 100 16 18 9 33 16 34 16 1 0 -1 -20
-6 -44 -28 -150 -116 -211 -194 -133 -31 31 -65 114 -65 159 0 18 2 18 31 2
20 -10 56 -16 100 -16z m-231 -34 c67 -20 120 -69 120 -112 0 -58 -74 -116
-165 -129 l-45 -6 15 36 c19 46 19 147 1 192 -14 32 -14 35 3 35 9 0 42 -7 71
-16z m545 -1 c-29 -75 -29 -156 0 -227 8 -17 5 -19 -34 -13 -65 8 -133 47
-155 89 -17 31 -18 39 -7 66 19 46 116 100 180 102 18 0 22 -4 16 -17z m-194
-175 c11 -15 46 -40 79 -56 l59 -28 -49 -17 c-53 -19 -110 -75 -110 -108 0
-20 -1 -20 -31 5 -19 16 -43 26 -63 26 -29 0 -72 -21 -87 -43 -4 -5 -12 7 -19
27 -13 40 -61 79 -127 101 l-37 13 42 13 c51 15 117 70 126 103 l6 25 36 -24
c20 -14 43 -25 51 -25 25 0 84 32 91 49 5 12 8 10 10 -9 2 -14 13 -37 23 -52z
m-318 -120 c142 -61 103 -190 -68 -228 -26 -6 -49 -9 -51 -7 -3 2 3 21 12 43
18 44 15 177 -5 197 -35 35 25 32 112 -5z m509 0 c-23 -45 -23 -162 0 -206
l17 -33 -32 6 c-74 15 -110 30 -144 60 -30 26 -37 39 -37 68 0 57 55 106 141
126 71 17 74 16 55 -21z m-246 -99 c26 -25 59 -99 67 -150 l5 -37 -29 15 c-58
29 -148 28 -221 -2 -25 -10 -24 19 2 89 28 73 80 120 123 112 17 -4 41 -16 53
-27z"/>
</g>
</svg>
