<?xml version="1.0" standalone="no"?>
<!DOCTYPE svg PUBLIC "-//W3C//DTD SVG 20010904//EN"
 "http://www.w3.org/TR/2001/REC-SVG-20010904/DTD/svg10.dtd">
<svg version="1.0" xmlns="http://www.w3.org/2000/svg"
 width="118.000000pt" height="89.000000pt" viewBox="0 0 118.000000 89.000000"
 preserveAspectRatio="xMidYMid meet">
<metadata>
Created by potrace 1.16, written by Peter Selinger 2001-2019
</metadata>
<g transform="translate(0.000000,89.000000) scale(0.100000,-0.100000)"
fill="#000000" stroke="none">
<path d="M499 577 c-56 -21 -107 -56 -134 -91 -35 -46 -65 -116 -65 -153 l0
-33 290 0 290 0 0 29 c0 81 -65 179 -151 225 -63 35 -170 45 -230 23z m218
-33 c62 -30 106 -80 132 -149 11 -27 18 -51 17 -52 -1 -1 -20 6 -42 17 -21 11
-63 24 -93 30 -120 23 -329 3 -389 -36 l-25 -16 7 33 c10 51 56 120 103 153
86 60 192 68 290 20z"/>
</g>
</svg>
