<?xml version="1.0" standalone="no"?>
<!DOCTYPE svg PUBLIC "-//W3C//DTD SVG 20010904//EN"
 "http://www.w3.org/TR/2001/REC-SVG-20010904/DTD/svg10.dtd">
<svg version="1.0" xmlns="http://www.w3.org/2000/svg"
 width="131.000000pt" height="131.000000pt" viewBox="0 0 131.000000 131.000000"
 preserveAspectRatio="xMidYMid meet">
<metadata>
Created by potrace 1.16, written by Peter Selinger 2001-2019
</metadata>
<g transform="translate(0.000000,131.000000) scale(0.100000,-0.100000)"
fill="#000000" stroke="none">
<path d="M568 987 c-80 -17 -98 -24 -98 -39 0 -34 42 -108 80 -141 l38 -32
-24 -18 c-21 -15 -24 -16 -24 -2 0 24 -65 90 -114 116 -25 13 -47 21 -49 19
-6 -7 -77 -210 -77 -220 0 -5 25 -14 56 -21 54 -12 90 -8 147 16 13 6 17 2 17
-16 0 -22 -3 -24 -50 -21 -37 3 -63 -2 -105 -22 -30 -13 -55 -29 -55 -33 0
-14 124 -193 134 -193 5 0 29 20 53 45 48 51 51 50 24 -3 -10 -20 -21 -51 -22
-67 l-4 -30 75 -13 c41 -7 95 -11 120 -10 41 3 45 6 48 31 5 38 -25 134 -48
157 -18 18 -18 19 8 28 26 9 27 8 27 -32 1 -45 22 -95 59 -141 l25 -30 85 84
c47 47 83 89 79 93 -3 5 -24 23 -46 40 -23 17 -33 28 -22 24 10 -4 38 -10 62
-13 l43 -6 0 122 0 121 -34 0 c-47 0 -116 -26 -147 -56 -26 -25 -28 -25 -37
-7 -9 17 -6 21 31 30 47 13 121 62 136 92 9 17 0 28 -82 90 l-92 71 -22 -25
c-29 -32 -56 -125 -47 -159 6 -26 -1 -31 -29 -20 -13 5 -13 11 4 47 18 41 25
120 13 151 -8 20 -15 19 -136 -7z m123 -68 c-4 -115 -69 -159 -139 -95 -23 20
-62 86 -62 103 0 4 24 7 52 5 40 -2 64 3 98 20 25 13 47 22 49 21 2 -2 3 -26
2 -54z m160 -39 c23 -16 53 -30 66 -30 35 0 25 -20 -31 -57 -119 -81 -194 -9
-135 128 l22 50 18 -30 c10 -17 37 -44 60 -61z m-371 -66 c60 -55 64 -111 10
-139 -32 -17 -127 -20 -150 -5 -8 5 -10 10 -3 10 20 0 63 101 63 147 0 41 1
43 21 33 11 -7 38 -27 59 -46z m491 -72 c-14 -26 -14 -122 -1 -158 l11 -27
-43 7 c-55 9 -99 35 -118 69 -13 24 -13 30 0 54 18 33 70 64 119 73 44 8 45 7
32 -18z m-118 -163 l32 -20 -30 8 c-16 4 -40 7 -51 6 -19 -1 -20 2 -11 28 9
23 13 26 20 13 5 -8 23 -24 40 -35z m-349 31 c37 -14 51 -45 37 -89 -10 -35
-65 -111 -80 -111 -4 0 -12 19 -18 43 -12 41 -74 117 -96 117 -20 0 9 21 49
35 47 17 74 18 108 5z m386 -75 c51 -26 71 -45 47 -45 -28 0 -99 -62 -116
-101 -9 -21 -19 -39 -22 -39 -3 0 -18 22 -32 49 -69 126 -3 200 123 136z
m-291 -15 c0 -3 -14 -16 -32 -30 -27 -22 -30 -23 -23 -5 5 11 11 30 13 42 4
19 8 20 24 10 10 -6 19 -14 18 -17z m60 -24 c33 -18 51 -55 58 -123 l6 -52
-39 20 c-30 16 -53 20 -105 17 l-66 -4 7 26 c15 51 41 91 73 110 38 24 32 23
66 6z"/>
</g>
</svg>
