<?xml version="1.0" standalone="no"?>
<!DOCTYPE svg PUBLIC "-//W3C//DTD SVG 20010904//EN"
 "http://www.w3.org/TR/2001/REC-SVG-20010904/DTD/svg10.dtd">
<svg version="1.0" xmlns="http://www.w3.org/2000/svg"
 width="164.000000pt" height="118.000000pt" viewBox="0 0 164.000000 118.000000"
 preserveAspectRatio="xMidYMid meet">
<metadata>
Created by potrace 1.16, written by Peter Selinger 2001-2019
</metadata>
<g transform="translate(0.000000,118.000000) scale(0.100000,-0.100000)"
fill="#000000" stroke="none">
<path d="M400 770 l0 -109 -50 6 c-49 6 -50 5 -50 -22 0 -27 1 -27 50 -20 l50
7 0 -42 0 -42 -50 7 c-49 7 -50 7 -50 -20 0 -27 1 -27 50 -20 l50 7 0 -113 0
-112 148 6 c320 14 572 78 710 178 37 27 71 49 76 49 4 0 4 6 -1 13 -13 16
-14 97 -2 97 6 0 7 5 4 10 -3 6 -15 10 -26 10 -10 0 -19 5 -19 10 0 6 -27 28
-60 49 -137 89 -468 160 -742 161 l-88 0 0 -110z m263 85 c239 -19 505 -96
597 -175 l25 -21 -67 6 c-68 7 -68 6 -68 -19 0 -24 1 -25 78 -23 l77 2 0 -35
0 -35 -77 2 c-77 2 -78 1 -78 -23 0 -25 0 -26 68 -19 l67 6 -25 -21 c-92 -79
-358 -156 -597 -175 -40 -3 -106 -8 -145 -11 l-73 -6 32 34 c108 114 105 383
-6 501 l-26 29 73 -6 c39 -3 105 -8 145 -11z m-180 -212 c-7 -2 -19 -2 -25 0
-7 3 -2 5 12 5 14 0 19 -2 13 -5z m0 -110 c-7 -2 -19 -2 -25 0 -7 3 -2 5 12 5
14 0 19 -2 13 -5z"/>
</g>
</svg>
