<?xml version="1.0" standalone="no"?>
<!DOCTYPE svg PUBLIC "-//W3C//DTD SVG 20010904//EN"
 "http://www.w3.org/TR/2001/REC-SVG-20010904/DTD/svg10.dtd">
<svg version="1.0" xmlns="http://www.w3.org/2000/svg"
 width="118.000000pt" height="89.000000pt" viewBox="0 0 118.000000 89.000000"
 preserveAspectRatio="xMidYMid meet">
<metadata>
Created by potrace 1.16, written by Peter Selinger 2001-2019
</metadata>
<g transform="translate(0.000000,89.000000) scale(0.100000,-0.100000)"
fill="#000000" stroke="none">
<path d="M302 547 c10 -87 65 -166 149 -212 48 -27 63 -30 139 -30 76 0 91 3
139 30 84 46 139 125 149 212 l5 43 -293 0 -293 0 5 -43z m128 -41 c121 -29
310 -18 393 23 33 17 37 17 37 2 0 -9 -11 -39 -24 -66 -68 -147 -263 -196
-403 -102 -51 35 -99 102 -109 156 -7 33 -7 33 17 18 13 -9 53 -23 89 -31z"/>
</g>
</svg>
