<?xml version="1.0" standalone="no"?>
<!DOCTYPE svg PUBLIC "-//W3C//DTD SVG 20010904//EN"
 "http://www.w3.org/TR/2001/REC-SVG-20010904/DTD/svg10.dtd">
<svg version="1.0" xmlns="http://www.w3.org/2000/svg"
 width="153.000000pt" height="118.000000pt" viewBox="0 0 153.000000 118.000000"
 preserveAspectRatio="xMidYMid meet">
<metadata>
Created by potrace 1.16, written by Peter Selinger 2001-2019
</metadata>
<g transform="translate(0.000000,118.000000) scale(0.100000,-0.100000)"
fill="#000000" stroke="none">
<path d="M300 590 l0 -293 148 6 c253 11 479 56 622 123 83 39 150 97 149 129
l0 20 -9 -21 c-9 -24 -69 -78 -108 -98 -23 -12 -80 -13 -340 -9 -284 6 -312 8
-312 23 0 14 15 18 98 23 53 4 193 7 310 7 116 0 212 4 212 8 0 9 -283 22
-487 22 -113 0 -123 2 -123 18 0 17 13 20 137 25 75 4 212 7 305 7 105 0 168
4 168 10 0 6 -80 10 -217 11 -120 1 -225 2 -233 3 -8 2 -48 3 -87 4 -54 2 -73
6 -73 16 0 18 124 26 397 26 117 0 213 4 213 8 0 10 -284 22 -492 22 -101 0
-128 3 -128 14 0 19 73 26 295 27 105 0 223 4 264 8 69 7 76 5 115 -20 44 -28
80 -64 89 -89 4 -10 6 -8 6 6 1 13 -15 36 -40 59 -116 105 -392 177 -731 192
l-148 6 0 -293z m320 259 c124 -14 266 -43 363 -75 43 -14 77 -27 75 -29 -2
-2 -142 0 -311 3 l-309 5 -25 41 c-14 23 -35 49 -47 59 -20 17 -18 17 69 12
50 -4 133 -11 185 -16z m410 -424 c0 -2 -28 -13 -62 -24 -124 -41 -305 -70
-530 -86 l-87 -6 27 28 c15 15 34 39 43 52 l16 25 249 6 c137 3 270 6 297 7
26 1 47 0 47 -2z"/>
</g>
</svg>
