<?xml version="1.0" standalone="no"?>
<!DOCTYPE svg PUBLIC "-//W3C//DTD SVG 20010904//EN"
 "http://www.w3.org/TR/2001/REC-SVG-20010904/DTD/svg10.dtd">
<svg version="1.0" xmlns="http://www.w3.org/2000/svg"
 width="159.000000pt" height="118.000000pt" viewBox="0 0 159.000000 118.000000"
 preserveAspectRatio="xMidYMid meet">
<metadata>
Created by potrace 1.16, written by Peter Selinger 2001-2019
</metadata>
<g transform="translate(0.000000,118.000000) scale(0.100000,-0.100000)"
fill="#000000" stroke="none">
<path d="M360 770 l0 -112 -30 4 c-27 4 -30 2 -30 -23 0 -24 3 -27 32 -25 31
1 32 -1 33 -35 0 -35 0 -36 -32 -28 -32 7 -33 6 -33 -23 0 -28 2 -29 30 -23
34 8 32 18 31 -119 l0 -89 147 6 c352 15 646 96 746 207 153 170 -201 344
-746 367 l-148 6 0 -113z m392 69 c233 -33 414 -97 488 -174 124 -128 -87
-268 -488 -324 -75 -11 -182 -22 -236 -25 l-99 -6 26 28 c46 48 70 117 75 220
6 115 -15 204 -64 268 l-33 43 97 -5 c53 -3 159 -14 234 -25z m-275 -205 c-3
-3 -12 -4 -19 -1 -8 3 -5 6 6 6 11 1 17 -2 13 -5z m0 -110 c-3 -3 -12 -4 -19
-1 -8 3 -5 6 6 6 11 1 17 -2 13 -5z m-70 -10 c-3 -3 -12 -4 -19 -1 -8 3 -5 6
6 6 11 1 17 -2 13 -5z"/>
<path d="M705 710 c-117 -77 -64 -260 74 -260 150 0 202 197 71 265 -41 21
-109 19 -145 -5z"/>
<path d="M1006 673 c-2 -2 -1 -14 1 -28 5 -26 10 -26 151 -9 47 6 58 24 15 25
-16 0 -59 3 -96 8 -37 4 -69 6 -71 4z"/>
<path d="M1007 536 c5 -23 8 -25 57 -20 104 10 136 15 136 23 0 9 -96 21 -160
21 -34 0 -37 -2 -33 -24z"/>
</g>
</svg>
