<?xml version="1.0" standalone="no"?>
<!DOCTYPE svg PUBLIC "-//W3C//DTD SVG 20010904//EN"
 "http://www.w3.org/TR/2001/REC-SVG-20010904/DTD/svg10.dtd">
<svg version="1.0" xmlns="http://www.w3.org/2000/svg"
 width="118.000000pt" height="93.000000pt" viewBox="0 0 118.000000 93.000000"
 preserveAspectRatio="xMidYMid meet">
<metadata>
Created by potrace 1.16, written by Peter Selinger 2001-2019
</metadata>
<g transform="translate(0.000000,93.000000) scale(0.100000,-0.100000)"
fill="#000000" stroke="none">
<path d="M300 598 c0 -36 29 -106 59 -144 12 -15 22 -49 26 -89 9 -77 25 -87
25 -15 l0 49 30 -17 c22 -12 30 -25 30 -44 0 -15 5 -30 10 -33 6 -4 10 5 10
19 0 21 5 26 25 26 18 0 25 -5 25 -19 0 -11 5 -23 10 -26 6 -3 10 3 10 14 0
17 6 21 30 21 23 0 30 -4 30 -20 0 -11 5 -20 10 -20 6 0 10 11 10 24 0 17 7
25 25 28 22 5 25 2 25 -23 0 -16 5 -29 10 -29 6 0 10 15 10 33 0 26 6 36 30
50 l29 18 7 -51 c9 -70 24 -62 24 14 0 48 5 69 20 89 31 39 60 108 60 145 l0
32 -290 0 -290 0 0 -32z m80 -89 c0 -34 -4 -48 -11 -43 -14 8 -48 84 -49 107
0 16 2 16 30 2 27 -14 30 -20 30 -66z m466 16 c-10 -24 -24 -49 -32 -55 -12
-11 -14 -5 -14 38 0 46 3 52 28 64 34 17 38 7 18 -47z m-399 17 c14 -9 30
-152 17 -152 -5 0 -20 7 -32 16 -17 11 -22 25 -22 57 0 47 9 87 19 87 3 0 11
-4 18 -8z m321 -58 c-3 -56 -7 -69 -25 -82 l-23 -14 0 75 c0 77 2 80 43 86 4
0 7 -29 5 -65z m-234 9 c3 -21 6 -60 6 -87 0 -40 -3 -47 -16 -42 -9 3 -18 6
-20 6 -2 0 -4 36 -4 80 0 61 3 80 14 80 8 0 16 -15 20 -37z m76 -10 c0 -27 3
-65 6 -85 6 -37 6 -38 -22 -38 l-29 0 3 85 c3 76 5 85 23 85 16 0 19 -7 19
-47z m75 -29 c4 -41 5 -77 3 -79 -1 -1 -14 -6 -27 -10 -23 -7 -24 -6 -18 31 4
22 7 60 7 87 0 33 4 47 14 47 10 0 16 -21 21 -76z"/>
</g>
</svg>
