<?xml version="1.0" standalone="no"?>
<!DOCTYPE svg PUBLIC "-//W3C//DTD SVG 20010904//EN"
 "http://www.w3.org/TR/2001/REC-SVG-20010904/DTD/svg10.dtd">
<svg version="1.0" xmlns="http://www.w3.org/2000/svg"
 width="131.000000pt" height="115.000000pt" viewBox="0 0 131.000000 115.000000"
 preserveAspectRatio="xMidYMid meet">
<metadata>
Created by potrace 1.16, written by Peter Selinger 2001-2019
</metadata>
<g transform="translate(0.000000,115.000000) scale(0.100000,-0.100000)"
fill="#000000" stroke="none">
<path d="M570 841 c-46 -14 -85 -39 -121 -78 -43 -44 -73 -99 -65 -118 4 -10
-2 -11 -27 -4 -49 14 -57 11 -57 -17 0 -24 3 -26 35 -22 35 4 35 4 35 -34 l0
-39 -35 7 c-33 6 -35 5 -35 -21 0 -26 2 -27 39 -23 35 3 40 1 44 -22 9 -40 64
-108 114 -140 44 -28 53 -30 153 -30 101 0 109 2 153 30 46 29 102 102 113
148 5 18 13 22 44 22 53 0 60 18 10 26 -39 6 -40 8 -40 45 0 38 1 39 34 39 19
0 37 4 40 9 6 10 -26 21 -61 21 -16 0 -25 10 -34 37 -17 54 -103 136 -163 156
-51 18 -132 21 -176 8z m-87 -218 c-7 -2 -19 -2 -25 0 -7 3 -2 5 12 5 14 0 19
-2 13 -5z m0 -110 c-7 -2 -19 -2 -25 0 -7 3 -2 5 12 5 14 0 19 -2 13 -5z"/>
</g>
</svg>
