<?xml version="1.0" standalone="no"?>
<!DOCTYPE svg PUBLIC "-//W3C//DTD SVG 20010904//EN"
 "http://www.w3.org/TR/2001/REC-SVG-20010904/DTD/svg10.dtd">
<svg version="1.0" xmlns="http://www.w3.org/2000/svg"
 width="139.000000pt" height="139.000000pt" viewBox="0 0 139.000000 139.000000"
 preserveAspectRatio="xMidYMid meet">
<metadata>
Created by potrace 1.16, written by Peter Selinger 2001-2019
</metadata>
<g transform="translate(0.000000,139.000000) scale(0.100000,-0.100000)"
fill="#000000" stroke="none">
<path d="M575 1074 c-171 -60 -275 -203 -275 -379 0 -221 173 -395 394 -395
161 0 286 80 363 231 36 72 44 194 18 278 -36 119 -134 222 -249 261 -71 24
-190 26 -251 4z m295 -73 c5 -11 10 -28 9 -38 0 -10 -5 -3 -10 15 l-10 32
-165 0 c-161 0 -165 0 -174 -22 -5 -13 -9 -18 -9 -11 -3 41 5 43 180 43 156 0
169 -1 179 -19z m-328 -167 c60 -88 214 -100 286 -21 13 14 30 42 38 64 l15
38 -5 -40 c-6 -44 -46 -107 -88 -138 -17 -12 -49 -22 -82 -25 -46 -4 -62 0
-99 21 -55 32 -96 105 -102 179 l-4 53 9 -48 c5 -27 19 -64 32 -83z m224 -153
c59 -27 115 -107 114 -165 -1 -14 -6 -8 -14 17 -8 21 -22 48 -33 59 -48 53
-147 73 -216 44 -37 -15 -97 -79 -97 -103 0 -9 -3 -14 -6 -10 -11 11 18 79 49
114 56 63 127 79 203 44z m-259 -218 c-3 -10 -5 -2 -5 17 0 19 2 27 5 18 2
-10 2 -26 0 -35z m363 -52 c-10 -20 -19 -21 -179 -21 -175 0 -183 2 -180 43 0
7 4 2 9 -10 9 -23 13 -23 174 -23 l166 0 7 27 c3 16 8 23 10 16 3 -7 -1 -21
-7 -32z"/>
</g>
</svg>
