<?xml version="1.0" standalone="no"?>
<!DOCTYPE svg PUBLIC "-//W3C//DTD SVG 20010904//EN"
 "http://www.w3.org/TR/2001/REC-SVG-20010904/DTD/svg10.dtd">
<svg version="1.0" xmlns="http://www.w3.org/2000/svg"
 width="118.000000pt" height="116.000000pt" viewBox="0 0 118.000000 116.000000"
 preserveAspectRatio="xMidYMid meet">
<metadata>
Created by potrace 1.16, written by Peter Selinger 2001-2019
</metadata>
<g transform="translate(0.000000,116.000000) scale(0.100000,-0.100000)"
fill="#000000" stroke="none">
<path d="M300 828 c0 -35 37 -119 67 -154 28 -33 85 -72 116 -79 15 -4 27 -11
27 -15 0 -4 -12 -11 -27 -15 -31 -7 -88 -46 -116 -79 -28 -33 -67 -118 -67
-148 l0 -28 290 0 290 0 0 28 c0 30 -39 115 -67 148 -28 33 -85 72 -115 79
-16 4 -28 11 -28 15 0 4 12 11 28 15 28 7 78 41 113 78 31 32 69 117 69 155
l0 32 -290 0 -290 0 0 -32z m170 -57 c125 -21 283 -6 361 33 26 13 29 13 29
-2 -1 -30 -36 -97 -70 -130 -50 -51 -106 -75 -186 -80 -61 -4 -80 -1 -125 20
-30 14 -69 40 -88 59 -35 34 -70 100 -71 131 0 16 3 15 43 -2 23 -10 71 -24
107 -29z m246 -229 c72 -37 143 -128 144 -185 0 -16 -2 -16 -31 -2 -106 56
-347 58 -466 5 -40 -17 -43 -18 -43 -2 1 61 74 151 155 189 42 20 61 23 125
20 50 -2 88 -11 116 -25z"/>
</g>
</svg>
