<?xml version="1.0" standalone="no"?>
<!DOCTYPE svg PUBLIC "-//W3C//DTD SVG 20010904//EN"
 "http://www.w3.org/TR/2001/REC-SVG-20010904/DTD/svg10.dtd">
<svg version="1.0" xmlns="http://www.w3.org/2000/svg"
 width="115.000000pt" height="115.000000pt" viewBox="0 0 115.000000 115.000000"
 preserveAspectRatio="xMidYMid meet">
<metadata>
Created by potrace 1.16, written by Peter Selinger 2001-2019
</metadata>
<g transform="translate(0.000000,115.000000) scale(0.100000,-0.100000)"
fill="#000000" stroke="none">
<path d="M480 833 c-61 -22 -142 -104 -163 -167 -43 -126 1 -263 108 -334 47
-31 52 -32 152 -32 117 0 154 13 209 72 55 58 64 87 64 201 0 100 -1 105 -32
152 -71 107 -212 152 -338 108z m181 -146 c46 -31 71 -81 66 -134 -14 -139
-194 -180 -267 -60 -24 38 -26 106 -5 146 35 69 139 93 206 48z"/>
<path d="M513 681 c-69 -44 -84 -136 -32 -196 59 -66 149 -69 203 -5 48 58 43
131 -14 185 -39 38 -111 45 -157 16z"/>
</g>
</svg>
