<?xml version="1.0" standalone="no"?>
<!DOCTYPE svg PUBLIC "-//W3C//DTD SVG 20010904//EN"
 "http://www.w3.org/TR/2001/REC-SVG-20010904/DTD/svg10.dtd">
<svg version="1.0" xmlns="http://www.w3.org/2000/svg"
 width="118.000000pt" height="116.000000pt" viewBox="0 0 118.000000 116.000000"
 preserveAspectRatio="xMidYMid meet">
<metadata>
Created by potrace 1.16, written by Peter Selinger 2001-2019
</metadata>
<g transform="translate(0.000000,116.000000) scale(0.100000,-0.100000)"
fill="#000000" stroke="none">
<path d="M300 828 c0 -48 42 -131 89 -175 57 -53 57 -93 0 -146 -45 -43 -89
-126 -89 -169 l0 -28 290 0 290 0 0 28 c0 43 -44 126 -89 169 -33 30 -41 45
-41 73 0 28 8 43 41 73 47 44 89 127 89 175 l0 32 -290 0 -290 0 0 -32z m126
-83 c3 -17 4 -48 2 -70 l-3 -39 -34 34 c-35 35 -70 101 -71 132 0 15 5 14 50
-5 41 -17 51 -26 56 -52z m420 12 c-9 -24 -33 -60 -53 -81 -44 -45 -49 -38
-38 49 6 50 8 53 46 65 22 8 43 18 46 24 15 23 14 -18 -1 -57z m-348 -75 c3
-81 2 -83 -18 -72 -17 9 -20 20 -20 86 0 66 2 75 18 72 14 -3 17 -16 20 -86z
m222 13 c0 -63 -3 -76 -19 -85 -31 -16 -33 -13 -27 33 3 23 5 61 5 85 1 35 4
42 21 42 18 0 20 -7 20 -75z m-150 -20 c0 -78 -2 -85 -20 -85 -18 0 -20 7 -20
85 0 78 2 85 20 85 18 0 20 -7 20 -85z m74 33 c12 -101 9 -118 -19 -118 -25 0
-25 1 -25 85 0 76 2 85 19 85 15 0 19 -10 25 -52z m-154 -118 c13 -9 13 -11 0
-20 -21 -14 -40 -12 -40 3 0 26 16 33 40 17z m230 -10 c0 -22 -8 -25 -30 -10
-13 9 -13 11 0 20 22 15 30 12 30 -10z m-148 -85 c4 -91 3 -95 -28 -95 -23 0
-24 2 -24 78 0 83 3 92 31 92 15 0 18 -11 21 -75z m76 -12 l3 -83 -31 0 -30 0
0 69 c0 85 6 103 34 99 19 -3 21 -10 24 -85z m-148 -8 c0 -84 0 -85 -25 -85
-24 0 -25 2 -25 73 0 67 2 75 23 85 12 6 23 11 25 11 1 1 2 -37 2 -84z m203
73 c12 -9 19 -35 23 -86 l7 -74 -29 4 -29 3 -3 83 c-3 83 1 92 31 70z m-273
-95 l0 -68 -55 -21 c-64 -25 -68 -18 -36 51 15 35 74 105 87 105 2 0 4 -30 4
-67z m373 22 c22 -25 56 -94 57 -116 0 -15 -6 -14 -55 5 -30 11 -56 27 -57 35
-2 7 -1 38 0 68 4 58 9 59 55 8z"/>
</g>
</svg>
