<?xml version="1.0" standalone="no"?>
<!DOCTYPE svg PUBLIC "-//W3C//DTD SVG 20010904//EN"
 "http://www.w3.org/TR/2001/REC-SVG-20010904/DTD/svg10.dtd">
<svg version="1.0" xmlns="http://www.w3.org/2000/svg"
 width="292.000000pt" height="76.000000pt" viewBox="0 0 292.000000 76.000000"
 preserveAspectRatio="xMidYMid meet">
<metadata>
Created by potrace 1.16, written by Peter Selinger 2001-2019
</metadata>
<g transform="translate(0.000000,76.000000) scale(0.100000,-0.100000)"
fill="#000000" stroke="none">
<path d="M300 440 l0 -23 207 7 c114 4 209 9 212 11 12 13 -20 16 -212 22
l-207 6 0 -23z"/>
<path d="M780 440 l0 -23 207 7 c114 4 209 9 212 11 12 13 -20 16 -212 22
l-207 6 0 -23z"/>
<path d="M1260 440 l0 -23 207 6 c113 4 209 9 211 12 13 13 -20 16 -212 22
l-206 6 0 -23z"/>
<path d="M1740 440 l0 -23 207 7 c114 4 209 9 212 11 12 13 -20 16 -212 22
l-207 6 0 -23z"/>
<path d="M2200 440 l0 -23 207 6 c113 4 209 9 211 12 13 13 -20 16 -212 22
l-206 6 0 -23z"/>
<path d="M300 321 c0 -20 4 -21 118 -21 152 0 305 11 295 21 -4 4 -99 11 -210
15 l-203 7 0 -22z"/>
<path d="M780 321 c0 -20 4 -21 118 -21 152 0 305 11 295 21 -4 4 -99 11 -210
15 l-203 7 0 -22z"/>
<path d="M1260 320 l0 -23 206 6 c188 5 225 9 213 21 -2 3 -98 8 -212 12
l-207 7 0 -23z"/>
<path d="M1740 320 l0 -23 206 6 c188 5 225 9 213 21 -2 3 -98 8 -212 12
l-207 7 0 -23z"/>
<path d="M2200 320 l0 -23 206 6 c187 5 226 9 213 21 -2 3 -98 8 -212 12
l-207 7 0 -23z"/>
</g>
</svg>
