<?xml version="1.0" standalone="no"?>
<!DOCTYPE svg PUBLIC "-//W3C//DTD SVG 20010904//EN"
 "http://www.w3.org/TR/2001/REC-SVG-20010904/DTD/svg10.dtd">
<svg version="1.0" xmlns="http://www.w3.org/2000/svg"
 width="113.000000pt" height="149.000000pt" viewBox="0 0 113.000000 149.000000"
 preserveAspectRatio="xMidYMid meet">
<metadata>
Created by potrace 1.16, written by Peter Selinger 2001-2019
</metadata>
<g transform="translate(0.000000,149.000000) scale(0.100000,-0.100000)"
fill="#000000" stroke="none">
<path d="M302 999 c5 -175 9 -211 23 -197 3 2 8 91 11 196 l7 192 -23 0 -23 0
5 -191z"/>
<path d="M422 999 c5 -175 9 -211 23 -197 3 2 8 91 11 196 l7 192 -23 0 -23 0
5 -191z"/>
<path d="M553 999 c6 -179 9 -210 22 -197 3 3 8 91 12 197 l6 191 -23 0 -23 0
6 -191z"/>
<path d="M665 1019 c4 -94 11 -183 15 -198 7 -23 8 -21 14 19 3 25 7 114 8
198 l3 152 -24 0 -23 0 7 -171z"/>
<path d="M793 999 c4 -106 9 -194 12 -197 13 -13 16 18 22 197 l6 191 -23 0
-23 0 6 -191z"/>
<path d="M300 568 c0 -148 10 -262 21 -251 5 5 12 91 16 191 6 182 6 182 -15
182 -21 0 -22 -4 -22 -122z"/>
<path d="M422 505 c5 -170 9 -207 23 -194 2 3 8 89 11 192 l7 187 -23 0 -23 0
5 -185z"/>
<path d="M553 504 c5 -174 9 -205 22 -192 3 3 9 89 12 192 l6 186 -23 0 -23 0
6 -186z"/>
<path d="M665 518 c12 -281 32 -267 37 25 l3 147 -24 0 -23 0 7 -172z"/>
<path d="M793 504 c3 -102 8 -189 11 -192 14 -13 18 17 23 192 l6 186 -23 0
-23 0 6 -186z"/>
</g>
</svg>
