<?xml version="1.0" standalone="no"?>
<!DOCTYPE svg PUBLIC "-//W3C//DTD SVG 20010904//EN"
 "http://www.w3.org/TR/2001/REC-SVG-20010904/DTD/svg10.dtd">
<svg version="1.0" xmlns="http://www.w3.org/2000/svg"
 width="189.000000pt" height="131.000000pt" viewBox="0 0 189.000000 131.000000"
 preserveAspectRatio="xMidYMid meet">
<metadata>
Created by potrace 1.16, written by Peter Selinger 2001-2019
</metadata>
<g transform="translate(0.000000,131.000000) scale(0.100000,-0.100000)"
fill="#000000" stroke="none">
<path d="M300 850 l0 -160 100 0 100 0 0 160 0 160 -100 0 -100 0 0 -160z"/>
<path d="M580 850 l0 -160 100 0 100 0 0 160 0 160 -100 0 -100 0 0 -160z"/>
<path d="M833 853 l2 -158 103 -3 102 -3 0 161 0 160 -105 0 -104 0 2 -157z"/>
<path d="M1120 850 l0 -160 100 0 100 0 0 160 0 160 -100 0 -100 0 0 -160z"/>
<path d="M1390 850 l0 -160 100 0 100 0 0 160 0 160 -100 0 -100 0 0 -160z"/>
<path d="M300 460 l0 -160 100 0 100 0 0 160 0 160 -100 0 -100 0 0 -160z"/>
<path d="M580 460 l0 -160 100 0 100 0 0 160 0 160 -100 0 -100 0 0 -160z"/>
<path d="M835 597 c-4 -13 -5 -83 -3 -157 l3 -135 103 -3 102 -3 0 161 0 160
-100 0 c-96 0 -100 -1 -105 -23z"/>
<path d="M1120 460 l0 -160 100 0 100 0 0 160 0 160 -100 0 -100 0 0 -160z"/>
<path d="M1390 460 l0 -160 100 0 100 0 0 160 0 160 -100 0 -100 0 0 -160z"/>
</g>
</svg>
