<?xml version="1.0" standalone="no"?>
<!DOCTYPE svg PUBLIC "-//W3C//DTD SVG 20010904//EN"
 "http://www.w3.org/TR/2001/REC-SVG-20010904/DTD/svg10.dtd">
<svg version="1.0" xmlns="http://www.w3.org/2000/svg"
 width="119.000000pt" height="209.000000pt" viewBox="0 0 119.000000 209.000000"
 preserveAspectRatio="xMidYMid meet">
<metadata>
Created by potrace 1.16, written by Peter Selinger 2001-2019
</metadata>
<g transform="translate(0.000000,209.000000) scale(0.100000,-0.100000)"
fill="#000000" stroke="none">
<path d="M366 1771 c-62 -41 -85 -125 -51 -191 34 -65 136 -91 202 -50 86 52
86 188 0 240 -42 26 -113 26 -151 1z"/>
<path d="M673 1770 c-87 -52 -83 -198 6 -245 38 -19 104 -19 142 0 62 32 89
128 54 195 -34 65 -136 91 -202 50z"/>
<path d="M385 1470 c-43 -18 -78 -67 -83 -118 -8 -90 50 -156 140 -156 110 0
177 123 119 217 -34 56 -116 82 -176 57z"/>
<path d="M683 1464 c-125 -64 -80 -267 59 -267 89 0 148 58 148 146 0 42 -5
53 -38 89 -33 35 -45 41 -88 45 -33 2 -60 -2 -81 -13z"/>
<path d="M363 1160 c-86 -52 -84 -183 3 -241 63 -41 165 -14 200 53 50 97 -16
208 -126 208 -27 0 -58 -8 -77 -20z"/>
<path d="M673 1160 c-86 -52 -86 -188 0 -240 94 -58 217 10 217 118 0 85 -56
142 -140 142 -27 0 -58 -8 -77 -20z"/>
<path d="M375 861 c-46 -28 -66 -56 -72 -100 -7 -52 1 -83 33 -120 66 -79 209
-50 239 49 38 125 -93 237 -200 171z"/>
<path d="M683 864 c-46 -23 -76 -76 -75 -132 2 -143 201 -189 267 -62 63 123
-68 255 -192 194z"/>
<path d="M368 565 c-60 -33 -87 -130 -53 -195 34 -65 136 -91 202 -50 86 52
86 188 0 240 -38 24 -110 26 -149 5z"/>
<path d="M673 560 c-119 -72 -65 -260 75 -260 83 0 142 58 142 139 0 84 -56
141 -140 141 -27 0 -58 -8 -77 -20z"/>
</g>
</svg>
