<?xml version="1.0" standalone="no"?>
<!DOCTYPE svg PUBLIC "-//W3C//DTD SVG 20010904//EN"
 "http://www.w3.org/TR/2001/REC-SVG-20010904/DTD/svg10.dtd">
<svg version="1.0" xmlns="http://www.w3.org/2000/svg"
 width="125.000000pt" height="152.000000pt" viewBox="0 0 125.000000 152.000000"
 preserveAspectRatio="xMidYMid meet">
<metadata>
Created by potrace 1.16, written by Peter Selinger 2001-2019
</metadata>
<g transform="translate(0.000000,152.000000) scale(0.100000,-0.100000)"
fill="#000000" stroke="none">
<path d="M304 1040 c7 -172 25 -284 39 -246 4 10 7 107 7 216 l0 198 -26 5
-27 5 7 -178z"/>
<path d="M424 1043 c7 -169 19 -253 38 -253 4 0 8 94 8 209 0 181 -2 210 -16
215 -36 14 -37 10 -30 -171z"/>
<path d="M554 1043 c4 -98 12 -195 17 -215 21 -82 29 -35 29 177 l0 215 -26 0
-27 0 7 -177z"/>
<path d="M673 1023 c3 -128 9 -199 16 -201 6 -2 11 -10 11 -18 0 -8 5 -14 10
-14 6 0 10 78 10 215 l0 215 -27 0 -26 0 6 -197z"/>
<path d="M793 1204 c-11 -29 12 -377 25 -382 7 -2 12 -11 13 -20 1 -10 4 -7 9
8 4 14 8 112 9 218 l1 192 -25 0 c-14 0 -28 -7 -32 -16z"/>
<path d="M904 1043 c7 -170 19 -253 38 -253 4 0 8 97 8 215 l0 215 -26 0 -27
0 7 -177z"/>
<path d="M554 556 c7 -181 19 -262 36 -251 6 4 10 93 10 214 l0 209 -26 5 -27
5 7 -182z"/>
<path d="M673 535 c5 -205 8 -224 40 -225 4 0 6 96 5 213 l-3 212 -24 3 -24 4
6 -207z"/>
<path d="M794 705 c-7 -37 2 -292 13 -352 3 -18 9 -31 13 -28 5 3 10 -3 13
-12 9 -42 18 104 15 257 -3 161 -4 165 -25 168 -18 3 -23 -3 -29 -33z"/>
<path d="M904 549 c7 -187 15 -239 36 -239 6 0 10 73 10 209 0 181 -2 210 -16
215 -36 14 -37 10 -30 -185z"/>
<path d="M304 545 c7 -183 20 -261 37 -233 5 7 9 104 9 216 l0 202 -26 0 -27
0 7 -185z"/>
<path d="M424 545 c7 -177 17 -245 37 -245 5 0 9 94 9 215 l0 215 -26 0 -27 0
7 -185z"/>
</g>
</svg>
