<?xml version="1.0" standalone="no"?>
<!DOCTYPE svg PUBLIC "-//W3C//DTD SVG 20010904//EN"
 "http://www.w3.org/TR/2001/REC-SVG-20010904/DTD/svg10.dtd">
<svg version="1.0" xmlns="http://www.w3.org/2000/svg"
 width="119.000000pt" height="242.000000pt" viewBox="0 0 119.000000 242.000000"
 preserveAspectRatio="xMidYMid meet">
<metadata>
Created by potrace 1.16, written by Peter Selinger 2001-2019
</metadata>
<g transform="translate(0.000000,242.000000) scale(0.100000,-0.100000)"
fill="#000000" stroke="none">
<path d="M366 2101 c-89 -59 -88 -198 3 -246 97 -50 214 18 214 125 0 107
-128 179 -217 121z"/>
<path d="M673 2100 c-118 -72 -63 -263 76 -263 143 0 195 185 75 264 -38 25
-109 25 -151 -1z"/>
<path d="M375 1791 c-51 -31 -68 -58 -73 -114 -5 -62 22 -111 78 -140 90 -47
202 24 202 128 0 107 -120 180 -207 126z"/>
<path d="M679 1789 c-120 -70 -82 -248 57 -265 50 -6 101 19 132 66 32 47 27
127 -9 166 -50 55 -120 67 -180 33z"/>
<path d="M373 1494 c-96 -48 -97 -200 -2 -250 47 -24 132 -15 165 18 72 71 57
191 -29 232 -44 20 -93 20 -134 0z"/>
<path d="M672 1489 c-118 -76 -64 -259 76 -259 85 0 142 56 142 139 0 111
-124 180 -218 120z"/>
<path d="M385 1196 c-52 -23 -78 -60 -83 -118 -5 -63 22 -112 78 -141 89 -46
202 24 202 126 0 57 -24 99 -72 126 -43 24 -82 26 -125 7z"/>
<path d="M679 1189 c-120 -70 -82 -248 57 -265 50 -6 101 19 132 66 32 47 27
127 -9 166 -50 55 -120 67 -180 33z"/>
<path d="M380 873 c-56 -29 -83 -78 -78 -141 12 -140 190 -181 263 -59 23 38
22 113 -2 145 -49 65 -121 87 -183 55z"/>
<path d="M695 876 c-97 -44 -117 -158 -42 -233 60 -61 144 -56 206 11 34 36
40 118 12 163 -39 61 -116 87 -176 59z"/>
<path d="M415 580 c-74 -16 -115 -66 -115 -140 0 -80 60 -140 140 -140 169 0
197 234 34 279 -16 4 -42 5 -59 1z"/>
<path d="M706 575 c-45 -16 -63 -31 -83 -69 -49 -95 19 -206 127 -206 80 0
140 60 140 140 0 100 -91 167 -184 135z"/>
</g>
</svg>
