<?xml version="1.0" standalone="no"?>
<!DOCTYPE svg PUBLIC "-//W3C//DTD SVG 20010904//EN"
 "http://www.w3.org/TR/2001/REC-SVG-20010904/DTD/svg10.dtd">
<svg version="1.0" xmlns="http://www.w3.org/2000/svg"
 width="90.000000pt" height="130.000000pt" viewBox="0 0 90.000000 130.000000"
 preserveAspectRatio="xMidYMid meet">
<metadata>
Created by potrace 1.16, written by Peter Selinger 2001-2019
</metadata>
<g transform="translate(0.000000,130.000000) scale(0.100000,-0.100000)"
fill="#000000" stroke="none">
<path d="M382 980 c-49 -22 -81 -79 -82 -141 0 -43 51 -127 90 -146 72 -36
192 12 206 82 9 50 -2 55 -17 7 -10 -35 -19 -44 -61 -62 -76 -33 -140 -13
-172 53 -33 71 -12 152 47 180 70 34 166 10 188 -46 11 -29 13 -30 16 -10 5
28 -19 54 -74 82 -52 26 -85 26 -141 1z"/>
<path d="M420 613 c-61 -22 -84 -40 -101 -77 -35 -77 -18 -148 47 -206 42 -36
104 -41 163 -11 47 24 59 39 68 81 8 43 -13 32 -22 -11 -5 -24 -17 -35 -49
-50 -48 -22 -65 -23 -117 -7 -66 19 -97 112 -64 191 15 36 70 67 118 67 41 -1
107 -38 119 -67 11 -27 12 -27 16 -5 8 50 -117 117 -178 95z"/>
</g>
</svg>
