<?xml version="1.0" standalone="no"?>
<!DOCTYPE svg PUBLIC "-//W3C//DTD SVG 20010904//EN"
 "http://www.w3.org/TR/2001/REC-SVG-20010904/DTD/svg10.dtd">
<svg version="1.0" xmlns="http://www.w3.org/2000/svg"
 width="89.000000pt" height="134.000000pt" viewBox="0 0 89.000000 134.000000"
 preserveAspectRatio="xMidYMid meet">
<metadata>
Created by potrace 1.16, written by Peter Selinger 2001-2019
</metadata>
<g transform="translate(0.000000,134.000000) scale(0.100000,-0.100000)"
fill="#000000" stroke="none">
<path d="M377 1034 c-3 -4 -4 -26 0 -50 l6 -44 -42 0 c-41 0 -41 0 -41 -38 0
-54 24 -127 55 -167 l26 -35 -40 0 -41 0 0 -40 c0 -50 25 -126 56 -167 19 -25
24 -44 24 -90 0 -32 3 -69 7 -82 6 -23 7 -23 14 -5 4 10 8 43 8 72 l1 52 38 0
39 0 2 -62 c4 -115 28 -91 30 30 1 45 7 72 20 90 26 38 51 116 51 162 0 39 -1
40 -35 40 -41 0 -42 2 -14 42 27 37 49 110 49 160 0 37 -1 38 -35 38 l-35 0 0
50 c0 44 -2 50 -21 50 -19 0 -21 -5 -17 -50 l3 -50 -37 0 -38 0 0 50 c0 35 -4
50 -13 50 -8 0 -17 -3 -20 -6z m9 -188 l7 -31 9 26 c7 22 16 28 48 31 36 3 40
1 40 -19 0 -33 17 -36 23 -4 4 19 17 34 36 44 l29 15 -5 -37 c-7 -49 -51 -144
-52 -113 -1 15 -7 22 -21 22 -17 0 -20 -7 -20 -40 0 -39 -1 -40 -35 -40 -34 0
-35 1 -35 41 0 33 -3 40 -17 37 -10 -2 -17 -11 -17 -21 5 -56 -47 43 -60 114
l-6 37 34 -16 c25 -11 37 -24 42 -46z m-6 -235 c0 -36 15 -58 24 -36 3 9 6 25
6 36 0 16 7 19 40 19 38 0 40 -2 40 -29 0 -46 17 -46 25 -1 5 31 14 44 35 55
l29 15 -6 -38 c-7 -46 -45 -140 -51 -124 -2 7 -12 12 -23 12 -14 0 -19 -7 -19
-29 0 -31 -20 -45 -51 -36 -13 4 -19 16 -19 36 0 19 -5 29 -15 29 -8 0 -15 -4
-15 -10 0 -5 -4 -10 -9 -10 -11 0 -47 85 -55 133 l-7 37 36 -17 c26 -13 35
-23 35 -42z"/>
</g>
</svg>
