<?xml version="1.0" standalone="no"?>
<!DOCTYPE svg PUBLIC "-//W3C//DTD SVG 20010904//EN"
 "http://www.w3.org/TR/2001/REC-SVG-20010904/DTD/svg10.dtd">
<svg version="1.0" xmlns="http://www.w3.org/2000/svg"
 width="130.000000pt" height="121.000000pt" viewBox="0 0 130.000000 121.000000"
 preserveAspectRatio="xMidYMid meet">
<metadata>
Created by potrace 1.16, written by Peter Selinger 2001-2019
</metadata>
<g transform="translate(0.000000,121.000000) scale(0.100000,-0.100000)"
fill="#000000" stroke="none">
<path d="M300 760 c0 -149 0 -150 23 -150 77 0 307 24 384 39 101 21 200 61
209 86 4 10 19 15 45 15 21 0 39 5 39 10 0 6 -17 10 -38 10 -27 0 -41 6 -50
21 -38 61 -297 118 -534 119 l-78 0 0 -150z m220 129 c152 -14 280 -42 341
-75 27 -15 49 -31 49 -35 0 -8 -422 -2 -463 6 -14 3 -18 -2 -15 -23 3 -23 8
-27 33 -26 17 1 125 5 240 8 l210 7 -23 -20 c-55 -48 -216 -85 -423 -99 l-115
-7 23 33 c43 64 42 141 -2 206 l-24 36 27 0 c15 0 79 -5 142 -11z"/>
<path d="M300 459 l0 -140 32 3 c81 8 106 163 37 236 l-20 22 70 0 c97 0 286
-26 362 -50 67 -21 129 -54 129 -68 0 -5 -33 -7 -72 -6 -40 2 -148 5 -240 7
l-168 4 0 -24 0 -24 168 6 c92 3 200 8 240 10 39 2 72 -1 72 -6 0 -24 -125
-69 -260 -94 -45 -8 -62 -14 -42 -14 47 -1 180 27 232 50 25 11 56 31 70 44
14 13 41 25 60 28 l35 4 -37 1 c-27 2 -41 8 -49 23 -16 30 -105 68 -212 90
-77 15 -307 39 -384 39 -23 0 -23 -1 -23 -141z"/>
</g>
</svg>
