<?xml version="1.0" standalone="no"?>
<!DOCTYPE svg PUBLIC "-//W3C//DTD SVG 20010904//EN"
 "http://www.w3.org/TR/2001/REC-SVG-20010904/DTD/svg10.dtd">
<svg version="1.0" xmlns="http://www.w3.org/2000/svg"
 width="102.000000pt" height="125.000000pt" viewBox="0 0 102.000000 125.000000"
 preserveAspectRatio="xMidYMid meet">
<metadata>
Created by potrace 1.16, written by Peter Selinger 2001-2019
</metadata>
<g transform="translate(0.000000,125.000000) scale(0.100000,-0.100000)"
fill="#000000" stroke="none">
<path d="M300 806 l0 -144 68 -4 c37 -3 130 -4 207 -4 l140 1 3 148 3 147
-211 0 -210 0 0 -144z m408 -3 l3 -133 -141 0 -140 0 0 135 0 136 138 -3 137
-3 3 -132z"/>
<path d="M363 593 l-63 -4 0 -134 0 -135 65 0 65 0 0 130 0 130 140 0 139 0 4
-132 3 -133 2 136 c2 117 0 138 -14 143 -16 6 -225 5 -341 -1z"/>
</g>
</svg>
