<?xml version="1.0" standalone="no"?>
<!DOCTYPE svg PUBLIC "-//W3C//DTD SVG 20010904//EN"
 "http://www.w3.org/TR/2001/REC-SVG-20010904/DTD/svg10.dtd">
<svg version="1.0" xmlns="http://www.w3.org/2000/svg"
 width="131.000000pt" height="121.000000pt" viewBox="0 0 131.000000 121.000000"
 preserveAspectRatio="xMidYMid meet">
<metadata>
Created by potrace 1.16, written by Peter Selinger 2001-2019
</metadata>
<g transform="translate(0.000000,121.000000) scale(0.100000,-0.100000)"
fill="#000000" stroke="none">
<path d="M380 875 l0 -37 -40 4 c-38 3 -40 2 -40 -24 0 -27 1 -28 40 -22 l40
7 0 -39 0 -40 -40 4 c-37 4 -40 2 -40 -22 0 -28 9 -31 55 -17 l30 8 -4 -45 -3
-45 118 7 c320 19 514 76 514 151 0 69 -211 129 -492 142 l-138 6 0 -38z m300
4 c47 -6 110 -16 140 -24 l55 -13 -52 -1 c-46 -1 -53 -4 -53 -20 0 -11 3 -22
8 -24 4 -3 45 -1 92 3 95 8 106 6 121 -22 8 -15 7 -24 -7 -39 -16 -18 -26 -19
-117 -13 l-99 7 4 -24 c3 -22 7 -24 58 -22 43 2 50 1 33 -7 -40 -17 -194 -40
-312 -47 l-115 -6 22 30 c27 37 27 43 5 44 -14 0 -13 2 5 9 18 8 22 17 22 55
0 38 -3 45 -19 45 -11 0 -22 4 -25 9 -4 5 3 7 14 4 27 -7 25 9 -7 47 l-26 32
84 -7 c46 -3 122 -11 169 -16z"/>
<path d="M380 560 l0 -42 -40 7 c-38 6 -40 6 -40 -19 0 -24 4 -26 39 -26 38 0
39 -1 43 -38 l3 -39 -35 8 c-50 12 -50 12 -50 -16 0 -22 4 -25 40 -25 39 0 40
-1 40 -37 l0 -36 138 6 c542 24 674 202 200 271 -57 8 -156 18 -220 22 l-118
7 0 -43z m391 -10 c114 -22 144 -36 57 -26 -58 6 -58 6 -58 -20 l0 -26 96 7
c83 6 98 5 115 -11 24 -22 24 -29 -1 -54 -15 -15 -29 -19 -62 -15 -153 16
-148 16 -148 -11 0 -25 2 -26 55 -22 30 1 51 0 47 -3 -19 -17 -317 -57 -430
-59 -9 0 -4 11 12 31 31 36 32 46 9 52 -14 4 -12 5 5 6 19 1 22 6 22 46 0 38
-4 47 -22 55 -18 7 -19 9 -5 9 22 1 22 7 -5 44 l-22 30 117 -6 c64 -4 162 -16
218 -27z"/>
</g>
</svg>
