<?xml version="1.0" standalone="no"?>
<!DOCTYPE svg PUBLIC "-//W3C//DTD SVG 20010904//EN"
 "http://www.w3.org/TR/2001/REC-SVG-20010904/DTD/svg10.dtd">
<svg version="1.0" xmlns="http://www.w3.org/2000/svg"
 width="140.000000pt" height="135.000000pt" viewBox="0 0 140.000000 135.000000"
 preserveAspectRatio="xMidYMid meet">
<metadata>
Created by potrace 1.16, written by Peter Selinger 2001-2019
</metadata>
<g transform="translate(0.000000,135.000000) scale(0.100000,-0.100000)"
fill="#000000" stroke="none">
<path d="M307 1031 c-3 -14 2 -21 18 -25 13 -3 31 -9 42 -12 11 -4 5 5 -15 25
-39 37 -38 36 -45 12z"/>
<path d="M1030 1021 c-12 -23 -11 -24 45 -35 29 -6 29 -6 10 9 -11 9 -25 22
-32 31 -10 14 -13 13 -23 -5z"/>
<path d="M470 878 l0 -153 147 7 c243 11 448 63 474 121 40 88 -144 148 -528
172 l-93 6 0 -153z m359 106 c161 -27 251 -66 251 -108 0 -32 -45 -59 -140
-85 -76 -21 -299 -51 -377 -51 l-42 0 24 35 c45 67 45 133 -1 200 l-25 38 108
-7 c59 -4 150 -14 202 -22z"/>
<path d="M726 884 c-8 -22 -9 -21 18 -28 13 -3 32 -9 43 -13 10 -4 4 7 -16 25
-39 37 -37 37 -45 16z"/>
<path d="M390 851 c-9 -18 -6 -21 27 -30 20 -6 38 -9 40 -8 1 2 -11 15 -27 30
-28 27 -29 27 -40 8z"/>
<path d="M976 724 c-8 -21 -9 -20 39 -28 l40 -7 -30 25 c-36 30 -41 31 -49 10z"/>
<path d="M306 644 c-8 -20 -11 -17 38 -32 l39 -11 -28 30 c-33 33 -40 35 -49
13z"/>
<path d="M1026 634 c-8 -22 -9 -21 17 -27 12 -2 31 -8 42 -12 14 -5 9 2 -13
24 -39 36 -38 36 -46 15z"/>
<path d="M470 488 l0 -151 143 6 c285 12 487 73 487 146 0 25 -51 64 -111 84
-97 33 -341 67 -481 67 l-38 0 0 -152z m258 121 c210 -22 344 -69 350 -121 3
-23 -3 -30 -45 -51 -82 -41 -215 -67 -426 -82 l-88 -7 25 37 c14 20 28 53 32
72 8 43 -11 110 -39 141 l-20 22 57 0 c31 0 100 -5 154 -11z"/>
<path d="M726 494 c-8 -20 -11 -17 38 -32 l40 -11 -33 29 c-38 35 -37 35 -45
14z"/>
<path d="M391 461 c-9 -16 -5 -20 30 -29 l41 -10 -28 29 c-15 16 -29 29 -31
29 -1 0 -7 -8 -12 -19z"/>
<path d="M980 341 c-9 -18 -6 -21 27 -30 20 -6 38 -9 40 -8 1 2 -11 15 -27 30
-28 27 -29 27 -40 8z"/>
</g>
</svg>
