<?xml version="1.0" standalone="no"?>
<!DOCTYPE svg PUBLIC "-//W3C//DTD SVG 20010904//EN"
 "http://www.w3.org/TR/2001/REC-SVG-20010904/DTD/svg10.dtd">
<svg version="1.0" xmlns="http://www.w3.org/2000/svg"
 width="123.000000pt" height="111.000000pt" viewBox="0 0 123.000000 111.000000"
 preserveAspectRatio="xMidYMid meet">
<metadata>
Created by potrace 1.16, written by Peter Selinger 2001-2019
</metadata>
<g transform="translate(0.000000,111.000000) scale(0.100000,-0.100000)"
fill="#000000" stroke="none">
<path d="M300 770 c0 -55 37 -149 74 -186 l31 -31 -23 -17 c-33 -25 -73 -111
-79 -172 l-6 -54 152 0 153 0 -7 43 c-12 76 -35 134 -69 169 l-34 35 34 32
c35 34 58 93 70 174 l6 47 -151 0 -151 0 0 -40z m125 -28 c47 -4 90 4 139 24
17 7 19 4 13 -31 -10 -62 -55 -143 -89 -161 -36 -19 -78 -11 -106 19 -26 28
-58 100 -65 148 l-5 37 31 -16 c17 -9 54 -18 82 -20z m66 -209 c33 -19 74 -96
85 -155 3 -21 5 -38 3 -38 -2 0 -22 7 -44 15 -51 18 -129 18 -180 0 -22 -8
-41 -15 -41 -15 -7 -1 20 98 35 127 39 77 87 99 142 66z"/>
<path d="M634 763 c12 -82 35 -139 73 -176 29 -29 33 -38 20 -43 -35 -13 -78
-102 -92 -191 l-7 -43 152 0 153 0 -7 56 c-7 63 -45 145 -78 170 l-23 17 35
36 c38 40 70 124 70 184 l0 37 -151 0 -151 0 6 -47z m272 -43 c-29 -127 -93
-183 -164 -146 -34 17 -76 96 -88 160 -6 36 -5 39 12 32 74 -31 164 -32 221
-4 15 8 29 14 30 13 1 0 -4 -25 -11 -55z m-60 -201 c26 -25 59 -99 67 -150 l5
-37 -29 15 c-58 29 -148 28 -223 -3 -18 -7 -19 -4 -12 36 9 57 50 131 84 153
33 21 77 15 108 -14z"/>
</g>
</svg>
