<?xml version="1.0" standalone="no"?>
<!DOCTYPE svg PUBLIC "-//W3C//DTD SVG 20010904//EN"
 "http://www.w3.org/TR/2001/REC-SVG-20010904/DTD/svg10.dtd">
<svg version="1.0" xmlns="http://www.w3.org/2000/svg"
 width="123.000000pt" height="123.000000pt" viewBox="0 0 123.000000 123.000000"
 preserveAspectRatio="xMidYMid meet">
<metadata>
Created by potrace 1.16, written by Peter Selinger 2001-2019
</metadata>
<g transform="translate(0.000000,123.000000) scale(0.100000,-0.100000)"
fill="#000000" stroke="none">
<path d="M300 779 l0 -151 128 8 c70 5 155 7 189 6 42 -2 72 2 93 13 17 9 60
25 95 36 113 35 156 93 99 138 -14 11 -55 30 -92 42 -37 12 -80 28 -96 36 -22
11 -79 16 -223 19 l-193 5 0 -152z m259 125 c2 -2 -5 -11 -14 -21 -50 -50 -54
-130 -10 -189 l24 -32 -37 -6 c-20 -3 -65 -6 -100 -6 l-63 0 21 30 c42 59 39
156 -6 210 l-26 30 104 -6 c56 -4 105 -8 107 -10z m302 -70 c26 -13 49 -31 53
-40 10 -25 -28 -58 -97 -83 l-57 -21 15 30 c19 37 19 87 1 123 -15 27 -15 27
12 21 15 -4 48 -17 73 -30z"/>
<path d="M300 450 l0 -152 197 6 c139 5 204 11 222 21 14 7 51 21 81 30 78 24
130 60 130 89 0 34 -49 72 -125 95 -35 11 -78 27 -95 36 -21 11 -51 15 -93 13
-34 -1 -119 1 -189 6 l-128 8 0 -152z m213 124 l47 -7 -24 -28 c-46 -54 -45
-125 1 -180 14 -16 24 -31 22 -33 -2 -2 -51 -6 -107 -10 l-104 -6 26 30 c45
54 48 151 6 210 l-21 30 54 0 c30 0 75 -3 100 -6z m387 -99 c17 -18 20 -27 11
-43 -11 -20 -74 -54 -123 -66 -27 -6 -27 -6 -12 21 18 36 18 86 -1 123 l-15
29 59 -20 c32 -11 68 -31 81 -44z"/>
</g>
</svg>
