<?xml version="1.0" standalone="no"?>
<!DOCTYPE svg PUBLIC "-//W3C//DTD SVG 20010904//EN"
 "http://www.w3.org/TR/2001/REC-SVG-20010904/DTD/svg10.dtd">
<svg version="1.0" xmlns="http://www.w3.org/2000/svg"
 width="113.000000pt" height="129.000000pt" viewBox="0 0 113.000000 129.000000"
 preserveAspectRatio="xMidYMid meet">
<metadata>
Created by potrace 1.16, written by Peter Selinger 2001-2019
</metadata>
<g transform="translate(0.000000,129.000000) scale(0.100000,-0.100000)"
fill="#000000" stroke="none">
<path d="M495 980 c-11 -4 -33 -22 -50 -40 -26 -27 -30 -39 -30 -88 0 -96 58
-149 154 -140 142 14 177 198 51 263 -31 16 -93 19 -125 5z m84 -174 c-2 -2
-20 3 -39 10 -19 8 -25 12 -12 10 22 -4 30 8 12 19 -5 3 -10 11 -10 16 0 6 12
-4 26 -21 15 -17 25 -32 23 -34z"/>
<path d="M755 960 c-8 -26 -9 -26 40 -35 22 -4 38 -5 35 -3 -3 1 -19 16 -37
31 -31 29 -31 29 -38 7z"/>
<path d="M306 944 c-8 -21 -9 -20 39 -27 l40 -7 -30 25 c-36 29 -41 30 -49 9z"/>
<path d="M696 724 c-8 -21 -9 -20 38 -28 l39 -8 -30 26 c-36 31 -39 31 -47 10z"/>
<path d="M491 588 c-158 -82 -61 -310 109 -259 145 43 120 254 -32 277 -23 4
-47 -2 -77 -18z m68 -139 l24 -32 -29 7 c-16 4 -33 11 -38 16 -5 5 1 6 14 3
20 -5 21 -4 11 16 -17 30 -8 26 18 -10z"/>
<path d="M751 572 c-8 -16 -4 -20 30 -29 46 -12 48 -6 9 25 -28 22 -29 22 -39
4z"/>
<path d="M306 564 c-8 -20 -11 -17 38 -32 l39 -11 -28 30 c-33 33 -40 35 -49
13z"/>
<path d="M700 341 c-12 -23 -11 -24 45 -35 29 -6 29 -6 10 9 -11 9 -25 22 -32
31 -10 14 -13 13 -23 -5z"/>
</g>
</svg>
