<?xml version="1.0" standalone="no"?>
<!DOCTYPE svg PUBLIC "-//W3C//DTD SVG 20010904//EN"
 "http://www.w3.org/TR/2001/REC-SVG-20010904/DTD/svg10.dtd">
<svg version="1.0" xmlns="http://www.w3.org/2000/svg"
 width="126.000000pt" height="211.000000pt" viewBox="0 0 126.000000 211.000000"
 preserveAspectRatio="xMidYMid meet">
<metadata>
Created by potrace 1.16, written by Peter Selinger 2001-2019
</metadata>
<g transform="translate(0.000000,211.000000) scale(0.100000,-0.100000)"
fill="#000000" stroke="none">
<path d="M510 1772 c0 -20 4 -52 9 -70 l10 -32 -27 19 c-38 26 -116 51 -162
51 l-40 0 0 -291 0 -292 57 6 c31 3 82 18 113 34 l57 28 -8 -30 c-5 -16 -9
-47 -9 -67 l0 -38 143 0 c79 0 146 2 149 5 11 11 -13 128 -36 174 -44 86 -120
110 -177 55 -26 -25 -29 -26 -29 -8 0 49 -50 94 -145 129 -19 7 -18 8 5 15 70
20 140 81 140 122 0 19 2 18 31 -6 84 -71 183 5 208 161 5 32 7 61 4 66 -2 4
-69 7 -149 7 l-144 0 0 -38z m145 -25 c47 0 81 5 104 17 l33 18 -7 -44 c-15
-95 -76 -178 -130 -178 -52 0 -114 88 -128 182 l-6 38 32 -17 c21 -10 56 -16
102 -16z m-203 -49 c99 -42 122 -113 56 -174 -34 -30 -117 -64 -160 -64 -18 0
-18 2 -2 31 21 42 21 157 0 200 -9 18 -16 33 -16 35 0 8 81 -11 122 -28z m18
-294 c29 -16 55 -40 66 -60 18 -34 18 -35 -1 -71 -23 -42 -84 -78 -157 -92
-27 -4 -48 -7 -48 -6 0 1 7 16 16 34 22 43 21 158 -1 201 l-17 33 47 -6 c26
-4 69 -19 95 -33z m244 -89 c32 -29 61 -93 71 -152 l7 -42 -34 17 c-44 23
-161 22 -205 -1 l-33 -17 6 32 c13 76 36 128 70 158 43 37 81 39 118 5z"/>
<path d="M873 1610 c-91 -18 -173 -84 -173 -138 0 -72 90 -137 205 -149 l55
-6 0 152 c0 171 7 159 -87 141z m30 -57 c-17 -57 -12 -146 11 -192 l17 -32
-28 7 c-112 25 -154 47 -178 93 -19 38 -12 71 24 105 30 28 112 65 148 66 21
0 21 -1 6 -47z"/>
<path d="M513 1004 c-6 -16 2 -88 13 -118 5 -14 -1 -12 -31 8 -38 26 -77 39
-152 51 l-43 7 0 -296 0 -296 23 0 c45 0 142 31 176 57 29 23 33 24 27 7 -4
-10 -10 -43 -13 -71 l-6 -53 147 0 146 0 0 43 c0 99 -64 203 -130 213 -27 4
-44 0 -72 -20 -34 -23 -38 -24 -38 -7 0 32 -42 73 -103 101 l-58 26 42 14 c51
17 119 79 119 108 0 21 0 21 36 -3 49 -34 85 -32 128 6 50 43 83 143 77 227
-1 9 -36 12 -141 12 -118 0 -142 -3 -147 -16z m50 -39 c47 -19 138 -19 184 0
20 8 38 13 41 11 2 -3 -1 -29 -7 -58 -14 -65 -51 -122 -91 -143 -26 -14 -34
-14 -65 -1 -50 21 -73 63 -99 179 -7 32 -9 31 37 12z m-144 -51 c59 -17 117
-66 126 -104 13 -58 -71 -126 -177 -144 l-37 -7 16 38 c20 49 20 147 0 196
-15 35 -15 37 2 37 9 0 41 -7 70 -16z m-19 -279 c89 -18 157 -82 145 -135 -4
-14 -18 -37 -33 -52 -28 -30 -117 -68 -158 -68 -24 0 -24 0 -8 31 21 41 21
153 0 203 -14 35 -14 37 2 32 9 -2 33 -8 52 -11z m325 -129 c22 -23 38 -56 50
-100 10 -37 16 -69 13 -71 -3 -3 -22 2 -44 11 -49 21 -161 15 -200 -11 l-26
-17 7 34 c25 125 68 188 130 188 30 0 44 -7 70 -34z"/>
<path d="M850 806 c-201 -54 -198 -218 5 -271 112 -29 105 -38 105 135 l0 150
-32 -1 c-18 0 -53 -6 -78 -13z m53 -48 c-19 -54 -12 -157 12 -195 l17 -26 -47
6 c-110 16 -191 93 -165 158 20 47 106 97 171 98 l27 1 -15 -42z"/>
</g>
</svg>
