<?xml version="1.0" standalone="no"?>
<!DOCTYPE svg PUBLIC "-//W3C//DTD SVG 20010904//EN"
 "http://www.w3.org/TR/2001/REC-SVG-20010904/DTD/svg10.dtd">
<svg version="1.0" xmlns="http://www.w3.org/2000/svg"
 width="118.000000pt" height="117.000000pt" viewBox="0 0 118.000000 117.000000"
 preserveAspectRatio="xMidYMid meet">
<metadata>
Created by potrace 1.16, written by Peter Selinger 2001-2019
</metadata>
<g transform="translate(0.000000,117.000000) scale(0.100000,-0.100000)"
fill="#000000" stroke="none">
<path d="M510 861 c-119 -39 -210 -148 -210 -250 l0 -26 112 2 113 2 -44 -20
c-24 -10 -61 -33 -82 -49 -44 -36 -99 -138 -99 -187 l0 -33 290 0 290 0 0 33
c0 49 -55 151 -99 187 -21 16 -58 39 -82 49 l-44 20 113 -2 112 -2 0 26 c0 43
-30 115 -64 156 -53 61 -126 96 -210 99 -39 2 -82 0 -96 -5z m194 -30 c78 -34
132 -97 157 -183 l8 -28 -37 19 c-114 57 -399 55 -489 -5 -22 -14 -23 -13 -23
8 0 13 13 45 28 72 69 125 224 176 356 117z m-24 -273 c84 -26 160 -106 176
-187 l7 -33 -25 16 c-87 57 -368 60 -480 6 -36 -17 -38 -17 -38 -1 0 36 53
123 94 153 86 63 164 76 266 46z"/>
</g>
</svg>
