<?xml version="1.0" standalone="no"?>
<!DOCTYPE svg PUBLIC "-//W3C//DTD SVG 20010904//EN"
 "http://www.w3.org/TR/2001/REC-SVG-20010904/DTD/svg10.dtd">
<svg version="1.0" xmlns="http://www.w3.org/2000/svg"
 width="118.000000pt" height="117.000000pt" viewBox="0 0 118.000000 117.000000"
 preserveAspectRatio="xMidYMid meet">
<metadata>
Created by potrace 1.16, written by Peter Selinger 2001-2019
</metadata>
<g transform="translate(0.000000,117.000000) scale(0.100000,-0.100000)"
fill="#000000" stroke="none">
<path d="M300 837 c0 -49 55 -151 99 -187 21 -16 58 -38 82 -49 l44 -19 -113
2 -112 1 0 -26 c0 -81 64 -176 151 -224 48 -27 63 -30 139 -30 73 0 92 4 136
27 86 45 154 146 154 227 l0 26 -112 -2 -113 -3 51 24 c94 44 161 131 172 223
l5 43 -292 0 -291 0 0 -33z m160 -56 c134 -22 317 -5 378 35 l25 16 -7 -33
c-22 -113 -139 -201 -266 -201 -126 0 -244 89 -266 199 l-6 32 38 -19 c22 -11
68 -24 104 -29z m-65 -270 c31 -12 77 -16 195 -16 153 0 164 2 253 40 25 10
22 -16 -8 -74 -75 -149 -272 -193 -413 -91 -64 46 -136 187 -84 165 9 -4 35
-15 57 -24z"/>
</g>
</svg>
