<?xml version="1.0" standalone="no"?>
<!DOCTYPE svg PUBLIC "-//W3C//DTD SVG 20010904//EN"
 "http://www.w3.org/TR/2001/REC-SVG-20010904/DTD/svg10.dtd">
<svg version="1.0" xmlns="http://www.w3.org/2000/svg"
 width="165.000000pt" height="189.000000pt" viewBox="0 0 165.000000 189.000000"
 preserveAspectRatio="xMidYMid meet">
<metadata>
Created by potrace 1.16, written by Peter Selinger 2001-2019
</metadata>
<g transform="translate(0.000000,189.000000) scale(0.100000,-0.100000)"
fill="#000000" stroke="none">
<path d="M420 1298 l0 -291 137 7 c358 18 636 91 745 196 41 40 48 52 48 86 0
49 -25 87 -85 129 -125 89 -468 165 -747 165 l-98 0 0 -292z m360 257 c304
-38 533 -136 555 -236 11 -48 -27 -100 -108 -148 -116 -70 -454 -141 -674
-141 l-72 0 25 25 c53 53 68 109 68 245 0 109 -3 132 -23 175 -12 28 -34 63
-49 79 l-27 28 95 -6 c52 -4 147 -14 210 -21z"/>
<path d="M935 1370 c-8 -26 -9 -26 39 -33 22 -4 35 -3 30 1 -5 4 -21 18 -36
31 l-26 23 -7 -22z"/>
<path d="M651 1202 c-8 -16 -4 -20 30 -29 46 -12 48 -6 9 25 -28 22 -29 22
-39 4z"/>
<path d="M1176 1554 c-8 -21 -9 -20 39 -28 l40 -7 -30 25 c-36 30 -41 31 -49
10z"/>
<path d="M306 1474 c-8 -21 -9 -20 39 -28 l40 -7 -30 25 c-36 30 -41 31 -49
10z"/>
<path d="M1276 1104 c-8 -21 -9 -20 34 -29 l35 -7 -24 26 c-28 30 -37 32 -45
10z"/>
<path d="M420 590 l0 -290 98 0 c279 0 622 76 747 165 238 169 -40 356 -605
405 -63 5 -143 10 -177 10 l-63 0 0 -290z m435 240 c270 -46 438 -120 475
-209 16 -40 8 -69 -32 -110 -94 -98 -369 -172 -728 -196 l-95 -7 27 29 c49 51
71 118 76 224 6 132 -25 235 -87 288 -23 20 208 8 364 -19z"/>
<path d="M933 655 c-7 -20 -5 -21 37 -30 l35 -7 -28 26 c-33 30 -36 31 -44 11z"/>
<path d="M655 489 c-8 -25 -9 -24 35 -33 l34 -6 -29 30 c-16 16 -30 30 -31 30
-2 0 -6 -9 -9 -21z"/>
<path d="M1176 844 c-8 -20 -10 -18 37 -31 44 -13 46 -10 10 22 -33 29 -39 30
-47 9z"/>
<path d="M306 764 c-8 -20 -11 -17 38 -32 l39 -11 -28 30 c-33 33 -40 35 -49
13z"/>
<path d="M1280 390 c-14 -27 -14 -27 25 -32 19 -2 35 -3 35 -1 0 1 -11 13 -25
27 -24 24 -25 24 -35 6z"/>
</g>
</svg>
