<?xml version="1.0" standalone="no"?>
<!DOCTYPE svg PUBLIC "-//W3C//DTD SVG 20010904//EN"
 "http://www.w3.org/TR/2001/REC-SVG-20010904/DTD/svg10.dtd">
<svg version="1.0" xmlns="http://www.w3.org/2000/svg"
 width="159.000000pt" height="185.000000pt" viewBox="0 0 159.000000 185.000000"
 preserveAspectRatio="xMidYMid meet">
<metadata>
Created by potrace 1.16, written by Peter Selinger 2001-2019
</metadata>
<g transform="translate(0.000000,185.000000) scale(0.100000,-0.100000)"
fill="#000000" stroke="none">
<path d="M360 1439 l0 -111 -30 6 c-27 5 -30 3 -30 -19 0 -21 5 -25 30 -25 28
0 30 -3 30 -36 0 -35 -1 -36 -30 -30 -27 5 -30 3 -30 -19 0 -21 5 -25 30 -25
34 0 31 9 31 -129 l0 -84 131 7 c321 17 574 74 703 159 241 158 8 341 -513
402 -70 8 -171 15 -224 15 l-98 0 0 -111z m361 76 c307 -38 535 -137 554 -240
25 -133 -309 -260 -739 -282 l-118 -6 26 26 c54 54 70 110 71 247 0 110 -3
131 -23 175 -13 28 -35 63 -50 79 l-27 28 95 -6 c52 -4 147 -14 211 -21z
m-246 -205 c-3 -5 -10 -10 -16 -10 -5 0 -9 5 -9 10 0 6 7 10 16 10 8 0 12 -4
9 -10z m-3 -112 c-9 -9 -15 -9 -24 0 -9 9 -7 12 12 12 19 0 21 -3 12 -12z"/>
<path d="M737 1396 c-49 -18 -67 -34 -84 -73 -19 -46 -16 -93 7 -131 77 -126
263 -73 263 75 0 94 -96 161 -186 129z"/>
<path d="M1006 1343 c-2 -2 -1 -14 1 -27 5 -26 -5 -25 136 -11 31 4 57 11 57
16 0 5 -8 9 -17 10 -10 0 -53 4 -96 8 -43 3 -79 5 -81 4z"/>
<path d="M1006 1233 c-2 -2 -1 -14 1 -26 4 -22 6 -22 95 -15 86 7 108 12 96
23 -5 6 -187 22 -192 18z"/>
<path d="M360 750 l0 -112 -30 6 c-27 5 -30 3 -30 -19 0 -21 5 -25 30 -25 17
0 30 -5 31 -12 0 -7 2 -24 3 -37 3 -21 0 -23 -31 -18 -30 5 -33 3 -33 -19 0
-20 5 -24 30 -24 l30 0 1 -82 c1 -46 1 -89 0 -95 -3 -24 58 -15 85 12 54 54
69 108 69 245 0 109 -3 131 -23 175 -13 28 -35 63 -50 78 l-27 29 100 -7 c504
-33 826 -168 751 -314 -47 -90 -271 -177 -557 -215 l-114 -15 90 4 c50 2 137
13 195 25 446 93 545 293 210 424 -153 59 -350 95 -572 103 l-158 6 0 -113z
m115 -130 c-3 -5 -13 -10 -21 -10 -8 0 -12 5 -9 10 3 6 13 10 21 10 8 0 12 -4
9 -10z m0 -110 c-3 -5 -13 -10 -21 -10 -8 0 -12 5 -9 10 3 6 13 10 21 10 8 0
12 -4 9 -10z"/>
<path d="M723 700 c-105 -47 -111 -188 -11 -251 39 -24 112 -22 153 5 38 25
68 96 59 142 -9 48 -57 101 -102 114 -48 13 -50 13 -99 -10z"/>
<path d="M1008 654 c-3 -2 -3 -15 -1 -27 4 -22 7 -22 81 -15 42 3 85 7 95 7 9
1 17 5 17 10 0 5 -30 12 -67 16 -38 3 -80 8 -94 10 -15 2 -29 2 -31 -1z"/>
<path d="M1006 543 c-2 -2 -1 -14 1 -26 4 -22 6 -23 96 -15 87 8 106 12 95 23
-5 6 -187 22 -192 18z"/>
</g>
</svg>
