<?xml version="1.0" standalone="no"?>
<!DOCTYPE svg PUBLIC "-//W3C//DTD SVG 20010904//EN"
 "http://www.w3.org/TR/2001/REC-SVG-20010904/DTD/svg10.dtd">
<svg version="1.0" xmlns="http://www.w3.org/2000/svg"
 width="142.000000pt" height="175.000000pt" viewBox="0 0 142.000000 175.000000"
 preserveAspectRatio="xMidYMid meet">
<metadata>
Created by potrace 1.16, written by Peter Selinger 2001-2019
</metadata>
<g transform="translate(0.000000,175.000000) scale(0.100000,-0.100000)"
fill="#000000" stroke="none">
<path d="M604 1434 c-58 -21 -120 -77 -151 -138 -38 -73 -38 -179 -1 -252 52
-100 140 -154 253 -154 83 0 141 23 198 78 65 62 82 104 82 202 0 95 -11 123
-73 192 -73 81 -200 110 -308 72z m141 -176 c5 -5 -9 -7 -30 -7 -26 1 -31 3
-16 6 l23 5 -28 31 -29 32 35 -30 c19 -16 39 -33 45 -37z m-65 -198 c0 -3 -21
-3 -47 0 -42 4 -44 5 -14 8 l33 3 -28 31 c-29 31 -29 31 13 -3 24 -19 43 -36
43 -39z"/>
<path d="M1045 1380 c-8 -26 -9 -26 40 -35 22 -4 38 -5 35 -3 -3 1 -19 16 -37
31 -31 29 -31 29 -38 7z"/>
<path d="M306 1254 c-8 -21 -9 -20 38 -33 l39 -10 -28 29 c-33 34 -40 36 -49
14z"/>
<path d="M1035 940 c-8 -26 -9 -26 40 -35 22 -4 38 -5 35 -3 -3 1 -19 16 -37
31 -31 29 -31 29 -38 7z"/>
<path d="M594 841 c-149 -68 -212 -239 -141 -383 54 -109 152 -165 276 -156
79 6 134 32 184 87 61 68 72 96 72 191 0 68 -5 93 -22 125 -29 54 -88 109
-143 134 -59 27 -169 28 -226 2z m76 -356 c11 -13 7 -15 -31 -14 -32 2 -36 3
-15 6 l28 5 -28 30 -29 31 31 -21 c17 -12 37 -28 44 -37z"/>
<path d="M306 664 c-8 -20 -10 -18 37 -31 44 -13 46 -10 10 22 -33 29 -39 30
-47 9z"/>
<path d="M1036 355 c-9 -24 -7 -32 7 -32 7 0 26 -3 42 -7 17 -4 26 -4 20 1 -5
5 -22 19 -36 31 -23 20 -27 21 -33 7z"/>
</g>
</svg>
