<?xml version="1.0" standalone="no"?>
<!DOCTYPE svg PUBLIC "-//W3C//DTD SVG 20010904//EN"
 "http://www.w3.org/TR/2001/REC-SVG-20010904/DTD/svg10.dtd">
<svg version="1.0" xmlns="http://www.w3.org/2000/svg"
 width="140.000000pt" height="140.000000pt" viewBox="0 0 140.000000 140.000000"
 preserveAspectRatio="xMidYMid meet">
<metadata>
Created by potrace 1.16, written by Peter Selinger 2001-2019
</metadata>
<g transform="translate(0.000000,140.000000) scale(0.100000,-0.100000)"
fill="#000000" stroke="none">
<path d="M1027 1081 c-3 -14 2 -21 18 -25 13 -3 31 -9 42 -12 11 -4 5 5 -15
25 -39 37 -38 36 -45 12z"/>
<path d="M430 950 c0 -87 92 -202 187 -234 175 -60 365 51 389 226 l6 43 -291
0 -291 0 0 -35z m145 -51 c34 -6 115 -9 187 -7 110 4 133 8 178 30 l52 26 -6
-31 c-31 -154 -226 -247 -382 -182 -69 28 -140 113 -157 186 l-7 26 38 -18
c21 -10 64 -24 97 -30z"/>
<path d="M726 804 c-8 -21 -9 -20 39 -28 l40 -7 -30 25 c-36 30 -41 31 -49 10z"/>
<path d="M306 944 c-8 -21 -9 -20 39 -27 l40 -7 -30 25 c-36 29 -41 30 -49 9z"/>
<path d="M476 734 c-8 -22 1 -30 44 -38 19 -3 30 -3 25 1 -6 5 -22 19 -36 31
-24 21 -27 21 -33 6z"/>
<path d="M430 650 c0 -54 41 -131 95 -178 169 -148 451 -49 481 169 l6 44
-291 0 -291 0 0 -35z m138 -49 c67 -14 235 -14 300 -1 33 8 57 8 75 1 27 -11
35 -3 17 15 -6 6 -3 14 10 22 17 10 20 10 20 -5 -1 -33 -37 -100 -75 -138 -54
-54 -116 -79 -195 -79 -135 1 -233 76 -275 212 l-7 23 39 -19 c21 -11 62 -25
91 -31z"/>
<path d="M726 504 c-8 -21 -9 -20 39 -27 l40 -7 -30 25 c-36 29 -41 30 -49 9z"/>
<path d="M310 650 c-14 -26 -15 -26 35 -33 37 -6 39 -5 20 9 -11 8 -25 21 -32
30 -10 14 -13 13 -23 -6z"/>
<path d="M476 434 c-3 -9 -6 -17 -6 -19 0 -5 73 -25 76 -22 2 2 -12 15 -31 30
-28 22 -34 24 -39 11z"/>
<path d="M903 335 c-7 -20 -5 -21 37 -30 l35 -7 -28 26 c-33 30 -36 31 -44 11z"/>
</g>
</svg>
