<?xml version="1.0" standalone="no"?>
<!DOCTYPE svg PUBLIC "-//W3C//DTD SVG 20010904//EN"
 "http://www.w3.org/TR/2001/REC-SVG-20010904/DTD/svg10.dtd">
<svg version="1.0" xmlns="http://www.w3.org/2000/svg"
 width="84.000000pt" height="117.000000pt" viewBox="0 0 84.000000 117.000000"
 preserveAspectRatio="xMidYMid meet">
<metadata>
Created by potrace 1.16, written by Peter Selinger 2001-2019
</metadata>
<g transform="translate(0.000000,117.000000) scale(0.100000,-0.100000)"
fill="#000000" stroke="none">
<path d="M301 643 c1 -126 4 -255 8 -288 7 -56 8 -58 14 -25 4 19 8 149 9 288
3 234 2 252 -14 252 -17 0 -18 -17 -17 -227z"/>
<path d="M505 605 c7 -280 8 -291 17 -300 9 -10 18 157 18 363 0 200 0 202
-21 202 l-22 0 8 -265z"/>
</g>
</svg>
