<?xml version="1.0" standalone="no"?>
<!DOCTYPE svg PUBLIC "-//W3C//DTD SVG 20010904//EN"
 "http://www.w3.org/TR/2001/REC-SVG-20010904/DTD/svg10.dtd">
<svg version="1.0" xmlns="http://www.w3.org/2000/svg"
 width="139.000000pt" height="227.000000pt" viewBox="0 0 139.000000 227.000000"
 preserveAspectRatio="xMidYMid meet">
<metadata>
Created by potrace 1.16, written by Peter Selinger 2001-2019
</metadata>
<g transform="translate(0.000000,227.000000) scale(0.100000,-0.100000)"
fill="#000000" stroke="none">
<path d="M575 1954 c-171 -60 -275 -203 -275 -379 0 -223 172 -395 395 -395
159 0 286 81 362 231 38 77 45 208 13 291 -64 172 -202 269 -379 267 -42 0
-94 -7 -116 -15z m295 -73 c5 -11 10 -28 9 -38 0 -10 -5 -3 -10 15 l-10 32
-165 0 c-161 0 -165 0 -174 -22 -5 -13 -9 -18 -9 -11 -3 41 5 43 180 43 156 0
169 -1 179 -19z m-328 -167 c60 -88 214 -100 286 -21 13 14 30 42 37 64 12 31
14 33 14 13 1 -36 -32 -100 -65 -132 -118 -110 -295 -22 -309 154 l-4 53 9
-48 c5 -27 19 -64 32 -83z m224 -153 c59 -27 115 -107 114 -165 -1 -14 -6 -8
-14 17 -8 21 -22 48 -33 59 -48 53 -147 73 -216 44 -37 -15 -97 -79 -97 -103
0 -9 -3 -14 -6 -10 -11 11 18 79 49 114 56 63 127 79 203 44z m-259 -218 c-3
-10 -5 -2 -5 17 0 19 2 27 5 18 2 -10 2 -26 0 -35z m363 -52 c-10 -20 -19 -21
-179 -21 -175 0 -183 2 -180 43 0 7 4 2 9 -10 9 -23 13 -23 174 -23 l166 0 7
27 c3 16 8 23 10 16 3 -7 -1 -21 -7 -32z"/>
<path d="M575 1074 c-90 -32 -160 -84 -208 -157 -121 -185 -76 -425 102 -548
79 -54 150 -73 253 -67 103 6 179 40 253 113 73 74 107 149 113 256 9 159 -58
284 -198 370 -77 48 -230 64 -315 33z m295 -73 c5 -11 10 -28 9 -38 0 -10 -5
-3 -10 15 l-10 32 -165 0 c-161 0 -165 0 -174 -22 -5 -13 -9 -18 -9 -11 -3 41
5 43 180 43 156 0 169 -1 179 -19z m-328 -166 c33 -48 85 -75 147 -75 90 0
149 39 176 117 12 31 14 33 14 13 1 -60 -62 -147 -122 -169 -44 -17 -106 -13
-146 10 -61 34 -111 125 -109 199 0 30 1 29 8 -13 5 -27 19 -64 32 -82z m224
-154 c59 -27 115 -107 114 -165 -1 -14 -6 -8 -14 17 -8 21 -22 48 -33 59 -48
53 -147 73 -216 44 -37 -15 -97 -79 -97 -103 0 -9 -3 -14 -6 -10 -11 11 18 79
49 114 56 63 127 79 203 44z m-259 -218 c-3 -10 -5 -2 -5 17 0 19 2 27 5 18 2
-10 2 -26 0 -35z m363 -52 c-10 -20 -19 -21 -179 -21 -175 0 -183 2 -180 43 0
7 4 2 9 -10 9 -23 13 -23 174 -23 l166 0 7 27 c3 16 8 23 10 16 3 -7 -1 -21
-7 -32z"/>
</g>
</svg>
