<?xml version="1.0" standalone="no"?>
<!DOCTYPE svg PUBLIC "-//W3C//DTD SVG 20010904//EN"
 "http://www.w3.org/TR/2001/REC-SVG-20010904/DTD/svg10.dtd">
<svg version="1.0" xmlns="http://www.w3.org/2000/svg"
 width="118.000000pt" height="178.000000pt" viewBox="0 0 118.000000 178.000000"
 preserveAspectRatio="xMidYMid meet">
<metadata>
Created by potrace 1.16, written by Peter Selinger 2001-2019
</metadata>
<g transform="translate(0.000000,178.000000) scale(0.100000,-0.100000)"
fill="#000000" stroke="none">
<path d="M300 1447 c0 -47 55 -152 96 -183 28 -22 34 -33 34 -63 0 -30 -8 -44
-41 -76 -48 -46 -89 -126 -89 -172 l0 -33 290 0 290 0 0 33 c0 46 -41 126 -89
172 -33 32 -41 46 -41 76 0 30 6 41 34 63 41 31 96 136 96 183 l0 33 -290 0
-290 0 0 -33z m82 -36 c41 -14 52 -41 46 -116 l-3 -40 -34 35 c-36 37 -70 102
-71 134 0 13 3 16 13 9 6 -6 29 -16 49 -22z m464 -35 c-9 -23 -33 -60 -53 -82
-43 -45 -49 -37 -38 51 6 50 8 53 45 64 22 6 42 17 46 23 16 26 16 -14 0 -56z
m-348 -73 c3 -78 2 -81 -18 -76 -18 5 -20 13 -20 85 0 70 2 79 18 76 14 -3 17
-16 20 -85z m222 7 c0 -44 -4 -80 -9 -80 -5 0 -17 -3 -25 -6 -14 -6 -16 3 -10
67 7 91 9 99 29 99 12 0 15 -15 15 -80z m-150 -15 c0 -78 -2 -85 -20 -85 -18
0 -20 7 -20 85 0 78 2 85 20 85 18 0 20 -7 20 -85z m74 33 c12 -101 9 -118
-19 -118 -25 0 -25 1 -25 85 0 76 2 85 19 85 15 0 19 -10 25 -52z m-144 -128
c0 -11 -39 -24 -47 -16 -3 3 -3 12 0 20 6 15 47 11 47 -4z m217 -16 c-2 -2
-15 0 -28 5 l-24 9 25 10 c19 7 26 6 28 -5 2 -8 2 -17 -1 -19z m-147 -69 c0
-41 1 -78 3 -82 1 -5 -10 -9 -25 -11 l-28 -3 0 79 c0 84 3 92 32 92 16 0 18
-9 18 -75z m78 -12 l3 -83 -31 0 -30 0 0 69 c0 85 6 103 34 99 19 -3 21 -10
24 -85z m55 65 c12 -9 19 -35 23 -85 l7 -73 -32 0 -31 0 0 85 c0 47 4 85 8 85
5 0 16 -6 25 -12z m-203 -78 c0 -79 0 -80 -25 -80 -24 0 -25 2 -25 74 0 73 4
83 38 85 9 1 12 -21 12 -79z m-70 -17 l0 -68 -55 -21 c-61 -24 -66 -19 -41 40
12 29 81 116 92 116 2 0 4 -30 4 -67z m411 -38 c33 -70 28 -76 -38 -49 -32 12
-58 28 -57 33 1 6 2 37 3 68 l1 57 36 -35 c20 -18 45 -52 55 -74z"/>
<path d="M303 815 c9 -60 36 -111 86 -160 33 -32 41 -46 41 -76 0 -30 -6 -41
-34 -63 -41 -31 -96 -136 -96 -183 l0 -33 290 0 290 0 0 33 c0 47 -55 152 -96
183 -28 22 -34 33 -34 63 0 30 8 44 41 76 48 46 89 126 89 173 l0 32 -291 0
-292 0 6 -45z m121 -59 c3 -12 6 -43 6 -70 l0 -50 -35 34 c-36 35 -75 104 -75
132 0 25 97 -18 104 -46z m417 -9 c-11 -24 -37 -58 -56 -77 l-35 -34 0 41 c0
82 8 98 58 120 57 23 63 13 33 -50z m-343 -60 c3 -71 1 -78 -15 -75 -15 3 -18
16 -21 81 -3 71 -1 78 15 75 15 -3 18 -16 21 -81z m222 8 c0 -65 -3 -76 -21
-85 -11 -7 -22 -10 -24 -8 -2 2 -1 40 2 86 5 71 8 82 24 82 17 0 19 -9 19 -75z
m-150 -20 c0 -78 -2 -85 -20 -85 -18 0 -20 7 -20 85 0 78 2 85 20 85 18 0 20
-7 20 -85z m75 21 c8 -75 1 -106 -26 -106 -17 0 -19 8 -19 85 0 77 2 85 19 85
16 0 20 -10 26 -64z m-155 -106 c17 -10 14 -15 -17 -24 -16 -5 -23 -3 -23 7 0
26 15 33 40 17z m230 -10 c0 -14 -5 -18 -17 -13 -33 12 -37 16 -17 24 30 12
34 10 34 -11z m-150 -85 c0 -41 1 -78 3 -82 1 -5 -10 -9 -25 -11 l-28 -3 0 79
c0 84 3 92 32 92 16 0 18 -9 18 -75z m80 -10 l0 -85 -31 0 -31 0 3 73 c4 91 6
97 35 97 23 0 24 -2 24 -85z m-150 -10 c0 -84 0 -85 -25 -85 -24 0 -25 2 -25
73 0 67 2 75 23 85 12 6 23 11 25 11 1 1 2 -37 2 -84z m203 73 c12 -9 19 -35
23 -85 6 -62 5 -73 -9 -73 -42 0 -47 10 -47 91 0 81 4 88 33 67z m-273 -96 l0
-69 -42 -12 c-24 -7 -49 -18 -55 -23 -19 -16 -16 19 6 67 17 37 72 105 85 105
3 0 6 -31 6 -68z m375 22 c43 -56 76 -153 43 -126 -7 5 -33 17 -58 25 -25 8
-45 20 -44 26 1 6 2 36 3 66 1 63 13 65 56 9z"/>
</g>
</svg>
