<?xml version="1.0" standalone="no"?>
<!DOCTYPE svg PUBLIC "-//W3C//DTD SVG 20010904//EN"
 "http://www.w3.org/TR/2001/REC-SVG-20010904/DTD/svg10.dtd">
<svg version="1.0" xmlns="http://www.w3.org/2000/svg"
 width="118.000000pt" height="175.000000pt" viewBox="0 0 118.000000 175.000000"
 preserveAspectRatio="xMidYMid meet">
<metadata>
Created by potrace 1.16, written by Peter Selinger 2001-2019
</metadata>
<g transform="translate(0.000000,175.000000) scale(0.100000,-0.100000)"
fill="#000000" stroke="none">
<path d="M300 1418 c1 -79 77 -182 164 -223 l48 -23 -45 -20 c-86 -38 -155
-129 -165 -219 l-5 -43 293 0 293 0 -5 43 c-10 90 -79 181 -165 219 l-46 20
44 20 c87 38 169 147 169 226 l0 32 -290 0 -290 0 0 -32z m201 -61 c106 -13
243 0 313 32 38 16 46 17 46 5 0 -53 -77 -152 -144 -186 -57 -29 -150 -35
-216 -13 -86 29 -179 130 -180 197 0 15 4 15 46 -3 25 -11 85 -26 135 -32z
m213 -222 c71 -34 145 -130 146 -188 0 -16 -2 -16 -23 -3 -90 60 -405 59 -496
-1 -24 -15 -24 -15 -17 18 15 78 87 156 171 187 46 17 173 10 219 -13z"/>
<path d="M302 817 c10 -90 79 -181 165 -219 l45 -20 -48 -23 c-87 -41 -163
-144 -164 -222 l0 -33 290 0 290 0 0 33 c0 44 -40 125 -81 166 -19 18 -56 44
-83 57 l-49 23 37 15 c64 27 113 73 145 138 17 34 31 76 31 95 l0 33 -291 0
-292 0 5 -43z m128 -41 c74 -18 222 -21 298 -6 42 8 92 26 134 48 13 6 -11
-59 -37 -104 -45 -77 -135 -124 -235 -124 -68 0 -110 13 -168 52 -45 31 -102
117 -102 156 0 21 1 22 23 8 12 -8 51 -22 87 -30z m264 -226 c79 -30 166 -132
166 -195 0 -14 -3 -14 -31 0 -106 56 -347 58 -466 5 -40 -17 -43 -18 -43 -2 1
32 38 97 77 135 77 74 192 96 297 57z"/>
</g>
</svg>
