<?xml version="1.0" standalone="no"?>
<!DOCTYPE svg PUBLIC "-//W3C//DTD SVG 20010904//EN"
 "http://www.w3.org/TR/2001/REC-SVG-20010904/DTD/svg10.dtd">
<svg version="1.0" xmlns="http://www.w3.org/2000/svg"
 width="115.000000pt" height="176.000000pt" viewBox="0 0 115.000000 176.000000"
 preserveAspectRatio="xMidYMid meet">
<metadata>
Created by potrace 1.16, written by Peter Selinger 2001-2019
</metadata>
<g transform="translate(0.000000,176.000000) scale(0.100000,-0.100000)"
fill="#000000" stroke="none">
<path d="M470 1439 c-55 -25 -114 -80 -143 -134 -17 -32 -22 -57 -22 -125 0
-98 17 -140 82 -202 56 -54 115 -78 196 -78 105 0 183 42 238 128 27 43 29 52
29 153 0 104 -1 108 -32 155 -36 53 -93 96 -149 113 -58 18 -148 13 -199 -10z
m189 -138 c98 -69 90 -201 -14 -251 -100 -48 -205 19 -205 132 0 113 128 183
219 119z"/>
<path d="M520 1297 c-13 -7 -35 -28 -48 -47 -34 -49 -27 -120 15 -162 103
-103 271 6 217 141 -28 69 -116 102 -184 68z"/>
<path d="M470 839 c-55 -25 -114 -80 -143 -134 -17 -32 -22 -57 -22 -125 0
-98 17 -140 82 -202 53 -52 116 -78 187 -78 108 0 187 40 244 124 31 47 32 51
32 155 0 101 -2 110 -29 153 -32 50 -78 90 -134 113 -53 22 -162 19 -217 -6z
m177 -130 c103 -50 109 -179 10 -252 -32 -25 -101 -26 -146 -2 -88 45 -96 185
-14 243 52 36 92 39 150 11z"/>
<path d="M551 709 c-86 -18 -129 -126 -79 -199 29 -43 61 -60 112 -60 105 0
167 118 108 208 -27 41 -87 63 -141 51z"/>
</g>
</svg>
