<?xml version="1.0" standalone="no"?>
<!DOCTYPE svg PUBLIC "-//W3C//DTD SVG 20010904//EN"
 "http://www.w3.org/TR/2001/REC-SVG-20010904/DTD/svg10.dtd">
<svg version="1.0" xmlns="http://www.w3.org/2000/svg"
 width="89.000000pt" height="160.000000pt" viewBox="0 0 89.000000 160.000000"
 preserveAspectRatio="xMidYMid meet">
<metadata>
Created by potrace 1.16, written by Peter Selinger 2001-2019
</metadata>
<g transform="translate(0.000000,160.000000) scale(0.100000,-0.100000)"
fill="#000000" stroke="none">
<path d="M374 1250 l7 -50 -41 0 c-40 0 -40 0 -40 -40 0 -46 25 -124 51 -162
26 -35 25 -38 -17 -38 l-37 0 6 -58 c5 -56 33 -129 64 -164 21 -24 8 -38 -34
-38 l-36 0 6 -60 c3 -42 15 -79 39 -122 27 -49 35 -76 37 -123 1 -33 5 -69 8
-80 l6 -20 8 20 c4 11 8 45 8 75 l1 55 33 0 c38 0 45 -14 46 -92 2 -105 31
-44 31 64 0 38 6 63 19 81 26 38 51 116 51 162 0 39 -1 40 -35 40 -44 0 -44
10 -4 84 21 38 33 77 36 116 l6 60 -37 0 c-21 0 -36 3 -34 8 2 4 16 31 32 61
17 34 30 77 34 113 l5 58 -37 0 -36 0 0 50 c0 43 -3 50 -20 50 -17 0 -20 -7
-20 -50 l0 -50 -35 0 -35 0 0 50 c0 44 -2 50 -21 50 -20 0 -21 -4 -15 -50z
m11 -144 c7 -31 7 -31 14 -6 6 20 15 26 49 31 39 5 42 4 42 -17 0 -33 18 -39
22 -7 2 18 14 33 36 46 l33 20 -7 -39 c-9 -56 -48 -144 -52 -121 -6 31 -37 15
-40 -21 -3 -29 -6 -32 -38 -32 -32 0 -34 2 -34 35 0 38 -21 48 -38 19 -7 -12
-13 -5 -29 33 -11 26 -23 65 -26 85 l-6 37 34 -16 c23 -11 35 -25 40 -47z m-5
-240 c0 -17 5 -38 10 -46 7 -11 11 -4 16 27 6 39 8 41 45 45 l39 4 0 -43 c0
-57 16 -55 24 2 6 37 13 48 37 61 l30 15 -7 -38 c-3 -21 -14 -56 -24 -79 -14
-32 -23 -41 -41 -40 -19 1 -25 -5 -27 -26 -3 -25 -8 -28 -38 -28 -31 0 -34 2
-34 30 0 31 -17 39 -37 19 -12 -12 -47 64 -56 123 l-6 37 35 -16 c28 -14 34
-22 34 -47z m0 -255 c0 -14 4 -32 9 -40 7 -11 11 -5 16 21 6 33 10 36 46 40
l39 4 0 -38 c0 -50 16 -49 24 2 5 30 13 43 35 55 l30 15 -6 -38 c-7 -46 -45
-140 -51 -124 -2 7 -12 12 -23 12 -14 0 -19 -7 -19 -30 0 -28 -3 -30 -35 -30
-32 0 -35 2 -35 30 0 31 -17 39 -37 19 -12 -12 -47 64 -56 123 l-6 37 35 -16
c26 -13 34 -23 34 -42z"/>
</g>
</svg>
