<?xml version="1.0" standalone="no"?>
<!DOCTYPE svg PUBLIC "-//W3C//DTD SVG 20010904//EN"
 "http://www.w3.org/TR/2001/REC-SVG-20010904/DTD/svg10.dtd">
<svg version="1.0" xmlns="http://www.w3.org/2000/svg"
 width="141.000000pt" height="121.000000pt" viewBox="0 0 141.000000 121.000000"
 preserveAspectRatio="xMidYMid meet">
<metadata>
Created by potrace 1.16, written by Peter Selinger 2001-2019
</metadata>
<g transform="translate(0.000000,121.000000) scale(0.100000,-0.100000)"
fill="#000000" stroke="none">
<path d="M300 760 l0 -150 33 0 c103 1 249 39 307 80 l30 21 0 -50 0 -51 38 0
c62 1 185 26 240 50 53 23 102 69 102 96 0 8 10 15 23 15 20 1 20 2 2 6 -11 3
-39 22 -62 43 -51 48 -145 79 -260 87 l-83 6 0 -53 c0 -50 -1 -52 -17 -38 -52
46 -198 88 -303 88 l-50 0 0 -150z m220 110 c55 -15 112 -43 129 -64 12 -14 3
-16 -90 -16 -57 0 -109 4 -115 8 -6 4 -19 22 -28 40 -9 18 -24 36 -32 39 -7 3
-14 8 -14 12 0 9 88 -2 150 -19z m396 -10 c34 -12 72 -32 84 -45 l23 -25 -94
0 c-106 0 -139 6 -139 26 0 7 -13 28 -30 47 l-29 34 62 -9 c34 -4 89 -17 123
-28z m-246 -101 c0 -25 -24 -51 -72 -75 -48 -24 -159 -53 -205 -54 -22 0 -22
0 3 27 14 15 28 40 31 55 3 16 11 31 17 35 6 4 56 10 111 13 55 4 103 8 108 8
4 1 7 -3 7 -9z m360 -8 c0 -45 -117 -102 -240 -117 l-54 -7 26 31 c14 17 29
45 33 61 7 33 25 38 155 44 36 2 68 4 73 5 4 1 7 -7 7 -17z"/>
<path d="M300 460 l0 -141 32 3 c71 7 101 122 54 212 l-25 49 112 -6 c130 -7
265 -29 344 -57 53 -18 93 -45 93 -60 0 -4 -30 -6 -67 -4 -38 2 -146 5 -241 8
-172 4 -173 4 -170 -18 3 -21 6 -21 183 -18 99 1 206 5 239 8 46 5 57 3 54 -7
-9 -26 -96 -61 -209 -84 -65 -13 -99 -24 -79 -24 48 -1 189 34 245 60 25 12
50 30 56 40 6 13 22 20 47 21 36 1 36 1 5 5 -18 2 -46 18 -66 37 -60 56 -233
95 -494 111 l-113 7 0 -142z"/>
</g>
</svg>
