<?xml version="1.0" standalone="no"?>
<!DOCTYPE svg PUBLIC "-//W3C//DTD SVG 20010904//EN"
 "http://www.w3.org/TR/2001/REC-SVG-20010904/DTD/svg10.dtd">
<svg version="1.0" xmlns="http://www.w3.org/2000/svg"
 width="89.000000pt" height="136.000000pt" viewBox="0 0 89.000000 136.000000"
 preserveAspectRatio="xMidYMid meet">
<metadata>
Created by potrace 1.16, written by Peter Selinger 2001-2019
</metadata>
<g transform="translate(0.000000,136.000000) scale(0.100000,-0.100000)"
fill="#000000" stroke="none">
<path d="M300 1022 c0 -55 27 -136 56 -172 l26 -30 -41 0 c-41 0 -41 0 -41
-38 0 -67 29 -143 70 -184 l38 -38 -54 0 -54 0 0 -38 c0 -84 63 -212 104 -212
7 0 -3 17 -23 38 -35 36 -50 71 -66 150 l-7 34 28 -19 c40 -26 178 -26 218 0
l28 19 -7 -34 c-16 -79 -31 -114 -66 -150 -20 -21 -30 -38 -23 -38 41 0 104
128 104 212 l0 38 -54 0 -54 0 38 38 c41 41 70 117 70 184 0 38 0 38 -41 38
l-41 0 26 30 c29 36 56 117 56 172 l0 38 -145 0 -145 0 0 -38z m140 -27 c51 0
86 5 108 17 l33 17 -7 -37 c-9 -50 -40 -122 -66 -149 -30 -32 -96 -32 -126 0
-26 27 -57 99 -66 150 l-7 38 27 -18 c21 -13 48 -18 104 -18z m0 -240 c51 0
86 5 108 17 l33 17 -7 -37 c-34 -191 -167 -239 -232 -84 -11 26 -23 64 -26 85
l-7 38 27 -18 c21 -13 48 -18 104 -18z"/>
</g>
</svg>
