<?xml version="1.0" standalone="no"?>
<!DOCTYPE svg PUBLIC "-//W3C//DTD SVG 20010904//EN"
 "http://www.w3.org/TR/2001/REC-SVG-20010904/DTD/svg10.dtd">
<svg version="1.0" xmlns="http://www.w3.org/2000/svg"
 width="134.000000pt" height="188.000000pt" viewBox="0 0 134.000000 188.000000"
 preserveAspectRatio="xMidYMid meet">
<metadata>
Created by potrace 1.16, written by Peter Selinger 2001-2019
</metadata>
<g transform="translate(0.000000,188.000000) scale(0.100000,-0.100000)"
fill="#000000" stroke="none">
<path d="M850 1575 c0 -3 19 -14 43 -24 42 -19 42 -19 15 -26 -19 -5 -37 -1
-60 13 -18 11 -43 23 -55 27 -39 11 -25 -10 20 -32 39 -20 40 -22 14 -22 -15
-1 -44 6 -65 15 -20 8 -59 17 -87 19 -27 2 -95 8 -150 14 -55 6 -128 11 -162
11 l-63 0 0 -151 0 -152 125 7 c196 11 344 38 448 81 17 7 18 3 17 -41 -1 -27
-1 -55 -1 -61 1 -14 51 -17 114 -7 l37 7 0 149 0 150 -39 -7 c-29 -5 -49 -1
-80 14 -38 20 -71 27 -71 16z m-218 -55 c10 -11 30 -23 43 -26 14 -3 25 -10
25 -15 0 -16 -50 -10 -90 11 -22 11 -44 20 -51 20 -20 0 9 -27 36 -34 27 -7
34 -26 10 -26 -9 0 -33 9 -55 20 -42 21 -60 25 -60 12 0 -4 16 -14 37 -21 29
-11 33 -15 20 -22 -10 -6 -31 -1 -65 17 -49 25 -80 25 -66 1 4 -7 4 -9 1 -6
-4 3 -18 27 -31 54 l-25 48 126 -6 c108 -6 129 -10 145 -27z m123 -16 l30 -12
-30 -1 c-16 0 -46 9 -65 19 l-35 19 35 -6 c19 -3 49 -12 65 -19z m261 -106
c-4 -73 -9 -134 -11 -136 -1 -2 -24 1 -51 6 l-49 10 48 1 c60 1 62 21 2 21
-25 0 -45 5 -45 10 0 6 21 10 48 11 35 0 42 3 27 9 -11 5 -32 9 -47 9 -23 1
-28 6 -28 25 0 14 5 28 10 31 19 12 10 43 -21 70 -17 14 -30 27 -28 29 5 4
121 34 138 35 11 1 13 -21 7 -131z m-124 53 c31 -28 32 -30 16 -48 -17 -18
-23 -19 -125 -7 -60 7 -128 13 -152 14 -24 0 -41 3 -38 7 11 10 208 61 239 62
17 1 40 -10 60 -28z m-412 -16 c39 -20 38 -28 -5 -48 l-35 -17 0 40 c0 45 0
46 40 25z m-50 -105 c6 0 10 4 10 10 0 17 78 50 117 49 33 0 36 -2 19 -12 -38
-24 -61 -45 -55 -51 3 -3 29 11 58 30 41 28 58 34 73 27 18 -8 17 -10 -16 -28
-20 -11 -36 -23 -36 -27 0 -14 15 -9 64 23 33 21 58 29 80 27 l31 -3 -45 -30
c-50 -32 -162 -53 -298 -54 l-73 -1 22 31 c12 17 24 52 28 77 l6 47 3 -57 c2
-32 7 -58 12 -58z m400 26 c-19 -7 -46 -16 -60 -20 l-25 -7 25 20 c15 12 39
20 60 20 l35 0 -35 -13z"/>
<path d="M850 1090 c0 -6 19 -18 42 -27 39 -15 40 -17 20 -26 -17 -8 -33 -4
-71 16 -51 28 -71 33 -71 18 0 -5 19 -17 43 -27 33 -14 38 -19 21 -21 -11 -2
-41 3 -65 12 -24 8 -64 17 -89 20 -25 2 -88 8 -140 14 -52 6 -128 11 -167 11
l-73 0 0 -151 0 -152 118 7 c197 12 357 40 455 81 17 7 18 3 16 -42 -3 -60 4
-73 39 -69 15 2 46 4 70 5 l42 1 0 151 0 152 -40 -7 c-32 -5 -51 -1 -90 19
-55 28 -60 29 -60 15z m-224 -55 c6 -8 25 -20 43 -26 17 -6 28 -15 25 -20 -9
-15 -42 -10 -85 12 -22 11 -46 18 -52 16 -7 -2 6 -13 28 -25 31 -16 36 -22 23
-27 -9 -3 -35 3 -58 15 -23 12 -47 19 -53 17 -7 -2 6 -13 28 -25 33 -17 36
-21 17 -22 -12 0 -41 10 -64 21 -33 17 -46 19 -60 10 -15 -9 -18 -8 -18 5 0
10 -11 31 -24 48 l-23 31 131 -7 c99 -6 134 -11 142 -23z m134 -21 l25 -13
-30 0 c-16 0 -46 9 -65 19 l-35 20 40 -6 c22 -4 51 -13 65 -20z m259 -36 c-1
-35 -4 -94 -8 -133 l-6 -70 -50 6 -50 6 42 1 c58 3 66 22 9 22 -25 0 -46 5
-46 10 0 6 21 10 46 10 27 0 43 4 39 10 -3 6 -24 10 -46 10 -34 0 -39 3 -39
23 0 13 5 28 11 34 17 17 3 58 -26 73 -14 7 -25 16 -25 20 0 7 104 37 133 39
15 1 17 -8 16 -61z m-109 -44 c0 -13 -5 -26 -11 -30 -12 -7 -299 17 -299 25 0
4 53 20 118 37 l117 31 38 -20 c26 -15 37 -27 37 -43z m-480 -94 c6 0 10 4 10
10 0 19 93 57 124 51 l29 -6 -36 -20 c-36 -19 -48 -35 -26 -35 6 0 30 14 54
30 41 28 85 40 85 23 0 -5 -17 -17 -37 -29 -20 -11 -32 -24 -27 -27 6 -3 31 8
56 24 33 22 56 29 79 27 l33 -3 -43 -28 c-48 -32 -107 -44 -263 -53 l-107 -7
25 48 c13 27 25 65 26 84 1 20 3 8 5 -26 2 -35 8 -63 13 -63z m49 109 c38 -13
40 -32 6 -47 -39 -18 -45 -15 -45 23 0 19 2 35 4 35 1 0 17 -5 35 -11z m351
-83 c-19 -7 -46 -16 -60 -20 l-25 -7 25 20 c15 12 39 20 60 20 l35 0 -35 -13z"/>
<path d="M850 632 c0 -5 19 -17 42 -28 39 -17 40 -19 17 -25 -15 -4 -41 3 -71
18 -49 24 -68 28 -68 16 0 -5 19 -17 43 -27 35 -16 38 -20 21 -23 -12 -2 -39
3 -60 12 -22 10 -57 19 -79 20 -22 2 -80 8 -130 14 -49 6 -129 11 -177 11
l-88 0 0 -144 c0 -80 3 -147 8 -149 15 -7 291 13 376 28 50 9 116 26 149 40
l58 23 -2 -56 -3 -57 75 0 74 0 3 151 3 152 -40 -9 c-33 -7 -46 -5 -83 16 -44
26 -68 31 -68 17z m-282 -38 c34 -4 62 -10 62 -15 0 -5 17 -17 38 -28 37 -19
37 -19 11 -26 -17 -4 -37 0 -62 15 -20 12 -44 20 -54 17 -13 -3 -6 -10 26 -24
33 -16 39 -22 25 -25 -11 -3 -40 6 -66 19 -54 26 -58 27 -58 12 0 -5 17 -17
38 -27 31 -14 34 -17 15 -20 -12 -2 -40 6 -63 18 -24 12 -49 18 -61 15 -13 -4
-19 -2 -19 9 0 8 -12 29 -27 47 l-27 32 79 -7 c44 -4 108 -9 143 -12z m447
-150 l-7 -124 -49 0 c-27 0 -49 5 -49 10 0 6 21 10 47 10 54 0 54 6 -1 14 -56
9 -57 16 -3 16 26 0 47 5 47 10 0 6 -20 10 -45 10 -38 0 -45 3 -45 20 0 11 5
29 12 39 16 26 -3 67 -38 83 -24 11 -22 13 53 33 43 12 80 17 82 12 2 -5 0
-65 -4 -133z m-289 125 c46 -12 60 -29 22 -29 -25 1 -102 39 -80 40 7 0 33 -5
58 -11z m149 -49 c40 -24 48 -42 31 -65 -12 -17 -21 -17 -156 -2 -78 9 -144
18 -146 20 -4 3 205 63 230 66 5 1 23 -8 41 -19z m-365 -52 c0 -7 -52 -38 -65
-38 -3 0 -5 18 -5 40 l0 40 35 -17 c19 -9 35 -20 35 -25z m-79 -78 c5 0 9 4 9
8 0 4 20 18 45 30 74 36 138 24 69 -13 -19 -10 -34 -22 -34 -27 0 -14 13 -9
60 22 25 17 58 30 75 30 l30 -1 -36 -22 c-20 -12 -36 -26 -35 -32 1 -13 15 -8
54 21 24 19 42 24 70 22 l37 -3 -48 -28 c-53 -31 -108 -42 -276 -53 l-106 -7
22 24 c25 28 42 69 45 107 1 15 3 3 5 -25 2 -29 8 -53 14 -53z m407 32 c8 -5
-7 -14 -40 -25 l-53 -16 30 24 c32 27 43 29 63 17z"/>
</g>
</svg>
