<?xml version="1.0" standalone="no"?>
<!DOCTYPE svg PUBLIC "-//W3C//DTD SVG 20010904//EN"
 "http://www.w3.org/TR/2001/REC-SVG-20010904/DTD/svg10.dtd">
<svg version="1.0" xmlns="http://www.w3.org/2000/svg"
 width="143.000000pt" height="125.000000pt" viewBox="0 0 143.000000 125.000000"
 preserveAspectRatio="xMidYMid meet">
<metadata>
Created by potrace 1.16, written by Peter Selinger 2001-2019
</metadata>
<g transform="translate(0.000000,125.000000) scale(0.100000,-0.100000)"
fill="#000000" stroke="none">
<path d="M300 804 l0 -147 88 5 c48 3 113 14 144 25 l57 20 71 -39 c41 -23 68
-34 64 -25 -4 11 9 15 63 19 37 3 100 13 138 23 l70 18 63 -38 c80 -46 93 -39
18 11 -31 20 -56 40 -56 44 0 3 11 17 25 30 87 82 -47 182 -265 197 l-85 6 3
-142 c2 -77 0 -141 -3 -141 -4 0 -21 10 -38 22 -18 12 -33 22 -35 24 -2 1 11
15 28 32 53 53 35 104 -52 148 -61 31 -162 54 -240 54 l-58 0 0 -146z m205
110 c33 -8 80 -27 105 -42 41 -25 45 -31 45 -66 0 -30 -6 -43 -26 -58 l-27
-20 -91 61 c-50 34 -91 68 -91 75 0 8 -13 28 -30 44 l-30 30 43 -5 c23 -3 69
-11 102 -19z m375 4 c101 -19 180 -71 180 -117 0 -10 -13 -30 -30 -46 l-29
-28 -90 59 c-50 32 -91 64 -91 69 0 6 -14 27 -31 48 l-30 37 33 -6 c18 -3 58
-10 88 -16z m-374 -165 c63 -34 65 -37 43 -45 -24 -9 -79 -21 -151 -33 l-37
-6 30 30 c16 16 32 43 35 60 4 17 8 31 10 31 2 0 33 -17 70 -37z m439 -26 c19
-14 17 -16 -24 -27 -36 -9 -144 -30 -160 -30 -3 0 7 13 22 28 15 15 32 42 38
60 l11 31 46 -23 c26 -14 56 -31 67 -39z"/>
<path d="M302 494 l3 -149 95 3 c112 3 162 8 288 28 l93 16 80 -47 c44 -26 82
-45 85 -42 3 3 -26 27 -65 53 l-71 47 49 23 c80 36 90 85 28 122 -78 47 -245
81 -445 89 l-143 6 3 -149z m303 115 c155 -19 294 -66 309 -104 8 -23 -33 -61
-82 -76 -40 -12 -43 -11 -106 30 -61 40 -86 45 -86 18 0 -7 26 -25 57 -42 l57
-30 -52 -11 c-57 -13 -255 -34 -317 -34 -33 0 -36 2 -22 13 9 6 23 29 32 49
27 67 16 139 -28 186 l-22 23 90 -6 c50 -4 126 -11 170 -16z"/>
</g>
</svg>
