<?xml version="1.0" standalone="no"?>
<!DOCTYPE svg PUBLIC "-//W3C//DTD SVG 20010904//EN"
 "http://www.w3.org/TR/2001/REC-SVG-20010904/DTD/svg10.dtd">
<svg version="1.0" xmlns="http://www.w3.org/2000/svg"
 width="132.000000pt" height="130.000000pt" viewBox="0 0 132.000000 130.000000"
 preserveAspectRatio="xMidYMid meet">
<metadata>
Created by potrace 1.16, written by Peter Selinger 2001-2019
</metadata>
<g transform="translate(0.000000,130.000000) scale(0.100000,-0.100000)"
fill="#000000" stroke="none">
<path d="M360 952 c0 -48 0 -49 -30 -44 -27 4 -30 1 -30 -22 0 -22 4 -26 30
-26 27 0 30 -3 30 -33 0 -32 -2 -33 -30 -29 -27 4 -30 2 -30 -23 0 -25 3 -27
30 -23 27 4 29 2 32 -31 l3 -36 103 -3 102 -3 0 41 c0 33 3 40 19 40 28 0 52
11 45 21 -3 5 -18 9 -35 9 -27 0 -29 2 -29 40 0 33 3 40 19 40 28 0 52 11 45
21 -3 5 -18 9 -35 9 -28 0 -29 1 -29 50 l0 50 -105 0 -105 0 0 -48z"/>
<path d="M741 953 l3 -48 -32 3 c-29 3 -32 1 -32 -22 0 -23 4 -26 33 -26 30 0
32 -2 31 -32 -1 -31 -3 -33 -32 -30 -29 3 -32 1 -32 -22 0 -23 4 -26 33 -26
30 0 32 -2 32 -32 l0 -33 103 -3 102 -3 0 40 c0 35 3 40 25 43 14 2 26 8 26
13 0 6 -12 11 -26 13 -22 3 -25 8 -25 42 0 34 3 39 25 42 14 2 26 8 26 13 0 6
-12 11 -26 13 -23 3 -25 7 -25 53 l0 49 -106 0 -106 0 3 -47z"/>
<path d="M367 613 c-4 -3 -7 -26 -7 -51 0 -44 0 -44 -30 -38 -27 5 -30 3 -30
-19 0 -21 5 -25 30 -25 28 0 30 -3 30 -36 0 -35 -1 -36 -30 -30 -27 5 -30 3
-30 -19 0 -21 5 -25 30 -25 28 0 30 -3 30 -35 l0 -35 105 0 105 0 0 40 c0 39
1 40 35 40 19 0 35 4 35 9 0 5 -16 12 -35 15 -33 7 -35 9 -35 46 0 39 1 40 35
40 19 0 35 4 35 9 0 5 -16 12 -35 15 -34 7 -35 8 -35 56 l0 50 -98 0 c-54 0
-102 -3 -105 -7z"/>
</g>
</svg>
