<?xml version="1.0" standalone="no"?>
<!DOCTYPE svg PUBLIC "-//W3C//DTD SVG 20010904//EN"
 "http://www.w3.org/TR/2001/REC-SVG-20010904/DTD/svg10.dtd">
<svg version="1.0" xmlns="http://www.w3.org/2000/svg"
 width="160.000000pt" height="129.000000pt" viewBox="0 0 160.000000 129.000000"
 preserveAspectRatio="xMidYMid meet">
<metadata>
Created by potrace 1.16, written by Peter Selinger 2001-2019
</metadata>
<g transform="translate(0.000000,129.000000) scale(0.100000,-0.100000)"
fill="#000000" stroke="none">
<path d="M495 980 c-11 -4 -33 -22 -49 -38 -57 -61 -42 -168 31 -213 50 -31
132 -23 173 16 74 71 59 184 -30 230 -31 16 -93 19 -125 5z m84 -174 c-2 -2
-20 3 -39 10 -19 8 -25 12 -12 10 22 -4 30 8 12 19 -5 3 -10 11 -10 16 0 6 12
-4 26 -21 15 -17 25 -32 23 -34z"/>
<path d="M952 970 c-90 -55 -95 -163 -10 -235 29 -24 38 -27 90 -23 47 3 64
10 88 33 55 53 63 133 19 189 -45 57 -127 73 -187 36z m97 -164 c-2 -2 -20 3
-39 10 -19 8 -25 12 -12 10 22 -4 30 8 12 19 -5 3 -10 11 -10 16 0 6 12 -4 26
-21 15 -17 25 -32 23 -34z"/>
<path d="M752 960 c-6 -10 -8 -21 -4 -23 9 -5 89 -20 82 -15 -3 1 -19 15 -35
30 -29 27 -31 27 -43 8z"/>
<path d="M1225 960 c-8 -26 -9 -26 40 -35 22 -4 38 -5 35 -3 -3 1 -19 16 -37
31 -31 29 -31 29 -38 7z"/>
<path d="M306 944 c-8 -21 -9 -20 39 -27 l40 -7 -30 25 c-36 29 -41 30 -49 9z"/>
<path d="M696 724 c-8 -21 -9 -21 39 -30 l40 -7 -31 26 c-37 32 -40 32 -48 11z"/>
<path d="M1171 722 c-9 -17 -6 -20 26 -25 20 -4 38 -5 39 -4 1 1 -11 12 -27
25 -27 22 -28 22 -38 4z"/>
<path d="M490 588 c-165 -85 -48 -326 124 -254 107 45 109 204 2 255 -54 27
-72 26 -126 -1z m69 -139 l24 -32 -29 7 c-16 4 -33 11 -38 16 -5 5 1 6 14 3
20 -5 21 -4 11 16 -17 30 -8 26 18 -10z"/>
<path d="M751 572 c-8 -16 -4 -20 30 -29 46 -12 48 -6 9 25 -28 22 -29 22 -39
4z"/>
<path d="M306 564 c-8 -21 -9 -20 38 -33 l39 -10 -28 29 c-33 34 -40 36 -49
14z"/>
<path d="M700 341 c-12 -23 -11 -24 45 -35 29 -6 29 -6 10 9 -11 9 -25 22 -32
31 -10 14 -13 13 -23 -5z"/>
</g>
</svg>
