<?xml version="1.0" standalone="no"?>
<!DOCTYPE svg PUBLIC "-//W3C//DTD SVG 20010904//EN"
 "http://www.w3.org/TR/2001/REC-SVG-20010904/DTD/svg10.dtd">
<svg version="1.0" xmlns="http://www.w3.org/2000/svg"
 width="144.000000pt" height="121.000000pt" viewBox="0 0 144.000000 121.000000"
 preserveAspectRatio="xMidYMid meet">
<metadata>
Created by potrace 1.16, written by Peter Selinger 2001-2019
</metadata>
<g transform="translate(0.000000,121.000000) scale(0.100000,-0.100000)"
fill="#000000" stroke="none">
<path d="M365 890 c-118 -77 -65 -260 75 -260 42 0 110 29 110 47 0 5 26 9 59
11 43 1 62 -2 72 -14 39 -48 136 -59 185 -22 16 12 31 25 34 28 6 6 10 6 141
8 64 1 98 6 94 12 -3 6 -17 10 -31 10 -26 0 -29 13 -18 83 6 31 11 37 30 37
13 0 24 5 24 10 0 8 -189 17 -224 11 -5 -1 -21 10 -36 24 -29 28 -90 42 -134
31 -13 -3 -38 -18 -55 -32 -26 -21 -38 -25 -80 -22 -28 2 -58 11 -68 20 -50
43 -127 51 -178 18z m339 -44 c-4 -10 3 -16 20 -19 26 -4 26 -4 -1 -3 -18 1
-29 7 -31 19 -2 9 1 17 7 17 6 0 8 -6 5 -14z m-306 -23 c-10 -2 -26 -2 -35 0
-10 3 -2 5 17 5 19 0 27 -2 18 -5z m617 -56 c6 -49 4 -57 -11 -57 -14 0 -16 6
-10 38 3 20 6 48 6 61 0 42 9 18 15 -42z m45 3 c0 -33 -4 -60 -10 -60 -11 0
-14 103 -3 113 12 12 13 8 13 -53z m-87 -12 c4 -38 1 -48 -10 -48 -11 0 -14 7
-9 23 3 12 6 38 7 57 1 43 6 30 12 -32z m-343 2 c0 -27 -4 -50 -10 -50 -11 0
-14 83 -3 93 12 12 13 8 13 -43z m-43 -37 c-3 -10 -5 -4 -5 12 0 17 2 24 5 18
2 -7 2 -21 0 -30z m349 -10 c-10 -10 -19 5 -10 18 6 11 8 11 12 0 2 -7 1 -15
-2 -18z m-503 -30 c-7 -2 -21 -2 -30 0 -10 3 -4 5 12 5 17 0 24 -2 18 -5z
m350 0 c-7 -2 -21 -2 -30 0 -10 3 -4 5 12 5 17 0 24 -2 18 -5z"/>
<path d="M366 561 c-41 -27 -66 -70 -66 -114 0 -86 59 -147 141 -147 45 0 109
30 109 50 0 6 8 10 18 9 60 -6 232 2 227 11 -3 6 -17 10 -31 10 -24 0 -25 2
-22 58 3 54 4 57 31 60 15 2 27 8 27 13 0 5 -45 10 -100 10 -136 2 -135 2
-156 20 -50 44 -128 53 -178 20z m27 -68 c-7 -2 -21 -2 -30 0 -10 3 -4 5 12 5
17 0 24 -2 18 -5z m279 -65 c2 -34 -1 -48 -9 -48 -14 0 -18 75 -6 107 9 21 10
14 15 -59z m47 -25 c1 -15 -5 -23 -15 -23 -14 0 -16 8 -10 46 3 26 7 54 7 63
2 20 18 -56 18 -86z m-89 32 c0 -30 -4 -55 -10 -55 -11 0 -14 69 -4 94 11 27
14 18 14 -39z m-43 -42 c-3 -10 -5 -4 -5 12 0 17 2 24 5 18 2 -7 2 -21 0 -30z
m-154 -40 c-7 -2 -19 -2 -25 0 -7 3 -2 5 12 5 14 0 19 -2 13 -5z"/>
</g>
</svg>
