<?xml version="1.0" standalone="no"?>
<!DOCTYPE svg PUBLIC "-//W3C//DTD SVG 20010904//EN"
 "http://www.w3.org/TR/2001/REC-SVG-20010904/DTD/svg10.dtd">
<svg version="1.0" xmlns="http://www.w3.org/2000/svg"
 width="172.000000pt" height="180.000000pt" viewBox="0 0 172.000000 180.000000"
 preserveAspectRatio="xMidYMid meet">
<metadata>
Created by potrace 1.16, written by Peter Selinger 2001-2019
</metadata>
<g transform="translate(0.000000,180.000000) scale(0.100000,-0.100000)"
fill="#000000" stroke="none">
<path d="M300 1211 l0 -291 33 0 c59 0 211 27 277 50 113 38 207 107 236 174
12 28 13 19 14 -96 l0 -128 38 0 c59 0 207 27 277 50 144 48 245 145 245 236
0 57 -12 85 -56 133 -81 91 -277 161 -446 161 l-58 0 0 -127 0 -128 -19 41
c-49 109 -238 197 -448 211 l-93 6 0 -292z m220 253 c159 -33 295 -123 320
-213 37 -136 -152 -278 -410 -307 l-59 -7 39 42 c106 112 105 353 -4 466 l-42
45 40 -6 c23 -3 75 -12 116 -20z m577 -5 c46 -10 110 -32 143 -49 243 -123
217 -317 -55 -419 -62 -23 -188 -51 -231 -51 -24 0 -24 1 9 30 19 16 45 54 58
82 20 45 24 69 24 158 0 121 -19 177 -82 242 l-36 36 44 -5 c24 -3 81 -13 126
-24z"/>
<path d="M300 591 l0 -291 98 0 c137 0 344 26 480 60 260 66 387 168 337 273
-59 125 -370 221 -782 243 l-133 7 0 -292z m325 254 c431 -50 673 -194 555
-328 -83 -95 -340 -171 -664 -197 -179 -14 -174 -14 -144 9 14 11 38 48 54 83
25 56 28 74 29 163 0 119 -16 182 -62 241 l-33 44 68 0 c37 0 126 -7 197 -15z"/>
</g>
</svg>
