<?xml version="1.0" standalone="no"?>
<!DOCTYPE svg PUBLIC "-//W3C//DTD SVG 20010904//EN"
 "http://www.w3.org/TR/2001/REC-SVG-20010904/DTD/svg10.dtd">
<svg version="1.0" xmlns="http://www.w3.org/2000/svg"
 width="118.000000pt" height="160.000000pt" viewBox="0 0 118.000000 160.000000"
 preserveAspectRatio="xMidYMid meet">
<metadata>
Created by potrace 1.16, written by Peter Selinger 2001-2019
</metadata>
<g transform="translate(0.000000,160.000000) scale(0.100000,-0.100000)"
fill="#000000" stroke="none">
<path d="M450 1270 l0 -30 -76 0 -77 0 7 -47 c12 -87 94 -188 175 -214 70 -22
55 -29 -62 -29 l-117 0 0 -28 c0 -92 85 -205 178 -238 29 -10 52 -22 52 -26 0
-5 -52 -8 -115 -8 l-115 0 0 -32 c0 -46 41 -128 85 -171 20 -20 61 -46 91 -58
36 -15 54 -28 54 -40 0 -25 11 -49 21 -49 5 0 9 14 9 30 0 25 4 30 24 30 13 0
31 3 40 6 11 4 16 0 16 -14 0 -26 10 -52 20 -52 4 0 10 17 14 38 5 33 12 41
46 57 82 37 160 145 160 223 l0 32 -100 0 c-75 0 -100 3 -100 13 0 7 17 19 37
26 79 29 163 148 163 232 l0 27 -100 -1 c-108 -2 -130 10 -67 37 79 33 152
126 163 209 l7 47 -143 0 -142 0 6 30 c5 27 3 30 -19 30 -21 0 -25 -5 -25 -30
0 -28 -3 -30 -36 -30 -35 0 -36 1 -30 30 5 27 3 30 -19 30 -21 0 -25 -5 -25
-30z m-72 -94 c125 -44 369 -37 459 14 l31 18 -8 -26 c-25 -83 -69 -141 -131
-173 -50 -25 -51 -25 -48 15 4 41 -2 50 -29 42 -15 -5 -19 -15 -18 -49 1 -40
0 -42 -31 -45 l-33 -3 0 51 c0 43 -3 51 -16 46 -9 -3 -20 -6 -25 -6 -5 0 -6
-17 -3 -40 5 -27 3 -40 -5 -40 -23 0 -106 49 -132 77 -42 47 -50 60 -65 109
-11 37 -11 44 0 35 7 -6 31 -17 54 -25z m262 -224 c0 -5 -16 -9 -35 -9 -19 0
-35 4 -35 9 0 4 16 8 35 8 19 0 35 -4 35 -8z m-185 -93 c33 -6 111 -9 175 -7
103 5 140 12 213 43 28 12 21 -24 -16 -85 -29 -50 -111 -120 -139 -120 -6 0
-8 18 -6 40 3 38 2 40 -24 40 -27 0 -27 -1 -22 -44 6 -41 5 -43 -22 -49 -40
-7 -44 -2 -44 49 0 40 -2 44 -25 44 -24 0 -24 -2 -18 -46 6 -45 6 -46 -18 -39
-45 13 -108 55 -132 88 -33 44 -57 92 -57 115 0 19 1 19 38 1 20 -10 64 -24
97 -30z m173 -206 c-10 -2 -28 -2 -40 0 -13 2 -5 4 17 4 22 1 32 -1 23 -4z
m-153 -94 c119 -20 321 3 373 44 18 14 15 -21 -7 -68 -23 -50 -73 -100 -124
-127 l-39 -20 4 41 c3 39 2 41 -24 41 -27 0 -27 -1 -21 -45 l6 -45 -38 0 -37
0 4 45 c3 43 2 45 -25 45 -26 0 -27 -1 -21 -40 5 -33 4 -40 -10 -40 -51 0
-153 85 -181 152 -26 63 -22 70 28 48 23 -10 73 -24 112 -31z"/>
</g>
</svg>
