<?xml version="1.0" standalone="no"?>
<!DOCTYPE svg PUBLIC "-//W3C//DTD SVG 20010904//EN"
 "http://www.w3.org/TR/2001/REC-SVG-20010904/DTD/svg10.dtd">
<svg version="1.0" xmlns="http://www.w3.org/2000/svg"
 width="140.000000pt" height="169.000000pt" viewBox="0 0 140.000000 169.000000"
 preserveAspectRatio="xMidYMid meet">
<metadata>
Created by potrace 1.16, written by Peter Selinger 2001-2019
</metadata>
<g transform="translate(0.000000,169.000000) scale(0.100000,-0.100000)"
fill="#000000" stroke="none">
<path d="M928 1383 c-28 -4 -34 -17 -20 -40 5 -8 17 -2 40 18 18 16 27 28 20
28 -7 -1 -25 -4 -40 -6z"/>
<path d="M493 1283 c-13 -2 -23 -11 -23 -18 0 -26 20 -26 47 -1 28 26 24 28
-24 19z"/>
<path d="M655 1281 c-126 -34 -224 -140 -225 -243 l0 -38 48 -1 c29 -1 36 -4
20 -6 -28 -4 -34 -17 -20 -41 6 -9 16 -4 37 18 l29 30 233 0 233 0 0 23 c0 83
-83 199 -169 235 -55 24 -142 35 -186 23z m182 -35 c46 -23 101 -74 119 -109
23 -44 7 -53 -79 -47 -208 13 -311 3 -419 -44 -15 -7 -16 -4 -8 24 25 87 88
153 177 186 49 18 167 13 210 -10z m153 -193 c0 -10 -6 -10 -26 -1 -24 11 -25
13 -8 25 19 14 34 3 34 -24z"/>
<path d="M758 1207 c-41 -11 -43 -14 -28 -37 8 -13 15 -10 42 18 18 17 30 31
28 31 -3 -1 -22 -6 -42 -12z"/>
<path d="M340 1067 c-44 -13 -42 -11 -34 -31 8 -21 14 -20 48 10 34 30 32 34
-14 21z"/>
<path d="M595 966 c-91 -42 -153 -124 -163 -213 l-5 -43 293 0 293 0 -7 41
c-16 98 -93 193 -184 223 -69 24 -167 21 -227 -8z m255 -22 c60 -33 103 -81
127 -142 17 -46 13 -62 -12 -42 -10 8 -12 17 -6 24 7 8 -7 11 -47 12 -32 1
-113 3 -182 4 -128 3 -214 -12 -268 -46 -22 -14 -22 -14 -16 13 42 174 246
263 404 177z"/>
<path d="M748 913 c-30 -5 -33 -10 -19 -32 8 -12 15 -9 41 12 17 15 26 26 18
26 -7 -1 -25 -4 -40 -6z"/>
<path d="M328 773 c-30 -5 -33 -10 -19 -32 8 -12 15 -9 41 12 17 15 26 26 18
26 -7 -1 -25 -4 -40 -6z"/>
<path d="M498 693 c-16 -2 -28 -11 -28 -18 0 -27 22 -27 48 -1 15 14 22 25 17
25 -6 -1 -22 -4 -37 -6z"/>
<path d="M660 691 c-123 -26 -229 -139 -230 -243 l0 -38 290 0 290 0 0 23 c0
82 -83 199 -168 235 -56 24 -132 34 -182 23z m152 -27 c63 -21 126 -78 154
-138 34 -72 32 -78 -19 -56 -127 56 -342 50 -489 -14 -15 -7 -16 -4 -8 24 44
153 209 237 362 184z"/>
<path d="M758 617 c-41 -11 -43 -14 -28 -37 8 -13 15 -10 42 18 18 17 30 31
28 31 -3 -1 -22 -6 -42 -12z"/>
<path d="M340 477 c-44 -13 -42 -11 -34 -31 8 -21 14 -20 48 10 34 30 32 34
-14 21z"/>
<path d="M1048 343 c-30 -5 -33 -10 -19 -32 8 -12 15 -9 41 12 17 15 26 26 18
26 -7 -1 -25 -4 -40 -6z"/>
</g>
</svg>
