<?xml version="1.0" standalone="no"?>
<!DOCTYPE svg PUBLIC "-//W3C//DTD SVG 20010904//EN"
 "http://www.w3.org/TR/2001/REC-SVG-20010904/DTD/svg10.dtd">
<svg version="1.0" xmlns="http://www.w3.org/2000/svg"
 width="167.000000pt" height="178.000000pt" viewBox="0 0 167.000000 178.000000"
 preserveAspectRatio="xMidYMid meet">
<metadata>
Created by potrace 1.16, written by Peter Selinger 2001-2019
</metadata>
<g transform="translate(0.000000,178.000000) scale(0.100000,-0.100000)"
fill="#000000" stroke="none">
<path d="M300 1189 l0 -292 88 6 c154 11 309 63 391 132 l31 27 0 -83 0 -82
88 6 c326 24 539 196 453 366 -55 107 -241 194 -448 208 l-93 6 0 -81 0 -82
-52 40 c-87 65 -265 119 -395 120 l-63 0 0 -291z m242 251 c74 -17 187 -71
231 -109 l37 -33 0 -108 0 -108 -35 -31 c-70 -61 -203 -112 -337 -129 l-67 -8
43 47 c59 66 80 135 74 247 -5 101 -30 168 -84 223 l-35 35 60 -7 c33 -3 83
-12 113 -19z m423 15 c185 -21 355 -120 386 -224 42 -139 -134 -272 -408 -309
l-62 -9 36 40 c59 66 77 118 78 227 0 120 -21 185 -80 246 -23 24 -35 42 -26
40 9 -2 43 -7 76 -11z"/>
<path d="M590 1312 c-47 -23 -80 -75 -80 -126 0 -108 111 -176 207 -127 104
52 104 205 0 254 -45 22 -83 21 -127 -1z"/>
<path d="M1105 1316 c-17 -7 -43 -28 -58 -45 -22 -27 -27 -42 -27 -86 0 -46 5
-59 31 -90 61 -70 157 -70 218 0 26 31 31 44 31 90 0 44 -5 59 -27 86 -46 54
-108 71 -168 45z"/>
<path d="M300 595 l0 -285 26 0 c42 0 90 59 115 142 42 138 11 321 -67 393
l-28 26 85 -6 c441 -31 711 -113 775 -237 45 -86 -65 -178 -289 -242 -99 -29
-333 -66 -417 -66 -41 -1 -51 -3 -38 -10 18 -11 150 0 300 26 279 47 468 150
468 254 0 96 -150 186 -403 241 -113 25 -328 49 -439 49 l-88 0 0 -285z"/>
<path d="M643 710 c-87 -52 -83 -198 6 -245 69 -35 163 -8 197 56 50 98 -17
209 -126 209 -27 0 -58 -8 -77 -20z"/>
</g>
</svg>
