<?xml version="1.0" standalone="no"?>
<!DOCTYPE svg PUBLIC "-//W3C//DTD SVG 20010904//EN"
 "http://www.w3.org/TR/2001/REC-SVG-20010904/DTD/svg10.dtd">
<svg version="1.0" xmlns="http://www.w3.org/2000/svg"
 width="177.000000pt" height="176.000000pt" viewBox="0 0 177.000000 176.000000"
 preserveAspectRatio="xMidYMid meet">
<metadata>
Created by potrace 1.16, written by Peter Selinger 2001-2019
</metadata>
<g transform="translate(0.000000,176.000000) scale(0.100000,-0.100000)"
fill="#000000" stroke="none">
<path d="M500 1451 c-69 -21 -141 -83 -176 -151 -9 -19 -19 -67 -22 -106 -4
-61 -1 -80 20 -125 35 -76 70 -114 135 -146 144 -70 318 -6 384 142 28 61 30
161 6 218 -46 107 -151 178 -261 176 -34 0 -72 -4 -86 -8z m161 -154 c92 -61
89 -189 -7 -244 -63 -36 -132 -25 -183 31 -32 34 -41 119 -17 165 37 70 139
94 207 48z"/>
<path d="M513 1290 c-69 -42 -84 -135 -33 -194 76 -86 201 -60 231 48 14 50
-3 96 -47 136 -42 36 -101 41 -151 10z"/>
<path d="M1063 1430 c-103 -52 -156 -137 -156 -250 -1 -162 122 -285 283 -284
115 1 200 55 251 159 29 59 31 71 27 137 -5 81 -22 120 -75 179 -53 59 -104
82 -193 86 -69 4 -80 2 -137 -27z m204 -130 c42 -25 63 -68 63 -129 0 -39 -6
-56 -27 -82 -30 -35 -78 -59 -118 -59 -68 0 -145 76 -145 144 0 53 41 118 85
136 37 16 109 11 142 -10z"/>
<path d="M1117 1292 c-15 -9 -37 -36 -48 -59 -55 -114 61 -229 174 -174 130
63 85 252 -60 251 -21 0 -51 -8 -66 -18z"/>
<path d="M508 856 c-93 -26 -167 -98 -199 -194 -15 -46 -7 -158 16 -202 24
-49 82 -108 130 -132 25 -14 67 -23 113 -26 66 -4 78 -2 137 27 104 52 157
136 158 251 1 187 -177 326 -355 276z m146 -149 c69 -39 94 -117 58 -187 -51
-102 -206 -108 -258 -9 -24 46 -15 131 17 165 51 56 120 68 183 31z"/>
<path d="M535 706 c-143 -62 -91 -271 62 -253 144 16 161 217 22 257 -42 12
-47 12 -84 -4z"/>
</g>
</svg>
