<?xml version="1.0" standalone="no"?>
<!DOCTYPE svg PUBLIC "-//W3C//DTD SVG 20010904//EN"
 "http://www.w3.org/TR/2001/REC-SVG-20010904/DTD/svg10.dtd">
<svg version="1.0" xmlns="http://www.w3.org/2000/svg"
 width="180.000000pt" height="204.000000pt" viewBox="0 0 180.000000 204.000000"
 preserveAspectRatio="xMidYMid meet">
<metadata>
Created by potrace 1.16, written by Peter Selinger 2001-2019
</metadata>
<g transform="translate(0.000000,204.000000) scale(0.100000,-0.100000)"
fill="#000000" stroke="none">
<path d="M300 1708 c1 -68 53 -152 126 -204 25 -18 41 -35 36 -38 -17 -10 -22
-68 -11 -109 9 -34 8 -42 -6 -49 -70 -40 -133 -130 -141 -204 l-6 -49 292 0
292 0 -5 47 c-3 26 -13 61 -22 78 -24 47 -81 106 -116 120 -22 9 -28 17 -24
29 14 33 17 91 7 119 -9 27 -7 30 30 53 66 41 127 139 128 207 l0 32 -290 0
-290 0 0 -32z m148 -54 c120 -25 293 -13 373 26 36 17 39 17 39 2 -1 -53 -70
-146 -132 -178 -28 -15 -31 -14 -54 7 -17 16 -40 24 -76 27 -44 3 -59 0 -90
-21 l-37 -26 -40 27 c-59 40 -111 118 -111 167 0 14 3 14 31 0 17 -9 61 -23
97 -31z m54 -371 c10 -9 42 -18 73 -21 43 -4 61 0 90 18 42 26 60 21 118 -29
34 -31 61 -77 77 -132 8 -27 8 -28 -13 -14 -44 28 -139 45 -257 45 -116 0
-188 -13 -247 -43 l-31 -17 10 37 c17 64 69 132 123 161 27 15 35 15 57 -5z"/>
<path d="M920 1708 c0 -66 53 -151 129 -208 32 -25 33 -26 21 -65 -9 -32 -9
-48 3 -82 l14 -42 -28 -12 c-33 -13 -90 -73 -114 -119 -9 -17 -19 -52 -22 -78
l-5 -47 292 0 292 0 -5 47 c-3 26 -13 61 -22 78 -24 47 -81 106 -116 120 -22
9 -28 17 -23 29 12 30 16 96 6 121 -8 22 -4 28 42 60 58 41 116 138 116 196
l0 34 -290 0 -290 0 0 -32z m48 -23 c110 -55 367 -58 475 -6 33 17 37 17 37 2
-1 -52 -70 -145 -132 -177 -28 -15 -31 -14 -54 7 -17 16 -40 24 -76 27 -44 3
-59 0 -90 -21 l-37 -26 -40 27 c-51 35 -79 71 -102 133 -10 27 -17 49 -15 49
1 0 17 -7 34 -15z m154 -402 c10 -9 41 -18 72 -21 43 -3 62 0 94 18 l40 23 36
-22 c59 -37 93 -84 117 -164 8 -29 8 -29 -16 -13 -44 29 -136 46 -247 46 -117
0 -193 -12 -250 -41 l-37 -19 14 47 c16 53 57 108 105 141 39 26 48 27 72 5z"/>
<path d="M300 959 c0 -71 75 -189 143 -226 16 -8 17 -14 6 -54 -9 -36 -9 -51
3 -79 l14 -35 -50 -35 c-37 -26 -59 -52 -83 -99 -18 -34 -33 -74 -33 -87 l0
-24 290 0 290 0 0 23 c0 59 -72 164 -141 204 -21 12 -27 22 -22 33 10 20 10
111 0 131 -6 12 0 19 22 29 35 14 92 73 116 120 9 17 19 52 22 78 l5 47 -291
0 -291 0 0 -26z m125 -55 c113 -30 353 -12 420 32 l25 16 -14 -46 c-18 -58
-56 -109 -108 -143 -35 -24 -42 -25 -61 -13 -77 48 -104 51 -171 15 -43 -23
-49 -24 -74 -11 -50 26 -103 96 -120 159 l-10 37 31 -17 c18 -9 55 -22 82 -29z
m162 -399 c38 0 59 6 82 23 29 21 33 22 60 8 61 -32 130 -126 131 -177 0 -15
-4 -15 -37 2 -108 52 -366 49 -472 -6 -28 -14 -31 -14 -31 0 0 49 52 127 112
167 l40 28 32 -23 c22 -16 45 -22 83 -22z"/>
</g>
</svg>
