<?xml version="1.0" standalone="no"?>
<!DOCTYPE svg PUBLIC "-//W3C//DTD SVG 20010904//EN"
 "http://www.w3.org/TR/2001/REC-SVG-20010904/DTD/svg10.dtd">
<svg version="1.0" xmlns="http://www.w3.org/2000/svg"
 width="182.000000pt" height="175.000000pt" viewBox="0 0 182.000000 175.000000"
 preserveAspectRatio="xMidYMid meet">
<metadata>
Created by potrace 1.16, written by Peter Selinger 2001-2019
</metadata>
<g transform="translate(0.000000,175.000000) scale(0.100000,-0.100000)"
fill="#000000" stroke="none">
<path d="M300 1417 c0 -19 14 -62 31 -97 33 -65 87 -114 151 -136 l31 -10 -56
-28 c-90 -44 -157 -141 -157 -228 l0 -28 290 0 c329 0 303 -8 275 87 -19 64
-88 143 -152 173 l-46 22 40 18 c87 39 154 125 169 218 l7 42 -292 0 -291 0 0
-33z m97 -39 c110 -39 319 -33 420 12 29 13 43 15 43 7 0 -31 -51 -117 -88
-148 -156 -133 -397 -62 -453 134 -7 25 -6 28 9 21 9 -4 41 -15 69 -26z m303
-239 c60 -27 107 -74 136 -134 31 -65 31 -80 1 -61 -89 59 -405 59 -494 1 -31
-21 -33 -19 -23 16 24 84 88 155 166 183 59 22 160 20 214 -5z"/>
<path d="M944 1409 c15 -92 83 -181 170 -219 l39 -18 -46 -22 c-64 -30 -133
-109 -152 -173 -28 -96 -53 -88 267 -85 257 3 283 5 286 20 2 11 -10 24 -35
37 -107 54 -364 55 -475 1 -44 -21 -46 -15 -17 50 44 99 138 160 245 160 118
0 198 -47 254 -150 19 -35 30 -48 30 -34 0 29 -52 107 -92 137 -19 15 -52 34
-74 43 l-39 17 30 11 c82 30 159 110 171 178 5 29 3 27 -19 -17 -47 -98 -128
-154 -233 -163 -116 -9 -223 51 -270 152 -34 72 -32 78 19 56 154 -68 507 -36
507 47 0 11 -53 13 -286 13 l-287 0 7 -41z"/>
<path d="M300 832 c0 -86 67 -184 155 -227 l54 -27 -61 -30 c-84 -43 -145
-131 -147 -215 l-1 -33 291 0 292 0 -7 41 c-15 91 -82 180 -164 217 l-44 20
47 23 c65 32 131 108 150 172 28 95 54 87 -275 87 l-290 0 0 -28z m43 -27 c90
-59 405 -58 496 2 23 15 24 15 17 -10 -13 -52 -26 -77 -63 -118 -142 -158
-416 -97 -471 104 -12 42 -10 43 21 22z m339 -251 c63 -21 126 -78 154 -138
34 -73 32 -78 -22 -55 -109 48 -340 48 -450 0 -26 -12 -48 -20 -50 -19 -6 7
26 83 50 116 66 95 202 136 318 96z"/>
</g>
</svg>
