<?xml version="1.0" standalone="no"?>
<!DOCTYPE svg PUBLIC "-//W3C//DTD SVG 20010904//EN"
 "http://www.w3.org/TR/2001/REC-SVG-20010904/DTD/svg10.dtd">
<svg version="1.0" xmlns="http://www.w3.org/2000/svg"
 width="180.000000pt" height="178.000000pt" viewBox="0 0 180.000000 178.000000"
 preserveAspectRatio="xMidYMid meet">
<metadata>
Created by potrace 1.16, written by Peter Selinger 2001-2019
</metadata>
<g transform="translate(0.000000,178.000000) scale(0.100000,-0.100000)"
fill="#000000" stroke="none">
<path d="M300 1447 c0 -47 55 -152 96 -183 28 -22 34 -33 34 -63 0 -30 -8 -44
-41 -76 -48 -46 -89 -126 -89 -172 l0 -33 291 0 292 0 -6 45 c-9 60 -36 111
-86 160 -57 54 -57 95 -1 147 48 46 78 103 87 163 l6 45 -292 0 -291 0 0 -33z
m36 -16 c5 -5 25 -14 45 -20 40 -13 49 -34 49 -113 0 -40 0 -40 -22 -26 -13 8
-37 38 -54 67 -42 68 -53 124 -18 92z m510 -56 c-9 -23 -33 -60 -54 -81 l-37
-38 -3 49 c-5 74 2 90 48 105 23 7 44 18 47 24 15 24 14 -19 -1 -59z m-348
-72 c3 -78 2 -81 -18 -76 -18 5 -20 13 -20 85 0 70 2 79 18 76 14 -3 17 -16
20 -85z m222 12 c0 -63 -3 -76 -19 -85 -11 -5 -23 -10 -26 -10 -7 0 4 149 12
163 2 4 11 7 19 7 11 0 14 -16 14 -75z m-150 -20 c0 -78 -2 -85 -20 -85 -18 0
-20 7 -20 85 0 78 2 85 20 85 18 0 20 -7 20 -85z m70 16 c0 -38 3 -76 6 -85 5
-12 0 -16 -20 -16 -26 0 -26 0 -26 85 0 78 2 85 20 85 18 0 20 -7 20 -69z
m-140 -108 c6 -6 -22 -23 -37 -23 -7 0 -13 9 -13 21 0 16 4 19 23 13 12 -3 24
-8 27 -11z m217 -19 c-2 -2 -15 0 -28 5 l-24 9 25 10 c19 7 26 6 28 -5 2 -8 2
-17 -1 -19z m-147 -79 c0 -84 0 -85 -25 -85 -25 0 -25 1 -25 78 0 84 3 92 32
92 16 0 18 -9 18 -85z m78 -2 l3 -83 -31 0 -30 0 0 69 c0 85 6 103 34 99 19
-3 21 -10 24 -85z m-148 -8 c0 -84 0 -85 -25 -85 -24 0 -25 2 -25 73 0 67 2
75 23 85 12 6 23 11 25 11 1 1 2 -37 2 -84z m203 73 c11 -9 18 -36 23 -85 l6
-73 -31 0 -31 0 0 85 c0 47 4 85 8 85 5 0 16 -6 25 -12z m-273 -95 l0 -68 -55
-21 c-62 -24 -66 -20 -40 44 13 30 80 112 92 112 2 0 3 -30 3 -67z m410 -38
c34 -70 29 -76 -35 -50 -31 12 -58 25 -61 28 -3 3 -3 33 1 67 l7 62 34 -33
c19 -18 43 -52 54 -74z"/>
<path d="M923 1435 c9 -60 36 -112 86 -162 57 -56 57 -94 0 -148 -50 -49 -77
-100 -86 -160 l-6 -45 292 0 291 0 0 33 c0 46 -41 126 -89 172 -57 55 -57 91
2 148 49 49 78 104 85 164 l5 43 -293 0 -293 0 6 -45z m90 -29 l37 -15 0 -66
c0 -64 -1 -66 -20 -52 -40 28 -90 112 -90 152 0 12 4 13 18 5 9 -5 34 -16 55
-24z m442 -51 c-24 -50 -72 -102 -83 -91 -2 3 -1 34 2 69 7 64 7 64 46 76 22
6 43 17 47 24 5 8 9 7 11 -6 2 -10 -8 -43 -23 -72z m-337 -53 c3 -81 2 -83
-18 -72 -17 9 -20 20 -20 86 0 66 2 75 18 72 14 -3 17 -16 20 -86z m222 8 c0
-44 -4 -80 -9 -80 -5 0 -16 -3 -24 -6 -13 -5 -15 5 -11 68 7 89 9 98 29 98 12
0 15 -15 15 -80z m-150 -15 c0 -78 -2 -85 -20 -85 -18 0 -20 7 -20 85 0 78 2
85 20 85 18 0 20 -7 20 -85z m74 33 c12 -101 9 -118 -19 -118 -25 0 -25 1 -25
85 0 76 2 85 19 85 15 0 19 -10 25 -52z m-144 -125 c6 -5 -22 -23 -37 -23 -6
0 -11 9 -10 20 1 15 6 19 22 14 11 -4 22 -8 25 -11z m217 -19 c-2 -2 -15 0
-28 5 l-24 9 25 10 c19 7 26 6 28 -5 2 -8 2 -17 -1 -19z m-147 -56 c0 -35 3
-73 6 -85 6 -20 3 -23 -25 -23 -31 0 -31 0 -31 54 0 81 9 116 31 116 17 0 19
-8 19 -62z m78 -25 l3 -83 -31 0 c-27 0 -30 3 -30 33 0 17 3 56 7 85 5 47 8
53 27 50 19 -3 21 -10 24 -85z m-146 -85 c-2 -5 -14 -8 -28 -8 -23 0 -24 2
-24 69 0 61 3 72 23 86 l22 16 6 -78 c3 -43 3 -81 1 -85z m201 149 c13 -9 19
-33 24 -85 l6 -72 -32 0 -31 0 0 85 c0 47 4 85 8 85 5 0 16 -6 25 -13z m-272
-95 l3 -64 -57 -23 c-63 -25 -68 -21 -43 39 13 31 85 120 92 114 1 -2 4 -32 5
-66z m410 -37 c32 -69 28 -76 -36 -51 l-55 21 0 69 0 70 36 -35 c20 -18 45
-52 55 -74z"/>
<path d="M300 828 c0 -47 41 -127 89 -173 57 -55 57 -91 -2 -148 -49 -49 -78
-104 -85 -164 l-5 -43 293 0 293 0 -6 45 c-9 60 -39 117 -87 164 -56 54 -55
92 1 146 50 49 77 100 86 160 l6 45 -292 0 -291 0 0 -32z m124 -87 c3 -20 6
-52 6 -70 l0 -35 -36 35 c-37 34 -73 100 -74 131 0 15 5 14 49 -4 43 -19 50
-25 55 -57z m417 6 c-11 -24 -37 -58 -56 -77 l-35 -34 0 60 c0 32 4 64 8 70 4
6 27 20 52 31 55 24 61 13 31 -50z m-343 -60 c3 -71 1 -78 -15 -75 -15 3 -18
16 -21 81 -3 71 -1 78 15 75 15 -3 18 -16 21 -81z m222 8 c0 -65 -3 -76 -21
-85 -11 -7 -23 -10 -25 -7 -3 2 -2 41 2 86 6 70 9 81 25 81 17 0 19 -9 19 -75z
m-150 -20 c0 -78 -2 -85 -20 -85 -18 0 -20 7 -20 85 0 78 2 85 20 85 18 0 20
-7 20 -85z m70 10 c0 -41 1 -78 3 -82 1 -5 -8 -9 -20 -11 -22 -3 -23 -1 -23
82 0 79 2 86 20 86 18 0 20 -7 20 -75z m-150 -95 c17 -10 14 -15 -17 -24 -19
-6 -23 -3 -23 13 0 22 16 27 40 11z m230 -10 c0 -14 -5 -18 -17 -13 -33 12
-37 16 -17 24 30 12 34 10 34 -11z m-150 -95 c0 -84 0 -85 -25 -85 -25 0 -25
1 -25 78 0 84 3 92 32 92 16 0 18 -9 18 -85z m80 0 l0 -85 -30 0 -30 0 0 69
c0 85 6 101 36 101 23 0 24 -2 24 -85z m-150 -10 c0 -84 0 -85 -25 -85 -24 0
-25 2 -25 75 0 76 3 83 48 94 1 1 2 -37 2 -84z m202 73 c11 -9 19 -37 23 -85
6 -62 5 -73 -8 -73 -42 0 -47 10 -47 91 0 80 4 89 32 67z m-272 -96 l0 -69
-42 -12 c-24 -7 -49 -18 -55 -23 -25 -20 -14 35 17 89 24 42 62 83 77 83 2 0
3 -31 3 -68z m380 15 c23 -29 50 -89 50 -111 0 -12 -7 -11 -40 5 -21 10 -46
19 -54 19 -24 0 -28 17 -21 80 6 56 8 59 26 47 10 -7 28 -25 39 -40z"/>
</g>
</svg>
