<?xml version="1.0" standalone="no"?>
<!DOCTYPE svg PUBLIC "-//W3C//DTD SVG 20010904//EN"
 "http://www.w3.org/TR/2001/REC-SVG-20010904/DTD/svg10.dtd">
<svg version="1.0" xmlns="http://www.w3.org/2000/svg"
 width="126.000000pt" height="158.000000pt" viewBox="0 0 126.000000 158.000000"
 preserveAspectRatio="xMidYMid meet">
<metadata>
Created by potrace 1.16, written by Peter Selinger 2001-2019
</metadata>
<g transform="translate(0.000000,158.000000) scale(0.100000,-0.100000)"
fill="#000000" stroke="none">
<path d="M302 1135 c3 -125 5 -148 18 -150 9 -2 76 1 150 6 151 10 278 31 360
60 30 10 72 19 95 20 22 0 33 3 25 6 -8 2 -21 7 -29 9 -11 4 -12 7 -3 16 22
22 13 56 -20 82 l-33 26 50 1 c37 1 24 5 -55 14 -58 8 -141 21 -185 29 -44 9
-146 19 -228 23 l-148 6 3 -148z m328 110 l75 -13 -143 -1 c-131 -1 -143 -3
-140 -18 3 -17 20 -18 213 -15 198 3 212 2 243 -17 42 -27 49 -47 26 -72 -18
-20 -27 -21 -249 -17 -215 3 -230 2 -233 -15 -3 -17 8 -18 196 -15 111 2 195
0 189 -4 -37 -20 -306 -58 -414 -58 l-45 0 25 30 c46 54 44 153 -4 215 l-22
27 104 -7 c57 -4 138 -13 179 -20z"/>
<path d="M300 787 c0 -80 3 -148 8 -151 4 -2 74 0 156 5 152 9 314 37 379 64
20 8 56 16 79 16 30 2 35 3 16 6 -28 4 -36 17 -18 28 21 13 10 54 -22 79 l-33
26 50 1 c37 1 24 5 -55 14 -58 8 -141 21 -185 29 -44 9 -146 19 -227 23 l-148
6 0 -146z m215 122 c193 -17 210 -27 47 -28 -131 -1 -143 -3 -140 -18 3 -17
20 -18 213 -15 198 3 212 2 243 -17 42 -27 49 -47 26 -72 -18 -20 -27 -20
-249 -17 -215 3 -230 2 -233 -15 -3 -17 8 -18 196 -15 111 2 195 0 189 -4 -37
-20 -306 -58 -414 -58 l-45 0 26 30 c46 56 44 152 -5 214 l-20 26 23 0 c13 0
77 -5 143 -11z"/>
<path d="M306 593 c-3 -4 -6 -66 -6 -140 l0 -133 30 0 c23 0 35 7 50 33 40 65
34 153 -13 206 l-22 24 115 -8 c63 -4 149 -13 190 -20 l75 -14 -150 2 c-139 2
-150 1 -150 -16 0 -17 13 -18 210 -18 194 1 212 0 243 -19 41 -25 49 -46 27
-70 -17 -19 -28 -19 -251 -13 l-234 6 0 -22 0 -23 200 3 c210 4 217 0 52 -31
-84 -16 -91 -18 -47 -19 28 0 91 11 140 25 50 14 114 28 143 31 49 5 65 23 19
23 -16 0 -18 3 -9 12 21 21 13 55 -19 82 l-31 26 49 1 c43 1 45 2 18 9 -16 4
-52 8 -80 9 -27 1 -93 10 -145 21 -52 11 -140 22 -195 25 -55 3 -123 8 -151
10 -29 2 -55 1 -58 -2z"/>
</g>
</svg>
