<?xml version="1.0" standalone="no"?>
<!DOCTYPE svg PUBLIC "-//W3C//DTD SVG 20010904//EN"
 "http://www.w3.org/TR/2001/REC-SVG-20010904/DTD/svg10.dtd">
<svg version="1.0" xmlns="http://www.w3.org/2000/svg"
 width="151.000000pt" height="125.000000pt" viewBox="0 0 151.000000 125.000000"
 preserveAspectRatio="xMidYMid meet">
<metadata>
Created by potrace 1.16, written by Peter Selinger 2001-2019
</metadata>
<g transform="translate(0.000000,125.000000) scale(0.100000,-0.100000)"
fill="#000000" stroke="none">
<path d="M300 806 l0 -144 73 -4 c39 -2 133 -4 207 -4 l135 1 3 148 3 147
-211 0 -210 0 0 -144z m400 -1 l0 -135 -135 0 -135 0 0 135 0 135 135 0 135 0
0 -135z"/>
<path d="M790 806 l0 -144 133 -7 c72 -3 166 -5 207 -3 l75 3 3 148 3 147
-211 0 -210 0 0 -144z m410 -1 l0 -135 -140 0 -140 0 0 128 c0 71 3 132 7 135
3 4 66 7 140 7 l133 0 0 -135z"/>
<path d="M368 592 l-68 -3 0 -134 0 -135 65 0 65 0 0 130 0 130 135 0 135 0 0
-130 c0 -82 4 -130 10 -130 7 0 10 48 8 138 l-3 137 -140 0 c-77 0 -170 -1
-207 -3z"/>
<path d="M858 593 l-68 -4 0 -134 0 -135 65 0 65 0 0 130 0 130 140 0 139 0 4
-132 3 -133 -1 140 0 140 -140 1 c-77 0 -170 -1 -207 -3z"/>
</g>
</svg>
