<?xml version="1.0" standalone="no"?>
<!DOCTYPE svg PUBLIC "-//W3C//DTD SVG 20010904//EN"
 "http://www.w3.org/TR/2001/REC-SVG-20010904/DTD/svg10.dtd">
<svg version="1.0" xmlns="http://www.w3.org/2000/svg"
 width="89.000000pt" height="186.000000pt" viewBox="0 0 89.000000 186.000000"
 preserveAspectRatio="xMidYMid meet">
<metadata>
Created by potrace 1.16, written by Peter Selinger 2001-2019
</metadata>
<g transform="translate(0.000000,186.000000) scale(0.100000,-0.100000)"
fill="#000000" stroke="none">
<path d="M367 1490 l6 -70 -37 0 c-35 0 -36 -1 -36 -38 0 -50 22 -123 49 -160
28 -40 27 -42 -14 -42 -34 0 -35 -1 -35 -38 0 -51 25 -133 50 -165 27 -34 26
-37 -15 -37 -34 0 -35 -1 -35 -38 0 -51 25 -133 50 -165 27 -34 26 -37 -15
-37 -34 0 -35 -1 -35 -38 0 -51 25 -133 50 -165 15 -19 20 -41 21 -94 0 -37 4
-77 8 -87 7 -18 8 -18 14 5 4 13 7 47 7 75 l0 51 38 -6 37 -6 3 -55 c5 -111
29 -93 31 24 1 46 6 64 26 88 29 34 55 115 55 170 0 38 0 38 -41 38 l-41 0 26
30 c29 36 56 117 56 172 0 38 0 38 -41 38 l-41 0 26 30 c29 36 56 117 56 172
0 38 0 38 -41 38 l-40 0 26 35 c31 40 55 113 55 167 0 38 0 38 -40 38 l-40 0
0 70 c0 65 -2 70 -21 70 -21 0 -22 -3 -15 -70 l6 -70 -40 0 -40 0 0 70 c0 63
-2 70 -19 70 -18 0 -19 -5 -14 -70z m13 -139 c7 -9 120 -7 120 2 0 4 6 7 13 7
6 0 25 7 40 15 l28 14 -7 -37 c-3 -20 -18 -62 -32 -92 l-26 -55 -4 33 c-2 25
-8 32 -20 30 -13 -3 -17 -14 -17 -46 0 -42 0 -42 -37 -42 l-38 0 0 46 c0 38
-3 45 -17 42 -10 -2 -17 -11 -17 -21 1 -9 0 -17 -3 -17 -8 0 -41 84 -47 122
l-7 37 33 -16 c18 -9 35 -19 38 -22z m-3 -270 l10 -36 8 33 c7 29 11 32 46 32
35 0 39 -3 39 -24 0 -38 17 -40 24 -3 5 25 14 37 41 49 l35 16 -6 -37 c-3 -20
-18 -61 -32 -91 -24 -51 -26 -53 -30 -27 -2 20 -8 27 -20 25 -13 -3 -17 -13
-16 -41 1 -37 1 -37 -37 -37 -39 0 -39 0 -39 41 0 33 -3 40 -17 37 -10 -2 -17
-11 -15 -19 3 -12 1 -12 -12 1 -12 12 -46 115 -46 142 0 4 13 0 29 -9 18 -11
32 -30 38 -52z m-7 -228 c0 -12 3 -29 6 -38 5 -13 8 -14 15 -3 5 7 9 23 9 36
0 19 5 22 40 22 38 0 40 -2 40 -29 0 -45 19 -47 26 -4 5 31 13 41 41 55 l34
16 -6 -31 c-13 -64 -27 -104 -46 -128 l-19 -24 0 28 c0 21 -5 27 -21 27 -19 0
-21 -5 -17 -40 l4 -40 -38 0 c-38 0 -38 0 -38 41 0 33 -3 40 -17 37 -10 -2
-17 -10 -15 -16 1 -7 -2 -12 -7 -12 -10 0 -34 69 -46 127 l-7 33 31 -18 c20
-11 31 -25 31 -39z m6 -258 l7 -40 10 38 c10 35 13 37 49 37 33 0 38 -3 38
-22 0 -13 4 -29 9 -37 6 -10 11 -2 16 25 5 32 13 42 41 56 l35 16 -6 -31 c-12
-60 -36 -125 -51 -137 -11 -10 -14 -9 -14 4 0 10 -8 16 -21 16 -18 0 -21 -5
-17 -31 5 -35 -8 -45 -47 -35 -20 5 -25 13 -25 37 0 28 -3 31 -24 25 -22 -5
-26 -1 -39 42 -9 26 -19 62 -22 79 l-7 33 30 -17 c23 -13 32 -28 38 -58z"/>
</g>
</svg>
