<?xml version="1.0" standalone="no"?>
<!DOCTYPE svg PUBLIC "-//W3C//DTD SVG 20010904//EN"
 "http://www.w3.org/TR/2001/REC-SVG-20010904/DTD/svg10.dtd">
<svg version="1.0" xmlns="http://www.w3.org/2000/svg"
 width="160.000000pt" height="119.000000pt" viewBox="0 0 160.000000 119.000000"
 preserveAspectRatio="xMidYMid meet">
<metadata>
Created by potrace 1.16, written by Peter Selinger 2001-2019
</metadata>
<g transform="translate(0.000000,119.000000) scale(0.100000,-0.100000)"
fill="#000000" stroke="none">
<path d="M368 858 c-3 -31 -5 -33 -35 -30 -30 3 -33 1 -33 -23 0 -25 3 -27 35
-23 34 4 35 3 35 -33 0 -37 0 -38 -35 -32 -33 5 -35 4 -35 -21 0 -23 4 -26 35
-26 l35 0 0 -76 0 -77 -35 6 c-32 5 -35 4 -35 -19 0 -21 5 -24 35 -24 34 0 35
-1 35 -36 0 -36 0 -37 -35 -31 -32 5 -35 4 -35 -19 0 -21 5 -24 35 -24 33 0
35 -2 35 -35 0 -32 2 -35 31 -35 61 0 115 87 102 166 -5 31 -9 35 -29 31 -13
-2 -24 0 -24 4 0 5 10 9 22 9 21 0 21 1 -7 30 l-29 30 25 0 c36 0 156 -27 176
-40 15 -9 13 -10 -12 -8 -31 3 -35 0 -35 -28 0 -12 12 -15 66 -13 70 2 87 -7
82 -46 -3 -18 -11 -20 -75 -21 -40 0 -73 -3 -73 -7 0 -4 0 -14 0 -22 0 -11 12
-15 48 -15 34 0 43 -3 32 -10 -19 -13 -107 -39 -168 -51 -43 -7 -41 -8 21 -5
54 3 84 12 142 40 40 20 80 36 88 36 9 0 19 4 22 10 3 5 -1 10 -9 10 -11 0
-16 9 -16 29 0 16 -3 36 -6 44 -3 9 3 17 18 21 20 6 16 9 -27 21 -27 7 -76 23
-109 34 -32 12 -87 25 -122 28 -35 3 -64 9 -64 13 0 4 29 10 64 13 69 6 169
38 195 61 9 7 31 17 49 21 27 6 31 9 19 18 -8 7 -17 29 -20 51 -5 32 -3 39 13
43 30 8 13 23 -26 23 -19 0 -53 9 -75 21 -52 26 -158 49 -231 49 l-57 0 -3
-32z m205 -5 c72 -16 97 -31 43 -25 -31 4 -33 2 -29 -22 5 -26 6 -26 69 -20
61 6 64 6 75 -19 23 -50 7 -61 -75 -53 l-73 7 5 -27 c5 -25 7 -26 56 -20 l51
6 -38 -21 c-39 -21 -151 -49 -196 -49 l-25 0 27 28 c33 34 49 85 41 129 -5 27
-11 33 -33 34 l-26 1 25 7 25 7 -33 32 -33 31 38 -5 c21 -3 68 -12 106 -21z
m-90 -160 c-7 -2 -19 -2 -25 0 -7 3 -2 5 12 5 14 0 19 -2 13 -5z m-11 -305
c-9 -9 -15 -9 -24 0 -9 9 -7 12 12 12 19 0 21 -3 12 -12z"/>
<path d="M895 859 c0 -33 -1 -34 -37 -31 -35 3 -38 2 -38 -23 0 -25 3 -26 38
-23 36 3 37 2 37 -32 0 -34 -1 -35 -37 -32 -35 3 -38 1 -38 -22 0 -24 4 -26
39 -26 l39 0 0 -76 0 -76 -39 6 c-37 6 -39 5 -39 -19 0 -23 4 -25 40 -25 39 0
40 -1 40 -36 l0 -37 -40 6 c-37 5 -40 3 -40 -19 0 -21 4 -24 40 -24 39 0 40
-1 40 -35 0 -31 3 -35 26 -35 58 0 115 98 99 171 -5 23 -12 29 -33 30 -26 1
-26 1 -4 8 l24 6 -26 28 c-25 27 -25 27 -3 27 35 0 155 -28 174 -40 15 -9 12
-10 -14 -6 -30 5 -33 3 -33 -20 0 -25 1 -25 67 -23 60 2 68 0 76 -19 20 -43 3
-55 -73 -50 -67 4 -70 3 -70 -19 0 -21 5 -23 48 -24 l47 -1 -40 -18 c-22 -10
-71 -25 -110 -33 -65 -14 -67 -15 -27 -16 49 -1 153 31 193 60 15 10 39 19 53
19 14 0 26 5 26 10 0 6 -7 10 -15 10 -9 0 -14 9 -13 28 1 15 -2 35 -6 45 -6
13 -3 17 13 17 38 0 22 16 -26 27 -27 6 -75 21 -108 33 -33 12 -86 25 -117 27
-64 6 -80 23 -22 23 51 0 152 28 199 54 22 13 53 26 69 30 26 6 27 8 11 20
-10 7 -15 18 -11 24 3 6 2 22 -3 36 -9 21 -7 26 10 31 30 10 12 25 -30 25 -20
0 -41 4 -46 9 -22 21 -141 52 -223 57 l-87 7 0 -34z m223 -10 c50 -14 64 -27
21 -21 -26 4 -29 1 -29 -22 l0 -27 63 7 c70 7 91 -5 85 -48 -3 -22 -7 -23 -75
-21 -72 2 -73 2 -73 -24 0 -24 1 -25 52 -19 34 4 49 3 43 -3 -17 -16 -127 -49
-190 -56 -57 -7 -59 -6 -38 9 31 23 57 97 49 141 -6 29 -11 35 -34 36 -26 1
-26 1 -3 8 l24 6 -26 31 -26 30 57 -7 c31 -4 76 -13 100 -20z m-115 -156 c-7
-2 -19 -2 -25 0 -7 3 -2 5 12 5 14 0 19 -2 13 -5z m-3 -303 c-19 -13 -30 -13
-30 0 0 6 10 10 23 10 18 0 19 -2 7 -10z"/>
</g>
</svg>
