<?xml version="1.0" standalone="no"?>
<!DOCTYPE svg PUBLIC "-//W3C//DTD SVG 20010904//EN"
 "http://www.w3.org/TR/2001/REC-SVG-20010904/DTD/svg10.dtd">
<svg version="1.0" xmlns="http://www.w3.org/2000/svg"
 width="192.000000pt" height="125.000000pt" viewBox="0 0 192.000000 125.000000"
 preserveAspectRatio="xMidYMid meet">
<metadata>
Created by potrace 1.16, written by Peter Selinger 2001-2019
</metadata>
<g transform="translate(0.000000,125.000000) scale(0.100000,-0.100000)"
fill="#000000" stroke="none">
<path d="M380 916 c0 -24 5 -36 18 -40 9 -2 -1 -2 -23 1 -22 2 -48 7 -57 10
-14 3 -18 -2 -18 -21 0 -23 4 -26 39 -26 38 0 39 -1 43 -39 2 -23 -1 -37 -7
-36 -5 2 -25 6 -42 9 -30 5 -33 3 -33 -20 0 -24 3 -26 43 -23 l42 4 -3 -36 -4
-37 134 -7 c73 -4 167 -5 208 -3 l75 3 3 37 3 36 60 7 c32 4 61 10 64 15 5 8
-52 20 -97 20 -25 0 -28 4 -28 34 0 35 0 35 58 42 31 3 62 9 67 13 12 7 -36
18 -87 20 -36 1 -38 2 -38 36 l0 35 -210 0 -210 0 0 -34z m410 -7 c0 -29 -2
-30 -30 -24 -27 6 -30 4 -30 -19 0 -22 4 -26 30 -26 28 0 30 -3 30 -36 0 -35
-1 -36 -31 -30 -28 5 -30 4 -27 -22 3 -23 7 -27 31 -24 24 3 27 0 27 -27 l0
-31 -140 0 -140 0 0 128 c0 71 3 132 7 135 3 4 66 7 140 7 l133 0 0 -31z
m-310 -43 c0 -2 -7 -6 -15 -10 -8 -3 -15 -1 -15 4 0 6 7 10 15 10 8 0 15 -2
15 -4z m-8 -118 c-9 -9 -15 -9 -24 0 -9 9 -7 12 12 12 19 0 21 -3 12 -12z"/>
<path d="M1075 940 c-3 -5 -4 -14 -1 -19 4 -5 3 -17 0 -26 -6 -14 -15 -16 -45
-11 -37 6 -39 5 -39 -19 0 -22 4 -25 39 -25 38 0 39 -1 43 -38 l3 -39 -35 8
c-50 12 -50 12 -50 -17 0 -24 2 -26 43 -23 l42 4 0 -39 0 -38 210 -2 210 -1 3
37 3 36 60 7 c32 4 59 11 59 15 0 5 -27 12 -60 16 -60 7 -60 7 -60 40 0 33 0
33 60 40 33 4 60 10 60 15 0 4 -27 11 -60 15 l-60 7 0 33 0 34 -209 0 c-129 0
-212 -4 -216 -10z m405 -31 c0 -28 -2 -31 -25 -25 -22 6 -25 3 -25 -19 0 -20
5 -25 25 -25 22 0 25 -4 25 -36 0 -34 -2 -36 -25 -30 -22 6 -25 3 -25 -19 0
-20 5 -25 25 -25 21 0 25 -5 25 -30 l0 -30 -135 0 -135 0 0 135 0 135 135 0
135 0 0 -31z m-300 -43 c0 -9 -30 -14 -35 -6 -4 6 3 10 14 10 12 0 21 -2 21
-4z m-10 -116 c-19 -13 -30 -13 -30 0 0 6 10 10 23 10 18 0 19 -2 7 -10z"/>
<path d="M448 593 l-68 -4 0 -35 0 -36 -40 7 c-38 6 -40 6 -40 -20 0 -26 2
-27 40 -23 l40 4 0 -38 c0 -20 6 -38 13 -41 12 -4 -14 0 -64 10 -26 5 -29 3
-29 -22 0 -26 2 -27 40 -23 38 3 40 2 40 -24 0 -28 1 -28 65 -28 l65 0 0 130
0 130 140 0 140 0 0 -25 c0 -21 -5 -25 -30 -25 -25 0 -30 -4 -30 -25 0 -21 5
-25 30 -25 28 0 30 -3 30 -35 0 -33 -1 -34 -30 -28 -27 5 -30 3 -30 -21 0 -22
4 -26 30 -26 26 0 30 -4 31 -27 2 -28 2 -28 6 -3 6 32 19 40 68 40 51 0 77 15
43 23 -12 4 -42 7 -66 7 l-43 0 3 38 c3 36 5 37 43 40 22 1 51 5 65 8 23 6 24
7 5 14 -11 5 -41 9 -67 9 -48 1 -48 1 -48 35 0 22 -6 36 -16 40 -16 6 -209 5
-336 -1z m35 -90 c-7 -2 -19 -2 -25 0 -7 3 -2 5 12 5 14 0 19 -2 13 -5z m0
-110 c-7 -2 -19 -2 -25 0 -7 3 -2 5 12 5 14 0 19 -2 13 -5z"/>
<path d="M1142 592 l-73 -3 3 -32 c3 -32 3 -32 -40 -29 -40 3 -42 2 -42 -23 0
-26 2 -27 43 -24 l43 4 -1 -35 c0 -35 -1 -35 -43 -32 -40 3 -42 2 -42 -23 0
-26 2 -27 43 -24 42 4 43 3 39 -23 l-4 -28 71 0 71 0 0 130 0 130 135 0 135 0
0 -25 c0 -20 -5 -25 -25 -25 -20 0 -25 -5 -25 -25 0 -20 5 -25 25 -25 22 0 25
-4 25 -34 0 -30 -2 -33 -25 -28 -22 4 -25 1 -25 -22 0 -21 5 -26 25 -26 20 0
25 -5 25 -25 0 -34 18 -32 22 3 3 24 7 27 48 30 25 1 52 5 60 8 23 9 -16 22
-67 23 l-43 1 0 40 0 40 48 0 c53 0 85 13 57 24 -9 3 -36 6 -60 6 -43 0 -44 0
-47 38 l-3 37 -140 0 c-77 0 -173 -1 -213 -3z m-35 -78 c-3 -3 -12 -4 -19 -1
-8 3 -5 6 6 6 11 1 17 -2 13 -5z m66 -11 c-7 -2 -19 -2 -25 0 -7 3 -2 5 12 5
14 0 19 -2 13 -5z m-66 -99 c-3 -3 -12 -4 -19 -1 -8 3 -5 6 6 6 11 1 17 -2 13
-5z m66 -11 c-7 -2 -19 -2 -25 0 -7 3 -2 5 12 5 14 0 19 -2 13 -5z"/>
</g>
</svg>
