<?xml version="1.0" standalone="no"?>
<!DOCTYPE svg PUBLIC "-//W3C//DTD SVG 20010904//EN"
 "http://www.w3.org/TR/2001/REC-SVG-20010904/DTD/svg10.dtd">
<svg version="1.0" xmlns="http://www.w3.org/2000/svg"
 width="143.000000pt" height="124.000000pt" viewBox="0 0 143.000000 124.000000"
 preserveAspectRatio="xMidYMid meet">
<metadata>
Created by potrace 1.16, written by Peter Selinger 2001-2019
</metadata>
<g transform="translate(0.000000,124.000000) scale(0.100000,-0.100000)"
fill="#000000" stroke="none">
<path d="M300 795 l0 -145 62 0 c34 0 101 10 149 21 l87 22 55 -32 c56 -32 72
-38 63 -22 -3 4 29 11 72 14 42 3 106 13 142 22 l65 18 63 -38 c79 -47 93 -39
18 11 -31 20 -56 40 -56 44 0 3 11 17 25 30 87 82 -47 182 -265 197 l-85 6 3
-142 c2 -77 0 -141 -3 -141 -4 0 -21 10 -38 22 -18 12 -33 22 -35 24 -2 1 11
15 28 32 53 53 35 104 -52 148 -61 31 -162 54 -240 54 l-58 0 0 -145z m205
109 c33 -8 80 -27 105 -42 41 -25 45 -31 45 -66 0 -30 -6 -43 -26 -58 l-27
-20 -91 61 c-50 34 -91 68 -91 75 0 8 -13 28 -30 44 l-30 30 43 -5 c23 -3 69
-11 102 -19z m373 4 c69 -13 112 -31 151 -64 39 -33 40 -62 1 -99 l-29 -28
-90 59 c-50 32 -91 64 -91 69 0 6 -14 27 -31 48 l-30 37 33 -6 c18 -3 57 -10
86 -16z m-368 -167 l65 -35 -55 -16 c-30 -10 -78 -20 -106 -23 l-51 -6 29 29
c15 16 31 43 34 60 4 17 9 29 13 28 3 -2 35 -19 71 -37z m428 -19 c35 -23 12
-32 -143 -57 l-40 -7 27 29 c15 16 33 43 39 61 l11 31 41 -21 c23 -11 52 -28
65 -36z"/>
<path d="M710 623 c-13 -3 -15 -25 -12 -143 2 -77 1 -140 -3 -140 -3 0 -21 10
-39 22 l-34 22 29 34 c37 42 37 73 -1 111 -49 49 -190 91 -307 91 l-43 0 0
-150 0 -150 68 6 c37 3 103 14 148 25 l80 19 54 -29 c30 -16 58 -27 63 -24 4
2 27 7 50 9 82 8 123 15 173 31 l52 16 56 -33 c32 -18 59 -30 62 -27 6 6 -76
67 -90 67 -6 0 4 13 22 29 78 72 11 158 -148 192 -65 13 -162 25 -180 22z
m-163 -53 c74 -26 113 -59 113 -96 0 -27 -34 -74 -53 -74 -20 0 -176 105 -182
123 -4 9 -18 31 -33 49 l-27 31 60 -6 c33 -4 88 -16 122 -27z m378 5 c103 -31
151 -81 126 -129 -7 -13 -23 -29 -36 -36 -20 -11 -32 -6 -109 46 -47 31 -86
60 -86 64 0 4 -12 24 -26 45 l-25 38 53 -6 c29 -4 76 -13 103 -22z m-383 -175
l31 -19 -54 -15 c-30 -8 -78 -18 -107 -21 l-52 -7 30 30 c17 17 33 44 36 61
l6 30 40 -20 c21 -11 53 -28 70 -39z m407 -15 c2 -11 -64 -30 -142 -40 l-52
-7 27 27 c15 15 32 42 38 61 l12 34 58 -32 c31 -18 58 -37 59 -43z"/>
</g>
</svg>
