<?xml version="1.0" standalone="no"?>
<!DOCTYPE svg PUBLIC "-//W3C//DTD SVG 20010904//EN"
 "http://www.w3.org/TR/2001/REC-SVG-20010904/DTD/svg10.dtd">
<svg version="1.0" xmlns="http://www.w3.org/2000/svg"
 width="141.000000pt" height="123.000000pt" viewBox="0 0 141.000000 123.000000"
 preserveAspectRatio="xMidYMid meet">
<metadata>
Created by potrace 1.16, written by Peter Selinger 2001-2019
</metadata>
<g transform="translate(0.000000,123.000000) scale(0.100000,-0.100000)"
fill="#000000" stroke="none">
<path d="M300 785 l0 -148 93 6 c123 8 204 34 255 80 l22 20 0 -54 0 -55 88 8
c120 9 213 40 257 84 19 19 35 41 35 49 0 7 12 15 28 18 l27 4 -33 8 c-18 4
-37 15 -42 24 -24 46 -192 101 -304 101 l-56 0 0 -51 0 -50 -35 26 c-48 37
-145 65 -247 72 l-88 6 0 -148z m202 109 c65 -15 128 -45 147 -68 12 -14 5
-16 -65 -16 -122 0 -150 7 -165 42 -6 16 -23 38 -37 49 l-26 20 45 -6 c24 -4
70 -13 101 -21z m373 -1 c63 -15 145 -57 145 -73 0 -11 -134 -13 -192 -4 -22
4 -38 12 -38 20 0 7 -14 29 -30 48 l-30 34 42 -5 c24 -3 70 -12 103 -20z
m-205 -111 c0 -16 -31 -51 -63 -71 -35 -21 -119 -45 -199 -56 l-48 -6 30 30
c17 16 33 44 36 60 8 40 5 39 207 49 20 1 37 -1 37 -6z m360 -3 c0 -54 -97
-100 -259 -125 l-45 -6 31 31 c17 17 34 44 38 61 7 34 19 38 110 43 33 2 75 4
93 5 17 1 32 -3 32 -9z"/>
<path d="M305 591 c-3 -2 -5 -69 -5 -149 l0 -145 88 6 c102 7 199 35 247 72
l35 26 0 -50 0 -51 58 0 c134 1 281 56 310 116 9 20 23 34 34 34 10 0 18 5 18
10 0 6 -8 10 -19 10 -10 0 -35 16 -55 35 -46 43 -140 74 -258 83 l-88 8 0 -55
0 -54 -22 20 c-30 27 -59 41 -119 59 -51 15 -216 34 -224 25z m209 -37 c60
-15 113 -42 136 -69 11 -13 6 -15 -36 -15 -27 0 -79 3 -116 6 -62 6 -68 9 -79
36 -6 16 -23 38 -38 49 l-26 21 50 -7 c28 -4 77 -13 109 -21z m353 4 c56 -12
144 -56 151 -75 4 -15 -56 -17 -157 -7 -55 6 -64 10 -77 35 -8 16 -24 38 -37
50 l-22 21 45 -7 c25 -3 68 -11 97 -17z m-197 -116 c0 -18 -34 -54 -71 -72
-41 -21 -123 -44 -197 -54 l-44 -7 27 23 c14 13 32 41 39 63 l14 40 64 6 c101
9 168 10 168 1z m360 -7 c0 -48 -117 -101 -258 -118 l-42 -5 30 35 c17 19 33
48 37 63 5 28 8 29 67 33 151 8 166 8 166 -8z"/>
</g>
</svg>
