<?xml version="1.0" standalone="no"?>
<!DOCTYPE svg PUBLIC "-//W3C//DTD SVG 20010904//EN"
 "http://www.w3.org/TR/2001/REC-SVG-20010904/DTD/svg10.dtd">
<svg version="1.0" xmlns="http://www.w3.org/2000/svg"
 width="102.000000pt" height="134.000000pt" viewBox="0 0 102.000000 134.000000"
 preserveAspectRatio="xMidYMid meet">
<metadata>
Created by potrace 1.16, written by Peter Selinger 2001-2019
</metadata>
<g transform="translate(0.000000,134.000000) scale(0.100000,-0.100000)"
fill="#000000" stroke="none">
<path d="M360 1017 c0 -36 47 -120 77 -139 l28 -17 -48 -1 c-56 0 -63 -10 -47
-71 8 -28 26 -57 51 -81 l40 -38 -51 0 c-45 0 -50 -2 -50 -22 1 -37 35 -102
69 -130 l31 -27 -47 -3 -48 -3 2 -39 c7 -114 131 -184 220 -123 35 23 73 98
73 141 0 24 -3 26 -46 26 l-46 0 31 29 c35 32 61 87 61 126 0 23 -3 25 -51 25
l-51 0 33 27 c36 31 68 94 69 136 0 26 -2 27 -46 27 l-46 0 31 29 c35 32 61
87 61 126 l0 25 -150 0 c-150 0 -150 0 -150 -23z m84 -64 c-5 -18 -2 -23 12
-23 11 0 30 -3 44 -6 23 -6 23 -5 -8 22 l-34 29 60 1 c32 1 73 8 91 17 28 14
31 14 31 0 0 -30 -34 -86 -64 -104 -67 -41 -150 -10 -182 68 -20 48 -18 52 21
35 28 -13 33 -20 29 -39z m66 -162 c30 0 72 6 93 13 33 12 37 12 37 -3 0 -47
-78 -121 -128 -121 -52 0 -112 53 -127 112 l-7 26 39 -13 c21 -8 63 -14 93
-14z m0 -185 c40 0 77 6 98 16 28 15 32 15 32 1 0 -30 -34 -86 -64 -104 -67
-41 -150 -10 -182 68 -20 48 -18 53 19 35 20 -10 57 -16 97 -16z m0 -185 c30
0 72 6 93 13 43 16 48 6 22 -44 -18 -35 -22 -36 -47 -13 -17 15 -20 15 -28 3
-15 -23 -12 -28 18 -32 l27 -4 -37 -19 c-32 -16 -43 -17 -77 -6 -43 12 -85 57
-96 103 l-7 26 39 -13 c21 -8 63 -14 93 -14z"/>
<path d="M646 724 c-8 -21 -9 -20 39 -28 l40 -7 -30 25 c-36 30 -41 31 -49 10z"/>
<path d="M306 584 c-8 -21 -9 -20 39 -27 l40 -7 -30 25 c-36 29 -41 30 -49 9z"/>
</g>
</svg>
