<?xml version="1.0" standalone="no"?>
<!DOCTYPE svg PUBLIC "-//W3C//DTD SVG 20010904//EN"
 "http://www.w3.org/TR/2001/REC-SVG-20010904/DTD/svg10.dtd">
<svg version="1.0" xmlns="http://www.w3.org/2000/svg"
 width="119.000000pt" height="119.000000pt" viewBox="0 0 119.000000 119.000000"
 preserveAspectRatio="xMidYMid meet">
<metadata>
Created by potrace 1.16, written by Peter Selinger 2001-2019
</metadata>
<g transform="translate(0.000000,119.000000) scale(0.100000,-0.100000)"
fill="#000000" stroke="none">
<path d="M366 871 c-91 -60 -88 -199 6 -247 125 -65 258 70 193 196 -34 65
-136 92 -199 51z"/>
<path d="M673 870 c-88 -53 -83 -198 9 -246 97 -50 208 16 208 126 0 110 -122
178 -217 120z"/>
<path d="M375 561 c-48 -29 -67 -57 -72 -105 -7 -55 9 -98 49 -131 24 -21 40
-25 89 -25 53 0 63 3 95 33 59 54 64 139 12 195 -51 53 -119 67 -173 33z"/>
<path d="M685 561 c-92 -56 -106 -160 -31 -228 32 -30 42 -33 95 -33 49 0 65
4 89 25 40 33 56 76 49 131 -11 97 -121 155 -202 105z"/>
</g>
</svg>
