<?xml version="1.0" standalone="no"?>
<!DOCTYPE svg PUBLIC "-//W3C//DTD SVG 20010904//EN"
 "http://www.w3.org/TR/2001/REC-SVG-20010904/DTD/svg10.dtd">
<svg version="1.0" xmlns="http://www.w3.org/2000/svg"
 width="136.000000pt" height="127.000000pt" viewBox="0 0 136.000000 127.000000"
 preserveAspectRatio="xMidYMid meet">
<metadata>
Created by potrace 1.16, written by Peter Selinger 2001-2019
</metadata>
<g transform="translate(0.000000,127.000000) scale(0.100000,-0.100000)"
fill="#000000" stroke="none">
<path d="M365 950 c-63 -42 -84 -132 -44 -197 40 -65 124 -84 196 -44 l38 22
77 -43 c43 -24 77 -45 78 -48 0 -3 -13 -12 -29 -22 -90 -50 -90 -176 -2 -235
44 -30 118 -31 154 -3 14 11 28 20 31 20 4 0 45 -22 93 -49 78 -45 113 -56 98
-30 -4 5 -42 32 -85 60 l-79 50 6 48 c4 33 1 57 -10 78 -22 41 -73 83 -102 83
-13 0 -66 28 -117 63 -92 60 -94 63 -87 92 15 54 -14 125 -64 155 -42 26 -113
26 -152 0z m191 -181 c3 -6 -5 -3 -20 6 -14 10 -26 19 -26 22 0 7 39 -17 46
-28z m229 -269 c3 -6 -1 -7 -9 -4 -18 7 -21 14 -7 14 6 0 13 -4 16 -10z m65
-46 c0 -2 -9 0 -20 6 -11 6 -20 13 -20 16 0 2 9 0 20 -6 11 -6 20 -13 20 -16z
m-40 -10 c0 -2 -9 0 -20 6 -11 6 -20 13 -20 16 0 2 9 0 20 -6 11 -6 20 -13 20
-16z"/>
<path d="M683 951 c-87 -55 -95 -162 -17 -231 29 -25 43 -30 86 -30 33 0 62 7
84 20 l33 21 87 -51 c49 -27 92 -50 96 -50 25 0 -2 26 -76 76 l-85 56 6 47 c6
53 -9 91 -51 130 -36 34 -118 40 -163 12z m107 -167 c0 -2 -9 0 -20 6 -11 6
-20 13 -20 16 0 2 9 0 20 -6 11 -6 20 -13 20 -16z m70 -40 c0 -2 -9 0 -20 6
-11 6 -20 13 -20 16 0 2 9 0 20 -6 11 -6 20 -13 20 -16z"/>
<path d="M366 621 c-63 -42 -83 -117 -50 -187 33 -70 129 -95 203 -54 l36 21
90 -51 c149 -83 154 -62 8 34 -48 33 -77 58 -74 67 9 36 3 100 -13 124 -41 62
-140 85 -200 46z m164 -197 c0 -2 -9 0 -20 6 -11 6 -20 13 -20 16 0 2 9 0 20
-6 11 -6 20 -13 20 -16z"/>
</g>
</svg>
