<?xml version="1.0" standalone="no"?>
<!DOCTYPE svg PUBLIC "-//W3C//DTD SVG 20010904//EN"
 "http://www.w3.org/TR/2001/REC-SVG-20010904/DTD/svg10.dtd">
<svg version="1.0" xmlns="http://www.w3.org/2000/svg"
 width="132.000000pt" height="131.000000pt" viewBox="0 0 132.000000 131.000000"
 preserveAspectRatio="xMidYMid meet">
<metadata>
Created by potrace 1.16, written by Peter Selinger 2001-2019
</metadata>
<g transform="translate(0.000000,131.000000) scale(0.100000,-0.100000)"
fill="#000000" stroke="none">
<path d="M360 962 c0 -48 0 -49 -30 -44 -27 4 -30 1 -30 -22 0 -22 4 -26 30
-26 27 0 30 -3 30 -33 0 -32 -2 -33 -30 -29 -27 4 -30 1 -30 -22 0 -22 4 -26
30 -26 28 0 30 -3 30 -35 l0 -35 105 0 105 0 0 40 c0 35 3 40 23 40 12 0 28 4
35 9 11 7 10 10 -3 15 -9 3 -25 6 -36 6 -16 0 -19 7 -19 40 0 35 3 40 23 40
12 0 28 4 35 9 11 7 10 10 -3 15 -9 3 -25 6 -36 6 -16 0 -19 7 -19 50 l0 50
-105 0 -105 0 0 -48z"/>
<path d="M741 963 l3 -48 -32 3 c-29 3 -32 1 -32 -22 0 -23 4 -26 33 -26 31 0
33 -2 29 -33 -3 -30 -6 -33 -33 -29 -26 4 -29 1 -29 -22 0 -22 4 -26 29 -26
26 0 30 -4 33 -32 l3 -33 103 -3 102 -3 0 40 c0 35 3 40 25 43 14 2 26 8 26
13 0 6 -12 11 -26 13 -22 3 -25 8 -25 42 0 34 3 39 25 42 14 2 26 8 26 13 0 6
-12 11 -26 13 -23 3 -25 7 -25 53 l0 49 -106 0 -106 0 3 -47z"/>
<path d="M360 569 l0 -51 -30 7 c-27 6 -30 4 -30 -19 0 -22 4 -26 30 -26 28 0
30 -3 30 -36 0 -34 -1 -35 -30 -29 -27 6 -30 4 -30 -19 0 -22 4 -26 30 -26 28
0 30 -3 30 -35 l0 -35 105 0 105 0 0 40 c0 39 1 40 35 40 19 0 35 4 35 9 0 5
-16 12 -35 15 -33 7 -35 9 -35 46 0 39 1 40 35 40 19 0 35 4 35 9 0 5 -16 12
-35 15 -34 7 -35 8 -35 56 l0 50 -105 0 -105 0 0 -51z"/>
<path d="M745 610 c-4 -6 -5 -27 -4 -48 3 -36 3 -37 -29 -34 -28 2 -32 -1 -32
-23 0 -22 4 -25 34 -25 32 0 34 -2 32 -32 -2 -31 -4 -33 -34 -30 -28 2 -32 -1
-32 -23 0 -22 4 -25 33 -25 31 0 33 -2 33 -32 l-1 -33 103 -3 102 -3 0 41 c0
38 2 40 30 40 17 0 30 4 30 9 0 5 -13 12 -30 16 -27 6 -30 10 -30 46 0 37 2
39 30 39 17 0 30 4 30 9 0 5 -13 12 -30 16 -28 6 -30 9 -30 56 l0 49 -99 0
c-58 0 -103 -4 -106 -10z"/>
</g>
</svg>
