<?xml version="1.0" standalone="no"?>
<!DOCTYPE svg PUBLIC "-//W3C//DTD SVG 20010904//EN"
 "http://www.w3.org/TR/2001/REC-SVG-20010904/DTD/svg10.dtd">
<svg version="1.0" xmlns="http://www.w3.org/2000/svg"
 width="123.000000pt" height="118.000000pt" viewBox="0 0 123.000000 118.000000"
 preserveAspectRatio="xMidYMid meet">
<metadata>
Created by potrace 1.16, written by Peter Selinger 2001-2019
</metadata>
<g transform="translate(0.000000,118.000000) scale(0.100000,-0.100000)"
fill="#000000" stroke="none">
<path d="M373 864 c-95 -47 -97 -200 -4 -249 98 -50 211 16 211 124 0 107
-109 173 -207 125z m34 -136 c-3 -7 -5 -2 -5 12 0 14 2 19 5 13 2 -7 2 -19 0
-25z"/>
<path d="M730 862 c-127 -70 -77 -262 68 -262 90 0 130 43 131 142 0 61 -2 67
-34 98 -44 42 -112 51 -165 22z"/>
<path d="M363 560 c-89 -54 -82 -200 11 -244 99 -47 206 17 206 122 0 85 -56
142 -140 142 -27 0 -58 -8 -77 -20z m44 -127 c-3 -10 -5 -4 -5 12 0 17 2 24 5
18 2 -7 2 -21 0 -30z m86 20 c-7 -2 -19 -2 -25 0 -7 3 -2 5 12 5 14 0 19 -2
13 -5z"/>
<path d="M734 570 c-29 -11 -62 -55 -73 -96 -23 -84 45 -174 132 -174 47 0 76
12 109 45 24 23 27 34 26 93 -1 78 -8 96 -51 122 -34 21 -105 26 -143 10z
m113 -116 c-3 -3 -12 -4 -19 -1 -8 3 -5 6 6 6 11 1 17 -2 13 -5z"/>
</g>
</svg>
