<?xml version="1.0" standalone="no"?>
<!DOCTYPE svg PUBLIC "-//W3C//DTD SVG 20010904//EN"
 "http://www.w3.org/TR/2001/REC-SVG-20010904/DTD/svg10.dtd">
<svg version="1.0" xmlns="http://www.w3.org/2000/svg"
 width="123.000000pt" height="166.000000pt" viewBox="0 0 123.000000 166.000000"
 preserveAspectRatio="xMidYMid meet">
<metadata>
Created by potrace 1.16, written by Peter Selinger 2001-2019
</metadata>
<g transform="translate(0.000000,166.000000) scale(0.100000,-0.100000)"
fill="#000000" stroke="none">
<path d="M300 1321 c0 -61 31 -141 70 -183 l37 -38 -25 -16 c-32 -21 -72 -111
-79 -179 l-6 -55 153 0 152 0 -7 53 c-9 68 -40 138 -75 172 l-28 27 33 33 c34
35 59 97 71 178 l6 47 -151 0 -151 0 0 -39z m55 -16 c53 -19 137 -19 182 0 19
8 38 15 40 15 11 0 -11 -89 -33 -132 -24 -47 -64 -78 -102 -78 -47 0 -105 78
-121 165 -5 25 -8 45 -7 45 0 0 19 -7 41 -15z m162 -250 c29 -31 63 -114 63
-156 0 -16 -2 -17 -32 -1 -45 23 -161 22 -206 -2 -33 -17 -34 -17 -29 1 3 10
9 34 12 53 10 50 51 117 83 135 37 20 71 11 109 -30z"/>
<path d="M634 1313 c12 -81 37 -143 71 -178 l33 -33 -28 -27 c-35 -34 -66
-104 -75 -172 l-7 -53 152 0 153 0 -6 55 c-7 68 -47 158 -79 179 l-25 16 37
38 c39 42 70 122 70 183 l0 39 -151 0 -151 0 6 -47z m59 -8 c45 -19 129 -19
182 0 22 8 41 15 41 15 7 1 -20 -99 -35 -129 -54 -105 -143 -106 -196 -2 -23
46 -44 131 -32 131 2 0 21 -7 40 -15z m127 -220 c33 -17 75 -83 85 -135 3 -19
9 -43 12 -53 5 -18 4 -18 -29 -1 -45 24 -161 25 -205 2 -33 -16 -33 -16 -33 7
0 41 39 130 68 157 43 40 61 44 102 23z"/>
<path d="M303 755 c7 -69 47 -158 81 -180 l25 -17 -28 -24 c-38 -32 -69 -100
-77 -169 l-7 -55 153 0 152 0 -7 43 c-12 77 -37 138 -70 172 l-33 33 28 27
c35 34 66 104 75 173 l7 52 -152 0 -153 0 6 -55z m142 -9 c47 -1 81 5 103 16
30 16 32 15 32 -1 0 -73 -65 -182 -115 -195 -54 -14 -123 57 -140 144 -3 19
-9 43 -12 53 -5 18 -4 18 29 1 22 -12 57 -18 103 -18z m45 -211 c34 -18 76
-93 86 -154 4 -23 5 -41 3 -41 -2 0 -22 7 -44 15 -51 18 -129 18 -180 0 -22
-8 -41 -15 -41 -15 -1 0 2 20 7 45 16 87 74 165 121 165 10 0 32 -7 48 -15z"/>
<path d="M635 758 c8 -66 45 -150 78 -178 l25 -22 -33 -33 c-34 -34 -59 -96
-71 -172 l-7 -43 152 0 151 0 0 34 c0 57 -32 137 -70 178 l-37 38 25 16 c32
21 72 111 79 179 l6 55 -153 0 -152 0 7 -52z m150 -12 c46 0 81 6 103 18 33
17 34 17 29 -1 -3 -10 -9 -34 -12 -53 -17 -87 -86 -158 -140 -144 -50 13 -115
122 -115 195 0 16 2 17 33 1 21 -11 55 -17 102 -16z m53 -221 c32 -27 66 -98
75 -157 l6 -38 -25 17 c-37 24 -150 29 -198 9 -21 -9 -41 -16 -43 -16 -12 0 9
85 32 131 40 77 100 99 153 54z"/>
</g>
</svg>
