<?xml version="1.0" standalone="no"?>
<!DOCTYPE svg PUBLIC "-//W3C//DTD SVG 20010904//EN"
 "http://www.w3.org/TR/2001/REC-SVG-20010904/DTD/svg10.dtd">
<svg version="1.0" xmlns="http://www.w3.org/2000/svg"
 width="118.000000pt" height="172.000000pt" viewBox="0 0 118.000000 172.000000"
 preserveAspectRatio="xMidYMid meet">
<metadata>
Created by potrace 1.16, written by Peter Selinger 2001-2019
</metadata>
<g transform="translate(0.000000,172.000000) scale(0.100000,-0.100000)"
fill="#000000" stroke="none">
<path d="M300 1387 c0 -55 56 -154 109 -192 25 -19 58 -37 73 -40 59 -14 31
-20 -73 -17 l-109 4 1 -34 c2 -78 62 -172 141 -218 l53 -31 -98 3 -97 3 0 -26
c0 -86 68 -182 163 -229 l62 -30 -113 2 -112 3 0 -26 c0 -45 30 -115 67 -159
84 -98 229 -128 349 -71 93 44 164 143 164 230 l0 26 -112 -3 -113 -2 62 30
c95 47 163 143 163 230 l0 26 -97 -3 -98 -3 38 20 c84 46 145 132 155 217 l5
43 -109 1 c-95 0 -105 2 -79 12 17 7 47 22 67 34 58 38 118 139 118 203 l0 30
-290 0 -290 0 0 -33z m148 -53 c122 -25 295 -13 373 27 37 18 39 18 39 2 -1
-31 -36 -97 -71 -132 -108 -108 -290 -108 -398 0 -35 35 -70 101 -71 132 0 16
2 16 31 2 17 -9 61 -23 97 -31z m-12 -279 c132 -28 336 -12 402 31 13 9 25 14
27 12 2 -2 -6 -27 -17 -57 -81 -216 -400 -235 -502 -29 -14 29 -26 60 -26 70
0 17 2 17 24 3 13 -8 54 -22 92 -30z m13 -275 c122 -23 305 -8 382 31 l36 18
-5 -24 c-9 -48 -67 -130 -115 -162 -134 -90 -313 -51 -394 87 -18 30 -33 64
-33 76 l0 21 38 -18 c20 -10 61 -23 91 -29z m412 -258 c-25 -86 -77 -148 -153
-182 -100 -44 -204 -32 -290 33 -43 33 -97 116 -98 150 0 21 3 21 38 3 108
-54 403 -48 485 9 28 19 27 20 18 -13z"/>
</g>
</svg>
