<?xml version="1.0" standalone="no"?>
<!DOCTYPE svg PUBLIC "-//W3C//DTD SVG 20010904//EN"
 "http://www.w3.org/TR/2001/REC-SVG-20010904/DTD/svg10.dtd">
<svg version="1.0" xmlns="http://www.w3.org/2000/svg"
 width="125.000000pt" height="172.000000pt" viewBox="0 0 125.000000 172.000000"
 preserveAspectRatio="xMidYMid meet">
<metadata>
Created by potrace 1.16, written by Peter Selinger 2001-2019
</metadata>
<g transform="translate(0.000000,172.000000) scale(0.100000,-0.100000)"
fill="#000000" stroke="none">
<path d="M300 1388 c0 -50 42 -128 93 -175 l47 -43 -70 0 -70 0 0 -32 c0 -67
74 -178 145 -216 16 -9 3 -11 -62 -12 l-83 0 0 -32 c0 -50 42 -128 93 -175
l47 -43 -70 0 -70 0 0 -32 c0 -47 41 -127 86 -170 81 -77 205 -104 306 -65
l46 18 92 -51 c50 -29 94 -50 96 -47 3 3 -30 29 -73 58 -43 28 -80 53 -82 55
-2 1 13 19 33 40 20 20 44 54 53 76 12 28 21 37 33 32 39 -16 43 -14 18 8 -18
15 -28 34 -28 51 0 25 -3 27 -42 27 -24 0 -50 5 -58 10 -13 9 -12 13 6 28 32
26 72 84 79 115 5 19 12 26 21 23 42 -17 47 -16 21 6 -15 13 -27 34 -27 46 0
19 -6 22 -37 22 -21 0 -46 7 -57 15 -17 13 -16 16 18 51 20 20 44 54 53 76 11
24 22 37 30 33 41 -16 46 -15 21 7 -18 15 -28 34 -28 51 0 25 -3 27 -42 27
-68 0 -74 11 -34 55 44 47 68 97 74 152 l5 43 -292 0 -291 0 0 -32z m170 -57
c126 -21 283 -6 362 34 17 8 32 14 34 13 6 -7 -27 -83 -50 -116 -44 -63 -58
-67 -117 -31 -41 26 -53 29 -59 18 -11 -17 2 -33 40 -49 17 -7 30 -16 30 -21
0 -16 -228 -11 -258 5 -60 31 -132 130 -132 180 0 12 7 12 43 -4 23 -10 71
-24 107 -29z m11 -252 c89 -14 212 -7 302 17 37 10 69 15 73 11 15 -15 -34
-98 -83 -140 -20 -17 -22 -17 -71 14 -46 28 -72 32 -72 9 0 -5 17 -19 38 -31
49 -30 48 -29 32 -39 -8 -6 -57 -10 -108 -10 -72 0 -101 4 -131 19 -64 33
-141 133 -141 185 0 12 7 12 43 -4 24 -11 77 -24 118 -31z m266 -165 c-3 -3
-12 -4 -19 -1 -8 3 -5 6 6 6 11 1 17 -2 13 -5z m-266 -95 c94 -15 226 -6 309
20 36 12 66 21 68 21 17 1 -22 -88 -55 -125 -44 -49 -49 -50 -103 -15 -45 29
-70 33 -70 10 0 -5 18 -20 40 -32 22 -13 40 -26 40 -30 0 -15 -229 -9 -258 6
-60 31 -132 130 -132 180 0 12 7 12 43 -4 24 -11 77 -24 118 -31z m0 -250 c89
-14 212 -7 302 17 37 10 69 15 73 11 15 -15 -34 -98 -83 -141 -22 -18 -23 -18
-70 13 -26 17 -51 30 -57 28 -24 -8 -14 -27 23 -49 23 -13 41 -26 41 -30 0
-15 -87 -30 -145 -25 -72 5 -126 31 -177 84 -36 37 -68 97 -68 127 0 12 7 12
43 -4 24 -11 77 -24 118 -31z"/>
</g>
</svg>
