<?xml version="1.0" standalone="no"?>
<!DOCTYPE svg PUBLIC "-//W3C//DTD SVG 20010904//EN"
 "http://www.w3.org/TR/2001/REC-SVG-20010904/DTD/svg10.dtd">
<svg version="1.0" xmlns="http://www.w3.org/2000/svg"
 width="177.000000pt" height="175.000000pt" viewBox="0 0 177.000000 175.000000"
 preserveAspectRatio="xMidYMid meet">
<metadata>
Created by potrace 1.16, written by Peter Selinger 2001-2019
</metadata>
<g transform="translate(0.000000,175.000000) scale(0.100000,-0.100000)"
fill="#000000" stroke="none">
<path d="M465 1427 c-222 -106 -221 -412 2 -514 75 -34 166 -34 238 2 174 85
214 316 78 452 -56 56 -105 77 -193 81 -63 2 -83 -1 -125 -21z"/>
<path d="M1072 1419 c-102 -50 -155 -136 -155 -249 0 -113 58 -207 158 -255
136 -64 316 -4 378 127 25 53 24 206 -2 256 -71 138 -238 192 -379 121z"/>
<path d="M539 859 c-278 -42 -328 -418 -71 -537 45 -20 65 -23 125 -20 85 5
135 26 190 81 105 105 109 275 8 389 -56 65 -161 101 -252 87z"/>
<path d="M1147 859 c-132 -20 -230 -139 -230 -279 0 -113 53 -199 155 -249
111 -56 240 -36 326 50 58 57 72 97 72 201 0 85 -3 98 -30 145 -28 48 -86 99
-135 117 -40 15 -111 22 -158 15z"/>
</g>
</svg>
