<?xml version="1.0" standalone="no"?>
<!DOCTYPE svg PUBLIC "-//W3C//DTD SVG 20010904//EN"
 "http://www.w3.org/TR/2001/REC-SVG-20010904/DTD/svg10.dtd">
<svg version="1.0" xmlns="http://www.w3.org/2000/svg"
 width="140.000000pt" height="198.000000pt" viewBox="0 0 140.000000 198.000000"
 preserveAspectRatio="xMidYMid meet">
<metadata>
Created by potrace 1.16, written by Peter Selinger 2001-2019
</metadata>
<g transform="translate(0.000000,198.000000) scale(0.100000,-0.100000)"
fill="#000000" stroke="none">
<path d="M1026 1664 c-8 -22 -9 -21 18 -28 13 -3 32 -9 43 -12 11 -4 5 5 -15
25 -39 36 -38 36 -46 15z"/>
<path d="M430 1533 c0 -21 10 -58 21 -83 82 -182 331 -226 473 -84 45 45 86
130 86 179 l0 25 -290 0 -290 0 0 -37z m138 -52 c122 -26 336 -7 400 35 20 13
22 13 22 -3 -1 -32 -37 -99 -73 -135 -55 -55 -118 -81 -196 -81 -137 0 -234
75 -276 211 l-7 23 39 -19 c21 -11 62 -25 91 -31z"/>
<path d="M726 1384 c-8 -21 -9 -20 39 -27 l40 -7 -30 25 c-36 29 -41 30 -49 9z"/>
<path d="M311 1531 c-14 -25 -14 -28 2 -28 7 0 26 -3 42 -6 29 -7 29 -7 10 8
-11 9 -25 22 -32 31 -10 14 -13 13 -22 -5z"/>
<path d="M477 1323 c-15 -15 -5 -31 26 -41 31 -10 31 -10 -20 -11 l-53 -1 0
-35 c0 -102 94 -210 208 -241 l47 -13 -71 0 c-63 -1 -74 2 -98 24 -28 26 -46
25 -46 0 0 -7 10 -16 23 -18 12 -2 3 -5 -20 -6 -43 -1 -43 -1 -43 -38 1 -82
65 -173 155 -221 67 -35 186 -38 256 -6 86 40 153 128 166 219 l6 45 -129 1
c-119 0 -126 1 -89 13 60 19 86 34 133 79 43 42 82 124 82 172 l0 25 -234 0
c-129 0 -236 3 -238 8 -7 16 -55 52 -61 45z m6 -112 c61 -31 168 -45 287 -36
58 4 126 8 152 8 38 0 46 3 37 13 -8 9 -5 15 10 24 17 8 21 8 21 -3 0 -29 -31
-88 -67 -128 -50 -55 -105 -81 -184 -87 -144 -10 -253 66 -294 206 -8 27 -8
27 38 3z m217 -325 c74 0 155 1 180 3 52 5 90 -5 90 -23 0 -7 -11 -27 -24 -45
-62 -83 -177 -130 -276 -111 -113 21 -189 91 -224 206 -7 22 -6 22 56 -4 57
-23 76 -26 198 -26z m281 11 c-8 -8 -14 -8 -23 1 -9 9 -8 15 8 26 17 13 19 13
22 -1 2 -8 -1 -20 -7 -26z"/>
<path d="M726 1094 c-8 -21 -9 -20 38 -33 l40 -10 -33 29 c-38 35 -37 35 -45
14z"/>
<path d="M730 805 c-17 -20 -5 -31 40 -39 33 -5 34 -5 15 9 -11 9 -25 22 -31
30 -10 13 -13 13 -24 0z"/>
<path d="M306 1234 c-8 -20 -11 -17 38 -32 l38 -11 -28 29 c-34 34 -40 36 -48
14z"/>
<path d="M310 940 c-9 -16 -5 -20 27 -29 20 -6 38 -9 40 -8 1 2 -11 15 -27 29
-29 25 -31 25 -40 8z"/>
<path d="M476 733 c-14 -15 -4 -31 27 -41 31 -11 30 -11 -21 -9 l-52 2 0 -35
c0 -53 41 -131 94 -177 170 -150 447 -55 482 166 l7 41 -229 0 -229 0 -36 30
c-20 16 -39 26 -43 23z m69 -128 c41 -11 96 -15 175 -14 63 2 145 3 182 3 54
0 65 3 56 14 -8 9 -6 16 8 27 30 22 30 -5 -1 -69 -46 -98 -133 -150 -250 -150
-53 0 -81 6 -115 23 -80 41 -135 107 -154 184 -6 27 -6 27 16 13 13 -8 50 -22
83 -31z"/>
<path d="M726 504 c-8 -21 -9 -20 38 -28 l39 -8 -30 26 c-36 31 -39 31 -47 10z"/>
<path d="M306 644 c-8 -21 -9 -20 39 -28 l40 -7 -30 25 c-36 30 -41 31 -49 10z"/>
<path d="M476 434 c-3 -9 -6 -17 -6 -19 0 -5 73 -25 76 -22 2 2 -12 15 -31 30
-28 22 -34 24 -39 11z"/>
<path d="M903 335 c-7 -20 -5 -21 37 -30 l35 -7 -28 26 c-33 30 -36 31 -44 11z"/>
</g>
</svg>
