<?xml version="1.0" standalone="no"?>
<!DOCTYPE svg PUBLIC "-//W3C//DTD SVG 20010904//EN"
 "http://www.w3.org/TR/2001/REC-SVG-20010904/DTD/svg10.dtd">
<svg version="1.0" xmlns="http://www.w3.org/2000/svg"
 width="140.000000pt" height="198.000000pt" viewBox="0 0 140.000000 198.000000"
 preserveAspectRatio="xMidYMid meet">
<metadata>
Created by potrace 1.16, written by Peter Selinger 2001-2019
</metadata>
<g transform="translate(0.000000,198.000000) scale(0.100000,-0.100000)"
fill="#000000" stroke="none">
<path d="M928 1673 c-28 -4 -34 -17 -20 -40 5 -8 17 -2 40 18 18 16 27 28 20
28 -7 -1 -25 -4 -40 -6z"/>
<path d="M493 1573 c-13 -2 -23 -11 -23 -18 0 -25 18 -26 46 0 26 24 23 27
-23 18z"/>
<path d="M638 1567 c-115 -33 -208 -140 -208 -242 0 -35 0 -35 48 -36 29 -1
36 -4 20 -6 -28 -4 -34 -17 -20 -41 6 -9 16 -4 37 18 l29 30 233 0 233 0 0 25
c0 13 -9 48 -20 77 -49 133 -213 214 -352 175z m202 -31 c44 -23 97 -73 117
-110 22 -42 6 -52 -75 -47 -155 11 -296 5 -352 -13 -30 -10 -59 -22 -64 -27
-33 -31 -22 27 19 97 26 44 85 92 140 112 44 17 173 9 215 -12z m150 -193 c0
-10 -6 -10 -26 -1 -24 11 -25 13 -8 25 19 14 34 3 34 -24z"/>
<path d="M758 1497 c-41 -11 -43 -14 -29 -36 8 -12 16 -9 42 17 18 18 31 31
28 31 -2 -1 -21 -6 -41 -12z"/>
<path d="M340 1357 c-44 -13 -42 -11 -34 -31 8 -21 14 -20 48 10 34 30 32 34
-14 21z"/>
<path d="M594 1256 c-91 -42 -151 -122 -162 -213 l-5 -43 49 -1 c35 0 43 -3
29 -8 -11 -5 -23 -7 -27 -4 -10 5 -10 -10 -2 -31 5 -14 12 -11 40 14 l35 30
229 0 c262 0 245 -7 213 89 -21 66 -79 132 -145 165 -72 36 -180 37 -254 2z
m215 -3 c57 -18 124 -70 146 -114 20 -37 19 -38 -12 -50 -20 -7 -57 -7 -128 2
-117 13 -251 0 -324 -32 -24 -10 -45 -18 -47 -17 -1 2 4 20 11 41 50 147 202
220 354 170z m181 -200 c0 -10 -6 -10 -25 -1 -23 10 -23 12 -7 24 18 13 32 3
32 -23z"/>
<path d="M743 1203 c-25 -5 -27 -11 -14 -32 8 -12 15 -9 41 12 32 28 28 31
-27 20z"/>
<path d="M328 1063 c-30 -5 -33 -10 -19 -32 8 -12 15 -9 41 12 17 15 26 26 18
26 -7 -1 -25 -4 -40 -6z"/>
<path d="M628 980 c-104 -31 -198 -148 -198 -246 l0 -29 62 2 c35 1 166 2 292
2 l229 1 -7 41 c-15 91 -71 165 -158 208 -51 26 -73 31 -127 30 -36 0 -78 -4
-93 -9z m170 -15 c64 -19 127 -68 159 -122 l24 -42 -35 -9 c-23 -7 -50 -7 -78
0 -111 25 -342 4 -406 -38 -22 -14 -22 -14 -16 13 28 116 146 210 265 212 19
1 58 -6 87 -14z m190 -208 c-3 -14 -5 -14 -23 -1 -17 13 -18 16 -5 24 18 11
33 -2 28 -23z"/>
<path d="M748 913 c-30 -5 -33 -10 -19 -32 8 -12 15 -9 41 12 17 15 26 26 18
26 -7 -1 -25 -4 -40 -6z"/>
<path d="M328 773 c-30 -5 -33 -10 -19 -32 7 -11 15 -9 40 10 43 31 43 32 -21
22z"/>
<path d="M498 693 c-16 -2 -28 -11 -28 -18 0 -27 22 -27 48 -1 15 14 22 25 17
25 -6 -1 -22 -4 -37 -6z"/>
<path d="M663 689 c-126 -24 -233 -137 -233 -245 l0 -34 290 0 c329 0 303 -8
275 87 -39 130 -192 219 -332 192z m143 -24 c65 -19 131 -76 160 -139 33 -70
32 -80 -7 -61 -40 21 -167 45 -237 45 -86 0 -182 -18 -234 -44 l-48 -23 6 26
c20 84 106 176 188 200 48 14 117 13 172 -4z"/>
<path d="M760 617 c-44 -13 -42 -11 -34 -31 8 -21 14 -20 48 10 34 30 32 34
-14 21z"/>
<path d="M323 473 c-25 -5 -27 -11 -14 -32 8 -12 15 -9 41 12 32 28 28 31 -27
20z"/>
<path d="M1048 343 c-30 -5 -33 -10 -19 -32 7 -11 15 -9 40 10 43 31 43 32
-21 22z"/>
</g>
</svg>
