<?xml version="1.0" standalone="no"?>
<!DOCTYPE svg PUBLIC "-//W3C//DTD SVG 20010904//EN"
 "http://www.w3.org/TR/2001/REC-SVG-20010904/DTD/svg10.dtd">
<svg version="1.0" xmlns="http://www.w3.org/2000/svg"
 width="106.000000pt" height="186.000000pt" viewBox="0 0 106.000000 186.000000"
 preserveAspectRatio="xMidYMid meet">
<metadata>
Created by potrace 1.16, written by Peter Selinger 2001-2019
</metadata>
<g transform="translate(0.000000,186.000000) scale(0.100000,-0.100000)"
fill="#000000" stroke="none">
<path d="M722 1511 l5 -48 -53 24 c-67 31 -165 51 -282 60 l-92 6 0 -151 0
-152 83 0 c95 0 245 29 303 57 21 11 45 18 52 16 6 -3 12 -1 13 4 0 4 3 59 5
121 5 110 5 112 -17 112 -20 0 -21 -4 -17 -49z m-149 -6 c32 -8 78 -24 100
-34 l42 -19 -152 6 c-138 5 -153 3 -153 -11 0 -15 18 -17 160 -17 l160 0 0
-36 0 -37 -46 7 c-26 3 -100 6 -165 6 l-119 0 0 43 c0 25 -9 58 -23 82 l-23
41 80 -8 c44 -4 106 -15 139 -23z m142 -164 c-16 -28 -239 -81 -338 -81 l-28
0 20 29 c12 16 21 34 21 40 0 7 53 12 153 14 83 1 158 4 165 5 7 1 11 -2 7 -7z"/>
<path d="M723 1200 c3 -27 4 -50 2 -50 -2 0 -19 9 -37 20 -47 27 -182 58 -294
66 l-94 7 0 -152 c0 -113 3 -151 13 -152 101 -9 281 18 362 55 28 12 56 21 63
18 14 -4 14 -1 17 136 2 96 1 102 -17 102 -18 0 -20 -5 -15 -50z m-188 1 c81
-17 175 -47 164 -54 -2 -1 -71 -1 -154 1 l-150 4 -22 34 -22 34 47 0 c26 0 88
-9 137 -19z m195 -116 l0 -44 -160 6 c-145 6 -160 5 -160 -10 0 -15 17 -17
143 -17 100 -1 137 -4 125 -11 -33 -19 -168 -48 -255 -55 -75 -5 -86 -4 -71 7
24 19 48 81 48 123 l0 35 123 4 c67 1 141 4 165 5 l42 2 0 -45z"/>
<path d="M723 882 l5 -50 -53 24 c-68 31 -164 52 -282 60 l-93 7 0 -152 0
-151 83 0 c96 0 246 29 304 58 27 14 43 18 50 11 14 -14 20 35 19 146 -1 79
-3 90 -20 93 -17 4 -18 -1 -13 -46z m-151 -6 c139 -37 135 -43 -27 -38 -124 3
-152 7 -162 21 -7 9 -18 22 -25 30 -10 12 0 13 73 8 46 -3 110 -13 141 -21z
m153 -111 c0 -44 -3 -51 -31 -67 -44 -25 -164 -54 -263 -63 l-84 -7 21 30 c12
16 22 35 22 41 0 8 51 11 160 11 88 0 160 4 160 9 0 5 -70 12 -155 16 l-155 7
0 34 0 33 148 4 c81 1 154 3 162 2 11 0 15 -13 15 -50z"/>
<path d="M722 551 l5 -49 -46 23 c-67 33 -166 55 -281 62 l-100 6 0 -146 c0
-139 1 -147 20 -147 21 0 56 33 66 62 5 16 19 18 162 18 l157 -1 -35 -19 c-20
-10 -71 -26 -115 -35 -87 -18 -104 -25 -59 -25 38 0 173 37 201 56 12 7 28 11
36 8 18 -7 23 23 26 144 2 88 1 92 -20 92 -20 0 -21 -4 -17 -49z m-187 3 c44
-9 98 -24 120 -35 22 -11 32 -17 22 -14 -10 3 -78 5 -150 5 l-132 0 -22 35
-23 34 53 -5 c28 -3 88 -12 132 -20z m193 -108 c4 -45 -5 -77 -17 -58 -5 8
-57 14 -159 19 l-152 6 0 33 0 33 128 4 c212 5 197 8 200 -37z"/>
</g>
</svg>
