<?xml version="1.0" standalone="no"?>
<!DOCTYPE svg PUBLIC "-//W3C//DTD SVG 20010904//EN"
 "http://www.w3.org/TR/2001/REC-SVG-20010904/DTD/svg10.dtd">
<svg version="1.0" xmlns="http://www.w3.org/2000/svg"
 width="180.000000pt" height="204.000000pt" viewBox="0 0 180.000000 204.000000"
 preserveAspectRatio="xMidYMid meet">
<metadata>
Created by potrace 1.16, written by Peter Selinger 2001-2019
</metadata>
<g transform="translate(0.000000,204.000000) scale(0.100000,-0.100000)"
fill="#000000" stroke="none">
<path d="M300 1706 c0 -57 58 -155 116 -196 l50 -35 -14 -37 c-13 -33 -13 -43
0 -81 l14 -44 -34 -19 c-68 -37 -132 -140 -132 -213 l0 -26 290 0 290 0 0 26
c0 74 -64 176 -134 214 -25 14 -34 24 -30 35 13 32 16 90 6 118 -9 27 -7 30
30 53 68 41 128 141 128 210 l0 29 -290 0 -290 0 0 -34z m148 -52 c141 -29
309 -12 414 44 10 5 -6 -48 -25 -85 -21 -39 -70 -89 -109 -109 -28 -15 -31
-14 -54 7 -17 16 -40 24 -76 27 -44 3 -59 0 -89 -21 l-37 -25 -38 23 c-55 33
-114 118 -114 165 0 20 1 20 31 5 17 -9 61 -23 97 -31z m58 -373 c43 -34 90
-36 150 -6 53 26 56 26 82 10 62 -40 102 -94 123 -167 l8 -28 -37 19 c-114 57
-399 55 -489 -5 -22 -14 -23 -13 -23 8 1 38 53 120 98 155 51 38 56 39 88 14z"/>
<path d="M920 1707 c0 -57 56 -154 111 -194 27 -19 49 -37 49 -40 0 -3 -5 -22
-11 -42 -8 -27 -7 -46 3 -76 l13 -40 -41 -26 c-69 -45 -124 -136 -124 -208 l0
-26 290 0 290 0 0 30 c-2 74 -55 161 -126 204 -31 18 -41 30 -37 41 9 19 9
111 1 130 -5 11 8 25 45 50 39 27 59 50 84 98 18 36 33 79 33 98 l0 34 -290 0
-290 0 0 -33z m57 -27 c107 -52 360 -52 466 -1 41 20 45 14 26 -36 -19 -51
-62 -104 -105 -129 l-42 -25 -37 26 c-50 33 -109 34 -157 1 l-36 -24 -39 24
c-45 27 -85 80 -107 142 -8 23 -14 42 -12 42 1 0 20 -9 43 -20z m153 -402 c40
-29 104 -28 158 2 l42 24 43 -30 c42 -30 101 -114 109 -157 l5 -23 -61 25
c-57 24 -72 26 -216 26 -144 0 -159 -2 -216 -26 l-62 -26 9 29 c15 53 60 118
101 148 49 36 51 36 88 8z"/>
<path d="M300 959 c0 -74 64 -176 132 -213 l35 -19 -16 -42 c-13 -37 -13 -46
0 -81 l15 -39 -50 -35 c-56 -39 -116 -138 -116 -191 l0 -29 290 0 290 0 0 28
c0 49 -57 149 -107 187 -24 18 -49 35 -55 37 -8 3 -7 11 1 27 13 23 11 92 -2
121 -5 11 3 21 29 35 70 38 134 140 134 214 l0 26 -290 0 -290 0 0 -26z m63
-33 c63 -28 145 -38 267 -34 103 5 140 12 213 43 42 18 -10 -104 -65 -150 -55
-46 -72 -50 -105 -25 -49 35 -104 37 -159 5 l-46 -27 -42 29 c-42 30 -100 114
-109 159 -2 13 -2 23 2 21 3 -2 23 -11 44 -21z m239 -423 c23 3 54 15 70 27
l29 21 43 -25 c57 -33 116 -121 116 -172 0 -12 -3 -12 -24 1 -87 57 -375 57
-485 0 -27 -13 -31 -13 -31 -1 0 49 59 138 113 170 l39 24 45 -25 c34 -20 53
-24 85 -20z"/>
<path d="M920 959 c0 -74 64 -176 132 -213 l35 -19 -16 -42 c-13 -38 -13 -47
0 -81 l16 -39 -44 -28 c-65 -43 -123 -138 -123 -203 l0 -24 290 0 290 0 0 29
c0 16 -15 58 -33 93 -25 48 -45 71 -84 98 -37 25 -50 39 -45 50 8 19 8 111 -1
130 -4 11 6 23 37 41 71 43 124 130 126 204 l0 30 -290 0 -290 0 0 -26z m63
-32 c56 -26 127 -37 233 -37 104 0 181 13 236 41 l37 19 -9 -31 c-16 -54 -60
-119 -102 -149 -49 -36 -51 -36 -87 -9 -46 34 -102 36 -157 5 l-48 -27 -41 28
c-41 30 -99 114 -108 159 -2 13 -2 23 2 21 3 -2 23 -11 44 -20z m239 -424 c23
3 54 15 70 27 26 19 30 19 57 6 61 -32 130 -126 131 -179 0 -16 -2 -16 -24 -2
-86 57 -374 57 -487 1 -24 -12 -29 -12 -29 -1 0 48 59 137 113 169 l39 24 45
-25 c34 -20 53 -24 85 -20z"/>
</g>
</svg>
