<?xml version="1.0" standalone="no"?>
<!DOCTYPE svg PUBLIC "-//W3C//DTD SVG 20010904//EN"
 "http://www.w3.org/TR/2001/REC-SVG-20010904/DTD/svg10.dtd">
<svg version="1.0" xmlns="http://www.w3.org/2000/svg"
 width="143.000000pt" height="158.000000pt" viewBox="0 0 143.000000 158.000000"
 preserveAspectRatio="xMidYMid meet">
<metadata>
Created by potrace 1.16, written by Peter Selinger 2001-2019
</metadata>
<g transform="translate(0.000000,158.000000) scale(0.100000,-0.100000)"
fill="#000000" stroke="none">
<path d="M300 1129 l0 -151 68 6 c37 4 103 16 148 27 l81 20 56 -33 c31 -17
53 -36 50 -40 -3 -5 -4 -72 -4 -150 2 -151 5 -145 -52 -105 l-28 19 26 26 c36
36 42 68 18 100 -41 55 -148 95 -289 108 l-74 7 0 -153 0 -153 83 6 c45 3 111
15 146 26 l64 20 59 -35 c59 -34 85 -43 73 -24 -4 6 8 10 30 10 43 0 182 28
208 41 14 8 33 2 83 -26 36 -20 68 -34 71 -32 3 3 -20 22 -50 42 l-54 36 28
29 c30 30 37 66 19 100 -24 45 -141 90 -272 105 -32 3 -60 11 -63 16 -4 5 -3
9 2 9 44 2 166 23 208 36 l52 17 67 -38 c37 -20 69 -35 72 -32 3 2 -22 22 -55
43 l-59 38 29 27 c94 88 -37 191 -261 206 l-85 6 3 -142 c2 -77 0 -141 -4
-141 -4 0 -22 9 -41 21 l-33 21 30 34 c16 19 30 45 30 58 0 29 -36 68 -87 94
-48 25 -175 52 -243 52 l-50 0 0 -151z m205 114 c102 -25 155 -63 155 -110 0
-26 -34 -73 -53 -73 -25 0 -176 107 -185 130 -5 14 -21 37 -36 52 l-27 26 43
-5 c24 -3 70 -12 103 -20z m444 -15 c62 -23 111 -66 111 -96 0 -19 -45 -72
-61 -72 -19 0 -179 114 -184 131 -4 11 -17 32 -30 47 l-24 28 66 -8 c36 -5 91
-19 122 -30z m-407 -168 l31 -19 -54 -15 c-30 -8 -76 -18 -104 -22 l-49 -7 27
33 c16 18 31 45 34 61 l5 28 40 -20 c21 -11 53 -28 70 -39z m407 -15 c2 -11
-64 -30 -142 -40 l-52 -7 27 27 c15 15 32 42 38 61 l12 34 58 -32 c31 -18 58
-37 59 -43z m-426 -130 c129 -39 170 -99 109 -158 l-27 -26 -88 57 c-48 31
-89 65 -93 75 -3 9 -17 31 -32 48 l-26 32 55 -7 c31 -4 77 -13 102 -21z m410
-5 c72 -22 127 -66 127 -100 0 -12 -13 -35 -29 -51 l-30 -29 -89 57 c-52 34
-92 67 -96 79 -3 11 -17 33 -32 49 l-26 28 55 -6 c30 -4 84 -16 120 -27z
m-433 -150 c33 -17 60 -34 60 -39 0 -11 -74 -32 -139 -38 l-56 -6 27 29 c15
16 30 41 33 57 4 15 9 27 11 27 3 0 31 -14 64 -30z m401 -2 c33 -18 59 -36 59
-40 0 -8 -129 -38 -165 -38 l-26 0 25 33 c15 19 26 41 26 49 0 14 9 28 18 28
2 0 31 -15 63 -32z"/>
<path d="M328 642 l-28 -3 0 -146 0 -146 143 5 c78 3 185 14 238 23 l96 18 77
-42 c90 -50 101 -41 17 14 l-59 39 49 22 c143 66 50 154 -206 195 -79 12 -286
26 -327 21z m332 -38 c168 -29 250 -64 250 -108 0 -26 -24 -45 -82 -66 -36
-13 -38 -13 -107 33 -56 37 -70 43 -75 31 -9 -23 -1 -31 57 -61 l52 -27 -60
-12 c-59 -12 -263 -34 -319 -34 l-29 0 21 23 c57 60 55 173 -4 231 -18 18 -15
19 96 12 63 -4 153 -14 200 -22z"/>
</g>
</svg>
