<?xml version="1.0" standalone="no"?>
<!DOCTYPE svg PUBLIC "-//W3C//DTD SVG 20010904//EN"
 "http://www.w3.org/TR/2001/REC-SVG-20010904/DTD/svg10.dtd">
<svg version="1.0" xmlns="http://www.w3.org/2000/svg"
 width="160.000000pt" height="154.000000pt" viewBox="0 0 160.000000 154.000000"
 preserveAspectRatio="xMidYMid meet">
<metadata>
Created by potrace 1.16, written by Peter Selinger 2001-2019
</metadata>
<g transform="translate(0.000000,154.000000) scale(0.100000,-0.100000)"
fill="#000000" stroke="none">
<path d="M370 1211 c0 -29 -2 -31 -35 -31 -31 0 -35 -3 -35 -25 0 -24 2 -25
35 -19 35 6 35 6 35 -31 0 -37 -1 -37 -35 -33 -33 4 -35 2 -35 -24 0 -27 2
-29 34 -23 l34 7 3 -44 c2 -23 3 -59 1 -78 -3 -35 -4 -36 -37 -32 -32 4 -35 2
-35 -23 0 -25 3 -27 35 -23 34 4 35 3 35 -32 0 -35 -1 -36 -35 -32 -32 4 -35
2 -35 -23 0 -25 3 -27 35 -23 l35 4 0 -44 0 -44 77 7 c109 10 205 37 263 74 8
5 28 13 44 16 24 5 26 8 13 18 -8 7 -17 29 -20 49 -5 31 -2 38 15 44 16 5 18
8 7 15 -8 5 -27 9 -42 9 -15 0 -45 9 -66 19 -36 19 -154 46 -231 54 -24 3 -18
4 20 6 78 2 172 26 238 61 31 16 65 30 75 30 9 0 17 5 17 10 0 6 -7 10 -15 10
-10 0 -15 10 -15 29 0 16 -3 36 -6 45 -4 12 0 16 16 16 34 0 14 17 -27 23 -21
3 -71 17 -112 32 -49 17 -104 28 -163 32 l-88 6 0 -32z m180 -1 c25 -5 56 -13
70 -19 l25 -11 -27 3 c-15 1 -27 -1 -28 -5 -2 -45 -2 -45 67 -44 65 1 68 0 77
-27 14 -40 1 -46 -77 -38 -37 4 -69 6 -71 4 -2 -2 -1 -14 1 -28 5 -22 8 -23
57 -19 50 5 51 5 24 -11 -29 -16 -114 -39 -188 -50 l-45 -7 28 29 c57 61 56
156 -3 215 l-29 29 37 -6 c20 -4 57 -10 82 -15z m-73 -56 c-3 -3 -12 -4 -19
-1 -8 3 -5 6 6 6 11 1 17 -2 13 -5z m0 -110 c-3 -3 -12 -4 -19 -1 -8 3 -5 6 6
6 11 1 17 -2 13 -5z m92 -139 c80 -19 113 -36 55 -28 -41 5 -42 5 -37 -21 6
-27 6 -27 69 -21 61 7 64 6 75 -18 23 -50 7 -61 -75 -53 l-73 7 5 -27 c5 -25
7 -26 56 -21 l51 6 -35 -18 c-36 -19 -162 -51 -201 -51 -22 0 -22 0 4 28 33
34 49 85 41 129 -5 27 -11 33 -33 34 -25 1 -25 1 -3 8 l24 6 -26 28 -25 27 32
0 c18 0 61 -7 96 -15z m-86 -162 c-7 -2 -19 -2 -25 0 -7 3 -2 5 12 5 14 0 19
-2 13 -5z m-60 -10 c-7 -2 -19 -2 -25 0 -7 3 -2 5 12 5 14 0 19 -2 13 -5z"/>
<path d="M898 1210 l5 -32 -42 4 c-39 3 -41 2 -41 -25 0 -28 1 -29 41 -22 l40
7 -3 -34 c-3 -31 -5 -33 -41 -33 -34 0 -37 -2 -37 -29 0 -27 2 -28 36 -22 19
4 43 10 52 13 13 3 14 2 4 -4 -8 -6 -14 -37 -15 -84 l-2 -74 -37 3 c-35 3 -38
2 -38 -23 0 -25 3 -26 38 -23 36 3 37 2 37 -32 0 -34 -1 -35 -37 -32 -35 3
-38 2 -38 -23 0 -25 3 -26 38 -23 l37 3 -1 -44 -1 -43 71 7 c106 10 165 24
231 55 33 16 70 32 83 35 22 6 22 8 6 19 -9 7 -14 18 -10 24 3 6 2 22 -3 36
-9 21 -7 26 11 32 16 5 18 8 7 15 -8 5 -26 9 -40 9 -15 0 -51 11 -80 24 -30
14 -88 29 -129 35 -41 6 -86 13 -100 15 -14 2 0 4 30 5 78 2 172 26 238 61 31
16 65 30 75 30 9 0 17 5 17 10 0 6 -6 10 -14 10 -8 0 -13 9 -13 23 1 12 -2 32
-7 45 -6 18 -4 22 13 22 38 0 21 18 -21 23 -24 3 -76 17 -117 32 -49 17 -104
28 -161 32 l-87 6 5 -33z m205 -7 c68 -15 92 -29 37 -21 -27 4 -30 2 -30 -23
l0 -27 63 5 c69 6 91 -7 85 -49 -3 -22 -6 -23 -75 -19 l-73 3 0 -26 c0 -26 1
-27 53 -21 39 5 48 4 37 -4 -21 -15 -135 -48 -194 -56 l-50 -7 32 36 c54 61
51 147 -6 208 l-25 27 39 -5 c21 -3 69 -12 107 -21z m-106 -49 c-3 -3 -12 -4
-19 -1 -8 3 -5 6 6 6 11 1 17 -2 13 -5z m6 -111 c-7 -2 -19 -2 -25 0 -7 3 -2
5 12 5 14 0 19 -2 13 -5z m86 -138 c75 -18 115 -37 59 -28 -36 5 -38 4 -38
-22 l0 -27 65 7 c62 6 65 6 76 -19 22 -48 7 -60 -71 -52 l-70 6 0 -26 c0 -26
1 -26 53 -20 34 5 49 4 42 -3 -17 -16 -126 -49 -190 -56 l-60 -8 27 28 c34 34
52 87 44 131 -6 28 -11 34 -34 35 -26 1 -26 1 -4 8 l24 6 -22 28 -21 27 28 0
c15 0 57 -7 92 -15z m-146 -62 c-7 -2 -19 -2 -25 0 -7 3 -2 5 12 5 14 0 19 -2
13 -5z m60 -100 c-7 -2 -19 -2 -25 0 -7 3 -2 5 12 5 14 0 19 -2 13 -5z m-56
-9 c-3 -3 -12 -4 -19 -1 -8 3 -5 6 6 6 11 1 17 -2 13 -5z"/>
<path d="M392 592 c-7 -2 -12 -20 -12 -39 l0 -36 -40 6 c-37 5 -40 3 -40 -19
0 -21 4 -24 39 -24 38 0 39 -1 43 -39 2 -23 -1 -37 -7 -36 -5 2 -25 6 -42 9
-30 5 -33 3 -33 -20 0 -24 3 -26 43 -23 l42 4 -4 -39 -3 -39 143 6 c347 14
559 98 467 184 -35 32 -159 70 -288 87 -116 15 -287 25 -308 18z m313 -33 c39
-5 95 -16 125 -24 l55 -14 -57 4 c-57 3 -58 3 -58 -22 l0 -26 98 6 c90 6 101
5 116 -12 14 -15 15 -24 7 -39 -18 -34 -34 -35 -183 -17 -35 5 -38 3 -38 -20
0 -23 3 -25 53 -26 47 -1 49 -2 22 -10 -43 -13 -215 -36 -324 -44 l-95 -7 27
32 c33 38 34 50 5 42 -14 -3 -19 -2 -14 6 4 7 16 12 27 12 18 0 20 6 17 48 -3
42 -5 47 -25 44 -29 -4 -30 6 -2 16 21 8 20 9 -7 42 l-28 33 104 -7 c58 -4
137 -11 175 -17z"/>
</g>
</svg>
