<?xml version="1.0" standalone="no"?>
<!DOCTYPE svg PUBLIC "-//W3C//DTD SVG 20010904//EN"
 "http://www.w3.org/TR/2001/REC-SVG-20010904/DTD/svg10.dtd">
<svg version="1.0" xmlns="http://www.w3.org/2000/svg"
 width="141.000000pt" height="156.000000pt" viewBox="0 0 141.000000 156.000000"
 preserveAspectRatio="xMidYMid meet">
<metadata>
Created by potrace 1.16, written by Peter Selinger 2001-2019
</metadata>
<g transform="translate(0.000000,156.000000) scale(0.100000,-0.100000)"
fill="#000000" stroke="none">
<path d="M302 1114 l3 -149 65 3 c121 6 227 38 278 85 l22 20 0 -55 0 -55 43
3 c110 9 147 15 202 34 70 24 123 62 131 95 5 18 13 25 33 26 l26 1 -30 11
c-17 7 -41 22 -52 34 -12 12 -36 29 -53 38 -50 26 -178 55 -242 55 l-58 0 0
-51 0 -50 -35 26 c-48 37 -145 65 -248 72 l-88 6 3 -149z m200 110 c65 -15
128 -45 147 -68 12 -14 4 -16 -80 -16 -113 0 -136 6 -145 33 -4 12 -20 34 -37
50 l-30 28 44 -7 c24 -3 70 -12 101 -20z m373 -1 c63 -15 145 -57 145 -73 0
-11 -150 -14 -199 -4 -17 4 -31 13 -31 20 0 7 -14 29 -30 48 l-30 34 42 -5
c24 -3 70 -12 103 -20z m-205 -114 c0 -6 -15 -26 -33 -44 -36 -36 -123 -68
-219 -79 l-58 -7 30 30 c17 16 33 43 36 60 7 34 20 38 124 44 30 2 70 4 88 5
18 1 32 -3 32 -9z m360 0 c0 -44 -76 -89 -193 -113 -106 -22 -110 -21 -77 14
16 17 31 44 35 60 7 34 19 38 115 43 36 2 77 4 93 5 15 1 27 -3 27 -9z"/>
<path d="M300 772 l0 -149 58 4 c132 8 242 41 290 86 l24 22 -3 -55 -3 -55 69
4 c150 7 286 61 307 121 7 20 18 30 36 33 27 4 26 4 -6 12 -18 4 -37 15 -42
24 -25 47 -185 100 -302 101 l-58 0 0 -50 0 -50 -42 30 c-53 37 -179 70 -265
70 l-63 0 0 -148z m204 112 c71 -17 118 -39 142 -65 17 -19 16 -19 -62 -19
-122 0 -150 7 -165 42 -6 16 -23 38 -37 49 l-26 20 45 -6 c24 -4 70 -13 103
-21z m371 0 c62 -15 145 -58 145 -74 0 -11 -134 -13 -192 -4 -22 4 -38 12 -38
20 0 7 -14 29 -30 48 l-30 34 42 -5 c24 -3 70 -11 103 -19z m-205 -113 c0 -21
-52 -70 -92 -86 -38 -15 -171 -45 -200 -45 -5 0 2 14 17 31 14 18 29 45 32 61
6 31 18 36 98 40 28 2 71 4 98 6 26 2 47 -1 47 -7z m360 -2 c0 -52 -107 -104
-255 -124 l-50 -7 26 24 c15 14 33 41 40 62 14 40 23 44 109 49 118 7 130 7
130 -4z"/>
<path d="M310 445 l0 -145 89 0 c200 0 458 52 514 104 14 13 43 28 64 34 l38
10 -37 1 c-26 1 -40 7 -48 21 -33 61 -288 119 -522 120 l-98 0 0 -145z m358
110 c138 -23 252 -65 252 -94 0 -8 -154 -7 -392 3 -87 3 -88 3 -88 -20 l0 -24
243 6 242 5 -23 -20 c-49 -43 -230 -83 -442 -97 l-104 -7 26 31 c49 58 49 156
0 214 l-26 31 112 -7 c62 -4 152 -14 200 -21z"/>
</g>
</svg>
