<?xml version="1.0" standalone="no"?>
<!DOCTYPE svg PUBLIC "-//W3C//DTD SVG 20010904//EN"
 "http://www.w3.org/TR/2001/REC-SVG-20010904/DTD/svg10.dtd">
<svg version="1.0" xmlns="http://www.w3.org/2000/svg"
 width="132.000000pt" height="171.000000pt" viewBox="0 0 132.000000 171.000000"
 preserveAspectRatio="xMidYMid meet">
<metadata>
Created by potrace 1.16, written by Peter Selinger 2001-2019
</metadata>
<g transform="translate(0.000000,171.000000) scale(0.100000,-0.100000)"
fill="#000000" stroke="none">
<path d="M360 1360 l0 -49 -30 6 c-27 5 -30 3 -30 -21 0 -22 4 -26 30 -26 28
0 30 -3 30 -35 0 -33 -1 -34 -30 -28 -27 5 -30 3 -30 -21 0 -22 4 -26 30 -26
28 0 30 -3 30 -35 l0 -35 105 0 105 0 0 40 c0 38 2 40 29 40 43 0 47 18 6 26
-33 6 -35 9 -35 45 0 36 2 39 29 39 43 0 47 18 6 26 -34 6 -35 7 -35 55 l0 49
-105 0 -105 0 0 -50z"/>
<path d="M741 1363 l3 -48 -32 3 c-28 3 -32 0 -32 -22 0 -23 4 -26 33 -26 32
0 33 -1 29 -36 -4 -33 -6 -35 -33 -29 -26 6 -29 4 -29 -19 0 -23 4 -26 33 -26
30 0 32 -2 32 -32 l0 -33 103 -3 102 -3 0 41 c0 38 2 40 30 40 17 0 30 5 30
10 0 6 -13 13 -30 17 -27 5 -30 9 -30 44 0 37 2 39 30 39 17 0 30 5 30 10 0 6
-13 13 -30 17 -28 5 -30 8 -30 54 l0 49 -106 0 -106 0 3 -47z"/>
<path d="M367 1003 c-4 -3 -7 -26 -7 -51 0 -44 -1 -44 -30 -40 -27 4 -30 2
-30 -23 0 -26 2 -28 30 -22 29 5 30 4 30 -32 0 -36 -1 -37 -30 -33 -27 4 -30
2 -30 -23 0 -26 2 -28 29 -23 28 6 30 5 33 -32 l3 -39 100 0 100 0 3 35 c4 38
15 50 50 50 12 0 22 5 22 10 0 6 -16 10 -35 10 -34 0 -35 1 -35 39 0 40 11 51
51 51 32 0 21 19 -13 22 -32 3 -33 4 -36 56 l-3 52 -98 0 c-54 0 -101 -3 -104
-7z"/>
<path d="M747 1003 c-4 -3 -7 -26 -7 -51 0 -44 -1 -44 -30 -40 -27 4 -30 2
-30 -24 0 -26 3 -28 26 -22 31 8 43 -6 36 -43 -4 -21 -9 -24 -33 -21 -26 4
-29 2 -29 -23 0 -24 3 -27 32 -25 30 1 32 -1 32 -34 l1 -35 100 0 100 0 3 37
c3 31 7 38 33 43 38 9 38 25 -1 25 -28 0 -30 2 -30 40 0 37 3 41 30 47 38 7
39 21 3 25 -26 3 -28 7 -31 56 l-3 52 -98 0 c-54 0 -101 -3 -104 -7z"/>
<path d="M360 569 l0 -51 -30 7 c-27 6 -30 4 -30 -19 0 -22 4 -26 30 -26 28 0
30 -3 30 -35 0 -33 -1 -34 -30 -28 -27 5 -30 3 -30 -21 0 -22 4 -26 30 -26 28
0 30 -3 30 -35 l0 -35 105 0 105 0 0 40 c0 38 2 40 29 40 43 0 47 18 6 26 -33
6 -35 9 -35 45 0 36 2 39 29 39 43 0 47 18 6 26 -34 6 -35 7 -35 55 l0 49
-105 0 -105 0 0 -51z"/>
</g>
</svg>
