<?xml version="1.0" standalone="no"?>
<!DOCTYPE svg PUBLIC "-//W3C//DTD SVG 20010904//EN"
 "http://www.w3.org/TR/2001/REC-SVG-20010904/DTD/svg10.dtd">
<svg version="1.0" xmlns="http://www.w3.org/2000/svg"
 width="123.000000pt" height="148.000000pt" viewBox="0 0 123.000000 148.000000"
 preserveAspectRatio="xMidYMid meet">
<metadata>
Created by potrace 1.16, written by Peter Selinger 2001-2019
</metadata>
<g transform="translate(0.000000,148.000000) scale(0.100000,-0.100000)"
fill="#000000" stroke="none">
<path d="M366 1161 c-89 -59 -88 -198 3 -246 38 -19 104 -19 142 0 89 47 93
193 6 245 -42 26 -113 26 -151 1z m41 -133 c-3 -7 -5 -2 -5 12 0 14 2 19 5 13
2 -7 2 -19 0 -25z m66 25 c-7 -2 -19 -2 -25 0 -7 3 -2 5 12 5 14 0 19 -2 13
-5z m-16 -29 c-3 -3 -12 -4 -19 -1 -8 3 -5 6 6 6 11 1 17 -2 13 -5z"/>
<path d="M723 1160 c-86 -52 -86 -188 0 -240 38 -24 106 -26 146 -6 57 30 83
110 39 119 l-23 4 23 2 c18 1 22 7 22 34 -1 87 -123 139 -207 87z m110 -107
c-7 -2 -19 -2 -25 0 -7 3 -2 5 12 5 14 0 19 -2 13 -5z"/>
<path d="M363 860 c-89 -54 -82 -200 11 -244 99 -47 206 17 206 122 0 86 -54
142 -137 142 -30 0 -60 -7 -80 -20z m65 -133 c12 -3 10 -5 -5 -6 -19 -1 -23 4
-22 27 1 22 2 23 6 5 2 -12 12 -24 21 -26z m105 26 c-13 -2 -33 -2 -45 0 -13
2 -3 4 22 4 25 0 35 -2 23 -4z m-6 -19 c-3 -3 -12 -4 -19 -1 -8 3 -5 6 6 6 11
1 17 -2 13 -5z"/>
<path d="M734 870 c-12 -4 -31 -20 -42 -35 -77 -97 -17 -235 101 -235 47 0
101 24 121 54 16 25 19 140 4 169 -24 47 -123 72 -184 47z m154 -117 c-10 -2
-28 -2 -40 0 -13 2 -5 4 17 4 22 1 32 -1 23 -4z m-1 -19 c-3 -3 -12 -4 -19 -1
-8 3 -5 6 6 6 11 1 17 -2 13 -5z m-100 -10 c-3 -3 -12 -4 -19 -1 -8 3 -5 6 6
6 11 1 17 -2 13 -5z"/>
<path d="M375 551 c-46 -28 -66 -56 -72 -100 -7 -52 1 -83 33 -120 25 -30 29
-31 103 -31 73 0 79 2 106 30 23 24 30 41 33 88 4 52 1 61 -23 90 -52 62 -122
79 -180 43z m58 -108 c-7 -2 -19 -2 -25 0 -7 3 -2 5 12 5 14 0 19 -2 13 -5z
m54 -29 c-3 -3 -12 -4 -19 -1 -8 3 -5 6 6 6 11 1 17 -2 13 -5z"/>
</g>
</svg>
