<?xml version="1.0" standalone="no"?>
<!DOCTYPE svg PUBLIC "-//W3C//DTD SVG 20010904//EN"
 "http://www.w3.org/TR/2001/REC-SVG-20010904/DTD/svg10.dtd">
<svg version="1.0" xmlns="http://www.w3.org/2000/svg"
 width="111.000000pt" height="220.000000pt" viewBox="0 0 111.000000 220.000000"
 preserveAspectRatio="xMidYMid meet">
<metadata>
Created by potrace 1.16, written by Peter Selinger 2001-2019
</metadata>
<g transform="translate(0.000000,220.000000) scale(0.100000,-0.100000)"
fill="#000000" stroke="none">
<path d="M300 1750 c0 -168 -6 -157 82 -139 66 14 122 42 150 75 l22 24 30
-29 c17 -16 45 -35 61 -44 27 -13 120 -37 145 -37 6 0 10 62 10 151 l0 152
-53 -6 c-65 -6 -140 -40 -169 -76 l-21 -26 -37 35 c-40 39 -120 70 -181 70
l-39 0 0 -150z m152 108 c56 -24 86 -54 94 -96 6 -28 1 -37 -33 -71 -37 -37
-116 -71 -165 -71 -18 0 -18 1 -1 27 24 36 25 165 2 210 l-17 31 37 -5 c20 -3
57 -14 83 -25z m313 9 c-30 -47 -30 -155 1 -231 7 -17 4 -18 -32 -12 -103 19
-181 83 -170 140 13 63 88 108 209 125 4 1 1 -9 -8 -22z"/>
<path d="M300 1430 l0 -153 56 7 c72 8 148 41 177 76 l23 27 18 -25 c24 -32
112 -71 175 -79 l51 -6 0 152 0 151 -24 0 c-51 0 -156 -41 -189 -73 l-32 -33
-32 32 c-34 34 -98 60 -175 70 l-48 7 0 -153z m171 94 c35 -17 55 -35 67 -60
16 -34 15 -37 -3 -72 -23 -41 -90 -81 -154 -89 -23 -3 -41 -3 -41 -1 0 3 7 22
15 41 19 45 19 120 0 172 -8 22 -15 42 -15 44 0 10 88 -13 131 -35z m299 34
c0 -2 -7 -21 -15 -43 -19 -52 -19 -127 0 -172 8 -19 15 -38 15 -41 0 -12 -86
8 -129 30 -62 32 -90 82 -72 126 14 33 59 66 120 88 32 12 81 18 81 12z"/>
<path d="M300 1105 l0 -145 45 0 c62 0 148 35 181 73 l28 32 36 -36 c38 -39
115 -69 177 -69 l33 0 0 145 0 145 -40 0 c-55 0 -141 -34 -175 -70 l-29 -30
-31 30 c-39 38 -121 70 -180 70 l-45 0 0 -145z m134 114 c53 -14 116 -77 116
-114 0 -43 -64 -98 -137 -118 -81 -23 -87 -22 -66 10 26 39 25 178 -1 217
l-18 29 33 -7 c18 -3 51 -11 73 -17z m329 -6 c-26 -39 -25 -178 0 -217 l19
-28 -34 7 c-79 16 -114 31 -150 66 -47 45 -49 76 -7 124 29 33 121 73 172 74
17 1 17 0 0 -26z"/>
<path d="M300 771 c0 -172 -7 -161 92 -140 62 13 133 51 148 79 10 19 12 18
45 -15 35 -34 138 -75 191 -75 l24 0 0 151 0 152 -52 -7 c-67 -9 -150 -46
-174 -78 l-18 -25 -23 27 c-29 35 -105 68 -177 76 l-56 7 0 -152z m169 97 c29
-15 53 -37 66 -60 18 -35 19 -38 3 -72 -20 -40 -90 -81 -159 -92 -39 -7 -42
-6 -34 12 30 70 30 158 0 228 -8 17 -5 19 34 13 24 -3 64 -16 90 -29z m296 15
c-30 -68 -29 -158 0 -227 8 -18 5 -19 -35 -12 -102 16 -180 84 -165 143 13 53
104 110 179 112 23 1 27 -2 21 -16z"/>
<path d="M300 454 c0 -133 2 -145 17 -142 30 6 48 57 48 138 0 56 -5 83 -18
103 -17 26 -17 27 1 27 49 0 128 -34 165 -71 34 -34 39 -43 33 -71 -11 -54
-67 -97 -153 -117 l-38 -9 34 -1 c43 -1 113 32 143 68 l23 27 22 -27 c29 -34
104 -69 145 -68 l33 1 -38 9 c-85 20 -142 63 -153 116 -11 56 65 119 171 139
35 6 38 5 31 -12 -21 -51 -28 -94 -23 -147 5 -56 27 -107 47 -107 6 0 10 57
10 145 0 80 -1 145 -3 145 -2 0 -30 -5 -62 -11 -70 -13 -127 -40 -157 -75
l-22 -24 -30 29 c-40 37 -78 56 -144 70 -88 18 -82 29 -82 -135z"/>
</g>
</svg>
