<?xml version="1.0" standalone="no"?>
<!DOCTYPE svg PUBLIC "-//W3C//DTD SVG 20010904//EN"
 "http://www.w3.org/TR/2001/REC-SVG-20010904/DTD/svg10.dtd">
<svg version="1.0" xmlns="http://www.w3.org/2000/svg"
 width="185.000000pt" height="243.000000pt" viewBox="0 0 185.000000 243.000000"
 preserveAspectRatio="xMidYMid meet">
<metadata>
Created by potrace 1.16, written by Peter Selinger 2001-2019
</metadata>
<g transform="translate(0.000000,243.000000) scale(0.100000,-0.100000)"
fill="#000000" stroke="none">
<path d="M390 2014 l0 -116 -45 4 c-44 3 -45 2 -45 -25 0 -28 1 -28 45 -21
l45 6 0 -36 0 -36 -45 0 c-42 0 -45 -2 -45 -26 0 -24 2 -25 45 -18 l45 6 0
-102 0 -103 86 7 c219 18 412 110 459 219 13 29 14 22 15 -97 l0 -129 86 7
c179 15 333 73 415 157 26 27 59 51 73 55 31 7 35 24 6 24 -17 0 -20 7 -20 41
0 32 4 42 20 46 28 7 25 23 -5 23 -14 0 -25 4 -25 9 0 20 -85 102 -133 129
-95 54 -245 92 -359 92 l-58 0 0 -127 c-1 -123 -1 -127 -16 -93 -19 43 -46 73
-101 111 -86 59 -261 109 -384 109 l-59 0 0 -116z m235 75 c202 -48 336 -167
309 -274 l-6 -26 -99 7 -99 7 0 -26 c0 -25 1 -25 58 -21 31 3 72 7 90 9 17 2
32 0 32 -4 0 -4 -17 -25 -37 -46 -66 -66 -214 -125 -353 -141 l-59 -7 39 42
c112 117 104 375 -15 479 l-35 32 47 -6 c27 -3 84 -14 128 -25z m564 0 c103
-24 209 -78 258 -133 l38 -41 -63 -3 c-59 -3 -63 -5 -60 -25 3 -21 7 -22 71
-18 66 3 67 3 67 -22 0 -49 -6 -52 -76 -49 -64 4 -66 3 -62 -20 3 -21 7 -23
56 -20 51 4 53 3 43 -15 -36 -69 -222 -151 -383 -169 l-62 -7 36 31 c19 18 46
56 59 84 20 45 24 69 24 158 0 121 -19 177 -82 242 l-36 36 44 -5 c24 -3 82
-14 128 -24z m-712 -215 c-3 -3 -12 -4 -19 -1 -8 3 -5 6 6 6 11 1 17 -2 13 -5z
m0 -110 c-3 -3 -12 -4 -19 -1 -8 3 -5 6 6 6 11 1 17 -2 13 -5z"/>
<path d="M730 1888 c0 -30 1 -30 148 -12 47 6 58 24 15 25 -16 0 -58 3 -95 8
l-68 7 0 -28z"/>
<path d="M390 1385 l0 -115 -45 0 c-41 0 -45 -2 -45 -25 0 -23 2 -24 45 -18
l45 6 0 -37 0 -36 -45 0 c-42 0 -45 -2 -45 -26 0 -24 2 -25 45 -18 l45 6 0
-101 0 -101 36 0 c50 0 169 19 234 37 128 36 244 115 276 187 12 28 13 19 14
-98 l0 -129 86 7 c179 15 333 73 415 157 26 27 59 51 73 55 31 7 35 24 6 24
-17 0 -20 7 -20 41 0 32 4 42 20 46 28 7 25 23 -5 23 -14 0 -25 4 -25 8 0 17
-74 94 -113 119 -89 56 -260 103 -378 103 l-59 0 0 -127 c-1 -123 -1 -127 -16
-93 -19 43 -46 73 -101 111 -86 59 -261 109 -384 109 l-59 0 0 -115z m220 79
c100 -21 227 -82 273 -133 40 -44 59 -98 50 -142 -6 -33 -8 -33 -130 -20 l-73
7 0 -27 c0 -27 0 -28 58 -23 31 3 72 7 90 9 17 2 32 0 32 -4 0 -18 -79 -85
-132 -112 -67 -34 -176 -66 -258 -75 l-59 -7 39 42 c112 117 103 376 -16 481
l-35 30 43 -5 c24 -4 77 -13 118 -21z m579 -5 c103 -24 209 -78 258 -133 l38
-41 -63 -3 c-59 -3 -63 -5 -60 -25 3 -21 7 -22 71 -18 66 3 67 3 67 -22 0 -49
-6 -52 -76 -49 -64 4 -66 3 -62 -20 3 -21 7 -23 56 -20 51 4 53 3 43 -15 -36
-69 -222 -151 -383 -169 l-62 -7 36 31 c19 18 46 56 59 84 20 45 24 69 24 158
0 121 -19 177 -82 242 l-36 36 44 -5 c24 -3 82 -14 128 -24z m-712 -215 c-3
-3 -12 -4 -19 -1 -8 3 -5 6 6 6 11 1 17 -2 13 -5z m0 -110 c-3 -3 -12 -4 -19
-1 -8 3 -5 6 6 6 11 1 17 -2 13 -5z"/>
<path d="M730 1259 c0 -27 0 -27 63 -23 92 7 127 14 127 24 0 6 -10 10 -22 11
-13 0 -56 4 -95 8 l-73 7 0 -27z"/>
<path d="M390 770 l0 -112 -45 6 c-43 7 -45 6 -45 -18 0 -24 3 -26 45 -26 l45
0 0 -36 0 -36 -45 6 c-43 7 -45 6 -45 -18 0 -24 3 -26 45 -26 l45 0 0 -105 0
-105 98 0 c304 0 657 86 774 189 20 17 43 31 51 31 9 0 19 5 22 10 3 6 0 10
-8 10 -20 0 -18 81 3 97 13 11 12 12 -4 13 -10 0 -39 16 -62 36 -126 103 -396
172 -741 190 l-133 7 0 -113z m329 74 c228 -26 451 -95 531 -164 l25 -22 -67
6 c-69 5 -80 0 -59 -32 6 -10 27 -13 77 -10 l69 3 3 -39 3 -39 -80 6 c-82 5
-93 1 -72 -32 7 -11 23 -13 66 -8 55 6 56 5 40 -13 -48 -53 -223 -117 -408
-150 -97 -17 -329 -41 -391 -40 -19 1 -20 1 -3 11 29 17 66 85 83 152 32 121
1 292 -63 359 l-27 28 70 0 c38 0 129 -7 203 -16z m-236 -201 c-7 -2 -19 -2
-25 0 -7 3 -2 5 12 5 14 0 19 -2 13 -5z m0 -110 c-7 -2 -19 -2 -25 0 -7 3 -2
5 12 5 14 0 19 -2 13 -5z"/>
</g>
</svg>
