<?xml version="1.0" standalone="no"?>
<!DOCTYPE svg PUBLIC "-//W3C//DTD SVG 20010904//EN"
 "http://www.w3.org/TR/2001/REC-SVG-20010904/DTD/svg10.dtd">
<svg version="1.0" xmlns="http://www.w3.org/2000/svg"
 width="233.000000pt" height="259.000000pt" viewBox="0 0 233.000000 259.000000"
 preserveAspectRatio="xMidYMid meet">
<metadata>
Created by potrace 1.16, written by Peter Selinger 2001-2019
</metadata>
<g transform="translate(0.000000,259.000000) scale(0.100000,-0.100000)"
fill="#000000" stroke="none">
<path d="M300 2000 l0 -290 388 2 387 3 3 288 2 287 -390 0 -390 0 0 -290z
m760 5 l0 -275 -315 0 -315 0 0 275 0 275 315 0 315 0 0 -275z"/>
<path d="M1252 2003 l3 -288 378 -3 c249 -1 377 1 377 8 0 6 -108 10 -310 10
l-310 0 0 275 0 275 313 3 312 2 -383 3 -382 2 2 -287z"/>
<path d="M300 1294 l0 -294 388 2 387 3 0 290 0 290 -387 2 -388 2 0 -295z
m760 1 l0 -275 -315 0 -315 0 0 275 0 275 315 0 315 0 0 -275z"/>
<path d="M1254 1577 c-2 -7 -3 -138 -2 -292 l3 -280 378 -3 c249 -1 377 1 377
8 0 6 -108 10 -310 10 l-310 0 0 275 0 275 310 0 c204 0 310 3 310 10 0 16
-750 13 -756 -3z"/>
<path d="M300 590 l0 -290 390 0 390 0 -2 288 -3 287 -387 3 -388 2 0 -290z
m760 -5 l0 -275 -315 0 -315 0 0 275 0 275 315 0 315 0 0 -275z"/>
</g>
</svg>
