<?xml version="1.0" standalone="no"?>
<!DOCTYPE svg PUBLIC "-//W3C//DTD SVG 20010904//EN"
 "http://www.w3.org/TR/2001/REC-SVG-20010904/DTD/svg10.dtd">
<svg version="1.0" xmlns="http://www.w3.org/2000/svg"
 width="172.000000pt" height="243.000000pt" viewBox="0 0 172.000000 243.000000"
 preserveAspectRatio="xMidYMid meet">
<metadata>
Created by potrace 1.16, written by Peter Selinger 2001-2019
</metadata>
<g transform="translate(0.000000,243.000000) scale(0.100000,-0.100000)"
fill="#000000" stroke="none">
<path d="M300 1840 l0 -293 83 6 c217 17 403 102 456 209 l21 43 0 -129 0
-129 88 7 c158 12 302 61 389 132 153 126 88 305 -142 389 -93 34 -196 55
-272 55 l-63 0 0 -127 0 -128 -21 42 c-54 110 -236 196 -446 210 l-93 6 0
-293z m288 235 c135 -42 229 -116 253 -198 40 -135 -153 -277 -413 -304 l-63
-6 32 27 c116 98 123 353 14 477 l-39 45 69 -8 c38 -5 104 -19 147 -33z m492
19 c100 -21 227 -82 273 -133 74 -82 72 -167 -7 -246 -24 -23 -72 -57 -108
-74 -70 -33 -212 -71 -267 -71 l-35 0 32 33 c58 60 77 119 77 237 0 121 -19
178 -82 242 l-36 37 39 -5 c21 -3 73 -12 114 -20z"/>
<path d="M300 1214 l0 -295 68 6 c144 13 239 38 331 84 57 30 125 94 142 134
13 30 14 24 19 -93 l5 -125 80 4 c206 9 414 107 461 218 70 163 -115 315 -429
353 -53 6 -101 9 -107 5 -6 -4 -10 -57 -10 -128 l-1 -122 -19 36 c-55 105
-215 184 -420 209 -46 5 -92 10 -102 10 -17 0 -18 -19 -18 -296z m240 249
c150 -35 275 -123 299 -209 39 -141 -145 -277 -419 -309 l-55 -6 26 23 c127
113 131 384 7 500 l-33 31 55 -7 c30 -4 84 -14 120 -23z m578 -4 c189 -48 308
-163 287 -277 -10 -51 -85 -126 -169 -168 -65 -32 -225 -74 -284 -74 -23 0
-23 1 7 25 115 97 122 370 12 485 l-39 41 56 -7 c32 -3 90 -15 130 -25z"/>
<path d="M300 590 l0 -293 153 6 c400 16 729 126 768 256 47 158 -286 293
-783 317 l-138 7 0 -293z m295 259 c278 -27 526 -109 591 -194 119 -156 -208
-307 -736 -340 l-104 -6 25 20 c14 11 39 48 55 83 26 58 29 72 28 173 0 123
-22 201 -69 245 -14 13 -25 26 -25 30 0 7 89 3 235 -11z"/>
</g>
</svg>
