<?xml version="1.0" standalone="no"?>
<!DOCTYPE svg PUBLIC "-//W3C//DTD SVG 20010904//EN"
 "http://www.w3.org/TR/2001/REC-SVG-20010904/DTD/svg10.dtd">
<svg version="1.0" xmlns="http://www.w3.org/2000/svg"
 width="240.000000pt" height="235.000000pt" viewBox="0 0 240.000000 235.000000"
 preserveAspectRatio="xMidYMid meet">
<metadata>
Created by potrace 1.16, written by Peter Selinger 2001-2019
</metadata>
<g transform="translate(0.000000,235.000000) scale(0.100000,-0.100000)"
fill="#000000" stroke="none">
<path d="M300 1470 l0 -583 153 6 c292 12 527 65 671 152 l57 34 -3 -96 -3
-96 155 6 c357 14 681 110 751 223 12 19 19 37 16 40 -2 2 -12 -8 -22 -23 -24
-39 -50 -58 -125 -97 -132 -68 -343 -112 -625 -131 l-99 -7 36 40 c47 52 71
131 71 237 0 97 -22 176 -64 235 l-31 43 118 -6 c224 -11 441 -55 577 -116 68
-31 147 -94 147 -117 0 -8 4 -14 9 -14 19 0 -3 41 -41 76 -80 72 -251 132
-473 165 -71 10 -154 19 -182 19 -90 0 -58 17 45 23 273 19 540 102 626 197
36 40 45 60 26 60 -5 0 -10 -6 -10 -14 0 -23 -80 -87 -147 -118 -133 -60 -439
-118 -622 -118 l-74 0 21 23 c54 58 88 203 72 314 -10 73 -41 148 -78 186
l-27 29 100 -7 c386 -25 683 -115 749 -225 10 -17 20 -29 23 -26 12 12 -37 71
-89 106 -132 88 -464 160 -738 160 l-95 0 3 -95 3 -94 -57 34 c-144 87 -379
140 -671 152 l-153 6 0 -583z m330 549 c205 -24 406 -81 498 -143 l47 -31 3
-80 c3 -73 1 -81 -20 -97 -111 -89 -393 -162 -673 -175 l-130 -6 28 30 c104
111 99 392 -9 500 l-25 25 98 -7 c54 -3 136 -11 183 -16z m549 -549 c0 -104
-2 -190 -4 -190 -2 0 -23 13 -47 28 -111 74 -424 152 -607 152 -28 0 -51 5
-51 10 0 6 23 10 51 10 184 0 501 79 604 151 22 15 43 28 47 28 4 1 7 -84 7
-189z m-449 -49 c195 -34 340 -83 422 -144 26 -20 28 -25 28 -98 0 -76 -1 -79
-32 -102 -77 -58 -214 -106 -391 -137 -101 -17 -310 -40 -378 -40 l-26 0 32
35 c50 52 70 122 70 240 0 117 -20 187 -69 243 l-31 35 130 -6 c72 -3 182 -15
245 -26z"/>
<path d="M671 1897 c-51 -18 -93 -75 -93 -128 -2 -94 59 -153 150 -146 45 3
59 9 89 39 105 106 -6 285 -146 235z"/>
<path d="M650 1302 c-124 -68 -77 -265 63 -265 90 0 152 67 144 156 -9 100
-119 158 -207 109z"/>
<path d="M1553 1899 c-43 -13 -91 -63 -99 -104 -29 -155 166 -241 257 -114 75
106 -32 255 -158 218z"/>
<path d="M1523 1300 c-126 -77 -74 -263 74 -263 110 0 178 132 114 222 -44 61
-126 79 -188 41z"/>
<path d="M300 590 l0 -293 153 6 c407 17 728 124 768 257 10 33 9 44 -8 77
-63 123 -378 220 -777 240 l-136 6 0 -293z m430 241 c379 -66 559 -191 450
-314 -83 -95 -340 -171 -664 -197 -178 -14 -169 -16 -132 23 50 53 71 126 71
242 0 117 -20 187 -69 243 l-31 35 130 -6 c72 -3 182 -15 245 -26z"/>
<path d="M643 711 c-54 -34 -80 -106 -60 -166 38 -117 193 -134 257 -29 34 54
25 124 -23 172 -30 30 -44 36 -89 39 -41 3 -60 -1 -85 -16z"/>
</g>
</svg>
