<?xml version="1.0" standalone="no"?>
<!DOCTYPE svg PUBLIC "-//W3C//DTD SVG 20010904//EN"
 "http://www.w3.org/TR/2001/REC-SVG-20010904/DTD/svg10.dtd">
<svg version="1.0" xmlns="http://www.w3.org/2000/svg"
 width="268.000000pt" height="255.000000pt" viewBox="0 0 268.000000 255.000000"
 preserveAspectRatio="xMidYMid meet">
<metadata>
Created by potrace 1.16, written by Peter Selinger 2001-2019
</metadata>
<g transform="translate(0.000000,255.000000) scale(0.100000,-0.100000)"
fill="#000000" stroke="none">
<path d="M360 2139 l0 -111 -30 6 c-28 5 -30 3 -30 -24 0 -27 2 -29 30 -23 29
5 30 4 30 -32 0 -36 -1 -37 -30 -33 -27 4 -30 2 -30 -23 0 -26 2 -28 30 -22
l30 6 0 -108 0 -108 140 6 c359 17 655 98 753 207 109 119 -19 239 -338 316
-125 30 -329 54 -457 54 l-98 0 0 -111z m360 76 c269 -34 492 -117 544 -205
85 -146 -242 -291 -715 -318 l-125 -7 33 43 c50 65 66 136 61 256 -6 111 -28
179 -76 229 l-27 29 95 -7 c52 -3 147 -13 210 -20z m-245 -205 c3 -5 -1 -10
-9 -10 -8 0 -18 5 -21 10 -3 6 1 10 9 10 8 0 18 -4 21 -10z m0 -110 c3 -5 -3
-10 -15 -10 -12 0 -18 5 -15 10 3 6 10 10 15 10 5 0 12 -4 15 -10z"/>
<path d="M704 2081 c-43 -26 -68 -82 -61 -139 14 -123 183 -167 255 -65 44 64
35 141 -23 192 -30 26 -44 31 -88 31 -33 0 -63 -7 -83 -19z"/>
<path d="M1006 2043 c-2 -2 -1 -14 1 -27 4 -21 9 -23 56 -19 96 7 137 14 137
24 0 5 -10 9 -22 10 -13 0 -56 4 -96 8 -40 4 -74 5 -76 4z"/>
<path d="M1010 1908 c0 -30 1 -30 148 -12 44 5 59 24 20 25 -13 0 -56 4 -95 8
l-73 7 0 -28z"/>
<path d="M1450 2139 l0 -111 -30 4 c-27 4 -30 2 -30 -23 0 -26 2 -28 30 -22
29 5 30 4 30 -32 0 -36 -1 -37 -30 -33 -27 4 -30 2 -30 -23 0 -26 2 -28 30
-22 l30 6 0 -108 0 -108 140 6 c706 32 1032 293 588 470 -149 60 -428 107
-630 107 l-98 0 0 -111z m330 80 c172 -19 354 -65 460 -119 59 -29 118 -86
125 -121 30 -135 -296 -264 -726 -287 l-126 -7 29 36 c91 113 90 366 -2 481
l-32 39 89 -6 c48 -3 131 -11 183 -16z m-215 -209 c3 -5 -3 -10 -15 -10 -12 0
-18 5 -15 10 3 6 10 10 15 10 5 0 12 -4 15 -10z m0 -110 c3 -5 -1 -10 -9 -10
-9 0 -16 5 -16 10 0 6 4 10 9 10 6 0 13 -4 16 -10z"/>
<path d="M1792 2080 c-59 -36 -79 -124 -44 -189 36 -67 133 -91 200 -51 62 38
85 138 46 198 -40 60 -138 81 -202 42z"/>
<path d="M2096 2043 c-2 -2 -1 -14 1 -27 4 -21 9 -23 56 -19 96 7 137 14 137
24 0 5 -10 9 -22 10 -13 0 -56 4 -96 8 -40 4 -74 5 -76 4z"/>
<path d="M2095 1930 c-2 -4 -2 -16 1 -27 6 -21 29 -22 152 -7 44 5 59 24 20
25 -13 0 -56 4 -96 8 -40 4 -75 4 -77 1z"/>
<path d="M360 1451 l0 -111 -30 0 c-26 0 -30 -4 -30 -26 0 -23 3 -26 30 -22
29 4 30 3 30 -32 0 -35 -1 -36 -30 -32 -27 4 -30 2 -30 -23 0 -25 3 -27 30
-23 l30 5 0 -104 0 -103 108 0 c211 0 485 48 636 110 131 55 186 110 186 186
0 32 -8 45 -48 84 -109 105 -385 178 -744 196 l-138 7 0 -112z m295 79 c512
-57 762 -229 543 -374 -128 -85 -368 -142 -673 -161 l-110 -7 27 28 c49 52 71
119 76 225 6 132 -26 237 -86 287 -13 10 -2 12 59 12 41 0 115 -5 164 -10z
m-172 -217 c-7 -2 -19 -2 -25 0 -7 3 -2 5 12 5 14 0 19 -2 13 -5z m0 -110 c-7
-2 -19 -2 -25 0 -7 3 -2 5 12 5 14 0 19 -2 13 -5z"/>
<path d="M712 1390 c-50 -30 -74 -76 -69 -131 11 -129 161 -181 245 -85 41 47
48 94 23 151 -35 79 -126 109 -199 65z"/>
<path d="M1010 1324 l0 -24 83 6 c142 11 138 27 -10 38 -72 5 -73 5 -73 -20z"/>
<path d="M1008 1215 l5 -26 81 7 c142 12 133 25 -25 39 l-66 5 5 -25z"/>
<path d="M1450 1448 l0 -115 -30 5 c-27 4 -30 2 -30 -23 0 -25 3 -27 30 -23
29 4 30 3 30 -32 0 -35 -1 -36 -30 -32 -27 4 -30 2 -30 -23 0 -25 3 -27 30
-23 l30 5 0 -104 0 -103 105 0 c271 0 576 64 721 151 68 41 104 90 104 141 0
141 -335 260 -797 284 l-133 7 0 -115z m435 62 c211 -36 365 -93 436 -160 48
-45 56 -77 33 -125 -53 -113 -353 -207 -739 -231 l-110 -6 27 28 c15 16 37 52
50 79 20 43 23 66 23 170 0 104 -3 127 -23 170 -13 28 -35 63 -50 79 l-27 29
130 -6 c72 -4 184 -16 250 -27z m-312 -197 c-7 -2 -19 -2 -25 0 -7 3 -2 5 12
5 14 0 19 -2 13 -5z m0 -110 c-7 -2 -19 -2 -25 0 -7 3 -2 5 12 5 14 0 19 -2
13 -5z"/>
<path d="M1805 1391 c-52 -31 -68 -58 -72 -114 -5 -68 20 -111 82 -138 57 -25
104 -18 151 23 75 66 60 189 -29 232 -46 21 -95 20 -132 -3z"/>
<path d="M2094 1335 c3 -9 6 -21 6 -26 0 -11 157 -1 180 11 16 9 -14 15 -124
25 -60 5 -68 4 -62 -10z"/>
<path d="M2094 1225 c3 -9 6 -21 6 -27 0 -11 156 0 180 12 16 9 -14 15 -124
25 -60 5 -68 4 -62 -10z"/>
<path d="M360 770 l0 -112 -30 4 c-28 4 -30 2 -30 -25 0 -27 2 -29 29 -24 27
6 29 4 33 -31 3 -37 3 -37 -29 -34 -30 4 -33 2 -33 -23 0 -25 3 -27 30 -21
l30 6 0 -105 0 -105 98 0 c276 0 623 77 747 165 256 182 -91 384 -707 412
l-138 6 0 -113z m417 65 c356 -56 556 -177 487 -295 -66 -111 -359 -199 -754
-225 l-95 -6 27 28 c98 102 106 366 14 487 l-32 41 125 -7 c70 -4 172 -14 228
-23z m-294 -202 c-7 -2 -19 -2 -25 0 -7 3 -2 5 12 5 14 0 19 -2 13 -5z m-80
-10 c-7 -2 -19 -2 -25 0 -7 3 -2 5 12 5 14 0 19 -2 13 -5z m80 -100 c-7 -2
-19 -2 -25 0 -7 3 -2 5 12 5 14 0 19 -2 13 -5z m-76 -9 c-3 -3 -12 -4 -19 -1
-8 3 -5 6 6 6 11 1 17 -2 13 -5z"/>
<path d="M730 723 c-23 -9 -60 -45 -76 -75 -31 -60 -7 -142 53 -179 50 -31
132 -23 173 16 94 90 31 247 -97 244 -21 0 -45 -3 -53 -6z"/>
<path d="M1010 646 l0 -27 63 6 c156 15 165 30 25 41 l-88 6 0 -26z"/>
<path d="M1010 535 c0 -26 0 -26 63 -20 155 15 164 29 25 39 l-88 7 0 -26z"/>
</g>
</svg>
