<?xml version="1.0" standalone="no"?>
<!DOCTYPE svg PUBLIC "-//W3C//DTD SVG 20010904//EN"
 "http://www.w3.org/TR/2001/REC-SVG-20010904/DTD/svg10.dtd">
<svg version="1.0" xmlns="http://www.w3.org/2000/svg"
 width="183.000000pt" height="238.000000pt" viewBox="0 0 183.000000 238.000000"
 preserveAspectRatio="xMidYMid meet">
<metadata>
Created by potrace 1.16, written by Peter Selinger 2001-2019
</metadata>
<g transform="translate(0.000000,238.000000) scale(0.100000,-0.100000)"
fill="#000000" stroke="none">
<path d="M302 2037 c7 -60 36 -115 85 -164 59 -56 59 -90 0 -146 -49 -49 -78
-104 -85 -164 l-5 -43 292 0 c330 0 304 -8 276 88 -10 34 -32 69 -65 105 -67
74 -67 100 0 174 33 36 55 71 65 105 28 96 54 88 -276 88 l-292 0 5 -43z m34
-6 c5 -5 26 -14 47 -21 36 -11 37 -13 37 -58 0 -26 3 -58 7 -72 6 -24 6 -24
-18 -9 -13 9 -38 39 -55 68 -42 68 -53 124 -18 92z m504 -59 c-12 -27 -37 -64
-56 -83 l-34 -33 0 70 0 69 53 20 c28 11 53 17 55 13 2 -3 -6 -29 -18 -56z
m-345 -57 c4 -42 5 -78 2 -81 -12 -12 -45 7 -42 24 2 9 4 43 4 75 1 42 5 57
15 57 10 0 16 -20 21 -75z m223 0 c2 -57 0 -72 -14 -82 -29 -21 -34 -16 -34
35 0 80 11 123 29 120 13 -3 17 -18 19 -73z m-154 34 c3 -17 6 -56 6 -86 0
-51 -2 -54 -22 -51 -13 2 -23 9 -22 16 1 6 2 44 3 82 1 52 5 70 15 70 7 0 16
-14 20 -31z m76 -54 c0 -85 0 -85 -26 -85 -20 0 -25 4 -20 16 3 9 6 47 6 85 0
62 2 69 20 69 18 0 20 -7 20 -85z m-147 -85 c13 -1 -22 -30 -35 -30 -4 0 -8 9
-8 21 0 15 4 19 16 15 9 -3 21 -6 27 -6z m227 -11 c0 -15 -4 -19 -16 -15 -9 3
-20 6 -25 6 -16 0 -10 18 9 23 30 8 32 7 32 -14z m-150 -94 c0 -84 0 -85 -25
-85 -25 0 -25 1 -25 85 0 84 0 85 25 85 25 0 25 -1 25 -85z m74 33 c3 -29 6
-68 6 -85 0 -30 -3 -33 -30 -33 l-30 0 0 85 c0 83 1 85 24 85 21 0 24 -6 30
-52z m57 32 c16 -9 19 -22 19 -85 0 -74 -3 -81 -34 -69 -13 5 -16 22 -16 85 0
43 3 79 6 79 3 0 14 -5 25 -10z m-201 -80 c0 -79 0 -80 -25 -80 -24 0 -25 2
-25 74 0 73 4 83 38 85 9 1 12 -21 12 -79z m-70 -20 c0 -57 -3 -70 -15 -70 -9
0 -35 -9 -57 -20 -23 -11 -43 -20 -44 -20 -8 0 19 68 41 105 20 36 59 75 72
75 2 0 3 -31 3 -70z m357 38 c30 -31 72 -109 73 -135 0 -8 -14 -6 -42 7 -24
11 -51 20 -60 20 -15 0 -18 10 -18 70 0 39 4 70 8 70 4 0 22 -15 39 -32z"/>
<path d="M950 2061 c0 -48 36 -126 82 -176 65 -72 65 -99 -2 -172 -33 -36 -55
-71 -65 -105 -28 -96 -54 -88 275 -88 l290 0 0 28 c0 56 -31 122 -81 172 -65
65 -66 95 -6 153 49 49 78 104 85 164 l5 43 -292 0 c-278 0 -291 -1 -291 -19z
m130 -135 l0 -70 -31 30 c-29 27 -79 115 -79 140 0 7 20 4 55 -10 l55 -21 0
-69z m430 83 c-18 -63 -91 -161 -107 -145 -2 2 -1 33 3 69 7 64 7 65 45 76 21
6 41 16 44 21 14 22 23 8 15 -21z m-360 -104 c0 -83 -1 -85 -20 -75 -17 9 -20
21 -20 70 0 67 7 90 26 90 11 0 14 -19 14 -85z m220 6 c0 -70 -2 -79 -20 -84
-19 -5 -20 0 -20 72 0 79 3 91 27 91 10 0 13 -20 13 -79z m-150 -16 c0 -78 -2
-85 -20 -85 -18 0 -20 7 -20 69 0 78 6 101 26 101 11 0 14 -19 14 -85z m80 0
c0 -84 0 -85 -25 -85 -24 0 -25 2 -25 63 0 81 8 107 31 107 17 0 19 -8 19 -85z
m-160 -85 c13 -9 13 -11 0 -20 -22 -15 -30 -12 -30 10 0 22 8 25 30 10z m230
-9 c0 -14 -5 -18 -20 -14 -25 7 -26 20 -2 26 9 3 18 5 20 6 1 0 2 -8 2 -18z
m-150 -35 c0 -12 3 -51 6 -85 l7 -61 -29 0 -29 0 3 85 c3 76 5 85 23 85 13 0
19 -7 19 -24z m80 -61 c0 -83 -1 -85 -24 -85 -31 0 -32 4 -28 95 3 72 5 75 28
75 24 0 24 -2 24 -85z m-144 -81 c-3 -8 -17 -14 -30 -14 -25 0 -25 1 -19 73 4
49 10 76 22 85 14 12 17 6 24 -59 4 -39 6 -78 3 -85z m197 145 c22 -10 24 -17
26 -85 2 -77 -2 -84 -43 -68 -13 5 -16 22 -16 85 0 43 2 79 5 79 2 0 15 -5 28
-11z m-265 -137 c-2 -18 -16 -28 -60 -46 -36 -15 -58 -19 -58 -12 1 25 43 103
73 134 l32 33 8 -43 c4 -24 6 -53 5 -66z m378 48 c23 -35 56 -111 50 -117 -1
-2 -20 6 -41 17 -22 11 -47 20 -57 20 -16 0 -18 9 -18 70 0 68 1 70 20 60 11
-6 32 -28 46 -50z"/>
<path d="M300 1430 c0 -49 40 -128 89 -175 31 -29 41 -47 41 -70 0 -23 -10
-41 -41 -70 -49 -47 -89 -126 -89 -175 l0 -35 291 3 291 3 -7 37 c-11 63 -42
120 -88 165 -41 39 -44 46 -38 79 4 23 17 45 38 62 36 30 78 111 89 168 l6 37
-291 3 -291 3 0 -35z m91 -39 c24 -9 27 -15 31 -73 3 -35 4 -65 2 -67 -5 -6
-43 29 -66 62 -11 16 -26 48 -33 72 l-14 43 27 -14 c15 -8 39 -18 53 -23z
m464 0 c-8 -37 -61 -118 -86 -132 -18 -9 -19 -5 -19 53 l0 63 53 25 c28 14 54
24 55 23 2 -1 1 -15 -3 -32z m-361 -67 c8 -58 8 -114 0 -114 -3 0 -13 4 -22 9
-14 7 -16 21 -14 80 4 84 25 99 36 25z m70 9 c17 -104 5 -159 -29 -135 -16 11
-7 172 10 172 7 0 15 -17 19 -37z m74 -50 c-3 -81 -5 -88 -24 -91 -20 -3 -21
1 -17 75 5 93 8 103 28 103 13 0 15 -13 13 -87z m82 13 c0 -73 -6 -86 -41 -86
-10 0 -12 67 -3 123 5 27 11 37 25 37 17 0 19 -8 19 -74z m-229 -111 c0 -5 -9
-12 -20 -17 -18 -6 -21 -3 -21 17 0 20 3 23 21 17 11 -5 20 -12 20 -17z m229
0 c0 -23 -2 -24 -26 -13 l-25 12 23 13 c13 7 24 12 26 13 1 0 2 -11 2 -25z
m-150 -95 c0 -89 0 -90 -25 -90 -25 0 -25 1 -25 84 0 86 1 88 43 95 4 0 7 -39
7 -89z m65 80 c3 -5 9 -46 12 -90 l6 -80 -32 0 -31 0 0 83 c0 46 3 87 7 90 10
10 31 8 38 -3z m-135 -90 c0 -44 -4 -80 -9 -80 -5 0 -16 -3 -25 -6 -25 -10
-23 141 2 155 30 18 32 13 32 -69z m207 72 c12 -8 21 -145 10 -149 -4 -2 -16
-3 -27 -3 -18 0 -20 7 -20 80 0 80 6 92 37 72z m-277 -91 l0 -69 -37 -13 c-21
-7 -48 -19 -60 -27 l-23 -14 14 46 c8 26 20 55 27 64 17 22 72 82 76 82 2 0 3
-31 3 -69z m377 11 c24 -33 53 -97 53 -119 0 -12 -4 -12 -22 2 -13 8 -40 20
-60 26 l-38 10 0 70 0 69 23 -15 c13 -8 33 -28 44 -43z"/>
<path d="M1236 1462 l-288 -2 6 -38 c11 -59 55 -140 92 -170 28 -22 34 -34 34
-66 0 -32 -7 -45 -41 -78 -43 -42 -73 -98 -84 -160 l-7 -37 291 -3 291 -3 0
36 c0 48 -43 130 -91 173 -56 51 -55 91 5 146 50 46 89 126 84 173 l-3 32
-289 -3z m-173 -76 c14 -4 17 -17 17 -71 0 -36 -4 -65 -9 -65 -25 0 -100 121
-101 162 0 15 3 15 38 -2 20 -11 45 -21 55 -24z m443 0 c-15 -49 -40 -88 -81
-126 l-26 -25 6 70 c4 39 10 73 13 76 4 4 24 12 44 19 21 6 40 16 43 21 13 20
13 7 1 -35z m-356 -97 c0 -70 -2 -80 -16 -75 -9 3 -18 6 -20 6 -7 0 -4 136 3
143 3 4 12 7 20 7 10 0 13 -20 13 -81z m70 -10 c0 -79 -2 -90 -16 -85 -9 3
-18 6 -20 6 -6 0 -5 122 2 148 4 12 13 22 20 22 11 0 14 -20 14 -91z m75 59
c4 -18 5 -58 3 -88 -3 -48 -6 -55 -25 -58 -22 -3 -23 0 -23 56 0 78 9 122 26
122 7 0 16 -15 19 -32z m75 -42 c0 -70 -7 -86 -36 -86 -2 0 -4 36 -4 80 0 73
2 80 20 80 18 0 20 -7 20 -74z m-220 -111 c0 -2 -9 -9 -20 -15 -18 -9 -20 -8
-20 15 0 23 2 24 20 15 11 -6 20 -13 20 -15z m220 0 c0 -16 -9 -19 -35 -9 -13
5 -14 8 -3 15 20 13 38 11 38 -6z m-150 -34 c0 -15 3 -56 6 -90 7 -61 7 -61
-20 -61 l-26 0 0 84 c0 81 4 92 33 95 4 1 7 -12 7 -28z m78 -64 l3 -88 -28 3
c-15 2 -27 6 -25 11 1 4 2 43 2 88 0 78 1 80 23 77 21 -3 22 -8 25 -91z m-144
-3 c4 -42 6 -77 4 -79 -2 -1 -15 -5 -30 -9 l-27 -6 6 77 c5 69 13 92 34 93 3
0 9 -34 13 -76z m206 66 c10 -6 16 -32 18 -83 l4 -74 -31 5 -31 4 0 79 c0 81
6 91 40 69z m112 -93 c11 -16 26 -48 34 -73 l13 -44 -22 14 c-12 8 -39 19 -59
26 l-38 12 0 71 0 70 26 -24 c14 -13 35 -37 46 -52z m-383 -39 c1 -22 -5 -28
-36 -38 -21 -7 -48 -19 -60 -26 -21 -13 -23 -13 -23 3 1 31 35 96 70 133 l34
35 7 -40 c4 -22 8 -52 8 -67z"/>
<path d="M302 817 c7 -60 36 -115 85 -164 59 -56 59 -90 0 -146 -49 -49 -78
-104 -85 -164 l-5 -43 292 0 c330 0 304 -8 276 88 -11 34 -32 69 -67 107 -67
74 -67 96 1 171 34 37 55 72 66 106 28 96 54 88 -276 88 l-292 0 5 -43z m71
-22 c44 -19 47 -23 47 -56 0 -20 3 -52 7 -70 l6 -34 -24 16 c-28 18 -84 108
-92 145 -2 13 -1 23 2 22 4 -2 28 -12 54 -23z m467 -43 c-12 -27 -37 -64 -56
-83 l-34 -33 0 70 0 69 53 20 c28 11 53 17 55 13 2 -3 -6 -29 -18 -56z m-346
-34 c3 -29 6 -67 6 -85 0 -29 -2 -32 -22 -24 -14 5 -22 16 -21 30 0 11 1 46 2
76 1 75 26 76 35 3z m226 -23 c0 -63 -3 -76 -19 -85 -30 -15 -31 -14 -31 38 0
82 10 122 31 122 17 0 19 -8 19 -75z m-156 34 c3 -17 6 -56 6 -86 0 -51 -2
-54 -22 -51 -13 2 -23 9 -22 16 1 6 2 44 3 82 1 52 5 70 15 70 7 0 16 -14 20
-31z m76 -54 c0 -85 0 -85 -26 -85 -20 0 -25 4 -20 16 3 9 6 47 6 85 0 62 2
69 20 69 18 0 20 -7 20 -85z m-141 -91 c6 -6 -1 -11 -26 -18 -19 -6 -23 -4
-23 14 0 18 4 20 23 14 12 -3 24 -8 26 -10z m221 -5 c0 -15 -4 -19 -16 -15 -9
3 -20 6 -25 6 -16 0 -10 18 9 23 30 8 32 7 32 -14z m-150 -94 c0 -84 0 -85
-25 -85 -25 0 -25 1 -25 85 0 84 0 85 25 85 25 0 25 -1 25 -85z m74 33 c3 -29
6 -68 6 -85 0 -30 -3 -33 -30 -33 l-30 0 0 85 c0 83 1 85 24 85 21 0 24 -6 30
-52z m74 -52 c2 -61 0 -76 -12 -76 -37 0 -41 9 -38 89 3 77 4 80 25 72 20 -7
22 -17 25 -85z m-218 4 c0 -79 0 -80 -25 -80 -24 0 -25 2 -25 74 0 73 4 83 38
85 9 1 12 -21 12 -79z m-70 -18 l0 -67 -52 -20 c-29 -11 -56 -21 -60 -23 -12
-6 10 59 37 103 20 36 59 75 72 75 2 0 3 -30 3 -68z m357 36 c30 -31 72 -109
73 -135 0 -8 -14 -6 -42 7 -24 11 -51 20 -60 20 -15 0 -18 10 -18 70 0 39 4
70 8 70 4 0 22 -15 39 -32z"/>
</g>
</svg>
