<?xml version="1.0" standalone="no"?>
<!DOCTYPE svg PUBLIC "-//W3C//DTD SVG 20010904//EN"
 "http://www.w3.org/TR/2001/REC-SVG-20010904/DTD/svg10.dtd">
<svg version="1.0" xmlns="http://www.w3.org/2000/svg"
 width="180.000000pt" height="235.000000pt" viewBox="0 0 180.000000 235.000000"
 preserveAspectRatio="xMidYMid meet">
<metadata>
Created by potrace 1.16, written by Peter Selinger 2001-2019
</metadata>
<g transform="translate(0.000000,235.000000) scale(0.100000,-0.100000)"
fill="#000000" stroke="none">
<path d="M301 2018 c2 -85 63 -173 147 -216 l61 -30 -54 -27 c-86 -42 -155
-142 -155 -226 l0 -29 290 0 c329 0 303 -8 275 87 -19 63 -85 140 -149 171
l-47 24 51 25 c65 32 126 102 145 166 28 95 54 87 -275 87 l-290 0 1 -32z m98
-40 c110 -39 317 -33 418 12 51 22 53 16 19 -56 -105 -226 -447 -194 -517 48
-7 26 -6 29 9 22 9 -4 41 -16 71 -26z m301 -239 c60 -27 107 -74 136 -134 34
-71 32 -79 -14 -56 -107 55 -392 53 -478 -4 -32 -21 -34 -19 -24 16 24 84 88
155 166 183 59 22 160 20 214 -5z"/>
<path d="M920 2032 c0 -85 78 -198 163 -238 l49 -22 -49 -26 c-66 -33 -129
-105 -148 -169 -28 -95 -54 -87 276 -87 l292 0 -6 51 c-11 91 -73 170 -167
212 l-45 20 30 11 c103 37 185 142 185 237 l0 29 -290 0 c-274 0 -290 -1 -290
-18z m181 -73 c122 -19 322 4 363 42 19 17 25 9 16 -22 -55 -192 -297 -263
-450 -132 -38 33 -90 119 -90 150 0 8 14 6 43 -7 24 -11 77 -24 118 -31z m200
-211 c57 -19 107 -56 135 -98 25 -38 56 -112 49 -118 -2 -2 -14 3 -27 12 -82
54 -338 61 -456 13 l-64 -25 6 23 c20 79 76 147 151 181 56 27 149 32 206 12z"/>
<path d="M303 1408 c11 -90 74 -170 166 -210 l43 -20 -48 -23 c-87 -41 -163
-144 -164 -222 l0 -33 291 0 292 0 -7 41 c-15 92 -83 181 -169 219 l-39 17 45
22 c88 43 147 122 163 218 l6 42 -292 0 -293 -1 6 -50z m247 -46 c125 -5 212
7 273 37 l39 19 -6 -23 c-20 -79 -76 -147 -151 -181 -72 -34 -172 -33 -243 2
-62 31 -118 96 -137 157 l-13 44 61 -25 c50 -20 85 -26 177 -30z m165 -225
c61 -31 97 -68 124 -127 30 -66 28 -72 -22 -50 -23 11 -84 25 -135 31 -114 16
-252 1 -324 -35 -27 -12 -48 -22 -48 -20 0 2 9 27 20 56 56 151 239 220 385
145z"/>
<path d="M924 1417 c16 -97 80 -181 171 -223 30 -14 42 -23 30 -23 -24 -1 -80
-34 -118 -70 -36 -33 -75 -107 -83 -160 l-7 -41 292 0 291 0 0 33 c0 44 -40
125 -81 166 -19 18 -55 43 -81 56 l-47 22 44 21 c93 45 165 143 165 223 l0 38
-291 0 -291 -1 6 -41z m126 -41 c124 -30 318 -17 402 25 l36 19 -10 -37 c-21
-78 -81 -145 -161 -178 -43 -18 -144 -20 -199 -3 -74 22 -178 140 -178 201 0
16 2 16 23 3 12 -8 51 -22 87 -30z m262 -226 c68 -25 132 -90 159 -159 19 -50
19 -53 2 -46 -96 42 -130 48 -258 48 -113 0 -140 -3 -202 -24 -43 -15 -73 -21
-73 -15 0 6 9 29 19 51 62 136 212 198 353 145z"/>
<path d="M300 831 c0 -84 69 -184 155 -227 l55 -27 -48 -22 c-89 -41 -150
-122 -160 -212 l-5 -43 292 0 c330 0 304 -8 276 87 -19 64 -80 134 -146 167
l-51 25 46 22 c63 29 132 108 151 172 28 95 54 87 -275 87 l-290 0 0 -29z m43
-26 c87 -56 367 -59 479 -5 45 22 47 14 14 -55 -46 -98 -135 -154 -242 -155
-135 0 -238 74 -274 199 -10 35 -8 37 23 16z m339 -251 c63 -21 126 -78 154
-138 34 -73 32 -78 -22 -55 -109 48 -340 48 -450 0 -26 -12 -48 -20 -50 -19
-6 7 26 83 50 116 66 95 202 136 318 96z"/>
</g>
</svg>
