<?xml version="1.0" standalone="no"?>
<!DOCTYPE svg PUBLIC "-//W3C//DTD SVG 20010904//EN"
 "http://www.w3.org/TR/2001/REC-SVG-20010904/DTD/svg10.dtd">
<svg version="1.0" xmlns="http://www.w3.org/2000/svg"
 width="118.000000pt" height="117.000000pt" viewBox="0 0 118.000000 117.000000"
 preserveAspectRatio="xMidYMid meet">
<metadata>
Created by potrace 1.16, written by Peter Selinger 2001-2019
</metadata>
<g transform="translate(0.000000,117.000000) scale(0.100000,-0.100000)"
fill="#000000" stroke="none">
<path d="M300 850 l0 -23 287 7 c158 4 289 9 292 11 14 15 -37 19 -294 23
l-285 5 0 -23z"/>
<path d="M300 720 l0 -23 287 7 c158 4 290 9 292 12 14 14 -36 17 -294 22
l-285 5 0 -23z"/>
<path d="M300 580 l0 -23 287 7 c158 4 290 9 292 12 14 14 -37 18 -294 22
l-285 5 0 -23z"/>
<path d="M300 458 l0 -23 167 2 c230 4 413 14 413 22 0 7 -331 21 -502 21 -74
0 -78 -1 -78 -22z"/>
<path d="M300 320 l0 -23 285 5 c253 4 309 8 294 22 -2 2 -133 7 -291 11
l-288 8 0 -23z"/>
</g>
</svg>
