<?xml version="1.0" standalone="no"?>
<!DOCTYPE svg PUBLIC "-//W3C//DTD SVG 20010904//EN"
 "http://www.w3.org/TR/2001/REC-SVG-20010904/DTD/svg10.dtd">
<svg version="1.0" xmlns="http://www.w3.org/2000/svg"
 width="139.000000pt" height="153.000000pt" viewBox="0 0 139.000000 153.000000"
 preserveAspectRatio="xMidYMid meet">
<metadata>
Created by potrace 1.16, written by Peter Selinger 2001-2019
</metadata>
<g transform="translate(0.000000,153.000000) scale(0.100000,-0.100000)"
fill="#000000" stroke="none">
<path d="M300 1080 l0 -149 68 5 c230 20 359 103 296 192 -34 50 -193 102
-308 102 l-56 0 0 -150z m204 113 c104 -25 166 -68 166 -114 0 -47 -123 -107
-254 -124 l-49 -7 26 31 c60 72 53 164 -17 223 -20 16 -19 17 24 11 25 -3 72
-12 104 -20z"/>
<path d="M710 1080 l0 -149 68 5 c230 20 359 103 296 192 -34 50 -196 102
-314 102 l-50 0 0 -150z m204 113 c112 -27 176 -76 161 -122 -16 -52 -122
-100 -250 -115 -57 -7 -59 -7 -37 9 67 49 71 170 7 229 l-26 24 43 -5 c24 -3
70 -12 102 -20z"/>
<path d="M300 760 l0 -153 78 6 c322 26 413 194 145 268 -37 11 -102 22 -145
25 l-78 7 0 -153z m243 100 c72 -22 127 -66 127 -100 0 -53 -117 -113 -249
-126 -47 -4 -54 -3 -41 8 67 58 72 157 12 222 l-27 29 56 -7 c31 -3 86 -15
122 -26z"/>
<path d="M710 760 l0 -153 78 7 c236 21 360 110 277 200 -43 46 -148 81 -277
92 l-78 7 0 -153z m189 115 c129 -31 201 -92 169 -144 -7 -12 -27 -31 -44 -42
-36 -22 -172 -59 -217 -59 l-30 0 20 23 c32 35 43 62 43 107 0 45 -11 72 -43
108 l-20 22 29 0 c16 0 58 -7 93 -15z"/>
<path d="M306 593 c-3 -3 -6 -69 -6 -145 l0 -138 28 0 c102 0 142 161 61 242
l-29 29 58 -7 c126 -15 231 -64 247 -115 16 -51 -73 -109 -208 -135 l-72 -14
66 4 c76 4 179 45 210 84 55 70 -12 143 -163 176 -78 17 -183 28 -192 19z"/>
<path d="M710 455 l0 -145 28 0 c105 2 141 189 50 255 -22 16 -20 16 37 9 128
-15 234 -63 250 -115 17 -51 -58 -101 -195 -130 -66 -14 -76 -18 -45 -18 81
-1 209 47 239 91 63 89 -63 170 -296 192 l-68 7 0 -146z"/>
</g>
</svg>
