<?xml version="1.0" standalone="no"?>
<!DOCTYPE svg PUBLIC "-//W3C//DTD SVG 20010904//EN"
 "http://www.w3.org/TR/2001/REC-SVG-20010904/DTD/svg10.dtd">
<svg version="1.0" xmlns="http://www.w3.org/2000/svg"
 width="123.000000pt" height="132.000000pt" viewBox="0 0 123.000000 132.000000"
 preserveAspectRatio="xMidYMid meet">
<metadata>
Created by potrace 1.16, written by Peter Selinger 2001-2019
</metadata>
<g transform="translate(0.000000,132.000000) scale(0.100000,-0.100000)"
fill="#000000" stroke="none">
<path d="M300 980 c0 -51 25 -126 57 -167 l24 -33 -42 0 -42 0 7 -61 c3 -33
17 -83 31 -110 l24 -49 -31 0 -31 0 6 -54 c10 -96 66 -196 111 -196 17 0 15 3
-11 20 -35 21 -66 74 -78 130 -3 19 -9 43 -11 52 -5 16 -3 16 28 0 46 -24 174
-23 211 1 26 17 27 17 27 -1 0 -48 -34 -128 -70 -164 -39 -40 -31 -54 9 -16
32 29 68 112 76 176 l7 52 -38 0 c-35 0 -36 1 -21 18 22 24 43 85 52 149 l7
52 -42 3 -42 3 21 27 c27 34 46 88 56 156 l7 52 -151 0 -151 0 0 -40z m55 -15
c51 -18 129 -18 180 0 22 8 42 15 44 15 7 0 -12 -77 -29 -116 -27 -64 -53 -84
-103 -84 -48 0 -71 18 -101 78 -13 25 -39 123 -32 122 0 0 19 -7 41 -15z m0
-240 c51 -18 129 -18 180 0 22 8 42 15 44 15 9 0 -13 -81 -35 -128 l-26 -53
-71 3 c-69 3 -72 4 -91 37 -15 26 -50 142 -43 141 1 0 20 -7 42 -15z"/>
<path d="M635 968 c9 -66 28 -121 55 -159 l21 -29 -41 0 -42 0 6 -47 c10 -65
25 -113 48 -145 l19 -28 -36 0 -37 0 7 -52 c8 -64 44 -147 76 -176 40 -38 48
-24 9 16 -36 36 -70 116 -70 164 0 18 1 18 27 1 38 -25 165 -25 211 0 33 18
34 18 29 0 -3 -10 -9 -34 -12 -53 -11 -52 -41 -105 -72 -129 -19 -14 -23 -20
-12 -21 39 0 97 105 106 196 l6 54 -31 0 -31 0 25 51 c15 29 28 76 31 110 l6
59 -42 0 -42 0 24 33 c32 41 57 116 57 167 l0 40 -151 0 -151 0 7 -52z m58 -3
c45 -19 129 -19 182 0 22 8 41 15 41 15 7 1 -19 -97 -32 -122 -30 -60 -53 -78
-101 -78 -50 0 -76 20 -103 84 -19 42 -36 116 -27 116 2 0 21 -7 40 -15z m0
-240 c45 -19 129 -19 182 0 22 8 41 15 41 15 9 1 -22 -103 -39 -134 l-22 -41
-72 -3 -71 -3 -26 53 c-23 50 -44 128 -33 128 2 0 21 -7 40 -15z"/>
</g>
</svg>
