<?xml version="1.0" standalone="no"?>
<!DOCTYPE svg PUBLIC "-//W3C//DTD SVG 20010904//EN"
 "http://www.w3.org/TR/2001/REC-SVG-20010904/DTD/svg10.dtd">
<svg version="1.0" xmlns="http://www.w3.org/2000/svg"
 width="151.000000pt" height="166.000000pt" viewBox="0 0 151.000000 166.000000"
 preserveAspectRatio="xMidYMid meet">
<metadata>
Created by potrace 1.16, written by Peter Selinger 2001-2019
</metadata>
<g transform="translate(0.000000,166.000000) scale(0.100000,-0.100000)"
fill="#000000" stroke="none">
<path d="M300 1215 l0 -145 210 0 210 0 0 145 0 145 -210 0 -210 0 0 -145z
m400 0 l0 -135 -135 0 -135 0 0 135 0 135 135 0 135 0 0 -135z"/>
<path d="M790 1215 l0 -145 210 0 210 0 0 145 0 145 -210 0 -210 0 0 -145z
m410 0 l0 -135 -140 0 -140 0 0 128 c0 71 3 132 7 135 3 4 66 7 140 7 l133 0
0 -135z"/>
<path d="M300 840 l0 -150 210 0 210 0 0 150 0 150 -210 0 -210 0 0 -150z
m400 -4 l0 -134 -132 2 -133 1 -3 133 -3 132 136 0 135 0 0 -134z"/>
<path d="M790 840 l0 -150 210 0 210 0 0 150 0 150 -210 0 -210 0 0 -150z
m408 -2 l-3 -133 -135 0 -135 0 -3 133 -3 132 141 0 141 0 -3 -132z"/>
<path d="M300 450 l0 -140 65 0 65 0 0 135 0 135 135 0 135 0 0 -135 c0 -83 4
-135 10 -135 6 0 10 53 10 140 l0 140 -210 0 -210 0 0 -140z"/>
<path d="M790 450 l0 -140 65 0 65 0 0 135 0 135 140 0 139 0 4 -137 3 -138 2
143 2 142 -210 0 -210 0 0 -140z"/>
</g>
</svg>
