<?xml version="1.0" standalone="no"?>
<!DOCTYPE svg PUBLIC "-//W3C//DTD SVG 20010904//EN"
 "http://www.w3.org/TR/2001/REC-SVG-20010904/DTD/svg10.dtd">
<svg version="1.0" xmlns="http://www.w3.org/2000/svg"
 width="136.000000pt" height="160.000000pt" viewBox="0 0 136.000000 160.000000"
 preserveAspectRatio="xMidYMid meet">
<metadata>
Created by potrace 1.16, written by Peter Selinger 2001-2019
</metadata>
<g transform="translate(0.000000,160.000000) scale(0.100000,-0.100000)"
fill="#000000" stroke="none">
<path d="M366 1281 c-43 -29 -66 -70 -66 -121 0 -112 118 -176 219 -119 l37
20 76 -43 76 -44 -38 -32 c-44 -36 -65 -88 -56 -137 19 -97 135 -147 217 -92
l34 23 85 -48 c83 -47 110 -57 110 -40 0 5 -38 33 -85 63 l-85 54 6 46 c11 81
-36 144 -121 164 -44 10 -201 119 -196 136 20 65 -12 144 -69 174 -40 21 -109
19 -144 -4z m89 -151 c3 -6 -1 -7 -9 -4 -18 7 -21 14 -7 14 6 0 13 -4 16 -10z"/>
<path d="M680 1278 c-122 -82 -67 -258 81 -258 31 0 55 7 72 20 14 11 29 20
34 20 4 0 42 -20 83 -45 70 -42 119 -58 105 -35 -3 6 -42 33 -85 61 l-79 50 6
48 c10 86 -43 152 -129 159 -44 3 -59 0 -88 -20z m111 -125 c13 -17 13 -17 -6
-3 -11 8 -22 16 -24 17 -2 2 0 3 6 3 6 0 17 -8 24 -17z m74 -51 c-3 -3 -11 0
-18 7 -9 10 -8 11 6 5 10 -3 15 -9 12 -12z"/>
<path d="M397 966 c-46 -17 -64 -32 -83 -67 -33 -64 -6 -150 58 -189 42 -26
90 -25 143 1 l42 21 80 -46 c44 -25 86 -46 94 -46 8 0 -4 -9 -27 -19 -101 -46
-123 -161 -44 -236 41 -39 128 -48 170 -16 16 11 32 21 35 21 3 0 41 -20 84
-45 73 -42 120 -58 106 -35 -3 6 -42 33 -86 61 -78 50 -79 52 -73 84 14 74
-36 159 -101 171 -19 3 -40 13 -46 20 -7 8 -49 39 -95 69 -83 54 -83 54 -74
86 14 48 -4 102 -45 138 -20 17 -44 31 -55 31 -10 0 -24 2 -32 5 -7 2 -30 -2
-51 -9z m143 -182 c0 -2 -9 0 -20 6 -11 6 -20 13 -20 16 0 2 9 0 20 -6 11 -6
20 -13 20 -16z m250 -340 c0 -2 -9 0 -20 6 -11 6 -20 13 -20 16 0 2 9 0 20 -6
11 -6 20 -13 20 -16z"/>
<path d="M349 592 c-33 -31 -42 -46 -46 -83 -14 -122 107 -199 216 -138 l36
20 82 -46 c120 -68 140 -54 27 20 -89 59 -90 61 -82 90 16 59 -16 131 -72 160
-16 8 -50 15 -75 15 -39 0 -52 -5 -86 -38z m142 -119 c13 -16 12 -17 -3 -4
-17 13 -22 21 -14 21 2 0 10 -8 17 -17z m39 -59 c0 -2 -9 0 -20 6 -11 6 -20
13 -20 16 0 2 9 0 20 -6 11 -6 20 -13 20 -16z"/>
</g>
</svg>
