<?xml version="1.0" standalone="no"?>
<!DOCTYPE svg PUBLIC "-//W3C//DTD SVG 20010904//EN"
 "http://www.w3.org/TR/2001/REC-SVG-20010904/DTD/svg10.dtd">
<svg version="1.0" xmlns="http://www.w3.org/2000/svg"
 width="148.000000pt" height="304.000000pt" viewBox="0 0 148.000000 304.000000"
 preserveAspectRatio="xMidYMid meet">
<metadata>
Created by potrace 1.16, written by Peter Selinger 2001-2019
</metadata>
<g transform="translate(0.000000,304.000000) scale(0.100000,-0.100000)"
fill="#000000" stroke="none">
<path d="M546 2721 c-66 -44 -86 -131 -45 -198 53 -85 187 -85 239 0 24 39 26
107 5 148 -34 65 -137 91 -199 50z"/>
<path d="M849 2717 c-21 -14 -41 -41 -53 -70 -20 -47 -20 -47 0 -94 61 -147
274 -111 274 47 0 111 -128 179 -221 117z"/>
<path d="M565 2420 c-43 -18 -78 -67 -83 -118 -8 -90 51 -156 139 -156 81 0
139 59 139 143 0 100 -103 170 -195 131z"/>
<path d="M860 2411 c-46 -24 -73 -72 -73 -128 0 -105 114 -169 211 -119 95 49
95 188 0 246 -41 25 -93 25 -138 1z"/>
<path d="M543 2110 c-117 -71 -63 -260 75 -260 84 0 142 56 142 138 0 85 -56
142 -140 142 -27 0 -58 -8 -77 -20z"/>
<path d="M849 2107 c-116 -78 -60 -257 80 -257 107 0 172 107 125 206 -34 72
-136 97 -205 51z"/>
<path d="M373 874 c-92 -46 -98 -183 -11 -245 39 -28 113 -31 152 -5 91 59 86
205 -8 250 -43 20 -92 20 -133 0z"/>
<path d="M682 870 c-126 -77 -73 -263 75 -263 105 0 169 114 119 211 -35 68
-127 92 -194 52z"/>
<path d="M983 874 c-85 -42 -98 -171 -25 -237 50 -45 135 -42 188 8 32 31 34
36 34 102 0 61 -3 74 -25 97 -44 47 -112 59 -172 30z"/>
<path d="M363 560 c-86 -52 -84 -183 3 -241 35 -23 104 -25 145 -4 89 47 93
193 6 245 -42 26 -112 26 -154 0z"/>
<path d="M673 558 c-114 -80 -60 -258 77 -258 84 0 144 58 144 141 0 28 -7 57
-18 73 -43 66 -142 87 -203 44z"/>
<path d="M973 560 c-87 -52 -83 -198 6 -245 62 -31 163 -8 191 45 16 30 12
142 -6 168 -36 52 -132 69 -191 32z"/>
</g>
</svg>
