<?xml version="1.0" standalone="no"?>
<!DOCTYPE svg PUBLIC "-//W3C//DTD SVG 20010904//EN"
 "http://www.w3.org/TR/2001/REC-SVG-20010904/DTD/svg10.dtd">
<svg version="1.0" xmlns="http://www.w3.org/2000/svg"
 width="144.000000pt" height="148.000000pt" viewBox="0 0 144.000000 148.000000"
 preserveAspectRatio="xMidYMid meet">
<metadata>
Created by potrace 1.16, written by Peter Selinger 2001-2019
</metadata>
<g transform="translate(0.000000,148.000000) scale(0.100000,-0.100000)"
fill="#000000" stroke="none">
<path d="M445 1169 c-11 -6 -30 -21 -42 -32 -17 -15 -31 -19 -63 -14 -37 5
-40 3 -40 -19 0 -20 5 -24 33 -24 32 0 33 -1 29 -36 -4 -34 -6 -36 -33 -30
-26 5 -29 3 -29 -19 0 -22 4 -25 37 -25 28 0 45 -8 70 -32 28 -27 42 -32 92
-36 58 -4 60 -3 104 37 32 30 53 41 76 41 17 0 31 5 31 10 0 6 -13 10 -30 10
-28 0 -30 3 -30 35 0 19 -1 38 -2 43 -2 4 12 8 30 10 17 2 32 7 32 13 0 8 -12
11 -67 13 -10 1 -29 14 -44 30 -21 24 -35 30 -80 33 -30 2 -63 -2 -74 -8z
m122 -55 c-3 -3 -12 -4 -19 -1 -8 3 -5 6 6 6 11 1 17 -2 13 -5z m-92 -14 c-3
-5 -13 -10 -21 -10 -8 0 -12 5 -9 10 3 6 13 10 21 10 8 0 12 -4 9 -10z m78
-17 c-7 -2 -19 -2 -25 0 -7 3 -2 5 12 5 14 0 19 -2 13 -5z m14 -79 c-3 -3 -12
-4 -19 -1 -8 3 -5 6 6 6 11 1 17 -2 13 -5z m-92 -14 c-3 -5 -13 -10 -21 -10
-8 0 -12 5 -9 10 3 6 13 10 21 10 8 0 12 -4 9 -10z"/>
<path d="M855 1149 c-31 -27 -41 -31 -75 -26 -37 5 -40 3 -40 -19 0 -20 5 -24
30 -24 28 0 30 -3 30 -36 0 -35 -1 -36 -30 -30 -27 5 -30 3 -30 -19 0 -22 4
-25 39 -25 27 0 44 -6 53 -18 24 -33 62 -52 106 -52 49 0 86 17 121 54 15 16
35 26 53 26 35 0 37 18 2 22 -23 3 -27 8 -29 46 -3 40 -2 42 26 42 16 0 29 5
29 10 0 6 -10 10 -22 10 -23 0 -37 7 -99 47 -53 35 -119 32 -164 -8z m152 -35
c-3 -3 -12 -4 -19 -1 -8 3 -5 6 6 6 11 1 17 -2 13 -5z m-92 -14 c-3 -5 -13
-10 -21 -10 -8 0 -12 5 -9 10 3 6 13 10 21 10 8 0 12 -4 9 -10z m72 -16 c-3
-3 -12 -4 -19 -1 -8 3 -5 6 6 6 11 1 17 -2 13 -5z m-72 -94 c-3 -5 -13 -10
-21 -10 -8 0 -12 5 -9 10 3 6 13 10 21 10 8 0 12 -4 9 -10z m78 -17 c-7 -2
-19 -2 -25 0 -7 3 -2 5 12 5 14 0 19 -2 13 -5z"/>
<path d="M465 869 c-17 -4 -41 -18 -54 -31 -23 -21 -23 -22 -5 -30 20 -9 22
-9 -68 7 -36 7 -38 6 -38 -19 0 -23 4 -26 33 -26 32 0 33 -1 29 -35 -4 -32 -6
-34 -33 -28 -26 5 -29 3 -29 -21 0 -24 4 -26 38 -26 27 0 45 -7 58 -21 61 -67
167 -64 222 6 13 17 30 25 50 25 42 0 49 17 12 25 -23 5 -30 12 -30 30 0 13
-3 30 -6 39 -5 12 1 16 24 16 17 0 33 4 36 9 8 13 -39 23 -88 18 -22 -2 -31
-2 -18 0 31 6 28 18 -10 41 -42 25 -85 33 -123 21z m18 -76 c-7 -2 -19 -2 -25
0 -7 3 -2 5 12 5 14 0 19 -2 13 -5z m-70 -100 c-7 -2 -19 -2 -25 0 -7 3 -2 5
12 5 14 0 19 -2 13 -5z m205 0 c-10 -2 -28 -2 -40 0 -13 2 -5 4 17 4 22 1 32
-1 23 -4z m-135 -10 c-7 -2 -19 -2 -25 0 -7 3 -2 5 12 5 14 0 19 -2 13 -5z"/>
<path d="M896 865 c-21 -7 -46 -21 -55 -30 -14 -14 -14 -17 -1 -26 12 -8 11
-9 -5 -5 -11 3 -37 8 -57 12 -36 6 -38 5 -38 -20 0 -22 4 -26 30 -26 28 0 30
-3 30 -36 0 -34 -1 -35 -30 -29 -27 6 -30 4 -30 -19 0 -23 4 -26 38 -26 27 0
45 -7 58 -21 61 -68 185 -62 224 10 7 14 21 21 40 21 38 0 47 17 13 24 -25 6
-28 12 -30 46 -1 36 2 40 22 40 13 0 26 4 30 9 8 15 -31 23 -78 17 -25 -3 -32
-2 -18 2 l24 7 -32 28 c-18 15 -38 27 -44 27 -7 0 -21 2 -32 5 -11 3 -38 -2
-59 -10z m27 -72 c-7 -2 -19 -2 -25 0 -7 3 -2 5 12 5 14 0 19 -2 13 -5z m-80
-100 c-7 -2 -19 -2 -25 0 -7 3 -2 5 12 5 14 0 19 -2 13 -5z m215 0 c-10 -2
-28 -2 -40 0 -13 2 -5 4 17 4 22 1 32 -1 23 -4z m-135 -10 c-7 -2 -21 -2 -30
0 -10 3 -4 5 12 5 17 0 24 -2 18 -5z"/>
<path d="M450 563 c-8 -3 -27 -17 -42 -31 -23 -21 -34 -24 -67 -19 -38 5 -41
3 -41 -19 0 -20 5 -24 33 -24 32 0 33 -1 29 -36 -4 -34 -6 -36 -33 -30 -26 5
-29 3 -29 -19 0 -22 4 -25 36 -25 26 0 46 -8 71 -30 30 -27 40 -30 101 -30 65
0 70 2 102 35 23 23 43 35 61 35 15 0 31 5 34 10 3 6 -5 10 -19 10 -30 0 -33
4 -38 50 -3 31 0 35 22 38 14 2 29 8 35 13 8 8 0 10 -61 13 -10 1 -32 16 -49
34 -29 28 -40 32 -81 31 -27 0 -56 -3 -64 -6z m127 -59 c-3 -3 -12 -4 -19 -1
-8 3 -5 6 6 6 11 1 17 -2 13 -5z m-102 -14 c-28 -12 -37 -12 -30 0 3 6 16 10
28 9 21 0 21 -1 2 -9z m72 -16 c-3 -3 -12 -4 -19 -1 -8 3 -5 6 6 6 11 1 17 -2
13 -5z m30 -80 c-3 -3 -12 -4 -19 -1 -8 3 -5 6 6 6 11 1 17 -2 13 -5z m-107
-14 c-20 -13 -33 -13 -25 0 3 6 14 10 23 10 15 0 15 -2 2 -10z m77 -16 c-3 -3
-12 -4 -19 -1 -8 3 -5 6 6 6 11 1 17 -2 13 -5z"/>
<path d="M855 539 c-31 -27 -41 -31 -75 -26 -37 5 -40 3 -40 -19 0 -20 5 -24
30 -24 28 0 30 -3 30 -36 0 -35 -1 -36 -30 -31 -27 6 -30 4 -30 -18 0 -22 4
-25 38 -25 29 0 45 -7 67 -30 27 -28 34 -30 98 -30 66 0 71 2 104 35 24 24 44
35 64 35 37 0 38 16 2 23 -25 5 -28 10 -30 46 -1 37 1 41 22 41 13 0 26 4 29
9 7 11 -60 25 -74 16 -6 -4 -9 -1 -8 6 6 24 -62 59 -113 59 -40 0 -55 -5 -84
-31z m55 -49 c-20 -13 -33 -13 -25 0 3 6 14 10 23 10 15 0 15 -2 2 -10z m77
-16 c-3 -3 -12 -4 -19 -1 -8 3 -5 6 6 6 11 1 17 -2 13 -5z m20 -80 c-3 -3 -12
-4 -19 -1 -8 3 -5 6 6 6 11 1 17 -2 13 -5z m-97 -14 c-20 -13 -33 -13 -25 0 3
6 14 10 23 10 15 0 15 -2 2 -10z m77 -16 c-3 -3 -12 -4 -19 -1 -8 3 -5 6 6 6
11 1 17 -2 13 -5z"/>
</g>
</svg>
