<?xml version="1.0" standalone="no"?>
<!DOCTYPE svg PUBLIC "-//W3C//DTD SVG 20010904//EN"
 "http://www.w3.org/TR/2001/REC-SVG-20010904/DTD/svg10.dtd">
<svg version="1.0" xmlns="http://www.w3.org/2000/svg"
 width="132.000000pt" height="171.000000pt" viewBox="0 0 132.000000 171.000000"
 preserveAspectRatio="xMidYMid meet">
<metadata>
Created by potrace 1.16, written by Peter Selinger 2001-2019
</metadata>
<g transform="translate(0.000000,171.000000) scale(0.100000,-0.100000)"
fill="#000000" stroke="none">
<path d="M360 1360 l0 -49 -30 6 c-27 5 -30 3 -30 -21 0 -22 4 -26 30 -26 28
0 30 -3 30 -35 0 -33 -1 -34 -30 -28 -27 5 -30 3 -30 -21 0 -22 4 -26 30 -26
28 0 30 -3 30 -35 l0 -35 105 0 105 0 0 40 c0 38 2 40 29 40 43 0 47 18 6 26
-33 6 -35 9 -35 45 0 36 2 39 29 39 43 0 47 18 6 26 -34 6 -35 7 -35 55 l0 49
-105 0 -105 0 0 -50z"/>
<path d="M740 1360 l0 -49 -30 6 c-27 5 -30 3 -30 -21 0 -23 4 -26 33 -26 32
0 33 -1 29 -36 -4 -33 -6 -35 -33 -29 -26 6 -29 4 -29 -19 0 -23 4 -26 33 -26
30 0 32 -2 32 -32 l0 -33 103 -3 102 -3 0 41 c0 38 2 40 30 40 17 0 30 5 30
10 0 6 -13 13 -30 17 -27 5 -30 9 -30 44 0 37 2 39 30 39 17 0 30 5 30 10 0 6
-13 13 -30 17 -28 5 -30 8 -30 54 l0 49 -105 0 -105 0 0 -50z"/>
<path d="M367 1013 c-4 -3 -7 -26 -7 -51 0 -44 -1 -44 -30 -40 -27 4 -30 2
-30 -23 0 -26 2 -28 30 -22 29 5 30 4 30 -32 0 -36 -1 -37 -30 -33 -27 4 -30
2 -30 -25 0 -26 2 -28 29 -22 28 6 30 5 33 -32 l3 -38 103 -3 102 -3 0 40 c0
38 2 40 35 47 19 3 35 10 35 15 0 5 -16 9 -35 9 -34 0 -35 1 -35 39 0 40 11
51 51 51 10 0 19 5 19 10 0 6 -16 10 -35 10 l-35 0 0 55 0 55 -98 0 c-54 0
-102 -3 -105 -7z"/>
<path d="M745 1010 c-4 -6 -5 -27 -3 -48 3 -36 2 -37 -30 -37 -28 0 -32 -3
-32 -26 0 -24 4 -27 32 -25 30 1 32 -1 33 -32 1 -32 -1 -34 -32 -30 -30 4 -33
2 -33 -24 0 -25 3 -28 32 -26 30 3 32 1 32 -32 l1 -35 103 -3 102 -3 0 40 c0
36 3 40 30 46 17 4 30 11 30 16 0 5 -13 9 -30 9 -28 0 -30 2 -30 39 0 36 3 40
30 46 17 4 30 11 30 16 0 5 -13 9 -30 9 -30 0 -30 1 -30 55 l0 55 -99 0 c-58
0 -103 -4 -106 -10z"/>
<path d="M360 570 l0 -49 -30 6 c-27 5 -30 3 -30 -21 0 -22 4 -26 30 -26 28 0
30 -3 30 -35 0 -33 -1 -34 -30 -28 -27 5 -30 3 -30 -21 0 -22 4 -26 30 -26 25
0 30 -4 30 -25 l0 -25 105 0 105 0 0 30 c0 27 3 30 29 30 43 0 47 18 6 26 -33
6 -35 9 -35 45 0 36 2 39 29 39 43 0 47 18 6 26 -34 6 -35 7 -35 55 l0 49
-105 0 -105 0 0 -50z"/>
<path d="M745 610 c-4 -6 -5 -27 -3 -48 3 -36 2 -37 -30 -34 -29 3 -32 1 -32
-22 0 -23 4 -26 33 -26 31 0 33 -2 32 -32 -1 -31 -3 -33 -33 -30 -28 3 -32 0
-32 -22 0 -22 4 -26 30 -26 28 0 36 -11 31 -42 0 -5 46 -8 104 -8 l105 0 0 30
c0 27 3 30 30 30 17 0 30 5 30 10 0 6 -13 13 -30 17 -27 5 -30 9 -30 44 0 37
2 39 30 39 17 0 30 5 30 10 0 6 -13 13 -30 17 -28 5 -30 8 -30 54 l0 49 -99 0
c-58 0 -103 -4 -106 -10z"/>
</g>
</svg>
