<?xml version="1.0" standalone="no"?>
<!DOCTYPE svg PUBLIC "-//W3C//DTD SVG 20010904//EN"
 "http://www.w3.org/TR/2001/REC-SVG-20010904/DTD/svg10.dtd">
<svg version="1.0" xmlns="http://www.w3.org/2000/svg"
 width="160.000000pt" height="165.000000pt" viewBox="0 0 160.000000 165.000000"
 preserveAspectRatio="xMidYMid meet">
<metadata>
Created by potrace 1.16, written by Peter Selinger 2001-2019
</metadata>
<g transform="translate(0.000000,165.000000) scale(0.100000,-0.100000)"
fill="#000000" stroke="none">
<path d="M495 1340 c-72 -29 -105 -130 -67 -200 71 -129 268 -77 266 70 -1 56
-21 92 -67 120 -33 21 -96 25 -132 10z m84 -174 c-2 -2 -20 3 -39 10 -19 8
-25 12 -12 10 22 -4 30 8 12 19 -5 3 -10 11 -10 16 0 6 12 -4 26 -21 15 -17
25 -32 23 -34z"/>
<path d="M952 1330 c-124 -76 -73 -263 73 -263 145 0 196 188 72 263 -41 26
-103 25 -145 0z m97 -164 c-2 -2 -20 3 -39 10 -19 8 -25 12 -12 10 22 -4 30 8
12 19 -5 3 -10 11 -10 16 0 6 12 -4 26 -21 15 -17 25 -32 23 -34z"/>
<path d="M752 1316 c-10 -23 -8 -24 26 -29 20 -2 38 -3 39 -3 1 1 -11 14 -26
28 l-28 27 -11 -23z"/>
<path d="M1223 1315 c-7 -20 -6 -21 41 -29 l39 -8 -30 26 c-36 30 -42 31 -50
11z"/>
<path d="M306 1304 c-8 -21 -9 -20 38 -28 l39 -8 -30 26 c-36 31 -39 31 -47
10z"/>
<path d="M698 1082 c-4 -15 3 -21 33 -29 22 -6 39 -8 39 -6 0 6 -54 52 -61 53
-4 0 -9 -8 -11 -18z"/>
<path d="M1171 1082 c-8 -16 -4 -20 30 -29 46 -12 48 -6 9 25 -28 22 -29 22
-39 4z"/>
<path d="M523 970 c-47 -11 -78 -34 -97 -73 -45 -96 12 -196 116 -205 63 -5
112 22 141 78 53 102 -47 226 -160 200z m35 -150 c21 -28 21 -30 4 -30 -10 0
-27 7 -38 16 -18 14 -18 15 4 4 22 -11 33 2 12 15 -9 6 -14 25 -7 25 2 0 13
-13 25 -30z"/>
<path d="M985 969 c-40 -12 -58 -27 -84 -69 -54 -90 4 -199 111 -208 63 -5
112 22 141 78 54 105 -54 232 -168 199z m43 -149 c15 -20 18 -30 9 -30 -7 0
-18 14 -24 30 -6 17 -10 30 -9 30 1 0 12 -13 24 -30z m-23 -18 c-3 -3 -11 0
-18 7 -9 10 -8 11 6 5 10 -3 15 -9 12 -12z"/>
<path d="M751 941 c-9 -16 -6 -20 29 -29 47 -12 49 -5 10 26 -28 22 -29 22
-39 3z"/>
<path d="M1221 943 c-8 -15 -3 -20 32 -30 23 -7 42 -11 44 -10 1 2 -13 15 -32
30 -31 25 -35 26 -44 10z"/>
<path d="M307 931 c-3 -14 2 -21 18 -25 13 -3 31 -9 42 -12 11 -4 5 5 -15 25
-39 37 -38 36 -45 12z"/>
<path d="M696 704 c-8 -21 -9 -20 39 -28 l40 -7 -30 25 c-36 30 -41 31 -49 10z"/>
<path d="M1167 700 c-4 -14 0 -20 11 -20 10 0 28 -3 42 -6 24 -6 24 -6 -5 20
-37 31 -41 31 -48 6z"/>
<path d="M490 592 c-126 -63 -93 -250 47 -269 110 -15 191 97 145 200 -34 76
-118 107 -192 69z m86 -170 c-2 -1 -19 4 -37 12 -19 9 -23 13 -11 10 22 -5 23
-4 12 18 -9 18 -6 17 14 -7 14 -16 24 -31 22 -33z"/>
<path d="M961 593 c-71 -37 -100 -124 -64 -192 66 -126 251 -93 270 48 15 109
-109 195 -206 144z m85 -171 c-2 -1 -19 4 -37 12 -19 9 -23 13 -11 10 22 -5
23 -4 12 18 -9 18 -6 17 14 -7 14 -16 24 -31 22 -33z"/>
<path d="M751 572 c-9 -17 -6 -20 26 -25 20 -4 38 -5 39 -4 1 1 -11 12 -27 25
-27 22 -28 22 -38 4z"/>
<path d="M1226 583 c-15 -15 -4 -31 26 -37 42 -8 43 -4 9 22 -16 11 -31 18
-35 15z"/>
<path d="M306 564 c-8 -21 -9 -21 39 -30 l40 -7 -31 26 c-37 32 -40 32 -48 11z"/>
<path d="M700 341 c-12 -23 -11 -24 45 -36 30 -6 30 -6 10 12 -11 10 -25 24
-32 31 -9 11 -13 10 -23 -7z"/>
<path d="M1170 340 c-12 -22 -11 -23 43 -34 15 -4 27 -5 27 -4 0 2 -13 16 -29
31 -29 27 -30 27 -41 7z"/>
</g>
</svg>
