<?xml version="1.0" standalone="no"?>
<!DOCTYPE svg PUBLIC "-//W3C//DTD SVG 20010904//EN"
 "http://www.w3.org/TR/2001/REC-SVG-20010904/DTD/svg10.dtd">
<svg version="1.0" xmlns="http://www.w3.org/2000/svg"
 width="123.000000pt" height="222.000000pt" viewBox="0 0 123.000000 222.000000"
 preserveAspectRatio="xMidYMid meet">
<metadata>
Created by potrace 1.16, written by Peter Selinger 2001-2019
</metadata>
<g transform="translate(0.000000,222.000000) scale(0.100000,-0.100000)"
fill="#000000" stroke="none">
<path d="M300 1883 c0 -60 32 -144 70 -184 l35 -36 -24 -18 c-32 -24 -71 -114
-78 -180 l-6 -55 153 0 152 0 -6 48 c-13 90 -56 182 -92 196 -12 4 -7 14 20
42 37 38 60 96 72 177 l6 47 -151 0 -151 0 0 -37z m117 -30 c53 -5 96 2 147
23 18 7 19 4 12 -35 -15 -94 -75 -171 -135 -171 -48 0 -110 91 -124 182 l-6
38 24 -16 c13 -9 50 -18 82 -21z m74 -210 c35 -21 75 -98 85 -162 l7 -43 -26
17 c-39 25 -135 31 -193 11 -26 -9 -49 -16 -50 -16 -7 0 25 110 40 138 17 33
69 72 94 72 8 0 27 -8 43 -17z"/>
<path d="M634 1873 c10 -79 36 -142 72 -178 31 -32 32 -35 16 -47 -44 -32 -75
-99 -88 -190 l-6 -48 152 0 153 0 -6 60 c-7 67 -45 150 -79 176 l-23 17 35 37
c39 40 70 120 70 181 l0 39 -151 0 -152 0 7 -47z m272 -43 c-16 -70 -38 -113
-72 -139 -50 -40 -106 -18 -146 56 -23 43 -47 133 -35 133 2 0 22 -7 43 -16
47 -20 162 -15 196 9 13 8 24 14 25 13 1 -1 -4 -26 -11 -56z m-79 -190 c35
-21 66 -74 78 -130 3 -19 9 -43 12 -53 5 -18 4 -18 -29 0 -46 25 -174 25 -213
-1 l-28 -18 8 48 c9 62 36 115 75 148 38 31 55 32 97 6z"/>
<path d="M303 1314 c7 -66 49 -158 82 -180 l22 -14 -37 -38 c-41 -41 -70 -117
-70 -184 l0 -39 150 2 c170 1 159 -6 139 91 -14 67 -41 121 -73 146 l-25 19
25 24 c34 32 59 82 73 147 19 88 29 82 -140 82 l-152 0 6 -56z m148 -7 c40 1
79 7 98 17 29 16 31 16 31 -2 0 -10 -7 -43 -16 -72 -21 -71 -69 -120 -117
-120 -61 0 -104 60 -131 182 l-6 27 37 -16 c23 -10 64 -16 104 -16z m65 -232
c31 -33 64 -114 64 -156 0 -17 -3 -17 -35 -3 -45 18 -146 18 -192 -1 -19 -8
-37 -15 -38 -15 -7 0 17 96 31 126 23 47 69 84 106 84 22 0 40 -10 64 -35z"/>
<path d="M630 1355 c0 -31 23 -122 40 -155 10 -19 30 -46 44 -59 25 -24 25
-25 6 -38 -42 -30 -90 -151 -90 -230 0 -10 33 -13 150 -13 l150 0 0 38 c0 62
-28 140 -66 182 l-35 38 26 26 c36 36 65 107 72 172 l6 54 -152 0 c-125 0
-151 -2 -151 -15z m151 -48 c41 0 78 6 99 17 18 9 34 16 35 16 1 0 -1 -20 -6
-44 -28 -150 -116 -211 -194 -133 -31 31 -65 114 -65 159 0 18 2 18 32 2 21
-11 57 -17 99 -17z m57 -222 c35 -29 59 -77 71 -139 5 -25 7 -46 6 -46 -1 0
-19 7 -38 15 -46 19 -147 19 -192 1 -32 -14 -35 -14 -35 3 0 42 33 123 64 156
41 43 81 46 124 10z"/>
<path d="M303 755 c7 -67 46 -156 79 -181 l25 -18 -28 -23 c-37 -32 -68 -102
-76 -173 l-6 -60 153 0 152 0 -6 48 c-12 80 -37 142 -71 177 l-33 33 28 27
c35 34 66 104 75 173 l7 52 -152 0 -153 0 6 -55z m147 -10 c56 0 83 5 103 18
27 17 27 17 27 -7 0 -75 -79 -196 -128 -196 -51 0 -111 70 -127 150 -3 19 -9
43 -11 52 -5 16 -3 16 28 0 22 -12 57 -17 108 -17z m38 -209 c34 -17 79 -97
88 -154 4 -23 5 -42 3 -42 -2 0 -22 7 -44 15 -52 19 -122 19 -175 0 -23 -8
-44 -15 -45 -15 -2 0 2 24 9 53 30 126 92 180 164 143z"/>
<path d="M634 763 c13 -91 56 -183 92 -197 11 -4 7 -14 -19 -40 -36 -36 -61
-98 -73 -178 l-6 -48 151 0 151 0 0 39 c0 61 -31 141 -70 181 l-35 37 24 18
c32 24 71 114 78 180 l6 55 -153 0 -152 0 6 -47z m146 -18 c53 0 85 6 108 18
33 18 34 18 29 0 -3 -10 -9 -34 -12 -53 -23 -113 -98 -173 -165 -133 -36 21
-76 97 -86 162 l-7 43 29 -18 c21 -14 46 -19 104 -19z m54 -216 c31 -24 61
-79 71 -129 3 -19 9 -43 12 -53 5 -18 4 -18 -21 -1 -39 25 -151 31 -200 10
-21 -9 -41 -16 -43 -16 -11 0 10 78 33 128 38 78 96 102 148 61z"/>
</g>
</svg>
