<?xml version="1.0" standalone="no"?>
<!DOCTYPE svg PUBLIC "-//W3C//DTD SVG 20010904//EN"
 "http://www.w3.org/TR/2001/REC-SVG-20010904/DTD/svg10.dtd">
<svg version="1.0" xmlns="http://www.w3.org/2000/svg"
 width="172.000000pt" height="241.000000pt" viewBox="0 0 172.000000 241.000000"
 preserveAspectRatio="xMidYMid meet">
<metadata>
Created by potrace 1.16, written by Peter Selinger 2001-2019
</metadata>
<g transform="translate(0.000000,241.000000) scale(0.100000,-0.100000)"
fill="#000000" stroke="none">
<path d="M300 1820 l0 -293 88 7 c213 15 398 101 451 208 l21 43 0 -129 0
-129 88 6 c213 15 397 100 453 208 86 170 -128 345 -448 366 l-93 6 0 -129 0
-129 -21 42 c-54 110 -236 196 -446 210 l-93 6 0 -293z m275 239 c195 -59 296
-165 265 -280 -29 -107 -207 -204 -411 -226 l-63 -6 36 31 c111 99 117 351 9
473 l-39 45 66 -8 c37 -4 98 -17 137 -29z m505 15 c100 -21 227 -82 273 -133
48 -53 64 -108 48 -162 -32 -107 -205 -203 -404 -225 l-62 -6 32 33 c59 63 78
120 78 239 0 121 -19 178 -82 242 l-36 37 39 -5 c21 -3 73 -12 114 -20z"/>
<path d="M300 1196 l0 -296 28 0 c54 0 218 29 275 49 118 41 204 104 241 176
15 29 16 24 16 -99 l0 -128 83 7 c275 24 477 145 477 287 0 27 -6 61 -14 76
-22 42 -96 107 -151 135 -95 47 -254 84 -360 82 l-30 0 -5 -125 c-5 -117 -6
-123 -19 -93 -7 18 -33 50 -56 72 -88 81 -221 127 -417 146 l-68 7 0 -296z
m270 237 c316 -91 368 -312 103 -439 -68 -33 -224 -74 -283 -74 l-24 0 22 16
c13 9 34 33 47 54 84 133 67 346 -35 448 l-33 34 59 -7 c32 -4 97 -19 144 -32z
m530 11 c157 -36 291 -135 305 -226 8 -56 -9 -100 -61 -152 -69 -68 -211 -125
-359 -142 l-60 -7 32 27 c18 15 44 52 59 83 65 132 30 356 -67 426 -24 17 -23
17 31 11 30 -3 84 -12 120 -20z"/>
<path d="M300 595 l0 -285 30 0 c41 0 102 57 130 122 54 125 30 305 -50 389
l-40 42 61 -7 c202 -21 375 -116 407 -225 40 -132 -97 -248 -358 -305 -52 -11
-58 -14 -30 -15 53 -1 176 36 253 76 70 37 132 98 145 143 4 15 9 -22 12 -95
5 -109 7 -120 25 -124 29 -5 81 27 108 68 43 66 60 134 55 230 -5 98 -30 166
-81 220 l-32 34 60 -7 c202 -23 374 -118 406 -225 37 -124 -95 -243 -329 -297
-66 -15 -86 -23 -62 -23 45 -1 168 33 235 64 146 69 209 189 156 294 -56 108
-240 193 -453 208 l-88 6 -1 -129 c0 -91 -3 -122 -10 -105 -49 124 -282 230
-506 231 l-43 0 0 -285z"/>
</g>
</svg>
