<?xml version="1.0" standalone="no"?>
<!DOCTYPE svg PUBLIC "-//W3C//DTD SVG 20010904//EN"
 "http://www.w3.org/TR/2001/REC-SVG-20010904/DTD/svg10.dtd">
<svg version="1.0" xmlns="http://www.w3.org/2000/svg"
 width="240.000000pt" height="237.000000pt" viewBox="0 0 240.000000 237.000000"
 preserveAspectRatio="xMidYMid meet">
<metadata>
Created by potrace 1.16, written by Peter Selinger 2001-2019
</metadata>
<g transform="translate(0.000000,237.000000) scale(0.100000,-0.100000)"
fill="#000000" stroke="none">
<path d="M300 1490 l0 -580 23 -1 c272 -13 673 66 812 160 l46 31 -2 -97 -2
-98 104 3 c392 11 742 112 804 233 9 16 12 29 7 29 -5 0 -14 -11 -20 -25 -27
-59 -189 -134 -377 -174 -104 -23 -334 -51 -419 -51 l-49 0 28 28 c104 103
105 393 1 497 l-25 25 72 0 c85 0 277 -23 392 -46 174 -36 338 -112 373 -174
22 -38 37 -39 18 -1 -58 111 -336 205 -677 230 l-104 7 60 7 c334 39 452 65
581 127 50 24 95 54 117 80 37 40 46 60 27 60 -5 0 -10 -6 -10 -14 0 -23 -80
-87 -147 -118 -132 -59 -354 -105 -575 -116 l-127 -7 24 25 c105 110 103 392
-3 503 l-27 28 95 -6 c268 -18 479 -61 615 -125 81 -38 112 -61 141 -106 24
-35 30 -22 7 16 -70 120 -459 230 -813 230 l-95 0 3 -95 3 -95 -47 30 c-141
89 -470 160 -741 160 l-93 0 0 -580z m360 544 c209 -28 386 -80 475 -142 l40
-28 0 -84 0 -85 -55 -33 c-137 -82 -361 -135 -634 -150 -115 -6 -149 -3 -112
11 8 3 28 34 45 69 69 140 45 359 -47 445 l-27 25 100 -7 c55 -3 152 -13 215
-21z m520 -544 c-1 -104 -4 -190 -9 -190 -5 0 -14 6 -20 14 -18 21 -138 73
-236 101 -108 31 -244 54 -380 64 -111 8 -108 9 95 31 207 22 408 79 500 140
25 16 46 30 47 30 2 0 3 -85 3 -190z m-480 -45 c203 -31 377 -89 448 -149 31
-27 32 -31 32 -101 0 -72 -1 -75 -33 -99 -114 -87 -378 -153 -685 -172 l-112
-7 34 36 c50 53 71 123 71 237 0 114 -17 178 -63 238 l-34 45 118 -6 c66 -3
166 -13 224 -22z"/>
<path d="M643 1900 c-117 -71 -66 -260 70 -260 79 0 136 49 145 125 13 116
-114 197 -215 135z"/>
<path d="M653 1324 c-46 -23 -76 -76 -75 -132 2 -137 182 -188 259 -73 80 118
-55 268 -184 205z"/>
<path d="M1518 1903 c-32 -20 -68 -81 -68 -117 0 -72 55 -136 124 -143 147
-17 221 149 110 247 -29 25 -43 30 -87 30 -31 0 -63 -7 -79 -17z"/>
<path d="M1531 1322 c-126 -64 -95 -241 46 -268 83 -16 174 79 158 163 -18
100 -117 150 -204 105z"/>
<path d="M302 598 l3 -283 23 -3 c32 -5 82 51 107 119 29 79 27 242 -3 320
-12 31 -33 66 -47 79 -14 13 -25 26 -25 30 0 7 103 3 235 -11 222 -22 429 -79
532 -145 l54 -34 -3 -82 -3 -82 -40 -28 c-89 -61 -269 -115 -476 -142 -61 -8
-114 -17 -117 -20 -18 -19 219 14 354 50 99 25 204 68 254 104 l30 21 0 -90
c0 -89 0 -91 24 -91 28 0 79 53 101 107 54 129 29 340 -50 423 l-24 25 77 -3
c218 -8 493 -60 623 -119 69 -32 149 -95 149 -119 0 -8 5 -14 10 -14 19 0 10
20 -27 60 -98 109 -394 190 -751 207 l-137 6 3 -98 3 -98 -33 22 c-144 96
-476 169 -776 171 l-72 0 2 -282z"/>
<path d="M643 710 c-86 -52 -86 -188 0 -240 38 -24 106 -26 147 -5 89 46 92
191 5 245 -42 26 -110 26 -152 0z"/>
<path d="M1540 723 c-23 -9 -60 -45 -76 -75 -20 -38 -17 -84 7 -128 28 -49 66
-70 128 -70 145 0 191 198 61 265 -28 15 -90 19 -120 8z"/>
<path d="M2050 517 c-67 -78 -270 -150 -514 -182 -125 -16 -157 -31 -46 -21
267 25 539 124 593 215 25 43 9 37 -33 -12z"/>
</g>
</svg>
