<?xml version="1.0" standalone="no"?>
<!DOCTYPE svg PUBLIC "-//W3C//DTD SVG 20010904//EN"
 "http://www.w3.org/TR/2001/REC-SVG-20010904/DTD/svg10.dtd">
<svg version="1.0" xmlns="http://www.w3.org/2000/svg"
 width="144.000000pt" height="222.000000pt" viewBox="0 0 144.000000 222.000000"
 preserveAspectRatio="xMidYMid meet">
<metadata>
Created by potrace 1.16, written by Peter Selinger 2001-2019
</metadata>
<g transform="translate(0.000000,222.000000) scale(0.100000,-0.100000)"
fill="#000000" stroke="none">
<path d="M300 1899 c0 -21 1 -22 173 -14 94 4 177 10 182 13 18 12 -76 20
-217 21 -134 1 -138 0 -138 -20z"/>
<path d="M780 1899 c0 -21 1 -22 173 -14 94 4 177 10 182 13 18 12 -76 20
-217 21 -134 1 -138 0 -138 -20z"/>
<path d="M300 1771 c0 -20 4 -21 133 -20 140 1 239 10 222 21 -5 3 -88 9 -182
13 -172 8 -173 7 -173 -14z"/>
<path d="M780 1770 l0 -23 175 5 c157 4 198 9 184 22 -2 2 -84 7 -181 11
l-178 7 0 -22z"/>
<path d="M300 1620 c0 -19 7 -20 138 -19 139 0 240 11 212 22 -8 3 -90 8 -182
11 -162 5 -168 5 -168 -14z"/>
<path d="M780 1620 c0 -19 7 -20 138 -19 139 0 240 11 212 22 -8 3 -90 8 -182
11 -162 5 -168 5 -168 -14z"/>
<path d="M300 1010 l0 -23 351 6 c320 5 371 8 358 21 -2 2 -163 8 -357 12
l-352 7 0 -23z"/>
<path d="M300 880 l0 -23 352 7 c194 4 355 9 357 12 13 13 -38 16 -358 21
l-351 6 0 -23z"/>
<path d="M300 740 l0 -23 351 6 c317 5 372 8 358 21 -2 2 -163 7 -356 11
l-353 8 0 -23z"/>
<path d="M300 591 c0 -21 2 -21 263 -21 298 0 479 9 433 21 -16 4 -168 8 -339
9 -171 0 -321 3 -334 6 -19 5 -23 2 -23 -15z"/>
<path d="M300 460 l0 -23 351 5 c315 5 372 9 358 22 -2 2 -163 7 -356 11
l-353 8 0 -23z"/>
<path d="M300 315 c0 -13 37 -15 278 -15 152 0 315 3 362 7 156 13 27 22 -317
22 -281 1 -323 -1 -323 -14z"/>
</g>
</svg>
