<?xml version="1.0" standalone="no"?>
<!DOCTYPE svg PUBLIC "-//W3C//DTD SVG 20010904//EN"
 "http://www.w3.org/TR/2001/REC-SVG-20010904/DTD/svg10.dtd">
<svg version="1.0" xmlns="http://www.w3.org/2000/svg"
 width="141.000000pt" height="185.000000pt" viewBox="0 0 141.000000 185.000000"
 preserveAspectRatio="xMidYMid meet">
<metadata>
Created by potrace 1.16, written by Peter Selinger 2001-2019
</metadata>
<g transform="translate(0.000000,185.000000) scale(0.100000,-0.100000)"
fill="#000000" stroke="none">
<path d="M302 1404 l3 -149 65 3 c117 6 228 40 278 86 l24 21 -3 -55 -3 -55
69 4 c91 4 210 35 256 66 20 13 43 37 50 54 9 20 22 31 39 34 23 3 23 4 -8 12
-19 4 -36 14 -39 22 -16 42 -196 103 -305 103 l-58 0 0 -51 0 -50 -35 26 c-48
37 -145 65 -248 72 l-88 6 3 -149z m200 110 c65 -15 128 -45 147 -68 12 -14 5
-16 -65 -16 -122 0 -150 7 -165 42 -6 16 -23 38 -37 49 l-26 20 45 -6 c24 -4
70 -13 101 -21z m373 -1 c63 -15 145 -57 145 -73 0 -11 -134 -13 -192 -4 -22
4 -38 12 -38 20 0 7 -14 29 -30 48 l-30 34 42 -5 c24 -3 70 -12 103 -20z
m-205 -112 c0 -21 -47 -65 -89 -83 -41 -18 -171 -48 -206 -48 -8 0 -1 13 16
29 16 16 32 44 35 60 8 40 5 39 207 49 20 1 37 -2 37 -7z m360 -2 c0 -53 -97
-100 -257 -124 l-43 -7 29 31 c16 18 32 45 36 61 7 34 19 38 110 43 33 2 75 4
93 5 17 1 32 -3 32 -9z"/>
<path d="M300 1071 l0 -151 31 0 c96 0 254 41 309 80 l30 21 0 -50 c0 -47 2
-51 24 -51 56 0 183 23 235 42 58 22 121 75 121 101 0 9 11 17 28 20 l27 4
-26 2 c-15 0 -43 17 -66 39 -54 51 -188 92 -305 92 l-38 0 0 -50 0 -49 -47 29
c-58 36 -142 59 -245 67 l-78 6 0 -152z m206 109 c72 -19 154 -60 154 -78 0
-4 -50 -5 -112 -2 -105 5 -113 7 -124 28 -6 12 -22 34 -34 47 l-23 25 30 0
c16 0 65 -9 109 -20z m352 5 c69 -16 131 -45 151 -69 12 -14 3 -16 -87 -16
-108 0 -132 5 -132 25 0 8 -12 27 -26 44 l-26 31 29 0 c15 0 56 -7 91 -15z
m-199 -143 c-28 -44 -178 -101 -268 -102 l-25 0 27 28 c15 15 29 42 33 59 6
31 8 32 68 37 100 10 160 11 169 5 5 -4 3 -16 -4 -27z m371 14 c0 -41 -128
-99 -249 -112 l-56 -7 27 22 c15 12 33 40 39 61 13 44 18 46 157 48 65 2 82
-1 82 -12z"/>
<path d="M300 759 l0 -152 84 6 c98 8 198 37 250 72 l36 24 0 -51 0 -51 78 6
c149 12 266 61 294 123 6 13 19 24 29 24 10 0 21 5 24 10 4 6 -5 10 -20 10
-17 0 -35 10 -47 25 -39 50 -146 87 -285 100 l-73 7 0 -51 c0 -28 -2 -51 -5
-51 -2 0 -20 11 -40 24 -59 40 -196 75 -297 76 l-28 0 0 -151z m183 115 c83
-19 133 -42 162 -74 l20 -23 -34 6 c-18 4 -71 7 -117 7 -74 0 -83 2 -89 20 -4
11 -18 34 -32 50 -24 29 -24 30 -3 30 11 0 53 -7 93 -16z m422 -15 c33 -10 76
-32 95 -49 l35 -31 -40 5 c-22 3 -75 6 -117 6 l-77 0 -17 35 c-9 20 -26 43
-38 51 -20 15 -17 15 39 9 32 -4 86 -15 120 -26z m-235 -109 c0 -48 -164 -120
-272 -120 -27 0 -30 2 -16 13 25 20 48 60 48 84 0 19 6 22 48 26 107 8 192 7
192 -3z m360 -3 c0 -17 -36 -50 -77 -71 -38 -19 -146 -46 -186 -46 l-29 0 25
30 c14 16 28 43 32 59 7 33 17 36 163 39 54 2 72 -1 72 -11z"/>
<path d="M305 592 c-3 -3 -5 -70 -5 -150 l0 -145 88 6 c114 8 211 38 257 81
19 18 35 41 35 50 0 11 9 16 30 16 17 0 30 5 30 10 0 6 -13 10 -28 10 -18 0
-38 10 -53 26 -33 36 -82 59 -164 77 -73 17 -181 27 -190 19z m138 -23 c92
-14 167 -43 197 -74 l23 -25 -49 0 c-27 0 -79 3 -116 6 -62 6 -68 9 -79 36 -6
16 -23 38 -37 48 -29 23 -31 23 61 9z m227 -127 c0 -18 -34 -54 -71 -72 -41
-21 -123 -44 -197 -54 l-44 -7 27 23 c14 13 32 41 39 63 l14 40 64 6 c101 9
168 10 168 1z"/>
</g>
</svg>
