<?xml version="1.0" standalone="no"?>
<!DOCTYPE svg PUBLIC "-//W3C//DTD SVG 20010904//EN"
 "http://www.w3.org/TR/2001/REC-SVG-20010904/DTD/svg10.dtd">
<svg version="1.0" xmlns="http://www.w3.org/2000/svg"
 width="124.000000pt" height="159.000000pt" viewBox="0 0 124.000000 159.000000"
 preserveAspectRatio="xMidYMid meet">
<metadata>
Created by potrace 1.16, written by Peter Selinger 2001-2019
</metadata>
<g transform="translate(0.000000,159.000000) scale(0.100000,-0.100000)"
fill="#000000" stroke="none">
<path d="M300 1257 c0 -45 28 -136 52 -169 l19 -28 -35 0 c-34 0 -36 -2 -36
-33 0 -48 26 -128 55 -171 l24 -36 -41 0 -41 0 6 -54 c7 -70 42 -150 79 -181
l30 -25 -56 0 -56 0 0 -39 c0 -105 74 -221 141 -221 81 1 135 74 154 208 l7
52 -61 0 -62 0 34 30 c40 35 72 104 82 178 l7 52 -47 0 c-44 0 -46 1 -29 17
27 27 62 113 69 171 l7 52 -42 0 -41 0 24 33 c28 36 43 80 53 150 l6 47 -151
0 -151 0 0 -33z m130 -35 c34 -2 72 2 100 12 24 8 46 13 48 11 9 -9 -20 -101
-44 -142 -25 -43 -25 -43 -83 -43 -43 0 -62 5 -74 18 -22 24 -53 99 -60 143
l-5 37 31 -16 c18 -9 57 -18 87 -20z m20 -227 c56 0 83 5 103 18 27 17 27 17
27 -8 0 -39 -37 -125 -67 -157 -35 -37 -99 -40 -130 -5 -27 29 -49 74 -58 117
-3 19 -9 43 -11 52 -5 16 -3 16 28 0 22 -12 57 -17 108 -17z m0 -240 c57 0 83
5 104 19 l29 18 -6 -41 c-9 -67 -52 -145 -92 -166 -32 -18 -36 -18 -70 -2 -51
24 -74 65 -99 179 l-6 26 33 -16 c21 -12 57 -17 107 -17z m-95 -250 c22 -8 63
-14 90 -14 28 0 68 6 90 14 22 8 42 15 44 15 9 0 -13 -80 -34 -125 -66 -137
-192 -92 -224 80 -5 25 -8 45 -7 45 0 0 19 -7 41 -15z"/>
<path d="M645 1243 c10 -71 25 -114 52 -150 l24 -33 -41 0 -41 0 7 -52 c7 -58
41 -144 68 -171 17 -16 15 -17 -29 -17 l-47 0 7 -52 c9 -72 56 -169 93 -190
17 -10 45 -18 63 -18 59 0 131 102 128 181 0 16 -5 8 -13 -21 -19 -68 -44
-109 -79 -130 -46 -28 -64 -25 -107 18 -36 36 -70 116 -70 164 0 18 1 18 27 1
37 -25 165 -25 211 0 44 24 42 47 -4 47 l-35 0 24 33 c29 38 47 90 46 126 -1
19 -4 14 -13 -19 -28 -100 -64 -140 -127 -140 -47 0 -92 48 -114 122 -20 68
-20 82 3 73 74 -31 163 -31 221 -1 40 21 41 46 3 46 l-29 0 29 56 c15 31 28
69 28 83 -1 19 -6 11 -19 -28 -31 -90 -48 -106 -119 -109 l-61 -3 -25 43 c-24
42 -53 134 -44 143 2 2 24 -3 48 -11 78 -27 210 -4 218 39 3 16 -9 17 -143 17
l-146 0 6 -47z"/>
</g>
</svg>
