<?xml version="1.0" standalone="no"?>
<!DOCTYPE svg PUBLIC "-//W3C//DTD SVG 20010904//EN"
 "http://www.w3.org/TR/2001/REC-SVG-20010904/DTD/svg10.dtd">
<svg version="1.0" xmlns="http://www.w3.org/2000/svg"
 width="132.000000pt" height="210.000000pt" viewBox="0 0 132.000000 210.000000"
 preserveAspectRatio="xMidYMid meet">
<metadata>
Created by potrace 1.16, written by Peter Selinger 2001-2019
</metadata>
<g transform="translate(0.000000,210.000000) scale(0.100000,-0.100000)"
fill="#000000" stroke="none">
<path d="M360 1752 c0 -48 0 -49 -30 -44 -27 4 -30 1 -30 -22 0 -22 4 -26 30
-26 27 0 30 -3 30 -33 0 -32 -2 -33 -30 -29 -27 4 -30 1 -30 -22 0 -22 4 -26
30 -26 28 0 30 -3 30 -35 l0 -35 105 0 105 0 0 40 c0 35 3 40 23 40 12 0 28 4
35 9 11 7 10 10 -3 15 -9 3 -25 6 -36 6 -16 0 -19 7 -19 40 0 38 2 40 29 40
17 0 32 4 35 9 7 10 -17 21 -45 21 -16 0 -19 7 -19 50 l0 50 -105 0 -105 0 0
-48z"/>
<path d="M740 1752 c0 -48 0 -49 -30 -44 -27 4 -30 1 -30 -22 0 -23 4 -26 33
-26 31 0 33 -2 29 -33 -3 -30 -6 -33 -33 -29 -26 4 -29 1 -29 -22 0 -23 4 -26
33 -26 30 0 32 -2 32 -32 l0 -33 103 -3 102 -3 0 40 c0 35 3 40 25 43 14 2 26
8 26 13 0 6 -12 11 -26 13 -22 3 -25 8 -25 42 0 34 3 39 25 42 14 2 26 8 26
13 0 6 -12 11 -26 13 -23 3 -25 7 -25 53 l0 49 -105 0 -105 0 0 -48z"/>
<path d="M367 1403 c-4 -3 -7 -26 -7 -51 0 -44 0 -44 -30 -38 -27 5 -30 3 -30
-19 0 -21 5 -25 30 -25 28 0 30 -3 30 -36 0 -35 -1 -36 -30 -30 -27 5 -30 3
-30 -19 0 -21 5 -25 30 -25 28 0 30 -3 30 -35 l0 -35 104 0 105 0 3 38 c3 34
6 37 36 40 34 3 45 22 13 22 -40 0 -51 11 -51 51 0 38 1 39 35 39 19 0 35 5
35 10 0 6 -9 10 -19 10 -42 0 -51 10 -51 61 l0 49 -98 0 c-54 0 -102 -3 -105
-7z"/>
<path d="M745 1398 c-2 -7 -3 -29 -2 -48 1 -33 0 -35 -31 -34 -27 2 -32 -1
-32 -21 0 -19 6 -24 32 -27 28 -3 32 -7 33 -33 0 -28 -3 -30 -32 -29 -29 2
-33 -1 -33 -22 0 -20 5 -24 33 -24 32 0 33 -1 29 -35 l-4 -35 105 0 106 0 3
38 c3 32 7 37 31 40 36 4 34 18 -4 26 -28 5 -30 8 -27 43 3 33 7 38 31 41 36
4 35 18 -3 26 -29 5 -30 8 -30 56 l0 50 -100 0 c-72 0 -102 -4 -105 -12z"/>
<path d="M367 1004 c-4 -4 -7 -27 -7 -52 0 -44 -1 -44 -30 -40 -28 4 -30 2
-30 -25 0 -27 2 -29 30 -23 29 5 30 4 30 -30 0 -35 -1 -36 -30 -32 -28 4 -30
2 -30 -25 0 -27 2 -29 29 -24 28 6 30 4 33 -31 l3 -37 103 -3 102 -3 0 40 c0
36 2 39 35 45 19 4 35 11 35 16 0 6 -16 10 -35 10 -34 0 -35 1 -35 39 0 36 2
39 35 45 45 9 45 26 1 26 l-35 0 -3 53 -3 52 -95 3 c-53 1 -99 0 -103 -4z"/>
<path d="M745 998 c-3 -8 -4 -29 -3 -48 3 -33 1 -35 -29 -35 -29 0 -33 -3 -33
-27 0 -25 3 -28 31 -26 29 3 32 1 33 -30 1 -32 0 -33 -31 -30 -31 4 -33 2 -33
-25 0 -27 2 -29 29 -24 28 6 30 4 33 -31 l3 -37 103 -3 102 -3 0 39 c0 36 3
40 30 46 17 3 30 10 30 16 0 5 -13 10 -30 10 -28 0 -30 2 -30 39 0 35 3 39 30
45 39 7 39 26 1 26 -29 0 -30 2 -33 53 l-3 52 -98 3 c-74 2 -98 0 -102 -10z"/>
<path d="M360 569 l0 -51 -30 7 c-27 6 -30 4 -30 -19 0 -22 4 -26 30 -26 28 0
30 -3 30 -36 0 -34 -1 -35 -30 -29 -27 6 -30 4 -30 -19 0 -22 4 -26 30 -26 28
0 30 -3 30 -35 l0 -35 105 0 105 0 0 40 c0 39 1 40 35 40 19 0 35 4 35 9 0 5
-16 12 -35 15 -33 7 -35 9 -35 46 0 39 1 40 35 40 19 0 35 4 35 9 0 5 -16 12
-35 15 -34 7 -35 8 -35 56 l0 50 -105 0 -105 0 0 -51z"/>
</g>
</svg>
