<?xml version="1.0" standalone="no"?>
<!DOCTYPE svg PUBLIC "-//W3C//DTD SVG 20010904//EN"
 "http://www.w3.org/TR/2001/REC-SVG-20010904/DTD/svg10.dtd">
<svg version="1.0" xmlns="http://www.w3.org/2000/svg"
 width="119.000000pt" height="177.000000pt" viewBox="0 0 119.000000 177.000000"
 preserveAspectRatio="xMidYMid meet">
<metadata>
Created by potrace 1.16, written by Peter Selinger 2001-2019
</metadata>
<g transform="translate(0.000000,177.000000) scale(0.100000,-0.100000)"
fill="#000000" stroke="none">
<path d="M366 1451 c-43 -29 -66 -70 -66 -121 0 -80 60 -140 140 -140 110 0
176 111 126 208 -35 67 -137 94 -200 53z"/>
<path d="M673 1450 c-87 -52 -83 -198 6 -245 38 -19 104 -19 142 0 91 48 91
203 -1 250 -41 21 -109 19 -147 -5z"/>
<path d="M396 1170 c-64 -20 -101 -79 -94 -152 14 -138 192 -174 264 -54 23
39 21 111 -3 144 -42 56 -107 80 -167 62z"/>
<path d="M705 1170 c-106 -32 -129 -187 -38 -254 57 -42 138 -30 192 28 34 36
40 118 12 163 -36 57 -102 82 -166 63z"/>
<path d="M707 865 c-46 -16 -64 -30 -84 -69 -52 -101 30 -216 146 -203 37 4
52 13 83 46 33 35 38 46 38 88 0 103 -90 171 -183 138z"/>
<path d="M363 850 c-81 -49 -84 -177 -6 -234 41 -30 114 -33 158 -6 122 76 69
260 -75 260 -27 0 -58 -8 -77 -20z"/>
<path d="M385 566 c-48 -22 -77 -60 -82 -110 -7 -55 9 -98 49 -131 24 -21 40
-25 89 -25 53 0 63 3 95 33 78 71 56 191 -43 233 -40 17 -69 17 -108 0z"/>
</g>
</svg>
