<?xml version="1.0" standalone="no"?>
<!DOCTYPE svg PUBLIC "-//W3C//DTD SVG 20010904//EN"
 "http://www.w3.org/TR/2001/REC-SVG-20010904/DTD/svg10.dtd">
<svg version="1.0" xmlns="http://www.w3.org/2000/svg"
 width="180.000000pt" height="296.000000pt" viewBox="0 0 180.000000 296.000000"
 preserveAspectRatio="xMidYMid meet">
<metadata>
Created by potrace 1.16, written by Peter Selinger 2001-2019
</metadata>
<g transform="translate(0.000000,296.000000) scale(0.100000,-0.100000)"
fill="#000000" stroke="none">
<path d="M302 2617 c3 -23 14 -61 24 -82 24 -51 95 -120 139 -137 19 -6 35
-14 35 -18 0 -3 -19 -14 -42 -24 -82 -38 -146 -125 -156 -213 l-5 -43 292 0
c330 0 304 -8 276 87 -20 66 -89 145 -150 170 -25 10 -45 20 -45 23 0 3 20 13
45 23 61 25 130 104 150 170 28 95 54 87 -276 87 l-292 0 5 -43z m98 -29 c111
-40 314 -33 418 12 49 22 51 16 21 -50 -25 -56 -72 -105 -124 -132 -50 -26
-158 -35 -211 -18 -88 29 -159 102 -184 190 -8 28 -7 31 8 24 9 -4 42 -16 72
-26z m307 -241 c56 -29 105 -80 129 -132 34 -72 32 -77 -22 -54 -109 48 -340
48 -450 0 -26 -12 -48 -20 -49 -19 -7 9 20 73 47 114 25 36 49 57 98 82 61 32
70 34 140 30 43 -3 89 -12 107 -21z"/>
<path d="M920 2642 c0 -85 83 -205 165 -239 25 -10 45 -20 45 -23 0 -3 -20
-13 -45 -23 -61 -25 -130 -104 -150 -170 -28 -95 -54 -87 276 -87 l292 0 -5
43 c-10 88 -74 175 -156 213 -23 10 -42 21 -42 24 0 4 16 12 35 18 44 17 115
86 139 137 10 21 21 59 24 82 l5 43 -292 0 c-275 0 -291 -1 -291 -18z m148
-68 c121 -25 296 -13 376 26 22 11 41 18 41 17 7 -9 -21 -73 -47 -113 -25 -36
-49 -57 -98 -82 -61 -32 -70 -34 -140 -30 -116 7 -194 59 -239 158 -29 64 -28
74 10 55 17 -9 61 -23 97 -31z m274 -237 c67 -34 119 -96 137 -161 9 -36 7
-43 -11 -29 -78 61 -360 68 -485 13 -51 -22 -53 -16 -19 55 21 45 48 76 98
114 33 24 93 40 155 41 50 0 73 -6 125 -33z"/>
<path d="M300 2019 c0 -80 95 -202 177 -230 l36 -11 -48 -23 c-91 -45 -165
-144 -165 -225 l0 -35 291 3 291 3 -6 41 c-15 92 -84 179 -171 215 l-41 17 58
28 c82 42 139 119 153 208 l7 45 -291 0 -291 0 0 -36z m138 -48 c121 -25 335
-8 398 33 l26 18 -7 -34 c-31 -142 -193 -236 -337 -194 -97 28 -167 93 -193
179 l-14 47 37 -19 c20 -10 61 -24 90 -30z m244 -221 c29 -11 69 -33 90 -50
36 -30 88 -119 88 -152 0 -16 -2 -16 -32 2 -50 29 -123 41 -243 41 -112 0
-208 -18 -252 -46 l-22 -15 14 46 c45 149 209 230 357 174z"/>
<path d="M920 2039 c0 -38 33 -120 65 -162 22 -29 55 -55 93 -74 l58 -29 -41
-17 c-87 -36 -156 -123 -171 -215 l-6 -41 291 -3 291 -3 0 35 c0 81 -81 189
-172 230 l-40 18 35 11 c84 28 177 149 177 231 l0 35 -290 0 c-257 0 -290 -2
-290 -16z m125 -63 c121 -32 351 -16 420 30 l25 16 -15 -47 c-58 -194 -314
-255 -460 -110 -38 38 -74 105 -75 138 0 16 2 16 23 3 12 -8 49 -22 82 -30z
m249 -220 c85 -26 156 -97 181 -180 l14 -44 -32 18 c-100 58 -383 57 -484 -1
-39 -22 -43 -11 -18 48 56 133 200 201 339 159z"/>
<path d="M300 1431 c0 -94 82 -200 184 -237 l29 -10 -56 -28 c-88 -43 -157
-143 -157 -227 l0 -29 290 0 c329 0 303 -8 275 87 -20 66 -89 145 -150 170
-25 10 -45 20 -45 23 0 3 20 13 45 23 61 25 130 104 150 170 28 95 54 87 -275
87 l-290 0 0 -29z m97 -43 c110 -39 319 -33 420 12 29 13 43 15 43 7 0 -31
-52 -117 -90 -150 -154 -132 -394 -61 -450 133 -8 28 -7 31 8 24 9 -4 41 -15
69 -26z m318 -245 c53 -28 99 -77 124 -133 30 -66 28 -72 -21 -50 -68 30 -172
43 -278 37 -88 -6 -182 -28 -204 -48 -33 -30 -22 27 19 97 26 44 85 92 140
112 47 18 173 9 220 -15z"/>
<path d="M920 1442 c0 -85 78 -198 163 -238 l49 -22 -49 -26 c-66 -33 -129
-105 -148 -169 -28 -95 -54 -87 276 -87 l292 0 -5 43 c-10 90 -70 172 -155
213 l-56 28 29 10 c102 37 184 143 184 237 l0 29 -290 0 c-274 0 -290 -1 -290
-18z m181 -73 c122 -19 322 4 363 42 19 17 25 9 16 -22 -55 -192 -297 -263
-450 -132 -38 33 -90 119 -90 150 0 8 14 6 43 -7 24 -11 77 -24 118 -31z m241
-232 c67 -34 119 -96 137 -161 10 -39 8 -41 -22 -22 -88 58 -376 59 -486 1
-38 -19 -39 -9 -10 55 33 73 95 128 169 151 14 4 53 8 87 8 51 1 72 -5 125
-32z"/>
<path d="M302 817 c10 -88 74 -175 156 -213 48 -22 51 -29 19 -38 -48 -12
-115 -74 -146 -137 -17 -34 -31 -73 -31 -86 l0 -23 290 0 c160 0 290 4 290 8
0 5 -7 31 -15 59 -20 66 -89 145 -150 170 -25 10 -45 20 -45 23 0 3 20 13 45
23 61 25 130 104 150 170 28 95 54 87 -276 87 l-292 0 5 -43z m97 -29 c110
-39 317 -33 418 12 51 22 53 16 19 -55 -24 -52 -74 -103 -129 -131 -41 -22
-154 -30 -199 -15 -92 30 -163 102 -188 191 -8 28 -7 31 8 24 9 -4 41 -16 71
-26z m316 -245 c53 -28 99 -77 124 -133 30 -66 28 -72 -21 -50 -68 30 -172 43
-278 37 -88 -6 -182 -28 -204 -48 -33 -30 -22 27 19 97 26 44 85 92 140 112
47 18 173 9 220 -15z"/>
</g>
</svg>
