<?xml version="1.0" standalone="no"?>
<!DOCTYPE svg PUBLIC "-//W3C//DTD SVG 20010904//EN"
 "http://www.w3.org/TR/2001/REC-SVG-20010904/DTD/svg10.dtd">
<svg version="1.0" xmlns="http://www.w3.org/2000/svg"
 width="192.000000pt" height="447.000000pt" viewBox="0 0 192.000000 447.000000"
 preserveAspectRatio="xMidYMid meet">
<metadata>
Created by potrace 1.16, written by Peter Selinger 2001-2019
</metadata>
<g transform="translate(0.000000,447.000000) scale(0.100000,-0.100000)"
fill="#000000" stroke="none">
<path d="M300 3740 l0 -430 290 0 290 0 0 430 0 430 -290 0 -290 0 0 -430z
m568 153 l3 -143 -281 0 -280 0 0 138 c0 76 3 142 7 145 4 4 128 6 277 5 l271
-3 3 -142z m-3 -308 l0 -140 -275 0 -275 0 -3 143 -3 142 278 -2 278 -3 0
-140z"/>
<path d="M1040 3740 l0 -430 290 0 290 0 0 430 0 430 -290 0 -290 0 0 -430z
m568 153 l3 -143 -281 0 -280 0 0 138 c0 76 3 142 7 145 4 4 128 6 277 5 l271
-3 3 -142z m0 -305 l-3 -143 -275 0 -275 0 -3 129 c-2 71 -1 135 2 142 4 11
58 14 281 14 l276 0 -3 -142z"/>
<path d="M300 2745 l0 -435 290 0 290 0 0 435 0 435 -290 0 -290 0 0 -435z
m568 170 c1 -66 0 -130 -3 -143 l-5 -22 -273 2 -272 3 -3 143 -3 142 278 -2
278 -3 3 -120z m2 -320 l0 -145 -280 0 -280 0 0 145 0 145 280 0 280 0 0 -145z"/>
<path d="M1040 2745 l0 -435 290 0 290 0 0 435 0 435 -290 0 -290 0 0 -435z
m568 153 l-3 -143 -269 -3 c-209 -2 -271 1 -278 10 -9 16 -11 262 -1 271 3 4
129 7 280 7 l274 0 -3 -142z m2 -303 l0 -145 -280 0 -280 0 0 145 0 145 280 0
280 0 0 -145z"/>
<path d="M300 1725 l0 -435 290 0 290 0 0 435 0 435 -290 0 -290 0 0 -435z
m565 150 l0 -140 -277 -3 -278 -2 0 145 0 145 278 -2 277 -3 0 -140z m3 -302
l3 -143 -281 0 -280 0 0 145 0 145 278 -2 277 -3 3 -142z"/>
<path d="M1040 1725 l0 -435 290 0 290 0 0 435 0 435 -290 0 -290 0 0 -435z
m570 150 l0 -145 -277 2 -278 3 -3 129 c-1 72 0 136 2 143 4 10 64 13 281 13
l275 0 0 -145z m0 -300 l0 -145 -280 0 -280 0 0 138 c0 76 3 142 7 145 3 4
129 7 280 7 l273 0 0 -145z"/>
<path d="M300 730 l0 -430 290 0 290 0 0 430 0 430 -290 0 -290 0 0 -430z
m565 155 l0 -140 -277 -3 -278 -2 0 145 0 145 278 -2 277 -3 0 -140z m3 -307
l-3 -143 -275 0 -275 0 -3 143 -3 142 281 0 281 0 -3 -142z"/>
</g>
</svg>
