<?xml version="1.0" standalone="no"?>
<!DOCTYPE svg PUBLIC "-//W3C//DTD SVG 20010904//EN"
 "http://www.w3.org/TR/2001/REC-SVG-20010904/DTD/svg10.dtd">
<svg version="1.0" xmlns="http://www.w3.org/2000/svg"
 width="141.000000pt" height="188.000000pt" viewBox="0 0 141.000000 188.000000"
 preserveAspectRatio="xMidYMid meet">
<metadata>
Created by potrace 1.16, written by Peter Selinger 2001-2019
</metadata>
<g transform="translate(0.000000,188.000000) scale(0.100000,-0.100000)"
fill="#000000" stroke="none">
<path d="M300 1430 l0 -149 68 5 c130 10 229 41 280 87 l22 20 0 -56 0 -56 63
5 c95 8 167 24 224 51 52 24 93 63 93 89 0 8 11 14 28 15 l27 1 -28 8 c-16 5
-39 20 -53 35 -46 50 -189 94 -304 95 l-55 0 4 -52 c3 -51 3 -52 -15 -37 -56
49 -188 88 -296 89 l-58 0 0 -150z m202 114 c65 -15 128 -45 147 -68 12 -14 4
-16 -80 -16 -111 0 -136 6 -144 31 -4 10 -19 32 -35 48 l-30 29 43 -5 c23 -3
68 -11 99 -19z m347 4 c69 -13 131 -40 155 -67 l19 -21 -85 0 c-103 0 -148 8
-148 26 0 7 -14 29 -31 49 l-31 35 34 -6 c18 -3 57 -10 87 -16z m-179 -119 c0
-6 -15 -26 -33 -44 -36 -36 -121 -67 -216 -80 l-55 -7 28 32 c15 18 30 46 33
61 6 32 21 37 128 42 33 2 72 4 88 5 15 1 27 -3 27 -9z m360 -7 c0 -39 -87
-87 -197 -108 -102 -19 -105 -19 -73 16 16 17 31 44 35 60 7 33 22 38 130 43
33 2 70 4 83 5 15 1 22 -3 22 -16z"/>
<path d="M302 1094 l3 -149 60 3 c121 6 235 40 283 84 l22 21 0 -55 0 -55 66
4 c148 9 285 64 307 123 7 20 20 30 37 33 24 3 23 4 -8 12 -18 4 -37 15 -42
24 -25 47 -185 100 -302 101 l-58 0 0 -51 0 -50 -32 25 c-50 37 -151 67 -250
73 l-89 6 3 -149z m200 110 c65 -15 128 -45 147 -68 12 -14 5 -16 -72 -16
-108 0 -145 8 -152 31 -4 10 -20 32 -37 49 l-30 31 43 -7 c24 -3 70 -12 101
-20z m373 -1 c63 -15 145 -57 145 -73 0 -11 -134 -13 -192 -4 -22 4 -38 12
-38 20 0 7 -14 29 -30 48 l-30 34 42 -5 c24 -3 70 -12 103 -20z m-205 -114 c0
-6 -15 -26 -33 -44 -36 -36 -123 -68 -219 -79 l-58 -7 30 30 c17 16 33 44 36
60 8 40 5 39 207 49 21 1 37 -3 37 -9z m360 0 c0 -54 -100 -102 -260 -124 -42
-6 -44 -6 -24 8 11 9 29 35 39 59 10 24 21 45 23 48 3 5 106 15 185 18 20 1
37 -3 37 -9z"/>
<path d="M300 760 l0 -153 78 7 c100 8 201 36 252 70 l40 26 0 -51 0 -52 82 8
c144 12 251 56 288 117 11 18 30 36 42 40 21 5 20 6 -6 7 -17 1 -36 11 -48 26
-11 14 -41 36 -67 50 -50 25 -187 55 -252 55 l-39 0 0 -50 0 -50 -40 26 c-51
34 -152 62 -252 70 l-78 7 0 -153z m241 100 c57 -18 132 -63 119 -72 -3 -2
-54 -1 -115 2 -102 5 -110 7 -121 28 -6 12 -22 34 -35 49 l-24 26 56 -7 c31
-3 85 -15 120 -26z m350 6 c62 -19 100 -39 124 -67 l20 -22 -25 6 c-14 4 -66
7 -117 7 l-92 0 -17 35 c-9 20 -26 43 -38 51 -20 15 -17 16 39 10 33 -4 81
-13 106 -20z m-221 -117 c0 -24 -65 -70 -127 -89 -69 -21 -185 -37 -168 -23
26 20 55 68 55 89 0 19 6 23 38 27 87 9 202 7 202 -4z m360 -2 c0 -17 -36 -50
-77 -71 -38 -19 -146 -46 -186 -46 l-29 0 25 30 c14 16 28 43 32 59 7 34 18
37 153 39 62 2 82 -1 82 -11z"/>
<path d="M300 449 l0 -152 88 6 c99 6 201 36 251 74 l33 26 -3 -52 -4 -51 55
0 c136 1 289 57 318 116 9 20 23 34 34 34 10 0 18 5 18 10 0 6 -9 10 -21 10
-12 0 -30 11 -40 24 -39 49 -147 86 -296 101 l-63 6 0 -57 0 -57 -22 20 c-50
45 -144 75 -280 87 l-68 7 0 -152z m238 99 c35 -10 77 -32 95 -48 l32 -29 -70
3 c-38 2 -91 4 -116 5 -42 1 -48 4 -59 31 -7 17 -24 40 -39 51 l-26 21 60 -7
c33 -4 88 -16 123 -27z m295 18 c82 -16 156 -47 183 -77 17 -19 16 -19 -52
-15 -38 3 -90 5 -116 5 -45 1 -49 3 -68 40 -11 22 -28 45 -37 50 -16 9 -16 10
-1 11 9 0 50 -6 91 -14z m-163 -124 c0 -18 -34 -54 -69 -71 -41 -22 -133 -46
-200 -54 l-45 -6 28 22 c15 12 33 40 40 62 14 39 16 40 68 46 83 9 178 10 178
1z m360 -5 c0 -7 -12 -25 -27 -39 -43 -41 -89 -56 -241 -82 l-34 -6 31 36 c18
20 34 49 38 64 5 27 9 29 57 33 127 9 176 7 176 -6z"/>
</g>
</svg>
