<?xml version="1.0" standalone="no"?>
<!DOCTYPE svg PUBLIC "-//W3C//DTD SVG 20010904//EN"
 "http://www.w3.org/TR/2001/REC-SVG-20010904/DTD/svg10.dtd">
<svg version="1.0" xmlns="http://www.w3.org/2000/svg"
 width="132.000000pt" height="211.000000pt" viewBox="0 0 132.000000 211.000000"
 preserveAspectRatio="xMidYMid meet">
<metadata>
Created by potrace 1.16, written by Peter Selinger 2001-2019
</metadata>
<g transform="translate(0.000000,211.000000) scale(0.100000,-0.100000)"
fill="#000000" stroke="none">
<path d="M360 1760 l0 -49 -30 6 c-27 5 -30 3 -30 -21 0 -22 4 -26 30 -26 28
0 30 -3 30 -35 0 -33 -1 -34 -30 -28 -27 5 -30 3 -30 -21 0 -22 4 -26 30 -26
28 0 30 -3 30 -35 l0 -35 105 0 105 0 0 40 c0 38 2 40 29 40 43 0 47 18 6 26
-33 6 -35 9 -35 45 0 36 2 39 29 39 43 0 47 18 6 26 -34 6 -35 7 -35 55 l0 49
-105 0 -105 0 0 -50z"/>
<path d="M741 1763 l3 -48 -32 3 c-28 3 -32 0 -32 -22 0 -23 4 -26 36 -26 29
0 35 -3 30 -16 -3 -9 -6 -24 -6 -35 0 -15 -5 -17 -30 -12 -27 5 -30 3 -30 -21
0 -23 4 -26 33 -26 32 0 33 -1 29 -35 l-4 -35 106 0 106 0 0 40 c0 38 2 40 30
40 17 0 30 5 30 10 0 6 -13 13 -30 17 -27 5 -30 9 -30 44 0 37 2 39 31 39 38
0 35 24 -4 28 -25 3 -27 7 -27 53 l0 49 -106 0 -106 0 3 -47z"/>
<path d="M367 1413 c-4 -3 -7 -26 -7 -51 0 -44 0 -44 -30 -38 -27 5 -30 3 -30
-19 0 -21 5 -25 30 -25 28 0 30 -3 30 -36 0 -35 -1 -36 -30 -30 -28 5 -30 3
-30 -23 0 -25 3 -27 29 -23 28 4 30 2 33 -34 2 -22 6 -38 11 -36 4 1 49 2 101
2 l95 0 3 38 c3 34 6 37 36 40 39 4 43 22 5 23 -16 1 -32 1 -36 0 -5 -1 -7 18
-5 41 3 40 5 43 36 46 34 3 45 22 13 22 -42 0 -51 10 -51 61 l0 49 -98 0 c-54
0 -102 -3 -105 -7z"/>
<path d="M745 1410 c-4 -6 -6 -23 -5 -38 4 -52 2 -55 -30 -48 -27 5 -30 3 -30
-19 0 -22 4 -25 34 -25 32 0 34 -2 31 -27 -2 -16 -4 -32 -4 -37 -1 -5 -14 -6
-31 -2 -27 5 -30 3 -30 -19 0 -22 4 -25 34 -25 33 0 34 -1 29 -35 l-5 -35 106
0 105 0 3 38 c3 32 7 37 31 40 15 2 27 7 27 12 0 5 -12 10 -27 12 -25 3 -28 7
-28 43 0 36 3 40 28 43 36 4 35 18 -3 26 -29 5 -30 8 -30 56 l0 50 -99 0 c-57
0 -103 -4 -106 -10z"/>
<path d="M360 975 c0 -43 -1 -45 -30 -45 -26 0 -30 -4 -30 -26 0 -24 3 -26 30
-20 29 5 30 4 30 -29 0 -32 -2 -35 -30 -35 -26 0 -30 -4 -30 -26 0 -24 3 -26
29 -21 28 6 30 4 33 -31 l3 -37 103 -3 102 -3 0 40 c0 36 2 39 35 45 19 4 35
11 35 16 0 6 -16 10 -35 10 -34 0 -35 1 -35 39 0 36 2 39 35 45 19 4 35 11 35
16 0 6 -16 10 -35 10 l-35 0 0 50 0 50 -105 0 -105 0 0 -45z"/>
<path d="M740 998 c5 -62 2 -71 -30 -66 -27 4 -30 2 -30 -25 0 -27 2 -28 30
-22 29 6 30 5 30 -29 0 -33 -2 -36 -30 -36 -26 0 -30 -4 -30 -26 0 -24 3 -26
29 -21 28 6 30 4 33 -31 l3 -37 103 -3 102 -3 0 39 c0 36 3 40 30 46 17 3 30
10 30 16 0 5 -13 10 -30 10 -28 0 -30 2 -30 39 0 35 3 39 30 45 17 3 30 10 30
16 0 5 -13 10 -30 10 -29 0 -30 1 -30 50 l0 50 -106 0 c-103 0 -105 0 -104
-22z"/>
<path d="M360 569 l0 -51 -30 7 c-27 6 -30 4 -30 -19 0 -22 4 -26 30 -26 28 0
30 -3 30 -36 0 -34 -1 -35 -30 -29 -27 6 -30 4 -30 -19 0 -22 4 -26 29 -26 26
0 30 -4 33 -32 l3 -33 100 0 100 0 3 38 c3 33 6 37 32 37 42 0 46 18 5 26 -33
6 -35 9 -35 45 0 36 2 39 29 39 43 0 47 17 6 24 -34 7 -35 8 -35 56 l0 50
-105 0 -105 0 0 -51z"/>
<path d="M744 607 c-2 -7 -3 -28 -2 -47 3 -34 2 -35 -29 -32 -29 2 -33 -1 -33
-23 0 -21 5 -25 29 -25 23 0 30 -5 34 -27 7 -38 0 -45 -34 -38 -26 6 -29 4
-29 -19 0 -23 4 -26 33 -26 30 0 32 -2 32 -32 l0 -33 100 0 100 0 3 38 c3 34
6 37 33 37 38 0 38 19 -1 27 -27 5 -30 9 -30 44 0 37 2 39 30 39 17 0 30 5 30
10 0 6 -13 13 -30 17 -28 5 -30 8 -30 54 l0 49 -100 0 c-73 0 -102 -4 -106
-13z"/>
</g>
</svg>
