<?xml version="1.0" standalone="no"?>
<!DOCTYPE svg PUBLIC "-//W3C//DTD SVG 20010904//EN"
 "http://www.w3.org/TR/2001/REC-SVG-20010904/DTD/svg10.dtd">
<svg version="1.0" xmlns="http://www.w3.org/2000/svg"
 width="185.000000pt" height="310.000000pt" viewBox="0 0 185.000000 310.000000"
 preserveAspectRatio="xMidYMid meet">
<metadata>
Created by potrace 1.16, written by Peter Selinger 2001-2019
</metadata>
<g transform="translate(0.000000,310.000000) scale(0.100000,-0.100000)"
fill="#000000" stroke="none">
<path d="M390 2682 l0 -122 -45 7 c-44 6 -45 5 -45 -22 0 -27 1 -28 45 -22
l45 7 0 -40 0 -40 -45 7 c-44 6 -45 5 -45 -22 0 -27 1 -28 45 -22 l45 7 0
-100 0 -100 43 0 c224 1 457 107 506 231 7 17 10 -14 10 -105 l1 -129 88 6
c176 13 346 78 420 162 20 23 49 45 65 49 31 7 37 26 7 26 -17 0 -20 7 -20 39
0 31 4 41 20 46 27 9 25 25 -3 25 -16 0 -31 12 -48 37 -69 107 -284 193 -478
193 l-51 0 0 -127 0 -128 -21 42 c-54 110 -236 196 -446 210 l-93 6 0 -121z
m235 77 c204 -48 332 -163 309 -278 -5 -25 -11 -30 -28 -26 -11 2 -56 7 -98
10 l-78 7 0 -26 0 -27 68 6 c37 3 79 8 95 10 27 4 27 4 11 -20 -22 -34 -100
-90 -160 -115 -60 -26 -197 -60 -243 -60 l-33 0 32 37 c48 55 71 115 77 203 8
108 -21 203 -80 264 l-42 43 45 -4 c25 -3 81 -13 125 -24z m545 5 c101 -21
227 -82 273 -134 21 -22 37 -44 37 -50 0 -6 -23 -7 -61 -3 -60 6 -61 6 -57
-18 3 -23 6 -24 71 -20 66 3 67 3 67 -22 0 -53 -7 -58 -77 -51 -64 7 -65 7
-61 -17 3 -22 7 -24 56 -21 29 2 52 -1 52 -6 0 -14 -61 -66 -112 -96 -61 -35
-183 -73 -264 -81 l-69 -7 32 33 c59 62 78 120 78 239 0 121 -19 178 -82 242
l-36 37 39 -5 c21 -3 73 -12 114 -20z m-687 -221 c-7 -2 -19 -2 -25 0 -7 3 -2
5 12 5 14 0 19 -2 13 -5z m0 -110 c-7 -2 -19 -2 -25 0 -7 3 -2 5 12 5 14 0 19
-2 13 -5z"/>
<path d="M730 2556 c0 -25 1 -26 63 -20 155 13 164 28 25 39 l-88 7 0 -26z"/>
<path d="M390 2030 l0 -123 -45 5 c-42 5 -45 4 -45 -18 0 -22 4 -24 45 -24
l45 0 0 -36 0 -37 -45 5 c-42 5 -45 4 -45 -18 0 -22 4 -24 45 -24 l45 0 0 -99
0 -100 68 5 c238 18 414 99 476 219 15 29 16 24 16 -98 l0 -127 53 5 c28 3 77
8 107 11 69 8 169 38 240 74 51 26 140 103 140 122 0 4 14 8 30 8 17 0 30 5
30 10 0 6 -9 10 -20 10 -17 0 -20 7 -20 45 0 38 3 45 20 45 11 0 20 5 20 10 0
6 -9 10 -19 10 -11 0 -32 17 -48 39 -80 109 -238 177 -455 197 l-78 6 0 -128
c0 -125 -1 -128 -16 -97 -54 110 -243 199 -461 218 l-83 7 0 -122z m207 81
c216 -45 360 -166 336 -282 l-6 -30 -76 6 c-42 4 -86 8 -98 11 -19 4 -23 0
-23 -22 l0 -27 90 6 c50 3 90 2 90 -2 0 -5 -21 -27 -46 -51 -72 -66 -200 -115
-354 -135 l-55 -8 33 31 c18 17 45 57 60 89 24 51 27 70 27 158 0 88 -4 107
-27 158 -15 32 -42 72 -59 88 -30 28 -31 29 -8 29 13 0 65 -9 116 -19z m615
-12 c40 -11 99 -34 131 -51 57 -31 137 -101 137 -121 0 -6 -22 -8 -60 -4 -58
5 -60 4 -60 -19 0 -23 3 -24 70 -24 66 0 70 -1 70 -22 0 -44 -13 -51 -79 -46
-61 4 -62 4 -59 -21 3 -24 6 -25 58 -22 l55 2 -40 -41 c-67 -69 -208 -126
-365 -146 l-55 -6 32 26 c18 15 45 53 60 84 26 52 28 67 28 167 0 100 -2 115
-28 167 -15 31 -42 69 -60 84 l-32 27 62 -7 c34 -4 94 -16 135 -27z m-737
-209 c-3 -5 -13 -10 -21 -10 -8 0 -12 5 -9 10 3 6 13 10 21 10 8 0 12 -4 9
-10z m0 -110 c-3 -5 -13 -10 -21 -10 -8 0 -12 5 -9 10 3 6 13 10 21 10 8 0 12
-4 9 -10z"/>
<path d="M730 1904 c0 -22 4 -24 49 -24 66 0 141 11 141 21 0 4 -26 10 -57 14
-145 14 -133 15 -133 -11z"/>
<path d="M390 1392 l0 -122 -45 7 c-44 6 -45 5 -45 -22 0 -27 1 -27 45 -21
l45 7 0 -40 0 -41 -45 7 c-44 6 -45 5 -45 -22 0 -27 1 -28 45 -22 l45 7 0
-102 0 -101 85 6 c110 8 203 31 290 72 89 43 137 83 164 137 l21 43 0 -129 0
-129 88 7 c177 13 325 68 411 154 27 27 61 52 75 56 31 8 35 26 6 26 -17 0
-20 7 -20 39 0 31 4 41 20 46 27 9 25 25 -3 25 -16 0 -31 12 -48 37 -68 105
-282 193 -470 193 l-59 0 0 -127 0 -128 -21 42 c-54 110 -238 197 -446 210
l-93 6 0 -121z m235 77 c206 -50 332 -163 309 -278 -5 -25 -11 -30 -28 -26
-11 2 -56 7 -98 10 l-78 7 0 -26 0 -27 68 6 c37 3 79 8 95 10 27 4 27 4 11
-20 -22 -34 -100 -90 -160 -115 -63 -27 -198 -60 -247 -60 l-39 0 31 25 c16
14 43 52 58 83 25 52 28 67 27 162 0 120 -17 170 -79 238 l-36 40 43 -5 c24
-2 79 -13 123 -24z m565 -1 c104 -25 208 -77 255 -129 49 -55 46 -61 -26 -53
-60 7 -61 6 -57 -17 3 -23 6 -24 71 -20 l67 3 0 -28 c0 -50 -10 -56 -79 -48
-62 7 -63 7 -59 -17 3 -22 7 -24 56 -21 52 3 53 3 42 -18 -13 -24 -77 -72
-134 -102 -48 -25 -216 -68 -264 -68 l-36 0 32 33 c58 60 77 119 77 237 0 121
-19 178 -82 242 l-36 36 44 -5 c24 -2 82 -14 129 -25z m-707 -215 c-7 -2 -19
-2 -25 0 -7 3 -2 5 12 5 14 0 19 -2 13 -5z m0 -110 c-7 -2 -19 -2 -25 0 -7 3
-2 5 12 5 14 0 19 -2 13 -5z"/>
<path d="M730 1266 c0 -25 1 -26 63 -20 155 13 164 28 25 38 l-88 7 0 -25z"/>
<path d="M390 759 l0 -121 -45 6 c-43 7 -45 6 -45 -18 0 -24 3 -26 45 -26 l45
0 0 -36 0 -36 -45 6 c-43 7 -45 6 -45 -18 0 -24 3 -26 45 -26 l45 0 0 -96 0
-97 93 6 c208 13 392 100 446 210 l21 42 0 -127 0 -128 59 0 c176 0 381 79
458 175 17 21 37 35 50 35 29 0 38 17 13 25 -31 10 -29 80 3 90 22 6 22 7 -6
19 -15 7 -36 26 -46 42 -59 97 -244 177 -443 191 l-88 6 -1 -129 c0 -91 -3
-122 -10 -105 -49 123 -283 231 -501 231 l-48 0 0 -121z m253 75 c191 -49 313
-163 291 -273 -7 -35 10 -33 -154 -16 -49 6 -50 5 -50 -20 l0 -27 91 8 c90 7
91 6 80 -14 -39 -73 -227 -156 -400 -175 l-44 -5 36 36 c112 115 115 359 7
473 l-40 42 61 -7 c33 -3 88 -13 122 -22z m551 2 c112 -29 183 -64 243 -122
60 -57 57 -68 -17 -60 l-60 7 0 -27 0 -27 70 7 70 6 0 -27 c0 -50 -11 -57 -79
-49 l-61 7 0 -27 c0 -27 1 -27 55 -21 30 3 55 2 55 -3 0 -4 -19 -25 -42 -45
-73 -66 -209 -117 -372 -139 l-38 -5 34 33 c19 19 46 56 59 82 21 43 24 63 24
159 0 124 -18 181 -77 243 l-32 32 36 0 c19 0 79 -11 132 -24z m-711 -213 c-7
-2 -19 -2 -25 0 -7 3 -2 5 12 5 14 0 19 -2 13 -5z m0 -110 c-7 -2 -19 -2 -25
0 -7 3 -2 5 12 5 14 0 19 -2 13 -5z"/>
<path d="M730 633 l0 -25 83 7 c142 12 138 28 -10 39 -73 5 -73 5 -73 -21z"/>
</g>
</svg>
