<?xml version="1.0" standalone="no"?>
<!DOCTYPE svg PUBLIC "-//W3C//DTD SVG 20010904//EN"
 "http://www.w3.org/TR/2001/REC-SVG-20010904/DTD/svg10.dtd">
<svg version="1.0" xmlns="http://www.w3.org/2000/svg"
 width="172.000000pt" height="308.000000pt" viewBox="0 0 172.000000 308.000000"
 preserveAspectRatio="xMidYMid meet">
<metadata>
Created by potrace 1.16, written by Peter Selinger 2001-2019
</metadata>
<g transform="translate(0.000000,308.000000) scale(0.100000,-0.100000)"
fill="#000000" stroke="none">
<path d="M300 2490 l0 -293 86 7 c221 18 412 109 459 219 13 29 14 22 15 -95
l0 -128 34 0 c19 0 70 5 112 11 178 25 327 97 385 186 27 42 30 55 27 105 -5
68 -35 112 -117 170 -85 60 -257 108 -383 108 l-58 0 0 -127 0 -128 -21 43
c-55 111 -236 195 -446 209 l-93 6 0 -293z m220 254 c41 -9 112 -33 157 -55
156 -74 207 -184 136 -290 -57 -84 -216 -156 -386 -175 l-62 -7 32 27 c118 99
123 363 10 481 l-43 45 40 -6 c23 -3 75 -12 116 -20z m577 -5 c198 -45 330
-161 309 -272 -15 -78 -103 -156 -222 -197 -71 -25 -184 -50 -225 -50 l-30 0
34 30 c19 16 45 54 58 82 20 45 24 69 24 158 0 92 -3 112 -26 160 -14 30 -41
69 -59 87 l-32 31 43 -5 c24 -3 81 -13 126 -24z"/>
<path d="M300 1870 l0 -293 98 6 c207 13 393 101 443 211 l19 41 0 -127 0
-128 65 0 c201 0 435 105 481 217 66 156 -100 305 -385 348 -53 8 -111 15
-128 15 l-33 0 0 -127 c-1 -116 -2 -125 -14 -98 -50 111 -241 201 -468 221
l-78 7 0 -293z m262 239 c193 -54 307 -170 277 -282 -29 -110 -196 -200 -429
-232 l-45 -6 37 38 c63 65 83 122 83 238 0 93 -2 105 -33 167 -18 37 -45 77
-60 89 l-27 22 62 -7 c34 -4 94 -16 135 -27z m558 0 c148 -41 257 -119 282
-200 42 -141 -147 -280 -425 -313 l-48 -6 35 34 c62 58 81 114 81 241 0 100
-2 115 -28 167 -15 31 -42 69 -60 84 l-32 27 62 -7 c34 -4 94 -16 133 -27z"/>
<path d="M300 1210 l0 -293 78 7 c113 10 232 41 309 80 71 36 145 103 162 146
7 19 10 -8 10 -102 l1 -128 33 0 c17 0 75 7 128 15 288 43 456 197 383 351
-54 114 -278 214 -479 214 l-65 0 0 -127 0 -128 -19 41 c-50 110 -236 198
-443 211 l-98 6 0 -293z m228 254 c40 -9 108 -33 151 -55 171 -85 212 -203
110 -314 -68 -74 -209 -133 -361 -151 l-57 -6 39 41 c109 114 105 358 -8 474
l-37 38 45 -6 c25 -3 78 -13 118 -21z m575 -5 c209 -50 333 -171 298 -290 -31
-105 -210 -202 -414 -225 l-61 -7 36 31 c19 18 46 56 59 84 20 45 24 69 24
158 0 94 -3 111 -27 163 -15 32 -42 72 -59 88 l-31 29 49 -6 c26 -3 83 -14
126 -25z"/>
<path d="M300 590 l0 -293 93 6 c208 13 392 100 446 210 l21 42 0 -129 0 -129
93 6 c163 11 310 62 393 139 182 168 15 378 -340 427 -42 6 -93 11 -112 11
l-34 0 0 -127 c-1 -118 -2 -125 -15 -96 -47 110 -238 201 -459 219 l-86 7 0
-293z m247 244 c84 -21 192 -76 234 -117 168 -165 -6 -351 -375 -401 l-39 -5
36 37 c61 63 81 121 82 237 0 90 -3 107 -29 163 -16 35 -43 75 -60 89 l-31 26
62 -7 c34 -4 88 -14 120 -22z m510 11 c200 -42 328 -128 349 -233 9 -46 -19
-114 -66 -156 -70 -63 -197 -116 -315 -131 -27 -3 -60 -8 -73 -11 -21 -4 -20
-2 11 29 18 19 44 56 58 83 21 43 24 63 24 159 0 100 -2 115 -28 167 -15 31
-42 69 -58 83 l-31 25 31 0 c16 0 60 -7 98 -15z"/>
</g>
</svg>
