<?xml version="1.0" standalone="no"?>
<!DOCTYPE svg PUBLIC "-//W3C//DTD SVG 20010904//EN"
 "http://www.w3.org/TR/2001/REC-SVG-20010904/DTD/svg10.dtd">
<svg version="1.0" xmlns="http://www.w3.org/2000/svg"
 width="184.000000pt" height="295.000000pt" viewBox="0 0 184.000000 295.000000"
 preserveAspectRatio="xMidYMid meet">
<metadata>
Created by potrace 1.16, written by Peter Selinger 2001-2019
</metadata>
<g transform="translate(0.000000,295.000000) scale(0.100000,-0.100000)"
fill="#000000" stroke="none">
<path d="M300 2621 c0 -94 82 -200 184 -237 l29 -10 -56 -28 c-90 -44 -157
-141 -157 -228 l0 -28 290 0 c329 0 303 -8 275 87 -19 64 -82 136 -148 169
l-50 26 40 18 c86 38 152 124 168 218 l7 42 -291 0 -291 0 0 -29z m99 -43
c110 -39 317 -33 418 12 52 23 54 15 17 -58 -112 -224 -445 -192 -515 51 -7
25 -6 28 9 21 9 -4 41 -16 71 -26z m301 -239 c60 -27 107 -74 136 -134 34 -71
32 -79 -14 -56 -107 55 -392 53 -478 -4 -32 -21 -34 -19 -24 16 24 83 94 158
175 187 52 18 155 14 205 -9z"/>
<path d="M965 2608 c16 -94 82 -180 168 -218 l40 -18 -50 -26 c-66 -33 -129
-105 -148 -169 -28 -95 -54 -87 275 -87 l290 0 0 29 c0 84 -69 184 -157 227
l-56 28 29 10 c102 37 184 143 184 237 l0 29 -291 0 -291 0 7 -42z m165 -47
c126 -21 276 -8 353 29 22 11 42 19 43 17 1 -1 -4 -19 -11 -40 -79 -231 -400
-253 -509 -35 -37 73 -35 81 17 58 23 -10 71 -24 107 -29z m211 -213 c84 -28
154 -102 179 -187 10 -34 4 -38 -24 -16 -69 52 -338 59 -453 13 -39 -16 -63
-21 -63 -14 0 26 50 113 81 143 70 66 190 92 280 61z"/>
<path d="M303 2010 c11 -89 71 -169 156 -210 l50 -23 -47 -22 c-85 -41 -161
-145 -162 -222 l0 -33 290 0 c332 0 308 -9 269 97 -27 72 -99 146 -159 164
l-42 13 48 22 c87 39 155 127 170 221 l6 41 -292 1 -293 1 6 -50z m142 -39
c125 -23 300 -10 378 28 l39 19 -7 -26 c-13 -53 -38 -93 -86 -136 -146 -132
-388 -67 -444 119 l-14 45 37 -19 c21 -11 64 -24 97 -30z m275 -237 c60 -33
103 -81 127 -142 17 -45 13 -63 -11 -43 -21 18 -105 38 -189 46 -93 9 -229
-10 -289 -39 -27 -13 -48 -22 -48 -20 0 2 9 28 21 58 24 65 96 136 162 160 65
24 162 16 227 -20z"/>
<path d="M964 2017 c15 -94 83 -182 170 -221 l48 -22 -41 -12 c-59 -18 -133
-94 -159 -165 -40 -106 -64 -97 268 -97 l290 0 0 33 c-1 77 -77 181 -162 222
l-47 22 50 23 c85 41 145 121 156 210 l6 50 -293 -1 -292 -1 6 -41z m126 -41
c125 -30 318 -17 402 25 l37 19 -14 -45 c-33 -113 -137 -187 -261 -187 -109
-1 -204 59 -250 157 -31 65 -31 80 -1 61 12 -8 51 -22 87 -30z m253 -222 c69
-23 141 -93 166 -160 12 -30 21 -57 21 -59 0 -2 -16 5 -35 16 -53 32 -184 51
-288 44 -89 -7 -181 -28 -205 -47 -19 -16 -23 -6 -12 34 38 138 209 221 353
172z"/>
<path d="M300 1418 c1 -78 77 -182 162 -223 l47 -22 -50 -23 c-86 -41 -158
-141 -159 -222 l0 -36 291 -1 292 -1 -7 42 c-16 98 -80 182 -170 223 -49 21
-49 22 -22 29 90 22 174 121 191 224 l7 42 -291 0 -291 0 0 -32z m190 -58
c122 -17 303 5 348 42 40 34 11 -64 -37 -122 -130 -158 -399 -114 -471 76 -11
30 -20 56 -20 58 0 2 21 -7 48 -20 26 -13 85 -28 132 -34z m210 -222 c60 -25
107 -72 136 -133 33 -69 31 -76 -13 -54 -108 53 -368 52 -475 -2 l-37 -19 14
47 c46 152 221 227 375 161z"/>
<path d="M964 1409 c16 -101 102 -203 191 -225 27 -7 26 -7 -22 -30 -92 -44
-153 -124 -169 -222 l-7 -43 292 2 291 1 0 37 c0 80 -72 178 -166 223 l-43 22
42 18 c85 38 167 148 167 226 l0 32 -291 0 -292 0 7 -41z m546 -52 c-72 -191
-341 -236 -471 -77 -48 58 -77 155 -37 122 24 -19 120 -41 206 -47 101 -7 235
13 285 43 17 10 33 18 35 17 1 -1 -7 -27 -18 -58z m-144 -217 c77 -33 129 -94
154 -181 l9 -29 -37 19 c-112 56 -401 54 -489 -5 -29 -19 -30 -5 -2 56 63 139
223 201 365 140z"/>
<path d="M300 831 c0 -84 69 -184 157 -227 l56 -28 -29 -10 c-100 -36 -184
-143 -184 -233 l0 -23 288 2 287 3 -3 33 c-6 79 -90 186 -169 214 -18 7 -33
14 -33 18 0 3 20 13 45 23 61 25 130 104 150 170 28 95 54 87 -275 87 l-290 0
0 -29z m43 -26 c87 -57 370 -59 479 -4 46 23 48 15 14 -56 -46 -98 -135 -154
-242 -155 -134 0 -238 75 -274 199 -10 35 -8 37 23 16z m339 -251 c63 -21 126
-78 154 -138 34 -72 32 -78 -19 -56 -127 56 -342 50 -489 -14 -15 -7 -16 -4
-9 21 45 155 209 240 363 187z"/>
<path d="M960 842 c0 -84 75 -194 163 -238 l50 -26 -40 -18 c-84 -38 -159
-133 -165 -212 l-3 -33 288 -3 287 -2 0 23 c0 90 -84 197 -184 233 l-29 10 56
28 c88 43 157 143 157 227 l0 29 -290 0 c-274 0 -290 -1 -290 -18z m142 -67
c120 -28 330 -12 395 30 31 21 33 19 23 -16 -71 -246 -414 -272 -519 -39 -29
64 -28 74 9 55 16 -8 57 -22 92 -30z m241 -219 c83 -30 144 -92 172 -173 14
-41 12 -51 -7 -36 -77 60 -361 68 -485 13 -51 -22 -53 -16 -19 56 27 58 91
117 150 138 52 18 140 19 189 2z"/>
</g>
</svg>
