<?xml version="1.0" standalone="no"?>
<!DOCTYPE svg PUBLIC "-//W3C//DTD SVG 20010904//EN"
 "http://www.w3.org/TR/2001/REC-SVG-20010904/DTD/svg10.dtd">
<svg version="1.0" xmlns="http://www.w3.org/2000/svg"
 width="188.000000pt" height="397.000000pt" viewBox="0 0 188.000000 397.000000"
 preserveAspectRatio="xMidYMid meet">
<metadata>
Created by potrace 1.16, written by Peter Selinger 2001-2019
</metadata>
<g transform="translate(0.000000,397.000000) scale(0.100000,-0.100000)"
fill="#000000" stroke="none">
<path d="M645 3658 c-11 -6 -30 -20 -42 -31 -17 -15 -31 -19 -63 -14 -37 5
-40 3 -40 -19 0 -20 5 -24 33 -24 32 0 33 -1 29 -36 -4 -34 -6 -36 -33 -30
-26 5 -29 3 -29 -19 0 -22 4 -25 37 -25 28 0 45 -8 70 -32 28 -27 42 -32 92
-36 58 -4 60 -3 104 37 28 26 54 41 70 41 14 0 29 5 32 10 3 6 -5 10 -19 10
-30 0 -33 4 -38 50 -3 31 0 35 22 38 14 2 29 8 35 13 8 8 -1 10 -62 13 -10 1
-24 9 -31 19 -32 42 -121 61 -167 35z m122 -54 c-3 -3 -12 -4 -19 -1 -8 3 -5
6 6 6 11 1 17 -2 13 -5z m-92 -14 c-3 -5 -13 -10 -21 -10 -8 0 -12 5 -9 10 3
6 13 10 21 10 8 0 12 -4 9 -10z m0 -110 c-3 -5 -13 -10 -21 -10 -8 0 -12 5 -9
10 3 6 13 10 21 10 8 0 12 -4 9 -10z"/>
<path d="M1090 3663 c-8 -3 -27 -17 -42 -31 -23 -21 -34 -24 -67 -19 -38 5
-41 3 -41 -19 0 -20 5 -24 30 -24 28 0 30 -3 30 -36 0 -35 -1 -36 -30 -30 -27
5 -30 3 -30 -19 0 -22 4 -25 36 -25 28 0 46 -9 75 -35 33 -29 47 -35 85 -35
51 0 88 16 123 54 15 16 35 26 52 26 15 0 31 5 34 10 4 6 -7 10 -24 10 -28 0
-31 3 -31 29 0 16 -3 36 -6 45 -5 12 1 16 24 16 17 0 34 5 37 10 6 9 -5 11
-62 14 -10 1 -24 9 -31 19 -29 38 -111 59 -162 40z m117 -59 c-3 -3 -12 -4
-19 -1 -8 3 -5 6 6 6 11 1 17 -2 13 -5z m-92 -14 c-3 -5 -13 -10 -21 -10 -8 0
-12 5 -9 10 3 6 13 10 21 10 8 0 12 -4 9 -10z m72 -16 c-3 -3 -12 -4 -19 -1
-8 3 -5 6 6 6 11 1 17 -2 13 -5z m20 -80 c-3 -3 -12 -4 -19 -1 -8 3 -5 6 6 6
11 1 17 -2 13 -5z m-92 -14 c-3 -5 -13 -10 -21 -10 -8 0 -12 5 -9 10 3 6 13
10 21 10 8 0 12 -4 9 -10z m72 -16 c-3 -3 -12 -4 -19 -1 -8 3 -5 6 6 6 11 1
17 -2 13 -5z"/>
<path d="M641 3348 c-47 -25 -61 -43 -39 -51 15 -5 -9 -2 -64 8 -36 7 -38 6
-38 -19 0 -22 4 -26 30 -26 28 0 30 -3 30 -35 0 -33 -1 -34 -30 -28 -27 5 -30
3 -30 -21 0 -24 4 -26 38 -26 27 0 45 -7 58 -21 61 -67 167 -64 222 6 13 17
30 25 50 25 42 0 49 17 12 25 -23 5 -30 12 -30 30 0 13 -3 30 -6 39 -5 12 1
16 24 16 17 0 33 4 36 9 8 13 -39 23 -88 18 -22 -2 -31 -2 -18 0 31 6 28 18
-10 41 -55 34 -97 36 -147 10z m42 -65 c-7 -2 -19 -2 -25 0 -7 3 -2 5 12 5 14
0 19 -2 13 -5z m-46 -9 c-3 -3 -12 -4 -19 -1 -8 3 -5 6 6 6 11 1 17 -2 13 -5z
m-24 -91 c-7 -2 -19 -2 -25 0 -7 3 -2 5 12 5 14 0 19 -2 13 -5z m210 0 c-7 -2
-21 -2 -30 0 -10 3 -4 5 12 5 17 0 24 -2 18 -5z m-140 -10 c-7 -2 -21 -2 -30
0 -10 3 -4 5 12 5 17 0 24 -2 18 -5z"/>
<path d="M1097 3356 c-58 -21 -84 -49 -54 -59 14 -5 -10 -2 -65 8 -36 7 -38 6
-38 -19 0 -22 4 -26 30 -26 28 0 30 -3 30 -35 0 -33 -1 -34 -30 -28 -27 5 -30
3 -30 -22 0 -26 2 -27 39 -23 30 2 42 -1 50 -15 18 -28 73 -57 109 -57 46 0
97 24 117 54 11 17 26 26 44 26 14 0 32 4 40 9 10 7 5 11 -18 16 -24 5 -31 12
-31 30 0 13 -3 30 -6 39 -5 12 0 16 17 16 13 0 30 4 37 9 21 13 -31 23 -87 17
-29 -3 -35 -2 -17 2 l30 7 -33 28 c-18 15 -38 27 -44 27 -7 0 -21 2 -32 5 -11
3 -37 -2 -58 -9z m26 -73 c-7 -2 -21 -2 -30 0 -10 3 -4 5 12 5 17 0 24 -2 18
-5z m-70 -100 c-7 -2 -21 -2 -30 0 -10 3 -4 5 12 5 17 0 24 -2 18 -5z m205 0
c-10 -2 -26 -2 -35 0 -10 3 -2 5 17 5 19 0 27 -2 18 -5z m-135 -10 c-7 -2 -21
-2 -30 0 -10 3 -4 5 12 5 17 0 24 -2 18 -5z"/>
<path d="M615 3029 c-31 -28 -40 -31 -75 -25 -38 6 -40 5 -40 -19 0 -21 5 -25
30 -25 28 0 30 -3 30 -36 0 -34 -1 -35 -30 -29 -27 6 -30 4 -30 -19 0 -23 4
-26 38 -26 27 0 45 -7 58 -21 61 -67 158 -65 223 5 15 16 35 26 52 26 15 0 31
5 34 10 4 6 -5 10 -20 10 -27 0 -30 4 -39 58 -5 30 -4 32 24 32 46 0 44 18 -2
25 -25 5 -57 19 -76 36 -27 24 -41 29 -87 29 -47 0 -59 -4 -90 -31z m168 -36
c-7 -2 -19 -2 -25 0 -7 3 -2 5 12 5 14 0 19 -2 13 -5z m-103 -7 c0 -2 -9 -6
-20 -9 -11 -3 -18 -1 -14 4 5 9 34 13 34 5z m67 -22 c-3 -3 -12 -4 -19 -1 -8
3 -5 6 6 6 11 1 17 -2 13 -5z m36 -81 c-7 -2 -19 -2 -25 0 -7 3 -2 5 12 5 14
0 19 -2 13 -5z m-93 -7 c0 -2 -11 -6 -25 -8 -13 -3 -22 -1 -19 3 5 9 44 13 44
5z m57 -22 c-3 -3 -12 -4 -19 -1 -8 3 -5 6 6 6 11 1 17 -2 13 -5z"/>
<path d="M1055 3029 c-31 -28 -40 -31 -75 -25 -38 6 -40 5 -40 -19 0 -21 5
-25 30 -25 28 0 30 -3 30 -36 0 -34 -1 -35 -30 -29 -27 6 -30 4 -30 -19 0 -23
4 -26 37 -26 28 0 45 -8 69 -31 58 -56 156 -50 209 12 16 20 33 29 54 29 16 0
33 5 36 10 4 6 -5 10 -20 10 -27 0 -30 4 -39 58 -5 30 -4 32 24 32 45 0 44 17
-2 24 -24 4 -55 19 -75 36 -28 25 -42 30 -88 30 -47 0 -59 -4 -90 -31z m162
-35 c-3 -3 -12 -4 -19 -1 -8 3 -5 6 6 6 11 1 17 -2 13 -5z m-107 -14 c-20 -13
-33 -13 -25 0 3 6 14 10 23 10 15 0 15 -2 2 -10z m77 -16 c-3 -3 -12 -4 -19
-1 -8 3 -5 6 6 6 11 1 17 -2 13 -5z m36 -81 c-7 -2 -19 -2 -25 0 -7 3 -2 5 12
5 14 0 19 -2 13 -5z m-113 -13 c-20 -13 -33 -13 -25 0 3 6 14 10 23 10 15 0
15 -2 2 -10z m77 -16 c-3 -3 -12 -4 -19 -1 -8 3 -5 6 6 6 11 1 17 -2 13 -5z"/>
<path d="M645 2748 c-11 -6 -30 -20 -42 -31 -17 -15 -31 -19 -63 -14 -39 5
-40 4 -40 -23 0 -27 2 -28 33 -23 33 5 33 5 29 -32 -4 -35 -6 -37 -33 -31 -26
5 -29 3 -29 -22 0 -26 2 -28 35 -24 29 4 42 -2 75 -32 36 -32 46 -36 94 -36
49 0 59 4 101 40 31 27 56 40 76 40 16 0 29 5 29 10 0 6 -13 10 -30 10 -28 0
-30 3 -30 35 0 19 -1 38 -2 43 -2 4 12 8 30 10 40 4 42 21 2 24 -16 0 -36 1
-42 2 -7 1 -19 9 -26 19 -32 42 -121 61 -167 35z m30 -68 c-3 -5 -13 -10 -21
-10 -8 0 -12 5 -9 10 3 6 13 10 21 10 8 0 12 -4 9 -10z m98 -17 c-7 -2 -19 -2
-25 0 -7 3 -2 5 12 5 14 0 19 -2 13 -5z m-101 -95 c-9 -9 -15 -9 -24 0 -9 9
-7 12 12 12 19 0 21 -3 12 -12z m95 -14 c-3 -3 -12 -4 -19 -1 -8 3 -5 6 6 6
11 1 17 -2 13 -5z"/>
<path d="M1090 2753 c-8 -3 -27 -17 -42 -31 -23 -21 -34 -24 -67 -19 -39 5
-41 4 -41 -22 0 -25 3 -27 30 -23 29 4 30 3 30 -33 0 -36 -1 -37 -30 -31 -28
5 -30 3 -30 -22 0 -26 2 -27 39 -24 29 3 42 -1 52 -15 27 -37 62 -53 116 -53
46 0 57 4 98 40 26 23 57 40 70 40 13 0 27 5 30 10 4 6 -7 10 -24 10 -29 0
-31 3 -31 35 0 19 0 38 0 43 -1 4 10 9 22 10 38 6 45 22 10 24 -18 0 -38 1
-44 2 -7 1 -19 9 -26 19 -29 38 -111 59 -162 40z m25 -73 c-3 -5 -13 -10 -21
-10 -8 0 -14 5 -14 10 0 6 9 10 21 10 11 0 17 -4 14 -10z m92 -16 c-3 -3 -12
-4 -19 -1 -8 3 -5 6 6 6 11 1 17 -2 13 -5z m-92 -94 c-3 -5 -13 -10 -21 -10
-8 0 -14 5 -14 10 0 6 9 10 21 10 11 0 17 -4 14 -10z m92 -16 c-3 -3 -12 -4
-19 -1 -8 3 -5 6 6 6 11 1 17 -2 13 -5z"/>
<path d="M650 2449 c-14 -6 -35 -19 -47 -31 -16 -15 -31 -19 -62 -16 -39 3
-41 2 -41 -25 0 -26 2 -28 33 -22 l33 7 -4 -37 c-4 -34 -7 -37 -33 -33 -26 4
-29 2 -29 -24 0 -31 0 -31 52 -19 21 5 36 6 33 2 -9 -16 27 -50 68 -66 55 -21
112 -8 155 35 16 15 45 32 65 35 44 9 49 25 8 25 -26 0 -29 3 -33 40 -3 38 -2
40 29 46 44 8 42 24 -2 24 -19 0 -37 -1 -40 -2 -2 -2 -12 8 -21 21 -31 43
-108 62 -164 40z m21 -77 c-7 -2 -18 1 -23 6 -8 8 -4 9 13 5 13 -4 18 -8 10
-11z m122 -9 c-7 -2 -19 -2 -25 0 -7 3 -2 5 12 5 14 0 19 -2 13 -5z m-122
-101 c-7 -2 -18 1 -23 6 -8 8 -4 9 13 5 13 -4 18 -8 10 -11z m122 -9 c-7 -2
-19 -2 -25 0 -7 3 -2 5 12 5 14 0 19 -2 13 -5z"/>
<path d="M445 1178 c-11 -6 -30 -20 -42 -31 -17 -15 -31 -19 -63 -14 -37 5
-40 3 -40 -19 0 -20 5 -24 33 -24 32 0 33 -1 29 -36 -4 -34 -6 -36 -33 -30
-26 5 -29 3 -29 -19 0 -22 4 -25 37 -25 28 0 45 -8 70 -32 28 -27 42 -32 91
-36 56 -4 60 -3 106 37 32 28 57 41 77 41 16 0 29 5 29 10 0 6 -13 10 -30 10
-28 0 -30 3 -30 35 0 19 -1 38 -2 43 -2 4 12 8 30 10 40 4 42 21 2 24 -16 0
-36 1 -42 2 -7 1 -19 9 -26 19 -32 42 -121 61 -167 35z m30 -68 c-3 -5 -13
-10 -21 -10 -8 0 -12 5 -9 10 3 6 13 10 21 10 8 0 12 -4 9 -10z m0 -110 c-3
-5 -13 -10 -21 -10 -8 0 -12 5 -9 10 3 6 13 10 21 10 8 0 12 -4 9 -10z m92
-16 c-3 -3 -12 -4 -19 -1 -8 3 -5 6 6 6 11 1 17 -2 13 -5z"/>
<path d="M885 1178 c-11 -6 -30 -20 -42 -31 -17 -15 -31 -19 -63 -14 -37 5
-40 3 -40 -19 0 -20 5 -24 33 -24 32 0 33 -1 29 -36 -4 -34 -6 -36 -33 -30
-26 5 -29 3 -29 -22 0 -26 2 -28 35 -24 29 4 42 -2 75 -32 36 -32 46 -36 94
-36 49 0 59 4 101 40 31 27 56 40 76 40 16 0 29 5 29 10 0 6 -13 10 -30 10
-28 0 -30 3 -30 35 0 19 -1 38 -2 43 -2 4 12 8 30 10 40 4 42 21 2 24 -16 0
-36 1 -42 2 -7 1 -19 9 -26 19 -32 42 -121 61 -167 35z m30 -68 c-3 -5 -13
-10 -21 -10 -8 0 -14 5 -14 10 0 6 9 10 21 10 11 0 17 -4 14 -10z m0 -110 c-3
-5 -13 -10 -21 -10 -8 0 -12 5 -9 10 3 6 13 10 21 10 8 0 12 -4 9 -10z"/>
<path d="M1315 1178 c-11 -6 -30 -20 -42 -31 -17 -15 -31 -19 -63 -14 -40 5
-41 4 -38 -21 3 -24 7 -27 34 -24 30 3 31 2 30 -33 -1 -36 -2 -37 -34 -31 -31
5 -33 3 -30 -22 3 -24 6 -27 38 -24 27 2 41 -2 55 -18 64 -71 160 -67 233 8
13 13 34 22 52 22 17 0 30 5 30 10 0 6 -13 10 -30 10 -29 0 -30 2 -30 45 0 43
1 45 30 45 17 0 30 5 30 10 0 9 -25 14 -72 13 -10 0 -18 6 -18 13 0 39 -126
70 -175 42z m82 -80 c-3 -7 -5 -2 -5 12 0 14 2 19 5 13 2 -7 2 -19 0 -25z
m-47 12 c-19 -13 -30 -13 -30 0 0 6 10 10 23 10 18 0 19 -2 7 -10z m87 -16
c-3 -3 -12 -4 -19 -1 -8 3 -5 6 6 6 11 1 17 -2 13 -5z m-14 -107 c18 -4 17 -5
-5 -6 -23 -1 -28 3 -27 22 1 15 3 17 6 5 2 -9 14 -19 26 -21z m14 27 c-3 -3
-12 -4 -19 -1 -8 3 -5 6 6 6 11 1 17 -2 13 -5z m-87 -14 c-19 -13 -30 -13 -30
0 0 6 10 10 23 10 18 0 19 -2 7 -10z"/>
<path d="M466 880 c-16 -5 -39 -19 -53 -32 -22 -21 -23 -23 -6 -30 18 -8 -12
-5 -77 8 -27 5 -30 3 -30 -20 0 -23 4 -26 33 -26 32 0 33 -1 29 -35 -4 -32 -6
-34 -33 -28 -26 5 -29 3 -29 -21 0 -24 4 -26 38 -26 27 0 45 -7 58 -21 61 -67
167 -64 222 6 13 17 30 25 50 25 41 0 50 17 13 25 -25 5 -30 11 -33 46 -3 37
-2 39 24 39 15 0 29 4 32 9 8 13 -33 21 -89 17 -27 -2 -38 -2 -22 1 36 6 34
17 -5 41 -42 25 -85 33 -122 22z m17 -77 c-7 -2 -19 -2 -25 0 -7 3 -2 5 12 5
14 0 19 -2 13 -5z m-70 -100 c-7 -2 -19 -2 -25 0 -7 3 -2 5 12 5 14 0 19 -2
13 -5z m205 0 c-10 -2 -28 -2 -40 0 -13 2 -5 4 17 4 22 1 32 -1 23 -4z m-135
-10 c-7 -2 -19 -2 -25 0 -7 3 -2 5 12 5 14 0 19 -2 13 -5z"/>
<path d="M909 881 c-40 -13 -80 -43 -75 -56 3 -10 -5 -10 -32 -4 -56 13 -62
11 -62 -16 0 -21 5 -25 30 -25 28 0 30 -3 30 -35 0 -33 -1 -34 -30 -28 -27 5
-30 3 -30 -21 0 -24 4 -26 38 -26 27 0 45 -7 58 -21 61 -67 167 -64 222 6 13
17 30 25 50 25 42 0 49 17 12 25 -23 5 -30 12 -30 30 0 13 -3 30 -6 39 -5 12
1 16 24 16 17 0 33 4 36 9 9 14 -33 21 -94 16 -38 -3 -44 -2 -21 3 l35 7 -33
28 c-18 15 -38 27 -44 27 -7 0 -21 2 -32 5 -11 2 -32 0 -46 -4z m14 -78 c-7
-2 -19 -2 -25 0 -7 3 -2 5 12 5 14 0 19 -2 13 -5z m-80 -100 c-7 -2 -19 -2
-25 0 -7 3 -2 5 12 5 14 0 19 -2 13 -5z m215 0 c-10 -2 -28 -2 -40 0 -13 2 -5
4 17 4 22 1 32 -1 23 -4z m-135 -10 c-7 -2 -19 -2 -25 0 -7 3 -2 5 12 5 14 0
19 -2 13 -5z"/>
<path d="M1336 880 c-16 -5 -41 -21 -57 -36 -24 -23 -32 -25 -68 -19 -39 6
-41 6 -41 -19 0 -23 4 -26 33 -26 31 0 33 -2 33 -35 0 -34 -1 -35 -33 -29 -30
6 -33 4 -33 -20 0 -24 3 -26 43 -26 32 0 45 -5 55 -21 16 -25 70 -49 112 -49
39 0 82 22 108 55 13 17 30 25 50 25 42 0 49 17 12 25 -27 6 -30 10 -30 46 0
35 3 39 24 39 14 0 27 4 30 9 8 13 -33 21 -89 17 -27 -2 -37 -1 -22 1 34 5 31
22 -9 44 -39 23 -83 29 -118 19z m66 -75 c3 -14 1 -25 -3 -25 -5 0 -9 11 -9
25 0 14 2 25 4 25 2 0 6 -11 8 -25z m-49 -2 c-7 -2 -19 -2 -25 0 -7 3 -2 5 12
5 14 0 19 -2 13 -5z m49 -108 c3 -14 1 -25 -3 -25 -5 0 -9 11 -9 25 0 14 2 25
4 25 2 0 6 -11 8 -25z m-119 8 c-7 -2 -19 -2 -25 0 -7 3 -2 5 12 5 14 0 19 -2
13 -5z m205 0 c-10 -2 -26 -2 -35 0 -10 3 -2 5 17 5 19 0 27 -2 18 -5z m-135
-10 c-7 -2 -19 -2 -25 0 -7 3 -2 5 12 5 14 0 19 -2 13 -5z"/>
<path d="M445 569 c-11 -6 -30 -21 -42 -32 -17 -15 -31 -19 -63 -14 -37 5 -40
3 -40 -19 0 -20 5 -24 33 -24 32 0 33 -1 29 -36 -4 -33 -6 -35 -33 -29 -26 6
-29 4 -29 -19 0 -23 4 -26 38 -26 27 0 45 -7 58 -21 33 -37 73 -52 126 -47 40
4 57 12 87 42 23 23 46 36 63 36 36 0 45 18 11 22 -23 3 -29 9 -34 40 -7 45
-5 48 33 48 15 0 28 5 28 10 0 9 -12 12 -67 14 -10 1 -29 14 -44 30 -21 24
-35 30 -80 33 -30 2 -63 -2 -74 -8z m132 -55 c-3 -3 -12 -4 -19 -1 -8 3 -5 6
6 6 11 1 17 -2 13 -5z m-102 -14 c-28 -12 -37 -12 -30 0 3 6 16 10 28 9 21 0
21 -1 2 -9z m72 -16 c-3 -3 -12 -4 -19 -1 -8 3 -5 6 6 6 11 1 17 -2 13 -5z
m-77 -94 c-20 -13 -33 -13 -25 0 3 6 14 10 23 10 15 0 15 -2 2 -10z m77 -16
c-3 -3 -12 -4 -19 -1 -8 3 -5 6 6 6 11 1 17 -2 13 -5z"/>
<path d="M855 549 c-31 -27 -41 -31 -75 -26 -37 5 -40 3 -40 -19 0 -20 5 -24
33 -24 32 0 33 -1 29 -36 -4 -34 -6 -36 -33 -30 -26 5 -29 3 -29 -19 0 -22 4
-25 37 -25 28 0 45 -8 69 -31 59 -57 152 -51 213 15 15 16 35 26 52 26 15 0
31 5 34 10 4 6 -5 10 -20 10 -27 0 -30 4 -39 58 -5 30 -4 32 24 32 16 0 32 5
35 10 6 9 -5 11 -62 14 -10 1 -24 9 -31 19 -21 28 -68 47 -116 47 -36 0 -52
-6 -81 -31z m162 -35 c-3 -3 -12 -4 -19 -1 -8 3 -5 6 6 6 11 1 17 -2 13 -5z
m-107 -14 c-20 -13 -33 -13 -25 0 3 6 14 10 23 10 15 0 15 -2 2 -10z m77 -16
c-3 -3 -12 -4 -19 -1 -8 3 -5 6 6 6 11 1 17 -2 13 -5z m26 -81 c-7 -2 -19 -2
-25 0 -7 3 -2 5 12 5 14 0 19 -2 13 -5z m-98 -13 c-28 -12 -37 -12 -30 0 3 6
16 10 28 9 21 0 21 -1 2 -9z m72 -16 c-3 -3 -12 -4 -19 -1 -8 3 -5 6 6 6 11 1
17 -2 13 -5z"/>
<path d="M1315 568 c-11 -6 -30 -20 -42 -31 -18 -16 -30 -18 -63 -13 -38 6
-40 5 -40 -19 0 -22 4 -25 33 -25 31 0 33 -2 33 -36 0 -35 -1 -35 -33 -29 -30
5 -33 4 -33 -20 0 -22 4 -25 38 -25 27 0 45 -7 58 -21 63 -69 178 -65 230 10
11 14 26 21 50 21 40 0 46 17 7 22 -25 3 -28 7 -31 46 -3 41 -2 42 27 42 17 0
31 5 31 10 0 9 -25 14 -72 13 -10 0 -18 6 -18 13 0 39 -126 70 -175 42z m103
-81 c12 -3 10 -5 -5 -6 -18 -1 -23 4 -22 22 1 15 3 17 6 5 2 -9 12 -19 21 -21z
m-68 13 c-20 -13 -43 -13 -35 0 3 6 16 10 28 10 18 0 19 -2 7 -10z m64 -122
c7 -5 4 -8 -6 -8 -12 0 -18 7 -17 23 0 15 2 17 6 7 3 -8 11 -18 17 -22z m33
26 c-3 -3 -12 -4 -19 -1 -8 3 -5 6 6 6 11 1 17 -2 13 -5z m-97 -14 c-20 -13
-43 -13 -35 0 3 6 16 10 28 10 18 0 19 -2 7 -10z"/>
</g>
</svg>
