<?xml version="1.0" standalone="no"?>
<!DOCTYPE svg PUBLIC "-//W3C//DTD SVG 20010904//EN"
 "http://www.w3.org/TR/2001/REC-SVG-20010904/DTD/svg10.dtd">
<svg version="1.0" xmlns="http://www.w3.org/2000/svg"
 width="119.000000pt" height="209.000000pt" viewBox="0 0 119.000000 209.000000"
 preserveAspectRatio="xMidYMid meet">
<metadata>
Created by potrace 1.16, written by Peter Selinger 2001-2019
</metadata>
<g transform="translate(0.000000,209.000000) scale(0.100000,-0.100000)"
fill="#000000" stroke="none">
<path d="M366 1771 c-65 -43 -86 -132 -46 -198 53 -88 198 -83 246 9 34 66 12
151 -49 188 -42 26 -113 26 -151 1z"/>
<path d="M673 1770 c-87 -52 -83 -198 6 -245 99 -50 211 16 211 125 0 110
-122 178 -217 120z"/>
<path d="M375 1461 c-49 -30 -68 -58 -73 -109 -8 -90 51 -156 140 -156 112 0
178 121 119 218 -39 62 -126 84 -186 47z"/>
<path d="M700 1472 c-92 -44 -121 -147 -62 -221 93 -116 266 -43 249 105 -7
67 -57 115 -124 120 -26 2 -55 0 -63 -4z"/>
<path d="M362 1159 c-41 -27 -62 -66 -62 -120 0 -81 59 -139 142 -139 108 0
174 112 124 208 -36 69 -136 94 -204 51z"/>
<path d="M673 1160 c-119 -72 -65 -260 75 -260 85 0 142 56 142 140 0 110
-122 178 -217 120z"/>
<path d="M390 872 c-57 -25 -90 -75 -90 -135 0 -81 60 -141 142 -141 144 0
195 198 68 265 -34 19 -91 24 -120 11z"/>
<path d="M682 864 c-87 -44 -102 -163 -29 -230 46 -42 95 -50 152 -25 57 25
85 69 85 134 0 42 -5 53 -38 89 -33 35 -45 41 -88 45 -33 2 -60 -2 -82 -13z"/>
<path d="M363 560 c-59 -35 -82 -125 -48 -190 34 -65 136 -91 202 -50 86 52
86 188 0 240 -42 26 -112 26 -154 0z"/>
</g>
</svg>
