<?xml version="1.0" standalone="no"?>
<!DOCTYPE svg PUBLIC "-//W3C//DTD SVG 20010904//EN"
 "http://www.w3.org/TR/2001/REC-SVG-20010904/DTD/svg10.dtd">
<svg version="1.0" xmlns="http://www.w3.org/2000/svg"
 width="132.000000pt" height="249.000000pt" viewBox="0 0 132.000000 249.000000"
 preserveAspectRatio="xMidYMid meet">
<metadata>
Created by potrace 1.16, written by Peter Selinger 2001-2019
</metadata>
<g transform="translate(0.000000,249.000000) scale(0.100000,-0.100000)"
fill="#000000" stroke="none">
<path d="M360 2142 c0 -48 0 -49 -30 -44 -27 4 -30 1 -30 -22 0 -22 4 -26 30
-26 27 0 30 -3 30 -33 0 -32 -2 -33 -30 -29 -27 4 -30 1 -30 -22 0 -22 4 -26
30 -26 28 0 30 -3 30 -35 l0 -35 105 0 105 0 0 40 c0 33 3 40 19 40 28 0 52
11 45 21 -3 5 -18 9 -35 9 -27 0 -29 2 -29 40 0 35 3 40 23 40 12 0 28 4 35 9
11 7 10 10 -3 15 -9 3 -25 6 -36 6 -16 0 -19 7 -19 50 l0 50 -105 0 -105 0 0
-48z"/>
<path d="M740 2142 c0 -48 0 -49 -30 -44 -27 4 -30 1 -30 -22 0 -23 4 -26 33
-26 30 0 32 -2 31 -32 -1 -31 -3 -33 -32 -30 -29 3 -32 1 -32 -22 0 -23 4 -26
33 -26 30 0 32 -2 32 -32 l0 -33 103 -3 102 -3 0 40 c0 35 3 40 25 43 14 2 26
8 26 13 0 6 -12 11 -26 13 -22 3 -25 8 -25 42 0 34 3 39 25 42 14 2 26 8 26
13 0 6 -12 11 -26 13 -23 3 -25 7 -25 53 l0 49 -105 0 -105 0 0 -48z"/>
<path d="M360 1749 l0 -51 -30 7 c-27 6 -30 4 -30 -19 0 -22 4 -26 30 -26 28
0 30 -3 30 -36 0 -34 -1 -35 -30 -29 -27 6 -30 4 -30 -19 0 -22 4 -26 30 -26
28 0 30 -3 30 -35 l0 -35 105 0 105 0 0 40 c0 39 1 40 35 40 19 0 35 4 35 9 0
5 -16 12 -35 15 -33 7 -35 9 -35 46 0 39 1 40 35 40 19 0 35 4 35 9 0 5 -16
12 -35 15 -34 7 -35 8 -35 56 l0 50 -105 0 -105 0 0 -51z"/>
<path d="M745 1790 c-4 -6 -5 -27 -4 -48 3 -36 3 -37 -29 -34 -28 2 -32 -1
-32 -23 0 -22 4 -25 33 -25 30 0 32 -2 31 -32 -1 -31 -4 -33 -33 -30 -27 2
-31 -1 -31 -23 0 -22 4 -25 33 -25 31 0 34 -2 33 -32 l-1 -33 103 -3 102 -3 0
41 c0 38 2 40 30 40 17 0 30 4 30 9 0 5 -13 12 -30 16 -27 6 -30 10 -30 46 0
37 2 39 30 39 17 0 30 4 30 9 0 5 -13 12 -30 16 -28 6 -30 9 -30 56 l0 49 -99
0 c-58 0 -103 -4 -106 -10z"/>
<path d="M367 1403 c-4 -3 -7 -26 -7 -51 0 -44 -1 -44 -30 -40 -27 4 -30 2
-30 -23 0 -26 2 -28 30 -22 29 5 30 4 30 -32 0 -36 -1 -37 -30 -31 -28 5 -30
3 -30 -24 0 -27 2 -29 29 -24 28 6 30 5 33 -32 l3 -39 100 0 100 0 3 35 c4 38
15 50 50 50 12 0 22 5 22 10 0 6 -16 10 -35 10 -34 0 -35 1 -35 39 0 40 11 51
51 51 32 0 21 19 -13 22 -32 3 -33 4 -36 56 l-3 52 -98 0 c-54 0 -101 -3 -104
-7z"/>
<path d="M744 1396 c-3 -7 -4 -17 -3 -22 1 -5 1 -22 0 -38 -1 -26 -3 -28 -31
-22 -28 5 -30 3 -30 -24 0 -27 2 -29 30 -23 29 5 30 4 30 -32 0 -36 -1 -37
-30 -31 -28 5 -30 3 -30 -24 0 -27 2 -29 30 -23 28 5 30 3 31 -23 1 -16 1 -32
0 -36 -2 -14 47 -20 126 -16 l78 3 3 38 c3 33 7 39 33 44 37 7 38 21 2 25 -24
3 -28 8 -31 41 -3 35 -1 38 27 43 38 8 40 22 4 26 -26 3 -28 7 -31 56 l-3 52
-100 0 c-74 0 -101 -3 -105 -14z"/>
<path d="M360 955 c0 -43 -1 -45 -30 -45 -26 0 -30 -4 -30 -26 0 -23 3 -26 30
-22 28 4 30 3 30 -29 0 -30 -3 -33 -30 -33 -26 0 -30 -4 -30 -26 0 -23 3 -26
30 -22 27 4 29 2 32 -31 l3 -36 103 -3 102 -3 0 40 c0 36 2 39 35 45 19 4 35
11 35 16 0 6 -16 10 -35 10 -34 0 -35 1 -35 39 0 36 2 39 35 45 19 4 35 11 35
16 0 6 -16 10 -35 10 l-35 0 0 50 0 50 -105 0 -105 0 0 -45z"/>
<path d="M742 955 c3 -45 3 -45 -29 -45 -29 0 -33 -3 -33 -26 0 -23 3 -26 30
-22 22 3 30 0 31 -11 0 -9 2 -24 4 -33 3 -14 -4 -18 -31 -18 -30 0 -34 -3 -34
-26 0 -23 3 -26 30 -22 26 4 30 1 31 -19 1 -13 2 -29 3 -35 1 -9 31 -14 104
-16 l102 -3 0 39 c0 36 3 40 30 46 17 3 30 10 30 16 0 5 -13 10 -30 10 -28 0
-30 2 -30 39 0 35 3 39 30 45 17 3 30 10 30 16 0 5 -13 10 -30 10 -29 0 -30 1
-30 50 l0 50 -106 0 -106 0 4 -45z"/>
<path d="M360 569 l0 -51 -30 7 c-27 6 -30 4 -30 -19 0 -22 4 -26 30 -26 28 0
30 -3 30 -36 0 -34 -1 -35 -30 -29 -27 6 -30 4 -30 -19 0 -22 4 -26 29 -26 25
0 30 -4 33 -27 l3 -28 100 0 100 0 3 33 c3 29 6 32 38 32 44 0 44 16 -1 24
-33 7 -35 9 -35 46 0 39 1 40 35 40 19 0 35 4 35 9 0 5 -16 12 -35 15 -34 7
-35 8 -35 56 l0 50 -105 0 -105 0 0 -51z"/>
</g>
</svg>
