<?xml version="1.0" standalone="no"?>
<!DOCTYPE svg PUBLIC "-//W3C//DTD SVG 20010904//EN"
 "http://www.w3.org/TR/2001/REC-SVG-20010904/DTD/svg10.dtd">
<svg version="1.0" xmlns="http://www.w3.org/2000/svg"
 width="172.000000pt" height="363.000000pt" viewBox="0 0 172.000000 363.000000"
 preserveAspectRatio="xMidYMid meet">
<metadata>
Created by potrace 1.16, written by Peter Selinger 2001-2019
</metadata>
<g transform="translate(0.000000,363.000000) scale(0.100000,-0.100000)"
fill="#000000" stroke="none">
<path d="M300 3040 l0 -293 90 7 c210 16 396 102 449 208 l21 43 0 -129 0
-129 90 7 c96 7 234 42 303 77 244 123 215 344 -58 444 -93 34 -196 55 -272
55 l-63 0 0 -127 0 -128 -21 42 c-54 110 -236 196 -446 210 l-93 6 0 -293z
m275 239 c97 -29 160 -63 210 -114 145 -144 16 -319 -281 -380 -40 -8 -87 -15
-104 -15 l-32 0 31 25 c114 96 120 353 12 476 l-39 45 66 -8 c37 -4 98 -17
137 -29z m505 15 c100 -21 227 -82 273 -133 48 -53 64 -108 48 -162 -32 -107
-204 -202 -406 -225 l-60 -7 32 34 c59 63 78 120 78 239 0 121 -19 178 -82
242 l-36 37 39 -5 c21 -3 73 -12 114 -20z"/>
<path d="M300 2438 l0 -294 68 3 c94 5 237 38 309 72 71 34 137 90 163 140
l19 36 1 -121 c0 -66 2 -123 4 -125 9 -9 192 10 251 26 135 36 261 119 291
192 73 172 -133 329 -468 359 l-78 7 0 -129 -1 -129 -19 36 c-59 112 -237 195
-462 215 l-78 6 0 -294z m260 241 c144 -39 256 -121 279 -205 39 -140 -142
-273 -418 -308 l-54 -7 32 30 c17 16 44 56 59 88 24 51 27 70 27 158 0 88 -3
107 -27 158 -15 32 -42 72 -60 89 l-33 31 60 -7 c33 -4 94 -16 135 -27z m558
0 c139 -37 246 -109 279 -187 53 -128 -90 -262 -334 -311 -133 -28 -142 -27
-104 4 99 84 122 305 45 442 -13 23 -36 51 -51 64 l-28 21 60 -6 c33 -4 93
-16 133 -27z"/>
<path d="M300 1811 l0 -291 58 0 c31 0 99 9 150 19 162 34 288 108 331 193
l21 43 0 -129 0 -129 93 6 c207 14 393 101 448 208 38 76 16 164 -57 229 -84
73 -286 140 -426 140 l-58 0 0 -127 0 -128 -21 43 c-53 107 -241 194 -451 209
l-88 6 0 -292z m209 254 c333 -70 441 -282 218 -426 -68 -44 -188 -84 -290
-97 l-68 -9 35 36 c110 113 114 359 7 471 l-38 40 33 0 c18 0 64 -7 103 -15z
m628 -16 c309 -95 363 -310 109 -434 -71 -35 -190 -69 -276 -78 -43 -5 -44 -5
-25 11 130 108 142 375 22 501 l-32 34 67 -7 c37 -4 98 -16 135 -27z"/>
<path d="M300 1205 l0 -295 28 0 c53 0 218 29 272 48 119 42 203 101 240 171
l19 36 1 -129 0 -128 78 6 c227 21 410 105 468 218 23 44 15 126 -17 173 -65
98 -260 178 -454 187 l-70 3 -5 -130 c-3 -71 -7 -120 -8 -109 -3 35 -86 118
-149 151 -95 50 -192 75 -340 87 l-63 6 0 -295z m270 238 c106 -30 170 -65
220 -119 101 -110 55 -237 -117 -320 -67 -33 -224 -74 -281 -74 -23 0 -23 1 6
25 16 13 42 52 58 87 26 56 29 74 29 163 0 86 -4 108 -26 155 -14 30 -41 70
-59 88 l-33 34 59 -7 c32 -4 97 -18 144 -32z m530 10 c161 -38 291 -134 305
-225 13 -86 -44 -162 -169 -224 -65 -32 -225 -74 -284 -74 -23 0 -23 1 7 25
16 14 43 52 58 83 26 52 28 66 28 167 -1 123 -18 175 -81 242 l-33 35 52 -7
c29 -3 81 -13 117 -22z"/>
<path d="M300 590 l0 -290 98 0 c197 0 468 45 624 103 83 32 135 65 177 112
30 34 33 43 28 82 -9 79 -97 144 -263 196 -155 49 -415 87 -591 87 l-73 0 0
-290z m415 245 c183 -29 352 -83 425 -136 230 -166 -87 -343 -690 -384 l-95
-7 27 29 c98 103 106 366 14 487 l-32 41 125 -7 c70 -3 171 -14 226 -23z"/>
</g>
</svg>
