<?xml version="1.0" standalone="no"?>
<!DOCTYPE svg PUBLIC "-//W3C//DTD SVG 20010904//EN"
 "http://www.w3.org/TR/2001/REC-SVG-20010904/DTD/svg10.dtd">
<svg version="1.0" xmlns="http://www.w3.org/2000/svg"
 width="176.000000pt" height="352.000000pt" viewBox="0 0 176.000000 352.000000"
 preserveAspectRatio="xMidYMid meet">
<metadata>
Created by potrace 1.16, written by Peter Selinger 2001-2019
</metadata>
<g transform="translate(0.000000,352.000000) scale(0.100000,-0.100000)"
fill="#000000" stroke="none">
<path d="M465 3196 c-62 -28 -126 -97 -150 -159 -22 -58 -17 -165 10 -222 48
-98 145 -158 256 -157 108 0 193 49 246 139 40 68 45 181 11 254 -67 146 -234
211 -373 145z"/>
<path d="M1065 3196 c-135 -62 -198 -214 -149 -358 63 -187 319 -243 461 -101
53 53 76 106 81 186 5 85 -15 143 -72 205 -83 91 -214 119 -321 68z"/>
<path d="M465 2606 c-105 -50 -165 -143 -165 -257 0 -119 73 -225 183 -266 46
-17 146 -15 200 3 55 19 124 82 152 139 23 50 31 152 16 208 -44 157 -237 244
-386 173z"/>
<path d="M1085 2617 c-83 -32 -146 -96 -173 -176 -17 -48 -15 -139 4 -195 22
-63 97 -138 160 -160 55 -18 154 -20 201 -3 110 41 183 147 183 266 0 160
-122 282 -280 280 -36 0 -79 -6 -95 -12z"/>
<path d="M483 2027 c-110 -41 -183 -147 -183 -267 0 -120 73 -226 183 -267 18
-6 61 -11 97 -11 117 0 199 49 249 148 77 155 7 338 -152 397 -18 6 -61 11
-97 11 -36 0 -79 -5 -97 -11z"/>
<path d="M1083 2027 c-110 -41 -183 -147 -183 -267 0 -120 73 -226 183 -267
18 -6 61 -11 97 -11 117 0 199 49 249 148 77 155 7 338 -152 397 -18 6 -61 11
-97 11 -36 0 -79 -5 -97 -11z"/>
<path d="M483 1437 c-110 -41 -183 -147 -183 -266 0 -116 60 -208 168 -258 45
-21 65 -24 125 -21 112 6 196 59 242 153 28 56 28 194 0 250 -28 57 -97 120
-152 139 -54 18 -154 20 -200 3z"/>
<path d="M1063 1430 c-59 -26 -128 -100 -147 -157 -18 -54 -20 -154 -3 -200
41 -110 147 -183 266 -183 77 0 147 28 200 81 144 143 88 395 -102 466 -51 18
-165 15 -214 -7z"/>
<path d="M529 859 c-59 -9 -101 -31 -147 -77 -53 -53 -75 -105 -80 -185 -5
-85 15 -143 72 -205 139 -152 378 -112 464 77 34 73 29 186 -11 254 -61 104
-173 156 -298 136z"/>
</g>
</svg>
