<?xml version="1.0" standalone="no"?>
<!DOCTYPE svg PUBLIC "-//W3C//DTD SVG 20010904//EN"
 "http://www.w3.org/TR/2001/REC-SVG-20010904/DTD/svg10.dtd">
<svg version="1.0" xmlns="http://www.w3.org/2000/svg"
 width="114.000000pt" height="148.000000pt" viewBox="0 0 114.000000 148.000000"
 preserveAspectRatio="xMidYMid meet">
<metadata>
Created by potrace 1.16, written by Peter Selinger 2001-2019
</metadata>
<g transform="translate(0.000000,148.000000) scale(0.100000,-0.100000)"
fill="#000000" stroke="none">
<path d="M300 1031 c0 -81 3 -177 7 -212 11 -108 21 -33 22 174 1 160 -1 187
-14 187 -13 0 -15 -23 -15 -149z"/>
<path d="M423 979 c6 -185 9 -220 21 -208 2 2 6 95 8 207 3 193 2 202 -16 202
-18 0 -19 -8 -13 -201z"/>
<path d="M564 978 c6 -186 9 -219 20 -207 2 2 6 95 9 207 4 198 4 202 -16 202
-20 0 -20 -4 -13 -202z"/>
<path d="M680 1038 c0 -79 3 -174 7 -213 11 -115 21 -41 22 168 1 160 -1 187
-14 187 -13 0 -15 -22 -15 -142z"/>
<path d="M807 1003 c2 -98 7 -194 10 -213 7 -34 7 -33 14 20 4 30 7 126 8 213
1 145 0 157 -17 157 -17 0 -18 -12 -15 -177z"/>
<path d="M370 571 c0 -81 3 -177 7 -212 11 -111 22 -36 22 169 1 164 -1 192
-14 192 -13 0 -15 -23 -15 -149z"/>
<path d="M510 578 c0 -79 3 -174 7 -211 11 -124 23 -48 23 156 0 168 -2 197
-15 197 -13 0 -15 -22 -15 -142z"/>
<path d="M631 533 c1 -215 12 -286 23 -153 11 127 4 332 -11 338 -10 3 -13
-38 -12 -185z"/>
<path d="M755 710 c-9 -15 5 -399 15 -405 9 -6 23 253 18 344 -3 61 -17 87
-33 61z"/>
</g>
</svg>
