<?xml version="1.0" standalone="no"?>
<!DOCTYPE svg PUBLIC "-//W3C//DTD SVG 20010904//EN"
 "http://www.w3.org/TR/2001/REC-SVG-20010904/DTD/svg10.dtd">
<svg version="1.0" xmlns="http://www.w3.org/2000/svg"
 width="177.000000pt" height="130.000000pt" viewBox="0 0 177.000000 130.000000"
 preserveAspectRatio="xMidYMid meet">
<metadata>
Created by potrace 1.16, written by Peter Selinger 2001-2019
</metadata>
<g transform="translate(0.000000,130.000000) scale(0.100000,-0.100000)"
fill="#000000" stroke="none">
<path d="M1450 984 c0 -13 -8 -15 -47 -10 -27 3 -285 8 -575 12 l-528 6 0 -26
0 -27 225 3 c221 3 225 3 225 -17 0 -20 -4 -21 -225 -17 -209 4 -225 3 -225
-13 0 -16 16 -17 225 -13 l225 4 0 -42 0 -43 -220 6 c-202 6 -220 5 -220 -11
0 -15 19 -17 215 -16 118 1 219 -1 225 -5 5 -3 10 -21 10 -38 l0 -32 -225 3
c-208 3 -225 2 -225 -14 0 -16 16 -17 225 -11 135 3 225 2 225 -4 0 -5 5 -9
10 -9 6 0 10 36 10 88 0 48 3 110 6 139 l7 52 226 0 c124 1 272 4 329 8 l102
6 0 -318 0 -319 -36 35 c-55 53 -111 143 -123 198 -6 27 -8 72 -4 100 5 45 8
51 29 51 13 0 24 5 24 10 0 6 -12 10 -26 10 -24 0 -25 2 -18 45 5 37 4 45 -10
45 -15 0 -19 -10 -30 -70 -3 -14 -3 23 -2 83 2 83 0 107 -11 107 -9 0 -13 -14
-13 -40 l0 -40 -65 0 -65 0 0 40 c0 29 -4 40 -15 40 -11 0 -15 -11 -15 -40 0
-32 -3 -38 -16 -33 -10 4 -14 16 -12 36 2 18 -2 32 -9 34 -9 3 -13 -7 -13 -31
0 -20 -4 -36 -10 -36 -5 0 -10 16 -10 35 0 24 -5 35 -15 35 -10 0 -15 -11 -15
-35 0 -19 -4 -35 -10 -35 -5 0 -10 16 -10 36 0 24 -4 34 -12 31 -7 -2 -13 -18
-12 -35 0 -42 -14 -41 -18 1 -2 17 -7 32 -13 32 -5 0 -11 -15 -13 -32 -3 -32
-5 -33 -48 -33 -37 0 -44 -3 -44 -20 0 -17 7 -20 45 -20 44 0 45 -1 46 -32 0
-18 4 -42 8 -52 7 -18 8 -18 14 5 4 13 7 36 7 52 0 15 5 27 10 27 6 0 10 -22
10 -50 0 -27 5 -50 10 -50 6 0 10 23 10 50 0 28 5 50 10 50 6 0 10 -20 10 -44
0 -25 5 -48 10 -51 6 -4 10 6 10 22 0 38 10 73 21 73 5 0 9 -22 9 -50 0 -27 5
-50 10 -50 6 0 10 25 10 55 0 42 3 55 15 55 11 0 15 -11 16 -37 0 -21 4 -47 8
-58 7 -16 -2 -27 -47 -59 -52 -37 -62 -40 -166 -52 -61 -7 -130 -20 -153 -28
-26 -9 -45 -11 -48 -5 -4 5 -84 9 -186 9 -158 0 -179 -2 -179 -16 0 -14 19
-16 179 -13 l178 4 -55 -33 c-95 -57 -242 -183 -242 -207 0 -26 21 -17 79 37
86 79 169 137 246 174 77 37 222 70 261 60 20 -5 38 3 87 39 60 44 62 45 139
45 l78 0 0 -73 c0 -103 36 -173 133 -262 39 -36 75 -65 79 -65 4 0 8 158 8
350 0 227 -4 350 -10 350 -5 0 -10 -7 -10 -16z m-220 -199 l0 -56 -71 3 c-65
2 -70 3 -65 23 3 11 6 35 6 53 l0 32 65 0 65 0 0 -55z"/>
</g>
</svg>
