<?xml version="1.0" standalone="no"?>
<!DOCTYPE svg PUBLIC "-//W3C//DTD SVG 20010904//EN"
 "http://www.w3.org/TR/2001/REC-SVG-20010904/DTD/svg10.dtd">
<svg version="1.0" xmlns="http://www.w3.org/2000/svg"
 width="236.000000pt" height="252.000000pt" viewBox="0 0 236.000000 252.000000"
 preserveAspectRatio="xMidYMid meet">
<metadata>
Created by potrace 1.16, written by Peter Selinger 2001-2019
</metadata>
<g transform="translate(0.000000,252.000000) scale(0.100000,-0.100000)"
fill="#000000" stroke="none">
<path d="M1536 2058 c3 -90 9 -241 15 -336 5 -95 9 -186 9 -203 0 -18 4 -28
10 -24 6 4 10 81 10 199 l0 193 230 6 c335 9 334 35 -1 36 -92 1 -181 4 -198
7 l-31 7 0 138 0 139 -25 0 -24 0 5 -162z"/>
<path d="M1340 2142 l0 -69 -137 -41 c-189 -57 -193 -58 -193 -38 0 9 -7 16
-15 16 -8 0 -15 -9 -15 -19 0 -22 -4 -26 -42 -35 -26 -6 -28 -4 -28 25 0 24
-4 30 -17 27 -14 -3 -17 -12 -15 -37 2 -29 0 -32 -20 -29 -18 2 -24 11 -26 36
-5 49 -30 41 -34 -10 -2 -36 -7 -44 -25 -46 -21 -3 -23 1 -23 42 0 33 -4 46
-14 46 -11 0 -16 -14 -18 -47 -3 -44 -5 -48 -30 -51 -27 -3 -28 -2 -28 48 0
44 -3 51 -17 48 -15 -3 -18 -13 -15 -56 l3 -52 -166 0 -165 0 0 -30 0 -30 164
0 164 0 7 -81 c9 -98 23 -92 27 11 3 72 4 75 28 75 32 0 38 -15 39 -92 1 -94
20 -87 23 9 3 82 3 83 31 86 27 3 27 2 28 -55 1 -32 4 -71 8 -88 6 -27 8 -24
14 25 4 30 7 70 7 88 0 25 4 32 19 32 17 0 20 -10 26 -85 4 -47 11 -82 16 -79
5 3 9 41 9 85 l0 80 38 -3 37 -3 5 -77 c7 -106 20 -110 20 -6 l0 85 98 6 c53
4 129 7 168 7 l71 0 7 -127 c3 -71 9 -157 13 -193 l7 -65 7 45 c4 25 8 110 8
189 1 125 3 146 19 157 16 13 16 13 0 14 -16 0 -18 17 -20 163 -3 159 -3 162
-25 165 -22 3 -23 0 -23 -66z m9 -221 l1 -44 -77 7 c-42 3 -118 6 -170 6 -91
0 -93 1 -93 23 0 21 16 29 163 83 l162 59 7 -45 c3 -25 7 -65 7 -89z m-369
-11 c0 -16 -7 -20 -35 -20 -42 0 -46 14 -7 28 39 15 42 14 42 -8z"/>
<path d="M1340 962 l0 -69 -157 -47 c-87 -25 -161 -46 -165 -46 -5 0 -8 7 -8
15 0 8 -7 15 -15 15 -8 0 -15 -9 -15 -19 0 -15 -41 -41 -66 -41 -2 0 -4 14 -4
31 0 24 -4 30 -17 27 -12 -2 -18 -13 -18 -33 0 -23 -4 -30 -20 -30 -15 0 -21
8 -23 33 -5 48 -32 43 -32 -7 0 -26 -5 -41 -16 -45 -29 -11 -34 -6 -34 39 0
33 -4 45 -14 45 -11 0 -16 -14 -18 -47 -3 -44 -5 -48 -30 -51 -27 -3 -28 -2
-28 47 0 45 -2 51 -21 51 -19 0 -21 -5 -17 -52 l3 -53 -162 -3 -163 -2 0 -31
0 -31 164 4 164 4 7 -78 c3 -43 11 -78 16 -78 5 0 9 36 9 80 l0 80 29 0 c35 0
41 -13 41 -95 0 -35 5 -67 10 -70 6 -4 10 25 10 79 l0 86 30 0 c30 0 30 -1 31
-57 1 -32 4 -71 8 -88 6 -27 8 -24 14 25 4 30 7 70 7 88 0 25 4 32 19 32 16 0
20 -11 26 -80 4 -44 11 -80 16 -80 5 0 9 36 9 81 l0 80 38 -3 37 -3 5 -77 c7
-106 20 -110 20 -6 l0 85 68 6 c37 4 113 7 168 7 l102 0 6 -127 c4 -71 10
-157 13 -193 l7 -65 7 50 c4 28 8 116 8 197 1 131 3 147 19 151 16 4 16 5 0 6
-10 0 -18 9 -18 19 0 18 15 19 218 26 119 4 233 10 252 15 l35 7 -40 7 c-22 3
-135 9 -252 13 l-212 7 -3 116 c-3 112 -4 116 -25 119 -22 3 -23 0 -23 -66z
m9 -216 l1 -49 -46 7 c-26 3 -103 6 -171 6 l-124 0 3 26 c3 24 15 30 157 80
85 30 157 56 160 60 8 8 19 -67 20 -130z m-369 -16 c0 -17 -6 -20 -35 -18 -39
2 -42 19 -4 29 37 11 39 10 39 -11z"/>
</g>
</svg>
