<?xml version="1.0" standalone="no"?>
<!DOCTYPE svg PUBLIC "-//W3C//DTD SVG 20010904//EN"
 "http://www.w3.org/TR/2001/REC-SVG-20010904/DTD/svg10.dtd">
<svg version="1.0" xmlns="http://www.w3.org/2000/svg"
 width="127.000000pt" height="138.000000pt" viewBox="0 0 127.000000 138.000000"
 preserveAspectRatio="xMidYMid meet">
<metadata>
Created by potrace 1.16, written by Peter Selinger 2001-2019
</metadata>
<g transform="translate(0.000000,138.000000) scale(0.100000,-0.100000)"
fill="#000000" stroke="none">
<path d="M920 1056 c-148 -97 -382 -236 -399 -236 -10 0 -21 -4 -23 -10 -2 -5
-38 -3 -92 6 -74 13 -90 13 -97 2 -10 -15 -11 -236 -1 -259 6 -14 15 -14 95 2
l88 18 97 -61 c109 -68 368 -218 377 -218 3 0 5 176 5 390 0 215 -3 390 -7
389 -5 0 -24 -11 -43 -23z m20 -156 l0 -140 -202 1 c-123 0 -195 4 -183 9 11
5 16 9 11 9 -7 1 357 255 372 260 1 1 2 -62 2 -139z m-444 -124 c1 0 3 -39 5
-85 l4 -85 -89 -13 c-49 -7 -90 -12 -91 -10 -1 1 0 49 3 105 l4 104 82 -7 c44
-4 82 -8 82 -9z m316 -134 c-31 -5 -32 -4 -25 45 4 28 11 43 22 45 12 3 17 -7
21 -42 5 -41 3 -45 -18 -48z m128 43 c0 -59 -2 -60 -56 -49 -28 5 -29 7 -26
55 l4 49 39 0 39 0 0 -55z m-360 0 c0 -41 -2 -45 -25 -45 -21 0 -25 5 -25 29
0 42 10 61 31 61 16 0 19 -8 19 -45z m50 23 c0 -13 3 -33 6 -45 5 -19 2 -23
-16 -23 -18 0 -21 4 -16 23 3 12 6 32 6 45 0 12 5 22 10 22 6 0 10 -10 10 -22z
m60 -23 c0 -33 -4 -45 -15 -45 -11 0 -15 12 -15 45 0 33 4 45 15 45 11 0 15
-12 15 -45z m70 0 c0 -42 -2 -45 -26 -45 -20 0 -25 4 -20 16 3 9 6 29 6 45 0
22 5 29 20 29 17 0 20 -7 20 -45z m188 -213 c2 -115 0 -142 -10 -136 -7 5 -94
61 -192 126 -99 65 -184 118 -189 118 -5 0 -7 6 -5 13 4 10 191 22 363 22 l30
0 3 -143z"/>
</g>
</svg>
