<?xml version="1.0" standalone="no"?>
<!DOCTYPE svg PUBLIC "-//W3C//DTD SVG 20010904//EN"
 "http://www.w3.org/TR/2001/REC-SVG-20010904/DTD/svg10.dtd">
<svg version="1.0" xmlns="http://www.w3.org/2000/svg"
 width="119.000000pt" height="163.000000pt" viewBox="0 0 119.000000 163.000000"
 preserveAspectRatio="xMidYMid meet">
<metadata>
Created by potrace 1.16, written by Peter Selinger 2001-2019
</metadata>
<g transform="translate(0.000000,163.000000) scale(0.100000,-0.100000)"
fill="#000000" stroke="none">
<path d="M608 1288 c-98 -51 -140 -100 -159 -183 -15 -66 -7 -86 52 -129 38
-29 52 -65 27 -67 -7 -1 -61 0 -120 1 l-108 2 0 -95 c0 -53 4 -108 10 -122
l10 -26 110 3 110 3 0 -60 c0 -33 3 -116 6 -185 l7 -125 134 9 c111 7 137 6
144 -5 6 -10 11 -11 17 -3 4 6 16 14 27 19 19 8 19 9 -2 12 -22 4 -23 9 -24
86 0 45 -3 151 -5 235 -6 153 -6 154 15 142 13 -6 21 -7 21 -1 0 5 -8 12 -19
16 -16 5 -19 21 -25 136 -8 144 -31 250 -71 328 -32 64 -46 65 -157 9z m136
-50 c31 -70 53 -165 61 -260 l6 -78 -57 0 c-45 0 -68 7 -115 32 -33 18 -59 38
-59 45 0 7 -7 13 -15 13 -23 0 -58 25 -83 60 l-22 30 20 43 c27 57 71 99 145
136 83 42 92 41 119 -21z m-139 -328 c3 -5 -1 -10 -9 -10 -9 0 -16 5 -16 10 0
6 4 10 9 10 6 0 13 -4 16 -10z m169 -75 c19 -8 37 -23 40 -32 2 -10 8 -119 11
-242 l7 -224 -32 7 c-18 3 -78 6 -133 6 l-100 0 7 163 c3 89 6 206 5 259 l0
97 48 3 c46 3 68 -2 147 -37z m36 25 c0 -20 -1 -20 -27 -3 -16 9 -30 18 -32
20 -2 2 10 3 27 3 25 0 32 -4 32 -20z m-270 -75 l0 -85 -87 0 c-134 0 -129 -3
-125 90 l4 80 104 0 104 0 0 -85z"/>
</g>
</svg>
