<?xml version="1.0" standalone="no"?>
<!DOCTYPE svg PUBLIC "-//W3C//DTD SVG 20010904//EN"
 "http://www.w3.org/TR/2001/REC-SVG-20010904/DTD/svg10.dtd">
<svg version="1.0" xmlns="http://www.w3.org/2000/svg"
 width="123.000000pt" height="160.000000pt" viewBox="0 0 123.000000 160.000000"
 preserveAspectRatio="xMidYMid meet">
<metadata>
Created by potrace 1.16, written by Peter Selinger 2001-2019
</metadata>
<g transform="translate(0.000000,160.000000) scale(0.100000,-0.100000)"
fill="#000000" stroke="none">
<path d="M675 1249 c-90 -60 -122 -104 -135 -184 -11 -67 2 -105 71 -211 21
-33 39 -62 39 -65 0 -2 -79 -3 -175 -1 -172 3 -175 3 -175 -18 0 -21 3 -21
180 -18 l180 3 1 -25 c0 -14 2 -35 3 -47 l3 -23 -184 0 c-181 0 -183 0 -183
-22 0 -21 1 -21 180 -15 l180 5 0 -28 c0 -29 -34 -237 -46 -277 l-6 -23 161 0
c101 0 161 4 161 10 0 6 -7 10 -15 10 -13 0 -15 35 -15 253 -1 402 -17 547
-75 675 -31 68 -50 68 -150 1z m119 -27 c51 -101 70 -236 81 -562 3 -96 8
-212 11 -257 l5 -81 -123 5 c-68 3 -125 7 -126 9 -2 1 5 42 17 91 11 48 23
114 27 146 l7 57 53 0 c29 0 56 5 59 10 4 6 -15 10 -48 10 l-55 0 -4 55 -3 55
58 0 c31 0 57 4 57 10 0 6 -26 10 -57 10 l-58 1 -57 92 c-32 51 -63 108 -69
125 -25 74 22 156 129 227 37 24 68 44 69 45 2 0 14 -22 27 -48z"/>
</g>
</svg>
