<?xml version="1.0" standalone="no"?>
<!DOCTYPE svg PUBLIC "-//W3C//DTD SVG 20010904//EN"
 "http://www.w3.org/TR/2001/REC-SVG-20010904/DTD/svg10.dtd">
<svg version="1.0" xmlns="http://www.w3.org/2000/svg"
 width="140.000000pt" height="138.000000pt" viewBox="0 0 140.000000 138.000000"
 preserveAspectRatio="xMidYMid meet">
<metadata>
Created by potrace 1.16, written by Peter Selinger 2001-2019
</metadata>
<g transform="translate(0.000000,138.000000) scale(0.100000,-0.100000)"
fill="#000000" stroke="none">
<path d="M490 1073 c-14 -2 -48 -10 -75 -18 -48 -14 -51 -16 -62 -62 -7 -26
-20 -73 -29 -103 -8 -30 -18 -103 -21 -162 -5 -90 -2 -122 17 -205 13 -54 24
-111 24 -128 1 -25 7 -32 47 -46 121 -46 299 -61 439 -38 119 19 198 40 197
52 -3 26 27 97 40 97 15 0 18 17 4 22 -10 3 8 98 18 98 11 0 -8 255 -23 310
-29 109 -24 103 -138 137 -56 17 -127 36 -156 42 -51 11 -229 13 -282 4z m360
-58 c52 -9 102 -18 112 -21 14 -4 48 -70 48 -94 0 -6 -50 -7 -130 -3 l-130 6
0 -23 0 -23 135 5 135 5 6 -26 c3 -14 7 -31 9 -38 3 -9 -30 -10 -136 -6 l-139
6 0 -23 0 -23 139 6 139 6 4 -57 c2 -31 2 -70 -1 -86 l-4 -28 -116 3 c-104 4
-116 2 -119 -13 -3 -16 8 -18 119 -18 l122 0 -7 -31 c-3 -17 -6 -38 -6 -47 0
-12 -19 -14 -130 -10 -123 4 -130 4 -130 -14 0 -18 8 -19 126 -16 l126 3 -7
-40 c-3 -22 -9 -43 -13 -47 -13 -13 -267 -29 -352 -22 -96 7 -222 37 -257 59
-13 9 -23 24 -23 34 0 17 13 19 143 24 140 5 142 5 168 -19 l26 -25 7 62 c3
34 6 80 6 103 0 23 4 46 8 52 4 7 55 15 125 19 64 4 117 11 117 15 0 5 -54 11
-121 15 l-121 8 4 108 c3 106 3 109 -18 109 -13 0 -34 -15 -51 -34 l-28 -34
-133 5 -134 6 6 31 c4 17 10 34 14 37 4 4 71 11 150 15 78 4 142 10 142 14 0
10 -90 20 -183 20 -55 0 -83 4 -93 14 -39 39 264 60 446 31z m-160 -245 c0
-64 -3 -80 -15 -80 -8 0 -15 -9 -15 -20 0 -11 7 -20 15 -20 12 0 15 -16 16
-77 0 -43 2 -86 4 -96 2 -13 0 -15 -8 -8 -10 8 -27 38 -68 123 -5 9 -12 35
-15 58 -5 33 -4 40 10 40 19 0 22 16 4 22 -8 3 1 27 26 71 20 37 39 67 41 67
3 0 5 -36 5 -80z m-72 42 c-1 -4 -12 -29 -23 -55 -19 -45 -22 -48 -49 -43 -16
3 -66 6 -113 6 l-84 0 3 43 3 42 75 6 c122 9 192 10 188 1z m-37 -169 l5 -43
-105 0 c-58 0 -111 4 -118 8 -6 4 -13 21 -16 39 l-5 32 71 4 c40 2 92 3 117 3
l45 -1 6 -42z m34 -100 c11 -21 21 -42 23 -47 5 -9 -264 -3 -273 6 -3 2 -8 19
-11 36 l-6 31 108 4 c60 1 116 4 125 5 9 1 23 -13 34 -35z"/>
</g>
</svg>
