<?xml version="1.0" standalone="no"?>
<!DOCTYPE svg PUBLIC "-//W3C//DTD SVG 20010904//EN"
 "http://www.w3.org/TR/2001/REC-SVG-20010904/DTD/svg10.dtd">
<svg version="1.0" xmlns="http://www.w3.org/2000/svg"
 width="119.000000pt" height="210.000000pt" viewBox="0 0 119.000000 210.000000"
 preserveAspectRatio="xMidYMid meet">
<metadata>
Created by potrace 1.16, written by Peter Selinger 2001-2019
</metadata>
<g transform="translate(0.000000,210.000000) scale(0.100000,-0.100000)"
fill="#000000" stroke="none">
<path d="M602 1605 l6 -195 -144 0 c-121 0 -144 -2 -144 -15 0 -8 -4 -15 -10
-15 -11 0 -12 -406 -1 -575 l6 -100 155 4 155 3 3 -203 c2 -112 5 -206 8 -208
11 -11 14 20 20 206 8 234 -7 211 142 214 l92 2 0 343 -1 344 -130 0 -130 0 3
195 c3 186 2 195 -16 195 -18 0 -19 -8 -14 -195z m265 -488 c2 -149 5 -294 8
-322 l6 -50 -277 0 -277 0 7 149 c3 82 6 223 6 313 l0 163 133 1 c72 1 179 5
237 9 58 3 116 7 130 8 l25 2 2 -273z"/>
<path d="M497 1279 c-9 -13 -23 -41 -33 -61 -17 -36 -17 -41 0 -93 9 -30 21
-55 27 -55 12 0 11 5 -2 72 -11 53 -10 57 17 97 19 30 24 45 17 52 -8 8 -16 4
-26 -12z"/>
<path d="M601 1256 c-12 -18 -21 -38 -21 -44 0 -6 -9 -16 -19 -22 -18 -9 -18
-13 -5 -57 24 -80 49 -89 33 -11 -10 43 -8 49 25 101 40 63 42 67 22 67 -8 0
-24 -15 -35 -34z"/>
<path d="M696 1237 c-26 -51 -26 -54 -11 -104 27 -90 47 -72 25 21 -7 34 -5
46 16 81 28 48 29 55 10 55 -8 0 -26 -24 -40 -53z"/>
<path d="M476 988 c-30 -61 -31 -74 -10 -128 17 -42 40 -56 31 -17 -20 83 -20
97 7 137 29 45 32 60 12 60 -8 0 -26 -23 -40 -52z"/>
<path d="M593 985 c-15 -30 -32 -56 -39 -57 -10 -2 -9 -16 5 -56 29 -83 45
-88 30 -8 -8 45 -7 52 26 105 39 63 41 71 20 71 -8 0 -27 -24 -42 -55z"/>
<path d="M696 982 l-27 -57 23 -60 c18 -47 23 -55 26 -36 2 13 -1 43 -7 68
-10 40 -9 47 14 81 28 41 32 62 12 62 -7 0 -26 -26 -41 -58z"/>
</g>
</svg>
