<?xml version="1.0" standalone="no"?>
<!DOCTYPE svg PUBLIC "-//W3C//DTD SVG 20010904//EN"
 "http://www.w3.org/TR/2001/REC-SVG-20010904/DTD/svg10.dtd">
<svg version="1.0" xmlns="http://www.w3.org/2000/svg"
 width="161.000000pt" height="131.000000pt" viewBox="0 0 161.000000 131.000000"
 preserveAspectRatio="xMidYMid meet">
<metadata>
Created by potrace 1.16, written by Peter Selinger 2001-2019
</metadata>
<g transform="translate(0.000000,131.000000) scale(0.100000,-0.100000)"
fill="#000000" stroke="none">
<path d="M300 861 c0 -81 3 -176 7 -211 5 -53 8 -60 19 -46 9 14 25 16 74 14
l63 -3 12 -42 c41 -138 141 -216 329 -258 89 -20 185 -16 276 11 68 20 150 99
195 189 30 59 31 62 30 210 0 126 -2 150 -15 150 -13 0 -15 -23 -12 -160 l3
-160 -50 -66 c-84 -110 -147 -142 -307 -154 -101 -8 -146 1 -239 47 -76 37
-131 89 -161 153 -32 67 -31 81 9 91 l32 8 -37 3 c-36 4 -36 4 -42 61 -4 31
-2 91 3 132 15 106 14 109 -8 103 -16 -4 -21 -18 -26 -79 -4 -41 -5 -103 -3
-139 l4 -65 -63 0 -63 0 0 160 c0 159 0 160 23 160 12 1 70 3 130 7 l107 6 1
-129 c1 -109 11 -202 19 -184 1 3 5 78 9 166 l6 162 -50 6 c-27 3 -101 6 -162
6 l-113 0 0 -149z"/>
<path d="M770 613 c-111 -40 -220 -87 -220 -94 0 -23 33 -17 127 26 55 25 105
45 110 45 5 0 27 -22 49 -48 70 -87 164 -185 170 -179 10 10 -188 257 -205
256 -9 0 -23 -3 -31 -6z"/>
</g>
</svg>
