<?xml version="1.0" standalone="no"?>
<!DOCTYPE svg PUBLIC "-//W3C//DTD SVG 20010904//EN"
 "http://www.w3.org/TR/2001/REC-SVG-20010904/DTD/svg10.dtd">
<svg version="1.0" xmlns="http://www.w3.org/2000/svg"
 width="135.000000pt" height="115.000000pt" viewBox="0 0 135.000000 115.000000"
 preserveAspectRatio="xMidYMid meet">
<metadata>
Created by potrace 1.16, written by Peter Selinger 2001-2019
</metadata>
<g transform="translate(0.000000,115.000000) scale(0.100000,-0.100000)"
fill="#000000" stroke="none">
<path d="M300 745 c0 -124 4 -128 81 -91 50 24 53 24 66 7 6 -10 33 -24 58
-31 26 -7 49 -19 52 -27 3 -9 9 -10 17 -4 6 5 47 12 91 16 92 7 318 33 355 41
24 4 26 9 28 73 3 64 2 69 -20 74 -18 5 -504 9 -588 6 -8 -1 -42 8 -74 20 -33
12 -61 21 -63 21 -1 0 -3 -47 -3 -105z m85 52 c49 -13 50 -14 53 -54 l3 -40
-62 -21 c-35 -12 -64 -20 -64 -19 -5 7 8 147 14 147 3 0 29 -6 56 -13z m639
-63 c4 -31 5 -58 4 -59 -2 -1 -77 -8 -168 -14 -91 -6 -191 -14 -222 -18 l-58
-6 0 49 c0 98 -8 93 164 97 83 1 179 4 212 5 l61 2 7 -56z m-471 -21 c4 -37 6
-68 4 -69 -1 -1 -24 7 -50 18 -40 18 -48 25 -43 42 3 12 6 33 6 49 0 25 3 27
39 27 l38 0 6 -67z"/>
<path d="M300 456 c0 -63 4 -106 11 -113 9 -9 26 -5 70 17 53 27 58 28 63 12
4 -11 27 -25 61 -36 30 -9 55 -21 55 -27 0 -6 7 -6 18 0 9 5 78 14 152 20 74
6 174 16 222 23 l87 12 7 41 c3 23 4 54 2 71 l-3 29 -95 7 c-52 4 -194 7 -315
7 -195 0 -227 2 -277 20 l-58 20 0 -103z m113 40 c26 -6 28 -10 25 -47 -3 -40
-4 -41 -61 -61 -32 -11 -59 -18 -60 -17 -2 2 -1 36 1 75 l4 72 31 -8 c18 -4
45 -11 60 -14z m610 -53 c3 -32 5 -59 3 -60 -2 -2 -95 -10 -207 -18 -112 -8
-212 -17 -221 -19 -15 -3 -18 3 -18 39 0 23 3 56 6 74 l6 31 202 3 c110 1 206
3 212 5 7 1 14 -21 17 -55z m-469 -25 c3 -34 4 -63 2 -65 -2 -2 -25 6 -51 17
-41 17 -46 23 -41 43 3 12 6 32 6 45 0 19 5 22 39 22 l38 0 7 -62z"/>
</g>
</svg>
