<?xml version="1.0" standalone="no"?>
<!DOCTYPE svg PUBLIC "-//W3C//DTD SVG 20010904//EN"
 "http://www.w3.org/TR/2001/REC-SVG-20010904/DTD/svg10.dtd">
<svg version="1.0" xmlns="http://www.w3.org/2000/svg"
 width="158.000000pt" height="131.000000pt" viewBox="0 0 158.000000 131.000000"
 preserveAspectRatio="xMidYMid meet">
<metadata>
Created by potrace 1.16, written by Peter Selinger 2001-2019
</metadata>
<g transform="translate(0.000000,131.000000) scale(0.100000,-0.100000)"
fill="#000000" stroke="none">
<path d="M481 979 c-67 -39 -133 -105 -161 -164 -34 -70 -26 -159 23 -258 37
-74 136 -218 170 -246 29 -23 19 -2 -26 57 -93 123 -146 234 -154 324 -5 48
-2 66 21 112 28 58 91 121 164 163 23 14 39 29 36 34 -8 13 -14 12 -73 -22z"/>
<path d="M674 991 c-2 -2 -4 -24 -4 -47 l0 -43 -90 6 c-87 6 -90 5 -90 -15 0
-20 3 -21 95 -15 l95 6 0 -58 0 -58 158 6 c144 5 431 33 441 43 12 11 -19 12
-194 4 -105 -5 -234 -9 -287 -10 l-98 0 0 70 0 70 39 0 39 0 7 -55 c9 -75 25
-80 25 -7 l0 59 92 7 c50 3 132 7 182 7 50 1 105 5 121 8 25 6 20 9 -35 14
-74 8 -489 14 -496 8z"/>
<path d="M960 620 c-80 -4 -174 -8 -210 -9 -96 -2 -96 -2 -76 -108 10 -50 21
-95 25 -102 6 -9 43 -4 147 19 125 27 350 88 413 112 62 23 -4 14 -199 -27
-117 -25 -214 -44 -216 -43 -1 2 -6 27 -10 56 -5 40 -3 53 7 56 8 2 79 9 159
16 186 15 230 21 230 31 0 10 -45 9 -270 -1z m-156 -87 c3 -21 9 -48 12 -59 5
-20 1 -23 -46 -29 -28 -4 -54 -5 -56 -2 -8 8 -21 116 -16 122 3 3 27 5 52 5
47 0 48 0 54 -37z"/>
<path d="M472 468 c6 -17 57 -21 136 -13 96 10 73 25 -39 25 -76 0 -100 -3
-97 -12z"/>
</g>
</svg>
