<?xml version="1.0" standalone="no"?>
<!DOCTYPE svg PUBLIC "-//W3C//DTD SVG 20010904//EN"
 "http://www.w3.org/TR/2001/REC-SVG-20010904/DTD/svg10.dtd">
<svg version="1.0" xmlns="http://www.w3.org/2000/svg"
 width="231.000000pt" height="156.000000pt" viewBox="0 0 231.000000 156.000000"
 preserveAspectRatio="xMidYMid meet">
<metadata>
Created by potrace 1.16, written by Peter Selinger 2001-2019
</metadata>
<g transform="translate(0.000000,156.000000) scale(0.100000,-0.100000)"
fill="#000000" stroke="none">
<path d="M1715 1129 c-189 -122 -202 -129 -240 -124 -118 15 -805 65 -899 65
-36 0 -45 7 -119 85 -69 74 -82 84 -94 72 -12 -12 -5 -23 49 -75 35 -33 74
-69 87 -79 l24 -20 -92 -48 c-102 -54 -120 -70 -103 -87 8 -8 17 -7 35 4 22
15 26 14 78 -29 30 -25 58 -48 62 -52 5 -5 -39 -34 -97 -66 -58 -32 -106 -60
-106 -64 0 -3 4 -12 9 -20 8 -12 73 25 197 115 l22 15 7 -114 c4 -63 4 -133 0
-156 l-7 -43 -83 89 c-69 73 -85 86 -97 75 -11 -11 0 -26 69 -92 l82 -78 -84
-49 c-47 -26 -85 -53 -85 -60 0 -29 26 -20 111 37 105 70 80 65 414 85 132 8
330 22 440 32 l200 16 130 -70 c145 -78 291 -153 300 -153 18 0 -18 26 -130
95 -69 42 -125 78 -125 80 0 1 20 19 45 40 l45 37 50 -42 c60 -50 66 -42 10
15 l-41 41 72 64 c81 72 89 70 89 -21 0 -55 14 -218 26 -306 7 -53 24 -57 18
-5 -2 20 -6 155 -8 300 -4 232 -3 262 10 251 25 -21 29 0 4 26 -22 24 -23 26
-15 180 7 151 6 155 -13 155 -11 0 -26 2 -34 4 -7 3 -103 -54 -213 -125z m214
-49 l1 -105 -52 53 -53 53 28 20 c15 12 27 25 27 31 0 6 -15 -1 -34 -16 -21
-16 -37 -22 -41 -16 -9 14 -27 1 -21 -15 5 -14 -73 -85 -93 -85 -10 0 -36 39
-29 45 2 2 59 46 128 98 146 111 137 115 139 -63z m-69 -84 c0 -6 -21 -26 -46
-45 l-45 -34 -30 30 -31 30 48 42 47 41 29 -27 c15 -15 28 -32 28 -37z m-1330
-58 l0 -92 -55 54 c-30 29 -53 55 -52 56 15 15 94 73 100 73 4 1 7 -40 7 -91z
m430 62 c118 -5 278 -10 356 -11 78 0 147 -5 155 -10 8 -5 10 -9 4 -9 -5 0
-18 -7 -28 -14 -15 -12 -16 -18 -7 -35 10 -20 14 -19 98 38 l87 58 18 -23 c17
-23 17 -23 -64 -85 l-81 -61 -211 11 c-117 6 -311 13 -432 16 -121 4 -235 8
-252 11 l-33 5 0 66 0 65 88 -6 c48 -4 184 -11 302 -16z m947 -42 c21 -19 23
-30 23 -110 l0 -88 -82 -65 c-45 -36 -85 -65 -88 -65 -4 0 -16 11 -28 23 l-22
24 71 62 72 62 21 -20 c32 -30 44 -26 15 5 l-24 26 29 24 c15 14 26 28 22 31
-3 4 -17 -4 -31 -17 l-26 -24 -37 38 -37 37 45 40 c25 21 47 39 49 39 3 0 15
-10 28 -22z m-193 -37 l28 -29 -68 -51 c-37 -28 -70 -51 -74 -51 -3 0 -17 12
-30 27 l-23 27 34 25 c18 14 47 38 64 53 16 15 33 28 36 28 3 0 18 -13 33 -29z
m86 -76 c18 -19 32 -37 29 -39 -19 -19 -133 -106 -138 -106 -4 0 -20 14 -37
31 l-29 30 65 59 c36 33 67 59 71 60 3 0 20 -16 39 -35z m-577 -15 c217 0 306
-3 302 -11 -4 -6 3 -22 16 -35 20 -21 21 -26 9 -34 -8 -6 -134 -10 -280 -10
-146 0 -363 -3 -482 -7 l-218 -6 0 58 0 58 173 -6 c94 -4 311 -7 480 -7z m432
-160 c-2 -4 -29 -24 -58 -44 l-54 -37 -57 36 c-55 35 -58 36 -71 18 -12 -15
-12 -19 1 -28 53 -34 53 -34 -91 -35 -77 0 -183 -3 -235 -5 -259 -14 -490 -25
-509 -25 -19 0 -21 6 -21 64 l0 64 73 6 c84 6 688 29 828 31 52 1 104 7 115
13 16 9 24 6 51 -20 18 -17 30 -34 28 -38z m60 -40 c11 -12 15 -24 9 -28 -5
-5 -26 -21 -47 -36 -34 -25 -41 -27 -68 -16 -16 7 -29 15 -28 19 0 9 92 80
105 80 6 1 19 -8 29 -19z"/>
</g>
</svg>
