<?xml version="1.0" standalone="no"?>
<!DOCTYPE svg PUBLIC "-//W3C//DTD SVG 20010904//EN"
 "http://www.w3.org/TR/2001/REC-SVG-20010904/DTD/svg10.dtd">
<svg version="1.0" xmlns="http://www.w3.org/2000/svg"
 width="177.000000pt" height="401.000000pt" viewBox="0 0 177.000000 401.000000"
 preserveAspectRatio="xMidYMid meet">
<metadata>
Created by potrace 1.16, written by Peter Selinger 2001-2019
</metadata>
<g transform="translate(0.000000,401.000000) scale(0.100000,-0.100000)"
fill="#000000" stroke="none">
<path d="M436 3689 c-44 -11 -87 -26 -96 -34 -9 -8 -22 -15 -28 -15 -33 0 1
-21 131 -79 78 -35 169 -73 202 -84 33 -11 61 -21 63 -22 2 -2 -7 -27 -20 -57
-31 -72 -29 -157 6 -261 14 -42 26 -81 26 -85 0 -5 -26 -16 -57 -26 -32 -10
-110 -42 -173 -71 -63 -29 -132 -58 -152 -66 -35 -12 -51 -29 -29 -29 5 0 16
-7 25 -15 8 -9 48 -24 88 -34 205 -52 325 -28 380 77 21 39 34 48 153 105 72
35 151 77 176 93 55 34 292 235 285 241 -2 2 -46 -27 -98 -65 -189 -139 -291
-198 -444 -256 -59 -22 -71 -30 -67 -45 8 -33 -25 -80 -80 -111 -63 -36 -116
-45 -182 -30 -60 13 -135 40 -135 49 0 10 217 121 275 141 l53 18 17 -39 c24
-52 38 -50 19 3 -8 22 -13 42 -12 43 2 1 17 7 33 14 l30 11 -37 -4 c-36 -4
-38 -3 -47 32 -47 176 -49 237 -11 312 20 40 23 42 56 36 42 -8 44 0 4 16
l-30 13 21 32 c18 28 25 31 52 27 99 -17 302 -73 436 -121 84 -30 155 -52 157
-50 6 5 -165 88 -261 125 -82 32 -322 95 -335 87 -3 -2 -12 11 -19 30 -15 43
-70 91 -118 104 -57 16 -169 12 -257 -10z m269 -33 c51 -23 105 -76 105 -101
0 -8 -6 -12 -13 -9 -8 3 -25 -12 -42 -36 -22 -32 -33 -39 -49 -35 -12 4 -85
38 -163 78 -156 78 -155 76 -53 108 79 26 154 24 215 -5z"/>
<path d="M530 2276 c0 -25 28 -58 175 -206 l175 -176 -150 -150 c-188 -186
-193 -193 -177 -228 11 -25 16 -26 88 -26 42 0 170 5 285 10 l209 11 84 87
c85 89 251 285 251 297 0 8 -180 220 -267 314 -67 72 -68 73 -86 54 -17 -19
-12 -25 157 -195 l174 -175 -182 -182 -181 -182 -40 5 c-22 3 -123 6 -225 7
-102 1 -191 4 -198 7 -8 3 16 34 60 81 40 42 102 112 137 156 35 44 70 85 78
91 14 12 18 34 5 34 -5 0 -40 39 -78 88 -39 48 -106 124 -148 170 l-78 82 75
0 c94 0 430 20 436 26 13 13 -33 16 -293 22 l-286 7 0 -29z"/>
<path d="M530 1078 c0 -28 23 -54 170 -203 94 -94 170 -175 170 -180 0 -5 -75
-85 -167 -177 -167 -167 -167 -167 -152 -194 l14 -27 285 6 285 5 74 79 c80
85 261 298 261 307 0 11 -142 181 -237 284 -92 99 -96 102 -115 85 -18 -16
-14 -22 157 -193 l176 -176 -98 -95 c-54 -53 -135 -134 -179 -180 l-82 -84
-133 6 c-74 4 -183 8 -243 8 l-109 1 69 73 c38 39 96 105 129 145 l60 73 10
-128 c16 -188 24 -122 28 220 3 280 2 297 -15 297 -16 0 -18 -13 -20 -141 l-3
-142 -49 63 c-27 34 -86 101 -132 150 l-84 87 148 7 c496 22 485 36 -40 50
l-178 5 0 -31z"/>
</g>
</svg>
