<?xml version="1.0" standalone="no"?>
<!DOCTYPE svg PUBLIC "-//W3C//DTD SVG 20010904//EN"
 "http://www.w3.org/TR/2001/REC-SVG-20010904/DTD/svg10.dtd">
<svg version="1.0" xmlns="http://www.w3.org/2000/svg"
 width="152.000000pt" height="125.000000pt" viewBox="0 0 152.000000 125.000000"
 preserveAspectRatio="xMidYMid meet">
<metadata>
Created by potrace 1.16, written by Peter Selinger 2001-2019
</metadata>
<g transform="translate(0.000000,125.000000) scale(0.100000,-0.100000)"
fill="#000000" stroke="none">
<path d="M330 937 c0 -10 -7 -17 -15 -17 -34 0 -8 -575 26 -588 5 -2 9 -11 9
-19 0 -14 43 -15 426 -10 257 3 430 9 436 15 13 13 -179 21 -564 24 l-298 3 0
278 0 277 208 1 c114 1 218 3 232 4 14 2 99 4 190 6 l165 4 6 -190 c8 -217 29
-385 50 -385 12 0 12 587 0 595 -6 3 -204 8 -440 12 -398 6 -431 5 -431 -10z"/>
<path d="M672 760 c2 -55 1 -100 -2 -100 -3 0 -23 25 -45 56 -51 71 -59 78
-74 60 -9 -11 -1 -27 44 -79 30 -36 55 -68 55 -71 0 -3 -43 -6 -95 -6 -88 0
-95 -1 -95 -20 0 -18 7 -20 87 -20 l87 0 -67 -47 c-58 -40 -65 -49 -53 -61 12
-12 24 -6 90 42 l76 57 1 -68 c1 -37 5 -81 8 -98 6 -24 9 -13 15 50 4 44 8 84
10 88 1 5 30 -23 65 -62 34 -39 67 -71 72 -71 5 0 -20 39 -57 88 l-66 87 149
6 c81 4 153 8 158 9 23 6 -97 18 -189 19 l-98 1 73 57 c41 31 76 58 78 60 2 2
2 5 -1 9 -3 3 -44 -20 -91 -50 -47 -31 -88 -56 -91 -56 -3 0 -6 50 -6 110 0
105 -1 110 -21 110 -19 0 -20 -5 -17 -100z"/>
</g>
</svg>
