<?xml version="1.0" standalone="no"?>
<!DOCTYPE svg PUBLIC "-//W3C//DTD SVG 20010904//EN"
 "http://www.w3.org/TR/2001/REC-SVG-20010904/DTD/svg10.dtd">
<svg version="1.0" xmlns="http://www.w3.org/2000/svg"
 width="134.000000pt" height="141.000000pt" viewBox="0 0 134.000000 141.000000"
 preserveAspectRatio="xMidYMid meet">
<metadata>
Created by potrace 1.16, written by Peter Selinger 2001-2019
</metadata>
<g transform="translate(0.000000,141.000000) scale(0.100000,-0.100000)"
fill="#000000" stroke="none">
<path d="M300 1084 c0 -22 27 -65 106 -169 59 -77 120 -156 135 -175 16 -19
29 -38 29 -43 0 -4 -33 -49 -73 -100 -188 -236 -197 -250 -180 -269 14 -16 39
-18 237 -18 l222 0 66 93 c36 50 92 133 124 182 32 50 62 92 66 93 11 5 10 42
-1 42 -4 0 -30 35 -56 78 -26 42 -81 123 -122 179 -62 86 -80 104 -111 113
-20 5 -128 13 -239 17 l-203 6 0 -29z m454 -19 c-8 -19 -2 -27 130 -199 59
-76 106 -140 104 -141 -2 -2 -95 -1 -208 2 l-205 6 -45 71 c-24 39 -72 111
-107 159 -35 48 -63 90 -63 92 0 3 48 6 108 6 59 1 141 5 182 9 41 4 83 7 92
8 12 1 15 -3 12 -13z m256 -369 c0 -3 -60 -82 -134 -177 -74 -95 -133 -177
-130 -181 3 -4 -10 -5 -28 -2 -18 4 -83 39 -144 78 l-112 71 16 27 16 28 36
-22 c118 -71 220 -126 220 -117 0 5 -54 45 -119 87 l-119 78 17 22 17 23 100
-59 c129 -77 164 -95 164 -83 0 5 -56 45 -125 90 -116 75 -124 82 -113 101 11
17 15 18 33 6 69 -45 237 -138 241 -133 6 5 -60 53 -153 113 l-63 39 58 6 c70
7 322 11 322 5z m-470 -291 c51 -30 94 -56 97 -58 4 -5 -260 4 -265 8 -3 3 68
105 73 105 1 0 44 -25 95 -55z"/>
</g>
</svg>
