<?xml version="1.0" standalone="no"?>
<!DOCTYPE svg PUBLIC "-//W3C//DTD SVG 20010904//EN"
 "http://www.w3.org/TR/2001/REC-SVG-20010904/DTD/svg10.dtd">
<svg version="1.0" xmlns="http://www.w3.org/2000/svg"
 width="155.000000pt" height="141.000000pt" viewBox="0 0 155.000000 141.000000"
 preserveAspectRatio="xMidYMid meet">
<metadata>
Created by potrace 1.16, written by Peter Selinger 2001-2019
</metadata>
<g transform="translate(0.000000,141.000000) scale(0.100000,-0.100000)"
fill="#000000" stroke="none">
<path d="M300 1085 c0 -24 31 -60 177 -207 l178 -178 -175 -175 c-150 -150
-173 -178 -164 -193 10 -15 37 -17 302 -19 l291 -2 95 102 c52 56 125 139 161
185 37 45 71 82 76 82 11 0 12 27 2 32 -5 2 -52 55 -105 118 -53 63 -126 146
-160 184 -59 63 -66 68 -86 57 -22 -12 -19 -17 100 -143 68 -72 148 -153 178
-180 l54 -48 -177 -178 c-98 -98 -174 -182 -170 -187 4 -4 0 -5 -10 -2 -10 4
-35 7 -54 7 l-36 0 57 63 c31 34 98 110 147 170 50 59 95 107 100 107 5 0 9 9
9 20 0 11 -4 19 -9 18 -4 -2 -37 33 -73 77 -36 44 -104 123 -152 175 l-88 95
63 9 c58 8 61 10 34 17 -16 5 -150 12 -297 16 l-268 6 0 -28z m422 -28 c-8 -9
32 -55 163 -186 l173 -173 -178 -180 -178 -180 -60 8 -60 9 95 105 c52 58 115
131 140 163 24 31 50 57 56 57 7 0 13 9 13 20 0 11 -5 19 -10 17 -6 -2 -42 35
-80 82 -39 47 -106 124 -150 171 l-80 85 60 6 c106 10 107 10 96 -4z m-207 -7
c-3 -5 71 -87 164 -182 l170 -173 -172 -172 -172 -173 -64 0 -63 0 65 70 c36
38 101 111 143 162 42 51 81 94 86 96 4 2 8 8 8 13 0 13 -118 156 -228 277
l-84 92 76 0 c47 0 75 -4 71 -10z"/>
</g>
</svg>
