<?xml version="1.0" standalone="no"?>
<!DOCTYPE svg PUBLIC "-//W3C//DTD SVG 20010904//EN"
 "http://www.w3.org/TR/2001/REC-SVG-20010904/DTD/svg10.dtd">
<svg version="1.0" xmlns="http://www.w3.org/2000/svg"
 width="126.000000pt" height="260.000000pt" viewBox="0 0 126.000000 260.000000"
 preserveAspectRatio="xMidYMid meet">
<metadata>
Created by potrace 1.16, written by Peter Selinger 2001-2019
</metadata>
<g transform="translate(0.000000,260.000000) scale(0.100000,-0.100000)"
fill="#000000" stroke="none">
<path d="M580 2198 l0 -103 -35 60 c-19 33 -43 75 -52 93 -17 32 -36 41 -48
22 -3 -5 16 -42 43 -82 27 -40 52 -79 56 -86 4 -7 -31 15 -78 48 -76 55 -106
66 -106 40 0 -4 39 -34 88 -65 48 -32 78 -54 67 -50 -66 23 -180 53 -187 49
-23 -14 -2 -32 55 -47 l62 -16 -70 2 c-56 2 -70 -1 -70 -13 0 -12 18 -16 80
-20 l80 -5 -41 -12 c-22 -7 -54 -16 -72 -19 -22 -5 -32 -12 -32 -25 0 -11 3
-19 8 -19 8 0 155 44 187 55 11 4 -17 -16 -62 -44 -90 -56 -101 -67 -84 -84 7
-7 15 -6 28 4 10 9 49 37 86 63 l69 48 -57 -85 c-51 -77 -61 -107 -35 -107 5
0 31 39 59 87 l50 87 3 -100 c2 -80 6 -99 18 -99 13 0 14 16 12 100 -2 55 -5
109 -8 120 -2 11 20 -31 50 -92 52 -108 67 -126 81 -103 7 11 -86 187 -115
217 -16 17 -15 20 11 53 15 19 48 73 73 119 35 64 43 86 34 93 -7 4 -16 8 -19
8 -3 0 -29 -48 -56 -107 l-50 -108 5 113 c4 99 3 112 -12 112 -14 0 -16 -14
-16 -102z"/>
<path d="M730 2147 c-52 -46 -101 -90 -107 -99 -11 -12 3 -29 88 -104 94 -83
128 -103 135 -79 2 6 -30 35 -70 65 -41 30 -73 56 -72 57 2 2 38 -9 80 -23 64
-22 80 -24 87 -13 11 18 11 18 -78 44 l-78 24 83 0 c74 1 83 3 80 19 -3 15
-14 17 -91 13 -48 -1 -87 -1 -87 2 0 2 39 15 86 27 77 21 107 40 91 57 -3 3
-41 -7 -83 -21 -43 -14 -79 -25 -80 -23 -2 2 28 27 66 56 65 49 88 81 58 81
-7 0 -56 -38 -108 -83z"/>
<path d="M580 1490 l0 -119 -92 66 c-91 65 -123 80 -123 55 0 -17 222 -155
230 -142 3 5 8 65 12 134 5 113 4 126 -10 126 -15 0 -17 -15 -17 -120z"/>
<path d="M711 1434 c-105 -89 -127 -104 -150 -100 -63 13 -246 25 -254 17 -23
-23 9 -31 131 -31 l127 0 -103 -62 c-95 -59 -115 -79 -93 -92 5 -3 52 25 105
64 l96 69 0 -114 c0 -108 1 -115 20 -115 22 0 22 -6 5 203 -3 31 -3 57 -1 57
2 0 55 -43 116 -95 104 -89 135 -106 135 -77 0 6 -43 43 -95 83 -52 39 -97 72
-98 74 -2 2 48 1 112 -2 l116 -6 0 23 0 23 -122 -6 c-72 -4 -118 -3 -113 2 6
5 56 43 113 86 84 63 101 80 91 91 -6 8 -12 14 -13 14 0 0 -57 -47 -125 -106z"/>
<path d="M580 801 c0 -56 -4 -101 -9 -101 -5 0 -52 32 -105 71 -80 58 -99 69
-111 59 -8 -7 -15 -16 -15 -20 0 -5 47 -41 105 -82 l104 -73 -124 -3 -125 -3
0 -24 c0 -24 1 -24 114 -27 l115 -3 -95 -64 c-52 -36 -94 -68 -94 -71 0 -3 6
-14 13 -22 11 -15 23 -9 112 57 55 41 103 75 106 75 4 0 8 -59 8 -132 2 -123
5 -148 15 -137 2 2 9 69 15 148 6 79 12 146 14 148 2 2 59 -33 126 -77 68 -45
127 -80 132 -78 5 2 -37 39 -92 83 -71 55 -96 81 -83 82 11 1 72 5 137 8 64 4
117 11 117 16 0 5 -46 9 -102 10 -57 0 -120 3 -141 7 l-39 7 106 83 c58 46
106 86 106 89 0 10 -31 -8 -150 -87 l-122 -81 3 118 c4 116 4 118 -18 121 -23
3 -23 1 -23 -97z"/>
</g>
</svg>
