<?xml version="1.0" standalone="no"?>
<!DOCTYPE svg PUBLIC "-//W3C//DTD SVG 20010904//EN"
 "http://www.w3.org/TR/2001/REC-SVG-20010904/DTD/svg10.dtd">
<svg version="1.0" xmlns="http://www.w3.org/2000/svg"
 width="144.000000pt" height="136.000000pt" viewBox="0 0 144.000000 136.000000"
 preserveAspectRatio="xMidYMid meet">
<metadata>
Created by potrace 1.16, written by Peter Selinger 2001-2019
</metadata>
<g transform="translate(0.000000,136.000000) scale(0.100000,-0.100000)"
fill="#000000" stroke="none">
<path d="M839 1011 c-41 -27 -99 -69 -128 -95 -40 -33 -58 -42 -67 -35 -21 17
-116 39 -172 39 -32 0 -67 -7 -90 -19 -48 -24 -79 -58 -66 -71 9 -9 73 -24
203 -47 l44 -8 -49 -32 c-59 -38 -208 -160 -213 -175 -2 -6 1 -8 8 -4 6 4 11
2 11 -5 0 -18 106 -5 243 31 65 16 124 27 130 23 50 -29 274 -217 345 -290 13
-12 28 -23 34 -23 9 0 9 3 1 11 -8 8 0 34 28 95 40 86 48 124 27 124 -6 0 -39
26 -72 58 -34 31 -85 78 -115 104 l-54 47 21 88 c40 162 43 233 11 233 -3 0
-40 -22 -80 -49z m52 -137 c-10 -65 -22 -126 -26 -136 -5 -12 24 -42 118 -122
l124 -106 -30 -85 -30 -86 -111 109 c-61 59 -136 127 -166 150 -63 47 -49 46
-262 11 -70 -11 -133 -19 -139 -17 -14 5 217 158 237 158 8 0 14 3 14 8 -1 23
-28 34 -136 58 -65 15 -123 30 -127 34 -13 12 81 40 134 40 26 0 70 -7 98 -17
41 -13 49 -19 40 -30 -22 -25 2 -12 138 78 76 50 139 87 140 82 2 -6 -5 -63
-16 -129z"/>
</g>
</svg>
