<?xml version="1.0" standalone="no"?>
<!DOCTYPE svg PUBLIC "-//W3C//DTD SVG 20010904//EN"
 "http://www.w3.org/TR/2001/REC-SVG-20010904/DTD/svg10.dtd">
<svg version="1.0" xmlns="http://www.w3.org/2000/svg"
 width="173.000000pt" height="294.000000pt" viewBox="0 0 173.000000 294.000000"
 preserveAspectRatio="xMidYMid meet">
<metadata>
Created by potrace 1.16, written by Peter Selinger 2001-2019
</metadata>
<g transform="translate(0.000000,294.000000) scale(0.100000,-0.100000)"
fill="#000000" stroke="none">
<path d="M429 2624 c-11 -13 -6 -21 37 -57 159 -133 263 -290 264 -397 0 -112
-123 -236 -350 -350 -47 -24 -80 -45 -74 -47 15 -5 181 66 251 109 73 43 136
100 164 145 23 37 23 37 29 13 6 -25 6 -25 117 -22 l112 4 113 -69 c118 -73
311 -183 319 -183 2 0 5 98 7 218 1 119 5 295 8 390 4 109 3 172 -3 172 -10 0
-237 -134 -353 -208 l-65 -42 -122 0 c-87 0 -123 -3 -127 -12 -4 -9 -9 -7 -18
6 -7 11 -34 51 -60 91 -45 69 -211 255 -228 255 -4 0 -13 -7 -21 -16z m966
-822 c-3 -3 -381 243 -405 264 -12 10 -14 31 -12 93 l3 80 97 63 c53 34 144
95 202 135 l105 74 6 -353 c3 -194 5 -354 4 -356z m-445 359 c0 -61 -3 -112
-7 -114 -5 -3 -45 -2 -90 1 l-83 5 0 92 c0 52 3 100 6 109 5 13 23 16 90 16
l84 0 0 -109z"/>
<path d="M1403 1087 c-74 -42 -154 -91 -271 -164 l-134 -84 -118 7 -119 7 -6
-24 c-3 -13 -4 -78 -3 -144 l3 -120 117 -1 117 -1 98 -60 c76 -47 219 -131
325 -190 4 -2 7 5 6 14 0 10 3 188 8 396 4 207 5 377 3 377 -2 0 -14 -6 -26
-13z m-13 -174 c0 -76 3 -236 7 -357 l6 -218 -134 89 c-74 49 -169 111 -211
138 l-78 50 0 81 0 82 190 127 c104 70 192 131 196 136 18 29 24 -4 24 -128z
m-437 -193 c3 -55 4 -107 1 -115 -5 -12 -26 -15 -96 -15 l-91 0 7 53 c3 28 6
78 6 109 l0 57 43 4 c23 2 60 4 83 5 l41 2 6 -100z"/>
<path d="M401 1046 c-9 -11 5 -30 69 -91 44 -43 80 -81 80 -84 0 -3 -29 -25
-64 -48 -79 -54 -136 -111 -136 -137 0 -28 84 -105 158 -144 72 -38 73 -28
-18 -152 -34 -45 -58 -85 -55 -88 4 -4 31 20 61 53 126 138 204 261 204 317 0
59 -63 157 -186 289 -91 98 -98 103 -113 85z m222 -262 c23 -36 37 -69 37 -89
0 -36 -57 -154 -78 -163 -18 -6 -147 82 -173 120 -18 25 -20 33 -10 51 12 23
159 137 176 137 6 0 27 -25 48 -56z"/>
</g>
</svg>
