<?xml version="1.0" standalone="no"?>
<!DOCTYPE svg PUBLIC "-//W3C//DTD SVG 20010904//EN"
 "http://www.w3.org/TR/2001/REC-SVG-20010904/DTD/svg10.dtd">
<svg version="1.0" xmlns="http://www.w3.org/2000/svg"
 width="301.000000pt" height="213.000000pt" viewBox="0 0 301.000000 213.000000"
 preserveAspectRatio="xMidYMid meet">
<metadata>
Created by potrace 1.16, written by Peter Selinger 2001-2019
</metadata>
<g transform="translate(0.000000,213.000000) scale(0.100000,-0.100000)"
fill="#000000" stroke="none">
<path d="M2286 1763 c-40 -37 -76 -73 -79 -80 -3 -7 22 -79 57 -160 76 -176
123 -312 141 -409 26 -130 -12 -290 -145 -618 -29 -73 -48 -132 -43 -137 5 -5
42 -17 83 -28 41 -11 82 -22 90 -25 31 -12 216 310 281 489 30 83 33 100 33
210 1 114 -1 126 -38 230 -21 60 -62 160 -92 223 -56 120 -189 358 -205 367
-5 4 -42 -24 -83 -62z m144 -128 c85 -147 153 -293 197 -423 32 -94 37 -119
37 -207 0 -119 -23 -217 -87 -363 -35 -79 -118 -231 -166 -301 -8 -12 -18 -11
-68 8 -32 13 -70 28 -85 33 l-27 10 29 52 c81 143 169 388 191 529 18 114 -17
251 -128 507 -86 197 -84 179 -28 244 56 65 42 74 135 -89z"/>
<path d="M1517 1449 c-57 -13 -91 -34 -130 -80 -26 -30 -47 -43 -79 -50 -63
-15 -127 -55 -145 -94 -12 -26 -24 -35 -52 -40 -48 -8 -90 -24 -125 -48 -34
-24 -70 -100 -62 -130 l5 -22 -257 3 c-141 1 -283 3 -315 5 -48 2 -57 -1 -57
-15 0 -9 4 -19 8 -22 4 -2 145 -1 312 4 l305 8 29 -35 c32 -39 116 -83 158
-83 21 0 29 -7 37 -33 19 -57 87 -108 162 -122 30 -6 37 -12 50 -48 18 -53 81
-101 149 -116 29 -6 55 -9 59 -6 24 14 21 936 -3 934 -6 -1 -28 -5 -49 -10z
m-7 -54 c-24 -48 -27 -149 -5 -202 19 -45 19 -43 -6 -43 -54 0 -129 78 -129
134 0 57 51 118 117 141 21 7 39 12 40 11 2 -1 -6 -20 -17 -41z m-213 -127
c-27 -55 -29 -167 -4 -215 17 -32 17 -33 -3 -33 -62 0 -130 70 -130 133 0 77
39 115 156 157 1 0 -8 -19 -19 -42z m139 -108 l35 -22 -29 -18 c-16 -10 -38
-30 -50 -45 l-22 -28 0 89 c0 81 1 87 15 67 8 -12 31 -31 51 -43z m-358 -31
c-29 -57 -30 -159 -1 -218 l21 -43 -26 7 c-108 26 -162 129 -112 211 18 28
105 84 132 84 4 0 -2 -18 -14 -41z m437 -21 c-28 -92 -28 -164 0 -230 21 -51
-83 -11 -120 46 -22 33 -21 97 0 130 22 34 83 76 108 76 15 0 18 -5 12 -22z
m-295 -119 c-14 -9 -36 -30 -48 -45 l-21 -29 -1 90 0 91 49 -46 48 -45 -27
-16z m80 5 c0 -3 -7 -31 -16 -61 -19 -66 -13 -141 17 -192 l20 -33 -28 7
c-110 27 -165 135 -110 215 28 42 117 90 117 64z m151 -139 c20 -7 20 -7 -3
-22 -12 -9 -35 -27 -50 -41 l-28 -26 0 82 0 83 31 -35 c16 -19 39 -38 50 -41z
m52 -57 c-27 -51 -25 -172 5 -221 l22 -38 -22 7 c-49 15 -97 45 -117 73 -29
40 -28 109 1 146 27 35 76 65 106 65 22 0 22 0 5 -32z"/>
<path d="M2180 1251 c-77 -24 -135 -77 -146 -136 -10 -56 29 -124 91 -156 28
-15 69 -30 93 -34 l42 -7 0 171 0 171 -27 -1 c-16 0 -39 -4 -53 -8z m7 -53
c-29 -58 -28 -161 2 -218 l21 -41 -22 6 c-158 48 -186 200 -49 272 64 33 72
30 48 -19z"/>
<path d="M302 1193 c3 -17 21 -18 243 -15 132 1 274 6 315 9 l75 7 -50 7 c-27
4 -171 8 -318 8 -251 1 -268 0 -265 -16z"/>
<path d="M1898 1056 c-81 -22 -148 -92 -148 -154 0 -31 19 -74 43 -101 29 -32
114 -71 155 -71 l32 0 0 170 c0 192 6 180 -82 156z m8 -48 c-30 -60 -29 -169
2 -221 24 -42 17 -46 -43 -18 -127 57 -128 198 -2 256 28 14 55 25 58 25 4 0
-3 -19 -15 -42z"/>
<path d="M2180 881 c-49 -15 -89 -41 -115 -75 -70 -92 -18 -203 112 -242 88
-27 83 -36 83 156 l0 170 -27 -1 c-16 0 -39 -4 -53 -8z m7 -53 c-29 -58 -29
-158 0 -216 l21 -43 -22 7 c-159 49 -185 198 -47 271 64 33 72 30 48 -19z"/>
<path d="M300 768 c0 -17 18 -18 253 -17 138 1 281 4 317 8 l65 7 -45 7 c-25
4 -168 8 -318 9 -253 3 -272 2 -272 -14z"/>
</g>
</svg>
