<?xml version="1.0" standalone="no"?>
<!DOCTYPE svg PUBLIC "-//W3C//DTD SVG 20010904//EN"
 "http://www.w3.org/TR/2001/REC-SVG-20010904/DTD/svg10.dtd">
<svg version="1.0" xmlns="http://www.w3.org/2000/svg"
 width="235.000000pt" height="125.000000pt" viewBox="0 0 235.000000 125.000000"
 preserveAspectRatio="xMidYMid meet">
<metadata>
Created by potrace 1.16, written by Peter Selinger 2001-2019
</metadata>
<g transform="translate(0.000000,125.000000) scale(0.100000,-0.100000)"
fill="#000000" stroke="none">
<path d="M990 937 c0 -31 32 -76 64 -89 44 -18 376 -211 376 -219 0 -8 -303
-187 -372 -220 -31 -15 -48 -29 -48 -41 0 -10 -4 -18 -10 -18 -5 0 -10 -11
-10 -25 l0 -25 243 5 c133 3 268 7 299 10 39 3 58 1 61 -8 11 -31 19 10 20
105 l2 103 165 6 c91 4 167 5 169 3 2 -2 -13 -42 -34 -89 -21 -47 -36 -88 -33
-91 7 -6 41 52 102 174 26 51 50 90 55 88 16 -10 6 53 -10 66 -9 7 -44 66 -78
131 -34 64 -66 117 -71 117 -23 0 -17 -25 20 -91 22 -39 39 -74 36 -76 -2 -2
-75 -1 -162 3 l-159 7 3 87 3 87 -128 6 c-70 4 -212 7 -315 7 -151 0 -188 -3
-188 -13z m590 -104 c0 -49 3 -180 7 -292 l6 -204 -174 6 c-96 4 -218 7 -273
7 l-99 0 119 76 c66 42 155 101 199 132 44 31 87 55 95 55 9 -1 16 7 17 17 1
12 -3 17 -12 14 -7 -3 -94 49 -194 115 -99 67 -187 124 -195 127 -45 17 3 24
187 27 111 1 228 3 260 5 l57 2 0 -87z m405 -147 l26 -44 -23 -46 -22 -46
-176 2 -175 3 1 30 c1 17 2 53 3 82 l1 52 103 4 c56 1 132 4 169 5 l67 2 26
-44z"/>
<path d="M304 839 c-4 -6 30 -48 77 -97 100 -101 109 -112 109 -119 0 -3 -43
-50 -96 -105 -85 -89 -107 -123 -78 -123 7 0 170 174 191 204 1 2 9 -2 18 -9
21 -18 29 -6 13 19 -10 16 -10 23 0 33 19 19 14 33 -6 15 -16 -15 -23 -8 -111
89 -51 57 -97 104 -102 104 -4 0 -11 -5 -15 -11z"/>
<path d="M504 799 c-4 -6 30 -47 77 -95 l84 -84 -83 -83 c-45 -45 -82 -88 -82
-95 0 -29 34 -6 106 73 73 81 78 84 96 68 20 -18 23 -11 7 18 -8 15 -7 24 2
35 16 19 4 30 -15 14 -13 -10 -25 -2 -72 49 -31 33 -65 72 -76 86 -21 27 -33
31 -44 14z"/>
<path d="M654 799 c-4 -7 29 -47 78 -95 l84 -85 -83 -82 c-46 -46 -83 -89 -83
-95 0 -29 34 -6 106 73 76 82 79 84 101 70 26 -17 32 -5 8 15 -14 12 -14 15 0
36 21 33 19 40 -6 18 -21 -19 -22 -19 -103 69 -46 48 -85 87 -89 87 -3 0 -9
-5 -13 -11z"/>
<path d="M776 801 c-3 -5 33 -48 80 -96 l85 -88 -86 -87 c-66 -66 -83 -88 -73
-98 9 -9 31 9 97 78 l86 90 24 -20 24 -21 -57 -58 c-48 -48 -55 -60 -43 -70
12 -9 20 -5 42 21 15 18 52 59 83 91 l55 58 31 -30 c44 -42 55 -39 17 4 -17
20 -31 39 -31 43 1 4 14 22 30 41 39 46 29 53 -15 11 l-34 -33 -85 89 c-57 60
-88 86 -94 79 -7 -7 7 -29 44 -69 50 -56 53 -61 37 -78 -9 -10 -21 -18 -27
-17 -6 0 -45 38 -86 84 -72 80 -93 95 -104 76z m273 -162 l25 -20 -25 -25 -25
-25 -24 26 c-23 24 -23 25 -5 45 22 24 24 24 54 -1z"/>
</g>
</svg>
