<?xml version="1.0" standalone="no"?>
<!DOCTYPE svg PUBLIC "-//W3C//DTD SVG 20010904//EN"
 "http://www.w3.org/TR/2001/REC-SVG-20010904/DTD/svg10.dtd">
<svg version="1.0" xmlns="http://www.w3.org/2000/svg"
 width="106.000000pt" height="119.000000pt" viewBox="0 0 106.000000 119.000000"
 preserveAspectRatio="xMidYMid meet">
<metadata>
Created by potrace 1.16, written by Peter Selinger 2001-2019
</metadata>
<g transform="translate(0.000000,119.000000) scale(0.100000,-0.100000)"
fill="#000000" stroke="none">
<path d="M487 869 c-6 -21 -9 -22 -96 -15 l-91 7 0 -27 0 -26 95 7 95 7 0 -36
0 -36 -95 0 c-88 0 -95 -1 -95 -20 0 -19 7 -20 95 -20 l95 0 0 -35 0 -35 -95
0 c-88 0 -95 -1 -95 -20 0 -19 7 -20 95 -20 90 0 95 -1 95 -21 0 -20 -4 -21
-95 -17 -94 3 -95 3 -95 -21 l0 -23 95 6 95 7 0 -36 0 -35 -95 0 c-88 0 -95
-1 -95 -20 0 -19 7 -20 95 -20 l95 0 0 -54 c0 -30 4 -57 9 -60 9 -6 21 40 21
84 l0 28 120 7 c66 4 120 11 120 15 0 4 -52 10 -116 13 -64 4 -118 8 -120 10
-2 2 -1 18 2 35 l7 32 108 0 c59 0 110 4 113 9 7 10 -75 21 -162 21 -60 0 -63
1 -60 23 3 21 8 22 93 24 50 2 101 6 115 10 23 6 21 7 -15 14 -22 4 -75 8
-117 8 l-78 1 0 34 c0 32 2 34 46 40 26 3 78 6 115 6 110 0 79 17 -44 25 -108
7 -113 8 -111 29 1 11 3 27 3 34 1 8 21 12 65 12 83 0 157 10 150 21 -3 5 -52
9 -110 9 -97 0 -104 1 -104 20 0 29 -46 28 -53 -1z"/>
</g>
</svg>
