<?xml version="1.0" standalone="no"?>
<!DOCTYPE svg PUBLIC "-//W3C//DTD SVG 20010904//EN"
 "http://www.w3.org/TR/2001/REC-SVG-20010904/DTD/svg10.dtd">
<svg version="1.0" xmlns="http://www.w3.org/2000/svg"
 width="177.000000pt" height="119.000000pt" viewBox="0 0 177.000000 119.000000"
 preserveAspectRatio="xMidYMid meet">
<metadata>
Created by potrace 1.16, written by Peter Selinger 2001-2019
</metadata>
<g transform="translate(0.000000,119.000000) scale(0.100000,-0.100000)"
fill="#000000" stroke="none">
<path d="M1055 883 c-170 -14 -364 -62 -460 -111 -71 -37 -150 -36 -225 4 -30
16 -58 30 -62 32 -5 2 -8 -5 -8 -16 0 -14 17 -27 63 -47 85 -39 171 -40 242
-3 49 25 175 71 181 65 2 -1 8 -93 14 -202 6 -110 13 -206 15 -212 10 -28
-103 0 -200 50 -49 26 -72 31 -125 31 -84 0 -183 -38 -188 -72 -4 -27 2 -27
36 -4 76 52 176 61 252 22 150 -77 334 -110 648 -117 148 -4 232 -2 232 4 0 6
-73 13 -177 16 -98 4 -206 10 -240 13 l-63 7 0 252 0 253 86 7 c47 4 87 5 88
3 2 -1 6 -60 9 -130 l6 -127 -52 -3 c-67 -4 -67 -22 0 -26 l51 -3 7 -109 c4
-61 11 -110 16 -110 5 0 9 49 9 109 0 121 0 121 71 121 24 0 38 4 34 10 -3 6
-28 10 -54 10 l-49 0 -7 124 c-4 69 -4 130 0 135 4 7 55 11 136 11 79 0 129 4
129 10 0 9 -315 12 -415 3z m-102 -125 c4 -46 7 -107 7 -135 l0 -53 -65 0 -65
0 0 125 0 124 38 6 c20 4 42 8 47 10 28 10 32 1 38 -77z m11 -230 c3 -13 6
-58 6 -102 l0 -78 -47 7 c-99 14 -93 7 -93 100 l0 84 38 4 c85 9 89 8 96 -15z"/>
<path d="M593 607 c-10 -17 10 -22 80 -18 101 4 106 19 7 23 -45 2 -84 -1 -87
-5z"/>
<path d="M343 588 c3 -9 25 -12 78 -10 107 5 111 22 5 22 -66 0 -87 -3 -83
-12z"/>
</g>
</svg>
