<?xml version="1.0" standalone="no"?>
<!DOCTYPE svg PUBLIC "-//W3C//DTD SVG 20010904//EN"
 "http://www.w3.org/TR/2001/REC-SVG-20010904/DTD/svg10.dtd">
<svg version="1.0" xmlns="http://www.w3.org/2000/svg"
 width="160.000000pt" height="150.000000pt" viewBox="0 0 160.000000 150.000000"
 preserveAspectRatio="xMidYMid meet">
<metadata>
Created by potrace 1.16, written by Peter Selinger 2001-2019
</metadata>
<g transform="translate(0.000000,150.000000) scale(0.100000,-0.100000)"
fill="#000000" stroke="none">
<path d="M476 1151 c-57 -78 -144 -230 -162 -283 -24 -74 -15 -140 34 -242 23
-48 70 -128 104 -178 34 -50 64 -100 65 -111 4 -27 13 -35 13 -13 0 15 3 15
19 -5 29 -35 34 -18 7 22 -23 34 -23 35 -14 224 5 105 11 199 14 211 4 20 10
21 276 28 314 7 468 16 468 26 0 8 -349 20 -583 20 l-160 0 5 175 5 175 -28 0
c-21 0 -35 -11 -63 -49z m34 -166 l0 -135 -50 0 c-47 0 -50 -2 -50 -25 0 -23
3 -25 50 -25 l50 0 0 -192 c-1 -224 3 -222 -86 -43 -69 139 -89 218 -73 277 6
24 20 61 31 83 24 47 118 195 124 195 2 0 4 -61 4 -135z"/>
</g>
</svg>
