<?xml version="1.0" standalone="no"?>
<!DOCTYPE svg PUBLIC "-//W3C//DTD SVG 20010904//EN"
 "http://www.w3.org/TR/2001/REC-SVG-20010904/DTD/svg10.dtd">
<svg version="1.0" xmlns="http://www.w3.org/2000/svg"
 width="177.000000pt" height="119.000000pt" viewBox="0 0 177.000000 119.000000"
 preserveAspectRatio="xMidYMid meet">
<metadata>
Created by potrace 1.16, written by Peter Selinger 2001-2019
</metadata>
<g transform="translate(0.000000,119.000000) scale(0.100000,-0.100000)"
fill="#000000" stroke="none">
<path d="M680 871 c-127 -28 -136 -33 -143 -78 -4 -21 -7 -53 -7 -72 l0 -33
-112 3 -113 4 -3 -75 c-2 -41 0 -86 3 -99 6 -24 6 -24 114 -18 l107 5 19 -71
c11 -40 19 -77 19 -84 -2 -15 6 -17 121 -39 111 -20 234 -15 360 16 50 12 99
23 110 24 17 2 22 15 33 82 7 43 14 79 15 80 1 1 59 4 129 6 l126 3 6 29 c3
16 6 58 6 93 l0 65 -26 -6 c-15 -4 -79 -4 -143 0 l-116 7 -33 70 c-18 38 -35
68 -38 65 -3 -3 -33 3 -67 14 -91 29 -258 33 -367 9z m375 -33 c48 -12 51 -15
72 -70 33 -81 47 -191 38 -301 l-7 -94 -120 -18 c-92 -13 -154 -16 -262 -12
-77 3 -151 9 -163 12 -32 10 -43 72 -50 272 l-6 173 29 11 c16 6 67 19 114 30
97 21 268 20 355 -3z m385 -225 l0 -68 -120 3 -120 3 0 59 0 59 93 4 c50 1
104 4 120 5 27 2 27 2 27 -65z m-920 -14 l0 -72 -67 6 c-38 4 -80 7 -95 7 -27
0 -28 1 -28 60 l0 59 68 4 c37 2 79 4 95 5 l27 2 0 -71z"/>
<path d="M840 745 c0 -36 -3 -65 -6 -65 -3 0 -32 20 -64 45 -63 48 -75 53 -83
31 -4 -9 20 -32 66 -65 l72 -51 -88 0 c-79 0 -88 -2 -85 -17 3 -15 15 -18 81
-18 42 1 77 0 77 -2 0 -1 -28 -21 -62 -44 -35 -23 -65 -44 -67 -46 -3 -2 2
-10 10 -18 12 -12 23 -7 79 35 36 27 66 46 67 42 1 -4 5 -47 9 -97 8 -104 22
-92 24 20 2 114 2 114 98 49 46 -31 85 -54 88 -51 3 3 -25 29 -61 59 l-67 53
85 5 c47 3 88 8 92 11 3 4 -37 10 -90 14 l-96 7 72 56 c39 31 66 58 60 60 -5
2 -44 -19 -85 -47 -41 -28 -78 -51 -81 -51 -3 0 -5 34 -5 75 0 68 -2 75 -20
75 -18 0 -20 -7 -20 -65z"/>
</g>
</svg>
