<?xml version="1.0" standalone="no"?>
<!DOCTYPE svg PUBLIC "-//W3C//DTD SVG 20010904//EN"
 "http://www.w3.org/TR/2001/REC-SVG-20010904/DTD/svg10.dtd">
<svg version="1.0" xmlns="http://www.w3.org/2000/svg"
 width="226.000000pt" height="223.000000pt" viewBox="0 0 226.000000 223.000000"
 preserveAspectRatio="xMidYMid meet">
<metadata>
Created by potrace 1.16, written by Peter Selinger 2001-2019
</metadata>
<g transform="translate(0.000000,223.000000) scale(0.100000,-0.100000)"
fill="#000000" stroke="none">
<path d="M526 1921 c-8 -12 14 -29 128 -105 86 -57 99 -69 101 -96 2 -16 1
-30 -2 -30 -5 0 -107 76 -166 124 -36 29 -51 36 -60 27 -13 -13 -10 -16 126
-107 98 -65 112 -79 105 -108 -2 -11 -35 8 -117 70 -79 58 -117 81 -122 73 -8
-14 23 -38 158 -126 73 -48 83 -58 83 -84 0 -16 -2 -29 -5 -29 -3 0 -58 39
-121 86 -64 47 -118 83 -121 80 -14 -14 14 -39 124 -111 65 -43 120 -79 121
-81 2 -1 2 -10 0 -19 -2 -12 -31 4 -117 69 -77 58 -118 83 -125 76 -12 -12 -5
-18 136 -112 79 -52 110 -78 117 -100 l11 -30 125 66 125 66 1 -33 c1 -49 17
-3 18 52 l1 44 78 -74 c42 -41 97 -87 120 -103 39 -26 45 -28 68 -16 29 16
171 152 199 192 l20 28 60 -50 c33 -28 84 -67 113 -86 28 -19 53 -43 54 -52 4
-41 16 145 17 266 1 104 -2 132 -12 132 -17 0 -114 -67 -185 -128 l-53 -45
-29 34 c-16 19 -29 37 -30 41 0 12 -158 138 -172 138 -19 0 -98 -51 -174 -111
-34 -27 -64 -49 -67 -49 -2 0 -2 12 1 26 4 25 3 26 -23 22 -21 -4 -55 9 -140
53 l-113 60 -16 -32 c-9 -17 -13 -35 -10 -40 15 -24 -24 -2 -115 66 -56 41
-103 75 -105 75 -3 0 -7 -4 -10 -9z m844 -158 c41 -34 92 -79 113 -100 l37
-39 -52 -53 c-29 -30 -83 -79 -121 -109 l-68 -55 -102 102 c-81 79 -105 99
-115 89 -9 -9 -12 -4 -12 26 0 20 4 35 8 32 4 -3 57 37 117 89 61 51 112 90
115 86 3 -4 39 -34 80 -68z m-460 -8 l105 -44 0 -86 0 -85 -115 -50 c-63 -27
-116 -50 -118 -50 -1 0 0 30 3 68 12 147 14 179 14 235 1 31 2 57 4 57 1 0 49
-20 107 -45z m843 -284 c-3 -6 -183 151 -183 159 0 5 39 42 88 84 l87 75 5
-157 c3 -86 4 -159 3 -161z"/>
<path d="M778 1042 c-12 -2 -18 -13 -18 -29 l0 -25 -230 7 -230 8 0 -23 0 -23
230 5 230 4 0 -38 c0 -21 -1 -41 -2 -45 -2 -5 -105 -6 -230 -4 l-228 3 0 -22
0 -23 235 7 235 8 0 -60 0 -59 -235 5 -235 5 0 -23 0 -23 235 7 235 7 0 -47 0
-46 -236 7 -236 7 4 -23 3 -23 170 2 c94 1 198 5 231 8 l62 6 4 -47 3 -47
-237 7 -238 7 0 -23 0 -24 237 6 c231 7 241 8 328 37 144 49 171 50 307 8 65
-19 148 -41 185 -49 37 -8 73 -16 78 -18 20 -6 93 11 146 35 30 13 91 49 137
80 45 31 83 56 86 56 4 0 15 -178 18 -277 l1 -53 66 0 66 0 -5 219 -5 220
-153 101 c-193 128 -244 152 -339 158 -89 6 -225 -12 -340 -43 -68 -19 -90
-21 -121 -13 -45 12 -126 52 -167 82 -16 12 -38 20 -47 18z m150 -122 c38 -15
71 -20 99 -17 l42 4 5 -61 c3 -33 8 -104 11 -157 l5 -96 -62 -1 c-53 -1 -118
-16 -222 -49 -16 -5 -18 -2 -11 35 4 23 7 125 7 226 l1 184 34 -24 c19 -13 60
-33 91 -44z m547 45 c21 -4 51 -13 66 -20 l26 -14 7 -178 c4 -98 10 -180 12
-182 13 -13 16 24 17 173 0 92 2 166 4 166 4 0 298 -166 310 -175 3 -2 -225
-142 -306 -187 -36 -21 -87 -45 -113 -54 -47 -15 -49 -15 -185 25 -76 23 -154
46 -173 53 l-35 11 3 166 c2 91 6 169 10 173 7 6 210 48 236 48 10 0 15 -35
20 -137 10 -226 18 -323 26 -323 11 0 18 230 11 357 -5 97 -4 112 9 109 8 -2
33 -7 55 -11z m439 -347 c3 -46 8 -133 11 -193 l5 -110 -42 3 -43 4 2 171 c2
166 3 172 25 189 13 10 26 18 30 18 3 0 9 -37 12 -82z"/>
<path d="M1234 753 c10 -255 26 -261 26 -10 0 176 -2 197 -16 197 -15 0 -16
-17 -10 -187z"/>
</g>
</svg>
