<?xml version="1.0" standalone="no"?>
<!DOCTYPE svg PUBLIC "-//W3C//DTD SVG 20010904//EN"
 "http://www.w3.org/TR/2001/REC-SVG-20010904/DTD/svg10.dtd">
<svg version="1.0" xmlns="http://www.w3.org/2000/svg"
 width="165.000000pt" height="194.000000pt" viewBox="0 0 165.000000 194.000000"
 preserveAspectRatio="xMidYMid meet">
<metadata>
Created by potrace 1.16, written by Peter Selinger 2001-2019
</metadata>
<g transform="translate(0.000000,194.000000) scale(0.100000,-0.100000)"
fill="#000000" stroke="none">
<path d="M300 1627 c0 -6 23 -59 51 -117 44 -89 64 -117 138 -190 69 -69 103
-95 171 -128 123 -61 192 -76 341 -77 120 0 128 1 184 30 152 78 139 259 -24
330 -39 17 -130 19 -184 4 -34 -9 -70 -2 -335 68 -163 42 -298 81 -300 85 -6
13 -42 9 -42 -5z m291 -91 c123 -30 241 -58 262 -61 46 -9 47 -19 5 -31 -27
-8 -71 0 -242 44 -245 63 -256 67 -256 87 0 8 2 15 4 15 2 0 104 -24 227 -54z
m9 -66 c96 -23 180 -42 185 -44 6 -2 -7 -11 -28 -20 -36 -16 -41 -15 -120 8
-45 14 -113 34 -151 44 -48 13 -74 25 -85 41 -14 22 -14 23 4 18 11 -4 99 -25
195 -47z m77 -89 c9 -5 -7 -17 -47 -36 -33 -16 -60 -33 -60 -39 0 -12 -93 77
-121 115 l-19 27 117 -30 c65 -16 123 -33 130 -37z m511 50 c20 -10 49 -33 64
-49 24 -28 26 -34 16 -69 -16 -60 -46 -101 -96 -130 -61 -36 -189 -43 -313
-19 -86 17 -249 89 -257 114 -5 17 200 114 309 146 107 32 223 35 277 7z"/>
<path d="M396 722 c-3 -5 10 -42 30 -82 88 -185 319 -320 575 -337 72 -5 92
-3 132 15 57 25 133 95 183 168 36 53 37 55 18 69 -72 54 -255 124 -290 111
-29 -11 -12 -22 57 -39 40 -9 107 -33 150 -53 l78 -37 -19 -27 -19 -27 -322 5
c-241 4 -323 2 -328 -7 -6 -8 -24 1 -60 29 -60 47 -114 117 -137 178 -16 39
-36 53 -48 34z m850 -280 c-15 -18 -33 -19 -269 -15 -138 2 -263 7 -277 11
-25 7 165 16 424 20 135 2 139 1 122 -16z m-66 -58 c-11 -13 -38 -15 -169 -13
-204 3 -232 13 -56 19 77 3 162 7 189 8 43 2 47 0 36 -14z m-98 -45 c-22 -7
-43 -7 -60 0 -23 8 -17 9 33 9 55 0 57 -1 27 -9z"/>
<path d="M622 554 c3 -18 15 -19 323 -16 175 1 321 5 324 7 13 14 -33 17 -329
22 -313 6 -322 6 -318 -13z"/>
</g>
</svg>
