<?xml version="1.0" standalone="no"?>
<!DOCTYPE svg PUBLIC "-//W3C//DTD SVG 20010904//EN"
 "http://www.w3.org/TR/2001/REC-SVG-20010904/DTD/svg10.dtd">
<svg version="1.0" xmlns="http://www.w3.org/2000/svg"
 width="207.000000pt" height="164.000000pt" viewBox="0 0 207.000000 164.000000"
 preserveAspectRatio="xMidYMid meet">
<metadata>
Created by potrace 1.16, written by Peter Selinger 2001-2019
</metadata>
<g transform="translate(0.000000,164.000000) scale(0.100000,-0.100000)"
fill="#000000" stroke="none">
<path d="M683 1327 c-13 -7 -60 -47 -106 -89 l-83 -75 -97 5 c-96 5 -97 4 -97
-18 0 -23 1 -23 100 -16 85 6 100 5 100 -8 0 -16 146 -153 185 -173 22 -12 28
-8 112 81 l88 94 78 5 c42 3 75 2 72 -3 -3 -4 27 -36 67 -71 118 -106 100
-105 188 -12 l77 81 194 12 c107 7 198 16 204 21 5 5 -76 9 -202 9 l-211 0
-66 71 c-37 39 -73 69 -81 67 -7 -2 -48 -34 -90 -72 l-77 -69 -86 2 -87 2 -80
85 c-75 79 -81 83 -102 71z m115 -122 c34 -32 62 -61 62 -65 0 -4 -40 -44 -88
-88 l-89 -81 -77 84 -77 85 77 85 78 85 26 -24 c14 -13 53 -49 88 -81z m473
13 c38 -35 68 -70 68 -78 -1 -8 -33 -44 -71 -80 l-70 -65 -63 70 c-47 52 -61
73 -53 82 6 7 7 13 2 13 -5 0 18 27 51 60 33 33 61 60 63 60 2 0 35 -28 73
-62z"/>
<path d="M665 660 c-22 -18 -68 -59 -102 -92 -86 -82 -85 -92 24 -190 112
-102 116 -102 213 7 l75 84 78 1 78 0 57 -53 c31 -29 73 -66 92 -81 l35 -29
75 82 75 81 174 10 c95 5 176 12 179 15 3 3 -75 5 -174 5 l-179 0 -73 80 c-86
93 -75 94 -189 -11 l-74 -69 -76 0 -75 0 -43 48 c-23 26 -63 69 -87 95 l-43
48 -40 -31z m174 -153 c0 -4 -64 -6 -144 -5 -80 2 -145 5 -145 7 0 3 30 37 68
76 l67 71 76 -71 c42 -38 77 -73 78 -78z m431 58 l64 -65 -127 0 -128 0 58 65
c32 36 60 65 63 65 3 0 35 -29 70 -65z m-430 -100 c0 -1 -34 -36 -76 -77 l-76
-74 -69 71 c-38 39 -69 73 -69 76 0 4 290 9 290 4z m426 -61 c-38 -35 -70 -63
-70 -62 -1 2 -28 31 -61 66 l-58 62 129 0 129 -1 -69 -65z"/>
</g>
</svg>
