<?xml version="1.0" standalone="no"?>
<!DOCTYPE svg PUBLIC "-//W3C//DTD SVG 20010904//EN"
 "http://www.w3.org/TR/2001/REC-SVG-20010904/DTD/svg10.dtd">
<svg version="1.0" xmlns="http://www.w3.org/2000/svg"
 width="168.000000pt" height="119.000000pt" viewBox="0 0 168.000000 119.000000"
 preserveAspectRatio="xMidYMid meet">
<metadata>
Created by potrace 1.16, written by Peter Selinger 2001-2019
</metadata>
<g transform="translate(0.000000,119.000000) scale(0.100000,-0.100000)"
fill="#000000" stroke="none">
<path d="M460 875 c0 -8 -6 -12 -13 -9 -9 3 -35 -40 -80 -135 l-67 -140 55
-118 c31 -65 63 -128 71 -141 14 -21 17 -22 27 -8 7 8 53 31 102 50 50 19 127
50 172 70 81 34 83 35 120 19 21 -9 117 -44 213 -79 l175 -63 -387 6 c-357 6
-388 5 -388 -10 0 -16 35 -17 405 -17 263 0 405 3 405 10 0 6 -6 10 -14 10
-10 0 -4 20 22 68 21 37 52 100 70 140 l32 72 -60 126 c-33 69 -58 131 -57
137 3 15 -195 24 -550 26 -216 1 -253 -1 -253 -14z m760 -45 c7 -17 11 -32 9
-34 -2 -1 -42 -15 -89 -31 -106 -35 -290 -102 -311 -114 -11 -6 -39 1 -90 23
-41 18 -119 49 -174 70 -55 21 -104 42 -108 46 -5 4 -4 17 2 29 11 20 19 21
219 22 173 1 451 10 513 17 10 1 22 -10 29 -28z m74 -127 l47 -77 -45 -116
c-24 -63 -47 -127 -51 -142 l-7 -27 -37 16 c-20 8 -110 46 -200 83 l-165 68
-200 -69 c-195 -67 -215 -70 -216 -36 0 5 -18 55 -41 111 l-41 103 44 70 44
71 119 -44 c66 -24 159 -55 208 -70 l87 -27 118 47 c64 25 151 62 192 80 41
19 80 35 86 35 6 1 32 -34 58 -76z"/>
</g>
</svg>
