<?xml version="1.0" standalone="no"?>
<!DOCTYPE svg PUBLIC "-//W3C//DTD SVG 20010904//EN"
 "http://www.w3.org/TR/2001/REC-SVG-20010904/DTD/svg10.dtd">
<svg version="1.0" xmlns="http://www.w3.org/2000/svg"
 width="114.000000pt" height="169.000000pt" viewBox="0 0 114.000000 169.000000"
 preserveAspectRatio="xMidYMid meet">
<metadata>
Created by potrace 1.16, written by Peter Selinger 2001-2019
</metadata>
<g transform="translate(0.000000,169.000000) scale(0.100000,-0.100000)"
fill="#000000" stroke="none">
<path d="M520 1352 c-108 -89 -205 -176 -211 -190 -13 -35 8 -685 22 -676 5 3
30 -15 56 -39 65 -60 175 -147 186 -147 11 0 160 112 216 163 l43 39 5 344 c5
308 4 344 -10 344 -9 0 -35 17 -59 38 -24 20 -76 61 -116 90 -40 30 -72 58
-72 63 0 16 -14 9 -60 -29z m158 -97 c135 -90 146 -107 90 -148 -252 -183
-264 -194 -232 -204 5 -1 66 44 137 102 l127 105 0 -148 c0 -81 2 -217 5 -302
l6 -155 -127 -83 -127 -83 -77 73 c-43 40 -78 75 -78 78 -1 6 214 183 227 188
5 2 39 -33 76 -78 37 -44 71 -80 76 -80 6 0 -16 35 -49 78 -275 363 -382 514
-382 538 0 16 189 205 201 201 3 -1 60 -38 127 -82z m-103 -497 l46 -57 -83
-62 c-46 -34 -101 -77 -124 -95 -40 -33 -41 -34 -59 -14 -16 18 -17 38 -10
268 l7 250 89 -117 c48 -64 109 -142 134 -173z"/>
</g>
</svg>
