<?xml version="1.0" standalone="no"?>
<!DOCTYPE svg PUBLIC "-//W3C//DTD SVG 20010904//EN"
 "http://www.w3.org/TR/2001/REC-SVG-20010904/DTD/svg10.dtd">
<svg version="1.0" xmlns="http://www.w3.org/2000/svg"
 width="215.000000pt" height="119.000000pt" viewBox="0 0 215.000000 119.000000"
 preserveAspectRatio="xMidYMid meet">
<metadata>
Created by potrace 1.16, written by Peter Selinger 2001-2019
</metadata>
<g transform="translate(0.000000,119.000000) scale(0.100000,-0.100000)"
fill="#000000" stroke="none">
<path d="M538 885 c-5 -5 -8 -64 -8 -132 l0 -124 -115 5 c-110 6 -115 5 -115
-14 0 -19 7 -20 120 -20 l120 0 2 -102 c1 -57 1 -119 0 -138 -2 -38 15 -75 25
-52 3 9 65 12 261 12 227 0 691 15 698 23 1 1 6 59 11 127 l8 125 115 6 c63 4
132 7 153 8 23 0 36 5 32 11 -4 6 -65 10 -151 10 l-144 0 0 119 0 118 -87 7
c-143 10 -917 19 -925 11z m835 -277 c3 -134 4 -244 2 -247 -2 -2 -151 0 -330
4 l-325 7 0 43 c0 23 3 76 6 118 6 67 9 77 28 80 21 4 21 5 -2 12 -22 7 -23
11 -20 109 l3 101 200 5 c110 3 252 7 316 8 l116 2 6 -242z m125 135 l-3 -108
-39 2 c-22 2 -40 4 -40 5 -1 2 0 49 2 106 l3 102 40 0 40 0 -3 -107z m-818 -9
l0 -105 -47 3 c-31 2 -48 7 -47 16 1 6 2 53 3 102 l1 90 45 0 45 0 0 -106z
m12 -252 l3 -112 -64 0 -64 0 7 53 c3 28 6 80 6 114 l0 62 48 3 c26 2 50 1 54
-2 3 -3 8 -56 10 -118z m811 51 c4 -38 7 -94 7 -127 0 -56 -1 -58 -22 -52 -13
3 -38 6 -56 6 l-33 0 6 108 c4 59 8 113 10 120 3 7 21 12 43 12 l39 0 6 -67z"/>
</g>
</svg>
