<?xml version="1.0" standalone="no"?>
<!DOCTYPE svg PUBLIC "-//W3C//DTD SVG 20010904//EN"
 "http://www.w3.org/TR/2001/REC-SVG-20010904/DTD/svg10.dtd">
<svg version="1.0" xmlns="http://www.w3.org/2000/svg"
 width="197.000000pt" height="122.000000pt" viewBox="0 0 197.000000 122.000000"
 preserveAspectRatio="xMidYMid meet">
<metadata>
Created by potrace 1.16, written by Peter Selinger 2001-2019
</metadata>
<g transform="translate(0.000000,122.000000) scale(0.100000,-0.100000)"
fill="#000000" stroke="none">
<path d="M540 908 c0 -9 -30 -77 -66 -152 l-66 -136 -54 0 c-41 0 -54 -4 -54
-15 0 -10 16 -15 61 -17 l60 -3 35 -80 c57 -134 88 -195 97 -195 10 0 5 17
-49 160 -24 63 -42 115 -41 116 1 1 52 3 112 5 l110 4 3 -127 3 -128 -61 0
c-54 0 -60 -2 -60 -21 0 -21 1 -21 338 -18 185 2 366 5 401 7 l63 4 42 91 c24
51 51 113 60 138 l18 47 90 7 c49 3 87 9 84 12 -3 3 -40 8 -83 12 l-78 6 -69
141 c-56 116 -73 142 -90 142 -11 0 -198 3 -413 8 -351 6 -393 6 -393 -8z
m694 -295 c3 -152 5 -277 4 -277 -2 -1 -120 0 -264 2 l-260 4 4 261 c2 144 6
264 9 267 3 3 102 8 221 11 119 3 231 6 248 7 l31 2 7 -277z m166 156 c36 -67
66 -128 68 -135 3 -11 -17 -14 -97 -14 l-101 0 0 135 0 135 33 0 c31 0 34 -5
97 -121z m-720 -25 l0 -124 -120 0 c-66 0 -120 3 -120 8 1 4 29 59 64 122 l64
115 48 5 c27 3 52 4 57 2 4 -2 7 -59 7 -128z m727 -284 l-51 -130 -50 0 -49 0
6 123 c4 67 7 125 7 130 0 4 42 7 94 7 l94 0 -51 -130z"/>
</g>
</svg>
