<?xml version="1.0" standalone="no"?>
<!DOCTYPE svg PUBLIC "-//W3C//DTD SVG 20010904//EN"
 "http://www.w3.org/TR/2001/REC-SVG-20010904/DTD/svg10.dtd">
<svg version="1.0" xmlns="http://www.w3.org/2000/svg"
 width="186.000000pt" height="244.000000pt" viewBox="0 0 186.000000 244.000000"
 preserveAspectRatio="xMidYMid meet">
<metadata>
Created by potrace 1.16, written by Peter Selinger 2001-2019
</metadata>
<g transform="translate(0.000000,244.000000) scale(0.100000,-0.100000)"
fill="#000000" stroke="none">
<path d="M460 2132 c-107 -48 -121 -193 -24 -252 32 -20 39 -21 198 -11 135 8
351 41 377 57 4 2 42 -16 85 -40 44 -24 89 -47 101 -51 45 -13 21 11 -52 53
-41 24 -75 47 -75 52 0 4 15 11 33 15 40 8 142 57 107 51 -14 -2 -86 -20 -160
-40 -164 -43 -293 -66 -372 -66 l-59 0 16 30 c19 37 19 103 0 140 -28 55 -119
87 -175 62z"/>
<path d="M441 1559 c-36 -21 -57 -52 -66 -96 -8 -41 23 -115 59 -138 32 -22
106 -31 132 -17 11 6 88 14 172 18 l153 7 29 -28 c18 -17 51 -80 86 -161 31
-73 61 -131 65 -128 4 2 11 -2 16 -10 7 -11 36 -12 173 -5 91 4 184 8 208 8
23 1 42 6 42 11 0 6 -80 10 -219 10 l-218 0 -21 88 c-27 113 -44 154 -88 202
l-36 40 -145 0 c-135 0 -145 1 -137 18 15 36 16 90 0 120 l-16 31 32 5 c18 3
91 7 162 10 116 4 147 9 135 20 -2 2 -113 6 -246 8 -221 5 -245 3 -272 -13z"/>
<path d="M976 1563 c-3 -4 7 -21 24 -38 35 -36 152 -268 154 -305 l1 -25 176
3 176 3 7 -47 c3 -26 6 -66 6 -90 0 -24 5 -44 10 -44 6 0 10 38 10 95 0 60 4
95 11 95 5 0 7 5 4 10 -4 6 -79 10 -193 10 l-187 0 -23 83 c-34 121 -76 202
-120 232 -39 27 -45 29 -56 18z"/>
<path d="M396 690 c-38 -12 -66 -38 -82 -77 -16 -38 -19 -117 -4 -108 6 3 10
0 10 -8 0 -15 44 -59 77 -76 32 -16 74 -14 115 7 27 14 70 21 162 26 l125 7
15 -28 c10 -20 12 -41 7 -70 -12 -64 -8 -67 113 -58 58 4 106 11 106 16 0 5
-6 9 -12 9 -10 0 -12 41 -10 181 3 170 2 181 -15 177 -17 -3 -18 -15 -15 -163
2 -88 6 -168 8 -177 5 -16 -3 -18 -75 -18 l-80 0 6 50 c4 37 2 56 -11 75 -16
25 -19 25 -141 25 -69 0 -125 4 -125 9 0 4 5 22 11 40 14 40 4 93 -22 123
l-21 23 7 -25 c18 -72 17 -107 -5 -151 -28 -54 -34 -59 -88 -59 -37 0 -49 6
-89 43 -43 41 -45 46 -39 82 10 53 51 90 107 99 25 4 54 4 63 0 14 -5 17 -3
14 12 -2 14 -13 19 -43 21 -22 1 -53 -2 -69 -7z"/>
<path d="M556 691 c-3 -4 0 -15 7 -23 10 -13 35 -14 172 -7 179 9 228 16 220
30 -8 11 -392 12 -399 0z"/>
</g>
</svg>
