<?xml version="1.0" standalone="no"?>
<!DOCTYPE svg PUBLIC "-//W3C//DTD SVG 20010904//EN"
 "http://www.w3.org/TR/2001/REC-SVG-20010904/DTD/svg10.dtd">
<svg version="1.0" xmlns="http://www.w3.org/2000/svg"
 width="243.000000pt" height="158.000000pt" viewBox="0 0 243.000000 158.000000"
 preserveAspectRatio="xMidYMid meet">
<metadata>
Created by potrace 1.16, written by Peter Selinger 2001-2019
</metadata>
<g transform="translate(0.000000,158.000000) scale(0.100000,-0.100000)"
fill="#000000" stroke="none">
<path d="M1863 1233 c-42 -62 -82 -153 -123 -278 -18 -55 -39 -105 -47 -111
-33 -28 -5 -137 84 -331 100 -218 83 -215 197 -41 97 148 126 203 146 279 9
32 9 44 0 49 -7 4 -25 74 -41 156 -34 168 -92 313 -126 313 -10 -1 -27 2 -38
6 -16 4 -27 -4 -52 -42z m110 -70 c20 -43 54 -140 76 -215 38 -133 39 -139 26
-189 -8 -28 -33 -91 -56 -141 l-43 -90 -78 3 c-42 2 -80 0 -84 -4 -11 -11 -73
166 -85 244 l-10 67 45 104 c25 56 46 97 46 91 0 -15 87 -17 155 -5 55 10 34
19 -59 26 -43 3 -81 7 -83 10 -11 10 90 176 107 176 4 0 23 -35 43 -77z m-32
-690 c-10 -21 -30 -58 -44 -81 l-25 -44 -26 69 c-14 38 -26 71 -26 75 0 4 30
9 68 11 37 2 68 4 70 5 1 1 -6 -15 -17 -35z"/>
<path d="M1812 943 c2 -14 14 -16 73 -14 39 1 81 5 95 8 22 6 23 7 5 14 -11 4
-55 8 -98 8 -68 1 -78 -1 -75 -16z"/>
<path d="M1812 863 c3 -16 14 -18 83 -16 44 2 87 6 95 10 21 9 -50 22 -123 22
-51 1 -58 -1 -55 -16z"/>
<path d="M1812 773 c3 -16 14 -18 88 -15 47 2 89 7 95 10 16 10 -36 20 -113
21 -65 1 -73 -1 -70 -16z"/>
<path d="M1812 683 c3 -16 13 -17 78 -15 41 2 84 6 95 9 l20 6 -20 8 c-11 4
-55 8 -98 8 -69 1 -78 -1 -75 -16z"/>
<path d="M1814 609 c-15 -24 15 -31 100 -24 47 4 86 10 86 15 0 18 -174 27
-186 9z"/>
<path d="M994 1235 c-4 -9 -13 -14 -20 -11 -27 10 -229 -204 -286 -304 l-23
-39 -167 6 c-202 7 -198 10 -198 -101 0 -115 19 -226 39 -227 57 -2 226 2 281
7 l65 6 20 -38 c38 -72 233 -249 253 -230 3 4 -5 14 -19 23 -39 28 -108 94
-140 134 l-30 38 -6 224 c-5 202 -4 227 12 250 25 39 35 33 35 -20 0 -71 30
-442 40 -493 6 -29 8 68 7 277 -2 320 -2 323 20 344 l22 22 5 -24 c2 -13 14
-172 26 -354 21 -322 31 -398 50 -410 9 -6 117 68 340 234 52 38 104 77 115
86 11 9 57 44 102 78 45 34 82 65 83 68 0 6 -234 188 -420 325 -210 155 -199
148 -206 129z m71 -200 c4 -66 15 -223 25 -350 10 -126 16 -233 13 -238 -5 -9
-120 -87 -127 -87 -4 0 -6 87 -6 193 0 105 -5 284 -10 397 -9 200 -9 205 11
226 l21 23 33 -22 33 -21 7 -121z m101 43 c52 -37 48 -20 67 -308 l14 -215
-35 -31 c-19 -17 -48 -39 -63 -48 l-29 -17 0 228 c0 125 -3 272 -7 326 -3 53
-3 97 1 97 4 0 28 -14 52 -32z m162 -113 c68 -45 67 -40 77 -215 l6 -95 -72
-48 c-39 -26 -73 -46 -75 -45 -6 6 -9 448 -3 446 3 -2 33 -21 67 -43z m-584
-423 c-6 -8 -45 81 -59 135 -20 77 -19 107 8 164 l22 50 16 -173 c9 -95 14
-175 13 -176z m794 280 c28 -19 52 -38 52 -42 0 -5 -36 -31 -80 -59 l-80 -51
0 111 0 111 28 -18 c15 -9 51 -33 80 -52z m-902 -3 l-14 -34 -1 32 c-1 17 5
33 12 36 19 7 19 2 3 -34z m-52 -1 c14 -84 26 -179 26 -197 0 -17 -6 -21 -35
-21 l-35 0 0 48 c0 27 -3 83 -6 125 l-7 77 26 0 c22 0 27 -5 31 -32z m-175
-85 c8 -60 16 -114 18 -120 4 -9 -8 -13 -41 -13 l-46 0 0 120 0 120 28 0 28 0
13 -107z m81 95 c0 -7 7 -58 15 -113 8 -55 15 -103 15 -107 0 -5 -18 -8 -39
-8 l-40 0 -3 120 -3 120 28 0 c15 0 27 -6 27 -12z m174 -215 c6 -19 4 -23 -13
-23 -19 0 -21 6 -20 68 l0 67 13 -45 c7 -25 16 -55 20 -67z"/>
</g>
</svg>
