<?xml version="1.0" standalone="no"?>
<!DOCTYPE svg PUBLIC "-//W3C//DTD SVG 20010904//EN"
 "http://www.w3.org/TR/2001/REC-SVG-20010904/DTD/svg10.dtd">
<svg version="1.0" xmlns="http://www.w3.org/2000/svg"
 width="243.000000pt" height="158.000000pt" viewBox="0 0 243.000000 158.000000"
 preserveAspectRatio="xMidYMid meet">
<metadata>
Created by potrace 1.16, written by Peter Selinger 2001-2019
</metadata>
<g transform="translate(0.000000,158.000000) scale(0.100000,-0.100000)"
fill="#000000" stroke="none">
<path d="M1863 1233 c-42 -62 -82 -153 -123 -278 -18 -55 -39 -105 -47 -111
-33 -28 -5 -137 84 -331 100 -218 83 -215 197 -41 97 148 126 203 146 279 9
32 9 44 0 49 -7 4 -25 74 -41 156 -34 168 -92 313 -126 313 -10 -1 -27 2 -38
6 -16 4 -27 -4 -52 -42z m110 -70 c20 -43 54 -140 76 -215 38 -133 39 -139 26
-189 -8 -28 -33 -91 -56 -141 l-43 -90 -78 3 c-42 2 -80 0 -84 -4 -11 -11 -73
166 -85 244 l-10 67 45 104 c25 56 46 97 46 91 0 -15 87 -17 155 -5 55 10 34
19 -59 26 -43 3 -81 7 -83 10 -11 10 90 176 107 176 4 0 23 -35 43 -77z m-32
-690 c-10 -21 -30 -58 -44 -81 l-25 -44 -26 69 c-14 38 -26 71 -26 75 0 4 30
9 68 11 37 2 68 4 70 5 1 1 -6 -15 -17 -35z"/>
<path d="M1812 943 c2 -14 14 -16 73 -14 39 1 81 5 95 8 22 6 23 7 5 14 -11 4
-55 8 -98 8 -68 1 -78 -1 -75 -16z"/>
<path d="M1812 863 c3 -16 14 -18 83 -16 44 2 87 6 95 10 21 9 -50 22 -123 22
-51 1 -58 -1 -55 -16z"/>
<path d="M1812 773 c3 -16 14 -18 88 -15 47 2 89 7 95 10 16 10 -36 20 -113
21 -65 1 -73 -1 -70 -16z"/>
<path d="M1812 683 c3 -16 13 -17 78 -15 41 2 84 6 95 9 l20 6 -20 8 c-11 4
-55 8 -98 8 -69 1 -78 -1 -75 -16z"/>
<path d="M1814 609 c-15 -24 15 -31 100 -24 47 4 86 10 86 15 0 18 -174 27
-186 9z"/>
<path d="M994 1235 c-4 -10 -13 -14 -22 -10 -21 8 -203 -182 -262 -273 l-45
-70 -167 5 c-202 7 -198 9 -198 -101 0 -115 19 -226 39 -227 58 -2 227 2 281
7 63 6 66 5 77 -18 21 -46 112 -145 180 -197 37 -28 71 -51 76 -51 16 0 6 16
-22 35 -16 10 -27 23 -25 27 3 5 28 24 56 43 40 26 55 32 70 24 26 -14 23 -21
-27 -52 -38 -25 -43 -31 -35 -48 6 -10 13 -19 17 -19 3 0 27 16 53 35 31 23
54 33 65 29 12 -5 16 -2 13 9 -2 11 31 41 97 89 194 141 404 303 402 310 -3
10 -191 156 -381 297 -250 185 -235 175 -242 156z m96 -105 c0 -3 -13 -13 -29
-23 -28 -16 -29 -16 -69 15 l-42 32 21 22 21 23 49 -32 c27 -18 49 -34 49 -37z
m-130 -32 c17 -12 30 -25 30 -29 0 -13 -71 -49 -83 -43 -7 4 -20 14 -30 22
-16 15 -16 17 10 44 32 34 36 34 73 6z m201 -15 c21 -16 39 -30 39 -33 0 -3
-14 -14 -30 -23 -30 -18 -30 -18 -75 14 l-44 32 22 18 c30 25 42 24 88 -8z
m-97 -66 l38 -33 -39 -26 -39 -26 -40 34 c-32 28 -36 36 -24 43 8 5 24 17 35
25 26 20 24 21 69 -17z m206 -13 c27 -20 50 -37 50 -39 0 -2 -16 -13 -35 -25
l-36 -22 -45 37 -46 38 29 23 c15 13 29 23 30 24 2 0 25 -16 53 -36z m-411 10
l24 -17 -24 -18 c-29 -23 -43 -24 -59 -4 -10 13 -10 19 5 35 22 24 24 24 54 4z
m93 -73 l37 -28 -29 -22 -30 -22 -40 32 -40 32 27 19 c35 22 31 23 75 -11z
m258 -42 c0 -8 -67 -49 -78 -49 -4 1 -24 15 -45 33 l-38 33 37 26 37 27 44
-31 c23 -17 43 -35 43 -39z m-432 42 c11 -6 7 -13 -15 -28 -51 -36 -55 -36
-31 1 25 39 27 40 46 27z m607 -13 c19 -13 35 -25 35 -28 0 -3 -18 -15 -40
-28 -43 -24 -59 -22 -93 16 -17 19 -17 20 10 41 36 26 46 26 88 -1z m-529 -44
c19 -15 34 -29 34 -33 0 -3 -16 -16 -35 -29 -38 -24 -54 -21 -88 16 -18 19
-17 20 15 46 18 14 34 26 36 26 2 0 19 -12 38 -26z m206 -25 l40 -32 -31 -20
c-29 -18 -33 -18 -54 -3 -41 29 -61 46 -56 49 13 11 54 37 57 37 2 0 22 -14
44 -31z m443 -15 c20 -15 20 -15 -5 -34 -58 -44 -66 -45 -104 -14 -19 16 -35
32 -35 36 -1 4 16 18 36 32 39 27 46 26 108 -20z m-228 12 l35 -24 -41 -26
c-22 -14 -44 -26 -48 -26 -5 1 -21 12 -38 26 -25 20 -27 26 -15 34 8 5 24 16
35 24 27 20 30 20 72 -8z m-638 -35 c-13 -38 -6 -118 16 -181 8 -24 14 -44 13
-45 -2 -1 -76 0 -165 3 l-163 4 0 118 0 117 153 9 c83 5 153 9 155 8 1 0 -3
-15 -9 -33z m124 -29 c18 -20 18 -21 -19 -46 -36 -24 -39 -25 -57 -9 -14 14
-17 25 -12 53 4 19 9 38 11 42 7 10 54 -15 77 -40z m234 -26 c-2 -5 -19 -20
-38 -32 l-35 -22 -38 32 -38 32 38 26 39 25 37 -26 c21 -14 36 -30 35 -35z
m573 34 l25 -20 -25 -20 c-14 -10 -37 -25 -53 -31 -23 -10 -31 -9 -47 6 -19
17 -19 18 23 51 23 18 44 33 47 33 3 0 16 -8 30 -19z m-382 -38 c1 -5 -13 -17
-32 -27 l-35 -19 -26 24 -26 25 27 22 c28 22 29 22 59 3 16 -10 31 -23 33 -28z
m191 19 l34 -28 -39 -27 c-21 -14 -43 -26 -49 -26 -6 0 -26 13 -45 30 -29 25
-32 31 -20 39 8 5 24 17 35 25 28 22 45 19 84 -13z m-522 -58 l35 -27 -34 -28
c-18 -15 -37 -27 -43 -27 -5 0 -25 12 -44 28 l-34 28 39 27 c21 14 40 26 42
26 2 0 19 -12 39 -27z m208 1 c14 -9 25 -20 25 -24 0 -4 -17 -19 -38 -33 l-39
-25 -29 24 c-24 20 -26 25 -14 33 8 5 24 17 35 25 25 20 30 19 60 0z m195 -10
c22 -15 40 -28 40 -30 0 -2 -16 -14 -36 -28 l-37 -25 -38 31 -39 31 33 23 c17
13 33 23 35 24 1 0 20 -12 42 -26z m214 -3 c3 -5 -5 -16 -19 -25 -78 -50 -70
-48 -89 -27 -16 18 -15 20 25 49 41 31 66 31 83 3z m-718 -110 c-29 -17 -30
-20 -17 -40 7 -11 14 -10 40 8 31 22 40 21 74 -7 16 -14 15 -17 -22 -39 -27
-16 -38 -29 -34 -38 8 -21 24 -19 63 10 42 31 44 31 86 -1 l34 -27 -50 -35
c-27 -19 -50 -40 -50 -45 0 -18 -59 44 -107 111 -43 60 -92 161 -93 190 0 8
23 -5 51 -29 l51 -42 -26 -16z m424 39 l25 -20 -25 -20 c-57 -44 -66 -45 -104
-13 l-34 31 42 29 c43 32 49 31 96 -7z m-200 -14 c0 -2 -18 -15 -40 -30 -39
-26 -41 -26 -65 -9 -13 10 -25 21 -25 25 0 4 16 18 37 32 l36 25 29 -20 c15
-11 28 -22 28 -23z m375 20 c17 -13 16 -15 -24 -41 -39 -26 -43 -27 -58 -12
-9 9 -15 18 -12 20 70 54 67 53 94 33z m-296 -75 l34 -28 -45 -31 -45 -31 -37
31 -37 31 43 28 c24 16 45 29 48 29 3 0 20 -13 39 -29z m209 6 c8 -9 -2 -20
-38 -44 -42 -28 -50 -30 -66 -18 -18 14 -18 14 1 29 11 8 29 21 40 30 24 19
49 20 63 3z m-118 -72 c14 -17 14 -17 -40 -57 -30 -22 -39 -24 -53 -13 -24 17
-22 20 26 54 49 35 51 36 67 16z"/>
</g>
</svg>
