<?xml version="1.0" standalone="no"?>
<!DOCTYPE svg PUBLIC "-//W3C//DTD SVG 20010904//EN"
 "http://www.w3.org/TR/2001/REC-SVG-20010904/DTD/svg10.dtd">
<svg version="1.0" xmlns="http://www.w3.org/2000/svg"
 width="243.000000pt" height="158.000000pt" viewBox="0 0 243.000000 158.000000"
 preserveAspectRatio="xMidYMid meet">
<metadata>
Created by potrace 1.16, written by Peter Selinger 2001-2019
</metadata>
<g transform="translate(0.000000,158.000000) scale(0.100000,-0.100000)"
fill="#000000" stroke="none">
<path d="M1863 1233 c-42 -62 -82 -153 -123 -278 -18 -55 -39 -105 -47 -111
-33 -28 -5 -137 84 -331 100 -218 83 -215 197 -41 97 148 126 203 146 279 9
32 9 44 0 49 -7 4 -25 74 -41 156 -34 168 -92 313 -126 313 -10 -1 -27 2 -38
6 -16 4 -27 -4 -52 -42z m110 -70 c20 -43 54 -140 76 -215 38 -133 39 -139 26
-189 -8 -28 -33 -91 -56 -141 l-43 -90 -78 3 c-42 2 -80 0 -84 -4 -11 -11 -73
166 -85 244 l-10 67 45 104 c25 56 46 97 46 91 0 -15 87 -17 155 -5 55 10 34
19 -59 26 -43 3 -81 7 -83 10 -11 10 90 176 107 176 4 0 23 -35 43 -77z m-32
-690 c-10 -21 -30 -58 -44 -81 l-25 -44 -26 69 c-14 38 -26 71 -26 75 0 4 30
9 68 11 37 2 68 4 70 5 1 1 -6 -15 -17 -35z"/>
<path d="M1812 943 c2 -14 14 -16 73 -14 39 1 81 5 95 8 22 6 23 7 5 14 -11 4
-55 8 -98 8 -68 1 -78 -1 -75 -16z"/>
<path d="M1812 863 c3 -16 14 -18 83 -16 44 2 87 6 95 10 21 9 -50 22 -123 22
-51 1 -58 -1 -55 -16z"/>
<path d="M1812 773 c3 -16 14 -18 88 -15 47 2 89 7 95 10 16 10 -36 20 -113
21 -65 1 -73 -1 -70 -16z"/>
<path d="M1812 683 c3 -16 13 -17 78 -15 41 2 84 6 95 9 l20 6 -20 8 c-11 4
-55 8 -98 8 -69 1 -78 -1 -75 -16z"/>
<path d="M1814 609 c-15 -24 15 -31 100 -24 47 4 86 10 86 15 0 18 -174 27
-186 9z"/>
<path d="M994 1235 c-4 -10 -13 -14 -22 -10 -21 8 -203 -182 -262 -273 l-45
-70 -167 5 c-202 7 -198 9 -198 -101 0 -115 19 -226 39 -227 54 -2 226 2 281
6 l65 6 35 -57 c49 -79 219 -229 238 -210 3 4 -5 14 -19 23 -91 64 -203 204
-239 299 -33 91 -36 154 -10 211 38 79 103 162 207 265 l98 97 100 -71 c55
-39 188 -132 295 -205 107 -74 196 -138 198 -142 2 -5 -34 -32 -80 -61 -46
-29 -153 -100 -238 -159 -85 -59 -161 -111 -167 -115 -10 -5 -13 12 -13 77 l0
84 110 8 c73 4 108 10 104 17 -5 7 -42 9 -110 5 l-104 -6 0 103 0 103 110 8
c62 4 108 11 104 16 -3 5 -48 6 -106 2 -117 -7 -118 -7 -118 85 0 48 -3 62
-15 62 -12 0 -15 -15 -15 -75 l0 -75 -75 0 -75 0 0 75 c0 60 -3 75 -15 75 -12
0 -15 -15 -15 -75 l0 -75 -65 0 c-51 0 -65 -3 -65 -15 0 -12 14 -15 65 -15
l65 0 0 -54 c0 -29 3 -74 6 -100 l7 -47 -69 2 c-58 2 -70 0 -72 -14 -3 -15 6
-17 67 -17 l71 0 1 -42 c0 -24 4 -63 8 -88 8 -40 9 -35 10 41 l1 86 77 6 c43
3 79 5 80 3 2 -1 6 -43 11 -93 l8 -90 -58 -38 c-50 -32 -56 -40 -47 -56 5 -10
12 -19 16 -19 14 0 632 460 633 471 0 6 -234 188 -420 325 -210 155 -199 148
-206 129z m-355 -414 c-13 -38 -6 -118 16 -181 8 -24 14 -44 13 -45 -2 -1 -76
0 -165 3 l-163 4 0 118 0 117 153 9 c83 5 153 9 155 8 1 0 -3 -15 -9 -33z
m420 -139 l1 -53 -77 3 -78 3 -3 97 -3 97 73 3 73 3 7 -50 c3 -27 6 -74 7
-103z"/>
</g>
</svg>
