<?xml version="1.0" standalone="no"?>
<!DOCTYPE svg PUBLIC "-//W3C//DTD SVG 20010904//EN"
 "http://www.w3.org/TR/2001/REC-SVG-20010904/DTD/svg10.dtd">
<svg version="1.0" xmlns="http://www.w3.org/2000/svg"
 width="165.000000pt" height="140.000000pt" viewBox="0 0 165.000000 140.000000"
 preserveAspectRatio="xMidYMid meet">
<metadata>
Created by potrace 1.16, written by Peter Selinger 2001-2019
</metadata>
<g transform="translate(0.000000,140.000000) scale(0.100000,-0.100000)"
fill="#000000" stroke="none">
<path d="M636 1092 c-3 -2 -2 -65 1 -139 l6 -135 -169 3 -169 4 -3 -80 c-1
-44 1 -98 6 -120 l8 -40 167 4 167 3 0 -108 c0 -125 8 -184 24 -183 6 0 112
60 236 133 l225 132 7 -109 c4 -60 9 -111 10 -112 2 -2 40 -1 84 2 l82 6 6 36
c3 20 6 92 6 162 0 83 4 129 12 137 6 6 10 13 7 16 -6 5 -324 191 -509 297
-152 87 -191 104 -204 91z m302 -190 c19 -13 22 -22 21 -86 0 -59 -2 -68 -12
-52 -76 120 -182 222 -218 211 -21 -7 -21 -9 -18 -276 3 -233 6 -269 19 -269
24 0 138 71 186 116 l44 40 0 -40 0 -41 -142 -82 c-78 -46 -143 -82 -144 -80
-2 1 0 159 3 350 l6 347 116 -62 c64 -33 126 -68 139 -76z m-141 -208 l6 -209
-32 -18 c-18 -11 -34 -17 -35 -15 -2 1 -1 115 2 251 l5 249 24 -25 c24 -23 25
-28 30 -233z m119 70 c24 -34 44 -72 44 -86 0 -34 -50 -108 -98 -147 l-42 -33
0 188 0 187 26 -24 c14 -13 46 -52 70 -85z m105 96 c17 -10 19 -23 19 -164 l0
-153 -25 -11 c-14 -7 -28 -12 -30 -12 -5 0 -4 270 2 313 5 41 6 41 34 27z m89
-50 l40 -20 0 -80 c0 -47 4 -80 10 -80 6 0 10 30 10 70 0 41 4 70 10 70 13 0
153 -70 149 -75 -2 -1 -64 -33 -136 -69 l-133 -66 0 135 c0 74 2 135 5 135 3
0 24 -9 45 -20z m-679 -32 c0 -13 2 -53 5 -90 5 -68 5 -68 -20 -68 -29 0 -31
10 -20 119 5 41 11 61 20 61 8 0 14 -10 15 -22z m79 -68 l0 -90 -27 0 -28 0 3
77 c3 95 6 103 32 103 19 0 20 -6 20 -90z m130 -5 l0 -95 -56 0 -57 0 7 53 c3
28 6 71 6 95 l0 42 50 0 50 0 0 -95z m-270 0 c0 -78 -2 -85 -20 -85 -18 0 -20
7 -20 63 0 76 8 107 26 107 11 0 14 -19 14 -85z m939 -238 l1 -98 -72 3 c-51
2 -73 7 -72 16 1 6 2 54 3 105 l1 93 63 36 62 36 7 -47 c3 -25 7 -90 7 -144z"/>
</g>
</svg>
