<?xml version="1.0" standalone="no"?>
<!DOCTYPE svg PUBLIC "-//W3C//DTD SVG 20010904//EN"
 "http://www.w3.org/TR/2001/REC-SVG-20010904/DTD/svg10.dtd">
<svg version="1.0" xmlns="http://www.w3.org/2000/svg"
 width="243.000000pt" height="158.000000pt" viewBox="0 0 243.000000 158.000000"
 preserveAspectRatio="xMidYMid meet">
<metadata>
Created by potrace 1.16, written by Peter Selinger 2001-2019
</metadata>
<g transform="translate(0.000000,158.000000) scale(0.100000,-0.100000)"
fill="#000000" stroke="none">
<path d="M1863 1233 c-42 -62 -82 -153 -123 -278 -18 -55 -39 -105 -47 -111
-33 -28 -5 -137 84 -331 100 -218 83 -215 197 -41 97 148 126 203 146 279 9
32 9 44 0 49 -7 4 -25 74 -41 156 -34 168 -92 313 -126 313 -10 -1 -27 2 -38
6 -16 4 -27 -4 -52 -42z m110 -70 c20 -43 54 -140 76 -215 38 -133 39 -139 26
-189 -8 -28 -33 -91 -56 -141 l-43 -90 -78 3 c-42 2 -80 0 -84 -4 -11 -11 -73
166 -85 244 l-10 67 45 104 c25 56 46 97 46 91 0 -15 87 -17 155 -5 55 10 34
19 -59 26 -43 3 -81 7 -83 10 -11 10 90 176 107 176 4 0 23 -35 43 -77z m-32
-690 c-10 -21 -30 -58 -44 -81 l-25 -44 -26 69 c-14 38 -26 71 -26 75 0 4 30
9 68 11 37 2 68 4 70 5 1 1 -6 -15 -17 -35z"/>
<path d="M1812 943 c2 -14 14 -16 73 -14 39 1 81 5 95 8 22 6 23 7 5 14 -11 4
-55 8 -98 8 -68 1 -78 -1 -75 -16z"/>
<path d="M1812 863 c3 -16 14 -18 83 -16 44 2 87 6 95 10 21 9 -50 22 -123 22
-51 1 -58 -1 -55 -16z"/>
<path d="M1812 773 c3 -16 14 -18 88 -15 47 2 89 7 95 10 16 10 -36 20 -113
21 -65 1 -73 -1 -70 -16z"/>
<path d="M1812 683 c3 -16 13 -17 78 -15 41 2 84 6 95 9 l20 6 -20 8 c-11 4
-55 8 -98 8 -69 1 -78 -1 -75 -16z"/>
<path d="M1814 609 c-15 -24 15 -31 100 -24 47 4 86 10 86 15 0 18 -174 27
-186 9z"/>
<path d="M994 1235 c-4 -10 -13 -14 -22 -10 -21 8 -203 -182 -262 -273 l-45
-70 -167 5 c-202 7 -198 9 -198 -101 0 -115 19 -226 39 -227 54 -2 226 2 281
6 l65 6 35 -57 c49 -79 219 -229 238 -210 3 4 -5 14 -19 23 -52 37 -124 111
-170 177 -55 78 -86 153 -95 231 -6 48 -3 62 25 117 43 87 124 190 129 164 4
-18 13 -19 218 -12 l215 7 162 -111 c89 -61 162 -115 162 -120 0 -4 -79 -61
-175 -125 l-175 -117 -212 7 -213 6 0 -22 0 -22 195 6 c107 4 195 5 195 3 0
-3 -51 -39 -112 -82 -140 -96 -131 -87 -114 -109 13 -18 24 -11 197 116 239
174 448 333 449 340 0 6 -234 188 -420 325 -210 155 -199 148 -206 129z m166
-153 l75 -54 -155 6 c-85 3 -175 5 -200 6 l-45 0 79 79 79 80 46 -32 c25 -17
80 -55 121 -85z m-521 -261 c-13 -38 -6 -118 16 -181 8 -24 14 -44 13 -45 -2
-1 -76 0 -165 3 l-163 4 0 118 0 117 153 9 c83 5 153 9 155 8 1 0 -3 -15 -9
-33z"/>
<path d="M810 910 l0 -23 223 7 c208 7 237 10 226 20 -2 2 -104 7 -226 11
l-223 8 0 -23z"/>
<path d="M810 790 l0 -23 223 8 c208 6 237 9 226 19 -2 2 -104 7 -226 11
l-223 8 0 -23z"/>
<path d="M810 675 c0 -13 26 -15 173 -15 94 0 197 3 227 7 98 12 19 21 -197
22 -174 1 -203 -1 -203 -14z"/>
</g>
</svg>
