<?xml version="1.0" standalone="no"?>
<!DOCTYPE svg PUBLIC "-//W3C//DTD SVG 20010904//EN"
 "http://www.w3.org/TR/2001/REC-SVG-20010904/DTD/svg10.dtd">
<svg version="1.0" xmlns="http://www.w3.org/2000/svg"
 width="190.000000pt" height="122.000000pt" viewBox="0 0 190.000000 122.000000"
 preserveAspectRatio="xMidYMid meet">
<metadata>
Created by potrace 1.16, written by Peter Selinger 2001-2019
</metadata>
<g transform="translate(0.000000,122.000000) scale(0.100000,-0.100000)"
fill="#000000" stroke="none">
<path d="M375 910 c-13 -21 -47 -129 -60 -193 -45 -208 6 -335 150 -380 164
-52 507 -51 960 4 94 12 172 23 174 25 13 12 -20 12 -174 -3 -104 -9 -285 -16
-465 -17 -323 -1 -407 7 -498 50 -120 58 -141 206 -61 428 22 61 26 82 16 88
-17 11 -35 10 -42 -2z"/>
</g>
</svg>
