<?xml version="1.0" standalone="no"?>
<!DOCTYPE svg PUBLIC "-//W3C//DTD SVG 20010904//EN"
 "http://www.w3.org/TR/2001/REC-SVG-20010904/DTD/svg10.dtd">
<svg version="1.0" xmlns="http://www.w3.org/2000/svg"
 width="163.000000pt" height="237.000000pt" viewBox="0 0 163.000000 237.000000"
 preserveAspectRatio="xMidYMid meet">
<metadata>
Created by potrace 1.16, written by Peter Selinger 2001-2019
</metadata>
<g transform="translate(0.000000,237.000000) scale(0.100000,-0.100000)"
fill="#000000" stroke="none">
<path d="M639 2013 c-30 -32 -71 -77 -91 -100 l-37 -42 -103 -3 -103 -3 0
-208 c0 -174 2 -209 15 -217 8 -5 11 -10 7 -10 -13 0 12 -31 91 -115 41 -42
76 -75 78 -72 3 3 -31 47 -75 98 -43 52 -74 96 -68 98 6 2 53 -39 103 -92 50
-54 94 -97 98 -97 10 0 -76 108 -114 145 -36 34 -38 45 -7 45 16 0 49 -29 112
-99 50 -55 91 -96 93 -90 2 5 -30 48 -72 96 -69 82 -73 88 -51 91 23 3 83 -52
178 -163 14 -16 28 -27 32 -24 3 4 -22 39 -57 79 -104 119 -103 110 -12 111
44 1 126 3 184 5 l105 4 7 82 c3 46 6 129 7 186 l1 102 93 0 c119 0 258 11
252 20 -2 4 -114 10 -248 13 -135 4 -252 9 -261 13 -12 5 0 25 60 96 42 49 74
91 71 94 -2 3 -44 -38 -92 -91 -72 -77 -93 -95 -117 -95 -27 0 -26 3 51 92 44
51 77 95 74 98 -3 3 -46 -39 -97 -93 -70 -76 -96 -98 -113 -95 -19 3 -13 13
54 91 41 48 73 90 70 94 -5 5 -92 -83 -152 -154 -15 -18 -36 -33 -48 -33 -19
0 -17 4 14 38 62 65 132 152 127 157 -3 3 -29 -21 -59 -52z m284 -355 c3 -101
4 -184 3 -186 -2 -1 -138 0 -303 4 -267 6 -300 9 -297 23 3 16 14 251 14 303
l0 28 193 2 c105 2 235 4 288 6 l96 3 6 -183z"/>
<path d="M980 1755 c0 -13 23 -15 153 -14 169 0 231 12 128 22 -35 4 -113 7
-172 7 -90 0 -109 -3 -109 -15z"/>
<path d="M980 1665 c0 -13 20 -15 123 -15 67 0 147 3 177 7 49 6 52 8 25 14
-16 4 -96 7 -177 8 -125 1 -148 -1 -148 -14z"/>
<path d="M970 1583 c0 -15 15 -15 163 -10 89 4 165 7 170 7 4 0 7 5 7 10 0 6
-63 10 -170 10 -151 0 -170 -2 -170 -17z"/>
<path d="M967 1493 c-20 -19 7 -23 151 -22 179 1 240 12 118 22 -102 9 -261 9
-269 0z"/>
<path d="M311 931 c-12 -8 -13 -42 -7 -206 4 -108 10 -203 13 -212 3 -8 14
-13 23 -10 10 2 17 -1 16 -8 -1 -14 164 -198 172 -191 5 6 -50 76 -116 148
-27 29 -39 49 -32 53 11 7 41 -22 149 -138 82 -89 73 -59 -13 42 -42 49 -76
92 -76 95 0 3 14 6 31 6 16 0 28 -3 26 -7 -6 -10 169 -200 177 -192 3 3 -30
46 -74 97 -44 50 -80 94 -80 97 0 3 11 5 25 5 17 0 38 -15 67 -47 155 -172
208 -207 68 -45 l-80 92 127 2 c71 1 149 3 175 3 57 0 54 -9 64 218 l7 157
146 1 c80 1 157 5 171 9 14 4 23 9 20 9 -3 1 -156 8 -340 16 -384 16 -639 19
-659 6z m621 -208 c2 -104 3 -188 3 -188 0 0 -118 2 -262 5 -144 3 -263 7
-266 10 -2 3 -2 83 1 177 l5 173 211 3 c116 1 232 3 258 5 l47 2 3 -187z
m-552 43 c0 -73 3 -153 6 -178 l6 -45 -29 4 -30 5 4 161 c5 180 6 187 28 187
13 0 15 -20 15 -134z"/>
<path d="M985 830 c-3 -5 -4 -14 -1 -18 6 -11 328 -3 339 7 4 5 -50 11 -120
14 -174 9 -211 9 -218 -3z"/>
<path d="M990 735 c0 -13 25 -15 164 -15 91 0 167 4 170 9 6 10 -123 21 -246
21 -72 0 -88 -3 -88 -15z"/>
<path d="M970 655 c0 -13 22 -15 138 -14 75 0 155 3 177 8 l40 7 -55 7 c-30 4
-110 7 -177 7 -103 0 -123 -2 -123 -15z"/>
<path d="M975 561 c-4 -7 -3 -17 2 -22 11 -11 333 1 333 13 0 4 -24 8 -52 8
-29 0 -103 3 -164 6 -83 5 -113 4 -119 -5z"/>
</g>
</svg>
