<?xml version="1.0" standalone="no"?>
<!DOCTYPE svg PUBLIC "-//W3C//DTD SVG 20010904//EN"
 "http://www.w3.org/TR/2001/REC-SVG-20010904/DTD/svg10.dtd">
<svg version="1.0" xmlns="http://www.w3.org/2000/svg"
 width="98.000000pt" height="310.000000pt" viewBox="0 0 98.000000 310.000000"
 preserveAspectRatio="xMidYMid meet">
<metadata>
Created by potrace 1.16, written by Peter Selinger 2001-2019
</metadata>
<g transform="translate(0.000000,310.000000) scale(0.100000,-0.100000)"
fill="#000000" stroke="none">
<path d="M367 2793 c-17 -16 -3 -31 55 -58 34 -16 88 -49 120 -72 93 -69 111
-129 59 -199 -40 -53 -169 -162 -208 -175 -27 -9 -33 -16 -33 -40 0 -78 62
-146 192 -207 46 -22 93 -43 106 -47 45 -13 19 11 -56 53 -141 78 -212 143
-212 194 0 10 26 35 63 59 87 59 166 127 188 163 40 66 17 149 -60 217 -70 62
-198 129 -214 112z"/>
<path d="M489 1336 c-101 -83 -200 -219 -182 -250 31 -54 144 -169 218 -220
18 -13 15 -18 -57 -86 -43 -39 -95 -98 -118 -132 -42 -64 -49 -81 -27 -72 8 3
25 -12 41 -35 41 -59 133 -143 215 -196 72 -47 110 -55 55 -13 -74 58 -184
161 -214 200 -18 24 -42 51 -52 60 -18 17 -17 20 57 96 41 44 93 92 115 107
22 15 40 33 40 39 0 6 -41 52 -91 101 -50 50 -106 111 -125 137 l-36 48 69 75
c37 42 92 94 121 117 49 38 63 60 44 72 -5 3 -38 -19 -73 -48z"/>
</g>
</svg>
