<?xml version="1.0" standalone="no"?>
<!DOCTYPE svg PUBLIC "-//W3C//DTD SVG 20010904//EN"
 "http://www.w3.org/TR/2001/REC-SVG-20010904/DTD/svg10.dtd">
<svg version="1.0" xmlns="http://www.w3.org/2000/svg"
 width="169.000000pt" height="260.000000pt" viewBox="0 0 169.000000 260.000000"
 preserveAspectRatio="xMidYMid meet">
<metadata>
Created by potrace 1.16, written by Peter Selinger 2001-2019
</metadata>
<g transform="translate(0.000000,260.000000) scale(0.100000,-0.100000)"
fill="#000000" stroke="none">
<path d="M1080 2288 c-14 -7 -51 -27 -83 -46 l-59 -35 -114 7 c-113 7 -114 7
-114 -15 0 -22 1 -22 102 -15 l102 6 -26 -27 c-38 -41 -58 -87 -58 -131 0 -66
58 -130 209 -231 59 -41 63 -45 57 -74 -4 -17 -19 -44 -34 -60 -29 -30 -149
-110 -219 -146 -24 -12 -43 -26 -43 -31 0 -12 15 -7 128 47 139 65 202 132
202 211 0 24 -6 32 -36 43 -78 31 -234 192 -234 243 0 64 69 130 208 200 61
31 72 39 62 52 -14 16 -17 16 -50 2z"/>
<path d="M1300 560 c-46 -56 -112 -122 -145 -147 -33 -26 -63 -51 -66 -56 -8
-11 -172 144 -199 188 -11 18 -27 32 -36 31 -8 -1 -61 -47 -117 -103 -56 -55
-117 -110 -135 -122 l-33 -23 -74 66 c-57 52 -134 135 -162 175 -1 2 -9 1 -18
-3 -22 -8 -8 -32 71 -115 60 -64 176 -151 202 -151 34 0 188 148 249 239 1 2
35 -31 75 -74 86 -93 219 -186 202 -142 -2 7 10 21 27 31 53 31 154 137 203
214 26 40 46 77 44 82 -2 6 -41 -35 -88 -90z"/>
</g>
</svg>
