<?xml version="1.0" standalone="no"?>
<!DOCTYPE svg PUBLIC "-//W3C//DTD SVG 20010904//EN"
 "http://www.w3.org/TR/2001/REC-SVG-20010904/DTD/svg10.dtd">
<svg version="1.0" xmlns="http://www.w3.org/2000/svg"
 width="168.000000pt" height="117.000000pt" viewBox="0 0 168.000000 117.000000"
 preserveAspectRatio="xMidYMid meet">
<metadata>
Created by potrace 1.16, written by Peter Selinger 2001-2019
</metadata>
<g transform="translate(0.000000,117.000000) scale(0.100000,-0.100000)"
fill="#000000" stroke="none">
<path d="M443 828 c-15 -24 -46 -82 -70 -130 -24 -48 -51 -91 -60 -96 -19 -11
-8 -32 103 -205 55 -84 66 -96 81 -87 10 5 127 35 261 65 134 31 318 74 409
96 91 22 173 37 183 34 14 -4 19 2 24 32 3 21 6 57 6 79 l0 42 -62 16 c-35 10
-76 19 -91 21 -56 9 -142 35 -145 44 -2 5 -11 7 -20 5 -9 -3 -144 25 -300 61
-156 36 -285 65 -287 65 -3 0 -17 -19 -32 -42z m62 -24 c0 -5 6 -24 14 -42 13
-30 12 -35 -14 -74 l-28 -42 -23 45 c-19 37 -21 47 -10 64 7 11 18 30 25 43
12 22 36 26 36 6z m69 -15 c-8 -13 -21 -11 -27 5 -4 10 0 12 14 9 10 -3 16 -9
13 -14z m108 -31 c31 -40 32 -63 2 -107 -15 -23 -31 -38 -35 -34 -4 4 -24 36
-43 71 -30 54 -34 66 -23 83 16 27 74 19 99 -13z m63 3 c3 -5 1 -12 -4 -15 -5
-3 -11 1 -15 9 -6 16 9 21 19 6z m117 -35 c-35 -55 -58 -86 -64 -86 -4 0 -17
18 -28 40 -15 30 -18 45 -11 59 9 16 16 17 60 8 34 -6 48 -13 43 -21z m68 -63
l33 -58 -34 -62 c-18 -35 -36 -63 -39 -63 -8 0 -70 109 -70 122 0 18 64 127
71 122 4 -2 22 -30 39 -61z m98 42 c5 -5 -31 -65 -38 -65 -3 0 -16 19 -28 41
l-24 41 44 -7 c23 -4 45 -9 46 -10z m-434 -64 c20 -32 36 -62 36 -65 0 -3 -13
-27 -29 -52 l-28 -46 -38 67 -37 67 24 44 c12 24 26 44 29 44 3 0 23 -27 43
-59z m532 8 l33 -45 -33 -50 c-18 -27 -31 -55 -29 -61 3 -7 -1 -13 -9 -13 -7
0 -28 28 -47 63 l-34 63 28 48 c17 29 33 46 43 44 9 -2 30 -24 48 -49z m-681
-21 c4 -10 -6 -40 -21 -69 l-28 -51 -18 22 c-31 39 -31 63 -1 113 l28 47 17
-22 c10 -13 20 -31 23 -40z m308 14 l25 -38 -33 -52 -33 -52 -21 35 -21 35 27
55 c15 30 28 55 29 55 1 0 13 -17 27 -38z m457 30 c0 -5 -8 -16 -18 -26 -18
-15 -19 -15 -30 9 -11 24 -10 25 18 25 17 0 30 -4 30 -8z m111 -18 c19 -5 29
-33 29 -85 0 -36 -1 -37 -50 -46 l-51 -10 -26 45 c-26 44 -26 45 -8 78 17 32
21 34 54 28 20 -3 43 -8 52 -10z m-815 -117 c11 -17 28 -44 37 -58 16 -24 16
-27 -13 -73 -38 -59 -55 -57 -90 8 l-27 48 29 54 c16 30 33 54 36 54 4 0 16
-15 28 -33z m335 -28 c22 -33 39 -62 37 -63 -1 -2 -30 -8 -63 -15 -33 -6 -71
-14 -84 -18 -18 -4 -22 -3 -19 8 3 8 14 12 24 11 15 -3 16 -1 7 9 -10 10 -6
25 20 71 17 32 33 58 34 58 1 0 21 -27 44 -61z m367 32 l21 -29 -47 -11 c-26
-5 -48 -8 -50 -7 -5 5 39 76 47 76 4 0 17 -13 29 -29z m-185 -18 c15 -21 23
-40 19 -44 -4 -4 -31 -10 -60 -14 l-53 -7 25 51 c15 28 30 51 35 51 4 0 20
-17 34 -37z m-343 -13 l21 -29 -23 -41 c-17 -29 -33 -43 -58 -50 -55 -15 -63
-14 -49 11 9 17 13 19 20 8 4 -7 11 -10 15 -6 4 3 2 12 -4 19 -8 10 -3 27 19
66 17 28 32 52 34 52 2 0 13 -13 25 -30z"/>
</g>
</svg>
