<?xml version="1.0" standalone="no"?>
<!DOCTYPE svg PUBLIC "-//W3C//DTD SVG 20010904//EN"
 "http://www.w3.org/TR/2001/REC-SVG-20010904/DTD/svg10.dtd">
<svg version="1.0" xmlns="http://www.w3.org/2000/svg"
 width="152.000000pt" height="94.000000pt" viewBox="0 0 152.000000 94.000000"
 preserveAspectRatio="xMidYMid meet">
<metadata>
Created by potrace 1.16, written by Peter Selinger 2001-2019
</metadata>
<g transform="translate(0.000000,94.000000) scale(0.100000,-0.100000)"
fill="#000000" stroke="none">
<path d="M660 629 c-96 -3 -217 -7 -267 -8 l-93 -1 0 -31 c0 -17 13 -49 30
-74 17 -24 30 -47 30 -52 0 -4 -14 -28 -30 -53 -16 -25 -30 -57 -30 -72 0 -26
0 -27 88 -30 128 -6 720 -7 700 -1 -10 2 -18 7 -18 10 0 4 66 119 76 132 10
12 43 -49 44 -79 1 -19 5 -44 9 -55 7 -16 9 -14 14 14 9 42 9 274 1 295 -5 14
-31 16 -193 14 -102 -1 -265 -5 -361 -9z m530 -30 c0 -18 -9 -47 -21 -66 l-21
-34 -34 53 c-18 29 -34 56 -34 60 0 4 21 9 48 11 26 2 50 4 55 5 4 1 7 -12 7
-29z m-180 5 c0 -7 -60 -94 -65 -94 -2 0 -15 19 -29 43 l-26 42 23 7 c28 8 97
10 97 2z m74 -59 c25 -36 46 -68 46 -71 0 -14 -82 -124 -89 -119 -5 2 -25 32
-45 65 l-36 61 38 65 c20 35 38 64 39 64 1 0 22 -29 47 -65z m-270 43 c-4 -7
-21 -32 -37 -55 l-30 -42 -28 45 c-16 24 -29 47 -29 49 0 2 26 6 58 8 31 2 61
4 65 5 5 1 5 -4 1 -10z m70 -43 c20 -30 36 -60 36 -65 0 -6 -19 -38 -41 -72
-33 -48 -38 -62 -28 -69 8 -5 9 -9 3 -9 -12 0 -87 117 -87 135 0 10 71 135 77
135 2 0 20 -25 40 -55z m-390 -21 l37 -56 -38 -59 -38 -60 -50 5 c-27 3 -53 6
-58 6 -9 0 19 56 33 65 6 3 22 -7 36 -24 39 -47 47 -37 14 15 -16 26 -26 52
-23 58 4 6 17 28 30 49 30 47 14 48 -25 1 l-29 -35 -22 36 c-11 20 -21 38 -21
40 0 2 24 6 53 8 28 2 55 4 58 5 3 1 23 -23 43 -54z m96 16 c-17 -22 -33 -40
-35 -40 -5 0 -45 66 -45 74 0 3 25 6 56 6 l56 0 -32 -40z m100 -15 c19 -30 34
-58 34 -62 -3 -13 -68 -113 -74 -113 -7 1 -70 106 -70 118 0 13 61 112 69 112
3 0 22 -25 41 -55z m498 -67 l-3 -23 -13 22 c-10 18 -10 27 0 43 l13 21 3 -21
c2 -11 2 -30 0 -42z m-198 -67 c22 -33 40 -62 40 -65 0 -8 -110 -6 -137 2 -22
7 -21 8 13 65 20 31 37 57 39 57 3 0 22 -27 45 -59z m-380 -23 l20 -26 -62 5
c-35 3 -64 6 -65 7 -1 1 10 20 25 44 l27 42 18 -23 c10 -12 26 -34 37 -49z
m166 30 c16 -24 33 -49 37 -56 7 -11 -3 -12 -55 -6 -35 4 -64 8 -66 9 -2 2 50
94 54 95 1 0 14 -19 30 -42z"/>
</g>
</svg>
