<?xml version="1.0" standalone="no"?>
<!DOCTYPE svg PUBLIC "-//W3C//DTD SVG 20010904//EN"
 "http://www.w3.org/TR/2001/REC-SVG-20010904/DTD/svg10.dtd">
<svg version="1.0" xmlns="http://www.w3.org/2000/svg"
 width="197.000000pt" height="163.000000pt" viewBox="0 0 197.000000 163.000000"
 preserveAspectRatio="xMidYMid meet">
<metadata>
Created by potrace 1.16, written by Peter Selinger 2001-2019
</metadata>
<g transform="translate(0.000000,163.000000) scale(0.100000,-0.100000)"
fill="#000000" stroke="none">
<path d="M1134 1228 c-55 -57 -125 -131 -155 -165 -31 -35 -58 -63 -62 -63 -3
0 -13 20 -22 45 -27 69 -36 72 -102 35 -88 -50 -282 -183 -341 -235 -29 -26
-74 -77 -100 -113 -43 -60 -47 -72 -47 -122 1 -104 92 -251 180 -291 59 -27
173 -25 271 5 92 28 588 250 754 338 128 67 125 66 118 73 -4 5 -86 -30 -618
-262 -107 -47 -201 -87 -207 -90 -7 -3 -13 -11 -13 -18 0 -16 -55 -25 -161
-25 -113 0 -157 22 -216 108 -44 64 -60 106 -69 182 -6 42 -3 48 36 93 23 26
76 75 118 109 84 69 319 228 336 228 10 0 86 -156 151 -308 29 -69 38 -76 33
-25 l-3 42 150 57 c82 32 201 79 264 106 63 27 118 45 121 41 4 -4 18 -39 30
-78 47 -145 104 -255 85 -162 -11 51 -78 271 -86 281 -4 4 -20 1 -36 -8 -15
-8 -113 -47 -218 -85 -104 -38 -199 -72 -209 -77 -18 -7 -18 -6 -5 13 8 11 35
44 61 74 26 30 66 78 88 107 23 28 46 52 51 52 5 0 9 6 9 14 0 7 11 25 25 40
l25 27 -47 61 c-27 33 -54 69 -62 79 -7 10 -17 19 -20 19 -4 0 -52 -46 -107
-102z m194 -76 l-23 -23 -42 48 c-59 68 -69 88 -53 108 12 14 21 9 77 -46 l63
-63 -22 -24z m-90 17 l52 -56 -24 -22 -23 -22 -51 62 c-49 60 -50 63 -35 86 9
13 19 20 23 16 3 -4 30 -33 58 -64z m-26 -137 c-8 -12 -18 -21 -22 -20 -4 2
-29 29 -55 61 -45 55 -46 59 -30 77 16 18 19 17 70 -38 50 -54 52 -58 37 -80z
m-88 12 l49 -56 -24 -23 -24 -24 -48 60 c-46 58 -48 62 -31 80 9 10 20 19 24
19 3 0 28 -25 54 -56z m-59 -70 l48 -55 -42 -43 c-22 -23 -41 -47 -41 -53 0
-6 -6 -13 -14 -16 -9 -4 -24 16 -45 62 -17 37 -31 72 -31 77 0 12 59 84 70 84
4 0 29 -25 55 -56z"/>
<path d="M600 880 c-13 -8 -8 -23 29 -97 24 -48 67 -130 97 -180 l53 -93 -41
-11 c-194 -52 -257 -27 -334 133 -28 60 -34 67 -43 51 -18 -35 70 -185 133
-225 39 -24 123 -20 217 13 35 12 70 22 77 22 8 0 10 8 6 21 -7 23 -164 356
-173 368 -4 4 -13 3 -21 -2z"/>
</g>
</svg>
