<?xml version="1.0" standalone="no"?>
<!DOCTYPE svg PUBLIC "-//W3C//DTD SVG 20010904//EN"
 "http://www.w3.org/TR/2001/REC-SVG-20010904/DTD/svg10.dtd">
<svg version="1.0" xmlns="http://www.w3.org/2000/svg"
 width="147.000000pt" height="122.000000pt" viewBox="0 0 147.000000 122.000000"
 preserveAspectRatio="xMidYMid meet">
<metadata>
Created by potrace 1.16, written by Peter Selinger 2001-2019
</metadata>
<g transform="translate(0.000000,122.000000) scale(0.100000,-0.100000)"
fill="#000000" stroke="none">
<path d="M1031 913 c-24 -5 -24 -5 -18 -109 l7 -104 -43 0 c-23 0 -159 7 -302
15 -358 20 -375 20 -375 -5 0 -18 7 -20 84 -20 46 0 98 -3 115 -6 29 -6 31 -9
31 -50 l0 -43 -112 2 c-106 2 -113 1 -113 -17 0 -18 7 -19 70 -17 39 1 89 4
112 7 47 7 47 6 58 -87 l6 -57 -88 -6 c-143 -11 -163 -15 -163 -37 0 -10 4
-19 9 -19 26 0 375 41 426 50 97 17 269 51 286 56 14 4 17 -7 20 -75 2 -44 7
-82 11 -86 9 -10 103 20 101 31 -1 6 -5 84 -8 175 -4 90 -9 167 -12 172 -2 4
-24 7 -49 7 l-44 0 0 99 c0 97 0 99 25 103 14 3 25 1 25 -6 0 -6 3 -45 6 -86
10 -119 25 -110 23 13 l-1 107 -32 -1 c-17 -1 -42 -4 -55 -6z m82 -320 c3 -49
4 -89 3 -91 -2 -1 -21 -4 -42 -7 -21 -2 -79 -11 -129 -19 -49 -9 -154 -24
-231 -34 l-142 -18 -6 44 c-3 25 -6 82 -6 128 l0 84 274 0 273 0 6 -87z m12
-250 c-1 -2 -16 -6 -34 -9 l-32 -7 3 74 c3 69 5 74 28 79 25 6 25 5 30 -64 3
-39 5 -72 5 -73z"/>
</g>
</svg>
