<?xml version="1.0" standalone="no"?>
<!DOCTYPE svg PUBLIC "-//W3C//DTD SVG 20010904//EN"
 "http://www.w3.org/TR/2001/REC-SVG-20010904/DTD/svg10.dtd">
<svg version="1.0" xmlns="http://www.w3.org/2000/svg"
 width="193.000000pt" height="117.000000pt" viewBox="0 0 193.000000 117.000000"
 preserveAspectRatio="xMidYMid meet">
<metadata>
Created by potrace 1.16, written by Peter Selinger 2001-2019
</metadata>
<g transform="translate(0.000000,117.000000) scale(0.100000,-0.100000)"
fill="#000000" stroke="none">
<path d="M542 861 c-11 -6 -13 -37 -10 -131 l3 -123 -117 5 -118 5 0 -28 c0
-16 3 -28 8 -28 4 1 58 1 120 0 l112 -1 0 -130 c0 -102 3 -130 13 -130 18 0
149 134 220 224 l28 36 367 0 367 -1 -40 -34 c-32 -27 -37 -37 -27 -47 10 -10
24 -1 71 46 33 32 63 56 69 52 5 -3 10 5 10 18 0 15 -5 23 -13 20 -7 -3 -27
12 -45 33 -45 51 -89 83 -106 76 -21 -8 -17 -16 13 -35 l27 -16 -39 -11 c-125
-33 -379 -61 -545 -60 l-105 0 -53 67 c-59 74 -180 202 -190 202 -4 0 -13 -4
-20 -9z m58 -101 c1 -14 2 -53 1 -87 -1 -49 -4 -63 -16 -63 -12 0 -15 18 -15
102 0 89 2 100 14 88 8 -8 15 -26 16 -40z m58 -93 c2 -42 -1 -67 -8 -67 -5 0
-10 23 -11 53 0 28 -2 60 -4 70 -2 10 2 16 8 14 7 -2 13 -31 15 -70z m68 -37
c0 -23 -4 -30 -18 -30 -15 0 -18 8 -18 47 0 45 1 46 18 30 9 -10 17 -31 18
-47z m815 -1 c22 -17 37 -35 33 -40 -3 -5 -99 -9 -217 -8 l-212 0 169 35 c94
19 172 37 175 39 8 8 12 6 52 -26z m-766 -19 c3 -5 1 -10 -4 -10 -6 0 -11 5
-11 10 0 6 2 10 4 10 3 0 8 -4 11 -10z m-165 -133 c0 -77 -2 -85 -26 -108
l-27 -24 7 34 c3 18 6 67 6 107 0 67 2 74 20 74 18 0 20 -7 20 -83z m50 24 c0
-42 -5 -62 -17 -72 -15 -13 -16 -10 -10 35 4 27 7 59 7 72 0 13 5 24 10 24 6
0 10 -26 10 -59z m70 37 c0 -20 -26 -58 -39 -58 -4 0 -5 18 -3 40 3 31 8 40
23 40 13 0 19 -7 19 -22z"/>
</g>
</svg>
