<?xml version="1.0" standalone="no"?>
<!DOCTYPE svg PUBLIC "-//W3C//DTD SVG 20010904//EN"
 "http://www.w3.org/TR/2001/REC-SVG-20010904/DTD/svg10.dtd">
<svg version="1.0" xmlns="http://www.w3.org/2000/svg"
 width="94.000000pt" height="133.000000pt" viewBox="0 0 94.000000 133.000000"
 preserveAspectRatio="xMidYMid meet">
<metadata>
Created by potrace 1.16, written by Peter Selinger 2001-2019
</metadata>
<g transform="translate(0.000000,133.000000) scale(0.100000,-0.100000)"
fill="#000000" stroke="none">
<path d="M300 833 c1 -208 15 -521 25 -531 8 -8 173 106 233 163 30 27 60 62
68 77 28 54 12 136 -37 190 -13 14 -35 47 -49 73 -45 86 -172 217 -215 222
l-25 4 0 -198z m130 66 l21 -29 -60 0 -61 0 0 61 0 61 40 -32 c22 -17 49 -45
60 -61z m93 -116 c62 -81 79 -119 79 -174 0 -56 -26 -104 -76 -143 -31 -23
-44 -26 -115 -26 -74 0 -81 2 -81 20 0 16 7 20 34 20 61 0 156 13 156 21 0 5
-42 10 -92 11 l-93 3 -3 28 c-3 26 -2 27 46 27 68 0 142 11 142 21 0 5 -42 10
-92 11 l-93 3 -3 28 c-3 27 -3 27 61 27 36 0 79 3 97 6 54 11 13 24 -77 24
l-83 0 0 30 c0 30 0 30 58 30 74 0 133 10 126 21 -3 5 -45 9 -95 9 -87 0 -89
1 -89 23 0 34 6 37 81 37 l68 0 44 -57z m-103 -403 c-19 -16 -47 -36 -62 -45
l-28 -16 0 45 0 46 63 0 62 -1 -35 -29z"/>
</g>
</svg>
