<?xml version="1.0" standalone="no"?>
<!DOCTYPE svg PUBLIC "-//W3C//DTD SVG 20010904//EN"
 "http://www.w3.org/TR/2001/REC-SVG-20010904/DTD/svg10.dtd">
<svg version="1.0" xmlns="http://www.w3.org/2000/svg"
 width="94.000000pt" height="133.000000pt" viewBox="0 0 94.000000 133.000000"
 preserveAspectRatio="xMidYMid meet">
<metadata>
Created by potrace 1.16, written by Peter Selinger 2001-2019
</metadata>
<g transform="translate(0.000000,133.000000) scale(0.100000,-0.100000)"
fill="#000000" stroke="none">
<path d="M300 837 c0 -192 16 -526 25 -535 6 -6 96 53 198 130 86 66 117 113
117 180 0 44 -15 81 -45 114 -9 11 -39 53 -65 95 -63 97 -167 204 -203 207
l-27 2 0 -193z m137 56 c66 -78 113 -139 113 -148 0 -5 -159 -2 -217 5 -2 0
-3 54 -3 121 l0 120 29 -20 c16 -12 51 -47 78 -78z m163 -236 c25 -80 -8 -142
-129 -237 -46 -36 -96 -73 -112 -83 l-29 -19 0 101 0 101 93 1 c50 1 106 4
122 8 28 6 27 7 -19 14 -27 4 -82 7 -123 7 -66 0 -74 2 -71 18 3 15 18 17 116
20 61 1 112 7 112 12 0 5 -51 11 -112 12 -98 3 -113 5 -116 21 -3 15 5 17 71
17 41 0 96 3 123 7 46 7 47 8 19 14 -16 4 -72 7 -122 8 -85 1 -93 3 -93 21 0
18 8 20 118 22 130 3 129 4 152 -65z"/>
</g>
</svg>
