<?xml version="1.0" standalone="no"?>
<!DOCTYPE svg PUBLIC "-//W3C//DTD SVG 20010904//EN"
 "http://www.w3.org/TR/2001/REC-SVG-20010904/DTD/svg10.dtd">
<svg version="1.0" xmlns="http://www.w3.org/2000/svg"
 width="180.000000pt" height="123.000000pt" viewBox="0 0 180.000000 123.000000"
 preserveAspectRatio="xMidYMid meet">
<metadata>
Created by potrace 1.16, written by Peter Selinger 2001-2019
</metadata>
<g transform="translate(0.000000,123.000000) scale(0.100000,-0.100000)"
fill="#000000" stroke="none">
<path d="M1255 920 c-4 -6 0 -22 9 -35 l16 -24 -491 6 -491 6 5 -259 c3 -142
8 -270 13 -283 l7 -24 401 6 c221 4 429 10 464 13 53 6 62 5 62 -10 0 -51 56
10 210 231 l43 62 -18 28 c-40 63 -210 293 -217 293 -4 0 -10 -5 -13 -10z m86
-131 l43 -52 -354 6 c-195 4 -356 7 -357 7 -2 0 -1 15 1 33 l3 32 64 3 c35 2
156 6 269 10 113 4 224 8 246 10 39 2 44 -1 85 -49z m-701 -4 l0 -35 -150 0
-150 0 0 35 0 35 150 0 150 0 0 -35z m794 -110 c52 -61 53 -76 8 -116 l-27
-25 -372 4 -373 4 0 28 0 28 318 6 c507 11 549 23 85 25 l-403 1 0 39 0 40
108 3 c59 2 215 5 347 6 131 2 241 5 244 7 10 10 19 3 65 -50z m-794 -5 l0
-40 -119 0 c-65 0 -133 3 -150 6 -27 6 -31 10 -31 40 l0 34 150 0 150 0 0 -40z
m0 -100 l0 -30 -156 0 c-138 0 -155 2 -150 16 3 9 6 22 6 30 0 11 27 14 150
14 l150 0 0 -30z m740 -90 l-32 -40 -157 0 c-87 0 -240 3 -339 7 l-182 6 0 28
0 29 283 3 c155 1 322 3 370 5 l89 2 -32 -40z m-733 -2 l2 -28 -160 0 -159 0
0 24 c0 30 4 31 180 31 l134 0 3 -27z m656 -95 l-28 -36 -224 6 c-123 4 -260
7 -303 7 -76 0 -78 1 -78 25 l0 24 123 4 c67 1 216 4 330 5 l208 2 -28 -37z
m-653 2 l0 -25 -160 0 -160 0 0 25 0 25 160 0 160 0 0 -25z"/>
</g>
</svg>
