<?xml version="1.0" standalone="no"?>
<!DOCTYPE svg PUBLIC "-//W3C//DTD SVG 20010904//EN"
 "http://www.w3.org/TR/2001/REC-SVG-20010904/DTD/svg10.dtd">
<svg version="1.0" xmlns="http://www.w3.org/2000/svg"
 width="222.000000pt" height="143.000000pt" viewBox="0 0 222.000000 143.000000"
 preserveAspectRatio="xMidYMid meet">
<metadata>
Created by potrace 1.16, written by Peter Selinger 2001-2019
</metadata>
<g transform="translate(0.000000,143.000000) scale(0.100000,-0.100000)"
fill="#000000" stroke="none">
<path d="M696 1114 c-3 -9 -6 -51 -6 -94 l0 -78 -42 -14 c-188 -63 -325 -113
-336 -123 -12 -11 -8 -28 22 -101 36 -87 56 -122 56 -94 0 10 3 9 13 -3 11
-16 23 -13 146 33 73 27 140 51 148 52 10 2 20 -15 32 -52 41 -130 97 -182
254 -234 157 -53 510 -68 764 -33 67 9 124 17 127 17 3 0 6 -20 6 -45 0 -25 4
-45 9 -45 9 0 18 69 28 223 6 95 6 97 -16 97 -12 0 -24 -7 -27 -15 -7 -17 -23
-22 -303 -86 -204 -47 -411 -79 -513 -79 -71 0 -174 45 -229 100 -42 43 -79
117 -79 159 0 12 66 41 233 104 128 48 238 87 244 87 16 0 28 21 17 29 -5 3
-20 42 -32 86 -13 44 -27 84 -31 88 -5 5 -48 -5 -97 -22 -120 -41 -341 -111
-348 -111 -3 0 -6 38 -6 85 0 66 -3 85 -14 85 -8 0 -17 -7 -20 -16z m489 -127
c22 -53 30 -80 22 -82 -112 -41 -462 -144 -468 -138 -8 8 -15 140 -8 147 9 8
405 155 412 153 4 -1 23 -37 42 -80z m-486 -194 l1 -51 -42 -16 c-24 -9 -93
-33 -155 -55 l-112 -39 -21 70 c-12 39 -20 71 -18 73 2 2 77 30 168 63 l165
60 6 -26 c4 -15 7 -50 8 -79z m1169 -305 l-3 -83 -65 -8 c-93 -12 -472 -14
-555 -3 l-70 9 99 13 c120 16 219 41 418 103 84 27 159 49 166 50 10 1 12 -19
10 -81z"/>
</g>
</svg>
