<?xml version="1.0" standalone="no"?>
<!DOCTYPE svg PUBLIC "-//W3C//DTD SVG 20010904//EN"
 "http://www.w3.org/TR/2001/REC-SVG-20010904/DTD/svg10.dtd">
<svg version="1.0" xmlns="http://www.w3.org/2000/svg"
 width="109.000000pt" height="144.000000pt" viewBox="0 0 109.000000 144.000000"
 preserveAspectRatio="xMidYMid meet">
<metadata>
Created by potrace 1.16, written by Peter Selinger 2001-2019
</metadata>
<g transform="translate(0.000000,144.000000) scale(0.100000,-0.100000)"
fill="#000000" stroke="none">
<path d="M330 1125 c0 -8 -7 -15 -15 -15 -13 0 -15 -37 -15 -272 0 -303 9
-528 21 -528 4 0 10 10 12 22 4 20 4 19 6 -4 l1 -28 138 1 c75 0 167 3 205 8
37 4 67 3 67 -1 0 -4 5 -8 10 -8 6 0 10 56 10 148 0 93 4 152 11 159 6 6 7 13
2 16 -4 3 -6 34 -3 69 3 34 4 141 2 236 -3 162 -4 172 -22 172 -12 0 -17 5
-14 13 6 18 -94 27 -283 27 -112 0 -133 -2 -133 -15z m337 -120 l-62 -104 -81
-1 -81 0 -42 93 c-23 50 -41 95 -41 99 0 4 55 9 123 11 67 1 150 4 184 5 l62
2 -62 -105z m66 -12 c-1 -49 -2 -91 -2 -95 -1 -9 -47 -10 -78 -2 -21 6 -20 8
25 95 26 49 49 89 52 89 3 0 4 -39 3 -87z m-354 -30 l31 -63 -35 0 -35 0 0 67
c0 36 2 64 4 62 2 -2 18 -32 35 -66z m356 -149 l0 -56 -59 6 c-32 3 -72 6 -88
6 l-29 0 27 50 27 50 61 0 61 0 0 -56z m-285 6 c11 -21 20 -42 20 -45 0 -3
-29 -5 -65 -5 l-65 0 0 45 0 45 45 0 c42 0 46 -2 65 -40z m107 -2 c-14 -23
-29 -44 -35 -46 -9 -3 -52 65 -52 83 0 3 25 5 56 5 l56 0 -25 -42z m183 -133
l0 -55 -78 0 -78 0 -22 45 c-12 25 -22 47 -22 50 0 4 66 10 148 13 l52 2 0
-55z m-240 38 c0 -3 -11 -26 -25 -49 -25 -43 -26 -43 -73 -39 -26 2 -50 4 -54
5 -5 0 -8 20 -8 45 l0 45 80 0 c44 0 80 -3 80 -7z m38 -58 c16 -35 16 -35 -18
-35 -16 0 -30 2 -30 5 0 11 24 55 30 55 4 0 12 -11 18 -25z m87 -155 c28 -47
63 -106 78 -132 l28 -48 -188 7 c-103 3 -189 6 -190 7 0 1 24 56 54 123 59
130 57 128 133 128 33 0 37 -4 85 -85z m119 -36 c3 -70 5 -128 3 -130 -4 -5
-137 235 -137 247 0 5 29 9 63 9 l64 0 7 -126z m-362 16 l-47 -100 -3 47 c-2
27 -1 72 3 101 l6 52 44 0 43 0 -46 -100z"/>
</g>
</svg>
