<?xml version="1.0" standalone="no"?>
<!DOCTYPE svg PUBLIC "-//W3C//DTD SVG 20010904//EN"
 "http://www.w3.org/TR/2001/REC-SVG-20010904/DTD/svg10.dtd">
<svg version="1.0" xmlns="http://www.w3.org/2000/svg"
 width="165.000000pt" height="192.000000pt" viewBox="0 0 165.000000 192.000000"
 preserveAspectRatio="xMidYMid meet">
<metadata>
Created by potrace 1.16, written by Peter Selinger 2001-2019
</metadata>
<g transform="translate(0.000000,192.000000) scale(0.100000,-0.100000)"
fill="#000000" stroke="none">
<path d="M790 1616 c0 -2 16 -20 35 -39 29 -29 35 -42 35 -77 0 -23 -8 -58
-17 -78 -28 -61 -159 -183 -278 -259 -60 -39 -124 -85 -142 -102 -73 -72 -123
-313 -123 -590 0 -116 5 -128 68 -161 36 -18 35 -7 -3 30 -32 31 -35 39 -35
89 l1 56 17 -35 c9 -19 19 -53 22 -75 11 -82 25 -32 32 112 11 217 40 369 86
441 l15 24 23 -30 c29 -37 109 -71 199 -86 l70 -12 42 -61 c22 -34 56 -98 74
-142 22 -55 38 -81 49 -81 9 0 50 28 91 62 201 169 229 193 229 200 0 5 -8 3
-19 -4 -16 -10 -27 -3 -82 49 l-63 61 26 59 c14 32 28 70 32 84 5 22 13 27 48
32 55 7 98 52 98 101 0 18 7 39 15 46 24 20 18 53 -15 82 l-30 26 -112 -58
c-112 -58 -141 -68 -248 -90 -30 -6 -76 -21 -101 -33 l-45 -22 48 59 c56 70
83 142 73 195 -3 20 -6 57 -5 84 0 28 -6 59 -15 75 -21 35 -95 88 -95 68z m75
-283 c-20 -67 -90 -161 -158 -212 -30 -23 -57 -41 -60 -41 -4 0 -7 20 -7 44 0
39 4 48 33 67 62 44 135 111 168 155 18 24 34 42 36 41 1 -2 -4 -26 -12 -54z
m443 -81 c-2 -9 -22 -27 -46 -40 -50 -28 -55 -44 -10 -31 40 11 46 5 27 -29
-10 -18 -30 -32 -59 -41 -70 -21 -71 -22 -91 -100 -22 -88 -51 -128 -111 -159
-52 -26 -87 -27 -151 -8 -32 10 -47 11 -47 3 0 -17 -60 43 -91 92 -19 29 -29
58 -29 83 0 33 4 39 33 52 18 7 53 26 77 41 27 17 78 34 138 47 95 19 141 38
247 102 56 33 60 34 87 20 18 -9 28 -22 26 -32z m-694 -136 c3 -13 8 -31 11
-38 4 -10 -13 -25 -53 -46 -33 -18 -65 -39 -72 -47 -7 -8 -16 -15 -20 -15 -10
0 -33 56 -29 69 4 10 136 98 150 100 4 1 10 -10 13 -23z m56 -88 c0 -46 22
-100 56 -138 l35 -39 -73 21 c-85 23 -134 51 -143 79 -8 24 -10 22 56 64 66
40 69 41 69 13z m-229 -132 c-11 -28 -26 -73 -34 -101 l-13 -50 -13 53 c-14
56 -7 104 25 181 l15 35 20 -33 20 -33 -20 -52z m725 -67 l64 -51 -108 -81
c-59 -44 -121 -89 -139 -99 l-31 -19 -16 53 c-8 29 -33 82 -55 118 -21 36 -38
66 -37 67 1 2 18 -2 37 -7 69 -20 110 -13 164 29 28 22 52 40 54 40 2 1 32
-22 67 -50z m-781 -176 l-8 -48 -18 57 c-11 35 -16 71 -12 93 l6 37 20 -46
c15 -36 18 -56 12 -93z m-7 -143 c-2 -27 -6 -46 -10 -42 -11 12 -37 110 -33
129 2 10 4 23 5 28 0 6 10 -7 21 -28 14 -26 19 -52 17 -87z"/>
<path d="M874 1074 c-72 -35 -78 -117 -10 -129 18 -4 42 -5 51 -3 28 5 57 52
62 102 l6 46 -39 0 c-22 0 -53 -7 -70 -16z m86 -9 c0 -22 -36 -84 -53 -92 -20
-9 -67 -1 -67 11 0 22 30 61 55 72 30 13 65 18 65 9z"/>
</g>
</svg>
