<?xml version="1.0" standalone="no"?>
<!DOCTYPE svg PUBLIC "-//W3C//DTD SVG 20010904//EN"
 "http://www.w3.org/TR/2001/REC-SVG-20010904/DTD/svg10.dtd">
<svg version="1.0" xmlns="http://www.w3.org/2000/svg"
 width="105.000000pt" height="144.000000pt" viewBox="0 0 105.000000 144.000000"
 preserveAspectRatio="xMidYMid meet">
<metadata>
Created by potrace 1.16, written by Peter Selinger 2001-2019
</metadata>
<g transform="translate(0.000000,144.000000) scale(0.100000,-0.100000)"
fill="#000000" stroke="none">
<path d="M381 1121 c-88 -33 -82 1 -79 -405 l3 -361 50 -25 c42 -21 64 -25
140 -25 76 1 101 5 161 29 l72 29 5 61 c4 34 9 187 13 342 l7 280 -27 22 c-81
63 -248 89 -345 53z m213 -35 c27 -3 65 -10 85 -16 l36 -9 -3 -70 c-3 -68 -4
-70 -34 -80 -17 -6 -35 -11 -39 -11 -5 0 -9 34 -9 75 0 60 -3 75 -15 75 -12 0
-15 -15 -15 -79 0 -73 -2 -79 -22 -85 -47 -12 -48 -10 -48 84 0 73 -3 90 -15
90 -12 0 -15 -17 -15 -91 l0 -90 -37 3 -38 3 -3 88 c-2 68 -6 87 -17 87 -12 0
-15 -17 -15 -80 l0 -81 -30 16 c-28 15 -30 19 -30 74 l0 58 41 18 c44 20 109
33 149 29 14 -1 47 -5 74 -8z m116 -367 c0 -99 -3 -179 -7 -177 -5 2 -25 10
-46 18 -35 13 -38 17 -33 44 3 15 6 81 6 145 l0 117 33 17 c17 8 35 16 40 16
4 1 7 -80 7 -180z m-345 149 l25 -11 0 -137 0 -136 -36 -18 -37 -17 6 68 c4
37 7 112 7 166 0 53 2 97 5 97 2 0 16 -5 30 -12z m235 -146 l0 -139 -37 6
c-21 4 -38 12 -37 19 1 6 2 63 3 126 l1 115 28 4 c15 2 30 5 35 6 4 0 7 -61 7
-137z m-117 118 c15 0 17 -12 17 -119 l0 -118 -41 -7 c-23 -4 -42 -5 -43 -4 0
2 0 61 2 132 3 126 3 128 25 122 12 -3 30 -6 40 -6z m17 -360 c0 -47 4 -80 10
-80 6 0 10 33 10 80 0 86 2 89 58 74 20 -6 22 -12 22 -85 0 -46 4 -79 10 -79
6 0 10 32 10 75 0 81 2 84 57 64 32 -11 43 -40 43 -115 0 -27 -5 -32 -37 -42
-128 -37 -249 -40 -310 -8 -53 27 -60 39 -54 92 5 41 11 51 39 67 l32 19 0
-71 c0 -41 4 -71 10 -71 6 0 10 31 10 74 0 80 2 84 58 85 l32 1 0 -80z"/>
</g>
</svg>
