<?xml version="1.0" standalone="no"?>
<!DOCTYPE svg PUBLIC "-//W3C//DTD SVG 20010904//EN"
 "http://www.w3.org/TR/2001/REC-SVG-20010904/DTD/svg10.dtd">
<svg version="1.0" xmlns="http://www.w3.org/2000/svg"
 width="106.000000pt" height="144.000000pt" viewBox="0 0 106.000000 144.000000"
 preserveAspectRatio="xMidYMid meet">
<metadata>
Created by potrace 1.16, written by Peter Selinger 2001-2019
</metadata>
<g transform="translate(0.000000,144.000000) scale(0.100000,-0.100000)"
fill="#000000" stroke="none">
<path d="M330 1125 c0 -8 -7 -15 -15 -15 -13 0 -15 -37 -15 -272 0 -303 9
-528 21 -528 4 0 10 10 12 22 3 19 5 18 6 -6 l1 -29 198 7 c108 4 203 7 210 8
15 2 18 788 2 788 -5 0 -7 6 -4 13 6 18 -94 27 -283 27 -112 0 -133 -2 -133
-15z m297 -190 c-56 -96 -105 -175 -108 -175 -7 0 -159 314 -159 329 0 6 47
12 123 14 67 1 150 4 184 5 l61 2 -101 -175z m118 -592 c-2 -4 -180 324 -196
359 -11 25 -4 40 87 208 l99 182 5 -374 c4 -205 5 -374 5 -375z m-331 212
l-86 -170 6 115 c3 63 6 209 6 325 l1 210 79 -155 80 -154 -86 -171z m213 -43
c56 -97 100 -178 99 -179 -1 -1 -86 0 -188 4 l-186 6 19 44 c41 96 142 303
148 303 3 -1 52 -81 108 -178z"/>
</g>
</svg>
