<?xml version="1.0" standalone="no"?>
<!DOCTYPE svg PUBLIC "-//W3C//DTD SVG 20010904//EN"
 "http://www.w3.org/TR/2001/REC-SVG-20010904/DTD/svg10.dtd">
<svg version="1.0" xmlns="http://www.w3.org/2000/svg"
 width="181.000000pt" height="302.000000pt" viewBox="0 0 181.000000 302.000000"
 preserveAspectRatio="xMidYMid meet">
<metadata>
Created by potrace 1.16, written by Peter Selinger 2001-2019
</metadata>
<g transform="translate(0.000000,302.000000) scale(0.100000,-0.100000)"
fill="#000000" stroke="none">
<path d="M370 2706 c-9 -12 -9 -21 2 -42 35 -71 122 -90 256 -55 101 26 158
27 198 2 33 -20 82 -81 65 -81 -5 0 -19 -16 -31 -36 l-22 -35 -27 24 c-57 53
-109 60 -213 27 -146 -47 -235 -35 -258 34 -8 24 -16 33 -26 29 -36 -14 5 -85
62 -109 46 -19 107 -17 195 6 41 11 91 20 112 20 46 0 102 -24 122 -53 12 -17
12 -23 0 -41 -11 -15 -24 -20 -53 -18 -53 4 -92 -27 -92 -73 0 -28 6 -37 30
-50 16 -8 39 -15 52 -15 13 0 46 -9 74 -19 28 -11 74 -23 102 -27 35 -4 49
-10 46 -19 -3 -7 29 -77 72 -156 95 -176 121 -219 135 -219 16 0 153 77 181
101 l23 20 -27 -5 c-22 -5 -28 -2 -34 16 -3 13 -37 89 -75 169 -38 81 -69 151
-69 155 0 5 19 22 43 39 69 49 114 93 153 152 25 39 33 58 26 65 -12 12 -23
13 -290 16 -164 2 -183 4 -188 20 -33 114 -117 146 -260 100 -41 -13 -96 -22
-136 -22 -57 -1 -70 2 -92 23 -14 14 -26 35 -26 48 0 26 -12 30 -30 9z m952
-259 c-36 -52 -153 -163 -181 -172 -12 -3 -21 -10 -21 -14 0 -10 167 -320 183
-339 5 -7 8 -14 6 -16 -12 -11 -130 -66 -141 -66 -12 0 -134 249 -161 326 -10
27 -20 34 -82 54 -38 12 -81 29 -95 38 -14 8 -43 14 -67 13 -48 -1 -83 12 -83
33 0 24 38 48 79 50 22 1 49 10 59 20 16 13 21 14 25 4 3 -7 6 -2 6 12 1 14
12 42 26 63 l26 37 77 1 c42 1 142 4 222 8 80 3 146 3 148 -1 2 -4 -10 -27
-26 -51z"/>
<path d="M492 1218 c-20 -20 -14 -48 21 -83 50 -50 102 -54 238 -21 94 23 116
25 152 15 54 -14 107 -69 107 -110 l0 -30 133 6 c72 3 179 8 237 11 l105 5
-128 -123 -129 -123 96 -173 c53 -95 96 -177 96 -181 0 -4 -31 -23 -70 -40
-65 -30 -90 -33 -90 -10 0 5 -34 80 -75 167 -64 134 -78 157 -98 159 -34 2
-136 33 -141 42 -3 4 10 23 29 41 19 19 35 38 35 44 0 6 -20 -9 -44 -33 -46
-45 -66 -47 -66 -5 0 33 37 104 55 104 45 0 -6 105 -67 136 -39 20 -110 17
-192 -7 -136 -41 -229 -25 -243 41 -6 33 -15 37 -31 17 -19 -22 16 -77 62 -98
53 -24 95 -24 192 1 105 28 164 28 208 1 19 -12 36 -27 39 -35 3 -8 -56 -74
-144 -162 -81 -81 -146 -150 -143 -153 2 -3 58 49 124 114 110 110 118 116
108 82 -10 -31 -9 -43 6 -74 l17 -36 -70 -71 c-39 -39 -71 -76 -71 -81 0 -5
35 26 79 69 l78 78 53 -16 c30 -9 67 -16 82 -16 21 0 33 -7 44 -27 8 -16 49
-91 90 -168 42 -77 84 -148 94 -159 20 -21 17 -22 143 52 75 44 102 71 53 52
-23 -8 -26 -4 -71 98 -27 59 -65 141 -86 183 l-37 75 119 99 c124 103 146 136
97 149 -13 3 -120 6 -239 6 l-216 0 -11 38 c-29 96 -120 124 -262 81 -41 -12
-100 -23 -131 -23 -48 -1 -62 3 -84 24 -14 13 -29 37 -33 52 -6 23 -10 26 -20
16z"/>
<path d="M749 913 l-24 -28 28 24 c25 23 32 31 24 31 -2 0 -14 -12 -28 -27z"/>
<path d="M960 605 c-30 -30 -52 -57 -49 -60 3 -2 29 20 59 50 30 30 52 57 49
60 -3 2 -29 -20 -59 -50z"/>
</g>
</svg>
