<?xml version="1.0" standalone="no"?>
<!DOCTYPE svg PUBLIC "-//W3C//DTD SVG 20010904//EN"
 "http://www.w3.org/TR/2001/REC-SVG-20010904/DTD/svg10.dtd">
<svg version="1.0" xmlns="http://www.w3.org/2000/svg"
 width="106.000000pt" height="144.000000pt" viewBox="0 0 106.000000 144.000000"
 preserveAspectRatio="xMidYMid meet">
<metadata>
Created by potrace 1.16, written by Peter Selinger 2001-2019
</metadata>
<g transform="translate(0.000000,144.000000) scale(0.100000,-0.100000)"
fill="#000000" stroke="none">
<path d="M330 1125 c0 -8 -7 -15 -15 -15 -13 0 -15 -37 -15 -272 0 -309 9
-528 22 -528 4 0 8 38 8 85 l0 85 65 0 65 0 0 -70 0 -70 -60 0 c-53 0 -60 -2
-60 -20 0 -19 7 -20 123 -20 148 0 277 10 277 21 0 4 -28 9 -62 11 l-63 3 -3
78 -3 77 65 0 65 0 5 -53 c3 -28 8 -70 9 -92 2 -22 4 139 5 358 1 259 -1 397
-8 397 -5 0 -10 -20 -10 -45 l0 -45 -60 0 -60 0 0 50 0 50 60 0 c33 0 60 4 60
9 0 12 -114 21 -272 21 -116 0 -138 -2 -138 -15z m120 -65 l0 -40 -55 0 -55 0
0 40 0 40 55 0 55 0 0 -40z m140 -5 c0 -41 -2 -45 -22 -41 -13 3 -38 5 -55 5
-32 1 -33 3 -33 41 l0 40 55 0 55 0 0 -45z m0 -305 l0 -240 -55 0 -55 0 0 234
0 235 23 4 c12 2 37 5 55 6 l32 1 0 -240z m150 0 l0 -240 -67 0 -66 0 6 178
c4 97 7 205 7 240 l0 62 60 0 60 0 0 -240z m-288 10 c0 -121 1 -225 2 -232 1
-8 -14 -12 -44 -11 -78 2 -77 2 -74 26 1 12 3 115 3 230 l1 207 55 0 55 0 2
-220z m138 -345 l0 -75 -61 0 c-52 0 -60 2 -55 16 3 9 6 40 6 69 l0 54 48 4
c26 2 50 4 55 5 4 1 7 -32 7 -73z"/>
</g>
</svg>
