<?xml version="1.0" standalone="no"?>
<!DOCTYPE svg PUBLIC "-//W3C//DTD SVG 20010904//EN"
 "http://www.w3.org/TR/2001/REC-SVG-20010904/DTD/svg10.dtd">
<svg version="1.0" xmlns="http://www.w3.org/2000/svg"
 width="160.000000pt" height="192.000000pt" viewBox="0 0 160.000000 192.000000"
 preserveAspectRatio="xMidYMid meet">
<metadata>
Created by potrace 1.16, written by Peter Selinger 2001-2019
</metadata>
<g transform="translate(0.000000,192.000000) scale(0.100000,-0.100000)"
fill="#000000" stroke="none">
<path d="M506 1528 c-3 -50 -6 -119 -6 -153 l0 -62 -62 -23 c-40 -14 -77 -37
-102 -61 -38 -38 -38 -40 -34 -99 3 -39 11 -70 25 -88 40 -54 55 -57 334 -57
196 0 253 -3 244 -12 -7 -6 -17 -39 -24 -72 l-12 -61 -90 0 c-82 0 -89 -1 -89
-20 0 -18 7 -20 85 -20 l85 0 0 -45 0 -45 -84 0 c-75 0 -84 -2 -82 -17 3 -16
13 -18 87 -15 l84 3 32 -69 c26 -56 50 -86 123 -155 86 -81 196 -165 204 -156
5 6 36 443 36 515 0 104 11 184 26 184 8 0 14 4 14 8 0 10 -284 22 -490 22
l-128 0 -4 93 c-3 68 -9 99 -22 120 -22 33 -91 71 -113 63 -12 -5 -14 -1 -10
16 3 13 9 85 13 161 6 132 6 137 -13 137 -18 0 -21 -9 -27 -92z m105 -297 c28
-30 49 -103 49 -167 l0 -35 -111 2 c-71 1 -114 -2 -118 -9 -11 -19 -71 25 -87
63 -30 72 -11 113 70 151 77 36 86 33 86 -26 0 -27 5 -50 10 -50 6 0 10 11 10
24 0 13 3 38 6 55 6 29 10 32 33 26 14 -3 38 -19 52 -34z m609 -293 c0 -113 6
-108 -134 -108 -181 0 -179 -1 -150 102 l16 57 102 4 c55 1 116 4 134 5 l32 2
0 -62z m-10 -184 l0 -56 -31 6 c-17 3 -85 6 -150 6 l-119 0 0 45 0 44 58 4
c31 2 99 4 150 5 l92 2 0 -56z m0 -250 l0 -186 -65 58 c-110 96 -225 242 -225
286 0 15 12 18 103 20 56 2 121 4 145 5 l42 3 0 -186z"/>
</g>
</svg>
