<?xml version="1.0" standalone="no"?>
<!DOCTYPE svg PUBLIC "-//W3C//DTD SVG 20010904//EN"
 "http://www.w3.org/TR/2001/REC-SVG-20010904/DTD/svg10.dtd">
<svg version="1.0" xmlns="http://www.w3.org/2000/svg"
 width="160.000000pt" height="192.000000pt" viewBox="0 0 160.000000 192.000000"
 preserveAspectRatio="xMidYMid meet">
<metadata>
Created by potrace 1.16, written by Peter Selinger 2001-2019
</metadata>
<g transform="translate(0.000000,192.000000) scale(0.100000,-0.100000)"
fill="#000000" stroke="none">
<path d="M506 1528 c-3 -50 -6 -119 -6 -153 l0 -62 -62 -23 c-39 -14 -77 -37
-100 -60 -34 -33 -38 -43 -38 -86 0 -62 26 -113 70 -139 33 -19 52 -20 285
-20 l251 0 -12 -35 c-7 -19 -18 -73 -24 -120 -11 -77 -16 -89 -50 -125 -20
-22 -57 -67 -82 -100 -36 -47 -44 -65 -37 -78 6 -9 14 -17 18 -17 5 0 38 45
72 100 35 55 67 100 70 100 4 0 9 -19 13 -42 6 -36 3 -45 -21 -72 -16 -17 -48
-55 -72 -84 -35 -43 -41 -55 -31 -67 7 -8 16 -15 21 -15 5 0 35 39 66 87 l57
87 15 -25 c45 -70 278 -279 312 -279 5 0 9 24 9 54 0 35 5 60 15 70 11 10 12
17 4 22 -8 4 -10 30 -5 78 3 39 8 121 11 181 13 263 16 295 31 295 8 0 14 4
14 8 0 10 -284 22 -490 22 l-128 0 -4 93 c-3 68 -9 99 -22 120 -22 33 -91 71
-113 63 -12 -5 -14 -1 -10 16 3 13 9 85 13 161 6 132 6 137 -13 137 -18 0 -21
-9 -27 -92z m105 -297 c28 -30 49 -103 49 -167 l0 -35 -111 2 c-71 1 -114 -2
-118 -9 -11 -19 -71 25 -87 63 -30 72 -11 113 70 151 77 36 86 33 86 -26 0
-27 5 -50 10 -50 6 0 10 11 10 24 0 13 3 38 6 55 6 29 10 32 33 26 14 -3 38
-19 52 -34z m609 -266 l0 -34 -137 6 c-76 3 -139 6 -140 7 -1 1 0 12 3 24 6
20 13 22 108 25 55 1 116 4 134 5 30 2 32 0 32 -33z m0 -67 c0 -7 -3 -30 -6
-50 l-7 -37 -146 6 c-80 3 -147 6 -148 7 -1 1 2 17 6 36 l7 35 109 6 c61 3
127 6 148 7 24 1 37 -2 37 -10z m-10 -158 l0 -50 -150 0 -150 0 0 45 0 44 133
4 c72 1 140 4 150 5 14 2 17 -6 17 -48z m0 -129 l0 -49 -122 4 -123 4 -22 38
-23 37 38 6 c20 3 85 7 145 8 l107 1 0 -49z m0 -115 l0 -44 -71 -4 -72 -3 -33
40 -33 40 47 6 c26 3 73 7 105 7 l57 2 0 -44z m0 -127 l0 -50 -55 47 c-30 26
-55 49 -55 51 0 2 25 3 55 3 l55 0 0 -51z"/>
</g>
</svg>
