<?xml version="1.0" standalone="no"?>
<!DOCTYPE svg PUBLIC "-//W3C//DTD SVG 20010904//EN"
 "http://www.w3.org/TR/2001/REC-SVG-20010904/DTD/svg10.dtd">
<svg version="1.0" xmlns="http://www.w3.org/2000/svg"
 width="177.000000pt" height="130.000000pt" viewBox="0 0 177.000000 130.000000"
 preserveAspectRatio="xMidYMid meet">
<metadata>
Created by potrace 1.16, written by Peter Selinger 2001-2019
</metadata>
<g transform="translate(0.000000,130.000000) scale(0.100000,-0.100000)"
fill="#000000" stroke="none">
<path d="M1450 984 c0 -13 -8 -15 -47 -10 -27 3 -285 8 -575 12 l-528 6 0 -27
0 -28 463 7 c254 3 513 9 575 13 l112 6 0 -319 0 -318 -36 35 c-55 53 -111
143 -123 198 -6 27 -8 72 -4 100 5 45 8 51 29 51 13 0 24 5 24 10 0 6 -12 10
-26 10 -24 0 -25 2 -19 43 l6 42 -495 4 -496 4 0 -23 0 -23 475 6 475 7 0 -31
0 -31 -472 3 c-415 4 -473 2 -473 -11 0 -13 47 -15 373 -12 204 1 372 0 372
-2 0 -2 -23 -19 -52 -37 l-51 -33 -324 2 c-298 3 -323 2 -323 -14 0 -16 17
-17 216 -12 l216 6 -54 -22 c-61 -26 -110 -56 -189 -117 -89 -70 -139 -118
-139 -134 0 -26 21 -17 79 37 167 153 315 226 474 232 61 2 72 6 124 44 56 41
59 42 135 42 l78 0 0 -73 c0 -103 36 -173 133 -262 39 -36 75 -65 79 -65 4 0
8 158 8 350 0 227 -4 350 -10 350 -5 0 -10 -7 -10 -16z"/>
<path d="M300 888 l0 -21 477 7 c263 4 481 10 486 15 10 10 -341 21 -690 21
l-273 0 0 -22z"/>
</g>
</svg>
