<?xml version="1.0" standalone="no"?>
<!DOCTYPE svg PUBLIC "-//W3C//DTD SVG 20010904//EN"
 "http://www.w3.org/TR/2001/REC-SVG-20010904/DTD/svg10.dtd">
<svg version="1.0" xmlns="http://www.w3.org/2000/svg"
 width="198.000000pt" height="129.000000pt" viewBox="0 0 198.000000 129.000000"
 preserveAspectRatio="xMidYMid meet">
<metadata>
Created by potrace 1.16, written by Peter Selinger 2001-2019
</metadata>
<g transform="translate(0.000000,129.000000) scale(0.100000,-0.100000)"
fill="#000000" stroke="none">
<path d="M360 976 c0 -8 40 -30 93 -52 52 -22 93 -43 93 -49 -1 -13 -5 -12
-104 24 -93 34 -112 37 -112 18 0 -9 37 -25 96 -43 83 -25 117 -44 103 -59 -2
-2 -29 5 -59 15 -79 26 -164 36 -158 19 3 -8 44 -23 97 -35 152 -35 132 -41
-61 -18 -38 5 -48 3 -48 -9 0 -16 31 -22 160 -32 41 -3 85 -8 98 -11 12 -2 22
0 22 6 0 5 -6 10 -14 10 -8 0 -18 5 -22 11 -5 8 1 10 20 7 30 -6 36 8 7 17
-33 10 -14 35 22 29 30 -4 31 -4 9 7 -12 7 -21 17 -19 23 5 12 9 12 47 2 l25
-7 -23 18 c-18 15 -20 21 -10 31 23 23 76 13 163 -33 115 -61 191 -73 359 -57
130 12 364 57 381 73 12 12 20 13 -146 -15 -79 -14 -185 -28 -234 -32 -101 -7
-266 9 -305 31 -154 84 -179 89 -237 54 -24 -15 -37 -18 -46 -11 -14 12 -177
82 -189 82 -4 0 -8 -6 -8 -14z"/>
<path d="M1487 854 c-3 -4 -2 -15 4 -25 8 -16 69 -181 167 -449 9 -25 18 -38
19 -29 4 17 -76 270 -131 414 -32 85 -44 103 -59 89z"/>
<path d="M1262 744 c-46 -19 -122 -46 -170 -60 -111 -33 -168 -29 -280 20 -88
38 -146 45 -199 25 -33 -12 -93 -68 -93 -86 0 -20 9 -16 37 17 59 70 119 76
234 24 44 -19 106 -40 138 -46 74 -14 144 1 281 62 52 23 102 44 111 47 18 5
78 -110 170 -322 48 -112 47 -110 54 -103 7 7 -106 279 -150 361 -20 37 -34
74 -31 82 8 21 -8 18 -102 -21z"/>
<path d="M1588 328 c-27 -9 -38 -28 -18 -28 15 0 80 28 80 34 0 9 -32 6 -62
-6z"/>
</g>
</svg>
