<?xml version="1.0" standalone="no"?>
<!DOCTYPE svg PUBLIC "-//W3C//DTD SVG 20010904//EN"
 "http://www.w3.org/TR/2001/REC-SVG-20010904/DTD/svg10.dtd">
<svg version="1.0" xmlns="http://www.w3.org/2000/svg"
 width="185.000000pt" height="118.000000pt" viewBox="0 0 185.000000 118.000000"
 preserveAspectRatio="xMidYMid meet">
<metadata>
Created by potrace 1.16, written by Peter Selinger 2001-2019
</metadata>
<g transform="translate(0.000000,118.000000) scale(0.100000,-0.100000)"
fill="#000000" stroke="none">
<path d="M674 833 c4 -26 23 -116 43 -200 27 -116 40 -152 52 -152 194 -11
256 -11 343 -1 97 11 305 44 356 57 23 5 23 5 17 -58 -3 -35 -8 -81 -10 -101
-10 -72 12 -38 37 59 13 54 28 106 33 116 9 21 11 21 -275 -20 -96 -14 -209
-29 -250 -35 -132 -17 -251 5 -264 49 -7 23 -35 237 -39 288 -2 34 -6 41 -26
43 -23 4 -23 2 -17 -45z"/>
<path d="M514 787 c48 -127 110 -267 119 -267 4 0 5 10 1 23 -4 12 -26 85 -48
162 -39 134 -43 140 -69 143 l-27 3 24 -64z"/>
<path d="M310 755 c-10 -12 2 -30 73 -107 165 -179 280 -281 322 -285 11 -1
83 -6 160 -12 77 -6 241 -19 364 -31 256 -23 258 -23 246 -11 -25 23 -234 52
-480 67 -323 20 -321 19 -468 167 -57 57 -121 131 -142 165 -39 64 -54 73 -75
47z"/>
</g>
</svg>
