<?xml version="1.0" standalone="no"?>
<!DOCTYPE svg PUBLIC "-//W3C//DTD SVG 20010904//EN"
 "http://www.w3.org/TR/2001/REC-SVG-20010904/DTD/svg10.dtd">
<svg version="1.0" xmlns="http://www.w3.org/2000/svg"
 width="147.000000pt" height="102.000000pt" viewBox="0 0 147.000000 102.000000"
 preserveAspectRatio="xMidYMid meet">
<metadata>
Created by potrace 1.16, written by Peter Selinger 2001-2019
</metadata>
<g transform="translate(0.000000,102.000000) scale(0.100000,-0.100000)"
fill="#000000" stroke="none">
<path d="M545 662 c-60 -32 -140 -76 -176 -100 -56 -36 -66 -46 -66 -71 0 -28
7 -33 126 -89 69 -33 157 -70 194 -83 l69 -23 83 21 c110 29 211 77 312 149
46 33 83 61 83 64 -1 7 -138 85 -201 115 -66 30 -183 61 -259 69 -52 5 -60 2
-165 -52z m87 -150 c-6 -190 11 -179 -152 -96 -154 78 -150 73 -96 112 43 31
249 153 252 149 1 -1 -1 -75 -4 -165z m110 153 l37 -6 -6 -147 c-3 -83 -11
-150 -16 -154 -13 -8 -78 -21 -82 -16 -2 2 -6 75 -10 163 -4 88 -10 164 -12
169 -3 4 7 6 23 3 16 -3 46 -8 66 -12z m168 -40 c41 -14 111 -43 155 -63 l79
-38 -144 -71 c-207 -102 -190 -103 -190 10 0 52 -3 115 -6 141 -8 56 -3 57
106 21z"/>
</g>
</svg>
