<?xml version="1.0" standalone="no"?>
<!DOCTYPE svg PUBLIC "-//W3C//DTD SVG 20010904//EN"
 "http://www.w3.org/TR/2001/REC-SVG-20010904/DTD/svg10.dtd">
<svg version="1.0" xmlns="http://www.w3.org/2000/svg"
 width="127.000000pt" height="280.000000pt" viewBox="0 0 127.000000 280.000000"
 preserveAspectRatio="xMidYMid meet">
<metadata>
Created by potrace 1.16, written by Peter Selinger 2001-2019
</metadata>
<g transform="translate(0.000000,280.000000) scale(0.100000,-0.100000)"
fill="#000000" stroke="none">
<path d="M495 2480 c-38 -10 -73 -19 -76 -19 -4 -1 -23 -17 -42 -36 -49 -49
-72 -138 -72 -275 0 -99 2 -108 31 -160 76 -135 231 -169 454 -99 82 26 111
40 104 50 -3 5 7 46 22 91 20 62 27 106 28 173 1 80 -2 96 -27 147 -51 104
-134 149 -276 147 -42 0 -107 -9 -146 -19z m308 -53 c30 -18 56 -44 74 -75 26
-44 28 -53 27 -162 -1 -78 -7 -137 -20 -184 l-19 -70 -70 -19 c-86 -23 -263
-28 -316 -9 -52 18 -105 76 -125 135 -22 65 -14 205 15 299 l22 68 67 19 c101
30 100 30 202 28 84 -2 101 -6 143 -30z"/>
<path d="M664 2321 c-50 -15 -95 -30 -100 -34 -6 -3 -30 7 -55 24 -64 42 -69
40 -69 -36 0 -75 4 -77 69 -40 27 16 48 22 55 16 6 -5 50 -21 99 -37 48 -15
87 -31 87 -34 0 -4 -41 -17 -90 -30 -50 -12 -93 -27 -96 -31 -3 -5 -25 4 -49
21 -67 46 -75 42 -75 -35 0 -36 2 -65 5 -65 3 0 27 11 53 24 l48 24 113 -39
c62 -21 119 -39 127 -39 11 0 14 32 14 170 0 199 13 186 -136 141z m116 -60
l0 -69 -94 37 c-52 20 -92 38 -89 41 6 7 155 58 171 59 8 1 12 -19 12 -68z
m-253 13 c-1 -1 -17 -9 -34 -18 l-33 -17 0 36 0 35 35 -17 c19 -9 34 -17 32
-19z m249 -241 c-2 -3 -35 7 -73 21 -132 52 -130 44 -23 80 l95 33 3 -65 c2
-35 1 -67 -2 -69z m-276 89 l30 -19 -25 -11 c-38 -18 -45 -15 -45 18 0 35 1
35 40 12z"/>
<path d="M595 940 c-93 -14 -178 -42 -182 -61 -3 -9 -12 -19 -22 -22 -20 -5
-46 -84 -62 -189 -27 -184 47 -324 193 -358 69 -17 198 -8 278 20 36 13 72 23
80 23 19 0 37 18 37 37 0 8 11 47 24 85 19 56 24 91 24 175 0 93 -3 111 -26
155 -55 108 -188 160 -344 135z m208 -58 c93 -41 126 -105 127 -242 0 -101
-28 -246 -50 -260 -28 -17 -180 -43 -255 -43 -149 0 -227 57 -256 190 -14 62
-3 172 28 269 15 48 21 55 57 69 124 47 266 54 349 17z"/>
<path d="M460 745 c0 -12 20 -15 118 -15 146 0 272 10 272 21 0 5 -88 9 -195
9 -167 0 -195 -2 -195 -15z"/>
<path d="M432 594 c3 -15 23 -16 182 -15 99 1 186 6 194 10 20 11 -97 21 -251
21 -114 0 -128 -2 -125 -16z"/>
</g>
</svg>
