<?xml version="1.0" standalone="no"?>
<!DOCTYPE svg PUBLIC "-//W3C//DTD SVG 20010904//EN"
 "http://www.w3.org/TR/2001/REC-SVG-20010904/DTD/svg10.dtd">
<svg version="1.0" xmlns="http://www.w3.org/2000/svg"
 width="180.000000pt" height="105.000000pt" viewBox="0 0 180.000000 105.000000"
 preserveAspectRatio="xMidYMid meet">
<metadata>
Created by potrace 1.16, written by Peter Selinger 2001-2019
</metadata>
<g transform="translate(0.000000,105.000000) scale(0.100000,-0.100000)"
fill="#000000" stroke="none">
<path d="M927 744 c-15 -15 -6 -35 21 -45 15 -6 124 -45 242 -85 118 -41 222
-77 230 -80 9 -4 -18 -18 -65 -35 -199 -74 -414 -161 -417 -170 -5 -14 -119
62 -146 96 -27 35 -49 102 -36 115 5 5 21 10 36 12 40 6 47 18 10 18 -21 0
-32 5 -32 14 0 19 81 108 114 125 30 17 34 31 7 31 -27 0 -112 -71 -141 -119
l-25 -40 -212 -1 c-206 0 -213 -1 -213 -20 0 -18 7 -20 69 -20 l68 0 6 -40 c7
-51 19 -66 77 -94 43 -21 50 -22 93 -9 31 9 56 25 75 49 l30 36 16 -29 c22
-43 78 -89 152 -126 l63 -31 83 34 c164 66 468 203 468 210 0 5 -8 6 -19 3
-10 -2 -62 14 -115 37 -54 22 -166 67 -249 99 -84 33 -159 62 -168 65 -8 4
-18 3 -22 0z m-207 -202 c0 -5 -14 -28 -31 -51 -71 -98 -199 -92 -216 11 l-5
37 63 4 c133 7 189 7 189 -1z"/>
</g>
</svg>
