<?xml version="1.0" standalone="no"?>
<!DOCTYPE svg PUBLIC "-//W3C//DTD SVG 20010904//EN"
 "http://www.w3.org/TR/2001/REC-SVG-20010904/DTD/svg10.dtd">
<svg version="1.0" xmlns="http://www.w3.org/2000/svg"
 width="142.000000pt" height="131.000000pt" viewBox="0 0 142.000000 131.000000"
 preserveAspectRatio="xMidYMid meet">
<metadata>
Created by potrace 1.16, written by Peter Selinger 2001-2019
</metadata>
<g transform="translate(0.000000,131.000000) scale(0.100000,-0.100000)"
fill="#000000" stroke="none">
<path d="M902 984 c-181 -28 -348 -66 -400 -93 -20 -10 -56 -39 -80 -62 -46
-46 -107 -159 -99 -181 3 -8 9 -3 17 15 13 27 14 27 114 27 56 0 184 3 286 7
l186 6 2 -47 2 -46 -290 7 c-225 5 -290 3 -290 -6 0 -7 -4 -10 -9 -7 -12 8
-41 -3 -41 -15 0 -17 122 -138 170 -169 28 -18 78 -41 112 -52 91 -28 333 -68
403 -67 l60 1 -45 10 -45 9 3 122 c2 67 5 128 7 135 3 7 24 12 57 13 39 0 48
3 33 9 -11 5 -37 9 -57 9 l-38 1 0 44 c0 48 11 56 81 56 l36 0 6 -127 c4 -71
7 -161 7 -200 0 -40 4 -73 9 -73 12 0 22 221 20 475 l-1 225 -32 -1 c-17 -1
-100 -12 -184 -25z m178 -138 l0 -125 -57 6 c-32 3 -58 6 -59 7 0 0 2 51 4
113 l4 112 37 4 c20 2 44 4 54 5 15 2 17 -10 17 -122z m-158 -3 c2 -60 3 -109
2 -111 -1 -1 -121 1 -268 5 l-267 8 43 44 c61 62 128 89 312 127 89 18 164 33
168 33 4 1 8 -47 10 -106z m8 -350 c0 -49 3 -105 7 -127 l6 -39 -49 8 c-95 14
-311 73 -366 100 -31 15 -81 51 -110 79 l-53 51 155 5 c85 3 212 7 283 8 l127
2 0 -87z"/>
</g>
</svg>
