<?xml version="1.0" standalone="no"?>
<!DOCTYPE svg PUBLIC "-//W3C//DTD SVG 20010904//EN"
 "http://www.w3.org/TR/2001/REC-SVG-20010904/DTD/svg10.dtd">
<svg version="1.0" xmlns="http://www.w3.org/2000/svg"
 width="105.000000pt" height="135.000000pt" viewBox="0 0 105.000000 135.000000"
 preserveAspectRatio="xMidYMid meet">
<metadata>
Created by potrace 1.16, written by Peter Selinger 2001-2019
</metadata>
<g transform="translate(0.000000,135.000000) scale(0.100000,-0.100000)"
fill="#000000" stroke="none">
<path d="M605 1026 c-38 -12 -84 -30 -100 -38 -49 -26 -124 -114 -151 -176
-14 -31 -32 -72 -41 -89 -15 -30 -15 -36 1 -77 43 -113 117 -183 285 -270 51
-26 91 -53 91 -61 0 -8 5 -15 10 -15 6 0 10 4 10 10 0 5 8 7 18 3 16 -6 16 -5
0 13 -14 17 -15 32 -8 127 5 59 14 209 20 333 11 210 11 226 -6 245 -22 24
-42 24 -129 -5z m101 -128 c-3 -62 -8 -210 -12 -328 -3 -118 -6 -216 -7 -217
-2 -1 -29 15 -62 36 l-59 38 3 49 c1 31 8 54 19 63 12 10 14 15 5 18 -7 3 -13
20 -13 39 0 27 5 37 23 44 17 7 18 9 5 9 -14 1 -18 10 -18 40 0 22 5 43 11 47
7 4 8 9 1 13 -6 4 -7 38 -3 96 8 93 4 112 -23 102 -11 -5 -16 -20 -16 -52 l0
-45 -70 0 c-38 0 -70 4 -70 8 0 14 74 79 109 97 51 26 133 53 159 54 l23 1 -5
-112z m-146 -86 c0 -4 -3 -17 -6 -29 -6 -21 -12 -23 -69 -23 -34 0 -76 3 -94
6 -30 6 -30 7 -15 33 15 25 18 26 100 23 46 -2 84 -7 84 -10z m-99 -82 l89 0
0 -36 0 -37 -94 7 c-72 5 -95 3 -99 -6 -2 -7 -9 3 -14 22 -12 41 -6 63 14 56
8 -3 55 -6 104 -6z m89 -137 c0 -36 0 -36 -37 -29 -21 3 -56 6 -78 6 -34 0
-43 5 -58 29 -9 16 -17 31 -17 33 0 1 43 2 95 0 l95 -3 0 -36z m-12 -62 c8 -1
12 -17 12 -46 0 -54 -7 -52 -80 14 l-45 41 50 -4 c28 -3 56 -5 63 -5z"/>
</g>
</svg>
