<?xml version="1.0" standalone="no"?>
<!DOCTYPE svg PUBLIC "-//W3C//DTD SVG 20010904//EN"
 "http://www.w3.org/TR/2001/REC-SVG-20010904/DTD/svg10.dtd">
<svg version="1.0" xmlns="http://www.w3.org/2000/svg"
 width="159.000000pt" height="265.000000pt" viewBox="0 0 159.000000 265.000000"
 preserveAspectRatio="xMidYMid meet">
<metadata>
Created by potrace 1.16, written by Peter Selinger 2001-2019
</metadata>
<g transform="translate(0.000000,265.000000) scale(0.100000,-0.100000)"
fill="#000000" stroke="none">
<path d="M1022 2338 c6 -16 121 -22 198 -12 l55 8 -75 7 c-131 11 -182 10
-178 -3z"/>
<path d="M1181 2224 l-95 -84 -25 23 c-75 68 -163 105 -283 117 -161 16 -289
-16 -375 -94 -62 -55 -57 -79 32 -165 106 -104 177 -126 311 -98 94 20 178 64
294 153 93 71 264 235 245 233 -6 0 -53 -38 -104 -85z m-406 26 c50 -5 113
-16 140 -25 59 -17 145 -71 145 -90 0 -22 -76 -81 -160 -124 -140 -73 -287
-89 -366 -41 -33 21 -144 135 -144 149 0 14 76 80 118 102 36 18 76 27 167 38
6 0 51 -4 100 -9z"/>
<path d="M1080 777 c-52 -11 -97 -24 -100 -28 -17 -25 -167 -129 -180 -125 -8
2 -46 17 -85 31 -38 15 -100 29 -137 32 -79 7 -98 -3 -209 -106 -56 -51 -66
-66 -65 -91 1 -31 9 -40 121 -137 l60 -53 77 0 c58 0 95 7 150 26 87 31 197
85 255 125 23 16 46 29 52 29 22 0 9 16 -36 43 l-47 29 59 51 c105 92 120 106
109 107 -6 0 -51 -31 -100 -70 -49 -38 -94 -70 -101 -70 -27 0 -21 19 15 46
20 15 62 51 92 80 46 43 66 54 125 69 74 19 106 36 65 34 -14 -1 -68 -11 -120
-22z m-55 -46 c-6 -4 -45 -35 -87 -69 -42 -33 -74 -63 -70 -67 3 -3 -2 -3 -12
1 -18 7 -18 8 2 23 11 9 44 37 73 62 51 44 71 56 94 58 6 1 6 -2 0 -8z m-350
-87 c33 -9 120 -44 193 -80 103 -51 131 -69 122 -78 -15 -19 -203 -112 -275
-137 -33 -11 -92 -23 -132 -26 l-71 -6 -92 90 -93 89 98 87 98 88 46 -7 c25
-3 73 -12 106 -20z"/>
</g>
</svg>
