<?xml version="1.0" standalone="no"?>
<!DOCTYPE svg PUBLIC "-//W3C//DTD SVG 20010904//EN"
 "http://www.w3.org/TR/2001/REC-SVG-20010904/DTD/svg10.dtd">
<svg version="1.0" xmlns="http://www.w3.org/2000/svg"
 width="156.000000pt" height="227.000000pt" viewBox="0 0 156.000000 227.000000"
 preserveAspectRatio="xMidYMid meet">
<metadata>
Created by potrace 1.16, written by Peter Selinger 2001-2019
</metadata>
<g transform="translate(0.000000,227.000000) scale(0.100000,-0.100000)"
fill="#000000" stroke="none">
<path d="M523 1949 c-77 -38 -141 -129 -177 -248 -19 -66 -20 -72 -2 -96 12
-16 15 -11 36 56 28 94 52 140 97 190 50 55 100 79 167 79 90 0 161 -33 237
-109 74 -75 135 -184 125 -224 -8 -32 -138 -164 -206 -208 -60 -40 -135 -69
-177 -69 -71 0 -160 75 -232 197 -32 55 -61 80 -74 66 -8 -8 52 -106 107 -174
59 -73 143 -129 193 -129 107 0 234 87 372 258 37 44 43 58 38 85 -17 102 -88
219 -169 277 -91 66 -253 90 -335 49z"/>
<path d="M480 1770 c0 -22 2 -22 62 -16 35 4 65 9 67 12 11 10 -14 18 -69 22
-57 4 -60 3 -60 -18z"/>
<path d="M672 1774 c3 -17 12 -19 68 -16 35 1 66 4 68 7 12 12 -13 19 -74 23
-60 4 -66 3 -62 -14z"/>
<path d="M1030 1770 c0 -18 7 -20 73 -19 81 2 141 12 117 22 -8 3 -54 8 -102
11 -82 5 -88 4 -88 -14z"/>
<path d="M480 1689 c0 -19 4 -20 58 -13 31 3 61 9 66 11 17 11 -21 23 -71 23
-47 0 -53 -2 -53 -21z"/>
<path d="M672 1693 c3 -15 13 -18 58 -15 30 1 62 5 70 8 29 10 -12 24 -73 24
-50 0 -58 -2 -55 -17z"/>
<path d="M480 1610 c0 -22 2 -23 62 -16 96 10 95 25 -1 33 -58 6 -61 5 -61
-17z"/>
<path d="M670 1610 c0 -22 2 -23 66 -17 104 10 103 26 0 34 -64 6 -66 5 -66
-17z"/>
<path d="M1050 1550 c0 -23 1 -23 101 -17 56 4 104 9 107 12 13 13 -14 18
-108 23 -99 5 -100 4 -100 -18z"/>
<path d="M480 1500 c0 -22 2 -23 62 -16 96 10 95 25 -1 33 -58 6 -61 5 -61
-17z"/>
<path d="M672 1504 c3 -17 12 -19 68 -16 102 4 99 21 -5 30 -62 4 -67 3 -63
-14z"/>
<path d="M525 954 c-66 -36 -132 -123 -190 -248 -35 -74 -36 -86 -5 -86 13 0
22 12 30 38 40 125 134 253 197 268 47 12 161 -14 237 -54 69 -36 196 -143
196 -166 0 -6 9 -17 20 -24 14 -8 20 -9 20 -1 0 6 22 36 50 65 114 126 112
154 -3 45 l-73 -70 -42 54 c-53 67 -145 137 -220 165 -76 30 -177 36 -217 14z"/>
<path d="M467 799 c-6 -22 -6 -22 142 -15 203 9 238 21 91 29 -201 12 -227 10
-233 -14z"/>
<path d="M467 713 c-4 -3 -7 -13 -7 -21 0 -12 18 -14 118 -8 161 9 223 17 216
27 -6 10 -317 12 -327 2z"/>
<path d="M300 599 c0 -32 91 -180 145 -236 l61 -63 100 0 c97 0 103 1 184 41
46 22 113 60 148 85 l64 45 76 -76 c71 -70 92 -86 92 -67 0 4 -31 43 -69 87
-38 44 -67 83 -65 87 11 17 -11 6 -102 -51 -101 -64 -227 -114 -311 -126 -100
-13 -175 47 -249 202 -29 60 -48 83 -70 83 -2 0 -4 -5 -4 -11z"/>
<path d="M467 593 c-4 -3 -7 -13 -7 -21 0 -12 15 -13 85 -8 47 3 123 9 170 12
47 4 85 10 85 15 0 10 -323 12 -333 2z"/>
<path d="M467 483 c-4 -3 -7 -13 -7 -21 0 -13 18 -14 123 -8 156 9 217 16 217
27 0 10 -323 12 -333 2z"/>
</g>
</svg>
