<?xml version="1.0" standalone="no"?>
<!DOCTYPE svg PUBLIC "-//W3C//DTD SVG 20010904//EN"
 "http://www.w3.org/TR/2001/REC-SVG-20010904/DTD/svg10.dtd">
<svg version="1.0" xmlns="http://www.w3.org/2000/svg"
 width="142.000000pt" height="139.000000pt" viewBox="0 0 142.000000 139.000000"
 preserveAspectRatio="xMidYMid meet">
<metadata>
Created by potrace 1.16, written by Peter Selinger 2001-2019
</metadata>
<g transform="translate(0.000000,139.000000) scale(0.100000,-0.100000)"
fill="#000000" stroke="none">
<path d="M934 915 l-168 -175 -146 5 c-80 3 -185 8 -234 11 l-89 5 7 -96 c3
-52 9 -115 13 -140 11 -83 23 -46 23 70 0 144 10 148 74 30 25 -47 46 -87 46
-90 0 -3 -25 -5 -55 -5 -52 0 -55 -1 -55 -26 0 -23 3 -25 27 -20 76 14 184 18
198 6 12 -10 15 -9 15 4 0 10 9 16 25 16 14 0 25 -5 25 -11 0 -8 4 -8 13 -2
18 15 77 24 77 13 0 -6 6 -10 12 -10 7 0 59 -46 115 -102 77 -77 106 -99 114
-91 12 12 94 441 124 646 9 60 19 116 22 123 14 38 -30 -1 -183 -161z m123 -1
c-14 -54 -44 -201 -68 -326 -24 -126 -47 -227 -51 -225 -14 5 -138 152 -138
164 0 8 -12 13 -30 13 -27 0 -33 7 -70 80 -22 44 -40 85 -40 91 0 7 25 10 74
8 l74 -3 133 152 c73 83 134 150 136 148 2 -2 -7 -48 -20 -102z m-561 -291
l44 -83 -25 0 c-21 0 -31 12 -65 80 -22 44 -40 82 -40 85 0 4 9 5 20 3 14 -2
35 -29 66 -85z m70 3 c24 -43 44 -80 44 -82 0 -2 -9 -4 -20 -4 -15 0 -30 20
-60 80 -45 90 -46 93 -24 88 10 -2 37 -38 60 -82z m100 -3 l44 -83 -33 0 c-31
0 -35 4 -75 86 l-43 85 31 -3 c27 -3 36 -13 76 -85z"/>
</g>
</svg>
