<?xml version="1.0" standalone="no"?>
<!DOCTYPE svg PUBLIC "-//W3C//DTD SVG 20010904//EN"
 "http://www.w3.org/TR/2001/REC-SVG-20010904/DTD/svg10.dtd">
<svg version="1.0" xmlns="http://www.w3.org/2000/svg"
 width="164.000000pt" height="131.000000pt" viewBox="0 0 164.000000 131.000000"
 preserveAspectRatio="xMidYMid meet">
<metadata>
Created by potrace 1.16, written by Peter Selinger 2001-2019
</metadata>
<g transform="translate(0.000000,131.000000) scale(0.100000,-0.100000)"
fill="#000000" stroke="none">
<path d="M542 995 c-11 -12 -12 -40 -7 -124 l7 -107 -121 4 c-121 4 -121 4
-121 -18 l0 -23 119 6 120 7 3 -100 3 -100 -117 0 c-98 0 -118 -3 -118 -15 0
-12 20 -15 120 -15 l120 0 0 -44 c0 -23 3 -71 6 -105 l7 -61 386 2 386 3 3
341 2 341 -47 7 c-27 3 -203 8 -393 11 -310 6 -346 5 -358 -10z m758 -158 c0
-138 15 -433 25 -489 l5 -28 -295 0 -295 0 0 320 0 320 143 1 c119 1 332 11
400 17 15 2 17 -11 17 -141z m-592 21 l3 -98 -64 0 c-64 0 -65 0 -71 31 -8 43
-8 154 1 163 4 4 34 6 68 4 l60 -3 3 -97z m2 -185 c1 -38 3 -86 6 -107 l6 -39
-47 7 c-26 3 -58 6 -71 6 -24 0 -24 2 -24 100 l0 100 65 0 65 0 0 -67z m10
-253 l0 -100 -70 0 -70 0 0 94 0 95 43 4 c23 2 54 4 70 5 l27 2 0 -100z"/>
</g>
</svg>
