<?xml version="1.0" standalone="no"?>
<!DOCTYPE svg PUBLIC "-//W3C//DTD SVG 20010904//EN"
 "http://www.w3.org/TR/2001/REC-SVG-20010904/DTD/svg10.dtd">
<svg version="1.0" xmlns="http://www.w3.org/2000/svg"
 width="167.000000pt" height="131.000000pt" viewBox="0 0 167.000000 131.000000"
 preserveAspectRatio="xMidYMid meet">
<metadata>
Created by potrace 1.16, written by Peter Selinger 2001-2019
</metadata>
<g transform="translate(0.000000,131.000000) scale(0.100000,-0.100000)"
fill="#000000" stroke="none">
<path d="M574 998 c-7 -8 -9 -48 -6 -110 l5 -97 -134 2 -134 2 -2 -165 c-2
-190 12 -187 24 5 l8 120 115 6 c63 4 116 6 116 5 1 0 4 -62 8 -136 l6 -135
-130 3 c-129 4 -130 3 -130 -19 0 -22 0 -22 129 -16 l128 7 7 -46 c3 -26 6
-64 6 -86 l0 -38 388 2 387 3 3 341 2 341 -52 7 c-29 3 -206 9 -393 12 -271 4
-342 2 -351 -8z m756 -89 c0 -61 -2 -70 -16 -65 -9 3 -33 6 -55 6 l-39 0 0 59
0 60 38 4 c20 2 45 4 55 5 15 2 17 -7 17 -69z m-142 -1 l3 -58 -66 0 -65 0 0
54 c0 62 4 66 75 63 l50 -2 3 -57z m-450 -5 l3 -53 -65 0 -66 0 0 55 0 56 63
-3 62 -3 3 -52z m142 2 l0 -55 -55 0 -55 0 0 55 0 55 55 0 55 0 0 -55z m140
31 c0 -13 3 -38 6 -55 l7 -31 -62 0 -61 0 0 55 0 55 55 0 c51 0 55 -2 55 -24z
m310 -191 l0 -85 -55 0 -55 0 0 85 0 85 55 0 55 0 0 -85z m-590 -2 l0 -78 -65
3 -65 4 0 74 0 74 65 0 65 0 0 -77z m140 3 l0 -74 -47 -4 c-27 -3 -51 -3 -55
-1 -5 2 -8 38 -8 79 l0 74 55 0 55 0 0 -74z m150 -7 l0 -81 -57 6 c-32 3 -59
5 -60 5 -2 1 -3 35 -3 76 l0 75 60 0 60 0 0 -81z m160 1 l0 -80 -65 0 -65 0 0
80 0 80 65 0 65 0 0 -80z m-157 -172 l5 -68 -64 0 -64 0 0 65 0 64 58 3 c31 2
58 3 58 3 1 0 4 -30 7 -67z m162 1 c4 -38 6 -71 4 -73 -2 -2 -34 -1 -71 2
l-68 4 0 69 0 69 64 0 64 0 7 -71z m145 -4 l0 -75 -60 0 -60 0 0 75 0 75 60 0
60 0 0 -75z m-596 43 c3 -13 6 -42 6 -65 l0 -43 -70 0 -70 0 0 65 0 65 64 0
c58 0 64 -2 70 -22z m146 -43 l0 -65 -60 0 -60 0 0 65 0 65 60 0 60 0 0 -65z
m455 -97 c2 -7 5 -43 7 -80 l4 -68 -68 0 -68 0 0 74 0 75 48 4 c26 2 53 4 60
5 7 1 14 -4 17 -10z m-595 -75 l0 -73 -70 0 -70 0 0 73 0 72 70 0 70 0 0 -72z
m141 30 c0 -27 2 -60 4 -75 l4 -28 -65 0 -64 0 0 75 0 75 60 0 60 0 1 -47z
m149 -28 l0 -75 -65 0 -65 0 0 75 0 75 65 0 65 0 0 -75z m160 0 l0 -75 -70 0
-70 0 0 75 0 75 70 0 70 0 0 -75z"/>
</g>
</svg>
