<?xml version="1.0" standalone="no"?>
<!DOCTYPE svg PUBLIC "-//W3C//DTD SVG 20010904//EN"
 "http://www.w3.org/TR/2001/REC-SVG-20010904/DTD/svg10.dtd">
<svg version="1.0" xmlns="http://www.w3.org/2000/svg"
 width="184.000000pt" height="119.000000pt" viewBox="0 0 184.000000 119.000000"
 preserveAspectRatio="xMidYMid meet">
<metadata>
Created by potrace 1.16, written by Peter Selinger 2001-2019
</metadata>
<g transform="translate(0.000000,119.000000) scale(0.100000,-0.100000)"
fill="#000000" stroke="none">
<path d="M623 876 c-7 -8 -13 -32 -13 -53 l0 -38 -150 3 c-130 3 -150 1 -150
-12 0 -14 21 -16 149 -16 160 0 161 0 161 -55 l0 -24 -160 6 -160 6 0 -22 0
-23 160 7 160 8 0 -64 0 -64 -155 3 c-138 3 -155 2 -155 -13 0 -14 18 -16 158
-14 l157 2 3 -42 3 -42 -160 7 -161 7 0 -23 0 -23 163 4 162 4 3 -54 3 -54
439 6 c242 3 444 8 450 12 6 4 10 105 10 279 l0 274 -32 6 c-17 3 -221 9 -452
12 -370 5 -423 4 -433 -10z m867 -50 c0 -18 3 -54 6 -80 l7 -46 -67 0 -66 0 0
80 0 80 60 0 60 0 0 -34z m-515 -48 l7 -68 -66 0 -66 0 0 65 0 64 58 3 c31 2
58 3 58 3 1 0 5 -30 9 -67z m165 25 c0 -27 3 -58 6 -70 6 -22 4 -23 -65 -23
l-71 0 0 70 0 70 65 0 65 0 0 -47z m190 -23 l0 -70 -75 0 -75 0 0 70 0 70 75
0 75 0 0 -70z m-520 -5 l0 -65 -75 0 -75 0 0 65 0 65 75 0 75 0 0 -65z m529
-204 l1 -63 -31 6 c-17 3 -53 6 -80 6 l-49 0 0 80 0 79 73 3 c70 3 72 2 78
-22 4 -14 7 -54 8 -89z m161 52 c0 -38 3 -78 6 -90 6 -22 4 -23 -65 -23 l-71
0 0 83 c0 46 3 87 7 90 3 4 33 7 65 7 l58 0 0 -67z m-680 -23 l0 -80 -75 0
c-60 0 -75 -3 -75 -15 0 -12 15 -15 74 -15 85 0 86 -1 86 -102 l0 -58 -85 0
-85 0 0 175 0 175 80 0 80 0 0 -80z m162 0 l3 -80 -67 0 -68 0 0 80 0 80 64 0
64 0 4 -80z m168 0 l0 -80 -70 0 -70 0 0 80 0 80 70 0 70 0 0 -80z m364 -167
c4 -38 10 -76 12 -85 5 -16 -3 -18 -75 -18 l-81 0 0 79 c0 89 -4 86 96 90 l42
1 6 -67z m-524 -23 l0 -80 -70 0 -70 0 0 80 0 80 70 0 70 0 0 -80z m170 0 l0
-80 -75 0 -75 0 0 80 0 80 75 0 75 0 0 -80z m184 43 c3 -21 6 -57 6 -80 l0
-43 -85 0 -85 0 0 80 0 80 79 0 78 0 7 -37z"/>
</g>
</svg>
