<?xml version="1.0" standalone="no"?>
<!DOCTYPE svg PUBLIC "-//W3C//DTD SVG 20010904//EN"
 "http://www.w3.org/TR/2001/REC-SVG-20010904/DTD/svg10.dtd">
<svg version="1.0" xmlns="http://www.w3.org/2000/svg"
 width="164.000000pt" height="131.000000pt" viewBox="0 0 164.000000 131.000000"
 preserveAspectRatio="xMidYMid meet">
<metadata>
Created by potrace 1.16, written by Peter Selinger 2001-2019
</metadata>
<g transform="translate(0.000000,131.000000) scale(0.100000,-0.100000)"
fill="#000000" stroke="none">
<path d="M542 995 c-11 -12 -12 -41 -7 -126 l8 -110 -123 7 -122 7 7 -75 c4
-41 8 -99 10 -129 1 -30 6 -63 10 -73 7 -17 9 -17 20 -3 9 12 33 16 106 18 86
2 94 0 96 -17 1 -10 5 -58 8 -107 l7 -87 386 2 387 3 3 341 2 341 -47 7 c-27
3 -203 8 -393 11 -310 6 -346 5 -358 -10z m758 -158 c0 -138 15 -433 25 -489
l5 -28 -374 0 -373 0 -5 313 c-3 171 -4 315 -1 320 2 4 104 8 226 8 184 1 397
9 480 17 15 2 17 -11 17 -141z m-758 -197 l3 -100 -97 0 -98 0 0 28 c0 15 -3
57 -6 94 l-7 67 54 4 c30 2 75 4 101 5 l47 2 3 -100z"/>
<path d="M602 753 c3 -17 22 -18 263 -14 143 2 264 7 268 11 10 8 -217 20
-400 20 -123 0 -134 -2 -131 -17z"/>
<path d="M638 564 c-5 -4 -8 -14 -8 -22 0 -12 37 -13 268 -7 249 7 282 9 271
19 -8 8 -524 18 -531 10z"/>
</g>
</svg>
