<?xml version="1.0" standalone="no"?>
<!DOCTYPE svg PUBLIC "-//W3C//DTD SVG 20010904//EN"
 "http://www.w3.org/TR/2001/REC-SVG-20010904/DTD/svg10.dtd">
<svg version="1.0" xmlns="http://www.w3.org/2000/svg"
 width="152.000000pt" height="132.000000pt" viewBox="0 0 152.000000 132.000000"
 preserveAspectRatio="xMidYMid meet">
<metadata>
Created by potrace 1.16, written by Peter Selinger 2001-2019
</metadata>
<g transform="translate(0.000000,132.000000) scale(0.100000,-0.100000)"
fill="#000000" stroke="none">
<path d="M501 965 c-172 -125 -228 -223 -190 -336 21 -60 99 -168 182 -250
l80 -79 316 0 316 0 -8 302 c-4 167 -6 326 -4 354 l3 51 -134 7 c-75 3 -214 6
-311 5 l-176 -1 -74 -53z m475 4 c-31 -17 -40 -18 -47 -7 -9 14 12 22 61 26
21 1 19 -2 -14 -19z m184 -26 l0 -48 -71 -39 c-57 -31 -73 -36 -80 -25 -5 8
-20 33 -34 56 l-25 41 52 31 c41 23 65 31 106 31 l52 0 0 -47z m-407 -8 c15
-25 27 -49 27 -54 0 -4 -12 -14 -27 -22 -16 -7 -31 -15 -34 -17 -4 -1 -22 23
-40 55 -18 32 -34 60 -35 62 -2 2 -10 -2 -19 -9 -16 -13 -12 -24 39 -103 l18
-26 -40 -20 -40 -20 -4 92 c-2 51 -3 95 -1 100 3 4 32 7 66 7 l62 0 28 -45z
m133 28 c7 -10 14 -21 14 -24 0 -7 -79 -44 -83 -38 -2 2 -14 21 -26 42 l-23
37 53 0 c38 0 55 -5 65 -17z m-312 -503 l7 -145 -36 35 c-58 56 -153 178 -181
231 -64 127 -29 224 124 338 l67 51 6 -183 c4 -100 10 -247 13 -327z m375 399
c17 -28 31 -54 31 -58 0 -6 -63 -41 -74 -41 -6 0 -69 101 -65 104 5 3 74 46
75 46 1 0 15 -23 33 -51z m228 -544 c-1 -1 -66 0 -143 3 -139 4 -142 5 -153
29 -15 32 -15 30 19 48 39 20 43 20 64 -16 23 -39 33 -31 12 10 -9 16 -16 32
-16 34 0 2 18 16 40 31 l39 26 32 -46 c39 -57 48 -52 14 9 l-26 46 35 23 c33
21 46 39 29 38 -5 -1 -24 -9 -43 -19 l-35 -19 -27 46 c-15 26 -28 50 -28 54 0
13 82 50 90 41 4 -4 21 -27 37 -50 41 -57 49 -44 12 19 l-30 51 28 24 c21 18
23 23 8 18 -49 -17 -51 -17 -78 33 l-27 50 62 39 63 39 12 -280 c7 -154 12
-280 10 -281z m-337 475 c18 -28 31 -52 29 -54 -10 -9 -71 -37 -73 -34 -9 11
-56 96 -56 101 0 6 50 36 61 37 4 0 21 -23 39 -50z m-109 -51 l33 -51 -25 -19
c-13 -10 -26 -19 -29 -19 -3 0 -20 24 -36 53 l-31 54 26 15 c14 9 27 17 27 17
1 1 17 -22 35 -50z m313 -30 c16 -27 16 -27 -27 -47 -47 -23 -51 -21 -82 39
-14 26 -13 28 23 52 l37 25 16 -21 c9 -11 24 -33 33 -48z m-400 -31 l27 -47
-30 -15 c-16 -9 -32 -16 -36 -16 -3 0 -5 32 -5 72 0 78 3 78 44 6z m272 -8
c15 -22 25 -42 23 -44 -6 -6 -68 -36 -73 -36 -5 0 -46 64 -46 73 0 4 60 46 67
47 2 0 15 -18 29 -40z m-107 -54 c27 -42 27 -43 -8 -61 -29 -14 -30 -14 -50
19 -12 18 -21 36 -21 39 0 5 45 34 57 37 1 0 11 -15 22 -34z m181 -60 c16 -25
30 -47 30 -50 0 -7 -81 -49 -84 -44 -2 2 -15 23 -29 48 l-26 45 37 22 c20 13
38 23 39 23 1 0 16 -20 33 -44z m-269 -3 l21 -32 -66 -33 c-70 -34 -71 -35
-57 -57 7 -11 21 -7 75 22 l65 36 31 -44 c16 -24 30 -45 30 -47 0 -3 -27 -17
-60 -33 -33 -16 -60 -32 -60 -37 0 -4 -22 -8 -50 -8 l-50 0 0 115 0 115 38 19
c47 26 58 23 83 -16z m163 -53 c14 -22 26 -44 26 -50 0 -9 -59 -45 -64 -38 -2
2 -15 23 -29 47 l-26 45 27 17 c37 24 36 24 66 -21z m-26 -152 c22 -22 13 -28
-40 -28 l-53 1 35 19 c42 23 43 23 58 8z"/>
</g>
</svg>
