<?xml version="1.0" standalone="no"?>
<!DOCTYPE svg PUBLIC "-//W3C//DTD SVG 20010904//EN"
 "http://www.w3.org/TR/2001/REC-SVG-20010904/DTD/svg10.dtd">
<svg version="1.0" xmlns="http://www.w3.org/2000/svg"
 width="169.000000pt" height="543.000000pt" viewBox="0 0 169.000000 543.000000"
 preserveAspectRatio="xMidYMid meet">
<metadata>
Created by potrace 1.16, written by Peter Selinger 2001-2019
</metadata>
<g transform="translate(0.000000,543.000000) scale(0.100000,-0.100000)"
fill="#000000" stroke="none">
<path d="M845 5117 c-22 -8 -72 -30 -110 -50 -64 -34 -72 -42 -97 -95 -16 -32
-28 -64 -28 -71 0 -9 -34 -11 -140 -9 -131 3 -140 2 -140 -15 0 -18 9 -19 133
-15 l134 3 -9 -40 c-5 -22 -8 -64 -6 -94 l3 -53 -132 7 -133 7 0 -22 c0 -23 1
-23 135 -18 l135 5 30 -51 c16 -28 53 -80 83 -117 45 -54 63 -68 108 -83 131
-43 204 -32 342 52 l78 48 41 99 c52 129 57 181 29 276 -20 67 -41 99 -63 99
-4 0 -7 -9 -5 -21 2 -16 -10 -25 -58 -46 l-60 -25 -32 38 c-18 20 -33 41 -33
44 0 4 24 18 52 30 41 18 58 20 78 13 61 -25 65 -25 35 2 -16 14 -68 45 -114
68 -69 34 -95 42 -150 44 -36 2 -84 -3 -106 -10z m219 -57 c37 -12 64 -25 62
-29 -3 -5 -26 -14 -52 -21 -44 -13 -47 -12 -63 9 -11 14 -23 20 -34 15 -21 -8
-21 -13 -1 -35 15 -17 14 -19 -21 -33 -21 -9 -40 -16 -44 -16 -3 0 -19 18 -34
40 -18 25 -33 37 -42 33 -21 -7 -19 -17 11 -53 15 -17 25 -32 23 -34 -12 -10
-50 -26 -62 -26 -12 0 -77 79 -77 94 0 8 57 36 115 57 66 24 138 24 219 -1z
m-304 -172 c0 -5 -6 -8 -12 -8 -7 0 -33 -9 -57 -20 -36 -17 -41 -22 -31 -35 7
-8 16 -13 20 -10 8 5 70 -63 70 -76 0 -4 -10 -9 -22 -12 -36 -9 -59 -30 -49
-45 6 -10 17 -9 54 7 l46 20 21 -26 c11 -14 20 -29 20 -32 0 -4 -26 -16 -57
-28 -35 -12 -59 -27 -61 -37 -5 -23 18 -20 85 9 l57 26 35 -35 35 -35 -39 -17
c-22 -9 -50 -20 -62 -25 -25 -9 -32 -39 -9 -39 7 0 39 11 71 25 l58 26 23 -22
c26 -24 30 -20 13 12 -9 17 -5 22 28 35 37 16 37 16 60 -12 12 -16 25 -26 28
-23 3 3 -4 18 -15 32 l-21 26 43 22 42 21 34 -37 c41 -44 51 -41 17 5 -14 19
-25 37 -25 40 0 4 16 14 36 24 48 22 39 30 -13 12 l-41 -14 -31 39 -32 39 45
22 46 22 36 -42 c48 -56 63 -54 24 4 -18 25 -30 47 -28 48 1 2 14 9 26 15 31
17 22 24 -13 11 -31 -12 -41 -6 -68 39 l-18 30 60 31 60 30 17 -57 c21 -73 15
-150 -22 -266 l-28 -89 -65 -32 c-150 -75 -199 -79 -344 -29 l-78 27 -46 93
c-67 134 -69 197 -12 348 l21 56 34 -43 c18 -24 34 -46 34 -50z m310 -11 c0
-7 -60 -37 -74 -37 -2 0 -18 18 -36 40 l-31 39 38 20 38 20 32 -37 c18 -20 33
-41 33 -45z m-143 -69 c-18 -9 -35 -17 -38 -18 -3 0 -20 20 -37 44 l-31 43 37
15 37 14 32 -40 32 -41 -32 -17z m-108 11 c18 -22 31 -41 30 -43 -2 -1 -16 -7
-32 -14 -26 -11 -29 -9 -57 30 l-31 42 23 13 c32 17 31 18 67 -28z m306 -5
c15 -19 25 -37 24 -38 -7 -6 -72 -26 -83 -26 -11 0 -51 58 -44 64 7 7 63 35
69 36 4 0 19 -16 34 -36z m-98 -78 c-2 -5 -20 -15 -40 -22 -35 -12 -37 -12
-58 17 -12 17 -20 32 -18 33 2 2 18 10 34 19 29 15 31 14 58 -11 15 -14 26
-30 24 -36z m-127 -16 l21 -29 -30 -15 c-29 -15 -30 -15 -50 10 -26 34 -26 38
2 52 32 15 34 15 57 -18z m187 -49 l32 -39 -39 -16 c-22 -9 -44 -16 -48 -16
-9 0 -56 69 -51 74 7 6 64 35 69 35 3 1 20 -17 37 -38z m-108 -45 l34 -35 -38
-16 c-21 -8 -41 -12 -45 -8 -4 5 -17 21 -29 38 l-23 30 29 12 c38 16 35 17 72
-21z"/>
<path d="M895 4179 c-53 -9 -130 -40 -188 -75 -36 -22 -52 -40 -72 -85 -14
-31 -25 -62 -25 -68 0 -9 -38 -11 -142 -9 l-143 3 -5 -50 c-3 -27 -3 -83 -2
-124 l4 -74 136 6 137 6 28 -52 c42 -80 122 -173 165 -190 60 -24 152 -40 194
-33 62 10 258 117 258 141 0 5 16 47 36 92 47 111 53 170 25 264 -21 68 -41
99 -64 99 -4 0 -6 -8 -3 -18 5 -15 -6 -24 -56 -46 l-63 -27 -32 38 c-18 21
-32 41 -30 46 1 4 25 18 53 31 50 23 51 23 85 5 64 -34 69 -17 6 23 -123 78
-225 110 -302 97z m158 -64 c83 -25 86 -30 28 -50 -51 -16 -52 -16 -69 5 -11
14 -23 19 -35 14 -16 -6 -16 -8 -2 -30 17 -26 19 -24 -52 -49 -7 -2 -26 14
-43 35 -19 24 -36 37 -45 33 -21 -7 -19 -17 10 -51 14 -17 25 -32 25 -35 0
-10 -72 -29 -79 -21 -4 5 -22 28 -39 50 l-32 41 68 31 c37 16 74 32 82 35 31
11 136 6 183 -8z m-303 -157 c11 -18 -9 -30 -78 -52 -18 -6 -20 -11 -11 -27 5
-11 14 -17 20 -14 9 6 39 -23 60 -58 9 -16 5 -20 -30 -34 -23 -9 -41 -20 -41
-25 0 -18 33 -20 68 -4 36 18 37 18 59 -9 13 -14 21 -30 18 -35 -3 -5 -28 -16
-56 -25 -47 -16 -70 -37 -55 -52 3 -3 37 6 75 22 l69 27 30 -33 c17 -19 28
-37 24 -40 -4 -3 -33 -16 -64 -28 -40 -16 -55 -27 -51 -37 7 -19 9 -18 83 12
l62 25 24 -22 c20 -18 24 -19 24 -6 0 9 -4 19 -10 22 -18 11 -11 21 27 34 35
13 38 12 59 -13 32 -36 40 -33 16 6 l-20 32 41 18 41 19 38 -38 c44 -43 50
-37 12 13 -15 19 -25 36 -23 38 2 2 20 12 39 21 44 23 25 31 -23 11 -35 -14
-36 -14 -60 17 -39 53 -39 53 10 72 l46 18 38 -44 c44 -50 53 -36 12 18 -16
21 -23 38 -17 40 6 2 20 11 30 19 19 15 18 15 -1 11 -11 -3 -27 -8 -36 -11
-11 -5 -24 5 -44 34 -15 22 -26 41 -24 43 2 1 30 14 61 29 l57 27 17 -51 c22
-67 15 -155 -22 -272 l-28 -89 -85 -39 c-126 -58 -156 -63 -243 -44 -40 10
-93 27 -118 39 -40 19 -50 32 -89 109 -65 127 -66 193 -10 344 l21 56 24 -28
c13 -16 29 -37 34 -46z m293 -50 c-21 -9 -41 -17 -45 -17 -3 -1 -20 18 -38 41
l-31 43 38 17 38 16 38 -41 37 -42 -37 -17z m-113 7 l32 -40 -39 -16 -38 -16
-32 41 -33 41 37 17 c21 9 38 16 39 15 1 -1 17 -20 34 -42z m-342 -31 c-5 -20
-8 -63 -6 -95 l3 -59 -120 6 c-66 4 -121 7 -122 8 -1 1 1 38 4 83 l6 82 96 4
c53 1 108 4 123 5 26 2 26 1 16 -34z m232 -13 c30 -38 30 -40 11 -50 -33 -18
-47 -13 -74 28 l-26 39 22 10 c32 16 33 15 67 -27z m304 -3 c13 -18 23 -35 20
-39 -2 -4 -21 -13 -41 -20 -34 -11 -38 -10 -60 15 -30 35 -29 42 5 60 39 22
48 20 76 -16z m-115 -49 c27 -34 27 -33 -21 -53 -34 -15 -35 -15 -57 15 -13
17 -21 32 -19 33 7 7 63 35 68 35 3 0 16 -14 29 -30z m-110 -45 c24 -31 21
-39 -16 -48 -21 -6 -31 -2 -49 21 l-22 28 27 12 c37 16 37 16 60 -13z m190
-53 l31 -39 -45 -15 -45 -16 -25 33 c-14 18 -25 36 -25 40 0 6 57 35 72 36 3
0 20 -18 37 -39z m-110 -43 l30 -33 -32 -17 c-18 -9 -35 -17 -38 -18 -4 0 -18
17 -32 39 l-26 39 22 10 c35 17 45 14 76 -20z"/>
<path d="M603 3065 c-8 -9 -13 -44 -13 -95 l0 -81 -130 3 c-120 3 -130 2 -130
-15 0 -17 9 -18 130 -15 151 4 140 14 140 -132 l0 -95 -131 3 c-122 3 -131 2
-127 -15 3 -17 14 -18 136 -15 l132 4 0 -44 c0 -23 3 -61 7 -82 l6 -39 346 7
c374 7 495 17 336 28 -49 3 -135 7 -190 8 -82 1 -103 4 -119 19 -18 18 -17 19
34 36 l52 17 29 -28 c33 -32 40 -22 8 12 l-21 23 38 16 c70 29 77 28 114 -10
48 -49 60 -44 15 7 l-38 41 41 16 c75 30 62 44 -16 17 -39 -14 -41 -14 -64 12
-53 59 -53 57 7 82 l56 23 50 -49 c29 -29 49 -42 49 -33 0 8 -13 28 -30 44
-38 36 -38 48 2 63 44 16 28 27 -18 12 -38 -13 -39 -12 -71 25 -18 21 -33 41
-33 44 0 3 35 20 78 37 l77 32 6 -27 c4 -14 7 -75 9 -136 4 -228 17 -202 19
36 l1 237 -142 6 c-79 3 -253 7 -388 10 -200 4 -247 2 -257 -9z m527 -30 c0
-11 -52 -25 -63 -18 -7 5 2 10 23 14 19 4 36 7 38 8 1 0 2 -1 2 -4z m230 -33
l0 -37 -92 -33 -93 -33 -37 40 c-21 22 -38 44 -38 49 0 19 116 51 188 51 l72
1 0 -38z m-515 -12 l38 -39 -27 -11 c-67 -25 -71 -24 -119 29 -31 35 -50 49
-61 45 -24 -9 -20 -20 24 -68 l41 -44 -47 -16 c-26 -9 -51 -16 -56 -16 -4 0
-8 36 -8 80 l0 80 88 0 88 0 39 -40z m165 25 c16 -19 16 -18 -42 -38 -45 -15
-47 -14 -66 6 -39 44 -37 47 31 47 46 0 68 -4 77 -15z m82 -82 c21 -20 38 -40
38 -44 0 -4 -23 -15 -52 -25 l-52 -17 -38 44 -38 44 37 17 c54 24 63 22 105
-19z m-143 -57 l43 -44 -48 -16 -48 -16 -44 44 -44 44 43 15 c24 8 46 16 49
16 3 1 25 -19 49 -43z m-134 -46 c21 -22 37 -41 34 -43 -2 -2 -19 -9 -38 -16
-33 -11 -37 -10 -73 26 -21 20 -38 40 -38 44 0 7 45 27 65 28 6 1 28 -17 50
-39z m378 -6 c21 -20 37 -37 35 -39 -2 -1 -28 -10 -58 -19 l-55 -16 -27 32
c-16 18 -28 35 -28 39 0 6 67 37 85 38 6 0 27 -16 48 -35z m-501 -38 l37 -43
-37 -12 c-20 -7 -43 -15 -49 -17 -10 -4 -13 9 -13 49 0 82 10 86 62 23z m383
-46 c-3 -4 -25 -13 -50 -20 -45 -12 -47 -12 -76 16 -33 31 -30 38 26 58 39 13
41 13 72 -17 18 -16 30 -33 28 -37z m-157 -20 l22 -29 -40 -12 c-39 -12 -42
-11 -71 17 l-30 29 38 16 c45 19 53 17 81 -21z m-124 -39 l28 -29 -81 -27
c-45 -15 -81 -28 -81 -30 0 -2 3 -10 6 -18 5 -13 19 -11 95 15 l89 32 35 -34
c19 -19 35 -37 35 -40 0 -15 -170 -60 -228 -60 l-62 0 1 93 2 93 51 16 c72 22
79 21 110 -11z m359 -9 l37 -38 -56 -18 -56 -18 -40 39 -39 38 38 17 c57 25
75 22 116 -20z m-113 -82 c0 -4 -19 -12 -41 -19 -40 -12 -42 -12 -75 20 -19
18 -34 36 -34 40 0 3 17 13 38 21 37 15 37 15 75 -20 20 -20 37 -39 37 -42z
m-70 -85 c11 -13 6 -15 -36 -14 l-49 1 35 13 c19 7 36 14 36 14 1 1 7 -6 14
-14z"/>
<path d="M609 2052 c-10 -13 -13 -41 -11 -112 l4 -96 -128 4 c-115 4 -129 3
-141 -14 -14 -20 -18 -208 -5 -279 7 -37 8 -38 15 -15 4 14 10 79 14 146 l6
121 115 6 c64 4 117 5 118 4 0 -1 4 -62 8 -135 l6 -133 -127 2 c-126 1 -128 1
-131 -21 l-4 -23 130 8 130 7 6 -64 c3 -34 7 -76 8 -93 l3 -30 235 0 c275 1
530 13 530 26 0 5 -84 9 -187 9 l-188 1 -18 25 -18 25 46 20 47 21 34 -33 c37
-36 45 -29 14 11 -11 14 -20 28 -20 31 0 4 24 17 52 29 l53 23 42 -49 c50 -56
57 -47 12 14 -17 24 -30 44 -28 46 2 2 24 14 49 26 52 27 40 39 -15 16 -21 -9
-43 -16 -49 -16 -17 0 -79 91 -69 101 4 4 29 17 55 28 l47 20 45 -52 c24 -28
47 -49 50 -46 3 3 -11 29 -31 57 -20 29 -34 53 -32 55 2 1 20 10 39 20 35 17
35 17 5 12 -61 -12 -66 -10 -100 36 l-34 45 83 41 83 41 8 -196 c12 -326 22
-322 24 9 1 282 0 307 -16 314 -10 3 -159 8 -333 11 -173 2 -338 6 -366 8 -39
3 -54 0 -65 -12z m751 -69 l0 -48 -91 -38 c-101 -42 -97 -43 -147 26 l-31 44
50 23 c52 25 106 37 177 39 l42 1 0 -47z m-248 21 c-33 -14 -52 -12 -52 7 0 5
19 9 43 8 l42 -1 -33 -14z m-267 -40 c20 -25 36 -46 34 -47 -14 -9 -81 -37
-88 -37 -4 0 -27 27 -51 60 -36 50 -46 58 -61 49 -11 -5 -19 -12 -19 -15 0 -3
18 -27 40 -53 22 -26 40 -51 40 -54 0 -7 -83 -47 -96 -47 -2 0 -4 43 -4 95 l0
95 84 0 84 0 37 -46z m169 27 c16 -17 14 -19 -36 -39 l-53 -20 -18 21 c-44 54
-43 57 26 57 50 0 68 -4 81 -19z m107 -134 c8 -15 3 -20 -36 -37 -26 -11 -50
-20 -54 -20 -12 0 -85 104 -75 107 5 2 27 12 49 22 l40 19 33 -36 c18 -21 37
-45 43 -55z m-168 -27 l39 -50 -47 -20 c-26 -11 -48 -20 -50 -20 -1 0 -21 24
-43 54 l-41 54 37 15 c56 23 64 20 105 -33z m-139 -51 c21 -28 37 -51 35 -53
-10 -8 -71 -37 -73 -34 -2 2 -19 25 -40 53 l-37 49 33 18 c18 9 35 17 38 17 3
0 22 -22 44 -50z m378 -7 l37 -46 -56 -23 c-31 -13 -57 -23 -58 -23 -1 0 -16
20 -34 45 l-32 44 48 25 c26 14 50 25 53 25 3 0 22 -21 42 -47z m-498 -42 c21
-28 37 -52 35 -54 -5 -5 -80 -36 -85 -36 -2 0 -4 32 -4 70 0 39 4 70 8 70 4 0
25 -23 46 -50z m356 -20 l32 -40 -29 -11 c-15 -6 -39 -15 -51 -20 -19 -7 -28
-5 -43 13 -44 51 -43 57 3 78 24 10 46 19 50 19 3 1 21 -17 38 -39z m-135 -56
c15 -19 25 -37 24 -39 -2 -1 -20 -10 -41 -18 l-36 -15 -30 37 -31 38 32 16
c46 22 51 21 82 -19z m-122 -50 c16 -19 27 -37 25 -38 -1 -1 -30 -13 -63 -26
-87 -34 -95 -39 -89 -55 9 -21 23 -19 99 15 37 17 72 30 79 30 6 0 28 -20 48
-44 l37 -43 -72 -28 c-40 -15 -76 -32 -81 -36 -6 -5 -38 -9 -73 -9 l-63 0 1
113 1 112 51 21 c70 29 68 29 100 -12z m353 -9 c20 -25 35 -47 33 -49 -2 -3
-27 -13 -55 -24 l-51 -21 -24 32 c-55 73 -55 65 -7 86 24 11 48 20 55 20 6 1
28 -19 49 -44z m-129 -61 l34 -42 -47 -18 -47 -18 -24 30 c-45 54 -46 62 -16
78 41 23 61 16 100 -30z m-39 -144 c12 -19 10 -20 -50 -19 l-63 1 40 19 c51
24 57 23 73 -1z"/>
<path d="M821 1080 c-29 -4 -73 -16 -97 -25 -38 -14 -48 -24 -68 -70 -14 -29
-28 -69 -32 -89 l-6 -37 -155 3 -156 3 -1 -134 -1 -134 139 7 c76 4 144 10
150 12 9 3 16 -27 25 -103 20 -175 30 -157 31 57 l0 196 24 -1 c17 0 35 -14
60 -46 l35 -47 -49 -20 c-37 -15 -48 -25 -44 -36 8 -21 27 -20 75 5 23 11 42
19 43 17 2 -2 14 -19 29 -38 l26 -35 -75 -30 c-70 -28 -88 -45 -63 -60 5 -4
44 8 86 26 l76 34 33 -39 c19 -22 34 -42 34 -46 0 -4 -32 -19 -71 -35 -52 -20
-69 -31 -65 -42 5 -12 1 -14 -21 -8 -22 5 -72 26 -105 43 -5 2 -8 -10 -8 -26
0 -25 6 -32 38 -45 82 -33 158 -40 330 -32 213 9 242 11 247 17 7 7 53 219 70
323 20 124 28 280 18 334 -8 42 -10 44 -58 57 -168 42 -383 62 -494 44z m349
-48 l44 -7 -66 -26 -66 -26 -21 28 c-13 17 -27 26 -36 23 -19 -8 -19 -23 1
-45 16 -18 14 -20 -30 -39 -26 -11 -49 -20 -51 -20 -2 0 -18 20 -35 45 -30 44
-52 56 -65 35 -4 -6 8 -28 26 -51 17 -22 30 -41 28 -43 -10 -8 -69 -36 -77
-36 -5 0 -27 25 -48 55 -22 33 -43 54 -51 51 -7 -3 -13 1 -13 9 0 13 64 37
130 48 41 7 282 6 330 -1z m118 -8 c21 -6 25 -14 36 -80 5 -29 3 -31 -69 -62
-41 -18 -76 -32 -79 -32 -7 0 -79 100 -75 104 2 2 32 16 66 31 35 15 60 31 57
36 -6 10 30 12 64 3z m-545 -124 l38 -50 -23 -9 c-13 -5 -40 -16 -62 -25 l-39
-16 7 42 c8 54 26 108 34 108 4 -1 24 -23 45 -50z m355 -15 c17 -24 32 -48 32
-52 0 -4 -21 -16 -46 -27 -44 -18 -45 -18 -60 0 -24 32 -56 85 -53 87 16 10
76 36 84 36 6 0 25 -20 43 -44z m232 -34 c0 -72 -9 -96 -43 -109 -24 -9 -33
-9 -38 1 -4 6 -19 27 -33 46 l-26 35 58 32 c74 43 82 43 82 -5z m-373 -18 c48
-62 48 -62 1 -82 l-43 -18 -37 51 -37 51 37 17 c50 22 46 23 79 -19z m-347
-94 l0 -100 -137 7 c-76 4 -139 7 -140 8 -2 2 0 39 4 83 l6 80 131 10 c72 5
132 10 134 11 1 1 2 -43 2 -99z m232 31 l38 -50 -30 -15 c-16 -8 -33 -15 -38
-15 -7 0 -72 85 -72 95 0 5 52 34 60 34 3 0 22 -22 42 -49z m346 -2 c17 -22
32 -43 32 -47 0 -8 -99 -46 -103 -40 -2 2 -15 21 -30 41 l-27 37 43 24 c23 14
44 25 47 25 3 1 20 -17 38 -40z m-129 -65 l31 -37 -48 -19 -47 -19 -27 33
c-16 18 -28 36 -28 40 0 6 64 35 82 38 3 1 20 -16 37 -36z m256 -20 l-6 -25
-21 27 c-11 14 -19 27 -17 29 2 2 13 8 24 14 23 13 31 -3 20 -45z m-37 -22
c18 -22 32 -46 32 -53 0 -17 -98 -54 -109 -42 -27 32 -62 86 -59 89 5 6 92 45
99 45 3 0 20 -18 37 -39z m-320 -46 c-2 -2 -20 -11 -40 -19 l-35 -15 -27 37
-26 37 37 16 37 15 29 -33 c16 -19 28 -36 25 -38z m222 -66 c0 -7 -80 -39 -95
-39 -10 0 -65 72 -65 85 0 3 19 15 43 25 l42 20 37 -42 c21 -24 38 -46 38 -49z
m-153 -12 l32 -42 -37 -17 c-20 -9 -40 -17 -44 -17 -4 -1 -21 19 -38 44 l-30
44 27 15 c42 23 55 19 90 -27z m272 11 c0 -13 -3 -41 -7 -63 l-8 -40 -27 40
c-15 22 -27 43 -27 47 0 7 49 37 63 38 4 0 7 -10 6 -22z m-54 -72 c37 -41 40
-48 37 -90 l-4 -46 -152 1 c-83 1 -182 4 -221 8 l-70 6 61 28 c73 32 85 33
102 7 7 -11 17 -20 23 -20 7 0 4 11 -6 26 -19 29 -15 35 34 54 33 13 35 13 62
-18 33 -37 39 -24 9 18 l-20 28 48 20 c26 12 49 21 52 22 2 0 22 -20 45 -44z"/>
</g>
</svg>
