<?xml version="1.0" standalone="no"?>
<!DOCTYPE svg PUBLIC "-//W3C//DTD SVG 20010904//EN"
 "http://www.w3.org/TR/2001/REC-SVG-20010904/DTD/svg10.dtd">
<svg version="1.0" xmlns="http://www.w3.org/2000/svg"
 width="192.000000pt" height="131.000000pt" viewBox="0 0 192.000000 131.000000"
 preserveAspectRatio="xMidYMid meet">
<metadata>
Created by potrace 1.16, written by Peter Selinger 2001-2019
</metadata>
<g transform="translate(0.000000,131.000000) scale(0.100000,-0.100000)"
fill="#000000" stroke="none">
<path d="M360 1006 c0 -3 -7 -38 -16 -78 -15 -68 -34 -220 -36 -278 -2 -47
157 -350 182 -350 5 0 -12 44 -37 98 -25 53 -61 137 -80 186 -38 101 -38 101
3 294 29 137 29 132 4 132 -11 0 -20 -2 -20 -4z"/>
<path d="M464 951 c-2 -2 -4 -13 -4 -24 0 -20 5 -20 156 -13 86 3 164 11 173
16 9 5 12 10 6 11 -35 4 -327 13 -331 10z"/>
<path d="M874 951 c-2 -2 -4 -13 -4 -24 0 -20 5 -20 157 -13 87 3 162 11 167
16 6 6 8 10 6 11 -18 4 -323 13 -326 10z"/>
<path d="M1290 815 l0 -28 123 7 c256 14 268 30 30 41 l-153 8 0 -28z"/>
<path d="M460 795 l0 -25 103 5 c160 9 227 16 227 24 0 9 -147 21 -257 21 -71
0 -73 -1 -73 -25z"/>
<path d="M870 795 l0 -25 103 5 c160 9 227 16 227 24 0 9 -155 21 -262 21 -66
0 -68 -1 -68 -25z"/>
<path d="M874 701 c-2 -2 -4 -13 -4 -24 0 -20 5 -20 157 -13 87 3 162 11 167
16 6 6 8 10 6 11 -18 4 -323 13 -326 10z"/>
<path d="M460 678 c0 -21 1 -21 162 -14 88 4 166 10 172 14 19 12 -65 21 -201
21 -130 1 -133 0 -133 -21z"/>
<path d="M460 548 c0 -21 1 -21 161 -14 89 3 166 9 173 13 19 13 -64 22 -201
22 -130 1 -133 0 -133 -21z"/>
<path d="M870 550 l0 -23 162 7 c89 4 164 9 167 11 14 14 -26 20 -169 23
l-160 4 0 -22z"/>
</g>
</svg>
