<?xml version="1.0" standalone="no"?>
<!DOCTYPE svg PUBLIC "-//W3C//DTD SVG 20010904//EN"
 "http://www.w3.org/TR/2001/REC-SVG-20010904/DTD/svg10.dtd">
<svg version="1.0" xmlns="http://www.w3.org/2000/svg"
 width="144.000000pt" height="192.000000pt" viewBox="0 0 144.000000 192.000000"
 preserveAspectRatio="xMidYMid meet">
<metadata>
Created by potrace 1.16, written by Peter Selinger 2001-2019
</metadata>
<g transform="translate(0.000000,192.000000) scale(0.100000,-0.100000)"
fill="#000000" stroke="none">
<path d="M656 1538 c-183 -313 -344 -598 -350 -622 -6 -25 -1 -34 41 -73 115
-107 241 -179 332 -190 l50 -6 -21 -51 c-49 -123 -99 -268 -96 -278 3 -9 44
-11 144 -9 197 3 293 39 356 132 28 42 28 42 28 215 0 99 -5 185 -11 201 -6
15 -12 40 -14 55 -2 14 -73 147 -158 295 -225 390 -239 413 -246 413 -4 0 -29
-37 -55 -82z m133 -91 c41 -78 123 -231 183 -339 59 -108 108 -201 108 -205 0
-5 -19 -27 -42 -49 -116 -110 -228 -168 -324 -168 -52 0 -75 7 -136 37 -61 30
-213 144 -231 174 -3 5 53 116 124 248 71 132 153 286 182 342 29 57 54 103
57 103 3 0 38 -64 79 -143z m330 -660 c21 -152 6 -275 -43 -345 -27 -40 -101
-87 -145 -94 -23 -3 -29 7 -87 152 l-62 155 51 18 c67 22 176 103 224 165 23
29 41 44 45 38 3 -6 11 -46 17 -89z m-303 -294 c28 -87 51 -158 50 -159 -1 0
-47 1 -103 4 -67 3 -103 8 -103 16 0 28 85 296 95 296 5 0 33 -71 61 -157z"/>
</g>
</svg>
