<?xml version="1.0" standalone="no"?>
<!DOCTYPE svg PUBLIC "-//W3C//DTD SVG 20010904//EN"
 "http://www.w3.org/TR/2001/REC-SVG-20010904/DTD/svg10.dtd">
<svg version="1.0" xmlns="http://www.w3.org/2000/svg"
 width="144.000000pt" height="192.000000pt" viewBox="0 0 144.000000 192.000000"
 preserveAspectRatio="xMidYMid meet">
<metadata>
Created by potrace 1.16, written by Peter Selinger 2001-2019
</metadata>
<g transform="translate(0.000000,192.000000) scale(0.100000,-0.100000)"
fill="#000000" stroke="none">
<path d="M678 1578 c-14 -24 -101 -176 -195 -338 -94 -162 -173 -309 -177
-326 -6 -29 -3 -35 51 -81 140 -118 229 -169 321 -180 l51 -6 -15 -36 c-36
-83 -105 -283 -102 -293 3 -8 48 -10 144 -9 200 3 296 40 358 136 25 38 26 43
26 211 0 99 -5 185 -11 201 -6 15 -12 40 -14 54 -2 14 -73 147 -158 295 -226
393 -239 414 -247 414 -5 0 -19 -19 -32 -42z m111 -131 c41 -78 123 -232 184
-341 84 -152 108 -203 100 -215 -22 -35 -152 -134 -221 -168 -98 -49 -169 -51
-263 -6 -69 32 -164 101 -216 155 l-32 33 135 250 c74 138 156 292 182 342 26
51 49 93 52 93 3 0 38 -64 79 -143z m332 -672 c14 -107 5 -233 -20 -289 -30
-67 -105 -128 -170 -137 -23 -4 -29 6 -87 151 l-62 155 41 14 c67 22 175 99
225 160 29 35 50 53 54 46 4 -6 12 -51 19 -100z m-305 -282 c28 -87 51 -158
50 -159 -1 0 -47 1 -103 4 -67 3 -103 8 -103 16 0 28 85 296 95 296 5 0 33
-71 61 -157z"/>
</g>
</svg>
