<?xml version="1.0" standalone="no"?>
<!DOCTYPE svg PUBLIC "-//W3C//DTD SVG 20010904//EN"
 "http://www.w3.org/TR/2001/REC-SVG-20010904/DTD/svg10.dtd">
<svg version="1.0" xmlns="http://www.w3.org/2000/svg"
 width="164.000000pt" height="111.000000pt" viewBox="0 0 164.000000 111.000000"
 preserveAspectRatio="xMidYMid meet">
<metadata>
Created by potrace 1.16, written by Peter Selinger 2001-2019
</metadata>
<g transform="translate(0.000000,111.000000) scale(0.100000,-0.100000)"
fill="#000000" stroke="none">
<path d="M866 789 c-32 -11 -83 -37 -113 -57 -121 -81 -129 -84 -228 -78 -49
2 -112 12 -140 20 -88 27 -86 32 -83 -182 3 -213 5 -216 80 -164 98 67 222
111 270 96 12 -4 45 -22 73 -40 123 -80 283 -97 398 -40 63 30 146 101 189
160 47 65 32 60 -42 -13 -125 -125 -262 -172 -400 -137 -58 15 -210 92 -210
107 0 3 87 9 193 12 241 9 328 17 320 30 -4 7 -93 8 -260 3 l-254 -7 3 33 3
33 164 6 c250 10 352 19 345 31 -5 8 -87 9 -260 4 -253 -8 -254 -7 -254 13 0
12 3 21 8 21 4 0 32 19 62 41 177 133 364 123 548 -30 34 -28 62 -49 62 -45 0
19 -57 78 -114 119 -118 84 -239 106 -360 64z m-460 -162 c1 -1 5 -54 8 -117
l7 -115 -47 -23 c-25 -13 -47 -22 -48 -20 -1 2 0 68 2 146 l4 144 36 -7 c21
-4 38 -8 38 -8z m223 -168 c-8 -5 -27 -9 -44 -9 l-30 0 3 84 3 85 32 3 32 3 9
-78 c7 -64 6 -81 -5 -88z m-97 71 l3 -89 -40 -16 c-23 -8 -44 -15 -49 -15 -8
0 -6 172 2 198 2 7 21 12 42 12 l39 0 3 -90z"/>
</g>
</svg>
