<?xml version="1.0" standalone="no"?>
<!DOCTYPE svg PUBLIC "-//W3C//DTD SVG 20010904//EN"
 "http://www.w3.org/TR/2001/REC-SVG-20010904/DTD/svg10.dtd">
<svg version="1.0" xmlns="http://www.w3.org/2000/svg"
 width="197.000000pt" height="111.000000pt" viewBox="0 0 197.000000 111.000000"
 preserveAspectRatio="xMidYMid meet">
<metadata>
Created by potrace 1.16, written by Peter Selinger 2001-2019
</metadata>
<g transform="translate(0.000000,111.000000) scale(0.100000,-0.100000)"
fill="#000000" stroke="none">
<path d="M1173 796 c-13 -15 -179 -57 -306 -77 -101 -16 -276 -6 -386 21 -67
16 -86 18 -93 8 -4 -7 -26 -60 -49 -117 l-41 -104 28 -84 c42 -127 39 -125
148 -95 79 22 113 25 256 26 172 1 257 -11 402 -56 l68 -20 122 52 c140 59
338 160 338 172 0 11 7 13 -109 -37 l-104 -45 -273 0 c-242 0 -274 -2 -274
-16 0 -14 24 -15 218 -9 119 3 233 8 252 11 53 8 27 -8 -88 -55 l-104 -42
-141 36 c-105 27 -171 38 -254 42 l-112 6 6 123 c5 111 4 124 -10 124 -15 0
-17 -15 -17 -125 0 -99 -3 -125 -14 -125 -7 0 -27 -3 -44 -6 l-30 -6 6 136 c4
125 3 136 -13 136 -15 0 -17 -12 -14 -137 l4 -138 -30 -6 c-65 -14 -66 -13
-61 39 3 26 8 93 11 150 6 98 5 102 -15 102 -19 0 -20 -6 -20 -112 1 -62 4
-131 9 -154 8 -41 8 -41 -29 -51 l-37 -9 -18 90 c-10 50 -22 94 -27 97 -7 4
21 61 87 176 1 2 48 -7 106 -18 85 -17 128 -20 234 -16 128 5 165 12 336 64
l87 25 88 -33 89 -34 -222 -9 c-176 -7 -223 -11 -223 -22 0 -11 20 -12 93 -9
50 3 165 7 253 10 l162 4 123 -49 c135 -55 133 -54 124 -40 -10 17 -168 93
-329 159 -82 34 -149 61 -150 61 0 -1 -6 -7 -13 -14z"/>
<path d="M778 653 c-8 -15 4 -233 13 -233 8 0 11 44 13 202 1 29 -17 50 -26
31z"/>
<path d="M905 631 c-3 -5 -1 -12 5 -16 13 -8 462 5 515 15 23 5 -78 8 -237 9
-161 1 -279 -3 -283 -8z"/>
<path d="M905 571 c-3 -5 -1 -12 5 -16 13 -8 473 5 525 15 23 5 -81 8 -242 9
-164 1 -284 -3 -288 -8z"/>
<path d="M900 505 c0 -12 19 -15 108 -15 185 0 452 13 452 22 0 4 -126 8 -280
8 -242 0 -280 -2 -280 -15z"/>
</g>
</svg>
