<?xml version="1.0" standalone="no"?>
<!DOCTYPE svg PUBLIC "-//W3C//DTD SVG 20010904//EN"
 "http://www.w3.org/TR/2001/REC-SVG-20010904/DTD/svg10.dtd">
<svg version="1.0" xmlns="http://www.w3.org/2000/svg"
 width="164.000000pt" height="116.000000pt" viewBox="0 0 164.000000 116.000000"
 preserveAspectRatio="xMidYMid meet">
<metadata>
Created by potrace 1.16, written by Peter Selinger 2001-2019
</metadata>
<g transform="translate(0.000000,116.000000) scale(0.100000,-0.100000)"
fill="#000000" stroke="none">
<path d="M302 603 c3 -196 7 -265 17 -277 12 -14 63 -16 440 -16 463 0 557 5
565 27 3 8 9 124 13 259 l6 244 -24 1 c-13 0 -33 2 -44 5 -11 2 -235 7 -499
10 l-479 7 5 -260z m993 188 l0 -35 -305 3 c-167 1 -308 5 -311 7 -4 2 -6 12
-5 22 2 14 15 18 77 20 332 13 498 19 519 18 22 -1 25 -6 25 -35z m-925 -1 c0
-11 -7 -20 -15 -20 -8 0 -15 9 -15 20 0 11 7 20 15 20 8 0 15 -9 15 -20z m80
0 c0 -13 -7 -20 -20 -20 -13 0 -20 7 -20 20 0 13 7 20 20 20 13 0 20 -7 20
-20z m100 -6 c0 -20 -4 -25 -16 -20 -9 3 -22 6 -30 6 -8 0 -14 9 -14 20 0 16
7 20 30 20 26 0 30 -4 30 -26z m90 1 c0 -20 -5 -25 -25 -25 -20 0 -25 5 -25
25 0 20 5 25 25 25 20 0 25 -5 25 -25z m658 -92 l-3 -47 -220 2 c-121 1 -262
5 -312 9 l-93 6 0 28 c0 28 2 29 48 30 171 5 513 16 545 17 l38 2 -3 -47z
m-928 13 c0 -8 3 -21 6 -30 4 -12 0 -16 -15 -16 -17 0 -21 6 -21 30 0 20 5 30
15 30 8 0 15 -6 15 -14z m80 -16 c0 -23 -4 -30 -20 -30 -16 0 -20 7 -20 30 0
23 4 30 20 30 16 0 20 -7 20 -30z m100 1 c0 -30 -19 -45 -45 -35 -9 4 -15 19
-15 35 0 26 4 29 30 29 26 0 30 -3 30 -29z m90 0 c0 -23 -5 -30 -25 -33 -23
-5 -25 -2 -25 28 0 30 3 34 25 34 21 0 25 -5 25 -29z m660 -108 l0 -46 -172 6
c-95 4 -237 7 -315 7 l-143 0 0 30 c0 26 4 30 28 31 15 1 135 5 267 8 132 4
261 8 288 9 l47 2 0 -47z m-920 -3 c0 -22 -5 -30 -18 -30 -26 0 -30 6 -24 35
7 38 42 34 42 -5z m73 8 c8 -27 1 -38 -24 -38 -14 0 -19 7 -19 30 0 23 5 30
19 30 11 0 21 -9 24 -22z m97 -8 c0 -27 -3 -30 -30 -30 -27 0 -30 3 -30 30 0
27 3 30 30 30 27 0 30 -3 30 -30z m90 0 c0 -26 -3 -30 -29 -30 -25 0 -28 3
-27 30 1 26 5 30 29 30 23 0 27 -4 27 -30z m660 -94 c0 -19 2 -40 5 -48 6 -15
-145 -15 -482 -2 l-153 6 0 34 0 34 178 3 c97 1 239 4 315 5 l137 2 0 -34z
m-920 -11 c0 -31 -3 -35 -25 -35 -22 0 -25 4 -25 35 0 31 3 35 25 35 22 0 25
-4 25 -35z m80 0 c0 -32 -2 -35 -30 -35 -28 0 -30 3 -26 28 2 15 5 30 5 35 1
4 12 7 26 7 22 0 25 -4 25 -35z m100 0 c0 -34 -1 -35 -40 -35 -39 0 -40 1 -40
35 0 34 1 35 40 35 39 0 40 -1 40 -35z m84 13 c11 -42 7 -48 -29 -48 -33 0
-35 2 -35 35 0 32 3 35 29 35 21 0 30 -6 35 -22z m666 -115 l0 -38 -82 2 c-46
2 -190 5 -320 9 -224 6 -238 7 -238 25 0 11 1 20 3 21 1 0 115 4 252 8 138 3
280 7 318 8 l67 2 0 -37z m-930 -3 c0 -15 -7 -20 -25 -20 -18 0 -25 5 -25 20
0 15 7 20 25 20 18 0 25 -5 25 -20z m80 0 c0 -16 -7 -20 -30 -20 -23 0 -30 4
-30 20 0 16 7 20 30 20 23 0 30 -4 30 -20z m100 0 c0 -17 -7 -20 -40 -20 -33
0 -40 3 -40 20 0 17 7 20 40 20 33 0 40 -3 40 -20z m90 0 c0 -16 -7 -20 -35
-20 -28 0 -35 4 -35 20 0 16 7 20 35 20 28 0 35 -4 35 -20z"/>
</g>
</svg>
