<?xml version="1.0" standalone="no"?>
<!DOCTYPE svg PUBLIC "-//W3C//DTD SVG 20010904//EN"
 "http://www.w3.org/TR/2001/REC-SVG-20010904/DTD/svg10.dtd">
<svg version="1.0" xmlns="http://www.w3.org/2000/svg"
 width="166.000000pt" height="116.000000pt" viewBox="0 0 166.000000 116.000000"
 preserveAspectRatio="xMidYMid meet">
<metadata>
Created by potrace 1.16, written by Peter Selinger 2001-2019
</metadata>
<g transform="translate(0.000000,116.000000) scale(0.100000,-0.100000)"
fill="#000000" stroke="none">
<path d="M302 602 c3 -195 8 -265 18 -277 11 -14 67 -15 511 -13 l498 3 7 261
6 261 -54 7 c-29 3 -264 9 -522 13 l-469 6 5 -261z m992 191 c3 -21 6 -60 6
-87 l0 -49 -172 6 c-95 4 -278 7 -405 7 l-233 0 0 70 0 70 203 1 c170 1 498
11 573 17 17 2 23 -5 28 -35z m-844 -53 l0 -70 -55 0 -55 0 0 70 0 70 55 0 55
0 0 -70z m850 -176 l0 -75 -407 7 c-225 3 -409 7 -410 8 -1 1 1 29 4 63 l6 63
246 3 c135 1 317 3 404 5 l157 2 0 -76z m-850 32 c0 -18 3 -48 6 -65 l7 -31
-68 0 -68 0 7 46 c3 26 6 55 6 65 0 16 8 19 55 19 l55 0 0 -34z m854 -157 c3
-17 6 -49 6 -70 l0 -39 -107 5 c-212 9 -430 15 -575 15 l-148 0 0 55 0 55 303
3 c166 1 350 3 408 5 l107 2 6 -31z m-846 -36 l3 -53 -65 0 -66 0 0 49 c0 55
7 60 85 57 l40 -1 3 -52z"/>
</g>
</svg>
