<?xml version="1.0" standalone="no"?>
<!DOCTYPE svg PUBLIC "-//W3C//DTD SVG 20010904//EN"
 "http://www.w3.org/TR/2001/REC-SVG-20010904/DTD/svg10.dtd">
<svg version="1.0" xmlns="http://www.w3.org/2000/svg"
 width="164.000000pt" height="100.000000pt" viewBox="0 0 164.000000 100.000000"
 preserveAspectRatio="xMidYMid meet">
<metadata>
Created by potrace 1.16, written by Peter Selinger 2001-2019
</metadata>
<g transform="translate(0.000000,100.000000) scale(0.100000,-0.100000)"
fill="#000000" stroke="none">
<path d="M300 563 c0 -77 3 -168 7 -203 l6 -63 504 5 c277 3 506 8 508 10 3 2
8 85 11 184 7 169 6 181 -11 188 -10 3 -245 9 -522 13 l-503 6 0 -140z m1000
20 l0 -86 -142 6 c-79 4 -226 7 -327 7 l-184 0 6 66 c4 37 8 68 9 69 2 2 129
7 283 12 154 6 297 10 318 11 l37 2 0 -87z m-876 51 c3 -9 6 -40 6 -70 l0 -54
-45 0 -45 0 0 70 0 70 39 0 c26 0 41 -5 45 -16z m106 -54 l0 -70 -35 0 -35 0
0 70 0 70 35 0 35 0 0 -70z m90 0 l0 -70 -30 0 -30 0 0 70 0 70 30 0 30 0 0
-70z m684 -171 c3 -40 4 -74 2 -77 -3 -2 -151 -1 -330 3 l-326 8 0 63 0 63
153 3 c83 2 229 4 323 6 l171 3 7 -72z m-874 -4 l0 -65 -50 0 -50 0 0 58 c0
32 3 62 7 65 3 4 26 7 50 7 l43 0 0 -65z m110 0 l0 -65 -45 0 -45 0 0 58 c0
32 3 62 7 65 3 4 24 7 45 7 l38 0 0 -65z m90 0 l0 -65 -35 0 -35 0 0 65 0 65
35 0 35 0 0 -65z"/>
</g>
</svg>
