<?xml version="1.0" standalone="no"?>
<!DOCTYPE svg PUBLIC "-//W3C//DTD SVG 20010904//EN"
 "http://www.w3.org/TR/2001/REC-SVG-20010904/DTD/svg10.dtd">
<svg version="1.0" xmlns="http://www.w3.org/2000/svg"
 width="246.000000pt" height="131.000000pt" viewBox="0 0 246.000000 131.000000"
 preserveAspectRatio="xMidYMid meet">
<metadata>
Created by potrace 1.16, written by Peter Selinger 2001-2019
</metadata>
<g transform="translate(0.000000,131.000000) scale(0.100000,-0.100000)"
fill="#000000" stroke="none">
<path d="M1395 1002 c-6 -5 -32 -17 -60 -27 -27 -9 -90 -44 -139 -77 l-89 -59
-71 35 c-39 19 -90 39 -113 45 -23 6 -43 17 -45 23 -3 8 -30 -2 -79 -26 -86
-45 -116 -64 -186 -123 l-51 -44 -129 3 -128 3 0 -95 0 -95 50 -3 c28 -1 88 1
135 5 l85 8 55 -42 c30 -23 93 -63 139 -88 81 -43 121 -55 121 -36 0 5 14 11
30 15 17 3 68 24 114 47 l83 42 59 -40 c77 -53 107 -67 187 -93 l66 -21 73 37
c58 30 97 62 193 159 l120 122 23 -79 c12 -43 33 -102 47 -131 33 -71 103
-167 120 -167 17 0 81 112 111 194 12 34 27 93 34 133 11 62 11 76 -3 105 -9
18 -21 46 -27 62 -6 16 -35 71 -65 121 -45 76 -58 93 -78 93 -21 0 -31 -15
-75 -107 -28 -58 -56 -124 -62 -146 -7 -22 -16 -43 -19 -48 -4 -4 -56 41 -117
101 -91 90 -124 116 -201 155 -101 52 -95 50 -108 39z m-4 -46 c-9 -10 -10
-86 -5 -285 4 -161 3 -271 -2 -271 -15 0 -88 45 -86 53 1 4 2 112 2 240 l0
233 43 21 c50 26 64 28 48 9z m655 -85 c24 -42 44 -79 44 -83 0 -5 -38 -5 -85
-2 -75 6 -85 5 -85 -10 0 -14 13 -16 95 -16 116 0 117 -1 99 -113 -8 -45 -14
-83 -14 -84 0 -2 -40 0 -90 4 -80 5 -90 4 -90 -11 0 -14 13 -16 85 -16 61 0
85 -3 85 -12 0 -27 -18 -33 -97 -33 l-83 0 -14 35 c-7 19 -21 69 -31 111 l-18
77 61 127 c72 147 67 147 138 26z m-583 67 c14 -11 16 -45 19 -260 l3 -247
-34 -16 c-18 -9 -35 -14 -38 -11 -2 2 -1 126 3 275 7 279 9 287 47 259z m104
-57 l40 -29 7 -163 7 -164 -33 -27 c-18 -15 -46 -34 -62 -44 l-28 -17 5 69 c4
38 7 144 7 237 0 92 4 167 8 167 5 0 27 -13 49 -29z m-667 3 c13 -3 15 -36 15
-213 l1 -210 -38 -9 -38 -10 7 225 c6 218 6 225 -13 221 -18 -3 -19 -13 -15
-221 l4 -218 -62 38 -61 38 1 133 c1 73 3 141 6 150 2 9 30 34 61 55 57 37 69
39 132 21z m375 -422 c-2 -2 -28 13 -59 34 -35 23 -55 43 -52 51 3 7 2 13 -2
13 -4 0 -6 60 -4 132 l3 133 52 38 52 38 6 -218 c4 -120 5 -219 4 -221z m-240
377 c44 -16 83 -33 87 -37 11 -12 14 -251 3 -256 -5 -2 -27 -11 -47 -20 l-37
-16 6 160 c6 158 6 160 -15 160 -20 0 -21 -4 -19 -166 l2 -167 -37 -13 -38
-13 0 200 c0 109 3 199 8 199 4 0 43 -14 87 -31z m696 -90 c53 -47 66 -63 56
-72 -6 -7 -43 -41 -81 -77 l-68 -65 6 130 c3 72 5 133 6 138 0 15 14 6 81 -54z
m-1055 -196 c-4 -4 -22 8 -40 26 -22 22 -39 30 -47 25 -14 -8 -182 -7 -234 2
-29 5 -30 7 -27 54 l4 48 106 7 c59 4 120 9 135 10 17 1 42 16 60 34 l32 32 9
-116 c4 -64 5 -119 2 -122z m1373 -134 c-11 -29 -26 -63 -33 -77 l-13 -25 -26
44 c-15 24 -23 45 -19 46 4 1 25 5 47 8 33 6 37 9 20 15 -11 5 -36 9 -56 9
-23 1 -39 7 -43 16 -4 13 7 15 69 15 l75 0 -21 -51z"/>
<path d="M1920 844 c0 -14 8 -16 46 -10 26 3 53 6 60 6 8 0 14 5 14 10 0 6
-27 10 -60 10 -49 0 -60 -3 -60 -16z"/>
<path d="M1920 695 c0 -16 70 -21 143 -8 60 9 23 23 -65 23 -63 0 -78 -3 -78
-15z"/>
<path d="M1920 615 c0 -17 38 -19 128 -9 82 10 61 24 -38 24 -73 0 -90 -3 -90
-15z"/>
</g>
</svg>
