<?xml version="1.0" standalone="no"?>
<!DOCTYPE svg PUBLIC "-//W3C//DTD SVG 20010904//EN"
 "http://www.w3.org/TR/2001/REC-SVG-20010904/DTD/svg10.dtd">
<svg version="1.0" xmlns="http://www.w3.org/2000/svg"
 width="98.000000pt" height="131.000000pt" viewBox="0 0 98.000000 131.000000"
 preserveAspectRatio="xMidYMid meet">
<metadata>
Created by potrace 1.16, written by Peter Selinger 2001-2019
</metadata>
<g transform="translate(0.000000,131.000000) scale(0.100000,-0.100000)"
fill="#000000" stroke="none">
<path d="M415 938 c-71 -90 -115 -179 -115 -233 0 -75 88 -221 214 -355 57
-61 73 -60 23 2 -19 24 -62 81 -95 127 l-60 84 52 44 51 44 3 -28 c1 -15 5
-53 9 -83 6 -49 7 -52 14 -25 3 17 7 61 8 98 l1 68 62 -51 c79 -64 97 -64 34
-1 -53 53 -50 61 25 61 21 0 39 5 39 10 0 6 -27 10 -60 10 -33 0 -60 2 -60 4
0 3 24 27 52 55 29 27 50 52 48 55 -3 3 -28 -13 -55 -35 -89 -71 -87 -71 -83
8 2 55 0 68 -12 68 -11 0 -16 -14 -18 -58 l-3 -57 -50 42 c-37 31 -52 39 -61
30 -8 -8 0 -21 33 -51 24 -22 47 -40 52 -41 4 0 7 -5 7 -11 0 -6 -22 -9 -57
-8 -48 2 -59 0 -61 -14 -3 -14 6 -17 55 -17 l58 -1 -45 -39 c-25 -22 -48 -40
-51 -40 -3 0 -14 17 -23 39 -40 88 -18 146 118 316 20 25 26 39 19 46 -7 7
-29 -12 -68 -63z"/>
</g>
</svg>
