<?xml version="1.0" standalone="no"?>
<!DOCTYPE svg PUBLIC "-//W3C//DTD SVG 20010904//EN"
 "http://www.w3.org/TR/2001/REC-SVG-20010904/DTD/svg10.dtd">
<svg version="1.0" xmlns="http://www.w3.org/2000/svg"
 width="205.000000pt" height="139.000000pt" viewBox="0 0 205.000000 139.000000"
 preserveAspectRatio="xMidYMid meet">
<metadata>
Created by potrace 1.16, written by Peter Selinger 2001-2019
</metadata>
<g transform="translate(0.000000,139.000000) scale(0.100000,-0.100000)"
fill="#000000" stroke="none">
<path d="M1403 855 l7 -236 -68 54 c-110 88 -132 101 -145 88 -8 -8 -9 -14 -1
-19 130 -88 223 -156 219 -162 -2 -4 -41 -5 -86 -2 l-82 5 -101 78 c-55 44
-106 79 -113 79 -33 0 -6 -31 72 -84 47 -32 87 -61 89 -64 2 -4 -32 -6 -77 -4
-78 4 -82 5 -131 46 -110 91 -146 112 -146 83 0 -8 37 -39 82 -70 l82 -57 -95
0 -94 0 -70 56 c-116 93 -151 114 -164 101 -14 -14 -15 -335 -1 -357 11 -18
25 -11 138 70 88 64 102 67 200 52 l44 -7 -81 -59 c-81 -60 -90 -70 -71 -81
11 -7 108 65 149 109 26 27 51 31 126 18 l39 -7 -74 -58 c-70 -54 -91 -82 -63
-82 6 0 48 30 92 68 76 62 84 67 129 66 26 0 64 -3 85 -7 l38 -7 -91 -68 c-80
-61 -101 -87 -68 -87 11 0 83 57 153 120 39 35 41 36 113 32 39 -2 72 -7 72
-10 -1 -4 -37 -33 -80 -65 -44 -33 -80 -63 -80 -67 0 -35 57 0 162 98 l36 34
95 -7 94 -7 6 114 c4 62 7 206 7 319 l0 206 -52 7 c-29 3 -109 6 -177 6 l-124
0 6 -235z m307 88 c0 -65 3 -202 7 -304 l6 -187 -24 4 c-13 2 -46 6 -72 9 -41
5 -46 9 -36 21 19 23 4 27 -22 5 -17 -13 -34 -17 -64 -14 -81 8 -105 14 -100
24 8 12 -18 12 -30 0 -8 -8 -163 3 -171 12 -1 1 3 10 10 19 10 14 32 17 124
19 98 1 112 3 112 18 0 9 -5 22 -11 28 -18 18 -7 68 16 69 11 1 64 2 118 3
138 2 123 20 -20 23 l-118 3 -3 38 -3 37 83 0 c46 0 101 3 123 7 l40 7 -30 7
c-16 4 -72 7 -122 8 l-93 1 0 30 0 30 68 0 c37 0 92 3 122 7 81 10 35 21 -87
22 l-103 1 0 29 c0 28 1 28 68 34 37 4 91 7 120 7 28 0 52 5 52 10 0 6 -47 10
-120 10 l-120 0 0 34 c0 42 2 43 163 45 l117 1 0 -117z m-1002 -302 c55 -38
92 -70 92 -80 0 -11 -37 -40 -101 -80 -55 -35 -102 -61 -104 -59 -7 6 8 289
14 286 4 -2 48 -32 99 -67z m295 -98 c-7 -2 -21 -2 -30 0 -10 3 -4 5 12 5 17
0 24 -2 18 -5z m74 -4 c8 -8 13 -8 17 0 4 6 30 11 58 11 44 0 49 -2 38 -15
-18 -22 -168 -16 -154 6 7 12 28 11 41 -2z"/>
<path d="M300 705 c0 -17 41 -19 180 -8 114 9 76 21 -67 22 -94 1 -113 -2
-113 -14z"/>
<path d="M300 616 c0 -14 17 -16 124 -16 73 0 127 4 131 10 4 6 -35 10 -109
10 -63 0 -121 3 -130 6 -11 4 -16 1 -16 -10z"/>
<path d="M300 523 c0 -10 33 -13 130 -13 75 0 130 4 130 9 0 6 -57 11 -130 13
-99 2 -130 0 -130 -9z"/>
<path d="M302 439 c2 -6 7 -10 11 -10 4 1 61 1 127 1 73 0 120 4 120 10 0 6
-50 10 -131 10 -89 0 -130 -3 -127 -11z"/>
</g>
</svg>
