<?xml version="1.0" standalone="no"?>
<!DOCTYPE svg PUBLIC "-//W3C//DTD SVG 20010904//EN"
 "http://www.w3.org/TR/2001/REC-SVG-20010904/DTD/svg10.dtd">
<svg version="1.0" xmlns="http://www.w3.org/2000/svg"
 width="202.000000pt" height="147.000000pt" viewBox="0 0 202.000000 147.000000"
 preserveAspectRatio="xMidYMid meet">
<metadata>
Created by potrace 1.16, written by Peter Selinger 2001-2019
</metadata>
<g transform="translate(0.000000,147.000000) scale(0.100000,-0.100000)"
fill="#000000" stroke="none">
<path d="M1212 1154 c2 -12 41 -33 127 -68 l124 -51 -91 -3 -91 -3 -135 67
c-121 59 -166 72 -166 47 0 -4 55 -30 123 -58 l122 -50 -90 -3 -90 -3 -128 62
c-71 34 -134 58 -143 55 -26 -10 -8 -22 103 -67 l107 -44 -76 -3 c-74 -3 -77
-2 -196 57 l-121 59 -146 1 c-128 2 -145 0 -145 -15 0 -15 12 -15 120 -9 l120
7 0 -42 0 -42 -120 7 c-109 7 -120 6 -120 -9 0 -15 13 -17 112 -16 62 1 119 1
126 1 7 -1 12 -15 12 -37 l0 -36 -125 4 c-95 2 -125 0 -125 -9 0 -10 32 -13
125 -13 114 0 125 -2 125 -18 0 -36 -20 -42 -137 -42 -69 0 -113 -4 -113 -10
0 -6 50 -10 129 -10 l129 0 138 69 139 70 69 -7 69 -7 -109 -44 c-124 -50
-126 -51 -115 -70 7 -10 36 0 135 48 130 63 171 72 256 55 30 -7 26 -9 -71
-49 -57 -24 -105 -48 -107 -53 -9 -28 29 -18 143 38 l124 61 73 -8 73 -8 -92
-39 c-53 -22 -93 -45 -93 -52 0 -21 13 -18 101 22 43 21 81 35 83 33 3 -3 16
-462 16 -558 l0 -24 150 5 150 5 0 -24 c0 -12 5 -23 10 -23 12 0 11 -30 10
385 0 181 -3 331 -6 334 -3 3 -48 7 -102 9 -96 4 -98 5 -222 67 -152 76 -173
84 -168 59z m-534 -80 c48 -20 98 -40 111 -46 21 -7 22 -11 10 -22 -11 -10
-209 -96 -221 -96 -2 0 -4 45 -5 100 -1 59 3 100 8 100 6 0 49 -16 97 -36z
m1002 -378 c5 -176 8 -321 6 -324 -3 -2 -66 -1 -141 3 l-135 7 0 34 0 34 120
0 c66 0 120 4 120 9 0 9 -104 21 -187 21 -52 0 -53 0 -53 30 0 30 0 30 59 30
32 0 86 3 120 6 94 10 53 24 -71 24 l-108 0 0 29 0 29 120 7 c66 4 120 11 120
16 0 5 -53 10 -117 11 l-118 3 -3 38 -3 37 115 0 c63 0 117 4 120 9 6 9 -89
21 -175 21 l-59 0 0 89 0 89 30 12 c17 7 30 17 30 22 0 6 -8 7 -17 3 -10 -5
-43 -7 -73 -6 -74 2 -293 21 -297 25 -2 1 126 4 284 5 158 1 289 4 292 6 2 3
6 4 7 2 2 -1 8 -146 14 -321z"/>
</g>
</svg>
