<?xml version="1.0" standalone="no"?>
<!DOCTYPE svg PUBLIC "-//W3C//DTD SVG 20010904//EN"
 "http://www.w3.org/TR/2001/REC-SVG-20010904/DTD/svg10.dtd">
<svg version="1.0" xmlns="http://www.w3.org/2000/svg"
 width="261.000000pt" height="123.000000pt" viewBox="0 0 261.000000 123.000000"
 preserveAspectRatio="xMidYMid meet">
<metadata>
Created by potrace 1.16, written by Peter Selinger 2001-2019
</metadata>
<g transform="translate(0.000000,123.000000) scale(0.100000,-0.100000)"
fill="#000000" stroke="none">
<path d="M916 914 c-7 -17 0 -255 10 -346 l5 -47 -317 6 -316 6 4 -111 c1 -61
7 -114 12 -119 4 -4 38 25 75 65 66 72 79 79 129 65 23 -6 22 -8 -24 -54 -34
-35 -45 -52 -37 -60 7 -7 25 7 62 49 44 50 56 58 79 55 56 -9 57 -12 18 -52
-27 -28 -34 -41 -25 -46 8 -5 28 8 56 38 39 42 46 45 80 41 67 -10 69 -12 38
-44 -20 -21 -26 -33 -18 -41 7 -7 20 2 45 30 32 37 36 39 76 34 38 -5 41 -8
36 -29 -7 -29 3 -30 31 -4 21 19 24 20 127 5 58 -8 113 -17 122 -21 15 -6 16
18 14 292 l-3 299 -136 3 c-121 2 -137 1 -143 -14z m256 -278 c5 -148 6 -271
3 -274 -4 -4 -132 13 -182 25 -22 5 -21 8 23 59 44 51 49 54 92 54 34 0 43 3
35 11 -7 7 -48 11 -108 10 l-96 -1 3 32 c2 27 7 33 28 33 14 1 55 2 93 3 100
3 81 21 -25 24 l-93 3 -3 28 -3 27 88 0 c97 0 155 18 68 22 -27 1 -57 2 -65 4
-8 1 -32 2 -52 3 -30 1 -38 5 -38 20 0 16 12 19 102 26 123 8 114 25 -14 25
-87 0 -88 0 -88 25 0 25 0 25 94 25 52 0 97 4 100 9 3 5 -39 12 -94 16 -96 7
-100 8 -100 31 0 22 3 23 93 27 50 2 101 3 112 3 19 -1 20 -10 27 -270z m-183
-185 c-45 -51 -74 -61 -122 -43 -15 7 -14 11 13 44 30 36 40 40 114 46 l38 3
-43 -50z m-410 24 c-12 -12 -26 -14 -57 -9 -56 9 -43 24 21 24 46 0 50 -2 36
-15z m130 -11 c-23 -23 -31 -25 -73 -19 -45 7 -46 8 -30 26 13 14 31 19 73 19
l56 0 -26 -26z m145 -9 c-27 -36 -40 -40 -106 -29 l-38 7 21 28 c19 27 25 29
85 29 l65 0 -27 -35z m-446 -3 c22 -7 20 -10 -30 -59 l-53 -52 0 59 0 60 30
-1 c17 -1 40 -4 53 -7z"/>
<path d="M1398 896 c-12 -22 -5 -476 8 -510 7 -18 24 -18 446 -14 369 3 441 6
449 19 5 7 9 123 9 255 l0 242 -22 6 c-13 4 -151 9 -308 12 -157 2 -349 6
-428 8 -136 3 -143 2 -154 -18z m882 -92 l0 -87 -217 8 c-120 4 -222 9 -226
12 -12 7 0 125 14 133 6 4 95 8 197 9 103 1 188 4 191 6 2 3 13 5 23 5 16 0
18 -9 18 -86z m-810 12 c0 -30 3 -61 6 -70 5 -12 0 -16 -20 -16 -26 0 -26 1
-26 70 0 63 2 70 20 70 18 0 20 -7 20 -54z m74 23 c3 -17 6 -49 6 -70 0 -37
-2 -39 -31 -39 -30 0 -31 2 -25 31 3 17 6 49 6 70 0 31 4 39 19 39 13 0 20
-10 25 -31z m100 -6 c3 -21 6 -53 6 -70 0 -32 -1 -33 -41 -33 l-42 0 7 38 c3
20 6 52 6 70 0 29 3 32 29 32 25 0 29 -4 35 -37z m86 20 c0 -10 3 -42 6 -70
l7 -53 -38 0 -38 0 7 46 c3 26 6 57 6 70 0 19 5 24 25 24 17 0 25 -6 25 -17z
m70 -53 c0 -65 -2 -70 -21 -70 -20 0 -21 4 -15 53 3 28 6 60 6 70 0 9 7 17 15
17 12 0 15 -14 15 -70z m280 -154 c0 -30 3 -61 6 -70 5 -13 -2 -16 -37 -16
l-44 0 3 57 c4 78 7 83 42 83 30 0 30 -1 30 -54z m90 -22 l0 -76 -32 7 c-18 4
-33 8 -33 9 0 0 1 31 3 69 4 67 4 67 33 67 l29 0 0 -76z m110 1 l0 -75 -46 0
-46 0 6 31 c3 17 6 51 6 75 l0 44 40 0 40 0 0 -75z m-480 0 l0 -65 -191 0
-191 0 6 31 c3 17 6 47 6 65 l0 34 185 0 185 0 0 -65z m100 23 c0 -24 3 -53 6
-65 6 -21 3 -23 -35 -23 l-41 0 0 65 0 65 35 0 c34 0 35 -1 35 -42z m80 -7 c0
-27 3 -56 6 -65 5 -13 -1 -16 -25 -16 l-31 0 0 65 c0 63 1 65 25 65 23 0 25
-3 25 -49z m310 -190 c0 -61 -1 -63 -22 -57 -13 3 -116 6 -230 6 l-208 0 0 60
c0 33 1 61 3 62 1 1 101 4 222 7 142 4 223 2 227 -4 4 -5 8 -39 8 -74z m-486
57 c3 -13 6 -42 6 -65 0 -40 -2 -43 -26 -43 -25 0 -25 1 -18 58 3 31 8 60 11
65 8 14 21 7 27 -15z m-334 -46 c0 -55 -1 -58 -25 -58 -24 0 -25 3 -25 58 0
55 1 58 25 58 24 0 25 -3 25 -58z m74 27 c3 -17 6 -45 6 -61 0 -26 -3 -29 -27
-26 -16 2 -27 6 -25 11 1 4 2 30 2 57 0 42 3 50 19 50 13 0 20 -10 25 -31z
m100 -6 c12 -78 10 -83 -35 -83 -38 0 -41 2 -35 23 3 12 6 39 6 60 0 34 2 37
29 37 25 0 29 -4 35 -37z m86 15 c0 -13 3 -40 6 -60 l7 -38 -38 0 c-37 0 -37
1 -31 31 3 17 6 44 6 60 0 24 4 29 25 29 19 0 25 -5 25 -22z"/>
</g>
</svg>
