<?xml version="1.0" standalone="no"?>
<!DOCTYPE svg PUBLIC "-//W3C//DTD SVG 20010904//EN"
 "http://www.w3.org/TR/2001/REC-SVG-20010904/DTD/svg10.dtd">
<svg version="1.0" xmlns="http://www.w3.org/2000/svg"
 width="231.000000pt" height="243.000000pt" viewBox="0 0 231.000000 243.000000"
 preserveAspectRatio="xMidYMid meet">
<metadata>
Created by potrace 1.16, written by Peter Selinger 2001-2019
</metadata>
<g transform="translate(0.000000,243.000000) scale(0.100000,-0.100000)"
fill="#000000" stroke="none">
<path d="M1666 2113 c-3 -10 -1 -112 3 -228 9 -206 9 -210 -12 -232 -18 -20
-30 -23 -105 -23 -75 0 -83 2 -72 15 7 9 9 19 5 23 -4 4 -14 -3 -22 -15 -14
-20 -24 -23 -85 -23 -67 0 -69 1 -62 23 l6 22 -24 -22 c-17 -16 -37 -23 -66
-23 -40 0 -42 1 -32 20 6 11 7 20 2 20 -5 0 -17 -9 -27 -20 -16 -18 -31 -20
-143 -20 l-125 0 7 -132 c4 -73 11 -137 15 -141 9 -9 71 54 164 163 56 66 68
71 137 61 2 -1 -26 -32 -64 -70 -49 -50 -64 -71 -55 -77 9 -5 37 18 89 74 l76
82 57 0 c31 0 57 -3 57 -7 0 -4 -28 -35 -61 -69 -53 -54 -68 -84 -40 -84 4 0
38 36 76 80 l68 80 81 0 80 0 -69 -70 c-56 -56 -67 -72 -56 -82 13 -14 22 -6
116 104 40 46 41 46 113 51 l74 4 -62 -62 c-55 -56 -69 -85 -40 -85 5 0 37 34
72 75 l63 74 73 1 c46 0 71 4 67 10 -3 6 -31 10 -61 10 -30 0 -54 3 -54 7 0 4
10 17 22 30 12 13 19 26 15 29 -3 3 -20 -10 -37 -30 -29 -32 -37 -36 -81 -36
l-49 0 0 45 0 45 115 0 c70 0 115 4 115 10 0 6 -28 11 -62 12 -35 1 -76 3 -93
4 -16 1 -40 3 -52 3 -19 1 -23 7 -23 36 l0 35 78 0 c42 0 95 3 117 7 63 10 15
21 -97 22 l-98 1 0 30 c0 30 1 30 54 30 80 0 176 12 176 21 0 5 -52 9 -116 9
l-115 0 3 33 3 32 110 3 c103 4 124 6 114 16 -2 2 -53 6 -114 9 -60 3 -111 6
-112 6 -2 1 -3 17 -3 36 l0 35 134 0 134 0 6 -127 c3 -71 9 -228 12 -351 4
-122 10 -225 15 -228 5 -3 9 151 9 359 l0 365 -31 6 c-17 3 -94 6 -170 6 -122
0 -138 -2 -143 -17z m10 -490 c-10 -10 -19 5 -10 18 6 11 8 11 12 0 2 -7 1
-15 -2 -18z m-646 -133 c-45 -49 -84 -90 -86 -90 -2 0 -4 41 -4 90 l0 90 86 0
86 0 -82 -90z"/>
<path d="M303 1754 c3 -190 8 -348 11 -352 14 -13 18 17 23 206 l6 200 166 6
c329 12 431 19 431 26 0 9 -253 20 -451 20 l-148 0 6 120 6 120 -28 0 -28 0 6
-346z"/>
<path d="M355 1171 c-5 -8 10 -32 42 -64 26 -29 59 -64 71 -78 l23 -26 -72
-77 c-48 -52 -69 -80 -62 -87 7 -7 33 15 78 66 51 57 72 74 86 70 11 -4 19 -2
19 4 0 6 14 11 32 11 l32 0 -52 -53 c-48 -49 -64 -77 -44 -77 5 0 35 27 67 60
44 47 62 59 77 54 14 -4 18 -2 14 5 -5 7 4 11 24 11 l32 0 -56 -56 c-31 -31
-56 -61 -56 -65 0 -22 27 -4 80 53 52 57 59 61 75 48 17 -14 17 -13 10 9 -6
20 -4 23 10 18 9 -4 20 -7 23 -7 4 0 -20 -26 -52 -59 -42 -42 -54 -61 -45 -67
9 -5 31 13 68 54 31 34 61 62 68 62 27 0 23 -23 -11 -60 -35 -39 -45 -60 -27
-60 5 0 36 28 69 62 l61 63 25 -24 c14 -14 26 -20 26 -14 0 6 -7 16 -15 23 -8
7 -15 16 -15 21 0 5 114 10 253 10 138 1 266 4 282 8 38 9 -178 21 -372 21
-123 0 -142 2 -137 15 5 13 1 12 -26 -2 l-32 -18 -58 63 c-36 40 -60 60 -65
53 -4 -7 9 -29 29 -51 41 -46 45 -60 15 -60 -12 0 -41 22 -71 55 -44 48 -78
69 -78 48 0 -4 20 -28 45 -53 l45 -46 -29 -2 c-25 -2 -38 8 -82 58 -36 42 -56
57 -63 50 -7 -7 5 -26 39 -60 l49 -50 -41 0 c-38 0 -46 5 -90 55 -43 49 -73
69 -73 48 0 -5 20 -28 45 -53 24 -25 44 -48 45 -52 0 -13 -48 -9 -54 5 -5 9
-8 8 -13 -3 -4 -10 -27 9 -83 69 -53 58 -79 80 -85 72z m545 -186 c-7 -8 -17
-12 -23 -8 -6 4 -3 9 9 14 27 11 28 11 14 -6z"/>
<path d="M1438 839 c-10 -5 -18 -19 -18 -31 0 -20 -2 -20 -255 -13 l-255 8 0
-23 0 -23 260 6 260 6 0 -45 0 -45 -257 2 c-241 2 -258 1 -261 -16 -4 -17 10
-17 257 -13 l261 5 0 -66 c0 -36 3 -82 6 -102 l6 -36 -267 5 c-258 5 -267 4
-263 -14 4 -25 47 -27 321 -17 l207 8 0 -37 0 -36 -266 5 c-258 6 -266 6 -262
-13 3 -18 14 -19 267 -16 170 3 261 0 257 -6 -3 -5 1 -15 9 -22 11 -9 29 -1
92 47 179 135 182 137 201 120 28 -24 74 -44 120 -52 l42 -7 0 137 0 138 -42
-7 c-24 -4 -59 -15 -78 -25 l-36 -19 -139 104 c-77 57 -142 103 -145 103 -3 0
-13 -4 -22 -10z m106 -94 c41 -30 99 -70 129 -88 51 -30 54 -34 40 -52 -7 -11
-13 -35 -11 -54 3 -32 -1 -36 -118 -116 l-120 -83 -1 224 c-1 123 1 224 3 224
2 0 38 -25 78 -55z m275 -106 c-25 -27 -31 -29 -45 -18 -15 12 -12 16 22 31
54 24 56 23 23 -13z m-49 -39 c24 -13 15 -44 -17 -59 -33 -15 -45 0 -31 40 11
31 19 34 48 19z m20 -82 c0 -7 15 -27 33 -46 31 -33 31 -34 7 -27 -35 11 -78
33 -85 45 -8 13 13 40 31 40 8 0 14 -5 14 -12z"/>
</g>
</svg>
