<?xml version="1.0" standalone="no"?>
<!DOCTYPE svg PUBLIC "-//W3C//DTD SVG 20010904//EN"
 "http://www.w3.org/TR/2001/REC-SVG-20010904/DTD/svg10.dtd">
<svg version="1.0" xmlns="http://www.w3.org/2000/svg"
 width="372.000000pt" height="133.000000pt" viewBox="0 0 372.000000 133.000000"
 preserveAspectRatio="xMidYMid meet">
<metadata>
Created by potrace 1.16, written by Peter Selinger 2001-2019
</metadata>
<g transform="translate(0.000000,133.000000) scale(0.100000,-0.100000)"
fill="#000000" stroke="none">
<path d="M665 938 c4 -51 8 -97 9 -103 1 -6 -64 -9 -181 -7 l-183 4 0 -31 0
-31 187 -2 187 -3 17 -109 16 -109 -208 5 -209 6 0 -31 0 -30 393 6 c451 8
651 17 640 28 -5 5 -141 11 -304 15 l-296 7 -7 104 c-4 58 -6 106 -4 108 5 5
172 13 421 21 114 3 207 10 207 14 0 9 -262 20 -477 20 l-163 0 0 44 c0 23 -3
71 -6 105 -6 51 -10 61 -26 61 -18 0 -19 -5 -13 -92z"/>
<path d="M2547 1010 c-49 -5 -95 -11 -103 -14 -45 -17 12 -21 231 -18 368 7
525 -20 539 -90 17 -86 -5 -221 -53 -322 -32 -66 -114 -185 -138 -199 -7 -4
-13 -15 -13 -24 0 -14 21 -15 200 -11 111 3 203 7 205 9 14 15 -54 348 -92
449 -47 128 -103 175 -244 206 -87 19 -397 27 -532 14z m732 -203 c48 -111
132 -430 117 -444 -2 -3 -76 -1 -165 3 l-160 7 43 56 c92 118 136 233 136 352
0 38 2 69 5 69 3 0 14 -19 24 -43z"/>
<path d="M1615 989 c-4 -6 -5 -12 -4 -14 2 -1 62 -27 133 -57 l128 -55 -126
-53 c-70 -29 -129 -56 -131 -60 -2 -3 0 -11 4 -18 5 -9 41 3 132 43 l124 54 5
-152 c3 -84 2 -153 -2 -155 -4 -2 -60 20 -124 48 -105 47 -144 55 -144 32 0
-4 59 -33 131 -63 l131 -56 -124 -53 c-137 -58 -140 -60 -129 -78 5 -9 39 2
133 43 70 30 129 55 132 55 3 0 6 -34 6 -75 0 -43 4 -75 10 -75 6 0 10 33 10
80 0 48 4 80 10 80 6 0 76 -27 156 -60 80 -33 144 -55 142 -49 -2 6 -58 36
-123 66 -66 30 -123 58 -128 62 -4 4 50 34 120 66 140 64 139 63 131 71 -4 4
-184 -65 -294 -112 -9 -4 -11 38 -7 163 3 92 7 169 8 171 1 1 64 -22 140 -53
137 -55 211 -71 105 -22 -162 74 -210 97 -210 100 0 2 57 30 128 63 145 66
137 62 130 70 -3 3 -72 -21 -152 -54 -128 -52 -146 -57 -146 -41 0 21 -36 27
-42 8 -2 -6 -51 10 -120 40 -125 54 -133 57 -143 40z"/>
</g>
</svg>
