<?xml version="1.0" standalone="no"?>
<!DOCTYPE svg PUBLIC "-//W3C//DTD SVG 20010904//EN"
 "http://www.w3.org/TR/2001/REC-SVG-20010904/DTD/svg10.dtd">
<svg version="1.0" xmlns="http://www.w3.org/2000/svg"
 width="115.000000pt" height="180.000000pt" viewBox="0 0 115.000000 180.000000"
 preserveAspectRatio="xMidYMid meet">
<metadata>
Created by potrace 1.16, written by Peter Selinger 2001-2019
</metadata>
<g transform="translate(0.000000,180.000000) scale(0.100000,-0.100000)"
fill="#000000" stroke="none">
<path d="M500 1486 c0 -8 4 -16 9 -18 4 -1 27 -43 49 -92 40 -85 42 -91 35
-158 -3 -38 -9 -70 -12 -73 -4 -2 -27 34 -51 81 -25 46 -51 84 -57 84 -21 0
-16 -13 47 -113 l61 -96 -9 -63 -8 -63 -48 88 c-26 48 -52 85 -57 81 -15 -9
-11 -17 47 -110 l56 -89 -9 -80 -8 -80 -49 90 c-58 107 -54 101 -66 89 -7 -7
10 -43 51 -108 l61 -97 -7 -95 -7 -95 -112 2 -111 2 -3 -138 -3 -138 203 6
c112 3 217 10 233 16 17 5 23 10 14 10 -13 1 -18 15 -22 59 -5 63 -7 59 73
162 52 68 58 80 37 80 -6 0 -35 -34 -63 -75 l-51 -75 -7 61 c-6 61 -6 61 37
112 76 92 98 125 86 133 -13 8 -14 7 -78 -85 -40 -59 -51 -69 -51 -50 0 13 -3
40 -6 59 -5 31 1 43 55 114 62 80 68 91 52 100 -4 3 -30 -27 -57 -67 l-48 -72
-8 48 -9 49 66 85 c66 87 72 98 56 107 -5 3 -32 -30 -61 -74 -29 -44 -54 -79
-55 -78 -1 2 -5 28 -8 59 l-7 55 64 84 c59 76 70 100 47 100 -5 0 -30 -34 -57
-75 l-49 -74 -6 47 c-7 52 -8 50 70 152 33 42 47 68 41 74 -12 12 -15 9 -74
-79 l-46 -70 0 56 c0 48 7 68 50 145 27 49 50 92 50 97 0 4 -61 7 -135 7 -110
0 -135 -3 -135 -14z m230 -11 c0 -3 -16 -37 -35 -75 -31 -62 -39 -70 -64 -70
-25 0 -31 7 -55 63 -14 34 -26 65 -26 69 0 4 30 9 68 11 37 2 77 4 90 5 12 1
22 0 22 -3z m-75 -525 c17 -212 52 -561 60 -597 l5 -23 -201 0 -202 0 7 77 c3
42 6 89 6 105 0 23 4 28 23 28 23 0 24 -2 19 -74 -6 -92 8 -136 19 -61 4 28 8
71 8 98 1 40 4 47 21 47 19 0 20 -7 20 -95 0 -57 4 -95 10 -95 6 0 10 31 10
73 0 101 6 117 41 117 24 0 30 5 39 38 10 38 64 412 76 537 10 101 20 59 39
-175z"/>
</g>
</svg>
