<?xml version="1.0" standalone="no"?>
<!DOCTYPE svg PUBLIC "-//W3C//DTD SVG 20010904//EN"
 "http://www.w3.org/TR/2001/REC-SVG-20010904/DTD/svg10.dtd">
<svg version="1.0" xmlns="http://www.w3.org/2000/svg"
 width="172.000000pt" height="240.000000pt" viewBox="0 0 172.000000 240.000000"
 preserveAspectRatio="xMidYMid meet">
<metadata>
Created by potrace 1.16, written by Peter Selinger 2001-2019
</metadata>
<g transform="translate(0.000000,240.000000) scale(0.100000,-0.100000)"
fill="#000000" stroke="none">
<path d="M1074 1848 c3 -140 11 -257 16 -262 7 -7 10 6 10 36 l0 45 61 7 c34
3 88 6 120 6 33 0 59 4 59 10 0 6 -41 10 -104 10 -57 0 -111 3 -120 6 -10 4
-16 18 -16 40 l0 34 98 1 c53 1 108 4 122 8 23 7 21 8 -15 14 -22 4 -77 7
-122 7 l-83 0 0 30 0 30 74 0 c40 0 95 3 122 7 75 10 27 21 -93 22 l-103 1 0
29 c0 26 3 29 46 35 26 3 80 6 120 6 43 0 74 4 74 10 0 6 -47 10 -121 10
l-120 0 3 38 3 37 138 3 137 3 0 -143 c1 -79 5 -231 10 -338 5 -107 7 -196 4
-199 -5 -5 -432 65 -473 78 -22 6 -20 9 32 48 l55 42 47 -15 c56 -16 73 -18
60 -5 -6 5 -62 25 -125 46 -63 21 -155 53 -203 71 -49 19 -93 34 -99 34 -7 0
-9 -26 -6 -75 3 -41 4 -75 4 -75 -8 0 -319 111 -335 120 -39 20 -50 7 -45 -52
2 -29 7 -102 10 -161 4 -76 10 -110 19 -113 7 -3 64 31 125 76 l112 81 56 -11
c30 -5 57 -10 58 -10 1 0 4 -23 6 -51 8 -75 18 -79 83 -33 30 21 62 43 70 49
9 6 101 -3 277 -27 145 -20 270 -38 278 -40 13 -3 15 44 18 358 l3 361 -38 6
c-21 4 -101 7 -177 7 l-139 0 7 -252z m-211 -247 c64 -20 117 -38 117 -41 -1
-3 -29 -22 -63 -44 l-61 -38 -75 13 c-52 9 -69 15 -55 20 18 6 18 7 2 14 -14
6 -18 19 -18 67 0 54 2 59 18 52 9 -4 70 -23 135 -43z m-345 -31 c80 -23 105
-40 60 -40 -13 0 -71 10 -130 22 -106 22 -108 23 -108 50 l0 28 48 -19 c26
-10 84 -28 130 -41z m154 -58 c-30 -4 -55 5 -47 17 3 6 18 5 38 -2 29 -11 30
-12 9 -15z m-147 -16 c9 -2 -167 -126 -180 -126 -3 0 -5 35 -5 78 l0 79 88
-14 c48 -8 91 -15 97 -17z m272 -45 c7 -3 -9 -19 -38 -39 l-49 -32 0 44 0 45
38 -6 c20 -3 42 -8 49 -12z"/>
<path d="M1064 813 c3 -145 11 -262 16 -267 7 -7 10 8 10 42 0 45 3 52 20 52
24 0 24 -3 5 -41 -9 -16 -13 -34 -10 -39 13 -21 31 -8 48 34 14 35 24 45 49
50 55 11 111 7 130 -11 27 -25 21 -4 -17 57 -29 47 -32 55 -17 58 33 7 37 22
5 22 -65 0 -71 57 -8 76 40 12 40 12 8 13 l-31 1 15 40 c9 22 21 40 27 40 6 0
11 14 12 30 1 34 -11 40 -21 10 -6 -18 -15 -20 -80 -20 l-73 0 -21 36 c-12 19
-21 36 -21 37 0 1 58 4 128 5 l129 4 7 -294 c3 -161 9 -316 12 -344 l6 -51
-246 42 c-136 23 -249 45 -252 47 -3 3 19 22 47 43 54 39 52 38 144 19 17 -4
27 -4 24 0 -8 8 -396 146 -419 149 -12 2 -15 -12 -14 -70 0 -74 -3 -80 -34
-64 -9 5 -62 24 -117 42 -55 18 -125 43 -155 55 -30 12 -58 20 -62 17 -10 -5
-10 -163 -1 -256 4 -44 11 -71 20 -74 7 -3 62 31 123 75 l109 81 61 -11 60
-10 0 -48 c0 -74 18 -82 86 -34 30 21 61 43 68 48 10 7 373 -37 561 -67 6 -1
11 126 13 359 l3 361 -77 6 c-42 4 -122 7 -177 7 l-100 0 7 -257z m40 162 c3
-8 1 -15 -4 -15 -6 0 -10 7 -10 15 0 8 2 15 4 15 2 0 6 -7 10 -15z m176 -40
c0 -4 -7 -19 -15 -35 -19 -36 -48 -39 -69 -8 -20 29 -20 35 2 41 25 7 82 8 82
2z m-127 -35 l18 -30 -40 0 c-39 0 -41 2 -41 30 0 25 4 30 23 30 15 0 29 -11
40 -30z m51 -76 c15 -38 8 -44 -54 -44 l-60 0 0 30 c0 30 1 30 54 30 40 0 55
-4 60 -16z m-24 -84 c0 -6 -7 -24 -15 -40 -12 -23 -22 -30 -45 -30 -27 0 -30
3 -30 33 0 19 3 37 7 40 11 11 83 8 83 -3z m98 -25 c12 -19 22 -37 22 -40 0
-3 -25 -5 -55 -5 -30 0 -55 2 -55 5 0 2 8 20 17 40 21 44 42 44 71 0z m-421
-146 c62 -19 113 -36 113 -39 0 -3 -28 -22 -61 -43 -59 -37 -65 -39 -117 -32
-30 4 -65 11 -76 15 -20 8 -20 9 -1 10 19 1 19 1 3 14 -13 10 -18 27 -18 66 0
61 -14 60 157 9z m-380 -20 c62 -19 111 -38 109 -44 -4 -13 -26 -10 -153 16
-97 20 -103 23 -103 46 0 19 4 24 18 20 9 -2 68 -20 129 -38z m193 -59 c11 -7
7 -10 -17 -10 -17 0 -35 5 -38 10 -8 13 35 13 55 0z m-232 -12 c45 -6 82 -14
81 -17 0 -5 -164 -116 -189 -129 -3 -1 -4 34 -2 78 2 53 8 80 15 80 7 0 49 -5
95 -12z m344 -56 c13 -6 6 -14 -33 -40 l-49 -32 0 40 c0 39 1 40 33 39 17 0
40 -3 49 -7z"/>
</g>
</svg>
