<?xml version="1.0" standalone="no"?>
<!DOCTYPE svg PUBLIC "-//W3C//DTD SVG 20010904//EN"
 "http://www.w3.org/TR/2001/REC-SVG-20010904/DTD/svg10.dtd">
<svg version="1.0" xmlns="http://www.w3.org/2000/svg"
 width="171.000000pt" height="159.000000pt" viewBox="0 0 171.000000 159.000000"
 preserveAspectRatio="xMidYMid meet">
<metadata>
Created by potrace 1.16, written by Peter Selinger 2001-2019
</metadata>
<g transform="translate(0.000000,159.000000) scale(0.100000,-0.100000)"
fill="#000000" stroke="none">
<path d="M1064 1038 c9 -335 26 -352 26 -25 l0 247 140 0 140 0 0 -132 c0 -73
5 -232 10 -352 6 -120 8 -221 5 -224 -7 -7 -716 -149 -905 -181 -150 -25 -165
-29 -162 -47 2 -10 5 -21 7 -23 5 -5 383 75 756 161 l317 72 6 50 c3 28 6 196
6 372 l0 322 -31 6 c-17 3 -97 6 -177 6 l-145 0 7 -252z"/>
<path d="M385 770 c-4 -6 -4 -14 -1 -17 18 -18 662 -41 651 -24 -3 6 -30 11
-59 11 -69 0 -501 28 -547 36 -23 3 -40 1 -44 -6z"/>
<path d="M300 651 c0 -122 10 -222 21 -215 5 3 9 75 9 160 0 130 -2 154 -15
154 -12 0 -15 -18 -15 -99z"/>
</g>
</svg>
