<?xml version="1.0" standalone="no"?>
<!DOCTYPE svg PUBLIC "-//W3C//DTD SVG 20010904//EN"
 "http://www.w3.org/TR/2001/REC-SVG-20010904/DTD/svg10.dtd">
<svg version="1.0" xmlns="http://www.w3.org/2000/svg"
 width="223.000000pt" height="186.000000pt" viewBox="0 0 223.000000 186.000000"
 preserveAspectRatio="xMidYMid meet">
<metadata>
Created by potrace 1.16, written by Peter Selinger 2001-2019
</metadata>
<g transform="translate(0.000000,186.000000) scale(0.100000,-0.100000)"
fill="#000000" stroke="none">
<path d="M1540 1505 c-36 -30 -68 -55 -72 -55 -18 0 -5 -35 42 -117 107 -186
139 -321 106 -438 l-17 -58 -67 7 c-37 3 -109 6 -161 6 -85 0 -92 2 -86 18 14
33 17 101 7 131 l-11 31 97 0 c116 0 232 10 232 20 0 4 -78 10 -172 14 -95 4
-174 12 -176 17 -2 5 -12 9 -22 9 -18 0 -18 -2 2 -47 13 -29 22 -68 21 -98 0
-50 -36 -170 -57 -191 -15 -16 -141 -64 -182 -71 l-34 -6 0 209 c0 115 3 225
6 245 l6 37 57 -14 c32 -7 81 -22 110 -34 60 -23 65 -24 55 -9 -11 18 -142 77
-198 90 -60 13 -137 -2 -226 -45 l-52 -25 -224 6 -224 6 0 -21 0 -22 216 7
215 6 -18 -37 -17 -37 -198 3 c-189 3 -198 2 -198 -16 0 -18 8 -19 195 -14
l195 6 -7 -27 c-3 -14 -7 -28 -9 -30 -2 -2 -87 -3 -189 -2 -165 2 -185 1 -185
-14 0 -15 19 -16 185 -13 l185 3 0 -26 0 -26 -185 5 -185 5 0 -22 0 -22 188 7
188 6 17 -26 c9 -14 17 -27 17 -28 0 -2 -92 -2 -205 0 -184 3 -205 2 -205 -13
0 -15 21 -16 210 -14 l211 3 53 -53 c61 -60 115 -81 211 -81 52 0 75 7 153 45
78 37 93 49 106 80 15 34 16 35 74 35 32 0 107 3 166 7 l106 6 -16 -38 c-8
-21 -33 -67 -55 -103 l-40 -66 24 -56 c23 -55 23 -56 6 -106 -9 -28 -20 -69
-23 -91 l-7 -40 58 -12 c100 -22 107 -18 184 89 84 117 160 261 189 358 40
131 19 243 -81 443 -68 138 -204 358 -219 359 -3 0 -35 -25 -70 -55z m118 -91
c137 -207 221 -395 229 -514 10 -127 -54 -299 -182 -491 l-64 -96 -69 20 -69
20 19 46 c11 25 24 55 29 66 7 15 3 40 -15 93 l-25 74 54 90 c92 152 120 257
96 355 -16 63 -72 189 -123 276 l-40 69 43 44 c24 24 46 44 49 44 3 0 34 -43
68 -96z m-696 -491 c3 -131 4 -240 2 -242 -1 -1 -37 7 -79 20 -82 24 -101 40
-145 128 -28 56 -24 142 9 217 20 46 29 55 79 77 74 32 83 35 108 36 21 1 21
-3 26 -236z"/>
<path d="M300 722 c0 -17 14 -18 223 -14 122 2 226 7 230 11 10 10 -155 21
-320 21 -121 0 -133 -2 -133 -18z"/>
</g>
</svg>
