<?xml version="1.0" standalone="no"?>
<!DOCTYPE svg PUBLIC "-//W3C//DTD SVG 20010904//EN"
 "http://www.w3.org/TR/2001/REC-SVG-20010904/DTD/svg10.dtd">
<svg version="1.0" xmlns="http://www.w3.org/2000/svg"
 width="96.000000pt" height="156.000000pt" viewBox="0 0 96.000000 156.000000"
 preserveAspectRatio="xMidYMid meet">
<metadata>
Created by potrace 1.16, written by Peter Selinger 2001-2019
</metadata>
<g transform="translate(0.000000,156.000000) scale(0.100000,-0.100000)"
fill="#000000" stroke="none">
<path d="M314 1235 c-8 -34 0 -893 9 -902 4 -3 9 -4 12 -1 3 2 8 204 12 447
l6 443 71 -4 c125 -8 176 -51 161 -136 -9 -54 -59 -138 -116 -193 -46 -45 -49
-51 -49 -99 0 -86 39 -146 135 -208 54 -35 65 -50 65 -91 0 -29 -9 -43 -52
-86 -58 -56 -99 -72 -204 -82 -84 -8 -64 -23 31 -22 83 0 129 15 185 59 91 72
105 177 31 244 -16 14 -24 16 -34 7 -11 -9 -23 -2 -55 32 -55 61 -64 80 -63
149 0 55 3 63 40 103 56 61 108 143 121 193 26 99 -53 163 -211 170 l-88 4 -7
-27z"/>
</g>
</svg>
