<?xml version="1.0" standalone="no"?>
<!DOCTYPE svg PUBLIC "-//W3C//DTD SVG 20010904//EN"
 "http://www.w3.org/TR/2001/REC-SVG-20010904/DTD/svg10.dtd">
<svg version="1.0" xmlns="http://www.w3.org/2000/svg"
 width="164.000000pt" height="131.000000pt" viewBox="0 0 164.000000 131.000000"
 preserveAspectRatio="xMidYMid meet">
<metadata>
Created by potrace 1.16, written by Peter Selinger 2001-2019
</metadata>
<g transform="translate(0.000000,131.000000) scale(0.100000,-0.100000)"
fill="#000000" stroke="none">
<path d="M354 1001 c4 -6 1 -11 -8 -11 -9 0 -17 -13 -21 -32 -18 -109 -25
-191 -25 -334 l0 -162 33 -48 c17 -27 54 -64 81 -81 l48 -33 237 0 c239 1 615
21 629 34 4 4 -173 4 -393 1 -295 -6 -411 -4 -443 4 -51 14 -113 68 -148 127
l-26 44 11 147 c13 166 30 293 42 308 4 6 59 12 122 14 l114 2 7 -147 c13
-286 33 -294 35 -12 1 123 -2 169 -11 175 -22 13 -292 17 -284 4z"/>
<path d="M650 623 c0 -16 6 -23 19 -23 17 0 20 -11 27 -100 3 -55 11 -103 15
-106 5 -3 9 43 9 101 l0 106 38 -3 c36 -3 37 -5 39 -43 12 -184 33 -220 33
-54 0 97 0 99 24 99 19 0 24 -6 30 -37 3 -21 6 -58 7 -83 0 -25 4 -56 8 -70 7
-23 8 -21 15 17 4 23 7 61 6 85 -3 82 -2 88 24 88 23 0 24 -3 31 -87 8 -112
23 -152 25 -68 1 33 1 84 0 113 -1 51 -1 52 28 52 l29 0 7 -102 c10 -144 26
-150 26 -10 0 62 1 112 3 113 14 5 219 24 222 20 3 -2 5 -41 6 -85 1 -45 5
-108 9 -141 5 -47 7 -27 9 92 l1 152 -345 -2 -345 -2 0 -22z"/>
<path d="M340 600 l0 -23 136 6 c125 6 155 10 143 21 -2 2 -66 7 -141 11
l-138 7 0 -22z"/>
<path d="M1150 566 c0 -71 12 -166 21 -166 5 0 9 47 9 105 0 87 -3 105 -15
105 -11 0 -15 -12 -15 -44z"/>
</g>
</svg>
