<?xml version="1.0" standalone="no"?>
<!DOCTYPE svg PUBLIC "-//W3C//DTD SVG 20010904//EN"
 "http://www.w3.org/TR/2001/REC-SVG-20010904/DTD/svg10.dtd">
<svg version="1.0" xmlns="http://www.w3.org/2000/svg"
 width="180.000000pt" height="124.000000pt" viewBox="0 0 180.000000 124.000000"
 preserveAspectRatio="xMidYMid meet">
<metadata>
Created by potrace 1.16, written by Peter Selinger 2001-2019
</metadata>
<g transform="translate(0.000000,124.000000) scale(0.100000,-0.100000)"
fill="#000000" stroke="none">
<path d="M300 788 c0 -84 7 -218 14 -298 8 -80 14 -147 14 -150 -2 -21 5 -30
22 -30 19 0 127 45 270 114 66 31 82 35 126 30 40 -5 59 -2 95 16 41 21 63 23
348 31 167 5 307 11 310 14 3 3 1 9 -5 13 -11 8 -11 173 0 191 4 6 6 11 4 12
-2 0 -140 4 -308 8 -284 8 -308 10 -354 31 -38 17 -58 20 -93 15 -38 -5 -54
-2 -111 26 -149 72 -286 129 -308 129 l-24 0 0 -152z m237 22 c132 -54 132
-54 112 -73 -63 -59 -63 -169 -1 -239 13 -16 12 -18 -9 -27 -13 -5 -81 -32
-152 -61 -70 -29 -130 -50 -134 -46 -3 3 -8 123 -11 267 l-5 260 34 -14 c19
-7 94 -38 166 -67z m907 -145 c3 -25 9 -66 12 -92 l7 -46 -108 6 c-60 4 -182
7 -272 7 l-163 0 6 27 c9 35 9 71 1 105 l-7 28 167 3 c93 1 209 4 259 5 l92 2
6 -45z"/>
</g>
</svg>
