<?xml version="1.0" standalone="no"?>
<!DOCTYPE svg PUBLIC "-//W3C//DTD SVG 20010904//EN"
 "http://www.w3.org/TR/2001/REC-SVG-20010904/DTD/svg10.dtd">
<svg version="1.0" xmlns="http://www.w3.org/2000/svg"
 width="209.000000pt" height="121.000000pt" viewBox="0 0 209.000000 121.000000"
 preserveAspectRatio="xMidYMid meet">
<metadata>
Created by potrace 1.16, written by Peter Selinger 2001-2019
</metadata>
<g transform="translate(0.000000,121.000000) scale(0.100000,-0.100000)"
fill="#000000" stroke="none">
<path d="M446 903 c-27 -3 -40 -10 -43 -24 -3 -10 -13 -19 -23 -19 -14 0 -25
-19 -45 -77 -48 -142 -43 -255 16 -377 10 -22 19 -45 19 -51 0 -7 37 -21 83
-31 101 -23 286 -24 365 -2 33 10 55 12 59 5 6 -10 630 -2 783 11 47 3 91 6
98 5 6 0 12 3 12 7 0 9 -274 87 -595 168 -227 58 -230 59 -233 86 -2 17 0 26
7 22 11 -7 299 63 616 150 248 68 236 64 205 76 -35 14 -880 24 -880 11 0 -6
-34 0 -77 15 -65 21 -99 26 -203 28 -69 1 -142 0 -164 -3z m384 -55 c48 -15
47 -14 64 -125 l6 -43 -250 0 c-226 0 -250 -2 -250 -17 0 -15 21 -16 250 -9
l250 6 0 -49 0 -50 -255 6 c-237 6 -255 5 -255 -11 0 -16 19 -17 256 -14 l256
3 -7 -50 c-3 -27 -11 -71 -16 -96 -10 -46 -12 -47 -54 -53 -115 -18 -270 -5
-411 33 -41 11 -42 13 -58 76 -24 94 -21 189 9 282 32 103 42 115 101 124 73
11 313 3 364 -13z m635 -63 c-132 -29 -298 -67 -368 -84 -71 -17 -134 -31
-142 -31 -12 0 -18 27 -28 135 -2 19 6 20 298 25 165 3 341 6 390 7 l90 2
-240 -54z m-285 -314 c118 -27 276 -62 350 -77 74 -15 138 -30 142 -33 4 -3
-70 -3 -165 0 -95 4 -272 7 -393 8 l-222 1 19 61 c10 33 19 70 19 81 0 14 5
18 18 14 9 -3 114 -27 232 -55z"/>
</g>
</svg>
