<?xml version="1.0" standalone="no"?>
<!DOCTYPE svg PUBLIC "-//W3C//DTD SVG 20010904//EN"
 "http://www.w3.org/TR/2001/REC-SVG-20010904/DTD/svg10.dtd">
<svg version="1.0" xmlns="http://www.w3.org/2000/svg"
 width="205.000000pt" height="135.000000pt" viewBox="0 0 205.000000 135.000000"
 preserveAspectRatio="xMidYMid meet">
<metadata>
Created by potrace 1.16, written by Peter Selinger 2001-2019
</metadata>
<g transform="translate(0.000000,135.000000) scale(0.100000,-0.100000)"
fill="#000000" stroke="none">
<path d="M893 1031 c-29 -11 -80 -34 -113 -53 -50 -27 -64 -41 -82 -79 l-21
-47 -188 6 -189 5 1 -94 c0 -52 4 -118 8 -146 4 -29 4 -53 -1 -53 -4 0 -8 -12
-8 -26 l0 -27 188 7 c183 7 189 7 198 -13 22 -49 121 -161 154 -175 111 -48
200 -49 295 -2 121 60 156 87 175 136 l18 45 148 7 c216 10 277 17 267 31 -5
7 -6 75 -3 152 3 77 5 141 4 142 0 2 -90 6 -200 9 -176 6 -201 9 -217 25 -23
24 -41 25 -32 2 55 -143 56 -207 9 -357 l-28 -89 -94 -45 c-117 -57 -171 -63
-274 -32 -40 12 -85 28 -99 35 -28 15 -94 129 -84 145 3 6 2 10 -3 10 -17 0
-32 60 -32 124 0 62 33 173 64 221 24 36 156 96 226 102 62 6 151 -16 258 -63
30 -13 57 -22 59 -20 7 7 -105 76 -167 104 -75 34 -168 39 -237 13z m-228
-218 c-26 -63 -34 -198 -14 -235 11 -21 11 -21 -81 -15 -51 4 -125 7 -164 7
l-71 0 3 118 c2 64 6 119 8 121 2 3 70 7 152 11 81 4 153 7 161 8 9 1 11 -4 6
-15z m1035 -45 c1 -35 5 -94 10 -133 5 -38 7 -71 6 -73 -2 -2 -84 0 -183 4
l-180 7 16 54 c12 43 12 67 4 116 -6 34 -9 64 -7 66 2 3 70 7 152 11 81 4 155
7 165 8 14 2 17 -7 17 -60z"/>
</g>
</svg>
