<?xml version="1.0" standalone="no"?>
<!DOCTYPE svg PUBLIC "-//W3C//DTD SVG 20010904//EN"
 "http://www.w3.org/TR/2001/REC-SVG-20010904/DTD/svg10.dtd">
<svg version="1.0" xmlns="http://www.w3.org/2000/svg"
 width="134.000000pt" height="205.000000pt" viewBox="0 0 134.000000 205.000000"
 preserveAspectRatio="xMidYMid meet">
<metadata>
Created by potrace 1.16, written by Peter Selinger 2001-2019
</metadata>
<g transform="translate(0.000000,205.000000) scale(0.100000,-0.100000)"
fill="#000000" stroke="none">
<path d="M526 1743 c-18 -5 -18 -14 -12 -171 4 -92 9 -174 12 -183 3 -11 -14
-25 -62 -50 -76 -38 -101 -70 -135 -169 -32 -96 -36 -182 -10 -250 23 -62 143
-220 172 -227 15 -4 19 -15 19 -47 1 -77 20 -339 25 -345 4 -3 9 0 13 6 11 17
272 22 272 6 0 -7 4 -13 9 -13 11 0 21 135 21 288 l0 123 58 37 c31 20 58 44
59 52 1 8 16 49 33 90 44 103 49 178 20 270 -14 43 -30 75 -42 81 -28 15 -32
6 -13 -31 9 -17 22 -61 30 -96 15 -71 6 -137 -36 -261 -23 -70 -28 -74 -153
-128 -78 -33 -96 -37 -146 -32 -32 3 -73 12 -91 20 -19 8 -53 20 -77 27 -41
13 -45 18 -90 108 -45 91 -47 99 -46 176 1 64 7 96 30 156 29 75 30 75 99 112
136 72 229 73 390 3 43 -19 81 -33 83 -30 3 2 -22 21 -55 42 l-60 37 5 196 5
197 -78 6 c-86 8 -219 7 -249 0z m286 -200 c3 -98 4 -179 3 -180 -1 -2 -28 7
-61 18 -59 21 -140 22 -188 3 -18 -7 -19 -3 -13 71 4 43 7 118 7 166 l0 88 93
4 c50 1 106 4 123 5 l31 2 5 -177z m-2 -980 c0 -65 3 -142 7 -172 6 -49 5 -54
-12 -48 -9 4 -71 10 -138 14 l-120 6 7 75 c3 41 6 110 6 153 l0 78 32 -10 c47
-13 128 -10 163 6 55 25 55 25 55 -102z"/>
</g>
</svg>
