<?xml version="1.0" standalone="no"?>
<!DOCTYPE svg PUBLIC "-//W3C//DTD SVG 20010904//EN"
 "http://www.w3.org/TR/2001/REC-SVG-20010904/DTD/svg10.dtd">
<svg version="1.0" xmlns="http://www.w3.org/2000/svg"
 width="171.000000pt" height="171.000000pt" viewBox="0 0 171.000000 171.000000"
 preserveAspectRatio="xMidYMid meet">
<metadata>
Created by potrace 1.16, written by Peter Selinger 2001-2019
</metadata>
<g transform="translate(0.000000,171.000000) scale(0.100000,-0.100000)"
fill="#000000" stroke="none">
<path d="M510 1270 l0 -140 -105 0 -105 0 0 -31 0 -32 105 7 105 7 2 -186 c0
-102 1 -191 2 -197 1 -10 -25 -12 -106 -9 l-108 3 0 -31 0 -31 110 0 110 0 1
-142 c1 -176 12 -230 22 -108 4 47 7 122 7 168 0 78 1 82 23 82 12 0 104 3
205 6 l182 6 0 -79 c0 -44 3 -122 7 -174 9 -135 21 -83 22 97 l1 151 128 6
c70 4 164 7 210 7 45 0 82 4 82 9 0 5 -92 12 -205 16 l-205 7 0 198 0 197 61
7 c34 3 121 6 193 6 72 0 137 4 144 9 16 10 -138 21 -292 21 l-109 0 5 145 6
145 -29 0 -29 0 0 -145 0 -145 -82 5 c-46 3 -134 5 -195 5 l-113 0 0 140 0
140 -25 0 -25 0 0 -140z m200 -225 l34 -35 -58 0 c-46 0 -64 5 -92 26 -19 15
-34 30 -34 35 0 5 26 9 58 9 53 0 61 -3 92 -35z m240 -6 l0 -42 -82 7 c-77 7
-86 10 -118 42 l-35 34 118 0 117 0 0 -41z m-80 -137 c43 -37 77 -68 76 -70
-2 -1 -35 1 -74 4 -69 7 -72 8 -138 68 l-68 61 49 6 c28 3 56 4 64 2 7 -2 48
-34 91 -71z m82 18 c1 -33 1 -60 -2 -60 -3 0 -32 27 -65 60 l-59 60 61 0 61 0
4 -60z m-257 -15 l70 -64 -70 -1 c-64 0 -71 2 -102 32 -24 23 -33 41 -33 65 0
31 2 33 33 33 25 0 46 -14 102 -65z m-120 -55 c3 -5 1 -10 -4 -10 -6 0 -11 5
-11 10 0 6 2 10 4 10 3 0 8 -4 11 -10z m383 -100 l-3 -54 -59 55 -59 54 54 5
c30 3 58 3 62 -1 5 -3 7 -30 5 -59z m-254 -10 l68 -55 -98 -3 c-54 -1 -104 0
-111 3 -10 3 -13 17 -9 47 2 24 5 48 5 55 1 13 49 22 67 13 5 -3 41 -30 78
-60z m174 5 l73 -65 -78 0 -79 0 -57 58 c-31 32 -57 61 -57 65 0 4 28 7 63 7
l62 0 73 -65z"/>
</g>
</svg>
