<?xml version="1.0" standalone="no"?>
<!DOCTYPE svg PUBLIC "-//W3C//DTD SVG 20010904//EN"
 "http://www.w3.org/TR/2001/REC-SVG-20010904/DTD/svg10.dtd">
<svg version="1.0" xmlns="http://www.w3.org/2000/svg"
 width="227.000000pt" height="171.000000pt" viewBox="0 0 227.000000 171.000000"
 preserveAspectRatio="xMidYMid meet">
<metadata>
Created by potrace 1.16, written by Peter Selinger 2001-2019
</metadata>
<g transform="translate(0.000000,171.000000) scale(0.100000,-0.100000)"
fill="#000000" stroke="none">
<path d="M1080 1270 l0 -139 -107 -3 c-108 -3 -108 -3 -108 -28 l0 -25 108 2
107 3 0 -100 0 -100 -27 0 -26 0 23 25 c13 14 20 28 16 32 -4 5 -20 -7 -35
-26 l-27 -33 -73 86 c-65 76 -91 95 -91 66 0 -5 20 -32 45 -61 37 -41 44 -54
34 -65 -22 -26 -44 -13 -109 66 -36 44 -68 80 -72 80 -26 1 -11 -31 42 -91 34
-38 57 -69 52 -69 -6 0 -12 6 -15 13 -4 10 -7 10 -18 0 -7 -7 -18 -13 -24 -13
-5 0 -39 36 -75 80 -36 43 -69 78 -74 76 -23 -6 -13 -27 44 -89 l61 -66 -51 1
c-51 1 -51 1 -116 80 -59 70 -84 87 -84 56 0 -5 25 -37 55 -70 30 -34 52 -65
49 -69 -3 -5 -18 -9 -35 -9 -20 0 -29 5 -29 16 0 14 -2 14 -16 3 -13 -11 -18
-10 -32 9 -69 90 -149 181 -156 178 -24 -6 -11 -28 69 -119 47 -53 85 -99 85
-101 0 -2 -38 -48 -85 -102 -47 -53 -84 -102 -82 -107 8 -24 25 -12 82 59 110
137 102 129 119 115 13 -11 16 -11 16 3 0 12 10 16 46 16 l46 0 -66 -74 c-36
-41 -66 -79 -66 -84 0 -31 24 -14 81 56 34 42 66 81 71 87 5 5 13 4 20 -3 17
-17 33 -15 18 3 -11 13 -8 15 18 15 17 0 39 3 49 7 10 4 -1 -15 -27 -45 -102
-119 -104 -122 -93 -133 7 -7 32 15 84 75 40 47 75 86 77 86 3 0 14 -7 24 -17
10 -9 18 -11 18 -5 0 6 -4 14 -10 17 -20 12 -9 25 20 25 17 0 30 -4 30 -8 0
-4 -18 -26 -41 -47 -66 -65 -103 -115 -92 -126 7 -7 35 18 84 75 41 47 77 86
80 86 3 0 13 -8 22 -18 15 -17 14 -21 -29 -70 l-46 -53 16 -34 17 -34 107 -3
107 -3 3 -162 c1 -90 6 -163 11 -163 4 0 11 73 15 162 4 90 8 163 9 164 1 1
93 5 205 9 l202 8 0 -104 c0 -57 3 -135 7 -174 l7 -70 7 50 c4 28 8 104 8 171
l1 121 122 6 c66 4 159 7 205 7 45 0 83 4 83 9 0 5 -91 12 -203 16 l-204 7 5
82 c3 58 8 84 20 94 14 11 10 16 -10 13 -5 0 -8 6 -8 14 0 9 6 12 18 9 16 -5
16 -5 0 9 -15 11 -18 30 -18 94 l0 80 61 7 c34 3 122 6 195 6 73 0 135 4 138
9 6 10 -147 21 -291 21 l-103 0 0 145 0 145 -25 0 -25 0 0 -144 0 -144 -62 3
c-35 2 -123 4 -195 4 l-133 1 0 140 0 140 -25 0 -25 0 0 -140z m150 -214 l53
-24 -61 -31 c-77 -39 -92 -34 -92 30 0 45 2 49 24 49 13 0 48 -11 76 -24z
m130 9 c-32 -18 -42 -18 -66 0 -17 13 -15 14 36 14 53 0 54 0 30 -14z m160
-24 c0 -33 -4 -40 -29 -51 -25 -10 -35 -8 -81 15 l-53 27 39 24 c25 15 55 23
82 24 l42 0 0 -39z m-140 -56 l45 -23 -65 -30 -65 -29 -42 20 c-24 12 -43 24
-43 27 0 8 93 58 110 59 8 0 35 -11 60 -24z m140 -20 c0 -8 -4 -15 -9 -15 -13
0 -22 16 -14 24 11 11 23 6 23 -9z m-35 -29 c32 -14 35 -19 35 -55 0 -36 -3
-40 -34 -51 -30 -10 -41 -8 -85 14 -27 14 -52 30 -55 35 -5 7 67 56 102 70 1
0 18 -6 37 -13z m-275 -30 l45 -24 -47 -22 c-57 -28 -78 -22 -78 24 0 29 9 43
30 45 3 0 25 -10 50 -23z m-255 -16 c3 -5 -1 -10 -9 -10 -9 0 -16 5 -16 10 0
6 4 10 9 10 6 0 13 -4 16 -10z m10 -50 c-10 -11 -21 -20 -24 -20 -3 0 -12 9
-19 20 -11 19 -10 20 24 20 36 0 37 0 19 -20z m115 -69 l0 -89 -97 5 c-54 3
-100 7 -102 9 -2 2 14 23 35 46 22 24 49 56 62 72 l23 29 34 -33 c41 -40 46
-32 9 16 l-26 34 31 0 31 0 0 -89z m285 61 l60 -29 -49 -21 c-27 -12 -52 -22
-57 -22 -5 0 -34 12 -64 27 l-55 27 42 23 c24 12 48 22 53 23 6 0 37 -13 70
-28z m153 -42 c-2 -6 -8 -6 -18 0 -13 9 -13 11 0 20 15 10 25 0 18 -20z m-296
-27 l58 -27 -52 -28 c-28 -15 -64 -28 -80 -28 -27 0 -28 1 -28 53 0 47 2 53
23 55 12 1 48 -10 79 -25z m272 12 c33 -14 36 -19 36 -55 0 -40 0 -40 -39 -40
-23 0 -57 11 -86 26 l-47 27 49 27 c26 15 49 28 49 29 1 1 18 -6 38 -14z
m-105 -91 c2 -2 -27 -4 -65 -4 l-69 1 35 18 c32 17 37 18 65 4 16 -9 32 -17
34 -19z"/>
</g>
</svg>
