<?xml version="1.0" standalone="no"?>
<!DOCTYPE svg PUBLIC "-//W3C//DTD SVG 20010904//EN"
 "http://www.w3.org/TR/2001/REC-SVG-20010904/DTD/svg10.dtd">
<svg version="1.0" xmlns="http://www.w3.org/2000/svg"
 width="114.000000pt" height="150.000000pt" viewBox="0 0 114.000000 150.000000"
 preserveAspectRatio="xMidYMid meet">
<metadata>
Created by potrace 1.16, written by Peter Selinger 2001-2019
</metadata>
<g transform="translate(0.000000,150.000000) scale(0.100000,-0.100000)"
fill="#000000" stroke="none">
<path d="M587 1193 c-4 -3 -7 -28 -7 -55 l0 -48 -140 0 c-87 0 -140 -4 -140
-10 0 -6 53 -10 140 -10 l140 0 0 -30 0 -30 -140 0 c-87 0 -140 -4 -140 -10 0
-6 53 -10 140 -10 l140 0 0 -41 0 -41 -140 4 c-118 4 -140 2 -140 -10 0 -12
22 -14 139 -10 l139 4 5 -29 c2 -18 -1 -31 -9 -34 -8 -3 -72 -3 -144 -2 -104
3 -130 1 -130 -9 0 -11 28 -13 143 -10 l142 3 3 -42 3 -43 -145 0 c-91 0 -146
-4 -146 -10 0 -6 55 -10 145 -10 l145 0 0 -30 0 -30 -145 0 c-90 0 -145 -4
-145 -10 0 -6 55 -10 145 -10 l145 0 0 -45 0 -45 -145 0 c-109 0 -145 -3 -145
-12 0 -10 34 -12 145 -10 l145 4 0 -31 0 -31 -145 0 c-110 0 -145 -3 -145 -13
0 -9 33 -11 144 -9 l145 4 7 -72 7 -71 112 3 112 3 7 149 c3 82 6 278 6 436
l0 288 -44 11 c-49 12 -198 15 -209 4z m218 -500 l7 -363 -48 0 c-27 0 -71 3
-99 6 l-50 6 2 297 c2 163 6 346 9 407 l6 111 76 9 77 9 6 -60 c4 -33 10 -223
14 -422z"/>
</g>
</svg>
