<?xml version="1.0" standalone="no"?>
<!DOCTYPE svg PUBLIC "-//W3C//DTD SVG 20010904//EN"
 "http://www.w3.org/TR/2001/REC-SVG-20010904/DTD/svg10.dtd">
<svg version="1.0" xmlns="http://www.w3.org/2000/svg"
 width="114.000000pt" height="130.000000pt" viewBox="0 0 114.000000 130.000000"
 preserveAspectRatio="xMidYMid meet">
<metadata>
Created by potrace 1.16, written by Peter Selinger 2001-2019
</metadata>
<g transform="translate(0.000000,130.000000) scale(0.100000,-0.100000)"
fill="#000000" stroke="none">
<path d="M302 984 c3 -15 24 -16 196 -15 l192 2 0 -60 0 -61 -196 0 c-181 0
-195 -1 -192 -17 3 -17 19 -18 196 -14 l192 3 0 -172 0 -173 -195 5 c-191 6
-195 5 -195 -15 0 -20 3 -20 194 -14 219 8 206 12 206 -75 l0 -49 -197 2
c-178 2 -198 1 -201 -14 -3 -15 8 -17 95 -17 54 0 175 3 270 7 l171 6 -1 341
-2 341 -268 3 c-244 2 -268 1 -265 -14z m508 -74 l0 -70 -45 0 -45 0 0 70 0
70 45 0 45 0 0 -70z m0 -209 c0 -70 3 -149 6 -175 l7 -46 -52 0 -51 0 0 169
c0 183 -1 179 58 180 l32 1 0 -129z m10 -306 l0 -65 -55 0 -55 0 0 65 0 65 55
0 55 0 0 -65z"/>
</g>
</svg>
