<?xml version="1.0" standalone="no"?>
<!DOCTYPE svg PUBLIC "-//W3C//DTD SVG 20010904//EN"
 "http://www.w3.org/TR/2001/REC-SVG-20010904/DTD/svg10.dtd">
<svg version="1.0" xmlns="http://www.w3.org/2000/svg"
 width="165.000000pt" height="138.000000pt" viewBox="0 0 165.000000 138.000000"
 preserveAspectRatio="xMidYMid meet">
<metadata>
Created by potrace 1.16, written by Peter Selinger 2001-2019
</metadata>
<g transform="translate(0.000000,138.000000) scale(0.100000,-0.100000)"
fill="#000000" stroke="none">
<path d="M1275 1066 c-135 -87 -432 -282 -438 -287 -11 -9 1 -49 14 -49 16 0
293 197 374 266 41 35 77 64 80 64 3 0 5 -50 5 -111 0 -121 17 -416 29 -519 6
-43 9 57 10 288 1 298 -1 352 -13 352 -8 0 -20 2 -28 4 -7 3 -22 -1 -33 -8z"/>
<path d="M300 883 c1 -104 7 -264 15 -358 7 -93 13 -172 13 -175 -1 -29 4 -50
13 -50 14 0 224 151 340 245 65 53 95 72 100 63 3 -7 10 -39 14 -70 3 -32 11
-58 17 -58 7 0 8 16 4 46 -3 26 -6 107 -6 180 0 127 -1 134 -20 134 -16 0 -20
-7 -20 -31 l0 -30 -72 52 c-152 108 -358 239 -378 239 -19 0 -20 -6 -20 -187z
m189 34 c75 -46 168 -101 207 -122 l72 -38 6 -55 c5 -41 3 -58 -6 -63 -7 -4
-102 -66 -212 -139 -109 -72 -201 -128 -205 -125 -8 9 -14 625 -5 625 3 0 68
-37 143 -83z"/>
<path d="M850 682 c0 -6 -3 -17 -6 -25 -9 -25 484 -342 504 -323 3 4 1 10 -5
14 -6 4 -55 40 -109 80 -141 103 -356 253 -371 259 -7 3 -13 1 -13 -5z"/>
</g>
</svg>
