<?xml version="1.0" standalone="no"?>
<!DOCTYPE svg PUBLIC "-//W3C//DTD SVG 20010904//EN"
 "http://www.w3.org/TR/2001/REC-SVG-20010904/DTD/svg10.dtd">
<svg version="1.0" xmlns="http://www.w3.org/2000/svg"
 width="165.000000pt" height="138.000000pt" viewBox="0 0 165.000000 138.000000"
 preserveAspectRatio="xMidYMid meet">
<metadata>
Created by potrace 1.16, written by Peter Selinger 2001-2019
</metadata>
<g transform="translate(0.000000,138.000000) scale(0.100000,-0.100000)"
fill="#000000" stroke="none">
<path d="M1276 1067 c-10 -7 -99 -65 -197 -129 l-178 -117 -37 20 c-45 23
-108 25 -147 4 -28 -14 -31 -13 -85 29 -95 73 -291 196 -312 196 -19 0 -20 -7
-20 -187 1 -104 7 -264 15 -358 7 -93 13 -172 13 -175 -1 -29 4 -50 13 -50 12
0 142 91 267 188 76 58 86 63 108 53 43 -19 115 -13 159 13 46 28 39 31 187
-62 51 -33 134 -82 185 -111 50 -28 94 -59 97 -69 3 -9 4 156 1 366 -2 211 -5
385 -7 387 -12 11 -46 12 -62 2z m24 -129 c0 -103 8 -251 26 -493 l7 -89 -49
37 c-27 21 -114 82 -194 136 l-145 98 3 56 c2 30 -1 64 -7 74 -9 18 4 30 117
111 70 50 150 112 177 136 28 25 53 45 58 46 4 0 7 -51 7 -112z m-836 -6 c61
-38 129 -79 151 -92 22 -13 41 -24 43 -26 2 -1 -6 -17 -17 -35 -28 -46 -28
-119 1 -170 12 -21 20 -40 17 -42 -163 -110 -302 -197 -307 -192 -10 9 -15
625 -6 625 4 0 57 -31 118 -68z"/>
</g>
</svg>
