<?xml version="1.0" standalone="no"?>
<!DOCTYPE svg PUBLIC "-//W3C//DTD SVG 20010904//EN"
 "http://www.w3.org/TR/2001/REC-SVG-20010904/DTD/svg10.dtd">
<svg version="1.0" xmlns="http://www.w3.org/2000/svg"
 width="139.000000pt" height="168.000000pt" viewBox="0 0 139.000000 168.000000"
 preserveAspectRatio="xMidYMid meet">
<metadata>
Created by potrace 1.16, written by Peter Selinger 2001-2019
</metadata>
<g transform="translate(0.000000,168.000000) scale(0.100000,-0.100000)"
fill="#000000" stroke="none">
<path d="M312 1361 c-11 -19 -7 -29 38 -96 28 -42 107 -166 175 -277 l125
-201 -19 -31 c-79 -132 -231 -418 -231 -436 l0 -21 288 7 c158 4 289 8 291 10
15 13 -38 17 -284 23 l-276 6 94 155 c51 85 107 177 124 204 l31 50 39 -62
c21 -34 78 -127 126 -207 49 -81 91 -144 94 -141 4 4 -181 346 -230 427 -10
16 78 169 262 451 67 103 79 118 104 118 15 0 27 4 27 9 0 12 -142 20 -475 27
-289 6 -290 6 -303 -15z m632 -68 c-15 -27 -44 -73 -63 -104 -20 -30 -74 -124
-121 -207 -47 -83 -87 -151 -90 -152 -3 0 -44 66 -90 148 -46 81 -112 193
-147 248 -35 56 -63 104 -63 108 0 3 135 6 301 6 l301 0 -28 -47z"/>
</g>
</svg>
