<?xml version="1.0" standalone="no"?>
<!DOCTYPE svg PUBLIC "-//W3C//DTD SVG 20010904//EN"
 "http://www.w3.org/TR/2001/REC-SVG-20010904/DTD/svg10.dtd">
<svg version="1.0" xmlns="http://www.w3.org/2000/svg"
 width="139.000000pt" height="165.000000pt" viewBox="0 0 139.000000 165.000000"
 preserveAspectRatio="xMidYMid meet">
<metadata>
Created by potrace 1.16, written by Peter Selinger 2001-2019
</metadata>
<g transform="translate(0.000000,165.000000) scale(0.100000,-0.100000)"
fill="#000000" stroke="none">
<path d="M313 1324 c-11 -23 -6 -33 55 -119 37 -51 94 -128 126 -170 54 -69
58 -78 47 -101 -20 -45 -14 -117 14 -158 14 -20 25 -39 25 -41 0 -16 -225
-372 -241 -380 -11 -6 -19 -18 -17 -29 3 -18 19 -19 388 -24 212 -2 382 -1
377 4 -9 10 -280 31 -519 40 l-187 7 35 42 c19 23 75 102 124 176 l90 133 54
-3 c30 -1 64 2 75 8 18 10 28 0 97 -97 90 -125 211 -272 224 -272 12 0 -51
103 -169 279 l-89 133 19 32 c22 35 25 111 7 150 -10 23 -7 32 30 83 23 32 74
108 114 170 40 61 79 112 86 112 22 1 13 21 -10 22 -13 1 -45 3 -73 5 -237 18
-357 24 -502 24 l-168 0 -12 -26z m675 -23 c10 -6 -4 -36 -61 -127 -41 -65
-82 -134 -91 -151 -9 -18 -19 -33 -21 -33 -2 0 -19 9 -37 20 -44 27 -122 27
-166 0 -18 -11 -34 -20 -36 -20 -4 0 -144 207 -198 293 l-18 27 308 0 c169 0
313 -4 320 -9z"/>
</g>
</svg>
