<?xml version="1.0" standalone="no"?>
<!DOCTYPE svg PUBLIC "-//W3C//DTD SVG 20010904//EN"
 "http://www.w3.org/TR/2001/REC-SVG-20010904/DTD/svg10.dtd">
<svg version="1.0" xmlns="http://www.w3.org/2000/svg"
 width="164.000000pt" height="117.000000pt" viewBox="0 0 164.000000 117.000000"
 preserveAspectRatio="xMidYMid meet">
<metadata>
Created by potrace 1.16, written by Peter Selinger 2001-2019
</metadata>
<g transform="translate(0.000000,117.000000) scale(0.100000,-0.100000)"
fill="#000000" stroke="none">
<path d="M460 860 c0 -5 -7 -10 -16 -10 -9 0 -36 -44 -74 -122 -33 -68 -60
-126 -60 -130 0 -29 38 22 131 175 l29 47 85 0 84 0 5 -32 c3 -18 7 -127 9
-241 l3 -209 -29 6 c-16 3 -62 6 -101 6 l-71 0 -54 115 c-30 63 -59 115 -65
115 -6 0 -17 -4 -25 -9 -16 -10 -8 -25 93 -180 l61 -94 429 6 c236 4 430 8
433 10 2 2 6 125 10 274 l6 270 -243 6 c-361 10 -640 9 -640 -3z m834 -197 c4
-98 9 -212 12 -254 l6 -76 -314 5 c-172 2 -315 7 -318 11 -3 3 -4 111 -2 239
l3 232 92 1 c77 1 347 11 478 17 l37 2 6 -177z"/>
</g>
</svg>
