<?xml version="1.0" standalone="no"?>
<!DOCTYPE svg PUBLIC "-//W3C//DTD SVG 20010904//EN"
 "http://www.w3.org/TR/2001/REC-SVG-20010904/DTD/svg10.dtd">
<svg version="1.0" xmlns="http://www.w3.org/2000/svg"
 width="160.000000pt" height="117.000000pt" viewBox="0 0 160.000000 117.000000"
 preserveAspectRatio="xMidYMid meet">
<metadata>
Created by potrace 1.16, written by Peter Selinger 2001-2019
</metadata>
<g transform="translate(0.000000,117.000000) scale(0.100000,-0.100000)"
fill="#000000" stroke="none">
<path d="M305 849 c-9 -27 5 -309 15 -309 4 0 11 63 15 140 l7 140 74 0 74 0
0 -158 c0 -88 3 -193 6 -235 l7 -77 -87 0 -86 0 0 50 c0 38 -4 50 -15 50 -12
0 -15 -14 -15 -62 0 -35 4 -69 9 -77 8 -12 82 -13 492 -8 265 4 484 9 486 11
2 2 7 125 10 273 l6 270 -279 6 c-153 4 -377 7 -496 7 -211 0 -217 -1 -223
-21z m949 -176 c4 -93 9 -207 12 -254 l6 -86 -379 5 c-208 2 -378 5 -378 6 -3
10 13 468 16 470 2 2 143 8 314 13 171 5 331 10 356 11 l47 2 6 -167z"/>
</g>
</svg>
