<?xml version="1.0" standalone="no"?>
<!DOCTYPE svg PUBLIC "-//W3C//DTD SVG 20010904//EN"
 "http://www.w3.org/TR/2001/REC-SVG-20010904/DTD/svg10.dtd">
<svg version="1.0" xmlns="http://www.w3.org/2000/svg"
 width="161.000000pt" height="117.000000pt" viewBox="0 0 161.000000 117.000000"
 preserveAspectRatio="xMidYMid meet">
<metadata>
Created by potrace 1.16, written by Peter Selinger 2001-2019
</metadata>
<g transform="translate(0.000000,117.000000) scale(0.100000,-0.100000)"
fill="#000000" stroke="none">
<path d="M311 862 c-12 -8 -13 -54 -8 -276 3 -146 9 -271 13 -277 5 -9 122
-11 492 -6 267 4 487 8 489 10 9 10 15 534 6 540 -18 11 -977 19 -992 9z m953
-199 c4 -98 9 -214 12 -257 l6 -79 -118 6 c-66 4 -236 7 -379 7 l-260 0 3 238
c2 130 5 238 6 238 0 1 143 6 316 11 173 5 336 10 361 11 l47 2 6 -177z m-771
135 c3 -13 7 -119 9 -237 l3 -214 -85 2 c-47 1 -85 3 -86 4 0 1 1 107 4 235
l4 232 73 0 c67 0 73 -2 78 -22z"/>
</g>
</svg>
