<?xml version="1.0" standalone="no"?>
<!DOCTYPE svg PUBLIC "-//W3C//DTD SVG 20010904//EN"
 "http://www.w3.org/TR/2001/REC-SVG-20010904/DTD/svg10.dtd">
<svg version="1.0" xmlns="http://www.w3.org/2000/svg"
 width="146.000000pt" height="135.000000pt" viewBox="0 0 146.000000 135.000000"
 preserveAspectRatio="xMidYMid meet">
<metadata>
Created by potrace 1.16, written by Peter Selinger 2001-2019
</metadata>
<g transform="translate(0.000000,135.000000) scale(0.100000,-0.100000)"
fill="#000000" stroke="none">
<path d="M870 941 c-146 -59 -333 -136 -416 -171 l-151 -63 0 -42 0 -42 151
-63 c314 -132 641 -260 660 -259 12 0 -16 18 -62 40 l-84 40 6 47 c3 26 8 156
12 290 l7 243 83 39 c79 36 100 51 72 49 -7 0 -132 -49 -278 -108z m80 -36 c0
-28 -5 -30 -39 -11 -23 13 -23 14 -5 24 30 18 44 14 44 -13z m0 -90 l0 -35
-55 27 c-46 23 -55 32 -55 53 0 40 8 41 61 14 44 -22 49 -28 49 -59z m-144
-352 c-2 -2 -107 42 -235 98 -127 56 -230 104 -228 105 2 2 104 48 228 103
l224 98 7 -200 c4 -111 6 -203 4 -204z m144 260 c0 -18 -3 -33 -6 -33 -3 0
-28 12 -55 28 -43 24 -49 31 -49 59 l0 33 55 -27 c50 -25 55 -30 55 -60z m-2
-107 l3 -48 -53 30 c-51 30 -53 33 -56 77 l-3 47 53 -29 c52 -27 53 -29 56
-77z m-48 -41 c45 -23 50 -29 50 -60 l0 -34 -57 32 c-46 26 -59 39 -61 60 -4
33 5 34 68 2z m-5 -83 c37 -20 52 -35 59 -60 5 -18 7 -35 4 -37 -2 -3 -32 7
-66 22 -61 26 -62 27 -62 65 0 21 3 38 8 38 4 0 29 -13 57 -28z"/>
</g>
</svg>
