<?xml version="1.0" standalone="no"?>
<!DOCTYPE svg PUBLIC "-//W3C//DTD SVG 20010904//EN"
 "http://www.w3.org/TR/2001/REC-SVG-20010904/DTD/svg10.dtd">
<svg version="1.0" xmlns="http://www.w3.org/2000/svg"
 width="146.000000pt" height="135.000000pt" viewBox="0 0 146.000000 135.000000"
 preserveAspectRatio="xMidYMid meet">
<metadata>
Created by potrace 1.16, written by Peter Selinger 2001-2019
</metadata>
<g transform="translate(0.000000,135.000000) scale(0.100000,-0.100000)"
fill="#000000" stroke="none">
<path d="M870 941 c-146 -59 -333 -136 -416 -171 l-151 -63 0 -42 0 -42 151
-63 c314 -132 641 -260 660 -259 12 0 -16 18 -62 40 l-84 40 6 47 c3 26 8 156
12 290 l7 243 83 39 c79 36 100 51 72 49 -7 0 -132 -49 -278 -108z m82 -278
c2 -148 3 -269 2 -270 0 -2 -29 9 -64 24 l-63 28 7 134 c3 74 6 174 6 223 l0
89 43 19 c23 10 47 19 54 19 8 1 12 -69 15 -266z m-146 -201 c-2 -1 -107 43
-235 99 -127 56 -230 104 -228 105 2 2 104 48 228 103 l224 98 7 -201 c4 -110
5 -202 4 -204z"/>
</g>
</svg>
