<?xml version="1.0" standalone="no"?>
<!DOCTYPE svg PUBLIC "-//W3C//DTD SVG 20010904//EN"
 "http://www.w3.org/TR/2001/REC-SVG-20010904/DTD/svg10.dtd">
<svg version="1.0" xmlns="http://www.w3.org/2000/svg"
 width="161.000000pt" height="117.000000pt" viewBox="0 0 161.000000 117.000000"
 preserveAspectRatio="xMidYMid meet">
<metadata>
Created by potrace 1.16, written by Peter Selinger 2001-2019
</metadata>
<g transform="translate(0.000000,117.000000) scale(0.100000,-0.100000)"
fill="#000000" stroke="none">
<path d="M311 862 c-12 -8 -13 -54 -8 -276 3 -146 9 -271 13 -277 5 -9 122
-11 492 -6 267 4 487 8 489 10 9 10 15 534 6 540 -18 11 -977 19 -992 9z m953
-199 c4 -98 9 -214 12 -257 l6 -79 -118 6 c-66 4 -238 7 -384 7 -209 1 -261 4
-246 13 10 7 45 29 77 49 66 42 119 114 119 160 0 15 -4 28 -8 28 -4 0 -26 28
-49 63 -23 34 -66 86 -97 115 l-55 52 77 0 c42 0 182 3 310 7 l232 6 0 -79 c0
-150 13 -395 21 -387 4 4 9 109 10 233 1 124 4 228 6 233 2 4 21 7 43 7 l38 0
6 -177z m-822 -75 c2 -128 2 -235 1 -237 -3 -4 -106 -2 -108 2 -1 1 0 107 3
235 l4 232 49 0 48 0 3 -232z m65 200 c23 -21 23 -26 23 -218 l0 -197 -25 -11
c-44 -20 -48 -16 -42 46 4 31 6 135 7 230 0 94 3 172 7 172 4 0 17 -10 30 -22z
m180 -195 c17 -33 17 -34 -7 -79 -19 -37 -117 -130 -127 -120 -1 1 1 80 4 176
l6 174 53 -59 c29 -32 61 -74 71 -92z"/>
</g>
</svg>
