<?xml version="1.0" standalone="no"?>
<!DOCTYPE svg PUBLIC "-//W3C//DTD SVG 20010904//EN"
 "http://www.w3.org/TR/2001/REC-SVG-20010904/DTD/svg10.dtd">
<svg version="1.0" xmlns="http://www.w3.org/2000/svg"
 width="256.000000pt" height="121.000000pt" viewBox="0 0 256.000000 121.000000"
 preserveAspectRatio="xMidYMid meet">
<metadata>
Created by potrace 1.16, written by Peter Selinger 2001-2019
</metadata>
<g transform="translate(0.000000,121.000000) scale(0.100000,-0.100000)"
fill="#000000" stroke="none">
<path d="M633 899 c-14 -14 -16 -200 -5 -417 l7 -122 -167 0 -168 0 0 -32 0
-31 823 7 c864 6 1140 13 1131 27 -3 5 -74 9 -157 9 -287 0 -528 12 -523 26 3
7 8 127 12 267 l7 254 -33 7 c-19 3 -232 9 -474 12 -359 5 -443 4 -453 -7z
m907 -116 c0 -107 8 -311 15 -385 l4 -48 -67 0 -67 0 3 252 c1 139 4 259 7
266 3 7 23 12 55 12 l50 0 0 -97z m-436 -180 l6 -253 -70 0 -70 0 0 83 c0 45
3 159 7 254 l6 172 51 3 c28 2 54 1 57 -2 4 -3 9 -119 13 -257z m146 150 c0
-65 3 -182 7 -260 l6 -143 -68 0 -68 0 6 158 c4 86 7 203 7 260 l0 102 55 0
55 0 0 -117z m150 -90 c0 -115 3 -232 7 -260 l6 -53 -68 0 -68 0 6 143 c4 78
7 195 7 260 l0 117 54 0 55 0 1 -207z m-597 25 c4 -95 7 -209 7 -253 l0 -80
-75 0 c-41 1 -75 5 -76 10 -1 6 2 119 6 253 l7 242 63 0 62 0 6 -172z m137 15
c0 -87 3 -202 7 -255 l6 -98 -63 0 -63 0 7 77 c3 42 6 156 6 255 l0 178 50 0
50 0 0 -157z"/>
</g>
</svg>
