<?xml version="1.0" standalone="no"?>
<!DOCTYPE svg PUBLIC "-//W3C//DTD SVG 20010904//EN"
 "http://www.w3.org/TR/2001/REC-SVG-20010904/DTD/svg10.dtd">
<svg version="1.0" xmlns="http://www.w3.org/2000/svg"
 width="202.000000pt" height="543.000000pt" viewBox="0 0 202.000000 543.000000"
 preserveAspectRatio="xMidYMid meet">
<metadata>
Created by potrace 1.16, written by Peter Selinger 2001-2019
</metadata>
<g transform="translate(0.000000,543.000000) scale(0.100000,-0.100000)"
fill="#000000" stroke="none">
<path d="M731 5116 c-7 -8 -8 -17 -3 -20 6 -3 18 -38 27 -76 l17 -71 -54 -57
c-58 -60 -102 -129 -113 -174 -4 -16 -8 -28 -9 -28 -1 0 -61 22 -132 49 -71
27 -133 47 -137 44 -9 -5 -3 -300 6 -309 3 -3 62 23 130 58 l126 64 11 -46
c16 -65 73 -167 125 -227 25 -28 45 -58 45 -66 0 -7 -9 -49 -20 -92 -12 -45
-16 -83 -11 -88 15 -15 247 160 506 383 55 48 118 98 139 113 l40 27 40 -24
c56 -33 226 -125 227 -123 0 1 3 80 6 175 5 165 5 172 -14 172 -11 0 -74 -36
-140 -80 l-121 -81 -35 20 c-19 10 -117 85 -218 166 -155 123 -407 305 -422
305 -3 0 -10 -6 -16 -14z m152 -118 c92 -61 463 -332 482 -351 13 -12 -4 -4
-210 108 -93 51 -210 114 -260 139 -49 26 -93 50 -96 54 -9 9 -21 112 -14 112
3 0 47 -28 98 -62z m1 -149 c-2 -4 -20 -13 -40 -19 -30 -10 -42 -9 -75 6 l-40
17 27 28 26 28 54 -27 c29 -14 51 -29 48 -33z m89 -36 l52 -26 -42 -19 -43
-19 -52 27 -52 26 34 19 c45 23 42 24 103 -8z m-254 -38 c-30 -13 -56 -22 -58
-19 -2 2 8 19 23 39 27 35 27 35 58 19 l32 -16 -55 -23z m141 -20 l45 -23 -58
-26 c-32 -14 -60 -26 -64 -26 -3 0 -27 12 -52 27 l-46 27 50 23 c61 28 69 28
125 -2z m235 -2 l55 -27 -32 -18 c-18 -9 -41 -17 -51 -18 -22 0 -101 39 -93
47 5 6 58 41 63 42 2 1 27 -11 58 -26z m570 -119 c4 -74 5 -138 2 -141 -8 -7
-208 120 -204 129 2 9 179 146 188 147 4 1 10 -60 14 -135z m-1087 30 c15 -4
16 -44 1 -44 -5 0 -59 -20 -120 -44 l-109 -44 0 98 0 98 108 -30 c59 -17 113
-32 120 -34z m403 32 l52 -25 -58 -25 c-69 -31 -66 -31 -117 -5 l-42 22 54 28
c30 15 56 28 57 29 0 0 25 -11 54 -24z m-286 -8 c25 -12 45 -25 45 -28 0 -11
-80 -39 -95 -34 -18 7 -17 84 0 84 3 0 25 -10 50 -22z m594 -27 l94 -48 -116
-62 c-115 -61 -117 -61 -147 -46 -16 8 -30 18 -30 20 0 13 121 64 137 58 10
-3 15 -3 11 2 -4 4 -3 14 4 22 10 12 7 13 -15 8 -19 -5 -41 1 -83 26 l-57 32
34 18 c49 26 63 23 168 -30z m-166 -33 l62 -31 -64 -30 -64 -30 -53 29 c-30
16 -54 31 -54 34 0 5 95 57 108 59 1 1 31 -13 65 -31z m-296 -4 c24 -9 43 -19
43 -23 0 -3 -20 -14 -44 -24 -44 -18 -45 -18 -87 4 l-43 21 35 19 c42 23 44
23 96 3z m-118 -63 l35 -19 -42 -21 -42 -22 -10 26 c-22 58 -3 69 59 36z m266
-8 l56 -27 -51 -23 -52 -23 -56 29 -56 28 39 21 c51 27 54 27 120 -5z m355 3
c-34 -33 -382 -302 -463 -357 l-87 -60 6 58 c4 32 7 58 8 59 16 13 366 204
373 204 6 0 13 4 15 9 3 8 147 100 158 101 2 0 -2 -6 -10 -14z m-483 -61 l58
-26 -56 -25 -56 -26 -53 27 c-28 14 -50 28 -48 31 7 7 82 43 90 44 4 0 33 -11
65 -25z m248 3 c14 -6 25 -14 25 -17 0 -3 -20 -17 -45 -30 -45 -24 -46 -24
-83 -6 l-37 17 45 23 c54 27 62 28 95 13z m-120 -65 l35 -17 -51 -27 c-49 -27
-51 -28 -85 -12 -19 9 -34 19 -34 23 0 6 79 48 92 49 4 1 23 -7 43 -16z m-242
-10 l32 -16 -24 -11 c-19 -8 -26 -7 -37 9 -27 37 -18 43 29 18z m147 -72 c0
-3 -23 -19 -52 -34 -53 -30 -53 -30 -79 16 -12 21 -13 20 25 39 26 13 33 13
68 0 21 -8 38 -18 38 -21z"/>
<path d="M722 3563 c-31 -32 -71 -84 -87 -115 l-30 -57 -150 2 -150 2 -3 -30
c-2 -16 -1 -68 3 -114 l7 -84 149 7 149 8 16 -38 c19 -45 78 -133 125 -187
l34 -38 49 26 c60 32 104 57 226 127 52 30 102 58 110 62 8 3 58 33 110 65 54
33 96 53 98 47 1 -7 15 -17 30 -23 15 -6 71 -31 125 -56 l97 -46 0 159 0 159
-77 -33 c-124 -53 -172 -79 -175 -92 -2 -9 -61 19 -168 77 -91 50 -225 122
-298 161 l-132 70 -58 -59z m123 -15 c24 -13 45 -26 45 -29 0 -3 -19 -13 -41
-22 -39 -15 -43 -15 -81 4 l-40 20 23 25 c28 30 38 30 94 2z m126 -68 l54 -29
-37 -16 c-48 -19 -54 -19 -108 9 l-44 23 39 21 c22 12 40 21 41 22 0 0 25 -13
55 -30z m-223 -3 c22 -13 22 -14 -28 -37 -27 -13 -52 -21 -54 -19 -8 8 35 69
47 69 7 -1 22 -6 35 -13z m105 -53 l52 -27 -54 -23 c-65 -29 -65 -29 -121 0
l-44 24 49 25 c28 14 54 26 58 27 4 0 31 -12 60 -26z m252 -8 l50 -24 -49 -21
-48 -21 -50 27 -49 27 33 18 c43 23 54 22 113 -6z m499 -62 c3 -26 6 -82 6
-124 l0 -78 -105 56 c-57 32 -106 64 -107 72 -3 10 28 32 92 67 52 28 98 52
101 52 4 1 9 -20 13 -45z m-901 -47 c-48 -23 -73 -18 -73 17 0 54 8 58 63 29
l52 -26 -42 -20z m284 52 l48 -21 -63 -29 -64 -29 -46 24 -46 23 49 26 c61 32
62 32 122 6z m295 -30 l101 -51 -113 -59 c-63 -32 -117 -59 -121 -59 -14 0
-59 23 -59 30 0 13 119 63 135 56 12 -4 16 -2 12 8 -3 8 -1 17 6 20 7 4 1 4
-12 2 -14 -3 -46 8 -83 29 l-61 33 39 21 c22 11 42 20 47 21 4 0 53 -23 109
-51z m-687 -45 l0 -86 -29 6 c-16 3 -75 6 -132 6 l-104 0 0 75 0 74 103 4 c56
1 116 4 132 5 l30 2 0 -86z m535 6 l55 -28 -65 -30 -65 -29 -57 31 -57 31 52
27 c29 15 59 27 67 27 8 0 40 -13 70 -29z m-299 -1 c23 -11 39 -22 37 -23 -1
-2 -21 -13 -43 -24 l-40 -20 -45 23 -44 22 39 21 c50 26 48 26 96 1z m-118
-61 c36 -13 34 -21 -10 -42 -35 -17 -38 -17 -50 0 -24 33 -13 70 16 58 9 -3
28 -11 44 -16z m258 -7 l63 -28 -48 -22 c-60 -26 -56 -26 -118 5 l-52 26 44
24 c25 13 46 23 46 24 1 0 30 -13 65 -29z m-126 -58 l55 -27 -52 -27 -52 -27
-53 26 c-29 15 -53 29 -53 32 0 6 79 48 92 49 4 1 33 -11 63 -26z m253 -1 l32
-18 -53 -26 c-52 -25 -53 -25 -87 -8 l-34 18 49 25 c59 31 52 30 93 9z m-98
-82 c0 -3 -21 -16 -47 -29 -46 -22 -47 -22 -86 -5 l-39 18 53 27 c51 25 55 26
86 11 18 -9 33 -18 33 -22z m-256 -17 c-25 -18 -29 -17 -42 12 -17 36 -16 37
24 18 32 -16 34 -18 18 -30z m106 -28 c17 -9 30 -18 30 -20 0 -3 -23 -16 -52
-31 l-51 -26 -18 23 c-24 32 -24 36 9 53 35 19 46 19 82 1z"/>
<path d="M310 3510 c0 -20 4 -20 123 -15 277 13 294 32 30 34 -147 1 -153 0
-153 -19z"/>
<path d="M310 3058 c0 -16 12 -18 133 -17 136 1 234 11 207 22 -8 3 -88 7
-177 9 -151 4 -163 2 -163 -14z"/>
<path d="M723 2468 c-29 -29 -68 -79 -87 -111 l-35 -59 -150 1 -151 2 0 -49
c0 -27 3 -77 7 -112 l6 -62 148 4 148 4 12 -29 c36 -86 149 -228 177 -222 16
3 300 163 496 279 44 26 82 43 85 37 3 -5 61 -36 129 -68 l122 -59 0 158 c0
94 -4 158 -10 158 -19 0 -225 -101 -237 -116 -10 -14 -33 -4 -185 79 -259 141
-404 217 -414 217 -5 0 -33 -24 -61 -52z m242 -75 l175 -88 1 -70 c0 -38 4
-90 8 -115 l7 -45 8 57 c5 31 6 79 5 107 -2 28 -2 51 1 50 3 0 52 -24 109 -53
l104 -53 -74 -38 c-117 -60 -388 -204 -463 -247 -53 -30 -71 -36 -78 -26 -131
194 -166 337 -112 446 22 44 117 162 130 162 2 0 83 -39 179 -87z m644 -246
l1 -88 -102 55 c-66 35 -102 61 -104 73 -2 14 20 30 94 69 l97 52 7 -37 c4
-20 7 -76 7 -124z m-1014 48 l0 -85 -35 0 c-19 0 -79 3 -132 7 l-98 6 0 69 c0
47 4 68 13 69 6 1 66 5 132 9 66 3 120 7 120 8 0 1 0 -36 0 -83z"/>
<path d="M711 2228 c0 -104 12 -182 23 -157 12 28 2 242 -11 247 -10 3 -13
-19 -12 -90z"/>
<path d="M791 2208 c1 -137 13 -184 23 -88 10 90 4 192 -11 198 -10 3 -13 -23
-12 -110z"/>
<path d="M879 2313 c-5 -25 4 -230 10 -241 10 -19 23 160 15 209 -6 34 -21 54
-25 32z"/>
<path d="M976 2312 c-8 -13 6 -252 15 -252 5 0 9 59 9 130 0 115 -7 150 -24
122z"/>
<path d="M1050 2267 c0 -71 13 -187 21 -187 5 0 9 50 9 110 0 91 -3 110 -15
110 -10 0 -15 -10 -15 -33z"/>
<path d="M310 2420 l0 -23 172 7 c95 4 174 9 177 11 11 12 -18 16 -177 22
l-172 6 0 -23z"/>
<path d="M310 1960 l0 -23 173 8 c94 4 174 9 176 11 13 12 -24 17 -178 22
l-171 5 0 -23z"/>
<path d="M731 1346 c-8 -9 -8 -16 -2 -20 5 -3 17 -39 26 -79 l17 -72 -59 -62
c-33 -34 -70 -84 -84 -111 l-24 -49 -150 1 c-175 1 -161 13 -150 -132 l7 -94
149 7 148 7 21 -44 c20 -44 62 -107 114 -172 28 -36 29 -37 16 -99 -7 -34 -19
-72 -26 -84 -11 -18 -11 -23 1 -33 22 -18 213 122 495 364 58 49 112 96 121
103 14 12 32 7 125 -31 205 -84 244 -97 244 -81 0 8 -4 15 -9 15 -5 0 -51 20
-103 44 -51 24 -117 54 -146 66 -36 16 -57 31 -63 48 -5 14 -8 25 -7 26 7 4
284 129 295 133 10 4 13 -20 14 -103 0 -60 4 -131 9 -159 5 -36 8 0 9 123 l1
173 -22 -6 c-13 -4 -90 -34 -171 -66 -82 -32 -153 -59 -159 -59 -5 0 -91 65
-191 146 -146 116 -351 265 -423 307 -7 4 -17 0 -23 -7z m164 -130 c93 -61
462 -330 480 -349 6 -6 -6 -1 -26 10 -20 12 -152 83 -294 159 -141 76 -258
142 -260 148 -2 6 -6 33 -10 60 -5 38 -4 47 7 40 7 -4 54 -35 103 -68z m-5
-136 c0 -3 -19 -13 -41 -22 -40 -17 -42 -17 -80 5 l-38 22 26 27 25 27 54 -27
c30 -14 54 -29 54 -32z m83 -36 l52 -27 -42 -20 -42 -21 -51 24 c-27 13 -50
26 -50 29 0 5 53 32 78 40 1 1 26 -11 55 -25z m-225 -8 c23 -12 22 -13 -29
-34 -29 -12 -53 -21 -55 -19 -6 6 39 67 49 67 7 -1 23 -7 35 -14z m99 -48 c29
-13 53 -25 53 -28 0 -3 -25 -16 -56 -29 l-56 -24 -51 25 -52 25 50 26 c28 14
52 26 55 27 3 0 29 -10 57 -22z m301 -33 c2 -2 -17 -12 -42 -23 l-45 -21 -51
28 -50 27 43 21 42 21 50 -25 c28 -14 51 -27 53 -28z m-167 -31 l51 -25 -58
-28 -59 -28 -49 24 -49 25 54 28 c30 16 55 29 57 29 1 1 26 -11 53 -25z m-286
-6 c25 -12 45 -25 45 -28 0 -12 -79 -43 -94 -37 -22 9 -21 87 0 87 2 0 24 -10
49 -22z m580 -25 c52 -26 95 -50 95 -54 0 -3 -50 -32 -111 -63 -102 -54 -112
-57 -140 -46 -16 7 -29 16 -29 19 0 14 118 64 135 57 13 -4 16 -2 11 9 -3 8
-1 15 4 15 6 0 10 5 10 11 0 6 -9 8 -21 4 -21 -7 -139 40 -139 55 0 8 60 38
77 39 7 1 56 -20 108 -46z m-680 -49 c0 -80 -1 -85 -20 -80 -11 3 -71 6 -132
6 l-113 0 0 75 0 74 98 4 c53 1 113 4 132 5 l35 2 0 -86z m530 10 c33 -14 54
-29 49 -33 -5 -5 -33 -19 -62 -31 l-53 -23 -60 28 -59 29 47 27 c61 34 68 34
138 3z m-295 -4 c22 -11 40 -22 40 -24 0 -3 -20 -12 -45 -22 -43 -16 -47 -16
-85 1 -22 10 -40 21 -40 25 0 8 60 38 78 39 7 1 31 -8 52 -19z m-125 -57 c19
-9 35 -20 35 -24 0 -11 -74 -38 -82 -30 -4 4 -11 21 -14 39 -8 38 6 41 61 15z
m269 -11 l59 -27 -52 -24 -51 -24 -51 23 c-28 13 -52 27 -55 32 -4 6 71 48 86
47 3 0 32 -12 64 -27z m326 -23 c-122 -105 -508 -394 -516 -386 -2 1 0 28 3
58 5 48 9 57 32 67 14 6 52 26 83 44 194 113 258 148 266 148 6 0 12 4 14 8 3
8 138 91 148 91 3 0 -11 -13 -30 -30z m-451 -38 l53 -28 -50 -21 c-28 -12 -55
-22 -61 -22 -15 0 -101 43 -101 50 0 7 81 49 95 49 6 0 34 -12 64 -28z m249 1
l32 -18 -53 -26 c-52 -25 -53 -25 -87 -8 l-34 18 49 25 c59 31 52 30 93 9z
m-124 -60 l37 -18 -51 -28 -52 -28 -40 18 -40 18 54 27 c29 16 53 28 54 29 0
0 17 -8 38 -18z m-230 -39 c-25 -18 -29 -17 -42 12 -17 36 -16 37 24 18 32
-16 34 -18 18 -30z m106 -28 c17 -9 30 -18 30 -20 0 -3 -23 -16 -52 -31 l-51
-26 -18 23 c-25 33 -23 46 9 57 38 15 49 14 82 -3z"/>
</g>
</svg>
