<?xml version="1.0" standalone="no"?>
<!DOCTYPE svg PUBLIC "-//W3C//DTD SVG 20010904//EN"
 "http://www.w3.org/TR/2001/REC-SVG-20010904/DTD/svg10.dtd">
<svg version="1.0" xmlns="http://www.w3.org/2000/svg"
 width="172.000000pt" height="110.000000pt" viewBox="0 0 172.000000 110.000000"
 preserveAspectRatio="xMidYMid meet">
<metadata>
Created by potrace 1.16, written by Peter Selinger 2001-2019
</metadata>
<g transform="translate(0.000000,110.000000) scale(0.100000,-0.100000)"
fill="#000000" stroke="none">
<path d="M1135 769 c-116 -15 -277 -39 -359 -53 -109 -18 -153 -22 -163 -14
-10 8 -13 6 -13 -6 0 -9 -1 -16 -2 -16 -2 0 -67 20 -146 44 -88 27 -145 40
-148 34 -11 -17 14 -26 158 -60 l138 -33 0 -37 0 -38 -127 -2 c-71 -1 -138 -2
-150 -2 -13 0 -23 -6 -23 -13 0 -16 74 -17 206 -2 53 6 97 9 99 7 2 -2 5 -23
6 -48 l4 -44 -144 -42 c-78 -23 -145 -45 -148 -48 -3 -2 -2 -9 1 -15 4 -7 58
8 147 39 l140 49 27 -29 c24 -26 44 -33 177 -59 238 -48 436 -81 480 -80 24 0
-43 18 -170 45 -116 24 -273 59 -350 77 l-140 32 -3 59 c-3 54 -2 58 13 46 18
-15 72 -12 460 21 246 21 376 44 195 34 -52 -3 -180 -9 -285 -15 -104 -5 -233
-12 -286 -15 l-97 -6 -4 42 c-2 23 1 43 7 45 5 1 174 28 375 59 201 31 376 60
390 65 47 16 -45 9 -265 -21z"/>
</g>
</svg>
