<?xml version="1.0" standalone="no"?>
<!DOCTYPE svg PUBLIC "-//W3C//DTD SVG 20010904//EN"
 "http://www.w3.org/TR/2001/REC-SVG-20010904/DTD/svg10.dtd">
<svg version="1.0" xmlns="http://www.w3.org/2000/svg"
 width="106.000000pt" height="152.000000pt" viewBox="0 0 106.000000 152.000000"
 preserveAspectRatio="xMidYMid meet">
<metadata>
Created by potrace 1.16, written by Peter Selinger 2001-2019
</metadata>
<g transform="translate(0.000000,152.000000) scale(0.100000,-0.100000)"
fill="#000000" stroke="none">
<path d="M321 1206 l-23 -11 3 -447 c2 -247 7 -448 11 -448 10 0 152 63 158
70 3 3 35 25 71 48 73 47 176 149 202 199 27 51 22 125 -11 175 -16 24 -49 75
-75 113 -25 39 -70 97 -99 129 -53 60 -196 187 -207 185 -3 -1 -17 -7 -30 -13z
m82 -80 l37 -29 0 -84 0 -83 -50 0 -50 0 0 121 c0 132 -3 128 63 75z m141
-136 c25 -27 46 -52 46 -55 0 -3 -25 -5 -56 -5 l-55 0 2 55 c1 30 6 55 9 55 4
0 28 -22 54 -50z m129 -163 c54 -76 58 -85 52 -122 -7 -45 -41 -109 -87 -160
-34 -39 -157 -140 -163 -133 -2 2 -1 45 2 96 l6 92 53 0 c30 0 54 5 54 10 0 6
-25 10 -55 10 l-55 0 0 49 c0 46 1 49 31 55 17 3 43 6 58 7 23 0 24 1 6 9 -11
5 -37 9 -57 9 l-38 1 0 73 c0 41 3 77 7 80 3 4 34 7 67 7 l61 0 58 -83z m-233
-2 l0 -75 -50 0 -50 0 0 75 0 75 50 0 50 0 0 -75z m5 -145 c9 -55 1 -63 -56
-56 -40 6 -49 4 -49 -9 0 -12 12 -15 54 -15 l55 0 3 -101 c2 -59 -1 -104 -7
-109 -5 -4 -34 -22 -62 -39 l-53 -30 0 147 c0 81 3 171 6 200 l7 52 48 0 47 0
7 -40z"/>
</g>
</svg>
