<?xml version="1.0" standalone="no"?>
<!DOCTYPE svg PUBLIC "-//W3C//DTD SVG 20010904//EN"
 "http://www.w3.org/TR/2001/REC-SVG-20010904/DTD/svg10.dtd">
<svg version="1.0" xmlns="http://www.w3.org/2000/svg"
 width="210.000000pt" height="156.000000pt" viewBox="0 0 210.000000 156.000000"
 preserveAspectRatio="xMidYMid meet">
<metadata>
Created by potrace 1.16, written by Peter Selinger 2001-2019
</metadata>
<g transform="translate(0.000000,156.000000) scale(0.100000,-0.100000)"
fill="#000000" stroke="none">
<path d="M1000 1236 c0 -14 -10 -30 -25 -40 -43 -28 -140 -159 -171 -230 l-29
-68 -75 6 c-41 3 -147 7 -235 8 l-160 2 -3 -114 -3 -113 198 7 c109 4 216 9
239 12 l41 6 18 -49 c29 -79 83 -170 150 -253 35 -43 65 -87 68 -97 4 -15 5
-14 6 5 0 12 7 22 14 22 19 0 767 439 767 450 0 4 -361 207 -665 373 -71 39
-101 61 -103 76 -5 29 -32 27 -32 -3z m2 -554 c2 -171 2 -312 1 -312 -1 0 -22
33 -47 73 -85 136 -146 297 -146 385 0 74 56 185 147 292 l38 44 2 -84 c2 -47
4 -226 5 -398z m404 296 c200 -101 364 -185 364 -188 0 -3 -59 -36 -132 -75
-73 -38 -240 -129 -372 -202 -132 -72 -241 -131 -242 -130 -4 5 10 777 14 777
3 0 168 -82 368 -182z m-766 -173 c0 -74 0 -75 -26 -75 -25 0 -26 2 -20 38 3
20 6 54 6 75 0 30 4 37 20 37 18 0 20 -7 20 -75z m80 16 c0 -33 3 -66 6 -75 5
-13 -1 -16 -30 -16 -40 0 -41 2 -30 98 6 46 9 52 30 52 23 0 24 -4 24 -59z
m52 -17 c3 -77 0 -88 -18 -76 -12 8 -6 152 6 152 5 0 10 -34 12 -76z m-412 32
c0 -18 3 -48 6 -65 6 -29 4 -31 -21 -31 -21 0 -26 4 -21 16 3 9 6 38 6 65 0
37 4 49 15 49 10 0 15 -10 15 -34z m80 -31 c0 -63 -1 -65 -25 -65 -24 0 -25 2
-25 65 0 63 1 65 25 65 24 0 25 -2 25 -65z m60 -4 c0 -65 -1 -69 -21 -64 -18
5 -20 11 -15 42 3 20 6 48 6 64 0 17 5 27 15 27 12 0 15 -14 15 -69z m70 -1
c0 -69 0 -70 -26 -70 -26 0 -27 1 -20 46 3 26 6 57 6 70 0 17 6 24 20 24 18 0
20 -7 20 -70z"/>
</g>
</svg>
