<?xml version="1.0" standalone="no"?>
<!DOCTYPE svg PUBLIC "-//W3C//DTD SVG 20010904//EN"
 "http://www.w3.org/TR/2001/REC-SVG-20010904/DTD/svg10.dtd">
<svg version="1.0" xmlns="http://www.w3.org/2000/svg"
 width="134.000000pt" height="135.000000pt" viewBox="0 0 134.000000 135.000000"
 preserveAspectRatio="xMidYMid meet">
<metadata>
Created by potrace 1.16, written by Peter Selinger 2001-2019
</metadata>
<g transform="translate(0.000000,135.000000) scale(0.100000,-0.100000)"
fill="#000000" stroke="none">
<path d="M544 1027 c-106 -40 -156 -77 -186 -137 -82 -164 -75 -296 23 -428
74 -100 99 -121 167 -142 125 -39 207 -22 354 73 49 32 56 41 92 128 51 123
57 192 26 289 -14 43 -30 75 -42 81 -28 15 -31 7 -11 -37 45 -105 45 -184 -3
-334 -28 -91 -32 -94 -155 -145 -92 -38 -136 -42 -217 -21 -129 35 -139 42
-190 145 -44 87 -47 100 -47 170 0 59 6 94 29 154 26 70 33 82 75 108 127 80
237 86 389 24 121 -50 121 -50 87 -20 -16 14 -68 45 -114 68 -106 53 -183 60
-277 24z"/>
<path d="M520 819 c0 -2 -2 -68 -3 -147 l-2 -142 66 0 c36 0 101 9 144 20 43
11 91 20 106 20 15 0 31 5 34 10 3 6 0 10 -9 10 -9 0 -5 10 15 29 37 37 37 62
-1 105 -27 30 -28 35 -13 39 10 2 1 7 -22 11 -22 3 -69 13 -105 21 -67 14
-210 31 -210 24z m155 -28 c40 -9 39 -9 -17 -10 -44 -1 -58 -5 -58 -16 0 -12
19 -15 108 -15 80 0 113 -4 128 -15 17 -13 6 -14 -107 -15 l-127 0 -20 40 -19
40 36 -1 c20 0 54 -4 76 -8z m205 -117 c0 -24 -3 -26 -31 -20 -17 3 -80 6
-140 6 -89 0 -109 3 -109 15 0 14 23 17 218 23 61 2 62 1 62 -24z m-10 -39 c0
-2 -12 -12 -26 -21 -21 -14 -46 -17 -135 -15 -93 2 -109 0 -109 -13 0 -13 13
-16 68 -17 77 -1 56 -11 -46 -23 l-62 -7 22 45 22 45 100 4 c56 1 116 4 134 5
17 1 32 0 32 -3z"/>
</g>
</svg>
