<?xml version="1.0" standalone="no"?>
<!DOCTYPE svg PUBLIC "-//W3C//DTD SVG 20010904//EN"
 "http://www.w3.org/TR/2001/REC-SVG-20010904/DTD/svg10.dtd">
<svg version="1.0" xmlns="http://www.w3.org/2000/svg"
 width="182.000000pt" height="139.000000pt" viewBox="0 0 182.000000 139.000000"
 preserveAspectRatio="xMidYMid meet">
<metadata>
Created by potrace 1.16, written by Peter Selinger 2001-2019
</metadata>
<g transform="translate(0.000000,139.000000) scale(0.100000,-0.100000)"
fill="#000000" stroke="none">
<path d="M603 1076 l-23 -13 42 -84 c23 -46 44 -87 46 -91 2 -5 -80 -8 -183
-8 l-186 0 7 -172 c6 -166 9 -187 18 -177 7 6 23 120 31 212 l7 77 127 0 c71
0 148 3 172 6 l44 5 40 -62 c22 -34 41 -66 43 -70 2 -4 -12 -30 -30 -58 l-33
-51 -186 0 c-185 0 -187 0 -193 -22 -3 -13 -6 -27 -6 -32 0 -5 75 -6 175 -1
l175 7 -56 -107 -55 -107 26 -14 c24 -12 33 -8 208 111 l182 125 195 1 c107 1
200 2 205 4 6 1 37 3 70 5 33 1 52 4 42 7 -11 3 -16 11 -13 21 7 22 25 266 20
271 -2 2 -128 6 -281 8 l-278 4 -159 107 c-88 59 -162 108 -165 108 -3 1 -16
-4 -28 -10z m243 -181 l26 -21 -77 2 -77 1 -39 74 c-22 41 -39 75 -39 76 0 4
178 -110 206 -132z m624 -113 c0 -33 3 -94 7 -137 5 -68 4 -78 -9 -72 -9 3
-104 7 -212 8 -108 2 -196 6 -196 10 0 4 31 28 70 55 38 26 69 48 67 50 -1 1
-44 31 -95 67 l-93 66 48 4 c26 2 130 4 231 5 l182 2 0 -58z m-412 -18 c59
-37 108 -67 109 -68 1 -1 -36 -25 -83 -54 l-84 -52 -120 0 c-66 0 -120 3 -120
8 0 4 11 26 25 50 l25 43 -35 70 -35 69 105 0 105 0 108 -66z m-278 -313 c-74
-49 -136 -87 -138 -86 -1 1 18 41 44 89 l46 86 91 0 92 0 -135 -89z"/>
</g>
</svg>
