<?xml version="1.0" standalone="no"?>
<!DOCTYPE svg PUBLIC "-//W3C//DTD SVG 20010904//EN"
 "http://www.w3.org/TR/2001/REC-SVG-20010904/DTD/svg10.dtd">
<svg version="1.0" xmlns="http://www.w3.org/2000/svg"
 width="201.000000pt" height="139.000000pt" viewBox="0 0 201.000000 139.000000"
 preserveAspectRatio="xMidYMid meet">
<metadata>
Created by potrace 1.16, written by Peter Selinger 2001-2019
</metadata>
<g transform="translate(0.000000,139.000000) scale(0.100000,-0.100000)"
fill="#000000" stroke="none">
<path d="M1130 1081 c0 -6 -7 -11 -15 -11 -8 0 -15 -2 -15 -5 0 -18 79 -166
136 -255 37 -58 67 -109 67 -115 0 -5 -35 -66 -78 -134 -68 -109 -132 -231
-123 -235 2 0 13 -6 24 -13 20 -11 42 2 215 121 204 139 369 256 369 261 0 9
-535 380 -564 391 -9 3 -16 1 -16 -5z m355 -261 c99 -62 184 -116 188 -120 5
-4 -38 -36 -95 -71 -57 -34 -174 -109 -260 -166 -87 -56 -158 -100 -158 -98 0
2 38 78 85 167 l84 163 -84 162 c-47 89 -85 165 -85 168 0 3 33 -16 73 -43 39
-27 153 -100 252 -162z"/>
<path d="M302 714 c3 -91 8 -167 11 -171 7 -6 699 17 707 24 2 2 -1 7 -7 11
-8 5 -9 46 -4 142 4 74 6 136 5 138 -1 2 -143 5 -315 8 -173 3 -334 6 -358 8
l-44 4 5 -164z m678 64 c0 -35 3 -94 7 -132 l6 -69 -99 6 c-54 4 -204 8 -333
9 l-233 3 7 105 c4 60 12 108 19 112 6 4 54 8 106 9 52 1 165 5 250 9 85 3
181 7 213 8 l57 2 0 -62z"/>
</g>
</svg>
