<?xml version="1.0" standalone="no"?>
<!DOCTYPE svg PUBLIC "-//W3C//DTD SVG 20010904//EN"
 "http://www.w3.org/TR/2001/REC-SVG-20010904/DTD/svg10.dtd">
<svg version="1.0" xmlns="http://www.w3.org/2000/svg"
 width="131.000000pt" height="122.000000pt" viewBox="0 0 131.000000 122.000000"
 preserveAspectRatio="xMidYMid meet">
<metadata>
Created by potrace 1.16, written by Peter Selinger 2001-2019
</metadata>
<g transform="translate(0.000000,122.000000) scale(0.100000,-0.100000)"
fill="#000000" stroke="none">
<path d="M444 906 c-22 -7 -64 -26 -92 -41 -50 -27 -52 -29 -52 -72 l0 -44 78
-37 c71 -34 84 -37 167 -37 75 0 104 6 177 32 l87 31 22 -35 c24 -39 104 -83
152 -83 l27 0 0 150 0 150 -27 0 c-35 0 -128 -43 -140 -63 -7 -14 -24 -11
-123 24 -125 42 -199 49 -276 25z m500 -38 c-11 -21 -17 -57 -17 -98 0 -41 6
-77 17 -98 20 -39 9 -41 -48 -8 -61 36 -86 96 -40 96 8 0 14 5 14 10 0 6 -11
8 -27 4 -22 -6 -25 -4 -20 10 4 10 7 21 7 26 0 4 10 6 23 3 18 -5 20 -3 10 8
-20 20 -16 26 30 53 59 36 72 34 51 -6z m-214 -19 c40 -11 77 -22 80 -24 4 -2
5 -17 2 -34 -4 -27 -9 -31 -86 -52 -119 -33 -242 -32 -316 3 -30 14 -63 32
-74 40 -18 14 -17 16 19 38 20 12 62 31 93 41 70 23 171 19 282 -12z"/>
<path d="M927 586 c-42 -15 -63 -30 -92 -64 l-21 -24 -94 32 c-157 54 -249 50
-372 -17 -46 -25 -48 -28 -48 -69 0 -37 4 -44 33 -62 123 -72 228 -80 382 -27
l102 35 37 -35 c36 -33 88 -55 134 -55 22 0 22 1 22 150 0 149 0 150 -22 150
-13 -1 -40 -7 -61 -14z m17 -38 c-11 -21 -17 -57 -17 -98 0 -41 6 -77 17 -98
19 -38 11 -40 -44 -12 -46 24 -69 57 -45 66 8 3 15 11 15 16 0 6 -8 7 -17 4
-17 -7 -33 9 -33 32 0 8 9 10 28 6 l27 -6 -23 19 -23 19 25 27 c23 25 77 56
99 57 4 0 0 -15 -9 -32z m-221 -49 l87 -21 0 -34 c0 -31 -3 -34 -52 -49 -150
-44 -258 -45 -355 -1 -94 43 -95 49 -24 86 112 56 182 60 344 19z"/>
</g>
</svg>
