<?xml version="1.0" standalone="no"?>
<!DOCTYPE svg PUBLIC "-//W3C//DTD SVG 20010904//EN"
 "http://www.w3.org/TR/2001/REC-SVG-20010904/DTD/svg10.dtd">
<svg version="1.0" xmlns="http://www.w3.org/2000/svg"
 width="230.000000pt" height="238.000000pt" viewBox="0 0 230.000000 238.000000"
 preserveAspectRatio="xMidYMid meet">
<metadata>
Created by potrace 1.16, written by Peter Selinger 2001-2019
</metadata>
<g transform="translate(0.000000,238.000000) scale(0.100000,-0.100000)"
fill="#000000" stroke="none">
<path d="M351 2066 c-10 -12 0 -21 56 -50 37 -20 90 -55 116 -78 54 -46 240
-248 234 -254 -6 -7 -110 27 -159 52 -70 35 -171 135 -236 233 -53 79 -57 84
-60 58 -7 -58 138 -234 252 -309 122 -79 317 -117 509 -99 58 6 119 13 134 17
25 5 23 1 -22 -37 -27 -24 -76 -68 -108 -98 -52 -49 -56 -56 -42 -70 14 -14
27 -4 133 102 l117 117 105 29 c65 19 109 26 115 20 14 -13 25 -11 19 5 -3 9
20 23 77 46 119 47 209 91 209 100 0 5 -26 -2 -57 -14 -32 -13 -104 -39 -161
-57 l-102 -33 -105 104 c-94 94 -106 103 -120 89 -14 -14 -10 -21 42 -70 32
-30 78 -71 102 -92 25 -20 43 -39 40 -41 -9 -9 -259 -56 -332 -62 l-79 -7
-119 119 c-108 108 -120 117 -135 103 -14 -15 -9 -22 63 -87 43 -39 95 -84
115 -99 21 -15 37 -31 38 -34 0 -8 -182 1 -197 9 -6 4 -45 52 -86 107 -96 129
-173 206 -257 255 -73 44 -82 46 -99 26z"/>
<path d="M357 922 c-15 -16 -11 -20 51 -51 52 -27 96 -63 197 -165 l130 -131
-47 -3 c-133 -9 -252 84 -345 267 l-38 75 -3 -37 c-7 -84 125 -265 229 -315
54 -26 215 -41 437 -42 72 0 132 -3 131 -7 0 -5 -21 -25 -47 -47 -26 -21 -69
-59 -95 -84 -45 -41 -47 -46 -33 -60 15 -15 25 -8 116 83 98 98 99 99 120 80
25 -22 40 -12 17 12 -15 17 -12 18 55 15 l71 -4 -49 -41 c-27 -23 -71 -63 -99
-89 -45 -42 -48 -49 -35 -63 14 -13 26 -5 115 85 66 66 105 98 115 94 8 -3 22
-9 30 -12 13 -5 13 -3 1 11 -12 16 -9 17 45 17 49 0 56 -2 44 -13 -8 -7 -52
-46 -97 -86 -46 -40 -83 -79 -83 -86 0 -38 30 -20 125 75 91 91 105 101 123
91 29 -15 37 -14 22 4 -11 13 14 15 214 15 144 0 226 4 226 10 0 8 -200 14
-422 13 -10 0 -18 6 -18 14 0 16 -12 17 -28 1 -9 -9 -23 0 -61 43 -27 30 -74
76 -106 103 -50 43 -58 47 -71 34 -13 -13 -4 -25 80 -99 53 -46 96 -85 96 -86
0 -2 -20 -3 -45 -3 -35 0 -43 3 -39 15 8 19 -5 19 -26 0 -16 -14 -26 -7 -118
86 -86 86 -104 100 -117 89 -8 -7 -15 -15 -15 -19 0 -4 40 -42 90 -86 49 -43
88 -80 86 -82 -8 -8 -105 10 -100 18 3 5 1 9 -5 9 -5 0 -13 -4 -16 -10 -15
-24 -45 -4 -136 86 -87 86 -97 94 -110 78 -12 -15 -5 -25 71 -96 l85 -79 -85
5 c-47 3 -116 6 -155 6 l-70 1 -55 76 c-100 139 -200 232 -306 286 -29 15 -33
15 -47 -1z"/>
</g>
</svg>
