<?xml version="1.0" standalone="no"?>
<!DOCTYPE svg PUBLIC "-//W3C//DTD SVG 20010904//EN"
 "http://www.w3.org/TR/2001/REC-SVG-20010904/DTD/svg10.dtd">
<svg version="1.0" xmlns="http://www.w3.org/2000/svg"
 width="231.000000pt" height="123.000000pt" viewBox="0 0 231.000000 123.000000"
 preserveAspectRatio="xMidYMid meet">
<metadata>
Created by potrace 1.16, written by Peter Selinger 2001-2019
</metadata>
<g transform="translate(0.000000,123.000000) scale(0.100000,-0.100000)"
fill="#000000" stroke="none">
<path d="M363 915 c-7 -19 -9 -17 52 -48 l50 -26 -35 -1 c-19 0 -44 -3 -55 -6
-16 -4 -24 3 -38 32 -10 20 -20 34 -23 31 -3 -2 -7 -25 -9 -51 -4 -35 -1 -46
10 -46 20 0 28 -18 27 -57 -1 -25 3 -33 16 -33 22 0 71 -62 54 -68 -25 -8 -12
-32 18 -32 18 0 47 -12 72 -30 22 -17 59 -35 81 -41 46 -12 291 -28 440 -29
l99 0 -42 -35 c-23 -19 -69 -60 -103 -90 -58 -53 -60 -56 -44 -73 17 -16 23
-12 117 83 l99 101 25 -19 c29 -21 34 -13 9 15 -15 17 -12 18 108 18 120 0
123 -1 104 -18 -11 -10 -55 -49 -98 -87 -61 -54 -75 -70 -66 -81 6 -8 15 -14
19 -14 4 0 52 43 106 96 84 82 101 94 116 85 23 -14 31 -14 25 2 -3 9 50 11
254 9 151 -1 259 1 259 6 0 5 -118 13 -266 17 -191 5 -263 10 -255 18 20 20
11 29 -13 13 -24 -15 -25 -14 -61 28 -19 24 -65 69 -101 101 -58 51 -67 56
-81 43 -13 -13 -3 -25 86 -104 55 -48 99 -89 97 -91 -1 -1 -52 0 -113 4 -92 5
-110 8 -106 21 5 11 0 11 -21 -3 l-27 -18 -100 99 c-95 94 -100 98 -116 81
-17 -17 -17 -19 4 -37 13 -10 52 -45 88 -77 l64 -60 -107 4 c-196 7 -209 9
-237 51 l-25 37 41 7 c61 11 60 18 -3 18 -54 0 -58 2 -88 40 l-31 39 50 7 c73
10 65 28 -8 20 -56 -6 -60 -5 -88 23 l-29 29 35 6 c20 3 48 6 63 6 15 0 30 5
34 11 5 8 -18 10 -78 8 -77 -4 -88 -2 -124 22 -50 33 -100 59 -114 59 -6 0
-13 -7 -17 -15z m173 -128 l27 -24 -79 -7 c-75 -7 -80 -6 -97 16 -19 22 -19
23 4 29 56 16 117 10 145 -14z m93 -91 l32 -33 -38 -6 c-86 -15 -135 -9 -165
20 -15 15 -28 30 -28 34 0 8 45 15 121 17 39 2 49 -2 78 -32z m83 -93 c15 -15
28 -31 28 -36 0 -16 -131 4 -178 26 l-45 22 49 6 c101 12 117 10 146 -18z"/>
</g>
</svg>
