<?xml version="1.0" standalone="no"?>
<!DOCTYPE svg PUBLIC "-//W3C//DTD SVG 20010904//EN"
 "http://www.w3.org/TR/2001/REC-SVG-20010904/DTD/svg10.dtd">
<svg version="1.0" xmlns="http://www.w3.org/2000/svg"
 width="152.000000pt" height="256.000000pt" viewBox="0 0 152.000000 256.000000"
 preserveAspectRatio="xMidYMid meet">
<metadata>
Created by potrace 1.16, written by Peter Selinger 2001-2019
</metadata>
<g transform="translate(0.000000,256.000000) scale(0.100000,-0.100000)"
fill="#000000" stroke="none">
<path d="M664 2245 c-136 -29 -224 -104 -295 -250 -21 -45 -39 -86 -39 -92 0
-6 -7 -16 -15 -23 -8 -7 -15 -22 -15 -34 0 -50 45 -197 86 -283 50 -105 95
-148 190 -187 96 -39 354 -81 354 -59 0 6 -33 13 -72 16 -144 13 -289 67 -361
136 -67 63 -114 181 -137 343 l-12 88 37 65 c53 96 142 186 214 219 73 33 194
50 317 44 52 -2 94 -2 94 0 0 3 -8 11 -17 18 -24 18 -246 17 -329 -1z"/>
<path d="M690 2145 c0 -11 12 -15 45 -15 48 0 60 14 23 24 -40 10 -68 7 -68
-9z"/>
<path d="M830 2145 c0 -16 28 -19 68 -9 37 10 25 24 -23 24 -33 0 -45 -4 -45
-15z"/>
<path d="M522 2089 c2 -6 7 -10 11 -10 4 1 23 1 42 1 19 0 35 5 35 10 0 6 -21
10 -46 10 -28 0 -44 -4 -42 -11z"/>
<path d="M460 2005 c0 -11 12 -15 45 -15 52 0 60 14 14 24 -47 9 -59 7 -59 -9z"/>
<path d="M740 1996 c0 -12 10 -16 45 -16 25 0 45 5 45 10 0 6 -6 10 -14 10 -7
0 -28 3 -45 6 -24 5 -31 3 -31 -10z"/>
<path d="M560 1895 c0 -11 12 -15 44 -15 53 0 69 15 25 24 -50 10 -69 7 -69
-9z"/>
<path d="M880 1895 c0 -16 19 -19 69 -9 44 9 28 24 -25 24 -32 0 -44 -4 -44
-15z"/>
<path d="M430 1814 c0 -13 7 -15 31 -10 17 3 38 6 45 6 8 0 14 5 14 10 0 6
-20 10 -45 10 -35 0 -45 -4 -45 -16z"/>
<path d="M710 1795 c0 -11 11 -15 39 -15 45 0 62 15 28 24 -39 10 -67 7 -67
-9z"/>
<path d="M530 1725 c0 -16 36 -20 78 -8 33 8 8 23 -40 23 -27 0 -38 -4 -38
-15z"/>
<path d="M517 1644 c-14 -14 6 -24 49 -24 51 0 59 15 13 24 -40 8 -54 8 -62 0z"/>
<path d="M737 1644 c-17 -17 -4 -24 43 -24 28 0 50 5 50 10 0 6 -6 10 -14 10
-7 0 -26 3 -42 6 -16 3 -32 2 -37 -2z"/>
<path d="M627 1504 c-17 -17 -4 -24 43 -24 28 0 50 5 50 10 0 6 -6 10 -14 10
-7 0 -26 3 -42 6 -16 3 -32 2 -37 -2z"/>
<path d="M823 1438 c2 -7 11 -13 20 -12 10 0 31 1 47 2 51 3 33 22 -21 22 -36
0 -49 -4 -46 -12z"/>
<path d="M385 987 c-20 -90 -28 -136 -40 -236 -7 -63 -11 -121 -8 -130 29 -84
158 -321 175 -321 12 0 10 6 -17 60 -14 27 -48 105 -76 172 -48 117 -50 126
-44 186 4 34 18 111 31 170 13 59 24 107 24 108 0 1 -9 4 -20 7 -15 4 -21 -1
-25 -16z"/>
<path d="M490 924 l0 -26 103 6 c165 10 227 17 227 25 0 9 -155 21 -262 21
-66 0 -68 -1 -68 -26z"/>
<path d="M900 925 l0 -24 108 5 c145 6 212 14 212 23 0 9 -146 21 -252 21 -66
0 -68 -1 -68 -25z"/>
<path d="M490 790 l0 -23 162 7 c89 3 164 8 166 11 14 14 -22 19 -168 23
l-160 5 0 -23z"/>
<path d="M900 790 l0 -23 157 7 c86 3 159 9 162 11 14 14 -24 20 -164 23
l-155 4 0 -22z"/>
<path d="M490 675 l0 -26 103 6 c163 9 227 16 227 24 0 9 -155 21 -262 21 -66
0 -68 -1 -68 -25z"/>
<path d="M900 675 l0 -26 108 6 c150 8 212 15 212 24 0 9 -146 21 -252 21 -66
0 -68 -1 -68 -25z"/>
<path d="M490 544 l0 -26 103 6 c165 10 227 17 227 25 0 8 -168 21 -272 21
-56 0 -58 -1 -58 -26z"/>
<path d="M900 545 l0 -25 108 5 c146 7 212 15 212 24 0 8 -154 21 -257 21 -61
0 -63 -1 -63 -25z"/>
</g>
</svg>
