<?xml version="1.0" standalone="no"?>
<!DOCTYPE svg PUBLIC "-//W3C//DTD SVG 20010904//EN"
 "http://www.w3.org/TR/2001/REC-SVG-20010904/DTD/svg10.dtd">
<svg version="1.0" xmlns="http://www.w3.org/2000/svg"
 width="123.000000pt" height="230.000000pt" viewBox="0 0 123.000000 230.000000"
 preserveAspectRatio="xMidYMid meet">
<metadata>
Created by potrace 1.16, written by Peter Selinger 2001-2019
</metadata>
<g transform="translate(0.000000,230.000000) scale(0.100000,-0.100000)"
fill="#000000" stroke="none">
<path d="M801 1980 c-64 -29 -163 -103 -195 -144 -55 -73 -66 -115 -76 -283
-5 -87 -10 -203 -10 -258 l-1 -100 -32 35 c-17 19 -58 64 -90 100 -54 60 -58
63 -74 47 -16 -16 -12 -23 81 -116 l98 -98 -17 -27 c-19 -29 -11 -34 17 -9 17
15 18 13 18 -63 l0 -79 -42 50 c-24 28 -66 75 -94 105 -46 48 -54 53 -69 40
-15 -12 -6 -24 87 -117 93 -93 102 -105 90 -123 -15 -25 -16 -38 0 -22 20 20
24 14 23 -43 0 -55 -7 -68 -22 -41 -12 23 -153 176 -161 176 -4 0 -14 -5 -22
-10 -12 -8 5 -30 90 -115 95 -95 104 -107 92 -125 -16 -27 -15 -35 3 -20 13
11 15 -14 15 -214 0 -144 4 -226 10 -226 6 0 10 54 10 143 0 207 9 310 26 296
19 -15 18 0 -1 21 -13 14 -4 26 90 120 98 98 103 105 88 122 -15 17 -19 15
-70 -41 -29 -33 -69 -78 -88 -101 l-35 -42 0 52 c0 42 3 51 15 46 20 -7 19 8
-1 25 -13 11 -2 25 85 113 56 56 101 107 101 114 0 7 -7 15 -15 18 -13 5 -51
-30 -151 -144 l-29 -33 3 55 c3 46 6 54 20 49 15 -6 15 -4 -1 14 -9 11 -17 24
-17 30 0 5 43 54 95 108 88 90 94 100 80 114 -18 18 -11 23 -127 -108 l-48
-53 6 138 c3 77 7 148 9 160 3 12 45 52 99 93 167 127 277 265 262 327 -9 34
-9 33 -66 -68 -34 -60 -227 -265 -273 -290 -19 -10 -20 -8 -14 57 4 37 16 87
27 111 30 62 133 153 228 202 45 24 82 45 82 48 0 12 -70 1 -109 -16z"/>
</g>
</svg>
