<?xml version="1.0" standalone="no"?>
<!DOCTYPE svg PUBLIC "-//W3C//DTD SVG 20010904//EN"
 "http://www.w3.org/TR/2001/REC-SVG-20010904/DTD/svg10.dtd">
<svg version="1.0" xmlns="http://www.w3.org/2000/svg"
 width="115.000000pt" height="205.000000pt" viewBox="0 0 115.000000 205.000000"
 preserveAspectRatio="xMidYMid meet">
<metadata>
Created by potrace 1.16, written by Peter Selinger 2001-2019
</metadata>
<g transform="translate(0.000000,205.000000) scale(0.100000,-0.100000)"
fill="#000000" stroke="none">
<path d="M360 1581 c0 -92 3 -197 7 -232 l7 -64 7 45 c4 25 8 129 8 233 1 160
-1 187 -14 187 -13 0 -15 -25 -15 -169z"/>
<path d="M432 1541 l6 -210 -58 -58 c-50 -51 -58 -65 -70 -120 -19 -93 -9
-152 39 -246 40 -77 46 -83 97 -106 l54 -23 0 -87 -1 -86 -63 70 c-53 57 -67
68 -77 57 -11 -10 0 -25 64 -83 l77 -71 0 -63 0 -63 -62 64 c-55 58 -88 78
-88 56 0 -5 36 -43 80 -86 79 -78 80 -79 80 -129 0 -28 2 -48 5 -45 11 11 15
81 15 258 l0 185 65 0 65 0 -2 -178 c-2 -97 0 -177 5 -177 4 0 7 -23 7 -52 0
-66 6 -59 14 16 5 58 6 60 81 129 54 50 73 73 66 80 -8 8 -30 -7 -76 -53 l-65
-64 0 61 0 61 75 73 c52 50 72 76 65 83 -7 7 -31 -10 -75 -54 l-65 -64 0 77
c0 73 1 78 25 89 14 6 25 17 25 25 0 7 6 13 13 13 8 0 31 35 53 78 35 70 39
85 42 169 4 87 2 97 -28 160 l-32 68 2 228 c1 207 0 227 -16 227 -15 0 -16
-18 -12 -215 2 -118 1 -214 -2 -212 -3 2 -19 9 -37 16 l-32 13 6 199 6 199
-23 0 -22 0 7 -195 7 -195 -31 11 -31 11 0 184 c0 164 -2 184 -16 184 -15 0
-16 -19 -12 -185 l5 -185 -26 0 -26 0 3 185 c3 166 2 185 -13 185 -15 0 -16
-19 -13 -189 l3 -189 -28 -16 -28 -16 3 205 c3 196 2 205 -16 205 -18 0 -19
-9 -14 -209z m258 -235 c51 -20 57 -26 87 -86 53 -108 54 -187 3 -324 -21 -54
-26 -60 -75 -82 -70 -32 -125 -32 -223 0 l-81 27 -32 82 c-43 111 -45 139 -19
235 24 88 39 106 120 147 75 39 123 39 220 1z"/>
<path d="M523 1259 c-10 -10 -6 -20 17 -48 l28 -37 -36 -47 -37 -48 -25 28
c-14 15 -35 41 -48 57 -17 23 -25 27 -35 17 -13 -13 -12 -16 47 -85 l38 -46
-42 -56 c-23 -30 -40 -58 -37 -60 2 -2 25 18 51 45 l46 50 40 -42 c45 -48 48
-59 20 -94 -32 -40 -23 -52 10 -14 l30 35 30 -29 c35 -33 39 -26 9 16 l-21 29
43 52 43 51 43 -48 c55 -63 64 -54 13 15 l-39 53 44 50 c36 40 43 52 34 64
-12 13 -32 -4 -86 -76 -6 -9 -13 -14 -15 -11 -78 100 -77 98 -48 125 11 10 20
24 20 32 0 21 -27 15 -48 -12 l-20 -25 -28 35 c-23 28 -32 33 -41 24z m147
-201 c0 -2 -17 -28 -39 -56 l-38 -52 -41 52 -40 52 39 47 40 48 39 -43 c22
-24 40 -45 40 -48z"/>
</g>
</svg>
