<?xml version="1.0" standalone="no"?>
<!DOCTYPE svg PUBLIC "-//W3C//DTD SVG 20010904//EN"
 "http://www.w3.org/TR/2001/REC-SVG-20010904/DTD/svg10.dtd">
<svg version="1.0" xmlns="http://www.w3.org/2000/svg"
 width="213.000000pt" height="155.000000pt" viewBox="0 0 213.000000 155.000000"
 preserveAspectRatio="xMidYMid meet">
<metadata>
Created by potrace 1.16, written by Peter Selinger 2001-2019
</metadata>
<g transform="translate(0.000000,155.000000) scale(0.100000,-0.100000)"
fill="#000000" stroke="none">
<path d="M1628 1220 c-32 -27 -37 -28 -41 -13 -4 15 -6 15 -12 -5 -7 -20 -12
-22 -54 -18 -25 3 -83 8 -128 11 -77 5 -83 4 -83 -14 0 -23 32 -29 152 -27
l87 2 -32 -28 c-34 -29 -47 -34 -47 -18 0 6 -4 10 -10 10 -5 0 -10 -9 -10 -20
0 -19 -5 -19 -130 -13 -128 6 -130 6 -130 -15 0 -21 4 -22 113 -22 l112 0 -40
-34 c-29 -25 -41 -30 -43 -20 -5 20 -22 7 -22 -16 0 -21 -23 -21 -202 -5 -42
4 -48 2 -48 -15 0 -26 30 -32 124 -28 42 2 76 0 76 -3 0 -9 -268 -219 -279
-219 -5 0 -47 16 -94 36 l-86 36 -22 66 c-47 146 -99 244 -167 314 -28 29 -39
35 -53 27 -16 -8 -12 -15 31 -60 45 -47 127 -190 173 -301 l16 -37 -57 25
c-71 31 -112 70 -146 139 -27 56 -56 161 -56 208 0 30 -14 36 -24 11 -10 -26
-7 -77 9 -139 44 -169 100 -218 358 -315 48 -18 87 -35 87 -39 -1 -11 -144
-111 -159 -111 -9 0 -59 9 -111 20 -155 32 -342 21 -353 -21 -7 -26 -2 -27 56
-12 58 16 322 13 367 -5 23 -9 22 -10 -35 -48 -53 -36 -65 -39 -136 -43 -79
-3 -182 19 -251 55 -32 17 -37 3 -9 -25 47 -47 222 -84 315 -67 41 8 125 63
261 172 l94 74 177 -65 c97 -36 179 -66 181 -69 2 -2 -41 -20 -97 -41 -92 -35
-116 -54 -90 -70 6 -4 57 14 113 39 113 51 122 53 131 31 3 -8 10 -15 15 -15
6 0 8 7 5 15 -7 19 -8 19 50 -1 26 -9 44 -20 39 -24 -4 -4 -36 -17 -71 -29
-114 -40 -132 -50 -126 -66 9 -22 23 -19 116 24 119 54 127 56 143 34 14 -17
14 -17 15 1 0 12 5 16 16 12 9 -3 27 -9 40 -12 13 -3 24 -9 24 -13 0 -3 -43
-21 -95 -40 -115 -42 -117 -43 -109 -65 8 -21 18 -18 147 42 94 44 98 44 112
26 13 -17 14 -17 15 -2 0 16 3 16 41 3 49 -18 49 -18 49 -6 0 4 -20 14 -45 21
-39 11 -43 15 -33 28 11 13 10 15 -8 10 -18 -5 -29 9 -80 108 -32 63 -61 114
-64 114 -3 0 -11 -4 -19 -9 -11 -7 -3 -28 43 -107 31 -53 55 -99 53 -101 -2
-2 -24 5 -48 16 -24 11 -38 20 -31 20 6 1 12 5 12 10 0 4 -10 7 -22 5 -20 -3
-30 11 -78 106 -30 61 -57 110 -60 110 -3 0 -11 -4 -19 -9 -12 -8 -4 -27 41
-103 31 -51 55 -94 54 -95 -2 -2 -24 4 -50 13 -40 14 -45 18 -34 31 11 14 9
15 -17 9 -29 -6 -31 -4 -76 87 l-45 92 10 100 c11 99 11 100 39 103 26 3 27 5
12 16 -16 11 -13 16 24 45 22 18 41 29 41 24 0 -4 -7 -46 -15 -93 -20 -113
-20 -132 3 -128 13 2 20 21 29 83 6 44 12 99 12 122 1 38 4 43 28 49 22 6 24
8 10 13 -15 6 -11 12 24 40 31 26 40 29 36 15 -14 -44 -37 -206 -32 -214 7
-12 35 -13 35 -2 0 5 21 179 30 250 0 1 10 2 22 2 18 0 19 3 10 12 -10 10 -6
18 20 40 18 14 30 29 27 32 -3 3 -21 -8 -41 -24z m-349 -386 c-6 -38 -14 -72
-18 -77 -11 -11 0 -67 13 -67 6 0 27 -29 47 -65 l37 -64 -47 18 c-25 10 -101
39 -169 66 -68 26 -122 48 -120 50 38 36 262 214 265 211 2 -2 -1 -35 -8 -72z"/>
</g>
</svg>
