<?xml version="1.0" standalone="no"?>
<!DOCTYPE svg PUBLIC "-//W3C//DTD SVG 20010904//EN"
 "http://www.w3.org/TR/2001/REC-SVG-20010904/DTD/svg10.dtd">
<svg version="1.0" xmlns="http://www.w3.org/2000/svg"
 width="248.000000pt" height="138.000000pt" viewBox="0 0 248.000000 138.000000"
 preserveAspectRatio="xMidYMid meet">
<metadata>
Created by potrace 1.16, written by Peter Selinger 2001-2019
</metadata>
<g transform="translate(0.000000,138.000000) scale(0.100000,-0.100000)"
fill="#000000" stroke="none">
<path d="M814 1065 c-5 -13 30 -54 142 -164 82 -81 168 -164 192 -184 l42 -37
-67 -63 c-126 -115 -245 -232 -265 -260 -11 -15 -17 -35 -14 -44 5 -12 51 28
185 161 99 97 184 176 189 176 6 0 34 -20 64 -43 124 -102 261 -179 338 -192
86 -14 245 49 413 165 115 79 147 105 147 117 -1 12 -144 114 -235 167 -151
87 -274 114 -362 81 -67 -26 -147 -74 -243 -147 -46 -35 -91 -69 -101 -77 -26
-19 -34 -13 -241 189 -141 136 -179 168 -184 155z m830 -342 c4 -109 9 -215
12 -235 6 -36 5 -38 -23 -38 -59 0 -209 88 -373 217 -18 14 -27 4 113 111 93
72 216 142 248 142 15 0 17 -24 23 -197z m138 176 c119 -40 385 -190 373 -210
-10 -16 -189 -122 -280 -166 -76 -36 -195 -78 -201 -70 0 1 1 107 4 235 5 266
-4 248 104 211z"/>
<path d="M324 769 c-25 -28 -29 -122 -8 -191 l18 -61 256 7 c140 3 290 9 333
12 145 12 77 24 -134 24 l-212 0 7 38 c3 20 6 60 6 88 l0 51 128 7 c391 20
372 35 -49 38 -296 3 -332 1 -345 -13z m230 -66 c3 -21 6 -62 6 -92 l0 -53
-110 4 c-61 3 -113 8 -116 11 -8 8 -9 140 -2 152 3 6 53 11 111 13 l104 3 7
-38z"/>
</g>
</svg>
