<?xml version="1.0" standalone="no"?>
<!DOCTYPE svg PUBLIC "-//W3C//DTD SVG 20010904//EN"
 "http://www.w3.org/TR/2001/REC-SVG-20010904/DTD/svg10.dtd">
<svg version="1.0" xmlns="http://www.w3.org/2000/svg"
 width="133.000000pt" height="121.000000pt" viewBox="0 0 133.000000 121.000000"
 preserveAspectRatio="xMidYMid meet">
<metadata>
Created by potrace 1.16, written by Peter Selinger 2001-2019
</metadata>
<g transform="translate(0.000000,121.000000) scale(0.100000,-0.100000)"
fill="#000000" stroke="none">
<path d="M615 892 c-38 -8 -97 -15 -130 -13 -97 4 -185 -8 -185 -25 0 -12 15
-13 83 -9 45 3 99 8 120 11 41 5 43 1 22 -49 -14 -33 -18 -35 -74 -42 -40 -5
-75 -16 -106 -36 -44 -28 -46 -31 -32 -52 31 -46 65 -62 149 -67 l80 -5 19
-50 c29 -77 182 -270 196 -249 8 12 159 74 181 74 18 0 16 3 -32 78 -24 37
-49 85 -57 106 -15 41 -17 38 54 88 14 10 32 37 40 62 13 39 13 45 1 50 -9 3
-17 -2 -21 -12 -22 -61 -36 -83 -73 -113 -34 -27 -41 -39 -38 -61 4 -25 1 -27
-64 -44 -83 -22 -97 -29 -82 -44 8 -8 32 -3 84 16 76 27 74 27 100 -17 7 -13
-4 -18 -67 -34 -42 -11 -81 -24 -88 -31 -9 -9 -21 3 -52 54 -23 37 -47 86 -54
110 -8 27 -17 41 -25 38 -7 -3 -52 1 -99 8 -62 9 -91 18 -107 33 l-21 22 33
20 c18 11 63 25 100 32 l67 12 12 48 c12 45 16 49 54 59 23 6 56 16 74 21 27
9 39 6 86 -20 65 -37 78 -38 164 -6 52 20 68 23 75 13 15 -24 8 -38 -27 -55
-19 -9 -35 -23 -35 -30 0 -19 11 -16 53 12 39 27 41 33 31 85 -5 23 -11 30
-23 27 -9 -3 -54 -16 -101 -30 l-84 -25 -37 29 c-42 33 -62 34 -164 11z m284
-462 c25 -35 32 -30 -86 -64 l-82 -23 -16 23 c-8 13 -15 25 -15 28 0 2 28 14
63 25 34 12 69 26 77 31 24 16 35 12 59 -20z"/>
<path d="M693 738 c-46 -13 -73 -25 -73 -34 0 -8 7 -14 15 -14 18 0 175 59
175 66 0 9 -48 2 -117 -18z"/>
<path d="M790 648 c-127 -35 -140 -40 -140 -55 0 -11 7 -14 28 -9 49 12 162
59 162 68 0 10 -4 9 -50 -4z"/>
</g>
</svg>
