<?xml version="1.0" standalone="no"?>
<!DOCTYPE svg PUBLIC "-//W3C//DTD SVG 20010904//EN"
 "http://www.w3.org/TR/2001/REC-SVG-20010904/DTD/svg10.dtd">
<svg version="1.0" xmlns="http://www.w3.org/2000/svg"
 width="140.000000pt" height="144.000000pt" viewBox="0 0 140.000000 144.000000"
 preserveAspectRatio="xMidYMid meet">
<metadata>
Created by potrace 1.16, written by Peter Selinger 2001-2019
</metadata>
<g transform="translate(0.000000,144.000000) scale(0.100000,-0.100000)"
fill="#000000" stroke="none">
<path d="M345 1125 c-22 -8 -41 -15 -42 -15 -2 0 -3 -5 -3 -11 0 -7 23 -8 69
-3 66 6 71 5 96 -20 32 -32 31 -41 -27 -176 -74 -174 -62 -264 34 -263 l45 1
-5 -88 c-3 -58 -1 -89 6 -94 16 -10 65 18 94 52 l24 28 39 -18 c77 -34 164
-14 244 58 l49 44 28 -41 c25 -37 73 -79 89 -79 4 0 -8 17 -25 37 -81 92 -87
171 -28 329 27 73 32 96 25 120 -11 33 -45 74 -62 74 -34 0 -271 -115 -341
-165 -21 -15 -21 -15 -16 33 3 36 -1 59 -16 88 -25 47 -77 99 -115 113 -39 15
-114 13 -162 -4z m195 -51 c79 -67 91 -175 31 -288 -17 -32 -31 -68 -31 -80 0
-11 -7 -29 -15 -40 -19 -25 -80 -15 -96 16 -19 36 -4 128 35 213 52 113 61
151 41 181 -20 32 -4 31 35 -2z m480 -66 c21 -23 26 -38 12 -38 -9 0 -33 25
-46 48 -12 20 12 14 34 -10z m-55 -9 c4 -11 21 -27 39 -36 l33 -15 -35 -81
c-26 -61 -36 -100 -40 -156 -4 -64 -8 -78 -31 -98 -44 -39 -126 -75 -175 -75
-56 -1 -109 19 -102 39 4 10 1 13 -13 8 -13 -4 -26 4 -45 25 -39 47 -42 73
-13 138 13 31 27 64 30 74 3 9 27 31 54 50 54 37 262 147 280 148 6 0 15 -9
18 -21z m-360 -460 c-3 -4 -19 -18 -35 -29 l-30 -21 0 67 0 68 35 -38 c19 -21
32 -42 30 -47z"/>
<path d="M718 844 c-26 -14 -58 -60 -58 -84 0 -21 28 -9 34 16 4 14 19 37 33
50 32 29 28 37 -9 18z"/>
<path d="M722 797 c-22 -24 -29 -47 -14 -47 5 0 14 11 20 25 6 14 16 25 22 25
15 0 12 -16 -5 -30 -8 -7 -15 -19 -15 -26 0 -23 27 -4 41 28 10 25 10 31 -2
39 -20 13 -23 12 -47 -14z"/>
<path d="M816 501 c-4 -5 7 -53 24 -105 36 -111 42 -115 126 -66 47 26 134
113 134 133 0 5 -26 -15 -57 -43 -32 -29 -80 -63 -108 -75 l-50 -23 -21 91
c-19 85 -34 112 -48 88z"/>
</g>
</svg>
