<?xml version="1.0" standalone="no"?>
<!DOCTYPE svg PUBLIC "-//W3C//DTD SVG 20010904//EN"
 "http://www.w3.org/TR/2001/REC-SVG-20010904/DTD/svg10.dtd">
<svg version="1.0" xmlns="http://www.w3.org/2000/svg"
 width="142.000000pt" height="140.000000pt" viewBox="0 0 142.000000 140.000000"
 preserveAspectRatio="xMidYMid meet">
<metadata>
Created by potrace 1.16, written by Peter Selinger 2001-2019
</metadata>
<g transform="translate(0.000000,140.000000) scale(0.100000,-0.100000)"
fill="#000000" stroke="none">
<path d="M753 1043 c-20 -31 -53 -94 -74 -140 l-39 -83 -37 41 c-49 54 -87 72
-135 66 -46 -6 -168 -62 -168 -77 0 -7 6 -7 22 1 25 13 154 7 169 -8 6 -6 11
-62 11 -126 0 -111 1 -117 24 -132 34 -22 52 -19 86 15 37 37 30 50 -10 21
-36 -25 -60 -27 -69 -4 -8 20 29 52 69 60 15 3 28 9 28 14 0 14 -38 11 -70 -6
l-29 -15 6 53 c3 29 0 70 -6 92 -11 39 -4 54 24 55 17 0 65 -86 63 -110 -5
-42 19 -31 37 17 10 26 31 78 48 115 l29 67 49 -49 c49 -49 117 -80 176 -80
21 0 22 -3 16 -45 -4 -33 -1 -57 13 -87 l18 -41 -38 -33 c-22 -19 -54 -39 -73
-46 -18 -7 -33 -16 -33 -20 0 -17 29 -19 59 -3 25 12 36 13 53 4 21 -11 21
-12 -13 -40 -19 -16 -30 -29 -26 -29 14 0 67 33 67 42 0 5 18 -4 41 -19 l40
-26 -83 -84 c-45 -46 -87 -83 -93 -82 -5 0 -37 32 -70 71 -33 40 -77 90 -97
112 l-37 41 -39 -43 c-34 -36 -44 -42 -81 -42 l-42 0 16 30 c18 34 49 50 101
50 40 0 45 17 9 26 -37 9 -111 -22 -136 -57 -24 -35 -20 -55 16 -69 50 -19 76
-12 116 30 l38 40 98 -105 c61 -65 106 -105 118 -105 13 0 50 33 101 88 45 50
86 86 93 84 26 -9 0 18 -63 66 l-64 48 24 27 c29 34 30 51 3 112 -19 43 -20
52 -8 110 15 76 4 113 -47 152 -22 16 -34 34 -34 49 0 39 -34 64 -85 64 -44 0
-46 -1 -82 -57z m136 12 c8 -8 11 -23 7 -38 -7 -29 -54 -42 -111 -31 l-34 6
19 38 c11 21 25 41 32 43 19 8 71 -3 87 -18z m72 -111 c16 -18 37 -104 26
-104 -3 0 -38 11 -78 25 -63 21 -139 73 -139 95 0 3 17 4 38 2 20 -1 48 4 62
11 28 15 61 5 91 -29z m-426 -54 c4 -6 -17 -10 -57 -10 -44 0 -59 3 -48 10 20
13 97 13 105 0z"/>
<path d="M735 814 c-57 -21 -59 -33 -12 -75 23 -21 45 -38 48 -39 4 0 10 17
13 38 4 20 9 49 12 65 6 31 -1 33 -61 11z m35 -46 l0 -41 -25 23 c-14 13 -25
27 -25 30 0 5 32 25 48 29 1 1 2 -18 2 -41z"/>
<path d="M929 531 c-36 -29 -17 -34 21 -6 21 15 28 25 18 25 -9 0 -26 -9 -39
-19z"/>
<path d="M835 493 c-51 -33 -49 -32 -42 -39 5 -6 97 52 97 61 0 11 -17 4 -55
-22z"/>
<path d="M988 492 c-27 -16 -37 -32 -20 -32 4 0 21 11 37 25 34 28 23 33 -17
7z"/>
<path d="M868 463 c-21 -14 -38 -30 -38 -35 0 -11 56 21 77 45 23 25 4 20 -39
-10z"/>
<path d="M967 448 c-26 -17 -47 -34 -47 -39 0 -15 10 -10 54 23 22 17 43 33
45 35 2 2 2 5 0 7 -3 3 -26 -9 -52 -26z"/>
</g>
</svg>
