<?xml version="1.0" standalone="no"?>
<!DOCTYPE svg PUBLIC "-//W3C//DTD SVG 20010904//EN"
 "http://www.w3.org/TR/2001/REC-SVG-20010904/DTD/svg10.dtd">
<svg version="1.0" xmlns="http://www.w3.org/2000/svg"
 width="115.000000pt" height="160.000000pt" viewBox="0 0 115.000000 160.000000"
 preserveAspectRatio="xMidYMid meet">
<metadata>
Created by potrace 1.16, written by Peter Selinger 2001-2019
</metadata>
<g transform="translate(0.000000,160.000000) scale(0.100000,-0.100000)"
fill="#000000" stroke="none">
<path d="M560 1243 c-97 -108 -170 -234 -170 -292 0 -11 -20 -66 -45 -124 -25
-58 -45 -108 -45 -111 0 -19 42 0 75 34 21 22 42 40 45 40 3 0 15 -22 28 -50
13 -27 43 -80 68 -117 53 -79 60 -91 49 -81 -12 11 -29 -17 -85 -137 -27 -58
-44 -105 -38 -105 6 0 49 40 95 89 l84 90 110 -86 c61 -47 112 -84 114 -81 5
4 -92 128 -137 175 -17 18 -35 30 -40 27 -17 -11 -1 306 17 324 3 3 37 -10 75
-28 39 -17 74 -30 77 -27 2 3 -29 24 -71 47 -42 23 -76 43 -76 44 0 2 5 17 11
35 l11 32 69 -73 c37 -40 68 -68 69 -62 0 21 -111 154 -123 147 -7 -4 -4 4 5
17 66 93 87 152 74 204 -15 58 -103 126 -165 126 -23 0 -40 -12 -81 -57z m78
-68 c-27 -52 -46 -95 -41 -95 11 0 108 152 107 167 -1 9 3 10 19 2 11 -7 15
-14 9 -18 -16 -10 -94 -160 -90 -172 2 -7 28 27 58 74 36 57 58 83 64 77 7 -7
5 -20 -6 -38 -54 -93 -79 -145 -76 -154 2 -6 25 22 51 62 37 57 47 68 47 49 0
-13 -16 -52 -37 -86 l-36 -62 -31 15 c-83 41 -96 50 -107 76 -10 26 -7 35 42
113 30 47 59 85 66 85 6 0 -11 -43 -39 -95z m-52 16 c-27 -53 -32 -57 -39 -39
-6 17 0 29 30 60 20 21 38 38 39 38 1 0 -13 -27 -30 -59z m-52 -95 c10 -51 40
-83 99 -102 68 -22 69 -22 58 -42 -19 -35 -40 -170 -42 -267 -3 -171 -3 -171
39 -217 l37 -42 -36 27 c-20 15 -40 27 -45 27 -5 0 -37 42 -70 93 -133 199
-177 332 -141 432 16 46 76 137 86 131 5 -3 12 -21 15 -40z m-169 -325 l-47
-46 38 75 c37 74 37 75 47 46 9 -26 6 -32 -38 -75z m203 -309 c-18 -20 -43
-50 -56 -67 -20 -25 -21 -26 -11 -5 6 14 27 51 47 84 29 48 37 55 44 42 7 -13
1 -26 -24 -54z"/>
</g>
</svg>
