<?xml version="1.0" standalone="no"?>
<!DOCTYPE svg PUBLIC "-//W3C//DTD SVG 20010904//EN"
 "http://www.w3.org/TR/2001/REC-SVG-20010904/DTD/svg10.dtd">
<svg version="1.0" xmlns="http://www.w3.org/2000/svg"
 width="219.000000pt" height="117.000000pt" viewBox="0 0 219.000000 117.000000"
 preserveAspectRatio="xMidYMid meet">
<metadata>
Created by potrace 1.16, written by Peter Selinger 2001-2019
</metadata>
<g transform="translate(0.000000,117.000000) scale(0.100000,-0.100000)"
fill="#000000" stroke="none">
<path d="M732 850 c-68 -11 -160 -29 -205 -40 -81 -21 -227 -84 -227 -98 1
-20 21 -30 75 -35 33 -3 85 -14 115 -24 l55 -18 -120 -5 c-75 -3 -118 -9 -115
-15 6 -12 69 -13 195 -3 l90 7 -55 -23 c-118 -49 -193 -96 -179 -111 10 -9
290 -115 389 -146 91 -30 119 -34 210 -34 90 0 112 3 153 24 57 28 92 72 121
150 l21 58 150 -34 c215 -49 363 -80 415 -87 l45 -6 3 92 c2 50 6 96 9 102 3
5 8 53 11 108 l4 98 -33 0 c-53 0 -352 -29 -485 -46 l-121 -16 -42 45 c-27 29
-59 51 -88 61 -63 22 -233 20 -391 -4z m357 -31 c27 -6 67 -23 89 -39 36 -26
102 -112 102 -133 0 -6 -65 -7 -182 -2 -236 11 -327 9 -415 -8 l-72 -14 -91
44 c-50 23 -103 43 -118 44 -25 1 -24 2 13 19 45 21 260 76 351 89 86 12 265
13 323 0z m777 -51 c-3 -13 -6 -49 -6 -80 l0 -58 -50 0 c-56 0 -55 -2 -37 80
16 73 22 80 64 80 32 0 35 -2 29 -22z m-124 -50 c-2 -35 -5 -69 -7 -75 -4 -13
-82 -16 -90 -4 -2 3 2 33 9 66 11 57 13 60 46 66 19 4 38 7 41 8 3 0 4 -27 1
-61z m-122 -18 l0 -60 -68 0 -69 0 10 55 10 54 41 4 c23 2 49 4 59 5 14 2 17
-7 17 -58z m-160 -10 l0 -50 -45 0 c-48 0 -50 3 -39 58 6 30 17 37 67 41 14 1
17 -8 17 -49z m-120 -10 c0 -35 -3 -40 -23 -40 -18 0 -26 8 -34 34 -9 30 -8
36 6 39 45 12 51 8 51 -33z m-182 -67 l172 -6 0 -24 c0 -23 -3 -24 -42 -18
l-43 6 -44 -86 c-50 -99 -85 -128 -174 -147 -101 -21 -241 10 -504 114 l-108
42 70 33 c94 44 172 73 220 83 52 10 235 12 453 3z m292 -44 c0 -34 -3 -40
-17 -35 -10 2 -33 7 -50 11 -26 5 -33 12 -33 29 0 31 7 36 57 36 l43 0 0 -41z
m160 -17 l0 -59 -70 16 -70 16 0 36 c0 20 3 39 7 42 3 4 35 7 70 7 l63 0 0
-58z m120 -12 c0 -78 -1 -79 -73 -59 -28 7 -37 15 -33 26 3 8 6 35 6 59 l0 44
50 0 50 0 0 -70z m120 -20 c0 -49 -1 -90 -3 -90 -2 0 -27 7 -56 16 l-53 15 6
37 c3 20 6 54 6 75 l0 37 50 0 50 0 0 -90z"/>
</g>
</svg>
