<?xml version="1.0" standalone="no"?>
<!DOCTYPE svg PUBLIC "-//W3C//DTD SVG 20010904//EN"
 "http://www.w3.org/TR/2001/REC-SVG-20010904/DTD/svg10.dtd">
<svg version="1.0" xmlns="http://www.w3.org/2000/svg"
 width="134.000000pt" height="273.000000pt" viewBox="0 0 134.000000 273.000000"
 preserveAspectRatio="xMidYMid meet">
<metadata>
Created by potrace 1.16, written by Peter Selinger 2001-2019
</metadata>
<g transform="translate(0.000000,273.000000) scale(0.100000,-0.100000)"
fill="#000000" stroke="none">
<path d="M370 2415 c-9 -11 -9 -36 -2 -105 5 -50 13 -94 17 -98 14 -14 152 -4
239 17 71 17 91 19 98 9 6 -10 8 -9 8 3 0 12 19 22 65 34 36 10 65 22 65 28 0
5 -10 7 -22 3 -13 -3 -40 -9 -60 -12 l-38 -7 0 57 0 57 81 -3 82 -3 38 -75
c22 -41 47 -106 56 -143 15 -65 15 -71 -4 -151 -19 -76 -83 -226 -115 -269
-10 -13 -52 -24 -161 -43 -82 -13 -179 -31 -215 -40 -37 -8 -76 -16 -88 -19
-20 -4 -22 1 -28 74 -8 95 -3 111 34 111 27 0 28 -1 35 -75 4 -41 11 -75 16
-75 5 0 9 33 9 74 l0 73 83 6 c45 4 125 7 177 8 52 1 109 4 125 8 54 12 -63
21 -285 21 -252 0 -237 10 -219 -152 7 -62 18 -112 24 -114 10 -4 295 60 440
99 57 15 78 40 144 172 94 190 94 274 0 456 l-40 76 -112 6 c-62 4 -185 7
-273 7 -130 0 -164 -3 -174 -15z m340 -75 l0 -59 -37 -10 c-90 -24 -218 -42
-250 -36 l-34 6 3 72 3 72 145 5 c80 3 151 7 158 8 8 1 12 -15 12 -58z"/>
<path d="M339 1082 c-47 -93 -46 -106 3 -172 18 -23 38 -52 45 -64 12 -20 18
-21 235 -18 123 2 225 6 227 8 13 13 -26 17 -179 22 l-170 5 6 121 c3 66 7
127 10 134 2 9 42 12 151 13 81 0 171 4 198 8 l50 7 -35 7 c-19 4 -139 8 -267
9 l-232 3 -42 -83z m139 -88 l3 -130 -39 4 c-35 3 -41 9 -70 62 -18 32 -37 60
-42 62 -10 3 52 104 75 123 7 6 26 10 42 10 l28 -2 3 -129z"/>
<path d="M924 847 c-1 -167 -7 -331 -15 -402 -13 -109 -16 -120 -34 -118 -11
1 -99 5 -197 9 l-177 7 5 116 c3 64 7 121 9 127 2 7 71 13 196 17 180 7 209
10 198 22 -3 2 -122 7 -266 11 l-260 7 -43 -86 c-49 -99 -49 -108 10 -185 22
-29 40 -57 40 -64 0 -8 71 -9 255 -6 140 3 257 7 260 9 7 8 53 294 66 415 10
90 7 380 -3 389 -2 2 -12 5 -23 9 -20 6 -20 1 -21 -277z m-446 -378 l2 -130
-37 3 c-33 3 -40 9 -69 58 -18 30 -36 59 -41 64 -5 5 9 37 32 72 37 58 43 63
75 64 l36 0 2 -131z"/>
</g>
</svg>
