<?xml version="1.0" standalone="no"?>
<!DOCTYPE svg PUBLIC "-//W3C//DTD SVG 20010904//EN"
 "http://www.w3.org/TR/2001/REC-SVG-20010904/DTD/svg10.dtd">
<svg version="1.0" xmlns="http://www.w3.org/2000/svg"
 width="173.000000pt" height="111.000000pt" viewBox="0 0 173.000000 111.000000"
 preserveAspectRatio="xMidYMid meet">
<metadata>
Created by potrace 1.16, written by Peter Selinger 2001-2019
</metadata>
<g transform="translate(0.000000,111.000000) scale(0.100000,-0.100000)"
fill="#000000" stroke="none">
<path d="M511 728 c-21 -46 -43 -95 -49 -110 -11 -27 -14 -28 -87 -28 -60 0
-75 -3 -75 -15 0 -12 15 -15 73 -15 l74 0 24 -52 c13 -29 41 -78 62 -110 20
-32 37 -62 37 -66 0 -4 4 -13 9 -20 7 -11 37 -5 152 33 245 79 439 148 439
158 0 4 -8 6 -17 3 -10 -3 -92 -26 -183 -52 -91 -25 -173 -48 -183 -51 -16 -5
-17 2 -13 98 3 57 5 134 6 170 l0 65 163 -18 c89 -9 223 -23 297 -30 l135 -13
11 -90 c33 -269 56 -290 34 -32 l-13 147 -41 0 c-23 0 -79 7 -126 15 -89 16
-654 95 -678 95 -7 0 -30 -37 -51 -82z m201 16 c25 -5 27 -9 30 -73 l3 -69
-65 -6 c-80 -7 -200 -8 -200 -1 0 3 18 42 41 86 l40 81 62 -7 c34 -3 74 -8 89
-11z m38 -221 c0 -32 3 -74 6 -93 l6 -36 -87 -26 -87 -26 -49 101 c-27 55 -49
106 -49 113 0 13 18 15 208 22 l52 2 0 -57z"/>
<path d="M1183 494 c-9 -25 5 -114 22 -141 9 -14 32 -31 50 -39 39 -16 142
-19 165 -4 11 7 -4 10 -48 10 -117 0 -162 40 -162 145 0 44 -15 60 -27 29z"/>
</g>
</svg>
