<?xml version="1.0" standalone="no"?>
<!DOCTYPE svg PUBLIC "-//W3C//DTD SVG 20010904//EN"
 "http://www.w3.org/TR/2001/REC-SVG-20010904/DTD/svg10.dtd">
<svg version="1.0" xmlns="http://www.w3.org/2000/svg"
 width="173.000000pt" height="111.000000pt" viewBox="0 0 173.000000 111.000000"
 preserveAspectRatio="xMidYMid meet">
<metadata>
Created by potrace 1.16, written by Peter Selinger 2001-2019
</metadata>
<g transform="translate(0.000000,111.000000) scale(0.100000,-0.100000)"
fill="#000000" stroke="none">
<path d="M557 803 c-4 -3 -7 -53 -7 -110 l0 -103 -125 0 c-109 0 -125 -2 -125
-16 0 -15 13 -16 124 -12 104 5 126 3 130 -9 3 -8 6 -51 6 -96 0 -79 14 -157
27 -157 32 0 583 192 583 203 0 4 -8 6 -17 3 -10 -3 -92 -26 -183 -52 -91 -25
-173 -48 -182 -51 -16 -5 -17 6 -13 123 2 71 4 147 5 170 l0 40 163 -18 c89
-9 223 -23 297 -30 l135 -13 11 -90 c33 -269 56 -290 34 -32 l-13 147 -41 0
c-23 0 -79 7 -126 15 -73 13 -652 95 -670 95 -4 0 -10 -3 -13 -7z m143 -59
l40 -6 0 -69 0 -69 -37 -1 c-21 -1 -49 -3 -63 -5 -55 -6 -60 1 -60 88 l0 80
40 -6 c22 -3 58 -9 80 -12z m50 -221 c0 -32 3 -74 6 -94 l6 -35 -75 -22 c-42
-12 -83 -25 -91 -28 -14 -5 -16 9 -16 109 l0 116 33 4 c17 2 56 5 85 5 l52 2
0 -57z"/>
<path d="M1183 494 c-9 -25 5 -114 22 -141 9 -14 32 -31 50 -39 39 -16 142
-19 165 -4 11 7 -4 10 -48 10 -117 0 -162 40 -162 145 0 44 -15 60 -27 29z"/>
</g>
</svg>
