<?xml version="1.0" standalone="no"?>
<!DOCTYPE svg PUBLIC "-//W3C//DTD SVG 20010904//EN"
 "http://www.w3.org/TR/2001/REC-SVG-20010904/DTD/svg10.dtd">
<svg version="1.0" xmlns="http://www.w3.org/2000/svg"
 width="219.000000pt" height="176.000000pt" viewBox="0 0 219.000000 176.000000"
 preserveAspectRatio="xMidYMid meet">
<metadata>
Created by potrace 1.16, written by Peter Selinger 2001-2019
</metadata>
<g transform="translate(0.000000,176.000000) scale(0.100000,-0.100000)"
fill="#000000" stroke="none">
<path d="M1335 1439 c-49 -10 -140 -30 -201 -44 -110 -26 -112 -27 -118 -57
-3 -18 -3 -35 1 -39 5 -4 82 -15 173 -24 249 -25 230 -20 230 -59 0 -33 -1
-34 -52 -40 -64 -8 -322 -66 -337 -75 -6 -4 -12 -22 -13 -41 l-3 -34 95 -12
c52 -7 146 -16 208 -20 l112 -7 7 -41 7 -41 7 50 c4 28 8 73 8 101 l1 51 201
6 c188 6 220 9 207 22 -2 2 -95 8 -206 11 l-202 7 0 42 0 42 183 7 c100 4 194
9 209 12 26 5 27 4 31 -45 l4 -51 -1 52 -1 53 -50 7 c-27 3 -123 7 -212 7
l-163 1 0 90 c0 104 12 98 -125 69z m83 -164 c-2 -2 -55 7 -118 20 -63 13
-137 27 -165 32 l-49 8 99 28 c55 15 129 38 165 51 l65 24 3 -80 c2 -44 2 -82
0 -83z m12 -191 c0 -77 -2 -85 -17 -80 -28 8 -265 54 -298 58 -28 4 -28 5 15
16 25 7 99 30 165 51 66 22 123 39 128 40 4 1 7 -38 7 -85z"/>
<path d="M665 1061 c-3 -5 -2 -28 1 -51 l7 -42 -51 26 c-57 29 -62 30 -62 16
0 -5 24 -22 53 -36 28 -15 55 -32 59 -38 16 -24 6 -26 -32 -6 -42 21 -60 25
-60 12 0 -4 38 -27 85 -49 l85 -41 0 72 c0 50 -5 78 -16 92 -14 17 -15 13 -9
-59 7 -78 7 -78 -14 -65 -26 16 -29 50 -3 41 16 -6 16 -5 0 14 -12 12 -18 36
-18 66 0 44 -12 68 -25 48z"/>
<path d="M777 973 c-4 -6 -2 -43 2 -84 5 -41 7 -75 6 -77 -2 -2 -40 15 -85 38
-51 25 -86 38 -92 32 -5 -5 28 -26 87 -52 52 -24 95 -47 95 -52 0 -4 4 -8 9
-8 4 0 6 44 3 98 -4 91 -12 126 -25 105z"/>
<path d="M834 820 l7 -91 -90 46 c-99 49 -101 50 -101 34 0 -6 39 -28 88 -50
48 -22 95 -44 105 -49 14 -9 17 -6 17 18 0 72 -14 182 -23 182 -6 0 -7 -32 -3
-90z"/>
<path d="M460 768 c0 -7 35 -29 77 -49 l78 -36 -89 -45 c-50 -25 -84 -48 -78
-52 6 -4 44 10 84 31 40 21 85 43 101 49 27 10 26 11 -68 62 -53 29 -98 52
-101 52 -2 0 -4 -6 -4 -12z"/>
<path d="M550 769 c0 -6 37 -27 82 -48 l83 -38 -93 -47 c-51 -26 -90 -51 -87
-56 4 -6 51 12 109 42 119 61 119 55 -6 119 -85 43 -88 44 -88 28z"/>
<path d="M384 752 c2 -4 32 -21 65 -37 64 -32 71 -39 45 -49 -19 -7 -47 12
-38 26 4 6 -2 8 -12 6 -11 -3 -41 6 -68 20 -29 14 -52 20 -58 14 -5 -5 7 -16
32 -27 22 -10 40 -21 40 -25 0 -3 -20 -16 -46 -28 -25 -12 -42 -27 -39 -32 4
-6 31 3 66 20 39 20 65 28 74 22 12 -6 4 -13 -30 -30 -25 -12 -45 -26 -45 -32
0 -15 5 -13 101 34 l88 45 -75 40 c-70 38 -112 52 -100 33z"/>
<path d="M870 705 c0 -13 21 -15 133 -15 172 0 322 11 305 21 -7 5 -109 9
-225 9 -183 0 -213 -2 -213 -15z"/>
<path d="M748 612 c-54 -25 -98 -51 -98 -59 0 -9 31 2 91 33 50 25 93 44 94
42 2 -2 0 -39 -4 -83 -8 -80 -6 -104 9 -88 11 11 23 203 13 202 -4 0 -52 -21
-105 -47z"/>
<path d="M870 645 c0 -12 20 -15 118 -15 160 0 332 11 332 22 0 4 -101 8 -225
8 -193 0 -225 -2 -225 -15z"/>
<path d="M697 538 c-54 -26 -96 -52 -92 -58 3 -6 39 7 85 30 44 22 82 40 86
40 4 0 3 -36 0 -80 -5 -52 -4 -80 3 -80 15 0 23 55 19 130 l-3 65 -98 -47z"/>
<path d="M660 472 c-79 -40 -107 -62 -80 -62 6 0 29 9 50 20 34 17 40 18 40 5
0 -9 -24 -27 -55 -42 -30 -15 -55 -33 -55 -40 0 -9 15 -6 50 12 27 14 51 25
53 25 3 0 2 -20 -1 -45 -3 -27 -1 -45 5 -45 11 0 23 46 23 85 0 13 7 25 15 29
12 4 15 -3 15 -34 0 -22 4 -40 9 -40 10 0 25 111 19 150 l-3 25 -85 -43z m70
-17 c0 -18 -5 -25 -20 -25 -22 0 -26 20 -8 38 19 19 28 14 28 -13z"/>
</g>
</svg>
