<?xml version="1.0" standalone="no"?>
<!DOCTYPE svg PUBLIC "-//W3C//DTD SVG 20010904//EN"
 "http://www.w3.org/TR/2001/REC-SVG-20010904/DTD/svg10.dtd">
<svg version="1.0" xmlns="http://www.w3.org/2000/svg"
 width="159.000000pt" height="281.000000pt" viewBox="0 0 159.000000 281.000000"
 preserveAspectRatio="xMidYMid meet">
<metadata>
Created by potrace 1.16, written by Peter Selinger 2001-2019
</metadata>
<g transform="translate(0.000000,281.000000) scale(0.100000,-0.100000)"
fill="#000000" stroke="none">
<path d="M324 2485 c-4 -18 2 -34 25 -63 41 -53 101 -106 150 -134 23 -13 39
-27 37 -33 -56 -126 -61 -142 -61 -210 1 -56 6 -80 28 -122 15 -28 31 -54 37
-58 20 -12 9 -31 -32 -53 -96 -50 -196 -161 -183 -201 9 -29 18 -26 39 14 27
49 103 118 166 150 l53 27 56 -63 57 -63 125 53 c68 30 202 90 297 134 l173
81 -3 95 -3 95 -302 154 c-206 104 -309 151 -322 147 -11 -3 -37 -33 -58 -65
-21 -33 -43 -60 -49 -60 -37 0 -183 131 -198 178 -10 29 -24 28 -32 -3z m726
-270 c91 -40 174 -75 186 -79 18 -5 22 -17 28 -74 11 -117 19 -105 -101 -147
-60 -21 -190 -71 -291 -111 -100 -41 -187 -74 -192 -74 -5 0 -24 19 -41 42
l-30 43 43 18 c24 10 90 35 148 55 58 20 96 38 85 40 -17 2 -238 -54 -286 -73
-12 -4 -24 11 -50 67 -46 99 -47 165 -2 260 l32 68 43 -16 c73 -26 269 -76
275 -70 6 6 5 7 -169 71 -83 31 -125 51 -121 59 3 6 20 30 36 53 l29 41 107
-50 c58 -28 180 -83 271 -123z"/>
<path d="M310 1101 c0 -5 -3 -16 -6 -24 -4 -11 28 -33 116 -82 92 -51 120 -71
117 -84 -3 -9 -18 -45 -34 -81 -22 -51 -28 -80 -28 -135 0 -62 4 -78 38 -139
21 -37 37 -70 35 -71 -2 -1 -58 -33 -125 -70 -68 -37 -123 -72 -123 -79 0 -6
4 -17 9 -25 7 -11 36 2 141 64 l132 77 57 -63 58 -64 89 55 c190 115 464 300
464 313 0 14 -221 172 -447 320 -73 48 -133 82 -133 77 0 -6 -6 -10 -14 -10
-8 0 -30 -25 -48 -55 -18 -30 -36 -55 -40 -55 -4 0 -61 32 -127 70 -127 73
-131 76 -131 61z m730 -289 c107 -63 196 -116 198 -117 2 -1 -48 -30 -110 -63
-107 -56 -169 -92 -366 -207 -91 -53 -96 -53 -134 13 l-18 30 78 50 c42 27
103 66 135 86 32 21 57 40 54 42 -3 3 -68 -27 -146 -65 -77 -39 -143 -71 -146
-71 -4 0 -20 30 -38 68 -44 92 -44 161 0 255 18 37 34 67 38 67 3 0 69 -32
146 -71 78 -38 143 -68 146 -65 3 2 -22 21 -54 42 -177 113 -213 136 -213 140
0 2 14 23 31 48 l32 44 86 -55 c47 -31 174 -107 281 -171z"/>
</g>
</svg>
