<?xml version="1.0" standalone="no"?>
<!DOCTYPE svg PUBLIC "-//W3C//DTD SVG 20010904//EN"
 "http://www.w3.org/TR/2001/REC-SVG-20010904/DTD/svg10.dtd">
<svg version="1.0" xmlns="http://www.w3.org/2000/svg"
 width="155.000000pt" height="139.000000pt" viewBox="0 0 155.000000 139.000000"
 preserveAspectRatio="xMidYMid meet">
<metadata>
Created by potrace 1.16, written by Peter Selinger 2001-2019
</metadata>
<g transform="translate(0.000000,139.000000) scale(0.100000,-0.100000)"
fill="#000000" stroke="none">
<path d="M306 1075 c-3 -9 -6 -20 -6 -25 0 -4 56 -38 124 -76 l123 -68 -34
-74 c-58 -124 -55 -200 9 -306 36 -59 45 -48 -112 -132 -73 -39 -109 -64 -107
-74 5 -32 48 -20 157 44 62 36 115 66 119 66 5 0 34 -27 65 -60 l57 -60 122
76 c225 141 430 278 418 282 -9 3 -152 -68 -239 -121 l-33 -19 3 151 c2 83 5
150 8 148 3 -1 63 -35 133 -76 71 -40 130 -71 133 -68 7 7 -73 64 -335 238
-266 177 -246 172 -307 80 -40 -59 -22 -61 -170 25 -114 67 -120 69 -128 49z
m514 -148 l115 -73 6 -165 c4 -90 5 -167 3 -171 -4 -6 -261 -158 -268 -158 -5
0 -68 91 -65 94 19 14 140 86 144 86 3 0 5 -9 5 -20 0 -11 5 -20 10 -20 6 0
10 13 10 29 0 20 8 35 22 45 32 23 35 21 43 -31 8 -47 8 -47 16 -18 8 28 11
120 10 288 -1 60 -3 67 -21 67 -17 0 -20 -7 -20 -45 0 -25 -4 -45 -8 -45 -18
0 -32 26 -32 57 0 26 -4 33 -20 33 -13 0 -20 -7 -20 -20 0 -11 -2 -20 -4 -20
-8 0 -136 82 -136 87 0 2 14 24 31 49 24 36 33 42 47 35 9 -6 69 -43 132 -84z
m-190 -65 c21 -17 23 -30 30 -173 4 -85 7 -154 6 -155 0 0 -18 -10 -39 -22
-21 -12 -40 -22 -43 -22 -3 0 -19 30 -37 68 -25 52 -32 80 -32 127 0 47 7 75
32 128 34 71 47 78 83 49z m120 -120 c0 -31 3 -80 6 -109 6 -50 6 -52 -24 -67
-17 -9 -33 -16 -37 -16 -3 0 -5 63 -5 140 l0 141 30 -16 c28 -14 30 -19 30
-73z m84 -28 c11 -82 8 -92 -25 -110 -30 -15 -31 -15 -25 1 3 9 6 52 6 96 0
75 1 79 19 70 12 -7 20 -26 25 -57z"/>
</g>
</svg>
