<?xml version="1.0" standalone="no"?>
<!DOCTYPE svg PUBLIC "-//W3C//DTD SVG 20010904//EN"
 "http://www.w3.org/TR/2001/REC-SVG-20010904/DTD/svg10.dtd">
<svg version="1.0" xmlns="http://www.w3.org/2000/svg"
 width="236.000000pt" height="392.000000pt" viewBox="0 0 236.000000 392.000000"
 preserveAspectRatio="xMidYMid meet">
<metadata>
Created by potrace 1.16, written by Peter Selinger 2001-2019
</metadata>
<g transform="translate(0.000000,392.000000) scale(0.100000,-0.100000)"
fill="#000000" stroke="none">
<path d="M988 3606 c-10 -7 -18 -19 -18 -26 0 -18 97 -365 166 -590 30 -102
56 -195 56 -208 1 -30 5 -27 72 36 132 125 213 260 223 369 5 62 -9 115 -29
112 -7 -1 -51 36 -98 82 -88 87 -181 155 -286 208 -71 36 -64 34 -86 17z m83
-58 c43 -24 38 -12 103 -243 25 -88 63 -218 85 -290 l40 -130 -32 -34 c-18
-19 -37 -41 -44 -48 -10 -11 -14 -9 -19 14 -32 138 -169 669 -190 735 -7 24
10 23 57 -4z m156 -96 c110 -80 203 -166 214 -200 15 -45 3 -119 -32 -192 -29
-61 -89 -153 -96 -146 -2 2 -28 99 -57 217 -30 118 -63 247 -74 287 -12 39
-18 72 -14 72 4 0 30 -18 59 -38z"/>
<path d="M749 2852 c-225 -141 -332 -232 -396 -340 -22 -37 -25 -51 -20 -97
11 -107 93 -237 174 -276 57 -27 158 -29 252 -5 125 32 925 403 892 414 -10 3
-153 -56 -663 -279 -93 -40 -168 -78 -168 -85 0 -17 -75 -29 -170 -28 -117 1
-178 41 -236 157 -14 27 -32 77 -38 111 -13 59 -12 62 13 95 14 19 62 65 106
104 101 88 363 263 375 251 4 -5 29 -54 53 -109 25 -55 64 -138 86 -185 41
-84 41 -85 39 -42 -2 30 2 46 13 52 8 5 93 39 189 76 96 37 208 82 249 101 41
18 78 30 82 26 3 -5 14 -33 24 -63 34 -106 77 -210 87 -210 6 0 7 13 3 33 -8
36 -83 278 -88 283 -1 2 -16 -4 -32 -12 -17 -9 -111 -45 -210 -81 -98 -35
-212 -78 -253 -94 -40 -16 -77 -27 -82 -24 -4 2 -34 67 -66 142 -59 140 -71
163 -84 163 -4 0 -63 -35 -131 -78z"/>
<path d="M617 2694 c-6 -7 66 -149 145 -286 21 -36 38 -71 38 -76 0 -5 -24
-14 -52 -20 -160 -34 -211 -25 -263 46 -19 26 -44 71 -57 100 -12 28 -25 52
-29 52 -19 0 -15 -34 11 -88 62 -131 108 -167 203 -160 47 4 188 39 215 54 4
2 -92 212 -139 307 -36 70 -54 88 -72 71z"/>
<path d="M1482 1360 l-24 -19 45 -168 c25 -93 47 -177 49 -187 3 -21 13 -17
-316 -131 -105 -36 -195 -65 -202 -65 -11 0 -54 80 -115 218 -16 34 -35 65
-43 68 -32 12 -376 -206 -464 -294 -86 -86 -116 -141 -108 -198 15 -114 118
-248 209 -273 62 -18 202 -9 282 17 93 31 620 254 735 312 56 28 103 50 105
48 7 -9 87 -296 87 -315 0 -20 3 -21 19 -10 23 17 129 117 129 123 0 2 22 32
49 65 56 70 115 182 130 249 20 86 9 190 -20 190 -6 0 -55 44 -108 98 -105
105 -212 186 -331 251 -41 22 -77 41 -80 41 -3 -1 -15 -9 -28 -20z m168 -178
c12 -48 60 -219 106 -380 46 -161 84 -296 84 -301 0 -4 -22 -32 -49 -61 -42
-48 -49 -52 -54 -35 -22 75 -67 290 -63 301 3 8 2 14 -3 14 -9 0 -65 210 -64
240 0 8 -3 20 -7 25 -7 9 -90 323 -90 339 0 4 26 -7 59 -24 l58 -31 23 -87z
m113 -6 c98 -72 219 -182 237 -214 22 -41 17 -136 -12 -214 -25 -66 -113 -218
-127 -218 -4 0 -20 57 -36 128 -16 70 -54 227 -86 350 -31 122 -55 222 -53
222 3 0 37 -24 77 -54z m-814 -321 c51 -102 95 -185 97 -185 3 0 4 19 2 41
l-3 41 95 35 c52 18 168 61 258 94 90 34 165 60 166 58 10 -11 64 -225 58
-231 -5 -4 -663 -273 -799 -325 -7 -3 -13 -11 -13 -18 0 -31 -226 -37 -292 -7
-83 36 -160 151 -173 258 l-7 50 73 68 c83 75 171 138 333 238 61 37 112 68
112 68 1 0 43 -83 93 -185z"/>
<path d="M610 860 c-18 -11 2 -52 113 -238 37 -63 67 -116 67 -117 0 -12 -161
-37 -211 -33 -53 4 -64 9 -98 42 -22 21 -54 67 -71 102 -31 59 -50 74 -50 37
0 -30 64 -134 107 -174 l45 -41 82 5 c46 2 112 15 153 28 l72 24 -91 180 c-49
99 -93 183 -96 187 -4 4 -14 3 -22 -2z"/>
</g>
</svg>
