<?xml version="1.0" standalone="no"?>
<!DOCTYPE svg PUBLIC "-//W3C//DTD SVG 20010904//EN"
 "http://www.w3.org/TR/2001/REC-SVG-20010904/DTD/svg10.dtd">
<svg version="1.0" xmlns="http://www.w3.org/2000/svg"
 width="181.000000pt" height="127.000000pt" viewBox="0 0 181.000000 127.000000"
 preserveAspectRatio="xMidYMid meet">
<metadata>
Created by potrace 1.16, written by Peter Selinger 2001-2019
</metadata>
<g transform="translate(0.000000,127.000000) scale(0.100000,-0.100000)"
fill="#000000" stroke="none">
<path d="M394 956 c-3 -8 4 -31 16 -50 88 -143 347 -209 694 -176 141 13 230
5 320 -26 22 -8 41 -12 44 -9 9 9 -30 33 -83 52 -43 16 -88 18 -335 18 -261 1
-292 2 -361 22 -112 31 -189 74 -242 133 -36 40 -48 48 -53 36z"/>
<path d="M342 798 c6 -18 126 -75 195 -92 49 -13 122 -16 358 -16 171 0 295 4
295 9 0 5 -131 11 -307 13 -290 4 -312 5 -373 27 -36 12 -84 33 -107 47 -45
26 -67 31 -61 12z"/>
<path d="M344 678 c-9 -14 39 -26 142 -37 136 -14 694 -23 694 -10 0 5 -21 9
-47 9 -193 2 -642 23 -706 33 -43 8 -80 10 -83 5z"/>
<path d="M1475 590 c0 -49 3 -90 7 -90 14 0 29 75 26 125 -2 35 -8 51 -18 53
-12 2 -15 -13 -15 -88z"/>
<path d="M340 563 c0 -15 24 -16 293 -10 160 4 350 7 420 7 83 0 126 4 122 10
-4 6 -155 10 -421 10 -379 0 -414 -1 -414 -17z"/>
<path d="M337 504 c-4 -4 -4 -11 -1 -15 6 -10 520 -10 719 0 l130 6 -184 8
c-225 9 -655 9 -664 1z"/>
<path d="M985 459 c-55 -4 -129 -12 -165 -18 -36 -6 -108 -11 -160 -11 -52 0
-120 -6 -151 -14 -58 -13 -176 -73 -199 -101 -23 -28 24 -17 86 20 91 55 139
65 354 75 107 5 238 14 290 19 52 5 175 12 273 16 97 4 177 11 177 16 0 11
-364 9 -505 -2z"/>
</g>
</svg>
