<?xml version="1.0" standalone="no"?>
<!DOCTYPE svg PUBLIC "-//W3C//DTD SVG 20010904//EN"
 "http://www.w3.org/TR/2001/REC-SVG-20010904/DTD/svg10.dtd">
<svg version="1.0" xmlns="http://www.w3.org/2000/svg"
 width="177.000000pt" height="131.000000pt" viewBox="0 0 177.000000 131.000000"
 preserveAspectRatio="xMidYMid meet">
<metadata>
Created by potrace 1.16, written by Peter Selinger 2001-2019
</metadata>
<g transform="translate(0.000000,131.000000) scale(0.100000,-0.100000)"
fill="#000000" stroke="none">
<path d="M1364 934 c-102 -107 -119 -144 -119 -262 l0 -94 -75 4 c-70 3 -79 6
-132 46 -54 40 -62 43 -135 46 -150 7 -265 61 -435 204 -81 68 -99 80 -105 66
-5 -13 8 -31 48 -66 86 -76 205 -158 267 -185 l57 -24 -210 3 c-181 3 -210 1
-210 -12 0 -13 20 -15 130 -13 72 0 217 2 323 3 l192 2 50 -37 c55 -41 61 -50
27 -41 -12 3 -180 6 -372 6 -323 1 -350 0 -353 -16 -4 -16 22 -17 385 -14 552
5 563 4 563 -19 0 -11 5 -23 11 -27 7 -4 10 4 7 22 -3 26 0 29 30 32 44 4 41
22 -4 22 l-37 0 5 83 c6 106 28 154 111 242 l66 70 1 -322 0 -322 -575 6 -575
6 0 -23 0 -23 585 4 585 4 -2 349 c-2 277 -6 350 -16 354 -7 2 -47 -31 -88
-74z"/>
<path d="M310 491 l0 -21 403 1 c221 1 440 4 487 8 l85 7 -85 7 c-47 3 -266 9
-487 13 l-403 7 0 -22z"/>
<path d="M300 398 l0 -23 437 3 c717 5 671 25 -84 37 l-353 6 0 -23z"/>
</g>
</svg>
