<?xml version="1.0" standalone="no"?>
<!DOCTYPE svg PUBLIC "-//W3C//DTD SVG 20010904//EN"
 "http://www.w3.org/TR/2001/REC-SVG-20010904/DTD/svg10.dtd">
<svg version="1.0" xmlns="http://www.w3.org/2000/svg"
 width="194.000000pt" height="127.000000pt" viewBox="0 0 194.000000 127.000000"
 preserveAspectRatio="xMidYMid meet">
<metadata>
Created by potrace 1.16, written by Peter Selinger 2001-2019
</metadata>
<g transform="translate(0.000000,127.000000) scale(0.100000,-0.100000)"
fill="#000000" stroke="none">
<path d="M1362 871 c-7 -56 -12 -115 -12 -131 0 -16 -3 -31 -7 -33 -13 -7
-356 11 -402 21 -69 15 -170 -2 -200 -34 -28 -31 -28 -31 -216 25 -131 39
-165 44 -165 23 0 -5 70 -26 155 -46 116 -28 155 -42 155 -53 0 -12 7 -14 28
-9 90 20 127 18 225 -14 55 -17 101 -29 104 -26 11 10 -122 64 -193 79 l-69
14 70 13 c56 9 81 10 125 0 30 -7 90 -15 132 -17 87 -5 76 8 98 -121 6 -35 15
-75 20 -87 9 -23 6 -24 -38 -30 -68 -10 -82 -15 -82 -31 0 -18 0 -18 144 6
144 25 346 76 362 93 12 12 29 148 40 323 l7 101 -34 12 c-19 7 -79 15 -135
18 l-101 6 -11 -102z m245 52 c7 -19 -12 -391 -21 -400 -6 -6 -242 -56 -313
-67 -31 -5 -43 -3 -43 6 -1 7 -7 59 -14 116 -14 112 -6 138 14 40 13 -69 38
-138 50 -138 4 0 2 21 -5 48 -23 88 -27 152 -11 152 15 0 26 -21 26 -50 0 -32
40 -150 51 -150 7 0 8 7 4 18 -11 26 -34 176 -28 185 2 4 13 7 23 7 20 0 27
24 50 173 l13 77 99 0 c83 0 100 -3 105 -17z"/>
<path d="M310 676 c0 -9 48 -25 156 -51 85 -20 158 -34 161 -31 7 7 5 8 -155
56 -147 44 -162 46 -162 26z"/>
<path d="M306 625 c-7 -19 -11 -18 149 -55 72 -17 138 -33 148 -36 9 -3 17 -1
17 4 0 5 -8 12 -17 15 -10 2 -72 21 -138 41 -66 20 -127 39 -136 42 -9 2 -19
-2 -23 -11z"/>
<path d="M304 578 c-10 -15 -1 -18 111 -44 109 -24 143 -29 132 -18 -14 14
-238 71 -243 62z"/>
<path d="M732 559 c-34 -7 -56 -17 -62 -30 -13 -23 -16 -23 62 -3 61 16 128
15 213 -2 40 -9 22 10 -25 24 -55 17 -130 21 -188 11z"/>
<path d="M970 474 c0 -28 -145 -71 -204 -60 -19 4 -50 18 -70 31 -44 30 -46
30 -46 7 0 -30 76 -66 135 -65 51 1 184 45 196 65 4 6 30 13 58 16 70 6 64 22
-9 22 -48 0 -60 -3 -60 -16z"/>
<path d="M317 463 c-4 -3 -7 -12 -7 -19 0 -9 21 -11 83 -8 197 11 250 16 236
25 -16 10 -302 12 -312 2z"/>
<path d="M307 383 c-22 -21 2 -25 128 -18 126 7 136 6 160 -13 49 -39 118 -54
223 -50 85 3 105 7 165 36 37 18 67 37 67 43 0 5 -14 2 -32 -7 -110 -57 -227
-69 -323 -33 -31 12 -59 27 -62 35 -4 11 -37 14 -162 14 -87 0 -161 -3 -164
-7z"/>
</g>
</svg>
