<?xml version="1.0" standalone="no"?>
<!DOCTYPE svg PUBLIC "-//W3C//DTD SVG 20010904//EN"
 "http://www.w3.org/TR/2001/REC-SVG-20010904/DTD/svg10.dtd">
<svg version="1.0" xmlns="http://www.w3.org/2000/svg"
 width="192.000000pt" height="121.000000pt" viewBox="0 0 192.000000 121.000000"
 preserveAspectRatio="xMidYMid meet">
<metadata>
Created by potrace 1.16, written by Peter Selinger 2001-2019
</metadata>
<g transform="translate(0.000000,121.000000) scale(0.100000,-0.100000)"
fill="#000000" stroke="none">
<path d="M446 903 c-27 -3 -40 -10 -43 -24 -3 -10 -13 -19 -23 -19 -12 0 -24
-17 -39 -57 -54 -150 -54 -248 0 -379 l33 -82 76 -17 c177 -40 323 -28 462 39
141 67 191 68 438 7 99 -24 119 -27 140 -16 41 21 130 127 130 154 0 26 -42
119 -69 152 l-30 36 -108 -29 c-59 -15 -156 -37 -216 -49 -121 -23 -146 -20
-215 31 -42 30 -46 40 -57 143 -4 39 -11 57 -21 57 -7 0 -49 12 -91 27 -66 22
-97 27 -203 29 -69 1 -142 0 -164 -3z m158 -55 c3 -13 6 -62 6 -110 l0 -88
-136 0 c-124 0 -135 1 -130 18 3 9 10 37 16 62 18 69 47 119 73 125 33 7 77
12 123 14 35 1 43 -2 48 -21z m228 -1 c47 -14 50 -20 63 -143 l7 -64 -50 0
c-27 0 -83 3 -125 6 l-77 7 0 110 0 110 70 -7 c38 -4 89 -13 112 -19z m695
-211 c17 -18 40 -54 52 -79 l23 -47 -22 -29 c-29 -42 -97 -98 -126 -105 -15
-4 -61 5 -118 23 -51 16 -131 38 -179 48 l-86 17 -73 -24 c-40 -14 -78 -26
-85 -28 -8 -2 -7 10 3 45 8 26 18 76 22 110 l7 63 50 -33 c39 -25 59 -32 95
-30 51 1 212 41 315 77 39 13 75 25 81 25 7 1 25 -14 41 -33z m-627 -68 c-1
-52 -24 -206 -33 -215 -7 -6 -177 -19 -205 -15 -24 4 -24 4 -21 135 l3 132 26
6 c14 4 71 7 128 8 l102 1 0 -52z m-287 -90 c4 -72 5 -134 2 -136 -6 -6 -129
16 -191 34 -45 13 -52 19 -63 52 -6 20 -15 70 -18 110 l-6 72 135 0 135 0 6
-132z"/>
</g>
</svg>
