<?xml version="1.0" standalone="no"?>
<!DOCTYPE svg PUBLIC "-//W3C//DTD SVG 20010904//EN"
 "http://www.w3.org/TR/2001/REC-SVG-20010904/DTD/svg10.dtd">
<svg version="1.0" xmlns="http://www.w3.org/2000/svg"
 width="175.000000pt" height="136.000000pt" viewBox="0 0 175.000000 136.000000"
 preserveAspectRatio="xMidYMid meet">
<metadata>
Created by potrace 1.16, written by Peter Selinger 2001-2019
</metadata>
<g transform="translate(0.000000,136.000000) scale(0.100000,-0.100000)"
fill="#000000" stroke="none">
<path d="M640 1047 c-36 -7 -86 -24 -111 -39 -46 -27 -129 -115 -129 -137 0
-6 -8 -11 -18 -11 -19 0 -52 -73 -73 -162 -18 -75 -7 -183 25 -258 16 -36 29
-73 29 -82 3 -45 306 -75 437 -43 70 17 72 19 91 62 10 25 27 83 36 130 14 73
15 102 6 197 -6 61 -10 112 -9 113 1 1 44 -11 96 -28 114 -36 176 -39 250 -10
64 24 181 101 177 116 -8 27 -219 110 -362 141 -93 21 -360 27 -445 11z m372
-42 c166 -22 425 -95 412 -116 -10 -17 -124 -69 -183 -85 -66 -16 -82 -14
-266 38 -60 17 -123 32 -140 33 -16 2 -64 10 -105 20 -56 13 -99 16 -167 11
-106 -6 -111 1 -38 53 80 58 266 75 487 46z m-412 -245 l0 -110 -131 0 c-119
0 -130 1 -125 18 3 9 8 31 12 47 4 17 17 53 30 82 24 56 16 52 139 66 82 10
75 20 75 -103z m218 86 l57 -11 12 -95 c6 -52 10 -97 8 -100 -2 -3 -59 -3
-127 0 -90 4 -123 8 -122 18 1 6 2 57 3 113 l1 100 55 -6 c30 -4 81 -12 113
-19z m82 -268 c0 -68 -28 -220 -41 -229 -15 -9 -165 -22 -199 -17 -14 1 -24 6
-22 11 1 4 2 65 2 137 l0 129 78 4 c42 1 101 4 130 5 l52 2 0 -42z m-296 20
c3 -7 7 -70 9 -140 5 -126 5 -128 -17 -123 -11 2 -55 11 -96 19 -109 21 -126
30 -139 69 -20 60 -29 167 -15 175 7 4 67 8 133 10 93 2 122 0 125 -10z"/>
</g>
</svg>
