<?xml version="1.0" standalone="no"?>
<!DOCTYPE svg PUBLIC "-//W3C//DTD SVG 20010904//EN"
 "http://www.w3.org/TR/2001/REC-SVG-20010904/DTD/svg10.dtd">
<svg version="1.0" xmlns="http://www.w3.org/2000/svg"
 width="138.000000pt" height="246.000000pt" viewBox="0 0 138.000000 246.000000"
 preserveAspectRatio="xMidYMid meet">
<metadata>
Created by potrace 1.16, written by Peter Selinger 2001-2019
</metadata>
<g transform="translate(0.000000,246.000000) scale(0.100000,-0.100000)"
fill="#000000" stroke="none">
<path d="M376 2144 c-7 -18 -5 -21 209 -242 88 -91 89 -94 69 -108 -12 -8 -83
-79 -158 -159 -127 -134 -136 -146 -124 -165 13 -22 13 -22 298 -14 157 5 308
9 336 9 l52 0 6 50 c3 28 9 183 12 345 l7 295 -350 3 c-328 4 -351 3 -357 -14z
m654 -41 c0 -122 11 -520 16 -566 l5 -59 -28 6 c-15 3 -155 8 -310 12 l-282 7
79 86 c43 47 102 117 130 154 l51 68 -47 66 c-26 37 -83 106 -127 155 l-79 88
209 3 c114 1 247 3 296 5 l87 2 0 -27z"/>
<path d="M349 1188 c-12 -42 -7 -49 69 -99 42 -29 121 -84 175 -122 l97 -69 0
-137 0 -137 -191 -134 c-105 -74 -192 -137 -194 -141 -3 -3 2 -15 10 -25 13
-18 32 -19 378 -19 l365 0 6 60 c3 33 9 232 13 443 l6 382 -26 0 c-14 0 -27
-3 -29 -7 -1 -5 -66 -5 -143 -2 -139 7 -534 11 -536 7z m685 -390 c4 -200 9
-387 13 -417 l6 -54 -104 7 c-57 3 -203 9 -324 12 -121 3 -221 7 -223 9 -2 1
43 37 100 78 57 42 127 100 156 130 l54 54 4 109 c2 60 6 122 9 137 4 24 -4
38 -45 81 -27 29 -93 84 -146 122 l-96 69 234 7 c128 4 251 9 273 11 93 8 81
55 89 -355z"/>
</g>
</svg>
