<?xml version="1.0" standalone="no"?>
<!DOCTYPE svg PUBLIC "-//W3C//DTD SVG 20010904//EN"
 "http://www.w3.org/TR/2001/REC-SVG-20010904/DTD/svg10.dtd">
<svg version="1.0" xmlns="http://www.w3.org/2000/svg"
 width="159.000000pt" height="88.000000pt" viewBox="0 0 159.000000 88.000000"
 preserveAspectRatio="xMidYMid meet">
<metadata>
Created by potrace 1.16, written by Peter Selinger 2001-2019
</metadata>
<g transform="translate(0.000000,88.000000) scale(0.100000,-0.100000)"
fill="#000000" stroke="none">
<path d="M307 573 c-9 -8 -9 -131 -1 -212 l7 -62 479 2 c263 1 481 5 484 10 3
5 8 65 11 132 l6 124 -24 6 c-32 9 -954 9 -962 0z m937 -80 c4 -38 9 -92 11
-122 l6 -54 -167 6 c-92 4 -236 7 -321 7 l-153 0 0 110 0 110 183 3 c100 1
239 3 309 5 l126 2 6 -67z m-654 -30 c0 -49 3 -98 6 -110 l6 -23 -137 0 -137
0 6 31 c3 17 6 67 6 110 l0 79 125 0 125 0 0 -87z"/>
</g>
</svg>
