<?xml version="1.0" standalone="no"?>
<!DOCTYPE svg PUBLIC "-//W3C//DTD SVG 20010904//EN"
 "http://www.w3.org/TR/2001/REC-SVG-20010904/DTD/svg10.dtd">
<svg version="1.0" xmlns="http://www.w3.org/2000/svg"
 width="135.000000pt" height="273.000000pt" viewBox="0 0 135.000000 273.000000"
 preserveAspectRatio="xMidYMid meet">
<metadata>
Created by potrace 1.16, written by Peter Selinger 2001-2019
</metadata>
<g transform="translate(0.000000,273.000000) scale(0.100000,-0.100000)"
fill="#000000" stroke="none">
<path d="M554 2419 c-29 -8 -32 -13 -36 -56 -9 -112 70 -160 195 -117 47 16
68 42 25 30 -54 -15 -134 -17 -158 -4 -21 11 -25 21 -25 58 0 42 2 45 30 51
17 4 100 7 187 8 l156 1 6 -37 c6 -43 10 -185 8 -283 l-2 -65 -72 3 c-40 2
-163 6 -272 10 l-200 7 -42 -90 c-58 -125 -61 -142 -28 -207 14 -29 36 -66 48
-83 13 -16 26 -38 29 -48 7 -18 20 -18 260 -12 l252 6 49 -25 c82 -43 86 -40
86 62 -1 147 -19 378 -40 510 -11 70 -23 158 -27 198 l-6 72 -87 11 c-102 13
-292 13 -336 0z m465 -634 c10 -126 18 -231 17 -232 -1 -1 -24 13 -50 32 -27
19 -53 32 -58 29 -5 -3 -6 5 -3 18 12 55 45 279 52 353 9 116 19 71 42 -200z
m-83 153 c-3 -24 -11 -108 -17 -187 l-12 -143 -46 6 c-25 3 -90 9 -144 12
l-97 7 6 156 c3 86 7 161 9 168 4 12 57 18 218 21 l88 2 -5 -42z m-346 -31 c0
-35 3 -112 7 -170 l6 -107 -91 0 -92 0 -41 83 c-23 45 -45 83 -49 85 -4 2 13
41 39 87 l46 85 88 0 87 0 0 -63z"/>
<path d="M628 1130 c-48 -3 -92 -10 -97 -15 -6 -6 -11 -34 -12 -63 -3 -70 21
-104 82 -116 49 -9 112 3 144 29 19 15 17 15 -25 8 -65 -11 -137 -8 -155 7
-11 9 -15 26 -13 54 4 52 10 54 215 55 l161 1 6 -37 c6 -43 10 -185 8 -281
l-2 -63 -257 6 c-142 4 -264 8 -271 11 -15 4 -98 -159 -108 -211 -6 -35 14
-84 69 -167 l32 -48 257 0 256 0 6 28 c53 264 75 521 60 705 l-7 75 -81 11
c-116 15 -169 17 -268 11z m308 -492 c-3 -29 -11 -111 -17 -183 -6 -72 -14
-133 -17 -137 -4 -3 -41 -3 -82 2 -41 5 -104 9 -139 10 l-64 0 7 92 c3 50 6
121 6 157 0 36 4 72 9 80 6 10 45 16 142 21 74 4 140 8 147 8 10 2 12 -10 8
-50z m-346 -31 c0 -35 3 -112 7 -170 l6 -107 -90 0 -91 0 -42 83 c-24 45 -46
84 -50 87 -4 3 13 42 38 88 l46 82 88 0 88 0 0 -63z"/>
</g>
</svg>
