<?xml version="1.0" standalone="no"?>
<!DOCTYPE svg PUBLIC "-//W3C//DTD SVG 20010904//EN"
 "http://www.w3.org/TR/2001/REC-SVG-20010904/DTD/svg10.dtd">
<svg version="1.0" xmlns="http://www.w3.org/2000/svg"
 width="129.000000pt" height="143.000000pt" viewBox="0 0 129.000000 143.000000"
 preserveAspectRatio="xMidYMid meet">
<metadata>
Created by potrace 1.16, written by Peter Selinger 2001-2019
</metadata>
<g transform="translate(0.000000,143.000000) scale(0.100000,-0.100000)"
fill="#000000" stroke="none">
<path d="M357 1052 c-20 -42 -42 -98 -48 -123 -12 -45 -11 -48 24 -111 20 -36
43 -71 52 -78 8 -7 15 -22 15 -33 0 -20 3 -20 277 -14 l276 7 -6 -113 c-6 -99
-19 -202 -33 -247 -3 -13 -19 -14 -111 -8 -114 8 -240 25 -254 34 -14 8 -10
73 6 104 19 37 4 39 -24 4 -25 -32 -30 -138 -8 -147 43 -16 181 -28 301 -25
l139 3 3 35 c3 19 9 71 14 115 13 104 12 326 -3 497 -8 92 -9 139 -2 142 33
12 -29 17 -246 22 -134 2 -265 6 -290 9 l-46 4 -36 -77z m593 -148 l0 -186
-107 6 c-60 4 -134 9 -166 12 l-58 6 6 162 c4 88 10 164 14 168 3 4 53 9 111
11 58 1 126 4 153 5 l47 2 0 -186z m-360 89 c0 -49 3 -125 7 -171 l6 -83 -94
3 -94 3 -38 75 c-21 41 -43 77 -47 80 -5 3 11 41 35 85 l44 80 78 6 c43 3 84
6 91 7 9 2 12 -21 12 -85z"/>
</g>
</svg>
