<?xml version="1.0" standalone="no"?>
<!DOCTYPE svg PUBLIC "-//W3C//DTD SVG 20010904//EN"
 "http://www.w3.org/TR/2001/REC-SVG-20010904/DTD/svg10.dtd">
<svg version="1.0" xmlns="http://www.w3.org/2000/svg"
 width="168.000000pt" height="161.000000pt" viewBox="0 0 168.000000 161.000000"
 preserveAspectRatio="xMidYMid meet">
<metadata>
Created by potrace 1.16, written by Peter Selinger 2001-2019
</metadata>
<g transform="translate(0.000000,161.000000) scale(0.100000,-0.100000)"
fill="#000000" stroke="none">
<path d="M715 1303 c-121 -26 -299 -99 -291 -119 3 -7 -1 -15 -8 -17 -17 -7
-74 -146 -98 -241 -31 -121 -23 -204 30 -309 23 -45 72 -124 109 -174 l68 -93
81 -25 c58 -19 96 -25 140 -23 l59 3 -70 17 c-38 10 -104 35 -145 55 -41 20
-77 35 -79 34 -12 -9 -115 174 -145 257 -45 127 -32 237 48 407 l43 91 81 32
c170 67 289 80 443 48 64 -14 198 -55 262 -81 9 -4 17 -3 17 3 0 5 -17 17 -37
25 -21 9 -71 30 -112 47 -142 58 -301 84 -396 63z"/>
<path d="M791 1130 c-34 -16 -65 -20 -142 -20 -59 0 -99 -4 -99 -10 0 -6 38
-10 95 -10 80 0 93 -2 89 -15 -5 -12 -25 -15 -95 -15 -53 0 -89 -4 -89 -10 0
-6 35 -10 85 -10 50 0 85 -4 85 -10 0 -6 -35 -10 -85 -10 -50 0 -85 -4 -85
-10 0 -6 33 -10 80 -10 47 0 80 -4 80 -10 0 -6 -33 -10 -80 -10 -47 0 -80 -4
-80 -10 0 -6 35 -10 84 -10 47 0 88 -4 91 -10 4 -6 -27 -10 -84 -10 -54 0 -91
-4 -91 -10 0 -6 38 -10 94 -10 52 0 97 -4 100 -9 4 -5 -35 -7 -94 -4 -92 5
-100 4 -100 -12 0 -17 8 -17 103 -11 91 6 107 4 142 -14 50 -26 65 -25 124 5
38 19 52 33 65 65 9 22 16 52 16 65 0 14 5 25 10 25 22 0 144 62 132 67 -7 3
-42 -7 -79 -22 -36 -14 -66 -25 -67 -23 -13 31 -31 48 -76 71 -64 32 -72 33
-129 7z m51 -148 l3 -103 -25 6 c-91 21 -105 174 -20 218 41 20 38 30 42 -121z
m77 122 c53 -21 69 -64 52 -139 -10 -44 -17 -54 -47 -68 -64 -31 -65 -30 -63
96 1 104 4 127 14 127 3 0 22 -7 44 -16z"/>
<path d="M1285 1068 c19 -40 42 -104 52 -142 15 -64 16 -76 1 -145 -18 -89
-91 -286 -114 -313 -25 -27 -229 -124 -309 -148 l-70 -20 70 3 c57 2 85 9 149
40 99 47 209 124 202 142 -2 7 10 45 29 84 19 38 46 107 61 151 35 106 30 195
-16 321 -30 83 -42 98 -82 99 -4 0 8 -33 27 -72z"/>
<path d="M1002 949 c5 -15 119 -61 138 -56 8 2 -15 18 -52 35 -72 34 -92 39
-86 21z"/>
<path d="M620 604 c0 -76 4 -145 9 -153 8 -12 52 -13 273 -8 144 4 265 7 267
7 3 0 0 5 -6 11 -8 8 -10 51 -6 140 l6 129 -84 0 c-46 0 -168 3 -271 7 l-188
6 0 -139z m510 65 l0 -42 -46 7 c-26 3 -96 6 -155 6 l-109 0 0 29 c0 36 7 37
188 39 l122 2 0 -41z m-470 1 c0 -16 -4 -30 -10 -30 -5 0 -10 14 -10 30 0 17
5 30 10 30 6 0 10 -13 10 -30z m40 0 c0 -16 -4 -30 -10 -30 -5 0 -10 14 -10
30 0 17 5 30 10 30 6 0 10 -13 10 -30z m50 0 c0 -20 -5 -30 -15 -30 -10 0 -15
10 -15 30 0 20 5 30 15 30 10 0 15 -10 15 -30z m40 0 c0 -16 -4 -30 -10 -30
-5 0 -10 14 -10 30 0 17 5 30 10 30 6 0 10 -13 10 -30z m340 -85 l0 -35 -155
0 -155 0 0 30 0 29 93 4 c50 1 120 4 155 5 l62 2 0 -35z m-470 -5 c0 -16 -4
-30 -10 -30 -5 0 -10 14 -10 30 0 17 5 30 10 30 6 0 10 -13 10 -30z m40 0 c0
-16 -4 -30 -10 -30 -5 0 -10 14 -10 30 0 17 5 30 10 30 6 0 10 -13 10 -30z
m50 0 c0 -20 -5 -30 -15 -30 -10 0 -15 10 -15 30 0 20 5 30 15 30 10 0 15 -10
15 -30z m40 16 c0 -8 3 -21 6 -30 4 -11 1 -16 -10 -16 -11 0 -16 9 -16 30 0
17 5 30 10 30 6 0 10 -6 10 -14z m340 -80 c0 -8 3 -22 6 -30 6 -15 -10 -16
-157 -14 -160 3 -164 3 -167 25 -3 20 1 22 60 26 173 9 258 7 258 -7z m-470
-21 c0 -14 -4 -25 -10 -25 -5 0 -10 11 -10 25 0 14 5 25 10 25 6 0 10 -11 10
-25z m40 0 c0 -14 -4 -25 -10 -25 -5 0 -10 11 -10 25 0 14 5 25 10 25 6 0 10
-11 10 -25z m50 0 c0 -16 -6 -25 -15 -25 -9 0 -15 9 -15 25 0 16 6 25 15 25 9
0 15 -9 15 -25z m50 0 c0 -16 -6 -25 -15 -25 -9 0 -15 9 -15 25 0 16 6 25 15
25 9 0 15 -9 15 -25z"/>
</g>
</svg>
