<?xml version="1.0" standalone="no"?>
<!DOCTYPE svg PUBLIC "-//W3C//DTD SVG 20010904//EN"
 "http://www.w3.org/TR/2001/REC-SVG-20010904/DTD/svg10.dtd">
<svg version="1.0" xmlns="http://www.w3.org/2000/svg"
 width="160.000000pt" height="115.000000pt" viewBox="0 0 160.000000 115.000000"
 preserveAspectRatio="xMidYMid meet">
<metadata>
Created by potrace 1.16, written by Peter Selinger 2001-2019
</metadata>
<g transform="translate(0.000000,115.000000) scale(0.100000,-0.100000)"
fill="#000000" stroke="none">
<path d="M641 834 c-124 -33 -341 -183 -341 -235 0 -10 3 -19 6 -19 3 0 31 22
62 48 57 49 116 92 125 92 3 0 4 -7 3 -15 -1 -16 394 -348 404 -339 3 3 -11
20 -31 37 -20 18 -85 77 -145 132 -60 55 -134 121 -163 146 l-55 47 40 20 c21
10 50 23 62 27 20 6 23 4 18 -12 -4 -13 9 -30 56 -68 34 -27 125 -103 201
-168 76 -65 141 -117 143 -114 7 6 -223 226 -350 335 -21 18 -37 35 -35 37 2
2 28 8 57 13 43 8 52 7 48 -4 -3 -8 68 -73 188 -171 128 -104 191 -162 185
-169 -16 -20 -153 -82 -215 -98 -117 -30 -127 -27 -229 70 -129 122 -261 234
-269 227 -17 -18 7 -43 164 -169 93 -76 168 -139 166 -142 -8 -7 -110 18 -166
41 -68 28 -153 84 -220 144 -48 43 -50 44 -50 20 0 -58 186 -192 319 -231 73
-21 230 -21 302 0 116 35 224 102 332 208 l48 47 -25 31 c-39 51 -166 147
-241 183 -129 62 -276 81 -394 49z m304 -55 c70 -22 202 -96 282 -158 l56 -44
-44 -38 c-95 -81 -77 -85 -235 59 -77 70 -162 146 -189 170 l-50 43 60 -6 c32
-4 86 -15 120 -26z"/>
</g>
</svg>
