<?xml version="1.0" standalone="no"?>
<!DOCTYPE svg PUBLIC "-//W3C//DTD SVG 20010904//EN"
 "http://www.w3.org/TR/2001/REC-SVG-20010904/DTD/svg10.dtd">
<svg version="1.0" xmlns="http://www.w3.org/2000/svg"
 width="169.000000pt" height="129.000000pt" viewBox="0 0 169.000000 129.000000"
 preserveAspectRatio="xMidYMid meet">
<metadata>
Created by potrace 1.16, written by Peter Selinger 2001-2019
</metadata>
<g transform="translate(0.000000,129.000000) scale(0.100000,-0.100000)"
fill="#000000" stroke="none">
<path d="M485 985 c-5 -2 -41 -13 -80 -24 -90 -28 -95 -39 -102 -201 -5 -113
-3 -134 20 -220 33 -121 71 -216 85 -213 7 2 37 -4 69 -12 78 -20 158 -19 228
4 33 11 63 17 67 15 12 -8 228 62 352 113 60 24 112 41 115 36 3 -5 29 -26 56
-48 28 -21 56 -46 62 -54 7 -8 16 -11 20 -7 4 3 9 60 11 125 4 100 2 119 -11
124 -9 3 -91 11 -184 17 -92 6 -205 13 -250 16 l-83 6 0 76 c0 43 -7 102 -15
132 -8 30 -12 62 -9 71 4 14 -10 20 -83 33 -76 14 -238 21 -268 11z m313 -90
c25 -98 26 -175 2 -332 -12 -83 -20 -160 -18 -170 2 -10 17 36 34 102 l30 120
262 0 263 0 -3 -24 c-2 -20 -14 -28 -63 -44 -158 -51 -453 -160 -483 -177 -18
-11 -30 -15 -26 -9 8 13 -8 11 -129 -17 -87 -20 -145 -14 -230 24 -43 19 -45
21 -65 98 -32 121 -42 223 -31 333 6 53 14 100 19 105 5 4 37 17 72 27 50 14
93 17 208 16 l145 -2 13 -50z m563 -416 l-6 -67 -49 44 c-27 25 -47 46 -45 48
7 4 104 45 104 43 1 -1 -1 -32 -4 -68z"/>
</g>
</svg>
