<?xml version="1.0" standalone="no"?>
<!DOCTYPE svg PUBLIC "-//W3C//DTD SVG 20010904//EN"
 "http://www.w3.org/TR/2001/REC-SVG-20010904/DTD/svg10.dtd">
<svg version="1.0" xmlns="http://www.w3.org/2000/svg"
 width="137.000000pt" height="101.000000pt" viewBox="0 0 137.000000 101.000000"
 preserveAspectRatio="xMidYMid meet">
<metadata>
Created by potrace 1.16, written by Peter Selinger 2001-2019
</metadata>
<g transform="translate(0.000000,101.000000) scale(0.100000,-0.100000)"
fill="#000000" stroke="none">
<path d="M300 690 c0 -19 5 -20 123 -14 67 3 138 8 157 11 l35 6 -30 7 c-16 4
-87 8 -157 9 -122 1 -128 0 -128 -19z"/>
<path d="M760 605 c0 -12 20 -15 118 -15 64 0 135 3 157 7 71 11 9 22 -137 22
-116 1 -138 -1 -138 -14z"/>
<path d="M300 519 c0 -20 2 -21 148 -14 81 4 152 10 157 14 17 10 -73 19 -192
20 -108 1 -113 0 -113 -20z"/>
<path d="M760 410 l0 -23 151 6 c137 5 170 9 158 21 -2 2 -73 7 -156 11 l-153
8 0 -23z"/>
<path d="M300 315 c0 -12 20 -15 118 -15 64 0 135 3 157 7 71 11 9 22 -137 22
-116 1 -138 -1 -138 -14z"/>
</g>
</svg>
