<?xml version="1.0" standalone="no"?>
<!DOCTYPE svg PUBLIC "-//W3C//DTD SVG 20010904//EN"
 "http://www.w3.org/TR/2001/REC-SVG-20010904/DTD/svg10.dtd">
<svg version="1.0" xmlns="http://www.w3.org/2000/svg"
 width="225.000000pt" height="151.000000pt" viewBox="0 0 225.000000 151.000000"
 preserveAspectRatio="xMidYMid meet">
<metadata>
Created by potrace 1.16, written by Peter Selinger 2001-2019
</metadata>
<g transform="translate(0.000000,151.000000) scale(0.100000,-0.100000)"
fill="#000000" stroke="none">
<path d="M671 1201 c-12 -8 -13 -54 -7 -293 8 -308 25 -401 28 -152 1 82 0
209 -1 282 -2 72 0 132 5 132 5 0 37 -12 70 -26 l61 -26 7 -121 c3 -67 7 -162
7 -211 l2 -90 -71 -32 c-52 -24 -70 -37 -66 -47 6 -17 -5 -21 234 88 69 31
148 67 175 79 l50 23 150 -83 c83 -45 158 -89 168 -98 9 -9 19 -16 22 -16 3 0
5 79 5 174 l0 175 136 3 136 3 79 -80 c43 -44 81 -77 84 -73 4 3 -23 41 -60
82 -76 88 -78 69 19 180 75 87 44 80 -43 -9 l-79 -80 -136 3 -136 4 0 99 c0
61 -4 99 -10 99 -22 0 -332 -166 -338 -181 -2 -4 -42 11 -90 33 -147 68 -374
168 -381 168 -3 0 -12 -4 -20 -9z m809 -198 c0 -87 3 -203 7 -257 l6 -100 -34
21 c-19 11 -90 55 -158 97 -78 47 -129 72 -135 67 -13 -11 -286 -121 -299
-121 -5 0 -7 26 -4 58 4 31 6 119 7 194 l0 136 150 -60 149 -60 113 68 c62 37
129 78 148 91 19 12 38 23 42 23 5 0 8 -71 8 -157z"/>
<path d="M547 524 l-87 -56 -55 47 c-52 44 -75 50 -75 21 0 -7 20 -27 45 -45
25 -18 45 -36 45 -40 0 -5 -27 -25 -60 -45 -33 -21 -60 -42 -60 -47 0 -26 35
-17 94 25 l65 45 97 -66 c53 -36 99 -62 103 -57 3 5 42 30 86 56 l80 47 430 5
c237 3 441 9 455 14 35 13 -117 21 -540 28 -268 4 -359 9 -370 19 -29 25 -149
105 -157 105 -4 0 -47 -25 -96 -56z m168 -31 l95 -57 -81 -42 c-45 -24 -85
-47 -88 -52 -5 -9 -150 96 -150 108 0 4 119 97 127 99 1 1 45 -25 97 -56z"/>
</g>
</svg>
