<?xml version="1.0" standalone="no"?>
<!DOCTYPE svg PUBLIC "-//W3C//DTD SVG 20010904//EN"
 "http://www.w3.org/TR/2001/REC-SVG-20010904/DTD/svg10.dtd">
<svg version="1.0" xmlns="http://www.w3.org/2000/svg"
 width="225.000000pt" height="154.000000pt" viewBox="0 0 225.000000 154.000000"
 preserveAspectRatio="xMidYMid meet">
<metadata>
Created by potrace 1.16, written by Peter Selinger 2001-2019
</metadata>
<g transform="translate(0.000000,154.000000) scale(0.100000,-0.100000)"
fill="#000000" stroke="none">
<path d="M714 1225 c-4 -8 -12 -15 -20 -15 -8 0 -14 -6 -14 -14 0 -8 -38 -67
-84 -132 -47 -65 -82 -123 -78 -129 4 -5 5 -17 4 -25 -1 -8 37 -69 84 -135 48
-66 91 -132 96 -146 l9 -27 173 78 c95 43 196 90 224 104 l52 26 165 -91 c91
-50 165 -95 165 -100 0 -5 5 -9 10 -9 6 0 10 65 10 174 l0 174 136 4 136 4 78
-80 c43 -45 81 -78 85 -74 3 3 -18 34 -47 68 -88 103 -87 86 -12 174 37 42 63
80 60 84 -4 4 -42 -29 -85 -73 l-79 -80 -136 3 -136 3 0 99 c0 85 -2 100 -16
100 -15 0 -52 -19 -247 -128 l-97 -54 -183 82 c-100 46 -197 89 -215 97 -28
12 -31 16 -22 33 8 14 8 20 0 20 -6 0 -13 -7 -16 -15z m54 -81 l59 -25 7 -122
c3 -67 7 -162 7 -211 l2 -90 -58 -25 c-57 -25 -58 -25 -72 -5 -23 30 -154 238
-160 251 -3 7 23 57 57 110 35 54 69 108 77 121 7 12 15 22 18 22 2 0 30 -12
63 -26z m718 -491 c-1 -1 -31 16 -66 39 -145 93 -245 147 -255 139 -13 -11
-296 -123 -300 -119 -1 2 0 89 4 194 l6 191 148 -59 148 -59 107 65 c59 36
127 79 152 96 l45 30 7 -258 c3 -141 5 -258 4 -259z"/>
<path d="M547 524 l-87 -56 -56 47 c-49 43 -57 46 -70 33 -14 -14 -10 -19 35
-52 28 -21 51 -41 51 -46 0 -5 -27 -25 -60 -45 -33 -20 -60 -41 -60 -46 0 -26
35 -17 95 25 l65 46 96 -67 c53 -36 99 -62 103 -57 3 5 42 30 86 56 l80 47
425 5 c432 6 573 16 395 30 -49 3 -255 9 -458 12 l-367 5 -83 59 c-45 33 -86
60 -92 60 -5 0 -49 -25 -98 -56z m168 -31 l95 -57 -82 -43 c-46 -23 -84 -47
-86 -53 -3 -9 -144 94 -149 108 -2 6 113 99 125 101 1 1 45 -25 97 -56z"/>
</g>
</svg>
