<?xml version="1.0" standalone="no"?>
<!DOCTYPE svg PUBLIC "-//W3C//DTD SVG 20010904//EN"
 "http://www.w3.org/TR/2001/REC-SVG-20010904/DTD/svg10.dtd">
<svg version="1.0" xmlns="http://www.w3.org/2000/svg"
 width="196.000000pt" height="173.000000pt" viewBox="0 0 196.000000 173.000000"
 preserveAspectRatio="xMidYMid meet">
<metadata>
Created by potrace 1.16, written by Peter Selinger 2001-2019
</metadata>
<g transform="translate(0.000000,173.000000) scale(0.100000,-0.100000)"
fill="#000000" stroke="none">
<path d="M901 1408 c-4 -13 -25 -72 -46 -131 l-38 -108 -66 -36 c-36 -20 -106
-62 -156 -93 -53 -34 -100 -57 -115 -56 -21 1 -26 -4 -28 -29 -6 -49 9 -315
18 -315 4 0 11 59 15 130 4 72 10 130 14 128 4 -2 78 -45 164 -97 l157 -94 0
-49 0 -48 -260 0 -260 0 0 -22 0 -23 265 3 265 4 0 -76 c0 -44 4 -76 10 -76 6
0 10 28 10 63 0 34 5 69 10 77 8 12 10 10 10 -9 l0 -24 197 7 c109 4 202 11
207 16 7 7 -8 10 -40 11 -27 1 -116 5 -199 9 -127 5 -136 7 -57 8 130 3 119
22 -13 22 l-105 0 0 54 0 55 83 57 c45 32 107 77 137 100 l55 42 259 11 c239
10 277 13 265 25 -2 3 -118 8 -257 12 l-252 7 -103 76 c-57 42 -125 91 -150
108 l-47 33 19 47 c10 27 31 77 45 113 26 63 28 90 6 90 -6 0 -14 -10 -19 -22z
m-98 -288 c-3 -11 -1 -20 5 -20 5 0 12 9 15 20 4 17 20 10 145 -68 77 -48 133
-89 125 -90 -10 -3 -14 -13 -11 -31 4 -26 -4 -33 -106 -97 -61 -38 -119 -67
-129 -66 -10 2 -20 -5 -25 -16 -6 -18 -16 -13 -102 49 -52 38 -119 84 -147
101 -29 18 -53 35 -53 38 0 3 40 31 88 62 48 32 110 76 137 97 58 46 65 49 58
21z"/>
<path d="M870 469 c0 -21 1 -21 198 -14 108 4 201 10 205 15 11 10 -123 20
-275 20 -123 0 -128 -1 -128 -21z"/>
<path d="M870 391 c0 -20 4 -21 108 -21 145 0 305 11 295 21 -4 4 -97 11 -205
15 -198 7 -198 7 -198 -15z"/>
<path d="M870 310 c0 -6 71 -9 198 -8 146 1 179 3 127 8 -110 12 -325 11 -325
0z"/>
</g>
</svg>
