<?xml version="1.0" standalone="no"?>
<!DOCTYPE svg PUBLIC "-//W3C//DTD SVG 20010904//EN"
 "http://www.w3.org/TR/2001/REC-SVG-20010904/DTD/svg10.dtd">
<svg version="1.0" xmlns="http://www.w3.org/2000/svg"
 width="196.000000pt" height="161.000000pt" viewBox="0 0 196.000000 161.000000"
 preserveAspectRatio="xMidYMid meet">
<metadata>
Created by potrace 1.16, written by Peter Selinger 2001-2019
</metadata>
<g transform="translate(0.000000,161.000000) scale(0.100000,-0.100000)"
fill="#000000" stroke="none">
<path d="M901 1288 c-4 -13 -25 -72 -46 -131 l-38 -108 -71 -41 c-39 -22 -107
-63 -151 -91 -48 -30 -92 -51 -110 -51 -24 -1 -31 -6 -34 -26 -6 -44 11 -330
19 -325 5 3 11 64 15 135 4 72 9 130 10 130 2 0 56 -33 122 -74 65 -40 137
-83 161 -95 42 -21 42 -22 42 -75 l0 -54 -260 6 -260 5 0 -28 0 -28 259 7
c295 8 271 16 271 -85 0 -38 4 -58 10 -54 5 3 10 27 10 53 0 91 -2 89 118 98
126 8 113 22 -20 23 l-88 1 0 54 0 54 78 53 c42 29 104 74 137 99 l60 47 220
8 c121 4 240 11 265 14 l45 7 -45 7 c-25 3 -142 9 -260 13 l-215 6 -60 47
c-45 36 -176 129 -233 166 -1 1 18 53 43 115 25 63 43 120 41 127 -8 20 -26
15 -35 -9z m-96 -288 c-3 -11 -2 -20 3 -20 5 0 12 9 15 21 5 20 9 19 66 -20
33 -23 98 -64 143 -91 46 -28 75 -50 66 -50 -12 0 -18 -8 -18 -25 0 -14 6 -25
12 -25 7 0 -17 -17 -53 -38 -36 -22 -88 -54 -115 -72 -26 -19 -59 -33 -72 -32
-15 1 -25 -5 -30 -19 -7 -19 -10 -19 -52 14 -25 19 -91 66 -148 105 l-103 71
78 52 c43 29 107 74 142 101 35 26 66 48 68 48 2 0 1 -9 -2 -20z"/>
</g>
</svg>
