<?xml version="1.0" standalone="no"?>
<!DOCTYPE svg PUBLIC "-//W3C//DTD SVG 20010904//EN"
 "http://www.w3.org/TR/2001/REC-SVG-20010904/DTD/svg10.dtd">
<svg version="1.0" xmlns="http://www.w3.org/2000/svg"
 width="180.000000pt" height="161.000000pt" viewBox="0 0 180.000000 161.000000"
 preserveAspectRatio="xMidYMid meet">
<metadata>
Created by potrace 1.16, written by Peter Selinger 2001-2019
</metadata>
<g transform="translate(0.000000,161.000000) scale(0.100000,-0.100000)"
fill="#000000" stroke="none">
<path d="M745 1299 c-4 -5 -26 -64 -49 -129 l-42 -119 -158 -95 c-107 -65
-165 -94 -178 -91 -17 6 -18 -3 -17 -177 1 -107 4 -173 9 -158 4 14 9 70 9
125 1 55 5 105 9 112 5 8 40 -9 112 -53 58 -36 131 -79 163 -96 l57 -31 1
-101 c1 -119 12 -206 22 -166 3 14 8 79 11 145 5 110 8 121 28 137 13 9 75 55
139 101 l117 84 223 8 c123 4 242 10 264 14 l40 8 -45 6 c-25 4 -142 9 -260
13 l-214 6 -56 42 c-30 23 -95 71 -145 106 -49 34 -92 64 -94 66 -2 2 17 55
43 119 26 64 44 120 41 126 -8 12 -22 12 -30 -2z m-102 -301 c-4 -22 -4 -22
11 -4 8 10 19 16 23 15 5 -2 66 -40 136 -83 75 -47 122 -83 116 -87 -7 -4 -10
-18 -7 -31 4 -22 -8 -32 -106 -94 -69 -43 -119 -68 -133 -66 -17 2 -23 -2 -23
-18 0 -11 -3 -20 -6 -20 -3 0 -31 20 -62 43 -31 24 -96 70 -144 102 -49 32
-88 61 -88 64 0 3 40 32 88 63 48 32 110 76 137 97 59 47 65 49 58 19z"/>
</g>
</svg>
