<?xml version="1.0" standalone="no"?>
<!DOCTYPE svg PUBLIC "-//W3C//DTD SVG 20010904//EN"
 "http://www.w3.org/TR/2001/REC-SVG-20010904/DTD/svg10.dtd">
<svg version="1.0" xmlns="http://www.w3.org/2000/svg"
 width="304.000000pt" height="198.000000pt" viewBox="0 0 304.000000 198.000000"
 preserveAspectRatio="xMidYMid meet">
<metadata>
Created by potrace 1.16, written by Peter Selinger 2001-2019
</metadata>
<g transform="translate(0.000000,198.000000) scale(0.100000,-0.100000)"
fill="#000000" stroke="none">
<path d="M512 1560 c2 -78 -1 -119 -7 -116 -5 2 -50 21 -99 41 -72 31 -90 35
-97 24 -5 -8 -9 -17 -9 -21 0 -4 46 -21 103 -38 56 -18 107 -38 113 -46 8 -10
13 -11 16 -4 2 8 11 8 31 1 50 -19 64 -10 18 11 l-44 20 6 124 c6 120 6 124
-14 124 -19 0 -20 -5 -17 -120z"/>
<path d="M730 1442 c0 -95 11 -222 20 -222 4 0 10 55 14 123 3 67 7 131 9 142
1 14 -5 21 -20 23 -22 3 -23 0 -23 -66z"/>
<path d="M1410 1251 l0 -161 -259 0 c-254 0 -259 0 -264 -21 -6 -21 -6 -21
259 -17 171 2 264 -1 265 -7 2 -35 0 -127 -2 -129 -4 -3 -475 -36 -510 -36
-16 0 -33 -36 -21 -44 4 -2 111 5 237 15 127 10 247 18 268 18 l37 1 0 -197
c0 -108 3 -193 7 -189 4 4 10 94 13 199 l5 192 90 7 c50 3 116 9 148 12 l57 6
1 -168 c1 -213 13 -260 22 -87 4 72 7 158 7 191 l0 62 73 7 c133 13 837 144
882 165 36 16 0 11 -286 -40 -328 -58 -548 -90 -619 -90 l-50 0 0 65 c0 36 1
65 3 65 1 1 217 11 480 24 263 13 480 26 484 30 9 9 -46 8 -522 -9 -231 -8
-425 -15 -432 -15 -9 0 -10 37 -6 145 4 100 3 145 -5 145 -6 0 -18 3 -28 7
-16 6 -16 -5 -9 -145 l7 -152 -55 0 c-29 0 -96 -3 -147 -7 l-92 -6 3 159 c4
159 4 159 -18 162 l-23 3 0 -160z m330 -249 l0 -69 -107 -6 c-58 -4 -123 -7
-145 -7 l-38 0 0 70 0 69 93 4 c50 1 116 4 145 5 l52 2 0 -68z"/>
<path d="M445 1242 c-3 -3 -5 -13 -5 -22 0 -13 35 -28 156 -64 85 -26 158 -45
161 -42 3 3 -3 9 -13 13 -10 4 -81 32 -156 64 -75 31 -140 54 -143 51z"/>
<path d="M638 693 c-116 -3 -128 -5 -128 -22 0 -10 2 -20 5 -22 5 -5 105 4
192 17 l46 7 -6 -84 c-3 -46 -9 -105 -13 -131 -6 -44 -5 -48 14 -48 18 0 21 8
27 84 4 46 4 107 0 135 -6 45 -5 51 12 51 15 0 16 2 3 10 -8 5 -17 9 -20 8 -3
-1 -62 -4 -132 -5z"/>
<path d="M550 545 c0 -26 -4 -35 -17 -36 -10 -1 -22 -2 -28 -4 -5 -1 -49 -3
-97 -3 -83 -2 -88 -3 -88 -23 0 -23 -12 -23 176 -2 l51 5 -8 -68 c-5 -38 -11
-79 -14 -91 -4 -19 -1 -23 20 -23 25 0 25 0 25 94 0 88 1 94 23 101 l22 8 -22
4 c-19 4 -23 11 -23 39 0 19 -4 34 -10 34 -5 0 -10 -16 -10 -35z"/>
</g>
</svg>
