<?xml version="1.0" standalone="no"?>
<!DOCTYPE svg PUBLIC "-//W3C//DTD SVG 20010904//EN"
 "http://www.w3.org/TR/2001/REC-SVG-20010904/DTD/svg10.dtd">
<svg version="1.0" xmlns="http://www.w3.org/2000/svg"
 width="240.000000pt" height="230.000000pt" viewBox="0 0 240.000000 230.000000"
 preserveAspectRatio="xMidYMid meet">
<metadata>
Created by potrace 1.16, written by Peter Selinger 2001-2019
</metadata>
<g transform="translate(0.000000,230.000000) scale(0.100000,-0.100000)"
fill="#000000" stroke="none">
<path d="M2006 1977 c-109 -62 -107 -168 4 -224 24 -13 55 -23 67 -23 23 0 23
1 23 135 l0 135 -27 0 c-16 0 -46 -10 -67 -23z m38 -32 c-7 -19 -14 -55 -14
-80 0 -25 7 -61 14 -80 16 -38 10 -43 -32 -21 -40 21 -62 49 -69 90 -7 43 13
78 60 106 49 30 59 26 41 -15z"/>
<path d="M930 1846 l0 -78 -280 8 -280 7 0 -28 0 -28 248 7 c136 4 261 9 279
12 31 6 32 5 39 -41 3 -26 4 -76 0 -113 l-7 -65 393 7 c216 3 409 10 428 14
35 8 35 8 -20 15 -30 4 -215 10 -410 14 l-355 6 3 142 3 142 302 6 c370 9 511
17 499 29 -6 6 -190 12 -426 15 l-416 6 0 -77z"/>
<path d="M1804 1821 c-22 -10 -50 -31 -62 -46 -29 -37 -30 -103 -1 -139 27
-34 89 -66 129 -66 l30 0 0 135 0 135 -27 0 c-16 0 -46 -9 -69 -19z m30 -38
c-7 -21 -13 -56 -13 -78 0 -22 6 -57 13 -77 15 -41 9 -45 -32 -24 -40 21 -62
49 -68 87 -6 43 12 77 55 106 51 34 61 31 45 -14z"/>
<path d="M2015 1666 c-36 -16 -70 -52 -84 -87 -25 -68 38 -147 132 -164 l37
-7 0 136 0 136 -27 0 c-16 -1 -41 -7 -58 -14z m30 -39 c-19 -46 -19 -117 -1
-162 8 -19 13 -35 10 -35 -3 0 -23 9 -44 20 -71 36 -89 106 -43 161 23 27 82
63 91 55 1 -2 -5 -19 -13 -39z"/>
<path d="M2037 880 c-48 -15 -95 -58 -106 -97 -21 -74 55 -163 138 -163 l31 0
0 135 c0 148 2 144 -63 125z m7 -47 c-18 -51 -17 -116 1 -160 8 -19 15 -37 15
-39 0 -13 -65 25 -90 52 -49 56 -33 126 38 163 50 27 52 26 36 -16z"/>
<path d="M860 734 l0 -80 -280 4 -280 4 0 -22 0 -23 279 6 278 6 6 -65 c4 -36
4 -86 0 -111 l-6 -46 319 8 c175 4 366 10 424 14 l105 6 3 74 3 74 20 -40 c22
-45 75 -79 129 -85 l35 -3 3 139 3 138 -38 -7 c-57 -10 -113 -46 -134 -85
l-18 -35 2 95 2 95 -60 1 c-33 0 -225 4 -427 9 l-368 8 0 -79z m826 -280 c0
-1 -151 1 -334 4 l-333 5 3 146 3 146 280 7 c154 4 298 9 320 10 l40 3 11
-160 c6 -88 11 -161 10 -161z m-702 184 c4 -68 9 -135 12 -149 5 -26 5 -26
-48 -21 -29 2 -53 5 -54 6 -1 0 1 65 4 144 l5 142 37 0 38 0 6 -122z m851 29
c-19 -46 -19 -108 0 -154 8 -19 15 -37 15 -39 0 -13 -65 25 -90 52 -34 39 -38
73 -13 115 15 25 91 75 100 65 2 -1 -4 -19 -12 -39z"/>
<path d="M2020 554 c-99 -43 -124 -131 -57 -202 26 -28 79 -52 113 -52 l24 0
0 135 c0 133 0 135 -22 135 -13 -1 -39 -8 -58 -16z m24 -39 c-7 -19 -14 -55
-14 -80 0 -25 7 -61 14 -80 17 -39 10 -43 -34 -20 -93 48 -91 159 4 201 45 19
47 18 30 -21z"/>
</g>
</svg>
