<?xml version="1.0" standalone="no"?>
<!DOCTYPE svg PUBLIC "-//W3C//DTD SVG 20010904//EN"
 "http://www.w3.org/TR/2001/REC-SVG-20010904/DTD/svg10.dtd">
<svg version="1.0" xmlns="http://www.w3.org/2000/svg"
 width="259.000000pt" height="227.000000pt" viewBox="0 0 259.000000 227.000000"
 preserveAspectRatio="xMidYMid meet">
<metadata>
Created by potrace 1.16, written by Peter Selinger 2001-2019
</metadata>
<g transform="translate(0.000000,227.000000) scale(0.100000,-0.100000)"
fill="#000000" stroke="none">
<path d="M1055 1800 c-150 -151 -174 -170 -202 -170 -18 0 -33 3 -33 7 0 4 71
80 157 168 l158 160 -165 -163 c-160 -157 -178 -170 -226 -163 -6 0 54 65 132
144 79 78 144 146 144 152 0 5 -69 -59 -153 -143 -138 -138 -156 -152 -187
-152 l-35 0 130 130 c71 72 125 130 120 130 -6 0 -66 -57 -135 -126 -69 -69
-135 -130 -147 -135 -13 -4 -23 -16 -23 -25 0 -15 -2 -15 -20 1 -21 19 -20 19
72 114 51 52 18 23 -74 -65 -93 -87 -168 -163 -168 -169 0 -5 28 18 62 51 l63
61 37 -42 37 -41 -149 -149 c-82 -82 -147 -151 -145 -154 3 -2 71 62 151 142
81 81 150 147 154 147 4 0 13 -7 21 -16 11 -13 -11 -39 -162 -192 l-174 -177
177 174 c176 174 177 175 198 156 l21 -19 -198 -200 -198 -201 201 198 200
198 19 -21 c19 -21 18 -22 -191 -233 l-209 -212 212 209 c211 209 212 210 233
191 l21 -19 -223 -225 -223 -226 226 223 c218 215 226 222 242 204 17 -18 9
-27 -208 -247 -124 -125 -225 -230 -225 -234 0 -3 105 99 233 227 222 222 234
232 250 215 16 -18 10 -26 -119 -153 -93 -94 -140 -134 -154 -132 -19 3 -48
-34 -35 -46 3 -3 -32 -43 -77 -89 -45 -46 -78 -83 -73 -83 5 0 47 37 92 82
l82 81 48 -18 c26 -10 52 -21 56 -25 11 -10 -79 -90 -102 -90 -24 0 -36 -16
-20 -26 7 -4 -9 -27 -43 -63 -48 -51 -49 -52 -6 -12 32 30 66 50 104 62 l57
18 -84 -87 -84 -87 95 91 c73 70 107 95 144 108 27 9 52 16 55 16 3 0 -50 -57
-119 -127 l-125 -128 136 134 c127 124 139 133 163 125 26 -9 24 -12 -114
-149 -77 -77 -140 -144 -140 -150 0 -5 66 56 148 137 136 135 149 145 170 135
22 -10 17 -17 -125 -159 -81 -81 -143 -148 -138 -148 6 0 75 65 154 144 135
135 146 144 168 133 23 -10 19 -15 -129 -166 -101 -103 -117 -122 -48 -56 236
225 215 208 240 195 22 -12 17 -18 -131 -169 l-154 -156 155 152 c85 84 159
153 163 153 4 0 7 -15 7 -32 0 -28 -18 -51 -132 -168 l-133 -135 133 130 132
130 0 -40 c0 -37 -7 -47 -102 -145 l-103 -105 103 100 102 100 0 -39 c0 -32
-7 -46 -42 -81 -73 -73 -96 -103 -32 -42 47 45 62 55 72 45 9 -9 12 -7 12 13
0 17 23 47 78 102 69 69 82 77 105 72 15 -4 27 -9 27 -10 0 -2 -50 -54 -112
-117 -61 -62 -125 -129 -142 -148 -16 -19 38 31 120 112 l149 147 48 -25 c26
-13 47 -28 47 -32 0 -3 -57 -65 -127 -137 -71 -71 -125 -127 -121 -125 4 3
124 121 266 263 250 249 260 258 302 262 l45 5 -265 -268 -265 -267 270 268
c263 260 271 267 310 267 l40 0 -265 -268 -265 -267 270 268 c263 260 271 267
310 267 l40 0 -265 -268 -265 -267 270 268 c264 261 271 267 310 267 l40 -1
-257 -252 c-142 -139 -258 -257 -258 -262 0 -5 118 108 263 252 235 235 266
262 302 268 39 7 33 0 -210 -244 -137 -138 -245 -251 -240 -251 6 0 123 113
260 250 137 138 256 250 264 250 8 0 11 3 7 7 -3 4 19 34 51 67 32 33 49 53
38 45 -10 -8 -40 -35 -66 -61 -40 -41 -53 -48 -85 -48 l-39 0 115 117 c63 64
108 111 98 104 -9 -6 -60 -57 -114 -111 -101 -104 -120 -116 -155 -105 -19 6
-3 26 132 164 l154 156 -160 -157 c-140 -137 -165 -157 -197 -160 -21 -2 -38
-2 -38 1 0 3 87 94 192 201 l193 195 -200 -198 c-193 -190 -202 -197 -240
-197 l-40 0 230 233 230 232 -236 -233 c-232 -230 -236 -233 -274 -230 l-38 3
262 257 c143 141 261 261 261 265 0 4 -120 -112 -267 -259 l-268 -267 -78 -3
c-42 -2 -77 -1 -77 2 0 3 145 150 322 327 178 178 318 323 313 323 -6 0 -156
-146 -335 -325 -303 -303 -327 -325 -360 -325 -34 0 -25 10 315 352 193 194
347 350 343 348 -4 -3 -166 -163 -360 -356 -344 -343 -354 -352 -387 -347
l-33 6 373 376 374 376 -382 -379 c-379 -377 -382 -380 -409 -367 l-28 12 390
392 389 392 -391 -389 c-390 -387 -391 -388 -418 -374 l-26 14 217 216 c120
120 297 297 393 395 96 98 -3 1 -221 -216 -374 -371 -398 -392 -419 -381 -22
12 -21 14 51 87 41 41 108 108 149 148 217 211 266 262 257 272 -4 3 0 18 9
34 23 45 2 34 -25 -13 -46 -81 -155 -180 -276 -253 -16 -10 103 115 265 278
162 164 293 297 290 297 -3 0 -110 -103 -238 -229 -222 -219 -235 -229 -258
-219 -25 11 -19 18 208 247 l233 236 -240 -237 c-233 -231 -241 -238 -280
-238 l-40 0 255 258 255 257 -260 -257 c-252 -250 -261 -258 -300 -258 l-39 0
59 60 c38 38 68 60 82 60 13 0 23 5 23 10 0 6 -6 10 -12 10 -7 0 77 91 187
202 180 183 183 186 29 34 -103 -101 -174 -164 -178 -157 -4 6 -17 11 -29 11
-17 0 0 21 78 100 79 79 104 99 120 94 16 -5 18 -4 7 7 -10 11 -2 24 45 74
l58 60 -61 -58 c-56 -54 -64 -58 -84 -47 -22 12 -22 12 24 59 25 26 46 51 46
56 0 5 -24 -14 -52 -42 -49 -48 -55 -51 -73 -37 -18 14 -17 16 25 59 24 25 40
45 34 45 -5 0 -28 -18 -49 -40 -41 -42 -50 -46 -75 -30 -12 8 -9 15 20 45 42
43 28 47 -16 4 -28 -27 -35 -29 -54 -19 l-22 12 24 26 23 27 -26 -22 c-14 -13
-33 -23 -42 -23 -10 0 -17 -8 -17 -19 0 -10 -6 -24 -14 -30 -12 -10 -14 -5
-12 28 1 21 8 47 16 58 7 10 -65 -60 -161 -154 -167 -166 -176 -173 -214 -173
l-40 0 170 170 c93 94 168 170 165 170 -3 0 -82 -76 -175 -170z m189 43 c-12
-33 -42 -73 -98 -130 -75 -77 -84 -83 -121 -83 l-40 0 135 135 c74 74 136 132
138 130 2 -2 -4 -25 -14 -52z m134 21 c-52 -55 -158 -162 -158 -159 0 20 57
126 82 152 26 27 33 30 54 21 13 -6 23 -12 22 -14z m-45 -136 c-99 -99 -111
-108 -133 -100 -24 9 -21 13 84 120 101 103 110 110 133 99 24 -11 22 -13 -84
-119z m125 -55 c-96 -96 -105 -103 -143 -103 l-40 0 115 118 115 117 -120
-117 c-107 -105 -124 -118 -155 -118 l-35 0 129 129 129 129 54 -26 53 -26
-102 -103z m-259 47 c-31 -81 -39 -90 -84 -90 l-39 0 69 70 c38 39 70 70 71
70 1 0 -7 -23 -17 -50z m-79 -119 c0 -2 -8 -10 -17 -17 -21 -16 -73 -18 -73
-4 0 7 -7 7 -17 2 -10 -5 -31 -5 -48 -2 -27 6 -37 0 -118 -79 l-87 -86 -42 43
-42 42 49 50 c43 44 54 50 89 50 l40 0 -69 -72 -70 -73 75 72 75 72 103 -1
c57 0 105 1 107 4 5 5 45 5 45 -1z m75 -11 c-12 -13 -31 -20 -53 -20 -34 0
-35 0 -17 20 12 13 31 20 53 20 34 0 35 0 17 -20z m-542 -12 c-18 -18 -24 -19
-37 -8 -25 20 -19 30 21 30 l37 0 -21 -22z m64 -25 c-44 -45 -48 -47 -64 -30
-16 16 -15 18 12 47 21 22 38 30 64 30 l36 0 -48 -47z m236 -13 c20 0 20 0 -3
-25 -13 -14 -30 -25 -37 -25 -8 0 -16 -8 -20 -17 -3 -10 -24 -38 -47 -63 l-41
-45 45 41 c29 27 59 44 83 48 20 4 37 5 37 2 0 -2 -28 -31 -62 -65 l-63 -60
-40 39 -40 40 70 70 c40 40 75 68 83 65 8 -3 23 -5 35 -5z m347 -25 c-25 -26
-42 -35 -67 -35 -18 0 -33 4 -33 8 0 15 45 50 70 55 63 11 66 9 30 -28z m90 0
c-28 -29 -41 -35 -74 -35 l-40 0 34 35 c28 29 41 35 74 35 l40 0 -34 -35z
m-290 -1 c0 -21 -5 -24 -37 -24 -35 0 -36 0 -18 20 10 11 13 20 7 20 -7 0 -17
-9 -24 -20 -9 -14 -24 -20 -52 -20 l-39 0 23 25 c20 22 32 25 82 24 54 -2 58
-3 58 -25z m105 -4 c-30 -32 -41 -35 -64 -21 -12 8 -12 12 -2 24 9 12 9 16 -1
19 -7 3 12 6 42 7 l54 2 -29 -31z m-105 -80 c0 -16 -12 -38 -31 -56 -25 -24
-39 -29 -77 -29 -35 0 -47 -4 -47 -15 0 -8 12 -17 28 -20 l28 -5 -29 -28 -30
-28 -38 32 c-22 18 -41 35 -43 36 -3 2 26 35 64 73 l70 70 52 -2 c50 -2 53 -4
53 -28z m140 27 c0 -1 -27 -29 -61 -62 l-61 -60 7 45 c4 25 12 51 19 59 8 11
8 13 -1 7 -7 -4 -13 -3 -13 1 0 5 25 10 55 11 30 1 55 1 55 -1z m35 -57 c-53
-53 -64 -60 -99 -60 l-40 0 59 60 c53 53 64 60 99 60 l40 0 -59 -60z m-175
-35 c0 -18 -5 -25 -20 -25 -24 0 -25 8 -3 32 21 23 23 23 23 -7z m260 -54 c0
-4 -40 -46 -88 -94 -85 -85 -89 -87 -117 -77 l-29 11 79 79 c73 73 89 83 143
86 6 0 12 -2 12 -5z m20 -67 c-69 -69 -160 -130 -175 -116 -3 3 36 48 87 99
82 82 97 93 128 93 l34 0 -74 -76z m-330 21 c-47 -48 -61 -53 -79 -31 -9 10
-5 20 16 45 22 25 35 31 67 31 l40 0 -44 -45z m71 -19 c-57 -57 -67 -64 -85
-54 -12 6 -23 12 -25 15 -6 5 71 83 81 83 4 0 8 -8 9 -17 1 -18 2 -16 14 25 3
6 19 12 37 12 l32 0 -63 -64z m79 -11 c-74 -74 -91 -84 -120 -65 -12 8 -3 22
50 75 58 58 68 65 104 65 l40 0 -74 -75z m-297 7 c15 -17 9 -26 -116 -149
-124 -124 -133 -131 -155 -119 -22 12 -19 16 110 148 73 75 136 137 139 137 3
1 13 -7 22 -17z m53 -36 c18 -14 12 -22 -106 -141 -109 -110 -128 -125 -150
-120 -14 4 -27 9 -30 11 -5 5 250 263 261 264 3 0 14 -7 25 -14z m60 -31 c18
-13 12 -21 -108 -141 -124 -125 -127 -127 -154 -115 l-28 12 130 130 c71 71
131 129 134 129 4 0 15 -7 26 -15z m273 -111 c-108 -108 -118 -115 -139 -104
-22 12 -21 13 46 81 38 38 73 69 79 69 5 0 35 15 65 34 30 19 57 35 60 35 3 1
-47 -51 -111 -115z m-214 84 l26 -12 -123 -123 c-67 -68 -130 -123 -140 -123
-57 0 -51 12 78 141 71 71 130 129 131 129 1 0 14 -5 28 -12z m73 -24 c20 -6
13 -15 -70 -96 -51 -49 -106 -95 -123 -103 -83 -35 -79 -26 35 89 63 64 119
116 125 116 5 0 20 -3 33 -6z m82 -22 c0 -4 -28 -35 -62 -69 -54 -53 -121 -93
-157 -93 -3 0 32 38 79 85 66 66 91 85 112 85 16 0 28 -4 28 -8z m-214 -221
l-59 -60 -41 21 c-36 19 -39 22 -21 29 32 12 38 10 24 -8 -7 -10 -1 -7 14 7
22 19 111 64 137 69 2 1 -22 -26 -54 -58z m114 49 c12 -8 3 -21 -49 -74 -58
-59 -66 -63 -88 -53 -24 11 -23 11 39 74 64 65 72 69 98 53z m57 -23 c22 -12
21 -14 -45 -79 -62 -62 -69 -66 -90 -54 -22 12 -21 13 40 78 35 36 65 66 68
66 3 1 15 -4 27 -11z m-432 -38 c6 -7 6 -10 0 -8 -5 1 -17 0 -25 -4 -33 -12
-84 -27 -93 -27 -6 0 2 14 19 31 24 25 34 29 59 25 16 -4 34 -11 40 -17z m506
1 c13 -10 21 -20 17 -21 -5 -1 -11 -2 -15 -3 -5 -1 -43 -20 -85 -44 -42 -23
-81 -42 -85 -42 -4 0 22 29 57 65 35 36 70 65 76 65 7 0 22 -9 35 -20z m-14
-117 l-54 -55 -32 16 c-17 9 -29 21 -26 27 4 5 10 7 14 4 5 -2 17 5 27 16 27
30 84 57 107 51 16 -4 11 -13 -36 -59z m143 60 c0 -5 -32 -39 -70 -77 -67 -68
-70 -69 -95 -56 l-26 14 63 63 c51 52 68 63 95 63 18 0 33 -3 33 -7z m90 4 c0
-1 -39 -42 -87 -91 -81 -82 -88 -87 -111 -76 -25 11 -25 11 54 91 66 67 84 79
111 79 18 0 33 -1 33 -3z m63 -119 c-117 -117 -123 -121 -148 -110 l-26 12
106 105 c59 58 103 105 98 105 -4 0 -53 -45 -109 -101 -94 -94 -103 -100 -124
-89 -22 12 -20 15 71 106 l94 94 80 0 80 0 -122 -122z m-378 -17 c2 -4 -12
-23 -31 -42 l-35 -34 2 51 2 52 29 -10 c15 -6 30 -13 33 -17z m48 -23 c15 -12
9 -21 -53 -83 l-70 -70 0 38 c0 30 8 46 41 82 44 48 55 52 82 33z"/>
<path d="M1005 1400 c-21 -22 -34 -40 -29 -40 6 0 25 18 43 40 17 22 30 40 29
40 -2 0 -22 -18 -43 -40z"/>
<path d="M910 1305 c-7 -9 -8 -15 -2 -15 5 0 12 7 16 15 3 8 4 15 2 15 -2 0
-9 -7 -16 -15z"/>
<path d="M1815 1590 c-82 -82 -145 -150 -139 -150 6 0 77 68 158 150 80 83
143 150 139 150 -5 0 -76 -67 -158 -150z"/>
<path d="M435 1450 c-60 -60 -107 -112 -104 -114 3 -3 56 46 119 109 63 63
110 115 105 115 -6 0 -60 -49 -120 -110z"/>
<path d="M1965 1210 c-132 -132 -235 -240 -230 -240 6 0 118 108 250 240 132
132 235 240 230 240 -6 0 -118 -108 -250 -240z"/>
<path d="M1675 920 c-21 -22 -37 -41 -34 -43 2 -2 23 16 47 40 23 24 39 43 34
43 -4 0 -25 -18 -47 -40z"/>
<path d="M515 818 l-100 -103 103 100 c56 55 102 101 102 102 0 8 -12 -4 -105
-99z"/>
<path d="M2000 625 c-124 -124 -220 -225 -215 -225 13 0 451 438 444 444 -3 3
-106 -96 -229 -219z"/>
<path d="M1200 445 c-74 -74 -130 -135 -125 -135 6 0 70 61 144 135 73 74 129
135 124 135 -5 0 -69 -61 -143 -135z"/>
</g>
</svg>
