<?xml version="1.0" standalone="no"?>
<!DOCTYPE svg PUBLIC "-//W3C//DTD SVG 20010904//EN"
 "http://www.w3.org/TR/2001/REC-SVG-20010904/DTD/svg10.dtd">
<svg version="1.0" xmlns="http://www.w3.org/2000/svg"
 width="173.000000pt" height="131.000000pt" viewBox="0 0 173.000000 131.000000"
 preserveAspectRatio="xMidYMid meet">
<metadata>
Created by potrace 1.16, written by Peter Selinger 2001-2019
</metadata>
<g transform="translate(0.000000,131.000000) scale(0.100000,-0.100000)"
fill="#000000" stroke="none">
<path d="M825 993 c-63 -33 -179 -162 -168 -188 4 -13 -21 -15 -176 -15 -174
0 -181 -1 -181 -20 0 -19 7 -20 244 -20 l244 0 6 -31 c3 -17 6 -47 6 -65 l0
-34 -250 0 c-216 0 -250 -2 -250 -15 0 -13 34 -15 250 -15 l250 0 0 -55 0 -55
-250 0 c-243 0 -250 -1 -250 -20 0 -19 7 -20 250 -20 231 0 250 -1 250 -17 0
-10 3 -35 7 -57 l6 -38 -257 3 c-238 4 -256 3 -256 -13 0 -17 32 -18 548 -17
534 0 708 9 472 22 -63 4 -170 7 -237 7 l-123 0 0 60 0 60 229 0 c140 0 232 4
236 10 4 6 -78 11 -227 12 l-233 3 -3 58 -3 57 93 0 c51 0 158 3 238 7 195 10
123 21 -137 22 l-193 1 0 65 c0 36 3 65 8 65 139 2 458 14 461 16 12 10 -17
13 -164 15 -213 2 -217 3 -240 46 -23 42 -77 91 -110 99 -44 11 -79 -6 -144
-72 -57 -56 -91 -78 -91 -57 0 18 91 120 129 145 53 33 88 35 139 9 36 -19
110 -90 144 -141 12 -18 17 -20 17 -9 1 21 -68 126 -105 161 -53 49 -122 61
-179 31z m93 -108 c39 -17 78 -49 93 -77 9 -17 0 -18 -126 -18 l-137 0 31 39
c17 21 45 46 63 54 40 20 32 20 76 2z m6 -157 c3 -13 6 -42 6 -65 l0 -43 -50
0 -50 0 0 65 0 65 44 0 c37 0 45 -4 50 -22z m6 -195 l0 -58 -50 3 -50 4 0 54
0 54 50 0 50 0 0 -57z m-5 -95 c2 -2 6 -27 10 -55 l7 -53 -56 0 -56 0 0 53 c0
30 2 56 4 58 5 5 86 2 91 -3z"/>
</g>
</svg>
