<?xml version="1.0" standalone="no"?>
<!DOCTYPE svg PUBLIC "-//W3C//DTD SVG 20010904//EN"
 "http://www.w3.org/TR/2001/REC-SVG-20010904/DTD/svg10.dtd">
<svg version="1.0" xmlns="http://www.w3.org/2000/svg"
 width="197.000000pt" height="792.000000pt" viewBox="0 0 197.000000 792.000000"
 preserveAspectRatio="xMidYMid meet">
<metadata>
Created by potrace 1.16, written by Peter Selinger 2001-2019
</metadata>
<g transform="translate(0.000000,792.000000) scale(0.100000,-0.100000)"
fill="#000000" stroke="none">
<path d="M340 7600 c0 -19 7 -20 246 -20 192 0 245 -3 242 -12 -2 -7 -10 -35
-17 -62 l-14 -48 -228 7 -229 7 0 -26 0 -26 230 0 230 0 0 -70 0 -70 -230 0
c-223 0 -230 -1 -230 -20 0 -19 7 -20 238 -20 l237 0 14 -31 c17 -38 94 -89
134 -89 45 0 94 28 137 79 l40 46 262 3 c245 4 278 5 267 16 -2 2 -127 8 -278
12 l-273 7 6 36 c3 20 6 53 6 74 l0 37 213 1 c116 1 239 4 272 8 58 6 57 7
-49 14 -60 4 -184 7 -276 7 l-167 0 -10 43 c-6 23 -13 49 -17 58 -6 14 9 17
121 22 70 4 199 7 285 7 86 0 159 4 162 8 7 12 -422 22 -916 22 -401 0 -408 0
-408 -20z m725 -53 c7 -18 17 -45 20 -60 l7 -27 -131 0 c-72 0 -131 2 -131 5
0 2 9 29 21 60 l20 55 90 0 90 0 14 -33z m30 -129 c2 -7 6 -41 8 -75 l5 -63
-144 0 -145 0 3 68 3 67 115 6 c63 3 123 6 133 7 10 1 19 -4 22 -10z m-14
-202 c-13 -13 -42 -34 -65 -47 -54 -28 -84 -21 -139 31 l-42 39 134 1 134 0
-22 -24z"/>
<path d="M792 6620 l-27 -60 -232 0 -233 0 0 -26 0 -26 226 7 c219 7 226 7
221 -11 -4 -11 -9 -32 -13 -48 l-7 -28 -213 4 -214 3 0 -22 0 -23 210 0 210 0
0 -35 0 -35 -210 0 -210 0 0 -25 0 -25 210 7 210 6 0 -31 c0 -17 3 -37 6 -46
5 -14 -17 -16 -210 -16 l-216 0 0 -26 0 -25 218 7 219 7 6 -30 c3 -17 9 -42
13 -57 l6 -26 -231 0 c-224 0 -231 -1 -231 -20 0 -19 7 -20 239 -20 l239 0 28
-82 c31 -96 72 -193 79 -187 2 3 -14 61 -36 129 -21 69 -39 128 -39 133 0 4
47 7 105 7 l105 0 -6 -27 c-4 -16 -22 -75 -40 -133 -18 -57 -31 -106 -29 -109
6 -5 37 69 76 177 16 48 34 89 40 93 5 3 132 7 282 8 151 1 276 6 282 12 5 5
-12 9 -45 9 -101 0 -505 13 -509 16 -2 1 3 25 9 52 l13 49 186 6 c102 4 221 7
264 7 44 0 77 4 77 10 0 6 -78 10 -214 10 -117 0 -234 3 -258 6 l-46 6 5 42
c3 22 6 42 7 42 3 3 320 14 409 14 58 0 97 4 97 10 0 6 -76 10 -209 10 -114 0
-229 3 -255 6 -46 7 -46 7 -46 45 l0 39 238 1 c130 1 248 4 262 8 27 8 -224
21 -401 21 l-107 0 -6 28 c-4 15 -9 34 -12 43 -4 15 23 17 266 24 148 4 270
11 270 16 0 5 -95 9 -212 9 -117 0 -243 3 -279 6 l-65 7 -26 58 c-20 45 -31
59 -47 59 -26 0 -26 3 4 -62 l25 -53 -101 -3 c-56 -1 -104 -1 -106 2 -2 2 7
27 21 55 31 61 31 61 5 61 -16 0 -27 -14 -47 -60z m252 -127 c4 -16 9 -36 12
-45 5 -17 -6 -18 -141 -18 -135 0 -146 1 -141 18 3 9 8 29 12 45 l6 27 123 0
123 0 6 -27z m26 -138 l0 -35 -155 0 -155 0 0 35 0 35 155 0 155 0 0 -35z m-2
-117 l-3 -43 -152 -3 -153 -3 0 46 0 45 156 0 155 0 -3 -42z m-22 -140 l-11
-53 -120 0 -120 0 -11 53 -12 52 143 0 143 0 -12 -52z"/>
<path d="M792 5060 l-27 -60 -105 -1 c-58 0 -162 0 -232 1 l-128 1 0 -25 0
-26 226 0 c203 0 226 -2 220 -16 -3 -9 -9 -27 -12 -40 l-6 -24 -214 0 c-207 0
-214 -1 -214 -20 0 -19 7 -20 210 -20 l210 0 0 -35 0 -35 -210 0 -210 0 0 -25
0 -25 209 0 209 0 4 -40 4 -40 -213 0 -213 0 0 -25 0 -25 219 0 219 0 11 -44
c6 -25 11 -47 11 -50 0 -3 -103 -6 -230 -6 -223 0 -230 -1 -230 -20 0 -19 7
-20 238 -20 l237 0 49 -135 c28 -74 54 -135 59 -135 5 0 7 6 4 13 -14 38 -77
238 -77 247 0 6 40 10 105 10 58 0 105 -4 105 -9 0 -5 -18 -64 -40 -132 -33
-105 -42 -146 -26 -128 4 5 82 215 90 245 6 20 15 21 173 27 91 4 219 7 285 7
72 0 118 4 118 10 0 6 -56 10 -147 10 -138 0 -395 10 -401 15 -1 1 3 25 10 54
l11 51 147 0 c81 0 203 3 271 7 106 6 117 8 74 14 -27 4 -148 8 -269 8 l-218
1 6 23 c3 12 6 34 6 50 l0 27 133 0 c72 0 191 3 262 7 191 10 102 22 -172 22
l-223 1 0 39 0 38 92 7 c50 3 165 6 255 6 102 0 163 4 163 10 0 6 -46 10 -117
10 -65 0 -182 3 -260 7 l-143 6 -10 36 c-5 20 -10 39 -10 44 0 4 73 7 163 7
89 0 214 3 277 7 105 7 110 8 60 14 -30 4 -158 7 -283 8 l-228 1 -29 65 c-22
49 -34 65 -50 65 -25 0 -25 4 5 -64 14 -31 25 -59 25 -61 0 -2 -47 -3 -105 -2
-117 2 -114 -1 -74 79 24 46 24 48 -2 48 -16 0 -27 -14 -47 -60z m252 -128 c4
-15 9 -35 12 -44 4 -15 -1 -18 -35 -18 -32 0 -39 3 -35 15 4 9 0 15 -10 15 -9
0 -16 -7 -16 -15 0 -11 -12 -15 -50 -15 -47 0 -50 2 -50 25 0 16 -6 25 -15 25
-9 0 -15 -9 -15 -25 0 -21 -5 -25 -30 -25 -28 0 -30 2 -24 28 14 57 14 57 142
59 l120 3 6 -28z m-210 -134 c8 -39 0 -47 -41 -41 -30 5 -33 9 -33 39 0 32 2
34 34 34 30 0 34 -4 40 -32z m126 -3 c0 -35 0 -35 -44 -35 -45 0 -56 10 -56
51 0 16 7 19 50 19 l50 0 0 -35z m110 -5 l0 -40 -40 0 c-22 0 -40 4 -40 9 0 5
-3 23 -6 40 l-6 31 46 0 46 0 0 -40z m-228 -121 l4 -39 -43 0 -43 0 0 43 0 43
39 -4 c37 -4 39 -6 43 -43z m126 1 l3 -45 -51 3 -50 4 0 38 c0 43 9 50 60 47
34 -2 35 -3 38 -47z m100 3 c-3 -46 -4 -48 -35 -51 l-33 -3 0 50 0 51 36 0 35
0 -3 -47z m-219 -109 c4 -18 4 -18 10 0 6 14 20 20 59 23 l52 4 0 -31 c0 -18
4 -29 10 -25 6 3 10 17 10 31 0 21 5 24 34 24 l34 0 -12 -52 -11 -53 -120 0
-119 0 -12 47 c-6 26 -10 49 -7 52 3 2 19 3 36 2 22 -2 33 -8 36 -22z"/>
<path d="M789 3554 l-30 -66 -229 8 -230 7 0 -23 0 -23 225 6 c159 4 225 3
225 -5 0 -6 -5 -27 -11 -47 l-11 -36 -214 3 c-202 3 -214 2 -214 -15 0 -17 11
-18 210 -15 l210 4 0 -51 0 -52 -210 7 -210 7 0 -23 0 -23 210 6 210 5 0 -36
c0 -20 3 -46 6 -57 5 -20 1 -20 -210 -17 -208 3 -216 3 -216 -16 0 -18 8 -19
218 -14 l218 4 11 -48 c7 -27 14 -56 18 -65 5 -14 -18 -15 -230 -11 l-235 5 0
-23 0 -22 228 7 c125 4 231 8 235 9 4 0 30 -60 58 -134 54 -141 56 -146 64
-138 3 2 -6 38 -20 79 -76 221 -123 461 -94 480 12 8 12 10 0 18 -13 9 -13 39
3 136 5 32 46 142 83 223 3 7 -3 12 -17 12 -17 0 -28 -14 -51 -66z"/>
<path d="M970 3615 c0 -3 10 -25 22 -48 11 -23 20 -57 20 -74 -1 -21 3 -33 11
-33 7 0 18 -18 24 -40 10 -39 9 -40 -14 -40 -18 0 -24 -5 -21 -17 2 -10 10
-19 18 -19 8 -1 21 -2 28 -3 7 -1 12 -16 12 -41 0 -38 -2 -40 -30 -40 -23 0
-30 -4 -30 -20 0 -16 7 -20 30 -20 27 0 30 -3 30 -34 0 -50 -9 -66 -36 -66
-30 0 -33 -30 -4 -37 11 -3 20 -13 20 -22 0 -31 -21 -91 -32 -91 -6 0 -8 -10
-4 -24 5 -19 -37 -175 -71 -262 -3 -8 -1 -14 4 -14 5 0 30 58 57 129 l47 128
121 7 c67 3 163 6 214 6 51 0 95 4 98 9 7 11 -120 21 -284 21 l-137 0 15 54
c11 40 21 56 36 60 12 3 93 6 181 7 176 0 241 11 136 22 -35 4 -125 7 -199 7
l-134 0 6 23 c3 12 6 34 6 48 l0 26 187 7 c174 7 203 10 192 20 -4 3 -280 16
-351 16 -26 0 -28 3 -28 45 l0 45 163 1 c89 1 176 4 192 8 27 6 24 8 -25 14
-30 4 -119 7 -197 7 -78 0 -144 3 -146 8 -3 4 -8 22 -12 40 l-7 32 85 0 c130
0 327 12 327 20 0 4 -96 11 -214 15 l-214 7 -25 59 c-19 45 -30 59 -46 59 -12
0 -21 -2 -21 -5z"/>
<path d="M830 2355 c-4 -5 -24 -42 -43 -81 l-36 -71 -225 5 -226 5 0 -23 0
-22 220 7 220 7 -18 -47 -17 -48 -202 6 c-200 6 -203 6 -203 -14 0 -20 4 -21
196 -17 l196 3 -6 -30 c-4 -16 -11 -32 -17 -35 -5 -4 -9 -12 -7 -19 2 -9 -41
-12 -179 -11 -181 1 -183 1 -183 -21 l0 -22 185 8 185 7 9 -24 c4 -12 12 -38
16 -57 l7 -34 -201 5 c-194 5 -201 4 -201 -14 0 -19 8 -20 207 -17 175 3 207
1 211 -11 2 -8 15 -37 28 -63 26 -53 28 -61 16 -53 -5 3 -110 6 -233 6 -204 1
-224 0 -228 -16 -3 -16 14 -16 239 -12 l241 5 42 -60 c23 -32 46 -68 52 -78
10 -19 35 -27 35 -11 0 5 22 45 48 89 27 45 59 108 71 140 l22 60 215 6 c198
5 236 9 223 22 -3 2 -98 5 -212 5 -114 1 -209 5 -211 9 -5 7 9 79 17 87 2 3
93 7 201 11 108 3 199 9 201 13 6 10 -136 20 -277 20 -113 0 -118 1 -118 21 0
11 -7 27 -15 35 -8 9 -15 20 -15 25 0 5 52 9 118 9 155 0 312 11 312 22 0 4
-67 8 -148 8 -82 0 -184 3 -226 7 l-77 6 -26 51 c-14 28 -48 88 -76 132 -42
67 -55 81 -75 80 -13 0 -27 -5 -32 -11z m64 -67 c39 -53 116 -187 116 -204 0
-9 9 -23 20 -32 16 -13 19 -24 14 -49 -4 -18 -13 -33 -20 -33 -17 0 -19 -37
-2 -42 19 -7 -16 -147 -68 -268 -24 -58 -48 -111 -52 -118 -6 -8 -27 21 -64
90 -73 136 -85 167 -68 178 10 6 8 10 -7 19 -12 6 -25 29 -32 55 -14 58 -15
56 13 56 14 0 28 5 31 10 4 6 -8 10 -28 10 -31 0 -35 3 -39 29 -6 40 14 75 49
82 27 7 27 7 6 14 -13 4 -23 9 -23 12 0 18 112 223 122 223 4 0 18 -15 32 -32z"/>
<path d="M1010 2189 c0 -21 1 -21 233 -14 127 4 236 10 240 15 12 10 -135 20
-315 20 -154 0 -158 -1 -158 -21z"/>
<path d="M1014 1681 c-2 -2 -4 -10 -4 -18 0 -10 37 -13 188 -12 166 1 306 10
292 20 -8 5 -471 15 -476 10z"/>
<path d="M769 1036 l-64 -131 -55 0 c-30 0 -56 -4 -57 -10 -2 -6 21 -10 52
-10 30 0 55 -4 55 -9 0 -5 -9 -29 -21 -53 -19 -40 -24 -43 -60 -43 -27 0 -39
-4 -39 -14 0 -11 14 -16 47 -18 l47 -3 12 -47 12 -48 -64 0 c-36 0 -64 -4 -64
-10 0 -6 30 -10 70 -10 49 0 70 -4 70 -12 0 -26 61 -142 121 -229 56 -81 79
-105 79 -80 0 5 18 39 41 76 49 81 75 139 99 222 24 83 43 205 32 212 -4 3
-18 31 -31 61 -13 30 -54 107 -91 171 -63 106 -71 116 -98 116 -29 0 -33 -7
-93 -131z m171 -18 c0 -5 -22 -8 -50 -8 -36 0 -50 -4 -50 -14 0 -11 12 -13 59
-9 l58 6 46 -81 45 -80 -14 -92 c-18 -123 -27 -151 -86 -292 l-51 -120 -28 49
c-16 26 -29 51 -29 56 0 4 20 7 44 7 52 0 74 19 24 21 -51 2 -88 6 -91 10 -32
44 -104 262 -109 329 -2 29 56 163 114 263 l40 69 39 -54 c21 -29 39 -56 39
-60z"/>
<path d="M820 890 c0 -6 30 -10 70 -10 40 0 70 4 70 10 0 6 -30 10 -70 10 -40
0 -70 -4 -70 -10z"/>
<path d="M820 760 c0 -6 28 -10 65 -10 37 0 65 4 65 10 0 6 -28 10 -65 10 -37
0 -65 -4 -65 -10z"/>
<path d="M810 635 c0 -12 12 -15 53 -14 28 0 61 4 72 8 16 7 14 9 -14 14 -60
12 -111 8 -111 -8z"/>
<path d="M387 1014 c-15 -15 7 -24 56 -24 65 0 93 14 47 24 -42 8 -95 8 -103
0z"/>
<path d="M600 1005 c0 -12 12 -15 53 -14 28 0 61 4 72 8 16 7 14 9 -14 14 -60
12 -111 8 -111 -8z"/>
<path d="M1053 998 c2 -7 9 -13 15 -12 7 1 37 2 67 3 82 2 68 21 -16 21 -52 0
-70 -3 -66 -12z"/>
<path d="M370 895 c0 -11 12 -15 48 -15 26 0 58 3 71 7 23 6 23 7 5 14 -10 4
-43 8 -71 8 -41 1 -53 -2 -53 -14z"/>
<path d="M1107 904 c-21 -21 54 -33 112 -17 23 6 23 7 5 14 -24 9 -108 11
-117 3z"/>
<path d="M1160 775 c0 -16 62 -21 108 -8 37 9 5 23 -55 23 -41 0 -53 -4 -53
-15z"/>
<path d="M367 774 c-21 -21 54 -33 112 -17 23 6 23 7 5 14 -24 9 -108 11 -117
3z"/>
<path d="M1130 650 c0 -6 28 -10 65 -10 37 0 65 4 65 10 0 6 -28 10 -65 10
-37 0 -65 -4 -65 -10z"/>
<path d="M360 640 c0 -6 28 -10 65 -10 37 0 65 4 65 10 0 6 -28 10 -65 10 -37
0 -65 -4 -65 -10z"/>
<path d="M1135 582 c-15 -16 1 -22 59 -22 66 0 105 19 44 21 -18 1 -47 2 -65
4 -18 1 -35 0 -38 -3z"/>
<path d="M1082 509 c2 -6 7 -10 11 -10 4 1 34 1 67 1 33 0 60 4 60 10 0 6 -30
10 -71 10 -46 0 -69 -4 -67 -11z"/>
<path d="M350 455 c0 -17 15 -18 84 -9 67 10 56 24 -19 24 -51 0 -65 -3 -65
-15z"/>
<path d="M560 461 c0 -6 5 -13 11 -16 15 -10 130 5 123 16 -7 12 -134 12 -134
0z"/>
</g>
</svg>
