<?xml version="1.0" standalone="no"?>
<!DOCTYPE svg PUBLIC "-//W3C//DTD SVG 20010904//EN"
 "http://www.w3.org/TR/2001/REC-SVG-20010904/DTD/svg10.dtd">
<svg version="1.0" xmlns="http://www.w3.org/2000/svg"
 width="184.000000pt" height="163.000000pt" viewBox="0 0 184.000000 163.000000"
 preserveAspectRatio="xMidYMid meet">
<metadata>
Created by potrace 1.16, written by Peter Selinger 2001-2019
</metadata>
<g transform="translate(0.000000,163.000000) scale(0.100000,-0.100000)"
fill="#000000" stroke="none">
<path d="M694 1313 c3 -10 26 -92 52 -183 42 -150 46 -177 51 -305 l5 -140
-51 -182 c-28 -100 -51 -187 -51 -193 0 -5 6 -10 13 -10 8 0 26 55 51 158 l39
157 358 1 c197 0 362 4 366 8 5 4 9 86 11 181 l4 173 -64 6 c-124 11 -659 13
-665 2 -4 -5 -22 53 -40 129 -50 208 -52 215 -69 215 -10 0 -13 -6 -10 -17z
m816 -455 c0 -62 3 -137 6 -165 l7 -53 -119 0 c-65 0 -170 3 -231 7 l-113 6 0
34 0 33 198 1 c108 1 208 4 222 8 30 9 -153 21 -312 21 l-107 0 5 37 c2 20 6
39 9 41 2 2 96 6 209 9 113 4 206 10 206 14 0 5 -40 9 -88 9 -49 0 -144 3
-210 7 l-122 6 0 43 0 44 168 3 c92 1 191 4 220 5 l52 2 0 -112z m-650 51 c0
-28 -4 -39 -15 -39 -11 0 -15 12 -15 45 0 35 3 43 15 39 10 -4 15 -20 15 -45z
m120 6 c0 -38 -3 -45 -20 -45 -17 0 -20 7 -20 45 0 38 3 45 20 45 17 0 20 -7
20 -45z m60 0 c0 -33 -4 -45 -15 -45 -11 0 -15 12 -15 45 0 33 4 45 15 45 11
0 15 -12 15 -45z m-130 -5 c0 -22 -4 -40 -10 -40 -5 0 -10 18 -10 40 0 22 5
40 10 40 6 0 10 -18 10 -40z m-50 -120 c0 -29 -4 -40 -15 -40 -11 0 -15 11
-15 40 0 29 4 40 15 40 11 0 15 -11 15 -40z m50 0 c0 -22 -4 -40 -10 -40 -5 0
-10 18 -10 40 0 22 5 40 10 40 6 0 10 -18 10 -40z m70 0 c0 -33 -3 -40 -20
-40 -17 0 -20 7 -20 40 0 33 3 40 20 40 17 0 20 -7 20 -40z m60 0 c0 -34 -3
-40 -21 -40 -15 0 -19 4 -15 16 3 9 6 27 6 40 0 15 6 24 15 24 11 0 15 -11 15
-40z m-178 -110 c4 -23 0 -29 -19 -33 -20 -4 -23 0 -23 28 0 17 3 34 6 38 12
12 32 -5 36 -33z m120 5 c4 -32 2 -35 -22 -35 -24 0 -26 3 -22 35 3 25 9 35
22 35 13 0 19 -10 22 -35z m58 0 c0 -28 -4 -35 -20 -35 -15 0 -20 7 -20 28 0
32 7 42 27 42 8 0 13 -12 13 -35z m-120 -5 c0 -23 -4 -30 -20 -30 -16 0 -20 7
-20 30 0 23 4 30 20 30 16 0 20 -7 20 -30z"/>
<path d="M528 1214 c-6 -5 109 -161 181 -244 60 -70 29 -12 -62 114 -90 125
-106 143 -119 130z"/>
<path d="M395 1049 c-4 -6 -5 -12 -3 -14 9 -9 294 -145 303 -145 5 0 1 8 -10
16 -23 17 -270 154 -278 154 -3 0 -9 -5 -12 -11z"/>
<path d="M300 855 c0 -13 30 -15 218 -14 119 1 228 4 242 8 32 9 -149 21 -327
21 -112 0 -133 -2 -133 -15z"/>
<path d="M543 667 c-79 -39 -143 -77 -143 -84 0 -18 13 -16 52 6 18 10 84 46
146 80 61 35 112 65 112 67 0 12 -38 -4 -167 -69z"/>
<path d="M637 564 c-105 -134 -117 -154 -95 -154 7 0 55 57 104 128 104 145
108 152 97 152 -5 0 -53 -57 -106 -126z"/>
</g>
</svg>
