<?xml version="1.0" standalone="no"?>
<!DOCTYPE svg PUBLIC "-//W3C//DTD SVG 20010904//EN"
 "http://www.w3.org/TR/2001/REC-SVG-20010904/DTD/svg10.dtd">
<svg version="1.0" xmlns="http://www.w3.org/2000/svg"
 width="148.000000pt" height="118.000000pt" viewBox="0 0 148.000000 118.000000"
 preserveAspectRatio="xMidYMid meet">
<metadata>
Created by potrace 1.16, written by Peter Selinger 2001-2019
</metadata>
<g transform="translate(0.000000,118.000000) scale(0.100000,-0.100000)"
fill="#000000" stroke="none">
<path d="M923 872 c-9 -6 -6 -17 12 -45 l25 -37 -330 7 -330 6 0 -185 c0 -155
3 -188 15 -198 13 -10 84 -12 341 -6 l325 6 -36 -52 c-30 -45 -32 -54 -19 -61
8 -5 17 -7 18 -5 9 12 97 156 133 216 l43 72 -72 118 c-39 64 -78 129 -87 144
-17 30 -20 32 -38 20z m115 -192 l63 -90 -53 -76 -53 -76 -125 6 c-69 3 -169
6 -222 6 l-98 0 0 35 0 35 103 0 c152 0 327 12 321 22 -3 4 -99 8 -215 8
l-209 0 0 23 c0 12 3 32 6 45 6 22 9 22 178 23 94 0 191 4 216 8 41 6 36 7
-49 14 -52 4 -150 7 -218 7 l-123 0 0 45 0 44 113 4 c61 1 155 4 207 5 l95 2
63 -90z m-688 35 c0 -33 -4 -45 -15 -45 -11 0 -15 12 -15 45 0 33 4 45 15 45
11 0 15 -12 15 -45z m50 0 c0 -25 -4 -45 -10 -45 -5 0 -10 20 -10 45 0 25 5
45 10 45 6 0 10 -20 10 -45z m70 0 c0 -38 -3 -45 -20 -45 -17 0 -20 7 -20 45
0 38 3 45 20 45 17 0 20 -7 20 -45z m60 0 c0 -33 -4 -45 -15 -45 -11 0 -15 12
-15 45 0 33 4 45 15 45 11 0 15 -12 15 -45z m-180 -120 c0 -33 -4 -45 -15 -45
-11 0 -15 12 -15 45 0 33 4 45 15 45 11 0 15 -12 15 -45z m50 -1 c0 -32 -4
-44 -12 -41 -12 3 -19 61 -10 80 10 22 22 1 22 -39z m70 1 c0 -38 -3 -45 -20
-45 -17 0 -20 7 -20 45 0 38 3 45 20 45 17 0 20 -7 20 -45z m60 0 c0 -38 -3
-45 -20 -45 -21 0 -26 23 -14 68 11 41 34 26 34 -23z m-180 -110 c0 -28 -4
-35 -20 -35 -21 0 -24 10 -14 48 10 36 34 27 34 -13z m58 -3 c3 -27 0 -32 -17
-32 -17 0 -21 6 -21 36 0 28 3 35 18 32 11 -2 18 -14 20 -36z m62 3 c0 -31 -3
-35 -25 -35 -18 0 -25 5 -25 19 0 33 11 51 31 51 15 0 19 -7 19 -35z m60 0 c0
-28 -4 -35 -20 -35 -16 0 -20 7 -20 35 0 28 4 35 20 35 16 0 20 -7 20 -35z"/>
<path d="M1003 872 c-8 -5 10 -39 60 -113 40 -58 82 -119 95 -135 21 -26 23
-27 19 -7 -5 23 -148 262 -157 263 -3 0 -10 -4 -17 -8z"/>
<path d="M1082 450 c-50 -73 -89 -136 -86 -141 12 -20 31 -6 60 44 17 28 53
87 78 129 79 130 46 109 -52 -32z"/>
</g>
</svg>
