<?xml version="1.0" standalone="no"?>
<!DOCTYPE svg PUBLIC "-//W3C//DTD SVG 20010904//EN"
 "http://www.w3.org/TR/2001/REC-SVG-20010904/DTD/svg10.dtd">
<svg version="1.0" xmlns="http://www.w3.org/2000/svg"
 width="190.000000pt" height="134.000000pt" viewBox="0 0 190.000000 134.000000"
 preserveAspectRatio="xMidYMid meet">
<metadata>
Created by potrace 1.16, written by Peter Selinger 2001-2019
</metadata>
<g transform="translate(0.000000,134.000000) scale(0.100000,-0.100000)"
fill="#000000" stroke="none">
<path d="M510 1021 c-129 -41 -152 -64 -189 -185 -41 -132 -22 -236 71 -407
47 -85 48 -86 105 -105 40 -13 86 -19 148 -19 81 0 96 4 150 32 33 17 96 41
140 53 123 34 318 104 492 176 154 63 211 93 148 78 -42 -10 -486 -157 -567
-188 -50 -18 -68 -22 -68 -12 0 7 18 52 40 99 22 47 40 89 40 95 0 6 90 8 255
4 168 -3 255 -2 255 5 0 11 -75 19 -255 28 -66 3 -148 8 -181 11 l-62 5 -4 47
c-8 81 -72 201 -95 178 -3 -3 7 -34 21 -70 48 -119 45 -178 -15 -337 -29 -74
-31 -77 -89 -108 -79 -42 -165 -71 -211 -71 -55 0 -166 39 -198 69 -30 28 -86
162 -101 243 -12 62 1 156 33 236 22 55 26 58 90 85 138 57 276 49 450 -27 9
-5 17 -4 17 2 0 11 -115 64 -189 86 -70 21 -162 20 -231 -3z"/>
</g>
</svg>
