<?xml version="1.0" standalone="no"?>
<!DOCTYPE svg PUBLIC "-//W3C//DTD SVG 20010904//EN"
 "http://www.w3.org/TR/2001/REC-SVG-20010904/DTD/svg10.dtd">
<svg version="1.0" xmlns="http://www.w3.org/2000/svg"
 width="231.000000pt" height="150.000000pt" viewBox="0 0 231.000000 150.000000"
 preserveAspectRatio="xMidYMid meet">
<metadata>
Created by potrace 1.16, written by Peter Selinger 2001-2019
</metadata>
<g transform="translate(0.000000,150.000000) scale(0.100000,-0.100000)"
fill="#000000" stroke="none">
<path d="M833 1185 c-7 -19 2 -623 10 -631 2 -3 128 63 280 145 151 83 279
152 283 153 9 3 440 -218 507 -260 22 -13 40 -22 42 -20 2 2 6 139 10 306 7
286 6 302 -11 302 -9 0 -25 -6 -33 -14 -20 -17 -496 -266 -510 -266 -5 0 -40
17 -78 39 -129 73 -480 261 -487 261 -4 0 -9 -7 -13 -15z m93 -71 l44 -26 0
-137 c0 -76 3 -171 6 -212 l6 -74 -57 -28 c-32 -15 -59 -26 -62 -23 -6 5 8
526 14 526 3 0 24 -12 49 -26z m1003 -171 c1 -109 4 -231 8 -272 l6 -74 -53
29 -52 29 6 155 c3 85 6 187 6 226 0 69 0 71 33 87 17 8 35 16 39 16 3 1 7
-88 7 -196z m-833 72 c1 -5 4 -71 7 -146 l3 -137 -54 -26 -55 -27 6 107 c4 59
7 147 7 196 l0 89 41 -23 c23 -13 43 -27 45 -33z m714 -92 c0 -82 3 -172 7
-202 l6 -54 -62 33 -62 33 2 144 2 143 41 24 c23 14 47 25 54 26 9 0 12 -36
12 -147z m-635 60 c27 -13 35 -23 35 -43 0 -15 3 -54 6 -86 l6 -59 -41 -22
c-48 -28 -60 -29 -56 -5 2 9 4 65 4 125 1 59 3 107 6 107 2 0 20 -8 40 -17z
m500 -231 c-1 -1 -28 12 -59 30 -36 21 -55 37 -51 46 3 8 5 37 5 66 0 52 0 53
48 79 l47 26 6 -122 c4 -67 6 -123 4 -125z m-361 92 c-32 -19 -63 -34 -68 -34
-5 0 -6 21 -2 46 3 26 6 55 6 66 0 17 6 15 62 -13 l62 -31 -60 -34z m226 31
c0 -25 -3 -45 -7 -45 -5 0 -25 11 -47 24 l-38 24 38 21 c22 11 42 20 47 21 4
0 7 -20 7 -45z"/>
<path d="M300 1101 l0 -23 194 7 c107 4 209 10 227 14 31 7 28 9 -31 15 -36 3
-138 7 -228 9 l-162 2 0 -24z"/>
<path d="M300 918 l0 -24 143 3 c196 5 311 13 301 23 -5 4 -107 11 -226 15
l-218 7 0 -24z"/>
<path d="M756 743 c-4 -4 -108 -6 -232 -4 l-224 3 0 -22 0 -23 198 7 c108 4
208 10 221 13 22 5 23 3 17 -18 -32 -102 -38 -145 -27 -195 21 -93 86 -148
213 -180 87 -22 415 -30 605 -15 154 12 475 50 482 57 12 11 -14 12 -99 4
-416 -41 -824 -38 -979 6 -158 45 -212 166 -139 313 20 40 22 51 10 56 -19 7
-37 6 -46 -2z"/>
</g>
</svg>
