<?xml version="1.0" standalone="no"?>
<!DOCTYPE svg PUBLIC "-//W3C//DTD SVG 20010904//EN"
 "http://www.w3.org/TR/2001/REC-SVG-20010904/DTD/svg10.dtd">
<svg version="1.0" xmlns="http://www.w3.org/2000/svg"
 width="227.000000pt" height="125.000000pt" viewBox="0 0 227.000000 125.000000"
 preserveAspectRatio="xMidYMid meet">
<metadata>
Created by potrace 1.16, written by Peter Selinger 2001-2019
</metadata>
<g transform="translate(0.000000,125.000000) scale(0.100000,-0.100000)"
fill="#000000" stroke="none">
<path d="M833 935 c-6 -18 4 -625 11 -632 3 -3 131 63 285 147 155 83 287 150
294 148 25 -6 512 -262 519 -272 4 -6 10 -7 14 -4 3 4 9 142 12 307 l5 301
-22 0 c-11 0 -21 -4 -21 -9 0 -9 -477 -261 -508 -269 -6 -2 -138 64 -291 147
-153 83 -282 151 -285 151 -4 0 -9 -7 -13 -15z m291 -176 c136 -72 245 -134
241 -137 -8 -8 -500 -270 -502 -267 -3 2 9 535 12 535 1 0 113 -59 249 -131z
m810 -135 c4 -147 5 -268 4 -269 -2 -1 -112 59 -245 134 -222 125 -240 137
-220 148 12 7 117 66 232 132 116 65 213 120 216 120 3 1 9 -119 13 -265z"/>
<path d="M300 849 l0 -22 213 8 c116 4 218 10 226 14 21 12 -96 21 -275 21
-161 0 -164 0 -164 -21z"/>
<path d="M300 664 c0 -22 1 -22 153 -18 356 10 381 30 45 36 -198 4 -198 4
-198 -18z"/>
<path d="M300 469 l0 -22 218 8 c119 4 221 10 225 14 12 12 -110 21 -285 21
-155 0 -158 0 -158 -21z"/>
</g>
</svg>
