<?xml version="1.0" standalone="no"?>
<!DOCTYPE svg PUBLIC "-//W3C//DTD SVG 20010904//EN"
 "http://www.w3.org/TR/2001/REC-SVG-20010904/DTD/svg10.dtd">
<svg version="1.0" xmlns="http://www.w3.org/2000/svg"
 width="185.000000pt" height="139.000000pt" viewBox="0 0 185.000000 139.000000"
 preserveAspectRatio="xMidYMid meet">
<metadata>
Created by potrace 1.16, written by Peter Selinger 2001-2019
</metadata>
<g transform="translate(0.000000,139.000000) scale(0.100000,-0.100000)"
fill="#000000" stroke="none">
<path d="M490 1055 l-34 -35 31 -75 30 -74 -49 -10 c-65 -15 -88 -14 -122 4
-27 15 -46 13 -46 -5 0 -5 16 -14 36 -20 32 -11 65 -10 173 2 13 2 26 -2 28
-9 6 -16 -94 -27 -160 -19 -39 6 -49 4 -41 -4 20 -20 85 -29 138 -19 55 10 64
8 42 -10 -22 -18 -132 -27 -150 -12 -10 9 -16 9 -21 1 -12 -20 5 -25 81 -25
58 0 73 -3 69 -13 -3 -8 -5 -17 -5 -22 0 -15 -97 -23 -120 -10 -15 8 -26 8
-32 2 -16 -16 58 -35 109 -27 40 6 44 4 41 -12 -3 -15 -14 -18 -75 -19 -40 0
-75 -3 -79 -7 -12 -12 47 -20 107 -14 51 4 61 2 73 -15 13 -18 9 -30 -30 -119
-24 -55 -44 -104 -44 -109 0 -10 110 -63 116 -57 23 23 105 180 124 237 14 41
25 76 26 77 0 2 49 -22 107 -53 63 -33 107 -62 107 -70 0 -8 5 -12 10 -9 6 3
10 37 10 76 l0 69 40 0 40 0 0 -175 c0 -110 4 -175 10 -175 6 0 10 65 10 175
l0 175 25 0 25 0 0 -175 c0 -110 4 -175 10 -175 6 0 10 65 10 175 l0 175 24 0
24 0 7 -176 c7 -165 13 -208 19 -132 2 18 4 95 5 171 1 126 2 137 19 137 17 0
20 -12 25 -122 4 -66 7 -146 7 -176 0 -31 3 -52 8 -48 4 4 9 85 12 179 l5 172
78 3 c64 2 77 0 77 -13 0 -8 4 -15 8 -15 14 0 115 64 119 75 4 12 -95 75 -116
75 -8 0 -11 -6 -7 -15 5 -13 -26 -15 -239 -15 l-245 0 0 59 c0 33 -4 62 -10
66 -5 3 -60 -21 -123 -54 l-114 -60 -13 42 c-12 42 -113 251 -132 275 -15 18
-21 16 -58 -23z m107 -156 c-46 -25 -54 -21 -81 37 -31 67 -31 67 -9 100 l16
26 43 -79 c30 -54 39 -80 31 -84z m69 -149 c18 -69 18 -92 -1 -165 -16 -60
-89 -218 -109 -234 -7 -6 -27 0 -53 16 l-42 25 45 91 c45 89 46 91 30 124 -13
28 -13 33 -1 33 7 0 17 5 21 11 5 9 -1 10 -20 5 -39 -10 -36 28 4 43 39 13 39
25 0 17 l-30 -6 14 29 c9 16 24 31 35 34 14 3 18 11 14 26 -4 15 -1 21 10 21
9 0 19 5 23 11 4 7 -3 10 -22 7 -40 -4 -41 19 -2 35 l33 14 18 -41 c10 -23 25
-66 33 -96z m249 -53 l7 -147 -105 60 c-81 47 -106 66 -112 87 -3 14 -2 29 2
34 9 9 197 118 199 116 1 -1 5 -68 9 -150z m587 22 c21 -11 21 -12 -3 -25 -18
-10 -87 -13 -291 -14 -260 0 -268 1 -268 20 0 18 8 20 148 23 362 7 394 7 414
-4z"/>
</g>
</svg>
