<?xml version="1.0" standalone="no"?>
<!DOCTYPE svg PUBLIC "-//W3C//DTD SVG 20010904//EN"
 "http://www.w3.org/TR/2001/REC-SVG-20010904/DTD/svg10.dtd">
<svg version="1.0" xmlns="http://www.w3.org/2000/svg"
 width="206.000000pt" height="121.000000pt" viewBox="0 0 206.000000 121.000000"
 preserveAspectRatio="xMidYMid meet">
<metadata>
Created by potrace 1.16, written by Peter Selinger 2001-2019
</metadata>
<g transform="translate(0.000000,121.000000) scale(0.100000,-0.100000)"
fill="#000000" stroke="none">
<path d="M300 723 c0 -104 3 -197 6 -208 5 -19 12 -20 182 -17 97 2 213 6 257
10 l80 7 3 83 c2 45 7 82 11 82 18 0 283 -149 296 -166 17 -22 17 -20 15 74
l-1 62 40 0 41 0 0 -175 c0 -110 4 -175 10 -175 6 0 10 65 10 175 l0 175 25 0
25 0 0 -175 c0 -110 4 -175 10 -175 6 0 10 65 10 175 l0 175 24 0 c21 0 24 -5
30 -61 3 -34 6 -113 6 -175 0 -69 4 -114 10 -114 6 0 10 65 10 175 l0 175 24
0 c13 0 24 -6 23 -12 -4 -105 5 -338 13 -338 6 0 10 67 10 180 l0 180 76 0
c57 0 80 -4 88 -15 10 -13 18 -11 65 17 30 18 56 38 58 44 4 12 -94 74 -117
74 -7 0 -10 -7 -6 -15 5 -14 -24 -15 -237 -13 l-242 3 0 68 c0 37 -2 67 -4 67
-3 0 -71 -36 -153 -80 -81 -44 -151 -80 -156 -80 -4 0 -7 37 -7 82 l0 83 -90
6 c-49 4 -170 7 -267 8 l-178 1 0 -187z m510 131 c0 -26 -1 -27 -46 -20 -26 3
-107 6 -180 6 -111 0 -134 3 -134 15 0 15 12 16 283 23 l77 2 0 -26z m-390 1
c0 -11 -12 -15 -50 -15 -38 0 -50 4 -50 15 0 11 12 15 50 15 38 0 50 -4 50
-15z m710 -156 l0 -151 -22 14 c-13 8 -72 44 -132 78 -79 46 -105 66 -95 73
175 105 226 135 237 136 9 1 12 -35 12 -150z m-320 85 l0 -37 -46 7 c-26 3
-107 6 -180 6 l-134 0 0 25 0 24 158 4 c86 1 167 4 180 5 19 2 22 -3 22 -34z
m-390 1 c0 -23 -3 -25 -50 -25 -47 0 -50 2 -50 25 0 23 3 25 50 25 47 0 50 -2
50 -25z m390 -76 l0 -31 -177 4 c-175 3 -178 4 -181 25 -3 22 -2 23 155 26 87
1 168 4 181 5 18 2 22 -3 22 -29z m-386 4 c7 -18 -12 -35 -32 -28 -8 3 -27 5
-43 5 -22 0 -29 5 -29 20 0 17 7 20 49 20 36 0 50 -4 55 -17z m1288 6 c21 -11
21 -12 -3 -25 -18 -10 -87 -13 -291 -14 -260 0 -268 1 -268 20 0 18 8 20 148
23 362 7 394 7 414 -4z m-902 -95 l0 -37 -52 7 c-29 3 -110 6 -180 6 l-128 0
0 25 c0 27 -29 24 288 33 l72 2 0 -36z m-380 1 c0 -24 -3 -25 -55 -25 -52 0
-55 1 -55 25 0 24 3 25 55 25 52 0 55 -1 55 -25z m380 -70 c0 -25 -1 -25 -78
-25 -160 0 -291 12 -285 26 4 10 40 14 146 16 78 2 159 4 180 6 34 2 37 0 37
-23z m-380 0 c0 -12 -13 -15 -60 -15 -49 0 -58 3 -54 15 9 21 114 21 114 0z"/>
</g>
</svg>
