<?xml version="1.0" standalone="no"?>
<!DOCTYPE svg PUBLIC "-//W3C//DTD SVG 20010904//EN"
 "http://www.w3.org/TR/2001/REC-SVG-20010904/DTD/svg10.dtd">
<svg version="1.0" xmlns="http://www.w3.org/2000/svg"
 width="180.000000pt" height="123.000000pt" viewBox="0 0 180.000000 123.000000"
 preserveAspectRatio="xMidYMid meet">
<metadata>
Created by potrace 1.16, written by Peter Selinger 2001-2019
</metadata>
<g transform="translate(0.000000,123.000000) scale(0.100000,-0.100000)"
fill="#000000" stroke="none">
<path d="M555 886 c-39 -22 -112 -68 -163 -100 -97 -63 -102 -71 -84 -133 6
-21 236 -194 303 -228 l26 -14 7 61 c3 33 6 83 6 109 l0 49 110 -58 c60 -31
110 -63 110 -69 0 -7 4 -13 10 -13 5 0 10 33 12 73 l3 72 38 3 37 3 0 -165 c0
-99 4 -167 10 -171 6 -4 11 35 12 107 3 131 5 198 7 216 0 6 10 12 21 12 19 0
20 -7 20 -164 0 -99 4 -167 10 -171 6 -4 11 30 12 92 1 54 3 118 4 143 2 25 3
58 3 73 1 24 5 28 24 25 22 -3 22 -5 25 -170 1 -101 6 -168 12 -168 6 0 10 66
10 170 l0 170 25 0 25 0 0 -170 c0 -107 4 -170 10 -170 6 0 10 63 10 170 l0
170 79 0 c60 0 80 -3 85 -15 4 -12 17 -7 66 22 33 19 59 41 57 47 -5 16 -109
76 -119 69 -5 -3 -7 -12 -3 -21 5 -13 -9 -14 -116 -9 -67 4 -177 7 -243 7
l-121 0 3 55 c3 43 0 56 -12 61 -9 3 -61 -18 -122 -50 -59 -31 -109 -56 -110
-56 -2 0 -5 39 -6 87 -2 47 -7 87 -13 89 -5 1 -42 -17 -80 -40z m65 -71 l0
-85 -43 0 c-24 0 -79 3 -121 6 l-77 7 118 78 c65 44 119 79 121 79 1 0 2 -38
2 -85z m250 -131 l0 -146 -42 25 c-24 13 -73 42 -110 63 -56 32 -68 43 -68 64
0 21 15 33 103 82 56 31 105 57 110 58 4 0 7 -66 7 -146z m585 19 c17 -10 15
-12 -15 -28 -30 -15 -54 -17 -194 -12 -89 4 -205 7 -259 7 -88 0 -98 2 -95 18
3 15 25 17 238 22 286 6 302 6 325 -7z m-1105 -18 c0 -14 -4 -25 -10 -25 -5 0
-10 11 -10 25 0 14 5 25 10 25 6 0 10 -11 10 -25z m40 16 c0 -5 3 -16 6 -25 4
-11 1 -16 -10 -16 -10 0 -16 9 -16 25 0 14 5 25 10 25 6 0 10 -4 10 -9z m49
-33 c1 -5 -5 -8 -13 -8 -9 0 -12 8 -8 27 5 25 6 25 13 8 4 -11 8 -23 8 -27z
m41 17 c0 -14 -4 -25 -10 -25 -5 0 -10 11 -10 25 0 14 5 25 10 25 6 0 10 -11
10 -25z m140 0 c0 -24 -3 -25 -60 -25 -57 0 -60 1 -60 25 0 24 3 25 60 25 57
0 60 -1 60 -25z m3 -142 c4 -53 5 -98 3 -101 -3 -2 -61 38 -130 90 l-126 93
48 6 c26 3 81 7 123 7 l76 2 6 -97z"/>
</g>
</svg>
