<?xml version="1.0" standalone="no"?>
<!DOCTYPE svg PUBLIC "-//W3C//DTD SVG 20010904//EN"
 "http://www.w3.org/TR/2001/REC-SVG-20010904/DTD/svg10.dtd">
<svg version="1.0" xmlns="http://www.w3.org/2000/svg"
 width="189.000000pt" height="140.000000pt" viewBox="0 0 189.000000 140.000000"
 preserveAspectRatio="xMidYMid meet">
<metadata>
Created by potrace 1.16, written by Peter Selinger 2001-2019
</metadata>
<g transform="translate(0.000000,140.000000) scale(0.100000,-0.100000)"
fill="#000000" stroke="none">
<path d="M520 1007 c-150 -134 -220 -223 -220 -283 0 -63 129 -215 308 -362
l52 -44 0 181 c0 100 1 181 3 181 1 0 65 -34 142 -75 77 -41 143 -75 148 -75
4 0 7 -7 7 -15 0 -18 20 -20 21 -2 0 6 0 40 -1 75 l-1 63 38 -3 38 -3 3 -167
c1 -98 6 -168 12 -168 6 0 11 70 12 168 3 165 3 167 26 170 l22 3 0 -170 c0
-102 4 -172 10 -176 7 -4 10 55 10 170 l0 176 26 -3 c28 -3 29 -6 33 -256 0
-59 5 -91 11 -87 6 4 10 73 10 176 0 158 1 169 18 169 17 0 20 -12 25 -97 4
-54 7 -133 7 -176 0 -50 4 -76 10 -72 6 4 10 73 10 176 l0 169 80 0 c47 0 80
-4 80 -10 0 -5 5 -10 12 -10 20 0 118 64 115 75 -4 10 -106 75 -119 75 -13 0
-9 -28 5 -34 6 -4 -57 -4 -142 -1 -85 3 -199 5 -253 5 l-100 0 4 65 c2 36 -1
65 -6 65 -6 0 -76 -36 -157 -80 -81 -44 -150 -80 -153 -80 -3 0 -6 79 -6 176
0 139 -3 178 -14 190 -8 8 -16 14 -18 14 -2 0 -50 -42 -108 -93z m118 -477 l1
-175 -117 120 c-194 198 -217 244 -161 330 18 28 34 45 36 38 2 -6 33 -30 69
-53 35 -23 64 -43 64 -45 0 -1 -29 -22 -65 -46 -39 -26 -65 -51 -65 -61 0 -28
14 -22 77 30 91 76 90 73 41 118 -24 22 -56 49 -72 62 -29 22 -29 22 -10 44
10 11 57 54 104 94 l85 73 6 -177 c4 -97 7 -256 7 -352z m321 170 c1 -82 -1
-150 -5 -150 -3 0 -43 22 -88 49 -44 26 -100 59 -123 71 -24 13 -43 26 -43 29
1 6 239 148 251 150 3 1 7 -66 8 -149z m586 13 c17 -10 16 -12 -15 -28 -30
-15 -58 -16 -292 -10 -242 7 -258 9 -258 26 0 18 14 19 233 21 295 4 309 3
332 -9z"/>
</g>
</svg>
