<?xml version="1.0" standalone="no"?>
<!DOCTYPE svg PUBLIC "-//W3C//DTD SVG 20010904//EN"
 "http://www.w3.org/TR/2001/REC-SVG-20010904/DTD/svg10.dtd">
<svg version="1.0" xmlns="http://www.w3.org/2000/svg"
 width="144.000000pt" height="161.000000pt" viewBox="0 0 144.000000 161.000000"
 preserveAspectRatio="xMidYMid meet">
<metadata>
Created by potrace 1.16, written by Peter Selinger 2001-2019
</metadata>
<g transform="translate(0.000000,161.000000) scale(0.100000,-0.100000)"
fill="#000000" stroke="none">
<path d="M530 1291 c0 -17 10 -20 88 -26 185 -14 260 -25 332 -51 41 -14 83
-32 93 -39 12 -8 27 -57 48 -156 24 -115 30 -162 27 -234 l-4 -90 -69 -99
c-39 -55 -91 -116 -117 -137 -99 -78 -347 -150 -469 -136 -57 7 -67 -7 -11
-17 78 -13 199 -6 266 14 97 30 237 91 231 100 -3 5 18 32 47 62 29 29 73 82
97 118 l45 65 3 150 c4 127 1 168 -19 265 -22 110 -24 115 -48 115 -14 0 -47
12 -75 26 -84 44 -141 59 -294 74 -181 18 -171 19 -171 -4z"/>
<path d="M316 1024 c-13 -9 -16 -33 -15 -130 0 -142 13 -190 49 -187 95 8 731
110 739 119 12 12 -21 9 -243 -15 l-238 -27 6 44 c3 25 6 62 6 83 0 37 2 39
30 39 30 0 30 -1 30 -52 0 -29 3 -64 7 -76 10 -38 23 -5 23 61 0 31 4 57 9 57
13 0 279 -29 329 -35 23 -4 42 -2 42 3 0 5 -116 28 -257 51 -448 72 -500 78
-517 65z m199 -58 l68 -11 5 -87 c2 -49 0 -88 -5 -88 -4 0 -53 -7 -108 -15
-150 -22 -145 -23 -145 28 0 24 3 78 6 120 l7 77 52 -6 c29 -4 83 -12 120 -18z"/>
</g>
</svg>
