<?xml version="1.0" standalone="no"?>
<!DOCTYPE svg PUBLIC "-//W3C//DTD SVG 20010904//EN"
 "http://www.w3.org/TR/2001/REC-SVG-20010904/DTD/svg10.dtd">
<svg version="1.0" xmlns="http://www.w3.org/2000/svg"
 width="169.000000pt" height="125.000000pt" viewBox="0 0 169.000000 125.000000"
 preserveAspectRatio="xMidYMid meet">
<metadata>
Created by potrace 1.16, written by Peter Selinger 2001-2019
</metadata>
<g transform="translate(0.000000,125.000000) scale(0.100000,-0.100000)"
fill="#000000" stroke="none">
<path d="M1075 934 c-285 -20 -707 -54 -743 -60 l-33 -5 2 -188 1 -188 332
-26 c182 -15 412 -32 511 -38 235 -14 225 -11 226 -57 0 -20 4 -46 9 -57 5
-12 9 115 9 308 l1 327 -67 -1 c-38 -1 -149 -7 -248 -15z m287 -251 c3 -137 5
-249 4 -251 -2 -1 -31 1 -65 5 l-63 6 7 236 c4 130 9 239 12 244 2 4 26 7 52
7 l48 0 5 -247z m-152 139 c0 -55 3 -161 7 -237 l6 -138 -63 6 c-35 4 -64 8
-65 10 -1 1 0 102 3 224 l5 222 41 4 c22 2 47 4 54 5 9 2 12 -23 12 -96z
m-146 -34 c3 -62 7 -160 7 -218 l2 -104 -49 2 c-89 5 -88 4 -80 90 3 41 6 133
6 203 l0 128 28 4 c15 2 39 5 53 6 l26 1 7 -112z m-151 -35 c4 -71 7 -161 7
-202 l0 -73 -47 7 c-27 4 -49 8 -49 8 -1 1 1 89 4 195 l5 192 37 0 37 0 6
-127z m-118 -68 c4 -102 6 -187 4 -189 -2 -1 -28 0 -56 2 l-53 4 6 171 c3 95
7 178 10 185 2 7 20 12 43 12 l39 0 7 -185z m-135 123 c0 -29 3 -109 6 -178
l7 -125 -47 3 -46 4 0 168 c0 183 -2 176 58 179 20 1 22 -3 22 -51z m-110 -85
c0 -71 3 -145 7 -166 l6 -38 -59 3 -59 3 1 38 c0 20 1 91 2 156 l2 120 28 4
c78 12 72 22 72 -120z m-140 45 c0 -40 3 -110 7 -155 l6 -83 -34 0 c-59 0 -60
3 -57 156 l3 139 30 6 c17 4 33 7 38 8 4 0 7 -32 7 -71z"/>
</g>
</svg>
