<?xml version="1.0" standalone="no"?>
<!DOCTYPE svg PUBLIC "-//W3C//DTD SVG 20010904//EN"
 "http://www.w3.org/TR/2001/REC-SVG-20010904/DTD/svg10.dtd">
<svg version="1.0" xmlns="http://www.w3.org/2000/svg"
 width="144.000000pt" height="147.000000pt" viewBox="0 0 144.000000 147.000000"
 preserveAspectRatio="xMidYMid meet">
<metadata>
Created by potrace 1.16, written by Peter Selinger 2001-2019
</metadata>
<g transform="translate(0.000000,147.000000) scale(0.100000,-0.100000)"
fill="#000000" stroke="none">
<path d="M817 1056 l-107 -111 -58 65 c-32 36 -72 80 -88 98 -29 33 -30 33
-47 14 -18 -20 -16 -22 67 -114 47 -51 86 -98 86 -103 0 -6 -26 -37 -59 -69
l-58 -58 -103 116 c-98 111 -104 116 -121 100 -23 -21 -23 -20 105 -158 l88
-96 -93 -103 c-142 -155 -133 -141 -110 -161 18 -16 21 -14 86 61 38 43 86 98
108 122 l39 43 59 -58 c33 -33 58 -64 57 -71 -2 -7 -43 -56 -92 -108 -88 -96
-89 -97 -69 -116 19 -19 20 -19 107 81 48 55 90 100 94 100 4 0 59 -52 122
-115 63 -63 116 -112 118 -110 3 3 -41 59 -97 125 -56 67 -104 127 -106 133
-3 7 22 41 55 77 l60 65 136 -138 c75 -76 138 -136 141 -133 3 2 -52 73 -122
156 -116 137 -126 152 -112 168 88 101 227 276 222 280 -3 3 -63 -55 -135
-129 l-129 -134 -60 65 c-33 36 -60 69 -61 73 0 4 45 61 100 127 55 65 100
121 100 124 0 15 -23 -5 -123 -108z m-47 -251 l65 -65 -66 -66 -66 -66 -58 66
-57 66 53 64 c30 36 56 65 59 65 3 1 35 -28 70 -64z"/>
</g>
</svg>
