<?xml version="1.0" standalone="no"?>
<!DOCTYPE svg PUBLIC "-//W3C//DTD SVG 20010904//EN"
 "http://www.w3.org/TR/2001/REC-SVG-20010904/DTD/svg10.dtd">
<svg version="1.0" xmlns="http://www.w3.org/2000/svg"
 width="194.000000pt" height="142.000000pt" viewBox="0 0 194.000000 142.000000"
 preserveAspectRatio="xMidYMid meet">
<metadata>
Created by potrace 1.16, written by Peter Selinger 2001-2019
</metadata>
<g transform="translate(0.000000,142.000000) scale(0.100000,-0.100000)"
fill="#000000" stroke="none">
<path d="M847 1051 c-35 -38 -73 -83 -83 -101 l-19 -32 -70 6 c-38 3 -139 9
-222 12 l-153 7 0 -152 c0 -114 3 -151 13 -152 43 -2 224 3 288 7 l76 6 7 -34
c3 -18 17 -55 31 -81 l26 -47 -205 7 c-188 6 -206 5 -212 -11 -4 -9 -5 -19 -2
-21 2 -2 99 -1 216 3 l213 7 43 -50 c24 -28 68 -68 98 -88 l54 -38 250 144
c364 209 444 257 444 265 0 8 -37 30 -420 252 -140 81 -267 150 -281 153 -23
6 -35 -2 -92 -62z m353 -121 c129 -70 277 -149 329 -175 l94 -47 -169 -87
c-93 -48 -249 -131 -348 -186 -139 -77 -182 -96 -195 -88 -36 22 -136 152
-168 219 -29 60 -34 83 -34 140 0 57 5 78 35 138 19 39 67 108 106 154 65 76
73 81 93 71 12 -7 128 -69 257 -139z m-642 -26 c21 -6 22 -11 22 -120 l0 -114
-38 0 -38 0 3 68 c5 102 14 172 21 172 4 0 17 -3 30 -6z m-168 -109 c0 -58 0
-108 0 -112 0 -5 -16 -9 -36 -11 l-37 -3 6 38 c4 21 7 73 7 116 l0 77 30 0 30
0 0 -105z m90 -10 l0 -115 -30 0 -30 0 0 63 c0 34 3 86 6 115 6 46 9 52 30 52
24 0 24 -1 24 -115z m223 59 c-14 -30 -27 -82 -30 -115 -6 -59 -6 -59 -37 -59
l-32 0 3 93 c6 141 4 137 68 137 l54 0 -26 -56z"/>
</g>
</svg>
