<?xml version="1.0" standalone="no"?>
<!DOCTYPE svg PUBLIC "-//W3C//DTD SVG 20010904//EN"
 "http://www.w3.org/TR/2001/REC-SVG-20010904/DTD/svg10.dtd">
<svg version="1.0" xmlns="http://www.w3.org/2000/svg"
 width="197.000000pt" height="142.000000pt" viewBox="0 0 197.000000 142.000000"
 preserveAspectRatio="xMidYMid meet">
<metadata>
Created by potrace 1.16, written by Peter Selinger 2001-2019
</metadata>
<g transform="translate(0.000000,142.000000) scale(0.100000,-0.100000)"
fill="#000000" stroke="none">
<path d="M880 1109 c0 -6 -7 -8 -16 -5 -19 7 -108 -42 -259 -145 -132 -90
-195 -147 -253 -227 -43 -60 -47 -72 -47 -122 1 -109 98 -261 191 -296 62 -24
195 -15 289 19 105 37 593 259 725 329 128 67 125 66 118 73 -4 5 -167 -64
-660 -280 -101 -44 -178 -83 -178 -90 0 -34 -245 -33 -299 2 -71 44 -151 195
-151 283 0 55 134 177 361 327 69 46 131 83 137 83 6 0 14 -10 17 -22 4 -13
38 -88 75 -168 37 -80 71 -154 76 -165 6 -16 9 -11 13 24 l6 43 200 78 c110
43 227 89 259 104 33 15 63 23 67 19 3 -5 17 -39 29 -78 44 -136 90 -229 90
-182 0 18 -82 290 -91 300 -4 5 -17 2 -30 -6 -13 -8 -96 -40 -185 -72 l-161
-57 -104 45 c-57 24 -122 50 -143 58 -30 11 -43 23 -57 54 -10 22 -16 41 -15
43 2 1 34 -9 72 -24 72 -28 214 -74 227 -74 12 0 8 17 -5 23 -145 61 -283 117
-290 117 -4 0 -8 -5 -8 -11z m188 -209 l104 -37 -84 -30 -83 -31 -26 52 c-35
68 -45 101 -28 91 7 -5 60 -25 117 -45z"/>
<path d="M600 880 c-13 -8 -8 -23 29 -97 24 -48 67 -129 97 -180 l53 -92 -37
-12 c-20 -6 -78 -13 -128 -16 l-91 -5 -37 32 c-21 19 -52 65 -75 112 -33 68
-41 77 -49 62 -13 -24 32 -122 83 -181 60 -71 130 -78 277 -28 37 12 70 20 74
16 15 -14 -13 54 -89 214 -44 94 -83 173 -86 177 -4 4 -13 3 -21 -2z"/>
</g>
</svg>
