<?xml version="1.0" standalone="no"?>
<!DOCTYPE svg PUBLIC "-//W3C//DTD SVG 20010904//EN"
 "http://www.w3.org/TR/2001/REC-SVG-20010904/DTD/svg10.dtd">
<svg version="1.0" xmlns="http://www.w3.org/2000/svg"
 width="194.000000pt" height="194.000000pt" viewBox="0 0 194.000000 194.000000"
 preserveAspectRatio="xMidYMid meet">
<metadata>
Created by potrace 1.16, written by Peter Selinger 2001-2019
</metadata>
<g transform="translate(0.000000,194.000000) scale(0.100000,-0.100000)"
fill="#000000" stroke="none">
<path d="M846 1373 l6 -263 -274 0 -275 0 1 -136 1 -136 273 4 272 3 0 -40 c1
-117 12 -463 16 -483 4 -22 7 -23 117 -20 l112 3 5 267 c3 146 7 268 10 271 3
2 115 8 250 11 135 4 253 9 263 12 15 5 17 19 17 114 0 103 -1 108 -22 114
-13 3 -132 6 -265 6 l-243 0 0 269 0 268 -135 -1 -135 -1 6 -262z m157 230
l67 -6 0 -53 c0 -61 6 -59 -112 -47 l-68 6 0 53 c0 61 -6 59 113 47z m65 -185
c-2 -29 -6 -52 -10 -50 -5 1 -44 2 -88 2 l-80 0 0 44 c0 50 -6 48 123 54 l58
3 -3 -53z m2 -129 l0 -52 -61 7 c-34 3 -75 6 -90 6 -28 0 -29 2 -29 45 l0 45
90 0 90 0 0 -51z m0 -129 l0 -60 -37 0 c-21 0 -62 3 -90 6 l-53 7 0 48 c0 54
1 55 118 58 l62 1 0 -60z m265 -92 c2 -7 5 -52 8 -100 l3 -88 -54 0 -55 0 7
46 c3 26 6 68 6 95 0 44 2 48 28 52 49 7 53 7 57 -5z m133 -90 l3 -98 -57 0
c-47 0 -55 3 -50 16 3 9 6 54 6 100 l0 85 48 -3 47 -3 3 -97z m146 56 c3 -26
6 -73 6 -105 l0 -59 -66 0 -67 0 7 53 c3 28 6 76 6 105 l0 52 54 0 53 0 7 -46z
m-1064 -31 c0 -38 3 -78 6 -90 6 -22 4 -23 -49 -23 l-55 0 5 78 c6 103 6 102
53 102 l40 0 0 -67z m128 -31 l3 -93 -52 3 -52 3 2 85 c1 46 5 88 8 93 2 4 24
7 46 5 l42 -3 3 -93z m172 3 l0 -95 -69 0 c-39 0 -72 3 -74 8 -3 4 -3 46 0 95
l6 87 68 0 69 0 0 -95z m220 0 l0 -96 -92 3 c-108 3 -104 -1 -93 115 l7 73 89
0 89 0 0 -95z m150 0 l0 -96 -55 3 c-30 2 -55 6 -55 11 0 4 0 45 0 92 l0 85
55 0 55 0 0 -95z m-790 0 l0 -85 -50 0 c-57 0 -55 -4 -44 109 l7 61 43 0 44 0
0 -85z m643 -197 c3 -40 5 -74 3 -76 -2 -2 -47 0 -100 4 l-96 7 0 62 c0 34 3
65 7 68 3 4 45 7 93 7 l87 0 6 -72z m7 -154 c0 -54 -1 -56 -22 -50 -13 3 -58
6 -100 6 l-78 0 0 44 c0 51 1 52 128 55 l72 1 0 -56z m0 -125 l0 -52 -52 7
c-29 3 -74 6 -100 6 l-48 0 0 45 0 45 100 0 100 0 0 -51z m0 -118 l0 -48 -46
-7 c-26 -3 -73 -6 -105 -6 -49 0 -57 2 -54 18 2 9 4 31 4 49 1 37 8 40 124 42
l77 1 0 -49z"/>
</g>
</svg>
