<?xml version="1.0" standalone="no"?>
<!DOCTYPE svg PUBLIC "-//W3C//DTD SVG 20010904//EN"
 "http://www.w3.org/TR/2001/REC-SVG-20010904/DTD/svg10.dtd">
<svg version="1.0" xmlns="http://www.w3.org/2000/svg"
 width="102.000000pt" height="147.000000pt" viewBox="0 0 102.000000 147.000000"
 preserveAspectRatio="xMidYMid meet">
<metadata>
Created by potrace 1.16, written by Peter Selinger 2001-2019
</metadata>
<g transform="translate(0.000000,147.000000) scale(0.100000,-0.100000)"
fill="#000000" stroke="none">
<path d="M405 1036 c-35 -72 -68 -149 -75 -171 -6 -22 -16 -50 -22 -62 -8 -16
-4 -43 16 -115 32 -114 80 -213 146 -304 27 -38 50 -72 50 -76 0 -5 7 -8 17
-8 9 0 14 3 11 6 -3 3 14 37 38 76 76 124 134 296 134 398 0 40 -54 157 -132
287 -56 93 -63 102 -91 101 -28 -1 -33 -8 -92 -132z m143 27 c22 -32 53 -83
70 -113 l31 -55 -109 3 c-99 4 -110 2 -110 -13 0 -15 12 -17 117 -14 l117 4
10 -28 c9 -25 -6 -187 -20 -209 -3 -5 -55 -5 -115 -2 -108 7 -109 7 -109 -15
0 -22 1 -22 110 -15 l110 7 -11 -32 -12 -33 -98 4 c-81 2 -99 0 -102 -12 -4
-22 -46 92 -69 192 l-20 87 51 108 c63 130 99 193 111 193 5 0 27 -26 48 -57z
m61 -560 c-20 -56 -72 -163 -78 -163 -6 0 -61 95 -61 104 0 3 25 8 55 11 71 9
61 25 -15 25 -49 0 -61 4 -70 20 -10 18 -6 19 62 23 40 1 83 4 95 5 21 2 22 0
12 -25z"/>
<path d="M430 975 c0 -16 59 -21 120 -9 49 10 16 24 -57 24 -49 0 -63 -3 -63
-15z"/>
<path d="M430 795 c0 -12 18 -15 103 -15 113 0 158 13 81 24 -26 3 -78 6 -115
6 -55 0 -69 -3 -69 -15z"/>
<path d="M430 700 c0 -23 0 -23 107 -16 101 6 122 10 112 20 -2 2 -52 7 -111
11 -108 7 -108 7 -108 -15z"/>
</g>
</svg>
