<?xml version="1.0" standalone="no"?>
<!DOCTYPE svg PUBLIC "-//W3C//DTD SVG 20010904//EN"
 "http://www.w3.org/TR/2001/REC-SVG-20010904/DTD/svg10.dtd">
<svg version="1.0" xmlns="http://www.w3.org/2000/svg"
 width="171.000000pt" height="127.000000pt" viewBox="0 0 171.000000 127.000000"
 preserveAspectRatio="xMidYMid meet">
<metadata>
Created by potrace 1.16, written by Peter Selinger 2001-2019
</metadata>
<g transform="translate(0.000000,127.000000) scale(0.100000,-0.100000)"
fill="#000000" stroke="none">
<path d="M304 935 c-4 -22 -4 -166 -1 -322 4 -240 7 -285 21 -298 14 -15 71
-16 535 -13 375 2 523 6 531 14 8 8 14 107 17 316 l6 303 -47 13 c-32 8 -199
14 -550 19 l-504 6 -8 -38z m1066 -100 l0 -105 -97 0 c-54 0 -176 3 -270 7
l-173 6 0 89 c0 77 2 88 18 89 19 2 363 14 460 17 l62 2 0 -105z m-980 48 c0
-21 3 -62 6 -90 l7 -53 -32 0 -31 0 0 90 c0 89 0 90 25 90 22 0 25 -4 25 -37z
m95 -20 c3 -32 7 -73 10 -90 4 -33 3 -33 -37 -33 l-41 0 7 53 c3 28 6 69 6 90
0 33 3 37 24 37 22 0 25 -5 31 -57z m120 -10 c3 -38 8 -78 11 -90 4 -22 1 -23
-52 -23 -54 0 -56 1 -50 23 3 12 6 52 6 90 l0 67 39 0 39 0 7 -67z m105 38 c0
-15 3 -56 6 -90 l7 -61 -48 0 c-44 0 -47 1 -41 23 3 12 6 52 6 90 l0 67 35 0
c32 0 35 -3 35 -29z m80 -61 l0 -90 -26 0 c-26 0 -27 1 -20 46 3 26 6 66 6 90
0 37 3 44 20 44 19 0 20 -7 20 -90z m446 -215 l9 -95 -43 0 -43 0 2 83 c2 101
4 107 38 107 28 0 28 0 37 -95z m136 0 l3 -95 -59 0 -58 0 6 31 c3 17 6 60 6
95 l0 64 49 0 50 0 3 -95z m-580 0 l3 -85 -227 0 -228 0 0 80 0 80 183 3 c100
1 201 3 224 5 l42 2 3 -85z m118 61 c0 -12 3 -51 6 -85 l7 -61 -47 0 -46 0 0
85 0 85 40 0 c35 0 40 -3 40 -24z m100 -38 c0 -35 3 -73 6 -85 6 -21 3 -23
-36 -23 -42 0 -42 0 -36 31 3 17 6 56 6 85 0 53 0 54 30 54 l30 0 0 -62z m122
-25 c3 -49 4 -90 2 -92 -2 -2 -24 0 -49 3 -43 7 -45 9 -45 39 0 18 3 56 6 85
l7 52 37 0 37 0 5 -87z m248 -204 l0 -92 -92 7 c-50 3 -176 6 -280 6 l-188 0
0 49 c0 27 3 62 6 79 l6 31 142 4 c77 1 201 4 274 5 l132 2 0 -91z m-996 69
c3 -7 7 -41 10 -75 l6 -63 -35 0 -35 0 0 68 c0 38 3 72 7 75 11 12 43 8 47 -5z
m100 -34 c13 -100 7 -115 -42 -106 -21 4 -23 9 -18 35 3 16 6 49 6 73 0 40 2
44 24 44 20 0 24 -6 30 -46z m120 0 c3 -26 6 -62 6 -80 0 -34 -1 -34 -45 -34
l-45 0 0 73 c0 41 3 77 7 80 3 4 21 7 38 7 31 0 33 -2 39 -46z m106 12 c0 -18
3 -54 6 -80 l7 -46 -42 0 -41 0 0 73 c0 41 3 77 7 80 3 4 19 7 35 7 25 0 28
-3 28 -34z m90 -46 l0 -80 -31 0 c-28 0 -31 3 -25 23 3 12 6 48 6 80 0 54 1
57 25 57 25 0 25 -1 25 -80z"/>
</g>
</svg>
