<?xml version="1.0" standalone="no"?>
<!DOCTYPE svg PUBLIC "-//W3C//DTD SVG 20010904//EN"
 "http://www.w3.org/TR/2001/REC-SVG-20010904/DTD/svg10.dtd">
<svg version="1.0" xmlns="http://www.w3.org/2000/svg"
 width="181.000000pt" height="119.000000pt" viewBox="0 0 181.000000 119.000000"
 preserveAspectRatio="xMidYMid meet">
<metadata>
Created by potrace 1.16, written by Peter Selinger 2001-2019
</metadata>
<g transform="translate(0.000000,119.000000) scale(0.100000,-0.100000)"
fill="#000000" stroke="none">
<path d="M304 854 c-4 -21 -4 -148 -1 -281 5 -205 8 -246 22 -259 14 -15 72
-16 585 -12 439 3 573 7 582 16 10 10 14 83 16 281 l4 268 -29 7 c-15 3 -285
9 -600 13 l-572 6 -7 -39z m1026 -62 l0 -67 -192 3 c-106 2 -197 5 -203 6 -6
2 -9 28 -7 59 l4 56 136 4 c76 1 165 4 200 5 l62 2 0 -68z m140 -2 l0 -70 -55
0 -55 0 0 54 c0 80 4 86 61 86 l49 0 0 -70z m-1010 -6 l0 -54 -55 0 -55 0 0
54 c0 30 5 56 10 58 6 2 31 2 55 0 l45 -4 0 -54z m340 6 l0 -60 -150 0 -150 0
0 60 0 60 150 0 150 0 0 -60z m90 0 l0 -60 -30 0 -30 0 0 60 0 60 30 0 30 0 0
-60z m440 -205 l0 -115 -205 0 -205 0 2 110 3 109 75 3 c41 2 132 4 203 6
l127 3 0 -116z m144 -2 c3 -64 5 -117 4 -118 -2 0 -29 1 -60 3 l-58 4 0 114 0
114 53 0 54 0 7 -117z m-1010 30 c12 -143 16 -133 -59 -133 l-65 0 0 105 0
105 59 0 58 0 7 -77z m336 -28 l0 -105 -150 0 -150 0 0 105 0 105 150 0 150 0
0 -105z m92 10 c0 -52 1 -101 2 -107 1 -8 -12 -13 -31 -14 l-33 -1 0 109 0
108 30 0 30 0 2 -95z m448 -211 l0 -54 -210 0 -210 0 0 55 0 55 203 2 c111 2
205 2 210 0 4 -2 7 -28 7 -58z m143 4 c3 -35 5 -63 4 -64 -1 0 -31 1 -67 4
l-65 4 3 59 4 59 57 0 58 0 6 -62z m-677 6 c4 -28 2 -50 -4 -56 -7 -7 -60 -8
-161 -3 l-151 7 0 44 0 43 98 4 c53 1 123 4 154 5 l57 2 7 -46z m94 -9 l0 -55
-41 0 -42 0 7 38 c3 20 6 45 6 55 0 13 8 17 35 17 l35 0 0 -55z m-430 1 c0
-24 -4 -46 -10 -48 -5 -1 -37 -1 -70 0 -58 4 -60 5 -60 32 0 55 7 60 76 60
l64 0 0 -44z"/>
</g>
</svg>
