<?xml version="1.0" standalone="no"?>
<!DOCTYPE svg PUBLIC "-//W3C//DTD SVG 20010904//EN"
 "http://www.w3.org/TR/2001/REC-SVG-20010904/DTD/svg10.dtd">
<svg version="1.0" xmlns="http://www.w3.org/2000/svg"
 width="171.000000pt" height="127.000000pt" viewBox="0 0 171.000000 127.000000"
 preserveAspectRatio="xMidYMid meet">
<metadata>
Created by potrace 1.16, written by Peter Selinger 2001-2019
</metadata>
<g transform="translate(0.000000,127.000000) scale(0.100000,-0.100000)"
fill="#000000" stroke="none">
<path d="M304 935 c-4 -22 -4 -166 -1 -322 4 -240 7 -285 21 -298 14 -15 71
-16 535 -13 374 2 523 6 531 14 8 8 14 107 17 316 l6 303 -47 13 c-32 8 -199
14 -550 19 l-504 6 -8 -38z m1066 -143 l0 -149 -247 4 c-137 2 -258 6 -270 9
-22 4 -23 8 -23 134 0 117 2 130 18 131 19 2 363 14 460 17 l62 2 0 -148z
m-974 -2 l9 -130 -32 0 -33 0 0 130 c0 130 0 130 24 130 23 0 23 -3 32 -130z
m88 73 c3 -32 8 -91 12 -130 l6 -73 -42 0 -43 0 7 77 c3 42 6 100 6 130 0 49
2 53 24 53 22 0 25 -5 30 -57z m120 -8 c3 -36 9 -94 12 -130 l6 -65 -51 0 -51
0 0 130 0 130 39 0 39 0 6 -65z m111 -47 c3 -62 9 -121 11 -130 5 -15 -2 -18
-43 -18 l-48 0 3 130 3 130 33 0 34 0 7 -112z m75 -18 l0 -130 -26 0 c-27 0
-27 0 -20 61 3 34 6 93 6 130 0 62 2 69 20 69 19 0 20 -7 20 -130z m584 -252
c3 -50 6 -120 6 -155 l0 -63 -55 0 -55 0 0 148 c0 82 3 152 7 155 3 4 25 7 48
7 l42 0 7 -92z m-362 -23 c4 -55 9 -119 11 -142 l5 -43 -39 0 -39 0 0 138 c0
76 3 142 7 146 4 4 16 6 28 4 18 -3 21 -13 27 -103z m120 -10 c4 -60 9 -125
12 -142 l5 -33 -55 0 -54 0 0 63 c0 34 3 99 7 145 l6 83 36 -3 36 -3 7 -110z
m101 53 c4 -35 10 -100 13 -145 l7 -83 -47 0 -46 0 0 114 c0 154 5 176 40 176
26 0 27 -3 33 -62z m-439 0 c3 -29 6 -93 6 -142 l0 -88 -230 4 c-126 2 -232 7
-236 10 -3 4 -3 65 1 137 l8 131 222 0 222 0 7 -52z m119 -10 c4 -35 9 -98 13
-140 l7 -78 -58 0 -58 0 7 92 c3 50 6 113 6 140 l0 48 39 0 38 0 6 -62z"/>
</g>
</svg>
