<?xml version="1.0" standalone="no"?>
<!DOCTYPE svg PUBLIC "-//W3C//DTD SVG 20010904//EN"
 "http://www.w3.org/TR/2001/REC-SVG-20010904/DTD/svg10.dtd">
<svg version="1.0" xmlns="http://www.w3.org/2000/svg"
 width="171.000000pt" height="127.000000pt" viewBox="0 0 171.000000 127.000000"
 preserveAspectRatio="xMidYMid meet">
<metadata>
Created by potrace 1.16, written by Peter Selinger 2001-2019
</metadata>
<g transform="translate(0.000000,127.000000) scale(0.100000,-0.100000)"
fill="#000000" stroke="none">
<path d="M304 935 c-4 -22 -4 -166 -1 -322 4 -240 7 -285 21 -298 14 -15 71
-16 535 -13 369 2 523 6 531 14 8 8 13 111 17 315 l6 304 -47 13 c-32 8 -199
14 -550 19 l-504 6 -8 -38z m1066 -100 l0 -105 -60 0 -59 0 -26 83 c-14 46
-25 88 -25 95 0 14 -36 16 -44 3 -3 -5 8 -47 24 -95 l29 -87 -61 3 -62 3 -27
90 c-17 58 -32 91 -42 93 -27 5 -27 -13 -2 -94 14 -43 25 -81 25 -84 0 -3 -28
-3 -61 0 l-61 5 -26 83 c-14 45 -22 85 -18 90 4 4 92 10 194 13 103 3 213 6
245 7 l57 2 0 -105z m-1012 79 c-3 -3 5 -40 18 -82 13 -42 24 -80 24 -84 0 -5
-13 -8 -30 -8 l-30 0 0 90 c0 62 4 90 12 90 6 0 9 -3 6 -6z m145 0 c-8 -4 -3
-30 17 -90 l29 -85 -51 3 -51 3 -23 79 c-13 44 -24 84 -24 88 0 4 26 8 58 7
31 0 52 -3 45 -5z m163 -3 c-3 -5 6 -41 19 -82 14 -40 25 -76 25 -81 0 -4 -27
-8 -60 -8 l-59 0 -26 83 c-14 46 -25 86 -25 90 0 4 30 7 66 7 36 0 63 -4 60
-9z m162 -14 c1 -12 11 -49 22 -81 11 -33 20 -63 20 -68 0 -10 -107 -11 -113
0 -3 4 -16 44 -30 90 l-25 82 62 0 c57 0 62 -2 64 -23z m419 -284 l32 -93 -64
0 -64 0 -10 38 c-6 20 -17 60 -26 87 -8 28 -15 51 -15 52 0 3 73 10 95 9 16
-1 26 -20 52 -93z m125 2 l3 -95 -31 0 c-30 0 -31 2 -57 89 -15 50 -27 92 -27
95 0 4 24 6 54 6 l55 0 3 -95z m-645 73 c10 -13 53 -135 53 -150 0 -4 -29 -8
-63 -8 l-64 0 -21 74 c-12 41 -22 77 -22 80 0 3 21 7 48 9 26 2 50 4 53 5 4 1
11 -4 16 -10z m190 -73 l30 -85 -63 0 -63 0 -24 78 c-13 42 -22 80 -20 85 2 4
28 7 57 7 l53 0 30 -85z m167 -1 c15 -47 26 -87 24 -88 -1 -2 -31 -1 -65 2
-62 4 -63 5 -73 41 -5 20 -16 57 -24 84 l-15 47 62 0 63 0 28 -86z m-634 -6
l29 -78 -70 0 -69 0 0 81 0 80 41 -3 41 -3 28 -77z m142 0 l27 -78 -54 0 -54
0 -15 53 c-8 28 -18 65 -22 80 l-6 28 48 -3 49 -3 27 -77z m726 -195 c18 -48
30 -89 27 -91 -2 -2 -35 -1 -74 3 l-69 7 -21 77 c-12 43 -21 80 -21 84 0 4 29
7 64 7 l63 0 31 -87z m62 -3 c0 -49 -4 -90 -8 -90 -5 0 -16 30 -25 68 -9 37
-19 77 -23 90 -6 19 -3 22 25 22 l31 0 0 -90z m-859 0 c16 -41 29 -76 29 -78
0 -4 -70 -2 -152 5 l-68 5 0 58 c0 91 1 91 88 88 l75 -3 28 -75z m141 0 c15
-41 28 -76 28 -78 0 -2 -28 -2 -62 0 l-62 3 -18 60 c-28 94 -27 97 34 93 l52
-3 28 -75z m168 -3 l27 -78 -76 3 -76 3 -17 60 c-27 98 -28 96 48 93 l66 -3
28 -78z m162 1 l28 -78 -74 0 -74 0 -16 63 c-8 35 -18 72 -22 81 -6 15 1 17
62 14 l68 -3 28 -77z m162 11 c14 -38 26 -74 26 -80 0 -5 -33 -9 -73 -9 l-72
0 -21 80 -22 80 68 0 68 0 26 -71z"/>
</g>
</svg>
