<?xml version="1.0" standalone="no"?>
<!DOCTYPE svg PUBLIC "-//W3C//DTD SVG 20010904//EN"
 "http://www.w3.org/TR/2001/REC-SVG-20010904/DTD/svg10.dtd">
<svg version="1.0" xmlns="http://www.w3.org/2000/svg"
 width="102.000000pt" height="147.000000pt" viewBox="0 0 102.000000 147.000000"
 preserveAspectRatio="xMidYMid meet">
<metadata>
Created by potrace 1.16, written by Peter Selinger 2001-2019
</metadata>
<g transform="translate(0.000000,147.000000) scale(0.100000,-0.100000)"
fill="#000000" stroke="none">
<path d="M405 1036 c-35 -72 -68 -149 -75 -171 -6 -22 -16 -50 -22 -62 -8 -16
-4 -43 16 -115 32 -114 80 -213 146 -304 27 -38 50 -72 50 -76 0 -5 7 -8 17
-8 9 0 14 3 11 6 -3 3 14 37 38 76 76 124 134 296 134 398 0 40 -54 157 -132
287 -56 93 -63 102 -91 101 -28 -1 -33 -8 -92 -132z m143 27 c80 -119 132
-219 132 -255 0 -57 -29 -195 -56 -267 -34 -89 -85 -201 -93 -201 -4 0 -33 50
-66 112 l-59 112 52 -43 c29 -25 55 -42 58 -39 3 3 -18 31 -47 62 -82 88 -95
111 -113 196 l-18 80 52 107 c62 130 98 193 110 193 5 0 27 -26 48 -57z"/>
<path d="M420 882 c0 -24 155 -181 167 -169 3 4 -16 30 -43 59 -27 29 -61 68
-76 86 -25 30 -48 42 -48 24z"/>
<path d="M350 811 c0 -27 153 -181 167 -168 6 7 -148 177 -159 177 -5 0 -8 -4
-8 -9z"/>
</g>
</svg>
