<?xml version="1.0" standalone="no"?>
<!DOCTYPE svg PUBLIC "-//W3C//DTD SVG 20010904//EN"
 "http://www.w3.org/TR/2001/REC-SVG-20010904/DTD/svg10.dtd">
<svg version="1.0" xmlns="http://www.w3.org/2000/svg"
 width="189.000000pt" height="310.000000pt" viewBox="0 0 189.000000 310.000000"
 preserveAspectRatio="xMidYMid meet">
<metadata>
Created by potrace 1.16, written by Peter Selinger 2001-2019
</metadata>
<g transform="translate(0.000000,310.000000) scale(0.100000,-0.100000)"
fill="#000000" stroke="none">
<path d="M627 2793 c-20 -19 4 -35 116 -76 67 -25 141 -50 163 -56 l42 -11
-24 -75 c-13 -42 -24 -87 -24 -101 0 -14 -3 -24 -7 -22 -56 29 -153 69 -211
89 -63 21 -74 22 -82 9 -6 -8 -8 -75 -6 -150 3 -107 6 -135 17 -134 8 1 79 23
157 49 79 25 145 45 145 43 26 -52 50 -93 84 -139 51 -70 104 -94 208 -94 74
1 113 15 202 76 68 47 130 205 120 308 -6 67 -32 137 -54 145 -25 10 -26 1 -4
-43 49 -96 48 -147 -5 -298 l-26 -73 -90 -45 c-50 -25 -104 -45 -121 -45 l-30
0 6 152 c4 83 7 214 7 291 l0 139 48 -7 c26 -3 80 -18 121 -31 88 -30 106 -24
30 10 -96 42 -148 56 -212 56 -78 0 -194 -39 -221 -74 l-19 -25 -38 19 c-31
16 -277 120 -284 120 -1 0 -5 -3 -8 -7z m547 -330 c4 -148 10 -279 13 -292 5
-22 4 -23 -28 -16 -19 4 -59 20 -90 35 -52 27 -57 33 -94 111 -49 106 -52 167
-10 286 21 63 34 84 54 93 25 12 129 48 142 49 3 1 9 -119 13 -266z m-392 6
c110 -32 117 -36 121 -62 3 -23 -1 -28 -22 -33 -14 -3 -79 -18 -145 -33 l-118
-29 6 30 c3 17 6 62 6 100 0 62 2 70 18 66 9 -3 70 -20 134 -39z"/>
<path d="M300 2130 l0 -22 215 7 215 7 0 -38 0 -39 -215 4 -215 3 0 -22 0 -23
215 8 215 7 0 -34 0 -33 -215 3 c-213 4 -215 4 -215 -17 0 -20 5 -21 93 -20
50 0 147 4 215 7 105 6 122 5 122 -8 0 -8 3 -26 7 -39 l6 -24 -221 7 -222 7 0
-24 0 -25 93 4 c50 2 149 6 220 8 l127 5 0 -33 0 -32 -57 3 c-32 1 -131 4
-220 6 l-163 4 0 -24 0 -24 158 6 c86 3 185 8 220 11 61 4 62 4 62 -21 0 -37
-3 -40 -30 -39 -14 1 -110 3 -215 4 -189 2 -190 2 -193 -20 l-4 -23 184 7
c100 4 202 9 226 13 39 5 42 4 43 -18 0 -22 1 -23 9 -4 5 11 9 126 9 256 l1
236 -235 2 -235 2 0 -21z"/>
<path d="M780 1930 l0 -23 222 7 c122 4 224 9 227 11 13 14 -28 18 -229 23
l-220 5 0 -23z"/>
<path d="M1203 1400 c-23 -5 -70 -21 -105 -36 -60 -25 -69 -26 -220 -24 -157
2 -158 2 -158 -20 0 -22 1 -22 148 -18 l148 4 -27 -75 -26 -74 -122 2 -122 2
3 -146 3 -147 125 1 c69 1 141 4 160 7 32 4 38 1 63 -35 24 -35 38 -44 98 -62
47 -14 86 -20 115 -16 77 8 233 98 240 138 1 8 15 43 30 79 22 51 28 81 28
140 1 82 -23 164 -51 174 -24 10 -25 3 -3 -42 48 -99 47 -148 -6 -299 l-25
-71 -82 -41 c-45 -23 -100 -45 -121 -48 l-39 -6 6 138 c4 76 7 208 7 293 l0
155 49 -7 c27 -3 81 -18 121 -31 41 -14 75 -23 78 -21 6 7 -86 51 -143 69 -69
22 -122 27 -172 17z m28 -157 c0 -71 4 -200 8 -288 4 -88 6 -162 5 -164 -6 -8
-103 31 -139 56 -30 21 -36 28 -22 31 25 5 21 22 -7 22 -19 0 -28 11 -49 58
-28 65 -41 124 -32 152 5 16 15 20 56 20 27 0 49 5 49 10 0 6 -23 10 -51 10
-37 0 -50 4 -47 13 3 6 15 42 28 80 20 55 28 67 46 67 12 0 24 7 27 15 5 13
82 42 115 44 9 1 12 -31 13 -126z m-271 -165 c0 -27 11 -67 30 -107 17 -35 29
-65 28 -67 -2 -1 -63 0 -136 3 l-132 6 0 97 c0 53 3 100 7 103 3 4 51 7 105 7
l98 0 0 -42z"/>
<path d="M330 789 l0 -22 215 6 215 6 0 -40 0 -39 -215 6 -215 7 0 -23 0 -23
215 5 215 6 0 -34 0 -33 -215 6 -215 6 0 -23 0 -23 218 4 217 4 3 -35 3 -36
-221 4 -220 4 0 -22 0 -23 220 8 220 7 0 -30 0 -29 -220 5 -220 5 0 -23 0 -23
219 7 c197 6 219 6 225 -9 17 -45 19 -44 -219 -38 l-225 6 0 -23 0 -23 225 7
c199 6 225 5 225 -9 0 -8 5 -15 10 -15 6 0 10 91 10 253 l0 252 -235 3 -235 4
0 -23z"/>
<path d="M810 590 l0 -23 220 5 c198 5 243 9 229 22 -2 2 -104 7 -226 11
l-223 8 0 -23z"/>
</g>
</svg>
