<?xml version="1.0" standalone="no"?>
<!DOCTYPE svg PUBLIC "-//W3C//DTD SVG 20010904//EN"
 "http://www.w3.org/TR/2001/REC-SVG-20010904/DTD/svg10.dtd">
<svg version="1.0" xmlns="http://www.w3.org/2000/svg"
 width="144.000000pt" height="136.000000pt" viewBox="0 0 144.000000 136.000000"
 preserveAspectRatio="xMidYMid meet">
<metadata>
Created by potrace 1.16, written by Peter Selinger 2001-2019
</metadata>
<g transform="translate(0.000000,136.000000) scale(0.100000,-0.100000)"
fill="#000000" stroke="none">
<path d="M395 1018 c-51 -52 -84 -135 -92 -230 l-6 -68 182 0 c169 0 181 1
181 18 0 17 12 20 107 25 58 4 161 7 227 7 67 0 127 4 134 9 14 9 -197 21
-368 21 l-107 0 -7 39 c-3 22 -9 46 -12 55 -5 14 7 16 98 16 158 0 408 12 408
20 0 4 -118 10 -262 13 -235 6 -264 9 -273 24 -5 10 -26 35 -46 55 -31 32 -43
38 -79 38 -37 0 -48 -6 -85 -42z m125 17 c25 -13 70 -63 70 -79 0 -3 -40 -6
-90 -6 -83 0 -90 -2 -90 -20 0 -18 8 -20 103 -22 l102 -3 12 -49 c7 -28 11
-52 9 -54 -2 -2 -22 8 -43 22 -72 48 -179 44 -243 -10 -28 -24 -30 -24 -30 -6
0 44 42 154 72 188 48 54 80 64 128 39z"/>
<path d="M413 653 c-3 -8 -25 -13 -61 -13 l-55 0 6 -68 c8 -95 41 -178 92
-229 36 -37 48 -43 83 -43 54 0 96 36 133 115 16 33 29 65 29 72 0 8 49 12
178 12 97 1 211 4 252 8 l75 7 -55 7 c-30 4 -142 7 -249 8 l-193 1 6 31 c3 17
6 40 6 50 0 18 10 19 143 19 163 0 340 10 331 19 -3 3 -166 8 -361 11 -279 4
-357 2 -360 -7z m-14 -142 c30 -21 41 -23 128 -19 l95 5 -6 -30 c-10 -47 -54
-116 -89 -138 -44 -27 -83 -18 -129 30 -35 37 -78 143 -78 194 0 20 0 20 23 1
12 -11 37 -30 56 -43z m238 34 c-4 -8 -14 -15 -23 -15 -16 0 -16 2 1 20 20 22
31 20 22 -5z"/>
</g>
</svg>
