<?xml version="1.0" standalone="no"?>
<!DOCTYPE svg PUBLIC "-//W3C//DTD SVG 20010904//EN"
 "http://www.w3.org/TR/2001/REC-SVG-20010904/DTD/svg10.dtd">
<svg version="1.0" xmlns="http://www.w3.org/2000/svg"
 width="147.000000pt" height="134.000000pt" viewBox="0 0 147.000000 134.000000"
 preserveAspectRatio="xMidYMid meet">
<metadata>
Created by potrace 1.16, written by Peter Selinger 2001-2019
</metadata>
<g transform="translate(0.000000,134.000000) scale(0.100000,-0.100000)"
fill="#000000" stroke="none">
<path d="M303 972 c8 -95 41 -178 92 -229 48 -49 83 -55 138 -26 27 15 66 18
242 20 116 2 253 6 305 10 160 11 48 22 -237 22 l-252 1 23 51 c13 27 25 52
27 53 2 2 121 7 264 11 242 7 275 9 264 19 -5 4 -305 16 -427 16 l-94 0 7 60
7 60 -182 0 -183 0 6 -68z m99 -57 c15 -4 32 -13 39 -21 8 -10 36 -14 96 -14
83 0 84 0 78 -22 -4 -13 -15 -36 -24 -53 -16 -28 -21 -30 -82 -30 -57 0 -64
-2 -64 -20 0 -17 7 -20 42 -20 27 0 39 -3 33 -9 -6 -6 -26 -10 -45 -10 -51 0
-99 52 -131 138 -13 37 -24 79 -24 93 l0 27 28 -26 c15 -15 39 -30 54 -33z
m233 26 c-4 -14 -15 -21 -31 -21 l-25 0 28 24 c32 27 38 27 28 -3z"/>
<path d="M397 599 c-53 -53 -86 -135 -94 -231 l-6 -68 183 0 183 0 -7 53 c-4
28 -9 67 -12 85 l-6 32 83 0 c120 0 443 12 448 16 11 10 -24 13 -274 19 -148
4 -273 10 -276 14 -3 3 -15 22 -27 42 l-22 36 297 7 c164 4 300 9 302 12 2 2
2 6 -1 9 -2 3 -167 8 -366 12 l-361 6 -44 -44z m98 1 c51 0 56 -2 80 -37 14
-21 25 -41 25 -45 0 -4 -35 -8 -77 -10 -65 -3 -78 -6 -81 -20 -3 -16 6 -18 87
-18 98 0 92 4 106 -68 l7 -33 -44 31 c-76 54 -180 51 -248 -7 -28 -23 -30 -24
-30 -5 0 49 43 155 78 194 20 22 38 35 40 29 2 -6 27 -11 57 -11z"/>
</g>
</svg>
