<?xml version="1.0" standalone="no"?>
<!DOCTYPE svg PUBLIC "-//W3C//DTD SVG 20010904//EN"
 "http://www.w3.org/TR/2001/REC-SVG-20010904/DTD/svg10.dtd">
<svg version="1.0" xmlns="http://www.w3.org/2000/svg"
 width="198.000000pt" height="117.000000pt" viewBox="0 0 198.000000 117.000000"
 preserveAspectRatio="xMidYMid meet">
<metadata>
Created by potrace 1.16, written by Peter Selinger 2001-2019
</metadata>
<g transform="translate(0.000000,117.000000) scale(0.100000,-0.100000)"
fill="#000000" stroke="none">
<path d="M870 846 c-41 -12 -115 -40 -165 -61 -87 -36 -96 -38 -245 -45 -85
-4 -156 -8 -157 -9 -7 -3 -1 -288 6 -306 7 -17 9 -17 17 -3 8 14 110 45 119
36 3 -2 1 -18 -4 -36 -12 -39 -4 -70 22 -100 16 -17 31 -22 71 -22 60 0 140
20 199 49 l41 21 64 -26 c135 -54 244 -53 376 3 34 14 151 63 260 107 110 45
202 88 204 95 4 11 -2 12 -23 7 -58 -15 -343 -119 -426 -156 -47 -21 -114 -44
-148 -50 -85 -15 -151 3 -326 90 -136 68 -142 70 -214 70 -41 0 -103 -5 -138
-11 -35 -6 -67 -9 -70 -6 -3 3 -2 49 2 101 l7 96 127 0 c110 0 135 4 196 26
233 85 273 97 341 102 78 5 91 3 431 -66 169 -34 234 -44 237 -35 7 17 -171
68 -466 132 -128 28 -240 27 -338 -3z m-205 -418 c47 -23 85 -45 85 -49 0 -3
-33 -16 -72 -28 -83 -24 -165 -27 -193 -7 -23 17 -24 66 -1 100 26 40 77 35
181 -16z"/>
</g>
</svg>
