<?xml version="1.0" standalone="no"?>
<!DOCTYPE svg PUBLIC "-//W3C//DTD SVG 20010904//EN"
 "http://www.w3.org/TR/2001/REC-SVG-20010904/DTD/svg10.dtd">
<svg version="1.0" xmlns="http://www.w3.org/2000/svg"
 width="215.000000pt" height="127.000000pt" viewBox="0 0 215.000000 127.000000"
 preserveAspectRatio="xMidYMid meet">
<metadata>
Created by potrace 1.16, written by Peter Selinger 2001-2019
</metadata>
<g transform="translate(0.000000,127.000000) scale(0.100000,-0.100000)"
fill="#000000" stroke="none">
<path d="M990 956 c0 -18 -100 -60 -195 -81 -93 -21 -235 -16 -330 11 -33 9
-70 18 -82 18 -13 1 -23 4 -23 9 0 4 -9 7 -19 7 -15 0 -22 -11 -30 -50 -15
-69 -13 -219 3 -310 8 -41 10 -79 5 -84 -10 -11 12 -67 41 -104 46 -58 85 -72
205 -72 125 0 216 20 398 89 59 22 190 65 290 96 278 86 581 186 591 196 5 5
7 11 4 15 -12 11 -827 274 -850 274 -5 0 -8 -6 -8 -14z m268 -105 c131 -39
305 -88 387 -111 83 -23 157 -43 165 -46 8 -3 -73 -30 -180 -59 -107 -30 -293
-83 -413 -119 l-218 -64 -47 29 c-64 39 -152 68 -231 75 -76 7 -224 -10 -316
-36 l-63 -18 -4 120 c-4 110 3 233 14 244 3 2 45 -6 94 -18 65 -16 121 -22
209 -22 138 -1 198 13 285 68 30 18 61 32 68 30 8 -2 120 -35 250 -73z m-418
-356 c85 -26 151 -57 147 -69 -9 -27 -295 -89 -417 -90 -72 -1 -91 3 -125 22
-42 24 -77 68 -90 112 -7 22 -6 23 8 12 13 -11 26 -10 73 4 32 9 81 20 109 25
73 12 232 3 295 -16z"/>
</g>
</svg>
