<?xml version="1.0" standalone="no"?>
<!DOCTYPE svg PUBLIC "-//W3C//DTD SVG 20010904//EN"
 "http://www.w3.org/TR/2001/REC-SVG-20010904/DTD/svg10.dtd">
<svg version="1.0" xmlns="http://www.w3.org/2000/svg"
 width="219.000000pt" height="486.000000pt" viewBox="0 0 219.000000 486.000000"
 preserveAspectRatio="xMidYMid meet">
<metadata>
Created by potrace 1.16, written by Peter Selinger 2001-2019
</metadata>
<g transform="translate(0.000000,486.000000) scale(0.100000,-0.100000)"
fill="#000000" stroke="none">
<path d="M359 4533 c-18 -45 -23 -347 -9 -475 7 -62 12 -128 11 -145 -2 -42
19 -82 65 -123 54 -47 99 -63 180 -63 59 0 79 4 124 29 63 34 122 105 146 177
22 66 11 70 -21 7 -33 -66 -97 -135 -150 -163 -29 -16 -58 -21 -106 -21 -87 0
-150 35 -181 100 -22 43 -22 44 -2 59 10 8 56 34 102 57 75 38 92 42 172 46
61 3 113 -1 167 -13 92 -20 193 -59 209 -80 9 -12 54 7 283 122 149 76 270
141 268 147 -2 5 -121 70 -266 144 l-262 134 -57 -30 c-85 -45 -202 -75 -302
-76 -76 -1 -92 2 -153 31 -46 22 -90 54 -134 98 -36 36 -67 65 -69 65 -3 0 -9
-12 -15 -27z m78 -265 c2 -100 5 -207 6 -236 2 -49 0 -54 -29 -72 l-31 -20 -7
178 c-7 162 -4 248 10 341 l5 34 21 -21 c19 -19 21 -35 25 -204z m985 1 c91
-40 165 -75 163 -77 -2 -2 -81 -39 -177 -82 -95 -42 -211 -95 -257 -117 l-84
-39 -89 45 -88 45 2 150 3 149 73 37 c41 21 78 42 84 48 6 6 42 -6 106 -37 54
-26 172 -81 264 -122z m-906 120 l34 -20 -2 -97 c-1 -53 2 -129 6 -167 l8 -70
-46 -22 -46 -21 -1 102 c-1 55 -3 112 -5 126 -4 32 7 190 14 190 2 0 20 -9 38
-21z m110 -49 l29 -10 1 -108 c0 -59 4 -119 7 -134 7 -28 7 -28 -54 -42 -25
-5 -27 -4 -33 47 -8 67 -8 221 0 241 7 19 12 19 50 6z m234 -73 c0 -41 3 -108
6 -149 l7 -76 -47 11 -46 10 0 133 0 133 33 4 c17 2 35 5 40 5 4 1 7 -31 7
-71z m-110 -32 c0 -45 3 -103 6 -129 l7 -46 -42 0 -41 0 0 113 c0 144 3 155
41 149 l29 -4 0 -83z"/>
<path d="M990 3245 c0 -18 -74 -51 -175 -77 -99 -25 -261 -21 -370 10 -38 12
-73 18 -77 16 -4 -3 -8 0 -8 5 0 21 -38 11 -44 -11 -16 -52 -18 -227 -5 -313
7 -50 12 -103 11 -118 -2 -16 7 -46 22 -71 77 -132 232 -140 551 -30 72 25
193 65 270 90 481 154 704 229 698 235 -12 11 -845 279 -867 279 -3 0 -6 -7
-6 -15z m68 -48 c32 -11 38 -21 108 -196 41 -101 73 -186 71 -187 -2 -2 -56
-19 -121 -38 l-117 -35 -47 28 c-26 16 -71 37 -99 47 -50 18 -54 22 -70 69 -9
27 -31 88 -50 134 -18 46 -32 85 -31 86 2 1 32 7 68 13 37 7 98 28 140 50 83
43 100 46 148 29z m140 -40 l44 -13 63 -145 63 -144 -28 -12 c-15 -6 -39 -13
-54 -15 -27 -3 -29 0 -83 152 -68 194 -67 190 -57 190 5 0 28 -6 52 -13z
m-798 -8 c35 -11 39 -16 101 -158 l65 -146 -80 -17 c-45 -9 -94 -21 -110 -27
-16 -7 -30 -10 -32 -8 -7 7 -7 303 0 335 9 37 6 36 56 21z m162 -155 c32 -71
58 -134 58 -141 0 -7 -8 -13 -17 -13 -14 0 -30 31 -66 128 -62 163 -63 166
-46 160 7 -2 39 -63 71 -134z m893 87 c77 -22 185 -52 240 -66 55 -15 105 -30
112 -34 6 -3 -85 -32 -203 -65 -118 -32 -216 -57 -217 -55 -2 2 -26 64 -54
137 -39 102 -47 131 -34 128 9 -3 79 -23 156 -45z m-881 33 c9 -3 16 -10 16
-15 0 -5 24 -63 54 -129 l55 -120 -28 0 c-26 0 -30 6 -64 98 -20 53 -43 114
-52 135 -15 37 -11 43 19 31z m144 -127 c29 -67 56 -128 59 -134 6 -14 -34
-18 -53 -5 -6 4 -30 59 -54 122 -23 63 -45 121 -47 128 -3 7 4 12 18 12 21 0
31 -16 77 -123z m113 -201 c68 -18 151 -57 156 -72 4 -13 -212 -68 -335 -85
-144 -20 -218 0 -266 71 -25 37 -48 100 -25 69 11 -14 16 -14 53 -1 121 42
298 50 417 18z"/>
<path d="M1017 2106 c-9 -22 -74 -52 -163 -77 -66 -18 -96 -21 -198 -16 -68 3
-147 12 -181 22 -33 9 -64 18 -70 19 -5 1 -16 5 -23 10 -43 26 -71 -128 -51
-278 6 -50 13 -116 14 -147 4 -85 44 -143 125 -184 74 -38 245 -15 459 61 69
25 212 72 316 105 357 112 647 211 638 219 -10 9 -295 103 -604 199 -125 39
-233 73 -241 76 -9 4 -18 -1 -21 -9z m58 -47 l43 -11 43 -111 c23 -62 57 -146
75 -187 23 -53 29 -77 21 -81 -7 -3 -62 -20 -123 -38 l-110 -33 -50 31 c-81
52 -164 73 -284 73 -93 -1 -243 -24 -301 -47 -15 -6 -18 7 -24 101 -8 107 -1
243 13 255 4 4 41 -2 82 -13 96 -25 280 -35 358 -18 32 6 89 29 127 50 83 45
75 43 130 29z m153 -47 c43 -17 44 -19 103 -156 33 -76 57 -142 52 -146 -10
-9 -72 -30 -89 -30 -6 0 -21 28 -32 63 -11 34 -38 113 -60 175 -26 69 -36 112
-29 111 7 0 31 -8 55 -17z m400 -114 c122 -33 221 -62 220 -63 -12 -8 -429
-117 -433 -113 -3 3 -25 56 -49 119 -24 63 -47 122 -51 131 -7 17 -4 17 41 3
27 -8 149 -43 272 -77z m-775 -254 c72 -18 167 -60 167 -73 0 -10 -212 -63
-320 -81 -147 -23 -233 -4 -283 61 -27 37 -48 93 -27 73 8 -9 27 -7 72 7 127
40 268 44 391 13z"/>
<path d="M1004 945 c-33 -35 -172 -76 -280 -82 -100 -6 -192 6 -297 39 -42 14
-71 18 -76 12 -22 -21 -33 -179 -20 -276 6 -51 13 -119 14 -151 4 -70 35 -123
95 -163 39 -26 42 -26 172 -21 142 5 189 16 388 90 52 20 163 56 245 82 281
86 645 207 645 214 0 9 -854 286 -863 280 -1 -1 -12 -12 -23 -24z m112 -48 c1
-1 34 -81 73 -177 40 -96 74 -180 77 -185 2 -6 -49 -26 -116 -46 l-121 -36
-82 42 c-114 59 -196 72 -336 57 -58 -7 -136 -20 -173 -30 l-66 -19 -7 113
c-7 112 0 240 13 248 4 2 43 -5 87 -16 58 -15 116 -21 210 -22 146 -1 203 12
297 68 51 31 54 32 97 19 25 -7 45 -14 47 -16z m232 -66 c92 -27 237 -68 322
-91 85 -23 158 -45 163 -49 4 -4 -16 -13 -45 -20 -29 -8 -154 -42 -277 -77
-124 -35 -225 -63 -226 -61 -1 1 -18 49 -37 107 -20 58 -47 135 -61 173 -15
37 -22 67 -16 67 5 0 85 -22 177 -49z m-530 -327 c87 -17 210 -70 196 -83 -15
-15 -241 -68 -343 -81 -52 -7 -112 -9 -135 -6 -56 9 -112 48 -136 96 -24 47
-24 51 -6 44 7 -3 40 2 72 12 123 36 237 42 352 18z"/>
</g>
</svg>
