<?xml version="1.0" standalone="no"?>
<!DOCTYPE svg PUBLIC "-//W3C//DTD SVG 20010904//EN"
 "http://www.w3.org/TR/2001/REC-SVG-20010904/DTD/svg10.dtd">
<svg version="1.0" xmlns="http://www.w3.org/2000/svg"
 width="198.000000pt" height="144.000000pt" viewBox="0 0 198.000000 144.000000"
 preserveAspectRatio="xMidYMid meet">
<metadata>
Created by potrace 1.16, written by Peter Selinger 2001-2019
</metadata>
<g transform="translate(0.000000,144.000000) scale(0.100000,-0.100000)"
fill="#000000" stroke="none">
<path d="M1231 1131 c-11 -7 0 -28 49 -97 93 -129 152 -204 161 -204 5 0 -15
37 -44 83 -28 46 -72 116 -97 155 -25 39 -47 71 -50 71 -3 1 -11 -3 -19 -8z"/>
<path d="M1064 1095 c-6 -15 0 -26 119 -187 76 -105 122 -146 76 -70 -60 100
-175 272 -182 272 -4 0 -10 -7 -13 -15z"/>
<path d="M845 1069 c-4 -5 6 -29 21 -52 36 -55 175 -240 185 -247 5 -3 10 -53
11 -110 l3 -105 78 0 c67 1 96 -6 68 -17 -22 -8 -231 -202 -228 -212 8 -25 31
-8 149 109 l126 126 81 -3 81 -3 -58 -47 c-31 -26 -93 -80 -137 -121 -68 -64
-77 -76 -61 -83 15 -6 44 19 148 124 l130 131 117 7 116 7 3 97 4 97 -63 6
c-34 4 -174 7 -310 7 l-249 0 -26 43 c-84 134 -167 257 -174 257 -5 0 -12 -5
-15 -11z m806 -356 c1 -27 3 -65 5 -85 l3 -38 -252 0 c-139 0 -268 3 -288 6
l-37 6 6 67 c2 36 6 67 7 69 1 1 116 6 256 11 140 4 264 9 277 9 20 2 22 -3
23 -45z"/>
<path d="M311 951 c-11 -7 0 -30 56 -108 39 -54 87 -118 107 -143 19 -25 32
-47 28 -51 -4 -3 -46 -21 -94 -39 -67 -25 -88 -37 -88 -51 0 -11 2 -19 4 -19
4 0 87 35 289 122 26 11 47 25 47 30 0 10 -23 5 -79 -18 -18 -8 -39 -14 -46
-14 -8 0 -30 28 -51 63 -36 59 -154 237 -157 237 -1 0 -8 -4 -16 -9z"/>
<path d="M974 701 c-111 -53 -241 -101 -271 -101 -15 0 -39 7 -51 16 -22 15
-62 11 -62 -6 0 -16 72 -42 117 -42 37 0 73 14 177 66 128 64 181 95 161 96
-5 0 -38 -13 -71 -29z"/>
</g>
</svg>
