<?xml version="1.0" standalone="no"?>
<!DOCTYPE svg PUBLIC "-//W3C//DTD SVG 20010904//EN"
 "http://www.w3.org/TR/2001/REC-SVG-20010904/DTD/svg10.dtd">
<svg version="1.0" xmlns="http://www.w3.org/2000/svg"
 width="201.000000pt" height="305.000000pt" viewBox="0 0 201.000000 305.000000"
 preserveAspectRatio="xMidYMid meet">
<metadata>
Created by potrace 1.16, written by Peter Selinger 2001-2019
</metadata>
<g transform="translate(0.000000,305.000000) scale(0.100000,-0.100000)"
fill="#000000" stroke="none">
<path d="M486 2742 c-2 -4 8 -28 23 -52 l28 -45 -39 -63 c-38 -63 -38 -63 -20
-90 46 -69 48 -87 51 -489 0 -109 5 -183 11 -183 5 0 10 33 12 73 l3 72 249 7
c137 4 252 10 257 15 4 4 9 43 10 86 2 42 7 77 11 77 14 0 78 -42 78 -52 0 -5
6 -8 13 -5 7 2 11 15 9 30 -3 23 0 27 22 27 l26 0 0 -150 c0 -93 4 -150 10
-150 6 0 10 57 10 150 0 143 1 150 20 150 19 0 20 -7 20 -121 0 -77 4 -118 10
-114 6 4 10 55 10 121 0 107 1 114 20 114 19 0 20 -7 21 -97 1 -131 16 -178
20 -63 1 47 3 94 4 105 1 11 3 28 4 38 0 9 8 17 16 17 12 0 15 -15 16 -72 1
-40 2 -77 4 -83 1 -5 3 -28 5 -50 3 -36 4 -34 10 20 4 33 8 88 9 123 l1 62 83
2 c45 1 105 3 132 4 l50 1 3 36 3 37 -260 0 c-281 0 -266 -3 -264 48 1 6 -1
12 -4 12 -11 0 -83 -41 -90 -52 -5 -8 -10 15 -13 57 l-5 70 -90 6 c-49 4 -165
7 -257 8 -193 1 -189 -2 -132 87 l36 57 -33 62 -33 63 27 35 c34 45 16 65 -19
22 -26 -32 -25 -33 -48 13 -16 31 -30 40 -40 24z m114 -202 c0 -22 -52 -112
-60 -104 -5 5 -18 30 -29 56 l-19 46 30 42 30 41 24 -35 c13 -19 24 -40 24
-46z m450 -216 c0 -24 -3 -26 -31 -20 -17 3 -98 6 -180 6 -124 0 -149 2 -149
15 0 15 12 16 283 23 l77 2 0 -26z m-390 1 c0 -11 -12 -15 -50 -15 -38 0 -50
4 -50 15 0 11 12 15 50 15 38 0 50 -4 50 -15z m390 -71 c0 -33 -2 -36 -22 -30
-13 3 -94 6 -180 6 l-158 0 0 25 0 24 158 4 c86 1 167 4 180 5 19 2 22 -3 22
-34z m-390 1 c0 -23 -3 -25 -50 -25 -47 0 -50 2 -50 25 0 23 3 25 50 25 47 0
50 -2 50 -25z m500 -60 c0 -30 -3 -55 -6 -55 -3 0 -21 12 -41 27 l-35 27 34
28 c18 15 36 28 41 28 4 0 7 -25 7 -55z m-110 -15 l0 -30 -67 0 c-38 0 -119 3
-180 7 -100 5 -113 8 -113 24 0 17 13 19 153 22 83 1 164 4 180 5 24 2 27 -1
27 -28z m630 9 c0 -17 -4 -20 -22 -15 -13 3 -123 6 -245 6 -138 0 -223 4 -223
10 0 6 69 11 173 13 94 1 205 4 245 5 67 2 72 1 72 -19z m-1010 -9 c0 -18 -7
-20 -55 -20 -48 0 -55 2 -55 20 0 18 7 20 55 20 48 0 55 -2 55 -20z m380 -82
l0 -33 -180 3 -180 3 0 24 c0 27 -1 26 273 33 l87 2 0 -32z m-380 -3 c0 -24
-3 -25 -55 -25 -52 0 -55 1 -55 25 0 24 3 25 55 25 52 0 55 -1 55 -25z m383
-71 l5 -27 -112 6 c-61 4 -144 7 -183 7 -58 0 -73 3 -73 15 0 12 23 15 128 17
70 2 150 4 178 6 49 3 52 2 57 -24z m-383 1 c0 -12 -13 -15 -55 -15 -42 0 -55
3 -55 15 0 12 13 15 55 15 42 0 55 -3 55 -15z"/>
<path d="M334 1336 c-3 -8 8 -36 26 -61 l32 -46 -46 -70 -46 -69 38 -62 39
-63 6 -328 c5 -301 8 -349 22 -336 2 3 7 153 10 334 l7 329 45 63 45 63 -42
70 -42 69 32 40 c18 22 29 44 25 50 -10 18 -19 13 -44 -24 -13 -19 -27 -35
-30 -35 -4 0 -17 18 -30 40 -26 47 -39 57 -47 36z m115 -181 l33 -46 -39 -64
c-21 -36 -40 -65 -43 -65 -3 0 -19 28 -36 62 l-31 62 35 48 c20 26 39 48 42
48 4 0 21 -20 39 -45z"/>
<path d="M535 1178 c-8 -33 2 -329 12 -362 5 -18 16 -19 255 -14 138 3 254 10
258 14 5 5 10 45 12 89 l3 80 33 3 32 3 0 -175 c0 -111 4 -176 10 -176 6 0 10
65 10 175 l0 175 25 0 25 0 0 -175 c0 -110 4 -175 10 -175 6 0 10 65 10 175
l0 175 25 0 25 0 1 -127 c0 -71 4 -150 8 -178 6 -48 7 -45 14 44 4 52 7 132 7
178 0 76 2 83 20 83 19 0 20 -7 21 -122 1 -68 4 -148 8 -178 l6 -55 8 85 c4
47 7 126 7 176 l0 92 108 8 c99 7 103 8 57 15 -27 4 -143 8 -257 8 l-207 1 -3
88 -3 87 -95 6 c-52 4 -172 7 -267 8 l-171 1 -7 -32z m515 -24 c0 -26 -1 -27
-46 -20 -26 3 -107 6 -180 6 -111 0 -134 3 -134 15 0 12 22 15 113 18 61 1
142 4 180 5 66 2 67 2 67 -24z m-387 1 c-2 -5 -25 -11 -53 -13 -40 -2 -50 0
-50 13 0 13 10 15 53 13 28 -2 51 -7 50 -13z m387 -71 l0 -37 -37 7 c-21 3
-102 6 -180 6 l-143 0 0 25 0 25 168 3 c92 1 173 4 180 5 8 1 12 -11 12 -34z
m-385 1 c0 -17 -8 -20 -52 -23 -47 -3 -53 -1 -53 17 0 21 23 30 75 27 23 -1
30 -6 30 -21z m385 -76 l0 -31 -177 5 c-171 5 -178 6 -181 26 -3 20 1 21 160
24 90 1 171 4 181 5 13 1 17 -5 17 -29z m-382 -1 c3 -15 -5 -18 -52 -18 -50 0
-56 2 -56 21 0 18 5 20 52 17 41 -2 54 -7 56 -20z m382 -84 c0 -36 -1 -36 -31
-30 -17 3 -98 6 -180 6 l-149 0 0 25 c0 27 -29 24 288 33 l72 2 0 -36z m-380
1 c0 -24 -3 -25 -55 -25 -52 0 -55 1 -55 25 0 24 3 25 55 25 52 0 55 -1 55
-25z m383 -71 l5 -27 -127 6 c-69 4 -152 7 -183 7 -44 0 -58 3 -58 15 0 12 26
15 148 18 81 1 161 4 178 5 27 2 32 -2 37 -24z m-383 1 c0 -12 -13 -15 -55
-15 -42 0 -55 3 -55 15 0 12 13 15 55 15 42 0 55 -3 55 -15z"/>
</g>
</svg>
