<?xml version="1.0" standalone="no"?>
<!DOCTYPE svg PUBLIC "-//W3C//DTD SVG 20010904//EN"
 "http://www.w3.org/TR/2001/REC-SVG-20010904/DTD/svg10.dtd">
<svg version="1.0" xmlns="http://www.w3.org/2000/svg"
 width="102.000000pt" height="160.000000pt" viewBox="0 0 102.000000 160.000000"
 preserveAspectRatio="xMidYMid meet">
<metadata>
Created by potrace 1.16, written by Peter Selinger 2001-2019
</metadata>
<g transform="translate(0.000000,160.000000) scale(0.100000,-0.100000)"
fill="#000000" stroke="none">
<path d="M554 1270 c-62 -49 -194 -182 -210 -212 -42 -81 -56 -269 -30 -404
10 -54 25 -89 61 -145 62 -96 171 -209 201 -209 23 0 65 45 119 128 24 36 26
45 14 53 -16 10 -14 12 -82 -96 l-49 -77 -25 24 c-42 39 -117 139 -167 222
-41 68 -48 89 -56 160 -14 117 3 252 40 326 18 35 114 132 200 202 32 27 42
40 34 48 -7 7 -22 2 -50 -20z"/>
<path d="M622 1063 c-16 -38 -33 -79 -37 -93 -4 -14 -11 -29 -15 -35 -5 -5
-11 -31 -15 -57 l-7 -48 -104 0 c-89 0 -104 -2 -104 -16 0 -14 13 -16 100 -12
110 4 103 8 115 -67 l6 -40 -112 3 c-90 3 -110 1 -107 -10 4 -10 31 -13 111
-13 l107 0 44 -65 c43 -65 92 -117 100 -109 3 2 -24 49 -58 104 -79 126 -87
166 -56 287 12 45 37 113 57 150 32 60 36 88 14 88 -4 0 -22 -30 -39 -67z"/>
<path d="M384 596 c-4 -9 -4 -19 -1 -23 10 -9 217 8 217 18 0 5 -40 9 -89 9
-49 0 -96 3 -105 6 -10 4 -18 0 -22 -10z"/>
<path d="M450 475 c0 -12 17 -15 93 -14 50 0 101 4 111 8 18 7 18 8 -5 14 -13
4 -63 7 -111 7 -72 0 -88 -3 -88 -15z"/>
</g>
</svg>
