<?xml version="1.0" standalone="no"?>
<!DOCTYPE svg PUBLIC "-//W3C//DTD SVG 20010904//EN"
 "http://www.w3.org/TR/2001/REC-SVG-20010904/DTD/svg10.dtd">
<svg version="1.0" xmlns="http://www.w3.org/2000/svg"
 width="102.000000pt" height="160.000000pt" viewBox="0 0 102.000000 160.000000"
 preserveAspectRatio="xMidYMid meet">
<metadata>
Created by potrace 1.16, written by Peter Selinger 2001-2019
</metadata>
<g transform="translate(0.000000,160.000000) scale(0.100000,-0.100000)"
fill="#000000" stroke="none">
<path d="M555 1270 c-63 -49 -195 -182 -211 -212 -42 -81 -56 -269 -30 -404
10 -54 25 -89 61 -145 62 -96 171 -209 201 -209 23 0 65 45 119 128 24 36 26
45 14 53 -16 10 -14 12 -82 -96 l-49 -77 -25 24 c-42 39 -117 139 -167 222
-40 67 -48 90 -56 157 -5 42 -6 109 -3 146 l6 69 28 -4 c44 -6 199 8 199 19 0
5 -50 9 -111 9 -124 0 -119 -5 -82 83 l16 37 101 1 c119 1 166 12 92 22 -27 4
-74 7 -105 7 l-56 1 85 79 c47 44 87 80 90 79 3 0 19 -28 36 -62 l32 -62 -24
-45 c-13 -25 -31 -67 -40 -95 -9 -27 -20 -54 -24 -60 -5 -5 -11 -31 -15 -57
l-7 -48 -104 0 c-89 0 -104 -2 -104 -16 0 -14 13 -16 100 -12 110 4 103 8 115
-67 l6 -40 -112 3 c-90 3 -110 1 -107 -10 4 -10 31 -13 111 -13 l107 0 44 -65
c43 -65 92 -117 100 -109 3 2 -24 49 -58 104 -79 126 -87 166 -56 287 12 46
37 112 56 148 19 35 34 73 34 85 0 21 -48 127 -72 158 -13 17 -16 17 -53 -13z"/>
<path d="M384 596 c-4 -9 -4 -19 -1 -23 10 -9 217 8 217 18 0 5 -40 9 -89 9
-49 0 -96 3 -105 6 -10 4 -18 0 -22 -10z"/>
<path d="M450 475 c0 -12 17 -15 93 -14 50 0 101 4 111 8 18 7 18 8 -5 14 -13
4 -63 7 -111 7 -72 0 -88 -3 -88 -15z"/>
</g>
</svg>
