<?xml version="1.0" standalone="no"?>
<!DOCTYPE svg PUBLIC "-//W3C//DTD SVG 20010904//EN"
 "http://www.w3.org/TR/2001/REC-SVG-20010904/DTD/svg10.dtd">
<svg version="1.0" xmlns="http://www.w3.org/2000/svg"
 width="131.000000pt" height="168.000000pt" viewBox="0 0 131.000000 168.000000"
 preserveAspectRatio="xMidYMid meet">
<metadata>
Created by potrace 1.16, written by Peter Selinger 2001-2019
</metadata>
<g transform="translate(0.000000,168.000000) scale(0.100000,-0.100000)"
fill="#000000" stroke="none">
<path d="M665 1370 c-3 -5 -12 -7 -19 -4 -20 8 -119 -145 -171 -264 -24 -53
-48 -96 -53 -95 -9 2 -101 -183 -116 -234 -15 -49 12 -19 59 66 l50 89 42 -88
c23 -49 69 -131 102 -183 l61 -94 -54 -114 c-62 -133 -68 -149 -57 -149 4 0
37 52 73 115 43 74 68 110 72 100 3 -8 10 -15 15 -15 6 0 8 7 5 15 -4 8 -4 15
-1 15 3 0 31 -48 62 -107 58 -112 75 -137 75 -114 0 16 -88 232 -101 248 -7 8
0 26 24 60 56 79 109 172 143 250 l32 74 48 -83 c30 -51 49 -77 52 -66 4 21
-95 231 -106 224 -4 -3 -25 34 -45 82 -41 96 -155 282 -174 282 -6 0 -14 -4
-18 -10z m65 -106 c83 -127 153 -272 145 -302 -15 -60 -190 -400 -201 -389 -2
2 1 106 7 233 12 253 5 509 -14 533 -10 12 -9 13 1 7 8 -5 35 -41 62 -82z
m-82 -354 c4 -195 7 -356 6 -358 -4 -8 -148 264 -180 338 l-34 82 58 112 c32
61 73 135 92 164 29 43 36 49 42 35 4 -10 11 -178 16 -373z"/>
</g>
</svg>
