<?xml version="1.0" standalone="no"?>
<!DOCTYPE svg PUBLIC "-//W3C//DTD SVG 20010904//EN"
 "http://www.w3.org/TR/2001/REC-SVG-20010904/DTD/svg10.dtd">
<svg version="1.0" xmlns="http://www.w3.org/2000/svg"
 width="123.000000pt" height="156.000000pt" viewBox="0 0 123.000000 156.000000"
 preserveAspectRatio="xMidYMid meet">
<metadata>
Created by potrace 1.16, written by Peter Selinger 2001-2019
</metadata>
<g transform="translate(0.000000,156.000000) scale(0.100000,-0.100000)"
fill="#000000" stroke="none">
<path d="M550 1247 c0 -15 118 -81 201 -111 l46 -17 -7 -47 c-4 -26 -13 -94
-20 -151 -11 -87 -16 -104 -31 -108 -22 -6 -24 -19 -5 -30 11 -7 10 -28 -7
-133 -20 -125 -26 -146 -34 -122 -6 17 -23 15 -23 -3 0 -18 54 -127 82 -168
40 -57 37 -24 -7 63 -25 50 -41 90 -36 90 4 0 19 52 32 116 13 63 27 120 30
126 4 6 33 0 79 -16 40 -15 75 -24 78 -21 9 9 -10 21 -73 45 -33 13 -64 26
-69 31 -4 4 1 60 13 126 21 119 29 199 20 207 -3 3 -234 122 -261 134 -5 2 -8
-3 -8 -11z"/>
<path d="M515 1238 c-2 -7 -6 -71 -10 -143 -3 -71 -8 -154 -11 -182 -4 -34 -3
-53 4 -53 6 0 13 33 17 74 l7 73 42 -12 c66 -19 106 -25 106 -15 0 5 -8 11
-17 14 -10 3 -43 12 -73 21 l-56 15 8 73 c10 104 9 147 -2 147 -6 0 -12 -6
-15 -12z"/>
<path d="M395 710 c-55 -55 -96 -100 -92 -100 4 0 40 27 80 60 51 42 74 56 80
47 4 -6 34 -55 67 -108 62 -100 68 -122 69 -242 1 -43 5 -66 11 -62 16 10 13
235 -2 235 -7 1 -39 47 -70 103 l-57 102 27 23 c23 19 25 24 12 32 -8 5 -17
10 -20 10 -3 0 -50 -45 -105 -100z"/>
</g>
</svg>
