<?xml version="1.0" standalone="no"?>
<!DOCTYPE svg PUBLIC "-//W3C//DTD SVG 20010904//EN"
 "http://www.w3.org/TR/2001/REC-SVG-20010904/DTD/svg10.dtd">
<svg version="1.0" xmlns="http://www.w3.org/2000/svg"
 width="111.000000pt" height="130.000000pt" viewBox="0 0 111.000000 130.000000"
 preserveAspectRatio="xMidYMid meet">
<metadata>
Created by potrace 1.16, written by Peter Selinger 2001-2019
</metadata>
<g transform="translate(0.000000,130.000000) scale(0.100000,-0.100000)"
fill="#000000" stroke="none">
<path d="M716 990 c-72 -22 -136 -96 -136 -156 0 -30 31 -89 59 -112 33 -27
97 -52 134 -52 l37 0 0 165 0 165 -32 -1 c-18 0 -46 -5 -62 -9z m34 -15 c0 -4
-8 -20 -17 -38 -26 -48 -23 -161 4 -214 l22 -41 -44 15 c-26 8 -59 31 -80 54
-29 32 -35 47 -35 84 0 35 6 51 30 78 38 43 120 85 120 62z"/>
<path d="M424 794 c-22 -8 -58 -32 -79 -54 -70 -72 -57 -165 32 -224 37 -25
129 -50 145 -40 5 3 8 79 8 170 l0 164 -32 -1 c-18 0 -51 -7 -74 -15z m46 -7
c0 -2 -8 -19 -17 -38 -27 -52 -25 -173 5 -222 l22 -38 -22 7 c-50 15 -65 23
-95 48 -62 52 -64 132 -5 189 31 30 112 69 112 54z"/>
<path d="M695 610 c-53 -25 -68 -38 -94 -80 -26 -44 -27 -82 0 -129 32 -58
109 -101 181 -101 l28 0 0 165 0 165 -37 0 c-21 0 -56 -9 -78 -20z m55 -5 c0
-4 -8 -20 -17 -38 -23 -44 -23 -161 1 -205 10 -19 15 -36 12 -39 -12 -12 -78
22 -110 58 -30 32 -36 47 -36 84 0 36 6 51 32 81 18 20 46 43 63 50 32 14 55
18 55 9z"/>
</g>
</svg>
