<?xml version="1.0" standalone="no"?>
<!DOCTYPE svg PUBLIC "-//W3C//DTD SVG 20010904//EN"
 "http://www.w3.org/TR/2001/REC-SVG-20010904/DTD/svg10.dtd">
<svg version="1.0" xmlns="http://www.w3.org/2000/svg"
 width="111.000000pt" height="130.000000pt" viewBox="0 0 111.000000 130.000000"
 preserveAspectRatio="xMidYMid meet">
<metadata>
Created by potrace 1.16, written by Peter Selinger 2001-2019
</metadata>
<g transform="translate(0.000000,130.000000) scale(0.100000,-0.100000)"
fill="#000000" stroke="none">
<path d="M402 974 c-96 -48 -130 -140 -79 -215 28 -42 117 -89 168 -89 l39 0
0 165 0 165 -38 0 c-21 0 -62 -12 -90 -26z m51 -26 c-25 -46 -25 -180 1 -227
l18 -34 -29 7 c-47 12 -99 52 -117 91 -32 66 0 136 76 174 62 30 72 28 51 -11z"/>
<path d="M730 801 c-46 -14 -87 -40 -113 -70 -62 -74 -34 -174 64 -223 30 -15
70 -28 89 -30 l35 -3 3 168 2 167 -27 -1 c-16 0 -39 -4 -53 -8z m9 -48 c-26
-51 -26 -162 0 -220 l19 -41 -28 8 c-152 44 -175 199 -40 268 63 31 71 29 49
-15z"/>
<path d="M403 606 c-97 -45 -131 -140 -78 -218 29 -44 114 -88 167 -88 l38 0
0 165 0 165 -37 0 c-21 0 -61 -11 -90 -24z m50 -28 c-25 -46 -25 -180 1 -227
l18 -34 -29 7 c-47 12 -99 52 -117 91 -32 66 0 136 76 174 62 30 72 28 51 -11z"/>
</g>
</svg>
