<?xml version="1.0" standalone="no"?>
<!DOCTYPE svg PUBLIC "-//W3C//DTD SVG 20010904//EN"
 "http://www.w3.org/TR/2001/REC-SVG-20010904/DTD/svg10.dtd">
<svg version="1.0" xmlns="http://www.w3.org/2000/svg"
 width="111.000000pt" height="130.000000pt" viewBox="0 0 111.000000 130.000000"
 preserveAspectRatio="xMidYMid meet">
<metadata>
Created by potrace 1.16, written by Peter Selinger 2001-2019
</metadata>
<g transform="translate(0.000000,130.000000) scale(0.100000,-0.100000)"
fill="#000000" stroke="none">
<path d="M300 835 l0 -165 35 0 c93 0 195 87 195 166 0 81 -103 164 -202 164
l-28 0 0 -165z m119 125 c134 -68 119 -213 -26 -264 l-43 -15 22 42 c28 54 30
166 5 214 -9 18 -17 34 -17 38 0 10 21 5 59 -15z"/>
<path d="M587 803 c-8 -7 -10 -317 -2 -325 12 -12 111 13 147 37 57 38 80 80
75 138 -3 39 -11 55 -42 87 -49 50 -154 87 -178 63z m101 -29 c49 -20 89 -59
103 -101 24 -73 -32 -144 -139 -177 l-22 -7 22 38 c30 49 32 170 6 222 -26 49
-26 49 30 25z"/>
<path d="M300 465 l0 -165 28 0 c100 0 202 84 202 166 0 30 -31 89 -59 112
-33 27 -97 52 -133 52 l-38 0 0 -165z m175 84 c29 -32 35 -47 35 -84 0 -36 -6
-51 -32 -81 -32 -36 -81 -64 -112 -64 -12 0 -11 7 7 37 30 52 30 161 0 220
l-22 41 44 -15 c26 -8 59 -31 80 -54z"/>
</g>
</svg>
