<?xml version="1.0" standalone="no"?>
<!DOCTYPE svg PUBLIC "-//W3C//DTD SVG 20010904//EN"
 "http://www.w3.org/TR/2001/REC-SVG-20010904/DTD/svg10.dtd">
<svg version="1.0" xmlns="http://www.w3.org/2000/svg"
 width="179.000000pt" height="119.000000pt" viewBox="0 0 179.000000 119.000000"
 preserveAspectRatio="xMidYMid meet">
<metadata>
Created by potrace 1.16, written by Peter Selinger 2001-2019
</metadata>
<g transform="translate(0.000000,119.000000) scale(0.100000,-0.100000)"
fill="#000000" stroke="none">
<path d="M432 877 c-9 -10 6 -32 62 -93 l73 -79 -71 -1 c-95 -1 -190 -37 -194
-74 -2 -20 7 -31 45 -57 64 -43 124 -63 192 -63 l56 0 -92 -51 c-51 -27 -93
-53 -93 -57 0 -4 4 -13 8 -20 8 -11 40 6 204 111 13 8 32 8 73 0 62 -13 185
-70 185 -86 0 -6 25 -8 65 -5 36 3 65 4 65 2 0 -2 -21 -15 -47 -28 -72 -37
-90 -52 -77 -66 14 -14 39 -2 142 64 40 26 85 46 112 51 66 10 320 74 339 85
14 8 14 9 -1 10 -10 0 -96 -13 -193 -30 -96 -16 -226 -34 -289 -40 l-114 -10
-83 44 c-98 51 -124 58 -239 60 -70 2 -94 7 -136 28 -27 15 -56 33 -63 42 -11
13 -7 18 26 32 42 19 122 21 263 9 75 -6 93 -4 156 17 48 16 86 22 118 20 l47
-4 -22 -24 c-33 -35 -16 -40 26 -9 l35 28 73 -18 c57 -14 286 -92 380 -130 9
-4 17 -3 17 2 0 12 -222 104 -335 139 -49 15 -92 29 -95 31 -3 3 7 14 23 25
26 19 37 48 17 48 -5 0 -25 -14 -45 -31 -31 -28 -40 -31 -73 -25 -57 11 -64
11 -104 -7 -40 -18 -160 -34 -220 -29 -33 3 -44 12 -115 102 -43 55 -81 100
-84 100 -4 0 -11 -6 -17 -13z"/>
</g>
</svg>
