<?xml version="1.0" standalone="no"?>
<!DOCTYPE svg PUBLIC "-//W3C//DTD SVG 20010904//EN"
 "http://www.w3.org/TR/2001/REC-SVG-20010904/DTD/svg10.dtd">
<svg version="1.0" xmlns="http://www.w3.org/2000/svg"
 width="194.000000pt" height="139.000000pt" viewBox="0 0 194.000000 139.000000"
 preserveAspectRatio="xMidYMid meet">
<metadata>
Created by potrace 1.16, written by Peter Selinger 2001-2019
</metadata>
<g transform="translate(0.000000,139.000000) scale(0.100000,-0.100000)"
fill="#000000" stroke="none">
<path d="M1212 1078 c-9 -9 11 -33 79 -96 l90 -85 -42 -43 c-24 -24 -46 -44
-49 -44 -3 1 -18 21 -33 45 -29 45 -125 135 -145 135 -33 0 -14 -30 69 -108
l93 -88 -35 -21 c-19 -12 -58 -29 -87 -39 -48 -15 -66 -16 -165 -5 -220 23
-424 12 -495 -28 -12 -7 -32 8 -85 65 -38 41 -75 74 -82 74 -34 0 -20 -25 57
-100 l83 -81 -83 -80 c-77 -73 -92 -99 -57 -99 7 0 42 32 77 70 l65 70 19 -21
c39 -43 98 -84 147 -100 56 -19 60 -13 -47 -74 -40 -22 -46 -29 -33 -37 17 -9
91 23 150 65 26 17 39 19 116 13 48 -3 108 -14 133 -24 l47 -18 -89 -49 c-91
-51 -102 -61 -75 -71 19 -8 161 74 195 112 21 24 47 37 119 58 167 48 191 66
337 255 48 62 82 96 112 111 50 26 56 45 10 35 -75 -16 -92 -31 -167 -138 -40
-59 -93 -125 -118 -148 -58 -53 -147 -94 -254 -114 -79 -16 -88 -16 -117 -1
-17 9 -65 19 -107 23 -69 5 -75 8 -69 26 6 19 5 19 -24 2 -28 -17 -32 -17
-103 5 -54 16 -83 32 -111 60 -56 56 -51 73 25 96 54 17 97 19 337 19 l275 0
56 26 c31 15 87 56 125 91 85 80 90 82 192 98 45 7 82 17 82 23 0 14 -182 2
-209 -15 -20 -12 -24 -10 -43 17 -24 34 -115 122 -139 135 -10 6 -20 5 -27 -2z"/>
<path d="M857 620 c-26 -33 -45 -65 -41 -71 8 -14 41 17 71 68 40 68 22 70
-30 3z"/>
<path d="M979 633 c-49 -69 -51 -72 -43 -84 8 -13 45 28 74 83 22 41 24 48 12
48 -5 0 -24 -21 -43 -47z"/>
</g>
</svg>
