<?xml version="1.0" standalone="no"?>
<!DOCTYPE svg PUBLIC "-//W3C//DTD SVG 20010904//EN"
 "http://www.w3.org/TR/2001/REC-SVG-20010904/DTD/svg10.dtd">
<svg version="1.0" xmlns="http://www.w3.org/2000/svg"
 width="193.000000pt" height="115.000000pt" viewBox="0 0 193.000000 115.000000"
 preserveAspectRatio="xMidYMid meet">
<metadata>
Created by potrace 1.16, written by Peter Selinger 2001-2019
</metadata>
<g transform="translate(0.000000,115.000000) scale(0.100000,-0.100000)"
fill="#000000" stroke="none">
<path d="M846 835 c-4 -11 12 -26 52 -52 31 -20 75 -50 97 -66 l40 -29 -80 7
c-75 7 -83 10 -120 45 -50 48 -141 104 -155 95 -22 -13 -6 -32 68 -79 l77 -49
-65 -13 -64 -14 -31 29 c-43 41 -144 103 -155 96 -20 -12 -9 -32 28 -52 20
-12 57 -36 81 -53 l44 -32 -59 -24 -58 -24 -31 29 c-36 35 -135 101 -151 101
-7 0 -14 -6 -17 -14 -4 -10 9 -23 36 -39 23 -14 62 -40 86 -57 l43 -32 -52
-30 -52 -30 33 -20 c19 -12 52 -29 74 -39 l39 -18 -29 -12 c-17 -6 -73 -26
-125 -44 -62 -21 -96 -38 -98 -49 -5 -22 21 -20 105 8 69 23 153 71 153 87 0
4 26 -3 58 -16 31 -12 72 -26 91 -30 31 -7 32 -8 15 -18 -10 -6 -57 -23 -104
-38 -54 -17 -86 -33 -88 -43 -2 -11 4 -16 20 -16 34 1 155 45 197 73 32 21 51
25 166 30 72 3 213 20 315 37 197 34 283 35 342 5 17 -8 32 -15 33 -15 2 0 8
46 21 163 8 67 6 67 -96 41 -60 -15 -67 -15 -258 16 l-197 31 -29 36 c-27 32
-168 133 -186 133 -4 0 -10 -7 -14 -15z m372 -214 c211 -36 264 -38 329 -13
l48 18 -3 -79 c-3 -69 -6 -78 -20 -71 -9 4 -41 14 -69 22 -51 15 -62 14 -260
-19 -174 -28 -234 -34 -368 -34 -149 0 -166 2 -246 28 -47 16 -103 39 -124 52
l-39 23 34 20 c24 15 38 18 51 11 24 -12 27 -12 25 8 -1 22 88 57 127 49 16
-3 26 -2 22 3 -19 32 259 21 493 -18z"/>
</g>
</svg>
