<?xml version="1.0" standalone="no"?>
<!DOCTYPE svg PUBLIC "-//W3C//DTD SVG 20010904//EN"
 "http://www.w3.org/TR/2001/REC-SVG-20010904/DTD/svg10.dtd">
<svg version="1.0" xmlns="http://www.w3.org/2000/svg"
 width="106.000000pt" height="173.000000pt" viewBox="0 0 106.000000 173.000000"
 preserveAspectRatio="xMidYMid meet">
<metadata>
Created by potrace 1.16, written by Peter Selinger 2001-2019
</metadata>
<g transform="translate(0.000000,173.000000) scale(0.100000,-0.100000)"
fill="#000000" stroke="none">
<path d="M445 1386 c-167 -62 -153 -26 -116 -287 18 -123 52 -344 77 -491 24
-147 44 -271 43 -275 -5 -30 3 -33 84 -32 45 0 91 4 102 8 18 7 18 8 2 17 -16
9 -15 26 23 250 55 328 100 647 100 704 l0 48 -99 51 c-55 28 -101 50 -103 50
-1 -1 -53 -20 -113 -43z m187 -28 c61 -26 78 -37 78 -54 0 -26 -38 -336 -42
-338 -2 -1 -61 1 -131 4 -85 4 -131 10 -136 18 -12 20 -45 326 -35 329 5 2 43
19 84 37 41 19 82 34 90 35 8 1 50 -14 92 -31z m27 -475 c-4 -32 -17 -150 -29
-263 -11 -113 -23 -224 -26 -248 l-5 -43 -61 5 c-33 2 -62 7 -65 10 -3 3 -10
47 -15 98 -5 51 -18 173 -28 271 -11 97 -20 186 -20 197 0 18 9 20 98 23 53 1
111 4 128 5 l31 2 -8 -57z"/>
</g>
</svg>
