<?xml version="1.0" standalone="no"?>
<!DOCTYPE svg PUBLIC "-//W3C//DTD SVG 20010904//EN"
 "http://www.w3.org/TR/2001/REC-SVG-20010904/DTD/svg10.dtd">
<svg version="1.0" xmlns="http://www.w3.org/2000/svg"
 width="106.000000pt" height="164.000000pt" viewBox="0 0 106.000000 164.000000"
 preserveAspectRatio="xMidYMid meet">
<metadata>
Created by potrace 1.16, written by Peter Selinger 2001-2019
</metadata>
<g transform="translate(0.000000,164.000000) scale(0.100000,-0.100000)"
fill="#000000" stroke="none">
<path d="M311 1324 c-15 -18 6 -184 92 -706 l52 -318 99 0 c82 0 97 2 83 13
-16 11 -14 26 18 212 47 269 105 669 105 725 0 25 -5 52 -10 60 -11 18 -120
28 -300 29 -100 0 -128 -3 -139 -15z m399 -52 c0 -29 -27 -248 -36 -293 l-5
-26 -132 5 c-73 2 -134 6 -135 8 -4 3 -41 277 -42 306 0 15 14 18 123 21 67 1
146 4 175 5 51 2 52 1 52 -26z m-44 -369 c-6 -30 -41 -341 -51 -458 -12 -133
-8 -126 -78 -123 l-62 3 -7 35 c-11 51 -60 541 -56 546 3 2 56 8 119 12 63 5
120 10 127 11 10 1 12 -7 8 -26z"/>
</g>
</svg>
