<?xml version="1.0" standalone="no"?>
<!DOCTYPE svg PUBLIC "-//W3C//DTD SVG 20010904//EN"
 "http://www.w3.org/TR/2001/REC-SVG-20010904/DTD/svg10.dtd">
<svg version="1.0" xmlns="http://www.w3.org/2000/svg"
 width="194.000000pt" height="119.000000pt" viewBox="0 0 194.000000 119.000000"
 preserveAspectRatio="xMidYMid meet">
<metadata>
Created by potrace 1.16, written by Peter Selinger 2001-2019
</metadata>
<g transform="translate(0.000000,119.000000) scale(0.100000,-0.100000)"
fill="#000000" stroke="none">
<path d="M1546 882 c-3 -5 -47 -15 -97 -22 -66 -10 -99 -19 -117 -35 l-24 -21
27 -54 c15 -30 31 -67 35 -81 7 -25 5 -27 -29 -32 -121 -19 -408 -18 -693 2
-204 15 -303 19 -316 12 -16 -8 -20 -27 -25 -102 -10 -134 -8 -237 3 -244 6
-3 10 4 10 17 0 30 18 202 26 251 l6 37 65 0 c35 0 180 -9 321 -20 222 -18
277 -19 407 -10 138 10 432 53 443 65 11 11 -7 12 -82 4 -44 -5 -81 -8 -83 -6
-2 2 36 14 84 26 49 12 92 26 98 32 13 13 -4 12 -109 -7 -48 -8 -90 -13 -92
-11 -2 2 -15 30 -28 63 l-24 59 90 22 c50 13 94 20 99 17 5 -3 22 -31 38 -62
33 -64 60 -103 61 -85 0 20 -68 187 -78 191 -6 2 -13 -1 -16 -6z"/>
<path d="M1465 594 c-161 -56 -352 -110 -470 -133 -86 -16 -545 -61 -629 -61
-14 0 -39 -39 -31 -48 1 -1 44 2 96 8 52 5 192 17 312 25 250 18 398 49 598
128 116 45 239 103 239 112 0 8 -10 5 -115 -31z"/>
</g>
</svg>
