<?xml version="1.0" standalone="no"?>
<!DOCTYPE svg PUBLIC "-//W3C//DTD SVG 20010904//EN"
 "http://www.w3.org/TR/2001/REC-SVG-20010904/DTD/svg10.dtd">
<svg version="1.0" xmlns="http://www.w3.org/2000/svg"
 width="212.000000pt" height="148.000000pt" viewBox="0 0 212.000000 148.000000"
 preserveAspectRatio="xMidYMid meet">
<metadata>
Created by potrace 1.16, written by Peter Selinger 2001-2019
</metadata>
<g transform="translate(0.000000,148.000000) scale(0.100000,-0.100000)"
fill="#000000" stroke="none">
<path d="M674 1161 c-45 -10 -96 -23 -112 -30 -17 -7 -35 -10 -40 -7 -14 9
-91 -72 -142 -150 -125 -192 -102 -402 64 -570 89 -91 112 -96 414 -102 134
-2 305 1 380 7 231 19 516 53 527 63 7 7 -11 8 -50 4 -505 -54 -972 -60 -1139
-15 -59 16 -149 107 -191 193 -77 157 -49 314 85 475 55 66 65 70 213 97 45 8
84 14 87 14 3 0 7 -22 8 -49 2 -49 2 -50 -36 -61 -75 -25 -173 -83 -212 -128
-75 -84 -75 -174 0 -287 61 -94 96 -123 165 -136 63 -12 770 -5 890 9 l60 7 9
148 8 147 38 0 37 0 7 -192 c4 -106 9 -195 12 -197 11 -11 14 18 20 197 7 177
9 192 26 192 10 0 18 4 18 9 0 10 -131 25 -170 19 l-25 -3 3 -152 2 -153 -27
-6 c-52 -14 -813 -10 -878 4 -71 14 -112 45 -168 124 -72 102 -62 193 31 266
48 38 132 80 179 90 l38 8 3 92 3 92 -28 -1 c-15 -1 -65 -9 -109 -18z"/>
</g>
</svg>
