<?xml version="1.0" standalone="no"?>
<!DOCTYPE svg PUBLIC "-//W3C//DTD SVG 20010904//EN"
 "http://www.w3.org/TR/2001/REC-SVG-20010904/DTD/svg10.dtd">
<svg version="1.0" xmlns="http://www.w3.org/2000/svg"
 width="181.000000pt" height="136.000000pt" viewBox="0 0 181.000000 136.000000"
 preserveAspectRatio="xMidYMid meet">
<metadata>
Created by potrace 1.16, written by Peter Selinger 2001-2019
</metadata>
<g transform="translate(0.000000,136.000000) scale(0.100000,-0.100000)"
fill="#000000" stroke="none">
<path d="M352 1043 c3 -16 18 -18 173 -15 94 1 181 6 195 9 41 11 -65 21 -228
22 -132 1 -143 0 -140 -16z"/>
<path d="M697 1013 c-10 -16 -166 -394 -207 -501 -24 -62 -48 -111 -54 -109
-21 7 -65 102 -82 176 -13 59 -15 104 -11 225 4 83 9 163 13 179 5 21 3 27 -9
27 -27 0 -47 -115 -47 -275 0 -174 30 -279 102 -360 58 -66 88 -75 259 -75
147 0 154 1 262 37 125 41 326 140 468 230 l97 60 9 -71 c9 -63 10 -49 12 122
0 122 -3 192 -9 192 -6 0 -10 -43 -10 -109 0 -75 -4 -112 -12 -119 -41 -33
-468 -240 -468 -227 0 2 53 44 118 94 174 134 354 282 348 288 -9 9 -550 -375
-587 -418 -41 -46 -288 -77 -362 -45 -78 34 -79 26 2 195 40 84 94 203 120
264 27 62 59 134 72 160 20 41 21 49 9 57 -18 12 -27 12 -33 3z"/>
</g>
</svg>
