<?xml version="1.0" standalone="no"?>
<!DOCTYPE svg PUBLIC "-//W3C//DTD SVG 20010904//EN"
 "http://www.w3.org/TR/2001/REC-SVG-20010904/DTD/svg10.dtd">
<svg version="1.0" xmlns="http://www.w3.org/2000/svg"
 width="173.000000pt" height="140.000000pt" viewBox="0 0 173.000000 140.000000"
 preserveAspectRatio="xMidYMid meet">
<metadata>
Created by potrace 1.16, written by Peter Selinger 2001-2019
</metadata>
<g transform="translate(0.000000,140.000000) scale(0.100000,-0.100000)"
fill="#000000" stroke="none">
<path d="M715 1092 c-3 -3 -2 -79 1 -169 l7 -163 -64 0 c-35 0 -95 -3 -134 -5
-207 -16 -213 -16 -219 -32 -4 -9 -5 -17 -4 -18 2 -2 30 1 63 6 33 5 126 11
206 15 l146 7 6 -123 c4 -68 7 -155 7 -194 0 -78 7 -116 22 -116 5 0 73 38
151 84 78 46 216 126 307 179 l165 96 7 -47 c3 -26 7 -96 8 -157 3 -153 17
-88 19 86 1 89 5 139 13 147 6 6 10 13 7 16 -2 2 -85 51 -184 108 -474 277
-513 297 -530 280z m108 -154 c4 -40 6 -99 7 -130 l0 -58 -34 0 c-19 0 -38 5
-41 10 -4 6 -3 71 1 145 l7 134 27 -14 c25 -13 28 -20 33 -87z m73 31 l34 -21
0 -99 0 -99 -40 0 -41 0 2 120 c0 66 3 120 6 120 3 0 21 -9 39 -21z m110 -60
c34 -20 34 -21 34 -95 l0 -75 -42 3 -43 3 -3 93 c-3 102 -1 105 54 71z m95
-49 c15 -9 19 -22 19 -70 0 -33 -3 -60 -7 -60 -5 0 -18 3 -30 6 -21 6 -23 13
-23 63 0 72 5 80 41 61z m89 -50 c33 -17 40 -26 40 -50 0 -29 -2 -30 -45 -30
l-45 0 0 50 c0 28 2 50 5 50 3 0 24 -9 45 -20z m131 -66 c28 -14 49 -26 47
-28 -1 -1 -29 0 -60 2 -53 4 -58 6 -58 28 0 30 9 30 71 -2z m-493 -190 l2
-172 -35 -21 c-20 -11 -38 -21 -41 -21 -7 0 -4 376 3 384 4 4 21 6 38 4 l30
-3 3 -171z m100 26 l-3 -140 -43 -26 -43 -26 5 39 c2 21 5 95 5 166 l1 127 40
0 41 0 -3 -140z m112 32 l0 -108 -41 -23 c-26 -15 -44 -20 -48 -13 -3 5 -5 64
-3 131 l3 121 45 0 44 0 0 -108z m80 13 c0 -78 -1 -82 -25 -93 -14 -7 -28 -12
-30 -12 -7 0 -6 186 0 192 3 3 17 3 30 0 24 -4 25 -7 25 -87z m110 45 c0 -22
5 -40 10 -40 6 0 10 15 10 34 0 19 3 36 8 38 4 2 39 1 77 -2 l70 -5 -132 -68
-133 -67 0 75 0 75 45 0 45 0 0 -40z"/>
</g>
</svg>
