<?xml version="1.0" standalone="no"?>
<!DOCTYPE svg PUBLIC "-//W3C//DTD SVG 20010904//EN"
 "http://www.w3.org/TR/2001/REC-SVG-20010904/DTD/svg10.dtd">
<svg version="1.0" xmlns="http://www.w3.org/2000/svg"
 width="215.000000pt" height="143.000000pt" viewBox="0 0 215.000000 143.000000"
 preserveAspectRatio="xMidYMid meet">
<metadata>
Created by potrace 1.16, written by Peter Selinger 2001-2019
</metadata>
<g transform="translate(0.000000,143.000000) scale(0.100000,-0.100000)"
fill="#000000" stroke="none">
<path d="M377 1039 c-43 -50 -77 -97 -77 -104 0 -7 26 -35 58 -62 31 -26 81
-73 109 -104 l53 -55 -78 -76 c-42 -42 -93 -89 -112 -106 -43 -37 -39 -46 56
-152 70 -78 84 -90 84 -69 0 7 26 36 58 65 61 55 190 214 174 214 -6 0 -52
-41 -103 -91 -96 -94 -157 -145 -163 -138 -2 2 -24 32 -49 66 l-46 61 48 40
c26 22 72 70 101 106 42 51 56 63 67 55 16 -14 18 2 2 18 -8 8 -8 13 0 17 6 4
11 12 11 18 0 7 -4 7 -13 -1 -11 -8 -25 4 -67 55 -29 36 -75 84 -101 106 l-48
40 46 61 c25 34 47 64 49 66 7 7 76 -51 167 -141 49 -49 92 -86 95 -83 9 9
-109 154 -169 209 -33 29 -59 58 -59 64 0 25 -20 8 -93 -79z"/>
<path d="M1405 1004 c-66 -30 -121 -58 -123 -63 -2 -5 -28 2 -59 15 -30 14
-83 31 -117 39 -72 17 -106 10 -201 -37 -66 -34 -221 -133 -230 -148 -16 -26
46 -5 120 40 46 28 86 50 89 50 3 0 6 -26 6 -59 0 -57 -1 -59 -41 -86 -36 -23
-45 -25 -67 -16 -33 16 -56 -3 -29 -23 16 -12 16 -14 1 -20 -9 -4 -14 -12 -10
-21 5 -13 2 -14 -17 -3 -26 14 -57 18 -57 7 0 -14 178 -129 256 -166 105 -50
171 -46 312 18 35 16 66 29 69 29 20 0 307 168 310 181 3 9 17 22 31 28 54 24
192 106 192 114 0 13 -36 -1 -155 -58 -61 -29 -114 -49 -120 -45 -5 5 -63 37
-128 73 -135 74 -137 57 16 142 48 27 87 52 87 57 0 13 -8 10 -135 -48z m-353
-84 c-4 -36 -9 -43 -62 -75 -32 -19 -60 -35 -63 -35 -3 0 -7 25 -9 55 l-3 55
50 20 c28 10 59 19 70 19 18 1 20 -4 17 -39z m64 30 c26 -10 26 -11 8 -25 -28
-21 -39 -18 -39 10 0 14 1 25 2 25 1 0 14 -5 29 -10z m188 -72 c67 -28 161
-71 209 -94 l88 -43 -68 -34 c-77 -39 -289 -132 -346 -153 -33 -12 -42 -11
-73 3 l-35 17 2 146 2 145 34 33 c19 17 42 32 50 32 9 0 71 -23 137 -52z
m-245 -241 l1 -48 -70 37 -70 36 0 52 1 51 62 43 62 43 7 -83 c3 -46 6 -105 7
-131z m-169 73 c0 -28 -1 -29 -26 -18 l-26 12 22 18 c29 24 30 23 30 -12z m8
-105 c2 -20 -1 -35 -5 -32 -4 2 -37 21 -72 42 l-64 38 24 18 c22 17 25 16 69
-6 41 -21 46 -27 48 -60z m162 -65 c0 -26 -24 -26 -95 1 -41 15 -55 25 -51 36
3 8 6 23 6 34 0 18 6 16 70 -16 51 -26 70 -41 70 -55z m48 -11 c-19 -13 -28
-11 -28 5 0 9 7 12 21 9 16 -4 17 -8 7 -14z"/>
<path d="M1607 704 c-4 -4 -7 -11 -7 -16 0 -10 220 -118 240 -118 24 0 -4 21
-98 74 -111 63 -125 69 -135 60z"/>
<path d="M1317 533 c-4 -3 -7 -10 -7 -15 0 -16 232 -122 252 -116 11 4 -89 67
-179 112 -58 29 -57 29 -66 19z"/>
</g>
</svg>
