<?xml version="1.0" standalone="no"?>
<!DOCTYPE svg PUBLIC "-//W3C//DTD SVG 20010904//EN"
 "http://www.w3.org/TR/2001/REC-SVG-20010904/DTD/svg10.dtd">
<svg version="1.0" xmlns="http://www.w3.org/2000/svg"
 width="202.000000pt" height="113.000000pt" viewBox="0 0 202.000000 113.000000"
 preserveAspectRatio="xMidYMid meet">
<metadata>
Created by potrace 1.16, written by Peter Selinger 2001-2019
</metadata>
<g transform="translate(0.000000,113.000000) scale(0.100000,-0.100000)"
fill="#000000" stroke="none">
<path d="M815 736 l-110 -94 -5 76 -5 77 -198 3 -197 4 0 -124 c0 -69 3 -173
7 -231 l6 -107 177 0 c144 0 180 3 190 15 6 8 14 41 17 75 l6 60 46 -40 c129
-112 183 -153 189 -144 4 6 108 46 232 89 124 43 275 97 337 120 l112 43 48
-44 c56 -52 72 -39 19 15 l-37 38 35 39 c59 65 45 76 -19 14 l-40 -39 -130 48
c-72 26 -224 81 -340 121 -115 40 -215 74 -220 76 -6 3 -60 -38 -120 -90z
m100 -154 c-2 -3 -10 -2 -18 1 -20 7 -24 172 -5 194 11 14 14 0 20 -88 4 -57
5 -105 3 -107z m-245 94 l0 -104 -82 5 c-46 3 -84 7 -86 8 -2 2 -6 44 -9 94
l-5 90 49 4 c26 2 67 4 91 5 l42 2 0 -104z m300 4 c0 -82 -3 -100 -15 -100
-12 0 -15 18 -15 100 0 82 3 100 15 100 12 0 15 -18 15 -100z m-502 -5 l4 -95
-71 0 -71 0 0 95 0 95 68 0 67 0 3 -95z m562 -5 c0 -73 -3 -90 -15 -90 -15 0
-17 21 -17 145 0 35 0 35 17 35 12 0 15 -17 15 -90z m60 28 c0 -24 3 -60 6
-80 6 -34 4 -38 -15 -38 -20 0 -21 5 -21 80 0 64 3 80 15 80 11 0 15 -11 15
-42z m-230 -43 c0 -68 -2 -75 -20 -75 -18 0 -20 7 -20 63 0 58 11 87 32 87 4
0 8 -34 8 -75z m298 -8 c3 -62 1 -67 -18 -67 -18 0 -20 6 -20 71 0 62 2 70 18
67 14 -3 18 -16 20 -71z m56 47 c12 -5 16 -20 16 -60 0 -47 -2 -54 -20 -54
-18 0 -20 7 -20 60 0 33 2 60 4 60 2 0 11 -3 20 -6z m76 -75 c0 -28 -4 -39
-15 -39 -11 0 -15 12 -15 51 0 45 2 50 15 39 9 -7 15 -29 15 -51z m-499 44 c8
-58 3 -78 -18 -81 -20 -3 -23 1 -23 30 0 19 5 39 12 46 14 14 28 16 29 5z
m543 -9 c10 -4 16 -18 16 -41 0 -27 -4 -34 -17 -31 -13 2 -19 14 -21 41 -3 39
-3 40 22 31z m76 -34 c0 -5 3 -15 6 -24 4 -12 0 -16 -15 -16 -17 0 -21 6 -21
30 0 22 4 28 15 24 8 -4 15 -10 15 -14z m54 -6 c9 -3 16 -14 16 -24 0 -26 -34
-18 -38 8 -4 24 -2 25 22 16z m-748 -31 c-10 -10 -19 5 -10 18 6 11 8 11 12 0
2 -7 1 -15 -2 -18z m874 -12 c0 -4 -15 -6 -32 -4 -47 6 -60 12 -54 22 7 10 86
-7 86 -18z m-920 -13 c0 -2 3 -48 7 -102 l6 -99 -69 6 c-38 4 -82 7 -97 7
l-28 0 3 88 3 87 35 6 c35 6 140 11 140 7z m820 -19 c0 -5 -4 -9 -9 -9 -5 0
-16 -3 -25 -6 -10 -4 -16 -1 -16 9 0 8 6 17 13 20 16 5 37 -3 37 -14z m50 11
c-20 -13 -43 -13 -35 0 3 6 16 10 28 10 18 0 19 -2 7 -10z m-1068 -90 l3 -90
-79 0 -78 0 6 31 c3 17 6 58 6 90 l0 59 69 0 70 0 3 -90z m258 63 c0 -13 -3
-13 -15 -3 -8 7 -12 16 -9 21 8 13 24 1 24 -18z m67 13 c2 -2 3 -23 1 -46 l-3
-42 -26 20 c-20 16 -25 27 -21 51 3 23 8 29 24 26 12 -3 23 -6 25 -9z m63 -68
c0 -80 0 -81 -20 -63 -16 14 -20 31 -20 75 0 59 4 70 27 70 10 0 13 -20 13
-82z m60 -16 c0 -103 -4 -119 -27 -101 -9 8 -13 38 -13 99 0 88 3 100 27 100
10 0 13 -23 13 -98z m52 33 c1 -36 2 -77 2 -92 1 -19 -5 -29 -16 -31 -16 -3
-18 6 -18 92 0 79 3 96 15 96 12 0 15 -15 17 -65z m66 -18 c3 -73 1 -78 -20
-86 -13 -5 -24 -8 -26 -6 -1 1 1 41 4 89 6 72 10 86 23 84 13 -3 17 -19 19
-81z m60 11 c-2 -60 -6 -73 -20 -76 -16 -3 -18 6 -18 72 0 70 2 76 20 76 19 0
21 -5 18 -72z m72 13 c0 -44 -4 -60 -16 -65 -30 -12 -34 -5 -34 59 0 63 1 65
25 65 24 0 25 -3 25 -59z m61 57 c8 -33 9 -98 1 -98 -6 0 -17 -3 -26 -6 -13
-5 -16 3 -16 50 0 49 2 56 20 56 11 0 20 -1 21 -2z m59 -38 c0 -22 -2 -40 -4
-40 -2 0 -12 -3 -21 -6 -13 -5 -15 -1 -11 22 2 16 5 37 5 47 1 9 8 17 16 17
11 0 15 -11 15 -40z m66 15 c7 -30 7 -30 -23 -39 -21 -7 -23 -4 -23 28 0 29 4
36 20 36 13 0 22 -9 26 -25z m64 6 c0 -11 -9 -21 -22 -24 -27 -8 -29 -6 -21
21 7 28 43 30 43 3z"/>
</g>
</svg>
