<?xml version="1.0" standalone="no"?>
<!DOCTYPE svg PUBLIC "-//W3C//DTD SVG 20010904//EN"
 "http://www.w3.org/TR/2001/REC-SVG-20010904/DTD/svg10.dtd">
<svg version="1.0" xmlns="http://www.w3.org/2000/svg"
 width="179.000000pt" height="188.000000pt" viewBox="0 0 179.000000 188.000000"
 preserveAspectRatio="xMidYMid meet">
<metadata>
Created by potrace 1.16, written by Peter Selinger 2001-2019
</metadata>
<g transform="translate(0.000000,188.000000) scale(0.100000,-0.100000)"
fill="#000000" stroke="none">
<path d="M1204 1564 c4 -9 14 -58 22 -108 14 -77 15 -108 5 -200 -7 -60 -19
-122 -27 -137 -31 -61 -28 -107 17 -290 50 -199 62 -197 25 6 -32 172 -32 190
1 328 30 126 34 261 11 357 -11 46 -17 56 -37 58 -19 3 -22 0 -17 -14z"/>
<path d="M1420 1573 c1 -5 7 -37 15 -73 26 -118 15 -329 -20 -396 -23 -45 -18
-110 21 -271 41 -171 43 -178 50 -170 3 2 -6 71 -20 151 -31 176 -32 237 -5
336 35 131 36 298 3 413 -5 16 -44 25 -44 10z"/>
<path d="M460 585 c-8 -2 -48 -9 -87 -15 -63 -10 -73 -15 -73 -32 0 -17 5 -19
28 -15 128 27 187 30 285 18 55 -7 110 -19 121 -27 33 -23 122 -16 265 21 206
53 192 60 -39 19 l-148 -26 -109 25 c-105 25 -212 39 -243 32z"/>
<path d="M460 384 c-146 -22 -160 -26 -160 -46 0 -17 5 -19 28 -15 155 28 187
30 285 18 56 -7 110 -19 121 -27 33 -23 121 -16 264 20 128 33 165 46 128 46
-10 0 -83 -12 -163 -27 l-146 -26 -121 26 c-131 28 -197 37 -236 31z"/>
</g>
</svg>
