<?xml version="1.0" standalone="no"?>
<!DOCTYPE svg PUBLIC "-//W3C//DTD SVG 20010904//EN"
 "http://www.w3.org/TR/2001/REC-SVG-20010904/DTD/svg10.dtd">
<svg version="1.0" xmlns="http://www.w3.org/2000/svg"
 width="213.000000pt" height="148.000000pt" viewBox="0 0 213.000000 148.000000"
 preserveAspectRatio="xMidYMid meet">
<metadata>
Created by potrace 1.16, written by Peter Selinger 2001-2019
</metadata>
<g transform="translate(0.000000,148.000000) scale(0.100000,-0.100000)"
fill="#000000" stroke="none">
<path d="M1571 1163 c-11 -13 -13 -49 -8 -199 3 -101 3 -184 0 -184 -3 0 -114
63 -247 139 -133 77 -253 142 -267 146 -23 6 -33 -1 -77 -52 -28 -32 -66 -84
-84 -115 l-33 -58 -145 3 -145 2 0 -49 0 -49 -133 2 c-118 2 -132 1 -132 -14
0 -16 13 -17 135 -13 l135 4 0 -64 0 -63 143 7 142 7 39 -58 c39 -56 137 -145
159 -145 7 0 125 65 262 145 l250 144 6 -142 c4 -78 7 -168 8 -200 l1 -58 109
3 108 3 7 85 c3 47 6 236 7 420 0 184 5 340 10 346 6 8 -14 13 -68 18 -120 10
-166 7 -182 -11z m203 -320 c3 -164 8 -346 11 -405 l4 -108 -53 0 c-29 0 -73
3 -97 6 l-44 6 3 186 c2 121 7 191 14 200 9 10 9 15 -1 21 -9 6 -10 51 -5 194
8 210 0 194 100 196 l62 1 6 -297z m-514 73 c113 -60 227 -121 255 -135 74
-39 71 -53 -27 -102 -46 -22 -166 -86 -267 -142 l-184 -101 -51 55 c-122 131
-151 248 -88 364 37 69 129 177 146 173 7 -2 104 -52 216 -112z m-422 -133
c-9 -33 -4 -105 9 -139 4 -11 -19 -14 -127 -14 l-132 0 6 87 c4 52 11 90 19
95 6 4 62 8 124 8 l111 0 -10 -37z"/>
<path d="M1061 833 c-72 -49 -101 -74 -101 -88 1 -20 67 -73 162 -129 l48 -28
87 74 c47 40 87 77 87 83 0 10 -134 128 -166 146 -13 7 -39 -6 -117 -58z m157
-10 c37 -26 77 -54 89 -64 l23 -16 -53 -36 c-28 -19 -69 -47 -89 -62 l-36 -27
-82 63 -81 63 25 19 c15 10 50 39 79 63 28 24 53 44 55 44 2 0 33 -21 70 -47z"/>
</g>
</svg>
