<?xml version="1.0" standalone="no"?>
<!DOCTYPE svg PUBLIC "-//W3C//DTD SVG 20010904//EN"
 "http://www.w3.org/TR/2001/REC-SVG-20010904/DTD/svg10.dtd">
<svg version="1.0" xmlns="http://www.w3.org/2000/svg"
 width="186.000000pt" height="148.000000pt" viewBox="0 0 186.000000 148.000000"
 preserveAspectRatio="xMidYMid meet">
<metadata>
Created by potrace 1.16, written by Peter Selinger 2001-2019
</metadata>
<g transform="translate(0.000000,148.000000) scale(0.100000,-0.100000)"
fill="#000000" stroke="none">
<path d="M1304 1167 c-7 -7 -9 -74 -6 -199 3 -103 2 -188 -1 -188 -2 0 -113
62 -245 139 -133 76 -252 141 -265 145 -21 5 -34 -4 -82 -55 -31 -34 -70 -86
-87 -116 l-30 -54 -144 7 -145 7 3 -124 3 -124 145 3 145 4 19 -34 c27 -46
102 -124 143 -149 l35 -22 41 24 c23 12 138 78 255 146 117 68 214 123 215
123 2 0 3 -10 3 -22 0 -13 1 -103 2 -201 l2 -178 115 3 115 3 1 105 c1 58 4
252 8 431 l6 327 -74 6 c-107 9 -164 7 -177 -7z m210 -494 l7 -343 -49 0 c-27
0 -71 3 -97 7 l-48 6 7 181 c4 100 7 276 6 393 l-1 212 43 5 c24 3 59 7 78 8
l35 3 6 -65 c3 -36 9 -219 13 -407z m-574 271 c85 -46 201 -108 258 -137 66
-33 102 -57 102 -68 0 -11 -75 -57 -232 -141 -128 -69 -248 -134 -266 -144
l-33 -19 -41 45 c-129 144 -157 245 -99 365 25 54 132 186 150 185 3 -1 76
-39 161 -86z m-368 -189 c-2 -35 1 -78 6 -95 l11 -30 -129 0 c-71 0 -131 3
-133 8 -2 4 -2 44 1 89 3 65 7 83 21 86 9 3 63 5 121 6 l106 1 -4 -65z"/>
<path d="M872 882 c-81 -44 -180 -122 -178 -139 3 -18 104 -96 173 -133 l36
-19 41 32 c81 63 136 112 136 122 0 10 -21 29 -131 118 l-45 36 -32 -17z m99
-73 c41 -28 78 -55 82 -59 12 -11 -165 -134 -179 -124 -102 77 -143 110 -141
117 5 16 142 126 153 122 7 -2 45 -27 85 -56z"/>
</g>
</svg>
