<?xml version="1.0" standalone="no"?>
<!DOCTYPE svg PUBLIC "-//W3C//DTD SVG 20010904//EN"
 "http://www.w3.org/TR/2001/REC-SVG-20010904/DTD/svg10.dtd">
<svg version="1.0" xmlns="http://www.w3.org/2000/svg"
 width="112.000000pt" height="170.000000pt" viewBox="0 0 112.000000 170.000000"
 preserveAspectRatio="xMidYMid meet">
<metadata>
Created by potrace 1.16, written by Peter Selinger 2001-2019
</metadata>
<g transform="translate(0.000000,170.000000) scale(0.100000,-0.100000)"
fill="#000000" stroke="none">
<path d="M300 1235 l0 -165 39 0 c58 0 141 47 168 96 13 21 23 53 23 69 0 78
-106 165 -201 165 l-29 0 0 -165z m119 125 c58 -29 91 -74 91 -122 0 -69 -49
-125 -130 -148 l-29 -8 22 41 c30 59 30 168 0 220 -26 44 -15 48 46 17z"/>
<path d="M595 1232 c-3 -3 -5 -79 -5 -170 l0 -165 51 6 c58 7 128 44 153 81
18 29 20 36 7 36 -5 0 -13 -9 -16 -20 -8 -24 -67 -66 -108 -76 l-29 -7 18 34
c28 51 26 182 -3 231 l-21 36 27 -8 c49 -14 89 -39 111 -70 26 -37 40 -32 16
5 -25 39 -88 75 -144 84 -29 4 -54 6 -57 3z"/>
<path d="M305 1002 c-3 -3 -5 -79 -5 -169 l0 -163 29 0 c103 0 206 91 198 176
-5 53 -30 89 -82 119 -41 24 -129 48 -140 37z m132 -48 c106 -61 97 -186 -18
-244 -61 -31 -72 -27 -46 17 30 51 30 160 0 221 l-21 43 22 -7 c11 -3 40 -17
63 -30z"/>
<path d="M584 817 c-2 -7 -3 -82 -2 -167 3 -173 2 -170 76 -151 83 23 152 94
152 158 0 70 -55 132 -142 158 -63 18 -77 19 -84 2z m104 -23 c111 -46 141
-153 64 -227 -25 -24 -89 -57 -111 -57 -6 0 0 17 12 38 31 53 31 171 0 225
-25 41 -20 44 35 21z"/>
<path d="M305 632 c-3 -3 -5 -77 -5 -164 0 -159 0 -159 22 -156 31 4 65 59 73
116 7 53 -7 131 -31 167 -16 24 -16 24 15 15 82 -23 131 -79 131 -148 0 -52
-36 -96 -105 -128 -27 -13 -42 -24 -32 -24 58 0 141 74 153 136 10 54 -23 115
-79 148 -42 25 -131 49 -142 38z"/>
</g>
</svg>
