<?xml version="1.0" standalone="no"?>
<!DOCTYPE svg PUBLIC "-//W3C//DTD SVG 20010904//EN"
 "http://www.w3.org/TR/2001/REC-SVG-20010904/DTD/svg10.dtd">
<svg version="1.0" xmlns="http://www.w3.org/2000/svg"
 width="139.000000pt" height="164.000000pt" viewBox="0 0 139.000000 164.000000"
 preserveAspectRatio="xMidYMid meet">
<metadata>
Created by potrace 1.16, written by Peter Selinger 2001-2019
</metadata>
<g transform="translate(0.000000,164.000000) scale(0.100000,-0.100000)"
fill="#000000" stroke="none">
<path d="M304 1328 c-8 -13 4 -25 214 -205 72 -63 132 -120 132 -127 0 -14
417 -189 434 -182 11 4 -191 104 -309 153 -33 14 -64 28 -68 32 -4 5 25 27 65
51 164 96 298 182 298 190 0 10 -51 -16 -267 -137 -72 -40 -136 -73 -142 -73
-6 0 -84 70 -173 155 -90 85 -166 155 -170 155 -4 0 -10 -5 -14 -12z"/>
<path d="M1076 1212 c-2 -4 -1 -50 3 -102 l8 -95 2 103 c1 96 -1 113 -13 94z"/>
<path d="M304 819 c-7 -12 47 -63 228 -216 64 -54 117 -105 117 -113 1 -9 13
-21 29 -27 15 -6 112 -45 216 -87 103 -43 190 -75 193 -72 6 6 -117 68 -262
131 -60 27 -114 52 -118 55 -5 4 54 45 130 90 192 115 246 150 240 157 -6 5
-120 -54 -305 -159 -57 -32 -107 -58 -110 -58 -7 0 -41 31 -235 213 -57 53
-107 97 -110 97 -3 0 -9 -5 -13 -11z"/>
<path d="M1077 613 c3 -54 7 -100 9 -102 2 -2 4 41 4 97 0 60 -4 102 -10 102
-6 0 -7 -37 -3 -97z"/>
</g>
</svg>
