<?xml version="1.0" standalone="no"?>
<!DOCTYPE svg PUBLIC "-//W3C//DTD SVG 20010904//EN"
 "http://www.w3.org/TR/2001/REC-SVG-20010904/DTD/svg10.dtd">
<svg version="1.0" xmlns="http://www.w3.org/2000/svg"
 width="119.000000pt" height="139.000000pt" viewBox="0 0 119.000000 139.000000"
 preserveAspectRatio="xMidYMid meet">
<metadata>
Created by potrace 1.16, written by Peter Selinger 2001-2019
</metadata>
<g transform="translate(0.000000,139.000000) scale(0.100000,-0.100000)"
fill="#000000" stroke="none">
<path d="M316 1065 c-22 -33 -20 -100 4 -149 11 -23 42 -59 72 -82 60 -46 147
-99 153 -92 2 2 -35 36 -83 74 -48 39 -97 84 -108 102 -21 30 -41 118 -30 129
3 3 27 -13 53 -37 180 -157 295 -252 299 -247 6 6 -325 327 -338 327 -3 0 -13
-11 -22 -25z"/>
<path d="M780 877 c-53 -28 -83 -78 -76 -126 9 -59 86 -121 151 -121 l25 0 0
135 0 135 -28 0 c-16 0 -48 -10 -72 -23z m44 -24 c-7 -16 -14 -55 -14 -88 0
-33 7 -72 14 -87 17 -32 8 -35 -34 -13 -88 46 -93 156 -8 198 49 25 59 22 42
-10z"/>
<path d="M605 706 c-48 -21 -85 -71 -85 -114 0 -71 56 -125 146 -139 l34 -6 0
137 0 136 -32 0 c-18 -1 -47 -7 -63 -14z m37 -28 c-20 -39 -21 -142 -3 -176
18 -33 9 -36 -36 -14 -39 21 -73 66 -73 99 0 34 40 84 83 103 23 11 43 20 44
20 1 0 -6 -15 -15 -32z"/>
<path d="M788 550 c-20 -11 -46 -32 -57 -46 -29 -36 -28 -102 1 -139 25 -32
91 -64 131 -65 l27 0 0 135 0 135 -32 0 c-18 -1 -49 -10 -70 -20z m35 -42
c-17 -48 -12 -140 8 -164 19 -23 3 -27 -36 -8 -49 23 -78 69 -71 112 6 39 20
58 61 84 47 28 55 24 38 -24z"/>
</g>
</svg>
