<?xml version="1.0" standalone="no"?>
<!DOCTYPE svg PUBLIC "-//W3C//DTD SVG 20010904//EN"
 "http://www.w3.org/TR/2001/REC-SVG-20010904/DTD/svg10.dtd">
<svg version="1.0" xmlns="http://www.w3.org/2000/svg"
 width="150.000000pt" height="160.000000pt" viewBox="0 0 150.000000 160.000000"
 preserveAspectRatio="xMidYMid meet">
<metadata>
Created by potrace 1.16, written by Peter Selinger 2001-2019
</metadata>
<g transform="translate(0.000000,160.000000) scale(0.100000,-0.100000)"
fill="#000000" stroke="none">
<path d="M491 1250 c-6 -28 -11 -61 -11 -73 0 -12 -5 -29 -10 -37 -16 -26 -32
4 -39 71 -5 55 -8 60 -20 46 -13 -16 -13 -29 1 -122 2 -13 -4 -20 -17 -23 -60
-11 -95 -24 -95 -37 0 -11 12 -10 67 5 l66 18 49 -41 48 -42 -71 -17 c-78 -18
-90 -24 -66 -34 9 -3 49 3 89 15 l73 20 43 -26 c57 -33 64 -24 12 17 -27 22
-38 36 -31 44 8 10 41 142 41 165 0 6 -6 11 -14 11 -10 0 -18 -25 -27 -87 -7
-49 -13 -90 -15 -92 -2 -2 -23 14 -49 34 -32 27 -42 41 -35 50 5 6 17 43 25
81 9 38 18 77 21 87 3 11 0 17 -9 17 -10 0 -19 -17 -26 -50z"/>
<path d="M1105 1246 c-115 -51 -120 -170 -9 -234 22 -12 52 -21 69 -20 l30 3
3 133 3 132 -33 0 c-18 -1 -46 -7 -63 -14z m30 -36 c-19 -37 -19 -120 -1 -165
17 -39 10 -43 -34 -20 -90 46 -93 143 -6 196 47 29 60 25 41 -11z"/>
<path d="M874 1085 c-41 -25 -74 -74 -74 -113 0 -33 43 -86 90 -110 42 -21 98
-27 93 -9 -2 4 -3 63 -3 132 l0 125 -32 0 c-18 0 -52 -11 -74 -25z m51 -12
c-17 -39 -17 -149 -1 -181 19 -36 18 -37 -28 -18 -91 38 -102 143 -20 197 37
24 59 25 49 2z"/>
<path d="M726 925 c-22 -8 -53 -28 -70 -45 -26 -26 -31 -38 -31 -79 0 -39 5
-55 25 -76 31 -33 65 -51 113 -60 l37 -7 0 141 c0 158 3 154 -74 126z m17 -37
c-21 -41 -21 -135 0 -177 16 -32 16 -32 -6 -26 -66 19 -115 91 -97 141 15 39
39 64 75 80 43 19 45 18 28 -18z"/>
<path d="M1105 914 c-67 -34 -96 -88 -81 -148 12 -48 92 -103 154 -105 22 -1
22 0 22 134 l0 135 -32 0 c-18 0 -46 -7 -63 -16z m37 -26 c-20 -39 -21 -142
-3 -176 17 -31 9 -37 -26 -19 -103 54 -104 160 0 207 23 11 43 20 44 20 1 0
-6 -15 -15 -32z"/>
<path d="M940 781 c-106 -21 -160 -113 -113 -192 19 -32 103 -79 140 -79 23 0
23 1 23 140 0 77 -3 139 -7 139 -5 -1 -24 -4 -43 -8z m-5 -35 c-24 -36 -29
-114 -11 -166 8 -24 13 -46 11 -48 -6 -7 -60 26 -85 53 -50 53 -23 136 55 171
43 19 48 17 30 -10z"/>
<path d="M591 623 l-43 -26 -69 18 c-39 10 -72 15 -75 12 -12 -12 8 -26 49
-32 67 -11 70 -17 30 -49 l-36 -29 -69 18 c-38 10 -72 15 -76 11 -10 -11 14
-22 74 -35 30 -7 54 -15 54 -19 -1 -4 -7 -18 -15 -32 -19 -33 -19 -104 0 -120
13 -11 15 -6 15 33 0 25 5 58 10 72 10 25 106 125 120 125 4 0 13 -40 19 -90
9 -65 17 -90 27 -90 18 0 18 6 -2 92 -9 38 -17 77 -19 87 -2 9 14 30 34 48 44
39 32 42 -28 6z"/>
<path d="M1145 611 c-44 -11 -70 -27 -99 -62 -65 -77 -5 -181 117 -204 l37 -7
0 141 c0 151 2 146 -55 132z m-2 -37 c-24 -37 -24 -151 0 -188 20 -30 18 -31
-26 -12 -108 46 -109 164 -2 212 43 19 48 17 28 -12z"/>
<path d="M475 443 c19 -116 27 -143 41 -143 10 0 13 6 10 18 -3 9 -12 50 -21
90 -17 74 -41 102 -30 35z"/>
</g>
</svg>
