<?xml version="1.0" standalone="no"?>
<!DOCTYPE svg PUBLIC "-//W3C//DTD SVG 20010904//EN"
 "http://www.w3.org/TR/2001/REC-SVG-20010904/DTD/svg10.dtd">
<svg version="1.0" xmlns="http://www.w3.org/2000/svg"
 width="112.000000pt" height="160.000000pt" viewBox="0 0 112.000000 160.000000"
 preserveAspectRatio="xMidYMid meet">
<metadata>
Created by potrace 1.16, written by Peter Selinger 2001-2019
</metadata>
<g transform="translate(0.000000,160.000000) scale(0.100000,-0.100000)"
fill="#000000" stroke="none">
<path d="M514 1288 c-4 -7 8 -23 32 -42 69 -54 185 -170 201 -200 38 -74 56
-207 43 -329 -7 -74 -14 -92 -56 -163 -51 -85 -97 -147 -153 -206 -19 -21 -31
-41 -27 -45 13 -12 148 137 198 218 56 92 74 180 65 332 -7 130 -27 194 -79
254 -43 50 -198 192 -210 193 -4 0 -10 -5 -14 -12z"/>
<path d="M444 1119 c-3 -6 6 -33 21 -60 14 -27 23 -49 19 -49 -3 0 -40 19 -81
41 -60 33 -77 39 -84 28 -11 -18 -9 -19 91 -63 47 -21 89 -42 93 -46 10 -9 49
-151 43 -157 -2 -2 -38 15 -80 38 -68 37 -106 45 -106 22 0 -8 163 -83 181
-83 6 0 8 -15 4 -37 -7 -42 -25 -83 -36 -83 -4 0 -42 18 -85 40 -42 21 -81 37
-86 34 -18 -11 -6 -26 40 -45 26 -12 64 -29 84 -38 l38 -16 -20 -32 -20 -33
-63 35 c-66 37 -97 44 -97 23 0 -7 32 -26 70 -42 72 -31 79 -39 56 -68 -17
-23 -4 -108 23 -146 25 -35 79 -87 85 -81 3 2 -15 35 -40 73 -34 54 -44 79
-44 111 0 46 17 69 44 59 9 -3 16 -2 16 4 0 6 -5 12 -12 14 -7 3 1 22 22 53
59 86 70 233 24 332 -7 17 -14 34 -14 39 0 15 -63 144 -71 144 -4 0 -11 -5
-15 -11z"/>
</g>
</svg>
