<?xml version="1.0" standalone="no"?>
<!DOCTYPE svg PUBLIC "-//W3C//DTD SVG 20010904//EN"
 "http://www.w3.org/TR/2001/REC-SVG-20010904/DTD/svg10.dtd">
<svg version="1.0" xmlns="http://www.w3.org/2000/svg"
 width="101.000000pt" height="160.000000pt" viewBox="0 0 101.000000 160.000000"
 preserveAspectRatio="xMidYMid meet">
<metadata>
Created by potrace 1.16, written by Peter Selinger 2001-2019
</metadata>
<g transform="translate(0.000000,160.000000) scale(0.100000,-0.100000)"
fill="#000000" stroke="none">
<path d="M400 1285 c0 -8 -4 -15 -9 -15 -8 0 -52 -96 -64 -140 -2 -8 14 -51
35 -94 50 -100 68 -168 68 -257 0 -69 -1 -71 -65 -169 -60 -93 -64 -103 -59
-143 4 -23 11 -51 16 -62 18 -35 91 -105 111 -105 28 0 156 136 208 221 56 91
74 178 67 326 -8 154 -26 201 -115 293 -69 73 -171 160 -186 160 -4 0 -7 -7
-7 -15z m133 -125 c93 -88 118 -125 135 -205 13 -58 26 -195 19 -195 -2 0 -47
22 -98 50 -99 52 -119 58 -119 36 0 -12 121 -71 189 -91 22 -7 23 -10 18 -67
-3 -33 -10 -65 -15 -70 -6 -6 -45 8 -107 40 l-98 49 -1 101 c-1 66 -5 105 -13
114 -7 6 -13 19 -13 28 0 8 -18 53 -39 100 l-39 84 31 63 c24 49 34 60 46 53
9 -4 56 -45 104 -90z m15 -527 c48 -20 89 -38 90 -39 5 -3 -43 -91 -62 -117
-13 -17 -20 -15 -109 33 l-96 51 37 55 c20 30 40 54 45 54 4 0 47 -17 95 -37z
m-93 -148 c50 -21 92 -39 94 -41 5 -5 -109 -134 -119 -134 -4 0 -26 28 -49 63
-33 51 -41 73 -41 109 0 44 8 66 19 50 3 -5 47 -26 96 -47z"/>
<path d="M406 1164 c-4 -10 8 -21 42 -35 162 -71 209 -77 92 -12 -104 58 -127
66 -134 47z"/>
<path d="M432 1014 c2 -10 38 -33 88 -55 87 -39 116 -47 105 -29 -6 10 -178
100 -191 100 -3 0 -4 -7 -2 -16z"/>
</g>
</svg>
