<?xml version="1.0" standalone="no"?>
<!DOCTYPE svg PUBLIC "-//W3C//DTD SVG 20010904//EN"
 "http://www.w3.org/TR/2001/REC-SVG-20010904/DTD/svg10.dtd">
<svg version="1.0" xmlns="http://www.w3.org/2000/svg"
 width="140.000000pt" height="142.000000pt" viewBox="0 0 140.000000 142.000000"
 preserveAspectRatio="xMidYMid meet">
<metadata>
Created by potrace 1.16, written by Peter Selinger 2001-2019
</metadata>
<g transform="translate(0.000000,142.000000) scale(0.100000,-0.100000)"
fill="#000000" stroke="none">
<path d="M395 1069 c-14 -28 -42 -73 -62 -101 -42 -57 -43 -55 61 -89 39 -13
73 -27 76 -31 3 -4 57 -9 120 -11 140 -5 170 -10 223 -39 38 -21 43 -28 49
-73 3 -28 7 -123 7 -213 1 -159 11 -202 26 -106 5 38 9 43 18 30 14 -18 157
-99 164 -93 2 3 -34 33 -81 67 -74 53 -86 65 -86 91 0 16 3 29 6 29 4 0 33
-16 66 -36 32 -20 62 -34 65 -31 3 3 -25 27 -61 53 -62 44 -66 50 -66 86 0 21
3 38 7 38 3 0 26 -12 50 -26 64 -37 64 -23 -1 26 -42 32 -56 49 -56 67 0 37
-28 88 -55 103 -31 17 -31 19 3 74 31 52 48 54 114 11 43 -29 40 -14 73 -305
33 -280 47 -321 40 -111 -7 203 -24 359 -41 393 -39 75 -173 121 -399 137
-116 8 -170 29 -200 78 -11 18 -23 32 -27 33 -4 0 -19 -23 -33 -51z m53 -30
c12 -18 9 -26 -20 -70 -33 -48 -50 -57 -77 -40 -12 8 -8 16 18 46 18 21 37 48
43 61 14 29 20 30 36 3z m128 -62 c4 -4 35 -7 68 -7 34 0 78 -3 98 -6 l37 -6
-24 -47 -23 -47 -134 12 c-128 11 -188 21 -188 31 0 2 19 26 41 52 41 48 42
48 80 37 21 -6 41 -15 45 -19z m278 -33 c13 -5 12 -13 -9 -55 -14 -27 -27 -49
-29 -49 -2 0 -17 5 -34 11 l-30 10 26 44 c26 43 43 52 76 39z"/>
<path d="M874 321 c-16 -16 10 -21 109 -20 69 0 104 3 92 9 -22 8 -194 18
-201 11z"/>
</g>
</svg>
