<?xml version="1.0" standalone="no"?>
<!DOCTYPE svg PUBLIC "-//W3C//DTD SVG 20010904//EN"
 "http://www.w3.org/TR/2001/REC-SVG-20010904/DTD/svg10.dtd">
<svg version="1.0" xmlns="http://www.w3.org/2000/svg"
 width="326.000000pt" height="330.000000pt" viewBox="0 0 326.000000 330.000000"
 preserveAspectRatio="xMidYMid meet">
<metadata>
Created by potrace 1.16, written by Peter Selinger 2001-2019
</metadata>
<g transform="translate(0.000000,330.000000) scale(0.100000,-0.100000)"
fill="#000000" stroke="none">
<path d="M1890 2990 c0 -5 -7 -10 -15 -10 -10 0 -15 -10 -15 -34 l0 -33 -345
5 -345 5 0 -23 0 -23 345 5 c190 4 345 5 346 5 0 -1 3 -30 6 -64 l5 -62 -352
6 -352 6 4 -23 3 -24 210 2 c116 1 272 5 348 9 l137 6 0 -78 0 -78 -167 6
c-91 4 -256 7 -367 7 -155 0 -197 3 -188 12 7 7 12 19 12 27 0 10 -9 6 -28
-12 -15 -15 -35 -27 -44 -27 -9 0 -49 36 -89 80 -58 65 -75 78 -86 68 -12 -9
-4 -21 42 -68 43 -44 53 -58 43 -68 -27 -27 -56 -12 -129 68 -58 65 -75 78
-86 68 -12 -9 -3 -23 52 -78 l65 -66 -42 -1 c-41 0 -46 3 -113 77 -65 72 -90
89 -90 63 0 -6 28 -40 62 -76 l62 -66 -60 0 c-46 1 -62 5 -72 20 -8 10 -40 46
-72 80 -39 41 -61 57 -68 50 -7 -7 11 -34 57 -86 l68 -75 -47 0 c-28 0 -44 4
-40 10 8 13 -8 13 -21 0 -7 -7 -40 23 -105 95 -86 96 -114 118 -114 87 0 -5
42 -56 93 -111 l94 -101 -96 -102 c-88 -94 -107 -123 -79 -123 6 0 52 46 103
103 64 70 97 99 104 92 15 -15 26 -12 20 5 -5 12 4 15 51 15 l57 0 -76 -81
c-71 -75 -85 -99 -60 -105 5 -1 45 38 88 87 75 84 81 88 98 72 20 -18 25 -4 6
15 -9 9 0 12 43 12 l56 0 -79 -82 c-73 -75 -87 -98 -62 -104 5 -1 45 38 89 86
75 83 81 88 98 73 21 -19 35 -10 17 12 -11 13 -7 15 26 15 l39 0 -83 -83 c-68
-68 -81 -86 -69 -95 11 -9 30 6 97 79 l82 90 24 -22 24 -23 -55 -56 c-44 -44
-53 -58 -43 -68 10 -10 29 6 94 75 l82 88 36 -34 c41 -40 50 -22 11 19 l-26
27 248 6 c136 4 310 7 386 7 l137 0 0 -55 0 -56 -355 7 -355 7 0 -26 0 -27 88
0 c48 0 206 5 352 10 145 5 266 8 267 6 2 -2 6 -27 10 -55 l6 -52 -94 5 c-52
3 -214 8 -361 11 l-268 6 0 -27 0 -27 323 7 c177 4 339 9 360 13 37 6 38 5 31
-21 -13 -54 22 -38 201 94 l178 130 26 -24 c33 -32 103 -62 164 -71 l47 -6 0
180 0 180 -27 -5 c-16 -2 -44 -7 -63 -10 -19 -3 -53 -16 -76 -28 l-41 -23
-194 143 c-107 79 -197 143 -201 144 -5 0 -8 -4 -8 -10z m271 -226 c57 -37
105 -69 107 -70 2 -1 -4 -14 -14 -29 -11 -17 -17 -44 -16 -76 1 -44 -2 -51
-26 -63 -15 -8 -83 -54 -152 -103 -69 -49 -131 -93 -138 -97 -9 -5 -12 63 -12
303 l0 311 73 -54 c40 -30 120 -84 178 -122z m235 -51 c-45 -45 -46 -46 -66
-28 -13 12 -17 22 -11 28 8 8 104 45 119 47 2 0 -17 -21 -42 -47z m-68 -51
c20 -15 22 -22 13 -44 -11 -29 -65 -63 -82 -52 -14 8 -5 79 11 99 16 19 30 19
58 -3z m73 -180 c23 -23 39 -42 36 -42 -3 0 -30 9 -60 20 -47 18 -108 64 -96
73 2 2 17 13 34 26 l30 23 7 -29 c4 -16 26 -47 49 -71z m-1356 58 c-10 -11
-21 -20 -24 -20 -3 0 -12 9 -19 20 -11 19 -10 20 24 20 36 0 37 0 19 -20z"/>
<path d="M1882 1652 c-14 -9 -22 -25 -22 -43 l0 -29 -345 6 -345 7 0 -26 0
-27 98 0 c53 1 207 5 342 10 135 5 246 7 247 6 2 -1 6 -31 9 -65 l7 -63 -351
8 -352 7 0 -27 0 -26 128 0 c70 1 226 5 347 10 120 5 220 8 221 7 1 -1 5 -66
8 -145 l7 -143 -93 6 c-51 2 -211 7 -355 10 l-263 6 0 -26 0 -25 178 1 c97 0
256 4 352 8 96 4 176 7 177 7 1 -1 5 -24 8 -53 l7 -51 -361 6 -361 5 0 -22 c0
-21 1 -21 228 -20 125 1 286 4 359 8 129 6 132 5 127 -14 -2 -11 0 -26 5 -34
7 -11 37 7 143 85 73 55 154 115 179 133 l47 33 43 -31 c45 -33 124 -61 171
-61 l28 0 0 176 0 177 -55 -6 c-29 -3 -76 -17 -104 -30 l-49 -25 -64 46 c-35
25 -122 89 -193 142 -124 92 -132 96 -153 82z m111 -106 c82 -61 250 -172 269
-178 10 -4 9 -10 -3 -29 -22 -34 -29 -66 -19 -98 7 -26 4 -30 -30 -50 -21 -12
-95 -62 -165 -111 -69 -50 -128 -90 -131 -90 -2 0 -4 137 -4 305 0 168 2 305
5 305 3 0 38 -24 78 -54z m400 -170 c-36 -42 -38 -43 -60 -27 -12 9 -23 19
-23 22 0 8 90 48 108 49 7 0 -4 -20 -25 -44z m-72 -42 c26 -13 30 -19 24 -42
-4 -15 -7 -27 -8 -28 -1 0 -18 -10 -39 -21 -20 -12 -39 -19 -42 -16 -11 12 -6
64 9 93 18 35 17 35 56 14z m33 -119 c4 -14 24 -43 46 -65 22 -22 36 -40 32
-40 -24 0 -101 33 -127 55 l-30 25 28 25 c35 31 43 31 51 0z"/>
<path d="M1385 750 c-4 -6 36 -55 87 -111 51 -55 94 -104 96 -108 1 -4 -39
-52 -90 -106 -51 -54 -93 -103 -93 -108 0 -31 32 -7 116 87 59 66 98 101 104
95 14 -14 28 -11 21 6 -4 12 6 15 57 15 l62 0 -84 -84 c-72 -73 -92 -106 -63
-106 4 0 43 40 87 89 76 86 81 89 99 73 18 -16 18 -16 12 6 -7 21 -5 22 46 22
l53 0 -85 -85 c-66 -66 -82 -87 -72 -97 9 -9 30 8 96 78 68 72 87 87 97 77 7
-7 20 -13 28 -13 11 0 10 4 -4 20 -18 20 -17 20 24 20 l41 0 -70 -67 c-78 -73
-97 -100 -82 -115 6 -6 40 24 94 81 l85 90 21 -21 21 -21 -51 -59 c-34 -40
-48 -62 -41 -69 7 -7 37 19 92 77 l81 87 35 -33 c41 -40 48 -20 8 22 l-27 28
100 0 c162 0 669 12 673 16 13 11 -36 14 -372 20 -356 7 -367 8 -351 26 23 24
9 23 -23 -2 -14 -11 -33 -20 -42 -20 -9 0 -50 37 -93 82 -64 70 -77 80 -83 65
-6 -14 5 -32 46 -73 44 -45 51 -56 39 -64 -34 -22 -56 -9 -132 72 -64 70 -77
80 -84 65 -5 -14 8 -33 54 -80 l61 -62 -38 -3 c-36 -2 -43 2 -113 77 -55 58
-78 77 -89 70 -11 -6 2 -24 56 -79 l69 -70 -59 3 -60 2 -70 75 c-38 41 -74 75
-80 75 -23 0 -7 -27 53 -89 34 -36 62 -68 62 -71 0 -11 -79 -4 -83 8 -3 9 -7
9 -18 0 -12 -10 -31 6 -109 93 -52 57 -97 104 -101 104 -5 0 -11 -5 -14 -10z
m755 -233 c0 -2 -8 -11 -18 -21 -18 -15 -20 -15 -37 4 -18 20 -18 20 18 20 21
0 37 -2 37 -3z"/>
</g>
</svg>
