<?xml version="1.0" standalone="no"?>
<!DOCTYPE svg PUBLIC "-//W3C//DTD SVG 20010904//EN"
 "http://www.w3.org/TR/2001/REC-SVG-20010904/DTD/svg10.dtd">
<svg version="1.0" xmlns="http://www.w3.org/2000/svg"
 width="201.000000pt" height="389.000000pt" viewBox="0 0 201.000000 389.000000"
 preserveAspectRatio="xMidYMid meet">
<metadata>
Created by potrace 1.16, written by Peter Selinger 2001-2019
</metadata>
<g transform="translate(0.000000,389.000000) scale(0.100000,-0.100000)"
fill="#000000" stroke="none">
<path d="M1138 3580 c-26 -5 -70 -21 -98 -36 -70 -38 -150 -138 -134 -167 4
-6 -5 -1 -19 12 -15 13 -29 32 -33 43 -3 10 -11 18 -19 18 -7 0 -15 5 -17 11
-6 18 -211 -45 -293 -90 -122 -66 -155 -137 -120 -257 22 -75 80 -137 145
-153 25 -6 53 -16 64 -22 28 -16 118 -14 152 4 36 19 57 42 79 89 36 77 139
135 191 107 32 -17 131 -5 190 23 26 12 65 38 86 59 23 21 46 35 54 32 9 -3
12 0 9 9 -3 8 10 41 30 73 45 76 46 106 0 38 -19 -28 -39 -54 -44 -58 -6 -3
-36 48 -67 115 -31 66 -62 120 -69 120 -22 0 -24 -13 -6 -39 10 -14 41 -70 70
-125 l53 -99 -28 -28 -29 -28 -69 149 c-38 83 -72 150 -75 150 -30 -1 -22 -27
50 -155 43 -77 78 -145 78 -151 1 -6 -18 -21 -41 -34 -39 -22 -55 -24 -165
-25 -118 0 -122 -1 -164 -30 -24 -17 -53 -50 -66 -75 -37 -72 -74 -100 -133
-100 -121 0 -199 39 -241 121 -10 21 -19 41 -19 44 0 4 20 3 45 -1 58 -8 59 8
1 24 -39 10 -44 14 -49 49 -7 40 7 70 47 106 36 31 179 96 254 114 l71 17 40
-37 c23 -20 45 -37 50 -37 6 0 28 27 51 59 70 100 136 133 289 147 45 3 84 11
87 15 6 11 -123 10 -188 -1z"/>
<path d="M1044 3494 c-13 -5 92 -194 107 -194 4 0 -12 43 -36 96 -25 53 -45
98 -45 100 0 5 -12 4 -26 -2z"/>
<path d="M1057 2186 c-6 -14 5 -16 83 -17 120 -2 115 -1 118 -29 7 -51 43
-220 52 -246 20 -53 20 -15 0 96 -11 63 -20 128 -20 145 0 29 2 31 34 27 34
-4 34 -5 41 -65 4 -34 16 -89 26 -122 10 -33 15 -63 11 -67 -4 -3 -72 -53
-152 -109 l-145 -102 -53 11 c-29 6 -101 36 -160 66 l-107 54 -65 -71 c-90
-98 -138 -127 -211 -127 -75 0 -99 12 -131 63 -57 91 -62 163 -14 222 57 69
229 225 249 225 2 0 26 -58 53 -130 47 -124 69 -161 62 -103 -3 24 8 35 92 94
62 45 97 64 101 56 4 -7 10 -37 13 -67 11 -81 57 -260 68 -260 5 0 7 8 4 18
-2 9 -14 71 -26 137 -11 66 -24 139 -29 162 -8 41 -7 43 31 74 22 17 37 34 33
37 -3 3 -71 -39 -151 -93 -116 -78 -148 -95 -155 -84 -5 8 -21 50 -35 94 -39
119 -39 119 -131 50 -148 -112 -243 -229 -243 -302 0 -46 37 -139 72 -178 41
-48 82 -59 160 -44 76 14 119 42 198 126 l59 63 100 -49 c66 -32 125 -53 171
-61 67 -11 73 -11 93 8 12 11 81 61 152 112 72 51 186 141 254 199 69 58 132
111 140 118 9 6 13 14 9 18 -3 4 -39 -20 -80 -52 -143 -115 -198 -156 -203
-151 -7 7 -35 167 -35 201 0 24 4 27 38 28 20 1 44 2 52 3 8 2 62 3 119 4 64
1 101 6 95 11 -5 5 -149 12 -320 16 -282 7 -311 6 -317 -9z"/>
<path d="M1164 2103 c4 -32 18 -105 33 -163 42 -173 59 -178 23 -7 -10 53 -22
125 -26 161 -5 49 -11 66 -22 66 -12 0 -13 -10 -8 -57z"/>
<path d="M1085 2118 c-8 -19 18 -170 45 -262 21 -73 36 -101 28 -51 -51 314
-59 349 -73 313z"/>
<path d="M990 2088 c0 -59 66 -338 80 -338 4 0 -1 40 -11 88 -10 48 -23 127
-30 175 -8 60 -16 87 -26 87 -7 0 -13 -6 -13 -12z"/>
<path d="M470 2006 c0 -14 103 -252 114 -264 19 -18 9 18 -37 137 -46 120 -77
171 -77 127z"/>
<path d="M1057 887 c-6 -17 33 -28 80 -22 27 3 29 1 25 -23 -6 -48 64 -355 75
-325 2 7 -5 59 -16 115 -11 57 -23 126 -26 153 -4 28 -9 57 -11 65 -3 12 4 15
35 12 l39 -4 7 -56 c8 -72 43 -214 56 -226 12 -13 12 -16 -11 119 -28 162 -28
165 14 165 l33 0 7 -61 c4 -34 16 -89 26 -123 11 -33 20 -62 20 -63 0 -1 -65
-47 -144 -103 -80 -55 -146 -105 -148 -110 -6 -19 -131 21 -231 75 -93 49
-105 53 -118 39 -14 -13 -23 -13 -83 2 -55 14 -69 21 -77 42 -5 14 -8 26 -7
28 2 1 32 -3 66 -11 l63 -13 -3 36 c-3 35 0 38 92 103 61 43 97 63 101 56 4
-7 10 -37 13 -67 11 -81 57 -260 68 -260 5 0 7 8 4 18 -4 15 -25 125 -55 294
-8 46 -7 49 25 73 19 15 34 30 34 36 0 5 -67 -35 -149 -90 l-149 -100 -37 105
c-20 57 -42 107 -47 110 -12 8 -144 -94 -217 -166 -31 -31 -69 -80 -85 -109
-24 -45 -28 -61 -23 -101 7 -60 41 -132 80 -172 30 -29 32 -30 116 -27 102 4
132 20 229 123 l61 66 104 -51 c72 -35 126 -54 175 -61 66 -11 72 -10 89 9 10
11 74 60 143 109 69 49 178 134 244 189 65 55 130 110 145 122 14 11 23 24 20
27 -3 3 -66 -41 -140 -99 -73 -58 -137 -105 -141 -105 -8 0 -16 36 -32 144
l-12 84 160 7 c90 4 152 11 141 15 -11 4 -156 10 -321 14 -260 7 -302 6 -307
-7z m-423 -90 c9 -23 16 -45 16 -48 0 -3 -27 1 -60 10 l-60 16 37 32 c21 18
41 32 44 33 4 0 14 -19 23 -43z m-114 -51 c-9 -12 0 -41 46 -145 31 -72 61
-131 66 -131 5 0 7 9 3 19 -5 18 -3 18 37 9 73 -17 72 -15 44 -49 -78 -92
-167 -136 -250 -122 -66 11 -122 93 -133 197 l-5 52 87 92 c48 51 94 92 102
92 12 0 13 -3 3 -14z m101 -12 c26 -4 40 -14 48 -31 7 -14 10 -28 7 -30 -8 -8
-119 26 -127 39 -16 25 -10 41 14 34 12 -3 38 -9 58 -12z m19 -76 c40 -9 54
-18 61 -36 15 -39 12 -40 -53 -22 -41 11 -64 23 -69 36 -16 39 -15 40 61 22z"/>
<path d="M1085 768 c8 -65 50 -244 64 -278 10 -23 11 -23 8 10 -2 19 -15 99
-28 177 -17 101 -28 143 -37 143 -11 0 -12 -12 -7 -52z"/>
<path d="M995 790 c-13 -21 57 -340 75 -340 4 0 -1 40 -11 88 -10 48 -23 127
-30 175 -11 82 -20 100 -34 77z"/>
</g>
</svg>
