<?xml version="1.0" standalone="no"?>
<!DOCTYPE svg PUBLIC "-//W3C//DTD SVG 20010904//EN"
 "http://www.w3.org/TR/2001/REC-SVG-20010904/DTD/svg10.dtd">
<svg version="1.0" xmlns="http://www.w3.org/2000/svg"
 width="265.000000pt" height="256.000000pt" viewBox="0 0 265.000000 256.000000"
 preserveAspectRatio="xMidYMid meet">
<metadata>
Created by potrace 1.16, written by Peter Selinger 2001-2019
</metadata>
<g transform="translate(0.000000,256.000000) scale(0.100000,-0.100000)"
fill="#000000" stroke="none">
<path d="M1407 2253 c-18 -17 1 -23 95 -25 l102 -3 12 -79 c15 -94 44 -205 56
-212 10 -7 11 -15 -11 107 -11 57 -21 122 -23 144 -3 39 -2 40 29 43 36 4 34
7 53 -105 6 -35 18 -82 26 -105 8 -23 11 -44 6 -47 -4 -3 -75 -53 -156 -110
l-148 -104 -52 12 c-28 7 -98 36 -156 65 l-104 53 -81 -83 c-90 -93 -129 -114
-211 -114 -52 0 -59 3 -94 38 -25 25 -43 56 -54 92 -25 85 -22 110 26 170 39
49 222 210 238 210 4 0 29 -58 56 -130 27 -71 53 -130 57 -130 5 0 6 13 2 28
-6 30 -7 29 167 145 l27 18 6 -38 c14 -91 67 -303 76 -303 6 0 8 8 5 18 -10
33 -35 167 -46 250 -7 45 -17 82 -23 82 -6 0 8 14 31 32 45 35 56 56 20 37
-13 -6 -79 -50 -146 -96 -68 -47 -126 -82 -129 -80 -2 3 -21 49 -41 103 -21
53 -42 99 -48 101 -12 4 -113 -71 -193 -143 -30 -27 -72 -76 -94 -109 -36 -56
-39 -64 -34 -116 6 -67 44 -146 89 -184 32 -27 36 -27 116 -22 75 6 88 10 132
42 27 20 72 61 98 92 l49 56 64 -33 c106 -54 185 -80 243 -80 30 0 56 4 58 8
2 4 59 48 128 97 115 81 391 305 420 340 26 31 -5 13 -89 -53 -128 -102 -184
-143 -188 -139 -4 4 -26 123 -37 195 l-6 42 155 0 c85 0 155 4 155 8 0 16
-618 31 -633 15z"/>
<path d="M1514 2158 c6 -53 46 -231 62 -277 20 -60 -3 121 -42 317 -2 12 -9
22 -15 22 -8 0 -9 -19 -5 -62z"/>
<path d="M1435 2179 c-4 -6 -4 -31 0 -57 11 -79 57 -266 67 -277 7 -7 8 1 4
25 -20 103 -46 265 -46 285 0 27 -15 41 -25 24z"/>
<path d="M1345 2108 c3 -29 18 -102 32 -163 41 -178 60 -184 24 -8 -11 51 -23
122 -26 158 -5 48 -11 65 -22 65 -12 0 -14 -10 -8 -52z"/>
<path d="M817 2073 c-6 -11 109 -267 122 -271 10 -3 -5 44 -67 198 -28 70 -44
92 -55 73z"/>
<path d="M1063 1695 c0 -14 21 -15 194 -13 l193 3 0 -28 0 -28 -192 2 c-158 1
-193 -1 -193 -12 0 -11 35 -14 191 -12 l192 1 5 -23 4 -24 -196 2 c-168 2
-196 0 -196 -13 0 -13 27 -14 198 -11 l197 3 0 -27 0 -27 -197 3 c-168 3 -198
1 -198 -11 0 -13 30 -15 198 -13 192 2 197 2 197 -18 0 -20 -5 -20 -197 -18
-165 2 -198 0 -198 -12 0 -12 35 -14 200 -14 182 0 200 -2 203 -17 3 -17 -12
-18 -203 -18 -161 0 -206 -3 -202 -12 3 -10 52 -13 205 -11 173 1 202 0 202
-13 0 -8 5 -12 10 -9 6 3 10 49 10 103 l0 97 203 4 c111 2 204 5 206 7 14 13
-29 16 -208 18 l-201 1 0 75 0 75 -213 3 c-191 3 -214 2 -214 -13z"/>
<path d="M1697 886 c-7 -17 31 -28 78 -22 l30 4 2 -59 c3 -88 71 -358 73 -288
0 9 -7 50 -15 90 -8 41 -21 113 -29 162 l-13 87 38 0 c33 0 39 -3 39 -21 0
-28 38 -212 50 -245 20 -52 20 -16 0 100 -28 164 -28 166 14 166 l33 0 7 -61
c4 -34 16 -89 26 -123 11 -33 20 -62 20 -63 0 -1 -59 -43 -132 -94 -73 -52
-140 -101 -149 -110 -16 -16 -23 -16 -79 -3 -33 7 -107 39 -164 69 l-103 55
-26 -32 c-107 -137 -190 -186 -289 -171 -68 10 -124 92 -135 196 l-5 52 67 72
c91 99 216 199 226 181 4 -7 26 -65 49 -128 47 -126 64 -155 58 -101 -3 34 0
37 92 102 60 42 97 62 101 55 4 -6 10 -36 13 -66 11 -81 57 -260 68 -260 5 0
7 8 4 18 -6 19 -56 307 -56 323 0 6 -6 7 -12 4 -7 -4 6 10 30 30 82 71 40 54
-106 -44 l-149 -99 -31 88 c-18 48 -32 92 -32 97 0 6 -7 16 -15 23 -13 11 -27
3 -88 -43 -114 -87 -193 -171 -224 -237 l-28 -59 -107 0 -107 -1 -3 75 -3 75
-208 3 c-197 2 -207 1 -207 -17 0 -18 9 -19 192 -15 l191 4 4 -26 3 -27 -195
6 c-187 5 -195 4 -195 -14 0 -18 9 -19 196 -15 l196 3 -4 -22 c-3 -22 -4 -22
-196 -21 -174 2 -192 0 -192 -15 0 -15 17 -16 195 -12 l195 6 0 -27 0 -27
-195 4 c-177 4 -195 3 -195 -12 0 -15 18 -17 194 -14 192 3 195 3 199 -18 4
-21 3 -21 -196 -16 -187 5 -199 4 -196 -13 4 -16 20 -17 201 -16 192 2 198 1
198 -18 0 -19 -5 -20 -201 -14 -194 6 -201 6 -197 -13 3 -18 13 -19 201 -15
141 2 197 0 197 -8 0 -6 5 -11 10 -11 6 0 10 40 10 100 l0 100 64 0 c35 0 83
3 108 6 l44 6 13 -43 c19 -64 60 -136 89 -155 18 -12 43 -15 106 -13 97 4 129
22 224 123 l61 66 104 -51 c123 -60 238 -85 260 -56 6 9 74 60 149 114 142
102 408 321 408 336 0 9 -14 -1 -184 -132 -53 -41 -98 -72 -101 -69 -3 2 -13
54 -23 114 l-19 109 101 6 c56 4 128 7 161 9 45 1 54 4 35 9 -14 5 -158 11
-321 15 -259 6 -297 5 -302 -8z"/>
<path d="M1725 768 c7 -61 62 -289 71 -297 8 -7 4 23 -27 207 -17 102 -27 142
-37 142 -11 0 -12 -12 -7 -52z"/>
<path d="M1636 791 c-13 -20 57 -341 74 -341 4 0 -1 40 -11 88 -10 48 -23 127
-30 175 -11 81 -20 100 -33 78z"/>
<path d="M1115 709 c-8 -21 109 -288 121 -276 6 6 -94 268 -107 281 -5 6 -11
4 -14 -5z"/>
</g>
</svg>
