<?xml version="1.0" standalone="no"?>
<!DOCTYPE svg PUBLIC "-//W3C//DTD SVG 20010904//EN"
 "http://www.w3.org/TR/2001/REC-SVG-20010904/DTD/svg10.dtd">
<svg version="1.0" xmlns="http://www.w3.org/2000/svg"
 width="126.000000pt" height="169.000000pt" viewBox="0 0 126.000000 169.000000"
 preserveAspectRatio="xMidYMid meet">
<metadata>
Created by potrace 1.16, written by Peter Selinger 2001-2019
</metadata>
<g transform="translate(0.000000,169.000000) scale(0.100000,-0.100000)"
fill="#000000" stroke="none">
<path d="M305 1357 c-4 -18 -5 -49 -3 -68 4 -31 5 -30 12 18 l8 51 32 -19 c17
-10 36 -19 41 -19 11 1 -64 70 -76 70 -5 0 -11 -15 -14 -33z"/>
<path d="M424 1321 c-16 -17 15 -21 154 -21 173 0 213 -7 288 -52 45 -27 50
-34 50 -64 -1 -32 -3 -34 -38 -34 -24 0 -38 5 -38 13 0 14 -62 67 -114 98 -30
17 -57 22 -166 26 -114 4 -130 3 -130 -11 0 -14 17 -16 123 -16 101 0 130 -4
167 -21 80 -36 90 -52 90 -138 l0 -76 -42 43 -43 43 40 34 c33 29 37 35 19 35
-28 0 -140 -109 -190 -184 -36 -55 -39 -64 -39 -130 0 -87 31 -160 130 -302
36 -52 65 -96 65 -100 0 -16 -78 -34 -148 -34 -98 0 -172 -10 -172 -22 0 -6
50 -9 128 -7 117 4 131 6 174 32 71 42 76 49 84 137 l7 80 43 0 c37 0 44 -3
44 -20 0 -17 -7 -20 -40 -20 -49 0 -53 -18 -5 -22 l34 -3 -24 -59 c-50 -122
-80 -136 -295 -136 -133 0 -160 -2 -160 -15 0 -12 26 -13 173 -8 183 6 207 12
252 60 31 34 89 179 104 258 14 72 14 307 1 435 -9 89 -12 97 -42 124 -71 62
-106 71 -301 76 -98 3 -181 3 -183 1z m496 -211 c0 -17 -7 -20 -40 -20 -33 0
-40 3 -40 20 0 17 7 20 40 20 33 0 40 -3 40 -20z m-142 -84 c42 -40 42 -40 41
-111 -1 -116 -3 -116 -94 -25 -70 71 -107 96 -104 73 0 -5 43 -46 95 -93 93
-83 94 -84 94 -131 0 -25 -3 -61 -6 -78 l-7 -32 -82 81 c-75 73 -105 93 -105
72 0 -4 43 -45 95 -92 101 -90 103 -95 86 -174 -9 -44 -26 -42 -60 8 -42 61
-39 68 9 21 26 -26 40 -34 40 -23 0 8 -24 36 -52 62 -29 26 -60 53 -68 61 -8
7 -30 48 -49 91 -41 98 -44 150 -8 220 42 83 45 83 123 15 38 -34 73 -61 79
-61 5 0 -23 33 -63 73 -68 68 -71 74 -55 89 19 20 23 18 91 -46z m154 -46 l3
-91 -43 3 -43 3 -4 88 -4 87 44 0 44 0 3 -90z m-2 -130 c0 -17 -7 -20 -45 -20
-38 0 -45 3 -45 20 0 17 7 20 45 20 38 0 45 -3 45 -20z m0 -87 c0 -84 -6 -93
-58 -93 l-45 0 7 53 c3 28 6 60 6 70 0 14 9 17 45 17 l45 0 0 -47z"/>
<path d="M600 891 c0 -12 193 -191 199 -185 6 6 -180 194 -191 194 -5 0 -8 -4
-8 -9z"/>
<path d="M343 1269 c-31 -19 -43 -39 -25 -39 9 0 82 49 82 55 0 11 -27 3 -57
-16z"/>
<path d="M306 444 c-13 -35 -3 -144 14 -144 11 0 86 69 75 70 -5 0 -23 -9 -40
-20 -16 -11 -33 -20 -37 -20 -4 0 -6 24 -5 54 l2 54 33 -20 c48 -29 63 -16 17
15 -46 31 -51 32 -59 11z"/>
</g>
</svg>
