<?xml version="1.0" standalone="no"?>
<!DOCTYPE svg PUBLIC "-//W3C//DTD SVG 20010904//EN"
 "http://www.w3.org/TR/2001/REC-SVG-20010904/DTD/svg10.dtd">
<svg version="1.0" xmlns="http://www.w3.org/2000/svg"
 width="223.000000pt" height="122.000000pt" viewBox="0 0 223.000000 122.000000"
 preserveAspectRatio="xMidYMid meet">
<metadata>
Created by potrace 1.16, written by Peter Selinger 2001-2019
</metadata>
<g transform="translate(0.000000,122.000000) scale(0.100000,-0.100000)"
fill="#000000" stroke="none">
<path d="M302 616 l3 -308 225 1 c249 2 640 17 648 26 3 3 -1 5 -9 5 -12 0
-13 17 -8 97 4 54 7 112 8 128 l1 30 238 2 c299 3 522 13 522 22 0 11 -270 21
-538 21 l-223 0 2 132 c1 121 0 132 -17 135 -11 1 -207 6 -437 10 l-419 6 4
-307z m818 264 c0 -6 -48 -9 -127 -8 l-128 2 105 6 c58 3 115 7 128 8 12 1 22
-2 22 -8z m-290 -93 c0 -52 3 -169 7 -260 l6 -167 -258 0 -258 0 7 77 c3 42 6
156 6 254 l0 179 233 3 c127 1 238 3 245 5 9 1 12 -22 12 -91z m295 36 c2 -23
0 -23 -127 -23 -121 0 -128 1 -128 20 0 18 8 20 113 23 61 1 118 3 126 2 8 0
15 -10 16 -22z m1 -70 c4 -23 3 -23 -126 -23 -122 0 -130 1 -130 19 0 22 24
26 169 26 79 0 84 -1 87 -22z m4 -73 l0 -30 -130 0 -130 0 0 25 c0 24 0 24
113 28 61 1 120 4 130 5 13 1 17 -5 17 -28z m0 -80 l0 -30 -107 0 c-127 0
-153 6 -153 31 0 16 10 19 88 21 48 2 106 4 130 6 41 3 42 2 42 -28z m0 -80
l0 -30 -130 0 -130 0 0 30 0 30 130 0 130 0 0 -30z m8 -82 l3 -28 -140 0 -141
0 0 25 c0 24 0 24 113 28 169 5 162 6 165 -25z m2 -68 c0 -20 -6 -20 -137 -18
-113 2 -138 6 -141 18 -2 13 19 15 138 17 134 2 140 2 140 -17z"/>
</g>
</svg>
