<?xml version="1.0" standalone="no"?>
<!DOCTYPE svg PUBLIC "-//W3C//DTD SVG 20010904//EN"
 "http://www.w3.org/TR/2001/REC-SVG-20010904/DTD/svg10.dtd">
<svg version="1.0" xmlns="http://www.w3.org/2000/svg"
 width="260.000000pt" height="165.000000pt" viewBox="0 0 260.000000 165.000000"
 preserveAspectRatio="xMidYMid meet">
<metadata>
Created by potrace 1.16, written by Peter Selinger 2001-2019
</metadata>
<g transform="translate(0.000000,165.000000) scale(0.100000,-0.100000)"
fill="#000000" stroke="none">
<path d="M1890 1257 c-96 -51 -237 -126 -313 -166 -113 -60 -136 -75 -126 -87
9 -11 22 -8 78 23 131 72 536 305 546 314 25 24 -24 1 -185 -84z"/>
<path d="M2060 1284 c-25 -14 -165 -89 -312 -166 -167 -88 -265 -145 -261
-152 4 -6 -16 7 -45 28 -40 29 -56 35 -66 27 -7 -6 -15 -8 -18 -5 -13 12 -451
-273 -442 -287 6 -11 -92 -12 -199 -3 l-77 7 0 163 0 164 -25 0 -25 0 0 -165
0 -165 -145 0 -145 0 0 -31 0 -31 143 7 144 8 6 -93 c4 -51 7 -123 7 -160 0
-37 3 -82 7 -101 10 -52 21 -9 22 87 1 44 4 122 7 172 l7 90 131 4 c72 2 133
0 136 -3 3 -3 66 -46 140 -96 153 -102 299 -188 306 -180 5 5 -102 91 -265
210 l-104 77 74 1 c84 1 145 17 69 18 -25 1 -68 4 -97 7 l-52 7 92 65 c51 36
133 99 184 139 l92 73 94 -68 c52 -37 149 -103 216 -146 l122 -78 -98 -63
c-145 -94 -323 -217 -323 -225 0 -3 6 -14 13 -24 12 -16 24 -10 143 79 146
111 284 223 284 233 0 4 -16 20 -35 35 -19 15 -35 31 -35 35 0 4 28 23 63 41
69 38 448 255 485 278 13 8 22 17 19 20 -3 2 -137 -66 -299 -151 -162 -86
-299 -156 -306 -156 -28 0 -19 21 20 43 233 131 545 311 553 318 26 25 -28 0
-196 -89 -400 -213 -435 -231 -447 -223 -9 5 91 67 284 178 164 93 300 176
302 183 3 9 -7 6 -29 -7 -113 -68 -592 -314 -607 -311 -12 3 -4 11 28 29 445
254 560 322 560 331 0 5 -24 -4 -52 -20 -56 -32 -566 -301 -577 -305 -3 -1 -8
3 -10 8 -3 6 31 30 75 53 157 87 499 285 514 298 23 22 -1 16 -50 -12z"/>
</g>
</svg>
