<?xml version="1.0" standalone="no"?>
<!DOCTYPE svg PUBLIC "-//W3C//DTD SVG 20010904//EN"
 "http://www.w3.org/TR/2001/REC-SVG-20010904/DTD/svg10.dtd">
<svg version="1.0" xmlns="http://www.w3.org/2000/svg"
 width="161.000000pt" height="117.000000pt" viewBox="0 0 161.000000 117.000000"
 preserveAspectRatio="xMidYMid meet">
<metadata>
Created by potrace 1.16, written by Peter Selinger 2001-2019
</metadata>
<g transform="translate(0.000000,117.000000) scale(0.100000,-0.100000)"
fill="#000000" stroke="none">
<path d="M311 862 c-12 -8 -13 -54 -8 -276 3 -146 9 -271 13 -277 5 -9 122
-11 492 -6 267 4 487 8 489 10 9 10 15 534 6 540 -18 11 -977 19 -992 9z m953
-189 c3 -93 9 -208 12 -257 l6 -89 -114 6 c-62 4 -232 7 -378 7 l-265 0 3 238
c2 130 5 238 6 238 0 1 143 6 316 11 173 5 336 10 361 11 l47 2 6 -167z m-772
130 c3 -10 6 -99 8 -198 2 -99 4 -198 4 -219 l1 -39 -85 2 c-47 1 -85 3 -86 4
0 1 1 107 4 235 l4 232 73 0 c61 0 73 -3 77 -17z"/>
<path d="M885 760 c-5 -9 27 -27 95 -53 8 -3 -2 -6 -23 -6 -23 -1 -60 10 -97
29 -33 17 -66 30 -75 30 -31 0 -13 -18 38 -38 l52 -21 -38 0 c-21 -1 -59 10
-85 23 -62 31 -92 40 -92 27 0 -6 19 -19 43 -30 39 -18 40 -19 14 -20 -15 -1
-55 13 -88 30 -41 20 -64 27 -72 20 -12 -9 -15 -127 -4 -137 3 -3 37 11 76 30
39 20 85 36 103 36 31 -1 30 -2 -22 -24 -30 -13 -56 -29 -58 -35 -6 -18 15
-13 89 25 51 25 81 34 107 32 l37 -3 -62 -25 c-35 -13 -63 -30 -63 -37 0 -19
7 -17 90 27 41 22 85 40 98 40 33 0 18 -19 -34 -42 -24 -10 -44 -23 -44 -28 0
-13 4 -13 47 5 48 20 53 12 53 -92 l0 -83 70 0 c43 0 70 -4 70 -11 0 -5 5 -7
10 -4 11 7 14 177 4 238 -6 36 -8 37 -50 37 -24 0 -57 8 -76 19 -57 34 -106
52 -113 41z m-254 -52 l51 -21 -34 -14 c-83 -36 -78 -37 -78 12 0 25 3 45 6
45 3 0 28 -10 55 -22z m469 -97 c0 -38 3 -76 6 -85 5 -14 -3 -16 -55 -16 l-61
0 0 67 c0 79 16 102 73 102 l37 1 0 -69z m8 -134 c3 -14 -6 -17 -57 -17 -47 0
-61 3 -61 14 0 11 14 16 48 19 62 4 66 3 70 -16z"/>
</g>
</svg>
