<?xml version="1.0" standalone="no"?>
<!DOCTYPE svg PUBLIC "-//W3C//DTD SVG 20010904//EN"
 "http://www.w3.org/TR/2001/REC-SVG-20010904/DTD/svg10.dtd">
<svg version="1.0" xmlns="http://www.w3.org/2000/svg"
 width="130.000000pt" height="137.000000pt" viewBox="0 0 130.000000 137.000000"
 preserveAspectRatio="xMidYMid meet">
<metadata>
Created by potrace 1.16, written by Peter Selinger 2001-2019
</metadata>
<g transform="translate(0.000000,137.000000) scale(0.100000,-0.100000)"
fill="#000000" stroke="none">
<path d="M303 708 c5 -355 13 -455 29 -358 3 25 7 79 7 121 1 42 4 123 7 181
l7 105 281 7 c155 4 301 11 326 15 43 6 44 7 14 13 -16 4 -164 10 -327 14
l-297 7 0 129 0 128 -27 0 -26 0 6 -362z"/>
</g>
</svg>
