<?xml version="1.0" standalone="no"?>
<!DOCTYPE svg PUBLIC "-//W3C//DTD SVG 20010904//EN"
 "http://www.w3.org/TR/2001/REC-SVG-20010904/DTD/svg10.dtd">
<svg version="1.0" xmlns="http://www.w3.org/2000/svg"
 width="194.000000pt" height="110.000000pt" viewBox="0 0 194.000000 110.000000"
 preserveAspectRatio="xMidYMid meet">
<metadata>
Created by potrace 1.16, written by Peter Selinger 2001-2019
</metadata>
<g transform="translate(0.000000,110.000000) scale(0.100000,-0.100000)"
fill="#000000" stroke="none">
<path d="M667 793 c-4 -3 -7 -19 -7 -34 l0 -27 -180 5 c-165 6 -180 5 -180
-11 0 -16 15 -17 180 -14 l180 3 0 -25 0 -25 -180 3 c-165 3 -180 2 -180 -14
0 -16 15 -17 180 -11 l180 5 0 -28 0 -29 -180 6 c-165 6 -180 5 -180 -11 0
-15 16 -17 180 -14 165 3 180 2 182 -14 0 -10 1 -23 2 -30 1 -8 -47 -11 -181
-9 -167 2 -183 1 -183 -15 0 -15 15 -16 185 -12 l185 5 0 -28 0 -29 -185 0
c-165 0 -185 -2 -185 -17 0 -15 17 -15 185 -9 l185 7 0 -61 c0 -33 2 -60 3
-60 2 0 73 18 158 39 213 55 297 65 458 58 182 -8 310 -31 333 -60 17 -21 18
-12 18 197 l0 218 -22 -6 c-65 -19 -296 -46 -389 -46 -124 0 -232 17 -417 65
-150 40 -137 37 -145 28z m87 -235 c4 -105 3 -194 -1 -198 -4 -4 -21 -11 -37
-14 l-29 -7 6 137 c4 75 7 170 7 209 0 70 1 72 24 68 23 -5 23 -6 30 -195z
m189 141 c110 -22 117 -25 117 -48 0 -21 -3 -23 -31 -17 -17 3 -80 6 -140 6
l-109 0 0 46 c0 43 2 46 23 41 12 -2 75 -15 140 -28z m665 -64 c-2 -1 -71 0
-155 3 -180 5 -194 20 -45 46 53 9 120 23 147 30 l50 12 3 -44 c2 -24 2 -45 0
-47z m-478 -62 c0 -54 3 -108 6 -120 5 -20 2 -23 -21 -23 -27 0 -27 0 -22 58
4 31 6 85 7 120 0 48 3 62 15 62 12 0 15 -18 15 -97z m73 -21 c3 -58 5 -107 4
-108 -7 -7 -44 -8 -45 -1 -1 4 -2 56 -2 116 0 101 1 109 19 104 16 -4 19 -19
24 -111z m71 41 c3 -42 6 -96 6 -119 0 -41 -2 -44 -25 -42 l-25 2 0 112 c0
108 3 120 31 123 3 1 9 -33 13 -76z m-206 -12 l3 -34 -98 6 c-54 4 -119 7
-145 7 -44 0 -48 2 -48 25 0 24 0 24 118 28 179 5 167 7 170 -32z m546 2 c3
-21 6 -78 6 -127 0 -78 -2 -87 -16 -82 -26 10 -259 56 -283 56 -20 0 -22 4
-19 48 l3 47 145 3 c79 1 148 6 153 11 5 5 -56 12 -142 16 -83 4 -151 11 -151
15 0 5 -3 15 -6 24 -5 13 12 16 128 19 73 1 143 4 154 5 17 2 23 -5 28 -35z
m-544 -107 l0 -54 -53 -6 c-30 -4 -95 -17 -145 -30 l-92 -22 0 76 c0 42 3 80
7 83 3 4 69 7 145 7 l138 0 0 -54z"/>
</g>
</svg>
