<?xml version="1.0" standalone="no"?>
<!DOCTYPE svg PUBLIC "-//W3C//DTD SVG 20010904//EN"
 "http://www.w3.org/TR/2001/REC-SVG-20010904/DTD/svg10.dtd">
<svg version="1.0" xmlns="http://www.w3.org/2000/svg"
 width="161.000000pt" height="346.000000pt" viewBox="0 0 161.000000 346.000000"
 preserveAspectRatio="xMidYMid meet">
<metadata>
Created by potrace 1.16, written by Peter Selinger 2001-2019
</metadata>
<g transform="translate(0.000000,346.000000) scale(0.100000,-0.100000)"
fill="#000000" stroke="none">
<path d="M510 3103 c0 -32 -3 -102 -7 -155 l-6 -96 -61 -23 c-37 -13 -76 -37
-98 -59 -34 -33 -38 -43 -38 -86 0 -74 33 -124 95 -147 45 -17 73 -19 290 -15
132 3 235 3 228 1 -21 -8 -45 -146 -41 -240 4 -113 26 -159 121 -255 71 -71
224 -194 232 -186 7 6 33 360 41 541 6 150 7 157 27 157 15 0 18 3 10 11 -7 7
-119 13 -317 16 l-306 6 0 81 c0 90 -17 136 -62 169 -14 11 -39 20 -55 21
l-28 1 7 95 c16 231 17 220 -9 220 -21 0 -23 -4 -23 -57z m87 -313 c35 -21 60
-85 65 -170 l2 -45 -109 3 c-88 2 -112 0 -121 -12 -9 -13 -15 -12 -43 5 -59
36 -77 132 -33 172 22 20 102 56 125 57 14 0 17 -9 17 -50 0 -67 16 -64 25 5
7 62 19 68 72 35z m621 -584 c-2 -185 -7 -336 -12 -336 -4 0 -59 51 -120 113
-145 144 -171 194 -171 317 1 47 9 117 19 157 l18 72 76 3 c43 2 103 4 135 6
l57 3 -2 -335z"/>
<path d="M1044 2864 c-141 -75 -190 -106 -190 -124 0 -13 31 -36 106 -78 58
-33 114 -62 125 -66 15 -4 47 12 120 61 55 38 100 75 100 83 0 13 -188 150
-206 150 -3 0 -28 -12 -55 -26z m199 -94 c51 -27 56 -34 30 -45 -10 -3 -55
-28 -100 -56 -45 -27 -86 -49 -91 -49 -5 0 -50 28 -101 61 l-92 61 58 36 c32
20 75 48 96 63 l38 28 57 -37 c32 -20 79 -48 105 -62z"/>
<path d="M510 1567 c0 -30 -3 -102 -7 -160 -5 -89 -9 -107 -22 -107 -30 0
-138 -57 -159 -85 -43 -54 -21 -163 41 -209 27 -20 44 -21 288 -24 238 -3 258
-5 250 -20 -18 -35 -34 -162 -29 -239 6 -100 31 -148 132 -249 67 -67 200
-174 216 -174 13 0 32 223 46 548 6 146 7 152 28 153 l21 0 -21 9 c-12 5 -155
12 -318 16 l-296 7 0 81 c0 103 -18 142 -80 174 -25 12 -49 21 -55 18 -7 -2
-8 25 -3 83 3 47 8 118 9 156 2 65 1 70 -19 73 -20 3 -22 -1 -22 -51z m94
-326 c27 -24 43 -61 51 -116 3 -28 8 -60 11 -72 4 -23 4 -23 -116 -23 -73 0
-120 -4 -120 -10 0 -37 -76 31 -92 81 -21 72 28 129 135 154 27 7 27 7 27 -44
0 -68 16 -65 25 4 6 53 7 55 33 49 15 -4 35 -14 46 -23z m612 -572 c-3 -182
-8 -334 -11 -337 -12 -12 -232 223 -261 278 -26 50 -29 63 -28 155 1 69 7 118
20 160 l20 60 119 5 c66 4 126 7 133 8 10 2 12 -63 8 -329z"/>
<path d="M594 721 c-22 -10 -77 -39 -121 -65 -65 -37 -80 -50 -76 -66 5 -19
103 -83 195 -125 l51 -24 91 61 c140 93 135 84 73 130 -49 37 -160 108 -168
108 -2 0 -22 -9 -45 -19z m130 -65 c94 -56 106 -66 90 -75 -11 -6 -57 -34
-104 -61 -46 -28 -89 -49 -95 -46 -6 2 -50 29 -98 61 l-87 57 92 63 c51 35 93
64 94 64 0 1 49 -28 108 -63z"/>
</g>
</svg>
