<?xml version="1.0" standalone="no"?>
<!DOCTYPE svg PUBLIC "-//W3C//DTD SVG 20010904//EN"
 "http://www.w3.org/TR/2001/REC-SVG-20010904/DTD/svg10.dtd">
<svg version="1.0" xmlns="http://www.w3.org/2000/svg"
 width="210.000000pt" height="135.000000pt" viewBox="0 0 210.000000 135.000000"
 preserveAspectRatio="xMidYMid meet">
<metadata>
Created by potrace 1.16, written by Peter Selinger 2001-2019
</metadata>
<g transform="translate(0.000000,135.000000) scale(0.100000,-0.100000)"
fill="#000000" stroke="none">
<path d="M606 990 c-121 -82 -167 -120 -160 -131 7 -13 -4 -11 -65 7 -87 25
-84 33 -78 -202 3 -113 9 -210 14 -215 5 -5 31 -1 61 8 34 11 56 14 60 7 8
-11 125 -97 189 -139 87 -56 62 -16 -39 66 -66 52 -102 87 -94 91 27 18 239 6
304 -17 8 -3 -7 -30 -43 -76 -57 -74 -64 -89 -41 -89 14 0 27 17 81 107 l32
51 56 -25 c32 -14 57 -32 57 -41 0 -8 6 -12 13 -9 6 2 89 28 182 56 341 105
665 215 662 225 -4 12 -188 74 -569 193 -276 85 -278 86 -295 66 -48 -54 -244
-99 -379 -88 l-89 7 35 27 c19 14 74 59 122 98 48 40 85 67 82 60 -5 -14 104
-162 113 -153 10 10 -98 176 -115 176 -5 0 -48 -27 -96 -60z m334 -331 c5
-123 7 -225 6 -227 -2 -1 -20 7 -40 19 -21 12 -63 32 -94 45 l-57 23 0 145 0
144 35 11 c19 6 58 24 85 39 28 16 51 27 53 26 2 -1 8 -103 12 -225z m236 172
c93 -28 266 -77 384 -110 l215 -59 -45 -12 c-81 -21 -562 -158 -662 -188 l-98
-30 0 62 c0 181 14 397 25 392 6 -2 88 -27 181 -55z m-748 -17 c24 -4 45 -12
47 -18 2 -6 6 -70 9 -142 l7 -130 -77 -17 c-43 -9 -78 -16 -79 -14 0 1 1 78 3
170 4 167 4 169 26 163 11 -3 41 -8 64 -12z m140 -23 c9 -5 15 -47 19 -134 l6
-127 -43 0 -43 0 7 53 c3 28 6 89 6 135 0 71 2 82 18 82 9 0 23 -4 30 -9z
m152 -70 c0 -43 3 -105 6 -137 l6 -59 -56 3 -56 4 0 128 0 129 33 4 c72 9 67
14 67 -72z"/>
</g>
</svg>
