<?xml version="1.0" standalone="no"?>
<!DOCTYPE svg PUBLIC "-//W3C//DTD SVG 20010904//EN"
 "http://www.w3.org/TR/2001/REC-SVG-20010904/DTD/svg10.dtd">
<svg version="1.0" xmlns="http://www.w3.org/2000/svg"
 width="194.000000pt" height="114.000000pt" viewBox="0 0 194.000000 114.000000"
 preserveAspectRatio="xMidYMid meet">
<metadata>
Created by potrace 1.16, written by Peter Selinger 2001-2019
</metadata>
<g transform="translate(0.000000,114.000000) scale(0.100000,-0.100000)"
fill="#000000" stroke="none">
<path d="M765 804 c-159 -47 -226 -48 -353 -5 -52 17 -98 29 -103 25 -9 -5
-13 -34 -5 -34 2 0 46 -11 98 -24 51 -13 105 -27 121 -30 l27 -6 0 -94 c0
-115 10 -216 21 -216 5 0 9 68 9 150 0 112 3 152 13 155 6 2 33 5 58 8 l46 4
6 -155 c6 -143 10 -173 21 -161 2 2 7 74 11 161 7 147 6 156 -11 160 -11 2 22
15 71 28 123 34 241 34 345 -1 l75 -25 6 -144 c8 -189 7 -180 19 -180 6 0 10
58 10 155 0 85 2 155 4 155 16 0 376 -153 376 -160 0 -9 -324 -143 -445 -184
-107 -36 -130 -40 -215 -40 -78 0 -114 5 -201 32 -134 40 -192 41 -345 2 -66
-16 -120 -30 -121 -30 -2 0 -3 -9 -3 -20 0 -26 2 -26 112 11 128 43 186 43
357 -6 167 -47 241 -46 395 5 169 55 482 208 474 232 -6 16 -171 105 -293 158
-175 76 -267 102 -370 106 -80 3 -103 0 -210 -32z"/>
<path d="M404 583 c4 -87 9 -159 12 -162 11 -12 15 18 21 163 l6 156 -23 0
-23 0 7 -157z"/>
<path d="M869 733 c-2 -35 3 -228 8 -265 12 -97 23 -43 23 112 0 136 -2 160
-15 160 -8 0 -15 -3 -16 -7z"/>
<path d="M1053 583 c6 -144 10 -173 21 -162 2 2 7 75 10 162 6 156 6 157 -16
157 -21 0 -21 -1 -15 -157z"/>
</g>
</svg>
