<?xml version="1.0" standalone="no"?>
<!DOCTYPE svg PUBLIC "-//W3C//DTD SVG 20010904//EN"
 "http://www.w3.org/TR/2001/REC-SVG-20010904/DTD/svg10.dtd">
<svg version="1.0" xmlns="http://www.w3.org/2000/svg"
 width="194.000000pt" height="114.000000pt" viewBox="0 0 194.000000 114.000000"
 preserveAspectRatio="xMidYMid meet">
<metadata>
Created by potrace 1.16, written by Peter Selinger 2001-2019
</metadata>
<g transform="translate(0.000000,114.000000) scale(0.100000,-0.100000)"
fill="#000000" stroke="none">
<path d="M765 804 c-160 -47 -226 -48 -354 -5 -62 21 -98 28 -104 22 -13 -13
104 -241 124 -241 8 0 -11 57 -52 149 -10 24 -19 44 -19 45 0 1 39 -8 86 -20
l87 -21 44 -87 45 -86 -37 -73 c-21 -39 -39 -73 -40 -75 -4 -5 -168 -43 -170
-40 -2 2 12 39 30 83 33 78 37 108 10 71 -8 -10 -33 -54 -55 -97 -23 -44 -45
-79 -51 -79 -5 0 -9 -9 -9 -20 0 -26 2 -26 111 11 58 19 103 29 120 25 16 -3
31 -1 34 5 8 13 51 5 209 -38 162 -44 239 -43 390 7 169 55 482 208 474 232
-10 30 -314 176 -476 229 -148 49 -242 49 -397 3z m425 -53 c124 -42 440 -171
440 -181 0 -10 -327 -144 -442 -182 -100 -33 -238 -60 -238 -47 0 2 18 47 39
99 59 141 40 135 -39 -12 -30 -57 -47 -78 -61 -78 -30 0 -109 21 -109 29 0 4
16 46 35 94 l35 88 -39 96 c-22 53 -38 100 -36 104 5 7 85 29 109 29 9 0 25
-19 37 -42 37 -76 93 -168 101 -168 9 0 -10 54 -51 144 -17 38 -31 71 -31 74
0 16 143 -11 250 -47z m-411 -96 l51 -95 -46 -86 c-41 -75 -49 -85 -68 -79
-11 4 -45 9 -73 12 -29 3 -53 9 -53 14 0 5 14 38 31 74 l31 65 -36 75 c-20 42
-36 80 -36 85 0 6 19 10 43 11 23 1 53 5 67 9 14 4 28 8 32 9 3 1 29 -42 57
-94z"/>
</g>
</svg>
