<?xml version="1.0" standalone="no"?>
<!DOCTYPE svg PUBLIC "-//W3C//DTD SVG 20010904//EN"
 "http://www.w3.org/TR/2001/REC-SVG-20010904/DTD/svg10.dtd">
<svg version="1.0" xmlns="http://www.w3.org/2000/svg"
 width="188.000000pt" height="115.000000pt" viewBox="0 0 188.000000 115.000000"
 preserveAspectRatio="xMidYMid meet">
<metadata>
Created by potrace 1.16, written by Peter Selinger 2001-2019
</metadata>
<g transform="translate(0.000000,115.000000) scale(0.100000,-0.100000)"
fill="#000000" stroke="none">
<path d="M312 838 c-7 -7 -12 -16 -12 -21 0 -10 134 -72 177 -81 l31 -7 7
-132 c10 -182 11 -178 -55 -197 -76 -23 -162 -68 -157 -83 6 -18 45 -12 113
17 133 56 360 53 604 -10 137 -35 285 5 465 126 60 41 106 80 94 80 -2 0 -69
-33 -149 -73 -88 -44 -175 -80 -220 -91 -74 -18 -77 -18 -175 3 -182 37 -383
62 -444 55 l-58 -6 5 58 c3 33 10 100 16 149 l11 90 41 -3 c46 -3 277 28 432
60 100 20 104 20 174 2 42 -10 134 -48 217 -90 80 -41 147 -72 149 -69 2 2
-27 27 -65 55 -125 93 -290 160 -398 160 -22 0 -76 -9 -120 -20 -253 -62 -496
-56 -624 16 -51 28 -44 27 -59 12z"/>
</g>
</svg>
