<?xml version="1.0" standalone="no"?>
<!DOCTYPE svg PUBLIC "-//W3C//DTD SVG 20010904//EN"
 "http://www.w3.org/TR/2001/REC-SVG-20010904/DTD/svg10.dtd">
<svg version="1.0" xmlns="http://www.w3.org/2000/svg"
 width="187.000000pt" height="125.000000pt" viewBox="0 0 187.000000 125.000000"
 preserveAspectRatio="xMidYMid meet">
<metadata>
Created by potrace 1.16, written by Peter Selinger 2001-2019
</metadata>
<g transform="translate(0.000000,125.000000) scale(0.100000,-0.100000)"
fill="#000000" stroke="none">
<path d="M760 940 c0 -6 -4 -9 -9 -6 -9 6 -210 -115 -361 -217 -78 -52 -84
-59 -86 -92 -1 -34 1 -36 150 -133 199 -130 270 -172 290 -172 9 0 16 -5 16
-11 0 -19 25 -3 150 91 l121 91 267 9 c147 5 269 10 272 11 26 9 -94 17 -270
18 l-215 2 54 48 54 48 -56 44 c-31 24 -56 47 -56 52 -1 4 72 7 162 7 180 0
329 9 322 20 -2 4 -127 10 -277 14 l-273 7 -113 85 c-119 90 -142 103 -142 84z
m6 -45 c15 -14 25 -26 23 -28 -2 -1 -74 -49 -160 -106 -144 -96 -155 -106
-156 -135 -1 -30 7 -37 156 -136 86 -57 158 -105 160 -107 2 -1 -8 -14 -22
-27 l-26 -24 -102 79 c-56 44 -144 109 -196 146 -51 37 -90 70 -86 73 5 4 64
48 133 98 69 50 152 113 185 140 33 28 61 51 62 51 1 1 14 -10 29 -24z m91
-71 c-2 -2 -59 -41 -128 -87 -167 -112 -167 -109 -1 -218 70 -46 129 -85 132
-87 3 -2 -6 -12 -20 -22 -25 -19 -25 -18 -55 6 -16 13 -82 64 -145 112 -64 48
-116 92 -116 97 0 6 50 48 111 94 60 46 125 97 143 112 31 28 34 28 58 13 13
-9 23 -18 21 -20z m47 -29 c11 -8 18 -17 15 -19 -2 -2 -44 -31 -93 -64 -61
-41 -90 -67 -91 -81 -1 -16 22 -36 97 -86 54 -36 98 -68 98 -70 0 -3 -11 -12
-25 -21 -24 -16 -26 -14 -137 72 -62 48 -117 91 -121 94 -7 6 219 190 233 190
3 0 14 -7 24 -15z m76 -56 c0 -4 -28 -25 -63 -48 -35 -23 -63 -48 -64 -58 -1
-12 21 -33 63 -61 64 -42 78 -64 47 -76 -10 -4 -30 4 -52 22 -20 16 -58 46
-86 67 -27 21 -50 41 -50 45 0 4 38 37 83 73 73 57 86 64 103 54 10 -6 19 -15
19 -18z m117 -69 l72 -46 -68 -42 c-38 -23 -76 -42 -85 -42 -10 0 -44 21 -77
46 l-59 47 63 47 c34 26 67 45 72 42 6 -3 42 -27 82 -52z"/>
</g>
</svg>
