<?xml version="1.0" standalone="no"?>
<!DOCTYPE svg PUBLIC "-//W3C//DTD SVG 20010904//EN"
 "http://www.w3.org/TR/2001/REC-SVG-20010904/DTD/svg10.dtd">
<svg version="1.0" xmlns="http://www.w3.org/2000/svg"
 width="169.000000pt" height="140.000000pt" viewBox="0 0 169.000000 140.000000"
 preserveAspectRatio="xMidYMid meet">
<metadata>
Created by potrace 1.16, written by Peter Selinger 2001-2019
</metadata>
<g transform="translate(0.000000,140.000000) scale(0.100000,-0.100000)"
fill="#000000" stroke="none">
<path d="M429 1067 c-70 -36 -92 -65 -115 -149 -29 -110 -13 -175 67 -282 26
-36 45 -49 83 -61 58 -17 109 -19 137 -5 13 8 19 7 19 0 0 -6 10 -14 23 -19
12 -5 60 -27 107 -48 176 -82 471 -204 483 -200 7 3 -21 20 -61 38 l-73 34 5
54 c5 61 7 64 30 55 10 -4 16 -17 16 -35 0 -35 17 -39 22 -5 3 24 3 24 38 7
34 -16 35 -18 38 -81 2 -36 6 -67 8 -69 9 -9 13 7 16 62 1 31 7 57 11 57 4 0
22 -7 38 -16 17 -8 36 -13 42 -11 7 2 -11 16 -40 30 -40 21 -51 31 -46 43 5
14 1 16 -23 11 -16 -3 -41 1 -55 9 -23 11 -27 19 -25 53 1 22 4 43 7 46 3 3
48 -13 99 -35 170 -73 119 -34 -90 68 -113 55 -249 120 -302 145 -96 45 -98
47 -98 80 0 41 -27 134 -41 143 -20 12 -21 -5 -5 -52 21 -63 20 -102 -5 -197
l-22 -79 -71 -35 c-80 -39 -116 -39 -200 -4 -42 19 -50 28 -78 87 -28 59 -30
72 -26 137 3 40 13 91 23 114 14 36 27 47 78 73 74 37 122 38 202 4 33 -14 67
-28 75 -31 41 -17 -30 40 -83 67 -80 40 -127 39 -208 -3z m395 -317 c45 -20
46 -22 46 -65 l0 -45 -57 27 c-32 15 -59 28 -60 28 -3 1 20 75 22 75 2 0 23
-9 49 -20z m121 -54 c33 -14 35 -18 35 -60 l0 -44 -40 15 c-38 15 -40 18 -40
60 0 23 2 43 5 43 3 0 21 -7 40 -14z m-185 -101 l0 -54 -47 20 c-27 11 -52 24
-56 28 -9 9 83 72 95 65 4 -3 8 -30 8 -59z m324 39 c38 -17 56 -31 56 -43 0
-10 3 -33 6 -51 7 -31 6 -32 -15 -21 -11 7 -21 21 -21 31 0 22 -26 28 -32 8
-3 -9 -12 -9 -36 1 -29 12 -32 17 -32 57 0 24 4 44 9 44 5 0 34 -12 65 -26z
m-244 -19 c23 -12 30 -22 30 -45 0 -16 5 -32 10 -35 6 -3 10 4 10 18 0 36 8
38 56 14 33 -16 44 -27 44 -44 0 -13 5 -23 10 -23 6 0 10 9 10 20 0 19 1 19
35 3 34 -16 35 -18 35 -75 0 -32 -2 -58 -3 -58 -2 0 -70 32 -151 71 -112 53
-146 74 -142 85 3 9 6 31 6 50 0 38 8 41 50 19z"/>
<path d="M565 900 c-9 -15 9 -35 81 -86 72 -52 89 -56 48 -13 -56 59 -122 110
-129 99z"/>
<path d="M456 811 c-8 -13 139 -129 150 -118 6 5 -124 127 -136 127 -5 0 -11
-4 -14 -9z"/>
</g>
</svg>
