<?xml version="1.0" standalone="no"?>
<!DOCTYPE svg PUBLIC "-//W3C//DTD SVG 20010904//EN"
 "http://www.w3.org/TR/2001/REC-SVG-20010904/DTD/svg10.dtd">
<svg version="1.0" xmlns="http://www.w3.org/2000/svg"
 width="134.000000pt" height="135.000000pt" viewBox="0 0 134.000000 135.000000"
 preserveAspectRatio="xMidYMid meet">
<metadata>
Created by potrace 1.16, written by Peter Selinger 2001-2019
</metadata>
<g transform="translate(0.000000,135.000000) scale(0.100000,-0.100000)"
fill="#000000" stroke="none">
<path d="M544 1027 c-106 -41 -156 -77 -186 -137 -15 -30 -34 -85 -44 -123
-32 -132 -5 -223 106 -354 55 -66 66 -74 126 -93 126 -38 196 -25 346 66 45
28 62 45 79 82 43 95 69 183 69 232 0 64 -37 178 -62 191 -29 15 -31 7 -10
-42 11 -25 22 -58 26 -74 6 -27 3 -32 -34 -49 -41 -20 -68 -17 -31 4 25 13 29
35 5 26 -9 -4 -22 -2 -29 4 -9 8 -29 1 -74 -26 -59 -35 -61 -37 -39 -49 13 -6
43 -24 66 -39 24 -15 47 -24 50 -21 7 8 4 10 -62 49 l-39 23 47 28 c26 15 49
25 52 22 3 -2 -12 -14 -33 -27 l-37 -22 54 -34 c30 -18 58 -34 63 -34 17 0 5
21 -18 32 -13 6 -22 15 -19 19 3 5 23 -1 44 -14 44 -25 44 -18 4 -148 -13 -42
-30 -81 -37 -87 -26 -22 -184 -85 -224 -90 -48 -5 -111 8 -195 40 -48 19 -60
29 -86 74 -36 62 -72 156 -72 187 0 22 1 22 145 19 l145 -3 0 -52 c0 -29 5
-59 10 -67 7 -11 10 3 10 48 0 34 3 62 8 62 4 0 25 -11 47 -25 41 -25 65 -31
65 -17 0 4 -30 23 -67 41 l-67 33 -148 -1 c-131 -2 -148 0 -148 15 0 14 14 15
133 9 l132 -7 80 43 c94 50 90 47 82 55 -3 4 -31 -8 -61 -25 -31 -17 -57 -31
-58 -31 -2 0 -1 30 0 66 3 46 0 64 -7 60 -6 -4 -11 -36 -11 -71 l0 -64 -140
-3 c-162 -3 -155 -10 -114 102 23 60 33 76 68 98 89 56 194 82 272 66 27 -5
29 -8 26 -50 -4 -46 -22 -62 -22 -19 0 14 -4 25 -10 25 -6 0 -10 -28 -10 -64
l0 -64 58 31 c67 36 67 35 60 43 -4 3 -20 -2 -37 -11 -46 -23 -38 0 9 26 22
13 40 26 40 31 0 11 -7 10 -40 -7 l-30 -16 0 31 c0 17 5 30 13 30 6 0 48 -16
91 -35 44 -19 81 -33 84 -31 7 7 -87 67 -156 99 -90 42 -172 47 -258 14z m206
-156 c0 -6 -4 -13 -10 -16 -5 -3 -10 1 -10 9 0 9 5 16 10 16 6 0 10 -4 10 -9z
m253 -181 c-4 -16 -9 -17 -30 -7 l-24 11 23 17 c25 19 39 9 31 -21z m-103 10
c0 -5 -7 -10 -16 -10 -8 0 -12 5 -9 10 3 6 10 10 16 10 5 0 9 -4 9 -10z"/>
<path d="M680 893 c0 -16 -3 -51 -6 -80 l-7 -52 72 37 c67 35 86 52 59 52 -7
0 -31 -11 -53 -25 -22 -13 -44 -25 -48 -25 -5 0 -6 27 -2 60 5 41 4 60 -4 60
-6 0 -11 -12 -11 -27z"/>
<path d="M767 734 l-58 -36 63 -39 c35 -22 70 -39 78 -39 21 0 3 15 -58 48
l-53 29 55 32 c31 17 56 33 56 36 0 13 -30 1 -83 -31z"/>
<path d="M673 600 c4 -18 7 -52 7 -76 0 -26 5 -44 11 -44 8 0 10 18 6 60 l-7
60 53 -27 c69 -37 67 -36 67 -24 0 8 -82 57 -134 80 -5 2 -6 -11 -3 -29z"/>
<path d="M710 521 c0 -31 5 -63 10 -71 10 -16 13 -8 10 29 -1 14 2 21 9 17 6
-4 11 -22 11 -41 0 -19 5 -37 10 -40 6 -4 10 9 10 31 l0 36 25 -16 c27 -18 45
-21 45 -7 0 5 -13 14 -30 21 -16 7 -35 19 -42 28 -11 14 -10 15 7 8 76 -31 73
-10 -5 30 l-60 31 0 -56z m40 10 c0 -6 -4 -13 -10 -16 -5 -3 -10 1 -10 9 0 9
5 16 10 16 6 0 10 -4 10 -9z"/>
</g>
</svg>
