<?xml version="1.0" standalone="no"?>
<!DOCTYPE svg PUBLIC "-//W3C//DTD SVG 20010904//EN"
 "http://www.w3.org/TR/2001/REC-SVG-20010904/DTD/svg10.dtd">
<svg version="1.0" xmlns="http://www.w3.org/2000/svg"
 width="148.000000pt" height="134.000000pt" viewBox="0 0 148.000000 134.000000"
 preserveAspectRatio="xMidYMid meet">
<metadata>
Created by potrace 1.16, written by Peter Selinger 2001-2019
</metadata>
<g transform="translate(0.000000,134.000000) scale(0.100000,-0.100000)"
fill="#000000" stroke="none">
<path d="M313 1025 c-10 -10 -13 -64 -13 -193 0 -228 11 -507 20 -523 8 -12
146 59 337 173 l81 48 141 7 c91 4 141 10 141 17 0 14 141 142 152 139 25 -8
-2 25 -79 96 -88 81 -109 93 -119 67 -4 -10 -38 -14 -144 -15 l-139 -2 -103
59 c-128 73 -254 142 -259 142 -2 -1 -10 -7 -16 -15z m50 -46 l24 -11 7 -265
c4 -146 11 -275 16 -286 7 -17 9 -7 11 38 1 33 2 66 2 73 -1 10 2 10 13 1 10
-8 48 -10 132 -6 l117 7 -172 -90 c-95 -50 -175 -90 -178 -90 -3 0 -5 144 -5
320 1 176 3 320 5 320 2 0 15 -5 28 -11z m256 -135 c2 -2 -39 -4 -92 -4 l-97
0 0 50 0 50 93 -46 c50 -25 94 -48 96 -50z m451 -71 c43 -32 79 -60 79 -63 0
-3 -43 -38 -96 -77 l-96 -73 -81 0 c-72 0 -78 1 -60 15 25 19 2 20 -35 1 -19
-10 -74 -15 -189 -18 l-162 -3 0 35 c0 23 3 30 9 22 7 -11 56 -12 287 -2 153
7 283 16 289 22 6 5 -109 7 -288 6 -291 -3 -297 -3 -297 17 0 19 7 20 138 21
212 1 452 15 452 26 0 7 -97 8 -295 3 -287 -7 -295 -6 -295 13 0 18 11 19 178
26 290 11 402 19 402 28 0 4 -51 8 -112 8 -95 0 -118 3 -143 20 l-29 19 89 4
c50 1 110 4 133 5 39 2 53 -4 122 -55z m-350 22 c17 -9 30 -17 30 -18 0 -1
-72 -4 -160 -5 -157 -4 -160 -3 -160 17 0 20 5 21 130 21 98 0 138 -4 160 -15z"/>
</g>
</svg>
