<?xml version="1.0" standalone="no"?>
<!DOCTYPE svg PUBLIC "-//W3C//DTD SVG 20010904//EN"
 "http://www.w3.org/TR/2001/REC-SVG-20010904/DTD/svg10.dtd">
<svg version="1.0" xmlns="http://www.w3.org/2000/svg"
 width="127.000000pt" height="134.000000pt" viewBox="0 0 127.000000 134.000000"
 preserveAspectRatio="xMidYMid meet">
<metadata>
Created by potrace 1.16, written by Peter Selinger 2001-2019
</metadata>
<g transform="translate(0.000000,134.000000) scale(0.100000,-0.100000)"
fill="#000000" stroke="none">
<path d="M315 1023 c-10 -23 -20 -663 -11 -699 l7 -27 102 6 c244 14 390 96
444 248 10 27 21 49 25 49 5 0 25 -9 46 -20 l37 -20 3 82 c4 99 -4 148 -23
148 -7 0 -27 -11 -43 -25 l-30 -25 -26 44 c-51 88 -138 141 -336 204 -173 55
-186 57 -195 35z m41 -366 c-2 -321 -4 -342 -21 -346 -17 -3 -18 12 -12 325 3
181 9 339 13 351 18 61 23 -17 20 -330z m169 302 c91 -29 221 -95 244 -123 12
-14 -6 -16 -178 -16 -105 0 -194 -1 -198 -2 -5 -2 -9 39 -11 90 l-3 93 28 -7
c15 -4 69 -19 118 -35z m302 -188 c18 -26 23 -48 23 -96 0 -68 -22 -156 -44
-174 -9 -7 -90 -14 -226 -18 -181 -5 -212 -4 -208 8 5 14 105 23 326 29 45 2
85 7 89 13 4 7 -63 8 -205 5 l-212 -6 0 43 c0 23 3 69 6 102 l7 60 171 8 c94
4 189 11 211 16 24 5 -45 6 -172 2 -184 -4 -213 -3 -213 10 0 12 31 16 168 24
248 15 252 15 279 -26z m126 -180 c-1 -2 -18 7 -37 19 -32 19 -36 26 -36 65 0
37 5 47 33 69 l32 26 5 -88 c3 -48 4 -89 3 -91z m-173 -130 c0 -17 -75 -65
-136 -87 -62 -23 -207 -54 -250 -54 -23 0 -24 3 -24 64 l0 64 118 7 c64 3 122
8 127 10 22 8 165 4 165 -4z"/>
</g>
</svg>
