<?xml version="1.0" standalone="no"?>
<!DOCTYPE svg PUBLIC "-//W3C//DTD SVG 20010904//EN"
 "http://www.w3.org/TR/2001/REC-SVG-20010904/DTD/svg10.dtd">
<svg version="1.0" xmlns="http://www.w3.org/2000/svg"
 width="164.000000pt" height="105.000000pt" viewBox="0 0 164.000000 105.000000"
 preserveAspectRatio="xMidYMid meet">
<metadata>
Created by potrace 1.16, written by Peter Selinger 2001-2019
</metadata>
<g transform="translate(0.000000,105.000000) scale(0.100000,-0.100000)"
fill="#000000" stroke="none">
<path d="M767 744 c-15 -15 -6 -35 21 -45 15 -6 124 -45 242 -85 118 -41 222
-77 230 -80 9 -4 -18 -18 -64 -35 l-79 -30 -41 39 c-56 53 -106 92 -117 92
-27 0 -1 -34 61 -80 71 -52 77 -63 40 -73 -15 -4 -42 13 -100 64 -44 38 -82
69 -84 69 -2 0 -6 -7 -9 -15 -4 -9 20 -34 73 -73 76 -58 78 -60 54 -71 -14 -6
-29 -11 -35 -11 -5 0 -48 34 -96 75 -47 41 -90 72 -95 69 -20 -12 -2 -33 77
-89 46 -33 84 -62 84 -65 1 -3 -29 -16 -66 -29 -38 -13 -73 -30 -79 -37 -9
-11 -20 -8 -60 17 -69 43 -94 68 -114 112 -34 75 2 162 98 232 45 33 51 45 24
45 -40 0 -155 -114 -175 -173 -2 -6 -28 4 -63 25 -91 55 -157 85 -178 80 -18
-4 -18 -13 -14 -144 4 -101 9 -142 19 -148 13 -9 78 20 178 79 29 17 53 31 55
31 2 0 9 -13 16 -30 17 -42 80 -95 155 -132 l65 -32 82 33 c159 64 468 204
468 211 0 5 -8 6 -19 3 -10 -2 -62 14 -115 37 -54 22 -166 67 -249 99 -84 33
-159 62 -168 65 -8 4 -18 3 -22 0z m-322 -156 c58 -29 105 -57 105 -63 0 -9
-199 -115 -215 -115 -3 0 -5 52 -5 115 0 63 2 115 5 115 3 0 52 -24 110 -52z"/>
<path d="M650 526 c0 -16 178 -152 187 -143 9 10 -159 157 -178 157 -5 0 -9
-6 -9 -14z"/>
</g>
</svg>
