<?xml version="1.0" standalone="no"?>
<!DOCTYPE svg PUBLIC "-//W3C//DTD SVG 20010904//EN"
 "http://www.w3.org/TR/2001/REC-SVG-20010904/DTD/svg10.dtd">
<svg version="1.0" xmlns="http://www.w3.org/2000/svg"
 width="134.000000pt" height="134.000000pt" viewBox="0 0 134.000000 134.000000"
 preserveAspectRatio="xMidYMid meet">
<metadata>
Created by potrace 1.16, written by Peter Selinger 2001-2019
</metadata>
<g transform="translate(0.000000,134.000000) scale(0.100000,-0.100000)"
fill="#000000" stroke="none">
<path d="M312 1023 c-3 -10 -7 -175 -7 -368 l0 -350 101 2 c227 3 385 84 444
226 l22 54 76 -44 c42 -23 79 -43 82 -43 3 0 6 63 8 141 4 141 -6 199 -32 199
-6 0 -40 -20 -76 -43 l-65 -44 -27 43 c-29 46 -85 91 -159 129 -42 22 -326
115 -350 115 -5 0 -13 -8 -17 -17z m42 -365 c-3 -310 -5 -343 -20 -346 -15 -4
-16 22 -12 330 5 315 10 374 28 363 4 -2 6 -159 4 -347z m122 316 c175 -50
332 -147 364 -224 19 -46 8 -164 -21 -224 -48 -103 -138 -156 -319 -190 -140
-27 -130 -34 -130 92 0 125 12 572 15 572 2 0 43 -11 91 -26z m534 -295 l0
-141 -47 28 c-27 15 -57 33 -68 38 -17 9 -20 22 -21 73 0 34 2 61 5 58 4 -2
33 16 66 40 33 24 61 44 63 45 1 0 2 -63 2 -141z"/>
<path d="M420 855 c0 -10 164 -85 184 -84 12 0 -16 19 -64 44 -77 40 -120 54
-120 40z"/>
<path d="M480 665 c0 -6 146 -80 178 -89 12 -4 22 -3 22 2 0 5 -40 28 -89 51
-84 39 -111 47 -111 36z"/>
</g>
</svg>
