<?xml version="1.0" standalone="no"?>
<!DOCTYPE svg PUBLIC "-//W3C//DTD SVG 20010904//EN"
 "http://www.w3.org/TR/2001/REC-SVG-20010904/DTD/svg10.dtd">
<svg version="1.0" xmlns="http://www.w3.org/2000/svg"
 width="160.000000pt" height="152.000000pt" viewBox="0 0 160.000000 152.000000"
 preserveAspectRatio="xMidYMid meet">
<metadata>
Created by potrace 1.16, written by Peter Selinger 2001-2019
</metadata>
<g transform="translate(0.000000,152.000000) scale(0.100000,-0.100000)"
fill="#000000" stroke="none">
<path d="M313 1213 c-20 -7 -19 -603 1 -603 7 0 81 65 164 145 112 108 159
147 184 152 l33 7 -37 11 c-27 7 -73 45 -165 135 -151 148 -164 159 -180 153z
m181 -190 l106 -93 -81 0 c-71 0 -80 -2 -77 -17 3 -16 13 -18 76 -15 39 2 72
2 72 0 0 -3 -61 -58 -136 -123 l-137 -118 7 84 c3 46 7 159 8 251 l2 166 27
-21 c14 -12 74 -64 133 -114z"/>
<path d="M533 773 c-15 -31 -18 -64 -18 -173 0 -128 2 -138 28 -192 43 -87 71
-102 193 -106 87 -3 111 0 177 22 88 30 231 99 324 158 l63 40 -1 81 c-1 45
-4 72 -7 60 -4 -13 -51 -53 -112 -95 -58 -41 -150 -108 -206 -149 -105 -79
-153 -99 -239 -99 -55 0 -119 24 -112 42 3 7 44 98 91 203 80 174 92 215 67
215 -9 0 -50 -92 -135 -304 l-43 -109 -18 27 c-40 60 -55 195 -39 334 l7 52
101 1 c56 1 112 4 126 8 21 6 18 8 -24 14 -27 4 -84 7 -127 7 l-78 0 -18 -37z
m757 -197 l0 -44 -107 -55 c-99 -50 -193 -94 -182 -83 15 14 283 226 286 226
1 0 3 -20 3 -44z"/>
</g>
</svg>
