<?xml version="1.0" standalone="no"?>
<!DOCTYPE svg PUBLIC "-//W3C//DTD SVG 20010904//EN"
 "http://www.w3.org/TR/2001/REC-SVG-20010904/DTD/svg10.dtd">
<svg version="1.0" xmlns="http://www.w3.org/2000/svg"
 width="218.000000pt" height="381.000000pt" viewBox="0 0 218.000000 381.000000"
 preserveAspectRatio="xMidYMid meet">
<metadata>
Created by potrace 1.16, written by Peter Selinger 2001-2019
</metadata>
<g transform="translate(0.000000,381.000000) scale(0.100000,-0.100000)"
fill="#000000" stroke="none">
<path d="M369 3487 c-20 -14 -41 -40 -53 -69 -26 -64 -16 -112 35 -160 21 -20
39 -42 39 -47 0 -6 19 -43 43 -83 60 -101 175 -215 263 -261 77 -40 254 -102
320 -113 l41 -6 6 53 c4 30 7 104 7 166 l0 111 48 6 c26 3 83 8 127 11 94 7
289 30 430 50 170 25 166 24 156 43 -5 9 -17 52 -27 95 -10 42 -21 77 -25 77
-3 0 -97 -23 -208 -50 -404 -101 -691 -147 -835 -135 -68 6 -213 32 -229 42
-4 2 7 14 25 26 121 81 64 267 -82 267 -32 0 -58 -7 -81 -23z m1417 -227 c13
-41 22 -75 21 -76 -4 -4 -431 -43 -587 -54 -166 -11 -384 -12 -450 -1 -34 5
-11 8 100 13 195 9 478 68 770 162 58 19 109 33 114 32 4 -1 19 -35 32 -76z
m-1131 -139 c107 -28 203 -41 302 -41 l82 0 3 -155 c3 -139 1 -155 -14 -155
-30 0 -191 60 -286 107 -103 50 -182 120 -249 219 -73 108 -73 106 10 73 40
-15 109 -37 152 -48z m58 22 c-7 -2 -19 -2 -25 0 -7 3 -2 5 12 5 14 0 19 -2
13 -5z"/>
<path d="M346 2450 c-61 -68 -60 -112 5 -196 21 -28 39 -56 39 -62 0 -17 56
-108 106 -173 59 -77 121 -129 203 -173 74 -39 251 -101 317 -112 l41 -6 6 47
c4 26 7 101 7 166 0 89 3 119 13 119 51 1 341 23 526 41 166 16 226 19 229 11
5 -17 22 -15 22 3 0 8 6 15 13 15 9 0 8 3 -2 9 -9 6 -12 22 -9 50 3 30 0 41
-12 43 -8 2 -80 -9 -160 -24 -386 -71 -489 -83 -745 -83 -204 0 -249 3 -300
19 -78 23 -215 76 -215 82 0 3 14 17 30 31 17 14 42 45 56 69 24 40 25 48 14
75 -13 31 -98 89 -131 89 -9 0 -33 -18 -53 -40z m92 -4 c15 -8 38 -25 51 -39
19 -21 21 -31 14 -52 -11 -34 -84 -124 -100 -125 -17 0 -61 68 -69 106 -6 34
5 65 39 102 24 26 29 27 65 8z m1402 -266 c0 -25 -5 -40 -12 -40 -7 0 -112 -7
-233 -15 -314 -21 -351 -19 -185 10 74 14 196 37 270 53 74 16 141 30 148 31
8 1 12 -13 12 -39z m-1141 -91 c47 -11 143 -23 213 -26 l127 -6 3 -153 c3
-134 1 -154 -13 -154 -31 0 -196 61 -287 106 -103 51 -182 121 -249 220 -73
108 -74 106 29 67 50 -19 130 -43 177 -54z"/>
<path d="M770 981 c-14 -10 -104 -60 -200 -111 -156 -82 -175 -94 -175 -117 0
-40 306 -249 574 -392 63 -34 120 -61 127 -61 16 0 22 57 28 269 3 90 6 164 8
166 2 1 162 5 356 8 l352 7 0 -85 c0 -47 4 -85 9 -85 14 0 30 254 17 267 -2 2
-36 -1 -77 -7 -177 -24 -542 -52 -753 -58 l-229 -7 6 113 c6 121 3 126 -43 93z
m13 -118 l4 -83 -161 0 -161 0 55 32 c30 17 100 58 155 90 55 32 101 55 102
51 1 -5 3 -45 6 -90z m1057 -63 l0 -30 -212 1 -213 1 180 24 c99 13 189 25
200 27 42 9 45 7 45 -23z m-1050 -72 c0 -9 3 -9 12 0 8 8 56 12 149 12 l137 0
4 -212 c3 -117 4 -214 4 -215 -7 -12 -645 400 -646 417 0 3 77 6 170 8 129 2
170 0 170 -10z"/>
</g>
</svg>
