<?xml version="1.0" standalone="no"?>
<!DOCTYPE svg PUBLIC "-//W3C//DTD SVG 20010904//EN"
 "http://www.w3.org/TR/2001/REC-SVG-20010904/DTD/svg10.dtd">
<svg version="1.0" xmlns="http://www.w3.org/2000/svg"
 width="160.000000pt" height="192.000000pt" viewBox="0 0 160.000000 192.000000"
 preserveAspectRatio="xMidYMid meet">
<metadata>
Created by potrace 1.16, written by Peter Selinger 2001-2019
</metadata>
<g transform="translate(0.000000,192.000000) scale(0.100000,-0.100000)"
fill="#000000" stroke="none">
<path d="M506 1528 c-3 -50 -6 -119 -6 -153 l0 -62 -62 -23 c-40 -14 -77 -37
-102 -61 -38 -38 -38 -40 -34 -99 3 -39 11 -70 25 -88 40 -54 55 -57 335 -57
141 0 252 -3 247 -6 -13 -8 -26 -58 -39 -148 -13 -85 -4 -164 27 -229 33 -72
303 -317 324 -295 7 8 25 219 34 413 12 240 16 280 31 280 8 0 14 4 14 8 0 10
-271 22 -481 22 l-137 0 -4 93 c-3 68 -9 99 -22 120 -22 33 -91 71 -113 63
-12 -5 -14 -1 -10 16 3 13 9 85 13 161 6 132 6 137 -13 137 -18 0 -21 -9 -27
-92z m105 -297 c28 -30 49 -103 49 -167 l0 -35 -111 2 c-71 1 -114 -2 -118 -9
-11 -19 -71 25 -87 63 -30 72 -11 113 70 151 77 36 86 33 86 -26 0 -27 5 -50
10 -50 6 0 10 11 10 24 0 13 3 38 6 55 6 29 10 32 33 26 14 -3 38 -19 52 -34z
m602 -563 c-3 -183 -6 -337 -7 -342 -4 -18 -221 210 -256 269 -34 57 -35 63
-35 160 0 66 6 122 19 167 l18 67 102 4 c55 1 115 4 132 5 l31 2 -4 -332z"/>
</g>
</svg>
