<?xml version="1.0" standalone="no"?>
<!DOCTYPE svg PUBLIC "-//W3C//DTD SVG 20010904//EN"
 "http://www.w3.org/TR/2001/REC-SVG-20010904/DTD/svg10.dtd">
<svg version="1.0" xmlns="http://www.w3.org/2000/svg"
 width="217.000000pt" height="239.000000pt" viewBox="0 0 217.000000 239.000000"
 preserveAspectRatio="xMidYMid meet">
<metadata>
Created by potrace 1.16, written by Peter Selinger 2001-2019
</metadata>
<g transform="translate(0.000000,239.000000) scale(0.100000,-0.100000)"
fill="#000000" stroke="none">
<path d="M375 2072 c-87 -54 -97 -172 -22 -240 18 -16 33 -35 35 -43 8 -34 85
-150 143 -213 76 -83 152 -134 261 -176 81 -31 259 -82 265 -76 2 2 6 78 10
170 5 146 8 166 23 166 78 0 655 69 728 87 13 3 20 8 14 12 -5 3 -17 42 -27
86 -10 44 -22 84 -25 88 -4 5 -50 -3 -101 -17 -52 -14 -103 -26 -114 -26 -12
1 -39 25 -70 65 -46 58 -75 80 -75 56 0 -6 25 -37 55 -70 60 -64 60 -58 -4
-76 -15 -5 -33 11 -77 65 -40 50 -60 68 -68 60 -7 -7 5 -26 39 -62 28 -29 54
-56 60 -60 5 -4 7 -9 5 -12 -9 -9 -403 -85 -500 -97 -108 -13 -250 -6 -352 17
-62 14 -100 34 -65 34 24 0 75 66 83 105 9 49 -19 119 -58 147 -43 30 -123 35
-163 10z m1407 -232 l26 -80 -24 0 c-13 0 -27 0 -31 -1 -5 0 -13 23 -19 51 -7
28 -15 61 -18 75 -6 22 -2 26 34 34 3 0 18 -35 32 -79z m-52 -87 c0 -2 -13 -3
-29 -3 -31 0 -40 15 -56 98 -6 27 -3 33 16 41 22 8 25 4 46 -63 13 -39 23 -72
23 -73z m-99 53 c11 -32 19 -59 17 -61 -2 -1 -91 -10 -198 -19 -247 -22 -574
-31 -665 -20 -68 8 -65 9 80 15 169 7 356 41 586 108 74 21 140 38 147 37 8 0
22 -27 33 -60z m-1021 -96 c106 -32 230 -50 338 -50 l92 0 0 -161 0 -160 -22
7 c-78 23 -84 28 -103 100 -23 88 -31 105 -40 83 -3 -9 5 -46 19 -83 l26 -67
-23 7 c-51 16 -64 23 -64 36 0 7 -10 46 -22 87 -15 48 -26 70 -32 64 -9 -9 4
-58 36 -137 7 -16 5 -17 -16 -11 -40 12 -142 71 -182 107 -32 27 -42 47 -61
112 -13 44 -28 82 -34 84 -17 5 -15 -10 8 -70 11 -28 18 -53 16 -56 -4 -3
-116 161 -116 171 0 3 24 -5 53 -18 29 -12 86 -33 127 -45z"/>
<path d="M576 1692 c-7 -12 39 -141 56 -157 11 -11 11 -9 -18 90 -20 66 -29
82 -38 67z"/>
<path d="M650 1651 c0 -19 52 -151 60 -151 12 0 -35 153 -48 158 -7 2 -12 -1
-12 -7z"/>
<path d="M367 1045 c-35 -26 -67 -79 -67 -109 0 -33 27 -84 65 -126 12 -14 25
-37 28 -51 10 -40 103 -176 161 -234 64 -64 118 -99 218 -141 70 -30 247 -84
273 -84 7 0 4 55 -8 160 -11 89 -17 163 -14 166 3 3 74 10 159 15 152 9 549
44 621 55 31 5 37 3 38 -13 0 -14 2 -15 6 -3 3 8 9 17 12 20 4 3 5 29 3 58 -5
60 1 59 -122 37 -280 -49 -630 -86 -822 -86 -212 1 -328 18 -438 67 l-55 25
51 53 c82 84 79 131 -12 183 -45 26 -71 28 -97 8z m79 -30 c58 -34 68 -55 50
-99 -15 -35 -82 -116 -97 -116 -14 0 -69 103 -69 131 0 24 52 109 67 109 3 0
26 -11 49 -25z m1384 -265 c0 -38 -2 -40 -30 -40 -27 0 -30 3 -30 33 0 40 6
47 37 47 20 0 23 -5 23 -40z m-80 -5 c0 -28 -4 -35 -20 -35 -15 0 -20 7 -20
29 0 26 9 38 33 40 4 1 7 -15 7 -34z m-60 -10 c0 -35 0 -35 -45 -35 -25 0 -45
2 -45 4 0 3 4 16 9 30 7 18 19 26 43 29 18 2 34 5 36 5 1 1 2 -14 2 -33z
m-1130 -31 c99 -34 214 -59 314 -68 33 -4 61 -7 62 -9 1 -1 10 -63 19 -137 10
-74 22 -139 27 -145 7 -7 8 10 4 50 -16 166 -18 235 -8 235 6 0 13 -15 16 -32
23 -141 42 -274 40 -276 -9 -13 -259 84 -344 134 -81 47 -199 176 -250 273
-11 22 -11 23 6 16 11 -5 62 -23 114 -41z m1022 21 c3 -16 1 -25 -7 -25 -7 0
-27 -3 -44 -6 -28 -6 -31 -4 -31 19 0 22 5 26 33 30 17 2 35 5 38 5 4 1 9 -9
11 -23z m-109 -9 c8 -21 -2 -26 -50 -26 -53 0 -62 26 -10 33 17 2 37 5 43 5 7
1 14 -4 17 -12z m-113 -21 c0 -11 -12 -15 -50 -15 -79 0 -60 25 23 29 18 1 27
-4 27 -14z m-120 -5 c0 -5 -21 -9 -47 -9 l-48 2 40 7 c22 4 43 8 48 9 4 0 7
-3 7 -9z m-110 -10 c0 -6 -28 -9 -67 -8 l-68 1 65 7 c36 4 66 7 68 8 1 1 2 -2
2 -8z"/>
</g>
</svg>
