<?xml version="1.0" standalone="no"?>
<!DOCTYPE svg PUBLIC "-//W3C//DTD SVG 20010904//EN"
 "http://www.w3.org/TR/2001/REC-SVG-20010904/DTD/svg10.dtd">
<svg version="1.0" xmlns="http://www.w3.org/2000/svg"
 width="147.000000pt" height="305.000000pt" viewBox="0 0 147.000000 305.000000"
 preserveAspectRatio="xMidYMid meet">
<metadata>
Created by potrace 1.16, written by Peter Selinger 2001-2019
</metadata>
<g transform="translate(0.000000,305.000000) scale(0.100000,-0.100000)"
fill="#000000" stroke="none">
<path d="M710 2683 c0 -36 -3 -64 -6 -60 -10 10 -113 -74 -190 -155 -118 -124
-161 -247 -116 -334 37 -72 160 -169 286 -225 l46 -20 1 -77 c1 -70 2 -73 9
-32 4 25 9 249 9 499 1 250 4 458 7 462 3 5 -6 9 -20 9 -25 0 -26 -2 -26 -67z
m0 -194 l0 -100 -60 46 c-41 32 -66 45 -78 40 -16 -6 -15 -8 3 -21 11 -9 27
-19 35 -24 11 -6 4 -19 -34 -64 -26 -31 -51 -56 -56 -56 -4 0 -13 7 -20 15
-14 17 -40 20 -40 4 0 -6 9 -18 21 -27 20 -17 20 -17 -15 -59 -20 -22 -36 -46
-36 -52 0 -6 -5 -11 -11 -11 -19 0 -3 93 25 148 32 62 122 162 200 219 32 24
60 43 62 43 2 0 4 -45 4 -101z m-23 -116 c31 -24 34 -31 29 -62 -3 -20 -19
-48 -37 -67 l-32 -34 -46 37 c-25 20 -48 38 -50 40 -6 4 81 113 91 113 5 0 25
-12 45 -27z m-60 -177 c1 -1 -16 -21 -36 -45 l-38 -44 -46 34 c-25 19 -46 38
-47 43 0 5 15 25 33 46 l32 37 50 -36 c28 -19 51 -35 52 -35z m88 -34 c-3 -3
-15 3 -26 15 l-21 21 23 32 24 32 3 -47 c2 -26 1 -50 -3 -53z m5 -110 l0 -83
-27 20 c-16 11 -48 38 -72 59 l-45 39 38 46 38 46 34 -22 34 -22 0 -83z m-194
37 c2 -4 -2 -12 -10 -18 -10 -9 -21 -3 -50 29 -20 22 -36 45 -36 51 0 9 86
-46 96 -62z m124 -91 c40 -30 70 -60 70 -70 0 -15 -12 -11 -67 23 -108 66
-124 80 -111 96 15 18 24 14 108 -49z"/>
<path d="M760 2468 c0 -21 1 -21 158 -15 173 8 234 15 226 28 -3 5 -90 9 -195
9 -187 0 -189 0 -189 -22z"/>
<path d="M762 2059 c3 -21 8 -22 103 -20 99 2 158 6 245 18 43 6 44 7 15 14
-16 3 -106 7 -198 8 -167 1 -168 1 -165 -20z"/>
<path d="M637 1303 c-4 -3 -7 -32 -7 -62 0 -55 -1 -57 -37 -76 -21 -11 -81
-63 -133 -115 -119 -119 -155 -184 -155 -280 0 -57 4 -71 32 -111 39 -56 106
-107 222 -168 l86 -46 3 -73 3 -73 62 3 62 3 5 137 c3 75 8 139 12 143 3 4 69
11 145 16 174 11 233 18 233 30 0 5 -83 9 -190 9 l-190 0 0 50 0 49 83 -6 c98
-7 303 5 290 17 -4 5 -90 14 -190 21 l-183 12 0 54 c0 62 -8 59 160 67 279 14
298 36 30 36 l-190 0 0 51 0 51 98 -3 c152 -4 282 0 282 10 0 9 -83 18 -257
28 l-123 6 0 112 0 111 -73 2 c-40 1 -76 -1 -80 -5z m116 -500 c4 -262 6 -478
4 -479 -1 -1 -22 0 -47 3 l-45 5 2 422 c2 231 5 445 9 474 5 51 6 52 38 52
l33 0 6 -477z m-125 196 l-3 -50 -59 45 c-62 48 -76 55 -76 33 0 -8 31 -36 70
-63 58 -41 69 -54 70 -79 1 -16 3 -47 6 -68 2 -21 -1 -37 -6 -35 -10 3 -149
110 -194 149 l-29 26 43 47 c24 26 73 69 109 96 l66 50 3 -50 c2 -28 2 -73 0
-101z m-157 -135 c41 -30 95 -69 122 -86 47 -30 47 -30 47 -85 0 -43 -3 -53
-12 -45 -194 155 -243 191 -251 183 -5 -5 -7 -13 -4 -18 3 -5 65 -52 136 -104
l131 -94 0 -42 c0 -48 -8 -53 -36 -22 -10 12 -69 61 -130 110 -81 65 -117 87
-130 82 -15 -6 -17 -1 -11 41 8 53 41 136 55 136 5 0 42 -25 83 -56z m27 -254
c90 -67 141 -112 142 -123 0 -17 -5 -16 -47 8 -84 48 -188 133 -223 181 -18
26 -29 45 -23 43 5 -2 73 -51 151 -109z"/>
</g>
</svg>
