<?xml version="1.0" standalone="no"?>
<!DOCTYPE svg PUBLIC "-//W3C//DTD SVG 20010904//EN"
 "http://www.w3.org/TR/2001/REC-SVG-20010904/DTD/svg10.dtd">
<svg version="1.0" xmlns="http://www.w3.org/2000/svg"
 width="177.000000pt" height="422.000000pt" viewBox="0 0 177.000000 422.000000"
 preserveAspectRatio="xMidYMid meet">
<metadata>
Created by potrace 1.16, written by Peter Selinger 2001-2019
</metadata>
<g transform="translate(0.000000,422.000000) scale(0.100000,-0.100000)"
fill="#000000" stroke="none">
<path d="M788 3844 l-3 -75 -74 56 c-41 30 -80 54 -85 52 -29 -10 -9 -36 59
-82 41 -27 75 -52 75 -55 0 -3 -40 -4 -90 -2 -84 2 -90 1 -90 -18 0 -17 8 -19
87 -22 l87 -3 -72 -49 c-76 -52 -77 -53 -63 -75 7 -10 25 -1 85 43 42 31 78
56 81 56 3 0 5 -47 5 -105 0 -58 4 -105 9 -105 8 0 21 117 21 197 l0 43 100
-67 c55 -36 103 -64 106 -61 2 3 -29 32 -70 65 l-75 60 61 7 c33 3 79 6 101 6
26 0 38 3 31 10 -5 5 -54 11 -109 12 l-100 3 83 65 c45 36 78 66 73 68 -6 2
-50 -24 -100 -57 -50 -34 -92 -61 -94 -61 -3 0 -2 38 0 85 5 81 4 85 -15 85
-19 0 -21 -7 -24 -76z"/>
<path d="M790 3305 c0 -68 -9 -91 -24 -66 -4 5 -36 31 -72 56 -52 38 -68 45
-75 34 -5 -8 -9 -16 -9 -19 0 -3 34 -27 75 -55 41 -27 74 -54 75 -59 0 -5 -40
-6 -91 -2 -90 7 -90 7 -87 -16 3 -22 6 -23 86 -20 46 1 81 -1 79 -6 -3 -4 -35
-28 -71 -52 -71 -48 -70 -48 -57 -69 8 -12 24 -3 85 42 41 31 78 57 81 57 3 0
5 -47 5 -105 0 -58 4 -105 9 -105 8 0 21 116 21 192 0 43 7 46 41 20 52 -39
160 -104 164 -100 3 3 -29 32 -70 64 -42 32 -70 60 -63 61 7 1 53 5 101 8 49
4 85 10 82 13 -4 4 -52 9 -107 12 l-101 5 76 60 c68 53 89 75 72 75 -3 0 -46
-27 -95 -60 -49 -33 -91 -60 -93 -60 -2 0 -1 38 1 85 4 81 4 85 -17 85 -20 0
-21 -5 -21 -75z"/>
<path d="M808 2428 c-1 -24 -1 -53 0 -65 0 -13 -2 -23 -4 -23 -3 0 -36 27 -72
60 -60 54 -68 58 -79 44 -11 -15 -5 -23 35 -58 106 -92 118 -105 104 -114 -7
-5 -46 -15 -85 -21 -100 -17 -107 -20 -107 -42 0 -23 -5 -23 104 1 109 24 103
24 103 3 -1 -111 5 -203 12 -199 4 3 12 55 16 116 3 60 10 110 13 110 4 -1 45
-32 91 -70 47 -38 87 -67 90 -64 3 2 -26 36 -64 74 -38 38 -67 71 -64 73 2 2
46 14 97 27 50 12 92 26 92 31 0 5 -12 6 -27 3 -94 -17 -200 -31 -212 -26 -11
4 -12 23 -7 94 6 84 6 88 -14 88 -17 0 -20 -7 -22 -42z"/>
<path d="M808 1903 c-1 -27 -2 -58 -2 -70 0 -13 -3 -23 -5 -23 -3 0 -34 28
-68 62 -57 56 -64 61 -78 47 -14 -14 -8 -22 64 -85 44 -38 80 -74 80 -81 1 -7
-39 -19 -99 -29 -82 -15 -100 -22 -100 -36 0 -22 14 -22 112 -1 43 9 81 13 85
9 4 -4 9 -52 11 -106 3 -55 8 -100 12 -100 4 0 11 52 16 116 l9 117 85 -71
c47 -40 89 -72 95 -72 5 0 -23 33 -64 74 l-73 73 94 23 c51 12 97 27 103 31
13 12 -1 12 -115 -7 -136 -23 -134 -24 -126 86 7 87 7 90 -13 90 -18 0 -21 -7
-23 -47z"/>
<path d="M510 685 c0 -41 -3 -75 -6 -75 -3 0 -40 25 -82 55 -56 41 -78 52 -84
43 -13 -21 -11 -22 68 -79 l77 -54 -92 -3 c-82 -2 -91 -5 -91 -22 0 -17 9 -20
83 -22 l82 -3 -65 -45 c-61 -43 -79 -69 -54 -77 6 -2 40 19 77 47 36 27 71 50
77 50 6 0 10 -37 10 -100 0 -55 4 -100 9 -100 5 0 12 52 17 115 l9 115 93 -62
c51 -33 95 -59 98 -55 3 3 -27 31 -67 64 l-73 58 90 3 c130 4 134 14 11 26
l-108 11 76 59 c41 32 75 63 75 68 0 11 -1 10 -114 -65 l-88 -59 7 91 c7 88 6
91 -14 91 -19 0 -21 -5 -21 -75z"/>
<path d="M1195 748 c-2 -7 -6 -41 -7 -76 l-3 -63 -74 55 c-41 31 -78 53 -82
50 -22 -13 -3 -37 67 -86 l76 -53 -97 -3 c-85 -2 -96 -5 -93 -20 3 -14 18 -18
87 -22 l84 -5 -72 -49 c-63 -44 -70 -51 -57 -64 13 -13 23 -9 84 37 38 28 72
51 75 51 3 0 8 -46 12 -101 8 -107 24 -119 26 -19 0 30 4 76 7 102 l7 48 93
-62 c51 -33 95 -59 97 -56 3 3 -27 32 -67 64 l-73 59 85 3 c47 2 89 7 93 11 5
5 -30 12 -79 16 -49 3 -93 7 -98 9 -4 1 26 28 68 61 42 33 76 63 76 68 0 10 0
10 -113 -65 l-89 -58 3 87 c3 77 1 88 -14 91 -9 2 -19 -2 -22 -10z"/>
</g>
</svg>
