<?xml version="1.0" standalone="no"?>
<!DOCTYPE svg PUBLIC "-//W3C//DTD SVG 20010904//EN"
 "http://www.w3.org/TR/2001/REC-SVG-20010904/DTD/svg10.dtd">
<svg version="1.0" xmlns="http://www.w3.org/2000/svg"
 width="156.000000pt" height="161.000000pt" viewBox="0 0 156.000000 161.000000"
 preserveAspectRatio="xMidYMid meet">
<metadata>
Created by potrace 1.16, written by Peter Selinger 2001-2019
</metadata>
<g transform="translate(0.000000,161.000000) scale(0.100000,-0.100000)"
fill="#000000" stroke="none">
<path d="M570 1306 c0 -2 13 -34 30 -71 25 -56 27 -66 12 -62 -9 3 -35 8 -57
11 -22 4 -52 9 -67 12 -21 4 -28 2 -28 -9 0 -12 22 -18 91 -28 85 -11 91 -14
105 -42 16 -29 15 -30 -8 -24 -12 3 -47 9 -77 13 -44 6 -53 4 -49 -7 3 -9 39
-19 109 -29 86 -12 109 -19 131 -41 l27 -26 -100 17 c-55 9 -102 13 -105 8 -9
-14 35 -25 151 -38 91 -11 119 -18 162 -43 29 -17 51 -32 50 -34 -1 -1 -62 9
-135 21 -106 19 -132 21 -132 10 0 -16 13 -19 130 -34 167 -21 161 -19 147
-42 -6 -11 -17 -30 -24 -41 -12 -21 -236 -107 -281 -107 -12 0 -55 26 -98 60
-41 33 -77 60 -80 60 -2 0 -4 -6 -4 -14 0 -7 25 -31 55 -51 30 -21 55 -40 55
-42 0 -1 -9 -3 -19 -3 -11 0 -50 23 -87 51 -42 31 -70 47 -76 41 -6 -6 7 -22
36 -42 25 -19 46 -34 46 -34 0 -1 -13 -1 -28 -1 -17 0 -45 14 -71 34 -27 22
-46 30 -52 24 -6 -6 4 -20 30 -38 23 -15 38 -31 36 -35 -3 -5 -25 -16 -50 -26
-25 -9 -45 -20 -45 -24 0 -19 17 -17 70 10 48 24 60 27 75 16 16 -11 12 -15
-35 -35 -35 -15 -49 -26 -42 -33 6 -6 37 4 92 32 50 25 92 40 108 38 22 -2 13
-10 -56 -42 -49 -24 -79 -43 -74 -48 6 -6 47 9 101 37 51 25 97 43 102 39 6
-4 30 -8 53 -10 93 -7 93 -15 6 -67 -74 -44 -97 -67 -69 -67 7 0 52 25 100 56
49 31 93 54 99 52 25 -8 -41 -68 -136 -123 -57 -33 -104 -66 -104 -72 0 -19 9
-16 73 23 32 20 60 34 62 33 2 -2 1 -16 -2 -31 -4 -22 -22 -37 -79 -70 -41
-24 -74 -49 -74 -55 0 -20 10 -16 80 27 l65 40 3 -65 c2 -49 7 -65 17 -65 12
0 15 17 15 80 0 62 3 82 15 86 21 9 19 27 -3 20 -14 -5 -18 0 -20 22 -1 21 5
34 27 50 l29 21 -2 -107 c-1 -140 17 -148 24 -10 3 65 11 116 22 138 l16 35 1
-97 c1 -82 4 -98 17 -98 13 0 15 17 13 128 -2 114 0 131 19 167 l21 40 1 -117
c0 -72 4 -118 10 -118 6 0 10 54 10 141 0 127 2 145 21 176 20 32 23 33 43 19
99 -64 239 -146 243 -142 3 3 -59 48 -138 99 l-144 95 -45 116 c-26 67 -50
116 -58 116 -16 0 -11 -19 34 -119 19 -40 34 -78 34 -83 0 -5 -13 -1 -29 8
-23 14 -39 41 -78 141 -26 67 -54 123 -60 123 -19 0 -17 -9 31 -116 24 -55 42
-101 40 -103 -2 -3 -17 4 -31 16 -19 14 -41 55 -73 133 -25 63 -51 115 -58
118 -19 6 -15 -11 28 -109 22 -51 40 -93 40 -94 0 -1 -14 0 -31 3 -21 3 -33
12 -40 29 -12 32 -12 33 6 33 23 0 18 18 -6 22 -16 2 -29 22 -51 76 -17 39
-37 72 -44 72 -8 0 -14 -2 -14 -4z m324 -550 c-3 -9 -10 -16 -15 -16 -5 0 -9
-6 -9 -13 0 -7 -15 -20 -32 -30 -29 -15 -38 -16 -78 -4 l-45 13 90 36 c50 20
91 35 93 33 1 -1 0 -10 -4 -19z m-414 -46 c0 -5 -2 -10 -4 -10 -3 0 -8 5 -11
10 -3 6 -1 10 4 10 6 0 11 -4 11 -10z"/>
</g>
</svg>
