<?xml version="1.0" standalone="no"?>
<!DOCTYPE svg PUBLIC "-//W3C//DTD SVG 20010904//EN"
 "http://www.w3.org/TR/2001/REC-SVG-20010904/DTD/svg10.dtd">
<svg version="1.0" xmlns="http://www.w3.org/2000/svg"
 width="198.000000pt" height="173.000000pt" viewBox="0 0 198.000000 173.000000"
 preserveAspectRatio="xMidYMid meet">
<metadata>
Created by potrace 1.16, written by Peter Selinger 2001-2019
</metadata>
<g transform="translate(0.000000,173.000000) scale(0.100000,-0.100000)"
fill="#000000" stroke="none">
<path d="M802 1360 c3 -38 3 -70 0 -70 -3 0 -34 16 -69 35 -36 20 -69 33 -74
29 -15 -9 -4 -18 76 -59 54 -28 77 -46 82 -63 3 -12 3 -25 0 -28 -3 -3 -32 9
-65 28 -33 18 -64 29 -68 25 -12 -11 2 -21 111 -78 55 -29 102 -56 103 -61 20
-49 24 101 6 220 -3 17 -9 32 -14 32 -12 0 -12 -83 -1 -160 5 -30 7 -56 6 -58
-2 -2 -14 4 -28 13 -31 20 -44 79 -15 72 24 -7 23 10 -2 23 -16 9 -20 21 -20
68 0 66 -8 102 -23 102 -6 0 -8 -26 -5 -70z"/>
<path d="M954 1213 c4 -49 9 -108 13 -132 l6 -45 -44 26 c-36 21 -174 94 -201
106 -5 2 -8 -4 -8 -12 0 -11 40 -35 118 -72 64 -31 125 -66 135 -78 18 -21 18
-19 13 79 -3 55 -6 123 -6 151 0 39 -4 53 -16 58 -15 6 -16 -3 -10 -81z"/>
<path d="M1023 1154 c4 -27 9 -89 13 -138 l7 -88 -99 53 c-54 29 -108 58 -119
66 -25 17 -45 17 -45 -1 0 -7 59 -41 133 -76 72 -34 135 -67 139 -74 9 -13 8
155 -1 238 -4 37 -11 61 -20 64 -11 4 -13 -5 -8 -44z"/>
<path d="M645 999 c-9 -13 -8 -14 124 -85 l103 -56 -83 -45 c-147 -78 -172
-94 -161 -105 7 -7 50 13 134 63 68 41 129 77 137 80 9 3 -25 28 -85 64 -54
32 -113 66 -131 77 -22 13 -33 15 -38 7z"/>
<path d="M521 991 c-9 -6 11 -22 70 -54 46 -25 96 -51 112 -58 15 -7 26 -16
25 -21 -2 -5 -52 -35 -112 -66 -101 -53 -138 -82 -104 -82 7 0 66 31 130 70
78 46 123 67 134 63 40 -15 -1 17 -78 62 -46 26 -101 58 -123 71 -25 15 -45
20 -54 15z"/>
<path d="M415 971 c-3 -6 38 -33 91 -62 93 -50 96 -52 73 -65 -31 -17 -41 -17
-65 1 -16 12 -17 16 -4 24 21 14 5 25 -18 12 -17 -9 -33 -4 -89 29 -48 27 -71
36 -78 28 -7 -7 -7 -12 0 -14 6 -2 34 -18 64 -35 l54 -31 -72 -40 c-49 -27
-69 -44 -63 -50 7 -7 34 3 82 31 79 45 82 46 112 30 19 -10 16 -14 -41 -46
-57 -32 -77 -53 -50 -53 7 0 59 27 116 60 58 33 109 57 114 54 5 -3 9 -1 9 3
0 8 -210 133 -223 133 -3 0 -8 -4 -12 -9z"/>
<path d="M1080 900 c0 -19 6 -20 218 -20 234 0 382 8 382 21 0 4 -118 8 -262
9 -145 1 -280 3 -300 6 -33 4 -38 2 -38 -16z"/>
<path d="M1045 820 c-3 -5 -64 -37 -135 -71 -72 -34 -130 -68 -130 -76 0 -7 2
-13 5 -13 9 0 137 66 195 100 29 17 54 29 57 27 2 -3 -1 -62 -8 -131 -11 -122
-9 -151 10 -130 10 10 27 304 18 304 -3 0 -9 -4 -12 -10z"/>
<path d="M1080 807 c0 -20 3 -20 295 -15 264 5 319 9 304 22 -2 2 -138 6 -301
9 -295 5 -298 5 -298 -16z"/>
<path d="M970 716 c0 -8 -53 -40 -125 -74 -81 -39 -125 -66 -125 -76 0 -9 1
-16 3 -16 2 0 57 29 123 64 65 35 120 63 121 63 1 -1 -3 -36 -7 -77 -12 -101
-12 -183 -1 -175 18 10 38 305 21 305 -5 0 -10 -6 -10 -14z"/>
<path d="M900 602 c0 -4 -49 -32 -110 -62 -60 -30 -110 -60 -110 -67 0 -18 2
-17 70 17 33 17 61 30 63 30 2 0 2 -13 -1 -28 -3 -25 -15 -35 -83 -67 -43 -22
-79 -45 -79 -52 0 -18 2 -18 81 22 l70 36 -2 -62 c-2 -37 2 -64 8 -66 10 -4
23 63 23 118 0 18 8 34 20 41 11 7 20 16 20 19 0 4 -9 5 -20 2 -17 -4 -20 0
-20 23 0 22 8 33 31 47 l31 17 -6 -82 c-4 -46 -9 -95 -12 -110 -4 -21 -2 -28
9 -28 12 0 17 17 21 73 12 150 12 187 4 187 -4 0 -8 -4 -8 -8z"/>
</g>
</svg>
