<?xml version="1.0" standalone="no"?>
<!DOCTYPE svg PUBLIC "-//W3C//DTD SVG 20010904//EN"
 "http://www.w3.org/TR/2001/REC-SVG-20010904/DTD/svg10.dtd">
<svg version="1.0" xmlns="http://www.w3.org/2000/svg"
 width="190.000000pt" height="248.000000pt" viewBox="0 0 190.000000 248.000000"
 preserveAspectRatio="xMidYMid meet">
<metadata>
Created by potrace 1.16, written by Peter Selinger 2001-2019
</metadata>
<g transform="translate(0.000000,248.000000) scale(0.100000,-0.100000)"
fill="#000000" stroke="none">
<path d="M327 2173 c-2 -5 0 -135 4 -290 4 -193 10 -287 18 -297 10 -12 39 -2
184 64 95 43 196 89 226 103 l54 26 51 -30 c28 -16 102 -57 164 -90 65 -35
112 -67 112 -75 0 -9 5 -12 10 -9 6 4 10 75 10 180 l0 174 136 3 137 3 75 -77
c114 -118 118 -94 6 31 l-47 52 19 24 c10 13 41 49 68 80 76 86 44 79 -43 -10
l-79 -80 -136 3 -136 4 0 99 c0 61 -4 99 -10 99 -14 0 -90 -38 -233 -117
l-118 -66 -37 16 c-20 8 -122 54 -226 101 -195 89 -202 91 -209 79z m156 -242
c4 -86 7 -181 7 -211 l0 -56 -62 -27 c-35 -15 -66 -27 -69 -27 -3 0 -5 12 -3
28 1 15 2 133 3 264 l1 236 59 -26 58 -25 6 -156z m647 21 c0 -99 3 -214 7
-257 l6 -79 -40 25 c-217 133 -285 171 -291 162 -6 -9 -279 -123 -295 -123
-10 0 1 375 10 377 4 2 72 -23 151 -53 l142 -56 148 91 c81 50 150 90 155 91
4 0 7 -80 7 -178z"/>
<path d="M1095 855 c-16 -8 -85 -37 -153 -66 l-122 -51 -148 3 c-81 2 -198 3
-259 1 l-113 -2 0 -79 c0 -43 3 -105 6 -137 l6 -59 97 2 c53 1 175 3 271 3
l175 1 140 -59 c126 -53 140 -62 143 -86 2 -14 8 -24 13 -21 5 4 9 80 9 171
l0 164 138 0 137 0 74 -75 c41 -41 78 -75 84 -75 10 0 -43 70 -96 127 -28 30
-29 34 -16 50 9 10 39 46 69 81 29 34 50 65 46 69 -3 4 -42 -30 -87 -74 l-80
-80 -134 5 -134 5 -3 96 c-3 106 -8 112 -63 86z m37 -247 c2 -128 4 -234 3
-234 0 -1 -67 30 -150 68 -106 49 -154 67 -165 61 -8 -5 -86 -7 -172 -5 l-158
4 0 103 0 102 77 7 c116 9 231 7 235 -5 2 -5 70 21 153 60 83 38 155 70 162
70 8 1 12 -64 15 -231z m-662 0 l0 -103 -70 3 -70 4 0 99 0 99 70 0 70 0 0
-102z"/>
</g>
</svg>
