<?xml version="1.0" standalone="no"?>
<!DOCTYPE svg PUBLIC "-//W3C//DTD SVG 20010904//EN"
 "http://www.w3.org/TR/2001/REC-SVG-20010904/DTD/svg10.dtd">
<svg version="1.0" xmlns="http://www.w3.org/2000/svg"
 width="155.000000pt" height="110.000000pt" viewBox="0 0 155.000000 110.000000"
 preserveAspectRatio="xMidYMid meet">
<metadata>
Created by potrace 1.16, written by Peter Selinger 2001-2019
</metadata>
<g transform="translate(0.000000,110.000000) scale(0.100000,-0.100000)"
fill="#000000" stroke="none">
<path d="M311 792 c-12 -8 -13 -48 -8 -234 3 -122 9 -231 13 -241 7 -18 27
-19 465 -15 251 1 461 7 465 11 5 4 2 12 -5 16 -11 7 -12 36 -7 147 3 77 7
177 8 224 l2 85 -64 1 c-36 1 -243 4 -460 8 -253 5 -400 4 -409 -2z m889 -164
c0 -73 3 -170 7 -215 l6 -83 -73 0 -73 0 6 158 c4 86 7 183 7 215 l0 57 60 0
60 0 0 -132z m-166 5 c3 -65 8 -157 11 -206 l5 -87 -278 6 c-152 4 -278 7
-279 8 0 0 1 88 4 193 l6 193 156 3 c86 1 204 4 263 5 l106 2 6 -117z m-574
19 c0 -49 3 -137 7 -195 l6 -107 -66 0 c-36 0 -68 4 -71 8 -3 5 -2 93 1 195
l6 187 59 0 58 0 0 -88z"/>
</g>
</svg>
