<?xml version="1.0" standalone="no"?>
<!DOCTYPE svg PUBLIC "-//W3C//DTD SVG 20010904//EN"
 "http://www.w3.org/TR/2001/REC-SVG-20010904/DTD/svg10.dtd">
<svg version="1.0" xmlns="http://www.w3.org/2000/svg"
 width="235.000000pt" height="331.000000pt" viewBox="0 0 235.000000 331.000000"
 preserveAspectRatio="xMidYMid meet">
<metadata>
Created by potrace 1.16, written by Peter Selinger 2001-2019
</metadata>
<g transform="translate(0.000000,331.000000) scale(0.100000,-0.100000)"
fill="#000000" stroke="none">
<path d="M1541 3001 c-11 -7 -13 -39 -9 -158 l4 -149 -161 4 c-142 4 -167 7
-219 29 -47 19 -69 23 -105 18 -40 -5 -56 -2 -111 26 -137 68 -285 129 -313
129 l-30 0 7 -147 c4 -82 11 -195 16 -253 5 -58 12 -134 15 -169 3 -35 7 -67
10 -69 3 -3 87 31 188 76 166 74 186 80 229 75 36 -4 57 0 91 16 45 22 78 26
273 36 l112 5 6 -67 c4 -38 8 -128 9 -200 l2 -133 110 1 c61 0 162 4 225 8 63
5 120 4 126 0 17 -14 23 99 31 532 l6 386 -123 6 c-172 10 -372 8 -389 -2z
m449 -152 c0 -131 0 -131 -22 -125 -13 3 -101 6 -195 6 l-173 0 0 120 0 119
138 4 c75 1 163 4 195 5 l57 2 0 -131z m-1140 -81 l130 -52 -24 -26 c-61 -63
-60 -162 2 -232 13 -16 12 -18 -9 -27 -13 -5 -81 -32 -152 -61 -70 -29 -130
-50 -134 -46 -3 3 -8 123 -11 267 l-5 260 37 -15 c20 -8 95 -39 166 -68z
m1143 -235 l6 -163 -202 7 c-111 3 -204 7 -205 9 -2 1 -1 70 3 152 l7 149 187
9 c102 5 189 7 192 4 4 -3 9 -78 12 -167z m-453 46 l0 -92 -77 7 c-42 3 -111
6 -155 6 l-78 0 7 28 c10 34 10 70 0 104 l-7 27 92 4 c51 1 121 4 156 5 l62 2
0 -91z m464 -306 c3 -42 6 -98 6 -126 l0 -50 -52 7 c-29 3 -126 6 -215 6
l-163 0 0 48 c0 26 3 77 6 114 l7 67 151 4 c83 1 174 4 202 5 l51 2 7 -77z"/>
<path d="M1541 1231 c-12 -8 -12 -68 0 -407 8 -220 13 -428 13 -463 l-2 -63
238 3 237 4 7 80 c3 44 9 251 13 461 l6 381 -174 6 c-232 9 -321 8 -338 -2z
m447 -155 l3 -129 -77 7 c-42 3 -130 6 -196 6 l-118 0 0 115 c0 63 1 116 3
117 3 2 318 15 352 14 l30 -1 3 -129z m2 -243 c0 -54 3 -129 7 -167 l6 -69
-204 7 c-112 5 -205 9 -207 11 -2 2 0 71 4 154 l7 150 131 4 c72 1 159 4 194
5 l62 2 0 -97z m14 -330 c3 -42 6 -99 6 -126 l0 -50 -92 7 c-50 3 -147 6 -216
6 l-125 0 7 107 c4 59 8 108 10 110 1 2 81 7 177 11 96 5 186 10 200 11 25 1
26 -1 33 -76z"/>
<path d="M300 971 c0 -82 4 -193 10 -247 5 -55 12 -127 14 -162 3 -35 8 -67
11 -72 5 -7 220 82 330 137 30 15 48 18 69 12 34 -9 96 2 129 24 16 10 74 16
226 21 112 5 214 12 225 16 17 7 18 9 4 9 -16 1 -18 12 -18 96 0 83 2 95 17
95 11 0 14 3 7 10 -6 6 -103 12 -224 16 -190 4 -220 7 -258 26 -33 15 -56 19
-95 15 -44 -4 -61 0 -112 26 -124 62 -280 127 -307 127 l-28 0 0 -149z m203
37 c84 -34 154 -63 156 -65 2 -1 -3 -11 -11 -20 -61 -70 -63 -169 -6 -230 12
-13 20 -25 17 -27 -11 -10 -303 -125 -307 -121 -8 8 -15 525 -8 525 4 0 76
-28 159 -62z m763 -132 c2 -11 4 -51 5 -89 l2 -70 -174 2 c-95 1 -175 3 -176
5 -1 1 2 19 8 39 7 25 7 49 0 74 -6 20 -9 38 -8 39 3 3 306 22 326 20 8 0 15
-10 17 -20z"/>
</g>
</svg>
