<?xml version="1.0" standalone="no"?>
<!DOCTYPE svg PUBLIC "-//W3C//DTD SVG 20010904//EN"
 "http://www.w3.org/TR/2001/REC-SVG-20010904/DTD/svg10.dtd">
<svg version="1.0" xmlns="http://www.w3.org/2000/svg"
 width="194.000000pt" height="190.000000pt" viewBox="0 0 194.000000 190.000000"
 preserveAspectRatio="xMidYMid meet">
<metadata>
Created by potrace 1.16, written by Peter Selinger 2001-2019
</metadata>
<g transform="translate(0.000000,190.000000) scale(0.100000,-0.100000)"
fill="#000000" stroke="none">
<path d="M466 1523 c-3 -42 -6 -113 -6 -158 l0 -82 -46 -18 c-25 -9 -61 -33
-80 -51 -29 -30 -34 -42 -34 -81 0 -58 32 -125 68 -144 20 -11 89 -15 283 -17
l256 -3 -13 -40 c-21 -60 -32 -183 -22 -252 10 -74 53 -144 137 -226 74 -72
180 -151 201 -151 18 0 19 5 36 218 l7 82 66 0 c36 0 102 3 147 6 l81 7 40
-37 c22 -20 43 -36 47 -36 14 0 4 18 -31 53 l-36 38 36 37 c66 68 42 73 -31 7
l-51 -46 -136 7 c-112 6 -135 10 -130 21 3 8 5 43 5 77 l0 63 142 6 143 5 43
-35 c56 -46 67 -34 17 17 l-39 40 39 40 c21 22 36 43 32 46 -6 6 -73 -42 -97
-71 -10 -12 -37 -15 -134 -15 -66 0 -126 4 -132 8 -8 5 -10 31 -7 79 4 55 9
73 22 76 29 6 -377 26 -551 27 l-58 0 0 75 c0 88 -15 131 -58 167 l-31 26 9
118 c14 178 13 194 -9 194 -15 0 -19 -11 -24 -67 -4 -38 -7 -106 -7 -153 0
-74 -3 -87 -20 -98 -12 -7 -20 -8 -20 -2 0 5 -7 10 -16 10 -10 0 -14 6 -10 18
2 9 8 79 11 155 7 132 6 137 -13 137 -17 0 -20 -9 -26 -77z m94 -328 c0 -30 5
-55 10 -55 6 0 10 20 10 44 0 25 4 47 9 50 26 16 71 -92 71 -171 l0 -43 -114
0 c-76 0 -116 -4 -118 -11 -3 -8 -13 -7 -35 4 -33 18 -63 70 -63 111 0 33 44
81 93 101 l37 15 0 -50 c0 -27 5 -50 10 -50 6 0 10 15 10 33 0 62 9 77 46 77
l34 0 0 -55z m653 -547 c-3 -183 -7 -335 -9 -337 -9 -11 -232 230 -258 278
-44 83 -46 199 -6 343 12 42 16 43 182 46 l97 2 -6 -332z"/>
</g>
</svg>
