<?xml version="1.0" standalone="no"?>
<!DOCTYPE svg PUBLIC "-//W3C//DTD SVG 20010904//EN"
 "http://www.w3.org/TR/2001/REC-SVG-20010904/DTD/svg10.dtd">
<svg version="1.0" xmlns="http://www.w3.org/2000/svg"
 width="140.000000pt" height="151.000000pt" viewBox="0 0 140.000000 151.000000"
 preserveAspectRatio="xMidYMid meet">
<metadata>
Created by potrace 1.16, written by Peter Selinger 2001-2019
</metadata>
<g transform="translate(0.000000,151.000000) scale(0.100000,-0.100000)"
fill="#000000" stroke="none">
<path d="M533 1137 c-63 -69 -70 -73 -97 -66 -16 5 -33 6 -38 3 -19 -12 -5
-23 35 -29 42 -6 44 -5 115 61 39 37 72 73 72 80 0 32 -23 19 -87 -49z"/>
<path d="M631 1162 c-32 -64 -62 -142 -53 -142 5 0 28 36 51 81 30 56 40 84
33 91 -7 7 -17 -2 -31 -30z"/>
<path d="M326 1029 c-44 -52 -31 -96 36 -118 29 -9 250 -31 314 -31 24 0 23 0
-8 -44 -55 -79 -46 -185 28 -295 16 -24 36 -55 45 -68 9 -13 20 -48 23 -76 12
-90 16 -99 40 -92 11 4 59 17 106 30 46 12 86 28 88 34 2 6 0 10 -6 9 -5 -2
-31 10 -57 27 l-47 29 6 66 c3 36 6 85 6 110 0 25 4 40 8 34 8 -14 183 44 189
63 5 13 -103 27 -166 21 -68 -6 -48 18 37 46 96 33 113 42 93 55 -18 12 -166
25 -180 17 -9 -6 -23 33 -33 89 -4 25 -38 30 -220 38 -112 5 -138 4 -138 -7 0
-11 36 -15 160 -21 135 -6 162 -10 169 -24 33 -61 70 -481 42 -481 -26 0 -8
-28 29 -45 22 -10 39 -20 37 -22 -5 -4 -114 -33 -126 -33 -5 0 -11 27 -13 60
-3 47 -11 70 -40 112 -49 73 -67 111 -77 163 -12 65 4 128 44 170 28 30 37 34
64 29 20 -4 31 -3 31 5 0 6 -17 11 -37 12 -39 1 -57 2 -233 20 -201 20 -250
48 -185 109 14 13 25 27 25 32 0 18 -30 6 -54 -23z m664 -214 c0 -2 -18 -9
-41 -15 -22 -6 -47 -14 -55 -17 -9 -3 -14 2 -14 16 0 19 6 21 55 21 30 0 55
-2 55 -5z m-30 -135 c-30 -11 -56 -19 -56 -20 -1 0 -4 9 -7 20 -5 18 0 20 56
20 l62 -1 -55 -19z"/>
</g>
</svg>
