<?xml version="1.0" standalone="no"?>
<!DOCTYPE svg PUBLIC "-//W3C//DTD SVG 20010904//EN"
 "http://www.w3.org/TR/2001/REC-SVG-20010904/DTD/svg10.dtd">
<svg version="1.0" xmlns="http://www.w3.org/2000/svg"
 width="135.000000pt" height="139.000000pt" viewBox="0 0 135.000000 139.000000"
 preserveAspectRatio="xMidYMid meet">
<metadata>
Created by potrace 1.16, written by Peter Selinger 2001-2019
</metadata>
<g transform="translate(0.000000,139.000000) scale(0.100000,-0.100000)"
fill="#000000" stroke="none">
<path d="M1023 1077 c-51 -28 -223 -134 -307 -189 l-91 -59 -117 6 c-109 6
-118 5 -125 -12 -4 -10 -24 -41 -45 -70 -21 -29 -38 -58 -38 -64 0 -16 92
-159 103 -159 4 0 7 5 7 10 0 6 40 10 100 10 l100 0 88 -54 c101 -62 331 -196
337 -196 2 0 4 8 4 18 0 9 3 187 7 395 4 207 5 377 3 377 -2 0 -14 -6 -26 -13z
m-13 -167 l0 -131 -37 5 c-21 3 -48 5 -60 5 -21 1 -23 6 -23 61 0 78 -17 87
-70 35 -40 -39 -52 -60 -94 -163 -32 -78 -32 -85 -1 -47 13 16 26 27 28 25 2
-3 18 -31 35 -63 l32 -57 -22 -45 -23 -44 -87 57 -88 56 6 85 c4 48 7 86 8 87
0 1 71 47 156 104 85 56 171 115 190 131 19 16 38 28 43 29 4 0 7 -59 7 -130z
m-153 -117 c-3 -2 -22 -3 -42 -1 l-37 3 39 50 38 50 3 -49 c2 -26 1 -50 -1
-53z m-282 -5 c3 -13 5 -63 3 -113 l-3 -90 -93 0 -92 0 -29 51 -29 50 33 55
c33 52 35 54 87 60 108 12 117 11 123 -13z m440 -150 c3 -73 5 -172 3 -220
l-3 -88 -108 74 c-59 41 -109 76 -110 78 -1 2 8 20 20 40 28 48 45 42 80 -26
33 -65 42 -44 11 26 -21 46 -23 65 -20 145 4 102 3 100 78 102 l42 1 7 -132z
m-150 31 c3 -50 4 -94 0 -97 -13 -14 -77 97 -90 156 l-7 32 45 0 44 0 8 -91z"/>
</g>
</svg>
