<?xml version="1.0" standalone="no"?>
<!DOCTYPE svg PUBLIC "-//W3C//DTD SVG 20010904//EN"
 "http://www.w3.org/TR/2001/REC-SVG-20010904/DTD/svg10.dtd">
<svg version="1.0" xmlns="http://www.w3.org/2000/svg"
 width="144.000000pt" height="139.000000pt" viewBox="0 0 144.000000 139.000000"
 preserveAspectRatio="xMidYMid meet">
<metadata>
Created by potrace 1.16, written by Peter Selinger 2001-2019
</metadata>
<g transform="translate(0.000000,139.000000) scale(0.100000,-0.100000)"
fill="#000000" stroke="none">
<path d="M423 1074 c-18 -8 -33 -20 -33 -28 0 -18 51 -50 148 -92 42 -18 70
-35 62 -38 -8 -2 -33 -10 -55 -16 -35 -11 -218 -85 -238 -97 -12 -7 21 -34 55
-44 18 -6 98 -13 178 -16 l145 -6 43 -59 c23 -32 65 -96 93 -141 136 -219 190
-290 153 -201 -21 49 -37 74 -49 74 -5 0 -29 40 -52 88 -50 103 -151 250 -173
251 -24 1 -293 40 -320 47 -20 5 -2 13 85 40 61 19 129 37 153 41 41 6 50 16
34 39 -4 6 -55 37 -114 69 -59 32 -105 62 -102 67 10 16 118 8 162 -12 64 -29
102 -59 96 -75 -5 -13 27 -5 259 67 20 6 40 8 44 4 9 -8 -16 -60 -79 -164 -28
-46 -48 -86 -45 -89 3 -3 29 26 57 64 85 114 139 243 101 243 -24 0 -134 -35
-214 -69 -88 -36 -94 -37 -105 -21 -6 10 -43 34 -83 54 -79 40 -146 46 -206
20z"/>
<path d="M835 771 c-3 -5 31 -64 75 -130 44 -67 80 -126 80 -132 0 -8 16 -10
48 -6 l49 6 21 -51 c28 -65 37 -57 20 17 l-13 57 -56 -4 c-55 -4 -57 -3 -67
26 -15 42 -131 226 -142 226 -5 0 -11 -4 -15 -9z"/>
<path d="M1060 335 c-53 -28 -60 -34 -38 -35 26 0 117 48 118 63 0 12 -12 8
-80 -28z"/>
</g>
</svg>
