<?xml version="1.0" standalone="no"?>
<!DOCTYPE svg PUBLIC "-//W3C//DTD SVG 20010904//EN"
 "http://www.w3.org/TR/2001/REC-SVG-20010904/DTD/svg10.dtd">
<svg version="1.0" xmlns="http://www.w3.org/2000/svg"
 width="140.000000pt" height="147.000000pt" viewBox="0 0 140.000000 147.000000"
 preserveAspectRatio="xMidYMid meet">
<metadata>
Created by potrace 1.16, written by Peter Selinger 2001-2019
</metadata>
<g transform="translate(0.000000,147.000000) scale(0.100000,-0.100000)"
fill="#000000" stroke="none">
<path d="M782 1041 c-34 -69 -68 -148 -77 -176 -27 -84 -16 -81 -223 -75
l-182 5 0 -24 0 -24 190 6 189 7 11 -43 c39 -151 98 -268 203 -399 15 -20 27
-23 27 -9 0 5 20 42 45 82 58 94 98 200 120 316 l18 91 -45 94 c-25 52 -71
135 -101 184 -50 81 -59 91 -86 91 -28 0 -32 -7 -89 -126z m183 -47 c30 -48
55 -90 55 -93 0 -3 -49 -4 -110 -3 -98 3 -110 2 -110 -13 0 -16 12 -17 120
-13 l119 4 11 -25 c7 -19 6 -51 -5 -116 -8 -49 -15 -93 -15 -98 0 -4 -52 -4
-115 -1 -114 7 -115 7 -115 -15 0 -22 1 -22 110 -15 61 4 110 4 110 1 0 -3 -4
-18 -10 -32 -10 -26 -11 -26 -104 -24 -51 1 -98 -1 -104 -5 -16 -10 -77 175
-84 254 -2 27 66 181 120 272 l34 58 20 -25 c10 -13 44 -63 73 -111z m19 -486
c-4 -13 -23 -58 -43 -101 l-36 -78 -33 60 -33 59 56 7 c75 10 69 25 -10 25
-36 0 -65 2 -65 4 0 2 -3 11 -6 20 -5 13 7 16 68 19 40 1 81 4 91 5 15 2 17
-3 11 -20z"/>
<path d="M800 975 c0 -11 12 -15 53 -15 28 0 63 3 75 7 40 10 4 23 -65 23 -49
0 -63 -3 -63 -15z"/>
<path d="M800 795 c0 -12 18 -15 103 -15 109 0 157 12 90 23 -21 4 -73 7 -115
7 -63 0 -78 -3 -78 -15z"/>
<path d="M800 700 c0 -23 0 -23 112 -16 106 7 127 11 117 20 -2 2 -55 7 -116
11 -113 7 -113 7 -113 -15z"/>
</g>
</svg>
