<?xml version="1.0" standalone="no"?>
<!DOCTYPE svg PUBLIC "-//W3C//DTD SVG 20010904//EN"
 "http://www.w3.org/TR/2001/REC-SVG-20010904/DTD/svg10.dtd">
<svg version="1.0" xmlns="http://www.w3.org/2000/svg"
 width="140.000000pt" height="147.000000pt" viewBox="0 0 140.000000 147.000000"
 preserveAspectRatio="xMidYMid meet">
<metadata>
Created by potrace 1.16, written by Peter Selinger 2001-2019
</metadata>
<g transform="translate(0.000000,147.000000) scale(0.100000,-0.100000)"
fill="#000000" stroke="none">
<path d="M782 1041 c-34 -69 -68 -148 -77 -176 -27 -84 -16 -81 -223 -75
l-182 5 0 -24 0 -24 190 6 189 7 11 -43 c39 -151 98 -268 203 -399 15 -20 27
-23 27 -9 0 5 20 42 45 82 58 94 98 200 120 316 l18 91 -45 94 c-25 52 -71
135 -101 184 -50 81 -59 91 -86 91 -28 0 -32 -7 -89 -126z m222 -113 l56 -96
-12 -81 c-6 -45 -14 -81 -17 -81 -3 0 -24 25 -45 55 -22 30 -43 55 -47 55 -25
0 -13 -26 37 -79 l56 -61 -12 -37 c-19 -58 -20 -58 -57 -4 -20 28 -39 51 -44
51 -24 0 -15 -26 27 -70 l47 -50 -22 -57 c-12 -32 -32 -78 -45 -101 l-22 -44
-66 129 c-62 121 -95 211 -115 313 -8 41 -5 54 30 135 56 129 53 127 108 64
26 -30 50 -51 54 -47 10 10 -80 129 -90 120 -5 -4 -2 4 6 18 9 14 22 36 28 49
13 23 13 23 51 -30 22 -30 64 -98 94 -151z"/>
<path d="M785 920 c-7 -12 80 -120 97 -120 10 0 -1 21 -51 92 -27 40 -36 45
-46 28z"/>
<path d="M945 910 c-7 -12 21 -53 64 -94 43 -41 39 -20 -10 47 -43 61 -45 62
-54 47z"/>
<path d="M780 773 c0 -14 98 -118 104 -112 9 9 -73 119 -90 119 -7 0 -14 -3
-14 -7z"/>
<path d="M780 618 c0 -15 91 -111 98 -103 4 4 -21 44 -62 98 -15 20 -36 23
-36 5z"/>
</g>
</svg>
