<?xml version="1.0" standalone="no"?>
<!DOCTYPE svg PUBLIC "-//W3C//DTD SVG 20010904//EN"
 "http://www.w3.org/TR/2001/REC-SVG-20010904/DTD/svg10.dtd">
<svg version="1.0" xmlns="http://www.w3.org/2000/svg"
 width="129.000000pt" height="147.000000pt" viewBox="0 0 129.000000 147.000000"
 preserveAspectRatio="xMidYMid meet">
<metadata>
Created by potrace 1.16, written by Peter Selinger 2001-2019
</metadata>
<g transform="translate(0.000000,147.000000) scale(0.100000,-0.100000)"
fill="#000000" stroke="none">
<path d="M731 1156 c-12 -14 -92 -178 -115 -235 l-17 -45 -139 145 c-116 121
-140 142 -151 131 -12 -12 10 -37 134 -156 136 -130 148 -144 142 -169 -4 -15
-11 -27 -15 -27 -10 0 29 -149 59 -231 25 -67 164 -280 175 -268 2 2 27 44 55
94 65 115 88 175 114 302 l20 102 -61 123 c-89 178 -135 246 -166 246 -14 0
-30 -6 -35 -12z m92 -108 c30 -46 70 -113 90 -149 l37 -66 -163 5 c-89 2 -164
6 -165 7 -9 8 133 285 144 285 2 0 27 -37 57 -82z m123 -255 c-2 -16 -8 -45
-11 -67 l-6 -39 -67 7 c-37 3 -104 6 -149 6 -89 0 -84 -3 -98 66 l-6 32 163 9
c90 5 167 11 171 11 5 1 6 -10 3 -25z m-36 -187 c-17 -59 -95 -252 -109 -268
-8 -10 -116 195 -141 266 l-19 55 112 4 c62 1 126 4 144 5 l32 2 -19 -64z"/>
</g>
</svg>
