<?xml version="1.0" standalone="no"?>
<!DOCTYPE svg PUBLIC "-//W3C//DTD SVG 20010904//EN"
 "http://www.w3.org/TR/2001/REC-SVG-20010904/DTD/svg10.dtd">
<svg version="1.0" xmlns="http://www.w3.org/2000/svg"
 width="196.000000pt" height="131.000000pt" viewBox="0 0 196.000000 131.000000"
 preserveAspectRatio="xMidYMid meet">
<metadata>
Created by potrace 1.16, written by Peter Selinger 2001-2019
</metadata>
<g transform="translate(0.000000,131.000000) scale(0.100000,-0.100000)"
fill="#000000" stroke="none">
<path d="M1505 924 c-77 -48 -154 -95 -172 -106 -27 -16 -47 -19 -125 -16 -66
2 -96 -1 -103 -10 -6 -7 -9 -57 -7 -117 l3 -105 96 0 95 0 97 -58 c100 -62
244 -142 253 -142 2 0 5 6 5 13 11 372 14 627 7 627 -5 0 -72 -39 -149 -86z
m120 -248 l7 -289 -78 55 c-44 30 -121 81 -171 113 l-93 58 0 66 0 67 163 110
c89 61 163 110 163 110 1 -1 5 -131 9 -290z m-360 30 c4 -40 4 -84 0 -96 -6
-20 -12 -22 -52 -16 -25 3 -57 6 -70 6 -24 0 -24 1 -22 83 1 47 7 85 13 89 6
4 36 8 68 8 l56 0 7 -74z"/>
<path d="M395 941 c-74 -37 -95 -53 -95 -75 0 -21 0 -21 59 18 81 55 113 62
164 37 24 -12 53 -32 65 -44 l22 -24 -39 -84 c-29 -62 -48 -89 -72 -103 -81
-48 -170 -164 -155 -203 13 -33 149 19 239 90 49 40 73 53 90 50 13 -3 24 -10
24 -17 0 -7 33 -74 74 -149 73 -135 75 -137 108 -137 45 0 176 73 139 78 -20
2 -33 25 -87 143 -46 102 -60 143 -52 149 42 25 123 101 145 135 46 70 47 70
-183 73 -113 1 -209 -2 -213 -6 -6 -6 -29 11 -56 40 -62 64 -95 70 -177 29z
m614 -103 c-18 -35 -140 -158 -156 -158 -32 0 -21 -38 52 -171 42 -77 75 -141
73 -142 -1 -1 -29 -15 -60 -30 l-58 -27 -30 68 c-17 37 -47 104 -68 149 l-37
82 -80 28 c-61 21 -81 33 -83 48 -1 11 17 52 40 90 l43 70 125 5 c268 12 252
13 239 -12z m-428 -212 c21 -9 39 -18 39 -20 0 -3 -27 -21 -59 -41 -69 -41
-171 -79 -171 -63 0 38 141 185 148 154 2 -8 21 -21 43 -30z"/>
</g>
</svg>
