<?xml version="1.0" standalone="no"?>
<!DOCTYPE svg PUBLIC "-//W3C//DTD SVG 20010904//EN"
 "http://www.w3.org/TR/2001/REC-SVG-20010904/DTD/svg10.dtd">
<svg version="1.0" xmlns="http://www.w3.org/2000/svg"
 width="196.000000pt" height="126.000000pt" viewBox="0 0 196.000000 126.000000"
 preserveAspectRatio="xMidYMid meet">
<metadata>
Created by potrace 1.16, written by Peter Selinger 2001-2019
</metadata>
<g transform="translate(0.000000,126.000000) scale(0.100000,-0.100000)"
fill="#000000" stroke="none">
<path d="M920 946 c-64 -24 -139 -66 -159 -88 l-20 -21 -143 17 c-294 34 -289
34 -295 19 -3 -8 -2 -18 3 -22 9 -9 288 -31 382 -31 l52 0 -15 -37 c-9 -20
-17 -38 -19 -40 -2 -2 -45 1 -97 6 -52 5 -142 12 -201 16 -101 5 -108 4 -108
-13 0 -17 11 -20 92 -26 50 -3 140 -6 200 -6 87 0 108 -3 108 -14 0 -42 -2
-43 -205 -38 l-195 5 0 -23 0 -23 195 6 c186 6 195 6 195 -12 0 -18 -14 -19
-191 -26 -188 -8 -214 -13 -196 -43 5 -7 263 9 350 22 33 6 39 3 46 -16 11
-30 -2 -38 -69 -38 -78 -1 -318 -25 -326 -33 -16 -15 6 -37 33 -32 15 2 84 11
153 20 69 8 149 19 178 24 46 7 54 6 63 -10 6 -13 6 -19 -1 -19 -5 0 -102 -16
-216 -35 -113 -19 -207 -35 -210 -35 -2 0 -4 -9 -4 -20 0 -11 4 -20 10 -20 10
0 233 46 363 76 l79 17 26 -34 c50 -65 79 -87 132 -103 83 -25 145 -21 218 14
71 33 156 89 148 97 -3 3 3 22 13 42 10 20 26 60 35 89 10 28 20 52 22 52 3 0
39 -20 82 -44 121 -68 223 -118 230 -111 4 3 2 9 -4 13 -6 4 -56 36 -110 71
-54 35 -116 75 -138 89 l-38 24 81 49 c67 40 193 122 210 136 2 1 2 6 -1 9 -6
6 -100 -40 -230 -112 -44 -24 -82 -44 -84 -44 -1 0 -10 24 -18 54 -16 54 -41
91 -55 81 -4 -2 3 -35 15 -72 29 -84 29 -100 4 -199 -31 -123 -37 -132 -99
-163 -125 -64 -184 -68 -311 -21 -50 19 -59 27 -88 79 -24 44 -29 60 -20 69 9
9 8 12 -5 12 -37 0 -35 148 4 245 22 55 29 63 84 92 113 60 188 62 318 7 34
-14 71 -28 82 -31 37 -9 -24 34 -104 74 -83 42 -169 53 -231 29z"/>
</g>
</svg>
