<?xml version="1.0" standalone="no"?>
<!DOCTYPE svg PUBLIC "-//W3C//DTD SVG 20010904//EN"
 "http://www.w3.org/TR/2001/REC-SVG-20010904/DTD/svg10.dtd">
<svg version="1.0" xmlns="http://www.w3.org/2000/svg"
 width="151.000000pt" height="102.000000pt" viewBox="0 0 151.000000 102.000000"
 preserveAspectRatio="xMidYMid meet">
<metadata>
Created by potrace 1.16, written by Peter Selinger 2001-2019
</metadata>
<g transform="translate(0.000000,102.000000) scale(0.100000,-0.100000)"
fill="#000000" stroke="none">
<path d="M487 713 c-16 -15 -2 -25 94 -73 l100 -51 -35 -24 -35 -24 -95 55
c-86 50 -116 59 -116 35 0 -5 43 -30 95 -57 52 -26 95 -49 95 -51 0 -9 -31
-63 -36 -63 -3 0 -48 25 -100 56 -85 50 -114 59 -114 34 0 -4 46 -32 103 -60
56 -29 103 -53 104 -54 1 -1 0 -11 -3 -23 -9 -34 -33 -36 -83 -5 -126 78 -161
92 -161 63 0 -5 51 -34 113 -65 61 -31 117 -60 122 -64 56 -43 47 -42 342 -42
156 0 283 4 283 9 0 10 -320 24 -461 20 -78 -2 -102 1 -123 14 -33 22 -33 37
1 95 47 84 88 116 176 140 33 9 51 6 154 -30 110 -38 122 -40 201 -35 105 6
136 27 41 27 -92 0 -165 15 -265 56 l-86 34 -46 -16 -47 -16 -103 61 c-112 67
-106 64 -115 54z"/>
</g>
</svg>
