<?xml version="1.0" standalone="no"?>
<!DOCTYPE svg PUBLIC "-//W3C//DTD SVG 20010904//EN"
 "http://www.w3.org/TR/2001/REC-SVG-20010904/DTD/svg10.dtd">
<svg version="1.0" xmlns="http://www.w3.org/2000/svg"
 width="229.000000pt" height="165.000000pt" viewBox="0 0 229.000000 165.000000"
 preserveAspectRatio="xMidYMid meet">
<metadata>
Created by potrace 1.16, written by Peter Selinger 2001-2019
</metadata>
<g transform="translate(0.000000,165.000000) scale(0.100000,-0.100000)"
fill="#000000" stroke="none">
<path d="M1515 1333 c13 -33 34 -168 35 -221 0 -74 -18 -189 -38 -239 l-17
-43 -169 0 -169 0 -76 58 c-42 32 -107 80 -146 107 -38 26 -73 51 -77 54 -4 4
13 55 37 115 49 118 52 131 31 139 -14 6 -33 -38 -90 -208 -17 -50 -17 -50
-177 -145 -114 -67 -168 -94 -186 -92 l-26 4 7 -173 c4 -96 9 -176 12 -178 10
-10 13 11 20 136 l7 131 78 -49 c44 -27 118 -71 165 -99 l87 -49 1 -51 2 -50
-263 0 c-256 0 -263 -1 -263 -20 0 -19 7 -20 265 -20 l265 0 0 -70 c0 -40 4
-70 10 -70 6 0 10 20 10 44 0 24 3 58 6 75 l7 31 103 0 c63 0 104 4 104 10 0
6 -34 10 -82 10 -123 0 -128 3 -128 61 0 47 2 51 47 82 25 17 91 65 145 105
l98 72 169 0 169 0 7 -32 c17 -92 78 -328 85 -328 4 0 -7 79 -23 175 -17 96
-29 177 -26 179 2 2 43 7 92 11 l87 7 0 -28 c1 -33 73 -331 83 -341 11 -10 8
14 -18 161 -14 77 -25 155 -25 173 l0 33 120 0 c73 0 120 4 120 10 0 6 -47 10
-120 10 l-120 0 6 28 c3 15 12 52 20 82 31 127 33 274 5 378 -9 31 -17 42 -31
42 -24 0 -24 7 -4 -77 9 -37 16 -108 17 -158 0 -94 -19 -235 -33 -235 -4 0
-10 -13 -13 -29 l-6 -29 -83 5 c-46 3 -85 7 -87 9 -2 2 7 48 20 101 27 114 31
243 10 346 -12 61 -15 67 -38 67 -20 0 -24 -4 -18 -17z m-711 -340 l-6 -28 20
24 19 24 89 -60 c49 -32 112 -72 139 -88 35 -21 45 -30 33 -33 -19 -4 -25 -38
-7 -44 15 -5 -218 -148 -242 -148 -12 0 -23 -8 -26 -20 -5 -18 -10 -16 -62 24
-31 23 -98 71 -149 106 -51 35 -89 66 -85 70 4 4 55 39 113 78 58 39 119 83
135 96 37 31 37 32 29 -1z"/>
</g>
</svg>
