<?xml version="1.0" standalone="no"?>
<!DOCTYPE svg PUBLIC "-//W3C//DTD SVG 20010904//EN"
 "http://www.w3.org/TR/2001/REC-SVG-20010904/DTD/svg10.dtd">
<svg version="1.0" xmlns="http://www.w3.org/2000/svg"
 width="190.000000pt" height="221.000000pt" viewBox="0 0 190.000000 221.000000"
 preserveAspectRatio="xMidYMid meet">
<metadata>
Created by potrace 1.16, written by Peter Selinger 2001-2019
</metadata>
<g transform="translate(0.000000,221.000000) scale(0.100000,-0.100000)"
fill="#000000" stroke="none">
<path d="M475 1902 c-6 -5 -38 -19 -73 -32 -65 -24 -78 -33 -67 -50 4 -7 32 3
73 25 l66 35 68 -25 c37 -14 68 -21 68 -16 0 7 -110 71 -122 71 -2 0 -8 -4
-13 -8z"/>
<path d="M641 1851 c-12 -8 -13 -43 -7 -212 3 -111 11 -208 16 -214 11 -13
131 5 560 86 118 22 230 41 248 42 l32 1 2 83 c4 159 5 148 -17 146 -11 -1
-186 16 -390 38 -396 42 -422 43 -444 30z m363 -56 c136 -10 202 -19 208 -27
4 -7 8 -57 8 -110 0 -53 4 -99 9 -102 10 -7 21 75 21 161 l0 61 103 -5 c56 -3
103 -6 103 -7 1 0 4 -44 7 -96 l5 -96 -371 -53 c-203 -29 -385 -55 -404 -58
-32 -6 -33 -5 -33 31 0 20 1 36 3 36 26 0 532 61 535 65 14 14 8 13 -480 -28
-54 -5 -58 -4 -58 16 0 48 3 49 275 57 141 5 259 11 263 14 3 3 -108 6 -246 6
-137 0 -257 3 -266 6 -10 4 -16 18 -16 41 l0 36 98 -6 c194 -13 417 -20 410
-12 -6 6 -411 44 -480 45 -23 0 -28 4 -28 26 l0 27 68 -7 c37 -3 157 -13 266
-21z"/>
<path d="M473 1816 c-4 -7 -31 -21 -59 -30 -61 -20 -89 -39 -81 -54 8 -11 70
15 120 50 28 20 28 20 78 -2 78 -33 94 -19 22 18 -72 37 -69 36 -80 18z"/>
<path d="M470 1717 c0 -6 26 -22 58 -35 100 -39 110 -25 16 22 -58 29 -74 32
-74 13z"/>
<path d="M392 1676 c-74 -28 -73 -28 -63 -45 7 -11 21 -7 70 19 33 18 61 37
61 41 0 5 -1 9 -2 8 -2 0 -31 -11 -66 -23z"/>
<path d="M482 1613 c3 -17 128 -70 128 -53 0 9 -110 70 -125 70 -4 0 -5 -7 -3
-17z"/>
<path d="M386 1575 c-70 -29 -67 -27 -57 -44 7 -11 21 -7 70 19 33 18 61 37
61 41 0 13 -8 11 -74 -16z"/>
<path d="M480 1527 c0 -14 26 -29 93 -53 58 -21 44 2 -23 36 -68 34 -70 35
-70 17z"/>
<path d="M387 1497 c-32 -13 -58 -26 -58 -30 1 -4 1 -11 1 -17 0 -5 29 5 65
22 36 18 65 36 65 40 0 11 -8 10 -73 -15z"/>
<path d="M300 937 c0 -30 10 -32 235 -67 77 -11 155 -23 173 -26 27 -4 32 -9
32 -34 0 -33 22 -33 -259 6 -95 14 -176 22 -179 20 -26 -27 50 -43 391 -82
l47 -6 0 -46 0 -45 -192 6 c-106 4 -203 10 -215 13 -18 5 -23 2 -23 -14 0 -23
29 -27 282 -38 l146 -6 5 -37 c2 -20 2 -38 0 -40 -6 -7 -206 -20 -320 -20 -98
-1 -103 -2 -103 -22 0 -21 2 -22 123 -15 67 3 164 9 215 13 l92 6 0 -32 c0
-17 5 -31 10 -31 6 0 10 15 10 33 l0 32 273 33 c149 19 274 36 276 38 13 13
-29 11 -264 -11 -143 -14 -266 -25 -272 -25 -8 0 -13 14 -13 38 l0 39 113 6
c61 4 159 7 217 8 58 1 132 5 165 9 47 5 20 8 -120 11 -99 2 -222 4 -273 4
l-92 0 0 47 c0 46 1 47 28 43 15 -3 107 -9 205 -15 371 -21 384 -9 25 26 -139
13 -254 24 -255 24 -2 0 -3 14 -3 31 0 24 3 29 18 25 9 -3 132 -15 272 -27
140 -11 257 -23 260 -26 3 -2 7 -61 9 -129 1 -68 6 -124 11 -124 10 0 20 88
20 181 l0 76 53 -4 c28 -2 75 -6 103 -9 l51 -5 5 -107 c3 -59 5 -108 4 -108 0
-1 -143 -25 -316 -53 -173 -28 -405 -66 -515 -85 -110 -18 -257 -42 -327 -51
-123 -17 -128 -19 -128 -42 0 -15 6 -23 18 -23 67 0 585 93 977 176 143 30
270 55 283 56 22 2 22 5 22 128 l0 126 -107 12 c-495 53 -979 119 -1165 159
-25 5 -28 2 -28 -20z"/>
</g>
</svg>
