<?xml version="1.0" standalone="no"?>
<!DOCTYPE svg PUBLIC "-//W3C//DTD SVG 20010904//EN"
 "http://www.w3.org/TR/2001/REC-SVG-20010904/DTD/svg10.dtd">
<svg version="1.0" xmlns="http://www.w3.org/2000/svg"
 width="173.000000pt" height="114.000000pt" viewBox="0 0 173.000000 114.000000"
 preserveAspectRatio="xMidYMid meet">
<metadata>
Created by potrace 1.16, written by Peter Selinger 2001-2019
</metadata>
<g transform="translate(0.000000,114.000000) scale(0.100000,-0.100000)"
fill="#000000" stroke="none">
<path d="M392 818 c-7 -13 -30 -72 -51 -132 l-40 -109 49 -98 c27 -53 54 -100
59 -104 6 -3 91 6 190 20 99 14 183 25 186 25 3 0 5 -17 5 -37 0 -21 3 -49 7
-61 8 -34 23 -8 23 43 0 22 4 45 8 51 4 5 133 31 287 56 250 40 281 44 289 30
15 -26 25 12 25 106 l1 82 -32 0 c-17 0 -122 16 -232 35 -194 34 -725 115
-750 115 -7 0 -18 -10 -24 -22z m150 -49 l88 -12 0 -86 c0 -47 3 -116 6 -152
l7 -66 -117 -13 c-64 -7 -118 -11 -120 -9 -5 5 -56 129 -63 151 -3 10 12 58
33 108 44 101 33 96 166 79z m249 -34 c57 -8 214 -26 349 -40 150 -16 248 -31
252 -38 5 -7 7 -37 6 -67 l-3 -54 -270 -27 c-148 -16 -276 -28 -282 -28 -7 -1
-13 10 -13 24 0 18 -5 25 -20 25 -15 0 -20 -7 -20 -29 0 -28 -2 -29 -61 -36
-33 -4 -62 -6 -63 -4 -3 4 16 289 19 289 1 0 48 -7 106 -15z"/>
</g>
</svg>
