<?xml version="1.0" standalone="no"?>
<!DOCTYPE svg PUBLIC "-//W3C//DTD SVG 20010904//EN"
 "http://www.w3.org/TR/2001/REC-SVG-20010904/DTD/svg10.dtd">
<svg version="1.0" xmlns="http://www.w3.org/2000/svg"
 width="165.000000pt" height="122.000000pt" viewBox="0 0 165.000000 122.000000"
 preserveAspectRatio="xMidYMid meet">
<metadata>
Created by potrace 1.16, written by Peter Selinger 2001-2019
</metadata>
<g transform="translate(0.000000,122.000000) scale(0.100000,-0.100000)"
fill="#000000" stroke="none">
<path d="M303 689 c3 -127 9 -234 12 -237 3 -3 116 9 251 28 144 19 248 29
253 24 4 -5 24 -53 45 -106 21 -54 41 -98 46 -98 4 0 -8 47 -28 105 -19 58
-33 108 -30 111 3 2 109 22 236 42 204 34 232 36 238 23 12 -30 23 20 23 107
l1 82 -34 0 c-19 0 -123 16 -232 35 -108 19 -201 35 -206 35 -4 0 -2 16 6 35
14 33 14 35 -5 35 -14 0 -25 -10 -32 -30 -6 -16 -16 -30 -22 -30 -6 0 -115 16
-244 35 -128 19 -244 35 -258 35 l-26 0 6 -231z m330 136 c92 -12 170 -24 172
-26 2 -3 -4 -30 -13 -63 -13 -48 -14 -67 -4 -114 6 -30 11 -57 9 -58 -4 -4
-410 -54 -439 -54 -26 0 -27 2 -23 48 3 26 8 105 11 175 l6 128 57 -7 c31 -3
132 -17 224 -29z m462 -55 c110 -11 206 -23 213 -25 8 -3 12 -26 12 -68 l0
-63 -187 -18 c-104 -9 -213 -19 -244 -23 l-57 -6 -10 50 c-11 49 -5 97 18 154
9 22 17 28 34 24 11 -2 111 -14 221 -25z"/>
</g>
</svg>
