<?xml version="1.0" standalone="no"?>
<!DOCTYPE svg PUBLIC "-//W3C//DTD SVG 20010904//EN"
 "http://www.w3.org/TR/2001/REC-SVG-20010904/DTD/svg10.dtd">
<svg version="1.0" xmlns="http://www.w3.org/2000/svg"
 width="218.000000pt" height="255.000000pt" viewBox="0 0 218.000000 255.000000"
 preserveAspectRatio="xMidYMid meet">
<metadata>
Created by potrace 1.16, written by Peter Selinger 2001-2019
</metadata>
<g transform="translate(0.000000,255.000000) scale(0.100000,-0.100000)"
fill="#000000" stroke="none">
<path d="M1290 2239 c-234 -12 -365 -28 -426 -50 -41 -15 -78 -43 -152 -113
-64 -61 -112 -98 -138 -106 -45 -15 -146 -18 -221 -7 -48 7 -53 6 -53 -11 0
-16 10 -20 68 -25 99 -8 204 8 262 39 27 15 88 62 136 105 48 43 102 85 120
94 35 17 187 34 529 60 116 9 215 18 220 20 17 6 -180 3 -345 -6z"/>
<path d="M333 1793 c-24 -3 -33 -9 -33 -24 0 -16 4 -18 28 -12 15 4 72 8 127
8 123 0 146 -11 262 -124 93 -89 140 -116 233 -130 72 -11 329 -28 550 -35
188 -6 108 5 -292 39 -332 28 -319 24 -448 141 -116 105 -180 135 -302 139
-51 2 -108 1 -125 -2z"/>
<path d="M910 990 c0 -5 -65 -53 -145 -106 l-145 -96 -138 3 c-127 3 -137 2
-140 -15 -4 -18 4 -19 156 -14 l160 6 64 43 c34 23 88 64 120 91 l56 48 99 5
c54 2 275 7 491 11 215 3 392 10 392 14 0 9 -364 20 -697 20 -171 0 -273 -4
-273 -10z"/>
<path d="M340 529 c0 -20 4 -20 143 -17 106 2 146 0 157 -10 8 -7 67 -47 130
-88 63 -41 123 -84 133 -96 l18 -21 442 7 c243 4 460 10 482 15 23 4 -145 11
-395 16 -239 4 -461 9 -492 10 -53 3 -61 6 -125 61 -37 33 -91 74 -120 92 -50
32 -56 34 -200 42 -81 5 -154 10 -160 10 -7 0 -13 -9 -13 -21z"/>
</g>
</svg>
