<?xml version="1.0" standalone="no"?>
<!DOCTYPE svg PUBLIC "-//W3C//DTD SVG 20010904//EN"
 "http://www.w3.org/TR/2001/REC-SVG-20010904/DTD/svg10.dtd">
<svg version="1.0" xmlns="http://www.w3.org/2000/svg"
 width="196.000000pt" height="134.000000pt" viewBox="0 0 196.000000 134.000000"
 preserveAspectRatio="xMidYMid meet">
<metadata>
Created by potrace 1.16, written by Peter Selinger 2001-2019
</metadata>
<g transform="translate(0.000000,134.000000) scale(0.100000,-0.100000)"
fill="#000000" stroke="none">
<path d="M680 989 c-12 -28 -29 -86 -38 -128 l-17 -76 -162 3 -163 2 0 -25 0
-25 164 0 164 0 7 -42 c9 -55 39 -130 73 -188 15 -25 29 -61 32 -80 5 -34 7
-36 90 -63 115 -37 265 -67 337 -67 89 0 262 49 436 124 33 14 37 14 37 1 0
-8 5 -15 10 -15 6 0 10 63 10 170 0 165 -1 170 -20 170 -20 0 -21 -3 -14 -122
4 -68 7 -134 8 -147 1 -21 -8 -27 -69 -48 -38 -13 -124 -37 -190 -53 -173 -43
-264 -41 -450 11 -153 43 -149 40 -189 135 -35 83 -65 198 -55 209 3 3 81 8
173 12 92 3 169 9 171 13 5 9 -146 20 -263 20 l-85 0 7 51 c6 43 24 100 61
192 6 13 2 17 -18 17 -20 0 -29 -9 -47 -51z"/>
</g>
</svg>
