<?xml version="1.0" standalone="no"?>
<!DOCTYPE svg PUBLIC "-//W3C//DTD SVG 20010904//EN"
 "http://www.w3.org/TR/2001/REC-SVG-20010904/DTD/svg10.dtd">
<svg version="1.0" xmlns="http://www.w3.org/2000/svg"
 width="96.000000pt" height="134.000000pt" viewBox="0 0 96.000000 134.000000"
 preserveAspectRatio="xMidYMid meet">
<metadata>
Created by potrace 1.16, written by Peter Selinger 2001-2019
</metadata>
<g transform="translate(0.000000,134.000000) scale(0.100000,-0.100000)"
fill="#000000" stroke="none">
<path d="M304 670 l1 -370 168 0 167 0 0 325 c0 210 -4 325 -10 325 -5 0 -10
-22 -10 -48 l0 -48 -125 4 c-113 4 -125 3 -125 -13 0 -15 12 -17 120 -14 66 2
120 1 120 -3 0 -3 -15 -26 -33 -50 l-33 -43 -65 3 c-39 3 -71 10 -81 19 -30
27 -58 97 -58 146 0 26 -4 47 -10 47 -5 0 -10 5 -10 12 0 6 10 2 23 -10 53
-50 145 -66 215 -37 55 24 82 53 82 92 l0 33 -168 0 -169 0 1 -370z m74 72
c-4 -2 -8 -12 -8 -23 0 -16 7 -19 53 -19 83 0 187 12 187 21 0 5 -12 9 -27 9
l-26 0 20 23 c11 12 25 31 31 42 9 15 11 -13 12 -125 l0 -144 -24 34 c-22 33
-23 35 -5 38 33 6 21 22 -17 22 -19 0 -44 5 -55 10 -11 6 -45 8 -85 4 -62 -7
-66 -8 -61 -30 2 -13 -4 -36 -14 -51 -19 -28 -19 -27 -19 116 l0 144 23 -34
c13 -19 20 -35 15 -37z m195 -174 c31 -42 57 -110 57 -148 0 -35 0 -35 -42
-11 -70 40 -159 39 -222 -4 l-36 -24 0 33 c0 41 23 108 50 146 19 26 27 29 88
33 37 2 70 4 74 5 4 1 18 -13 31 -30z"/>
<path d="M370 485 c0 -12 19 -15 114 -15 115 0 159 12 88 24 -20 3 -74 6 -119
6 -67 0 -83 -3 -83 -15z"/>
</g>
</svg>
