<?xml version="1.0" standalone="no"?>
<!DOCTYPE svg PUBLIC "-//W3C//DTD SVG 20010904//EN"
 "http://www.w3.org/TR/2001/REC-SVG-20010904/DTD/svg10.dtd">
<svg version="1.0" xmlns="http://www.w3.org/2000/svg"
 width="85.000000pt" height="135.000000pt" viewBox="0 0 85.000000 135.000000"
 preserveAspectRatio="xMidYMid meet">
<metadata>
Created by potrace 1.16, written by Peter Selinger 2001-2019
</metadata>
<g transform="translate(0.000000,135.000000) scale(0.100000,-0.100000)"
fill="#000000" stroke="none">
<path d="M413 989 c3 -35 3 -54 0 -41 -5 27 -9 27 -50 2 -84 -51 -84 -179 0
-230 44 -27 105 -26 148 3 l34 23 0 89 0 89 -34 23 c-46 31 -59 29 -64 -9 -2
-18 -4 -2 -3 37 1 61 -1 70 -18 73 -17 4 -18 -1 -13 -59z m36 -202 c0 -27 -2
-29 -9 -12 -12 28 -12 57 0 50 6 -3 10 -21 9 -38z"/>
<path d="M412 588 c3 -35 3 -53 1 -40 -5 27 -9 27 -50 2 -84 -51 -84 -179 0
-230 44 -27 105 -26 148 3 l34 23 0 89 0 89 -34 23 c-46 31 -59 29 -64 -9 -3
-18 -3 0 0 40 4 68 3 72 -18 72 -20 0 -21 -4 -17 -62z m37 -196 c0 -30 -2 -33
-9 -17 -12 28 -12 67 0 60 6 -3 10 -23 9 -43z"/>
</g>
</svg>
