<?xml version="1.0" standalone="no"?>
<!DOCTYPE svg PUBLIC "-//W3C//DTD SVG 20010904//EN"
 "http://www.w3.org/TR/2001/REC-SVG-20010904/DTD/svg10.dtd">
<svg version="1.0" xmlns="http://www.w3.org/2000/svg"
 width="210.000000pt" height="339.000000pt" viewBox="0 0 210.000000 339.000000"
 preserveAspectRatio="xMidYMid meet">
<metadata>
Created by potrace 1.16, written by Peter Selinger 2001-2019
</metadata>
<g transform="translate(0.000000,339.000000) scale(0.100000,-0.100000)"
fill="#000000" stroke="none">
<path d="M411 2993 c-34 -52 -74 -116 -88 -143 l-25 -49 79 -103 c44 -58 83
-109 86 -115 4 -7 -21 -56 -57 -110 -35 -54 -74 -117 -86 -141 l-22 -43 85
-113 c111 -146 111 -146 140 -111 121 152 167 219 161 239 -8 27 -34 71 -106
179 l-59 88 86 113 86 114 -15 36 c-9 21 -47 86 -86 145 -91 140 -94 140 -179
14z m176 -63 l79 -104 -63 -91 c-34 -49 -68 -98 -75 -108 -11 -16 -12 4 -10
113 3 123 2 132 -15 128 -17 -3 -18 -14 -15 -143 l3 -140 -81 119 c-44 66 -79
122 -78 126 12 27 164 218 170 212 4 -4 42 -54 85 -112z m-8 -502 c39 -54 76
-100 81 -103 7 -4 -75 -137 -144 -232 0 -1 1 59 2 133 4 133 4 134 -18 134
l-22 0 7 -147 6 -148 -45 72 c-25 39 -61 94 -81 121 -19 27 -35 53 -35 57 0 4
17 28 38 54 21 25 58 74 82 109 24 34 47 59 50 55 4 -5 39 -52 79 -105z"/>
<path d="M1507 3010 c-28 -41 -68 -104 -89 -139 l-37 -64 36 -51 c20 -28 60
-80 89 -116 l52 -66 -65 -98 c-36 -54 -75 -118 -88 -143 l-24 -44 74 -97 c41
-53 86 -110 100 -127 l25 -30 26 30 c14 17 59 74 101 128 l75 99 -51 83 c-28
46 -68 109 -89 141 l-39 58 79 100 c44 56 83 108 88 117 9 17 -19 70 -126 235
-54 84 -71 82 -137 -16z m103 6 c11 -19 47 -69 80 -111 l59 -77 -82 -124 c-45
-68 -84 -123 -87 -123 -3 0 -42 55 -86 123 l-82 123 82 111 c44 61 84 111 88
111 3 1 16 -14 28 -33z m33 -559 c32 -45 69 -96 82 -113 l25 -31 -42 -59 c-23
-32 -61 -90 -84 -127 l-42 -68 -85 128 -86 128 24 30 c14 17 50 67 82 112 32
45 60 82 63 82 3 0 31 -37 63 -82z"/>
<path d="M480 1625 c0 -38 -10 -59 -64 -142 -35 -54 -74 -117 -86 -140 l-21
-42 73 -96 c40 -53 79 -105 87 -116 12 -17 6 -30 -57 -126 -38 -60 -77 -123
-86 -141 -17 -33 -17 -33 20 -85 21 -29 62 -82 91 -118 44 -55 53 -73 53 -106
0 -22 3 -69 8 -104 l7 -64 5 100 5 101 46 54 c25 30 67 83 93 118 58 77 58 75
-49 238 l-75 115 78 102 c43 56 81 108 86 114 11 19 -22 84 -103 206 -54 81
-71 116 -71 142 0 28 -4 35 -20 35 -17 0 -20 -7 -20 -45z m191 -300 c0 -3 -34
-56 -75 -117 l-76 -112 0 218 0 219 75 -101 c42 -56 76 -104 76 -107z m-191
-12 l0 -196 -71 103 c-47 68 -68 108 -63 116 83 112 129 174 131 174 2 0 3
-88 3 -197z m124 -406 c36 -49 66 -92 66 -95 0 -4 -32 -54 -70 -112 -39 -57
-70 -108 -70 -112 0 -4 -3 -8 -7 -8 -5 0 -7 97 -5 217 1 119 7 212 11 207 5
-5 39 -49 75 -97z m-115 -114 l2 -208 -76 113 c-67 100 -75 116 -63 132 7 10
38 52 68 93 30 42 58 76 61 76 4 1 7 -92 8 -206z"/>
<path d="M1615 1503 c4 -36 9 -72 11 -78 3 -7 -13 -17 -35 -24 -58 -17 -108
-72 -117 -128 -10 -66 0 -132 27 -188 21 -41 33 -53 66 -64 41 -15 41 -15 48
-76 8 -80 21 -100 30 -47 3 23 5 56 3 74 -2 26 1 33 17 36 11 2 46 12 78 24
l57 20 0 144 0 144 -52 30 c-29 17 -65 33 -79 36 l-27 6 5 79 c6 77 5 79 -17
79 -22 0 -22 -2 -15 -67z m99 -143 l54 -21 9 -122 c4 -67 8 -129 8 -137 0 -36
-138 -50 -215 -23 -47 17 -48 18 -59 72 -24 121 -7 193 54 228 50 28 79 29
149 3z"/>
<path d="M1562 824 c-29 -14 -52 -31 -52 -36 0 -6 -8 -17 -17 -24 -15 -10 -18
-28 -18 -101 0 -73 4 -97 25 -140 21 -45 30 -54 66 -64 l42 -13 7 -61 c8 -83
21 -101 30 -43 4 25 5 56 3 69 -3 22 4 26 72 49 l75 25 3 145 2 145 -36 23
c-40 26 -107 52 -133 52 -10 0 -40 -12 -69 -26z m141 -24 l64 -20 7 -107 c4
-60 9 -122 12 -139 5 -30 4 -32 -40 -43 -63 -16 -123 -14 -178 6 -45 16 -48
19 -58 65 -29 136 1 221 85 247 42 13 36 13 108 -9z"/>
</g>
</svg>
