<?xml version="1.0" standalone="no"?>
<!DOCTYPE svg PUBLIC "-//W3C//DTD SVG 20010904//EN"
 "http://www.w3.org/TR/2001/REC-SVG-20010904/DTD/svg10.dtd">
<svg version="1.0" xmlns="http://www.w3.org/2000/svg"
 width="209.000000pt" height="106.000000pt" viewBox="0 0 209.000000 106.000000"
 preserveAspectRatio="xMidYMid meet">
<metadata>
Created by potrace 1.16, written by Peter Selinger 2001-2019
</metadata>
<g transform="translate(0.000000,106.000000) scale(0.100000,-0.100000)"
fill="#000000" stroke="none">
<path d="M457 675 l5 -85 -81 0 c-80 0 -81 0 -81 -25 0 -25 1 -25 79 -25 l78
0 8 -120 c4 -66 11 -120 16 -120 5 0 9 54 9 120 l0 120 34 0 c31 0 34 -3 40
-37 3 -21 6 -73 6 -115 0 -122 17 -101 25 32 l8 120 38 0 39 0 0 -52 c0 -86
12 -188 21 -182 5 3 9 57 9 120 l0 114 34 0 c33 0 33 -1 40 -52 3 -29 6 -81 6
-115 0 -34 5 -65 10 -68 6 -4 10 14 10 47 0 29 3 83 7 121 6 66 6 67 34 67
l29 0 0 -74 c0 -40 3 -95 7 -122 6 -42 8 -45 14 -24 4 14 7 69 8 123 1 95 1
97 25 97 31 0 36 -15 37 -118 1 -114 13 -149 22 -63 4 35 7 90 7 121 l0 57
197 6 c108 4 253 7 322 8 69 0 149 4 176 8 48 6 45 7 -44 14 -52 4 -185 8
-295 8 -157 1 -190 3 -151 11 203 38 452 92 526 114 14 4 18 -7 23 -68 12
-130 18 -168 27 -168 5 0 9 65 9 145 0 135 -1 145 -19 145 -10 0 -21 -8 -23
-18 -4 -15 -36 -24 -186 -51 -183 -32 -386 -63 -499 -76 l-63 -7 0 76 c0 69
-2 76 -20 76 -18 0 -20 -7 -20 -74 0 -73 -6 -86 -41 -86 -5 0 -9 36 -9 80 0
73 -2 80 -20 80 -18 0 -20 -7 -20 -80 0 -79 0 -80 -25 -80 -25 0 -25 1 -25 80
0 73 -2 80 -20 80 -18 0 -20 -7 -20 -85 l0 -85 -35 0 -35 0 0 85 c0 80 -1 85
-21 85 -21 0 -22 -3 -15 -85 l6 -85 -40 0 -40 0 0 85 c0 78 -2 85 -20 85 -18
0 -20 -7 -20 -85 l0 -85 -35 0 -35 0 0 85 c0 77 -2 85 -19 85 -19 0 -19 -6
-14 -85z"/>
</g>
</svg>
