<?xml version="1.0" standalone="no"?>
<!DOCTYPE svg PUBLIC "-//W3C//DTD SVG 20010904//EN"
 "http://www.w3.org/TR/2001/REC-SVG-20010904/DTD/svg10.dtd">
<svg version="1.0" xmlns="http://www.w3.org/2000/svg"
 width="244.000000pt" height="100.000000pt" viewBox="0 0 244.000000 100.000000"
 preserveAspectRatio="xMidYMid meet">
<metadata>
Created by potrace 1.16, written by Peter Selinger 2001-2019
</metadata>
<g transform="translate(0.000000,100.000000) scale(0.100000,-0.100000)"
fill="#000000" stroke="none">
<path d="M1435 635 c-706 -88 -819 -99 -987 -97 -150 1 -199 -12 -85 -22 34
-4 202 -16 372 -27 890 -59 973 -66 992 -85 17 -16 18 -16 21 -1 4 22 55 23
76 2 17 -18 46 -20 46 -4 0 8 24 9 83 4 l83 -6 -8 83 c-20 190 -20 194 -28
173 -4 -11 -5 -24 -3 -28 3 -4 2 -26 -2 -47 l-7 -40 -59 0 c-45 0 -59 -3 -59
-15 0 -14 42 -14 113 0 14 3 17 -5 17 -52 l0 -56 -66 6 c-37 4 -68 8 -70 9 -1
2 -5 55 -9 120 l-8 116 69 7 c76 8 123 25 64 24 -19 -1 -264 -30 -545 -64z
m395 -90 c0 -124 0 -124 -57 -109 -23 6 -22 4 -37 161 -5 57 -3 60 62 62 l32
1 0 -115z m-112 0 l1 -105 -35 0 c-43 0 -45 20 -1 21 40 2 15 6 -85 14 l-78 7
0 34 0 34 89 0 c50 0 93 5 96 10 4 6 -21 10 -69 10 -41 0 -86 4 -100 10 -37
14 -33 38 7 44 37 7 147 23 163 25 7 1 11 -35 12 -104z m-218 41 c0 -75 -12
-126 -30 -126 -15 0 -18 12 -22 73 -5 74 1 87 35 87 13 0 17 -8 17 -34z m-70
-13 c0 -21 -3 -54 -6 -73 l-6 -35 -121 10 c-117 10 -121 11 -128 35 -18 66
-19 65 109 82 64 8 125 16 135 17 13 1 17 -7 17 -36z m-290 -43 c0 -38 -2 -40
-30 -40 -23 0 -31 5 -36 25 -9 38 2 55 36 55 28 0 30 -2 30 -40z m-92 -2 c-2
-18 -6 -32 -11 -32 -4 1 -69 5 -145 9 -75 3 -144 9 -152 12 -8 3 48 14 125 23
202 25 187 26 183 -12z"/>
<path d="M1180 524 c0 -15 9 -16 68 -11 37 4 88 7 115 7 26 0 47 5 47 10 0 6
-45 10 -115 10 -100 0 -115 -2 -115 -16z"/>
<path d="M2030 604 c0 -14 7 -15 38 -10 20 3 45 6 55 6 9 0 17 5 17 10 0 6
-25 10 -55 10 -44 0 -55 -3 -55 -16z"/>
<path d="M2040 515 c0 -17 8 -18 63 -9 53 9 46 24 -13 24 -38 0 -50 -4 -50
-15z"/>
<path d="M550 469 c0 -43 25 -103 56 -135 27 -29 38 -34 78 -34 36 0 52 6 76
28 33 29 56 98 44 134 -5 16 -10 9 -24 -33 -28 -81 -68 -104 -135 -79 -29 11
-55 63 -55 110 0 23 -4 30 -20 30 -14 0 -20 -7 -20 -21z"/>
</g>
</svg>
