<?xml version="1.0" standalone="no"?>
<!DOCTYPE svg PUBLIC "-//W3C//DTD SVG 20010904//EN"
 "http://www.w3.org/TR/2001/REC-SVG-20010904/DTD/svg10.dtd">
<svg version="1.0" xmlns="http://www.w3.org/2000/svg"
 width="204.000000pt" height="130.000000pt" viewBox="0 0 204.000000 130.000000"
 preserveAspectRatio="xMidYMid meet">
<metadata>
Created by potrace 1.16, written by Peter Selinger 2001-2019
</metadata>
<g transform="translate(0.000000,130.000000) scale(0.100000,-0.100000)"
fill="#000000" stroke="none">
<path d="M450 870 l0 -130 -75 0 -75 0 0 -30 0 -30 80 0 80 0 0 -98 c0 -134
11 -282 21 -282 5 0 10 87 11 193 l3 192 31 3 c31 3 31 2 37 -50 4 -29 7 -96
8 -148 1 -136 14 -156 22 -35 4 55 7 131 7 168 l0 68 38 -3 37 -3 6 -110 c4
-60 7 -131 8 -157 0 -27 6 -48 11 -48 6 0 10 60 10 160 l0 160 34 0 33 0 7
-77 c3 -42 6 -113 6 -159 0 -46 5 -86 10 -89 6 -4 10 14 10 47 0 29 3 104 7
166 l6 112 142 0 c273 0 775 13 775 21 0 7 -278 16 -680 22 l-235 4 -3 111
c-2 103 -4 112 -22 112 -18 0 -20 -9 -22 -112 -3 -122 0 -116 -58 -109 -6 1
-10 45 -10 111 0 106 -1 110 -22 110 -21 0 -21 -2 -15 -110 6 -100 5 -110 -11
-111 -9 0 -27 -2 -39 -3 -23 -3 -23 -1 -23 111 0 106 -1 113 -20 113 -19 0
-20 -7 -20 -110 l0 -110 -36 0 -36 0 4 130 c3 129 3 130 -19 130 -23 0 -23 -2
-23 -130z"/>
</g>
</svg>
