<?xml version="1.0" standalone="no"?>
<!DOCTYPE svg PUBLIC "-//W3C//DTD SVG 20010904//EN"
 "http://www.w3.org/TR/2001/REC-SVG-20010904/DTD/svg10.dtd">
<svg version="1.0" xmlns="http://www.w3.org/2000/svg"
 width="210.000000pt" height="360.000000pt" viewBox="0 0 210.000000 360.000000"
 preserveAspectRatio="xMidYMid meet">
<metadata>
Created by potrace 1.16, written by Peter Selinger 2001-2019
</metadata>
<g transform="translate(0.000000,360.000000) scale(0.100000,-0.100000)"
fill="#000000" stroke="none">
<path d="M420 3278 c-67 -46 -77 -143 -20 -200 l28 -28 -64 0 c-61 0 -64 -1
-64 -24 l0 -24 153 -6 c83 -3 181 -8 217 -11 36 -3 135 -10 220 -16 85 -6 312
-30 505 -54 192 -24 351 -43 352 -41 2 1 4 45 6 97 l2 94 -135 0 c-74 0 -270
-4 -435 -8 -290 -8 -299 -8 -279 10 27 22 54 75 54 103 0 37 -32 91 -64 111
-49 30 -108 25 -150 -12 -62 -54 -66 -136 -10 -193 l27 -26 -103 0 -102 0 31
35 c26 30 31 44 31 85 0 43 -5 56 -33 86 -28 30 -42 37 -83 41 -40 4 -55 0
-84 -19z m1304 -299 c4 -44 6 -82 4 -84 -2 -2 -93 12 -203 31 -110 19 -267 43
-350 55 -82 11 -151 22 -153 23 -1 2 64 6 145 10 82 4 229 16 328 25 99 10
190 19 201 20 20 1 22 -6 28 -80z"/>
<path d="M445 2501 c-32 -14 -73 -60 -80 -92 -9 -41 2 -84 32 -119 l25 -30
-61 0 -61 0 0 -30 c0 -29 1 -30 51 -30 l50 0 -20 -26 c-15 -19 -21 -41 -21
-75 0 -42 5 -55 33 -85 28 -31 41 -37 83 -41 61 -5 108 21 130 72 19 46 18 73
-5 117 -18 36 -18 36 3 42 12 3 47 6 78 6 l57 0 -24 -36 c-80 -118 58 -260
176 -181 64 43 78 117 34 181 l-25 36 158 -5 c86 -3 258 -10 382 -16 124 -6
254 -11 290 -12 l65 -2 3 84 c2 46 -1 87 -5 91 -9 8 -346 -20 -586 -49 -89
-11 -193 -23 -231 -27 l-69 -7 24 33 c48 65 25 152 -52 194 -120 66 -243 -103
-149 -204 l27 -29 -99 -3 c-54 -2 -98 0 -98 5 0 4 4 7 9 7 18 0 51 68 51 106
0 91 -94 158 -175 125z m1329 -213 c10 -89 9 -98 -16 -98 -61 1 -68 8 -68 76
0 68 -4 63 66 73 6 0 14 -22 18 -51z m-112 -29 l3 -60 -55 6 c-110 12 -396 35
-450 36 l-55 1 40 9 c52 12 441 66 482 68 l31 1 4 -61z"/>
<path d="M1590 1500 c-311 -61 -556 -92 -830 -106 l-136 -7 -16 41 c-22 57
-68 84 -132 79 -42 -4 -55 -10 -83 -41 -18 -19 -33 -45 -33 -56 0 -16 -7 -20
-30 -20 -25 0 -30 -4 -30 -25 0 -20 5 -25 26 -25 18 0 38 -13 63 -41 30 -34
44 -42 82 -46 55 -6 103 15 127 56 l16 28 465 7 c256 3 511 10 566 14 l100 7
-60 6 c-33 4 -163 7 -289 8 -126 1 -227 3 -225 6 3 2 68 16 145 30 76 14 203
41 282 60 79 19 148 35 153 35 5 0 9 -24 9 -52 0 -70 10 -129 21 -122 5 3 9
48 9 100 l0 94 -27 -1 c-16 -1 -93 -14 -173 -29z"/>
<path d="M419 801 c-33 -32 -39 -45 -39 -80 0 -48 20 -92 52 -116 22 -16 19
-17 -54 -11 l-78 7 0 -31 0 -30 61 0 60 0 -21 -30 c-29 -41 -35 -88 -17 -133
36 -85 150 -103 214 -33 28 30 33 43 33 85 0 34 -6 56 -22 76 l-21 28 179 -7
c98 -3 232 -9 296 -12 l117 -6 -20 -39 c-26 -51 -6 -50 26 1 24 39 27 40 80
40 30 0 55 -3 55 -7 0 -5 -9 -23 -20 -41 -28 -46 -5 -40 28 8 l27 39 93 1 c50
0 92 -3 92 -7 -1 -5 -7 -19 -15 -33 -8 -14 -14 -29 -15 -34 0 -15 49 35 56 56
4 14 16 18 55 18 l51 0 -23 -36 c-28 -46 -4 -42 26 3 17 27 27 32 70 35 l50 3
3 93 3 92 -38 -5 c-21 -3 -99 -10 -173 -15 -74 -6 -229 -22 -345 -35 -209 -24
-361 -38 -568 -51 l-107 -6 30 32 c54 58 52 130 -5 187 -29 29 -39 33 -85 33
-47 0 -56 -4 -91 -39z m1355 -173 c11 -99 12 -98 -39 -98 l-45 0 0 69 c0 76
-5 70 66 80 6 0 14 -22 18 -51z m-114 -17 c0 -27 3 -56 6 -65 5 -13 -3 -16
-50 -16 l-56 0 0 59 c0 65 2 66 73 70 26 1 27 -1 27 -48z m-120 -22 c0 -59 -1
-61 -22 -55 -13 3 -55 6 -94 6 l-71 0 1 40 c1 36 4 40 31 45 24 4 81 14 148
24 4 0 7 -27 7 -60z m-210 -9 l0 -40 -44 0 c-64 0 -75 6 -67 38 7 26 20 32 99
41 8 1 12 -13 12 -39z m-140 -5 c0 -25 -1 -25 -77 -24 -120 2 -279 15 -218 18
40 2 146 13 283 30 7 0 12 -10 12 -24z"/>
</g>
</svg>
