<?xml version="1.0" standalone="no"?>
<!DOCTYPE svg PUBLIC "-//W3C//DTD SVG 20010904//EN"
 "http://www.w3.org/TR/2001/REC-SVG-20010904/DTD/svg10.dtd">
<svg version="1.0" xmlns="http://www.w3.org/2000/svg"
 width="168.000000pt" height="156.000000pt" viewBox="0 0 168.000000 156.000000"
 preserveAspectRatio="xMidYMid meet">
<metadata>
Created by potrace 1.16, written by Peter Selinger 2001-2019
</metadata>
<g transform="translate(0.000000,156.000000) scale(0.100000,-0.100000)"
fill="#000000" stroke="none">
<path d="M675 1168 c7 -117 25 -535 31 -692 4 -116 12 -156 23 -124 3 9 150
112 325 230 176 117 321 218 323 224 2 6 -21 27 -51 47 -37 24 -54 42 -50 51
4 10 0 13 -13 10 -12 -3 -54 20 -118 64 -192 132 -432 282 -453 282 -21 0 -21
-3 -17 -92z m135 -33 c12 -14 34 -455 23 -464 -4 -4 -29 -20 -55 -35 l-48 -27
0 193 c0 106 -3 238 -7 292 l-6 99 42 -24 c23 -13 46 -28 51 -34z m146 -87
c38 -24 111 -68 162 -98 50 -30 92 -57 92 -60 0 -6 -331 -192 -335 -188 -1 2
-5 92 -7 201 -4 152 -2 197 7 193 7 -2 43 -24 81 -48z m344 -204 l61 -36 -143
-82 c-79 -46 -188 -111 -243 -144 l-100 -62 -3 62 c-2 35 1 64 6 66 5 1 87 54
183 116 96 63 175 115 176 115 1 1 29 -15 63 -35z m-467 -349 c-13 -11 -41
-30 -63 -43 l-40 -23 0 64 0 64 58 36 57 36 5 -57 c5 -50 3 -59 -17 -77z"/>
<path d="M496 761 c-194 -97 -206 -105 -189 -122 6 -6 9 -17 7 -24 -3 -8 67
-65 183 -147 222 -159 247 -176 242 -161 -4 12 -163 141 -317 257 l-92 70 63
34 c168 93 287 165 287 173 0 5 -1 9 -3 9 -1 0 -83 -40 -181 -89z"/>
</g>
</svg>
