<?xml version="1.0" standalone="no"?>
<!DOCTYPE svg PUBLIC "-//W3C//DTD SVG 20010904//EN"
 "http://www.w3.org/TR/2001/REC-SVG-20010904/DTD/svg10.dtd">
<svg version="1.0" xmlns="http://www.w3.org/2000/svg"
 width="168.000000pt" height="152.000000pt" viewBox="0 0 168.000000 152.000000"
 preserveAspectRatio="xMidYMid meet">
<metadata>
Created by potrace 1.16, written by Peter Selinger 2001-2019
</metadata>
<g transform="translate(0.000000,152.000000) scale(0.100000,-0.100000)"
fill="#000000" stroke="none">
<path d="M675 1143 c3 -43 10 -195 16 -338 6 -143 14 -313 17 -378 4 -64 5
-117 2 -117 -13 0 -240 136 -277 167 -24 19 -57 54 -73 78 l-30 44 52 40 c43
32 236 134 290 154 7 2 10 7 7 11 -3 3 -39 -5 -80 -19 -146 -50 -304 -145
-292 -175 3 -8 5 -25 5 -37 -1 -14 20 -44 61 -85 51 -52 85 -75 188 -126 132
-65 153 -71 166 -48 4 7 60 39 123 71 141 70 217 115 295 174 82 62 235 200
235 212 0 13 -230 195 -330 261 -121 79 -327 188 -356 188 -24 0 -24 0 -19
-77z m174 -50 c130 -69 511 -310 510 -323 0 -7 -136 -106 -254 -185 -93 -62
-361 -203 -369 -194 -9 9 -11 759 -2 759 5 0 57 -26 115 -57z"/>
</g>
</svg>
