<?xml version="1.0" standalone="no"?>
<!DOCTYPE svg PUBLIC "-//W3C//DTD SVG 20010904//EN"
 "http://www.w3.org/TR/2001/REC-SVG-20010904/DTD/svg10.dtd">
<svg version="1.0" xmlns="http://www.w3.org/2000/svg"
 width="94.000000pt" height="164.000000pt" viewBox="0 0 94.000000 164.000000"
 preserveAspectRatio="xMidYMid meet">
<metadata>
Created by potrace 1.16, written by Peter Selinger 2001-2019
</metadata>
<g transform="translate(0.000000,164.000000) scale(0.100000,-0.100000)"
fill="#000000" stroke="none">
<path d="M304 873 c4 -258 11 -493 14 -523 l7 -55 8 49 c4 27 7 112 7 189 l0
140 138 141 c75 77 144 146 152 153 13 10 13 14 -3 30 -18 17 -21 15 -103 -70
-46 -48 -103 -113 -127 -144 l-42 -56 -3 306 -2 307 -27 0 -26 0 7 -467z"/>
</g>
</svg>
