<?xml version="1.0" standalone="no"?>
<!DOCTYPE svg PUBLIC "-//W3C//DTD SVG 20010904//EN"
 "http://www.w3.org/TR/2001/REC-SVG-20010904/DTD/svg10.dtd">
<svg version="1.0" xmlns="http://www.w3.org/2000/svg"
 width="134.000000pt" height="135.000000pt" viewBox="0 0 134.000000 135.000000"
 preserveAspectRatio="xMidYMid meet">
<metadata>
Created by potrace 1.16, written by Peter Selinger 2001-2019
</metadata>
<g transform="translate(0.000000,135.000000) scale(0.100000,-0.100000)"
fill="#000000" stroke="none">
<path d="M557 1036 c-22 -8 -50 -25 -64 -37 -28 -27 -90 -149 -99 -197 -12
-58 23 -27 46 42 29 88 77 142 143 160 64 18 214 31 262 22 31 -6 36 -11 41
-47 4 -25 16 -47 34 -62 l27 -23 -33 -22 c-19 -12 -36 -33 -40 -47 -7 -30 18
-75 47 -82 48 -13 7 -83 -71 -123 -80 -40 -104 -43 -208 -25 -53 9 -101 20
-108 26 -7 6 -17 2 -30 -13 -36 -41 -106 -78 -147 -78 -26 0 -37 -4 -35 -12
12 -36 105 -11 164 44 24 22 44 36 44 30 0 -6 25 -14 55 -17 37 -5 55 -12 55
-21 0 -27 110 -233 130 -244 35 -19 270 114 270 153 0 5 -24 49 -54 97 -53 86
-53 86 -35 109 11 13 19 38 19 57 0 30 -3 34 -25 34 -17 0 -29 8 -37 24 -14
32 -5 53 32 74 45 26 58 113 24 159 l-20 26 -174 4 c-134 2 -184 0 -213 -11z
m385 -33 c11 -9 18 -30 18 -50 0 -30 -2 -33 -19 -24 -17 9 -41 58 -41 82 0 14
22 10 42 -8z m-7 -415 c15 -24 43 -62 62 -85 l34 -42 -43 -27 c-50 -32 -216
-109 -222 -103 -10 11 -96 223 -92 226 3 3 19 2 36 -2 31 -7 32 -8 27 -51 -6
-55 7 -58 21 -5 6 27 6 43 -1 50 -8 8 -5 11 9 11 11 0 44 15 74 34 30 19 58
34 61 35 4 1 19 -18 34 -41z"/>
<path d="M906 534 c-10 -25 -7 -79 3 -68 14 14 25 84 13 84 -5 0 -13 -7 -16
-16z"/>
<path d="M798 479 c-2 -22 0 -43 4 -45 4 -3 8 -2 8 3 0 4 4 25 9 46 7 28 6 37
-4 37 -8 0 -14 -16 -17 -41z"/>
<path d="M573 934 c-57 -28 -41 -103 22 -104 33 0 47 15 55 59 10 56 -1 61
-20 9 -13 -35 -20 -43 -40 -43 -18 0 -26 6 -28 22 -3 17 6 28 32 44 20 12 36
23 36 25 0 9 -26 3 -57 -12z"/>
<path d="M382 728 c-30 -32 -82 -134 -82 -163 0 -8 7 -15 15 -15 8 0 15 8 15
18 0 24 46 120 76 159 32 42 17 43 -24 1z"/>
<path d="M637 723 c-4 -3 -7 -25 -7 -47 1 -45 13 -35 25 22 6 30 -2 41 -18 25z"/>
<path d="M568 683 c-8 -62 8 -60 22 1 6 27 5 36 -5 36 -7 0 -15 -16 -17 -37z"/>
<path d="M717 678 c-6 -42 -3 -57 9 -45 11 11 17 87 7 87 -6 0 -13 -19 -16
-42z"/>
</g>
</svg>
