<?xml version="1.0" standalone="no"?>
<!DOCTYPE svg PUBLIC "-//W3C//DTD SVG 20010904//EN"
 "http://www.w3.org/TR/2001/REC-SVG-20010904/DTD/svg10.dtd">
<svg version="1.0" xmlns="http://www.w3.org/2000/svg"
 width="158.000000pt" height="161.000000pt" viewBox="0 0 158.000000 161.000000"
 preserveAspectRatio="xMidYMid meet">
<metadata>
Created by potrace 1.16, written by Peter Selinger 2001-2019
</metadata>
<g transform="translate(0.000000,161.000000) scale(0.100000,-0.100000)"
fill="#000000" stroke="none">
<path d="M1000 1303 c-179 -19 -274 -37 -365 -67 -143 -48 -233 -96 -282 -149
-57 -62 -62 -95 -28 -204 25 -80 27 -97 21 -186 -3 -53 -7 -103 -9 -110 -1 -6
5 -12 13 -12 21 0 32 66 28 175 -3 80 -8 102 -30 143 -26 46 -26 49 -12 97 20
68 64 115 145 155 79 40 297 117 310 110 4 -3 64 1 131 9 68 8 166 18 218 22
148 11 159 22 20 22 -69 -1 -141 -3 -160 -5z"/>
<path d="M1195 1254 c-58 -32 -131 -64 -262 -115 -35 -13 -63 -29 -63 -36 0
-19 6 -17 112 25 87 35 298 147 298 158 0 10 -29 -1 -85 -32z"/>
<path d="M760 1130 c0 -12 49 -45 56 -37 7 7 -32 47 -46 47 -5 0 -10 -4 -10
-10z"/>
<path d="M834 1079 c-8 -13 33 -48 96 -81 25 -12 46 -23 46 -23 1 0 -6 -32
-16 -71 -28 -108 -27 -109 64 -109 l78 0 -7 -55 c-19 -152 -66 -270 -145 -367
l-50 -62 -27 25 c-31 28 -164 110 -235 145 -44 21 -74 21 -52 0 17 -17 314
-181 328 -181 18 0 110 116 141 178 32 64 52 160 57 268 l3 80 -40 -7 c-22 -5
-55 -6 -72 -2 -38 6 -40 17 -19 86 7 25 11 49 8 52 -4 3 0 10 7 14 12 8 -42
50 -146 114 -6 4 -15 2 -19 -4z"/>
<path d="M787 894 c-8 -8 44 -51 77 -64 52 -19 61 -9 13 16 -26 14 -50 31 -54
39 -5 15 -25 20 -36 9z"/>
<path d="M420 831 c0 -14 74 -60 108 -67 45 -9 40 2 -10 24 -24 10 -49 26 -57
35 -14 18 -41 23 -41 8z"/>
<path d="M612 812 c-8 -2 -12 -26 -12 -65 1 -110 22 -165 83 -211 15 -11 29
-17 33 -14 8 9 -42 187 -69 245 -13 28 -28 48 -35 45z m53 -157 c14 -44 29
-87 32 -95 9 -24 -37 21 -52 50 -13 27 -27 146 -15 133 4 -4 20 -44 35 -88z"/>
<path d="M870 782 c0 -22 90 -76 116 -70 9 2 -7 18 -40 41 -56 37 -76 45 -76
29z"/>
<path d="M442 711 c-14 -9 41 -52 91 -70 34 -13 37 -13 37 -2 0 5 -14 14 -32
20 -18 6 -44 22 -58 36 -16 15 -30 21 -38 16z"/>
<path d="M860 620 c0 -5 17 -21 38 -34 44 -29 92 -43 92 -27 0 6 -6 11 -13 11
-7 0 -28 13 -47 30 -35 29 -70 39 -70 20z"/>
<path d="M563 570 c-22 -25 -51 -45 -85 -58 -58 -21 -81 -50 -32 -38 57 14
119 51 137 83 28 49 16 57 -20 13z"/>
<path d="M800 520 c0 -13 69 -57 103 -65 38 -10 34 1 -11 24 -21 11 -44 27
-51 35 -15 18 -41 22 -41 6z"/>
</g>
</svg>
