<?xml version="1.0" standalone="no"?>
<!DOCTYPE svg PUBLIC "-//W3C//DTD SVG 20010904//EN"
 "http://www.w3.org/TR/2001/REC-SVG-20010904/DTD/svg10.dtd">
<svg version="1.0" xmlns="http://www.w3.org/2000/svg"
 width="139.000000pt" height="146.000000pt" viewBox="0 0 139.000000 146.000000"
 preserveAspectRatio="xMidYMid meet">
<metadata>
Created by potrace 1.16, written by Peter Selinger 2001-2019
</metadata>
<g transform="translate(0.000000,146.000000) scale(0.100000,-0.100000)"
fill="#000000" stroke="none">
<path d="M568 1137 c-95 -40 -162 -82 -186 -117 -44 -65 -76 -186 -76 -290 -1
-84 2 -102 27 -155 16 -33 56 -97 90 -142 54 -71 69 -85 117 -104 32 -12 87
-24 131 -26 67 -5 84 -2 132 20 86 39 204 123 210 149 3 13 22 68 41 123 44
124 47 190 11 303 -19 59 -30 81 -45 85 -11 3 -20 3 -20 1 0 -2 12 -39 26 -81
23 -67 26 -90 21 -163 -3 -51 -16 -125 -34 -185 l-29 -100 -80 -42 c-121 -65
-172 -79 -241 -66 -32 6 -90 23 -129 38 -70 28 -71 28 -112 105 -53 98 -76
187 -68 261 7 72 50 209 75 241 26 33 125 84 199 103 53 14 68 14 131 1 39 -8
110 -33 157 -56 48 -22 89 -38 91 -36 8 7 -104 80 -177 115 -99 47 -179 53
-262 18z"/>
<path d="M608 870 c-105 -57 -114 -210 -15 -281 53 -38 136 -41 188 -6 39 26
79 97 79 142 -1 45 -34 109 -71 135 -45 33 -130 38 -181 10z"/>
</g>
</svg>
