<?xml version="1.0" standalone="no"?>
<!DOCTYPE svg PUBLIC "-//W3C//DTD SVG 20010904//EN"
 "http://www.w3.org/TR/2001/REC-SVG-20010904/DTD/svg10.dtd">
<svg version="1.0" xmlns="http://www.w3.org/2000/svg"
 width="146.000000pt" height="152.000000pt" viewBox="0 0 146.000000 152.000000"
 preserveAspectRatio="xMidYMid meet">
<metadata>
Created by potrace 1.16, written by Peter Selinger 2001-2019
</metadata>
<g transform="translate(0.000000,152.000000) scale(0.100000,-0.100000)"
fill="#000000" stroke="none">
<path d="M605 1203 c4 -10 14 -60 23 -112 13 -80 14 -110 4 -202 -7 -60 -20
-125 -30 -144 l-17 -36 -70 7 c-67 6 -73 9 -132 61 -34 30 -67 52 -73 48 -17
-11 -9 -21 49 -65 l55 -40 -52 0 c-48 0 -52 -2 -52 -24 0 -22 3 -24 43 -19
l42 4 -23 -20 c-13 -11 -36 -29 -50 -40 -21 -16 -24 -22 -15 -32 10 -10 24 -2
70 38 55 47 61 50 129 56 l72 6 6 -52 c10 -73 77 -337 86 -337 4 0 -6 73 -21
163 -16 89 -29 176 -29 194 0 17 12 80 27 140 30 124 35 248 14 356 -12 61
-15 67 -38 67 -20 0 -24 -4 -18 -17z"/>
<path d="M820 1216 c0 -3 7 -35 16 -73 27 -112 16 -373 -17 -394 -6 -3 -13
-30 -16 -60 -4 -42 3 -89 32 -209 58 -240 72 -246 30 -14 -30 168 -31 216 -5
314 12 41 23 116 27 166 l6 91 66 -5 c62 -5 70 -8 124 -55 46 -40 60 -48 70
-38 9 10 7 16 -13 29 -13 10 -36 27 -50 40 l-25 22 43 -6 c40 -6 42 -6 42 20
0 25 -3 26 -52 26 l-52 0 55 40 c58 44 66 54 49 65 -6 4 -39 -18 -73 -48 -56
-49 -68 -55 -123 -62 l-61 -7 -7 44 c-14 88 -26 118 -46 118 -11 0 -20 -2 -20
-4z"/>
</g>
</svg>
