<?xml version="1.0" standalone="no"?>
<!DOCTYPE svg PUBLIC "-//W3C//DTD SVG 20010904//EN"
 "http://www.w3.org/TR/2001/REC-SVG-20010904/DTD/svg10.dtd">
<svg version="1.0" xmlns="http://www.w3.org/2000/svg"
 width="117.000000pt" height="152.000000pt" viewBox="0 0 117.000000 152.000000"
 preserveAspectRatio="xMidYMid meet">
<metadata>
Created by potrace 1.16, written by Peter Selinger 2001-2019
</metadata>
<g transform="translate(0.000000,152.000000) scale(0.100000,-0.100000)"
fill="#000000" stroke="none">
<path d="M450 1213 c0 -4 4 -24 10 -43 17 -60 30 -193 24 -242 l-7 -48 -57 0
c-55 0 -59 2 -68 29 l-10 29 64 7 c80 8 74 25 -9 25 l-62 1 35 32 c20 17 51
44 70 59 26 19 32 29 24 38 -16 16 -118 -70 -144 -121 -18 -34 -19 -42 -6 -62
7 -12 21 -43 31 -69 10 -26 33 -66 53 -89 31 -36 35 -47 33 -88 -1 -28 12
-105 34 -191 58 -236 71 -242 30 -14 -30 168 -31 217 -4 314 27 99 35 282 17
370 -12 54 -17 66 -36 68 -12 2 -22 0 -22 -5z m18 -405 c-6 -29 -15 -56 -21
-60 -13 -8 -80 89 -71 104 3 4 27 8 53 8 l48 0 -9 -52z"/>
<path d="M670 1212 c0 -4 7 -39 15 -77 26 -122 15 -323 -20 -391 -24 -46 -18
-123 21 -282 47 -188 71 -218 35 -42 -6 31 -3 37 35 72 24 22 51 60 63 91 12
28 28 65 36 80 13 26 13 32 -4 65 -10 20 -42 56 -70 80 l-50 42 6 98 c5 86 -5
192 -23 255 -5 16 -44 25 -44 9z m158 -485 c8 -10 6 -28 -10 -70 l-21 -57 -52
0 c-50 0 -53 1 -58 30 -10 46 0 60 43 60 21 0 52 3 71 7 28 5 30 7 14 14 -11
4 -44 8 -72 8 -29 1 -53 3 -53 5 0 1 5 18 11 37 6 19 13 40 15 47 3 10 19 1
53 -27 26 -22 53 -46 59 -54z m-44 -159 c-4 -7 -21 -33 -38 -58 -33 -49 -32
-49 -49 38 l-6 32 50 0 c37 0 48 -3 43 -12z"/>
</g>
</svg>
