<?xml version="1.0" standalone="no"?>
<!DOCTYPE svg PUBLIC "-//W3C//DTD SVG 20010904//EN"
 "http://www.w3.org/TR/2001/REC-SVG-20010904/DTD/svg10.dtd">
<svg version="1.0" xmlns="http://www.w3.org/2000/svg"
 width="202.000000pt" height="134.000000pt" viewBox="0 0 202.000000 134.000000"
 preserveAspectRatio="xMidYMid meet">
<metadata>
Created by potrace 1.16, written by Peter Selinger 2001-2019
</metadata>
<g transform="translate(0.000000,134.000000) scale(0.100000,-0.100000)"
fill="#000000" stroke="none">
<path d="M555 985 c-44 -30 -84 -54 -89 -54 -5 -1 -34 17 -64 40 -41 31 -57
38 -65 29 -12 -12 3 -29 66 -75 l28 -20 -66 -40 c-69 -43 -69 -43 -56 -63 6
-11 24 -3 80 33 l71 48 79 -52 80 -53 7 -65 c5 -49 3 -68 -7 -77 -21 -19 -147
-96 -157 -96 -5 0 -33 19 -61 41 -46 36 -54 40 -67 27 -12 -12 -7 -19 42 -55
l56 -41 -66 -39 c-70 -41 -70 -41 -57 -62 7 -12 23 -5 80 34 l70 48 98 -65
c54 -36 100 -62 103 -57 3 5 42 30 85 56 79 48 81 48 156 45 l77 -3 6 -71 c13
-127 33 -122 35 8 l1 61 228 7 c319 9 472 17 472 26 0 9 -414 21 -682 20
l-207 -2 -68 49 c-119 83 -110 70 -105 140 l4 62 77 45 78 45 304 5 c370 7
599 17 599 26 0 10 -318 20 -627 20 l-263 0 -94 65 c-52 36 -95 65 -97 64 -2
0 -40 -25 -84 -54z m166 -40 l90 -54 -73 -37 c-40 -21 -83 -37 -95 -35 -13 1
-23 -3 -23 -9 0 -10 -114 73 -126 91 -4 7 114 99 128 99 5 0 49 -25 99 -55z
m-10 -386 c94 -56 110 -69 88 -69 -7 0 -49 -20 -92 -45 l-79 -45 -69 57 c-38
30 -68 57 -66 60 13 12 123 93 128 93 3 0 44 -23 90 -51z"/>
</g>
</svg>
