<?xml version="1.0" standalone="no"?>
<!DOCTYPE svg PUBLIC "-//W3C//DTD SVG 20010904//EN"
 "http://www.w3.org/TR/2001/REC-SVG-20010904/DTD/svg10.dtd">
<svg version="1.0" xmlns="http://www.w3.org/2000/svg"
 width="180.000000pt" height="115.000000pt" viewBox="0 0 180.000000 115.000000"
 preserveAspectRatio="xMidYMid meet">
<metadata>
Created by potrace 1.16, written by Peter Selinger 2001-2019
</metadata>
<g transform="translate(0.000000,115.000000) scale(0.100000,-0.100000)"
fill="#000000" stroke="none">
<path d="M545 821 c-22 -15 -56 -37 -75 -49 l-36 -21 -46 39 c-38 33 -48 37
-57 26 -10 -12 -3 -21 32 -48 l45 -34 -54 -35 c-30 -19 -54 -37 -54 -41 0 -22
28 -16 75 16 30 20 57 36 60 36 3 0 39 -22 80 -50 41 -27 77 -50 79 -50 3 0
36 20 73 43 l68 44 379 6 c208 3 381 8 384 11 3 3 3 8 0 11 -3 3 -175 9 -382
12 l-376 6 -75 54 c-41 29 -76 53 -78 53 -1 -1 -20 -13 -42 -29z m119 -60 c58
-33 66 -42 50 -48 -10 -4 -45 -22 -77 -40 l-59 -33 -59 47 c-33 25 -58 47 -57
49 38 35 114 81 122 74 6 -5 42 -27 80 -49z"/>
<path d="M512 484 c-44 -28 -76 -43 -84 -38 -7 4 -30 21 -50 37 -33 26 -58 30
-58 8 0 -5 18 -21 40 -36 22 -15 40 -31 40 -36 0 -4 -22 -21 -50 -38 -34 -21
-48 -35 -44 -46 8 -20 10 -20 63 18 25 18 51 36 57 40 6 3 43 -16 84 -43 40
-28 77 -50 82 -50 5 0 40 18 77 39 l67 39 314 6 c173 4 347 9 385 13 l70 7
-45 7 c-25 4 -196 8 -380 10 l-335 4 -74 52 c-40 29 -76 53 -80 53 -4 0 -40
-21 -79 -46z m139 -30 l78 -46 -78 -41 -78 -41 -56 46 -56 46 52 40 c29 23 54
41 56 41 2 1 39 -20 82 -45z"/>
</g>
</svg>
