<?xml version="1.0" standalone="no"?>
<!DOCTYPE svg PUBLIC "-//W3C//DTD SVG 20010904//EN"
 "http://www.w3.org/TR/2001/REC-SVG-20010904/DTD/svg10.dtd">
<svg version="1.0" xmlns="http://www.w3.org/2000/svg"
 width="111.000000pt" height="304.000000pt" viewBox="0 0 111.000000 304.000000"
 preserveAspectRatio="xMidYMid meet">
<metadata>
Created by potrace 1.16, written by Peter Selinger 2001-2019
</metadata>
<g transform="translate(0.000000,304.000000) scale(0.100000,-0.100000)"
fill="#000000" stroke="none">
<path d="M370 2684 c-36 -31 -66 -57 -68 -59 -1 -1 27 -62 62 -136 86 -180
119 -279 119 -354 -1 -74 -52 -234 -123 -384 -28 -57 -50 -109 -50 -115 0 -7
38 -21 84 -32 l84 -20 53 73 c133 180 199 322 207 443 5 93 -23 185 -105 340
-60 115 -178 300 -190 300 -5 0 -37 -25 -73 -56z m121 -81 c87 -134 163 -284
190 -372 47 -159 5 -311 -153 -548 -27 -40 -52 -73 -56 -73 -5 0 -38 10 -74
23 l-66 22 40 70 c92 158 148 318 148 416 0 83 -52 226 -142 398 l-39 74 42
43 c24 24 44 44 45 44 1 0 30 -44 65 -97z"/>
<path d="M446 1404 c-36 -30 -66 -56 -66 -58 0 -1 20 -38 45 -82 25 -43 60
-112 77 -154 29 -66 33 -86 33 -165 0 -79 -4 -99 -32 -162 -17 -39 -48 -97
-68 -128 l-36 -57 24 -51 c23 -51 23 -53 6 -102 -9 -27 -20 -64 -23 -82 l-7
-31 70 -16 c72 -16 109 -20 99 -10 -4 3 20 42 53 87 140 196 189 312 189 447
0 106 -18 167 -91 310 -56 110 -184 310 -198 310 -5 0 -39 -25 -75 -56z m119
-71 c79 -119 169 -293 194 -377 36 -118 24 -215 -44 -362 -29 -65 -158 -274
-168 -274 -10 0 -103 34 -110 40 -7 6 11 64 33 102 7 13 3 36 -15 83 l-25 66
55 90 c70 116 99 204 92 274 -6 63 -49 171 -110 280 l-44 80 36 42 c20 23 39
42 42 43 3 0 32 -39 64 -87z"/>
</g>
</svg>
