<?xml version="1.0" standalone="no"?>
<!DOCTYPE svg PUBLIC "-//W3C//DTD SVG 20010904//EN"
 "http://www.w3.org/TR/2001/REC-SVG-20010904/DTD/svg10.dtd">
<svg version="1.0" xmlns="http://www.w3.org/2000/svg"
 width="160.000000pt" height="315.000000pt" viewBox="0 0 160.000000 315.000000"
 preserveAspectRatio="xMidYMid meet">
<metadata>
Created by potrace 1.16, written by Peter Selinger 2001-2019
</metadata>
<g transform="translate(0.000000,315.000000) scale(0.100000,-0.100000)"
fill="#000000" stroke="none">
<path d="M760 2840 c0 -5 -8 -10 -18 -10 -25 0 -318 -284 -342 -331 -50 -98
-8 -193 138 -311 19 -15 31 -16 104 -7 109 13 107 12 223 70 75 37 129 56 218
74 66 14 132 26 147 28 31 2 34 5 27 27 -3 8 -10 37 -17 64 -14 63 -47 126
-64 126 -8 0 -42 -13 -77 -30 -35 -16 -77 -32 -94 -36 l-30 -6 0 79 0 78 -40
3 c-22 1 -59 4 -82 7 l-41 6 -8 82 c-4 45 -7 85 -6 90 1 4 -7 7 -18 7 -11 0
-20 -4 -20 -10z m20 -110 c20 -89 31 -100 99 -100 52 0 59 -2 65 -22 15 -56 0
-118 -29 -118 -20 0 -29 -19 -16 -34 7 -9 6 -19 -5 -34 -24 -34 -4 -26 32 13
19 21 41 35 55 35 13 0 59 18 101 40 l78 40 16 -25 c9 -14 27 -54 40 -89 l23
-63 -108 -12 c-140 -15 -203 -32 -301 -81 -78 -39 -258 -87 -287 -76 -26 10
-101 126 -113 175 -22 92 11 144 207 323 78 72 119 104 124 95 3 -6 12 -37 19
-67z"/>
<path d="M595 2570 c-8 -16 -15 -46 -15 -66 0 -31 7 -45 47 -82 42 -40 47 -43
53 -26 4 10 -1 48 -12 84 -10 36 -21 77 -25 93 -7 35 -29 35 -48 -3z m75 -157
c0 -3 -7 0 -16 8 -23 19 -44 64 -44 96 0 23 6 16 30 -35 17 -35 30 -66 30 -69z"/>
<path d="M619 1792 c-106 -66 -199 -134 -236 -174 -49 -52 -83 -108 -83 -138
0 -38 26 -108 57 -153 51 -74 121 -96 230 -73 71 15 428 170 590 256 60 32 93
45 96 37 2 -7 8 -9 12 -5 4 4 -8 57 -25 118 -27 91 -36 110 -49 104 -9 -3 -74
-28 -146 -54 -71 -27 -154 -58 -183 -69 -29 -12 -59 -21 -66 -21 -8 0 -32 44
-57 100 -23 55 -47 104 -53 109 -8 6 -38 -7 -87 -37z m109 -74 c21 -46 49
-107 62 -135 25 -57 43 -70 34 -25 -5 27 -4 28 178 100 101 40 187 73 192 75
11 3 67 -156 58 -164 -4 -4 -65 -31 -137 -62 -300 -128 -459 -200 -473 -214
-12 -12 -35 -14 -105 -11 l-89 3 -42 46 c-43 47 -76 127 -75 178 0 20 5 14 20
-27 12 -29 38 -71 58 -93 32 -33 44 -39 78 -39 43 0 173 36 173 48 1 21 -125
272 -137 272 -7 0 -13 -5 -13 -10 0 -13 58 -128 99 -199 17 -28 31 -54 31 -56
0 -9 -79 -25 -126 -25 -65 0 -91 20 -134 102 l-32 63 59 53 c44 40 267 201
280 202 1 0 19 -37 41 -82z"/>
<path d="M614 812 c-142 -90 -189 -128 -228 -184 -34 -50 -76 -150 -76 -181 0
-20 79 -91 132 -119 37 -20 57 -23 143 -22 l100 0 205 93 c167 75 359 170 379
187 2 2 2 6 0 9 -3 2 -144 -57 -315 -131 l-309 -136 -69 6 c-85 6 -164 44
-212 100 l-34 39 33 59 c17 33 52 82 77 109 43 47 247 192 259 185 3 -2 33
-63 66 -135 57 -127 81 -161 69 -103 -6 28 -5 28 178 100 101 40 188 72 193
72 6 0 19 -29 31 -63 27 -79 56 -136 61 -120 4 11 -53 212 -63 222 -2 2 -18
-3 -36 -11 -48 -22 -363 -138 -375 -138 -6 0 -30 47 -54 105 -24 57 -49 107
-55 109 -6 2 -51 -21 -100 -52z"/>
<path d="M520 688 c0 -15 124 -246 140 -262 22 -22 8 19 -51 144 -35 72 -68
130 -75 130 -8 0 -14 -6 -14 -12z"/>
</g>
</svg>
