<?xml version="1.0" standalone="no"?>
<!DOCTYPE svg PUBLIC "-//W3C//DTD SVG 20010904//EN"
 "http://www.w3.org/TR/2001/REC-SVG-20010904/DTD/svg10.dtd">
<svg version="1.0" xmlns="http://www.w3.org/2000/svg"
 width="167.000000pt" height="143.000000pt" viewBox="0 0 167.000000 143.000000"
 preserveAspectRatio="xMidYMid meet">
<metadata>
Created by potrace 1.16, written by Peter Selinger 2001-2019
</metadata>
<g transform="translate(0.000000,143.000000) scale(0.100000,-0.100000)"
fill="#000000" stroke="none">
<path d="M595 1087 c-107 -56 -161 -95 -217 -155 -64 -69 -81 -111 -75 -193 6
-94 57 -188 151 -277 64 -60 222 -169 232 -159 2 2 7 79 11 170 l6 167 171 0
c94 0 242 3 328 7 134 5 156 8 156 22 0 9 3 61 7 117 l8 101 -159 6 c-87 4
-237 7 -331 7 l-173 0 0 109 c0 90 -3 110 -16 115 -19 7 -6 12 -99 -37z m75
-378 l0 -381 -27 17 c-207 131 -311 273 -300 412 6 78 36 132 113 202 48 44
184 130 207 131 4 0 7 -172 7 -381z m660 92 c0 -38 3 -82 6 -99 l6 -30 -308 5
c-170 2 -313 6 -319 7 -6 2 -9 38 -7 90 l3 86 237 3 c130 1 270 3 310 5 l72 2
0 -69z"/>
</g>
</svg>
