<?xml version="1.0" standalone="no"?>
<!DOCTYPE svg PUBLIC "-//W3C//DTD SVG 20010904//EN"
 "http://www.w3.org/TR/2001/REC-SVG-20010904/DTD/svg10.dtd">
<svg version="1.0" xmlns="http://www.w3.org/2000/svg"
 width="221.000000pt" height="148.000000pt" viewBox="0 0 221.000000 148.000000"
 preserveAspectRatio="xMidYMid meet">
<metadata>
Created by potrace 1.16, written by Peter Selinger 2001-2019
</metadata>
<g transform="translate(0.000000,148.000000) scale(0.100000,-0.100000)"
fill="#000000" stroke="none">
<path d="M955 1097 c-162 -103 -207 -136 -269 -195 -72 -68 -124 -138 -137
-182 -16 -52 9 -147 57 -220 19 -28 34 -53 34 -55 0 -1 -31 -10 -69 -20 -63
-15 -75 -15 -147 -1 -44 8 -89 18 -101 22 -20 5 -23 3 -23 -18 0 -25 53 -68
137 -111 54 -28 175 -23 275 12 46 16 116 32 155 35 102 9 180 37 503 183 296
134 512 244 493 250 -16 6 -816 -344 -829 -362 -13 -17 -95 -35 -161 -35 -70
0 -129 19 -172 57 -51 43 -109 158 -117 233 l-6 56 96 91 c83 80 378 293 404
293 5 0 19 -26 32 -57 13 -32 47 -107 75 -168 28 -60 56 -121 62 -135 11 -23
12 -21 12 21 l1 46 177 68 c97 37 215 85 262 106 47 21 89 35 92 31 4 -4 19
-45 34 -92 49 -151 97 -243 81 -155 -10 53 -77 269 -86 279 -5 5 -23 2 -43 -8
-19 -9 -38 -16 -41 -16 -3 0 -115 -41 -248 -90 -132 -50 -244 -87 -248 -83 -4
4 -32 67 -63 138 -65 147 -70 158 -83 162 -5 2 -68 -34 -139 -80z m-250 -701
c50 -27 49 -29 -14 -46 -132 -35 -189 -32 -264 13 l-39 24 84 -5 c67 -3 92 0
133 16 28 12 51 21 52 21 1 1 23 -10 48 -23z"/>
<path d="M830 938 c0 -14 74 -160 136 -269 24 -42 44 -81 44 -87 0 -13 -124
-42 -180 -42 -65 0 -103 22 -141 81 -19 30 -43 73 -54 97 -20 46 -35 55 -35
20 1 -57 82 -185 134 -213 42 -23 132 -17 231 16 39 12 71 23 73 25 4 2 -79
187 -134 295 -26 52 -50 89 -59 89 -8 0 -15 -5 -15 -12z"/>
</g>
</svg>
