<?xml version="1.0" standalone="no"?>
<!DOCTYPE svg PUBLIC "-//W3C//DTD SVG 20010904//EN"
 "http://www.w3.org/TR/2001/REC-SVG-20010904/DTD/svg10.dtd">
<svg version="1.0" xmlns="http://www.w3.org/2000/svg"
 width="118.000000pt" height="152.000000pt" viewBox="0 0 118.000000 152.000000"
 preserveAspectRatio="xMidYMid meet">
<metadata>
Created by potrace 1.16, written by Peter Selinger 2001-2019
</metadata>
<g transform="translate(0.000000,152.000000) scale(0.100000,-0.100000)"
fill="#000000" stroke="none">
<path d="M312 1213 c-10 -4 -12 -95 -11 -441 1 -241 4 -444 8 -452 3 -9 11
-15 18 -15 13 0 348 312 425 394 41 45 51 51 87 51 23 0 41 5 41 10 0 6 -17
10 -37 10 -35 0 -48 10 -163 124 -148 146 -342 326 -349 325 -3 0 -12 -3 -19
-6z m137 -161 c47 -43 133 -118 191 -166 58 -49 110 -93 115 -98 6 -6 -33 -9
-113 -6 l-122 3 0 -29 0 -29 123 8 c72 4 118 3 112 -2 -5 -5 -35 -29 -65 -54
-48 -39 -254 -217 -334 -288 l-28 -26 6 185 c3 102 9 274 12 383 4 108 9 197
12 197 2 0 43 -35 91 -78z"/>
</g>
</svg>
