<?xml version="1.0" standalone="no"?>
<!DOCTYPE svg PUBLIC "-//W3C//DTD SVG 20010904//EN"
 "http://www.w3.org/TR/2001/REC-SVG-20010904/DTD/svg10.dtd">
<svg version="1.0" xmlns="http://www.w3.org/2000/svg"
 width="185.000000pt" height="319.000000pt" viewBox="0 0 185.000000 319.000000"
 preserveAspectRatio="xMidYMid meet">
<metadata>
Created by potrace 1.16, written by Peter Selinger 2001-2019
</metadata>
<g transform="translate(0.000000,319.000000) scale(0.100000,-0.100000)"
fill="#000000" stroke="none">
<path d="M304 2876 c-6 -17 12 -355 20 -363 8 -8 478 37 639 61 l157 24 63
-65 c62 -64 62 -65 106 -58 24 4 54 11 67 15 21 8 20 12 -38 69 l-61 60 29 6
c16 3 43 9 59 13 l30 8 3 102 3 102 -48 0 c-26 0 -190 7 -363 14 -664 30 -659
30 -666 12z m324 -36 l82 0 0 -55 0 -55 -185 0 -185 0 0 61 0 62 103 -6 c56
-4 139 -7 185 -7z m483 -10 l239 0 0 -45 c0 -42 -2 -45 -27 -45 -16 0 -152 -3
-304 -7 l-276 -6 3 39 c1 21 2 48 3 58 1 17 7 18 62 12 34 -3 169 -6 300 -6z
m249 -124 c0 -13 2 -31 5 -38 5 -12 -49 -20 -277 -46 -156 -18 -295 -35 -310
-37 -28 -4 -28 -4 -28 54 l0 59 168 7 c157 7 402 20 430 24 6 0 12 -10 12 -23z
m-636 -62 c4 -31 5 -58 3 -60 -2 -2 -68 -8 -148 -14 -79 -5 -165 -12 -191 -15
l-48 -4 0 74 0 75 189 0 188 0 7 -56z m593 -136 c-33 -21 -73 -8 -122 42 -50
51 -50 55 5 63 19 2 38 -9 77 -47 37 -35 49 -52 40 -58z"/>
<path d="M304 1965 c-6 -16 12 -434 19 -441 14 -14 651 68 795 102 15 4 24 3
20 -1 -8 -8 13 -36 84 -113 l39 -43 62 16 c33 9 62 17 64 19 2 2 -9 17 -24 33
-15 17 -43 51 -60 76 l-33 45 38 6 c20 4 49 12 64 17 l27 11 -2 117 -2 116
-115 7 c-158 10 -913 48 -945 48 -14 0 -28 -7 -31 -15z m408 -52 c5 -2 8 -20
8 -40 l0 -36 -122 6 c-66 4 -152 7 -190 7 l-68 0 0 41 0 42 182 -8 c101 -4
186 -9 190 -12z m326 -3 l122 0 0 -35 0 -35 -205 0 -205 0 0 41 0 42 83 -6
c45 -4 137 -7 205 -7z m330 -35 l3 -35 -96 0 -95 0 0 35 0 35 93 0 93 0 2 -35z
m0 -100 c-2 -2 -44 -6 -93 -10 l-91 -7 -2 31 -2 30 92 3 c91 3 93 2 96 -20 2
-13 2 -25 0 -27z m-792 35 l144 0 0 -40 0 -40 -190 0 -190 0 0 46 0 47 46 -7
c26 -3 111 -6 190 -6z m584 -19 c0 -37 -5 -38 -205 -46 -88 -4 -170 -8 -182
-10 -21 -3 -23 1 -23 35 l0 40 188 3 c103 1 195 3 205 5 13 1 17 -5 17 -27z
m218 -96 c-3 -3 -462 -69 -559 -80 l-56 -7 -7 42 c-4 24 -5 44 -3 47 5 4 343
33 390 33 20 0 27 -5 27 -20 0 -11 5 -20 10 -20 6 0 10 11 10 24 0 23 4 25 78
31 42 4 82 8 87 9 9 3 30 -52 23 -59z m-648 -13 c0 -11 3 -33 6 -49 l6 -30
-154 -12 c-84 -7 -174 -15 -200 -18 l-48 -6 0 61 c0 39 4 62 13 65 6 2 94 5
195 6 174 2 182 1 182 -17z m563 -96 c31 -36 54 -67 50 -69 -5 -2 -24 -7 -44
-11 -36 -6 -38 -5 -88 58 -28 35 -51 66 -51 69 0 3 12 8 28 10 15 2 32 5 37 5
6 1 36 -27 68 -62z"/>
<path d="M318 873 c-16 -4 -18 -18 -18 -116 0 -124 16 -393 24 -405 2 -4 105
3 227 15 161 17 225 20 230 12 5 -8 8 -8 10 0 4 11 215 43 432 67 l57 7 0 -77
0 -76 53 0 c28 0 79 5 112 10 40 6 61 6 63 0 5 -15 22 -12 22 4 0 8 6 17 13
19 9 4 9 7 -1 15 -10 7 -12 57 -10 223 l3 214 -22 3 c-21 3 -23 0 -23 -49 l0
-52 -107 7 c-60 3 -215 9 -345 12 l-238 7 0 43 0 44 357 0 c196 0 353 4 348 8
-6 5 -253 21 -550 36 -297 15 -558 29 -580 31 -22 2 -48 1 -57 -2z m445 -70
c4 -2 7 -23 7 -47 l0 -42 -152 3 c-84 2 -181 6 -215 9 l-63 6 0 45 0 45 208
-7 c114 -4 210 -9 215 -12z m-116 -123 l123 0 0 -45 0 -44 -205 -3 c-113 -2
-210 -1 -215 0 -6 2 -10 26 -10 54 l0 51 92 -7 c50 -3 147 -6 215 -6z m851
-42 l3 -36 -80 -4 c-83 -3 -123 1 -122 15 2 22 0 27 -14 27 -9 0 -15 -9 -15
-25 l0 -25 -235 0 -235 0 0 45 0 45 348 -2 347 -3 3 -37z m2 -97 l0 -38 -52
-7 c-29 -3 -72 -6 -95 -6 -39 0 -43 2 -44 25 -1 14 -2 31 -3 38 -2 16 35 24
122 26 l72 1 0 -39z m-230 -16 c0 -29 -4 -45 -12 -45 -21 0 -349 -29 -405 -35
l-53 -6 0 59 0 60 147 1 c81 1 149 4 152 6 2 3 42 5 88 5 l83 0 0 -45z m-498
-30 l3 -54 -35 -6 c-29 -4 -369 -35 -392 -35 -5 0 -8 34 -8 75 l0 75 214 0
214 0 4 -55z m737 -149 c-2 -2 -51 -6 -108 -9 l-104 -5 7 61 c3 33 8 62 9 64
2 1 44 9 93 16 l89 13 9 -68 c5 -38 7 -70 5 -72z"/>
</g>
</svg>
