<?xml version="1.0" standalone="no"?>
<!DOCTYPE svg PUBLIC "-//W3C//DTD SVG 20010904//EN"
 "http://www.w3.org/TR/2001/REC-SVG-20010904/DTD/svg10.dtd">
<svg version="1.0" xmlns="http://www.w3.org/2000/svg"
 width="169.000000pt" height="181.000000pt" viewBox="0 0 169.000000 181.000000"
 preserveAspectRatio="xMidYMid meet">
<metadata>
Created by potrace 1.16, written by Peter Selinger 2001-2019
</metadata>
<g transform="translate(0.000000,181.000000) scale(0.100000,-0.100000)"
fill="#000000" stroke="none">
<path d="M1166 1447 l-68 -64 -157 23 c-116 17 -579 64 -636 64 -8 0 1 -369 9
-377 7 -7 981 33 1024 42 21 5 22 10 22 100 0 93 -1 96 -26 105 -14 6 -36 10
-49 10 -13 0 -26 3 -29 8 -2 4 20 33 49 65 60 65 60 66 -31 81 -39 7 -42 5
-108 -57z m132 27 c22 -6 19 -10 -34 -58 -47 -41 -63 -50 -88 -47 -17 1 -33 4
-35 6 -2 2 16 27 40 54 45 52 63 59 117 45z m-563 -79 c17 -3 21 -14 23 -60
l3 -55 -210 0 -211 0 0 73 0 73 188 -13 c103 -8 196 -16 207 -18z m238 -25
c94 -11 206 -24 247 -30 41 -5 83 -10 93 -10 13 0 17 -9 17 -40 0 -40 0 -41
-32 -36 -18 3 -98 8 -178 11 -80 3 -189 8 -242 12 l-98 6 0 53 c0 30 5 54 10
54 6 0 88 -9 183 -20z m-209 -171 c4 -28 6 -52 4 -54 -2 -1 -101 -5 -222 -9
l-219 -6 7 38 c3 20 6 47 6 60 l0 22 209 0 208 0 7 -51z m564 36 c2 -2 6 -22
9 -44 l6 -41 -230 0 c-127 0 -251 -3 -276 -6 l-45 -6 -4 57 -3 57 270 -7 c149
-4 272 -9 273 -10z"/>
<path d="M403 707 c-29 -5 -53 -15 -53 -21 1 -6 23 -36 50 -66 l50 -55 -43
-10 c-67 -16 -67 -16 -67 -121 0 -67 4 -96 13 -99 6 -2 237 -9 511 -15 275 -6
505 -12 510 -13 7 -1 12 58 14 176 l2 178 -32 -5 c-18 -3 -80 -8 -138 -11
-156 -9 -295 -23 -494 -50 -241 -34 -231 -34 -294 26 -29 28 -51 53 -50 55 2
2 22 6 43 9 38 6 42 5 93 -49 30 -31 59 -53 64 -50 7 4 -12 30 -45 61 -32 30
-57 59 -57 64 0 10 -6 10 -77 -4z m955 -202 c-2 -1 -96 -6 -210 -10 l-208 -7
0 46 c0 28 5 49 13 51 6 3 100 15 207 28 l195 23 3 -64 c2 -35 2 -66 0 -67z
m-443 30 c0 -33 -4 -45 -15 -45 -8 0 -109 -7 -225 -15 -297 -21 -305 -20 -305
8 0 23 6 24 248 59 326 47 297 48 297 -7z m447 -127 c3 -40 3 -75 2 -77 -2 -2
-100 2 -219 9 l-216 13 6 51 c4 28 9 53 12 56 5 5 193 16 324 18 l87 2 4 -72z
m-450 -4 c-4 -51 -6 -55 -25 -50 -12 3 -136 8 -274 12 l-253 7 0 23 c0 19 7
24 43 29 53 7 396 32 462 34 l50 1 -3 -56z"/>
</g>
</svg>
