<?xml version="1.0" standalone="no"?>
<!DOCTYPE svg PUBLIC "-//W3C//DTD SVG 20010904//EN"
 "http://www.w3.org/TR/2001/REC-SVG-20010904/DTD/svg10.dtd">
<svg version="1.0" xmlns="http://www.w3.org/2000/svg"
 width="164.000000pt" height="152.000000pt" viewBox="0 0 164.000000 152.000000"
 preserveAspectRatio="xMidYMid meet">
<metadata>
Created by potrace 1.16, written by Peter Selinger 2001-2019
</metadata>
<g transform="translate(0.000000,152.000000) scale(0.100000,-0.100000)"
fill="#000000" stroke="none">
<path d="M304 1209 c-6 -11 10 -31 104 -130 l53 -55 -82 -88 c-59 -63 -79 -90
-71 -98 10 -10 53 30 137 130 19 23 33 31 46 27 14 -5 17 -2 13 9 -5 13 3 16
47 16 l53 0 -73 -74 c-52 -52 -69 -76 -60 -81 8 -6 35 16 81 64 60 62 72 71
85 59 14 -11 15 -10 9 10 -7 21 -5 22 41 22 l47 0 -73 -74 c-52 -53 -69 -76
-60 -82 9 -5 34 16 80 67 54 59 70 72 80 62 7 -7 17 -13 23 -13 6 0 5 5 -2 12
-20 20 -14 28 20 28 l32 0 -67 -68 c-62 -62 -81 -92 -58 -92 5 0 40 32 77 70
65 66 70 70 89 56 19 -14 19 -16 -28 -64 -35 -36 -45 -52 -36 -57 8 -6 36 16
82 64 l69 73 29 -28 c34 -32 38 -24 8 14 l-21 27 54 7 c70 10 78 6 78 -40 0
-74 -22 -207 -38 -232 -17 -27 -22 -122 -9 -173 7 -26 6 -27 -28 -25 -35 3
-44 11 -25 23 6 3 10 11 10 17 0 6 -10 2 -23 -10 -13 -12 -29 -22 -35 -22 -7
0 -41 30 -75 67 -42 44 -68 64 -76 58 -9 -5 0 -21 34 -55 46 -47 52 -70 17
-70 -10 0 -47 29 -82 65 -35 36 -68 65 -72 65 -20 0 -4 -29 42 -75 l49 -50
-32 -3 c-28 -2 -39 6 -93 64 -38 42 -65 64 -73 60 -8 -5 5 -26 39 -66 l51 -59
-42 1 c-38 0 -47 6 -103 66 -42 43 -67 63 -75 57 -9 -5 3 -24 44 -65 l57 -57
-31 -5 c-17 -2 -32 0 -35 6 -2 8 -7 8 -16 0 -9 -9 -31 9 -92 78 -56 62 -84 86
-91 79 -7 -7 14 -38 71 -99 l81 -89 -79 -84 c-44 -46 -78 -88 -76 -93 6 -23
26 -9 95 70 56 63 79 83 93 78 13 -4 16 -1 12 10 -5 13 3 16 47 16 l53 0 -73
-74 c-52 -53 -69 -76 -60 -82 9 -5 35 16 81 65 60 64 70 72 85 60 14 -12 15
-11 9 9 -7 21 -4 22 38 22 l46 0 -70 -72 c-49 -50 -66 -75 -59 -83 7 -7 31 13
79 65 55 60 71 73 81 63 7 -7 18 -13 23 -13 6 0 5 5 -2 12 -20 20 -14 28 20
28 l32 0 -67 -68 c-62 -62 -81 -92 -58 -92 5 0 41 33 79 72 68 70 72 72 89 56
16 -17 15 -20 -31 -67 -35 -35 -44 -51 -35 -57 9 -5 35 16 81 66 l69 73 29
-28 c34 -33 39 -26 10 15 l-20 28 42 6 c23 4 44 3 48 -1 4 -4 20 -59 35 -120
15 -62 31 -113 35 -113 4 0 -2 52 -13 116 -18 100 -19 117 -6 125 12 7 11 9
-2 9 -11 0 -18 12 -23 38 -10 63 -7 97 20 209 31 125 36 231 15 346 -13 71
-16 77 -38 77 -19 0 -23 -4 -19 -17 13 -42 26 -110 26 -136 0 -27 -1 -28 -50
-25 -48 3 -61 10 -40 23 6 3 10 11 10 17 0 6 -10 2 -23 -10 -13 -12 -29 -22
-35 -22 -7 0 -41 30 -75 67 -42 44 -68 64 -76 58 -9 -5 0 -21 34 -55 26 -27
44 -53 41 -59 -15 -24 -47 -8 -107 54 -34 36 -66 65 -71 65 -20 0 -4 -28 42
-75 l49 -50 -34 -2 c-30 -3 -40 4 -94 65 -42 47 -63 64 -70 56 -8 -7 4 -27 39
-66 l50 -57 -41 1 c-38 0 -47 6 -103 66 -42 43 -67 63 -75 57 -9 -5 3 -24 44
-65 l57 -57 -28 -7 c-18 -5 -30 -3 -35 6 -6 10 -11 10 -20 1 -8 -8 -31 11 -91
78 -44 49 -81 89 -83 89 -2 0 -7 -5 -11 -11z m636 -192 c0 -2 -8 -11 -18 -21
-18 -15 -20 -15 -37 4 -18 20 -18 20 18 20 21 0 37 -2 37 -3z m0 -490 c0 -2
-8 -11 -18 -21 -18 -15 -20 -15 -37 4 -18 20 -18 20 18 20 21 0 37 -2 37 -3z"/>
<path d="M1290 1213 c1 -5 7 -37 15 -73 26 -118 15 -329 -20 -396 -23 -44 -18
-115 18 -258 25 -104 33 -123 35 -94 2 20 -4 73 -12 118 -20 102 -20 177 -1
255 15 61 22 406 9 439 -6 16 -44 23 -44 9z"/>
</g>
</svg>
