<?xml version="1.0" standalone="no"?>
<!DOCTYPE svg PUBLIC "-//W3C//DTD SVG 20010904//EN"
 "http://www.w3.org/TR/2001/REC-SVG-20010904/DTD/svg10.dtd">
<svg version="1.0" xmlns="http://www.w3.org/2000/svg"
 width="165.000000pt" height="150.000000pt" viewBox="0 0 165.000000 150.000000"
 preserveAspectRatio="xMidYMid meet">
<metadata>
Created by potrace 1.16, written by Peter Selinger 2001-2019
</metadata>
<g transform="translate(0.000000,150.000000) scale(0.100000,-0.100000)"
fill="#000000" stroke="none">
<path d="M1103 1185 c-8 -9 -13 -45 -13 -100 l0 -85 -47 0 c-45 0 -46 0 -28
20 10 11 14 20 8 20 -5 0 -18 -9 -28 -20 -10 -11 -22 -20 -27 -20 -4 0 -38 32
-75 70 -46 49 -69 68 -77 60 -7 -7 4 -25 37 -58 26 -27 44 -51 41 -55 -21 -20
-55 -3 -114 59 -44 46 -66 62 -73 55 -8 -8 4 -27 41 -64 l52 -53 -32 -2 c-29
-3 -40 5 -95 65 -42 46 -65 65 -72 58 -7 -7 6 -29 40 -68 l51 -57 -42 0 c-40
0 -47 5 -103 66 -42 46 -63 62 -70 55 -8 -8 4 -27 41 -64 29 -29 52 -56 52
-60 0 -4 -13 -7 -30 -7 -16 0 -30 5 -30 11 0 8 -4 8 -14 0 -12 -10 -23 -3 -58
36 -113 125 -117 128 -128 117 -7 -7 13 -35 71 -98 l82 -87 -83 -85 c-65 -67
-81 -87 -71 -97 10 -9 19 -4 43 23 123 139 128 143 145 129 15 -12 16 -12 10
4 -6 15 0 17 43 17 l50 0 -46 -42 c-59 -55 -89 -97 -77 -109 6 -6 35 19 77 67
49 53 72 72 79 65 16 -16 31 -13 18 3 -10 12 -4 15 33 18 l46 3 -71 -71 c-59
-60 -68 -72 -55 -83 11 -10 16 -9 23 3 4 8 34 42 67 76 41 43 62 58 69 51 6
-6 16 -11 21 -11 6 0 5 5 -2 12 -20 20 -14 28 25 28 l37 0 -73 -74 c-50 -50
-71 -78 -65 -87 5 -9 28 10 80 66 63 69 74 77 88 66 19 -16 21 -37 4 -48 -7
-5 -26 -23 -42 -41 -21 -22 -27 -35 -19 -43 7 -7 31 13 78 66 l68 76 27 -26
c38 -36 47 -31 16 10 l-27 35 54 0 c53 0 55 -1 61 -31 3 -17 6 -123 6 -235 l0
-204 -52 0 c-49 0 -50 1 -35 18 28 31 19 35 -16 8 l-34 -26 -68 71 c-48 49
-71 67 -79 59 -7 -7 3 -23 33 -54 24 -24 40 -49 37 -55 -15 -24 -47 -8 -106
55 -46 49 -64 64 -73 55 -8 -8 2 -25 41 -64 l52 -53 -31 -2 c-28 -2 -40 6 -95
65 -42 46 -66 65 -73 58 -7 -7 8 -28 45 -67 l54 -58 -44 0 c-41 0 -48 4 -107
65 -43 45 -66 62 -73 55 -7 -7 6 -27 42 -63 29 -29 52 -55 52 -58 0 -2 -13 -6
-30 -7 -17 -1 -30 3 -30 9 0 9 -3 9 -14 0 -11 -9 -30 7 -96 79 -58 63 -86 88
-94 80 -10 -10 -1 -22 109 -138 l49 -52 -84 -85 c-65 -65 -82 -87 -72 -97 9
-9 25 4 73 55 33 37 69 77 79 89 16 20 20 21 35 8 16 -13 17 -13 12 5 -6 18
-2 20 43 20 l49 0 -64 -65 c-36 -36 -65 -71 -65 -78 0 -27 28 -8 89 59 45 50
67 67 74 60 6 -6 16 -11 21 -11 6 0 5 5 -2 12 -21 21 -13 28 35 28 l47 0 -73
-74 c-51 -51 -69 -76 -61 -81 9 -5 37 17 83 64 49 50 73 69 81 61 17 -17 27
-11 16 10 -10 18 -8 20 24 20 l35 0 -69 -71 c-39 -39 -70 -75 -70 -80 0 -24
31 -3 91 63 58 64 68 71 83 59 22 -18 21 -20 -24 -70 -22 -25 -40 -48 -40 -53
0 -23 33 -1 89 63 l63 70 29 -27 c38 -36 47 -25 14 15 l-27 31 66 0 66 0 0
-90 0 -91 114 3 113 3 7 255 c4 140 6 337 6 436 l-2 182 -45 6 c-82 11 -187 6
-200 -9z m199 -92 c2 -43 2 -81 0 -85 -2 -5 -39 -8 -83 -8 l-79 0 0 75 0 74
33 5 c17 3 50 7 72 9 22 2 43 4 47 5 3 1 8 -33 10 -75z m-362 -123 c0 -5 -8
-14 -19 -19 -14 -8 -23 -6 -36 9 -18 20 -17 20 18 20 21 0 37 -4 37 -10z m371
-172 c0 -101 3 -204 5 -230 l5 -48 -96 0 -95 0 0 143 c0 78 3 179 7 224 l6 82
61 4 c34 2 71 4 84 5 l22 2 1 -182z m9 -378 l0 -80 -49 0 c-26 0 -69 3 -95 6
l-46 7 0 68 0 68 68 4 c37 2 79 4 95 5 l27 2 0 -80z m-395 50 c-14 -15 -21
-17 -32 -9 -22 19 -15 29 19 29 30 0 31 0 13 -20z"/>
</g>
</svg>
