<?xml version="1.0" standalone="no"?>
<!DOCTYPE svg PUBLIC "-//W3C//DTD SVG 20010904//EN"
 "http://www.w3.org/TR/2001/REC-SVG-20010904/DTD/svg10.dtd">
<svg version="1.0" xmlns="http://www.w3.org/2000/svg"
 width="214.000000pt" height="338.000000pt" viewBox="0 0 214.000000 338.000000"
 preserveAspectRatio="xMidYMid meet">
<metadata>
Created by potrace 1.16, written by Peter Selinger 2001-2019
</metadata>
<g transform="translate(0.000000,338.000000) scale(0.100000,-0.100000)"
fill="#000000" stroke="none">
<path d="M825 3030 c-33 -27 -89 -90 -125 -140 l-65 -91 -167 3 c-155 3 -168
2 -168 -14 0 -16 13 -18 139 -18 158 0 268 9 250 21 -15 9 53 114 132 202 l48
54 88 -14 c119 -18 225 -48 305 -85 59 -27 69 -35 86 -77 61 -141 69 -320 20
-439 -34 -82 -89 -172 -105 -172 -7 0 -13 -11 -13 -25 l0 -24 138 5 c75 2 178
7 228 10 l92 6 -54 159 c-93 275 -176 444 -248 507 -57 50 -172 99 -317 136
-212 53 -195 54 -264 -4z m637 -273 c71 -122 228 -491 214 -504 -3 -3 -86 -2
-186 2 l-180 7 36 49 c99 136 123 345 58 513 -16 41 17 3 58 -67z"/>
<path d="M870 1069 c-93 -7 -139 -14 -149 -24 -8 -8 -13 -16 -10 -18 2 -2 65
0 139 5 157 11 488 4 575 -12 88 -16 150 -38 170 -60 28 -31 17 -220 -18 -319
-30 -85 -106 -215 -159 -273 -69 -75 -77 -72 182 -66 127 3 233 7 234 9 7 8
-35 259 -60 359 -69 279 -131 347 -349 385 -113 20 -379 27 -555 14z m857
-357 c31 -94 97 -372 89 -379 -2 -2 -89 0 -194 3 l-191 7 44 49 c102 114 164
261 173 412 l5 89 19 -37 c10 -20 35 -85 55 -144z"/>
</g>
</svg>
