<?xml version="1.0" standalone="no"?>
<!DOCTYPE svg PUBLIC "-//W3C//DTD SVG 20010904//EN"
 "http://www.w3.org/TR/2001/REC-SVG-20010904/DTD/svg10.dtd">
<svg version="1.0" xmlns="http://www.w3.org/2000/svg"
 width="156.000000pt" height="156.000000pt" viewBox="0 0 156.000000 156.000000"
 preserveAspectRatio="xMidYMid meet">
<metadata>
Created by potrace 1.16, written by Peter Selinger 2001-2019
</metadata>
<g transform="translate(0.000000,156.000000) scale(0.100000,-0.100000)"
fill="#000000" stroke="none">
<path d="M611 1244 c-79 -21 -129 -46 -196 -97 -80 -60 -119 -102 -112 -121 5
-12 18 -10 79 14 105 40 184 53 291 48 107 -6 199 -38 230 -80 64 -86 5 -262
-168 -497 -30 -41 -55 -77 -55 -81 0 -11 306 -130 334 -130 16 0 28 12 44 45
17 35 25 43 39 38 16 -6 16 -5 5 10 -12 14 -10 23 12 64 38 73 105 240 127
318 28 102 26 222 -5 283 -23 44 -134 162 -154 162 -5 0 -58 9 -118 20 -128
23 -276 25 -353 4z m314 -24 c127 -15 124 -14 188 -71 70 -62 105 -128 116
-217 7 -60 5 -76 -21 -154 -32 -96 -94 -253 -100 -253 -2 0 -55 31 -118 70
l-116 69 38 76 c62 122 69 222 21 289 -58 80 -303 125 -468 87 l-59 -14 24 19
c45 35 165 88 221 98 76 12 169 13 274 1z m161 -707 c15 -11 15 -15 1 -50 -8
-21 -19 -38 -23 -38 -5 0 -66 31 -136 70 l-126 69 26 38 27 37 107 -57 c59
-31 114 -62 124 -69z m-41 -150 c-9 -21 -19 -41 -23 -45 -8 -8 -297 122 -301
135 -2 5 11 26 27 46 l30 38 141 -68 141 -68 -15 -38z"/>
</g>
</svg>
