<?xml version="1.0" standalone="no"?>
<!DOCTYPE svg PUBLIC "-//W3C//DTD SVG 20010904//EN"
 "http://www.w3.org/TR/2001/REC-SVG-20010904/DTD/svg10.dtd">
<svg version="1.0" xmlns="http://www.w3.org/2000/svg"
 width="98.000000pt" height="148.000000pt" viewBox="0 0 98.000000 148.000000"
 preserveAspectRatio="xMidYMid meet">
<metadata>
Created by potrace 1.16, written by Peter Selinger 2001-2019
</metadata>
<g transform="translate(0.000000,148.000000) scale(0.100000,-0.100000)"
fill="#000000" stroke="none">
<path d="M517 1072 c-147 -161 -217 -268 -217 -334 0 -72 93 -217 232 -364 39
-41 74 -74 79 -74 5 0 -32 55 -81 121 l-90 122 80 45 c44 25 98 62 120 82 36
33 40 42 40 83 0 46 -1 48 -75 106 -41 33 -88 68 -105 77 -16 10 -30 22 -30
27 0 4 41 48 92 97 79 76 90 91 79 104 -8 9 -16 16 -20 15 -3 0 -50 -49 -104
-107z m10 -201 c101 -76 123 -97 123 -122 0 -26 -75 -100 -152 -149 -73 -46
-69 -49 -124 65 -38 78 -41 102 -18 148 23 44 76 117 85 117 4 0 43 -26 86
-59z"/>
</g>
</svg>
