<?xml version="1.0" standalone="no"?>
<!DOCTYPE svg PUBLIC "-//W3C//DTD SVG 20010904//EN"
 "http://www.w3.org/TR/2001/REC-SVG-20010904/DTD/svg10.dtd">
<svg version="1.0" xmlns="http://www.w3.org/2000/svg"
 width="135.000000pt" height="135.000000pt" viewBox="0 0 135.000000 135.000000"
 preserveAspectRatio="xMidYMid meet">
<metadata>
Created by potrace 1.16, written by Peter Selinger 2001-2019
</metadata>
<g transform="translate(0.000000,135.000000) scale(0.100000,-0.100000)"
fill="#000000" stroke="none">
<path d="M540 1031 c-103 -29 -165 -57 -162 -74 1 -8 -6 -17 -16 -19 -31 -8
-56 -115 -56 -238 -1 -99 1 -109 34 -181 19 -41 51 -101 70 -132 40 -67 60
-75 190 -84 76 -4 95 -2 178 25 54 18 95 26 98 20 3 -5 11 -3 17 6 7 8 31 20
55 26 24 6 42 17 42 25 0 8 10 23 22 35 16 15 18 20 7 20 -13 0 -12 17 8 118
28 135 26 209 -6 292 -22 55 -23 55 -119 103 -166 81 -236 93 -362 58z m250
-49 l65 -17 3 -52 3 -53 -40 0 -41 0 0 50 c0 43 -3 50 -20 50 -17 0 -20 -7
-20 -50 l0 -50 -40 0 -40 0 0 50 c0 43 -3 50 -20 50 -17 0 -20 -7 -20 -50 l0
-50 -54 0 -54 0 -4 55 c-1 30 -1 55 2 55 3 1 28 7 55 15 67 18 146 17 225 -3z
m-320 -77 l0 -45 -45 0 c-46 0 -51 6 -36 44 6 16 50 43 74 45 4 1 7 -19 7 -44z
m510 -18 c5 -17 8 -32 6 -34 -2 -2 -22 -1 -45 3 -41 7 -41 7 -41 50 l0 44 35
-17 c21 -10 38 -27 45 -46z m24 -69 c3 -13 6 -38 6 -55 0 -36 -12 -40 -79 -27
-29 6 -31 9 -31 49 0 48 6 53 61 54 30 1 38 -3 43 -21z m-534 -33 l0 -45 -43
0 c-49 0 -58 -5 -50 -26 4 -11 16 -13 49 -8 l44 6 0 -46 0 -46 -43 0 c-48 0
-58 -5 -50 -26 3 -9 21 -14 54 -14 l49 0 0 -56 0 -55 -42 3 c-42 3 -42 3 -61
63 -20 63 -28 217 -14 268 7 25 11 27 57 27 l50 0 0 -45z m150 0 l0 -45 -55 0
-55 0 0 45 0 45 55 0 55 0 0 -45z m120 0 l0 -45 -40 0 -40 0 0 45 0 45 40 0
40 0 0 -45z m120 0 l0 -45 -40 0 -40 0 0 45 0 45 40 0 40 0 0 -45z m150 -89
c0 -13 -3 -38 -6 -55 -6 -30 -9 -31 -55 -31 l-49 0 0 49 c0 49 1 50 33 54 74
9 77 8 77 -17z m-384 -33 l4 -43 -60 0 -60 0 0 45 0 46 56 -3 56 -3 4 -42z
m114 33 c0 -7 3 -28 6 -45 l7 -31 -47 0 -46 0 0 45 0 45 40 0 c27 0 40 -4 40
-14z m130 -31 l0 -45 -45 0 -45 0 0 45 0 45 45 0 45 0 0 -45z m123 -118 c-9
-86 -10 -87 -53 -87 -21 0 -41 3 -43 8 -3 4 -2 33 0 64 l5 57 42 3 c22 2 44 2
48 1 3 -2 4 -22 1 -46z m-365 -19 l3 -58 -66 0 -65 0 0 41 c0 65 11 77 72 75
l53 -1 3 -57z m122 2 l0 -60 -51 0 -52 0 7 46 c3 26 6 53 6 60 0 10 14 14 45
14 l45 0 0 -60z m120 -4 l0 -64 -47 6 c-27 2 -49 5 -49 6 -1 0 1 27 3 59 l5
57 44 0 44 0 0 -64z m-120 -126 c0 -34 -4 -42 -26 -50 -14 -6 -36 -10 -50 -10
-22 0 -24 4 -24 44 0 48 6 53 68 55 31 1 32 0 32 -39z m120 11 c0 -26 -4 -29
-50 -38 l-50 -10 0 32 c0 41 5 45 57 45 41 0 43 -2 43 -29z m110 15 c0 -19 -7
-23 -53 -31 -35 -7 -37 -6 -37 19 0 24 3 26 45 26 33 0 45 -4 45 -14z m-500
-26 c0 -34 -19 -40 -44 -14 -26 25 -20 44 14 44 27 0 30 -3 30 -30z m150 -16
l0 -46 -37 6 c-96 17 -93 15 -93 52 l0 34 65 0 65 0 0 -46z"/>
</g>
</svg>
