<?xml version="1.0" standalone="no"?>
<!DOCTYPE svg PUBLIC "-//W3C//DTD SVG 20010904//EN"
 "http://www.w3.org/TR/2001/REC-SVG-20010904/DTD/svg10.dtd">
<svg version="1.0" xmlns="http://www.w3.org/2000/svg"
 width="113.000000pt" height="140.000000pt" viewBox="0 0 113.000000 140.000000"
 preserveAspectRatio="xMidYMid meet">
<metadata>
Created by potrace 1.16, written by Peter Selinger 2001-2019
</metadata>
<g transform="translate(0.000000,140.000000) scale(0.100000,-0.100000)"
fill="#000000" stroke="none">
<path d="M455 1076 c-33 -13 -68 -27 -77 -31 -27 -11 -49 -63 -64 -155 -28
-171 -14 -299 56 -491 36 -100 34 -99 173 -99 72 0 88 4 153 36 40 20 78 42
83 48 13 15 51 308 51 388 0 32 -7 90 -16 130 -16 72 -18 74 -77 117 -119 88
-172 99 -282 57z m219 -45 c91 -45 95 -49 113 -142 14 -76 15 -105 2 -289
l-14 -205 -90 -32 c-49 -17 -108 -32 -131 -32 -43 -1 -132 24 -150 43 -17 17
-54 199 -61 298 -6 84 10 248 28 295 8 23 76 67 137 90 48 17 90 11 166 -26z"/>
<path d="M445 938 c-5 -12 10 -32 52 -72 32 -31 61 -56 66 -56 16 0 4 19 -52
80 -47 52 -61 62 -66 48z"/>
<path d="M595 910 c-7 -12 104 -119 124 -120 15 0 5 14 -68 93 -37 39 -46 43
-56 27z"/>
<path d="M416 801 c-9 -13 45 -75 97 -113 45 -33 30 -2 -31 64 -41 43 -61 58
-66 49z"/>
<path d="M586 751 c-6 -9 8 -30 40 -63 95 -96 116 -86 26 13 -42 45 -61 59
-66 50z"/>
<path d="M411 646 c-9 -11 1 -26 50 -70 98 -88 105 -73 12 27 -41 46 -53 54
-62 43z"/>
<path d="M574 578 c-5 -7 17 -34 55 -70 100 -95 101 -70 1 39 -45 47 -46 48
-56 31z"/>
</g>
</svg>
