<?xml version="1.0" standalone="no"?>
<!DOCTYPE svg PUBLIC "-//W3C//DTD SVG 20010904//EN"
 "http://www.w3.org/TR/2001/REC-SVG-20010904/DTD/svg10.dtd">
<svg version="1.0" xmlns="http://www.w3.org/2000/svg"
 width="136.000000pt" height="135.000000pt" viewBox="0 0 136.000000 135.000000"
 preserveAspectRatio="xMidYMid meet">
<metadata>
Created by potrace 1.16, written by Peter Selinger 2001-2019
</metadata>
<g transform="translate(0.000000,135.000000) scale(0.100000,-0.100000)"
fill="#000000" stroke="none">
<path d="M638 1039 c-10 -5 -50 -18 -90 -28 -96 -25 -168 -57 -168 -74 0 -8
-9 -17 -19 -20 -27 -7 -56 -136 -56 -247 1 -75 5 -95 35 -165 19 -44 49 -101
66 -127 18 -26 34 -53 36 -60 4 -10 42 -14 154 -16 148 -2 150 -2 274 36 l125
38 33 160 c30 144 32 165 22 222 -21 121 -30 134 -135 188 -51 27 -91 52 -89
56 3 4 -3 7 -13 6 -26 -3 -143 25 -143 34 0 11 -11 10 -32 -3z m44 -76 c10 -9
18 -20 18 -24 0 -15 -111 -92 -119 -83 -34 40 -71 94 -64 94 4 1 31 7 58 15
67 18 85 18 107 -2z m63 -1 c-3 -3 -11 0 -18 7 -9 10 -8 11 6 5 10 -3 15 -9
12 -12z m137 -28 c40 -14 77 -30 81 -34 5 -4 -18 -28 -51 -53 l-60 -46 -51 66
c-39 51 -48 70 -40 80 16 19 38 16 121 -13z m-364 -56 c22 -29 40 -53 39 -53
-1 -1 -32 -25 -69 -53 l-67 -53 -26 36 c-26 33 -27 37 -15 86 10 39 19 55 44
70 17 10 36 19 42 19 6 0 30 -24 52 -52z m256 -30 c25 -32 46 -61 46 -65 0 -9
-110 -97 -114 -92 -1 2 -24 32 -50 67 -27 35 -45 67 -40 72 35 33 98 80 104
78 4 -2 28 -29 54 -60z m242 -101 c6 -52 5 -58 -17 -76 -13 -11 -27 -20 -30
-21 -3 0 -27 30 -54 66 l-48 66 54 48 54 49 17 -38 c10 -21 20 -63 24 -94z
m-359 -45 c15 -19 22 -36 17 -41 -5 -4 -36 -28 -70 -54 l-60 -45 -42 53 c-23
30 -45 60 -48 68 -3 9 18 33 58 65 l63 51 28 -32 c16 -17 40 -47 54 -65z m241
-8 l51 -61 -32 -23 c-18 -13 -46 -34 -63 -47 l-32 -24 -46 63 -47 63 53 47
c29 26 56 46 59 45 4 -1 30 -29 57 -63z m-523 -8 c-18 -13 -20 -13 -23 0 -2 8
-1 22 3 31 5 15 7 15 22 0 16 -16 16 -18 -2 -31z m93 -82 c23 -29 42 -56 42
-61 0 -13 -99 -85 -109 -78 -5 3 -17 39 -27 81 l-18 76 28 25 c16 13 32 21 35
16 4 -4 26 -31 49 -59z m542 20 c0 -22 -2 -25 -15 -14 -12 10 -13 16 -4 26 16
20 19 18 19 -12z m-254 -40 c40 -48 45 -58 33 -68 -8 -6 -42 -32 -76 -58 l-61
-47 -42 60 c-36 51 -40 63 -29 74 25 25 114 94 120 95 4 0 28 -25 55 -56z
m229 7 c15 -17 16 -31 10 -93 -10 -95 -19 -118 -47 -118 -13 0 -70 -11 -128
-24 l-105 -25 -17 21 c-10 11 -18 24 -18 28 0 4 33 33 73 64 l72 56 43 -50
c58 -66 73 -64 22 3 -22 30 -40 58 -39 63 0 9 99 92 110 93 3 1 14 -8 24 -18z
m-396 -136 c23 -27 41 -53 41 -57 0 -4 -18 -20 -40 -34 -39 -26 -43 -27 -96
-15 -44 10 -57 18 -65 37 -5 14 -9 27 -9 29 0 8 113 96 120 93 5 -2 26 -25 49
-53z m101 -127 c0 -9 -41 -11 -64 -2 -13 5 -12 9 7 24 20 17 24 17 40 3 9 -9
17 -20 17 -25z"/>
</g>
</svg>
