<?xml version="1.0" standalone="no"?>
<!DOCTYPE svg PUBLIC "-//W3C//DTD SVG 20010904//EN"
 "http://www.w3.org/TR/2001/REC-SVG-20010904/DTD/svg10.dtd">
<svg version="1.0" xmlns="http://www.w3.org/2000/svg"
 width="135.000000pt" height="135.000000pt" viewBox="0 0 135.000000 135.000000"
 preserveAspectRatio="xMidYMid meet">
<metadata>
Created by potrace 1.16, written by Peter Selinger 2001-2019
</metadata>
<g transform="translate(0.000000,135.000000) scale(0.100000,-0.100000)"
fill="#000000" stroke="none">
<path d="M540 1031 c-103 -29 -165 -57 -162 -74 1 -8 -6 -17 -16 -19 -31 -8
-56 -115 -57 -238 l0 -105 57 -115 c32 -63 64 -123 72 -134 8 -10 41 -25 73
-32 97 -23 169 -18 290 20 59 19 127 39 150 45 41 11 42 12 57 79 52 233 56
295 23 394 l-22 66 -87 46 c-167 87 -250 102 -378 67z m253 -50 c96 -25 174
-58 182 -78 3 -9 4 -16 3 -17 -2 -1 -135 0 -296 2 -254 3 -293 6 -290 19 3 16
90 56 171 78 73 19 142 18 230 -4z m-100 -119 l295 5 11 -37 c15 -52 16 -98 1
-227 l-13 -113 -291 6 c-160 3 -296 7 -303 9 -14 5 -43 130 -43 190 0 61 30
192 40 175 6 -10 71 -12 303 -8z m285 -424 l-3 -33 -125 -28 c-169 -37 -208
-41 -282 -28 -120 21 -134 27 -151 71 l-15 39 116 4 c65 1 195 4 290 5 l173 2
-3 -32z"/>
<path d="M390 753 c0 -17 16 -18 217 -16 120 2 256 6 303 10 l85 7 -60 7 c-33
4 -169 7 -302 8 -225 1 -243 0 -243 -16z"/>
<path d="M390 631 c0 -17 11 -18 238 -14 130 2 266 7 302 10 l65 7 -85 7 c-47
4 -183 7 -302 8 -206 1 -218 0 -218 -18z"/>
</g>
</svg>
