<?xml version="1.0" standalone="no"?>
<!DOCTYPE svg PUBLIC "-//W3C//DTD SVG 20010904//EN"
 "http://www.w3.org/TR/2001/REC-SVG-20010904/DTD/svg10.dtd">
<svg version="1.0" xmlns="http://www.w3.org/2000/svg"
 width="133.000000pt" height="248.000000pt" viewBox="0 0 133.000000 248.000000"
 preserveAspectRatio="xMidYMid meet">
<metadata>
Created by potrace 1.16, written by Peter Selinger 2001-2019
</metadata>
<g transform="translate(0.000000,248.000000) scale(0.100000,-0.100000)"
fill="#000000" stroke="none">
<path d="M530 2161 c-119 -38 -164 -77 -201 -171 -26 -69 -36 -183 -20 -247 7
-26 35 -96 63 -155 l51 -107 56 -8 c31 -4 108 -8 171 -8 105 0 123 3 214 35
69 24 101 40 107 55 4 11 20 81 35 155 29 149 29 229 -2 311 -16 43 -21 47
-110 87 -51 24 -115 49 -141 57 -64 20 -156 18 -223 -4z m195 -22 c32 -6 96
-24 141 -41 l83 -29 21 -63 c11 -35 22 -83 23 -107 1 -38 -31 -340 -37 -346
-10 -11 -176 -46 -239 -50 -105 -8 -274 14 -298 38 -10 10 -32 62 -50 116 -47
147 -42 257 18 375 15 32 105 81 186 103 65 17 79 18 152 4z"/>
<path d="M607 2046 c-4 -9 5 -19 24 -26 41 -17 46 -7 11 19 -24 17 -31 18 -35
7z"/>
<path d="M810 2040 c0 -11 33 -30 51 -30 8 0 5 7 -6 20 -19 21 -45 27 -45 10z"/>
<path d="M440 2007 c0 -15 49 -41 59 -32 6 6 -38 44 -51 45 -5 0 -8 -6 -8 -13z"/>
<path d="M546 1973 c-11 -12 -6 -20 19 -31 31 -14 35 -15 35 -3 0 12 -46 41
-54 34z"/>
<path d="M750 1940 c0 -5 14 -16 30 -25 35 -18 41 -4 8 19 -26 18 -38 20 -38
6z"/>
<path d="M426 1921 c-4 -6 7 -17 25 -26 22 -12 30 -13 27 -4 -7 20 -45 42 -52
30z"/>
<path d="M500 1880 c0 -11 33 -30 51 -30 8 0 5 7 -6 20 -19 21 -45 27 -45 10z"/>
<path d="M906 1883 c-11 -12 -6 -20 19 -31 31 -14 35 -15 35 -3 0 12 -46 41
-54 34z"/>
<path d="M686 1833 c-11 -12 -6 -20 19 -31 31 -14 35 -15 35 -3 0 12 -46 41
-54 34z"/>
<path d="M426 1813 c-11 -12 -6 -20 19 -31 31 -14 35 -15 35 -3 0 12 -46 41
-54 34z"/>
<path d="M840 1747 c0 -14 49 -42 58 -33 5 6 -38 45 -50 46 -5 0 -8 -6 -8 -13z"/>
<path d="M410 1740 c0 -11 33 -30 52 -30 7 1 3 9 -11 20 -25 22 -41 26 -41 10z"/>
<path d="M620 1726 c0 -16 29 -36 51 -36 15 0 -6 27 -33 41 -14 7 -18 6 -18
-5z"/>
<path d="M550 1627 c0 -8 11 -19 25 -25 38 -18 41 -15 15 13 -26 28 -40 32
-40 12z"/>
<path d="M735 1590 c-6 -10 49 -43 58 -33 4 3 -4 14 -17 24 -28 22 -32 23 -41
9z"/>
<path d="M587 1146 c-22 -34 -102 -206 -121 -261 -10 -27 -22 -57 -26 -66 -10
-20 12 -138 45 -232 20 -58 160 -287 175 -287 8 0 96 158 124 223 14 31 36
106 48 165 21 106 22 109 4 148 -46 98 -102 204 -141 265 -35 54 -48 67 -69
67 -15 0 -31 -9 -39 -22z m98 -96 l37 -55 -26 -3 c-37 -5 -32 -22 7 -22 29 0
35 -6 71 -72 38 -70 39 -72 33 -153 -7 -96 -30 -170 -98 -315 l-50 -105 -50
85 c-27 47 -49 88 -49 92 0 5 9 8 19 8 11 0 22 4 25 9 7 10 -40 24 -54 16 -17
-11 -79 194 -80 265 0 14 15 58 32 97 32 72 34 73 71 73 20 0 37 5 37 10 0 6
-13 10 -30 10 -16 0 -30 3 -30 7 0 3 17 35 37 70 42 71 38 72 98 -17z"/>
<path d="M540 910 c0 -5 16 -10 35 -10 19 0 35 5 35 10 0 6 -16 10 -35 10 -19
0 -35 -4 -35 -10z"/>
<path d="M670 910 c0 -5 14 -10 30 -10 17 0 30 5 30 10 0 6 -13 10 -30 10 -16
0 -30 -4 -30 -10z"/>
<path d="M540 830 c0 -5 16 -10 35 -10 19 0 35 5 35 10 0 6 -16 10 -35 10 -19
0 -35 -4 -35 -10z"/>
<path d="M670 830 c0 -5 14 -10 30 -10 17 0 30 5 30 10 0 6 -13 10 -30 10 -16
0 -30 -4 -30 -10z"/>
<path d="M540 750 c0 -5 16 -10 35 -10 19 0 35 5 35 10 0 6 -16 10 -35 10 -19
0 -35 -4 -35 -10z"/>
<path d="M670 750 c0 -5 14 -10 30 -10 17 0 30 5 30 10 0 6 -13 10 -30 10 -16
0 -30 -4 -30 -10z"/>
<path d="M540 680 c0 -5 16 -10 35 -10 19 0 35 5 35 10 0 6 -16 10 -35 10 -19
0 -35 -4 -35 -10z"/>
<path d="M670 680 c0 -5 14 -10 30 -10 17 0 30 5 30 10 0 6 -13 10 -30 10 -16
0 -30 -4 -30 -10z"/>
<path d="M547 623 c-15 -14 -6 -23 22 -23 34 0 49 15 25 24 -21 8 -39 8 -47
-1z"/>
<path d="M670 615 c0 -16 36 -20 58 -6 10 6 8 10 -10 14 -36 10 -48 8 -48 -8z"/>
<path d="M670 526 c0 -18 54 -23 65 -6 3 6 0 10 -7 10 -7 0 -23 3 -35 6 -17 5
-23 2 -23 -10z"/>
</g>
</svg>
