<?xml version="1.0" standalone="no"?>
<!DOCTYPE svg PUBLIC "-//W3C//DTD SVG 20010904//EN"
 "http://www.w3.org/TR/2001/REC-SVG-20010904/DTD/svg10.dtd">
<svg version="1.0" xmlns="http://www.w3.org/2000/svg"
 width="133.000000pt" height="131.000000pt" viewBox="0 0 133.000000 131.000000"
 preserveAspectRatio="xMidYMid meet">
<metadata>
Created by potrace 1.16, written by Peter Selinger 2001-2019
</metadata>
<g transform="translate(0.000000,131.000000) scale(0.100000,-0.100000)"
fill="#000000" stroke="none">
<path d="M530 991 c-119 -38 -164 -77 -201 -171 -26 -69 -36 -183 -20 -247 7
-26 35 -96 63 -155 l50 -107 63 -6 c34 -4 120 -5 191 -3 117 4 137 7 211 37
63 24 84 38 88 54 26 111 55 279 55 321 0 28 -9 80 -21 116 l-20 65 -94 43
c-52 24 -116 49 -142 57 -64 20 -156 18 -223 -4z m195 -22 c32 -6 96 -24 141
-40 78 -29 82 -32 98 -72 33 -87 35 -131 13 -308 l-20 -168 -91 -22 c-50 -12
-127 -24 -171 -26 -95 -6 -264 20 -281 43 -7 8 -26 58 -44 112 -45 132 -46
216 -4 322 28 73 31 76 90 107 60 32 149 61 190 62 11 1 47 -4 79 -10z"/>
<path d="M505 870 c-4 -6 -4 -43 0 -82 9 -85 25 -73 25 19 0 59 -11 86 -25 63z"/>
<path d="M620 780 c0 -99 17 -106 22 -10 3 76 1 90 -13 90 -5 0 -9 -36 -9 -80z"/>
<path d="M734 825 c-4 -9 -3 -46 1 -83 6 -52 10 -62 16 -42 19 66 4 180 -17
125z"/>
<path d="M860 766 c0 -41 4 -77 9 -80 10 -6 25 129 16 144 -16 26 -25 3 -25
-64z"/>
<path d="M450 535 c0 -43 4 -75 10 -75 6 0 10 32 10 75 0 43 -4 75 -10 75 -6
0 -10 -32 -10 -75z"/>
<path d="M560 515 c0 -84 14 -100 24 -29 10 76 8 104 -9 104 -12 0 -15 -15
-15 -75z"/>
<path d="M920 505 c0 -43 4 -75 10 -75 6 0 10 32 10 75 0 43 -4 75 -10 75 -6
0 -10 -32 -10 -75z"/>
<path d="M680 494 c0 -47 4 -73 10 -69 6 3 10 37 10 76 0 39 -4 69 -10 69 -6
0 -10 -32 -10 -76z"/>
<path d="M800 526 c0 -24 3 -59 7 -77 7 -33 7 -33 14 -9 4 14 7 49 8 78 1 40
-2 52 -14 52 -11 0 -15 -12 -15 -44z"/>
</g>
</svg>
