<?xml version="1.0" standalone="no"?>
<!DOCTYPE svg PUBLIC "-//W3C//DTD SVG 20010904//EN"
 "http://www.w3.org/TR/2001/REC-SVG-20010904/DTD/svg10.dtd">
<svg version="1.0" xmlns="http://www.w3.org/2000/svg"
 width="135.000000pt" height="135.000000pt" viewBox="0 0 135.000000 135.000000"
 preserveAspectRatio="xMidYMid meet">
<metadata>
Created by potrace 1.16, written by Peter Selinger 2001-2019
</metadata>
<g transform="translate(0.000000,135.000000) scale(0.100000,-0.100000)"
fill="#000000" stroke="none">
<path d="M540 1031 c-107 -30 -165 -57 -162 -75 2 -9 -4 -16 -12 -16 -22 0
-32 -25 -52 -120 -10 -53 -15 -109 -12 -156 4 -63 12 -87 61 -186 31 -62 63
-121 71 -132 8 -10 41 -25 73 -32 97 -23 169 -18 290 20 59 19 127 39 149 45
42 11 42 12 57 80 54 236 57 310 18 411 -22 55 -23 55 -119 103 -166 81 -236
93 -362 58z m253 -51 c42 -10 96 -28 119 -39 l43 -19 -267 -1 c-148 -1 -268 2
-268 5 0 8 82 42 141 58 75 20 143 19 232 -4z m190 -99 c4 -18 -7 -18 -294
-13 -299 5 -299 5 -299 -16 0 -21 2 -21 203 -16 111 2 246 6 300 9 98 4 98 4
108 -22 12 -32 14 -100 4 -176 l-7 -57 -304 7 -304 6 0 -22 0 -22 300 7 c284
7 300 6 300 -11 0 -17 -16 -17 -299 -10 -287 7 -299 6 -303 -11 -7 -29 -28 49
-35 126 -4 45 0 91 12 148 l18 82 226 3 c124 1 258 3 297 5 63 2 72 0 77 -17z
m5 -387 l-3 -27 -290 2 c-159 1 -293 5 -297 7 -4 3 -8 12 -8 19 0 12 33 15
183 18 100 1 235 3 300 5 l118 2 -3 -26z m-10 -66 c-3 -21 -16 -26 -128 -51
-169 -37 -208 -41 -282 -28 -114 20 -135 29 -147 61 l-10 30 222 3 c122 1 250
3 285 5 61 2 63 1 60 -20z"/>
<path d="M390 780 l0 -23 298 8 c163 4 299 9 301 11 11 11 -26 13 -302 20
l-297 7 0 -23z"/>
</g>
</svg>
