<?xml version="1.0" standalone="no"?>
<!DOCTYPE svg PUBLIC "-//W3C//DTD SVG 20010904//EN"
 "http://www.w3.org/TR/2001/REC-SVG-20010904/DTD/svg10.dtd">
<svg version="1.0" xmlns="http://www.w3.org/2000/svg"
 width="136.000000pt" height="130.000000pt" viewBox="0 0 136.000000 130.000000"
 preserveAspectRatio="xMidYMid meet">
<metadata>
Created by potrace 1.16, written by Peter Selinger 2001-2019
</metadata>
<g transform="translate(0.000000,130.000000) scale(0.100000,-0.100000)"
fill="#000000" stroke="none">
<path d="M535 980 c-97 -25 -155 -50 -155 -65 0 -8 -9 -16 -19 -20 -28 -9 -56
-121 -56 -225 0 -75 4 -93 33 -155 18 -38 50 -96 70 -128 44 -68 64 -76 197
-83 83 -4 102 -2 245 39 l155 43 27 114 c32 141 36 263 9 330 -17 41 -26 49
-97 84 -178 88 -271 103 -409 66z m271 -45 c33 -7 86 -24 118 -35 52 -20 60
-27 78 -69 20 -45 31 -163 16 -168 -5 -2 -36 -3 -70 -3 l-63 1 -58 94 c-32 52
-62 95 -67 95 -23 0 -15 -23 35 -98 30 -45 55 -84 55 -87 0 -3 -18 -5 -39 -5
-35 0 -42 4 -62 38 -74 121 -91 144 -101 134 -7 -7 4 -34 36 -85 25 -40 46
-77 46 -80 0 -4 -17 -6 -37 -4 -34 2 -40 7 -93 89 -40 63 -59 85 -69 79 -10
-7 -1 -26 38 -84 28 -42 51 -78 51 -80 0 -2 -16 -4 -35 -5 -38 -2 -45 6 -108
108 -27 44 -42 59 -49 52 -7 -7 1 -30 29 -74 22 -35 43 -68 46 -75 5 -7 1 -10
-10 -8 -10 2 -47 4 -82 4 l-63 1 7 46 c14 98 39 158 70 174 112 54 265 73 381
45z m209 -362 c-4 -38 -11 -72 -15 -76 -4 -4 -25 23 -48 60 l-40 68 26 5 c15
3 40 7 55 8 l29 2 -7 -67z m-331 -4 c23 -31 56 -77 74 -104 55 -79 47 -43 -14
56 -31 52 -58 97 -61 102 -2 4 14 7 36 7 39 0 41 -1 112 -105 40 -58 76 -105
81 -105 5 0 6 6 2 13 -4 6 -32 51 -61 99 -29 47 -53 89 -53 92 0 3 17 6 38 6
37 0 40 -3 101 -92 61 -91 71 -123 41 -139 -29 -14 -295 -59 -345 -58 -27 0
-83 8 -124 17 l-75 17 -28 70 c-16 38 -35 93 -42 122 l-14 53 93 0 94 0 72
-105 c40 -58 77 -105 82 -105 8 0 -5 24 -68 125 -62 98 -61 96 -19 93 33 -2
42 -9 78 -59z"/>
</g>
</svg>
