<?xml version="1.0" standalone="no"?>
<!DOCTYPE svg PUBLIC "-//W3C//DTD SVG 20010904//EN"
 "http://www.w3.org/TR/2001/REC-SVG-20010904/DTD/svg10.dtd">
<svg version="1.0" xmlns="http://www.w3.org/2000/svg"
 width="202.000000pt" height="123.000000pt" viewBox="0 0 202.000000 123.000000"
 preserveAspectRatio="xMidYMid meet">
<metadata>
Created by potrace 1.16, written by Peter Selinger 2001-2019
</metadata>
<g transform="translate(0.000000,123.000000) scale(0.100000,-0.100000)"
fill="#000000" stroke="none">
<path d="M418 898 c-98 -28 -126 -46 -100 -62 4 -2 52 12 107 33 l99 37 90
-62 c160 -109 346 -224 346 -214 0 19 -392 300 -418 299 -9 0 -65 -14 -124
-31z"/>
<path d="M420 801 c-66 -19 -96 -33 -98 -44 -2 -9 1 -17 6 -17 13 0 146 46
170 59 11 6 22 7 24 2 7 -19 425 -288 434 -279 5 5 -166 134 -321 243 -38 27
-71 53 -73 57 -6 13 -43 8 -142 -21z"/>
<path d="M410 668 c-58 -16 -107 -32 -109 -34 -2 -2 -1 -10 2 -19 6 -13 18
-11 89 16 46 17 90 33 99 36 10 3 65 -27 135 -74 184 -123 314 -203 314 -193
0 16 -392 300 -413 299 -7 0 -59 -14 -117 -31z"/>
<path d="M422 565 c-61 -17 -114 -34 -116 -36 -3 -3 -1 -11 4 -19 7 -11 25 -8
103 22 l95 35 203 -134 c195 -128 219 -142 219 -125 0 7 -162 128 -310 230
l-86 59 -112 -32z"/>
<path d="M944 575 c-12 -30 8 -35 150 -35 79 0 164 -3 188 -6 l46 -6 4 -87 c3
-47 4 -87 3 -89 -2 -2 -86 -6 -186 -8 -101 -3 -190 -7 -196 -9 -7 -3 -13 -12
-13 -21 0 -16 16 -17 193 -11 354 12 614 31 580 44 -16 6 -18 169 -3 178 6 3
10 10 10 14 0 8 -67 13 -410 31 -107 5 -232 12 -278 14 -65 4 -84 2 -88 -9z
m566 -135 l0 -90 -76 0 -75 0 2 90 3 90 73 0 73 0 0 -90z m160 23 c0 -38 3
-78 6 -90 6 -22 4 -23 -67 -23 l-74 0 3 90 3 90 65 0 64 0 0 -67z"/>
</g>
</svg>
