<?xml version="1.0" standalone="no"?>
<!DOCTYPE svg PUBLIC "-//W3C//DTD SVG 20010904//EN"
 "http://www.w3.org/TR/2001/REC-SVG-20010904/DTD/svg10.dtd">
<svg version="1.0" xmlns="http://www.w3.org/2000/svg"
 width="188.000000pt" height="286.000000pt" viewBox="0 0 188.000000 286.000000"
 preserveAspectRatio="xMidYMid meet">
<metadata>
Created by potrace 1.16, written by Peter Selinger 2001-2019
</metadata>
<g transform="translate(0.000000,286.000000) scale(0.100000,-0.100000)"
fill="#000000" stroke="none">
<path d="M700 2455 c-101 -149 -145 -245 -144 -315 1 -75 44 -173 138 -315 42
-62 76 -123 76 -136 0 -17 3 -19 14 -10 10 9 15 8 20 -4 3 -8 10 -15 17 -15 6
0 1 16 -11 35 -22 35 -22 38 -11 235 6 110 11 206 11 213 0 11 63 15 326 20
297 6 346 9 333 21 -3 3 -467 15 -613 16 l-48 0 7 180 7 180 -25 0 c-21 0 -38
-18 -97 -105z m73 -16 l-5 -55 -34 4 -33 4 36 54 c20 30 37 53 39 51 2 -1 0
-27 -3 -58z m-3 -103 c0 -31 -4 -33 -68 -26 -52 5 -52 5 -37 28 13 17 26 22
61 22 40 0 44 -2 44 -24z m-7 -84 c-5 -22 -10 -23 -74 -20 -66 3 -77 9 -61 35
7 12 121 23 134 13 4 -3 5 -16 1 -28z m-45 -49 c-40 -3 -48 -8 -48 -24 0 -16
7 -19 45 -19 44 0 45 -1 45 -31 l0 -32 -46 7 c-26 3 -62 6 -81 6 -39 0 -48 15
-39 65 l7 35 82 -2 c54 -1 66 -3 35 -5z m43 -143 c1 -11 2 -28 3 -37 1 -16 -7
-18 -64 -15 -73 4 -76 6 -85 45 l-7 27 76 0 c69 0 76 -2 77 -20z m9 -122 c0
-27 -2 -28 -48 -28 -45 0 -49 2 -65 35 l-16 34 57 3 c62 3 72 -3 72 -44z m0
-120 c0 -34 -2 -59 -4 -57 -2 2 -20 30 -40 62 l-37 57 41 0 40 0 0 -62z"/>
<path d="M830 1125 l-54 -76 -238 7 c-218 7 -238 6 -238 -9 0 -15 23 -17 230
-17 127 0 230 -3 229 -7 0 -5 -11 -24 -23 -43 l-23 -35 -207 4 c-183 3 -206 1
-206 -13 0 -14 25 -16 199 -18 l199 -3 -15 -37 -15 -38 -184 0 c-157 0 -184
-2 -184 -15 0 -13 27 -15 180 -15 l180 0 0 -29 c0 -16 3 -36 6 -45 5 -14 -14
-16 -180 -16 -166 0 -186 -2 -186 -17 0 -15 18 -16 188 -10 l187 5 20 -46 c11
-25 21 -50 23 -54 2 -4 -91 -8 -207 -8 -190 0 -211 -2 -211 -17 0 -15 19 -16
218 -10 l217 6 25 -42 c14 -23 26 -45 28 -49 2 -4 -107 -5 -242 -1 -225 6
-246 5 -246 -10 0 -15 24 -17 254 -17 l254 0 36 -49 c20 -27 36 -59 37 -72 0
-13 3 -18 6 -11 4 10 9 9 24 -4 23 -21 24 -11 3 25 -15 25 -15 51 -6 240 5
117 12 214 14 216 2 3 119 5 259 6 303 3 415 9 379 19 -14 5 -164 8 -334 9
l-309 1 6 185 7 185 -24 0 c-17 0 -36 -18 -76 -75z m52 -35 c-4 -34 -7 -40
-28 -40 -13 0 -24 2 -24 5 0 9 45 75 50 75 3 0 4 -18 2 -40z m-4 -102 l-3 -43
-57 -3 c-32 -2 -58 0 -58 3 0 3 10 24 23 45 19 35 26 40 60 40 l38 0 -3 -42z
m-8 -110 l0 -43 -80 -2 c-46 -2 -80 1 -80 7 0 5 8 25 17 45 17 35 17 35 80 35
l63 0 0 -42z m-37 -81 c36 -2 37 -3 37 -39 l0 -38 -79 0 c-85 0 -90 4 -91 69
0 22 2 23 48 17 26 -4 64 -8 85 -9z m37 -152 l0 -55 -55 0 c-53 0 -55 1 -69
33 -33 81 -36 77 48 77 l76 0 0 -55z m2 -115 c4 -48 -3 -63 -28 -58 -16 3 -63
70 -64 91 0 4 20 7 44 7 l44 0 4 -40z m6 -105 l3 -30 -20 25 c-25 31 -26 42
-3 38 11 -2 18 -14 20 -33z"/>
</g>
</svg>
