<?xml version="1.0" standalone="no"?>
<!DOCTYPE svg PUBLIC "-//W3C//DTD SVG 20010904//EN"
 "http://www.w3.org/TR/2001/REC-SVG-20010904/DTD/svg10.dtd">
<svg version="1.0" xmlns="http://www.w3.org/2000/svg"
 width="240.000000pt" height="181.000000pt" viewBox="0 0 240.000000 181.000000"
 preserveAspectRatio="xMidYMid meet">
<metadata>
Created by potrace 1.16, written by Peter Selinger 2001-2019
</metadata>
<g transform="translate(0.000000,181.000000) scale(0.100000,-0.100000)"
fill="#000000" stroke="none">
<path d="M555 1498 c-89 -8 -157 -30 -142 -45 3 -2 105 0 226 6 384 20 677
-17 740 -93 20 -24 -93 -502 -165 -692 -34 -90 -32 -144 5 -181 61 -61 123
-68 518 -54 311 11 389 19 348 34 -9 4 -121 10 -247 14 -229 6 -229 6 -235
-15 -5 -21 -11 -22 -107 -22 -121 0 -197 19 -238 60 -15 16 -28 39 -28 53 0
13 18 78 39 143 21 65 62 213 90 329 28 116 55 224 60 240 l8 30 25 -55 c59
-128 116 -350 159 -615 35 -218 41 -160 9 83 -46 342 -109 564 -188 653 -55
63 -174 109 -336 129 -96 12 -401 11 -541 -2z"/>
<path d="M312 1203 c-11 -4 -13 -89 -11 -442 1 -240 4 -442 6 -448 3 -7 12
-13 20 -13 17 0 150 120 353 317 114 112 128 122 163 123 20 0 37 5 37 10 0 6
-17 10 -37 10 -35 0 -48 10 -163 124 -148 146 -342 326 -349 325 -3 0 -12 -3
-19 -6z m328 -328 c58 -48 110 -92 115 -97 7 -7 -32 -9 -112 -6 l-123 4 0 -29
0 -30 123 8 c74 4 118 3 112 -3 -5 -5 -64 -54 -130 -109 -66 -55 -158 -134
-205 -176 -46 -42 -86 -74 -88 -72 -2 2 1 150 7 329 6 179 11 351 11 382 l0
56 93 -84 c50 -47 139 -124 197 -173z"/>
</g>
</svg>
