<?xml version="1.0" standalone="no"?>
<!DOCTYPE svg PUBLIC "-//W3C//DTD SVG 20010904//EN"
 "http://www.w3.org/TR/2001/REC-SVG-20010904/DTD/svg10.dtd">
<svg version="1.0" xmlns="http://www.w3.org/2000/svg"
 width="165.000000pt" height="118.000000pt" viewBox="0 0 165.000000 118.000000"
 preserveAspectRatio="xMidYMid meet">
<metadata>
Created by potrace 1.16, written by Peter Selinger 2001-2019
</metadata>
<g transform="translate(0.000000,118.000000) scale(0.100000,-0.100000)"
fill="#000000" stroke="none">
<path d="M394 842 c-9 -20 -34 -86 -55 -146 l-40 -109 69 -141 69 -141 279 7
c153 3 356 9 449 12 l170 5 6 98 c4 54 7 175 8 269 l1 171 -257 7 c-142 4
-354 6 -471 6 l-212 -1 -16 -37z m910 -159 c3 -93 9 -206 12 -252 l5 -84 -253
6 c-139 4 -338 7 -443 7 l-190 0 -44 120 c-25 66 -49 121 -53 122 -5 2 15 54
44 116 l53 112 121 0 c66 0 209 3 317 7 l197 6 0 -135 c0 -177 11 -349 21
-342 5 3 9 40 9 82 0 42 3 148 7 234 l6 157 26 4 c14 2 56 5 92 6 l67 1 6
-167z"/>
<path d="M520 665 l-22 -55 26 -40 c14 -22 30 -40 34 -40 4 0 97 11 207 25
110 14 211 27 225 28 21 3 26 10 28 39 3 35 3 35 -45 42 -76 11 -416 56 -424
56 -3 0 -17 -25 -29 -55z m74 17 c2 -4 6 -32 7 -62 3 -52 2 -55 -22 -58 -20
-2 -28 4 -41 31 -15 32 -15 36 3 66 18 29 42 40 53 23z m259 -24 c129 -11 137
-13 137 -33 0 -20 -8 -22 -181 -39 -99 -10 -182 -16 -183 -14 -1 2 0 27 2 57
l4 53 42 -6 c22 -3 103 -11 179 -18z"/>
</g>
</svg>
