<?xml version="1.0" standalone="no"?>
<!DOCTYPE svg PUBLIC "-//W3C//DTD SVG 20010904//EN"
 "http://www.w3.org/TR/2001/REC-SVG-20010904/DTD/svg10.dtd">
<svg version="1.0" xmlns="http://www.w3.org/2000/svg"
 width="123.000000pt" height="135.000000pt" viewBox="0 0 123.000000 135.000000"
 preserveAspectRatio="xMidYMid meet">
<metadata>
Created by potrace 1.16, written by Peter Selinger 2001-2019
</metadata>
<g transform="translate(0.000000,135.000000) scale(0.100000,-0.100000)"
fill="#000000" stroke="none">
<path d="M310 1035 c-8 -10 -9 -19 -4 -25 17 -16 301 -215 347 -242 l46 -27
-20 -38 c-14 -27 -18 -49 -15 -75 6 -34 3 -38 -32 -59 -71 -43 -332 -231 -332
-239 0 -4 7 -13 15 -20 13 -11 19 -9 38 7 12 11 91 70 176 133 128 93 157 111
170 101 71 -51 145 -81 203 -81 l28 0 0 176 0 176 -54 -4 c-30 -2 -77 -16
-106 -30 l-52 -26 -172 125 c-94 69 -180 134 -192 144 -25 23 -28 23 -44 4z
m514 -278 c-37 -40 -40 -42 -61 -29 -33 20 -29 30 20 52 73 33 85 26 41 -23z
m-73 -43 c20 -10 29 -20 25 -30 -3 -9 -6 -21 -6 -28 0 -7 -20 -22 -45 -34
l-45 -22 0 43 c0 37 21 87 36 87 3 0 19 -7 35 -16z m35 -129 c9 -19 32 -48 50
-65 19 -16 29 -30 22 -30 -27 1 -90 29 -124 55 l-36 28 28 23 c16 13 32 23 36
24 4 0 15 -16 24 -35z"/>
</g>
</svg>
