<?xml version="1.0" standalone="no"?>
<!DOCTYPE svg PUBLIC "-//W3C//DTD SVG 20010904//EN"
 "http://www.w3.org/TR/2001/REC-SVG-20010904/DTD/svg10.dtd">
<svg version="1.0" xmlns="http://www.w3.org/2000/svg"
 width="123.000000pt" height="135.000000pt" viewBox="0 0 123.000000 135.000000"
 preserveAspectRatio="xMidYMid meet">
<metadata>
Created by potrace 1.16, written by Peter Selinger 2001-2019
</metadata>
<g transform="translate(0.000000,135.000000) scale(0.100000,-0.100000)"
fill="#000000" stroke="none">
<path d="M310 1035 c-8 -10 -10 -19 -4 -25 26 -26 320 -225 392 -266 82 -46
116 -54 68 -16 l-25 19 70 47 c39 26 72 46 74 44 1 -2 5 -79 9 -171 l6 -168
-77 52 -77 52 24 19 c43 35 13 29 -61 -13 -124 -70 -389 -254 -396 -274 -1 -5
1 -16 6 -24 7 -11 50 17 192 121 101 73 189 137 195 141 6 3 56 -18 110 -48
94 -52 130 -67 108 -45 -6 6 -7 40 -2 87 9 109 10 311 0 317 -5 3 -54 -22
-111 -55 l-102 -60 -72 53 c-40 29 -125 92 -190 140 -65 49 -119 88 -121 88
-2 0 -9 -7 -16 -15z"/>
</g>
</svg>
