<?xml version="1.0" standalone="no"?>
<!DOCTYPE svg PUBLIC "-//W3C//DTD SVG 20010904//EN"
 "http://www.w3.org/TR/2001/REC-SVG-20010904/DTD/svg10.dtd">
<svg version="1.0" xmlns="http://www.w3.org/2000/svg"
 width="135.000000pt" height="134.000000pt" viewBox="0 0 135.000000 134.000000"
 preserveAspectRatio="xMidYMid meet">
<metadata>
Created by potrace 1.16, written by Peter Selinger 2001-2019
</metadata>
<g transform="translate(0.000000,134.000000) scale(0.100000,-0.100000)"
fill="#000000" stroke="none">
<path d="M555 1025 c-101 -27 -180 -62 -177 -78 1 -8 -6 -17 -16 -19 -30 -8
-57 -123 -57 -238 0 -107 16 -155 95 -294 42 -73 45 -76 89 -83 25 -4 98 -8
161 -8 103 0 125 3 215 33 55 18 106 36 113 41 16 10 71 274 72 341 0 25 -9
77 -21 116 l-21 72 -97 50 c-156 81 -243 98 -356 67z m238 -54 c41 -11 98 -30
126 -41 47 -21 51 -25 70 -83 25 -74 26 -144 3 -322 l-17 -130 -90 -24 c-105
-28 -302 -35 -395 -13 l-56 12 -27 73 c-63 167 -70 249 -34 386 l22 83 58 24
c136 57 219 66 340 35z"/>
<path d="M585 815 c-22 -8 -41 -15 -41 -15 -11 -1 -34 -79 -34 -115 0 -60 43
-153 77 -166 37 -14 92 -11 158 10 59 18 60 19 72 67 13 56 16 118 7 152 -9
31 -110 82 -161 82 -21 -1 -56 -7 -78 -15z m165 -29 c50 -18 62 -46 54 -136
-3 -41 -10 -79 -14 -83 -4 -4 -35 -15 -69 -23 -67 -15 -136 -7 -152 18 -26 39
-36 132 -20 187 12 44 123 65 201 37z"/>
</g>
</svg>
