<?xml version="1.0" standalone="no"?>
<!DOCTYPE svg PUBLIC "-//W3C//DTD SVG 20010904//EN"
 "http://www.w3.org/TR/2001/REC-SVG-20010904/DTD/svg10.dtd">
<svg version="1.0" xmlns="http://www.w3.org/2000/svg"
 width="215.000000pt" height="123.000000pt" viewBox="0 0 215.000000 123.000000"
 preserveAspectRatio="xMidYMid meet">
<metadata>
Created by potrace 1.16, written by Peter Selinger 2001-2019
</metadata>
<g transform="translate(0.000000,123.000000) scale(0.100000,-0.100000)"
fill="#000000" stroke="none">
<path d="M533 914 c-6 -16 42 -65 140 -141 l48 -38 -210 -3 c-203 -2 -211 -3
-211 -22 0 -19 7 -20 119 -20 108 0 119 -2 115 -17 -3 -16 95 -111 171 -168
18 -13 -3 -14 -192 -15 -211 0 -213 0 -213 -22 l0 -21 357 7 c197 4 361 10
366 15 4 4 -54 11 -130 14 l-138 7 -99 99 -99 99 232 7 c240 8 324 24 134 26
-168 2 -155 -4 -268 109 -55 55 -104 100 -108 100 -4 0 -10 -7 -14 -16z"/>
<path d="M1366 883 c-27 -3 -40 -10 -43 -24 -3 -10 -13 -19 -22 -19 -24 0 -72
-141 -79 -229 -5 -71 12 -149 49 -225 10 -22 19 -45 19 -51 0 -22 102 -35 276
-35 227 0 233 2 262 101 18 61 22 99 22 220 0 212 6 198 -103 234 -80 25 -109
29 -217 31 -69 1 -142 0 -164 -3z m164 -143 l0 -110 -135 0 c-74 0 -135 2
-135 4 0 17 52 165 63 180 15 21 69 33 155 35 l52 1 0 -110z m216 90 l52 -11
11 -75 c18 -123 18 -124 -31 -124 -24 0 -80 3 -125 7 l-83 6 0 110 0 110 63
-6 c34 -3 85 -11 113 -17z m71 -317 c-3 -48 -11 -109 -17 -134 -11 -43 -15
-47 -48 -53 -21 -3 -73 -6 -116 -6 l-79 0 6 133 c4 72 7 133 7 134 0 6 49 10
144 12 l109 2 -6 -88z m-283 -54 c4 -72 4 -134 2 -137 -6 -5 -142 20 -207 38
-35 10 -38 14 -53 75 -9 35 -16 85 -16 110 l0 45 134 0 133 0 7 -131z"/>
</g>
</svg>
