<?xml version="1.0" standalone="no"?>
<!DOCTYPE svg PUBLIC "-//W3C//DTD SVG 20010904//EN"
 "http://www.w3.org/TR/2001/REC-SVG-20010904/DTD/svg10.dtd">
<svg version="1.0" xmlns="http://www.w3.org/2000/svg"
 width="202.000000pt" height="89.000000pt" viewBox="0 0 202.000000 89.000000"
 preserveAspectRatio="xMidYMid meet">
<metadata>
Created by potrace 1.16, written by Peter Selinger 2001-2019
</metadata>
<g transform="translate(0.000000,89.000000) scale(0.100000,-0.100000)"
fill="#000000" stroke="none">
<path d="M555 534 c-44 -30 -85 -54 -92 -54 -6 0 -35 18 -63 41 -45 35 -54 39
-66 27 -12 -12 -6 -20 41 -55 l56 -41 -66 -41 c-36 -23 -65 -45 -65 -51 0 -25
28 -18 91 24 l69 46 97 -65 c53 -35 100 -61 103 -57 3 5 39 29 81 54 l76 46
359 6 c685 10 729 32 83 41 l-434 6 -91 65 c-51 35 -93 63 -95 63 -2 -1 -40
-26 -84 -55z m164 -40 l90 -57 -77 -39 c-42 -22 -81 -45 -86 -53 -8 -10 -26 0
-84 47 l-74 61 29 23 c37 31 43 30 43 -5 0 -17 4 -32 9 -35 10 -7 21 27 21 65
0 24 16 49 31 49 4 0 48 -25 98 -56z"/>
<path d="M660 430 c0 -27 4 -50 10 -50 11 0 24 65 16 85 -12 32 -26 13 -26
-35z"/>
</g>
</svg>
