<?xml version="1.0" standalone="no"?>
<!DOCTYPE svg PUBLIC "-//W3C//DTD SVG 20010904//EN"
 "http://www.w3.org/TR/2001/REC-SVG-20010904/DTD/svg10.dtd">
<svg version="1.0" xmlns="http://www.w3.org/2000/svg"
 width="148.000000pt" height="134.000000pt" viewBox="0 0 148.000000 134.000000"
 preserveAspectRatio="xMidYMid meet">
<metadata>
Created by potrace 1.16, written by Peter Selinger 2001-2019
</metadata>
<g transform="translate(0.000000,134.000000) scale(0.100000,-0.100000)"
fill="#000000" stroke="none">
<path d="M420 1031 c0 -7 -4 -10 -9 -7 -19 12 -70 -46 -91 -102 -19 -49 -21
-72 -18 -162 8 -188 67 -342 154 -403 60 -42 106 -52 244 -51 103 1 142 5 224
28 106 29 112 33 152 113 73 147 3 244 -207 284 -182 35 -273 59 -324 87 -53
29 -68 59 -40 82 19 16 19 26 -1 34 -25 10 -54 -22 -54 -59 0 -39 36 -76 102
-104 48 -20 259 -71 296 -71 32 0 113 -29 149 -53 17 -12 38 -33 47 -48 24
-40 21 -126 -6 -179 l-23 -45 -130 -18 c-159 -22 -332 -18 -372 9 -91 59 -158
212 -170 386 -7 104 9 158 61 206 34 30 35 31 98 22 95 -14 286 -12 464 6 258
25 248 34 -36 30 -236 -3 -361 2 -467 19 -31 5 -43 4 -43 -4z"/>
</g>
</svg>
