<?xml version="1.0" standalone="no"?>
<!DOCTYPE svg PUBLIC "-//W3C//DTD SVG 20010904//EN"
 "http://www.w3.org/TR/2001/REC-SVG-20010904/DTD/svg10.dtd">
<svg version="1.0" xmlns="http://www.w3.org/2000/svg"
 width="156.000000pt" height="183.000000pt" viewBox="0 0 156.000000 183.000000"
 preserveAspectRatio="xMidYMid meet">
<metadata>
Created by potrace 1.16, written by Peter Selinger 2001-2019
</metadata>
<g transform="translate(0.000000,183.000000) scale(0.100000,-0.100000)"
fill="#000000" stroke="none">
<path d="M300 1036 c0 -507 7 -736 22 -736 4 0 8 47 8 105 l0 105 98 71 c53
40 121 92 150 117 39 32 56 42 62 33 6 -10 48 -11 186 -6 l179 7 -92 -94 c-51
-51 -93 -102 -93 -112 0 -31 22 -13 118 96 l93 106 115 7 c63 4 114 11 114 15
0 4 -53 10 -117 13 -114 5 -119 7 -141 34 -67 80 -164 183 -173 183 -28 0 1
-44 78 -122 l88 -88 -175 0 -175 0 -50 41 c-28 23 -98 78 -157 122 -60 44
-108 84 -108 88 0 5 46 43 103 85 56 43 125 97 153 121 38 31 53 39 57 29 5
-12 37 -13 184 -9 l178 5 -92 -93 c-51 -51 -93 -102 -93 -112 0 -10 5 -17 12
-15 12 4 129 132 174 190 20 26 27 27 138 34 64 4 116 10 116 14 0 4 -53 10
-117 14 -112 6 -119 8 -141 34 -126 146 -159 181 -169 181 -32 2 -6 -41 74
-121 l88 -88 -174 0 -174 0 -91 73 c-151 120 -208 160 -233 163 l-23 2 0 -492z
m110 388 c25 -17 84 -56 132 -86 l86 -54 -144 -96 -144 -95 0 189 c0 149 3
188 13 182 6 -4 32 -22 57 -40z m93 -580 c64 -43 117 -80 116 -83 0 -3 -63
-47 -140 -98 l-139 -92 0 191 0 190 23 -16 c12 -8 75 -50 140 -92z"/>
</g>
</svg>
