<?xml version="1.0" standalone="no"?>
<!DOCTYPE svg PUBLIC "-//W3C//DTD SVG 20010904//EN"
 "http://www.w3.org/TR/2001/REC-SVG-20010904/DTD/svg10.dtd">
<svg version="1.0" xmlns="http://www.w3.org/2000/svg"
 width="162.000000pt" height="101.000000pt" viewBox="0 0 162.000000 101.000000"
 preserveAspectRatio="xMidYMid meet">
<metadata>
Created by potrace 1.16, written by Peter Selinger 2001-2019
</metadata>
<g transform="translate(0.000000,101.000000) scale(0.100000,-0.100000)"
fill="#000000" stroke="none">
<path d="M746 660 c-60 -27 -114 -54 -120 -60 -5 -5 -55 -10 -111 -11 -55 -1
-124 -4 -154 -7 -47 -6 -55 -10 -58 -31 -4 -30 17 -54 116 -133 197 -158 306
-156 558 8 45 29 80 47 77 40 -3 -8 33 -30 103 -63 122 -56 153 -68 153 -56 0
8 -15 17 -145 90 -44 24 -81 46 -84 48 -2 3 4 14 14 25 28 31 14 25 -87 -37
-123 -75 -244 -124 -322 -130 -45 -3 -57 -2 -46 6 8 6 30 11 48 11 20 0 31 4
27 10 -10 17 -83 12 -93 -6 -8 -14 -12 -14 -44 -1 -44 19 -118 65 -118 75 0 4
20 20 45 35 66 42 55 52 -16 16 l-61 -31 -36 29 c-20 16 -37 34 -39 40 -3 7
43 12 129 17 206 9 572 11 586 2 13 -8 252 112 252 127 0 11 -25 3 -156 -53
l-110 -47 -165 8 c-90 4 -173 8 -184 9 l-20 1 20 10 c100 54 165 94 165 101 0
13 -9 10 -124 -42z"/>
<path d="M580 500 c0 -5 20 -10 44 -10 25 0 48 5 51 10 4 6 -13 10 -44 10 -28
0 -51 -4 -51 -10z"/>
<path d="M720 494 c0 -11 5 -14 16 -10 9 3 31 6 50 6 21 0 33 4 29 10 -3 6
-26 10 -51 10 -34 0 -44 -4 -44 -16z"/>
<path d="M880 490 c0 -5 20 -10 44 -10 25 0 48 5 51 10 4 6 -13 10 -44 10 -28
0 -51 -4 -51 -10z"/>
<path d="M537 453 c-22 -21 18 -31 72 -16 23 6 23 7 5 14 -24 10 -69 11 -77 2z"/>
<path d="M670 438 c0 -9 15 -12 50 -10 65 5 65 22 0 22 -33 0 -50 -4 -50 -12z"/>
<path d="M817 443 c-16 -15 -5 -23 31 -23 52 0 73 15 32 24 -41 8 -55 8 -63
-1z"/>
</g>
</svg>
