<?xml version="1.0" standalone="no"?>
<!DOCTYPE svg PUBLIC "-//W3C//DTD SVG 20010904//EN"
 "http://www.w3.org/TR/2001/REC-SVG-20010904/DTD/svg10.dtd">
<svg version="1.0" xmlns="http://www.w3.org/2000/svg"
 width="130.000000pt" height="148.000000pt" viewBox="0 0 130.000000 148.000000"
 preserveAspectRatio="xMidYMid meet">
<metadata>
Created by potrace 1.16, written by Peter Selinger 2001-2019
</metadata>
<g transform="translate(0.000000,148.000000) scale(0.100000,-0.100000)"
fill="#000000" stroke="none">
<path d="M305 1170 c-4 -6 30 -45 75 -86 69 -65 79 -79 68 -92 -11 -13 -10
-15 5 -9 15 5 17 0 17 -41 l0 -46 -65 64 c-44 44 -68 61 -75 54 -7 -7 11 -31
59 -77 38 -37 65 -70 60 -73 -15 -9 -10 -24 6 -18 12 5 15 -2 15 -32 l0 -38
-65 64 c-44 44 -68 61 -75 54 -7 -7 12 -32 60 -79 50 -47 68 -71 61 -78 -17
-17 -13 -31 4 -17 13 11 15 8 15 -16 0 -28 -2 -27 -64 35 -40 40 -69 61 -76
56 -8 -5 11 -31 60 -80 63 -64 69 -73 55 -85 -14 -11 -22 -8 -58 28 -33 32
-46 39 -55 30 -9 -9 4 -25 53 -71 36 -32 65 -64 65 -71 0 -7 -9 -21 -20 -31
-11 -10 -18 -21 -15 -23 3 -3 16 5 29 17 l24 23 8 -119 c7 -100 9 -111 15 -73
4 25 8 74 8 109 1 51 4 62 13 53 22 -22 32 -12 10 11 -12 13 -22 27 -22 32 0
5 28 37 61 71 38 38 59 67 54 74 -5 8 -21 -2 -50 -30 -40 -39 -65 -46 -65 -17
0 7 27 39 60 72 54 53 73 85 53 85 -4 0 -30 -22 -58 -50 l-50 -49 -2 30 c-2
26 7 39 57 86 53 49 75 83 53 83 -4 0 -31 -23 -60 -52 l-52 -51 1 44 c0 41 5
48 59 97 52 47 74 82 52 82 -4 0 -31 -23 -59 -51 l-51 -51 -5 31 c-2 17 -1 31
4 31 4 0 7 8 5 18 -1 10 27 44 70 86 l73 69 72 -69 c45 -42 72 -76 71 -86 -2
-10 2 -18 7 -18 6 0 10 -19 10 -42 l0 -43 -62 63 c-42 42 -65 59 -72 52 -7 -7
12 -31 59 -74 65 -58 69 -65 55 -81 -14 -17 -13 -18 3 -12 14 5 17 0 17 -31
l0 -36 -64 63 c-44 43 -66 59 -71 51 -5 -8 17 -35 61 -75 56 -51 67 -66 57
-76 -17 -18 -16 -34 1 -20 11 9 15 6 18 -14 3 -14 2 -25 -1 -25 -4 0 -33 27
-66 60 -41 41 -62 57 -70 49 -7 -7 11 -29 59 -73 64 -58 68 -64 55 -84 -13
-21 -14 -21 -60 24 -32 31 -49 42 -54 34 -5 -7 18 -37 59 -79 l66 -67 -22 -21
c-29 -30 -18 -39 15 -12 l27 20 0 -115 c0 -71 4 -116 10 -116 6 0 10 42 10
107 0 83 3 104 12 95 24 -24 29 -11 7 19 l-22 32 68 62 c46 41 66 66 61 74 -6
9 -21 0 -55 -33 -37 -36 -49 -44 -59 -34 -20 20 -14 31 53 98 43 43 61 68 55
74 -7 7 -28 -7 -63 -42 l-52 -51 0 29 c0 23 14 44 64 93 42 44 59 67 51 72 -7
5 -33 -13 -66 -46 l-54 -53 3 42 c2 37 11 50 66 106 42 43 59 66 51 71 -7 5
-33 -13 -66 -46 l-54 -53 0 32 c0 18 5 32 11 32 8 0 8 4 0 14 -9 11 5 29 71
90 64 60 79 79 69 89 -7 7 -14 8 -19 2 -4 -6 -40 -41 -80 -80 l-72 -69 -78 77
c-42 42 -84 77 -92 77 -8 0 -50 -35 -92 -77 l-78 -78 -78 78 c-42 42 -80 77
-84 77 -4 0 -10 -5 -13 -10z m165 -572 c-1 -31 -1 -32 -15 -14 -11 14 -12 23
-4 33 17 19 19 17 19 -19z m348 0 c3 -31 2 -32 -14 -16 -14 14 -15 20 -4 32
16 21 15 21 18 -16z"/>
</g>
</svg>
