<?xml version="1.0" standalone="no"?>
<!DOCTYPE svg PUBLIC "-//W3C//DTD SVG 20010904//EN"
 "http://www.w3.org/TR/2001/REC-SVG-20010904/DTD/svg10.dtd">
<svg version="1.0" xmlns="http://www.w3.org/2000/svg"
 width="181.000000pt" height="359.000000pt" viewBox="0 0 181.000000 359.000000"
 preserveAspectRatio="xMidYMid meet">
<metadata>
Created by potrace 1.16, written by Peter Selinger 2001-2019
</metadata>
<g transform="translate(0.000000,359.000000) scale(0.100000,-0.100000)"
fill="#000000" stroke="none">
<path d="M890 3152 c0 -177 10 -327 21 -310 5 7 9 111 9 231 0 186 -2 217 -15
217 -13 0 -15 -22 -15 -138z"/>
<path d="M686 3251 c-5 -8 69 -213 137 -376 l25 -60 -33 -22 c-82 -55 -76
-194 11 -245 l34 -20 1 -146 c0 -165 12 -225 22 -123 4 35 7 108 7 162 0 55 4
99 9 99 5 0 16 3 25 6 14 5 16 -8 17 -102 1 -131 12 -235 22 -214 4 9 6 85 5
170 l-3 155 27 17 c59 38 78 137 39 204 l-21 36 88 96 c171 189 214 242 208
257 -3 8 -9 15 -13 14 -8 0 -94 -104 -224 -269 -66 -85 -78 -96 -92 -85 -16
11 -15 17 12 78 70 156 143 359 132 370 -7 7 -14 7 -19 2 -10 -12 -78 -199
-122 -337 l-31 -98 -43 0 -44 0 -46 138 c-92 276 -112 323 -130 293z"/>
<path d="M512 3152 c-7 -2 -12 -8 -12 -14 0 -18 286 -338 302 -338 11 0 -44
72 -180 238 -54 65 -103 117 -110 114z"/>
<path d="M370 2986 c-13 -17 -12 -18 135 -98 234 -127 257 -139 263 -133 7 6
14 1 -83 62 -207 130 -304 182 -315 169z"/>
<path d="M1325 2938 c-92 -55 -275 -167 -284 -175 -2 -2 -2 -5 1 -8 10 -11
398 204 398 220 0 27 -17 22 -115 -37z"/>
<path d="M300 2782 c0 -22 -15 -18 245 -57 88 -14 171 -25 185 -25 55 1 -11
20 -190 54 -102 20 -197 39 -212 42 -23 5 -28 2 -28 -14z"/>
<path d="M1290 2759 c-107 -21 -204 -43 -215 -48 l-20 -10 20 0 c11 -1 94 10
185 23 260 38 250 36 250 57 0 23 14 25 -220 -22z"/>
<path d="M780 2418 c0 -62 3 -138 7 -168 11 -89 21 -26 22 138 1 120 -1 142
-14 142 -12 0 -15 -19 -15 -112z"/>
<path d="M1020 2411 c0 -65 3 -140 7 -167 11 -81 21 -18 22 144 1 120 -1 142
-14 142 -12 0 -15 -20 -15 -119z"/>
<path d="M785 1690 c-3 -6 12 -43 34 -84 46 -82 46 -85 27 -111 -13 -18 -16
-14 -45 44 -18 36 -37 60 -44 58 -17 -6 -15 -10 52 -126 33 -57 58 -108 55
-113 -3 -4 -1 -8 4 -8 15 0 132 214 122 224 -12 12 -8 17 -67 -92 l-50 -93
-13 31 c-11 25 -10 35 0 56 9 16 17 21 24 14 18 -18 26 -11 15 13 -9 20 -5 33
25 84 34 58 45 93 29 93 -5 0 -23 -28 -42 -61 -37 -68 -34 -69 -82 24 -31 60
-34 63 -44 47z"/>
<path d="M730 1487 c0 -7 29 -63 65 -125 56 -96 65 -119 65 -159 l-1 -48 -25
50 c-69 133 -96 177 -107 166 -7 -7 12 -47 63 -133 68 -116 73 -127 78 -195 2
-40 9 -73 13 -73 5 0 9 32 9 71 0 69 1 73 65 180 71 119 75 130 59 136 -6 2
-35 -42 -65 -97 l-54 -100 -3 40 c-3 35 6 57 57 144 65 111 71 126 56 132 -6
2 -32 -36 -58 -86 -66 -122 -75 -122 -145 10 -49 92 -72 120 -72 87z"/>
<path d="M400 1414 c0 -4 9 -38 21 -76 11 -39 18 -72 16 -74 -2 -3 -32 3 -66
12 -59 17 -79 15 -68 -4 3 -4 39 -17 80 -27 62 -15 76 -23 85 -44 10 -26 10
-26 11 -2 1 17 5 21 17 17 9 -3 22 -6 29 -6 7 0 18 -13 24 -30 12 -37 12 -37
-98 -5 -98 29 -101 29 -101 12 0 -7 43 -23 109 -40 86 -23 115 -35 137 -58 15
-16 25 -29 23 -29 -5 0 -135 38 -191 56 -12 3 -18 0 -18 -10 0 -16 5 -18 155
-56 71 -18 97 -30 125 -57 l35 -33 -55 16 c-168 50 -180 53 -180 39 0 -16 -2
-15 148 -54 63 -16 120 -35 128 -42 21 -17 28 -4 11 23 -8 12 -29 83 -48 155
-18 73 -39 135 -46 137 -19 8 -16 -10 21 -135 19 -62 34 -114 33 -115 -1 -2
-17 15 -35 36 -26 31 -39 65 -65 166 -18 70 -38 129 -45 132 -19 6 -14 -27 18
-128 16 -52 30 -96 30 -98 0 -1 -15 15 -33 35 -26 29 -40 62 -62 141 -18 66
-32 102 -41 102 -17 0 -18 8 5 -73 14 -47 16 -67 8 -67 -28 1 -43 24 -67 101
-14 45 -31 84 -38 87 -6 2 -12 0 -12 -4z"/>
<path d="M1335 1408 c-2 -7 -13 -46 -24 -87 -11 -41 -22 -75 -23 -77 -2 -1
-15 -5 -30 -9 l-26 -7 19 62 c22 73 23 80 6 80 -7 0 -22 -37 -36 -92 -24 -95
-46 -141 -79 -171 -17 -15 -15 -3 13 90 18 59 31 112 28 117 -12 19 -32 -29
-59 -138 -23 -96 -33 -120 -65 -157 l-38 -44 38 125 c21 69 36 129 33 133 -11
21 -32 -27 -62 -148 -43 -167 -45 -169 -115 -166 -42 2 -63 -3 -90 -19 -91
-56 -90 -198 1 -252 l34 -20 1 -146 c1 -167 12 -226 22 -117 4 39 7 113 7 165
0 94 0 95 25 96 l25 2 1 -102 c2 -128 13 -236 22 -216 4 9 6 85 5 170 l-3 155
27 17 c76 48 80 190 8 241 -32 22 -8 34 141 73 73 18 134 36 137 38 2 3 1 9
-2 14 -5 8 -77 -9 -216 -53 -23 -7 -23 -5 9 29 19 20 39 36 45 36 5 0 63 14
128 31 78 21 118 36 118 45 0 18 10 19 -110 -16 -56 -17 -104 -29 -106 -27 -2
2 9 15 24 29 19 19 59 35 136 55 61 16 112 35 114 43 6 16 -39 9 -125 -20 -79
-27 -87 -26 -78 7 8 33 4 29 37 37 22 5 27 2 31 -16 3 -23 4 -23 14 3 9 21 24
29 80 44 37 10 72 21 77 26 21 19 -7 21 -65 5 -33 -10 -62 -16 -65 -14 -2 2 5
33 16 69 23 73 24 89 10 89 -6 0 -13 -6 -15 -12z"/>
<path d="M780 518 c0 -62 3 -138 7 -168 6 -49 8 -52 14 -25 4 17 7 92 8 168 1
116 -1 137 -14 137 -12 0 -15 -19 -15 -112z"/>
<path d="M1020 518 c0 -62 3 -138 7 -168 11 -89 21 -26 22 138 1 120 -1 142
-14 142 -12 0 -15 -19 -15 -112z"/>
</g>
</svg>
