<?xml version="1.0" standalone="no"?>
<!DOCTYPE svg PUBLIC "-//W3C//DTD SVG 20010904//EN"
 "http://www.w3.org/TR/2001/REC-SVG-20010904/DTD/svg10.dtd">
<svg version="1.0" xmlns="http://www.w3.org/2000/svg"
 width="136.000000pt" height="152.000000pt" viewBox="0 0 136.000000 152.000000"
 preserveAspectRatio="xMidYMid meet">
<metadata>
Created by potrace 1.16, written by Peter Selinger 2001-2019
</metadata>
<g transform="translate(0.000000,152.000000) scale(0.100000,-0.100000)"
fill="#000000" stroke="none">
<path d="M625 1210 c-3 -5 -16 -10 -27 -10 l-21 0 6 -361 6 -362 -22 19 c-12
11 -71 64 -130 118 -99 90 -110 98 -124 83 -18 -18 -35 0 156 -167 119 -104
121 -106 122 -150 1 -25 2 -53 1 -62 -2 -23 8 -23 62 4 44 21 46 21 66 3 26
-24 39 -11 15 15 -11 12 -13 20 -6 20 7 0 49 24 94 54 147 97 241 221 235 309
-2 27 -7 41 -15 40 -7 -2 -22 16 -34 40 -56 109 -169 249 -278 341 -83 71 -98
80 -106 66z m60 -80 l44 -35 1 -210 c0 -116 3 -274 7 -351 6 -139 6 -142 -16
-154 -20 -10 -27 -7 -64 32 l-42 43 3 358 c1 226 6 357 12 355 6 -2 30 -19 55
-38z m259 -279 c81 -107 86 -133 45 -218 -24 -51 -144 -175 -199 -207 l-33
-19 6 129 c4 71 7 217 7 324 l1 195 51 -55 c28 -30 83 -97 122 -149z m-291
-474 l27 -23 -35 -17 -35 -17 0 40 c0 46 5 48 43 17z"/>
</g>
</svg>
