<?xml version="1.0" standalone="no"?>
<!DOCTYPE svg PUBLIC "-//W3C//DTD SVG 20010904//EN"
 "http://www.w3.org/TR/2001/REC-SVG-20010904/DTD/svg10.dtd">
<svg version="1.0" xmlns="http://www.w3.org/2000/svg"
 width="227.000000pt" height="150.000000pt" viewBox="0 0 227.000000 150.000000"
 preserveAspectRatio="xMidYMid meet">
<metadata>
Created by potrace 1.16, written by Peter Selinger 2001-2019
</metadata>
<g transform="translate(0.000000,150.000000) scale(0.100000,-0.100000)"
fill="#000000" stroke="none">
<path d="M595 1186 c-11 -7 -82 -46 -157 -86 -113 -59 -138 -77 -138 -94 0
-52 548 -391 571 -354 5 7 9 72 10 143 1 129 5 184 12 191 2 2 128 7 280 10
l277 7 0 -71 c0 -41 4 -72 10 -72 6 0 10 19 10 43 0 23 4 56 8 72 4 17 5 48 2
70 -4 33 -9 40 -25 38 -201 -25 -443 -45 -612 -50 l-212 -6 6 86 c6 93 2 101
-42 73z m15 -85 c0 -47 -4 -70 -12 -72 -7 -2 -61 -2 -120 1 l-107 5 117 67
c64 37 118 68 120 68 1 0 2 -31 2 -69z m840 -61 c0 -19 -6 -20 -152 -19 l-153
1 120 18 c170 24 185 24 185 0z m-597 -212 c4 -89 5 -164 2 -166 -10 -10 -505
307 -505 324 0 2 112 4 248 3 l249 0 6 -161z"/>
<path d="M1179 862 c-22 -23 -39 -155 -39 -302 0 -110 2 -120 26 -156 56 -82
107 -104 244 -104 128 0 550 27 559 36 3 3 -147 4 -334 2 l-340 -3 -39 24
c-52 33 -96 103 -96 155 0 31 3 37 12 28 13 -13 92 -16 175 -6 87 11 49 24
-69 24 l-111 0 7 96 c3 52 11 118 17 145 l11 49 94 0 94 0 1 -72 c1 -40 4
-104 8 -143 5 -64 8 -71 34 -83 25 -12 27 -18 28 -75 1 -102 17 -115 18 -14
l1 87 30 0 c28 0 30 -2 30 -39 0 -61 12 -131 21 -125 5 3 9 41 9 85 0 72 2 79
20 79 17 0 20 -7 20 -42 0 -59 11 -118 21 -118 5 0 9 36 9 80 0 71 2 80 19 80
16 0 19 -11 25 -80 4 -44 12 -80 17 -80 5 0 9 35 9 79 0 70 2 79 20 84 17 4
20 0 20 -26 0 -58 13 -137 21 -137 5 0 9 38 9 85 0 78 2 85 20 85 16 0 20 -7
20 -32 0 -58 13 -138 21 -138 5 0 9 41 9 90 l0 90 45 0 c25 0 48 0 53 0 4 0
10 -30 13 -67 l5 -68 2 78 2 77 -275 -5 -275 -4 0 143 0 143 -37 7 c-77 12
-187 6 -204 -12z"/>
</g>
</svg>
