<?xml version="1.0" standalone="no"?>
<!DOCTYPE svg PUBLIC "-//W3C//DTD SVG 20010904//EN"
 "http://www.w3.org/TR/2001/REC-SVG-20010904/DTD/svg10.dtd">
<svg version="1.0" xmlns="http://www.w3.org/2000/svg"
 width="193.000000pt" height="421.000000pt" viewBox="0 0 193.000000 421.000000"
 preserveAspectRatio="xMidYMid meet">
<metadata>
Created by potrace 1.16, written by Peter Selinger 2001-2019
</metadata>
<g transform="translate(0.000000,421.000000) scale(0.100000,-0.100000)"
fill="#000000" stroke="none">
<path d="M554 3899 c-3 -6 -2 -14 2 -19 9 -7 234 -90 342 -125 63 -20 81 -13
26 10 -79 34 -353 145 -358 145 -3 0 -8 -5 -12 -11z"/>
<path d="M1006 3795 c-17 -13 -18 -25 -12 -187 4 -95 11 -245 17 -333 6 -109
6 -161 -1 -163 -7 -3 -6 -10 1 -24 6 -11 16 -17 23 -15 7 3 66 45 132 94 65
49 143 106 171 126 l53 38 37 -30 c46 -36 112 -61 164 -61 l39 0 0 176 0 177
-52 -7 c-29 -4 -77 -18 -106 -32 l-52 -26 -187 137 c-103 76 -192 139 -198
141 -5 2 -18 -3 -29 -11z m184 -151 c47 -34 113 -78 147 -98 l61 -38 -19 -41
c-12 -27 -16 -54 -13 -77 5 -32 2 -37 -33 -56 -21 -12 -95 -63 -165 -113
l-128 -90 0 311 0 310 33 -24 c17 -13 70 -51 117 -84z m360 -94 c-14 -10 -34
-31 -46 -45 -20 -26 -21 -26 -44 -7 l-24 19 34 18 c67 35 118 44 80 15z m-72
-85 c2 -1 0 -15 -4 -29 -6 -27 -75 -72 -88 -59 -12 12 -6 65 11 93 16 28 17
28 47 13 17 -9 32 -17 34 -18z m6 -100 c4 -14 23 -43 42 -65 21 -23 30 -40 23
-40 -23 0 -113 45 -129 65 -13 16 -12 20 15 41 38 30 41 30 49 -1z"/>
<path d="M553 3764 c-3 -8 -4 -16 -2 -18 4 -4 348 -129 387 -141 12 -3 22 -2
22 3 0 5 -8 12 -17 15 -10 3 -100 39 -201 81 -149 61 -184 73 -189 60z"/>
<path d="M554 3619 c-12 -20 2 -26 279 -123 131 -47 170 -48 70 -3 -52 23
-334 137 -340 137 -1 0 -5 -5 -9 -11z"/>
<path d="M550 3467 c0 -8 42 -30 103 -52 159 -59 300 -105 305 -100 6 6 -72
41 -247 111 -143 57 -161 62 -161 41z"/>
<path d="M554 3339 c-3 -6 -2 -14 2 -19 21 -19 404 -153 404 -141 0 4 -12 14
-27 21 -32 14 -365 150 -369 150 -2 0 -6 -5 -10 -11z"/>
<path d="M584 2569 c-3 -6 -2 -14 2 -19 7 -6 300 -115 390 -145 12 -4 24 -60
24 -114 0 -23 -4 -31 -12 -28 -164 71 -386 156 -395 152 -7 -2 -13 -9 -13 -14
0 -9 296 -122 377 -144 41 -11 43 -13 43 -49 0 -22 5 -115 11 -209 8 -133 8
-174 -2 -185 -10 -12 -9 -18 3 -30 13 -14 36 0 213 130 l197 145 37 -23 c20
-13 60 -35 88 -49 l52 -27 -2 23 c-1 12 2 89 7 170 6 101 5 152 -2 159 -7 7
-34 -3 -88 -33 -43 -24 -82 -45 -86 -47 -8 -4 -358 249 -378 273 -7 8 -23 15
-36 15 -22 0 -24 -4 -24 -51 0 -37 -3 -50 -12 -46 -39 17 -381 157 -384 157
-1 0 -6 -5 -10 -11z m649 -253 c111 -77 238 -149 246 -140 3 3 -2 11 -12 18
-15 12 -11 17 39 50 31 21 57 36 59 34 1 -2 5 -67 7 -145 l5 -141 -63 41 -63
42 21 23 c12 12 17 22 12 22 -17 0 -193 -107 -308 -189 -61 -43 -117 -81 -123
-85 -10 -6 -13 57 -13 299 l0 307 51 -36 c27 -20 91 -65 142 -100z"/>
<path d="M585 2242 c-3 -8 -4 -16 -3 -17 18 -12 396 -145 412 -145 33 0 -84
54 -301 138 -85 33 -103 37 -108 24z"/>
<path d="M584 2069 c-3 -6 -2 -14 2 -19 20 -18 404 -152 404 -141 0 4 -12 14
-27 21 -32 14 -365 150 -369 150 -2 0 -6 -5 -10 -11z"/>
<path d="M1008 1026 c-11 -8 -18 -26 -18 -45 0 -32 -1 -33 -37 -27 -21 3 -176
8 -345 12 l-308 6 0 -26 0 -26 173 1 c94 0 249 4 342 8 94 4 171 7 171 7 1 -1
4 -31 8 -68 l6 -66 -147 4 c-82 2 -239 6 -350 8 l-203 5 0 -25 0 -24 193 1
c105 1 263 4 350 7 l157 7 0 -66 0 -66 -232 3 c-128 3 -286 6 -350 8 l-118 3
0 -25 0 -25 349 7 348 6 7 -31 c3 -17 6 -46 6 -63 l0 -32 -355 4 -355 5 0 -23
0 -23 355 6 c342 7 355 6 355 -12 0 -10 3 -32 6 -50 l6 -31 -361 7 -361 6 0
-27 0 -27 137 5 c340 14 583 16 583 7 0 -5 -5 -11 -10 -13 -7 -2 -5 -10 3 -22
13 -18 24 -12 195 113 l181 133 38 -30 c44 -35 118 -62 168 -62 l35 0 0 176 0
177 -52 -6 c-28 -4 -76 -18 -105 -33 l-53 -26 -191 141 c-104 78 -193 141
-197 141 -4 0 -15 -7 -24 -14z m284 -218 l106 -70 -19 -42 c-12 -26 -16 -53
-13 -76 5 -33 3 -37 -37 -59 -24 -13 -96 -62 -160 -107 -65 -46 -120 -84 -123
-84 -4 0 -6 138 -6 306 l0 305 73 -52 c39 -28 120 -83 179 -121z m234 -51
c-39 -41 -42 -43 -64 -29 -29 19 -17 34 43 56 62 23 65 19 21 -27z m-78 -44
c15 -9 28 -18 30 -19 2 -1 0 -13 -3 -26 -7 -26 -76 -73 -89 -61 -11 12 -6 63
9 93 18 35 18 35 53 13z m40 -127 c7 -19 29 -48 48 -65 26 -23 30 -31 17 -31
-26 0 -115 44 -133 65 -13 16 -12 20 15 41 17 13 32 24 35 24 4 0 12 -15 18
-34z"/>
</g>
</svg>
