<?xml version="1.0" standalone="no"?>
<!DOCTYPE svg PUBLIC "-//W3C//DTD SVG 20010904//EN"
 "http://www.w3.org/TR/2001/REC-SVG-20010904/DTD/svg10.dtd">
<svg version="1.0" xmlns="http://www.w3.org/2000/svg"
 width="167.000000pt" height="269.000000pt" viewBox="0 0 167.000000 269.000000"
 preserveAspectRatio="xMidYMid meet">
<metadata>
Created by potrace 1.16, written by Peter Selinger 2001-2019
</metadata>
<g transform="translate(0.000000,269.000000) scale(0.100000,-0.100000)"
fill="#000000" stroke="none">
<path d="M572 2360 c-64 -33 -162 -127 -223 -216 -18 -27 -36 -50 -41 -52 -4
-2 -8 -9 -8 -16 0 -21 58 -104 85 -122 26 -17 26 -17 71 27 24 24 46 51 50 61
7 22 -18 74 -52 111 -38 41 -41 25 -5 -29 17 -26 31 -52 31 -57 0 -16 -50 -97
-60 -97 -15 0 -64 46 -82 77 l-17 30 78 89 c101 115 119 131 136 119 7 -6 36
-29 63 -53 28 -23 53 -38 56 -33 4 5 -21 31 -54 57 -33 26 -60 48 -60 50 0 2
9 8 20 14 18 10 29 4 80 -37 33 -26 62 -47 65 -45 12 6 3 16 -50 57 -52 41
-55 45 -35 55 24 13 28 11 101 -52 31 -26 62 -48 69 -48 18 0 -14 34 -73 77
-26 19 -46 38 -43 40 13 13 79 -24 146 -82 74 -64 90 -74 90 -56 0 12 -116
119 -155 142 -46 29 -111 24 -183 -11z"/>
<path d="M495 1920 c-7 -12 91 -107 177 -172 l50 -38 -171 0 c-164 0 -171 -1
-171 -20 0 -19 7 -20 238 -20 274 0 542 10 542 20 0 4 -93 10 -207 14 l-208 7
-107 107 c-108 107 -130 123 -143 102z"/>
<path d="M887 1083 c-10 -16 -76 -262 -92 -337 -14 -71 -14 -84 -1 -131 21
-70 82 -138 144 -160 69 -24 178 -30 297 -15 l104 13 16 45 c17 51 20 132 5
132 -21 0 -23 -7 -24 -77 0 -39 -4 -74 -8 -78 -13 -13 -262 -18 -318 -6 -103
22 -137 41 -167 96 -46 85 -41 116 74 508 5 17 -21 25 -30 10z"/>
<path d="M917 888 c-39 -158 -62 -286 -53 -295 8 -8 9 -4 61 212 25 105 48
198 51 208 3 11 0 17 -9 17 -10 0 -25 -41 -50 -142z"/>
<path d="M971 798 c-34 -165 -44 -244 -27 -227 2 2 16 58 31 124 14 66 28 128
31 138 3 11 0 17 -10 17 -10 0 -18 -17 -25 -52z"/>
<path d="M1041 788 c-17 -80 -28 -188 -21 -193 4 -2 17 46 30 108 13 62 25
118 28 125 2 6 -3 12 -11 12 -11 0 -19 -17 -26 -52z"/>
<path d="M1050 636 c0 -9 2 -16 4 -16 2 0 61 -9 132 -20 149 -23 144 -23 144
-12 0 5 -55 19 -122 31 -68 13 -131 25 -140 28 -12 3 -18 -1 -18 -11z"/>
<path d="M624 538 c-8 -12 66 -86 158 -159 l50 -39 -231 0 c-224 0 -231 -1
-231 -20 0 -19 7 -20 248 -20 293 0 532 10 532 22 0 4 -55 8 -122 9 -68 1
-133 4 -144 7 -12 4 -70 53 -129 110 -59 56 -111 102 -116 102 -4 0 -11 -5
-15 -12z"/>
</g>
</svg>
