<?xml version="1.0" standalone="no"?>
<!DOCTYPE svg PUBLIC "-//W3C//DTD SVG 20010904//EN"
 "http://www.w3.org/TR/2001/REC-SVG-20010904/DTD/svg10.dtd">
<svg version="1.0" xmlns="http://www.w3.org/2000/svg"
 width="217.000000pt" height="293.000000pt" viewBox="0 0 217.000000 293.000000"
 preserveAspectRatio="xMidYMid meet">
<metadata>
Created by potrace 1.16, written by Peter Selinger 2001-2019
</metadata>
<g transform="translate(0.000000,293.000000) scale(0.100000,-0.100000)"
fill="#000000" stroke="none">
<path d="M551 2616 c-9 -11 5 -28 71 -87 46 -41 96 -83 111 -94 l27 -20 -230
3 -230 4 0 -27 0 -26 130 3 c116 3 155 -2 118 -14 -13 -5 78 -94 160 -158 l45
-35 -226 -3 c-219 -2 -227 -3 -227 -22 0 -19 7 -20 223 -20 267 0 557 10 557
20 0 4 -65 10 -145 13 l-144 6 -106 103 -106 103 43 7 c24 3 99 7 168 7 166 1
300 12 275 22 -11 4 -76 8 -145 8 l-125 1 -110 110 c-60 61 -113 110 -116 110
-4 0 -12 -6 -18 -14z"/>
<path d="M465 1863 c4 -60 12 -119 19 -133 15 -32 87 -86 134 -100 62 -19 184
-23 278 -9 49 7 93 13 99 13 13 1 44 84 44 122 1 55 -17 68 -89 61 -35 -4 -69
-12 -76 -18 -18 -14 -39 -113 -29 -136 6 -13 11 -3 20 41 7 33 20 65 29 72 26
19 98 27 108 12 10 -15 1 -119 -12 -131 -4 -5 -72 -9 -151 -10 l-144 -2 -9 83
c-4 45 -12 82 -18 82 -6 0 -7 -30 -2 -80 5 -65 4 -80 -7 -80 -29 0 -37 17 -41
87 -3 66 -11 93 -23 82 -2 -3 -1 -37 3 -77 5 -40 5 -72 2 -72 -3 0 -14 6 -23
13 -13 9 -19 32 -23 87 -6 86 -10 103 -22 96 -5 -3 -5 -40 0 -82 4 -42 6 -79
4 -81 -3 -3 -12 9 -21 27 -10 20 -18 69 -22 136 -5 81 -9 104 -20 104 -13 0
-14 -17 -8 -107z"/>
<path d="M1387 953 c-9 -15 -77 -263 -92 -335 -9 -40 -13 -87 -9 -107 17 -91
87 -170 173 -195 64 -19 198 -21 305 -5 l75 11 16 42 c20 51 17 130 -5 134
-12 2 -15 -11 -15 -72 0 -41 -4 -78 -8 -82 -14 -14 -283 -17 -334 -5 -93 24
-129 47 -154 98 -35 71 -30 137 26 328 26 88 48 166 48 174 2 15 -19 27 -26
14z"/>
<path d="M1420 773 c-45 -181 -72 -338 -54 -320 3 3 28 95 55 204 26 109 51
208 55 221 5 16 2 22 -9 22 -10 0 -23 -35 -47 -127z"/>
<path d="M551 866 c-9 -11 4 -28 71 -87 46 -41 97 -84 113 -96 l30 -22 -232 6
-233 6 0 -27 0 -26 131 0 c108 0 129 -2 121 -13 -9 -10 8 -31 76 -90 48 -42
96 -83 107 -91 18 -14 -3 -15 -208 -16 -228 0 -228 0 -225 -21 3 -22 5 -22
238 -20 291 1 540 11 540 21 0 4 -65 9 -145 12 l-145 3 -105 105 -106 105 68
6 c38 4 127 7 198 8 72 1 155 4 185 8 l55 7 -40 7 c-22 5 -87 8 -145 8 l-105
1 -110 110 c-60 60 -113 110 -116 110 -4 0 -12 -6 -18 -14z"/>
<path d="M1471 668 c-34 -165 -44 -244 -27 -227 2 2 16 58 31 124 14 66 28
128 31 138 3 11 0 17 -10 17 -10 0 -18 -17 -25 -52z"/>
<path d="M1541 663 c-5 -27 -13 -73 -16 -103 -3 -30 -8 -65 -11 -77 -2 -13 -1
-23 4 -23 5 0 19 48 31 108 12 59 25 115 27 125 4 11 0 17 -9 17 -10 0 -19
-17 -26 -47z"/>
<path d="M1621 628 c-6 -35 -14 -75 -17 -90 -4 -21 -11 -28 -30 -28 -32 0 -31
-18 1 -26 17 -4 25 -13 26 -28 0 -21 0 -21 10 0 8 15 17 19 40 16 23 -3 29 -9
30 -31 0 -26 0 -26 11 -3 7 14 20 22 36 22 21 0 24 -4 20 -25 -7 -33 8 -42 16
-10 5 20 13 25 37 25 18 0 28 4 24 10 -3 6 -15 10 -26 10 -23 0 -24 22 -4 105
18 75 18 75 1 75 -8 0 -17 -15 -21 -37 -19 -107 -27 -133 -41 -133 -24 0 -26
21 -9 99 18 88 18 91 2 91 -9 0 -18 -29 -28 -87 l-14 -88 -30 3 c-17 2 -31 5
-32 5 0 1 7 40 18 87 22 103 22 100 5 100 -9 0 -17 -22 -25 -62z"/>
</g>
</svg>
