<?xml version="1.0" standalone="no"?>
<!DOCTYPE svg PUBLIC "-//W3C//DTD SVG 20010904//EN"
 "http://www.w3.org/TR/2001/REC-SVG-20010904/DTD/svg10.dtd">
<svg version="1.0" xmlns="http://www.w3.org/2000/svg"
 width="173.000000pt" height="354.000000pt" viewBox="0 0 173.000000 354.000000"
 preserveAspectRatio="xMidYMid meet">
<metadata>
Created by potrace 1.16, written by Peter Selinger 2001-2019
</metadata>
<g transform="translate(0.000000,354.000000) scale(0.100000,-0.100000)"
fill="#000000" stroke="none">
<path d="M740 3190 c-241 -82 -343 -143 -380 -227 -57 -130 -73 -236 -47 -330
11 -43 18 -51 95 -101 117 -76 410 -191 460 -179 10 2 1 9 -25 17 -47 14 -49
17 -29 43 12 16 18 17 36 7 14 -7 21 -8 19 -2 -5 14 -215 172 -228 172 -5 0
-32 -23 -59 -52 l-50 -52 -73 44 c-106 63 -126 85 -134 152 -8 66 4 129 45
236 29 76 32 79 102 125 40 26 78 47 84 47 7 0 30 -20 51 -44 l39 -44 119 75
c134 82 153 98 114 88 -17 -4 -30 -1 -38 9 -17 20 -7 33 29 41 31 7 52 25 28
25 -7 0 -78 -23 -158 -50z m84 -22 c14 -19 14 -23 -2 -34 -15 -12 -20 -10 -39
14 -21 25 -21 27 -5 34 27 10 30 9 46 -14z m-52 -60 c-10 -10 -18 -7 -40 15
-23 23 -25 29 -12 37 22 14 70 -34 52 -52z m-52 -32 c-15 -7 -25 -2 -44 20
-30 35 -32 41 -8 46 10 3 28 -8 44 -26 25 -29 25 -32 8 -40z m-58 10 l27 -33
-24 -11 c-22 -10 -27 -7 -55 28 -21 26 -26 40 -18 43 27 11 44 4 70 -27z m8
-544 c0 -4 -17 -24 -36 -46 -29 -31 -40 -36 -56 -29 -19 8 -18 11 18 55 31 36
43 43 57 36 9 -5 17 -12 17 -16z m37 -23 c15 -15 -34 -79 -59 -79 -25 0 -22
17 10 55 31 38 34 39 49 24z m57 -37 c8 -13 -50 -64 -68 -60 -13 2 -11 9 10
36 25 31 48 41 58 24z m41 -33 c9 -14 -24 -49 -47 -49 -22 0 -23 5 0 35 18 26
37 32 47 14z"/>
<path d="M865 3013 c-25 -32 -45 -60 -45 -63 0 -3 -50 -6 -112 -5 -87 0 -112
-3 -116 -14 -4 -12 13 -13 105 -8 l110 7 -16 -49 -15 -50 -81 6 c-100 7 -106
2 -98 -85 l6 -62 111 0 111 0 49 -50 c27 -28 56 -50 65 -50 18 0 401 228 401
239 0 13 -386 241 -409 241 -13 0 -37 -21 -66 -57z m265 -79 l191 -107 -102
-54 c-56 -30 -144 -79 -196 -110 l-94 -55 -34 39 c-78 87 -104 186 -69 256 23
44 93 137 104 137 5 0 95 -48 200 -106z m-320 -222 c0 -2 -43 -2 -95 0 -52 3
-95 7 -95 11 0 4 0 25 0 47 l0 39 78 3 77 3 17 -50 c10 -27 18 -52 18 -53z"/>
<path d="M1240 1394 c-426 -57 -660 -128 -760 -231 -100 -103 -164 -250 -163
-378 0 -93 16 -142 74 -231 39 -60 40 -61 152 -106 179 -73 311 -103 577 -133
144 -16 314 -19 270 -5 -14 4 -44 8 -67 9 -71 2 -74 6 -44 62 19 35 30 47 41
43 23 -10 66 -17 60 -11 -3 3 -101 50 -217 104 l-211 99 191 115 c105 63 192
120 194 126 2 6 -84 64 -192 129 -108 64 -192 120 -188 124 4 4 62 28 128 54
218 85 295 119 295 127 0 5 -12 4 -26 -1 -14 -6 -27 -10 -29 -10 -3 0 -55 89
-55 95 0 1 27 6 61 9 33 4 70 11 82 16 34 13 -48 11 -173 -6z m30 -70 c18 -25
30 -47 28 -49 -1 -1 -20 -10 -40 -18 l-37 -16 -31 53 c-16 30 -30 56 -30 59 0
5 21 10 67 16 7 0 26 -20 43 -45z m-105 -30 c20 -31 35 -57 33 -59 -2 -1 -17
-7 -35 -13 -31 -10 -31 -10 -63 50 -26 49 -30 62 -19 69 30 19 49 8 84 -47z
m-91 -23 c20 -32 36 -61 36 -64 0 -7 -70 -30 -74 -25 -2 1 -19 33 -38 70 -37
70 -36 76 13 77 21 1 33 -10 63 -58z m-97 -31 l42 -70 -36 -15 c-19 -8 -41
-15 -47 -15 -11 0 -86 130 -86 149 0 9 25 17 65 20 15 1 31 -17 62 -69z m-113
-35 l46 -76 -34 -30 c-19 -16 -47 -50 -63 -75 l-28 -44 -117 6 -118 7 0 -141
0 -142 124 0 124 0 25 -33 c14 -18 41 -44 61 -58 20 -13 36 -27 36 -30 0 -4
-25 -48 -56 -98 -38 -62 -62 -91 -75 -91 -20 0 -235 75 -311 108 -106 47 -162
243 -113 392 51 156 120 250 214 293 96 44 204 86 222 86 10 1 35 -30 63 -74z
m208 -206 c89 -51 182 -103 206 -116 l43 -25 -151 -83 c-83 -47 -177 -100
-210 -119 l-59 -35 -42 52 c-83 103 -103 193 -61 273 19 38 98 144 106 144 2
0 78 -41 168 -91z m-314 -87 l-13 -52 -70 4 c-38 2 -78 5 -87 5 -14 1 -18 10
-18 46 l0 44 98 3 c53 2 98 3 99 2 2 0 -3 -24 -9 -52z m4 -125 c9 -28 15 -53
13 -55 -1 -2 -48 0 -104 4 l-101 7 0 48 0 49 88 0 87 0 17 -53z m223 -221 c19
-8 35 -17 35 -20 0 -2 -23 -43 -51 -89 l-51 -85 -36 5 c-20 3 -39 7 -41 9 -5
5 93 194 102 194 4 0 23 -7 42 -14z m96 -42 c17 -8 29 -18 27 -22 -2 -4 -21
-37 -43 -74 -38 -64 -42 -68 -77 -68 -21 0 -38 2 -38 5 0 8 60 126 78 152 17
27 15 27 53 7z m82 -35 c12 -7 24 -13 26 -15 7 -6 -73 -134 -84 -133 -5 1 -20
4 -32 7 -21 7 -20 9 19 80 22 39 42 72 45 72 2 0 14 -5 26 -11z m123 -49 c5 0
-59 -101 -68 -106 -5 -3 -22 -3 -38 1 l-29 6 31 64 32 64 34 -15 c19 -8 36
-14 38 -14z"/>
</g>
</svg>
