<?xml version="1.0" standalone="no"?>
<!DOCTYPE svg PUBLIC "-//W3C//DTD SVG 20010904//EN"
 "http://www.w3.org/TR/2001/REC-SVG-20010904/DTD/svg10.dtd">
<svg version="1.0" xmlns="http://www.w3.org/2000/svg"
 width="127.000000pt" height="165.000000pt" viewBox="0 0 127.000000 165.000000"
 preserveAspectRatio="xMidYMid meet">
<metadata>
Created by potrace 1.16, written by Peter Selinger 2001-2019
</metadata>
<g transform="translate(0.000000,165.000000) scale(0.100000,-0.100000)"
fill="#000000" stroke="none">
<path d="M726 1305 c3 -25 3 -45 -1 -45 -3 0 -22 12 -41 26 -19 15 -37 25 -39
22 -3 -3 6 -30 21 -61 l25 -57 -76 -87 c-55 -63 -94 -121 -136 -203 -60 -116
-107 -180 -133 -180 -21 0 -46 -11 -46 -20 0 -12 43 -20 54 -11 6 5 37 12 69
16 65 7 69 21 5 16 l-41 -3 35 41 c19 23 56 84 81 136 31 64 71 124 119 180
40 47 75 85 79 85 3 0 15 -31 28 -70 24 -75 37 -92 28 -36 -4 25 -1 39 13 51
17 15 19 14 35 -37 17 -52 35 -83 35 -61 0 6 -9 40 -20 75 -19 63 -19 65 -1
113 l18 48 33 -44 c63 -87 64 -92 35 -166 -35 -87 -60 -191 -83 -345 -19 -127
-17 -174 3 -101 l11 38 45 -65 c80 -113 81 -104 -14 -134 -79 -24 -186 -87
-195 -113 -6 -21 13 -15 66 21 42 28 140 73 215 99 28 10 21 28 -48 128 -36
52 -65 102 -65 113 0 10 11 74 25 142 30 149 70 255 92 247 12 -5 12 0 -2 33
-30 72 -78 136 -147 195 -38 32 -73 59 -79 59 -6 0 -8 -16 -3 -45z m62 -24
c22 -20 26 -39 16 -78 -8 -30 -16 -29 -41 5 -14 19 -19 37 -15 60 5 37 9 38
40 13z m-80 -61 c-2 -7 -10 1 -17 16 -12 27 -11 28 4 12 10 -9 16 -21 13 -28z
m56 -48 c12 -23 12 -30 0 -46 -16 -22 -16 -22 -33 21 -14 34 -8 69 9 58 6 -3
16 -18 24 -33z"/>
<path d="M720 983 c-52 -6 -131 -27 -136 -35 -3 -5 2 -21 12 -36 32 -49 111
-115 102 -84 -3 8 41 122 54 139 11 14 0 20 -32 16z m-6 -45 c-3 -13 -13 -39
-21 -58 l-15 -35 -34 39 c-19 22 -34 43 -34 47 0 10 54 27 88 28 20 1 22 -3
16 -21z"/>
<path d="M343 669 c-18 -5 -35 -14 -38 -19 -8 -13 5 -13 44 1 43 15 48 7 22
-37 -12 -20 -20 -38 -18 -40 9 -10 48 46 50 72 2 32 -11 37 -60 23z"/>
<path d="M470 658 c0 -7 -11 -36 -24 -64 -20 -44 -31 -54 -85 -79 -33 -16 -61
-33 -61 -37 0 -12 5 -10 75 21 52 24 67 36 85 70 11 23 22 41 24 41 2 0 20
-39 41 -87 44 -102 112 -223 125 -223 6 0 -26 72 -70 160 -44 88 -84 160 -89
160 -4 0 -6 11 -3 25 2 15 0 25 -7 25 -6 0 -11 -6 -11 -12z"/>
</g>
</svg>
