<?xml version="1.0" standalone="no"?>
<!DOCTYPE svg PUBLIC "-//W3C//DTD SVG 20010904//EN"
 "http://www.w3.org/TR/2001/REC-SVG-20010904/DTD/svg10.dtd">
<svg version="1.0" xmlns="http://www.w3.org/2000/svg"
 width="205.000000pt" height="142.000000pt" viewBox="0 0 205.000000 142.000000"
 preserveAspectRatio="xMidYMid meet">
<metadata>
Created by potrace 1.16, written by Peter Selinger 2001-2019
</metadata>
<g transform="translate(0.000000,142.000000) scale(0.100000,-0.100000)"
fill="#000000" stroke="none">
<path d="M804 1078 c-23 -24 -60 -67 -83 -96 l-41 -54 -190 2 c-171 1 -190 -1
-190 -16 0 -15 16 -16 185 -9 l185 7 -24 -54 c-13 -29 -26 -61 -30 -71 -5 -17
-17 -17 -161 -11 l-155 7 0 -90 c0 -50 3 -112 7 -138 l6 -48 173 6 173 6 20
-33 c22 -36 131 -143 173 -170 l26 -17 303 174 302 174 130 -58 c119 -54 167
-68 123 -36 -49 35 -248 129 -254 120 -4 -6 -63 -39 -132 -73 -68 -34 -204
-107 -302 -161 -99 -54 -185 -99 -193 -99 -22 0 -129 134 -172 214 -34 64 -38
78 -38 146 0 68 4 84 38 152 24 49 62 103 107 151 l70 75 183 -99 c100 -55
236 -127 302 -161 66 -33 126 -69 133 -80 13 -18 18 -16 120 38 129 69 158 87
145 91 -6 2 -65 -21 -133 -51 l-123 -56 -86 54 c-158 97 -506 294 -531 301
-20 5 -32 -2 -66 -37z m-197 -386 c1 -31 11 -81 22 -111 19 -46 19 -53 6 -47
-9 3 -82 6 -161 6 l-144 0 0 78 c0 42 3 87 6 99 7 26 25 29 169 31 l100 2 2
-58z"/>
<path d="M876 908 c-30 -42 -59 -148 -54 -197 4 -44 41 -139 73 -188 15 -22
16 -21 175 84 88 58 157 110 153 116 -9 15 -305 207 -320 207 -6 0 -19 -10
-27 -22z m84 -84 c0 -22 3 -88 6 -145 l7 -105 -29 -14 c-16 -8 -32 -16 -35
-18 -4 -1 -17 23 -30 55 -32 78 -33 187 -1 256 l22 48 30 -18 c26 -15 30 -23
30 -59z m142 -44 c54 -30 98 -58 98 -61 0 -4 -47 -33 -105 -67 l-105 -60 0
125 c0 68 3 123 8 121 4 -1 51 -28 104 -58z"/>
</g>
</svg>
