<?xml version="1.0" standalone="no"?>
<!DOCTYPE svg PUBLIC "-//W3C//DTD SVG 20010904//EN"
 "http://www.w3.org/TR/2001/REC-SVG-20010904/DTD/svg10.dtd">
<svg version="1.0" xmlns="http://www.w3.org/2000/svg"
 width="147.000000pt" height="123.000000pt" viewBox="0 0 147.000000 123.000000"
 preserveAspectRatio="xMidYMid meet">
<metadata>
Created by potrace 1.16, written by Peter Selinger 2001-2019
</metadata>
<g transform="translate(0.000000,123.000000) scale(0.100000,-0.100000)"
fill="#000000" stroke="none">
<path d="M724 911 c-27 -10 -64 -26 -82 -35 -27 -14 -54 -15 -187 -10 l-155 7
0 -22 c0 -22 1 -22 150 -19 131 3 149 1 143 -12 -3 -8 -16 -43 -27 -78 l-21
-62 -120 1 -120 1 -3 -147 -3 -147 165 7 164 7 23 -35 c31 -47 90 -67 194 -67
57 0 92 6 120 19 61 28 138 88 141 108 1 10 15 47 30 83 38 89 42 161 15 243
-12 36 -29 68 -38 71 -25 10 -26 1 -5 -41 11 -21 25 -61 31 -90 14 -57 2 -121
-41 -230 -22 -55 -26 -58 -108 -101 -79 -41 -88 -44 -151 -40 -96 5 -230 76
-172 91 14 4 13 5 -4 6 -27 1 -66 72 -83 146 -15 69 -8 81 53 90 44 7 48 9 27
15 -14 5 -37 8 -52 9 l-27 1 16 53 c22 76 41 107 63 107 11 0 20 4 20 9 0 5
21 18 48 28 72 28 178 24 280 -11 46 -15 86 -26 88 -23 3 2 -20 16 -49 30
-125 59 -228 71 -323 38z m-182 -315 c3 -32 16 -76 31 -106 15 -29 27 -54 27
-56 0 -2 -61 -4 -135 -4 l-136 0 3 103 3 102 60 6 c33 3 79 6 101 7 l42 2 4
-54z"/>
<path d="M742 753 c-38 -82 -37 -147 5 -235 18 -38 34 -68 38 -68 9 0 265 173
265 179 0 7 -263 181 -273 181 -5 0 -20 -26 -35 -57z m66 8 c14 -9 19 -38 26
-167 4 -80 4 -81 -24 -98 l-28 -16 -21 55 c-25 67 -27 125 -5 188 16 47 27 55
52 38z m134 -81 c43 -25 78 -48 78 -51 0 -6 -155 -99 -165 -99 -3 0 -5 45 -5
101 0 55 3 99 8 97 4 -1 42 -23 84 -48z"/>
</g>
</svg>
