<?xml version="1.0" standalone="no"?>
<!DOCTYPE svg PUBLIC "-//W3C//DTD SVG 20010904//EN"
 "http://www.w3.org/TR/2001/REC-SVG-20010904/DTD/svg10.dtd">
<svg version="1.0" xmlns="http://www.w3.org/2000/svg"
 width="214.000000pt" height="130.000000pt" viewBox="0 0 214.000000 130.000000"
 preserveAspectRatio="xMidYMid meet">
<metadata>
Created by potrace 1.16, written by Peter Selinger 2001-2019
</metadata>
<g transform="translate(0.000000,130.000000) scale(0.100000,-0.100000)"
fill="#000000" stroke="none">
<path d="M851 975 c-13 -13 -70 -55 -128 -92 -58 -37 -113 -75 -122 -83 -13
-12 -43 -14 -158 -12 -138 3 -143 2 -143 -17 0 -19 5 -20 73 -16 39 2 112 7
160 10 82 5 93 8 145 44 32 21 85 62 120 91 l62 52 248 4 c854 14 949 31 222
39 l-455 5 -24 -25z"/>
<path d="M835 801 c-9 -16 8 -40 74 -105 l60 -59 -70 -76 c-63 -69 -82 -101
-61 -101 4 0 40 36 79 80 40 44 75 75 78 70 3 -6 11 -10 16 -10 6 0 7 5 4 10
-4 6 9 10 32 10 l37 0 -58 -59 c-41 -41 -54 -61 -45 -66 8 -5 33 13 71 53 37
38 64 59 73 55 8 -3 15 0 15 6 0 6 14 11 32 11 l32 0 -58 -59 c-37 -37 -56
-64 -51 -71 5 -9 28 10 70 56 57 63 64 68 80 54 17 -14 18 -13 12 3 -5 13 -1
17 16 17 18 0 12 -9 -36 -58 -31 -32 -57 -61 -57 -65 0 -21 33 0 84 53 61 64
65 67 84 48 9 -9 3 -22 -30 -55 -30 -30 -39 -46 -31 -54 7 -7 28 9 71 57 l61
68 26 -24 c14 -13 27 -21 30 -18 3 2 -4 13 -15 23 -11 10 -20 21 -20 25 0 4
87 8 193 9 105 1 196 6 202 12 5 5 -19 10 -65 11 -41 0 -79 2 -85 3 -5 2 -59
3 -119 4 -95 1 -107 3 -96 16 7 8 8 15 2 15 -5 0 -15 -7 -22 -15 -22 -27 -46
-16 -100 46 -37 43 -56 57 -63 50 -8 -8 1 -23 31 -54 23 -24 39 -46 36 -50
-18 -18 -47 -2 -100 53 -39 42 -61 57 -68 50 -7 -7 5 -25 37 -58 l47 -48 -29
-2 c-25 -2 -38 8 -82 58 -36 42 -56 57 -63 50 -7 -7 5 -25 38 -59 l49 -50 -34
-3 c-30 -3 -41 4 -95 55 -38 37 -67 57 -74 52 -8 -5 5 -25 41 -61 l53 -54 -32
0 c-18 0 -32 5 -32 11 0 8 -4 8 -14 0 -11 -9 -16 -9 -23 2 -21 36 -132 147
-138 138z m547 -193 c-9 -9 -15 -9 -24 0 -9 9 -7 12 12 12 19 0 21 -3 12 -12z"/>
<path d="M300 529 c0 -19 5 -20 143 -17 108 2 146 0 157 -10 8 -8 62 -45 119
-82 57 -38 118 -81 135 -96 l31 -27 450 6 c248 4 464 11 480 15 18 5 -139 12
-405 17 -610 11 -538 3 -612 65 -34 29 -88 70 -120 91 -52 36 -63 39 -145 44
-48 3 -121 8 -160 10 -68 4 -73 3 -73 -16z"/>
</g>
</svg>
