<?xml version="1.0" standalone="no"?>
<!DOCTYPE svg PUBLIC "-//W3C//DTD SVG 20010904//EN"
 "http://www.w3.org/TR/2001/REC-SVG-20010904/DTD/svg10.dtd">
<svg version="1.0" xmlns="http://www.w3.org/2000/svg"
 width="329.000000pt" height="126.000000pt" viewBox="0 0 329.000000 126.000000"
 preserveAspectRatio="xMidYMid meet">
<metadata>
Created by potrace 1.16, written by Peter Selinger 2001-2019
</metadata>
<g transform="translate(0.000000,126.000000) scale(0.100000,-0.100000)"
fill="#000000" stroke="none">
<path d="M300 934 l0 -27 243 7 c133 3 268 9 300 12 l57 7 0 -57 0 -56 -300 7
-300 6 0 -28 0 -28 248 7 c136 4 271 9 300 13 l52 6 0 -51 0 -51 -117 4 c-65
3 -200 7 -300 10 l-183 4 0 -26 0 -26 305 6 305 6 0 -49 0 -49 -305 6 -305 6
0 -28 0 -28 233 7 c127 3 264 9 303 12 l72 7 4 -44 c3 -24 4 -45 4 -46 -1 0
-93 3 -206 7 -113 5 -251 9 -307 9 l-103 1 0 -25 0 -25 178 1 c97 1 237 4 310
8 l132 6 0 -42 0 -41 -310 5 -310 6 0 -28 0 -27 178 6 c97 3 239 9 315 12
l137 6 1 -28 c1 -21 4 -17 10 16 4 25 8 173 8 330 l1 285 -325 3 -325 4 0 -28z"/>
<path d="M1949 858 c-7 -13 -29 -72 -50 -132 l-39 -110 52 -103 c28 -57 56
-103 62 -103 42 0 840 122 959 146 20 4 27 2 27 -10 0 -22 17 -20 22 2 2 9 5
54 7 100 l2 82 -34 0 c-19 0 -59 5 -88 10 -198 38 -848 140 -891 140 -10 0
-23 -10 -29 -22z m213 -57 c76 -9 139 -19 141 -22 3 -2 7 -63 11 -136 l7 -132
-33 -6 c-51 -8 -280 -35 -303 -35 -16 0 -28 18 -57 85 l-36 85 41 90 c49 104
27 98 229 71z m493 -61 c149 -16 275 -30 282 -30 7 0 13 -24 15 -65 3 -59 1
-66 -17 -70 -11 -2 -141 -15 -288 -30 -147 -14 -275 -29 -284 -32 -14 -6 -16
2 -10 72 4 43 7 102 7 132 0 37 4 53 13 53 7 0 134 -13 282 -30z"/>
<path d="M962 679 l3 -24 215 1 c255 2 426 12 413 25 -5 5 -150 12 -322 16
l-313 6 4 -24z"/>
</g>
</svg>
