<?xml version="1.0" standalone="no"?>
<!DOCTYPE svg PUBLIC "-//W3C//DTD SVG 20010904//EN"
 "http://www.w3.org/TR/2001/REC-SVG-20010904/DTD/svg10.dtd">
<svg version="1.0" xmlns="http://www.w3.org/2000/svg"
 width="287.000000pt" height="127.000000pt" viewBox="0 0 287.000000 127.000000"
 preserveAspectRatio="xMidYMid meet">
<metadata>
Created by potrace 1.16, written by Peter Selinger 2001-2019
</metadata>
<g transform="translate(0.000000,127.000000) scale(0.100000,-0.100000)"
fill="#000000" stroke="none">
<path d="M300 944 l0 -27 263 6 c144 4 279 10 300 13 l37 7 0 -63 c0 -48 -3
-61 -14 -57 -7 3 -142 9 -300 13 l-286 7 0 -27 0 -26 163 1 c89 0 223 4 297 8
74 4 136 7 137 6 2 -1 6 -22 9 -47 l6 -46 -306 6 -306 5 0 -26 0 -27 103 5
c56 3 193 7 305 10 l202 5 0 -56 0 -56 -42 5 c-24 4 -161 9 -305 13 l-263 7 0
-27 0 -26 173 1 c94 0 231 4 302 8 72 4 132 7 133 5 2 -1 6 -20 9 -42 l5 -40
-311 6 -311 5 0 -27 0 -27 123 5 c67 3 206 8 308 11 l187 6 4 -41 c2 -23 1
-43 -2 -44 -3 -1 -75 1 -160 5 -85 4 -224 8 -307 8 l-153 1 0 -27 0 -26 263 6
c144 4 286 10 315 13 l52 7 0 -32 c0 -19 4 -30 10 -26 6 4 10 126 10 333 l0
327 -325 3 -325 3 0 -27z"/>
<path d="M1918 893 c-51 -110 -62 -149 -62 -223 0 -84 37 -194 109 -322 l26
-48 27 19 c15 10 106 62 202 115 234 128 334 189 338 207 3 22 -539 329 -582
329 -19 0 -29 -14 -58 -77z m117 10 c51 -25 55 -30 55 -63 0 -51 18 -317 25
-370 l6 -45 -70 -38 -69 -38 -32 83 c-50 128 -65 217 -50 291 11 56 66 207 76
207 2 0 28 -12 59 -27z m505 -263 c0 -6 -392 -202 -396 -197 -2 1 -6 94 -10
205 l-7 203 207 -103 c113 -56 206 -105 206 -108z"/>
<path d="M970 685 l0 -28 283 7 c155 4 298 10 317 15 34 7 32 8 -25 14 -33 4
-176 10 -317 13 l-258 6 0 -27z"/>
</g>
</svg>
