<?xml version="1.0" standalone="no"?>
<!DOCTYPE svg PUBLIC "-//W3C//DTD SVG 20010904//EN"
 "http://www.w3.org/TR/2001/REC-SVG-20010904/DTD/svg10.dtd">
<svg version="1.0" xmlns="http://www.w3.org/2000/svg"
 width="165.000000pt" height="151.000000pt" viewBox="0 0 165.000000 151.000000"
 preserveAspectRatio="xMidYMid meet">
<metadata>
Created by potrace 1.16, written by Peter Selinger 2001-2019
</metadata>
<g transform="translate(0.000000,151.000000) scale(0.100000,-0.100000)"
fill="#000000" stroke="none">
<path d="M486 1200 l-139 -5 -24 -44 c-30 -58 -29 -100 5 -165 19 -39 34 -56
52 -60 14 -3 221 -8 460 -12 l435 -6 38 59 c31 50 37 68 37 115 0 58 -26 108
-56 108 -8 0 -14 5 -14 10 0 10 -530 11 -794 0z m71 -26 c13 -4 21 -10 18 -14
-2 -4 22 -52 54 -106 33 -54 58 -99 57 -100 0 -1 -71 -4 -157 -7 l-156 -7 -16
54 c-22 70 -21 100 5 147 l22 39 75 0 c42 0 86 -3 98 -6z m206 -43 c10 -21 36
-67 58 -101 31 -49 37 -65 27 -71 -20 -13 -148 -11 -148 2 0 7 -20 54 -45 107
-25 52 -45 96 -45 98 0 2 30 4 68 4 l67 -1 18 -38z m227 -60 c88 -146 99 -128
19 31 -16 32 -29 60 -29 63 0 3 27 5 59 5 l60 0 55 -94 c51 -87 72 -114 81
-105 1 2 -19 48 -46 102 l-48 97 69 0 c64 0 70 -2 88 -27 32 -46 34 -67 12
-127 l-21 -56 -202 0 -202 0 -52 105 -52 106 76 -3 77 -3 56 -94z"/>
<path d="M416 1162 c-6 -10 105 -194 121 -199 11 -4 -28 92 -72 177 -15 29
-38 39 -49 22z"/>
<path d="M343 594 c-7 -20 -7 -28 -4 -188 l3 -109 459 5 c253 3 462 8 466 12
4 3 7 63 7 133 l1 126 -27 8 c-15 4 -204 10 -420 13 -216 4 -412 9 -436 12
-34 4 -43 2 -49 -12z m897 -98 c0 -40 3 -94 6 -120 l7 -46 -49 0 -50 0 4 108
c2 59 5 113 7 120 3 6 20 12 40 12 l35 0 0 -74z m-356 -48 l7 -108 -51 0 c-49
0 -52 1 -46 23 3 12 6 59 6 104 l0 82 38 3 c20 2 38 3 38 3 1 0 5 -48 8 -107z
m116 18 c0 -52 3 -101 6 -110 5 -13 -3 -16 -46 -16 l-53 0 6 103 c4 56 7 105
7 110 0 4 18 7 40 7 l40 0 0 -94z m130 2 c0 -51 3 -103 6 -116 6 -22 5 -23
-52 -20 -49 2 -59 6 -58 21 0 9 1 60 2 112 l2 95 50 0 50 0 0 -92z m-620 28
c0 -29 3 -74 6 -100 l7 -46 -78 0 -78 0 7 46 c3 26 6 71 6 100 l0 54 65 0 65
0 0 -54z m140 17 c0 -21 3 -69 7 -106 l6 -69 -59 7 c-32 4 -61 9 -63 11 -2 2
0 46 4 99 l7 95 49 0 49 0 0 -37z m120 -52 c0 -49 3 -96 6 -105 5 -13 -3 -16
-46 -16 l-53 0 7 77 c3 42 6 89 6 105 0 26 3 28 40 28 l40 0 0 -89z"/>
</g>
</svg>
