<?xml version="1.0" standalone="no"?>
<!DOCTYPE svg PUBLIC "-//W3C//DTD SVG 20010904//EN"
 "http://www.w3.org/TR/2001/REC-SVG-20010904/DTD/svg10.dtd">
<svg version="1.0" xmlns="http://www.w3.org/2000/svg"
 width="202.000000pt" height="129.000000pt" viewBox="0 0 202.000000 129.000000"
 preserveAspectRatio="xMidYMid meet">
<metadata>
Created by potrace 1.16, written by Peter Selinger 2001-2019
</metadata>
<g transform="translate(0.000000,129.000000) scale(0.100000,-0.100000)"
fill="#000000" stroke="none">
<path d="M1295 983 c-66 -15 -179 -58 -194 -75 -11 -11 -21 -33 -25 -49 -5
-29 -6 -29 -77 -29 -62 0 -70 2 -59 15 7 8 8 15 2 15 -5 0 -15 -7 -22 -15 -21
-25 -36 -18 -94 46 -65 72 -97 72 -37 0 22 -27 38 -51 34 -55 -17 -16 -43 -1
-94 55 -37 41 -60 59 -68 54 -9 -5 2 -22 38 -59 l50 -51 -28 -2 c-23 -2 -40 9
-86 58 -41 43 -61 57 -68 50 -8 -8 3 -25 37 -60 l48 -49 -37 0 c-33 0 -45 7
-93 59 -39 42 -58 57 -66 49 -7 -7 5 -25 39 -60 l50 -51 -46 3 c-42 3 -50 9
-114 76 -48 51 -71 70 -79 62 -7 -7 12 -33 64 -84 l73 -75 -73 -81 c-49 -54
-70 -84 -63 -91 7 -7 21 3 43 28 100 116 111 125 128 111 13 -11 15 -11 9 5
-5 14 0 17 36 17 l41 0 -57 -58 c-31 -32 -57 -63 -57 -70 0 -25 27 -8 82 53
32 35 60 60 63 54 4 -5 11 -9 17 -9 7 0 6 6 -2 15 -11 13 -6 15 31 15 l43 0
-63 -64 c-43 -44 -59 -66 -51 -71 8 -5 34 16 74 61 41 45 65 64 70 56 4 -7 12
-12 18 -12 7 0 6 6 -2 15 -11 13 -8 15 16 15 28 0 27 -1 -29 -58 -52 -53 -70
-82 -49 -82 5 0 36 28 69 63 54 56 63 62 79 50 17 -12 15 -16 -25 -57 -31 -32
-39 -46 -30 -52 9 -5 31 12 69 54 31 34 60 62 65 62 5 0 19 -10 32 -22 13 -12
23 -17 23 -11 0 5 -9 18 -20 28 -11 10 -20 22 -20 27 0 4 34 8 76 8 74 0 76
-1 70 -22 -4 -13 -9 -59 -13 -103 -5 -71 -3 -88 20 -143 13 -34 47 -96 73
-137 59 -90 79 -100 214 -100 94 0 97 1 212 54 65 29 115 57 113 61 -3 5 6 44
21 86 24 71 26 90 22 205 -3 128 -12 159 -45 159 -10 0 -13 -6 -8 -17 4 -10
13 -55 21 -100 14 -78 14 -87 -10 -204 -14 -67 -28 -125 -33 -129 -4 -4 -58
-24 -118 -44 -124 -40 -175 -44 -275 -18 -65 17 -65 17 -97 78 -67 126 -77
242 -35 380 l18 59 74 30 c67 27 86 30 180 29 97 0 180 -15 263 -49 9 -4 17
-3 17 2 0 12 -117 67 -186 88 -46 14 -144 18 -189 8z m-425 -183 c0 -4 -5 -11
-12 -18 -8 -8 -15 -9 -25 -1 -19 17 -16 24 12 24 14 0 25 -2 25 -5z"/>
<path d="M1140 850 c0 -22 2 -22 68 -15 65 7 80 11 71 19 -2 2 -34 7 -71 11
-66 7 -68 7 -68 -15z"/>
<path d="M1405 860 c-15 -24 12 -32 79 -25 62 7 93 25 42 25 -13 0 -43 3 -68
6 -31 4 -48 2 -53 -6z"/>
<path d="M1135 740 c-15 -23 8 -32 69 -25 80 9 92 18 36 27 -66 10 -98 9 -105
-2z"/>
<path d="M1400 730 c0 -21 3 -21 68 -15 37 4 69 9 71 11 9 8 -6 12 -71 19 -66
7 -68 7 -68 -15z"/>
<path d="M1150 605 c0 -16 59 -21 120 -9 49 10 16 24 -57 24 -49 0 -63 -3 -63
-15z"/>
<path d="M1420 605 c0 -11 12 -15 48 -15 26 0 57 3 69 6 41 11 13 24 -53 24
-50 0 -64 -3 -64 -15z"/>
<path d="M1162 504 c3 -17 11 -19 68 -15 101 5 99 18 -5 28 -62 6 -67 5 -63
-13z"/>
<path d="M1425 511 c-12 -21 4 -26 73 -22 102 4 102 18 0 28 -46 4 -67 2 -73
-6z"/>
</g>
</svg>
