<?xml version="1.0" standalone="no"?>
<!DOCTYPE svg PUBLIC "-//W3C//DTD SVG 20010904//EN"
 "http://www.w3.org/TR/2001/REC-SVG-20010904/DTD/svg10.dtd">
<svg version="1.0" xmlns="http://www.w3.org/2000/svg"
 width="147.000000pt" height="123.000000pt" viewBox="0 0 147.000000 123.000000"
 preserveAspectRatio="xMidYMid meet">
<metadata>
Created by potrace 1.16, written by Peter Selinger 2001-2019
</metadata>
<g transform="translate(0.000000,123.000000) scale(0.100000,-0.100000)"
fill="#000000" stroke="none">
<path d="M724 911 c-27 -10 -64 -26 -82 -35 -27 -14 -54 -15 -187 -10 l-155 7
0 -22 c0 -22 1 -22 150 -19 131 3 149 1 144 -12 -4 -8 -16 -43 -28 -78 l-21
-63 -120 2 -120 1 -3 -147 -3 -147 164 7 164 7 23 -32 c37 -53 94 -71 207 -69
53 1 102 6 107 11 6 5 40 28 75 51 35 23 65 49 67 57 1 8 15 44 29 80 36 87
43 163 20 246 -11 40 -24 68 -36 75 -24 12 -24 12 8 -83 25 -74 26 -83 15
-138 -7 -33 -23 -88 -36 -122 -21 -56 -29 -67 -77 -95 -29 -18 -57 -33 -63
-33 -5 0 -6 42 -3 107 4 58 7 177 7 264 l0 158 57 -20 c31 -10 61 -19 67 -19
24 1 -31 31 -111 59 -98 36 -180 40 -259 12z m174 -17 c27 -5 31 -11 37 -51 3
-25 4 -47 2 -50 -3 -2 -22 0 -43 5 -22 6 -51 13 -66 16 -24 5 -28 12 -28 40 0
18 3 36 7 39 8 9 51 9 91 1z m-122 -562 c-8 -7 -119 52 -123 65 -2 6 4 13 14
16 14 4 13 5 -5 6 -33 2 -82 107 -82 177 l0 51 53 8 c44 7 48 9 27 15 -14 5
-37 8 -52 9 -25 1 -26 2 -17 37 21 75 48 124 68 124 11 0 21 5 23 10 2 6 21
17 43 24 l40 14 8 -275 c4 -151 6 -278 3 -281z m151 441 c14 -5 19 -93 6 -93
-5 0 -24 4 -43 9 -19 5 -47 12 -62 15 -25 6 -28 11 -28 47 l0 41 57 -7 c31 -4
62 -9 70 -12z m-37 -104 l50 -11 0 -50 0 -50 -32 6 c-18 3 -49 11 -70 17 -37
9 -38 11 -38 54 0 51 4 53 90 34z m-460 -115 c0 -46 4 -84 9 -84 5 0 13 41 17
90 l7 90 37 0 38 0 4 -52 c2 -30 16 -77 31 -106 15 -30 27 -56 27 -58 0 -2
-61 -4 -135 -4 l-136 0 2 105 c1 96 3 105 20 105 11 0 18 -3 18 -7 -6 -35 3
-163 11 -163 6 0 10 34 10 83 0 88 3 99 26 90 10 -4 14 -26 14 -89z m488 -11
c20 -5 22 -11 22 -65 0 -44 -3 -59 -12 -55 -7 2 -39 10 -70 17 l-58 13 0 55 0
54 48 -7 c26 -3 57 -9 70 -12z m10 -138 c34 -8 31 -62 -4 -75 -30 -12 -121
-13 -127 -2 -2 4 -2 28 1 53 l4 46 51 -9 c29 -5 62 -11 75 -13z"/>
</g>
</svg>
