<?xml version="1.0" standalone="no"?>
<!DOCTYPE svg PUBLIC "-//W3C//DTD SVG 20010904//EN"
 "http://www.w3.org/TR/2001/REC-SVG-20010904/DTD/svg10.dtd">
<svg version="1.0" xmlns="http://www.w3.org/2000/svg"
 width="148.000000pt" height="123.000000pt" viewBox="0 0 148.000000 123.000000"
 preserveAspectRatio="xMidYMid meet">
<metadata>
Created by potrace 1.16, written by Peter Selinger 2001-2019
</metadata>
<g transform="translate(0.000000,123.000000) scale(0.100000,-0.100000)"
fill="#000000" stroke="none">
<path d="M745 916 c-22 -7 -59 -23 -82 -34 -40 -21 -51 -22 -198 -16 -154 7
-155 7 -155 -14 0 -22 3 -22 146 -22 112 0 145 -3 142 -12 -2 -7 -13 -41 -23
-75 l-20 -63 -127 0 -128 0 0 -68 c0 -38 3 -104 7 -147 l6 -77 162 7 161 7 24
-36 c33 -47 85 -66 187 -66 95 0 117 7 198 61 41 28 64 51 72 72 6 18 23 63
37 100 15 39 26 88 26 116 0 58 -35 167 -57 175 -25 10 -26 1 -5 -41 11 -21
25 -61 31 -90 14 -57 2 -121 -41 -230 -22 -56 -25 -58 -108 -101 -79 -40 -90
-43 -151 -40 -96 5 -230 76 -172 91 15 4 14 5 -4 6 -12 0 -29 11 -38 24 -19
27 -55 140 -55 173 0 26 1 27 70 41 l45 10 -53 8 c-59 9 -58 3 -18 105 16 41
27 56 44 58 12 2 22 7 22 12 0 5 21 17 48 27 72 28 178 23 280 -11 46 -15 85
-26 88 -23 7 6 -94 53 -156 71 -63 19 -149 20 -205 2z m-195 -315 c0 -34 9
-66 30 -107 16 -32 30 -60 30 -61 0 -2 -64 -3 -141 -3 l-142 0 7 53 c3 28 6
76 6 105 0 43 3 52 18 52 15 0 17 -10 14 -90 -2 -51 1 -90 6 -90 10 0 26 156
17 170 -6 10 28 16 103 19 l52 1 0 -49z"/>
<path d="M440 548 c0 -110 16 -107 22 4 4 58 1 78 -9 82 -10 4 -13 -14 -13
-86z"/>
<path d="M511 548 c0 -61 3 -86 9 -73 12 28 12 165 0 165 -6 0 -10 -37 -9 -92z"/>
<path d="M711 753 c1 -62 4 -79 9 -58 11 45 11 145 0 145 -6 0 -10 -35 -9 -87z"/>
<path d="M780 753 c0 -107 17 -100 22 10 2 57 0 77 -9 77 -10 0 -13 -23 -13
-87z"/>
<path d="M850 755 c0 -50 4 -85 10 -85 6 0 10 11 10 24 0 12 3 51 6 85 6 52 5
61 -10 61 -14 0 -16 -13 -16 -85z"/>
<path d="M930 756 c0 -51 4 -86 10 -86 9 0 12 30 14 137 1 14 -5 28 -11 31
-10 3 -13 -18 -13 -82z"/>
<path d="M1010 743 c0 -106 16 -100 22 10 4 60 2 77 -9 77 -10 0 -13 -21 -13
-87z"/>
<path d="M800 506 c0 -98 19 -120 22 -26 1 33 2 70 2 82 1 12 -5 23 -11 26
-10 3 -13 -18 -13 -82z"/>
<path d="M870 498 c0 -64 3 -88 10 -78 13 20 13 170 0 170 -6 0 -10 -37 -10
-92z"/>
<path d="M930 505 c0 -47 4 -85 9 -85 9 0 24 147 15 161 -16 26 -24 0 -24 -76z"/>
<path d="M1014 574 c3 -9 7 -48 7 -87 1 -65 2 -68 10 -32 4 22 8 61 8 88 1 37
-2 47 -15 47 -11 0 -14 -5 -10 -16z"/>
<path d="M721 493 c1 -60 4 -80 9 -63 12 37 12 150 0 150 -6 0 -10 -35 -9 -87z"/>
</g>
</svg>
