<?xml version="1.0" standalone="no"?>
<!DOCTYPE svg PUBLIC "-//W3C//DTD SVG 20010904//EN"
 "http://www.w3.org/TR/2001/REC-SVG-20010904/DTD/svg10.dtd">
<svg version="1.0" xmlns="http://www.w3.org/2000/svg"
 width="190.000000pt" height="401.000000pt" viewBox="0 0 190.000000 401.000000"
 preserveAspectRatio="xMidYMid meet">
<metadata>
Created by potrace 1.16, written by Peter Selinger 2001-2019
</metadata>
<g transform="translate(0.000000,401.000000) scale(0.100000,-0.100000)"
fill="#000000" stroke="none">
<path d="M1035 3696 c-33 -8 -75 -18 -92 -22 -18 -5 -95 -6 -170 -3 -76 4
-207 7 -290 8 l-153 1 0 -82 c0 -46 3 -113 7 -150 l6 -68 233 0 234 0 0 -62
c0 -35 3 -73 6 -85 l6 -22 -246 6 -247 6 3 -113 2 -113 268 5 269 5 6 -28 c6
-33 26 -41 173 -65 112 -18 162 -14 320 27 63 17 120 31 125 33 17 3 51 25 39
26 -6 0 4 48 25 118 32 105 35 128 34 227 -1 73 -7 134 -20 180 l-18 70 -65
32 c-115 57 -186 76 -295 79 -60 2 -124 -2 -160 -10z m227 -102 c-3 -53 -7
-64 -19 -60 -8 3 -48 6 -89 6 l-74 0 0 60 0 60 93 0 92 0 -3 -66z m-502 1 c0
-54 0 -55 -30 -55 -29 0 -30 1 -30 49 0 39 4 51 18 54 40 11 42 8 42 -48z
m117 41 c-3 -8 -11 -32 -18 -55 -11 -36 -16 -41 -41 -41 -27 0 -28 1 -28 55
l0 55 46 0 c35 0 45 -3 41 -14z m165 -323 c2 -186 2 -340 0 -342 -1 -3 -36 3
-77 14 l-73 18 -11 61 c-25 146 -32 257 -21 329 10 65 48 226 56 236 5 6 67
19 96 20 l26 1 4 -337z m404 305 l71 -20 18 -72 c30 -120 29 -212 -3 -381
l-29 -150 -89 -17 c-49 -10 -96 -17 -105 -18 -15 0 -16 25 -12 253 2 138 6
294 9 345 l6 93 31 -6 c18 -4 64 -16 103 -27z m-1046 -29 c0 -43 -3 -50 -17
-47 -14 2 -19 15 -21 51 -3 42 -1 47 17 47 18 0 21 -6 21 -51z m68 4 c-2 -35
-7 -48 -18 -48 -11 0 -16 13 -18 48 -3 42 -1 47 18 47 19 0 21 -5 18 -47z m62
-3 c0 -38 -4 -50 -15 -50 -8 0 -15 6 -16 13 0 6 -2 29 -4 50 -2 31 0 37 16 37
16 0 19 -8 19 -50z m70 0 c0 -43 -3 -50 -20 -50 -17 0 -20 7 -20 50 0 43 3 50
20 50 17 0 20 -7 20 -50z m74 28 c3 -13 6 -35 6 -50 0 -23 -4 -28 -25 -28 -23
0 -25 3 -25 50 0 42 3 50 19 50 11 0 21 -9 25 -22z m-266 -155 c3 -51 2 -53
-22 -53 -25 0 -26 3 -26 56 0 52 1 55 23 52 19 -3 22 -10 25 -55z m62 2 c0
-48 -2 -55 -20 -55 -18 0 -20 7 -20 55 0 48 2 55 20 55 18 0 20 -7 20 -55z
m60 23 c0 -18 3 -43 6 -55 5 -20 2 -23 -20 -23 -24 0 -26 3 -26 48 0 51 5 62
27 62 8 0 13 -12 13 -32z m74 10 c3 -13 6 -38 6 -55 0 -30 -3 -33 -31 -33 -28
0 -31 3 -25 23 3 12 6 37 6 55 0 25 4 32 19 32 11 0 21 -9 25 -22z m76 -33 c0
-52 -1 -55 -25 -55 -24 0 -25 3 -25 55 0 52 1 55 25 55 24 0 25 -3 25 -55z
m80 26 c0 -16 3 -43 6 -60 6 -30 6 -31 -30 -31 l-36 0 0 60 0 60 30 0 c26 0
30 -3 30 -29z m70 -3 c-4 -18 -11 -45 -14 -60 -4 -17 -13 -28 -22 -28 -14 0
-15 7 -10 38 3 20 6 47 6 60 0 17 6 22 24 22 23 0 24 -3 16 -32z m430 -18 l0
-50 -90 0 -90 0 0 45 0 44 68 4 c37 2 77 4 90 5 20 2 22 -2 22 -48z m4 -108
c1 -19 -2 -36 -6 -38 -3 -2 -45 -1 -92 2 l-86 7 0 34 0 34 92 -3 91 -3 1 -33z
m-4 -102 l0 -40 -90 0 -90 0 0 40 0 40 90 0 90 0 0 -40z m10 -101 l0 -42 -37
7 c-21 3 -66 6 -100 6 -55 0 -63 2 -63 19 0 48 7 51 106 51 l94 0 0 -41z
m-428 -44 c9 -38 18 -74 18 -79 0 -5 -68 -6 -162 -3 -90 4 -202 7 -250 7 l-88
0 0 70 0 69 143 4 c78 1 182 3 231 2 l90 0 18 -70z m428 -51 c0 -33 -2 -36
-22 -30 -13 3 -58 6 -100 6 l-78 0 0 30 0 30 100 0 100 0 0 -36z m0 -79 l0
-35 -69 0 c-103 0 -131 8 -131 36 0 22 4 23 75 26 42 2 87 4 100 5 22 3 25 -1
25 -32z"/>
<path d="M1002 2360 c-91 -21 -105 -27 -97 -41 3 -5 0 -6 -8 -3 -11 4 -20 -9
-32 -45 l-16 -51 -265 7 -264 6 0 -23 0 -23 261 7 c249 7 260 6 255 -11 -16
-53 -26 -114 -26 -165 l0 -58 -72 5 c-40 2 -155 7 -255 10 l-183 5 0 -103 c0
-56 3 -126 7 -156 l6 -54 279 5 279 6 6 -29 c4 -23 13 -31 42 -38 157 -40 284
-44 404 -12 167 44 216 61 211 74 -2 7 11 71 31 142 42 153 44 227 12 360
l-22 90 -50 27 c-28 15 -91 41 -142 58 -77 25 -106 30 -185 29 -51 0 -130 -9
-176 -19z m219 -26 l44 -6 -3 -61 -3 -62 -90 3 -89 3 0 59 0 59 33 4 c58 7 64
7 108 1z m-178 -693 c-1 -2 -34 4 -73 14 -83 20 -81 18 -101 150 -21 144 -16
254 15 383 30 122 22 112 111 130 l40 8 5 -341 c3 -187 5 -342 3 -344z m403
648 l71 -21 18 -72 c31 -124 30 -196 -1 -367 -15 -85 -33 -157 -38 -161 -10
-6 -169 -38 -192 -38 -12 0 -10 432 2 609 l6 83 31 -6 c18 -3 64 -16 103 -27z
m-186 -149 l0 -51 -90 2 -90 2 0 43 c0 48 -3 47 113 52 l67 3 0 -51z m0 -111
l0 -42 -37 7 c-21 3 -62 6 -90 6 l-53 0 0 35 0 35 90 0 90 0 0 -41z m0 -99 l0
-40 -90 0 -90 0 0 40 0 40 90 0 90 0 0 -40z m-427 -106 c16 -70 27 -127 25
-128 -2 -1 -27 0 -55 2 -50 4 -53 5 -53 32 0 63 11 90 39 91 l26 2 -27 4 c-27
4 -28 7 -28 58 0 53 2 56 40 64 3 0 18 -56 33 -125z m-463 66 c0 -43 -3 -50
-20 -50 -17 0 -20 7 -20 50 0 43 3 50 20 50 17 0 20 -7 20 -50z m60 31 c0 -10
3 -33 6 -50 6 -27 4 -31 -15 -31 -19 0 -21 6 -21 50 0 38 4 50 15 50 8 0 15
-8 15 -19z m70 -31 c0 -43 -3 -50 -20 -50 -17 0 -20 7 -20 50 0 43 3 50 20 50
17 0 20 -7 20 -50z m70 0 c0 -43 -3 -50 -20 -50 -17 0 -20 7 -20 50 0 43 3 50
20 50 17 0 20 -7 20 -50z m72 0 c3 -46 1 -50 -19 -50 -21 0 -23 5 -23 50 0 42
3 50 19 50 16 0 20 -9 23 -50z m88 2 c0 -57 -2 -61 -35 -54 -23 4 -25 9 -25
53 0 48 1 49 30 49 29 0 30 -1 30 -48z m540 -63 c0 -41 0 -41 -31 -35 -17 3
-63 6 -101 6 l-69 0 5 33 c2 17 5 33 5 35 1 1 44 2 96 2 l95 0 0 -41z m-540
-59 c0 -21 3 -45 6 -54 5 -13 -1 -16 -30 -16 l-36 0 0 53 c0 62 2 66 35 59 21
-4 25 -10 25 -42z m-356 24 c3 -9 6 -31 6 -50 0 -31 -2 -34 -31 -34 -24 0 -30
3 -25 16 3 9 6 31 6 50 0 27 4 34 19 34 10 0 22 -7 25 -16z m66 -34 c0 -43 -3
-50 -20 -50 -17 0 -20 7 -20 50 0 43 3 50 20 50 17 0 20 -7 20 -50z m60 5 c0
-25 1 -48 3 -52 1 -5 -8 -9 -20 -11 -22 -3 -23 0 -23 52 0 49 2 56 20 56 17 0
20 -7 20 -45z m74 14 c13 -65 9 -79 -24 -79 -25 0 -30 4 -30 24 0 51 12 86 30
86 12 0 20 -11 24 -31z m76 -24 c0 -52 -1 -55 -25 -55 -24 0 -25 3 -25 55 0
52 1 55 25 55 24 0 25 -3 25 -55z m618 -19 c3 -32 1 -38 -13 -32 -9 3 -55 6
-101 6 l-84 0 0 30 0 29 73 3 c130 5 122 8 125 -36z m2 -81 l0 -35 -69 0
c-103 0 -131 8 -131 36 0 22 4 23 68 27 37 2 82 4 100 5 30 2 32 0 32 -33z"/>
<path d="M1115 1104 c-16 -2 -72 -14 -123 -25 -69 -15 -92 -24 -88 -34 3 -9 0
-12 -9 -9 -7 3 -16 -3 -20 -15 -6 -20 -11 -20 -276 -14 l-270 6 3 -113 2 -112
238 4 238 4 0 -67 c0 -36 3 -81 6 -98 l7 -31 -84 5 c-46 2 -157 7 -247 10
l-163 6 2 -111 3 -110 268 0 269 0 5 -29 c6 -26 12 -30 87 -47 126 -29 287
-26 402 8 50 14 109 31 133 38 33 9 42 15 38 28 -3 9 10 73 29 141 24 86 35
145 35 190 0 73 -33 235 -52 258 -15 19 -124 68 -206 93 -65 20 -173 32 -227
24z m143 -112 l3 -63 -91 2 -90 1 0 58 c0 31 3 60 7 64 4 4 43 5 88 4 l80 -3
3 -63z m-218 -226 c0 -155 3 -311 7 -346 l6 -63 -29 7 c-105 25 -132 36 -138
59 -3 13 -13 83 -22 156 -18 149 -12 223 29 368 l23 78 54 12 c30 6 58 12 63
12 4 1 7 -127 7 -283z m432 238 l47 -15 17 -72 c29 -128 29 -199 -2 -368 -15
-85 -28 -155 -29 -157 -3 -4 -208 -43 -210 -40 -2 3 12 690 14 695 1 2 113
-27 163 -43z m-792 -73 c0 -27 3 -63 6 -80 6 -31 5 -32 -22 -28 -22 3 -29 9
-28 25 0 12 1 47 2 77 2 48 5 55 22 55 17 0 20 -7 20 -49z m74 -12 c10 -96 9
-99 -19 -99 -25 0 -25 1 -25 80 0 71 2 80 19 80 15 0 19 -11 25 -61z m82 -19
c-16 -62 -25 -80 -38 -80 -16 0 -18 10 -18 80 l0 80 38 0 38 0 -20 -80z m-426
16 c0 -30 3 -61 6 -70 5 -13 -1 -16 -25 -16 l-31 0 0 70 c0 68 1 70 25 70 24
0 25 -3 25 -54z m70 22 c0 -18 3 -50 6 -70 6 -37 6 -38 -22 -38 l-29 0 3 70
c3 61 6 70 23 70 15 0 19 -7 19 -32z m64 1 c3 -17 6 -49 6 -70 0 -32 -3 -39
-20 -39 -18 0 -20 7 -20 70 0 53 3 70 14 70 7 0 16 -14 20 -31z m66 -39 c0
-63 -2 -70 -20 -70 -18 0 -20 7 -20 70 0 63 2 70 20 70 18 0 20 -7 20 -70z
m650 -41 l0 -52 -46 7 c-26 3 -66 6 -90 6 l-44 0 0 45 0 45 90 0 90 0 0 -51z
m0 -106 l0 -38 -90 3 -90 3 0 35 0 34 90 0 90 0 0 -37z m0 -99 l0 -47 -52 7
c-29 3 -70 6 -90 6 -37 0 -38 1 -38 35 l0 34 63 4 c34 2 74 4 90 5 26 2 27 0
27 -44z m-417 -153 c10 -41 16 -75 15 -76 -2 -1 -114 0 -250 3 l-248 5 0 73 0
74 228 2 c125 2 230 1 233 -2 3 -3 13 -38 22 -79z m427 54 l0 -36 -97 3 c-85
3 -98 5 -101 21 -8 42 3 47 103 47 l95 0 0 -35z m0 -90 l0 -35 -77 0 c-101 0
-123 6 -123 34 0 13 3 26 7 29 3 4 48 7 100 7 l93 0 0 -35z m0 -84 c0 -37 -28
-45 -127 -35 -72 6 -73 7 -73 35 l0 29 100 0 100 0 0 -29z"/>
</g>
</svg>
