<?xml version="1.0" standalone="no"?>
<!DOCTYPE svg PUBLIC "-//W3C//DTD SVG 20010904//EN"
 "http://www.w3.org/TR/2001/REC-SVG-20010904/DTD/svg10.dtd">
<svg version="1.0" xmlns="http://www.w3.org/2000/svg"
 width="190.000000pt" height="248.000000pt" viewBox="0 0 190.000000 248.000000"
 preserveAspectRatio="xMidYMid meet">
<metadata>
Created by potrace 1.16, written by Peter Selinger 2001-2019
</metadata>
<g transform="translate(0.000000,248.000000) scale(0.100000,-0.100000)"
fill="#000000" stroke="none">
<path d="M823 2133 c-25 -26 -56 -62 -69 -80 l-25 -32 -204 6 c-186 6 -205 5
-211 -11 -4 -9 -5 -19 -2 -21 2 -2 91 -1 197 3 106 4 194 5 196 2 2 -3 -13
-39 -33 -80 l-36 -75 -168 3 -168 4 0 -153 0 -152 113 7 c61 3 150 7 195 7
l84 2 44 -56 c59 -74 160 -150 182 -138 146 81 677 391 679 398 4 10 -15 21
-382 233 -159 92 -303 170 -319 174 -25 6 -34 1 -73 -41z m99 -131 c2 -64 5
-222 6 -350 l3 -232 -26 -12 c-22 -10 -29 -8 -56 18 -51 48 -120 145 -152 213
-66 139 -26 270 134 445 42 46 54 54 69 46 16 -9 19 -26 22 -128z m114 51 c-1
-1 -19 0 -39 4 -27 4 -37 11 -37 23 0 17 3 17 39 -3 22 -12 39 -23 37 -24z
m24 -58 l0 -35 -50 0 -50 0 0 35 0 35 50 0 50 0 0 -35z m185 -50 c77 -41 182
-97 232 -123 51 -26 93 -49 93 -52 0 -3 -75 -44 -168 -92 -92 -48 -200 -106
-241 -128 l-74 -41 6 133 c4 73 7 188 7 256 0 67 1 122 3 122 1 0 65 -34 142
-75z m-185 -40 l0 -35 -50 0 c-49 0 -50 1 -50 29 0 33 9 39 63 40 36 1 37 0
37 -34z m10 -100 l0 -46 -52 7 c-60 8 -61 8 -64 31 -6 37 15 53 66 53 l50 0 0
-45z m-440 -32 c0 -35 10 -85 25 -127 l24 -69 -67 7 c-37 3 -117 6 -178 6
l-111 0 5 108 c2 59 7 109 9 112 3 3 64 8 136 11 73 3 138 6 145 7 8 1 12 -15
12 -55z m440 -68 l0 -35 -60 0 c-59 0 -60 0 -60 28 0 39 5 42 67 42 l53 0 0
-35z m0 -106 c0 -43 -3 -50 -16 -45 -9 3 -36 6 -60 6 l-44 0 0 39 c0 37 2 40
33 44 90 11 87 12 87 -44z m-2 -80 c-2 -13 -24 -33 -60 -55 l-58 -33 0 49 0
49 48 4 c26 2 53 4 60 5 8 1 12 -6 10 -19z"/>
<path d="M894 921 c-27 -10 -65 -26 -83 -35 -28 -15 -52 -16 -187 -10 l-154 7
0 -22 c0 -22 1 -22 150 -19 131 3 149 1 143 -12 -3 -8 -16 -43 -27 -78 l-21
-62 -120 1 -120 1 -3 -147 -3 -147 164 7 163 7 27 -35 c52 -69 186 -96 286
-58 50 19 172 98 168 110 -1 3 14 47 32 96 28 77 32 99 28 155 -5 73 -31 145
-54 154 -25 10 -25 3 1 -55 46 -102 43 -148 -15 -305 -18 -46 -27 -57 -75 -85
-30 -17 -57 -29 -59 -27 -3 2 -2 122 2 265 l6 261 56 -19 c75 -26 89 -17 20
14 -131 59 -231 71 -325 38z m182 -17 c17 -4 23 -16 27 -52 3 -26 4 -48 2 -50
-2 -2 -20 1 -41 6 -22 6 -51 13 -66 16 -24 5 -28 12 -28 40 0 18 3 36 7 39 8
8 70 9 99 1z m-132 -291 c4 -150 5 -273 1 -273 -14 0 -125 61 -125 69 0 5 8
12 18 14 13 4 12 5 -5 6 -27 1 -69 77 -82 147 -13 70 -7 81 52 89 45 7 48 9
27 15 -14 5 -37 8 -52 9 l-27 1 16 53 c22 76 41 107 63 107 11 0 20 4 20 9 0
12 73 41 81 33 4 -4 10 -130 13 -279z m116 176 l50 -11 0 -45 0 -45 -32 6
c-102 20 -108 24 -108 66 0 46 5 47 90 29z m0 -110 l50 -11 0 -50 0 -50 -32 6
c-18 3 -49 11 -70 17 -37 9 -38 11 -38 54 0 51 4 53 90 34z m-350 -61 c0 -27
11 -67 30 -106 17 -35 30 -66 30 -68 0 -2 -61 -4 -135 -4 l-135 0 0 93 c0 50
4 97 8 104 7 11 51 17 155 21 l47 2 0 -42z m378 -65 c20 -5 22 -11 22 -65 0
-44 -3 -59 -12 -55 -7 2 -39 10 -70 17 l-58 13 0 55 0 54 48 -7 c26 -3 57 -9
70 -12z m23 -158 c13 -33 10 -41 -16 -53 -32 -15 -122 -16 -130 -2 -3 6 -3 29
0 53 l7 43 65 -10 c51 -9 68 -16 74 -31z"/>
</g>
</svg>
