<?xml version="1.0" standalone="no"?>
<!DOCTYPE svg PUBLIC "-//W3C//DTD SVG 20010904//EN"
 "http://www.w3.org/TR/2001/REC-SVG-20010904/DTD/svg10.dtd">
<svg version="1.0" xmlns="http://www.w3.org/2000/svg"
 width="160.000000pt" height="143.000000pt" viewBox="0 0 160.000000 143.000000"
 preserveAspectRatio="xMidYMid meet">
<metadata>
Created by potrace 1.16, written by Peter Selinger 2001-2019
</metadata>
<g transform="translate(0.000000,143.000000) scale(0.100000,-0.100000)"
fill="#000000" stroke="none">
<path d="M958 970 l-166 -159 -146 151 -147 151 -30 -29 c-17 -16 -40 -42 -51
-57 l-21 -29 109 -109 109 -109 -158 0 -157 0 0 -49 c0 -27 3 -63 7 -81 l6
-33 151 7 151 7 -104 -105 c-58 -58 -103 -107 -100 -109 2 -2 28 -25 58 -53
l53 -49 138 145 138 145 151 -150 c84 -82 157 -152 164 -154 9 -3 8 0 -1 12
-11 13 -10 17 10 28 13 6 35 22 49 34 l26 22 -109 116 -110 117 149 1 c81 1
154 1 161 0 6 -1 12 3 12 9 0 5 -4 10 -9 10 -4 0 -5 19 0 43 16 83 29 76 -158
79 l-168 3 130 133 c72 74 122 132 113 130 -11 -2 -29 14 -50 44 l-34 47 -166
-159z m190 77 l32 -33 -126 -119 c-115 -109 -130 -119 -163 -118 -61 1 -71 3
-71 11 0 14 271 292 284 292 7 0 27 -15 44 -33z m-511 -119 c73 -73 133 -136
133 -140 0 -5 -26 -8 -58 -8 l-57 0 -108 108 c-59 60 -107 111 -107 116 0 7
51 55 60 56 3 0 64 -60 137 -132z m621 -226 l3 -52 -154 0 -153 0 -27 28 -27
28 23 22 c20 19 35 22 157 24 74 2 144 3 155 2 17 0 20 -9 23 -52z m-590 25
l22 -23 -28 -26 -27 -26 -153 5 c-150 6 -153 6 -148 27 3 12 6 29 6 38 0 22
20 25 176 27 124 1 132 0 152 -22z m54 11 c-9 -9 -15 -9 -24 0 -9 9 -7 12 12
12 19 0 21 -3 12 -12z m117 -9 l24 -20 -28 -29 c-35 -37 -42 -37 -77 -3 l-28
27 22 23 c26 28 55 29 87 2z m53 9 c-9 -9 -15 -9 -24 0 -9 9 -7 12 12 12 19 0
21 -3 12 -12z m18 -79 c0 -5 -14 -9 -32 -9 -30 0 -31 0 -13 20 14 15 21 17 32
9 7 -6 13 -15 13 -20z m-186 15 c27 -10 18 -24 -13 -22 -23 2 -28 5 -19 15 12
15 11 15 32 7z m46 -52 c0 -4 -58 -65 -128 -135 l-129 -128 -25 33 -26 34 95
102 95 102 59 0 c32 0 59 -3 59 -8z m282 -99 l107 -108 -36 -39 -36 -38 -133
138 c-73 77 -133 142 -134 147 0 4 28 7 63 7 l62 0 107 -107z"/>
</g>
</svg>
