<?xml version="1.0" standalone="no"?>
<!DOCTYPE svg PUBLIC "-//W3C//DTD SVG 20010904//EN"
 "http://www.w3.org/TR/2001/REC-SVG-20010904/DTD/svg10.dtd">
<svg version="1.0" xmlns="http://www.w3.org/2000/svg"
 width="206.000000pt" height="198.000000pt" viewBox="0 0 206.000000 198.000000"
 preserveAspectRatio="xMidYMid meet">
<metadata>
Created by potrace 1.16, written by Peter Selinger 2001-2019
</metadata>
<g transform="translate(0.000000,198.000000) scale(0.100000,-0.100000)"
fill="#000000" stroke="none">
<path d="M790 1662 c-14 -9 -78 -53 -142 -99 l-117 -83 -82 9 c-87 10 -97 10
-116 -2 -26 -16 -11 -27 71 -52 208 -63 368 -79 901 -90 165 -3 335 -8 378
-11 l77 -5 0 70 0 71 -397 0 -398 0 -70 105 c-38 57 -72 104 -75 104 -3 0 -16
-7 -30 -17z m41 -44 c12 -18 42 -56 66 -85 24 -28 43 -54 43 -57 0 -8 -241 -8
-307 0 l-52 7 107 83 c59 45 110 83 114 83 4 1 17 -14 29 -31z m909 -213 c0
-37 -4 -55 -12 -55 -7 0 -231 11 -498 25 -403 20 -602 38 -674 58 -5 2 130 4
300 5 266 3 813 15 867 20 14 2 17 -7 17 -53z"/>
<path d="M720 674 c-80 -52 -162 -104 -182 -117 -21 -12 -38 -28 -38 -34 0
-15 2 -15 -112 -13 l-88 1 0 -27 0 -27 648 7 c356 4 672 8 702 9 61 2 54 15
58 -110 3 -99 22 -75 22 26 0 62 4 91 13 94 7 3 7 6 1 6 -7 1 -9 19 -6 53 l5
51 -89 -6 c-49 -4 -181 -16 -294 -27 -113 -11 -227 -20 -255 -20 l-50 0 -88
115 c-48 63 -91 115 -95 114 -4 0 -72 -43 -152 -95z m164 39 c11 -16 52 -63
89 -105 l68 -78 -45 0 c-26 0 -136 -5 -246 -11 -109 -6 -204 -9 -211 -7 -6 2
27 29 74 60 47 31 120 82 163 112 42 31 79 56 82 56 2 0 14 -12 26 -27z m818
-174 c2 -22 1 -42 -2 -43 -3 -1 -140 0 -305 3 l-300 6 130 13 c99 10 418 52
466 61 4 0 9 -17 11 -40z"/>
</g>
</svg>
