<?xml version="1.0" standalone="no"?>
<!DOCTYPE svg PUBLIC "-//W3C//DTD SVG 20010904//EN"
 "http://www.w3.org/TR/2001/REC-SVG-20010904/DTD/svg10.dtd">
<svg version="1.0" xmlns="http://www.w3.org/2000/svg"
 width="177.000000pt" height="106.000000pt" viewBox="0 0 177.000000 106.000000"
 preserveAspectRatio="xMidYMid meet">
<metadata>
Created by potrace 1.16, written by Peter Selinger 2001-2019
</metadata>
<g transform="translate(0.000000,106.000000) scale(0.100000,-0.100000)"
fill="#000000" stroke="none">
<path d="M304 749 c-6 -10 11 -30 135 -161 l54 -57 -97 -105 c-84 -91 -106
-126 -78 -126 4 0 50 47 102 105 62 70 97 102 104 95 13 -13 29 -13 21 0 -4 6
41 10 127 10 l133 0 -80 -80 c-64 -65 -77 -82 -66 -92 10 -11 17 -7 38 17 14
17 52 58 84 92 48 52 59 60 69 48 16 -20 34 -19 26 0 -4 13 7 15 72 15 112 0
451 21 492 30 20 5 -89 8 -262 9 -211 1 -297 4 -300 12 -3 9 -10 8 -25 -1 -19
-12 -26 -8 -81 51 -33 36 -70 76 -81 90 -16 19 -22 22 -32 11 -11 -10 1 -26
61 -87 l74 -75 -127 0 c-83 0 -126 4 -122 10 8 13 -8 13 -21 0 -7 -7 -42 25
-104 95 -52 58 -98 105 -102 105 -4 0 -10 -5 -14 -11z"/>
</g>
</svg>
