<?xml version="1.0" standalone="no"?>
<!DOCTYPE svg PUBLIC "-//W3C//DTD SVG 20010904//EN"
 "http://www.w3.org/TR/2001/REC-SVG-20010904/DTD/svg10.dtd">
<svg version="1.0" xmlns="http://www.w3.org/2000/svg"
 width="106.000000pt" height="218.000000pt" viewBox="0 0 106.000000 218.000000"
 preserveAspectRatio="xMidYMid meet">
<metadata>
Created by potrace 1.16, written by Peter Selinger 2001-2019
</metadata>
<g transform="translate(0.000000,218.000000) scale(0.100000,-0.100000)"
fill="#000000" stroke="none">
<path d="M305 1870 c-6 -10 75 -92 173 -175 23 -20 30 -31 23 -38 -16 -16 -13
-27 4 -21 12 5 15 -4 15 -50 0 -31 -2 -56 -3 -56 -2 0 -39 34 -83 75 -73 68
-99 84 -99 59 0 -6 39 -46 87 -89 82 -74 87 -80 71 -97 -18 -20 -4 -25 15 -6
9 9 12 -1 12 -47 l0 -60 -85 85 c-65 64 -87 82 -96 73 -9 -9 6 -29 66 -85 43
-40 84 -77 92 -81 12 -8 12 -12 -3 -28 -20 -22 -12 -38 11 -19 13 11 15 7 15
-26 l0 -39 -83 83 c-70 69 -86 81 -95 69 -10 -12 4 -29 78 -97 l91 -83 -23
-24 -22 -23 -52 51 c-40 39 -57 50 -71 44 -15 -6 -3 -20 72 -91 l89 -83 -34
-36 c-39 -40 -21 -49 20 -10 l27 26 6 -263 c4 -145 7 -318 7 -385 0 -68 4
-123 8 -123 10 0 22 299 22 559 0 163 2 182 15 171 25 -21 30 -2 7 23 -12 13
-22 30 -22 38 0 8 36 48 80 88 67 60 79 76 69 88 -10 12 -21 5 -69 -42 -44
-43 -58 -53 -68 -43 -27 27 -12 55 68 128 66 59 79 75 69 87 -10 12 -23 4 -79
-52 l-66 -65 -1 42 c-1 41 2 46 77 113 73 65 90 90 62 90 -6 0 -40 -28 -76
-63 l-65 -63 0 60 c1 48 5 64 20 74 10 8 46 40 80 72 41 39 57 61 50 68 -7 7
-34 -11 -86 -57 l-75 -68 0 47 c0 28 4 44 10 40 13 -8 13 8 0 21 -7 7 25 42
95 104 58 52 105 98 105 102 0 28 -35 7 -125 -77 l-105 -97 -101 94 c-109 101
-114 104 -124 88z m215 -717 c0 -36 0 -36 -20 -18 -19 17 -19 19 -4 37 23 24
24 24 24 -19z"/>
</g>
</svg>
