<?xml version="1.0" standalone="no"?>
<!DOCTYPE svg PUBLIC "-//W3C//DTD SVG 20010904//EN"
 "http://www.w3.org/TR/2001/REC-SVG-20010904/DTD/svg10.dtd">
<svg version="1.0" xmlns="http://www.w3.org/2000/svg"
 width="173.000000pt" height="110.000000pt" viewBox="0 0 173.000000 110.000000"
 preserveAspectRatio="xMidYMid meet">
<metadata>
Created by potrace 1.16, written by Peter Selinger 2001-2019
</metadata>
<g transform="translate(0.000000,110.000000) scale(0.100000,-0.100000)"
fill="#000000" stroke="none">
<path d="M873 687 l-109 -113 -60 -2 -59 -2 104 101 c71 69 100 104 93 111
-12 12 -115 -75 -188 -159 l-45 -53 -91 0 -90 0 98 94 c80 76 97 97 87 107
-10 10 -35 -9 -126 -99 -97 -95 -119 -112 -145 -112 -22 0 -32 -5 -32 -15 0
-9 9 -15 21 -15 21 0 21 -1 -5 -35 -33 -43 -20 -46 19 -5 l29 30 113 -112 c62
-61 115 -109 119 -105 7 7 -54 83 -111 137 -20 19 -46 47 -57 63 l-19 27 72 0
c71 0 72 0 54 -20 -14 -16 -15 -20 -4 -20 8 0 20 5 26 11 12 12 39 -10 166
-129 37 -36 70 -62 74 -59 8 9 -68 98 -140 162 l-60 55 55 0 c36 0 58 -4 61
-12 3 -10 7 -10 21 1 14 12 19 12 34 -1 9 -8 66 -58 126 -111 60 -54 113 -97
118 -97 15 0 -79 106 -147 166 l-60 54 58 0 c35 0 57 -4 57 -11 0 -6 7 -9 15
-5 10 3 44 -20 97 -67 115 -102 160 -138 167 -131 3 3 -42 52 -100 109 l-106
104 65 7 c47 5 67 3 70 -5 3 -9 7 -9 18 0 19 15 34 4 162 -116 57 -53 106 -94
109 -91 7 6 -100 128 -158 181 -32 29 -38 39 -28 46 10 6 6 9 -13 9 -16 0 -28
3 -28 7 0 4 41 49 91 99 71 72 90 96 85 111 -8 19 -10 17 -149 -135 -40 -43
-52 -51 -72 -46 -19 5 -25 2 -25 -10 0 -13 -12 -16 -62 -16 l-63 1 109 105
c79 77 106 108 98 116 -13 13 -74 -39 -184 -156 -62 -66 -68 -70 -88 -58 -16
10 -25 11 -33 3 -10 -10 -97 -16 -97 -6 0 2 45 48 100 102 55 53 99 101 97
107 -8 25 -31 9 -134 -97z"/>
</g>
</svg>
