<?xml version="1.0" standalone="no"?>
<!DOCTYPE svg PUBLIC "-//W3C//DTD SVG 20010904//EN"
 "http://www.w3.org/TR/2001/REC-SVG-20010904/DTD/svg10.dtd">
<svg version="1.0" xmlns="http://www.w3.org/2000/svg"
 width="181.000000pt" height="331.000000pt" viewBox="0 0 181.000000 331.000000"
 preserveAspectRatio="xMidYMid meet">
<metadata>
Created by potrace 1.16, written by Peter Selinger 2001-2019
</metadata>
<g transform="translate(0.000000,331.000000) scale(0.100000,-0.100000)"
fill="#000000" stroke="none">
<path d="M794 2966 c-43 -57 -91 -154 -99 -199 l-7 -36 -62 38 c-111 69 -156
92 -166 86 -12 -8 -14 -302 -1 -309 4 -3 58 23 118 58 l111 63 12 -41 c18 -61
53 -125 101 -187 23 -30 43 -55 45 -57 1 -2 19 7 41 21 80 50 323 187 332 187
5 0 30 -34 56 -75 l47 -74 54 36 c30 20 54 40 54 45 0 5 -16 40 -36 79 -25 51
-32 75 -25 82 21 21 48 4 -387 256 -68 39 -131 71 -140 71 -9 -1 -31 -20 -48
-44z m226 -85 c80 -43 189 -102 243 -131 l99 -52 -161 -84 c-88 -46 -204 -111
-258 -143 l-98 -60 -22 27 c-13 15 -40 60 -60 101 -31 61 -38 86 -41 147 -4
65 -1 81 27 140 40 86 88 147 110 139 9 -3 81 -41 161 -84z m-427 -120 c53
-25 97 -51 97 -58 0 -7 -50 -38 -111 -69 l-112 -56 6 114 c4 62 7 115 7 116 0
5 -1 5 113 -47z m781 -170 c20 -32 36 -61 36 -64 0 -3 -20 -16 -44 -30 l-44
-25 -37 71 c-21 39 -34 73 -29 74 5 2 23 11 39 22 17 10 33 17 37 14 4 -2 23
-30 42 -62z"/>
<path d="M830 2871 c0 -9 52 -22 60 -15 7 7 -23 24 -42 24 -10 0 -18 -4 -18
-9z"/>
<path d="M956 2862 c-14 -13 -4 -22 25 -22 16 0 28 4 25 9 -7 11 -43 21 -50
13z"/>
<path d="M800 2791 c0 -9 52 -22 60 -15 7 7 -23 24 -42 24 -10 0 -18 -4 -18
-9z"/>
<path d="M1110 2746 c0 -11 10 -16 32 -16 34 0 29 13 -9 25 -17 5 -23 2 -23
-9z"/>
<path d="M972 2718 c5 -15 48 -24 48 -10 0 10 -23 22 -42 22 -5 0 -8 -6 -6
-12z"/>
<path d="M797 2704 c-11 -12 3 -24 29 -24 27 0 32 15 8 24 -20 8 -29 8 -37 0z"/>
<path d="M1090 2641 c0 -9 41 -23 48 -16 2 2 1 8 -3 14 -8 13 -45 15 -45 2z"/>
<path d="M840 2616 c0 -11 10 -16 32 -16 34 0 29 13 -9 25 -17 5 -23 2 -23 -9z"/>
<path d="M950 2601 c0 -12 48 -27 57 -17 9 8 2 13 -30 21 -17 5 -27 3 -27 -4z"/>
<path d="M496 2762 c-14 -13 -4 -22 25 -22 16 0 28 4 25 9 -7 11 -43 21 -50
13z"/>
<path d="M566 2731 c-7 -10 43 -25 52 -16 7 7 -18 25 -35 25 -6 0 -14 -4 -17
-9z"/>
<path d="M500 2690 c0 -5 15 -10 33 -10 24 0 28 3 17 10 -20 13 -50 13 -50 0z"/>
<path d="M747 2057 c-26 -34 -61 -94 -79 -133 l-33 -71 -167 5 -168 5 0 -84
c0 -46 3 -102 7 -123 l6 -39 157 6 157 6 17 -49 c16 -46 110 -196 155 -248
l20 -23 238 139 238 140 8 -111 c4 -61 8 -111 10 -112 5 -3 177 12 181 16 3 2
6 76 8 163 2 121 0 160 -9 163 -10 4 -13 -32 -13 -158 l0 -162 -61 7 c-34 3
-71 6 -81 6 -11 0 -17 4 -14 8 3 5 6 53 7 108 1 78 5 101 18 111 39 30 -18 10
-106 -37 -51 -27 -96 -50 -99 -50 -3 0 -4 30 -3 67 2 44 -2 68 -9 71 -9 3 -12
-19 -12 -75 l0 -79 -77 -44 c-43 -24 -113 -65 -155 -91 l-77 -48 -46 69 c-49
74 -95 166 -99 202 -2 13 -7 31 -11 41 -4 10 -5 51 -3 92 4 57 13 90 40 147
35 72 110 178 127 178 5 0 114 -57 243 -126 288 -156 448 -237 448 -226 0 4
-28 24 -62 44 -450 260 -617 354 -634 355 -16 1 -34 -16 -67 -60z m-124 -244
c-5 -16 -8 -58 -7 -95 l1 -68 -45 0 -45 0 7 53 c3 28 6 69 6 89 0 39 8 45 63
47 25 1 27 -1 20 -26z m-253 -73 c0 -83 -1 -90 -20 -90 -18 0 -20 7 -20 68 0
80 8 112 26 112 11 0 14 -20 14 -90z m60 61 c0 -15 3 -56 6 -90 7 -61 7 -61
-20 -61 -23 0 -26 4 -26 38 0 76 12 142 26 142 9 0 14 -11 14 -29z m80 -61 l0
-90 -31 0 c-24 0 -30 3 -25 16 3 9 6 49 6 90 0 72 1 74 25 74 25 0 25 -1 25
-90z"/>
<path d="M731 1843 c0 -27 3 -66 8 -88 l7 -40 7 49 c12 82 9 126 -8 126 -11 0
-15 -12 -14 -47z"/>
<path d="M814 1868 c3 -13 6 -52 7 -88 1 -51 3 -59 9 -35 4 17 8 56 9 88 1 46
-2 57 -15 57 -12 0 -15 -6 -10 -22z"/>
<path d="M910 1804 c0 -54 4 -83 10 -79 6 3 10 42 10 86 0 46 -4 79 -10 79 -6
0 -10 -35 -10 -86z"/>
<path d="M1031 1803 c0 -59 3 -81 9 -68 12 28 12 155 0 155 -6 0 -10 -35 -9
-87z"/>
<path d="M1120 1805 c0 -50 4 -85 10 -85 6 0 10 35 10 85 0 50 -4 85 -10 85
-6 0 -10 -35 -10 -85z"/>
<path d="M731 1633 c0 -27 3 -66 8 -88 l7 -40 7 49 c12 82 9 126 -8 126 -11 0
-15 -12 -14 -47z"/>
<path d="M814 1643 c3 -21 6 -60 7 -88 1 -44 2 -46 9 -20 4 17 8 56 9 88 1 46
-2 57 -15 57 -12 0 -15 -8 -10 -37z"/>
<path d="M910 1594 c0 -54 4 -83 10 -79 6 3 10 42 10 86 0 46 -4 79 -10 79 -6
0 -10 -35 -10 -86z"/>
<path d="M1031 1593 c0 -59 3 -81 9 -68 12 28 12 155 0 155 -6 0 -10 -35 -9
-87z"/>
<path d="M807 1102 c-17 -3 -18 -15 -15 -138 l3 -134 -168 0 -168 0 3 -117 3
-118 166 4 166 4 6 -84 c4 -46 7 -114 7 -151 0 -38 2 -68 6 -68 3 0 69 38 147
83 209 123 322 187 330 187 4 0 7 -50 7 -110 l0 -110 88 6 c48 4 88 7 88 8 1
0 4 73 5 161 3 122 7 163 18 171 16 12 3 20 -429 269 -137 78 -253 139 -263
137z m65 -71 l27 -14 3 -299 c2 -165 0 -308 -4 -318 -4 -10 -21 -26 -37 -35
l-31 -16 0 352 c0 193 3 349 8 347 4 -2 19 -10 34 -17z m110 -63 c14 -11 17
-44 20 -266 l3 -252 -44 -27 -44 -26 6 153 c4 84 7 220 7 302 0 161 -1 158 52
116z m91 -44 c33 -16 34 -18 41 -92 3 -41 6 -129 6 -196 l0 -121 -52 -29 -51
-29 6 114 c4 63 7 171 7 242 0 70 2 127 5 127 2 0 20 -7 38 -16z m100 -56 c14
-11 17 -36 18 -163 l1 -150 -25 -15 c-14 -8 -27 -12 -29 -10 -7 9 4 350 11
350 4 0 15 -6 24 -12z m90 -48 c37 -22 46 -48 48 -145 1 -40 3 -45 9 -25 4 14
8 49 9 78 1 28 3 52 6 52 10 0 145 -70 145 -75 0 -7 -261 -137 -266 -132 -5 4
7 267 12 267 2 0 18 -9 37 -20z m-595 -107 l3 -93 -32 0 -32 0 7 53 c3 28 6
71 6 95 0 39 2 43 23 40 21 -3 22 -8 25 -95z m132 2 l0 -95 -55 0 -55 0 0 64
c0 35 3 78 6 95 6 30 9 31 55 31 l49 0 0 -95z m-275 10 c9 -88 4 -106 -25 -98
-16 4 -20 11 -16 27 3 11 6 49 6 84 0 47 3 62 14 62 10 0 16 -20 21 -75z m65
-16 c0 -88 -1 -90 -22 -87 -13 2 -22 6 -20 11 1 4 2 43 2 87 0 73 2 80 20 80
19 0 20 -7 20 -91z m870 -184 l0 -145 -71 0 -72 0 6 68 c4 37 7 86 7 109 0 40
2 42 63 77 34 19 63 35 65 36 1 0 2 -65 2 -145z"/>
</g>
</svg>
