<?xml version="1.0" standalone="no"?>
<!DOCTYPE svg PUBLIC "-//W3C//DTD SVG 20010904//EN"
 "http://www.w3.org/TR/2001/REC-SVG-20010904/DTD/svg10.dtd">
<svg version="1.0" xmlns="http://www.w3.org/2000/svg"
 width="256.000000pt" height="238.000000pt" viewBox="0 0 256.000000 238.000000"
 preserveAspectRatio="xMidYMid meet">
<metadata>
Created by potrace 1.16, written by Peter Selinger 2001-2019
</metadata>
<g transform="translate(0.000000,238.000000) scale(0.100000,-0.100000)"
fill="#000000" stroke="none">
<path d="M865 2064 c-77 -17 -182 -61 -232 -100 -30 -22 -39 -24 -157 -24
-113 0 -126 -2 -126 -17 0 -16 11 -18 124 -14 124 3 125 3 153 -24 34 -33 149
-88 223 -106 86 -22 366 -19 455 5 75 20 178 67 210 96 17 16 46 19 193 26 94
4 172 10 172 14 0 8 -151 20 -261 20 -71 0 -81 3 -128 34 -106 72 -249 106
-433 105 -68 0 -154 -7 -193 -15z m311 -21 c-12 -12 -216 -15 -216 -3 0 6 40
10 112 10 61 0 108 -3 104 -7z m54 -123 c0 -100 -2 -119 -16 -124 -9 -4 -18
-5 -19 -4 -1 2 0 60 3 130 4 101 7 125 18 121 11 -4 14 -33 14 -123z m-345
101 c-3 -6 -22 -11 -42 -11 -42 0 -38 9 9 19 37 9 43 7 33 -8z m55 -101 c0
-115 -1 -120 -21 -120 -18 0 -20 4 -13 33 4 17 7 71 6 120 -2 71 1 87 13 87
12 0 15 -20 15 -120z m380 99 c10 -6 1 -8 -27 -9 -32 0 -43 4 -43 15 0 12 7
14 28 9 15 -4 34 -10 42 -15z m-140 -19 c0 -19 -7 -20 -110 -20 -90 0 -110 3
-110 15 0 11 18 15 78 18 42 1 92 4 110 5 26 2 32 -2 32 -18z m-290 -25 l0
-25 -103 0 c-62 0 -107 -4 -114 -11 -6 -6 -17 -9 -24 -7 -29 10 67 53 131 59
116 11 110 11 110 -16z m537 8 c24 -10 43 -21 43 -25 0 -5 -49 -8 -110 -8
-102 0 -110 1 -110 20 0 16 8 20 63 23 34 2 64 4 67 5 3 1 24 -6 47 -15z
m-247 -38 c0 -12 -19 -15 -110 -15 -60 0 -110 4 -110 9 0 16 22 19 123 20 80
1 97 -2 97 -14z m313 -30 c4 -22 -2 -29 -33 -45 -20 -10 -65 -28 -101 -39
-117 -36 -109 -36 -109 -2 l0 31 83 0 c45 0 89 5 97 10 10 7 -16 10 -82 10
-97 0 -98 0 -98 25 0 24 2 24 88 28 48 1 101 4 118 5 27 2 32 -2 37 -23z
m-603 -10 c0 -25 -1 -25 -84 -25 -57 0 -86 -4 -88 -12 -5 -13 -78 27 -78 42 0
10 54 15 173 18 76 2 77 2 77 -23z m290 -15 c0 -19 -7 -20 -110 -20 -89 0
-110 3 -110 14 0 16 32 22 148 24 66 2 72 0 72 -18z m-290 -59 c0 -32 -1 -33
-95 -4 -79 24 -76 33 13 33 l82 0 0 -29z m290 -11 l0 -30 -110 0 c-110 0 -110
0 -110 24 0 28 15 31 148 34 l72 2 0 -30z"/>
<path d="M1020 1600 c-19 -5 -74 -16 -123 -24 -55 -10 -131 -35 -205 -67
l-117 -51 -112 5 c-105 4 -113 3 -113 -14 0 -17 9 -19 113 -19 112 0 113 0
217 -46 122 -54 207 -77 345 -94 124 -16 170 -5 348 75 l122 56 155 5 c85 3
175 8 200 11 l45 7 -50 7 c-27 4 -114 8 -192 8 l-141 1 -122 55 c-175 79 -287
105 -370 85z m159 -37 c23 -6 23 -7 5 -14 -40 -16 -118 -9 -144 12 l-25 21 70
-6 c39 -3 81 -9 94 -13z m-183 -7 c23 -23 17 -26 -46 -26 -70 0 -78 13 -17 27
23 6 43 11 45 12 2 0 10 -5 18 -13z m269 -46 l30 -20 -73 0 c-40 0 -83 5 -95
12 -21 11 -21 11 -2 19 39 15 109 9 140 -11z m-192 -4 c16 -12 15 -14 -14 -20
-47 -9 -75 -7 -105 6 l-28 13 30 6 c50 11 98 9 117 -5z m268 -4 c-7 -2 -18 1
-23 6 -8 8 -4 9 13 5 13 -4 18 -8 10 -11z m-445 -7 c18 -13 16 -14 -27 -15
-25 0 -54 7 -65 15 -18 13 -16 14 27 15 25 0 54 -7 65 -15z m448 -30 c18 -14
16 -15 -32 -16 -29 -1 -60 -2 -69 -2 -10 0 -29 3 -43 8 -23 9 -21 10 20 16 76
10 104 9 124 -6z m101 0 l30 -13 -36 -1 c-19 -1 -44 6 -55 14 -18 14 -18 14 6
14 14 0 39 -6 55 -14z m-655 -5 c18 -6 6 -8 -43 -9 -43 -1 -66 3 -62 9 7 12
69 12 105 0z m366 -5 c17 -13 13 -14 -48 -15 -80 0 -119 11 -73 21 53 12 101
9 121 -6z m-186 -5 c11 -7 1 -10 -35 -10 -27 0 -57 5 -65 10 -11 7 -1 10 35
10 28 0 57 -5 65 -10z m497 -16 c-3 -3 -12 -4 -19 -1 -8 3 -5 6 6 6 11 1 17
-2 13 -5z m-577 -31 c23 -13 17 -14 -61 -9 -48 3 -102 13 -120 21 -33 15 -30
15 61 9 53 -3 106 -13 120 -21z m530 18 c0 -8 -71 -21 -120 -21 -15 0 -33 7
-40 15 -11 13 -2 15 74 15 47 0 86 -4 86 -9z m-374 -16 c17 -13 15 -14 -36
-14 -33 0 -63 6 -74 14 -18 14 -15 15 35 15 33 0 63 -6 75 -15z m184 5 c10 -7
-10 -10 -67 -10 -45 0 -85 5 -88 10 -8 13 135 13 155 0z m60 -40 c0 -6 -31
-10 -74 -10 -41 0 -78 5 -81 10 -4 6 23 10 74 10 47 0 81 -4 81 -10z m-320
-10 c19 -12 -106 -12 -135 0 -14 6 2 9 50 9 39 0 77 -4 85 -9z m145 0 c8 -13
-95 -13 -115 0 -11 7 3 10 47 10 34 0 65 -4 68 -10z m101 -19 c-10 -15 -146
-35 -158 -23 -10 10 23 17 117 25 22 2 41 4 43 5 2 1 1 -2 -2 -7z m-186 -22
c11 -7 4 -8 -25 -3 -50 8 -58 14 -19 14 16 0 36 -5 44 -11z"/>
<path d="M1036 943 c-3 -4 -12 -8 -19 -9 -30 -4 -437 -267 -437 -282 0 -4 -63
-6 -140 -4 -140 4 -140 4 -140 -18 l0 -23 145 7 c124 7 144 6 140 -7 -8 -20
400 -287 438 -287 8 0 17 -6 19 -12 5 -13 160 98 338 242 l95 77 390 7 c214 4
391 9 394 11 2 3 2 7 -1 10 -2 3 -193 8 -423 11 l-418 6 -76 62 c-97 79 -280
216 -290 216 -4 0 -11 -3 -15 -7z m275 -230 l27 -16 -30 -25 -29 -25 -42 30
c-23 16 -95 67 -160 113 l-119 84 27 22 27 21 136 -94 c76 -52 149 -102 163
-110z m-326 101 c28 -19 100 -65 160 -101 61 -37 112 -68 115 -70 6 -5 -52
-52 -65 -52 -10 -1 -260 172 -294 203 -20 18 -20 18 2 37 12 10 24 18 27 19 3
0 28 -16 55 -36z m-77 -67 c32 -23 106 -71 165 -106 59 -35 107 -65 107 -66 0
-2 -22 -20 -50 -40 l-49 -36 -98 67 c-54 37 -125 88 -157 113 l-59 45 39 33
c21 18 40 33 41 33 2 0 29 -19 61 -43z m-73 -114 c50 -33 123 -79 162 -102
l73 -43 -62 -45 c-57 -42 -64 -45 -84 -32 -24 15 -274 197 -287 209 -5 4 15
26 45 48 29 21 55 36 58 32 3 -4 46 -34 95 -67z m605 -7 c0 -2 -48 -34 -107
-72 -136 -86 -307 -206 -312 -217 -2 -5 -14 1 -27 14 l-23 22 62 47 c34 26
120 97 191 158 l130 110 43 -29 c24 -17 43 -31 43 -33z"/>
</g>
</svg>
