<?xml version="1.0" standalone="no"?>
<!DOCTYPE svg PUBLIC "-//W3C//DTD SVG 20010904//EN"
 "http://www.w3.org/TR/2001/REC-SVG-20010904/DTD/svg10.dtd">
<svg version="1.0" xmlns="http://www.w3.org/2000/svg"
 width="256.000000pt" height="215.000000pt" viewBox="0 0 256.000000 215.000000"
 preserveAspectRatio="xMidYMid meet">
<metadata>
Created by potrace 1.16, written by Peter Selinger 2001-2019
</metadata>
<g transform="translate(0.000000,215.000000) scale(0.100000,-0.100000)"
fill="#000000" stroke="none">
<path d="M1009 1843 c-2 -5 -42 -17 -88 -27 -108 -23 -167 -49 -279 -125 l-91
-61 -126 0 -125 0 0 -25 0 -25 114 0 c63 0 116 -4 118 -8 6 -16 218 -152 266
-171 27 -11 85 -27 128 -36 43 -9 84 -21 91 -26 15 -13 88 1 153 29 25 11 95
55 155 97 61 43 125 89 144 102 32 22 42 23 201 23 250 0 598 13 570 21 -14 4
-194 7 -400 8 l-376 1 -114 81 c-63 45 -143 95 -176 111 -63 29 -159 48 -165
31z m109 -60 c24 -8 76 -34 115 -57 40 -24 93 -55 120 -70 26 -15 47 -28 47
-29 0 -3 -663 2 -715 6 l-39 2 82 54 c46 30 122 69 170 87 94 36 130 37 220 7z
m197 -280 c-83 -48 -172 -95 -200 -105 -117 -41 -230 -9 -424 121 l-85 56 300
5 c164 3 357 6 429 8 l130 2 -150 -87z"/>
<path d="M1035 930 c-4 -6 -10 -8 -15 -5 -10 6 -141 -72 -309 -185 l-120 -80
-146 0 c-138 0 -145 -1 -145 -20 0 -19 7 -20 141 -20 129 0 140 -1 135 -17 -4
-14 24 -37 127 -105 207 -136 298 -190 328 -195 23 -3 51 13 161 95 73 55 166
128 206 162 l74 62 394 5 c217 4 394 9 394 13 0 4 -190 10 -422 14 l-422 7
-91 72 c-108 87 -270 207 -278 207 -3 0 -9 -5 -12 -10z m-1 -39 c12 -10 92
-67 178 -125 l158 -106 -342 0 c-188 0 -338 4 -332 8 5 5 73 57 151 116 79 59
145 112 148 117 9 13 16 11 39 -10z m327 -324 c-111 -69 -323 -216 -337 -233
-8 -10 -25 -1 -80 43 -38 30 -124 96 -191 145 -68 50 -123 92 -123 94 0 2 183
4 408 4 l407 -1 -84 -52z"/>
</g>
</svg>
