<?xml version="1.0" standalone="no"?>
<!DOCTYPE svg PUBLIC "-//W3C//DTD SVG 20010904//EN"
 "http://www.w3.org/TR/2001/REC-SVG-20010904/DTD/svg10.dtd">
<svg version="1.0" xmlns="http://www.w3.org/2000/svg"
 width="127.000000pt" height="134.000000pt" viewBox="0 0 127.000000 134.000000"
 preserveAspectRatio="xMidYMid meet">
<metadata>
Created by potrace 1.16, written by Peter Selinger 2001-2019
</metadata>
<g transform="translate(0.000000,134.000000) scale(0.100000,-0.100000)"
fill="#000000" stroke="none">
<path d="M315 1020 c-17 -19 -18 -41 -12 -353 3 -182 9 -340 12 -349 10 -25
20 -23 72 17 25 19 49 32 54 29 5 -3 9 1 9 8 1 10 191 156 304 232 10 7 40 -8
106 -53 129 -86 140 -67 15 27 -33 25 -65 52 -72 60 -10 12 -24 7 -95 -33 -46
-26 -117 -71 -158 -99 -41 -29 -79 -55 -85 -58 -9 -6 -9 431 0 440 2 2 39 -21
82 -51 43 -30 115 -76 161 -102 72 -41 85 -45 95 -32 7 8 42 38 80 66 l67 52
1 -83 c1 -46 5 -110 9 -143 5 -46 7 -24 9 98 1 110 -2 157 -10 157 -6 0 -51
-27 -100 -60 -48 -33 -90 -60 -93 -60 -3 0 -100 70 -216 155 -116 85 -212 155
-214 155 -2 0 -11 -9 -21 -20z m81 -77 c21 -17 22 -28 27 -270 l5 -253 -41
-30 c-23 -16 -45 -30 -50 -30 -5 0 -6 28 -3 63 2 34 5 174 5 310 1 272 -2 259
57 210z"/>
</g>
</svg>
