<?xml version="1.0" standalone="no"?>
<!DOCTYPE svg PUBLIC "-//W3C//DTD SVG 20010904//EN"
 "http://www.w3.org/TR/2001/REC-SVG-20010904/DTD/svg10.dtd">
<svg version="1.0" xmlns="http://www.w3.org/2000/svg"
 width="123.000000pt" height="134.000000pt" viewBox="0 0 123.000000 134.000000"
 preserveAspectRatio="xMidYMid meet">
<metadata>
Created by potrace 1.16, written by Peter Selinger 2001-2019
</metadata>
<g transform="translate(0.000000,134.000000) scale(0.100000,-0.100000)"
fill="#000000" stroke="none">
<path d="M315 1020 c-17 -19 -18 -41 -12 -353 3 -183 9 -340 12 -350 10 -24
21 -22 64 12 21 17 44 31 52 33 8 2 19 10 26 19 6 9 67 55 134 104 122 88 122
88 148 71 47 -31 95 -49 144 -54 l47 -5 0 177 0 176 -42 -6 c-41 -6 -125 -41
-159 -65 -14 -10 -38 3 -145 81 -71 51 -155 113 -186 137 -31 23 -58 43 -61
43 -2 0 -12 -9 -22 -20z m81 -77 c21 -17 22 -27 25 -271 l4 -254 -42 -31 c-24
-17 -44 -29 -46 -26 -2 2 -1 142 1 311 5 336 1 319 58 271z m191 -132 c100
-66 111 -76 102 -94 -10 -17 -9 -75 2 -103 2 -7 -50 -48 -116 -92 -66 -44
-120 -80 -120 -79 -2 85 8 447 13 445 4 -2 57 -36 119 -77z m268 -12 c-20 -18
-43 -45 -51 -61 l-15 -28 -29 22 c-28 20 -29 23 -14 40 16 17 106 56 132 57 7
1 -3 -13 -23 -30z m-99 -90 c19 -11 34 -29 34 -39 0 -20 -64 -65 -79 -55 -16
10 -24 71 -12 94 14 26 16 26 57 0z m96 -161 l37 -36 -37 10 c-39 11 -88 34
-110 51 -10 8 -7 15 15 33 l28 23 15 -22 c8 -12 31 -38 52 -59z"/>
</g>
</svg>
