<?xml version="1.0" standalone="no"?>
<!DOCTYPE svg PUBLIC "-//W3C//DTD SVG 20010904//EN"
 "http://www.w3.org/TR/2001/REC-SVG-20010904/DTD/svg10.dtd">
<svg version="1.0" xmlns="http://www.w3.org/2000/svg"
 width="127.000000pt" height="134.000000pt" viewBox="0 0 127.000000 134.000000"
 preserveAspectRatio="xMidYMid meet">
<metadata>
Created by potrace 1.16, written by Peter Selinger 2001-2019
</metadata>
<g transform="translate(0.000000,134.000000) scale(0.100000,-0.100000)"
fill="#000000" stroke="none">
<path d="M317 1022 c-15 -16 -17 -47 -17 -229 0 -291 10 -484 26 -490 6 -2 99
60 206 140 106 79 205 151 220 161 27 17 27 17 118 -44 126 -84 140 -67 20 24
-94 73 -92 72 -168 30 -76 -42 -177 -109 -303 -200 l-87 -63 5 312 c3 172 6
313 7 313 0 1 64 -42 141 -97 77 -54 176 -118 219 -143 l79 -44 56 38 c75 51
138 106 130 115 -4 3 -51 -23 -105 -58 l-97 -64 -214 158 c-117 88 -215 159
-217 159 -1 0 -10 -8 -19 -18z"/>
</g>
</svg>
