<?xml version="1.0" standalone="no"?>
<!DOCTYPE svg PUBLIC "-//W3C//DTD SVG 20010904//EN"
 "http://www.w3.org/TR/2001/REC-SVG-20010904/DTD/svg10.dtd">
<svg version="1.0" xmlns="http://www.w3.org/2000/svg"
 width="123.000000pt" height="134.000000pt" viewBox="0 0 123.000000 134.000000"
 preserveAspectRatio="xMidYMid meet">
<metadata>
Created by potrace 1.16, written by Peter Selinger 2001-2019
</metadata>
<g transform="translate(0.000000,134.000000) scale(0.100000,-0.100000)"
fill="#000000" stroke="none">
<path d="M317 1022 c-15 -16 -17 -46 -17 -209 0 -238 11 -488 21 -505 10 -16
-8 -27 217 138 l179 131 29 -24 c32 -26 112 -53 156 -53 l28 0 0 175 0 175
-42 -6 c-41 -6 -126 -41 -159 -65 -12 -9 -38 5 -145 81 -71 51 -155 113 -186
137 -31 23 -58 43 -61 43 -2 0 -11 -8 -20 -18z m171 -144 c68 -48 141 -98 163
-110 l39 -22 -6 -51 c-4 -30 -2 -60 4 -72 10 -17 -2 -28 -111 -101 -67 -45
-148 -101 -180 -124 -31 -22 -59 -39 -60 -37 -2 2 -1 142 1 311 3 221 7 306
15 301 6 -4 67 -46 135 -95z m367 -79 c-20 -18 -43 -45 -51 -61 l-15 -28 -29
22 c-28 20 -29 23 -14 40 16 17 106 56 132 57 7 1 -3 -13 -23 -30z m-99 -90
c19 -11 34 -29 34 -39 0 -20 -64 -65 -79 -55 -16 10 -24 71 -12 94 14 26 16
26 57 0z m96 -161 l37 -36 -37 10 c-39 11 -88 34 -110 51 -10 8 -7 15 15 33
l28 23 15 -22 c8 -12 31 -38 52 -59z"/>
</g>
</svg>
