<?xml version="1.0" standalone="no"?>
<!DOCTYPE svg PUBLIC "-//W3C//DTD SVG 20010904//EN"
 "http://www.w3.org/TR/2001/REC-SVG-20010904/DTD/svg10.dtd">
<svg version="1.0" xmlns="http://www.w3.org/2000/svg"
 width="131.000000pt" height="234.000000pt" viewBox="0 0 131.000000 234.000000"
 preserveAspectRatio="xMidYMid meet">
<metadata>
Created by potrace 1.16, written by Peter Selinger 2001-2019
</metadata>
<g transform="translate(0.000000,234.000000) scale(0.100000,-0.100000)"
fill="#000000" stroke="none">
<path d="M403 2021 c-13 -11 -34 -41 -48 -68 -54 -110 -69 -245 -40 -373 27
-116 87 -280 103 -280 11 0 254 173 370 263 8 7 24 2 50 -15 38 -25 82 -42
140 -52 l32 -5 0 174 0 175 -37 0 c-42 0 -117 -31 -148 -60 -20 -19 -22 -18
-210 120 -104 77 -190 140 -190 140 0 -1 -10 -9 -22 -19z m73 -73 c37 -26 44
-37 44 -65 0 -18 -3 -33 -7 -33 -5 0 -32 22 -61 48 -40 35 -52 52 -47 65 10
24 20 22 71 -15z m-19 -83 c56 -36 62 -44 63 -74 0 -37 1 -38 -70 24 -19 17
-45 38 -58 46 -15 11 -20 22 -16 33 8 20 2 22 81 -29z m207 -49 c53 -36 101
-66 107 -68 8 -3 8 -15 0 -44 -8 -30 -8 -50 0 -73 6 -18 10 -33 8 -35 -2 -2
-38 -25 -79 -51 -41 -26 -92 -61 -113 -78 l-38 -29 2 183 c1 168 6 259 14 259
2 0 46 -29 99 -64z m-216 -31 c67 -47 71 -52 72 -88 l0 -38 -80 61 c-44 34
-85 58 -91 55 -9 -6 -3 37 8 58 6 11 7 10 91 -48z m501 22 c-15 -12 -38 -39
-52 -60 l-25 -37 -27 22 -27 23 21 19 c17 16 112 55 131 55 3 0 -7 -10 -21
-22z m-499 -125 c56 -34 66 -44 72 -77 5 -21 7 -39 5 -41 -1 -2 -35 22 -75 53
-50 38 -76 53 -83 46 -12 -12 36 -53 113 -97 45 -26 46 -28 50 -81 3 -61 11
-63 -89 23 -34 30 -66 51 -72 48 -14 -9 -21 19 -28 118 l-6 91 24 -22 c13 -12
53 -39 89 -61z m385 31 c49 -23 49 -62 0 -89 -31 -17 -37 -17 -45 -4 -11 17
-13 55 -4 88 8 26 5 26 49 5z m114 -181 l26 -23 -25 7 c-44 11 -94 34 -112 51
-18 16 -18 18 9 38 l27 22 24 -36 c13 -20 36 -46 51 -59z m-501 -60 c34 -24
62 -47 62 -51 0 -11 -99 -81 -103 -73 -2 4 -12 41 -21 82 -10 41 -19 81 -22
88 -4 15 -2 14 84 -46z"/>
<path d="M401 1024 c-24 -27 -10 -713 14 -721 6 -1 95 60 199 136 l190 139 33
-25 c34 -26 110 -53 150 -53 l23 0 0 175 c0 163 -1 175 -18 175 -34 0 -119
-30 -156 -55 l-38 -26 -183 136 c-101 74 -187 135 -191 135 -5 -1 -15 -8 -23
-16z m87 -82 c21 -16 32 -33 32 -49 0 -24 -1 -24 -45 13 -25 20 -45 45 -45 56
0 21 5 19 58 -20z m32 -129 c0 -23 -2 -24 -17 -12 -46 34 -73 64 -73 81 0 17
6 15 45 -12 34 -23 45 -37 45 -57z m253 -93 c-9 -34 -9 -60 0 -92 7 -28 -8
-40 -210 -171 -10 -6 -12 38 -9 205 2 117 4 216 5 220 1 4 50 -25 111 -65 101
-66 109 -74 103 -97z m167 84 c-17 -15 -38 -41 -48 -59 l-17 -33 -30 24 -30
24 25 20 c25 19 93 48 118 49 8 1 0 -11 -18 -25z m-420 -82 l0 -35 -42 35
c-31 26 -44 44 -46 67 l-3 32 45 -33 c39 -27 46 -37 46 -66z m320 -7 c44 -23
42 -66 -5 -88 -33 -16 -35 -16 -45 3 -18 33 -10 100 12 100 5 0 22 -7 38 -15z
m-319 -73 c0 -9 2 -25 4 -34 5 -25 -1 -23 -51 18 -34 28 -44 43 -44 66 l0 29
45 -31 c25 -17 45 -39 46 -48z m410 -84 c26 -27 32 -38 20 -38 -21 0 -117 45
-125 58 -3 6 6 20 21 32 27 21 28 21 38 3 5 -10 26 -35 46 -55z m-401 -46 c0
-41 -1 -43 -20 -29 -11 8 -35 28 -54 44 -27 25 -32 36 -28 61 l4 31 49 -32
c46 -30 49 -35 49 -75z m-42 -45 c23 -16 42 -30 42 -32 0 -5 -97 -75 -104 -75
-3 0 -6 34 -6 76 0 57 3 73 13 68 6 -5 31 -21 55 -37z"/>
</g>
</svg>
