<?xml version="1.0" standalone="no"?>
<!DOCTYPE svg PUBLIC "-//W3C//DTD SVG 20010904//EN"
 "http://www.w3.org/TR/2001/REC-SVG-20010904/DTD/svg10.dtd">
<svg version="1.0" xmlns="http://www.w3.org/2000/svg"
 width="159.000000pt" height="106.000000pt" viewBox="0 0 159.000000 106.000000"
 preserveAspectRatio="xMidYMid meet">
<metadata>
Created by potrace 1.16, written by Peter Selinger 2001-2019
</metadata>
<g transform="translate(0.000000,106.000000) scale(0.100000,-0.100000)"
fill="#000000" stroke="none">
<path d="M480 739 l0 -22 390 6 c215 4 390 5 390 3 0 -2 -41 -40 -90 -86 -65
-59 -94 -79 -103 -72 -7 6 -138 11 -327 13 -303 4 -315 3 -318 -15 -4 -19 4
-19 322 -12 179 3 326 4 326 2 0 -3 -50 -46 -111 -96 -77 -63 -117 -89 -128
-85 -61 24 -182 47 -271 52 l-105 4 -77 -51 c-43 -28 -78 -55 -78 -60 0 -24
26 -18 73 18 99 75 100 75 185 68 95 -9 272 -44 289 -58 16 -13 17 -12 153
102 112 95 290 272 290 290 0 10 -132 15 -527 18 l-283 3 0 -22z"/>
<path d="M460 653 c0 -17 18 -18 267 -15 148 1 302 5 343 9 l75 7 -70 7 c-38
4 -193 7 -342 8 -254 1 -273 0 -273 -16z"/>
<path d="M385 500 c-3 -5 -3 -14 0 -20 7 -11 535 -2 548 10 4 4 -84 10 -195
13 -277 9 -346 9 -353 -3z"/>
</g>
</svg>
