<?xml version="1.0" standalone="no"?>
<!DOCTYPE svg PUBLIC "-//W3C//DTD SVG 20010904//EN"
 "http://www.w3.org/TR/2001/REC-SVG-20010904/DTD/svg10.dtd">
<svg version="1.0" xmlns="http://www.w3.org/2000/svg"
 width="197.000000pt" height="161.000000pt" viewBox="0 0 197.000000 161.000000"
 preserveAspectRatio="xMidYMid meet">
<metadata>
Created by potrace 1.16, written by Peter Selinger 2001-2019
</metadata>
<g transform="translate(0.000000,161.000000) scale(0.100000,-0.100000)"
fill="#000000" stroke="none">
<path d="M1086 1288 c15 -49 66 -153 82 -168 31 -29 207 -89 200 -69 -4 11
-161 79 -182 79 -6 0 -26 41 -45 90 -21 56 -39 90 -48 90 -10 0 -12 -6 -7 -22z"/>
<path d="M880 1105 c0 -14 -3 -15 -15 -5 -17 14 -47 -1 -220 -116 -217 -144
-345 -281 -345 -368 0 -96 94 -257 172 -295 69 -33 207 -30 313 8 155 55 809
361 840 393 22 23 -55 -8 -438 -174 -218 -95 -397 -178 -397 -184 0 -29 -173
-43 -252 -20 -91 26 -163 125 -192 261 l-13 64 75 76 c41 41 107 99 146 129
86 65 270 186 282 186 5 0 20 -26 34 -58 13 -31 47 -106 75 -167 28 -60 56
-121 62 -135 11 -23 12 -21 12 21 l1 46 188 73 c103 40 220 88 261 107 41 18
78 30 82 26 3 -5 14 -33 24 -63 34 -106 77 -210 87 -210 6 0 7 13 3 33 -6 27
-66 234 -80 275 -4 10 -11 9 -35 -3 -30 -16 -277 -105 -290 -105 -4 0 -22 41
-41 90 -18 50 -38 89 -44 87 -11 -4 -11 -18 0 -54 7 -20 -4 -18 -126 33 -168
70 -169 71 -169 49z m126 -69 c65 -24 135 -47 154 -51 29 -5 39 -14 57 -51 20
-40 21 -46 6 -51 -9 -3 -28 -2 -42 4 -117 47 -257 107 -263 112 -8 7 -40 81
-35 81 2 0 57 -20 123 -44z m67 -139 l98 -35 -82 -31 c-45 -17 -83 -30 -84
-29 -6 7 -65 128 -65 134 0 8 8 5 133 -39z"/>
<path d="M599 878 c-15 -12 -8 -29 62 -158 107 -197 113 -209 107 -215 -13
-13 -158 -36 -201 -32 -67 6 -95 31 -147 130 -46 89 -60 104 -60 65 1 -57 82
-185 134 -213 42 -23 132 -17 231 16 39 12 71 23 73 24 4 3 -96 224 -144 318
-35 68 -42 76 -55 65z"/>
</g>
</svg>
