<?xml version="1.0" standalone="no"?>
<!DOCTYPE svg PUBLIC "-//W3C//DTD SVG 20010904//EN"
 "http://www.w3.org/TR/2001/REC-SVG-20010904/DTD/svg10.dtd">
<svg version="1.0" xmlns="http://www.w3.org/2000/svg"
 width="94.000000pt" height="284.000000pt" viewBox="0 0 94.000000 284.000000"
 preserveAspectRatio="xMidYMid meet">
<metadata>
Created by potrace 1.16, written by Peter Selinger 2001-2019
</metadata>
<g transform="translate(0.000000,284.000000) scale(0.100000,-0.100000)"
fill="#000000" stroke="none">
<path d="M500 2465 c-122 -165 -200 -339 -200 -443 0 -60 50 -181 131 -320 86
-147 149 -245 155 -239 3 3 -27 65 -68 139 -86 158 -165 336 -174 394 -14 93
54 256 175 424 50 69 66 98 59 108 -6 6 -13 12 -17 12 -3 0 -31 -34 -61 -75z"/>
<path d="M498 1168 c-53 -95 -117 -215 -143 -266 -43 -83 -46 -94 -33 -110 9
-9 48 -73 88 -142 56 -96 193 -317 217 -349 2 -2 6 -2 9 2 7 7 -117 247 -220
426 l-65 115 22 35 c12 20 45 74 74 121 175 285 191 314 174 327 -9 7 -18 13
-21 13 -3 0 -49 -78 -102 -172z"/>
</g>
</svg>
