<?xml version="1.0" standalone="no"?>
<!DOCTYPE svg PUBLIC "-//W3C//DTD SVG 20010904//EN"
 "http://www.w3.org/TR/2001/REC-SVG-20010904/DTD/svg10.dtd">
<svg version="1.0" xmlns="http://www.w3.org/2000/svg"
 width="159.000000pt" height="111.000000pt" viewBox="0 0 159.000000 111.000000"
 preserveAspectRatio="xMidYMid meet">
<metadata>
Created by potrace 1.16, written by Peter Selinger 2001-2019
</metadata>
<g transform="translate(0.000000,111.000000) scale(0.100000,-0.100000)"
fill="#000000" stroke="none">
<path d="M520 800 c0 -5 12 -16 28 -24 l27 -15 -47 -1 c-41 0 -48 -3 -48 -20
0 -13 7 -20 20 -20 13 0 18 -5 14 -15 -4 -8 -4 -15 -1 -15 2 0 21 7 40 15 20
8 39 15 41 15 3 0 3 -7 0 -15 -8 -19 4 -19 36 0 32 18 41 18 34 0 -8 -19 13
-19 46 0 32 18 41 18 34 0 -8 -19 4 -19 36 0 32 18 41 18 34 0 -8 -19 4 -19
36 0 28 16 66 21 41 6 -27 -18 9 -22 41 -5 25 14 64 18 163 21 72 2 138 5 148
7 9 2 17 1 17 -2 0 -10 -151 -146 -289 -261 -85 -71 -128 -100 -140 -96 -68
26 -173 47 -263 52 l-107 6 -81 -53 c-44 -29 -80 -56 -80 -60 0 -22 31 -14 70
16 93 74 103 77 193 70 92 -8 266 -43 284 -58 16 -13 16 -12 160 110 109 91
272 256 281 282 2 6 -20 10 -50 10 -86 0 -188 12 -182 21 6 11 -4 10 -31 0
-14 -6 -35 -1 -68 16 -45 22 -75 23 -62 2 9 -13 -6 -11 -35 6 -32 19 -44 19
-36 0 7 -19 2 -19 -35 0 -29 16 -55 12 -44 -5 3 -5 -10 -3 -29 5 -44 19 -50
19 -42 0 7 -19 2 -19 -35 1 -39 20 -52 9 -19 -16 35 -27 19 -25 -40 5 -55 28
-60 29 -60 15z m195 -30 c3 -6 -1 -7 -9 -4 -18 7 -21 14 -7 14 6 0 13 -4 16
-10z m70 0 c3 -6 -1 -7 -9 -4 -18 7 -21 14 -7 14 6 0 13 -4 16 -10z m150 0 c3
-5 2 -10 -4 -10 -5 0 -13 5 -16 10 -3 6 -2 10 4 10 5 0 13 -4 16 -10z"/>
<path d="M460 655 c0 -13 33 -15 233 -15 264 0 469 10 422 21 -16 4 -171 7
-342 8 -272 1 -313 -1 -313 -14z"/>
<path d="M426 582 c-20 -33 5 -35 318 -28 171 4 315 12 320 17 6 5 -25 9 -80
9 -49 0 -193 3 -320 7 -170 4 -233 3 -238 -5z"/>
<path d="M382 493 c3 -16 25 -17 273 -14 149 1 274 6 278 10 9 9 -243 21 -431
21 -111 0 -123 -2 -120 -17z"/>
</g>
</svg>
