<?xml version="1.0" standalone="no"?>
<!DOCTYPE svg PUBLIC "-//W3C//DTD SVG 20010904//EN"
 "http://www.w3.org/TR/2001/REC-SVG-20010904/DTD/svg10.dtd">
<svg version="1.0" xmlns="http://www.w3.org/2000/svg"
 width="147.000000pt" height="143.000000pt" viewBox="0 0 147.000000 143.000000"
 preserveAspectRatio="xMidYMid meet">
<metadata>
Created by potrace 1.16, written by Peter Selinger 2001-2019
</metadata>
<g transform="translate(0.000000,143.000000) scale(0.100000,-0.100000)"
fill="#000000" stroke="none">
<path d="M305 1120 c-4 -6 5 -20 18 -31 63 -48 70 -146 21 -275 -48 -128 -41
-245 24 -371 32 -63 92 -142 109 -143 22 0 143 212 157 276 l7 31 221 7 c122
3 232 9 245 12 18 5 25 1 31 -17 l9 -23 6 25 c4 14 10 83 13 152 l7 127 -134
0 c-184 0 -391 17 -439 36 -41 17 -55 39 -52 87 2 21 -2 27 -18 27 -16 0 -20
-7 -20 -37 0 -51 32 -100 78 -121 32 -15 72 -17 290 -16 l252 1 0 -110 0 -110
-97 6 c-54 4 -164 7 -245 7 -127 0 -148 2 -148 16 0 8 -7 46 -16 85 -14 61
-18 69 -39 69 -22 0 -22 0 -8 -42 8 -24 18 -80 20 -125 6 -91 -9 -150 -69
-262 -48 -88 -52 -90 -81 -40 -88 151 -109 294 -63 439 45 143 37 248 -23 302
-34 30 -46 34 -56 18z"/>
</g>
</svg>
