<?xml version="1.0" standalone="no"?>
<!DOCTYPE svg PUBLIC "-//W3C//DTD SVG 20010904//EN"
 "http://www.w3.org/TR/2001/REC-SVG-20010904/DTD/svg10.dtd">
<svg version="1.0" xmlns="http://www.w3.org/2000/svg"
 width="198.000000pt" height="176.000000pt" viewBox="0 0 198.000000 176.000000"
 preserveAspectRatio="xMidYMid meet">
<metadata>
Created by potrace 1.16, written by Peter Selinger 2001-2019
</metadata>
<g transform="translate(0.000000,176.000000) scale(0.100000,-0.100000)"
fill="#000000" stroke="none">
<path d="M1350 1428 c-19 -17 -49 -43 -66 -58 l-32 -28 53 -109 c103 -213 141
-335 130 -412 -9 -66 -66 -231 -115 -336 -71 -151 -72 -141 23 -163 l82 -19
23 26 c44 48 152 219 190 298 37 78 37 79 37 208 l0 130 -45 100 c-62 139
-218 396 -239 395 -3 0 -22 -15 -41 -32z m98 -115 c81 -125 151 -262 181 -353
52 -157 4 -333 -154 -569 l-46 -69 -67 23 c-37 12 -67 26 -67 31 0 5 28 63 61
129 34 66 74 157 88 203 49 155 33 244 -86 494 l-60 127 37 45 c21 25 39 46
40 46 2 0 34 -48 73 -107z"/>
<path d="M739 1187 c-70 -39 -196 -117 -282 -172 -148 -96 -154 -101 -151
-130 2 -16 6 -49 7 -72 3 -42 5 -44 148 -149 163 -120 399 -278 405 -271 10
10 13 101 16 471 2 253 0 390 -7 393 -5 1 -67 -30 -136 -70z m108 -263 c-2 -2
-103 -1 -226 3 l-222 6 223 147 223 146 3 -149 c1 -83 1 -151 -1 -153z m3 -79
c0 -51 -1 -55 -22 -51 -13 3 -63 5 -111 5 l-88 1 5 48 c3 26 5 48 5 50 1 1 48
2 106 2 l105 0 0 -55z m-466 14 c10 -51 8 -59 -19 -59 -23 0 -25 4 -25 45 0
37 3 45 19 45 13 0 20 -10 25 -31z m76 9 c0 -13 3 -33 6 -45 6 -20 3 -23 -25
-23 -30 0 -31 1 -31 45 0 41 2 45 25 45 19 0 25 -5 25 -22z m70 -13 c0 -19 1
-38 3 -42 1 -5 -8 -9 -20 -11 -21 -3 -23 1 -23 42 0 39 3 46 20 46 16 0 20 -7
20 -35z m79 -10 c2 -42 0 -45 -24 -45 -23 0 -25 3 -25 45 0 40 2 45 23 45 21
0 24 -5 26 -45z m241 -158 c0 -52 3 -136 7 -187 l6 -93 -238 179 -238 179 189
5 c104 3 208 7 232 8 l42 2 0 -93z"/>
<path d="M1245 1026 c-23 -14 -47 -36 -55 -50 -10 -19 -21 -26 -44 -26 -43 -1
-108 -32 -134 -65 -15 -19 -22 -42 -22 -71 0 -56 35 -98 101 -121 38 -14 49
-23 49 -39 0 -55 78 -120 150 -126 l35 -3 0 128 c0 114 2 127 18 127 15 0 17
13 17 135 l0 135 -37 0 c-22 0 -55 -10 -78 -24z m51 -25 c-20 -38 -21 -121 -2
-166 17 -40 17 -40 -28 -21 -74 31 -100 117 -51 170 23 25 85 59 93 51 2 -2
-4 -17 -12 -34z m-181 -88 c-24 -55 -28 -111 -12 -159 9 -27 14 -51 11 -53 -2
-3 -20 3 -39 12 -37 18 -75 69 -75 102 0 32 35 80 71 98 44 21 53 21 44 0z
m127 -103 c19 -12 26 -20 17 -20 -9 0 -33 -11 -53 -25 l-36 -24 0 77 0 77 20
-33 c11 -18 34 -41 52 -52z m23 -60 c-19 -37 -19 -130 -1 -175 l15 -35 -37 15
c-20 9 -48 27 -61 42 -20 23 -22 34 -17 71 7 53 17 67 65 92 49 26 54 25 36
-10z"/>
</g>
</svg>
