<?xml version="1.0" standalone="no"?>
<!DOCTYPE svg PUBLIC "-//W3C//DTD SVG 20010904//EN"
 "http://www.w3.org/TR/2001/REC-SVG-20010904/DTD/svg10.dtd">
<svg version="1.0" xmlns="http://www.w3.org/2000/svg"
 width="136.000000pt" height="304.000000pt" viewBox="0 0 136.000000 304.000000"
 preserveAspectRatio="xMidYMid meet">
<metadata>
Created by potrace 1.16, written by Peter Selinger 2001-2019
</metadata>
<g transform="translate(0.000000,304.000000) scale(0.100000,-0.100000)"
fill="#000000" stroke="none">
<path d="M617 2684 c-37 -32 -67 -61 -67 -66 0 -4 23 -54 51 -111 29 -56 68
-142 87 -192 31 -77 36 -102 36 -175 1 -74 -4 -99 -39 -200 -37 -106 -40 -112
-43 -76 -2 28 1 42 12 48 13 8 16 32 16 145 l0 135 -37 -7 c-56 -10 -110 -41
-130 -75 -14 -24 -24 -30 -51 -30 -43 0 -105 -32 -131 -69 -49 -69 -6 -161 90
-190 31 -9 38 -17 43 -45 7 -35 55 -91 88 -102 10 -3 18 -15 18 -28 0 -20 8
-25 63 -36 34 -7 69 -17 78 -21 20 -10 58 33 138 156 105 160 158 306 147 402
-13 110 -102 305 -228 501 -33 50 -63 92 -67 92 -4 0 -37 -25 -74 -56z m149
-126 c110 -178 184 -357 184 -447 0 -52 -29 -157 -66 -238 -31 -68 -150 -263
-161 -263 -3 0 -37 10 -76 23 -64 19 -68 22 -39 25 31 3 32 4 32 53 0 35 9 67
29 107 45 89 90 226 97 295 8 80 -22 178 -112 366 l-64 134 38 42 37 42 22
-23 c11 -13 47 -65 79 -116z m-161 -431 c-19 -46 -19 -108 0 -154 8 -20 14
-38 12 -39 -2 -2 -22 6 -45 18 -95 46 -94 156 1 198 23 10 43 18 44 16 2 -2
-4 -19 -12 -39z m-181 -89 c-22 -43 -23 -134 -2 -175 19 -39 10 -41 -43 -11
-36 20 -69 68 -69 100 0 30 42 80 83 98 23 11 43 20 45 20 1 0 -5 -15 -14 -32z
m129 -95 l31 -15 -34 -15 c-19 -7 -42 -21 -52 -30 -17 -15 -18 -12 -18 63 l0
79 21 -33 c12 -18 35 -40 52 -49z m21 -68 c-17 -41 -18 -110 -3 -154 14 -41 8
-46 -29 -27 -51 27 -75 65 -67 110 7 46 18 62 60 88 46 28 56 24 39 -17z"/>
<path d="M730 1437 c-14 -12 -43 -36 -64 -54 l-39 -32 72 -143 c85 -170 101
-231 82 -320 -7 -34 -25 -89 -41 -122 l-28 -61 -1 134 -1 133 -37 -7 c-55 -10
-110 -41 -128 -73 -13 -21 -26 -29 -52 -30 -20 -2 -53 -12 -75 -23 -112 -57
-96 -187 28 -235 33 -13 44 -23 49 -45 13 -58 90 -118 153 -119 17 0 22 -4 18
-17 -3 -10 -8 -35 -11 -55 -7 -36 -6 -37 32 -47 65 -17 136 -25 130 -14 -3 5
17 41 45 79 72 100 134 208 168 296 58 150 37 275 -81 497 -68 126 -168 281
-183 281 -6 0 -22 -11 -36 -23z m85 -109 c87 -132 180 -324 200 -410 24 -106
4 -211 -67 -353 -24 -47 -116 -195 -148 -237 -7 -8 -121 25 -122 36 0 4 10 31
22 61 l22 55 -22 69 -23 68 32 46 c46 67 99 182 111 243 9 43 8 65 -4 115 -16
61 -69 180 -122 272 l-28 47 39 40 c22 22 42 40 45 40 3 0 32 -42 65 -92z
m-162 -405 c-13 -19 -18 -47 -18 -93 0 -46 5 -74 18 -93 20 -31 18 -32 -26
-13 -42 17 -87 70 -87 102 0 42 27 80 72 103 56 27 62 27 41 -6z m-189 -108
c-19 -46 -18 -138 2 -176 15 -30 15 -31 -8 -24 -39 11 -72 40 -91 78 -18 36
-18 38 0 75 12 25 32 44 63 60 24 12 45 22 47 22 1 0 -5 -16 -13 -35z m107
-67 l44 -43 -42 -21 -41 -20 -4 63 c-2 35 -3 63 -2 63 0 0 20 -19 45 -42z m43
-95 c-17 -48 -17 -108 0 -155 15 -42 9 -45 -34 -23 -56 29 -82 82 -61 123 5 9
12 25 15 34 5 18 62 58 82 58 8 0 8 -11 -2 -37z m80 22 c-4 -8 -8 -15 -10 -15
-2 0 -4 7 -4 15 0 8 4 15 10 15 5 0 7 -7 4 -15z m-7 -197 c-3 -7 -5 -2 -5 12
0 14 2 19 5 13 2 -7 2 -19 0 -25z"/>
</g>
</svg>
