<?xml version="1.0" standalone="no"?>
<!DOCTYPE svg PUBLIC "-//W3C//DTD SVG 20010904//EN"
 "http://www.w3.org/TR/2001/REC-SVG-20010904/DTD/svg10.dtd">
<svg version="1.0" xmlns="http://www.w3.org/2000/svg"
 width="171.000000pt" height="114.000000pt" viewBox="0 0 171.000000 114.000000"
 preserveAspectRatio="xMidYMid meet">
<metadata>
Created by potrace 1.16, written by Peter Selinger 2001-2019
</metadata>
<g transform="translate(0.000000,114.000000) scale(0.100000,-0.100000)"
fill="#000000" stroke="none">
<path d="M924 826 c-3 -8 4 -28 15 -45 l21 -29 -33 -5 c-17 -4 -111 -13 -207
-22 -403 -37 -414 -39 -418 -57 -3 -15 2 -17 40 -12 39 5 48 2 91 -31 26 -20
47 -39 47 -43 -1 -4 -21 -22 -46 -40 -39 -29 -52 -33 -90 -30 -29 2 -44 -1
-44 -9 0 -6 4 -14 8 -17 8 -4 210 -25 604 -62 l68 -6 -31 -45 c-17 -24 -28
-51 -25 -59 9 -23 19 -12 76 85 52 87 54 89 98 95 25 3 96 6 158 6 69 0 114 4
114 10 0 6 -55 10 -145 10 -80 0 -145 3 -145 6 0 3 5 14 11 25 8 15 7 26 -5
43 -15 23 -15 23 46 30 34 3 101 6 149 6 53 0 89 4 89 10 0 6 -59 10 -158 10
l-158 0 -53 90 c-58 98 -68 109 -77 86z m76 -134 c14 -20 27 -40 28 -45 4 -9
-39 -46 -54 -47 -15 0 -56 45 -47 53 3 4 -2 7 -13 7 -17 1 -74 42 -74 54 0 5
47 12 100 14 30 2 39 -4 60 -36z m-188 10 c2 -4 20 -21 40 -36 l38 -28 -24
-19 c-31 -24 -38 -24 -65 4 -15 16 -19 30 -14 43 6 17 5 17 -10 6 -14 -12 -20
-11 -42 6 l-26 21 23 4 c40 8 76 7 80 -1z m-100 -38 l27 -21 -30 -22 -30 -22
-35 26 c-29 22 -33 29 -23 42 11 12 9 13 -14 8 -17 -5 -27 -3 -27 3 0 11 91
21 100 12 3 -3 17 -15 32 -26z m-157 0 c19 -14 19 -15 -10 -39 -17 -13 -32
-24 -35 -25 -3 0 -23 15 -45 33 l-39 32 34 6 c57 10 74 9 95 -7z m72 -106
c-18 -15 -34 -27 -37 -27 -3 0 -18 11 -35 24 l-29 24 28 30 29 30 38 -27 37
-27 -31 -27z m160 48 l28 -24 -25 -21 c-31 -25 -39 -25 -69 0 l-24 20 23 24
c29 31 32 31 67 1z m171 -22 c2 -1 -10 -11 -26 -23 l-30 -21 -27 22 -27 21 29
23 28 22 25 -21 c14 -12 26 -23 28 -23z m112 -34 c-12 -22 -14 -22 -63 19 -17
14 -16 16 10 37 l28 22 18 -28 c15 -23 16 -33 7 -50z m-505 -30 c11 -18 -42
-33 -91 -25 l-48 7 40 33 39 33 27 -20 c15 -10 30 -23 33 -28z m142 27 l32
-23 -34 -27 c-41 -33 -48 -33 -75 -5 l-20 22 33 27 c17 16 32 28 33 29 0 0 14
-10 31 -23z m169 -8 c4 -7 -10 -26 -32 -45 -29 -24 -49 -33 -76 -34 -20 0 -39
4 -42 9 -9 15 22 33 44 26 11 -4 20 -2 20 4 0 6 -6 11 -12 11 -7 1 2 14 21 30
34 29 58 29 77 -1z m146 -2 l27 -20 -31 -44 c-20 -27 -37 -42 -47 -39 -9 2
-43 7 -76 11 l-60 7 35 29 c19 16 40 29 48 29 7 0 11 4 8 9 -8 12 46 51 59 43
5 -3 22 -15 37 -25z m-402 -53 c0 -2 -9 -4 -21 -4 -11 0 -18 4 -14 10 5 8 35
3 35 -6z"/>
<path d="M1384 618 c1 -24 3 -71 4 -106 3 -104 22 -62 22 49 0 78 -3 99 -14
99 -10 0 -13 -12 -12 -42z"/>
</g>
</svg>
