<?xml version="1.0" standalone="no"?>
<!DOCTYPE svg PUBLIC "-//W3C//DTD SVG 20010904//EN"
 "http://www.w3.org/TR/2001/REC-SVG-20010904/DTD/svg10.dtd">
<svg version="1.0" xmlns="http://www.w3.org/2000/svg"
 width="98.000000pt" height="160.000000pt" viewBox="0 0 98.000000 160.000000"
 preserveAspectRatio="xMidYMid meet">
<metadata>
Created by potrace 1.16, written by Peter Selinger 2001-2019
</metadata>
<g transform="translate(0.000000,160.000000) scale(0.100000,-0.100000)"
fill="#000000" stroke="none">
<path d="M414 1293 c-24 -5 -18 26 -80 -406 l-37 -258 31 -45 c31 -43 32 -48
33 -157 1 -125 13 -113 24 25 l7 83 -37 55 -37 55 10 65 c50 316 95 556 105
562 16 10 59 10 74 0 17 -11 32 -642 15 -642 -5 0 -25 -24 -42 -52 l-33 -52
12 -99 c7 -55 11 -100 9 -102 -2 -2 -34 -8 -73 -13 l-70 -9 68 -2 c39 0 73 4
80 10 9 8 11 44 9 120 l-4 108 32 41 c32 40 32 40 101 40 55 0 69 3 69 15 0
12 -12 14 -68 9 l-69 -5 5 30 c4 31 4 31 68 31 53 0 64 3 64 16 0 15 -9 16
-65 11 l-65 -6 0 31 0 31 65 -6 c53 -5 65 -4 65 8 0 12 -15 15 -65 15 l-65 0
0 38 0 37 65 -3 c56 -3 65 -1 65 13 0 15 -9 17 -65 13 l-65 -4 0 37 0 37 65
-6 c56 -4 65 -2 65 12 0 13 -11 16 -65 16 l-65 0 0 40 0 40 65 0 c37 0 65 4
65 10 0 6 -28 10 -65 10 l-65 0 0 31 0 31 65 -7 c56 -6 65 -4 65 9 0 13 -12
16 -65 16 l-65 0 0 31 0 31 62 -4 c43 -2 63 1 65 10 4 9 -13 12 -61 12 -58 0
-66 2 -66 19 0 10 -7 22 -16 25 -17 6 -85 6 -120 -1z"/>
</g>
</svg>
