<?xml version="1.0" standalone="no"?>
<!DOCTYPE svg PUBLIC "-//W3C//DTD SVG 20010904//EN"
 "http://www.w3.org/TR/2001/REC-SVG-20010904/DTD/svg10.dtd">
<svg version="1.0" xmlns="http://www.w3.org/2000/svg"
 width="111.000000pt" height="271.000000pt" viewBox="0 0 111.000000 271.000000"
 preserveAspectRatio="xMidYMid meet">
<metadata>
Created by potrace 1.16, written by Peter Selinger 2001-2019
</metadata>
<g transform="translate(0.000000,271.000000) scale(0.100000,-0.100000)"
fill="#000000" stroke="none">
<path d="M683 2388 c3 -13 13 -63 22 -113 9 -49 21 -96 25 -105 14 -22 12 57
-2 157 -10 71 -15 83 -31 83 -15 0 -18 -5 -14 -22z"/>
<path d="M444 2387 c-6 -16 14 -117 47 -239 30 -111 36 -83 11 55 -12 62 -24
131 -27 155 -7 41 -21 55 -31 29z"/>
<path d="M560 2381 c0 -31 29 -187 40 -216 6 -15 13 -25 16 -23 4 5 -8 137
-22 226 -5 34 -34 46 -34 13z"/>
<path d="M310 2345 c-14 -17 -3 -96 32 -230 44 -168 60 -191 265 -392 103
-101 190 -183 195 -183 4 0 7 181 6 403 -2 262 -6 401 -13 399 -12 -3 -13 -99
-4 -492 3 -157 5 -286 4 -287 -4 -7 -343 363 -362 395 -28 47 -68 185 -88 305
-9 50 -18 93 -19 95 -2 1 -9 -4 -16 -13z"/>
<path d="M373 1279 c-9 -9 1 -28 43 -83 51 -67 54 -74 54 -129 0 -106 -40
-315 -63 -329 -11 -7 24 -53 160 -210 70 -80 224 -228 237 -228 4 0 5 181 4
403 -2 262 -6 401 -13 399 -10 -2 -10 -561 1 -699 3 -40 2 -73 -3 -72 -12 1
-176 185 -277 309 l-84 105 14 33 c19 46 41 162 49 257 6 79 6 81 -30 141 -56
93 -78 117 -92 103z"/>
<path d="M540 1032 c0 -93 3 -218 7 -278 11 -167 21 -68 22 214 1 200 -1 232
-14 232 -13 0 -15 -25 -15 -168z"/>
<path d="M621 863 c1 -164 5 -309 8 -323 11 -37 21 171 21 413 0 179 -2 207
-15 207 -14 0 -15 -37 -14 -297z"/>
<path d="M703 793 c6 -307 9 -355 21 -342 2 2 7 156 11 342 l7 337 -23 0 -22
0 6 -337z"/>
</g>
</svg>
