<?xml version="1.0" standalone="no"?>
<!DOCTYPE svg PUBLIC "-//W3C//DTD SVG 20010904//EN"
 "http://www.w3.org/TR/2001/REC-SVG-20010904/DTD/svg10.dtd">
<svg version="1.0" xmlns="http://www.w3.org/2000/svg"
 width="112.000000pt" height="121.000000pt" viewBox="0 0 112.000000 121.000000"
 preserveAspectRatio="xMidYMid meet">
<metadata>
Created by potrace 1.16, written by Peter Selinger 2001-2019
</metadata>
<g transform="translate(0.000000,121.000000) scale(0.100000,-0.100000)"
fill="#000000" stroke="none">
<path d="M310 900 c-16 -10 3 -41 134 -220 83 -114 75 -105 82 -98 7 7 -185
327 -196 328 -3 0 -12 -4 -20 -10z"/>
<path d="M717 788 c-30 -46 -73 -116 -96 -156 -47 -78 -56 -88 -66 -72 -9 15
-22 12 -29 -7 -5 -11 2 -24 18 -37 141 -119 268 -218 272 -213 5 5 -136 146
-210 209 l-29 25 63 84 c122 161 161 221 156 235 -10 27 -27 13 -79 -68z"/>
</g>
</svg>
