<?xml version="1.0" standalone="no"?>
<!DOCTYPE svg PUBLIC "-//W3C//DTD SVG 20010904//EN"
 "http://www.w3.org/TR/2001/REC-SVG-20010904/DTD/svg10.dtd">
<svg version="1.0" xmlns="http://www.w3.org/2000/svg"
 width="173.000000pt" height="132.000000pt" viewBox="0 0 173.000000 132.000000"
 preserveAspectRatio="xMidYMid meet">
<metadata>
Created by potrace 1.16, written by Peter Selinger 2001-2019
</metadata>
<g transform="translate(0.000000,132.000000) scale(0.100000,-0.100000)"
fill="#000000" stroke="none">
<path d="M1233 1004 c-3 -9 -3 -79 0 -155 3 -76 2 -137 -1 -135 -4 2 -109 62
-233 134 -124 72 -237 134 -251 137 -23 6 -33 -1 -77 -54 -27 -34 -62 -81 -77
-106 l-26 -45 -134 0 -135 0 3 -112 3 -113 135 4 136 3 12 -26 c16 -35 96
-121 137 -146 l32 -20 239 139 239 138 5 -171 5 -171 90 0 90 0 3 349 c2 273
-1 351 -10 358 -7 4 -50 8 -96 8 -67 0 -84 -3 -89 -16z m171 -345 c4 -188 6
-342 4 -343 -2 -2 -36 -1 -77 2 l-74 4 7 101 c4 55 7 205 7 333 l-1 233 28 4
c15 2 43 5 63 6 l36 1 7 -341z m-481 197 c95 -51 205 -110 245 -130 39 -20 72
-41 72 -46 0 -5 -28 -24 -62 -41 -35 -18 -148 -79 -253 -137 l-189 -105 -49
54 c-109 122 -134 231 -77 338 32 60 115 161 131 161 6 0 87 -42 182 -94z
m-368 -186 l0 -90 -119 0 -119 0 7 38 c3 20 6 58 6 84 l0 47 58 4 c31 2 82 4
112 5 l55 2 0 -90z"/>
</g>
</svg>
