<?xml version="1.0" standalone="no"?>
<!DOCTYPE svg PUBLIC "-//W3C//DTD SVG 20010904//EN"
 "http://www.w3.org/TR/2001/REC-SVG-20010904/DTD/svg10.dtd">
<svg version="1.0" xmlns="http://www.w3.org/2000/svg"
 width="210.000000pt" height="138.000000pt" viewBox="0 0 210.000000 138.000000"
 preserveAspectRatio="xMidYMid meet">
<metadata>
Created by potrace 1.16, written by Peter Selinger 2001-2019
</metadata>
<g transform="translate(0.000000,138.000000) scale(0.100000,-0.100000)"
fill="#000000" stroke="none">
<path d="M1597 1008 c15 -76 12 -283 -5 -300 -5 -5 -109 51 -233 123 -123 72
-244 141 -269 152 l-44 20 -54 -58 c-29 -31 -67 -82 -84 -112 l-31 -55 -141 4
-141 3 3 -47 2 -48 -150 0 c-126 0 -150 -2 -150 -15 0 -13 21 -14 150 -8 l150
6 0 -57 0 -57 146 2 145 2 34 -51 c30 -43 92 -103 132 -126 7 -4 120 55 264
139 138 80 252 145 253 145 0 0 0 -20 -2 -45 -5 -55 52 -335 65 -322 3 3 -5
73 -18 156 l-23 149 22 104 c35 163 25 368 -17 368 -17 0 -17 -5 -4 -72z
m-357 -144 c96 -53 211 -114 254 -136 l79 -40 -104 -53 c-57 -29 -173 -92
-258 -138 -120 -66 -158 -83 -170 -75 -25 16 -96 108 -122 158 -33 64 -32 148
3 216 25 47 122 164 137 164 3 0 85 -43 181 -96z m-374 -161 c0 -32 3 -73 8
-92 l8 -34 -53 6 c-30 4 -89 7 -131 7 l-78 0 0 73 c0 43 5 78 12 85 8 8 50 12
124 12 l112 0 -2 -57z"/>
<path d="M1756 1038 c13 -66 10 -333 -3 -350 -26 -31 -25 -92 7 -238 45 -212
54 -201 21 26 -20 130 -20 133 0 224 13 63 19 129 18 204 -2 135 -8 170 -33
174 -16 4 -17 0 -10 -40z"/>
</g>
</svg>
