<?xml version="1.0" standalone="no"?>
<!DOCTYPE svg PUBLIC "-//W3C//DTD SVG 20010904//EN"
 "http://www.w3.org/TR/2001/REC-SVG-20010904/DTD/svg10.dtd">
<svg version="1.0" xmlns="http://www.w3.org/2000/svg"
 width="179.000000pt" height="138.000000pt" viewBox="0 0 179.000000 138.000000"
 preserveAspectRatio="xMidYMid meet">
<metadata>
Created by potrace 1.16, written by Peter Selinger 2001-2019
</metadata>
<g transform="translate(0.000000,138.000000) scale(0.100000,-0.100000)"
fill="#000000" stroke="none">
<path d="M1274 1055 c19 -76 25 -184 15 -264 -5 -47 -12 -87 -13 -89 -2 -1
-48 24 -102 56 -307 183 -439 254 -447 241 -2 -2 -27 -31 -57 -64 l-53 -60
-156 0 c-126 0 -156 -3 -156 -14 0 -11 24 -13 120 -12 66 1 135 4 153 7 l33 6
-25 -53 c-14 -30 -27 -62 -30 -71 -5 -16 -20 -18 -131 -18 l-125 0 0 -109 c0
-61 3 -112 8 -114 4 -2 75 -1 159 2 l151 6 30 -35 c16 -20 47 -48 69 -63 l40
-27 244 141 c134 78 247 143 250 145 4 2 6 -20 6 -49 -1 -62 52 -317 66 -317
5 0 6 12 3 27 -37 177 -43 296 -21 389 24 101 28 186 15 278 -11 75 -15 86
-32 86 -17 0 -19 -5 -14 -25z m-273 -227 c136 -73 248 -135 249 -138 0 -3 -37
-24 -83 -47 -45 -23 -160 -86 -256 -139 l-173 -96 -44 49 c-24 26 -60 80 -80
120 -31 62 -36 79 -32 121 3 27 14 69 26 93 25 52 118 169 134 169 6 0 122
-60 259 -132z m-448 -173 c4 -25 16 -63 28 -86 11 -23 18 -43 16 -46 -3 -2
-67 -1 -142 3 l-137 7 6 36 c3 20 6 55 6 78 0 49 1 50 131 52 l86 1 6 -45z"/>
<path d="M1434 1064 c30 -78 30 -291 1 -375 -21 -59 -19 -113 11 -247 30 -138
33 -147 40 -139 3 3 -5 71 -17 151 l-23 147 23 121 c19 97 23 139 18 217 -8
119 -14 141 -39 141 -14 0 -18 -5 -14 -16z"/>
</g>
</svg>
