<?xml version="1.0" standalone="no"?>
<!DOCTYPE svg PUBLIC "-//W3C//DTD SVG 20010904//EN"
 "http://www.w3.org/TR/2001/REC-SVG-20010904/DTD/svg10.dtd">
<svg version="1.0" xmlns="http://www.w3.org/2000/svg"
 width="152.000000pt" height="108.000000pt" viewBox="0 0 152.000000 108.000000"
 preserveAspectRatio="xMidYMid meet">
<metadata>
Created by potrace 1.16, written by Peter Selinger 2001-2019
</metadata>
<g transform="translate(0.000000,108.000000) scale(0.100000,-0.100000)"
fill="#000000" stroke="none">
<path d="M723 730 l-38 -51 -192 7 -193 6 0 -156 c0 -119 3 -158 13 -162 7 -2
97 -1 200 3 l188 8 32 -33 c17 -18 41 -35 53 -38 15 -4 78 27 211 104 l190
109 7 -60 c3 -33 6 -85 6 -116 1 -42 3 -52 11 -39 13 23 8 288 -6 289 -5 0
-12 -9 -15 -19 -4 -17 -27 -7 -190 89 -106 62 -196 108 -212 109 -20 0 -35
-11 -65 -50z m254 -75 c98 -52 185 -98 193 -103 11 -7 -4 -19 -65 -50 -44 -22
-134 -69 -200 -106 l-119 -66 -29 27 c-83 80 -114 178 -80 254 22 49 92 137
110 138 6 1 92 -42 190 -94z m-329 -52 c-17 -48 -18 -63 -8 -102 6 -25 18 -57
26 -69 9 -13 14 -25 12 -27 -2 -1 -82 0 -179 3 l-175 5 3 86 c2 47 6 100 9
118 l5 32 92 4 c51 1 124 4 163 5 l71 2 -19 -57z"/>
</g>
</svg>
