<?xml version="1.0" standalone="no"?>
<!DOCTYPE svg PUBLIC "-//W3C//DTD SVG 20010904//EN"
 "http://www.w3.org/TR/2001/REC-SVG-20010904/DTD/svg10.dtd">
<svg version="1.0" xmlns="http://www.w3.org/2000/svg"
 width="121.000000pt" height="131.000000pt" viewBox="0 0 121.000000 131.000000"
 preserveAspectRatio="xMidYMid meet">
<metadata>
Created by potrace 1.16, written by Peter Selinger 2001-2019
</metadata>
<g transform="translate(0.000000,131.000000) scale(0.100000,-0.100000)"
fill="#000000" stroke="none">
<path d="M303 995 c-7 -20 -19 -12 117 -69 63 -26 119 -51 123 -55 4 -4 -49
-32 -118 -61 -113 -48 -137 -65 -119 -82 3 -4 56 16 117 44 62 28 120 53 130
55 16 5 17 -7 17 -151 0 -86 -3 -156 -7 -156 -5 1 -62 25 -128 55 -66 29 -123
51 -127 49 -24 -15 5 -34 122 -84 l131 -54 -48 -21 c-26 -12 -85 -37 -130 -56
-75 -31 -97 -49 -75 -63 4 -2 61 20 127 49 66 30 126 54 133 55 8 0 12 -22 12
-77 0 -54 3 -73 10 -63 5 8 10 47 10 87 l0 71 147 -59 c81 -33 152 -58 158
-55 9 3 -96 55 -219 109 l-50 21 50 23 c180 82 228 107 219 110 -6 2 -77 -23
-158 -56 l-147 -59 0 174 0 174 48 -19 c26 -10 94 -38 151 -60 57 -23 106 -40
109 -37 4 5 -150 80 -247 122 -21 9 -10 16 114 74 76 35 133 66 127 68 -5 1
-72 -22 -148 -53 -76 -30 -142 -55 -146 -55 -4 0 -8 9 -8 20 0 11 -7 20 -15
20 -8 0 -15 -7 -15 -15 0 -8 -2 -15 -4 -15 -2 0 -60 25 -127 55 -67 30 -124
55 -126 55 -2 0 -6 -7 -10 -15z"/>
</g>
</svg>
