<?xml version="1.0" standalone="no"?>
<!DOCTYPE svg PUBLIC "-//W3C//DTD SVG 20010904//EN"
 "http://www.w3.org/TR/2001/REC-SVG-20010904/DTD/svg10.dtd">
<svg version="1.0" xmlns="http://www.w3.org/2000/svg"
 width="159.000000pt" height="160.000000pt" viewBox="0 0 159.000000 160.000000"
 preserveAspectRatio="xMidYMid meet">
<metadata>
Created by potrace 1.16, written by Peter Selinger 2001-2019
</metadata>
<g transform="translate(0.000000,160.000000) scale(0.100000,-0.100000)"
fill="#000000" stroke="none">
<path d="M657 1204 l-148 -96 -104 1 c-100 2 -105 1 -105 -19 0 -19 6 -20 92
-20 l91 0 136 -88 c197 -128 200 -130 211 -112 5 8 10 56 10 106 0 79 2 92 18
96 9 2 72 5 140 7 l122 3 76 -71 c42 -39 80 -71 86 -71 13 0 -22 47 -71 95
-23 21 -41 43 -41 49 0 5 28 38 61 73 34 35 59 66 56 70 -7 6 -85 -57 -126
-101 -24 -26 -26 -26 -173 -26 l-148 0 0 100 c0 89 -2 100 -18 100 -9 0 -84
-43 -165 -96z m143 -19 l0 -86 -110 3 c-60 2 -110 6 -110 11 0 4 3 7 8 7 4 0
52 34 107 75 55 41 101 74 103 75 1 0 2 -38 2 -85z m11 -210 c4 -49 5 -91 4
-93 -2 -2 -50 32 -107 75 -57 43 -115 86 -128 95 -24 17 -21 17 100 15 l125
-2 6 -90z"/>
<path d="M705 630 l-110 -100 -145 1 c-130 1 -145 -1 -148 -16 -4 -16 7 -17
134 -13 l139 5 113 -104 c70 -65 119 -103 130 -101 20 4 19 1 21 112 l1 83
142 6 142 5 79 -74 c44 -41 82 -73 85 -70 5 6 -62 88 -97 120 -11 11 -21 23
-21 27 0 5 28 38 61 74 34 36 59 68 55 72 -6 6 -26 -10 -112 -90 l-40 -38
-145 3 -144 3 -3 98 c-2 68 -6 97 -15 97 -7 0 -62 -45 -122 -100z m104 -72 c1
-73 4 -160 7 -193 l6 -60 -24 25 c-13 14 -57 60 -98 103 l-74 77 85 89 c46 49
87 89 90 90 4 0 7 -59 8 -131z"/>
</g>
</svg>
