<?xml version="1.0" standalone="no"?>
<!DOCTYPE svg PUBLIC "-//W3C//DTD SVG 20010904//EN"
 "http://www.w3.org/TR/2001/REC-SVG-20010904/DTD/svg10.dtd">
<svg version="1.0" xmlns="http://www.w3.org/2000/svg"
 width="159.000000pt" height="104.000000pt" viewBox="0 0 159.000000 104.000000"
 preserveAspectRatio="xMidYMid meet">
<metadata>
Created by potrace 1.16, written by Peter Selinger 2001-2019
</metadata>
<g transform="translate(0.000000,104.000000) scale(0.100000,-0.100000)"
fill="#000000" stroke="none">
<path d="M798 732 c-1 -4 -50 -50 -106 -101 l-104 -94 -144 6 c-141 6 -144 5
-144 -15 0 -21 3 -21 136 -15 l137 5 119 -109 c114 -105 137 -121 139 -99 1 6
3 15 4 20 1 6 3 48 4 93 l1 84 142 6 141 6 80 -75 c44 -41 82 -73 85 -70 5 6
-62 88 -97 120 -11 11 -21 24 -21 29 0 6 28 39 61 74 34 35 59 66 56 70 -7 6
-85 -57 -126 -101 -23 -24 -31 -26 -111 -26 -48 0 -115 3 -149 6 l-61 7 0 93
c0 86 -2 94 -19 94 -11 0 -21 -4 -23 -8z m10 -49 c-2 -9 -11 -17 -20 -19 -21
-3 -23 7 -6 24 17 17 30 15 26 -5z m2 -63 c0 -17 -7 -20 -52 -20 -50 0 -51 0
-33 20 11 12 31 20 52 20 26 0 33 -4 33 -20z m0 -94 l0 -54 -66 -4 c-60 -3
-67 -1 -91 25 l-27 27 82 0 c44 0 83 4 86 9 6 9 -111 24 -125 15 -13 -8 -11
10 3 24 7 7 39 12 75 12 l63 0 0 -54z m0 -101 c0 -22 -4 -25 -33 -25 -23 0
-41 8 -57 25 l-23 25 56 0 c54 0 57 -1 57 -25z m10 -77 l0 -31 -25 23 c-14 13
-25 27 -25 32 0 4 11 8 25 8 21 0 25 -5 25 -32z"/>
</g>
</svg>
