<?xml version="1.0" standalone="no"?>
<!DOCTYPE svg PUBLIC "-//W3C//DTD SVG 20010904//EN"
 "http://www.w3.org/TR/2001/REC-SVG-20010904/DTD/svg10.dtd">
<svg version="1.0" xmlns="http://www.w3.org/2000/svg"
 width="202.000000pt" height="160.000000pt" viewBox="0 0 202.000000 160.000000"
 preserveAspectRatio="xMidYMid meet">
<metadata>
Created by potrace 1.16, written by Peter Selinger 2001-2019
</metadata>
<g transform="translate(0.000000,160.000000) scale(0.100000,-0.100000)"
fill="#000000" stroke="none">
<path d="M1347 1227 c-247 -152 -286 -193 -290 -304 -2 -50 1 -57 26 -77 25
-19 42 -21 148 -22 l120 0 84 -159 c46 -86 87 -161 92 -166 5 -5 49 14 98 41
104 59 101 56 88 72 -6 7 -32 59 -58 114 l-47 102 56 73 c86 113 86 113 -96
105 l-153 -7 93 92 93 93 -58 58 c-31 32 -62 58 -68 58 -5 0 -63 -33 -128 -73z
m190 -7 l41 -35 -98 -88 c-91 -81 -98 -90 -87 -109 11 -19 18 -20 122 -14 61
4 128 9 149 13 l39 6 -49 -71 c-27 -39 -52 -72 -56 -72 -4 0 -10 9 -13 20 -3
11 -10 20 -15 20 -20 0 -20 -22 0 -61 12 -22 20 -42 18 -44 -2 -1 -27 -13 -55
-25 -29 -12 -53 -26 -53 -31 0 -15 18 -10 69 16 l49 24 22 -36 c11 -19 20 -36
18 -37 -2 -1 -27 -13 -55 -26 -29 -13 -53 -27 -53 -32 0 -14 18 -9 69 17 l49
24 21 -35 c12 -19 21 -37 21 -39 0 -3 -36 -23 -80 -45 l-81 -41 -16 38 c-55
133 -164 344 -174 338 -6 -4 -9 -16 -6 -26 5 -18 -2 -19 -87 -19 -51 0 -107 5
-125 11 -29 10 -31 14 -31 61 0 52 24 116 46 125 7 3 41 -19 74 -48 78 -68 90
-56 15 14 -34 32 -55 59 -51 65 4 7 50 41 102 78 l94 66 52 -46 c69 -60 85
-59 25 2 -26 26 -47 51 -47 55 0 4 14 16 32 27 35 21 34 21 105 -40z"/>
<path d="M384 907 c-63 -34 -86 -54 -82 -70 2 -12 18 -6 68 25 80 49 120 48
178 -3 l37 -34 -37 -75 c-31 -64 -45 -81 -95 -117 -44 -30 -67 -56 -88 -96
-16 -29 -26 -61 -22 -69 5 -15 12 -14 67 3 77 24 88 30 156 85 36 29 61 43 73
39 9 -3 27 -26 40 -53 43 -88 132 -242 141 -242 15 0 144 77 148 89 2 6 -3 9
-12 5 -11 -4 -29 24 -76 122 -33 70 -60 128 -60 129 0 2 25 21 54 44 61 46
121 124 112 147 -5 13 -36 14 -202 12 l-196 -3 -44 43 c-52 50 -94 55 -160 19z
m566 -85 c0 -26 -134 -162 -159 -162 -18 0 -14 -9 59 -144 39 -71 67 -133 63
-137 -4 -4 -29 -17 -54 -27 l-45 -20 -57 122 c-32 66 -57 126 -57 132 0 10
-124 62 -159 67 -30 4 -20 -22 13 -34 20 -7 36 -15 36 -19 0 -15 -131 -85
-178 -95 l-34 -7 15 29 c17 32 66 84 115 121 17 13 32 29 32 36 0 6 18 39 40
73 l39 62 93 4 c204 7 238 7 238 -1z"/>
</g>
</svg>
