<?xml version="1.0" standalone="no"?>
<!DOCTYPE svg PUBLIC "-//W3C//DTD SVG 20010904//EN"
 "http://www.w3.org/TR/2001/REC-SVG-20010904/DTD/svg10.dtd">
<svg version="1.0" xmlns="http://www.w3.org/2000/svg"
 width="139.000000pt" height="163.000000pt" viewBox="0 0 139.000000 163.000000"
 preserveAspectRatio="xMidYMid meet">
<metadata>
Created by potrace 1.16, written by Peter Selinger 2001-2019
</metadata>
<g transform="translate(0.000000,163.000000) scale(0.100000,-0.100000)"
fill="#000000" stroke="none">
<path d="M618 1255 l-3 -74 -72 54 c-77 59 -88 63 -97 40 -3 -10 19 -31 70
-67 l76 -53 -91 -3 c-82 -2 -91 -5 -91 -22 0 -17 9 -20 87 -22 l86 -3 -71 -47
c-50 -34 -70 -52 -66 -63 10 -24 22 -19 101 40 l73 55 0 -105 c0 -58 4 -105 9
-105 5 0 12 37 15 83 3 45 7 97 9 114 l2 33 93 -62 c51 -33 95 -59 98 -56 3 3
-25 29 -62 59 -78 62 -74 67 49 68 108 1 99 21 -10 22 -49 1 -94 1 -100 0 -28
-4 -10 19 58 74 39 31 68 59 65 62 -2 3 -46 -23 -96 -56 -51 -34 -93 -61 -94
-61 0 0 1 38 3 85 3 80 2 85 -18 85 -18 0 -20 -7 -23 -75z"/>
<path d="M300 820 l0 -33 243 7 c717 19 732 36 45 52 l-288 7 0 -33z"/>
<path d="M610 681 c0 -39 -2 -71 -5 -71 -2 0 -36 23 -74 51 -65 47 -91 55 -91
26 0 -7 35 -36 77 -64 l77 -53 -92 0 c-85 0 -92 -2 -92 -20 0 -17 8 -19 82
-22 l83 -3 -68 -48 c-62 -45 -77 -65 -51 -74 5 -2 41 20 79 47 l70 51 7 -53
c3 -29 7 -75 7 -103 2 -62 21 -42 21 21 0 23 3 68 6 102 l7 61 89 -60 c49 -33
93 -59 99 -57 5 2 -22 28 -61 58 -82 64 -79 68 43 69 111 1 98 21 -15 22 -51
1 -99 1 -105 0 -23 -3 -14 6 67 68 44 34 80 64 80 67 0 11 -23 0 -96 -49 -43
-29 -85 -57 -92 -61 -11 -6 -13 9 -11 76 2 78 1 83 -19 86 -21 3 -22 -1 -22
-67z"/>
</g>
</svg>
