<?xml version="1.0" standalone="no"?>
<!DOCTYPE svg PUBLIC "-//W3C//DTD SVG 20010904//EN"
 "http://www.w3.org/TR/2001/REC-SVG-20010904/DTD/svg10.dtd">
<svg version="1.0" xmlns="http://www.w3.org/2000/svg"
 width="135.000000pt" height="135.000000pt" viewBox="0 0 135.000000 135.000000"
 preserveAspectRatio="xMidYMid meet">
<metadata>
Created by potrace 1.16, written by Peter Selinger 2001-2019
</metadata>
<g transform="translate(0.000000,135.000000) scale(0.100000,-0.100000)"
fill="#000000" stroke="none">
<path d="M540 1031 c-103 -29 -165 -57 -162 -74 1 -8 -6 -17 -16 -19 -31 -8
-56 -115 -57 -238 l0 -105 57 -115 c32 -63 64 -123 72 -134 8 -10 41 -25 73
-32 97 -23 169 -18 290 20 59 19 127 39 150 45 48 13 44 3 79 185 30 157 29
218 -5 306 -22 55 -23 55 -119 103 -166 81 -236 93 -362 58z m253 -50 c41 -11
98 -30 126 -41 48 -21 51 -25 71 -86 26 -76 26 -136 2 -319 l-17 -130 -130
-29 c-74 -17 -160 -30 -200 -31 -66 0 -179 19 -204 34 -7 4 -28 55 -47 112
-48 138 -53 230 -22 348 l23 83 58 24 c136 57 219 66 340 35z"/>
<path d="M433 785 c0 -13 28 -15 187 -15 103 0 216 3 251 7 64 7 64 7 24 14
-22 5 -135 8 -251 8 -181 1 -211 -1 -211 -14z"/>
<path d="M450 570 l0 -23 242 7 c224 6 259 9 247 20 -2 3 -113 8 -247 12
l-242 7 0 -23z"/>
</g>
</svg>
