<?xml version="1.0" standalone="no"?>
<!DOCTYPE svg PUBLIC "-//W3C//DTD SVG 20010904//EN"
 "http://www.w3.org/TR/2001/REC-SVG-20010904/DTD/svg10.dtd">
<svg version="1.0" xmlns="http://www.w3.org/2000/svg"
 width="171.000000pt" height="106.000000pt" viewBox="0 0 171.000000 106.000000"
 preserveAspectRatio="xMidYMid meet">
<metadata>
Created by potrace 1.16, written by Peter Selinger 2001-2019
</metadata>
<g transform="translate(0.000000,106.000000) scale(0.100000,-0.100000)"
fill="#000000" stroke="none">
<path d="M1115 749 c-88 -4 -290 -7 -450 -7 l-290 -1 -12 -58 c-6 -32 -19
-104 -29 -160 -9 -57 -21 -103 -25 -103 -12 0 -12 -27 0 -34 5 -3 42 6 82 19
41 14 117 37 169 51 l94 26 86 -91 85 -92 60 1 c53 0 461 61 509 76 27 9 9 20
-74 44 -109 32 -501 172 -496 177 2 2 71 21 152 42 160 41 291 83 333 106 l26
14 -30 -1 c-16 -1 -102 -5 -190 -9z m-143 -77 c-284 -72 -283 -71 -47 -154 94
-32 226 -75 294 -94 68 -18 126 -35 127 -37 7 -7 -488 -59 -509 -53 -13 3 -53
42 -91 87 l-67 81 8 101 8 102 175 7 c96 4 189 9 205 11 133 17 100 0 -103
-51z m-366 -159 c-3 -7 -11 -13 -18 -13 -11 0 -11 19 -2 103 6 56 13 104 15
107 5 8 10 -183 5 -197z m56 93 c-3 -83 -6 -96 -21 -96 -15 0 -16 8 -9 88 10
96 14 115 25 109 5 -3 7 -48 5 -101z m-102 -11 c0 -87 -3 -105 -15 -105 -8 0
-56 -13 -107 -30 -51 -16 -93 -28 -95 -26 -3 2 42 210 53 249 5 14 18 17 85
17 l79 0 0 -105z"/>
</g>
</svg>
