<?xml version="1.0" standalone="no"?>
<!DOCTYPE svg PUBLIC "-//W3C//DTD SVG 20010904//EN"
 "http://www.w3.org/TR/2001/REC-SVG-20010904/DTD/svg10.dtd">
<svg version="1.0" xmlns="http://www.w3.org/2000/svg"
 width="179.000000pt" height="127.000000pt" viewBox="0 0 179.000000 127.000000"
 preserveAspectRatio="xMidYMid meet">
<metadata>
Created by potrace 1.16, written by Peter Selinger 2001-2019
</metadata>
<g transform="translate(0.000000,127.000000) scale(0.100000,-0.100000)"
fill="#000000" stroke="none">
<path d="M313 963 c-10 -4 -13 -80 -13 -334 0 -316 1 -329 19 -329 11 0 75 58
159 145 77 80 143 145 146 145 4 0 59 -35 124 -78 136 -91 284 -182 295 -182
5 0 5 4 2 10 -8 13 -201 163 -294 228 -59 41 -69 52 -50 52 13 0 31 5 39 10
11 7 4 10 -27 10 -24 0 -43 3 -43 8 1 4 39 33 85 65 47 32 130 94 185 137 l99
79 139 -97 c77 -53 175 -119 218 -145 l78 -49 -68 -41 c-101 -62 -356 -238
-356 -246 0 -4 6 -15 13 -25 12 -16 26 -7 166 99 168 127 261 203 261 215 0
14 -393 320 -411 320 -4 0 -11 -5 -14 -10 -4 -6 -10 -8 -15 -5 -10 6 -141 -72
-311 -186 l-122 -81 -146 145 c-80 80 -152 143 -158 140z m241 -261 l60 -52
-137 0 c-132 0 -137 -1 -137 -21 0 -20 4 -20 130 -17 72 2 130 1 130 -2 0 -5
-63 -64 -233 -219 l-47 -44 5 124 c4 97 10 264 15 423 0 5 35 -24 78 -65 42
-41 104 -98 136 -127z"/>
<path d="M995 792 c-151 -91 -182 -115 -182 -139 0 -18 23 -38 109 -94 163
-106 148 -105 259 -21 141 108 143 110 129 127 -15 19 -204 163 -222 170 -8 3
-50 -16 -93 -43z m193 -65 l112 -75 -53 -32 c-28 -18 -82 -54 -118 -80 l-66
-48 -107 80 c-59 44 -106 82 -104 83 29 28 206 153 213 151 6 -2 61 -38 123
-79z"/>
</g>
</svg>
