<?xml version="1.0" standalone="no"?>
<!DOCTYPE svg PUBLIC "-//W3C//DTD SVG 20010904//EN"
 "http://www.w3.org/TR/2001/REC-SVG-20010904/DTD/svg10.dtd">
<svg version="1.0" xmlns="http://www.w3.org/2000/svg"
 width="171.000000pt" height="106.000000pt" viewBox="0 0 171.000000 106.000000"
 preserveAspectRatio="xMidYMid meet">
<metadata>
Created by potrace 1.16, written by Peter Selinger 2001-2019
</metadata>
<g transform="translate(0.000000,106.000000) scale(0.100000,-0.100000)"
fill="#000000" stroke="none">
<path d="M1110 749 c-91 -4 -293 -7 -449 -7 -156 -1 -284 -2 -286 -4 -2 -2
-15 -73 -31 -158 -15 -85 -32 -158 -37 -161 -17 -12 1 -42 20 -35 33 13 268
84 299 90 29 7 36 2 114 -84 l82 -90 60 0 c65 0 493 66 518 80 13 8 13 9 0 14
-8 2 -89 29 -180 59 -230 77 -402 139 -397 144 3 2 81 24 173 48 160 42 282
81 321 104 15 9 13 10 -12 9 -16 -1 -104 -5 -195 -9z m-138 -77 c-284 -72
-284 -71 -47 -154 94 -33 226 -75 294 -94 68 -19 126 -35 127 -37 4 -3 -326
-43 -448 -54 -76 -7 -67 -12 -176 115 -39 46 -60 62 -78 62 -31 0 -157 -32
-238 -60 -33 -11 -61 -19 -63 -17 -2 3 41 206 53 248 4 15 36 18 252 24 136 4
294 11 352 15 207 14 205 11 -28 -48z"/>
</g>
</svg>
