<?xml version="1.0" standalone="no"?>
<!DOCTYPE svg PUBLIC "-//W3C//DTD SVG 20010904//EN"
 "http://www.w3.org/TR/2001/REC-SVG-20010904/DTD/svg10.dtd">
<svg version="1.0" xmlns="http://www.w3.org/2000/svg"
 width="139.000000pt" height="120.000000pt" viewBox="0 0 139.000000 120.000000"
 preserveAspectRatio="xMidYMid meet">
<metadata>
Created by potrace 1.16, written by Peter Selinger 2001-2019
</metadata>
<g transform="translate(0.000000,120.000000) scale(0.100000,-0.100000)"
fill="#000000" stroke="none">
<path d="M300 628 c0 -150 3 -283 6 -295 l6 -23 389 0 c253 0 389 4 389 10 0
6 -8 10 -18 10 -16 0 -17 6 -11 58 4 31 8 89 8 128 1 60 -2 73 -16 79 -10 4
-133 10 -273 13 l-255 5 3 130 c4 161 7 157 -130 157 l-98 0 0 -272z m193 95
c4 -87 7 -209 7 -270 l0 -113 -89 0 -89 0 6 263 c2 144 8 264 13 267 4 3 39 6
77 8 l69 3 6 -158z m541 -170 c3 -21 6 -80 6 -132 l0 -94 -182 6 c-99 4 -216
7 -260 7 l-78 0 0 98 c0 157 -27 141 249 145 130 1 241 3 247 5 6 1 14 -15 18
-35z"/>
<path d="M599 556 c-2 -3 -3 -44 -1 -92 4 -106 22 -95 22 13 0 62 -8 92 -21
79z"/>
<path d="M910 475 c0 -50 4 -85 10 -85 6 0 10 35 10 85 0 50 -4 85 -10 85 -6
0 -10 -35 -10 -85z"/>
<path d="M707 543 c-2 -5 -2 -46 1 -93 6 -99 20 -84 21 22 1 59 -10 92 -22 71z"/>
<path d="M804 503 c2 -27 5 -66 6 -88 2 -35 3 -37 10 -15 4 14 8 53 9 88 1 49
-2 62 -14 62 -12 0 -15 -10 -11 -47z"/>
</g>
</svg>
