<?xml version="1.0" standalone="no"?>
<!DOCTYPE svg PUBLIC "-//W3C//DTD SVG 20010904//EN"
 "http://www.w3.org/TR/2001/REC-SVG-20010904/DTD/svg10.dtd">
<svg version="1.0" xmlns="http://www.w3.org/2000/svg"
 width="163.000000pt" height="134.000000pt" viewBox="0 0 163.000000 134.000000"
 preserveAspectRatio="xMidYMid meet">
<metadata>
Created by potrace 1.16, written by Peter Selinger 2001-2019
</metadata>
<g transform="translate(0.000000,134.000000) scale(0.100000,-0.100000)"
fill="#000000" stroke="none">
<path d="M1230 1020 c-95 -35 -162 -73 -223 -129 -62 -57 -92 -106 -105 -168
-4 -21 -11 -37 -15 -35 -4 1 -57 2 -118 2 l-112 0 6 75 c5 70 4 75 -15 75 -18
0 -19 -6 -16 -75 3 -72 2 -75 -19 -75 -22 0 -23 4 -23 75 0 60 -3 75 -15 75
-12 0 -15 -15 -15 -75 0 -73 -1 -75 -25 -75 -24 0 -25 2 -25 75 0 60 -3 75
-15 75 -12 0 -15 -15 -15 -75 0 -68 -2 -75 -20 -75 -19 0 -20 7 -20 90 0 85
-1 90 -21 90 -20 0 -21 -4 -17 -90 l3 -90 -52 0 c-46 0 -53 -3 -53 -20 0 -18
7 -20 55 -20 l55 0 1 -107 c2 -146 12 -193 22 -98 4 39 7 100 7 138 0 59 2 67
19 67 15 0 19 -11 25 -61 3 -34 6 -84 6 -110 0 -27 5 -49 10 -49 6 0 10 43 10
110 0 109 0 110 24 110 21 0 24 -5 30 -61 3 -34 6 -84 6 -110 0 -27 5 -49 10
-49 6 0 10 43 10 110 l0 110 25 0 25 0 0 -110 c0 -67 4 -110 10 -110 6 0 10
43 10 110 l0 110 118 0 118 0 12 -48 c26 -100 131 -197 283 -260 41 -17 86
-33 100 -37 l26 -6 6 137 c4 75 7 236 7 356 0 177 -3 222 -14 234 -18 18 -19
17 -86 -6z m60 -164 c0 -79 3 -152 6 -160 6 -15 -12 -16 -177 -14 l-184 3 3
25 c6 47 53 129 95 166 57 49 198 119 250 123 4 1 7 -64 7 -143z m10 -366 l0
-170 -24 10 c-56 21 -145 71 -203 114 -66 48 -106 100 -128 163 l-13 38 41 6
c23 3 106 7 185 7 l142 2 0 -170z"/>
</g>
</svg>
