<?xml version="1.0" standalone="no"?>
<!DOCTYPE svg PUBLIC "-//W3C//DTD SVG 20010904//EN"
 "http://www.w3.org/TR/2001/REC-SVG-20010904/DTD/svg10.dtd">
<svg version="1.0" xmlns="http://www.w3.org/2000/svg"
 width="177.000000pt" height="134.000000pt" viewBox="0 0 177.000000 134.000000"
 preserveAspectRatio="xMidYMid meet">
<metadata>
Created by potrace 1.16, written by Peter Selinger 2001-2019
</metadata>
<g transform="translate(0.000000,134.000000) scale(0.100000,-0.100000)"
fill="#000000" stroke="none">
<path d="M1373 1020 c-79 -28 -168 -78 -219 -123 -46 -41 -104 -129 -104 -159
0 -10 -11 -19 -27 -22 -24 -5 -165 -25 -185 -26 -4 0 -8 26 -10 58 -2 43 -7
57 -18 57 -12 0 -15 -13 -15 -55 0 -40 -4 -57 -15 -61 -12 -5 -16 6 -20 54 -7
87 -30 89 -30 3 0 -59 -2 -66 -20 -66 -16 0 -19 8 -22 62 -2 38 -8 63 -15 66
-10 3 -13 -14 -13 -62 0 -63 -1 -66 -25 -66 -23 0 -24 4 -27 62 -2 38 -8 63
-15 66 -10 3 -13 -15 -13 -67 0 -69 -1 -71 -25 -71 -14 0 -25 6 -26 13 0 6 -1
37 -2 67 -2 41 -6 55 -17 55 -12 0 -16 -16 -18 -68 -2 -58 -6 -68 -20 -65 -13
2 -18 17 -22 68 -4 49 -9 65 -20 65 -12 0 -15 -14 -15 -65 l0 -65 -57 3 c-56
2 -58 1 -58 -23 0 -24 3 -25 60 -25 l60 0 1 -67 c2 -115 15 -129 23 -25 7 89
8 92 32 92 24 0 24 -2 24 -84 0 -109 19 -126 22 -19 0 43 1 84 1 91 -1 7 11
12 27 12 25 0 28 -3 34 -52 3 -29 6 -70 6 -91 0 -23 4 -36 10 -32 6 3 10 44
10 91 0 83 0 84 25 84 22 0 25 -4 25 -37 0 -21 3 -63 7 -93 5 -45 8 -50 14
-30 4 14 7 55 8 93 1 58 3 67 20 67 16 0 19 -11 26 -91 3 -50 10 -88 13 -84 4
3 9 45 12 93 4 68 8 87 20 87 12 0 16 -17 18 -85 2 -47 7 -89 11 -93 4 -4 10
30 13 77 3 46 9 89 12 95 5 7 45 11 106 11 l98 0 17 -50 c21 -63 97 -147 173
-194 61 -37 162 -80 211 -91 l31 -7 0 357 c0 422 6 401 -97 365z m70 -357 c3
-186 4 -340 1 -342 -2 -2 -46 17 -97 43 -139 69 -232 159 -261 254 -7 22 -6
22 76 23 46 1 115 4 153 8 l70 6 -100 8 c-55 4 -124 7 -153 7 -92 0 -55 21 98
56 80 18 148 33 153 33 4 1 8 -27 8 -61 2 -78 13 -130 23 -107 12 27 2 212
-11 217 -7 2 -13 -3 -13 -11 0 -9 -8 -18 -17 -21 -53 -14 -274 -48 -280 -43
-11 12 30 87 71 128 22 22 60 52 84 66 44 26 156 71 178 72 8 1 13 -101 17
-336z m-415 10 c-10 -2 -26 -2 -35 0 -10 3 -2 5 17 5 19 0 27 -2 18 -5z"/>
</g>
</svg>
