<?xml version="1.0" standalone="no"?>
<!DOCTYPE svg PUBLIC "-//W3C//DTD SVG 20010904//EN"
 "http://www.w3.org/TR/2001/REC-SVG-20010904/DTD/svg10.dtd">
<svg version="1.0" xmlns="http://www.w3.org/2000/svg"
 width="123.000000pt" height="115.000000pt" viewBox="0 0 123.000000 115.000000"
 preserveAspectRatio="xMidYMid meet">
<metadata>
Created by potrace 1.16, written by Peter Selinger 2001-2019
</metadata>
<g transform="translate(0.000000,115.000000) scale(0.100000,-0.100000)"
fill="#000000" stroke="none">
<path d="M300 606 c0 -134 3 -256 6 -272 l5 -29 112 7 c121 7 187 17 187 28 0
6 -173 4 -258 -3 l-34 -3 6 40 c4 22 12 44 19 48 18 12 93 9 182 -7 84 -15
107 -13 59 5 -41 16 -108 29 -186 36 l-68 6 0 119 0 119 58 0 c52 0 207 32
220 45 13 13 -8 12 -68 0 -36 -8 -98 -14 -137 -15 l-73 0 0 33 c0 59 4 61 150
54 73 -3 129 -2 124 3 -15 13 -136 30 -222 30 l-82 0 0 -244z"/>
<path d="M620 765 c0 -8 7 -15 15 -15 12 0 15 -20 16 -117 0 -65 3 -136 8
-158 7 -40 7 -40 14 24 4 35 7 106 7 157 0 87 1 94 20 94 19 0 20 -7 20 -155
0 -97 4 -155 10 -155 8 0 16 199 13 298 -1 6 7 12 17 12 16 0 18 -16 25 -155
4 -87 11 -152 16 -149 5 3 9 72 9 154 0 118 3 149 14 153 8 3 17 3 20 0 3 -4
6 -75 6 -160 0 -95 4 -153 10 -153 6 0 11 55 12 143 1 178 1 170 16 175 8 2
12 -12 12 -51 0 -106 13 -266 21 -261 5 3 9 75 9 159 0 137 -2 155 -17 164
-10 5 -80 10 -155 10 -119 2 -138 0 -138 -14z"/>
<path d="M625 401 c-4 -7 -5 -15 -2 -18 10 -9 272 -2 282 8 5 5 -7 9 -35 9
-25 0 -88 3 -141 6 -70 5 -98 4 -104 -5z"/>
</g>
</svg>
