<?xml version="1.0" standalone="no"?>
<!DOCTYPE svg PUBLIC "-//W3C//DTD SVG 20010904//EN"
 "http://www.w3.org/TR/2001/REC-SVG-20010904/DTD/svg10.dtd">
<svg version="1.0" xmlns="http://www.w3.org/2000/svg"
 width="169.000000pt" height="155.000000pt" viewBox="0 0 169.000000 155.000000"
 preserveAspectRatio="xMidYMid meet">
<metadata>
Created by potrace 1.16, written by Peter Selinger 2001-2019
</metadata>
<g transform="translate(0.000000,155.000000) scale(0.100000,-0.100000)"
fill="#000000" stroke="none">
<path d="M420 1232 c0 -9 9 -49 20 -87 11 -38 20 -73 20 -77 0 -4 -36 -26 -80
-48 -48 -24 -80 -46 -80 -56 0 -11 21 -4 85 29 47 24 85 40 85 36 0 -5 8 -8
18 -7 71 6 66 -10 -13 -46 -43 -19 -62 -33 -58 -42 4 -10 22 -5 75 22 51 26
73 32 78 24 6 -9 9 -9 11 -1 3 8 12 9 27 4 20 -8 15 -12 -43 -41 -36 -17 -65
-36 -65 -42 0 -16 17 -12 81 20 54 28 79 31 79 11 0 -4 -20 -17 -45 -29 -25
-12 -45 -26 -45 -32 0 -16 17 -12 81 20 56 29 79 31 79 10 0 -5 -19 -19 -42
-31 -53 -26 -51 -25 -43 -38 4 -7 31 2 75 24 l70 35 6 -25 c3 -14 11 -25 16
-25 6 0 7 11 4 25 -4 14 -4 25 0 25 3 0 44 -16 90 -36 92 -40 91 -39 58 -108
-19 -39 -18 -53 10 -113 50 -106 105 -156 269 -243 71 -38 97 -57 97 -71 0
-10 5 -19 10 -19 6 0 10 7 10 15 0 9 6 12 18 8 16 -6 16 -5 0 13 -15 18 -15
34 -2 214 7 107 14 258 14 336 0 128 -2 143 -20 159 -18 17 -23 17 -86 1 -118
-30 -195 -78 -247 -156 l-32 -48 -78 36 c-55 25 -76 39 -72 49 4 11 -1 13 -24
8 -28 -6 -31 -4 -40 32 -6 22 -14 53 -17 71 -4 19 -13 32 -21 32 -11 0 -13 -7
-9 -26 16 -62 18 -84 8 -84 -16 0 -29 22 -42 70 -20 81 -21 83 -32 72 -8 -8
-7 -25 2 -57 7 -25 10 -48 7 -52 -14 -13 -34 20 -47 74 -14 63 -24 81 -34 64
-6 -9 5 -66 20 -106 5 -11 0 -12 -24 -3 -22 8 -32 20 -36 42 -15 76 -27 106
-42 106 -10 0 -14 -6 -11 -14 28 -72 30 -131 4 -95 -7 9 -17 14 -23 12 -6 -2
-16 20 -23 50 -21 93 -32 127 -41 127 -6 0 -10 -8 -10 -18z m940 -244 c0 -62
-9 -75 -75 -108 -35 -18 -81 -49 -101 -70 l-38 -38 -53 26 c-29 14 -53 31 -53
38 0 6 22 34 50 63 50 52 105 83 190 107 73 20 80 18 80 -18z m-665 -48 c-3
-5 -10 -10 -16 -10 -5 0 -9 5 -9 10 0 6 7 10 16 10 8 0 12 -4 9 -10z m70 -30
c3 -5 -1 -10 -9 -10 -9 0 -16 5 -16 10 0 6 4 10 9 10 6 0 13 -4 16 -10z m585
-167 c-1 -76 -4 -161 -7 -190 -7 -61 -10 -61 -92 13 -56 50 -91 108 -91 149 0
27 10 31 41 14 11 -6 25 -8 32 -6 7 2 -5 12 -26 23 l-37 18 27 29 c30 31 120
87 141 87 10 0 13 -31 12 -137z m-268 37 l53 -21 -3 -44 c-6 -70 53 -146 162
-210 l46 -27 0 -59 0 -59 -42 26 c-210 132 -260 182 -304 306 -12 34 -11 43 3
73 9 19 20 35 24 35 4 0 31 -9 61 -20z"/>
</g>
</svg>
