<?xml version="1.0" standalone="no"?>
<!DOCTYPE svg PUBLIC "-//W3C//DTD SVG 20010904//EN"
 "http://www.w3.org/TR/2001/REC-SVG-20010904/DTD/svg10.dtd">
<svg version="1.0" xmlns="http://www.w3.org/2000/svg"
 width="167.000000pt" height="135.000000pt" viewBox="0 0 167.000000 135.000000"
 preserveAspectRatio="xMidYMid meet">
<metadata>
Created by potrace 1.16, written by Peter Selinger 2001-2019
</metadata>
<g transform="translate(0.000000,135.000000) scale(0.100000,-0.100000)"
fill="#000000" stroke="none">
<path d="M1210 1024 c-41 -14 -89 -34 -107 -45 -51 -32 -109 -104 -139 -173
l-28 -64 -55 5 c-66 7 -68 8 -51 28 7 8 8 15 2 15 -5 0 -15 -7 -22 -15 -20
-24 -33 -18 -74 40 -22 30 -43 55 -47 55 -21 0 -14 -21 23 -63 l40 -47 -65 1
-65 2 -43 58 c-28 39 -46 56 -52 50 -7 -7 3 -27 27 -58 l37 -48 -62 -3 c-39
-2 -65 1 -69 9 -6 8 -9 8 -15 0 -4 -8 -27 15 -61 61 -30 40 -59 75 -64 76 -24
9 -6 -29 45 -93 47 -58 53 -71 42 -84 -7 -9 -34 -40 -60 -70 -26 -29 -47 -57
-47 -62 0 -25 30 -1 80 61 41 52 58 66 67 58 9 -7 13 -7 13 1 0 7 27 11 76 11
l77 0 -52 -55 c-31 -33 -49 -60 -45 -67 5 -7 27 11 63 51 47 52 58 60 70 49
12 -11 13 -10 8 5 -6 15 1 17 48 17 30 0 55 -4 55 -8 0 -4 -20 -28 -45 -52
-41 -40 -57 -70 -37 -70 4 0 30 26 58 57 l52 58 21 -25 c16 -20 20 -21 21 -8
0 9 -4 20 -10 23 -24 15 -6 25 48 25 l57 0 1 -33 c1 -41 46 -132 87 -176 40
-42 152 -116 235 -155 42 -20 62 -35 62 -48 0 -10 5 -18 10 -18 6 0 10 5 10
10 0 6 8 10 17 10 16 0 16 1 0 13 -15 11 -15 27 -2 197 7 102 16 255 20 340
l6 155 -27 13 c-38 16 -47 15 -134 -14z m116 -116 c-3 -57 -8 -202 -11 -323
-3 -120 -8 -221 -10 -223 -6 -6 -172 104 -228 150 -52 44 -92 105 -112 171
-11 38 -10 46 10 88 36 71 100 145 150 175 50 29 147 63 183 63 23 1 23 1 18
-101z"/>
</g>
</svg>
