<?xml version="1.0" standalone="no"?>
<!DOCTYPE svg PUBLIC "-//W3C//DTD SVG 20010904//EN"
 "http://www.w3.org/TR/2001/REC-SVG-20010904/DTD/svg10.dtd">
<svg version="1.0" xmlns="http://www.w3.org/2000/svg"
 width="140.000000pt" height="123.000000pt" viewBox="0 0 140.000000 123.000000"
 preserveAspectRatio="xMidYMid meet">
<metadata>
Created by potrace 1.16, written by Peter Selinger 2001-2019
</metadata>
<g transform="translate(0.000000,123.000000) scale(0.100000,-0.100000)"
fill="#000000" stroke="none">
<path d="M540 870 l0 -60 -120 0 -120 0 0 -25 0 -25 120 0 120 0 0 -40 0 -40
-120 0 -120 0 0 -25 0 -25 120 0 120 0 0 -51 0 -50 -120 7 -120 7 0 -27 0 -26
119 0 119 0 6 -31 c3 -17 6 -60 6 -95 0 -36 4 -64 10 -64 6 0 10 38 10 95 l0
95 45 0 45 0 1 -72 c2 -122 15 -136 24 -25 l7 97 38 0 c47 0 50 -8 50 -111 0
-114 19 -98 22 19 l3 97 145 6 c80 3 147 7 150 9 11 6 -110 18 -197 19 l-93 1
0 55 0 55 93 0 c50 0 117 3 147 7 49 6 52 8 25 14 -16 4 -83 7 -147 8 l-118 1
0 50 0 50 78 0 c107 0 212 11 206 21 -3 5 -68 9 -145 9 l-139 0 0 65 c0 58 -2
65 -20 65 -18 0 -20 -7 -20 -60 l0 -60 -40 0 -41 0 7 60 c7 60 7 60 -20 60
-25 0 -26 -2 -26 -60 l0 -60 -35 0 -35 0 0 60 c0 53 -2 60 -20 60 -18 0 -20
-7 -20 -60z m230 -150 c0 -53 0 -53 -49 -44 -28 6 -31 10 -31 44 0 40 8 48 53
49 26 1 27 -1 27 -49z m-120 0 c0 -39 -1 -40 -35 -40 -34 0 -35 1 -35 40 0 39
1 40 35 40 34 0 35 -1 35 -40z m120 -135 l0 -55 -40 0 -40 0 0 49 c0 43 3 50
23 54 57 11 57 11 57 -48z m-116 4 c8 -51 3 -59 -40 -59 l-34 0 0 50 0 50 34
0 c31 0 34 -2 40 -41z"/>
</g>
</svg>
