<?xml version="1.0" standalone="no"?>
<!DOCTYPE svg PUBLIC "-//W3C//DTD SVG 20010904//EN"
 "http://www.w3.org/TR/2001/REC-SVG-20010904/DTD/svg10.dtd">
<svg version="1.0" xmlns="http://www.w3.org/2000/svg"
 width="98.000000pt" height="148.000000pt" viewBox="0 0 98.000000 148.000000"
 preserveAspectRatio="xMidYMid meet">
<metadata>
Created by potrace 1.16, written by Peter Selinger 2001-2019
</metadata>
<g transform="translate(0.000000,148.000000) scale(0.100000,-0.100000)"
fill="#000000" stroke="none">
<path d="M352 1163 c-8 -14 8 -34 86 -108 l95 -91 -69 -49 c-106 -75 -164
-133 -164 -163 0 -37 88 -118 178 -165 39 -21 72 -41 72 -45 0 -4 -38 -59 -85
-121 -47 -63 -83 -117 -79 -120 13 -13 200 207 259 304 31 52 35 67 35 127 0
83 -14 114 -100 222 -70 88 -199 226 -211 226 -4 0 -12 -8 -17 -17z m236 -270
c75 -96 79 -140 22 -249 -22 -42 -42 -79 -44 -81 -7 -8 -114 64 -162 109 -62
57 -69 73 -49 104 15 23 182 154 197 154 3 0 20 -17 36 -37z"/>
</g>
</svg>
