<?xml version="1.0" standalone="no"?>
<!DOCTYPE svg PUBLIC "-//W3C//DTD SVG 20010904//EN"
 "http://www.w3.org/TR/2001/REC-SVG-20010904/DTD/svg10.dtd">
<svg version="1.0" xmlns="http://www.w3.org/2000/svg"
 width="134.000000pt" height="131.000000pt" viewBox="0 0 134.000000 131.000000"
 preserveAspectRatio="xMidYMid meet">
<metadata>
Created by potrace 1.16, written by Peter Selinger 2001-2019
</metadata>
<g transform="translate(0.000000,131.000000) scale(0.100000,-0.100000)"
fill="#000000" stroke="none">
<path d="M437 996 c-3 -8 12 -68 34 -133 21 -64 39 -122 39 -129 0 -6 -47 -47
-105 -90 -57 -44 -104 -82 -105 -86 0 -5 17 -9 38 -9 20 -1 84 -4 141 -8 l104
-6 41 -118 c22 -64 45 -117 51 -117 5 0 28 53 51 118 l41 117 136 3 c173 3
175 9 37 112 -54 41 -99 82 -100 90 0 9 18 68 39 132 33 98 37 118 24 122 -18
7 -15 9 -131 -76 -56 -41 -98 -66 -105 -61 -7 4 -54 38 -105 76 -107 79 -117
84 -125 63z m133 -112 l79 -57 -52 -38 c-34 -26 -53 -35 -56 -27 -2 7 -17 50
-32 96 -15 45 -25 82 -23 82 3 0 41 -25 84 -56z m288 34 c-3 -7 -15 -44 -28
-83 -12 -38 -24 -72 -26 -74 -1 -2 -23 12 -49 30 -25 18 -42 36 -38 40 20 20
129 98 137 99 4 0 6 -6 4 -12z m-121 -154 c29 -20 53 -41 53 -46 0 -6 -9 -41
-21 -79 l-21 -69 -73 0 -73 0 -21 62 c-12 34 -21 69 -21 77 1 16 95 89 115 91
5 0 33 -16 62 -36z m183 -125 c50 -33 90 -62 90 -63 0 -1 -52 -3 -116 -4 -93
-3 -116 -1 -112 10 3 7 13 37 22 66 10 28 20 52 22 52 3 0 45 -27 94 -61z
m-372 -8 l20 -59 -117 -4 c-64 -2 -117 -4 -118 -3 -5 3 173 123 184 124 6 1
20 -26 31 -58z m177 -138 c-8 -27 -22 -74 -31 -106 -9 -32 -18 -56 -21 -54 -2
2 -15 43 -28 90 -14 47 -28 93 -31 101 -5 14 4 16 59 16 l66 0 -14 -47z"/>
</g>
</svg>
