<?xml version="1.0" standalone="no"?>
<!DOCTYPE svg PUBLIC "-//W3C//DTD SVG 20010904//EN"
 "http://www.w3.org/TR/2001/REC-SVG-20010904/DTD/svg10.dtd">
<svg version="1.0" xmlns="http://www.w3.org/2000/svg"
 width="194.000000pt" height="152.000000pt" viewBox="0 0 194.000000 152.000000"
 preserveAspectRatio="xMidYMid meet">
<metadata>
Created by potrace 1.16, written by Peter Selinger 2001-2019
</metadata>
<g transform="translate(0.000000,152.000000) scale(0.100000,-0.100000)"
fill="#000000" stroke="none">
<path d="M1434 1209 c-7 -13 75 -179 89 -179 10 0 3 26 -36 118 -30 71 -39 83
-53 61z"/>
<path d="M1357 1173 c-7 -6 66 -149 85 -168 16 -15 1 38 -30 112 -25 59 -39
73 -55 56z"/>
<path d="M1302 1141 c-11 -6 -6 -23 21 -77 20 -38 43 -78 52 -89 16 -19 16
-19 10 10 -3 17 -20 60 -38 97 -24 50 -35 66 -45 59z"/>
<path d="M312 1115 c-7 -14 -12 -27 -12 -29 0 -2 63 -56 140 -121 78 -65 139
-119 138 -120 -2 -2 -49 -27 -105 -55 -57 -29 -103 -58 -103 -66 0 -23 28 -42
115 -73 47 -17 90 -31 96 -31 19 0 8 -17 -42 -65 -28 -28 -82 -84 -120 -127
-66 -73 -69 -77 -57 -103 12 -26 14 -27 73 -20 114 13 300 47 385 71 110 32
267 109 391 191 95 64 133 101 68 67 -30 -15 -31 -15 -25 1 3 9 6 41 6 71 0
45 3 54 18 54 16 1 16 1 0 14 -24 18 -27 141 -3 132 8 -3 15 -1 15 4 0 13
-222 120 -320 155 -138 49 -326 75 -541 75 -104 0 -106 -1 -117 -25z m318
-140 c0 -81 -3 -115 -12 -115 -6 0 -41 28 -77 63 -36 34 -93 86 -126 115 l-60
52 138 0 137 0 0 -115z m118 3 l3 -98 -25 0 c-13 0 -31 -3 -40 -6 -14 -5 -16
7 -16 101 l0 106 38 -3 37 -3 3 -97z m95 78 l27 -6 0 -90 c0 -97 -1 -99 -57
-84 -22 6 -23 11 -23 100 0 70 3 92 13 90 6 -3 24 -7 40 -10z m106 -27 l31
-11 0 -84 c0 -46 -4 -84 -9 -84 -5 0 -23 3 -40 6 l-31 7 0 88 c0 49 4 89 9 89
4 0 22 -5 40 -11z m147 -49 c2 0 4 -36 4 -80 0 -44 -3 -80 -7 -80 -5 0 -25 5
-46 11 l-38 10 2 77 c1 42 3 80 6 84 2 4 20 1 40 -7 19 -8 37 -15 39 -15z m94
-36 l40 -16 0 -69 c0 -38 -3 -69 -6 -69 -3 0 -25 5 -50 11 l-44 11 0 74 c0 42
4 74 10 74 5 0 28 -7 50 -16z m-430 -204 l0 -100 -45 0 c-48 0 -59 16 -30 40
8 7 15 17 15 22 0 6 -7 5 -15 -2 -13 -11 -15 -6 -15 34 0 29 4 45 10 41 6 -3
10 -2 10 4 0 5 -4 13 -10 16 -16 10 -12 33 8 38 9 3 29 5 45 6 l27 1 0 -100z
m79 94 l31 -6 0 -83 c0 -77 -1 -83 -22 -89 -57 -15 -58 -14 -58 89 0 52 4 95
9 95 5 0 23 -3 40 -6z m141 -78 c0 -59 -2 -64 -24 -70 -13 -3 -31 -9 -40 -12
-14 -5 -16 4 -16 70 l0 76 40 0 40 0 0 -64z m-350 -27 l0 -81 -27 6 c-50 12
-173 59 -173 66 0 8 170 90 187 90 10 0 13 -22 13 -81z m446 71 c21 0 24 -5
24 -35 0 -28 -5 -37 -24 -45 -56 -21 -61 -18 -62 30 -2 53 3 63 23 56 8 -3 26
-6 39 -6z m119 -25 l30 -7 -35 -13 c-51 -20 -60 -18 -60 11 0 19 4 24 18 21 9
-3 31 -8 47 -12z m35 -57 c0 -18 3 -49 6 -69 6 -35 5 -37 -50 -67 -31 -18 -57
-32 -58 -32 -2 0 -2 37 0 83 l3 83 42 16 c58 22 57 22 57 -14z m-130 -45 c0
-16 3 -51 6 -80 l7 -51 -41 -21 c-23 -12 -46 -21 -52 -21 -7 0 -10 30 -8 87
l3 86 35 13 c49 18 50 17 50 -13z m-116 -50 c3 -21 6 -61 6 -89 l0 -51 -46
-18 c-25 -9 -47 -16 -48 -14 -2 2 -1 45 2 95 l4 92 32 10 c17 5 34 10 37 11 4
1 9 -16 13 -36z m-106 -94 l3 -87 -32 -11 c-53 -18 -72 -15 -65 12 3 12 6 54
6 94 0 66 2 72 23 76 59 12 62 9 65 -84z m-239 -61 c1 -49 0 -88 -2 -88 -2 0
-52 -7 -112 -15 -59 -9 -110 -13 -113 -11 -2 3 22 34 54 69 33 36 82 91 109
124 48 58 50 59 56 34 3 -14 6 -65 8 -113z m124 65 c12 -120 12 -121 -30 -132
-75 -21 -73 -23 -73 94 l0 105 49 0 48 0 6 -67z"/>
<path d="M1227 1104 c-3 -3 15 -47 40 -98 56 -108 70 -94 21 21 -31 73 -46 91
-61 77z"/>
<path d="M1465 979 c-156 -79 -164 -84 -148 -100 13 -13 32 -3 186 88 59 36
107 69 107 74 0 12 13 17 -145 -62z"/>
<path d="M1327 675 c-7 -18 -8 -17 78 -50 129 -50 235 -84 235 -76 0 9 -112
63 -229 111 -87 35 -77 34 -84 15z"/>
</g>
</svg>
