<?xml version="1.0" standalone="no"?>
<!DOCTYPE svg PUBLIC "-//W3C//DTD SVG 20010904//EN"
 "http://www.w3.org/TR/2001/REC-SVG-20010904/DTD/svg10.dtd">
<svg version="1.0" xmlns="http://www.w3.org/2000/svg"
 width="177.000000pt" height="121.000000pt" viewBox="0 0 177.000000 121.000000"
 preserveAspectRatio="xMidYMid meet">
<metadata>
Created by potrace 1.16, written by Peter Selinger 2001-2019
</metadata>
<g transform="translate(0.000000,121.000000) scale(0.100000,-0.100000)"
fill="#000000" stroke="none">
<path d="M443 903 c-34 -3 -43 -8 -43 -24 0 -12 -7 -19 -19 -19 -15 0 -26 -18
-47 -77 -25 -67 -29 -93 -29 -178 0 -87 4 -108 29 -165 15 -36 29 -72 30 -80
4 -20 124 -49 236 -57 96 -6 242 17 272 44 9 8 20 28 23 45 5 20 10 26 18 19
39 -32 310 -42 425 -16 70 16 132 47 132 65 0 6 -12 4 -30 -5 -85 -44 -343
-61 -460 -31 -30 8 -59 12 -63 9 -7 -4 0 35 7 44 1 1 31 10 67 20 89 25 363
25 429 1 49 -19 66 -15 35 8 -41 30 -100 39 -255 39 -108 -1 -172 -6 -210 -16
l-55 -16 0 104 0 103 45 -7 c25 -5 110 -8 190 -8 155 1 234 16 281 54 30 24
19 38 -14 17 -42 -28 -155 -46 -282 -45 -150 1 -219 15 -223 46 -5 36 74 55
254 60 147 5 194 -1 272 -33 6 -3 12 -1 12 6 0 6 -21 21 -47 33 -44 20 -63 22
-218 21 -124 0 -185 -5 -225 -17 -31 -9 -56 -11 -58 -6 -2 5 -10 9 -18 9 -7 0
-49 12 -91 27 -66 22 -97 27 -203 28 -69 2 -144 1 -167 -2z m157 -68 c0 -19
-3 -35 -6 -35 -4 0 -28 8 -55 17 -46 17 -67 15 -55 -5 3 -5 32 -14 64 -21 57
-11 58 -12 54 -41 -4 -29 -5 -29 -36 -16 -57 23 -86 28 -86 12 0 -9 22 -18 64
-26 l63 -13 -1 -41 -1 -41 -100 -1 c-55 -1 -115 1 -134 3 -32 5 -33 7 -27 44
7 47 41 138 60 164 14 19 68 31 154 34 42 1 42 1 42 -34z m232 12 l43 -13 12
-79 c6 -44 12 -95 12 -114 l1 -34 -37 8 c-21 4 -77 7 -125 6 l-88 -3 0 127 0
128 70 -7 c38 -4 89 -13 112 -19z m-220 -380 c3 -67 4 -124 2 -126 -4 -5 -148
23 -205 39 -33 9 -38 15 -53 68 -9 32 -16 75 -16 95 l0 36 103 3 c56 2 116 4
133 5 l31 2 5 -122z m284 59 c-3 -33 -11 -87 -17 -118 l-11 -56 -47 -6 c-46
-6 -116 -9 -158 -7 -23 1 -23 4 -23 119 0 65 3 122 7 126 4 4 63 6 131 5 l125
-1 -7 -62z"/>
<path d="M716 552 c-13 -13 -4 -20 38 -31 54 -13 84 -14 70 -2 -14 13 -102 40
-108 33z"/>
<path d="M692 449 c5 -14 95 -42 113 -35 11 4 -46 31 -89 42 -22 5 -28 4 -24
-7z"/>
</g>
</svg>
