<?xml version="1.0" standalone="no"?>
<!DOCTYPE svg PUBLIC "-//W3C//DTD SVG 20010904//EN"
 "http://www.w3.org/TR/2001/REC-SVG-20010904/DTD/svg10.dtd">
<svg version="1.0" xmlns="http://www.w3.org/2000/svg"
 width="209.000000pt" height="121.000000pt" viewBox="0 0 209.000000 121.000000"
 preserveAspectRatio="xMidYMid meet">
<metadata>
Created by potrace 1.16, written by Peter Selinger 2001-2019
</metadata>
<g transform="translate(0.000000,121.000000) scale(0.100000,-0.100000)"
fill="#000000" stroke="none">
<path d="M446 903 c-27 -3 -40 -10 -43 -24 -3 -10 -13 -19 -23 -19 -12 0 -24
-17 -39 -57 -54 -150 -54 -248 0 -380 l33 -81 81 -19 c98 -22 284 -23 363 -1
31 9 52 11 52 5 0 -10 623 -2 785 11 50 3 96 6 103 5 6 0 12 3 12 7 0 9 -212
69 -565 160 -258 66 -260 67 -263 95 -2 16 0 25 7 21 11 -7 301 64 616 150
247 68 236 64 205 76 -35 14 -880 24 -880 11 0 -6 -34 0 -77 15 -64 20 -100
25 -203 27 -69 2 -142 1 -164 -2z m164 -48 c0 -12 -18 -15 -102 -15 -105 0
-123 9 -40 21 90 12 142 10 142 -6z m222 -8 c43 -13 43 -13 54 -77 7 -36 12
-80 13 -97 1 -33 1 -33 -47 -33 -27 0 -83 3 -125 6 l-77 7 0 110 0 110 70 -7
c38 -4 89 -13 112 -19z m863 -14 c-11 -2 -85 -18 -165 -34 -80 -17 -239 -53
-353 -80 -115 -27 -215 -49 -222 -49 -12 0 -18 28 -28 135 -2 19 6 20 298 25
434 8 492 8 470 3z m-1090 -38 c0 -19 -6 -20 -113 -16 -102 3 -112 2 -112 -14
0 -17 9 -18 115 -11 l115 6 0 -55 0 -55 -136 0 c-124 0 -135 1 -130 18 3 9 10
37 16 60 25 96 20 93 139 90 98 -3 106 -4 106 -23z m295 -229 c0 -50 -24 -204
-34 -213 -6 -6 -177 -19 -203 -15 -22 3 -23 8 -23 91 0 49 3 109 6 134 8 54 6
54 152 56 l102 1 0 -54z m-287 -88 c4 -72 4 -134 2 -136 -6 -6 -151 22 -210
40 -45 14 -44 14 100 24 122 9 96 22 -46 23 -112 1 -108 -3 -116 109 l-6 72
135 0 135 0 6 -132z m612 -17 c143 -32 301 -67 350 -77 50 -10 95 -22 100 -27
6 -7 4 -8 -8 -4 -10 4 -188 10 -396 14 l-378 6 19 59 c10 33 18 69 18 80 0 14
5 18 18 14 9 -3 134 -32 277 -65z"/>
<path d="M370 706 c0 -14 14 -16 103 -16 56 0 109 5 117 10 10 7 -12 10 -71
10 -48 0 -101 3 -118 6 -24 5 -31 3 -31 -10z"/>
<path d="M350 555 c0 -17 14 -18 148 -9 50 4 89 10 87 14 -3 4 -57 8 -120 9
-98 2 -115 0 -115 -14z"/>
<path d="M360 495 c0 -12 16 -15 93 -14 137 2 172 13 67 22 -131 11 -160 9
-160 -8z"/>
</g>
</svg>
