<?xml version="1.0" standalone="no"?>
<!DOCTYPE svg PUBLIC "-//W3C//DTD SVG 20010904//EN"
 "http://www.w3.org/TR/2001/REC-SVG-20010904/DTD/svg10.dtd">
<svg version="1.0" xmlns="http://www.w3.org/2000/svg"
 width="194.000000pt" height="121.000000pt" viewBox="0 0 194.000000 121.000000"
 preserveAspectRatio="xMidYMid meet">
<metadata>
Created by potrace 1.16, written by Peter Selinger 2001-2019
</metadata>
<g transform="translate(0.000000,121.000000) scale(0.100000,-0.100000)"
fill="#000000" stroke="none">
<path d="M446 903 c-27 -3 -40 -10 -43 -24 -3 -10 -13 -19 -23 -19 -12 0 -24
-17 -39 -57 -54 -150 -54 -248 0 -379 l33 -82 76 -17 c102 -23 234 -30 300
-16 128 27 127 27 148 84 11 28 25 78 32 110 l12 58 54 -31 c113 -63 260 -137
287 -144 23 -5 44 4 120 50 154 95 237 154 237 168 0 13 -72 64 -238 168 -95
59 -112 66 -112 47 0 -5 -4 -8 -10 -4 -10 6 -151 -62 -263 -127 -38 -22 -70
-38 -72 -36 -1 1 -7 45 -13 97 -6 51 -13 94 -14 95 -2 1 -43 15 -93 30 -75 24
-110 29 -215 31 -69 2 -142 1 -164 -2z m164 -143 l0 -110 -136 0 c-124 0 -135
1 -130 18 3 9 8 31 12 47 4 17 17 53 30 82 26 60 44 67 177 72 l47 1 0 -110z
m183 96 c37 -7 72 -17 77 -22 9 -9 29 -126 30 -171 0 -21 -5 -23 -48 -23 -27
0 -83 3 -125 6 l-77 7 0 108 0 109 38 0 c20 -1 68 -7 105 -14z m638 -146 c89
-49 164 -92 167 -95 4 -3 -12 -4 -33 -1 -22 3 -160 5 -307 6 -148 1 -268 3
-268 5 0 2 28 19 63 39 34 19 96 58 137 86 41 27 76 50 78 50 1 0 75 -40 163
-90z m-531 -144 c0 -50 -24 -204 -34 -213 -6 -6 -177 -19 -203 -15 -22 3 -23
8 -23 85 0 45 3 105 6 134 8 61 4 60 152 62 l102 1 0 -54z m-286 -88 c3 -72 4
-133 1 -136 -5 -5 -143 20 -206 38 -43 12 -57 45 -66 158 l-6 72 135 0 135 0
7 -132z m996 117 c0 -2 -39 -25 -87 -49 -49 -24 -124 -66 -169 -93 l-81 -49
-98 63 c-54 34 -116 74 -139 87 l-41 25 65 2 c260 7 482 14 513 17 20 1 37 0
37 -3z"/>
</g>
</svg>
