<?xml version="1.0" standalone="no"?>
<!DOCTYPE svg PUBLIC "-//W3C//DTD SVG 20010904//EN"
 "http://www.w3.org/TR/2001/REC-SVG-20010904/DTD/svg10.dtd">
<svg version="1.0" xmlns="http://www.w3.org/2000/svg"
 width="148.000000pt" height="125.000000pt" viewBox="0 0 148.000000 125.000000"
 preserveAspectRatio="xMidYMid meet">
<metadata>
Created by potrace 1.16, written by Peter Selinger 2001-2019
</metadata>
<g transform="translate(0.000000,125.000000) scale(0.100000,-0.100000)"
fill="#000000" stroke="none">
<path d="M766 943 c-3 -4 -13 -8 -21 -9 -23 -3 -414 -249 -444 -280 -2 -2 2
-10 8 -18 9 -10 9 -16 1 -21 -6 -4 -10 -10 -8 -15 7 -18 413 -280 442 -284 6
-1 16 -5 23 -9 20 -13 413 290 413 318 0 16 -109 108 -278 233 -133 100 -126
95 -136 85z m187 -177 l189 -126 -101 0 -101 0 -37 49 c-41 54 -50 59 -60 35
-3 -9 6 -27 23 -45 l28 -29 -45 0 c-40 0 -48 4 -86 47 -34 40 -43 45 -48 31
-4 -11 1 -28 15 -45 l22 -28 -33 -3 c-29 -3 -39 3 -75 45 -36 41 -43 45 -49
30 -5 -12 0 -26 14 -41 28 -30 27 -36 -8 -36 -22 0 -38 10 -60 37 -17 21 -31
41 -31 45 0 4 53 47 117 97 93 71 119 87 127 76 6 -8 96 -70 199 -139z m-453
-86 l21 -30 -67 0 c-37 0 -65 3 -61 6 12 13 72 53 79 54 4 0 16 -13 28 -30z
m600 -100 c-36 -22 -68 -40 -72 -40 -4 0 -18 15 -32 33 l-26 32 48 6 c26 3 70
7 97 7 l50 2 -65 -40z m-131 -14 l43 -43 -37 -23 c-20 -12 -40 -19 -44 -14
-23 29 -79 101 -85 112 -5 9 4 12 36 12 38 0 49 -5 87 -44z m-329 -41 c40 -42
75 -74 77 -71 3 3 -20 36 -51 75 l-57 71 36 0 c31 0 44 -9 106 -75 40 -42 74
-73 77 -70 3 2 -19 35 -48 72 l-52 68 35 3 c31 3 41 -3 93 -58 33 -34 60 -65
62 -69 1 -5 -32 -32 -75 -61 -43 -29 -83 -59 -89 -67 -10 -11 -21 -6 -65 30
-30 24 -110 85 -178 135 l-124 92 90 0 90 0 73 -75z"/>
</g>
</svg>
