<?xml version="1.0" standalone="no"?>
<!DOCTYPE svg PUBLIC "-//W3C//DTD SVG 20010904//EN"
 "http://www.w3.org/TR/2001/REC-SVG-20010904/DTD/svg10.dtd">
<svg version="1.0" xmlns="http://www.w3.org/2000/svg"
 width="117.000000pt" height="157.000000pt" viewBox="0 0 117.000000 157.000000"
 preserveAspectRatio="xMidYMid meet">
<metadata>
Created by potrace 1.16, written by Peter Selinger 2001-2019
</metadata>
<g transform="translate(0.000000,157.000000) scale(0.100000,-0.100000)"
fill="#000000" stroke="none">
<path d="M584 1253 c-12 -10 -45 -36 -74 -58 -56 -43 -115 -121 -175 -228 -32
-59 -36 -73 -31 -111 12 -81 58 -157 150 -249 47 -48 86 -90 86 -93 0 -3 -21
-31 -46 -61 -44 -54 -84 -122 -84 -141 0 -6 51 -10 113 -11 106 -1 115 0 159
26 48 28 188 148 188 161 0 4 -28 25 -63 47 -69 45 -133 99 -148 126 -13 26
69 308 121 418 40 83 40 84 23 114 -30 51 -66 71 -136 74 -48 3 -67 0 -83 -14z
m152 -32 c23 -10 44 -24 48 -30 4 -5 -5 -33 -19 -60 -46 -91 -67 -154 -100
-301 -18 -80 -36 -152 -40 -161 -9 -24 69 -99 147 -139 38 -19 68 -38 68 -42
0 -12 -133 -114 -180 -139 -34 -17 -67 -24 -132 -27 -59 -3 -88 -1 -88 6 0 6
23 39 51 74 80 98 73 92 103 73 46 -30 28 -4 -57 84 -124 129 -164 184 -187
258 -11 36 -20 74 -20 85 0 25 107 181 158 231 21 21 61 53 88 72 57 40 99 44
160 16z"/>
</g>
</svg>
