<?xml version="1.0" standalone="no"?>
<!DOCTYPE svg PUBLIC "-//W3C//DTD SVG 20010904//EN"
 "http://www.w3.org/TR/2001/REC-SVG-20010904/DTD/svg10.dtd">
<svg version="1.0" xmlns="http://www.w3.org/2000/svg"
 width="154.000000pt" height="227.000000pt" viewBox="0 0 154.000000 227.000000"
 preserveAspectRatio="xMidYMid meet">
<metadata>
Created by potrace 1.16, written by Peter Selinger 2001-2019
</metadata>
<g transform="translate(0.000000,227.000000) scale(0.100000,-0.100000)"
fill="#000000" stroke="none">
<path d="M337 1963 c-20 -19 4 -35 116 -76 67 -25 142 -50 165 -57 35 -9 42
-15 37 -28 -19 -45 -45 -136 -45 -159 0 -13 -3 -23 -7 -21 -54 28 -134 60
-202 83 -68 22 -85 25 -92 14 -5 -8 -7 -75 -4 -149 3 -103 7 -135 17 -134 10
2 193 58 288 90 11 4 21 -7 33 -35 34 -77 101 -157 148 -176 65 -26 148 -31
203 -12 64 22 181 101 183 124 1 10 14 45 29 78 23 49 28 74 28 140 1 87 -22
168 -51 179 -25 10 -25 3 4 -60 19 -42 27 -75 27 -114 0 -51 -30 -161 -59
-220 -16 -31 -146 -99 -205 -107 l-43 -6 6 84 c4 46 7 178 7 293 l0 208 48 -7
c26 -3 80 -18 121 -31 82 -28 103 -26 44 4 -140 71 -264 80 -381 27 -35 -15
-67 -36 -73 -47 -9 -17 -11 -17 -49 2 -32 16 -278 120 -285 120 -1 0 -5 -3 -8
-7z m556 -555 c7 -105 7 -105 -99 -54 -69 33 -70 33 -108 115 -37 79 -38 85
-34 164 3 54 13 102 29 142 26 65 55 87 149 111 l45 11 7 -201 c3 -110 9 -240
11 -288z m-424 237 c62 -19 119 -35 126 -35 7 0 15 -14 17 -30 4 -25 1 -31
-16 -35 -12 -2 -75 -17 -141 -33 -66 -16 -120 -29 -120 -28 0 74 8 196 13 196
4 0 58 -16 121 -35z"/>
<path d="M800 911 c-30 -10 -70 -25 -89 -35 -29 -16 -51 -17 -187 -10 -154 7
-154 7 -154 -15 0 -22 2 -22 150 -19 131 3 149 1 143 -12 -3 -8 -16 -43 -27
-78 l-21 -62 -120 1 -120 1 -3 -147 -3 -147 164 7 164 8 23 -33 c35 -50 90
-70 190 -70 62 0 96 5 125 19 61 28 138 88 141 108 2 11 16 46 31 78 22 49 27
75 27 140 1 87 -22 168 -51 179 -25 10 -25 3 3 -59 35 -76 36 -146 5 -240 -13
-38 -30 -82 -37 -96 -17 -33 -165 -109 -213 -109 l-33 0 5 88 c4 48 6 178 7
290 l0 203 48 -7 c26 -4 80 -18 120 -31 85 -29 108 -23 36 8 -145 63 -223 73
-324 40z m94 -505 l5 -88 -31 6 c-39 8 -141 59 -145 73 -2 6 4 13 14 16 14 4
13 5 -5 6 -33 2 -82 107 -82 177 l0 51 53 8 52 8 -51 11 -52 11 17 55 c24 76
39 100 61 100 11 0 20 4 20 9 0 10 38 26 90 39 l35 8 7 -200 c3 -111 9 -241
12 -290z m-282 192 c2 -30 16 -77 31 -106 15 -30 27 -56 27 -58 0 -2 -61 -4
-135 -4 l-135 0 0 104 0 105 38 4 c20 2 67 4 103 5 l67 2 4 -52z"/>
</g>
</svg>
