<?xml version="1.0" standalone="no"?>
<!DOCTYPE svg PUBLIC "-//W3C//DTD SVG 20010904//EN"
 "http://www.w3.org/TR/2001/REC-SVG-20010904/DTD/svg10.dtd">
<svg version="1.0" xmlns="http://www.w3.org/2000/svg"
 width="77.000000pt" height="204.000000pt" viewBox="0 0 77.000000 204.000000"
 preserveAspectRatio="xMidYMid meet">
<metadata>
Created by potrace 1.16, written by Peter Selinger 2001-2019
</metadata>
<g transform="translate(0.000000,204.000000) scale(0.100000,-0.100000)"
fill="#000000" stroke="none">
<path d="M346 1723 c-3 -10 -15 -85 -26 -167 -21 -142 -21 -178 -17 -675 3
-289 8 -538 12 -553 13 -49 25 -19 25 63 0 66 -3 79 -16 79 -14 0 -16 8 -10
46 3 26 6 101 6 168 l1 121 28 -35 c42 -50 46 -33 7 26 -30 45 -32 54 -27 104
l6 55 19 -35 c10 -19 30 -50 43 -68 21 -28 28 -54 39 -155 8 -67 18 -140 23
-162 l9 -40 1 56 c1 30 -12 186 -29 345 -16 159 -32 334 -35 389 -4 55 -10
121 -15 147 -7 36 -5 67 10 135 23 105 25 133 6 133 -10 0 -18 -25 -27 -87
-15 -104 -17 -165 -6 -253 l8 -65 -30 52 c-17 29 -31 63 -31 75 0 13 11 73 24
133 38 171 39 185 22 185 -8 0 -17 -8 -20 -17z m17 -445 c17 -29 26 -63 29
-105 2 -35 3 -63 2 -63 -1 0 -16 26 -33 57 -22 41 -31 70 -31 105 0 26 2 48 4
48 2 0 15 -19 29 -42z m5 -171 c19 -34 32 -75 37 -113 3 -32 8 -77 11 -99 5
-38 4 -37 -40 39 -43 74 -46 83 -46 152 0 41 2 74 4 74 2 0 18 -24 34 -53z"/>
<path d="M423 476 c13 -11 17 -29 17 -89 0 -42 4 -78 9 -81 11 -7 21 52 21
127 l0 57 -32 0 c-30 -1 -31 -2 -15 -14z"/>
<path d="M380 385 c0 -85 12 -112 24 -54 3 17 6 56 6 85 0 41 -4 54 -15 54
-12 0 -15 -16 -15 -85z"/>
</g>
</svg>
