<?xml version="1.0" standalone="no"?>
<!DOCTYPE svg PUBLIC "-//W3C//DTD SVG 20010904//EN"
 "http://www.w3.org/TR/2001/REC-SVG-20010904/DTD/svg10.dtd">
<svg version="1.0" xmlns="http://www.w3.org/2000/svg"
 width="115.000000pt" height="156.000000pt" viewBox="0 0 115.000000 156.000000"
 preserveAspectRatio="xMidYMid meet">
<metadata>
Created by potrace 1.16, written by Peter Selinger 2001-2019
</metadata>
<g transform="translate(0.000000,156.000000) scale(0.100000,-0.100000)"
fill="#000000" stroke="none">
<path d="M385 1242 c-97 -33 -97 -30 -22 -116 124 -142 207 -270 207 -319 0
-42 -37 -129 -93 -219 l-52 -83 20 -37 20 -38 -24 -17 c-14 -10 -29 -21 -33
-24 -32 -21 -6 -89 34 -89 16 0 15 4 -9 24 l-28 24 29 31 c17 17 33 31 37 31
4 0 16 -16 27 -35 l21 -34 -26 -21 -26 -20 26 0 c32 0 44 30 27 71 -15 35 -9
53 24 74 23 15 29 15 85 -5 80 -30 100 -20 31 15 -30 15 -57 29 -58 31 -2 1
12 19 32 38 l36 36 60 -20 c32 -11 62 -20 66 -20 17 0 -20 29 -58 45 -24 11
-44 20 -46 21 -2 1 7 22 19 47 22 46 23 46 53 33 92 -38 119 -23 32 17 l-54
25 -7 59 c-6 64 -24 168 -31 187 -3 7 21 24 56 41 33 16 60 32 60 37 0 11 2
11 -65 -12 -32 -11 -61 -20 -65 -20 -3 0 -14 16 -23 35 l-17 36 42 18 c47 21
89 50 72 51 -5 0 -38 -10 -73 -21 l-63 -21 -20 20 -20 20 58 27 c71 34 51 45
-26 16 l-52 -20 -49 42 c-27 23 -49 45 -49 50 0 11 -30 7 -85 -11z m155 -102
c32 -31 72 -78 89 -105 38 -60 76 -177 85 -260 6 -53 3 -67 -23 -122 -30 -63
-162 -213 -187 -213 -8 0 -23 18 -33 39 l-20 39 34 45 c54 71 104 170 111 218
5 38 1 54 -33 120 -41 79 -106 170 -177 248 l-40 45 39 17 c37 16 41 17 68 1
16 -9 55 -42 87 -72z"/>
</g>
</svg>
