<?xml version="1.0" standalone="no"?>
<!DOCTYPE svg PUBLIC "-//W3C//DTD SVG 20010904//EN"
 "http://www.w3.org/TR/2001/REC-SVG-20010904/DTD/svg10.dtd">
<svg version="1.0" xmlns="http://www.w3.org/2000/svg"
 width="127.000000pt" height="138.000000pt" viewBox="0 0 127.000000 138.000000"
 preserveAspectRatio="xMidYMid meet">
<metadata>
Created by potrace 1.16, written by Peter Selinger 2001-2019
</metadata>
<g transform="translate(0.000000,138.000000) scale(0.100000,-0.100000)"
fill="#000000" stroke="none">
<path d="M920 1056 c-19 -13 -109 -69 -199 -125 l-164 -101 -122 0 c-103 0
-124 -3 -129 -16 -8 -20 -8 -222 0 -252 6 -22 8 -23 118 -16 l111 6 75 -47
c90 -57 347 -205 355 -205 3 0 5 176 5 390 0 215 -3 390 -7 389 -5 0 -24 -11
-43 -23z m17 -242 c-1 -2 -13 0 -26 3 l-24 6 24 19 c21 17 21 19 4 13 -50 -16
-74 -15 -134 7 l-64 24 109 76 109 75 3 -110 c1 -60 1 -111 -1 -113z m-178 33
l61 -23 -86 -28 c-71 -23 -90 -26 -116 -17 -37 13 -51 5 -25 -14 16 -12 15
-14 -13 -24 -17 -6 -29 -15 -26 -20 4 -6 23 -4 50 6 43 16 46 16 130 -12 47
-16 82 -32 78 -36 -4 -4 -42 -18 -85 -32 -73 -24 -80 -25 -119 -11 -47 16 -58
17 -58 5 0 -5 15 -15 33 -21 24 -10 27 -14 15 -17 -10 -3 -18 -9 -18 -15 0 -6
11 -7 28 -3 15 4 32 8 37 9 15 2 165 -48 165 -55 0 -3 -27 -14 -59 -24 l-60
-18 -78 51 -78 50 1 83 0 84 75 52 c41 29 77 52 80 53 4 0 34 -10 68 -23z
m179 -57 c1 0 2 -15 2 -34 0 -31 -4 -35 -43 -49 -40 -14 -46 -13 -125 16 -45
16 -81 32 -78 34 2 3 37 17 78 32 68 26 76 27 118 14 25 -7 46 -13 48 -13z
m-432 -196 c-5 -19 -11 -20 -93 -16 -49 2 -88 5 -89 6 0 0 1 49 4 108 l4 107
82 3 81 3 8 -95 c4 -52 5 -104 3 -116z m437 86 c6 -23 7 -23 -30 -9 -22 8 -24
12 -13 19 23 15 37 12 43 -10z m-42 -21 c30 -9 39 -18 45 -41 7 -36 2 -42 -56
-57 -41 -11 -52 -9 -125 18 l-80 29 35 15 c130 52 127 52 181 36z m49 -215 l0
-116 -27 18 c-94 60 -193 129 -193 134 0 3 27 15 60 27 49 18 66 20 91 11 16
-6 33 -7 37 -4 3 4 -5 10 -18 13 l-25 7 30 12 c17 7 33 13 38 14 4 0 7 -52 7
-116z"/>
</g>
</svg>
