<?xml version="1.0" standalone="no"?>
<!DOCTYPE svg PUBLIC "-//W3C//DTD SVG 20010904//EN"
 "http://www.w3.org/TR/2001/REC-SVG-20010904/DTD/svg10.dtd">
<svg version="1.0" xmlns="http://www.w3.org/2000/svg"
 width="143.000000pt" height="140.000000pt" viewBox="0 0 143.000000 140.000000"
 preserveAspectRatio="xMidYMid meet">
<metadata>
Created by potrace 1.16, written by Peter Selinger 2001-2019
</metadata>
<g transform="translate(0.000000,140.000000) scale(0.100000,-0.100000)"
fill="#000000" stroke="none">
<path d="M600 1082 c0 -23 53 -74 104 -99 l39 -20 -47 -33 c-25 -18 -46 -37
-46 -42 0 -17 22 -6 64 32 l44 41 69 -7 c37 -4 76 -10 85 -13 12 -4 -39 -31
-153 -80 -95 -41 -179 -83 -189 -93 -17 -18 -20 -18 -122 12 -58 16 -113 30
-122 30 -14 0 -16 -14 -16 -94 0 -52 -3 -101 -6 -110 -10 -25 22 -20 145 22
83 29 111 35 111 25 0 -13 39 -33 300 -154 58 -27 98 -49 90 -49 -8 0 -54 -5
-103 -11 l-87 -11 -46 41 c-26 23 -51 41 -55 41 -19 0 -6 -17 37 -49 l46 -35
-44 -22 c-23 -12 -58 -38 -77 -58 -40 -41 -32 -49 45 -44 45 3 51 6 86 53 40
54 50 58 146 69 l64 7 -31 -45 c-33 -47 -36 -56 -22 -56 5 0 23 22 41 50 18
27 39 50 49 50 9 0 36 -9 60 -21 25 -11 48 -16 52 -12 9 9 17 613 8 613 -3 0
-33 -11 -67 -25 -34 -14 -63 -25 -66 -25 -2 0 -18 23 -36 50 -18 28 -36 50
-41 50 -14 0 -11 -9 22 -57 l32 -46 -49 7 c-126 17 -123 16 -154 61 -40 59
-66 75 -117 75 -35 0 -43 -3 -43 -18z m90 -17 c27 -14 74 -64 67 -72 -7 -6
-71 24 -99 47 -48 37 -26 55 32 25z m400 -182 c0 -54 3 -183 7 -286 l6 -188
-27 13 c-25 11 -26 13 -9 19 14 6 11 8 -12 8 -27 0 -333 139 -334 151 -1 3 28
14 64 24 36 10 68 23 72 29 4 6 -3 8 -18 4 -145 -38 -162 -40 -209 -19 l-45
21 3 49 4 50 191 87 c129 59 210 90 247 95 33 4 43 8 25 9 l-30 2 25 14 c14 8
28 14 33 15 4 0 7 -44 7 -97z m-617 -138 c76 -16 87 -21 87 -39 0 -18 -14 -25
-103 -49 -56 -16 -108 -31 -114 -34 -10 -3 -13 15 -13 72 l0 77 28 -4 c15 -3
66 -13 115 -23z m275 -367 c-19 -30 -76 -68 -99 -68 -39 0 -13 33 56 69 51 27
61 27 43 -1z"/>
<path d="M870 821 c0 -14 23 -20 107 -27 97 -8 91 2 -11 21 -91 18 -96 18 -96
6z"/>
<path d="M737 760 c-71 -19 -85 -26 -74 -37 8 -7 156 37 163 49 7 12 -13 9
-89 -12z"/>
<path d="M866 772 c-9 -15 2 -19 74 -27 36 -3 73 -9 83 -11 9 -3 17 -1 17 4 0
5 -28 15 -62 21 -35 7 -73 15 -84 18 -12 2 -25 0 -28 -5z"/>
<path d="M728 702 c-36 -10 -58 -21 -58 -30 0 -8 6 -12 14 -9 7 3 46 15 85 27
39 11 71 23 71 25 0 9 -56 3 -112 -13z"/>
<path d="M860 701 c0 -5 21 -12 48 -15 26 -4 66 -9 90 -13 71 -9 47 13 -27 26
-84 13 -111 14 -111 2z"/>
<path d="M865 620 c-8 -13 5 -17 95 -28 71 -9 90 -8 79 3 -4 3 -153 35 -166
35 -1 0 -5 -5 -8 -10z"/>
</g>
</svg>
