<?xml version="1.0" standalone="no"?>
<!DOCTYPE svg PUBLIC "-//W3C//DTD SVG 20010904//EN"
 "http://www.w3.org/TR/2001/REC-SVG-20010904/DTD/svg10.dtd">
<svg version="1.0" xmlns="http://www.w3.org/2000/svg"
 width="127.000000pt" height="230.000000pt" viewBox="0 0 127.000000 230.000000"
 preserveAspectRatio="xMidYMid meet">
<metadata>
Created by potrace 1.16, written by Peter Selinger 2001-2019
</metadata>
<g transform="translate(0.000000,230.000000) scale(0.100000,-0.100000)"
fill="#000000" stroke="none">
<path d="M742 1853 c-165 -109 -219 -150 -211 -159 22 -27 -29 -18 -115 19
-69 29 -91 35 -102 26 -21 -17 -20 -257 1 -265 8 -3 57 17 110 45 l95 51 0
-30 c0 -21 5 -30 16 -30 8 0 57 -31 107 -68 112 -83 313 -222 320 -222 4 0 6
176 7 390 0 215 -1 390 -3 390 -2 0 -104 -66 -225 -147z m203 -252 l7 -355
-44 35 c-80 65 -205 164 -234 186 l-29 21 58 26 c71 32 76 53 5 25 -83 -33
-85 -33 -128 -3 -35 25 -40 33 -35 58 3 16 5 40 5 55 0 22 23 42 158 138 86
62 173 125 192 142 19 16 36 28 36 28 1 -1 5 -161 9 -356z m-437 43 c2 -1 5
-13 8 -28 3 -19 0 -28 -13 -33 -10 -3 -56 -23 -102 -44 l-84 -39 7 38 c3 20 6
67 6 104 l0 66 88 -31 c48 -17 88 -31 90 -33z"/>
<path d="M772 1758 c4 -11 97 -36 137 -38 29 0 -4 18 -58 34 -66 19 -84 20
-79 4z"/>
<path d="M666 1686 c-53 -20 -85 -46 -57 -46 18 0 131 53 131 61 0 12 -7 11
-74 -15z"/>
<path d="M765 1700 c-8 -12 26 -26 94 -38 69 -13 65 4 -6 23 -32 9 -63 18 -70
20 -7 2 -15 0 -18 -5z"/>
<path d="M663 1613 c-61 -26 -80 -43 -48 -43 17 0 135 57 135 65 0 10 -27 3
-87 -22z"/>
<path d="M765 1620 c-8 -13 12 -22 79 -36 57 -12 77 -11 64 1 -12 12 -138 43
-143 35z"/>
<path d="M764 1509 c-8 -14 -7 -15 71 -32 65 -15 87 -15 72 -1 -14 14 -137 42
-143 33z"/>
<path d="M895 1041 c-33 -21 -123 -77 -199 -124 l-140 -87 -122 0 c-102 0
-123 -3 -128 -16 -8 -20 -8 -222 0 -251 6 -21 9 -21 114 -16 l109 6 178 -105
c208 -122 253 -148 259 -148 2 0 4 176 4 390 0 215 -3 390 -7 389 -5 0 -35
-17 -68 -38z m50 -360 c6 -293 4 -352 -7 -345 -7 4 -47 30 -88 58 -41 29 -130
87 -198 130 l-123 79 4 77 c5 88 12 107 32 90 9 -8 37 -9 85 -4 86 8 75 24
-17 24 l-63 0 183 124 c100 68 183 123 183 122 1 0 5 -160 9 -355z m-441 25
c3 -57 4 -110 1 -118 -5 -12 -23 -14 -93 -10 -48 2 -87 5 -88 6 0 0 1 49 4
108 l4 107 77 4 c42 1 79 4 82 5 3 1 9 -45 13 -102z"/>
<path d="M760 890 c0 -6 32 -10 75 -10 43 0 75 4 75 10 0 6 -32 10 -75 10 -43
0 -75 -4 -75 -10z"/>
<path d="M760 845 c0 -12 12 -15 53 -14 28 1 63 4 77 8 23 7 21 8 -15 14 -70
12 -115 9 -115 -8z"/>
<path d="M750 791 c0 -6 4 -12 9 -16 15 -8 151 7 145 16 -7 12 -154 11 -154 0z"/>
<path d="M567 744 c-4 -4 -7 -11 -7 -16 0 -12 148 -10 155 2 4 6 -16 10 -54
10 -32 0 -66 2 -73 5 -8 3 -17 2 -21 -1z"/>
<path d="M760 715 c0 -17 17 -18 97 -9 73 9 56 24 -28 24 -55 0 -69 -3 -69
-15z"/>
<path d="M560 675 c0 -12 13 -15 58 -14 31 0 66 4 76 8 18 7 18 8 -5 14 -13 4
-48 7 -76 7 -41 0 -53 -4 -53 -15z"/>
<path d="M760 645 c0 -17 17 -18 98 -8 70 8 48 23 -35 23 -49 0 -63 -3 -63
-15z"/>
<path d="M570 605 c0 -12 12 -15 53 -14 28 1 63 4 77 8 23 7 21 8 -15 14 -70
12 -115 9 -115 -8z"/>
<path d="M760 600 c0 -6 32 -10 75 -10 43 0 75 4 75 10 0 6 -32 10 -75 10 -43
0 -75 -4 -75 -10z"/>
<path d="M760 545 c0 -12 13 -15 58 -14 31 0 66 4 77 8 15 6 11 9 -20 14 -70
12 -115 9 -115 -8z"/>
<path d="M767 483 c-17 -17 -2 -23 56 -23 80 0 106 15 41 24 -60 8 -89 8 -97
-1z"/>
</g>
</svg>
