<?xml version="1.0" standalone="no"?>
<!DOCTYPE svg PUBLIC "-//W3C//DTD SVG 20010904//EN"
 "http://www.w3.org/TR/2001/REC-SVG-20010904/DTD/svg10.dtd">
<svg version="1.0" xmlns="http://www.w3.org/2000/svg"
 width="161.000000pt" height="117.000000pt" viewBox="0 0 161.000000 117.000000"
 preserveAspectRatio="xMidYMid meet">
<metadata>
Created by potrace 1.16, written by Peter Selinger 2001-2019
</metadata>
<g transform="translate(0.000000,117.000000) scale(0.100000,-0.100000)"
fill="#000000" stroke="none">
<path d="M311 862 c-12 -8 -13 -54 -8 -276 3 -146 9 -271 13 -277 5 -9 122
-11 492 -6 267 4 487 8 489 10 9 10 15 534 6 540 -18 11 -977 19 -992 9z m953
-189 c3 -93 9 -208 12 -257 l6 -89 -119 6 c-65 4 -235 7 -378 7 l-260 0 3 238
c2 130 5 238 6 238 0 1 143 6 316 11 173 5 336 10 361 11 l47 2 6 -167z m-771
125 c3 -13 7 -102 8 -198 1 -96 2 -193 3 -214 l1 -39 -85 2 c-47 1 -85 3 -86
4 0 1 1 107 4 235 l4 232 73 0 c67 0 73 -2 78 -22z"/>
<path d="M630 636 c0 -91 4 -146 10 -146 6 0 11 51 12 130 0 72 1 135 2 142 1
6 -5 13 -11 16 -10 3 -13 -30 -13 -142z"/>
<path d="M720 648 c0 -162 14 -198 23 -61 11 157 9 193 -8 193 -13 0 -15 -21
-15 -132z"/>
<path d="M810 636 c0 -91 4 -146 10 -146 6 0 11 51 12 130 0 72 1 135 2 142 1
6 -5 13 -11 16 -10 3 -13 -30 -13 -142z"/>
<path d="M908 773 c-8 -16 4 -283 13 -283 5 0 9 65 9 145 0 84 -4 145 -9 145
-6 0 -11 -3 -13 -7z"/>
<path d="M1020 635 c0 -90 4 -145 10 -145 6 0 10 55 10 145 0 90 -4 145 -10
145 -6 0 -10 -55 -10 -145z"/>
</g>
</svg>
