<?xml version="1.0" standalone="no"?>
<!DOCTYPE svg PUBLIC "-//W3C//DTD SVG 20010904//EN"
 "http://www.w3.org/TR/2001/REC-SVG-20010904/DTD/svg10.dtd">
<svg version="1.0" xmlns="http://www.w3.org/2000/svg"
 width="161.000000pt" height="117.000000pt" viewBox="0 0 161.000000 117.000000"
 preserveAspectRatio="xMidYMid meet">
<metadata>
Created by potrace 1.16, written by Peter Selinger 2001-2019
</metadata>
<g transform="translate(0.000000,117.000000) scale(0.100000,-0.100000)"
fill="#000000" stroke="none">
<path d="M311 862 c-12 -8 -13 -54 -8 -276 3 -146 9 -271 13 -277 5 -9 122
-11 492 -6 267 4 487 8 489 10 9 10 15 534 6 540 -18 11 -977 19 -992 9z m949
-102 l0 -80 -315 0 -315 0 0 70 0 70 78 1 c64 1 280 9 505 17 l47 2 0 -80z
m-860 -47 c0 -60 3 -165 7 -235 l6 -128 -43 0 -43 0 7 61 c3 34 6 140 6 235
l0 174 30 0 30 0 0 -107z m94 55 c3 -29 7 -136 9 -238 l3 -185 -39 4 -40 3 7
106 c3 58 6 163 6 234 l0 128 24 0 c22 0 25 -5 30 -52z m96 -66 c0 -66 3 -174
7 -240 l6 -122 -43 0 -43 0 7 53 c3 28 6 136 6 240 l0 187 30 0 30 0 0 -118z
m678 -111 l3 -64 -53 6 c-29 4 -111 7 -183 7 l-130 0 3 55 4 54 111 4 c62 2
141 3 177 3 l65 -1 3 -64z m-568 27 c0 -18 3 -43 6 -55 6 -22 3 -23 -41 -23
l-47 0 6 31 c3 17 6 42 6 55 0 21 5 24 35 24 33 0 35 -2 35 -32z m90 15 c0
-10 3 -35 6 -55 l7 -38 -39 0 -39 0 3 55 c4 53 5 55 33 55 21 0 29 -5 29 -17z
m90 -7 c0 -13 3 -38 6 -55 6 -30 6 -31 -30 -31 l-36 0 0 55 c0 54 0 55 30 55
25 0 30 -4 30 -24z m394 -197 c4 -50 6 -93 4 -94 -2 -1 -151 0 -333 3 l-330 5
3 83 3 84 292 3 c161 1 306 3 323 5 l31 2 7 -91z"/>
</g>
</svg>
