<?xml version="1.0" standalone="no"?>
<!DOCTYPE svg PUBLIC "-//W3C//DTD SVG 20010904//EN"
 "http://www.w3.org/TR/2001/REC-SVG-20010904/DTD/svg10.dtd">
<svg version="1.0" xmlns="http://www.w3.org/2000/svg"
 width="172.000000pt" height="206.000000pt" viewBox="0 0 172.000000 206.000000"
 preserveAspectRatio="xMidYMid meet">
<metadata>
Created by potrace 1.16, written by Peter Selinger 2001-2019
</metadata>
<g transform="translate(0.000000,206.000000) scale(0.100000,-0.100000)"
fill="#000000" stroke="none">
<path d="M372 1663 c-22 -54 -48 -122 -58 -151 l-19 -54 70 -135 70 -136 185
2 c102 1 314 6 472 11 158 5 293 7 301 4 16 -6 27 151 27 397 l0 146 -242 6
c-133 4 -359 7 -503 7 l-263 0 -40 -97z m1002 -90 c4 -87 9 -200 12 -252 l6
-94 -243 6 c-133 4 -343 7 -466 7 l-223 0 0 174 c0 95 3 201 6 235 l7 61 181
1 c100 1 271 5 381 9 110 3 230 7 266 8 l67 2 6 -157z m-939 -330 c-1 -2 -24
48 -51 110 -28 61 -56 111 -62 110 -7 -2 14 49 46 113 l57 115 6 -223 c3 -123
5 -224 4 -225z"/>
<path d="M567 1673 c-8 -14 5 -163 14 -163 5 0 9 38 9 85 0 74 -8 103 -23 78z"/>
<path d="M665 1670 c-9 -14 6 -160 16 -160 5 0 9 38 9 85 0 77 -8 102 -25 75z"/>
<path d="M750 1601 c0 -44 4 -82 9 -85 11 -7 26 137 17 153 -17 28 -26 5 -26
-68z"/>
<path d="M836 1673 c-8 -8 -8 -91 1 -134 5 -28 7 -30 14 -14 11 28 11 143 0
149 -4 3 -11 3 -15 -1z"/>
<path d="M921 1623 c1 -32 5 -71 9 -88 l7 -30 7 35 c10 50 3 133 -11 138 -10
3 -13 -12 -12 -55z"/>
<path d="M1030 1595 c0 -50 4 -85 10 -85 6 0 10 35 10 85 0 50 -4 85 -10 85
-6 0 -10 -35 -10 -85z"/>
<path d="M1139 1676 c-8 -8 3 -166 12 -166 5 0 9 38 9 85 0 74 -6 96 -21 81z"/>
<path d="M1194 1449 c-9 -16 6 -160 17 -153 12 7 12 164 0 164 -6 0 -13 -5
-17 -11z"/>
<path d="M530 1371 c0 -44 5 -83 10 -86 6 -4 10 7 10 27 0 18 3 57 6 86 6 44
4 52 -10 52 -13 0 -16 -12 -16 -79z"/>
<path d="M630 1370 c0 -47 4 -80 10 -80 6 0 10 33 10 80 0 47 -4 80 -10 80 -6
0 -10 -33 -10 -80z"/>
<path d="M710 1418 c0 -18 3 -57 7 -86 8 -74 23 -46 23 46 0 57 -3 72 -15 72
-10 0 -15 -10 -15 -32z"/>
<path d="M798 1443 c-8 -16 4 -153 13 -153 5 0 9 36 9 80 0 44 -4 80 -9 80 -6
0 -11 -3 -13 -7z"/>
<path d="M888 1443 c-8 -16 4 -153 13 -153 5 0 9 36 9 80 0 44 -4 80 -9 80 -6
0 -11 -3 -13 -7z"/>
<path d="M990 1378 c0 -92 15 -120 23 -46 11 87 9 118 -8 118 -12 0 -15 -15
-15 -72z"/>
<path d="M1100 1371 c0 -44 5 -83 10 -86 6 -4 10 8 11 27 1 18 3 57 5 86 3 41
0 52 -11 52 -12 0 -15 -16 -15 -79z"/>
<path d="M423 872 c-21 -14 -111 -231 -118 -287 -3 -22 13 -62 62 -155 l66
-125 196 2 c108 2 327 6 487 9 l291 6 7 121 c3 66 6 186 6 268 l0 147 -162 6
c-310 11 -823 16 -835 8z m951 -179 c4 -81 9 -193 12 -249 l6 -101 -394 5
c-216 2 -433 7 -481 11 l-88 6 -47 107 c-26 59 -51 108 -57 108 -5 0 17 56 50
125 l60 125 315 2 c173 2 383 4 466 6 l152 3 6 -148z"/>
<path d="M567 783 c-8 -15 5 -163 14 -157 12 7 12 164 0 164 -6 0 -12 -3 -14
-7z"/>
<path d="M664 729 c3 -34 6 -73 6 -86 0 -14 4 -21 10 -18 6 3 10 42 10 86 0
67 -3 79 -16 79 -15 0 -16 -9 -10 -61z"/>
<path d="M750 711 c0 -96 15 -114 24 -29 9 91 8 108 -9 108 -12 0 -15 -15 -15
-79z"/>
<path d="M830 751 c0 -21 3 -60 7 -87 9 -65 21 -32 22 59 1 53 -2 67 -14 67
-11 0 -15 -11 -15 -39z"/>
<path d="M920 743 c0 -27 3 -66 7 -88 9 -56 21 -19 22 68 1 53 -2 67 -14 67
-11 0 -15 -12 -15 -47z"/>
<path d="M1030 705 c0 -50 4 -85 10 -85 6 0 10 35 10 85 0 50 -4 85 -10 85 -6
0 -10 -35 -10 -85z"/>
<path d="M1139 786 c-9 -9 3 -166 12 -161 11 8 12 165 1 165 -5 0 -11 -2 -13
-4z"/>
<path d="M530 491 c0 -44 4 -82 9 -85 10 -6 25 140 16 154 -16 27 -25 3 -25
-69z"/>
<path d="M630 486 c0 -51 4 -86 10 -86 6 0 10 32 10 75 0 41 0 78 1 82 0 4 -4
9 -10 11 -7 2 -11 -25 -11 -82z"/>
<path d="M717 563 c-15 -14 -1 -167 14 -157 11 7 12 164 1 164 -5 0 -12 -3
-15 -7z"/>
<path d="M798 563 c-8 -17 4 -163 13 -163 5 0 9 38 9 85 0 47 -4 85 -9 85 -6
0 -11 -3 -13 -7z"/>
<path d="M887 563 c-7 -15 5 -163 14 -163 5 0 9 38 9 85 0 73 -9 104 -23 78z"/>
<path d="M991 491 c1 -45 5 -84 10 -86 8 -6 23 111 18 140 -2 10 -10 20 -17
23 -10 3 -13 -14 -11 -77z"/>
<path d="M1100 491 c0 -44 5 -83 10 -86 6 -4 10 9 11 32 1 21 2 58 3 82 0 28
-4 46 -11 48 -10 4 -13 -16 -13 -76z"/>
</g>
</svg>
