<?xml version="1.0" standalone="no"?>
<!DOCTYPE svg PUBLIC "-//W3C//DTD SVG 20010904//EN"
 "http://www.w3.org/TR/2001/REC-SVG-20010904/DTD/svg10.dtd">
<svg version="1.0" xmlns="http://www.w3.org/2000/svg"
 width="173.000000pt" height="89.000000pt" viewBox="0 0 173.000000 89.000000"
 preserveAspectRatio="xMidYMid meet">
<metadata>
Created by potrace 1.16, written by Peter Selinger 2001-2019
</metadata>
<g transform="translate(0.000000,89.000000) scale(0.100000,-0.100000)"
fill="#000000" stroke="none">
<path d="M304 576 c-8 -21 28 -85 79 -142 93 -103 199 -134 458 -134 90 0 159
4 159 9 0 5 -3 11 -7 13 -5 2 -6 56 -5 121 l4 117 213 0 c118 0 216 4 219 8 7
11 -216 22 -451 22 -156 0 -183 -2 -183 -15 0 -8 -5 -15 -12 -15 -8 0 -9 -31
-4 -115 l6 -115 -27 0 c-45 0 -204 30 -240 45 -50 21 -136 108 -164 164 -25
52 -36 61 -45 37z m536 -135 c0 -117 0 -119 -21 -114 -20 6 -21 10 -15 81 3
41 6 92 6 114 0 27 4 38 15 38 12 0 15 -20 15 -119z m68 -4 l3 -117 -27 0
c-22 0 -25 3 -20 23 3 12 6 66 6 120 0 88 2 98 18 95 15 -3 17 -18 20 -121z
m54 3 c3 -112 2 -120 -16 -120 -17 0 -18 5 -12 53 3 28 6 82 6 120 0 117 19
72 22 -53z"/>
</g>
</svg>
