<?xml version="1.0" standalone="no"?>
<!DOCTYPE svg PUBLIC "-//W3C//DTD SVG 20010904//EN"
 "http://www.w3.org/TR/2001/REC-SVG-20010904/DTD/svg10.dtd">
<svg version="1.0" xmlns="http://www.w3.org/2000/svg"
 width="102.000000pt" height="173.000000pt" viewBox="0 0 102.000000 173.000000"
 preserveAspectRatio="xMidYMid meet">
<metadata>
Created by potrace 1.16, written by Peter Selinger 2001-2019
</metadata>
<g transform="translate(0.000000,173.000000) scale(0.100000,-0.100000)"
fill="#000000" stroke="none">
<path d="M650 1404 c-92 -52 -158 -136 -187 -236 -19 -69 -31 -414 -14 -431 8
-8 11 -2 11 24 l0 34 121 2 c118 3 120 2 117 -18 -3 -21 -8 -22 -115 -20 -98
2 -113 0 -113 -14 0 -14 15 -16 113 -14 l112 2 3 -217 c1 -133 6 -216 12 -216
6 0 10 117 10 319 l0 319 -125 7 c-120 7 -125 8 -125 29 0 51 33 214 51 252
24 51 98 125 155 156 24 12 44 29 44 35 0 19 -20 16 -70 -13z m50 -499 c0 -12
-19 -15 -115 -15 -127 0 -159 17 -42 23 39 1 91 4 115 5 31 2 42 -2 42 -13z
m0 -60 l0 -25 -120 2 c-105 3 -120 5 -120 20 0 15 14 18 103 21 56 1 110 4
120 5 12 1 17 -5 17 -23z"/>
<path d="M300 1035 c0 -12 13 -15 59 -15 68 0 89 14 33 24 -63 10 -92 7 -92
-9z"/>
<path d="M300 995 c0 -11 12 -15 53 -15 65 0 93 14 47 24 -58 11 -100 7 -100
-9z"/>
<path d="M300 945 c0 -16 62 -21 109 -8 23 6 23 7 5 14 -10 4 -40 8 -66 8 -36
1 -48 -3 -48 -14z"/>
<path d="M300 895 c0 -17 15 -18 83 -9 64 9 49 24 -24 24 -46 0 -59 -3 -59
-15z"/>
<path d="M307 854 c-14 -14 6 -24 48 -24 55 0 82 9 63 21 -15 10 -102 12 -111
3z"/>
</g>
</svg>
