<?xml version="1.0" standalone="no"?>
<!DOCTYPE svg PUBLIC "-//W3C//DTD SVG 20010904//EN"
 "http://www.w3.org/TR/2001/REC-SVG-20010904/DTD/svg10.dtd">
<svg version="1.0" xmlns="http://www.w3.org/2000/svg"
 width="89.000000pt" height="173.000000pt" viewBox="0 0 89.000000 173.000000"
 preserveAspectRatio="xMidYMid meet">
<metadata>
Created by potrace 1.16, written by Peter Selinger 2001-2019
</metadata>
<g transform="translate(0.000000,173.000000) scale(0.100000,-0.100000)"
fill="#000000" stroke="none">
<path d="M495 1392 c-160 -103 -195 -209 -195 -590 l0 -204 130 7 130 8 0
-157 c0 -86 4 -156 8 -156 12 0 22 211 22 447 0 174 -2 192 -17 197 -10 3 -67
8 -128 11 -60 3 -110 7 -111 8 -8 9 29 216 46 256 26 58 105 138 167 167 42
19 51 36 22 42 -8 1 -42 -15 -74 -36z m65 -488 c0 -20 -4 -25 -16 -20 -9 3
-60 6 -115 6 -80 0 -99 3 -99 15 0 14 31 18 173 23 55 2 57 1 57 -24z m0 -59
l0 -26 -117 3 c-97 2 -118 6 -118 18 0 12 21 16 105 21 58 3 111 6 118 7 7 1
12 -9 12 -23z m0 -62 c0 -16 -11 -18 -120 -15 -66 2 -120 7 -120 12 0 5 37 11
83 13 45 1 99 4 120 5 29 2 37 -2 37 -15z m0 -53 c0 -19 -7 -20 -120 -20 -99
0 -120 3 -120 15 0 11 21 15 108 18 59 1 113 4 120 5 6 1 12 -7 12 -18z m0
-71 l0 -32 -61 7 c-34 3 -88 6 -120 6 -52 0 -59 2 -59 20 0 17 8 20 83 23 45
1 99 4 120 5 35 2 37 1 37 -29z"/>
</g>
</svg>
