<?xml version="1.0" standalone="no"?>
<!DOCTYPE svg PUBLIC "-//W3C//DTD SVG 20010904//EN"
 "http://www.w3.org/TR/2001/REC-SVG-20010904/DTD/svg10.dtd">
<svg version="1.0" xmlns="http://www.w3.org/2000/svg"
 width="150.000000pt" height="152.000000pt" viewBox="0 0 150.000000 152.000000"
 preserveAspectRatio="xMidYMid meet">
<metadata>
Created by potrace 1.16, written by Peter Selinger 2001-2019
</metadata>
<g transform="translate(0.000000,152.000000) scale(0.100000,-0.100000)"
fill="#000000" stroke="none">
<path d="M685 1200 c-17 -19 -18 -43 -12 -447 l7 -427 -51 49 c-28 28 -105
116 -171 198 -67 81 -124 147 -128 147 -4 0 -13 -6 -19 -13 -8 -11 14 -43 97
-143 129 -154 273 -282 290 -259 4 6 59 56 122 111 63 56 175 165 249 243 112
118 131 144 121 156 -7 8 -17 15 -22 15 -6 0 -45 32 -87 72 -75 70 -366 318
-374 318 -2 0 -12 -9 -22 -20z m249 -218 c114 -90 206 -168 206 -173 0 -4 -33
-44 -72 -89 -72 -78 -74 -80 -120 -80 -36 0 -48 -4 -48 -15 0 -10 10 -15 31
-15 l30 0 -21 -27 c-12 -16 -72 -79 -132 -141 l-111 -114 6 153 c4 84 7 269 7
411 0 159 4 258 9 256 6 -1 102 -77 215 -166z"/>
<path d="M730 975 c0 -17 28 -19 103 -9 68 10 47 24 -34 24 -55 0 -69 -3 -69
-15z"/>
<path d="M730 865 c0 -17 17 -18 97 -9 73 9 56 24 -28 24 -55 0 -69 -3 -69
-15z"/>
<path d="M900 855 c0 -16 37 -19 103 -9 61 11 42 24 -33 24 -56 0 -70 -3 -70
-15z"/>
<path d="M730 745 c0 -17 28 -19 103 -9 68 10 47 24 -34 24 -55 0 -69 -3 -69
-15z"/>
<path d="M900 745 c0 -17 21 -19 94 -9 69 10 55 24 -24 24 -56 0 -70 -3 -70
-15z"/>
<path d="M730 635 c0 -17 17 -18 98 -9 77 10 63 24 -23 24 -60 0 -75 -3 -75
-15z"/>
<path d="M730 524 c0 -14 8 -16 53 -10 28 3 62 6 75 6 12 0 22 5 22 10 0 6
-32 10 -75 10 -63 0 -75 -3 -75 -16z"/>
<path d="M448 932 c-47 -50 -122 -175 -116 -192 2 -6 22 18 45 52 23 35 64 88
91 118 46 50 55 70 33 70 -5 0 -28 -21 -53 -48z"/>
<path d="M470 861 c0 -6 5 -13 11 -16 15 -10 139 5 139 16 0 5 -34 9 -75 9
-41 0 -75 -4 -75 -9z"/>
<path d="M470 751 c0 -6 5 -13 10 -16 15 -9 140 5 140 16 0 5 -34 9 -75 9 -41
0 -75 -4 -75 -9z"/>
<path d="M470 631 c0 -6 5 -13 10 -16 15 -9 140 5 140 16 0 5 -34 9 -75 9 -41
0 -75 -4 -75 -9z"/>
</g>
</svg>
