<?xml version="1.0" standalone="no"?>
<!DOCTYPE svg PUBLIC "-//W3C//DTD SVG 20010904//EN"
 "http://www.w3.org/TR/2001/REC-SVG-20010904/DTD/svg10.dtd">
<svg version="1.0" xmlns="http://www.w3.org/2000/svg"
 width="102.000000pt" height="164.000000pt" viewBox="0 0 102.000000 164.000000"
 preserveAspectRatio="xMidYMid meet">
<metadata>
Created by potrace 1.16, written by Peter Selinger 2001-2019
</metadata>
<g transform="translate(0.000000,164.000000) scale(0.100000,-0.100000)"
fill="#000000" stroke="none">
<path d="M310 1325 c-10 -12 -12 -115 -8 -515 2 -275 7 -503 11 -506 11 -12
260 170 328 241 46 47 79 99 79 125 0 8 -34 53 -75 100 -101 114 -104 126 -54
187 67 82 91 163 52 177 -10 3 -43 27 -74 53 -51 43 -191 133 -231 148 -8 3
-21 -1 -28 -10z m80 -65 c55 -28 53 -50 -5 -50 -45 0 -45 0 -45 35 0 19 2 35
5 35 3 0 24 -9 45 -20z m160 -93 c56 -37 70 -54 70 -86 0 -26 -78 -171 -92
-171 -4 0 -8 -13 -8 -29 0 -24 16 -44 86 -110 l87 -81 -34 -57 c-34 -57 -151
-183 -191 -204 l-20 -11 5 243 c4 134 7 315 7 402 l0 158 23 -12 c12 -7 42
-25 67 -42z m-122 6 c-2 -10 -9 -18 -16 -17 -6 1 -25 2 -42 3 -19 0 -30 6 -30
16 0 11 12 15 46 15 38 0 45 -3 42 -17z m2 -68 c0 -24 -3 -25 -37 -21 -21 3
-41 5 -45 5 -5 1 -8 10 -8 21 0 17 7 20 45 20 41 0 45 -2 45 -25z m0 -80 c0
-35 0 -35 -45 -35 -45 0 -45 0 -45 35 0 35 0 35 45 35 45 0 45 0 45 -35z m0
-85 c0 -29 -1 -30 -50 -30 -36 0 -50 4 -50 14 0 32 12 41 55 44 44 3 45 2 45
-28z m0 -101 l0 -40 -47 3 c-47 3 -48 3 -51 40 -3 37 -3 37 40 40 24 2 46 2
51 0 4 -2 7 -21 7 -43z m0 -95 c0 -33 -2 -36 -22 -30 -13 3 -35 6 -50 6 -24 0
-28 4 -28 30 0 29 1 30 50 30 l50 0 0 -36z m0 -86 l0 -33 -50 3 c-48 4 -50 5
-50 33 0 28 1 29 50 29 50 0 50 0 50 -32z m0 -98 l0 -50 -50 0 -50 0 0 44 0
45 48 4 c26 2 48 4 50 5 1 1 2 -20 2 -48z m0 -117 c0 -45 -3 -50 -42 -78 -67
-48 -69 -49 -64 -23 3 13 5 49 5 80 1 56 1 57 34 61 71 9 67 11 67 -40z"/>
</g>
</svg>
