<?xml version="1.0" standalone="no"?>
<!DOCTYPE svg PUBLIC "-//W3C//DTD SVG 20010904//EN"
 "http://www.w3.org/TR/2001/REC-SVG-20010904/DTD/svg10.dtd">
<svg version="1.0" xmlns="http://www.w3.org/2000/svg"
 width="223.000000pt" height="181.000000pt" viewBox="0 0 223.000000 181.000000"
 preserveAspectRatio="xMidYMid meet">
<metadata>
Created by potrace 1.16, written by Peter Selinger 2001-2019
</metadata>
<g transform="translate(0.000000,181.000000) scale(0.100000,-0.100000)"
fill="#000000" stroke="none">
<path d="M1795 1432 c-71 -43 -163 -100 -203 -125 l-72 -47 -124 0 c-104 0
-125 -3 -130 -16 -9 -24 -7 -247 3 -263 7 -11 30 -12 114 -6 l106 7 123 -74
c159 -96 302 -178 310 -178 4 0 7 176 8 390 0 215 -1 390 -2 390 -2 0 -61 -35
-133 -78z m112 -669 c-3 -2 -54 29 -113 69 -60 40 -153 101 -207 136 l-98 62
2 80 c1 51 6 84 14 90 9 8 15 8 20 0 7 -11 83 -12 130 0 l30 7 -35 6 c-19 4
-53 8 -74 9 l-40 3 125 82 c68 45 149 100 179 122 l55 39 8 -350 c5 -192 6
-352 4 -355z m-444 368 c10 -138 12 -135 -92 -127 -47 4 -87 8 -87 9 -1 1 0
50 3 110 l6 107 82 0 82 0 6 -99z"/>
<path d="M1720 1315 c0 -11 9 -14 33 -11 17 2 51 4 75 5 72 2 37 21 -39 21
-54 0 -69 -3 -69 -15z"/>
<path d="M1720 1276 c0 -13 13 -16 63 -16 67 0 120 19 57 20 -19 1 -54 3 -77
6 -34 4 -43 2 -43 -10z"/>
<path d="M1715 1220 c-11 -17 23 -23 93 -15 52 6 62 10 42 16 -38 11 -128 10
-135 -1z"/>
<path d="M1520 1160 c0 -6 32 -10 75 -10 43 0 75 4 75 10 0 6 -32 10 -75 10
-43 0 -75 -4 -75 -10z"/>
<path d="M1720 1145 c0 -12 12 -15 53 -14 28 1 63 4 77 8 24 7 24 7 -9 14 -61
13 -121 9 -121 -8z"/>
<path d="M1528 1114 c-5 -4 -8 -11 -8 -16 0 -12 138 -10 145 2 3 6 -4 10 -18
10 -13 0 -44 3 -68 6 -24 3 -47 2 -51 -2z"/>
<path d="M1720 1075 c0 -12 13 -15 58 -14 31 0 66 4 77 8 16 7 14 9 -14 14
-61 13 -121 8 -121 -8z"/>
<path d="M1530 1036 c0 -13 12 -16 69 -16 39 0 73 5 76 10 4 6 -16 10 -54 10
-32 0 -66 3 -75 6 -11 4 -16 1 -16 -10z"/>
<path d="M1720 1030 c0 -6 32 -10 75 -10 43 0 75 4 75 10 0 6 -32 10 -75 10
-43 0 -75 -4 -75 -10z"/>
<path d="M1720 973 c0 -9 21 -13 69 -13 95 0 100 18 6 22 -55 2 -75 0 -75 -9z"/>
<path d="M1720 900 c0 -6 32 -10 75 -10 43 0 75 4 75 10 0 6 -32 10 -75 10
-43 0 -75 -4 -75 -10z"/>
<path d="M683 662 c-101 -64 -183 -123 -183 -129 0 -10 -27 -13 -100 -13
l-100 0 0 -27 0 -26 613 7 c336 3 654 9 705 12 l92 7 0 -97 c0 -109 19 -136
21 -28 1 37 4 80 8 96 3 16 4 53 3 82 l-4 54 -41 0 c-23 0 -131 -9 -240 -20
-109 -11 -244 -22 -300 -25 l-102 -6 -85 115 c-47 63 -89 115 -95 115 -5 0
-92 -53 -192 -117z m206 57 c25 -34 25 -34 -31 -64 -25 -14 -28 -13 -47 14
-12 16 -21 31 -21 34 0 6 62 47 71 47 3 0 16 -14 28 -31z m-100 -67 l20 -28
-89 -53 c-80 -47 -93 -52 -140 -49 l-52 3 114 77 c62 43 116 78 120 78 4 0 16
-13 27 -28z m195 -44 l56 -63 -58 -3 c-56 -3 -58 -3 -94 39 l-37 43 32 22 c18
13 35 23 39 24 3 0 31 -28 62 -62z m-121 -69 c-15 -4 -57 -7 -93 -8 l-65 -1
60 39 60 38 33 -31 33 -31 -28 -6z m845 9 c-2 -27 -8 -43 -15 -42 -7 1 -145 2
-305 4 l-293 2 155 19 c85 10 218 27 295 38 77 10 146 19 153 20 9 1 12 -11
10 -41z"/>
</g>
</svg>
