<?xml version="1.0" standalone="no"?>
<!DOCTYPE svg PUBLIC "-//W3C//DTD SVG 20010904//EN"
 "http://www.w3.org/TR/2001/REC-SVG-20010904/DTD/svg10.dtd">
<svg version="1.0" xmlns="http://www.w3.org/2000/svg"
 width="235.000000pt" height="152.000000pt" viewBox="0 0 235.000000 152.000000"
 preserveAspectRatio="xMidYMid meet">
<metadata>
Created by potrace 1.16, written by Peter Selinger 2001-2019
</metadata>
<g transform="translate(0.000000,152.000000) scale(0.100000,-0.100000)"
fill="#000000" stroke="none">
<path d="M1960 1169 c-47 -28 -141 -86 -210 -129 l-125 -78 -115 5 c-148 7
-145 10 -135 -165 l8 -125 113 5 114 5 73 -44 c113 -70 345 -203 355 -203 4 0
9 176 11 390 1 215 1 390 -1 390 -2 -1 -41 -24 -88 -51z m62 -371 l3 -336 -60
42 c-33 23 -128 85 -210 138 l-150 96 3 84 3 84 112 72 c62 40 153 101 202
136 80 56 90 61 92 42 1 -12 4 -173 5 -358z m-440 41 c2 -55 -1 -107 -5 -115
-6 -10 -30 -14 -93 -14 l-86 0 6 108 c2 59 5 110 5 115 1 4 39 7 85 7 l85 0 3
-101z"/>
<path d="M860 770 c0 -5 -5 -10 -11 -10 -18 0 -354 -220 -354 -232 0 -7 -32
-10 -97 -9 l-98 2 0 -26 0 -25 418 2 c229 1 543 4 697 7 154 4 281 6 282 6 1
0 5 -42 9 -93 4 -50 11 -89 15 -86 5 3 9 45 9 95 0 64 3 89 13 89 9 0 8 3 -2
9 -9 6 -11 21 -7 50 4 33 2 43 -10 48 -9 3 -143 -6 -297 -21 -155 -14 -302
-26 -327 -26 l-45 0 -88 115 c-81 106 -107 131 -107 105z m41 -71 c7 -14 1
-22 -27 -39 l-37 -21 -23 22 c-32 30 -30 43 8 67 31 20 34 20 51 4 10 -9 23
-24 28 -33z m-94 -74 c-1 -2 -39 -25 -84 -54 -75 -46 -88 -51 -140 -50 -48 0
-55 2 -40 12 10 7 61 42 115 79 l97 67 27 -26 c15 -15 27 -27 25 -28z m176
-20 l58 -65 -63 0 c-61 0 -64 1 -97 41 -27 33 -31 43 -20 50 8 4 23 15 34 23
11 8 22 16 25 16 3 0 31 -29 63 -65z m-121 -32 c15 -15 28 -30 28 -34 0 -3
-42 -7 -92 -8 l-93 -2 55 35 c30 20 59 36 64 36 6 0 23 -12 38 -27z m836 -67
c-2 -2 -138 0 -303 3 -249 5 -285 7 -210 14 50 5 185 20 300 35 l210 27 3 -38
c2 -22 2 -40 0 -41z"/>
</g>
</svg>
