<?xml version="1.0" standalone="no"?>
<!DOCTYPE svg PUBLIC "-//W3C//DTD SVG 20010904//EN"
 "http://www.w3.org/TR/2001/REC-SVG-20010904/DTD/svg10.dtd">
<svg version="1.0" xmlns="http://www.w3.org/2000/svg"
 width="119.000000pt" height="110.000000pt" viewBox="0 0 119.000000 110.000000"
 preserveAspectRatio="xMidYMid meet">
<metadata>
Created by potrace 1.16, written by Peter Selinger 2001-2019
</metadata>
<g transform="translate(0.000000,110.000000) scale(0.100000,-0.100000)"
fill="#000000" stroke="none">
<path d="M523 785 c-8 -9 -13 -45 -13 -98 l0 -84 -49 13 c-51 13 -121 5 -148
-18 -7 -6 -13 -31 -13 -58 0 -41 4 -52 28 -70 23 -18 36 -21 82 -17 30 3 65 8
78 12 21 7 22 5 22 -56 0 -114 -5 -109 124 -107 l111 2 -109 3 -109 4 7 61 c3
33 6 73 6 87 l0 26 155 -3 c93 -2 155 1 155 6 0 11 -258 28 -290 19 -18 -5
-20 0 -20 39 l0 44 58 0 c105 0 251 13 246 21 -3 5 -72 9 -155 9 l-149 0 0 75
0 75 78 0 c42 0 114 3 160 6 l82 6 0 -236 c0 -130 4 -236 8 -236 11 0 22 173
22 345 0 129 -1 133 -22 139 -13 3 -93 6 -178 5 -121 0 -158 -3 -167 -14z
m-20 -202 c4 -2 7 -24 7 -48 0 -39 -3 -44 -28 -50 -66 -14 -122 -8 -147 15
-41 39 -29 71 32 90 26 8 118 4 136 -7z"/>
<path d="M570 715 c0 -25 5 -45 10 -45 6 0 10 20 10 45 0 25 -4 45 -10 45 -5
0 -10 -20 -10 -45z"/>
<path d="M630 705 c0 -25 5 -45 10 -45 6 0 10 20 10 45 0 25 -4 45 -10 45 -5
0 -10 -20 -10 -45z"/>
<path d="M700 711 c0 -22 5 -43 10 -46 6 -4 10 12 10 39 0 25 -4 46 -10 46 -5
0 -10 -18 -10 -39z"/>
<path d="M780 694 c0 -27 4 -43 10 -39 6 3 10 24 10 46 0 21 -4 39 -10 39 -5
0 -10 -21 -10 -46z"/>
<path d="M570 395 c0 -25 5 -45 10 -45 6 0 10 20 10 45 0 25 -4 45 -10 45 -5
0 -10 -20 -10 -45z"/>
<path d="M700 396 c0 -25 5 -48 10 -51 6 -4 10 13 10 44 0 28 -4 51 -10 51 -5
0 -10 -20 -10 -44z"/>
<path d="M630 385 c0 -25 5 -45 10 -45 6 0 10 20 10 45 0 25 -4 45 -10 45 -5
0 -10 -20 -10 -45z"/>
<path d="M780 379 c0 -31 4 -48 10 -44 6 3 10 26 10 51 0 24 -4 44 -10 44 -5
0 -10 -23 -10 -51z"/>
</g>
</svg>
