<?xml version="1.0" standalone="no"?>
<!DOCTYPE svg PUBLIC "-//W3C//DTD SVG 20010904//EN"
 "http://www.w3.org/TR/2001/REC-SVG-20010904/DTD/svg10.dtd">
<svg version="1.0" xmlns="http://www.w3.org/2000/svg"
 width="126.000000pt" height="110.000000pt" viewBox="0 0 126.000000 110.000000"
 preserveAspectRatio="xMidYMid meet">
<metadata>
Created by potrace 1.16, written by Peter Selinger 2001-2019
</metadata>
<g transform="translate(0.000000,110.000000) scale(0.100000,-0.100000)"
fill="#000000" stroke="none">
<path d="M523 785 c-8 -8 -13 -42 -13 -85 l0 -70 -105 0 -105 0 0 -87 0 -86
105 6 105 6 0 -85 0 -84 143 2 142 2 -131 3 -132 4 5 227 c3 125 6 227 7 228
0 1 85 4 189 7 l187 7 0 -78 0 -77 -185 3 c-169 3 -185 1 -185 -14 0 -16 15
-17 185 -11 l185 6 2 -44 c0 -25 1 -50 2 -56 1 -7 -57 -10 -186 -9 -171 1
-188 -1 -188 -16 0 -16 15 -17 190 -11 l190 7 0 -85 c0 -47 4 -85 8 -85 10 0
22 214 22 375 0 98 -1 103 -22 109 -13 3 -108 6 -213 5 -151 0 -193 -3 -202
-14z m-13 -235 l0 -60 -65 0 -65 0 0 54 0 55 43 4 c96 8 87 14 87 -53z m-150
-5 c0 -48 -2 -55 -20 -55 -18 0 -20 7 -20 55 0 48 2 55 20 55 18 0 20 -7 20
-55z"/>
</g>
</svg>
