<?xml version="1.0" standalone="no"?>
<!DOCTYPE svg PUBLIC "-//W3C//DTD SVG 20010904//EN"
 "http://www.w3.org/TR/2001/REC-SVG-20010904/DTD/svg10.dtd">
<svg version="1.0" xmlns="http://www.w3.org/2000/svg"
 width="138.000000pt" height="102.000000pt" viewBox="0 0 138.000000 102.000000"
 preserveAspectRatio="xMidYMid meet">
<metadata>
Created by potrace 1.16, written by Peter Selinger 2001-2019
</metadata>
<g transform="translate(0.000000,102.000000) scale(0.100000,-0.100000)"
fill="#000000" stroke="none">
<path d="M629 697 c-25 -17 -36 -33 -43 -65 l-10 -42 -124 0 c-107 0 -127 -2
-138 -17 -14 -19 -19 -183 -8 -241 l6 -30 172 4 c566 13 576 13 577 1 1 -7 5
2 9 18 9 37 12 217 4 239 -5 13 -24 16 -103 16 -129 0 -135 2 -149 56 -21 79
-119 111 -193 61z m142 -36 c16 -16 29 -39 29 -50 0 -20 -5 -21 -100 -21 -55
0 -100 2 -100 5 0 4 7 19 15 35 34 66 106 80 156 31z m279 -217 l0 -116 -31 6
c-17 3 -179 6 -360 6 l-329 0 0 105 0 105 173 3 c94 1 256 4 360 5 l187 2 0
-116z"/>
</g>
</svg>
