<?xml version="1.0" standalone="no"?>
<!DOCTYPE svg PUBLIC "-//W3C//DTD SVG 20010904//EN"
 "http://www.w3.org/TR/2001/REC-SVG-20010904/DTD/svg10.dtd">
<svg version="1.0" xmlns="http://www.w3.org/2000/svg"
 width="155.000000pt" height="319.000000pt" viewBox="0 0 155.000000 319.000000"
 preserveAspectRatio="xMidYMid meet">
<metadata>
Created by potrace 1.16, written by Peter Selinger 2001-2019
</metadata>
<g transform="translate(0.000000,319.000000) scale(0.100000,-0.100000)"
fill="#000000" stroke="none">
<path d="M751 2883 c-22 -3 -35 -11 -38 -24 -3 -11 -11 -18 -18 -15 -12 4 -41
-50 -60 -112 l-7 -23 -164 7 -164 7 0 -114 0 -115 38 3 c20 1 92 4 159 6 l122
3 15 -45 c8 -26 24 -67 35 -92 l21 -47 117 -22 c87 -16 137 -21 188 -16 84 7
186 32 197 49 5 7 18 44 31 82 18 58 22 93 22 205 0 74 -3 151 -8 170 -7 34
-10 36 -94 64 -77 26 -105 29 -223 31 -74 2 -150 1 -169 -2z m390 -53 l47 -11
11 -75 c20 -135 6 -382 -23 -412 -4 -4 -76 -7 -159 -7 -145 0 -261 17 -318 46
-25 13 -44 96 -44 199 0 80 5 107 29 173 15 42 33 80 40 84 37 24 324 26 417
3z m-525 -171 c-3 -17 -6 -53 -6 -80 l0 -49 -146 0 -145 0 2 73 2 72 106 6
c58 3 126 6 150 7 l44 2 -7 -31z"/>
<path d="M771 1913 c-7 -8 -11 -57 -11 -132 l0 -121 -162 -2 -163 -3 -3 -105
-3 -105 164 3 164 3 6 -77 c4 -42 7 -107 7 -143 0 -36 4 -72 8 -79 7 -10 37
-11 133 -6 l124 7 4 383 3 383 -130 3 c-92 2 -133 -1 -141 -9z m239 -379 l0
-366 -31 6 c-17 3 -68 6 -112 6 l-80 0 6 253 c4 138 7 298 7 354 l0 102 93 4
c50 1 98 4 105 5 9 2 12 -77 12 -364z m-250 24 l0 -83 -150 3 -150 3 0 74 0
74 133 4 c72 1 140 4 150 5 15 2 17 -8 17 -80z"/>
<path d="M740 805 c0 -8 -4 -15 -10 -15 -6 0 -10 -28 -10 -64 l0 -64 -161 5
c-132 5 -163 4 -170 -8 -10 -16 -12 -126 -3 -180 5 -29 10 -35 28 -33 11 2 85
5 164 8 l142 5 0 -60 c0 -104 -10 -99 225 -99 125 0 206 4 210 10 11 17 12 40
20 263 l7 217 -22 0 -22 0 4 -237 4 -238 -204 3 -204 3 6 57 c3 31 6 129 7
216 1 88 4 168 7 178 4 16 19 18 181 19 97 0 185 4 196 8 24 10 -127 21 -282
21 -94 0 -113 -3 -113 -15z m-20 -246 l0 -81 -152 7 c-84 4 -155 9 -156 10 -2
2 -1 33 3 69 l7 65 82 4 c44 1 111 4 149 5 l67 2 0 -81z"/>
</g>
</svg>
