<?xml version="1.0" standalone="no"?>
<!DOCTYPE svg PUBLIC "-//W3C//DTD SVG 20010904//EN"
 "http://www.w3.org/TR/2001/REC-SVG-20010904/DTD/svg10.dtd">
<svg version="1.0" xmlns="http://www.w3.org/2000/svg"
 width="152.000000pt" height="121.000000pt" viewBox="0 0 152.000000 121.000000"
 preserveAspectRatio="xMidYMid meet">
<metadata>
Created by potrace 1.16, written by Peter Selinger 2001-2019
</metadata>
<g transform="translate(0.000000,121.000000) scale(0.100000,-0.100000)"
fill="#000000" stroke="none">
<path d="M761 903 c-32 -3 -44 -9 -48 -24 -3 -10 -13 -19 -22 -19 -12 0 -24
-20 -40 -65 l-23 -66 -162 2 -161 1 -3 -119 c-1 -65 1 -113 6 -106 5 8 53 12
157 14 l149 1 29 -68 c16 -38 31 -79 34 -90 4 -17 19 -25 81 -39 123 -27 230
-31 327 -10 46 9 90 25 98 34 25 29 37 131 37 315 l0 181 -87 29 c-74 24 -107
29 -208 31 -66 2 -140 1 -164 -2z m372 -53 l47 -12 0 -243 0 -243 -44 -6
c-116 -18 -271 -5 -413 33 -41 11 -42 12 -57 79 -22 97 -15 219 17 306 14 37
30 73 36 79 6 6 32 14 59 18 65 10 296 3 355 -11z m-517 -171 c-3 -17 -6 -55
-6 -83 l0 -51 -146 3 -145 3 2 72 2 72 121 5 c67 3 134 7 150 8 27 2 28 0 22
-29z"/>
<path d="M670 686 c0 -11 9 -16 30 -16 30 0 30 -1 30 -55 0 -54 0 -55 -30 -55
-16 0 -30 -4 -30 -9 0 -6 54 -11 122 -13 181 -5 368 2 368 13 0 5 -18 9 -40 9
l-41 0 7 53 c8 65 6 63 56 66 12 0 19 3 17 6 -3 2 -114 7 -247 11 -220 6 -242
5 -242 -10z m140 -33 c0 -10 3 -35 6 -55 6 -37 6 -38 -25 -38 -31 0 -31 0 -31
55 0 52 1 55 25 55 17 0 25 -6 25 -17z m90 -38 c0 -54 0 -55 -30 -55 -30 0
-30 1 -30 55 0 54 0 55 30 55 30 0 30 -1 30 -55z m90 0 l0 -55 -35 0 c-38 0
-40 4 -29 73 6 33 10 37 35 37 28 0 29 -1 29 -55z m70 0 c0 -52 -1 -55 -25
-55 -24 0 -25 3 -25 55 0 52 1 55 25 55 24 0 25 -3 25 -55z"/>
</g>
</svg>
