<?xml version="1.0" standalone="no"?>
<!DOCTYPE svg PUBLIC "-//W3C//DTD SVG 20010904//EN"
 "http://www.w3.org/TR/2001/REC-SVG-20010904/DTD/svg10.dtd">
<svg version="1.0" xmlns="http://www.w3.org/2000/svg"
 width="165.000000pt" height="142.000000pt" viewBox="0 0 165.000000 142.000000"
 preserveAspectRatio="xMidYMid meet">
<metadata>
Created by potrace 1.16, written by Peter Selinger 2001-2019
</metadata>
<g transform="translate(0.000000,142.000000) scale(0.100000,-0.100000)"
fill="#000000" stroke="none">
<path d="M680 1049 l0 -71 -72 2 c-130 5 -121 10 -116 -68 l3 -69 -97 5 -98 5
0 -143 0 -143 80 7 c72 6 80 5 81 -11 1 -10 3 -27 4 -38 1 -11 2 -35 3 -52 l2
-33 94 0 93 0 7 -71 c9 -88 24 -79 27 16 l3 70 -103 3 -103 3 4 67 3 67 -88 3
-87 3 0 109 0 110 65 2 c36 1 77 2 93 2 36 1 42 11 42 79 l0 57 78 1 c42 1 82
1 88 0 12 -1 24 52 24 114 0 27 3 36 9 26 8 -12 55 -13 295 -8 l286 6 0 -253
c0 -139 3 -314 7 -389 l6 -137 -306 7 c-282 6 -307 5 -307 -10 0 -16 28 -17
320 -17 207 0 320 4 320 10 0 6 -3 10 -7 10 -12 0 -4 774 7 778 6 2 8 8 4 13
-3 5 -146 9 -335 9 l-329 0 0 -71z"/>
</g>
</svg>
