<?xml version="1.0" standalone="no"?>
<!DOCTYPE svg PUBLIC "-//W3C//DTD SVG 20010904//EN"
 "http://www.w3.org/TR/2001/REC-SVG-20010904/DTD/svg10.dtd">
<svg version="1.0" xmlns="http://www.w3.org/2000/svg"
 width="113.000000pt" height="104.000000pt" viewBox="0 0 113.000000 104.000000"
 preserveAspectRatio="xMidYMid meet">
<metadata>
Created by potrace 1.16, written by Peter Selinger 2001-2019
</metadata>
<g transform="translate(0.000000,104.000000) scale(0.100000,-0.100000)"
fill="#000000" stroke="none">
<path d="M300 533 c0 -115 4 -214 9 -222 8 -12 49 -13 248 -8 131 3 245 8 253
11 11 5 16 27 18 91 l4 85 -191 0 -191 0 0 125 0 125 -75 0 -75 0 0 -207z
m122 170 c3 -10 6 -76 7 -148 1 -72 6 -134 12 -140 5 -5 9 1 9 17 l0 25 173 5
c94 3 173 5 173 4 1 0 4 -31 6 -68 l4 -68 -231 0 c-126 0 -235 4 -242 8 -8 5
-11 60 -11 189 l0 182 27 4 c56 9 69 7 73 -10z"/>
</g>
</svg>
