<?xml version="1.0" standalone="no"?>
<!DOCTYPE svg PUBLIC "-//W3C//DTD SVG 20010904//EN"
 "http://www.w3.org/TR/2001/REC-SVG-20010904/DTD/svg10.dtd">
<svg version="1.0" xmlns="http://www.w3.org/2000/svg"
 width="197.000000pt" height="143.000000pt" viewBox="0 0 197.000000 143.000000"
 preserveAspectRatio="xMidYMid meet">
<metadata>
Created by potrace 1.16, written by Peter Selinger 2001-2019
</metadata>
<g transform="translate(0.000000,143.000000) scale(0.100000,-0.100000)"
fill="#000000" stroke="none">
<path d="M847 1123 c-4 -3 -7 -48 -7 -100 l0 -93 -90 7 c-87 6 -90 5 -90 -16
0 -20 5 -21 90 -21 l90 0 0 -100 c0 -78 3 -100 14 -100 16 0 123 108 168 170
12 17 36 19 293 24 l280 6 -34 -30 c-30 -26 -32 -30 -16 -36 14 -6 27 3 55 36
21 24 42 40 48 36 7 -4 10 1 9 14 -1 11 -6 20 -12 20 -6 0 -29 18 -50 40 -21
22 -47 40 -57 40 -23 0 -23 -16 -1 -29 14 -7 9 -11 -26 -21 -75 -20 -253 -40
-362 -40 l-107 0 -28 38 c-35 46 -145 162 -154 162 -4 0 -10 -3 -13 -7z m43
-124 c0 -39 -4 -69 -10 -69 -6 0 -10 32 -10 76 0 47 4 73 10 69 6 -3 10 -37
10 -76z m37 -46 c-2 -16 -4 -3 -4 27 0 30 2 43 4 28 2 -16 2 -40 0 -55z m53 1
c0 -13 -4 -24 -10 -24 -5 0 -10 14 -10 31 0 17 4 28 10 24 6 -3 10 -17 10 -31z
m623 -12 c9 -8 17 -19 17 -24 0 -4 -56 -8 -125 -8 -77 0 -125 4 -125 10 0 6
10 10 23 10 12 1 56 9 97 19 78 18 83 18 113 -7z m-713 -116 c0 -47 -4 -67
-17 -77 -15 -13 -16 -11 -10 11 4 14 7 51 7 83 0 36 4 56 10 52 6 -3 10 -35
10 -69z m40 24 c0 -27 -3 -50 -7 -50 -5 0 -6 22 -5 50 5 65 12 65 12 0z m46 4
c-3 -8 -10 -14 -15 -14 -10 0 -9 9 6 48 6 16 6 16 10 -1 3 -10 2 -25 -1 -33z"/>
<path d="M300 779 l0 -22 225 5 225 5 0 -38 0 -38 -225 6 -225 6 0 -23 0 -23
225 6 225 7 0 -33 0 -32 -225 3 -225 4 0 -22 0 -22 208 7 c114 4 214 9 223 11
13 4 18 -4 21 -35 l3 -40 -227 6 -228 6 0 -23 0 -23 230 6 230 7 0 -28 0 -29
-230 5 -230 5 0 -23 0 -23 230 7 c229 8 230 7 230 -13 0 -12 1 -24 3 -28 1 -4
-103 -6 -230 -4 l-233 3 0 -22 0 -22 198 6 c108 4 214 9 235 12 34 5 37 4 38
-18 0 -22 1 -22 9 -3 4 11 8 124 9 250 l2 230 -246 3 -245 3 0 -22z"/>
<path d="M800 579 l0 -22 228 7 c125 4 231 11 235 15 12 12 -125 21 -305 21
-155 0 -158 0 -158 -21z"/>
</g>
</svg>
