<?xml version="1.0" standalone="no"?>
<!DOCTYPE svg PUBLIC "-//W3C//DTD SVG 20010904//EN"
 "http://www.w3.org/TR/2001/REC-SVG-20010904/DTD/svg10.dtd">
<svg version="1.0" xmlns="http://www.w3.org/2000/svg"
 width="172.000000pt" height="161.000000pt" viewBox="0 0 172.000000 161.000000"
 preserveAspectRatio="xMidYMid meet">
<metadata>
Created by potrace 1.16, written by Peter Selinger 2001-2019
</metadata>
<g transform="translate(0.000000,161.000000) scale(0.100000,-0.100000)"
fill="#000000" stroke="none">
<path d="M680 1304 c-80 -16 -100 -25 -100 -45 0 -15 5 -19 18 -15 112 36 371
34 416 -3 33 -27 89 -24 245 15 166 41 167 41 159 49 -3 3 -68 -6 -143 -20
-166 -30 -198 -31 -295 -4 -73 19 -249 33 -300 23z"/>
<path d="M536 1223 c-2 -2 -1 -17 4 -33 4 -15 13 -68 20 -118 14 -101 0 -263
-26 -314 -31 -60 -28 -106 17 -289 50 -200 62 -195 25 9 -32 172 -32 186 -1
314 14 57 28 138 31 180 l7 76 62 11 c111 20 319 7 336 -21 16 -26 104 -20
254 18 83 20 152 39 154 41 15 12 -20 8 -139 -13 -166 -29 -210 -30 -313 -2
-88 23 -223 29 -313 15 l-51 -9 -13 65 c-9 49 -17 66 -30 70 -11 3 -21 3 -24
0z"/>
<path d="M320 1208 c1 -7 7 -42 15 -78 25 -115 13 -336 -21 -385 -8 -11 -14
-44 -14 -77 0 -59 65 -346 82 -363 7 -7 8 0 4 20 -3 17 -18 99 -32 184 l-26
155 29 115 c22 93 28 138 28 226 0 133 -18 215 -46 215 -10 0 -19 -6 -19 -12z"/>
<path d="M780 739 l0 -150 78 6 c186 15 305 49 357 101 33 32 38 34 105 34 40
0 70 4 70 10 0 6 -31 10 -73 10 -65 0 -76 3 -95 25 -45 52 -162 91 -299 100
-43 3 -93 8 -110 10 l-33 4 0 -150z m278 100 c80 -20 148 -54 157 -77 4 -12
-1 -13 -26 -8 -17 3 -95 6 -173 6 l-141 0 -22 56 -21 56 76 -7 c43 -4 110 -16
150 -26z m160 -121 c-13 -39 -172 -91 -316 -104 l-74 -7 21 41 c12 23 21 48
21 56 0 13 22 16 128 18 70 2 149 4 176 6 36 2 47 0 44 -10z"/>
</g>
</svg>
