<?xml version="1.0" standalone="no"?>
<!DOCTYPE svg PUBLIC "-//W3C//DTD SVG 20010904//EN"
 "http://www.w3.org/TR/2001/REC-SVG-20010904/DTD/svg10.dtd">
<svg version="1.0" xmlns="http://www.w3.org/2000/svg"
 width="169.000000pt" height="152.000000pt" viewBox="0 0 169.000000 152.000000"
 preserveAspectRatio="xMidYMid meet">
<metadata>
Created by potrace 1.16, written by Peter Selinger 2001-2019
</metadata>
<g transform="translate(0.000000,152.000000) scale(0.100000,-0.100000)"
fill="#000000" stroke="none">
<path d="M1113 1203 c20 -67 31 -150 30 -228 0 -101 -19 -216 -36 -227 -8 -5
-12 -36 -12 -82 0 -72 -1 -76 -25 -80 -213 -43 -265 -44 -435 -6 -76 17 -118
21 -173 16 -108 -9 -162 -24 -162 -47 0 -22 -3 -22 80 -4 113 25 290 15 356
-20 43 -22 105 -18 236 16 66 17 123 27 128 23 4 -5 20 -61 35 -124 45 -187
61 -189 25 -2 -35 186 -36 235 -5 363 30 127 34 249 12 354 -11 50 -16 61 -36
63 -18 3 -22 0 -18 -15z"/>
<path d="M1330 1212 c0 -4 7 -39 15 -77 26 -122 15 -323 -20 -391 -24 -46 -18
-124 22 -282 41 -160 55 -167 28 -14 -36 210 -36 208 -9 327 23 99 25 126 22
260 -3 83 -8 158 -12 168 -8 16 -46 25 -46 9z"/>
<path d="M450 917 l0 -147 53 0 c80 0 237 27 303 51 32 12 72 36 89 53 27 27
37 31 103 34 39 2 72 8 72 12 0 4 -35 8 -77 9 -64 2 -79 6 -91 22 -34 49 -188
96 -349 106 l-103 6 0 -146z m240 107 c94 -17 170 -46 196 -75 17 -19 14 -19
-159 -19 -141 0 -177 3 -177 13 0 8 -10 34 -23 59 l-23 45 51 -4 c27 -3 88
-11 135 -19z m200 -139 c-19 -23 -109 -62 -173 -75 -71 -14 -208 -28 -204 -20
1 3 11 29 22 58 l20 52 174 0 c152 0 172 -2 161 -15z"/>
<path d="M435 394 c-106 -16 -135 -26 -135 -45 0 -23 -2 -23 85 -4 113 24 287
14 353 -21 15 -8 47 -14 72 -14 48 0 330 68 330 80 0 4 -21 3 -47 -2 -27 -4
-101 -18 -165 -29 l-118 -20 -106 25 c-107 26 -214 38 -269 30z"/>
</g>
</svg>
