<?xml version="1.0" standalone="no"?>
<!DOCTYPE svg PUBLIC "-//W3C//DTD SVG 20010904//EN"
 "http://www.w3.org/TR/2001/REC-SVG-20010904/DTD/svg10.dtd">
<svg version="1.0" xmlns="http://www.w3.org/2000/svg"
 width="190.000000pt" height="181.000000pt" viewBox="0 0 190.000000 181.000000"
 preserveAspectRatio="xMidYMid meet">
<metadata>
Created by potrace 1.16, written by Peter Selinger 2001-2019
</metadata>
<g transform="translate(0.000000,181.000000) scale(0.100000,-0.100000)"
fill="#000000" stroke="none">
<path d="M656 1494 c-3 -9 -6 -54 -6 -100 l0 -84 -175 0 c-173 0 -175 0 -175
-22 0 -21 0 -21 174 -14 l174 6 7 -115 c7 -109 8 -115 29 -115 87 0 853 113
868 128 5 5 10 54 11 108 l2 98 -200 33 c-168 27 -658 93 -692 93 -6 0 -14 -7
-17 -16z m177 -50 l57 -6 0 -158 0 -157 -37 -6 c-21 -3 -71 -9 -112 -13 -68
-6 -74 -5 -68 10 4 10 7 51 7 92 l0 74 63 1 c34 0 80 4 102 8 40 9 40 9 -16
10 -31 0 -77 4 -103 7 l-46 7 0 74 0 75 48 -6 c26 -3 73 -8 105 -12z m422 -42
l280 -28 3 -94 3 -95 -313 -31 c-172 -17 -314 -30 -316 -28 -2 1 0 70 4 153
l7 151 26 0 c14 -1 152 -13 306 -28z"/>
<path d="M682 715 c-10 -12 -13 -41 -10 -107 l3 -90 -172 6 c-169 6 -173 6
-173 -14 0 -19 6 -20 175 -20 l174 0 3 -92 3 -93 444 -3 c245 -1 449 2 453 6
5 5 11 96 15 204 l6 195 -124 6 c-68 4 -272 9 -454 13 -297 5 -331 4 -343 -11z
m883 -206 c4 -99 5 -182 3 -184 -2 -3 -163 1 -356 7 l-352 12 2 166 3 165 175
5 c96 3 252 7 346 8 l171 2 8 -181z m-725 86 c0 -95 5 -91 -84 -79 l-46 7 0
78 0 79 65 0 65 0 0 -85z m0 -175 l0 -80 -70 0 c-79 0 -76 -5 -64 97 l7 52 41
4 c96 8 86 17 86 -73z"/>
</g>
</svg>
