<?xml version="1.0" standalone="no"?>
<!DOCTYPE svg PUBLIC "-//W3C//DTD SVG 20010904//EN"
 "http://www.w3.org/TR/2001/REC-SVG-20010904/DTD/svg10.dtd">
<svg version="1.0" xmlns="http://www.w3.org/2000/svg"
 width="194.000000pt" height="213.000000pt" viewBox="0 0 194.000000 213.000000"
 preserveAspectRatio="xMidYMid meet">
<metadata>
Created by potrace 1.16, written by Peter Selinger 2001-2019
</metadata>
<g transform="translate(0.000000,213.000000) scale(0.100000,-0.100000)"
fill="#000000" stroke="none">
<path d="M441 1823 c-22 -3 -35 -11 -38 -24 -4 -12 -11 -18 -20 -15 -28 11
-83 -160 -83 -260 0 -57 18 -126 55 -206 l25 -55 78 -17 c119 -27 233 -30 326
-9 96 22 108 35 137 153 12 47 22 86 24 88 1 1 31 -14 66 -34 82 -46 248 -129
276 -138 17 -5 54 14 162 81 181 112 199 127 186 148 -9 15 -239 167 -308 204
-25 13 -33 11 -129 -36 -57 -27 -136 -69 -177 -92 -41 -23 -75 -40 -76 -39 -1
2 -7 45 -13 97 -6 51 -13 94 -14 95 -2 1 -41 15 -88 31 -75 25 -101 29 -220
31 -74 1 -150 0 -169 -3z m169 -143 l0 -110 -136 0 c-124 0 -135 1 -130 18 29
104 38 131 55 159 21 34 34 37 159 41 l52 2 0 -110z m216 90 l52 -11 11 -75
c6 -41 11 -87 11 -101 l0 -26 -67 6 c-38 4 -94 7 -125 7 l-58 0 0 111 0 112
63 -6 c34 -3 85 -11 113 -17z m569 -118 c50 -27 115 -64 145 -81 l55 -31 -95
0 -95 0 -39 61 c-25 38 -42 57 -49 50 -6 -6 2 -25 22 -54 17 -25 31 -48 31
-52 0 -3 -23 -5 -51 -3 -48 3 -51 5 -81 51 -20 32 -34 45 -41 38 -6 -6 -2 -20
12 -39 28 -40 27 -47 -11 -46 -26 1 -37 9 -57 38 -21 32 -23 39 -11 46 8 5 44
29 80 53 54 37 68 43 80 32 8 -6 56 -35 105 -63z m-281 -77 c9 -13 16 -26 16
-27 0 -2 -30 -1 -66 0 l-66 4 38 24 c49 30 58 30 78 -1z m-228 -217 c-9 -44
-17 -83 -20 -85 -2 -2 -54 -7 -115 -10 l-111 -6 1 89 c0 49 4 112 7 139 l7 50
120 5 120 5 3 -53 c2 -29 -4 -90 -12 -134z m-272 41 c4 -72 5 -134 2 -136 -5
-5 -148 22 -208 39 -34 10 -37 14 -52 74 -9 35 -16 84 -16 109 l0 45 134 0
133 0 7 -131z m995 117 c-2 -1 -34 -20 -70 -40 l-67 -36 -21 32 -20 33 47 6
c56 7 137 10 131 5z m-397 -82 c61 -84 57 -78 63 -72 3 2 -12 31 -33 64 -21
32 -41 65 -46 72 -5 9 3 12 31 12 35 -1 41 -5 81 -61 24 -33 42 -64 40 -69 -2
-5 -19 -19 -38 -32 l-35 -24 -130 83 c-71 46 -133 83 -137 83 -5 0 -8 3 -8 8
0 4 36 7 81 6 l81 0 50 -70z m212 42 c14 -19 26 -37 26 -40 0 -5 -64 -46 -73
-46 -8 0 -77 102 -77 112 0 5 22 8 49 8 44 0 51 -3 75 -34z"/>
<path d="M461 903 c-42 -3 -54 -8 -58 -24 -3 -10 -12 -19 -20 -19 -17 0 -47
-65 -69 -151 -24 -92 -15 -184 26 -284 18 -44 34 -81 35 -82 1 -2 45 -12 99
-23 118 -24 235 -25 331 -2 81 20 85 24 117 157 l21 84 71 -40 c116 -65 266
-140 266 -132 0 4 5 2 11 -4 8 -8 48 12 148 74 161 101 201 130 201 147 0 15
-28 34 -209 148 -86 54 -128 75 -136 68 -7 -5 -15 -7 -18 -4 -3 4 -78 -33
-167 -80 -88 -47 -162 -86 -164 -86 -2 0 -6 30 -10 68 -11 109 -17 132 -35
132 -9 0 -50 12 -91 26 -60 21 -98 27 -185 29 -60 1 -134 1 -164 -2z m147
-145 l3 -108 -136 0 c-74 0 -135 2 -135 4 0 16 52 165 62 179 13 18 110 37
173 33 l30 -1 3 -107z m221 88 c51 -13 54 -20 66 -135 l7 -71 -65 0 c-35 0
-92 3 -126 6 l-61 7 0 109 0 110 68 -8 c37 -4 87 -12 111 -18z m544 -105 c56
-32 131 -73 166 -90 34 -18 61 -33 60 -34 -2 -2 -140 0 -307 3 l-302 5 87 52
c49 29 111 68 138 87 28 19 51 35 53 35 2 1 49 -25 105 -58z m-473 -183 c-1
-62 -21 -193 -32 -204 -9 -8 -196 -24 -213 -18 -17 7 -20 99 -9 212 l7 61 51
4 c28 2 84 4 124 5 l72 2 0 -62z m-286 -79 c4 -72 4 -134 1 -137 -6 -6 -133
16 -196 34 -39 12 -47 19 -58 51 -6 21 -15 71 -18 111 l-6 72 135 0 135 0 7
-131z m996 116 c0 -2 -22 -16 -50 -30 l-50 -25 0 24 c0 22 5 25 48 29 26 2 48
4 50 5 1 1 2 0 2 -3z m-277 -86 c4 -64 4 -65 -27 -85 l-31 -21 3 88 c3 81 5
88 25 91 26 4 24 8 30 -73z m68 74 c0 -5 3 -28 6 -52 4 -36 2 -47 -13 -58 -30
-22 -34 -16 -34 52 0 58 2 65 20 65 11 0 20 -3 21 -7z m81 -24 c4 -22 -1 -34
-16 -45 -31 -22 -36 -18 -36 31 0 41 2 45 24 45 19 0 25 -6 28 -31z m-442 6
c0 -13 -4 -14 -20 -5 -11 6 -20 13 -20 15 0 3 9 5 20 5 11 0 20 -7 20 -15z
m80 -26 l0 -40 -29 20 c-35 26 -32 61 5 61 21 0 24 -4 24 -41z m70 -20 l0 -61
-22 14 c-14 10 -24 28 -26 48 -5 43 3 60 28 60 18 0 20 -6 20 -61z m64 -20 c4
-45 5 -83 4 -85 -2 -1 -13 5 -26 14 -20 16 -21 23 -15 85 9 96 28 89 37 -14z"/>
</g>
</svg>
