<?xml version="1.0" standalone="no"?>
<!DOCTYPE svg PUBLIC "-//W3C//DTD SVG 20010904//EN"
 "http://www.w3.org/TR/2001/REC-SVG-20010904/DTD/svg10.dtd">
<svg version="1.0" xmlns="http://www.w3.org/2000/svg"
 width="123.000000pt" height="193.000000pt" viewBox="0 0 123.000000 193.000000"
 preserveAspectRatio="xMidYMid meet">
<metadata>
Created by potrace 1.16, written by Peter Selinger 2001-2019
</metadata>
<g transform="translate(0.000000,193.000000) scale(0.100000,-0.100000)"
fill="#000000" stroke="none">
<path d="M446 1623 c-27 -3 -40 -10 -43 -24 -3 -10 -13 -19 -23 -19 -12 0 -24
-17 -39 -57 -49 -135 -53 -224 -15 -328 14 -38 31 -84 37 -102 11 -31 14 -32
107 -49 52 -9 101 -18 108 -20 10 -3 5 -19 -19 -62 -69 -123 -140 -262 -149
-292 -8 -29 -3 -42 57 -138 76 -125 151 -232 161 -232 7 0 161 233 203 306
l23 42 -61 123 c-34 68 -77 152 -97 185 l-35 62 47 7 c26 3 75 13 109 22 l62
15 23 57 c18 46 23 81 26 200 2 79 1 167 -2 195 l-7 51 -87 29 c-76 26 -103
30 -217 32 -71 1 -147 0 -169 -3z m184 -153 l0 -120 -140 0 c-133 0 -140 -1
-140 -20 0 -19 7 -20 145 -20 l145 0 0 -102 c0 -57 3 -113 6 -125 5 -20 2 -23
-21 -23 -45 0 -229 40 -242 53 -19 19 -43 126 -43 195 0 71 22 166 51 223 15
31 26 39 56 44 21 4 45 8 53 10 8 1 41 3 73 4 l57 1 0 -120z m161 109 c38 -7
73 -17 78 -23 9 -11 31 -146 31 -192 0 -23 -3 -24 -69 -24 -37 0 -89 3 -115 6
l-46 7 0 118 0 119 26 0 c14 0 56 -5 95 -11z m109 -305 c0 -82 -21 -184 -41
-195 -10 -5 -59 -12 -110 -16 l-92 -6 6 48 c4 26 7 83 7 126 l0 78 68 4 c37 2
88 4 115 5 l47 2 0 -46z m-234 -347 c15 -27 14 -28 -58 -105 -40 -43 -93 -99
-117 -126 -32 -35 -46 -45 -54 -37 -8 8 -7 17 3 34 8 13 53 85 100 161 92 150
87 147 126 73z m21 -147 c-90 -94 -190 -211 -185 -216 3 -3 59 49 123 116 114
116 119 119 133 99 13 -19 12 -24 -21 -57 -63 -66 -186 -216 -181 -221 3 -3
55 48 116 113 l112 118 22 -28 c17 -21 20 -32 12 -41 -5 -7 -14 -11 -18 -8 -8
5 -97 -91 -174 -187 -21 -27 -42 -48 -46 -48 -4 0 -24 30 -43 68 -20 37 -47
84 -60 105 l-23 38 120 125 119 125 18 -28 19 -28 -43 -45z m63 -232 c-17 -29
-52 -93 -77 -143 l-45 -89 -19 34 c-10 19 -18 38 -19 43 0 8 178 207 186 207
2 0 -9 -24 -26 -52z"/>
</g>
</svg>
