<?xml version="1.0" standalone="no"?>
<!DOCTYPE svg PUBLIC "-//W3C//DTD SVG 20010904//EN"
 "http://www.w3.org/TR/2001/REC-SVG-20010904/DTD/svg10.dtd">
<svg version="1.0" xmlns="http://www.w3.org/2000/svg"
 width="211.000000pt" height="163.000000pt" viewBox="0 0 211.000000 163.000000"
 preserveAspectRatio="xMidYMid meet">
<metadata>
Created by potrace 1.16, written by Peter Selinger 2001-2019
</metadata>
<g transform="translate(0.000000,163.000000) scale(0.100000,-0.100000)"
fill="#000000" stroke="none">
<path d="M635 1288 c-328 -196 -401 -359 -273 -613 60 -121 258 -358 258 -310
0 3 -23 60 -51 127 -72 172 -71 160 -2 182 148 47 383 139 383 151 0 11 -128
98 -328 224 -52 33 -52 33 -35 56 115 150 150 204 140 214 -15 15 -14 16 -92
-31z m-26 -115 c-29 -43 -58 -82 -66 -86 -15 -9 -18 -37 -2 -37 5 0 74 -38
152 -83 78 -46 164 -96 190 -111 27 -15 47 -30 45 -32 -3 -2 -63 -21 -134 -42
-254 -76 -314 -97 -314 -109 0 -6 18 -60 39 -119 45 -122 37 -120 -52 14 -113
169 -152 318 -109 416 28 63 120 157 216 222 44 29 82 52 84 50 2 -3 -20 -40
-49 -83z"/>
<path d="M1176 790 c-33 -6 -64 -15 -68 -22 -9 -12 -5 -144 3 -153 3 -2 22 0
44 5 64 15 246 12 301 -5 66 -20 90 -19 229 10 66 14 121 25 123 25 1 0 2 34
2 76 0 67 -2 75 -17 70 -10 -2 -73 -12 -140 -21 -112 -16 -127 -16 -200 -1
-102 22 -203 27 -277 16z m617 -67 c3 -32 5 -58 4 -59 -1 -1 -59 -10 -129 -20
-115 -16 -134 -17 -205 -4 -43 8 -135 15 -205 15 l-128 -1 0 48 c0 46 1 47 38
55 62 13 242 7 299 -10 55 -17 107 -13 243 17 36 8 68 14 71 15 3 1 9 -25 12
-56z"/>
<path d="M1201 488 c-98 -10 -104 -16 -99 -100 2 -37 6 -69 9 -73 3 -3 30 -1
59 5 66 13 189 12 255 -1 103 -21 138 -21 254 1 64 13 120 27 125 31 13 12 -2
11 -114 -6 -122 -19 -174 -19 -279 1 -61 12 -114 15 -184 11 l-98 -6 3 46 c3
42 6 47 33 55 56 16 219 12 294 -8 l72 -18 129 25 130 26 1 -36 c0 -20 4 -45
9 -56 6 -14 9 -2 9 43 1 73 14 69 -149 46 -108 -16 -122 -16 -225 0 -152 24
-151 24 -234 14z"/>
</g>
</svg>
