<?xml version="1.0" standalone="no"?>
<!DOCTYPE svg PUBLIC "-//W3C//DTD SVG 20010904//EN"
 "http://www.w3.org/TR/2001/REC-SVG-20010904/DTD/svg10.dtd">
<svg version="1.0" xmlns="http://www.w3.org/2000/svg"
 width="159.000000pt" height="165.000000pt" viewBox="0 0 159.000000 165.000000"
 preserveAspectRatio="xMidYMid meet">
<metadata>
Created by potrace 1.16, written by Peter Selinger 2001-2019
</metadata>
<g transform="translate(0.000000,165.000000) scale(0.100000,-0.100000)"
fill="#000000" stroke="none">
<path d="M622 1301 c-159 -95 -269 -201 -307 -299 -39 -96 -1 -241 105 -401
55 -85 186 -248 229 -285 40 -36 30 -11 -20 49 -84 101 -189 261 -236 362 -57
121 -68 202 -35 277 40 89 180 213 330 291 42 22 50 30 41 41 -6 8 -14 14 -18
14 -3 0 -43 -22 -89 -49z"/>
<path d="M1052 1262 c-7 -5 -19 -42 -28 -83 -19 -87 -14 -170 15 -279 27 -98
26 -138 -4 -295 -14 -71 -25 -133 -25 -137 0 -9 141 -9 183 1 27 6 30 12 63
140 37 145 42 207 20 250 -8 15 -20 66 -26 114 -11 83 -10 106 16 248 6 36 6
36 -32 42 -55 9 -167 8 -182 -1z m174 -44 c-4 -13 -10 -62 -13 -110 -5 -74 -1
-106 22 -207 l28 -119 -26 -143 c-15 -78 -29 -144 -31 -147 -3 -2 -43 -1 -89
3 l-84 7 34 135 c26 103 33 146 28 179 -3 24 -10 44 -15 44 -12 0 -30 116 -30
192 0 35 5 90 11 121 l12 56 51 4 c117 8 109 9 102 -15z"/>
<path d="M467 1107 c-3 -9 55 -48 167 -114 94 -55 187 -109 206 -118 l35 -18
-40 -13 c-22 -7 -124 -39 -227 -70 -151 -47 -188 -62 -188 -76 0 -10 4 -18 9
-18 5 0 92 30 193 66 100 36 197 70 213 76 31 11 62 35 54 41 -11 10 -224 149
-305 200 -96 60 -109 65 -117 44z"/>
</g>
</svg>
