<?xml version="1.0" standalone="no"?>
<!DOCTYPE svg PUBLIC "-//W3C//DTD SVG 20010904//EN"
 "http://www.w3.org/TR/2001/REC-SVG-20010904/DTD/svg10.dtd">
<svg version="1.0" xmlns="http://www.w3.org/2000/svg"
 width="190.000000pt" height="135.000000pt" viewBox="0 0 190.000000 135.000000"
 preserveAspectRatio="xMidYMid meet">
<metadata>
Created by potrace 1.16, written by Peter Selinger 2001-2019
</metadata>
<g transform="translate(0.000000,135.000000) scale(0.100000,-0.100000)"
fill="#000000" stroke="none">
<path d="M364 1034 c38 -98 31 -192 -21 -308 -59 -131 -56 -261 10 -379 31
-56 39 -45 11 17 -55 120 -55 229 1 344 18 38 39 96 45 128 18 86 -4 214 -37
214 -10 0 -13 -6 -9 -16z"/>
<path d="M840 1010 c-6 -11 -17 -20 -24 -20 -8 0 -16 -6 -19 -13 -9 -23 -117
-70 -172 -75 -52 -4 -55 -3 -104 43 -42 39 -51 44 -51 28 0 -25 70 -90 105
-99 47 -12 114 3 166 35 59 36 59 36 59 12 0 -14 -6 -17 -25 -13 -14 2 -25 0
-25 -6 0 -5 11 -17 25 -26 24 -16 25 -19 25 -137 0 -78 4 -118 10 -114 6 3 10
50 10 106 0 54 3 99 8 99 4 0 31 -16 60 -35 51 -35 52 -36 52 -85 l0 -50 -62
-31 c-74 -37 -90 -48 -82 -60 3 -5 32 5 64 21 33 17 63 30 67 30 4 0 7 -35 6
-77 -1 -54 1 -70 7 -53 4 14 8 52 9 85 1 60 1 60 42 82 l42 23 -6 -88 c-4 -48
-7 -97 -7 -109 0 -20 -5 -23 -44 -23 -39 0 -57 9 -142 70 l-98 70 -103 0
c-114 0 -109 -4 -115 79 -2 19 -8 36 -13 38 -7 2 -10 -28 -7 -90 6 -125 -13
-194 -83 -300 -30 -47 3 -29 36 19 36 53 67 135 71 188 l2 36 52 0 c28 0 79 3
113 6 50 6 61 4 61 -8 0 -8 35 -37 77 -64 42 -27 83 -55 90 -63 11 -10 35 -12
111 -6 156 11 178 13 371 34 101 12 188 21 193 21 5 0 7 4 3 10 -3 5 -11 7
-18 5 -33 -10 -207 -15 -207 -5 0 5 7 10 15 10 12 0 13 4 4 19 -9 14 -9 53 -1
164 15 178 15 237 2 237 -5 0 -10 -11 -10 -25 0 -21 -24 -45 -44 -45 -3 0 -6
20 -6 45 l0 46 33 -5 c82 -13 147 -17 147 -9 0 5 -39 15 -87 21 -49 7 -187 26
-308 42 -261 36 -261 36 -275 10z m81 -16 l35 -6 -3 -61 c-2 -34 -6 -77 -9
-94 l-5 -33 -54 37 c-54 35 -55 37 -55 85 0 72 15 84 91 72z m123 -112 c-3
-54 -7 -107 -10 -120 l-5 -23 -29 21 c-27 19 -30 26 -30 79 0 32 3 78 6 102 6
44 7 45 39 41 l33 -4 -4 -96z m107 13 c-3 -118 -9 -133 -52 -156 l-39 -19 0
57 c0 32 3 89 7 126 l6 68 40 -3 41 -3 -3 -70z m72 -12 c-5 -74 -18 -103 -45
-103 -10 0 -10 69 -2 134 6 39 10 46 30 46 22 0 22 -2 17 -77z m87 42 c0 -55
-13 -86 -43 -101 l-30 -16 6 38 c4 22 7 55 7 75 0 34 1 35 30 31 23 -3 30 -9
30 -27z m65 -92 c-2 -16 -7 -85 -11 -155 -3 -71 -9 -128 -13 -128 -4 0 -15 6
-25 13 -17 13 -18 23 -9 142 8 106 13 130 28 141 28 21 35 17 30 -13z m-80
-132 c-4 -61 -11 -111 -15 -111 -4 0 -18 8 -30 18 -21 17 -22 23 -15 100 7 76
9 84 34 96 14 8 28 13 29 11 2 -2 1 -53 -3 -114z m-83 -1 l-4 -69 -24 15 c-19
13 -24 25 -24 60 0 30 5 46 18 53 33 20 37 12 34 -59z m-210 22 l28 -18 -35
-17 -35 -17 0 35 c0 40 5 42 42 17z m138 -17 c0 -28 -3 -30 -32 -14 -21 11
-21 12 -3 25 27 20 35 17 35 -11z m-39 -41 c39 -24 41 -28 35 -62 -3 -21 -6
-58 -6 -84 l0 -48 -45 0 -45 0 0 43 c0 54 12 177 17 177 2 0 22 -12 44 -26z
m105 -102 c-3 -25 -6 -53 -6 -63 0 -14 -7 -19 -25 -19 -24 0 -25 3 -25 59 0
82 5 93 37 78 23 -10 25 -15 19 -55z m62 11 c15 -14 19 -26 15 -55 -5 -34 -8
-38 -34 -38 -28 0 -29 1 -29 55 0 60 12 69 48 38z m69 -38 c27 -19 20 -45 -13
-45 -20 0 -24 5 -24 30 0 34 6 36 37 15z"/>
</g>
</svg>
