<?xml version="1.0" standalone="no"?>
<!DOCTYPE svg PUBLIC "-//W3C//DTD SVG 20010904//EN"
 "http://www.w3.org/TR/2001/REC-SVG-20010904/DTD/svg10.dtd">
<svg version="1.0" xmlns="http://www.w3.org/2000/svg"
 width="171.000000pt" height="165.000000pt" viewBox="0 0 171.000000 165.000000"
 preserveAspectRatio="xMidYMid meet">
<metadata>
Created by potrace 1.16, written by Peter Selinger 2001-2019
</metadata>
<g transform="translate(0.000000,165.000000) scale(0.100000,-0.100000)"
fill="#000000" stroke="none">
<path d="M1063 1255 l-152 -95 -89 0 c-115 0 -116 -1 -107 -125 l7 -96 87 2
86 2 90 -55 c100 -60 219 -128 227 -128 6 0 4 -29 14 308 4 168 3 282 -2 282
-5 0 -77 -43 -161 -95z m137 -206 c0 -143 -4 -259 -8 -257 -5 2 -74 46 -155
98 l-147 95 4 65 c2 36 5 67 5 69 1 3 5 1 10 -5 12 -12 123 -5 115 7 -3 5 -26
9 -51 9 l-46 0 114 76 c63 42 121 83 129 90 8 8 18 14 22 14 4 0 8 -117 8
-261z m-330 6 l0 -85 -65 0 -65 0 0 79 0 80 53 4 c28 2 58 4 65 5 9 2 12 -21
12 -83z"/>
<path d="M1060 1200 c0 -5 25 -10 55 -10 30 0 55 5 55 10 0 6 -25 10 -55 10
-30 0 -55 -4 -55 -10z"/>
<path d="M1060 1170 c0 -5 25 -10 55 -10 30 0 55 5 55 10 0 6 -25 10 -55 10
-30 0 -55 -4 -55 -10z"/>
<path d="M1060 1126 c0 -12 9 -16 38 -15 20 0 46 4 57 9 16 7 11 9 -22 9 -23
1 -48 4 -57 7 -11 4 -16 1 -16 -10z"/>
<path d="M910 1080 c0 -5 24 -10 54 -10 30 0 58 5 61 10 4 6 -17 10 -54 10
-34 0 -61 -4 -61 -10z"/>
<path d="M1060 1070 c0 -5 25 -10 55 -10 30 0 55 5 55 10 0 6 -25 10 -55 10
-30 0 -55 -4 -55 -10z"/>
<path d="M910 1040 c0 -6 27 -10 60 -10 33 0 60 4 60 10 0 6 -27 10 -60 10
-33 0 -60 -4 -60 -10z"/>
<path d="M1060 1020 c0 -5 25 -10 55 -10 30 0 55 5 55 10 0 6 -25 10 -55 10
-30 0 -55 -4 -55 -10z"/>
<path d="M915 990 c-4 -6 17 -10 54 -10 34 0 61 4 61 10 0 6 -24 10 -54 10
-30 0 -58 -4 -61 -10z"/>
<path d="M1060 984 c0 -15 43 -17 95 -4 l30 8 -30 2 c-16 2 -45 4 -62 6 -23 1
-33 -2 -33 -12z"/>
<path d="M1060 940 c0 -5 25 -10 55 -10 30 0 55 5 55 10 0 6 -25 10 -55 10
-30 0 -55 -4 -55 -10z"/>
<path d="M1060 890 c0 -6 27 -10 60 -10 33 0 60 4 60 10 0 6 -27 10 -60 10
-33 0 -60 -4 -60 -10z"/>
<path d="M588 822 c-1 -5 -67 -42 -145 -83 -117 -61 -143 -78 -143 -96 0 -20
106 -102 268 -206 69 -45 242 -137 256 -137 14 0 26 123 26 263 l0 67 205 2
c113 1 231 2 263 3 l57 0 3 -62 c4 -83 22 -81 23 2 1 36 2 79 3 96 0 17 -1 34
-4 39 -3 4 -30 4 -60 -1 -105 -16 -386 -39 -558 -45 l-173 -7 7 86 c5 74 4 87
-9 87 -8 0 -17 -4 -19 -8z m-1 -159 c-2 -2 -55 -2 -116 -1 l-112 3 113 65 113
65 3 -64 c2 -35 1 -65 -1 -68z m790 3 c-7 -18 -82 -20 -192 -6 -52 6 -55 7
-20 9 22 2 76 8 120 15 82 13 102 9 92 -18z m-557 -191 c0 -85 -3 -155 -6
-155 -22 0 -444 276 -459 300 -4 6 81 9 230 9 l235 0 0 -154z"/>
</g>
</svg>
