<?xml version="1.0" standalone="no"?>
<!DOCTYPE svg PUBLIC "-//W3C//DTD SVG 20010904//EN"
 "http://www.w3.org/TR/2001/REC-SVG-20010904/DTD/svg10.dtd">
<svg version="1.0" xmlns="http://www.w3.org/2000/svg"
 width="160.000000pt" height="135.000000pt" viewBox="0 0 160.000000 135.000000"
 preserveAspectRatio="xMidYMid meet">
<metadata>
Created by potrace 1.16, written by Peter Selinger 2001-2019
</metadata>
<g transform="translate(0.000000,135.000000) scale(0.100000,-0.100000)"
fill="#000000" stroke="none">
<path d="M683 1031 c-10 -16 2 -28 115 -108 130 -93 245 -169 263 -175 6 -2 3
-17 -8 -37 -18 -33 -18 -33 -77 -27 -32 3 -128 6 -212 6 l-154 0 0 65 c0 53
-3 65 -16 65 -14 0 -15 -10 -12 -65 3 -57 2 -65 -14 -65 -15 0 -18 9 -18 65 0
51 -3 65 -15 65 -12 0 -15 -14 -15 -65 0 -58 -2 -65 -20 -65 -18 0 -20 7 -20
65 0 51 -3 65 -15 65 -12 0 -15 -14 -15 -65 0 -51 -3 -65 -15 -65 -12 0 -15
15 -15 75 0 60 -3 75 -15 75 -12 0 -15 -15 -15 -75 l0 -75 -45 0 c-39 0 -45
-3 -45 -21 0 -19 5 -21 45 -17 l45 3 0 -36 c0 -20 3 -71 7 -113 8 -105 23 -77
23 45 0 74 3 98 14 102 23 9 26 -2 26 -95 0 -52 4 -88 10 -88 6 0 10 38 10 94
0 83 2 94 18 92 23 -1 30 -27 31 -113 1 -42 5 -73 11 -73 6 0 10 36 10 88 0
93 3 104 26 95 11 -4 14 -27 14 -94 0 -53 4 -89 10 -89 6 0 10 38 10 95 l0 95
209 0 c208 0 209 0 215 -22 10 -40 7 -44 -51 -83 -32 -21 -115 -78 -185 -128
-110 -78 -126 -92 -116 -106 7 -9 13 -18 15 -20 1 -1 71 48 155 111 219 163
204 155 231 130 32 -30 109 -62 167 -69 l50 -6 0 178 0 177 -54 -4 c-32 -3
-76 -16 -105 -31 l-50 -26 -196 145 c-108 79 -197 144 -198 144 -1 0 -7 -8
-14 -19z m510 -275 c-36 -42 -38 -43 -60 -27 -12 9 -23 19 -23 22 0 8 90 48
108 49 7 0 -4 -20 -25 -44z m-73 -41 c43 -22 37 -35 -15 -35 -49 0 -50 1 -35
31 13 23 13 23 50 4z m20 -59 c0 -13 -76 -56 -84 -48 -13 13 -5 51 11 54 39 7
73 4 73 -6z m14 -61 c3 -13 23 -43 45 -65 21 -22 35 -40 31 -40 -22 0 -100 34
-125 55 l-30 25 28 25 c35 31 43 31 51 0z"/>
</g>
</svg>
