<?xml version="1.0" standalone="no"?>
<!DOCTYPE svg PUBLIC "-//W3C//DTD SVG 20010904//EN"
 "http://www.w3.org/TR/2001/REC-SVG-20010904/DTD/svg10.dtd">
<svg version="1.0" xmlns="http://www.w3.org/2000/svg"
 width="131.000000pt" height="140.000000pt" viewBox="0 0 131.000000 140.000000"
 preserveAspectRatio="xMidYMid meet">
<metadata>
Created by potrace 1.16, written by Peter Selinger 2001-2019
</metadata>
<g transform="translate(0.000000,140.000000) scale(0.100000,-0.100000)"
fill="#000000" stroke="none">
<path d="M320 1086 c0 -8 -6 -16 -12 -19 -14 -4 115 -180 231 -315 l71 -82
-149 -170 c-96 -109 -148 -176 -145 -185 5 -13 56 -15 353 -14 190 1 338 3
329 6 -17 4 -328 340 -328 353 0 4 77 89 170 189 94 101 170 187 170 191 0 4
-7 10 -15 13 -9 4 -72 -54 -187 -174 l-172 -179 -23 22 c-12 13 -73 93 -137
178 l-115 155 127 5 c70 3 132 4 137 2 6 -1 11 -61 12 -149 1 -80 6 -150 11
-155 10 -10 22 115 22 229 0 39 4 74 8 77 5 3 79 6 165 7 86 0 159 4 162 8 6
11 -206 21 -462 21 -186 0 -223 -2 -223 -14z m425 -558 c55 -57 124 -129 155
-161 l55 -58 -155 7 c-85 3 -156 8 -158 9 -1 1 1 66 5 145 7 121 6 143 -7 151
-8 4 -10 9 -4 9 5 0 55 -46 109 -102z m-128 -63 l1 -145 -146 0 -147 0 145
145 c80 80 145 145 145 145 0 0 1 -65 2 -145z"/>
</g>
</svg>
