<?xml version="1.0" standalone="no"?>
<!DOCTYPE svg PUBLIC "-//W3C//DTD SVG 20010904//EN"
 "http://www.w3.org/TR/2001/REC-SVG-20010904/DTD/svg10.dtd">
<svg version="1.0" xmlns="http://www.w3.org/2000/svg"
 width="134.000000pt" height="277.000000pt" viewBox="0 0 134.000000 277.000000"
 preserveAspectRatio="xMidYMid meet">
<metadata>
Created by potrace 1.16, written by Peter Selinger 2001-2019
</metadata>
<g transform="translate(0.000000,277.000000) scale(0.100000,-0.100000)"
fill="#000000" stroke="none">
<path d="M311 2461 c-11 -7 5 -45 82 -185 l96 -176 2 -112 1 -113 -75 -155
c-42 -85 -81 -160 -87 -167 -5 -7 -10 -19 -10 -28 0 -14 27 -15 233 -13 342 3
457 8 457 19 0 5 -22 9 -50 9 l-50 0 2 90 c0 50 2 90 4 90 1 0 25 -43 53 -95
29 -52 56 -95 61 -95 10 0 -30 90 -119 267 -60 120 -61 125 -61 203 l0 81 95
176 c67 123 92 180 85 187 -6 6 -45 14 -88 18 -112 10 -615 9 -631 -1z m654
-101 c-25 -49 -47 -90 -48 -90 -2 0 -4 38 -5 84 l-2 85 28 4 c78 12 77 16 27
-83z m-451 69 c2 -2 7 -73 10 -156 7 -135 6 -153 -8 -153 -9 0 -24 17 -34 38
-16 31 -18 55 -14 158 4 110 6 120 23 119 10 -1 20 -3 23 -6z m76 -37 c0 -26
3 -98 7 -159 l6 -113 -26 0 -27 0 0 158 c0 151 1 158 20 159 17 2 20 -4 20
-45z m94 -13 c3 -34 6 -106 6 -160 l0 -99 -35 0 -35 0 0 160 0 160 29 0 c27 0
28 -2 35 -61z m99 -36 c4 -54 7 -129 7 -166 l0 -68 -37 3 -38 4 -3 162 -2 162
33 0 34 0 6 -97z m109 -10 c3 -97 1 -114 -21 -165 -17 -41 -30 -58 -43 -58
-17 0 -18 12 -18 165 l0 165 39 0 39 0 4 -107z m-452 48 c0 -26 3 -70 6 -97
l6 -49 -51 93 c-28 51 -51 94 -51 97 0 3 20 5 45 5 l45 0 0 -49z m390 -387 l0
-96 -31 6 c-17 3 -89 6 -160 6 l-129 0 0 90 0 90 160 0 160 0 0 -96z m27 -161
c29 -54 32 -66 35 -176 l3 -117 -42 0 -42 0 -3 175 c-2 114 1 175 7 175 6 0
25 -26 42 -57z m-267 -5 c0 -29 3 -104 7 -165 l6 -113 -26 0 -27 0 0 165 c0
158 1 165 20 165 17 0 20 -7 20 -52z m94 -25 c3 -42 6 -116 6 -165 l0 -88 -35
0 -35 0 0 165 0 165 29 0 c28 0 28 -1 35 -77z m99 -35 c4 -62 7 -139 7 -170
l0 -58 -40 0 -40 0 0 170 0 170 33 0 34 0 6 -112z m-258 -70 l7 -148 -31 0
-31 0 0 105 c0 87 4 112 22 150 12 24 23 44 24 42 1 -1 5 -68 9 -149z m-81
-75 l7 -73 -46 0 c-26 0 -45 4 -43 8 7 18 73 141 74 139 1 -1 5 -35 8 -74z"/>
<path d="M311 1247 c-8 -11 11 -54 83 -188 l95 -174 1 -115 2 -115 -86 -170
c-47 -93 -86 -173 -86 -177 0 -10 568 -8 640 2 55 7 53 9 -30 14 -12 1 -15 19
-17 89 -1 48 0 87 2 87 2 0 28 -43 57 -95 87 -157 66 -77 -31 118 l-91 182 0
83 0 82 96 176 c89 161 95 176 79 188 -20 14 -269 26 -546 26 -118 0 -159 -3
-168 -13z m478 -264 l1 -83 -40 0 -40 0 0 159 0 160 33 3 32 3 7 -80 c3 -44 6
-117 7 -162z m103 140 c3 -97 1 -114 -20 -165 -18 -41 -30 -58 -43 -58 -18 0
-19 11 -19 165 l0 165 39 0 39 0 4 -107z m72 20 c-26 -49 -48 -89 -50 -91 -1
-2 -3 37 -3 87 l-1 91 50 0 51 0 -47 -87z m-524 30 c0 -27 3 -73 6 -103 l5
-55 -50 95 c-28 52 -50 98 -50 103 -1 4 19 7 44 7 l45 0 0 -47z m80 -6 c0 -30
3 -102 7 -160 5 -96 4 -107 -11 -107 -10 0 -23 16 -34 43 -14 34 -17 65 -14
160 4 116 4 117 28 117 22 0 24 -4 24 -53z m73 -69 c11 -198 11 -198 -18 -198
l-25 0 0 160 c0 149 1 160 18 160 17 0 20 -12 25 -122z m91 61 c3 -34 6 -106
6 -160 l0 -99 -35 0 -35 0 0 160 0 160 29 0 c27 0 28 -2 35 -61z m146 -324 l0
-46 -157 3 -158 3 -3 37 -3 37 73 3 c40 2 112 4 161 6 l87 4 0 -47z m0 -106
l0 -41 -147 6 c-82 3 -154 6 -160 6 -8 0 -13 13 -13 30 l0 29 78 4 c42 1 114
4 160 5 l82 2 0 -41z m-146 -136 c3 -42 6 -118 6 -170 l0 -93 -35 0 -35 0 0
170 0 170 29 0 c28 0 28 -1 35 -77z m99 -30 c4 -58 7 -135 7 -170 l0 -63 -40
0 -40 0 0 170 0 170 33 0 34 0 6 -107z m75 54 c28 -50 30 -62 34 -170 l3 -117
-42 0 -43 0 0 170 c0 95 4 170 9 170 5 0 23 -24 39 -53z m-268 0 c0 -24 3 -99
7 -165 l6 -122 -26 0 -27 0 0 165 c0 158 1 165 20 165 17 0 20 -7 20 -43z
m-61 -229 c1 -58 1 -58 -29 -58 l-30 0 0 108 c0 92 3 113 22 150 l23 42 6 -92
c4 -51 7 -119 8 -150z m-85 15 l7 -73 -45 0 c-25 0 -46 3 -46 6 0 9 72 145 75
142 1 -2 6 -36 9 -75z"/>
</g>
</svg>
