<?xml version="1.0" standalone="no"?>
<!DOCTYPE svg PUBLIC "-//W3C//DTD SVG 20010904//EN"
 "http://www.w3.org/TR/2001/REC-SVG-20010904/DTD/svg10.dtd">
<svg version="1.0" xmlns="http://www.w3.org/2000/svg"
 width="166.000000pt" height="128.000000pt" viewBox="0 0 166.000000 128.000000"
 preserveAspectRatio="xMidYMid meet">
<metadata>
Created by potrace 1.16, written by Peter Selinger 2001-2019
</metadata>
<g transform="translate(0.000000,128.000000) scale(0.100000,-0.100000)"
fill="#000000" stroke="none">
<path d="M302 664 c3 -175 8 -327 12 -337 8 -16 42 -17 515 -17 l506 0 4 315
3 315 -25 0 -25 0 4 -90 c2 -59 0 -90 -7 -90 -6 0 -51 40 -99 89 l-89 89 120
7 c238 15 96 25 -410 32 l-513 6 4 -319z m778 107 c0 -3 -18 -5 -41 -4 -36 1
-48 9 -119 80 l-79 78 32 5 c29 5 40 -2 120 -74 48 -44 87 -82 87 -85z m72 79
l93 -89 -65 0 -65 0 -84 90 -83 89 56 0 56 0 92 -90z m-659 -57 c17 -20 16
-20 -44 -27 -118 -12 -109 -18 -109 80 l0 86 68 -60 c37 -33 75 -69 85 -79z
m49 57 l83 -79 -45 1 c-43 0 -49 4 -119 79 l-75 79 37 0 c31 0 46 -10 119 -80z
m110 0 l83 -79 -38 -1 c-35 0 -46 8 -118 80 l-80 80 35 0 c30 0 46 -11 118
-80z m108 0 l85 -79 -38 -1 c-35 0 -46 7 -118 80 l-79 80 33 0 c26 -1 48 -15
117 -80z m121 0 l84 -79 -50 0 c-49 1 -51 2 -124 80 l-74 79 40 0 c36 0 48 -7
124 -80z m256 -109 c7 6 13 8 13 3 0 -4 -39 -46 -86 -92 -81 -77 -89 -83 -124
-80 l-38 3 83 74 c50 44 81 79 78 87 -4 10 2 11 28 4 22 -7 37 -6 46 1z m123
1 c0 -4 -38 -45 -83 -90 -80 -80 -85 -83 -124 -80 l-41 3 83 73 c54 47 82 78
78 88 -4 11 5 14 41 14 25 0 46 -3 46 -8z m40 -84 l0 -93 -89 3 -90 3 85 76
c52 46 83 81 80 89 -3 8 -1 14 4 14 6 0 10 -40 10 -92z m-856 -3 c-49 -46 -93
-84 -99 -85 -6 0 -9 33 -7 85 l3 85 97 0 96 0 -90 -85z m164 -2 l-83 -83 -70
0 -70 0 65 58 c36 31 76 69 90 84 22 23 32 26 88 25 l62 -2 -82 -82z m118 0
c-79 -78 -87 -83 -128 -83 l-42 0 84 83 c80 78 88 83 128 83 l43 0 -85 -83z
m122 0 c-84 -84 -85 -84 -130 -81 l-46 3 84 73 c46 41 82 77 79 82 -3 5 18 9
46 8 l52 0 -85 -85z m105 0 c-76 -71 -93 -83 -123 -83 l-35 0 85 83 c76 74 89
83 123 83 l37 0 -87 -83z m-459 -150 c109 -101 155 -147 151 -153 -2 -3 -20
-5 -39 -5 -32 2 -47 13 -130 101 l-94 100 36 -3 c25 -2 48 -14 76 -40z m105 5
c82 -75 161 -153 161 -159 0 -4 -18 -5 -40 -3 -36 4 -50 14 -129 97 -49 50
-87 95 -85 98 9 15 60 -2 93 -33z m232 -123 c36 -38 37 -40 16 -43 -38 -5 -59
10 -150 105 -86 89 -88 92 -60 95 23 3 40 -7 92 -57 36 -33 81 -78 102 -100z
m64 60 l110 -104 -53 -1 c-48 0 -56 3 -80 33 -15 17 -58 65 -96 105 l-69 72
39 0 c36 0 48 -9 149 -105z m115 0 l105 -105 -45 1 c-44 0 -47 2 -143 104
l-99 105 39 0 c35 -1 47 -10 143 -105z m157 0 c61 -58 114 -105 118 -105 12 0
-54 77 -123 145 l-67 65 101 0 101 0 7 -106 c4 -58 5 -108 2 -111 -3 -3 -43
-2 -89 2 l-84 7 -36 47 c-20 26 -62 71 -92 100 -30 29 -55 54 -55 57 0 2 24 4
53 4 l53 0 111 -105z m-722 0 l100 -94 -107 -1 -108 0 0 95 c0 52 3 95 8 95 4
0 52 -43 107 -95z"/>
</g>
</svg>
