<?xml version="1.0" standalone="no"?>
<!DOCTYPE svg PUBLIC "-//W3C//DTD SVG 20010904//EN"
 "http://www.w3.org/TR/2001/REC-SVG-20010904/DTD/svg10.dtd">
<svg version="1.0" xmlns="http://www.w3.org/2000/svg"
 width="166.000000pt" height="116.000000pt" viewBox="0 0 166.000000 116.000000"
 preserveAspectRatio="xMidYMid meet">
<metadata>
Created by potrace 1.16, written by Peter Selinger 2001-2019
</metadata>
<g transform="translate(0.000000,116.000000) scale(0.100000,-0.100000)"
fill="#000000" stroke="none">
<path d="M302 602 c3 -193 8 -265 18 -277 11 -13 69 -15 511 -13 l498 3 7 263
6 262 -24 1 c-12 0 -32 2 -43 5 -11 2 -235 7 -499 10 l-479 7 5 -261z m944
176 c-26 -29 -68 -79 -94 -110 -44 -55 -50 -58 -92 -58 l-44 0 39 43 c22 23
62 65 89 94 26 28 46 56 42 61 -6 10 10 13 88 20 14 2 7 -11 -28 -50z m-196
33 c0 -6 -5 -13 -10 -16 -6 -4 -45 -46 -86 -93 -70 -80 -80 -87 -115 -89 l-39
-1 83 89 c45 50 81 97 81 105 -1 10 10 14 42 14 24 0 44 -4 44 -9z m28 -96
c-87 -98 -95 -105 -130 -105 -21 0 -38 3 -38 6 0 4 37 45 83 91 45 47 81 91
81 99 -1 10 11 14 48 14 l49 0 -93 -105z m-609 24 c-35 -39 -74 -84 -87 -100
-13 -16 -28 -29 -33 -29 -5 0 -9 45 -9 100 l0 100 96 0 96 0 -63 -71z m144
-29 l-88 -100 -68 0 -69 0 73 81 c41 44 81 89 89 99 12 16 28 19 83 20 l68 0
-88 -100z m156 43 c-30 -32 -70 -76 -89 -98 -29 -35 -39 -40 -77 -41 -24 0
-43 2 -43 5 0 3 39 46 88 97 83 87 89 91 132 93 l44 1 -55 -57z m132 10 c-124
-144 -124 -144 -174 -148 -26 -1 -47 0 -47 4 0 3 38 44 84 90 47 47 83 88 80
93 -3 4 18 8 46 8 l52 0 -41 -47z m399 -68 l0 -85 -87 0 -88 0 85 85 c47 47
86 85 87 85 2 0 3 -38 3 -85z m-847 -116 c2 -2 14 -20 27 -39 13 -19 57 -70
99 -112 l76 -78 -46 0 c-44 0 -47 2 -124 89 -44 49 -88 103 -98 120 l-19 32
41 -4 c23 -2 43 -6 44 -8z m146 -47 c21 -32 69 -86 105 -120 l67 -62 -45 0
c-42 0 -47 3 -112 73 -70 76 -124 144 -124 159 0 4 16 8 35 8 31 0 38 -6 74
-58z m92 21 c13 -21 61 -77 107 -125 l84 -86 -43 5 c-39 4 -52 13 -112 76 -63
66 -127 148 -127 161 0 3 15 6 34 6 29 0 38 -6 57 -37z m139 -20 c19 -30 68
-86 109 -124 l75 -69 -52 0 c-52 0 -54 1 -115 66 -68 73 -137 161 -137 175 0
5 19 9 43 9 40 -1 44 -4 77 -57z m114 2 c21 -30 71 -86 112 -125 l74 -70 -52
1 c-52 0 -54 1 -103 60 -124 147 -145 174 -145 181 0 4 17 8 38 8 36 0 42 -4
76 -55z m155 8 c35 -56 177 -200 187 -190 4 3 -24 39 -61 79 -37 40 -81 92
-97 116 l-29 42 99 0 99 0 7 -126 c3 -70 5 -129 3 -131 -3 -2 -40 -1 -83 3
l-79 7 -75 84 c-77 86 -120 142 -120 155 0 4 27 8 59 8 l59 0 31 -47z m-728
-10 c17 -27 64 -78 103 -115 l71 -68 -108 0 -108 0 2 115 c1 63 3 115 5 115 2
0 17 -21 35 -47z"/>
</g>
</svg>
