<?xml version="1.0" standalone="no"?>
<!DOCTYPE svg PUBLIC "-//W3C//DTD SVG 20010904//EN"
 "http://www.w3.org/TR/2001/REC-SVG-20010904/DTD/svg10.dtd">
<svg version="1.0" xmlns="http://www.w3.org/2000/svg"
 width="166.000000pt" height="116.000000pt" viewBox="0 0 166.000000 116.000000"
 preserveAspectRatio="xMidYMid meet">
<metadata>
Created by potrace 1.16, written by Peter Selinger 2001-2019
</metadata>
<g transform="translate(0.000000,116.000000) scale(0.100000,-0.100000)"
fill="#000000" stroke="none">
<path d="M302 603 c3 -196 7 -265 17 -277 12 -14 67 -16 500 -15 267 0 493 3
501 7 13 6 16 48 19 265 l3 257 -23 1 c-13 0 -33 2 -44 5 -11 2 -235 7 -499
10 l-479 7 5 -260z m996 115 c3 -89 1 -108 -10 -108 -8 0 -54 45 -103 100 -80
90 -106 111 -107 86 0 -4 37 -48 82 -97 l81 -89 -69 0 -69 0 -84 96 c-46 53
-85 100 -87 104 -2 4 66 9 150 9 84 1 154 4 157 7 3 3 17 4 30 2 25 -3 26 -4
29 -110z m-830 50 c20 -24 61 -69 91 -100 l54 -58 -44 0 c-41 0 -47 3 -86 53
-23 28 -60 70 -83 92 -22 21 -40 43 -40 47 0 4 16 8 35 8 29 0 42 -8 73 -42z
m89 36 c-3 -4 32 -48 78 -98 l85 -91 -37 -3 c-40 -4 -46 1 -174 151 l-41 47
48 0 c26 0 45 -3 41 -6z m103 -3 c0 -4 39 -49 86 -100 l86 -91 -40 0 c-33 0
-45 6 -64 29 -13 16 -52 61 -87 100 l-63 71 41 0 c23 0 41 -4 41 -9z m126 2
c-3 -4 35 -49 86 -100 l93 -93 -51 0 c-50 0 -50 0 -120 78 -38 42 -78 87 -88
100 l-19 22 53 0 c29 0 50 -3 46 -7z m121 0 c-4 -3 32 -48 79 -100 l86 -93
-44 0 c-40 0 -48 4 -76 40 -18 21 -57 66 -88 100 l-56 60 53 0 c29 0 49 -3 46
-7z m-482 -113 l80 -80 -83 0 -82 0 0 80 c0 44 1 80 3 80 1 0 38 -36 82 -80z
m413 -118 c-32 -43 -76 -93 -136 -155 -55 -58 -69 -68 -95 -65 l-29 3 55 62
c30 34 69 82 86 107 37 53 53 64 98 64 30 0 32 -2 21 -16z m130 8 c-2 -6 -47
-60 -102 -120 -97 -109 -99 -110 -143 -110 l-45 0 55 60 c30 32 74 86 97 120
43 60 43 60 92 60 29 0 48 -4 46 -10z m113 -7 c-5 -10 -51 -63 -102 -118 -79
-86 -97 -101 -130 -106 -22 -3 -39 -3 -39 1 0 3 29 39 65 79 36 41 78 94 93
118 26 41 29 43 75 43 42 0 47 -2 38 -17z m170 0 c-5 -10 -49 -61 -99 -114
-49 -53 -91 -101 -93 -108 -3 -8 -27 -11 -74 -9 l-70 3 62 66 c33 37 78 92 98
123 l38 56 74 0 c67 0 73 -2 64 -17z m49 -36 c0 -30 3 -88 6 -130 l7 -76 -109
6 c-60 3 -111 7 -113 9 -2 2 20 30 50 61 31 32 75 86 99 121 24 34 48 62 52
62 4 0 8 -24 8 -53z m-818 6 c-17 -21 -58 -67 -91 -103 l-60 -65 0 80 c-1 128
-3 125 96 125 l85 0 -30 -37z m136 27 c-1 -5 -46 -57 -98 -114 -88 -97 -98
-104 -133 -105 l-39 -1 60 69 c33 38 74 90 92 115 31 43 37 46 78 46 24 0 42
-4 40 -10z m91 -27 c-18 -21 -65 -73 -104 -115 -65 -71 -75 -78 -110 -78 l-37
0 58 63 c33 34 75 86 94 115 34 50 36 51 84 52 l48 0 -33 -37z"/>
</g>
</svg>
