<?xml version="1.0" standalone="no"?>
<!DOCTYPE svg PUBLIC "-//W3C//DTD SVG 20010904//EN"
 "http://www.w3.org/TR/2001/REC-SVG-20010904/DTD/svg10.dtd">
<svg version="1.0" xmlns="http://www.w3.org/2000/svg"
 width="168.000000pt" height="152.000000pt" viewBox="0 0 168.000000 152.000000"
 preserveAspectRatio="xMidYMid meet">
<metadata>
Created by potrace 1.16, written by Peter Selinger 2001-2019
</metadata>
<g transform="translate(0.000000,152.000000) scale(0.100000,-0.100000)"
fill="#000000" stroke="none">
<path d="M1007 1070 c-85 -82 -194 -195 -242 -250 -49 -55 -91 -100 -95 -100
-4 0 -30 29 -57 65 -53 69 -283 323 -294 324 -4 1 -10 -11 -14 -26 -6 -24 10
-42 177 -210 l183 -183 -177 0 c-151 0 -177 -2 -182 -16 -3 -9 -6 -18 -6 -20
0 -7 93 -4 180 6 47 5 107 12 134 15 l50 6 -76 -83 c-111 -123 -238 -277 -238
-288 0 -6 10 -10 23 -10 17 0 36 18 73 69 117 163 234 310 234 294 0 -10 31
-44 68 -75 37 -32 115 -102 172 -157 58 -54 107 -97 109 -95 6 5 -50 67 -171
192 l-111 112 204 0 c112 0 236 3 274 7 127 12 20 22 -254 23 -140 0 -257 2
-259 5 -8 8 46 73 192 229 78 83 165 178 193 211 29 32 54 57 56 54 55 -66
139 -236 162 -324 22 -86 19 -151 -11 -241 -26 -78 -86 -207 -126 -273 -32
-52 0 -34 45 25 47 62 109 181 136 261 37 110 25 224 -39 377 -43 102 -120
226 -141 226 -10 0 -87 -67 -172 -150z"/>
<path d="M946 913 c-3 -3 -6 -13 -6 -21 0 -13 20 -14 147 -8 134 6 164 10 152
20 -8 6 -286 15 -293 9z"/>
<path d="M860 768 c0 -21 1 -21 158 -14 206 9 292 17 292 27 0 5 -101 9 -225
9 -224 0 -225 0 -225 -22z"/>
</g>
</svg>
