<?xml version="1.0" standalone="no"?>
<!DOCTYPE svg PUBLIC "-//W3C//DTD SVG 20010904//EN"
 "http://www.w3.org/TR/2001/REC-SVG-20010904/DTD/svg10.dtd">
<svg version="1.0" xmlns="http://www.w3.org/2000/svg"
 width="161.000000pt" height="88.000000pt" viewBox="0 0 161.000000 88.000000"
 preserveAspectRatio="xMidYMid meet">
<metadata>
Created by potrace 1.16, written by Peter Selinger 2001-2019
</metadata>
<g transform="translate(0.000000,88.000000) scale(0.100000,-0.100000)"
fill="#000000" stroke="none">
<path d="M762 552 c-85 -23 -99 -25 -151 -14 -113 23 -222 10 -258 -31 -17
-20 -17 -20 2 -12 67 27 94 34 123 35 l34 0 -48 -36 c-49 -37 -50 -38 -136
-18 -21 5 -28 3 -28 -8 0 -11 21 -19 74 -28 59 -10 80 -19 101 -40 l26 -28
-38 -6 c-52 -9 -113 -37 -113 -51 0 -9 11 -7 38 5 49 24 128 31 143 13 14 -16
33 -18 23 -2 -5 9 4 9 32 3 59 -13 119 -8 229 19 57 15 177 33 280 42 188 18
257 33 98 21 l-93 -7 0 45 c0 25 -5 48 -11 51 -19 12 -23 -4 -12 -49 l10 -44
-43 -4 -43 -3 -6 47 c-9 66 -30 63 -22 -2 l6 -50 -37 0 c-20 0 -78 -11 -127
-25 -157 -43 -258 -32 -317 37 l-38 43 41 38 c30 30 46 37 62 33 67 -19 116
-17 227 9 l115 28 163 -12 c90 -7 165 -11 168 -8 7 6 -274 37 -331 36 -27 0
-92 -13 -143 -27z"/>
<path d="M830 476 c0 -29 13 -76 21 -76 5 0 9 20 9 45 0 33 -4 45 -15 45 -8 0
-15 -6 -15 -14z"/>
<path d="M717 438 c13 -67 22 -75 22 -20 1 39 -3 52 -14 52 -11 0 -13 -8 -8
-32z"/>
<path d="M540 438 c0 -34 11 -68 21 -68 5 0 9 10 9 23 0 33 -11 67 -21 67 -5
0 -9 -10 -9 -22z"/>
<path d="M620 420 c11 -58 20 -61 20 -7 0 33 -4 47 -14 47 -10 0 -12 -9 -6
-40z"/>
<path d="M302 418 c4 -12 99 -37 142 -38 36 0 3 18 -60 34 -74 19 -87 20 -82
4z"/>
</g>
</svg>
