<?xml version="1.0" standalone="no"?>
<!DOCTYPE svg PUBLIC "-//W3C//DTD SVG 20010904//EN"
 "http://www.w3.org/TR/2001/REC-SVG-20010904/DTD/svg10.dtd">
<svg version="1.0" xmlns="http://www.w3.org/2000/svg"
 width="177.000000pt" height="119.000000pt" viewBox="0 0 177.000000 119.000000"
 preserveAspectRatio="xMidYMid meet">
<metadata>
Created by potrace 1.16, written by Peter Selinger 2001-2019
</metadata>
<g transform="translate(0.000000,119.000000) scale(0.100000,-0.100000)"
fill="#000000" stroke="none">
<path d="M355 871 c-4 -13 4 -35 20 -61 l26 -41 -50 -80 -51 -79 55 -85 54
-85 -25 -37 c-14 -20 -24 -46 -22 -58 4 -29 60 -23 144 15 53 24 85 49 144
110 l77 79 39 -40 c80 -82 291 -209 348 -209 44 0 158 78 271 184 l90 85 -111
110 c-60 60 -143 130 -182 155 l-72 47 -127 -65 c-72 -37 -158 -89 -195 -121
-38 -30 -68 -51 -68 -46 0 17 -133 152 -174 176 -43 25 -148 65 -172 65 -7 0
-15 -9 -19 -19z m150 -66 c54 -26 171 -120 188 -151 6 -11 12 -36 13 -56 2
-35 -3 -43 -68 -103 -67 -62 -156 -114 -221 -129 -28 -7 -28 -7 -11 19 9 14
20 25 25 25 5 0 9 6 9 13 0 7 28 43 61 80 34 37 59 71 55 74 -4 4 -35 -21 -70
-56 l-63 -63 -42 72 c-22 39 -41 75 -41 80 0 4 17 37 38 73 l38 64 62 -58 c34
-33 67 -59 73 -59 6 0 -16 30 -48 68 -64 72 -113 135 -113 145 0 9 60 -10 115
-38z m726 -51 c92 -71 218 -177 218 -184 1 -12 -250 -196 -305 -223 l-61 -30
-108 73 c-121 83 -238 191 -229 214 9 24 99 94 220 171 l116 74 36 -18 c21
-11 71 -45 113 -77z"/>
</g>
</svg>
