<?xml version="1.0" standalone="no"?>
<!DOCTYPE svg PUBLIC "-//W3C//DTD SVG 20010904//EN"
 "http://www.w3.org/TR/2001/REC-SVG-20010904/DTD/svg10.dtd">
<svg version="1.0" xmlns="http://www.w3.org/2000/svg"
 width="134.000000pt" height="146.000000pt" viewBox="0 0 134.000000 146.000000"
 preserveAspectRatio="xMidYMid meet">
<metadata>
Created by potrace 1.16, written by Peter Selinger 2001-2019
</metadata>
<g transform="translate(0.000000,146.000000) scale(0.100000,-0.100000)"
fill="#000000" stroke="none">
<path d="M300 1116 c0 -53 14 -94 35 -102 8 -4 31 -3 50 0 46 9 47 31 2 23
-46 -7 -59 4 -61 49 l-1 39 63 7 c57 6 66 4 99 -18 20 -13 39 -24 43 -24 3 0
17 -18 29 -41 l23 -41 -73 3 -74 3 2 -34 c2 -19 14 -62 27 -95 14 -33 41 -103
61 -155 63 -161 76 -147 20 20 -19 57 -35 104 -35 104 0 1 31 0 69 -2 l70 -4
12 -74 c7 -41 17 -74 21 -74 8 0 3 73 -8 128 -4 21 -1 22 58 22 104 0 228 12
228 23 0 5 -54 6 -145 2 l-145 -7 -9 23 -8 24 153 6 c85 3 157 8 160 12 4 4
-67 7 -158 7 -142 0 -167 2 -172 16 -3 9 -6 17 -6 18 0 2 75 6 167 10 92 4
174 12 183 17 10 7 -48 8 -172 5 l-187 -6 -36 55 c-19 30 -40 55 -46 55 -5 0
-25 11 -42 24 -27 20 -45 24 -114 25 l-83 2 0 -45z m302 -150 c16 -24 6 -27
-59 -20 -61 6 -82 15 -83 35 0 11 135 -3 142 -15z m28 -55 c0 -5 2 -15 5 -23
4 -10 -9 -12 -62 -10 -65 4 -93 14 -93 33 0 5 34 9 75 9 41 0 75 -4 75 -9z"/>
<path d="M345 1111 c-11 -10 9 -21 38 -20 33 0 80 16 62 20 -18 4 -96 4 -100
0z"/>
<path d="M345 1070 c8 -13 75 -13 95 0 11 7 -2 10 -43 10 -36 0 -56 -4 -52
-10z"/>
<path d="M630 642 c0 -5 17 -35 38 -68 38 -58 169 -190 179 -180 3 3 -25 38
-61 78 -37 40 -82 97 -99 126 -28 46 -57 68 -57 44z"/>
<path d="M574 597 c-14 -38 81 -218 135 -254 62 -42 178 -57 231 -30 50 25
132 161 88 145 -7 -3 -44 -15 -83 -28 -79 -25 -87 -30 -77 -47 5 -8 26 -3 70
17 34 16 62 25 62 21 0 -20 -64 -91 -83 -93 -65 -5 -125 -3 -148 4 -59 20
-147 149 -164 241 -7 37 -21 48 -31 24z"/>
</g>
</svg>
