<?xml version="1.0" standalone="no"?>
<!DOCTYPE svg PUBLIC "-//W3C//DTD SVG 20010904//EN"
 "http://www.w3.org/TR/2001/REC-SVG-20010904/DTD/svg10.dtd">
<svg version="1.0" xmlns="http://www.w3.org/2000/svg"
 width="219.000000pt" height="219.000000pt" viewBox="0 0 219.000000 219.000000"
 preserveAspectRatio="xMidYMid meet">
<metadata>
Created by potrace 1.16, written by Peter Selinger 2001-2019
</metadata>
<g transform="translate(0.000000,219.000000) scale(0.100000,-0.100000)"
fill="#000000" stroke="none">
<path d="M893 1883 c-10 -3 -13 -39 -13 -129 l0 -125 -59 78 c-92 121 -136
167 -149 159 -7 -4 -12 -11 -12 -15 0 -5 47 -61 105 -125 l106 -116 -80 -88
c-44 -48 -92 -104 -108 -124 -16 -21 -34 -35 -43 -33 -8 2 -67 13 -130 25 -63
11 -125 23 -136 25 -18 4 -8 18 75 100 l96 95 -98 94 c-76 74 -94 95 -80 99
10 3 76 17 148 32 229 49 173 58 -98 18 -108 -16 -118 -19 -115 -38 2 -11 9
-19 15 -18 7 2 10 -3 7 -10 -2 -7 39 -49 95 -96 l99 -84 -31 -26 c-122 -99
-163 -141 -165 -169 -2 -26 2 -30 30 -36 31 -5 139 -17 270 -30 l56 -6 55 63
c30 34 74 90 99 124 l46 62 6 -37 c3 -20 6 -64 6 -97 0 -33 3 -78 7 -99 l6
-39 431 8 c237 5 456 9 487 10 l56 0 7 134 c3 74 6 196 6 271 l0 137 -262 6
c-300 8 -717 8 -735 0z m947 -82 c0 -32 3 -86 6 -120 l7 -61 -152 0 c-150 0
-151 0 -151 23 0 18 24 36 140 101 77 43 140 82 140 88 0 5 -61 -22 -135 -61
-74 -39 -137 -71 -140 -71 -3 0 -5 34 -5 75 l0 74 83 4 c45 1 110 4 145 5 l62
2 0 -59z m-330 -39 l0 -88 -55 -27 c-31 -15 -68 -27 -83 -27 -15 0 -63 22
-107 48 l-80 48 -3 62 -3 61 93 4 c51 1 126 4 166 5 l72 2 0 -88z m-370 56 c0
-13 3 -33 6 -45 9 -34 -11 -29 -91 22 l-70 45 78 0 c73 0 77 -1 77 -22z m10
-155 c0 -17 -4 -34 -9 -37 -5 -3 -57 -3 -115 1 l-106 6 0 76 c0 131 -5 128
121 52 102 -62 109 -68 109 -98z m78 -13 c17 -11 32 -22 32 -25 0 -3 -18 -5
-40 -5 -36 0 -40 3 -40 25 0 30 5 31 48 5z m282 -20 c0 -5 -7 -10 -16 -10 -8
0 -12 5 -9 10 3 6 10 10 16 10 5 0 9 -4 9 -10z m340 -87 c0 -32 3 -89 7 -127
l6 -69 -24 5 c-13 2 -86 39 -162 82 l-138 78 6 36 c3 20 11 39 17 43 6 4 73 8
150 8 l138 2 0 -58z m-702 2 l-3 -46 -108 -49 c-59 -28 -111 -50 -115 -50 -4
0 -6 43 -4 95 l3 95 115 0 115 0 -3 -45z m113 9 c-40 -19 -75 -34 -77 -34 -2
0 -4 16 -4 35 l0 35 78 -1 77 0 -74 -35z m251 6 c3 -16 3 -30 1 -30 -5 0 -75
37 -93 49 -11 8 -2 11 36 11 50 0 52 -1 56 -30z m-66 -31 l74 -40 0 -64 0 -63
-172 5 c-95 3 -175 7 -177 9 -1 1 0 25 4 51 l6 49 92 46 c51 26 94 47 96 47 2
1 37 -17 77 -40z m334 -172 c0 -1 -54 -1 -120 1 l-120 3 0 60 0 59 120 -60
c66 -33 120 -61 120 -63z m-621 31 c1 -16 -10 -18 -101 -18 l-103 0 95 45 95
45 6 -28 c4 -15 7 -35 8 -44z"/>
<path d="M700 850 c-8 -5 -53 -19 -100 -32 -47 -13 -85 -27 -84 -33 0 -5 34
-27 75 -47 41 -21 81 -44 89 -52 13 -12 25 -11 90 5 41 11 79 24 84 29 13 13
-2 12 -84 -4 l-65 -13 -67 36 c-38 20 -68 38 -68 41 0 3 35 15 78 28 71 20 82
21 129 9 28 -8 63 -21 77 -31 25 -16 26 -19 26 -125 0 -59 3 -141 6 -182 l6
-74 -38 -22 c-76 -42 -115 -46 -204 -22 -44 12 -80 25 -80 28 0 3 30 22 68 42
l67 36 65 -13 c82 -16 97 -17 84 -4 -15 15 -158 48 -165 38 -3 -5 -44 -28 -90
-51 -46 -23 -84 -46 -84 -52 0 -5 38 -20 85 -33 47 -13 92 -27 101 -31 34 -19
130 12 173 54 15 15 16 15 16 -7 0 -13 3 -33 6 -45 l6 -23 488 0 487 0 6 128
c4 70 7 191 7 268 l0 141 -122 7 c-68 3 -288 9 -490 12 -388 7 -398 6 -398
-37 0 -23 -13 -24 -30 -4 -11 14 -42 24 -110 38 -14 3 -32 1 -40 -3z m1140
-79 c0 -32 3 -86 6 -120 l7 -61 -152 0 c-150 0 -151 0 -151 23 0 17 16 30 73
61 122 65 209 118 204 122 -3 3 -64 -24 -136 -60 -72 -36 -133 -66 -136 -66
-3 0 -5 34 -5 75 l0 74 133 4 c72 1 138 4 145 5 8 1 12 -15 12 -57z m-697 -8
c3 -27 4 -50 2 -51 -2 -2 -41 19 -86 47 l-83 51 81 0 80 0 6 -47z m367 -37 l0
-84 -53 -26 c-76 -37 -103 -34 -196 21 l-81 47 0 63 0 63 165 0 165 0 0 -84z
m-412 -33 c47 -29 52 -36 52 -68 l0 -35 -115 0 -115 0 0 84 c0 122 1 123 69
84 31 -17 80 -46 109 -65z m126 -74 c20 -12 36 -23 36 -25 0 -2 -18 -4 -40 -4
-36 0 -40 3 -40 25 0 30 0 30 44 4z m286 -19 c0 -5 -8 -10 -17 -10 -15 0 -16
2 -3 10 19 12 20 12 20 0z m340 -94 c0 -34 3 -91 6 -125 6 -57 5 -61 -13 -61
-11 0 -84 35 -162 78 l-142 77 5 35 c3 19 5 38 6 42 0 7 71 12 223 16 l77 2 0
-64z m-709 44 c5 0 9 -18 9 -41 l0 -40 -116 -55 c-64 -30 -117 -53 -118 -52
-1 2 0 44 2 95 l3 92 92 3 c51 2 98 2 105 1 8 -2 18 -3 23 -3z m119 -30 l-75
-38 -3 25 c-6 43 2 48 79 49 l74 2 -75 -38z m250 10 c0 -16 -3 -30 -6 -30 -8
0 -94 51 -94 56 0 2 23 4 50 4 49 0 50 -1 50 -30z m-60 -35 l70 -35 0 -65 0
-65 -176 0 -177 0 7 57 c4 31 8 57 9 58 1 0 40 19 87 42 47 23 91 42 98 42 7
1 44 -15 82 -34z m220 -116 l115 -60 -79 6 c-43 3 -99 5 -123 5 l-43 0 0 55
c0 30 3 55 8 54 4 0 59 -27 122 -60z m-511 -26 c1 -22 -2 -23 -94 -23 -52 0
-95 3 -95 8 0 4 39 25 88 48 l87 40 6 -25 c4 -15 7 -36 8 -48z"/>
</g>
</svg>
