<?xml version="1.0" standalone="no"?>
<!DOCTYPE svg PUBLIC "-//W3C//DTD SVG 20010904//EN"
 "http://www.w3.org/TR/2001/REC-SVG-20010904/DTD/svg10.dtd">
<svg version="1.0" xmlns="http://www.w3.org/2000/svg"
 width="173.000000pt" height="127.000000pt" viewBox="0 0 173.000000 127.000000"
 preserveAspectRatio="xMidYMid meet">
<metadata>
Created by potrace 1.16, written by Peter Selinger 2001-2019
</metadata>
<g transform="translate(0.000000,127.000000) scale(0.100000,-0.100000)"
fill="#000000" stroke="none">
<path d="M878 963 c-1 -5 -28 -16 -58 -27 -82 -28 -189 -82 -245 -124 l-49
-37 -51 17 c-27 9 -78 20 -112 24 l-63 7 0 -183 0 -183 68 6 c37 3 86 13 110
21 42 15 43 15 75 -13 17 -16 55 -42 82 -59 58 -35 246 -112 275 -112 36 0
200 72 273 120 55 35 194 141 246 186 2 2 2 7 -2 10 -3 3 -65 -31 -138 -76
-159 -99 -291 -164 -379 -186 l-65 -17 -98 59 c-54 32 -116 74 -138 93 l-40
33 36 39 c24 27 35 49 35 70 0 33 -20 78 -44 98 -9 8 -16 17 -16 21 0 9 123
94 208 144 l64 36 101 -34 c99 -33 206 -88 372 -192 109 -68 105 -66 105 -55
0 14 -193 165 -274 213 -68 41 -226 107 -258 108 -9 0 -18 -3 -20 -7z m-433
-178 c33 -9 61 -18 64 -21 4 -4 -66 -74 -74 -74 -2 0 -6 11 -9 24 -3 14 -18
38 -32 55 -30 36 -28 36 51 16z m158 -88 c31 -40 27 -90 -8 -127 -16 -16 -34
-30 -40 -30 -6 0 -31 20 -55 45 l-44 45 49 50 c28 28 56 49 64 48 8 -2 23 -15
34 -31z m-108 -187 c-5 -8 -85 -30 -110 -30 -14 0 -12 6 8 30 14 16 29 39 32
51 7 20 8 20 41 -12 18 -18 31 -35 29 -39z"/>
</g>
</svg>
