<?xml version="1.0" standalone="no"?>
<!DOCTYPE svg PUBLIC "-//W3C//DTD SVG 20010904//EN"
 "http://www.w3.org/TR/2001/REC-SVG-20010904/DTD/svg10.dtd">
<svg version="1.0" xmlns="http://www.w3.org/2000/svg"
 width="136.000000pt" height="192.000000pt" viewBox="0 0 136.000000 192.000000"
 preserveAspectRatio="xMidYMid meet">
<metadata>
Created by potrace 1.16, written by Peter Selinger 2001-2019
</metadata>
<g transform="translate(0.000000,192.000000) scale(0.100000,-0.100000)"
fill="#000000" stroke="none">
<path d="M668 1603 c-9 -10 -19 -28 -22 -40 -6 -18 -12 -21 -36 -16 -16 3 -40
3 -52 -1 -29 -8 -127 -96 -107 -96 9 0 26 11 38 24 36 38 84 60 116 52 28 -7
27 -9 -106 -142 -73 -74 -129 -134 -124 -134 6 0 87 76 180 170 93 94 166 170
161 170 -6 0 -21 -10 -34 -22 l-25 -23 12 23 c7 13 19 26 27 29 8 3 14 9 14
14 0 15 -26 10 -42 -8z"/>
<path d="M706 1414 c-88 -85 -156 -157 -152 -161 3 -4 77 64 163 150 87 86
155 158 153 161 -3 2 -77 -65 -164 -150z"/>
<path d="M825 1360 c-60 -60 -107 -112 -104 -114 3 -3 56 46 119 109 63 63
110 115 105 115 -6 0 -60 -49 -120 -110z"/>
<path d="M337 1401 c-23 -22 -39 -42 -36 -45 3 -3 25 15 49 39 54 55 45 59
-13 6z"/>
<path d="M940 1295 c-36 -36 -60 -65 -54 -65 13 0 129 118 123 124 -3 3 -34
-24 -69 -59z"/>
<path d="M340 1230 c0 -5 17 -10 38 -10 27 0 33 3 22 10 -20 13 -60 13 -60 0z"/>
<path d="M445 1218 c-11 -33 -35 -233 -35 -296 0 -137 38 -274 122 -434 42
-81 140 -199 153 -186 4 4 0 26 -10 50 -10 24 -21 58 -26 77 -14 62 -12 63
147 60 l142 -3 40 36 c22 20 50 41 61 48 12 6 21 15 21 21 0 16 -81 -33 -103
-64 -12 -15 -25 -27 -30 -27 -15 0 30 50 79 88 25 20 41 38 35 40 -16 5 -87
-43 -106 -72 l-16 -25 -46 20 c-24 10 -63 19 -86 19 -39 0 -45 4 -89 59 l-47
60 43 88 c24 48 58 123 76 166 37 90 102 167 179 212 54 32 68 51 26 35 -122
-46 -167 -101 -255 -303 -23 -54 -60 -125 -81 -157 -34 -52 -36 -60 -20 -60
13 0 36 -23 63 -62 l44 -63 64 -7 c140 -14 128 -26 -20 -21 -138 5 -148 7
-205 37 l-60 31 -29 85 c-37 111 -46 275 -22 429 9 58 16 110 16 118 0 17 -19
17 -25 1z m138 -698 c33 -12 37 -18 37 -50 0 -19 9 -55 20 -80 l20 -45 -35 40
c-35 41 -105 161 -89 154 5 -2 26 -11 47 -19z"/>
<path d="M625 1208 c-9 -24 15 -70 47 -87 24 -14 34 -13 97 2 82 19 214 78
190 84 -9 2 -43 -6 -75 -18 -167 -61 -206 -61 -237 2 -13 27 -17 30 -22 17z"/>
</g>
</svg>
