<?xml version="1.0" standalone="no"?>
<!DOCTYPE svg PUBLIC "-//W3C//DTD SVG 20010904//EN"
 "http://www.w3.org/TR/2001/REC-SVG-20010904/DTD/svg10.dtd">
<svg version="1.0" xmlns="http://www.w3.org/2000/svg"
 width="219.000000pt" height="165.000000pt" viewBox="0 0 219.000000 165.000000"
 preserveAspectRatio="xMidYMid meet">
<metadata>
Created by potrace 1.16, written by Peter Selinger 2001-2019
</metadata>
<g transform="translate(0.000000,165.000000) scale(0.100000,-0.100000)"
fill="#000000" stroke="none">
<path d="M323 1333 c-13 -8 -23 -18 -23 -22 0 -3 45 -4 100 -3 l100 4 0 -94
c0 -109 -27 -765 -35 -856 -4 -39 -2 -62 5 -62 5 0 10 12 11 28 0 15 6 101 13
192 l12 165 43 -180 c50 -211 50 -209 57 -202 4 4 -39 249 -62 347 -6 27 148
-238 180 -308 24 -52 41 -56 19 -4 -25 60 -125 269 -178 372 -43 83 -49 101
-46 145 2 28 6 139 10 247 4 134 10 201 18 209 9 9 160 15 600 21 324 4 624 9
668 11 44 2 -269 4 -695 4 -690 2 -777 0 -797 -14z"/>
</g>
</svg>
