<?xml version="1.0" standalone="no"?>
<!DOCTYPE svg PUBLIC "-//W3C//DTD SVG 20010904//EN"
 "http://www.w3.org/TR/2001/REC-SVG-20010904/DTD/svg10.dtd">
<svg version="1.0" xmlns="http://www.w3.org/2000/svg"
 width="96.000000pt" height="140.000000pt" viewBox="0 0 96.000000 140.000000"
 preserveAspectRatio="xMidYMid meet">
<metadata>
Created by potrace 1.16, written by Peter Selinger 2001-2019
</metadata>
<g transform="translate(0.000000,140.000000) scale(0.100000,-0.100000)"
fill="#000000" stroke="none">
<path d="M347 1094 c-3 -4 -1 -16 5 -27 21 -40 12 -140 -22 -238 -29 -84 -32
-103 -28 -180 4 -75 9 -96 44 -170 23 -47 62 -106 87 -134 l47 -50 44 48 c132
141 167 308 105 489 -33 96 -42 195 -20 236 7 14 8 23 1 27 -16 10 -29 -4 -36
-40 -10 -54 -29 -63 -64 -30 -15 15 -26 33 -23 40 3 10 -2 12 -16 8 -12 -3
-21 -11 -21 -18 0 -14 -38 -51 -45 -43 -3 2 -11 22 -18 43 -13 38 -27 52 -40
39z m153 -89 l23 -25 -22 -24 -23 -25 -25 30 c-24 29 -25 30 -8 49 23 25 27
25 55 -5z m70 -25 c0 -5 -4 -10 -10 -10 -5 0 -10 5 -10 10 0 6 5 10 10 10 6 0
10 -4 10 -10z m-132 -43 l22 -24 -20 -18 c-20 -18 -21 -18 -35 1 -16 22 -17
26 -9 48 8 22 17 20 42 -7z m116 17 c21 -8 21 -57 1 -74 -13 -11 -20 -9 -40
10 l-25 24 22 23 c24 26 21 25 42 17z m-49 -84 c18 -20 18 -21 -3 -42 l-21
-21 -20 24 c-18 22 -18 26 -4 42 20 22 26 21 48 -3z m-130 -49 l-27 -26 16 39
c9 21 16 41 16 45 0 3 5 -2 11 -13 9 -15 6 -23 -16 -45z m240 -37 c16 -49 16
-53 -1 -73 -10 -12 -21 -21 -25 -21 -3 0 -25 23 -49 51 l-43 51 21 20 20 20
36 -38 c44 -48 48 -29 5 21 -26 30 -29 38 -18 51 11 14 14 13 25 -8 7 -13 20
-46 29 -74z m-170 26 c17 -19 16 -20 -7 -49 l-25 -29 -21 20 -20 21 21 28 c25
34 28 35 52 9z m83 -83 c23 -23 42 -47 42 -53 0 -6 -13 -22 -28 -37 l-29 -27
-42 50 -42 50 22 30 c13 16 25 30 29 30 3 0 25 -19 48 -43z m-166 -49 l-32
-33 0 51 c0 28 3 54 7 58 4 3 18 -5 32 -19 l26 -25 -33 -32z m265 -48 c-3 -39
-13 -85 -21 -102 -9 -17 -16 -36 -16 -42 0 -16 -98 -166 -108 -166 -5 0 -27
25 -47 55 -35 51 -37 57 -25 80 7 14 17 25 20 25 4 0 26 -21 50 -46 55 -60 64
-49 11 15 l-42 50 32 41 33 40 38 -37 c45 -44 51 -35 8 14 l-30 34 26 34 c29
38 34 41 52 23 9 -9 12 -9 12 -1 0 7 -5 15 -10 18 -8 5 -7 11 1 21 20 24 22
16 16 -56z m-170 11 l42 -48 -34 -33 c-34 -33 -35 -33 -56 -14 -12 10 -30 31
-41 46 l-19 28 28 35 c15 19 30 35 33 35 3 0 24 -22 47 -49z m-73 -108 c24
-27 27 -35 16 -48 -18 -22 -25 -19 -37 18 -20 57 -26 82 -17 72 5 -5 22 -24
38 -42z"/>
</g>
</svg>
