<?xml version="1.0" standalone="no"?>
<!DOCTYPE svg PUBLIC "-//W3C//DTD SVG 20010904//EN"
 "http://www.w3.org/TR/2001/REC-SVG-20010904/DTD/svg10.dtd">
<svg version="1.0" xmlns="http://www.w3.org/2000/svg"
 width="114.000000pt" height="144.000000pt" viewBox="0 0 114.000000 144.000000"
 preserveAspectRatio="xMidYMid meet">
<metadata>
Created by potrace 1.16, written by Peter Selinger 2001-2019
</metadata>
<g transform="translate(0.000000,144.000000) scale(0.100000,-0.100000)"
fill="#000000" stroke="none">
<path d="M483 1130 c-37 -15 -63 -43 -108 -115 -65 -104 -78 -144 -73 -220 2
-36 9 -70 16 -77 9 -9 12 6 12 68 0 89 12 123 84 233 39 61 50 71 88 82 52 14
135 7 211 -17 56 -17 58 -19 73 -68 8 -28 18 -82 21 -121 4 -62 2 -74 -18
-104 -13 -19 -40 -47 -61 -64 l-36 -29 -154 -2 c-84 0 -163 3 -175 7 -18 6
-23 5 -23 -8 0 -22 41 -35 115 -35 l64 0 5 -42 c3 -24 8 -105 12 -180 3 -76
10 -138 15 -138 5 0 9 82 9 184 l0 184 68 7 c54 5 77 14 119 42 94 63 111 124
78 272 -15 62 -19 70 -55 90 -94 53 -225 76 -287 51z"/>
<path d="M456 991 c-18 -28 7 -34 113 -27 99 7 120 10 110 20 -2 2 -52 8 -110
11 -75 5 -108 4 -113 -4z"/>
<path d="M455 850 c-17 -27 9 -33 113 -26 97 6 122 10 111 20 -11 9 -219 15
-224 6z"/>
</g>
</svg>
