<?xml version="1.0" standalone="no"?>
<!DOCTYPE svg PUBLIC "-//W3C//DTD SVG 20010904//EN"
 "http://www.w3.org/TR/2001/REC-SVG-20010904/DTD/svg10.dtd">
<svg version="1.0" xmlns="http://www.w3.org/2000/svg"
 width="105.000000pt" height="234.000000pt" viewBox="0 0 105.000000 234.000000"
 preserveAspectRatio="xMidYMid meet">
<metadata>
Created by potrace 1.16, written by Peter Selinger 2001-2019
</metadata>
<g transform="translate(0.000000,234.000000) scale(0.100000,-0.100000)"
fill="#000000" stroke="none">
<path d="M566 1977 c-62 -59 -84 -93 -52 -81 11 4 7 -14 -13 -68 -123 -320
-201 -658 -201 -871 0 -222 77 -455 207 -625 36 -48 41 -32 5 20 -40 59 -74
129 -106 216 -31 88 -34 188 -11 368 38 284 120 527 279 818 39 72 50 85 62
75 11 -9 14 -8 14 4 0 20 -30 180 -36 189 -3 4 -15 3 -29 -2 -17 -7 -25 -5
-29 6 -9 24 -22 17 -90 -49z m122 -26 c11 -49 11 -49 -47 -160 l-57 -111 -12
90 c-9 62 -9 96 -2 110 14 27 12 40 -7 40 -17 0 84 79 103 80 6 0 16 -22 22
-49z m-140 -249 l21 -53 -24 -51 c-21 -46 -24 -49 -29 -27 -15 70 -16 122 -5
154 7 19 14 33 15 32 1 -1 11 -26 22 -55z m-64 -162 c15 -43 14 -47 -12 -114
l-27 -69 -8 52 c-7 40 -5 68 9 117 9 35 18 63 20 62 1 -2 9 -23 18 -48z m-83
-331 c-12 -46 -26 -131 -32 -189 -18 -178 -29 -201 -24 -50 2 79 12 181 25
245 26 139 30 149 42 109 8 -24 5 -51 -11 -115z"/>
</g>
</svg>
