<?xml version="1.0" standalone="no"?>
<!DOCTYPE svg PUBLIC "-//W3C//DTD SVG 20010904//EN"
 "http://www.w3.org/TR/2001/REC-SVG-20010904/DTD/svg10.dtd">
<svg version="1.0" xmlns="http://www.w3.org/2000/svg"
 width="101.000000pt" height="156.000000pt" viewBox="0 0 101.000000 156.000000"
 preserveAspectRatio="xMidYMid meet">
<metadata>
Created by potrace 1.16, written by Peter Selinger 2001-2019
</metadata>
<g transform="translate(0.000000,156.000000) scale(0.100000,-0.100000)"
fill="#000000" stroke="none">
<path d="M326 1251 c-3 -4 4 -17 15 -27 12 -11 48 -54 81 -96 33 -43 65 -78
70 -78 11 0 -54 102 -104 163 -40 47 -52 55 -62 38z"/>
<path d="M608 1173 c-75 -93 -101 -133 -94 -140 3 -4 7 -4 9 -2 2 2 38 46 81
97 51 62 75 97 68 104 -6 6 -28 -14 -64 -59z"/>
<path d="M415 945 c-89 -143 -108 -191 -113 -280 -4 -77 -3 -82 29 -130 20
-29 52 -59 77 -73 l42 -24 -20 -26 c-50 -66 -80 -112 -73 -112 5 0 37 31 71
69 l62 69 -50 31 c-31 19 -63 51 -86 86 -34 50 -36 59 -30 104 11 80 43 160
103 254 36 58 52 92 46 98 -7 7 -27 -16 -58 -66z"/>
<path d="M535 1009 c-3 -8 19 -52 49 -98 57 -86 91 -171 102 -254 6 -43 3 -52
-30 -102 -28 -42 -85 -93 -123 -110 -1 -1 29 -35 67 -76 38 -41 70 -70 70 -66
0 12 -37 66 -74 106 -17 18 -26 35 -21 37 38 14 80 51 105 91 25 39 30 57 30
110 0 82 -23 145 -94 263 -68 111 -73 118 -81 99z"/>
<path d="M544 776 c-8 -21 1 -212 9 -208 4 1 17 2 30 2 22 0 22 2 20 107 l-1
108 -26 3 c-17 2 -28 -2 -32 -12z m40 -52 c11 -85 8 -144 -9 -144 -12 0 -15
17 -15 95 0 100 13 127 24 49z"/>
<path d="M490 733 c-8 -2 -21 -6 -28 -9 -7 -2 -11 -8 -7 -13 7 -12 65 6 65 20
0 10 -7 10 -30 2z"/>
<path d="M370 723 c0 -11 60 -27 68 -18 8 8 -2 14 -36 21 -19 4 -32 2 -32 -3z"/>
<path d="M370 689 c0 -9 42 -29 61 -29 22 0 6 18 -26 27 -21 7 -35 7 -35 2z"/>
<path d="M483 679 c-18 -5 -33 -14 -33 -19 0 -12 0 -12 39 1 17 6 31 15 31 20
0 5 -1 9 -2 8 -2 0 -18 -5 -35 -10z"/>
<path d="M370 640 c0 -5 1 -10 3 -10 1 0 17 -4 35 -9 41 -12 42 4 1 18 -39 13
-39 13 -39 1z"/>
<path d="M471 629 c-13 -5 -21 -12 -18 -15 8 -9 67 6 67 17 0 11 -18 11 -49
-2z"/>
<path d="M370 591 c0 -12 8 -16 43 -25 37 -9 34 10 -4 23 -39 13 -39 13 -39 2z"/>
<path d="M471 589 c-13 -5 -21 -12 -18 -15 8 -9 67 6 67 17 0 11 -18 11 -49
-2z"/>
</g>
</svg>
