<?xml version="1.0" standalone="no"?>
<!DOCTYPE svg PUBLIC "-//W3C//DTD SVG 20010904//EN"
 "http://www.w3.org/TR/2001/REC-SVG-20010904/DTD/svg10.dtd">
<svg version="1.0" xmlns="http://www.w3.org/2000/svg"
 width="139.000000pt" height="123.000000pt" viewBox="0 0 139.000000 123.000000"
 preserveAspectRatio="xMidYMid meet">
<metadata>
Created by potrace 1.16, written by Peter Selinger 2001-2019
</metadata>
<g transform="translate(0.000000,123.000000) scale(0.100000,-0.100000)"
fill="#000000" stroke="none">
<path d="M376 919 c-75 -18 -76 -22 -75 -283 0 -127 4 -253 7 -281 l7 -50 170
0 c105 0 201 6 251 15 l82 14 7 114 c4 62 10 112 15 110 4 -2 60 -27 124 -57
64 -30 119 -52 121 -49 3 3 4 77 3 165 l-3 161 -122 -58 -123 -59 0 92 c0 127
-3 133 -58 146 -138 30 -322 40 -406 20z m88 -306 c3 -152 4 -278 2 -281 -3
-2 -36 -1 -75 3 l-70 7 4 76 c6 101 15 325 15 382 0 57 9 70 51 80 71 17 65
38 73 -267z m322 265 c3 -4 9 -39 12 -78 l5 -70 -152 0 -151 0 0 81 0 81 139
-4 c77 -2 143 -6 147 -10z m284 -268 l0 -140 -52 30 c-29 17 -84 47 -121 66
-38 19 -67 39 -65 44 2 7 221 137 236 140 1 0 2 -63 2 -140z m-270 29 l0 -71
-152 7 c-84 4 -155 9 -157 11 -2 2 0 28 3 58 l7 55 97 4 c53 1 121 4 150 5
l52 2 0 -71z m0 -188 l0 -98 -37 -7 c-21 -3 -92 -9 -158 -12 l-120 -7 3 106 3
106 57 4 c31 2 101 4 155 5 l97 2 0 -99z"/>
</g>
</svg>
