<?xml version="1.0" standalone="no"?>
<!DOCTYPE svg PUBLIC "-//W3C//DTD SVG 20010904//EN"
 "http://www.w3.org/TR/2001/REC-SVG-20010904/DTD/svg10.dtd">
<svg version="1.0" xmlns="http://www.w3.org/2000/svg"
 width="215.000000pt" height="123.000000pt" viewBox="0 0 215.000000 123.000000"
 preserveAspectRatio="xMidYMid meet">
<metadata>
Created by potrace 1.16, written by Peter Selinger 2001-2019
</metadata>
<g transform="translate(0.000000,123.000000) scale(0.100000,-0.100000)"
fill="#000000" stroke="none">
<path d="M304 829 c6 -104 20 -206 27 -213 2 -2 87 4 187 13 101 9 185 14 187
11 1 -3 6 -72 9 -155 4 -82 10 -159 13 -169 5 -17 13 -18 87 -13 102 8 147 17
140 29 -3 5 -50 6 -110 2 l-104 -6 0 70 c0 81 -5 77 110 87 121 10 120 25 -2
25 l-108 0 0 39 0 40 48 6 c26 3 74 10 107 15 33 4 62 6 64 4 5 -4 19 -186 20
-251 1 -18 6 -33 11 -33 6 0 10 65 10 175 0 173 0 175 23 179 12 3 72 12 132
21 210 31 650 106 670 115 l20 9 -20 0 c-11 1 -195 -22 -410 -49 -214 -27
-396 -50 -402 -50 -9 0 -13 21 -13 74 l0 74 163 6 c89 3 270 8 402 11 299 6
287 5 245 16 -19 4 -368 11 -774 15 l-739 7 7 -104z m396 -34 c0 -47 1 -88 3
-92 2 -9 -203 -30 -300 -32 l-63 -1 0 105 0 105 180 0 180 0 0 -85z m260 45
l0 -40 -64 0 c-35 0 -84 -3 -110 -6 l-46 -7 0 47 0 46 110 0 110 0 0 -40z
m-144 -76 c33 4 78 9 102 13 41 5 42 5 42 -25 0 -32 7 -30 -157 -48 l-63 -7 0
44 c0 29 3 39 9 30 7 -10 23 -12 67 -7z m144 -109 l0 -25 -110 0 c-67 0 -110
4 -110 10 0 6 8 10 18 11 18 1 195 25 200 28 1 0 2 -10 2 -24z"/>
</g>
</svg>
