<?xml version="1.0" standalone="no"?>
<!DOCTYPE svg PUBLIC "-//W3C//DTD SVG 20010904//EN"
 "http://www.w3.org/TR/2001/REC-SVG-20010904/DTD/svg10.dtd">
<svg version="1.0" xmlns="http://www.w3.org/2000/svg"
 width="163.000000pt" height="152.000000pt" viewBox="0 0 163.000000 152.000000"
 preserveAspectRatio="xMidYMid meet">
<metadata>
Created by potrace 1.16, written by Peter Selinger 2001-2019
</metadata>
<g transform="translate(0.000000,152.000000) scale(0.100000,-0.100000)"
fill="#000000" stroke="none">
<path d="M317 1212 c-17 -4 -18 -26 -16 -440 1 -239 4 -443 6 -453 10 -36 17
-31 286 224 91 87 157 142 157 132 0 -26 161 -98 230 -103 75 -5 116 9 212 74
44 30 84 51 90 48 7 -5 9 -2 5 8 -3 10 4 25 19 39 13 12 22 25 19 27 -3 3 -16
-5 -29 -17 l-24 -22 -93 96 c-51 52 -97 94 -103 92 -26 -9 -5 -38 82 -117 l93
-84 -23 -18 c-13 -10 -56 -35 -96 -55 -59 -30 -83 -36 -130 -36 -61 1 -135 26
-203 69 l-41 26 23 24 c16 17 33 24 61 24 21 0 38 5 38 10 0 6 -16 10 -36 10
-33 0 -51 14 -217 176 -226 219 -287 271 -310 266z m323 -327 c58 -48 110 -92
115 -97 6 -6 -33 -9 -113 -6 l-122 3 0 -29 0 -29 123 7 122 7 -40 -33 c-22
-18 -102 -87 -179 -153 -76 -66 -156 -136 -178 -155 l-41 -34 6 169 c4 94 10
268 13 387 l7 217 91 -83 c50 -45 138 -122 196 -171z"/>
<path d="M933 975 c-77 -21 -173 -72 -182 -98 -5 -12 -8 -23 -7 -24 1 -2 44
19 95 45 83 42 100 47 159 47 80 0 145 -28 255 -111 77 -58 107 -63 42 -8
-114 99 -231 165 -288 163 -12 0 -46 -7 -74 -14z"/>
<path d="M935 880 c-4 -6 -1 -17 5 -26 29 -33 209 -184 221 -184 8 0 -36 50
-96 110 -60 61 -113 110 -117 110 -4 0 -10 -5 -13 -10z"/>
<path d="M835 849 c-4 -5 1 -20 12 -31 37 -42 201 -178 214 -178 8 0 -36 50
-96 110 -60 61 -113 110 -117 110 -4 0 -10 -5 -13 -11z"/>
</g>
</svg>
