<?xml version="1.0" standalone="no"?>
<!DOCTYPE svg PUBLIC "-//W3C//DTD SVG 20010904//EN"
 "http://www.w3.org/TR/2001/REC-SVG-20010904/DTD/svg10.dtd">
<svg version="1.0" xmlns="http://www.w3.org/2000/svg"
 width="110.000000pt" height="156.000000pt" viewBox="0 0 110.000000 156.000000"
 preserveAspectRatio="xMidYMid meet">
<metadata>
Created by potrace 1.16, written by Peter Selinger 2001-2019
</metadata>
<g transform="translate(0.000000,156.000000) scale(0.100000,-0.100000)"
fill="#000000" stroke="none">
<path d="M412 1245 c-11 -13 -7 -31 19 -108 43 -125 49 -216 19 -296 -12 -33
-39 -90 -61 -126 -41 -71 -45 -80 -29 -70 15 9 12 0 -9 -37 -41 -69 -64 -215
-41 -257 13 -25 82 -51 133 -50 l42 0 -68 23 c-37 12 -73 28 -79 34 -20 20
-11 113 19 202 27 80 31 86 83 122 160 109 243 276 192 390 -23 53 -83 116
-150 159 -53 33 -53 33 -70 14z m115 -88 c93 -86 107 -167 48 -285 -26 -52
-55 -88 -107 -136 -39 -37 -74 -66 -79 -66 -5 0 5 20 22 45 60 89 93 175 92
240 -1 50 -31 177 -59 249 -6 16 -5 17 16 6 13 -7 43 -31 67 -53z"/>
<path d="M713 1108 c-35 -17 -63 -37 -63 -45 0 -19 9 -17 73 22 32 19 60 35
62 35 2 0 6 -37 8 -82 l3 -83 2 93 c1 68 -1 92 -10 92 -7 -1 -41 -15 -75 -32z"/>
<path d="M650 926 c0 -10 125 -76 145 -76 20 0 -6 22 -64 53 -76 41 -81 43
-81 23z"/>
</g>
</svg>
