<?xml version="1.0" standalone="no"?>
<!DOCTYPE svg PUBLIC "-//W3C//DTD SVG 20010904//EN"
 "http://www.w3.org/TR/2001/REC-SVG-20010904/DTD/svg10.dtd">
<svg version="1.0" xmlns="http://www.w3.org/2000/svg"
 width="137.000000pt" height="99.000000pt" viewBox="0 0 137.000000 99.000000"
 preserveAspectRatio="xMidYMid meet">
<metadata>
Created by potrace 1.16, written by Peter Selinger 2001-2019
</metadata>
<g transform="translate(0.000000,99.000000) scale(0.100000,-0.100000)"
fill="#000000" stroke="none">
<path d="M300 675 c0 -13 41 -15 305 -15 l305 0 0 -67 c0 -38 3 -112 7 -165
l6 -98 -311 0 c-204 0 -312 -4 -312 -10 0 -7 126 -9 373 -8 l372 3 3 181 2
181 -82 6 c-46 4 -215 7 -375 7 -254 0 -293 -2 -293 -15z m730 -73 c0 -38 3
-117 7 -176 l6 -107 -49 3 -49 3 4 165 c1 91 5 168 8 173 2 4 20 7 39 7 l34 0
0 -68z"/>
</g>
</svg>
