<?xml version="1.0" standalone="no"?>
<!DOCTYPE svg PUBLIC "-//W3C//DTD SVG 20010904//EN"
 "http://www.w3.org/TR/2001/REC-SVG-20010904/DTD/svg10.dtd">
<svg version="1.0" xmlns="http://www.w3.org/2000/svg"
 width="163.000000pt" height="223.000000pt" viewBox="0 0 163.000000 223.000000"
 preserveAspectRatio="xMidYMid meet">
<metadata>
Created by potrace 1.16, written by Peter Selinger 2001-2019
</metadata>
<g transform="translate(0.000000,223.000000) scale(0.100000,-0.100000)"
fill="#000000" stroke="none">
<path d="M1066 1912 c-9 -11 -37 -23 -60 -26 -49 -8 -128 -54 -118 -70 3 -6 5
-22 4 -36 -1 -14 9 -72 22 -130 19 -85 21 -106 11 -113 -7 -4 -30 -58 -51
-120 -43 -130 -63 -174 -94 -202 -12 -11 -32 -38 -44 -60 -19 -37 -21 -54 -20
-215 0 -147 4 -186 21 -243 l21 -69 -22 -23 c-18 -21 -31 -25 -96 -26 -61 -2
-81 2 -110 20 -45 27 -114 28 -158 1 -89 -54 -98 -191 -19 -277 18 -20 31 -23
92 -23 61 0 74 3 92 22 25 28 53 82 53 103 0 15 19 15 68 -1 34 -10 107 21
153 65 54 53 68 94 93 261 20 134 56 241 118 346 49 84 111 235 143 352 l18
62 46 1 c25 1 60 5 76 9 25 6 20 8 -27 9 -57 1 -57 1 -52 29 5 31 -7 84 -22
89 -7 2 -9 -19 -6 -57 4 -59 4 -60 -22 -60 -23 0 -26 4 -26 34 0 19 -4 38 -10
41 -6 4 -10 -10 -10 -34 l0 -41 -66 0 -66 0 74 49 c74 50 139 110 106 98 -14
-5 -19 4 -28 51 -7 31 -16 62 -21 68 -6 8 1 14 23 20 25 6 3 10 -92 14 -115 5
-122 6 -91 18 41 15 71 16 71 2 0 -21 17 -9 31 22 17 38 31 44 53 22 20 -20
35 -10 20 14 -16 25 -57 27 -78 4z m67 -225 l2 -42 -75 -42 c-41 -24 -82 -42
-90 -41 -18 4 -36 54 -45 130 l-7 56 39 7 c22 3 62 17 89 30 l49 24 18 -40
c10 -22 19 -59 20 -82z m-143 97 c-58 -18 -77 -18 -77 1 0 12 13 15 61 14 l61
0 -45 -15z m55 -354 l71 -68 -18 -54 c-10 -29 -61 -138 -114 -243 l-95 -190
-10 -105 c-13 -135 -32 -201 -71 -245 -41 -47 -77 -65 -131 -65 -49 0 -81 20
-92 59 -7 23 -6 23 41 17 62 -7 114 11 133 46 14 24 13 37 -3 131 -19 115 -23
367 -6 412 5 14 27 49 49 78 49 64 93 157 117 243 15 58 19 64 38 58 12 -4 53
-37 91 -74z m99 28 c-8 -29 -17 -60 -20 -68 -4 -11 -21 2 -60 45 l-54 60 62 6
c35 3 68 6 75 7 9 2 8 -12 -3 -50z"/>
<path d="M1072 1053 c-5 -10 -17 -50 -26 -90 -35 -156 -8 -177 58 -46 29 59
45 133 27 133 -6 0 -11 -12 -11 -28 0 -32 -68 -177 -69 -147 -1 11 8 58 19
104 20 83 21 110 2 74z"/>
</g>
</svg>
