<?xml version="1.0" standalone="no"?>
<!DOCTYPE svg PUBLIC "-//W3C//DTD SVG 20010904//EN"
 "http://www.w3.org/TR/2001/REC-SVG-20010904/DTD/svg10.dtd">
<svg version="1.0" xmlns="http://www.w3.org/2000/svg"
 width="154.000000pt" height="129.000000pt" viewBox="0 0 154.000000 129.000000"
 preserveAspectRatio="xMidYMid meet">
<metadata>
Created by potrace 1.16, written by Peter Selinger 2001-2019
</metadata>
<g transform="translate(0.000000,129.000000) scale(0.100000,-0.100000)"
fill="#000000" stroke="none">
<path d="M886 974 c-3 -9 -6 -34 -6 -56 0 -42 -28 -84 -129 -190 l-35 -38 -53
51 c-29 28 -81 63 -116 78 -71 32 -153 54 -168 46 -15 -10 -10 -35 6 -35 11 0
1 -22 -33 -72 -27 -40 -48 -84 -48 -98 -1 -14 21 -56 48 -95 35 -52 44 -71 33
-73 -20 -5 -19 -21 2 -29 46 -18 195 49 272 122 l59 56 68 -77 c38 -43 77 -86
87 -96 12 -12 17 -34 17 -70 0 -29 3 -64 7 -77 l6 -23 153 4 c85 2 158 8 164
14 6 6 13 138 17 336 l6 325 -69 6 c-38 4 -117 7 -175 7 -88 0 -108 -3 -113
-16z m314 -221 c0 -115 3 -259 7 -322 6 -103 5 -114 -10 -108 -9 3 -77 7 -151
8 l-135 1 6 297 c2 163 6 301 8 308 3 8 38 13 112 16 59 1 120 4 136 5 l27 2
0 -207z m-316 -271 c-1 -1 -34 39 -74 89 -50 63 -70 96 -64 105 5 7 36 48 69
92 l60 80 5 -182 c3 -99 5 -182 4 -184z m-339 299 c33 -17 80 -50 105 -76 l44
-45 -49 -45 c-49 -44 -144 -96 -197 -109 -24 -6 -30 0 -73 70 -25 42 -45 81
-43 88 2 6 21 44 43 84 40 72 40 73 75 68 19 -3 62 -19 95 -35z"/>
</g>
</svg>
