<?xml version="1.0" standalone="no"?>
<!DOCTYPE svg PUBLIC "-//W3C//DTD SVG 20010904//EN"
 "http://www.w3.org/TR/2001/REC-SVG-20010904/DTD/svg10.dtd">
<svg version="1.0" xmlns="http://www.w3.org/2000/svg"
 width="160.000000pt" height="443.000000pt" viewBox="0 0 160.000000 443.000000"
 preserveAspectRatio="xMidYMid meet">
<metadata>
Created by potrace 1.16, written by Peter Selinger 2001-2019
</metadata>
<g transform="translate(0.000000,443.000000) scale(0.100000,-0.100000)"
fill="#000000" stroke="none">
<path d="M900 4054 c-63 -41 -206 -129 -317 -196 -169 -100 -201 -123 -194
-137 6 -10 5 -23 0 -33 -7 -13 -4 -21 13 -31 65 -41 628 -367 633 -367 3 0 3
5 0 10 -8 13 -320 219 -484 320 -68 42 -123 80 -123 84 1 4 65 48 144 98 158
99 457 309 458 321 0 13 -14 5 -130 -69z"/>
<path d="M1110 3980 c-192 -30 -260 -43 -260 -49 0 -3 4 -13 10 -21 7 -12 30
-10 157 18 186 40 223 51 223 62 0 6 -3 10 -7 9 -5 0 -60 -9 -123 -19z"/>
<path d="M850 3740 l0 -23 196 6 c181 5 216 9 202 22 -2 3 -93 8 -201 12
l-197 6 0 -23z"/>
<path d="M865 3552 c-3 -3 -5 -13 -5 -22 0 -13 26 -20 133 -38 158 -27 269
-37 247 -24 -27 17 -366 93 -375 84z"/>
<path d="M697 3047 c-108 -54 -132 -70 -208 -147 -104 -103 -122 -134 -108
-182 14 -54 59 -114 117 -158 66 -49 355 -191 366 -179 2 2 7 164 11 360 l7
356 -32 5 c-24 4 -60 -9 -153 -55z m136 -204 c4 -115 10 -262 14 -327 l6 -120
-69 39 c-115 64 -216 126 -270 167 -54 40 -104 118 -104 161 0 27 49 77 151
152 60 44 231 135 255 135 7 0 13 -68 17 -207z"/>
<path d="M903 3023 c-12 -32 8 -36 176 -29 172 7 227 13 216 24 -4 4 -92 9
-197 12 -143 4 -192 2 -195 -7z"/>
<path d="M908 2905 c-5 -5 -8 -15 -8 -23 0 -13 27 -14 196 -10 178 5 216 9
203 23 -9 8 -384 18 -391 10z"/>
<path d="M908 2775 c-5 -5 -8 -15 -8 -23 0 -13 27 -14 196 -10 177 5 216 9
203 22 -8 9 -384 18 -391 11z"/>
<path d="M909 2659 c-8 -45 -22 -42 187 -37 177 5 216 9 203 22 -6 6 -389 20
-390 15z"/>
<path d="M902 2513 c3 -16 19 -18 178 -16 299 5 280 31 -23 32 -146 1 -158 0
-155 -16z"/>
<path d="M1245 2133 c-50 -6 -279 -44 -302 -50 -22 -5 -34 -43 -14 -43 46 0
371 80 371 91 0 5 -6 8 -12 8 -7 -1 -26 -4 -43 -6z"/>
<path d="M585 1945 l-279 -162 -1 -40 c-1 -33 4 -43 24 -55 205 -120 536 -308
543 -308 4 0 8 44 8 98 0 53 3 212 7 352 5 211 3 257 -8 266 -11 9 -76 -25
-294 -151z m272 -423 c5 -67 6 -121 3 -120 -3 2 -79 53 -170 113 -91 61 -207
135 -257 165 -51 30 -93 58 -93 62 0 3 66 47 148 96 81 50 192 122 247 160
l100 70 7 -212 c4 -116 11 -266 15 -334z"/>
<path d="M1040 1943 c-109 -5 -129 -10 -123 -34 5 -18 11 -20 62 -14 189 20
321 40 321 47 0 7 -111 8 -260 1z"/>
<path d="M918 1794 c-5 -4 -8 -14 -8 -22 0 -12 29 -14 190 -10 168 3 213 8
199 22 -8 8 -374 18 -381 10z"/>
<path d="M917 1670 c-3 -11 -2 -22 2 -25 16 -10 381 -18 381 -8 0 5 -69 17
-152 26 -84 10 -169 20 -189 22 -30 4 -38 1 -42 -15z"/>
<path d="M920 1521 c0 -24 3 -25 160 -50 194 -31 220 -34 220 -24 0 10 -25 17
-210 58 -180 40 -170 39 -170 16z"/>
<path d="M744 990 c-44 -20 -109 -56 -146 -79 -73 -46 -201 -177 -216 -220
-19 -53 35 -154 111 -208 81 -58 359 -195 371 -182 2 2 7 164 11 360 l7 356
-30 5 c-20 3 -55 -7 -108 -32z m86 -125 c0 -58 5 -194 11 -303 6 -110 9 -208
7 -220 -3 -20 -10 -17 -108 38 -187 105 -261 159 -297 220 -45 74 -43 98 10
147 64 59 145 117 218 157 l66 36 7 -261 c3 -144 10 -268 15 -276 4 -8 11 113
15 268 7 285 9 298 44 299 9 0 12 -28 12 -105z"/>
<path d="M902 933 c3 -16 19 -18 178 -16 299 4 280 31 -23 32 -146 1 -158 0
-155 -16z"/>
<path d="M908 825 c-5 -5 -8 -15 -8 -23 0 -13 28 -14 195 -10 176 5 217 9 204
22 -8 8 -384 18 -391 11z"/>
<path d="M908 694 c-5 -4 -8 -14 -8 -22 0 -13 28 -14 195 -10 175 5 217 9 204
22 -8 8 -384 18 -391 10z"/>
<path d="M908 574 c-5 -4 -8 -14 -8 -22 0 -13 28 -14 195 -10 175 5 217 9 204
22 -8 8 -384 18 -391 10z"/>
<path d="M904 433 c3 -17 18 -18 187 -15 101 1 191 5 199 9 26 11 -78 21 -237
22 -139 1 -151 0 -149 -16z"/>
</g>
</svg>
