<?xml version="1.0" standalone="no"?>
<!DOCTYPE svg PUBLIC "-//W3C//DTD SVG 20010904//EN"
 "http://www.w3.org/TR/2001/REC-SVG-20010904/DTD/svg10.dtd">
<svg version="1.0" xmlns="http://www.w3.org/2000/svg"
 width="181.000000pt" height="159.000000pt" viewBox="0 0 181.000000 159.000000"
 preserveAspectRatio="xMidYMid meet">
<metadata>
Created by potrace 1.16, written by Peter Selinger 2001-2019
</metadata>
<g transform="translate(0.000000,159.000000) scale(0.100000,-0.100000)"
fill="#000000" stroke="none">
<path d="M847 1185 l6 -104 -129 -3 -129 -3 -3 -134 -3 -134 -144 5 c-140 5
-145 4 -145 -15 0 -19 5 -20 145 -15 l145 5 2 -61 c2 -34 3 -88 3 -121 l0 -60
121 -3 121 -3 7 -37 c3 -20 6 -72 6 -114 0 -42 4 -79 9 -82 12 -8 21 55 21
157 l0 87 105 2 c58 1 122 2 143 3 35 0 37 2 44 40 3 22 7 133 7 246 1 203 1
206 -21 217 -13 7 -78 13 -152 14 l-129 3 2 108 c2 101 1 107 -18 107 -19 0
-20 -5 -14 -105z m303 -149 c0 -8 -16 -24 -35 -36 l-35 -22 -45 29 -45 28 42
6 c82 11 118 10 118 -5z m-263 -26 c-52 -33 -66 -33 -110 2 l-28 23 93 3 93 3
-48 -31z m-167 8 c0 -7 19 -24 42 -37 l41 -23 -51 -30 -51 -29 -40 23 c-38 21
-41 26 -41 66 l0 42 50 0 c33 0 50 -4 50 -12z m282 -19 c26 -17 48 -34 48 -38
0 -8 -81 -56 -95 -56 -14 0 -95 48 -95 57 0 6 79 66 89 68 2 0 26 -14 53 -31z
m146 -50 c-3 -21 -3 -21 -27 -2 l-24 20 24 17 c21 14 24 15 27 1 2 -8 2 -24 0
-36z m-25 -31 c37 -26 36 -63 -3 -83 -16 -8 -34 -15 -40 -15 -13 0 -96 59 -93
67 4 13 88 61 97 56 6 -4 23 -15 39 -25z m-248 -5 c25 -16 45 -30 45 -33 0 -3
-20 -18 -46 -33 -49 -29 -54 -29 -117 16 l-29 19 44 29 c24 16 46 29 50 29 4
0 28 -12 53 -27z m-207 -38 c-2 -1 -13 -8 -25 -14 -21 -11 -23 -10 -23 19 0
30 0 30 25 14 14 -9 24 -18 23 -19z m77 -42 c25 -16 45 -30 45 -33 0 -3 -21
-18 -46 -33 l-46 -27 -39 22 c-49 27 -49 48 -1 76 20 12 38 22 39 22 1 0 23
-12 48 -27z m259 1 c25 -14 46 -29 46 -32 0 -4 -21 -20 -47 -36 -46 -27 -48
-28 -78 -12 -40 22 -70 45 -64 49 16 14 85 57 90 57 4 0 27 -12 53 -26z m144
-50 c-3 -14 -5 -14 -23 0 l-20 16 20 16 c18 14 20 14 23 0 2 -9 2 -23 0 -32z
m-273 -31 c25 -16 45 -30 45 -33 0 -6 -88 -60 -98 -60 -4 0 -27 13 -51 29
l-44 30 48 30 c27 17 50 31 52 31 1 0 23 -12 48 -27z m245 12 c43 -22 40 -57
-7 -89 -39 -27 -47 -25 -112 23 l-22 17 43 31 c49 37 58 39 98 18z m-452 -40
c1 -1 -9 -10 -23 -19 -25 -16 -25 -16 -25 14 0 29 2 30 23 19 12 -6 23 -13 25
-14z m86 -54 l48 -29 -44 -26 c-31 -18 -59 -26 -91 -26 -46 0 -47 0 -47 33 0
26 7 36 38 54 20 12 39 22 42 22 3 1 27 -12 54 -28z m250 2 c25 -16 46 -31 46
-34 0 -11 -79 -59 -97 -59 -20 0 -93 46 -93 58 1 7 79 60 92 61 4 1 27 -11 52
-26z m148 -95 c-4 -3 -35 -4 -70 -1 l-64 6 31 19 c31 20 31 20 66 -2 41 -25
48 -11 8 15 l-27 18 25 20 24 19 7 -43 c4 -24 4 -47 0 -51z m-292 27 c17 -9
30 -18 30 -20 0 -3 -26 -5 -57 -5 l-58 1 24 19 c28 24 25 24 61 5z"/>
<path d="M1210 797 c0 -19 5 -20 145 -15 130 5 167 10 154 22 -2 2 -70 6 -151
8 -143 5 -148 4 -148 -15z"/>
</g>
</svg>
