<?xml version="1.0" standalone="no"?>
<!DOCTYPE svg PUBLIC "-//W3C//DTD SVG 20010904//EN"
 "http://www.w3.org/TR/2001/REC-SVG-20010904/DTD/svg10.dtd">
<svg version="1.0" xmlns="http://www.w3.org/2000/svg"
 width="167.000000pt" height="106.000000pt" viewBox="0 0 167.000000 106.000000"
 preserveAspectRatio="xMidYMid meet">
<metadata>
Created by potrace 1.16, written by Peter Selinger 2001-2019
</metadata>
<g transform="translate(0.000000,106.000000) scale(0.100000,-0.100000)"
fill="#000000" stroke="none">
<path d="M490 741 c0 -17 12 -19 158 -25 86 -4 181 -9 210 -13 l54 -5 -33 -34
c-18 -18 -35 -32 -38 -30 -3 2 -73 11 -156 20 -82 9 -171 19 -197 22 -43 5
-48 4 -48 -14 0 -21 -11 -19 288 -38 l104 -7 -39 -38 -38 -39 -120 14 c-250
30 -255 30 -255 8 0 -19 9 -20 138 -26 75 -4 154 -9 174 -12 l38 -6 -38 -45
c-34 -41 -40 -44 -72 -39 -19 3 -87 10 -150 16 -63 6 -127 12 -142 15 -22 4
-28 1 -28 -14 0 -20 11 -22 230 -37 98 -7 119 -17 120 -56 0 -21 10 -24 163
-43 117 -15 225 -20 215 -10 -6 7 -322 65 -350 65 -25 0 -19 21 10 36 12 6 19
14 16 17 -3 3 16 30 43 59 27 29 80 90 118 136 l69 83 145 -7 c81 -3 172 -9
204 -13 l58 -6 -140 -175 c-113 -141 -138 -177 -128 -189 10 -11 17 -7 42 23
70 87 254 351 247 357 -9 8 -749 69 -844 69 -21 0 -28 -5 -28 -19z"/>
</g>
</svg>
