<?xml version="1.0" standalone="no"?>
<!DOCTYPE svg PUBLIC "-//W3C//DTD SVG 20010904//EN"
 "http://www.w3.org/TR/2001/REC-SVG-20010904/DTD/svg10.dtd">
<svg version="1.0" xmlns="http://www.w3.org/2000/svg"
 width="234.000000pt" height="101.000000pt" viewBox="0 0 234.000000 101.000000"
 preserveAspectRatio="xMidYMid meet">
<metadata>
Created by potrace 1.16, written by Peter Selinger 2001-2019
</metadata>
<g transform="translate(0.000000,101.000000) scale(0.100000,-0.100000)"
fill="#000000" stroke="none">
<path d="M1464 699 c-3 -6 26 -43 67 -85 57 -58 76 -71 84 -61 9 12 382 93
390 85 2 -2 5 -58 7 -126 2 -84 0 -122 -8 -122 -6 0 -97 18 -203 40 -211 44
-221 45 -221 28 0 -7 -28 -41 -62 -75 -50 -51 -60 -65 -49 -75 13 -14 24 -4
98 86 l31 38 64 -11 c114 -20 361 -51 366 -46 2 2 7 65 10 139 4 113 2 136
-10 141 -12 5 -169 -15 -409 -52 -33 -5 -39 -2 -84 51 -49 58 -59 64 -71 45z"/>
<path d="M795 660 c-269 -16 -491 -28 -492 -29 -6 -2 0 -208 6 -236 l6 -30
510 -26 c281 -15 536 -28 568 -30 31 -2 57 -1 57 2 0 13 -316 40 -803 68 -175
10 -319 20 -320 22 -1 2 -1 48 1 101 l3 97 52 5 c29 4 178 13 332 21 308 17
724 51 733 60 9 9 -149 3 -653 -25z"/>
</g>
</svg>
