<?xml version="1.0" standalone="no"?>
<!DOCTYPE svg PUBLIC "-//W3C//DTD SVG 20010904//EN"
 "http://www.w3.org/TR/2001/REC-SVG-20010904/DTD/svg10.dtd">
<svg version="1.0" xmlns="http://www.w3.org/2000/svg"
 width="257.000000pt" height="162.000000pt" viewBox="0 0 257.000000 162.000000"
 preserveAspectRatio="xMidYMid meet">
<metadata>
Created by potrace 1.16, written by Peter Selinger 2001-2019
</metadata>
<g transform="translate(0.000000,162.000000) scale(0.100000,-0.100000)"
fill="#000000" stroke="none">
<path d="M1980 1245 l0 -75 -577 -2 -578 -3 -3 -117 -3 -117 -27 4 c-38 7
-335 33 -407 37 -33 1 -66 -1 -72 -5 -9 -5 -13 -34 -13 -82 l0 -73 103 -7
c113 -8 407 -41 411 -47 2 -1 6 -95 10 -208 3 -113 9 -215 12 -227 6 -23 9
-23 163 -23 143 1 376 8 799 26 89 4 162 11 162 15 0 5 -22 9 -50 9 l-50 0 1
43 c0 23 6 112 12 197 l12 155 68 3 67 3 0 -78 c0 -95 15 -86 24 14 7 70 6 72
-16 77 -58 12 -138 17 -138 8 0 -5 -8 -9 -17 -8 -16 1 -18 -13 -21 -139 -2
-77 -6 -142 -9 -145 -2 -3 -167 -7 -366 -10 -293 -4 -362 -8 -362 -18 0 -16
289 -17 525 -2 80 5 160 10 178 10 l34 0 -7 -52 c-4 -29 -10 -56 -14 -59 -3
-4 -171 -10 -372 -14 l-367 -7 -7 316 c-4 174 -6 319 -3 321 2 2 203 7 446 11
243 4 442 11 442 16 0 4 -200 8 -444 8 l-444 0 -4 68 c-2 37 -3 68 -3 69 1 1
206 5 456 9 l454 7 -19 -22 c-11 -11 -15 -21 -10 -21 12 0 134 123 134 135 0
5 -21 -11 -46 -35 l-46 -45 7 78 c6 67 5 77 -9 77 -13 0 -16 -13 -16 -75z
m-940 -117 c0 -7 7 -161 15 -343 8 -181 15 -358 15 -392 l0 -63 -113 0 -114 0
4 393 c3 215 6 398 8 405 6 17 185 17 185 0z m-565 -248 c49 -50 56 -60 38
-60 -40 0 -68 17 -111 69 l-43 51 28 0 c22 0 43 -15 88 -60z m249 -18 c76 -78
100 -77 32 2 -25 30 -46 56 -46 58 0 1 25 1 55 0 l55 -4 0 -70 0 -70 -57 7
c-73 9 -70 7 -128 75 -44 53 -75 74 -75 53 0 -4 24 -32 53 -61 44 -46 48 -54
27 -48 -14 3 -36 6 -50 6 -18 0 -41 18 -84 66 l-60 67 107 -8 107 -7 64 -66z
m-307 -27 c-1 -1 -23 0 -49 3 l-48 4 0 46 0 46 50 -49 c27 -27 49 -49 47 -50z"/>
<path d="M2100 1236 c0 -137 21 -104 33 54 1 16 -4 26 -15 28 -16 3 -18 -6
-18 -82z"/>
<path d="M2101 1089 c-56 -55 -100 -103 -97 -107 4 -3 53 40 108 96 56 55 100
103 98 106 -3 2 -52 -41 -109 -95z"/>
<path d="M2180 1039 c0 -37 -6 -49 -42 -86 -23 -23 -39 -45 -37 -48 3 -3 42
32 87 77 45 45 80 84 77 87 -3 2 -19 -9 -36 -25 l-31 -29 4 29 c2 17 -2 31 -9
33 -9 3 -13 -8 -13 -38z"/>
</g>
</svg>
