<?xml version="1.0" standalone="no"?>
<!DOCTYPE svg PUBLIC "-//W3C//DTD SVG 20010904//EN"
 "http://www.w3.org/TR/2001/REC-SVG-20010904/DTD/svg10.dtd">
<svg version="1.0" xmlns="http://www.w3.org/2000/svg"
 width="148.000000pt" height="136.000000pt" viewBox="0 0 148.000000 136.000000"
 preserveAspectRatio="xMidYMid meet">
<metadata>
Created by potrace 1.16, written by Peter Selinger 2001-2019
</metadata>
<g transform="translate(0.000000,136.000000) scale(0.100000,-0.100000)"
fill="#000000" stroke="none">
<path d="M1037 1054 c-4 -4 -7 -42 -7 -85 l0 -77 -142 60 c-79 33 -155 63
-171 65 -33 6 -86 -31 -123 -87 l-25 -38 -117 39 c-162 54 -155 56 -148 -38 3
-43 5 -90 6 -105 l0 -27 130 44 129 43 19 -33 c19 -31 99 -95 120 -95 5 0 81
29 167 65 87 36 159 65 161 65 1 0 3 -85 4 -190 0 -104 -3 -190 -8 -190 -4 0
-77 29 -162 65 -85 36 -161 65 -168 65 -18 0 -122 -99 -122 -116 0 -19 5 -19
-138 26 -76 25 -129 37 -135 31 -8 -8 0 -201 9 -201 2 0 57 18 123 41 l119 41
53 -55 c30 -31 67 -59 82 -62 22 -6 64 7 188 58 l159 66 0 -59 c0 -32 3 -60 8
-62 4 -2 35 -2 70 0 l62 4 -2 371 -3 372 -65 3 c-36 2 -69 0 -73 -4z m117 -75
c3 -34 6 -194 6 -355 0 -229 -3 -294 -12 -294 -7 0 -30 3 -51 6 l-38 7 3 339
c3 368 2 358 59 358 25 0 27 -3 33 -61z m-281 -44 c138 -53 182 -75 147 -75
-6 0 -80 -27 -165 -61 l-155 -60 -39 30 c-44 35 -74 90 -64 118 14 39 95 119
113 111 3 -2 77 -30 163 -63z m-303 -64 c0 -3 -48 -19 -107 -35 -60 -15 -114
-30 -120 -33 -10 -3 -13 12 -13 60 0 35 2 66 5 69 6 6 235 -53 235 -61z m317
-484 c-83 -33 -162 -61 -173 -64 -25 -6 -87 45 -110 90 -21 39 -6 75 52 126
l44 38 170 -65 170 -65 -153 -60z m-434 96 c56 -14 105 -29 110 -33 6 -5 -203
-70 -226 -70 -4 0 -7 29 -7 65 0 39 4 65 11 65 6 0 56 -12 112 -27z"/>
</g>
</svg>
