<?xml version="1.0" standalone="no"?>
<!DOCTYPE svg PUBLIC "-//W3C//DTD SVG 20010904//EN"
 "http://www.w3.org/TR/2001/REC-SVG-20010904/DTD/svg10.dtd">
<svg version="1.0" xmlns="http://www.w3.org/2000/svg"
 width="155.000000pt" height="180.000000pt" viewBox="0 0 155.000000 180.000000"
 preserveAspectRatio="xMidYMid meet">
<metadata>
Created by potrace 1.16, written by Peter Selinger 2001-2019
</metadata>
<g transform="translate(0.000000,180.000000) scale(0.100000,-0.100000)"
fill="#000000" stroke="none">
<path d="M460 1479 c-14 -25 -17 -20 45 -52 77 -38 198 -75 333 -101 68 -14
125 -26 127 -28 3 -2 -19 -73 -48 -157 l-52 -153 -135 6 c-162 8 -287 22 -357
40 -57 15 -63 13 -63 -20 0 -35 96 -49 341 -49 l206 0 -19 -68 c-10 -37 -24
-102 -31 -144 l-13 -77 -135 -62 c-137 -65 -241 -105 -317 -124 -36 -9 -43
-15 -40 -33 2 -18 9 -22 37 -19 57 4 230 79 350 151 l114 68 21 -39 c46 -85
200 -209 360 -290 76 -39 84 -29 9 13 -159 89 -297 209 -328 283 -8 20 -15 58
-15 85 0 86 67 311 184 612 31 81 56 149 56 153 0 3 -11 6 -23 6 -20 0 -28
-11 -52 -72 -15 -40 -30 -76 -34 -80 -3 -3 -35 3 -71 13 -215 65 -324 102
-375 129 -31 16 -59 30 -61 30 -2 0 -8 -9 -14 -21z"/>
</g>
</svg>
