<?xml version="1.0" standalone="no"?>
<!DOCTYPE svg PUBLIC "-//W3C//DTD SVG 20010904//EN"
 "http://www.w3.org/TR/2001/REC-SVG-20010904/DTD/svg10.dtd">
<svg version="1.0" xmlns="http://www.w3.org/2000/svg"
 width="219.000000pt" height="144.000000pt" viewBox="0 0 219.000000 144.000000"
 preserveAspectRatio="xMidYMid meet">
<metadata>
Created by potrace 1.16, written by Peter Selinger 2001-2019
</metadata>
<g transform="translate(0.000000,144.000000) scale(0.100000,-0.100000)"
fill="#000000" stroke="none">
<path d="M325 1128 c-11 -6 -21 -12 -23 -14 -9 -7 437 -550 507 -617 116 -111
237 -197 276 -197 43 0 271 114 372 186 114 83 273 223 343 305 64 74 95 117
89 123 -2 2 -71 -56 -154 -129 l-149 -133 -419 1 -419 0 -180 226 c-99 123
-185 233 -191 243 -13 21 -24 22 -52 6z m1225 -502 c0 -7 -147 -113 -221 -159
-42 -26 -114 -63 -160 -83 -46 -19 -92 -39 -101 -44 -13 -7 -41 17 -144 123
l-128 132 119 7 c266 17 635 31 635 24z"/>
</g>
</svg>
