<?xml version="1.0" standalone="no"?>
<!DOCTYPE svg PUBLIC "-//W3C//DTD SVG 20010904//EN"
 "http://www.w3.org/TR/2001/REC-SVG-20010904/DTD/svg10.dtd">
<svg version="1.0" xmlns="http://www.w3.org/2000/svg"
 width="237.000000pt" height="94.000000pt" viewBox="0 0 237.000000 94.000000"
 preserveAspectRatio="xMidYMid meet">
<metadata>
Created by potrace 1.16, written by Peter Selinger 2001-2019
</metadata>
<g transform="translate(0.000000,94.000000) scale(0.100000,-0.100000)"
fill="#000000" stroke="none">
<path d="M1920 575 c-46 -36 -85 -65 -87 -65 -3 0 -37 26 -76 58 l-72 58 -675
3 c-658 3 -675 3 -693 -16 -17 -19 -15 -22 31 -84 44 -57 124 -124 235 -194
61 -39 32 -4 -61 73 -86 71 -152 143 -152 165 0 4 56 7 124 7 l123 0 144 -69
c177 -85 278 -121 483 -172 266 -65 345 -55 509 69 37 29 72 52 78 52 5 0 57
-36 116 -80 96 -72 133 -95 119 -72 -3 5 -50 46 -106 93 -55 46 -100 86 -100
89 0 3 34 34 75 70 64 56 86 80 72 80 -2 0 -41 -29 -87 -65z m-196 -22 c41
-32 75 -61 75 -65 1 -10 -159 -115 -202 -133 -21 -8 -66 -21 -101 -29 l-64
-13 -173 53 c-242 73 -339 109 -449 164 l-95 48 250 7 c238 7 615 20 663 23
13 1 51 -20 96 -55z"/>
</g>
</svg>
