<?xml version="1.0" standalone="no"?>
<!DOCTYPE svg PUBLIC "-//W3C//DTD SVG 20010904//EN"
 "http://www.w3.org/TR/2001/REC-SVG-20010904/DTD/svg10.dtd">
<svg version="1.0" xmlns="http://www.w3.org/2000/svg"
 width="171.000000pt" height="311.000000pt" viewBox="0 0 171.000000 311.000000"
 preserveAspectRatio="xMidYMid meet">
<metadata>
Created by potrace 1.16, written by Peter Selinger 2001-2019
</metadata>
<g transform="translate(0.000000,311.000000) scale(0.100000,-0.100000)"
fill="#000000" stroke="none">
<path d="M311 2801 c-12 -8 -13 -81 -8 -473 3 -254 9 -471 12 -481 6 -14 17
-17 54 -15 l46 3 5 340 5 340 59 3 c49 3 68 -2 107 -22 26 -14 57 -26 70 -26
23 1 89 51 89 69 0 4 9 20 20 34 l21 26 -52 55 c-61 66 -79 69 -153 27 -44
-24 -59 -28 -108 -23 l-57 4 2 72 2 71 -50 3 c-27 1 -56 -2 -64 -7z m78 -76
l2 -65 -30 0 c-34 0 -36 4 -25 84 6 39 10 46 29 46 20 0 22 -5 24 -65z m293
-52 c17 -15 17 -17 2 -35 -22 -23 -37 -23 -59 2 -20 22 -20 22 10 38 26 15 25
15 47 -5z m-71 -49 l24 -26 -33 -29 c-25 -23 -37 -27 -51 -20 -12 7 -21 7 -28
0 -6 -6 -30 -9 -54 -7 -44 3 -44 3 -47 44 l-3 42 50 3 c28 2 52 0 54 -6 2 -5
14 -2 28 7 32 22 32 22 60 -8z m134 -4 c17 -18 17 -21 0 -46 l-17 -26 -29 28
-30 28 23 18 c29 22 31 22 53 -2z m-355 -30 c0 -38 -2 -40 -30 -40 -27 0 -30
3 -30 33 0 40 6 47 37 47 20 0 23 -5 23 -40z m299 -30 c20 -17 21 -23 11 -36
-25 -29 -45 -33 -78 -17 l-33 16 27 28 c33 34 41 35 73 9z m-299 -223 c0 -96
3 -222 7 -280 l6 -107 -36 0 -37 0 0 280 0 280 30 0 30 0 0 -173z m10 -447 c0
-39 -1 -40 -35 -40 -34 0 -35 1 -35 40 0 39 1 40 35 40 34 0 35 -1 35 -40z"/>
<path d="M750 2675 c0 -13 27 -15 188 -14 103 1 212 4 242 8 51 6 48 7 -54 14
-60 4 -169 7 -243 7 -112 0 -133 -2 -133 -15z"/>
<path d="M820 2624 c0 -15 11 -16 92 -10 50 3 115 6 145 6 29 0 53 5 53 10 0
6 -55 10 -145 10 -128 0 -145 -2 -145 -16z"/>
<path d="M822 2569 c2 -6 7 -10 11 -10 4 1 68 1 142 1 83 0 135 4 135 10 0 6
-55 10 -146 10 -99 0 -145 -3 -142 -11z"/>
<path d="M757 2514 c-20 -21 13 -24 233 -24 153 0 240 4 240 10 0 6 -80 10
-219 10 -121 0 -226 2 -233 5 -8 3 -17 2 -21 -1z"/>
<path d="M333 1243 c-14 -5 -16 -370 -4 -743 l6 -195 40 0 40 0 3 111 3 111
67 -5 c74 -5 113 8 162 53 25 23 28 23 393 30 202 4 367 12 367 16 0 5 -136 9
-302 9 -167 0 -326 3 -355 6 -47 6 -51 8 -40 25 11 18 31 19 332 20 176 1 331
5 345 9 16 5 -11 9 -80 10 -58 1 -114 3 -125 4 -11 1 -116 3 -233 4 -197 2
-213 3 -210 20 3 15 24 18 203 23 110 4 260 7 333 8 80 0 132 5 132 11 0 6
-118 10 -334 10 l-334 0 -5 22 c-4 12 -4 25 -1 28 3 3 155 6 337 8 182 2 334
5 336 8 2 2 2 6 -1 9 -2 3 -162 8 -355 11 -332 7 -351 8 -362 27 -7 10 -10 21
-7 24 3 3 168 8 366 11 198 3 360 8 360 12 0 7 -413 20 -641 20 -105 0 -134 3
-170 20 -48 21 -113 26 -153 10 l-26 -10 0 135 0 135 -37 -1 c-21 0 -44 -3
-50 -6z m57 -146 c0 -121 -2 -133 -20 -145 -20 -12 -20 -10 -20 133 0 138 1
145 20 145 19 0 20 -7 20 -133z m122 -147 c21 -19 21 -20 3 -40 l-19 -20 -33
32 c-30 29 -32 33 -16 40 30 11 43 9 65 -12z m58 11 c0 -18 -18 -21 -30 -6
-10 13 -9 15 9 15 11 0 21 -4 21 -9z m-178 -203 c3 -95 4 -175 2 -177 -2 -2
-13 4 -24 14 -18 17 -20 31 -20 165 0 138 6 170 31 170 3 0 9 -78 11 -172z
m212 150 c-3 -5 -12 -4 -20 3 -19 16 -18 18 6 12 11 -3 17 -9 14 -15z m-144
-13 c20 -22 21 -25 6 -31 -21 -8 -46 12 -46 37 0 26 12 24 40 -6z m108 3 c19
-19 -14 -50 -39 -35 -17 10 -17 13 -2 29 19 21 25 22 41 6z m90 0 c17 -17 15
-28 -7 -28 -22 0 -35 15 -26 30 8 13 18 13 33 -2z m-142 -49 c10 -17 -13 -36
-27 -22 -12 12 -4 33 11 33 5 0 12 -5 16 -11z m87 -9 c20 0 20 -1 4 -17 -16
-16 -18 -16 -33 -1 -10 10 -13 21 -8 29 6 10 9 10 12 1 2 -7 13 -12 25 -12z
m97 -6 c0 -8 -19 -13 -24 -6 -3 5 1 9 9 9 8 0 15 -2 15 -3z m-41 -18 c10 -12
8 -17 -9 -26 -29 -16 -45 -2 -24 21 20 23 19 22 33 5z m-183 -8 c4 -6 -1 -17
-12 -25 -15 -11 -19 -11 -27 2 -15 28 22 51 39 23z m87 -2 c15 -12 16 -15 2
-26 -13 -11 -19 -11 -32 2 -8 9 -12 21 -9 27 9 14 17 13 39 -3z m-44 -40 c9
-10 8 -16 -4 -26 -13 -11 -19 -10 -33 4 -15 15 -15 18 -2 26 20 13 26 12 39
-4z m76 -25 c-6 -5 -25 10 -25 20 0 5 6 4 14 -3 8 -7 12 -15 11 -17z m53 -29
c-36 -4 -45 3 -28 22 11 14 15 13 35 -2 l23 -17 -30 -3z m62 23 c-10 -12 -16
-13 -26 -4 -20 16 -18 19 12 19 22 0 25 -2 14 -15z m-241 -9 c8 -10 8 -16 -3
-25 -10 -9 -16 -8 -26 3 -12 15 -6 36 9 36 5 0 14 -6 20 -14z m97 3 c10 -17
-23 -46 -38 -31 -8 8 -8 15 2 27 15 18 26 19 36 4z m-131 -48 c3 -5 1 -12 -5
-16 -5 -3 -10 1 -10 9 0 18 6 21 15 7z m78 2 c4 -3 2 -12 -4 -20 -9 -10 -15
-10 -25 -2 -8 6 -11 15 -8 20 6 11 28 12 37 2z m117 -14 c0 -4 -8 -13 -19 -18
-14 -8 -22 -6 -35 8 -9 10 -14 20 -11 23 8 7 65 -3 65 -13z m60 1 c0 -5 -4
-10 -10 -10 -5 0 -10 5 -10 10 0 6 5 10 10 10 6 0 10 -4 10 -10z m-236 -57
c-24 -19 -30 -20 -32 -7 -2 8 4 24 14 35 14 15 20 17 32 7 12 -10 10 -16 -14
-35z m109 29 c25 -27 3 -46 -30 -25 -18 12 -21 19 -12 29 15 18 23 18 42 -4z
m102 8 c3 -5 -3 -10 -15 -10 -12 0 -18 5 -15 10 3 6 10 10 15 10 5 0 12 -4 15
-10z m-145 -45 c10 -13 10 -19 -5 -35 -19 -21 -41 -25 -71 -13 -14 5 -12 10
17 34 40 33 43 34 59 14z m100 -14 c0 -5 -6 -14 -14 -20 -10 -8 -16 -8 -25 2
-6 8 -8 17 -4 20 9 10 43 8 43 -2z m-220 -162 l0 -116 -25 5 -25 4 0 130 0
129 25 -18 c23 -17 24 -22 25 -134z m170 131 c0 -5 -10 -10 -22 -10 -19 0 -20
2 -8 10 19 13 30 13 30 0z"/>
</g>
</svg>
