<?xml version="1.0" standalone="no"?>
<!DOCTYPE svg PUBLIC "-//W3C//DTD SVG 20010904//EN"
 "http://www.w3.org/TR/2001/REC-SVG-20010904/DTD/svg10.dtd">
<svg version="1.0" xmlns="http://www.w3.org/2000/svg"
 width="119.000000pt" height="152.000000pt" viewBox="0 0 119.000000 152.000000"
 preserveAspectRatio="xMidYMid meet">
<metadata>
Created by potrace 1.16, written by Peter Selinger 2001-2019
</metadata>
<g transform="translate(0.000000,152.000000) scale(0.100000,-0.100000)"
fill="#000000" stroke="none">
<path d="M660 1214 c0 -4 25 -33 55 -65 100 -109 126 -176 144 -379 18 -193
16 -214 -26 -284 -20 -33 -64 -89 -97 -123 -55 -58 -57 -63 -34 -63 36 0 108
80 154 171 l37 74 -6 185 c-7 250 -27 310 -142 438 -26 28 -55 52 -66 52 -10
0 -19 -3 -19 -6z"/>
<path d="M500 1134 c0 -3 17 -26 38 -52 80 -97 106 -166 116 -309 18 -254 20
-229 -20 -301 -21 -36 -55 -85 -77 -109 -32 -35 -38 -46 -28 -56 19 -18 75 51
120 148 l38 80 -7 185 c-9 227 -25 277 -129 398 -17 20 -51 31 -51 16z"/>
<path d="M394 910 c65 -69 83 -116 96 -247 l11 -112 -39 -53 c-50 -67 -77 -96
-124 -132 -34 -25 -42 -46 -18 -46 23 0 112 86 149 145 l43 68 -4 131 c-3 101
-8 139 -22 168 -27 55 -94 128 -118 128 -17 0 -13 -8 26 -50z"/>
</g>
</svg>
