<?xml version="1.0" standalone="no"?>
<!DOCTYPE svg PUBLIC "-//W3C//DTD SVG 20010904//EN"
 "http://www.w3.org/TR/2001/REC-SVG-20010904/DTD/svg10.dtd">
<svg version="1.0" xmlns="http://www.w3.org/2000/svg"
 width="90.000000pt" height="154.000000pt" viewBox="0 0 90.000000 154.000000"
 preserveAspectRatio="xMidYMid meet">
<metadata>
Created by potrace 1.16, written by Peter Selinger 2001-2019
</metadata>
<g transform="translate(0.000000,154.000000) scale(0.100000,-0.100000)"
fill="#000000" stroke="none">
<path d="M338 1233 c-22 -5 -21 -2 -3 -88 26 -123 16 -333 -20 -401 -28 -54
-18 -124 56 -406 l10 -38 104 0 c57 0 106 4 109 9 9 14 -32 21 -121 21 -77 0
-83 1 -88 23 -18 81 -45 259 -45 301 0 28 12 103 26 166 23 100 25 129 20 220
-3 58 -9 120 -12 138 l-6 32 85 0 85 0 12 -47 c28 -110 19 -384 -13 -405 -6
-4 -13 -36 -15 -72 -3 -51 3 -96 28 -198 55 -223 64 -199 20 51 l-22 124 26
113 c21 92 26 138 25 241 -1 150 -13 204 -49 214 -28 8 -185 9 -212 2z"/>
</g>
</svg>
