<?xml version="1.0" standalone="no"?>
<!DOCTYPE svg PUBLIC "-//W3C//DTD SVG 20010904//EN"
 "http://www.w3.org/TR/2001/REC-SVG-20010904/DTD/svg10.dtd">
<svg version="1.0" xmlns="http://www.w3.org/2000/svg"
 width="176.000000pt" height="173.000000pt" viewBox="0 0 176.000000 173.000000"
 preserveAspectRatio="xMidYMid meet">
<metadata>
Created by potrace 1.16, written by Peter Selinger 2001-2019
</metadata>
<g transform="translate(0.000000,173.000000) scale(0.100000,-0.100000)"
fill="#000000" stroke="none">
<path d="M745 1400 l-15 -29 42 -22 c34 -17 276 -125 600 -268 42 -18 46 -33
24 -86 -45 -106 -210 -217 -759 -509 -196 -104 -104 -70 145 54 441 221 590
312 648 399 32 47 38 79 18 100 -10 11 -10 13 0 7 6 -4 12 -3 12 1 0 13 -100
70 -335 189 -121 61 -250 130 -288 152 -37 23 -69 42 -72 42 -2 0 -11 -13 -20
-30z"/>
<path d="M632 1312 c-10 -7 -6 -23 21 -73 52 -95 71 -163 71 -249 0 -118 -40
-176 -179 -260 -96 -58 -198 -142 -224 -184 -16 -25 -21 -48 -19 -78 3 -38 7
-45 43 -65 22 -12 89 -39 150 -60 l110 -38 217 0 c133 0 221 4 227 10 7 7 -44
11 -157 11 -191 2 -284 18 -448 80 -54 20 -105 37 -111 37 -42 1 23 108 102
170 31 24 95 66 141 92 148 82 192 162 181 327 -7 113 -62 282 -92 286 -11 1
-26 -2 -33 -6z"/>
</g>
</svg>
