<?xml version="1.0" standalone="no"?>
<!DOCTYPE svg PUBLIC "-//W3C//DTD SVG 20010904//EN"
 "http://www.w3.org/TR/2001/REC-SVG-20010904/DTD/svg10.dtd">
<svg version="1.0" xmlns="http://www.w3.org/2000/svg"
 width="194.000000pt" height="165.000000pt" viewBox="0 0 194.000000 165.000000"
 preserveAspectRatio="xMidYMid meet">
<metadata>
Created by potrace 1.16, written by Peter Selinger 2001-2019
</metadata>
<g transform="translate(0.000000,165.000000) scale(0.100000,-0.100000)"
fill="#000000" stroke="none">
<path d="M318 1343 c-16 -4 -18 -20 -17 -166 1 -174 11 -292 22 -267 4 8 8
101 9 206 l3 192 106 -97 107 -96 -112 -107 c-93 -89 -109 -108 -98 -120 12
-11 30 4 115 94 l102 106 138 6 138 7 117 -111 c64 -60 123 -110 130 -110 11
0 14 37 16 186 0 21 5 22 194 29 l194 8 56 -55 c82 -77 102 -93 102 -79 0 7
-25 38 -55 70 -30 32 -55 61 -55 66 0 5 25 34 55 66 30 32 55 63 55 69 0 14
-60 -32 -109 -84 -34 -36 -36 -36 -116 -36 -45 0 -135 3 -201 6 l-119 7 2 93
c1 83 0 94 -16 94 -9 0 -65 -45 -124 -101 l-107 -101 -148 7 -147 8 -103 108
c-57 60 -107 108 -110 108 -4 -1 -15 -3 -24 -6z m751 -353 l0 -85 -89 95 c-49
52 -89 99 -90 105 0 5 37 47 83 93 l82 83 6 -103 c4 -57 7 -141 8 -188z"/>
<path d="M300 612 c0 -155 9 -306 18 -297 3 3 11 0 19 -6 16 -14 55 19 153
128 l65 72 122 1 c67 0 127 2 135 5 7 3 65 -42 133 -105 65 -60 125 -110 132
-110 10 0 13 22 14 83 1 45 0 90 0 100 -1 9 4 19 11 21 7 3 95 6 196 9 l183 4
75 -70 c41 -38 77 -67 81 -64 3 3 -20 36 -52 72 l-57 65 57 65 c63 72 68 98 8
44 -21 -19 -53 -48 -71 -64 l-33 -30 -192 4 c-106 2 -194 7 -197 12 -4 5 -5
47 -4 95 1 67 -2 87 -13 91 -8 3 -18 2 -22 -3 -3 -5 -52 -51 -109 -103 l-103
-94 -142 2 -142 1 -105 110 c-84 88 -111 110 -132 110 l-28 0 0 -148z m80 54
c-6 -6 -14 -5 -23 2 -8 7 -17 9 -20 5 -4 -3 -7 9 -7 27 l0 34 30 -29 c19 -19
27 -32 20 -39z m689 -258 l1 -87 -94 97 -94 96 87 92 86 91 6 -101 c4 -55 7
-140 8 -188z m-535 105 c-21 -15 -48 2 -39 25 3 9 0 12 -9 9 -19 -8 -50 28
-42 49 4 11 2 15 -8 11 -17 -7 -51 28 -41 43 4 6 36 -16 82 -57 68 -61 73 -68
57 -80z m-189 128 c3 -5 1 -12 -5 -16 -5 -3 -10 1 -10 9 0 18 6 21 15 7z m42
-78 c-15 -16 -18 -16 -37 2 -19 17 -19 19 -3 37 16 18 17 18 37 -2 19 -19 19
-21 3 -37z m56 -21 c15 -16 15 -19 -5 -31 -17 -11 -23 -10 -36 3 -13 12 -13
18 -2 30 16 20 23 20 43 -2z m-98 -12 c3 -5 1 -10 -4 -10 -6 0 -11 5 -11 10 0
6 2 10 4 10 3 0 8 -4 11 -10z m54 -47 c2 -2 -4 -12 -14 -23 -17 -19 -19 -19
-37 -3 -17 15 -17 17 -2 35 14 14 20 16 33 6 9 -7 18 -14 20 -15z m97 16 c10
-17 -33 -56 -47 -42 -8 8 -8 17 0 32 13 23 36 28 47 10z m-65 -83 c-16 -16
-23 -18 -33 -8 -18 18 19 57 39 40 12 -10 11 -15 -6 -32z m-94 2 c-3 -8 -6 -5
-6 6 -1 11 2 17 5 13 3 -3 4 -12 1 -19z m47 -26 c3 -5 -8 -22 -24 -37 -26 -25
-30 -26 -30 -10 0 19 27 55 41 55 4 0 10 -4 13 -8z"/>
</g>
</svg>
