<?xml version="1.0" standalone="no"?>
<!DOCTYPE svg PUBLIC "-//W3C//DTD SVG 20010904//EN"
 "http://www.w3.org/TR/2001/REC-SVG-20010904/DTD/svg10.dtd">
<svg version="1.0" xmlns="http://www.w3.org/2000/svg"
 width="194.000000pt" height="156.000000pt" viewBox="0 0 194.000000 156.000000"
 preserveAspectRatio="xMidYMid meet">
<metadata>
Created by potrace 1.16, written by Peter Selinger 2001-2019
</metadata>
<g transform="translate(0.000000,156.000000) scale(0.100000,-0.100000)"
fill="#000000" stroke="none">
<path d="M616 1205 c-16 -44 -18 -68 -11 -132 4 -43 7 -86 7 -95 -1 -36 36
-43 241 -46 171 -3 198 -6 193 -19 -3 -8 -6 -30 -6 -48 0 -32 -2 -34 -51 -44
-28 -6 -89 -27 -137 -47 -114 -48 -206 -56 -277 -25 -58 25 -54 25 -48 1 5
-19 76 -60 105 -60 13 0 18 -16 23 -75 5 -51 17 -95 36 -136 35 -74 48 -73 19
1 -11 29 -24 88 -27 130 l-6 77 48 6 c26 4 95 27 154 52 59 25 141 52 182 60
41 8 82 17 92 19 14 4 16 2 7 -9 -7 -8 -9 -22 -6 -32 3 -10 10 -67 16 -127 9
-96 15 -118 53 -200 l44 -92 99 -27 c83 -24 106 -27 142 -18 64 14 63 21 -4
21 -32 1 -97 11 -144 24 l-85 23 -28 73 c-21 54 -33 110 -43 210 -8 74 -13
144 -12 155 3 17 -2 20 -34 17 -36 -3 -38 -2 -38 25 0 52 18 65 85 61 57 -3
60 -5 88 -45 27 -38 30 -52 38 -160 4 -65 14 -137 23 -161 8 -23 13 -49 10
-57 -4 -10 7 -17 38 -25 23 -6 66 -18 94 -26 38 -11 63 -12 93 -5 63 14 62 21
-3 21 -32 0 -88 9 -126 21 -53 16 -70 26 -80 47 -8 15 -16 87 -20 167 -5 114
-11 150 -29 193 l-23 52 -132 0 c-184 0 -442 17 -496 33 l-45 13 -3 61 c-3 56
10 110 43 186 6 13 2 17 -17 17 -20 0 -27 -9 -42 -55z m482 -317 c-2 -40 -11
-57 -30 -58 -11 0 -10 44 2 74 15 40 29 31 28 -16z"/>
<path d="M311 1200 c-17 -10 -13 -34 65 -372 30 -130 54 -245 54 -255 0 -38
134 -283 147 -269 3 2 -20 55 -51 118 -40 81 -59 133 -66 183 -6 39 -36 176
-65 306 -30 129 -55 244 -55 255 0 29 -13 44 -29 34z"/>
</g>
</svg>
