<?xml version="1.0" standalone="no"?>
<!DOCTYPE svg PUBLIC "-//W3C//DTD SVG 20010904//EN"
 "http://www.w3.org/TR/2001/REC-SVG-20010904/DTD/svg10.dtd">
<svg version="1.0" xmlns="http://www.w3.org/2000/svg"
 width="142.000000pt" height="146.000000pt" viewBox="0 0 142.000000 146.000000"
 preserveAspectRatio="xMidYMid meet">
<metadata>
Created by potrace 1.16, written by Peter Selinger 2001-2019
</metadata>
<g transform="translate(0.000000,146.000000) scale(0.100000,-0.100000)"
fill="#000000" stroke="none">
<path d="M597 1145 c-69 -26 -154 -93 -171 -136 -9 -22 -16 -45 -16 -52 0 -7
-25 -37 -55 -67 -30 -30 -55 -59 -55 -64 0 -6 20 10 45 34 24 24 48 41 51 37
4 -4 -14 -38 -41 -77 -54 -78 -58 -107 -5 -33 l34 47 12 -73 c7 -39 20 -84 29
-99 23 -36 90 -97 142 -128 l42 -25 -16 -52 c-8 -29 -21 -67 -29 -86 -16 -39
-17 -41 -6 -41 4 0 16 24 26 53 37 106 43 116 64 110 20 -5 19 -7 -9 -91 -16
-47 -27 -88 -24 -90 7 -8 9 -4 39 81 16 42 32 79 36 82 4 2 11 -37 16 -88 l9
-92 3 91 3 92 29 4 30 5 0 -88 c0 -48 5 -91 10 -94 6 -4 10 29 10 92 l0 98 38
22 39 22 27 -91 c15 -50 29 -88 32 -85 3 3 -5 46 -17 95 l-23 90 83 87 c45 48
80 89 77 92 -3 3 -44 -30 -91 -74 -153 -144 -236 -171 -353 -113 -94 48 -157
112 -177 185 -20 68 -16 170 10 247 29 83 142 162 230 160 52 0 142 -35 202
-76 58 -40 134 -137 193 -248 24 -45 45 -77 48 -70 6 20 -107 226 -155 281
-52 60 -110 96 -194 122 -71 22 -119 23 -172 4z"/>
<path d="M576 1054 c-8 -27 -23 -137 -31 -221 -5 -51 -4 -73 4 -73 6 0 11 12
11 28 0 25 23 175 35 230 4 15 13 22 30 22 21 0 23 -3 16 -22 -5 -13 -14 -85
-21 -161 -13 -132 -14 -137 -34 -131 -33 10 -38 10 -43 -2 -4 -11 53 -36 110
-48 36 -8 187 4 187 15 0 5 -39 9 -87 9 -118 0 -135 5 -129 39 3 14 13 86 22
160 l18 133 35 -6 c95 -15 175 -89 207 -191 19 -59 40 -76 29 -22 -12 58 -52
134 -92 174 -42 42 -107 67 -205 79 -49 5 -57 4 -62 -12z"/>
</g>
</svg>
