<?xml version="1.0" standalone="no"?>
<!DOCTYPE svg PUBLIC "-//W3C//DTD SVG 20010904//EN"
 "http://www.w3.org/TR/2001/REC-SVG-20010904/DTD/svg10.dtd">
<svg version="1.0" xmlns="http://www.w3.org/2000/svg"
 width="159.000000pt" height="139.000000pt" viewBox="0 0 159.000000 139.000000"
 preserveAspectRatio="xMidYMid meet">
<metadata>
Created by potrace 1.16, written by Peter Selinger 2001-2019
</metadata>
<g transform="translate(0.000000,139.000000) scale(0.100000,-0.100000)"
fill="#000000" stroke="none">
<path d="M514 1017 c-142 -145 -214 -261 -214 -347 0 -86 86 -193 234 -292 34
-23 69 -50 79 -60 16 -17 21 -17 30 -5 7 8 80 51 162 97 265 145 485 275 482
285 -6 17 -627 371 -684 389 -14 4 -37 -13 -89 -67z m78 -169 l5 -148 -71 -2
c-188 -6 -187 -6 -180 16 23 73 90 170 179 259 35 35 50 45 55 35 4 -7 10 -79
12 -160z m407 -20 l274 -137 -314 6 c-173 3 -315 6 -315 7 -1 0 -5 72 -8 160
l-7 159 48 -29 c26 -15 171 -90 322 -166z m-39 -289 c-151 -77 -285 -147 -297
-155 l-23 -14 0 144 0 144 249 8 c137 5 271 10 298 12 45 2 29 -7 -227 -139z
m-357 54 c4 -37 9 -110 13 -162 l7 -95 -78 65 c-85 69 -170 166 -191 214 l-12
30 61 5 c34 3 92 6 128 8 l66 3 6 -68z"/>
</g>
</svg>
