<?xml version="1.0" standalone="no"?>
<!DOCTYPE svg PUBLIC "-//W3C//DTD SVG 20010904//EN"
 "http://www.w3.org/TR/2001/REC-SVG-20010904/DTD/svg10.dtd">
<svg version="1.0" xmlns="http://www.w3.org/2000/svg"
 width="142.000000pt" height="146.000000pt" viewBox="0 0 142.000000 146.000000"
 preserveAspectRatio="xMidYMid meet">
<metadata>
Created by potrace 1.16, written by Peter Selinger 2001-2019
</metadata>
<g transform="translate(0.000000,146.000000) scale(0.100000,-0.100000)"
fill="#000000" stroke="none">
<path d="M894 1141 c-41 -25 -63 -57 -70 -101 -5 -33 -14 -40 -138 -111 l-132
-75 -28 17 c-98 59 -226 -4 -226 -111 0 -91 102 -162 188 -132 26 9 42 2 182
-79 154 -88 154 -88 165 -134 19 -73 70 -115 142 -115 149 0 197 195 63 257
l-39 18 -1 157 0 157 33 16 c50 24 81 76 75 129 -3 24 -14 55 -24 69 -41 56
-131 74 -190 38z m-33 -206 c19 -21 43 -37 65 -41 l34 -6 0 -83 c0 -45 3 -116
6 -157 l7 -75 -33 -6 c-17 -4 -48 -23 -67 -42 l-36 -36 -106 69 c-58 38 -115
74 -126 80 -46 26 -46 26 -29 67 10 25 14 52 10 76 -6 37 -5 37 62 77 37 23
90 57 117 76 28 19 54 35 58 35 4 1 21 -15 38 -34z"/>
</g>
</svg>
