<?xml version="1.0" standalone="no"?>
<!DOCTYPE svg PUBLIC "-//W3C//DTD SVG 20010904//EN"
 "http://www.w3.org/TR/2001/REC-SVG-20010904/DTD/svg10.dtd">
<svg version="1.0" xmlns="http://www.w3.org/2000/svg"
 width="219.000000pt" height="131.000000pt" viewBox="0 0 219.000000 131.000000"
 preserveAspectRatio="xMidYMid meet">
<metadata>
Created by potrace 1.16, written by Peter Selinger 2001-2019
</metadata>
<g transform="translate(0.000000,131.000000) scale(0.100000,-0.100000)"
fill="#000000" stroke="none">
<path d="M1100 971 c0 -37 -3 -41 -52 -69 -50 -28 -132 -102 -114 -102 5 0 3
-6 -3 -14 -10 -12 -21 -10 -74 10 -133 52 -245 77 -332 72 -107 -7 -225 -52
-225 -87 0 -17 120 -61 194 -73 85 -13 246 -2 381 27 70 15 70 15 145 -14 41
-16 76 -36 78 -43 1 -7 -1 -31 -5 -51 -7 -35 -14 -40 -68 -64 -71 -30 -75 -31
-190 -7 -60 12 -137 18 -230 18 -121 1 -149 -2 -205 -22 -36 -12 -74 -30 -85
-38 -20 -15 -20 -15 3 -34 36 -29 131 -62 198 -67 73 -7 179 15 311 62 73 27
94 31 102 21 6 -7 8 -15 6 -18 -8 -8 67 -73 114 -100 32 -18 41 -29 41 -50 0
-16 5 -28 10 -28 6 0 10 11 10 25 0 23 3 25 28 19 37 -9 42 -13 42 -30 0 -8 5
-14 10 -14 6 0 10 7 10 15 0 10 11 15 35 15 24 0 35 -5 35 -15 0 -8 5 -15 10
-15 6 0 10 6 10 13 0 17 70 10 70 -7 0 -6 5 -3 11 6 12 22 59 24 59 3 0 -8 5
-15 10 -15 6 0 10 6 10 14 0 8 6 17 13 19 9 4 9 8 -2 15 -11 8 -12 30 -6 112
7 101 7 102 31 96 13 -4 24 -2 24 3 0 5 -11 12 -25 15 -23 6 -25 11 -25 66 0
55 2 61 25 70 33 13 32 24 -1 16 l-26 -7 6 63 c6 64 8 137 7 196 -1 43 -31 45
-31 2 0 -16 -4 -30 -9 -30 -25 0 -41 14 -41 36 0 15 -6 24 -15 24 -9 0 -15 -9
-15 -25 0 -20 -5 -25 -24 -25 -18 0 -26 6 -28 22 -4 29 -26 34 -30 7 -2 -15
-12 -25 -29 -30 -24 -6 -28 -3 -33 22 -8 40 -36 39 -36 -1 0 -16 -4 -30 -9
-30 -5 0 -16 -3 -25 -6 -13 -5 -16 1 -16 30 0 25 -4 36 -15 36 -11 0 -15 -11
-15 -39z m260 -151 l0 -110 -30 0 c-34 0 -35 5 -24 143 7 72 8 77 30 77 24 0
24 -1 24 -110z m76 58 c-3 -29 -6 -79 -6 -110 0 -51 -2 -58 -20 -58 -19 0 -20
7 -20 110 l0 110 26 0 c26 0 27 -1 20 -52z m-166 -63 l0 -105 -30 0 -30 0 0
105 0 105 30 0 30 0 0 -105z m-90 0 c0 -98 -3 -105 -43 -89 -12 4 -14 21 -10
87 6 79 13 97 41 97 9 0 12 -26 12 -95z m-84 -73 c-8 -7 -99 32 -103 45 -2 6
20 29 49 52 l53 40 3 -66 c2 -36 1 -68 -2 -71z m-336 57 c69 -17 129 -35 133
-39 11 -10 -329 -24 -402 -17 -31 4 -75 14 -96 23 l-40 17 34 14 c119 50 175
50 371 2z m670 -160 c0 -43 -3 -50 -17 -47 -14 2 -19 15 -21 51 -3 42 -1 47
17 47 18 0 21 -6 21 -51z m-250 1 c0 -38 -2 -40 -30 -40 -28 0 -30 2 -30 40 0
38 2 40 30 40 28 0 30 -2 30 -40z m180 -1 c0 -33 -3 -40 -16 -35 -9 3 -22 6
-30 6 -9 0 -14 11 -14 28 0 35 6 42 37 42 20 0 23 -5 23 -41z m-90 1 c0 -27
-3 -30 -30 -30 -27 0 -30 3 -30 30 0 27 3 30 30 30 27 0 30 -3 30 -30z m0
-171 l0 -110 -32 3 -33 3 -3 70 c-5 104 3 133 36 138 15 2 28 5 30 6 1 0 2
-49 2 -110z m90 -4 c0 -113 0 -115 -22 -115 -48 0 -51 10 -43 124 l7 106 29 0
29 0 0 -115z m70 -5 l0 -110 -25 0 -25 0 0 110 0 110 25 0 25 0 0 -110z m-250
5 c0 -52 -2 -95 -4 -95 -1 0 -17 5 -35 11 l-32 11 6 72 c8 93 10 96 40 96 25
0 25 0 25 -95z m-345 66 c81 -7 79 -8 -90 -51 -146 -36 -224 -39 -318 -8 -72
23 -74 31 -11 53 42 15 285 18 419 6z m255 -57 c0 -61 -1 -64 -18 -52 -61 45
-82 63 -82 70 0 9 69 47 88 48 8 0 12 -20 12 -66z"/>
<path d="M1517 862 c-17 -19 -23 -37 -9 -28 4 2 73 10 152 16 203 17 215 29
29 29 -139 1 -158 -1 -172 -17z"/>
<path d="M1552 648 c-24 -24 -11 -29 61 -24 39 3 117 9 172 12 136 10 90 22
-85 23 -94 1 -140 -3 -148 -11z"/>
<path d="M1566 455 c-4 -12 5 -15 47 -15 107 0 277 13 277 22 0 4 -72 8 -159
8 -132 0 -160 -3 -165 -15z"/>
</g>
</svg>
