<?xml version="1.0" standalone="no"?>
<!DOCTYPE svg PUBLIC "-//W3C//DTD SVG 20010904//EN"
 "http://www.w3.org/TR/2001/REC-SVG-20010904/DTD/svg10.dtd">
<svg version="1.0" xmlns="http://www.w3.org/2000/svg"
 width="101.000000pt" height="160.000000pt" viewBox="0 0 101.000000 160.000000"
 preserveAspectRatio="xMidYMid meet">
<metadata>
Created by potrace 1.16, written by Peter Selinger 2001-2019
</metadata>
<g transform="translate(0.000000,160.000000) scale(0.100000,-0.100000)"
fill="#000000" stroke="none">
<path d="M449 1256 c-89 -60 -125 -103 -139 -169 -17 -76 -8 -111 58 -218 l57
-94 -1 -110 c0 -60 -9 -153 -18 -205 -10 -52 -20 -110 -23 -127 l-6 -33 167 0
c104 0 166 4 166 10 0 6 -9 10 -20 10 -17 0 -20 7 -20 43 -1 23 -5 186 -10
362 -10 338 -16 385 -66 509 -23 58 -29 66 -53 66 -14 0 -55 -19 -92 -44z
m151 -150 c19 -76 34 -272 46 -598 l7 -186 -124 5 c-68 3 -125 6 -125 7 -1 0
9 48 23 106 19 80 25 135 27 231 l1 125 -52 80 c-72 110 -86 146 -74 191 17
59 52 102 130 154 l75 50 24 -46 c13 -26 32 -79 42 -119z"/>
</g>
</svg>
