<?xml version="1.0" standalone="no"?>
<!DOCTYPE svg PUBLIC "-//W3C//DTD SVG 20010904//EN"
 "http://www.w3.org/TR/2001/REC-SVG-20010904/DTD/svg10.dtd">
<svg version="1.0" xmlns="http://www.w3.org/2000/svg"
 width="105.000000pt" height="169.000000pt" viewBox="0 0 105.000000 169.000000"
 preserveAspectRatio="xMidYMid meet">
<metadata>
Created by potrace 1.16, written by Peter Selinger 2001-2019
</metadata>
<g transform="translate(0.000000,169.000000) scale(0.100000,-0.100000)"
fill="#000000" stroke="none">
<path d="M653 1361 c-355 -168 -449 -462 -246 -768 64 -97 280 -309 298 -292
2 3 -38 44 -90 93 l-95 87 0 374 c0 266 -3 374 -11 377 -15 5 117 93 186 123
30 14 55 27 55 30 0 13 -40 3 -97 -24z m-175 -256 c-2 -1 -22 0 -45 4 l-43 6
43 50 42 49 3 -53 c2 -29 2 -54 0 -56z m10 -57 l3 -28 -70 0 c-39 0 -71 2 -71
5 0 2 5 16 12 30 11 24 16 26 67 23 53 -3 56 -5 59 -30z m2 -83 l0 -35 -81 0
c-79 0 -81 1 -75 23 3 12 6 25 6 29 0 4 28 9 63 11 34 2 68 4 75 5 7 1 12 -11
12 -33z m0 -90 l0 -35 -74 0 c-58 0 -75 3 -80 16 -15 39 -8 43 72 47 42 1 78
4 80 5 1 1 2 -14 2 -33z m0 -67 c0 -7 3 -23 6 -35 6 -22 4 -23 -64 -23 -69 0
-70 1 -80 30 l-11 29 62 4 c34 2 68 4 75 5 6 1 12 -4 12 -10z m10 -108 c0 -30
-1 -30 -53 -30 -48 0 -55 3 -65 25 -7 14 -12 28 -12 30 0 3 29 5 65 5 l65 0 0
-30z m0 -82 c0 -18 3 -51 6 -73 l6 -40 -31 35 c-16 19 -39 52 -51 73 l-21 37
45 0 c45 0 46 -1 46 -32z"/>
</g>
</svg>
