<?xml version="1.0" standalone="no"?>
<!DOCTYPE svg PUBLIC "-//W3C//DTD SVG 20010904//EN"
 "http://www.w3.org/TR/2001/REC-SVG-20010904/DTD/svg10.dtd">
<svg version="1.0" xmlns="http://www.w3.org/2000/svg"
 width="142.000000pt" height="107.000000pt" viewBox="0 0 142.000000 107.000000"
 preserveAspectRatio="xMidYMid meet">
<metadata>
Created by potrace 1.16, written by Peter Selinger 2001-2019
</metadata>
<g transform="translate(0.000000,107.000000) scale(0.100000,-0.100000)"
fill="#000000" stroke="none">
<path d="M300 678 c0 -158 1 -161 83 -204 l71 -37 40 22 c23 11 54 32 70 45
l29 23 -61 41 c-33 23 -69 42 -79 42 -10 0 -40 -14 -68 -30 -27 -16 -53 -30
-57 -30 -5 0 -8 43 -8 95 l0 95 150 0 150 0 1 -77 c1 -43 4 -141 8 -218 l6
-140 85 0 85 0 0 216 0 216 134 7 c73 4 136 4 140 1 3 -4 8 -49 11 -100 l5
-94 -30 20 c-69 46 -72 46 -144 8 -86 -46 -86 -60 0 -107 l66 -37 37 20 c21
11 50 31 64 45 27 25 27 26 24 142 l-3 116 -57 4 c-31 3 -213 5 -404 7 l-348
2 0 -93z m390 12 c0 -43 -3 -50 -20 -50 -17 0 -20 7 -20 50 0 43 3 50 20 50
17 0 20 -7 20 -50z m90 -62 c0 -62 3 -157 7 -210 l6 -98 -36 0 -36 0 -1 210 0
210 30 0 30 0 0 -112z m-90 -38 c0 -23 -4 -30 -20 -30 -16 0 -20 7 -20 30 0
23 4 30 20 30 16 0 20 -7 20 -30z m-184 -31 c30 -17 54 -32 54 -34 0 -2 -25
-17 -56 -35 l-56 -31 -54 32 c-29 18 -52 35 -50 37 11 10 92 61 100 61 5 1 33
-13 62 -30z m538 0 l57 -31 -29 -18 c-89 -54 -88 -54 -143 -20 -27 18 -49 34
-49 36 0 5 93 64 101 64 3 0 31 -14 63 -31z m-346 -46 c3 -19 -1 -23 -22 -23
-21 0 -26 5 -26 26 0 21 4 25 23 22 14 -2 23 -11 25 -25z m4 -118 l3 -75 -27
0 c-28 0 -28 0 -28 68 0 73 3 82 31 82 15 0 18 -11 21 -75z"/>
</g>
</svg>
