<?xml version="1.0" standalone="no"?>
<!DOCTYPE svg PUBLIC "-//W3C//DTD SVG 20010904//EN"
 "http://www.w3.org/TR/2001/REC-SVG-20010904/DTD/svg10.dtd">
<svg version="1.0" xmlns="http://www.w3.org/2000/svg"
 width="148.000000pt" height="113.000000pt" viewBox="0 0 148.000000 113.000000"
 preserveAspectRatio="xMidYMid meet">
<metadata>
Created by potrace 1.16, written by Peter Selinger 2001-2019
</metadata>
<g transform="translate(0.000000,113.000000) scale(0.100000,-0.100000)"
fill="#000000" stroke="none">
<path d="M448 813 c-8 -10 -45 -64 -81 -120 l-65 -101 34 -52 c65 -99 127
-171 142 -165 8 3 69 19 136 36 114 29 377 102 409 115 12 4 16 -14 23 -108
l9 -113 54 -3 c30 -2 59 2 64 7 8 8 7 11 -1 11 -9 0 -12 47 -12 180 l0 179
-37 10 c-113 30 -628 141 -656 141 -2 0 -11 -8 -19 -17z m442 -94 c118 -22
223 -42 233 -45 13 -4 17 -16 17 -55 0 -32 -4 -49 -12 -49 -7 0 -23 -3 -35 -6
-21 -6 -23 -3 -23 35 0 30 -4 41 -15 41 -11 0 -15 -12 -15 -45 0 -43 -1 -45
-37 -54 -74 -20 -488 -121 -496 -121 -4 0 20 39 53 86 l60 87 -22 36 c-12 20
-39 62 -60 93 -21 31 -38 59 -38 61 0 6 137 -17 390 -64z m-361 -26 l61 -83
-126 0 -126 0 16 23 c9 12 35 50 59 84 23 35 45 62 48 60 4 -1 34 -39 68 -84z
m-2 -190 c-30 -48 -60 -89 -65 -91 -11 -3 -116 157 -108 165 5 6 218 21 225
16 2 -1 -21 -42 -52 -90z m613 -58 l0 -115 -38 0 -38 0 2 43 c2 23 3 70 3 104
1 58 3 62 29 71 15 6 30 11 35 11 4 1 7 -51 7 -114z"/>
</g>
</svg>
