<?xml version="1.0" standalone="no"?>
<!DOCTYPE svg PUBLIC "-//W3C//DTD SVG 20010904//EN"
 "http://www.w3.org/TR/2001/REC-SVG-20010904/DTD/svg10.dtd">
<svg version="1.0" xmlns="http://www.w3.org/2000/svg"
 width="110.000000pt" height="159.000000pt" viewBox="0 0 110.000000 159.000000"
 preserveAspectRatio="xMidYMid meet">
<metadata>
Created by potrace 1.16, written by Peter Selinger 2001-2019
</metadata>
<g transform="translate(0.000000,159.000000) scale(0.100000,-0.100000)"
fill="#000000" stroke="none">
<path d="M620 1223 c-99 -78 -206 -185 -250 -248 -56 -81 -70 -123 -70 -210 0
-190 85 -347 227 -418 47 -24 218 -55 230 -43 4 4 -17 30 -46 60 l-52 53 52
14 c29 8 54 19 56 24 1 6 -22 23 -52 39 -76 39 -160 123 -189 188 -60 133 -40
196 111 347 54 54 113 110 131 124 42 34 35 48 -20 35 -23 -5 -52 -8 -65 -6
l-23 3 30 45 c54 82 40 80 -70 -7z m7 -41 c-27 -30 -20 -35 41 -29 l57 5 -101
-102 c-126 -127 -159 -188 -151 -276 10 -117 83 -220 203 -287 61 -33 61 -34
-10 -45 -10 -2 -23 -10 -29 -19 -7 -12 1 -25 39 -62 l49 -46 -74 19 c-41 10
-78 17 -83 14 -16 -10 -111 69 -154 128 -72 98 -107 242 -85 350 16 76 85 172
202 281 51 48 97 87 103 87 5 0 2 -8 -7 -18z"/>
</g>
</svg>
