<?xml version="1.0" standalone="no"?>
<!DOCTYPE svg PUBLIC "-//W3C//DTD SVG 20010904//EN"
 "http://www.w3.org/TR/2001/REC-SVG-20010904/DTD/svg10.dtd">
<svg version="1.0" xmlns="http://www.w3.org/2000/svg"
 width="181.000000pt" height="159.000000pt" viewBox="0 0 181.000000 159.000000"
 preserveAspectRatio="xMidYMid meet">
<metadata>
Created by potrace 1.16, written by Peter Selinger 2001-2019
</metadata>
<g transform="translate(0.000000,159.000000) scale(0.100000,-0.100000)"
fill="#000000" stroke="none">
<path d="M847 1185 l6 -104 -129 -3 -129 -3 -3 -134 -3 -134 -144 5 c-140 5
-145 4 -145 -15 0 -19 5 -20 145 -15 l145 5 2 -66 c2 -36 3 -91 3 -121 l0 -55
121 -3 121 -3 7 -46 c3 -25 6 -76 6 -114 0 -37 4 -70 9 -73 12 -8 21 55 21
157 l0 87 105 2 c58 1 122 2 143 3 35 0 37 2 44 40 3 22 7 133 7 246 1 203 1
206 -21 217 -13 7 -79 13 -152 14 l-130 3 3 108 c2 102 2 107 -18 107 -19 0
-20 -4 -14 -105z m303 -180 l0 -45 -59 0 c-63 0 -72 8 -63 57 4 23 21 29 85
32 l37 1 0 -45z m-294 -2 l2 -33 -64 0 c-64 0 -64 0 -64 28 0 16 2 31 4 33 3
2 30 4 62 4 l58 0 2 -32z m142 0 c-2 -23 -8 -38 -15 -37 -7 1 -32 2 -56 3 -45
1 -45 1 -38 64 1 4 26 7 57 7 l55 0 -3 -37z m-298 -3 c0 -28 -2 -30 -40 -30
-38 0 -40 2 -40 30 0 28 2 30 40 30 38 0 40 -2 40 -30z m3 -97 c-3 -89 0 -83
-43 -83 l-40 0 0 53 c0 30 3 57 7 61 4 4 23 6 42 4 32 -3 35 -5 34 -35z m155
-25 l3 -58 -66 0 -65 0 0 53 c0 30 3 57 7 61 4 4 32 6 63 4 l55 -3 3 -57z
m142 2 l0 -60 -60 0 -60 0 0 60 0 60 60 0 60 0 0 -60z m150 -5 l0 -65 -57 6
c-32 4 -60 8 -62 10 -2 2 -4 28 -5 59 l-2 55 63 0 63 0 0 -65z m0 -130 l0 -55
-65 0 -65 0 0 48 c0 27 3 52 7 55 3 4 33 7 65 7 l58 0 0 -55z m-440 0 l0 -45
-45 0 -45 0 0 45 0 45 45 0 45 0 0 -45z m150 -5 l0 -50 -42 0 c-78 0 -88 7
-88 56 l0 44 65 0 65 0 0 -50z m140 0 l0 -50 -60 0 -60 0 0 50 0 50 60 0 60 0
0 -50z m0 -115 l0 -45 -60 0 -60 0 0 45 0 45 60 0 60 0 0 -45z m153 3 c3 -24
3 -46 -1 -50 -4 -4 -35 -4 -69 -1 l-63 6 0 43 0 44 64 0 63 0 6 -42z m-443 -3
c0 -35 0 -35 -45 -35 -45 0 -45 0 -45 35 0 35 0 35 45 35 45 0 45 0 45 -35z
m150 -5 l0 -40 -65 0 -65 0 0 40 0 40 65 0 65 0 0 -40z"/>
<path d="M1210 797 c0 -19 5 -20 145 -15 130 5 167 10 154 22 -2 2 -70 6 -151
8 -143 5 -148 4 -148 -15z"/>
</g>
</svg>
