<?xml version="1.0" standalone="no"?>
<!DOCTYPE svg PUBLIC "-//W3C//DTD SVG 20010904//EN"
 "http://www.w3.org/TR/2001/REC-SVG-20010904/DTD/svg10.dtd">
<svg version="1.0" xmlns="http://www.w3.org/2000/svg"
 width="139.000000pt" height="120.000000pt" viewBox="0 0 139.000000 120.000000"
 preserveAspectRatio="xMidYMid meet">
<metadata>
Created by potrace 1.16, written by Peter Selinger 2001-2019
</metadata>
<g transform="translate(0.000000,120.000000) scale(0.100000,-0.100000)"
fill="#000000" stroke="none">
<path d="M952 891 c-11 -6 -12 -26 -7 -86 l8 -77 -39 6 c-22 3 -129 13 -239
22 -110 8 -237 19 -283 23 -46 4 -85 4 -88 -1 -3 -4 -4 -77 -3 -163 1 -108 5
-155 13 -155 6 0 142 11 301 25 160 14 299 25 310 25 18 0 20 -8 22 -83 4
-130 2 -127 78 -127 64 0 86 12 43 24 -13 3 -40 6 -60 6 l-37 0 -3 95 -3 95
53 0 c32 0 52 4 52 11 0 8 -36 10 -127 5 -71 -3 -201 -9 -290 -12 l-163 -7 0
108 0 108 68 -6 c118 -11 519 -17 492 -8 -14 5 -37 9 -52 10 -28 1 -28 2 -28
71 0 67 1 70 24 70 13 0 37 3 54 6 l31 6 4 -93 3 -94 2 103 2 102 -62 0 c-35
0 -69 -4 -76 -9z m-519 -157 c22 -4 37 -12 37 -21 0 -11 -12 -13 -52 -9 -29 3
-63 5 -75 5 -14 1 -23 7 -23 16 0 16 45 20 113 9z m37 -85 c0 -31 -1 -31 -37
-25 -21 3 -55 6 -75 6 -34 0 -38 3 -38 25 0 24 2 25 75 25 l75 0 0 -31z m0
-64 c0 -24 -2 -25 -75 -25 -68 0 -75 2 -75 20 0 17 8 20 68 23 37 2 70 4 75 5
4 1 7 -9 7 -23z m0 -60 c0 -12 -13 -15 -59 -15 -33 0 -66 -3 -75 -6 -10 -4
-16 -1 -16 9 0 16 25 21 113 25 27 2 37 -2 37 -13z"/>
</g>
</svg>
