<?xml version="1.0" standalone="no"?>
<!DOCTYPE svg PUBLIC "-//W3C//DTD SVG 20010904//EN"
 "http://www.w3.org/TR/2001/REC-SVG-20010904/DTD/svg10.dtd">
<svg version="1.0" xmlns="http://www.w3.org/2000/svg"
 width="148.000000pt" height="161.000000pt" viewBox="0 0 148.000000 161.000000"
 preserveAspectRatio="xMidYMid meet">
<metadata>
Created by potrace 1.16, written by Peter Selinger 2001-2019
</metadata>
<g transform="translate(0.000000,161.000000) scale(0.100000,-0.100000)"
fill="#000000" stroke="none">
<path d="M862 1176 c4 -101 2 -136 -7 -140 -7 -2 -11 -20 -11 -43 1 -21 3
-123 4 -227 l2 -188 153 4 c83 2 158 7 164 11 10 6 13 90 12 363 0 317 -2 354
-16 354 -14 0 -15 -15 -9 -135 l7 -135 -34 0 -34 0 5 135 c4 125 4 135 -13
135 -17 0 -18 -9 -12 -135 l7 -135 -25 0 -25 0 0 135 c0 115 -2 135 -16 135
-13 0 -14 -17 -8 -135 l7 -135 -34 0 -34 0 3 135 c3 120 1 135 -13 135 -15 0
-16 -13 -10 -135 l7 -135 -26 0 -26 0 7 135 c6 126 5 135 -12 135 -17 0 -17
-10 -13 -134z m300 -363 c2 -115 3 -209 3 -210 0 0 -66 1 -147 4 l-148 6 0
198 0 198 68 4 c37 2 102 4 144 5 l77 2 3 -207z"/>
<path d="M300 888 c1 -389 7 -541 21 -532 5 3 9 43 9 90 0 77 2 84 20 84 18 0
20 -7 20 -84 0 -47 5 -88 10 -91 6 -4 10 27 10 84 0 89 1 91 24 91 20 0 24 -6
30 -46 3 -26 6 -64 6 -85 0 -22 5 -39 11 -39 16 0 8 882 -9 888 -9 3 -12 -20
-12 -93 l0 -96 -27 3 -28 3 -3 93 c-4 119 -22 121 -22 2 0 -83 -1 -90 -20 -90
-19 0 -20 7 -20 90 0 56 -4 90 -10 90 -8 0 -11 -116 -10 -362z m144 -89 c4
-133 5 -243 3 -246 -3 -2 -33 -1 -67 3 l-63 7 6 126 c4 69 7 177 7 239 l0 112
53 0 54 0 7 -241z"/>
<path d="M861 473 c0 -54 3 -116 8 -138 7 -38 7 -37 14 30 12 124 9 205 -8
205 -12 0 -15 -17 -14 -97z"/>
<path d="M920 533 c0 -89 14 -232 21 -227 5 3 9 63 9 135 0 108 -2 129 -15
129 -11 0 -15 -11 -15 -37z"/>
<path d="M1004 498 c3 -40 5 -101 6 -136 0 -40 4 -61 10 -57 6 4 10 60 10 136
0 111 -2 129 -16 129 -14 0 -15 -10 -10 -72z"/>
<path d="M1070 503 c0 -38 3 -99 7 -138 10 -95 20 -48 22 98 1 89 -2 107 -14
107 -12 0 -15 -14 -15 -67z"/>
<path d="M1150 518 c0 -29 3 -91 7 -138 9 -116 21 -76 22 73 1 98 -1 117 -14
117 -11 0 -15 -12 -15 -52z"/>
</g>
</svg>
