<?xml version="1.0" standalone="no"?>
<!DOCTYPE svg PUBLIC "-//W3C//DTD SVG 20010904//EN"
 "http://www.w3.org/TR/2001/REC-SVG-20010904/DTD/svg10.dtd">
<svg version="1.0" xmlns="http://www.w3.org/2000/svg"
 width="301.000000pt" height="127.000000pt" viewBox="0 0 301.000000 127.000000"
 preserveAspectRatio="xMidYMid meet">
<metadata>
Created by potrace 1.16, written by Peter Selinger 2001-2019
</metadata>
<g transform="translate(0.000000,127.000000) scale(0.100000,-0.100000)"
fill="#000000" stroke="none">
<path d="M476 963 c-4 -5 -17 -8 -29 -8 -17 0 -28 -18 -63 -105 -23 -58 -48
-134 -54 -170 -7 -36 -17 -70 -22 -77 -11 -14 73 -153 147 -242 42 -51 55 -61
82 -61 18 0 119 37 230 84 109 46 293 124 408 173 l210 89 3 -43 c2 -24 7 -43
11 -43 10 0 27 42 36 88 l7 32 231 1 c128 1 293 4 368 8 90 4 135 3 133 -4 -3
-7 352 -167 430 -194 41 -14 -44 41 -184 118 -91 50 -157 91 -147 91 19 0 24
20 5 20 -7 0 69 55 170 121 101 66 182 123 179 125 -4 5 -129 -61 -342 -181
l-110 -62 -290 8 c-159 4 -325 8 -367 8 l-78 1 0 35 c0 30 -3 35 -24 35 -13 0
-26 -4 -28 -10 -2 -6 -24 -4 -58 5 -125 34 -287 68 -557 115 -327 58 -288 52
-297 43z m289 -83 c138 -23 333 -57 433 -76 101 -19 186 -34 188 -34 3 0 4
-24 2 -52 l-3 -53 -125 -48 c-443 -169 -716 -267 -743 -267 -11 0 -167 259
-167 277 0 11 91 226 114 271 12 23 22 31 34 28 9 -3 130 -24 267 -46z"/>
<path d="M2647 913 c-10 -9 -9 -95 3 -214 12 -125 18 -155 30 -143 10 11 30
194 30 283 0 63 -2 69 -22 75 -29 7 -33 7 -41 -1z"/>
</g>
</svg>
