<?xml version="1.0" standalone="no"?>
<!DOCTYPE svg PUBLIC "-//W3C//DTD SVG 20010904//EN"
 "http://www.w3.org/TR/2001/REC-SVG-20010904/DTD/svg10.dtd">
<svg version="1.0" xmlns="http://www.w3.org/2000/svg"
 width="111.000000pt" height="154.000000pt" viewBox="0 0 111.000000 154.000000"
 preserveAspectRatio="xMidYMid meet">
<metadata>
Created by potrace 1.16, written by Peter Selinger 2001-2019
</metadata>
<g transform="translate(0.000000,154.000000) scale(0.100000,-0.100000)"
fill="#000000" stroke="none">
<path d="M311 1232 c-12 -9 -13 -68 -6 -389 5 -208 9 -414 10 -458 l1 -80 219
3 c121 1 227 5 235 9 8 3 -25 11 -73 17 l-89 11 51 38 50 39 40 -29 c33 -23
41 -34 41 -60 0 -18 5 -33 11 -33 11 0 10 913 -1 924 -11 10 -475 18 -489 8z
m449 -56 c0 -25 -7 -40 -26 -55 l-25 -20 -61 47 -61 47 54 6 c119 13 119 13
119 -25z m-235 16 c-6 -5 -32 -26 -58 -47 l-48 -38 -27 26 c-22 21 -31 24 -40
15 -9 -9 -12 -5 -12 18 l0 29 97 3 c55 1 93 -1 88 -6z m94 -54 c33 -24 59 -47
57 -52 -1 -5 -27 -27 -59 -49 l-57 -40 -55 43 c-30 23 -55 46 -55 50 0 10 92
90 102 90 4 0 35 -19 67 -42z m-253 -77 c-27 -29 -10 -46 21 -21 28 22 28 22
95 -31 l46 -36 -48 -37 c-51 -39 -68 -39 -100 -1 -10 12 -16 13 -26 4 -12 -10
-14 5 -14 87 l0 98 22 -21 c21 -21 21 -23 4 -42z m404 18 c0 -22 -13 -25 -29
-6 -8 10 -7 17 1 25 15 15 28 6 28 -19z m-29 -30 c25 -18 29 -27 29 -68 0 -44
-3 -50 -37 -74 l-36 -26 -54 46 c-29 25 -52 47 -51 48 19 17 114 95 116 95 2
0 17 -9 33 -21z m-71 -181 c0 -7 -96 -78 -106 -78 -3 0 -28 18 -55 39 l-49 39
51 41 51 40 54 -37 c29 -20 53 -40 54 -44z m-280 -1 c0 -4 -7 -10 -15 -13 -8
-4 -15 -13 -15 -20 0 -23 29 -28 50 -9 17 16 21 15 69 -21 56 -42 56 -43 -12
-92 l-44 -31 -24 25 c-14 15 -31 23 -41 21 -16 -5 -18 4 -18 89 l0 95 25 -18
c13 -10 25 -22 25 -26z m380 -4 l0 -46 -25 23 -25 24 22 23 c12 13 23 23 25
23 2 0 3 -21 3 -47z m-33 -39 c27 -21 33 -32 33 -64 0 -33 -5 -41 -34 -59 -18
-12 -37 -21 -42 -21 -5 1 -29 19 -54 41 l-45 40 50 44 c28 25 52 45 54 45 2 0
19 -11 38 -26z m-67 -165 c0 -4 -25 -24 -55 -44 l-55 -38 -43 34 c-24 19 -46
37 -48 40 -2 4 18 25 46 47 l50 40 52 -37 c29 -20 53 -39 53 -42z m107 -42
c-1 -4 -15 1 -30 13 l-28 22 23 25 23 24 8 -37 c4 -21 6 -42 4 -47z m-405 56
c17 -15 17 -18 2 -34 -14 -15 -14 -21 -4 -34 12 -14 15 -14 30 0 9 8 22 15 29
15 13 0 91 -59 91 -69 0 -4 -24 -25 -53 -48 l-54 -42 -36 30 -37 30 0 85 c0
46 3 84 7 84 3 0 15 -7 25 -17z m368 -59 c36 -24 40 -31 40 -69 0 -38 -4 -45
-37 -67 l-38 -25 -57 49 -58 50 53 44 c28 24 53 44 55 44 1 0 20 -12 42 -26z
m-61 -174 c1 -5 -86 -74 -116 -93 -9 -6 -30 6 -63 33 -28 23 -50 46 -50 50 0
5 25 29 56 53 l57 45 58 -42 c32 -22 58 -43 58 -46z m-309 -14 c-10 -13 -10
-19 0 -31 12 -14 15 -14 31 1 17 15 21 14 63 -17 25 -18 46 -34 46 -36 0 -2
-38 -3 -85 -3 l-85 0 0 72 0 72 22 -21 c18 -18 19 -24 8 -37z m419 -8 c1 -34
-6 -35 -36 -6 l-23 22 22 23 c21 22 23 23 29 6 4 -10 8 -30 8 -45z"/>
</g>
</svg>
