<?xml version="1.0" standalone="no"?>
<!DOCTYPE svg PUBLIC "-//W3C//DTD SVG 20010904//EN"
 "http://www.w3.org/TR/2001/REC-SVG-20010904/DTD/svg10.dtd">
<svg version="1.0" xmlns="http://www.w3.org/2000/svg"
 width="156.000000pt" height="290.000000pt" viewBox="0 0 156.000000 290.000000"
 preserveAspectRatio="xMidYMid meet">
<metadata>
Created by potrace 1.16, written by Peter Selinger 2001-2019
</metadata>
<g transform="translate(0.000000,290.000000) scale(0.100000,-0.100000)"
fill="#000000" stroke="none">
<path d="M307 2593 c-9 -8 -9 -382 0 -492 l6 -84 363 7 c200 4 373 11 386 14
17 5 23 15 24 35 0 15 1 51 2 81 l2 54 85 7 c47 4 85 11 85 15 0 8 -153 18
-184 12 -13 -3 -16 -19 -16 -95 l0 -93 -362 4 c-200 2 -365 6 -367 8 -2 2 0
113 4 247 l7 244 202 7 c110 3 271 7 356 7 l155 1 3 -93 3 -94 87 3 c48 2 94
5 102 8 32 11 -16 24 -90 24 l-75 0 3 83 4 84 -123 6 c-159 9 -654 9 -662 0z"/>
<path d="M307 1683 c-9 -8 -9 -382 0 -492 l6 -84 311 7 c171 4 345 9 386 12
l75 6 3 82 c2 44 5 82 7 84 4 5 55 10 113 11 28 0 52 5 52 10 0 9 -166 21
-187 13 -9 -3 -13 -32 -13 -99 l0 -96 -46 7 c-26 3 -162 6 -304 6 l-256 0 4
253 c2 138 5 253 6 254 0 1 134 3 296 4 l295 3 3 -95 3 -95 67 3 c93 5 134 12
127 24 -4 5 -43 9 -88 9 l-82 0 3 83 4 84 -84 6 c-109 9 -693 9 -701 0z m113
-135 c0 -62 3 -177 7 -255 l6 -143 -29 0 c-16 0 -40 3 -53 7 l-23 6 6 206 c3
113 6 225 6 249 l0 42 40 0 40 0 0 -112z"/>
<path d="M306 864 c-8 -21 -8 -377 1 -483 l6 -84 380 6 c208 3 382 8 385 11 6
7 7 14 10 119 l2 57 69 0 c72 0 101 6 101 21 0 5 -45 9 -100 9 l-100 0 0 -95
0 -95 -56 0 -57 0 7 61 c3 34 6 151 6 260 l0 199 50 0 49 0 3 -97 c2 -71 6
-97 15 -96 7 2 51 6 98 9 94 8 115 23 33 25 -29 1 -57 2 -63 4 -5 1 -21 3 -35
3 -25 2 -25 4 -25 84 l0 83 -175 6 c-96 4 -270 7 -386 8 -185 1 -213 -1 -218
-15z m614 -116 c0 -57 3 -173 6 -258 l7 -155 -299 3 c-164 2 -301 6 -303 8 -2
2 0 114 4 248 l7 246 232 3 c127 1 257 3 289 5 l57 2 0 -102z"/>
</g>
</svg>
