<?xml version="1.0" standalone="no"?>
<!DOCTYPE svg PUBLIC "-//W3C//DTD SVG 20010904//EN"
 "http://www.w3.org/TR/2001/REC-SVG-20010904/DTD/svg10.dtd">
<svg version="1.0" xmlns="http://www.w3.org/2000/svg"
 width="169.000000pt" height="171.000000pt" viewBox="0 0 169.000000 171.000000"
 preserveAspectRatio="xMidYMid meet">
<metadata>
Created by potrace 1.16, written by Peter Selinger 2001-2019
</metadata>
<g transform="translate(0.000000,171.000000) scale(0.100000,-0.100000)"
fill="#000000" stroke="none">
<path d="M442 1373 c-63 -47 -89 -78 -119 -142 -44 -92 -17 -199 55 -222 84
-26 818 -18 977 10 22 4 -168 7 -422 7 -254 -1 -464 2 -468 6 -4 4 11 28 34
54 92 105 117 208 68 282 -33 50 -63 52 -125 5z m97 -29 c12 -15 21 -38 21
-53 0 -30 -36 -110 -86 -193 -29 -48 -40 -58 -62 -58 -35 0 -46 8 -67 49 -23
46 -15 110 21 162 25 37 126 119 145 119 4 0 17 -12 28 -26z"/>
<path d="M405 613 c-98 -51 -130 -141 -86 -239 16 -34 26 -43 62 -53 116 -34
1025 -15 1003 20 -3 5 -15 7 -27 5 -12 -3 -147 -8 -299 -11 -249 -5 -278 -4
-278 10 0 29 -88 190 -122 222 -54 52 -138 79 -165 52 -8 -8 -13 -8 -17 0 -10
15 -36 13 -71 -6z m183 -40 c18 -9 49 -34 68 -57 40 -46 119 -174 112 -181 -8
-8 -343 13 -370 24 -32 12 -58 58 -58 101 0 45 32 84 93 115 56 28 91 28 155
-2z"/>
</g>
</svg>
