<?xml version="1.0" standalone="no"?>
<!DOCTYPE svg PUBLIC "-//W3C//DTD SVG 20010904//EN"
 "http://www.w3.org/TR/2001/REC-SVG-20010904/DTD/svg10.dtd">
<svg version="1.0" xmlns="http://www.w3.org/2000/svg"
 width="219.000000pt" height="127.000000pt" viewBox="0 0 219.000000 127.000000"
 preserveAspectRatio="xMidYMid meet">
<metadata>
Created by potrace 1.16, written by Peter Selinger 2001-2019
</metadata>
<g transform="translate(0.000000,127.000000) scale(0.100000,-0.100000)"
fill="#000000" stroke="none">
<path d="M568 962 c-1 -5 -39 -27 -83 -50 -44 -23 -102 -59 -130 -80 l-50 -38
-3 -79 c-2 -44 0 -117 3 -163 l7 -83 46 -34 c26 -19 83 -53 127 -76 44 -23 82
-46 83 -51 5 -11 40 -10 47 2 4 6 39 27 78 46 40 20 103 59 141 86 66 49 69
50 110 39 43 -11 247 -116 257 -133 7 -11 134 68 190 119 l38 34 148 3 c81 2
186 4 233 5 157 2 69 19 -145 28 l-210 8 -65 -46 c-36 -25 -93 -63 -128 -83
l-62 -38 -78 50 c-136 87 -217 118 -228 87 -12 -29 -306 -180 -332 -170 -9 3
-65 39 -124 78 l-108 72 0 96 c0 53 3 117 6 143 7 45 10 49 83 100 42 29 93
63 114 75 l38 23 62 -27 c94 -42 240 -125 257 -146 14 -18 18 -18 66 -4 28 8
94 42 147 75 l97 61 62 -37 c35 -20 92 -57 128 -83 l65 -46 210 8 c116 5 214
12 218 17 11 10 -417 25 -432 15 -7 -4 -30 10 -54 32 -61 56 -189 137 -196
124 -11 -18 -210 -121 -256 -132 -42 -11 -44 -10 -111 39 -38 27 -101 66 -141
86 -39 19 -74 40 -78 46 -7 12 -42 13 -47 2z"/>
</g>
</svg>
