<?xml version="1.0" standalone="no"?>
<!DOCTYPE svg PUBLIC "-//W3C//DTD SVG 20010904//EN"
 "http://www.w3.org/TR/2001/REC-SVG-20010904/DTD/svg10.dtd">
<svg version="1.0" xmlns="http://www.w3.org/2000/svg"
 width="188.000000pt" height="144.000000pt" viewBox="0 0 188.000000 144.000000"
 preserveAspectRatio="xMidYMid meet">
<metadata>
Created by potrace 1.16, written by Peter Selinger 2001-2019
</metadata>
<g transform="translate(0.000000,144.000000) scale(0.100000,-0.100000)"
fill="#000000" stroke="none">
<path d="M1395 1133 c-430 -55 -561 -108 -781 -315 l-87 -83 -44 50 c-24 28
-71 83 -105 123 -60 71 -78 85 -78 59 0 -13 149 -196 188 -231 l22 -19 -59
-66 c-98 -111 -151 -181 -151 -197 0 -26 14 -14 97 86 44 52 92 106 106 119
l26 24 63 -58 c204 -190 306 -243 558 -296 83 -18 282 -37 255 -25 -5 3 -74
16 -152 30 -155 28 -316 78 -389 121 -52 31 -53 39 -3 25 77 -23 267 -50 352
-50 86 0 228 12 305 26 l32 6 0 -81 c0 -65 3 -81 15 -81 11 0 15 12 15 44 0
71 -12 166 -21 166 -5 0 -9 -7 -9 -15 0 -23 -43 -29 -235 -29 -193 0 -268 9
-466 55 l-126 30 -84 79 -84 78 70 72 c39 39 82 78 97 86 37 19 210 60 335 79
104 15 345 20 441 9 42 -6 52 -10 52 -25 0 -11 4 -19 9 -19 9 0 21 104 21 183
l0 47 -77 -1 c-43 -1 -91 -4 -108 -6z m155 -86 l0 -83 -82 12 c-184 28 -445
14 -602 -32 -27 -7 -51 -12 -53 -10 -2 2 20 17 49 34 108 62 308 118 503 141
50 6 101 13 115 15 74 10 70 14 70 -77z"/>
</g>
</svg>
