<?xml version="1.0" standalone="no"?>
<!DOCTYPE svg PUBLIC "-//W3C//DTD SVG 20010904//EN"
 "http://www.w3.org/TR/2001/REC-SVG-20010904/DTD/svg10.dtd">
<svg version="1.0" xmlns="http://www.w3.org/2000/svg"
 width="161.000000pt" height="160.000000pt" viewBox="0 0 161.000000 160.000000"
 preserveAspectRatio="xMidYMid meet">
<metadata>
Created by potrace 1.16, written by Peter Selinger 2001-2019
</metadata>
<g transform="translate(0.000000,160.000000) scale(0.100000,-0.100000)"
fill="#000000" stroke="none">
<path d="M542 1288 c-8 -8 -12 -57 -12 -155 0 -79 -1 -143 -3 -143 -1 0 -49 9
-107 20 -125 24 -120 24 -120 5 0 -17 14 -21 135 -38 l90 -12 3 -84 3 -83 -48
6 c-152 18 -183 19 -183 3 0 -21 31 -27 138 -27 l92 0 0 -75 0 -75 -75 7 c-63
5 -75 4 -75 -9 0 -12 17 -17 75 -23 l75 -7 0 -51 c0 -49 -3 -54 -57 -109 -31
-32 -55 -60 -52 -62 2 -3 56 46 119 109 63 63 121 115 128 115 6 0 12 4 12 9
0 10 284 294 299 299 5 2 22 -15 39 -36 l31 -38 -264 -264 c-145 -145 -262
-266 -259 -269 3 -3 124 114 269 259 l265 265 25 -30 c17 -21 24 -25 25 -14 0
9 -7 22 -15 29 -8 7 -15 18 -15 24 0 6 43 54 95 106 52 52 92 96 89 99 -2 3
-49 -39 -102 -92 l-98 -98 -33 41 -33 42 28 29 c32 34 21 40 -14 7 l-23 -23
-36 45 c-20 25 -79 88 -132 141 -74 73 -113 104 -170 132 -81 40 -91 43 -109
25z m93 -64 c65 -31 182 -130 271 -230 l64 -71 -159 -151 c-164 -157 -174
-163 -236 -146 -18 4 -20 12 -17 79 4 73 4 75 30 76 l27 1 -25 7 c-23 6 -25
13 -28 66 -4 74 4 105 26 105 16 1 16 1 0 11 -16 9 -18 27 -18 144 0 74 2 135
5 135 2 0 29 -12 60 -26z m-5 -627 c0 -2 -18 -21 -40 -42 l-40 -39 0 42 0 42
40 0 c22 0 40 -1 40 -3z"/>
<path d="M1005 610 c-159 -159 -285 -290 -280 -290 6 0 141 131 300 290 159
160 285 290 280 290 -6 0 -141 -130 -300 -290z"/>
</g>
</svg>
