<?xml version="1.0" standalone="no"?>
<!DOCTYPE svg PUBLIC "-//W3C//DTD SVG 20010904//EN"
 "http://www.w3.org/TR/2001/REC-SVG-20010904/DTD/svg10.dtd">
<svg version="1.0" xmlns="http://www.w3.org/2000/svg"
 width="151.000000pt" height="107.000000pt" viewBox="0 0 151.000000 107.000000"
 preserveAspectRatio="xMidYMid meet">
<metadata>
Created by potrace 1.16, written by Peter Selinger 2001-2019
</metadata>
<g transform="translate(0.000000,107.000000) scale(0.100000,-0.100000)"
fill="#000000" stroke="none">
<path d="M312 758 c-15 -15 -17 -393 -2 -434 9 -24 14 -26 48 -21 20 4 109 15
197 26 88 12 267 38 399 58 276 43 256 30 256 168 0 71 -3 84 -17 89 -33 9
-468 75 -633 96 -91 11 -181 23 -200 26 -21 3 -40 0 -48 -8z m378 -78 c162
-16 337 -34 389 -40 51 -5 94 -10 96 -12 1 -2 5 -44 8 -95 l6 -91 -47 -6 c-26
-4 -141 -15 -257 -26 -116 -12 -288 -30 -384 -41 -96 -10 -175 -18 -175 -17
-1 2 0 86 2 186 l4 184 31 -6 c18 -3 165 -19 327 -36z"/>
<path d="M447 613 c-9 -8 -9 -136 -1 -157 5 -14 8 -14 18 -3 6 8 68 28 139 46
117 30 132 31 183 21 66 -14 82 -7 27 11 -37 12 -37 13 -13 20 43 12 48 10 55
-21 9 -43 25 -37 25 10 0 46 -3 47 -92 26 -54 -13 -62 -12 -185 20 -136 36
-146 38 -156 27z m210 -74 c-15 -8 -188 -42 -191 -37 -2 2 -1 21 1 44 l5 41
99 -21 c54 -11 93 -23 86 -27z"/>
</g>
</svg>
