<?xml version="1.0" standalone="no"?>
<!DOCTYPE svg PUBLIC "-//W3C//DTD SVG 20010904//EN"
 "http://www.w3.org/TR/2001/REC-SVG-20010904/DTD/svg10.dtd">
<svg version="1.0" xmlns="http://www.w3.org/2000/svg"
 width="119.000000pt" height="233.000000pt" viewBox="0 0 119.000000 233.000000"
 preserveAspectRatio="xMidYMid meet">
<metadata>
Created by potrace 1.16, written by Peter Selinger 2001-2019
</metadata>
<g transform="translate(0.000000,233.000000) scale(0.100000,-0.100000)"
fill="#000000" stroke="none">
<path d="M305 1838 c4 -106 8 -203 11 -215 4 -23 7 -23 147 -23 176 0 319 10
292 21 -11 4 -111 8 -222 8 l-203 1 0 185 0 185 113 0 c63 0 161 3 219 6 l105
7 26 -69 c46 -121 50 -130 54 -114 2 8 -9 56 -25 105 l-28 90 -247 3 -248 3 6
-193z"/>
<path d="M764 1773 c3 -42 6 -91 6 -110 0 -18 5 -33 10 -33 6 0 10 43 10 110
0 95 -2 110 -16 110 -15 0 -16 -10 -10 -77z"/>
<path d="M300 1394 c0 -16 22 -17 285 -11 l285 7 0 -149 c0 -92 4 -152 10
-156 7 -4 10 47 8 157 l-3 163 -292 3 c-268 2 -293 1 -293 -14z"/>
<path d="M760 1153 c0 -199 15 -214 24 -24 4 83 5 155 1 161 -19 31 -25 -3
-25 -137z"/>
<path d="M310 965 c0 -13 27 -15 183 -14 100 0 205 4 232 8 l50 7 -64 7 c-35
4 -140 7 -232 7 -144 0 -169 -2 -169 -15z"/>
<path d="M300 613 c0 -82 3 -185 7 -231 l6 -83 223 3 c131 2 227 7 233 13 5 6
11 82 13 169 2 125 0 160 -10 164 -11 3 -13 -28 -10 -161 l3 -166 -220 6
c-121 3 -221 6 -221 7 -1 0 1 90 4 199 l5 197 171 0 c94 0 215 3 269 7 l97 6
0 -151 c0 -90 4 -153 10 -157 7 -4 10 49 10 153 l0 159 -37 7 c-21 3 -154 6
-295 6 l-258 0 0 -147z"/>
</g>
</svg>
