<?xml version="1.0" standalone="no"?>
<!DOCTYPE svg PUBLIC "-//W3C//DTD SVG 20010904//EN"
 "http://www.w3.org/TR/2001/REC-SVG-20010904/DTD/svg10.dtd">
<svg version="1.0" xmlns="http://www.w3.org/2000/svg"
 width="154.000000pt" height="129.000000pt" viewBox="0 0 154.000000 129.000000"
 preserveAspectRatio="xMidYMid meet">
<metadata>
Created by potrace 1.16, written by Peter Selinger 2001-2019
</metadata>
<g transform="translate(0.000000,129.000000) scale(0.100000,-0.100000)"
fill="#000000" stroke="none">
<path d="M646 922 c-31 -38 -68 -97 -84 -130 l-28 -62 -109 64 c-61 35 -113
62 -117 59 -5 -2 -8 -79 -8 -170 0 -128 3 -164 12 -160 7 2 60 32 117 65 l104
61 23 -56 c26 -64 83 -136 141 -176 l40 -28 52 30 c28 17 54 31 56 31 3 0 5
-17 5 -37 0 -52 11 -113 20 -113 12 0 21 153 10 160 -5 3 73 55 175 114 102
59 185 112 185 116 0 5 -22 21 -49 37 -43 24 -49 31 -45 53 3 14 6 52 7 85 2
48 -1 60 -13 60 -12 0 -15 -15 -13 -82 l2 -82 -61 37 -61 36 7 78 c6 75 6 78
-15 78 -21 0 -21 -3 -17 -71 4 -52 2 -69 -6 -66 -7 3 -59 33 -116 67 -147 87
-146 87 -214 2z m279 -74 c55 -31 142 -77 192 -104 51 -27 93 -51 93 -54 0 -3
-112 -65 -247 -139 l-247 -134 -43 49 c-139 160 -140 282 -3 436 l51 58 52
-29 c29 -16 97 -53 152 -83z m-480 -99 c54 -26 90 -50 90 -59 0 -9 -42 -35
-109 -67 -60 -29 -109 -53 -110 -53 -1 0 0 54 2 119 3 108 5 119 20 112 9 -4
58 -27 107 -52z"/>
<path d="M1070 501 c0 -89 14 -115 24 -44 11 80 8 123 -9 123 -12 0 -15 -15
-15 -79z"/>
</g>
</svg>
