<?xml version="1.0" standalone="no"?>
<!DOCTYPE svg PUBLIC "-//W3C//DTD SVG 20010904//EN"
 "http://www.w3.org/TR/2001/REC-SVG-20010904/DTD/svg10.dtd">
<svg version="1.0" xmlns="http://www.w3.org/2000/svg"
 width="195.000000pt" height="82.000000pt" viewBox="0 0 195.000000 82.000000"
 preserveAspectRatio="xMidYMid meet">
<metadata>
Created by potrace 1.16, written by Peter Selinger 2001-2019
</metadata>
<g transform="translate(0.000000,82.000000) scale(0.100000,-0.100000)"
fill="#000000" stroke="none">
<path d="M300 505 c0 -13 29 -15 203 -14 221 1 300 11 182 22 -38 4 -141 7
-227 7 -134 0 -158 -2 -158 -15z"/>
<path d="M757 497 c-3 -9 -3 -18 1 -21 4 -2 194 -9 422 -16 228 -7 416 -13
418 -15 5 -5 -298 -75 -368 -84 -206 -29 -482 -38 -590 -20 -135 22 -340 11
-340 -18 0 -12 11 -13 68 -6 81 10 110 10 367 -1 291 -13 498 11 774 88 130
37 140 41 125 55 -10 9 -425 37 -705 48 -147 5 -166 4 -172 -10z"/>
</g>
</svg>
