<?xml version="1.0" standalone="no"?>
<!DOCTYPE svg PUBLIC "-//W3C//DTD SVG 20010904//EN"
 "http://www.w3.org/TR/2001/REC-SVG-20010904/DTD/svg10.dtd">
<svg version="1.0" xmlns="http://www.w3.org/2000/svg"
 width="152.000000pt" height="152.000000pt" viewBox="0 0 152.000000 152.000000"
 preserveAspectRatio="xMidYMid meet">
<metadata>
Created by potrace 1.16, written by Peter Selinger 2001-2019
</metadata>
<g transform="translate(0.000000,152.000000) scale(0.100000,-0.100000)"
fill="#000000" stroke="none">
<path d="M785 1211 c-3 -6 -15 -11 -26 -11 -16 0 -19 -7 -19 -49 l0 -49 -45
-11 c-49 -12 -388 -121 -393 -126 -9 -8 10 -43 26 -48 94 -26 408 -129 415
-136 4 -4 -12 -13 -35 -20 -114 -33 -394 -124 -401 -130 -25 -24 15 -44 224
-112 245 -81 220 -62 223 -171 0 -27 5 -48 9 -48 4 0 34 14 67 30 33 17 66 30
74 30 8 0 16 4 18 8 2 4 35 29 74 54 135 90 228 216 222 301 -2 27 -7 41 -15
40 -7 -2 -22 16 -34 40 -58 113 -176 257 -288 352 -80 67 -86 71 -96 56z m81
-98 c21 -18 22 -26 27 -356 l5 -339 -22 6 c-12 3 -39 12 -60 21 l-37 16 2 328
c1 181 4 340 6 355 l5 26 27 -20 c14 -11 36 -27 47 -37z m-129 -300 c-2 -2
-58 16 -123 41 -65 24 -150 55 -187 68 l-68 24 188 70 188 70 3 -134 c1 -74 1
-137 -1 -139z m328 88 c101 -124 116 -154 108 -206 -9 -59 -80 -152 -167 -223
-43 -35 -79 -62 -81 -60 -2 2 -1 146 2 321 l6 318 25 -23 c13 -13 62 -70 107
-127z m-316 -291 l2 -140 -83 31 c-46 17 -134 49 -196 71 l-114 41 172 63 c95
35 175 66 178 69 3 3 13 5 23 5 15 0 17 -14 18 -140z m99 -195 c30 -9 50 -21
45 -25 -4 -4 -34 -22 -65 -40 l-58 -32 0 62 c0 46 3 61 13 58 6 -3 36 -13 65
-23z"/>
</g>
</svg>
