<?xml version="1.0" standalone="no"?>
<!DOCTYPE svg PUBLIC "-//W3C//DTD SVG 20010904//EN"
 "http://www.w3.org/TR/2001/REC-SVG-20010904/DTD/svg10.dtd">
<svg version="1.0" xmlns="http://www.w3.org/2000/svg"
 width="152.000000pt" height="113.000000pt" viewBox="0 0 152.000000 113.000000"
 preserveAspectRatio="xMidYMid meet">
<metadata>
Created by potrace 1.16, written by Peter Selinger 2001-2019
</metadata>
<g transform="translate(0.000000,113.000000) scale(0.100000,-0.100000)"
fill="#000000" stroke="none">
<path d="M375 788 c-38 -94 -75 -214 -75 -244 0 -52 32 -59 260 -58 107 1 262
8 344 18 82 9 154 16 161 16 9 0 13 -17 12 -59 -1 -47 3 -66 19 -88 27 -36 81
-73 108 -73 15 0 7 8 -24 23 -57 29 -80 72 -80 150 0 53 2 57 24 57 13 0 37 3
54 6 l31 6 4 -113 c2 -78 3 -62 3 51 0 91 -1 144 -3 118 l-4 -48 -55 0 c-41 0
-54 4 -54 15 0 8 -4 15 -10 15 -5 0 -10 -8 -10 -19 0 -21 -10 -22 -250 -41
-165 -14 -449 -14 -483 -1 -23 9 -26 14 -21 43 5 27 57 173 89 251 5 12 3 17
-8 17 -8 0 -23 -19 -32 -42z"/>
<path d="M456 818 c-3 -7 -10 -71 -16 -142 -10 -114 -9 -149 4 -135 3 3 32
196 39 263 2 22 -21 34 -27 14z"/>
<path d="M506 773 c-11 -85 -17 -249 -8 -228 8 16 42 235 42 266 0 5 -6 9 -14
9 -8 0 -16 -17 -20 -47z"/>
<path d="M576 809 c-8 -21 -26 -202 -26 -251 1 -73 16 -22 35 115 12 92 14
132 6 140 -7 7 -12 6 -15 -4z"/>
<path d="M626 763 c-12 -84 -17 -250 -8 -228 8 16 42 235 42 266 0 5 -6 9 -14
9 -8 0 -16 -17 -20 -47z"/>
<path d="M1070 659 c-52 -4 -135 -8 -185 -9 -141 -4 -205 -11 -205 -25 0 -15
149 -10 359 11 79 8 152 14 162 14 11 0 19 5 19 10 0 11 -7 11 -150 -1z"/>
</g>
</svg>
