<?xml version="1.0" standalone="no"?>
<!DOCTYPE svg PUBLIC "-//W3C//DTD SVG 20010904//EN"
 "http://www.w3.org/TR/2001/REC-SVG-20010904/DTD/svg10.dtd">
<svg version="1.0" xmlns="http://www.w3.org/2000/svg"
 width="172.000000pt" height="127.000000pt" viewBox="0 0 172.000000 127.000000"
 preserveAspectRatio="xMidYMid meet">
<metadata>
Created by potrace 1.16, written by Peter Selinger 2001-2019
</metadata>
<g transform="translate(0.000000,127.000000) scale(0.100000,-0.100000)"
fill="#000000" stroke="none">
<path d="M1252 940 c1 -17 -1 -32 -3 -34 -8 -9 -300 -66 -411 -81 -62 -9 -209
-18 -326 -22 l-212 -6 0 -25 0 -25 378 7 c207 3 423 9 480 13 l102 6 0 -151 0
-150 -87 -21 c-247 -57 -451 -81 -699 -81 l-174 0 0 -27 0 -26 485 6 c455 6
485 5 486 -11 0 -14 2 -14 6 -2 8 21 24 29 58 31 26 2 24 3 -10 8 -39 6 -40 7
-40 46 0 58 2 62 51 75 24 7 44 17 44 22 0 5 -8 7 -17 4 -10 -3 -30 -8 -45
-12 l-28 -6 0 146 0 146 30 0 c17 0 30 5 30 10 0 6 -14 10 -31 10 -30 0 -30 0
-27 52 3 50 4 52 38 61 38 9 64 27 39 27 -8 0 -29 -4 -47 -9 -31 -9 -32 -9
-32 20 0 22 -5 29 -19 29 -15 0 -19 -7 -19 -30z m7 -105 l2 -45 -88 1 c-100 2
-243 15 -198 18 17 1 84 17 150 36 66 18 123 33 126 34 3 1 6 -19 8 -44z m5
-476 c-2 -3 -13 -5 -26 -3 -13 1 -86 3 -163 4 l-140 1 154 39 c85 22 157 42
160 46 6 6 21 -77 15 -87z"/>
<path d="M1390 778 c0 -247 11 -479 22 -472 4 3 8 153 8 335 0 286 -2 329 -15
329 -13 0 -15 -28 -15 -192z"/>
</g>
</svg>
