<?xml version="1.0" standalone="no"?>
<!DOCTYPE svg PUBLIC "-//W3C//DTD SVG 20010904//EN"
 "http://www.w3.org/TR/2001/REC-SVG-20010904/DTD/svg10.dtd">
<svg version="1.0" xmlns="http://www.w3.org/2000/svg"
 width="169.000000pt" height="142.000000pt" viewBox="0 0 169.000000 142.000000"
 preserveAspectRatio="xMidYMid meet">
<metadata>
Created by potrace 1.16, written by Peter Selinger 2001-2019
</metadata>
<g transform="translate(0.000000,142.000000) scale(0.100000,-0.100000)"
fill="#000000" stroke="none">
<path d="M457 1038 c-109 -109 -150 -188 -155 -299 -5 -96 10 -168 53 -257 32
-68 128 -182 152 -182 20 0 116 114 139 165 13 28 30 75 37 105 l15 55 43 -2
c24 -1 170 -17 324 -37 154 -20 289 -37 300 -39 19 -2 20 5 23 137 1 77 -1
142 -5 146 -4 4 -154 -12 -333 -36 -179 -24 -330 -43 -336 -44 -7 0 -14 31
-18 79 -3 43 -13 101 -22 130 -16 55 -89 154 -117 159 -11 2 -49 -28 -100 -80z
m185 -65 c17 -39 50 -212 41 -222 -2 -3 -70 -14 -151 -25 -116 -17 -147 -24
-150 -37 -2 -13 21 -19 148 -34 82 -10 150 -21 150 -25 0 -15 -39 -118 -60
-159 -25 -50 -106 -141 -125 -141 -35 0 -136 163 -161 260 -44 174 12 330 166
457 l55 45 34 -38 c18 -22 42 -58 53 -81z m725 -280 c5 -71 9 -129 9 -130 -1
-1 -94 13 -206 32 -113 18 -298 46 -412 61 -115 16 -208 31 -208 34 0 4 91 19
203 34 151 20 520 79 598 95 3 0 10 -56 16 -126z"/>
</g>
</svg>
