<?xml version="1.0" standalone="no"?>
<!DOCTYPE svg PUBLIC "-//W3C//DTD SVG 20010904//EN"
 "http://www.w3.org/TR/2001/REC-SVG-20010904/DTD/svg10.dtd">
<svg version="1.0" xmlns="http://www.w3.org/2000/svg"
 width="107.000000pt" height="156.000000pt" viewBox="0 0 107.000000 156.000000"
 preserveAspectRatio="xMidYMid meet">
<metadata>
Created by potrace 1.16, written by Peter Selinger 2001-2019
</metadata>
<g transform="translate(0.000000,156.000000) scale(0.100000,-0.100000)"
fill="#000000" stroke="none">
<path d="M306 1244 c-7 -18 2 -862 10 -912 l5 -33 89 3 90 3 0 93 c0 89 1 92
23 92 66 0 193 96 227 173 22 48 27 185 9 252 -16 61 -123 160 -194 181 l-55
15 0 64 0 63 -50 11 c-77 17 -147 14 -154 -5z m165 -116 c0 -57 2 -114 4 -128
2 -14 4 -169 5 -345 l2 -320 -73 4 c-41 2 -74 4 -75 5 -1 0 1 198 4 438 l5
437 41 4 c96 9 86 20 87 -95z m136 -79 c48 -23 113 -101 132 -158 26 -77 4
-217 -40 -257 -10 -9 -19 -22 -19 -27 0 -21 -83 -70 -137 -82 l-33 -7 0 71 c0
59 3 71 16 71 27 0 83 40 99 70 8 16 15 54 15 84 0 47 -4 60 -30 90 -17 19
-47 40 -65 46 -34 11 -35 13 -35 66 0 52 1 54 27 54 15 0 46 -10 70 -21z m-22
-146 c30 -30 46 -84 38 -125 -7 -38 -64 -98 -92 -98 -20 0 -21 4 -21 129 l0
128 25 -5 c13 -2 36 -16 50 -29z"/>
</g>
</svg>
