<?xml version="1.0" standalone="no"?>
<!DOCTYPE svg PUBLIC "-//W3C//DTD SVG 20010904//EN"
 "http://www.w3.org/TR/2001/REC-SVG-20010904/DTD/svg10.dtd">
<svg version="1.0" xmlns="http://www.w3.org/2000/svg"
 width="144.000000pt" height="102.000000pt" viewBox="0 0 144.000000 102.000000"
 preserveAspectRatio="xMidYMid meet">
<metadata>
Created by potrace 1.16, written by Peter Selinger 2001-2019
</metadata>
<g transform="translate(0.000000,102.000000) scale(0.100000,-0.100000)"
fill="#000000" stroke="none">
<path d="M1090 560 c0 -100 4 -160 10 -160 6 0 10 10 10 23 1 32 18 206 26
255 6 40 6 42 -20 42 l-26 0 0 -160z"/>
<path d="M315 696 c-6 -21 -15 -379 -9 -373 4 4 52 302 54 335 0 1 42 2 93 2
l92 0 -3 -119 c-2 -85 -7 -123 -17 -131 -7 -6 -51 -26 -97 -45 -47 -19 -84
-41 -86 -50 -2 -8 1 -15 6 -15 21 0 140 54 234 107 102 57 121 83 32 44 -26
-12 -49 -19 -51 -17 -3 2 3 52 11 110 9 59 16 109 16 111 0 3 46 5 102 5 56 0
99 2 96 5 -2 3 -90 12 -194 20 -104 8 -208 17 -232 19 -27 2 -45 -1 -47 -8z"/>
<path d="M930 664 c-63 -25 -146 -57 -184 -71 -61 -24 -87 -45 -74 -59 3 -2
37 9 76 26 39 16 74 30 77 30 4 0 4 -28 0 -62 -4 -39 -3 -59 2 -53 12 12 33
85 33 112 0 15 25 31 108 70 133 64 114 67 -38 7z"/>
<path d="M670 497 c0 -7 58 -31 143 -59 185 -60 187 -61 187 -50 0 10 -290
122 -315 122 -8 0 -15 -6 -15 -13z"/>
</g>
</svg>
