<?xml version="1.0" standalone="no"?>
<!DOCTYPE svg PUBLIC "-//W3C//DTD SVG 20010904//EN"
 "http://www.w3.org/TR/2001/REC-SVG-20010904/DTD/svg10.dtd">
<svg version="1.0" xmlns="http://www.w3.org/2000/svg"
 width="100.000000pt" height="117.000000pt" viewBox="0 0 100.000000 117.000000"
 preserveAspectRatio="xMidYMid meet">
<metadata>
Created by potrace 1.16, written by Peter Selinger 2001-2019
</metadata>
<g transform="translate(0.000000,117.000000) scale(0.100000,-0.100000)"
fill="#000000" stroke="none">
<path d="M300 863 c0 -4 9 -32 20 -62 12 -29 28 -83 36 -118 13 -57 13 -74 0
-151 -14 -77 -28 -136 -51 -209 l-7 -23 154 0 c86 0 176 3 201 6 44 6 45 8 36
32 -23 60 -51 213 -51 277 0 53 7 91 31 157 17 47 31 88 31 90 0 2 -90 5 -200
7 -110 1 -200 -1 -200 -6z m334 -94 c-37 -103 -37 -202 1 -324 43 -141 41
-129 14 -122 -13 4 -91 7 -173 7 -137 0 -148 1 -141 18 64 166 74 300 32 419
l-26 72 157 3 c86 2 158 3 159 2 2 0 -9 -34 -23 -75z"/>
</g>
</svg>
