<?xml version="1.0" standalone="no"?>
<!DOCTYPE svg PUBLIC "-//W3C//DTD SVG 20010904//EN"
 "http://www.w3.org/TR/2001/REC-SVG-20010904/DTD/svg10.dtd">
<svg version="1.0" xmlns="http://www.w3.org/2000/svg"
 width="148.000000pt" height="97.000000pt" viewBox="0 0 148.000000 97.000000"
 preserveAspectRatio="xMidYMid meet">
<metadata>
Created by potrace 1.16, written by Peter Selinger 2001-2019
</metadata>
<g transform="translate(0.000000,97.000000) scale(0.100000,-0.100000)"
fill="#000000" stroke="none">
<path d="M535 658 c-74 -28 -159 -106 -212 -195 -22 -39 -23 -44 -9 -58 14
-14 26 -12 128 19 161 50 227 59 306 41 76 -18 207 -78 286 -130 105 -69 147
-31 145 130 l-2 90 -8 -65 c-14 -109 -19 -130 -40 -151 -27 -27 -45 -15 -124
86 -127 162 -240 236 -370 241 -38 2 -83 -1 -100 -8z m153 -34 c19 -6 22 -13
22 -59 l0 -52 -68 -6 c-59 -6 -226 -48 -286 -73 -18 -7 -18 -5 4 27 91 134
212 194 328 163z m82 -34 c15 -8 18 -19 15 -51 -2 -23 -5 -43 -7 -45 -2 -2
-17 1 -34 5 -16 5 -23 10 -16 10 8 1 12 17 12 46 0 48 2 50 30 35z m180 -136
c28 -29 50 -58 50 -63 0 -6 -42 11 -94 37 l-94 47 -1 48 -1 48 45 -32 c25 -18
68 -57 95 -85z"/>
</g>
</svg>
