<?xml version="1.0" standalone="no"?>
<!DOCTYPE svg PUBLIC "-//W3C//DTD SVG 20010904//EN"
 "http://www.w3.org/TR/2001/REC-SVG-20010904/DTD/svg10.dtd">
<svg version="1.0" xmlns="http://www.w3.org/2000/svg"
 width="163.000000pt" height="123.000000pt" viewBox="0 0 163.000000 123.000000"
 preserveAspectRatio="xMidYMid meet">
<metadata>
Created by potrace 1.16, written by Peter Selinger 2001-2019
</metadata>
<g transform="translate(0.000000,123.000000) scale(0.100000,-0.100000)"
fill="#000000" stroke="none">
<path d="M1020 874 c-36 -31 -66 -62 -68 -69 -2 -8 -46 -15 -130 -22 l-127 -9
-36 34 c-20 18 -57 43 -82 56 -41 19 -55 21 -137 15 -90 -6 -124 -19 -104 -39
6 -6 27 -4 58 5 27 8 64 15 82 15 39 0 113 -30 159 -66 32 -24 47 -54 26 -54
-4 0 -11 -20 -13 -44 -3 -24 -17 -69 -32 -101 -27 -59 -27 -84 -1 -49 30 38
64 120 67 156 2 43 -7 40 161 58 54 6 103 8 108 5 14 -9 11 -101 -7 -167 -8
-33 -13 -63 -10 -66 12 -11 55 106 57 156 2 28 4 52 6 52 12 0 74 -38 111 -68
l42 -34 43 35 c93 78 112 96 97 96 -8 0 -46 -22 -85 -49 l-69 -49 -46 42 c-25
24 -60 49 -77 56 -18 7 -33 16 -33 20 0 4 27 33 60 66 57 56 70 75 52 75 -4 0
-36 -25 -72 -56z"/>
<path d="M305 773 c7 -50 47 -134 74 -156 12 -10 14 -9 7 8 -24 57 -45 124
-51 158 -4 24 -11 37 -22 37 -13 0 -14 -8 -8 -47z"/>
<path d="M840 698 c0 -33 -22 -135 -36 -172 -5 -13 -4 -17 4 -12 21 13 54 100
59 159 5 48 3 57 -11 57 -11 0 -16 -9 -16 -32z"/>
<path d="M475 676 c-38 -12 -70 -27 -69 -34 1 -7 2 -23 3 -37 1 -29 104 -110
215 -171 57 -31 81 -38 130 -39 54 -2 69 -7 134 -48 111 -72 126 -60 21 18
l-58 43 92 45 c51 25 117 61 147 80 30 20 59 32 65 28 11 -9 160 -71 169 -71
23 0 -7 23 -77 60 l-84 44 -114 -57 c-133 -66 -213 -95 -283 -103 -44 -5 -61
-1 -121 29 -69 34 -215 140 -215 157 0 4 7 11 16 14 11 4 32 -7 59 -29 58 -47
78 -45 31 4 l-38 39 48 26 c39 20 44 25 24 25 -14 -1 -56 -11 -95 -23z"/>
</g>
</svg>
