<?xml version="1.0" standalone="no"?>
<!DOCTYPE svg PUBLIC "-//W3C//DTD SVG 20010904//EN"
 "http://www.w3.org/TR/2001/REC-SVG-20010904/DTD/svg10.dtd">
<svg version="1.0" xmlns="http://www.w3.org/2000/svg"
 width="151.000000pt" height="135.000000pt" viewBox="0 0 151.000000 135.000000"
 preserveAspectRatio="xMidYMid meet">
<metadata>
Created by potrace 1.16, written by Peter Selinger 2001-2019
</metadata>
<g transform="translate(0.000000,135.000000) scale(0.100000,-0.100000)"
fill="#000000" stroke="none">
<path d="M640 1035 c0 -16 44 -20 87 -9 37 10 15 24 -38 24 -37 0 -49 -4 -49
-15z"/>
<path d="M910 995 c0 -16 34 -20 89 -9 47 10 27 24 -35 24 -41 0 -54 -4 -54
-15z"/>
<path d="M470 965 c0 -11 11 -15 39 -15 22 0 46 3 55 6 29 11 5 24 -45 24 -37
0 -49 -4 -49 -15z"/>
<path d="M740 965 c0 -16 27 -19 79 -9 50 10 36 24 -24 24 -42 0 -55 -3 -55
-15z"/>
<path d="M1010 929 c0 -20 3 -21 52 -15 81 11 81 20 1 30 -50 6 -53 5 -53 -15z"/>
<path d="M700 875 c0 -16 34 -20 89 -9 47 10 27 24 -35 24 -41 0 -54 -4 -54
-15z"/>
<path d="M1100 841 c0 -20 3 -21 53 -15 80 10 80 19 -1 30 -49 6 -52 5 -52
-15z"/>
<path d="M920 830 c0 -21 3 -22 53 -15 80 11 80 20 -1 31 -49 6 -52 5 -52 -16z"/>
<path d="M560 825 c0 -11 12 -15 49 -15 53 0 75 14 38 24 -43 11 -87 7 -87 -9z"/>
<path d="M300 815 c0 -11 11 -15 39 -15 22 0 46 3 55 6 29 11 5 24 -45 24 -37
0 -49 -4 -49 -15z"/>
<path d="M730 760 c0 -21 3 -22 53 -15 80 11 80 20 -1 31 -49 6 -52 5 -52 -16z"/>
<path d="M440 715 c0 -16 27 -19 79 -9 50 10 36 24 -24 24 -42 0 -55 -3 -55
-15z"/>
<path d="M1090 715 c0 -16 27 -19 79 -9 50 10 36 24 -24 24 -42 0 -55 -3 -55
-15z"/>
<path d="M930 700 c0 -21 3 -21 53 -15 52 7 64 11 56 19 -2 2 -28 7 -56 11
-50 6 -53 6 -53 -15z"/>
<path d="M540 682 c0 -15 7 -17 43 -14 61 5 78 13 47 22 -14 5 -40 8 -57 9
-25 1 -33 -3 -33 -17z"/>
<path d="M660 618 c0 -19 4 -20 52 -14 81 11 81 21 1 30 -49 5 -53 4 -53 -16z"/>
<path d="M1085 630 c-13 -22 11 -31 64 -24 51 7 71 24 27 24 -13 0 -37 3 -54
6 -18 4 -32 1 -37 -6z"/>
<path d="M912 593 c3 -15 12 -17 53 -14 28 1 55 6 60 9 12 8 -35 19 -83 21
-27 1 -33 -2 -30 -16z"/>
<path d="M500 575 c0 -16 27 -19 79 -9 50 10 36 24 -24 24 -42 0 -55 -3 -55
-15z"/>
<path d="M660 555 c0 -16 44 -20 88 -9 40 11 23 24 -33 24 -42 0 -55 -3 -55
-15z"/>
<path d="M490 465 c0 -16 27 -19 79 -9 50 10 36 24 -24 24 -42 0 -55 -3 -55
-15z"/>
<path d="M1070 465 c0 -11 12 -15 49 -15 53 0 75 14 38 24 -43 11 -87 7 -87
-9z"/>
<path d="M693 402 c-9 -21 3 -25 63 -17 65 8 61 21 -10 27 -33 2 -50 -1 -53
-10z"/>
<path d="M920 401 c0 -20 3 -21 53 -15 80 10 80 21 -2 31 -48 5 -51 4 -51 -16z"/>
<path d="M807 323 c-17 -16 -3 -23 47 -23 57 0 82 13 43 24 -30 8 -82 8 -90
-1z"/>
</g>
</svg>
