<?xml version="1.0" standalone="no"?>
<!DOCTYPE svg PUBLIC "-//W3C//DTD SVG 20010904//EN"
 "http://www.w3.org/TR/2001/REC-SVG-20010904/DTD/svg10.dtd">
<svg version="1.0" xmlns="http://www.w3.org/2000/svg"
 width="190.000000pt" height="119.000000pt" viewBox="0 0 190.000000 119.000000"
 preserveAspectRatio="xMidYMid meet">
<metadata>
Created by potrace 1.16, written by Peter Selinger 2001-2019
</metadata>
<g transform="translate(0.000000,119.000000) scale(0.100000,-0.100000)"
fill="#000000" stroke="none">
<path d="M1397 768 c-122 -90 -165 -127 -161 -139 5 -19 -31 -22 -481 -39
-148 -6 -312 -13 -362 -16 l-93 -6 0 -36 c0 -21 3 -46 6 -57 5 -20 11 -20 462
-15 337 4 461 2 472 -6 22 -17 142 -76 243 -119 58 -25 92 -34 98 -28 6 6 12
127 16 287 5 233 4 279 -8 287 -8 5 -16 9 -19 9 -3 0 -81 -55 -173 -122z m170
-444 c-3 -3 -66 28 -141 69 -75 41 -133 77 -129 80 3 4 -2 7 -13 8 -111 3
-396 6 -646 7 l-308 2 0 24 c0 23 4 24 87 30 49 3 149 8 223 11 182 8 589 35
619 41 17 4 21 8 13 13 -9 5 8 24 50 57 35 27 101 82 148 123 l85 74 8 -267
c5 -147 7 -270 4 -272z"/>
</g>
</svg>
