<?xml version="1.0" standalone="no"?>
<!DOCTYPE svg PUBLIC "-//W3C//DTD SVG 20010904//EN"
 "http://www.w3.org/TR/2001/REC-SVG-20010904/DTD/svg10.dtd">
<svg version="1.0" xmlns="http://www.w3.org/2000/svg"
 width="138.000000pt" height="173.000000pt" viewBox="0 0 138.000000 173.000000"
 preserveAspectRatio="xMidYMid meet">
<metadata>
Created by potrace 1.16, written by Peter Selinger 2001-2019
</metadata>
<g transform="translate(0.000000,173.000000) scale(0.100000,-0.100000)"
fill="#000000" stroke="none">
<path d="M431 1344 c-65 -103 -98 -181 -119 -284 -13 -65 -14 -81 -3 -109 8
-17 22 -36 31 -41 16 -9 17 -14 5 -53 -38 -127 -25 -304 27 -363 35 -40 110
-91 224 -151 115 -61 126 -50 14 15 -49 29 -90 56 -90 61 0 5 25 52 57 105
l56 96 186 1 c218 1 285 12 136 22 -55 4 -146 7 -202 7 -57 0 -103 2 -103 4 0
3 4 16 10 30 9 25 12 26 102 26 144 0 318 12 312 22 -3 4 -92 8 -198 8 l-193
0 -10 68 c-6 37 -9 69 -7 70 1 2 93 6 203 9 111 3 201 10 201 15 0 4 -88 9
-195 9 -107 1 -199 3 -205 4 -5 1 -14 3 -19 4 -5 0 -11 10 -14 21 -5 19 0 20
62 20 132 0 341 13 341 22 0 4 -94 8 -210 8 -116 0 -210 -4 -210 -9 0 -10 -88
-36 -96 -28 -4 3 3 61 14 129 11 68 26 165 33 216 8 65 16 92 25 92 8 0 14 4
14 9 0 7 -99 32 -119 31 -3 -1 -30 -39 -60 -86z m119 46 c0 -6 -9 -88 -19
-183 -11 -94 -21 -192 -23 -217 -3 -52 -13 -57 -94 -59 -57 -1 -78 14 -87 64
-12 69 83 285 171 388 16 18 52 23 52 7z m74 -495 c30 -98 31 -142 2 -219 -29
-77 -117 -246 -127 -246 -20 0 -113 87 -127 118 -20 46 -21 222 0 297 13 50
13 50 63 57 28 4 75 16 105 27 30 11 58 20 61 20 3 1 13 -24 23 -54z"/>
</g>
</svg>
