<?xml version="1.0" standalone="no"?>
<!DOCTYPE svg PUBLIC "-//W3C//DTD SVG 20010904//EN"
 "http://www.w3.org/TR/2001/REC-SVG-20010904/DTD/svg10.dtd">
<svg version="1.0" xmlns="http://www.w3.org/2000/svg"
 width="117.000000pt" height="144.000000pt" viewBox="0 0 117.000000 144.000000"
 preserveAspectRatio="xMidYMid meet">
<metadata>
Created by potrace 1.16, written by Peter Selinger 2001-2019
</metadata>
<g transform="translate(0.000000,144.000000) scale(0.100000,-0.100000)"
fill="#000000" stroke="none">
<path d="M756 1100 c-139 -81 -226 -181 -226 -259 0 -68 100 -127 250 -147 55
-7 53 -5 50 -94 -2 -57 -32 -180 -59 -244 l-22 -49 -127 7 c-219 12 -256 26
-284 103 -13 36 -23 41 -32 17 -8 -20 25 -75 65 -109 30 -25 32 -25 210 -25
l180 0 39 83 c64 136 70 176 70 485 l0 272 -23 0 c-12 0 -53 -18 -91 -40z m74
-199 l0 -199 -57 17 c-93 29 -159 60 -188 91 -25 26 -26 30 -15 68 14 54 84
126 175 180 39 23 73 42 78 42 4 0 7 -90 7 -199z"/>
</g>
</svg>
