<?xml version="1.0" standalone="no"?>
<!DOCTYPE svg PUBLIC "-//W3C//DTD SVG 20010904//EN"
 "http://www.w3.org/TR/2001/REC-SVG-20010904/DTD/svg10.dtd">
<svg version="1.0" xmlns="http://www.w3.org/2000/svg"
 width="192.000000pt" height="96.000000pt" viewBox="0 0 192.000000 96.000000"
 preserveAspectRatio="xMidYMid meet">
<metadata>
Created by potrace 1.16, written by Peter Selinger 2001-2019
</metadata>
<g transform="translate(0.000000,96.000000) scale(0.100000,-0.100000)"
fill="#000000" stroke="none">
<path d="M1140 632 c-47 -16 -119 -44 -160 -63 l-75 -35 -60 18 c-84 27 -190
48 -234 48 -53 0 -142 -25 -227 -64 -56 -26 -72 -38 -68 -50 3 -9 1 -16 -5
-16 -23 0 -10 -17 27 -34 67 -33 176 -67 233 -73 61 -6 177 14 272 46 l57 20
83 -39 c145 -67 246 -93 335 -88 82 5 302 63 302 80 0 6 -11 7 -27 3 -252 -65
-365 -60 -575 27 l-97 40 -63 -16 c-113 -29 -241 -41 -311 -29 -71 12 -210 64
-199 74 14 13 141 59 193 70 67 15 180 6 299 -22 l91 -21 52 25 c210 99 365
109 615 41 12 -4 22 -2 22 4 0 5 -51 24 -112 43 -159 46 -254 49 -368 11z"/>
</g>
</svg>
