<?xml version="1.0" standalone="no"?>
<!DOCTYPE svg PUBLIC "-//W3C//DTD SVG 20010904//EN"
 "http://www.w3.org/TR/2001/REC-SVG-20010904/DTD/svg10.dtd">
<svg version="1.0" xmlns="http://www.w3.org/2000/svg"
 width="189.000000pt" height="355.000000pt" viewBox="0 0 189.000000 355.000000"
 preserveAspectRatio="xMidYMid meet">
<metadata>
Created by potrace 1.16, written by Peter Selinger 2001-2019
</metadata>
<g transform="translate(0.000000,355.000000) scale(0.100000,-0.100000)"
fill="#000000" stroke="none">
<path d="M890 3120 l0 -131 -37 -32 c-40 -35 -137 -161 -167 -218 l-19 -36
-184 5 -183 5 0 -152 0 -153 183 7 182 7 52 -75 c30 -43 79 -97 113 -124 l60
-48 0 -142 c0 -78 4 -144 9 -148 9 -5 14 35 27 205 l6 85 106 61 c458 261 552
319 552 335 0 12 -98 74 -330 208 -181 105 -334 191 -340 191 -7 0 -9 22 -6
63 18 222 18 217 -4 217 -19 0 -20 -6 -20 -130z m285 -333 c149 -80 300 -160
338 -178 37 -18 67 -36 67 -39 0 -5 -165 -90 -175 -90 -3 0 -5 39 -5 86 0 64
-3 85 -12 81 -10 -3 -12 -28 -10 -93 l4 -89 -58 -30 c-31 -16 -61 -32 -66 -33
-4 -2 -5 69 -2 157 7 146 6 161 -9 161 -15 0 -17 -18 -17 -168 l0 -167 -58
-33 -59 -32 1 230 c1 149 -3 229 -9 227 -6 -1 -10 -88 -10 -235 l0 -234 -35
-19 c-19 -10 -38 -18 -41 -19 -3 0 -4 128 -1 285 4 267 4 285 -13 285 -16 0
-17 -17 -10 -282 4 -156 9 -286 11 -290 3 -4 -23 -22 -58 -39 l-63 -32 -61 67
c-59 65 -61 69 -53 104 13 57 13 401 0 416 -9 10 4 30 55 85 36 39 69 69 72
67 4 -2 129 -69 277 -149z m-419 -230 c4 -114 4 -207 0 -207 -4 0 -24 35 -44
78 -50 104 -51 176 -3 275 18 38 35 67 37 65 2 -3 7 -97 10 -211z m-107 87
c-11 -39 -7 -154 6 -186 6 -16 1 -18 -45 -18 l-53 0 7 53 c3 28 6 82 6 119 l0
67 43 3 c23 2 43 3 44 2 1 0 -2 -18 -8 -40z m-259 -85 l0 -109 -36 0 c-36 0
-36 1 -30 31 3 17 6 67 6 110 0 73 1 78 23 81 12 2 25 2 30 0 4 -2 7 -52 7
-113z m64 69 c3 -29 6 -81 6 -115 0 -61 -1 -63 -25 -63 -25 0 -25 0 -25 93 0
50 3 102 6 115 11 40 31 24 38 -30z m86 -17 c0 -37 3 -89 6 -115 l7 -46 -43 0
c-39 0 -42 2 -36 23 3 12 6 64 6 115 l0 92 30 0 30 0 0 -69z"/>
<path d="M880 2560 c0 -213 4 -330 10 -330 6 0 10 43 10 108 0 59 3 204 7 323
5 195 5 216 -10 222 -16 6 -17 -21 -17 -323z"/>
<path d="M892 1541 l3 -131 -83 -86 -83 -87 -202 4 c-191 4 -202 3 -205 -15
-4 -18 4 -18 198 -11 112 4 200 3 198 -1 -2 -5 -20 -42 -39 -81 l-34 -73 -166
7 c-137 5 -166 4 -170 -8 -2 -8 -3 -77 -1 -153 l3 -139 198 7 197 7 15 -27 c7
-15 49 -59 91 -99 l77 -71 2 -142 c1 -138 10 -180 23 -104 3 20 6 58 6 83 0
25 3 74 6 107 l7 61 186 107 c386 221 471 274 471 292 -1 11 -36 37 -103 76
-56 32 -209 120 -340 195 l-237 136 5 40 c2 22 6 83 7 135 3 84 1 95 -15 98
-16 3 -17 -6 -15 -127z m267 -330 c141 -76 293 -157 339 -180 45 -23 82 -43
82 -46 0 -3 -40 -25 -90 -50 l-90 -45 0 85 c0 64 -3 85 -13 85 -10 0 -13 -21
-13 -90 l1 -90 -63 -36 -62 -35 2 162 c2 123 0 163 -9 166 -10 4 -13 -34 -13
-166 l0 -171 -52 -30 c-29 -16 -56 -30 -59 -30 -4 0 -4 104 -1 230 5 215 4
230 -13 230 -16 0 -17 -16 -14 -237 l4 -238 -41 -22 -41 -23 1 287 c1 234 -1
287 -13 291 -11 4 -12 -42 -6 -290 l7 -295 -57 -32 -57 -32 -21 23 c-101 109
-105 117 -97 155 15 63 15 404 1 412 -9 6 6 29 49 80 34 39 67 71 72 71 6 0
126 -62 267 -139z m-403 -242 c6 -182 6 -203 -8 -191 -9 7 -28 40 -44 75 -41
91 -40 169 4 261 18 38 34 67 37 64 2 -2 8 -96 11 -209z m-114 -1 c3 -43 13
-93 26 -121 l21 -48 -168 1 c-92 1 -172 5 -177 8 -6 4 -9 49 -6 114 l4 107 67
4 c36 2 103 4 147 5 l81 2 5 -72z"/>
<path d="M880 975 c0 -210 4 -325 10 -325 6 0 10 43 10 108 0 59 3 205 7 325
6 198 5 217 -10 217 -16 0 -17 -29 -17 -325z"/>
</g>
</svg>
