<?xml version="1.0" standalone="no"?>
<!DOCTYPE svg PUBLIC "-//W3C//DTD SVG 20010904//EN"
 "http://www.w3.org/TR/2001/REC-SVG-20010904/DTD/svg10.dtd">
<svg version="1.0" xmlns="http://www.w3.org/2000/svg"
 width="142.000000pt" height="147.000000pt" viewBox="0 0 142.000000 147.000000"
 preserveAspectRatio="xMidYMid meet">
<metadata>
Created by potrace 1.16, written by Peter Selinger 2001-2019
</metadata>
<g transform="translate(0.000000,147.000000) scale(0.100000,-0.100000)"
fill="#000000" stroke="none">
<path d="M535 1163 c-20 -4 -82 -94 -154 -223 -47 -85 -81 -185 -81 -238 0
-82 71 -204 202 -346 l54 -59 189 122 c237 154 378 251 371 258 -3 3 -68 -32
-145 -77 l-141 -82 -27 20 c-54 38 -133 81 -175 96 -57 19 -116 7 -193 -39
l-56 -34 -19 42 c-11 23 -20 65 -20 92 0 51 37 175 52 175 5 0 26 -12 47 -26
52 -34 128 -56 166 -48 40 9 118 48 187 95 32 22 62 39 67 39 5 0 64 -32 130
-71 67 -39 124 -69 127 -66 8 8 -547 382 -558 376 -2 -1 -12 -4 -23 -6z m178
-138 c148 -91 147 -79 8 -148 -102 -51 -160 -55 -231 -19 -84 43 -85 44 -60
92 12 23 42 74 66 112 43 67 46 69 67 56 12 -8 80 -50 150 -93z m-3 -461 c44
-20 84 -42 89 -48 7 -8 -34 -38 -126 -95 l-135 -84 -24 29 c-13 16 -45 58 -71
93 l-47 64 30 24 c44 35 123 64 167 59 20 -2 73 -21 117 -42z"/>
</g>
</svg>
