<?xml version="1.0" standalone="no"?>
<!DOCTYPE svg PUBLIC "-//W3C//DTD SVG 20010904//EN"
 "http://www.w3.org/TR/2001/REC-SVG-20010904/DTD/svg10.dtd">
<svg version="1.0" xmlns="http://www.w3.org/2000/svg"
 width="115.000000pt" height="165.000000pt" viewBox="0 0 115.000000 165.000000"
 preserveAspectRatio="xMidYMid meet">
<metadata>
Created by potrace 1.16, written by Peter Selinger 2001-2019
</metadata>
<g transform="translate(0.000000,165.000000) scale(0.100000,-0.100000)"
fill="#000000" stroke="none">
<path d="M700 1328 c-148 -86 -192 -129 -244 -237 -31 -65 -13 -172 54 -319
22 -49 40 -92 40 -96 0 -3 -56 -6 -125 -6 l-126 0 6 -32 c3 -18 7 -77 8 -131
l2 -98 184 2 184 3 19 -37 18 -37 -50 0 c-38 0 -50 -4 -50 -15 0 -12 14 -14
90 -8 61 4 90 3 90 -5 0 -7 8 -6 24 1 13 7 22 15 19 19 -2 5 -8 6 -12 3 -12
-7 -21 102 -21 264 0 128 -11 402 -25 656 -2 44 -5 83 -5 88 0 14 -45 5 -80
-15z m59 -205 c11 -177 41 -728 41 -765 0 -14 -8 -18 -34 -18 -33 0 -48 18
-58 70 -2 8 -6 17 -9 20 -6 5 -99 208 -99 216 0 2 23 4 51 4 31 0 48 4 44 10
-3 6 -28 10 -56 10 l-49 0 -25 56 c-47 106 -75 195 -84 267 -9 70 -8 73 22
125 18 29 43 64 57 77 23 22 168 114 181 115 3 0 11 -84 18 -187z m-141 -578
c28 -58 52 -107 52 -109 0 -3 -323 5 -326 8 -1 0 -5 45 -9 98 l-7 97 103 4
c57 1 111 4 119 5 10 1 33 -33 68 -103z"/>
</g>
</svg>
