<?xml version="1.0" standalone="no"?>
<!DOCTYPE svg PUBLIC "-//W3C//DTD SVG 20010904//EN"
 "http://www.w3.org/TR/2001/REC-SVG-20010904/DTD/svg10.dtd">
<svg version="1.0" xmlns="http://www.w3.org/2000/svg"
 width="214.000000pt" height="251.000000pt" viewBox="0 0 214.000000 251.000000"
 preserveAspectRatio="xMidYMid meet">
<metadata>
Created by potrace 1.16, written by Peter Selinger 2001-2019
</metadata>
<g transform="translate(0.000000,251.000000) scale(0.100000,-0.100000)"
fill="#000000" stroke="none">
<path d="M528 2192 c-8 -9 -9 -91 -4 -283 l7 -270 -115 -186 c-100 -162 -114
-189 -102 -202 8 -9 62 -113 122 -231 l108 -215 3 -180 c2 -99 4 -211 6 -250
l2 -70 345 2 c472 2 910 14 910 24 0 4 -46 10 -101 11 l-102 3 -95 282 -95
281 66 219 c36 120 74 246 83 281 10 34 20 62 24 62 3 0 55 -116 114 -259
l108 -258 8 -323 c5 -177 11 -325 14 -328 8 -7 7 1019 -1 1496 -5 308 -9 392
-19 392 -7 0 -15 -3 -18 -8 -2 -4 0 -265 5 -581 6 -315 9 -575 7 -576 -2 -2
-47 119 -101 269 l-97 272 79 284 c44 157 82 292 86 301 4 10 -2 20 -17 28
l-23 12 22 -5 c13 -2 25 -1 28 4 6 9 -654 22 -993 18 -196 -2 -256 -5 -264
-16z m837 -24 c-11 -6 -21 -12 -23 -14 -3 -2 182 -510 209 -572 7 -19 -6 -81
-66 -300 -42 -153 -79 -286 -82 -297 -4 -13 -14 6 -35 65 -17 47 -82 232 -145
411 l-114 326 54 179 c47 155 52 180 38 186 -32 14 -40 7 -56 -49 -9 -32 -28
-96 -42 -143 -29 -98 -22 -106 -91 93 l-41 117 192 3 c106 1 199 3 207 4 9 2
7 -2 -5 -9z m291 -252 c-39 -146 -74 -262 -77 -258 -3 4 -45 115 -92 247 -47
132 -88 248 -92 258 -7 16 5 17 162 17 l169 0 -70 -264z m-728 202 c11 -29 44
-116 72 -192 l53 -140 -73 -255 c-40 -141 -75 -262 -79 -269 -6 -10 -291 863
-291 890 0 11 46 15 177 17 l122 1 19 -52z m-278 -284 c0 -6 -20 -42 -45 -80
l-45 -69 0 215 1 215 44 -135 c25 -74 45 -140 45 -146z m120 -353 l105 -319
-111 -409 -111 -408 -42 -3 -41 -3 0 203 0 203 40 -70 c51 -89 51 -68 1 45
l-39 87 -3 414 -4 414 45 82 c25 46 47 83 50 83 3 0 52 -144 110 -319z m404
-27 c46 -126 111 -302 145 -390 l61 -161 -79 -277 c-43 -152 -81 -279 -84
-283 -4 -3 -9 -4 -12 -1 -3 3 -68 188 -144 412 l-138 408 59 196 c32 108 68
228 79 266 11 37 22 66 24 64 3 -2 42 -107 89 -234z m-640 -229 l6 -340 -20
40 c-11 22 -53 110 -94 195 l-74 154 86 147 c48 80 88 146 88 145 1 0 4 -154
8 -341z m532 -569 c63 -164 114 -302 114 -307 0 -5 -115 -9 -256 -9 -238 0
-255 1 -250 18 6 21 202 652 218 701 l11 35 25 -70 c13 -38 76 -203 138 -368z
m428 -54 c49 -130 91 -243 94 -249 3 -10 -36 -13 -173 -13 -164 0 -177 1 -173
18 22 79 154 482 158 482 3 0 45 -107 94 -238z"/>
</g>
</svg>
