<?xml version="1.0" standalone="no"?>
<!DOCTYPE svg PUBLIC "-//W3C//DTD SVG 20010904//EN"
 "http://www.w3.org/TR/2001/REC-SVG-20010904/DTD/svg10.dtd">
<svg version="1.0" xmlns="http://www.w3.org/2000/svg"
 width="131.000000pt" height="131.000000pt" viewBox="0 0 131.000000 131.000000"
 preserveAspectRatio="xMidYMid meet">
<metadata>
Created by potrace 1.16, written by Peter Selinger 2001-2019
</metadata>
<g transform="translate(0.000000,131.000000) scale(0.100000,-0.100000)"
fill="#000000" stroke="none">
<path d="M307 1003 c-9 -8 -9 -423 0 -581 l6 -122 349 0 348 0 0 348 0 349
-127 6 c-167 9 -568 9 -576 0z m673 -130 l0 -108 -87 4 c-49 1 -94 8 -100 13
-14 11 -19 152 -7 182 5 13 24 16 100 16 l94 0 0 -107z m-448 20 c4 -95 -8
-136 -37 -129 -11 3 -50 6 -87 6 l-68 0 0 100 0 100 95 0 94 0 3 -77z m62 16
c11 -110 9 -119 -20 -119 -22 0 -25 3 -20 23 3 12 6 52 6 90 0 50 3 67 14 67
9 0 15 -20 20 -61z m86 -29 l0 -90 -30 0 -30 0 0 83 c0 46 3 87 7 90 3 4 17 7
30 7 22 0 23 -2 23 -90z m73 23 c11 -113 11 -113 -24 -113 l-32 0 7 61 c3 34
6 75 6 90 0 22 5 29 19 29 15 0 19 -11 24 -67z m21 -250 c3 -64 5 -117 4 -117
-2 -1 -56 0 -120 2 l-118 3 0 115 0 114 113 0 114 0 7 -117z m-254 61 c0 -24
-1 -24 -90 -24 -89 0 -90 0 -90 25 0 24 2 24 83 27 45 2 85 2 90 0 4 -2 7 -14
7 -28z m465 1 c1 -25 0 -25 -92 -25 -92 0 -93 0 -93 25 0 24 2 24 88 27 48 2
89 2 91 0 3 -1 5 -13 6 -27z m-465 -81 c0 -29 -3 -35 -16 -30 -9 3 -49 6 -90
6 -72 0 -74 1 -74 25 0 23 4 24 63 28 34 2 74 4 90 5 25 2 27 -1 27 -34z m470
6 l0 -30 -95 0 c-94 0 -95 0 -95 25 0 23 3 24 73 28 39 1 82 4 95 5 18 2 22
-3 22 -28z m-470 -76 l0 -26 -92 6 c-51 2 -94 5 -95 5 -1 1 0 8 3 16 4 10 26
15 77 18 40 1 80 4 90 5 12 1 17 -5 17 -24z m470 1 l0 -26 -92 3 c-77 2 -93 0
-93 -12 0 -12 15 -14 93 -12 l92 4 0 -49 c0 -26 3 -72 6 -100 l7 -53 -112 0
-112 0 2 95 c1 53 5 110 8 128 l7 32 84 6 c47 3 91 6 98 7 7 1 12 -9 12 -23z
m-458 -140 l3 -95 -102 0 -103 0 0 89 0 90 43 4 c23 2 68 4 99 5 l57 2 3 -95z
m136 82 c8 -6 12 -36 12 -93 l0 -84 -30 0 -30 0 0 73 c0 108 9 128 48 104z
m82 -19 c0 -18 3 -63 6 -99 l7 -67 -28 3 c-15 2 -29 5 -31 8 -2 2 -1 45 2 95
6 81 9 92 25 92 15 0 19 -8 19 -32z m-157 -45 c11 -110 10 -113 -19 -113 -22
0 -25 3 -20 23 3 12 6 52 6 90 0 50 4 67 14 67 9 0 15 -21 19 -67z"/>
</g>
</svg>
