<?xml version="1.0" standalone="no"?>
<!DOCTYPE svg PUBLIC "-//W3C//DTD SVG 20010904//EN"
 "http://www.w3.org/TR/2001/REC-SVG-20010904/DTD/svg10.dtd">
<svg version="1.0" xmlns="http://www.w3.org/2000/svg"
 width="136.000000pt" height="190.000000pt" viewBox="0 0 136.000000 190.000000"
 preserveAspectRatio="xMidYMid meet">
<metadata>
Created by potrace 1.16, written by Peter Selinger 2001-2019
</metadata>
<g transform="translate(0.000000,190.000000) scale(0.100000,-0.100000)"
fill="#000000" stroke="none">
<path d="M380 1580 l0 -23 278 6 277 6 4 -235 3 -234 -281 7 -281 6 0 -23 0
-23 289 4 288 4 7 110 c11 204 8 375 -9 391 -12 12 -67 16 -295 21 l-280 6 0
-23z"/>
<path d="M300 664 c0 -13 41 -15 367 -13 l368 1 2 -108 c2 -60 4 -137 7 -172
l4 -62 -374 6 c-281 6 -374 4 -374 -4 0 -9 98 -12 380 -12 l380 0 -2 183 -3
182 -85 7 c-47 3 -217 6 -377 7 -259 1 -293 -1 -293 -15z"/>
</g>
</svg>
