<?xml version="1.0" standalone="no"?>
<!DOCTYPE svg PUBLIC "-//W3C//DTD SVG 20010904//EN"
 "http://www.w3.org/TR/2001/REC-SVG-20010904/DTD/svg10.dtd">
<svg version="1.0" xmlns="http://www.w3.org/2000/svg"
 width="194.000000pt" height="142.000000pt" viewBox="0 0 194.000000 142.000000"
 preserveAspectRatio="xMidYMid meet">
<metadata>
Created by potrace 1.16, written by Peter Selinger 2001-2019
</metadata>
<g transform="translate(0.000000,142.000000) scale(0.100000,-0.100000)"
fill="#000000" stroke="none">
<path d="M436 1107 c-15 -11 -17 -31 -14 -195 l3 -182 -62 0 c-61 0 -63 -1
-63 -25 0 -24 2 -25 65 -25 36 0 64 -3 64 -7 -6 -37 3 -333 10 -333 5 0 12 76
16 170 l7 170 39 0 39 0 0 -132 c0 -73 3 -143 6 -154 5 -19 -2 -25 -47 -42
-55 -20 -72 -38 -45 -48 23 -9 133 46 197 99 30 25 102 100 159 166 l103 121
191 0 c259 0 545 12 521 21 -11 4 -149 8 -306 8 -157 1 -314 4 -348 7 l-61 7
-72 86 c-122 145 -209 225 -289 265 -80 40 -88 42 -113 23z m74 -42 l30 -16 0
-159 0 -160 -40 0 -40 0 0 53 c0 80 12 297 17 297 2 0 17 -7 33 -15z m121 -77
l39 -31 0 -114 0 -113 -44 0 c-33 0 -45 4 -48 16 -5 25 2 274 8 274 3 0 23
-14 45 -32z m174 -168 l90 -90 -98 0 -97 0 0 83 c0 69 4 97 14 97 1 0 42 -40
91 -90z m75 -140 c0 -3 -43 -48 -95 -100 l-94 -94 5 90 c3 49 7 95 10 102 2 9
27 12 89 10 47 -1 85 -5 85 -8z m-210 -110 l0 -109 -52 -40 c-29 -22 -53 -39
-54 -38 0 1 1 68 4 150 l5 147 48 0 49 0 0 -110z"/>
</g>
</svg>
