<?xml version="1.0" standalone="no"?>
<!DOCTYPE svg PUBLIC "-//W3C//DTD SVG 20010904//EN"
 "http://www.w3.org/TR/2001/REC-SVG-20010904/DTD/svg10.dtd">
<svg version="1.0" xmlns="http://www.w3.org/2000/svg"
 width="154.000000pt" height="93.000000pt" viewBox="0 0 154.000000 93.000000"
 preserveAspectRatio="xMidYMid meet">
<metadata>
Created by potrace 1.16, written by Peter Selinger 2001-2019
</metadata>
<g transform="translate(0.000000,93.000000) scale(0.100000,-0.100000)"
fill="#000000" stroke="none">
<path d="M390 624 c-60 -11 -70 -15 -70 -29 0 -8 -5 -15 -11 -15 -7 0 -9 -35
-5 -112 5 -101 7 -113 23 -111 169 22 201 23 283 9 150 -26 160 -28 160 -36 0
-14 61 -30 109 -30 26 0 105 11 176 25 72 14 142 25 158 25 l27 0 0 121 c0
110 -2 120 -17 115 -10 -2 -90 -12 -178 -22 l-161 -17 -129 38 c-105 30 -150
38 -235 40 -58 2 -116 1 -130 -1z m280 -50 c45 -8 99 -24 119 -35 57 -30 188
-22 403 25 14 3 17 -10 23 -91 4 -51 5 -96 3 -99 -9 -8 -249 -34 -319 -34 -46
0 -96 10 -170 32 -97 31 -113 33 -251 33 l-147 0 0 82 0 82 37 6 c20 4 42 8
47 10 28 10 183 3 255 -11z"/>
</g>
</svg>
