<?xml version="1.0" standalone="no"?>
<!DOCTYPE svg PUBLIC "-//W3C//DTD SVG 20010904//EN"
 "http://www.w3.org/TR/2001/REC-SVG-20010904/DTD/svg10.dtd">
<svg version="1.0" xmlns="http://www.w3.org/2000/svg"
 width="114.000000pt" height="151.000000pt" viewBox="0 0 114.000000 151.000000"
 preserveAspectRatio="xMidYMid meet">
<metadata>
Created by potrace 1.16, written by Peter Selinger 2001-2019
</metadata>
<g transform="translate(0.000000,151.000000) scale(0.100000,-0.100000)"
fill="#000000" stroke="none">
<path d="M301 959 c1 -140 4 -265 8 -279 6 -20 13 -25 41 -25 28 0 45 -10 95
-56 132 -123 338 -299 344 -293 3 3 -72 82 -166 174 -95 92 -173 170 -173 173
0 4 33 7 73 7 l73 0 119 -171 c66 -94 121 -167 123 -161 3 10 -65 129 -145
255 -48 75 -51 87 -24 87 17 0 19 12 22 163 2 89 4 209 4 267 l0 104 -197 4
-198 4 1 -253z m361 -26 c3 -137 5 -248 4 -248 0 0 -78 1 -173 3 l-171 4 4
196 c3 108 7 216 10 239 l5 42 87 4 c48 1 119 4 158 5 l71 2 5 -247z"/>
</g>
</svg>
