<?xml version="1.0" standalone="no"?>
<!DOCTYPE svg PUBLIC "-//W3C//DTD SVG 20010904//EN"
 "http://www.w3.org/TR/2001/REC-SVG-20010904/DTD/svg10.dtd">
<svg version="1.0" xmlns="http://www.w3.org/2000/svg"
 width="119.000000pt" height="104.000000pt" viewBox="0 0 119.000000 104.000000"
 preserveAspectRatio="xMidYMid meet">
<metadata>
Created by potrace 1.16, written by Peter Selinger 2001-2019
</metadata>
<g transform="translate(0.000000,104.000000) scale(0.100000,-0.100000)"
fill="#000000" stroke="none">
<path d="M301 531 l4 -211 255 2 255 3 -249 2 -249 3 7 53 c3 28 6 113 6 188
l0 136 213 5 c116 3 213 5 214 4 1 -1 5 -70 9 -153 4 -84 11 -150 15 -147 5 3
9 76 9 163 l0 157 -246 3 -246 3 3 -211z"/>
<path d="M860 587 c0 -104 13 -267 22 -267 4 0 8 72 8 160 0 136 -2 160 -15
160 -11 0 -15 -13 -15 -53z"/>
</g>
</svg>
