<?xml version="1.0" standalone="no"?>
<!DOCTYPE svg PUBLIC "-//W3C//DTD SVG 20010904//EN"
 "http://www.w3.org/TR/2001/REC-SVG-20010904/DTD/svg10.dtd">
<svg version="1.0" xmlns="http://www.w3.org/2000/svg"
 width="181.000000pt" height="292.000000pt" viewBox="0 0 181.000000 292.000000"
 preserveAspectRatio="xMidYMid meet">
<metadata>
Created by potrace 1.16, written by Peter Selinger 2001-2019
</metadata>
<g transform="translate(0.000000,292.000000) scale(0.100000,-0.100000)"
fill="#000000" stroke="none">
<path d="M780 2607 c0 -7 -14 -21 -31 -31 -18 -11 -29 -24 -27 -34 3 -16 79
-91 223 -221 54 -49 57 -53 30 -48 -27 6 -230 26 -554 56 -58 6 -108 8 -113 5
-12 -8 -10 -216 3 -253 10 -28 15 -31 38 -26 14 3 67 7 116 9 50 2 97 6 105 9
8 2 98 12 200 22 102 9 198 19 214 22 24 5 8 -13 -84 -98 -62 -57 -128 -117
-146 -132 -39 -33 -43 -61 -11 -78 12 -6 29 -20 37 -30 15 -18 18 -17 80 25
36 24 112 80 169 124 l104 81 55 -49 c31 -28 103 -73 168 -106 89 -44 114 -62
115 -78 1 -17 2 -18 6 -3 2 9 12 17 21 17 15 1 15 2 -2 15 -10 7 -16 18 -12
23 3 5 8 155 12 334 7 322 7 325 -14 346 -20 20 -23 21 -77 6 -88 -22 -165
-63 -212 -111 l-42 -44 -117 91 c-131 102 -228 170 -243 170 -6 0 -11 -6 -11
-13z m48 -45 l22 -17 -28 -17 c-28 -17 -30 -17 -47 2 -18 20 -18 21 1 35 24
18 24 18 52 -3z m75 -55 l28 -22 -36 -19 -36 -20 -22 23 -22 22 25 19 c31 24
29 24 63 -3z m557 -135 l0 -117 -75 3 c-66 4 -75 2 -75 -13 0 -16 8 -17 75
-11 l75 7 0 -56 0 -56 -70 7 c-61 6 -70 4 -70 -10 0 -13 12 -16 70 -16 l70 0
0 -52 0 -53 -70 3 c-60 3 -70 1 -70 -13 0 -15 9 -17 70 -13 l70 4 0 -62 c0
-34 3 -69 6 -78 3 -9 1 -16 -5 -16 -17 0 -173 95 -230 140 -85 67 -81 87 17
89 17 1 32 6 32 11 0 6 -31 10 -74 10 l-74 0 -16 40 c-9 22 -16 48 -16 58 1
25 53 117 68 118 6 1 30 2 52 3 22 0 40 6 40 11 0 6 -18 10 -40 10 -22 0 -40
4 -40 8 0 14 84 89 120 108 32 16 135 52 153 53 4 1 7 -52 7 -117z m-477 79
l28 -18 -23 -15 c-58 -38 -64 -39 -87 -14 l-22 23 33 22 c40 25 37 25 71 2z
m73 -50 l24 -19 -47 -27 c-33 -20 -51 -25 -62 -18 -25 16 -22 27 17 55 45 33
39 32 68 9z m68 -46 c18 -14 18 -15 -1 -57 -11 -24 -26 -59 -32 -79 -24 -74
-35 -78 -247 -89 -104 -5 -210 -12 -236 -14 l-48 -5 0 84 0 84 63 -5 c34 -3
138 -9 230 -13 155 -8 170 -11 193 -32 42 -40 40 -10 -3 33 l-41 41 41 33 c48
37 55 39 81 19z m-648 -71 l52 -7 4 -81 c2 -44 4 -82 3 -83 0 -1 -50 -5 -110
-9 -100 -7 -108 -6 -102 10 4 10 7 53 7 97 l0 79 48 0 c26 0 70 -3 98 -6z
m631 -266 c-7 -4 -21 0 -32 8 -11 8 -32 22 -47 32 l-27 17 31 32 32 33 27 -57
c20 -42 25 -60 16 -65z m-44 -34 c-25 -19 -39 -17 -76 8 -18 13 -34 24 -36 25
-2 2 4 12 13 22 18 19 19 19 67 -11 46 -28 48 -31 32 -44z m-93 -8 l42 -24
-31 -21 -30 -22 -35 23 -35 23 21 22 c12 13 22 23 24 23 1 0 21 -11 44 -24z
m-68 -64 l28 -18 -30 -22 c-28 -21 -31 -22 -55 -6 -30 19 -30 22 -8 46 20 23
31 23 65 0z m-54 -75 c-1 -1 -12 -10 -24 -19 -18 -16 -22 -16 -43 -2 -21 15
-21 17 -5 35 15 17 19 17 46 3 16 -9 28 -16 26 -17z"/>
<path d="M1337 2373 c-17 -16 -3 -23 47 -23 57 0 82 13 43 24 -30 8 -82 8 -90
-1z"/>
<path d="M1130 2195 c0 -12 14 -15 64 -15 63 0 92 12 60 24 -9 3 -40 6 -70 6
-41 0 -54 -4 -54 -15z"/>
<path d="M940 1188 c1 -7 61 -51 135 -97 l134 -84 -27 -32 c-31 -37 -14 -47
-163 88 -53 48 -101 87 -108 87 -31 0 0 -35 109 -125 66 -54 119 -101 118
-104 -2 -3 -10 -23 -18 -44 -9 -25 -19 -36 -30 -33 -42 13 -462 78 -466 73
-20 -24 -94 -160 -94 -173 0 -11 20 -33 43 -51 23 -17 52 -41 63 -52 22 -19
22 -19 176 4 85 13 174 29 199 34 65 15 63 16 101 -49 l36 -60 -119 -97 c-109
-90 -138 -123 -108 -123 7 0 46 30 87 68 41 37 94 83 116 103 l41 36 37 -27
37 -27 -124 -77 c-144 -90 -173 -111 -162 -122 10 -10 46 11 185 108 l113 79
109 -53 c82 -40 110 -58 111 -73 1 -16 2 -17 6 -3 2 10 10 15 19 11 8 -3 14
-1 14 5 0 5 -7 13 -16 16 -8 3 -13 10 -10 14 3 5 8 157 12 338 7 328 7 329
-15 348 -20 19 -23 19 -84 2 -34 -10 -88 -31 -120 -47 l-58 -29 -53 39 c-74
55 -207 141 -217 141 -5 0 -9 -6 -9 -12z m520 -296 l0 -178 -70 4 c-61 4 -70
2 -70 -13 0 -15 9 -17 70 -13 l70 4 0 -54 0 -54 -67 3 c-46 3 -67 0 -70 -8 -4
-10 14 -13 65 -13 l70 0 4 -77 c3 -43 3 -80 2 -82 -4 -5 -171 96 -224 136 -25
19 -55 47 -68 64 l-23 29 65 0 c36 0 66 4 66 9 0 12 -80 25 -120 19 -26 -4
-31 0 -45 34 -21 53 -19 73 12 129 25 48 27 49 72 49 64 0 87 16 35 25 -21 4
-43 8 -48 9 -14 3 42 63 81 87 41 26 149 68 176 68 16 1 17 -14 17 -177z
m-770 -62 c0 -20 3 -64 6 -97 6 -58 6 -60 -18 -65 -18 -3 -37 7 -77 42 l-53
46 24 30 c14 16 33 43 42 60 15 25 23 29 47 26 26 -4 29 -8 29 -42z m150 21
c47 -5 124 -12 171 -16 82 -6 86 -8 81 -28 -2 -12 -11 -30 -19 -39 -9 -9 -12
-25 -8 -37 7 -22 25 -18 -222 -44 l-123 -13 0 93 c0 107 -12 98 120 84z"/>
<path d="M1333 948 c2 -8 23 -13 57 -13 34 0 55 5 58 13 3 9 -13 12 -58 12
-45 0 -61 -3 -57 -12z"/>
<path d="M1310 835 c0 -12 14 -15 70 -15 75 0 94 13 33 24 -66 10 -103 7 -103
-9z"/>
<path d="M1130 778 c0 -10 19 -12 70 -10 91 5 91 22 0 22 -49 0 -70 -4 -70
-12z"/>
</g>
</svg>
