<?xml version="1.0" standalone="no"?>
<!DOCTYPE svg PUBLIC "-//W3C//DTD SVG 20010904//EN"
 "http://www.w3.org/TR/2001/REC-SVG-20010904/DTD/svg10.dtd">
<svg version="1.0" xmlns="http://www.w3.org/2000/svg"
 width="200.000000pt" height="111.000000pt" viewBox="0 0 200.000000 111.000000"
 preserveAspectRatio="xMidYMid meet">
<metadata>
Created by potrace 1.16, written by Peter Selinger 2001-2019
</metadata>
<g transform="translate(0.000000,111.000000) scale(0.100000,-0.100000)"
fill="#000000" stroke="none">
<path d="M810 800 c0 -8 -9 -10 -24 -6 -24 6 -464 -59 -475 -70 -3 -3 -7 -86
-9 -185 -3 -144 -1 -178 10 -174 7 3 112 -11 233 -29 197 -31 238 -35 224 -22
-6 6 -345 74 -407 82 -41 5 -52 10 -48 21 4 8 6 74 6 146 l0 132 218 43 c119
23 220 42 225 42 4 0 7 -18 7 -39 l0 -40 -127 -63 c-96 -47 -128 -68 -128 -82
0 -14 33 -35 130 -85 117 -59 131 -69 135 -96 6 -29 6 -29 13 10 4 22 7 116 7
208 l0 169 28 -6 c149 -30 522 -113 662 -147 l175 -42 -45 -14 c-25 -8 -220
-58 -435 -113 -342 -87 -390 -101 -387 -117 2 -10 6 -20 8 -22 9 -10 351 83
619 168 271 86 281 89 269 101 -16 16 -432 136 -634 183 -107 25 -207 48 -222
52 -19 5 -28 3 -28 -5z m-37 -368 c-1 -2 -44 21 -95 52 -51 31 -99 59 -107 64
-9 5 19 26 90 69 l104 61 5 -122 c3 -66 4 -123 3 -124z"/>
</g>
</svg>
