<?xml version="1.0" standalone="no"?>
<!DOCTYPE svg PUBLIC "-//W3C//DTD SVG 20010904//EN"
 "http://www.w3.org/TR/2001/REC-SVG-20010904/DTD/svg10.dtd">
<svg version="1.0" xmlns="http://www.w3.org/2000/svg"
 width="165.000000pt" height="111.000000pt" viewBox="0 0 165.000000 111.000000"
 preserveAspectRatio="xMidYMid meet">
<metadata>
Created by potrace 1.16, written by Peter Selinger 2001-2019
</metadata>
<g transform="translate(0.000000,111.000000) scale(0.100000,-0.100000)"
fill="#000000" stroke="none">
<path d="M1090 799 c-222 -28 -370 -101 -425 -210 -30 -59 -31 -97 -5 -149
l20 -40 -112 -1 c-189 -2 -262 -11 -266 -32 -4 -19 -24 -19 268 3 l136 11 46
-26 c76 -43 188 -58 374 -52 89 3 170 10 180 16 15 8 6 10 -45 11 l-63 0 8 83
c4 45 7 140 6 212 -2 143 -1 145 61 145 l37 0 1 -192 c1 -106 4 -204 8 -218 9
-31 23 151 25 328 l1 122 -95 -1 c-52 -1 -124 -5 -160 -10z m90 -101 c0 -35 1
-134 3 -222 l3 -159 -111 7 c-60 4 -141 13 -178 21 -126 26 -217 96 -217 167
0 45 36 104 83 136 73 51 271 108 385 111 l32 1 0 -62z"/>
</g>
</svg>
