<?xml version="1.0" standalone="no"?>
<!DOCTYPE svg PUBLIC "-//W3C//DTD SVG 20010904//EN"
 "http://www.w3.org/TR/2001/REC-SVG-20010904/DTD/svg10.dtd">
<svg version="1.0" xmlns="http://www.w3.org/2000/svg"
 width="152.000000pt" height="100.000000pt" viewBox="0 0 152.000000 100.000000"
 preserveAspectRatio="xMidYMid meet">
<metadata>
Created by potrace 1.16, written by Peter Selinger 2001-2019
</metadata>
<g transform="translate(0.000000,100.000000) scale(0.100000,-0.100000)"
fill="#000000" stroke="none">
<path d="M373 688 c-30 -36 -66 -137 -70 -199 -7 -85 12 -127 70 -159 36 -21
59 -25 157 -28 136 -5 276 13 498 64 85 20 160 33 167 30 16 -6 29 59 23 110
-3 25 -7 29 -33 27 -16 -1 -112 -7 -213 -13 -170 -10 -253 -8 -280 9 -8 5 -9
29 -3 79 4 40 4 75 -1 78 -5 3 -75 8 -156 11 -122 5 -149 3 -159 -9z m61 -50
c-13 -107 -21 -224 -14 -231 8 -9 24 73 35 178 8 76 14 95 27 95 10 0 8 -64
-9 -222 -3 -36 -2 -58 4 -58 6 0 19 61 29 135 14 111 21 135 34 135 14 0 15
-8 9 -62 -17 -151 -20 -218 -9 -218 5 0 10 8 10 18 1 9 9 71 18 136 12 81 22
121 31 124 12 4 13 -8 8 -64 -19 -215 -20 -227 -10 -221 6 4 19 70 29 147 20
151 42 192 36 68 -1 -40 1 -79 6 -85 22 -34 189 -35 434 -3 40 5 79 10 85 10
9 0 12 -15 10 -49 l-2 -49 -95 -21 c-229 -51 -331 -64 -505 -65 -145 -1 -175
2 -202 17 -53 28 -66 58 -61 130 7 82 58 197 87 197 18 0 20 -5 15 -42z"/>
</g>
</svg>
