<?xml version="1.0" standalone="no"?>
<!DOCTYPE svg PUBLIC "-//W3C//DTD SVG 20010904//EN"
 "http://www.w3.org/TR/2001/REC-SVG-20010904/DTD/svg10.dtd">
<svg version="1.0" xmlns="http://www.w3.org/2000/svg"
 width="197.000000pt" height="119.000000pt" viewBox="0 0 197.000000 119.000000"
 preserveAspectRatio="xMidYMid meet">
<metadata>
Created by potrace 1.16, written by Peter Selinger 2001-2019
</metadata>
<g transform="translate(0.000000,119.000000) scale(0.100000,-0.100000)"
fill="#000000" stroke="none">
<path d="M985 883 c-71 -18 -685 -280 -685 -293 0 -4 21 -17 48 -28 26 -12
110 -49 187 -82 77 -34 207 -88 289 -121 139 -55 154 -59 230 -59 98 0 151 22
236 98 64 57 118 87 176 96 51 9 114 -7 139 -34 10 -11 24 -20 31 -20 17 0 34
86 34 173 0 122 -17 143 -72 90 -23 -22 -40 -28 -92 -31 -53 -4 -74 0 -120 21
-37 17 -59 34 -66 51 -12 32 -106 102 -169 127 -48 18 -120 23 -166 12z m198
-62 c26 -13 77 -52 113 -86 38 -38 83 -71 109 -81 60 -22 154 -16 195 14 16
12 32 22 35 22 3 0 5 -47 5 -105 0 -58 -2 -105 -4 -105 -3 0 -20 9 -38 19 -74
44 -190 32 -249 -25 -16 -15 -29 -25 -29 -21 0 4 -28 -15 -61 -43 -116 -92
-190 -101 -361 -40 -173 61 -568 214 -568 220 0 5 236 98 505 197 154 57 176
63 235 60 43 -2 81 -11 113 -26z"/>
</g>
</svg>
