<?xml version="1.0" standalone="no"?>
<!DOCTYPE svg PUBLIC "-//W3C//DTD SVG 20010904//EN"
 "http://www.w3.org/TR/2001/REC-SVG-20010904/DTD/svg10.dtd">
<svg version="1.0" xmlns="http://www.w3.org/2000/svg"
 width="183.000000pt" height="131.000000pt" viewBox="0 0 183.000000 131.000000"
 preserveAspectRatio="xMidYMid meet">
<metadata>
Created by potrace 1.16, written by Peter Selinger 2001-2019
</metadata>
<g transform="translate(0.000000,131.000000) scale(0.100000,-0.100000)"
fill="#000000" stroke="none">
<path d="M600 815 c-107 -107 -190 -195 -185 -195 6 0 98 88 205 195 107 107
190 195 185 195 -6 0 -98 -88 -205 -195z"/>
<path d="M770 805 c-113 -113 -200 -205 -195 -205 6 0 102 92 215 205 113 113
200 205 195 205 -6 0 -102 -92 -215 -205z"/>
<path d="M940 795 c-107 -107 -190 -195 -185 -195 13 0 391 378 384 384 -3 3
-92 -82 -199 -189z"/>
<path d="M440 825 c-79 -79 -142 -147 -139 -149 3 -3 72 62 154 144 83 83 145
150 140 150 -6 0 -75 -65 -155 -145z"/>
<path d="M1107 792 c-92 -92 -167 -171 -167 -176 0 -5 12 1 26 15 25 22 26 22
16 3 -20 -38 -102 -102 -150 -118 -106 -33 -100 -35 -108 44 -9 91 -28 88 -32
-4 l-3 -67 -47 6 c-110 15 -202 63 -238 125 -13 20 -25 30 -38 28 -31 -5 -29
-21 9 -66 52 -60 160 -111 253 -119 l72 -6 0 -31 c0 -54 17 -65 25 -15 l7 44
68 17 c84 20 152 65 189 124 l28 43 49 -41 c135 -113 393 -297 414 -295 l23 1
-6 151 c-4 82 -10 176 -13 208 -6 52 -9 58 -28 55 -12 -2 -20 -9 -18 -16 8
-41 42 -359 40 -375 -2 -15 -46 18 -198 148 -107 92 -208 178 -225 191 l-30
24 133 130 c72 72 132 132 132 135 0 17 -33 -13 -183 -163z"/>
<path d="M1270 775 c-74 -74 -130 -135 -125 -135 6 0 71 61 145 135 74 74 130
135 125 135 -6 0 -71 -61 -145 -135z"/>
<path d="M1435 760 c-49 -50 -85 -90 -80 -90 13 0 180 168 174 174 -3 3 -45
-35 -94 -84z"/>
</g>
</svg>
