<?xml version="1.0" standalone="no"?>
<!DOCTYPE svg PUBLIC "-//W3C//DTD SVG 20010904//EN"
 "http://www.w3.org/TR/2001/REC-SVG-20010904/DTD/svg10.dtd">
<svg version="1.0" xmlns="http://www.w3.org/2000/svg"
 width="130.000000pt" height="156.000000pt" viewBox="0 0 130.000000 156.000000"
 preserveAspectRatio="xMidYMid meet">
<metadata>
Created by potrace 1.16, written by Peter Selinger 2001-2019
</metadata>
<g transform="translate(0.000000,156.000000) scale(0.100000,-0.100000)"
fill="#000000" stroke="none">
<path d="M622 1253 c-8 -3 24 -44 90 -112 94 -97 152 -178 231 -321 10 -18 20
-30 24 -26 3 3 -23 63 -58 133 -57 115 -74 138 -163 230 -54 57 -101 103 -105
102 -3 0 -12 -3 -19 -6z"/>
<path d="M304 1229 c-4 -7 51 -69 129 -148 107 -106 134 -139 127 -152 -5 -8
-25 -60 -44 -114 l-35 -99 19 -30 c10 -17 75 -87 144 -155 l125 -124 -28 -41
c-41 -61 -45 -69 -32 -65 17 6 228 297 256 354 34 68 41 110 22 118 -12 5 -20
-7 -31 -46 -17 -59 -175 -313 -186 -300 -138 156 -231 265 -244 285 -16 25
-15 29 20 109 20 46 40 88 45 93 5 6 9 13 9 18 0 18 -264 308 -280 308 -5 0
-12 -5 -16 -11z"/>
</g>
</svg>
