<?xml version="1.0" standalone="no"?>
<!DOCTYPE svg PUBLIC "-//W3C//DTD SVG 20010904//EN"
 "http://www.w3.org/TR/2001/REC-SVG-20010904/DTD/svg10.dtd">
<svg version="1.0" xmlns="http://www.w3.org/2000/svg"
 width="201.000000pt" height="152.000000pt" viewBox="0 0 201.000000 152.000000"
 preserveAspectRatio="xMidYMid meet">
<metadata>
Created by potrace 1.16, written by Peter Selinger 2001-2019
</metadata>
<g transform="translate(0.000000,152.000000) scale(0.100000,-0.100000)"
fill="#000000" stroke="none">
<path d="M335 1128 c3 -51 8 -126 10 -165 5 -71 4 -73 -20 -79 -18 -4 -25 -13
-25 -30 0 -21 2 -22 29 -13 25 9 39 5 115 -36 l87 -47 -81 -60 c-68 -51 -85
-60 -110 -54 -25 4 -30 2 -30 -13 0 -11 5 -21 10 -23 6 -2 13 -48 16 -103 7
-149 14 -205 25 -205 5 0 9 64 9 150 l0 150 25 -5 c14 -3 36 -7 48 -10 23 -4
24 -9 31 -137 4 -72 10 -136 14 -142 10 -17 20 67 21 176 l1 98 33 -7 c17 -3
33 -7 35 -8 2 -1 21 -223 22 -257 0 -5 5 -8 10 -8 6 0 10 52 10 135 l0 135 29
0 29 0 7 -97 c8 -131 15 -174 26 -167 5 3 9 62 9 132 l0 128 70 18 c87 22 175
79 226 146 l38 50 221 0 c249 0 440 9 428 21 -4 4 -152 9 -329 11 l-321 3 -40
36 c-47 42 -113 82 -163 98 l-35 11 3 130 c3 128 3 130 -19 130 -21 0 -21 -1
-15 -112 4 -62 10 -122 13 -132 4 -15 2 -18 -12 -13 -9 4 -28 7 -41 7 l-24 0
0 125 c0 120 -1 125 -21 125 -20 0 -21 -3 -14 -107 4 -60 9 -116 11 -125 4
-14 -1 -18 -20 -18 -13 0 -31 -3 -40 -6 -14 -5 -16 10 -16 125 0 126 -1 131
-21 131 -20 0 -20 -4 -15 -77 4 -43 9 -101 12 -130 3 -28 2 -53 -3 -56 -4 -3
-27 -8 -50 -12 l-41 -6 5 140 6 141 -23 0 -23 0 7 -144 8 -144 -48 -16 c-26
-9 -51 -16 -56 -16 -4 0 -8 72 -8 160 0 153 -1 160 -20 160 -19 0 -19 -5 -15
-92z m580 -239 c73 -37 115 -72 115 -97 0 -25 -70 -95 -127 -129 -42 -24 -133
-57 -140 -49 -2 1 18 20 44 40 38 30 53 36 78 31 28 -6 29 -5 11 9 -21 17 -24
13 53 73 35 27 -10 12 -52 -17 l-43 -31 -47 26 c-26 15 -45 30 -42 34 2 4 22
20 44 35 l39 27 52 -26 c57 -29 83 -27 31 2 -52 29 -68 43 -53 49 6 3 12 10
12 15 0 6 -9 5 -22 -2 -18 -10 -30 -7 -75 17 -29 16 -53 32 -53 35 0 14 120
-15 175 -42z m-202 27 c16 -12 15 -15 -15 -38 -18 -13 -39 -28 -45 -32 -13 -7
-113 42 -113 55 0 8 83 26 125 27 17 1 38 -5 48 -12z m-162 -56 c33 -17 59
-36 57 -41 -2 -6 -16 -18 -30 -27 -29 -17 -37 -15 -147 51 l-34 21 34 12 c49
18 53 17 120 -16z m240 13 c16 -10 29 -20 29 -24 0 -3 -18 -18 -41 -33 -41
-28 -58 -28 -94 -1 -18 15 -18 16 15 45 41 34 52 36 91 13z m-118 -79 c43 -22
43 -22 21 -39 -42 -33 -50 -34 -84 -14 l-33 21 29 23 c35 29 28 28 67 9z m119
-63 l47 -24 -37 -28 -36 -27 -47 27 -47 26 31 27 c18 15 34 26 37 25 3 -1 26
-13 52 -26z m-202 -6 c17 -9 30 -18 30 -20 0 -2 -25 -23 -55 -45 -54 -40 -81
-46 -133 -32 -21 6 -17 12 45 59 37 28 72 52 76 52 4 1 21 -6 37 -14z m115
-57 c25 -12 45 -24 45 -27 0 -4 -12 -14 -25 -24 -21 -15 -35 -16 -100 -10
l-76 8 48 37 c26 20 51 37 55 37 4 1 28 -9 53 -21z"/>
<path d="M784 463 c9 -134 15 -171 27 -152 5 8 9 69 9 137 0 118 -1 122 -21
122 -21 0 -21 -3 -15 -107z"/>
</g>
</svg>
