<?xml version="1.0" standalone="no"?>
<!DOCTYPE svg PUBLIC "-//W3C//DTD SVG 20010904//EN"
 "http://www.w3.org/TR/2001/REC-SVG-20010904/DTD/svg10.dtd">
<svg version="1.0" xmlns="http://www.w3.org/2000/svg"
 width="167.000000pt" height="138.000000pt" viewBox="0 0 167.000000 138.000000"
 preserveAspectRatio="xMidYMid meet">
<metadata>
Created by potrace 1.16, written by Peter Selinger 2001-2019
</metadata>
<g transform="translate(0.000000,138.000000) scale(0.100000,-0.100000)"
fill="#000000" stroke="none">
<path d="M780 1025 c0 -52 -1 -55 -19 -45 -11 5 -29 10 -39 10 -29 0 -119
-111 -156 -192 l-32 -67 -108 64 c-60 36 -112 62 -117 59 -5 -3 -9 -80 -9
-171 0 -128 3 -164 13 -160 6 2 59 32 117 66 103 60 105 61 113 39 48 -130
166 -255 215 -229 18 10 20 6 27 -44 l6 -55 54 0 c30 0 56 4 59 8 3 5 8 49 12
99 7 97 4 90 67 121 4 2 7 -19 7 -46 0 -78 4 -82 71 -82 72 0 78 17 9 26 l-51
7 3 60 c3 57 5 62 35 79 l32 19 7 -81 c3 -44 10 -80 14 -80 4 0 11 43 15 95
l7 94 45 26 c24 15 46 25 48 23 2 -1 7 -23 12 -48 l9 -45 59 -3 60 -3 0 113 0
113 -50 7 c-74 11 -85 5 -85 -49 0 -24 -3 -43 -8 -41 -4 2 -30 16 -59 32 l-51
30 5 97 6 97 -51 7 c-83 11 -91 5 -85 -66 l6 -61 -42 21 -42 22 7 85 c8 101 6
104 -78 104 l-58 0 0 -55z m110 -45 c0 -38 -2 -70 -4 -70 -3 0 -21 9 -40 21
-33 19 -36 24 -36 70 l0 49 40 0 40 0 0 -70z m-100 -62 c0 -4 6 -8 14 -8 8 0
46 -18 85 -40 39 -22 130 -71 202 -109 l131 -69 -63 -34 c-261 -142 -347 -188
-357 -188 -6 0 -23 -11 -38 -25 -15 -14 -33 -25 -40 -25 -7 0 -34 26 -60 58
-128 156 -126 276 8 426 l49 55 34 -16 c19 -9 35 -20 35 -25z m302 -48 c2 -44
1 -80 -1 -80 -2 0 -21 10 -43 22 -39 22 -40 24 -34 67 3 24 6 50 6 57 0 9 12
14 34 14 l34 0 4 -80z m-658 -111 c73 -36 106 -57 106 -69 0 -15 -65 -51 -202
-112 -17 -7 -18 2 -18 112 0 66 2 120 4 120 2 0 52 -23 110 -51z m900 -40 c3
-34 6 -76 6 -94 0 -32 -1 -32 -44 -31 l-44 1 5 80 c6 103 7 105 41 105 28 0
29 -2 36 -61z m-444 -322 l0 -73 -40 4 -40 4 0 48 c0 43 3 50 33 69 17 11 35
21 40 21 4 0 7 -33 7 -73z"/>
</g>
</svg>
