<?xml version="1.0" standalone="no"?>
<!DOCTYPE svg PUBLIC "-//W3C//DTD SVG 20010904//EN"
 "http://www.w3.org/TR/2001/REC-SVG-20010904/DTD/svg10.dtd">
<svg version="1.0" xmlns="http://www.w3.org/2000/svg"
 width="232.000000pt" height="152.000000pt" viewBox="0 0 232.000000 152.000000"
 preserveAspectRatio="xMidYMid meet">
<metadata>
Created by potrace 1.16, written by Peter Selinger 2001-2019
</metadata>
<g transform="translate(0.000000,152.000000) scale(0.100000,-0.100000)"
fill="#000000" stroke="none">
<path d="M1594 1172 c-160 -97 -215 -135 -211 -146 2 -6 8 -11 13 -11 13 0
294 189 294 198 0 14 -18 7 -96 -41z"/>
<path d="M999 932 c-157 -97 -296 -184 -308 -193 l-22 -17 117 -153 c64 -85
130 -170 147 -189 l31 -35 -332 -3 c-324 -2 -332 -3 -332 -22 0 -20 8 -20 453
-20 607 0 1267 11 1267 22 0 4 -154 8 -342 8 -189 0 -419 3 -513 7 l-170 7
-133 178 c-82 111 -128 180 -120 183 7 2 94 27 193 55 240 68 575 180 575 192
0 6 -8 7 -17 3 -61 -23 -65 -20 -119 67 -32 53 -57 84 -70 85 -10 1 -148 -78
-305 -175z m358 80 c37 -53 49 -78 40 -83 -6 -4 -136 -41 -287 -84 -151 -42
-287 -80 -302 -85 -16 -5 -28 -7 -28 -6 0 2 80 54 178 114 97 61 211 136 252
166 41 30 80 55 85 55 6 0 34 -34 62 -77z"/>
</g>
</svg>
