<?xml version="1.0" standalone="no"?>
<!DOCTYPE svg PUBLIC "-//W3C//DTD SVG 20010904//EN"
 "http://www.w3.org/TR/2001/REC-SVG-20010904/DTD/svg10.dtd">
<svg version="1.0" xmlns="http://www.w3.org/2000/svg"
 width="148.000000pt" height="115.000000pt" viewBox="0 0 148.000000 115.000000"
 preserveAspectRatio="xMidYMid meet">
<metadata>
Created by potrace 1.16, written by Peter Selinger 2001-2019
</metadata>
<g transform="translate(0.000000,115.000000) scale(0.100000,-0.100000)"
fill="#000000" stroke="none">
<path d="M1070 823 c-350 -119 -537 -187 -545 -198 -9 -10 -30 0 -105 51 -51
35 -100 64 -107 64 -10 0 -13 -38 -13 -180 0 -128 3 -180 11 -180 7 0 56 31
109 68 72 52 99 66 106 56 7 -10 210 -80 541 -186 93 -29 99 -25 107 84 3 50
6 171 6 270 0 205 10 192 -110 151z m79 -372 c1 -133 0 -143 -16 -136 -10 4
-83 31 -163 60 l-145 54 3 95 c3 83 2 96 -12 96 -13 0 -16 -14 -16 -91 0 -74
-3 -90 -14 -86 -8 3 -32 11 -55 18 l-41 12 0 79 c0 59 -3 79 -12 75 -9 -3 -12
-25 -10 -75 l2 -71 -67 25 c-37 14 -70 27 -75 30 -4 2 -32 -12 -63 -31 l-56
-36 2 78 c2 62 -1 78 -12 78 -11 0 -13 -17 -11 -85 l3 -85 -34 -22 -34 -21 5
141 c2 78 6 144 8 145 1 2 22 -9 46 -25 24 -16 64 -41 89 -55 l45 -27 304 115
c166 62 306 116 309 120 8 7 18 -188 20 -375z"/>
<path d="M860 561 c0 -70 11 -141 21 -135 5 3 9 45 9 95 0 72 -3 89 -15 89
-11 0 -15 -12 -15 -49z"/>
<path d="M980 515 c0 -52 4 -95 9 -95 4 0 11 30 14 68 10 103 9 122 -8 122
-12 0 -15 -17 -15 -95z"/>
<path d="M1083 533 c4 -38 7 -81 7 -96 0 -16 4 -26 10 -22 6 3 10 46 10 96 0
76 -2 89 -16 89 -15 0 -16 -9 -11 -67z"/>
</g>
</svg>
