<?xml version="1.0" standalone="no"?>
<!DOCTYPE svg PUBLIC "-//W3C//DTD SVG 20010904//EN"
 "http://www.w3.org/TR/2001/REC-SVG-20010904/DTD/svg10.dtd">
<svg version="1.0" xmlns="http://www.w3.org/2000/svg"
 width="131.000000pt" height="142.000000pt" viewBox="0 0 131.000000 142.000000"
 preserveAspectRatio="xMidYMid meet">
<metadata>
Created by potrace 1.16, written by Peter Selinger 2001-2019
</metadata>
<g transform="translate(0.000000,142.000000) scale(0.100000,-0.100000)"
fill="#000000" stroke="none">
<path d="M519 1067 c-90 -75 -153 -148 -188 -219 -74 -148 -17 -327 142 -444
80 -60 184 -111 196 -99 6 6 11 70 12 144 l2 134 86 -6 c220 -16 245 -17 226
-9 -11 5 -84 17 -162 27 l-143 18 0 93 c0 108 -20 94 183 120 75 10 137 21
137 26 0 10 15 10 -160 -7 -80 -8 -149 -15 -153 -15 -5 0 -7 64 -6 143 2 139
2 142 -19 145 -22 3 -22 1 -22 -141 0 -161 2 -157 -69 -157 -21 0 -66 -3 -100
-6 -48 -6 -61 -10 -59 -22 3 -17 60 -18 171 -3 l57 8 0 -90 0 -89 -32 5 c-18
4 -71 9 -116 13 -79 6 -84 6 -80 -12 3 -17 17 -20 112 -26 60 -4 110 -9 112
-11 7 -7 16 -267 9 -267 -27 0 -140 75 -196 130 -87 86 -113 141 -117 248 -4
74 -1 88 24 140 27 56 142 181 229 250 38 30 39 31 14 32 -16 0 -48 -19 -90
-53z"/>
</g>
</svg>
