<?xml version="1.0" standalone="no"?>
<!DOCTYPE svg PUBLIC "-//W3C//DTD SVG 20010904//EN"
 "http://www.w3.org/TR/2001/REC-SVG-20010904/DTD/svg10.dtd">
<svg version="1.0" xmlns="http://www.w3.org/2000/svg"
 width="152.000000pt" height="163.000000pt" viewBox="0 0 152.000000 163.000000"
 preserveAspectRatio="xMidYMid meet">
<metadata>
Created by potrace 1.16, written by Peter Selinger 2001-2019
</metadata>
<g transform="translate(0.000000,163.000000) scale(0.100000,-0.100000)"
fill="#000000" stroke="none">
<path d="M970 1316 c-14 -8 -56 -17 -95 -20 -104 -11 -230 -42 -301 -77 -71
-33 -165 -115 -210 -181 -16 -24 -35 -48 -43 -54 -11 -9 -14 -47 -15 -175 -1
-163 -1 -164 30 -229 81 -171 186 -220 469 -220 126 0 155 -3 166 -16 57 -68
188 -53 231 27 49 92 -17 199 -125 199 -42 0 -70 -12 -105 -43 -22 -20 -27
-21 -145 -10 -67 7 -143 19 -168 28 -67 23 -123 76 -159 149 -29 58 -31 70
-26 133 3 37 6 76 6 86 2 24 73 91 140 131 64 39 130 61 220 75 61 10 66 9 90
-13 37 -35 64 -46 110 -46 83 0 140 57 140 138 0 51 -26 94 -70 117 -36 18
-106 19 -140 1z m-64 -72 c-3 -9 -6 -32 -6 -53 0 -37 -1 -37 -42 -39 -63 -4
-187 -40 -237 -69 -62 -36 -128 -99 -157 -149 -22 -37 -25 -53 -23 -126 5
-215 146 -318 432 -318 l62 0 0 -55 0 -55 -87 0 c-262 0 -397 59 -469 205 -44
90 -56 172 -42 296 l12 102 63 65 c111 113 215 169 367 196 107 20 135 20 127
0z"/>
</g>
</svg>
