<?xml version="1.0" standalone="no"?>
<!DOCTYPE svg PUBLIC "-//W3C//DTD SVG 20010904//EN"
 "http://www.w3.org/TR/2001/REC-SVG-20010904/DTD/svg10.dtd">
<svg version="1.0" xmlns="http://www.w3.org/2000/svg"
 width="109.000000pt" height="239.000000pt" viewBox="0 0 109.000000 239.000000"
 preserveAspectRatio="xMidYMid meet">
<metadata>
Created by potrace 1.16, written by Peter Selinger 2001-2019
</metadata>
<g transform="translate(0.000000,239.000000) scale(0.100000,-0.100000)"
fill="#000000" stroke="none">
<path d="M520 2046 c-100 -59 -155 -108 -190 -170 -33 -57 -38 -100 -14 -134
24 -35 105 -70 204 -89 l90 -18 0 -60 c0 -114 13 -285 22 -285 4 0 7 3 7 8 -1
4 -1 118 0 255 l1 247 75 0 c43 0 75 4 75 10 0 6 -32 10 -75 10 l-75 0 0 135
c0 134 0 135 -23 135 -12 0 -56 -20 -97 -44z m82 -86 c1 -49 2 -100 2 -112 1
-23 0 -23 -126 -19 -128 3 -128 3 -128 -19 l0 -23 130 6 130 6 0 -69 c0 -51
-4 -70 -13 -70 -52 0 -217 72 -251 109 -29 32 -8 91 57 155 46 45 168 126 189
126 5 0 9 -40 10 -90z"/>
<path d="M532 1018 c-132 -157 -159 -221 -119 -275 22 -30 110 -113 169 -159
26 -20 27 -26 34 -152 4 -72 11 -129 15 -126 5 3 9 124 9 270 0 226 2 265 15
270 8 4 15 10 15 15 0 4 -7 6 -15 3 -13 -5 -15 11 -15 115 0 113 -1 121 -19
121 -13 0 -46 -31 -89 -82z m69 -73 l3 -90 -64 -16 c-36 -9 -73 -20 -82 -24
-10 -4 -18 -4 -18 0 0 13 151 227 157 222 0 -1 3 -42 4 -92z m9 -237 l0 -123
-90 90 c-49 49 -90 92 -90 95 0 6 146 58 168 59 9 1 12 -30 12 -121z"/>
</g>
</svg>
