<?xml version="1.0" standalone="no"?>
<!DOCTYPE svg PUBLIC "-//W3C//DTD SVG 20010904//EN"
 "http://www.w3.org/TR/2001/REC-SVG-20010904/DTD/svg10.dtd">
<svg version="1.0" xmlns="http://www.w3.org/2000/svg"
 width="139.000000pt" height="252.000000pt" viewBox="0 0 139.000000 252.000000"
 preserveAspectRatio="xMidYMid meet">
<metadata>
Created by potrace 1.16, written by Peter Selinger 2001-2019
</metadata>
<g transform="translate(0.000000,252.000000) scale(0.100000,-0.100000)"
fill="#000000" stroke="none">
<path d="M935 2156 c-292 -132 -326 -149 -321 -163 8 -19 1 -17 -62 24 -139
89 -225 134 -233 121 -4 -7 -7 -13 -6 -14 1 -1 66 -36 145 -79 l142 -77 0 -75
0 -76 -140 7 -140 7 0 -26 0 -25 140 0 c130 0 140 -1 140 -19 0 -10 3 -38 6
-62 l6 -44 -146 -78 c-148 -80 -164 -91 -147 -102 11 -6 87 34 209 112 89 57
97 61 89 39 -6 -14 99 -67 342 -176 240 -106 102 -19 -221 141 l-108 54 0 66
c0 82 -8 78 190 80 80 0 165 4 190 8 l45 7 -55 7 c-30 4 -126 7 -213 7 l-158
0 3 78 3 77 35 17 c101 49 406 210 415 219 19 19 -13 7 -150 -55z"/>
<path d="M920 993 c-8 -3 -77 -35 -153 -70 l-138 -63 -165 6 c-149 6 -164 6
-164 -9 0 -15 18 -17 160 -17 100 0 160 -4 160 -10 0 -5 -4 -10 -10 -10 -6 0
-10 -32 -10 -75 l0 -75 -140 0 c-133 0 -140 -1 -140 -20 0 -19 7 -20 139 -20
l138 0 7 -71 c4 -39 10 -78 13 -86 5 -12 -16 -13 -156 -7 -146 6 -161 5 -161
-10 0 -14 19 -16 170 -16 l170 0 80 -40 c89 -45 224 -100 243 -100 23 1 -29
32 -183 110 l-155 78 3 71 4 71 52 0 c96 0 266 13 266 20 0 4 -72 11 -160 15
l-160 7 0 72 0 71 166 85 c91 46 167 88 170 92 6 9 -23 9 -46 1z"/>
</g>
</svg>
