<?xml version="1.0" standalone="no"?>
<!DOCTYPE svg PUBLIC "-//W3C//DTD SVG 20010904//EN"
 "http://www.w3.org/TR/2001/REC-SVG-20010904/DTD/svg10.dtd">
<svg version="1.0" xmlns="http://www.w3.org/2000/svg"
 width="135.000000pt" height="139.000000pt" viewBox="0 0 135.000000 139.000000"
 preserveAspectRatio="xMidYMid meet">
<metadata>
Created by potrace 1.16, written by Peter Selinger 2001-2019
</metadata>
<g transform="translate(0.000000,139.000000) scale(0.100000,-0.100000)"
fill="#000000" stroke="none">
<path d="M885 994 c-88 -53 -229 -138 -312 -190 l-153 -95 -44 30 c-51 35 -61
37 -70 15 -9 -22 -10 -21 34 -45 l41 -23 -38 -23 c-21 -12 -38 -27 -37 -33 3
-26 5 -30 15 -30 6 0 30 14 54 30 l44 30 193 -118 c265 -163 402 -242 419
-242 10 1 9 4 -4 14 -17 13 -18 38 -17 372 0 271 3 360 13 366 9 6 13 -51 17
-255 l6 -262 2 278 c1 152 1 277 0 276 -2 0 -75 -43 -163 -95z m99 -317 c6
-322 6 -337 -11 -326 -17 10 -18 33 -15 327 2 286 5 353 16 341 2 -2 6 -156
10 -342z m-48 -294 c-3 -3 -12 0 -21 7 -13 11 -15 54 -15 294 0 212 3 285 13
295 10 10 14 -48 20 -289 5 -166 6 -304 3 -307z m-56 302 c0 -146 -2 -265 -5
-265 -3 0 -52 31 -108 69 l-102 68 5 131 5 132 95 64 c52 36 98 65 103 65 4 1
7 -118 7 -264z m-230 0 c0 -63 -4 -115 -8 -115 -24 0 -32 30 -32 115 0 85 8
115 32 115 4 0 8 -52 8 -115z m-60 0 c0 -75 -5 -86 -28 -63 -27 27 -10 138 20
138 4 0 8 -34 8 -75z m-60 -1 l0 -45 -31 22 -32 22 29 24 c16 12 30 23 32 23
1 0 2 -21 2 -46z"/>
</g>
</svg>
