<?xml version="1.0" standalone="no"?>
<!DOCTYPE svg PUBLIC "-//W3C//DTD SVG 20010904//EN"
 "http://www.w3.org/TR/2001/REC-SVG-20010904/DTD/svg10.dtd">
<svg version="1.0" xmlns="http://www.w3.org/2000/svg"
 width="156.000000pt" height="144.000000pt" viewBox="0 0 156.000000 144.000000"
 preserveAspectRatio="xMidYMid meet">
<metadata>
Created by potrace 1.16, written by Peter Selinger 2001-2019
</metadata>
<g transform="translate(0.000000,144.000000) scale(0.100000,-0.100000)"
fill="#000000" stroke="none">
<path d="M710 1136 c0 -3 23 -41 51 -86 74 -120 81 -144 62 -224 l-15 -66
-254 0 c-230 0 -254 -2 -254 -17 0 -15 22 -16 251 -10 l250 5 -3 -21 c-3 -22
-4 -22 -251 -22 -236 0 -247 -1 -247 -19 0 -19 8 -19 246 -12 224 6 246 5 240
-10 -3 -8 -6 -27 -6 -40 l0 -24 -240 0 c-216 0 -240 -2 -240 -16 0 -15 22 -16
239 -12 l239 5 10 -22 c15 -31 136 -105 290 -175 72 -33 133 -60 136 -60 19 0
-15 45 -106 138 -59 60 -116 124 -127 142 l-20 33 23 61 c31 83 38 128 26 162
-19 52 -300 323 -300 290z m154 -147 c21 -19 58 -58 82 -87 53 -65 56 -99 19
-198 -14 -36 -25 -76 -25 -88 0 -13 46 -66 136 -154 82 -81 127 -131 112 -127
-35 11 -261 130 -323 171 -70 47 -71 55 -28 265 l26 126 -46 87 c-40 78 -42
85 -19 64 15 -14 44 -40 66 -59z"/>
<path d="M300 936 c0 -19 8 -19 252 -13 231 6 269 9 257 21 -2 3 -118 6 -257
8 -243 3 -252 2 -252 -16z"/>
<path d="M300 835 c0 -13 26 -15 173 -15 94 0 210 3 257 7 142 11 56 21 -197
22 -201 1 -233 -1 -233 -14z"/>
</g>
</svg>
