<?xml version="1.0" standalone="no"?>
<!DOCTYPE svg PUBLIC "-//W3C//DTD SVG 20010904//EN"
 "http://www.w3.org/TR/2001/REC-SVG-20010904/DTD/svg10.dtd">
<svg version="1.0" xmlns="http://www.w3.org/2000/svg"
 width="142.000000pt" height="152.000000pt" viewBox="0 0 142.000000 152.000000"
 preserveAspectRatio="xMidYMid meet">
<metadata>
Created by potrace 1.16, written by Peter Selinger 2001-2019
</metadata>
<g transform="translate(0.000000,152.000000) scale(0.100000,-0.100000)"
fill="#000000" stroke="none">
<path d="M695 1211 c-21 -9 -59 -76 -71 -126 -4 -16 -11 -35 -16 -41 -12 -17
8 -101 38 -151 19 -32 39 -49 92 -76 66 -32 68 -35 60 -63 -14 -55 -77 -104
-131 -104 -36 0 -123 46 -170 89 -24 23 -47 41 -51 41 -4 0 -6 -85 -4 -190 l3
-190 -45 -5 c-84 -11 -100 -16 -100 -32 0 -12 8 -14 33 -10 123 21 117 21 118
-10 l1 -28 7 30 c6 29 9 30 91 42 136 19 357 35 455 31 l90 -3 0 -58 c0 -31 3
-57 6 -57 11 0 19 135 19 342 0 314 -19 410 -94 475 -48 43 -98 68 -176 88
-50 13 -65 14 -71 4 -12 -20 -1 -29 35 -29 41 0 120 -26 168 -56 67 -43 95
-113 113 -293 3 -34 3 -61 -2 -60 -5 2 -66 28 -136 58 -127 54 -127 54 -127
88 l0 33 115 0 c138 0 160 19 25 22 -49 1 -102 2 -117 2 -22 1 -31 8 -40 31
-25 64 -23 65 87 65 64 0 100 4 100 11 0 7 -35 9 -104 7 l-105 -3 -26 68 c-27
67 -33 73 -70 58z m43 -63 c29 -78 34 -98 27 -98 -6 0 -65 43 -98 70 -9 8 30
80 43 80 5 0 17 -24 28 -52z m0 -105 c38 -25 61 -57 50 -69 -3 -2 -32 17 -67
42 -34 26 -65 44 -68 41 -10 -10 14 -33 81 -77 68 -43 76 -59 76 -142 l0 -39
-32 17 c-53 27 -98 65 -114 96 -8 15 -12 28 -10 28 3 0 35 -21 71 -46 36 -26
69 -44 72 -40 4 3 4 7 2 9 -2 2 -41 32 -86 66 -89 66 -97 83 -73 146 10 26 11
26 33 11 12 -8 41 -28 65 -43z m172 -224 c202 -75 190 -68 190 -100 l0 -29
-52 26 c-29 15 -81 37 -117 51 -89 33 -101 41 -95 58 8 19 8 19 74 -6z m61
-96 l129 -48 0 -120 0 -120 -215 0 -215 0 0 91 0 92 32 6 c18 4 51 24 73 46
l40 39 130 -49 c71 -28 134 -49 140 -47 13 5 -72 48 -172 88 -42 17 -81 33
-85 35 -8 5 0 34 10 34 3 0 63 -21 133 -47z m-447 -175 c6 -131 5 -138 -13
-138 -11 0 -26 -3 -35 -6 -14 -5 -16 13 -16 167 l0 174 29 -30 c28 -29 29 -33
35 -167z m64 -15 c2 -103 1 -111 -17 -116 -11 -3 -22 -2 -25 1 -3 3 -6 61 -6
130 l0 124 23 -14 c20 -14 22 -24 25 -125z m55 85 c2 -7 5 -55 6 -105 2 -88 1
-93 -18 -93 -20 0 -21 6 -21 105 0 83 3 105 14 105 8 0 16 -6 19 -12z"/>
<path d="M782 658 c5 -13 242 -108 268 -108 19 1 -63 44 -165 87 -85 35 -109
40 -103 21z"/>
<path d="M817 1044 c-23 -23 51 -30 158 -15 l50 7 -70 7 c-87 9 -130 9 -138 1z"/>
</g>
</svg>
