<?xml version="1.0" standalone="no"?>
<!DOCTYPE svg PUBLIC "-//W3C//DTD SVG 20010904//EN"
 "http://www.w3.org/TR/2001/REC-SVG-20010904/DTD/svg10.dtd">
<svg version="1.0" xmlns="http://www.w3.org/2000/svg"
 width="143.000000pt" height="155.000000pt" viewBox="0 0 143.000000 155.000000"
 preserveAspectRatio="xMidYMid meet">
<metadata>
Created by potrace 1.16, written by Peter Selinger 2001-2019
</metadata>
<g transform="translate(0.000000,155.000000) scale(0.100000,-0.100000)"
fill="#000000" stroke="none">
<path d="M855 1243 c-73 -9 -186 -37 -257 -65 -203 -77 -305 -223 -296 -422
10 -236 206 -385 581 -440 58 -9 134 -16 169 -16 l65 0 6 233 c4 127 7 336 7
464 0 219 -1 233 -19 243 -18 9 -188 12 -256 3z m235 -256 c0 -123 3 -326 7
-450 l6 -226 -54 5 c-417 40 -654 168 -699 378 -8 37 -8 51 1 57 7 4 66 7 133
8 67 0 178 4 247 7 l126 7 6 -78 c4 -43 7 -138 7 -212 0 -82 4 -133 10 -133 6
0 10 53 10 138 0 77 3 173 6 215 l7 77 78 0 c43 0 81 5 84 10 4 6 -25 10 -79
10 l-86 0 0 205 0 205 95 0 95 0 0 -223z m-230 13 l0 -200 -212 -2 c-117 0
-226 -2 -243 -4 -54 -4 -64 3 -58 44 13 91 78 192 163 252 l33 24 -22 -31
c-35 -46 -38 -110 -9 -153 43 -65 121 -86 187 -52 71 36 99 117 63 182 -26 47
-71 72 -129 72 -37 0 -43 2 -30 10 25 14 197 57 230 58 l27 0 0 -200z"/>
<path d="M563 699 c-42 -27 -67 -81 -60 -131 13 -95 131 -149 215 -98 126 77
72 250 -78 250 -28 0 -57 -8 -77 -21z"/>
</g>
</svg>
