<?xml version="1.0" standalone="no"?>
<!DOCTYPE svg PUBLIC "-//W3C//DTD SVG 20010904//EN"
 "http://www.w3.org/TR/2001/REC-SVG-20010904/DTD/svg10.dtd">
<svg version="1.0" xmlns="http://www.w3.org/2000/svg"
 width="140.000000pt" height="350.000000pt" viewBox="0 0 140.000000 350.000000"
 preserveAspectRatio="xMidYMid meet">
<metadata>
Created by potrace 1.16, written by Peter Selinger 2001-2019
</metadata>
<g transform="translate(0.000000,350.000000) scale(0.100000,-0.100000)"
fill="#000000" stroke="none">
<path d="M346 3169 c-3 -17 -6 -79 -5 -138 1 -125 14 -102 24 42 4 51 9 100
12 110 2 10 -1 17 -10 17 -8 0 -17 -14 -21 -31z"/>
<path d="M426 3154 c-3 -26 -6 -87 -6 -135 l0 -89 -37 -2 c-21 0 -44 -1 -50
-1 -19 1 -24 -47 -26 -218 -2 -143 0 -157 21 -197 25 -48 92 -96 157 -113 51
-14 241 -6 402 17 141 20 130 7 140 161 l6 102 -34 5 c-19 4 -111 5 -206 4
-94 -2 -174 0 -177 3 -4 3 0 48 8 100 8 52 15 110 14 129 0 19 5 82 11 139 14
129 14 131 -3 131 -13 0 -26 -113 -26 -227 0 -40 -2 -43 -26 -43 -26 0 -27 1
-21 53 18 160 20 230 6 225 -16 -5 -16 -4 -25 -161 l-6 -118 -27 3 c-19 2 -26
8 -24 23 1 11 7 69 13 129 7 67 7 113 2 118 -17 17 -21 -6 -28 -136 -7 -124
-7 -126 -31 -126 -22 0 -23 3 -18 33 10 54 23 222 18 230 -11 18 -21 3 -27
-39z m184 -273 c0 -17 -8 -18 -132 -14 -73 3 -135 7 -137 9 -1 1 0 7 4 13 4 7
55 11 136 11 120 0 129 -1 129 -19z m-8 -62 l-5 -32 -101 6 c-55 4 -113 7
-128 7 -21 0 -28 5 -28 20 0 17 8 20 93 23 50 1 110 4 133 5 40 2 40 2 36 -29z
m-2 -74 l0 -24 -132 6 c-73 3 -135 7 -137 9 -2 2 -1 10 2 19 5 12 28 15 137
15 l130 0 0 -25z m-14 -51 c-1 -16 13 -28 47 -38 15 -5 17 -20 17 -122 l0
-117 -82 5 c-92 5 -127 19 -177 70 -35 36 -55 68 -64 108 l-6 25 136 -3 c75
-2 140 1 145 6 10 10 -247 26 -263 16 -5 -3 -9 8 -9 25 l0 30 103 4 c56 1 114
4 128 5 19 1 26 -3 25 -14z m323 -249 c-2 -2 -16 -6 -32 -10 l-27 -7 0 103 c0
107 4 122 30 131 12 4 17 -14 24 -104 4 -60 7 -111 5 -113z m83 119 c3 -91 1
-107 -14 -115 -44 -24 -48 -16 -48 106 l0 115 29 0 30 0 3 -106z m-248 20 c3
-43 6 -97 6 -121 l0 -43 -40 0 -40 0 0 113 c0 63 2 116 5 118 2 3 17 6 33 7
l29 2 7 -76z m86 -38 l0 -114 -30 -4 -30 -5 0 119 0 118 30 0 30 0 0 -114z"/>
<path d="M346 2112 c-8 -13 -26 -245 -34 -442 -7 -181 -7 -186 16 -233 72
-146 219 -172 630 -111 112 16 158 37 60 27 l-53 -5 -40 48 c-72 88 -70 79
-29 105 l37 22 77 -83 c62 -68 78 -81 83 -66 4 10 7 72 7 139 l0 122 -232 -2
c-128 -2 -238 1 -245 5 -9 6 -8 24 3 76 8 38 26 139 39 225 14 86 30 158 35
159 6 2 10 8 10 13 0 11 -357 12 -364 1z m310 -34 c-3 -13 -10 -59 -16 -103
-16 -123 -17 -125 -46 -125 -25 0 -26 2 -20 43 3 23 8 76 12 117 4 41 9 78 11
83 2 4 18 7 34 7 25 0 29 -3 25 -22z m-233 -95 c-2 -60 -6 -114 -9 -121 -2 -7
-16 -11 -34 -10 -35 3 -36 4 -18 144 11 93 12 94 39 94 l27 0 -5 -107z m64 40
c-4 -38 -7 -92 -7 -120 0 -47 -2 -53 -21 -53 -21 0 -21 3 -14 103 8 121 11
137 32 137 14 0 15 -10 10 -67z m73 15 c0 -29 -3 -83 -7 -120 -6 -64 -7 -68
-31 -68 l-24 0 6 78 c13 145 17 162 37 162 16 0 19 -8 19 -52z m56 -223 c-3
-9 -6 -25 -6 -36 0 -17 -7 -19 -58 -19 -33 0 -93 3 -134 6 -71 6 -75 8 -70 30
5 27 10 28 166 32 98 3 108 2 102 -13z m-15 -117 l-6 -43 -75 -1 c-41 0 -99 1
-127 4 l-53 4 0 39 0 39 133 0 133 0 -5 -42z m-6 -106 c-3 -3 -14 3 -26 14
-19 17 -19 19 -2 25 13 4 20 0 26 -14 4 -11 5 -22 2 -25z m-181 -20 c27 -29
47 -54 45 -56 -14 -12 -100 -58 -103 -55 -24 28 -33 96 -20 147 9 31 21 26 78
-36z m120 27 c10 -17 16 -31 14 -33 -58 -39 -55 -39 -95 5 -21 23 -39 45 -41
50 -2 5 20 9 50 9 49 0 55 -2 72 -31z m542 -2 c3 -8 4 -53 2 -102 l-3 -89 -59
67 -59 68 23 17 c13 9 28 20 34 24 6 4 7 10 4 14 -4 3 -21 -4 -38 -16 -30 -21
-32 -22 -51 -4 -19 17 -19 19 -2 25 33 14 143 10 149 -4z m-358 -12 c2 -2 -16
-15 -39 -29 -41 -24 -44 -24 -62 -9 -17 17 -17 18 4 34 16 12 34 15 58 12 20
-3 37 -7 39 -8z m152 10 c0 -2 -17 -14 -39 -24 -37 -19 -39 -19 -55 -2 -9 10
-13 21 -9 24 7 8 103 10 103 2z m34 -34 c16 -17 14 -19 -23 -44 l-40 -27 -15
22 c-14 20 -13 23 16 45 38 28 40 28 62 4z m-150 -10 c16 -18 15 -20 -30 -45
-40 -22 -50 -24 -61 -13 -11 11 -6 18 29 45 24 17 43 31 44 32 0 0 9 -8 18
-19z m-160 -19 c15 -18 14 -20 -19 -38 -34 -18 -35 -18 -52 0 -12 12 -14 20
-7 23 6 2 20 10 30 18 25 19 28 18 48 -3z m179 -83 l-47 -28 -15 22 c-8 12
-11 22 -5 24 6 2 26 14 45 28 l34 24 18 -21 c18 -21 17 -22 -30 -49z m-275 29
c18 -18 16 -21 -33 -48 -25 -14 -45 -29 -45 -34 0 -5 -9 -1 -20 9 -28 25 -26
30 23 58 49 29 59 31 75 15z m146 -3 c6 -17 -48 -49 -70 -41 -21 8 -17 19 14
38 35 21 48 22 56 3z m228 -138 l-67 -9 -27 33 c-16 18 -28 36 -28 39 0 3 19
17 43 32 l42 28 52 -58 51 -57 -66 -8z m-322 72 c0 -3 -19 -17 -43 -29 -33
-17 -48 -21 -61 -13 -16 9 -11 14 35 41 50 29 68 29 69 1z m140 16 c15 -18 15
-17 -29 -40 -33 -17 -35 -17 -48 1 -12 16 -10 20 19 36 41 21 43 21 58 3z
m-108 -84 c-18 -8 -41 -11 -58 -7 l-27 7 39 24 c36 22 40 22 57 7 18 -16 17
-17 -11 -31z m172 20 l28 -29 -54 -4 c-72 -6 -92 11 -46 40 43 26 40 27 72 -7z"/>
<path d="M354 1079 c-17 -21 -32 -186 -40 -429 l-6 -215 33 -44 c50 -65 96
-85 204 -90 116 -4 348 25 377 48 17 15 21 32 25 127 l6 110 -173 -4 -173 -4
6 28 c3 16 21 123 41 239 20 115 42 212 48 217 7 4 10 9 7 12 -3 3 -82 9 -175
12 -139 6 -171 4 -180 -7z m133 -86 c-4 -38 -7 -92 -7 -120 0 -48 -2 -53 -23
-53 l-22 0 12 118 c6 64 12 118 12 120 1 1 8 2 17 2 15 0 16 -9 11 -67z m70
-48 c-4 -64 -9 -120 -12 -124 -3 -5 -15 -7 -26 -4 -20 6 -21 10 -15 77 15 156
17 166 39 166 19 0 20 -4 14 -115z m100 98 c-3 -10 -10 -56 -17 -103 -17 -131
-17 -130 -46 -130 -25 0 -26 2 -20 43 3 23 8 79 12 125 l7 82 34 0 c28 0 33
-3 30 -17z m-231 -24 c-3 -17 -6 -69 -6 -115 l0 -84 -36 0 -37 0 7 68 c16 164
15 162 49 162 28 0 29 -2 23 -31z m192 -236 c-3 -16 -19 -18 -136 -21 -112 -2
-132 0 -132 12 0 13 22 16 123 19 67 1 128 4 135 5 8 1 12 -5 10 -15z m-10
-65 c-2 -16 -10 -23 -25 -22 -13 0 -72 1 -133 2 -89 2 -110 5 -110 17 0 14 32
18 203 23 66 2 68 1 65 -20z m-10 -70 c-2 -19 -8 -33 -15 -32 -7 1 -65 2 -128
3 l-115 1 0 25 c0 24 1 24 98 28 53 1 112 4 130 5 32 2 33 1 30 -30z m-10 -70
c-3 -23 -1 -23 97 -23 55 0 130 3 168 7 l67 7 0 -109 0 -108 -67 -9 c-38 -4
-142 -8 -233 -8 -158 0 -166 1 -198 24 -55 39 -92 98 -92 145 0 80 4 85 79 89
182 9 183 9 179 -15z"/>
</g>
</svg>
