<?xml version="1.0" standalone="no"?>
<!DOCTYPE svg PUBLIC "-//W3C//DTD SVG 20010904//EN"
 "http://www.w3.org/TR/2001/REC-SVG-20010904/DTD/svg10.dtd">
<svg version="1.0" xmlns="http://www.w3.org/2000/svg"
 width="100.000000pt" height="148.000000pt" viewBox="0 0 100.000000 148.000000"
 preserveAspectRatio="xMidYMid meet">
<metadata>
Created by potrace 1.16, written by Peter Selinger 2001-2019
</metadata>
<g transform="translate(0.000000,148.000000) scale(0.100000,-0.100000)"
fill="#000000" stroke="none">
<path d="M301 898 l1 -283 154 -160 c84 -88 156 -156 160 -153 3 4 -55 77
-130 162 -75 85 -136 158 -136 161 0 3 28 5 62 3 l61 -3 89 -150 c48 -82 92
-157 97 -165 5 -8 12 -12 15 -10 5 5 -75 170 -134 276 l-29 51 87 7 c47 3 87
7 88 9 1 1 5 121 9 267 l8 265 -202 3 -202 4 2 -284z m359 152 l0 -100 -166 0
-165 0 2 84 c1 46 5 89 8 95 6 10 70 15 239 19 l82 2 0 -100z m4 -166 c3 -26
6 -87 6 -136 l0 -89 -172 3 -173 3 1 60 c1 33 2 90 2 127 l2 67 103 4 c56 1
130 4 163 5 l61 2 7 -46z"/>
<path d="M381 1063 c1 -77 17 -100 18 -26 1 34 -3 65 -9 68 -6 4 -10 -12 -9
-42z"/>
<path d="M499 1096 c-8 -8 3 -126 12 -126 11 0 12 117 0 124 -4 3 -10 4 -12 2z"/>
<path d="M381 843 c1 -80 17 -98 18 -20 1 38 -3 67 -9 67 -5 0 -10 -21 -9 -47z"/>
<path d="M519 866 c-8 -8 3 -126 12 -126 11 0 12 117 0 124 -4 3 -10 4 -12 2z"/>
</g>
</svg>
