<?xml version="1.0" standalone="no"?>
<!DOCTYPE svg PUBLIC "-//W3C//DTD SVG 20010904//EN"
 "http://www.w3.org/TR/2001/REC-SVG-20010904/DTD/svg10.dtd">
<svg version="1.0" xmlns="http://www.w3.org/2000/svg"
 width="122.000000pt" height="123.000000pt" viewBox="0 0 122.000000 123.000000"
 preserveAspectRatio="xMidYMid meet">
<metadata>
Created by potrace 1.16, written by Peter Selinger 2001-2019
</metadata>
<g transform="translate(0.000000,123.000000) scale(0.100000,-0.100000)"
fill="#000000" stroke="none">
<path d="M576 921 c-4 -6 7 -35 24 -65 l31 -55 -120 -78 c-66 -43 -141 -91
-167 -106 -40 -24 -45 -30 -33 -42 11 -12 28 -13 79 -5 36 4 121 13 190 19 69
7 134 14 145 17 15 3 25 -4 42 -34 l22 -39 -102 -65 c-56 -36 -128 -82 -159
-102 -42 -26 -56 -41 -51 -52 5 -14 19 -15 102 -10 53 4 137 11 186 17 50 5
105 11 122 12 18 1 33 7 33 13 0 7 -64 140 -143 295 -128 257 -145 284 -169
287 -14 2 -29 -1 -32 -7z m113 -217 c24 -41 41 -77 40 -78 -6 -6 -314 -18
-309 -13 18 18 213 167 219 167 4 0 26 -34 50 -76z m159 -270 c24 -42 42 -77
40 -79 -8 -7 -312 -16 -305 -9 27 27 204 163 212 163 6 0 29 -34 53 -75z"/>
</g>
</svg>
