<?xml version="1.0" standalone="no"?>
<!DOCTYPE svg PUBLIC "-//W3C//DTD SVG 20010904//EN"
 "http://www.w3.org/TR/2001/REC-SVG-20010904/DTD/svg10.dtd">
<svg version="1.0" xmlns="http://www.w3.org/2000/svg"
 width="164.000000pt" height="131.000000pt" viewBox="0 0 164.000000 131.000000"
 preserveAspectRatio="xMidYMid meet">
<metadata>
Created by potrace 1.16, written by Peter Selinger 2001-2019
</metadata>
<g transform="translate(0.000000,131.000000) scale(0.100000,-0.100000)"
fill="#000000" stroke="none">
<path d="M1154 990 c-19 -20 -26 -20 -130 -10 -60 5 -114 10 -119 10 -6 0 -16
-42 -23 -92 -7 -51 -15 -106 -18 -123 -4 -21 -2 -25 4 -15 5 8 17 57 27 108
l17 92 82 -1 c131 -1 131 0 9 -121 l-108 -106 -100 -4 -100 -5 -70 57 c-106
85 -179 136 -173 119 2 -7 57 -52 121 -99 l117 -84 -122 -63 c-135 -68 -148
-75 -148 -68 0 3 19 29 42 59 41 53 43 54 63 38 20 -17 20 -17 1 5 -16 20 -17
25 -5 40 12 16 12 17 -2 6 -17 -14 -42 8 -107 93 -28 37 -30 43 -17 54 13 11
28 0 96 -69 44 -44 85 -81 91 -81 5 0 -27 39 -71 86 -44 48 -78 90 -75 95 13
22 -17 5 -71 -39 -33 -26 -60 -53 -59 -60 1 -7 2 -33 4 -59 l3 -48 6 42 6 41
39 -45 38 -44 -23 -25 c-12 -13 -28 -24 -36 -24 -7 0 -13 -4 -13 -10 0 -5 3
-10 8 -10 4 0 19 -11 34 -25 47 -44 63 -41 198 33 69 38 132 69 140 69 8 0 51
3 95 7 l80 8 -60 -61 c-33 -34 -55 -61 -50 -61 6 0 91 81 190 180 l180 180 75
2 75 2 -69 3 c-67 4 -68 4 -51 23 24 26 5 26 -21 0z m-726 -209 c34 -38 62
-73 62 -78 0 -5 -19 -30 -42 -56 -42 -47 -43 -48 -66 -31 l-24 16 28 29 c23
24 30 27 43 16 14 -11 14 -10 2 6 -12 15 -11 20 3 35 9 10 16 23 16 28 -1 5
-9 -1 -19 -13 l-19 -23 -45 52 c-42 49 -44 54 -30 70 9 10 19 18 23 18 3 0 34
-31 68 -69z"/>
<path d="M1041 699 c-156 -154 -281 -283 -277 -286 4 -4 133 120 288 275 155
154 280 283 278 285 -3 3 -133 -121 -289 -274z"/>
<path d="M1293 836 l1 -58 -240 -239 c-131 -131 -234 -239 -229 -239 6 0 125
115 265 255 140 140 249 255 242 255 -6 0 -12 -4 -12 -10 0 -5 -4 -10 -10 -10
-5 0 -11 24 -13 53 l-4 52 0 -59z"/>
<path d="M1145 450 c-71 -72 -125 -130 -120 -130 13 0 261 248 254 254 -3 3
-63 -53 -134 -124z"/>
</g>
</svg>
