<?xml version="1.0" standalone="no"?>
<!DOCTYPE svg PUBLIC "-//W3C//DTD SVG 20010904//EN"
 "http://www.w3.org/TR/2001/REC-SVG-20010904/DTD/svg10.dtd">
<svg version="1.0" xmlns="http://www.w3.org/2000/svg"
 width="185.000000pt" height="177.000000pt" viewBox="0 0 185.000000 177.000000"
 preserveAspectRatio="xMidYMid meet">
<metadata>
Created by potrace 1.16, written by Peter Selinger 2001-2019
</metadata>
<g transform="translate(0.000000,177.000000) scale(0.100000,-0.100000)"
fill="#000000" stroke="none">
<path d="M897 1331 l-105 -139 -22 62 c-12 33 -33 82 -47 107 -38 71 -55 59
-96 -67 l-34 -104 -104 117 c-57 64 -107 120 -110 125 -3 4 -17 2 -31 -4 -34
-16 -36 -31 -44 -293 -7 -240 1 -303 63 -496 20 -63 36 -118 34 -123 -1 -5 5
-16 12 -25 8 -9 18 -27 22 -40 5 -18 9 -20 16 -10 6 11 14 8 36 -12 43 -39 96
-76 149 -104 l47 -25 436 2 436 2 -395 6 c-319 6 -404 10 -444 23 -59 19 -162
86 -237 155 -55 51 -56 52 -82 159 -38 155 -47 214 -54 339 l-6 111 48 6 c26
4 81 7 121 7 l74 0 0 -45 0 -45 -110 0 c-106 0 -110 -1 -110 -21 0 -21 2 -22
110 -15 l109 7 7 -28 c3 -15 7 -34 10 -40 2 -9 -9 -14 -34 -15 -20 -1 -46 -3
-57 -4 -11 -1 -44 -2 -72 -3 -40 -1 -53 -5 -53 -16 0 -12 19 -15 114 -15 109
0 114 -1 120 -22 12 -46 11 -47 -96 -50 -89 -3 -103 -5 -106 -20 -3 -16 7 -18
111 -18 113 0 115 0 121 -24 3 -13 9 -31 12 -40 5 -14 -7 -16 -105 -16 -106 0
-111 -1 -111 -21 0 -20 3 -20 114 -13 l115 7 14 -49 14 -49 -101 -5 c-77 -4
-101 -8 -101 -19 0 -11 22 -13 108 -12 70 1 107 -1 103 -8 -4 -5 -2 -12 3 -15
5 -4 12 3 16 14 5 15 15 20 41 20 19 0 34 5 34 10 0 6 -15 10 -34 10 l-33 0
10 48 c6 26 16 50 21 54 6 4 32 8 59 8 26 0 47 5 47 10 0 6 -24 10 -54 10
l-54 0 10 42 c5 23 11 45 14 47 2 3 31 7 64 9 78 6 77 22 -1 22 l-61 0 7 37
c8 47 17 53 78 53 26 0 47 5 47 10 0 6 -25 10 -56 10 l-56 0 6 31 c3 17 6 38
6 45 0 11 17 14 70 14 40 0 70 4 70 10 0 6 -30 10 -69 10 l-69 0 -4 48 c-3 26
-4 48 -3 49 0 1 42 5 93 9 l93 7 -6 -44 c-29 -206 -99 -454 -204 -722 -6 -15
-7 -27 -2 -27 13 0 115 252 171 420 57 172 78 295 87 518 6 152 5 163 -13 177
-10 8 -22 15 -25 15 -4 0 -54 -63 -112 -139z m108 -68 l-7 -113 -100 0 c-97 0
-100 1 -87 19 8 10 55 69 104 131 64 79 91 107 94 94 2 -10 0 -69 -4 -131z
m-419 -109 c0 -1 -55 -5 -120 -9 l-119 -7 7 113 c3 61 9 116 12 121 3 5 55
-42 114 -104 59 -62 107 -114 106 -114z m143 104 c44 -109 44 -108 -38 -108
l-69 0 9 38 c20 75 53 162 59 155 4 -5 21 -43 39 -85z m53 -196 l4 -43 -86 3
-85 3 -3 30 c-1 17 2 37 7 45 8 12 13 11 32 -5 20 -18 22 -18 16 -2 -5 14 0
17 28 17 21 0 35 -5 35 -12 0 -8 6 -6 17 5 22 22 30 12 35 -41z m-2 -112 l0
-40 -75 0 c-41 0 -75 4 -75 9 0 5 -3 23 -6 40 l-6 31 81 0 81 0 0 -40z m-10
-79 c0 -5 -3 -23 -6 -40 -6 -30 -8 -31 -60 -31 -45 0 -54 3 -54 18 0 9 -3 27
-6 40 -6 21 -4 22 60 22 36 0 66 -4 66 -9z m-20 -115 c0 -7 -3 -28 -6 -45 -5
-25 -11 -31 -33 -31 -23 0 -28 6 -37 40 -6 22 -9 42 -6 45 3 3 23 5 44 5 26 0
38 -4 38 -14z m-24 -137 c-3 -17 -6 -39 -7 -48 0 -19 -12 7 -23 52 -5 23 -3
27 15 27 19 0 21 -4 15 -31z"/>
</g>
</svg>
