<?xml version="1.0" standalone="no"?>
<!DOCTYPE svg PUBLIC "-//W3C//DTD SVG 20010904//EN"
 "http://www.w3.org/TR/2001/REC-SVG-20010904/DTD/svg10.dtd">
<svg version="1.0" xmlns="http://www.w3.org/2000/svg"
 width="122.000000pt" height="123.000000pt" viewBox="0 0 122.000000 123.000000"
 preserveAspectRatio="xMidYMid meet">
<metadata>
Created by potrace 1.16, written by Peter Selinger 2001-2019
</metadata>
<g transform="translate(0.000000,123.000000) scale(0.100000,-0.100000)"
fill="#000000" stroke="none">
<path d="M495 901 c-97 -29 -195 -75 -195 -91 0 -5 33 -33 74 -61 l74 -52 -61
-48 c-48 -37 -62 -54 -62 -75 -1 -23 8 -31 71 -62 l73 -36 -60 -64 c-33 -35
-58 -69 -56 -75 6 -20 79 -35 167 -35 75 0 80 1 40 9 -102 18 -150 31 -155 40
-4 5 15 36 41 70 37 49 44 63 33 70 -8 6 -34 22 -59 36 -78 46 -77 40 -9 109
l61 62 -38 35 c-22 19 -50 44 -64 55 l-24 20 49 24 c28 14 78 35 111 48 60 21
64 21 125 6 44 -11 91 -34 149 -74 95 -64 102 -76 114 -213 l7 -76 -78 -80
c-47 -48 -100 -92 -133 -109 -55 -29 -55 -29 -23 -32 46 -5 98 33 168 119 33
41 66 80 74 88 10 11 12 38 8 115 -5 118 -7 124 -50 153 -17 12 -60 44 -95 71
-54 42 -147 84 -178 81 -5 0 -49 -13 -99 -28z"/>
<path d="M630 605 c0 -96 4 -175 9 -175 10 0 21 132 21 258 0 75 -3 92 -15 92
-13 0 -15 -26 -15 -175z"/>
<path d="M536 738 c-8 -41 5 -331 14 -321 5 4 11 86 15 181 6 148 5 172 -8
172 -8 0 -17 -13 -21 -32z"/>
<path d="M741 633 c0 -143 11 -199 22 -119 4 27 7 93 7 147 0 81 -3 99 -15 99
-13 0 -15 -21 -14 -127z"/>
</g>
</svg>
