<?xml version="1.0" standalone="no"?>
<!DOCTYPE svg PUBLIC "-//W3C//DTD SVG 20010904//EN"
 "http://www.w3.org/TR/2001/REC-SVG-20010904/DTD/svg10.dtd">
<svg version="1.0" xmlns="http://www.w3.org/2000/svg"
 width="164.000000pt" height="146.000000pt" viewBox="0 0 164.000000 146.000000"
 preserveAspectRatio="xMidYMid meet">
<metadata>
Created by potrace 1.16, written by Peter Selinger 2001-2019
</metadata>
<g transform="translate(0.000000,146.000000) scale(0.100000,-0.100000)"
fill="#000000" stroke="none">
<path d="M300 1136 c0 -77 67 -397 108 -516 51 -148 134 -270 206 -304 43 -20
130 -21 210 -1 86 22 287 124 377 192 177 134 186 158 18 47 -202 -132 -416
-224 -526 -224 -44 0 -103 31 -137 70 -87 104 -159 315 -201 590 -9 58 -18
120 -21 138 -6 38 -34 45 -34 8z"/>
<path d="M853 958 c-56 -30 -183 -139 -239 -204 -39 -46 -42 -54 -28 -62 14
-8 29 4 77 59 113 130 223 206 280 194 64 -14 184 -91 316 -203 28 -24 51 -39
51 -33 0 12 -132 129 -206 183 -63 46 -150 88 -184 88 -14 0 -44 -10 -67 -22z"/>
<path d="M1295 674 c-188 -24 -459 -43 -594 -44 -85 0 -92 -1 -80 -16 12 -15
33 -16 169 -11 134 5 525 49 537 61 7 7 -11 12 -32 10z"/>
</g>
</svg>
