<?xml version="1.0" standalone="no"?>
<!DOCTYPE svg PUBLIC "-//W3C//DTD SVG 20010904//EN"
 "http://www.w3.org/TR/2001/REC-SVG-20010904/DTD/svg10.dtd">
<svg version="1.0" xmlns="http://www.w3.org/2000/svg"
 width="182.000000pt" height="176.000000pt" viewBox="0 0 182.000000 176.000000"
 preserveAspectRatio="xMidYMid meet">
<metadata>
Created by potrace 1.16, written by Peter Selinger 2001-2019
</metadata>
<g transform="translate(0.000000,176.000000) scale(0.100000,-0.100000)"
fill="#000000" stroke="none">
<path d="M510 1445 c0 -8 -5 -14 -11 -12 -15 3 -119 -228 -160 -353 -40 -120
-47 -204 -24 -290 22 -85 72 -215 142 -367 l56 -123 404 0 404 0 48 103 c27
56 71 157 97 222 l49 120 0 150 0 150 -47 115 c-80 197 -115 267 -140 274 -35
11 -378 25 -610 26 -178 0 -208 -2 -208 -15z m767 -27 c-3 -7 -33 -75 -67
-152 -33 -76 -71 -174 -84 -218 l-23 -81 -184 2 c-189 2 -199 4 -199 44 0 15
13 17 134 17 73 0 162 3 197 7 l64 7 -50 7 c-27 4 -120 8 -206 8 l-156 1 -13
43 c-6 23 -37 98 -67 167 -30 69 -57 131 -60 138 -4 9 14 12 71 12 l76 0 -2
-67 c-2 -38 -1 -115 1 -173 4 -97 4 -101 11 -50 5 30 8 108 9 173 l1 117 180
0 180 0 0 -170 c0 -94 4 -170 9 -170 5 0 12 76 16 169 9 193 -1 177 109 180
43 1 57 -2 53 -11z m-697 -147 c113 -252 135 -357 101 -491 -11 -46 -22 -84
-23 -85 -2 -2 -66 0 -142 4 -190 8 -193 26 -6 36 79 4 138 11 134 16 -3 5 -68
9 -144 9 l-139 0 -10 38 c-27 94 -6 207 72 392 70 166 91 210 99 202 4 -4 31
-59 58 -121z m798 2 c52 -114 109 -282 117 -348 5 -36 0 -77 -15 -144 l-22
-93 -46 6 c-24 3 -89 6 -143 6 -78 0 -99 3 -99 14 0 10 30 15 135 21 74 4 135
11 135 16 0 5 -63 9 -139 9 -100 0 -142 4 -147 12 -5 7 -10 51 -12 98 -4 77
-1 96 31 190 19 58 58 158 87 223 60 135 52 135 118 -10z m-278 -360 l0 -36
-127 6 c-71 4 -152 7 -180 7 -50 0 -53 2 -53 25 l0 24 153 4 c83 1 164 4 180
5 25 2 27 -1 27 -35z m3 -78 l4 -26 -186 7 c-102 3 -188 8 -190 10 -2 2 -1 10
2 18 5 12 38 15 185 16 l180 1 5 -26z m18 -72 l8 -23 -210 0 c-188 0 -210 2
-205 16 3 9 6 20 6 25 0 6 79 8 196 7 194 -3 197 -3 205 -25z m20 -70 l8 -23
-229 0 c-198 0 -230 2 -230 15 0 8 10 16 23 16 89 6 349 16 381 15 31 -1 41
-6 47 -23z m-497 -40 c-6 -23 -68 -188 -107 -285 -6 -16 -15 -28 -18 -28 -4 0
-30 60 -59 133 -28 72 -55 142 -60 155 -6 13 -10 27 -10 32 0 5 51 11 113 13
61 1 120 4 130 5 14 2 16 -3 11 -25z m806 22 c0 -9 -86 -237 -111 -293 l-24
-54 -57 144 c-31 78 -60 155 -63 170 l-7 27 109 4 c59 1 118 4 131 5 12 1 22
0 22 -3z m-742 -195 l3 -150 -28 0 -28 0 3 142 c4 143 13 191 35 169 7 -7 12
-69 15 -161z m382 5 l0 -165 -31 0 -31 0 3 153 c2 83 0 158 -4 165 -6 9 1 12
27 12 l36 0 0 -165z m105 73 c21 -51 55 -128 77 -170 l38 -77 -98 6 c-53 3
-99 7 -101 9 -1 1 0 75 4 163 7 143 9 161 25 161 12 0 28 -26 55 -92z m-410
-75 l5 -153 -37 0 -36 0 7 61 c3 34 6 104 6 156 l0 94 25 -3 24 -3 6 -152z
m85 2 l0 -155 -36 0 -37 0 6 68 c4 37 7 106 7 155 l0 87 30 0 30 0 0 -155z
m80 0 l0 -155 -32 0 -31 0 6 98 c4 53 7 123 7 155 0 54 1 57 25 57 l25 0 0
-155z m60 -6 l0 -160 -22 3 c-16 2 -23 10 -22 26 0 12 1 83 2 157 2 128 3 135
22 135 19 0 20 -7 20 -161z m-370 -44 l0 -105 -51 0 c-28 0 -49 4 -47 8 14 36
92 202 95 202 2 0 3 -47 3 -105z"/>
<path d="M784 1395 c-5 -13 -2 -133 7 -290 4 -57 17 91 18 198 1 67 -3 107 -9
107 -6 0 -13 -7 -16 -15z"/>
<path d="M870 1245 c0 -91 4 -165 8 -165 9 0 22 170 22 278 0 40 -4 52 -15 52
-13 0 -15 -25 -15 -165z"/>
<path d="M951 1238 c1 -97 4 -151 9 -133 12 46 12 295 0 295 -6 0 -10 -60 -9
-162z"/>
<path d="M1010 1240 c0 -100 4 -160 10 -160 6 0 10 45 10 114 0 62 3 134 6
160 6 38 4 46 -10 46 -14 0 -16 -19 -16 -160z"/>
<path d="M370 1025 c0 -17 87 -20 226 -8 111 10 62 21 -98 22 -108 1 -128 -1
-128 -14z"/>
<path d="M362 948 c6 -17 71 -21 198 -13 142 10 103 23 -68 24 -103 1 -133 -2
-130 -11z"/>
<path d="M357 893 c-19 -19 5 -23 131 -23 162 0 204 14 71 23 -118 9 -194 9
-202 0z"/>
<path d="M360 820 c0 -6 57 -10 150 -10 93 0 150 4 150 10 0 6 -57 10 -150 10
-93 0 -150 -4 -150 -10z"/>
<path d="M1170 1025 c0 -12 15 -15 78 -15 42 0 108 3 147 7 104 10 53 21 -97
22 -107 1 -128 -1 -128 -14z"/>
<path d="M1160 945 c0 -17 87 -20 226 -8 111 10 62 21 -98 22 -108 1 -128 -1
-128 -14z"/>
<path d="M1150 885 c0 -13 20 -15 128 -14 165 1 209 13 83 22 -155 11 -211 9
-211 -8z"/>
<path d="M1160 820 c0 -6 55 -10 145 -10 90 0 145 4 145 10 0 6 -55 10 -145
10 -90 0 -145 -4 -145 -10z"/>
</g>
</svg>
