<?xml version="1.0" standalone="no"?>
<!DOCTYPE svg PUBLIC "-//W3C//DTD SVG 20010904//EN"
 "http://www.w3.org/TR/2001/REC-SVG-20010904/DTD/svg10.dtd">
<svg version="1.0" xmlns="http://www.w3.org/2000/svg"
 width="194.000000pt" height="167.000000pt" viewBox="0 0 194.000000 167.000000"
 preserveAspectRatio="xMidYMid meet">
<metadata>
Created by potrace 1.16, written by Peter Selinger 2001-2019
</metadata>
<g transform="translate(0.000000,167.000000) scale(0.100000,-0.100000)"
fill="#000000" stroke="none">
<path d="M630 1133 l-235 -238 238 235 c220 218 242 240 234 240 -1 0 -108
-107 -237 -237z"/>
<path d="M702 1118 c-139 -138 -251 -252 -249 -254 1 -2 117 111 257 251 140
140 253 255 250 255 -3 0 -119 -113 -258 -252z"/>
<path d="M770 1100 c-151 -149 -270 -270 -265 -270 6 0 132 122 280 270 148
149 268 270 265 270 -3 -1 -129 -122 -280 -270z"/>
<path d="M555 1150 c-115 -115 -208 -210 -205 -210 3 0 100 95 215 210 115
116 208 210 205 210 -3 0 -100 -94 -215 -210z"/>
<path d="M840 1085 c-151 -151 -272 -276 -269 -279 2 -3 130 121 284 275 154
153 276 279 270 278 -5 0 -134 -124 -285 -274z"/>
<path d="M910 1063 c-157 -158 -263 -267 -236 -243 102 92 540 530 531 530 -6
0 -138 -129 -295 -287z"/>
<path d="M985 1047 c-160 -160 -285 -288 -280 -283 34 27 576 568 573 571 -2
2 -134 -127 -293 -288z"/>
<path d="M475 1158 c-164 -167 -165 -168 -26 -33 191 185 210 205 202 205 -3
0 -83 -77 -176 -172z"/>
<path d="M1060 1035 c-157 -157 -283 -285 -280 -285 3 0 133 128 290 285 157
157 283 285 280 285 -3 0 -133 -128 -290 -285z"/>
<path d="M405 1180 c-60 -61 -105 -110 -100 -110 13 0 220 208 214 214 -3 3
-54 -44 -114 -104z"/>
<path d="M1130 1013 l-275 -278 278 275 c152 151 277 276 277 277 0 8 -25 -17
-280 -274z"/>
<path d="M1215 1010 c-211 -210 -255 -250 -279 -250 l-29 0 7 -100 6 -100
-140 0 c-171 0 -166 5 -157 -148 3 -57 8 -107 11 -109 3 -3 187 -1 408 4 222
5 408 6 414 1 15 -11 24 43 24 139 0 111 13 103 -182 103 l-171 0 7 37 c3 21
6 65 6 98 l0 61 223 223 c122 123 211 216 197 207 -14 -9 -115 -106 -225 -216
-119 -119 -208 -200 -219 -200 -18 0 -19 -6 -13 -104 l6 -104 -32 4 c-18 1
-55 3 -83 3 l-50 1 4 88 4 87 261 263 c144 144 260 262 257 262 -3 0 -117
-113 -255 -250z m229 -576 c4 -53 5 -97 4 -98 -2 -1 -181 1 -398 4 l-395 5 1
23 c0 12 1 51 2 87 l2 65 298 2 c163 2 338 4 388 6 l91 3 7 -97z"/>
<path d="M1276 985 c-137 -135 -245 -245 -240 -245 5 0 119 110 254 245 135
135 243 245 240 245 -3 0 -117 -110 -254 -245z"/>
<path d="M1420 955 c-102 -102 -180 -185 -175 -185 13 1 383 370 370 370 -6 0
-93 -83 -195 -185z"/>
<path d="M1495 938 l-140 -142 125 119 c69 65 134 127 144 137 11 9 18 20 15
22 -3 3 -68 -59 -144 -136z"/>
<path d="M1559 913 l-34 -38 38 34 c20 19 37 36 37 38 0 8 -8 0 -41 -34z"/>
</g>
</svg>
