<?xml version="1.0" standalone="no"?>
<!DOCTYPE svg PUBLIC "-//W3C//DTD SVG 20010904//EN"
 "http://www.w3.org/TR/2001/REC-SVG-20010904/DTD/svg10.dtd">
<svg version="1.0" xmlns="http://www.w3.org/2000/svg"
 width="198.000000pt" height="201.000000pt" viewBox="0 0 198.000000 201.000000"
 preserveAspectRatio="xMidYMid meet">
<metadata>
Created by potrace 1.16, written by Peter Selinger 2001-2019
</metadata>
<g transform="translate(0.000000,201.000000) scale(0.100000,-0.100000)"
fill="#000000" stroke="none">
<path d="M667 1617 c-81 -51 -196 -127 -256 -169 -97 -69 -108 -79 -104 -102
9 -45 137 -119 280 -162 187 -57 443 -30 824 85 186 56 224 69 217 77 -3 2
-74 -13 -159 -35 -340 -88 -679 -145 -679 -113 0 4 7 45 15 92 8 47 21 141 30
210 8 69 17 140 20 158 5 24 2 32 -10 32 -8 0 -15 5 -15 10 0 6 -3 10 -7 9 -5
0 -74 -41 -156 -92z m131 -137 c-11 -113 -22 -225 -24 -249 l-6 -44 -60 6
c-33 3 -62 7 -64 10 -3 3 4 54 15 113 11 60 25 147 32 194 6 47 14 90 18 97 6
11 104 85 106 80 1 -1 -7 -94 -17 -207z m-154 -56 c-24 -231 -21 -217 -52
-209 -73 17 -247 116 -240 136 3 9 301 228 305 224 2 -1 -4 -69 -13 -151z"/>
<path d="M607 570 c-108 -60 -307 -195 -307 -209 0 -4 6 -15 13 -24 16 -23
249 -37 597 -37 332 0 770 24 770 42 0 6 -29 7 -72 4 -40 -3 -231 -8 -424 -12
l-351 -6 -7 28 c-13 52 -98 274 -105 274 -3 0 -55 -27 -114 -60z m103 7 c0 -7
23 -64 50 -127 27 -63 50 -116 50 -118 0 -2 -24 -2 -52 -1 l-53 3 -37 111
c-26 79 -33 112 -25 117 7 4 21 13 32 21 21 16 35 14 35 -6z m-71 -142 c17
-44 31 -84 31 -89 0 -9 -210 0 -270 13 l-34 7 34 26 c115 86 195 137 201 131
4 -5 22 -44 38 -88z"/>
</g>
</svg>
