<?xml version="1.0" standalone="no"?>
<!DOCTYPE svg PUBLIC "-//W3C//DTD SVG 20010904//EN"
 "http://www.w3.org/TR/2001/REC-SVG-20010904/DTD/svg10.dtd">
<svg version="1.0" xmlns="http://www.w3.org/2000/svg"
 width="131.000000pt" height="142.000000pt" viewBox="0 0 131.000000 142.000000"
 preserveAspectRatio="xMidYMid meet">
<metadata>
Created by potrace 1.16, written by Peter Selinger 2001-2019
</metadata>
<g transform="translate(0.000000,142.000000) scale(0.100000,-0.100000)"
fill="#000000" stroke="none">
<path d="M514 1061 c-140 -116 -204 -213 -212 -321 -9 -128 50 -244 170 -335
61 -47 170 -105 196 -105 8 0 12 19 12 63 0 34 3 92 6 128 l7 66 155 7 c145 6
172 10 161 20 -5 4 -188 16 -261 16 l-58 0 0 104 c0 85 3 105 16 110 9 3 73 6
142 7 138 0 196 11 127 22 -22 4 -96 7 -164 7 l-124 0 7 135 c7 132 7 135 -13
135 -16 0 -21 -7 -22 -30 -1 -16 -2 -36 -3 -42 -2 -22 -104 -71 -132 -64 -13
4 -24 10 -24 15 0 5 29 33 65 61 36 28 65 54 65 56 0 2 -10 4 -22 4 -13 0 -54
-26 -94 -59z m133 -137 c-6 -6 -77 28 -77 36 0 3 17 16 38 28 l37 21 3 -41 c2
-22 1 -42 -1 -44z m-147 37 c0 -7 -64 -41 -77 -41 -4 0 6 13 21 29 25 26 56
32 56 12z m65 -84 l-56 -28 -35 21 c-19 12 -34 23 -34 26 0 2 21 14 47 28 l47
24 44 -21 43 -21 -56 -29z m85 -32 c0 -52 -7 -54 -70 -26 l-42 19 44 26 c60
36 68 34 68 -19z m-201 -26 c-38 -20 -57 -23 -78 -10 -11 7 -11 13 -1 32 20
37 30 39 74 17 l40 -20 -35 -19z m119 -17 l42 -18 -45 -22 c-56 -27 -55 -27
-101 0 l-36 21 33 18 c42 22 53 22 107 1z m-208 -22 c0 -5 -4 -10 -10 -10 -5
0 -10 5 -10 10 0 6 5 10 10 10 6 0 10 -4 10 -10z m290 -51 c0 -25 -5 -42 -14
-45 -13 -5 -102 33 -94 41 14 14 93 53 100 49 4 -3 8 -23 8 -45z m-201 12 l35
-19 -41 -20 c-35 -18 -45 -19 -72 -9 -22 8 -31 18 -31 35 0 13 4 21 9 17 5 -3
12 -1 16 5 9 15 46 11 84 -9z m107 -52 l48 -22 -46 -23 -47 -24 -42 24 -42 24
39 21 c22 11 40 20 40 21 1 0 23 -10 50 -21z m-192 -18 c3 -5 -1 -11 -9 -15
-9 -3 -15 0 -15 9 0 16 16 20 24 6z m290 -45 c7 -39 5 -64 -7 -68 -7 -3 -34 8
-61 23 l-48 26 42 26 c47 28 68 26 74 -7z m-206 2 l35 -21 -38 -20 c-30 -15
-43 -17 -62 -8 -33 15 -41 41 -18 57 26 19 42 18 83 -8z m132 -62 l44 -23 -42
-22 -41 -21 -56 27 -55 27 32 18 c43 23 64 22 118 -6z m-118 -52 l52 -26 -27
-15 c-40 -20 -23 -35 18 -16 34 16 37 16 95 -12 l60 -29 0 -49 c0 -43 -2 -48
-17 -43 -50 19 -134 78 -190 133 -88 87 -85 104 9 57z m198 -29 c0 -25 -2 -45
-5 -45 -14 0 -86 42 -81 47 14 14 62 42 74 42 8 1 12 -14 12 -44z"/>
</g>
</svg>
