<?xml version="1.0" standalone="no"?>
<!DOCTYPE svg PUBLIC "-//W3C//DTD SVG 20010904//EN"
 "http://www.w3.org/TR/2001/REC-SVG-20010904/DTD/svg10.dtd">
<svg version="1.0" xmlns="http://www.w3.org/2000/svg"
 width="155.000000pt" height="135.000000pt" viewBox="0 0 155.000000 135.000000"
 preserveAspectRatio="xMidYMid meet">
<metadata>
Created by potrace 1.16, written by Peter Selinger 2001-2019
</metadata>
<g transform="translate(0.000000,135.000000) scale(0.100000,-0.100000)"
fill="#000000" stroke="none">
<path d="M765 1020 c-35 -17 -79 -51 -106 -80 l-45 -50 -93 71 c-86 65 -111
75 -111 46 0 -7 43 -39 95 -72 52 -33 95 -64 95 -70 0 -36 -19 -32 -124 22
-86 44 -110 52 -117 42 -13 -20 -11 -26 9 -32 22 -7 196 -78 201 -83 2 -2 -1
-9 -6 -16 -6 -7 -13 -25 -16 -39 l-7 -26 -112 37 c-96 32 -114 35 -121 23 -5
-8 -6 -17 -3 -20 3 -3 56 -18 118 -33 l113 -27 3 -47 3 -47 -118 2 c-106 1
-118 0 -122 -16 -3 -17 6 -18 122 -13 l126 6 6 -42 c11 -67 68 -141 144 -186
82 -48 146 -74 166 -67 11 5 15 30 17 114 l3 108 160 6 c220 9 210 8 200 18
-14 13 -358 16 -380 4 -16 -10 -18 -22 -12 -127 l5 -117 -70 38 c-86 47 -138
90 -181 151 -31 46 -32 49 -32 157 0 95 3 116 23 157 36 73 127 160 192 185
l55 20 2 -46 c2 -25 5 -75 9 -110 l6 -64 189 5 c170 4 212 9 198 22 -3 3 -81
6 -174 7 -94 1 -176 4 -182 6 -9 4 -13 34 -13 103 0 80 -3 99 -16 104 -26 10
-36 7 -99 -24z"/>
</g>
</svg>
