<?xml version="1.0" standalone="no"?>
<!DOCTYPE svg PUBLIC "-//W3C//DTD SVG 20010904//EN"
 "http://www.w3.org/TR/2001/REC-SVG-20010904/DTD/svg10.dtd">
<svg version="1.0" xmlns="http://www.w3.org/2000/svg"
 width="156.000000pt" height="152.000000pt" viewBox="0 0 156.000000 152.000000"
 preserveAspectRatio="xMidYMid meet">
<metadata>
Created by potrace 1.16, written by Peter Selinger 2001-2019
</metadata>
<g transform="translate(0.000000,152.000000) scale(0.100000,-0.100000)"
fill="#000000" stroke="none">
<path d="M710 1136 c0 -83 0 -84 -27 -91 -16 -3 -56 -22 -89 -40 -55 -31 -64
-41 -84 -90 l-22 -55 -94 0 c-80 0 -94 -2 -94 -16 0 -15 11 -16 90 -12 l90 6
-5 -32 c-3 -17 -7 -44 -9 -61 l-3 -30 -82 4 c-69 3 -81 1 -81 -13 0 -13 13
-16 83 -16 l82 0 23 -53 c12 -28 46 -81 75 -117 42 -52 63 -69 102 -83 l50
-18 -3 -45 c-2 -24 -1 -52 3 -61 10 -28 25 4 25 55 0 41 1 42 33 42 17 0 42 3
55 6 21 6 22 4 22 -55 0 -33 4 -61 9 -61 10 0 21 49 21 96 0 31 6 37 78 83 77
50 77 50 107 130 l30 81 77 0 c42 0 79 4 82 9 3 5 -29 12 -72 16 l-78 7 -2 57
c-2 49 0 58 15 58 84 -1 143 5 143 13 0 6 -33 10 -80 10 -51 0 -83 4 -90 13
-5 6 -19 23 -29 37 -30 38 -34 19 -11 -49 11 -33 20 -78 20 -100 0 -41 -45
-207 -61 -227 -18 -22 -180 -84 -217 -84 -21 0 -73 13 -116 28 l-80 27 -38 75
c-53 103 -58 159 -23 268 24 76 30 86 70 111 24 15 70 36 102 46 72 23 151 12
250 -34 66 -31 94 -34 57 -6 -10 8 -47 29 -82 47 -55 29 -62 36 -58 58 3 14 8
53 11 88 6 51 4 62 -8 62 -15 0 -27 -58 -27 -132 0 -23 -4 -37 -10 -33 -5 3
-33 6 -60 7 l-50 0 6 66 c3 37 7 73 10 80 2 7 -5 12 -16 12 -18 0 -20 -7 -20
-84z"/>
</g>
</svg>
