<?xml version="1.0" standalone="no"?>
<!DOCTYPE svg PUBLIC "-//W3C//DTD SVG 20010904//EN"
 "http://www.w3.org/TR/2001/REC-SVG-20010904/DTD/svg10.dtd">
<svg version="1.0" xmlns="http://www.w3.org/2000/svg"
 width="122.000000pt" height="119.000000pt" viewBox="0 0 122.000000 119.000000"
 preserveAspectRatio="xMidYMid meet">
<metadata>
Created by potrace 1.16, written by Peter Selinger 2001-2019
</metadata>
<g transform="translate(0.000000,119.000000) scale(0.100000,-0.100000)"
fill="#000000" stroke="none">
<path d="M321 883 l-23 -5 6 -216 c9 -301 14 -349 34 -349 10 0 41 18 71 40
32 23 56 36 59 29 2 -6 13 -26 26 -44 19 -29 28 -33 70 -36 42 -3 53 1 79 25
36 34 68 104 92 198 9 39 19 73 22 77 2 4 30 -5 61 -21 69 -34 102 -45 102
-34 0 5 -29 24 -64 43 l-64 34 54 60 c30 33 52 61 50 64 -8 7 -60 -34 -100
-78 -30 -34 -443 -320 -461 -320 -3 0 -5 115 -5 255 l0 256 68 -37 c88 -49
268 -151 310 -176 63 -38 31 2 -40 50 -76 51 -315 193 -320 191 -2 -1 -14 -4
-27 -6z m379 -385 c-40 -111 -76 -162 -117 -166 -42 -4 -69 11 -81 47 -11 30
-10 31 106 115 64 48 118 86 119 86 2 0 -11 -37 -27 -82z"/>
</g>
</svg>
