<?xml version="1.0" standalone="no"?>
<!DOCTYPE svg PUBLIC "-//W3C//DTD SVG 20010904//EN"
 "http://www.w3.org/TR/2001/REC-SVG-20010904/DTD/svg10.dtd">
<svg version="1.0" xmlns="http://www.w3.org/2000/svg"
 width="159.000000pt" height="136.000000pt" viewBox="0 0 159.000000 136.000000"
 preserveAspectRatio="xMidYMid meet">
<metadata>
Created by potrace 1.16, written by Peter Selinger 2001-2019
</metadata>
<g transform="translate(0.000000,136.000000) scale(0.100000,-0.100000)"
fill="#000000" stroke="none">
<path d="M880 1027 c-36 -18 -64 -39 -62 -45 1 -7 -2 -12 -8 -12 -5 0 -10 4
-10 10 0 11 -137 4 -214 -11 -64 -12 -122 -56 -185 -139 -97 -127 -121 -228
-82 -340 37 -105 136 -190 220 -190 51 0 116 28 151 65 29 31 38 111 16 139
-20 24 -132 34 -159 14 -25 -19 -38 -142 -15 -133 11 4 16 21 16 53 2 55 18
72 72 72 51 0 82 -34 78 -86 -3 -36 -7 -41 -57 -66 -96 -49 -167 -33 -245 53
-47 53 -66 105 -66 187 0 48 12 77 86 214 19 34 85 91 133 114 25 13 68 19
139 22 l104 4 36 -35 c21 -19 52 -42 69 -51 32 -16 34 -16 90 13 139 72 145
96 8 32 l-84 -39 -41 38 c-23 22 -40 45 -38 51 2 7 26 26 52 42 l47 29 70 -32
c89 -41 111 -34 33 10 -32 19 -60 37 -62 42 -6 14 -25 9 -92 -25z"/>
<path d="M1120 975 c0 -17 17 -18 109 -9 89 10 75 24 -24 24 -69 0 -85 -3 -85
-15z"/>
</g>
</svg>
