<?xml version="1.0" standalone="no"?>
<!DOCTYPE svg PUBLIC "-//W3C//DTD SVG 20010904//EN"
 "http://www.w3.org/TR/2001/REC-SVG-20010904/DTD/svg10.dtd">
<svg version="1.0" xmlns="http://www.w3.org/2000/svg"
 width="135.000000pt" height="121.000000pt" viewBox="0 0 135.000000 121.000000"
 preserveAspectRatio="xMidYMid meet">
<metadata>
Created by potrace 1.16, written by Peter Selinger 2001-2019
</metadata>
<g transform="translate(0.000000,121.000000) scale(0.100000,-0.100000)"
fill="#000000" stroke="none">
<path d="M306 903 c-10 -10 -6 -567 4 -583 8 -12 10 -9 10 11 0 21 19 41 103
105 56 43 130 102 163 131 l62 52 7 -160 7 -159 58 0 c63 0 70 6 70 61 l0 29
130 0 c80 0 130 4 130 10 0 6 -50 10 -130 10 l-130 0 0 34 0 34 133 8 c150 9
135 21 -30 23 l-103 1 0 30 0 30 73 1 c39 1 99 4 132 8 l60 6 -85 8 c-47 4
-106 7 -132 7 -47 0 -48 1 -48 30 l0 30 130 0 c80 0 130 4 130 10 0 6 -50 10
-130 10 l-130 0 0 35 0 35 130 0 c80 0 130 4 130 10 0 6 -50 10 -130 10 l-130
0 0 25 c0 24 2 25 73 26 93 1 207 15 157 19 -19 1 -39 3 -45 5 -5 1 -49 3 -97
3 -87 2 -88 2 -88 27 0 24 -2 25 -70 25 l-70 0 0 -126 0 -127 -30 24 c-77 63
-286 226 -296 232 -6 3 -14 3 -18 0z m454 -100 c0 -43 3 -171 7 -284 l6 -207
-49 5 c-27 3 -49 6 -50 7 0 0 2 126 4 279 l4 277 39 0 39 0 0 -77z m-263 -64
l143 -107 -156 -117 c-86 -64 -158 -115 -160 -112 -2 2 -1 106 2 230 5 159 10
224 18 220 6 -4 75 -55 153 -114z"/>
</g>
</svg>
