<?xml version="1.0" standalone="no"?>
<!DOCTYPE svg PUBLIC "-//W3C//DTD SVG 20010904//EN"
 "http://www.w3.org/TR/2001/REC-SVG-20010904/DTD/svg10.dtd">
<svg version="1.0" xmlns="http://www.w3.org/2000/svg"
 width="160.000000pt" height="139.000000pt" viewBox="0 0 160.000000 139.000000"
 preserveAspectRatio="xMidYMid meet">
<metadata>
Created by potrace 1.16, written by Peter Selinger 2001-2019
</metadata>
<g transform="translate(0.000000,139.000000) scale(0.100000,-0.100000)"
fill="#000000" stroke="none">
<path d="M850 1083 c1 -26 30 -33 210 -54 107 -12 197 -23 199 -25 4 -4 21
-357 17 -360 0 -1 -84 -12 -186 -24 -102 -13 -186 -23 -186 -24 -1 -1 -5 -12
-9 -25 -7 -23 -6 -23 36 -17 24 4 113 22 198 41 85 19 158 32 163 29 5 -3 7
83 6 191 l-3 195 -37 10 c-21 6 -55 14 -77 20 -42 11 -286 50 -313 50 -10 0
-18 -3 -18 -7z"/>
<path d="M1120 866 c-30 -7 -70 -20 -87 -29 -21 -11 -42 -15 -58 -11 -40 10
-177 -6 -172 -19 3 -8 33 -11 102 -8 53 2 100 -1 104 -6 3 -5 35 -14 71 -21
36 -6 79 -14 95 -17 29 -6 29 -6 10 10 -11 8 -38 20 -60 26 -73 20 -72 20 -45
33 14 8 48 19 77 26 29 8 50 17 47 22 -6 10 -15 9 -84 -6z"/>
<path d="M755 789 c-3 -8 -15 -45 -28 -84 l-23 -70 -85 -44 c-96 -51 -93 -67
4 -23 35 16 70 26 76 22 7 -4 -5 -14 -32 -24 -25 -9 -103 -65 -177 -126 -73
-61 -136 -110 -140 -110 -4 0 -11 7 -14 16 -4 11 8 29 36 55 24 21 46 38 50
39 4 0 23 20 43 44 32 40 41 65 44 132 1 6 35 37 75 70 41 32 75 62 75 67 2
21 -41 1 -99 -46 -61 -49 -66 -56 -76 -110 -7 -32 -20 -68 -30 -80 -47 -57
-130 -137 -141 -137 -7 0 -13 -2 -13 -5 0 -6 30 -67 35 -73 2 -2 66 43 142
101 141 106 187 134 256 156 38 13 42 31 6 31 -22 0 -26 15 -5 23 8 3 12 15 9
29 -3 13 3 52 12 87 9 35 14 66 11 69 -3 2 -8 -1 -11 -9z"/>
<path d="M671 696 c-7 -8 -44 -36 -83 -63 -82 -56 -75 -71 9 -19 89 55 110 73
97 86 -8 8 -14 7 -23 -4z"/>
</g>
</svg>
