<?xml version="1.0" standalone="no"?>
<!DOCTYPE svg PUBLIC "-//W3C//DTD SVG 20010904//EN"
 "http://www.w3.org/TR/2001/REC-SVG-20010904/DTD/svg10.dtd">
<svg version="1.0" xmlns="http://www.w3.org/2000/svg"
 width="227.000000pt" height="152.000000pt" viewBox="0 0 227.000000 152.000000"
 preserveAspectRatio="xMidYMid meet">
<metadata>
Created by potrace 1.16, written by Peter Selinger 2001-2019
</metadata>
<g transform="translate(0.000000,152.000000) scale(0.100000,-0.100000)"
fill="#000000" stroke="none">
<path d="M1194 1101 c-89 -97 -114 -119 -137 -120 l-29 -1 44 48 c64 72 132
162 126 168 -3 3 -57 -49 -119 -116 -94 -99 -180 -170 -207 -170 -2 0 13 19
34 43 75 81 166 198 160 204 -3 4 -25 -13 -49 -38 -177 -187 -198 -211 -193
-227 3 -12 -14 -32 -55 -65 l-60 -49 -205 7 -204 8 0 -23 0 -23 210 6 c178 5
210 3 210 -9 0 -8 25 -33 55 -57 39 -30 53 -47 49 -59 -5 -16 13 -37 193 -227
24 -25 46 -42 49 -38 6 6 -85 123 -160 205 -21 23 -35 42 -30 42 27 -1 97 -60
200 -169 64 -67 119 -119 122 -117 6 6 -62 96 -126 168 -42 46 -43 48 -19 48
25 0 30 -5 204 -190 90 -96 69 -45 -31 74 -88 106 -94 115 -74 122 19 6 40
-13 144 -122 67 -71 125 -126 129 -122 7 7 -30 54 -148 190 -58 67 -59 68 -35
77 21 9 35 -2 149 -122 70 -73 129 -129 133 -126 6 6 -121 167 -183 232 -29
31 -33 39 -21 47 11 7 45 -23 143 -126 71 -74 132 -132 135 -130 4 5 -89 123
-189 238 -35 41 -39 49 -23 55 13 5 46 -24 139 -123 68 -71 126 -126 129 -123
7 7 -53 84 -153 198 l-65 73 35 29 c18 16 37 29 42 29 4 0 7 5 7 11 0 5 -19
-2 -42 -16 -148 -90 -314 -149 -383 -135 -5 1 -26 2 -45 1 -21 -1 -61 12 -100
32 l-65 32 -5 112 c-5 108 -4 112 17 122 28 13 30 7 39 -132 3 -59 10 -110 15
-113 5 -3 9 55 9 130 0 102 -3 136 -12 136 -7 1 5 10 27 20 22 11 56 20 75 19
19 -1 40 0 45 1 36 8 163 -19 145 -30 -9 -6 -11 -34 -5 -114 11 -169 23 -180
24 -23 l1 138 23 -7 c46 -14 47 -17 52 -123 3 -57 9 -108 13 -115 4 -6 9 37
12 97 l5 107 78 -45 c42 -25 77 -52 77 -60 0 -12 21 -15 118 -15 154 0 332 11
332 20 0 4 -98 11 -217 14 -222 7 -238 10 -288 51 l-29 22 65 74 c100 114 160
191 153 198 -3 3 -61 -52 -129 -123 -93 -99 -126 -128 -139 -123 -16 6 -12 14
23 55 100 115 193 233 189 238 -3 2 -64 -56 -135 -130 -98 -103 -132 -133
-143 -126 -12 8 -8 16 21 47 62 65 189 226 183 232 -4 3 -63 -53 -133 -126
-114 -120 -128 -131 -149 -122 -24 9 -23 10 35 77 118 136 155 183 148 190 -4
4 -62 -51 -129 -122 -104 -109 -125 -128 -144 -122 -20 7 -14 16 73 120 52 63
95 116 95 120 0 19 -29 -6 -126 -113z m-340 -342 c4 -44 6 -83 3 -85 -6 -6
-107 74 -107 85 0 10 80 80 91 81 4 0 10 -36 13 -81z"/>
<path d="M1044 833 c10 -133 18 -183 27 -183 5 0 7 10 5 23 -3 12 -5 73 -5
135 -1 97 -3 112 -17 112 -15 0 -16 -10 -10 -87z"/>
<path d="M1133 888 c3 -18 9 -79 13 -135 4 -57 10 -103 15 -103 10 0 12 176 3
233 -4 23 -12 37 -21 37 -12 0 -14 -8 -10 -32z"/>
</g>
</svg>
