<?xml version="1.0" standalone="no"?>
<!DOCTYPE svg PUBLIC "-//W3C//DTD SVG 20010904//EN"
 "http://www.w3.org/TR/2001/REC-SVG-20010904/DTD/svg10.dtd">
<svg version="1.0" xmlns="http://www.w3.org/2000/svg"
 width="90.000000pt" height="281.000000pt" viewBox="0 0 90.000000 281.000000"
 preserveAspectRatio="xMidYMid meet">
<metadata>
Created by potrace 1.16, written by Peter Selinger 2001-2019
</metadata>
<g transform="translate(0.000000,281.000000) scale(0.100000,-0.100000)"
fill="#000000" stroke="none">
<path d="M338 2503 c-22 -5 -21 -2 -3 -88 26 -123 16 -333 -20 -401 -8 -16
-15 -51 -15 -79 0 -46 70 -349 84 -363 8 -7 197 -3 211 6 17 11 -36 20 -122
21 -89 1 -85 -2 -99 74 l-6 37 80 0 c44 0 87 3 96 6 11 4 18 -5 26 -38 6 -23
15 -52 20 -63 9 -20 9 -20 9 1 1 11 -8 67 -18 125 -34 185 -34 191 -6 305 21
87 25 129 24 237 -1 154 -13 208 -49 218 -28 8 -185 9 -212 2z m211 -67 c17
-70 20 -68 -76 -61 -48 3 -88 7 -89 8 -1 1 -5 23 -9 50 l-7 47 85 0 85 0 11
-44z m21 -151 l0 -65 -59 0 c-32 0 -73 3 -90 6 -30 6 -31 8 -31 60 l0 53 63 4
c34 2 74 4 90 5 27 2 27 2 27 -63z m-5 -132 c-13 -95 -14 -96 -54 -89 -20 3
-61 6 -92 6 l-56 0 11 58 12 57 69 6 c39 3 81 6 94 7 22 2 23 0 16 -45z m-24
-122 c-10 -6 -16 -33 -19 -75 l-4 -66 -89 0 -89 0 0 48 c0 71 8 90 39 94 65 9
175 8 162 -1z m2 -239 l15 -64 -21 6 c-12 3 -56 6 -99 6 l-76 0 -7 53 c-4 28
-7 54 -6 57 1 7 164 16 172 10 3 -3 13 -34 22 -68z"/>
<path d="M320 1197 c0 -1 7 -34 15 -72 26 -126 16 -332 -20 -402 -23 -44 -18
-112 22 -271 20 -81 38 -149 40 -151 12 -15 9 21 -11 132 -12 70 -20 129 -17
131 3 2 44 4 91 5 l86 2 28 -118 c50 -207 60 -191 21 34 -26 151 -25 178 10
313 13 52 16 96 13 215 -5 162 -10 185 -39 185 -22 0 -23 -5 -4 -90 8 -36 14
-82 15 -103 l0 -38 -87 4 -88 5 -7 72 c-11 107 -25 150 -48 150 -11 0 -20 -1
-20 -3z m250 -282 l0 -35 -93 0 -94 0 5 30 c4 28 6 29 71 33 36 2 76 4 89 5
19 2 22 -3 22 -33z m-10 -92 c0 -50 -8 -54 -107 -47 -97 7 -94 5 -77 62 2 8
30 12 94 12 l90 0 0 -27z m-17 -80 c-7 -2 -15 -19 -18 -37 l-7 -32 -86 4 c-48
2 -88 5 -89 6 -1 0 1 13 4 28 5 25 9 27 62 31 91 5 147 6 134 0z m-23 -124 c0
-24 -3 -30 -16 -25 -9 3 -49 6 -90 6 -67 0 -74 2 -74 19 0 20 11 23 143 29 35
2 37 0 37 -29z"/>
</g>
</svg>
