<?xml version="1.0" standalone="no"?>
<!DOCTYPE svg PUBLIC "-//W3C//DTD SVG 20010904//EN"
 "http://www.w3.org/TR/2001/REC-SVG-20010904/DTD/svg10.dtd">
<svg version="1.0" xmlns="http://www.w3.org/2000/svg"
 width="231.000000pt" height="142.000000pt" viewBox="0 0 231.000000 142.000000"
 preserveAspectRatio="xMidYMid meet">
<metadata>
Created by potrace 1.16, written by Peter Selinger 2001-2019
</metadata>
<g transform="translate(0.000000,142.000000) scale(0.100000,-0.100000)"
fill="#000000" stroke="none">
<path d="M532 1108 c-8 -8 5 -29 55 -85 l66 -74 -39 5 c-21 3 -101 8 -176 11
-130 5 -138 4 -138 -13 0 -17 11 -20 98 -25 53 -4 139 -7 191 -7 l94 0 166
-168 c223 -226 322 -319 354 -331 15 -6 57 -14 94 -17 61 -7 74 -12 129 -56
34 -26 65 -48 70 -48 5 0 -13 22 -39 48 l-48 49 130 -5 c72 -3 131 -2 131 1 0
3 -37 25 -82 49 -79 41 -167 112 -156 124 4 3 77 -2 164 -10 87 -9 171 -16
188 -16 27 1 28 2 13 11 -18 11 -496 208 -592 245 l-50 19 355 6 c195 4 388 7
428 8 39 0 72 5 72 10 0 5 -217 11 -482 14 -444 4 -487 6 -530 24 -55 22 -74
37 -38 29 14 -3 230 -10 480 -16 250 -6 481 -12 513 -14 31 -2 57 0 57 5 0 5
-4 9 -9 9 -5 0 -229 11 -497 24 -269 14 -559 28 -645 32 l-155 6 -75 83 c-41
46 -76 84 -79 84 -4 1 -11 -4 -18 -11z m312 -207 c3 -5 36 -19 72 -32 37 -13
69 -29 71 -36 3 -7 16 -13 28 -13 13 0 167 -54 343 -120 176 -66 326 -120 333
-120 7 0 10 -3 7 -6 -3 -3 -72 4 -153 16 -81 12 -149 19 -152 16 -3 -2 0 -20
7 -40 14 -44 67 -91 144 -127 59 -28 60 -29 26 -28 -19 0 -72 4 -118 8 -71 7
-87 12 -112 36 -33 32 -62 25 -33 -7 18 -21 18 -21 -22 -14 -105 19 -109 22
-289 210 -95 100 -190 200 -211 224 l-37 42 45 0 c25 0 48 -4 51 -9z"/>
</g>
</svg>
