<?xml version="1.0" standalone="no"?>
<!DOCTYPE svg PUBLIC "-//W3C//DTD SVG 20010904//EN"
 "http://www.w3.org/TR/2001/REC-SVG-20010904/DTD/svg10.dtd">
<svg version="1.0" xmlns="http://www.w3.org/2000/svg"
 width="181.000000pt" height="159.000000pt" viewBox="0 0 181.000000 159.000000"
 preserveAspectRatio="xMidYMid meet">
<metadata>
Created by potrace 1.16, written by Peter Selinger 2001-2019
</metadata>
<g transform="translate(0.000000,159.000000) scale(0.100000,-0.100000)"
fill="#000000" stroke="none">
<path d="M847 1185 l6 -104 -129 -3 -129 -3 -3 -134 -3 -134 -144 5 c-140 5
-145 4 -145 -15 0 -19 5 -20 145 -15 l145 5 2 -61 c2 -34 3 -88 3 -121 l0 -60
121 -3 121 -3 7 -37 c3 -20 6 -72 6 -114 0 -42 4 -79 9 -82 12 -8 21 55 21
157 l0 87 105 2 c58 1 122 2 143 3 35 0 37 2 44 40 3 22 7 133 7 246 1 188 -1
208 -16 215 -10 5 -78 11 -152 14 l-134 5 2 108 c2 101 1 107 -18 107 -19 0
-20 -5 -14 -105z m305 -355 c1 -121 2 -228 2 -237 1 -16 -15 -17 -179 -15 -99
1 -219 5 -267 8 l-88 7 0 218 0 219 68 1 c57 1 293 11 425 17 l37 2 2 -220z"/>
<path d="M1210 797 c0 -19 5 -20 145 -15 130 5 167 10 154 22 -2 2 -70 6 -151
8 -143 5 -148 4 -148 -15z"/>
</g>
</svg>
