<?xml version="1.0" standalone="no"?>
<!DOCTYPE svg PUBLIC "-//W3C//DTD SVG 20010904//EN"
 "http://www.w3.org/TR/2001/REC-SVG-20010904/DTD/svg10.dtd">
<svg version="1.0" xmlns="http://www.w3.org/2000/svg"
 width="119.000000pt" height="131.000000pt" viewBox="0 0 119.000000 131.000000"
 preserveAspectRatio="xMidYMid meet">
<metadata>
Created by potrace 1.16, written by Peter Selinger 2001-2019
</metadata>
<g transform="translate(0.000000,131.000000) scale(0.100000,-0.100000)"
fill="#000000" stroke="none">
<path d="M584 848 l-280 -161 1 -40 1 -40 268 -154 c147 -85 273 -152 279
-150 12 4 -206 152 -385 261 -71 43 -128 81 -128 84 0 4 53 39 118 77 64 39
175 109 247 158 71 48 133 87 137 87 3 0 4 -17 2 -37 -7 -49 16 -577 26 -612
12 -43 22 200 18 453 -2 141 -7 231 -13 232 -5 2 -136 -69 -291 -158z"/>
</g>
</svg>
