<?xml version="1.0" standalone="no"?>
<!DOCTYPE svg PUBLIC "-//W3C//DTD SVG 20010904//EN"
 "http://www.w3.org/TR/2001/REC-SVG-20010904/DTD/svg10.dtd">
<svg version="1.0" xmlns="http://www.w3.org/2000/svg"
 width="206.000000pt" height="113.000000pt" viewBox="0 0 206.000000 113.000000"
 preserveAspectRatio="xMidYMid meet">
<metadata>
Created by potrace 1.16, written by Peter Selinger 2001-2019
</metadata>
<g transform="translate(0.000000,113.000000) scale(0.100000,-0.100000)"
fill="#000000" stroke="none">
<path d="M1589 711 l-114 -118 -147 4 -148 5 0 100 c0 81 -3 99 -14 96 -8 -2
-63 -48 -123 -104 l-108 -100 -150 5 -150 6 -100 76 c-176 133 -194 144 -213
132 -15 -9 -17 -33 -15 -228 1 -167 4 -221 15 -230 11 -11 28 -2 98 48 48 34
116 85 152 114 l66 52 141 2 141 1 105 -98 c128 -119 143 -130 150 -112 3 7 6
56 7 108 l3 95 140 5 140 5 90 -85 c50 -46 114 -107 142 -134 29 -27 56 -46
60 -42 4 4 -29 42 -73 84 -45 42 -103 101 -129 130 l-48 53 40 42 c59 63 167
197 161 202 -2 2 -56 -49 -119 -114z m-1208 38 c38 -27 37 -39 -6 -39 -32 0
-35 2 -35 30 0 36 3 36 41 9z m773 -184 l6 -190 -93 100 -94 100 86 92 c47 51
86 91 87 90 1 -1 4 -87 8 -192z m-531 15 c-4 -4 -47 -32 -95 -63 l-88 -57 0
125 0 124 96 -61 c52 -33 91 -64 87 -68z m-213 25 l0 -75 -35 0 -35 0 0 75 0
75 35 0 35 0 0 -75z m10 -133 c0 -21 -10 -33 -43 -54 -23 -15 -44 -23 -46 -17
-1 6 0 30 3 54 7 40 10 44 39 47 42 5 47 2 47 -30z"/>
</g>
</svg>
