<?xml version="1.0" standalone="no"?>
<!DOCTYPE svg PUBLIC "-//W3C//DTD SVG 20010904//EN"
 "http://www.w3.org/TR/2001/REC-SVG-20010904/DTD/svg10.dtd">
<svg version="1.0" xmlns="http://www.w3.org/2000/svg"
 width="189.000000pt" height="100.000000pt" viewBox="0 0 189.000000 100.000000"
 preserveAspectRatio="xMidYMid meet">
<metadata>
Created by potrace 1.16, written by Peter Selinger 2001-2019
</metadata>
<g transform="translate(0.000000,100.000000) scale(0.100000,-0.100000)"
fill="#000000" stroke="none">
<path d="M1320 677 c-64 -23 -64 -23 -120 -4 -71 24 -148 18 -227 -17 -43 -20
-67 -25 -94 -21 -22 4 -64 -1 -111 -13 -41 -11 -100 -23 -131 -27 -52 -7 -65
-13 -52 -27 5 -5 101 5 152 16 l32 7 -1 -76 c0 -42 2 -78 5 -81 2 -3 8 25 12
63 9 85 20 113 43 113 17 0 18 -7 14 -85 -6 -110 13 -114 22 -5 4 44 11 82 16
85 5 3 21 3 35 -1 24 -6 25 -9 25 -87 0 -44 2 -78 4 -76 3 3 10 46 17 96 13
104 14 105 122 119 44 6 50 5 41 -7 -12 -14 -24 -239 -13 -239 6 0 35 228 31
244 -2 5 4 6 13 2 9 -3 22 -6 29 -6 9 0 10 -20 4 -82 -10 -91 -4 -163 13 -184
15 -19 -1 -18 -256 10 -168 18 -213 20 -225 11 -8 -7 -40 -26 -70 -41 -48 -25
-66 -29 -140 -29 -106 0 -160 22 -175 73 -5 17 -13 32 -17 32 -5 0 -4 6 2 13
6 6 20 26 30 44 43 72 151 123 264 123 56 1 59 2 42 15 -42 32 -162 10 -247
-44 -128 -81 -146 -221 -36 -272 90 -41 279 -16 335 44 l21 23 253 -22 c139
-12 309 -26 378 -30 69 -3 134 -10 145 -14 25 -9 87 -1 79 11 -3 5 -13 9 -23
9 -16 0 -16 9 -4 138 6 75 13 155 15 177 l3 40 -95 2 c-77 2 -107 -1 -160 -20z
m215 -149 c-9 -197 -7 -192 -58 -184 -48 8 -53 14 -68 84 -8 42 -8 73 3 139 8
46 11 86 8 88 -18 11 -28 -21 -34 -110 -6 -79 -4 -109 8 -144 9 -24 16 -45 16
-47 0 -2 -14 -4 -31 -4 -47 0 -64 49 -54 165 4 50 8 100 9 112 1 19 11 25 61
37 33 8 80 15 103 15 l44 1 -7 -152z m-292 -1 c-4 -80 -2 -120 6 -136 15 -27
7 -39 -14 -21 -29 24 -38 87 -25 174 12 85 16 96 30 96 4 0 6 -51 3 -113z m62
-9 c0 -68 4 -131 9 -140 6 -14 4 -18 -12 -18 -31 0 -46 58 -39 150 6 78 20
130 35 130 4 0 8 -55 7 -122z"/>
<path d="M1476 648 c-3 -7 -7 -68 -10 -135 -5 -133 7 -169 17 -50 4 39 10 100
13 135 5 44 4 62 -5 62 -6 0 -13 -6 -15 -12z"/>
<path d="M646 553 c-3 -3 -6 -20 -6 -37 0 -71 -6 -76 -81 -76 -74 0 -78 4 -54
49 16 32 48 44 94 35 24 -5 31 -3 31 10 0 13 -11 16 -55 16 -47 0 -60 -4 -79
-25 -24 -26 -38 -86 -25 -106 5 -8 33 -9 92 -4 l86 7 6 46 c4 26 9 54 11 64 5
17 -9 32 -20 21z"/>
</g>
</svg>
