<?xml version="1.0" standalone="no"?>
<!DOCTYPE svg PUBLIC "-//W3C//DTD SVG 20010904//EN"
 "http://www.w3.org/TR/2001/REC-SVG-20010904/DTD/svg10.dtd">
<svg version="1.0" xmlns="http://www.w3.org/2000/svg"
 width="161.000000pt" height="134.000000pt" viewBox="0 0 161.000000 134.000000"
 preserveAspectRatio="xMidYMid meet">
<metadata>
Created by potrace 1.16, written by Peter Selinger 2001-2019
</metadata>
<g transform="translate(0.000000,134.000000) scale(0.100000,-0.100000)"
fill="#000000" stroke="none">
<path d="M804 1021 c-27 -22 -56 -78 -80 -153 l-18 -58 -203 7 -203 6 0 -23 0
-23 200 6 200 7 0 -55 0 -54 -200 6 -200 6 0 -23 0 -23 202 4 201 4 13 -64
c19 -94 84 -282 99 -287 7 -3 66 34 131 82 317 233 364 269 364 276 0 9 -44
-12 -101 -48 -55 -34 -108 -15 -57 20 12 9 18 16 12 16 -16 0 -11 44 6 52 12
5 10 8 -7 13 -12 4 -24 13 -27 21 -10 25 34 15 95 -22 33 -19 64 -34 71 -32 9
3 -445 345 -471 355 -4 1 -16 -6 -27 -16z m18 -125 c-31 -30 -58 -53 -60 -51
-2 2 10 35 28 74 l33 70 27 -19 28 -20 -56 -54z m237 -75 c41 -28 67 -51 57
-51 -9 0 -27 7 -40 15 -25 16 -104 34 -124 27 -9 -3 -12 -41 -12 -139 l0 -136
49 6 c28 3 63 13 80 21 16 9 42 16 57 16 26 0 24 -3 -22 -31 -27 -17 -102 -70
-166 -116 -65 -46 -122 -82 -127 -79 -5 3 -11 17 -13 30 -4 19 5 35 44 72 l48
48 0 -42 c0 -23 5 -42 10 -42 6 0 10 90 10 250 0 216 -2 250 -15 250 -11 0
-15 -12 -15 -48 0 -46 -2 -50 -60 -100 -33 -29 -60 -60 -60 -68 0 -23 12 -17
67 38 l53 52 0 -42 c0 -23 -4 -42 -8 -42 -4 0 -33 -22 -64 -50 l-56 -49 -6 31
c-14 73 -4 168 19 168 7 0 38 29 70 65 l57 65 46 -34 c26 -19 80 -57 121 -85z
m-9 -42 c10 -6 5 -7 -15 -3 -16 4 -34 11 -40 16 -11 12 31 1 55 -13z m70 -44
c10 -12 9 -15 -8 -15 -11 0 -34 3 -53 7 -28 5 -30 7 -14 14 32 12 62 10 75 -6z
m20 -57 c0 -22 -4 -23 -55 -20 -38 3 -55 8 -55 17 0 14 23 21 78 24 27 1 32
-3 32 -21z m-312 -106 c-29 -28 -56 -48 -60 -46 -22 14 -3 53 50 107 l57 58 3
-34 c3 -30 -3 -41 -50 -85z m292 48 c-11 -21 -48 -26 -85 -10 -24 10 -9 17 45
23 19 2 39 5 43 5 4 1 3 -7 -3 -18z m-281 -130 c-48 -43 -55 -46 -59 -28 -4
14 9 35 45 72 49 50 50 50 59 28 7 -20 1 -30 -45 -72z m188 74 c-3 -3 -12 -4
-19 -1 -8 3 -5 6 6 6 11 1 17 -2 13 -5z"/>
<path d="M300 500 l0 -23 206 6 c189 6 225 9 213 21 -2 2 -97 8 -211 12 l-208
7 0 -23z"/>
</g>
</svg>
