<?xml version="1.0" standalone="no"?>
<!DOCTYPE svg PUBLIC "-//W3C//DTD SVG 20010904//EN"
 "http://www.w3.org/TR/2001/REC-SVG-20010904/DTD/svg10.dtd">
<svg version="1.0" xmlns="http://www.w3.org/2000/svg"
 width="230.000000pt" height="123.000000pt" viewBox="0 0 230.000000 123.000000"
 preserveAspectRatio="xMidYMid meet">
<metadata>
Created by potrace 1.16, written by Peter Selinger 2001-2019
</metadata>
<g transform="translate(0.000000,123.000000) scale(0.100000,-0.100000)"
fill="#000000" stroke="none">
<path d="M351 916 c-10 -12 1 -21 61 -52 57 -30 98 -63 186 -153 63 -63 118
-124 124 -134 10 -19 7 -19 -58 -13 -38 4 -88 16 -111 27 -60 29 -152 132
-201 227 -24 45 -46 82 -49 82 -3 0 -3 -20 -1 -45 7 -56 75 -173 136 -232 88
-86 137 -98 445 -109 l197 -7 -42 -36 c-24 -19 -69 -60 -101 -90 -52 -49 -56
-56 -42 -70 14 -14 26 -5 123 92 l108 108 164 -3 c120 -2 164 -6 168 -15 2 -9
-9 -13 -37 -13 -30 0 -41 -4 -41 -15 0 -11 11 -15 41 -15 36 0 40 -2 37 -22
-2 -14 -11 -24 -23 -25 -115 -11 -135 -15 -135 -29 0 -18 12 -18 160 7 69 11
139 22 155 24 25 2 30 7 33 31 7 75 -8 69 182 66 113 -2 170 1 170 8 0 6 -44
10 -124 10 -68 0 -144 3 -170 6 l-46 7 0 43 c0 32 -4 44 -15 44 -11 0 -15 -12
-15 -45 l0 -45 -71 0 -71 0 4 48 c2 37 0 47 -12 47 -11 0 -16 -13 -18 -49 l-3
-48 -102 6 c-56 3 -125 6 -154 6 -46 0 -52 2 -46 17 6 17 5 17 -14 0 -11 -9
-35 -17 -54 -17 -31 0 -48 14 -164 130 -99 99 -132 127 -142 118 -7 -6 -13
-14 -13 -18 0 -8 127 -125 215 -198 22 -19 35 -31 29 -28 -5 2 -57 6 -114 7
-56 1 -111 4 -120 6 -10 3 -47 44 -83 92 -78 104 -184 206 -259 249 -63 36
-71 38 -87 18z m1279 -457 c0 -36 -2 -39 -29 -39 -15 0 -49 -3 -75 -6 -45 -7
-46 -6 -46 20 0 16 5 26 15 26 8 0 15 5 15 10 0 6 -4 10 -10 10 -5 0 -10 6
-10 13 0 9 19 11 70 9 l70 -4 0 -39z"/>
<path d="M1620 685 c0 -12 15 -15 73 -15 39 0 89 3 110 7 65 10 20 23 -85 23
-81 0 -98 -3 -98 -15z"/>
<path d="M1305 682 c-21 -21 5 -30 123 -41 70 -6 142 -14 160 -17 18 -4 32 -2
32 3 0 6 -33 16 -72 22 -152 26 -238 38 -243 33z"/>
<path d="M1620 355 c0 -17 70 -20 168 -9 89 11 58 24 -58 24 -91 0 -110 -3
-110 -15z"/>
</g>
</svg>
