<?xml version="1.0" standalone="no"?>
<!DOCTYPE svg PUBLIC "-//W3C//DTD SVG 20010904//EN"
 "http://www.w3.org/TR/2001/REC-SVG-20010904/DTD/svg10.dtd">
<svg version="1.0" xmlns="http://www.w3.org/2000/svg"
 width="223.000000pt" height="160.000000pt" viewBox="0 0 223.000000 160.000000"
 preserveAspectRatio="xMidYMid meet">
<metadata>
Created by potrace 1.16, written by Peter Selinger 2001-2019
</metadata>
<g transform="translate(0.000000,160.000000) scale(0.100000,-0.100000)"
fill="#000000" stroke="none">
<path d="M1397 1293 c-4 -3 -7 -29 -7 -57 l0 -52 -66 -49 c-153 -115 -258
-266 -258 -370 0 -101 81 -190 257 -281 l87 -45 0 -69 0 -70 65 0 65 0 0 63
c0 34 3 98 6 143 l7 81 118 6 c65 4 150 10 189 13 l70 7 0 67 0 67 -52 7 c-29
3 -105 9 -168 12 -168 8 -160 5 -160 67 l0 53 173 12 c94 7 180 12 190 12 15
0 17 10 17 73 0 39 -5 79 -10 87 -8 13 -10 12 -10 -4 0 -14 -5 -17 -22 -13
-13 3 -70 9 -128 12 -58 3 -129 8 -157 11 l-53 5 0 110 0 109 -73 0 c-41 0
-77 -3 -80 -7z m117 -470 c3 -252 9 -468 12 -480 6 -22 3 -23 -46 -23 l-53 0
6 293 c4 160 7 374 7 474 l0 182 28 4 c15 2 30 5 33 6 3 0 9 -205 13 -456z
m-115 266 c1 -8 -19 -30 -44 -48 -44 -31 -47 -32 -70 -17 -28 18 -44 4 -24
-20 11 -14 8 -20 -21 -44 -19 -16 -44 -28 -55 -27 -12 1 -20 -4 -20 -13 0 -8
-8 -22 -17 -30 -11 -9 -15 -20 -10 -28 7 -10 14 -9 33 7 23 19 24 19 51 -1 34
-24 34 -28 2 -51 -24 -18 -26 -18 -51 -2 -18 12 -28 14 -36 6 -8 -8 -5 -15 11
-27 12 -8 20 -20 17 -25 -10 -16 5 -31 19 -20 9 8 24 2 55 -22 38 -29 40 -33
24 -44 -13 -10 -14 -16 -5 -25 9 -9 16 -9 28 4 15 15 20 14 65 -15 44 -30 48
-35 51 -79 2 -27 1 -48 -1 -48 -2 0 -31 24 -65 53 -126 110 -207 169 -223 163
-13 -5 -15 2 -11 46 8 99 74 195 207 301 66 52 76 57 82 41 4 -11 8 -26 8 -35z
m1 -94 c0 -30 -3 -55 -7 -55 -5 0 -21 12 -37 26 l-30 26 35 29 c19 16 35 29
37 29 1 0 2 -25 2 -55z m500 -12 l0 -48 -175 0 -175 0 0 48 0 47 175 0 175 0
0 -47z m-562 -36 l31 -24 -45 -32 -45 -32 -29 24 -29 25 37 30 c20 17 40 31
43 31 3 1 19 -9 37 -22z m62 -102 c0 -36 -4 -65 -9 -65 -5 0 -24 12 -43 27
-18 15 -35 29 -38 31 -6 4 71 72 83 72 4 0 7 -29 7 -65z m-72 -54 l43 -28 -33
-25 -33 -25 -43 32 -42 33 26 21 c15 12 29 21 33 21 3 0 25 -13 49 -29z m70
-122 l-3 -32 -34 28 -34 29 34 28 34 29 3 -25 c2 -14 2 -40 0 -57z m502 27 c0
-19 2 -41 6 -49 4 -12 -22 -14 -175 -14 l-181 0 0 49 0 48 175 0 175 0 0 -34z
m-625 -103 c71 -55 132 -107 133 -118 4 -16 -2 -15 -44 10 -111 64 -202 139
-240 199 -18 29 -18 29 1 18 11 -6 78 -55 150 -109z"/>
<path d="M571 656 c-10 -11 -1 -24 43 -66 30 -28 82 -73 116 -101 l61 -49
-245 0 -246 0 0 -27 0 -26 308 7 c376 8 533 16 526 27 -3 5 -71 9 -152 9
l-147 0 -120 120 c-66 66 -123 120 -126 120 -4 0 -12 -6 -18 -14z"/>
</g>
</svg>
