<?xml version="1.0" standalone="no"?>
<!DOCTYPE svg PUBLIC "-//W3C//DTD SVG 20010904//EN"
 "http://www.w3.org/TR/2001/REC-SVG-20010904/DTD/svg10.dtd">
<svg version="1.0" xmlns="http://www.w3.org/2000/svg"
 width="227.000000pt" height="135.000000pt" viewBox="0 0 227.000000 135.000000"
 preserveAspectRatio="xMidYMid meet">
<metadata>
Created by potrace 1.16, written by Peter Selinger 2001-2019
</metadata>
<g transform="translate(0.000000,135.000000) scale(0.100000,-0.100000)"
fill="#000000" stroke="none">
<path d="M1686 1014 c-79 -53 -155 -123 -194 -177 -35 -49 -36 -49 -81 -43
-25 3 -185 6 -356 7 l-309 2 -78 54 -78 55 -73 -46 c-41 -25 -77 -46 -81 -46
-4 0 -27 16 -51 36 -40 32 -65 38 -65 14 0 -5 18 -21 40 -37 22 -15 40 -31 40
-34 0 -4 -23 -21 -50 -39 -28 -18 -50 -36 -50 -40 0 -23 25 -17 78 19 l59 40
82 -57 c50 -35 85 -53 89 -46 4 6 35 27 70 48 l62 38 183 0 c100 -1 260 2 355
6 94 4 172 7 172 7 0 0 -7 -18 -15 -40 -24 -67 -17 -149 19 -236 6 -14 -27
-15 -351 -11 l-358 4 -77 54 -77 54 -78 -49 -77 -50 -47 40 c-38 32 -49 36
-58 25 -9 -10 -2 -21 33 -48 l44 -34 -54 -33 c-30 -18 -54 -36 -54 -41 0 -24
26 -18 78 18 l57 39 83 -55 c74 -50 84 -54 100 -40 9 8 40 28 67 45 l50 30
369 6 369 7 54 -50 c57 -52 164 -110 204 -110 20 0 21 1 7 13 -9 6 -18 21 -21
32 -4 18 -5 18 -6 -2 -1 -20 -3 -21 -26 -11 l-25 11 0 317 0 317 25 11 25 11
3 -317 2 -317 3 322 c1 225 5 322 13 325 6 2 10 11 8 20 -3 13 -13 9 -53 -18z
m-36 -360 l0 -306 -26 19 -25 19 -2 259 -1 260 -3 -252 c-2 -139 -7 -253 -11
-253 -15 0 -70 65 -94 110 -34 67 -32 192 5 273 17 37 31 55 39 51 7 -4 8 -3
4 5 -5 8 13 33 47 67 29 30 57 54 60 54 4 0 7 -138 7 -306z m-999 179 l79 -48
-68 -34 c-37 -18 -70 -38 -73 -42 -5 -9 -119 73 -121 87 0 6 91 82 100 83 2 1
39 -20 83 -46z m1 -400 l-74 -42 -59 46 c-33 25 -57 48 -55 50 2 2 27 21 55
43 l52 38 77 -46 78 -47 -74 -42z"/>
<path d="M1785 670 c0 -206 1 -291 2 -188 2 104 2 272 0 375 -1 104 -2 19 -2
-187z"/>
<path d="M1845 670 c0 -201 1 -283 2 -183 2 101 2 265 0 365 -1 101 -2 19 -2
-182z"/>
<path d="M1904 670 c0 -168 2 -236 3 -152 2 83 2 221 0 305 -1 83 -3 15 -3
-153z"/>
<path d="M1964 665 c0 -99 2 -138 3 -87 2 51 2 132 0 180 -1 48 -3 6 -3 -93z"/>
</g>
</svg>
