<?xml version="1.0" standalone="no"?>
<!DOCTYPE svg PUBLIC "-//W3C//DTD SVG 20010904//EN"
 "http://www.w3.org/TR/2001/REC-SVG-20010904/DTD/svg10.dtd">
<svg version="1.0" xmlns="http://www.w3.org/2000/svg"
 width="179.000000pt" height="213.000000pt" viewBox="0 0 179.000000 213.000000"
 preserveAspectRatio="xMidYMid meet">
<metadata>
Created by potrace 1.16, written by Peter Selinger 2001-2019
</metadata>
<g transform="translate(0.000000,213.000000) scale(0.100000,-0.100000)"
fill="#000000" stroke="none">
<path d="M586 1822 c-3 -5 -8 -28 -12 -50 -4 -23 -10 -42 -13 -42 -4 0 -22 16
-41 35 -24 25 -37 32 -46 24 -9 -8 -2 -20 32 -51 49 -45 52 -59 26 -135 l-18
-51 58 -79 c31 -43 64 -91 72 -108 13 -28 12 -31 -7 -45 -42 -31 -107 -133
-128 -202 -56 -182 21 -365 205 -491 73 -49 221 -120 303 -144 58 -17 62 -20
56 -42 -5 -20 -3 -23 11 -18 10 4 60 7 112 7 112 0 118 15 9 22 -41 3 -77 7
-80 9 -2 3 3 119 11 259 17 282 20 542 9 704 l-7 106 50 0 50 0 9 -97 c4 -54
8 -296 7 -538 0 -242 1 -424 3 -405 8 85 1 80 121 80 l108 0 3 84 c2 98 11 91
-121 101 l-88 7 7 236 c3 131 7 239 10 241 2 3 46 5 98 5 l95 1 0 73 c0 60 -3
72 -16 72 -14 0 -15 -9 -10 -63 l7 -62 -88 7 c-48 3 -89 7 -90 7 -2 1 -3 28
-3 61 l0 60 95 0 c52 0 95 4 95 9 0 10 -74 21 -146 21 l-54 0 0 55 c0 37 4 55
13 56 37 2 -56 18 -121 20 -61 2 -78 -1 -80 -12 -2 -9 -29 -22 -68 -32 -86
-23 -228 -85 -288 -125 -26 -18 -54 -32 -62 -32 -18 0 -18 14 1 120 18 104 18
100 1 100 -10 0 -17 -17 -21 -57 -13 -115 -15 -116 -69 -29 l-48 76 17 50 c9
28 19 50 22 50 3 0 25 -18 51 -40 63 -56 67 -41 5 23 l-50 52 17 57 c10 31 15
59 12 63 -8 8 -20 6 -26 -3z m528 -502 c7 -106 5 -121 -17 -186 -14 -38 -37
-96 -53 -127 l-28 -58 -35 34 c-20 18 -56 46 -79 62 -55 36 -95 94 -122 176
-12 35 -31 74 -43 87 -20 22 -20 22 -1 37 40 31 202 109 279 135 l80 28 6 -37
c4 -20 10 -88 13 -151z m-390 -41 c14 -17 26 -41 26 -53 0 -12 11 -45 25 -73
24 -48 62 -88 169 -176 25 -21 46 -45 46 -54 0 -21 -37 -63 -108 -122 -43 -36
-68 -67 -88 -108 -15 -32 -29 -60 -30 -62 -6 -8 -105 73 -144 116 -22 25 -52
71 -67 102 -24 49 -28 68 -28 146 0 79 4 97 28 147 27 55 119 168 137 168 5 0
20 -14 34 -31z m396 -354 c-1 -113 -5 -205 -8 -205 -4 0 -13 23 -19 51 -7 28
-23 74 -35 103 l-23 51 27 55 c14 30 32 76 39 103 7 26 14 47 16 47 2 0 3 -92
3 -205z m-75 -87 c38 -85 65 -201 65 -283 0 -56 -3 -75 -13 -75 -38 0 -287
106 -300 127 -13 21 51 130 99 169 27 21 65 56 84 76 19 21 36 38 38 38 2 0
14 -24 27 -52z m409 -120 c3 -7 7 -39 9 -70 l6 -58 -91 7 c-72 5 -92 3 -99 -8
-5 -9 -9 12 -9 57 0 39 3 74 7 77 12 13 173 8 177 -5z"/>
<path d="M630 575 c-113 -15 -100 -12 -100 -30 0 -11 7 -14 23 -10 36 8 140
25 151 25 6 0 -19 -29 -54 -65 l-64 -65 -64 0 -64 0 31 55 c17 30 27 55 23 55
-5 0 -26 -25 -46 -55 l-36 -55 -65 0 c-51 0 -65 -3 -65 -15 0 -12 13 -15 55
-15 l56 0 -26 -44 c-18 -30 -22 -46 -15 -51 14 -9 19 -4 50 53 l25 47 81 3 81
3 68 79 c38 44 72 80 77 80 4 0 8 5 8 10 0 12 -6 12 -130 -5z"/>
</g>
</svg>
