<?xml version="1.0" standalone="no"?>
<!DOCTYPE svg PUBLIC "-//W3C//DTD SVG 20010904//EN"
 "http://www.w3.org/TR/2001/REC-SVG-20010904/DTD/svg10.dtd">
<svg version="1.0" xmlns="http://www.w3.org/2000/svg"
 width="152.000000pt" height="126.000000pt" viewBox="0 0 152.000000 126.000000"
 preserveAspectRatio="xMidYMid meet">
<metadata>
Created by potrace 1.16, written by Peter Selinger 2001-2019
</metadata>
<g transform="translate(0.000000,126.000000) scale(0.100000,-0.100000)"
fill="#000000" stroke="none">
<path d="M390 790 l0 -170 -45 0 -45 0 0 -92 c0 -64 3 -88 10 -78 6 10 10 11
10 3 0 -10 31 -13 120 -13 l120 0 0 -57 c0 -32 5 -65 10 -73 8 -13 10 -12 10
3 0 16 22 17 303 18 166 1 307 1 314 0 6 -1 14 3 18 9 3 5 -1 10 -9 10 -14 0
-16 26 -16 200 0 153 -3 202 -13 205 -7 3 -150 6 -317 8 l-305 2 -3 -72 -3
-73 -72 0 -73 0 8 78 c3 42 7 112 7 155 1 70 3 77 21 77 19 0 20 -7 20 -150 0
-84 4 -150 9 -150 13 0 23 128 19 228 -2 61 0 82 10 82 6 0 12 5 12 10 0 6
-27 10 -60 10 l-60 0 0 -170z m762 -67 c3 -10 6 -65 7 -123 2 -58 6 -136 10
-175 5 -38 8 -71 7 -72 -1 -1 -135 1 -298 4 l-296 6 -1 183 -1 184 177 3 c98
1 226 4 284 5 94 2 107 0 111 -15z m-602 -170 c0 -27 3 -59 7 -72 l6 -23 -119
7 c-65 4 -120 8 -122 10 -1 1 0 27 4 58 l7 56 56 4 c31 2 80 4 109 5 l52 2 0
-47z"/>
</g>
</svg>
