<?xml version="1.0" standalone="no"?>
<!DOCTYPE svg PUBLIC "-//W3C//DTD SVG 20010904//EN"
 "http://www.w3.org/TR/2001/REC-SVG-20010904/DTD/svg10.dtd">
<svg version="1.0" xmlns="http://www.w3.org/2000/svg"
 width="152.000000pt" height="115.000000pt" viewBox="0 0 152.000000 115.000000"
 preserveAspectRatio="xMidYMid meet">
<metadata>
Created by potrace 1.16, written by Peter Selinger 2001-2019
</metadata>
<g transform="translate(0.000000,115.000000) scale(0.100000,-0.100000)"
fill="#000000" stroke="none">
<path d="M527 836 c-4 -10 -7 -46 -7 -80 l0 -62 -107 1 -108 0 -3 -118 c-2
-80 1 -116 8 -112 5 3 10 1 10 -4 0 -6 16 -11 35 -11 l35 0 0 -77 c0 -97 18
-87 22 12 l3 70 56 3 56 3 7 -47 c3 -26 6 -63 6 -83 1 -32 2 -34 14 -18 12 16
40 17 340 17 211 0 326 4 326 10 0 6 -4 10 -9 10 -5 0 -12 108 -16 240 -4 132
-11 243 -16 245 -4 3 -151 8 -327 12 -297 6 -319 5 -325 -11z m633 -138 c0
-68 5 -172 10 -232 6 -60 9 -110 7 -112 -2 -2 -95 -1 -208 3 l-204 6 -4 223
-3 223 124 4 c67 1 158 4 201 5 l77 2 0 -122z m-434 57 c1 -27 5 -117 9 -200
3 -82 8 -160 11 -172 6 -23 5 -23 -90 -23 l-96 0 0 225 0 226 81 -3 82 -3 3
-50z m-336 -175 l0 -90 -36 0 -37 0 6 68 c4 37 7 77 7 90 0 18 6 22 30 22 l30
0 0 -90z m134 44 c3 -26 6 -69 6 -95 0 -54 -6 -57 -79 -43 l-31 7 0 88 0 89
49 0 48 0 7 -46z"/>
</g>
</svg>
