<?xml version="1.0" standalone="no"?>
<!DOCTYPE svg PUBLIC "-//W3C//DTD SVG 20010904//EN"
 "http://www.w3.org/TR/2001/REC-SVG-20010904/DTD/svg10.dtd">
<svg version="1.0" xmlns="http://www.w3.org/2000/svg"
 width="185.000000pt" height="127.000000pt" viewBox="0 0 185.000000 127.000000"
 preserveAspectRatio="xMidYMid meet">
<metadata>
Created by potrace 1.16, written by Peter Selinger 2001-2019
</metadata>
<g transform="translate(0.000000,127.000000) scale(0.100000,-0.100000)"
fill="#000000" stroke="none">
<path d="M894 956 c-9 -24 35 -111 79 -154 23 -23 66 -54 96 -70 63 -35 72
-31 -130 -57 l-127 -17 -83 62 c-129 96 -184 120 -271 120 -175 0 -203 -53
-78 -145 83 -61 104 -66 288 -67 240 -1 476 36 710 113 50 17 92 33 92 36 0 7
-33 0 -142 -31 l-87 -24 -52 69 c-69 93 -117 132 -194 158 -77 25 -94 26 -101
7z m128 -48 c60 -26 208 -175 187 -189 -28 -17 -71 -8 -122 25 -88 58 -124 98
-155 169 -11 27 -11 27 16 21 15 -4 48 -15 74 -26z m-433 -128 c35 -17 95 -51
134 -78 84 -56 82 -56 -93 -50 -145 5 -174 16 -254 89 l-51 47 35 10 c19 6 64
11 100 11 53 1 77 -5 129 -29z"/>
<path d="M1524 653 c10 -176 26 -182 26 -10 0 120 -2 137 -16 137 -15 0 -16
-13 -10 -127z"/>
<path d="M810 530 l-12 -22 116 4 115 3 -39 -19 c-68 -31 -160 -146 -146 -181
7 -20 123 -21 169 -1 39 16 114 91 160 158 l32 47 143 1 c88 0 142 4 142 10 0
6 -78 10 -212 10 -117 1 -268 3 -335 6 -117 6 -122 5 -133 -16z m370 -20 c0
-6 -35 -46 -77 -88 -82 -82 -121 -102 -197 -102 l-37 0 17 33 c33 65 65 96
135 131 71 36 159 50 159 26z"/>
<path d="M495 500 c-34 -8 -106 -43 -147 -72 -20 -13 -28 -28 -28 -48 0 -26 6
-31 58 -50 122 -47 201 -36 374 51 105 53 103 66 -17 95 -104 24 -197 34 -240
24z m249 -46 c39 -8 71 -16 73 -18 5 -4 -120 -60 -182 -81 -77 -26 -135 -29
-196 -12 -30 9 -63 22 -73 30 -18 13 -16 16 29 47 26 18 66 39 89 46 47 16
151 11 260 -12z"/>
</g>
</svg>
