<?xml version="1.0" standalone="no"?>
<!DOCTYPE svg PUBLIC "-//W3C//DTD SVG 20010904//EN"
 "http://www.w3.org/TR/2001/REC-SVG-20010904/DTD/svg10.dtd">
<svg version="1.0" xmlns="http://www.w3.org/2000/svg"
 width="181.000000pt" height="126.000000pt" viewBox="0 0 181.000000 126.000000"
 preserveAspectRatio="xMidYMid meet">
<metadata>
Created by potrace 1.16, written by Peter Selinger 2001-2019
</metadata>
<g transform="translate(0.000000,126.000000) scale(0.100000,-0.100000)"
fill="#000000" stroke="none">
<path d="M557 953 c-3 -4 1 -44 9 -88 7 -44 13 -86 13 -92 1 -10 -31 -13 -126
-13 -71 0 -134 -4 -141 -8 -9 -7 -12 -40 -10 -133 l3 -124 136 4 136 3 -14
-87 c-8 -49 -12 -94 -9 -102 6 -16 111 -18 121 -3 4 6 9 50 12 99 l6 88 166 5
c91 3 167 5 168 4 1 -1 -4 -44 -12 -96 -8 -51 -12 -97 -9 -102 3 -4 31 -8 63
-8 70 0 71 2 71 128 l0 82 185 0 c117 0 185 4 185 10 0 6 -5 10 -11 10 -7 0
-9 14 -5 38 3 20 7 70 8 111 l3 74 -176 -2 -177 -2 -8 103 -9 103 -44 3 c-25
2 -54 1 -66 -2 -21 -5 -21 -7 -9 -78 7 -40 13 -84 14 -98 l0 -25 -157 3 c-87
1 -163 4 -170 7 -8 3 -13 36 -15 97 l-3 93 -62 3 c-34 2 -63 -1 -66 -5z m547
-42 c2 -9 7 -41 11 -71 4 -30 9 -63 12 -73 4 -16 -1 -18 -34 -15 l-38 3 -3 91
-3 91 25 -4 c14 -3 27 -13 30 -22z m-450 -13 c3 -18 8 -57 12 -85 l7 -53 -37
0 -36 0 0 63 c0 34 -3 72 -6 85 -6 19 -3 22 24 22 26 0 31 -4 36 -32z m816
-268 l0 -103 -161 7 c-88 4 -347 7 -576 7 l-416 0 7 81 c4 45 8 84 10 85 2 2
189 6 417 9 227 3 414 6 415 7 1 1 70 4 153 5 l151 4 0 -102z m-350 -135 c0
-8 -5 -48 -11 -90 -11 -74 -12 -75 -42 -75 -29 0 -29 1 -23 38 3 20 6 61 6 90
l0 52 35 0 c24 0 35 -5 35 -15z m-457 -37 c-15 -118 -17 -123 -46 -126 -31 -4
-32 1 -21 107 7 61 7 61 39 61 33 0 33 0 28 -42z"/>
</g>
</svg>
