<?xml version="1.0" standalone="no"?>
<!DOCTYPE svg PUBLIC "-//W3C//DTD SVG 20010904//EN"
 "http://www.w3.org/TR/2001/REC-SVG-20010904/DTD/svg10.dtd">
<svg version="1.0" xmlns="http://www.w3.org/2000/svg"
 width="213.000000pt" height="126.000000pt" viewBox="0 0 213.000000 126.000000"
 preserveAspectRatio="xMidYMid meet">
<metadata>
Created by potrace 1.16, written by Peter Selinger 2001-2019
</metadata>
<g transform="translate(0.000000,126.000000) scale(0.100000,-0.100000)"
fill="#000000" stroke="none">
<path d="M1420 926 c-41 -18 -99 -45 -127 -59 l-53 -27 -58 23 c-131 54 -179
56 -280 11 -59 -26 -262 -155 -262 -166 0 -20 44 -4 126 45 123 73 210 110
259 109 22 0 74 -12 115 -27 121 -44 432 -187 423 -196 -12 -12 -275 -131
-383 -174 -52 -20 -117 -39 -145 -42 -46 -5 -59 -1 -170 56 -144 74 -177 97
-155 111 47 30 46 28 30 44 -17 16 -407 226 -420 226 -16 0 -19 -16 -10 -54 5
-22 10 -131 11 -243 2 -130 6 -207 13 -212 7 -6 70 31 170 98 l158 107 82 -53
c172 -114 256 -139 362 -108 114 33 484 223 484 248 0 7 33 30 73 51 189 103
193 128 6 40 -92 -43 -126 -55 -138 -47 -9 5 -65 36 -126 68 -123 65 -124 66
-109 72 23 8 190 106 204 119 22 22 2 17 -80 -20z m-1008 -168 c2 -13 3 -92 3
-177 l0 -155 -33 -19 c-18 -11 -34 -18 -35 -16 -2 2 -1 97 1 211 l4 207 28
-14 c15 -8 29 -25 32 -37z m300 -146 c-9 -7 -28 -16 -42 -19 -14 -4 -29 -12
-35 -19 -11 -14 -186 -126 -190 -122 -1 2 0 71 3 154 l4 151 139 -66 c122 -58
137 -68 121 -79z"/>
<path d="M1577 603 c-4 -3 -7 -10 -7 -15 0 -8 124 -70 223 -111 98 -41 -12 37
-150 107 -58 29 -57 29 -66 19z"/>
<path d="M1286 433 c-9 -22 -6 -24 123 -82 184 -83 160 -53 -50 62 -58 32 -68
35 -73 20z"/>
</g>
</svg>
