<?xml version="1.0" standalone="no"?>
<!DOCTYPE svg PUBLIC "-//W3C//DTD SVG 20010904//EN"
 "http://www.w3.org/TR/2001/REC-SVG-20010904/DTD/svg10.dtd">
<svg version="1.0" xmlns="http://www.w3.org/2000/svg"
 width="181.000000pt" height="123.000000pt" viewBox="0 0 181.000000 123.000000"
 preserveAspectRatio="xMidYMid meet">
<metadata>
Created by potrace 1.16, written by Peter Selinger 2001-2019
</metadata>
<g transform="translate(0.000000,123.000000) scale(0.100000,-0.100000)"
fill="#000000" stroke="none">
<path d="M574 902 c-126 -44 -261 -133 -249 -163 3 -9 58 -45 122 -80 l116
-63 -29 -13 c-16 -7 -76 -35 -133 -61 l-103 -48 38 -31 c50 -38 144 -93 211
-121 44 -19 70 -22 176 -22 158 0 233 24 450 147 l97 55 116 -51 c64 -29 119
-49 123 -46 3 4 -3 12 -14 18 -58 36 -221 126 -227 127 -4 0 -10 -10 -13 -21
-8 -24 -170 -105 -320 -160 -80 -29 -102 -33 -200 -33 -99 -1 -117 2 -180 28
-75 31 -98 46 -78 53 32 12 195 127 185 131 -14 4 -202 -93 -218 -113 -8 -11
-16 -10 -43 7 l-33 21 84 48 c99 56 128 77 128 90 0 5 -47 40 -105 77 -57 37
-104 69 -105 72 0 11 125 79 195 106 59 23 85 28 165 28 80 0 109 -5 185 -31
126 -43 335 -143 335 -160 0 -29 31 -22 121 28 120 66 144 82 131 87 -6 2 -60
-19 -122 -47 l-111 -49 -87 51 c-106 63 -258 130 -340 151 -92 24 -174 20
-268 -12z"/>
<path d="M510 755 c0 -14 125 -115 143 -115 18 0 0 21 -62 74 -68 59 -81 65
-81 41z"/>
</g>
</svg>
