<?xml version="1.0" standalone="no"?>
<!DOCTYPE svg PUBLIC "-//W3C//DTD SVG 20010904//EN"
 "http://www.w3.org/TR/2001/REC-SVG-20010904/DTD/svg10.dtd">
<svg version="1.0" xmlns="http://www.w3.org/2000/svg"
 width="142.000000pt" height="138.000000pt" viewBox="0 0 142.000000 138.000000"
 preserveAspectRatio="xMidYMid meet">
<metadata>
Created by potrace 1.16, written by Peter Selinger 2001-2019
</metadata>
<g transform="translate(0.000000,138.000000) scale(0.100000,-0.100000)"
fill="#000000" stroke="none">
<path d="M710 1011 l0 -68 -31 -7 c-17 -3 -49 -6 -71 -6 -25 0 -41 -5 -44 -15
-4 -8 -12 -15 -19 -15 -14 0 -35 -47 -54 -118 l-12 -42 -89 0 c-83 0 -90 -1
-90 -20 0 -18 7 -20 89 -20 l88 0 6 -45 c7 -49 44 -146 61 -157 5 -3 39 -12
75 -18 109 -19 101 -11 101 -101 0 -46 4 -79 10 -79 6 0 10 33 10 78 l0 78 86
16 c48 9 93 23 100 30 14 13 54 155 54 190 0 16 9 18 70 18 40 0 70 4 70 10 0
6 -30 10 -70 10 l-69 0 -5 33 c-3 17 -8 52 -11 77 l-6 45 -77 22 c-42 12 -89
25 -104 28 -27 5 -28 7 -28 75 0 63 -2 70 -20 70 -18 0 -20 -7 -20 -69z m0
-191 l0 -80 -95 0 c-103 0 -102 -1 -85 61 9 33 12 35 45 31 47 -6 94 6 74 19
-7 5 -31 9 -52 9 -27 0 -37 4 -35 13 5 14 45 24 106 26 l42 1 0 -80z m194 60
c21 -8 25 -18 31 -75 4 -36 5 -68 2 -71 -2 -3 -46 -2 -96 2 l-91 7 0 80 0 80
65 -7 c36 -4 76 -11 89 -16z m34 -232 l-3 -63 -55 -1 c-44 -1 -56 -4 -58 -19
-4 -16 2 -17 52 -11 46 6 56 5 56 -8 0 -29 -29 -43 -101 -50 -40 -3 -76 -3
-80 1 -4 5 -5 52 -2 105 7 111 0 105 116 107 l78 1 -3 -62z m-224 6 c3 -26 6
-71 6 -100 0 -62 3 -61 -104 -38 -89 20 -110 44 -38 45 26 0 65 4 87 8 61 12
21 23 -68 19 l-75 -3 -6 35 c-14 83 -18 80 93 80 l98 0 7 -46z"/>
<path d="M540 785 c0 -16 27 -19 79 -9 50 10 36 24 -24 24 -42 0 -55 -3 -55
-15z"/>
<path d="M770 855 c0 -11 12 -15 49 -15 53 0 75 14 38 24 -43 11 -87 7 -87 -9z"/>
<path d="M797 804 c-20 -20 47 -33 88 -18 13 5 14 8 3 15 -15 10 -82 12 -91 3z"/>
</g>
</svg>
