<?xml version="1.0" standalone="no"?>
<!DOCTYPE svg PUBLIC "-//W3C//DTD SVG 20010904//EN"
 "http://www.w3.org/TR/2001/REC-SVG-20010904/DTD/svg10.dtd">
<svg version="1.0" xmlns="http://www.w3.org/2000/svg"
 width="140.000000pt" height="138.000000pt" viewBox="0 0 140.000000 138.000000"
 preserveAspectRatio="xMidYMid meet">
<metadata>
Created by potrace 1.16, written by Peter Selinger 2001-2019
</metadata>
<g transform="translate(0.000000,138.000000) scale(0.100000,-0.100000)"
fill="#000000" stroke="none">
<path d="M710 1011 l0 -69 -75 -7 c-55 -5 -75 -11 -75 -21 0 -8 -7 -14 -16
-14 -17 0 -49 -65 -59 -122 l-7 -38 -89 0 c-82 0 -89 -2 -89 -20 0 -18 7 -20
85 -20 84 0 85 0 91 -27 13 -59 16 -70 37 -120 24 -58 27 -60 131 -77 l71 -12
3 -82 c4 -106 22 -107 22 -2 0 75 1 80 23 84 12 2 51 9 87 16 36 6 68 14 72
16 12 8 47 130 50 174 l2 40 45 2 c44 1 54 2 76 9 6 1 -19 5 -55 8 -55 5 -65
9 -67 26 -1 11 -5 45 -8 75 l-6 56 -72 22 c-40 12 -87 25 -104 28 l-33 7 0 68
c0 62 -2 69 -20 69 -18 0 -20 -7 -20 -69z m191 -126 c11 -4 21 -16 24 -28 9
-37 10 -116 3 -117 -5 0 -48 0 -98 0 l-90 0 0 78 c0 43 2 81 5 84 5 5 127 -8
156 -17z m-191 -65 l0 -80 -100 0 -100 0 6 28 c13 54 46 121 62 125 10 3 43 5
75 6 l57 1 0 -80z m2 -212 c2 -57 2 -105 0 -107 -1 -3 -41 4 -89 15 l-87 19
-13 50 c-16 64 -16 112 0 118 6 3 51 6 99 6 l87 1 3 -102z m228 65 c0 -20 -5
-64 -11 -99 -12 -72 -16 -74 -122 -74 l-68 0 2 98 c1 53 3 100 6 105 2 4 47 7
99 7 l94 0 0 -37z"/>
</g>
</svg>
