<?xml version="1.0" standalone="no"?>
<!DOCTYPE svg PUBLIC "-//W3C//DTD SVG 20010904//EN"
 "http://www.w3.org/TR/2001/REC-SVG-20010904/DTD/svg10.dtd">
<svg version="1.0" xmlns="http://www.w3.org/2000/svg"
 width="152.000000pt" height="164.000000pt" viewBox="0 0 152.000000 164.000000"
 preserveAspectRatio="xMidYMid meet">
<metadata>
Created by potrace 1.16, written by Peter Selinger 2001-2019
</metadata>
<g transform="translate(0.000000,164.000000) scale(0.100000,-0.100000)"
fill="#000000" stroke="none">
<path d="M688 1333 c-15 -4 -18 -16 -18 -60 l0 -56 -52 7 c-29 3 -113 9 -185
13 l-133 6 0 -290 0 -291 28 -4 c33 -4 248 7 315 17 l47 7 0 -63 c0 -35 3
-122 7 -194 l8 -130 6 85 c4 47 7 135 8 196 l1 110 88 17 c110 21 198 49 281
90 66 33 131 95 131 125 0 11 -6 7 -19 -14 -50 -82 -222 -158 -448 -198 l-33
-5 0 244 c0 206 2 245 14 245 28 0 161 -31 226 -52 124 -40 211 -94 247 -153
10 -18 12 -18 12 -2 1 28 -71 92 -143 126 -69 32 -196 71 -298 91 l-58 11 0
65 c0 35 -3 63 -7 63 -5 -1 -16 -3 -25 -6z m-37 -129 l26 -6 7 -245 c4 -135 3
-249 -1 -254 -8 -7 -221 -29 -291 -29 l-39 0 32 35 c50 52 70 122 70 240 0
117 -20 187 -69 243 l-31 35 135 -7 c74 -3 147 -9 161 -12z"/>
</g>
</svg>
