<?xml version="1.0" standalone="no"?>
<!DOCTYPE svg PUBLIC "-//W3C//DTD SVG 20010904//EN"
 "http://www.w3.org/TR/2001/REC-SVG-20010904/DTD/svg10.dtd">
<svg version="1.0" xmlns="http://www.w3.org/2000/svg"
 width="180.000000pt" height="176.000000pt" viewBox="0 0 180.000000 176.000000"
 preserveAspectRatio="xMidYMid meet">
<metadata>
Created by potrace 1.16, written by Peter Selinger 2001-2019
</metadata>
<g transform="translate(0.000000,176.000000) scale(0.100000,-0.100000)"
fill="#000000" stroke="none">
<path d="M1170 1437 c-14 -12 -45 -38 -68 -58 l-42 -36 64 -134 c156 -324 156
-384 1 -734 -31 -70 -55 -129 -53 -131 2 -2 41 -12 86 -22 l82 -19 49 66 c82
110 157 246 186 336 45 138 31 223 -70 430 -55 112 -188 325 -202 325 -4 0
-19 -11 -33 -23z m81 -114 c84 -131 152 -262 183 -355 57 -168 20 -317 -136
-554 l-60 -92 -74 25 -73 25 23 37 c38 60 101 190 132 271 23 63 28 91 28 175
1 94 -2 106 -38 194 -22 51 -61 137 -87 190 l-49 96 42 42 c23 24 43 43 44 43
1 0 30 -44 65 -97z"/>
<path d="M300 839 l0 -152 118 7 c250 15 425 53 486 106 24 22 45 30 72 31
l39 1 -42 11 c-23 7 -52 22 -65 33 -38 35 -83 54 -181 74 -96 20 -281 40 -374
40 l-53 0 0 -151z m235 126 c116 -8 267 -41 327 -71 90 -46 81 -48 -186 -41
l-247 6 3 -22 c4 -26 -9 -25 286 -13 117 5 192 5 192 -1 0 -17 -78 -53 -157
-72 -81 -20 -220 -38 -334 -44 l-67 -3 27 35 c22 29 26 44 26 101 0 58 -4 72
-28 104 l-29 37 49 -5 c26 -3 89 -8 138 -11z"/>
</g>
</svg>
