<?xml version="1.0" standalone="no"?>
<!DOCTYPE svg PUBLIC "-//W3C//DTD SVG 20010904//EN"
 "http://www.w3.org/TR/2001/REC-SVG-20010904/DTD/svg10.dtd">
<svg version="1.0" xmlns="http://www.w3.org/2000/svg"
 width="152.000000pt" height="165.000000pt" viewBox="0 0 152.000000 165.000000"
 preserveAspectRatio="xMidYMid meet">
<metadata>
Created by potrace 1.16, written by Peter Selinger 2001-2019
</metadata>
<g transform="translate(0.000000,165.000000) scale(0.100000,-0.100000)"
fill="#000000" stroke="none">
<path d="M975 1305 c-167 -95 -291 -222 -323 -328 l-17 -59 -168 1 c-165 2
-167 2 -167 -20 0 -21 0 -21 170 -14 139 6 170 5 174 -6 42 -156 98 -264 204
-395 89 -110 161 -188 168 -181 3 3 -21 39 -53 79 -126 153 -239 346 -268 458
l-13 50 109 0 c66 0 109 4 109 10 0 6 -44 10 -111 10 l-111 0 7 38 c19 107
126 219 313 327 75 44 93 63 66 72 -5 2 -45 -17 -89 -42z"/>
<path d="M817 1113 c-15 -14 -3 -24 121 -96 241 -141 274 -159 279 -153 8 7
15 2 -92 73 -132 88 -285 183 -294 183 -4 0 -11 -3 -14 -7z"/>
<path d="M1160 838 c-121 -34 -387 -121 -394 -129 -6 -6 -6 -13 0 -19 10 -10
153 35 354 110 112 41 138 66 40 38z"/>
</g>
</svg>
