<?xml version="1.0" standalone="no"?>
<!DOCTYPE svg PUBLIC "-//W3C//DTD SVG 20010904//EN"
 "http://www.w3.org/TR/2001/REC-SVG-20010904/DTD/svg10.dtd">
<svg version="1.0" xmlns="http://www.w3.org/2000/svg"
 width="151.000000pt" height="231.000000pt" viewBox="0 0 151.000000 231.000000"
 preserveAspectRatio="xMidYMid meet">
<metadata>
Created by potrace 1.16, written by Peter Selinger 2001-2019
</metadata>
<g transform="translate(0.000000,231.000000) scale(0.100000,-0.100000)"
fill="#000000" stroke="none">
<path d="M1070 2002 c0 -5 -34 -39 -75 -76 l-75 -67 -226 7 -225 7 3 36 3 36
-75 6 c-41 3 -81 1 -88 -4 -9 -7 -12 -93 -12 -368 l0 -359 28 0 c15 0 50 3 77
6 l50 6 3 247 c2 137 8 250 13 256 6 6 96 12 207 15 108 3 190 8 182 12 -8 4
-99 10 -202 13 -187 7 -188 7 -188 30 0 31 27 35 248 35 184 0 185 0 167 -20
-17 -19 -17 -20 0 -26 18 -7 53 25 157 143 35 39 40 42 65 32 l28 -10 -82 -75
c-65 -59 -81 -79 -75 -94 7 -18 162 -146 191 -158 10 -4 7 -10 -10 -23 -13
-10 -20 -21 -16 -25 9 -9 59 26 65 46 3 7 1 10 -4 7 -5 -3 -49 32 -99 78 l-89
83 57 61 c81 88 83 94 46 125 -31 26 -49 33 -49 18z m-640 -106 c0 -19 -6 -25
-27 -28 -17 -2 -28 -9 -28 -18 0 -9 11 -16 28 -18 21 -3 27 -9 27 -28 0 -20
-5 -24 -31 -24 -24 0 -30 -4 -27 -17 2 -11 14 -19 31 -21 l27 -3 0 -243 0
-243 -57 5 c-32 2 -59 5 -60 6 -1 1 3 73 7 161 5 88 9 225 10 305 0 189 1 190
56 190 40 0 44 -2 44 -24z"/>
<path d="M892 1767 c-12 -14 48 -67 166 -146 65 -44 99 -50 46 -9 -16 13 -60
50 -99 83 -104 90 -101 87 -113 72z"/>
<path d="M306 1014 c-3 -9 -6 -173 -6 -365 l0 -349 63 0 c69 0 114 9 98 19 -8
5 -9 69 -4 208 l6 202 210 3 210 3 66 -69 c173 -183 189 -173 28 17 l-49 57
65 68 c145 149 143 174 -3 36 l-102 -96 -45 6 c-25 3 -121 6 -212 6 l-167 0 4
129 4 128 -32 7 c-62 12 -127 7 -134 -10z m124 -134 l0 -120 -50 0 -50 0 0 93
c0 117 5 135 39 140 65 10 61 18 61 -113z m0 -350 l0 -200 -60 0 -61 0 5 73
c3 39 9 129 12 200 l6 127 49 0 49 0 0 -200z"/>
</g>
</svg>
