<?xml version="1.0" standalone="no"?>
<!DOCTYPE svg PUBLIC "-//W3C//DTD SVG 20010904//EN"
 "http://www.w3.org/TR/2001/REC-SVG-20010904/DTD/svg10.dtd">
<svg version="1.0" xmlns="http://www.w3.org/2000/svg"
 width="123.000000pt" height="89.000000pt" viewBox="0 0 123.000000 89.000000"
 preserveAspectRatio="xMidYMid meet">
<metadata>
Created by potrace 1.16, written by Peter Selinger 2001-2019
</metadata>
<g transform="translate(0.000000,89.000000) scale(0.100000,-0.100000)"
fill="#000000" stroke="none">
<path d="M620 575 c-274 -38 -387 -111 -281 -182 71 -48 240 -82 449 -90 l142
-6 0 147 0 146 -107 -1 c-60 -1 -151 -7 -203 -14z m242 -17 c-28 -30 -42 -71
-42 -119 0 -44 11 -71 44 -108 l21 -23 -95 6 c-265 19 -438 62 -474 118 -40
64 221 137 523 147 l44 1 -21 -22z"/>
</g>
</svg>
