<?xml version="1.0" standalone="no"?>
<!DOCTYPE svg PUBLIC "-//W3C//DTD SVG 20010904//EN"
 "http://www.w3.org/TR/2001/REC-SVG-20010904/DTD/svg10.dtd">
<svg version="1.0" xmlns="http://www.w3.org/2000/svg"
 width="194.000000pt" height="143.000000pt" viewBox="0 0 194.000000 143.000000"
 preserveAspectRatio="xMidYMid meet">
<metadata>
Created by potrace 1.16, written by Peter Selinger 2001-2019
</metadata>
<g transform="translate(0.000000,143.000000) scale(0.100000,-0.100000)"
fill="#000000" stroke="none">
<path d="M680 1117 c0 -8 9 -22 21 -33 58 -52 64 -130 19 -264 -59 -178 -31
-329 87 -478 19 -23 38 -42 43 -42 24 0 143 207 159 278 7 28 9 2 10 -103 1
-146 13 -203 25 -119 3 26 6 79 6 119 0 91 9 135 26 135 11 0 14 -29 14 -150
0 -82 4 -150 9 -150 11 0 21 100 21 211 0 82 2 89 20 89 19 0 20 -7 20 -150 0
-82 4 -150 9 -150 8 0 21 141 21 242 0 51 2 58 20 58 19 0 20 -7 20 -150 0
-149 12 -197 24 -97 3 28 6 88 6 132 0 103 6 124 31 118 18 -5 19 -16 19 -154
0 -82 4 -149 9 -149 10 0 21 122 21 232 0 71 2 78 20 78 19 0 20 -7 20 -149 0
-236 26 -194 32 51 l3 98 51 0 c28 0 72 3 98 6 44 6 48 5 53 -17 l7 -24 7 25
c4 14 7 82 8 153 l1 127 -162 0 c-197 0 -431 15 -487 30 -48 13 -71 42 -71 88
0 27 -4 33 -17 30 -14 -3 -18 -13 -17 -42 2 -47 29 -85 80 -111 37 -19 57 -20
342 -18 l302 1 0 -111 0 -110 -167 6 c-91 4 -226 7 -300 7 l-133 0 0 33 c0 17
-6 55 -13 82 -11 40 -18 51 -37 53 -19 3 -22 0 -15 -15 4 -10 14 -53 23 -97
13 -64 14 -89 4 -135 -11 -56 -106 -261 -120 -261 -12 0 -77 127 -98 190 -27
79 -24 216 5 295 45 123 37 237 -20 294 -32 33 -59 40 -59 18z"/>
<path d="M300 731 c0 -16 6 -18 43 -15 23 2 108 6 190 10 81 3 147 10 147 15
0 5 -85 9 -190 9 -179 0 -190 -1 -190 -19z"/>
</g>
</svg>
