<?xml version="1.0" standalone="no"?>
<!DOCTYPE svg PUBLIC "-//W3C//DTD SVG 20010904//EN"
 "http://www.w3.org/TR/2001/REC-SVG-20010904/DTD/svg10.dtd">
<svg version="1.0" xmlns="http://www.w3.org/2000/svg"
 width="185.000000pt" height="143.000000pt" viewBox="0 0 185.000000 143.000000"
 preserveAspectRatio="xMidYMid meet">
<metadata>
Created by potrace 1.16, written by Peter Selinger 2001-2019
</metadata>
<g transform="translate(0.000000,143.000000) scale(0.100000,-0.100000)"
fill="#000000" stroke="none">
<path d="M684 1119 c-4 -7 2 -19 13 -28 61 -48 72 -131 33 -251 -17 -54 -26
-70 -38 -65 -8 3 -100 8 -204 12 l-188 6 0 -23 0 -23 201 7 202 8 -6 -24 c-4
-13 -7 -44 -7 -69 l0 -45 -195 4 c-175 4 -195 3 -195 -12 0 -14 21 -16 194
-16 l194 0 21 -70 c21 -68 112 -219 138 -227 25 -9 139 178 162 263 l11 41
222 7 c122 3 232 9 244 12 17 4 24 0 30 -18 7 -23 7 -22 15 6 5 16 11 85 15
153 l7 123 -134 0 c-203 0 -394 17 -445 40 -44 19 -59 45 -52 86 2 11 -4 20
-16 22 -17 4 -18 -1 -14 -47 4 -35 12 -59 28 -76 43 -45 77 -50 343 -49 l247
2 0 -111 0 -110 -107 6 c-58 4 -168 7 -244 7 l-137 0 -7 33 c-26 132 -28 137
-50 137 l-21 0 17 -67 c24 -91 23 -166 -1 -239 -24 -71 -91 -196 -105 -197
-15 0 -72 108 -96 183 -29 89 -28 204 1 285 12 33 24 96 27 140 5 69 3 87 -16
122 -19 38 -54 73 -73 73 -4 0 -10 -5 -14 -11z"/>
</g>
</svg>
