<?xml version="1.0" standalone="no"?>
<!DOCTYPE svg PUBLIC "-//W3C//DTD SVG 20010904//EN"
 "http://www.w3.org/TR/2001/REC-SVG-20010904/DTD/svg10.dtd">
<svg version="1.0" xmlns="http://www.w3.org/2000/svg"
 width="177.000000pt" height="162.000000pt" viewBox="0 0 177.000000 162.000000"
 preserveAspectRatio="xMidYMid meet">
<metadata>
Created by potrace 1.16, written by Peter Selinger 2001-2019
</metadata>
<g transform="translate(0.000000,162.000000) scale(0.100000,-0.100000)"
fill="#000000" stroke="none">
<path d="M1036 1249 c-80 -87 -131 -168 -147 -234 -6 -28 -27 -84 -46 -126
l-36 -76 -253 5 -254 5 0 -23 0 -23 251 7 250 7 -11 -21 c-19 -35 -4 -47 16
-13 11 18 25 33 32 33 7 0 12 6 10 13 -3 15 22 77 32 77 4 0 11 -12 15 -27 11
-44 73 -162 121 -231 29 -41 38 -62 28 -60 -11 2 -31 -30 -70 -116 -54 -116
-67 -167 -29 -110 11 16 42 71 71 122 51 93 52 93 68 71 8 -13 18 -20 21 -17
3 3 -11 29 -31 59 -83 124 -154 294 -154 371 l0 43 99 3 98 2 7 -132 c4 -73 6
-180 5 -238 l-2 -105 55 -105 c31 -57 61 -106 67 -108 12 -4 -7 49 -65 181
l-34 78 5 172 c3 95 8 191 11 215 l5 42 122 1 c67 1 136 4 152 8 27 6 24 8
-25 14 -30 4 -99 7 -152 7 l-98 0 -1 43 c-1 23 -4 89 -8 147 -6 104 -6 105
-32 108 -21 2 -38 -10 -93 -69z m83 -126 l1 -103 -95 0 -95 0 26 53 c23 45 61
98 131 183 l18 22 6 -27 c4 -14 7 -72 8 -128z"/>
<path d="M300 953 c0 -17 16 -18 212 -15 117 1 242 5 278 9 117 12 22 21 -242
22 -230 1 -248 0 -248 -16z"/>
</g>
</svg>
