<?xml version="1.0" standalone="no"?>
<!DOCTYPE svg PUBLIC "-//W3C//DTD SVG 20010904//EN"
 "http://www.w3.org/TR/2001/REC-SVG-20010904/DTD/svg10.dtd">
<svg version="1.0" xmlns="http://www.w3.org/2000/svg"
 width="152.000000pt" height="165.000000pt" viewBox="0 0 152.000000 165.000000"
 preserveAspectRatio="xMidYMid meet">
<metadata>
Created by potrace 1.16, written by Peter Selinger 2001-2019
</metadata>
<g transform="translate(0.000000,165.000000) scale(0.100000,-0.100000)"
fill="#000000" stroke="none">
<path d="M979 1307 c-139 -79 -250 -178 -303 -269 l-21 -38 -177 0 c-152 0
-178 -2 -178 -15 0 -13 26 -15 173 -15 l172 0 0 -55 0 -55 -172 0 c-164 0
-173 -1 -173 -19 0 -19 7 -20 178 -14 l177 6 18 -54 c21 -69 101 -203 175
-295 89 -110 161 -188 168 -181 3 3 -21 39 -53 79 -110 134 -263 389 -263 437
0 7 36 11 100 11 60 0 100 4 100 10 0 6 -41 10 -104 10 l-104 0 -7 30 c-4 17
-4 43 0 59 l6 29 107 8 c59 5 89 10 67 11 -22 2 -68 6 -103 9 l-62 6 17 30
c49 83 139 161 281 243 75 44 93 63 66 72 -5 2 -43 -16 -85 -40z"/>
<path d="M817 1113 c-15 -14 -3 -24 121 -96 241 -141 274 -159 279 -153 8 7
15 2 -92 73 -132 88 -285 183 -294 183 -4 0 -11 -3 -14 -7z"/>
<path d="M1160 838 c-121 -34 -387 -121 -394 -129 -6 -6 -6 -13 0 -19 10 -10
153 35 354 110 112 41 138 66 40 38z"/>
</g>
</svg>
