<?xml version="1.0" standalone="no"?>
<!DOCTYPE svg PUBLIC "-//W3C//DTD SVG 20010904//EN"
 "http://www.w3.org/TR/2001/REC-SVG-20010904/DTD/svg10.dtd">
<svg version="1.0" xmlns="http://www.w3.org/2000/svg"
 width="148.000000pt" height="165.000000pt" viewBox="0 0 148.000000 165.000000"
 preserveAspectRatio="xMidYMid meet">
<metadata>
Created by potrace 1.16, written by Peter Selinger 2001-2019
</metadata>
<g transform="translate(0.000000,165.000000) scale(0.100000,-0.100000)"
fill="#000000" stroke="none">
<path d="M895 1250 c-34 -52 -74 -116 -89 -141 l-26 -46 56 -74 c31 -41 72
-92 89 -115 l33 -40 -73 -112 c-40 -62 -80 -127 -88 -144 l-15 -31 74 -96
c123 -161 119 -157 138 -142 9 8 55 65 102 127 l85 112 -17 34 c-9 18 -48 82
-87 142 -50 76 -68 112 -61 121 5 8 44 59 87 115 l79 101 -22 42 c-12 23 -52
88 -88 143 -87 134 -93 134 -177 4z m174 -54 l82 -109 -72 -106 c-39 -58 -73
-108 -76 -111 -2 -3 -4 24 -3 60 4 162 1 200 -16 200 -15 0 -16 -15 -12 -144
l5 -143 -82 121 -82 121 34 45 c19 25 55 75 81 112 26 37 50 66 53 65 3 -1 43
-51 88 -111z m13 -532 l68 -92 -75 -111 -75 -111 0 135 c0 118 -2 135 -16 135
-15 0 -16 -15 -12 -145 3 -80 4 -144 2 -143 -1 2 -38 57 -82 122 l-79 119 85
113 c84 112 85 114 100 92 9 -13 46 -64 84 -114z"/>
<path d="M300 987 l0 -26 108 5 c196 9 274 16 266 24 -5 5 -91 12 -191 16
l-183 7 0 -26z"/>
<path d="M300 828 c0 -21 0 -21 181 -15 100 3 186 10 191 15 12 12 -110 22
-259 22 -109 0 -113 -1 -113 -22z"/>
<path d="M300 651 l0 -24 177 7 c97 4 184 11 192 16 20 12 27 11 -187 19
l-182 6 0 -24z"/>
</g>
</svg>
