<?xml version="1.0" standalone="no"?>
<!DOCTYPE svg PUBLIC "-//W3C//DTD SVG 20010904//EN"
 "http://www.w3.org/TR/2001/REC-SVG-20010904/DTD/svg10.dtd">
<svg version="1.0" xmlns="http://www.w3.org/2000/svg"
 width="154.000000pt" height="152.000000pt" viewBox="0 0 154.000000 152.000000"
 preserveAspectRatio="xMidYMid meet">
<metadata>
Created by potrace 1.16, written by Peter Selinger 2001-2019
</metadata>
<g transform="translate(0.000000,152.000000) scale(0.100000,-0.100000)"
fill="#000000" stroke="none">
<path d="M805 1210 c-3 -5 -15 -10 -26 -10 -19 0 -20 -5 -17 -87 l3 -86 -232
6 -233 7 0 -27 0 -26 229 7 228 7 6 -53 c4 -29 7 -66 7 -83 l0 -30 -235 3
-235 4 0 -23 0 -22 235 6 235 7 0 -98 0 -98 -132 3 c-73 2 -179 4 -235 6
l-103 3 0 -25 0 -24 234 6 233 7 7 -135 c4 -74 5 -139 1 -145 -3 -5 -1 -10 4
-10 12 0 153 61 161 70 3 3 35 25 72 49 80 51 176 151 207 213 23 49 29 128 9
128 -7 0 -36 40 -65 88 -66 112 -154 215 -256 303 -85 72 -92 76 -102 59z
m108 -457 c4 -191 5 -353 3 -359 -2 -5 -31 -25 -65 -43 l-61 -32 5 28 c5 35
14 430 15 656 l0 169 48 -35 47 -35 8 -349z m228 77 c56 -78 60 -88 55 -124
-13 -78 -69 -155 -177 -243 -38 -31 -71 -54 -72 -52 -2 2 -1 148 1 324 l4 320
65 -70 c35 -38 91 -108 124 -155z"/>
</g>
</svg>
