<?xml version="1.0" standalone="no"?>
<!DOCTYPE svg PUBLIC "-//W3C//DTD SVG 20010904//EN"
 "http://www.w3.org/TR/2001/REC-SVG-20010904/DTD/svg10.dtd">
<svg version="1.0" xmlns="http://www.w3.org/2000/svg"
 width="194.000000pt" height="140.000000pt" viewBox="0 0 194.000000 140.000000"
 preserveAspectRatio="xMidYMid meet">
<metadata>
Created by potrace 1.16, written by Peter Selinger 2001-2019
</metadata>
<g transform="translate(0.000000,140.000000) scale(0.100000,-0.100000)"
fill="#000000" stroke="none">
<path d="M700 1076 c0 -21 18 -46 71 -101 l71 -74 -271 6 -271 6 0 -26 0 -27
148 0 c81 1 208 5 282 10 l135 10 95 -95 95 -95 -105 -104 -105 -104 -135 8
c-74 5 -197 9 -272 9 l-138 1 0 -29 c0 -27 2 -28 43 -25 23 2 140 5 261 8
l219 4 -58 -58 c-52 -53 -56 -59 -43 -79 13 -21 17 -21 300 -21 l287 1 82 87
c45 48 120 133 167 190 68 83 83 107 76 122 -11 23 -159 199 -253 300 -65 71
-71 74 -87 58 -16 -16 -10 -24 104 -145 66 -70 144 -149 174 -175 l53 -47
-172 -173 c-95 -95 -173 -179 -173 -187 0 -7 -6 -11 -14 -8 -8 3 -120 9 -250
13 l-235 7 59 61 c32 34 86 95 120 136 34 41 75 90 91 108 16 19 29 36 29 39
0 9 -124 158 -216 259 l-92 101 221 6 c122 4 240 10 262 14 l40 6 -30 9 c-16
4 -150 11 -297 15 l-268 6 0 -27z"/>
<path d="M300 708 l0 -28 98 0 c115 0 485 19 491 26 13 12 -31 16 -298 22
l-291 7 0 -27z"/>
</g>
</svg>
