<?xml version="1.0" standalone="no"?>
<!DOCTYPE svg PUBLIC "-//W3C//DTD SVG 20010904//EN"
 "http://www.w3.org/TR/2001/REC-SVG-20010904/DTD/svg10.dtd">
<svg version="1.0" xmlns="http://www.w3.org/2000/svg"
 width="214.000000pt" height="115.000000pt" viewBox="0 0 214.000000 115.000000"
 preserveAspectRatio="xMidYMid meet">
<metadata>
Created by potrace 1.16, written by Peter Selinger 2001-2019
</metadata>
<g transform="translate(0.000000,115.000000) scale(0.100000,-0.100000)"
fill="#000000" stroke="none">
<path d="M797 819 c-8 -41 8 -477 18 -501 7 -17 37 -18 439 -18 455 0 562 5
570 25 2 7 8 123 12 257 l7 245 -39 6 c-21 4 -255 10 -520 13 l-481 7 -6 -34z
m998 -38 l0 -35 -305 3 c-167 1 -308 5 -312 7 -5 3 -8 14 -8 25 0 18 8 19 113
20 61 1 193 5 292 9 239 9 220 12 220 -29z m-925 -1 c0 -11 -7 -20 -15 -20 -8
0 -15 9 -15 20 0 11 7 20 15 20 8 0 15 -9 15 -20z m80 0 c0 -13 -7 -20 -20
-20 -13 0 -20 7 -20 20 0 13 7 20 20 20 13 0 20 -7 20 -20z m100 -6 c0 -20 -4
-25 -16 -20 -9 3 -22 6 -30 6 -8 0 -14 9 -14 20 0 16 7 20 30 20 26 0 30 -4
30 -26z m90 1 c0 -20 -5 -25 -24 -25 -14 0 -27 4 -30 9 -11 18 6 41 30 41 19
0 24 -5 24 -25z m658 -92 l-3 -47 -220 2 c-121 1 -262 5 -312 9 l-93 6 0 28
c0 28 2 29 48 30 171 5 513 16 545 17 l38 2 -3 -47z m-928 -3 c0 -23 -4 -30
-20 -30 -16 0 -20 7 -20 30 0 23 4 30 20 30 16 0 20 -7 20 -30z m80 0 c0 -23
-4 -30 -20 -30 -16 0 -20 7 -20 30 0 23 4 30 20 30 16 0 20 -7 20 -30z m100 1
c0 -50 -66 -50 -68 0 -1 27 2 29 34 29 31 0 34 -3 34 -29z m90 -1 c0 -27 -3
-30 -30 -30 -27 0 -30 3 -30 30 0 27 3 30 30 30 27 0 30 -3 30 -30z m660 -107
l0 -46 -172 6 c-95 4 -237 7 -315 7 l-143 0 0 30 c0 26 4 30 28 31 15 1 135 5
267 8 132 4 261 8 288 9 l47 2 0 -47z m-923 -4 c2 -26 -1 -30 -20 -27 -16 2
-23 11 -25 31 -3 23 0 27 20 27 19 0 23 -6 25 -31z m73 1 c0 -23 -4 -30 -20
-30 -16 0 -20 7 -20 30 0 23 4 30 20 30 16 0 20 -7 20 -30z m100 0 c0 -28 -3
-30 -35 -30 -32 0 -35 2 -35 30 0 28 3 30 35 30 32 0 35 -2 35 -30z m90 0 c0
-27 -3 -30 -30 -30 -27 0 -30 3 -30 30 0 27 3 30 30 30 27 0 30 -3 30 -30z
m660 -99 c0 -23 1 -44 3 -48 2 -8 -329 -6 -510 3 l-123 7 0 33 0 34 158 2 c86
2 228 4 315 6 l157 3 0 -40z m-920 -6 c0 -31 -3 -35 -25 -35 -22 0 -25 4 -25
35 0 31 3 35 25 35 22 0 25 -4 25 -35z m78 -2 c3 -31 1 -33 -27 -33 -27 0 -31
3 -31 28 0 35 8 44 35 40 15 -2 21 -12 23 -35z m100 0 c3 -32 2 -33 -37 -33
-40 0 -41 1 -41 36 0 35 1 35 38 32 34 -3 37 -6 40 -35z m86 5 c7 -37 9 -35
-29 -40 -28 -3 -30 -1 -33 35 -3 35 -2 37 26 37 25 0 30 -5 36 -32z m666 -106
l0 -38 -92 3 c-51 1 -195 6 -320 9 -215 6 -228 7 -228 25 0 11 1 20 3 20 2 2
279 10 565 17 l72 2 0 -38z m-930 -2 c0 -15 -7 -20 -29 -20 -24 0 -28 3 -24
20 3 13 14 20 29 20 17 0 24 -6 24 -20z m80 0 c0 -16 -7 -20 -30 -20 -23 0
-30 4 -30 20 0 16 7 20 30 20 23 0 30 -4 30 -20z m100 0 c0 -17 -7 -20 -40
-20 -33 0 -40 3 -40 20 0 17 7 20 40 20 33 0 40 -3 40 -20z m90 0 c0 -16 -7
-20 -35 -20 -28 0 -35 4 -35 20 0 16 7 20 35 20 28 0 35 -4 35 -20z"/>
<path d="M300 763 c0 -15 18 -16 209 -10 299 10 313 26 24 26 -211 1 -233 -1
-233 -16z"/>
<path d="M300 588 c0 -21 1 -21 158 -14 210 9 302 17 302 27 0 5 -103 9 -230
9 -229 0 -230 0 -230 -22z"/>
<path d="M300 388 c0 -21 1 -21 168 -14 205 8 292 16 292 27 0 5 -103 9 -230
9 -229 0 -230 0 -230 -22z"/>
</g>
</svg>
