<?xml version="1.0" standalone="no"?>
<!DOCTYPE svg PUBLIC "-//W3C//DTD SVG 20010904//EN"
 "http://www.w3.org/TR/2001/REC-SVG-20010904/DTD/svg10.dtd">
<svg version="1.0" xmlns="http://www.w3.org/2000/svg"
 width="127.000000pt" height="135.000000pt" viewBox="0 0 127.000000 135.000000"
 preserveAspectRatio="xMidYMid meet">
<metadata>
Created by potrace 1.16, written by Peter Selinger 2001-2019
</metadata>
<g transform="translate(0.000000,135.000000) scale(0.100000,-0.100000)"
fill="#000000" stroke="none">
<path d="M803 989 c3 -35 3 -54 -1 -42 -7 23 -7 23 -38 4 -32 -20 -64 -74 -64
-110 0 -35 26 -86 55 -109 57 -45 142 -37 190 19 47 57 28 171 -35 204 -48 25
-68 20 -73 -17 -2 -18 -4 -2 -3 37 1 61 -1 70 -18 73 -17 4 -18 -1 -13 -59z
m36 -196 c0 -31 -2 -34 -9 -18 -12 28 -12 55 0 55 6 0 10 -17 9 -37z"/>
<path d="M300 847 c0 -24 1 -24 103 -20 167 6 267 14 267 22 0 9 -171 21 -292
21 -75 0 -78 -1 -78 -23z"/>
<path d="M300 690 l0 -23 182 7 c100 3 184 9 187 11 14 14 -27 19 -189 23
l-180 4 0 -22z"/>
<path d="M813 577 c3 -40 3 -62 0 -49 -6 31 -27 28 -67 -12 -56 -56 -59 -127
-9 -186 23 -28 29 -30 100 -30 71 0 77 2 104 31 25 27 29 39 29 90 0 53 -3 61
-34 92 -19 19 -45 36 -59 39 -22 4 -27 1 -31 -21 -2 -14 -3 4 -1 40 4 61 2 67
-17 72 -20 6 -20 3 -15 -66z m14 -129 c-3 -8 -6 -5 -6 6 -1 11 2 17 5 13 3 -3
4 -12 1 -19z m22 -73 c0 -26 -2 -27 -9 -10 -5 11 -9 31 -9 45 -1 20 1 22 9 10
5 -8 9 -28 9 -45z"/>
<path d="M300 514 l0 -27 143 7 c284 13 297 30 30 41 l-173 7 0 -28z"/>
</g>
</svg>
