<?xml version="1.0" standalone="no"?>
<!DOCTYPE svg PUBLIC "-//W3C//DTD SVG 20010904//EN"
 "http://www.w3.org/TR/2001/REC-SVG-20010904/DTD/svg10.dtd">
<svg version="1.0" xmlns="http://www.w3.org/2000/svg"
 width="131.000000pt" height="138.000000pt" viewBox="0 0 131.000000 138.000000"
 preserveAspectRatio="xMidYMid meet">
<metadata>
Created by potrace 1.16, written by Peter Selinger 2001-2019
</metadata>
<g transform="translate(0.000000,138.000000) scale(0.100000,-0.100000)"
fill="#000000" stroke="none">
<path d="M305 928 c4 -84 13 -251 20 -370 8 -120 12 -224 9 -232 -8 -21 15
-31 29 -13 7 9 91 59 187 113 237 131 448 253 455 264 7 11 -20 29 -245 157
-290 165 -418 233 -440 233 -21 0 -21 -2 -15 -152z m140 27 c2 -11 9 -103 15
-205 6 -102 14 -214 17 -250 l5 -65 -57 -28 c-32 -15 -58 -27 -60 -25 -1 2 -5
146 -9 320 l-6 318 45 -22 c28 -14 47 -30 50 -43z m145 -60 c50 -25 90 -46 90
-48 0 -1 -38 0 -85 2 -73 3 -85 1 -85 -13 0 -14 17 -16 118 -16 110 -1 120 -3
172 -30 l55 -30 -170 2 c-152 1 -170 0 -173 -15 -3 -15 8 -17 95 -16 54 0 139
4 188 8 84 7 94 6 143 -18 l53 -25 -53 -26 c-50 -25 -58 -26 -143 -19 -49 4
-134 8 -188 8 -87 1 -98 -1 -95 -16 3 -15 21 -16 173 -15 l170 2 -60 -30 c-55
-27 -69 -29 -172 -30 -97 0 -113 -2 -113 -16 0 -14 12 -16 85 -13 47 2 85 3
85 2 0 -1 -40 -22 -90 -47 l-90 -46 0 147 c0 82 -3 192 -7 246 -3 53 -3 97 1
97 3 0 47 -20 96 -45z"/>
</g>
</svg>
