<?xml version="1.0" standalone="no"?>
<!DOCTYPE svg PUBLIC "-//W3C//DTD SVG 20010904//EN"
 "http://www.w3.org/TR/2001/REC-SVG-20010904/DTD/svg10.dtd">
<svg version="1.0" xmlns="http://www.w3.org/2000/svg"
 width="197.000000pt" height="140.000000pt" viewBox="0 0 197.000000 140.000000"
 preserveAspectRatio="xMidYMid meet">
<metadata>
Created by potrace 1.16, written by Peter Selinger 2001-2019
</metadata>
<g transform="translate(0.000000,140.000000) scale(0.100000,-0.100000)"
fill="#000000" stroke="none">
<path d="M720 1076 c0 -16 10 -36 25 -50 l24 -23 -234 5 -235 5 0 -28 0 -28
248 6 247 7 141 -141 142 -142 -148 -148 -147 -148 -241 6 -242 6 0 -29 0 -30
63 3 c224 10 386 9 377 -2 -7 -8 -4 -17 9 -29 16 -15 49 -16 300 -16 l282 1
63 67 c35 37 96 105 136 152 40 47 87 103 106 124 35 40 40 52 26 58 -4 2 -46
50 -94 108 -47 58 -120 141 -161 185 -72 76 -76 79 -93 63 -17 -17 -13 -22 87
-125 57 -59 136 -138 174 -175 l70 -67 -172 -173 c-95 -95 -173 -179 -173
-187 0 -7 -6 -11 -14 -8 -8 3 -118 9 -245 13 -127 4 -228 10 -226 14 3 4 19
11 37 15 23 5 27 9 16 12 -10 2 -18 7 -18 9 0 3 20 26 44 52 51 54 164 189
180 215 6 9 16 17 23 17 7 0 13 7 13 15 0 8 -4 15 -9 15 -4 0 -30 28 -57 63
-27 34 -80 97 -117 140 -37 42 -63 77 -57 77 6 0 8 5 5 10 -3 6 -14 10 -23 10
-15 0 -52 32 -52 44 0 1 98 6 218 9 119 4 235 10 257 14 l40 6 -30 9 c-16 4
-150 11 -297 15 l-268 6 0 -27z"/>
<path d="M300 783 l0 -26 233 7 c246 7 347 14 347 26 0 9 -232 20 -427 20
l-153 0 0 -27z"/>
<path d="M300 606 l0 -29 207 7 c250 8 373 16 373 26 0 9 -201 19 -433 23
l-147 2 0 -29z"/>
</g>
</svg>
