<?xml version="1.0" standalone="no"?>
<!DOCTYPE svg PUBLIC "-//W3C//DTD SVG 20010904//EN"
 "http://www.w3.org/TR/2001/REC-SVG-20010904/DTD/svg10.dtd">
<svg version="1.0" xmlns="http://www.w3.org/2000/svg"
 width="154.000000pt" height="152.000000pt" viewBox="0 0 154.000000 152.000000"
 preserveAspectRatio="xMidYMid meet">
<metadata>
Created by potrace 1.16, written by Peter Selinger 2001-2019
</metadata>
<g transform="translate(0.000000,152.000000) scale(0.100000,-0.100000)"
fill="#000000" stroke="none">
<path d="M805 1210 c-3 -5 -15 -10 -26 -10 -19 0 -20 -5 -17 -87 l3 -86 -232
6 -233 7 0 -27 0 -26 230 7 c219 7 230 7 230 -11 1 -10 3 -34 6 -54 l5 -37
-235 6 -236 5 0 -23 0 -23 235 5 235 5 0 -58 0 -58 -235 6 -235 6 0 -27 0 -27
133 6 c72 3 178 8 235 10 l102 6 0 -66 0 -65 -235 7 -235 6 0 -27 0 -28 183 6
c100 4 206 9 235 12 l52 5 0 -58 0 -59 -192 3 c-106 2 -212 5 -235 6 -39 2
-43 0 -43 -22 l0 -24 241 6 241 6 -4 -69 c-2 -39 0 -70 4 -70 10 0 152 63 158
70 3 3 35 25 72 49 80 51 176 151 207 213 23 49 29 128 9 128 -7 0 -36 40 -65
88 -66 112 -154 215 -256 303 -85 72 -92 76 -102 59z m108 -457 c4 -191 5
-353 3 -359 -2 -5 -32 -25 -65 -43 -61 -32 -62 -32 -56 -9 6 24 12 339 14 651
l1 179 48 -35 47 -35 8 -349z m228 77 c56 -78 60 -88 55 -124 -13 -78 -69
-155 -177 -243 -38 -31 -71 -54 -72 -52 -2 2 -1 148 1 324 l4 320 65 -70 c35
-38 91 -108 124 -155z"/>
</g>
</svg>
