<?xml version="1.0" standalone="no"?>
<!DOCTYPE svg PUBLIC "-//W3C//DTD SVG 20010904//EN"
 "http://www.w3.org/TR/2001/REC-SVG-20010904/DTD/svg10.dtd">
<svg version="1.0" xmlns="http://www.w3.org/2000/svg"
 width="138.000000pt" height="160.000000pt" viewBox="0 0 138.000000 160.000000"
 preserveAspectRatio="xMidYMid meet">
<metadata>
Created by potrace 1.16, written by Peter Selinger 2001-2019
</metadata>
<g transform="translate(0.000000,160.000000) scale(0.100000,-0.100000)"
fill="#000000" stroke="none">
<path d="M845 1211 c-55 -48 -111 -107 -125 -130 l-25 -41 -198 6 c-179 6
-197 5 -197 -10 0 -14 21 -16 194 -16 l195 0 -9 -27 c-4 -16 -11 -40 -14 -56
l-6 -27 -180 6 c-164 7 -180 6 -180 -9 0 -15 19 -17 180 -17 l180 0 -3 -55 -2
-55 -177 0 c-159 0 -178 -2 -178 -17 0 -15 16 -16 180 -10 l180 7 0 -28 c0
-15 3 -37 6 -49 l6 -23 -186 0 c-166 0 -186 -2 -186 -17 0 -15 17 -15 190 -9
189 7 190 7 190 -14 0 -64 205 -320 256 -320 23 0 65 44 119 128 24 36 26 45
14 53 -16 10 -14 12 -83 -97 l-49 -78 -63 69 c-51 56 -174 240 -174 260 0 3
14 5 31 5 17 0 28 4 24 10 -3 6 -19 10 -36 10 -25 0 -29 4 -29 28 0 15 -3 37
-6 50 -6 20 -3 22 35 22 26 0 40 4 36 10 -3 6 -22 10 -41 10 -33 0 -34 1 -34
39 0 57 8 71 40 71 16 0 32 5 35 10 4 6 -8 10 -29 10 -28 0 -36 4 -35 18 0 10
3 12 6 5 5 -14 65 -17 162 -7 98 11 70 24 -50 24 -111 0 -111 0 -105 23 3 12
6 25 6 30 0 4 12 13 28 19 22 9 24 12 9 15 -10 3 -16 10 -14 16 2 8 46 14 123
18 65 4 121 7 124 9 12 6 -80 19 -140 20 l-65 1 85 79 c46 44 87 80 90 79 3 0
19 -28 36 -62 l31 -62 -38 -80 c-21 -44 -39 -88 -39 -97 0 -9 -4 -19 -9 -22
-5 -4 -12 -28 -16 -56 l-7 -49 -106 -3 c-136 -4 -136 -23 0 -23 l97 0 11 -48
c5 -26 10 -51 10 -55 0 -4 -49 -5 -110 -4 -99 3 -110 2 -110 -13 0 -16 11 -17
110 -13 l110 4 40 -61 c39 -60 96 -123 104 -114 2 2 -25 50 -60 106 -51 80
-65 112 -70 155 -8 68 22 183 72 278 29 55 35 76 30 102 -7 37 -67 150 -82
155 -5 1 -54 -37 -109 -86z"/>
<path d="M300 1146 c0 -14 23 -16 224 -16 139 0 227 4 231 10 4 7 -56 10 -172
10 -98 0 -202 3 -230 6 -45 6 -53 4 -53 -10z"/>
<path d="M744 596 c-4 -9 -4 -19 -1 -23 10 -9 217 8 217 18 0 5 -40 9 -89 9
-49 0 -96 3 -105 6 -10 4 -18 0 -22 -10z"/>
<path d="M810 475 c0 -12 17 -15 93 -14 105 1 153 11 98 22 -19 4 -69 7 -112
7 -64 0 -79 -3 -79 -15z"/>
</g>
</svg>
