<?xml version="1.0" standalone="no"?>
<!DOCTYPE svg PUBLIC "-//W3C//DTD SVG 20010904//EN"
 "http://www.w3.org/TR/2001/REC-SVG-20010904/DTD/svg10.dtd">
<svg version="1.0" xmlns="http://www.w3.org/2000/svg"
 width="154.000000pt" height="152.000000pt" viewBox="0 0 154.000000 152.000000"
 preserveAspectRatio="xMidYMid meet">
<metadata>
Created by potrace 1.16, written by Peter Selinger 2001-2019
</metadata>
<g transform="translate(0.000000,152.000000) scale(0.100000,-0.100000)"
fill="#000000" stroke="none">
<path d="M805 1210 c-3 -5 -15 -10 -26 -10 -18 0 -20 -6 -18 -52 l3 -51 -199
2 c-110 1 -215 4 -232 7 -30 4 -33 1 -33 -23 l0 -26 228 6 c126 4 231 5 233 3
2 -3 2 -27 1 -55 l-4 -51 -229 7 -229 6 0 -27 0 -28 203 8 c111 4 216 8 232 8
30 1 30 0 33 -57 l3 -58 -235 7 -236 7 0 -27 0 -28 208 7 c114 4 218 8 232 9
24 1 25 -2 28 -63 l3 -63 -235 7 -236 7 0 -27 0 -28 221 7 c121 4 227 10 235
13 11 4 14 -7 14 -55 l0 -60 -235 6 -235 5 0 -23 0 -23 235 5 235 5 0 -22 c0
-13 3 -36 6 -53 l6 -30 -241 5 -241 6 0 -26 0 -26 83 4 c45 3 153 7 241 9
l158 5 -4 -39 c-2 -22 0 -40 4 -40 10 0 152 62 158 70 3 3 35 25 72 49 80 51
176 151 207 213 23 49 29 128 9 128 -7 0 -36 40 -65 88 -66 112 -154 215 -256
303 -85 72 -92 76 -102 59z m108 -457 c4 -191 5 -353 3 -359 -2 -5 -32 -25
-65 -43 l-62 -33 6 25 c7 25 11 234 14 610 l1 219 48 -35 47 -35 8 -349z m228
77 c56 -78 60 -88 55 -124 -13 -78 -69 -155 -177 -243 -38 -31 -71 -54 -72
-52 -2 2 -1 148 1 324 l4 320 65 -70 c35 -38 91 -108 124 -155z"/>
</g>
</svg>
