<?xml version="1.0" standalone="no"?>
<!DOCTYPE svg PUBLIC "-//W3C//DTD SVG 20010904//EN"
 "http://www.w3.org/TR/2001/REC-SVG-20010904/DTD/svg10.dtd">
<svg version="1.0" xmlns="http://www.w3.org/2000/svg"
 width="130.000000pt" height="277.000000pt" viewBox="0 0 130.000000 277.000000"
 preserveAspectRatio="xMidYMid meet">
<metadata>
Created by potrace 1.16, written by Peter Selinger 2001-2019
</metadata>
<g transform="translate(0.000000,277.000000) scale(0.100000,-0.100000)"
fill="#000000" stroke="none">
<path d="M540 2463 c-40 -13 -63 -30 -77 -56 -8 -16 -34 -54 -58 -85 -46 -60
-108 -177 -103 -193 2 -5 32 34 68 87 36 54 70 99 76 101 6 2 14 -5 17 -16 6
-24 63 -61 95 -61 27 0 58 14 87 40 19 17 24 15 158 -82 76 -55 141 -97 144
-94 7 6 -3 15 -159 143 -77 62 -118 102 -118 115 0 34 -28 75 -64 92 -36 17
-41 18 -66 9z"/>
<path d="M311 2107 c-14 -17 31 -130 85 -215 19 -29 34 -66 34 -82 0 -86 83
-135 160 -95 36 19 62 66 58 105 -2 25 9 36 118 117 155 113 178 132 171 139
-3 3 -74 -39 -158 -94 l-153 -100 -24 19 c-32 25 -88 24 -129 -1 l-33 -19 -26
45 c-15 25 -39 76 -54 114 -31 82 -33 85 -49 67z"/>
<path d="M730 1300 c-216 -130 -320 -253 -320 -379 0 -73 13 -118 62 -218 58
-117 294 -420 312 -402 4 4 -15 33 -42 65 -51 61 -192 262 -192 274 0 3 15 4
34 2 46 -5 92 21 114 64 16 34 26 39 156 88 77 28 141 56 143 62 2 7 -61 54
-141 105 -125 81 -145 98 -150 125 -7 34 -50 80 -81 86 -16 3 -11 10 29 37 27
19 82 53 122 76 56 32 71 44 62 53 -17 17 -16 17 -108 -38z m-179 -335 c41
-22 85 -13 124 24 l30 29 90 -52 c50 -29 112 -65 139 -81 l50 -28 -139 -40
c-112 -33 -140 -38 -144 -26 -2 7 -17 26 -32 41 -51 52 -145 33 -174 -35 l-12
-30 -17 49 c-21 61 -21 144 1 188 l16 36 18 -30 c10 -16 32 -36 50 -45z"/>
</g>
</svg>
