<?xml version="1.0" standalone="no"?>
<!DOCTYPE svg PUBLIC "-//W3C//DTD SVG 20010904//EN"
 "http://www.w3.org/TR/2001/REC-SVG-20010904/DTD/svg10.dtd">
<svg version="1.0" xmlns="http://www.w3.org/2000/svg"
 width="127.000000pt" height="138.000000pt" viewBox="0 0 127.000000 138.000000"
 preserveAspectRatio="xMidYMid meet">
<metadata>
Created by potrace 1.16, written by Peter Selinger 2001-2019
</metadata>
<g transform="translate(0.000000,138.000000) scale(0.100000,-0.100000)"
fill="#000000" stroke="none">
<path d="M920 1056 c-19 -13 -113 -72 -209 -131 l-175 -107 -105 21 c-58 12
-112 21 -120 21 -11 0 -13 -31 -9 -169 2 -94 6 -172 9 -176 4 -3 54 4 113 16
l107 21 107 -65 c131 -79 319 -187 326 -187 3 0 5 176 6 390 0 215 -3 390 -7
389 -5 0 -24 -11 -43 -23z m28 -663 l-3 -63 -75 50 -75 49 3 71 c3 61 6 70 20
66 10 -3 34 -8 55 -12 59 -10 44 11 -18 25 -49 11 -55 15 -55 38 0 25 1 25 56
18 40 -5 54 -3 50 4 -4 6 -13 11 -19 11 -7 0 -28 5 -48 10 -31 9 -36 13 -31
35 2 14 7 25 11 25 3 -1 25 -5 49 -9 59 -12 53 3 -9 20 -45 12 -52 18 -55 42
-3 30 -1 30 64 18 23 -5 42 -5 42 0 0 8 -63 29 -87 29 -7 0 -13 19 -15 48 -2
34 -7 47 -18 47 -11 0 -15 -11 -14 -39 l1 -38 -50 6 c-62 9 -62 -14 1 -27 32
-6 42 -13 42 -28 0 -23 -3 -35 -10 -32 -3 1 -22 4 -44 8 -56 11 -43 -16 14
-30 34 -8 44 -15 45 -33 2 -21 -1 -22 -47 -16 -64 9 -63 -10 2 -26 44 -10 50
-15 50 -37 0 -24 -2 -25 -37 -18 -21 4 -42 7 -47 8 -5 1 -10 -3 -13 -10 -2 -6
10 -14 29 -18 70 -14 68 -11 68 -80 l0 -64 -132 85 c-121 77 -134 82 -142 65
-8 -20 -27 -25 -128 -37 l-57 -6 6 133 c3 74 7 136 9 138 1 1 42 -2 90 -9 58
-7 92 -17 99 -27 11 -14 38 1 211 119 l199 134 8 -290 c4 -160 6 -319 5 -353z"/>
</g>
</svg>
