<?xml version="1.0" standalone="no"?>
<!DOCTYPE svg PUBLIC "-//W3C//DTD SVG 20010904//EN"
 "http://www.w3.org/TR/2001/REC-SVG-20010904/DTD/svg10.dtd">
<svg version="1.0" xmlns="http://www.w3.org/2000/svg"
 width="132.000000pt" height="139.000000pt" viewBox="0 0 132.000000 139.000000"
 preserveAspectRatio="xMidYMid meet">
<metadata>
Created by potrace 1.16, written by Peter Selinger 2001-2019
</metadata>
<g transform="translate(0.000000,139.000000) scale(0.100000,-0.100000)"
fill="#000000" stroke="none">
<path d="M915 1053 c-33 -20 -131 -81 -219 -135 -87 -54 -164 -98 -171 -98 -7
0 -15 -4 -17 -8 -1 -5 -45 -2 -96 6 -81 13 -95 13 -103 1 -11 -16 -8 -254 3
-265 4 -4 46 0 94 10 l85 17 137 -84 c127 -77 335 -197 343 -197 2 0 4 21 4
47 2 398 4 420 28 428 l22 8 -24 4 -24 5 7 149 c4 82 3 149 -1 149 -4 0 -35
-17 -68 -37z m35 -138 l0 -125 -45 0 -45 0 0 59 c0 68 -18 98 -50 81 -30 -16
-99 -103 -111 -140 -7 -19 -23 -57 -36 -83 -30 -60 -25 -84 6 -33 l24 37 22
-39 c12 -21 32 -52 45 -69 l22 -31 -27 -46 c-16 -28 -31 -43 -38 -39 -79 45
-166 107 -161 114 3 5 -2 9 -12 9 -14 0 -16 7 -10 38 3 20 6 56 6 80 0 31 4
42 15 42 8 0 15 6 16 13 1 11 353 254 372 256 4 1 7 -55 7 -124z m-120 -76 l0
-49 -51 0 -51 0 17 28 c27 42 67 82 77 76 4 -3 8 -27 8 -55z m-387 -54 l67 -7
0 -84 c0 -46 -1 -84 -2 -84 -26 -5 -183 -28 -183 -27 0 1 1 51 3 110 4 105 5
109 25 104 12 -3 52 -9 90 -12z m387 -127 l-1 -113 -25 30 c-34 41 -84 143
-84 172 0 21 4 23 55 23 l55 0 0 -112z m122 -105 c3 -120 4 -220 2 -221 -2 -3
-176 110 -197 129 -5 3 3 25 17 47 33 52 53 47 90 -24 16 -30 32 -54 37 -54
13 0 12 0 -22 74 -30 65 -31 69 -24 166 l7 100 43 0 42 0 5 -217z"/>
</g>
</svg>
