<?xml version="1.0" standalone="no"?>
<!DOCTYPE svg PUBLIC "-//W3C//DTD SVG 20010904//EN"
 "http://www.w3.org/TR/2001/REC-SVG-20010904/DTD/svg10.dtd">
<svg version="1.0" xmlns="http://www.w3.org/2000/svg"
 width="135.000000pt" height="139.000000pt" viewBox="0 0 135.000000 139.000000"
 preserveAspectRatio="xMidYMid meet">
<metadata>
Created by potrace 1.16, written by Peter Selinger 2001-2019
</metadata>
<g transform="translate(0.000000,139.000000) scale(0.100000,-0.100000)"
fill="#000000" stroke="none">
<path d="M1030 1082 c-8 -4 -26 -14 -40 -23 -14 -9 -103 -65 -198 -124 l-173
-107 -114 7 c-106 6 -115 6 -122 -12 -4 -10 -24 -41 -45 -70 -21 -29 -38 -58
-38 -64 0 -16 92 -159 103 -159 4 0 7 5 7 10 0 6 40 10 100 10 l100 0 88 -54
c101 -62 331 -196 337 -196 2 0 4 8 4 18 0 9 3 187 7 395 4 207 5 377 3 376
-2 0 -11 -3 -19 -7z m-20 -159 c0 -65 3 -226 7 -357 4 -143 3 -237 -3 -233 -5
3 -93 61 -196 129 -102 68 -193 128 -202 133 -13 8 -15 24 -10 95 l7 86 131
86 c72 48 158 107 191 132 33 24 63 45 68 45 4 1 7 -52 7 -116z m-435 -135 c3
-13 5 -63 3 -113 l-3 -90 -93 0 -92 0 -29 51 -29 50 33 55 c33 52 35 54 87 60
108 12 117 11 123 -13z"/>
<path d="M832 878 c-32 -35 -74 -126 -74 -161 0 -47 30 -115 79 -179 24 -32
46 -58 48 -58 16 0 86 122 100 174 17 61 17 66 0 110 -21 55 -89 136 -114 136
-10 0 -27 -10 -39 -22z m58 -23 c17 -20 22 -103 9 -143 -8 -25 -8 -45 2 -80 7
-26 16 -49 20 -52 5 -3 -1 -21 -13 -40 l-20 -34 -24 29 c-33 41 -74 125 -80
167 -7 37 20 103 59 146 24 26 30 27 47 7z m59 -69 c26 -42 27 -107 2 -161
l-18 -40 -12 44 c-10 35 -10 54 -1 88 7 23 10 56 7 73 -8 39 -3 38 22 -4z"/>
<path d="M839 828 c-6 -32 -1 -218 6 -230 7 -12 11 19 12 102 1 67 -2 122 -8
125 -5 4 -9 5 -10 3z"/>
</g>
</svg>
