<?xml version="1.0" standalone="no"?>
<!DOCTYPE svg PUBLIC "-//W3C//DTD SVG 20010904//EN"
 "http://www.w3.org/TR/2001/REC-SVG-20010904/DTD/svg10.dtd">
<svg version="1.0" xmlns="http://www.w3.org/2000/svg"
 width="131.000000pt" height="139.000000pt" viewBox="0 0 131.000000 139.000000"
 preserveAspectRatio="xMidYMid meet">
<metadata>
Created by potrace 1.16, written by Peter Selinger 2001-2019
</metadata>
<g transform="translate(0.000000,139.000000) scale(0.100000,-0.100000)"
fill="#000000" stroke="none">
<path d="M950 1077 c-35 -19 -194 -116 -307 -188 l-96 -61 -113 7 c-106 6
-113 6 -123 -13 -12 -22 -15 -229 -5 -256 5 -13 25 -16 119 -16 l113 0 79 -49
c99 -61 340 -201 346 -201 3 0 6 66 6 147 1 114 5 151 16 163 20 22 19 36 -1
19 -14 -12 -16 -9 -13 21 2 19 12 45 23 58 11 12 14 22 8 22 -7 0 -12 -4 -12
-10 0 -5 -3 -10 -7 -10 -5 0 -7 64 -5 142 2 79 2 164 0 190 -3 48 -3 48 -28
35z m-10 -135 l0 -97 -154 -154 c-140 -140 -155 -152 -175 -142 -11 7 -21 15
-21 18 0 4 66 74 147 157 l147 151 -153 -152 c-151 -150 -154 -152 -177 -136
-22 14 -24 22 -24 98 l0 82 85 56 c47 32 87 57 90 57 3 0 13 7 22 15 37 30
198 144 206 145 4 0 7 -44 7 -98z m-126 -313 c-126 -126 -127 -127 -151 -112
l-24 16 148 149 148 148 3 -36 c3 -36 -2 -43 -124 -165z m-311 80 c3 -56 3
-108 0 -115 -4 -10 -29 -14 -95 -14 l-91 0 7 38 c3 20 6 69 6 109 l0 72 53 4
c28 2 66 4 83 5 l31 2 6 -101z m400 -76 c-22 -21 -61 -63 -88 -93 -30 -33 -15
-22 38 30 l87 85 0 -38 c0 -31 -7 -43 -35 -69 -20 -17 -33 -33 -30 -36 3 -3
18 7 34 22 l30 28 6 -33 c3 -19 5 -71 3 -117 l-3 -82 -119 80 c-65 43 -121 82
-124 85 -3 3 48 60 113 126 l120 120 3 -35 c3 -29 -3 -41 -35 -73z"/>
<path d="M675 760 c-71 -71 -125 -130 -119 -130 6 0 66 59 133 130 68 72 121
130 119 130 -2 0 -62 -58 -133 -130z"/>
<path d="M615 790 c-43 -44 -77 -82 -74 -84 3 -3 41 30 84 74 43 44 77 82 74
84 -3 3 -41 -30 -84 -74z"/>
</g>
</svg>
