<?xml version="1.0" standalone="no"?>
<!DOCTYPE svg PUBLIC "-//W3C//DTD SVG 20010904//EN"
 "http://www.w3.org/TR/2001/REC-SVG-20010904/DTD/svg10.dtd">
<svg version="1.0" xmlns="http://www.w3.org/2000/svg"
 width="156.000000pt" height="133.000000pt" viewBox="0 0 156.000000 133.000000"
 preserveAspectRatio="xMidYMid meet">
<metadata>
Created by potrace 1.16, written by Peter Selinger 2001-2019
</metadata>
<g transform="translate(0.000000,133.000000) scale(0.100000,-0.100000)"
fill="#000000" stroke="none">
<path d="M449 956 c-84 -131 -152 -266 -140 -280 7 -9 7 -16 -1 -24 -8 -8 8
-44 57 -134 74 -137 135 -224 144 -210 3 5 130 12 281 15 309 8 460 16 460 27
0 9 -245 19 -543 23 l-197 2 0 -25 c-1 -16 -32 39 -84 145 l-82 170 73 150 73
150 70 3 70 3 0 -75 c0 -41 5 -121 12 -177 l11 -102 -29 -24 c-16 -12 -32 -23
-36 -23 -5 0 -8 29 -8 65 0 50 -3 65 -15 65 -10 0 -15 -15 -17 -57 l-3 -58
-27 39 c-21 31 -29 36 -34 23 -3 -9 5 -30 20 -50 14 -19 26 -37 26 -40 0 -4
-22 -7 -50 -7 -37 0 -50 -4 -50 -14 0 -11 14 -16 46 -18 l47 -3 -36 -25 c-26
-18 -33 -30 -27 -40 7 -11 16 -7 46 20 l38 33 7 -24 c4 -13 8 -40 9 -59 2 -31
4 -28 12 20 8 44 12 51 22 39 38 -51 57 -71 62 -66 3 3 -10 28 -30 55 l-35 50
86 7 c98 9 94 24 -7 25 l-65 1 28 24 c28 25 31 25 206 25 98 0 219 3 269 6
l92 7 0 -33 c0 -60 22 -210 31 -210 5 0 9 54 9 119 0 86 3 121 13 124 9 4 9 8
0 14 -8 6 -12 63 -12 188 -1 98 -5 183 -10 188 -4 4 -136 10 -292 13 -156 2
-320 6 -364 8 l-80 3 -46 -71z m739 -24 l3 -53 -168 6 c-92 4 -173 8 -179 10
-7 2 -9 17 -5 42 l6 38 130 6 c72 3 148 5 170 5 l40 -1 3 -53z m-478 -2 c0
-33 -3 -40 -20 -40 -17 0 -20 7 -20 40 0 33 3 40 20 40 17 0 20 -7 20 -40z
m90 0 c0 -36 -2 -40 -25 -40 -22 0 -25 4 -25 40 0 36 3 40 25 40 23 0 25 -4
25 -40z m390 -121 l0 -52 -92 7 c-50 3 -129 6 -175 6 l-83 0 0 40 0 39 113 4
c61 1 140 4 175 5 l62 2 0 -51z m-480 1 c0 -29 -4 -40 -15 -40 -8 0 -15 4 -15
9 0 5 -3 23 -6 40 -6 27 -4 31 15 31 18 0 21 -6 21 -40z m90 0 c0 -36 -2 -40
-25 -40 -22 0 -25 4 -25 40 0 36 3 40 25 40 23 0 25 -4 25 -40z m390 -126 l0
-57 -82 6 c-46 4 -126 7 -178 7 l-95 0 3 45 4 44 116 4 c65 1 143 4 175 5 l57
2 0 -56z m-465 6 c4 -22 11 -40 16 -40 5 0 9 18 9 40 0 38 2 40 30 40 19 0 30
-5 30 -14 0 -7 3 -28 6 -45 l7 -31 -78 0 -77 0 6 43 c3 23 5 43 5 45 1 1 10 2
20 2 15 0 21 -10 26 -40z"/>
</g>
</svg>
