<?xml version="1.0" standalone="no"?>
<!DOCTYPE svg PUBLIC "-//W3C//DTD SVG 20010904//EN"
 "http://www.w3.org/TR/2001/REC-SVG-20010904/DTD/svg10.dtd">
<svg version="1.0" xmlns="http://www.w3.org/2000/svg"
 width="202.000000pt" height="143.000000pt" viewBox="0 0 202.000000 143.000000"
 preserveAspectRatio="xMidYMid meet">
<metadata>
Created by potrace 1.16, written by Peter Selinger 2001-2019
</metadata>
<g transform="translate(0.000000,143.000000) scale(0.100000,-0.100000)"
fill="#000000" stroke="none">
<path d="M646 1040 c-79 -80 -93 -90 -125 -90 l-36 0 85 88 85 87 -90 -87
c-83 -81 -94 -88 -130 -88 l-39 0 64 68 c45 47 39 41 -23 -18 -48 -46 -87 -86
-87 -89 0 -2 9 4 20 14 18 16 20 16 20 2 0 -11 8 -17 22 -17 19 0 15 -7 -28
-48 -27 -26 -55 -57 -63 -67 -8 -11 17 10 55 48 60 58 75 67 106 67 l36 0
-109 -107 c-60 -59 -109 -111 -109 -117 0 -6 20 10 45 34 32 31 45 39 45 27 0
-9 8 -17 17 -17 12 0 -2 -20 -42 -62 -63 -66 -41 -52 32 20 35 34 50 42 81 42
l37 0 -90 -92 -90 -93 95 93 c88 85 99 92 135 92 l40 0 -77 -77 c-64 -64 -81
-76 -108 -75 -30 1 -32 -1 -27 -26 3 -17 -1 -34 -11 -47 -13 -15 -10 -14 9 3
26 23 99 42 99 26 0 -4 -19 -29 -42 -54 -37 -39 -35 -37 12 7 44 42 63 53 88
53 18 0 32 -3 32 -7 0 -4 -30 -39 -67 -78 -67 -69 -66 -69 13 8 73 71 84 78
115 75 l34 -3 -87 -88 c-48 -48 -84 -87 -80 -87 4 0 48 41 97 90 79 79 94 90
125 90 l35 0 -105 -106 c-58 -58 -96 -102 -85 -96 11 6 62 53 113 105 l93 96
72 6 c63 5 106 15 64 15 -9 0 -17 2 -17 4 0 2 41 45 92 95 87 86 93 90 110 74
18 -16 10 -26 -189 -227 -114 -116 -192 -196 -173 -178 28 25 39 29 48 20 7
-7 12 -19 12 -27 0 -14 20 -16 146 -14 80 0 162 4 181 8 24 4 33 3 28 -4 -3
-6 -2 -11 4 -11 5 0 13 5 16 10 3 6 22 10 41 10 26 0 33 -3 28 -12 -6 -10 -5
-10 7 -1 8 7 35 15 59 19 43 7 44 7 30 -12 -14 -18 -14 -18 6 -1 11 9 25 17
30 17 6 0 80 75 164 167 85 92 148 163 140 159 -8 -4 -3 4 13 18 15 14 27 29
27 34 0 5 -14 24 -32 41 -28 27 -31 34 -20 51 17 28 15 36 -6 17 -14 -13 -21
-14 -30 -5 -17 17 -15 28 11 57 l22 26 -27 -24 c-27 -24 -28 -24 -48 -6 -20
19 -20 19 12 54 l33 36 -32 -29 c-32 -29 -33 -29 -53 -11 l-20 19 32 35 33 36
-36 -33 -35 -32 -20 21 c-16 18 -17 22 -4 32 8 7 22 21 30 32 8 11 0 7 -18
-10 -30 -27 -33 -28 -49 -13 -15 16 -15 19 1 45 l17 28 -19 -22 c-19 -22 -20
-22 -37 -3 -15 16 -15 22 -5 35 8 9 8 15 2 15 -6 0 -13 -4 -17 -10 -3 -5 -12
-7 -19 -4 -15 6 -40 -21 -32 -34 3 -5 -53 -67 -124 -137 -71 -71 -127 -131
-125 -134 3 -3 29 20 59 50 29 30 87 87 130 128 72 70 77 74 93 58 17 -16 10
-25 -117 -152 l-135 -135 -32 37 c-18 21 -32 42 -33 48 0 13 262 275 276 275
6 0 11 7 11 15 0 11 -4 12 -13 4 -17 -14 -77 -2 -68 14 5 8 2 8 -7 0 -7 -7
-30 -13 -52 -13 -28 0 -36 3 -31 13 6 10 4 10 -7 0 -14 -14 -79 -18 -79 -5 0
6 -140 7 -302 3 -22 -1 -28 -6 -28 -24 0 -14 -22 -45 -63 -85 -52 -52 -68 -62
-97 -62 l-35 0 90 90 c49 50 85 90 80 90 -6 0 -50 -41 -99 -90z m564 32 c0 -4
-43 -50 -95 -102 l-95 -95 -42 43 -43 42 55 55 c48 48 59 55 94 55 l40 0 -74
-77 -75 -78 80 77 c44 42 89 78 100 81 33 8 55 7 55 -1z m-25 -117 c-123 -121
-128 -125 -147 -108 -18 16 -15 20 89 125 100 100 110 108 147 108 l39 0 -128
-125z m-268 88 c-25 -25 -28 -26 -43 -11 -23 23 -9 38 34 38 l37 0 -28 -27z
m68 -23 c-27 -27 -52 -50 -55 -50 -3 0 -11 10 -18 21 -12 19 -10 24 14 50 22
23 37 29 68 29 l40 0 -49 -50z m-148 -58 c-12 -13 -26 -17 -54 -14 -29 4 -34
7 -22 16 8 6 23 23 34 36 11 14 1 8 -21 -12 -30 -29 -48 -38 -74 -38 l-34 0
54 55 55 55 39 -39 c38 -38 39 -41 23 -59z m595 11 c18 -16 8 -28 -274 -312
l-293 -296 291 288 c287 285 311 304 327 263 3 -7 -114 -132 -267 -285 l-272
-272 -46 2 -46 3 100 110 c56 61 119 134 141 163 22 29 43 53 48 53 5 0 9 9 9
21 0 13 46 67 128 148 70 71 129 129 131 130 3 0 13 -7 23 -16z m-552 -18 c11
-13 8 -15 -14 -15 -25 0 -33 10 -19 23 10 11 19 8 33 -8z m-250 -110 c-67 -68
-78 -75 -113 -75 l-39 0 77 73 c63 59 83 72 113 74 l36 2 -74 -74z m90 0 c-68
-68 -78 -75 -114 -75 l-39 0 74 75 c67 69 77 75 113 75 l40 0 -74 -75z m90 0
c-68 -68 -78 -75 -114 -75 l-40 0 74 75 c68 68 78 75 114 75 l40 0 -74 -75z
m120 59 c11 -13 4 -24 -51 -80 -52 -53 -69 -64 -96 -64 -18 0 -33 3 -33 7 0
12 144 153 156 153 6 0 17 -7 24 -16z m-365 -35 c-82 -86 -99 -98 -135 -99
l-34 0 69 70 c59 60 74 70 104 70 l35 0 -39 -41z m720 -259 c-243 -243 -251
-250 -290 -250 l-40 0 270 270 c270 270 270 270 290 250 20 -20 20 -20 -230
-270z m-311 247 c8 -13 3 -24 -29 -57 -33 -34 -45 -40 -79 -40 l-40 0 59 60
c61 62 71 66 89 37z m589 -25 c16 -18 5 -30 -215 -245 -214 -211 -234 -227
-267 -227 -35 0 -33 3 209 245 135 135 248 245 251 245 3 0 13 -8 22 -18z
m-649 -146 c-106 -103 -123 -116 -154 -116 l-35 0 85 85 c47 47 93 85 103 85
11 0 17 5 14 13 -2 6 12 29 31 50 35 36 37 37 55 18 18 -18 16 -21 -99 -135z
m729 74 l28 -24 -193 -193 c-177 -177 -196 -193 -228 -193 -34 0 -32 3 170
206 113 114 198 203 190 198 -8 -4 -102 -93 -208 -198 -173 -171 -197 -191
-230 -194 -36 -3 -32 2 187 222 190 190 227 223 240 213 9 -7 28 -23 44 -37z
m-583 14 c12 -13 0 -28 -81 -110 -83 -83 -98 -94 -129 -94 l-35 0 110 110 c60
61 113 110 116 110 4 0 12 -7 19 -16z m-280 -42 c0 -5 -35 -43 -79 -85 -70
-69 -83 -77 -117 -77 l-38 0 74 76 c41 42 83 79 93 83 27 10 67 12 67 3z m18
-77 c-78 -77 -90 -85 -125 -85 l-38 0 85 85 c78 78 88 85 124 85 l40 0 -86
-85z m-183 -5 c-70 -71 -84 -80 -112 -78 -18 1 -33 4 -33 7 0 3 33 38 72 78
66 66 76 73 113 73 l40 0 -80 -80z m1075 62 c0 -5 -44 -51 -97 -103 -54 -52
-134 -132 -177 -177 -45 -47 -86 -82 -95 -80 -10 2 52 69 169 185 102 101 188
183 193 183 4 0 7 -4 7 -8z"/>
<path d="M740 425 c-63 -63 -112 -115 -110 -115 10 0 234 219 229 224 -3 3
-56 -46 -119 -109z"/>
<path d="M1555 438 l-100 -103 103 100 c95 93 107 105 99 105 -1 0 -47 -46
-102 -102z"/>
</g>
</svg>
