<?xml version="1.0" standalone="no"?>
<!DOCTYPE svg PUBLIC "-//W3C//DTD SVG 20010904//EN"
 "http://www.w3.org/TR/2001/REC-SVG-20010904/DTD/svg10.dtd">
<svg version="1.0" xmlns="http://www.w3.org/2000/svg"
 width="155.000000pt" height="245.000000pt" viewBox="0 0 155.000000 245.000000"
 preserveAspectRatio="xMidYMid meet">
<metadata>
Created by potrace 1.16, written by Peter Selinger 2001-2019
</metadata>
<g transform="translate(0.000000,245.000000) scale(0.100000,-0.100000)"
fill="#000000" stroke="none">
<path d="M300 2125 c0 -24 31 -60 177 -207 l178 -178 -173 -173 c-170 -170
-172 -173 -160 -200 l13 -27 125 0 c69 0 199 5 290 10 l165 11 85 91 c47 50
111 123 144 162 32 39 69 83 82 98 25 28 31 48 15 48 -4 0 -37 35 -72 77 -129
156 -242 274 -277 289 -28 11 -101 16 -314 21 l-278 6 0 -28z m582 -18 c-9
-10 25 -50 164 -189 l176 -176 -175 -176 c-96 -96 -172 -178 -168 -182 3 -4
-39 -4 -94 0 -55 3 -169 6 -254 6 l-153 0 79 88 c103 113 223 257 223 267 0 4
-6 13 -14 19 -8 6 -48 53 -91 104 -42 51 -106 124 -142 162 l-65 70 128 1
c113 1 199 5 357 17 33 2 38 1 29 -11z"/>
<path d="M300 1082 c0 -25 29 -59 175 -207 96 -98 175 -179 175 -180 0 -1 -78
-79 -172 -173 -149 -148 -171 -174 -162 -189 10 -16 37 -18 301 -21 l291 -2
83 87 c45 49 116 129 157 178 41 50 80 95 88 101 19 15 18 17 -15 56 -16 18
-61 71 -101 118 -40 47 -104 118 -142 158 -68 72 -70 73 -89 56 -19 -18 -16
-22 156 -194 l175 -175 -174 -174 c-96 -96 -172 -179 -169 -184 4 -6 -5 -8
-23 -4 -17 3 -130 9 -252 13 l-221 7 77 82 c43 45 107 118 141 161 35 44 68
81 72 82 11 4 12 29 1 34 -4 2 -37 39 -72 83 -36 44 -100 118 -143 163 -43 46
-77 85 -75 87 2 2 113 9 248 15 135 6 249 15 253 20 9 8 -108 16 -400 25
l-183 6 0 -29z"/>
</g>
</svg>
