<?xml version="1.0" standalone="no"?>
<!DOCTYPE svg PUBLIC "-//W3C//DTD SVG 20010904//EN"
 "http://www.w3.org/TR/2001/REC-SVG-20010904/DTD/svg10.dtd">
<svg version="1.0" xmlns="http://www.w3.org/2000/svg"
 width="173.000000pt" height="215.000000pt" viewBox="0 0 173.000000 215.000000"
 preserveAspectRatio="xMidYMid meet">
<metadata>
Created by potrace 1.16, written by Peter Selinger 2001-2019
</metadata>
<g transform="translate(0.000000,215.000000) scale(0.100000,-0.100000)"
fill="#000000" stroke="none">
<path d="M445 1840 c-4 -6 13 -34 37 -62 l44 -51 -44 -66 c-24 -36 -45 -67
-47 -69 -2 -2 -29 8 -61 22 -39 16 -62 21 -69 15 -13 -14 13 -33 76 -55 37
-14 48 -22 43 -34 -3 -8 -12 -53 -20 -100 -18 -109 -32 -646 -16 -636 5 3 58
8 116 10 l106 3 0 -146 c0 -193 11 -377 21 -358 5 8 11 217 15 466 l7 451
-116 0 -117 0 0 33 c0 50 28 245 37 261 6 11 39 2 168 -50 88 -35 168 -68 177
-74 10 -5 26 -10 35 -10 14 0 12 5 -9 23 -30 24 -248 295 -248 307 0 4 20 21
45 37 38 24 43 32 32 41 -11 9 -24 5 -61 -19 -26 -17 -48 -30 -50 -28 -28 40
-80 99 -87 99 -4 0 -11 -5 -14 -10z m219 -275 c57 -66 103 -121 102 -122 -1
-2 -68 27 -149 64 l-146 66 16 31 c25 48 54 87 64 84 5 -2 56 -57 113 -123z
m-54 -385 l0 -31 -89 2 c-96 2 -117 8 -108 33 5 12 26 16 99 19 51 1 94 4 96
5 1 1 2 -12 2 -28z m0 -80 l0 -30 -100 0 c-100 0 -100 0 -100 25 0 24 2 24 88
28 48 1 93 4 100 5 7 1 12 -10 12 -28z m-2 -93 c-2 -1 -49 -1 -105 1 -80 3
-103 6 -103 17 0 11 23 15 103 17 92 3 102 1 105 -15 2 -10 2 -19 0 -20z m2
-49 c0 -23 -2 -23 -105 -20 -91 3 -105 6 -105 20 0 15 14 17 105 20 103 2 105
2 105 -20z m0 -80 l0 -34 -105 0 -105 1 0 30 0 30 105 3 105 4 0 -34z"/>
<path d="M1045 1840 c-7 -12 3 -27 49 -78 26 -27 29 -35 18 -50 -6 -9 -26 -41
-43 -69 -17 -29 -34 -53 -39 -53 -4 0 -33 11 -64 25 -67 30 -66 30 -66 7 0
-12 18 -24 60 -40 33 -13 60 -27 60 -30 0 -4 -7 -43 -16 -87 -11 -57 -16 -165
-19 -375 -2 -162 -2 -284 1 -270 2 14 7 39 9 55 l5 30 105 3 105 3 0 -35 0
-35 -105 6 c-105 6 -105 6 -105 -17 0 -23 0 -23 105 -17 l105 6 1 -237 c1
-130 4 -248 8 -262 12 -39 20 133 27 543 l6 367 -116 0 -116 0 0 46 c0 41 28
255 34 261 3 3 327 -124 349 -137 30 -18 32 -3 4 27 -14 15 -73 88 -130 160
l-106 133 25 17 c64 46 69 51 57 63 -8 9 -22 5 -56 -19 -25 -17 -48 -31 -50
-31 -3 0 -22 23 -43 50 -39 52 -48 57 -59 40z m122 -164 c4 -8 52 -64 106
-125 53 -61 96 -111 94 -111 -6 0 -289 128 -294 133 -10 11 60 117 77 117 5 0
13 -6 17 -14z m43 -501 c0 -25 -1 -25 -84 -25 -97 0 -116 5 -116 31 0 17 9 19
100 19 l100 0 0 -25z m-2 -78 l3 -27 -100 0 c-100 0 -116 5 -105 34 5 12 25
16 92 18 112 5 106 6 110 -25z m-2 -82 c-4 -11 -12 -15 -22 -11 -9 3 -54 6
-100 6 -67 0 -84 3 -84 15 0 11 20 15 98 17 103 3 118 -1 108 -27z m4 -55 c0
-19 -7 -20 -105 -20 -85 0 -105 3 -105 14 0 15 31 20 158 24 46 2 52 0 52 -18z"/>
</g>
</svg>
