<?xml version="1.0" standalone="no"?>
<!DOCTYPE svg PUBLIC "-//W3C//DTD SVG 20010904//EN"
 "http://www.w3.org/TR/2001/REC-SVG-20010904/DTD/svg10.dtd">
<svg version="1.0" xmlns="http://www.w3.org/2000/svg"
 width="136.000000pt" height="152.000000pt" viewBox="0 0 136.000000 152.000000"
 preserveAspectRatio="xMidYMid meet">
<metadata>
Created by potrace 1.16, written by Peter Selinger 2001-2019
</metadata>
<g transform="translate(0.000000,152.000000) scale(0.100000,-0.100000)"
fill="#000000" stroke="none">
<path d="M320 1213 c1 -5 7 -37 15 -73 26 -118 15 -329 -20 -396 -24 -46 -18
-124 20 -277 41 -163 44 -172 51 -164 3 3 -6 70 -20 149 -31 174 -32 239 -5
338 35 131 36 298 3 413 -5 16 -44 25 -44 10z"/>
<path d="M994 1204 c4 -10 14 -61 23 -113 14 -82 14 -111 4 -201 -7 -58 -20
-121 -29 -140 -11 -23 -16 -57 -15 -100 2 -83 83 -404 83 -329 0 8 -11 78 -25
155 -31 172 -31 188 0 316 19 80 25 127 24 213 -1 145 -16 209 -48 213 -19 3
-23 0 -17 -14z"/>
<path d="M659 967 c-1 -7 0 -21 1 -31 1 -11 -1 -43 -5 -73 l-6 -53 -81 61
c-73 56 -81 60 -96 45 -9 -8 -14 -17 -11 -19 2 -2 41 -30 87 -61 45 -32 82
-60 82 -62 0 -3 -44 -4 -97 -3 -93 2 -98 1 -101 -19 -3 -20 2 -21 88 -24 l91
-3 -76 -53 c-69 -48 -76 -56 -62 -69 13 -13 23 -9 92 42 42 31 79 54 83 50 4
-3 8 -53 10 -110 3 -58 8 -103 12 -100 4 2 11 59 15 125 4 66 9 120 11 120 2
0 49 -30 104 -67 55 -36 102 -64 105 -61 3 3 -31 34 -76 69 l-81 64 107 7 c59
3 109 9 112 11 2 3 -33 8 -79 11 -46 3 -98 7 -116 9 l-34 2 87 69 c47 37 84
70 81 73 -3 3 -50 -25 -106 -61 -55 -36 -103 -66 -107 -66 -3 0 -2 40 1 89 7
84 6 89 -13 94 -12 3 -21 0 -22 -6z"/>
</g>
</svg>
