<?xml version="1.0" standalone="no"?>
<!DOCTYPE svg PUBLIC "-//W3C//DTD SVG 20010904//EN"
 "http://www.w3.org/TR/2001/REC-SVG-20010904/DTD/svg10.dtd">
<svg version="1.0" xmlns="http://www.w3.org/2000/svg"
 width="231.000000pt" height="198.000000pt" viewBox="0 0 231.000000 198.000000"
 preserveAspectRatio="xMidYMid meet">
<metadata>
Created by potrace 1.16, written by Peter Selinger 2001-2019
</metadata>
<g transform="translate(0.000000,198.000000) scale(0.100000,-0.100000)"
fill="#000000" stroke="none">
<path d="M506 1588 c-3 -50 -6 -119 -6 -153 l0 -62 -62 -23 c-40 -14 -77 -37
-102 -61 -38 -38 -38 -40 -34 -99 5 -76 29 -109 94 -134 44 -16 72 -18 280
-13 l231 5 -14 -41 c-8 -22 -17 -66 -21 -96 l-7 -56 -113 -3 c-112 -3 -112 -3
-112 -27 l0 -25 109 0 109 0 11 -50 c17 -78 46 -126 129 -209 84 -85 213 -184
223 -173 6 6 30 287 33 387 l2 40 99 6 c184 12 335 10 335 -3 -1 -7 -9 -31
-20 -53 -27 -57 -25 -100 16 -270 57 -235 70 -240 29 -9 -14 76 -25 157 -25
180 0 57 21 155 34 159 6 2 48 6 94 8 l82 4 0 -32 c0 -19 -5 -35 -12 -37 -6
-2 -13 -31 -16 -65 -3 -48 4 -96 33 -215 20 -84 41 -157 47 -163 7 -7 8 0 4
20 -3 17 -17 97 -31 178 -24 144 -24 151 -9 225 9 42 18 80 20 84 3 5 22 8 42
9 l37 1 -33 8 c-18 4 -35 9 -37 12 -2 2 1 24 7 48 12 53 5 215 -12 283 -9 35
-17 47 -31 47 -22 0 -23 -5 -4 -90 15 -66 20 -226 9 -267 -6 -22 -11 -23 -96
-23 l-89 0 8 58 c10 73 6 180 -10 257 -11 50 -17 61 -35 63 -26 4 -26 9 -5
-75 17 -71 22 -270 8 -293 -6 -10 -43 -11 -164 -6 -86 3 -182 6 -213 6 l-58 0
0 53 c0 90 12 157 26 157 8 0 14 4 14 8 0 12 -210 22 -437 22 l-183 0 0 73 c0
39 -5 89 -10 109 -13 45 -67 90 -111 92 -25 1 -29 5 -25 21 2 11 8 82 12 158
6 132 6 137 -13 137 -18 0 -21 -9 -27 -92z m83 -273 c35 -18 60 -76 68 -161
l6 -63 -117 6 c-104 5 -116 4 -116 -11 0 -15 -2 -15 -30 -1 -39 20 -70 70 -70
112 0 43 40 88 97 107 70 24 73 23 73 -34 0 -27 5 -50 10 -50 6 0 10 11 10 24
0 45 13 86 27 86 8 0 27 -7 42 -15z m631 -283 c0 -16 -3 -63 -6 -105 l-7 -77
-150 0 -149 0 6 48 c4 26 14 70 22 99 l14 52 78 4 c207 9 192 10 192 -21z
m-10 -257 l0 -25 -150 3 c-148 2 -150 2 -150 25 0 22 1 22 150 22 l150 0 0
-25z m0 -97 l0 -53 -124 3 -124 3 -21 42 -21 42 132 5 c73 3 139 7 146 8 8 1
12 -14 12 -50z m0 -183 c0 -94 -2 -105 -16 -97 -22 12 -194 184 -194 194 0 4
47 8 105 8 l105 0 0 -105z"/>
</g>
</svg>
