<?xml version="1.0" standalone="no"?>
<!DOCTYPE svg PUBLIC "-//W3C//DTD SVG 20010904//EN"
 "http://www.w3.org/TR/2001/REC-SVG-20010904/DTD/svg10.dtd">
<svg version="1.0" xmlns="http://www.w3.org/2000/svg"
 width="156.000000pt" height="181.000000pt" viewBox="0 0 156.000000 181.000000"
 preserveAspectRatio="xMidYMid meet">
<metadata>
Created by potrace 1.16, written by Peter Selinger 2001-2019
</metadata>
<g transform="translate(0.000000,181.000000) scale(0.100000,-0.100000)"
fill="#000000" stroke="none">
<path d="M536 1501 c-5 -7 4 -23 22 -39 l30 -27 -32 -27 c-42 -35 -26 -48 18
-14 43 32 72 35 32 3 -21 -17 -26 -26 -17 -31 11 -7 69 34 79 57 2 4 18 7 35
7 32 -1 32 -1 -15 -25 -51 -27 -64 -40 -48 -50 6 -3 24 4 42 16 17 13 28 18
25 12 -17 -27 16 -21 67 12 l55 35 126 0 c77 0 125 4 125 10 0 6 -46 10 -118
10 l-118 0 -22 30 c-23 31 -42 39 -42 18 0 -6 7 -20 17 -30 9 -10 11 -18 5
-18 -6 0 -20 14 -32 30 -12 17 -28 30 -36 30 -20 0 -18 -10 8 -37 l21 -23 -39
0 c-33 0 -44 5 -62 30 -13 17 -29 30 -37 30 -21 0 -19 -10 7 -37 l21 -23 -26
0 c-18 0 -37 11 -56 32 -19 22 -30 28 -35 19z m244 -75 c0 -2 -7 -7 -16 -10
-8 -3 -12 -2 -9 4 6 10 25 14 25 6z"/>
<path d="M646 1168 c-118 -123 -229 -254 -273 -324 -63 -98 -92 -289 -58 -383
8 -23 24 -56 36 -73 30 -41 106 -88 143 -88 30 1 30 1 -15 25 -54 28 -102 75
-126 124 -28 56 -24 226 6 304 32 81 117 190 280 359 77 80 138 148 134 152
-15 15 -33 1 -127 -96z"/>
<path d="M876 1222 c-61 -313 -68 -354 -59 -363 5 -5 93 -57 194 -114 101 -57
191 -108 199 -113 12 -7 -1 -28 -63 -105 -43 -54 -81 -97 -86 -97 -5 0 -60 43
-122 96 -105 88 -271 214 -282 214 -3 0 -7 -7 -11 -15 -4 -10 18 -31 72 -67
42 -28 139 -98 214 -156 75 -57 142 -101 147 -98 15 9 161 212 161 222 -1 5
-44 36 -98 68 -259 158 -314 198 -307 220 3 12 19 68 35 126 24 82 29 94 25
55 l-5 -50 77 -13 c112 -19 279 -27 287 -14 4 6 -17 12 -57 16 -34 4 -83 9
-109 12 l-48 6 0 43 c0 24 -4 47 -10 50 -6 4 -10 -14 -10 -45 0 -43 -3 -51
-16 -46 -9 3 -20 6 -25 6 -5 0 -9 23 -9 50 0 28 -4 50 -10 50 -5 0 -10 -20
-10 -45 0 -33 -4 -45 -15 -45 -11 0 -15 12 -15 44 0 24 -5 46 -10 48 -7 2 -7
14 -1 36 8 27 7 34 -9 42 -16 8 -19 6 -24 -18z"/>
<path d="M927 1216 c-4 -10 8 -18 37 -26 24 -6 99 -43 166 -81 68 -38 126 -67
128 -64 6 6 16 -1 -103 75 -99 63 -189 110 -211 110 -7 0 -14 -6 -17 -14z"/>
<path d="M582 1021 c-17 -10 31 -52 100 -87 66 -34 84 -25 22 10 -27 16 -63
41 -79 57 -20 18 -35 25 -43 20z"/>
<path d="M481 800 c-28 -28 -63 -78 -80 -114 -33 -67 -37 -91 -21 -101 6 -4 8
-10 5 -15 -3 -5 -1 -11 5 -15 12 -8 106 53 145 94 25 27 29 40 32 99 l3 67
-15 -64 c-8 -36 -24 -74 -37 -88 -22 -23 -109 -83 -121 -83 -26 0 50 154 107
218 61 66 43 68 -23 2z"/>
</g>
</svg>
