<?xml version="1.0" standalone="no"?>
<!DOCTYPE svg PUBLIC "-//W3C//DTD SVG 20010904//EN"
 "http://www.w3.org/TR/2001/REC-SVG-20010904/DTD/svg10.dtd">
<svg version="1.0" xmlns="http://www.w3.org/2000/svg"
 width="200.000000pt" height="152.000000pt" viewBox="0 0 200.000000 152.000000"
 preserveAspectRatio="xMidYMid meet">
<metadata>
Created by potrace 1.16, written by Peter Selinger 2001-2019
</metadata>
<g transform="translate(0.000000,152.000000) scale(0.100000,-0.100000)"
fill="#000000" stroke="none">
<path d="M370 1206 c-9 -12 -9 -21 2 -42 35 -71 122 -90 256 -55 101 26 158
27 198 2 33 -20 82 -81 65 -81 -5 0 -19 -16 -31 -36 l-22 -35 -27 25 c-53 51
-112 58 -213 26 -146 -47 -235 -35 -258 34 -8 24 -16 33 -26 29 -34 -13 1 -80
56 -108 40 -21 122 -19 205 5 38 11 87 20 108 20 46 0 102 -24 122 -53 12 -17
12 -23 0 -41 -11 -15 -24 -20 -53 -18 -52 4 -92 -27 -92 -73 0 -40 29 -65 75
-65 16 0 53 -9 80 -19 28 -10 71 -22 98 -26 32 -5 47 -12 47 -23 0 -12 55
-118 172 -329 12 -24 30 -43 38 -43 24 1 200 100 200 113 0 4 -10 5 -23 2 -21
-6 -26 1 -52 62 -16 37 -50 112 -77 165 -26 54 -48 103 -48 110 0 7 19 26 43
43 23 16 61 47 85 69 23 21 42 34 42 28 0 -9 66 -15 272 -25 74 -3 71 -5 83
64 l7 36 -67 7 c-82 8 -235 35 -247 42 -12 7 -80 10 -301 12 l-167 2 -10 28
c-39 109 -114 135 -256 90 -41 -13 -96 -22 -136 -22 -57 -1 -70 2 -92 23 -14
14 -26 35 -26 48 0 26 -12 30 -30 9z m980 -212 c0 -30 -166 -205 -208 -218
-12 -4 -22 -11 -22 -15 0 -7 83 -165 154 -293 l38 -68 -26 -9 c-13 -6 -48 -22
-76 -36 l-51 -26 -21 48 c-11 26 -47 104 -79 172 -33 68 -59 129 -59 135 0 7
-33 22 -72 35 -40 13 -84 30 -98 39 -14 8 -43 14 -67 13 -48 -1 -83 12 -83 33
0 23 35 46 78 49 23 3 51 12 61 21 15 13 20 14 24 4 3 -7 6 -2 6 12 1 14 12
42 26 62 l25 37 98 4 c194 6 352 7 352 1z m91 -26 c-1 -5 -1 -21 -1 -38 0 -23
-5 -30 -19 -30 -26 0 -30 9 -19 48 6 22 14 32 24 30 8 -2 15 -6 15 -10z m65
-14 c-3 -9 -6 -24 -6 -35 0 -12 -7 -19 -20 -19 -21 0 -24 10 -14 48 4 13 14
22 26 22 14 0 18 -5 14 -16z m-126 -19 c0 -16 -6 -25 -15 -25 -18 0 -19 4 -3
30 16 26 18 25 18 -5z m180 6 c0 -30 -11 -51 -26 -51 -15 0 -17 12 -8 48 8 27
34 30 34 3z m56 -3 c-3 -13 -6 -29 -6 -35 0 -7 -9 -13 -19 -13 -15 0 -18 5
-14 23 9 42 12 47 29 47 12 0 15 -6 10 -22z m54 -23 c0 -29 -4 -35 -21 -35
-17 0 -20 4 -15 23 3 12 6 28 6 35 0 6 7 12 15 12 10 0 15 -11 15 -35z"/>
</g>
</svg>
