<?xml version="1.0" standalone="no"?>
<!DOCTYPE svg PUBLIC "-//W3C//DTD SVG 20010904//EN"
 "http://www.w3.org/TR/2001/REC-SVG-20010904/DTD/svg10.dtd">
<svg version="1.0" xmlns="http://www.w3.org/2000/svg"
 width="205.000000pt" height="375.000000pt" viewBox="0 0 205.000000 375.000000"
 preserveAspectRatio="xMidYMid meet">
<metadata>
Created by potrace 1.16, written by Peter Selinger 2001-2019
</metadata>
<g transform="translate(0.000000,375.000000) scale(0.100000,-0.100000)"
fill="#000000" stroke="none">
<path d="M1177 3434 c-22 -7 -68 -34 -103 -59 -80 -58 -122 -75 -177 -75 -60
0 -106 -32 -137 -96 -31 -64 -62 -81 -175 -93 -123 -14 -164 -41 -205 -134
-25 -56 -46 -216 -36 -269 12 -67 113 -120 229 -121 87 0 109 17 105 82 -2 24
-8 46 -15 48 -8 3 -10 -8 -6 -36 8 -59 -6 -71 -83 -71 -66 0 -161 28 -189 56
-11 11 -15 38 -15 94 0 99 15 171 48 233 33 62 75 84 186 96 115 13 136 25
166 89 33 68 61 89 130 98 71 8 106 23 182 77 35 25 79 52 98 62 34 17 34 17
50 -6 8 -13 22 -30 31 -39 14 -14 9 -21 -47 -73 -73 -67 -119 -149 -108 -191
4 -16 50 -68 115 -129 60 -56 109 -105 109 -108 0 -9 -176 -129 -188 -129 -6
0 -12 -4 -14 -9 -4 -12 -162 168 -183 210 -10 19 -19 35 -20 37 -2 2 -27 -10
-56 -26 -30 -16 -67 -33 -82 -36 -26 -6 -27 -5 -17 14 6 11 37 33 68 48 70 33
67 31 60 38 -4 3 -31 -2 -62 -12 -62 -20 -104 -57 -112 -99 l-5 -28 56 6 c39
4 67 14 90 31 l34 26 15 -22 c29 -42 210 -218 224 -218 15 0 63 35 153 112 42
36 59 44 67 36 7 -7 12 -8 12 -2 0 6 -14 23 -31 40 -17 16 -71 73 -120 127
-100 108 -101 114 -52 191 33 51 118 136 136 136 9 0 16 -13 19 -34 4 -32 3
-33 -16 -20 -23 16 -46 19 -46 6 0 -5 33 -30 73 -55 39 -26 82 -54 94 -63 22
-16 22 -15 16 23 -6 35 -5 37 10 24 10 -7 17 -9 17 -3 0 19 -150 151 -165 146
-9 -4 -24 10 -42 40 -31 51 -31 51 -86 30z m183 -154 c0 -16 -2 -30 -4 -30 -2
0 -6 14 -8 30 -3 17 -1 30 4 30 4 0 8 -13 8 -30z m52 -50 c4 -28 4 -29 -14
-13 -22 20 -26 72 -4 54 8 -6 16 -25 18 -41z"/>
<path d="M1280 2338 c-78 -34 -242 -86 -319 -99 -57 -10 -75 -17 -83 -34 -11
-24 -62 -58 -168 -111 -56 -28 -110 -44 -220 -66 -80 -15 -155 -30 -168 -33
-21 -5 -30 -29 -14 -39 15 -9 330 62 374 85 23 12 68 38 98 58 30 20 60 39 67
44 8 5 7 -6 -3 -37 -15 -44 -16 -45 -72 -52 -99 -12 -137 -41 -127 -97 5 -27
14 -38 36 -47 34 -15 105 -15 141 -1 16 6 40 6 64 0 22 -4 67 -9 100 -9 58 0
63 -2 88 -34 52 -69 180 -211 190 -211 12 0 116 136 116 152 0 7 -4 13 -9 13
-5 0 -42 41 -82 92 -49 62 -69 95 -63 103 5 7 33 41 63 76 50 59 111 167 111
197 0 10 4 9 16 -3 12 -11 14 -25 10 -51 -6 -30 -10 -34 -27 -29 -17 6 -20 3
-17 -12 3 -16 20 -19 172 -27 136 -7 170 -6 176 4 9 15 23 80 18 85 -2 2 -55
10 -118 19 -159 23 -208 34 -259 62 -24 13 -44 24 -45 23 0 0 -21 -9 -46 -21z
m64 -14 c39 -15 1 -107 -97 -237 -37 -49 -67 -92 -67 -96 0 -4 39 -49 86 -99
l86 -92 -47 -55 c-25 -30 -48 -55 -49 -55 -2 0 -42 51 -89 113 l-87 114 -107
15 c-60 9 -116 19 -125 23 -13 5 -18 2 -18 -9 0 -13 -12 -16 -63 -16 -139 0
-124 75 20 102 l60 11 33 73 c30 67 36 74 68 80 21 4 37 2 41 -5 7 -11 64 -31
88 -31 17 0 17 20 1 20 -7 1 -26 7 -43 14 l-30 13 36 10 c26 8 50 7 85 -2 59
-15 82 -7 34 13 l-35 14 90 43 c95 46 104 48 129 39z m144 -91 c-2 -32 -6 -37
-23 -35 -25 5 -23 1 -18 40 4 23 10 32 25 32 16 0 19 -6 16 -37z m62 -8 c0
-30 -3 -35 -24 -35 -23 0 -24 2 -15 32 5 18 9 34 9 35 0 2 7 3 15 3 10 0 15
-11 15 -35z m59 13 c-1 -38 -12 -58 -28 -49 -9 6 -11 18 -6 40 8 36 35 43 34
9z m57 -4 c-3 -9 -6 -24 -6 -35 0 -13 -7 -19 -21 -19 -15 0 -19 4 -15 16 3 9
6 24 6 35 0 13 7 19 21 19 15 0 19 -4 15 -16z m54 -19 c0 -29 -4 -35 -21 -35
-17 0 -20 4 -15 23 3 12 6 28 6 35 0 6 7 12 15 12 10 0 15 -11 15 -35z"/>
<path d="M994 1147 c-151 -155 -256 -290 -284 -365 -43 -114 -48 -248 -14
-331 30 -72 136 -151 203 -151 33 0 17 14 -33 30 -22 7 -60 34 -87 60 -75 75
-96 174 -64 308 29 121 85 201 305 434 72 75 130 139 130 142 0 24 -45 -13
-156 -127z"/>
<path d="M1220 1083 c-17 -93 -34 -177 -36 -189 -6 -22 54 -61 307 -201 l106
-58 -51 -66 c-28 -36 -65 -82 -82 -101 l-31 -35 -119 100 c-147 124 -274 218
-286 211 -18 -12 -6 -30 40 -59 26 -16 120 -85 210 -152 89 -68 166 -123 170
-123 10 1 154 199 158 219 3 12 -51 51 -199 143 l-204 128 31 119 c22 84 33
115 40 104 5 -9 3 -24 -5 -39 -7 -13 -10 -25 -8 -27 26 -20 352 -46 363 -29 4
6 -17 12 -57 16 -34 4 -83 9 -109 12 l-48 6 0 44 c0 26 -5 44 -11 44 -8 0 -10
-15 -6 -46 4 -37 2 -44 -10 -40 -8 3 -21 6 -30 6 -10 0 -14 10 -13 38 3 54 1
62 -11 62 -8 0 -10 -14 -6 -45 6 -41 5 -45 -14 -45 -19 0 -21 5 -17 45 2 25
-1 45 -6 45 -5 0 -6 18 -2 40 5 35 4 40 -13 40 -16 0 -23 -21 -51 -167z"/>
<path d="M1307 1233 c-14 -13 -6 -22 31 -33 36 -12 119 -54 235 -119 99 -57
62 -19 -50 51 -148 91 -202 116 -216 101z"/>
<path d="M954 1028 c-4 -6 5 -21 22 -36 31 -25 134 -76 141 -69 2 2 -26 23
-62 45 -36 23 -68 48 -71 57 -7 18 -20 19 -30 3z"/>
<path d="M851 805 c-50 -53 -97 -136 -103 -182 -6 -44 16 -23 37 36 24 65 58
116 113 169 19 19 28 32 19 32 -8 0 -37 -25 -66 -55z"/>
<path d="M930 780 c0 -74 -47 -132 -149 -184 -22 -12 -30 -21 -23 -28 7 -7 25
-1 57 17 69 41 111 85 124 130 14 50 14 95 1 95 -5 0 -10 -13 -10 -30z"/>
</g>
</svg>
