<?xml version="1.0" standalone="no"?>
<!DOCTYPE svg PUBLIC "-//W3C//DTD SVG 20010904//EN"
 "http://www.w3.org/TR/2001/REC-SVG-20010904/DTD/svg10.dtd">
<svg version="1.0" xmlns="http://www.w3.org/2000/svg"
 width="206.000000pt" height="148.000000pt" viewBox="0 0 206.000000 148.000000"
 preserveAspectRatio="xMidYMid meet">
<metadata>
Created by potrace 1.16, written by Peter Selinger 2001-2019
</metadata>
<g transform="translate(0.000000,148.000000) scale(0.100000,-0.100000)"
fill="#000000" stroke="none">
<path d="M1470 1170 c-12 -7 8 -42 102 -182 64 -95 130 -191 146 -213 l30 -39
-42 -56 c-81 -104 -247 -361 -241 -370 15 -24 36 -3 100 98 113 176 195 314
195 327 0 23 -256 443 -270 444 -3 1 -12 -3 -20 -9z"/>
<path d="M1450 1105 c0 -12 -21 -13 -132 -10 -73 3 -332 7 -575 10 l-443 4 0
-26 0 -26 473 7 c259 3 518 9 575 12 l102 6 0 -318 0 -318 -35 34 c-93 91
-138 194 -128 295 5 50 8 55 29 55 13 0 24 5 24 10 0 6 -12 10 -26 10 -24 0
-25 2 -19 43 l6 42 -495 4 -496 3 0 -22 0 -23 475 6 475 6 0 -30 0 -30 -472 3
c-414 3 -473 1 -473 -12 0 -13 48 -15 373 -13 204 1 372 1 372 -1 0 -2 -23
-19 -52 -37 l-52 -34 -323 3 c-297 3 -323 2 -323 -14 0 -15 18 -16 214 -12
l213 4 -52 -21 c-94 -39 -324 -214 -325 -247 0 -30 19 -21 88 43 88 79 197
152 269 179 79 30 192 53 227 46 23 -5 40 2 89 39 60 44 62 45 139 45 l78 0 0
-73 c0 -103 36 -173 133 -262 39 -36 74 -65 78 -65 9 0 19 269 19 502 0 169
-2 198 -15 198 -8 0 -15 -7 -15 -15z"/>
<path d="M300 1010 l0 -23 482 6 c265 4 484 9 486 12 3 3 3 7 0 10 -3 3 -222
8 -487 12 l-481 6 0 -23z"/>
</g>
</svg>
