<?xml version="1.0" standalone="no"?>
<!DOCTYPE svg PUBLIC "-//W3C//DTD SVG 20010904//EN"
 "http://www.w3.org/TR/2001/REC-SVG-20010904/DTD/svg10.dtd">
<svg version="1.0" xmlns="http://www.w3.org/2000/svg"
 width="180.000000pt" height="105.000000pt" viewBox="0 0 180.000000 105.000000"
 preserveAspectRatio="xMidYMid meet">
<metadata>
Created by potrace 1.16, written by Peter Selinger 2001-2019
</metadata>
<g transform="translate(0.000000,105.000000) scale(0.100000,-0.100000)"
fill="#000000" stroke="none">
<path d="M855 705 c-44 -25 -97 -63 -118 -85 l-38 -40 -199 0 c-193 0 -200 -1
-200 -20 0 -16 7 -20 35 -20 33 0 37 -4 54 -43 20 -46 59 -84 96 -93 32 -8
114 44 155 99 36 48 70 62 70 28 0 -10 19 -39 42 -66 46 -52 164 -145 184
-145 7 0 14 -5 16 -11 2 -7 47 7 118 36 181 74 430 187 430 195 0 5 -8 6 -18
4 -9 -3 -62 14 -117 37 -55 23 -167 67 -250 99 -82 32 -157 61 -165 64 -9 4
-50 -13 -95 -39z m88 -5 c7 0 19 -5 27 -10 12 -8 -4 -29 -85 -112 l-100 -103
106 103 c101 99 106 103 134 92 l28 -11 -111 -112 -112 -112 -42 42 c-35 36
-40 44 -29 57 8 9 24 16 37 16 12 0 26 5 29 10 3 6 -2 10 -12 10 -12 0 2 20
47 68 l65 67 -70 -67 c-44 -43 -79 -68 -93 -68 -12 0 -22 5 -22 10 0 16 163
131 178 125 7 -3 19 -5 25 -5z m156 -65 c-4 -17 -213 -235 -225 -235 -6 0 -17
7 -25 16 -11 13 3 31 101 129 90 91 117 112 132 106 11 -4 18 -11 17 -16z m76
-19 c48 -20 46 -51 -5 -101 l-40 -39 0 42 c0 23 4 42 9 42 5 0 17 12 26 28
l18 27 -27 -24 -26 -24 0 31 c0 37 0 37 45 18z m-161 -167 c-93 -93 -99 -98
-116 -82 -18 16 -14 22 94 130 l113 114 3 -32 c3 -29 -7 -42 -94 -130z m256
133 c42 -4 42 -16 0 -57 l-41 -40 2 58 c1 32 5 54 8 50 3 -4 17 -9 31 -11z
m145 -47 c18 -6 16 -8 -14 -21 -47 -20 -57 -18 -35 9 10 12 3 8 -16 -9 -41
-36 -120 -71 -120 -52 0 7 21 34 46 59 47 48 47 48 83 34 20 -7 45 -16 56 -20z
m-775 6 c0 -16 -74 -76 -118 -95 -41 -19 -42 -19 -63 0 -18 16 -49 72 -49 88
0 3 35 6 78 8 42 2 94 4 115 5 20 1 37 -1 37 -6z m120 5 c0 -11 -19 -15 -25
-6 -3 5 1 10 9 10 9 0 16 -2 16 -4z m449 -60 c-2 -25 -5 -44 -8 -44 -3 1 -26
-8 -51 -19 -25 -12 -56 -24 -70 -28 l-25 -7 24 25 c13 14 29 23 37 20 9 -3 14
2 14 13 0 18 57 84 72 84 5 0 8 -20 7 -44z m-138 -70 c-38 -38 -147 -97 -139
-76 2 5 41 48 88 96 l85 86 3 -32 c3 -27 -4 -40 -37 -74z"/>
</g>
</svg>
