<?xml version="1.0" standalone="no"?>
<!DOCTYPE svg PUBLIC "-//W3C//DTD SVG 20010904//EN"
 "http://www.w3.org/TR/2001/REC-SVG-20010904/DTD/svg10.dtd">
<svg version="1.0" xmlns="http://www.w3.org/2000/svg"
 width="180.000000pt" height="105.000000pt" viewBox="0 0 180.000000 105.000000"
 preserveAspectRatio="xMidYMid meet">
<metadata>
Created by potrace 1.16, written by Peter Selinger 2001-2019
</metadata>
<g transform="translate(0.000000,105.000000) scale(0.100000,-0.100000)"
fill="#000000" stroke="none">
<path d="M855 705 c-44 -25 -97 -63 -118 -85 l-38 -40 -199 0 c-193 0 -200 -1
-200 -20 0 -16 7 -20 35 -20 33 0 37 -4 54 -43 20 -46 59 -84 96 -93 32 -8
114 44 155 99 36 48 70 62 70 28 0 -10 21 -42 46 -70 45 -50 166 -145 179
-141 4 1 11 -3 15 -10 5 -8 52 8 153 49 198 82 397 173 397 182 0 4 -8 5 -19
2 -10 -2 -62 14 -115 37 -54 22 -166 67 -249 99 -84 33 -159 62 -167 65 -9 4
-49 -13 -95 -39z m195 -44 c74 -26 187 -65 250 -86 63 -21 119 -40 124 -43 5
-2 -54 -28 -130 -57 -77 -29 -190 -72 -251 -97 l-113 -45 -101 104 c-56 57
-99 106 -97 108 2 2 23 5 46 6 59 4 64 19 8 19 -25 0 -46 5 -46 10 0 10 157
130 170 130 3 0 66 -22 140 -49z m-410 -120 c0 -16 -74 -76 -118 -95 -41 -19
-42 -19 -63 0 -18 16 -49 72 -49 88 0 3 35 6 78 8 42 2 94 4 115 5 20 1 37 -1
37 -6z"/>
<path d="M860 525 c0 -58 3 -105 6 -105 3 0 32 20 64 45 56 43 61 45 126 45
l68 0 -34 -35 c-24 -25 -31 -38 -23 -46 7 -7 20 2 43 31 25 31 37 39 52 34 14
-4 18 -2 14 5 -5 7 3 11 21 11 15 0 35 5 43 10 11 7 4 10 -27 10 -36 0 -41 3
-36 18 6 15 5 15 -10 3 -16 -12 -21 -9 -53 28 -20 22 -40 38 -46 35 -5 -4 4
-20 21 -38 17 -18 31 -34 31 -36 0 -3 -28 -4 -62 -2 -57 3 -69 8 -121 48 -31
24 -62 44 -67 44 -6 0 -10 -42 -10 -105z m35 4 c4 -37 3 -59 -4 -63 -8 -5 -11
14 -11 60 0 80 6 81 15 3z m58 -20 c-15 -10 -30 -19 -33 -19 -3 0 -4 18 -2 40
l4 40 30 -21 30 -22 -29 -18z"/>
</g>
</svg>
