<?xml version="1.0" standalone="no"?>
<!DOCTYPE svg PUBLIC "-//W3C//DTD SVG 20010904//EN"
 "http://www.w3.org/TR/2001/REC-SVG-20010904/DTD/svg10.dtd">
<svg version="1.0" xmlns="http://www.w3.org/2000/svg"
 width="105.000000pt" height="159.000000pt" viewBox="0 0 105.000000 159.000000"
 preserveAspectRatio="xMidYMid meet">
<metadata>
Created by potrace 1.16, written by Peter Selinger 2001-2019
</metadata>
<g transform="translate(0.000000,159.000000) scale(0.100000,-0.100000)"
fill="#000000" stroke="none">
<path d="M552 1155 l4 -134 -29 -12 c-88 -37 -157 -121 -202 -248 l-27 -73 36
-73 c52 -104 122 -161 304 -246 54 -24 72 -38 73 -53 1 -16 2 -17 6 -4 2 10
10 15 19 11 8 -3 14 -1 14 5 0 5 -7 12 -15 15 -8 4 -12 15 -10 29 3 13 8 167
11 343 l7 320 -31 13 c-23 10 -40 11 -69 3 -21 -6 -41 -11 -45 -11 -5 0 -8 56
-8 125 0 121 -1 125 -21 125 -21 0 -21 -3 -17 -135z m152 -793 c-1 -2 -46 23
-100 55 -131 77 -223 167 -253 247 l-22 59 27 51 c40 77 94 144 143 177 25 16
48 29 53 29 13 0 9 -88 -4 -93 -10 -3 -10 -7 -1 -19 7 -8 16 -43 19 -77 4 -38
11 -60 18 -58 6 2 24 -7 39 -19 44 -37 51 -28 16 16 -18 22 -36 40 -41 40 -4
0 -8 12 -8 26 0 19 4 25 15 20 8 -3 15 -2 15 3 0 5 -7 14 -15 21 -11 9 -15 33
-15 85 l0 72 53 15 52 15 5 -331 c3 -182 4 -332 4 -334z"/>
<path d="M437 834 c-13 -13 -8 -22 33 -54 22 -17 40 -28 40 -23 0 15 -65 85
-73 77z"/>
<path d="M380 701 c0 -13 71 -73 78 -66 6 6 -57 75 -70 75 -4 0 -8 -4 -8 -9z"/>
<path d="M500 646 c0 -8 18 -29 40 -46 48 -38 51 -31 9 21 -32 41 -49 49 -49
25z"/>
<path d="M590 496 c0 -15 71 -79 78 -71 6 5 -60 83 -70 84 -5 1 -8 -5 -8 -13z"/>
</g>
</svg>
