<?xml version="1.0" standalone="no"?>
<!DOCTYPE svg PUBLIC "-//W3C//DTD SVG 20010904//EN"
 "http://www.w3.org/TR/2001/REC-SVG-20010904/DTD/svg10.dtd">
<svg version="1.0" xmlns="http://www.w3.org/2000/svg"
 width="155.000000pt" height="127.000000pt" viewBox="0 0 155.000000 127.000000"
 preserveAspectRatio="xMidYMid meet">
<metadata>
Created by potrace 1.16, written by Peter Selinger 2001-2019
</metadata>
<g transform="translate(0.000000,127.000000) scale(0.100000,-0.100000)"
fill="#000000" stroke="none">
<path d="M515 952 c-74 -35 -151 -145 -188 -267 -12 -43 -13 -54 -1 -70 17
-23 16 -24 38 50 41 135 111 232 184 256 129 43 304 -57 409 -233 49 -82 50
-79 -11 -151 -104 -122 -243 -207 -339 -207 -79 0 -182 92 -248 223 -13 24
-26 37 -39 37 -26 0 -26 -4 11 -64 51 -83 117 -161 163 -195 40 -28 51 -31
118 -31 60 0 84 5 128 27 53 26 177 140 236 216 l29 37 49 -72 c86 -128 183
-237 163 -183 -16 39 -172 277 -189 286 -17 9 -11 18 66 97 99 101 162 180
152 189 -6 7 -37 -20 -177 -155 l-75 -73 -58 86 c-97 143 -188 205 -311 212
-54 3 -79 -1 -110 -15z"/>
<path d="M535 833 c-41 -6 -58 -24 -90 -94 -21 -48 -26 -70 -22 -107 11 -99
17 -112 61 -135 37 -19 54 -21 175 -20 131 2 158 7 134 21 -9 6 -9 21 3 62 8
30 15 93 15 138 0 97 -3 101 -92 126 -53 15 -118 18 -184 9z m74 -88 l2 -65
-75 0 c-86 0 -90 4 -56 70 14 27 29 42 48 46 15 3 32 7 37 9 37 12 42 5 44
-60z m163 42 c4 -6 8 -36 8 -64 l0 -53 -57 0 c-32 0 -63 4 -70 8 -8 5 -12 30
-10 71 l2 63 59 -6 c33 -3 63 -12 68 -19z m-158 -168 c3 -17 6 -52 6 -77 l0
-45 -44 6 c-75 11 -113 34 -120 76 -3 20 -6 41 -6 48 0 12 33 19 111 21 45 2
47 1 53 -29z m166 9 c0 -13 -3 -47 -6 -75 l-7 -53 -63 0 -64 0 0 75 0 75 70 0
c66 0 70 -1 70 -22z"/>
</g>
</svg>
