<?xml version="1.0" standalone="no"?>
<!DOCTYPE svg PUBLIC "-//W3C//DTD SVG 20010904//EN"
 "http://www.w3.org/TR/2001/REC-SVG-20010904/DTD/svg10.dtd">
<svg version="1.0" xmlns="http://www.w3.org/2000/svg"
 width="190.000000pt" height="142.000000pt" viewBox="0 0 190.000000 142.000000"
 preserveAspectRatio="xMidYMid meet">
<metadata>
Created by potrace 1.16, written by Peter Selinger 2001-2019
</metadata>
<g transform="translate(0.000000,142.000000) scale(0.100000,-0.100000)"
fill="#000000" stroke="none">
<path d="M794 1041 c-38 -45 -85 -109 -104 -142 l-35 -62 -178 2 -178 2 3
-148 3 -148 180 3 180 4 22 -39 c29 -53 104 -135 163 -178 l50 -37 152 87
c353 202 548 317 548 324 0 12 -676 398 -709 406 -27 6 -34 0 -97 -74z m406
-134 c107 -58 234 -124 283 -148 48 -24 87 -47 87 -51 0 -4 -55 -35 -122 -69
-68 -34 -220 -115 -340 -180 -119 -66 -220 -119 -226 -119 -16 0 -109 104
-152 171 -43 66 -70 142 -70 194 0 81 67 207 168 317 l54 58 62 -33 c33 -19
149 -82 256 -140z m-562 -124 c-10 -37 -6 -146 7 -189 6 -20 5 -21 -157 -16
-90 2 -163 5 -164 6 0 0 2 51 5 111 l6 110 120 5 c66 4 137 7 157 8 l36 2 -10
-37z"/>
<path d="M849 945 c-72 -18 -103 -46 -123 -114 -20 -66 -21 -180 -2 -224 17
-41 74 -91 121 -107 51 -17 184 -8 265 19 l66 21 22 84 c12 46 22 106 22 132
-1 91 -53 164 -139 193 -45 15 -162 13 -232 -4z m216 -25 c11 -5 14 -9 8 -9
-8 -1 -13 -14 -13 -31 0 -25 -4 -30 -25 -30 -21 0 -25 5 -25 30 0 19 -5 30
-14 30 -10 0 -14 -9 -13 -27 2 -22 -3 -29 -20 -31 -20 -3 -23 1 -23 27 0 21
-5 31 -15 31 -10 0 -15 -10 -15 -30 0 -28 -3 -30 -35 -30 -32 0 -35 2 -35 30
0 24 5 31 28 36 15 3 32 7 37 9 21 7 141 3 160 -5z m68 -35 c15 -14 27 -28 27
-30 0 -3 -16 -5 -35 -5 -32 0 -35 2 -35 30 0 37 7 37 43 5z m-323 -10 c0 -18
-5 -25 -20 -25 -23 0 -24 4 -10 31 15 27 30 24 30 -6z m100 -70 c0 -22 -4 -25
-35 -25 -27 0 -35 4 -35 18 0 25 9 32 42 32 23 0 28 -4 28 -25z m78 -2 c3 -19
-1 -23 -22 -23 -21 0 -26 5 -26 26 0 21 4 25 23 22 14 -2 23 -11 25 -25z m72
-3 c0 -16 -4 -30 -9 -30 -25 0 -41 14 -41 36 0 19 5 24 25 24 21 0 25 -5 25
-30z m124 -1 c9 -46 7 -91 -5 -149 -11 -50 -11 -50 -50 -50 -39 0 -39 0 -39
40 l0 40 41 0 c24 0 38 4 34 10 -3 6 -22 10 -41 10 -30 0 -34 3 -34 25 0 14 6
25 13 26 23 1 61 9 66 14 2 3 -14 5 -37 5 -40 0 -42 1 -42 30 0 29 2 30 44 30
41 0 44 -2 50 -31z m-368 4 c0 -11 -12 -20 -29 -23 -35 -6 -36 -24 -2 -28 14
-2 25 -7 25 -12 0 -5 3 -15 6 -23 4 -12 -3 -16 -28 -19 -42 -4 -43 -22 0 -26
28 -3 32 -7 32 -33 0 -26 -3 -29 -30 -29 -40 0 -53 34 -47 121 5 80 10 89 46
89 21 0 28 -5 27 -17z m94 -78 c0 -22 -4 -25 -35 -25 -31 0 -35 3 -35 25 0 22
4 25 35 25 31 0 35 -3 35 -25z m80 0 c0 -20 -5 -25 -25 -25 -20 0 -25 5 -25
25 0 20 5 25 25 25 20 0 25 -5 25 -25z m70 0 c0 -20 -5 -25 -25 -25 -20 0 -25
5 -25 25 0 20 5 25 25 25 20 0 25 -5 25 -25z m-72 -88 c3 -30 0 -37 -15 -37
-30 0 -42 14 -39 45 2 17 4 31 5 32 0 2 11 1 24 -1 17 -2 23 -10 25 -39z m75
11 c6 -41 2 -48 -29 -48 -21 0 -24 5 -24 33 0 38 6 47 31 47 11 0 18 -10 22
-32z m-153 -8 c0 -28 -3 -30 -35 -30 -32 0 -35 2 -35 30 0 28 3 30 35 30 32 0
35 -2 35 -30z m-90 -75 c0 -8 -4 -15 -9 -15 -5 0 -14 7 -21 15 -10 13 -9 15 9
15 12 0 21 -6 21 -15z m98 -17 c3 -22 -1 -28 -15 -28 -42 0 -63 12 -63 37 0
22 4 24 38 21 32 -3 37 -7 40 -30z m72 2 c0 -27 -3 -30 -30 -30 -27 0 -30 3
-30 30 0 27 3 30 30 30 27 0 30 -3 30 -30z m80 6 c0 -16 -7 -26 -22 -30 -36
-9 -38 -8 -38 24 0 27 3 30 30 30 25 0 30 -4 30 -24z m90 14 c0 -13 -34 -30
-59 -30 -14 0 -21 6 -21 20 0 17 7 20 40 20 22 0 40 -4 40 -10z"/>
</g>
</svg>
