<?xml version="1.0" standalone="no"?>
<!DOCTYPE svg PUBLIC "-//W3C//DTD SVG 20010904//EN"
 "http://www.w3.org/TR/2001/REC-SVG-20010904/DTD/svg10.dtd">
<svg version="1.0" xmlns="http://www.w3.org/2000/svg"
 width="190.000000pt" height="142.000000pt" viewBox="0 0 190.000000 142.000000"
 preserveAspectRatio="xMidYMid meet">
<metadata>
Created by potrace 1.16, written by Peter Selinger 2001-2019
</metadata>
<g transform="translate(0.000000,142.000000) scale(0.100000,-0.100000)"
fill="#000000" stroke="none">
<path d="M797 1043 l-67 -78 -207 0 c-188 0 -208 -2 -211 -17 -3 -16 11 -17
199 -11 120 4 200 3 197 -3 -2 -5 -19 -41 -38 -80 l-34 -70 -168 4 -168 5 0
-152 0 -152 198 6 197 6 34 -46 c35 -47 118 -123 157 -143 18 -10 58 10 295
146 355 204 419 243 419 251 0 4 -24 20 -52 37 -29 17 -181 105 -338 196 -157
91 -299 168 -316 172 -28 6 -35 1 -97 -71z m358 -111 c143 -77 295 -157 338
-178 42 -21 77 -42 77 -46 0 -4 -55 -35 -122 -69 -124 -62 -534 -284 -554
-300 -22 -18 -148 134 -196 237 -53 114 -40 214 45 339 37 54 137 166 145 161
4 -2 124 -67 267 -144z m-525 -224 c0 -29 11 -84 24 -121 l23 -68 -176 7 c-97
4 -176 7 -177 8 0 0 1 49 4 108 5 126 -12 115 175 117 l127 1 0 -52z"/>
<path d="M900 859 l0 -41 -72 4 c-62 3 -73 1 -76 -14 -3 -16 5 -18 72 -18 74
0 76 -1 76 -25 0 -24 -2 -25 -75 -25 -60 0 -75 -3 -75 -15 0 -12 15 -15 75
-15 l75 0 0 -30 0 -30 -75 0 c-60 0 -75 -3 -75 -15 0 -12 16 -15 80 -15 l80 0
0 -60 c0 -33 4 -60 10 -60 6 0 10 27 10 60 0 57 1 60 25 60 24 0 25 -3 25 -60
0 -33 4 -60 10 -60 6 0 10 27 10 60 0 57 1 60 25 60 23 0 25 -4 26 -45 2 -58
3 -62 12 -71 4 -4 7 20 7 53 l0 60 61 7 c34 3 80 6 102 6 22 0 37 3 33 8 -10
9 -11 9 -106 11 l-80 1 0 29 0 29 88 7 c95 7 122 12 80 15 -16 2 -32 4 -38 5
-5 1 -37 3 -70 4 -60 1 -60 1 -60 31 l0 30 96 0 c61 0 93 4 89 10 -3 6 -46 10
-96 10 l-89 0 0 40 c0 54 -27 56 -32 3 -2 -27 -8 -39 -20 -41 -15 -3 -18 4
-18 37 0 34 -3 41 -20 41 -17 0 -20 -7 -20 -41 0 -33 -3 -40 -17 -37 -13 2
-19 14 -21 41 -5 54 -32 51 -32 -4z m73 -88 c6 -24 0 -31 -25 -31 -13 0 -18 7
-18 25 0 31 35 35 43 6z m77 -7 c0 -21 -4 -25 -22 -22 -35 5 -33 48 3 48 14 0
19 -7 19 -26z m-72 -86 c3 -24 0 -28 -22 -28 -22 0 -26 4 -26 31 0 26 3 30 23
27 16 -2 23 -11 25 -30z m72 2 c0 -25 -4 -30 -25 -30 -21 0 -25 5 -25 30 0 25
4 30 25 30 21 0 25 -5 25 -30z"/>
</g>
</svg>
