<?xml version="1.0" standalone="no"?>
<!DOCTYPE svg PUBLIC "-//W3C//DTD SVG 20010904//EN"
 "http://www.w3.org/TR/2001/REC-SVG-20010904/DTD/svg10.dtd">
<svg version="1.0" xmlns="http://www.w3.org/2000/svg"
 width="190.000000pt" height="142.000000pt" viewBox="0 0 190.000000 142.000000"
 preserveAspectRatio="xMidYMid meet">
<metadata>
Created by potrace 1.16, written by Peter Selinger 2001-2019
</metadata>
<g transform="translate(0.000000,142.000000) scale(0.100000,-0.100000)"
fill="#000000" stroke="none">
<path d="M791 1038 c-39 -46 -85 -110 -102 -143 l-32 -60 -179 3 -179 4 3
-149 3 -148 180 3 180 4 22 -39 c29 -53 104 -135 163 -178 l50 -37 152 87
c353 202 548 317 548 324 0 12 -676 398 -708 406 -27 6 -35 0 -101 -77z m419
-136 c113 -60 240 -127 283 -148 42 -21 77 -42 77 -46 0 -4 -55 -35 -122 -69
-68 -34 -220 -115 -340 -180 -119 -66 -220 -119 -226 -119 -5 0 -31 24 -59 53
-110 116 -170 241 -159 333 11 92 62 185 161 292 l57 62 62 -34 c33 -18 153
-83 266 -144z m-572 -119 c-10 -37 -6 -146 7 -189 6 -20 5 -21 -157 -16 -90 2
-163 5 -164 6 0 0 2 51 5 111 l6 110 120 5 c66 4 137 7 157 8 l36 2 -10 -37z"/>
<path d="M1009 918 c-1 -7 0 -28 1 -45 l2 -33 -86 0 c-93 0 -95 -1 -79 -59 6
-23 9 -23 84 -19 l79 5 0 -49 0 -49 -80 2 c-44 1 -83 0 -86 -3 -3 -3 -2 -22 1
-42 l7 -36 78 6 c75 6 77 6 83 -17 4 -13 7 -36 7 -51 0 -28 1 -28 65 -28 l65
0 0 209 c0 236 6 221 -86 221 -36 0 -54 -4 -55 -12z m114 -75 c4 -38 7 -125 7
-195 l0 -128 -51 0 -51 0 6 83 c3 45 6 133 6 195 l0 112 39 0 38 0 6 -67z
m-113 -43 c0 -19 -5 -21 -72 -18 -60 2 -73 6 -76 21 -3 15 6 17 72 17 70 0 76
-2 76 -20z m0 -165 c0 -23 -4 -25 -44 -25 -63 0 -106 10 -106 26 0 12 27 17
118 22 28 2 32 -1 32 -23z"/>
</g>
</svg>
