<?xml version="1.0" standalone="no"?>
<!DOCTYPE svg PUBLIC "-//W3C//DTD SVG 20010904//EN"
 "http://www.w3.org/TR/2001/REC-SVG-20010904/DTD/svg10.dtd">
<svg version="1.0" xmlns="http://www.w3.org/2000/svg"
 width="190.000000pt" height="142.000000pt" viewBox="0 0 190.000000 142.000000"
 preserveAspectRatio="xMidYMid meet">
<metadata>
Created by potrace 1.16, written by Peter Selinger 2001-2019
</metadata>
<g transform="translate(0.000000,142.000000) scale(0.100000,-0.100000)"
fill="#000000" stroke="none">
<path d="M791 1038 c-39 -46 -85 -110 -102 -143 l-32 -60 -179 3 -179 4 3
-149 3 -148 180 3 180 4 22 -39 c29 -53 104 -135 163 -178 l50 -37 152 87
c355 203 548 317 548 324 0 4 -47 34 -105 67 -57 32 -105 62 -105 66 0 4 10 9
23 11 12 2 3 5 -20 6 -34 1 -82 24 -257 125 -119 68 -229 127 -245 131 -26 6
-34 0 -100 -77z m357 -103 c67 -36 122 -67 122 -68 0 -1 -51 -1 -112 1 -62 1
-119 -2 -127 -7 -11 -7 -12 -40 -6 -180 7 -172 25 -229 25 -80 0 64 3 79 15
79 11 0 15 -12 15 -45 0 -25 5 -45 10 -45 6 0 10 20 10 45 0 50 16 61 26 18
10 -48 12 -49 13 -10 1 41 30 55 32 15 l2 -23 4 23 c4 20 10 22 79 22 43 0 74
4 74 10 0 6 -25 10 -55 10 -43 0 -53 3 -49 14 3 9 32 18 77 24 l72 9 -72 2
c-65 1 -73 3 -73 21 0 17 8 19 73 22 l72 3 -72 9 c-51 6 -73 13 -73 22 0 10
14 14 46 14 37 0 72 -13 170 -62 68 -35 124 -66 124 -70 0 -5 -55 -35 -122
-69 -68 -34 -220 -115 -340 -180 -119 -66 -220 -119 -226 -119 -16 0 -109 104
-152 171 -79 123 -87 216 -28 337 17 34 33 62 35 62 3 0 13 -10 24 -22 23 -28
25 -110 5 -188 l-14 -54 48 -56 c63 -72 148 -155 154 -149 2 2 6 94 7 203 3
153 1 200 -8 203 -10 4 -13 -39 -14 -189 l0 -193 -32 37 -32 36 0 166 c0 104
-4 166 -10 166 -6 0 -9 -56 -7 -155 2 -85 1 -155 -1 -155 -3 0 -23 24 -45 53
l-40 52 14 55 c20 79 18 127 -10 175 l-24 41 65 72 65 72 71 -39 c40 -21 127
-69 195 -106z m-68 -110 c0 -8 -7 -15 -15 -15 -8 0 -15 7 -15 15 0 8 7 15 15
15 8 0 15 -7 15 -15z m40 0 c0 -8 -4 -15 -10 -15 -5 0 -10 7 -10 15 0 8 5 15
10 15 6 0 10 -7 10 -15z m37 -7 c-3 -8 -6 -5 -6 6 -1 11 2 17 5 13 3 -3 4 -12
1 -19z m43 7 c0 -8 -4 -15 -10 -15 -5 0 -7 7 -4 15 4 8 8 15 10 15 2 0 4 -7 4
-15z m-562 -42 c-10 -37 -6 -146 7 -189 6 -20 5 -21 -157 -16 -90 2 -163 5
-164 6 0 0 2 51 5 111 l6 110 125 5 c69 3 139 7 157 8 l31 2 -10 -37z m482
-15 c0 -16 -3 -19 -11 -11 -6 6 -8 16 -5 22 11 17 16 13 16 -11z m40 0 c0 -18
-2 -20 -9 -8 -6 8 -7 18 -5 22 9 14 14 9 14 -14z m45 -8 c-6 -9 -9 -9 -16 1
-10 17 0 34 13 21 6 -6 7 -16 3 -22z m-125 10 c0 -5 -7 -10 -15 -10 -8 0 -15
5 -15 10 0 6 7 10 15 10 8 0 15 -4 15 -10z m0 -55 c0 -8 -7 -15 -15 -15 -8 0
-15 7 -15 15 0 8 7 15 15 15 8 0 15 -7 15 -15z m40 0 c0 -8 -4 -15 -10 -15 -5
0 -10 7 -10 15 0 8 5 15 10 15 6 0 10 -7 10 -15z m44 0 c3 -9 0 -15 -8 -15 -7
0 -13 7 -13 15 0 8 4 15 8 15 4 0 9 -7 13 -15z m46 0 c0 -8 -7 -15 -15 -15 -8
0 -15 7 -15 15 0 8 7 15 15 15 8 0 15 -7 15 -15z"/>
<path d="M820 761 c0 -87 4 -141 10 -141 6 0 10 51 10 134 0 79 -4 137 -10
141 -6 4 -10 -43 -10 -134z"/>
<path d="M900 690 c0 -107 4 -170 10 -170 6 0 10 63 10 170 0 107 -4 170 -10
170 -6 0 -10 -63 -10 -170z"/>
</g>
</svg>
