<?xml version="1.0" standalone="no"?>
<!DOCTYPE svg PUBLIC "-//W3C//DTD SVG 20010904//EN"
 "http://www.w3.org/TR/2001/REC-SVG-20010904/DTD/svg10.dtd">
<svg version="1.0" xmlns="http://www.w3.org/2000/svg"
 width="190.000000pt" height="142.000000pt" viewBox="0 0 190.000000 142.000000"
 preserveAspectRatio="xMidYMid meet">
<metadata>
Created by potrace 1.16, written by Peter Selinger 2001-2019
</metadata>
<g transform="translate(0.000000,142.000000) scale(0.100000,-0.100000)"
fill="#000000" stroke="none">
<path d="M858 1107 c-9 -6 -41 -41 -72 -77 l-56 -65 -207 0 c-188 0 -208 -2
-211 -17 -3 -16 11 -17 199 -11 120 4 200 3 197 -3 -2 -5 -19 -41 -38 -80
l-34 -70 -168 4 -168 5 0 -153 0 -152 198 7 197 6 34 -46 c35 -47 118 -123
157 -143 18 -9 55 9 265 129 347 199 449 260 449 268 0 6 -288 177 -504 299
-22 13 -70 41 -106 61 -77 45 -111 55 -132 38z m156 -133 c-29 -28 -39 -66
-24 -94 14 -27 68 -60 98 -60 21 0 22 4 22 65 0 36 3 65 6 65 4 0 72 -35 153
-79 80 -43 184 -98 230 -121 l84 -42 -202 -104 c-111 -57 -212 -110 -224 -119
-40 -28 -47 -20 -47 55 0 69 0 70 -26 70 -37 0 -81 -29 -95 -62 -15 -37 -1
-71 41 -97 l31 -19 -90 -50 -91 -50 -66 71 c-64 71 -134 194 -149 262 l-7 30
30 -28 c16 -15 45 -30 65 -34 l37 -6 0 93 0 93 -36 -6 c-20 -4 -48 -17 -62
-29 l-24 -23 7 25 c21 70 77 156 159 247 l48 53 78 -42 78 -43 -24 -21z m51
-64 c0 -38 -3 -70 -6 -70 -4 0 -18 9 -33 21 -33 26 -35 70 -4 99 36 33 43 25
43 -50z m-320 -190 c0 -38 -3 -70 -6 -70 -21 0 -59 45 -59 70 0 25 38 70 59
70 3 0 6 -31 6 -70z m-115 -12 c0 -29 11 -84 24 -121 l23 -68 -176 7 c-97 4
-176 7 -177 8 0 0 1 49 4 108 5 126 -13 114 180 117 l122 1 0 -52z m435 -188
c0 -38 -3 -70 -6 -70 -4 0 -18 9 -33 21 -33 26 -35 70 -4 99 36 33 43 25 43
-50z"/>
<path d="M873 880 c-59 -35 -67 -74 -25 -120 30 -34 101 -54 103 -29 1 27 1
95 0 132 -1 31 -4 37 -23 37 -13 0 -37 -9 -55 -20z m29 -54 c-2 -31 1 -62 8
-75 11 -21 10 -22 -12 -10 -65 33 -78 82 -32 118 15 12 30 21 34 21 4 0 5 -24
2 -54z"/>
<path d="M1044 800 c-27 -11 -64 -57 -64 -81 0 -32 51 -79 93 -86 l37 -6 0 92
c0 88 -1 91 -22 90 -13 0 -33 -4 -44 -9z m21 -80 c0 -38 -3 -70 -6 -70 -21 0
-59 45 -59 70 0 25 38 70 59 70 3 0 6 -31 6 -70z"/>
<path d="M880 693 c-19 -10 -41 -30 -49 -44 -28 -50 21 -113 94 -121 l29 -3 0
90 c0 102 -8 111 -74 78z m32 -15 c-15 -15 -16 -92 -2 -119 13 -23 2 -24 -30
-2 -32 22 -40 33 -40 61 0 27 41 72 67 72 13 0 14 -3 5 -12z"/>
</g>
</svg>
