<?xml version="1.0" standalone="no"?>
<!DOCTYPE svg PUBLIC "-//W3C//DTD SVG 20010904//EN"
 "http://www.w3.org/TR/2001/REC-SVG-20010904/DTD/svg10.dtd">
<svg version="1.0" xmlns="http://www.w3.org/2000/svg"
 width="189.000000pt" height="142.000000pt" viewBox="0 0 189.000000 142.000000"
 preserveAspectRatio="xMidYMid meet">
<metadata>
Created by potrace 1.16, written by Peter Selinger 2001-2019
</metadata>
<g transform="translate(0.000000,142.000000) scale(0.100000,-0.100000)"
fill="#000000" stroke="none">
<path d="M793 1046 c-76 -82 -124 -156 -151 -234 -11 -29 -21 -54 -24 -57 -3
-3 -72 21 -152 55 -81 33 -151 58 -157 55 -8 -5 -14 -325 -6 -325 1 0 72 29
157 65 85 36 155 65 157 65 1 0 9 -24 17 -52 32 -106 112 -216 209 -282 l53
-37 70 41 c38 22 77 40 87 40 10 0 16 4 13 8 -3 4 21 22 52 40 153 84 467 271
469 278 4 11 20 1 -356 218 -174 101 -328 186 -343 189 -23 6 -34 -2 -95 -67z
m197 -35 c0 -4 -12 -14 -27 -23 -112 -67 -201 -192 -188 -266 10 -62 62 -140
151 -229 l83 -83 -47 -26 c-26 -15 -57 -33 -68 -40 -20 -12 -26 -9 -71 39 -61
65 -107 132 -140 203 -61 135 -16 271 150 451 l39 43 59 -31 c33 -18 59 -35
59 -38z m223 -115 c94 -51 214 -115 266 -141 l94 -47 -199 -103 c-109 -56
-230 -121 -269 -143 l-70 -40 -24 21 c-13 12 -48 51 -77 86 l-53 64 131 61
c72 33 133 66 135 73 6 17 -254 146 -263 132 -9 -15 1 -20 129 -76 59 -26 107
-49 107 -52 0 -3 -37 -21 -83 -40 -45 -19 -101 -44 -124 -57 l-42 -22 -22 35
c-35 56 -37 123 -6 175 37 63 152 167 185 168 7 0 90 -42 185 -94z m-732 -123
c103 -35 139 -52 139 -64 0 -12 -36 -29 -137 -64 -76 -26 -144 -50 -150 -52
-9 -4 -13 7 -13 34 0 60 12 193 18 193 2 0 67 -21 143 -47z"/>
</g>
</svg>
