<?xml version="1.0" standalone="no"?>
<!DOCTYPE svg PUBLIC "-//W3C//DTD SVG 20010904//EN"
 "http://www.w3.org/TR/2001/REC-SVG-20010904/DTD/svg10.dtd">
<svg version="1.0" xmlns="http://www.w3.org/2000/svg"
 width="190.000000pt" height="142.000000pt" viewBox="0 0 190.000000 142.000000"
 preserveAspectRatio="xMidYMid meet">
<metadata>
Created by potrace 1.16, written by Peter Selinger 2001-2019
</metadata>
<g transform="translate(0.000000,142.000000) scale(0.100000,-0.100000)"
fill="#000000" stroke="none">
<path d="M791 1038 c-39 -46 -85 -110 -102 -143 l-32 -60 -179 3 -179 4 3
-149 3 -148 180 3 180 4 22 -39 c29 -53 104 -135 164 -179 l50 -36 222 127
c356 204 477 276 477 284 0 12 -676 399 -708 406 -27 6 -35 0 -101 -77z m399
-126 c102 -55 232 -123 289 -152 l105 -52 -180 -92 c-98 -51 -254 -133 -345
-184 -92 -51 -171 -92 -176 -92 -17 0 -110 104 -153 171 -52 81 -74 156 -66
222 12 90 74 194 179 304 l40 42 61 -33 c34 -19 144 -79 246 -134z m-552 -129
c-10 -37 -6 -146 7 -189 6 -20 5 -21 -157 -16 -90 2 -163 5 -164 6 0 0 2 51 5
111 l6 110 120 5 c66 4 137 7 157 8 l36 2 -10 -37z"/>
<path d="M954 944 c-5 -2 -35 -8 -67 -14 -93 -18 -127 -63 -143 -185 -19 -156
97 -256 263 -225 154 28 163 36 189 160 22 109 -2 187 -71 230 -29 18 -145 41
-171 34z m25 -48 c9 -11 6 -18 -15 -35 -35 -27 -39 -27 -63 8 -20 27 -20 30
-4 34 37 10 71 7 82 -7z m48 8 c-3 -3 -12 -4 -19 -1 -8 3 -5 6 6 6 11 1 17 -2
13 -5z m92 -26 c27 -17 27 -20 -10 -47 l-31 -23 -24 28 c-26 33 -29 45 -13 61
12 12 40 5 78 -19z m-227 -42 c9 -16 6 -24 -18 -43 -36 -29 -45 -28 -66 1 -14
20 -16 30 -7 55 6 16 18 32 27 34 19 4 48 -18 64 -47z m140 -10 l28 -35 -31
-22 -32 -22 -28 34 -28 34 27 22 c15 12 29 22 32 23 3 0 17 -15 32 -34z m131
-3 c16 -59 16 -71 -2 -87 -17 -16 -20 -15 -46 20 l-28 37 29 24 c35 28 41 28
47 6z m-193 -91 c0 -5 -15 -21 -33 -35 l-33 -25 -28 35 c-15 19 -26 35 -24 37
1 1 18 14 36 29 l33 27 25 -29 c13 -16 24 -33 24 -39z m-174 2 c-24 -17 -26
-16 -19 19 5 27 7 27 22 12 15 -15 14 -17 -3 -31z m308 3 l20 -28 -29 -24 -30
-25 -28 33 -28 32 27 23 c31 27 41 25 68 -11z m-246 -47 c12 -16 22 -31 22
-33 0 -9 -72 -59 -77 -54 -2 3 -11 22 -18 43 -12 35 -11 39 9 56 29 24 39 22
64 -12z m316 15 c-4 -8 -10 -12 -15 -9 -11 6 -2 24 11 24 5 0 7 -7 4 -15z
m-153 -26 l21 -31 -33 -28 c-19 -16 -37 -29 -40 -30 -3 0 -15 13 -27 30 l-22
30 32 30 c18 16 36 30 40 30 4 0 16 -14 29 -31z m137 -6 c10 -17 -2 -80 -18
-97 -5 -5 -38 -14 -74 -21 -87 -17 -102 -2 -45 43 l41 31 25 -30 c33 -39 42
-30 11 11 l-23 32 30 24 c36 28 41 29 53 7z m-228 -73 l21 -30 -25 -11 c-24
-11 -58 -7 -85 10 -11 7 -9 14 15 35 38 33 48 32 74 -4z"/>
</g>
</svg>
