<?xml version="1.0" standalone="no"?>
<!DOCTYPE svg PUBLIC "-//W3C//DTD SVG 20010904//EN"
 "http://www.w3.org/TR/2001/REC-SVG-20010904/DTD/svg10.dtd">
<svg version="1.0" xmlns="http://www.w3.org/2000/svg"
 width="190.000000pt" height="142.000000pt" viewBox="0 0 190.000000 142.000000"
 preserveAspectRatio="xMidYMid meet">
<metadata>
Created by potrace 1.16, written by Peter Selinger 2001-2019
</metadata>
<g transform="translate(0.000000,142.000000) scale(0.100000,-0.100000)"
fill="#000000" stroke="none">
<path d="M794 1041 c-38 -45 -85 -109 -104 -142 l-35 -62 -178 2 -178 2 3
-148 3 -148 180 3 180 4 22 -39 c29 -53 104 -135 163 -178 l50 -37 152 87
c353 202 548 317 548 324 0 12 -676 398 -709 406 -27 6 -34 0 -97 -74z m406
-134 c107 -58 234 -124 283 -148 48 -24 87 -47 87 -51 0 -4 -55 -35 -122 -69
-68 -34 -220 -115 -340 -180 -119 -66 -220 -119 -226 -119 -16 0 -109 104
-152 171 -111 172 -85 310 95 507 l57 63 62 -34 c33 -19 149 -82 256 -140z
m-562 -124 c-10 -37 -6 -146 7 -189 6 -20 5 -21 -157 -16 -90 2 -163 5 -164 6
0 0 2 51 5 111 l6 110 120 5 c66 4 137 7 157 8 l36 2 -10 -37z"/>
<path d="M910 952 c-19 -15 -43 -36 -53 -47 -33 -37 -77 -120 -77 -144 0 -39
36 -103 84 -150 l44 -43 -34 -45 c-38 -49 -42 -68 -18 -77 52 -20 131 8 199
68 l40 37 -29 22 c-17 12 -44 36 -62 52 l-33 30 28 91 c15 50 37 110 48 134
l22 43 -29 28 c-38 38 -83 38 -130 1z m99 -3 c36 -13 37 -17 11 -68 -10 -22
-30 -83 -44 -137 -28 -114 -24 -126 49 -165 51 -27 48 -34 -24 -81 -34 -21
-57 -28 -94 -28 l-49 0 32 41 c19 23 38 38 46 35 25 -9 15 5 -50 75 -45 48
-67 82 -76 114 -13 46 -13 47 26 103 35 50 113 122 133 122 5 0 22 -5 40 -11z"/>
</g>
</svg>
