<?xml version="1.0" standalone="no"?>
<!DOCTYPE svg PUBLIC "-//W3C//DTD SVG 20010904//EN"
 "http://www.w3.org/TR/2001/REC-SVG-20010904/DTD/svg10.dtd">
<svg version="1.0" xmlns="http://www.w3.org/2000/svg"
 width="192.000000pt" height="402.000000pt" viewBox="0 0 192.000000 402.000000"
 preserveAspectRatio="xMidYMid meet">
<metadata>
Created by potrace 1.16, written by Peter Selinger 2001-2019
</metadata>
<g transform="translate(0.000000,402.000000) scale(0.100000,-0.100000)"
fill="#000000" stroke="none">
<path d="M820 3649 c-79 -92 -127 -167 -152 -238 -11 -31 -21 -57 -23 -59 -2
-2 -68 24 -147 57 -79 34 -149 61 -155 61 -19 0 -24 -46 -22 -203 l1 -152 39
-75 c47 -91 98 -146 147 -160 52 -14 211 -12 317 4 l91 13 304 175 c364 209
400 231 400 240 0 3 -19 17 -42 30 -24 14 -176 101 -339 195 -162 94 -309 174
-326 177 -29 7 -35 3 -93 -65z m500 -193 c140 -75 260 -138 265 -140 15 -5 13
-6 -160 -96 -88 -46 -241 -128 -340 -183 -133 -73 -183 -97 -195 -90 -36 23
-136 154 -169 223 -29 61 -36 86 -36 135 0 96 52 197 163 317 l54 58 82 -44
c44 -24 196 -105 336 -180z m-816 -81 l129 -44 -134 -3 c-74 -2 -134 -7 -134
-12 0 -4 64 -7 143 -7 78 1 142 -2 142 -6 0 -4 -64 -30 -143 -57 -78 -27 -147
-51 -153 -53 -7 -2 -9 27 -7 89 4 102 10 138 21 138 4 0 65 -20 136 -45z m151
-137 c21 -96 101 -212 195 -284 l51 -39 -48 -7 c-76 -10 -273 -9 -323 3 -25 6
-58 22 -74 37 -29 27 -109 179 -103 195 2 8 270 125 289 126 3 1 10 -14 13
-31z"/>
<path d="M696 3323 c-6 -15 21 -16 361 -10 202 4 390 7 416 7 30 0 46 4 42 10
-4 6 -151 10 -410 10 -366 0 -403 -2 -409 -17z"/>
<path d="M830 2453 c-74 -82 -143 -190 -164 -256 -10 -32 -19 -57 -21 -57 -2
0 -68 27 -147 60 -78 33 -148 60 -154 60 -20 0 -25 -45 -24 -203 l2 -152 35
-67 c48 -92 105 -155 151 -168 53 -14 201 -12 313 5 l96 14 334 192 c384 221
369 212 369 221 0 3 -33 25 -72 48 -424 246 -608 348 -634 354 -29 6 -36 2
-84 -51z m322 -117 c95 -51 233 -124 306 -161 72 -38 132 -71 132 -74 0 -4
-42 -27 -92 -52 -51 -26 -205 -108 -343 -183 -180 -99 -254 -135 -265 -128 -8
5 -41 40 -73 78 -67 79 -124 189 -133 255 -13 93 44 211 160 336 l58 63 39
-20 c21 -11 116 -62 211 -114z m-502 -235 c0 -12 -38 -29 -147 -66 -81 -28
-149 -51 -153 -53 -6 -2 -2 179 5 214 4 20 10 19 150 -29 108 -37 145 -53 145
-66z m14 -101 c24 -79 101 -188 176 -247 l60 -48 -53 -7 c-83 -10 -249 -9
-308 2 -35 7 -63 20 -82 38 -30 29 -110 179 -104 196 3 9 259 123 283 125 5 1
18 -26 28 -59z"/>
<path d="M696 2113 c-6 -15 17 -16 301 -10 169 4 356 7 416 7 64 0 107 4 107
10 0 7 -143 10 -409 10 -372 0 -409 -2 -415 -17z"/>
<path d="M806 1039 c-36 -39 -66 -74 -66 -78 0 -4 -92 -5 -205 -3 -182 4 -206
2 -221 -13 -15 -15 -16 -39 -11 -237 3 -121 7 -221 9 -223 2 -2 89 0 193 5
189 9 190 9 204 -13 26 -40 163 -167 186 -173 16 -4 100 39 327 169 406 233
395 225 372 242 -61 42 -669 384 -693 390 -25 5 -35 -1 -95 -66z m373 -123
c157 -85 300 -161 316 -169 28 -15 14 -16 -205 -15 -129 0 -321 3 -427 7
l-192 6 19 52 c10 28 33 73 51 100 35 52 137 173 146 173 3 0 134 -69 292
-154z m-499 -58 c-22 -45 -40 -90 -40 -99 0 -16 -15 -18 -150 -21 l-150 -3 0
93 c0 50 1 93 3 93 1 1 72 5 157 9 85 3 169 7 187 8 l32 2 -39 -82z m895 -157
c-6 -5 -68 -40 -140 -77 -71 -37 -224 -119 -340 -182 l-209 -115 -68 73 c-76
82 -135 186 -144 254 l-7 46 289 3 c159 1 365 3 459 5 102 1 165 -2 160 -7z
m-935 -58 c7 -32 21 -76 32 -97 l20 -39 -47 7 c-26 3 -109 6 -184 6 l-136 0 3
85 3 84 137 4 c75 1 142 4 149 5 7 1 16 -22 23 -55z"/>
</g>
</svg>
