<?xml version="1.0" standalone="no"?>
<!DOCTYPE svg PUBLIC "-//W3C//DTD SVG 20010904//EN"
 "http://www.w3.org/TR/2001/REC-SVG-20010904/DTD/svg10.dtd">
<svg version="1.0" xmlns="http://www.w3.org/2000/svg"
 width="189.000000pt" height="142.000000pt" viewBox="0 0 189.000000 142.000000"
 preserveAspectRatio="xMidYMid meet">
<metadata>
Created by potrace 1.16, written by Peter Selinger 2001-2019
</metadata>
<g transform="translate(0.000000,142.000000) scale(0.100000,-0.100000)"
fill="#000000" stroke="none">
<path d="M793 1046 c-75 -81 -128 -163 -153 -237 -10 -27 -19 -52 -22 -55 -3
-3 -72 22 -152 56 -81 33 -151 58 -157 55 -8 -5 -14 -325 -6 -325 1 0 72 29
157 65 84 35 155 64 156 62 1 -1 12 -31 24 -67 35 -105 118 -208 219 -275 l37
-25 250 144 c409 236 438 253 441 262 4 11 -14 21 -382 234 -159 92 -302 170
-317 173 -23 6 -34 -2 -95 -67z m367 -121 c135 -73 283 -151 329 -175 l84 -42
-189 -97 c-104 -54 -262 -139 -351 -189 l-162 -90 -48 51 c-61 65 -107 132
-140 203 -61 134 -15 271 150 451 35 38 42 41 61 31 11 -6 131 -71 266 -143z
m-679 -152 c103 -35 139 -52 139 -64 0 -12 -36 -29 -137 -64 -76 -26 -144 -50
-150 -52 -9 -4 -13 7 -13 34 0 60 12 193 18 193 2 0 67 -21 143 -47z"/>
<path d="M1001 889 c-13 -5 -70 -42 -126 -81 -78 -55 -102 -77 -102 -94 0 -17
23 -39 102 -93 139 -95 148 -98 193 -64 70 53 177 145 181 155 1 5 -16 26 -40
46 -70 60 -174 142 -179 141 -3 0 -16 -5 -29 -10z m119 -95 c58 -42 107 -77
109 -79 2 -3 -8 -9 -22 -16 -23 -10 -32 -5 -125 72 -93 78 -110 99 -79 99 7 0
59 -34 117 -76z m-49 -40 c79 -62 97 -80 88 -91 -10 -11 -14 -11 -28 0 -9 7
-55 47 -103 87 -49 40 -88 75 -88 77 0 17 48 -10 131 -73z m-72 -11 c125 -93
135 -102 117 -109 -10 -4 -42 17 -91 60 -42 37 -85 72 -96 79 -18 11 -26 27
-12 27 3 0 40 -26 82 -57z m-7 -50 c90 -68 99 -77 84 -89 -16 -11 -30 -2 -115
69 -89 75 -108 97 -80 97 6 0 55 -34 111 -77z m-51 -29 c54 -43 99 -79 99 -82
0 -3 -8 -10 -17 -17 -15 -11 -25 -7 -73 34 -30 26 -74 62 -98 80 -34 27 -40
36 -31 47 6 8 13 14 16 14 2 0 49 -34 104 -76z"/>
</g>
</svg>
