<?xml version="1.0" standalone="no"?>
<!DOCTYPE svg PUBLIC "-//W3C//DTD SVG 20010904//EN"
 "http://www.w3.org/TR/2001/REC-SVG-20010904/DTD/svg10.dtd">
<svg version="1.0" xmlns="http://www.w3.org/2000/svg"
 width="190.000000pt" height="254.000000pt" viewBox="0 0 190.000000 254.000000"
 preserveAspectRatio="xMidYMid meet">
<metadata>
Created by potrace 1.16, written by Peter Selinger 2001-2019
</metadata>
<g transform="translate(0.000000,254.000000) scale(0.100000,-0.100000)"
fill="#000000" stroke="none">
<path d="M810 2183 c-94 -102 -158 -206 -175 -280 -3 -18 -9 -33 -11 -33 -2 0
-72 28 -154 61 -83 34 -154 59 -158 55 -4 -4 -8 -77 -10 -162 -3 -129 -1 -154
11 -154 8 0 79 27 157 60 78 33 146 60 150 60 4 0 11 -17 15 -37 17 -92 110
-221 214 -298 l49 -35 351 202 c193 111 351 205 351 208 0 3 -28 22 -62 42
-448 259 -623 358 -647 363 -25 5 -34 -1 -81 -52z m250 -105 c0 -24 -4 -28
-29 -28 -27 0 -30 3 -33 38 -2 20 -7 37 -13 37 -5 0 -11 -17 -13 -37 -3 -30
-7 -38 -23 -38 -16 0 -19 7 -19 40 0 29 -4 40 -15 40 -11 0 -15 -11 -15 -40 0
-36 -2 -40 -25 -40 -22 0 -25 4 -25 40 0 29 -4 40 -15 40 -14 0 -15 -25 -13
-197 3 -207 12 -405 18 -388 6 18 7 39 9 153 l1 112 25 0 25 0 0 -135 c0 -83
4 -135 10 -135 6 0 10 52 10 135 l0 135 24 0 c22 0 23 -4 30 -92 3 -50 6 -114
6 -141 0 -99 11 -37 17 94 6 137 11 151 48 147 19 -3 20 -12 23 -129 l3 -126
-92 -52 c-51 -28 -96 -51 -100 -51 -20 0 -142 151 -176 218 -34 68 -38 83 -38
151 0 69 4 83 39 149 22 41 70 107 108 147 l69 74 89 -47 c79 -42 90 -50 90
-74z m218 -92 c98 -52 203 -107 235 -122 31 -16 57 -31 57 -34 0 -3 -39 -25
-87 -49 -49 -23 -154 -78 -235 -122 -80 -43 -149 -79 -152 -79 -3 0 -6 113 -6
250 0 138 3 250 6 250 3 0 85 -42 182 -94z m-308 24 c0 -13 -7 -20 -20 -20
-25 0 -27 27 -2 33 9 3 18 5 20 6 1 0 2 -8 2 -19z m90 -3 c0 -20 -4 -23 -30
-19 -21 3 -30 10 -30 23 0 14 7 19 30 19 25 0 30 -4 30 -23z m-160 -2 c0 -9
-9 -15 -25 -15 -16 0 -25 6 -25 15 0 9 9 15 25 15 16 0 25 -6 25 -15z m160
-60 c0 -21 -5 -25 -30 -25 -23 0 -30 5 -30 19 0 20 12 29 43 30 12 1 17 -7 17
-24z m-160 -5 c0 -15 -7 -20 -25 -20 -18 0 -25 5 -25 20 0 15 7 20 25 20 18 0
25 -5 25 -20z m70 0 c0 -13 -7 -20 -20 -20 -13 0 -20 7 -20 20 0 13 7 20 20
20 13 0 20 -7 20 -20z m-347 -112 c-4 -11 -50 -32 -151 -66 -81 -28 -148 -49
-149 -48 -1 1 1 54 4 117 l6 116 147 -51 c120 -41 146 -54 143 -68z m437 39
c0 -32 -2 -33 -30 -29 -25 4 -30 9 -30 33 0 26 4 29 30 29 27 0 30 -3 30 -33z
m-160 -2 c0 -20 -5 -25 -25 -25 -20 0 -25 5 -25 25 0 20 5 25 25 25 20 0 25
-5 25 -25z m70 0 c0 -18 -5 -25 -20 -25 -15 0 -20 7 -20 25 0 18 5 25 20 25
15 0 20 -7 20 -25z"/>
<path d="M809 1062 c-60 -64 -132 -166 -144 -202 -6 -18 -17 -18 -185 -13
l-180 6 0 -271 c0 -175 4 -272 10 -272 6 0 10 45 10 114 0 63 3 117 8 119 4 3
82 8 173 12 l166 7 13 -34 c16 -38 175 -202 207 -212 15 -5 102 40 354 185
184 105 340 196 347 203 11 10 11 15 0 23 -28 23 -674 390 -695 395 -18 5 -35
-7 -84 -60z m134 -9 c29 -14 46 -28 40 -30 -7 -3 -13 -20 -13 -39 0 -27 -4
-34 -20 -34 -16 0 -20 7 -20 35 0 24 -5 35 -15 35 -10 0 -15 -11 -15 -35 0
-31 -3 -35 -25 -35 -22 0 -25 4 -25 34 0 19 -6 36 -12 39 -9 3 -5 13 12 30 14
14 29 26 33 26 4 1 31 -11 60 -26z m117 -88 c0 -21 -5 -25 -30 -25 -28 0 -30
2 -30 40 l0 41 30 -16 c21 -11 30 -23 30 -40z m-236 -244 c3 -157 9 -287 11
-290 3 -2 6 2 6 10 1 8 2 19 4 24 1 6 3 62 3 125 l2 115 25 1 25 2 0 -133 c0
-182 19 -188 22 -8 3 131 4 138 24 141 19 3 21 -3 27 -80 4 -46 7 -110 8 -143
l2 -60 8 45 c4 25 8 89 8 143 l1 97 35 0 35 0 0 -133 0 -132 -97 -54 -98 -53
-38 43 c-173 196 -209 315 -141 459 28 58 111 177 118 168 2 -2 6 -131 10
-287z m411 174 c77 -42 186 -99 242 -127 l101 -52 -111 -59 c-62 -32 -168 -89
-237 -125 -69 -37 -128 -68 -132 -70 -5 -2 -8 111 -8 252 0 141 1 256 3 256 1
0 65 -34 142 -75z m-335 4 c0 -15 -5 -20 -22 -17 -34 5 -37 38 -4 38 20 0 26
-5 26 -21z m70 1 c0 -13 -7 -20 -20 -20 -13 0 -20 7 -20 20 0 13 7 20 20 20
13 0 20 -7 20 -20z m90 0 c0 -16 -7 -20 -30 -20 -23 0 -30 4 -30 20 0 16 7 20
30 20 23 0 30 -4 30 -20z m-160 -66 c0 -8 -10 -14 -25 -14 -23 0 -34 18 -19
32 10 10 44 -4 44 -18z m70 6 c0 -13 -7 -20 -20 -20 -13 0 -20 7 -20 20 0 13
7 20 20 20 13 0 20 -7 20 -20z m90 -5 c0 -21 -5 -25 -30 -25 -25 0 -30 4 -30
25 0 21 5 25 30 25 25 0 30 -4 30 -25z m-422 -45 c-10 -31 -6 -146 7 -189 l8
-23 -114 5 c-63 4 -135 6 -161 7 l-48 0 0 109 0 110 48 4 c26 2 97 4 159 5
l112 2 -11 -30z m262 -24 c0 -15 -7 -26 -19 -29 -25 -6 -31 0 -31 30 0 18 5
23 25 23 20 0 25 -5 25 -24z m70 -6 c0 -23 -4 -30 -20 -30 -16 0 -20 7 -20 30
0 23 4 30 20 30 16 0 20 -7 20 -30z m90 0 c0 -27 -3 -30 -30 -30 -27 0 -30 3
-30 30 0 27 3 30 30 30 27 0 30 -3 30 -30z"/>
<path d="M625 441 c-11 -4 -82 -29 -157 -55 -127 -44 -157 -63 -129 -80 7 -5
284 107 328 133 17 10 16 10 -2 10 -11 0 -29 -4 -40 -8z"/>
</g>
</svg>
