<?xml version="1.0" standalone="no"?>
<!DOCTYPE svg PUBLIC "-//W3C//DTD SVG 20010904//EN"
 "http://www.w3.org/TR/2001/REC-SVG-20010904/DTD/svg10.dtd">
<svg version="1.0" xmlns="http://www.w3.org/2000/svg"
 width="190.000000pt" height="142.000000pt" viewBox="0 0 190.000000 142.000000"
 preserveAspectRatio="xMidYMid meet">
<metadata>
Created by potrace 1.16, written by Peter Selinger 2001-2019
</metadata>
<g transform="translate(0.000000,142.000000) scale(0.100000,-0.100000)"
fill="#000000" stroke="none">
<path d="M791 1038 c-39 -46 -85 -110 -102 -143 l-32 -60 -179 3 -179 4 3
-149 3 -148 180 3 180 4 22 -39 c29 -53 104 -135 163 -178 l50 -37 152 87
c353 202 548 317 548 324 0 12 -676 398 -708 406 -27 6 -35 0 -101 -77z m357
-103 c67 -36 122 -67 122 -68 0 -1 -105 -2 -232 -2 l-233 0 2 -228 c1 -131 -2
-225 -7 -222 -24 15 -112 163 -126 212 -35 119 12 239 151 391 l57 62 71 -39
c40 -21 127 -69 195 -106z m289 -152 c73 -38 133 -71 133 -75 0 -5 -55 -35
-122 -69 -68 -34 -220 -115 -340 -180 -119 -66 -220 -119 -225 -119 -5 0 -20
12 -34 27 -23 27 -24 33 -21 146 3 105 5 117 21 117 21 0 31 -26 31 -84 0 -22
2 -37 4 -35 6 6 14 56 15 92 2 45 27 32 38 -20 l10 -48 2 48 c1 40 4 47 21 47
15 0 20 -7 20 -25 0 -14 5 -25 10 -25 6 0 10 12 10 26 0 20 5 25 23 24 62 -5
167 1 167 10 0 6 -30 10 -70 10 -68 0 -70 1 -70 25 0 25 0 25 95 25 57 0 95 4
95 10 0 6 -38 10 -95 10 -95 0 -95 0 -95 25 0 25 0 25 95 25 57 0 95 4 95 10
0 6 -38 10 -95 10 -94 0 -95 0 -95 25 0 23 3 24 78 28 42 1 97 4 122 5 38 2
66 -9 177 -65z m-567 31 c0 -33 -33 -30 -38 4 -3 17 2 22 17 22 16 0 21 -6 21
-26z m60 1 c0 -16 -6 -25 -15 -25 -9 0 -15 9 -15 25 0 16 6 25 15 25 9 0 15
-9 15 -25z m50 0 c0 -14 -4 -25 -10 -25 -5 0 -10 11 -10 25 0 14 5 25 10 25 6
0 10 -11 10 -25z m60 0 c0 -16 -6 -25 -15 -25 -9 0 -15 9 -15 25 0 16 6 25 15
25 9 0 15 -9 15 -25z m-402 -32 c-10 -37 -6 -146 7 -189 6 -20 5 -21 -157 -16
-90 2 -163 5 -164 6 0 0 2 51 5 111 l6 110 125 5 c69 3 139 7 157 8 l31 2 -10
-37z m232 -38 c0 -18 -5 -25 -20 -25 -15 0 -20 7 -20 25 0 18 5 25 20 25 15 0
20 -7 20 -25z m60 0 c0 -16 -6 -25 -15 -25 -9 0 -15 9 -15 25 0 16 6 25 15 25
9 0 15 -9 15 -25z m50 0 c0 -14 -4 -25 -10 -25 -5 0 -10 11 -10 25 0 14 5 25
10 25 6 0 10 -11 10 -25z m60 0 c0 -16 -6 -25 -15 -25 -9 0 -15 9 -15 25 0 16
6 25 15 25 9 0 15 -9 15 -25z m-170 -70 c0 -18 -5 -25 -20 -25 -15 0 -20 7
-20 25 0 18 5 25 20 25 15 0 20 -7 20 -25z m60 0 c0 -16 -6 -25 -15 -25 -9 0
-15 9 -15 25 0 16 6 25 15 25 9 0 15 -9 15 -25z m58 -3 c2 -15 -2 -22 -12 -22
-11 0 -16 9 -16 26 0 31 23 28 28 -4z m52 3 c0 -16 -6 -25 -15 -25 -9 0 -15 9
-15 25 0 16 6 25 15 25 9 0 15 -9 15 -25z"/>
</g>
</svg>
