<?xml version="1.0" standalone="no"?>
<!DOCTYPE svg PUBLIC "-//W3C//DTD SVG 20010904//EN"
 "http://www.w3.org/TR/2001/REC-SVG-20010904/DTD/svg10.dtd">
<svg version="1.0" xmlns="http://www.w3.org/2000/svg"
 width="190.000000pt" height="142.000000pt" viewBox="0 0 190.000000 142.000000"
 preserveAspectRatio="xMidYMid meet">
<metadata>
Created by potrace 1.16, written by Peter Selinger 2001-2019
</metadata>
<g transform="translate(0.000000,142.000000) scale(0.100000,-0.100000)"
fill="#000000" stroke="none">
<path d="M791 1038 c-39 -46 -85 -110 -102 -143 l-32 -60 -179 3 -179 4 3
-149 3 -148 180 3 180 4 22 -39 c29 -53 104 -135 163 -178 l50 -37 152 87
c353 202 548 317 548 324 0 12 -676 398 -708 406 -27 6 -35 0 -101 -77z m409
-131 c107 -58 234 -124 283 -148 48 -24 87 -47 87 -51 0 -4 -55 -35 -122 -69
-68 -34 -220 -115 -340 -180 -119 -66 -220 -119 -226 -119 -16 0 -109 104
-152 171 -111 172 -84 313 95 507 l57 62 62 -34 c33 -18 149 -81 256 -139z
m-562 -124 c-10 -37 -6 -146 7 -189 6 -20 5 -21 -157 -16 -90 2 -163 5 -164 6
0 0 2 51 5 111 l6 110 120 5 c66 4 137 7 157 8 l36 2 -10 -37z"/>
<path d="M1049 884 l-56 -56 -46 49 c-33 35 -49 45 -57 37 -8 -8 2 -25 36 -63
l47 -52 -30 -31 -31 -30 -35 38 c-19 22 -43 50 -54 63 -16 20 -21 21 -31 9
-10 -12 -2 -26 43 -75 l54 -60 -55 -62 c-40 -44 -54 -66 -49 -79 5 -14 18 -5
68 50 l62 67 27 -33 27 -33 -45 -50 c-24 -28 -44 -56 -44 -62 0 -25 29 -8 70
40 l43 51 63 -63 c35 -35 64 -60 64 -55 0 4 -25 38 -55 74 l-55 66 33 34 32
34 67 -73 c37 -40 70 -70 74 -67 3 4 -24 41 -60 83 l-65 77 65 79 c36 43 62
79 58 79 -5 0 -39 -30 -75 -66 l-67 -67 -30 34 -30 34 42 50 c62 75 69 85 60
85 -5 0 -34 -25 -65 -56z m-27 -207 l-32 -31 -29 34 -29 35 30 32 30 31 31
-35 30 -34 -31 -32z"/>
</g>
</svg>
