<?xml version="1.0" standalone="no"?>
<!DOCTYPE svg PUBLIC "-//W3C//DTD SVG 20010904//EN"
 "http://www.w3.org/TR/2001/REC-SVG-20010904/DTD/svg10.dtd">
<svg version="1.0" xmlns="http://www.w3.org/2000/svg"
 width="190.000000pt" height="142.000000pt" viewBox="0 0 190.000000 142.000000"
 preserveAspectRatio="xMidYMid meet">
<metadata>
Created by potrace 1.16, written by Peter Selinger 2001-2019
</metadata>
<g transform="translate(0.000000,142.000000) scale(0.100000,-0.100000)"
fill="#000000" stroke="none">
<path d="M794 1041 c-38 -45 -85 -109 -104 -142 l-35 -62 -178 2 -178 2 3
-148 3 -148 180 3 180 4 22 -39 c29 -53 104 -135 163 -178 l50 -37 152 87
c346 198 548 317 548 323 0 9 16 0 -357 215 -178 102 -336 188 -352 192 -27 6
-34 0 -97 -74z m286 -68 c102 -56 207 -112 235 -127 l50 -26 -168 0 -167 0 0
-165 c0 -99 4 -165 10 -165 5 0 10 35 12 78 3 82 21 106 26 35 4 -54 22 -57
22 -4 0 22 5 43 10 46 6 4 10 -8 10 -29 0 -20 5 -36 10 -36 6 0 10 16 10 35 0
19 5 35 10 35 6 0 10 -9 10 -20 0 -11 5 -20 10 -20 6 0 10 9 10 20 0 13 6 19
18 18 33 -3 115 2 111 6 -3 3 -24 6 -47 7 -31 2 -42 7 -42 19 0 14 12 17 62
19 84 3 88 11 5 11 -53 0 -67 3 -67 15 0 9 10 15 23 16 109 5 142 19 44 19
-60 0 -67 2 -67 20 0 19 7 20 90 20 85 0 94 -2 175 -42 47 -23 85 -46 85 -50
0 -4 -55 -35 -122 -69 -68 -34 -220 -115 -340 -180 -119 -66 -220 -119 -226
-119 -16 0 -109 104 -152 171 -97 151 -88 277 32 432 51 66 119 137 127 133 3
-2 89 -48 191 -103z m-442 -190 c-10 -37 -6 -146 7 -189 6 -20 5 -21 -157 -16
-90 2 -163 5 -164 6 0 0 2 51 5 111 l6 110 120 5 c66 4 137 7 157 8 l36 2 -10
-37z m554 -15 c-9 -9 -12 -7 -12 12 0 19 3 21 12 12 9 -9 9 -15 0 -24z m-114
11 c-2 -6 -8 -10 -13 -10 -5 0 -11 4 -13 10 -2 6 4 11 13 11 9 0 15 -5 13 -11z
m42 -4 c0 -8 -4 -15 -10 -15 -5 0 -10 7 -10 15 0 8 5 15 10 15 6 0 10 -7 10
-15z m40 6 c0 -6 -4 -13 -10 -16 -5 -3 -10 1 -10 9 0 9 5 16 10 16 6 0 10 -4
10 -9z m-80 -51 c0 -5 -7 -10 -15 -10 -8 0 -15 5 -15 10 0 6 7 10 15 10 8 0
15 -4 15 -10z m40 -6 c0 -8 -4 -12 -10 -9 -5 3 -10 10 -10 16 0 5 5 9 10 9 6
0 10 -7 10 -16z m40 6 c0 -5 -4 -10 -10 -10 -5 0 -10 5 -10 10 0 6 5 10 10 10
6 0 10 -4 10 -10z m40 0 c0 -5 -4 -10 -10 -10 -5 0 -10 5 -10 10 0 6 5 10 10
10 6 0 10 -4 10 -10z m-120 -50 c0 -5 -7 -10 -15 -10 -8 0 -15 5 -15 10 0 6 7
10 15 10 8 0 15 -4 15 -10z m40 0 c0 -5 -4 -10 -10 -10 -5 0 -10 5 -10 10 0 6
5 10 10 10 6 0 10 -4 10 -10z m40 0 c0 -5 -4 -10 -10 -10 -5 0 -10 5 -10 10 0
6 5 10 10 10 6 0 10 -4 10 -10z m40 0 c0 -5 -4 -10 -10 -10 -5 0 -10 5 -10 10
0 6 5 10 10 10 6 0 10 -4 10 -10z"/>
<path d="M798 894 c-3 -2 -3 -24 -1 -47 3 -28 -3 -67 -17 -112 -32 -104 -10
-199 65 -279 l28 -30 24 30 c76 93 97 182 63 281 -15 45 -21 80 -17 110 5 48
-8 57 -24 16 l-11 -28 -18 23 c-21 26 -36 28 -44 7 -8 -22 -26 -19 -26 4 0 20
-13 35 -22 25z m82 -78 c-13 -13 -35 7 -25 24 5 8 11 8 21 -1 10 -8 12 -15 4
-23z m-35 -36 c-5 -8 -11 -8 -17 -2 -6 6 -7 16 -3 22 5 8 11 8 17 2 6 -6 7
-16 3 -22z m75 4 c0 -14 -21 -19 -33 -7 -9 9 13 34 24 27 5 -3 9 -12 9 -20z
m-35 -24 c11 -17 -5 -32 -21 -19 -7 6 -11 15 -8 20 7 12 21 11 29 -1z m49 -16
c3 -8 2 -12 -4 -9 -6 3 -10 10 -10 16 0 14 7 11 14 -7z m-80 -23 c7 -10 -22
-37 -30 -28 -9 8 3 37 15 37 5 0 12 -4 15 -9z m75 -12 c19 -16 22 -22 12 -32
-10 -9 -17 -7 -32 12 -34 42 -21 55 20 20z m-29 -34 c19 -20 21 -27 10 -40 -7
-8 -15 -15 -19 -15 -14 1 -40 50 -35 64 8 22 17 20 44 -9z m-98 -17 c-9 -9
-12 -7 -12 12 0 19 3 21 12 12 9 -9 9 -15 0 -24z m56 -31 l22 -24 -20 -18
c-11 -10 -21 -16 -23 -14 -1 2 -11 14 -21 26 -15 19 -16 25 -6 38 17 20 23 19
48 -8z m92 -21 c0 -32 -11 -39 -32 -19 -17 15 -17 18 -2 34 20 22 34 16 34
-15z m-35 -36 c15 -17 16 -24 7 -45 -14 -31 -22 -31 -45 0 -15 20 -15 28 -5
45 16 25 20 25 43 0z m-91 -22 c-4 -6 -10 -5 -15 3 -14 22 -10 33 6 19 8 -7
12 -17 9 -22z m45 -42 c17 -18 20 -29 13 -41 -8 -15 -11 -14 -30 10 -39 49
-24 75 17 31z"/>
</g>
</svg>
