<?xml version="1.0" standalone="no"?>
<!DOCTYPE svg PUBLIC "-//W3C//DTD SVG 20010904//EN"
 "http://www.w3.org/TR/2001/REC-SVG-20010904/DTD/svg10.dtd">
<svg version="1.0" xmlns="http://www.w3.org/2000/svg"
 width="190.000000pt" height="142.000000pt" viewBox="0 0 190.000000 142.000000"
 preserveAspectRatio="xMidYMid meet">
<metadata>
Created by potrace 1.16, written by Peter Selinger 2001-2019
</metadata>
<g transform="translate(0.000000,142.000000) scale(0.100000,-0.100000)"
fill="#000000" stroke="none">
<path d="M794 1041 c-38 -45 -85 -109 -104 -142 l-35 -62 -178 2 -178 2 3
-148 3 -148 180 3 180 4 22 -39 c29 -53 104 -135 163 -178 l50 -37 152 87
c353 202 548 317 548 324 0 12 -676 398 -709 406 -27 6 -34 0 -97 -74z m406
-134 c107 -58 234 -124 283 -148 48 -24 87 -47 87 -51 0 -4 -55 -35 -122 -69
-68 -34 -220 -115 -340 -180 -119 -66 -220 -119 -226 -119 -16 0 -109 104
-152 171 -111 172 -85 310 95 507 l57 63 62 -34 c33 -19 149 -82 256 -140z
m-562 -124 c-10 -37 -6 -146 7 -189 6 -20 5 -21 -157 -16 -90 2 -163 5 -164 6
0 0 2 51 5 111 l6 110 120 5 c66 4 137 7 157 8 l36 2 -10 -37z"/>
<path d="M840 965 c0 -3 12 -24 27 -46 27 -40 27 -42 15 -121 -6 -44 -17 -87
-23 -95 -13 -15 -7 -23 125 -160 48 -50 73 -69 78 -60 4 6 8 99 8 205 0 171
-2 192 -16 192 -15 0 -16 -18 -10 -192 7 -191 7 -193 -12 -173 -17 18 -18 30
-13 110 10 134 8 265 -4 262 -6 -1 -10 -65 -9 -170 1 -147 -1 -167 -13 -154
-12 12 -15 47 -13 181 0 107 -3 166 -9 166 -7 0 -12 -59 -13 -156 l-3 -155
-39 50 c-37 50 -38 52 -27 98 20 87 17 144 -10 185 -21 33 -39 48 -39 33z"/>
<path d="M920 796 c0 -79 4 -137 10 -141 6 -4 10 43 10 134 0 87 -4 141 -10
141 -6 0 -10 -51 -10 -134z"/>
</g>
</svg>
