<?xml version="1.0" standalone="no"?>
<!DOCTYPE svg PUBLIC "-//W3C//DTD SVG 20010904//EN"
 "http://www.w3.org/TR/2001/REC-SVG-20010904/DTD/svg10.dtd">
<svg version="1.0" xmlns="http://www.w3.org/2000/svg"
 width="190.000000pt" height="142.000000pt" viewBox="0 0 190.000000 142.000000"
 preserveAspectRatio="xMidYMid meet">
<metadata>
Created by potrace 1.16, written by Peter Selinger 2001-2019
</metadata>
<g transform="translate(0.000000,142.000000) scale(0.100000,-0.100000)"
fill="#000000" stroke="none">
<path d="M794 1041 c-38 -45 -85 -109 -104 -142 l-35 -62 -178 2 -178 2 3
-148 3 -148 180 3 180 4 22 -39 c29 -53 104 -135 163 -178 l50 -37 152 87
c353 202 548 317 548 324 0 12 -676 398 -709 406 -27 6 -34 0 -97 -74z m264
-81 c-13 -8 -45 -33 -73 -56 -47 -38 -52 -40 -80 -28 -47 20 -125 17 -163 -6
-19 -11 -32 -26 -29 -33 2 -7 37 -19 78 -28 67 -14 72 -16 52 -27 -12 -7 -50
-35 -84 -64 -51 -42 -59 -52 -45 -60 17 -9 88 1 183 26 50 13 54 13 80 -7 61
-47 188 -161 191 -172 3 -11 -264 -165 -286 -165 -16 0 -109 105 -152 171
-111 172 -84 314 98 510 l54 58 99 -52 c96 -50 98 -52 77 -67z m230 -99 c92
-49 193 -102 225 -117 31 -16 57 -31 57 -35 0 -6 -365 -199 -377 -199 -2 0 5
17 16 38 38 75 37 78 -21 131 -29 26 -66 59 -81 72 l-29 24 16 62 c9 33 16 73
16 87 0 14 2 26 5 26 3 0 81 -40 173 -89z m-213 -15 c-14 -85 -14 -89 5 -105
11 -9 44 -36 74 -61 30 -25 55 -49 56 -55 0 -5 -7 -29 -16 -52 l-17 -43 -66
63 c-36 35 -83 76 -104 92 l-39 29 -106 -16 c-59 -8 -108 -14 -110 -13 -3 3
134 92 151 98 25 9 -12 29 -79 43 -37 8 -70 17 -72 19 -3 2 8 9 24 16 35 13
115 4 130 -15 8 -12 25 -5 94 40 46 30 84 53 86 51 2 -1 -3 -43 -11 -91z
m-437 -63 c-10 -37 -6 -146 7 -189 6 -20 5 -21 -157 -16 -90 2 -163 5 -164 6
0 0 2 51 5 111 l6 110 120 5 c66 4 137 7 157 8 l36 2 -10 -37z"/>
</g>
</svg>
