<?xml version="1.0" standalone="no"?>
<!DOCTYPE svg PUBLIC "-//W3C//DTD SVG 20010904//EN"
 "http://www.w3.org/TR/2001/REC-SVG-20010904/DTD/svg10.dtd">
<svg version="1.0" xmlns="http://www.w3.org/2000/svg"
 width="190.000000pt" height="142.000000pt" viewBox="0 0 190.000000 142.000000"
 preserveAspectRatio="xMidYMid meet">
<metadata>
Created by potrace 1.16, written by Peter Selinger 2001-2019
</metadata>
<g transform="translate(0.000000,142.000000) scale(0.100000,-0.100000)"
fill="#000000" stroke="none">
<path d="M791 1038 c-39 -46 -85 -110 -102 -143 l-32 -60 -179 3 -179 4 3
-149 3 -148 180 3 180 4 22 -39 c29 -53 104 -135 163 -178 l50 -37 152 87
c353 202 548 317 548 324 0 12 -676 398 -708 406 -27 6 -35 0 -101 -77z m329
-87 c41 -22 70 -41 63 -41 -25 0 -73 -52 -73 -79 0 -23 -7 -29 -49 -44 -107
-38 -96 -150 17 -173 18 -4 32 -12 32 -19 0 -19 49 -75 66 -75 8 0 14 -4 14
-8 0 -9 -292 -172 -308 -172 -16 0 -109 104 -152 171 -111 172 -84 314 94 507
l58 62 82 -44 c44 -25 115 -63 156 -85z m65 -131 c0 -38 -4 -70 -8 -70 -16 0
-57 50 -57 70 0 20 41 70 57 70 4 0 8 -31 8 -70z m385 -112 c0 -5 -270 -148
-332 -176 -5 -2 -8 35 -8 83 0 75 -2 86 -16 81 -9 -3 -22 -6 -31 -6 -8 0 -28
-13 -44 -29 l-29 -29 0 81 c1 61 3 77 11 64 12 -21 61 -47 89 -47 18 0 20 6
20 80 l0 80 170 -88 c93 -48 170 -90 170 -94z m-932 75 c-10 -37 -6 -146 7
-189 6 -20 5 -21 -157 -16 -90 2 -163 5 -164 6 0 0 2 51 5 111 l6 110 120 5
c66 4 137 7 157 8 l36 2 -10 -37z m427 -78 c0 -41 -3 -75 -6 -75 -3 0 -18 11
-33 25 -35 32 -34 67 5 99 17 14 31 26 32 26 1 0 2 -34 2 -75z m125 -51 c-13
-33 -13 -80 0 -105 15 -26 -3 -25 -34 4 -41 37 -39 80 7 107 40 25 38 25 27
-6z"/>
<path d="M850 1016 c-17 -33 -7 -93 22 -123 31 -33 128 -96 136 -89 3 4 -3 13
-14 20 -93 66 -134 116 -134 164 0 19 17 8 116 -78 64 -55 120 -98 123 -94 6
5 -217 223 -230 224 -3 0 -12 -11 -19 -24z"/>
</g>
</svg>
