<?xml version="1.0" standalone="no"?>
<!DOCTYPE svg PUBLIC "-//W3C//DTD SVG 20010904//EN"
 "http://www.w3.org/TR/2001/REC-SVG-20010904/DTD/svg10.dtd">
<svg version="1.0" xmlns="http://www.w3.org/2000/svg"
 width="190.000000pt" height="142.000000pt" viewBox="0 0 190.000000 142.000000"
 preserveAspectRatio="xMidYMid meet">
<metadata>
Created by potrace 1.16, written by Peter Selinger 2001-2019
</metadata>
<g transform="translate(0.000000,142.000000) scale(0.100000,-0.100000)"
fill="#000000" stroke="none">
<path d="M791 1038 c-39 -46 -85 -110 -102 -143 l-32 -60 -179 3 -179 4 3
-149 3 -148 180 3 180 4 22 -39 c29 -53 104 -135 163 -178 l50 -37 152 87
c353 202 548 317 548 324 0 12 -676 398 -708 406 -27 6 -35 0 -101 -77z m409
-131 c107 -58 234 -124 283 -148 48 -24 87 -47 87 -51 0 -4 -55 -35 -122 -69
-68 -34 -220 -115 -340 -180 -119 -66 -220 -119 -226 -119 -16 0 -109 104
-152 171 -79 123 -87 216 -28 337 17 34 33 62 35 62 3 0 13 -10 24 -22 23 -28
25 -110 5 -188 l-14 -54 48 -56 c63 -72 148 -155 154 -149 2 2 6 94 7 203 3
153 1 200 -8 203 -10 4 -13 -39 -14 -189 l0 -193 -32 36 -31 36 -1 167 c0 104
-4 166 -10 166 -6 0 -9 -56 -7 -155 2 -85 2 -155 -1 -155 -2 0 -23 24 -45 53
l-40 52 14 55 c20 79 18 127 -10 175 l-24 41 65 72 65 73 62 -34 c33 -19 149
-82 256 -140z m-562 -124 c-10 -37 -6 -146 7 -189 6 -20 5 -21 -157 -16 -90 2
-163 5 -164 6 0 0 2 51 5 111 l6 110 120 5 c66 4 137 7 157 8 l36 2 -10 -37z"/>
<path d="M1040 946 c-8 -11 -10 -77 -5 -252 3 -131 8 -240 10 -243 5 -4 154
131 225 203 24 25 52 46 63 46 10 0 15 5 12 10 -3 6 -14 10 -23 10 -10 0 -62
45 -117 101 -126 127 -149 144 -165 125z m173 -224 c-46 -2 -63 -7 -63 -17 0
-10 17 -15 61 -17 l60 -3 -103 -89 -103 -89 -3 34 c-2 19 -1 107 3 196 l7 162
102 -87 101 -87 -62 -3z"/>
<path d="M820 761 c0 -87 4 -141 10 -141 6 0 10 51 10 134 0 79 -4 137 -10
141 -6 4 -10 -43 -10 -134z"/>
<path d="M900 690 c0 -107 4 -170 10 -170 6 0 10 63 10 170 0 107 -4 170 -10
170 -6 0 -10 -63 -10 -170z"/>
</g>
</svg>
