<?xml version="1.0" standalone="no"?>
<!DOCTYPE svg PUBLIC "-//W3C//DTD SVG 20010904//EN"
 "http://www.w3.org/TR/2001/REC-SVG-20010904/DTD/svg10.dtd">
<svg version="1.0" xmlns="http://www.w3.org/2000/svg"
 width="190.000000pt" height="142.000000pt" viewBox="0 0 190.000000 142.000000"
 preserveAspectRatio="xMidYMid meet">
<metadata>
Created by potrace 1.16, written by Peter Selinger 2001-2019
</metadata>
<g transform="translate(0.000000,142.000000) scale(0.100000,-0.100000)"
fill="#000000" stroke="none">
<path d="M791 1038 c-39 -46 -85 -110 -102 -143 l-32 -60 -179 3 -179 4 3
-149 3 -148 180 3 180 4 22 -39 c29 -53 104 -135 164 -179 l50 -36 152 87
c396 228 547 317 547 324 0 12 -676 398 -708 406 -27 6 -35 0 -101 -77z m409
-131 c107 -58 234 -124 283 -148 48 -24 87 -47 87 -51 0 -4 -55 -35 -122 -69
-68 -34 -220 -115 -340 -180 -119 -66 -220 -119 -226 -119 -16 0 -109 104
-152 171 -111 172 -84 313 95 507 l57 62 62 -33 c33 -19 149 -82 256 -140z
m-562 -124 c-10 -37 -6 -146 7 -189 6 -20 5 -21 -157 -16 -90 2 -163 5 -164 6
0 0 2 51 5 111 l6 110 120 5 c66 4 137 7 157 8 l36 2 -10 -37z"/>
<path d="M910 855 l0 -35 -75 0 c-68 0 -75 -2 -75 -20 0 -18 7 -20 75 -20 74
0 75 0 75 -26 0 -25 -1 -25 -72 -23 -61 2 -74 0 -76 -14 -3 -15 7 -17 72 -17
l76 0 0 -31 0 -31 -72 4 c-62 3 -73 1 -76 -14 -3 -16 6 -18 77 -18 l81 0 0
-61 c0 -37 4 -58 10 -54 6 3 10 31 10 61 0 51 1 54 25 54 24 0 25 -3 25 -60 0
-33 4 -60 10 -60 6 0 10 27 10 60 0 57 1 60 25 60 24 0 25 -3 25 -54 0 -30 5
-58 10 -61 6 -4 10 16 10 53 0 72 1 72 116 72 49 0 84 4 84 10 0 6 -39 10 -96
10 l-95 0 3 33 3 32 93 3 c120 4 112 22 -9 22 l-89 0 0 30 0 30 95 0 c57 0 95
4 95 10 0 6 -38 10 -95 10 l-95 0 0 40 c0 29 -4 40 -15 40 -10 0 -15 -11 -15
-35 0 -24 -5 -35 -15 -35 -27 0 -30 5 -27 38 3 27 0 32 -17 32 -17 0 -21 -6
-21 -35 0 -28 -4 -35 -20 -35 -16 0 -20 7 -20 35 0 24 -5 35 -15 35 -10 0 -15
-11 -15 -35z m148 -98 c3 -25 0 -28 -20 -25 -16 2 -22 9 -21 26 1 33 2 34 21
30 10 -2 18 -14 20 -31z m-78 -3 c0 -33 -33 -30 -38 4 -3 17 2 22 17 22 16 0
21 -6 21 -26z m8 -81 c-2 -20 -9 -29 -25 -31 -20 -3 -23 1 -23 27 0 27 4 31
26 31 22 0 25 -4 22 -27z m72 -4 c0 -26 -3 -30 -22 -27 -17 2 -24 11 -26 31
-3 23 0 27 22 27 22 0 26 -4 26 -31z"/>
</g>
</svg>
