<?xml version="1.0" standalone="no"?>
<!DOCTYPE svg PUBLIC "-//W3C//DTD SVG 20010904//EN"
 "http://www.w3.org/TR/2001/REC-SVG-20010904/DTD/svg10.dtd">
<svg version="1.0" xmlns="http://www.w3.org/2000/svg"
 width="190.000000pt" height="142.000000pt" viewBox="0 0 190.000000 142.000000"
 preserveAspectRatio="xMidYMid meet">
<metadata>
Created by potrace 1.16, written by Peter Selinger 2001-2019
</metadata>
<g transform="translate(0.000000,142.000000) scale(0.100000,-0.100000)"
fill="#000000" stroke="none">
<path d="M791 1038 c-39 -46 -85 -110 -102 -143 l-32 -60 -179 3 -179 4 3
-149 3 -148 180 3 180 4 22 -39 c29 -53 104 -135 163 -178 l50 -36 134 76
c119 68 137 75 157 65 18 -10 21 -10 16 2 -3 8 -2 20 1 25 4 6 94 61 200 123
105 61 192 115 192 119 0 12 -676 398 -708 406 -27 6 -35 0 -101 -77z m322
-84 l39 -22 -85 -12 c-51 -7 -88 -17 -90 -25 -3 -7 -19 -17 -36 -23 -28 -10
-31 -9 -31 8 0 10 13 27 30 37 48 28 35 35 -22 12 -63 -25 -79 -28 -85 -13 -2
6 10 17 27 24 16 7 30 16 30 21 0 12 3 12 -57 -11 -34 -13 -54 -16 -59 -9 -6
11 6 28 70 96 l39 42 96 -52 c53 -28 113 -61 134 -73z m-303 -53 c0 -6 -4 -13
-10 -16 -5 -3 -10 1 -10 9 0 9 5 16 10 16 6 0 10 -4 10 -9z m-36 -73 c4 -27
12 -48 17 -48 5 0 7 17 3 40 -5 32 -4 40 9 40 11 0 18 -19 27 -71 12 -70 27
-88 21 -24 -2 25 3 36 17 44 18 9 20 6 26 -36 3 -25 6 -59 6 -74 0 -16 5 -29
10 -29 6 0 10 33 10 79 l0 79 53 33 c44 27 64 33 131 37 l80 5 -53 -67 c-29
-37 -51 -69 -48 -72 2 -3 33 26 68 64 l64 70 177 -92 c98 -50 178 -94 178 -98
0 -6 -234 -130 -313 -166 -4 -2 -5 2 -2 10 7 19 -149 183 -165 173 -8 -5 11
-31 65 -85 72 -72 75 -78 64 -102 -6 -14 -20 -30 -31 -35 -16 -7 -34 6 -107
81 -52 52 -93 86 -99 82 -7 -4 24 -41 80 -95 l91 -87 -130 -72 c-72 -40 -135
-72 -140 -72 -17 0 -110 104 -153 171 -76 119 -87 214 -34 325 24 50 52 72 65
49 4 -5 10 -31 13 -57z m109 20 c-7 -13 -31 -9 -37 7 -3 8 2 19 12 24 13 7 19
5 23 -7 4 -9 5 -20 2 -24z m-245 -65 c-10 -37 -6 -146 7 -189 6 -20 5 -21
-157 -16 -90 2 -163 5 -164 6 0 0 2 51 5 111 l6 110 120 5 c66 4 137 7 157 8
l36 2 -10 -37z"/>
</g>
</svg>
