<?xml version="1.0" standalone="no"?>
<!DOCTYPE svg PUBLIC "-//W3C//DTD SVG 20010904//EN"
 "http://www.w3.org/TR/2001/REC-SVG-20010904/DTD/svg10.dtd">
<svg version="1.0" xmlns="http://www.w3.org/2000/svg"
 width="189.000000pt" height="367.000000pt" viewBox="0 0 189.000000 367.000000"
 preserveAspectRatio="xMidYMid meet">
<metadata>
Created by potrace 1.16, written by Peter Selinger 2001-2019
</metadata>
<g transform="translate(0.000000,367.000000) scale(0.100000,-0.100000)"
fill="#000000" stroke="none">
<path d="M824 3338 c-93 -100 -167 -215 -194 -300 -6 -21 -14 -38 -16 -38 -3
0 -70 28 -150 61 -92 39 -149 58 -155 52 -5 -5 -8 -76 -7 -165 l3 -156 154 64
c157 65 170 67 171 23 0 -42 76 -166 140 -229 116 -113 99 -113 280 -9 383
221 540 313 540 319 0 10 -676 398 -707 404 -24 6 -34 1 -59 -26z m366 -180
c69 -38 180 -97 247 -131 68 -34 123 -64 123 -67 0 -3 -62 -36 -137 -75 -75
-38 -228 -121 -340 -182 -111 -62 -207 -113 -212 -113 -12 0 -91 87 -130 143
-131 192 -111 333 79 541 l52 56 97 -52 c53 -29 152 -83 221 -120z m-707 -135
c99 -34 137 -51 137 -63 0 -11 -41 -30 -150 -67 l-150 -51 0 46 c0 69 12 182
19 182 3 0 68 -21 144 -47z"/>
<path d="M795 3100 c-4 -7 9 -29 34 -54 22 -23 41 -50 41 -61 0 -11 -19 -39
-42 -62 -28 -28 -39 -46 -32 -53 6 -6 24 9 52 44 35 43 50 55 78 58 19 2 34 2
34 -2 -1 -3 -19 -23 -40 -45 -37 -37 -51 -66 -32 -64 4 0 29 27 55 60 47 56
51 59 94 59 l46 0 -19 -22 c-10 -13 -31 -37 -47 -54 -18 -20 -25 -34 -18 -38
11 -7 43 24 83 81 18 26 30 33 56 33 l34 0 -48 -55 c-26 -31 -43 -59 -39 -63
7 -7 105 96 105 111 0 4 29 7 65 7 37 0 65 4 65 10 0 6 -29 10 -67 10 -66 0
-69 1 -91 34 -29 43 -70 81 -78 73 -4 -3 12 -29 36 -57 l42 -50 -30 0 c-24 0
-39 10 -73 53 -24 28 -44 54 -45 56 -2 1 -8 0 -14 -4 -8 -5 -2 -17 17 -39 60
-65 61 -66 10 -66 -42 0 -47 3 -90 55 -26 32 -48 51 -52 45 -4 -6 11 -30 32
-53 l38 -42 -30 -3 c-20 -3 -34 2 -45 15 -68 85 -78 94 -85 83z"/>
<path d="M430 2312 c0 -4 18 -26 40 -47 26 -25 40 -48 40 -64 0 -25 0 -25 -35
9 -19 18 -38 30 -42 26 -4 -4 11 -25 35 -47 35 -33 42 -46 42 -76 l0 -37 -40
39 c-25 24 -40 33 -40 24 0 -8 18 -33 40 -54 26 -26 40 -48 40 -65 -1 -24 -2
-24 -33 13 -34 39 -47 46 -47 24 0 -8 18 -28 40 -46 38 -30 40 -35 40 -86 0
-30 5 -57 10 -60 6 -4 10 16 10 52 0 54 2 60 42 100 23 23 38 46 34 50 -4 5
-23 -10 -42 -31 -33 -38 -34 -39 -34 -13 0 17 14 39 42 66 23 22 39 43 35 47
-4 4 -23 -8 -42 -26 l-35 -34 0 40 c0 35 5 45 40 73 39 31 51 51 30 51 -6 0
-24 -15 -40 -32 -29 -33 -29 -33 -30 -8 0 15 15 40 42 67 51 52 42 71 -10 20
-21 -20 -41 -37 -45 -37 -4 0 -21 16 -38 35 -30 33 -49 44 -49 27z"/>
<path d="M785 2104 c-76 -89 -116 -153 -146 -236 -12 -32 -23 -58 -24 -58 -2
0 -71 29 -153 64 -120 50 -152 60 -156 49 -3 -8 -6 -84 -6 -169 l0 -154 38 16
c273 118 291 123 292 73 0 -42 75 -163 140 -227 116 -115 101 -114 270 -16
425 246 550 319 550 324 0 13 -674 399 -709 406 -26 5 -35 -1 -96 -72z m375
-118 c118 -64 257 -138 307 -164 51 -26 93 -49 93 -52 0 -3 -64 -38 -143 -77
-78 -40 -232 -123 -342 -184 -147 -81 -204 -108 -215 -101 -34 21 -134 151
-167 220 -30 61 -37 84 -37 136 0 98 58 209 172 328 l45 47 36 -19 c20 -10
133 -70 251 -134z m-607 -175 c104 -35 95 -46 -83 -108 l-150 -51 0 42 c0 24
3 77 6 119 l7 75 76 -27 c42 -16 106 -38 144 -50z"/>
<path d="M843 1077 c-59 -62 -121 -145 -148 -197 l-23 -46 -172 4 c-94 3 -175
1 -179 -4 -5 -5 -6 -73 -3 -152 l5 -143 176 7 177 7 26 -44 c33 -55 120 -147
175 -183 l41 -27 294 169 c161 93 311 180 333 193 50 29 50 28 42 35 -7 7
-274 -131 -522 -270 l-170 -95 -54 57 c-164 171 -199 313 -116 471 35 67 155
211 176 211 5 0 116 -58 247 -129 294 -160 442 -234 442 -222 0 11 -647 386
-681 394 -21 5 -33 -1 -66 -36z m-187 -282 c-15 -61 -16 -114 -2 -165 8 -30
14 -56 13 -56 -1 -1 -75 1 -164 4 l-163 5 7 106 c3 58 8 108 10 111 3 3 68 8
146 11 78 3 146 6 151 7 4 1 5 -9 2 -23z"/>
<path d="M997 833 c-4 -6 12 -31 34 -57 l41 -46 -51 0 c-28 0 -51 3 -51 8 0
14 -78 97 -85 90 -4 -4 9 -28 29 -53 l37 -45 -28 0 c-21 0 -39 13 -74 52 -59
66 -76 56 -20 -10 22 -28 41 -55 41 -62 0 -6 -18 -32 -40 -57 -22 -25 -40 -50
-40 -54 0 -21 22 -5 62 46 37 48 47 55 77 55 l35 0 -42 -43 c-40 -40 -53 -67
-33 -67 5 0 28 25 51 55 42 54 43 55 93 55 l51 0 -49 -50 c-34 -34 -46 -53
-39 -60 7 -7 25 8 58 49 38 48 54 60 82 63 19 2 34 2 34 -1 0 -3 -21 -27 -47
-53 -31 -32 -44 -51 -37 -58 6 -6 26 12 59 55 l50 64 65 2 65 2 -72 11 c-70
11 -72 12 -114 64 -29 38 -45 50 -52 43 -8 -8 2 -24 33 -56 l44 -45 -37 0
c-20 0 -37 3 -37 8 -1 16 -87 105 -93 95z"/>
</g>
</svg>
