<?xml version="1.0" standalone="no"?>
<!DOCTYPE svg PUBLIC "-//W3C//DTD SVG 20010904//EN"
 "http://www.w3.org/TR/2001/REC-SVG-20010904/DTD/svg10.dtd">
<svg version="1.0" xmlns="http://www.w3.org/2000/svg"
 width="190.000000pt" height="142.000000pt" viewBox="0 0 190.000000 142.000000"
 preserveAspectRatio="xMidYMid meet">
<metadata>
Created by potrace 1.16, written by Peter Selinger 2001-2019
</metadata>
<g transform="translate(0.000000,142.000000) scale(0.100000,-0.100000)"
fill="#000000" stroke="none">
<path d="M795 1043 c-59 -69 -135 -182 -135 -201 0 -4 -81 -6 -180 -4 l-181 4
3 -149 3 -148 180 3 180 4 22 -39 c29 -53 104 -135 163 -178 l50 -37 152 87
c353 202 548 317 548 324 0 12 -676 398 -708 406 -27 6 -35 0 -97 -72z m415
-141 c113 -60 240 -127 283 -148 42 -21 77 -42 77 -46 0 -4 -55 -35 -122 -69
-68 -34 -220 -115 -340 -180 -119 -66 -220 -119 -226 -119 -14 0 -105 99 -145
161 -43 63 -77 154 -77 201 0 18 6 51 12 73 l12 40 7 -70 c4 -38 5 -82 3 -97
l-6 -28 104 0 104 0 18 -32 c31 -54 77 -108 91 -108 18 0 405 230 405 240 0 9
-394 230 -409 230 -6 0 -31 -25 -58 -55 l-48 -55 -97 0 c-54 0 -98 2 -98 5 0
16 74 118 125 173 l57 62 62 -34 c33 -18 153 -83 266 -144z m-150 -37 c0 -20
-5 -25 -25 -25 -20 0 -25 5 -25 25 0 16 -6 25 -15 25 -9 0 -15 -9 -15 -25 0
-18 -5 -25 -20 -25 -27 0 -25 9 11 47 31 31 33 31 60 17 20 -10 29 -22 29 -39z
m60 -10 c7 -9 11 -18 8 -20 -9 -10 -38 7 -38 21 0 18 14 18 30 -1z m-482 -72
c-10 -37 -6 -146 7 -189 6 -20 5 -21 -157 -16 -90 2 -163 5 -164 6 0 0 2 51 5
111 l6 110 120 5 c66 4 137 7 157 8 l36 2 -10 -37z m422 -3 c0 -36 -2 -40 -25
-40 -22 0 -25 4 -25 34 0 19 6 37 13 39 30 13 37 6 37 -33z m70 0 c0 -33 -3
-40 -20 -40 -17 0 -20 7 -20 40 0 33 3 40 20 40 17 0 20 -7 20 -40z m78 -2 c3
-35 1 -38 -22 -38 -24 0 -26 4 -26 41 0 36 2 40 23 37 18 -2 23 -10 25 -40z
m-468 2 c0 -16 -4 -30 -10 -30 -5 0 -10 14 -10 30 0 17 5 30 10 30 6 0 10 -13
10 -30z m70 0 c0 -25 -4 -30 -25 -30 -15 0 -25 6 -25 14 0 28 12 46 31 46 14
0 19 -7 19 -30z m70 23 c-1 -29 -15 -53 -31 -53 -14 0 -19 7 -19 30 0 25 4 30
25 30 14 0 25 -3 25 -7z m100 -23 c0 -28 -2 -30 -40 -30 -42 0 -43 1 -34 38 5
17 14 22 40 22 31 0 34 -3 34 -30z m300 -61 c0 -47 -4 -60 -19 -69 -11 -5 -22
-10 -25 -10 -3 0 -6 36 -6 80 l0 80 25 -12 c22 -10 25 -17 25 -69z m65 24 c19
-9 35 -19 35 -22 0 -3 -18 -16 -40 -29 l-40 -23 0 46 c0 25 2 45 5 45 2 0 20
-8 40 -17z m-135 -58 c0 -43 -1 -45 -30 -45 -28 0 -30 2 -30 39 0 39 8 49 43
50 14 1 17 -8 17 -44z m-470 0 c0 -19 -4 -35 -10 -35 -5 0 -10 16 -10 35 0 19
5 35 10 35 6 0 10 -16 10 -35z m70 0 c0 -31 -3 -35 -25 -35 -22 0 -25 4 -25
35 0 31 3 35 25 35 22 0 25 -4 25 -35z m60 23 c0 -7 3 -23 6 -35 5 -20 2 -23
-20 -23 -23 0 -26 4 -26 35 0 28 4 35 20 35 11 0 20 -6 20 -12z m110 -23 c0
-32 -2 -35 -30 -35 -24 0 -33 6 -40 26 -16 40 -13 44 30 44 39 0 40 -1 40 -35z
m82 0 c4 -34 3 -35 -30 -35 -27 0 -33 3 -28 16 3 9 6 24 6 35 0 13 7 19 24 19
20 0 25 -6 28 -35z m68 -5 c0 -33 -3 -40 -20 -40 -17 0 -20 7 -20 40 0 33 3
40 20 40 17 0 20 -7 20 -40z m6 -72 c6 -20 -19 -47 -44 -48 -14 0 -14 50 1 61
16 12 37 5 43 -13z m74 17 c0 -2 -13 -11 -30 -20 -29 -15 -30 -15 -30 5 0 16
7 20 30 20 17 0 30 -2 30 -5z m-225 -42 c10 -59 13 -62 14 -10 1 47 1 47 36
47 34 0 35 -1 35 -38 0 -31 -5 -41 -31 -56 -16 -10 -36 -16 -42 -13 -7 3 -25
28 -40 56 l-28 51 25 0 c21 0 26 -6 31 -37z"/>
</g>
</svg>
