<?xml version="1.0" standalone="no"?>
<!DOCTYPE svg PUBLIC "-//W3C//DTD SVG 20010904//EN"
 "http://www.w3.org/TR/2001/REC-SVG-20010904/DTD/svg10.dtd">
<svg version="1.0" xmlns="http://www.w3.org/2000/svg"
 width="190.000000pt" height="142.000000pt" viewBox="0 0 190.000000 142.000000"
 preserveAspectRatio="xMidYMid meet">
<metadata>
Created by potrace 1.16, written by Peter Selinger 2001-2019
</metadata>
<g transform="translate(0.000000,142.000000) scale(0.100000,-0.100000)"
fill="#000000" stroke="none">
<path d="M797 1043 l-67 -78 -207 0 c-188 0 -208 -2 -211 -17 -3 -16 11 -17
199 -11 120 4 200 3 197 -3 -2 -5 -19 -41 -38 -80 l-34 -70 -168 4 -168 5 0
-152 0 -152 198 6 197 6 34 -46 c35 -47 118 -123 157 -143 18 -9 55 9 265 129
344 197 449 260 449 268 0 4 -24 20 -52 37 -29 17 -181 105 -338 196 -157 91
-299 168 -316 172 -28 6 -35 1 -97 -71z m243 -89 c0 -39 -1 -40 -30 -36 -27 4
-30 8 -30 38 0 24 -5 34 -15 34 -10 0 -15 -11 -15 -35 0 -28 -4 -35 -19 -35
-16 0 -20 8 -23 37 -4 52 -28 56 -28 4 0 -37 -2 -41 -25 -41 -22 0 -25 4 -25
40 0 24 -5 40 -12 40 -7 0 5 18 27 40 l39 39 78 -42 c78 -42 78 -42 78 -83z
m-234 -541 c-6 -7 -82 108 -109 165 -55 118 -35 229 64 362 l34 45 7 -285 c3
-157 5 -286 4 -287z m453 463 c97 -51 209 -110 250 -131 l74 -37 -179 -92
c-98 -51 -214 -111 -256 -135 l-78 -43 0 266 c0 146 3 266 7 266 4 0 86 -42
182 -94z m-219 -1 c0 -21 -5 -25 -30 -25 -22 0 -30 5 -30 18 0 25 9 32 37 32
18 0 23 -5 23 -25z m-160 0 c0 -9 -9 -15 -25 -15 -16 0 -25 6 -25 15 0 9 9 15
25 15 16 0 25 -6 25 -15z m70 0 c0 -9 -9 -15 -25 -15 -18 0 -23 4 -19 15 4 8
15 15 25 15 10 0 19 -7 19 -15z m88 -90 c-2 -2 -15 -1 -30 2 -18 4 -28 12 -28
24 0 12 9 19 28 21 22 2 28 -1 30 -20 2 -13 2 -25 0 -27z m-158 25 c0 -15 -7
-20 -25 -20 -18 0 -25 5 -25 20 0 15 7 20 25 20 18 0 25 -5 25 -20z m70 0 c0
-15 -7 -20 -25 -20 -18 0 -25 5 -25 20 0 15 7 20 25 20 18 0 25 -5 25 -20z
m90 -75 c0 -32 -2 -35 -30 -35 -26 0 -30 4 -30 28 0 35 6 42 37 42 20 0 23 -5
23 -35z m-410 -27 c0 -29 11 -84 24 -121 l23 -68 -176 7 c-97 4 -176 7 -177 8
0 0 1 49 4 108 5 126 -12 115 175 117 l127 1 0 -52z m250 27 c0 -20 -5 -25
-25 -25 -20 0 -25 5 -25 25 0 20 5 25 25 25 20 0 25 -5 25 -25z m70 0 c0 -20
-5 -25 -25 -25 -20 0 -25 5 -25 25 0 20 5 25 25 25 20 0 25 -5 25 -25z m-70
-189 c0 -183 19 -190 22 -9 3 132 4 138 24 141 21 3 22 -2 30 -140 l8 -143 10
143 9 142 27 0 c34 0 40 -23 40 -159 l-1 -96 -84 -46 -84 -46 -31 32 c-28 29
-30 36 -26 81 2 27 5 91 5 142 1 91 1 92 26 92 l25 0 0 -134z"/>
</g>
</svg>
