<?xml version="1.0" standalone="no"?>
<!DOCTYPE svg PUBLIC "-//W3C//DTD SVG 20010904//EN"
 "http://www.w3.org/TR/2001/REC-SVG-20010904/DTD/svg10.dtd">
<svg version="1.0" xmlns="http://www.w3.org/2000/svg"
 width="190.000000pt" height="142.000000pt" viewBox="0 0 190.000000 142.000000"
 preserveAspectRatio="xMidYMid meet">
<metadata>
Created by potrace 1.16, written by Peter Selinger 2001-2019
</metadata>
<g transform="translate(0.000000,142.000000) scale(0.100000,-0.100000)"
fill="#000000" stroke="none">
<path d="M791 1038 c-39 -46 -85 -110 -102 -143 l-32 -60 -179 3 -179 4 3
-149 3 -148 180 3 180 4 22 -39 c29 -53 104 -135 163 -178 l50 -37 152 87
c353 202 548 317 548 324 0 12 -676 398 -708 406 -27 6 -35 0 -101 -77z m419
-136 c113 -60 240 -127 283 -148 42 -21 77 -42 77 -46 0 -4 -55 -35 -122 -69
-68 -34 -220 -115 -340 -180 -119 -66 -220 -119 -226 -119 -5 0 -31 24 -59 53
-110 116 -170 241 -159 333 11 92 62 185 161 292 l57 62 62 -34 c33 -18 153
-83 266 -144z m-572 -119 c-10 -37 -6 -146 7 -189 6 -20 5 -21 -157 -16 -90 2
-163 5 -164 6 0 0 2 51 5 111 l6 110 120 5 c66 4 137 7 157 8 l36 2 -10 -37z"/>
<path d="M816 858 c-4 -16 4 -18 72 -18 128 0 303 13 295 21 -4 4 -88 9 -185
11 -162 3 -177 1 -182 -14z"/>
<path d="M820 730 c0 -5 -1 -13 -2 -17 -3 -7 106 -6 264 3 59 4 105 10 102 15
-8 13 -364 12 -364 -1z"/>
<path d="M816 584 c-3 -9 -6 -17 -6 -19 0 -6 312 6 350 12 34 7 33 7 -20 14
-30 4 -114 7 -186 8 -112 1 -133 -1 -138 -15z"/>
</g>
</svg>
