<?xml version="1.0" standalone="no"?>
<!DOCTYPE svg PUBLIC "-//W3C//DTD SVG 20010904//EN"
 "http://www.w3.org/TR/2001/REC-SVG-20010904/DTD/svg10.dtd">
<svg version="1.0" xmlns="http://www.w3.org/2000/svg"
 width="190.000000pt" height="142.000000pt" viewBox="0 0 190.000000 142.000000"
 preserveAspectRatio="xMidYMid meet">
<metadata>
Created by potrace 1.16, written by Peter Selinger 2001-2019
</metadata>
<g transform="translate(0.000000,142.000000) scale(0.100000,-0.100000)"
fill="#000000" stroke="none">
<path d="M797 1043 l-67 -78 -207 0 c-188 0 -208 -2 -211 -17 -3 -16 11 -17
199 -11 120 4 200 3 197 -3 -2 -5 -19 -41 -38 -80 l-34 -70 -168 4 -168 5 0
-152 0 -152 198 6 197 6 34 -46 c35 -47 118 -123 157 -143 18 -10 58 10 295
146 355 204 419 243 419 251 0 4 -24 20 -52 37 -29 17 -181 105 -338 196 -157
91 -299 168 -316 172 -28 6 -35 1 -97 -71z m348 -105 c138 -75 292 -157 344
-183 l94 -47 -189 -97 c-104 -54 -262 -138 -351 -188 l-162 -90 -44 46 c-68
71 -104 123 -139 197 -53 114 -40 214 45 339 37 54 137 166 145 161 4 -2 120
-64 257 -138z m-515 -230 c0 -29 11 -84 24 -121 l23 -68 -176 7 c-97 4 -176 7
-177 8 0 0 1 49 4 108 5 126 -12 115 175 117 l127 1 0 -52z"/>
<path d="M1020 873 l-51 -58 -46 48 c-29 31 -51 46 -61 42 -16 -6 -12 -12 52
-83 l30 -32 -30 -31 -31 -31 -54 61 c-41 47 -56 58 -66 49 -10 -8 -2 -24 43
-74 l56 -64 -57 -60 c-43 -44 -56 -64 -50 -77 6 -15 17 -7 68 50 l62 67 28
-35 28 -35 -46 -49 c-25 -26 -45 -53 -45 -60 0 -25 31 -8 71 40 l42 50 64 -63
c34 -34 63 -59 63 -54 0 4 -22 35 -50 68 -27 33 -50 64 -50 69 0 5 13 23 28
40 l28 31 67 -73 c37 -40 69 -70 72 -67 3 3 -23 41 -58 84 l-65 78 64 75 c34
42 61 78 58 80 -2 3 -35 -26 -73 -63 l-69 -69 -30 34 -30 34 42 50 c63 76 69
85 58 85 -5 0 -33 -26 -62 -57z m0 -174 c0 -3 -13 -18 -29 -33 l-30 -29 -25
29 c-32 37 -32 42 1 76 l27 28 27 -33 c16 -17 28 -35 29 -38z"/>
</g>
</svg>
