<?xml version="1.0" standalone="no"?>
<!DOCTYPE svg PUBLIC "-//W3C//DTD SVG 20010904//EN"
 "http://www.w3.org/TR/2001/REC-SVG-20010904/DTD/svg10.dtd">
<svg version="1.0" xmlns="http://www.w3.org/2000/svg"
 width="190.000000pt" height="255.000000pt" viewBox="0 0 190.000000 255.000000"
 preserveAspectRatio="xMidYMid meet">
<metadata>
Created by potrace 1.16, written by Peter Selinger 2001-2019
</metadata>
<g transform="translate(0.000000,255.000000) scale(0.100000,-0.100000)"
fill="#000000" stroke="none">
<path d="M811 2193 c-76 -85 -144 -190 -165 -256 -10 -31 -19 -57 -21 -57 -2
0 -68 27 -148 60 -79 33 -148 60 -154 60 -18 0 -23 -39 -23 -182 0 -112 3
-138 14 -138 8 0 79 27 158 60 78 33 146 60 149 60 4 0 11 -19 17 -43 25 -97
105 -207 205 -282 l57 -44 338 195 c185 107 344 198 352 203 10 7 12 13 5 19
-24 23 -674 390 -702 396 -28 6 -35 2 -82 -51z m304 -108 c94 -50 234 -125
313 -166 78 -40 142 -76 142 -79 0 -3 -64 -38 -143 -78 -78 -41 -233 -123
-345 -184 l-203 -111 -25 24 c-90 84 -178 232 -190 320 -13 92 44 210 160 336
l58 63 31 -17 c18 -8 109 -57 202 -108z m-537 -211 c88 -26 73 -42 -95 -99
-81 -28 -149 -51 -153 -53 -6 -3 -2 179 5 214 5 22 6 22 97 -12 51 -19 117
-42 146 -50z"/>
<path d="M820 2051 c-14 -5 -40 -16 -58 -25 -28 -15 -33 -22 -30 -49 3 -28 9
-35 58 -55 66 -27 134 -25 224 7 33 11 61 20 62 18 1 -1 5 -38 9 -81 7 -75 7
-79 -11 -72 -138 56 -210 63 -291 27 -48 -21 -53 -26 -53 -56 0 -29 5 -35 49
-54 78 -33 177 -25 294 24 15 6 17 1 17 -44 0 -28 5 -51 10 -51 6 0 10 20 10
44 0 23 3 70 6 104 l7 60 149 7 c81 4 150 11 153 15 7 11 -77 20 -196 20
l-109 0 0 75 c0 68 -2 75 -20 75 -12 0 -20 -7 -20 -16 0 -11 -5 -14 -17 -9
-96 40 -185 53 -243 36z m184 -39 c38 -9 71 -22 73 -29 5 -14 -75 -40 -155
-48 -45 -5 -69 -2 -114 15 -32 12 -58 25 -58 29 0 16 96 50 140 50 25 0 76 -8
114 -17z m34 -224 c24 -7 44 -17 45 -23 3 -15 -119 -44 -188 -44 -54 -1 -145
27 -145 43 0 10 58 36 97 44 41 9 123 0 191 -20z"/>
<path d="M812 1056 c-57 -60 -135 -168 -147 -206 -5 -16 -19 -17 -185 -12
l-180 5 0 -153 0 -152 183 7 182 7 17 -34 c21 -45 119 -151 176 -190 l44 -30
346 198 c190 110 347 204 349 209 1 6 -14 19 -35 31 -20 11 -172 98 -337 193
-165 96 -312 177 -327 181 -24 7 -33 2 -86 -54z m302 -105 c121 -65 276 -147
342 -182 l121 -64 -176 -91 c-97 -50 -253 -134 -348 -187 l-172 -95 -55 57
c-71 76 -133 172 -152 240 -20 68 -13 125 24 206 39 82 161 232 191 235 2 0
103 -53 225 -119z m-476 -171 c-10 -31 -6 -146 7 -187 l7 -22 -163 6 c-90 3
-164 6 -165 7 0 0 1 49 4 108 l4 107 32 4 c17 2 88 5 158 5 l127 2 -11 -30z"/>
<path d="M841 900 c-18 -4 -51 -16 -72 -25 -34 -16 -39 -22 -39 -50 0 -30 5
-35 53 -55 68 -30 142 -29 228 2 l67 25 6 -75 c4 -41 5 -76 2 -79 -2 -2 -41 8
-86 22 -93 31 -147 31 -222 -3 -42 -18 -48 -24 -48 -52 0 -27 6 -34 48 -52 74
-33 135 -34 225 -4 43 14 80 26 82 26 3 0 5 -20 5 -44 0 -74 20 -65 21 8 1 36
3 71 4 76 1 6 3 25 4 44 l1 33 150 5 c135 4 172 10 159 22 -3 3 -107 8 -301
16 -5 0 -8 32 -8 70 0 63 -2 70 -20 70 -11 0 -20 -6 -20 -14 0 -11 -14 -9 -62
9 -77 27 -132 35 -177 25z m174 -46 c37 -9 65 -22 65 -29 0 -17 -116 -45 -187
-45 -53 0 -143 29 -143 45 0 3 19 15 43 25 52 24 136 26 222 4z m13 -219 c34
-10 62 -21 62 -25 0 -10 -112 -41 -174 -47 -38 -4 -66 1 -108 17 -32 12 -58
25 -58 30 0 5 24 18 53 29 61 25 127 23 225 -4z"/>
</g>
</svg>
