<?xml version="1.0" standalone="no"?>
<!DOCTYPE svg PUBLIC "-//W3C//DTD SVG 20010904//EN"
 "http://www.w3.org/TR/2001/REC-SVG-20010904/DTD/svg10.dtd">
<svg version="1.0" xmlns="http://www.w3.org/2000/svg"
 width="190.000000pt" height="142.000000pt" viewBox="0 0 190.000000 142.000000"
 preserveAspectRatio="xMidYMid meet">
<metadata>
Created by potrace 1.16, written by Peter Selinger 2001-2019
</metadata>
<g transform="translate(0.000000,142.000000) scale(0.100000,-0.100000)"
fill="#000000" stroke="none">
<path d="M794 1041 c-38 -45 -85 -109 -104 -142 l-35 -62 -178 2 -178 2 3
-148 3 -148 180 3 180 4 22 -39 c29 -53 104 -135 163 -178 l50 -37 152 87
c353 202 548 317 548 324 0 12 -676 398 -709 406 -27 6 -34 0 -97 -74z m311
-83 c30 -18 27 -18 -159 -18 l-189 0 24 28 c13 15 41 46 63 69 l39 42 96 -51
c53 -29 110 -60 126 -70z m-340 -455 c3 -8 57 -10 204 -6 111 4 201 4 201 1 0
-7 -275 -158 -288 -158 -16 0 -109 105 -152 171 -87 135 -89 238 -8 375 l23
39 8 -205 c4 -113 10 -210 12 -217z m405 352 l0 -65 -37 0 c-75 0 -83 6 -83
64 0 29 3 56 7 59 3 4 30 7 60 7 l53 0 0 -65z m-276 12 c10 -68 2 -78 -58 -75
l-51 3 -3 58 -3 57 54 0 55 0 6 -43z m40 -9 c6 -37 4 -48 -6 -48 -9 0 -12 14
-9 51 4 60 6 59 15 -3z m46 40 c0 -7 3 -30 6 -50 6 -35 5 -38 -16 -38 -16 0
-20 4 -16 16 3 9 6 31 6 50 0 19 5 34 10 34 6 0 10 -6 10 -12z m50 -38 c0 -39
-3 -50 -16 -50 -11 0 -14 5 -10 16 3 9 6 31 6 50 0 19 5 34 10 34 6 0 10 -22
10 -50z m364 -55 c97 -49 176 -93 176 -97 0 -5 -365 -198 -375 -198 -2 0 -2 8
0 18 2 9 4 97 4 195 1 108 5 177 10 175 6 -1 89 -43 185 -93z m-756 -22 c-10
-37 -6 -146 7 -189 6 -20 5 -21 -157 -16 -90 2 -163 5 -164 6 0 0 2 51 5 111
l6 110 120 5 c66 4 137 7 157 8 l36 2 -10 -37z m404 -59 c1 -36 1 -68 -1 -70
-2 -2 -33 -4 -68 -4 l-63 0 0 70 0 70 64 0 64 0 4 -66z m-154 35 c-2 -6 -7
-10 -11 -10 -4 1 -27 1 -52 1 -25 0 -45 5 -45 10 0 6 25 10 56 10 35 0 54 -4
52 -11z m282 -1 c0 -9 -16 -12 -55 -10 -71 5 -71 22 0 22 37 0 55 -4 55 -12z
m-280 -43 c0 -12 -13 -15 -55 -15 -59 0 -75 16 -22 23 67 8 77 7 77 -8z m280
-2 c0 -15 -8 -18 -55 -15 -30 2 -55 8 -55 12 0 8 17 11 93 18 10 1 17 -5 17
-15z m-280 -45 c0 -10 -16 -12 -57 -9 -49 4 -53 6 -28 12 49 11 85 10 85 -3z
m280 0 c0 -10 -16 -12 -57 -9 -53 4 -55 5 -23 12 57 11 80 10 80 -3z m-280
-45 c0 -10 3 -35 6 -55 l7 -38 -62 0 -61 0 0 49 c0 54 -2 53 78 59 25 2 32 -1
32 -15z m140 -44 c0 -39 -4 -59 -11 -57 -6 2 -10 7 -10 11 1 4 1 30 1 57 0 28
5 50 10 50 6 0 10 -27 10 -61z m148 -1 l3 -58 -66 0 -65 0 0 58 0 57 63 0 62
0 3 -57z m-244 0 c6 -37 4 -48 -6 -48 -9 0 -12 14 -9 51 4 60 6 59 15 -3z m50
6 c6 -50 2 -66 -17 -58 -13 5 -11 104 3 104 4 0 10 -21 14 -46z"/>
</g>
</svg>
