<?xml version="1.0" standalone="no"?>
<!DOCTYPE svg PUBLIC "-//W3C//DTD SVG 20010904//EN"
 "http://www.w3.org/TR/2001/REC-SVG-20010904/DTD/svg10.dtd">
<svg version="1.0" xmlns="http://www.w3.org/2000/svg"
 width="190.000000pt" height="142.000000pt" viewBox="0 0 190.000000 142.000000"
 preserveAspectRatio="xMidYMid meet">
<metadata>
Created by potrace 1.16, written by Peter Selinger 2001-2019
</metadata>
<g transform="translate(0.000000,142.000000) scale(0.100000,-0.100000)"
fill="#000000" stroke="none">
<path d="M791 1038 c-39 -46 -85 -110 -102 -143 l-32 -60 -179 3 -179 4 3
-149 3 -148 180 3 180 4 22 -39 c29 -53 104 -135 163 -178 l50 -37 152 87
c353 202 548 317 548 324 0 12 -676 398 -708 406 -27 6 -35 0 -101 -77z m409
-131 c107 -58 234 -124 283 -148 48 -24 87 -47 87 -51 0 -4 -55 -35 -122 -69
-68 -34 -220 -115 -340 -180 -119 -66 -220 -119 -226 -119 -16 0 -109 104
-152 171 -111 172 -84 314 98 511 l54 58 62 -33 c33 -19 149 -82 256 -140z
m-562 -124 c-10 -37 -6 -146 7 -189 6 -20 5 -21 -157 -16 -90 2 -163 5 -164 6
0 0 2 51 5 111 l6 110 120 5 c66 4 137 7 157 8 l36 2 -10 -37z"/>
<path d="M787 893 c-7 -12 -16 -61 -26 -142 -9 -70 -8 -78 18 -135 34 -75 80
-150 88 -142 3 3 -8 34 -24 68 -67 142 -69 150 -49 250 12 60 15 93 8 100 -5
5 -12 6 -15 1z"/>
<path d="M843 857 c-3 -5 -1 -13 5 -19 11 -11 192 0 192 13 0 10 -191 16 -197
6z"/>
<path d="M1087 858 c-9 -5 -9 -10 -1 -18 12 -12 194 -2 194 11 0 10 -178 16
-193 7z"/>
<path d="M844 779 c-3 -6 -2 -14 2 -19 12 -11 194 0 194 11 0 5 -33 9 -72 10
-40 0 -83 2 -95 5 -12 2 -25 -1 -29 -7z"/>
<path d="M1085 780 c-14 -23 11 -28 103 -23 104 7 125 23 28 23 -35 0 -77 3
-94 6 -18 4 -32 1 -37 -6z"/>
<path d="M847 713 c-4 -3 -7 -10 -7 -15 0 -11 187 -10 194 1 10 16 -172 30
-187 14z"/>
<path d="M1080 705 c0 -12 17 -15 94 -15 102 0 135 13 59 24 -85 11 -153 8
-153 -9z"/>
<path d="M842 628 c6 -17 57 -21 136 -13 96 10 73 25 -39 25 -76 0 -100 -3
-97 -12z"/>
<path d="M1082 628 c6 -17 57 -21 136 -13 96 10 73 25 -39 25 -76 0 -100 -3
-97 -12z"/>
</g>
</svg>
