<?xml version="1.0" standalone="no"?>
<!DOCTYPE svg PUBLIC "-//W3C//DTD SVG 20010904//EN"
 "http://www.w3.org/TR/2001/REC-SVG-20010904/DTD/svg10.dtd">
<svg version="1.0" xmlns="http://www.w3.org/2000/svg"
 width="190.000000pt" height="142.000000pt" viewBox="0 0 190.000000 142.000000"
 preserveAspectRatio="xMidYMid meet">
<metadata>
Created by potrace 1.16, written by Peter Selinger 2001-2019
</metadata>
<g transform="translate(0.000000,142.000000) scale(0.100000,-0.100000)"
fill="#000000" stroke="none">
<path d="M797 1043 l-67 -78 -207 0 c-189 0 -208 -2 -211 -17 -3 -17 10 -17
199 -11 121 4 200 3 197 -3 -2 -5 -19 -41 -38 -80 l-34 -70 -168 4 -168 5 0
-152 0 -152 198 6 197 6 34 -46 c35 -47 118 -123 157 -143 18 -10 58 10 295
146 357 206 419 243 419 251 0 12 -673 398 -706 405 -28 6 -35 1 -97 -71z
m358 -111 c143 -77 292 -156 330 -176 l70 -36 -405 2 -405 3 -3 -23 c-3 -19 0
-22 20 -18 13 3 199 7 413 11 l390 5 -130 -66 c-71 -37 -225 -120 -342 -184
l-211 -117 -44 46 c-69 71 -105 123 -140 197 -53 114 -40 214 45 339 37 54
137 166 145 161 4 -2 124 -66 267 -144z m-525 -224 c0 -29 11 -84 24 -121 l23
-68 -176 7 c-97 4 -176 7 -177 8 0 0 1 49 4 108 5 126 -13 114 180 117 l122 1
0 -52z"/>
</g>
</svg>
