<?xml version="1.0" standalone="no"?>
<!DOCTYPE svg PUBLIC "-//W3C//DTD SVG 20010904//EN"
 "http://www.w3.org/TR/2001/REC-SVG-20010904/DTD/svg10.dtd">
<svg version="1.0" xmlns="http://www.w3.org/2000/svg"
 width="190.000000pt" height="142.000000pt" viewBox="0 0 190.000000 142.000000"
 preserveAspectRatio="xMidYMid meet">
<metadata>
Created by potrace 1.16, written by Peter Selinger 2001-2019
</metadata>
<g transform="translate(0.000000,142.000000) scale(0.100000,-0.100000)"
fill="#000000" stroke="none">
<path d="M791 1038 c-39 -46 -85 -110 -102 -143 l-32 -60 -179 3 -179 4 3
-149 3 -148 180 3 180 4 22 -39 c29 -53 104 -135 163 -178 l50 -37 152 87
c353 202 548 317 548 324 0 12 -676 398 -708 406 -27 6 -35 0 -101 -77z m149
2 c-7 -4 -2 -24 14 -56 25 -50 46 -148 46 -217 l0 -38 -47 33 c-25 18 -70 55
-100 82 -35 31 -57 46 -64 39 -17 -17 142 -153 181 -153 23 0 5 -18 -68 -67
-112 -77 -125 -88 -121 -108 3 -14 20 -5 89 50 47 37 90 71 95 75 6 5 10 -15
10 -58 0 -55 6 -80 32 -134 l32 -67 -73 -41 c-41 -22 -78 -40 -83 -40 -17 0
-109 104 -153 171 -111 172 -84 314 98 510 l53 58 35 -16 c19 -9 29 -20 24
-23z m264 -134 c127 -69 261 -139 299 -157 37 -18 67 -37 67 -41 0 -4 -62 -39
-137 -77 -76 -38 -192 -99 -258 -135 -66 -36 -123 -62 -127 -58 -11 11 -58
159 -58 182 0 12 7 37 16 55 12 26 15 59 12 142 -2 92 -7 116 -29 161 -14 28
-24 52 -21 52 3 0 109 -56 236 -124z m-566 -123 c-10 -37 -6 -146 7 -189 6
-20 5 -21 -157 -16 -90 2 -163 5 -164 6 0 0 2 51 5 111 l6 110 120 5 c66 4
137 7 157 8 l36 2 -10 -37z"/>
</g>
</svg>
