<?xml version="1.0" standalone="no"?>
<!DOCTYPE svg PUBLIC "-//W3C//DTD SVG 20010904//EN"
 "http://www.w3.org/TR/2001/REC-SVG-20010904/DTD/svg10.dtd">
<svg version="1.0" xmlns="http://www.w3.org/2000/svg"
 width="190.000000pt" height="142.000000pt" viewBox="0 0 190.000000 142.000000"
 preserveAspectRatio="xMidYMid meet">
<metadata>
Created by potrace 1.16, written by Peter Selinger 2001-2019
</metadata>
<g transform="translate(0.000000,142.000000) scale(0.100000,-0.100000)"
fill="#000000" stroke="none">
<path d="M858 1107 c-9 -6 -41 -41 -72 -77 l-56 -65 -207 0 c-189 0 -208 -2
-211 -17 -3 -17 10 -17 199 -11 121 4 200 3 197 -3 -2 -5 -19 -41 -38 -80
l-34 -70 -168 4 -168 5 0 -152 0 -151 73 1 c39 0 128 4 195 7 l124 7 34 -46
c19 -26 63 -72 99 -104 61 -53 68 -57 91 -46 26 11 327 184 557 318 70 41 127
78 127 82 0 8 16 -1 -356 213 -176 102 -332 188 -346 191 -14 4 -32 1 -40 -6z
m52 -41 c0 -1 -43 -44 -96 -96 -81 -79 -92 -87 -66 -49 50 75 131 159 148 152
7 -3 14 -6 14 -7z m50 -34 c0 -4 -65 -72 -145 -152 -91 -91 -145 -138 -145
-127 0 42 35 90 141 195 94 92 116 109 131 101 10 -5 18 -13 18 -17z m60 -31
c0 -4 -78 -84 -174 -180 -165 -165 -174 -172 -180 -147 -4 15 -4 32 0 37 3 6
73 79 156 164 141 144 151 153 174 143 13 -6 24 -14 24 -17z m42 -22 c19 -10
6 -25 -168 -200 -104 -104 -192 -189 -196 -189 -4 0 -11 12 -14 26 -6 24 11
43 167 200 96 96 178 174 182 174 5 0 18 -5 29 -11z m61 -31 c15 -12 -6 -36
-187 -217 l-205 -205 -12 28 c-13 27 -10 30 177 217 104 104 194 189 199 189
6 0 19 -6 28 -12z m55 -31 c9 -10 -36 -61 -200 -225 -203 -203 -212 -211 -226
-191 -14 20 -5 31 189 225 112 112 209 204 215 204 6 0 16 -6 22 -13z m54 -28
c19 -10 3 -28 -203 -235 -172 -172 -226 -221 -236 -212 -7 6 -13 15 -13 22 0
9 419 436 428 436 2 0 13 -5 24 -11z m60 -32 c15 -12 -9 -39 -217 -247 -223
-223 -235 -233 -249 -215 -14 19 -2 33 212 248 125 125 229 227 232 227 3 0
13 -6 22 -13z m79 -44 c27 -14 49 -29 49 -32 0 -4 -73 -79 -162 -168 -125
-124 -180 -171 -236 -203 -41 -23 -76 -40 -78 -37 -2 2 26 33 63 70 38 36 135
134 218 219 82 84 42 46 -90 -84 -132 -131 -245 -238 -251 -238 -7 0 -16 6
-22 13 -9 10 41 67 219 250 127 130 233 237 236 237 3 0 27 -12 54 -27z m109
-63 c0 -4 -46 -51 -103 -106 -75 -72 -124 -109 -178 -137 l-74 -38 154 155
c143 143 156 153 177 144 13 -6 24 -14 24 -18z m-850 -42 c0 -29 11 -84 24
-121 l23 -68 -176 7 c-97 3 -176 7 -177 8 0 0 1 49 4 108 5 126 -13 114 180
117 l122 1 0 -52z m905 13 l34 -18 -26 -12 c-25 -11 -25 -11 -13 6 8 10 -1 4
-20 -13 -19 -18 -69 -49 -110 -69 l-75 -37 80 81 c44 45 83 81 87 81 5 0 24
-8 43 -19z"/>
</g>
</svg>
