<?xml version="1.0" standalone="no"?>
<!DOCTYPE svg PUBLIC "-//W3C//DTD SVG 20010904//EN"
 "http://www.w3.org/TR/2001/REC-SVG-20010904/DTD/svg10.dtd">
<svg version="1.0" xmlns="http://www.w3.org/2000/svg"
 width="202.000000pt" height="144.000000pt" viewBox="0 0 202.000000 144.000000"
 preserveAspectRatio="xMidYMid meet">
<metadata>
Created by potrace 1.16, written by Peter Selinger 2001-2019
</metadata>
<g transform="translate(0.000000,144.000000) scale(0.100000,-0.100000)"
fill="#000000" stroke="none">
<path d="M605 1000 c-133 -133 -142 -140 -180 -140 l-40 0 135 138 c102 103
93 95 -38 -33 -94 -93 -172 -172 -172 -174 0 -3 11 6 24 18 l24 23 7 -32 c6
-28 2 -37 -31 -73 -25 -27 -28 -32 -8 -14 39 35 44 34 44 -5 0 -22 -10 -43
-32 -68 l-33 -35 33 29 32 30 0 -39 c0 -22 -7 -47 -17 -59 -15 -17 -15 -19 -1
-8 11 9 18 10 23 2 3 -5 16 -10 28 -10 21 -1 21 -2 -5 -21 -16 -11 -28 -26
-28 -32 0 -6 17 6 38 26 29 28 46 37 72 37 l34 0 -54 -55 c-29 -30 -52 -57
-49 -59 3 -3 32 21 64 54 50 51 65 60 94 60 l36 0 -80 -80 c-44 -44 -75 -80
-69 -80 6 0 45 35 86 78 60 62 83 80 112 85 20 3 36 3 36 -1 0 -4 -43 -50 -95
-102 -52 -52 -93 -95 -91 -97 2 -2 45 40 97 93 112 114 124 122 140 93 10 -20
2 -31 -87 -123 l-99 -101 100 97 c100 96 100 97 117 75 16 -21 15 -24 -65
-107 l-82 -85 82 79 c82 79 82 80 103 61 l21 -19 -63 -65 -63 -66 66 63 c65
63 65 63 84 42 18 -20 18 -21 -21 -63 l-39 -42 41 38 c37 34 44 38 64 27 20
-11 20 -13 6 -29 -23 -25 -20 -37 4 -16 18 16 23 17 45 5 21 -11 27 -11 42 2
10 9 59 39 108 68 l90 51 -70 -72 c-38 -40 -61 -66 -51 -58 11 8 47 43 80 77
34 35 93 82 131 105 39 22 81 47 95 55 14 9 -33 -45 -105 -119 l-130 -134 150
146 c135 131 209 188 310 237 6 2 -75 -83 -180 -189 -165 -168 -158 -162 53
46 133 132 242 242 242 244 0 3 -13 -8 -30 -24 -26 -25 -31 -26 -47 -14 -10 7
-20 15 -22 16 -3 2 15 25 40 51 l44 47 -50 -47 c-48 -44 -51 -46 -73 -31 l-23
16 58 61 58 61 -60 -57 c-65 -62 -75 -67 -95 -42 -11 13 -3 26 56 87 l69 72
-77 -74 c-69 -67 -79 -73 -95 -61 -10 8 -20 16 -22 17 -2 2 30 37 72 78 43 42
77 79 77 82 0 4 -37 -30 -83 -75 -77 -77 -84 -81 -102 -68 -19 14 -19 16 20
57 22 23 58 59 79 81 21 21 37 40 35 43 -3 2 -40 -32 -84 -76 -44 -43 -84 -79
-90 -79 -6 0 -16 5 -23 12 -10 10 5 30 70 95 45 46 78 83 73 83 -6 0 -26 -17
-46 -38 -108 -111 -125 -125 -149 -112 -22 12 -20 15 61 96 46 46 80 84 76 84
-5 0 -43 -37 -86 -82 l-78 -82 -49 29 c-27 15 -51 30 -53 32 -3 2 22 32 55 66
l59 62 -62 -59 c-59 -57 -64 -59 -89 -47 l-27 12 44 47 44 47 -46 -43 c-41
-38 -49 -42 -68 -33 -26 15 -26 19 1 50 20 23 19 23 -8 -2 -28 -25 -34 -27
-52 -16 -12 7 -18 19 -15 28 5 13 3 13 -7 4 -7 -7 -25 -10 -40 -7 -23 5 -35
-3 -89 -63 -35 -37 -82 -99 -106 -138 -39 -66 -45 -70 -81 -73 l-39 -3 140
140 c76 77 137 142 134 145 -3 3 -67 -60 -144 -139 -134 -140 -140 -145 -179
-145 l-41 0 145 147 145 148 -151 -148 c-130 -127 -155 -147 -182 -147 -18 0
-32 3 -32 7 0 4 62 70 137 145 76 76 135 138 133 138 -3 0 -68 -63 -145 -140z
m345 87 c0 -2 -17 -19 -37 -38 l-38 -34 34 38 c33 34 41 42 41 34z m43 -19
c15 -12 2 -28 -118 -148 -74 -74 -135 -131 -135 -127 0 5 11 32 25 61 16 34
56 83 112 139 49 48 91 87 94 87 3 0 13 -6 22 -12z m60 -31 c16 -11 -1 -31
-153 -181 -167 -165 -170 -168 -170 -135 0 30 16 50 147 182 81 81 150 147
153 147 3 0 14 -6 23 -13z m77 -42 c28 -14 50 -29 50 -34 0 -4 -9 -16 -20 -26
-19 -18 -20 -17 -20 3 0 14 -6 22 -16 22 -14 0 -15 2 -3 18 13 16 13 16 -5 2
-10 -8 -37 -24 -60 -36 -30 -15 -48 -33 -66 -70 -14 -27 -28 -48 -32 -46 -5 1
-21 2 -38 2 -28 0 -26 4 62 95 50 52 93 95 95 95 2 0 26 -11 53 -25z m110 -64
c0 -4 -22 -29 -50 -56 l-50 -49 0 39 c0 54 41 99 76 83 13 -6 24 -14 24 -17z
m-148 -3 c-6 -7 -13 -29 -17 -50 -9 -46 -51 -90 -66 -68 -15 24 -3 83 21 102
12 10 26 16 30 13 5 -3 11 -1 15 5 3 5 11 10 17 10 7 0 7 -4 0 -12z m205 -22
c2 -1 -33 -40 -77 -86 l-80 -84 0 39 c0 34 7 47 57 97 56 56 66 60 100 34z
m43 -26 c16 -9 6 -22 -88 -114 -103 -101 -107 -104 -112 -78 -4 22 -10 26 -30
23 -66 -9 -130 -70 -130 -123 0 -14 -127 -146 -133 -137 -1 2 -9 12 -16 22
-13 16 -9 24 40 73 29 29 59 54 66 54 7 0 13 6 13 13 0 7 26 39 59 71 57 56
59 57 93 48 35 -10 36 -9 119 74 46 46 87 84 92 84 5 0 17 -4 27 -10z m60 -30
c12 -8 -12 -36 -120 -145 -134 -135 -135 -135 -138 -104 -3 29 7 43 110 146
62 62 117 113 123 113 5 0 17 -5 25 -10z m-800 -28 c0 -4 -48 -55 -106 -112
l-106 -105 6 45 c6 38 17 55 68 107 34 34 71 64 82 66 37 7 56 7 56 -1z m103
-29 c-4 -21 -7 -60 -6 -88 1 -41 -3 -55 -25 -77 -14 -16 -21 -28 -14 -28 6 0
18 10 26 22 18 25 21 24 30 -15 5 -20 3 -27 -4 -22 -6 4 -40 7 -77 6 l-65 0
56 59 c79 82 70 88 -11 8 l-68 -67 -79 0 -79 0 119 120 c115 115 120 119 162
119 l43 0 -8 -37z m293 13 c10 -22 8 -28 -17 -52 l-29 -28 0 40 c0 35 13 64
30 64 3 0 10 -11 16 -24z m84 -16 c0 -15 6 -31 13 -34 6 -3 1 -3 -13 0 -14 3
-31 12 -39 20 -13 12 -12 16 4 33 22 25 35 18 35 -19z m372 29 c19 -10 8 -24
-153 -185 -96 -96 -169 -174 -164 -174 6 -1 85 77 177 172 164 170 167 172
194 159 l28 -12 -120 -120 c-88 -88 -139 -131 -194 -162 -41 -23 -80 -42 -87
-42 -6 0 -19 -8 -30 -17 -10 -9 -49 -33 -88 -54 l-70 -37 65 66 c79 82 71 89
-12 10 -33 -32 -63 -58 -67 -58 -4 0 -22 17 -41 38 l-33 38 64 65 65 65 13
-25 c13 -23 11 -28 -43 -81 -31 -32 -55 -59 -53 -61 2 -2 29 23 61 55 l57 58
37 -18 c20 -11 47 -19 59 -19 19 0 23 5 23 32 0 28 19 52 138 174 75 77 141
142 145 143 5 0 18 -4 29 -10z m-1032 -3 c0 -3 -4 -8 -10 -11 -5 -3 -10 -1
-10 4 0 6 5 11 10 11 6 0 10 -2 10 -4z m40 -51 l-55 -56 -3 37 c-4 50 19 74
72 74 l40 0 -54 -55z m442 33 c-7 -7 -12 -19 -12 -27 0 -16 -58 -81 -72 -81
-12 0 -9 53 5 70 18 23 59 50 76 50 12 0 12 -3 3 -12z m140 -42 c16 -11 12
-18 -37 -66 l-55 -54 0 39 c0 29 7 46 27 67 30 31 40 33 65 14z m530 3 c19
-10 18 -14 -33 -66 -44 -44 -145 -109 -204 -132 -5 -2 37 44 95 103 57 58 108
106 113 106 5 0 18 -5 29 -11z m56 -28 c10 -6 -2 -17 -42 -40 -31 -17 -59 -31
-63 -31 -4 0 11 18 32 40 40 41 51 46 73 31z m-851 -89 l-26 -26 -9 25 c-7 19
-4 31 17 58 l26 34 9 -32 c8 -28 6 -36 -17 -59z m99 10 c-14 -14 -17 -14 -36
3 l-20 18 27 29 28 29 8 -32 c6 -24 4 -36 -7 -47z m208 16 c-2 -13 -7 -39 -10
-58 -6 -34 -29 -70 -45 -70 -5 0 -13 10 -20 21 -10 19 -6 27 32 65 24 24 40
44 36 44 -4 0 -22 -17 -42 -37 -21 -23 -34 -32 -34 -23 0 19 17 41 49 63 33
23 40 21 34 -5z m-251 -26 c16 -17 15 -20 -18 -52 -19 -18 -36 -32 -38 -29
-25 28 -25 45 1 72 31 32 34 33 55 9z m71 -7 c3 -9 0 -15 -9 -15 -16 0 -27 14
-18 24 10 10 21 7 27 -9z m-18 -25 l27 -11 -49 -50 -49 -50 -18 22 c-18 22
-17 23 20 61 20 21 38 38 39 38 2 0 15 -5 30 -10z m198 -72 c7 -30 -6 -41 -29
-24 -16 12 -17 16 -6 30 18 22 28 20 35 -6z"/>
<path d="M1029 893 l-24 -28 28 24 c25 23 32 31 24 31 -2 0 -14 -12 -28 -27z"/>
<path d="M581 715 c-58 -57 -103 -107 -100 -109 3 -3 54 44 114 104 60 61 105
110 100 110 -6 0 -57 -47 -114 -105z"/>
<path d="M1285 1058 l-70 -73 73 70 c67 64 77 75 69 75 -1 0 -34 -33 -72 -72z"/>
<path d="M430 1004 c-47 -47 -76 -80 -65 -73 21 14 162 159 154 159 -2 0 -43
-39 -89 -86z"/>
<path d="M1524 499 c-220 -221 -198 -199 -193 -199 2 0 92 88 199 195 107 107
192 195 189 195 -3 0 -90 -86 -195 -191z"/>
<path d="M1605 498 c-150 -155 -170 -183 -37 -53 72 71 132 131 132 132 0 14
-28 -10 -95 -79z"/>
</g>
</svg>
