<?xml version="1.0" standalone="no"?>
<!DOCTYPE svg PUBLIC "-//W3C//DTD SVG 20010904//EN"
 "http://www.w3.org/TR/2001/REC-SVG-20010904/DTD/svg10.dtd">
<svg version="1.0" xmlns="http://www.w3.org/2000/svg"
 width="142.000000pt" height="139.000000pt" viewBox="0 0 142.000000 139.000000"
 preserveAspectRatio="xMidYMid meet">
<metadata>
Created by potrace 1.16, written by Peter Selinger 2001-2019
</metadata>
<g transform="translate(0.000000,139.000000) scale(0.100000,-0.100000)"
fill="#000000" stroke="none">
<path d="M933 914 l-169 -176 -116 7 -116 7 -37 99 c-23 61 -43 99 -52 99 -22
0 -25 -23 -8 -64 9 -20 25 -60 36 -88 l20 -51 -97 7 -97 7 7 -96 c3 -52 9
-115 13 -140 11 -83 23 -46 23 70 l0 115 83 0 83 0 35 -77 c19 -42 35 -80 37
-84 2 -3 -49 -10 -113 -14 -113 -7 -115 -7 -115 -31 0 -23 2 -24 43 -17 23 3
84 7 134 7 51 1 93 4 93 7 0 3 26 9 58 12 l57 6 112 -112 c85 -83 116 -108
124 -100 12 12 94 441 124 646 9 60 19 116 22 123 14 38 -29 -1 -184 -162z
m124 0 c-14 -54 -44 -201 -68 -326 -24 -126 -47 -227 -51 -225 -14 5 -138 152
-138 164 0 10 -25 13 -98 13 l-98 0 -27 82 c-14 45 -24 84 -22 86 3 3 61 6
130 8 l126 3 132 150 c72 83 132 149 134 147 2 -2 -7 -48 -20 -102z"/>
</g>
</svg>
