<?xml version="1.0" standalone="no"?>
<!DOCTYPE svg PUBLIC "-//W3C//DTD SVG 20010904//EN"
 "http://www.w3.org/TR/2001/REC-SVG-20010904/DTD/svg10.dtd">
<svg version="1.0" xmlns="http://www.w3.org/2000/svg"
 width="165.000000pt" height="138.000000pt" viewBox="0 0 165.000000 138.000000"
 preserveAspectRatio="xMidYMid meet">
<metadata>
Created by potrace 1.16, written by Peter Selinger 2001-2019
</metadata>
<g transform="translate(0.000000,138.000000) scale(0.100000,-0.100000)"
fill="#000000" stroke="none">
<path d="M550 970 l0 -110 -126 0 -127 0 6 -257 c3 -142 9 -269 13 -282 l7
-24 503 6 c277 3 508 8 515 12 7 5 8 10 1 14 -7 4 -8 92 -4 259 l7 252 -35 1
c-19 1 -127 5 -240 8 l-205 6 4 113 c3 110 3 112 -19 112 -22 0 -22 0 -15
-116 7 -107 6 -116 -10 -110 -9 3 -37 6 -61 6 l-44 0 0 110 c0 91 -3 110 -15
110 -12 0 -15 -19 -15 -110 l0 -110 -57 0 -58 0 3 110 c3 95 2 110 -12 110
-14 0 -16 -16 -16 -110z m750 -232 l0 -81 -212 6 c-116 4 -255 7 -310 7 l-98
0 0 70 c0 40 4 70 10 70 6 0 11 -8 11 -17 1 -17 2 -17 6 0 4 14 16 17 69 17
50 0 64 -3 64 -15 0 -8 5 -15 10 -15 6 0 10 7 10 15 0 16 46 19 298 23 l142 2
0 -82z m-930 25 c0 -27 3 -58 6 -70 5 -19 2 -23 -15 -23 -19 0 -21 5 -21 70 0
56 3 70 15 70 11 0 15 -12 15 -47z m80 -23 c0 -63 -2 -70 -20 -70 -18 0 -20 7
-20 70 0 63 2 70 20 70 18 0 20 -7 20 -70z m100 0 l0 -70 -30 0 -30 0 0 70 0
70 30 0 30 0 0 -70z m90 0 c0 -68 -1 -70 -25 -70 -24 0 -25 2 -25 70 0 68 1
70 25 70 24 0 25 -2 25 -70z m660 -152 c0 -29 3 -63 6 -75 l6 -23 -133 0 c-74
0 -218 3 -321 7 l-188 6 0 32 c0 18 3 46 6 64 l6 31 197 3 c108 1 247 3 309 5
l112 2 0 -52z m-922 -26 c3 -60 2 -62 -22 -62 -24 0 -25 2 -20 53 7 68 11 80
27 75 7 -3 13 -28 15 -66z m80 1 c4 -62 3 -63 -22 -63 -25 0 -26 2 -26 66 0
62 1 65 22 62 20 -3 23 -10 26 -65z m96 36 c3 -17 6 -47 6 -65 0 -33 -2 -34
-37 -34 l-38 0 3 65 c4 64 4 65 32 65 23 0 29 -5 34 -31z m86 -3 c0 -18 3 -48
6 -65 6 -30 6 -31 -31 -31 -34 0 -37 2 -31 23 3 12 6 41 6 65 0 38 2 42 25 42
22 0 25 -4 25 -34z m670 -197 l0 -71 -87 6 c-49 3 -193 7 -321 8 l-233 3 3 55
3 55 235 5 c129 3 272 7 318 8 l82 2 0 -71z m-660 -3 l0 -51 -35 0 -35 0 0 52
c0 46 3 52 23 55 40 7 47 -2 47 -56z m-270 4 c0 -47 -2 -50 -25 -50 -23 0 -25
3 -25 50 0 47 2 50 25 50 23 0 25 -3 25 -50z m80 0 c0 -49 -1 -50 -30 -50 -29
0 -30 1 -30 50 0 49 1 50 30 50 29 0 30 -1 30 -50z m100 -3 l0 -53 -40 4 -40
4 0 49 0 49 40 0 40 0 0 -53z"/>
</g>
</svg>
