<?xml version="1.0" standalone="no"?>
<!DOCTYPE svg PUBLIC "-//W3C//DTD SVG 20010904//EN"
 "http://www.w3.org/TR/2001/REC-SVG-20010904/DTD/svg10.dtd">
<svg version="1.0" xmlns="http://www.w3.org/2000/svg"
 width="166.000000pt" height="116.000000pt" viewBox="0 0 166.000000 116.000000"
 preserveAspectRatio="xMidYMid meet">
<metadata>
Created by potrace 1.16, written by Peter Selinger 2001-2019
</metadata>
<g transform="translate(0.000000,116.000000) scale(0.100000,-0.100000)"
fill="#000000" stroke="none">
<path d="M302 602 c3 -195 8 -265 18 -277 11 -14 67 -15 511 -13 l498 3 7 261
6 261 -54 7 c-29 3 -264 9 -522 13 l-469 6 5 -261z m992 191 c3 -21 6 -60 6
-87 l0 -49 -212 7 c-189 7 -215 10 -228 26 -8 10 -35 41 -58 69 l-44 51 69 1
c74 2 405 14 439 17 17 2 23 -5 28 -35z m-924 -43 c0 -33 1 -63 3 -67 1 -4 -6
-9 -15 -11 -16 -3 -18 5 -18 67 0 56 3 71 15 71 12 0 15 -13 15 -60z m80 -10
c0 -63 -2 -70 -20 -70 -18 0 -20 7 -20 70 0 63 2 70 20 70 18 0 20 -7 20 -70z
m100 0 l0 -70 -30 0 -30 0 0 70 0 70 30 0 30 0 0 -70z m90 0 c0 -70 0 -70 -27
-70 l-28 0 3 70 c3 66 5 70 28 70 23 0 24 -3 24 -70z m133 -1 l59 -69 -81 0
-81 0 0 33 c0 64 12 107 29 106 9 0 42 -32 74 -70z m527 -174 l0 -75 -139 0
-139 0 -56 69 -56 70 38 4 c20 2 108 4 195 5 l157 2 0 -75z m-926 49 c3 -9 6
-38 6 -65 0 -46 -1 -49 -26 -49 -25 0 -26 2 -20 38 3 20 6 49 6 65 0 30 24 38
34 11z m76 -18 c0 -18 3 -48 6 -65 6 -29 5 -31 -22 -31 l-29 0 3 65 c3 56 6
65 23 65 15 0 19 -7 19 -34z m102 -31 l3 -65 -39 0 c-38 0 -38 1 -32 31 3 17
6 47 6 65 0 31 3 34 29 34 29 0 29 -1 33 -65z m88 0 l0 -65 -30 0 c-27 0 -30
3 -30 34 0 68 11 96 36 96 23 0 24 -3 24 -65z m289 -2 c33 -37 59 -67 58 -67
-1 -1 -73 0 -159 2 l-158 3 0 65 0 64 99 0 99 0 61 -67z m375 -124 c3 -17 6
-49 6 -70 l0 -39 -107 5 c-152 7 -418 15 -480 15 l-53 0 0 55 0 55 177 0 c154
0 179 -2 196 -17 19 -17 19 -17 13 3 -6 20 -3 21 117 23 l124 2 7 -32z m-844
-34 c0 -54 0 -55 -30 -55 -29 0 -30 1 -30 48 0 55 4 62 37 62 21 0 23 -4 23
-55z m100 0 l0 -55 -40 0 -40 0 0 55 0 55 40 0 40 0 0 -55z m88 -2 l3 -53 -35
0 -36 0 0 56 0 55 33 -3 c31 -3 32 -4 35 -55z m-268 -3 c0 -47 -2 -50 -25 -50
-23 0 -25 3 -25 50 0 47 2 50 25 50 23 0 25 -3 25 -50z"/>
</g>
</svg>
