<?xml version="1.0" standalone="no"?>
<!DOCTYPE svg PUBLIC "-//W3C//DTD SVG 20010904//EN"
 "http://www.w3.org/TR/2001/REC-SVG-20010904/DTD/svg10.dtd">
<svg version="1.0" xmlns="http://www.w3.org/2000/svg"
 width="192.000000pt" height="148.000000pt" viewBox="0 0 192.000000 148.000000"
 preserveAspectRatio="xMidYMid meet">
<metadata>
Created by potrace 1.16, written by Peter Selinger 2001-2019
</metadata>
<g transform="translate(0.000000,148.000000) scale(0.100000,-0.100000)"
fill="#000000" stroke="none">
<path d="M1333 1173 c-7 -3 -13 -9 -13 -14 0 -9 183 -283 253 -377 22 -31 29
-47 22 -57 -6 -8 -68 -98 -139 -200 -70 -102 -129 -194 -130 -203 0 -9 6 -18
14 -19 15 -3 176 237 250 373 l34 61 -38 69 c-41 73 -211 341 -230 360 -6 7
-17 10 -23 7z"/>
<path d="M302 1012 c-7 -20 5 -503 14 -531 l7 -24 391 7 c454 7 646 16 646 28
0 4 -7 8 -15 8 -12 0 -14 34 -8 255 l6 255 -74 1 c-715 13 -962 13 -967 1z
m998 -108 l0 -86 -67 6 c-38 3 -169 6 -293 7 -124 2 -233 5 -242 7 -15 4 -18
16 -18 68 0 44 4 64 13 65 15 2 403 15 520 17 l87 2 0 -86z m-930 17 c0 -27 3
-56 6 -65 4 -12 0 -16 -15 -16 -19 0 -21 6 -21 65 0 51 3 65 15 65 11 0 15
-12 15 -49z m80 -16 c0 -58 -2 -65 -20 -65 -18 0 -20 7 -20 65 0 58 2 65 20
65 18 0 20 -7 20 -65z m100 1 c0 -60 -1 -64 -25 -68 -13 -3 -27 -3 -30 0 -3 3
-5 34 -5 69 l0 63 30 0 30 0 0 -64z m90 -4 c0 -65 -1 -69 -22 -67 -21 1 -23 7
-26 68 -3 66 -2 67 23 67 24 0 25 -2 25 -68z m660 -174 l0 -81 -122 6 c-66 4
-208 7 -315 7 l-193 0 0 65 c0 60 2 65 23 66 12 1 130 5 262 8 132 4 264 8
293 9 l52 2 0 -82z m-920 -4 c0 -62 -1 -65 -22 -62 -14 2 -23 10 -22 21 0 9 1
37 2 62 2 38 5 45 22 45 18 0 20 -7 20 -66z m74 29 c12 -75 8 -93 -19 -93 -24
0 -25 2 -25 65 0 57 2 65 19 65 14 0 20 -10 25 -37z m99 -20 c3 -31 4 -60 1
-65 -6 -10 -61 -11 -67 0 -3 4 -2 33 0 65 5 54 7 57 33 57 26 0 28 -3 33 -57z
m89 7 c0 -27 1 -56 2 -62 1 -15 -42 -24 -55 -11 -4 4 -5 34 -2 66 5 52 8 57
29 57 22 0 24 -5 26 -50z m666 -174 l3 -69 -182 6 c-100 4 -244 7 -321 7
l-138 0 0 55 0 55 93 1 c50 1 186 5 302 9 116 3 217 6 225 6 11 -1 16 -17 18
-70z m-928 -1 c0 -52 -1 -55 -25 -55 -24 0 -25 3 -25 55 0 52 1 55 25 55 24 0
25 -3 25 -55z m80 0 c0 -54 0 -55 -30 -55 -30 0 -30 1 -30 55 0 54 0 55 30 55
30 0 30 -1 30 -55z m100 0 l0 -55 -40 0 -40 0 0 55 0 55 40 0 40 0 0 -55z m90
0 l0 -55 -35 0 -35 0 0 55 0 55 35 0 35 0 0 -55z"/>
</g>
</svg>
