<?xml version="1.0" standalone="no"?>
<!DOCTYPE svg PUBLIC "-//W3C//DTD SVG 20010904//EN"
 "http://www.w3.org/TR/2001/REC-SVG-20010904/DTD/svg10.dtd">
<svg version="1.0" xmlns="http://www.w3.org/2000/svg"
 width="164.000000pt" height="116.000000pt" viewBox="0 0 164.000000 116.000000"
 preserveAspectRatio="xMidYMid meet">
<metadata>
Created by potrace 1.16, written by Peter Selinger 2001-2019
</metadata>
<g transform="translate(0.000000,116.000000) scale(0.100000,-0.100000)"
fill="#000000" stroke="none">
<path d="M302 603 c3 -196 7 -265 17 -277 12 -14 63 -16 440 -16 463 0 557 5
565 27 3 8 9 124 13 259 l6 244 -24 1 c-13 0 -33 2 -44 5 -11 2 -235 7 -499
10 l-479 7 5 -260z m993 187 l0 -34 -250 2 c-243 3 -251 4 -269 25 -18 22 -18
22 10 25 41 4 454 20 484 18 22 -1 25 -6 25 -36z m-925 0 c0 -11 -7 -20 -15
-20 -8 0 -15 9 -15 20 0 11 7 20 15 20 8 0 15 -9 15 -20z m80 0 c0 -13 -7 -20
-20 -20 -13 0 -20 7 -20 20 0 13 7 20 20 20 13 0 20 -7 20 -20z m100 -6 c0
-20 -4 -25 -16 -20 -9 3 -22 6 -30 6 -8 0 -14 9 -14 20 0 16 7 20 30 20 26 0
30 -4 30 -26z m90 1 c0 -20 -5 -25 -25 -25 -20 0 -25 5 -25 25 0 20 5 25 25
25 20 0 25 -5 25 -25z m82 8 c27 -24 22 -35 -14 -31 -26 2 -33 8 -34 26 -1 26
21 29 48 5z m576 -100 l-3 -47 -205 2 -205 3 -27 30 c-16 16 -28 34 -28 39 0
6 80 11 198 13 108 1 214 3 235 5 l38 2 -3 -47z m-926 -3 c4 -24 1 -30 -14
-30 -13 0 -18 8 -18 30 0 19 5 30 14 30 8 0 16 -13 18 -30z m78 0 c0 -23 -4
-30 -20 -30 -16 0 -20 7 -20 30 0 23 4 30 20 30 16 0 20 -7 20 -30z m100 1 c0
-30 -19 -45 -45 -35 -9 4 -15 19 -15 35 0 26 4 29 30 29 26 0 30 -3 30 -29z
m90 0 c0 -23 -5 -30 -25 -33 -23 -5 -25 -2 -25 28 0 30 3 34 25 34 21 0 25 -5
25 -29z m169 -2 c13 -17 22 -32 19 -34 -2 -2 -38 -1 -81 2 -77 6 -77 6 -77 34
0 29 1 29 58 28 51 0 59 -3 81 -30z m491 -104 l0 -45 -83 0 c-46 0 -124 3
-173 6 -86 6 -91 8 -112 38 l-22 31 147 5 c82 3 169 7 196 8 l47 2 0 -45z
m-406 0 l27 -35 -125 0 -126 0 0 30 c0 28 1 29 58 33 145 9 137 10 166 -28z
m-514 -5 c0 -22 -5 -30 -18 -30 -26 0 -30 6 -24 35 7 38 42 34 42 -5z m73 8
c8 -27 1 -38 -24 -38 -14 0 -19 7 -19 30 0 23 5 30 19 30 11 0 21 -9 24 -22z
m97 -8 c0 -27 -3 -30 -30 -30 -27 0 -30 3 -30 30 0 27 3 30 30 30 27 0 30 -3
30 -30z m90 0 c0 -26 -3 -30 -29 -30 -25 0 -28 3 -27 30 1 26 5 30 29 30 23 0
27 -4 27 -30z m660 -94 c0 -19 2 -41 5 -49 5 -12 -14 -13 -122 -9 l-128 4 -32
37 c-18 20 -32 39 -33 43 0 3 70 7 155 7 l155 2 0 -35z m-920 -11 c0 -31 -3
-35 -25 -35 -22 0 -25 4 -25 35 0 31 3 35 25 35 22 0 25 -4 25 -35z m80 0 c0
-32 -2 -35 -30 -35 -28 0 -30 3 -26 28 2 15 5 30 5 35 1 4 12 7 26 7 22 0 25
-4 25 -35z m100 0 c0 -34 -1 -35 -40 -35 -39 0 -40 1 -40 35 0 34 1 35 40 35
39 0 40 -1 40 -35z m84 13 c11 -42 7 -48 -29 -48 -33 0 -35 2 -35 35 0 32 3
35 29 35 21 0 30 -6 35 -22z m347 -15 l33 -38 -25 -4 c-13 -2 -93 0 -176 4
l-153 7 0 34 0 34 144 0 144 0 33 -37z m319 -100 l0 -38 -92 3 c-87 3 -95 5
-115 30 l-23 27 48 6 c26 3 77 7 115 7 l67 2 0 -37z m-230 -5 l23 -31 -153 6
c-84 4 -182 7 -217 7 -56 0 -63 2 -63 19 0 25 16 28 221 30 l165 1 24 -32z
m-700 2 c0 -15 -7 -20 -25 -20 -18 0 -25 5 -25 20 0 15 7 20 25 20 18 0 25 -5
25 -20z m80 0 c0 -16 -7 -20 -30 -20 -23 0 -30 4 -30 20 0 16 7 20 30 20 23 0
30 -4 30 -20z m100 0 c0 -17 -7 -20 -40 -20 -33 0 -40 3 -40 20 0 17 7 20 40
20 33 0 40 -3 40 -20z m90 0 c0 -16 -7 -20 -35 -20 -28 0 -35 4 -35 20 0 16 7
20 35 20 28 0 35 -4 35 -20z"/>
</g>
</svg>
