<?xml version="1.0" standalone="no"?>
<!DOCTYPE svg PUBLIC "-//W3C//DTD SVG 20010904//EN"
 "http://www.w3.org/TR/2001/REC-SVG-20010904/DTD/svg10.dtd">
<svg version="1.0" xmlns="http://www.w3.org/2000/svg"
 width="187.000000pt" height="148.000000pt" viewBox="0 0 187.000000 148.000000"
 preserveAspectRatio="xMidYMid meet">
<metadata>
Created by potrace 1.16, written by Peter Selinger 2001-2019
</metadata>
<g transform="translate(0.000000,148.000000) scale(0.100000,-0.100000)"
fill="#000000" stroke="none">
<path d="M1280 1170 c-12 -7 8 -42 102 -182 64 -95 130 -191 146 -212 l30 -40
-53 -70 c-99 -135 -236 -347 -230 -356 3 -6 12 -10 18 -10 13 0 189 268 248
376 l33 61 -29 56 c-37 68 -238 386 -245 386 -3 1 -12 -3 -20 -9z"/>
<path d="M303 726 c3 -143 9 -272 13 -285 l7 -24 316 6 c558 12 671 18 680 36
5 9 12 127 16 262 l7 247 -204 6 c-111 3 -346 7 -522 10 l-318 3 5 -261z m987
187 l0 -36 -157 6 c-87 4 -227 7 -310 7 -153 0 -153 0 -149 23 3 24 23 25 509
35 l107 2 0 -37z m-650 2 c0 -20 -5 -25 -25 -25 -20 0 -25 5 -25 25 0 20 5 25
25 25 20 0 25 -5 25 -25z m-270 -5 c0 -11 -7 -20 -15 -20 -8 0 -15 9 -15 20 0
11 7 20 15 20 8 0 15 -9 15 -20z m80 0 c0 -13 -7 -20 -20 -20 -13 0 -20 7 -20
20 0 13 7 20 20 20 13 0 20 -7 20 -20z m100 0 c0 -16 -7 -20 -30 -20 -23 0
-30 4 -30 20 0 16 7 20 30 20 23 0 30 -4 30 -20z m749 -97 l2 -46 -158 6 c-87
4 -229 7 -315 7 l-158 0 0 35 0 35 168 3 c92 1 233 4 313 5 l145 2 3 -47z
m-927 14 c6 -30 -1 -47 -18 -47 -9 0 -14 11 -14 35 0 40 25 49 32 12z m78 -12
c0 -28 -4 -35 -20 -35 -16 0 -20 7 -20 35 0 28 4 35 20 35 16 0 20 -7 20 -35z
m100 0 c0 -32 -2 -35 -30 -35 -28 0 -30 3 -30 35 0 32 2 35 30 35 28 0 30 -3
30 -35z m90 0 c0 -31 -3 -35 -25 -35 -24 0 -27 4 -27 35 0 31 3 35 27 35 22 0
25 -4 25 -35z m660 -105 l0 -40 -163 0 c-90 0 -232 3 -315 7 l-152 6 0 28 0
28 158 4 c86 1 228 4 315 5 l157 2 0 -40z m-922 -3 c3 -23 0 -27 -21 -27 -19
0 -23 5 -21 23 1 12 3 26 3 30 2 22 36 -1 39 -26z m74 3 c4 -26 1 -30 -19 -30
-19 0 -23 5 -23 30 0 23 5 30 19 30 13 0 20 -9 23 -30z m98 0 c0 -27 -3 -30
-34 -30 -27 0 -34 4 -31 18 2 9 4 23 4 30 1 7 14 12 31 12 27 0 30 -3 30 -30z
m90 0 c0 -27 -3 -30 -30 -30 -25 0 -30 4 -30 23 0 30 7 37 37 37 19 0 23 -5
23 -30z m660 -112 l0 -51 -142 6 c-79 4 -221 7 -315 7 l-173 0 0 40 0 40 243
3 c133 1 275 3 315 5 l72 2 0 -52z m-920 -3 c0 -31 -3 -35 -25 -35 -22 0 -25
4 -25 35 0 31 3 35 25 35 22 0 25 -4 25 -35z m80 0 c0 -32 -2 -35 -30 -35 -28
0 -30 2 -27 35 2 31 5 35 30 35 24 0 27 -3 27 -35z m100 0 c0 -34 -1 -35 -40
-35 -39 0 -40 1 -40 35 0 34 1 35 40 35 39 0 40 -1 40 -35z m80 23 c0 -7 3
-23 6 -35 6 -21 3 -23 -30 -23 -34 0 -36 1 -36 35 0 32 2 35 30 35 17 0 30 -5
30 -12z m670 -125 l0 -36 -122 6 c-66 4 -210 7 -320 7 l-198 0 0 25 0 24 138
4 c75 1 219 4 320 5 l182 2 0 -37z m-930 9 c0 -25 -7 -31 -31 -25 -29 8 -25
43 6 43 18 0 25 -5 25 -18z m80 -7 c0 -21 -5 -25 -30 -25 -25 0 -30 4 -30 25
0 21 5 25 30 25 25 0 30 -4 30 -25z m100 0 c0 -22 -4 -25 -40 -25 -36 0 -40 3
-40 25 0 23 4 25 40 25 36 0 40 -2 40 -25z m90 0 c0 -22 -4 -25 -35 -25 -31 0
-35 3 -35 25 0 22 4 25 35 25 31 0 35 -3 35 -25z"/>
</g>
</svg>
