<?xml version="1.0" standalone="no"?>
<!DOCTYPE svg PUBLIC "-//W3C//DTD SVG 20010904//EN"
 "http://www.w3.org/TR/2001/REC-SVG-20010904/DTD/svg10.dtd">
<svg version="1.0" xmlns="http://www.w3.org/2000/svg"
 width="200.000000pt" height="131.000000pt" viewBox="0 0 200.000000 131.000000"
 preserveAspectRatio="xMidYMid meet">
<metadata>
Created by potrace 1.16, written by Peter Selinger 2001-2019
</metadata>
<g transform="translate(0.000000,131.000000) scale(0.100000,-0.100000)"
fill="#000000" stroke="none">
<path d="M415 938 c-71 -90 -115 -179 -115 -233 0 -74 82 -210 213 -355 58
-64 74 -60 21 6 -22 26 -64 83 -95 127 l-56 80 51 46 51 45 3 -39 c1 -22 5
-60 9 -85 l6 -45 8 40 c4 22 8 66 8 98 l1 58 57 -47 c32 -25 63 -48 69 -51 7
-2 15 -34 19 -71 3 -37 9 -77 12 -89 l5 -23 282 0 c299 0 706 16 718 28 4 4
10 123 14 264 l7 257 -149 3 c-82 2 -317 5 -521 6 l-373 3 -2 -23 c-1 -13 -3
-32 -4 -43 -1 -11 -2 -31 -3 -45 -1 -19 -16 -37 -53 -65 -85 -65 -81 -66 -77
11 3 56 1 69 -11 69 -11 0 -16 -14 -18 -58 l-3 -57 -50 42 c-37 31 -52 39 -61
30 -8 -8 0 -21 33 -51 24 -22 47 -40 52 -41 4 0 7 -5 7 -11 0 -7 -20 -10 -57
-7 -49 2 -58 0 -61 -14 -3 -16 5 -18 55 -18 l58 -1 -45 -39 c-25 -22 -48 -40
-51 -40 -12 0 -39 73 -39 109 0 61 34 125 127 238 20 25 29 44 24 52 -6 9 -26
-9 -66 -61z m1245 -43 l0 -35 -133 0 c-74 0 -215 3 -313 7 -166 5 -180 7 -180
25 0 15 9 18 66 19 36 1 148 5 250 8 102 4 213 8 248 9 l62 2 0 -35z m-930 -5
c0 -11 -7 -20 -15 -20 -8 0 -15 9 -15 20 0 11 7 20 15 20 8 0 15 -9 15 -20z
m80 0 c0 -13 -7 -20 -20 -20 -13 0 -20 7 -20 20 0 13 7 20 20 20 13 0 20 -7
20 -20z m100 0 c0 -16 -7 -20 -30 -20 -23 0 -30 4 -30 20 0 16 7 20 30 20 23
0 30 -4 30 -20z m90 0 c0 -15 -7 -20 -25 -20 -18 0 -25 5 -25 20 0 15 7 20 25
20 18 0 25 -5 25 -20z m660 -95 l0 -45 -127 0 c-71 0 -213 3 -316 7 l-188 6 3
31 3 31 235 5 c129 3 270 7 313 8 l77 2 0 -45z m-660 0 c0 -31 -3 -35 -25 -35
-21 0 -25 5 -25 28 0 33 7 42 32 42 14 0 18 -8 18 -35z m-270 -5 c0 -22 -5
-30 -18 -30 -15 0 -18 6 -14 30 2 17 10 30 18 30 9 0 14 -11 14 -30z m80 0 c0
-23 -4 -30 -20 -30 -16 0 -20 7 -20 30 0 23 4 30 20 30 16 0 20 -7 20 -30z
m100 0 c0 -27 -3 -30 -30 -30 -27 0 -30 3 -30 30 0 27 3 30 30 30 27 0 30 -3
30 -30z m-250 -30 l0 -50 -50 0 c-27 0 -50 2 -50 4 0 5 93 95 98 96 1 0 2 -22
2 -50z m1000 -77 l0 -46 -127 6 c-71 4 -213 7 -316 7 l-188 0 3 33 3 32 230 5
c127 3 267 7 313 8 l82 2 0 -47z m-660 2 c0 -32 -2 -35 -30 -35 -26 0 -30 4
-30 28 0 35 6 42 37 42 20 0 23 -5 23 -35z m-260 1 c0 -28 -11 -39 -33 -31
-21 9 -9 55 14 55 13 0 19 -7 19 -24z m70 -6 c0 -23 -4 -30 -20 -30 -16 0 -20
7 -20 30 0 23 4 30 20 30 16 0 20 -7 20 -30z m100 0 c0 -27 -3 -30 -30 -30
-27 0 -30 3 -30 30 0 27 3 30 30 30 27 0 30 -3 30 -30z m-250 -42 l0 -52 -45
44 c-24 24 -42 47 -39 52 3 4 23 8 45 8 l39 0 0 -52z m1000 -58 c0 -22 -1 -43
-2 -46 -4 -7 -212 -6 -450 2 l-178 7 0 33 0 33 148 4 c81 1 222 4 315 5 l167
2 0 -40z m-920 -5 c0 -31 -3 -35 -25 -35 -22 0 -25 4 -25 35 0 31 3 35 25 35
22 0 25 -4 25 -35z m80 0 c0 -32 -2 -35 -30 -35 -23 0 -30 5 -30 19 0 35 12
51 36 51 21 0 24 -5 24 -35z m100 0 c0 -34 -1 -35 -40 -35 -39 0 -40 1 -40 35
0 34 1 35 40 35 39 0 40 -1 40 -35z m80 23 c0 -7 3 -23 6 -35 6 -21 3 -23 -30
-23 -34 0 -36 1 -36 35 0 32 2 35 30 35 17 0 30 -5 30 -12z m670 -125 l0 -38
-217 6 c-120 4 -264 7 -320 8 -103 1 -103 1 -103 26 l0 25 238 3 c130 1 274 3
320 5 l82 2 0 -37z m-662 -1 c3 -19 -1 -22 -32 -22 -29 0 -36 4 -36 19 0 36
63 39 68 3z m-268 -2 c0 -15 -7 -20 -25 -20 -18 0 -25 5 -25 20 0 15 7 20 25
20 18 0 25 -5 25 -20z m80 0 c0 -16 -7 -20 -30 -20 -23 0 -30 4 -30 20 0 16 7
20 30 20 23 0 30 -4 30 -20z m100 0 c0 -17 -7 -20 -40 -20 -33 0 -40 3 -40 20
0 17 7 20 40 20 33 0 40 -3 40 -20z"/>
</g>
</svg>
