<?xml version="1.0" standalone="no"?>
<!DOCTYPE svg PUBLIC "-//W3C//DTD SVG 20010904//EN"
 "http://www.w3.org/TR/2001/REC-SVG-20010904/DTD/svg10.dtd">
<svg version="1.0" xmlns="http://www.w3.org/2000/svg"
 width="204.000000pt" height="131.000000pt" viewBox="0 0 204.000000 131.000000"
 preserveAspectRatio="xMidYMid meet">
<metadata>
Created by potrace 1.16, written by Peter Selinger 2001-2019
</metadata>
<g transform="translate(0.000000,131.000000) scale(0.100000,-0.100000)"
fill="#000000" stroke="none">
<path d="M416 940 c-72 -92 -116 -181 -116 -235 0 -23 12 -65 28 -100 43 -90
223 -318 238 -302 4 4 -4 20 -18 35 -14 15 -57 72 -96 126 l-69 99 51 45 51
46 3 -49 c1 -28 5 -66 9 -85 l6 -35 8 40 c4 22 8 66 8 97 l1 58 62 -50 c79
-63 96 -64 35 -2 -26 27 -44 51 -41 55 4 4 28 7 54 7 l47 0 6 -122 c4 -68 10
-134 14 -147 l6 -24 391 6 c448 8 646 16 646 29 0 4 -7 8 -16 8 -14 0 -15 26
-8 254 l7 255 -94 3 c-52 2 -213 5 -359 6 -146 2 -338 5 -427 8 l-163 5 -1
-23 c-1 -13 -1 -71 0 -130 l3 -108 -67 0 -68 0 59 54 c33 30 56 57 53 60 -3 4
-34 -16 -69 -44 -34 -27 -65 -50 -67 -50 -3 0 -3 30 -2 68 3 54 1 67 -11 67
-11 0 -16 -14 -18 -58 l-3 -57 -50 42 c-39 32 -52 39 -62 29 -9 -9 -2 -20 33
-51 25 -21 48 -39 53 -40 4 0 7 -5 7 -11 0 -7 -20 -10 -57 -7 -49 2 -58 0 -61
-14 -3 -16 5 -18 55 -18 l58 -1 -45 -39 c-25 -22 -48 -40 -51 -40 -12 0 -41
79 -41 112 0 43 31 109 82 173 65 82 72 93 68 112 -2 13 -19 -3 -62 -57z
m1262 -93 l3 -82 -133 2 c-73 2 -215 6 -315 9 l-183 6 0 38 c0 21 3 51 6 69
l6 31 197 3 c108 1 246 3 306 5 l110 2 3 -83z m-748 -3 l0 -64 -30 0 -30 0 0
63 c0 35 2 66 5 69 3 3 17 3 30 0 24 -4 25 -8 25 -68z m90 6 l0 -70 -28 0
c-24 0 -28 4 -26 23 1 12 3 43 3 70 1 43 3 47 26 47 24 0 25 -2 25 -70z m-270
-5 c0 -51 -3 -65 -15 -65 -12 0 -15 14 -15 65 0 51 3 65 15 65 12 0 15 -14 15
-65z m80 0 c0 -58 -2 -65 -20 -65 -18 0 -20 7 -20 65 0 58 2 65 20 65 18 0 20
-7 20 -65z m850 -177 l0 -81 -112 6 c-62 4 -204 7 -316 7 l-203 0 3 68 3 67
240 5 c132 3 273 7 313 8 l72 2 0 -82z m-920 -3 c0 -65 -7 -76 -38 -57 -9 6
-11 24 -6 65 6 47 10 57 25 57 17 0 19 -8 19 -65z m72 20 c1 -25 2 -53 2 -62
1 -12 -6 -18 -21 -18 -13 0 -23 3 -23 8 0 4 0 32 0 62 0 48 2 55 20 55 17 0
20 -7 22 -45z m100 -5 c0 -27 1 -56 2 -62 1 -15 -52 -24 -65 -11 -4 4 -5 34
-2 66 6 55 7 57 34 57 28 0 29 -2 31 -50z m88 -15 l0 -65 -31 0 -30 0 3 65 c2
64 3 65 30 65 28 0 28 -1 28 -65z m664 -122 c3 -21 6 -53 6 -72 l0 -34 -187 6
c-104 4 -248 7 -320 7 l-133 0 0 55 0 55 93 1 c118 2 508 15 523 17 6 1 14
-15 18 -35z m-924 -38 c0 -52 -1 -55 -25 -55 -24 0 -25 3 -25 55 0 52 1 55 25
55 24 0 25 -3 25 -55z m80 0 c0 -54 0 -55 -30 -55 -30 0 -30 1 -30 55 0 54 0
55 30 55 30 0 30 -1 30 -55z m100 0 l0 -55 -40 0 -40 0 0 55 0 55 40 0 40 0 0
-55z m90 0 l0 -55 -35 0 -35 0 0 55 0 55 35 0 35 0 0 -55z"/>
</g>
</svg>
