<?xml version="1.0" standalone="no"?>
<!DOCTYPE svg PUBLIC "-//W3C//DTD SVG 20010904//EN"
 "http://www.w3.org/TR/2001/REC-SVG-20010904/DTD/svg10.dtd">
<svg version="1.0" xmlns="http://www.w3.org/2000/svg"
 width="177.000000pt" height="165.000000pt" viewBox="0 0 177.000000 165.000000"
 preserveAspectRatio="xMidYMid meet">
<metadata>
Created by potrace 1.16, written by Peter Selinger 2001-2019
</metadata>
<g transform="translate(0.000000,165.000000) scale(0.100000,-0.100000)"
fill="#000000" stroke="none">
<path d="M887 1343 c-4 -3 -7 -44 -7 -90 0 -79 -1 -83 -22 -84 -13 0 -50 -4
-83 -8 -58 -7 -60 -7 -100 29 -77 70 -133 111 -139 102 -3 -5 -6 -41 -7 -80
-1 -40 -4 -72 -6 -72 -2 0 -48 31 -101 70 -53 38 -101 68 -106 67 -13 -4 -19
-348 -7 -366 12 -18 23 -11 147 89 l88 70 63 0 63 0 0 -84 c0 -133 -14 -137
243 66 17 13 33 16 70 11 l48 -6 -2 -94 c-1 -51 1 -96 4 -99 6 -7 99 61 189
138 l57 49 78 -3 78 -3 3 -227 2 -228 -79 0 -79 0 -77 64 c-42 35 -97 78 -121
96 -54 38 -57 34 -52 -83 l3 -85 -50 -5 c-46 -5 -53 -2 -95 32 -25 21 -78 63
-118 94 -67 51 -75 55 -89 41 -13 -12 -15 -31 -10 -95 l5 -79 -66 0 -67 0 -75
61 c-96 79 -149 114 -158 105 -9 -9 -10 -354 -1 -368 6 -10 90 41 170 104 20
15 40 28 43 28 3 0 6 -33 6 -74 0 -41 4 -77 8 -80 5 -3 49 27 98 67 l89 73 75
-9 c41 -4 76 -9 77 -10 1 -2 3 -40 5 -85 4 -102 9 -103 102 -25 37 32 78 66
90 76 20 16 32 17 191 4 98 -8 177 -10 187 -5 16 7 17 40 18 386 0 350 -1 378
-17 388 -13 7 -67 7 -190 -3 l-172 -14 -93 81 c-95 82 -100 85 -111 73z m93
-95 c38 -29 67 -54 64 -57 -3 -3 -34 -8 -69 -11 l-63 -5 -6 44 c-7 54 -8 81
-1 81 3 0 37 -23 75 -52z m-332 -68 c29 -21 31 -25 15 -32 -10 -3 -39 -7 -65
-7 l-48 -1 0 56 0 56 33 -24 c17 -13 47 -35 65 -48z m-206 -17 c54 -34 88 -62
86 -70 -2 -8 -45 -44 -95 -79 l-93 -64 -1 37 c-1 21 -4 84 -8 141 -7 119 -17
116 111 35z m988 -34 l0 -70 -42 5 c-71 10 -375 35 -506 42 -67 4 -125 10
-127 14 -2 4 72 15 166 25 129 14 173 15 181 7 16 -16 31 -15 25 2 -4 11 19
16 111 26 64 6 124 13 132 14 58 13 60 11 60 -65z m-707 -16 c-7 -2 -19 -2
-25 0 -7 3 -2 5 12 5 14 0 19 -2 13 -5z m175 -49 c-12 -11 -192 -134 -194
-131 -1 1 -5 32 -9 70 l-7 67 108 0 c59 0 105 -3 102 -6z m352 -13 c-1 -3 -42
-34 -93 -68 -104 -71 -104 -71 -106 30 l-1 48 100 -2 c55 -1 100 -5 100 -8z
m-90 -393 c55 -40 84 -66 77 -70 -7 -4 -52 -8 -101 -8 l-89 0 7 53 c3 28 6 60
6 70 0 9 2 17 5 17 3 0 46 -28 95 -62z m-350 -18 l94 -65 -103 -3 c-57 -1
-105 -1 -106 0 -5 7 8 139 14 136 4 -2 49 -32 101 -68z m-285 -95 c0 -17 -182
-141 -192 -131 -3 2 -1 65 2 140 l8 135 91 -63 c55 -39 91 -71 91 -81z m925
-35 c0 -49 -4 -70 -12 -70 -7 0 -81 7 -165 17 -119 13 -150 19 -146 30 4 11 1
12 -20 2 -21 -9 -60 -8 -187 6 -88 10 -160 21 -160 25 0 3 89 12 198 19 108 7
251 19 317 26 195 20 175 27 175 -55z m-727 13 c-7 -2 -19 -2 -25 0 -7 3 -2 5
12 5 14 0 19 -2 13 -5z m-60 -31 c14 -6 6 -16 -44 -55 -34 -26 -64 -45 -67
-43 -2 3 -1 28 3 55 l7 51 41 -1 c23 0 50 -4 60 -7z m380 -41 c4 -4 -25 -31
-63 -60 -39 -30 -72 -52 -74 -50 -2 2 -1 31 1 64 l5 60 62 -3 c33 -2 64 -7 69
-11z"/>
</g>
</svg>
