<?xml version="1.0" standalone="no"?>
<!DOCTYPE svg PUBLIC "-//W3C//DTD SVG 20010904//EN"
 "http://www.w3.org/TR/2001/REC-SVG-20010904/DTD/svg10.dtd">
<svg version="1.0" xmlns="http://www.w3.org/2000/svg"
 width="180.000000pt" height="125.000000pt" viewBox="0 0 180.000000 125.000000"
 preserveAspectRatio="xMidYMid meet">
<metadata>
Created by potrace 1.16, written by Peter Selinger 2001-2019
</metadata>
<g transform="translate(0.000000,125.000000) scale(0.100000,-0.100000)"
fill="#000000" stroke="none">
<path d="M300 803 c0 -82 4 -195 10 -253 5 -58 12 -134 15 -169 3 -35 7 -66 9
-68 5 -5 192 75 289 124 60 30 74 33 117 27 42 -5 58 -2 104 20 49 24 64 26
146 24 l91 -3 40 -103 c23 -56 44 -102 49 -102 4 0 -5 44 -21 98 -16 53 -29
100 -29 105 0 4 22 7 48 7 l48 0 34 -107 c39 -125 49 -119 21 12 -11 49 -18
91 -16 93 2 2 58 6 124 9 67 3 121 10 121 14 0 5 -4 9 -8 9 -10 0 -7 174 3
190 7 12 16 11 -160 19 l-139 6 -13 45 c-6 25 -17 64 -23 88 -8 31 -16 42 -30
42 -25 0 -25 -17 -1 -103 l18 -67 -23 -1 c-13 -1 -33 -1 -44 -1 -11 0 -26 0
-33 1 -8 1 -24 34 -37 76 -18 56 -28 75 -41 75 -29 0 -30 -15 -5 -84 l24 -66
-53 0 c-31 0 -71 8 -98 20 -31 14 -64 20 -99 18 -47 -1 -72 7 -220 75 -92 42
-179 77 -193 77 l-25 0 0 -147z m156 51 c60 -25 133 -55 162 -66 44 -16 51
-22 38 -31 -30 -25 -56 -82 -56 -128 0 -33 8 -58 30 -92 27 -43 28 -48 12 -54
-9 -3 -77 -30 -151 -60 -73 -30 -136 -52 -139 -49 -7 7 -17 526 -10 526 3 0
54 -21 114 -46z m988 -179 c3 -25 9 -66 12 -92 l7 -46 -69 6 c-38 4 -88 7
-110 7 l-42 0 -16 71 c-9 39 -16 75 -16 79 0 14 29 18 131 19 l97 1 6 -45z
m-415 -32 c13 -38 26 -74 29 -80 3 -10 -14 -13 -68 -13 -67 0 -71 1 -65 20 9
27 9 92 0 118 -6 20 -3 22 37 22 l43 0 24 -67z m145 15 c33 -116 35 -108 -21
-108 l-49 0 -26 80 -26 80 53 0 54 0 15 -52z"/>
</g>
</svg>
