<?xml version="1.0" standalone="no"?>
<!DOCTYPE svg PUBLIC "-//W3C//DTD SVG 20010904//EN"
 "http://www.w3.org/TR/2001/REC-SVG-20010904/DTD/svg10.dtd">
<svg version="1.0" xmlns="http://www.w3.org/2000/svg"
 width="165.000000pt" height="168.000000pt" viewBox="0 0 165.000000 168.000000"
 preserveAspectRatio="xMidYMid meet">
<metadata>
Created by potrace 1.16, written by Peter Selinger 2001-2019
</metadata>
<g transform="translate(0.000000,168.000000) scale(0.100000,-0.100000)"
fill="#000000" stroke="none">
<path d="M721 1371 c-10 -6 -15 -41 -19 -123 l-5 -114 -62 -33 c-57 -29 -65
-38 -89 -90 l-26 -58 -110 5 -111 5 3 -119 3 -119 106 3 106 4 20 -34 c38 -64
104 -139 136 -154 l32 -15 -4 -115 -3 -114 33 0 c19 0 64 3 100 6 l67 7 12
109 c12 101 15 111 39 125 84 51 132 85 127 90 -3 3 3 22 14 43 22 43 43 50
154 50 80 0 117 13 66 24 -18 3 -65 6 -104 6 l-72 0 0 80 c1 44 1 80 1 80 0 0
44 3 98 7 l97 6 1 -44 c0 -24 4 -64 8 -89 7 -39 9 -32 10 47 1 57 -3 94 -10
99 -6 3 -57 9 -115 12 -90 4 -104 7 -110 24 -10 32 -78 92 -144 127 -62 33
-62 34 -56 70 3 20 9 73 12 119 l7 82 -99 0 c-54 0 -105 -4 -113 -9z m175 -27
c-3 -9 -6 -56 -6 -105 l0 -90 -48 7 c-26 3 -65 1 -86 -4 l-38 -11 6 32 c4 18
9 64 13 104 7 81 3 78 112 82 45 1 52 -2 47 -15z m25 -250 c72 -21 145 -59
147 -76 0 -7 11 -40 22 -73 26 -70 23 -122 -13 -237 l-22 -73 -85 -43 c-80
-40 -89 -43 -155 -39 -40 2 -94 13 -126 26 -53 20 -59 26 -92 89 -63 119 -66
196 -12 318 20 45 31 57 77 80 29 15 64 30 78 35 43 13 124 10 181 -7z m-416
-251 l0 -88 -94 3 -93 3 6 37 c3 20 6 56 6 79 0 41 1 42 38 46 20 2 60 4 87 5
l50 2 0 -87z m375 -420 l0 -93 -81 0 c-79 0 -81 1 -76 23 3 12 9 54 12 92 l7
70 69 0 69 0 0 -92z"/>
<path d="M776 978 c4 -43 2 -89 -5 -113 l-10 -40 -61 3 c-51 3 -60 1 -60 -13
0 -14 9 -16 57 -14 l57 3 14 -69 c17 -89 36 -121 25 -45 -9 66 -9 120 2 216 8
76 1 144 -16 144 -6 0 -7 -27 -3 -72z"/>
<path d="M866 980 c5 -46 2 -90 -6 -125 -11 -44 -11 -68 -1 -123 16 -90 35
-119 24 -37 -10 77 -9 126 3 195 l9 55 63 3 c44 2 62 7 59 15 -3 8 -24 11 -65
9 -60 -4 -62 -3 -62 21 0 32 -9 57 -21 57 -5 0 -6 -31 -3 -70z"/>
</g>
</svg>
