<?xml version="1.0" standalone="no"?>
<!DOCTYPE svg PUBLIC "-//W3C//DTD SVG 20010904//EN"
 "http://www.w3.org/TR/2001/REC-SVG-20010904/DTD/svg10.dtd">
<svg version="1.0" xmlns="http://www.w3.org/2000/svg"
 width="165.000000pt" height="168.000000pt" viewBox="0 0 165.000000 168.000000"
 preserveAspectRatio="xMidYMid meet">
<metadata>
Created by potrace 1.16, written by Peter Selinger 2001-2019
</metadata>
<g transform="translate(0.000000,168.000000) scale(0.100000,-0.100000)"
fill="#000000" stroke="none">
<path d="M721 1371 c-10 -6 -15 -41 -19 -123 l-5 -114 -62 -33 c-57 -29 -65
-38 -89 -90 l-26 -58 -110 5 -111 5 3 -119 3 -119 106 3 106 4 20 -34 c38 -64
104 -139 136 -154 l32 -15 -4 -115 -3 -114 33 0 c19 0 64 3 100 6 l66 7 14
110 14 110 70 42 c38 24 73 49 76 56 4 8 14 32 23 54 l17 40 97 3 c53 2 106 6
117 9 18 6 18 7 -5 14 -14 4 -61 7 -106 8 l-80 1 0 80 c1 44 1 80 1 80 0 0 44
3 98 7 l97 6 1 -44 c0 -24 4 -64 8 -89 7 -39 9 -32 10 47 1 57 -3 94 -10 99
-6 3 -57 9 -115 12 -90 4 -104 7 -110 24 -10 32 -78 92 -144 127 -62 33 -62
34 -56 70 3 20 9 73 12 119 l7 82 -99 0 c-54 0 -105 -4 -113 -9z m175 -27 c-3
-9 -6 -56 -6 -105 l0 -90 -48 7 c-26 3 -65 1 -86 -4 l-38 -11 6 32 c4 18 9 64
13 104 7 81 3 78 112 82 45 1 52 -2 47 -15z m35 -253 c77 -26 135 -57 137 -73
0 -7 11 -40 22 -73 25 -67 23 -113 -7 -218 l-18 -62 -5 130 -5 130 -45 6 c-25
3 -68 17 -97 32 -31 16 -54 23 -58 17 -4 -6 13 -19 37 -29 l43 -20 -46 0 c-30
-1 -67 8 -103 25 -66 30 -99 27 -41 -4 l40 -21 -38 -1 c-21 0 -59 11 -87 25
-55 28 -63 30 -58 14 2 -7 24 -20 48 -29 l45 -17 -53 -23 c-28 -12 -52 -27
-52 -32 0 -11 31 -2 84 24 25 13 62 21 102 22 67 1 73 -6 19 -24 -19 -6 -35
-16 -35 -21 0 -15 18 -11 73 18 37 18 73 27 123 31 l71 4 6 -53 c4 -30 7 -84
7 -121 l0 -68 -51 0 c-36 0 -49 4 -46 13 2 6 13 11 24 9 11 -1 30 2 44 7 21 8
17 10 -23 10 -44 1 -48 3 -48 26 0 23 4 25 45 25 25 0 45 5 45 10 0 6 -20 10
-45 10 l-45 0 0 60 c0 33 -4 60 -10 60 -6 0 -10 -48 -10 -125 l0 -125 59 0
c44 0 60 -4 65 -16 4 -12 -14 -25 -80 -56 -80 -37 -92 -40 -153 -36 -36 3 -91
15 -122 27 -53 20 -59 26 -92 89 -51 96 -59 143 -42 224 23 113 45 144 128
184 85 40 161 45 248 15z m-426 -248 l0 -88 -94 3 -93 3 6 37 c3 20 6 56 6 79
0 41 1 42 38 46 20 2 60 4 87 5 l50 2 0 -87z m375 -420 l0 -93 -81 0 c-79 0
-81 1 -76 23 3 12 9 54 12 92 l7 70 69 0 69 0 0 -92z"/>
</g>
</svg>
