<?xml version="1.0" standalone="no"?>
<!DOCTYPE svg PUBLIC "-//W3C//DTD SVG 20010904//EN"
 "http://www.w3.org/TR/2001/REC-SVG-20010904/DTD/svg10.dtd">
<svg version="1.0" xmlns="http://www.w3.org/2000/svg"
 width="165.000000pt" height="168.000000pt" viewBox="0 0 165.000000 168.000000"
 preserveAspectRatio="xMidYMid meet">
<metadata>
Created by potrace 1.16, written by Peter Selinger 2001-2019
</metadata>
<g transform="translate(0.000000,168.000000) scale(0.100000,-0.100000)"
fill="#000000" stroke="none">
<path d="M721 1371 c-10 -6 -15 -41 -19 -123 l-5 -114 -62 -33 c-57 -29 -65
-38 -89 -90 l-26 -58 -110 5 -111 5 3 -119 3 -118 100 3 c55 1 102 4 104 6 2
3 20 -22 41 -53 50 -78 95 -127 128 -141 l27 -11 -4 -115 -3 -115 33 0 c19 0
64 3 100 6 l66 7 14 110 14 110 77 46 c43 25 76 51 74 56 -2 6 5 26 15 46 21
42 43 49 153 49 80 0 117 13 66 24 -18 3 -65 6 -104 6 l-72 0 0 80 c1 44 1 80
1 80 0 0 44 3 98 6 l97 6 1 -43 c0 -24 4 -64 8 -89 7 -39 9 -32 10 47 1 57 -3
94 -10 99 -6 3 -57 9 -115 12 -90 4 -104 7 -110 24 -10 32 -78 92 -144 127
-62 33 -62 34 -56 70 3 20 9 73 12 119 l7 82 -99 0 c-54 0 -105 -4 -113 -9z
m175 -27 c-3 -9 -6 -56 -6 -105 l0 -90 -48 7 c-26 3 -65 1 -86 -4 l-38 -11 6
32 c4 18 9 64 13 104 7 81 3 78 112 82 45 1 52 -2 47 -15z m25 -250 c61 -18
154 -63 146 -70 -3 -3 4 -27 16 -52 29 -66 28 -164 -4 -262 l-24 -75 -85 -43
c-80 -40 -89 -43 -155 -39 -40 2 -94 13 -126 26 -53 20 -59 26 -92 89 -63 120
-66 196 -12 319 22 50 29 56 97 88 84 40 149 45 239 19z m-416 -251 l0 -88
-94 3 -93 3 6 37 c3 20 6 56 6 79 0 41 1 42 38 46 20 2 60 4 87 5 l50 2 0 -87z
m375 -420 l0 -93 -81 0 c-79 0 -81 1 -76 23 3 12 9 54 12 92 l7 70 69 0 69 0
0 -92z"/>
<path d="M685 921 c-38 -26 -82 -65 -97 -87 -25 -34 -27 -43 -18 -75 12 -43
55 -86 92 -93 41 -7 87 9 258 87 85 39 156 71 158 73 4 2 -28 114 -32 114 -2
0 -50 -18 -107 -39 l-104 -39 -28 54 c-15 30 -33 54 -40 54 -6 -1 -43 -22 -82
-49z m155 -97 c3 11 44 33 99 56 81 33 93 36 97 22 3 -10 10 -27 15 -40 10
-25 6 -27 -211 -120 -47 -20 -86 -40 -88 -44 -5 -12 -90 -10 -113 2 -19 10
-54 68 -46 76 2 2 10 -7 17 -21 16 -30 47 -40 93 -31 61 12 62 17 23 94 -20
39 -36 74 -36 77 0 2 17 16 38 29 l37 24 34 -71 c25 -51 36 -65 41 -53z m-132
-16 c34 -61 31 -68 -27 -68 -29 0 -49 17 -71 59 -12 23 -10 27 21 53 37 31 35
33 77 -44z"/>
</g>
</svg>
