<?xml version="1.0" standalone="no"?>
<!DOCTYPE svg PUBLIC "-//W3C//DTD SVG 20010904//EN"
 "http://www.w3.org/TR/2001/REC-SVG-20010904/DTD/svg10.dtd">
<svg version="1.0" xmlns="http://www.w3.org/2000/svg"
 width="206.000000pt" height="244.000000pt" viewBox="0 0 206.000000 244.000000"
 preserveAspectRatio="xMidYMid meet">
<metadata>
Created by potrace 1.16, written by Peter Selinger 2001-2019
</metadata>
<g transform="translate(0.000000,244.000000) scale(0.100000,-0.100000)"
fill="#000000" stroke="none">
<path d="M925 2122 c-93 -35 -233 -121 -215 -132 38 -23 -253 -45 -348 -26
-42 8 -44 7 -40 -15 4 -30 30 -37 139 -38 111 -1 234 33 333 93 142 86 225
103 331 66 85 -29 185 -90 185 -113 0 -12 16 -25 48 -40 40 -19 64 -22 167
-22 112 1 235 18 235 33 0 4 -73 7 -162 7 -192 0 -218 7 -330 91 -145 108
-239 134 -343 96z"/>
<path d="M710 1875 l0 -28 94 7 c183 14 191 33 17 43 l-111 6 0 -28z"/>
<path d="M1020 1875 l0 -28 88 7 c188 15 198 33 24 43 l-112 6 0 -28z"/>
<path d="M710 1764 l0 -27 83 7 c108 9 157 17 157 26 0 8 -109 20 -187 20 -51
0 -53 -1 -53 -26z"/>
<path d="M1020 1765 l0 -28 83 7 c192 16 204 34 28 43 l-111 6 0 -28z"/>
<path d="M710 1663 l0 -26 112 6 c178 11 166 30 -24 41 l-88 5 0 -26z"/>
<path d="M1020 1663 l0 -26 112 6 c178 11 164 28 -34 41 l-78 6 0 -27z"/>
<path d="M1425 1623 c-79 -22 -124 -45 -127 -66 -3 -25 -82 -76 -166 -107
-104 -39 -202 -19 -335 70 -86 57 -158 79 -287 86 -125 7 -184 -4 -188 -34 -4
-25 3 -26 79 -11 33 6 102 8 177 4 116 -7 125 -9 145 -32 29 -33 125 -98 190
-129 107 -50 205 -25 355 90 110 83 175 101 354 93 76 -3 138 -2 138 2 0 21
-280 50 -335 34z"/>
<path d="M920 1036 c-25 -7 -79 -30 -120 -52 -65 -34 -78 -46 -100 -88 l-25
-48 -188 5 -188 5 3 -170 3 -171 182 5 183 5 26 -41 c71 -108 107 -143 169
-165 41 -15 83 -21 135 -21 66 0 83 4 143 35 81 42 161 95 153 102 -3 3 3 22
14 43 l19 37 202 6 c117 4 207 11 213 17 7 7 6 10 -2 10 -15 0 -16 258 0 277
6 7 9 13 7 14 -2 0 -96 4 -208 9 -170 7 -206 11 -213 24 -5 9 -17 16 -27 16
-17 0 -17 -5 7 -62 37 -90 35 -173 -7 -301 l-32 -97 -57 -29 c-31 -16 -85 -39
-119 -51 -57 -21 -68 -22 -123 -11 -33 7 -88 23 -122 35 -59 23 -63 26 -97 92
-49 98 -50 99 -61 149 -12 55 6 159 44 240 22 48 32 57 85 85 34 17 88 37 120
46 52 13 67 13 129 0 39 -8 104 -30 146 -50 86 -39 100 -33 29 12 -130 83
-238 113 -323 88z m-264 -238 c-21 -79 -28 -151 -17 -193 6 -24 11 -45 11 -47
0 -2 -72 -2 -161 0 l-161 3 6 31 c3 17 6 73 6 124 l0 93 108 4 c59 1 131 4
161 5 51 2 53 1 47 -20z m1042 -110 c6 -72 11 -132 9 -133 -1 0 -82 1 -180 3
-178 4 -179 4 -172 26 13 39 17 152 7 189 l-10 36 116 4 c65 1 140 4 167 5
l51 2 12 -132z"/>
<path d="M740 814 c0 -25 1 -25 53 -20 28 3 82 8 120 11 37 4 67 10 67 14 0
10 -100 21 -181 21 -57 0 -59 -1 -59 -26z"/>
<path d="M1044 818 c3 -21 8 -23 67 -20 98 4 169 13 169 21 0 10 -86 21 -172
21 -65 0 -68 -1 -64 -22z"/>
<path d="M740 725 l0 -28 99 6 c180 12 183 32 6 43 l-105 7 0 -28z"/>
<path d="M1046 742 c-3 -5 -3 -18 1 -27 5 -16 17 -17 105 -11 178 12 179 31 4
42 -68 4 -105 3 -110 -4z"/>
<path d="M740 605 l0 -28 94 7 c183 14 191 33 17 43 l-111 6 0 -28z"/>
<path d="M1042 609 c3 -23 5 -24 83 -22 196 4 216 30 31 40 l-118 6 4 -24z"/>
</g>
</svg>
