<?xml version="1.0" standalone="no"?>
<!DOCTYPE svg PUBLIC "-//W3C//DTD SVG 20010904//EN"
 "http://www.w3.org/TR/2001/REC-SVG-20010904/DTD/svg10.dtd">
<svg version="1.0" xmlns="http://www.w3.org/2000/svg"
 width="165.000000pt" height="169.000000pt" viewBox="0 0 165.000000 169.000000"
 preserveAspectRatio="xMidYMid meet">
<metadata>
Created by potrace 1.16, written by Peter Selinger 2001-2019
</metadata>
<g transform="translate(0.000000,169.000000) scale(0.100000,-0.100000)"
fill="#000000" stroke="none">
<path d="M725 1371 c-6 -19 18 -88 55 -161 l20 -39 -42 -12 c-57 -15 -152 -64
-178 -91 -11 -12 -32 -60 -47 -107 -15 -47 -28 -87 -28 -89 -1 -1 -43 19 -94
44 -64 32 -96 43 -103 36 -11 -11 -2 -180 11 -201 6 -9 31 -3 96 23 49 20 89
35 90 33 0 -1 7 -20 14 -42 17 -49 68 -127 116 -177 25 -27 53 -43 93 -54 31
-9 58 -18 60 -19 2 -2 -4 -20 -13 -41 -34 -79 -54 -145 -48 -160 4 -12 24 -15
105 -13 85 2 99 5 95 18 -3 9 -18 57 -35 108 l-30 92 28 6 c15 3 61 26 103 50
68 40 78 50 101 101 14 31 31 74 38 96 14 46 11 46 133 -1 92 -36 85 -34 85
-22 0 6 -41 30 -90 55 -50 25 -89 49 -88 53 2 6 153 73 164 73 2 0 5 -21 7
-47 3 -47 3 -47 5 10 2 68 5 67 -109 31 -45 -14 -85 -22 -88 -17 -4 4 -15 34
-25 66 -13 44 -21 57 -37 57 -16 0 -18 -3 -9 -19 5 -11 10 -22 10 -25 0 -3
-29 -3 -65 1 l-65 6 0 -57 c0 -47 -3 -56 -17 -56 -10 0 -78 -5 -151 -11 -130
-12 -134 -11 -183 11 -54 26 -53 21 -19 110 20 51 54 79 138 111 81 30 163 23
270 -23 45 -20 82 -32 82 -28 0 13 -132 87 -188 105 -29 10 -51 20 -49 24 29
53 87 183 87 195 0 14 -15 16 -99 16 -89 0 -100 -2 -106 -19z m162 -13 c-2 -7
-19 -53 -38 -101 l-33 -89 -17 59 c-9 32 -22 71 -28 86 -15 39 -14 45 12 50
52 10 109 7 104 -5z m173 -398 c0 -5 -18 -10 -40 -10 -22 0 -40 4 -40 8 0 4
18 9 40 10 23 2 40 -2 40 -8z m50 -43 c8 -43 8 -66 -4 -113 l-14 -59 -1 113
c-1 61 1 112 3 112 3 0 10 -24 16 -53z m-46 7 c3 -9 6 -54 6 -101 0 -64 -3
-84 -12 -81 -7 3 -88 24 -180 48 -92 24 -166 45 -165 46 1 1 54 7 117 14 141
14 150 16 150 41 0 15 8 19 43 21 l42 1 -42 4 c-54 5 -57 23 -4 23 26 0 41 -5
45 -16z m-629 -50 c42 -15 72 -30 68 -34 -4 -4 -37 -16 -73 -28 -36 -11 -73
-24 -82 -27 -16 -6 -18 0 -18 60 0 54 3 66 14 62 8 -3 49 -18 91 -33z m175
-15 l34 -21 -24 -13 c-14 -7 -35 -16 -47 -19 -21 -7 -23 -4 -23 27 0 53 9 57
60 26z m43 -56 c-18 -9 -33 -20 -33 -25 0 -12 6 -10 51 13 22 11 46 18 52 16
7 -2 0 -10 -15 -17 -16 -7 -28 -17 -28 -22 0 -12 6 -10 48 11 22 11 45 16 56
12 17 -6 15 -9 -12 -20 -18 -8 -32 -17 -32 -22 0 -13 6 -11 50 11 22 11 44 20
50 20 20 0 10 -17 -17 -30 -16 -7 -23 -15 -16 -17 6 -2 25 3 42 11 16 9 43 16
58 15 27 -1 27 -1 -9 -17 -21 -10 -38 -20 -38 -24 0 -13 19 -9 61 13 23 11 48
17 57 14 13 -5 10 -10 -15 -20 -18 -8 -33 -19 -33 -25 0 -15 11 -13 48 10 35
21 68 25 91 11 12 -8 12 -15 0 -48 -17 -43 -54 -68 -159 -104 -65 -22 -69 -22
-132 -7 -109 27 -137 46 -174 113 -34 62 -54 122 -38 112 5 -3 25 3 44 14 19
10 44 18 55 18 15 0 12 -4 -12 -16z m211 -392 c20 -45 36 -83 36 -84 0 -1 -36
-2 -80 -3 -44 0 -79 3 -78 6 12 30 82 169 84 167 2 -1 19 -40 38 -86z"/>
</g>
</svg>
