<?xml version="1.0" standalone="no"?>
<!DOCTYPE svg PUBLIC "-//W3C//DTD SVG 20010904//EN"
 "http://www.w3.org/TR/2001/REC-SVG-20010904/DTD/svg10.dtd">
<svg version="1.0" xmlns="http://www.w3.org/2000/svg"
 width="165.000000pt" height="168.000000pt" viewBox="0 0 165.000000 168.000000"
 preserveAspectRatio="xMidYMid meet">
<metadata>
Created by potrace 1.16, written by Peter Selinger 2001-2019
</metadata>
<g transform="translate(0.000000,168.000000) scale(0.100000,-0.100000)"
fill="#000000" stroke="none">
<path d="M721 1371 c-10 -6 -15 -41 -19 -123 l-5 -114 -62 -33 c-57 -29 -65
-38 -89 -90 l-26 -58 -110 5 -111 5 3 -119 3 -118 106 3 105 2 37 -54 c51 -78
92 -123 125 -136 l27 -11 -4 -115 -3 -115 33 0 c19 0 64 3 100 6 l66 7 14 110
14 110 77 46 c43 25 76 51 74 56 -2 6 5 26 15 46 21 42 43 49 153 49 80 0 117
13 66 24 -18 3 -65 6 -104 6 l-72 0 0 80 c1 44 1 80 1 80 0 0 44 3 98 6 l97 6
1 -43 c0 -24 4 -64 8 -89 7 -39 9 -32 10 47 1 57 -3 94 -10 99 -6 3 -57 9
-115 12 -90 4 -104 7 -110 24 -10 32 -78 92 -144 127 -62 33 -62 34 -56 70 3
20 9 73 12 119 l7 82 -99 0 c-54 0 -105 -4 -113 -9z m175 -27 c-3 -9 -6 -56
-6 -105 l0 -90 -48 7 c-26 3 -65 1 -86 -4 l-38 -11 6 32 c4 18 9 64 13 104 7
81 3 78 112 82 45 1 52 -2 47 -15z m25 -250 c72 -21 145 -59 147 -76 0 -7 11
-40 22 -73 26 -70 23 -122 -13 -237 l-22 -73 -85 -42 c-64 -32 -97 -43 -133
-43 l-47 0 71 82 c116 134 132 183 86 261 -40 67 -168 200 -181 187 -7 -7 7
-27 47 -68 l57 -58 -27 -16 c-50 -30 -113 -89 -113 -107 0 -21 50 -69 105
-101 22 -13 42 -25 44 -26 1 -2 -22 -36 -53 -78 l-57 -75 -52 19 c-29 10 -59
21 -69 25 -21 8 -84 128 -97 185 -12 53 1 131 34 206 20 45 31 57 77 80 29 15
64 30 78 35 43 13 124 10 181 -7z m-416 -251 l0 -88 -94 3 -93 3 6 37 c3 20 6
56 6 79 0 41 1 42 38 46 20 2 60 4 87 5 l50 2 0 -87z m413 52 c12 -19 22 -46
22 -60 0 -21 -31 -97 -46 -114 -11 -12 -134 90 -134 110 0 11 112 99 125 99 6
0 20 -16 33 -35z m-38 -472 l0 -93 -81 0 c-79 0 -81 1 -76 23 3 12 9 54 12 92
l7 70 69 0 69 0 0 -92z"/>
</g>
</svg>
