<?xml version="1.0" standalone="no"?>
<!DOCTYPE svg PUBLIC "-//W3C//DTD SVG 20010904//EN"
 "http://www.w3.org/TR/2001/REC-SVG-20010904/DTD/svg10.dtd">
<svg version="1.0" xmlns="http://www.w3.org/2000/svg"
 width="165.000000pt" height="301.000000pt" viewBox="0 0 165.000000 301.000000"
 preserveAspectRatio="xMidYMid meet">
<metadata>
Created by potrace 1.16, written by Peter Selinger 2001-2019
</metadata>
<g transform="translate(0.000000,301.000000) scale(0.100000,-0.100000)"
fill="#000000" stroke="none">
<path d="M721 2701 c-9 -6 -15 -41 -19 -119 l-5 -110 -63 -17 c-36 -10 -64
-23 -64 -30 0 -7 -6 -15 -14 -18 -8 -3 -17 -25 -21 -49 -13 -84 -3 -78 -126
-71 l-110 6 2 -122 2 -123 108 7 108 7 11 -43 c21 -76 62 -179 72 -179 6 0 8
7 4 15 -6 18 -9 18 51 5 l48 -11 0 -112 0 -112 40 3 c22 1 66 5 97 8 l57 6 6
66 c16 152 11 143 90 164 39 10 78 16 87 14 20 -5 25 6 34 82 3 33 9 64 13 70
3 6 52 14 109 18 56 4 102 10 102 14 0 9 -86 20 -155 20 l-50 0 3 80 c3 79 4
80 30 80 15 0 57 3 95 7 l67 6 1 -44 c0 -24 4 -64 8 -89 7 -39 9 -32 10 47 0
50 -3 94 -7 97 -5 3 -54 8 -109 12 l-101 7 -7 52 c-6 52 -27 96 -40 83 -4 -3
-2 -23 4 -45 19 -63 24 -231 12 -353 -7 -63 -13 -115 -14 -117 -1 -1 -59 -12
-129 -24 -126 -22 -128 -22 -235 -5 -59 10 -115 22 -125 27 -23 12 -51 143
-52 239 0 90 22 236 38 249 6 5 43 19 81 31 92 29 210 29 319 1 92 -24 86 -23
86 -12 0 4 -36 19 -81 32 l-81 24 6 35 c3 19 9 72 12 118 l7 82 -99 0 c-54 0
-105 -4 -113 -9z m175 -27 c-3 -9 -6 -55 -6 -102 l0 -87 -86 0 c-80 0 -85 1
-80 20 3 11 9 55 12 97 8 87 2 83 118 86 40 2 47 -1 42 -14z m-380 -504 l-1
-89 -95 6 c-52 3 -96 6 -96 7 -1 1 1 36 3 78 l6 77 51 4 c28 2 69 4 92 5 l41
2 -1 -90z m364 -414 l0 -94 -77 -4 c-43 -2 -79 -3 -80 -3 -1 1 3 42 9 93 l12
91 65 4 c37 2 67 4 69 5 1 1 2 -40 2 -92z"/>
<path d="M607 2358 c-15 -11 -16 -23 -11 -75 8 -78 24 -83 24 -8 0 30 3 55 6
55 9 0 43 -44 44 -56 0 -6 -7 -17 -15 -24 -8 -7 -15 -17 -15 -23 0 -6 10 -1
23 11 26 25 46 30 27 7 -17 -20 -1 -19 22 2 16 15 18 15 13 1 -5 -13 1 -16 33
-14 21 0 46 7 54 13 8 7 18 10 21 6 4 -3 7 -1 7 5 0 8 22 12 65 12 l65 0 0
-94 c0 -51 3 -114 6 -140 l7 -47 -94 3 c-80 3 -94 6 -97 21 -3 15 6 17 77 17
44 0 83 5 86 10 4 6 -13 10 -43 10 -69 0 -112 10 -112 26 0 11 18 14 74 14 41
0 78 5 81 10 4 6 -13 10 -43 10 -77 0 -112 10 -112 31 0 17 8 19 80 19 47 0
80 4 80 10 0 6 -33 10 -80 10 -59 0 -79 3 -77 13 1 9 -24 13 -95 15 -83 2 -98
0 -98 -13 0 -12 15 -15 80 -15 l80 0 0 -57 c0 -32 3 -82 6 -110 l7 -53 57 0
c31 0 77 3 102 6 l45 6 8 147 c9 176 8 212 -8 227 -19 18 -357 29 -380 12z
m363 -42 c0 -26 -1 -26 -77 -26 -58 0 -81 4 -96 18 -20 16 -20 16 -13 -2 6
-16 4 -17 -10 -5 -23 19 -56 20 -49 0 5 -12 2 -12 -13 2 -10 9 -22 17 -26 17
-5 0 -5 -8 -2 -17 6 -15 5 -15 -13 1 -11 10 -19 22 -16 26 2 3 74 7 159 9
l156 2 0 -25z"/>
<path d="M720 1375 c-8 -9 -15 -58 -19 -121 l-6 -106 -56 -18 c-70 -21 -95
-46 -104 -101 -12 -79 -3 -74 -125 -71 l-111 4 2 -117 1 -117 108 4 109 3 17
-60 c18 -67 60 -165 69 -165 4 0 4 8 0 19 -5 17 -2 18 47 7 l52 -12 -3 -112
-3 -112 34 0 c18 0 63 3 99 6 l67 7 12 107 12 107 75 17 c40 10 81 19 91 20
12 2 19 17 24 52 4 27 10 64 13 82 l6 32 67 0 c37 0 84 3 105 7 63 10 22 23
-75 23 l-88 0 0 85 0 85 79 0 c44 0 86 3 95 6 13 5 16 -2 17 -42 0 -27 4 -69
8 -94 7 -38 9 -30 10 52 l1 97 -42 5 c-24 4 -72 7 -108 9 l-64 2 -12 58 c-11
53 -27 87 -38 76 -2 -2 2 -35 10 -74 13 -71 13 -302 -1 -396 l-7 -45 -107 -17
c-130 -21 -211 -20 -315 1 l-80 17 -18 70 c-23 84 -27 232 -9 330 6 39 15 76
19 82 4 7 48 24 97 38 104 31 198 30 323 -2 39 -11 72 -16 72 -12 0 4 -36 19
-80 34 l-80 26 8 62 c4 34 7 87 7 117 l0 55 -96 3 c-77 2 -99 0 -109 -13z
m176 -27 c-3 -13 -6 -61 -6 -108 l0 -85 -85 0 -85 0 6 30 c3 17 8 62 12 100
l7 70 60 6 c33 3 68 6 79 7 14 2 17 -3 12 -20z m-379 -498 l-2 -90 -99 0 -99
0 7 38 c3 20 6 58 6 84 l0 47 88 4 c48 1 90 4 94 5 3 1 5 -38 5 -88z m363
-425 l0 -95 -81 0 c-79 0 -81 1 -76 23 3 12 9 55 13 95 l7 72 68 0 69 0 0 -95z"/>
<path d="M602 1032 c-10 -7 -12 -25 -6 -73 12 -106 9 -104 98 -101 l76 4 0
-74 c0 -40 3 -90 6 -110 l7 -38 103 0 104 0 1 68 c0 37 2 119 5 182 2 63 1
121 -4 128 -11 16 -369 29 -390 14z m368 -92 l0 -70 -70 0 c-40 0 -70 -4 -70
-10 0 -6 30 -10 70 -10 l70 0 0 -35 0 -35 -75 7 c-68 5 -75 4 -75 -12 0 -16 7
-17 74 -12 l74 5 6 -30 c3 -17 6 -41 6 -55 l0 -24 -92 7 c-51 4 -94 7 -94 8
-1 0 1 46 5 101 4 55 6 102 5 104 -2 2 -44 6 -94 9 l-90 5 0 58 0 59 175 0
175 0 0 -70z"/>
<path d="M677 974 c-18 -19 -1 -24 78 -24 50 0 85 4 85 10 0 6 -22 10 -49 10
-27 0 -61 3 -77 6 -16 3 -32 2 -37 -2z"/>
</g>
</svg>
