<?xml version="1.0" standalone="no"?>
<!DOCTYPE svg PUBLIC "-//W3C//DTD SVG 20010904//EN"
 "http://www.w3.org/TR/2001/REC-SVG-20010904/DTD/svg10.dtd">
<svg version="1.0" xmlns="http://www.w3.org/2000/svg"
 width="165.000000pt" height="168.000000pt" viewBox="0 0 165.000000 168.000000"
 preserveAspectRatio="xMidYMid meet">
<metadata>
Created by potrace 1.16, written by Peter Selinger 2001-2019
</metadata>
<g transform="translate(0.000000,168.000000) scale(0.100000,-0.100000)"
fill="#000000" stroke="none">
<path d="M721 1371 c-10 -6 -15 -41 -19 -123 l-5 -114 -62 -33 c-57 -29 -65
-38 -89 -90 l-26 -58 -110 5 -111 5 3 -119 3 -119 106 3 106 4 20 -34 c38 -64
104 -139 136 -154 l32 -15 -4 -115 -3 -114 33 0 c19 0 64 3 100 6 l67 7 12
109 c12 101 15 111 39 125 84 51 132 85 127 90 -3 3 3 22 14 43 22 43 43 50
154 50 80 0 117 13 66 24 -18 3 -65 6 -104 6 l-72 0 0 80 c1 44 1 80 1 80 0 0
44 3 98 7 l97 6 1 -44 c0 -24 4 -64 8 -89 7 -39 9 -32 10 47 1 57 -3 94 -10
99 -6 3 -57 9 -115 12 -90 4 -104 7 -110 24 -10 32 -78 92 -144 127 -62 33
-62 34 -56 70 3 20 9 73 12 119 l7 82 -99 0 c-54 0 -105 -4 -113 -9z m175 -27
c-3 -9 -6 -56 -6 -105 l0 -90 -48 7 c-26 3 -65 1 -86 -4 l-38 -11 6 32 c4 18
9 64 13 104 7 81 3 78 112 82 45 1 52 -2 47 -15z m35 -253 c69 -23 140 -59
137 -69 -1 -4 6 -28 16 -55 11 -26 16 -50 13 -53 -3 -3 -69 2 -147 11 -78 9
-156 15 -174 14 -17 -1 -43 4 -57 10 -21 10 -32 10 -64 -3 -21 -9 -35 -19 -32
-22 4 -4 19 -1 35 5 21 9 36 9 57 1 15 -6 25 -13 22 -16 -3 -3 -14 -1 -26 5
-15 9 -28 7 -55 -6 -19 -9 -33 -20 -30 -25 3 -4 18 -1 34 7 30 16 80 6 80 -15
0 -12 -6 -13 -29 0 -18 9 -91 -16 -91 -32 0 -11 7 -10 40 7 30 15 71 8 85 -14
8 -14 -10 -14 -34 -1 -18 9 -91 -16 -91 -32 0 -11 7 -10 39 7 23 11 35 12 60
2 17 -6 31 -15 31 -19 0 -11 -8 -10 -32 3 -24 13 -98 -4 -98 -23 0 -6 8 -7 23
-3 32 12 101 9 105 -4 5 -16 40 -13 202 17 l145 27 6 40 c5 32 6 29 4 -15 -2
-30 -14 -89 -27 -130 l-23 -75 -85 -43 c-80 -40 -89 -43 -155 -39 -40 2 -94
13 -126 26 -53 20 -59 26 -92 89 -63 120 -66 196 -12 319 22 50 29 56 97 88
86 41 162 46 249 16z m-426 -248 l0 -88 -94 3 -93 3 6 37 c3 20 6 56 6 79 0
41 1 42 38 46 20 2 60 4 87 5 l50 2 0 -87z m433 61 c33 -4 42 -9 42 -25 0 -18
-8 -19 -105 -19 -79 0 -105 3 -105 13 0 10 24 12 103 10 67 -1 92 1 72 6 -16
5 -57 9 -90 10 -33 1 -67 6 -75 11 -15 10 49 7 158 -6z m140 -38 c4 -33 -10
-46 -50 -46 -26 0 -28 3 -28 41 l0 40 38 -3 c33 -3 37 -6 40 -32z m-148 -27
c-56 -8 -147 -13 -165 -8 -21 5 83 16 150 16 l70 1 -55 -9z m50 -17 c0 -9
-211 -43 -219 -36 -12 11 19 19 107 30 53 6 100 12 105 13 4 0 7 -3 7 -7z
m-100 -399 l0 -93 -81 0 c-79 0 -81 1 -76 23 3 12 9 54 12 92 l7 70 69 0 69 0
0 -92z"/>
</g>
</svg>
