<?xml version="1.0" standalone="no"?>
<!DOCTYPE svg PUBLIC "-//W3C//DTD SVG 20010904//EN"
 "http://www.w3.org/TR/2001/REC-SVG-20010904/DTD/svg10.dtd">
<svg version="1.0" xmlns="http://www.w3.org/2000/svg"
 width="164.000000pt" height="117.000000pt" viewBox="0 0 164.000000 117.000000"
 preserveAspectRatio="xMidYMid meet">
<metadata>
Created by potrace 1.16, written by Peter Selinger 2001-2019
</metadata>
<g transform="translate(0.000000,117.000000) scale(0.100000,-0.100000)"
fill="#000000" stroke="none">
<path d="M460 860 c0 -5 -7 -10 -16 -10 -9 0 -36 -44 -74 -122 -33 -68 -60
-126 -60 -130 0 -29 38 22 132 176 16 26 31 46 33 44 2 -1 7 -104 10 -228 4
-124 9 -228 12 -232 2 -5 -6 -8 -19 -8 -20 0 -31 17 -77 115 -30 63 -59 115
-65 115 -6 0 -17 -4 -25 -9 -16 -10 -8 -25 93 -180 l61 -94 429 7 c236 3 431
7 433 9 2 2 6 125 10 274 l6 270 -243 6 c-361 10 -640 9 -640 -3z m834 -197
c4 -98 9 -214 12 -257 l6 -79 -98 6 c-55 4 -136 7 -182 7 l-83 0 30 38 c17 20
29 44 28 53 -2 8 -20 39 -41 68 -36 48 -38 56 -33 101 3 26 18 71 34 99 l28
51 -22 40 -21 39 131 4 c73 1 148 4 168 5 l37 2 6 -177z m-447 105 c-64 -59
-69 -67 -79 -123 -18 -101 0 -159 75 -240 l61 -68 -192 5 c-106 3 -194 7 -196
9 -1 2 -1 109 2 236 l4 233 192 3 c105 1 193 3 196 5 2 1 -26 -26 -63 -60z
m109 11 c8 -17 12 -35 7 -39 -4 -4 -33 -4 -63 -1 l-55 6 45 32 c25 18 46 32
47 33 1 0 10 -14 19 -31z m-19 -89 c-6 -17 -19 -30 -28 -30 -46 0 -109 14
-109 24 0 25 26 36 86 36 l62 0 -11 -30z m-25 -66 c-4 -24 -7 -25 -68 -22 -35
1 -64 5 -64 8 1 17 20 29 55 33 86 8 83 9 77 -19z m-4 -61 c3 -22 0 -23 -56
-23 -45 0 -61 4 -66 16 -10 27 -7 29 57 29 57 0 62 -2 65 -22z m22 -58 c12
-14 5 -16 -60 -13 -48 2 -75 7 -78 16 -6 19 122 16 138 -3z m38 -48 l22 -23
-73 0 c-51 1 -75 5 -84 16 -10 13 -3 16 50 21 34 3 62 6 63 7 0 1 10 -8 22
-21z m-7 -66 c-31 -43 -34 -44 -70 -7 l-32 33 62 2 61 2 -21 -30z"/>
</g>
</svg>
