<?xml version="1.0" standalone="no"?>
<!DOCTYPE svg PUBLIC "-//W3C//DTD SVG 20010904//EN"
 "http://www.w3.org/TR/2001/REC-SVG-20010904/DTD/svg10.dtd">
<svg version="1.0" xmlns="http://www.w3.org/2000/svg"
 width="161.000000pt" height="117.000000pt" viewBox="0 0 161.000000 117.000000"
 preserveAspectRatio="xMidYMid meet">
<metadata>
Created by potrace 1.16, written by Peter Selinger 2001-2019
</metadata>
<g transform="translate(0.000000,117.000000) scale(0.100000,-0.100000)"
fill="#000000" stroke="none">
<path d="M311 862 c-12 -8 -13 -54 -8 -276 3 -146 9 -271 13 -277 5 -9 122
-11 492 -6 267 4 487 8 489 10 9 10 15 534 6 540 -18 11 -977 19 -992 9z m953
-189 c3 -93 9 -208 12 -257 l6 -89 -114 6 c-62 4 -232 7 -378 7 l-265 0 3 238
c2 130 5 238 6 238 0 1 143 6 316 11 173 5 336 10 361 11 l47 2 6 -167z m-771
110 c3 -21 6 -103 6 -183 1 -80 4 -170 7 -200 l6 -55 -92 3 -93 3 7 61 c3 34
6 139 6 234 l0 174 74 0 73 0 6 -37z"/>
<path d="M861 714 c-63 -29 -84 -34 -146 -34 -41 0 -80 -3 -89 -6 -57 -22 53
-125 176 -165 35 -12 80 -30 100 -40 20 -10 42 -19 49 -19 19 0 -8 26 -43 41
-28 12 -29 13 -12 26 25 19 44 16 108 -13 74 -34 95 -26 28 11 -29 15 -52 32
-52 36 0 4 16 16 35 27 l34 21 75 -35 c80 -36 86 -38 86 -26 0 4 -29 24 -65
43 -39 20 -63 39 -60 47 6 16 9 18 -86 -32 -99 -51 -155 -70 -89 -30 55 33 55
33 48 39 -3 3 -41 -11 -85 -31 l-80 -36 -40 21 c-62 31 -107 72 -91 82 7 5
105 9 218 9 195 0 207 1 255 24 55 26 96 55 79 56 -6 0 -44 -13 -84 -30 -75
-31 -122 -36 -223 -22 l-48 7 45 25 c25 13 46 28 46 32 0 12 -10 9 -89 -28z"/>
</g>
</svg>
