<?xml version="1.0" standalone="no"?>
<!DOCTYPE svg PUBLIC "-//W3C//DTD SVG 20010904//EN"
 "http://www.w3.org/TR/2001/REC-SVG-20010904/DTD/svg10.dtd">
<svg version="1.0" xmlns="http://www.w3.org/2000/svg"
 width="161.000000pt" height="117.000000pt" viewBox="0 0 161.000000 117.000000"
 preserveAspectRatio="xMidYMid meet">
<metadata>
Created by potrace 1.16, written by Peter Selinger 2001-2019
</metadata>
<g transform="translate(0.000000,117.000000) scale(0.100000,-0.100000)"
fill="#000000" stroke="none">
<path d="M311 862 c-12 -8 -13 -54 -8 -276 3 -146 9 -271 13 -277 5 -9 122
-11 492 -6 266 3 486 8 488 10 10 10 16 534 7 540 -18 11 -977 19 -992 9z
m953 -189 c3 -93 9 -207 12 -255 l6 -88 -39 0 c-21 0 -89 3 -150 7 l-113 6 0
71 c0 39 3 148 7 243 l6 172 86 4 c47 1 107 4 132 5 l47 2 6 -167z m-414 103
c-47 -30 -114 -75 -150 -99 l-65 -45 3 -45 c4 -44 6 -47 95 -115 51 -38 112
-83 136 -101 l44 -31 -198 0 -198 0 7 53 c3 28 6 136 6 239 l0 187 153 4 c83
1 175 4 202 5 l50 2 -85 -54z m-357 7 c3 -21 6 -103 6 -183 1 -80 4 -170 7
-200 l6 -55 -92 3 -93 3 7 61 c3 34 6 139 6 234 l0 174 74 0 73 0 6 -37z m467
-53 l0 -90 -127 0 c-111 0 -125 2 -113 15 14 13 232 165 238 165 1 0 2 -40 2
-90z m-278 -135 c4 -17 1 -25 -8 -25 -14 0 -19 31 -7 43 9 10 10 9 15 -18z
m48 -6 c0 -10 -7 -19 -15 -19 -15 0 -21 31 -9 43 11 10 24 -3 24 -24z m40 6
c0 -14 -4 -25 -10 -25 -11 0 -14 33 -3 43 11 11 13 8 13 -18z m40 16 c0 -5 3
-16 6 -25 4 -11 1 -16 -10 -16 -10 0 -16 9 -16 25 0 14 5 25 10 25 6 0 10 -4
10 -9z m150 -21 c0 -30 0 -30 -58 -30 -32 0 -61 2 -64 5 -3 3 -3 17 0 30 4 23
8 25 63 25 59 0 59 0 59 -30z m0 -150 c0 -55 -3 -100 -7 -100 -7 0 -223 167
-247 191 -6 5 41 9 122 9 l132 0 0 -100z"/>
</g>
</svg>
