<?xml version="1.0" standalone="no"?>
<!DOCTYPE svg PUBLIC "-//W3C//DTD SVG 20010904//EN"
 "http://www.w3.org/TR/2001/REC-SVG-20010904/DTD/svg10.dtd">
<svg version="1.0" xmlns="http://www.w3.org/2000/svg"
 width="161.000000pt" height="117.000000pt" viewBox="0 0 161.000000 117.000000"
 preserveAspectRatio="xMidYMid meet">
<metadata>
Created by potrace 1.16, written by Peter Selinger 2001-2019
</metadata>
<g transform="translate(0.000000,117.000000) scale(0.100000,-0.100000)"
fill="#000000" stroke="none">
<path d="M311 862 c-12 -8 -13 -54 -8 -276 3 -146 9 -271 13 -277 5 -9 122
-11 492 -6 267 4 487 8 489 10 9 10 15 534 6 540 -18 11 -977 19 -992 9z m953
-189 c3 -93 9 -208 12 -257 l6 -89 -114 6 c-62 4 -232 7 -378 7 l-265 0 3 238
c2 130 5 238 6 238 0 1 143 6 316 11 173 5 336 10 361 11 l47 2 6 -167z m-772
129 c3 -10 6 -92 7 -183 1 -90 4 -189 7 -219 l6 -55 -92 3 -93 3 7 61 c3 34 6
139 6 234 l0 174 74 0 c63 0 74 -3 78 -18z"/>
<path d="M639 733 c-9 -10 -10 -18 -4 -20 6 -2 48 -26 95 -53 l85 -50 -107 0
c-88 0 -108 -3 -108 -15 0 -11 20 -15 96 -17 l96 -3 -79 -44 c-96 -54 -90 -49
-72 -66 13 -13 28 -7 122 50 l107 64 115 -60 c63 -33 115 -57 115 -52 0 4 -36
31 -81 59 l-81 51 117 8 c64 4 114 9 111 12 -3 3 -57 8 -121 12 l-117 6 86 55
c47 30 86 59 86 63 0 5 -52 -19 -115 -52 l-115 -61 -62 38 c-153 92 -155 93
-169 75z"/>
</g>
</svg>
