<?xml version="1.0" standalone="no"?>
<!DOCTYPE svg PUBLIC "-//W3C//DTD SVG 20010904//EN"
 "http://www.w3.org/TR/2001/REC-SVG-20010904/DTD/svg10.dtd">
<svg version="1.0" xmlns="http://www.w3.org/2000/svg"
 width="161.000000pt" height="117.000000pt" viewBox="0 0 161.000000 117.000000"
 preserveAspectRatio="xMidYMid meet">
<metadata>
Created by potrace 1.16, written by Peter Selinger 2001-2019
</metadata>
<g transform="translate(0.000000,117.000000) scale(0.100000,-0.100000)"
fill="#000000" stroke="none">
<path d="M311 862 c-12 -8 -13 -54 -8 -276 3 -146 9 -271 13 -277 5 -9 122
-11 492 -6 267 4 487 8 489 10 9 10 15 534 6 540 -18 11 -977 19 -992 9z m950
-94 c0 -40 2 -100 4 -133 2 -33 7 -114 9 -181 l6 -121 -378 5 c-207 2 -378 5
-378 6 -1 0 1 67 4 148 4 126 7 146 21 146 9 -1 49 11 90 26 41 14 86 26 100
25 20 -1 16 -4 -19 -15 -68 -21 -72 -23 -65 -33 3 -6 43 3 92 20 48 16 103 29
122 28 33 -1 31 -3 -26 -20 -35 -11 -63 -24 -63 -30 0 -12 38 -3 116 27 61 24
120 32 110 15 -3 -5 -28 -14 -56 -21 -27 -7 -50 -16 -50 -21 0 -13 21 -11 67
5 l40 14 6 -105 c3 -58 7 -107 9 -108 3 -3 152 -7 186 -6 7 1 10 6 6 12 -4 7
-8 64 -9 127 -2 84 -6 117 -16 123 -8 5 -37 9 -65 9 -28 0 -84 11 -124 25 -45
15 -77 22 -83 16 -6 -6 10 -15 39 -24 44 -13 46 -15 18 -16 -17 -1 -64 10
-104 24 -86 29 -80 28 -80 11 0 -8 17 -17 43 -22 42 -8 42 -8 9 -12 -18 -2
-60 6 -92 17 -67 23 -80 25 -80 12 0 -5 14 -13 31 -16 19 -4 27 -10 20 -14 -6
-4 -43 3 -82 16 -39 14 -77 22 -85 19 -7 -3 -14 -25 -17 -53 -2 -29 -4 -14 -5
40 l-2 87 128 1 c106 1 277 7 555 17 l47 2 1 -72z m-768 30 c3 -13 6 -102 8
-198 1 -96 2 -193 3 -214 l1 -39 -85 2 c-47 1 -85 3 -86 4 0 1 1 107 4 235 l4
232 73 0 c67 0 73 -2 78 -22z m148 -91 l44 -13 -46 -12 c-26 -6 -54 -14 -63
-18 -13 -5 -16 1 -16 31 0 31 3 35 19 30 10 -3 38 -11 62 -18z m539 -109 c0
-51 3 -103 6 -115 6 -22 4 -23 -75 -23 -52 0 -80 4 -76 10 3 6 35 10 71 10 87
0 74 20 -14 21 l-67 2 67 7 c90 9 98 20 15 20 -38 0 -67 4 -67 10 0 6 29 10
66 10 41 0 63 4 59 10 -3 6 -35 10 -71 10 -41 0 -63 4 -59 10 3 6 35 10 71 10
41 0 63 4 59 10 -3 6 -35 10 -71 10 -61 0 -64 1 -64 24 0 34 36 55 98 55 l52
1 0 -92z"/>
</g>
</svg>
