<?xml version="1.0" standalone="no"?>
<!DOCTYPE svg PUBLIC "-//W3C//DTD SVG 20010904//EN"
 "http://www.w3.org/TR/2001/REC-SVG-20010904/DTD/svg10.dtd">
<svg version="1.0" xmlns="http://www.w3.org/2000/svg"
 width="161.000000pt" height="117.000000pt" viewBox="0 0 161.000000 117.000000"
 preserveAspectRatio="xMidYMid meet">
<metadata>
Created by potrace 1.16, written by Peter Selinger 2001-2019
</metadata>
<g transform="translate(0.000000,117.000000) scale(0.100000,-0.100000)"
fill="#000000" stroke="none">
<path d="M311 862 c-12 -8 -13 -54 -8 -276 3 -146 9 -271 13 -277 5 -9 122
-11 492 -6 267 4 487 8 489 10 9 10 15 534 6 540 -18 11 -977 19 -992 9z m951
-107 l3 -86 -35 -9 c-61 -16 -287 -60 -309 -60 -18 0 -21 6 -21 46 0 58 -25
56 -26 -2 0 -21 -5 -40 -10 -41 -5 -1 -8 18 -6 42 2 35 -1 45 -13 45 -11 0
-15 -12 -15 -50 0 -27 -4 -50 -10 -50 -5 0 -10 23 -10 50 0 38 -4 50 -15 50
-11 0 -15 -12 -15 -50 0 -27 -4 -50 -10 -50 -5 0 -10 23 -10 50 0 38 -4 50
-15 50 -12 0 -15 -13 -15 -55 0 -42 -3 -55 -15 -55 -12 0 -15 13 -15 55 0 42
-3 55 -15 55 -12 0 -15 -13 -15 -56 0 -34 -4 -53 -10 -49 -5 3 -10 28 -10 56
0 37 -4 49 -15 49 -11 0 -15 -13 -15 -54 l0 -55 -37 2 c-29 2 -38 -2 -41 -15
-3 -15 4 -18 36 -18 l40 0 7 -67 c9 -97 11 -98 20 -10 10 99 29 99 33 -2 4
-92 22 -84 22 10 0 53 3 69 14 69 10 0 16 -19 21 -67 9 -96 11 -97 19 -14 7
81 9 86 25 76 6 -3 11 -37 11 -76 0 -44 4 -68 10 -64 6 3 10 37 10 76 0 38 4
69 8 69 5 0 13 -35 19 -77 l10 -78 1 78 c2 61 5 77 17 77 12 0 15 -15 15 -76
0 -47 4 -73 10 -69 6 3 10 37 10 74 l0 68 181 8 c99 4 182 5 183 4 2 -2 6 -55
10 -118 l7 -114 -113 6 c-62 4 -232 7 -378 7 l-265 0 3 238 c2 130 5 238 6
238 0 1 143 6 316 11 173 5 336 10 362 11 l47 2 3 -85z m-770 47 c3 -10 6 -92
7 -183 1 -90 4 -189 7 -219 l6 -55 -92 3 -93 3 7 61 c3 34 6 139 6 234 l0 174
74 0 c63 0 74 -3 78 -18z m778 -186 c0 -42 1 -42 -149 -38 l-116 4 114 28 c62
16 116 32 119 35 16 16 32 2 32 -29z"/>
</g>
</svg>
