<?xml version="1.0" standalone="no"?>
<!DOCTYPE svg PUBLIC "-//W3C//DTD SVG 20010904//EN"
 "http://www.w3.org/TR/2001/REC-SVG-20010904/DTD/svg10.dtd">
<svg version="1.0" xmlns="http://www.w3.org/2000/svg"
 width="161.000000pt" height="117.000000pt" viewBox="0 0 161.000000 117.000000"
 preserveAspectRatio="xMidYMid meet">
<metadata>
Created by potrace 1.16, written by Peter Selinger 2001-2019
</metadata>
<g transform="translate(0.000000,117.000000) scale(0.100000,-0.100000)"
fill="#000000" stroke="none">
<path d="M311 862 c-12 -8 -13 -54 -8 -276 3 -146 9 -271 13 -277 5 -9 122
-11 492 -6 267 4 487 8 489 10 9 10 15 534 6 540 -18 11 -977 19 -992 9z m953
-189 c3 -93 9 -207 12 -255 l6 -88 -46 0 -46 0 0 85 c0 81 1 85 23 86 l22 0
-22 11 c-19 9 -22 17 -18 52 2 23 5 94 5 159 l1 117 28 0 29 0 6 -167z m-104
105 c0 -53 0 -53 -48 -78 l-47 -25 -60 32 c-104 54 -177 74 -306 80 -116 6
-119 6 -119 -15 0 -13 23 -39 65 -74 l64 -53 -45 -12 c-49 -12 -94 -38 -94
-54 0 -13 78 -48 108 -49 12 0 22 -3 22 -7 0 -4 -23 -31 -51 -59 -84 -85 -60
-99 108 -65 104 22 179 53 262 110 l56 38 42 -15 c46 -17 53 -36 53 -142 l0
-55 -247 2 c-137 2 -326 5 -422 9 l-174 6 7 61 c3 33 6 138 6 233 l0 174 248
3 c136 1 320 3 410 5 l162 2 0 -52z m-361 -29 c73 -11 163 -40 233 -73 l48
-23 40 24 40 24 0 -80 c0 -45 -2 -81 -5 -81 -2 0 -20 8 -40 17 -25 12 -38 14
-43 6 -4 -6 -48 -31 -97 -56 -91 -46 -196 -79 -289 -92 l-49 -7 66 80 c68 81
87 115 42 72 -25 -24 -25 -24 -80 -6 -30 9 -57 21 -60 26 -6 10 73 42 107 43
12 0 32 -3 43 -7 11 -4 -16 27 -60 68 l-80 76 60 0 c33 0 89 -5 124 -11z"/>
</g>
</svg>
