<?xml version="1.0" standalone="no"?>
<!DOCTYPE svg PUBLIC "-//W3C//DTD SVG 20010904//EN"
 "http://www.w3.org/TR/2001/REC-SVG-20010904/DTD/svg10.dtd">
<svg version="1.0" xmlns="http://www.w3.org/2000/svg"
 width="161.000000pt" height="117.000000pt" viewBox="0 0 161.000000 117.000000"
 preserveAspectRatio="xMidYMid meet">
<metadata>
Created by potrace 1.16, written by Peter Selinger 2001-2019
</metadata>
<g transform="translate(0.000000,117.000000) scale(0.100000,-0.100000)"
fill="#000000" stroke="none">
<path d="M311 862 c-12 -8 -13 -54 -8 -276 3 -146 9 -271 13 -277 5 -9 122
-11 492 -6 267 4 487 8 489 10 9 10 15 534 6 540 -18 11 -977 19 -992 9z m953
-189 c3 -93 9 -208 12 -257 l6 -89 -114 6 c-62 4 -134 7 -159 7 l-46 0 -27 70
c-26 64 -27 76 -21 159 7 89 8 90 26 68 10 -12 18 -16 19 -9 0 13 -20 53 -32
62 -3 3 -8 34 -9 70 l-3 65 125 5 c68 3 145 7 170 8 l47 2 6 -167z m-433 107
c-22 -27 -47 -73 -56 -102 -10 -29 -27 -71 -37 -92 -17 -33 -17 -38 -4 -33 19
7 20 3 5 -24 -21 -41 -2 -42 21 -1 33 59 37 45 5 -18 -14 -29 -24 -55 -21 -58
8 -7 10 -5 40 48 31 54 34 40 6 -26 -28 -65 -20 -77 14 -20 42 73 53 43 15
-42 l-32 -72 -135 0 -135 0 7 53 c3 28 6 136 6 239 l0 187 158 4 c86 1 163 4
170 5 7 1 -5 -20 -27 -48z m-339 22 c3 -10 6 -92 7 -183 1 -90 4 -189 7 -219
l6 -55 -92 3 -93 3 7 61 c3 34 6 139 6 234 l0 174 74 0 c63 0 74 -3 78 -18z
m398 -57 l0 -55 -40 0 c-22 0 -40 3 -40 7 0 12 64 103 73 103 4 0 7 -25 7 -55z
m2 -165 c0 -49 1 -94 2 -100 1 -5 -3 -11 -9 -12 -14 -3 -74 119 -82 165 l-6
37 47 0 46 0 2 -90z m-6 -138 c11 -7 54 -85 54 -97 0 -3 -29 -5 -65 -5 -36 0
-65 2 -65 5 0 9 55 105 60 105 3 0 10 -4 16 -8z"/>
</g>
</svg>
