<?xml version="1.0" standalone="no"?>
<!DOCTYPE svg PUBLIC "-//W3C//DTD SVG 20010904//EN"
 "http://www.w3.org/TR/2001/REC-SVG-20010904/DTD/svg10.dtd">
<svg version="1.0" xmlns="http://www.w3.org/2000/svg"
 width="164.000000pt" height="117.000000pt" viewBox="0 0 164.000000 117.000000"
 preserveAspectRatio="xMidYMid meet">
<metadata>
Created by potrace 1.16, written by Peter Selinger 2001-2019
</metadata>
<g transform="translate(0.000000,117.000000) scale(0.100000,-0.100000)"
fill="#000000" stroke="none">
<path d="M460 860 c0 -5 -7 -10 -16 -10 -9 0 -36 -44 -74 -122 -33 -68 -60
-126 -60 -130 0 -29 38 22 132 176 16 26 31 46 33 44 2 -1 7 -104 10 -228 4
-124 9 -228 12 -232 2 -5 -6 -8 -19 -8 -20 0 -31 17 -77 115 -30 63 -59 115
-65 115 -6 0 -17 -4 -25 -9 -16 -10 -8 -25 93 -180 l61 -94 429 6 c236 4 431
8 433 10 2 2 6 125 10 274 l6 270 -243 6 c-361 10 -640 9 -640 -3z m834 -197
c4 -98 9 -213 12 -255 l6 -77 -223 5 c-123 2 -302 6 -397 8 -95 2 -174 5 -176
7 -1 2 -1 109 2 237 l4 232 172 1 c141 1 375 8 557 17 l37 2 6 -177z"/>
<path d="M746 775 c-3 -9 -6 -37 -6 -61 l0 -44 -69 0 c-54 0 -70 -4 -75 -16
-9 -24 -7 -110 4 -138 9 -24 14 -26 79 -26 l70 0 3 -47 3 -48 195 3 c107 2
200 8 206 13 15 12 7 351 -9 361 -7 4 -85 8 -173 8 -89 0 -175 3 -191 6 -23 4
-32 2 -37 -11z m388 -29 c-3 -7 -16 -19 -30 -26 -22 -13 -27 -11 -52 13 l-27
27 57 0 c44 0 56 -3 52 -14z m-231 -3 c4 -3 -7 -15 -24 -25 -31 -19 -32 -19
-53 1 -21 20 -46 28 -46 15 0 -3 12 -15 26 -26 l25 -21 -28 -18 c-15 -10 -31
-19 -35 -19 -5 0 -8 23 -8 50 l0 50 68 0 c38 0 72 -3 75 -7z m132 -23 c28 -29
28 -30 9 -44 -17 -13 -22 -12 -49 12 -16 15 -34 30 -39 34 -4 3 -5 11 -2 17
13 20 52 11 81 -19z m-70 -35 l39 -33 -24 -21 c-34 -28 -41 -26 -81 15 l-34
35 25 19 c14 11 27 19 30 19 3 0 23 -15 45 -34z m175 -2 l0 -37 -22 21 c-18
18 -19 24 -8 37 20 25 30 19 30 -21z m-15 -87 c-18 -14 -23 -12 -55 19 -33 34
-34 35 -15 49 18 14 23 12 55 -19 33 -34 34 -35 15 -49z m-237 -27 l-32 -27
-37 32 c-20 17 -38 35 -39 40 -1 4 14 18 32 31 l33 23 38 -36 38 -37 -33 -26z
m-148 10 c0 -69 -1 -71 -22 -65 -13 3 -41 6 -63 6 l-40 0 3 52 c5 78 5 78 67
78 l55 0 0 -71z m318 22 l33 -28 -34 -21 -35 -20 -30 31 -30 30 21 18 c29 24
36 23 75 -10z m-228 -70 c0 -3 -13 -15 -30 -24 l-30 -18 0 46 0 46 30 -21 c17
-12 30 -25 30 -29z m178 -7 c1 -1 -16 -13 -39 -29 l-42 -27 -29 30 -30 30 38
26 38 26 31 -28 c16 -15 31 -27 33 -28z m132 40 c0 -8 -4 -12 -10 -9 -5 3 -10
10 -10 16 0 5 5 9 10 9 6 0 10 -7 10 -16z m-17 -22 c9 -9 19 -42 23 -72 l7
-54 -57 49 -58 49 28 23 c35 28 37 28 57 5z m-241 -59 l28 -27 -28 -18 c-15
-10 -45 -18 -69 -18 -36 0 -43 3 -43 20 0 16 61 70 79 70 3 0 18 -12 33 -27z
m194 -23 l44 -40 -73 0 c-67 0 -97 10 -97 31 0 8 61 49 74 49 5 0 28 -18 52
-40z m-131 -30 c3 -5 -3 -10 -15 -10 -12 0 -18 5 -15 10 3 6 10 10 15 10 5 0
12 -4 15 -10z"/>
</g>
</svg>
