<?xml version="1.0" standalone="no"?>
<!DOCTYPE svg PUBLIC "-//W3C//DTD SVG 20010904//EN"
 "http://www.w3.org/TR/2001/REC-SVG-20010904/DTD/svg10.dtd">
<svg version="1.0" xmlns="http://www.w3.org/2000/svg"
 width="161.000000pt" height="117.000000pt" viewBox="0 0 161.000000 117.000000"
 preserveAspectRatio="xMidYMid meet">
<metadata>
Created by potrace 1.16, written by Peter Selinger 2001-2019
</metadata>
<g transform="translate(0.000000,117.000000) scale(0.100000,-0.100000)"
fill="#000000" stroke="none">
<path d="M311 862 c-12 -8 -13 -54 -8 -276 3 -146 9 -271 13 -277 5 -9 122
-11 492 -6 267 4 487 8 489 10 9 10 15 534 6 540 -18 11 -977 19 -992 9z m950
-94 c0 -40 2 -102 4 -138 2 -36 6 -119 10 -184 l5 -119 -112 6 c-62 4 -233 7
-380 7 l-268 0 7 108 c3 59 10 110 15 113 5 3 47 7 94 8 l86 2 82 -87 c52 -55
86 -85 94 -80 8 4 12 34 12 81 0 49 4 74 13 78 6 2 50 5 96 6 l84 2 54 -57
c62 -64 83 -66 31 -2 -53 66 -53 64 -7 119 56 68 39 77 -21 12 l-49 -53 -100
0 -101 0 0 80 c0 62 -3 80 -14 80 -8 0 -47 -36 -87 -80 l-72 -81 -101 3 -101
3 -3 113 -3 112 128 1 c107 1 278 7 556 17 l47 2 1 -72z m-769 34 c3 -10 6
-92 7 -183 1 -90 4 -189 7 -219 l6 -55 -92 3 -93 3 7 61 c3 34 6 139 6 234 l0
174 74 0 c63 0 74 -3 78 -18z m392 -241 l7 -143 -65 78 -65 77 42 50 c23 27
48 57 56 68 8 11 15 18 16 17 1 -2 5 -68 9 -147z"/>
</g>
</svg>
