<?xml version="1.0" standalone="no"?>
<!DOCTYPE svg PUBLIC "-//W3C//DTD SVG 20010904//EN"
 "http://www.w3.org/TR/2001/REC-SVG-20010904/DTD/svg10.dtd">
<svg version="1.0" xmlns="http://www.w3.org/2000/svg"
 width="167.000000pt" height="123.000000pt" viewBox="0 0 167.000000 123.000000"
 preserveAspectRatio="xMidYMid meet">
<metadata>
Created by potrace 1.16, written by Peter Selinger 2001-2019
</metadata>
<g transform="translate(0.000000,123.000000) scale(0.100000,-0.100000)"
fill="#000000" stroke="none">
<path d="M675 910 c-15 -17 -31 -20 -97 -20 -55 0 -77 3 -72 11 5 8 1 8 -14 0
-11 -6 -50 -11 -86 -11 -38 0 -68 -5 -72 -12 -4 -6 -6 -39 -5 -73 2 -46 -2
-65 -13 -74 -9 -8 -16 -18 -16 -23 0 -6 7 -5 15 2 24 20 22 -136 -3 -163 -15
-18 -15 -20 0 -14 13 5 17 -4 22 -51 3 -31 5 -76 5 -99 0 -56 5 -63 52 -63 24
0 39 -5 39 -12 0 -9 3 -9 12 0 15 15 172 17 163 2 -8 -13 8 -13 20 -1 6 5 45
11 88 13 59 2 76 0 72 -9 -6 -18 10 -16 25 2 9 11 34 15 92 15 70 0 79 -2 68
-15 -7 -8 -8 -15 -2 -15 5 0 15 6 21 14 8 10 38 16 91 18 50 2 76 0 70 -7 -22
-21 -8 -25 21 -5 25 19 40 22 95 18 l64 -4 0 70 c0 58 4 74 22 93 12 13 18 26
14 30 -4 4 -11 1 -16 -7 -7 -10 -10 12 -10 67 0 45 5 85 10 88 6 3 10 11 10
16 0 6 -4 7 -10 4 -6 -4 -10 28 -10 89 l0 96 -71 0 c-44 0 -68 4 -64 10 3 6 2
10 -4 10 -5 0 -13 -5 -16 -11 -6 -9 -51 -9 -145 1 -2 0 1 5 8 12 22 22 12 32
-11 10 -20 -19 -35 -22 -102 -22 -77 0 -78 0 -60 20 10 11 14 20 8 20 -5 0
-18 -9 -28 -20 -15 -17 -31 -20 -98 -20 -70 0 -78 2 -67 15 20 24 6 28 -15 5z
m235 -295 l-245 -245 -57 0 c-52 0 -58 2 -58 21 0 13 75 94 221 237 l220 217
52 6 c125 14 135 32 -133 -236z m380 222 c0 -16 -64 -86 -223 -245 l-222 -222
-80 0 -80 0 245 245 245 245 57 0 c54 0 58 -2 58 -23z m-769 -4 c1 -10 3 -29
4 -43 2 -19 -15 -43 -76 -105 l-79 -80 0 80 c0 80 0 81 38 117 20 21 50 38 67
41 17 2 33 5 38 6 4 0 8 -7 8 -16z m62 -15 c-16 -18 -18 -19 -21 -3 -4 19 16
37 31 28 4 -3 0 -14 -10 -25z m97 -83 l-115 -115 -3 76 c-3 77 -3 77 33 114
36 36 38 37 118 39 l82 2 -115 -116z m86 -85 l-201 -199 -3 71 -3 72 128 128
128 128 76 0 77 0 -202 -200z m-346 187 c0 -2 -11 -14 -25 -27 l-25 -23 0 26
c0 22 5 27 25 27 14 0 25 -1 25 -3z m878 -125 l0 -69 -136 -136 c-76 -75 -146
-137 -157 -138 -11 -1 -47 -1 -80 -1 l-60 2 209 209 c116 116 213 208 216 206
4 -3 7 -35 8 -73z m-769 -49 l2 -76 -78 -79 c-43 -43 -80 -78 -83 -78 -3 0 -4
35 -2 78 l4 77 76 78 c42 42 77 77 78 77 1 0 2 -35 3 -77z m719 -243 l-53 -58
-80 -1 -80 -1 130 130 130 130 3 -71 3 -71 -53 -58z m-737 -22 c-22 -25 -32
-28 -88 -28 -43 0 -63 4 -63 12 0 7 37 50 83 96 l82 83 6 -68 c5 -63 3 -70
-20 -95z m799 7 l0 -45 -49 0 -50 0 47 45 c26 24 48 45 50 45 1 0 2 -20 2 -45z
m-770 -25 c0 -5 -7 -10 -16 -10 -8 0 -12 5 -9 10 3 6 10 10 16 10 5 0 9 -4 9
-10z"/>
</g>
</svg>
