<?xml version="1.0" standalone="no"?>
<!DOCTYPE svg PUBLIC "-//W3C//DTD SVG 20010904//EN"
 "http://www.w3.org/TR/2001/REC-SVG-20010904/DTD/svg10.dtd">
<svg version="1.0" xmlns="http://www.w3.org/2000/svg"
 width="161.000000pt" height="117.000000pt" viewBox="0 0 161.000000 117.000000"
 preserveAspectRatio="xMidYMid meet">
<metadata>
Created by potrace 1.16, written by Peter Selinger 2001-2019
</metadata>
<g transform="translate(0.000000,117.000000) scale(0.100000,-0.100000)"
fill="#000000" stroke="none">
<path d="M311 862 c-12 -8 -13 -54 -8 -276 3 -146 9 -271 13 -277 5 -9 122
-11 492 -6 267 4 487 8 489 10 9 10 15 534 6 540 -18 11 -977 19 -992 9z m950
-84 c0 -60 2 -95 14 -339 l5 -106 -377 5 c-208 2 -378 5 -379 6 0 0 2 108 4
239 l4 237 95 0 c80 0 98 -3 109 -17 21 -28 17 -35 -23 -33 -53 3 -60 1 -43
-10 8 -5 34 -10 57 -10 23 0 45 -5 49 -12 5 -8 -5 -9 -34 -5 -23 3 -42 2 -42
-3 0 -11 37 -20 82 -20 20 0 40 -4 43 -10 4 -6 -11 -7 -39 -4 -29 4 -46 3 -46
-4 0 -5 35 -13 78 -17 43 -4 85 -11 93 -16 13 -9 -77 -3 -109 7 -8 2 -12 -2
-10 -8 5 -14 4 -14 102 -23 56 -6 66 -9 55 -20 -20 -18 -152 1 -210 31 -52 27
-59 28 -59 15 0 -5 9 -13 21 -16 11 -4 18 -9 16 -12 -3 -2 -19 3 -36 11 -39
21 -62 20 -36 -1 l20 -16 -20 8 c-11 4 -29 9 -40 12 -18 4 -18 3 3 -14 l23
-19 -28 -13 c-15 -8 -23 -16 -16 -18 6 -2 25 3 42 12 18 9 31 11 31 5 0 -5 -6
-10 -14 -10 -8 0 -18 -5 -22 -11 -5 -8 1 -10 19 -7 15 3 28 1 29 -4 2 -5 24 0
48 11 31 14 66 21 113 21 80 0 81 -12 3 -29 -31 -7 -58 -17 -61 -22 -10 -15
28 -10 89 11 78 26 60 6 -30 -35 -41 -19 -74 -39 -74 -44 0 -6 25 1 57 14 82
37 76 23 -7 -16 -38 -18 -70 -36 -70 -41 0 -11 2 -10 44 7 52 22 45 3 -9 -23
-49 -24 -64 -50 -17 -30 15 7 31 15 37 20 17 15 25 8 25 -22 0 -16 4 -30 9
-30 12 0 19 89 7 93 -5 2 -6 9 -2 15 15 25 26 11 26 -33 0 -25 5 -45 10 -45 6
0 10 19 10 43 0 23 5 49 10 57 7 11 10 3 10 -28 0 -26 4 -41 10 -37 6 3 10 32
10 63 0 31 5 64 10 72 7 11 10 0 10 -37 0 -29 5 -53 10 -53 6 0 10 27 10 60
l0 59 123 0 c67 0 132 0 145 0 27 1 30 21 2 21 -28 0 -26 34 3 48 21 10 21 11
-8 11 -16 0 -70 -8 -120 -19 -49 -11 -97 -18 -107 -14 -9 3 -32 32 -50 65 -18
32 -36 59 -40 59 -12 0 -10 -7 12 -50 11 -22 16 -40 10 -40 -5 0 -23 27 -40
60 -17 33 -35 60 -40 60 -15 0 -12 -9 16 -57 22 -38 23 -43 7 -35 -10 6 -30
33 -43 61 -13 28 -30 51 -38 51 -12 0 -12 -4 2 -25 14 -22 14 -25 1 -25 -8 0
-21 14 -30 30 -14 28 -14 30 2 31 10 1 104 5 208 8 105 4 211 8 238 9 l47 2 1
-62z m-769 24 c3 -10 6 -92 7 -183 1 -90 4 -189 7 -219 l6 -55 -92 3 -93 3 7
61 c3 34 6 139 6 234 l0 174 74 0 c63 0 74 -3 78 -18z m332 -67 c3 -9 0 -15
-9 -15 -16 0 -27 14 -18 24 10 10 21 7 27 -9z m366 -110 c0 -12 -13 -15 -57
-14 l-58 1 40 13 c54 18 75 18 75 0z m-465 -25 c-3 -5 -12 -10 -18 -10 -7 0
-6 4 3 10 19 12 23 12 15 0z"/>
</g>
</svg>
