<?xml version="1.0" standalone="no"?>
<!DOCTYPE svg PUBLIC "-//W3C//DTD SVG 20010904//EN"
 "http://www.w3.org/TR/2001/REC-SVG-20010904/DTD/svg10.dtd">
<svg version="1.0" xmlns="http://www.w3.org/2000/svg"
 width="169.000000pt" height="117.000000pt" viewBox="0 0 169.000000 117.000000"
 preserveAspectRatio="xMidYMid meet">
<metadata>
Created by potrace 1.16, written by Peter Selinger 2001-2019
</metadata>
<g transform="translate(0.000000,117.000000) scale(0.100000,-0.100000)"
fill="#000000" stroke="none">
<path d="M311 861 c-12 -8 -13 -53 -8 -275 3 -146 8 -270 12 -276 7 -12 394
-14 753 -3 l232 6 0 83 c0 89 6 101 61 129 16 9 29 20 29 25 0 6 -18 1 -40
-10 l-40 -20 0 168 0 169 -277 6 c-386 10 -705 8 -722 -2z m949 -58 c0 -21 3
-97 7 -170 l6 -131 -39 -11 c-94 -26 -145 4 -157 95 -4 33 7 30 -316 79 -184
29 -168 33 -201 -52 l-20 -53 27 -47 c14 -27 27 -49 28 -50 2 -4 266 33 378
53 85 14 91 14 100 -2 34 -60 85 -76 158 -50 l37 13 6 -45 c3 -25 6 -58 6 -75
l0 -30 -107 6 c-58 4 -228 7 -378 7 l-271 0 4 238 c2 130 5 238 6 238 0 1 143
6 316 11 173 5 336 10 363 11 l47 2 0 -37z m-766 -15 c3 -18 7 -124 8 -235 l4
-203 -90 0 -89 0 7 61 c3 34 6 140 6 235 l0 174 75 0 74 0 5 -32z m231 -151
c1 -1 5 -30 9 -63 l7 -61 -38 -7 c-21 -3 -54 -6 -74 -6 -33 0 -37 3 -48 38
-10 31 -10 43 4 76 l16 39 61 -7 c34 -3 62 -7 63 -9z m203 -21 c62 -8 115 -15
117 -17 1 -2 5 -15 7 -29 3 -25 3 -25 -122 -37 -69 -7 -135 -14 -147 -16 -22
-4 -23 -1 -23 54 0 69 -12 66 168 45z"/>
</g>
</svg>
