<?xml version="1.0" standalone="no"?>
<!DOCTYPE svg PUBLIC "-//W3C//DTD SVG 20010904//EN"
 "http://www.w3.org/TR/2001/REC-SVG-20010904/DTD/svg10.dtd">
<svg version="1.0" xmlns="http://www.w3.org/2000/svg"
 width="161.000000pt" height="117.000000pt" viewBox="0 0 161.000000 117.000000"
 preserveAspectRatio="xMidYMid meet">
<metadata>
Created by potrace 1.16, written by Peter Selinger 2001-2019
</metadata>
<g transform="translate(0.000000,117.000000) scale(0.100000,-0.100000)"
fill="#000000" stroke="none">
<path d="M311 862 c-12 -8 -13 -54 -8 -276 3 -146 9 -271 13 -277 5 -9 122
-11 492 -6 267 4 487 8 489 10 9 10 15 534 6 540 -18 11 -977 19 -992 9z m953
-189 c3 -93 9 -207 12 -256 l6 -87 -224 6 c-123 4 -225 8 -227 10 -2 2 21 28
50 59 73 77 113 140 113 180 0 39 -32 88 -116 180 l-59 65 173 3 c95 1 194 4
219 5 l47 2 6 -167z m-771 110 c3 -21 6 -103 6 -183 1 -80 4 -170 7 -200 l6
-55 -92 3 -93 3 7 61 c3 34 6 139 6 234 l0 174 74 0 73 0 6 -37z m333 -9 l55
-47 -63 -42 c-85 -57 -103 -78 -89 -103 15 -27 66 -69 115 -94 22 -11 43 -22
45 -24 2 -2 -18 -30 -45 -64 l-49 -60 -139 0 -139 0 7 53 c3 28 6 136 6 240
l0 187 121 0 121 0 54 -46z m107 -113 c32 -46 34 -69 7 -119 -36 -68 -33 -67
-82 -38 -57 33 -102 81 -95 100 6 15 116 95 132 95 6 0 22 -17 38 -38z"/>
</g>
</svg>
