<?xml version="1.0" standalone="no"?>
<!DOCTYPE svg PUBLIC "-//W3C//DTD SVG 20010904//EN"
 "http://www.w3.org/TR/2001/REC-SVG-20010904/DTD/svg10.dtd">
<svg version="1.0" xmlns="http://www.w3.org/2000/svg"
 width="161.000000pt" height="117.000000pt" viewBox="0 0 161.000000 117.000000"
 preserveAspectRatio="xMidYMid meet">
<metadata>
Created by potrace 1.16, written by Peter Selinger 2001-2019
</metadata>
<g transform="translate(0.000000,117.000000) scale(0.100000,-0.100000)"
fill="#000000" stroke="none">
<path d="M311 862 c-12 -8 -13 -54 -8 -276 3 -146 9 -271 13 -277 5 -9 122
-11 492 -6 267 4 487 8 489 10 9 10 15 534 6 540 -18 11 -977 19 -992 9z m953
-189 c3 -93 9 -208 12 -257 l6 -89 -114 6 c-62 4 -232 7 -378 7 l-265 0 3 238
c2 130 5 238 6 238 0 1 143 6 316 11 173 5 336 10 361 11 l47 2 6 -167z m-772
129 c3 -10 6 -92 7 -183 1 -90 4 -189 7 -219 l6 -55 -92 3 -93 3 7 61 c3 34 6
139 6 234 l0 174 74 0 c63 0 74 -3 78 -18z"/>
<path d="M795 760 c-75 -38 -200 -134 -202 -155 -1 -15 24 -37 105 -91 59 -39
115 -74 126 -77 13 -5 41 11 105 62 47 38 94 78 105 90 18 20 18 21 -5 41 -42
36 -187 150 -190 150 -2 0 -22 -9 -44 -20z m110 -68 c45 -31 91 -64 103 -72
23 -15 21 -16 -83 -88 -58 -40 -109 -72 -113 -70 -4 2 -47 35 -95 73 l-89 70
38 30 c21 17 60 49 88 72 28 23 56 42 61 42 6 1 46 -25 90 -57z"/>
</g>
</svg>
