<?xml version="1.0" standalone="no"?>
<!DOCTYPE svg PUBLIC "-//W3C//DTD SVG 20010904//EN"
 "http://www.w3.org/TR/2001/REC-SVG-20010904/DTD/svg10.dtd">
<svg version="1.0" xmlns="http://www.w3.org/2000/svg"
 width="161.000000pt" height="117.000000pt" viewBox="0 0 161.000000 117.000000"
 preserveAspectRatio="xMidYMid meet">
<metadata>
Created by potrace 1.16, written by Peter Selinger 2001-2019
</metadata>
<g transform="translate(0.000000,117.000000) scale(0.100000,-0.100000)"
fill="#000000" stroke="none">
<path d="M311 862 c-12 -8 -13 -54 -8 -276 3 -146 9 -271 13 -277 5 -9 122
-11 492 -6 267 4 487 8 489 10 9 10 15 534 6 540 -18 11 -977 19 -992 9z m953
-199 c4 -98 9 -214 12 -257 l6 -79 -118 6 c-66 4 -236 7 -379 7 l-260 0 3 238
c2 130 5 238 6 239 0 0 140 4 311 8 171 4 312 9 314 11 2 2 26 4 52 4 l47 0 6
-177z m-771 115 c4 -24 7 -130 9 -237 l3 -194 -85 2 c-47 1 -85 3 -86 4 0 1 1
107 4 235 l4 232 73 0 73 0 5 -42z"/>
<path d="M870 803 c-8 -2 -39 -14 -67 -25 -51 -20 -53 -22 -53 -58 0 -38 2
-39 58 -62 86 -34 209 -32 322 6 81 27 137 57 80 42 -113 -28 -232 -47 -275
-43 -54 6 -165 43 -165 56 0 5 24 19 53 32 70 32 196 32 316 0 88 -23 117 -22
57 3 -107 45 -267 69 -326 49z"/>
<path d="M850 541 c-88 -28 -100 -37 -100 -75 0 -31 4 -35 48 -54 70 -30 140
-44 187 -37 61 9 245 67 245 77 0 5 -8 7 -17 4 -76 -23 -199 -46 -250 -46 -57
0 -163 29 -187 50 -12 12 60 46 126 59 60 13 174 -1 281 -33 66 -20 59 -3 -10
23 -148 54 -231 62 -323 32z"/>
</g>
</svg>
