<?xml version="1.0" standalone="no"?>
<!DOCTYPE svg PUBLIC "-//W3C//DTD SVG 20010904//EN"
 "http://www.w3.org/TR/2001/REC-SVG-20010904/DTD/svg10.dtd">
<svg version="1.0" xmlns="http://www.w3.org/2000/svg"
 width="161.000000pt" height="117.000000pt" viewBox="0 0 161.000000 117.000000"
 preserveAspectRatio="xMidYMid meet">
<metadata>
Created by potrace 1.16, written by Peter Selinger 2001-2019
</metadata>
<g transform="translate(0.000000,117.000000) scale(0.100000,-0.100000)"
fill="#000000" stroke="none">
<path d="M311 862 c-12 -8 -13 -54 -8 -276 3 -146 9 -271 13 -277 5 -9 122
-11 492 -6 267 4 487 8 489 10 9 10 15 534 6 540 -18 11 -977 19 -992 9z m953
-189 c3 -93 9 -208 12 -256 l6 -88 -74 3 c-71 3 -73 4 -71 28 1 14 2 125 3
247 1 160 5 223 13 227 7 2 33 5 58 5 l47 1 6 -167z m-154 38 l0 -119 -112 65
c-139 80 -223 123 -243 123 -12 0 -14 -11 -10 -57 3 -32 8 -120 11 -195 3 -76
7 -138 9 -138 5 0 311 173 323 182 7 6 14 9 16 7 2 -2 6 -58 10 -123 l7 -119
-391 5 c-215 3 -392 7 -393 9 -2 2 -2 109 1 236 l4 233 247 3 c135 1 308 3
384 5 l137 2 0 -119z m-308 17 c13 -10 18 -41 23 -140 7 -123 6 -127 -15 -138
-12 -6 -23 -10 -25 -8 -6 6 -10 298 -4 298 3 0 12 -6 21 -12z m169 -84 c61
-30 110 -57 108 -58 -2 -2 -55 -29 -116 -60 l-113 -56 0 115 c0 63 2 115 5
115 3 0 55 -25 116 -56z"/>
</g>
</svg>
