<?xml version="1.0" standalone="no"?>
<!DOCTYPE svg PUBLIC "-//W3C//DTD SVG 20010904//EN"
 "http://www.w3.org/TR/2001/REC-SVG-20010904/DTD/svg10.dtd">
<svg version="1.0" xmlns="http://www.w3.org/2000/svg"
 width="161.000000pt" height="117.000000pt" viewBox="0 0 161.000000 117.000000"
 preserveAspectRatio="xMidYMid meet">
<metadata>
Created by potrace 1.16, written by Peter Selinger 2001-2019
</metadata>
<g transform="translate(0.000000,117.000000) scale(0.100000,-0.100000)"
fill="#000000" stroke="none">
<path d="M311 862 c-12 -8 -13 -54 -8 -276 3 -146 9 -271 13 -277 5 -9 122
-11 492 -6 267 4 487 8 489 10 9 10 15 534 6 540 -18 11 -977 19 -992 9z m953
-189 c3 -93 9 -208 12 -257 l6 -89 -108 6 c-59 4 -229 7 -378 7 l-271 0 3 238
c2 130 5 238 6 239 0 0 140 4 311 8 171 4 312 9 314 11 2 2 26 4 52 4 l47 0 6
-167z m-772 129 c3 -10 6 -92 7 -183 1 -90 4 -189 7 -219 l6 -55 -92 3 -93 3
7 61 c3 34 6 139 6 234 l0 174 74 0 c63 0 74 -3 78 -18z"/>
<path d="M770 791 c-75 -29 -90 -42 -90 -78 0 -28 5 -34 56 -59 81 -40 142
-42 239 -9 60 20 81 23 84 14 12 -38 106 -89 133 -73 4 3 8 54 8 115 0 103 -1
109 -20 109 -28 0 -82 -24 -98 -42 -11 -14 -22 -12 -95 13 -94 33 -153 36
-217 10z m382 -14 c-20 -23 -24 -90 -9 -133 13 -39 13 -41 -4 -37 -23 6 -69
48 -69 63 0 6 7 13 15 16 23 9 18 26 -5 19 -15 -5 -18 -3 -14 9 3 8 12 12 20
9 8 -3 14 -1 14 5 0 6 -6 12 -12 15 -8 2 2 13 22 25 39 25 58 28 42 9z m-159
-24 c49 -13 57 -19 57 -39 0 -25 -19 -33 -130 -54 -65 -12 -109 -5 -174 27
l-49 25 33 21 c73 46 143 52 263 20z"/>
<path d="M1125 558 c-11 -6 -32 -22 -46 -35 l-26 -24 -79 27 c-96 32 -157 30
-238 -10 -51 -25 -56 -30 -56 -61 0 -31 5 -36 56 -61 82 -40 138 -42 239 -9
l83 27 22 -22 c24 -24 61 -40 96 -40 24 0 24 0 24 110 l0 110 -27 0 c-16 0
-37 -6 -48 -12z m21 -24 c-15 -40 -17 -92 -3 -131 l14 -42 -27 14 c-36 19 -59
47 -42 52 6 3 12 8 12 13 0 4 -6 7 -12 6 -7 0 -13 3 -13 9 0 5 6 9 13 7 17 -4
15 9 -4 23 -14 10 -13 14 16 38 35 30 55 35 46 11z m-153 -41 c49 -13 57 -19
57 -39 0 -19 -8 -25 -39 -34 -95 -25 -150 -31 -193 -19 -44 11 -118 46 -118
54 0 9 80 45 117 54 44 10 95 5 176 -16z"/>
</g>
</svg>
