<?xml version="1.0" standalone="no"?>
<!DOCTYPE svg PUBLIC "-//W3C//DTD SVG 20010904//EN"
 "http://www.w3.org/TR/2001/REC-SVG-20010904/DTD/svg10.dtd">
<svg version="1.0" xmlns="http://www.w3.org/2000/svg"
 width="161.000000pt" height="117.000000pt" viewBox="0 0 161.000000 117.000000"
 preserveAspectRatio="xMidYMid meet">
<metadata>
Created by potrace 1.16, written by Peter Selinger 2001-2019
</metadata>
<g transform="translate(0.000000,117.000000) scale(0.100000,-0.100000)"
fill="#000000" stroke="none">
<path d="M311 862 c-12 -8 -13 -54 -8 -276 3 -146 9 -271 13 -277 5 -9 122
-11 492 -6 267 4 487 8 489 10 9 10 15 534 6 540 -18 11 -977 19 -992 9z m953
-189 c3 -93 9 -208 12 -257 l6 -89 -114 6 c-62 4 -232 7 -378 7 l-265 0 3 238
c2 130 5 238 6 238 0 1 143 6 316 11 173 5 336 10 361 11 l47 2 6 -167z m-771
110 c3 -21 6 -103 6 -183 1 -80 4 -170 7 -200 l6 -55 -92 3 -93 3 7 61 c3 34
6 139 6 234 l0 174 74 0 73 0 6 -37z"/>
<path d="M566 745 c-4 -11 15 -31 64 -67 l70 -51 -50 -23 c-27 -13 -50 -28
-50 -34 0 -10 25 -23 85 -44 17 -6 12 -14 -40 -60 -44 -39 -57 -57 -52 -70 6
-16 15 -17 70 -11 114 12 201 36 294 81 50 24 98 50 106 58 13 13 20 13 63 -3
63 -24 123 -37 109 -23 -21 20 -149 62 -159 52 -20 -20 -26 -8 -24 53 l2 62
-78 33 c-93 41 -200 61 -317 62 -69 0 -88 -3 -93 -15z m160 -62 c1 -24 -1 -43
-4 -43 -4 0 -77 56 -107 82 -6 5 14 8 49 6 l60 -3 2 -42z m59 2 c0 -30 -4 -41
-17 -43 -15 -3 -18 4 -18 43 0 39 3 46 18 43 13 -2 17 -13 17 -43z m63 -8 c3
-33 1 -38 -15 -35 -13 2 -19 14 -21 41 -3 33 -1 38 15 35 13 -2 19 -14 21 -41z
m50 -11 c2 -28 0 -37 -10 -34 -7 3 -14 22 -16 42 -2 28 0 37 10 34 7 -3 14
-22 16 -42z m62 -12 c0 -28 -3 -35 -17 -32 -26 5 -27 68 -1 68 14 0 18 -8 18
-36z m58 4 c7 -7 12 -20 12 -31 0 -32 -44 -18 -48 16 -4 29 14 37 36 15z
m-228 -78 c0 -34 -3 -40 -21 -40 -18 0 -19 2 -9 15 7 9 8 15 2 15 -5 0 -9 11
-8 25 1 17 7 25 19 25 13 0 17 -9 17 -40z m58 6 c3 -26 -10 -45 -30 -46 -5 0
-8 18 -8 41 0 33 3 40 18 37 10 -2 18 -14 20 -32z m-118 -12 c0 -38 0 -38 -70
-12 -24 9 -24 9 15 28 54 25 55 25 55 -16z m170 12 c0 -13 -7 -26 -15 -30 -11
-4 -15 2 -15 24 0 20 5 30 15 30 9 0 15 -9 15 -24z m60 -1 c0 -8 -9 -15 -20
-15 -11 0 -20 7 -20 15 0 8 9 15 20 15 11 0 20 -7 20 -15z m70 -33 c0 -21 -7
-32 -25 -40 -24 -11 -25 -10 -25 18 0 17 7 33 18 39 27 16 32 13 32 -17z m-74
-58 c-3 -8 -12 -14 -21 -14 -22 0 -20 56 3 69 14 8 18 5 20 -15 2 -14 1 -32
-2 -40z m-56 6 c0 -29 -4 -40 -15 -40 -10 0 -15 10 -15 34 0 29 6 38 28 45 1
1 2 -17 2 -39z m-52 -17 c-2 -27 -8 -39 -20 -41 -15 -3 -18 4 -18 37 0 35 3
41 21 41 17 0 20 -5 17 -37z m-120 -58 c-2 -1 -25 -6 -53 -10 l-50 -7 50 52
50 51 3 -42 c2 -22 2 -42 0 -44z m62 45 c0 -33 -3 -40 -20 -40 -17 0 -20 7
-20 40 0 33 3 40 20 40 17 0 20 -7 20 -40z"/>
<path d="M1138 688 c-38 -17 -68 -37 -68 -45 0 -8 3 -13 8 -11 66 31 142 74
142 80 0 12 -9 9 -82 -24z"/>
</g>
</svg>
