<?xml version="1.0" standalone="no"?>
<!DOCTYPE svg PUBLIC "-//W3C//DTD SVG 20010904//EN"
 "http://www.w3.org/TR/2001/REC-SVG-20010904/DTD/svg10.dtd">
<svg version="1.0" xmlns="http://www.w3.org/2000/svg"
 width="161.000000pt" height="117.000000pt" viewBox="0 0 161.000000 117.000000"
 preserveAspectRatio="xMidYMid meet">
<metadata>
Created by potrace 1.16, written by Peter Selinger 2001-2019
</metadata>
<g transform="translate(0.000000,117.000000) scale(0.100000,-0.100000)"
fill="#000000" stroke="none">
<path d="M311 862 c-12 -8 -13 -54 -8 -276 3 -146 9 -271 13 -277 5 -9 122
-11 492 -6 267 4 487 8 489 10 9 10 15 534 6 540 -18 11 -977 19 -992 9z m953
-189 c3 -93 9 -208 12 -257 l6 -89 -114 6 c-62 4 -232 7 -378 7 l-265 0 3 238
c2 130 5 238 6 238 0 1 143 6 316 11 173 5 336 10 361 11 l47 2 6 -167z m-772
129 c3 -10 6 -92 7 -183 1 -90 4 -189 7 -219 l6 -55 -92 3 -93 3 7 61 c3 34 6
139 6 234 l0 174 74 0 c63 0 74 -3 78 -18z"/>
<path d="M907 793 c-4 -3 -7 -14 -7 -23 0 -14 -16 -16 -150 -12 -137 4 -150 3
-150 -13 0 -16 13 -17 150 -14 l150 4 0 -32 0 -31 -150 5 c-137 6 -150 5 -150
-11 0 -15 15 -17 148 -15 l147 1 3 -31 3 -31 -150 6 c-136 6 -151 5 -151 -9 0
-15 18 -17 155 -17 l155 0 0 -32 0 -31 -155 6 c-133 6 -155 5 -155 -8 0 -13
25 -15 155 -15 155 0 155 0 155 -23 l0 -23 -155 4 c-143 4 -155 3 -155 -13 0
-16 12 -17 155 -13 125 4 155 2 155 -9 0 -25 23 -12 91 52 l69 65 33 -20 c17
-11 42 -20 55 -20 21 0 22 3 22 95 0 105 -5 111 -64 80 -28 -15 -29 -15 -111
60 -86 78 -87 79 -98 68z m130 -130 c29 -25 32 -32 27 -69 -5 -35 -16 -50 -70
-98 l-64 -57 0 156 0 157 38 -31 c20 -17 51 -43 69 -58z m97 -18 c-7 -16 -24
-21 -24 -6 0 8 7 13 27 20 1 1 0 -6 -3 -14z m-26 -47 c2 -9 -4 -18 -13 -21
-11 -5 -15 0 -15 19 0 28 23 29 28 2z m19 -63 c13 -28 7 -31 -21 -10 -10 7
-15 18 -11 24 10 17 19 13 32 -14z"/>
</g>
</svg>
