<?xml version="1.0" standalone="no"?>
<!DOCTYPE svg PUBLIC "-//W3C//DTD SVG 20010904//EN"
 "http://www.w3.org/TR/2001/REC-SVG-20010904/DTD/svg10.dtd">
<svg version="1.0" xmlns="http://www.w3.org/2000/svg"
 width="193.000000pt" height="129.000000pt" viewBox="0 0 193.000000 129.000000"
 preserveAspectRatio="xMidYMid meet">
<metadata>
Created by potrace 1.16, written by Peter Selinger 2001-2019
</metadata>
<g transform="translate(0.000000,129.000000) scale(0.100000,-0.100000)"
fill="#000000" stroke="none">
<path d="M714 926 c-34 -36 -73 -87 -85 -113 l-24 -48 -152 4 -153 3 0 -48 c0
-27 3 -79 6 -115 l7 -67 106 4 c58 2 125 6 147 9 39 4 43 2 55 -27 19 -47 102
-169 137 -201 16 -16 36 -27 44 -25 7 1 142 69 300 151 158 81 291 147 294
147 4 0 56 -23 116 -50 118 -54 118 -54 118 -41 0 7 -229 131 -244 131 -3 0
-6 -6 -6 -14 0 -7 -35 -29 -77 -49 -43 -19 -179 -83 -302 -142 -176 -84 -225
-104 -233 -94 -45 69 -95 161 -114 215 -47 128 -24 227 80 340 l51 55 300
-142 300 -142 123 63 c67 35 122 67 122 72 0 4 -2 8 -5 8 -7 0 -229 -102 -241
-111 -6 -5 -73 24 -165 72 -208 109 -427 219 -436 219 -4 0 -35 -29 -69 -64z
m-119 -266 l0 -81 -130 3 -130 3 -3 72 -3 72 73 4 c40 1 100 4 133 5 l60 2 0
-80z"/>
<path d="M310 890 l0 -23 171 6 c156 5 190 9 178 21 -2 2 -82 8 -176 11 l-173
8 0 -23z"/>
<path d="M793 764 c-6 -17 4 -171 13 -185 5 -8 164 -2 192 6 8 3 12 31 12 93
l0 89 -77 7 c-113 9 -133 8 -140 -10z m191 -66 c12 -105 18 -98 -81 -98 l-88
0 3 75 4 75 77 0 78 0 7 -52z"/>
<path d="M310 430 l0 -23 172 7 c162 6 188 9 177 21 -3 2 -83 8 -177 11 l-172
7 0 -23z"/>
</g>
</svg>
