<?xml version="1.0" standalone="no"?>
<!DOCTYPE svg PUBLIC "-//W3C//DTD SVG 20010904//EN"
 "http://www.w3.org/TR/2001/REC-SVG-20010904/DTD/svg10.dtd">
<svg version="1.0" xmlns="http://www.w3.org/2000/svg"
 width="193.000000pt" height="129.000000pt" viewBox="0 0 193.000000 129.000000"
 preserveAspectRatio="xMidYMid meet">
<metadata>
Created by potrace 1.16, written by Peter Selinger 2001-2019
</metadata>
<g transform="translate(0.000000,129.000000) scale(0.100000,-0.100000)"
fill="#000000" stroke="none">
<path d="M714 926 c-34 -36 -73 -87 -85 -113 l-24 -48 -152 3 -153 4 0 -49 c0
-26 3 -78 6 -115 l7 -67 116 5 c64 3 130 7 148 9 27 3 33 -1 44 -27 32 -77
147 -228 174 -228 5 0 142 68 302 150 161 83 297 150 302 150 5 0 59 -24 120
-53 l111 -54 0 159 c0 87 -2 158 -5 158 -9 0 -229 -101 -241 -111 -6 -5 -70
23 -165 72 -208 109 -427 219 -436 219 -4 0 -35 -29 -69 -64z m90 16 c3 -5
-29 -42 -71 -83 -56 -55 -71 -66 -60 -43 18 34 104 134 117 134 5 0 11 -4 14
-8z m49 -24 c15 -12 4 -26 -103 -133 l-120 -120 0 39 c0 35 8 47 92 132 50 52
97 94 103 94 6 0 19 -6 28 -12z m57 -28 c16 -8 1 -27 -120 -146 -76 -75 -142
-136 -147 -135 -4 0 -10 10 -11 22 -3 17 25 51 119 145 68 68 127 124 132 124
5 0 17 -4 27 -10z m60 -30 c12 -8 -17 -41 -145 -170 -88 -88 -155 -160 -150
-160 6 0 81 72 168 160 l159 159 54 -27 54 -26 -192 -196 -193 -195 197 194
c194 192 197 195 224 182 l28 -12 -207 -207 c-228 -228 -208 -217 -253 -135
l-18 34 180 182 179 182 -182 -179 -182 -180 -21 48 c-11 26 -20 53 -20 59 0
14 281 297 295 297 5 0 17 -5 25 -10z m639 -205 c1 -69 1 -125 -2 -125 -2 0
-48 24 -103 53 -132 71 -132 77 -7 143 54 29 101 52 104 53 3 1 7 -55 8 -124z
m-397 94 c19 -10 7 -25 -163 -196 -128 -129 -197 -191 -227 -204 -52 -22 -52
-23 -52 -7 0 14 400 418 413 418 5 0 18 -5 29 -11z m-617 -89 l0 -81 -130 3
-130 3 -3 72 -3 72 73 4 c40 1 100 4 133 5 l60 2 0 -80z m692 56 c1 -1 -57
-62 -130 -135 -107 -108 -145 -140 -202 -168 l-70 -35 175 176 c155 156 178
176 200 171 14 -4 26 -8 27 -9z m-14 -109 c-43 -43 -95 -87 -116 -98 -95 -49
-91 -39 27 80 111 111 121 118 143 108 24 -10 23 -12 -54 -90z m105 32 c-2
-18 -21 -33 -78 -62 l-75 -38 70 70 c68 70 90 77 83 30z"/>
<path d="M310 890 l0 -23 171 6 c156 5 190 9 178 21 -2 2 -82 8 -176 11 l-173
8 0 -23z"/>
<path d="M310 430 l0 -23 172 7 c162 6 188 9 177 21 -3 2 -83 8 -177 11 l-172
7 0 -23z"/>
</g>
</svg>
