<?xml version="1.0" standalone="no"?>
<!DOCTYPE svg PUBLIC "-//W3C//DTD SVG 20010904//EN"
 "http://www.w3.org/TR/2001/REC-SVG-20010904/DTD/svg10.dtd">
<svg version="1.0" xmlns="http://www.w3.org/2000/svg"
 width="193.000000pt" height="129.000000pt" viewBox="0 0 193.000000 129.000000"
 preserveAspectRatio="xMidYMid meet">
<metadata>
Created by potrace 1.16, written by Peter Selinger 2001-2019
</metadata>
<g transform="translate(0.000000,129.000000) scale(0.100000,-0.100000)"
fill="#000000" stroke="none">
<path d="M714 926 c-34 -36 -73 -87 -85 -113 l-24 -48 -152 4 -153 3 0 -48 c0
-27 3 -79 6 -115 l7 -67 106 4 c58 2 125 6 147 9 39 4 43 2 55 -27 19 -47 102
-169 137 -201 16 -16 36 -27 44 -25 7 1 142 69 300 151 158 81 291 147 294
147 4 0 56 -23 116 -50 118 -54 118 -54 118 -41 0 7 -229 131 -244 131 -3 0
-6 -6 -6 -14 0 -7 -35 -29 -77 -49 -43 -19 -179 -83 -302 -142 -176 -84 -225
-104 -233 -94 -45 69 -95 161 -114 215 -47 128 -24 227 80 340 l51 55 300
-142 300 -142 123 63 c67 35 122 67 122 72 0 4 -2 8 -5 8 -7 0 -229 -102 -241
-111 -6 -5 -73 24 -165 72 -208 109 -427 219 -436 219 -4 0 -35 -29 -69 -64z
m-119 -266 l0 -81 -130 3 -130 3 -3 72 -3 72 73 4 c40 1 100 4 133 5 l60 2 0
-80z"/>
<path d="M310 890 l0 -23 171 6 c156 5 190 9 178 21 -2 2 -82 8 -176 11 l-173
8 0 -23z"/>
<path d="M830 764 c-62 -109 -60 -143 26 -296 14 -27 33 -48 41 -48 13 0 13 3
3 15 -9 11 -10 41 -5 115 l7 100 134 0 c83 0 134 4 134 10 0 6 -52 10 -135 10
l-135 0 0 85 c0 108 -12 110 -70 9z m42 4 c-7 -7 -12 -8 -12 -2 0 14 12 26 19
19 2 -3 -1 -11 -7 -17z m-2 -38 c0 -5 -7 -10 -15 -10 -8 0 -15 5 -15 10 0 6 7
10 15 10 8 0 15 -4 15 -10z m0 -30 c0 -5 -12 -10 -27 -9 l-28 1 25 8 c14 4 26
8 28 9 1 1 2 -3 2 -9z m-40 -40 c0 -5 9 -10 20 -10 11 0 20 -4 20 -10 0 -5
-13 -10 -30 -10 -23 0 -30 4 -30 20 0 11 5 20 10 20 6 0 10 -4 10 -10z m40
-66 c0 -10 -7 -14 -22 -12 -32 5 -35 28 -4 28 17 0 26 -5 26 -16z m-4 -51 c-3
-3 -13 -2 -23 2 -17 7 -17 8 2 15 19 7 34 -5 21 -17z m1 -45 c-3 -8 -6 -5 -6
6 -1 11 2 17 5 13 3 -3 4 -12 1 -19z"/>
<path d="M310 430 l0 -23 172 7 c162 6 188 9 177 21 -3 2 -83 8 -177 11 l-172
7 0 -23z"/>
</g>
</svg>
