<?xml version="1.0" standalone="no"?>
<!DOCTYPE svg PUBLIC "-//W3C//DTD SVG 20010904//EN"
 "http://www.w3.org/TR/2001/REC-SVG-20010904/DTD/svg10.dtd">
<svg version="1.0" xmlns="http://www.w3.org/2000/svg"
 width="193.000000pt" height="129.000000pt" viewBox="0 0 193.000000 129.000000"
 preserveAspectRatio="xMidYMid meet">
<metadata>
Created by potrace 1.16, written by Peter Selinger 2001-2019
</metadata>
<g transform="translate(0.000000,129.000000) scale(0.100000,-0.100000)"
fill="#000000" stroke="none">
<path d="M714 926 c-34 -36 -73 -87 -85 -113 l-24 -48 -152 4 -153 3 0 -48 c0
-27 3 -79 6 -115 l7 -67 106 4 c58 2 125 6 147 9 39 4 43 2 55 -27 19 -47 102
-169 137 -201 16 -16 36 -27 44 -25 7 1 142 69 300 151 158 81 291 147 294
147 4 0 56 -23 116 -50 118 -54 118 -54 118 -41 0 7 -229 131 -244 131 -3 0
-6 -6 -6 -14 0 -7 -35 -29 -77 -49 -43 -19 -179 -83 -302 -142 -176 -84 -225
-104 -233 -94 -45 69 -95 161 -114 215 -47 128 -24 227 80 340 l51 55 230
-109 c127 -60 262 -123 302 -141 l71 -33 121 63 c67 35 121 67 121 71 0 4 -2
8 -5 8 -7 0 -229 -102 -241 -111 -6 -5 -73 24 -165 72 -208 109 -427 219 -436
219 -4 0 -35 -29 -69 -64z m-119 -266 l0 -81 -130 3 -130 3 -3 72 -3 72 73 4
c40 1 100 4 133 5 l60 2 0 -80z"/>
<path d="M310 890 l0 -23 171 6 c156 5 190 9 178 21 -2 2 -82 8 -176 11 l-173
8 0 -23z"/>
<path d="M889 780 l-32 -40 -74 0 -74 0 3 -82 3 -83 74 -3 c69 -3 77 -5 114
-38 21 -19 42 -34 46 -32 25 11 262 151 265 157 6 10 -255 161 -277 161 -9 0
-31 -18 -48 -40z m175 -49 l128 -68 -54 -31 -53 -31 -3 49 c-4 67 -22 64 -22
-4 l0 -55 -54 -30 c-65 -38 -79 -38 -100 -6 -15 24 -15 25 2 25 10 0 23 5 30
12 14 14 16 108 2 108 -5 0 -10 -9 -10 -20 0 -11 -4 -20 -10 -20 -5 0 -10 9
-10 20 0 11 -4 20 -10 20 -5 0 -10 -9 -10 -20 0 -11 -7 -20 -15 -20 -8 0 -15
6 -15 14 0 30 13 46 36 46 13 0 24 5 24 10 0 6 -7 10 -16 10 -13 0 -12 5 6 30
12 17 22 30 24 30 1 0 60 -31 130 -69z m-297 -58 c-3 -10 -5 -2 -5 17 0 19 2
27 5 18 2 -10 2 -26 0 -35z m43 17 c0 -16 -4 -30 -10 -30 -5 0 -10 14 -10 30
0 17 5 30 10 30 6 0 10 -13 10 -30z m32 5 c-2 -14 -6 -25 -8 -25 -2 0 -4 11
-4 25 0 14 4 25 9 25 4 0 6 -11 3 -25z m-105 -22 c-3 -10 -5 -4 -5 12 0 17 2
24 5 18 2 -7 2 -21 0 -30z m12 -50 c1 9 6 17 11 17 6 0 11 -8 11 -17 1 -17 2
-17 6 0 2 9 11 17 19 17 8 0 14 -8 14 -17 1 -16 2 -16 15 1 8 11 15 15 15 9 0
-6 3 -18 6 -27 5 -14 -3 -16 -55 -16 -60 0 -61 0 -60 28 0 24 1 25 9 7 7 -17
9 -17 9 -2z m141 -10 c-1 -27 -1 -27 -15 -9 -19 25 -19 36 0 36 10 0 15 -10
15 -27z m40 2 c0 -16 -6 -25 -16 -25 -11 0 -14 5 -10 16 3 9 6 20 6 25 0 5 5
9 10 9 6 0 10 -11 10 -25z"/>
<path d="M970 645 c0 -55 19 -80 21 -27 0 15 3 39 5 55 3 20 1 27 -11 27 -12
0 -15 -12 -15 -55z"/>
<path d="M1020 644 c0 -34 4 -53 10 -49 6 3 10 28 10 56 0 27 -4 49 -10 49 -5
0 -10 -25 -10 -56z"/>
<path d="M310 430 l0 -23 172 7 c162 6 188 9 177 21 -3 2 -83 8 -177 11 l-172
7 0 -23z"/>
</g>
</svg>
