<?xml version="1.0" standalone="no"?>
<!DOCTYPE svg PUBLIC "-//W3C//DTD SVG 20010904//EN"
 "http://www.w3.org/TR/2001/REC-SVG-20010904/DTD/svg10.dtd">
<svg version="1.0" xmlns="http://www.w3.org/2000/svg"
 width="205.000000pt" height="140.000000pt" viewBox="0 0 205.000000 140.000000"
 preserveAspectRatio="xMidYMid meet">
<metadata>
Created by potrace 1.16, written by Peter Selinger 2001-2019
</metadata>
<g transform="translate(0.000000,140.000000) scale(0.100000,-0.100000)"
fill="#000000" stroke="none">
<path d="M754 1087 c-6 -7 -28 -35 -49 -63 -20 -27 -39 -51 -40 -52 -5 -5
-308 -2 -334 3 -17 3 -21 -1 -21 -20 l0 -24 113 5 c61 2 138 6 170 8 42 3 57
1 54 -7 -2 -7 -15 -40 -27 -75 l-23 -62 -146 2 c-170 3 -157 15 -146 -130 l7
-95 154 6 c133 6 154 5 154 -8 0 -9 14 -45 30 -82 l30 -66 -185 7 -185 8 0
-23 0 -22 190 6 190 5 25 -43 c25 -41 55 -75 55 -61 0 4 -16 38 -35 77 -51
100 -95 240 -102 319 -8 90 20 182 86 283 l50 76 293 -145 c161 -81 301 -153
310 -161 15 -14 25 -11 95 27 43 23 115 65 161 92 46 28 85 48 86 47 7 -8 14
-429 8 -425 -4 2 -47 28 -97 58 -49 30 -125 73 -167 96 -71 39 -77 40 -83 23
-4 -13 -66 -51 -173 -107 -228 -118 -421 -224 -427 -234 -3 -4 1 -12 8 -18 13
-10 85 28 419 224 l176 104 174 -85 c95 -47 175 -90 176 -95 2 -6 8 -10 13
-10 5 0 9 107 9 255 0 140 -3 255 -6 255 -3 0 -89 -41 -191 -90 l-185 -91
-172 94 c-198 109 -421 227 -427 227 -2 -1 -9 -6 -15 -13z m-156 -373 c1 -36
4 -75 8 -87 6 -19 4 -20 -62 -14 -38 4 -102 7 -141 7 l-73 0 0 75 0 74 113 4
c61 1 121 4 133 5 19 2 21 -3 22 -64z"/>
<path d="M950 819 c-37 -17 -61 -20 -130 -17 -51 2 -86 -1 -87 -7 -2 -6 31
-10 82 -10 109 0 108 -19 -1 -23 -108 -4 -122 -22 -16 -22 48 0 82 -4 82 -10
0 -6 -31 -10 -74 -10 -41 0 -78 -4 -81 -10 -4 -6 23 -10 74 -10 45 0 81 -4 81
-9 0 -4 -34 -8 -75 -7 -44 1 -74 -3 -74 -9 -1 -6 31 -10 73 -10 41 0 78 -3 82
-7 4 -5 -32 -8 -79 -8 -51 0 -87 -4 -87 -10 0 -6 38 -10 95 -10 58 0 95 -4 95
-10 0 -7 -32 -10 -87 -8 -54 2 -88 -1 -88 -7 0 -6 38 -10 95 -10 52 0 104 -5
115 -11 44 -25 75 -25 122 -2 32 16 51 34 62 58 l16 35 50 -11 c104 -25 115
-8 15 20 -81 23 -78 43 8 69 79 24 72 39 -9 20 -61 -14 -62 -14 -88 11 -26 25
-89 56 -113 56 -7 0 -33 -10 -58 -21z m50 -120 c0 -110 0 -110 -22 -103 -83
25 -99 150 -25 194 18 11 35 20 40 20 4 0 7 -50 7 -111z m73 96 c27 -11 38
-23 46 -49 14 -53 -5 -114 -43 -137 -54 -33 -56 -30 -56 91 0 61 4 110 9 110
5 0 25 -7 44 -15z"/>
</g>
</svg>
