<?xml version="1.0" standalone="no"?>
<!DOCTYPE svg PUBLIC "-//W3C//DTD SVG 20010904//EN"
 "http://www.w3.org/TR/2001/REC-SVG-20010904/DTD/svg10.dtd">
<svg version="1.0" xmlns="http://www.w3.org/2000/svg"
 width="193.000000pt" height="134.000000pt" viewBox="0 0 193.000000 134.000000"
 preserveAspectRatio="xMidYMid meet">
<metadata>
Created by potrace 1.16, written by Peter Selinger 2001-2019
</metadata>
<g transform="translate(0.000000,134.000000) scale(0.100000,-0.100000)"
fill="#000000" stroke="none">
<path d="M316 1025 c-7 -20 11 -27 155 -59 142 -31 206 -41 196 -30 -9 10 -35
18 -212 69 -138 40 -131 40 -139 20z"/>
<path d="M723 982 c-33 -33 -74 -88 -92 -123 -19 -35 -35 -65 -36 -67 -1 -1
-62 5 -135 13 -73 9 -140 13 -148 10 -11 -4 -13 -25 -10 -110 3 -58 7 -107 10
-110 3 -3 52 2 109 11 57 8 120 18 139 21 l36 5 41 -83 c50 -100 128 -199 156
-199 18 0 442 213 555 278 l43 25 82 -38 c45 -21 99 -46 120 -56 l37 -17 0
159 0 158 -77 -33 c-43 -18 -101 -45 -130 -60 l-52 -26 -295 151 -295 150 -58
-59z m361 -127 c159 -74 295 -135 304 -135 8 0 58 23 110 51 73 39 97 47 103
37 5 -7 9 -64 9 -125 l0 -112 -51 30 c-29 16 -78 43 -110 59 -52 27 -59 28
-67 14 -10 -18 -565 -285 -596 -288 -13 -1 -32 22 -67 83 -90 157 -110 261
-65 356 27 58 111 165 129 165 7 0 143 -61 301 -135z m-593 -85 l99 0 0 -59 0
-58 -115 -7 c-64 -4 -122 -9 -130 -12 -12 -5 -15 7 -15 71 l0 78 31 -7 c17 -3
76 -6 130 -6z"/>
<path d="M710 710 l0 -80 235 0 c180 0 237 3 240 13 3 6 6 39 7 72 l3 60 -100
6 c-55 4 -164 7 -242 8 l-143 1 0 -80z m90 0 l0 -50 -35 0 c-33 0 -34 1 -30
38 2 20 4 43 4 50 1 7 14 12 31 12 29 0 30 -1 30 -50z m70 0 c0 -47 -2 -50
-25 -50 -23 0 -25 3 -25 50 0 47 2 50 25 50 23 0 25 -3 25 -50z m60 0 c0 -43
-3 -50 -20 -50 -17 0 -20 7 -20 50 0 43 3 50 20 50 17 0 20 -7 20 -50z m54 28
c12 -48 7 -78 -14 -78 -17 0 -20 7 -20 50 0 36 4 50 14 50 7 0 16 -10 20 -22z
m56 -2 c0 -13 3 -37 6 -54 6 -28 4 -30 -15 -25 -18 4 -21 13 -21 54 0 37 4 49
15 49 9 0 15 -9 15 -24z m70 -32 c0 -50 -2 -55 -20 -52 -12 2 -21 6 -20 11 0
4 0 27 0 52 0 38 3 45 20 45 18 0 20 -7 20 -56z m60 1 c0 -48 -2 -55 -20 -55
-18 0 -20 7 -20 55 0 48 2 55 20 55 18 0 20 -7 20 -55z"/>
<path d="M505 414 c-77 -36 -146 -68 -152 -71 -15 -6 -16 -13 -4 -31 7 -12 14
-11 42 3 55 28 279 157 279 161 0 12 -40 -3 -165 -62z"/>
</g>
</svg>
