<?xml version="1.0" standalone="no"?>
<!DOCTYPE svg PUBLIC "-//W3C//DTD SVG 20010904//EN"
 "http://www.w3.org/TR/2001/REC-SVG-20010904/DTD/svg10.dtd">
<svg version="1.0" xmlns="http://www.w3.org/2000/svg"
 width="193.000000pt" height="129.000000pt" viewBox="0 0 193.000000 129.000000"
 preserveAspectRatio="xMidYMid meet">
<metadata>
Created by potrace 1.16, written by Peter Selinger 2001-2019
</metadata>
<g transform="translate(0.000000,129.000000) scale(0.100000,-0.100000)"
fill="#000000" stroke="none">
<path d="M714 926 c-34 -36 -73 -87 -85 -113 l-24 -48 -152 4 -153 3 0 -48 c0
-27 3 -79 6 -115 l7 -67 106 4 c58 2 125 6 147 9 39 4 43 2 55 -27 19 -47 102
-169 137 -201 16 -16 36 -27 44 -25 7 1 143 70 301 151 217 111 294 146 310
141 12 -4 66 -28 119 -54 l98 -47 0 159 c0 87 -2 158 -5 158 -7 0 -229 -102
-241 -111 -6 -5 -73 24 -165 72 -208 109 -427 219 -436 219 -4 0 -35 -29 -69
-64z m381 -121 l290 -137 105 53 c57 30 107 55 111 57 3 1 7 -54 8 -124 1 -69
-1 -124 -6 -122 -4 2 -54 27 -110 56 -57 28 -105 52 -108 52 -3 0 -5 -6 -5
-14 0 -7 -35 -29 -77 -49 -43 -19 -179 -83 -302 -142 -176 -84 -225 -104 -233
-94 -133 199 -166 332 -112 444 31 62 121 168 138 161 6 -2 142 -66 301 -141z
m-500 -145 l0 -81 -130 3 -130 3 -3 72 -3 72 73 4 c40 1 100 4 133 5 l60 2 0
-80z"/>
<path d="M855 820 c-4 -6 10 -47 31 -91 l38 -80 -39 -79 c-29 -59 -36 -83 -28
-91 12 -12 42 9 170 119 l62 53 -39 35 c-55 50 -174 144 -182 144 -4 0 -10 -5
-13 -10z m133 -108 c39 -30 72 -57 71 -60 0 -8 -163 -132 -167 -128 -1 2 9 31
24 65 l27 61 -23 53 c-12 28 -24 58 -27 66 -8 17 0 13 95 -57z"/>
<path d="M310 890 l0 -23 171 6 c156 5 190 9 178 21 -2 2 -82 8 -176 11 l-173
8 0 -23z"/>
<path d="M310 430 l0 -23 172 7 c162 6 188 9 177 21 -3 2 -83 8 -177 11 l-172
7 0 -23z"/>
</g>
</svg>
