<?xml version="1.0" standalone="no"?>
<!DOCTYPE svg PUBLIC "-//W3C//DTD SVG 20010904//EN"
 "http://www.w3.org/TR/2001/REC-SVG-20010904/DTD/svg10.dtd">
<svg version="1.0" xmlns="http://www.w3.org/2000/svg"
 width="193.000000pt" height="129.000000pt" viewBox="0 0 193.000000 129.000000"
 preserveAspectRatio="xMidYMid meet">
<metadata>
Created by potrace 1.16, written by Peter Selinger 2001-2019
</metadata>
<g transform="translate(0.000000,129.000000) scale(0.100000,-0.100000)"
fill="#000000" stroke="none">
<path d="M715 927 c-33 -35 -71 -86 -84 -113 l-23 -49 -142 3 c-77 2 -141 5
-142 5 0 1 1 23 4 50 l4 47 87 0 c119 0 254 11 244 21 -4 4 -85 11 -180 15
l-172 7 -7 -27 c-3 -14 -3 -56 1 -93 l7 -66 141 7 142 7 1 -81 0 -82 -143 4
c-167 4 -161 8 -148 -109 l7 -66 171 7 c94 3 173 9 176 11 11 12 -16 15 -173
22 -138 5 -166 9 -161 20 3 8 5 27 5 43 0 26 3 28 53 34 28 3 92 7 140 8 l88
2 19 -42 c36 -79 139 -212 165 -212 7 0 143 68 304 151 222 114 297 148 314
143 12 -4 66 -28 119 -54 l98 -47 0 159 c0 87 -2 158 -5 158 -7 0 -229 -102
-241 -111 -6 -5 -68 22 -155 67 -191 101 -437 224 -446 224 -4 0 -35 -28 -68
-63z m380 -122 l290 -137 105 53 c57 30 107 55 111 57 3 1 7 -54 8 -123 1 -69
0 -125 -3 -125 -3 0 -51 25 -106 55 -107 58 -120 63 -120 41 0 -7 -33 -28 -72
-46 -40 -18 -174 -82 -297 -142 -123 -59 -227 -108 -230 -108 -10 0 -95 149
-121 210 -12 30 -25 83 -28 118 -4 55 -1 69 26 125 35 70 119 171 136 163 6
-2 142 -66 301 -141z"/>
<path d="M761 786 c-68 -25 -65 -60 8 -85 46 -15 98 -14 157 4 27 8 52 15 57
15 4 0 7 -22 7 -48 l0 -48 -72 18 c-75 19 -138 15 -189 -12 -47 -26 -9 -66 80
-83 29 -6 125 9 174 28 14 6 17 1 18 -31 1 -34 2 -36 9 -14 4 14 8 49 9 78 l1
52 120 0 c73 0 120 4 120 10 0 6 -20 11 -45 11 -25 1 -49 3 -55 4 -5 1 -39 3
-75 4 l-65 1 0 43 c0 49 -7 62 -26 46 -9 -7 -28 -6 -65 5 -62 19 -121 19 -168
2z m186 -27 c55 -14 43 -24 -47 -38 -93 -15 -198 14 -138 38 33 14 131 13 185
0z m-13 -140 c64 -13 63 -21 -6 -38 -58 -14 -102 -14 -150 0 -106 29 32 62
156 38z"/>
</g>
</svg>
