<?xml version="1.0" standalone="no"?>
<!DOCTYPE svg PUBLIC "-//W3C//DTD SVG 20010904//EN"
 "http://www.w3.org/TR/2001/REC-SVG-20010904/DTD/svg10.dtd">
<svg version="1.0" xmlns="http://www.w3.org/2000/svg"
 width="261.000000pt" height="139.000000pt" viewBox="0 0 261.000000 139.000000"
 preserveAspectRatio="xMidYMid meet">
<metadata>
Created by potrace 1.16, written by Peter Selinger 2001-2019
</metadata>
<g transform="translate(0.000000,139.000000) scale(0.100000,-0.100000)"
fill="#000000" stroke="none">
<path d="M750 1080 c0 -5 -7 -10 -15 -10 -8 0 -15 -4 -15 -8 0 -17 89 -181
145 -267 32 -49 58 -94 58 -100 0 -5 -26 -50 -58 -100 -56 -86 -145 -250 -145
-267 0 -4 7 -8 15 -8 8 0 15 -4 15 -10 0 -5 4 -10 8 -10 5 0 100 63 212 140
113 77 207 135 211 129 9 -15 137 -56 230 -74 166 -31 304 -16 539 60 134 44
341 122 354 135 11 11 -26 30 -179 85 -311 113 -482 150 -625 134 -128 -14
-304 -64 -320 -90 -3 -4 -97 55 -210 131 -112 77 -207 140 -212 140 -4 0 -8
-4 -8 -10z m448 -319 c56 -35 102 -64 102 -66 0 -2 -46 -31 -102 -66 -57 -35
-174 -109 -260 -166 -87 -56 -158 -100 -158 -98 0 3 36 74 80 158 44 85 80
162 80 172 0 10 -36 87 -80 171 -44 84 -80 155 -80 158 0 3 71 -41 158 -97 86
-57 203 -131 260 -166z m612 85 c102 -23 431 -127 458 -145 23 -14 -277 -115
-482 -163 -126 -29 -280 -29 -401 1 -101 24 -175 50 -175 61 0 4 27 26 60 49
33 23 60 44 60 46 0 2 -30 24 -66 50 -36 26 -64 48 -62 50 2 1 40 15 85 30
182 60 329 66 523 21z"/>
<path d="M300 699 l0 -142 183 7 c100 4 209 9 242 12 l60 6 0 121 0 122 -130
6 c-71 4 -181 7 -242 8 l-113 1 0 -141z m460 4 l0 -108 -117 7 c-65 3 -164 7
-220 7 l-103 1 0 85 c0 60 4 87 13 90 6 2 98 8 202 13 105 5 198 10 208 10 15
2 17 -9 17 -105z"/>
</g>
</svg>
