<?xml version="1.0" standalone="no"?>
<!DOCTYPE svg PUBLIC "-//W3C//DTD SVG 20010904//EN"
 "http://www.w3.org/TR/2001/REC-SVG-20010904/DTD/svg10.dtd">
<svg version="1.0" xmlns="http://www.w3.org/2000/svg"
 width="209.000000pt" height="158.000000pt" viewBox="0 0 209.000000 158.000000"
 preserveAspectRatio="xMidYMid meet">
<metadata>
Created by potrace 1.16, written by Peter Selinger 2001-2019
</metadata>
<g transform="translate(0.000000,158.000000) scale(0.100000,-0.100000)"
fill="#000000" stroke="none">
<path d="M466 1264 c-3 -9 -6 -35 -6 -59 0 -73 -2 -74 -86 -68 -47 4 -74 2
-74 -4 0 -10 68 -23 121 -23 16 0 29 -4 29 -10 0 -5 6 -10 14 -10 7 0 20 -7
27 -16 12 -15 8 -16 -50 -9 -51 6 -63 5 -59 -6 3 -9 25 -15 66 -17 34 -2 62
-7 62 -12 0 -6 6 -10 14 -10 8 0 18 -5 21 -11 5 -7 -12 -10 -51 -8 -33 2 -58
-1 -57 -7 1 -5 13 -10 25 -12 85 -9 108 -14 108 -23 0 -5 -20 -9 -45 -9 -25 0
-45 -4 -45 -9 0 -9 57 -21 103 -21 18 0 27 -5 27 -16 0 -13 -7 -15 -40 -9 -33
6 -40 4 -40 -9 0 -13 12 -16 60 -16 57 0 60 -1 60 -25 0 -14 5 -25 10 -25 6 0
10 8 10 17 0 14 4 12 25 -7 15 -14 25 -35 25 -51 0 -22 6 -29 29 -34 21 -4 51
-31 98 -86 37 -43 69 -83 71 -87 1 -5 -42 -18 -96 -31 l-99 -22 -1 -40 c-1
-24 3 -41 11 -43 21 -6 297 -35 397 -42 65 -4 92 -3 85 4 -8 8 -225 54 -370
78 -38 6 -35 8 80 39 66 19 153 45 194 59 41 14 80 26 88 26 9 0 13 -17 13
-58 0 -101 13 -242 21 -242 5 0 9 51 9 114 l0 113 213 8 c116 4 232 11 257 14
l45 7 -45 7 c-40 6 -301 16 -417 17 l-43 0 0 55 0 55 148 1 c81 1 193 4 250 8
l102 6 0 -46 c0 -68 11 -139 21 -133 5 3 9 47 9 99 0 83 -2 94 -17 94 -10 0
-129 3 -265 7 l-248 7 0 103 c0 69 -4 104 -11 104 -18 0 -316 -60 -421 -85
-95 -22 -123 -20 -112 10 3 7 -5 15 -16 18 -21 5 -22 10 -15 66 4 38 3 61 -3
61 -13 0 -22 -24 -22 -57 0 -20 -3 -23 -13 -15 -9 8 -12 30 -9 72 3 40 1 60
-7 60 -6 0 -11 -11 -11 -24 0 -32 -10 -56 -22 -56 -7 0 -8 23 -4 65 5 55 4 65
-9 65 -11 0 -15 -12 -15 -47 0 -47 0 -47 -19 -28 -16 17 -17 29 -12 78 7 54 2
75 -13 60 -3 -3 -6 -20 -6 -37 0 -17 -5 -38 -10 -46 -8 -13 -11 -11 -16 8 -4
12 -10 22 -13 22 -4 0 -4 24 0 53 10 72 10 97 0 97 -5 0 -12 -7 -15 -16z m129
-314 c3 -5 1 -10 -4 -10 -6 0 -11 5 -11 10 0 6 2 10 4 10 3 0 8 -4 11 -10z
m615 -135 c0 -52 -2 -95 -5 -95 -3 0 -71 13 -152 29 -82 16 -170 33 -198 38
l-50 9 85 21 c47 12 132 38 190 57 58 19 111 34 118 35 9 1 12 -24 12 -94z
m-250 -94 c52 -6 130 -13 173 -17 42 -3 77 -9 77 -14 0 -4 3 -21 6 -37 l6 -30
-99 -17 c-54 -10 -116 -22 -137 -28 -44 -11 -32 -20 -132 106 l-47 58 29 -5
c16 -4 72 -11 124 -16z"/>
</g>
</svg>
