<?xml version="1.0" standalone="no"?>
<!DOCTYPE svg PUBLIC "-//W3C//DTD SVG 20010904//EN"
 "http://www.w3.org/TR/2001/REC-SVG-20010904/DTD/svg10.dtd">
<svg version="1.0" xmlns="http://www.w3.org/2000/svg"
 width="164.000000pt" height="190.000000pt" viewBox="0 0 164.000000 190.000000"
 preserveAspectRatio="xMidYMid meet">
<metadata>
Created by potrace 1.16, written by Peter Selinger 2001-2019
</metadata>
<g transform="translate(0.000000,190.000000) scale(0.100000,-0.100000)"
fill="#000000" stroke="none">
<path d="M352 1592 c-9 -6 -1 -17 27 -40 41 -33 111 -132 156 -221 l26 -53
-39 22 c-82 46 -139 118 -177 222 -13 35 -27 61 -31 58 -32 -19 36 -169 110
-243 80 -81 231 -144 391 -165 l58 -7 -84 -34 c-97 -39 -101 -42 -90 -60 7
-11 31 -3 116 38 103 49 111 51 190 51 57 0 85 -4 88 -12 4 -10 8 -10 14 -1 7
9 162 33 218 33 8 0 15 4 15 8 0 5 -58 7 -130 4 -79 -3 -130 -1 -130 5 0 19
-92 153 -106 153 -8 0 -14 -5 -14 -11 0 -12 53 -93 83 -126 l20 -23 -44 0
c-45 0 -191 16 -241 26 -21 4 -39 24 -78 87 -71 117 -65 111 -84 100 -14 -8
-8 -21 44 -91 33 -45 56 -82 52 -82 -5 0 -35 9 -69 21 l-61 20 -37 90 c-39 95
-85 165 -139 211 -35 31 -36 31 -54 20z"/>
<path d="M352 1232 c-9 -6 -1 -18 29 -42 42 -34 106 -124 154 -219 l27 -54
-39 23 c-87 52 -141 120 -179 224 -12 34 -26 59 -30 56 -31 -18 35 -166 106
-238 81 -82 214 -141 378 -166 l74 -11 -84 -34 c-95 -39 -100 -42 -89 -59 6
-10 33 -1 116 37 102 48 112 51 191 51 56 0 84 -4 87 -12 4 -10 7 -10 14 0 6
7 55 17 121 24 62 6 112 14 112 18 0 4 -58 5 -130 2 -81 -3 -130 -1 -130 5 0
19 -92 153 -106 153 -8 0 -14 -5 -14 -11 0 -12 53 -92 84 -128 l21 -24 -95 7
c-52 4 -123 11 -156 17 l-61 11 -59 94 c-32 52 -60 94 -64 94 -30 -1 -24 -22
30 -98 33 -45 56 -82 51 -82 -4 0 -35 9 -69 21 -60 20 -62 22 -82 77 -35 93
-79 168 -131 222 -50 52 -56 55 -77 42z"/>
<path d="M306 812 c-12 -37 43 -159 102 -224 80 -89 213 -151 384 -178 l78
-13 -81 -32 c-92 -37 -111 -51 -85 -61 10 -4 54 12 114 41 95 47 99 48 182 46
47 -2 90 -7 97 -13 10 -8 13 -6 13 4 0 12 22 16 101 22 56 3 109 11 118 16 11
8 -22 9 -110 4 l-125 -6 -54 86 c-55 87 -66 97 -76 72 -5 -12 30 -68 89 -144
11 -14 -19 -13 -210 10 l-92 10 -45 77 c-63 107 -70 115 -90 108 -18 -7 -7
-27 82 -144 l24 -33 -48 15 c-27 8 -59 18 -70 21 -15 4 -28 22 -39 52 -64 169
-179 315 -218 276 -3 -3 19 -29 49 -58 46 -44 170 -233 159 -244 -5 -6 -61 26
-94 54 -45 37 -84 98 -116 179 -32 83 -32 82 -39 57z"/>
</g>
</svg>
