<?xml version="1.0" standalone="no"?>
<!DOCTYPE svg PUBLIC "-//W3C//DTD SVG 20010904//EN"
 "http://www.w3.org/TR/2001/REC-SVG-20010904/DTD/svg10.dtd">
<svg version="1.0" xmlns="http://www.w3.org/2000/svg"
 width="211.000000pt" height="148.000000pt" viewBox="0 0 211.000000 148.000000"
 preserveAspectRatio="xMidYMid meet">
<metadata>
Created by potrace 1.16, written by Peter Selinger 2001-2019
</metadata>
<g transform="translate(0.000000,148.000000) scale(0.100000,-0.100000)"
fill="#000000" stroke="none">
<path d="M350 1165 c-10 -12 -5 -17 25 -30 59 -24 154 -97 240 -184 l80 -81
-46 0 c-67 0 -134 23 -184 65 -44 35 -145 177 -145 202 0 7 -4 13 -10 13 -18
0 -10 -50 16 -102 37 -72 125 -161 184 -187 41 -18 83 -23 242 -31 106 -5 211
-10 232 -10 l40 0 -30 -22 c-17 -13 -55 -44 -86 -71 -76 -65 -75 -81 13 -154
38 -31 67 -59 64 -61 -2 -2 -64 -1 -137 3 l-133 7 -44 58 c-63 84 -148 168
-208 207 -74 47 -99 55 -114 37 -6 -8 -10 -15 -8 -17 2 -1 30 -15 62 -31 60
-30 142 -99 235 -198 l54 -57 -59 6 c-123 12 -210 78 -290 221 -34 59 -38 64
-41 40 -4 -35 45 -131 97 -190 49 -55 127 -96 197 -104 27 -3 133 -9 236 -12
l187 -7 -85 -69 c-46 -38 -84 -73 -84 -76 0 -4 6 -12 13 -18 9 -8 35 11 104
74 77 71 93 82 103 69 7 -8 17 -15 23 -15 5 0 2 9 -8 20 -18 20 -17 20 51 20
l69 0 -45 -38 c-103 -85 -136 -120 -123 -133 14 -14 22 -8 139 104 53 51 62
56 73 43 8 -9 17 -13 23 -10 5 4 5 11 -1 18 -8 10 1 12 39 12 37 -1 46 -4 37
-12 -7 -7 -45 -40 -85 -74 -68 -58 -81 -79 -55 -87 6 -2 52 35 101 82 51 48
93 81 97 75 3 -5 13 -10 22 -10 11 0 13 3 5 13 -8 9 28 11 175 9 120 -2 190 1
197 8 7 7 -25 10 -105 10 -145 0 -270 10 -263 21 7 11 -3 11 -24 0 -13 -7 -35
8 -100 68 l-82 76 85 79 c64 58 89 76 98 67 17 -17 31 -13 17 4 -11 13 11 15
186 16 138 1 182 4 144 9 -30 5 -116 8 -192 9 -99 1 -138 4 -141 14 -4 9 -7 9
-18 0 -10 -11 -30 4 -106 78 -81 80 -95 90 -109 78 -17 -14 -7 -27 111 -126
l50 -43 -44 0 c-34 0 -42 3 -37 15 7 18 2 19 -23 3 -17 -10 -30 -2 -106 70
-47 45 -90 82 -95 82 -5 0 -12 -5 -16 -12 -7 -11 30 -49 111 -116 l40 -32 -48
0 c-30 0 -46 4 -42 10 8 13 -1 13 -24 -2 -16 -10 -30 -1 -105 68 -48 43 -92
79 -99 79 -29 0 -7 -37 56 -90 37 -32 66 -59 65 -59 -2 -1 -62 0 -135 2 l-132
4 -71 88 c-82 103 -143 158 -221 200 -66 35 -63 34 -79 15z m835 -361 c-73
-54 -162 -135 -162 -149 0 -8 38 -47 84 -85 l84 -70 -41 2 c-24 1 -44 7 -49
16 -7 12 -11 12 -29 1 -18 -11 -27 -7 -90 49 -103 92 -102 78 -13 166 l79 78
26 -17 c26 -18 36 -9 14 13 -9 9 2 12 53 12 59 -1 62 -2 44 -16z m145 -12
c-75 -59 -144 -123 -146 -136 -1 -7 33 -42 75 -77 42 -34 80 -66 86 -71 5 -4
-10 -8 -34 -8 -25 0 -40 4 -36 10 8 12 -1 13 -23 1 -13 -7 -35 8 -100 68 l-84
77 84 76 c62 57 88 74 99 67 22 -14 33 -11 19 6 -11 13 -5 15 41 15 l54 0 -35
-28z"/>
</g>
</svg>
