<?xml version="1.0" standalone="no"?>
<!DOCTYPE svg PUBLIC "-//W3C//DTD SVG 20010904//EN"
 "http://www.w3.org/TR/2001/REC-SVG-20010904/DTD/svg10.dtd">
<svg version="1.0" xmlns="http://www.w3.org/2000/svg"
 width="252.000000pt" height="173.000000pt" viewBox="0 0 252.000000 173.000000"
 preserveAspectRatio="xMidYMid meet">
<metadata>
Created by potrace 1.16, written by Peter Selinger 2001-2019
</metadata>
<g transform="translate(0.000000,173.000000) scale(0.100000,-0.100000)"
fill="#000000" stroke="none">
<path d="M385 1420 c-7 -12 29 -63 159 -225 107 -135 101 -127 85 -119 -8 3
-67 73 -132 155 -103 130 -137 162 -137 130 0 -4 50 -65 110 -136 61 -70 110
-131 110 -135 0 -31 -30 -3 -125 116 -71 88 -112 131 -118 125 -7 -7 -5 -18 6
-33 30 -46 249 -289 254 -284 3 3 0 13 -8 22 -13 16 -12 16 9 5 19 -10 23 -19
20 -49 -4 -45 -29 -54 -46 -17 -7 15 -10 31 -6 36 7 12 -224 249 -243 249 -27
0 -11 -20 92 -116 67 -61 104 -102 100 -111 -2 -8 0 -24 6 -36 7 -11 -36 21
-95 73 -70 61 -110 90 -117 83 -9 -9 56 -68 189 -173 24 -19 59 -60 78 -91 44
-73 114 -142 171 -170 55 -27 130 -35 377 -44 l198 -8 -63 -56 c-143 -126
-136 -118 -116 -138 16 -17 21 -13 116 83 l98 101 27 -19 c29 -22 35 -14 9 14
-15 17 -13 18 63 18 72 -1 77 -2 59 -16 -56 -42 -184 -161 -184 -172 -1 -7 6
-15 15 -19 11 -4 47 25 118 96 89 89 104 100 115 87 8 -9 18 -16 24 -16 7 0 7
4 -1 12 -22 22 -13 28 43 28 30 0 55 -3 54 -7 0 -5 -19 -23 -42 -42 -61 -48
-147 -131 -147 -140 0 -5 6 -13 13 -19 10 -9 37 13 117 93 117 117 130 120
130 30 0 -29 13 -103 30 -165 45 -174 54 -162 19 27 -17 88 -20 127 -13 166
l9 52 78 3 c42 2 77 1 77 -1 0 -3 -7 -18 -15 -33 -8 -16 -15 -40 -15 -54 0
-22 59 -270 67 -279 12 -16 10 19 -7 110 -20 104 -25 194 -14 237 6 21 11 22
123 24 l116 2 -107 5 c-58 3 -109 9 -113 12 -3 4 -1 26 4 50 14 59 14 143 0
212 -10 46 -15 57 -32 57 -15 0 -18 -5 -13 -22 18 -65 27 -169 19 -228 l-8
-65 -76 -3 -76 -3 14 68 c12 55 12 83 3 146 -14 97 -18 107 -40 107 -16 0 -16
-4 -4 -57 24 -100 16 -263 -12 -263 -8 0 -11 6 -7 18 6 16 5 16 -13 -1 -18
-17 -22 -13 -125 89 -95 95 -107 104 -119 89 -13 -15 -7 -24 45 -74 33 -31 78
-71 100 -89 l40 -32 -54 0 c-43 0 -52 3 -47 15 7 18 2 19 -24 3 -18 -12 -30
-3 -123 90 -91 91 -105 101 -117 87 -16 -19 -2 -36 103 -126 l68 -59 -55 0
c-49 0 -55 2 -49 17 7 17 5 17 -21 -1 l-29 -18 -98 98 c-95 94 -100 98 -116
81 -17 -17 -17 -19 12 -44 17 -14 55 -49 86 -77 l57 -51 -87 3 c-47 1 -118 5
-158 8 l-72 6 -47 65 c-67 94 -128 161 -200 218 -41 33 -89 87 -141 161 -136
193 -188 263 -195 263 -4 1 -10 -4 -13 -9z m293 -422 c22 -22 14 -48 -13 -48
-25 0 -31 13 -19 44 7 19 16 20 32 4z m71 -52 c17 -20 -3 -66 -29 -66 -18 0
-20 4 -14 23 4 12 11 25 17 28 5 4 6 12 3 18 -10 16 9 14 23 -3z m-69 -40 c0
-17 -7 -25 -25 -28 -26 -5 -35 6 -27 35 3 10 14 17 28 17 19 0 24 -5 24 -24z
m270 -179 c0 -12 -107 1 -157 19 -65 23 -52 44 28 44 21 0 39 5 39 10 0 6 -22
10 -50 10 -44 0 -50 2 -50 21 0 13 8 23 21 26 21 6 21 7 4 19 -10 7 -14 18 -9
25 5 8 34 -16 90 -77 46 -49 83 -93 84 -97z m-269 111 c0 -10 2 -10 6 0 8 20
53 15 53 -7 0 -29 -35 -32 -61 -5 -12 13 -17 24 -11 24 7 0 12 -6 13 -12z
m1109 -178 c0 -5 -4 -10 -10 -10 -5 0 -10 5 -10 10 0 6 5 10 10 10 6 0 10 -4
10 -10z"/>
</g>
</svg>
