<?xml version="1.0" standalone="no"?>
<!DOCTYPE svg PUBLIC "-//W3C//DTD SVG 20010904//EN"
 "http://www.w3.org/TR/2001/REC-SVG-20010904/DTD/svg10.dtd">
<svg version="1.0" xmlns="http://www.w3.org/2000/svg"
 width="231.000000pt" height="181.000000pt" viewBox="0 0 231.000000 181.000000"
 preserveAspectRatio="xMidYMid meet">
<metadata>
Created by potrace 1.16, written by Peter Selinger 2001-2019
</metadata>
<g transform="translate(0.000000,181.000000) scale(0.100000,-0.100000)"
fill="#000000" stroke="none">
<path d="M363 1495 c-7 -19 -9 -17 52 -48 l50 -26 -42 -1 c-23 0 -48 -2 -55
-5 -9 -4 -20 8 -31 31 -10 20 -20 34 -23 31 -11 -11 -13 -97 -2 -97 20 0 37
-34 31 -64 -5 -24 -3 -28 10 -23 10 4 25 -6 43 -30 18 -24 24 -38 16 -41 -26
-8 -12 -32 19 -32 17 0 45 -11 63 -25 58 -44 107 -54 315 -65 108 -5 221 -10
251 -10 l55 0 -65 -58 c-36 -32 -81 -72 -100 -90 -32 -28 -34 -32 -19 -47 15
-15 24 -9 118 83 l102 99 24 -19 c28 -22 33 -14 8 14 -15 17 -12 18 107 18 68
0 121 -2 119 -3 -2 -2 -46 -41 -97 -87 -86 -76 -92 -84 -78 -99 15 -14 25 -7
119 86 102 101 102 101 127 85 23 -16 24 -16 17 1 -6 16 11 17 256 19 203 1
240 3 162 8 -55 4 -176 8 -269 9 -150 1 -167 3 -156 16 17 21 7 29 -17 15 -17
-11 -30 -1 -113 84 -52 53 -100 96 -106 96 -6 0 -17 -6 -23 -13 -8 -11 11 -33
89 -102 55 -49 100 -89 100 -90 0 -1 -10 -1 -22 1 -13 1 -64 3 -115 3 -84 1
-92 3 -86 18 7 17 5 17 -21 -1 l-29 -18 -98 98 c-93 93 -100 97 -116 81 -16
-16 -13 -20 43 -70 32 -30 72 -65 87 -78 l28 -24 -138 6 c-76 4 -147 7 -159 8
-12 1 -32 17 -47 38 l-27 38 47 11 48 12 -57 1 c-53 1 -58 3 -88 41 l-31 39
50 7 c72 9 66 28 -6 21 -52 -5 -59 -4 -89 22 l-32 29 30 6 c17 3 45 6 64 6 18
0 36 5 40 11 4 7 -19 10 -77 8 -83 -3 -85 -2 -155 39 -77 46 -92 50 -101 27z
m173 -128 l27 -24 -79 -6 c-74 -7 -80 -6 -96 15 -16 22 -16 23 0 30 9 4 40 7
69 7 41 1 58 -4 79 -22z m93 -91 l32 -33 -53 -6 c-97 -12 -120 -9 -150 20 -15
15 -28 30 -28 34 0 10 39 16 111 18 50 1 58 -2 88 -33z m92 -102 l34 -36 -70
7 c-38 4 -90 16 -115 28 l-45 20 35 7 c19 4 55 8 81 9 40 1 49 -3 80 -35z"/>
<path d="M360 905 c-10 -12 -5 -17 24 -29 20 -8 46 -22 58 -31 21 -14 20 -15
-35 -15 -53 0 -57 2 -72 31 -9 17 -18 29 -21 27 -2 -3 -6 -26 -9 -51 -3 -36
-1 -47 10 -47 20 0 35 -32 28 -58 -4 -17 -1 -22 13 -22 22 0 69 -66 54 -75
-22 -14 -10 -37 18 -34 17 2 46 -9 77 -29 27 -18 66 -37 85 -42 19 -5 143 -14
274 -20 131 -5 240 -11 242 -12 1 -2 -40 -40 -92 -86 -52 -46 -94 -87 -94 -91
0 -5 7 -12 16 -15 16 -6 103 68 177 152 28 31 31 32 53 17 32 -21 41 -19 19 5
-18 20 -17 20 104 20 l121 0 -77 -69 c-112 -98 -117 -105 -98 -121 14 -12 30
0 120 90 l104 104 22 -20 c20 -17 22 -17 16 -1 -6 16 11 17 256 18 166 1 245
4 217 10 -25 4 -145 8 -268 8 -217 1 -222 1 -212 20 16 30 12 36 -10 16 -21
-19 -22 -17 -125 85 -97 97 -104 102 -120 86 -16 -16 -13 -21 51 -79 37 -34
83 -74 102 -89 l35 -28 -116 0 c-99 0 -116 2 -111 15 8 20 -5 19 -28 -1 -17
-16 -23 -12 -118 82 -91 89 -102 97 -116 82 -14 -14 -11 -20 38 -65 29 -28 67
-62 83 -76 l30 -26 -66 -1 c-36 0 -107 3 -157 6 l-91 7 -26 38 -25 39 40 6
c56 9 50 24 -7 17 -46 -5 -49 -4 -80 35 -36 45 -31 52 33 52 19 0 34 5 34 10
0 6 -28 10 -63 10 -54 0 -67 4 -86 24 -19 21 -20 24 -6 30 9 3 31 6 48 7 18 0
41 4 52 9 13 6 -10 9 -68 9 -70 1 -95 5 -115 20 -33 23 -108 61 -120 61 -5 0
-15 -7 -22 -15z m179 -129 l22 -23 -78 -6 c-71 -5 -79 -3 -95 16 -9 12 -14 25
-12 29 3 4 36 8 73 8 58 0 71 -3 90 -24z m85 -85 l37 -38 -87 -7 -87 -7 -31
30 c-16 17 -27 34 -23 37 4 4 37 11 75 14 37 4 69 8 72 9 3 0 23 -16 44 -38z
m123 -137 c-1 -1 -37 2 -79 6 -70 8 -147 34 -135 46 3 3 36 9 74 13 l68 7 37
-35 c21 -19 37 -36 35 -37z"/>
</g>
</svg>
