<?xml version="1.0" standalone="no"?>
<!DOCTYPE svg PUBLIC "-//W3C//DTD SVG 20010904//EN"
 "http://www.w3.org/TR/2001/REC-SVG-20010904/DTD/svg10.dtd">
<svg version="1.0" xmlns="http://www.w3.org/2000/svg"
 width="184.000000pt" height="144.000000pt" viewBox="0 0 184.000000 144.000000"
 preserveAspectRatio="xMidYMid meet">
<metadata>
Created by potrace 1.16, written by Peter Selinger 2001-2019
</metadata>
<g transform="translate(0.000000,144.000000) scale(0.100000,-0.100000)"
fill="#000000" stroke="none">
<path d="M403 1101 c-89 -47 -103 -58 -103 -82 0 -25 4 -24 53 10 68 46 128
73 163 73 38 0 115 -41 138 -74 9 -12 18 -19 22 -15 10 9 -43 68 -89 100 -56
38 -96 35 -184 -12z"/>
<path d="M695 1014 c-12 -13 -42 -67 -65 -118 -41 -90 -46 -96 -112 -142 -82
-56 -120 -99 -149 -171 -30 -73 -20 -82 63 -58 88 26 142 55 222 119 38 31 77
56 85 55 24 -1 46 -13 46 -24 1 -22 178 -346 199 -364 12 -10 81 22 201 96 25
15 13 28 -13 14 -18 -10 -24 -1 -67 97 -26 59 -63 138 -82 176 -19 38 -31 72
-26 76 4 4 36 28 71 54 35 27 80 70 100 97 20 27 40 49 44 49 4 0 8 -16 8 -35
0 -31 -3 -35 -26 -35 -32 0 -27 -21 7 -30 13 -4 90 -10 171 -13 l147 -6 11 37
c16 60 14 69 -22 70 -41 2 -236 30 -263 39 -11 3 -24 12 -30 19 -7 9 -72 14
-253 18 l-244 5 -23 -25z m468 -36 c-24 -44 -166 -186 -198 -198 l-25 -10 29
-57 c16 -32 59 -112 95 -177 36 -66 66 -122 66 -126 0 -6 -51 -30 -141 -68 -5
-2 -18 21 -31 50 -12 29 -48 107 -80 172 -32 65 -55 122 -53 127 3 4 -32 20
-77 35 -46 14 -96 33 -112 41 -24 12 -30 13 -37 2 -11 -18 -1 -26 55 -48 l47
-17 -54 -36 c-29 -20 -73 -46 -97 -58 -46 -23 -139 -54 -146 -47 -13 12 71
120 135 173 41 35 76 69 77 76 2 19 93 166 107 175 11 7 164 16 380 21 l78 2
-18 -32z m119 -54 c-4 -28 -8 -34 -29 -34 -21 0 -23 4 -18 23 4 12 9 29 11 38
3 10 12 15 22 12 14 -3 17 -12 14 -39z m59 24 c-1 -5 -1 -21 -1 -38 0 -23 -4
-30 -20 -30 -21 0 -25 16 -14 58 6 20 36 29 35 10z m59 -17 c0 -30 -11 -51
-26 -51 -15 0 -17 12 -8 48 8 27 34 30 34 3z m56 -8 c-3 -8 -6 -24 -6 -35 0
-13 -6 -18 -17 -16 -14 2 -17 11 -14 33 4 39 9 45 27 38 8 -3 13 -12 10 -20z
m54 -18 c0 -29 -4 -35 -21 -35 -17 0 -20 4 -15 23 3 12 6 28 6 35 0 6 7 12 15
12 10 0 15 -11 15 -35z"/>
</g>
</svg>
