<?xml version="1.0" standalone="no"?>
<!DOCTYPE svg PUBLIC "-//W3C//DTD SVG 20010904//EN"
 "http://www.w3.org/TR/2001/REC-SVG-20010904/DTD/svg10.dtd">
<svg version="1.0" xmlns="http://www.w3.org/2000/svg"
 width="152.000000pt" height="148.000000pt" viewBox="0 0 152.000000 148.000000"
 preserveAspectRatio="xMidYMid meet">
<metadata>
Created by potrace 1.16, written by Peter Selinger 2001-2019
</metadata>
<g transform="translate(0.000000,148.000000) scale(0.100000,-0.100000)"
fill="#000000" stroke="none">
<path d="M448 1165 c-64 -24 -148 -83 -148 -105 0 -26 3 -25 53 9 53 35 102
61 141 72 36 11 96 -14 145 -59 18 -18 35 -32 37 -32 21 0 -53 82 -101 112
-35 21 -75 22 -127 3z"/>
<path d="M681 1035 c-15 -24 -42 -77 -60 -118 -30 -69 -38 -78 -102 -122 -83
-57 -121 -100 -150 -172 -31 -76 -21 -82 83 -50 83 26 170 78 235 139 27 26
37 30 66 24 25 -5 34 -12 33 -24 -1 -13 -13 -18 -51 -22 l-50 -5 -1 -155 c-1
-85 1 -172 3 -192 l5 -38 64 0 64 0 0 167 0 168 71 -130 c101 -183 87 -173
180 -123 43 22 90 52 106 64 l28 24 -32 -6 c-22 -4 -33 -3 -33 5 0 6 -34 84
-75 173 -41 89 -74 163 -72 164 1 1 36 29 78 61 78 62 155 162 145 189 -4 11
-27 14 -93 15 -48 1 -161 3 -251 5 l-163 3 -28 -44z m482 -17 c-24 -44 -152
-172 -191 -192 l-32 -17 26 -52 c15 -28 58 -107 95 -175 38 -67 69 -126 69
-130 0 -6 -61 -36 -141 -70 -5 -2 -18 21 -31 50 -12 29 -48 106 -80 171 -32
65 -56 122 -53 127 3 5 -32 21 -77 36 -46 14 -96 33 -112 41 -24 12 -30 13
-37 2 -11 -18 -1 -26 55 -48 l47 -17 -54 -36 c-85 -57 -198 -107 -240 -108 -4
0 4 21 17 48 25 48 63 89 147 155 25 20 46 42 46 49 0 16 88 161 106 176 8 7
71 13 153 15 76 1 176 4 222 5 l83 2 -18 -32z m-373 -363 c0 -11 -11 -15 -40
-15 -62 0 -50 27 13 29 18 1 27 -4 27 -14z m0 -53 c0 -14 -7 -17 -40 -14 -26
3 -40 9 -40 18 0 10 12 14 40 14 32 0 40 -4 40 -18z m5 -47 c0 -5 -19 -11 -42
-13 -45 -3 -60 13 -20 21 33 7 62 3 62 -8z m3 -52 c2 -9 -10 -13 -42 -13 -35
0 -46 4 -46 16 0 12 9 14 42 12 23 -2 43 -9 46 -15z m2 -48 c0 -11 -12 -15
-45 -15 -33 0 -45 4 -45 15 0 11 12 15 45 15 33 0 45 -4 45 -15z m0 -55 c0
-21 -23 -26 -67 -14 -42 11 -27 34 22 34 38 0 45 -3 45 -20z m0 -61 c0 -30 -2
-31 -31 -25 -17 3 -40 6 -50 6 -12 0 -19 7 -19 19 0 16 8 21 43 24 23 2 45 4
50 5 4 1 7 -12 7 -29z"/>
</g>
</svg>
