<?xml version="1.0" standalone="no"?>
<!DOCTYPE svg PUBLIC "-//W3C//DTD SVG 20010904//EN"
 "http://www.w3.org/TR/2001/REC-SVG-20010904/DTD/svg10.dtd">
<svg version="1.0" xmlns="http://www.w3.org/2000/svg"
 width="169.000000pt" height="163.000000pt" viewBox="0 0 169.000000 163.000000"
 preserveAspectRatio="xMidYMid meet">
<metadata>
Created by potrace 1.16, written by Peter Selinger 2001-2019
</metadata>
<g transform="translate(0.000000,163.000000) scale(0.100000,-0.100000)"
fill="#000000" stroke="none">
<path d="M965 1268 c-79 -88 -132 -170 -151 -236 -9 -31 -22 -70 -28 -86 l-13
-30 -26 38 c-14 21 -23 45 -20 52 3 9 -2 14 -16 14 -20 0 -21 5 -21 78 0 42
-3 107 -6 144 -6 61 -9 67 -33 71 -32 6 -52 -10 -133 -112 -64 -80 -102 -147
-113 -201 -3 -19 -29 -86 -56 -149 -28 -62 -48 -116 -45 -119 8 -7 6 -9 60 83
46 79 65 81 25 2 -43 -82 -89 -199 -78 -195 6 2 35 46 65 97 40 72 55 90 60
77 4 -11 -2 -37 -16 -65 -49 -101 -89 -202 -78 -199 6 2 36 47 65 99 29 52 56
93 60 93 26 -4 22 -35 -12 -109 -51 -111 -68 -155 -62 -161 5 -5 60 82 96 153
12 24 23 43 26 43 2 0 18 -20 35 -45 17 -24 25 -42 17 -40 -14 6 -26 -14 -89
-159 -21 -49 -36 -91 -33 -94 3 -3 6 -3 8 -1 13 16 80 134 103 181 l28 58 23
-22 c32 -30 29 -18 -11 44 -95 150 -157 301 -154 376 l1 41 96 3 c53 2 99 1
103 -2 9 -6 12 -425 4 -439 -8 -12 112 -251 125 -251 5 0 9 1 9 3 0 6 -60 156
-83 207 l-24 55 9 200 c4 110 9 203 11 207 1 4 17 -11 36 -33 l34 -41 -28 -66
c-15 -37 -29 -73 -32 -79 -3 -7 -1 -13 3 -13 5 0 29 35 54 78 l44 78 31 -75
c17 -42 56 -115 87 -163 31 -48 51 -85 44 -82 -9 3 -32 -36 -70 -121 -32 -70
-55 -130 -52 -133 3 -3 7 -3 9 -1 8 10 77 128 95 164 37 71 38 72 61 51 31
-28 25 -7 -15 52 -85 127 -160 313 -151 378 3 25 5 25 104 30 l101 5 4 -213
c2 -117 0 -218 -5 -225 -9 -13 110 -253 126 -253 11 0 3 24 -52 155 l-47 110
7 150 c4 83 8 178 8 213 l1 62 128 1 c148 1 206 11 128 22 -27 4 -95 7 -152 7
l-104 0 -1 98 c0 53 -4 119 -7 146 -6 44 -10 50 -33 53 -22 3 -37 -8 -84 -59z
m79 -110 l7 -128 -96 0 c-73 0 -95 3 -95 13 0 27 164 258 175 245 1 -2 5 -60
9 -130z m-404 40 c0 -40 3 -97 6 -125 l7 -53 -97 0 c-66 0 -96 4 -96 12 0 31
148 238 170 238 6 0 10 -33 10 -72z"/>
</g>
</svg>
