<?xml version="1.0" standalone="no"?>
<!DOCTYPE svg PUBLIC "-//W3C//DTD SVG 20010904//EN"
 "http://www.w3.org/TR/2001/REC-SVG-20010904/DTD/svg10.dtd">
<svg version="1.0" xmlns="http://www.w3.org/2000/svg"
 width="238.000000pt" height="177.000000pt" viewBox="0 0 238.000000 177.000000"
 preserveAspectRatio="xMidYMid meet">
<metadata>
Created by potrace 1.16, written by Peter Selinger 2001-2019
</metadata>
<g transform="translate(0.000000,177.000000) scale(0.100000,-0.100000)"
fill="#000000" stroke="none">
<path d="M1900 1460 c-8 -5 -54 -27 -102 -50 -49 -22 -88 -46 -88 -53 0 -7 11
-117 25 -245 14 -128 25 -235 25 -238 0 -3 -43 -4 -96 -3 -86 1 -97 4 -102 21
-4 17 -6 17 -22 3 -15 -14 -25 -7 -118 85 -56 55 -106 100 -110 100 -5 0 -15
-6 -21 -13 -8 -11 9 -32 84 -98 52 -46 95 -85 95 -86 0 -2 -20 -3 -45 -3 -35
0 -43 3 -39 15 8 20 -5 19 -27 -1 -16 -15 -24 -9 -117 87 -88 91 -101 102
-116 90 -9 -7 -16 -17 -16 -21 0 -4 41 -43 90 -86 50 -43 86 -80 80 -82 -20
-7 -101 9 -95 19 4 5 2 9 -4 9 -5 0 -13 -4 -16 -10 -15 -24 -46 -4 -135 85
-81 81 -96 93 -108 81 -19 -18 -15 -23 80 -108 l82 -71 -100 6 c-54 4 -126 7
-159 7 l-60 0 -50 72 c-72 104 -208 237 -281 276 -58 30 -62 31 -77 14 -15
-17 -13 -20 49 -50 66 -33 225 -175 297 -266 l31 -39 -71 6 c-107 9 -167 44
-245 146 -27 36 -63 94 -81 130 l-32 66 -3 -38 c-6 -68 95 -226 183 -287 70
-48 134 -59 387 -67 125 -3 228 -9 227 -12 0 -3 -19 -21 -42 -40 -23 -18 -66
-56 -95 -83 -49 -46 -52 -52 -38 -67 15 -14 25 -7 116 84 98 98 99 99 120 80
25 -23 39 -12 16 14 -16 18 -15 18 27 19 24 1 56 -2 71 -6 27 -7 26 -8 -41
-64 -108 -90 -129 -114 -113 -133 12 -14 25 -4 115 85 91 91 105 101 123 91
29 -15 37 -14 22 4 -11 13 -5 15 46 15 l59 0 -50 -42 c-27 -24 -74 -65 -103
-92 -47 -45 -51 -51 -37 -65 14 -14 21 -9 76 44 34 33 80 79 102 103 22 24 45
41 51 38 50 -20 52 -20 37 -3 -12 16 -6 17 93 17 101 0 106 -1 110 -22 9 -38
58 -450 60 -490 l1 -38 77 0 c43 0 78 4 78 9 0 5 -4 11 -10 13 -5 2 -1 60 10
148 19 141 100 847 100 873 0 13 -66 65 -130 104 -22 13 -40 18 -50 13z m69
-66 c71 -42 68 -26 46 -239 -8 -77 -15 -147 -15 -155 0 -13 -15 -14 -99 -10
-55 3 -102 8 -106 11 -5 6 -34 270 -35 320 0 22 12 34 63 67 34 22 67 41 74
41 6 1 39 -15 72 -35z m23 -479 l-4 -45 -94 0 -94 0 0 40 0 39 83 4 c45 1 89
4 97 5 12 2 14 -7 12 -43z m-5 -72 c-3 -5 -13 -120 -22 -258 -10 -137 -21
-253 -24 -257 -3 -3 -26 -4 -52 -1 l-45 5 -20 259 -19 259 93 0 c51 0 91 -3
89 -7z"/>
</g>
</svg>
