<?xml version="1.0" standalone="no"?>
<!DOCTYPE svg PUBLIC "-//W3C//DTD SVG 20010904//EN"
 "http://www.w3.org/TR/2001/REC-SVG-20010904/DTD/svg10.dtd">
<svg version="1.0" xmlns="http://www.w3.org/2000/svg"
 width="223.000000pt" height="156.000000pt" viewBox="0 0 223.000000 156.000000"
 preserveAspectRatio="xMidYMid meet">
<metadata>
Created by potrace 1.16, written by Peter Selinger 2001-2019
</metadata>
<g transform="translate(0.000000,156.000000) scale(0.100000,-0.100000)"
fill="#000000" stroke="none">
<path d="M1705 1168 c-79 -81 -68 -74 30 19 36 34 70 73 64 73 -3 0 -45 -42
-94 -92z"/>
<path d="M1715 1088 l-130 -133 133 130 c72 71 132 131 132 132 0 8 -15 -6
-135 -129z"/>
<path d="M1725 1008 l-160 -163 163 160 c150 148 167 165 159 165 -1 0 -74
-73 -162 -162z"/>
<path d="M352 1148 c-17 -17 -15 -25 11 -32 56 -14 156 -93 275 -217 l53 -56
-58 5 c-121 9 -210 77 -290 220 -34 60 -38 64 -41 40 -8 -68 115 -230 204
-270 50 -22 213 -37 412 -38 l103 0 -62 -52 c-34 -29 -72 -61 -85 -71 -25 -20
-31 -42 -14 -52 6 -4 53 32 104 79 80 74 95 84 106 71 7 -8 17 -15 23 -15 5 0
2 9 -8 20 -18 20 -17 20 51 20 56 -1 66 -3 53 -13 -8 -7 -50 -41 -92 -77 -67
-56 -75 -66 -63 -79 13 -12 25 -5 94 57 44 40 85 79 92 87 12 14 15 14 33 -2
20 -17 20 -17 15 5 -6 21 -3 22 43 22 27 0 49 -2 49 -4 0 -1 -26 -24 -57 -49
-122 -98 -129 -106 -113 -122 13 -12 27 -3 112 76 53 49 99 85 103 79 9 -14
28 -12 22 3 -3 9 16 12 79 12 46 0 84 -2 84 -6 0 -3 -6 -11 -12 -19 -7 -8 -4
-7 8 3 12 10 37 17 59 17 l39 0 -59 -62 -60 -63 66 63 c58 56 70 63 100 60
l34 -3 -100 -97 c-55 -53 -97 -99 -94 -102 3 -3 52 42 109 99 60 61 112 105
123 105 12 0 17 5 14 14 -3 8 20 38 54 72 32 32 59 63 59 68 0 6 -33 -22 -73
-62 -62 -61 -78 -72 -107 -72 l-35 0 110 110 c60 60 105 110 100 110 -6 0 -57
-50 -114 -110 -99 -106 -105 -110 -144 -110 l-42 0 145 148 145 147 -150 -148
-151 -147 -89 6 c-50 4 -93 12 -97 18 -5 8 -11 7 -19 -1 -9 -9 -32 7 -101 70
-49 45 -92 83 -96 84 -4 2 -14 -2 -22 -7 -12 -8 -7 -17 30 -50 25 -22 65 -55
89 -73 l44 -32 -38 -3 c-24 -2 -41 2 -46 10 -6 10 -11 10 -20 1 -9 -9 -33 7
-106 74 -83 76 -96 85 -109 71 -13 -13 -5 -22 66 -82 44 -37 80 -70 80 -72 0
-2 -15 -2 -32 0 -18 3 -39 5 -46 5 -7 1 -10 6 -7 11 3 6 2 10 -4 10 -5 0 -13
-4 -16 -10 -14 -23 -44 -5 -120 70 -44 44 -83 80 -86 80 -4 0 -10 -8 -14 -17
-4 -13 2 -25 22 -42 15 -13 48 -42 73 -64 l45 -39 -140 7 c-125 7 -142 10
-154 28 -34 49 -136 165 -172 195 -37 32 -146 102 -159 102 -3 0 -11 -5 -18
-12z"/>
<path d="M1750 685 c-96 -96 -172 -175 -168 -175 11 0 353 338 348 344 -3 3
-84 -73 -180 -169z"/>
<path d="M1755 597 c-94 -94 -167 -169 -163 -167 22 15 340 332 336 335 -2 2
-80 -73 -173 -168z"/>
<path d="M1770 523 l-155 -158 158 155 c146 144 162 160 154 160 -1 0 -72 -71
-157 -157z"/>
<path d="M1790 453 l-135 -138 138 135 c127 125 142 140 134 140 -1 0 -63 -62
-137 -137z"/>
<path d="M1815 388 l-90 -93 93 90 c50 49 92 91 92 92 0 8 -12 -4 -95 -89z"/>
</g>
</svg>
