<?xml version="1.0" standalone="no"?>
<!DOCTYPE svg PUBLIC "-//W3C//DTD SVG 20010904//EN"
 "http://www.w3.org/TR/2001/REC-SVG-20010904/DTD/svg10.dtd">
<svg version="1.0" xmlns="http://www.w3.org/2000/svg"
 width="210.000000pt" height="126.000000pt" viewBox="0 0 210.000000 126.000000"
 preserveAspectRatio="xMidYMid meet">
<metadata>
Created by potrace 1.16, written by Peter Selinger 2001-2019
</metadata>
<g transform="translate(0.000000,126.000000) scale(0.100000,-0.100000)"
fill="#000000" stroke="none">
<path d="M350 946 c-9 -12 -3 -19 37 -39 84 -43 166 -112 271 -229 56 -62 100
-114 98 -115 -8 -8 -146 42 -188 69 -61 38 -163 147 -218 231 -23 37 -44 67
-46 67 -2 0 -4 -13 -4 -28 0 -66 156 -247 271 -315 136 -80 328 -111 529 -85
63 8 116 14 117 13 2 -1 -21 -21 -50 -44 -28 -24 -76 -66 -105 -93 -49 -47
-52 -52 -37 -67 14 -15 25 -7 132 102 98 99 124 120 161 129 39 10 46 9 54 -6
17 -30 52 -56 90 -68 31 -9 45 -8 83 6 59 23 90 66 90 127 l0 46 83 38 c45 21
82 41 82 45 0 4 -39 -8 -87 -26 l-88 -33 -20 24 c-28 34 -91 58 -132 50 -49
-9 -101 -59 -114 -110 l-11 -43 -86 -16 c-48 -9 -121 -19 -162 -22 l-75 -6
-117 118 c-108 110 -119 118 -133 103 -15 -15 -12 -20 37 -67 29 -27 81 -73
116 -102 35 -29 61 -54 59 -57 -6 -5 -194 9 -204 16 -4 3 -30 39 -58 80 -72
107 -179 217 -264 273 -79 52 -92 56 -111 34z"/>
</g>
</svg>
