<?xml version="1.0" standalone="no"?>
<!DOCTYPE svg PUBLIC "-//W3C//DTD SVG 20010904//EN"
 "http://www.w3.org/TR/2001/REC-SVG-20010904/DTD/svg10.dtd">
<svg version="1.0" xmlns="http://www.w3.org/2000/svg"
 width="135.000000pt" height="136.000000pt" viewBox="0 0 135.000000 136.000000"
 preserveAspectRatio="xMidYMid meet">
<metadata>
Created by potrace 1.16, written by Peter Selinger 2001-2019
</metadata>
<g transform="translate(0.000000,136.000000) scale(0.100000,-0.100000)"
fill="#000000" stroke="none">
<path d="M550 1044 c-30 -8 -84 -26 -120 -39 -57 -22 -67 -30 -82 -64 -29 -67
-51 -198 -46 -280 4 -65 10 -88 46 -156 23 -44 59 -102 80 -130 32 -42 45 -52
87 -62 74 -17 193 -15 256 3 67 20 231 103 224 114 -3 4 8 49 25 100 24 74 30
109 30 179 0 114 -17 199 -42 212 -11 6 -21 9 -23 7 -3 -2 2 -28 10 -58 29
-107 29 -175 0 -310 -18 -86 -32 -130 -45 -141 -25 -22 -174 -70 -237 -76 -67
-7 -239 23 -263 47 -27 27 -78 161 -92 238 -10 59 -9 82 6 157 27 139 32 148
114 178 93 34 184 50 246 42 67 -9 162 -31 215 -50 52 -18 54 -18 45 -4 -10
18 -141 75 -210 93 -75 19 -151 19 -224 0z"/>
<path d="M620 964 c0 -12 6 -15 23 -10 12 3 26 6 30 6 5 0 5 5 2 10 -10 17
-55 12 -55 -6z"/>
<path d="M507 936 c-6 -14 70 -87 179 -172 49 -39 50 -40 37 -69 -7 -17 -10
-42 -7 -57 3 -16 2 -28 -3 -28 -13 0 -208 -171 -208 -183 0 -28 31 -10 124 74
l102 92 22 -21 c26 -25 69 -42 103 -42 l25 0 -2 130 -1 131 -36 -7 c-21 -3
-49 -14 -63 -24 l-26 -18 -116 104 c-63 57 -118 104 -120 104 -3 0 -7 -6 -10
-14z m303 -196 c-12 -17 -26 -28 -31 -25 -16 11 -10 24 19 39 36 20 36 20 12
-14z m-35 -59 c0 -13 -10 -30 -22 -38 -22 -15 -23 -14 -23 10 0 38 11 58 29
55 9 -2 16 -13 16 -27z m29 -94 c28 -41 19 -48 -25 -16 -30 21 -38 44 -16 52
15 5 11 9 41 -36z"/>
<path d="M410 904 c0 -11 5 -14 16 -10 9 3 22 6 30 6 8 0 14 5 14 10 0 6 -13
10 -30 10 -21 0 -30 -5 -30 -16z"/>
<path d="M820 850 c0 -5 16 -10 35 -10 19 0 35 5 35 10 0 6 -16 10 -35 10 -19
0 -35 -4 -35 -10z"/>
<path d="M440 830 c0 -5 16 -10 36 -10 21 0 33 4 29 10 -3 6 -19 10 -36 10
-16 0 -29 -4 -29 -10z"/>
<path d="M557 763 c-21 -21 22 -33 51 -14 10 6 8 10 -10 14 -29 8 -33 8 -41 0z"/>
<path d="M530 620 c0 -5 14 -10 30 -10 17 0 30 5 30 10 0 6 -13 10 -30 10 -16
0 -30 -4 -30 -10z"/>
<path d="M390 600 c0 -5 16 -10 35 -10 19 0 35 5 35 10 0 6 -16 10 -35 10 -19
0 -35 -4 -35 -10z"/>
<path d="M470 485 c0 -16 36 -20 58 -6 10 6 8 10 -10 14 -36 10 -48 8 -48 -8z"/>
<path d="M760 474 c0 -12 6 -15 23 -10 12 3 25 6 30 6 4 0 7 5 7 10 0 6 -13
10 -30 10 -21 0 -30 -5 -30 -16z"/>
<path d="M897 483 c-21 -21 22 -33 51 -14 10 6 8 10 -10 14 -29 8 -33 8 -41 0z"/>
<path d="M620 411 c0 -16 18 -22 45 -15 20 5 23 9 13 15 -18 12 -58 11 -58 0z"/>
</g>
</svg>
