<?xml version="1.0" standalone="no"?>
<!DOCTYPE svg PUBLIC "-//W3C//DTD SVG 20010904//EN"
 "http://www.w3.org/TR/2001/REC-SVG-20010904/DTD/svg10.dtd">
<svg version="1.0" xmlns="http://www.w3.org/2000/svg"
 width="135.000000pt" height="136.000000pt" viewBox="0 0 135.000000 136.000000"
 preserveAspectRatio="xMidYMid meet">
<metadata>
Created by potrace 1.16, written by Peter Selinger 2001-2019
</metadata>
<g transform="translate(0.000000,136.000000) scale(0.100000,-0.100000)"
fill="#000000" stroke="none">
<path d="M555 1046 c-27 -7 -82 -24 -120 -39 -62 -24 -72 -31 -87 -66 -30 -68
-51 -198 -46 -280 5 -87 41 -169 121 -277 42 -57 48 -61 102 -72 81 -17 182
-15 246 4 67 20 231 103 224 114 -3 4 8 49 25 100 24 74 30 109 30 179 0 114
-17 199 -42 212 -11 6 -21 9 -23 7 -3 -2 2 -28 10 -58 29 -107 29 -175 0 -310
-15 -69 -31 -130 -37 -137 -16 -19 -177 -73 -238 -80 -74 -7 -245 22 -270 47
-27 27 -78 161 -92 238 -10 59 -9 82 6 157 27 139 32 148 114 178 93 34 184
50 246 42 67 -9 162 -31 215 -50 52 -18 54 -18 45 -4 -10 17 -145 76 -213 94
-69 18 -146 18 -216 1z"/>
<path d="M620 964 c0 -12 6 -15 23 -10 12 3 26 6 30 6 5 0 5 5 2 10 -10 17
-55 12 -55 -6z"/>
<path d="M533 925 c-3 -10 -2 -20 3 -24 5 -3 55 -41 112 -83 56 -43 110 -81
118 -86 14 -8 14 -13 4 -32 -6 -12 -10 -36 -8 -52 6 -35 -16 -50 -65 -46 -36
3 -54 -15 -19 -20 19 -3 9 -14 -63 -69 -77 -59 -104 -93 -74 -93 6 0 60 39
121 87 102 80 112 85 132 73 40 -26 71 -39 109 -45 l37 -7 0 126 0 126 -33 0
c-18 0 -50 -9 -71 -19 l-38 -20 -60 47 c-41 32 -55 48 -44 50 28 6 17 22 -15
22 -21 0 -46 11 -73 33 -59 48 -65 51 -73 32z m335 -179 c-10 -7 -18 -19 -18
-25 0 -7 -5 -11 -12 -9 -21 7 -19 24 4 36 32 15 47 14 26 -2z m-43 -50 c18
-13 17 -15 -9 -41 -24 -24 -30 -26 -37 -12 -10 17 5 67 19 67 4 0 17 -6 27
-14z m13 -73 c5 -10 7 -26 3 -36 -6 -16 -8 -16 -29 -1 -22 15 -22 17 -6 35 21
23 21 23 32 2z m47 -63 c8 -13 -5 -13 -25 0 -13 8 -13 10 2 10 9 0 20 -4 23
-10z"/>
<path d="M890 915 c0 -16 36 -20 58 -6 10 6 8 10 -10 14 -36 10 -48 8 -48 -8z"/>
<path d="M410 904 c0 -11 5 -14 16 -10 9 3 22 6 30 6 8 0 14 5 14 10 0 6 -13
10 -30 10 -21 0 -30 -5 -30 -16z"/>
<path d="M820 850 c0 -5 16 -10 35 -10 19 0 35 5 35 10 0 6 -16 10 -35 10 -19
0 -35 -4 -35 -10z"/>
<path d="M440 830 c0 -5 16 -10 36 -10 21 0 33 4 29 10 -3 6 -19 10 -36 10
-16 0 -29 -4 -29 -10z"/>
<path d="M627 743 c-21 -21 22 -33 51 -14 11 7 10 10 -3 15 -21 8 -40 8 -48
-1z"/>
<path d="M440 720 c0 -5 16 -10 36 -10 21 0 33 4 29 10 -3 6 -19 10 -36 10
-16 0 -29 -4 -29 -10z"/>
<path d="M530 620 c0 -5 14 -10 30 -10 17 0 30 5 30 10 0 6 -13 10 -30 10 -16
0 -30 -4 -30 -10z"/>
<path d="M390 600 c0 -5 16 -10 35 -10 19 0 35 5 35 10 0 6 -16 10 -35 10 -19
0 -35 -4 -35 -10z"/>
<path d="M470 485 c0 -16 36 -20 58 -6 11 7 10 10 -3 15 -29 11 -55 7 -55 -9z"/>
<path d="M760 474 c0 -12 6 -15 23 -10 12 3 25 6 30 6 4 0 7 5 7 10 0 6 -13
10 -30 10 -21 0 -30 -5 -30 -16z"/>
<path d="M897 483 c-21 -21 22 -33 51 -14 10 6 8 10 -10 14 -29 8 -33 8 -41 0z"/>
<path d="M620 411 c0 -16 18 -22 45 -15 20 5 23 9 13 15 -18 12 -58 11 -58 0z"/>
</g>
</svg>
