<?xml version="1.0" standalone="no"?>
<!DOCTYPE svg PUBLIC "-//W3C//DTD SVG 20010904//EN"
 "http://www.w3.org/TR/2001/REC-SVG-20010904/DTD/svg10.dtd">
<svg version="1.0" xmlns="http://www.w3.org/2000/svg"
 width="138.000000pt" height="152.000000pt" viewBox="0 0 138.000000 152.000000"
 preserveAspectRatio="xMidYMid meet">
<metadata>
Created by potrace 1.16, written by Peter Selinger 2001-2019
</metadata>
<g transform="translate(0.000000,152.000000) scale(0.100000,-0.100000)"
fill="#000000" stroke="none">
<path d="M344 1205 c-21 -53 173 -114 368 -115 65 0 57 11 82 -115 13 -63 34
-292 51 -553 l6 -92 -45 21 c-27 14 -51 19 -62 15 -15 -6 -8 -13 35 -32 30
-14 65 -27 77 -30 19 -5 21 -2 16 23 -5 27 -5 28 15 10 70 -62 193 -3 193 93
0 97 -102 151 -186 99 l-34 -21 0 107 0 106 22 -15 c35 -25 101 -20 137 9 44
37 56 82 36 133 -9 23 -28 49 -43 58 -38 25 -101 24 -138 -3 l-31 -22 -6 57
c-4 31 -11 81 -17 109 -10 45 -15 52 -33 51 -35 -1 -277 41 -332 58 -27 9 -62
28 -77 42 -25 23 -28 24 -34 7z"/>
<path d="M300 1137 c0 -53 102 -88 308 -106 57 -5 105 -11 107 -13 8 -8 25
-207 25 -294 0 -83 -2 -95 -16 -90 -38 15 -182 49 -215 51 -33 2 -40 -2 -72
-44 -42 -57 -57 -84 -57 -108 0 -10 27 -45 60 -78 l60 -59 101 23 c56 12 108
25 115 28 10 4 14 -4 14 -28 0 -26 3 -30 10 -19 5 8 10 25 10 38 0 13 6 22 15
22 8 0 15 5 15 10 0 6 -7 10 -16 10 -12 0 -15 6 -10 22 3 13 6 40 6 61 0 32 3
37 23 37 19 1 20 2 6 13 -14 10 -17 43 -21 205 -2 108 -9 197 -14 202 -6 6
-75 21 -155 35 -179 30 -234 46 -270 81 l-29 28 0 -27z m344 -512 l98 -18 -6
-36 c-3 -20 -6 -50 -6 -67 l0 -32 -82 -12 c-46 -6 -95 -14 -110 -17 -27 -5
-28 -4 -28 39 0 84 12 169 24 165 6 -2 55 -12 110 -22z m-160 -95 l7 -94 -36
47 c-20 26 -43 47 -51 47 -10 0 0 18 28 50 23 27 43 48 44 47 1 -1 4 -45 8
-97z"/>
</g>
</svg>
