<?xml version="1.0" standalone="no"?>
<!DOCTYPE svg PUBLIC "-//W3C//DTD SVG 20010904//EN"
 "http://www.w3.org/TR/2001/REC-SVG-20010904/DTD/svg10.dtd">
<svg version="1.0" xmlns="http://www.w3.org/2000/svg"
 width="201.000000pt" height="123.000000pt" viewBox="0 0 201.000000 123.000000"
 preserveAspectRatio="xMidYMid meet">
<metadata>
Created by potrace 1.16, written by Peter Selinger 2001-2019
</metadata>
<g transform="translate(0.000000,123.000000) scale(0.100000,-0.100000)"
fill="#000000" stroke="none">
<path d="M1390 915 c-14 -8 -83 -30 -153 -49 -223 -62 -372 -134 -478 -233
-42 -39 -51 -43 -98 -43 l-51 0 0 85 c0 78 -2 85 -20 85 -18 0 -20 -7 -20 -85
l0 -85 -40 0 -40 0 0 90 c0 83 -1 90 -20 90 -19 0 -20 -7 -20 -95 0 -88 -1
-95 -20 -95 -19 0 -20 7 -20 95 0 88 -1 95 -20 95 -19 0 -20 -7 -20 -94 l0
-94 -35 -6 c-41 -8 -38 -26 4 -26 l28 0 8 -110 c8 -127 25 -139 25 -17 0 99 7
127 30 127 20 0 30 -52 30 -151 0 -104 18 -72 25 46 l7 115 38 0 37 0 7 -61
c3 -34 6 -86 6 -115 0 -29 4 -55 9 -58 5 -4 12 46 16 114 7 116 8 120 32 126
61 16 378 -39 463 -79 40 -19 62 -22 195 -22 134 0 156 3 208 24 48 19 62 30
73 57 29 69 7 132 -60 174 -32 19 -47 22 -124 18 -81 -3 -97 -8 -249 -73 -91
-39 -163 -75 -163 -82 0 -7 2 -13 6 -13 3 0 85 31 182 69 210 82 274 94 327
61 45 -28 67 -70 63 -123 l-3 -41 -75 -24 c-102 -33 -245 -35 -345 -5 -173 52
-248 72 -300 78 l-56 7 23 25 c31 33 147 105 231 143 78 35 352 130 376 130
34 0 138 -59 173 -98 21 -23 52 -66 69 -97 39 -70 55 -71 28 -2 -35 92 -87
157 -154 193 -74 40 -103 47 -135 29z"/>
<path d="M1697 624 c-4 -4 -7 -15 -7 -25 0 -31 -80 -177 -112 -204 -61 -51
-103 -66 -212 -72 -242 -14 -410 36 -585 173 -54 42 -71 47 -71 19 0 -21 103
-99 190 -144 129 -67 157 -72 400 -70 203 2 217 3 250 24 46 29 106 96 124
139 30 71 46 183 23 160z"/>
</g>
</svg>
