<?xml version="1.0" standalone="no"?>
<!DOCTYPE svg PUBLIC "-//W3C//DTD SVG 20010904//EN"
 "http://www.w3.org/TR/2001/REC-SVG-20010904/DTD/svg10.dtd">
<svg version="1.0" xmlns="http://www.w3.org/2000/svg"
 width="205.000000pt" height="289.000000pt" viewBox="0 0 205.000000 289.000000"
 preserveAspectRatio="xMidYMid meet">
<metadata>
Created by potrace 1.16, written by Peter Selinger 2001-2019
</metadata>
<g transform="translate(0.000000,289.000000) scale(0.100000,-0.100000)"
fill="#000000" stroke="none">
<path d="M707 2577 c-3 -9 -13 -14 -21 -11 -22 9 -30 -16 -10 -31 230 -169
281 -205 289 -204 13 0 -70 75 -169 152 -59 47 -74 63 -60 66 10 2 82 1 159
-1 160 -6 162 -6 423 -145 l143 -76 -83 -49 c-46 -26 -141 -78 -212 -114 -123
-63 -133 -67 -225 -75 -53 -4 -116 -8 -140 -9 l-44 0 51 41 c51 40 175 180
167 188 -3 2 -48 -37 -102 -86 -54 -49 -115 -102 -135 -117 -32 -24 -36 -31
-27 -48 9 -18 18 -19 107 -13 204 14 246 22 334 66 46 23 135 77 199 120 64
44 120 79 124 79 4 0 57 -19 117 -41 60 -23 112 -39 115 -35 6 6 -137 75 -184
90 -13 4 -23 10 -23 14 0 4 35 28 78 54 88 53 141 94 107 83 -45 -14 -205
-109 -205 -122 0 -19 -5 -17 -68 25 -104 70 -250 152 -315 177 -54 20 -91 25
-224 31 -142 6 -160 5 -166 -9z"/>
<path d="M955 2470 c-3 -5 26 -25 65 -45 86 -43 92 -31 9 19 -68 40 -66 40
-74 26z"/>
<path d="M405 2381 c-69 -40 -101 -65 -102 -78 -1 -14 23 -33 94 -74 53 -30
105 -57 116 -62 14 -5 45 11 128 68 99 68 114 75 158 75 61 0 141 11 141 19 0
3 -53 5 -118 3 l-118 -4 -81 56 c-45 31 -89 56 -100 56 -10 0 -63 -27 -118
-59z m205 -20 l99 -58 -96 -57 c-53 -31 -102 -55 -107 -54 -21 6 -165 103
-163 110 2 7 155 115 165 117 2 1 48 -25 102 -58z"/>
<path d="M1176 2391 c-3 -5 0 -13 7 -19 14 -11 114 -62 122 -62 14 0 3 18 -17
28 -13 6 -42 22 -65 37 -23 14 -44 21 -47 16z"/>
<path d="M1000 2322 c0 -11 119 -74 132 -70 7 3 -16 21 -49 41 -60 36 -83 45
-83 29z"/>
<path d="M1130 2320 c0 -11 120 -74 127 -66 6 6 -101 76 -117 76 -5 0 -10 -4
-10 -10z"/>
<path d="M709 1778 c-13 -24 -24 -13 169 -171 l113 -92 -123 -5 c-114 -5 -125
-3 -148 16 -14 11 -53 42 -88 68 l-63 48 -57 -33 c-108 -61 -172 -109 -172
-130 0 -14 28 -38 98 -83 53 -34 105 -65 115 -69 13 -5 41 11 99 56 44 34 88
68 98 75 12 9 76 17 182 23 89 5 255 16 367 24 112 9 206 13 209 11 8 -9 -240
-167 -332 -211 -76 -37 -332 -115 -377 -115 -6 0 4 18 23 39 18 21 68 80 111
129 42 50 77 93 77 96 0 20 -32 -9 -145 -129 -119 -126 -127 -137 -117 -159
l11 -24 87 19 c269 59 369 105 586 272 l77 59 111 -47 c61 -25 116 -44 123
-42 7 2 -39 29 -100 60 l-113 55 100 71 c92 66 121 91 104 91 -8 0 -112 -62
-184 -111 l-55 -37 -230 -8 c-127 -4 -234 -8 -240 -9 -5 -1 -44 31 -85 70 -41
39 -102 95 -135 124 l-60 53 85 -7 c233 -18 345 -49 538 -150 69 -36 127 -64
129 -61 7 7 -170 117 -252 156 -101 49 -168 67 -325 85 -173 21 -197 20 -211
-7z m-66 -229 c51 -34 92 -65 92 -70 0 -4 -42 -36 -93 -69 -82 -54 -95 -60
-111 -48 -10 7 -51 36 -90 65 l-72 51 88 66 c48 36 90 66 91 66 2 0 45 -28 95
-61z"/>
<path d="M704 936 c-11 -24 -7 -29 98 -117 l110 -93 -76 -38 c-43 -22 -82 -35
-89 -31 -7 4 -49 36 -94 70 -44 35 -87 63 -93 63 -14 0 -114 -59 -182 -107
-28 -21 -45 -40 -44 -51 3 -18 176 -139 213 -148 16 -4 42 10 102 55 44 34 83
66 86 71 5 8 11 7 21 -1 8 -7 48 -24 89 -38 l73 -26 -94 -102 c-87 -93 -94
-104 -82 -122 16 -26 26 -26 179 0 158 26 281 67 389 129 102 58 174 109 166
117 -3 3 -12 0 -21 -7 -13 -11 -15 -6 -15 38 0 28 5 54 10 57 6 4 7 12 3 18
-14 21 -10 97 5 97 27 0 -1 20 -86 61 -183 88 -285 112 -532 125 l-125 6 -11
-26z m224 -26 c21 0 22 -3 22 -91 l0 -90 -97 88 c-54 48 -100 91 -102 96 -2 5
30 7 75 4 44 -4 89 -6 102 -7z m100 -6 c20 -6 22 -12 22 -80 l0 -74 -35 0 -35
0 0 80 c0 84 1 86 48 74z m110 -87 l3 -67 -31 0 -30 0 0 74 0 74 28 -7 c26 -7
27 -11 30 -74z m80 -21 c3 -66 -1 -72 -32 -60 -12 5 -16 21 -16 75 0 67 1 68
23 60 19 -7 22 -16 25 -75z m86 33 c5 -4 11 -33 14 -64 5 -58 2 -61 -45 -49
-21 6 -23 12 -23 71 0 62 1 64 23 58 12 -4 26 -11 31 -16z m91 -31 c22 -10 25
-17 25 -66 0 -45 -3 -53 -16 -48 -9 3 -27 9 -40 12 -22 6 -24 11 -24 60 0 59
7 64 55 42z m-662 -158 c4 -4 -37 -36 -92 -73 l-99 -66 -80 62 c-45 34 -82 66
-84 70 -2 5 35 37 81 72 l85 63 90 -61 c50 -33 95 -63 99 -67z m317 5 l0 -75
-35 0 -35 0 17 27 c17 26 17 27 0 20 -14 -5 -17 -1 -17 23 0 17 5 30 11 30 8
0 7 5 -2 16 -10 13 -10 17 2 25 8 5 24 9 37 9 21 0 22 -4 22 -75z m74 69 c12
-5 16 -21 16 -69 0 -62 0 -63 -30 -67 l-30 -5 0 74 c0 75 4 82 44 67z m87 -14
c5 0 9 -22 9 -49 0 -44 -2 -49 -25 -53 -28 -6 -32 4 -26 69 2 34 7 43 18 39 8
-3 19 -6 24 -6z m-261 -64 l0 -65 -32 11 c-85 27 -118 42 -111 49 10 10 124
68 136 68 4 1 7 -28 7 -63z m368 27 c3 -17 -3 -26 -23 -33 -40 -15 -45 -13
-45 26 0 34 1 35 33 32 24 -2 33 -8 35 -25z m75 6 c21 0 21 -1 2 -9 -32 -14
-55 -11 -55 6 0 11 5 14 16 10 9 -3 25 -6 37 -7z m27 -73 c0 -51 -2 -55 -36
-75 -19 -12 -37 -21 -40 -21 -2 0 -4 27 -4 60 0 58 1 60 33 74 47 21 47 21 47
-38z m-100 -50 c0 -63 -1 -64 -31 -75 -18 -6 -34 -11 -35 -11 -2 0 -4 29 -4
64 0 61 1 65 28 74 15 6 30 11 35 11 4 1 7 -28 7 -63z m-90 -35 c0 -68 0 -69
-31 -80 -18 -6 -34 -11 -35 -11 -2 0 -4 31 -4 69 0 67 1 70 28 79 15 6 30 11
35 11 4 1 7 -30 7 -68z m-90 -30 c0 -74 0 -75 -43 -85 l-28 -7 5 53 c2 29 5
63 5 75 1 20 15 29 49 32 8 1 12 -19 12 -68z m-184 -50 l-1 -66 -85 -12 c-46
-7 -85 -11 -86 -10 -1 1 34 44 79 95 91 105 94 104 93 -7z m99 56 c12 -79 5
-100 -38 -110 -21 -5 -39 -8 -41 -6 -1 2 -1 39 2 82 l4 77 33 0 c32 0 34 -2
40 -43z"/>
<path d="M1588 824 c-101 -51 -120 -65 -100 -78 8 -5 205 104 227 125 23 23
-28 4 -127 -47z"/>
<path d="M1495 591 c-7 -13 9 -21 133 -66 57 -21 106 -35 109 -31 9 8 11 7
-110 59 -114 50 -123 52 -132 38z"/>
</g>
</svg>
