<?xml version="1.0" standalone="no"?>
<!DOCTYPE svg PUBLIC "-//W3C//DTD SVG 20010904//EN"
 "http://www.w3.org/TR/2001/REC-SVG-20010904/DTD/svg10.dtd">
<svg version="1.0" xmlns="http://www.w3.org/2000/svg"
 width="148.000000pt" height="125.000000pt" viewBox="0 0 148.000000 125.000000"
 preserveAspectRatio="xMidYMid meet">
<metadata>
Created by potrace 1.16, written by Peter Selinger 2001-2019
</metadata>
<g transform="translate(0.000000,125.000000) scale(0.100000,-0.100000)"
fill="#000000" stroke="none">
<path d="M766 943 c-3 -4 -13 -8 -21 -9 -23 -3 -414 -249 -444 -280 -2 -2 2
-10 8 -18 8 -10 9 -16 1 -21 -5 -3 -10 -10 -10 -14 0 -14 416 -281 444 -285 6
-1 16 -5 23 -9 20 -13 413 290 413 318 0 16 -111 109 -278 233 -136 101 -126
95 -136 85z m185 -175 c102 -68 194 -128 204 -133 15 -9 9 -16 -46 -49 -98
-60 -343 -226 -355 -242 -9 -11 -26 -2 -93 51 -45 36 -131 99 -189 142 -59 42
-110 79 -115 83 -4 4 34 36 85 72 51 36 140 102 197 146 85 66 106 79 115 67
6 -7 95 -69 197 -137z"/>
<path d="M745 742 c-16 -2 -40 -13 -52 -24 -14 -13 -41 -23 -73 -26 -43 -4
-57 -1 -82 18 -38 28 -48 17 -48 -56 0 -101 18 -137 50 -99 25 30 150 10 162
-26 2 -7 29 -11 69 -11 56 0 85 7 190 49 75 30 124 55 124 64 0 17 -197 98
-262 107 -27 4 -61 6 -78 4z m213 -67 c56 -21 102 -40 102 -44 0 -14 -217 -85
-273 -89 -50 -4 -62 -1 -96 22 -50 35 -100 43 -142 22 -17 -9 -34 -16 -36 -16
-1 0 -3 27 -3 60 0 33 2 60 3 60 2 0 19 -7 36 -16 43 -22 103 -13 144 20 29
24 38 26 97 22 41 -2 102 -17 168 -41z"/>
</g>
</svg>
