<?xml version="1.0" standalone="no"?>
<!DOCTYPE svg PUBLIC "-//W3C//DTD SVG 20010904//EN"
 "http://www.w3.org/TR/2001/REC-SVG-20010904/DTD/svg10.dtd">
<svg version="1.0" xmlns="http://www.w3.org/2000/svg"
 width="210.000000pt" height="125.000000pt" viewBox="0 0 210.000000 125.000000"
 preserveAspectRatio="xMidYMid meet">
<metadata>
Created by potrace 1.16, written by Peter Selinger 2001-2019
</metadata>
<g transform="translate(0.000000,125.000000) scale(0.100000,-0.100000)"
fill="#000000" stroke="none">
<path d="M766 943 c-4 -4 -13 -8 -21 -9 -18 -3 -201 -114 -335 -203 -98 -66
-104 -72 -106 -106 -1 -34 1 -36 150 -133 199 -130 270 -172 290 -172 9 0 16
-4 16 -10 0 -5 4 -10 8 -10 11 0 241 171 332 246 l64 54 19 -50 c10 -27 42
-82 70 -122 44 -61 60 -75 101 -90 118 -44 223 -31 335 42 50 33 59 45 84 107
15 38 27 87 26 109 l-1 39 -12 -45 c-7 -25 -24 -72 -37 -105 -24 -60 -25 -60
-113 -105 -117 -59 -176 -61 -281 -9 -67 32 -72 37 -110 109 -36 67 -40 82
-40 145 1 79 31 164 72 202 13 13 56 32 95 44 88 27 189 22 296 -15 39 -14 72
-21 72 -16 0 13 -140 67 -205 79 -67 12 -154 -2 -235 -37 -51 -22 -86 -75
-115 -175 -19 -65 -9 -66 -100 9 -49 40 -279 214 -301 227 -6 3 -14 3 -18 0z
m99 -120 c55 -38 146 -98 202 -133 l102 -65 -97 -62 c-131 -83 -293 -194 -313
-215 -16 -15 -24 -11 -120 63 -56 44 -144 109 -196 146 -51 37 -90 70 -86 73
5 4 58 44 120 88 61 44 146 108 189 141 62 50 79 58 88 47 6 -7 56 -44 111
-83z"/>
<path d="M1740 815 c0 -4 8 -20 17 -38 9 -18 22 -50 29 -72 l13 -40 0 48 c1
53 -21 107 -44 107 -8 0 -15 -2 -15 -5z"/>
</g>
</svg>
