<?xml version="1.0" standalone="no"?>
<!DOCTYPE svg PUBLIC "-//W3C//DTD SVG 20010904//EN"
 "http://www.w3.org/TR/2001/REC-SVG-20010904/DTD/svg10.dtd">
<svg version="1.0" xmlns="http://www.w3.org/2000/svg"
 width="148.000000pt" height="125.000000pt" viewBox="0 0 148.000000 125.000000"
 preserveAspectRatio="xMidYMid meet">
<metadata>
Created by potrace 1.16, written by Peter Selinger 2001-2019
</metadata>
<g transform="translate(0.000000,125.000000) scale(0.100000,-0.100000)"
fill="#000000" stroke="none">
<path d="M766 943 c-3 -4 -13 -8 -21 -9 -23 -3 -414 -249 -444 -280 -2 -2 2
-10 8 -18 8 -10 9 -16 1 -21 -5 -3 -10 -10 -10 -14 0 -14 416 -281 444 -285 6
-1 16 -5 23 -9 20 -13 413 290 413 318 0 16 -111 109 -278 233 -136 101 -126
95 -136 85z m-33 -320 c3 -152 5 -279 3 -281 -2 -2 -46 30 -97 70 -52 40 -134
102 -184 137 -49 35 -93 67 -98 71 -4 3 41 41 100 83 60 42 142 103 183 136
41 33 78 60 81 60 3 1 9 -124 12 -276z m422 12 c14 -9 5 -18 -62 -59 -43 -27
-133 -87 -200 -133 -68 -46 -125 -83 -128 -83 -7 0 -6 163 2 362 l6 165 182
-121 c100 -67 190 -126 200 -131z"/>
</g>
</svg>
