<?xml version="1.0" standalone="no"?>
<!DOCTYPE svg PUBLIC "-//W3C//DTD SVG 20010904//EN"
 "http://www.w3.org/TR/2001/REC-SVG-20010904/DTD/svg10.dtd">
<svg version="1.0" xmlns="http://www.w3.org/2000/svg"
 width="148.000000pt" height="125.000000pt" viewBox="0 0 148.000000 125.000000"
 preserveAspectRatio="xMidYMid meet">
<metadata>
Created by potrace 1.16, written by Peter Selinger 2001-2019
</metadata>
<g transform="translate(0.000000,125.000000) scale(0.100000,-0.100000)"
fill="#000000" stroke="none">
<path d="M766 943 c-3 -4 -13 -8 -21 -9 -23 -3 -414 -249 -444 -280 -2 -2 2
-10 8 -18 8 -10 9 -16 1 -21 -5 -3 -10 -10 -10 -14 0 -14 416 -281 444 -285 6
-1 17 -5 23 -9 20 -13 413 291 413 319 0 7 -31 38 -69 70 -38 31 -72 65 -74
75 -3 11 -14 19 -24 19 -11 0 -68 36 -127 80 -119 88 -110 83 -120 73z m77
-103 c36 -24 65 -45 63 -47 -1 -1 -66 -3 -144 -4 l-142 -2 0 -148 0 -149 166
-2 165 -3 -93 -64 c-51 -35 -98 -70 -104 -77 -9 -11 -27 -1 -93 51 -45 36
-131 99 -189 142 -59 42 -110 79 -115 83 -4 4 34 36 85 72 51 36 140 101 196
146 97 75 105 79 121 64 9 -10 47 -37 84 -62z m175 -202 c-3 -120 -5 -133 -20
-132 -10 1 -70 2 -133 3 l-115 1 0 130 0 130 135 0 136 0 -3 -132z m137 -13
c0 -5 -26 -27 -57 -47 l-58 -38 0 85 0 85 58 -38 c31 -20 57 -41 57 -47z"/>
</g>
</svg>
