<?xml version="1.0" standalone="no"?>
<!DOCTYPE svg PUBLIC "-//W3C//DTD SVG 20010904//EN"
 "http://www.w3.org/TR/2001/REC-SVG-20010904/DTD/svg10.dtd">
<svg version="1.0" xmlns="http://www.w3.org/2000/svg"
 width="148.000000pt" height="125.000000pt" viewBox="0 0 148.000000 125.000000"
 preserveAspectRatio="xMidYMid meet">
<metadata>
Created by potrace 1.16, written by Peter Selinger 2001-2019
</metadata>
<g transform="translate(0.000000,125.000000) scale(0.100000,-0.100000)"
fill="#000000" stroke="none">
<path d="M766 943 c-3 -4 -13 -8 -21 -9 -23 -3 -414 -249 -444 -280 -2 -2 2
-10 8 -18 9 -10 9 -16 1 -21 -6 -4 -10 -10 -8 -15 7 -18 413 -280 442 -284 6
-1 16 -5 23 -9 20 -13 413 290 413 318 0 16 -109 108 -278 233 -133 100 -126
95 -136 85z m189 -179 l190 -127 -154 7 c-85 3 -256 6 -380 7 -179 0 -222 3
-208 12 10 7 91 67 180 133 126 95 164 119 172 108 5 -7 96 -70 200 -140z m90
-219 c-146 -94 -277 -184 -291 -202 -10 -11 -21 -6 -65 30 -30 24 -110 85
-178 135 l-124 92 199 1 c110 1 262 5 339 8 77 4 162 8 189 9 l49 2 -118 -75z"/>
</g>
</svg>
