<?xml version="1.0" standalone="no"?>
<!DOCTYPE svg PUBLIC "-//W3C//DTD SVG 20010904//EN"
 "http://www.w3.org/TR/2001/REC-SVG-20010904/DTD/svg10.dtd">
<svg version="1.0" xmlns="http://www.w3.org/2000/svg"
 width="136.000000pt" height="180.000000pt" viewBox="0 0 136.000000 180.000000"
 preserveAspectRatio="xMidYMid meet">
<metadata>
Created by potrace 1.16, written by Peter Selinger 2001-2019
</metadata>
<g transform="translate(0.000000,180.000000) scale(0.100000,-0.100000)"
fill="#000000" stroke="none">
<path d="M675 1488 c-15 -48 -58 -373 -60 -463 -3 -127 8 -297 17 -275 4 8 9
74 13 145 9 187 48 514 71 588 4 12 0 17 -16 17 -11 0 -22 -6 -25 -12z"/>
<path d="M356 1363 c-33 -214 -47 -361 -53 -543 -9 -286 13 -370 107 -417 71
-36 221 -64 378 -71 153 -7 203 1 74 13 -245 21 -431 72 -484 131 -29 34 -40
102 -39 260 1 159 18 355 51 582 24 162 24 152 1 152 -16 0 -21 -15 -35 -107z"/>
<path d="M1007 765 c-5 -12 -33 -13 -177 -8 l-170 6 0 -27 c0 -27 0 -27 63
-22 34 3 111 8 170 11 l109 6 -6 -28 c-5 -20 -36 -372 -36 -400 0 -2 4 -3 8
-3 4 0 16 64 26 143 20 161 43 279 55 287 13 8 -6 50 -23 50 -7 0 -16 -7 -19
-15z"/>
</g>
</svg>
