<?xml version="1.0" standalone="no"?>
<!DOCTYPE svg PUBLIC "-//W3C//DTD SVG 20010904//EN"
 "http://www.w3.org/TR/2001/REC-SVG-20010904/DTD/svg10.dtd">
<svg version="1.0" xmlns="http://www.w3.org/2000/svg"
 width="190.000000pt" height="134.000000pt" viewBox="0 0 190.000000 134.000000"
 preserveAspectRatio="xMidYMid meet">
<metadata>
Created by potrace 1.16, written by Peter Selinger 2001-2019
</metadata>
<g transform="translate(0.000000,134.000000) scale(0.100000,-0.100000)"
fill="#000000" stroke="none">
<path d="M510 1021 c-129 -41 -152 -64 -189 -185 -41 -132 -22 -236 71 -407
47 -85 48 -86 105 -105 40 -13 86 -19 148 -19 81 0 96 3 151 32 33 17 87 39
120 47 53 14 261 83 307 101 15 6 17 0 17 -64 0 -41 4 -71 10 -71 6 0 10 31
10 74 l0 73 165 68 c91 37 168 72 171 77 7 11 7 11 -161 -42 -66 -20 -130 -41
-142 -44 -22 -7 -23 -4 -23 38 l0 46 130 0 c72 0 130 4 130 9 0 5 -44 12 -97
15 -54 4 -113 9 -130 12 l-33 5 0 94 c0 88 -1 95 -20 95 -19 0 -20 -7 -20 -95
l0 -95 -54 0 c-29 0 -74 3 -98 6 l-46 6 -4 47 c-8 80 -72 200 -95 177 -3 -3 7
-34 21 -70 48 -119 45 -178 -15 -337 -29 -74 -31 -77 -89 -108 -79 -42 -165
-71 -211 -71 -55 0 -166 39 -198 69 -30 28 -86 162 -101 243 -12 61 1 152 32
233 17 45 29 60 57 75 62 31 148 51 218 51 68 0 190 -29 244 -56 32 -17 39
-18 39 -6 0 11 -118 64 -189 85 -70 21 -162 20 -231 -3z m716 -384 c1 -1 4
-24 5 -51 l3 -49 -144 -52 c-80 -28 -147 -48 -149 -43 -2 5 15 49 38 98 23 49
41 94 41 101 0 9 24 10 102 5 56 -3 103 -7 104 -9z"/>
</g>
</svg>
