<?xml version="1.0" standalone="no"?>
<!DOCTYPE svg PUBLIC "-//W3C//DTD SVG 20010904//EN"
 "http://www.w3.org/TR/2001/REC-SVG-20010904/DTD/svg10.dtd">
<svg version="1.0" xmlns="http://www.w3.org/2000/svg"
 width="229.000000pt" height="142.000000pt" viewBox="0 0 229.000000 142.000000"
 preserveAspectRatio="xMidYMid meet">
<metadata>
Created by potrace 1.16, written by Peter Selinger 2001-2019
</metadata>
<g transform="translate(0.000000,142.000000) scale(0.100000,-0.100000)"
fill="#000000" stroke="none">
<path d="M1193 1046 c-110 -118 -172 -239 -173 -337 -1 -127 93 -283 223 -373
l53 -36 254 146 c374 215 440 254 440 263 0 4 -96 63 -212 130 -117 68 -269
156 -338 196 -69 39 -137 75 -152 78 -23 6 -34 -2 -95 -67z m367 -121 c135
-73 283 -151 329 -175 l84 -42 -169 -87 c-93 -48 -248 -130 -345 -184 -96 -53
-180 -97 -186 -97 -14 0 -91 83 -132 143 -133 194 -110 335 92 554 35 38 42
41 61 31 11 -6 131 -71 266 -143z"/>
<path d="M1271 933 c0 -84 12 -155 21 -131 4 9 8 56 9 105 2 75 0 88 -15 91
-14 3 -16 -7 -15 -65z"/>
<path d="M1438 768 c2 -51 6 -100 9 -108 8 -17 21 71 22 148 1 43 -2 52 -16
52 -16 0 -18 -10 -15 -92z"/>
<path d="M1188 668 c2 -51 6 -100 10 -108 6 -16 19 76 21 153 1 39 -2 47 -17
47 -16 0 -18 -9 -14 -92z"/>
<path d="M1605 658 c4 -56 9 -105 11 -107 9 -10 12 10 15 104 4 90 2 100 -14
103 -18 4 -18 -3 -12 -100z"/>
<path d="M1324 509 c7 -98 11 -118 20 -108 2 2 6 49 8 104 3 92 1 100 -16 103
-18 4 -19 -1 -12 -99z"/>
<path d="M380 1019 c0 -7 9 -43 21 -81 11 -39 19 -72 16 -74 -2 -2 -21 27 -43
66 -42 74 -42 74 -63 61 -10 -7 -2 -26 40 -87 123 -184 231 -335 236 -330 3 3
-24 51 -59 108 -61 98 -66 109 -88 226 -20 103 -26 122 -42 122 -10 0 -18 -5
-18 -11z"/>
<path d="M661 923 c-23 -5 -24 -7 -17 -71 3 -37 6 -143 6 -237 0 -93 4 -164 9
-157 6 10 10 10 20 -2 10 -12 32 -1 145 68 162 98 182 112 176 119 -3 3 -68
-28 -145 -69 -204 -110 -185 -108 -185 -16 0 42 3 134 7 204 l6 128 154 -81
c229 -120 212 -92 -33 54 -62 37 -113 66 -115 66 -2 -1 -15 -4 -28 -6z"/>
<path d="M527 824 c-3 -3 -4 -11 -2 -17 2 -7 9 -45 15 -85 16 -97 30 -80 23
26 -5 76 -15 97 -36 76z"/>
<path d="M377 724 c-15 -15 -4 -25 64 -59 95 -48 109 -39 23 16 -84 53 -79 51
-87 43z"/>
</g>
</svg>
