<?xml version="1.0" standalone="no"?>
<!DOCTYPE svg PUBLIC "-//W3C//DTD SVG 20010904//EN"
 "http://www.w3.org/TR/2001/REC-SVG-20010904/DTD/svg10.dtd">
<svg version="1.0" xmlns="http://www.w3.org/2000/svg"
 width="142.000000pt" height="190.000000pt" viewBox="0 0 142.000000 190.000000"
 preserveAspectRatio="xMidYMid meet">
<metadata>
Created by potrace 1.16, written by Peter Selinger 2001-2019
</metadata>
<g transform="translate(0.000000,190.000000) scale(0.100000,-0.100000)"
fill="#000000" stroke="none">
<path d="M587 1593 c-3 -5 -4 -86 -1 -181 l3 -173 -26 -10 c-38 -14 -138 -83
-206 -142 -53 -46 -57 -53 -51 -81 4 -17 37 -85 74 -151 38 -66 122 -217 188
-335 66 -118 126 -215 133 -215 12 0 117 168 325 522 l96 163 -35 48 c-43 58
-129 140 -180 171 l-38 23 6 87 c11 165 14 261 7 265 -15 8 -290 17 -295 9z
m263 -53 l0 -30 -84 0 c-110 0 -146 8 -146 31 0 19 -7 18 188 27 40 2 42 1 42
-28z m0 -85 l0 -35 -62 0 c-35 0 -87 3 -115 6 -47 6 -53 9 -53 30 0 22 3 23
93 27 50 1 102 4 115 5 19 2 22 -3 22 -33z m0 -95 l0 -40 -52 0 c-29 0 -83 3
-120 7 -66 6 -68 7 -68 34 l0 28 83 4 c45 1 99 4 120 5 37 2 37 2 37 -38z m0
-91 c0 -25 -3 -30 -17 -25 -65 25 -157 29 -209 9 -9 -3 -14 2 -14 16 0 18 7
20 78 24 42 1 96 4 120 5 41 2 42 1 42 -29z m-55 -49 c27 -12 -55 -12 -110 -1
-37 8 -35 9 25 9 36 0 74 -3 85 -8z m-199 -31 c5 -8 45 -10 138 -5 l132 7 59
-40 c33 -22 83 -63 110 -91 l50 -51 -21 -37 c-11 -20 -74 -134 -141 -252 -66
-118 -143 -257 -171 -309 l-50 -95 -91 180 c-49 98 -131 256 -180 351 l-91
171 53 48 c51 46 175 134 189 134 4 0 10 -5 14 -11z"/>
<path d="M590 1075 c0 -12 19 -15 108 -15 59 0 125 3 147 7 36 6 38 7 15 14
-14 4 -80 7 -147 8 -103 1 -123 -1 -123 -14z"/>
<path d="M590 948 c0 -21 2 -21 142 -14 132 7 158 10 147 20 -2 2 -68 6 -146
9 -141 7 -143 6 -143 -15z"/>
<path d="M590 797 c0 -19 5 -20 141 -14 129 5 160 10 148 21 -2 2 -68 6 -146
8 -137 4 -143 4 -143 -15z"/>
<path d="M590 671 c0 -19 7 -19 133 -14 72 2 139 7 147 11 19 8 -91 19 -197
21 -76 1 -83 -1 -83 -18z"/>
</g>
</svg>
