<?xml version="1.0" standalone="no"?>
<!DOCTYPE svg PUBLIC "-//W3C//DTD SVG 20010904//EN"
 "http://www.w3.org/TR/2001/REC-SVG-20010904/DTD/svg10.dtd">
<svg version="1.0" xmlns="http://www.w3.org/2000/svg"
 width="240.000000pt" height="150.000000pt" viewBox="0 0 240.000000 150.000000"
 preserveAspectRatio="xMidYMid meet">
<metadata>
Created by potrace 1.16, written by Peter Selinger 2001-2019
</metadata>
<g transform="translate(0.000000,150.000000) scale(0.100000,-0.100000)"
fill="#000000" stroke="none">
<path d="M1832 1180 c-7 -12 -11 -24 -8 -28 2 -4 7 -182 10 -397 4 -214 9
-403 12 -418 l6 -28 108 3 107 3 7 89 c3 49 6 241 6 427 0 259 3 340 13 346
16 10 -64 21 -168 22 -70 1 -82 -1 -93 -19z m213 -380 c3 -195 8 -379 11 -407
l5 -53 -63 0 c-35 0 -79 3 -98 6 l-36 6 4 396 c2 219 6 399 7 400 6 7 150 18
157 13 3 -4 9 -166 13 -361z"/>
<path d="M986 1162 c-2 -4 33 -46 79 -93 l84 -86 -37 -36 -37 -36 -111 45
c-97 40 -112 49 -122 76 -6 18 -10 33 -8 35 2 2 41 -11 87 -28 67 -25 172 -58
187 -59 1 0 2 4 2 8 0 10 -19 20 -164 79 -78 31 -111 41 -116 32 -4 -6 -13 -8
-19 -4 -25 15 -313 -175 -403 -266 -81 -83 -112 -139 -106 -194 7 -54 56 -160
95 -201 65 -69 151 -88 274 -60 41 9 153 52 249 95 l175 79 27 -25 27 -26 -79
-86 c-73 -78 -94 -111 -71 -111 5 0 43 38 86 85 59 66 82 84 96 80 13 -4 17
-2 14 7 -4 10 6 13 40 13 25 0 45 -2 45 -5 0 -3 -29 -35 -65 -70 -46 -45 -62
-67 -54 -75 8 -7 32 12 81 65 42 44 72 70 75 63 8 -21 25 -14 18 7 -6 18 -2
20 36 20 l43 0 -54 -57 c-76 -78 -80 -83 -80 -94 0 -23 29 -3 91 63 54 59 70
71 80 61 21 -21 34 -15 14 7 -18 20 -17 20 21 20 l38 0 -73 -74 c-52 -52 -69
-76 -60 -81 8 -6 35 16 82 64 67 70 69 72 88 55 19 -17 19 -19 -27 -65 -33
-34 -42 -49 -33 -55 9 -5 35 16 81 66 l69 73 29 -28 c37 -36 40 -21 3 17 l-27
28 65 1 c91 1 124 17 37 18 -62 1 -83 10 -58 26 6 3 10 11 10 17 0 7 -14 -1
-31 -18 l-31 -29 -69 75 c-46 50 -72 71 -79 64 -6 -6 5 -26 35 -61 24 -28 41
-53 38 -57 -20 -19 -53 -1 -110 61 -42 47 -65 65 -72 58 -7 -7 6 -28 42 -67
l52 -56 -31 0 c-24 -1 -42 10 -89 58 -32 33 -57 61 -54 64 2 2 49 28 103 57
55 29 95 54 90 56 -6 2 -77 -26 -160 -61 -103 -44 -153 -61 -161 -54 -15 12
-36 1 -30 -15 2 -7 -10 -18 -27 -25 -30 -13 -32 -13 -77 37 -35 39 -48 48 -57
39 -9 -9 -3 -22 30 -55 23 -23 40 -45 37 -47 -3 -3 -72 -35 -153 -71 -82 -35
-154 -72 -160 -80 -14 -19 -139 -31 -211 -21 -91 14 -181 133 -192 256 l-5 56
75 70 c73 69 190 155 315 235 l62 40 21 -48 c43 -101 132 -288 142 -298 6 -7
7 4 3 31 -5 33 -2 43 10 48 9 3 20 3 26 0 5 -3 19 3 31 14 12 11 47 29 77 40
30 11 64 24 75 28 19 7 18 5 -2 -18 -51 -55 -11 -52 42 3 37 39 181 117 193
105 3 -3 -2 -8 -11 -12 -26 -10 -119 -123 -111 -135 5 -8 33 16 80 67 71 78
73 79 82 54 9 -22 5 -30 -29 -65 -28 -30 -36 -44 -28 -52 8 -8 20 -1 43 24
l31 35 30 -73 c35 -85 63 -108 40 -33 l-14 47 62 67 62 67 27 -25 c38 -35 49
-19 13 18 l-29 30 77 0 c45 0 77 4 77 10 0 6 -27 10 -60 10 -58 0 -60 1 -50
20 14 26 2 25 -28 -2 l-24 -23 -69 74 c-54 58 -72 72 -81 63 -9 -9 -2 -23 35
-60 49 -49 51 -62 11 -62 -15 0 -42 22 -83 67 -49 54 -63 65 -73 55 -8 -8 -9
-15 -3 -20 6 -4 29 -28 52 -52 l42 -45 -29 -2 c-24 -2 -40 9 -91 63 -43 44
-66 61 -73 54 -7 -7 7 -27 44 -65 l54 -55 -46 0 c-44 0 -49 3 -107 67 -47 51
-64 64 -73 55 -9 -9 1 -26 47 -72 l59 -60 -37 0 c-23 0 -36 4 -32 10 8 13 -8
13 -21 0 -6 -6 -35 19 -84 74 -71 80 -92 96 -104 78z m524 -197 c-7 -8 -16
-15 -21 -15 -5 0 -9 7 -9 15 0 9 9 15 21 15 18 0 19 -2 9 -15z m105 -5 c-10
-11 -21 -20 -24 -20 -3 0 -12 9 -19 20 -11 19 -10 20 24 20 36 0 37 0 19 -20z
m-350 -8 c-23 -21 -144 -67 -153 -58 -3 4 7 20 23 36 22 23 32 27 42 19 12
-11 17 -5 14 14 0 4 20 7 46 7 47 0 47 0 28 -18z m283 -59 c-23 -24 -34 -29
-40 -20 -13 20 -9 40 14 64 20 22 23 22 40 6 18 -16 17 -18 -14 -50z m-575 23
c82 -31 86 -34 69 -49 -10 -9 -37 -23 -60 -31 l-42 -15 -30 59 c-28 55 -34 70
-27 70 1 0 41 -15 90 -34z m356 -340 l54 -54 -45 0 c-40 0 -51 5 -84 39 -21
21 -36 40 -33 42 2 2 15 8 29 14 14 7 25 12 25 12 1 1 25 -23 54 -53z m-106
-23 l36 -38 -35 -3 c-22 -1 -33 2 -29 8 3 5 2 10 -4 10 -5 0 -13 -5 -16 -11
-5 -7 -14 -4 -26 7 -26 24 -24 38 9 51 15 6 27 11 27 12 1 1 17 -16 38 -36z
m407 -66 c0 -2 -8 -11 -18 -21 -18 -15 -20 -15 -37 4 -18 20 -18 20 18 20 21
0 37 -2 37 -3z"/>
<path d="M571 891 c-15 -10 14 -73 116 -253 23 -43 43 -79 43 -82 0 -9 -109
-29 -167 -30 -55 -1 -65 2 -93 29 -18 17 -48 61 -67 99 -23 47 -38 65 -45 58
-25 -25 65 -175 122 -205 25 -13 48 -17 83 -13 54 6 187 46 187 57 0 13 -156
349 -162 349 -2 0 -9 -4 -17 -9z"/>
</g>
</svg>
