<?xml version="1.0" standalone="no"?>
<!DOCTYPE svg PUBLIC "-//W3C//DTD SVG 20010904//EN"
 "http://www.w3.org/TR/2001/REC-SVG-20010904/DTD/svg10.dtd">
<svg version="1.0" xmlns="http://www.w3.org/2000/svg"
 width="159.000000pt" height="144.000000pt" viewBox="0 0 159.000000 144.000000"
 preserveAspectRatio="xMidYMid meet">
<metadata>
Created by potrace 1.16, written by Peter Selinger 2001-2019
</metadata>
<g transform="translate(0.000000,144.000000) scale(0.100000,-0.100000)"
fill="#000000" stroke="none">
<path d="M493 1125 c-126 -34 -193 -93 -193 -169 0 -80 123 -156 281 -173 l58
-6 4 104 c1 57 4 -6 5 -141 2 -279 12 -453 22 -424 4 11 9 175 11 364 l4 345
-22 -1 c-21 -1 -23 4 -23 58 l0 58 -47 -1 c-27 0 -72 -7 -100 -14z m52 -31
c-62 -67 -58 -201 8 -273 l22 -24 -39 7 c-120 22 -212 83 -222 147 -5 31 -1
41 26 73 46 52 133 92 202 95 l27 1 -24 -26z"/>
<path d="M950 1086 c0 -51 -2 -56 -22 -56 l-21 0 7 -362 c4 -200 9 -365 12
-367 11 -11 14 22 20 242 l7 237 26 0 c14 0 57 7 94 15 136 29 217 91 217 167
0 83 -123 163 -272 175 l-68 6 0 -57z m211 1 c178 -80 144 -217 -66 -273 -73
-20 -83 -18 -57 9 66 70 68 205 4 274 l-24 26 45 -6 c25 -4 69 -17 98 -30z"/>
<path d="M780 1023 c-1 -4 0 -118 0 -253 0 -274 9 -479 20 -459 4 8 9 171 11
364 4 327 3 350 -13 353 -10 2 -18 0 -18 -5z"/>
</g>
</svg>
