<?xml version="1.0" standalone="no"?>
<!DOCTYPE svg PUBLIC "-//W3C//DTD SVG 20010904//EN"
 "http://www.w3.org/TR/2001/REC-SVG-20010904/DTD/svg10.dtd">
<svg version="1.0" xmlns="http://www.w3.org/2000/svg"
 width="152.000000pt" height="162.000000pt" viewBox="0 0 152.000000 162.000000"
 preserveAspectRatio="xMidYMid meet">
<metadata>
Created by potrace 1.16, written by Peter Selinger 2001-2019
</metadata>
<g transform="translate(0.000000,162.000000) scale(0.100000,-0.100000)"
fill="#000000" stroke="none">
<path d="M564 1258 c-76 -85 -130 -169 -150 -237 -9 -31 -39 -107 -66 -170
-27 -62 -47 -116 -44 -119 8 -7 6 -9 58 80 l45 77 13 -42 c17 -57 43 -107 106
-204 29 -45 47 -80 40 -77 -13 5 -26 -19 -88 -160 -21 -49 -36 -91 -33 -94 3
-3 6 -3 8 -1 11 13 79 132 101 177 28 55 36 61 56 37 33 -39 15 1 -40 91 -82
135 -123 241 -124 324 -1 56 4 76 32 130 33 65 127 190 148 197 8 3 13 -43 18
-144 9 -214 10 -558 2 -572 -8 -12 112 -251 126 -251 4 0 8 1 8 3 0 5 -59 155
-83 207 -22 51 -24 64 -19 178 l4 122 118 0 c64 0 185 3 268 7 l152 6 0 93 c0
89 -1 94 -22 99 -13 2 -131 6 -263 7 l-240 3 -7 134 c-4 74 -9 140 -12 148
-12 31 -54 13 -112 -49z m630 -274 c3 -9 6 -45 6 -80 l0 -65 -247 7 c-137 3
-252 7 -258 9 -6 1 -9 30 -7 69 l4 66 211 3 c117 1 228 3 248 5 26 1 39 -3 43
-14z"/>
</g>
</svg>
