<?xml version="1.0" standalone="no"?>
<!DOCTYPE svg PUBLIC "-//W3C//DTD SVG 20010904//EN"
 "http://www.w3.org/TR/2001/REC-SVG-20010904/DTD/svg10.dtd">
<svg version="1.0" xmlns="http://www.w3.org/2000/svg"
 width="113.000000pt" height="152.000000pt" viewBox="0 0 113.000000 152.000000"
 preserveAspectRatio="xMidYMid meet">
<metadata>
Created by potrace 1.16, written by Peter Selinger 2001-2019
</metadata>
<g transform="translate(0.000000,152.000000) scale(0.100000,-0.100000)"
fill="#000000" stroke="none">
<path d="M309 1199 c-15 -30 -5 -106 18 -138 25 -32 120 -111 135 -111 6 0
-21 33 -60 73 -51 54 -72 83 -77 110 -12 63 -1 62 59 -7 61 -69 182 -180 175
-159 -6 16 -222 253 -231 253 -4 0 -12 -10 -19 -21z"/>
<path d="M771 1129 c-107 -20 -182 -103 -166 -185 13 -72 113 -144 199 -144
l26 0 0 164 c0 91 -3 167 -7 169 -5 2 -28 0 -52 -4z m-13 -51 c-31 -60 -31
-169 -1 -221 26 -44 15 -48 -45 -18 -57 29 -84 64 -89 115 -9 78 35 125 154
165 2 1 -7 -18 -19 -41z"/>
<path d="M446 925 c-44 -15 -91 -57 -113 -99 -19 -37 -12 -95 16 -135 27 -38
114 -81 163 -81 l38 0 0 165 0 165 -32 0 c-18 -1 -50 -7 -72 -15z m44 -8 c0
-2 -8 -19 -17 -38 -26 -50 -24 -162 3 -215 l20 -42 -28 9 c-153 44 -176 197
-39 269 33 18 61 25 61 17z"/>
<path d="M771 759 c-107 -20 -182 -104 -166 -188 13 -69 115 -141 199 -141
l26 0 0 164 c0 91 -3 167 -7 169 -5 2 -28 0 -52 -4z m-13 -51 c-31 -60 -31
-169 -1 -221 26 -44 15 -48 -46 -17 -85 43 -116 127 -72 193 25 38 87 77 138
87 2 0 -7 -19 -19 -42z"/>
<path d="M400 523 c-69 -53 -100 -100 -100 -151 0 -36 15 -72 30 -72 13 0 232
242 225 249 -3 3 -57 -46 -120 -109 -105 -104 -115 -112 -115 -87 0 48 25 90
90 150 34 32 60 60 57 63 -2 3 -33 -17 -67 -43z"/>
</g>
</svg>
