<?xml version="1.0" standalone="no"?>
<!DOCTYPE svg PUBLIC "-//W3C//DTD SVG 20010904//EN"
 "http://www.w3.org/TR/2001/REC-SVG-20010904/DTD/svg10.dtd">
<svg version="1.0" xmlns="http://www.w3.org/2000/svg"
 width="228.000000pt" height="130.000000pt" viewBox="0 0 228.000000 130.000000"
 preserveAspectRatio="xMidYMid meet">
<metadata>
Created by potrace 1.16, written by Peter Selinger 2001-2019
</metadata>
<g transform="translate(0.000000,130.000000) scale(0.100000,-0.100000)"
fill="#000000" stroke="none">
<path d="M300 834 l0 -167 44 5 c144 17 225 147 151 244 -31 41 -114 84 -162
84 l-33 0 0 -166z m125 123 c80 -45 106 -123 62 -188 -23 -35 -89 -79 -118
-79 -15 0 -15 4 2 37 13 26 19 58 19 108 0 50 -6 82 -19 108 -17 33 -17 37 -2
37 9 0 34 -10 56 -23z"/>
<path d="M917 911 c-11 -54 5 -448 20 -510 l6 -24 436 7 c502 7 596 13 580 32
-7 9 -8 87 -3 257 l7 244 -24 6 c-13 4 -247 10 -520 14 l-496 6 -6 -32z m997
-38 c3 -21 6 -60 6 -87 l0 -49 -122 6 c-66 4 -208 7 -315 7 l-193 0 0 70 0 70
103 1 c93 1 425 13 488 17 23 2 27 -3 33 -35z m-924 -54 c0 -60 -2 -70 -17
-67 -16 3 -17 6 -14 108 1 20 6 30 16 30 12 0 15 -15 15 -71z m80 1 c0 -63 -2
-70 -20 -70 -18 0 -20 7 -20 70 0 63 2 70 20 70 18 0 20 -7 20 -70z m100 -1
l0 -70 -32 3 c-18 2 -32 6 -30 11 1 4 2 34 2 67 l0 60 30 0 30 0 0 -71z m90 1
l0 -70 -31 0 -31 0 6 53 c3 28 5 60 6 70 0 11 8 17 25 17 24 0 25 -2 25 -70z
m660 -177 l0 -76 -167 6 c-91 4 -233 7 -315 7 l-148 0 0 65 0 64 138 4 c75 1
217 4 315 5 l177 2 0 -77z m-930 60 c1 -5 3 -34 7 -65 5 -58 5 -58 -22 -58
-26 0 -26 1 -24 58 2 65 5 72 25 72 8 0 14 -3 14 -7z m82 -58 l3 -65 -29 0
c-22 0 -27 4 -22 16 3 9 6 38 6 65 0 42 3 49 19 49 17 0 20 -9 23 -65z m98 0
l0 -65 -36 0 -36 0 3 58 c4 72 4 72 40 72 l29 0 0 -65z m90 0 l0 -65 -30 0
-30 0 0 65 0 65 30 0 30 0 0 -65z m664 -117 c3 -13 6 -43 6 -67 l0 -44 -227 6
c-124 4 -269 7 -322 7 l-96 0 3 55 4 55 171 3 c497 8 454 10 461 -15z m-924
-44 c0 -54 0 -55 -27 -52 -16 2 -27 6 -25 11 1 4 2 27 2 52 0 41 2 45 25 45
24 0 25 -3 25 -56z m80 1 c0 -54 0 -55 -30 -55 -30 0 -30 1 -30 55 0 54 0 55
30 55 30 0 30 -1 30 -55z m100 0 l0 -55 -40 0 -40 0 0 55 0 55 40 0 40 0 0
-55z m88 -2 l3 -53 -35 0 -36 0 0 56 0 55 33 -3 c31 -3 32 -4 35 -55z"/>
<path d="M580 642 l0 -171 38 6 c20 3 60 16 89 29 164 78 110 274 -82 301
l-45 6 0 -171z m139 116 c75 -47 93 -132 40 -193 -34 -38 -56 -53 -99 -65
l-28 -8 21 46 c27 62 27 156 -1 212 l-20 42 26 -7 c15 -4 42 -16 61 -27z"/>
<path d="M300 465 l0 -165 26 0 c118 0 220 108 193 205 -17 62 -114 125 -193
125 l-26 0 0 -165z m125 122 c80 -45 106 -123 62 -188 -23 -35 -89 -79 -118
-79 -15 0 -15 4 2 37 13 26 19 58 19 108 0 50 -6 82 -19 108 -17 33 -17 37 -2
37 9 0 34 -10 56 -23z"/>
</g>
</svg>
