<?xml version="1.0" standalone="no"?>
<!DOCTYPE svg PUBLIC "-//W3C//DTD SVG 20010904//EN"
 "http://www.w3.org/TR/2001/REC-SVG-20010904/DTD/svg10.dtd">
<svg version="1.0" xmlns="http://www.w3.org/2000/svg"
 width="244.000000pt" height="130.000000pt" viewBox="0 0 244.000000 130.000000"
 preserveAspectRatio="xMidYMid meet">
<metadata>
Created by potrace 1.16, written by Peter Selinger 2001-2019
</metadata>
<g transform="translate(0.000000,130.000000) scale(0.100000,-0.100000)"
fill="#000000" stroke="none">
<path d="M682 974 c-69 -34 -97 -74 -97 -139 0 -36 6 -59 23 -82 28 -39 114
-83 164 -83 l38 0 0 165 0 165 -38 0 c-21 0 -61 -12 -90 -26z m51 -26 c-25
-46 -25 -180 1 -227 l18 -34 -29 7 c-54 13 -100 53 -118 100 -17 45 -17 46 6
93 18 35 36 53 68 70 63 33 76 31 54 -9z"/>
<path d="M1083 683 c4 -192 9 -266 19 -283 l13 -23 430 7 c482 7 603 13 581
30 -12 9 -13 52 -8 258 l7 247 -25 5 c-14 3 -249 9 -523 12 l-499 7 5 -260z
m997 140 l0 -86 -112 6 c-62 4 -202 7 -310 7 l-198 0 0 70 0 70 98 1 c91 1
433 13 495 17 l27 2 0 -87z m-920 -3 c0 -63 -2 -70 -20 -70 -18 0 -20 7 -20
70 0 63 2 70 20 70 18 0 20 -7 20 -70z m76 -2 c1 -65 0 -68 -23 -68 -22 0 -23
3 -23 71 0 67 1 70 23 67 20 -3 22 -8 23 -70z m96 17 c0 -30 1 -61 2 -67 1 -8
-13 -14 -31 -16 l-33 -3 0 70 0 71 30 0 c30 0 30 -1 32 -55z m88 -15 c0 -68
-1 -70 -25 -70 -24 0 -25 2 -25 70 0 68 1 70 25 70 24 0 25 -2 25 -70z m660
-144 c0 -24 3 -58 6 -75 l7 -32 -319 7 c-176 4 -319 7 -320 8 -1 0 1 29 4 63
l4 62 132 4 c72 1 211 4 309 5 l177 2 0 -44z m-920 -31 c0 -58 -2 -65 -20 -65
-18 0 -20 7 -20 65 0 58 2 65 20 65 18 0 20 -7 20 -65z m80 0 c0 -63 -1 -65
-25 -65 -24 0 -25 2 -25 65 0 63 1 65 25 65 24 0 25 -2 25 -65z m100 0 l0 -65
-35 0 -35 0 0 65 0 65 35 0 35 0 0 -65z m84 43 c3 -13 6 -42 6 -65 0 -41 -1
-43 -30 -43 l-30 0 0 65 c0 62 1 65 24 65 16 0 26 -7 30 -22z m666 -205 l0
-66 -232 6 c-128 4 -272 7 -320 7 l-88 0 0 55 0 55 173 3 c94 1 238 4 320 5
l147 2 0 -67z m-926 20 c11 -67 9 -73 -24 -73 -30 0 -30 1 -30 55 0 51 2 55
24 55 19 0 24 -6 30 -37z m76 -8 c0 -25 1 -48 3 -52 1 -5 -13 -9 -30 -11 -36
-4 -38 1 -27 71 6 31 11 37 30 37 22 0 24 -4 24 -45z m100 -10 l0 -55 -40 0
-40 0 0 48 c0 58 3 62 47 62 l33 0 0 -55z m90 0 l0 -55 -35 0 -35 0 0 55 0 55
35 0 35 0 0 -55z"/>
<path d="M427 795 c-146 -54 -171 -199 -50 -279 34 -23 129 -50 143 -41 3 2 4
78 2 169 l-3 166 -27 -1 c-15 0 -44 -7 -65 -14z m27 -37 c-36 -69 -28 -203 15
-252 15 -18 15 -18 -9 -11 -83 24 -134 70 -145 129 -11 54 29 112 100 149 48
26 58 22 39 -15z"/>
<path d="M682 604 c-69 -34 -97 -74 -97 -139 0 -36 6 -59 23 -82 28 -39 114
-83 164 -83 l38 0 0 165 0 165 -38 0 c-21 0 -61 -12 -90 -26z m51 -26 c-25
-46 -25 -180 1 -227 l18 -34 -29 7 c-54 13 -100 53 -118 100 -17 45 -17 46 6
93 18 35 36 53 68 70 63 33 76 31 54 -9z"/>
</g>
</svg>
