<?xml version="1.0" standalone="no"?>
<!DOCTYPE svg PUBLIC "-//W3C//DTD SVG 20010904//EN"
 "http://www.w3.org/TR/2001/REC-SVG-20010904/DTD/svg10.dtd">
<svg version="1.0" xmlns="http://www.w3.org/2000/svg"
 width="134.000000pt" height="135.000000pt" viewBox="0 0 134.000000 135.000000"
 preserveAspectRatio="xMidYMid meet">
<metadata>
Created by potrace 1.16, written by Peter Selinger 2001-2019
</metadata>
<g transform="translate(0.000000,135.000000) scale(0.100000,-0.100000)"
fill="#000000" stroke="none">
<path d="M544 1027 c-106 -40 -156 -77 -186 -137 -82 -164 -75 -296 23 -428
74 -100 99 -121 167 -142 125 -39 207 -22 354 73 49 32 56 41 92 128 51 123
57 192 26 289 -14 43 -30 75 -42 81 -29 15 -31 7 -10 -42 11 -25 23 -59 27
-77 l7 -32 -158 0 -157 0 6 85 c5 75 4 85 -11 85 -9 0 -26 -13 -37 -29 -19
-30 -20 -30 -136 -33 l-116 -3 10 28 c11 34 65 70 156 104 89 34 167 28 288
-22 122 -50 122 -50 88 -20 -16 14 -68 45 -114 68 -106 53 -183 60 -277 24z
m117 -180 c-10 -9 -11 -8 -5 6 3 10 9 15 12 12 3 -3 0 -11 -7 -18z m-60 -34
c-8 -15 -24 -18 -103 -18 -52 0 -93 -4 -93 -9 0 -6 37 -9 88 -7 48 1 87 0 87
-2 0 -32 -15 -37 -103 -37 -65 0 -88 -3 -80 -11 6 -6 41 -9 86 -7 66 3 77 1
81 -14 4 -16 -5 -18 -85 -18 -53 0 -89 -4 -89 -10 0 -6 37 -10 90 -10 79 0 91
-2 100 -20 10 -19 8 -20 -84 -20 -52 0 -98 -4 -101 -10 -4 -6 31 -10 99 -10
95 0 106 -2 116 -20 10 -19 8 -20 -105 -20 -77 0 -114 -3 -110 -10 4 -7 48 -9
120 -5 l114 5 20 -28 c34 -45 43 -54 48 -48 3 3 1 12 -6 19 -8 10 -9 45 -5
116 l7 101 156 -2 156 -3 -3 -40 c-5 -50 -49 -203 -67 -231 -17 -26 -175 -95
-232 -102 -48 -5 -111 8 -196 41 l-59 22 -46 94 c-43 85 -47 101 -47 165 0 39
6 92 14 119 l14 47 114 0 c106 0 113 -1 104 -17z m69 13 c0 -18 -15 -36 -31
-36 -22 0 -24 11 -7 28 11 11 38 17 38 8z m-10 -66 c0 -16 -7 -20 -30 -20 -18
0 -30 5 -30 13 0 20 10 27 37 27 16 0 23 -6 23 -20z m-17 -39 c9 -1 17 -8 17
-16 0 -10 -11 -15 -35 -15 -28 0 -35 4 -35 19 0 13 6 18 18 16 9 -2 25 -4 35
-4z m17 -71 c0 -14 -7 -20 -24 -20 -15 0 -26 7 -29 20 -4 17 0 20 24 20 22 0
29 -5 29 -20z m0 -61 c0 -18 -2 -19 -15 -9 -8 7 -15 16 -15 21 0 5 7 9 15 9 9
0 15 -9 15 -21z"/>
</g>
</svg>
