<?xml version="1.0" standalone="no"?>
<!DOCTYPE svg PUBLIC "-//W3C//DTD SVG 20010904//EN"
 "http://www.w3.org/TR/2001/REC-SVG-20010904/DTD/svg10.dtd">
<svg version="1.0" xmlns="http://www.w3.org/2000/svg"
 width="148.000000pt" height="125.000000pt" viewBox="0 0 148.000000 125.000000"
 preserveAspectRatio="xMidYMid meet">
<metadata>
Created by potrace 1.16, written by Peter Selinger 2001-2019
</metadata>
<g transform="translate(0.000000,125.000000) scale(0.100000,-0.100000)"
fill="#000000" stroke="none">
<path d="M308 945 c-10 -10 -10 -344 -1 -519 l6 -129 406 7 c223 4 415 8 427
8 20 0 21 7 28 136 3 74 6 215 6 314 l0 178 -32 -1 c-18 -1 -213 2 -433 6
-220 4 -403 4 -407 0z m835 -317 c3 -161 5 -293 4 -294 -1 -1 -92 2 -202 6
-110 5 -294 9 -409 10 l-209 0 6 137 c4 75 7 198 7 275 l0 138 243 1 c199 1
424 8 533 17 21 2 21 -2 27 -290z"/>
<path d="M946 770 l-88 -49 -36 27 c-30 23 -45 27 -101 27 -52 0 -73 -5 -96
-22 l-31 -21 -69 39 c-39 21 -80 39 -93 39 -20 0 -22 -3 -18 -47 3 -27 8 -104
11 -173 3 -69 8 -134 10 -145 2 -11 4 -23 4 -27 2 -15 21 -8 88 33 l66 41 42
-21 c73 -36 161 -25 208 27 19 20 19 20 109 -23 50 -25 96 -50 104 -56 12 -10
14 19 14 189 0 173 -2 201 -16 206 -9 3 -16 6 -17 6 -1 0 -42 -22 -91 -50z
m88 -31 c3 -24 8 -100 11 -168 l7 -125 -27 18 c-15 10 -54 34 -86 53 -59 34
-59 34 -53 73 4 21 2 52 -4 69 -10 29 -9 30 66 80 42 27 78 49 79 47 2 -1 5
-23 7 -47z m-470 -65 c-18 -43 -18 -76 0 -119 l15 -35 -60 -35 c-33 -19 -62
-35 -65 -35 -2 0 -4 72 -4 160 l0 160 64 -32 64 -31 -14 -33z"/>
</g>
</svg>
