<?xml version="1.0" standalone="no"?>
<!DOCTYPE svg PUBLIC "-//W3C//DTD SVG 20010904//EN"
 "http://www.w3.org/TR/2001/REC-SVG-20010904/DTD/svg10.dtd">
<svg version="1.0" xmlns="http://www.w3.org/2000/svg"
 width="148.000000pt" height="131.000000pt" viewBox="0 0 148.000000 131.000000"
 preserveAspectRatio="xMidYMid meet">
<metadata>
Created by potrace 1.16, written by Peter Selinger 2001-2019
</metadata>
<g transform="translate(0.000000,131.000000) scale(0.100000,-0.100000)"
fill="#000000" stroke="none">
<path d="M664 1000 c-5 -5 -88 -11 -184 -12 l-175 -3 -3 -150 c-2 -82 0 -228
3 -322 l7 -173 201 0 c199 0 200 0 182 -20 -24 -26 -8 -26 20 0 19 18 43 21
223 30 111 5 208 7 215 4 17 -6 27 167 27 446 l0 177 -237 7 c-131 4 -242 11
-247 16 -13 13 -20 12 -32 0z m476 -202 c0 -90 3 -220 7 -290 l6 -128 -114 1
c-63 1 -145 4 -182 8 l-69 6 52 64 c65 81 100 150 100 199 0 45 -33 102 -122
210 -54 66 -57 72 -36 73 19 1 196 10 326 17 l32 2 0 -162z m-388 95 c26 -26
48 -51 48 -55 0 -4 -21 -22 -47 -40 -72 -49 -133 -108 -133 -129 0 -30 65 -93
132 -129 35 -18 65 -34 67 -36 2 -2 -12 -29 -33 -59 l-36 -55 -212 0 -211 0 6
137 c4 75 7 198 7 275 l0 138 182 0 182 0 48 -47z m132 -163 c25 -46 26 -54
15 -88 -15 -48 -58 -122 -70 -122 -17 0 -126 78 -148 106 -12 15 -21 33 -21
41 0 17 47 60 116 108 57 39 64 36 108 -45z"/>
</g>
</svg>
