<?xml version="1.0" standalone="no"?>
<!DOCTYPE svg PUBLIC "-//W3C//DTD SVG 20010904//EN"
 "http://www.w3.org/TR/2001/REC-SVG-20010904/DTD/svg10.dtd">
<svg version="1.0" xmlns="http://www.w3.org/2000/svg"
 width="134.000000pt" height="135.000000pt" viewBox="0 0 134.000000 135.000000"
 preserveAspectRatio="xMidYMid meet">
<metadata>
Created by potrace 1.16, written by Peter Selinger 2001-2019
</metadata>
<g transform="translate(0.000000,135.000000) scale(0.100000,-0.100000)"
fill="#000000" stroke="none">
<path d="M544 1027 c-106 -41 -156 -77 -186 -137 -15 -30 -34 -85 -44 -123
-32 -132 -5 -223 106 -354 55 -66 66 -74 126 -93 109 -33 168 -28 269 24 89
46 156 92 153 104 -2 4 13 43 31 87 45 108 51 182 21 275 -14 43 -30 75 -42
81 -29 16 -31 7 -9 -44 33 -77 40 -141 25 -216 -23 -109 -54 -190 -79 -207
-48 -31 -192 -84 -230 -84 -45 0 -125 20 -190 47 -49 20 -86 75 -126 183 -28
76 -23 154 16 258 25 65 34 77 74 103 127 80 237 86 389 24 121 -50 121 -50
87 -20 -16 14 -68 45 -114 68 -106 53 -183 60 -277 24z"/>
<path d="M605 789 l-68 -71 -85 3 c-61 3 -87 0 -90 -9 -3 -9 19 -12 83 -12
l87 0 70 -75 c38 -41 74 -75 79 -75 5 0 9 34 9 75 l0 75 82 0 82 0 53 -52 c60
-60 70 -54 18 11 -19 24 -35 46 -35 49 0 3 16 25 36 49 50 60 32 69 -20 11
l-42 -48 -71 0 c-102 0 -103 1 -103 76 0 35 -4 64 -8 64 -5 0 -39 -32 -77 -71z
m65 -90 l0 -120 -50 60 c-27 33 -50 63 -50 66 0 10 84 114 93 114 4 1 7 -53 7
-120z"/>
</g>
</svg>
