<?xml version="1.0" standalone="no"?>
<!DOCTYPE svg PUBLIC "-//W3C//DTD SVG 20010904//EN"
 "http://www.w3.org/TR/2001/REC-SVG-20010904/DTD/svg10.dtd">
<svg version="1.0" xmlns="http://www.w3.org/2000/svg"
 width="123.000000pt" height="119.000000pt" viewBox="0 0 123.000000 119.000000"
 preserveAspectRatio="xMidYMid meet">
<metadata>
Created by potrace 1.16, written by Peter Selinger 2001-2019
</metadata>
<g transform="translate(0.000000,119.000000) scale(0.100000,-0.100000)"
fill="#000000" stroke="none">
<path d="M304 875 c-4 -9 -4 -128 0 -264 4 -135 7 -261 6 -279 l-1 -32 288 0
c158 0 298 3 311 6 l22 6 0 284 0 284 -22 -1 c-13 -1 -152 2 -310 7 -271 7
-288 6 -294 -11z m600 -262 c3 -131 9 -251 13 -267 5 -24 3 -28 -10 -23 -8 3
-119 9 -246 13 l-231 7 0 28 c0 24 11 36 67 74 68 45 68 45 156 45 l88 0 -38
-32 c-21 -18 -40 -34 -42 -35 -3 -2 0 -8 5 -13 7 -7 25 6 54 35 39 40 49 45
90 46 72 1 96 17 27 18 -55 1 -62 4 -110 46 -29 25 -55 45 -59 45 -18 0 -6
-20 29 -49 l38 -31 -80 0 c-79 0 -81 1 -153 49 l-73 48 68 43 c65 41 70 42
156 44 l88 1 -41 -35 c-22 -19 -40 -38 -40 -42 0 -19 29 -4 70 37 42 42 49 45
98 45 28 0 52 5 52 10 0 6 -26 10 -58 10 -55 0 -60 2 -102 45 -26 26 -48 41
-53 36 -5 -5 7 -24 30 -45 l38 -35 -76 -1 c-75 0 -77 1 -154 51 -51 34 -80 48
-87 41 -6 -6 -9 -102 -9 -246 l1 -236 -41 0 -42 0 6 38 c4 20 9 130 13 245 4
114 7 208 8 209 1 1 323 13 467 16 l76 2 7 -237z m-400 143 c57 -33 58 -34 35
-46 -13 -7 -43 -24 -66 -37 l-43 -25 0 71 c0 39 3 71 8 71 4 0 33 -16 66 -34z
m-4 -212 l61 -37 -61 -33 c-33 -19 -63 -34 -65 -34 -3 0 -5 32 -5 70 0 39 2
70 4 70 3 0 32 -16 66 -36z"/>
</g>
</svg>
