<?xml version="1.0" standalone="no"?>
<!DOCTYPE svg PUBLIC "-//W3C//DTD SVG 20010904//EN"
 "http://www.w3.org/TR/2001/REC-SVG-20010904/DTD/svg10.dtd">
<svg version="1.0" xmlns="http://www.w3.org/2000/svg"
 width="134.000000pt" height="135.000000pt" viewBox="0 0 134.000000 135.000000"
 preserveAspectRatio="xMidYMid meet">
<metadata>
Created by potrace 1.16, written by Peter Selinger 2001-2019
</metadata>
<g transform="translate(0.000000,135.000000) scale(0.100000,-0.100000)"
fill="#000000" stroke="none">
<path d="M544 1027 c-106 -40 -156 -77 -186 -137 -82 -164 -75 -296 23 -428
74 -100 99 -121 167 -142 125 -39 207 -22 354 73 49 32 56 41 92 128 51 123
57 192 26 289 -14 43 -30 75 -42 81 -28 15 -31 7 -11 -37 28 -65 40 -143 31
-201 -15 -95 -57 -212 -82 -228 -49 -32 -192 -85 -231 -85 -45 0 -125 20 -190
47 -49 20 -86 75 -126 183 -27 76 -22 153 17 259 24 64 32 76 73 102 127 80
237 86 389 24 121 -50 121 -50 87 -20 -16 14 -68 45 -114 68 -106 53 -183 60
-277 24z"/>
<path d="M554 663 c4 -153 10 -280 12 -282 10 -10 13 13 19 165 l8 161 195 7
c184 6 212 9 201 21 -3 2 -94 8 -202 11 l-197 7 0 94 c0 88 -1 93 -21 93 l-22
0 7 -277z"/>
</g>
</svg>
