<?xml version="1.0" standalone="no"?>
<!DOCTYPE svg PUBLIC "-//W3C//DTD SVG 20010904//EN"
 "http://www.w3.org/TR/2001/REC-SVG-20010904/DTD/svg10.dtd">
<svg version="1.0" xmlns="http://www.w3.org/2000/svg"
 width="134.000000pt" height="135.000000pt" viewBox="0 0 134.000000 135.000000"
 preserveAspectRatio="xMidYMid meet">
<metadata>
Created by potrace 1.16, written by Peter Selinger 2001-2019
</metadata>
<g transform="translate(0.000000,135.000000) scale(0.100000,-0.100000)"
fill="#000000" stroke="none">
<path d="M544 1027 c-106 -41 -156 -77 -186 -137 -15 -30 -34 -85 -44 -123
-32 -132 -5 -223 106 -354 55 -66 66 -74 126 -93 126 -38 196 -25 346 66 45
28 62 45 79 82 43 95 69 183 69 232 0 64 -37 178 -62 191 -29 16 -31 7 -9 -44
11 -24 21 -54 23 -64 4 -25 -68 -136 -125 -191 l-45 -44 -47 59 c-26 32 -52
68 -58 80 -18 40 -34 33 -90 -40 -31 -40 -67 -83 -82 -97 l-27 -25 -39 45
c-21 25 -53 67 -70 93 -20 30 -37 46 -46 43 -17 -7 -11 21 24 122 29 83 53
104 172 149 89 34 167 28 288 -22 122 -50 122 -50 88 -20 -16 14 -68 45 -115
68 -108 53 -183 59 -276 24z m454 -380 c-18 -100 -58 -206 -82 -222 -49 -32
-192 -85 -231 -85 -45 0 -125 20 -190 47 -34 14 -50 29 -73 69 -41 72 -72 158
-72 202 l0 37 34 -50 c34 -52 128 -145 145 -145 14 0 112 110 129 147 9 18 19
33 23 33 4 0 21 -23 39 -50 18 -28 52 -66 75 -85 44 -37 55 -42 55 -25 0 5 21
31 46 57 25 27 57 69 72 95 31 56 43 46 30 -25z"/>
</g>
</svg>
