<?xml version="1.0" standalone="no"?>
<!DOCTYPE svg PUBLIC "-//W3C//DTD SVG 20010904//EN"
 "http://www.w3.org/TR/2001/REC-SVG-20010904/DTD/svg10.dtd">
<svg version="1.0" xmlns="http://www.w3.org/2000/svg"
 width="148.000000pt" height="119.000000pt" viewBox="0 0 148.000000 119.000000"
 preserveAspectRatio="xMidYMid meet">
<metadata>
Created by potrace 1.16, written by Peter Selinger 2001-2019
</metadata>
<g transform="translate(0.000000,119.000000) scale(0.100000,-0.100000)"
fill="#000000" stroke="none">
<path d="M307 883 c-9 -8 -9 -337 0 -476 l6 -107 427 0 427 0 7 37 c3 21 6
151 6 289 l0 251 -167 6 c-216 9 -698 9 -706 0z m846 -462 l4 -114 -61 7 c-33
3 -203 6 -376 7 -173 1 -332 3 -352 6 l-38 5 6 257 c4 141 7 257 8 257 1 1
177 5 391 9 215 4 392 9 395 12 3 3 8 -71 12 -164 3 -92 8 -219 11 -282z"/>
<path d="M548 778 c-59 -27 -66 -33 -64 -56 2 -22 16 -34 72 -65 50 -27 77
-36 98 -32 31 5 137 74 143 92 6 18 -118 93 -152 92 -16 0 -60 -14 -97 -31z
m172 -22 l65 -34 -50 -31 c-74 -47 -91 -49 -154 -15 -30 17 -56 35 -58 41 -4
11 100 72 122 72 6 0 39 -15 75 -33z"/>
<path d="M830 637 c-53 -27 -64 -36 -65 -57 0 -21 12 -31 73 -63 56 -29 80
-37 102 -32 32 7 140 81 140 96 0 19 -122 89 -154 89 -17 -1 -60 -15 -96 -33z
m197 -33 c18 -11 33 -22 33 -25 0 -10 -116 -69 -136 -69 -20 0 -124 60 -124
71 0 4 27 21 60 38 57 28 63 29 98 17 20 -8 52 -22 69 -32z"/>
<path d="M569 566 c-19 -8 -54 -23 -76 -35 -34 -17 -41 -26 -40 -47 3 -38 115
-98 170 -91 42 6 152 82 141 98 -10 17 -109 78 -135 83 -13 3 -40 -1 -60 -8z
m122 -47 l61 -31 -36 -25 c-21 -13 -53 -31 -72 -39 -31 -13 -37 -13 -72 5 -20
11 -50 29 -66 40 l-29 19 29 15 c16 8 43 22 59 31 42 22 57 20 126 -15z"/>
</g>
</svg>
