<?xml version="1.0" standalone="no"?>
<!DOCTYPE svg PUBLIC "-//W3C//DTD SVG 20010904//EN"
 "http://www.w3.org/TR/2001/REC-SVG-20010904/DTD/svg10.dtd">
<svg version="1.0" xmlns="http://www.w3.org/2000/svg"
 width="134.000000pt" height="135.000000pt" viewBox="0 0 134.000000 135.000000"
 preserveAspectRatio="xMidYMid meet">
<metadata>
Created by potrace 1.16, written by Peter Selinger 2001-2019
</metadata>
<g transform="translate(0.000000,135.000000) scale(0.100000,-0.100000)"
fill="#000000" stroke="none">
<path d="M544 1026 c-105 -39 -156 -76 -186 -136 -39 -79 -62 -180 -55 -250 6
-71 40 -136 117 -229 49 -58 63 -69 120 -88 39 -13 90 -22 126 -23 54 0 74 6
150 45 49 24 101 55 115 67 38 33 100 187 107 264 6 77 -27 197 -59 215 -29
15 -33 6 -14 -31 9 -17 22 -60 30 -95 15 -72 10 -113 -31 -247 l-27 -87 -96
-43 c-122 -55 -194 -58 -312 -15 -71 26 -77 31 -106 82 -57 99 -60 95 64 95
l108 0 35 -97 c19 -54 40 -97 45 -96 6 0 25 44 44 98 l34 97 106 -3 c139 -5
143 6 32 91 -45 33 -81 67 -81 75 0 7 14 52 30 98 17 47 30 90 30 96 0 23 -33
9 -111 -49 l-82 -59 -31 21 c-17 12 -57 42 -89 66 -83 63 -90 50 -47 -83 33
-103 34 -106 15 -119 -11 -8 -49 -37 -85 -65 -44 -34 -68 -47 -75 -40 -5 5
-10 45 -10 87 0 113 42 223 98 259 58 37 162 73 208 73 55 0 149 -25 227 -61
36 -16 67 -27 69 -25 8 8 -93 71 -167 103 -92 40 -157 42 -246 9z m69 -217
l37 -27 -40 -32 c-28 -22 -41 -28 -44 -18 -2 7 -14 42 -25 76 l-20 64 27 -18
c15 -10 44 -30 65 -45z m191 -10 c-9 -30 -19 -58 -24 -63 -8 -8 -70 31 -70 44
0 8 102 81 107 77 2 -2 -4 -28 -13 -58z m-78 -71 c28 -20 43 -37 39 -46 -3 -8
-10 -34 -16 -57 l-11 -42 -56 -6 c-31 -3 -60 -3 -63 1 -9 10 -42 113 -38 116
17 14 93 66 96 66 3 0 25 -14 49 -32z m-154 -108 l16 -50 -91 0 c-49 0 -88 3
-85 6 13 12 132 94 138 94 3 0 13 -22 22 -50z m305 5 l65 -45 -90 0 -90 0 17
45 c9 25 19 45 24 45 4 0 37 -20 74 -45z m-157 -87 c0 -7 -11 -46 -23 -87
l-23 -74 -22 74 c-12 41 -22 80 -22 87 0 8 16 12 45 12 29 0 45 -4 45 -12z"/>
</g>
</svg>
