<?xml version="1.0" standalone="no"?>
<!DOCTYPE svg PUBLIC "-//W3C//DTD SVG 20010904//EN"
 "http://www.w3.org/TR/2001/REC-SVG-20010904/DTD/svg10.dtd">
<svg version="1.0" xmlns="http://www.w3.org/2000/svg"
 width="134.000000pt" height="135.000000pt" viewBox="0 0 134.000000 135.000000"
 preserveAspectRatio="xMidYMid meet">
<metadata>
Created by potrace 1.16, written by Peter Selinger 2001-2019
</metadata>
<g transform="translate(0.000000,135.000000) scale(0.100000,-0.100000)"
fill="#000000" stroke="none">
<path d="M544 1026 c-105 -39 -156 -76 -186 -136 -39 -79 -62 -180 -55 -250 6
-71 40 -136 117 -229 49 -58 63 -69 120 -88 39 -13 90 -22 126 -23 54 0 74 6
150 45 49 24 101 55 115 67 38 33 100 187 107 264 6 77 -27 197 -59 215 -29
15 -33 6 -14 -31 9 -17 22 -60 30 -95 15 -72 10 -113 -31 -247 l-27 -87 -96
-42 c-66 -30 -115 -44 -156 -47 l-59 -5 29 36 c199 237 222 286 176 376 -25
48 -90 132 -155 199 l-50 52 38 0 c52 0 147 -26 224 -61 36 -16 67 -27 69 -25
8 8 -93 71 -167 103 -92 40 -157 42 -246 9z m166 -166 c0 -3 -26 -23 -57 -44
-89 -62 -123 -96 -123 -121 0 -35 44 -81 124 -127 39 -23 73 -43 75 -45 4 -3
-110 -162 -122 -170 -5 -3 -41 7 -81 21 -70 26 -73 29 -108 89 -77 135 -85
223 -32 366 29 79 53 101 152 140 l47 19 63 -61 c34 -34 62 -64 62 -67z m47
-47 c29 -37 53 -93 53 -124 0 -30 -56 -149 -70 -149 -4 0 -39 23 -79 51 -77
53 -102 89 -85 117 12 20 145 122 158 122 5 0 15 -8 23 -17z"/>
</g>
</svg>
