<?xml version="1.0" standalone="no"?>
<!DOCTYPE svg PUBLIC "-//W3C//DTD SVG 20010904//EN"
 "http://www.w3.org/TR/2001/REC-SVG-20010904/DTD/svg10.dtd">
<svg version="1.0" xmlns="http://www.w3.org/2000/svg"
 width="134.000000pt" height="135.000000pt" viewBox="0 0 134.000000 135.000000"
 preserveAspectRatio="xMidYMid meet">
<metadata>
Created by potrace 1.16, written by Peter Selinger 2001-2019
</metadata>
<g transform="translate(0.000000,135.000000) scale(0.100000,-0.100000)"
fill="#000000" stroke="none">
<path d="M544 1026 c-105 -39 -156 -76 -186 -136 -39 -79 -62 -180 -55 -250 6
-71 40 -136 117 -229 49 -58 63 -69 120 -88 39 -13 90 -22 126 -23 54 0 74 6
150 45 49 24 101 55 115 67 38 33 100 187 107 264 6 77 -27 197 -59 215 -29
15 -33 6 -14 -31 9 -17 22 -60 30 -95 15 -72 10 -113 -31 -247 l-27 -87 -96
-43 c-122 -55 -194 -58 -312 -15 -73 27 -76 29 -111 90 -78 135 -85 226 -31
368 25 64 33 76 74 99 66 40 154 70 200 70 55 0 149 -25 227 -61 36 -16 67
-27 69 -25 8 8 -93 71 -167 103 -92 40 -157 42 -246 9z"/>
<path d="M553 914 c-30 -42 -60 -104 -67 -141 -8 -34 10 -80 46 -120 20 -21
20 -21 -3 -82 -28 -78 -19 -89 17 -19 14 29 28 55 30 57 1 1 18 -9 37 -23 l35
-27 -24 -59 c-27 -66 -28 -70 -16 -70 4 0 20 25 35 55 15 30 32 55 38 55 8 0
8 4 2 13 -6 6 -13 58 -17 115 l-7 102 45 58 c24 32 51 64 60 71 16 13 13 31
-4 31 -5 0 -30 -29 -57 -65 l-48 -65 -10 57 c-8 44 -14 59 -29 61 -14 3 -17 0
-13 -12 9 -22 20 -114 16 -123 -4 -7 -91 -4 -99 4 -2 2 10 33 29 68 35 69 38
108 4 59z m78 -166 c0 -7 6 -48 13 -90 7 -43 9 -78 6 -78 -11 0 -130 127 -130
138 0 6 -3 17 -6 26 -5 14 3 16 55 16 42 0 61 -4 62 -12z"/>
<path d="M785 878 c-6 -36 -19 -95 -71 -326 -3 -17 -1 -23 8 -20 7 3 29 -15
48 -40 46 -59 50 -37 5 33 l-35 56 20 70 21 71 67 -2 c37 -1 72 -1 77 0 18 4
-49 18 -92 19 -49 1 -48 1 -28 86 18 76 19 95 1 95 -9 0 -17 -16 -21 -42z"/>
</g>
</svg>
