<?xml version="1.0" standalone="no"?>
<!DOCTYPE svg PUBLIC "-//W3C//DTD SVG 20010904//EN"
 "http://www.w3.org/TR/2001/REC-SVG-20010904/DTD/svg10.dtd">
<svg version="1.0" xmlns="http://www.w3.org/2000/svg"
 width="134.000000pt" height="135.000000pt" viewBox="0 0 134.000000 135.000000"
 preserveAspectRatio="xMidYMid meet">
<metadata>
Created by potrace 1.16, written by Peter Selinger 2001-2019
</metadata>
<g transform="translate(0.000000,135.000000) scale(0.100000,-0.100000)"
fill="#000000" stroke="none">
<path d="M544 1027 c-106 -41 -156 -77 -186 -137 -15 -30 -34 -85 -44 -123
-32 -132 -5 -223 106 -354 55 -66 66 -74 126 -93 126 -38 196 -25 346 66 45
28 62 45 79 82 43 95 69 183 69 232 0 64 -37 178 -62 191 -28 15 -30 7 -11
-37 28 -65 40 -143 31 -201 -15 -95 -57 -212 -82 -228 -49 -32 -192 -85 -231
-85 -45 0 -125 20 -190 47 -49 20 -86 75 -126 183 -27 75 -22 153 17 259 31
82 55 103 173 148 89 34 167 28 288 -22 122 -50 122 -50 88 -20 -16 14 -68 45
-115 68 -108 53 -183 59 -276 24z"/>
<path d="M566 928 c-8 -13 -32 -59 -53 -103 -33 -69 -38 -90 -38 -150 0 -65 4
-79 53 -176 28 -58 52 -110 52 -116 0 -12 30 -26 38 -18 3 3 0 11 -6 17 -13
13 -16 166 -6 256 l7 52 106 0 c138 0 271 11 271 21 0 5 -85 9 -190 9 l-190 0
0 115 c0 95 -3 115 -15 115 -8 0 -21 -10 -29 -22z m10 -194 c-3 -7 -14 -10
-25 -7 -16 4 -21 1 -21 -16 0 -16 6 -21 25 -21 l25 0 -1 -122 0 -123 -21 45
c-70 156 -74 214 -20 320 l37 75 3 -69 c2 -38 1 -75 -2 -82z"/>
</g>
</svg>
