<?xml version="1.0" standalone="no"?>
<!DOCTYPE svg PUBLIC "-//W3C//DTD SVG 20010904//EN"
 "http://www.w3.org/TR/2001/REC-SVG-20010904/DTD/svg10.dtd">
<svg version="1.0" xmlns="http://www.w3.org/2000/svg"
 width="148.000000pt" height="125.000000pt" viewBox="0 0 148.000000 125.000000"
 preserveAspectRatio="xMidYMid meet">
<metadata>
Created by potrace 1.16, written by Peter Selinger 2001-2019
</metadata>
<g transform="translate(0.000000,125.000000) scale(0.100000,-0.100000)"
fill="#000000" stroke="none">
<path d="M308 945 c-10 -10 -10 -344 -1 -519 l6 -129 406 7 c223 4 415 8 427
8 20 0 21 7 28 136 3 74 6 215 6 314 l0 178 -32 -1 c-18 -1 -213 2 -433 6
-220 4 -403 4 -407 0z m802 -33 c0 -3 -125 -130 -279 -283 -269 -269 -280
-279 -317 -279 l-39 0 280 280 c197 197 286 280 304 282 40 5 51 5 51 0z m29
-69 l0 -78 -202 -202 c-111 -112 -197 -203 -192 -203 5 0 96 87 202 192 191
190 193 192 193 158 0 -32 -14 -50 -163 -198 -99 -99 -171 -163 -183 -163 -10
0 -66 0 -124 0 l-105 1 285 285 c157 157 286 285 287 285 1 0 2 -35 2 -77z
m-484 -213 c-201 -201 -286 -280 -302 -280 -15 0 -23 6 -23 18 0 17 503 525
530 535 8 3 28 6 45 6 27 1 2 -27 -250 -279z m90 0 c-273 -273 -281 -280 -320
-280 l-40 0 280 280 c273 273 281 280 320 280 l40 0 -280 -280z m-365 262 c0
-5 -9 -17 -20 -27 -20 -18 -20 -17 -20 8 0 20 5 27 20 27 11 0 20 -4 20 -8z
m30 -57 c-35 -35 -62 -67 -59 -69 3 -3 36 26 74 64 58 58 75 70 102 70 18 0
32 -3 32 -7 -1 -5 -50 -55 -110 -112 l-108 -104 0 79 c0 75 2 81 31 112 24 24
41 32 67 32 l35 0 -64 -65z m90 -90 c-153 -154 -155 -155 -158 -124 -3 29 8
43 120 156 110 111 126 123 158 123 35 0 34 -1 -120 -155z m240 152 c0 -1 -92
-94 -205 -207 l-205 -205 5 41 c4 37 20 57 167 207 152 155 165 166 201 166
20 1 37 0 37 -2z m90 0 c0 -1 -112 -115 -250 -252 l-250 -250 0 40 c0 37 8 47
212 252 202 202 214 213 250 213 21 0 38 -1 38 -3z m188 -434 c-107 -107 -127
-123 -155 -123 -18 0 -33 2 -33 5 0 3 69 75 153 158 l152 153 3 -35 c3 -32 -5
-42 -120 -158z m45 -45 c-71 -71 -81 -78 -118 -78 l-40 0 115 115 115 116 3
-37 c3 -34 -2 -43 -75 -116z m87 30 c0 -24 -10 -42 -37 -70 -31 -32 -44 -38
-77 -38 l-40 0 69 70 c38 39 73 70 77 70 5 0 8 -14 8 -32z m0 -83 c0 -32 -2
-35 -30 -35 -16 0 -30 3 -30 7 0 7 51 63 57 63 2 0 3 -16 3 -35z"/>
<path d="M880 595 c-129 -129 -230 -235 -224 -235 5 0 115 106 244 235 129
129 230 235 225 235 -6 0 -116 -106 -245 -235z"/>
</g>
</svg>
