<?xml version="1.0" standalone="no"?>
<!DOCTYPE svg PUBLIC "-//W3C//DTD SVG 20010904//EN"
 "http://www.w3.org/TR/2001/REC-SVG-20010904/DTD/svg10.dtd">
<svg version="1.0" xmlns="http://www.w3.org/2000/svg"
 width="193.000000pt" height="135.000000pt" viewBox="0 0 193.000000 135.000000"
 preserveAspectRatio="xMidYMid meet">
<metadata>
Created by potrace 1.16, written by Peter Selinger 2001-2019
</metadata>
<g transform="translate(0.000000,135.000000) scale(0.100000,-0.100000)"
fill="#000000" stroke="none">
<path d="M553 1031 c-80 -30 -152 -72 -174 -102 -35 -50 -71 -161 -76 -240 -5
-70 -3 -81 25 -140 17 -36 57 -96 89 -134 52 -62 66 -72 123 -92 94 -32 170
-30 247 6 34 16 86 45 115 64 50 32 55 39 91 130 20 53 40 109 43 125 6 29 7
29 87 36 45 3 103 6 130 6 l47 0 0 -110 c0 -67 4 -110 10 -110 6 0 10 43 10
110 l0 110 40 0 40 0 1 -57 c1 -32 4 -83 8 -113 7 -52 7 -48 15 58 l8 112 100
0 c63 0 97 4 93 10 -3 6 -48 10 -101 10 l-94 0 0 80 c0 64 -3 80 -15 80 -12 0
-15 -16 -15 -80 l0 -80 -40 0 -40 0 0 80 c0 47 -4 80 -10 80 -6 0 -10 -33 -10
-80 l0 -80 -128 0 -129 0 -12 56 c-17 76 -37 120 -57 128 -9 4 -18 5 -20 3 -2
-1 8 -33 21 -70 14 -37 25 -79 25 -92 0 -24 -2 -25 -70 -25 l-70 0 0 70 c0 40
-4 70 -10 70 -6 0 -10 -30 -10 -70 l0 -70 -40 0 -40 0 0 70 c0 56 -3 70 -15
70 -12 0 -15 -14 -15 -70 l0 -70 -35 0 -35 0 0 140 c0 131 -1 140 -19 140 -18
0 -19 -7 -14 -140 l6 -140 -137 0 -136 0 0 24 c0 14 12 57 26 96 24 63 33 75
73 101 127 80 237 86 389 24 121 -50 121 -50 87 -21 -16 14 -67 45 -113 68
-102 52 -184 61 -269 29z m77 -517 l0 -166 -32 6 c-18 3 -58 16 -90 28 -50 20
-60 28 -91 82 -41 70 -67 144 -67 186 l0 30 140 0 140 0 0 -166z m104 114 c3
-29 6 -84 7 -123 l2 -70 7 55 c5 30 8 85 9 123 l1 67 40 0 40 0 0 -115 c0 -70
4 -115 10 -115 6 0 10 45 10 115 l0 115 71 0 72 0 -7 -42 c-4 -23 -19 -78 -34
-122 -27 -80 -27 -81 -82 -108 -89 -44 -158 -68 -197 -68 l-36 0 6 107 c4 58
7 135 7 170 l0 63 34 0 c33 0 33 -1 40 -52z"/>
</g>
</svg>
