<?xml version="1.0" standalone="no"?>
<!DOCTYPE svg PUBLIC "-//W3C//DTD SVG 20010904//EN"
 "http://www.w3.org/TR/2001/REC-SVG-20010904/DTD/svg10.dtd">
<svg version="1.0" xmlns="http://www.w3.org/2000/svg"
 width="109.000000pt" height="164.000000pt" viewBox="0 0 109.000000 164.000000"
 preserveAspectRatio="xMidYMid meet">
<metadata>
Created by potrace 1.16, written by Peter Selinger 2001-2019
</metadata>
<g transform="translate(0.000000,164.000000) scale(0.100000,-0.100000)"
fill="#000000" stroke="none">
<path d="M307 1333 c-9 -8 -9 -194 0 -342 l6 -114 171 7 c94 4 200 9 236 12
l65 6 4 212 3 213 -113 6 c-148 9 -364 9 -372 0z m443 -131 c0 -60 3 -149 6
-198 l7 -89 -119 7 c-66 3 -164 7 -218 7 l-99 1 6 98 c4 53 7 136 7 184 l0 88
163 3 c89 1 181 4 205 5 l42 2 0 -108z"/>
<path d="M300 623 c0 -71 3 -173 7 -227 l6 -99 229 5 c126 3 231 8 234 11 2 2
7 99 11 214 l6 210 -69 6 c-38 4 -149 7 -246 7 l-178 0 0 -127z m450 -15 c0
-62 3 -150 7 -195 l6 -82 -214 6 c-118 3 -215 7 -217 8 -1 1 1 83 5 183 l6
181 126 4 c69 1 161 4 204 5 l77 2 0 -112z"/>
</g>
</svg>
