<?xml version="1.0" standalone="no"?>
<!DOCTYPE svg PUBLIC "-//W3C//DTD SVG 20010904//EN"
 "http://www.w3.org/TR/2001/REC-SVG-20010904/DTD/svg10.dtd">
<svg version="1.0" xmlns="http://www.w3.org/2000/svg"
 width="134.000000pt" height="135.000000pt" viewBox="0 0 134.000000 135.000000"
 preserveAspectRatio="xMidYMid meet">
<metadata>
Created by potrace 1.16, written by Peter Selinger 2001-2019
</metadata>
<g transform="translate(0.000000,135.000000) scale(0.100000,-0.100000)"
fill="#000000" stroke="none">
<path d="M544 1027 c-106 -41 -156 -77 -186 -137 -15 -30 -34 -85 -44 -123
-32 -132 -5 -223 106 -354 55 -66 66 -74 126 -93 127 -39 208 -22 356 73 49
32 56 41 92 128 51 123 57 192 26 289 -14 43 -30 75 -42 81 -29 15 -31 7 -10
-42 38 -87 43 -162 19 -254 l-14 -50 -23 70 c-46 140 -86 202 -151 236 -52 26
-164 52 -194 45 -15 -4 -44 -30 -68 -61 l-42 -55 -63 0 c-71 0 -70 -4 -32 86
20 46 66 77 168 114 84 31 162 24 280 -25 121 -50 121 -50 87 -20 -16 14 -68
45 -115 68 -108 53 -183 59 -276 24z m196 -174 c25 -8 52 -22 61 -30 19 -16
39 -85 39 -131 0 -40 -27 -115 -50 -140 -36 -38 -26 -44 75 -40 l96 3 -6 -25
c-12 -48 -34 -67 -122 -105 -132 -57 -184 -57 -325 -3 -48 19 -60 29 -86 74
-62 108 -82 191 -66 273 l7 31 78 0 c44 0 79 4 79 9 0 5 18 33 41 61 l41 52
47 -7 c25 -4 66 -14 91 -22z m173 -195 c58 -139 59 -132 -4 -125 -30 4 -64 7
-75 7 l-21 0 23 47 c17 33 24 63 24 105 0 33 4 57 9 54 5 -3 24 -43 44 -88z"/>
</g>
</svg>
