<?xml version="1.0" standalone="no"?>
<!DOCTYPE svg PUBLIC "-//W3C//DTD SVG 20010904//EN"
 "http://www.w3.org/TR/2001/REC-SVG-20010904/DTD/svg10.dtd">
<svg version="1.0" xmlns="http://www.w3.org/2000/svg"
 width="184.000000pt" height="135.000000pt" viewBox="0 0 184.000000 135.000000"
 preserveAspectRatio="xMidYMid meet">
<metadata>
Created by potrace 1.16, written by Peter Selinger 2001-2019
</metadata>
<g transform="translate(0.000000,135.000000) scale(0.100000,-0.100000)"
fill="#000000" stroke="none">
<path d="M807 1030 c-33 -12 -83 -35 -113 -52 -57 -32 -86 -74 -113 -163 -7
-22 -15 -46 -17 -54 -4 -11 -9 -9 -25 8 -56 59 -146 54 -208 -13 -32 -34 -40
-110 -17 -155 38 -72 139 -94 211 -46 20 15 39 25 40 23 1 -2 12 -22 23 -45
12 -22 48 -74 81 -115 68 -84 110 -106 228 -115 65 -5 77 -3 140 26 86 40 183
103 180 116 -2 11 52 145 65 160 5 5 8 4 8 -3 0 -22 63 -52 110 -52 90 0 146
63 137 153 -3 40 -11 56 -41 85 -33 34 -41 37 -94 37 -43 0 -65 -5 -89 -23
l-31 -22 -17 50 c-9 28 -26 55 -37 61 -28 15 -32 6 -14 -30 9 -16 23 -59 31
-95 17 -73 14 -98 -32 -248 l-26 -87 -95 -42 c-53 -23 -115 -44 -138 -47 -50
-5 -128 12 -201 44 -42 18 -57 32 -82 76 -72 123 -83 220 -41 341 35 101 39
105 129 150 79 39 90 42 165 41 70 0 93 -5 171 -37 124 -52 124 -52 90 -22
-16 14 -67 44 -111 66 -103 52 -179 60 -267 29z"/>
</g>
</svg>
