<?xml version="1.0" standalone="no"?>
<!DOCTYPE svg PUBLIC "-//W3C//DTD SVG 20010904//EN"
 "http://www.w3.org/TR/2001/REC-SVG-20010904/DTD/svg10.dtd">
<svg version="1.0" xmlns="http://www.w3.org/2000/svg"
 width="134.000000pt" height="135.000000pt" viewBox="0 0 134.000000 135.000000"
 preserveAspectRatio="xMidYMid meet">
<metadata>
Created by potrace 1.16, written by Peter Selinger 2001-2019
</metadata>
<g transform="translate(0.000000,135.000000) scale(0.100000,-0.100000)"
fill="#000000" stroke="none">
<path d="M544 1027 c-106 -41 -156 -77 -186 -137 -15 -30 -34 -85 -44 -123
-32 -132 -5 -223 106 -354 55 -66 66 -74 126 -93 126 -38 196 -25 346 66 45
28 62 45 79 82 43 95 69 183 69 232 0 64 -37 178 -62 191 -28 15 -30 7 -11
-37 28 -65 40 -143 31 -201 -15 -95 -57 -212 -82 -228 -49 -32 -192 -85 -231
-85 -45 0 -125 20 -190 47 -49 20 -86 75 -126 183 -27 75 -22 153 17 259 31
82 55 103 173 148 89 34 167 28 288 -22 122 -50 122 -50 88 -20 -16 14 -68 45
-115 68 -108 53 -183 59 -276 24z"/>
<path d="M506 932 c-3 -5 19 -32 49 -62 50 -50 53 -54 43 -83 l-11 -30 -42 48
c-27 32 -46 46 -54 40 -9 -5 1 -22 38 -59 45 -46 51 -56 49 -89 -2 -20 -5 -37
-8 -37 -3 0 -19 16 -36 37 -20 24 -35 34 -43 28 -9 -5 1 -22 37 -59 37 -38 51
-61 55 -90 l6 -40 -30 37 c-17 20 -35 37 -40 37 -21 0 -6 -29 40 -74 27 -27
52 -60 56 -74 3 -14 13 -41 21 -60 12 -29 16 -32 28 -20 7 8 21 28 30 46 9 18
21 32 26 32 10 0 110 120 110 132 0 24 -32 1 -65 -47 -20 -30 -38 -55 -40 -55
-1 0 6 24 16 53 10 28 18 65 19 81 0 18 14 45 41 77 22 27 38 53 34 59 -10 17
-20 12 -39 -21 -14 -24 -21 -28 -27 -18 -19 30 -8 67 31 115 42 51 46 59 31
68 -5 4 -26 -17 -46 -44 l-37 -51 -18 33 c-23 44 -71 51 -95 14 l-17 -25 -45
54 c-43 54 -57 63 -67 47z m198 -101 c26 -49 43 -150 31 -179 -5 -9 -7 -26 -6
-38 3 -27 -57 -214 -68 -214 -5 0 -19 37 -32 83 -39 144 -30 268 27 355 19 29
30 28 48 -7z"/>
</g>
</svg>
