<?xml version="1.0" standalone="no"?>
<!DOCTYPE svg PUBLIC "-//W3C//DTD SVG 20010904//EN"
 "http://www.w3.org/TR/2001/REC-SVG-20010904/DTD/svg10.dtd">
<svg version="1.0" xmlns="http://www.w3.org/2000/svg"
 width="206.000000pt" height="200.000000pt" viewBox="0 0 206.000000 200.000000"
 preserveAspectRatio="xMidYMid meet">
<metadata>
Created by potrace 1.16, written by Peter Selinger 2001-2019
</metadata>
<g transform="translate(0.000000,200.000000) scale(0.100000,-0.100000)"
fill="#000000" stroke="none">
<path d="M615 1686 c-85 -19 -86 -21 -68 -96 9 -39 12 -84 9 -112 -5 -32 -3
-47 6 -50 16 -6 -8 -203 -29 -236 -29 -47 -26 -109 16 -281 58 -235 70 -231
26 9 -31 167 -31 184 -1 312 14 57 28 129 32 160 l6 57 56 7 c82 10 265 -2
299 -19 60 -32 94 -30 254 8 85 21 158 41 163 46 14 13 5 12 -145 -16 -165
-30 -190 -31 -292 -3 -65 18 -109 23 -213 23 l-132 0 -6 50 c-3 27 -9 60 -12
71 -6 24 2 28 112 44 81 11 232 -3 279 -27 16 -9 52 -16 80 -16 53 -1 313 59
330 76 7 6 0 8 -20 4 -16 -3 -91 -15 -167 -28 l-136 -23 -124 27 c-132 29
-234 34 -323 13z"/>
<path d="M320 1647 c0 -6 7 -44 15 -82 8 -39 15 -102 15 -142 0 -89 -19 -226
-33 -235 -6 -4 -13 -36 -15 -72 -3 -51 4 -97 34 -218 20 -84 39 -155 41 -157
13 -17 8 28 -18 179 l-30 175 28 120 c21 91 28 145 28 225 0 133 -18 220 -46
220 -10 0 -19 -6 -19 -13z"/>
<path d="M1173 1392 c-20 -2 -34 -10 -38 -21 -6 -19 18 -89 54 -160 l20 -37
-57 -18 c-31 -9 -80 -31 -109 -47 -42 -24 -57 -40 -77 -84 -14 -29 -31 -76
-37 -104 l-10 -50 -95 47 c-64 31 -97 43 -104 36 -11 -11 -3 -184 10 -204 5
-8 35 1 98 28 79 34 92 37 92 22 0 -33 60 -137 112 -192 44 -46 63 -59 111
-73 36 -10 57 -21 53 -28 -38 -89 -65 -173 -60 -189 5 -18 13 -19 101 -14 52
2 97 6 99 8 2 3 -12 50 -31 107 l-34 102 25 9 c14 6 28 10 32 10 4 0 41 21 82
46 57 34 78 53 87 77 10 28 55 149 58 154 0 1 40 -14 88 -33 127 -51 142 -38
25 21 -54 27 -98 52 -98 55 0 3 35 19 77 35 42 17 80 31 84 33 4 2 11 -25 17
-60 l9 -63 2 78 1 77 -27 -6 c-16 -4 -59 -18 -97 -31 -83 -28 -86 -28 -86 -5
0 35 -34 111 -52 115 -10 3 -18 4 -18 3 0 -1 9 -27 20 -59 27 -78 25 -154 -8
-257 l-28 -85 -84 -37 c-102 -45 -155 -48 -253 -13 -76 26 -85 34 -126 120
-49 102 -49 159 -1 288 19 51 25 56 87 88 109 55 218 51 346 -13 21 -11 44
-17 50 -15 16 5 -119 83 -178 103 -28 9 -51 18 -53 19 -2 2 17 44 42 94 25 50
46 97 46 105 0 23 -60 30 -167 18z m125 -30 c-1 -4 -18 -49 -37 -100 l-34 -93
-29 92 c-24 74 -27 93 -16 100 16 11 121 12 116 1z m-381 -516 c5 -5 -146 -56
-165 -56 -8 0 -12 20 -12 64 l0 64 87 -34 c47 -19 88 -36 90 -38z m358 -436
l33 -80 -80 0 c-44 0 -78 3 -76 8 30 64 83 160 86 157 3 -2 19 -40 37 -85z"/>
</g>
</svg>
