<?xml version="1.0" standalone="no"?>
<!DOCTYPE svg PUBLIC "-//W3C//DTD SVG 20010904//EN"
 "http://www.w3.org/TR/2001/REC-SVG-20010904/DTD/svg10.dtd">
<svg version="1.0" xmlns="http://www.w3.org/2000/svg"
 width="189.000000pt" height="156.000000pt" viewBox="0 0 189.000000 156.000000"
 preserveAspectRatio="xMidYMid meet">
<metadata>
Created by potrace 1.16, written by Peter Selinger 2001-2019
</metadata>
<g transform="translate(0.000000,156.000000) scale(0.100000,-0.100000)"
fill="#000000" stroke="none">
<path d="M615 1246 c-85 -19 -86 -21 -68 -96 9 -39 12 -84 9 -112 -4 -31 -3
-47 5 -50 16 -5 -6 -190 -27 -233 -30 -60 -27 -112 15 -284 58 -235 69 -233
26 5 -31 172 -31 188 -1 316 14 57 28 129 32 160 l6 57 56 7 c90 11 265 -2
304 -22 49 -26 126 -22 268 15 149 38 154 40 147 47 -3 3 -68 -6 -145 -20
-170 -32 -192 -32 -295 -4 -65 18 -109 23 -213 23 l-132 0 -6 50 c-3 27 -9 60
-12 71 -6 24 2 28 112 44 81 11 232 -3 279 -27 16 -9 52 -16 80 -16 53 -1 313
59 330 76 7 6 0 8 -20 4 -16 -3 -91 -15 -167 -28 l-136 -23 -124 27 c-132 29
-234 34 -323 13z"/>
<path d="M320 1207 c0 -6 7 -44 15 -82 8 -39 15 -102 15 -142 0 -89 -19 -226
-33 -235 -6 -4 -13 -36 -15 -72 -3 -51 4 -97 34 -218 20 -84 39 -155 41 -157
12 -16 8 26 -18 178 -23 139 -28 183 -20 220 5 25 19 91 31 146 24 107 24 218
0 323 -9 40 -16 52 -31 52 -10 0 -19 -6 -19 -13z"/>
<path d="M843 817 c-8 -17 -26 -62 -39 -100 l-24 -70 37 -69 c20 -39 41 -72
47 -74 6 -2 68 4 138 14 l126 18 7 -43 c8 -53 25 -47 25 8 0 21 3 39 8 39 4 1
96 16 204 34 134 22 201 29 208 22 7 -7 10 14 10 64 0 71 -1 75 -23 76 -12 1
-105 16 -207 33 -102 17 -256 41 -343 54 l-158 24 -16 -30z m144 -33 l32 -5 3
-106 c2 -68 -1 -107 -8 -110 -6 -2 -43 -5 -83 -6 l-73 -2 -25 56 -24 55 30 67
30 67 43 -5 c24 -3 57 -8 75 -11z m376 -45 l207 -23 0 -46 0 -47 -182 -17
c-101 -9 -190 -19 -199 -22 -11 -3 -18 3 -22 16 -6 25 -25 26 -34 3 -9 -25
-23 -33 -58 -33 l-31 0 7 73 c4 39 8 85 8 101 1 28 2 29 49 23 26 -3 140 -16
255 -28z"/>
</g>
</svg>
