<?xml version="1.0" standalone="no"?>
<!DOCTYPE svg PUBLIC "-//W3C//DTD SVG 20010904//EN"
 "http://www.w3.org/TR/2001/REC-SVG-20010904/DTD/svg10.dtd">
<svg version="1.0" xmlns="http://www.w3.org/2000/svg"
 width="189.000000pt" height="148.000000pt" viewBox="0 0 189.000000 148.000000"
 preserveAspectRatio="xMidYMid meet">
<metadata>
Created by potrace 1.16, written by Peter Selinger 2001-2019
</metadata>
<g transform="translate(0.000000,148.000000) scale(0.100000,-0.100000)"
fill="#000000" stroke="none">
<path d="M888 1155 c-40 -27 -77 -94 -85 -155 l-6 -40 172 0 172 0 -7 38 c-27
151 -144 226 -246 157z m125 1 c43 -18 73 -53 92 -105 19 -56 20 -55 -14 -30
-45 33 -162 39 -225 10 l-48 -21 6 26 c12 44 53 100 88 117 41 20 59 21 101 3z"/>
<path d="M705 918 c-43 -37 -70 -87 -80 -145 -5 -33 -11 -43 -26 -43 -47 0
-128 -108 -129 -172 0 -23 -6 -29 -39 -38 -68 -18 -131 -112 -131 -194 l0 -26
465 0 c378 0 465 2 465 13 0 64 -65 178 -110 192 -12 4 -20 19 -24 48 -9 60
-57 139 -98 161 -30 16 -36 26 -46 75 -21 100 -83 161 -164 161 -39 0 -54 -6
-83 -32z m159 -4 c25 -19 58 -71 70 -111 l7 -23 -43 20 c-59 27 -160 27 -213
0 -21 -11 -40 -18 -42 -16 -2 2 3 21 12 42 42 102 136 141 209 88z m-27 -216
c-18 -18 -39 -42 -45 -53 l-12 -20 -12 20 c-6 11 -27 35 -45 53 l-34 32 91 0
91 0 -34 -32z m-141 1 c38 -23 74 -76 74 -108 0 -25 2 -25 -43 -6 -53 22 -154
19 -202 -5 -21 -11 -40 -19 -41 -17 -6 6 26 81 43 99 51 58 113 72 169 37z
m316 -16 c30 -29 50 -60 62 -100 l7 -23 -43 20 c-53 24 -153 26 -205 5 -44
-19 -43 -19 -43 2 0 30 49 100 82 117 46 23 103 15 140 -21z m-462 -208 c33
-31 64 -90 55 -105 -3 -5 -21 -2 -43 7 -52 22 -154 19 -203 -5 -35 -17 -39
-18 -39 -3 0 29 45 95 80 119 47 32 109 26 150 -13z m111 -13 c-38 -39 -48
-45 -55 -33 -5 9 -22 31 -39 49 l-31 32 85 0 85 0 -45 -48z m299 11 c-20 -21
-40 -45 -43 -53 -6 -13 -8 -13 -13 0 -4 8 -24 32 -46 53 l-39 37 89 0 90 0
-38 -37z m137 26 c40 -15 73 -48 94 -94 27 -59 24 -67 -16 -44 -47 28 -136 35
-200 15 -27 -8 -51 -13 -53 -11 -9 9 10 55 35 86 25 30 73 58 100 59 6 0 24
-5 40 -11z m-277 -14 c35 -18 80 -81 80 -112 0 -21 -1 -21 -35 -7 -44 18 -156
18 -200 0 -29 -13 -34 -12 -39 0 -11 29 51 111 94 127 29 10 71 7 100 -8z"/>
<path d="M1079 927 c-40 -26 -89 -116 -89 -164 l0 -33 125 0 124 0 -44 -44
c-43 -44 -65 -93 -65 -148 l0 -28 116 0 116 0 -31 -29 c-38 -35 -70 -104 -71
-148 l0 -33 166 0 167 0 -6 45 c-6 58 -53 134 -94 154 -26 13 -33 22 -33 46
-1 67 -65 162 -121 180 -13 4 -19 16 -19 34 0 65 -47 149 -100 176 -42 22
-101 19 -141 -8z m151 -15 c28 -21 70 -88 70 -114 0 -15 -2 -15 -32 0 -53 26
-156 28 -212 4 -25 -12 -46 -16 -46 -11 0 18 30 83 48 103 42 47 121 56 172
18z m131 -215 c35 -24 79 -89 79 -120 0 -17 -1 -17 -26 0 -41 27 -179 30 -226
5 -34 -18 -38 -18 -38 -3 0 29 44 95 79 118 43 29 89 29 132 0z m115 -206 c42
-19 77 -64 90 -114 l7 -29 -34 18 c-51 28 -182 26 -231 -3 l-36 -21 8 29 c16
55 52 101 94 120 50 23 52 23 102 0z"/>
</g>
</svg>
