<?xml version="1.0" standalone="no"?>
<!DOCTYPE svg PUBLIC "-//W3C//DTD SVG 20010904//EN"
 "http://www.w3.org/TR/2001/REC-SVG-20010904/DTD/svg10.dtd">
<svg version="1.0" xmlns="http://www.w3.org/2000/svg"
 width="244.000000pt" height="119.000000pt" viewBox="0 0 244.000000 119.000000"
 preserveAspectRatio="xMidYMid meet">
<metadata>
Created by potrace 1.16, written by Peter Selinger 2001-2019
</metadata>
<g transform="translate(0.000000,119.000000) scale(0.100000,-0.100000)"
fill="#000000" stroke="none">
<path d="M1500 876 c0 -14 14 -16 100 -16 l99 0 6 -37 c23 -142 54 -263 67
-263 5 0 7 8 4 18 -5 15 -12 58 -41 238 -4 23 -1 33 11 38 40 15 53 -1 68 -90
8 -43 21 -97 29 -120 l15 -40 -149 -104 c-82 -58 -149 -108 -149 -111 0 -18
-133 27 -227 76 l-105 56 -21 -28 c-47 -61 -101 -114 -145 -143 -40 -26 -54
-30 -115 -30 -66 0 -71 2 -101 33 -32 34 -60 103 -69 168 -5 32 0 44 44 97 42
53 222 212 239 212 3 0 27 -60 55 -133 44 -116 50 -128 55 -100 4 28 19 42
100 98 l95 66 21 -113 c25 -127 55 -239 61 -221 2 6 -5 58 -16 115 -10 56 -22
128 -26 158 -4 30 -11 60 -15 65 -5 6 8 22 31 39 42 32 53 54 17 35 -13 -6
-79 -50 -147 -96 -68 -47 -127 -81 -131 -76 -5 4 -24 51 -43 102 -18 52 -38
96 -44 98 -16 6 -131 -84 -214 -167 -50 -50 -82 -92 -95 -124 l-19 -48 -80 5
c-44 4 -102 14 -128 23 -44 15 -46 17 -30 29 10 7 59 25 108 40 119 35 123 36
108 42 -23 8 -178 -29 -224 -54 l-47 -25 -38 26 c-22 14 -51 35 -67 46 -27 21
-27 21 -27 2 0 -45 161 -137 258 -149 29 -3 51 -8 48 -10 -2 -2 -33 -11 -67
-19 -35 -8 -79 -24 -98 -35 -37 -22 -42 -21 -123 43 l-38 30 0 -24 c0 -46 166
-134 278 -148 69 -9 202 -2 202 10 0 4 -48 10 -107 13 -111 6 -194 24 -195 42
0 9 232 94 260 95 6 0 12 -9 12 -20 0 -31 36 -118 65 -156 l26 -34 101 0 c99
0 101 0 148 35 49 36 109 98 128 131 10 17 17 15 119 -34 73 -35 131 -56 176
-63 62 -10 69 -9 90 10 12 12 84 66 160 121 147 106 377 297 377 313 0 6 -5 6
-12 0 -7 -6 -66 -52 -131 -102 -65 -51 -121 -90 -124 -87 -6 6 -28 109 -37
177 l-7 46 68 6 c37 4 108 7 157 7 56 0 86 4 80 9 -5 5 -150 13 -321 17 -287
6 -313 6 -313 -10z"/>
<path d="M1604 823 c3 -16 8 -46 12 -68 12 -75 55 -240 66 -250 7 -7 9 -2 5
15 -7 28 -43 234 -52 293 -4 24 -11 37 -21 37 -12 0 -14 -7 -10 -27z"/>
<path d="M1534 813 c-20 -7 48 -343 70 -343 4 0 6 10 2 23 -3 12 -15 83 -27
157 -24 151 -29 169 -45 163z"/>
<path d="M1444 729 c4 -35 18 -109 32 -164 29 -118 33 -129 40 -123 2 3 -7 68
-20 144 -14 76 -27 152 -28 168 -2 16 -9 32 -17 34 -11 4 -13 -7 -7 -59z"/>
<path d="M916 702 c-5 -9 98 -250 114 -266 13 -13 13 6 0 36 -5 13 -28 71 -50
131 -39 100 -51 119 -64 99z"/>
</g>
</svg>
