<?xml version="1.0" standalone="no"?>
<!DOCTYPE svg PUBLIC "-//W3C//DTD SVG 20010904//EN"
 "http://www.w3.org/TR/2001/REC-SVG-20010904/DTD/svg10.dtd">
<svg version="1.0" xmlns="http://www.w3.org/2000/svg"
 width="146.000000pt" height="127.000000pt" viewBox="0 0 146.000000 127.000000"
 preserveAspectRatio="xMidYMid meet">
<metadata>
Created by potrace 1.16, written by Peter Selinger 2001-2019
</metadata>
<g transform="translate(0.000000,127.000000) scale(0.100000,-0.100000)"
fill="#000000" stroke="none">
<path d="M993 900 l6 -69 -32 -5 c-18 -3 -75 -7 -128 -10 -110 -5 -139 -16
-191 -74 -30 -33 -37 -50 -43 -100 -4 -33 -3 -86 0 -118 l8 -57 -93 6 c-51 4
-115 7 -142 7 l-48 0 0 79 0 78 117 -28 c126 -31 153 -35 137 -20 -10 10 -247
81 -270 81 -11 0 -14 -23 -13 -117 1 -114 14 -245 19 -193 1 14 3 30 5 35 1 6
3 20 3 33 2 22 4 22 146 22 l144 0 7 -59 c7 -58 8 -60 46 -75 83 -33 424 -13
466 28 8 8 14 97 19 304 7 268 6 292 -9 292 -15 0 -17 -27 -17 -294 l0 -294
-27 -6 c-252 -50 -427 -37 -455 33 -5 14 -12 93 -13 175 l-3 148 26 25 c54 50
80 57 213 61 142 4 139 6 139 -80 0 -21 5 -38 10 -38 11 0 13 95 3 218 -5 63
-9 82 -21 82 -12 0 -14 -12 -9 -70z"/>
<path d="M773 653 c-3 -9 -1 -48 5 -87 7 -39 9 -88 6 -108 -6 -37 -6 -38 24
-38 39 0 72 42 55 69 -6 9 -8 31 -5 49 2 19 0 43 -7 55 -6 12 -15 34 -21 50
-11 31 -47 37 -57 10z m54 -54 c18 -41 20 -55 11 -75 -9 -20 -9 -27 1 -33 21
-14 3 -51 -24 -51 -22 0 -23 2 -14 30 8 20 7 45 0 80 -23 106 -9 132 26 49z"/>
<path d="M915 639 c-4 -6 -5 -12 -4 -13 9 -6 104 -71 107 -72 1 -1 -2 -12 -7
-25 -5 -13 -29 -39 -55 -57 -25 -18 -44 -38 -40 -43 3 -5 27 6 53 25 l48 35
23 -24 c13 -14 32 -25 42 -25 16 0 18 9 18 85 0 78 -2 85 -20 85 -11 0 -28 -8
-39 -19 -18 -18 -20 -17 -69 20 -31 24 -53 35 -57 28z m145 -64 c-7 -9 -15
-13 -17 -11 -7 7 7 26 19 26 6 0 6 -6 -2 -15z m-10 -39 c0 -3 -4 -8 -10 -11
-5 -3 -10 -1 -10 4 0 6 5 11 10 11 6 0 10 -2 10 -4z m10 -56 c13 -25 13 -25
-8 -6 -12 10 -19 23 -16 28 7 11 7 11 24 -22z"/>
</g>
</svg>
