<?xml version="1.0" standalone="no"?>
<!DOCTYPE svg PUBLIC "-//W3C//DTD SVG 20010904//EN"
 "http://www.w3.org/TR/2001/REC-SVG-20010904/DTD/svg10.dtd">
<svg version="1.0" xmlns="http://www.w3.org/2000/svg"
 width="146.000000pt" height="129.000000pt" viewBox="0 0 146.000000 129.000000"
 preserveAspectRatio="xMidYMid meet">
<metadata>
Created by potrace 1.16, written by Peter Selinger 2001-2019
</metadata>
<g transform="translate(0.000000,129.000000) scale(0.100000,-0.100000)"
fill="#000000" stroke="none">
<path d="M993 975 c-3 -9 -3 -42 1 -74 l7 -59 -126 -7 c-143 -8 -187 -24 -239
-89 -30 -37 -31 -39 -30 -149 l0 -112 -138 3 -138 3 0 80 c0 43 2 79 4 79 3 0
60 -13 127 -30 108 -26 143 -31 128 -16 -5 5 -270 86 -281 86 -10 0 -9 -232 1
-290 5 -25 9 -36 10 -25 5 43 10 77 13 80 2 1 67 5 145 8 l141 6 7 -61 c7 -60
8 -60 54 -82 68 -31 260 -29 381 5 l85 24 6 140 c4 77 7 211 8 298 1 133 -1
157 -14 157 -13 0 -15 -39 -15 -294 l0 -294 -115 -17 c-138 -21 -272 -17 -327
10 -45 22 -50 42 -53 228 l-2 138 31 26 c49 41 82 50 212 58 137 7 134 9 134
-77 0 -22 5 -38 11 -38 9 0 10 37 5 139 -5 110 -4 139 6 138 7 0 37 1 66 1 82
3 62 22 -23 22 -59 0 -77 -3 -82 -15z"/>
<path d="M832 632 c-86 -39 -102 -49 -99 -66 1 -12 6 -26 9 -32 9 -14 187 -89
194 -82 2 3 3 55 2 115 l-3 110 -103 -45z m87 -119 l1 -43 -80 43 c-44 23 -80
44 -80 47 1 3 33 23 73 45 l72 40 7 -45 c3 -25 7 -64 7 -87z"/>
</g>
</svg>
