<?xml version="1.0" standalone="no"?>
<!DOCTYPE svg PUBLIC "-//W3C//DTD SVG 20010904//EN"
 "http://www.w3.org/TR/2001/REC-SVG-20010904/DTD/svg10.dtd">
<svg version="1.0" xmlns="http://www.w3.org/2000/svg"
 width="146.000000pt" height="127.000000pt" viewBox="0 0 146.000000 127.000000"
 preserveAspectRatio="xMidYMid meet">
<metadata>
Created by potrace 1.16, written by Peter Selinger 2001-2019
</metadata>
<g transform="translate(0.000000,127.000000) scale(0.100000,-0.100000)"
fill="#000000" stroke="none">
<path d="M993 900 c7 -82 17 -77 -144 -83 -119 -5 -147 -16 -201 -75 -30 -33
-37 -50 -43 -100 -4 -33 -3 -86 0 -118 l8 -57 -93 6 c-51 4 -115 7 -142 7
l-48 0 0 79 0 78 118 -28 c126 -31 152 -34 136 -20 -10 10 -247 81 -270 81
-11 0 -14 -23 -13 -117 1 -114 14 -245 19 -193 1 14 3 30 5 35 1 6 3 20 3 33
2 22 4 22 146 22 l144 0 7 -59 c7 -58 8 -60 46 -75 83 -33 424 -13 466 28 8 8
14 97 19 304 7 268 6 292 -9 292 -15 0 -17 -27 -17 -294 l0 -294 -27 -6 c-252
-50 -427 -37 -455 33 -5 14 -12 93 -13 175 l-3 148 26 25 c54 50 80 57 213 61
121 4 126 3 132 -17 4 -16 0 -21 -13 -21 -14 0 -29 -21 -54 -72 -19 -40 -37
-81 -40 -91 -5 -17 -16 -18 -98 -16 -63 2 -93 0 -96 -9 -2 -8 25 -12 93 -14
l97 -3 18 -53 c19 -54 76 -142 96 -149 15 -5 83 132 92 187 8 47 -6 90 -49
152 -12 17 -19 43 -19 75 0 26 -3 85 -7 131 -5 63 -9 82 -21 82 -12 0 -14 -12
-9 -70z m35 -231 l33 -51 -52 3 c-37 2 -54 -1 -57 -11 -4 -10 7 -12 56 -7 65
7 78 -2 67 -46 -5 -20 -11 -22 -65 -19 -39 3 -60 0 -60 -7 0 -7 24 -11 61 -11
37 0 58 -4 54 -10 -3 -5 -31 -10 -61 -10 -30 0 -54 -4 -54 -10 0 -5 25 -10 56
-10 34 0 53 -4 49 -10 -3 -5 -29 -10 -56 -10 -44 0 -51 3 -59 26 -19 48 -23
103 -10 134 11 27 17 30 59 30 33 0 42 3 31 10 -8 5 -25 10 -37 10 -20 0 -21
2 -11 25 6 14 14 25 17 24 3 0 21 -23 39 -50z m12 -237 c0 -4 -18 -6 -40 -4
-22 2 -40 6 -40 8 0 2 18 4 40 4 22 0 40 -3 40 -8z m-20 -42 c-6 -11 -13 -20
-15 -20 -2 0 -9 9 -15 20 -9 18 -8 20 15 20 23 0 24 -2 15 -20z"/>
<path d="M950 570 c0 -5 24 -10 54 -10 30 0 58 5 61 10 4 6 -17 10 -54 10 -34
0 -61 -4 -61 -10z"/>
</g>
</svg>
