<?xml version="1.0" standalone="no"?>
<!DOCTYPE svg PUBLIC "-//W3C//DTD SVG 20010904//EN"
 "http://www.w3.org/TR/2001/REC-SVG-20010904/DTD/svg10.dtd">
<svg version="1.0" xmlns="http://www.w3.org/2000/svg"
 width="146.000000pt" height="127.000000pt" viewBox="0 0 146.000000 127.000000"
 preserveAspectRatio="xMidYMid meet">
<metadata>
Created by potrace 1.16, written by Peter Selinger 2001-2019
</metadata>
<g transform="translate(0.000000,127.000000) scale(0.100000,-0.100000)"
fill="#000000" stroke="none">
<path d="M993 900 l6 -69 -32 -5 c-18 -3 -75 -7 -128 -10 -110 -5 -139 -16
-191 -74 -30 -33 -37 -50 -43 -100 -4 -33 -3 -86 0 -118 l8 -57 -93 6 c-51 4
-115 7 -142 7 l-48 0 0 79 0 78 117 -28 c126 -31 153 -35 137 -20 -10 10 -247
81 -270 81 -11 0 -14 -23 -13 -117 1 -114 14 -245 19 -193 1 14 3 30 5 35 1 6
3 20 3 33 2 22 4 22 146 22 l144 0 7 -59 c7 -58 8 -60 46 -75 83 -33 424 -13
466 28 8 8 14 97 19 304 7 268 6 292 -9 292 -15 0 -17 -16 -17 -135 l0 -135
-50 0 -50 0 0 68 c0 135 -12 232 -28 232 -12 0 -14 -12 -9 -70z m11 -132 c3
-13 6 -40 6 -60 l0 -38 -57 -1 c-32 -1 -67 0 -78 2 -11 2 -49 4 -84 4 -57 0
-66 -3 -83 -26 -45 -60 -27 -189 30 -204 39 -11 365 -6 377 6 5 5 -29 9 -94 9
-102 0 -103 0 -97 23 3 12 6 28 6 36 0 16 26 12 132 -20 l68 -20 0 -64 c0 -61
-1 -64 -27 -69 -252 -50 -427 -37 -455 33 -10 26 -20 304 -11 327 6 17 75 63
109 74 16 4 79 9 140 9 108 1 112 0 118 -21z m-204 -153 c0 -35 0 -35 -45 -35
-48 0 -51 4 -35 44 8 21 16 26 45 26 33 0 35 -2 35 -35z m98 26 c14 -8 13 -62
0 -61 -5 0 -24 0 -43 0 -33 0 -35 2 -35 35 0 33 2 35 33 35 17 0 38 -4 45 -9z
m133 -26 c-47 -19 -88 -35 -91 -35 -3 0 -7 16 -8 35 l-3 35 93 0 93 -1 -84
-34z m99 -51 c0 -49 -3 -65 -12 -61 -7 2 -46 15 -87 28 l-74 24 79 37 c44 21
82 38 87 38 4 0 7 -30 7 -66z m-220 -38 c0 -56 -8 -66 -51 -66 l-39 0 0 43 c0
24 3 47 7 50 3 4 24 7 45 7 37 0 38 -1 38 -34z m-110 -22 l0 -46 -37 7 c-46 8
-49 11 -58 53 l-7 32 51 0 51 0 0 -46z"/>
</g>
</svg>
