<?xml version="1.0" standalone="no"?>
<!DOCTYPE svg PUBLIC "-//W3C//DTD SVG 20010904//EN"
 "http://www.w3.org/TR/2001/REC-SVG-20010904/DTD/svg10.dtd">
<svg version="1.0" xmlns="http://www.w3.org/2000/svg"
 width="144.000000pt" height="124.000000pt" viewBox="0 0 144.000000 124.000000"
 preserveAspectRatio="xMidYMid meet">
<metadata>
Created by potrace 1.16, written by Peter Selinger 2001-2019
</metadata>
<g transform="translate(0.000000,124.000000) scale(0.100000,-0.100000)"
fill="#000000" stroke="none">
<path d="M750 930 c-50 -22 -86 -59 -120 -125 l-35 -67 -120 7 c-66 3 -133 8
-148 11 l-28 6 2 -121 c1 -76 6 -121 12 -121 6 0 71 18 145 41 74 22 135 39
136 37 2 -2 9 -19 16 -38 23 -58 67 -116 102 -133 21 -10 78 -19 151 -23 l117
-7 6 -48 c9 -65 24 -52 24 20 l0 58 -128 6 c-71 3 -140 10 -154 16 -33 12 -83
64 -85 87 -1 11 -9 47 -19 80 -15 57 -15 66 0 117 9 31 31 75 49 98 46 60 87
79 172 79 63 0 229 -22 280 -36 14 -4 17 -3 10 4 -34 36 -330 75 -385 52z
m-162 -263 l0 -52 -106 -24 c-59 -13 -117 -26 -129 -29 -22 -4 -23 -2 -23 77
l0 81 129 0 128 0 1 -53z"/>
<path d="M1132 835 c0 -16 2 -22 5 -12 2 9 2 23 0 30 -3 6 -5 -1 -5 -18z"/>
<path d="M827 843 c-9 -8 -7 -278 2 -316 l6 -28 92 85 c50 47 96 86 102 86 6
0 11 5 11 10 0 6 -8 10 -18 10 -9 0 -53 36 -97 80 -80 81 -86 85 -98 73z m108
-110 l48 -43 -42 0 c-30 0 -41 -4 -38 -12 2 -7 20 -13 41 -13 l37 0 -68 -62
c-37 -33 -69 -60 -70 -59 -1 1 1 59 4 128 7 144 -1 139 88 61z"/>
</g>
</svg>
