<?xml version="1.0" standalone="no"?>
<!DOCTYPE svg PUBLIC "-//W3C//DTD SVG 20010904//EN"
 "http://www.w3.org/TR/2001/REC-SVG-20010904/DTD/svg10.dtd">
<svg version="1.0" xmlns="http://www.w3.org/2000/svg"
 width="146.000000pt" height="134.000000pt" viewBox="0 0 146.000000 134.000000"
 preserveAspectRatio="xMidYMid meet">
<metadata>
Created by potrace 1.16, written by Peter Selinger 2001-2019
</metadata>
<g transform="translate(0.000000,134.000000) scale(0.100000,-0.100000)"
fill="#000000" stroke="none">
<path d="M993 970 c7 -82 17 -77 -144 -83 -119 -5 -147 -16 -201 -75 -30 -33
-37 -50 -43 -100 -4 -33 -3 -86 0 -118 l8 -57 -99 6 c-55 4 -118 7 -141 7
l-43 0 0 79 0 78 118 -28 c126 -31 152 -34 136 -20 -10 10 -247 81 -270 81
-11 0 -14 -23 -13 -117 1 -114 14 -245 19 -193 1 14 3 30 5 35 1 6 3 20 3 33
2 22 4 22 146 22 l144 0 7 -60 7 -59 56 -22 c39 -15 84 -22 139 -24 72 -2 86
-5 118 -30 44 -33 59 -26 19 9 -33 28 -37 26 83 51 45 10 86 21 92 24 6 4 13
123 17 304 6 272 6 297 -9 297 -15 0 -17 -27 -17 -295 0 -162 -1 -295 -2 -295
-2 0 -41 -7 -88 -15 -130 -23 -142 -21 -184 25 -20 22 -36 43 -36 48 1 4 49
34 108 68 59 34 107 67 107 74 0 7 -49 32 -109 56 -110 45 -136 51 -136 35 0
-8 137 -62 195 -77 34 -9 40 -21 13 -30 -13 -3 -63 -28 -112 -55 -100 -55 -99
-56 -132 29 -16 40 -16 45 1 90 12 31 42 71 90 120 66 66 76 72 112 72 45 0
53 -12 53 -82 0 -21 5 -38 10 -38 11 0 13 95 3 218 -5 63 -9 82 -21 82 -12 0
-14 -12 -9 -70z m-173 -170 c-133 -133 -134 -224 -1 -364 l56 -59 -66 6 c-88
8 -148 33 -161 66 -11 29 -20 313 -10 327 38 50 111 83 190 84 l52 0 -60 -60z"/>
</g>
</svg>
