<?xml version="1.0" standalone="no"?>
<!DOCTYPE svg PUBLIC "-//W3C//DTD SVG 20010904//EN"
 "http://www.w3.org/TR/2001/REC-SVG-20010904/DTD/svg10.dtd">
<svg version="1.0" xmlns="http://www.w3.org/2000/svg"
 width="146.000000pt" height="127.000000pt" viewBox="0 0 146.000000 127.000000"
 preserveAspectRatio="xMidYMid meet">
<metadata>
Created by potrace 1.16, written by Peter Selinger 2001-2019
</metadata>
<g transform="translate(0.000000,127.000000) scale(0.100000,-0.100000)"
fill="#000000" stroke="none">
<path d="M993 900 l6 -69 -32 -5 c-18 -3 -75 -7 -128 -10 -110 -5 -139 -16
-191 -74 -30 -33 -37 -50 -43 -100 -4 -33 -3 -86 0 -118 l8 -57 -93 6 c-51 4
-115 7 -142 7 l-48 0 0 79 0 78 117 -28 c126 -31 153 -35 137 -20 -10 10 -247
81 -270 81 -11 0 -14 -23 -13 -117 1 -114 14 -245 19 -193 1 14 3 30 5 35 1 6
3 20 3 33 2 22 4 22 146 22 l144 0 7 -59 c7 -58 8 -60 46 -75 83 -33 424 -13
466 28 8 8 14 97 19 304 7 268 6 292 -9 292 -15 0 -17 -27 -17 -294 l0 -294
-27 -6 c-252 -50 -427 -37 -455 33 -5 14 -12 93 -13 175 l-3 148 26 25 c54 50
80 57 213 61 142 4 139 6 139 -80 0 -21 5 -38 10 -38 11 0 13 95 3 218 -5 63
-9 82 -21 82 -12 0 -14 -12 -9 -70z"/>
<path d="M782 665 c-34 -40 -41 -111 -16 -174 15 -38 18 -40 70 -47 67 -8 122
0 143 21 11 11 17 40 20 100 l3 85 -36 15 c-46 20 -166 19 -184 0z m86 -42
c-3 -37 -4 -38 -45 -41 -40 -3 -43 -1 -43 22 0 33 25 56 61 56 29 0 30 -2 27
-37z m104 15 c4 -7 8 -23 8 -35 0 -21 -5 -23 -45 -23 l-45 0 0 41 0 42 37 -6
c20 -4 40 -12 45 -19z m-102 -127 l0 -49 -36 8 c-45 10 -52 17 -60 58 l-6 32
51 0 51 0 0 -49z m107 8 c-6 -46 -19 -59 -59 -59 -27 0 -28 2 -28 50 l0 50 46
0 47 0 -6 -41z"/>
</g>
</svg>
