<?xml version="1.0" standalone="no"?>
<!DOCTYPE svg PUBLIC "-//W3C//DTD SVG 20010904//EN"
 "http://www.w3.org/TR/2001/REC-SVG-20010904/DTD/svg10.dtd">
<svg version="1.0" xmlns="http://www.w3.org/2000/svg"
 width="148.000000pt" height="129.000000pt" viewBox="0 0 148.000000 129.000000"
 preserveAspectRatio="xMidYMid meet">
<metadata>
Created by potrace 1.16, written by Peter Selinger 2001-2019
</metadata>
<g transform="translate(0.000000,129.000000) scale(0.100000,-0.100000)"
fill="#000000" stroke="none">
<path d="M992 916 l3 -74 -120 -7 c-67 -4 -136 -14 -158 -22 -36 -15 -107 -85
-107 -107 0 -6 -16 -27 -36 -47 l-36 -37 -111 34 c-62 19 -115 34 -119 34 -10
0 -9 -232 1 -290 5 -25 9 -36 11 -25 3 29 11 79 13 81 1 1 53 4 114 6 l113 3
-55 -55 c-30 -31 -55 -60 -55 -65 0 -5 31 21 69 59 43 43 75 67 84 63 8 -3 17
-26 21 -57 6 -46 4 -56 -15 -76 -25 -27 -15 -33 12 -8 16 14 23 14 78 -7 52
-19 75 -21 158 -17 54 3 139 15 189 27 103 25 104 26 104 131 0 30 6 52 15 60
8 7 15 17 15 22 0 6 -7 5 -15 -2 -24 -20 -22 136 3 163 13 16 14 19 2 15 -13
-5 -15 11 -12 113 3 102 1 119 -12 119 -14 0 -16 -19 -17 -127 -1 -71 -1 -131
-1 -134 1 -3 -79 -86 -177 -183 l-179 -179 -57 18 -57 18 174 174 c95 95 174
169 176 163 7 -19 22 -10 22 13 0 13 14 36 30 52 17 16 30 33 30 39 0 5 -13
-3 -29 -18 -35 -34 -37 -28 -40 96 -2 65 1 86 11 85 55 -2 118 5 118 13 0 6
-34 10 -81 10 l-81 0 4 -74z m-102 -115 c0 -4 -59 -65 -131 -136 l-131 -130 4
83 5 84 47 46 c49 49 49 49 194 58 6 0 12 -2 12 -5z m113 -28 c6 -38 6 -38
-170 -215 -97 -98 -179 -175 -182 -172 -3 2 -8 32 -12 67 l-8 62 147 148 c135
135 150 147 183 147 34 0 37 -2 42 -37z m-406 -270 c-6 -9 -38 -13 -90 -13
l-81 0 54 56 c47 47 59 54 83 50 15 -3 27 -1 27 4 0 6 -7 10 -15 10 -20 0 -19
9 3 33 16 19 17 17 23 -54 4 -44 2 -79 -4 -86z m-164 124 l87 -23 -58 -57
c-49 -49 -63 -57 -95 -57 l-37 0 0 80 c0 44 3 80 8 80 4 -1 46 -11 95 -23z
m697 -50 l0 -73 -89 -87 -88 -87 -79 0 -79 0 160 160 c88 88 163 160 167 160
5 0 8 -33 8 -73z m-4 -202 c-2 -7 -24 -15 -48 -19 -23 -4 -54 -10 -68 -13 -20
-4 -11 9 45 66 l70 72 3 -47 c2 -25 1 -52 -2 -59z"/>
</g>
</svg>
