<?xml version="1.0" standalone="no"?>
<!DOCTYPE svg PUBLIC "-//W3C//DTD SVG 20010904//EN"
 "http://www.w3.org/TR/2001/REC-SVG-20010904/DTD/svg10.dtd">
<svg version="1.0" xmlns="http://www.w3.org/2000/svg"
 width="223.000000pt" height="122.000000pt" viewBox="0 0 223.000000 122.000000"
 preserveAspectRatio="xMidYMid meet">
<metadata>
Created by potrace 1.16, written by Peter Selinger 2001-2019
</metadata>
<g transform="translate(0.000000,122.000000) scale(0.100000,-0.100000)"
fill="#000000" stroke="none">
<path d="M302 616 l3 -308 225 1 c249 2 640 17 648 26 3 3 -1 5 -9 5 -12 0
-13 17 -8 97 4 54 7 112 8 128 l1 30 238 2 c299 3 522 13 522 22 0 11 -270 21
-538 21 l-223 0 2 132 c1 121 0 132 -17 135 -11 1 -207 6 -437 10 l-419 6 4
-307z m818 257 c0 -10 3 -67 6 -127 l6 -109 -79 7 c-43 3 -79 10 -81 16 -2 5
-11 4 -22 -3 -17 -10 -25 -6 -60 28 -45 44 -68 40 -25 -5 26 -27 27 -30 9 -30
-12 0 -35 17 -53 41 -24 29 -36 38 -44 30 -8 -8 -3 -19 18 -41 20 -20 24 -30
14 -30 -8 0 -30 16 -49 35 -19 19 -41 35 -49 35 -10 0 -3 -12 18 -34 29 -30
31 -35 15 -38 -12 -3 -34 10 -61 36 -52 49 -70 40 -22 -10 l34 -37 -30 7 c-16
4 -53 30 -81 57 -27 27 -53 46 -57 42 -4 -4 16 -31 45 -60 l52 -53 -53 -54
c-29 -30 -48 -56 -43 -60 6 -3 32 16 59 44 33 35 59 52 83 56 l35 7 -39 -41
c-52 -55 -38 -67 17 -15 23 22 48 38 56 36 8 -4 11 -1 7 6 -5 7 1 11 16 11 21
-1 20 -3 -14 -34 -35 -31 -49 -56 -30 -56 4 0 25 18 47 40 21 21 42 37 47 33
6 -3 -3 -18 -18 -34 -45 -47 -18 -47 30 0 26 26 49 40 56 36 8 -5 3 -16 -16
-36 -44 -46 -18 -47 30 0 37 37 44 40 56 27 7 -9 16 -13 22 -10 5 3 4 12 -3
20 -10 12 1 14 73 14 l85 0 7 -131 c4 -72 5 -133 3 -135 -2 -2 -185 -1 -407 3
l-403 6 7 75 c3 41 6 155 6 254 l0 178 213 1 c177 1 454 10 545 17 15 1 22 -4
22 -15z"/>
</g>
</svg>
