<?xml version="1.0" standalone="no"?>
<!DOCTYPE svg PUBLIC "-//W3C//DTD SVG 20010904//EN"
 "http://www.w3.org/TR/2001/REC-SVG-20010904/DTD/svg10.dtd">
<svg version="1.0" xmlns="http://www.w3.org/2000/svg"
 width="223.000000pt" height="127.000000pt" viewBox="0 0 223.000000 127.000000"
 preserveAspectRatio="xMidYMid meet">
<metadata>
Created by potrace 1.16, written by Peter Selinger 2001-2019
</metadata>
<g transform="translate(0.000000,127.000000) scale(0.100000,-0.100000)"
fill="#000000" stroke="none">
<path d="M302 661 c3 -171 9 -315 12 -319 4 -3 10 -1 14 5 5 7 83 13 232 17
124 4 258 9 298 12 72 6 72 6 72 -19 0 -54 6 -57 99 -57 129 0 131 1 131 70 0
31 3 104 6 162 l7 105 326 8 c179 4 351 11 381 14 53 7 54 7 20 14 -19 4 -192
8 -383 10 l-348 2 3 132 3 131 -35 6 c-19 3 -217 9 -439 13 l-404 6 5 -312z
m821 182 c4 -54 7 -127 7 -162 l0 -64 -37 7 c-21 3 -59 6 -85 6 l-48 0 0 150
0 149 68 4 c37 2 72 4 78 5 7 1 13 -33 17 -95z m-203 -35 c0 -68 3 -188 7
-268 l6 -145 -229 3 c-126 1 -261 5 -300 8 l-71 5 4 242 c3 133 6 248 8 254 3
10 67 13 252 16 136 1 265 3 286 5 l37 2 0 -122z m212 -270 c2 -35 3 -64 2
-66 -1 -2 -43 0 -93 4 l-92 7 5 36 c3 20 5 46 6 59 0 21 4 22 84 22 l84 0 4
-62z m8 -154 c0 -56 -2 -65 -16 -60 -9 3 -51 6 -95 6 l-79 0 0 54 0 55 43 4
c23 2 66 4 95 5 l52 2 0 -66z"/>
<path d="M470 698 c0 -51 3 -111 7 -132 l6 -39 125 7 c69 4 128 9 131 11 2 3
5 58 5 123 l1 117 -137 3 -138 3 0 -93z m250 -17 c0 -49 3 -96 6 -105 5 -14
-9 -16 -116 -16 l-123 0 7 38 c3 20 6 65 6 99 l0 62 78 4 c42 1 92 4 110 5
l32 2 0 -89z"/>
</g>
</svg>
