<?xml version="1.0" standalone="no"?>
<!DOCTYPE svg PUBLIC "-//W3C//DTD SVG 20010904//EN"
 "http://www.w3.org/TR/2001/REC-SVG-20010904/DTD/svg10.dtd">
<svg version="1.0" xmlns="http://www.w3.org/2000/svg"
 width="201.000000pt" height="123.000000pt" viewBox="0 0 201.000000 123.000000"
 preserveAspectRatio="xMidYMid meet">
<metadata>
Created by potrace 1.16, written by Peter Selinger 2001-2019
</metadata>
<g transform="translate(0.000000,123.000000) scale(0.100000,-0.100000)"
fill="#000000" stroke="none">
<path d="M1390 915 c-14 -8 -83 -30 -153 -49 -222 -62 -371 -134 -477 -232
l-45 -41 -186 -6 c-102 -4 -197 -11 -210 -16 -52 -20 15 -24 200 -12 137 8
207 9 266 1 126 -18 266 -50 315 -73 40 -19 63 -22 195 -22 134 0 156 3 208
24 48 19 62 30 73 57 29 69 7 132 -60 174 -32 19 -47 22 -124 18 -91 -4 -86
-2 -376 -127 -33 -15 -46 -25 -39 -32 7 -7 65 11 179 56 93 36 199 71 236 77
65 11 67 11 108 -16 47 -31 62 -63 58 -120 l-3 -40 -75 -24 c-102 -33 -245
-35 -345 -5 -173 52 -248 72 -300 78 l-56 7 23 25 c31 33 147 105 231 143 78
35 352 130 376 130 34 0 138 -59 173 -98 21 -23 52 -66 69 -97 39 -70 55 -71
28 -2 -35 92 -87 157 -154 193 -74 40 -103 47 -135 29z"/>
<path d="M1697 620 c-48 -144 -87 -205 -159 -253 -55 -37 -60 -38 -170 -44
-251 -13 -409 34 -587 173 -54 42 -71 47 -71 19 0 -21 103 -99 190 -144 129
-67 157 -72 400 -70 242 2 246 3 322 87 42 47 61 85 78 165 12 51 10 103 -3
67z"/>
</g>
</svg>
