<?xml version="1.0" standalone="no"?>
<!DOCTYPE svg PUBLIC "-//W3C//DTD SVG 20010904//EN"
 "http://www.w3.org/TR/2001/REC-SVG-20010904/DTD/svg10.dtd">
<svg version="1.0" xmlns="http://www.w3.org/2000/svg"
 width="214.000000pt" height="109.000000pt" viewBox="0 0 214.000000 109.000000"
 preserveAspectRatio="xMidYMid meet">
<metadata>
Created by potrace 1.16, written by Peter Selinger 2001-2019
</metadata>
<g transform="translate(0.000000,109.000000) scale(0.100000,-0.100000)"
fill="#000000" stroke="none">
<path d="M1473 766 c-83 -31 -118 -58 -237 -184 -46 -49 -57 -65 -48 -74 10
-10 34 10 110 87 71 73 114 109 162 133 l65 33 7 -163 c3 -90 9 -187 12 -216
l5 -53 -57 7 c-31 3 -96 19 -145 34 -75 24 -98 37 -170 97 -141 119 -240 176
-359 207 -66 17 -400 33 -471 22 -41 -6 -45 -9 -36 -24 10 -16 34 -18 248 -17
l236 0 77 -33 c87 -38 253 -145 342 -220 32 -28 66 -50 75 -50 9 1 48 -9 86
-21 39 -12 97 -25 130 -28 69 -6 85 0 243 96 90 54 93 57 89 87 -9 52 -69 164
-113 210 -46 47 -130 94 -166 93 -13 0 -51 -10 -85 -23z m183 -57 c22 -15 52
-43 67 -62 41 -54 99 -166 94 -181 -5 -13 -219 -126 -240 -126 -9 0 -10 25 -6
102 4 57 7 149 8 205 1 115 0 114 77 62z"/>
</g>
</svg>
