<?xml version="1.0" standalone="no"?>
<!DOCTYPE svg PUBLIC "-//W3C//DTD SVG 20010904//EN"
 "http://www.w3.org/TR/2001/REC-SVG-20010904/DTD/svg10.dtd">
<svg version="1.0" xmlns="http://www.w3.org/2000/svg"
 width="232.000000pt" height="127.000000pt" viewBox="0 0 232.000000 127.000000"
 preserveAspectRatio="xMidYMid meet">
<metadata>
Created by potrace 1.16, written by Peter Selinger 2001-2019
</metadata>
<g transform="translate(0.000000,127.000000) scale(0.100000,-0.100000)"
fill="#000000" stroke="none">
<path d="M1318 774 c-184 -185 -197 -195 -218 -184 -22 12 -16 19 156 191 98
98 174 179 169 179 -6 0 -89 -78 -184 -174 l-175 -175 -25 18 c-42 30 -142 77
-201 96 -44 15 -103 19 -298 23 -154 2 -242 1 -242 -6 0 -26 36 -31 270 -34
l245 -3 70 -33 c108 -51 207 -113 201 -127 -3 -8 2 -11 13 -8 10 2 23 -3 30
-11 11 -13 11 -19 0 -34 -13 -16 -13 -16 7 0 19 17 21 16 64 -21 l45 -39 -20
-23 -20 -24 23 19 c19 17 25 18 47 6 24 -13 24 -14 8 -34 -18 -21 -18 -21 5
-2 19 17 26 17 49 7 24 -11 26 -14 10 -22 -9 -6 -17 -15 -17 -21 0 -6 10 -2
23 9 17 16 27 19 46 12 19 -8 21 -12 11 -24 -7 -8 -8 -15 -2 -15 5 0 15 7 22
15 7 8 28 15 48 15 l35 0 -23 -25 c-30 -32 -14 -33 19 -1 15 13 43 26 65 29
l39 6 -24 -27 c-19 -21 -17 -20 14 6 21 18 43 32 50 32 7 0 34 13 60 30 26 17
51 30 55 30 3 0 -20 -28 -53 -63 -33 -34 20 17 118 113 97 96 177 177 177 180
0 2 -52 -47 -115 -110 -63 -63 -115 -110 -115 -105 0 6 5 28 11 50 8 31 33 62
110 137 54 54 99 101 99 105 0 4 -45 -37 -101 -92 l-100 -100 6 40 c6 31 22
55 69 104 33 36 70 73 81 82 11 10 15 18 10 19 -6 0 -44 -34 -85 -75 -75 -75
-75 -76 -81 -48 -5 24 3 37 60 96 36 37 63 67 59 67 -3 0 -33 -28 -67 -62
l-60 -62 -12 28 c-12 25 -10 30 42 84 l54 57 -55 -52 c-31 -29 -59 -53 -62
-53 -4 0 -12 10 -19 21 -10 19 -5 28 38 73 l48 51 -52 -49 c-52 -49 -53 -49
-73 -31 l-21 19 43 45 43 46 -50 -47 c-43 -41 -57 -48 -90 -48 l-39 0 49 53
50 52 -55 -51 c-31 -29 -68 -54 -85 -57 -16 -3 -39 -9 -50 -13 -11 -4 10 22
48 57 37 35 67 69 67 74 0 5 -39 -29 -87 -76 -49 -47 -125 -109 -171 -137 -45
-29 -84 -52 -86 -52 -2 0 56 58 128 129 72 72 128 132 125 135 -3 3 -93 -83
-201 -190z m130 -141 c-161 -161 -189 -185 -202 -174 -9 8 -16 19 -16 25 0 7
73 85 163 174 155 154 165 162 203 162 l39 0 -187 -187z m233 171 c11 -13 -13
-41 -172 -202 l-184 -187 187 184 c161 159 189 183 202 172 9 -8 16 -19 16
-25 0 -10 -75 -87 -276 -280 -71 -67 -72 -68 -105 -57 -19 6 -43 18 -54 27
-18 14 -11 23 165 199 102 102 190 185 196 185 6 0 17 -7 25 -16z m-306 -154
l-160 -160 -20 21 -20 20 110 107 c77 75 129 117 174 140 35 17 66 32 70 32 3
0 -66 -72 -154 -160z m376 59 c10 -20 -2 -35 -141 -174 -139 -139 -154 -151
-182 -147 -30 5 -27 8 138 173 93 93 170 169 171 169 1 0 7 -10 14 -21z m-501
-94 c-41 -41 -77 -75 -80 -75 -4 0 -15 7 -26 15 -18 14 -16 17 41 69 44 40 63
51 72 44 9 -7 20 -6 35 5 41 29 33 18 -42 -58z m519 -28 l0 -73 -48 -48 c-32
-31 -64 -52 -95 -61 -58 -18 -59 -19 56 92 43 42 78 81 78 87 0 6 -46 -35
-102 -90 -87 -86 -109 -103 -143 -108 l-39 -5 139 139 c77 77 143 140 147 140
3 0 7 -33 7 -73z m-5 -112 c-6 -15 -35 -35 -50 -35 -4 0 3 11 16 25 26 28 42
33 34 10z"/>
<path d="M1176 810 c-61 -60 -108 -112 -105 -114 3 -3 56 46 119 109 63 63
110 115 105 115 -6 -1 -59 -50 -119 -110z"/>
<path d="M1895 458 l-110 -113 113 110 c104 102 117 115 109 115 -1 0 -52 -51
-112 -112z"/>
<path d="M1174 448 l-19 -23 23 19 c21 18 27 26 19 26 -2 0 -12 -10 -23 -22z"/>
</g>
</svg>
