<?xml version="1.0" standalone="no"?>
<!DOCTYPE svg PUBLIC "-//W3C//DTD SVG 20010904//EN"
 "http://www.w3.org/TR/2001/REC-SVG-20010904/DTD/svg10.dtd">
<svg version="1.0" xmlns="http://www.w3.org/2000/svg"
 width="260.000000pt" height="156.000000pt" viewBox="0 0 260.000000 156.000000"
 preserveAspectRatio="xMidYMid meet">
<metadata>
Created by potrace 1.16, written by Peter Selinger 2001-2019
</metadata>
<g transform="translate(0.000000,156.000000) scale(0.100000,-0.100000)"
fill="#000000" stroke="none">
<path d="M672 1142 c-103 -134 -122 -154 -122 -127 0 16 -7 17 -61 11 -133
-15 -189 -61 -189 -153 0 -71 21 -107 80 -134 70 -33 212 -59 328 -59 56 0
102 -1 102 -2 0 -2 -7 -25 -15 -52 -28 -93 -17 -186 28 -235 27 -29 122 -77
169 -86 32 -6 38 -4 61 27 54 73 70 118 78 233 4 61 8 113 8 118 1 4 8 7 17 7
8 0 13 4 10 9 -3 5 -121 12 -261 16 -140 4 -255 8 -255 9 0 0 7 26 15 56 26
98 18 158 -29 202 l-25 23 95 114 c75 90 92 116 83 127 -6 8 -14 14 -18 14 -4
0 -48 -53 -99 -118z m-151 -204 c-41 -56 -28 -64 18 -10 20 23 42 42 48 42 21
0 51 -49 57 -92 3 -24 2 -68 -2 -98 l-7 -55 -45 3 c-25 2 -70 10 -100 19 -30
8 -68 16 -85 17 -36 1 -75 54 -75 100 1 76 55 116 158 116 l64 0 -31 -42z
m569 -337 c0 -106 -14 -179 -46 -243 -23 -46 -25 -47 -55 -36 -43 15 -119 68
-142 100 -28 38 -33 116 -12 193 l17 64 41 3 c23 2 77 4 120 6 l77 3 0 -90z"/>
<path d="M1313 914 c-15 -6 -18 -233 -6 -444 l6 -123 456 7 c251 4 470 8 486
9 26 2 31 7 37 37 4 19 7 142 7 272 l1 238 -32 -1 c-18 -1 -238 1 -488 5 -250
3 -461 3 -467 0z m947 -104 l0 -80 -317 2 -317 3 3 65 c1 36 3 66 4 67 1 1
128 5 282 11 154 5 295 10 313 10 l32 2 0 -80z m-860 -47 c0 -60 3 -165 7
-235 l6 -128 -43 0 -43 0 7 53 c3 28 6 134 6 235 l0 182 30 0 30 0 0 -107z
m90 80 c1 -73 11 -334 15 -385 l5 -58 -42 0 -41 0 6 113 c4 61 7 167 7 235 l0
122 25 0 c21 0 25 -5 25 -27z m100 -116 c0 -79 3 -185 6 -235 l7 -92 -43 0
-43 0 7 53 c3 28 6 134 6 235 l0 182 30 0 30 0 0 -143z m670 -79 l0 -63 -177
3 c-98 2 -178 4 -179 5 -1 1 1 25 3 54 l5 52 127 4 c69 1 147 4 174 5 l47 2 0
-62z m-558 -3 l3 -55 -42 0 c-47 0 -51 8 -37 79 6 27 11 31 39 31 33 0 33 0
37 -55z m88 23 c0 -18 3 -43 6 -55 6 -21 3 -23 -36 -23 -34 0 -41 3 -36 16 3
9 6 33 6 55 0 37 2 39 30 39 27 0 30 -3 30 -32z m92 -23 l3 -55 -35 0 -35 0 3
55 c4 53 5 55 32 55 27 0 28 -2 32 -55z m386 -173 l3 -93 -103 5 c-57 3 -203
8 -326 11 -122 2 -222 7 -222 10 0 3 0 39 0 80 l0 75 268 2 c147 2 292 3 322
3 l55 0 3 -93z"/>
</g>
</svg>
