<?xml version="1.0" standalone="no"?>
<!DOCTYPE svg PUBLIC "-//W3C//DTD SVG 20010904//EN"
 "http://www.w3.org/TR/2001/REC-SVG-20010904/DTD/svg10.dtd">
<svg version="1.0" xmlns="http://www.w3.org/2000/svg"
 width="160.000000pt" height="192.000000pt" viewBox="0 0 160.000000 192.000000"
 preserveAspectRatio="xMidYMid meet">
<metadata>
Created by potrace 1.16, written by Peter Selinger 2001-2019
</metadata>
<g transform="translate(0.000000,192.000000) scale(0.100000,-0.100000)"
fill="#000000" stroke="none">
<path d="M506 1528 c-3 -50 -6 -119 -6 -153 l0 -62 -62 -23 c-40 -14 -77 -37
-102 -61 -38 -38 -38 -40 -34 -99 3 -39 11 -70 25 -88 40 -54 55 -57 334 -57
198 0 253 -3 243 -12 -6 -7 -17 -41 -24 -77 -11 -60 -14 -65 -34 -61 -11 3
-113 7 -226 8 -188 2 -205 1 -208 -15 -3 -17 13 -18 225 -18 l228 0 2 -71 1
-72 -111 7 c-62 3 -164 7 -227 8 -108 2 -115 0 -115 -18 0 -18 9 -19 231 -19
l231 0 28 -52 c16 -30 60 -84 106 -127 75 -72 193 -166 209 -166 9 0 43 465
50 693 0 4 7 7 15 7 8 0 15 4 15 8 0 10 -271 22 -481 22 l-137 0 -4 93 c-3 68
-9 99 -22 120 -22 33 -91 71 -113 63 -12 -5 -14 -1 -10 16 3 13 9 85 13 161 6
132 6 137 -13 137 -18 0 -21 -9 -27 -92z m105 -297 c28 -30 49 -103 49 -167
l0 -35 -111 2 c-71 1 -114 -2 -118 -9 -11 -19 -71 25 -87 63 -30 72 -11 113
70 151 77 36 86 33 86 -26 0 -27 5 -50 10 -50 6 0 10 11 10 24 0 13 3 38 6 55
6 29 10 32 33 26 14 -3 38 -19 52 -34z m602 -563 c-3 -183 -5 -337 -7 -342 -1
-4 -47 36 -102 90 -100 98 -168 187 -181 235 -10 41 -15 139 -7 157 4 9 6 27
5 39 -1 12 5 49 15 82 l16 60 102 4 c55 1 115 4 132 5 l31 2 -4 -332z"/>
</g>
</svg>
