<?xml version="1.0" standalone="no"?>
<!DOCTYPE svg PUBLIC "-//W3C//DTD SVG 20010904//EN"
 "http://www.w3.org/TR/2001/REC-SVG-20010904/DTD/svg10.dtd">
<svg version="1.0" xmlns="http://www.w3.org/2000/svg"
 width="131.000000pt" height="152.000000pt" viewBox="0 0 131.000000 152.000000"
 preserveAspectRatio="xMidYMid meet">
<metadata>
Created by potrace 1.16, written by Peter Selinger 2001-2019
</metadata>
<g transform="translate(0.000000,152.000000) scale(0.100000,-0.100000)"
fill="#000000" stroke="none">
<path d="M303 1204 c-3 -9 -2 -190 2 -403 4 -212 8 -412 9 -444 l1 -57 238 0
237 0 1 33 c1 17 4 90 8 161 l6 129 60 17 c65 18 145 56 145 68 0 5 -26 -4
-57 -19 -32 -16 -77 -33 -100 -38 l-43 -9 0 98 0 98 58 -15 c31 -8 76 -26 100
-39 23 -14 42 -20 42 -14 0 14 -89 55 -152 72 l-48 12 0 176 0 177 -112 6
c-62 4 -175 7 -251 7 -117 0 -139 -2 -144 -16z m446 -141 l2 -128 -143 2 c-79
2 -167 6 -195 9 l-53 5 0 114 0 114 133 4 c72 1 159 4 193 5 l61 2 2 -127z m1
-172 l0 -28 -49 8 c-28 4 -109 11 -180 15 l-131 7 0 -152 c0 -148 0 -151 -22
-151 -20 0 -21 2 -15 98 4 53 7 122 7 153 l0 56 183 10 c100 5 188 10 195 11
7 1 12 -9 12 -27z m-32 -37 l32 -6 0 -78 c0 -43 3 -91 6 -107 6 -28 4 -30 -33
-37 -21 -3 -91 -9 -156 -13 l-119 -6 26 38 c37 53 37 137 0 190 l-26 38 119
-6 c65 -4 133 -9 151 -13z m42 -254 c0 -18 -6 -20 -52 -19 -29 1 -78 4 -108 9
l-55 7 55 2 c46 2 149 15 158 20 1 0 2 -8 2 -19z m4 -117 c3 -42 6 -97 6 -122
l0 -46 -112 2 c-62 2 -159 6 -215 9 l-103 6 0 41 c0 23 3 72 6 109 l7 67 141
4 c78 1 168 4 202 5 l61 2 7 -77z"/>
</g>
</svg>
