<?xml version="1.0" standalone="no"?>
<!DOCTYPE svg PUBLIC "-//W3C//DTD SVG 20010904//EN"
 "http://www.w3.org/TR/2001/REC-SVG-20010904/DTD/svg10.dtd">
<svg version="1.0" xmlns="http://www.w3.org/2000/svg"
 width="213.000000pt" height="130.000000pt" viewBox="0 0 213.000000 130.000000"
 preserveAspectRatio="xMidYMid meet">
<metadata>
Created by potrace 1.16, written by Peter Selinger 2001-2019
</metadata>
<g transform="translate(0.000000,130.000000) scale(0.100000,-0.100000)"
fill="#000000" stroke="none">
<path d="M853 982 c-7 -12 -68 -58 -135 -102 -68 -45 -124 -84 -125 -88 -2 -4
-68 -6 -148 -4 -137 3 -145 2 -145 -16 0 -17 7 -19 93 -15 220 8 225 9 304 66
39 29 92 69 117 90 l45 39 448 8 c246 5 466 10 488 10 36 1 38 2 16 11 -13 5
-229 12 -485 16 -460 6 -461 5 -473 -15z"/>
<path d="M1027 793 c-3 -5 -6 -59 -6 -122 l-2 -114 133 6 c299 12 467 98 325
166 -62 30 -148 49 -272 61 -131 12 -172 13 -178 3z m321 -39 c104 -21 164
-50 160 -77 -2 -12 -17 -29 -35 -40 -41 -23 -190 -53 -311 -62 l-93 -7 20 33
c29 47 28 117 -1 154 l-22 28 103 -6 c57 -4 137 -14 179 -23z"/>
<path d="M300 529 c0 -20 5 -20 145 -17 80 2 145 1 145 -2 0 -3 56 -43 125
-88 69 -46 131 -93 139 -104 15 -21 16 -21 474 -15 253 4 470 11 483 16 16 7
-63 10 -246 10 -148 1 -369 6 -489 11 l-220 10 -44 38 c-24 20 -76 60 -115 89
-79 57 -72 55 -304 67 -88 4 -93 4 -93 -15z"/>
</g>
</svg>
