<?xml version="1.0" standalone="no"?>
<!DOCTYPE svg PUBLIC "-//W3C//DTD SVG 20010904//EN"
 "http://www.w3.org/TR/2001/REC-SVG-20010904/DTD/svg10.dtd">
<svg version="1.0" xmlns="http://www.w3.org/2000/svg"
 width="213.000000pt" height="130.000000pt" viewBox="0 0 213.000000 130.000000"
 preserveAspectRatio="xMidYMid meet">
<metadata>
Created by potrace 1.16, written by Peter Selinger 2001-2019
</metadata>
<g transform="translate(0.000000,130.000000) scale(0.100000,-0.100000)"
fill="#000000" stroke="none">
<path d="M853 982 c-7 -12 -68 -58 -135 -102 -68 -45 -124 -84 -125 -88 -2 -4
-68 -6 -148 -4 -137 3 -145 2 -145 -16 0 -17 7 -19 93 -15 220 8 225 9 304 66
39 29 92 69 117 90 l45 39 448 8 c246 5 466 10 488 10 36 1 38 2 16 11 -13 5
-229 12 -485 16 -460 6 -461 5 -473 -15z"/>
<path d="M850 640 l0 -153 118 7 c283 17 458 60 499 122 20 31 12 48 -36 81
-67 45 -236 79 -448 90 l-133 6 0 -153z m358 110 c45 -7 82 -14 82 -17 0 -2
-78 -3 -174 -3 -165 2 -175 3 -194 23 l-21 22 112 -6 c62 -4 149 -12 195 -19z
m212 -63 c49 -32 47 -64 -5 -94 -38 -22 -50 -23 -253 -23 -167 0 -213 3 -210
13 4 9 56 13 209 15 112 1 207 6 212 11 8 8 -201 21 -340 21 -40 0 -73 4 -73
8 0 11 157 22 308 22 73 0 111 4 107 10 -4 6 -85 10 -210 10 -117 0 -206 4
-210 9 -7 13 41 16 255 19 170 3 177 2 210 -21z m-151 -141 c-9 -9 -237 -36
-307 -36 -61 0 -65 1 -46 14 12 8 50 16 85 18 153 7 273 9 268 4z"/>
<path d="M300 529 c0 -20 5 -20 145 -17 80 2 145 1 145 -2 0 -3 56 -43 125
-88 69 -46 131 -93 139 -104 15 -21 16 -21 474 -15 253 4 470 11 483 16 16 7
-63 10 -246 10 -148 1 -369 6 -489 11 l-220 10 -44 38 c-24 20 -76 60 -115 89
-79 57 -72 55 -304 67 -88 4 -93 4 -93 -15z"/>
</g>
</svg>
