<?xml version="1.0" standalone="no"?>
<!DOCTYPE svg PUBLIC "-//W3C//DTD SVG 20010904//EN"
 "http://www.w3.org/TR/2001/REC-SVG-20010904/DTD/svg10.dtd">
<svg version="1.0" xmlns="http://www.w3.org/2000/svg"
 width="213.000000pt" height="130.000000pt" viewBox="0 0 213.000000 130.000000"
 preserveAspectRatio="xMidYMid meet">
<metadata>
Created by potrace 1.16, written by Peter Selinger 2001-2019
</metadata>
<g transform="translate(0.000000,130.000000) scale(0.100000,-0.100000)"
fill="#000000" stroke="none">
<path d="M853 982 c-7 -12 -68 -58 -135 -102 -68 -45 -124 -84 -125 -88 -2 -4
-68 -6 -148 -4 -137 3 -145 2 -145 -16 0 -17 7 -19 93 -15 220 8 225 9 304 66
39 29 92 69 117 90 l45 39 448 8 c246 5 466 10 488 10 36 1 38 2 16 11 -13 5
-229 12 -485 16 -460 6 -461 5 -473 -15z"/>
<path d="M914 844 c-11 -6 -72 -45 -136 -87 -155 -101 -155 -99 17 -210 72
-46 139 -87 149 -90 14 -6 46 13 130 77 61 46 120 94 131 106 l20 22 -30 25
c-108 89 -226 172 -242 170 -11 0 -29 -6 -39 -13z m174 -261 c-62 -42 -121
-82 -130 -90 -9 -8 -21 -12 -27 -9 -25 16 -226 170 -228 175 -2 3 16 18 40 33
23 15 76 54 116 86 l75 58 133 -89 134 -89 -113 -75z"/>
<path d="M1367 854 c-10 -11 -8 -417 2 -433 9 -14 18 50 24 164 l2 50 120 6
c66 4 135 7 153 8 19 0 31 5 27 11 -4 6 -61 10 -138 10 -73 0 -137 4 -144 8
-7 5 -13 40 -15 92 -3 76 -12 102 -31 84z"/>
<path d="M300 529 c0 -20 5 -20 145 -17 80 2 145 1 145 -2 0 -3 56 -43 125
-88 69 -46 131 -93 139 -104 15 -21 16 -21 474 -15 253 4 470 11 483 16 16 7
-63 10 -246 10 -148 1 -369 6 -489 11 l-220 10 -44 38 c-24 20 -76 60 -115 89
-79 57 -72 55 -304 67 -88 4 -93 4 -93 -15z"/>
</g>
</svg>
