<?xml version="1.0" standalone="no"?>
<!DOCTYPE svg PUBLIC "-//W3C//DTD SVG 20010904//EN"
 "http://www.w3.org/TR/2001/REC-SVG-20010904/DTD/svg10.dtd">
<svg version="1.0" xmlns="http://www.w3.org/2000/svg"
 width="213.000000pt" height="130.000000pt" viewBox="0 0 213.000000 130.000000"
 preserveAspectRatio="xMidYMid meet">
<metadata>
Created by potrace 1.16, written by Peter Selinger 2001-2019
</metadata>
<g transform="translate(0.000000,130.000000) scale(0.100000,-0.100000)"
fill="#000000" stroke="none">
<path d="M860 989 c0 -8 -61 -55 -135 -104 -74 -49 -135 -92 -135 -95 0 -3
-65 -4 -145 -2 -137 3 -145 2 -145 -16 0 -17 7 -19 93 -15 220 8 225 9 304 66
39 29 92 69 117 90 l45 39 448 8 c246 5 466 10 488 10 36 1 38 2 16 11 -13 5
-231 12 -488 16 -400 5 -463 4 -463 -8z"/>
<path d="M807 784 c-4 -4 -7 -58 -7 -121 l0 -113 50 0 c28 0 76 9 106 20 56
19 56 19 51 0 -5 -19 0 -20 93 -20 159 0 343 38 389 81 35 33 24 60 -39 91
-65 32 -200 56 -345 60 -91 3 -100 1 -97 -14 3 -21 -1 -22 -53 -4 -51 18 -138
29 -148 20z m163 -42 c33 -16 35 -20 38 -75 l3 -58 -43 -18 c-24 -10 -60 -22
-80 -25 l-38 -7 21 36 c26 44 23 123 -7 156 l-19 21 45 -7 c25 -4 61 -14 80
-23z m358 2 c85 -17 157 -47 166 -69 18 -48 -125 -93 -358 -111 l-89 -7 23 31
c32 43 32 111 0 154 l-23 31 102 -7 c57 -3 137 -13 179 -22z"/>
<path d="M300 529 c0 -20 5 -20 145 -17 80 2 145 1 145 -2 0 -3 56 -43 125
-88 69 -46 131 -93 139 -104 15 -21 16 -21 474 -15 253 4 470 11 483 16 16 7
-63 10 -246 10 -148 1 -369 6 -489 11 l-220 10 -44 38 c-24 20 -76 60 -115 89
-79 57 -72 55 -304 67 -88 4 -93 4 -93 -15z"/>
</g>
</svg>
