<?xml version="1.0" standalone="no"?>
<!DOCTYPE svg PUBLIC "-//W3C//DTD SVG 20010904//EN"
 "http://www.w3.org/TR/2001/REC-SVG-20010904/DTD/svg10.dtd">
<svg version="1.0" xmlns="http://www.w3.org/2000/svg"
 width="213.000000pt" height="130.000000pt" viewBox="0 0 213.000000 130.000000"
 preserveAspectRatio="xMidYMid meet">
<metadata>
Created by potrace 1.16, written by Peter Selinger 2001-2019
</metadata>
<g transform="translate(0.000000,130.000000) scale(0.100000,-0.100000)"
fill="#000000" stroke="none">
<path d="M853 982 c-7 -12 -68 -58 -135 -102 -68 -45 -124 -84 -125 -88 -2 -4
-68 -6 -148 -4 -137 3 -145 2 -145 -16 0 -17 7 -19 93 -15 220 8 225 9 304 66
39 29 92 69 117 90 l45 39 448 8 c246 5 466 10 488 10 36 1 38 2 16 11 -13 5
-229 12 -485 16 -460 6 -461 5 -473 -15z"/>
<path d="M1000 831 c0 -67 20 -353 25 -369 4 -10 20 -3 58 24 112 82 96 76
148 57 46 -17 47 -17 100 10 l53 26 98 -59 98 -60 -2 208 c-3 187 -5 207 -20
210 -10 2 -56 -22 -103 -52 l-85 -56 -33 20 c-38 24 -75 25 -122 6 -35 -15
-36 -14 -107 35 -94 64 -108 64 -108 0z m548 -63 c1 -51 5 -133 8 -182 l7 -89
-79 56 -79 55 -1 54 c0 29 -3 60 -7 68 -5 11 10 27 48 54 30 22 63 48 72 58 9
10 19 18 23 18 3 0 7 -42 8 -92z m-396 -15 c-24 -70 -24 -89 3 -155 5 -12 -8
-26 -54 -58 l-61 -41 0 49 c0 27 -3 104 -7 172 l-6 123 64 -41 c35 -23 63 -45
61 -49z"/>
<path d="M300 529 c0 -20 5 -20 145 -17 80 2 145 1 145 -2 0 -3 56 -43 125
-88 69 -46 131 -93 139 -104 15 -21 16 -21 474 -15 253 4 470 11 483 16 16 7
-63 10 -246 10 -148 1 -369 6 -489 11 l-220 10 -44 38 c-24 20 -76 60 -115 89
-79 57 -72 55 -304 67 -88 4 -93 4 -93 -15z"/>
</g>
</svg>
