<?xml version="1.0" standalone="no"?>
<!DOCTYPE svg PUBLIC "-//W3C//DTD SVG 20010904//EN"
 "http://www.w3.org/TR/2001/REC-SVG-20010904/DTD/svg10.dtd">
<svg version="1.0" xmlns="http://www.w3.org/2000/svg"
 width="227.000000pt" height="143.000000pt" viewBox="0 0 227.000000 143.000000"
 preserveAspectRatio="xMidYMid meet">
<metadata>
Created by potrace 1.16, written by Peter Selinger 2001-2019
</metadata>
<g transform="translate(0.000000,143.000000) scale(0.100000,-0.100000)"
fill="#000000" stroke="none">
<path d="M1235 1100 c-23 -24 -37 -30 -69 -30 l-39 0 24 28 24 27 -31 -27
c-22 -20 -41 -28 -68 -28 -35 0 -37 2 -25 18 13 16 13 16 -7 0 -15 -14 -38
-18 -92 -18 -62 0 -74 -3 -98 -25 -15 -14 -75 -57 -133 -95 -58 -38 -113 -75
-121 -82 -11 -10 -50 -12 -157 -10 -140 3 -143 3 -143 -17 0 -21 3 -21 98 -16
211 12 221 14 277 49 28 19 84 61 122 94 39 34 74 58 77 54 4 -3 -46 -60 -111
-127 l-118 -120 125 123 c118 115 128 122 165 122 l40 0 -165 -167 -165 -168
170 167 c158 155 173 168 215 174 l45 6 -210 -213 -210 -214 215 213 c208 205
217 212 255 212 l40 0 -235 -237 -235 -238 240 238 c229 226 242 237 278 237
l38 0 -255 -256 -255 -255 -56 38 c-65 43 -109 51 -277 52 -99 1 -108 -1 -108
-18 0 -17 8 -18 138 -13 157 5 122 18 324 -120 60 -40 108 -77 108 -83 0 -6
30 -9 76 -7 70 3 76 2 70 -14 -6 -17 -6 -17 12 -1 11 10 35 17 57 17 l38 0
-24 -28 -24 -27 31 28 c22 20 41 27 69 27 l39 0 -30 -32 -29 -33 35 33 c25 22
46 32 68 32 38 0 41 -12 7 -34 -14 -9 -25 -22 -25 -28 0 -7 17 5 38 25 29 28
46 37 72 37 l34 0 -29 -30 c-16 -16 -26 -32 -24 -35 3 -2 21 11 39 30 26 27
42 35 69 35 l35 0 -29 -30 c-16 -16 -24 -30 -19 -30 6 0 23 14 39 30 21 22 38
30 63 30 34 0 35 0 17 -20 -10 -11 -15 -20 -10 -20 4 0 15 9 25 20 20 24 108
41 95 19 -6 -11 -5 -12 6 -2 8 8 43 13 96 13 49 0 83 4 83 10 0 6 -31 10 -72
10 l-73 0 140 143 140 142 -145 -142 c-134 -132 -148 -143 -182 -143 l-37 0
179 180 c99 99 176 180 172 180 -4 0 -88 -81 -187 -180 -165 -165 -183 -180
-215 -180 -34 0 -32 3 175 210 115 115 207 212 204 214 -3 3 -101 -91 -219
-209 -198 -198 -218 -215 -250 -215 -34 0 -30 5 203 238 130 130 237 240 237
244 0 3 -111 -103 -247 -237 l-248 -243 -79 0 -79 0 284 286 284 287 -290
-287 c-283 -281 -291 -288 -330 -288 l-40 0 305 308 305 307 -310 -307 c-246
-244 -315 -308 -336 -308 -14 0 -29 3 -33 7 -4 4 134 148 306 320 l313 313 65
1 c111 1 22 19 -102 20 -96 0 -106 2 -101 17 6 15 3 14 -15 -2 -24 -21 -85
-15 -63 7 22 22 11 30 -12 9 -14 -14 -36 -22 -57 -22 l-33 0 24 26 24 27 -23
-12 c-13 -7 -26 -19 -29 -27 -3 -9 -20 -14 -46 -14 l-41 0 30 33 29 32 -35
-32 c-28 -26 -45 -33 -75 -33 l-39 0 29 30 c16 17 26 30 24 30 -3 0 -18 -13
-34 -30z m59 -381 c-246 -246 -314 -309 -335 -309 -14 0 -29 3 -33 7 -3 4 133
145 304 313 291 287 313 306 341 302 30 -4 23 -13 -277 -313z m96 6 c-309
-309 -316 -315 -355 -315 l-40 0 315 315 c308 307 317 315 355 315 l40 0 -315
-315z m29 300 c-2 -2 -134 -135 -294 -294 -159 -160 -285 -291 -280 -291 6 0
143 133 305 295 274 274 297 295 330 295 34 0 27 -8 -269 -304 -167 -167 -314
-306 -326 -308 -13 -3 -34 6 -56 24 l-34 28 275 275 c151 151 270 275 265 275
-6 0 -132 -121 -280 -270 -257 -257 -270 -269 -287 -253 -18 16 -8 28 239 275
l257 257 79 0 c44 0 78 -2 76 -4z"/>
<path d="M1602 673 c-139 -141 -251 -257 -249 -259 1 -2 120 114 262 256 143
143 255 260 250 259 -6 0 -124 -116 -263 -256z"/>
</g>
</svg>
