<?xml version="1.0" standalone="no"?>
<!DOCTYPE svg PUBLIC "-//W3C//DTD SVG 20010904//EN"
 "http://www.w3.org/TR/2001/REC-SVG-20010904/DTD/svg10.dtd">
<svg version="1.0" xmlns="http://www.w3.org/2000/svg"
 width="213.000000pt" height="130.000000pt" viewBox="0 0 213.000000 130.000000"
 preserveAspectRatio="xMidYMid meet">
<metadata>
Created by potrace 1.16, written by Peter Selinger 2001-2019
</metadata>
<g transform="translate(0.000000,130.000000) scale(0.100000,-0.100000)"
fill="#000000" stroke="none">
<path d="M860 989 c0 -8 -61 -55 -135 -104 -74 -49 -135 -92 -135 -95 0 -3
-65 -4 -145 -2 -137 3 -145 2 -145 -16 0 -17 7 -19 93 -15 220 8 225 9 304 66
39 29 92 69 117 90 l45 39 448 8 c246 5 466 10 488 10 36 1 38 2 16 11 -13 5
-231 12 -488 16 -400 5 -463 4 -463 -8z"/>
<path d="M1050 885 c0 -8 28 -30 63 -51 34 -20 63 -37 64 -38 2 -1 -6 -26 -17
-54 -25 -67 -25 -91 2 -154 12 -29 18 -53 13 -55 -37 -14 -121 -72 -123 -86
-5 -26 13 -21 84 24 l66 42 36 -36 36 -36 140 96 c184 125 178 118 141 149
-29 23 -264 190 -291 207 -9 5 -23 -5 -41 -31 l-28 -38 -60 38 c-65 41 -85 46
-85 23z m360 -129 c74 -47 140 -88 145 -91 6 -3 5 -8 -3 -11 -7 -3 -76 -44
-153 -91 -132 -80 -141 -84 -154 -66 -8 10 -15 21 -15 25 0 5 32 29 70 54 39
26 70 51 70 56 0 6 -34 -9 -76 -31 -41 -23 -79 -41 -84 -41 -12 0 -40 76 -40
108 0 15 9 46 20 69 l19 42 72 -40 c40 -22 77 -38 83 -36 5 2 -23 25 -62 51
-40 27 -72 51 -72 53 0 15 24 44 33 40 7 -3 73 -43 147 -91z"/>
<path d="M300 529 c0 -20 5 -20 145 -17 80 2 145 1 145 -2 0 -3 56 -43 125
-88 69 -46 131 -93 139 -104 15 -21 16 -21 474 -15 253 4 470 11 483 16 16 7
-63 10 -246 10 -148 1 -369 6 -489 11 l-220 10 -44 38 c-24 20 -76 60 -115 89
-79 57 -72 55 -304 67 -88 4 -93 4 -93 -15z"/>
</g>
</svg>
