<?xml version="1.0" standalone="no"?>
<!DOCTYPE svg PUBLIC "-//W3C//DTD SVG 20010904//EN"
 "http://www.w3.org/TR/2001/REC-SVG-20010904/DTD/svg10.dtd">
<svg version="1.0" xmlns="http://www.w3.org/2000/svg"
 width="213.000000pt" height="130.000000pt" viewBox="0 0 213.000000 130.000000"
 preserveAspectRatio="xMidYMid meet">
<metadata>
Created by potrace 1.16, written by Peter Selinger 2001-2019
</metadata>
<g transform="translate(0.000000,130.000000) scale(0.100000,-0.100000)"
fill="#000000" stroke="none">
<path d="M860 989 c0 -8 -61 -55 -135 -104 -74 -49 -135 -92 -135 -95 0 -3
-65 -4 -145 -2 -137 3 -145 2 -145 -16 0 -17 7 -19 93 -15 220 8 225 9 304 66
39 29 92 69 117 90 l45 39 448 8 c246 5 466 10 488 10 36 1 38 2 16 11 -13 5
-231 12 -488 16 -400 5 -463 4 -463 -8z"/>
<path d="M1122 835 c-33 -15 -59 -36 -70 -55 l-17 -30 -112 0 -113 0 3 -101 2
-101 106 3 106 4 44 -54 c47 -58 87 -79 153 -80 52 -1 153 53 179 96 18 32 21
33 85 33 37 0 90 3 118 6 l50 6 0 92 -1 91 -113 3 c-111 3 -114 3 -143 33 -41
42 -125 79 -179 79 -27 0 -66 -10 -98 -25z m216 -35 c45 -19 51 -26 66 -72 21
-65 20 -82 -4 -161 -20 -64 -20 -64 -81 -92 -106 -47 -204 -19 -248 70 -29 59
-31 110 -7 181 15 48 21 54 74 78 67 31 120 30 200 -4z m-322 -145 l-1 -75
-87 0 -88 0 0 70 0 69 83 4 c45 1 85 4 88 5 3 1 5 -32 5 -73z m609 63 c2 -7 5
-41 7 -75 l4 -63 -102 0 -103 0 10 33 c5 17 7 49 3 69 l-6 37 74 4 c40 1 81 4
91 5 10 1 19 -4 22 -10z"/>
<path d="M300 529 c0 -20 5 -20 145 -17 80 2 145 1 145 -2 0 -3 56 -43 125
-88 69 -46 131 -93 139 -104 15 -21 16 -21 474 -15 253 4 470 11 483 16 16 7
-63 10 -246 10 -148 1 -369 6 -489 11 l-220 10 -44 38 c-24 20 -76 60 -115 89
-79 57 -72 55 -304 67 -88 4 -93 4 -93 -15z"/>
</g>
</svg>
