<?xml version="1.0" standalone="no"?>
<!DOCTYPE svg PUBLIC "-//W3C//DTD SVG 20010904//EN"
 "http://www.w3.org/TR/2001/REC-SVG-20010904/DTD/svg10.dtd">
<svg version="1.0" xmlns="http://www.w3.org/2000/svg"
 width="213.000000pt" height="130.000000pt" viewBox="0 0 213.000000 130.000000"
 preserveAspectRatio="xMidYMid meet">
<metadata>
Created by potrace 1.16, written by Peter Selinger 2001-2019
</metadata>
<g transform="translate(0.000000,130.000000) scale(0.100000,-0.100000)"
fill="#000000" stroke="none">
<path d="M860 989 c0 -8 -61 -55 -135 -104 -74 -49 -135 -92 -135 -95 0 -3
-65 -4 -145 -2 -137 3 -145 2 -145 -16 0 -17 7 -19 93 -15 220 8 225 9 304 66
39 29 92 69 117 90 l45 39 298 5 298 5 -140 -72 c-199 -103 -385 -220 -396
-249 -5 -13 -8 -25 -7 -26 73 -49 256 -155 362 -211 l141 -74 -60 0 c-33 0
-159 5 -279 10 l-220 10 -44 38 c-24 20 -76 60 -115 89 -79 57 -72 55 -304 67
-88 4 -93 4 -93 -15 0 -20 5 -20 145 -17 80 2 145 1 145 -2 0 -3 56 -43 125
-88 69 -46 131 -93 139 -104 15 -21 16 -21 474 -15 253 4 470 11 483 16 17 7
-35 10 -170 10 l-194 1 7 228 c3 125 9 260 13 300 5 64 4 72 -11 72 -15 0 -16
2 -3 15 12 11 57 16 198 21 304 12 173 24 -328 31 -400 5 -463 4 -463 -8z
m563 -191 l-6 -126 -24 28 c-25 30 -92 57 -171 69 l-47 6 125 76 c69 42 126
75 127 75 1 -1 -1 -58 -4 -128z m-263 -153 l0 -115 39 0 c64 0 166 37 194 69
l24 29 7 -90 c8 -115 8 -188 0 -188 -10 0 -224 130 -352 213 l-112 73 93 61
c50 34 95 62 100 62 4 1 7 -51 7 -114z m180 75 c22 -11 47 -31 56 -45 15 -23
15 -27 0 -50 -21 -32 -84 -64 -143 -72 l-48 -6 20 23 c15 17 20 36 20 80 0 44
-5 63 -20 80 l-20 23 48 -6 c26 -4 65 -16 87 -27z"/>
</g>
</svg>
