<?xml version="1.0" standalone="no"?>
<!DOCTYPE svg PUBLIC "-//W3C//DTD SVG 20010904//EN"
 "http://www.w3.org/TR/2001/REC-SVG-20010904/DTD/svg10.dtd">
<svg version="1.0" xmlns="http://www.w3.org/2000/svg"
 width="213.000000pt" height="130.000000pt" viewBox="0 0 213.000000 130.000000"
 preserveAspectRatio="xMidYMid meet">
<metadata>
Created by potrace 1.16, written by Peter Selinger 2001-2019
</metadata>
<g transform="translate(0.000000,130.000000) scale(0.100000,-0.100000)"
fill="#000000" stroke="none">
<path d="M860 989 c0 -8 -61 -55 -135 -104 -74 -49 -135 -92 -135 -95 0 -3
-65 -4 -145 -2 -137 3 -145 2 -145 -16 0 -17 7 -19 93 -15 220 8 225 9 304 66
39 29 92 69 117 90 l45 39 448 8 c246 5 466 10 488 10 36 1 38 2 16 11 -13 5
-231 12 -488 16 -400 5 -463 4 -463 -8z"/>
<path d="M1160 854 c-64 -93 -100 -170 -100 -209 1 -45 40 -132 98 -216 29
-42 52 -80 52 -85 0 -5 -69 -6 -176 -2 l-177 8 -44 37 c-25 21 -77 61 -116 90
-79 57 -72 55 -304 67 -88 4 -93 4 -93 -15 0 -20 5 -20 145 -17 80 2 145 1
145 -2 0 -3 56 -43 125 -88 69 -46 131 -93 139 -104 15 -21 16 -21 474 -15
253 4 470 11 483 16 16 7 -70 10 -267 10 -225 1 -294 4 -302 14 -7 8 -9 62 -5
158 l6 146 256 7 c141 4 260 11 264 15 10 10 -199 21 -380 21 l-133 0 0 120
c0 113 -1 120 -20 120 -13 0 -36 -24 -70 -76z m50 -79 l0 -85 -35 0 c-28 0
-35 -4 -35 -20 0 -16 7 -20 35 -20 l35 0 0 -127 c0 -146 -1 -146 -67 -8 -43
91 -51 146 -30 198 16 37 85 147 93 147 2 0 4 -38 4 -85z"/>
</g>
</svg>
