<?xml version="1.0" standalone="no"?>
<!DOCTYPE svg PUBLIC "-//W3C//DTD SVG 20010904//EN"
 "http://www.w3.org/TR/2001/REC-SVG-20010904/DTD/svg10.dtd">
<svg version="1.0" xmlns="http://www.w3.org/2000/svg"
 width="213.000000pt" height="131.000000pt" viewBox="0 0 213.000000 131.000000"
 preserveAspectRatio="xMidYMid meet">
<metadata>
Created by potrace 1.16, written by Peter Selinger 2001-2019
</metadata>
<g transform="translate(0.000000,131.000000) scale(0.100000,-0.100000)"
fill="#000000" stroke="none">
<path d="M860 999 c0 -14 -98 -87 -207 -154 -35 -21 -63 -41 -63 -45 0 -4 -65
-5 -145 -2 -143 5 -145 4 -145 -17 0 -19 5 -21 53 -20 28 0 100 4 158 8 102 8
109 10 169 50 34 23 88 63 119 90 l56 48 148 7 148 6 73 -55 c41 -30 79 -61
85 -69 13 -16 13 -16 -86 -75 -76 -45 -123 -83 -123 -100 0 -28 68 -83 150
-123 49 -24 90 -46 90 -50 0 -4 -30 -42 -67 -84 l-68 -77 -155 8 c-85 4 -164
8 -175 9 -11 1 -51 27 -89 59 -37 31 -92 73 -122 92 -54 35 -54 35 -209 41
l-155 7 0 -23 0 -23 144 7 c79 4 146 3 148 -2 1 -4 21 -19 43 -32 93 -56 225
-154 225 -168 0 -13 46 -14 363 -8 424 7 607 16 607 27 0 5 -133 9 -295 9
l-296 0 94 93 c93 91 157 182 157 223 0 37 -78 140 -173 228 l-92 86 190 0
c105 0 242 3 305 7 195 12 67 21 -417 29 -378 6 -443 5 -443 -7z m576 -298
c14 -31 14 -36 -10 -85 -15 -28 -35 -62 -47 -75 l-20 -24 -47 22 c-74 36 -151
91 -157 112 -10 32 22 59 150 131 l50 27 33 -37 c18 -20 40 -52 48 -71z"/>
</g>
</svg>
