<?xml version="1.0" standalone="no"?>
<!DOCTYPE svg PUBLIC "-//W3C//DTD SVG 20010904//EN"
 "http://www.w3.org/TR/2001/REC-SVG-20010904/DTD/svg10.dtd">
<svg version="1.0" xmlns="http://www.w3.org/2000/svg"
 width="227.000000pt" height="133.000000pt" viewBox="0 0 227.000000 133.000000"
 preserveAspectRatio="xMidYMid meet">
<metadata>
Created by potrace 1.16, written by Peter Selinger 2001-2019
</metadata>
<g transform="translate(0.000000,133.000000) scale(0.100000,-0.100000)"
fill="#000000" stroke="none">
<path d="M863 1012 c-6 -15 -148 -117 -218 -157 -27 -16 -53 -33 -56 -38 -4
-6 -64 -6 -148 -2 l-141 7 0 -22 0 -23 156 6 156 5 66 45 c37 24 92 65 122 91
54 47 57 48 125 49 l70 2 65 -62 c36 -33 63 -63 60 -65 -3 -2 -40 -30 -82 -61
-43 -32 -85 -68 -94 -81 -29 -45 13 -95 139 -166 35 -19 54 -36 50 -43 -33
-59 -99 -136 -112 -132 -9 2 -50 5 -91 6 l-75 2 -65 56 c-74 64 -158 120 -188
126 -11 2 -84 7 -161 11 l-141 7 0 -23 0 -23 145 5 c79 3 146 2 147 -1 2 -3
62 -46 135 -94 72 -48 134 -94 137 -102 4 -11 22 -15 71 -15 42 0 64 -4 60
-10 -8 -12 8 -13 20 -1 6 5 133 11 284 15 259 5 273 5 260 -12 -13 -16 -12
-16 7 1 12 9 37 17 59 17 34 0 36 -2 24 -17 -12 -16 -11 -16 8 0 15 13 43 20
94 23 69 5 110 14 58 14 -20 0 -10 13 66 90 49 49 85 90 80 90 -6 0 -50 -41
-99 -91 -71 -72 -93 -89 -110 -85 -11 3 -25 6 -31 6 -5 0 51 62 125 137 l135
138 -140 -138 c-123 -120 -146 -138 -178 -141 -20 -2 -37 -1 -37 2 0 4 80 88
177 187 l178 180 -185 -183 c-167 -164 -190 -183 -223 -185 -20 -2 -37 -1 -37
2 0 3 98 105 217 226 l218 220 -226 -223 c-222 -220 -226 -223 -264 -220 l-38
3 247 239 c135 131 246 243 246 249 0 7 -114 -102 -253 -241 l-253 -252 -176
2 -177 3 59 70 c33 39 75 97 95 130 23 40 96 122 218 243 175 174 185 182 222
182 l40 0 -230 -232 -230 -233 235 233 235 232 58 0 c31 0 57 4 57 10 0 6 -35
10 -85 10 -59 0 -85 4 -85 12 0 9 -3 9 -12 0 -13 -13 -78 -17 -78 -4 0 4 -158
7 -351 7 -274 0 -353 -3 -356 -13z m474 -120 c-53 -53 -97 -102 -97 -107 0 -5
48 38 108 97 l107 107 79 0 79 0 -174 -175 -174 -174 -3 33 c-3 32 6 43 127
162 72 71 131 133 131 139 0 6 -60 -49 -133 -122 l-133 -133 -37 55 c-20 30
-66 88 -102 130 l-66 76 188 3 c103 1 190 3 193 5 2 1 -39 -42 -93 -96z m-149
-126 c21 -32 32 -60 32 -83 0 -37 -55 -153 -73 -153 -32 0 -177 121 -177 148
0 21 156 144 175 139 6 -2 25 -25 43 -51z"/>
<path d="M1530 723 l-255 -258 258 255 c239 237 262 260 254 260 -1 0 -117
-116 -257 -257z"/>
<path d="M1575 689 c-143 -141 -258 -259 -255 -263 3 -3 125 114 270 259 146
146 260 264 255 263 -6 -1 -127 -117 -270 -259z"/>
<path d="M1616 640 c-144 -143 -256 -260 -251 -260 6 0 127 117 270 260 143
143 256 260 251 260 -5 0 -127 -117 -270 -260z"/>
</g>
</svg>
