<?xml version="1.0" standalone="no"?>
<!DOCTYPE svg PUBLIC "-//W3C//DTD SVG 20010904//EN"
 "http://www.w3.org/TR/2001/REC-SVG-20010904/DTD/svg10.dtd">
<svg version="1.0" xmlns="http://www.w3.org/2000/svg"
 width="213.000000pt" height="130.000000pt" viewBox="0 0 213.000000 130.000000"
 preserveAspectRatio="xMidYMid meet">
<metadata>
Created by potrace 1.16, written by Peter Selinger 2001-2019
</metadata>
<g transform="translate(0.000000,130.000000) scale(0.100000,-0.100000)"
fill="#000000" stroke="none">
<path d="M853 982 c-7 -12 -68 -58 -135 -102 -68 -45 -124 -84 -125 -88 -2 -4
-68 -6 -148 -4 -137 3 -145 2 -145 -16 0 -17 7 -19 93 -15 220 8 225 9 304 66
39 29 92 69 117 90 l45 39 448 8 c246 5 466 10 488 10 36 1 38 2 16 11 -13 5
-229 12 -485 16 -460 6 -461 5 -473 -15z"/>
<path d="M1220 896 l0 -54 -54 -4 c-31 -3 -61 -11 -70 -21 -21 -20 -46 -79
-46 -107 0 -18 -6 -20 -70 -20 -56 0 -70 -3 -70 -15 0 -12 14 -15 65 -15 l64
0 7 -37 c4 -21 15 -56 26 -79 17 -39 23 -43 69 -53 27 -6 59 -11 69 -11 18 0
20 -8 21 -67 1 -50 3 -61 9 -43 4 14 8 44 9 66 l1 41 59 7 c36 4 64 13 74 24
16 19 35 79 39 127 3 29 6 30 58 36 40 4 45 6 20 8 -71 3 -80 9 -80 56 0 26
-6 50 -15 59 -17 16 -105 46 -137 46 -15 0 -18 8 -18 55 0 42 -3 55 -15 55
-11 0 -15 -13 -15 -54z m0 -146 l0 -60 -70 0 c-79 0 -81 3 -54 69 17 42 27 48
87 50 l37 1 0 -60z m158 33 c6 -9 12 -34 12 -55 l0 -38 -70 0 -70 0 0 61 0 62
58 -7 c35 -4 62 -13 70 -23z m-156 -198 c3 -74 3 -75 -22 -74 -14 0 -43 6 -65
13 -32 9 -42 18 -52 46 -7 19 -12 47 -12 63 l-1 27 74 0 74 0 4 -75z m174 48
c-2 -16 -8 -49 -11 -75 -6 -44 -9 -48 -33 -48 -15 0 -44 -3 -64 -6 l-38 -7 0
82 0 81 76 0 76 0 -6 -27z"/>
<path d="M300 529 c0 -20 5 -20 145 -17 80 2 145 1 145 -2 0 -3 56 -43 125
-88 69 -46 131 -93 139 -104 15 -21 16 -21 474 -15 253 4 470 11 483 16 16 7
-63 10 -246 10 -148 1 -369 6 -489 11 l-220 10 -44 38 c-24 20 -76 60 -115 89
-79 57 -72 55 -304 67 -88 4 -93 4 -93 -15z"/>
</g>
</svg>
