<?xml version="1.0" standalone="no"?>
<!DOCTYPE svg PUBLIC "-//W3C//DTD SVG 20010904//EN"
 "http://www.w3.org/TR/2001/REC-SVG-20010904/DTD/svg10.dtd">
<svg version="1.0" xmlns="http://www.w3.org/2000/svg"
 width="213.000000pt" height="130.000000pt" viewBox="0 0 213.000000 130.000000"
 preserveAspectRatio="xMidYMid meet">
<metadata>
Created by potrace 1.16, written by Peter Selinger 2001-2019
</metadata>
<g transform="translate(0.000000,130.000000) scale(0.100000,-0.100000)"
fill="#000000" stroke="none">
<path d="M853 982 c-7 -12 -68 -58 -135 -102 -68 -45 -124 -84 -125 -88 -2 -4
-68 -6 -148 -4 -137 3 -145 2 -145 -16 0 -17 7 -19 93 -15 220 8 225 9 304 66
39 29 91 69 115 89 l44 37 198 7 197 7 -6 -121 -7 -122 81 0 81 0 24 -47 24
-48 -62 0 c-88 0 -87 -19 1 -23 l72 -3 38 -67 c21 -37 44 -79 52 -94 14 -28
31 -37 31 -18 0 6 11 10 25 10 20 0 25 -5 26 -27 0 -27 0 -28 10 -5 5 13 12
93 15 178 4 85 11 154 16 154 5 0 6 5 3 10 -4 6 -85 10 -210 10 l-203 0 4 63
c3 34 7 81 10 105 l5 42 102 0 c56 0 180 3 276 7 296 11 160 23 -333 30 -460
6 -461 5 -473 -15z m777 -266 c0 -12 -18 -15 -95 -13 -149 3 -119 18 53 25 31
2 42 -2 42 -12z m0 -51 c0 -24 -2 -25 -62 -25 -76 0 -108 8 -108 26 0 10 21
14 78 17 42 1 80 4 85 5 4 1 7 -9 7 -23z m0 -65 c0 -18 -7 -20 -65 -20 -36 0
-65 2 -65 4 0 2 -3 11 -6 20 -5 14 4 16 65 16 64 0 71 -2 71 -20z m0 -60 c0
-17 -7 -20 -50 -20 -27 0 -50 2 -50 4 0 2 -3 11 -6 20 -5 13 3 16 50 16 49 0
56 -2 56 -20z m0 -65 c0 -22 -4 -25 -34 -25 -32 0 -46 13 -46 41 0 5 18 9 40
9 36 0 40 -2 40 -25z"/>
<path d="M1022 589 l3 -83 95 2 c52 2 102 5 111 8 12 3 19 22 24 70 4 36 5 68
2 70 -2 3 -57 7 -121 11 l-117 6 3 -84z m218 -5 l0 -56 -31 6 c-17 3 -62 6
-100 6 l-69 0 0 44 c0 26 5 46 13 49 6 3 51 6 100 6 l87 1 0 -56z"/>
<path d="M300 529 c0 -20 5 -20 145 -17 80 2 145 1 145 -2 0 -3 56 -43 125
-88 69 -46 131 -93 139 -104 15 -21 16 -21 474 -15 253 4 470 11 483 16 16 7
-63 10 -246 10 -148 1 -369 6 -489 11 l-220 10 -44 38 c-24 20 -76 60 -115 89
-79 57 -72 55 -304 67 -88 4 -93 4 -93 -15z"/>
</g>
</svg>
