<?xml version="1.0" standalone="no"?>
<!DOCTYPE svg PUBLIC "-//W3C//DTD SVG 20010904//EN"
 "http://www.w3.org/TR/2001/REC-SVG-20010904/DTD/svg10.dtd">
<svg version="1.0" xmlns="http://www.w3.org/2000/svg"
 width="209.000000pt" height="152.000000pt" viewBox="0 0 209.000000 152.000000"
 preserveAspectRatio="xMidYMid meet">
<metadata>
Created by potrace 1.16, written by Peter Selinger 2001-2019
</metadata>
<g transform="translate(0.000000,152.000000) scale(0.100000,-0.100000)"
fill="#000000" stroke="none">
<path d="M456 1135 l7 -85 -82 0 -81 0 0 -31 0 -32 79 6 78 6 8 -119 c4 -66
11 -120 16 -120 4 0 10 53 11 118 l3 117 31 3 c29 3 32 0 37 -35 4 -21 7 -73
7 -115 0 -122 17 -101 25 32 l8 120 38 0 39 0 0 -52 c0 -84 12 -188 21 -188 5
0 9 54 9 120 l0 120 34 0 33 0 7 -61 c3 -34 6 -88 6 -120 0 -33 4 -59 10 -59
6 0 10 26 10 59 0 32 3 86 6 120 7 59 8 61 35 61 l29 0 0 -82 c0 -46 3 -101 7
-123 6 -36 7 -38 14 -15 4 14 7 69 8 123 1 95 1 97 25 97 30 0 35 -20 37 -125
1 -110 14 -139 22 -50 4 39 7 94 7 123 l0 52 118 0 c64 1 145 3 180 6 l62 6 0
-66 c0 -36 -2 -66 -5 -66 -3 0 -36 23 -72 50 -37 28 -71 49 -77 47 -24 -8 -14
-29 30 -59 26 -18 58 -42 71 -53 l24 -20 -85 3 c-81 3 -86 2 -86 -17 0 -18 7
-20 82 -23 l82 -3 -67 -44 c-63 -41 -79 -62 -58 -76 6 -3 41 17 79 45 38 27
72 50 75 50 4 0 7 -31 7 -70 0 -38 -4 -70 -8 -70 -4 0 -70 -9 -147 -20 -77
-11 -155 -20 -172 -20 l-33 0 0 75 c0 68 -2 75 -20 75 -18 0 -20 -7 -20 -80 0
-79 0 -80 -25 -80 -25 0 -25 1 -25 80 0 73 -2 80 -20 80 -17 0 -19 -8 -22 -82
-3 -77 -5 -83 -25 -86 -22 -3 -23 -1 -23 82 0 79 -2 86 -20 86 -18 0 -20 -7
-20 -85 l0 -85 -35 0 -35 0 0 85 c0 80 -1 85 -21 85 -20 0 -21 -4 -18 -87 l4
-88 -37 -3 -38 -3 0 90 c0 84 -1 91 -20 91 -19 0 -20 -7 -20 -91 l0 -90 -32 3
-33 3 -3 88 c-3 80 -4 87 -23 87 -19 0 -20 -4 -13 -85 l7 -85 -29 -1 c-16 -1
-53 -1 -81 1 -53 2 -53 2 -53 -29 l0 -31 80 0 80 0 0 -42 c0 -75 13 -178 21
-178 5 0 9 50 9 110 l0 110 34 0 c41 0 46 -12 46 -127 0 -45 4 -84 9 -87 8 -6
21 95 21 172 l0 42 40 0 40 0 0 -49 c0 -78 12 -171 21 -165 5 3 9 52 9 110 l0
104 34 0 c33 0 33 -1 40 -53 3 -28 6 -75 6 -104 0 -28 5 -55 10 -58 6 -4 10
12 10 42 0 26 3 78 6 114 7 65 7 65 35 61 l29 -4 1 -87 c1 -47 5 -97 9 -111
10 -32 11 -27 19 100 6 97 8 105 27 108 28 4 34 -19 34 -130 0 -48 4 -89 9
-92 10 -7 21 75 21 162 l0 62 143 0 c230 0 597 13 597 20 0 4 -129 11 -287 15
l-288 8 95 16 c56 9 98 12 102 7 3 -5 14 -2 23 7 9 10 23 17 32 17 13 0 284
63 324 76 14 4 18 -11 24 -113 13 -210 24 -93 24 280 1 343 0 357 -18 357 -10
0 -21 -8 -23 -18 -4 -15 -35 -24 -184 -50 -193 -34 -402 -66 -501 -77 l-63 -7
0 76 c0 69 -2 76 -20 76 -17 0 -19 -8 -22 -77 -3 -72 -5 -78 -25 -81 -22 -3
-23 -1 -23 77 0 74 -2 81 -20 81 -18 0 -20 -7 -20 -80 0 -79 0 -80 -25 -80
-25 0 -25 1 -25 80 0 73 -2 80 -20 80 -18 0 -20 -7 -20 -85 l0 -85 -35 0 -35
0 0 85 c0 80 -1 85 -21 85 -21 0 -21 -4 -17 -85 l4 -85 -38 0 -38 0 0 85 c0
78 -2 85 -20 85 -18 0 -20 -7 -20 -85 l0 -85 -35 0 -35 0 0 85 c0 79 -1 85
-21 85 -19 0 -20 -4 -13 -85z m1294 -67 c0 -57 3 -160 6 -229 l7 -125 -187
-34 c-103 -18 -189 -31 -191 -29 -2 3 -1 39 2 81 l6 77 71 -48 c39 -26 81 -53
94 -60 42 -22 21 4 -44 54 l-65 50 43 7 c24 3 67 7 96 7 33 1 51 5 47 11 -3 6
-48 10 -101 10 -52 0 -94 3 -93 8 0 4 32 31 70 61 39 29 68 56 65 59 -3 3 -44
-20 -91 -51 -47 -32 -88 -57 -91 -57 -5 0 0 110 6 148 0 1 64 3 143 3 78 1
156 4 172 8 41 9 -150 21 -380 22 -99 1 -169 4 -155 6 82 14 426 86 485 102
39 11 73 20 78 20 4 1 7 -45 7 -101z"/>
</g>
</svg>
