<?xml version="1.0" standalone="no"?>
<!DOCTYPE svg PUBLIC "-//W3C//DTD SVG 20010904//EN"
 "http://www.w3.org/TR/2001/REC-SVG-20010904/DTD/svg10.dtd">
<svg version="1.0" xmlns="http://www.w3.org/2000/svg"
 width="143.000000pt" height="138.000000pt" viewBox="0 0 143.000000 138.000000"
 preserveAspectRatio="xMidYMid meet">
<metadata>
Created by potrace 1.16, written by Peter Selinger 2001-2019
</metadata>
<g transform="translate(0.000000,138.000000) scale(0.100000,-0.100000)"
fill="#000000" stroke="none">
<path d="M406 1058 c-29 -44 -75 -154 -91 -213 -33 -128 -12 -241 76 -417 52
-103 70 -132 78 -120 3 5 107 66 231 134 278 155 423 241 427 254 6 18 -646
384 -684 384 -13 0 -29 -10 -37 -22z m87 -50 c30 -16 37 -23 24 -26 -15 -3
-16 -15 -10 -133 l6 -129 -86 0 c-84 0 -87 1 -87 23 0 63 80 287 102 287 5 0
28 -10 51 -22z m313 -159 c143 -73 260 -132 261 -133 1 0 -114 0 -255 2 -141
2 -257 4 -258 5 -3 3 -10 257 -8 257 1 0 118 -59 260 -131z m29 -289 c-153
-77 -280 -140 -282 -140 -1 0 -3 58 -3 130 l0 130 93 1 c50 1 160 5 242 9 83
3 168 7 189 8 33 2 -7 -21 -239 -138z m-311 23 c4 -54 9 -116 12 -138 5 -40 5
-41 -41 -63 -26 -13 -49 -22 -50 -20 -2 2 -17 37 -33 78 -37 94 -62 180 -62
214 0 26 0 26 84 26 l83 0 7 -97z"/>
</g>
</svg>
