<?xml version="1.0" standalone="no"?>
<!DOCTYPE svg PUBLIC "-//W3C//DTD SVG 20010904//EN"
 "http://www.w3.org/TR/2001/REC-SVG-20010904/DTD/svg10.dtd">
<svg version="1.0" xmlns="http://www.w3.org/2000/svg"
 width="143.000000pt" height="138.000000pt" viewBox="0 0 143.000000 138.000000"
 preserveAspectRatio="xMidYMid meet">
<metadata>
Created by potrace 1.16, written by Peter Selinger 2001-2019
</metadata>
<g transform="translate(0.000000,138.000000) scale(0.100000,-0.100000)"
fill="#000000" stroke="none">
<path d="M372 993 c-102 -219 -98 -332 24 -576 52 -103 65 -122 73 -109 3 5
107 66 231 135 276 153 423 240 427 253 6 19 -646 384 -688 384 -23 0 -31 -11
-67 -87z m121 15 c30 -16 37 -23 25 -26 -21 -4 -21 7 -8 -202 16 -252 18 -286
25 -333 l7 -42 -47 -23 c-26 -13 -49 -21 -51 -19 -2 2 -22 51 -43 108 -65 172
-74 278 -35 396 25 75 66 163 76 163 5 0 28 -10 51 -22z m172 -88 l110 -60
-112 0 -113 0 0 29 c0 16 -3 43 -6 60 -4 17 -3 31 2 31 5 0 59 -27 119 -60z
m390 -253 l-56 -28 -224 7 -225 7 0 27 c0 26 3 27 61 34 34 3 125 7 203 7 144
1 250 14 156 19 -25 1 -49 3 -55 5 -5 1 -90 3 -187 3 l-178 2 0 34 0 34 118 7
c64 3 126 7 137 8 11 2 84 -29 163 -67 l142 -71 -55 -28z m-165 -77 l-75 -39
-132 -1 -133 0 0 30 c0 29 1 30 53 31 48 1 313 14 347 17 8 0 -19 -17 -60 -38z
m-230 -120 c-52 -27 -98 -49 -102 -49 -14 -1 -9 87 5 92 6 3 53 6 102 6 l90 0
-95 -49z"/>
</g>
</svg>
