<?xml version="1.0" standalone="no"?>
<!DOCTYPE svg PUBLIC "-//W3C//DTD SVG 20010904//EN"
 "http://www.w3.org/TR/2001/REC-SVG-20010904/DTD/svg10.dtd">
<svg version="1.0" xmlns="http://www.w3.org/2000/svg"
 width="155.000000pt" height="202.000000pt" viewBox="0 0 155.000000 202.000000"
 preserveAspectRatio="xMidYMid meet">
<metadata>
Created by potrace 1.16, written by Peter Selinger 2001-2019
</metadata>
<g transform="translate(0.000000,202.000000) scale(0.100000,-0.100000)"
fill="#000000" stroke="none">
<path d="M803 1654 c-43 -37 -80 -70 -81 -75 -2 -6 14 -40 36 -77 116 -196
177 -376 155 -453 l-8 -27 -95 55 c-215 125 -386 214 -404 211 -24 -4 -50 -47
-82 -136 -40 -114 -28 -205 48 -356 38 -77 48 -89 62 -77 6 5 92 54 192 109
100 55 200 112 222 126 23 14 44 26 46 26 7 0 -29 -101 -53 -149 -13 -24 -39
-71 -60 -104 -40 -66 -40 -67 -6 -139 l23 -48 -23 -72 c-40 -131 -40 -126 2
-137 119 -32 179 -39 168 -21 -4 6 16 41 43 78 168 228 262 433 262 573 0 86
-38 204 -119 364 -77 152 -225 395 -241 395 -5 0 -44 -30 -87 -66z m148 -106
c95 -146 188 -324 225 -434 69 -202 4 -426 -212 -730 l-44 -62 -70 22 c-38 12
-72 25 -75 27 -2 3 9 38 26 78 l31 73 -26 73 c-14 40 -26 77 -26 83 0 5 27 53
59 106 105 172 135 284 106 396 -17 69 -101 252 -153 335 l-31 49 47 52 c26
29 51 52 55 53 4 1 44 -54 88 -121z m-491 -318 c43 -22 43 -22 55 -225 3 -55
8 -120 11 -145 l6 -45 -57 -28 c-32 -16 -62 -24 -66 -20 -14 14 -60 154 -69
208 -5 28 -4 73 1 100 10 59 57 175 71 175 5 0 26 -9 48 -20z m438 -225 c1 -1
-75 -41 -170 -88 -95 -46 -174 -84 -175 -83 -1 0 -5 80 -9 177 l-7 177 179
-91 c99 -49 180 -91 182 -92z"/>
</g>
</svg>
