<?xml version="1.0" standalone="no"?>
<!DOCTYPE svg PUBLIC "-//W3C//DTD SVG 20010904//EN"
 "http://www.w3.org/TR/2001/REC-SVG-20010904/DTD/svg10.dtd">
<svg version="1.0" xmlns="http://www.w3.org/2000/svg"
 width="115.000000pt" height="210.000000pt" viewBox="0 0 115.000000 210.000000"
 preserveAspectRatio="xMidYMid meet">
<metadata>
Created by potrace 1.16, written by Peter Selinger 2001-2019
</metadata>
<g transform="translate(0.000000,210.000000) scale(0.100000,-0.100000)"
fill="#000000" stroke="none">
<path d="M550 1627 l0 -174 -66 -98 c-83 -122 -176 -275 -168 -275 4 0 1 -6
-5 -14 -9 -11 5 -36 70 -123 45 -59 101 -131 125 -160 l44 -51 1 -189 c2 -321
24 -331 35 -17 l7 196 47 57 c26 31 84 105 129 165 65 86 79 111 70 122 -6 8
-9 14 -5 14 7 0 -92 162 -175 287 -30 45 -59 80 -66 78 -9 -3 -10 39 -6 176 6
178 6 179 -15 179 -22 0 -22 -3 -22 -173z m94 -315 c30 -42 81 -111 114 -152
l59 -74 -67 -96 c-37 -52 -91 -132 -120 -178 -29 -46 -55 -81 -57 -78 -17 17
-152 231 -148 235 4 3 154 17 223 20 7 1 10 6 7 11 -4 6 -61 10 -138 10 l-132
1 -26 37 -26 38 60 75 c32 41 82 107 110 147 35 49 53 68 59 60 5 -9 8 -5 8
10 0 32 11 22 74 -66z"/>
<path d="M390 1129 c0 -22 2 -22 127 -15 70 4 132 10 137 14 15 10 -72 20
-176 21 -84 1 -88 0 -88 -20z"/>
</g>
</svg>
