<?xml version="1.0" standalone="no"?>
<!DOCTYPE svg PUBLIC "-//W3C//DTD SVG 20010904//EN"
 "http://www.w3.org/TR/2001/REC-SVG-20010904/DTD/svg10.dtd">
<svg version="1.0" xmlns="http://www.w3.org/2000/svg"
 width="210.000000pt" height="177.000000pt" viewBox="0 0 210.000000 177.000000"
 preserveAspectRatio="xMidYMid meet">
<metadata>
Created by potrace 1.16, written by Peter Selinger 2001-2019
</metadata>
<g transform="translate(0.000000,177.000000) scale(0.100000,-0.100000)"
fill="#000000" stroke="none">
<path d="M1036 1463 c-3 -4 -12 -8 -19 -9 -16 -2 -120 -66 -263 -160 l-111
-74 -171 7 -172 6 0 -28 0 -28 181 7 c125 6 179 5 175 -3 -10 -15 334 -241
368 -241 8 0 16 -4 18 -9 3 -10 182 120 284 205 l49 41 165 7 c184 8 260 15
260 26 0 7 -228 20 -362 20 -75 0 -77 1 -130 43 -69 56 -256 197 -261 197 -2
0 -7 -3 -11 -7z m54 -209 c0 -83 4 -134 10 -134 6 0 10 3 11 8 0 4 4 53 8 109
4 57 10 105 13 108 3 4 59 -29 124 -71 100 -67 115 -79 99 -88 -16 -10 -302
-200 -329 -220 -9 -6 -36 10 -87 51 -42 32 -113 86 -160 118 -67 48 -80 61
-62 63 12 2 20 9 17 15 -2 7 17 27 43 44 27 18 90 66 142 107 l95 74 38 -25
38 -26 0 -133z"/>
<path d="M953 1254 c4 -115 9 -145 21 -133 3 2 8 62 12 132 l7 127 -23 0 -23
0 6 -126z"/>
<path d="M1040 841 c0 -6 -7 -11 -15 -11 -16 0 -155 -82 -285 -170 l-89 -60
-176 0 -175 0 0 -23 c0 -22 3 -23 53 -21 167 10 305 10 301 0 -2 -6 33 -36 79
-65 137 -92 269 -173 281 -175 6 -1 17 -5 23 -9 11 -7 59 27 304 214 l47 36
202 6 c111 3 205 8 208 11 15 16 -24 20 -221 24 l-212 5 -90 71 c-49 39 -106
83 -125 97 -19 14 -52 38 -72 53 -21 16 -38 23 -38 17z m16 -57 l34 -26 0
-129 c0 -70 4 -130 9 -133 9 -6 21 64 21 129 0 23 3 56 6 72 l6 30 114 -73
c63 -40 115 -76 115 -81 0 -4 -45 -37 -100 -73 -56 -36 -134 -88 -175 -117
l-73 -51 -60 48 c-33 27 -104 80 -156 118 -85 61 -94 71 -74 77 13 4 17 8 9
12 -7 2 35 39 95 83 60 43 124 92 143 109 19 16 39 30 43 31 5 0 24 -12 43
-26z"/>
<path d="M957 753 c-9 -8 -8 -151 1 -218 11 -76 20 -42 28 98 6 109 5 127 -8
127 -8 0 -18 -3 -21 -7z"/>
</g>
</svg>
