<?xml version="1.0" standalone="no"?>
<!DOCTYPE svg PUBLIC "-//W3C//DTD SVG 20010904//EN"
 "http://www.w3.org/TR/2001/REC-SVG-20010904/DTD/svg10.dtd">
<svg version="1.0" xmlns="http://www.w3.org/2000/svg"
 width="229.000000pt" height="152.000000pt" viewBox="0 0 229.000000 152.000000"
 preserveAspectRatio="xMidYMid meet">
<metadata>
Created by potrace 1.16, written by Peter Selinger 2001-2019
</metadata>
<g transform="translate(0.000000,152.000000) scale(0.100000,-0.100000)"
fill="#000000" stroke="none">
<path d="M1703 1203 c7 -22 13 -49 21 -85 6 -25 3 -27 -47 -38 -98 -21 -522
-89 -600 -96 l-77 -7 0 77 c0 69 -2 76 -20 76 -18 0 -20 -7 -20 -80 0 -79 0
-80 -25 -80 -25 0 -25 1 -25 80 0 73 -2 80 -20 80 -17 0 -19 -8 -22 -82 -3
-77 -5 -83 -25 -86 -22 -3 -23 -1 -23 82 0 79 -2 86 -20 86 -18 0 -20 -7 -20
-85 l0 -85 -35 0 -35 0 0 85 c0 80 -1 85 -21 85 -20 0 -21 -4 -18 -87 l4 -88
-37 -3 -38 -3 0 90 c0 84 -1 91 -20 91 -19 0 -20 -7 -20 -91 l0 -90 -32 3 -33
3 -3 88 c-3 79 -5 87 -22 87 -19 0 -20 -5 -14 -85 l7 -85 -82 0 -81 0 0 -30 0
-30 79 0 79 0 7 -120 c4 -66 11 -117 16 -114 5 3 9 57 9 120 l0 114 34 0 c30
0 34 -4 40 -31 3 -17 6 -66 6 -108 0 -128 17 -117 25 17 l8 122 38 0 39 0 0
-43 c0 -82 13 -196 21 -191 5 3 9 56 9 118 l0 114 33 5 c17 2 33 3 35 2 2 -2
6 -56 9 -119 6 -121 23 -171 23 -69 0 32 3 89 7 126 6 66 7 68 32 65 24 -3 26
-7 28 -63 2 -33 6 -89 10 -125 5 -55 8 -60 14 -35 3 17 7 74 8 128 1 95 1 97
25 97 30 0 35 -19 37 -125 2 -116 13 -148 22 -60 4 39 7 96 7 128 l0 57 108 0
c60 0 225 3 367 7 l258 6 -7 -69 c-4 -38 -14 -82 -22 -99 -31 -61 -28 -103 17
-286 24 -96 45 -166 47 -157 2 9 -8 81 -22 161 -32 178 -32 190 0 324 44 180
30 413 -25 421 -18 3 -22 0 -18 -15z m31 -155 c3 -13 6 -43 6 -67 l0 -44 -212
6 c-116 4 -248 7 -292 8 l-81 1 135 24 c74 13 198 39 275 58 172 41 161 41
169 14z"/>
<path d="M1920 1213 c1 -5 7 -37 15 -73 25 -114 13 -372 -18 -392 -6 -4 -13
-35 -15 -70 -3 -49 5 -96 33 -208 42 -169 44 -175 51 -167 3 3 -6 70 -20 149
-31 174 -32 228 -6 333 36 141 37 304 4 418 -5 16 -44 25 -44 10z"/>
</g>
</svg>
