<?xml version="1.0" standalone="no"?>
<!DOCTYPE svg PUBLIC "-//W3C//DTD SVG 20010904//EN"
 "http://www.w3.org/TR/2001/REC-SVG-20010904/DTD/svg10.dtd">
<svg version="1.0" xmlns="http://www.w3.org/2000/svg"
 width="135.000000pt" height="85.000000pt" viewBox="0 0 135.000000 85.000000"
 preserveAspectRatio="xMidYMid meet">
<metadata>
Created by potrace 1.16, written by Peter Selinger 2001-2019
</metadata>
<g transform="translate(0.000000,85.000000) scale(0.100000,-0.100000)"
fill="#000000" stroke="none">
<path d="M443 530 c-29 -18 -63 -65 -63 -89 0 -5 17 -12 38 -14 20 -2 3 -4
-38 -3 -66 1 -75 -1 -78 -18 -4 -17 1 -18 59 -13 35 3 54 3 42 0 -29 -6 -29
-12 0 -54 l23 -34 89 0 89 0 23 34 c81 120 -61 267 -184 191z m137 -110 c-36
-12 -60 -12 -60 0 0 6 19 10 43 9 36 -1 38 -2 17 -9z"/>
<path d="M843 530 c-29 -18 -63 -65 -63 -89 0 -5 17 -12 38 -14 20 -3 2 -3
-40 -1 -74 4 -78 3 -78 -17 0 -20 4 -21 63 -16 34 3 52 3 40 1 -29 -7 -29 -13
0 -55 l23 -34 89 0 89 0 23 34 c81 120 -61 267 -184 191z m137 -110 c-36 -12
-60 -12 -60 0 0 6 19 10 43 9 36 -1 38 -2 17 -9z"/>
</g>
</svg>
