<?xml version="1.0" standalone="no"?>
<!DOCTYPE svg PUBLIC "-//W3C//DTD SVG 20010904//EN"
 "http://www.w3.org/TR/2001/REC-SVG-20010904/DTD/svg10.dtd">
<svg version="1.0" xmlns="http://www.w3.org/2000/svg"
 width="194.000000pt" height="154.000000pt" viewBox="0 0 194.000000 154.000000"
 preserveAspectRatio="xMidYMid meet">
<metadata>
Created by potrace 1.16, written by Peter Selinger 2001-2019
</metadata>
<g transform="translate(0.000000,154.000000) scale(0.100000,-0.100000)"
fill="#000000" stroke="none">
<path d="M893 1224 c-3 -8 -4 -16 -2 -18 2 -1 58 -25 124 -52 l120 -49 -93 -3
-93 -3 -122 61 c-124 60 -157 71 -157 48 0 -7 44 -31 98 -52 124 -50 133 -59
55 -54 -34 1 -64 0 -67 -3 -3 -3 -68 25 -143 63 -130 63 -139 66 -154 50 -14
-15 -15 -32 -9 -127 4 -63 4 -111 -1 -113 -14 -6 -10 -32 5 -38 8 -3 21 -1 28
5 7 6 60 34 117 62 57 27 114 57 126 67 17 14 38 16 104 14 46 -2 79 -7 75
-11 -5 -5 -64 -30 -131 -57 -110 -44 -139 -63 -115 -78 9 -5 220 94 260 122
26 19 48 20 344 24 l316 3 6 -185 c3 -102 9 -248 12 -324 l6 -139 -38 6 c-22
4 -85 7 -141 7 l-103 0 0 35 0 35 68 0 c37 0 91 3 120 7 85 10 40 23 -81 23
l-108 0 3 33 3 32 118 3 c67 1 117 7 117 12 0 6 -20 10 -43 10 -24 0 -78 3
-120 6 -76 7 -77 7 -77 35 l0 29 120 0 c66 0 120 4 120 9 0 5 -54 12 -120 16
l-120 8 0 33 0 34 74 0 c40 0 95 3 122 7 75 10 27 21 -93 22 l-103 1 0 90 0
89 33 17 c17 10 27 19 20 21 -7 2 -20 0 -31 -6 -13 -7 -22 -7 -30 1 -12 12
-32 2 -32 -16 0 -7 -43 -30 -95 -51 -53 -22 -94 -44 -92 -49 7 -18 44 -8 117
28 l68 35 6 -82 c11 -166 12 -387 2 -388 -6 0 -103 -10 -216 -23 -113 -13
-208 -21 -212 -19 -5 2 -8 22 -8 44 0 28 -4 39 -15 39 -11 0 -15 -12 -15 -44
0 -31 -5 -46 -16 -50 -37 -14 -44 -7 -44 44 0 38 -4 50 -15 50 -11 0 -15 -12
-15 -49 0 -35 -4 -51 -16 -55 -30 -12 -34 -6 -34 49 0 42 -3 55 -15 55 -11 0
-15 -13 -15 -54 0 -40 -4 -55 -16 -60 -30 -12 -34 -6 -34 54 0 47 -3 60 -15
60 -12 0 -15 -13 -15 -59 0 -55 -8 -71 -36 -71 -2 0 -4 29 -4 65 0 57 -2 65
-19 65 -17 0 -18 -6 -13 -65 4 -61 3 -65 -17 -65 -19 0 -21 5 -21 65 0 51 -3
65 -15 65 -12 0 -15 -14 -15 -66 l0 -67 -65 6 c-60 6 -65 5 -65 -13 0 -17 9
-19 67 -22 l68 -3 3 -53 c4 -69 22 -67 22 3 0 47 3 55 19 55 19 0 31 -34 31
-86 0 -13 5 -24 10 -24 6 0 10 25 10 55 0 52 1 55 25 55 23 0 25 -4 25 -42 0
-24 5 -50 10 -58 7 -11 10 2 10 43 0 57 0 57 30 57 29 0 30 -1 30 -49 0 -28 5
-53 10 -56 6 -4 10 15 10 50 0 56 0 56 28 53 25 -3 27 -7 30 -55 4 -70 22 -68
22 2 l0 55 35 0 c34 0 35 -1 36 -37 0 -21 4 -47 9 -58 6 -14 9 -4 9 36 l1 56
113 7 c61 3 230 6 375 6 253 -1 262 -2 262 -20 0 -11 5 -20 10 -20 6 0 10 9
10 19 0 11 6 22 13 25 10 5 10 7 0 12 -10 4 -13 80 -13 329 l0 323 -31 6 c-17
3 -63 6 -100 6 -66 0 -77 4 -213 71 -129 64 -166 75 -166 50 0 -4 59 -32 132
-62 l132 -54 -97 -3 c-88 -2 -101 0 -140 22 -23 14 -86 45 -140 70 -81 38 -99
43 -104 30z m-179 -133 c15 -6 -1 -16 -70 -44 -49 -19 -106 -43 -126 -51 l-38
-16 0 104 0 105 108 -46 c59 -25 116 -48 126 -52z m586 -616 l0 -35 -222 1
c-123 0 -217 3 -211 6 16 6 370 60 406 62 24 1 27 -2 27 -34z"/>
<path d="M1008 1012 c-124 -51 -154 -71 -130 -86 10 -6 267 117 276 133 11 17
2 14 -146 -47z"/>
</g>
</svg>
