<?xml version="1.0" standalone="no"?>
<!DOCTYPE svg PUBLIC "-//W3C//DTD SVG 20010904//EN"
 "http://www.w3.org/TR/2001/REC-SVG-20010904/DTD/svg10.dtd">
<svg version="1.0" xmlns="http://www.w3.org/2000/svg"
 width="177.000000pt" height="155.000000pt" viewBox="0 0 177.000000 155.000000"
 preserveAspectRatio="xMidYMid meet">
<metadata>
Created by potrace 1.16, written by Peter Selinger 2001-2019
</metadata>
<g transform="translate(0.000000,155.000000) scale(0.100000,-0.100000)"
fill="#000000" stroke="none">
<path d="M397 1243 c-15 -15 -1 -353 15 -353 4 0 8 17 8 39 0 21 3 53 6 70 6
26 11 31 35 31 28 0 29 -2 30 -47 1 -27 5 -61 9 -78 l7 -30 6 25 c4 14 8 50 9
80 l3 55 44 3 c55 4 61 -5 61 -85 0 -86 16 -80 23 8 3 39 8 73 10 75 6 6 357
-63 487 -96 132 -33 256 -74 276 -91 10 -8 14 -41 14 -124 l0 -112 -82 -6
c-46 -4 -109 -7 -142 -7 -56 0 -62 2 -125 54 -83 67 -151 116 -163 116 -29 0
5 -36 92 -97 100 -70 100 -70 69 -77 -17 -3 -54 -6 -82 -6 -44 0 -56 5 -101
43 -98 83 -145 112 -159 98 -9 -10 -9 -14 3 -21 8 -5 51 -34 95 -64 l79 -56
-77 0 -77 0 -92 70 c-51 39 -97 69 -102 67 -25 -8 -9 -26 66 -77 l81 -55 -92
-3 -92 -3 -47 39 c-125 103 -170 132 -181 118 -8 -10 15 -30 104 -92 63 -43
114 -86 114 -94 0 -8 -50 -46 -114 -85 -63 -38 -115 -73 -115 -77 0 -25 33
-13 106 38 135 93 121 88 204 78 l73 -9 -76 -59 c-43 -32 -77 -62 -77 -66 0
-26 27 -13 105 51 l86 71 66 -8 65 -9 -81 -60 c-82 -61 -89 -69 -71 -80 12 -7
54 22 132 92 43 38 54 43 96 42 26 0 65 -3 86 -7 l39 -7 -84 -64 c-46 -36 -86
-66 -88 -68 -3 -2 1 -9 7 -15 12 -12 16 -8 164 112 41 34 46 36 111 32 37 -2
67 -7 67 -11 0 -4 -35 -34 -77 -66 -43 -31 -78 -62 -78 -68 0 -26 28 -12 111
58 l89 76 83 -6 c54 -4 82 -3 82 4 0 6 -21 11 -47 12 -61 1 -102 12 -85 23 6
4 12 12 12 17 0 6 -12 1 -28 -9 -15 -11 -38 -18 -52 -16 -14 2 -46 6 -72 9
-37 5 -46 9 -41 22 5 14 4 14 -18 0 -20 -12 -39 -13 -103 -6 -44 5 -81 10 -82
12 -1 1 3 10 11 20 11 15 50 21 254 39 132 12 243 19 246 16 3 -3 9 -39 12
-79 12 -139 21 -32 22 269 1 271 0 292 -16 293 -10 1 -192 1 -405 -1 l-388 -2
0 91 c0 84 -1 91 -20 91 -19 0 -20 -7 -20 -90 l0 -90 -29 0 c-16 0 -36 -3 -45
-6 -14 -5 -16 5 -16 79 0 81 -6 97 -35 97 -3 0 -6 -39 -7 -87 -3 -88 -3 -88
-30 -91 l-28 -3 0 95 c0 73 -3 96 -13 96 -8 0 -17 -3 -20 -7z m1035 -275 c2
-51 2 -95 1 -97 -2 -2 -29 8 -60 22 -80 36 -242 82 -408 117 l-140 29 75 2
c41 1 143 5 225 9 83 3 185 7 227 8 l77 2 3 -92z m-709 -425 c-7 -2 -19 -2
-25 0 -7 3 -2 5 12 5 14 0 19 -2 13 -5z m78 -3 c13 -7 19 -7 19 0 0 6 24 10
58 10 52 -1 55 -2 38 -15 -29 -22 -174 -16 -160 6 7 12 21 11 45 -1z"/>
</g>
</svg>
