<?xml version="1.0" standalone="no"?>
<!DOCTYPE svg PUBLIC "-//W3C//DTD SVG 20010904//EN"
 "http://www.w3.org/TR/2001/REC-SVG-20010904/DTD/svg10.dtd">
<svg version="1.0" xmlns="http://www.w3.org/2000/svg"
 width="177.000000pt" height="152.000000pt" viewBox="0 0 177.000000 152.000000"
 preserveAspectRatio="xMidYMid meet">
<metadata>
Created by potrace 1.16, written by Peter Selinger 2001-2019
</metadata>
<g transform="translate(0.000000,152.000000) scale(0.100000,-0.100000)"
fill="#000000" stroke="none">
<path d="M420 1150 l0 -69 -57 -3 c-46 -2 -59 -7 -61 -20 -3 -16 5 -18 56 -18
59 0 60 0 66 -31 3 -17 6 -61 6 -98 0 -115 17 -104 25 17 7 108 8 112 31 112
21 0 23 -5 30 -90 3 -49 10 -90 15 -90 5 0 9 41 9 90 l0 90 29 0 c33 0 41 -23
41 -121 0 -33 4 -59 10 -59 6 0 10 37 10 90 l0 90 30 0 30 0 1 -67 c1 -38 4
-79 8 -93 6 -21 8 -18 14 24 4 27 7 68 7 92 l0 44 200 0 200 0 0 -42 c0 -51 9
-227 15 -314 4 -57 2 -63 -25 -89 -28 -27 -31 -27 -104 -20 -71 6 -75 8 -66
26 14 25 -2 24 -25 -1 -15 -16 -31 -20 -88 -20 -61 0 -68 2 -57 15 7 8 8 15 2
15 -5 0 -15 -7 -22 -15 -8 -10 -30 -15 -63 -15 -40 0 -48 3 -39 12 22 22 12
32 -11 10 -21 -20 -34 -22 -145 -22 -66 0 -123 -3 -125 -8 -6 -10 11 -263 18
-270 8 -8 75 60 152 151 63 75 66 77 110 77 l45 0 -63 -66 c-35 -36 -64 -70
-64 -76 0 -28 25 -10 89 63 l70 79 65 0 65 0 -64 -65 c-48 -49 -61 -68 -53
-76 9 -9 25 3 65 47 100 111 88 104 175 104 l77 0 -68 -69 c-50 -51 -67 -74
-62 -87 6 -16 8 -16 26 1 11 10 46 49 77 87 l57 68 70 0 70 0 -59 -60 c-48
-48 -57 -62 -46 -72 10 -11 19 -5 48 27 114 127 96 115 175 115 82 0 83 12 1
20 l-55 5 22 28 c33 41 19 42 -20 2 -29 -30 -40 -35 -82 -35 l-48 0 0 40 c0
38 1 40 33 41 17 1 39 2 47 3 8 2 45 3 83 4 37 1 67 6 67 12 0 6 -45 10 -115
10 l-115 0 0 40 0 40 103 0 c116 0 158 13 75 23 -29 4 -81 7 -115 7 l-63 0 0
30 0 30 93 1 c50 1 103 4 117 8 24 7 24 7 -9 14 -18 4 -71 7 -117 7 l-84 0 0
29 0 29 115 7 c63 4 115 11 115 16 0 5 -52 9 -116 9 l-115 0 3 38 3 37 133 3
132 3 0 -27 c0 -149 24 -671 31 -679 6 -6 8 132 7 355 -2 283 -6 365 -15 366
-7 1 -175 2 -373 3 l-360 1 0 65 c0 59 -2 65 -21 65 -19 0 -21 -5 -17 -62 3
-61 2 -63 -22 -63 -24 0 -25 3 -28 63 -2 46 -7 62 -17 62 -12 0 -15 -15 -15
-65 l0 -65 -30 0 -30 0 0 65 c0 51 -3 65 -15 65 -12 0 -15 -14 -15 -65 0 -63
-1 -65 -25 -65 -24 0 -25 2 -25 75 0 68 -2 75 -20 75 -18 0 -20 -7 -20 -70z
m720 -565 c0 -8 -7 -15 -16 -15 -14 0 -14 3 -4 15 7 8 14 15 16 15 2 0 4 -7 4
-15z m-651 -145 c-45 -49 -84 -90 -86 -90 -2 0 -3 41 -3 90 l0 90 86 0 85 0
-82 -90z"/>
</g>
</svg>
