<?xml version="1.0" standalone="no"?>
<!DOCTYPE svg PUBLIC "-//W3C//DTD SVG 20010904//EN"
 "http://www.w3.org/TR/2001/REC-SVG-20010904/DTD/svg10.dtd">
<svg version="1.0" xmlns="http://www.w3.org/2000/svg"
 width="210.000000pt" height="156.000000pt" viewBox="0 0 210.000000 156.000000"
 preserveAspectRatio="xMidYMid meet">
<metadata>
Created by potrace 1.16, written by Peter Selinger 2001-2019
</metadata>
<g transform="translate(0.000000,156.000000) scale(0.100000,-0.100000)"
fill="#000000" stroke="none">
<path d="M1427 1253 c-4 -3 -7 -82 -7 -175 0 -92 -1 -168 -3 -168 -2 0 -80
-11 -173 -25 -93 -14 -186 -25 -206 -25 l-38 0 0 75 c0 68 -2 75 -20 75 -18 0
-20 -7 -20 -80 0 -79 0 -80 -25 -80 -25 0 -25 1 -25 80 0 74 -1 80 -21 80 -20
0 -21 -5 -18 -82 l4 -83 -28 -3 -27 -3 0 85 c0 79 -2 86 -20 86 -18 0 -20 -7
-20 -85 l0 -85 -35 0 -35 0 0 86 c0 76 -2 85 -17 82 -16 -3 -18 -14 -14 -91
l3 -87 -41 0 -41 0 0 90 c0 83 -1 90 -20 90 -19 0 -20 -7 -20 -91 l0 -90 -33
3 -32 3 -3 88 c-2 75 -5 88 -19 85 -13 -2 -16 -17 -14 -89 l2 -86 -80 5 -81 5
0 -32 0 -31 79 0 79 0 7 -107 c9 -153 20 -159 23 -15 l3 123 37 -3 37 -3 6
-105 c4 -58 8 -112 9 -120 5 -25 18 90 19 163 l1 67 39 0 39 0 7 -120 c4 -66
11 -120 16 -120 5 0 9 54 9 120 l0 120 34 0 c30 0 34 -4 40 -31 3 -17 6 -66 6
-108 0 -127 17 -116 25 18 l7 121 29 0 c28 0 29 -1 29 -52 0 -86 12 -188 21
-182 5 3 9 56 9 118 0 108 1 114 22 119 33 9 38 1 38 -71 0 -37 3 -92 7 -122
6 -49 8 -52 14 -25 4 17 7 74 8 128 l1 97 209 0 210 0 5 -52 c3 -29 8 -138 10
-243 l4 -190 174 0 173 0 6 165 c3 91 7 303 8 471 l1 306 -92 7 c-118 8 -273
8 -281 -1z m323 -153 l0 -131 -137 3 -138 3 -3 122 -3 122 108 4 c59 1 123 4
141 5 l32 2 0 -130z m7 -497 c-3 -2 -71 -1 -152 2 -121 7 -145 10 -141 22 4 8
6 50 6 94 l0 79 135 0 c83 0 135 4 135 10 0 6 -52 10 -135 10 l-135 0 0 34 0
34 113 26 c61 14 123 26 137 28 l25 3 8 -168 c5 -93 6 -171 4 -174z m-260 321
c-3 -3 -12 -4 -19 -1 -8 3 -5 6 6 6 11 1 17 -2 13 -5z m-77 -71 l0 -28 -122 4
-123 3 115 23 c63 12 118 23 123 24 4 0 7 -11 7 -26z m344 -399 c4 -69 6 -127
4 -129 -2 -2 -72 -1 -155 2 l-153 6 0 112 0 113 133 9 c72 6 139 11 148 11 14
2 17 -17 23 -124z"/>
</g>
</svg>
