<?xml version="1.0" standalone="no"?>
<!DOCTYPE svg PUBLIC "-//W3C//DTD SVG 20010904//EN"
 "http://www.w3.org/TR/2001/REC-SVG-20010904/DTD/svg10.dtd">
<svg version="1.0" xmlns="http://www.w3.org/2000/svg"
 width="150.000000pt" height="167.000000pt" viewBox="0 0 150.000000 167.000000"
 preserveAspectRatio="xMidYMid meet">
<metadata>
Created by potrace 1.16, written by Peter Selinger 2001-2019
</metadata>
<g transform="translate(0.000000,167.000000) scale(0.100000,-0.100000)"
fill="#000000" stroke="none">
<path d="M721 1289 c-292 -175 -378 -247 -405 -340 -18 -59 -21 -149 -6 -149
6 0 10 -6 10 -13 0 -37 140 -61 285 -48 50 4 91 7 91 7 1 -1 21 -39 44 -86 57
-114 180 -343 190 -354 8 -8 182 78 229 113 19 15 21 21 12 37 -38 66 -138
295 -131 299 16 10 160 205 160 217 0 8 -49 10 -172 6 -95 -4 -187 -4 -205 -1
l-32 5 120 118 120 117 -81 77 c-45 42 -85 76 -88 76 -4 0 -67 -36 -141 -81z
m216 -16 l63 -58 -124 -110 -124 -110 -108 -5 -109 -5 -47 40 -47 40 32 28
c18 15 81 61 141 102 l109 74 74 -66 c40 -36 76 -63 79 -60 3 3 -24 37 -61 75
l-66 70 48 30 c56 34 54 35 140 -45z m-454 -281 c17 -19 17 -20 -30 -45 -68
-35 -70 -75 -10 -143 l32 -37 -45 7 c-75 12 -90 27 -90 92 0 58 16 106 51 155
l21 29 26 -19 c15 -10 35 -28 45 -39z m225 -28 c33 -4 52 -12 52 -20 0 -10 31
-12 144 -11 79 1 147 -1 151 -5 4 -3 3 -27 0 -53 l-7 -46 -83 7 c-95 8 -147
-5 -172 -42 l-15 -24 -43 39 -42 39 -68 -34 c-77 -39 -112 -42 -147 -14 -29
22 -62 85 -53 100 8 12 80 50 96 50 6 0 22 -9 36 -20 36 -28 51 -25 24 4 -21
23 -22 25 -4 29 28 7 73 7 131 1z m446 -16 c-4 -7 -34 -53 -67 -101 -58 -86
-61 -88 -73 -65 -12 21 -11 23 17 26 24 3 30 10 38 40 25 95 25 92 0 93 -21 1
-20 2 6 9 50 13 87 12 79 -2z m-187 -134 c-3 -4 8 -33 24 -66 17 -33 29 -61
27 -63 -2 -1 -34 -16 -73 -33 -38 -17 -71 -35 -73 -41 -6 -18 16 -12 88 24
l70 35 25 -50 c14 -27 25 -51 25 -53 0 -2 -34 -18 -75 -36 -41 -18 -75 -37
-75 -42 0 -17 28 -9 95 25 l66 35 29 -47 c16 -26 30 -51 30 -57 0 -5 -49 -33
-108 -61 l-109 -51 -110 234 c-106 222 -109 232 -75 202 l35 -31 20 27 c11 15
34 33 51 41 31 13 125 20 113 8z m-293 -20 c11 -30 6 -34 -46 -34 l-53 0 40
25 c48 29 51 30 59 9z"/>
</g>
</svg>
