<?xml version="1.0" standalone="no"?>
<!DOCTYPE svg PUBLIC "-//W3C//DTD SVG 20010904//EN"
 "http://www.w3.org/TR/2001/REC-SVG-20010904/DTD/svg10.dtd">
<svg version="1.0" xmlns="http://www.w3.org/2000/svg"
 width="152.000000pt" height="148.000000pt" viewBox="0 0 152.000000 148.000000"
 preserveAspectRatio="xMidYMid meet">
<metadata>
Created by potrace 1.16, written by Peter Selinger 2001-2019
</metadata>
<g transform="translate(0.000000,148.000000) scale(0.100000,-0.100000)"
fill="#000000" stroke="none">
<path d="M676 1093 c7 -145 15 -213 23 -213 9 0 21 132 21 233 0 65 -1 67 -25
67 l-24 0 5 -87z"/>
<path d="M811 903 c-14 -3 -34 -11 -45 -18 -31 -20 -201 -38 -281 -31 -38 4
-95 13 -125 21 -30 8 -56 15 -57 15 -2 0 -3 -11 -3 -24 0 -21 7 -25 68 -37
112 -22 222 -17 366 16 l129 29 178 -30 c99 -17 179 -27 179 -24 0 10 -272 78
-335 83 -27 3 -61 3 -74 0z"/>
<path d="M790 683 c-8 -3 -17 -10 -20 -14 -9 -14 -141 -31 -235 -31 -49 0
-121 7 -158 16 -85 20 -79 20 -75 -6 3 -20 13 -25 68 -35 106 -20 223 -16 345
12 136 31 167 31 341 0 76 -14 145 -25 153 -25 37 0 -12 17 -152 51 -140 35
-230 46 -267 32z"/>
<path d="M1009 603 c-4 -44 4 -270 11 -287 7 -18 9 -16 15 17 4 21 8 91 9 155
1 104 -1 117 -16 120 -10 2 -18 0 -19 -5z"/>
</g>
</svg>
