<?xml version="1.0" standalone="no"?>
<!DOCTYPE svg PUBLIC "-//W3C//DTD SVG 20010904//EN"
 "http://www.w3.org/TR/2001/REC-SVG-20010904/DTD/svg10.dtd">
<svg version="1.0" xmlns="http://www.w3.org/2000/svg"
 width="176.000000pt" height="105.000000pt" viewBox="0 0 176.000000 105.000000"
 preserveAspectRatio="xMidYMid meet">
<metadata>
Created by potrace 1.16, written by Peter Selinger 2001-2019
</metadata>
<g transform="translate(0.000000,105.000000) scale(0.100000,-0.100000)"
fill="#000000" stroke="none">
<path d="M606 743 c-3 -4 -39 -16 -79 -28 l-73 -21 -50 22 c-27 13 -54 23 -60
23 -10 1 -44 -128 -44 -169 0 -14 28 -35 103 -77 213 -120 410 -193 519 -193
119 0 307 101 498 268 42 37 44 41 32 63 -8 13 -33 46 -57 73 l-44 50 -26 -27
c-38 -37 -200 -114 -265 -126 -91 -16 -206 17 -366 104 -45 25 -84 42 -88 38z
m109 -84 c61 -31 141 -67 179 -79 122 -40 220 -17 383 90 l63 41 55 -48 55
-48 -38 -33 c-67 -59 -241 -170 -320 -204 -70 -30 -86 -33 -172 -32 -81 0
-108 5 -185 33 -103 38 -206 88 -328 161 l-85 50 16 52 c9 29 17 54 17 56 1 1
28 -7 59 -18 l57 -19 62 28 c34 16 64 28 67 28 3 -1 55 -27 115 -58z"/>
</g>
</svg>
