<?xml version="1.0" standalone="no"?>
<!DOCTYPE svg PUBLIC "-//W3C//DTD SVG 20010904//EN"
 "http://www.w3.org/TR/2001/REC-SVG-20010904/DTD/svg10.dtd">
<svg version="1.0" xmlns="http://www.w3.org/2000/svg"
 width="194.000000pt" height="137.000000pt" viewBox="0 0 194.000000 137.000000"
 preserveAspectRatio="xMidYMid meet">
<metadata>
Created by potrace 1.16, written by Peter Selinger 2001-2019
</metadata>
<g transform="translate(0.000000,137.000000) scale(0.100000,-0.100000)"
fill="#000000" stroke="none">
<path d="M1325 1039 c-109 -47 -323 -116 -397 -129 -68 -12 -83 -25 -55 -51 8
-8 11 -43 8 -123 -2 -61 2 -164 9 -229 7 -65 10 -120 7 -123 -2 -3 -24 3 -48
12 -42 16 -92 59 -115 99 -10 19 -11 19 -36 -1 l-26 -20 25 -32 25 -32 -69
-31 c-37 -17 -97 -36 -133 -41 -85 -14 -92 -16 -85 -28 3 -5 30 -10 60 -10 57
0 142 27 211 66 40 24 41 24 65 6 34 -27 134 -62 175 -62 34 0 205 78 219 100
9 14 4 13 -46 -9 -62 -28 -137 -43 -172 -35 l-29 6 6 217 c9 279 9 281 22 281
25 0 233 73 310 109 67 32 82 36 74 21 -6 -10 -15 -22 -20 -25 -6 -4 -29 -31
-51 -61 -34 -47 -39 -59 -32 -81 9 -25 13 -27 61 -24 l51 2 -20 -58 c-29 -85
-23 -99 52 -107 34 -3 100 -6 147 -6 l84 0 -16 -22 c-30 -42 -87 -165 -89
-194 -2 -23 3 -30 19 -32 17 -2 22 3 27 30 7 48 66 195 84 213 8 9 14 18 12
20 -10 9 -239 36 -276 32 -24 -2 -43 -2 -43 1 0 18 57 121 68 121 49 3 -43 41
-97 41 -12 0 -21 4 -21 9 0 9 83 136 120 184 26 33 23 33 -65 -4z"/>
<path d="M785 862 c-30 -19 -99 -90 -106 -109 -3 -7 -31 -6 -86 3 -143 23
-274 29 -283 13 -5 -8 -4 -19 3 -27 14 -18 160 -91 265 -132 45 -18 82 -38 82
-45 0 -7 -11 -20 -25 -29 -44 -29 -205 -166 -205 -175 0 -30 39 -8 130 74 91
83 105 92 116 77 10 -14 14 -14 28 -3 10 9 14 21 10 33 -4 13 2 28 17 44 22
23 14 35 -8 13 -17 -17 -27 30 -18 78 10 57 32 92 93 150 40 39 50 53 36 53
-11 0 -32 -8 -49 -18z m-214 -128 l97 -7 -5 -61 c-3 -34 -7 -62 -8 -64 -4 -4
-194 93 -230 117 l-30 21 40 0 c22 0 83 -3 136 -6z"/>
<path d="M1173 424 c14 -15 44 -21 160 -29 78 -6 144 -10 147 -8 19 16 -92 39
-230 48 -92 7 -94 6 -77 -11z"/>
</g>
</svg>
