<?xml version="1.0" standalone="no"?>
<!DOCTYPE svg PUBLIC "-//W3C//DTD SVG 20010904//EN"
 "http://www.w3.org/TR/2001/REC-SVG-20010904/DTD/svg10.dtd">
<svg version="1.0" xmlns="http://www.w3.org/2000/svg"
 width="244.000000pt" height="240.000000pt" viewBox="0 0 244.000000 240.000000"
 preserveAspectRatio="xMidYMid meet">
<metadata>
Created by potrace 1.16, written by Peter Selinger 2001-2019
</metadata>
<g transform="translate(0.000000,240.000000) scale(0.100000,-0.100000)"
fill="#000000" stroke="none">
<path d="M1298 2075 c-250 -56 -383 -106 -483 -182 -27 -21 -54 -48 -60 -61
l-10 -22 -222 7 -223 6 0 -22 0 -22 218 3 219 3 0 -78 1 -78 -219 3 c-203 3
-219 2 -219 -14 0 -17 17 -18 225 -18 l225 0 15 -37 c44 -104 122 -153 245
-153 41 0 103 7 137 15 43 10 143 16 330 19 289 4 563 23 563 39 0 15 -762 -2
-835 -19 -71 -16 -215 -18 -268 -3 -47 13 -106 63 -123 106 -17 41 -18 41 4
46 16 4 16 5 -1 6 -35 2 -48 91 -26 190 l10 50 92 45 c51 24 137 58 192 75
104 32 315 84 321 79 3 -4 24 -212 31 -325 6 -97 18 -120 29 -54 l6 38 112 6
c61 4 156 7 211 8 55 0 135 4 178 7 l77 8 0 -148 c0 -82 4 -149 9 -153 13 -8
19 35 26 190 l7 130 -310 -3 -310 -3 -6 63 c-3 35 -8 101 -11 148 -8 114 -12
130 -33 129 -9 0 -65 -11 -124 -24z"/>
<path d="M1345 985 c-156 -43 -289 -91 -345 -123 -61 -36 -147 -124 -195 -201
l-40 -63 -192 5 c-186 6 -193 5 -193 -14 0 -18 9 -19 205 -19 157 0 205 -3
205 -12 0 -11 38 -66 90 -133 6 -7 -77 -9 -246 -7 -251 3 -254 3 -254 -17 0
-21 4 -21 208 -20 114 0 233 4 264 8 53 6 61 5 99 -21 118 -79 244 -87 604
-38 254 35 545 88 545 101 0 5 -19 6 -42 3 -24 -3 -233 -29 -465 -59 l-422
-54 -54 18 c-116 40 -197 99 -258 188 -27 39 -28 43 -12 52 17 10 17 10 0 11
-10 0 -22 12 -28 28 -10 25 -6 31 61 95 109 104 173 141 345 196 83 27 168 52
187 56 l35 7 7 -69 c4 -37 17 -131 30 -208 21 -129 30 -149 38 -85 3 29 -2 28
303 55 99 9 201 19 226 22 l46 5 7 -108 c9 -140 16 -194 27 -194 5 0 9 75 9
166 l0 166 -37 -6 c-21 -3 -81 -8 -133 -11 -183 -11 -375 -25 -411 -30 l-36
-5 -7 48 c-4 26 -13 97 -20 158 -7 61 -17 118 -22 126 -8 14 -24 12 -129 -17z"/>
<path d="M1152 862 c-10 -7 -8 -29 8 -108 38 -189 72 -324 79 -319 9 5 2 60
-34 276 -14 81 -25 149 -25 153 0 8 -12 7 -28 -2z"/>
</g>
</svg>
