<?xml version="1.0" standalone="no"?>
<!DOCTYPE svg PUBLIC "-//W3C//DTD SVG 20010904//EN"
 "http://www.w3.org/TR/2001/REC-SVG-20010904/DTD/svg10.dtd">
<svg version="1.0" xmlns="http://www.w3.org/2000/svg"
 width="197.000000pt" height="160.000000pt" viewBox="0 0 197.000000 160.000000"
 preserveAspectRatio="xMidYMid meet">
<metadata>
Created by potrace 1.16, written by Peter Selinger 2001-2019
</metadata>
<g transform="translate(0.000000,160.000000) scale(0.100000,-0.100000)"
fill="#000000" stroke="none">
<path d="M740 1234 c-231 -144 -371 -267 -419 -368 -28 -58 -23 -112 19 -201
77 -160 192 -213 372 -171 121 28 933 404 914 423 -10 10 -815 -341 -833 -364
-24 -31 -177 -44 -257 -22 -83 23 -163 133 -191 263 l-13 61 62 63 c33 35 90
88 127 117 66 54 305 215 317 215 4 0 27 -47 51 -103 25 -56 64 -142 88 -192
l43 -90 0 46 c0 36 4 48 18 52 30 9 344 134 429 170 45 20 84 33 86 29 3 -4
17 -45 32 -92 35 -107 73 -195 81 -187 8 8 -7 70 -53 215 l-35 112 -26 -15
c-44 -24 -543 -206 -551 -201 -4 3 -34 67 -66 143 -58 136 -71 163 -84 163 -3
0 -53 -30 -111 -66z"/>
<path d="M586 1062 c-4 -6 76 -162 159 -309 16 -29 26 -55 23 -59 -13 -13
-123 -34 -178 -34 -36 0 -65 6 -86 19 -33 20 -83 92 -109 159 -19 47 -35 55
-35 17 0 -54 82 -185 131 -211 43 -22 128 -17 221 12 46 14 84 27 86 29 3 3
-90 209 -139 308 -35 69 -59 92 -73 69z"/>
<path d="M1159 640 c-74 -39 -108 -105 -96 -191 17 -127 190 -192 306 -116
115 76 104 244 -19 307 -52 26 -142 26 -191 0z"/>
</g>
</svg>
