<?xml version="1.0" standalone="no"?>
<!DOCTYPE svg PUBLIC "-//W3C//DTD SVG 20010904//EN"
 "http://www.w3.org/TR/2001/REC-SVG-20010904/DTD/svg10.dtd">
<svg version="1.0" xmlns="http://www.w3.org/2000/svg"
 width="197.000000pt" height="156.000000pt" viewBox="0 0 197.000000 156.000000"
 preserveAspectRatio="xMidYMid meet">
<metadata>
Created by potrace 1.16, written by Peter Selinger 2001-2019
</metadata>
<g transform="translate(0.000000,156.000000) scale(0.100000,-0.100000)"
fill="#000000" stroke="none">
<path d="M1010 1242 c0 -10 36 -63 80 -118 87 -108 133 -189 128 -225 -2 -19
-20 -30 -103 -61 -55 -21 -105 -36 -110 -34 -6 2 -38 66 -70 142 -33 77 -65
145 -72 152 -13 14 -79 -24 -280 -160 -155 -105 -283 -252 -283 -325 0 -48 43
-154 84 -211 61 -82 104 -102 222 -102 115 0 151 11 398 122 111 49 211 94
223 99 20 7 25 4 42 -29 26 -50 108 -126 154 -141 49 -17 91 -2 151 50 36 31
50 53 62 95 16 55 16 55 -11 96 -14 22 -40 47 -56 56 -16 10 -29 19 -29 23 0
3 21 16 48 28 63 32 40 38 -29 7 l-54 -24 -62 24 c-41 15 -65 19 -69 13 -9
-14 4 -24 49 -39 21 -7 37 -13 35 -15 -11 -11 -189 -82 -192 -76 -2 3 -4 65
-3 137 l1 131 136 57 c74 31 138 57 143 59 4 1 25 -48 46 -109 79 -225 106
-232 41 -11 -23 78 -46 146 -51 152 -6 6 -17 5 -30 -3 -11 -7 -75 -32 -142
-56 -67 -24 -129 -47 -138 -50 -12 -5 -19 6 -32 47 -16 50 -73 139 -172 265
-43 55 -55 62 -55 34z m-126 -275 c22 -50 61 -137 88 -192 l48 -100 0 45 0 45
100 39 c55 22 104 36 108 32 4 -4 7 -67 7 -139 l0 -131 -222 -95 c-123 -53
-223 -101 -223 -107 0 -16 -30 -23 -120 -30 -105 -9 -175 12 -225 67 -48 54
-92 148 -101 216 l-7 55 59 60 c77 78 193 169 329 257 61 39 112 71 115 71 3
0 23 -42 44 -93z m654 -331 c15 -8 40 -28 56 -44 25 -27 27 -35 21 -72 -8 -47
-54 -106 -110 -140 l-34 -21 -41 21 c-22 11 -58 36 -79 55 -41 38 -82 106 -66
112 6 2 55 25 110 52 55 27 104 50 108 50 4 1 20 -5 35 -13z"/>
<path d="M594 865 c-5 -13 50 -125 138 -277 21 -36 38 -71 38 -76 0 -14 -127
-42 -185 -42 -25 0 -59 7 -76 15 -32 17 -88 97 -115 164 -18 46 -34 53 -34 16
0 -53 84 -186 132 -211 41 -21 148 -14 238 17 36 12 66 23 68 24 3 3 -90 210
-139 308 -39 76 -54 91 -65 62z"/>
</g>
</svg>
