<?xml version="1.0" standalone="no"?>
<!DOCTYPE svg PUBLIC "-//W3C//DTD SVG 20010904//EN"
 "http://www.w3.org/TR/2001/REC-SVG-20010904/DTD/svg10.dtd">
<svg version="1.0" xmlns="http://www.w3.org/2000/svg"
 width="181.000000pt" height="156.000000pt" viewBox="0 0 181.000000 156.000000"
 preserveAspectRatio="xMidYMid meet">
<metadata>
Created by potrace 1.16, written by Peter Selinger 2001-2019
</metadata>
<g transform="translate(0.000000,156.000000) scale(0.100000,-0.100000)"
fill="#000000" stroke="none">
<path d="M317 1252 c-17 -3 -18 -28 -16 -445 1 -243 5 -451 8 -461 7 -18 12
-15 57 25 75 67 197 182 324 307 87 84 122 112 142 112 20 0 27 -6 33 -27 16
-65 76 -115 161 -133 44 -10 51 -15 70 -53 23 -49 92 -96 152 -104 36 -5 41
-9 46 -39 12 -62 110 -133 184 -134 l32 0 0 466 0 467 -37 -6 c-57 -10 -125
-49 -151 -88 -18 -26 -34 -36 -70 -45 -26 -6 -61 -18 -78 -27 -35 -18 -84 -72
-84 -91 0 -8 -18 -16 -45 -19 -81 -12 -151 -60 -174 -119 -8 -22 -17 -28 -38
-28 -22 1 -60 32 -188 156 -226 221 -307 291 -328 286z m1133 -82 c-24 -48
-27 -154 -5 -207 8 -19 15 -37 15 -39 0 -12 -40 -1 -73 19 -107 65 -101 185
13 243 66 34 74 31 50 -16z m-985 -95 c50 -44 133 -116 185 -159 52 -44 100
-83 105 -88 6 -5 -42 -8 -115 -7 l-125 1 0 -23 0 -24 125 2 125 3 -40 -33
c-22 -17 -102 -86 -179 -152 -76 -66 -156 -136 -179 -155 l-40 -34 6 189 c4
105 10 276 13 382 5 136 10 190 18 186 6 -4 52 -43 101 -88z m772 -32 c-26
-45 -31 -158 -8 -211 7 -18 11 -35 8 -39 -13 -13 -60 10 -97 47 -36 36 -40 45
-40 89 0 59 27 98 93 130 61 30 70 27 44 -16z m156 -122 c17 -6 15 -10 -16
-31 -19 -13 -42 -35 -51 -49 -15 -25 -15 -23 -16 62 l0 89 32 -32 c17 -18 40
-35 51 -39z m-376 -18 c-30 -51 -30 -160 0 -221 l21 -43 -22 7 c-89 27 -136
80 -136 151 0 51 35 97 95 124 60 28 67 24 42 -18z m443 -5 c0 -2 -7 -25 -15
-52 -19 -61 -18 -119 0 -171 18 -51 4 -61 -48 -32 -43 24 -72 59 -82 100 -15
57 62 155 123 156 12 1 22 0 22 -1z m-301 -97 l27 -16 -48 -46 -48 -45 0 89 0
90 22 -28 c12 -15 33 -35 47 -44z m73 -63 c-25 -49 -23 -161 4 -214 l20 -42
-28 9 c-108 31 -164 136 -111 208 27 35 81 71 109 71 22 0 22 0 6 -32z m153
-108 c20 -13 24 -20 13 -20 -9 0 -33 -15 -52 -34 l-36 -33 0 81 0 81 23 -28
c12 -15 36 -36 52 -47z m65 -27 c0 -5 -7 -26 -15 -48 -20 -56 -18 -126 4 -185
11 -27 16 -50 11 -50 -12 0 -74 29 -91 42 -54 44 -67 125 -28 179 28 40 119
87 119 62z"/>
</g>
</svg>
