<?xml version="1.0" standalone="no"?>
<!DOCTYPE svg PUBLIC "-//W3C//DTD SVG 20010904//EN"
 "http://www.w3.org/TR/2001/REC-SVG-20010904/DTD/svg10.dtd">
<svg version="1.0" xmlns="http://www.w3.org/2000/svg"
 width="171.000000pt" height="163.000000pt" viewBox="0 0 171.000000 163.000000"
 preserveAspectRatio="xMidYMid meet">
<metadata>
Created by potrace 1.16, written by Peter Selinger 2001-2019
</metadata>
<g transform="translate(0.000000,163.000000) scale(0.100000,-0.100000)"
fill="#000000" stroke="none">
<path d="M310 1316 c0 -7 36 -51 79 -98 l80 -85 -67 -66 c-37 -37 -76 -67 -85
-67 -33 0 -9 -38 71 -115 l77 -74 -65 -65 c-35 -36 -71 -65 -80 -63 -11 1 -15
-6 -14 -28 0 -19 5 -30 15 -30 7 -1 43 -31 78 -68 l64 -67 -79 -80 c-74 -76
-93 -105 -69 -105 6 0 44 36 84 80 50 54 79 79 93 78 11 -2 16 1 13 7 -4 6 12
10 42 10 l47 0 -62 -63 c-34 -34 -62 -68 -62 -75 0 -14 27 -17 32 -3 2 5 29
36 61 71 50 54 60 60 74 49 14 -12 15 -11 9 9 -7 20 -4 22 33 22 23 0 41 -4
41 -8 0 -4 -29 -37 -65 -72 -46 -45 -62 -67 -54 -75 8 -7 31 12 80 65 54 59
71 72 81 62 6 -6 16 -12 22 -12 6 0 5 5 -2 12 -20 20 -14 28 20 28 l32 0 -67
-68 c-62 -62 -81 -92 -58 -92 5 0 40 32 77 70 65 66 70 70 89 56 19 -14 19
-16 -29 -65 -42 -43 -47 -51 -32 -57 10 -4 21 -2 25 4 3 5 32 38 65 72 l59 61
28 -27 c34 -32 38 -24 8 14 l-21 27 71 6 c92 7 103 19 17 19 -63 0 -66 1 -56
19 17 33 11 36 -18 8 -33 -32 -32 -33 -116 59 l-46 51 66 72 67 72 28 -27 c16
-15 29 -23 29 -17 0 5 -9 18 -20 28 -11 10 -20 22 -20 27 0 4 31 8 69 8 39 0
73 4 76 10 4 6 -19 10 -61 10 -58 0 -65 2 -54 15 22 26 1 30 -26 4 l-26 -24
-63 70 c-54 60 -61 72 -51 87 21 30 117 128 125 128 4 0 16 -9 26 -20 30 -33
39 -22 9 13 l-27 32 76 3 c91 3 104 22 17 22 -58 0 -60 1 -50 20 6 11 7 20 2
20 -5 0 -17 -9 -27 -20 -10 -11 -23 -20 -29 -20 -6 0 -40 32 -75 71 -45 50
-67 67 -74 60 -8 -8 2 -25 36 -59 37 -37 45 -50 35 -60 -21 -21 -35 -14 -99
53 -55 58 -89 80 -89 58 0 -4 25 -32 55 -63 l54 -55 -34 -2 c-31 -1 -41 6 -96
68 -55 61 -79 76 -79 49 0 -9 4 -14 64 -78 l39 -41 -46 2 c-42 2 -50 6 -102
65 -50 54 -85 77 -85 55 0 -4 26 -34 57 -65 l58 -59 -53 2 -53 2 -76 84 c-76
82 -93 95 -93 69z m616 -204 c-13 -13 -17 -13 -31 -2 -16 13 -16 15 2 21 10 3
24 4 31 1 11 -4 11 -8 -2 -20z m-386 -47 c-83 -84 -85 -102 -19 -176 l49 -54
-27 -3 c-15 -2 -29 1 -31 8 -3 8 -8 8 -18 -1 -8 -7 -16 -10 -18 -8 -2 2 -31
35 -64 72 l-62 69 68 73 c42 47 71 70 77 64 14 -14 25 -11 19 6 -5 12 3 15 42
15 l48 0 -64 -65z m125 -5 c-38 -38 -66 -73 -62 -76 4 -4 2 -13 -5 -21 -9 -11
0 -25 43 -69 l53 -54 -46 0 c-44 0 -48 3 -102 64 l-56 64 68 75 c41 46 71 71
77 66 15 -15 28 -10 15 6 -11 13 -6 15 36 15 l48 0 -69 -70z m104 3 c-81 -84
-83 -102 -18 -170 l46 -48 -31 -2 c-25 -2 -40 7 -79 45 -77 75 -77 72 0 157
63 70 68 73 85 58 20 -18 25 -4 6 15 -9 9 -4 12 22 12 l34 0 -65 -67z m113 36
c19 -10 18 -13 -24 -57 -57 -60 -58 -84 -8 -141 41 -47 43 -61 6 -61 -15 0
-41 21 -79 64 l-57 64 66 71 c36 39 68 71 71 71 2 0 14 -5 25 -11z m-224 -367
c-37 -37 -66 -76 -66 -87 0 -11 23 -43 51 -72 l50 -52 -44 1 c-41 0 -48 5
-100 62 l-57 61 20 25 c10 13 40 46 64 73 39 41 48 46 62 35 13 -11 15 -11 9
4 -5 14 1 17 31 20 20 2 39 2 41 0 3 -1 -25 -33 -61 -70z m172 75 c0 -1 -29
-33 -65 -69 -41 -43 -65 -75 -65 -90 0 -13 19 -42 50 -73 l49 -50 -34 -2 c-30
-3 -40 4 -87 57 -29 34 -53 64 -53 69 0 4 28 38 63 76 48 52 65 66 74 57 7 -7
17 -12 22 -12 6 0 5 5 -2 12 -18 18 -15 24 18 26 17 1 30 1 30 -1z m110 0 c0
-2 -8 -11 -18 -21 -18 -15 -20 -15 -37 4 -18 20 -18 20 18 20 21 0 37 -2 37
-3z m-407 -69 c-82 -85 -83 -94 -17 -159 30 -29 54 -56 54 -59 0 -10 -55 -8
-62 3 -5 9 -10 9 -19 0 -8 -8 -27 6 -75 60 l-64 70 57 61 c31 34 60 65 64 70
5 5 15 3 25 -5 16 -12 17 -12 11 4 -5 15 0 17 41 17 l46 0 -61 -62z m315 -25
c-24 -24 -43 -51 -43 -61 0 -9 19 -38 43 -64 25 -25 41 -51 38 -57 -16 -26
-53 -8 -108 54 l-58 63 66 71 c64 69 67 71 86 55 18 -17 17 -19 -24 -61z m92
-226 c0 -2 -8 -11 -18 -21 -18 -15 -20 -15 -37 4 -18 20 -18 20 18 20 21 0 37
-2 37 -3z"/>
<path d="M1145 1260 c-8 -24 2 -718 11 -813 l6 -59 108 4 108 3 6 70 c3 39 7
230 8 425 2 219 6 358 13 362 18 13 0 16 -126 23 -126 8 -127 7 -134 -15z
m209 -337 c3 -175 8 -360 11 -411 l5 -93 -97 3 -97 3 3 380 c1 209 5 390 8
402 5 23 24 28 114 31 l47 2 6 -317z"/>
</g>
</svg>
