<?xml version="1.0" standalone="no"?>
<!DOCTYPE svg PUBLIC "-//W3C//DTD SVG 20010904//EN"
 "http://www.w3.org/TR/2001/REC-SVG-20010904/DTD/svg10.dtd">
<svg version="1.0" xmlns="http://www.w3.org/2000/svg"
 width="135.000000pt" height="227.000000pt" viewBox="0 0 135.000000 227.000000"
 preserveAspectRatio="xMidYMid meet">
<metadata>
Created by potrace 1.16, written by Peter Selinger 2001-2019
</metadata>
<g transform="translate(0.000000,227.000000) scale(0.100000,-0.100000)"
fill="#000000" stroke="none">
<path d="M520 1946 c-100 -30 -150 -52 -150 -67 0 -6 -7 -17 -16 -23 -22 -17
-54 -157 -54 -238 0 -82 27 -163 96 -282 l48 -84 61 -13 c108 -23 176 -17 330
31 77 23 144 46 149 51 4 4 22 72 38 151 32 157 33 224 3 314 -17 50 -19 53
-108 99 -174 91 -257 104 -397 61z m265 -41 c96 -25 176 -59 187 -79 10 -18 1
-18 -280 -14 -160 2 -294 7 -298 11 -14 14 13 29 112 63 112 38 184 43 279 19z
m-91 -122 l295 6 12 -41 c13 -51 12 -135 -4 -248 -11 -75 -14 -85 -32 -83 -11
1 -145 3 -297 3 l-278 2 -16 51 c-23 76 -28 158 -15 229 18 92 22 103 31 88 7
-11 67 -12 304 -7z m286 -418 c0 -28 -4 -35 -22 -39 -13 -3 -79 -17 -148 -32
-138 -29 -200 -31 -302 -8 -58 13 -71 20 -83 44 -31 61 -36 59 208 63 122 1
250 3 285 5 l62 2 0 -35z"/>
<path d="M390 1676 c0 -19 8 -19 296 -13 267 5 317 8 303 21 -2 2 -138 6 -301
8 -289 3 -298 3 -298 -16z"/>
<path d="M390 1556 c0 -19 8 -19 296 -13 269 5 316 9 303 21 -2 2 -138 6 -301
8 -289 3 -298 3 -298 -16z"/>
<path d="M585 1023 c-66 -14 -208 -69 -213 -83 -3 -8 -12 -20 -19 -25 -20 -15
-43 -109 -50 -206 -8 -113 12 -178 105 -336 44 -75 46 -75 227 -71 115 3 143
7 240 38 61 19 112 35 114 36 7 5 61 302 61 339 0 45 -14 104 -36 155 -13 30
-31 43 -112 83 -144 71 -228 90 -317 70z m208 -62 c96 -25 174 -58 182 -78 3
-9 4 -16 3 -17 -2 -1 -135 0 -295 2 -254 2 -293 5 -293 18 0 17 44 38 150 70
93 28 155 30 253 5z m-100 -119 l295 5 11 -41 c16 -59 16 -86 1 -219 l-13
-119 -66 6 c-36 3 -170 6 -298 6 l-231 0 -17 48 c-26 76 -30 169 -10 257 10
48 20 73 25 65 6 -10 68 -12 303 -8z m287 -417 c0 -28 -4 -36 -22 -40 -13 -2
-77 -17 -143 -32 -135 -31 -202 -33 -305 -8 -59 14 -73 22 -85 46 -31 59 -38
58 227 59 133 0 244 3 247 5 2 3 22 5 43 5 37 0 38 -1 38 -35z"/>
<path d="M390 735 c0 -13 31 -15 218 -15 119 0 255 3 302 7 145 12 48 21 -247
22 -237 1 -273 -1 -273 -14z"/>
<path d="M390 618 c0 -17 16 -18 203 -18 215 0 401 9 391 19 -3 3 -138 8 -300
11 -275 5 -294 4 -294 -12z"/>
</g>
</svg>
