<?xml version="1.0" standalone="no"?>
<!DOCTYPE svg PUBLIC "-//W3C//DTD SVG 20010904//EN"
 "http://www.w3.org/TR/2001/REC-SVG-20010904/DTD/svg10.dtd">
<svg version="1.0" xmlns="http://www.w3.org/2000/svg"
 width="144.000000pt" height="135.000000pt" viewBox="0 0 144.000000 135.000000"
 preserveAspectRatio="xMidYMid meet">
<metadata>
Created by potrace 1.16, written by Peter Selinger 2001-2019
</metadata>
<g transform="translate(0.000000,135.000000) scale(0.100000,-0.100000)"
fill="#000000" stroke="none">
<path d="M539 1034 c-14 -17 -8 -25 52 -66 l24 -16 -158 -159 c-86 -87 -157
-163 -157 -168 0 -5 74 64 164 154 l164 164 47 -33 47 -33 -198 -198 c-109
-110 -194 -199 -189 -199 6 0 98 87 204 194 l194 194 36 -26 c20 -14 40 -30
46 -34 5 -5 -76 -94 -200 -218 -115 -116 -205 -210 -200 -210 6 0 102 92 215
205 113 113 208 205 213 205 4 0 26 -12 49 -26 l41 -26 -204 -204 c-186 -186
-202 -205 -188 -220 15 -14 31 -5 193 115 96 72 180 131 184 131 5 0 17 -9 26
-19 22 -24 101 -58 155 -67 l41 -7 0 178 0 178 -45 -5 c-25 -3 -69 -17 -97
-31 l-53 -26 -45 37 c-25 21 -64 50 -88 66 -28 19 -41 34 -37 44 4 10 0 12
-11 8 -16 -6 -104 49 -104 66 0 4 -5 8 -11 8 -6 0 -28 14 -49 30 -44 35 -44
35 -61 14z m518 -271 c-20 -20 -37 -40 -37 -45 0 -5 -11 -1 -25 8 -14 9 -25
20 -25 24 0 11 81 49 104 50 16 0 12 -7 -17 -37z m-76 -49 c20 -10 29 -20 25
-30 -3 -9 -6 -21 -6 -28 0 -12 -60 -46 -80 -46 -16 0 -11 73 6 98 18 26 17 26
55 6z m-87 -85 c6 -36 6 -37 -56 -76 -35 -22 -97 -64 -138 -93 l-75 -52 130
130 c71 72 130 130 131 129 1 -1 4 -18 8 -38z m125 -48 c11 -21 35 -51 53 -66
l33 -28 -35 8 c-39 8 -110 46 -129 68 -9 12 -5 19 21 36 18 11 34 21 35 21 2
0 11 -17 22 -39z"/>
<path d="M448 960 c-21 -17 -47 -45 -59 -63 -15 -21 -1 -12 39 28 34 33 62 61
62 62 0 6 -7 2 -42 -27z"/>
</g>
</svg>
