<?xml version="1.0" standalone="no"?>
<!DOCTYPE svg PUBLIC "-//W3C//DTD SVG 20010904//EN"
 "http://www.w3.org/TR/2001/REC-SVG-20010904/DTD/svg10.dtd">
<svg version="1.0" xmlns="http://www.w3.org/2000/svg"
 width="198.000000pt" height="135.000000pt" viewBox="0 0 198.000000 135.000000"
 preserveAspectRatio="xMidYMid meet">
<metadata>
Created by potrace 1.16, written by Peter Selinger 2001-2019
</metadata>
<g transform="translate(0.000000,135.000000) scale(0.100000,-0.100000)"
fill="#000000" stroke="none">
<path d="M1061 1032 c-9 -17 7 -31 117 -109 70 -50 159 -111 199 -137 l71 -46
-19 -37 c-14 -27 -18 -49 -14 -74 6 -34 4 -37 -52 -74 -32 -21 -115 -78 -185
-128 -111 -78 -126 -92 -117 -108 5 -11 12 -19 14 -19 3 0 84 59 182 131 145
108 179 130 192 120 71 -51 145 -81 203 -81 l28 0 0 176 0 176 -54 -4 c-30 -2
-78 -16 -107 -31 -52 -25 -54 -26 -74 -8 -26 23 -364 271 -370 271 -2 0 -9 -8
-14 -18z m514 -274 c-22 -24 -40 -43 -40 -44 0 -1 -11 7 -25 18 -24 19 -24 20
-5 31 28 16 77 35 95 36 8 1 -3 -17 -25 -41z m-74 -43 c25 -13 28 -20 23 -43
-4 -15 -7 -27 -8 -28 -56 -36 -77 -43 -83 -28 -11 30 13 114 34 114 2 0 17 -7
34 -15z m37 -129 c7 -19 29 -49 49 -66 l36 -32 -34 7 c-37 8 -114 49 -125 67
-7 11 38 58 55 58 4 0 13 -15 19 -34z"/>
<path d="M701 954 c-28 -30 -67 -82 -87 -114 l-37 -60 -138 6 -139 7 0 -123 0
-123 143 5 144 6 18 -35 c21 -39 149 -163 168 -163 12 0 483 270 528 302 24
17 24 18 4 33 -29 23 -496 292 -527 304 -25 9 -31 6 -77 -45z m324 -127 c77
-41 170 -90 208 -108 37 -18 67 -36 67 -39 0 -3 -46 -28 -102 -56 -57 -28
-177 -92 -267 -143 -91 -50 -168 -91 -172 -91 -16 0 -108 114 -135 168 -59
117 -33 226 85 354 l53 58 62 -33 c33 -19 124 -68 201 -110z m-460 -139 c0
-40 2 -81 5 -90 3 -9 2 -17 -2 -17 -5 -1 -62 -1 -127 -1 l-119 0 5 78 c2 42 6
83 9 90 2 9 35 12 116 12 l113 0 0 -72z"/>
</g>
</svg>
