<?xml version="1.0" standalone="no"?>
<!DOCTYPE svg PUBLIC "-//W3C//DTD SVG 20010904//EN"
 "http://www.w3.org/TR/2001/REC-SVG-20010904/DTD/svg10.dtd">
<svg version="1.0" xmlns="http://www.w3.org/2000/svg"
 width="169.000000pt" height="135.000000pt" viewBox="0 0 169.000000 135.000000"
 preserveAspectRatio="xMidYMid meet">
<metadata>
Created by potrace 1.16, written by Peter Selinger 2001-2019
</metadata>
<g transform="translate(0.000000,135.000000) scale(0.100000,-0.100000)"
fill="#000000" stroke="none">
<path d="M782 1038 c-7 -7 -12 -15 -12 -19 0 -9 237 -179 333 -239 66 -42 67
-43 50 -62 -12 -14 -18 -37 -19 -74 l-1 -54 -64 -41 c-104 -68 -299 -210 -299
-218 0 -5 6 -13 13 -19 10 -9 53 18 183 114 93 69 175 128 181 131 7 3 27 -7
44 -21 40 -34 88 -54 150 -62 l49 -7 0 178 0 178 -55 -6 c-32 -3 -75 -17 -102
-31 l-45 -26 -187 138 c-223 165 -205 154 -219 140z m506 -278 c-32 -35 -41
-39 -58 -30 -30 16 -24 29 23 50 68 31 79 25 35 -20z m-69 -46 c39 -23 30 -57
-23 -89 l-41 -25 -7 26 c-7 29 17 104 34 104 5 0 22 -7 37 -16z m26 -115 c4
-12 25 -42 47 -65 23 -25 34 -44 27 -44 -23 0 -113 46 -132 67 -17 20 -17 21
10 42 35 26 40 26 48 0z"/>
<path d="M306 855 c-7 -21 -8 -20 81 -93 l63 -51 -53 -28 c-57 -31 -71 -57
-36 -68 12 -4 37 -14 56 -22 l34 -14 -61 -67 c-77 -85 -75 -98 12 -94 88 3
207 34 293 76 91 45 162 96 146 105 -8 5 -11 34 -8 84 l3 76 -76 35 c-121 55
-174 67 -316 73 -120 5 -131 4 -138 -12z m174 -76 c0 -70 4 -71 -87 13 l-52
48 70 0 69 0 0 -61z m66 1 c2 -46 0 -50 -22 -50 -22 0 -24 4 -24 43 0 47 5 57
29 57 12 0 16 -12 17 -50z m64 -6 c0 -37 -3 -44 -20 -44 -17 0 -20 7 -20 49 0
44 2 49 20 44 16 -4 20 -14 20 -49z m58 -16 c3 -43 1 -46 -17 -41 -17 4 -21
13 -21 50 0 37 3 44 18 41 13 -2 18 -15 20 -50z m60 -17 c3 -37 1 -43 -13 -37
-9 3 -19 6 -21 6 -2 0 -4 18 -4 41 0 33 3 40 18 37 12 -2 18 -15 20 -47z m73
7 c3 -5 4 -21 1 -37 -3 -22 -8 -28 -23 -24 -15 4 -19 14 -19 44 0 32 3 37 18
32 9 -4 20 -10 23 -15z m-251 -98 c0 -48 -1 -50 -27 -50 -21 0 -24 3 -15 12
15 15 16 32 2 23 -5 -3 -10 1 -10 9 0 8 5 18 10 21 8 5 7 11 -1 21 -9 11 -7
14 15 14 25 0 26 -3 26 -50z m60 6 c0 -35 -4 -45 -20 -49 -18 -5 -20 0 -20 44
0 42 3 49 20 49 17 0 20 -7 20 -44z m-130 -6 c0 -46 -10 -49 -68 -24 l-37 16
50 24 c28 13 51 24 53 24 1 0 2 -18 2 -40z m188 8 c-2 -22 -9 -34 -20 -36 -15
-3 -18 4 -18 32 0 30 4 36 21 36 17 0 20 -5 17 -32z m65 8 c7 -18 -1 -26 -25
-26 -11 0 -18 7 -18 20 0 23 35 28 43 6z m54 -2 c-3 -3 -12 -4 -19 -1 -8 3 -5
6 6 6 11 1 17 -2 13 -5z m23 -49 c0 -28 -5 -37 -29 -49 l-29 -15 5 42 c4 23
11 45 17 49 24 16 36 7 36 -27z m-70 -33 c0 -32 -5 -41 -25 -50 -25 -11 -25
-11 -25 32 0 47 5 56 32 56 14 0 18 -8 18 -38z m-70 -27 c0 -25 -2 -45 -4 -45
-2 0 -11 -3 -20 -6 -13 -5 -16 2 -16 38 0 47 5 58 27 58 9 0 13 -14 13 -45z
m-62 -22 c-2 -36 -7 -49 -20 -51 -15 -3 -18 4 -18 47 0 45 3 51 21 51 18 0 20
-5 17 -47z m-132 -71 c-7 -6 -100 -21 -105 -16 -2 1 21 30 50 63 l54 60 3 -51
c2 -28 1 -53 -2 -56z m74 58 c0 -27 -4 -50 -9 -50 -5 0 -16 -3 -25 -6 -13 -5
-16 3 -16 50 0 53 1 56 25 56 23 0 25 -3 25 -50z"/>
<path d="M931 782 c-41 -20 -76 -43 -79 -50 -6 -20 14 -14 75 22 121 72 123
89 4 28z"/>
<path d="M860 611 c0 -10 3 -11 103 -48 38 -13 71 -22 74 -19 7 7 -142 76
-163 76 -7 0 -14 -4 -14 -9z"/>
</g>
</svg>
