<?xml version="1.0" standalone="no"?>
<!DOCTYPE svg PUBLIC "-//W3C//DTD SVG 20010904//EN"
 "http://www.w3.org/TR/2001/REC-SVG-20010904/DTD/svg10.dtd">
<svg version="1.0" xmlns="http://www.w3.org/2000/svg"
 width="167.000000pt" height="135.000000pt" viewBox="0 0 167.000000 135.000000"
 preserveAspectRatio="xMidYMid meet">
<metadata>
Created by potrace 1.16, written by Peter Selinger 2001-2019
</metadata>
<g transform="translate(0.000000,135.000000) scale(0.100000,-0.100000)"
fill="#000000" stroke="none">
<path d="M756 1034 c-3 -9 -6 -17 -6 -19 0 -11 350 -257 379 -266 11 -4 10
-11 -4 -38 -10 -21 -16 -49 -13 -76 3 -41 1 -44 -40 -69 -24 -14 -46 -26 -51
-26 -4 0 -16 59 -26 130 -10 72 -21 133 -26 135 -4 3 -57 -36 -118 -86 -138
-114 -138 -116 12 -173 59 -23 107 -43 106 -46 0 -3 -48 -39 -106 -80 -59 -41
-108 -79 -110 -85 -1 -5 1 -16 6 -24 7 -11 46 13 178 110 92 69 173 128 180
132 7 5 30 -5 54 -23 45 -32 124 -60 171 -60 l28 0 0 176 0 176 -54 -4 c-32
-3 -76 -16 -105 -30 l-49 -26 -195 144 c-107 79 -197 144 -200 144 -3 0 -8 -7
-11 -16z m507 -278 c-36 -42 -38 -43 -60 -27 -12 9 -23 19 -23 22 0 8 90 48
108 49 7 0 -4 -20 -25 -44z m-288 -112 c13 -65 22 -120 20 -123 -3 -2 -54 18
-115 44 -106 46 -111 49 -93 65 66 63 156 140 160 136 2 -2 15 -57 28 -122z
m216 70 c26 -13 30 -19 24 -42 -4 -15 -7 -27 -8 -28 -1 0 -18 -10 -39 -21 -20
-12 -39 -19 -42 -16 -11 12 -6 64 9 93 18 35 17 35 56 14z m33 -119 c3 -13 23
-43 45 -65 21 -22 35 -40 31 -40 -22 0 -100 34 -125 55 l-30 25 28 25 c35 31
43 31 51 0z"/>
<path d="M423 950 c-84 -69 -110 -95 -106 -109 3 -13 43 -34 136 -69 72 -28
133 -49 136 -46 7 7 -38 297 -48 307 -4 4 -57 -33 -118 -83z m125 -71 c12 -67
21 -123 19 -125 -3 -3 -211 81 -224 90 -4 3 168 156 175 156 4 0 17 -55 30
-121z"/>
<path d="M550 662 c0 -5 12 -19 26 -33 l26 -24 -39 -5 c-33 -5 -43 -2 -75 29
-44 41 -64 34 -24 -8 23 -24 25 -29 11 -35 -9 -3 -33 -6 -53 -6 -29 0 -45 8
-79 42 -28 28 -43 37 -43 26 0 -9 18 -32 40 -52 22 -20 40 -39 40 -43 0 -5
-14 -28 -30 -53 -32 -48 -36 -60 -20 -60 5 0 21 21 36 46 28 48 70 74 119 74
l26 0 -19 -27 c-30 -45 -33 -51 -23 -58 6 -3 22 15 36 40 15 25 31 42 36 39 5
-3 9 -1 9 4 0 9 51 24 58 17 2 -1 -6 -18 -17 -36 -23 -37 -26 -49 -13 -49 5 0
18 18 31 40 24 43 30 47 50 28 11 -11 12 -9 6 10 -5 19 -3 22 22 22 15 0 35 5
43 10 11 7 4 10 -27 10 -25 0 -43 5 -43 11 0 8 -5 7 -15 -1 -13 -11 -21 -8
-48 18 -33 32 -47 39 -47 24z"/>
</g>
</svg>
