<?xml version="1.0" standalone="no"?>
<!DOCTYPE svg PUBLIC "-//W3C//DTD SVG 20010904//EN"
 "http://www.w3.org/TR/2001/REC-SVG-20010904/DTD/svg10.dtd">
<svg version="1.0" xmlns="http://www.w3.org/2000/svg"
 width="202.000000pt" height="135.000000pt" viewBox="0 0 202.000000 135.000000"
 preserveAspectRatio="xMidYMid meet">
<metadata>
Created by potrace 1.16, written by Peter Selinger 2001-2019
</metadata>
<g transform="translate(0.000000,135.000000) scale(0.100000,-0.100000)"
fill="#000000" stroke="none">
<path d="M1091 1032 c-8 -15 9 -30 110 -102 65 -46 119 -86 119 -87 0 -2 -55
-1 -122 2 -68 3 -297 7 -510 10 l-388 4 0 -23 c0 -23 0 -23 110 -19 l110 5 0
-54 c0 -29 3 -90 7 -135 l6 -82 -114 -3 c-93 -2 -114 -6 -114 -18 0 -12 21
-16 116 -18 l116 -3 34 -50 c37 -53 110 -99 160 -99 15 0 29 -6 32 -12 2 -9
24 -3 73 22 61 31 72 41 94 87 23 47 29 52 65 58 22 3 109 5 192 3 l153 -3
-125 -89 c-69 -48 -125 -92 -125 -96 0 -4 7 -13 15 -20 13 -11 19 -9 38 7 21
19 308 230 335 247 8 5 20 2 30 -7 34 -30 106 -59 158 -64 l54 -6 0 178 0 178
-57 -7 c-33 -4 -80 -19 -111 -36 -30 -16 -60 -27 -66 -23 -6 3 -93 66 -192
140 -100 73 -184 133 -188 133 -3 0 -10 -8 -15 -18z m208 -206 c-3 -3 -74 -32
-159 -64 l-154 -59 -48 20 c-46 19 -48 22 -48 58 l0 39 193 3 c105 1 198 3
206 5 8 1 12 0 10 -2z m-676 -13 c3 -5 7 -64 8 -133 l4 -125 -44 -3 -44 -3 6
77 c4 42 7 103 7 136 0 58 0 58 29 58 17 0 32 -3 34 -7z m157 -8 c0 -17 -2
-18 -24 -9 -23 9 -20 24 4 24 11 0 20 -7 20 -15z m82 -10 c6 -30 -1 -36 -30
-28 -32 8 -31 53 2 53 17 0 25 -7 28 -25z m553 -12 c33 -20 61 -37 63 -38 1
-1 -5 -19 -13 -39 -12 -29 -13 -45 -6 -73 6 -20 9 -38 8 -38 -1 -1 -24 -15
-50 -30 l-48 -28 -170 74 c-129 55 -166 75 -152 81 10 4 79 35 153 67 74 33
139 60 145 60 5 1 37 -15 70 -36z m211 6 c-19 -16 -38 -39 -41 -50 -8 -24 -20
-24 -51 0 l-24 19 35 22 c34 21 77 37 103 39 7 1 -3 -13 -22 -30z m-923 -97
c5 -83 4 -99 -10 -109 -9 -7 -20 -13 -25 -13 -4 0 -8 51 -8 114 0 106 1 114
19 109 16 -4 19 -18 24 -101z m77 42 c6 -14 10 -45 10 -68 0 -36 -4 -45 -26
-55 -15 -6 -28 -10 -31 -8 -2 3 -1 39 3 81 7 81 25 101 44 50z m90 -53 c0 -23
-6 -31 -30 -40 l-30 -10 0 55 0 55 30 -16 c23 -12 30 -22 30 -44z m663 33 c28
-13 33 -20 29 -44 -5 -33 -69 -71 -83 -48 -12 18 -11 66 1 89 13 23 11 23 53
3z m-605 -22 c9 -6 6 -12 -13 -20 -22 -10 -25 -9 -25 8 0 21 16 26 38 12z
m219 -88 c81 -31 150 -58 153 -61 3 -3 -71 -3 -165 1 -93 3 -224 6 -290 6 -65
-1 -116 2 -112 6 12 12 231 103 249 104 10 0 84 -25 165 -56z m483 -68 c54
-45 -33 -24 -101 25 l-30 21 33 24 32 24 18 -34 c9 -18 31 -45 48 -60z m-704
-54 c-18 -35 -41 -54 -95 -82 -93 -47 -183 -15 -237 83 l-15 27 181 0 181 0
-15 -28z"/>
</g>
</svg>
