<?xml version="1.0" standalone="no"?>
<!DOCTYPE svg PUBLIC "-//W3C//DTD SVG 20010904//EN"
 "http://www.w3.org/TR/2001/REC-SVG-20010904/DTD/svg10.dtd">
<svg version="1.0" xmlns="http://www.w3.org/2000/svg"
 width="202.000000pt" height="140.000000pt" viewBox="0 0 202.000000 140.000000"
 preserveAspectRatio="xMidYMid meet">
<metadata>
Created by potrace 1.16, written by Peter Selinger 2001-2019
</metadata>
<g transform="translate(0.000000,140.000000) scale(0.100000,-0.100000)"
fill="#000000" stroke="none">
<path d="M623 1088 c-4 -7 -6 -37 -4 -65 l3 -53 -161 0 -162 0 3 -96 3 -96
158 1 157 2 0 -66 0 -65 -160 0 -161 0 3 -96 3 -96 160 -1 160 -2 3 -77 c3
-74 4 -78 26 -78 13 0 121 67 252 156 126 85 257 174 291 197 35 23 63 44 63
47 0 6 -85 61 -387 251 -249 157 -240 152 -250 137z m78 -75 c42 -25 39 -53
-6 -53 -33 0 -35 2 -35 35 0 40 2 41 41 18z m129 -138 l0 -65 -30 0 -30 0 0
65 0 65 30 0 30 0 0 -65z m-210 0 l0 -55 -151 0 c-134 0 -150 2 -145 16 3 9 6
31 6 49 0 32 2 34 38 38 20 2 85 4 145 5 l107 2 0 -55z m110 -4 l0 -59 -32 4
c-18 1 -35 3 -38 3 -3 1 -3 26 -2 56 l4 55 34 0 34 0 0 -59z m220 -31 c0 -28
-2 -30 -40 -30 l-40 0 0 50 0 50 40 -20 c33 -17 40 -26 40 -50z m89 -27 c2 -2
-10 -3 -27 -3 -25 0 -32 4 -32 20 0 20 1 20 28 3 15 -9 29 -18 31 -20z m-209
-45 c0 -13 3 -47 6 -75 l7 -53 -42 0 -41 0 0 48 c0 26 3 57 6 69 5 19 14 24
57 32 4 0 7 -9 7 -21z m120 -53 l0 -75 -45 0 c-43 0 -45 1 -45 29 0 15 3 49 6
75 7 46 7 46 45 46 l39 0 0 -75z m110 0 l0 -75 -46 0 -46 0 6 31 c3 17 6 51 6
75 l0 44 40 0 40 0 0 -75z m-330 -5 c0 -67 -1 -70 -24 -70 -50 0 -56 8 -56 76
l0 64 40 0 40 0 0 -70z m435 33 c36 -21 65 -40 65 -43 0 -3 -24 -20 -53 -37
-49 -29 -78 -36 -92 -21 -6 6 5 138 12 138 2 0 33 -17 68 -37z m-215 -172 c0
-45 -3 -51 -33 -68 -47 -28 -57 -20 -57 46 0 32 2 60 5 63 3 2 23 5 45 6 l40
2 0 -49z m110 35 c0 -11 -70 -66 -85 -66 -7 0 -6 66 2 73 13 13 83 8 83 -7z
m-440 -51 l0 -55 -151 0 -151 0 6 23 c3 12 6 37 6 55 l0 32 145 0 145 0 0 -55z
m113 4 c4 -29 4 -56 1 -60 -3 -5 -23 -9 -45 -9 l-39 0 0 60 0 60 39 0 38 0 6
-51z m107 -9 l0 -60 -40 0 -40 0 0 60 0 60 40 0 40 0 0 -60z m-2 -90 c-2 -6
-21 -21 -44 -35 l-40 -24 4 35 c4 32 6 34 44 34 23 0 38 -4 36 -10z m-98 -35
c0 -31 -6 -38 -47 -64 -26 -17 -48 -29 -49 -28 -1 1 1 30 4 65 l4 62 44 0 c44
0 44 0 44 -35z"/>
<path d="M1111 1052 c-9 -16 9 -32 132 -119 78 -55 167 -115 197 -134 30 -18
56 -33 57 -34 2 -1 -6 -19 -17 -41 -15 -28 -19 -49 -15 -75 6 -34 4 -38 -32
-59 -21 -12 -105 -69 -186 -127 -129 -92 -146 -107 -135 -122 7 -9 13 -17 14
-19 1 -2 46 30 101 70 164 124 253 188 259 188 3 0 21 -12 39 -26 34 -26 139
-64 176 -64 18 0 19 9 19 176 l0 177 -55 -6 c-31 -3 -75 -17 -100 -30 l-44
-25 -194 144 c-107 79 -198 144 -201 144 -3 0 -10 -8 -15 -18z m517 -268 c-42
-41 -48 -44 -67 -32 -12 7 -21 16 -21 19 0 10 90 50 129 58 3 1 -16 -20 -41
-45z m-77 -50 c20 -10 29 -20 25 -30 -3 -9 -6 -20 -6 -25 0 -12 -60 -49 -79
-49 -17 0 -10 82 9 105 15 18 14 18 51 -1z m33 -119 c4 -14 25 -44 47 -66 38
-38 39 -39 12 -33 -44 11 -123 53 -130 69 -5 15 32 54 53 55 7 0 15 -11 18
-25z"/>
</g>
</svg>
