<?xml version="1.0" standalone="no"?>
<!DOCTYPE svg PUBLIC "-//W3C//DTD SVG 20010904//EN"
 "http://www.w3.org/TR/2001/REC-SVG-20010904/DTD/svg10.dtd">
<svg version="1.0" xmlns="http://www.w3.org/2000/svg"
 width="135.000000pt" height="135.000000pt" viewBox="0 0 135.000000 135.000000"
 preserveAspectRatio="xMidYMid meet">
<metadata>
Created by potrace 1.16, written by Peter Selinger 2001-2019
</metadata>
<g transform="translate(0.000000,135.000000) scale(0.100000,-0.100000)"
fill="#000000" stroke="none">
<path d="M449 1034 c-12 -15 -9 -20 19 -42 l33 -25 -46 -47 -46 -47 -49 51
c-27 28 -52 47 -56 43 -4 -4 13 -29 38 -55 33 -33 49 -59 54 -86 l7 -39 -38
41 c-51 57 -65 42 -16 -16 22 -26 43 -60 47 -77 6 -30 6 -29 -31 13 -20 23
-41 40 -46 36 -5 -3 10 -28 33 -55 45 -54 45 -79 -1 -35 -16 15 -31 24 -34 18
-4 -5 12 -26 33 -47 38 -37 51 -65 31 -65 -5 0 -19 12 -30 26 -11 14 -25 23
-32 19 -7 -5 4 -23 32 -51 36 -37 40 -45 29 -59 -7 -8 -10 -19 -6 -22 4 -4 11
-1 16 7 7 10 10 -15 11 -75 1 -113 13 -153 22 -75 4 30 7 74 7 98 0 26 5 42
12 42 9 0 9 3 0 12 -20 20 -14 43 23 78 19 18 32 37 29 42 -4 5 -19 -3 -35
-18 -42 -40 -38 -8 6 43 40 47 35 66 -7 26 -43 -41 -35 -6 9 39 27 28 34 41
26 49 -8 8 -17 2 -34 -20 -26 -36 -36 -39 -34 -11 1 11 19 38 40 60 28 28 36
43 28 51 -7 7 -18 1 -36 -20 -31 -38 -35 -38 -33 -6 0 16 19 43 48 72 l48 47
67 -48 c38 -27 110 -76 161 -109 90 -59 92 -61 75 -80 -12 -13 -18 -36 -19
-73 l-1 -54 -64 -41 c-91 -59 -299 -212 -299 -220 0 -3 6 -12 14 -18 11 -9 46
12 172 107 217 162 194 151 240 114 41 -32 118 -62 159 -62 l25 0 0 176 0 177
-51 -6 c-28 -4 -71 -17 -95 -31 l-45 -25 -184 135 c-101 74 -187 139 -190 144
-9 14 -21 12 -36 -6z m515 -269 c-38 -38 -48 -44 -64 -35 -43 23 -16 43 107
79 1 1 -18 -19 -43 -44z m-73 -53 c37 -25 25 -60 -29 -90 l-42 -23 -1 23 c-2
40 2 62 17 86 17 27 22 27 55 4z m29 -122 c7 -16 30 -46 51 -65 28 -25 34 -35
22 -35 -26 1 -105 38 -131 63 l-22 21 27 23 c36 29 38 29 53 -7z"/>
</g>
</svg>
