<?xml version="1.0" standalone="no"?>
<!DOCTYPE svg PUBLIC "-//W3C//DTD SVG 20010904//EN"
 "http://www.w3.org/TR/2001/REC-SVG-20010904/DTD/svg10.dtd">
<svg version="1.0" xmlns="http://www.w3.org/2000/svg"
 width="161.000000pt" height="139.000000pt" viewBox="0 0 161.000000 139.000000"
 preserveAspectRatio="xMidYMid meet">
<metadata>
Created by potrace 1.16, written by Peter Selinger 2001-2019
</metadata>
<g transform="translate(0.000000,139.000000) scale(0.100000,-0.100000)"
fill="#000000" stroke="none">
<path d="M303 888 c7 -238 18 -286 77 -346 60 -63 106 -82 194 -82 87 0 173
24 299 83 l87 42 0 63 c0 68 -20 122 -46 122 -12 0 -14 -5 -9 -17 25 -58 34
-92 35 -124 l0 -37 -112 -40 c-161 -57 -184 -62 -275 -62 -81 0 -84 1 -124 37
-65 58 -79 96 -89 241 -5 70 -10 171 -10 225 0 83 -2 97 -17 97 -15 0 -16 -18
-10 -202z"/>
<path d="M387 1053 c-6 -11 8 -256 24 -380 14 -115 36 -145 25 -35 -3 37 -11
143 -16 236 -8 152 -18 204 -33 179z"/>
<path d="M690 1031 c-9 -17 7 -31 138 -124 81 -57 159 -112 175 -121 15 -9 38
-23 51 -31 l24 -14 -19 -38 c-14 -27 -18 -49 -14 -74 6 -34 4 -37 -52 -74 -32
-21 -115 -78 -185 -128 -111 -78 -126 -92 -117 -108 5 -11 12 -19 14 -19 2 0
83 58 180 130 97 71 180 130 184 130 4 0 16 -9 25 -19 24 -27 108 -61 167 -68
l49 -6 0 178 0 178 -57 -6 c-31 -3 -78 -17 -105 -31 l-48 -25 -173 126 c-94
69 -181 134 -193 144 -26 24 -31 24 -44 0z m514 -274 c-37 -41 -40 -42 -61
-27 -12 8 -23 18 -23 21 0 8 90 48 109 49 7 0 -4 -19 -25 -43z m-73 -42 c25
-13 28 -20 23 -43 -4 -15 -7 -27 -8 -28 -37 -23 -76 -41 -80 -37 -11 12 -6 64
9 93 18 35 17 35 56 15z m38 -134 c11 -21 35 -51 53 -66 l33 -28 -35 8 c-44 9
-88 31 -117 58 l-23 20 32 24 c18 12 33 23 35 23 1 0 11 -17 22 -39z"/>
<path d="M550 851 c0 -56 29 -214 42 -226 7 -7 9 0 5 25 -3 19 -9 67 -12 105
-9 102 -15 135 -25 135 -6 0 -10 -17 -10 -39z"/>
<path d="M470 868 c0 -7 7 -71 16 -143 18 -144 40 -200 30 -75 -17 217 -19
230 -32 230 -8 0 -14 -6 -14 -12z"/>
<path d="M760 709 c-137 -17 -150 -20 -150 -35 0 -10 7 -13 23 -10 12 3 71 12
131 21 128 19 175 34 106 33 -25 0 -74 -4 -110 -9z"/>
</g>
</svg>
