<?xml version="1.0" standalone="no"?>
<!DOCTYPE svg PUBLIC "-//W3C//DTD SVG 20010904//EN"
 "http://www.w3.org/TR/2001/REC-SVG-20010904/DTD/svg10.dtd">
<svg version="1.0" xmlns="http://www.w3.org/2000/svg"
 width="165.000000pt" height="135.000000pt" viewBox="0 0 165.000000 135.000000"
 preserveAspectRatio="xMidYMid meet">
<metadata>
Created by potrace 1.16, written by Peter Selinger 2001-2019
</metadata>
<g transform="translate(0.000000,135.000000) scale(0.100000,-0.100000)"
fill="#000000" stroke="none">
<path d="M741 1031 c-9 -16 6 -30 117 -108 70 -50 159 -111 199 -137 l71 -46
-19 -37 c-14 -27 -18 -49 -14 -74 6 -34 4 -37 -52 -74 -32 -21 -115 -78 -185
-128 -111 -78 -126 -92 -117 -108 5 -11 12 -19 14 -19 3 0 73 51 157 113 219
162 204 154 231 129 31 -29 106 -61 161 -68 l46 -7 0 178 0 178 -50 -5 c-27
-3 -72 -16 -100 -30 l-51 -26 -195 144 c-107 79 -197 144 -199 144 -2 0 -9 -8
-14 -19z m514 -273 c-22 -24 -40 -43 -40 -44 0 -1 -11 7 -25 18 -24 19 -24 20
-5 31 28 16 77 35 95 36 8 1 -3 -17 -25 -41z m-74 -44 c20 -10 29 -20 25 -30
-3 -9 -6 -21 -6 -28 0 -12 -60 -46 -82 -46 -14 0 -5 85 12 105 15 18 14 18 51
-1z m37 -128 c7 -19 29 -48 48 -65 19 -17 29 -31 22 -31 -27 1 -90 29 -124 55
l-35 27 32 24 c18 13 36 24 39 24 3 0 12 -15 18 -34z"/>
<path d="M404 882 c-81 -29 -104 -47 -104 -85 0 -30 5 -35 58 -61 84 -41 148
-44 249 -8 78 26 83 27 89 10 8 -28 74 -68 111 -68 l33 0 0 116 c0 116 0 116
-22 110 -13 -3 -28 -6 -34 -6 -6 0 -28 -11 -48 -25 l-36 -25 -76 26 c-104 35
-158 39 -220 16z m385 -24 c-15 -29 -15 -118 0 -147 17 -30 12 -33 -28 -14
-45 22 -61 58 -35 79 18 15 18 15 -3 11 -15 -4 -23 0 -23 9 0 8 10 14 21 14
17 0 19 3 10 14 -8 10 -8 16 2 24 10 9 50 28 65 31 1 1 -3 -9 -9 -21z m-174
-16 c62 -16 70 -21 70 -42 0 -22 -8 -27 -65 -43 -87 -24 -189 -20 -252 12 -27
12 -48 26 -48 30 0 5 26 20 58 34 69 32 136 34 237 9z"/>
<path d="M750 629 c-19 -12 -40 -29 -46 -37 -11 -15 -19 -14 -80 8 -99 36
-190 34 -267 -4 -56 -27 -58 -29 -55 -64 3 -34 8 -39 62 -66 78 -38 153 -39
255 -2 l75 26 25 -24 c28 -27 71 -46 102 -46 18 0 19 8 19 115 l0 115 -27 0
c-16 0 -44 -10 -63 -21z m34 -36 c-7 -21 -13 -47 -13 -58 0 -11 6 -37 13 -57
15 -43 15 -43 -23 -24 -44 23 -56 42 -34 55 16 9 16 10 -4 11 -14 0 -23 6 -23
16 0 11 6 14 23 9 22 -6 22 -6 2 10 -20 16 -20 17 13 46 47 42 63 39 46 -8z
m-145 -24 c43 -11 51 -17 51 -36 0 -54 -233 -80 -317 -35 -23 12 -44 26 -48
31 -7 13 62 49 112 59 42 9 125 1 202 -19z"/>
</g>
</svg>
