<?xml version="1.0" standalone="no"?>
<!DOCTYPE svg PUBLIC "-//W3C//DTD SVG 20010904//EN"
 "http://www.w3.org/TR/2001/REC-SVG-20010904/DTD/svg10.dtd">
<svg version="1.0" xmlns="http://www.w3.org/2000/svg"
 width="207.000000pt" height="135.000000pt" viewBox="0 0 207.000000 135.000000"
 preserveAspectRatio="xMidYMid meet">
<metadata>
Created by potrace 1.16, written by Peter Selinger 2001-2019
</metadata>
<g transform="translate(0.000000,135.000000) scale(0.100000,-0.100000)"
fill="#000000" stroke="none">
<path d="M1160 1035 c-6 -8 -9 -19 -6 -24 8 -12 249 -183 326 -231 30 -18 57
-35 59 -37 2 -2 -4 -18 -14 -37 -13 -23 -16 -45 -13 -74 6 -40 5 -42 -41 -68
-58 -34 -309 -212 -317 -226 -4 -5 0 -17 8 -25 13 -12 18 -11 44 10 52 43 321
237 329 237 4 0 23 -13 41 -30 35 -30 117 -60 166 -60 l28 0 0 176 0 177 -55
-6 c-32 -3 -75 -17 -101 -31 l-46 -26 -127 92 c-69 50 -153 113 -186 138 -79
61 -81 62 -95 45z m507 -277 c-31 -32 -43 -39 -55 -31 -29 18 -24 33 20 53 69
32 80 25 35 -22z m-77 -43 c45 -23 40 -58 -12 -89 l-43 -26 -9 29 c-6 21 -3
38 9 65 10 20 19 36 22 36 2 0 17 -7 33 -15z m40 -124 c6 -16 28 -46 48 -65
20 -21 29 -36 21 -36 -23 0 -113 46 -132 67 -17 20 -17 21 10 42 36 27 38 26
53 -8z"/>
<path d="M306 841 c-3 -5 26 -44 66 -86 l71 -76 -74 -75 c-53 -53 -70 -77 -62
-85 7 -7 25 5 64 46 29 31 59 65 67 76 9 14 20 18 34 13 14 -4 18 -2 14 5 -5
7 7 11 36 11 36 -1 41 -3 28 -13 -52 -44 -103 -108 -94 -117 7 -7 29 11 68 55
47 53 61 64 72 54 11 -9 14 -8 14 5 0 11 9 16 32 16 l32 0 -58 -59 c-39 -40
-56 -63 -50 -72 5 -9 25 7 70 56 57 63 64 67 80 54 16 -12 17 -12 11 4 -5 13
-1 17 16 17 18 0 12 -10 -38 -60 -41 -41 -56 -63 -49 -70 7 -7 30 10 74 55 57
60 64 65 79 51 14 -14 12 -20 -24 -56 -27 -28 -36 -43 -29 -50 8 -8 29 9 69
55 l58 66 23 -22 c28 -26 45 -18 20 9 -16 18 -13 19 96 25 62 4 188 7 281 7
104 0 167 4 167 10 0 6 -70 10 -187 11 -104 1 -195 2 -203 3 -8 2 -45 3 -82 4
-60 2 -67 4 -61 20 6 16 5 16 -14 0 -31 -28 -46 -22 -102 37 -29 30 -56 55
-62 55 -19 0 -8 -27 26 -60 41 -40 43 -50 11 -50 -17 0 -39 17 -75 57 -35 40
-53 55 -61 47 -7 -7 2 -22 30 -49 46 -45 49 -55 16 -55 -15 0 -41 19 -75 55
-29 30 -56 55 -62 55 -19 0 -8 -22 36 -69 l46 -49 -37 1 c-31 1 -45 10 -92 59
-30 32 -59 58 -64 58 -20 0 -5 -28 39 -72 l48 -49 -46 3 c-43 3 -50 8 -110 76
-64 72 -73 80 -83 63z m546 -183 c-9 -9 -15 -9 -24 0 -9 9 -7 12 12 12 19 0
21 -3 12 -12z"/>
</g>
</svg>
