<?xml version="1.0" standalone="no"?>
<!DOCTYPE svg PUBLIC "-//W3C//DTD SVG 20010904//EN"
 "http://www.w3.org/TR/2001/REC-SVG-20010904/DTD/svg10.dtd">
<svg version="1.0" xmlns="http://www.w3.org/2000/svg"
 width="163.000000pt" height="169.000000pt" viewBox="0 0 163.000000 169.000000"
 preserveAspectRatio="xMidYMid meet">
<metadata>
Created by potrace 1.16, written by Peter Selinger 2001-2019
</metadata>
<g transform="translate(0.000000,169.000000) scale(0.100000,-0.100000)"
fill="#000000" stroke="none">
<path d="M928 1379 c-16 -9 -7 -25 74 -147 50 -75 136 -196 190 -269 54 -72
98 -138 98 -146 0 -31 -32 -116 -57 -155 -16 -22 -104 -109 -198 -193 -164
-146 -186 -169 -168 -169 12 0 344 266 371 298 34 39 80 139 88 188 4 31 2 49
-10 66 -9 12 -16 18 -16 13 0 -10 -184 268 -290 437 -30 48 -57 88 -60 87 -3
0 -13 -4 -22 -10z"/>
<path d="M431 1213 c-18 -4 -32 -23 -62 -88 -95 -206 -92 -318 12 -535 70
-147 76 -155 97 -137 9 7 67 40 127 72 151 80 507 284 523 300 11 10 -16 30
-150 107 -177 104 -513 289 -519 287 -2 -1 -15 -4 -28 -6z m79 -73 l59 -30 5
-52 c6 -59 29 -407 30 -451 1 -25 -8 -33 -69 -67 -38 -22 -75 -39 -81 -40 -16
0 -80 172 -101 273 -17 82 -17 92 -1 168 15 74 78 229 93 229 3 0 32 -13 65
-30z m359 -184 l244 -123 -240 -119 -240 -120 -6 180 c-7 186 -9 306 -4 306 1
-1 112 -56 246 -124z"/>
</g>
</svg>
