<?xml version="1.0" standalone="no"?>
<!DOCTYPE svg PUBLIC "-//W3C//DTD SVG 20010904//EN"
 "http://www.w3.org/TR/2001/REC-SVG-20010904/DTD/svg10.dtd">
<svg version="1.0" xmlns="http://www.w3.org/2000/svg"
 width="197.000000pt" height="148.000000pt" viewBox="0 0 197.000000 148.000000"
 preserveAspectRatio="xMidYMid meet">
<metadata>
Created by potrace 1.16, written by Peter Selinger 2001-2019
</metadata>
<g transform="translate(0.000000,148.000000) scale(0.100000,-0.100000)"
fill="#000000" stroke="none">
<path d="M805 1106 c-39 -40 -79 -90 -90 -111 l-20 -37 -198 7 -199 6 5 -206
c3 -137 8 -210 15 -217 9 -9 12 -9 12 0 0 9 47 12 179 12 l180 0 31 -59 c17
-32 56 -89 86 -127 75 -94 91 -95 233 -13 215 126 621 370 626 378 6 10 -759
441 -783 441 -4 0 -39 -33 -77 -74z m459 -170 l378 -194 -43 -25 c-24 -13
-174 -95 -333 -182 -158 -86 -311 -170 -339 -187 -49 -28 -52 -29 -65 -11 -23
32 -110 187 -117 211 -6 21 -4 22 44 22 28 0 51 5 51 10 0 6 -13 10 -30 10
-34 0 -35 3 -24 109 5 46 11 61 23 61 14 1 14 2 -1 11 -15 8 -18 24 -18 84 0
53 -4 75 -12 76 -7 1 1 5 17 9 28 7 27 8 -13 9 l-43 1 18 31 c14 25 120 149
126 149 1 0 172 -87 381 -194z m-644 -81 l0 -75 -30 0 -30 0 0 75 0 75 30 0
30 0 0 -75z m54 60 c-4 -8 -8 -15 -10 -15 -2 0 -4 7 -4 15 0 8 4 15 10 15 5 0
7 -7 4 -15z m78 -60 l3 -75 -38 0 c-38 0 -39 0 -32 33 12 57 37 117 51 117 9
0 13 -22 16 -75z m-362 0 c0 -64 -1 -65 -26 -65 -25 0 -26 2 -20 38 3 20 6 49
6 65 0 20 5 27 20 27 18 0 20 -7 20 -65z m130 0 l0 -65 -47 0 -48 0 3 65 4 65
44 0 44 0 0 -65z m240 -180 c0 -77 -2 -85 -19 -85 -15 0 -22 14 -36 68 -9 37
-19 72 -21 79 -3 12 15 20 54 22 21 1 22 -2 22 -84z m-240 52 c0 -12 3 -46 6
-74 l7 -53 -57 0 -56 0 0 69 c0 69 0 70 28 73 73 8 72 9 72 -15z m103 -49 c3
-39 4 -74 2 -78 -2 -3 -20 -4 -39 -2 l-36 4 0 74 0 74 34 0 33 0 6 -72z m-233
45 c0 -10 3 -42 6 -70 l7 -53 -38 0 -38 0 7 38 c3 20 6 52 6 70 0 27 3 32 25
32 17 0 25 -6 25 -17z m279 -120 c1 -7 -3 -13 -9 -13 -5 0 -10 15 -9 33 0 27
2 29 9 12 5 -11 9 -26 9 -32z"/>
<path d="M887 1025 c-6 -14 115 -118 211 -180 31 -21 41 -33 36 -44 -4 -9 -10
-34 -13 -57 -6 -38 -13 -47 -110 -120 -57 -43 -110 -84 -117 -90 -8 -6 -12
-19 -8 -28 7 -18 20 -21 29 -6 9 15 216 180 225 180 4 0 14 -7 21 -17 19 -22
72 -43 109 -43 l30 0 0 130 0 131 -37 -7 c-21 -3 -53 -15 -71 -25 l-32 -18
-129 104 c-71 58 -132 105 -134 105 -3 0 -7 -7 -10 -15z m341 -194 c-23 -30
-39 -34 -46 -13 -3 9 44 39 66 42 2 0 -7 -13 -20 -29z m-40 -62 c2 -19 -3 -28
-23 -37 -32 -15 -41 1 -25 42 13 35 44 32 48 -5z m12 -60 c0 -6 10 -24 21 -41
l22 -30 -24 7 c-13 4 -34 17 -47 28 -22 20 -22 22 -6 34 22 16 34 17 34 2z"/>
</g>
</svg>
