<?xml version="1.0" standalone="no"?>
<!DOCTYPE svg PUBLIC "-//W3C//DTD SVG 20010904//EN"
 "http://www.w3.org/TR/2001/REC-SVG-20010904/DTD/svg10.dtd">
<svg version="1.0" xmlns="http://www.w3.org/2000/svg"
 width="156.000000pt" height="138.000000pt" viewBox="0 0 156.000000 138.000000"
 preserveAspectRatio="xMidYMid meet">
<metadata>
Created by potrace 1.16, written by Peter Selinger 2001-2019
</metadata>
<g transform="translate(0.000000,138.000000) scale(0.100000,-0.100000)"
fill="#000000" stroke="none">
<path d="M649 1064 c-11 -14 -9 -19 11 -35 61 -46 272 -192 322 -222 l54 -32
-18 -30 c-14 -22 -18 -42 -14 -76 4 -44 3 -46 -32 -65 -19 -10 -103 -67 -186
-126 l-150 -107 -27 63 c-26 61 -27 66 -21 218 l5 155 66 7 c36 3 90 6 119 6
33 0 51 4 47 10 -4 6 -55 10 -121 10 l-114 0 0 110 0 110 -29 0 c-24 0 -39
-12 -81 -62 -49 -59 -100 -145 -100 -169 0 -6 -18 -54 -41 -106 -22 -53 -38
-97 -35 -100 4 -4 36 41 63 90 8 16 15 8 46 -56 19 -42 47 -92 60 -112 l25
-36 -24 -42 c-40 -72 -75 -159 -63 -155 7 2 33 41 59 86 35 61 49 79 58 70 27
-27 16 2 -29 82 -59 101 -89 178 -89 225 l0 35 75 0 76 0 -1 -169 -2 -168 42
-84 c47 -93 48 -95 55 -87 3 3 1 18 -5 33 -9 24 -9 26 4 16 13 -11 44 8 192
118 l177 130 31 -26 c40 -34 89 -54 154 -63 l52 -7 0 179 0 179 -37 -6 c-68
-12 -108 -24 -128 -39 -11 -9 -26 -16 -33 -16 -7 0 -98 63 -203 140 -104 77
-192 140 -193 140 -2 0 -10 -7 -17 -16z m-90 -176 l1 -48 -70 0 c-38 0 -70 4
-70 8 0 13 60 104 94 142 l31 35 7 -45 c3 -25 7 -66 7 -92z m604 -93 c-43 -45
-43 -45 -69 -28 l-26 16 29 16 c27 14 92 40 104 41 3 0 -14 -20 -38 -45z m-74
-50 c41 -21 32 -59 -21 -86 -22 -11 -43 -18 -46 -15 -18 19 7 116 30 116 5 0
22 -7 37 -15z m88 -193 l36 -32 -47 14 c-26 8 -66 27 -89 42 l-41 27 34 28 34
29 18 -38 c10 -20 34 -52 55 -70z"/>
</g>
</svg>
