<?xml version="1.0" standalone="no"?>
<!DOCTYPE svg PUBLIC "-//W3C//DTD SVG 20010904//EN"
 "http://www.w3.org/TR/2001/REC-SVG-20010904/DTD/svg10.dtd">
<svg version="1.0" xmlns="http://www.w3.org/2000/svg"
 width="161.000000pt" height="135.000000pt" viewBox="0 0 161.000000 135.000000"
 preserveAspectRatio="xMidYMid meet">
<metadata>
Created by potrace 1.16, written by Peter Selinger 2001-2019
</metadata>
<g transform="translate(0.000000,135.000000) scale(0.100000,-0.100000)"
fill="#000000" stroke="none">
<path d="M702 1038 c-19 -19 -15 -26 28 -54 l41 -27 -38 -39 -37 -38 -58 57
c-31 31 -64 58 -72 59 -7 1 -40 -25 -72 -57 l-58 -59 -62 61 c-34 34 -64 56
-68 51 -3 -6 21 -36 53 -67 36 -34 58 -62 54 -71 -3 -8 0 -14 6 -14 6 0 11
-12 11 -27 0 -27 -1 -26 -49 21 -33 32 -51 44 -56 36 -5 -7 12 -29 43 -56 36
-31 49 -50 45 -61 -4 -11 -3 -14 5 -9 8 5 12 -2 12 -21 0 -27 0 -27 -49 21
-34 34 -51 44 -56 36 -5 -8 10 -30 43 -60 38 -35 48 -50 39 -59 -8 -8 -19 -3
-44 21 -56 54 -50 21 7 -37 43 -43 50 -56 37 -61 -10 -3 -27 4 -44 20 -28 26
-43 33 -43 19 0 -4 21 -29 47 -55 44 -45 46 -48 30 -66 -22 -24 -9 -37 15 -15
17 15 18 13 18 -70 0 -47 5 -89 10 -92 6 -4 10 25 10 81 0 76 2 85 15 74 21
-17 19 -1 -2 23 -17 19 -16 21 35 67 35 31 49 50 42 55 -7 4 -26 -6 -45 -25
-26 -25 -33 -28 -38 -16 -4 11 10 32 44 63 34 32 46 50 39 57 -7 7 -21 0 -44
-23 -23 -22 -36 -29 -41 -21 -5 7 13 32 44 64 28 29 48 55 44 59 -4 4 -26 -12
-50 -35 l-43 -42 3 32 c3 23 18 48 51 81 58 59 48 77 -11 19 l-44 -43 4 38 c4
38 34 79 89 118 l26 19 56 -50 c34 -32 53 -56 49 -66 -3 -7 0 -14 6 -14 6 0
11 -12 11 -27 0 -27 -1 -26 -49 21 -35 34 -51 44 -56 35 -6 -8 9 -28 43 -59
43 -37 50 -48 40 -59 -11 -12 -10 -13 5 -8 13 5 17 1 17 -20 0 -27 -1 -26 -49
21 -35 35 -51 44 -57 35 -5 -8 10 -28 44 -60 38 -34 48 -49 39 -58 -8 -8 -19
-3 -44 21 -55 53 -50 21 5 -35 41 -41 50 -55 40 -65 -9 -9 -19 -5 -45 20 -53
51 -51 22 2 -32 48 -48 48 -50 30 -70 -14 -16 -15 -20 -4 -20 8 0 20 5 27 12
9 9 12 -8 12 -79 0 -66 4 -94 14 -102 11 -10 49 14 192 120 147 110 180 130
193 120 69 -50 145 -81 198 -81 l23 0 0 176 0 177 -50 -5 c-27 -3 -72 -16
-101 -31 l-51 -25 -138 101 c-76 56 -141 110 -144 121 -2 10 -10 15 -16 11 -5
-3 -28 7 -49 24 -44 35 -43 35 -59 19z m192 -170 c57 -40 124 -85 149 -100
l46 -27 -20 -38 c-14 -27 -18 -49 -15 -75 6 -36 4 -38 -39 -64 -25 -14 -104
-68 -175 -120 l-130 -93 0 71 c0 61 2 69 15 58 20 -17 19 -1 -2 22 -16 18 -14
21 32 68 54 55 55 83 0 30 -30 -29 -35 -31 -41 -16 -5 13 8 30 46 65 36 33 49
50 41 56 -8 4 -26 -5 -46 -25 -22 -22 -35 -28 -40 -20 -5 7 13 33 45 65 57 58
56 84 -2 29 -20 -19 -39 -34 -42 -34 -2 0 -3 11 -2 26 2 14 23 46 50 73 58 59
46 77 -13 20 l-42 -40 4 36 c2 24 15 47 37 70 19 19 35 35 37 35 2 0 50 -33
107 -72z m320 -111 c-37 -40 -40 -42 -61 -29 -13 8 -23 18 -23 22 0 11 80 49
104 50 15 0 11 -8 -20 -43z m-73 -43 c20 -10 29 -20 25 -30 -3 -9 -6 -21 -6
-28 0 -12 -60 -46 -80 -46 -16 0 -11 73 6 98 18 26 17 26 55 6z m-711 -80 c0
-8 -4 -12 -10 -9 -5 3 -10 10 -10 16 0 5 5 9 10 9 6 0 10 -7 10 -16z m260 0
c0 -8 -4 -12 -10 -9 -5 3 -10 10 -10 16 0 5 5 9 10 9 6 0 10 -7 10 -16z m489
-53 c11 -21 35 -51 53 -66 l33 -28 -35 8 c-39 8 -110 46 -129 68 -9 12 -5 19
21 36 18 11 34 21 35 21 2 0 11 -17 22 -39z m-749 -23 c0 -16 -3 -19 -11 -11
-6 6 -8 16 -5 22 11 17 16 13 16 -11z m260 0 c0 -16 -3 -19 -11 -11 -6 6 -8
16 -5 22 11 17 16 13 16 -11z"/>
</g>
</svg>
