<?xml version="1.0" standalone="no"?>
<!DOCTYPE svg PUBLIC "-//W3C//DTD SVG 20010904//EN"
 "http://www.w3.org/TR/2001/REC-SVG-20010904/DTD/svg10.dtd">
<svg version="1.0" xmlns="http://www.w3.org/2000/svg"
 width="185.000000pt" height="135.000000pt" viewBox="0 0 185.000000 135.000000"
 preserveAspectRatio="xMidYMid meet">
<metadata>
Created by potrace 1.16, written by Peter Selinger 2001-2019
</metadata>
<g transform="translate(0.000000,135.000000) scale(0.100000,-0.100000)"
fill="#000000" stroke="none">
<path d="M936 1034 c-3 -9 -4 -20 -1 -24 8 -13 262 -193 325 -231 30 -18 57
-34 59 -35 2 -2 -4 -15 -13 -29 -16 -25 -25 -100 -13 -112 3 -3 -42 -38 -101
-77 -134 -90 -262 -185 -262 -194 0 -4 4 -13 9 -21 7 -11 46 13 178 111 92 68
173 127 180 131 7 5 30 -5 54 -23 45 -32 124 -60 171 -60 l28 0 0 176 0 176
-54 -4 c-32 -3 -76 -16 -105 -30 l-49 -26 -195 144 c-107 79 -197 144 -200
144 -3 0 -8 -7 -11 -16z m507 -278 c-36 -42 -38 -43 -60 -27 -12 9 -23 19 -23
22 0 8 90 48 108 49 7 0 -4 -20 -25 -44z m-72 -41 c25 -13 28 -20 23 -43 -4
-15 -7 -27 -8 -28 -37 -23 -76 -41 -80 -37 -11 12 -6 64 9 93 18 35 17 35 56
15z m33 -120 c3 -13 23 -43 45 -65 21 -22 35 -40 31 -40 -22 0 -100 34 -125
55 l-30 25 28 25 c35 31 43 31 51 0z"/>
<path d="M436 812 c-4 -7 -5 -16 -2 -20 3 -5 135 -7 293 -5 l288 4 -60 -56
c-33 -30 -102 -90 -153 -132 l-92 -76 -60 17 c-33 9 -98 20 -144 23 l-85 6
-60 -39 c-34 -21 -61 -42 -61 -46 0 -20 25 -17 48 5 60 55 77 60 165 53 73 -5
153 -22 198 -40 28 -12 346 280 326 300 -2 2 -137 7 -299 11 -218 5 -297 3
-302 -5z"/>
<path d="M420 735 c0 -12 19 -15 113 -15 176 0 397 12 391 22 -3 4 -117 8
-255 8 -215 0 -249 -2 -249 -15z"/>
<path d="M390 675 c0 -13 32 -15 228 -15 125 0 233 4 240 9 14 9 -197 21 -365
21 -85 0 -103 -3 -103 -15z"/>
<path d="M360 615 c0 -13 24 -15 158 -14 86 1 182 4 212 8 l55 6 -85 8 c-47 4
-142 7 -212 7 -107 0 -128 -2 -128 -15z"/>
</g>
</svg>
