<?xml version="1.0" standalone="no"?>
<!DOCTYPE svg PUBLIC "-//W3C//DTD SVG 20010904//EN"
 "http://www.w3.org/TR/2001/REC-SVG-20010904/DTD/svg10.dtd">
<svg version="1.0" xmlns="http://www.w3.org/2000/svg"
 width="177.000000pt" height="135.000000pt" viewBox="0 0 177.000000 135.000000"
 preserveAspectRatio="xMidYMid meet">
<metadata>
Created by potrace 1.16, written by Peter Selinger 2001-2019
</metadata>
<g transform="translate(0.000000,135.000000) scale(0.100000,-0.100000)"
fill="#000000" stroke="none">
<path d="M851 1031 c-9 -16 7 -31 129 -117 76 -55 165 -116 198 -136 l60 -37
-19 -38 c-14 -27 -18 -49 -14 -74 6 -34 4 -37 -52 -74 -32 -21 -115 -78 -185
-128 -111 -78 -126 -92 -117 -108 5 -11 12 -19 14 -19 3 0 84 59 181 131 147
109 180 130 193 120 71 -51 145 -81 203 -81 l28 0 0 176 0 176 -54 -4 c-30 -2
-77 -16 -106 -30 l-52 -26 -194 144 c-107 79 -197 144 -199 144 -2 0 -9 -8
-14 -19z m514 -273 c-22 -24 -40 -43 -40 -44 0 -1 -11 7 -25 18 -24 19 -24 20
-5 31 28 16 77 35 95 36 8 1 -3 -17 -25 -41z m-74 -44 c20 -10 29 -20 25 -30
-3 -9 -6 -21 -6 -28 0 -12 -60 -46 -80 -46 -16 0 -11 73 6 98 18 26 17 26 55
6z m38 -133 c11 -21 34 -50 51 -65 55 -45 -43 -19 -106 29 l-35 27 32 24 c18
13 34 24 36 24 1 0 11 -17 22 -39z"/>
<path d="M366 952 c-47 -93 -69 -178 -64 -250 5 -72 45 -188 98 -280 27 -46
33 -51 45 -38 8 8 54 35 102 61 191 103 423 240 420 248 -7 23 -519 307 -553
307 -18 0 -29 -11 -48 -48z m103 -16 l47 -25 13 -197 c7 -108 15 -202 18 -210
3 -8 -17 -24 -56 -43 -33 -17 -64 -31 -68 -31 -10 0 -58 125 -74 193 -19 80
-7 183 31 265 18 40 35 72 37 72 2 0 25 -11 52 -24z m331 -170 l149 -73 -187
-94 c-103 -52 -190 -96 -194 -97 -5 -2 -8 85 -8 193 l0 197 45 -27 c25 -14
113 -59 195 -99z"/>
</g>
</svg>
