<?xml version="1.0" standalone="no"?>
<!DOCTYPE svg PUBLIC "-//W3C//DTD SVG 20010904//EN"
 "http://www.w3.org/TR/2001/REC-SVG-20010904/DTD/svg10.dtd">
<svg version="1.0" xmlns="http://www.w3.org/2000/svg"
 width="161.000000pt" height="135.000000pt" viewBox="0 0 161.000000 135.000000"
 preserveAspectRatio="xMidYMid meet">
<metadata>
Created by potrace 1.16, written by Peter Selinger 2001-2019
</metadata>
<g transform="translate(0.000000,135.000000) scale(0.100000,-0.100000)"
fill="#000000" stroke="none">
<path d="M831 1032 c-8 -16 10 -32 130 -116 76 -55 165 -115 197 -134 31 -20
59 -37 61 -38 2 -2 6 -32 8 -68 l5 -64 -43 -27 c-116 -72 -359 -244 -359 -255
0 -4 7 -13 15 -20 13 -11 19 -9 38 7 30 28 326 243 343 250 7 2 29 20 49 39
36 34 33 44 -7 23 -18 -10 -20 -9 -15 6 4 9 7 32 7 51 0 32 2 34 21 24 11 -7
23 -10 25 -7 6 6 -54 67 -66 67 -4 0 -94 63 -198 140 -105 77 -193 140 -196
140 -3 0 -10 -8 -15 -18z"/>
<path d="M366 942 c-65 -128 -80 -230 -50 -333 13 -43 95 -223 109 -237 2 -2
20 7 42 21 21 13 108 63 193 110 205 112 303 171 307 182 1 6 -86 60 -195 121
-387 219 -367 212 -406 136z m109 -15 l40 -23 12 -164 c6 -91 13 -186 15 -211
l5 -46 -64 -32 -64 -31 -19 45 c-77 179 -78 314 -4 457 17 34 27 34 79 5z
m353 -301 c-68 -32 -156 -76 -195 -98 l-73 -39 0 195 0 196 196 -98 195 -97
-123 -59z"/>
</g>
</svg>
