<?xml version="1.0" standalone="no"?>
<!DOCTYPE svg PUBLIC "-//W3C//DTD SVG 20010904//EN"
 "http://www.w3.org/TR/2001/REC-SVG-20010904/DTD/svg10.dtd">
<svg version="1.0" xmlns="http://www.w3.org/2000/svg"
 width="194.000000pt" height="135.000000pt" viewBox="0 0 194.000000 135.000000"
 preserveAspectRatio="xMidYMid meet">
<metadata>
Created by potrace 1.16, written by Peter Selinger 2001-2019
</metadata>
<g transform="translate(0.000000,135.000000) scale(0.100000,-0.100000)"
fill="#000000" stroke="none">
<path d="M932 1038 c-7 -7 -12 -15 -12 -19 0 -9 195 -148 358 -255 l123 -81
-128 -95 c-70 -52 -175 -128 -232 -168 -105 -76 -122 -93 -103 -112 12 -12
202 123 383 272 l106 88 87 -55 c48 -31 89 -53 92 -50 3 2 -28 28 -68 58 -40
29 -77 56 -81 59 -6 6 56 62 167 152 11 10 16 18 10 18 -6 0 -55 -33 -110 -74
l-99 -74 -45 32 c-220 160 -285 207 -352 258 -42 32 -78 58 -80 58 -2 0 -9 -5
-16 -12z"/>
<path d="M440 808 l0 -21 290 7 291 7 -73 -67 c-137 -126 -240 -204 -257 -194
-28 14 -167 40 -219 40 -40 0 -60 -7 -112 -41 -42 -27 -59 -44 -53 -50 7 -7
28 3 64 31 l54 41 80 -5 c74 -6 167 -24 206 -40 11 -5 37 10 80 45 84 69 249
231 249 245 0 10 -304 24 -527 24 -68 0 -73 -1 -73 -22z"/>
<path d="M420 745 c0 -13 26 -15 194 -15 106 0 222 3 257 7 l64 7 -50 7 c-27
4 -143 7 -257 8 -181 1 -208 0 -208 -14z"/>
<path d="M395 690 c-4 -6 -4 -14 -1 -17 7 -7 468 -4 475 3 10 10 -16 12 -236
18 -167 5 -233 4 -238 -4z"/>
<path d="M360 625 c0 -13 28 -15 193 -14 224 1 286 13 117 22 -204 12 -310 9
-310 -8z"/>
</g>
</svg>
