<?xml version="1.0" standalone="no"?>
<!DOCTYPE svg PUBLIC "-//W3C//DTD SVG 20010904//EN"
 "http://www.w3.org/TR/2001/REC-SVG-20010904/DTD/svg10.dtd">
<svg version="1.0" xmlns="http://www.w3.org/2000/svg"
 width="202.000000pt" height="135.000000pt" viewBox="0 0 202.000000 135.000000"
 preserveAspectRatio="xMidYMid meet">
<metadata>
Created by potrace 1.16, written by Peter Selinger 2001-2019
</metadata>
<g transform="translate(0.000000,135.000000) scale(0.100000,-0.100000)"
fill="#000000" stroke="none">
<path d="M1122 1038 c-7 -7 -12 -15 -12 -19 0 -8 269 -201 348 -249 52 -32 53
-33 35 -52 -12 -14 -18 -37 -19 -74 -1 -54 -1 -55 -50 -85 -83 -53 -314 -221
-314 -229 0 -4 6 -13 14 -19 11 -10 45 11 173 107 215 162 193 151 239 114 41
-32 118 -62 159 -62 l25 0 0 176 0 177 -51 -6 c-28 -4 -71 -18 -96 -31 l-45
-26 -111 82 c-62 46 -149 111 -194 145 -45 35 -83 63 -85 63 -2 0 -9 -5 -16
-12z m506 -278 c-32 -35 -41 -39 -58 -30 -30 16 -24 29 23 50 68 31 79 25 35
-20z m-70 -47 c40 -25 30 -61 -26 -91 l-42 -23 -1 23 c-2 40 2 62 17 86 17 27
16 26 52 5z m32 -123 c7 -16 30 -46 51 -65 28 -25 34 -35 22 -35 -26 1 -105
38 -131 63 l-22 21 27 23 c36 29 38 29 53 -7z"/>
<path d="M733 916 c-21 -30 -42 -60 -48 -68 -8 -12 -30 -13 -115 -7 -58 4
-142 7 -188 8 l-83 1 3 -122 3 -123 163 0 164 0 15 -45 c8 -25 20 -51 26 -58
9 -12 -19 -13 -171 -7 -176 8 -182 7 -182 -12 0 -18 7 -19 181 -15 l180 5 53
-58 c40 -42 58 -55 69 -49 61 36 406 291 404 299 -5 17 -409 305 -427 305 -5
0 -26 -24 -47 -54z m235 -104 c97 -66 188 -125 202 -132 24 -13 24 -13 5 -27
-11 -7 -104 -70 -207 -138 l-187 -124 -31 38 c-16 22 -44 69 -62 107 -43 92
-43 156 0 248 28 60 86 146 98 146 2 0 84 -53 182 -118z m-588 -82 l0 -90 -31
0 -32 0 7 46 c3 26 6 66 6 90 0 40 2 44 25 44 25 0 25 -1 25 -90z m78 -2 l3
-88 -32 0 c-30 0 -31 2 -25 31 3 17 6 58 6 91 0 56 1 59 23 56 21 -3 22 -8 25
-90z m84 22 c1 -38 2 -80 2 -92 1 -16 -5 -24 -19 -26 -41 -5 -46 9 -39 101 7
83 8 87 30 87 23 0 24 -4 26 -70z m107 15 c-10 -30 -19 -73 -19 -95 0 -38 -2
-40 -30 -40 l-30 0 0 64 c0 35 3 78 6 95 6 29 9 31 49 31 l43 0 -19 -55z"/>
</g>
</svg>
