<?xml version="1.0" standalone="no"?>
<!DOCTYPE svg PUBLIC "-//W3C//DTD SVG 20010904//EN"
 "http://www.w3.org/TR/2001/REC-SVG-20010904/DTD/svg10.dtd">
<svg version="1.0" xmlns="http://www.w3.org/2000/svg"
 width="189.000000pt" height="135.000000pt" viewBox="0 0 189.000000 135.000000"
 preserveAspectRatio="xMidYMid meet">
<metadata>
Created by potrace 1.16, written by Peter Selinger 2001-2019
</metadata>
<g transform="translate(0.000000,135.000000) scale(0.100000,-0.100000)"
fill="#000000" stroke="none">
<path d="M971 1031 c-9 -16 8 -32 142 -126 84 -59 173 -120 199 -135 l46 -29
-19 -38 c-14 -27 -18 -49 -14 -74 6 -34 4 -37 -52 -74 -32 -21 -115 -78 -185
-128 -111 -78 -126 -92 -117 -108 5 -11 12 -19 14 -19 3 0 73 51 157 113 219
162 204 154 231 129 32 -30 109 -62 167 -69 l50 -6 0 178 0 177 -54 -4 c-30
-2 -78 -16 -107 -30 l-52 -26 -36 28 c-67 52 -351 260 -356 260 -2 0 -9 -8
-14 -19z m513 -274 c-37 -41 -40 -42 -61 -27 -12 8 -23 18 -23 21 0 10 82 48
104 49 15 0 11 -8 -20 -43z m-73 -42 c25 -13 28 -20 23 -43 -4 -15 -7 -27 -8
-28 -56 -36 -77 -43 -83 -28 -11 30 13 114 34 114 2 0 17 -7 34 -15z m37 -129
c7 -19 29 -49 49 -66 l36 -32 -34 7 c-37 8 -114 49 -125 67 -7 11 38 58 55 58
4 0 13 -15 19 -34z"/>
<path d="M605 854 c-28 -15 -106 -64 -175 -108 -167 -110 -167 -110 -8 -217
64 -43 143 -92 177 -110 l60 -31 78 57 c123 90 232 179 232 190 0 6 -26 30
-57 55 -80 63 -249 190 -254 190 -2 0 -26 -12 -53 -26z m97 -56 c40 -28 111
-76 158 -105 47 -30 83 -57 80 -60 -3 -4 -74 -54 -159 -110 l-154 -104 -51 41
c-28 23 -92 71 -143 107 l-92 67 31 22 30 23 72 -53 c98 -72 126 -90 126 -79
0 6 -36 40 -80 78 -45 37 -79 72 -78 77 2 5 15 17 29 25 25 15 28 14 115 -51
49 -36 93 -66 98 -66 14 0 -51 65 -112 112 l-54 42 22 16 c22 16 25 15 113
-52 51 -37 95 -68 99 -68 19 0 1 20 -77 85 -77 65 -82 71 -68 88 9 9 18 17 20
17 1 0 36 -23 75 -52z"/>
</g>
</svg>
