<?xml version="1.0" standalone="no"?>
<!DOCTYPE svg PUBLIC "-//W3C//DTD SVG 20010904//EN"
 "http://www.w3.org/TR/2001/REC-SVG-20010904/DTD/svg10.dtd">
<svg version="1.0" xmlns="http://www.w3.org/2000/svg"
 width="127.000000pt" height="138.000000pt" viewBox="0 0 127.000000 138.000000"
 preserveAspectRatio="xMidYMid meet">
<metadata>
Created by potrace 1.16, written by Peter Selinger 2001-2019
</metadata>
<g transform="translate(0.000000,138.000000) scale(0.100000,-0.100000)"
fill="#000000" stroke="none">
<path d="M353 1062 c-10 -17 3 -29 115 -109 127 -91 244 -169 263 -175 6 -2 4
-18 -6 -41 -12 -29 -13 -46 -6 -74 6 -20 9 -38 8 -39 -1 -1 -29 -19 -62 -40
-44 -28 -286 -197 -313 -219 -6 -5 11 -35 20 -35 6 0 93 61 195 136 l184 137
22 -21 c36 -33 86 -53 143 -59 l54 -6 0 178 0 177 -47 -6 c-27 -4 -76 -21
-109 -37 l-61 -31 -154 113 c-85 61 -170 125 -189 141 -41 33 -42 33 -57 10z
m537 -238 c-17 -15 -37 -39 -46 -55 l-15 -29 -29 21 -29 22 24 19 c24 19 89
46 113 47 8 1 0 -11 -18 -25z m-100 -79 c23 -12 30 -22 30 -45 0 -25 -7 -33
-36 -47 -31 -15 -36 -15 -44 -3 -13 20 -12 67 0 91 13 23 13 23 50 4z m102
-180 c37 -34 38 -35 11 -29 -41 9 -109 43 -124 60 -11 13 -8 19 16 39 l30 23
13 -29 c8 -16 32 -45 54 -64z"/>
<path d="M300 698 c0 -278 8 -428 21 -373 4 17 7 166 8 333 1 262 -1 302 -14
302 -13 0 -15 -36 -15 -262z"/>
</g>
</svg>
