<?xml version="1.0" standalone="no"?>
<!DOCTYPE svg PUBLIC "-//W3C//DTD SVG 20010904//EN"
 "http://www.w3.org/TR/2001/REC-SVG-20010904/DTD/svg10.dtd">
<svg version="1.0" xmlns="http://www.w3.org/2000/svg"
 width="201.000000pt" height="135.000000pt" viewBox="0 0 201.000000 135.000000"
 preserveAspectRatio="xMidYMid meet">
<metadata>
Created by potrace 1.16, written by Peter Selinger 2001-2019
</metadata>
<g transform="translate(0.000000,135.000000) scale(0.100000,-0.100000)"
fill="#000000" stroke="none">
<path d="M1000 1035 c-8 -9 -9 -19 -4 -24 24 -20 174 -126 317 -222 l158 -107
-148 -109 c-81 -60 -187 -137 -235 -172 -49 -34 -88 -65 -88 -69 1 -19 19 -34
31 -26 34 20 302 224 376 286 45 37 87 68 93 68 5 0 47 -23 91 -51 45 -28 83
-48 86 -45 3 2 -25 26 -62 53 -37 26 -74 53 -82 58 -11 8 7 27 82 90 52 43 95
83 95 88 0 9 -13 0 -135 -91 l-80 -61 -30 23 c-16 12 -97 71 -180 131 -82 59
-176 128 -207 152 -31 23 -59 43 -61 43 -3 0 -10 -7 -17 -15z"/>
<path d="M436 918 c-88 -96 -136 -179 -136 -235 0 -70 64 -149 186 -230 30
-20 54 -40 54 -46 0 -6 8 -3 18 5 9 9 80 51 157 93 207 114 325 185 325 195 0
12 -444 267 -506 291 -20 7 -32 -2 -98 -73z m83 -140 l1 -78 -90 0 c-80 0 -90
2 -90 18 0 27 56 111 113 170 l52 53 7 -43 c3 -24 7 -78 7 -120z m493 -77 c4
-3 -96 -5 -221 -3 l-228 3 -7 67 c-3 37 -6 90 -6 119 l0 52 228 -116 c125 -64
230 -119 234 -122z m-239 -126 c-112 -58 -205 -105 -208 -105 -3 0 -5 45 -5
100 l0 99 88 4 c48 1 141 4 207 5 l120 2 -202 -105z m-249 83 c3 -7 7 -59 10
-116 l5 -103 -27 20 c-42 30 -133 123 -154 156 -31 52 -27 55 72 55 64 0 92
-4 94 -12z"/>
</g>
</svg>
