<?xml version="1.0" standalone="no"?>
<!DOCTYPE svg PUBLIC "-//W3C//DTD SVG 20010904//EN"
 "http://www.w3.org/TR/2001/REC-SVG-20010904/DTD/svg10.dtd">
<svg version="1.0" xmlns="http://www.w3.org/2000/svg"
 width="139.000000pt" height="135.000000pt" viewBox="0 0 139.000000 135.000000"
 preserveAspectRatio="xMidYMid meet">
<metadata>
Created by potrace 1.16, written by Peter Selinger 2001-2019
</metadata>
<g transform="translate(0.000000,135.000000) scale(0.100000,-0.100000)"
fill="#000000" stroke="none">
<path d="M471 1031 c-9 -15 -4 -23 25 -44 l36 -25 -116 -122 c-64 -68 -114
-125 -112 -128 9 -9 78 49 168 140 l87 88 150 -101 150 -101 -16 -25 c-10 -15
-16 -45 -16 -73 l1 -49 -72 -47 c-39 -26 -109 -74 -155 -107 -99 -71 -76 -85
-192 121 -77 137 -99 164 -99 123 0 -20 99 -194 155 -273 33 -45 33 -47 14
-60 -18 -11 -18 -15 -6 -32 13 -17 22 -12 148 81 74 54 155 114 180 132 l47
33 43 -31 c45 -33 124 -61 171 -61 l28 0 0 176 0 176 -54 -4 c-30 -2 -77 -16
-105 -30 l-51 -25 -195 143 c-108 79 -198 144 -200 144 -2 0 -9 -8 -14 -19z
m513 -273 c-21 -24 -41 -41 -44 -39 -3 2 -14 10 -25 18 l-20 14 20 12 c26 16
77 35 94 36 7 1 -4 -18 -25 -41z m-73 -43 c25 -13 28 -20 23 -43 -4 -15 -7
-27 -8 -28 -37 -23 -76 -41 -80 -37 -11 12 -6 64 9 93 18 35 17 35 56 15z m37
-129 c7 -19 29 -49 49 -66 l36 -32 -34 7 c-37 8 -114 49 -125 67 -7 11 38 58
55 58 4 0 13 -15 19 -34z"/>
</g>
</svg>
