<?xml version="1.0" standalone="no"?>
<!DOCTYPE svg PUBLIC "-//W3C//DTD SVG 20010904//EN"
 "http://www.w3.org/TR/2001/REC-SVG-20010904/DTD/svg10.dtd">
<svg version="1.0" xmlns="http://www.w3.org/2000/svg"
 width="151.000000pt" height="135.000000pt" viewBox="0 0 151.000000 135.000000"
 preserveAspectRatio="xMidYMid meet">
<metadata>
Created by potrace 1.16, written by Peter Selinger 2001-2019
</metadata>
<g transform="translate(0.000000,135.000000) scale(0.100000,-0.100000)"
fill="#000000" stroke="none">
<path d="M590 1035 c-8 -10 -9 -19 -4 -25 17 -16 301 -215 347 -242 l46 -27
-20 -38 c-14 -27 -18 -49 -15 -75 6 -34 3 -38 -32 -59 -64 -39 -332 -232 -332
-240 0 -3 6 -12 14 -18 11 -10 49 14 192 120 147 109 180 130 193 120 71 -51
145 -81 203 -81 l28 0 0 176 0 176 -54 -4 c-30 -2 -78 -16 -106 -30 l-52 -26
-194 144 c-107 79 -196 144 -198 144 -2 0 -9 -7 -16 -15z m515 -277 c-22 -24
-40 -44 -40 -45 0 -1 -11 7 -25 18 -25 19 -25 19 -5 32 26 16 76 35 95 36 8 1
-3 -17 -25 -41z m-74 -44 c20 -10 29 -20 25 -30 -3 -9 -6 -21 -6 -28 0 -12
-60 -46 -80 -46 -16 0 -11 73 6 98 18 26 17 26 55 6z m37 -128 c7 -19 29 -49
49 -66 l36 -32 -34 7 c-43 9 -88 31 -116 58 l-23 20 32 24 c18 12 35 23 38 23
3 0 12 -15 18 -34z"/>
<path d="M541 962 c-47 -23 -72 -61 -78 -113 -7 -72 43 -143 107 -151 l25 -3
0 139 c0 84 -4 141 -10 143 -5 1 -25 -5 -44 -15z m9 -36 c-13 -35 -13 -147 0
-182 16 -41 4 -41 -34 -1 -54 58 -52 139 4 190 37 33 45 31 30 -7z"/>
<path d="M396 809 c-35 -10 -63 -35 -83 -73 -22 -42 -13 -119 18 -153 23 -25
87 -58 95 -50 3 2 3 67 2 144 l-3 139 -29 -7z m-12 -61 c-17 -65 -17 -81 -1
-145 13 -49 13 -51 -4 -43 -50 28 -78 98 -59 155 9 27 60 85 74 85 2 0 -3 -23
-10 -52z"/>
<path d="M532 650 c-41 -25 -72 -76 -72 -118 0 -71 57 -142 114 -142 l27 0 -3
137 c-3 153 -7 159 -66 123z m18 -34 c-13 -35 -13 -147 0 -180 5 -14 6 -26 1
-26 -20 0 -53 37 -65 74 -18 52 -5 104 34 139 37 33 45 31 30 -7z"/>
</g>
</svg>
