<?xml version="1.0" standalone="no"?>
<!DOCTYPE svg PUBLIC "-//W3C//DTD SVG 20010904//EN"
 "http://www.w3.org/TR/2001/REC-SVG-20010904/DTD/svg10.dtd">
<svg version="1.0" xmlns="http://www.w3.org/2000/svg"
 width="175.000000pt" height="140.000000pt" viewBox="0 0 175.000000 140.000000"
 preserveAspectRatio="xMidYMid meet">
<metadata>
Created by potrace 1.16, written by Peter Selinger 2001-2019
</metadata>
<g transform="translate(0.000000,140.000000) scale(0.100000,-0.100000)"
fill="#000000" stroke="none">
<path d="M522 1084 c3 -11 13 -36 22 -57 16 -37 16 -38 -1 -33 -45 13 -113 18
-113 8 0 -13 18 -18 88 -27 37 -5 55 -13 63 -27 10 -18 8 -19 -53 -12 -95 10
-61 -15 38 -28 55 -8 85 -17 98 -31 19 -19 18 -19 -10 -13 -78 15 -124 18
-124 7 0 -13 18 -17 127 -31 56 -7 97 -19 125 -36 24 -14 34 -23 23 -20 -48
12 -199 35 -204 31 -13 -14 24 -25 122 -37 59 -7 107 -17 107 -23 0 -31 -50
-65 -140 -94 -52 -17 -102 -31 -109 -31 -8 0 -41 20 -72 45 -54 43 -79 54 -79
38 0 -5 21 -23 47 -40 29 -21 40 -33 30 -33 -10 0 -41 18 -70 39 -57 44 -89
44 -36 0 45 -38 12 -40 -37 -3 -19 15 -38 24 -42 20 -4 -4 5 -17 21 -28 15
-11 27 -23 27 -27 0 -4 -16 -15 -35 -24 -19 -9 -35 -21 -35 -27 0 -14 5 -13
50 10 22 11 46 20 55 20 28 0 16 -18 -20 -30 -19 -6 -35 -16 -35 -21 0 -15 18
-10 81 22 33 16 68 28 77 26 11 -2 -4 -14 -40 -31 -32 -15 -58 -32 -58 -37 0
-16 22 -10 84 25 59 33 63 34 121 24 32 -5 61 -11 63 -12 2 -2 -22 -18 -52
-36 -56 -32 -73 -47 -62 -57 3 -3 39 16 81 42 42 26 79 44 82 41 10 -10 -39
-51 -115 -96 -40 -23 -75 -47 -78 -52 -14 -22 9 -18 55 11 50 30 51 30 51 8 0
-16 -15 -31 -60 -56 -33 -19 -60 -41 -60 -48 0 -18 3 -17 65 22 l55 36 0 -51
c0 -27 5 -50 10 -50 6 0 10 27 10 60 0 45 4 62 15 66 8 4 15 11 15 16 0 6 -7
8 -15 4 -23 -9 -19 37 5 52 17 10 20 10 18 -5 -1 -10 0 -48 0 -85 3 -95 22
-86 22 10 1 43 7 90 15 107 13 29 13 26 14 -47 1 -45 5 -78 11 -78 6 0 10 40
10 100 0 71 5 110 15 130 9 17 17 30 18 30 1 0 1 -41 -1 -91 -3 -72 -1 -90 10
-87 10 4 13 33 13 119 1 102 11 159 30 159 3 0 53 -29 111 -66 59 -36 108 -63
111 -60 3 3 -48 40 -113 83 l-118 78 -37 90 c-20 49 -42 91 -48 93 -18 6 -13
-12 23 -93 28 -59 31 -73 17 -66 -27 15 -36 29 -74 125 -39 95 -43 103 -54 93
-3 -4 10 -45 30 -91 34 -81 34 -84 13 -75 -12 6 -29 27 -36 47 -30 83 -70 163
-79 157 -6 -3 4 -38 25 -82 19 -42 33 -77 31 -79 -1 -2 -12 -1 -24 2 -24 7
-40 37 -24 42 16 5 13 20 -5 24 -9 2 -26 28 -39 58 -22 52 -55 86 -43 44z
m236 -444 c-26 -35 -51 -44 -93 -32 -29 8 -28 9 35 35 83 33 85 33 58 -3z"/>
<path d="M831 1062 c-13 -24 -16 -20 147 -136 139 -99 298 -196 321 -196 11 1
6 8 -12 22 l-28 21 73 48 73 49 7 -167 c4 -92 6 -168 4 -170 -3 -3 -102 61
-145 94 -2 1 7 11 20 22 42 35 6 23 -86 -30 -109 -63 -374 -250 -375 -265 0
-5 5 -15 11 -21 8 -8 63 27 199 128 104 76 193 139 198 139 5 0 52 -25 103
-55 l94 -55 6 88 c11 148 10 332 -2 332 -6 0 -54 -25 -106 -55 -53 -30 -99
-55 -103 -55 -5 0 -327 232 -377 272 -8 6 -15 3 -22 -10z"/>
</g>
</svg>
