<?xml version="1.0" standalone="no"?>
<!DOCTYPE svg PUBLIC "-//W3C//DTD SVG 20010904//EN"
 "http://www.w3.org/TR/2001/REC-SVG-20010904/DTD/svg10.dtd">
<svg version="1.0" xmlns="http://www.w3.org/2000/svg"
 width="201.000000pt" height="168.000000pt" viewBox="0 0 201.000000 168.000000"
 preserveAspectRatio="xMidYMid meet">
<metadata>
Created by potrace 1.16, written by Peter Selinger 2001-2019
</metadata>
<g transform="translate(0.000000,168.000000) scale(0.100000,-0.100000)"
fill="#000000" stroke="none">
<path d="M1003 1374 c-9 -4 -13 -37 -13 -116 l0 -111 -39 7 c-22 3 -45 8 -53
11 -21 8 -138 -105 -203 -197 l-59 -84 -168 4 -168 5 0 -23 0 -23 193 7 c105
4 196 12 202 17 5 6 3 9 -8 9 -19 0 60 117 138 202 l45 50 60 -7 60 -7 1 -49
c1 -27 3 -53 4 -59 1 -5 3 -58 4 -116 l1 -106 98 4 97 4 3 132 c1 73 5 132 8
132 2 0 31 -14 64 -30 68 -34 80 -52 111 -166 30 -109 24 -262 -13 -352 -34
-82 -89 -172 -105 -172 -7 0 -13 -10 -13 -22 l0 -21 226 6 c125 3 228 8 230 9
2 2 -22 77 -52 168 -95 281 -183 456 -259 514 -37 29 -152 86 -172 86 -10 0
-13 35 -13 139 0 100 -4 142 -12 147 -15 10 -178 16 -195 8z m167 -51 c0 -25
-2 -26 -46 -19 -26 3 -57 6 -70 6 -17 0 -24 6 -24 20 0 16 8 19 63 22 76 4 77
3 77 -29z m0 -74 c0 -26 -3 -29 -32 -29 -18 0 -50 3 -70 6 -31 6 -38 11 -38
30 0 21 5 23 63 26 34 2 65 2 70 0 4 -2 7 -16 7 -33z m0 -74 c0 -24 -2 -25
-70 -25 -68 0 -70 1 -70 25 0 24 2 25 70 25 68 0 70 -1 70 -25z m0 -60 c0 -8
-1 -15 -2 -15 -2 0 -23 7 -48 14 l-45 15 48 0 c35 1 47 -3 47 -14z m-55 -30
c6 -2 -11 -4 -37 -4 -35 -1 -48 3 -48 13 0 12 7 13 38 5 20 -6 42 -12 47 -14z
m55 -50 c0 -24 -2 -25 -68 -25 -76 0 -82 2 -75 31 5 16 14 19 74 19 67 0 69
-1 69 -25z m4 -61 c3 -9 6 -24 6 -35 0 -17 -8 -19 -80 -19 l-80 0 0 28 c0 16
3 32 7 35 3 4 37 7 74 7 52 0 68 -4 73 -16z m265 -92 c65 -102 241 -498 241
-543 0 -9 -20 -10 -77 -5 -42 3 -125 6 -186 6 l-109 0 16 23 c90 123 117 201
117 332 0 79 -14 159 -36 218 -13 31 2 18 34 -31z m-259 -28 c0 -38 -3 -45
-16 -40 -9 3 -45 6 -80 6 l-64 0 0 40 0 40 80 0 80 0 0 -46z"/>
</g>
</svg>
