<?xml version="1.0" standalone="no"?>
<!DOCTYPE svg PUBLIC "-//W3C//DTD SVG 20010904//EN"
 "http://www.w3.org/TR/2001/REC-SVG-20010904/DTD/svg10.dtd">
<svg version="1.0" xmlns="http://www.w3.org/2000/svg"
 width="201.000000pt" height="146.000000pt" viewBox="0 0 201.000000 146.000000"
 preserveAspectRatio="xMidYMid meet">
<metadata>
Created by potrace 1.16, written by Peter Selinger 2001-2019
</metadata>
<g transform="translate(0.000000,146.000000) scale(0.100000,-0.100000)"
fill="#000000" stroke="none">
<path d="M831 1115 c-43 -37 -56 -43 -68 -34 -20 18 -42 -5 -27 -29 9 -13 0
-31 -45 -95 l-56 -78 -167 7 c-167 7 -168 7 -168 -15 0 -20 4 -21 123 -21 175
0 280 10 267 25 -7 8 4 31 35 74 24 35 46 65 49 68 3 3 35 -11 71 -32 52 -29
65 -40 59 -53 -57 -137 -60 -178 -17 -261 l31 -59 -94 -52 c-88 -49 -109 -70
-83 -85 5 -4 53 19 105 50 l95 56 43 -47 43 -48 45 27 c26 15 110 70 188 122
78 52 143 95 145 95 3 0 2 -9 -10 -121 -9 -80 -102 -269 -132 -269 -7 0 -13
-10 -13 -22 l0 -21 226 6 c124 3 227 7 229 9 2 2 -20 73 -49 158 -87 258 -164
421 -233 491 -63 66 -191 123 -368 164 -177 41 -164 41 -224 -10z m231 -21
c99 -22 231 -71 256 -94 19 -18 53 -95 68 -156 7 -27 6 -27 -52 15 -147 107
-324 220 -336 216 -7 -3 -25 -25 -40 -50 l-27 -45 -61 36 c-33 20 -60 39 -60
42 0 3 14 20 30 37 30 31 32 31 90 23 33 -4 92 -15 132 -24z m68 -139 c52 -34
134 -85 183 -114 101 -61 109 -79 47 -111 -22 -11 -108 -61 -192 -111 l-153
-90 -27 32 -27 32 99 65 c55 35 100 68 100 74 0 5 -48 -15 -106 -46 -58 -31
-109 -54 -114 -51 -14 9 -50 114 -50 147 0 17 12 57 26 89 l27 59 105 -55 c57
-31 107 -53 110 -50 4 3 2 9 -4 13 -6 4 -52 33 -103 66 -80 51 -90 60 -79 75
31 41 41 50 52 44 6 -4 54 -35 106 -68z m406 -260 c65 -138 150 -352 142 -360
-2 -2 -86 -2 -185 2 l-181 6 44 64 c95 139 112 318 48 510 -18 52 78 -110 132
-222z"/>
</g>
</svg>
