<?xml version="1.0" standalone="no"?>
<!DOCTYPE svg PUBLIC "-//W3C//DTD SVG 20010904//EN"
 "http://www.w3.org/TR/2001/REC-SVG-20010904/DTD/svg10.dtd">
<svg version="1.0" xmlns="http://www.w3.org/2000/svg"
 width="198.000000pt" height="175.000000pt" viewBox="0 0 198.000000 175.000000"
 preserveAspectRatio="xMidYMid meet">
<metadata>
Created by potrace 1.16, written by Peter Selinger 2001-2019
</metadata>
<g transform="translate(0.000000,175.000000) scale(0.100000,-0.100000)"
fill="#000000" stroke="none">
<path d="M700 1448 c0 -2 9 -32 20 -67 11 -35 19 -65 17 -67 -1 -2 -31 6 -66
16 -72 23 -94 25 -89 8 2 -6 40 -21 84 -33 62 -17 82 -26 91 -45 7 -14 10 -26
9 -28 -2 -2 -33 5 -70 14 -58 16 -90 15 -73 -2 3 -4 51 -19 106 -34 63 -18
112 -38 135 -56 19 -16 33 -30 31 -32 -1 -2 -48 10 -103 27 -114 36 -112 35
-112 17 0 -8 43 -24 128 -46 97 -26 136 -41 164 -64 20 -17 35 -32 34 -34 -2
-1 -56 13 -120 33 -65 19 -119 35 -122 35 -2 0 -4 -7 -4 -15 0 -8 2 -15 5 -15
18 0 282 -74 297 -83 15 -10 17 -20 12 -58 -12 -88 46 -158 135 -166 57 -5
108 19 136 64 l20 32 96 1 c121 0 220 10 213 21 -3 5 -72 9 -155 9 l-149 0 0
24 c0 24 0 24 155 31 159 7 212 24 83 26 -233 4 -247 6 -276 37 -57 61 -145
65 -208 10 -30 -26 -37 -29 -48 -17 -7 8 -28 74 -47 147 -21 83 -38 132 -46
132 -18 0 -17 -3 21 -130 l34 -112 -32 32 c-28 26 -38 50 -66 156 -30 115 -43
144 -57 131 -4 -5 31 -140 53 -203 5 -14 -2 -11 -25 11 -30 29 -37 47 -81 213
-6 25 -17 42 -25 42 -19 0 -20 10 15 -100 16 -52 30 -98 30 -102 0 -15 -30 -8
-50 12 -24 24 -26 50 -5 50 8 0 15 5 15 10 0 6 -7 10 -15 10 -18 0 -28 21 -50
103 -10 35 -22 57 -31 57 -8 0 -14 -1 -14 -2z"/>
<path d="M1362 1028 c3 -7 24 -15 49 -16 68 -6 269 9 269 19 0 5 -72 9 -161 9
-124 0 -160 -3 -157 -12z"/>
<path d="M645 1009 c-9 -13 -16 -8 95 -68 l95 -51 -47 0 c-39 0 -63 10 -148
60 -105 62 -115 66 -125 51 -3 -5 38 -33 90 -61 67 -36 95 -57 95 -70 0 -13
-30 -34 -106 -75 -74 -40 -103 -60 -95 -68 7 -7 44 9 124 55 81 47 128 68 165
73 29 4 52 4 52 2 0 -3 -49 -31 -110 -63 -60 -31 -110 -61 -110 -65 0 -22 27
-12 143 57 122 71 128 74 191 74 91 0 91 16 0 23 -69 5 -83 10 -182 68 -59 34
-110 64 -114 66 -4 2 -10 -2 -13 -8z"/>
<path d="M416 982 c-6 -10 152 -102 174 -102 22 0 8 -19 -21 -29 -24 -8 -36
-8 -48 1 -9 7 -18 14 -20 15 -2 1 2 9 9 18 14 17 7 19 -19 5 -14 -7 -34 0 -85
30 -62 36 -86 42 -86 21 0 -4 27 -20 60 -36 33 -16 60 -31 60 -35 0 -3 -31
-21 -70 -40 -38 -19 -70 -37 -70 -41 0 -21 24 -15 86 21 70 40 97 47 124 30
17 -11 20 -8 -50 -44 -68 -36 -78 -44 -59 -51 8 -3 62 22 119 55 58 33 111 58
118 55 6 -2 12 0 12 5 0 8 -173 110 -213 125 -8 4 -18 2 -21 -3z"/>
<path d="M1363 798 c-2 -5 -1 -13 3 -19 5 -9 49 -10 157 -5 141 6 167 10 156
20 -8 8 -311 11 -316 4z"/>
<path d="M1055 771 c-8 -7 -272 -81 -290 -81 -3 0 -5 -7 -5 -15 0 -8 2 -15 4
-15 3 0 57 16 122 35 64 20 118 34 120 32 2 -2 -13 -17 -34 -33 -27 -22 -71
-39 -164 -64 -85 -22 -128 -38 -128 -46 0 -19 2 -18 114 17 54 17 100 28 102
26 14 -14 -79 -62 -167 -87 -55 -15 -103 -30 -106 -34 -17 -17 15 -18 73 -2
37 9 68 16 70 14 1 -2 -2 -14 -9 -28 -9 -19 -29 -28 -92 -45 -52 -14 -81 -27
-83 -37 -3 -14 8 -13 75 7 43 12 79 22 80 21 1 -1 -7 -32 -17 -69 -15 -54 -16
-67 -5 -67 8 0 20 23 30 58 22 81 32 102 50 102 8 0 15 5 15 10 0 6 -7 10 -15
10 -21 0 -19 26 5 50 20 20 50 27 50 13 0 -5 -14 -51 -30 -103 -35 -110 -34
-100 -15 -100 8 0 19 17 25 43 42 155 52 183 77 209 14 15 28 27 29 25 1 -1
-11 -47 -27 -101 -33 -112 -34 -116 -16 -116 7 0 25 50 46 129 28 111 38 134
66 161 l33 32 -34 -112 c-38 -127 -39 -130 -21 -130 8 0 25 49 46 133 19 72
41 140 49 150 13 15 13 17 1 17 -8 0 -19 -4 -24 -9z"/>
</g>
</svg>
