<?xml version="1.0" standalone="no"?>
<!DOCTYPE svg PUBLIC "-//W3C//DTD SVG 20010904//EN"
 "http://www.w3.org/TR/2001/REC-SVG-20010904/DTD/svg10.dtd">
<svg version="1.0" xmlns="http://www.w3.org/2000/svg"
 width="119.000000pt" height="147.000000pt" viewBox="0 0 119.000000 147.000000"
 preserveAspectRatio="xMidYMid meet">
<metadata>
Created by potrace 1.16, written by Peter Selinger 2001-2019
</metadata>
<g transform="translate(0.000000,147.000000) scale(0.100000,-0.100000)"
fill="#000000" stroke="none">
<path d="M730 1092 c-135 -78 -430 -267 -430 -276 0 -3 14 -25 30 -49 34 -51
36 -57 16 -57 -7 0 -19 -6 -25 -13 -9 -11 27 -42 177 -149 231 -167 362 -252
373 -241 10 10 24 800 15 836 -3 15 -10 27 -14 27 -4 0 -68 -35 -142 -78z
m116 -260 c-3 -2 -68 -1 -145 3 l-141 7 0 54 0 54 143 93 142 93 3 -149 c1
-83 0 -152 -2 -155z m-326 48 l0 -40 -62 0 -63 0 60 40 c33 22 61 40 63 40 1
0 2 -18 2 -40z m197 -120 l22 -50 -38 0 c-34 0 -39 4 -58 44 -12 24 -19 47
-16 50 4 3 20 6 37 6 27 0 34 -6 53 -50z m133 -6 l0 -56 -31 6 c-17 3 -37 6
-44 6 -7 0 -15 6 -18 13 -3 6 -12 29 -21 50 l-16 37 65 0 65 0 0 -56z m-413 1
l22 -45 -37 0 c-35 0 -40 4 -60 45 l-22 45 38 0 c34 -1 39 -5 59 -45z m73 26
c18 -34 13 -71 -10 -71 -19 0 -31 15 -50 64 -9 24 -8 26 20 26 19 0 33 -7 40
-19z m108 -26 l22 -45 -35 0 c-38 0 -56 22 -53 64 4 45 40 34 66 -19z m232
-122 c0 -32 3 -116 7 -187 l6 -129 -156 118 -157 117 0 64 0 63 118 4 c64 1
132 4 150 5 l32 2 0 -57z m-326 10 c12 -76 10 -77 -36 -44 -24 17 -56 42 -73
56 l-30 24 66 1 66 0 7 -37z"/>
</g>
</svg>
