<?xml version="1.0" standalone="no"?>
<!DOCTYPE svg PUBLIC "-//W3C//DTD SVG 20010904//EN"
 "http://www.w3.org/TR/2001/REC-SVG-20010904/DTD/svg10.dtd">
<svg version="1.0" xmlns="http://www.w3.org/2000/svg"
 width="281.000000pt" height="147.000000pt" viewBox="0 0 281.000000 147.000000"
 preserveAspectRatio="xMidYMid meet">
<metadata>
Created by potrace 1.16, written by Peter Selinger 2001-2019
</metadata>
<g transform="translate(0.000000,147.000000) scale(0.100000,-0.100000)"
fill="#000000" stroke="none">
<path d="M2192 1041 c-33 -69 -68 -151 -77 -181 -10 -30 -21 -57 -25 -60 -13
-8 38 -186 74 -264 30 -64 144 -236 156 -236 11 1 114 195 136 256 13 35 31
104 40 153 l16 90 -45 94 c-24 51 -70 134 -100 183 -50 81 -59 91 -86 91 -28
0 -32 -7 -89 -126z m223 -113 l55 -98 -10 -70 c-5 -39 -15 -91 -20 -117 -12
-53 -81 -230 -110 -283 l-19 -35 -1 90 c-1 50 -3 106 -5 125 -2 19 -6 159 -10
310 l-6 275 36 -50 c20 -27 60 -93 90 -147z m-177 81 c-13 -13 -31 -35 -41
-49 -9 -14 0 9 20 50 32 64 38 71 41 49 2 -18 -5 -35 -20 -50z m22 -50 c0 -16
-3 -28 -8 -25 -4 2 -27 -27 -52 -65 -73 -111 -69 -107 -70 -84 0 19 113 205
125 205 3 0 5 -14 5 -31z m-47 -191 c-55 -83 -58 -86 -65 -61 -6 21 3 42 50
115 55 85 57 87 65 61 7 -24 0 -40 -50 -115z m15 -88 c-24 -38 -46 -69 -50
-70 -22 -1 -3 56 40 120 42 64 47 69 50 46 2 -18 -11 -50 -40 -96z m52 -18 c0
-15 -12 -44 -26 -63 -14 -19 -29 -41 -34 -49 -9 -13 -11 -13 -20 0 -5 8 -10
18 -10 21 0 11 74 119 82 119 4 0 8 -13 8 -28z m8 -235 l-3 -49 -32 64 -31 65
26 41 27 42 8 -58 c4 -31 6 -79 5 -105z"/>
<path d="M310 985 c-9 -11 8 -34 89 -117 l100 -104 -100 -100 c-54 -54 -98
-103 -96 -108 9 -26 31 -9 118 88 90 100 95 104 113 88 18 -16 19 -16 13 1 -6
15 1 17 51 17 l57 0 -80 -80 c-64 -65 -77 -82 -66 -92 10 -11 18 -6 43 22 96
109 131 141 141 131 16 -16 30 -14 24 3 -4 11 6 15 43 18 l50 3 -82 -82 c-67
-67 -80 -85 -69 -95 10 -11 28 4 96 77 l84 90 21 -21 21 -21 -50 -55 c-48 -53
-62 -78 -42 -78 4 0 47 39 94 88 l86 87 23 -22 22 -23 -54 -55 c-40 -40 -51
-58 -43 -66 8 -8 29 8 79 61 38 39 74 79 80 88 11 15 16 14 48 -17 46 -44 57
-34 16 13 l-32 36 189 0 c269 0 583 12 583 22 0 4 -62 8 -137 8 -76 0 -243 3
-371 7 -225 6 -232 7 -216 25 10 10 13 18 7 18 -5 0 -18 -9 -28 -20 -33 -37
-58 -25 -139 62 -62 69 -76 80 -82 65 -5 -14 7 -32 46 -72 55 -56 58 -75 10
-75 -23 0 -43 15 -101 80 -58 64 -75 77 -86 68 -12 -9 -2 -24 52 -78 l66 -67
-41 -1 c-39 -2 -45 2 -115 76 -54 57 -76 74 -85 66 -8 -8 5 -28 49 -75 48 -52
56 -65 43 -70 -9 -4 -21 -3 -26 1 -5 5 -17 3 -27 -3 -17 -11 -29 -2 -98 73
-64 69 -82 83 -92 72 -11 -10 0 -25 56 -82 l69 -70 -42 0 c-24 0 -42 5 -42 11
0 8 -5 7 -16 -2 -17 -14 -26 -6 -161 143 -42 47 -53 55 -63 43z m620 -236 c0
-3 -9 -14 -20 -24 -20 -18 -21 -18 -35 1 -20 27 -19 29 20 29 19 0 35 -3 35
-6z m130 2 c0 -19 -31 -35 -48 -25 -30 20 -25 34 12 34 20 0 36 -4 36 -9z"/>
</g>
</svg>
