<?xml version="1.0" standalone="no"?>
<!DOCTYPE svg PUBLIC "-//W3C//DTD SVG 20010904//EN"
 "http://www.w3.org/TR/2001/REC-SVG-20010904/DTD/svg10.dtd">
<svg version="1.0" xmlns="http://www.w3.org/2000/svg"
 width="223.000000pt" height="339.000000pt" viewBox="0 0 223.000000 339.000000"
 preserveAspectRatio="xMidYMid meet">
<metadata>
Created by potrace 1.16, written by Peter Selinger 2001-2019
</metadata>
<g transform="translate(0.000000,339.000000) scale(0.100000,-0.100000)"
fill="#000000" stroke="none">
<path d="M1537 3071 c-3 -13 -3 -112 0 -222 l5 -199 -153 0 c-151 0 -152 0
-134 20 10 11 14 20 8 20 -5 0 -18 -9 -28 -20 -11 -12 -28 -20 -39 -18 -12 2
-52 37 -91 78 -38 41 -74 75 -80 75 -21 0 -8 -25 38 -75 51 -56 55 -73 16 -78
-19 -2 -41 14 -103 78 -52 53 -83 77 -89 71 -10 -10 67 -108 104 -135 15 -10
11 -12 -26 -14 -43 -1 -46 0 -116 78 -58 65 -75 78 -86 68 -12 -9 -2 -23 53
-79 l67 -67 -57 0 -57 1 -71 78 c-57 63 -74 76 -85 67 -12 -9 -2 -24 51 -77
36 -37 66 -70 66 -74 0 -4 -18 -7 -41 -7 -24 0 -38 4 -34 10 9 14 -9 12 -23
-2 -10 -9 -15 -9 -25 2 -7 8 -51 57 -97 108 -67 75 -85 90 -97 80 -12 -9 4
-29 88 -114 l103 -104 -98 -99 c-89 -91 -108 -120 -80 -127 5 -1 29 21 53 49
121 142 140 160 158 146 15 -12 16 -12 10 4 -6 15 1 17 56 17 l62 0 -85 -85
c-68 -69 -82 -87 -71 -97 10 -11 28 4 96 77 67 73 86 88 96 78 7 -7 18 -13 23
-13 6 0 5 5 -2 12 -22 22 -13 28 40 28 l53 0 -83 -83 c-67 -67 -80 -85 -70
-96 11 -10 28 4 95 76 75 80 84 87 102 76 30 -19 37 -16 16 7 -18 20 -17 20
26 20 l44 0 -85 -85 c-63 -63 -81 -88 -73 -96 9 -9 33 11 95 76 l84 88 28 -18
27 -18 -57 -58 c-47 -48 -56 -61 -45 -71 10 -11 16 -8 33 12 35 44 139 150
147 150 4 0 20 -13 36 -30 38 -39 45 -30 10 12 -33 39 -45 36 148 41 l147 3 0
-156 c0 -86 3 -198 7 -249 l6 -92 112 3 112 3 5 475 c3 261 4 476 3 477 -1 2
-56 6 -122 9 -118 7 -120 7 -126 -15z m213 -144 l0 -132 -77 3 c-43 2 -84 5
-90 7 -10 3 -13 37 -13 124 l0 120 68 4 c37 2 77 4 90 5 22 2 22 1 22 -131z
m0 -222 l0 -65 -90 0 -90 0 0 60 0 59 58 4 c31 2 72 4 90 5 l32 2 0 -65z m0
-181 l0 -96 -87 6 c-49 3 -89 5 -90 6 -2 0 -3 41 -3 90 l0 90 90 0 90 0 0 -96z
m-598 64 l-22 -22 -22 22 -22 22 44 0 44 0 -22 -22z m600 -190 c2 -7 6 -66 7
-130 l3 -118 -99 7 c-54 3 -99 6 -99 7 -1 1 1 51 4 112 l4 111 82 10 c44 6 84
11 87 12 4 0 9 -5 11 -11z"/>
<path d="M1433 1233 c-10 -3 -13 -56 -13 -214 l0 -210 -140 2 c-130 2 -138 3
-130 20 17 30 11 32 -21 5 -17 -14 -34 -26 -39 -26 -5 0 -44 37 -88 82 -49 50
-83 78 -91 74 -8 -5 7 -28 44 -71 50 -57 54 -65 38 -73 -31 -16 -49 -6 -123
72 -40 42 -76 76 -81 76 -22 0 -4 -32 52 -94 33 -36 56 -66 50 -66 -6 0 -11 5
-11 12 0 9 -3 9 -12 0 -24 -24 -48 -10 -122 70 -60 65 -78 80 -88 70 -10 -10
2 -27 57 -82 l69 -69 -58 1 c-57 2 -59 3 -111 57 -29 31 -62 67 -73 81 -17 20
-23 23 -33 12 -11 -10 0 -26 56 -82 63 -63 67 -70 45 -71 -14 0 -35 -2 -47 -5
-18 -3 -21 0 -16 14 6 16 5 16 -13 0 -19 -17 -23 -14 -113 88 -85 95 -116 118
-116 86 0 -6 34 -46 75 -89 41 -43 84 -88 94 -100 l19 -22 -97 -102 c-87 -91
-108 -124 -80 -124 8 0 52 45 157 164 29 31 42 40 50 32 16 -16 30 -14 23 4
-4 12 5 15 52 15 l57 0 -78 -78 c-42 -42 -77 -83 -77 -90 0 -29 33 -6 106 73
73 81 78 85 95 69 21 -19 27 -6 7 14 -9 9 0 12 41 12 l53 0 -76 -81 c-42 -44
-76 -85 -76 -90 0 -26 37 0 106 75 75 82 78 84 101 69 24 -16 32 -6 11 15 -9
9 -3 12 27 12 l40 0 -83 -83 c-64 -64 -80 -85 -70 -95 9 -9 31 8 97 78 l86 90
24 -20 24 -21 -57 -58 c-48 -48 -55 -60 -43 -70 12 -9 21 -4 47 26 18 21 55
62 82 90 l49 53 32 -30 c44 -41 59 -38 19 3 l-33 34 152 7 c83 4 154 4 157 1
3 -3 10 -112 16 -241 l9 -236 236 5 236 6 6 118 c4 65 7 271 8 459 l1 341
-172 6 c-196 8 -307 8 -325 0z m437 -154 l0 -132 -67 6 c-38 4 -125 7 -195 7
l-128 0 0 115 c0 136 -18 124 190 128 80 1 157 4 173 5 l27 2 0 -131z m0 -191
c0 -24 3 -54 7 -67 l6 -24 -99 6 c-54 4 -145 7 -201 7 l-103 0 0 55 0 54 133
4 c72 1 160 4 195 5 l62 2 0 -42z m10 -193 l0 -95 -53 0 c-30 0 -121 3 -203 6
l-149 7 3 83 3 83 152 4 c84 1 173 4 200 5 l47 2 0 -95z m-820 72 c0 -2 -8
-11 -18 -21 -18 -15 -20 -15 -37 4 -18 20 -18 20 18 20 21 0 37 -2 37 -3z
m832 -312 c3 -66 5 -121 5 -122 -1 -1 -99 1 -218 4 l-216 6 5 106 c2 58 5 107
6 108 3 4 345 21 381 19 l30 -1 7 -120z"/>
</g>
</svg>
