<?xml version="1.0" standalone="no"?>
<!DOCTYPE svg PUBLIC "-//W3C//DTD SVG 20010904//EN"
 "http://www.w3.org/TR/2001/REC-SVG-20010904/DTD/svg10.dtd">
<svg version="1.0" xmlns="http://www.w3.org/2000/svg"
 width="135.000000pt" height="136.000000pt" viewBox="0 0 135.000000 136.000000"
 preserveAspectRatio="xMidYMid meet">
<metadata>
Created by potrace 1.16, written by Peter Selinger 2001-2019
</metadata>
<g transform="translate(0.000000,136.000000) scale(0.100000,-0.100000)"
fill="#000000" stroke="none">
<path d="M305 818 c15 -462 18 -512 36 -516 30 -5 275 151 443 282 53 42 101
76 105 76 5 0 40 -13 77 -29 38 -16 72 -27 76 -25 9 6 9 175 0 254 -8 67 -20
71 -98 34 -48 -23 -61 -25 -88 -16 -289 99 -541 182 -549 182 -6 0 -7 -82 -2
-242z m76 190 c32 -9 40 -17 45 -43 3 -18 4 -42 2 -54 -2 -18 -10 -12 -48 36
-64 82 -64 81 1 61z m284 -92 c151 -50 189 -67 187 -80 -3 -18 18 -22 35 -5 7
7 21 6 48 -5 43 -19 45 -19 45 -8 0 5 -12 14 -27 21 l-26 12 37 25 c21 14 39
24 41 22 2 -1 6 -29 10 -60 5 -43 4 -58 -5 -58 -11 0 -112 -70 -150 -103 -86
-76 -355 -257 -382 -257 -2 0 -3 56 -3 125 0 107 2 124 15 119 19 -7 160 -46
177 -48 11 -2 143 114 143 126 0 2 -43 17 -95 33 -52 15 -95 32 -95 36 0 11
-37 12 -42 2 -4 -10 -100 -84 -104 -80 -8 8 -15 247 -8 247 5 0 95 -29 199
-64z m-226 -130 l2 -59 -52 77 c-31 47 -53 92 -56 114 l-4 37 54 -55 c52 -53
54 -57 56 -114z m-43 -35 c43 -51 50 -65 53 -107 2 -55 3 -56 -62 37 -32 45
-47 77 -47 98 0 17 2 31 3 31 2 0 26 -26 53 -59z m308 4 l78 -21 -27 -18 c-26
-17 -29 -17 -116 10 -86 26 -89 28 -72 46 11 12 23 16 37 11 12 -4 56 -16 100
-28z m329 -73 c3 -40 2 -60 -5 -56 -6 4 -34 19 -63 33 l-53 27 51 42 c59 47
62 46 70 -46z m-390 20 l67 -18 -24 -23 -25 -23 -91 28 -92 28 24 18 c25 20
28 19 141 -10z m-190 -215 l7 -77 -60 -30 -60 -30 0 170 0 170 53 -63 c52 -61
54 -65 60 -140z"/>
</g>
</svg>
