<?xml version="1.0" standalone="no"?>
<!DOCTYPE svg PUBLIC "-//W3C//DTD SVG 20010904//EN"
 "http://www.w3.org/TR/2001/REC-SVG-20010904/DTD/svg10.dtd">
<svg version="1.0" xmlns="http://www.w3.org/2000/svg"
 width="123.000000pt" height="134.000000pt" viewBox="0 0 123.000000 134.000000"
 preserveAspectRatio="xMidYMid meet">
<metadata>
Created by potrace 1.16, written by Peter Selinger 2001-2019
</metadata>
<g transform="translate(0.000000,134.000000) scale(0.100000,-0.100000)"
fill="#000000" stroke="none">
<path d="M317 1022 c-15 -16 -17 -46 -17 -209 0 -238 11 -488 21 -505 10 -16
-9 -28 215 136 l177 129 26 -17 c47 -31 95 -49 144 -54 l47 -5 0 177 0 176
-42 -6 c-41 -6 -125 -41 -159 -65 -14 -10 -38 3 -145 81 -71 51 -155 113 -186
137 -31 23 -58 43 -61 43 -2 0 -11 -8 -20 -18z m136 -120 c49 -35 103 -72 120
-83 l32 -20 -35 8 c-19 4 -65 8 -101 7 -74 -1 -103 -18 -119 -70 -6 -20 -9 13
-9 104 -1 104 2 132 12 126 6 -5 52 -37 100 -72z m402 -103 c-20 -18 -43 -45
-51 -61 l-15 -28 -29 22 c-28 20 -29 23 -14 40 16 17 106 56 132 57 7 1 -3
-13 -23 -30z m-375 -56 l0 -48 -55 3 c-59 4 -61 6 -44 49 13 35 25 43 67 43
32 0 32 -1 32 -47z m126 34 c2 -1 6 -22 10 -45 l7 -42 -57 0 -56 0 0 51 0 52
47 -7 c25 -3 48 -7 49 -9z m69 -23 c20 -13 23 -20 15 -34 -13 -24 -13 -76 0
-100 8 -15 4 -22 -24 -39 -18 -12 -36 -21 -38 -21 -3 0 1 24 9 53 8 32 11 72
7 105 -3 28 -3 52 0 52 4 0 18 -7 31 -16z m81 -45 c19 -11 34 -29 34 -39 0
-20 -64 -65 -79 -56 -16 10 -22 61 -12 89 13 32 15 33 57 6z m-144 -120 c-8
-33 -10 -34 -61 -37 -52 -3 -53 -2 -47 20 3 13 6 40 6 60 l0 37 53 3 c50 3 52
2 55 -23 2 -15 -1 -42 -6 -60z m-127 25 c4 -31 4 -58 1 -61 -3 -3 -28 0 -55 7
-46 11 -51 15 -61 48 -16 61 -15 62 49 62 l59 0 7 -56z m367 -66 l37 -36 -37
10 c-39 11 -88 34 -110 51 -10 8 -7 15 15 33 l28 23 15 -22 c8 -12 31 -38 52
-59z m-411 -16 c38 -7 81 -8 107 -3 24 5 40 5 35 1 -24 -21 -227 -162 -241
-167 -13 -6 -14 3 -9 63 4 38 7 98 7 134 l0 65 19 -41 c18 -40 21 -42 82 -52z"/>
</g>
</svg>
