<?xml version="1.0" standalone="no"?>
<!DOCTYPE svg PUBLIC "-//W3C//DTD SVG 20010904//EN"
 "http://www.w3.org/TR/2001/REC-SVG-20010904/DTD/svg10.dtd">
<svg version="1.0" xmlns="http://www.w3.org/2000/svg"
 width="123.000000pt" height="134.000000pt" viewBox="0 0 123.000000 134.000000"
 preserveAspectRatio="xMidYMid meet">
<metadata>
Created by potrace 1.16, written by Peter Selinger 2001-2019
</metadata>
<g transform="translate(0.000000,134.000000) scale(0.100000,-0.100000)"
fill="#000000" stroke="none">
<path d="M317 1022 c-15 -16 -17 -46 -17 -209 0 -238 11 -488 21 -505 10 -16
-8 -27 217 138 l179 131 29 -24 c36 -28 106 -53 151 -53 l33 0 0 175 0 175
-42 -6 c-41 -6 -126 -41 -159 -65 -12 -9 -38 5 -145 81 -71 51 -155 113 -186
137 -31 23 -58 43 -61 43 -2 0 -11 -8 -20 -18z m169 -141 c67 -47 130 -91 140
-97 15 -9 -8 -11 -98 -7 -105 5 -118 4 -118 -11 0 -14 17 -16 141 -16 l140 0
-27 -37 -27 -38 -114 3 c-64 2 -123 0 -132 -5 -9 -5 34 -10 108 -13 l123 -5
-39 -44 c-38 -42 -41 -44 -69 -33 -68 26 -102 26 -139 -2 l-35 -27 0 216 c0
167 3 214 12 209 7 -4 67 -46 134 -93z m369 -82 c-20 -18 -43 -45 -51 -61
l-15 -28 -29 22 c-28 20 -29 23 -14 40 16 17 106 56 132 57 7 1 -3 -13 -23
-30z m-99 -90 c19 -11 34 -29 34 -39 0 -20 -64 -65 -79 -56 -16 10 -22 61 -12
89 13 32 15 33 57 6z m-65 -97 c2 -8 -22 -30 -59 -53 -35 -21 -110 -73 -169
-114 -58 -42 -112 -79 -120 -82 -14 -5 -15 4 -9 76 7 76 10 85 39 112 29 27
37 29 80 25 27 -3 61 -12 77 -19 28 -14 28 -14 86 60 l59 75 6 -33 c3 -19 8
-40 10 -47z m161 -64 l37 -36 -37 10 c-39 11 -88 34 -110 51 -10 8 -7 15 15
33 l28 23 15 -22 c8 -12 31 -38 52 -59z"/>
<path d="M400 715 c0 -17 71 -20 195 -8 100 9 55 21 -82 22 -94 1 -113 -2
-113 -14z"/>
<path d="M372 629 c2 -6 7 -10 11 -10 4 1 50 1 102 1 57 0 95 4 95 10 0 6 -42
10 -106 10 -71 0 -104 -4 -102 -11z"/>
</g>
</svg>
