<?xml version="1.0" standalone="no"?>
<!DOCTYPE svg PUBLIC "-//W3C//DTD SVG 20010904//EN"
 "http://www.w3.org/TR/2001/REC-SVG-20010904/DTD/svg10.dtd">
<svg version="1.0" xmlns="http://www.w3.org/2000/svg"
 width="131.000000pt" height="134.000000pt" viewBox="0 0 131.000000 134.000000"
 preserveAspectRatio="xMidYMid meet">
<metadata>
Created by potrace 1.16, written by Peter Selinger 2001-2019
</metadata>
<g transform="translate(0.000000,134.000000) scale(0.100000,-0.100000)"
fill="#000000" stroke="none">
<path d="M393 1010 c-69 -68 -108 -253 -84 -396 17 -98 90 -314 107 -314 7 0
55 31 106 69 51 38 136 101 188 139 l95 70 21 -19 c27 -25 115 -59 154 -59
l30 0 0 175 c0 96 -4 175 -8 175 -30 0 -129 -34 -161 -56 -25 -16 -45 -23 -53
-18 -14 9 -211 153 -301 221 -31 23 -59 43 -60 43 -2 0 -17 -14 -34 -30z m172
-124 c73 -52 151 -105 174 -118 73 -41 45 -54 -31 -13 -25 13 -64 27 -87 31
-39 6 -41 6 -41 -20 0 -20 -4 -26 -17 -24 -12 2 -18 -3 -18 -17 0 -14 6 -19
18 -17 12 2 17 -4 17 -23 0 -19 -5 -25 -21 -25 -14 0 -19 -5 -17 -17 2 -10 11
-17 21 -17 12 1 17 -6 17 -27 0 -26 4 -29 30 -29 36 0 91 22 127 50 21 16 28
18 35 8 14 -23 9 -33 -30 -55 -20 -11 -102 -66 -181 -122 -80 -56 -148 -101
-152 -101 -3 0 -9 12 -12 28 -3 15 -12 55 -20 89 l-15 62 66 -55 c36 -30 68
-54 71 -54 4 0 8 113 10 250 3 220 1 250 -12 250 -9 0 -17 -11 -19 -26 l-3
-27 -39 35 c-30 27 -37 39 -32 56 4 12 12 22 18 22 5 0 70 -42 143 -94z m-117
-25 c24 -18 32 -33 32 -55 l0 -30 -49 48 c-27 27 -54 45 -60 42 -8 -5 -8 0 0
18 13 27 8 29 77 -23z m32 -149 c0 -39 -3 -38 -77 31 -25 24 -46 36 -53 32 -9
-5 -10 -1 -5 16 3 13 9 32 11 41 4 15 16 9 65 -34 50 -45 59 -57 59 -86z m451
79 c-21 -21 -42 -49 -46 -60 l-6 -21 -30 21 c-16 11 -29 24 -29 28 0 14 105
66 143 70 4 1 -11 -17 -32 -38z m-256 -36 c21 -9 24 -14 12 -14 -12 -1 -17 -7
-15 -18 2 -14 11 -17 36 -15 29 3 32 1 32 -22 0 -23 -4 -26 -36 -26 -28 0 -35
-3 -32 -17 3 -12 12 -17 26 -16 12 2 22 1 22 -2 0 -7 -39 -26 -72 -36 -24 -7
-29 -5 -24 6 3 8 9 22 12 30 4 10 0 15 -12 16 -17 1 -17 2 -1 6 12 3 17 15 17
39 0 26 -4 34 -17 34 -13 0 -15 2 -5 8 7 5 10 16 6 25 -8 21 9 21 51 2z m-232
-80 c31 -23 37 -33 37 -63 l0 -36 -50 49 c-37 36 -53 46 -61 38 -12 -12 30
-57 84 -90 16 -10 27 -26 27 -39 0 -12 3 -37 6 -55 l7 -34 -56 54 c-30 29 -59
51 -65 47 -14 -8 -21 25 -28 129 l-7 90 34 -31 c19 -17 51 -43 72 -59z m392
38 c27 -13 35 -23 35 -43 0 -20 -8 -30 -35 -43 -20 -9 -38 -17 -40 -17 -9 0
-17 71 -11 95 8 30 6 29 51 8z m-65 -9 c0 -8 -5 -12 -10 -9 -6 4 -8 11 -5 16
9 14 15 11 15 -7z m163 -150 l39 -43 -29 8 c-48 15 -67 23 -97 44 l-29 20 29
24 c27 21 30 22 39 6 6 -9 27 -36 48 -59z"/>
</g>
</svg>
