<?xml version="1.0" standalone="no"?>
<!DOCTYPE svg PUBLIC "-//W3C//DTD SVG 20010904//EN"
 "http://www.w3.org/TR/2001/REC-SVG-20010904/DTD/svg10.dtd">
<svg version="1.0" xmlns="http://www.w3.org/2000/svg"
 width="123.000000pt" height="134.000000pt" viewBox="0 0 123.000000 134.000000"
 preserveAspectRatio="xMidYMid meet">
<metadata>
Created by potrace 1.16, written by Peter Selinger 2001-2019
</metadata>
<g transform="translate(0.000000,134.000000) scale(0.100000,-0.100000)"
fill="#000000" stroke="none">
<path d="M315 1020 c-17 -19 -18 -41 -12 -353 6 -323 9 -367 28 -367 5 0 43
25 83 55 40 30 76 55 81 55 4 0 13 6 19 14 6 7 54 45 107 83 l95 70 30 -24
c32 -26 112 -53 156 -53 l28 0 0 175 0 175 -42 -6 c-41 -6 -125 -41 -159 -65
-13 -10 -47 11 -203 125 -103 75 -189 136 -190 136 -2 0 -11 -9 -21 -20z m102
-92 l51 -37 -51 -80 c-29 -44 -57 -88 -64 -98 -9 -14 -12 11 -12 125 -1 112 2
142 12 136 6 -4 35 -25 64 -46z m180 -123 l92 -60 -6 -51 c-3 -29 -1 -60 5
-71 10 -18 0 -27 -96 -90 l-106 -70 -54 86 c-30 47 -60 93 -68 102 -13 15 -7
28 58 118 39 56 74 100 77 99 4 -2 47 -30 98 -63z m258 -6 c-20 -18 -43 -45
-51 -61 l-15 -28 -29 22 c-28 20 -29 23 -14 40 16 17 106 56 132 57 7 1 -3
-13 -23 -30z m-99 -90 c19 -11 34 -29 34 -39 0 -20 -64 -65 -79 -55 -16 10
-24 71 -12 94 14 26 16 26 57 0z m-299 -241 c13 -15 9 -21 -48 -62 -35 -25
-67 -46 -72 -46 -6 0 -7 27 -4 68 4 37 7 98 7 136 l0 70 51 -75 c28 -41 58
-82 66 -91z m395 80 l37 -36 -37 10 c-39 11 -88 34 -110 51 -10 8 -7 15 15 33
l28 23 15 -22 c8 -12 31 -38 52 -59z"/>
</g>
</svg>
