<?xml version="1.0" standalone="no"?>
<!DOCTYPE svg PUBLIC "-//W3C//DTD SVG 20010904//EN"
 "http://www.w3.org/TR/2001/REC-SVG-20010904/DTD/svg10.dtd">
<svg version="1.0" xmlns="http://www.w3.org/2000/svg"
 width="131.000000pt" height="134.000000pt" viewBox="0 0 131.000000 134.000000"
 preserveAspectRatio="xMidYMid meet">
<metadata>
Created by potrace 1.16, written by Peter Selinger 2001-2019
</metadata>
<g transform="translate(0.000000,134.000000) scale(0.100000,-0.100000)"
fill="#000000" stroke="none">
<path d="M393 1010 c-69 -68 -108 -253 -84 -396 17 -98 90 -314 107 -314 7 0
55 31 106 69 51 38 136 101 188 139 l95 70 21 -19 c27 -25 115 -59 154 -59
l30 0 0 175 c0 96 -4 175 -8 175 -30 0 -129 -34 -161 -56 -25 -16 -45 -23 -53
-18 -14 9 -211 153 -301 221 -31 23 -59 43 -60 43 -2 0 -17 -14 -34 -30z m151
-108 c61 -44 129 -91 151 -105 25 -17 33 -27 22 -27 -10 0 -28 7 -41 15 -25
16 -104 34 -124 27 -9 -3 -12 -40 -12 -138 l0 -134 30 0 c16 0 53 9 82 20 29
11 64 20 78 20 20 0 14 -7 -35 -38 -33 -20 -109 -72 -169 -114 -60 -43 -112
-78 -116 -78 -4 0 -10 12 -13 28 -3 15 -12 55 -20 89 l-15 62 66 -55 c36 -30
68 -54 71 -54 4 0 8 113 10 250 3 220 1 250 -12 250 -9 0 -17 -11 -19 -26 l-3
-27 -39 35 c-30 27 -37 39 -32 56 4 12 12 22 18 22 6 0 60 -35 122 -78z m-96
-41 c24 -18 32 -33 32 -55 l0 -30 -49 48 c-27 27 -54 45 -60 42 -8 -5 -8 0 0
18 13 27 8 29 77 -23z m32 -149 c0 -39 -3 -38 -77 31 -25 24 -46 36 -53 32 -9
-5 -10 -1 -5 16 3 13 9 32 11 41 4 15 16 9 65 -34 50 -45 59 -57 59 -86z m451
79 c-21 -21 -42 -49 -46 -60 l-6 -21 -30 21 c-16 11 -29 24 -29 28 0 14 105
66 143 70 4 1 -11 -17 -32 -38z m-272 -17 c9 -9 -53 7 -63 17 -5 5 5 4 24 -1
18 -5 35 -12 39 -16z m-216 -99 c31 -23 37 -33 37 -63 l0 -36 -50 49 c-37 36
-53 46 -61 38 -12 -12 30 -57 84 -90 16 -10 27 -26 27 -39 0 -12 3 -37 6 -55
l7 -34 -56 54 c-30 29 -59 51 -65 47 -14 -8 -21 25 -28 129 l-7 90 34 -31 c19
-17 51 -43 72 -59z m272 64 c12 -18 -2 -22 -52 -14 -42 7 -45 9 -23 16 38 11
68 10 75 -2z m65 -5 c0 -10 -7 -14 -22 -12 -32 5 -35 28 -4 28 17 0 26 -5 26
-16z m55 -21 c27 -13 35 -23 35 -43 0 -20 -8 -30 -35 -43 -20 -9 -38 -17 -40
-17 -9 0 -17 71 -11 95 8 30 6 29 51 8z m-97 -35 c-2 -13 -6 -22 -10 -20 -5 1
-28 2 -53 2 -32 0 -45 4 -45 14 0 15 23 22 78 25 29 1 33 -2 30 -21z m24 -3
c-2 -14 -6 -25 -8 -25 -2 0 -4 11 -4 25 0 14 4 25 9 25 4 0 6 -11 3 -25z m-54
-61 c-11 -11 -25 -14 -52 -9 -51 10 -45 23 12 27 57 4 60 2 40 -18z m67 5 c9
-26 6 -28 -27 -22 -24 4 -25 7 -15 24 16 25 34 24 42 -2z m158 -65 l39 -43
-29 8 c-48 15 -67 23 -97 44 l-29 20 29 24 c27 21 30 22 39 6 6 -9 27 -36 48
-59z m-303 10 c0 -2 -9 -4 -21 -4 -11 0 -18 4 -14 10 5 8 35 3 35 -6z"/>
</g>
</svg>
