<?xml version="1.0" standalone="no"?>
<!DOCTYPE svg PUBLIC "-//W3C//DTD SVG 20010904//EN"
 "http://www.w3.org/TR/2001/REC-SVG-20010904/DTD/svg10.dtd">
<svg version="1.0" xmlns="http://www.w3.org/2000/svg"
 width="123.000000pt" height="134.000000pt" viewBox="0 0 123.000000 134.000000"
 preserveAspectRatio="xMidYMid meet">
<metadata>
Created by potrace 1.16, written by Peter Selinger 2001-2019
</metadata>
<g transform="translate(0.000000,134.000000) scale(0.100000,-0.100000)"
fill="#000000" stroke="none">
<path d="M317 1022 c-15 -16 -17 -46 -17 -209 0 -238 11 -488 21 -505 10 -16
-9 -28 215 136 l177 129 26 -17 c47 -31 95 -49 144 -54 l47 -5 0 177 0 176
-42 -6 c-41 -6 -125 -41 -159 -65 -14 -10 -38 3 -145 81 -71 51 -155 113 -186
137 -31 23 -58 43 -61 43 -2 0 -11 -8 -20 -18z m169 -141 c67 -47 130 -92 140
-99 18 -12 18 -13 -1 -6 -28 9 -194 34 -227 34 l-28 0 0 -145 c0 -144 0 -145
23 -145 31 1 160 18 194 26 26 6 -210 -170 -246 -184 -12 -4 -13 6 -8 64 4 38
7 178 7 312 0 188 3 241 12 236 7 -4 67 -46 134 -93z m369 -82 c-20 -18 -43
-45 -51 -61 l-15 -28 -29 22 c-28 20 -29 23 -14 40 16 17 106 56 132 57 7 1
-3 -13 -23 -30z m-265 -31 l55 -13 -104 -3 c-96 -3 -106 -1 -125 19 l-21 21
70 -5 c39 -3 95 -12 125 -19z m98 -50 c-5 -14 -220 -24 -247 -12 -25 12 41 21
152 23 75 1 98 -2 95 -11z m44 -15 c24 -21 23 -55 -2 -78 -19 -17 -20 -17 -29
9 -10 25 -5 86 7 86 3 0 14 -7 24 -17z m56 -35 c-2 -12 -9 -23 -16 -26 -7 -2
-10 2 -6 11 3 9 0 25 -6 37 -11 20 -10 21 10 10 13 -7 20 -19 18 -32z m-108
-3 c0 -12 -20 -15 -120 -15 -110 0 -132 5 -113 23 3 4 57 7 120 7 94 0 113 -3
113 -15z m13 -50 c4 -8 3 -16 -1 -18 -15 -7 -262 5 -262 13 0 10 53 16 171 18
68 2 88 -1 92 -13z m159 -67 l37 -36 -37 10 c-43 12 -108 44 -116 57 -4 5 6
18 21 30 l28 20 15 -22 c8 -12 31 -38 52 -59z m-257 17 c-27 -8 -84 -18 -125
-21 -68 -7 -74 -6 -62 9 13 16 26 17 190 24 l47 2 -50 -14z"/>
</g>
</svg>
