<?xml version="1.0" standalone="no"?>
<!DOCTYPE svg PUBLIC "-//W3C//DTD SVG 20010904//EN"
 "http://www.w3.org/TR/2001/REC-SVG-20010904/DTD/svg10.dtd">
<svg version="1.0" xmlns="http://www.w3.org/2000/svg"
 width="159.000000pt" height="129.000000pt" viewBox="0 0 159.000000 129.000000"
 preserveAspectRatio="xMidYMid meet">
<metadata>
Created by potrace 1.16, written by Peter Selinger 2001-2019
</metadata>
<g transform="translate(0.000000,129.000000) scale(0.100000,-0.100000)"
fill="#000000" stroke="none">
<path d="M750 875 l0 -115 -135 0 c-128 0 -135 -1 -135 -20 0 -19 7 -20 134
-20 l134 0 4 -25 5 -25 -148 0 c-142 0 -149 -1 -149 -20 0 -19 7 -20 150 -20
l150 0 0 -25 0 -25 -170 0 c-144 0 -170 -2 -170 -15 0 -13 26 -15 170 -15
l170 0 0 -26 0 -27 -187 4 c-177 4 -188 3 -191 -15 -4 -17 5 -18 187 -15 l191
4 0 -38 c0 -37 -1 -38 -27 -33 -146 30 -250 33 -296 9 -63 -32 -138 -86 -134
-97 7 -20 33 -9 96 40 63 49 64 49 135 47 105 -3 209 -22 224 -41 10 -13 14
-14 21 -4 6 11 16 10 49 -3 l41 -17 118 100 c142 120 307 287 298 302 -4 6
-57 10 -138 10 -73 0 -183 3 -244 7 l-113 6 0 114 c0 106 -1 113 -20 113 -19
0 -20 -7 -20 -115z m448 -210 c-69 -66 -291 -253 -331 -280 -19 -12 -30 -13
-55 -4 -29 10 -32 15 -32 55 l0 44 80 0 c47 0 80 4 80 10 0 6 -33 10 -80 10
-78 0 -80 1 -80 24 0 23 1 24 148 31 176 9 165 23 -20 24 -126 1 -128 1 -125
24 1 12 11 25 22 29 11 3 88 6 172 7 89 1 154 5 158 11 4 6 -17 10 -57 10 -35
0 -114 3 -175 7 -110 6 -113 7 -113 29 l0 24 168 3 c92 1 199 3 237 4 l70 2
-67 -64z"/>
</g>
</svg>
