<?xml version="1.0" standalone="no"?>
<!DOCTYPE svg PUBLIC "-//W3C//DTD SVG 20010904//EN"
 "http://www.w3.org/TR/2001/REC-SVG-20010904/DTD/svg10.dtd">
<svg version="1.0" xmlns="http://www.w3.org/2000/svg"
 width="139.000000pt" height="161.000000pt" viewBox="0 0 139.000000 161.000000"
 preserveAspectRatio="xMidYMid meet">
<metadata>
Created by potrace 1.16, written by Peter Selinger 2001-2019
</metadata>
<g transform="translate(0.000000,161.000000) scale(0.100000,-0.100000)"
fill="#000000" stroke="none">
<path d="M553 1246 c-159 -169 -253 -333 -253 -440 0 -86 106 -206 363 -413
65 -52 121 -92 125 -89 3 4 -12 21 -34 39 -77 63 -230 205 -293 272 -82 88
-121 150 -121 192 0 90 95 254 229 395 48 51 71 83 67 93 -9 25 -21 18 -83
-49z"/>
<path d="M805 1173 c-11 -3 -81 -34 -155 -69 -163 -77 -175 -93 -97 -128 28
-13 95 -44 147 -68 52 -25 106 -45 120 -44 48 2 270 129 270 154 0 9 -15 25
-33 36 -64 37 -228 126 -230 125 -1 -1 -11 -4 -22 -6z m128 -141 c-62 -1 -166
-1 -230 0 l-118 3 108 60 108 61 122 -61 122 -60 -112 -3z m-1 -87 l-133 -64
-107 59 -107 59 150 4 c83 1 191 4 240 5 l90 2 -133 -65z"/>
<path d="M710 798 c-47 -22 -113 -53 -147 -69 -89 -40 -81 -54 82 -131 185
-87 169 -85 275 -27 155 84 170 93 170 111 0 26 -219 151 -270 154 -14 1 -63
-16 -110 -38z m221 -44 l134 -65 -70 5 c-38 3 -146 6 -240 6 l-170 0 105 60
c58 32 106 59 106 60 1 0 62 -30 135 -66z m128 -79 c-8 -7 -249 -125 -258
-125 -4 0 -56 27 -116 60 l-110 60 230 3 c127 1 236 3 244 5 8 1 12 0 10 -3z"/>
</g>
</svg>
