<?xml version="1.0" standalone="no"?>
<!DOCTYPE svg PUBLIC "-//W3C//DTD SVG 20010904//EN"
 "http://www.w3.org/TR/2001/REC-SVG-20010904/DTD/svg10.dtd">
<svg version="1.0" xmlns="http://www.w3.org/2000/svg"
 width="209.000000pt" height="186.000000pt" viewBox="0 0 209.000000 186.000000"
 preserveAspectRatio="xMidYMid meet">
<metadata>
Created by potrace 1.16, written by Peter Selinger 2001-2019
</metadata>
<g transform="translate(0.000000,186.000000) scale(0.100000,-0.100000)"
fill="#000000" stroke="none">
<path d="M599 1494 c-187 -226 -298 -429 -299 -545 0 -78 99 -250 304 -526 50
-68 94 -123 99 -123 5 0 1 12 -10 28 -185 275 -300 466 -334 556 -20 52 -21
64 -11 112 22 108 106 252 251 432 51 63 81 108 77 117 -9 25 -20 18 -77 -51z"/>
<path d="M1266 1272 c-11 -10 -6 -32 7 -32 6 -1 64 -23 127 -50 l115 -49 -94
-1 -95 0 -133 66 c-120 59 -163 71 -163 46 0 -5 55 -31 122 -58 l122 -49 -94
-3 -93 -3 -124 62 c-111 55 -153 66 -153 41 0 -4 51 -29 113 -55 l112 -46 -67
-1 c-54 0 -68 -3 -68 -15 0 -12 15 -15 78 -15 l77 -1 -130 -55 c-71 -30 -132
-57 -134 -60 -3 -2 0 -9 7 -16 8 -8 47 6 155 59 l143 71 315 7 316 8 7 -307
c4 -168 9 -313 13 -322 5 -13 -9 -15 -108 -13 -63 1 -129 4 -147 6 -30 5 -33
8 -30 37 l3 31 123 3 c67 1 122 6 122 11 0 8 -126 21 -207 21 -34 0 -41 3 -38
18 2 9 4 23 4 30 1 8 23 12 75 12 40 0 95 3 122 7 42 6 45 8 24 14 -14 4 -69
7 -122 8 l-98 1 0 30 0 30 68 1 c90 1 181 14 162 22 -8 4 -64 8 -125 9 l-110
3 0 35 1 35 114 3 c63 1 119 7 123 11 5 5 -46 12 -116 16 l-124 7 -2 84 -2 84
36 21 c40 24 41 35 2 20 -13 -5 -34 -7 -46 -4 -14 4 -21 1 -21 -9 0 -10 -35
-30 -92 -53 -110 -46 -102 -41 -95 -59 5 -13 21 -9 93 24 47 22 87 40 88 40 4
0 20 -487 18 -539 l-1 -43 154 4 154 4 4 -26 c4 -25 4 -25 6 3 1 18 7 27 19
27 15 1 15 2 2 13 -13 10 -15 59 -15 329 0 174 -4 320 -8 324 -4 5 -51 10
-105 12 -91 3 -102 6 -182 47 -120 61 -197 94 -204 87z"/>
<path d="M601 1244 c-11 -13 -12 -39 -6 -126 4 -73 3 -113 -4 -117 -6 -4 -7
-12 -1 -21 8 -12 33 -3 147 54 76 38 133 71 127 73 -6 2 -59 -17 -119 -42 -59
-25 -112 -45 -116 -45 -4 0 -8 45 -8 100 0 55 3 100 7 100 4 0 63 -23 131 -51
68 -28 125 -48 128 -46 8 9 -242 138 -266 137 -3 -1 -12 -8 -20 -16z"/>
<path d="M1146 1044 c-72 -30 -132 -57 -135 -59 -2 -3 0 -10 7 -17 8 -8 46 6
146 55 75 36 136 68 136 71 0 12 -29 3 -154 -50z"/>
</g>
</svg>
