<?xml version="1.0" standalone="no"?>
<!DOCTYPE svg PUBLIC "-//W3C//DTD SVG 20010904//EN"
 "http://www.w3.org/TR/2001/REC-SVG-20010904/DTD/svg10.dtd">
<svg version="1.0" xmlns="http://www.w3.org/2000/svg"
 width="156.000000pt" height="164.000000pt" viewBox="0 0 156.000000 164.000000"
 preserveAspectRatio="xMidYMid meet">
<metadata>
Created by potrace 1.16, written by Peter Selinger 2001-2019
</metadata>
<g transform="translate(0.000000,164.000000) scale(0.100000,-0.100000)"
fill="#000000" stroke="none">
<path d="M488 1168 c-129 -232 -192 -360 -180 -367 5 -3 42 -62 82 -131 61
-103 214 -354 227 -369 2 -2 6 -2 9 2 7 7 -129 272 -224 437 -58 102 -60 106
-44 130 29 45 208 344 238 398 25 45 27 54 14 62 -8 5 -18 10 -21 10 -3 0 -49
-78 -101 -172z"/>
<path d="M560 981 l0 -24 168 7 c92 3 241 7 332 7 91 1 174 5 185 9 18 7 -190
15 -547 23 l-138 3 0 -25z"/>
<path d="M560 732 l0 -25 83 6 c45 4 204 10 352 14 333 9 279 19 -137 26
l-298 4 0 -25z"/>
</g>
</svg>
