<?xml version="1.0" standalone="no"?>
<!DOCTYPE svg PUBLIC "-//W3C//DTD SVG 20010904//EN"
 "http://www.w3.org/TR/2001/REC-SVG-20010904/DTD/svg10.dtd">
<svg version="1.0" xmlns="http://www.w3.org/2000/svg"
 width="173.000000pt" height="119.000000pt" viewBox="0 0 173.000000 119.000000"
 preserveAspectRatio="xMidYMid meet">
<metadata>
Created by potrace 1.16, written by Peter Selinger 2001-2019
</metadata>
<g transform="translate(0.000000,119.000000) scale(0.100000,-0.100000)"
fill="#000000" stroke="none">
<path d="M1345 822 l-70 -67 -219 4 -220 3 -85 44 c-115 58 -159 67 -244 49
-81 -17 -161 -51 -152 -65 3 -5 -1 -10 -9 -10 -24 0 -41 -74 -41 -176 0 -90 1
-94 48 -187 l49 -96 49 -10 c81 -18 137 -12 253 23 110 34 126 44 126 83 0 22
1 22 217 25 l217 3 72 -75 c81 -84 107 -90 42 -10 -79 97 -78 82 -9 160 l62
69 -20 23 c-10 13 -37 45 -60 71 -23 27 -41 51 -41 54 0 4 27 37 60 74 33 37
60 70 60 73 0 15 -20 0 -85 -62z m-610 -33 c92 -37 109 -92 86 -286 l-14 -123
-36 -6 c-20 -3 -73 -15 -119 -26 -84 -20 -113 -19 -209 4 -40 10 -42 12 -68
81 -35 95 -42 184 -21 266 9 36 18 67 20 69 2 2 35 14 72 28 89 32 199 29 289
-7z m600 -128 l70 -73 -65 -61 -65 -62 -215 4 c-118 1 -216 4 -217 5 -1 0 5
34 12 75 10 52 12 86 5 115 -5 22 -10 47 -10 53 0 10 50 13 203 15 111 2 205
3 208 3 3 0 36 -33 74 -74z"/>
<path d="M400 665 c0 -13 23 -15 148 -14 81 0 165 3 187 8 38 7 37 7 -30 14
-38 4 -123 7 -187 7 -98 0 -118 -3 -118 -15z"/>
<path d="M410 505 c0 -13 26 -15 173 -15 94 0 178 4 185 9 16 10 -115 21 -255
21 -85 0 -103 -3 -103 -15z"/>
</g>
</svg>
