<?xml version="1.0" standalone="no"?>
<!DOCTYPE svg PUBLIC "-//W3C//DTD SVG 20010904//EN"
 "http://www.w3.org/TR/2001/REC-SVG-20010904/DTD/svg10.dtd">
<svg version="1.0" xmlns="http://www.w3.org/2000/svg"
 width="142.000000pt" height="119.000000pt" viewBox="0 0 142.000000 119.000000"
 preserveAspectRatio="xMidYMid meet">
<metadata>
Created by potrace 1.16, written by Peter Selinger 2001-2019
</metadata>
<g transform="translate(0.000000,119.000000) scale(0.100000,-0.100000)"
fill="#000000" stroke="none">
<path d="M442 869 c-31 -15 -53 -36 -81 -79 -79 -121 -80 -205 -5 -362 26 -54
54 -104 61 -110 19 -16 16 -4 -16 60 -42 85 -71 176 -71 226 0 95 75 228 139
246 72 20 136 7 172 -36 12 -15 10 -20 -21 -45 -36 -30 -56 -38 -44 -16 4 6
-2 3 -14 -7 -21 -19 -23 -19 -87 3 -78 25 -75 25 -75 6 0 -9 23 -21 62 -33 75
-23 117 -16 162 27 18 17 38 31 46 31 8 0 -30 -46 -85 -102 l-100 -103 105
103 c96 93 109 102 143 102 l38 0 -83 -84 c-46 -46 -105 -108 -133 -137 -27
-30 13 8 90 84 131 127 143 137 178 137 l38 0 -153 -150 c-131 -128 -158 -150
-184 -150 -38 0 -94 -18 -113 -36 -25 -23 -5 -27 41 -9 26 9 64 15 94 13 42
-3 49 -6 46 -22 -3 -16 -1 -18 11 -8 11 9 18 8 32 -8 15 -16 16 -22 5 -35 -34
-41 -116 -57 -174 -35 -21 8 -26 6 -26 -5 0 -20 41 -35 96 -35 38 0 51 6 87
39 41 38 45 39 116 40 68 0 72 -1 60 -17 -13 -16 -12 -16 7 0 24 21 100 25 88
6 -4 -7 2 -5 13 4 11 10 26 18 33 18 7 0 10 3 6 7 -3 4 35 50 86 102 l93 96
-100 -97 c-74 -72 -107 -98 -126 -98 -14 0 -29 3 -33 7 -4 4 49 63 116 133
l123 125 -130 -127 c-122 -120 -133 -128 -169 -128 l-40 0 150 151 c82 82 151
153 154 157 2 4 -68 -64 -155 -150 -151 -149 -162 -158 -199 -158 l-39 0 154
154 c85 84 163 164 174 177 10 13 -63 -57 -162 -155 -157 -155 -184 -178 -197
-167 -9 8 -16 17 -16 21 0 4 77 84 171 176 l170 169 -28 12 c-15 7 -50 12 -76
13 -36 0 -46 3 -41 13 6 9 5 9 -7 0 -9 -7 -44 -12 -84 -12 -67 1 -71 2 -112
40 -37 34 -48 39 -90 39 -27 -1 -67 -10 -91 -21z m507 -83 c-274 -281 -332
-336 -348 -324 -9 7 -18 14 -21 16 -2 1 65 72 150 157 140 140 158 155 189
155 19 0 32 -2 30 -4z"/>
</g>
</svg>
