<?xml version="1.0" standalone="no"?>
<!DOCTYPE svg PUBLIC "-//W3C//DTD SVG 20010904//EN"
 "http://www.w3.org/TR/2001/REC-SVG-20010904/DTD/svg10.dtd">
<svg version="1.0" xmlns="http://www.w3.org/2000/svg"
 width="125.000000pt" height="148.000000pt" viewBox="0 0 125.000000 148.000000"
 preserveAspectRatio="xMidYMid meet">
<metadata>
Created by potrace 1.16, written by Peter Selinger 2001-2019
</metadata>
<g transform="translate(0.000000,148.000000) scale(0.100000,-0.100000)"
fill="#000000" stroke="none">
<path d="M352 1163 c-8 -14 8 -34 86 -108 l95 -91 -69 -49 c-106 -75 -164
-133 -164 -163 0 -37 88 -118 178 -165 39 -21 72 -41 72 -45 0 -4 -38 -59 -85
-122 -47 -63 -85 -116 -85 -117 0 -24 138 122 220 232 47 64 87 141 95 186 8
46 -33 131 -114 232 -71 89 -200 227 -212 227 -4 0 -12 -8 -17 -17z m236 -270
c75 -96 79 -140 22 -249 -22 -42 -42 -79 -44 -81 -7 -8 -114 64 -162 109 -62
57 -69 73 -49 104 15 23 181 153 197 154 3 0 20 -17 36 -37z"/>
<path d="M710 932 c0 -42 27 -126 51 -156 l20 -26 -37 0 -37 0 7 -56 c17 -148
103 -219 176 -146 30 31 60 114 60 169 0 31 -2 33 -37 33 l-36 0 20 23 c26 27
53 106 53 152 l0 35 -120 0 -120 0 0 -28z m120 -62 c23 0 54 7 70 15 27 14 30
14 30 0 0 -25 -29 -88 -52 -112 -46 -49 -114 -11 -138 75 -14 53 -13 54 20 37
16 -8 47 -15 70 -15z m0 -220 c14 0 43 9 64 20 l38 19 -6 -32 c-10 -49 -40
-100 -68 -117 -40 -22 -74 -1 -103 62 -14 29 -25 60 -25 69 0 15 4 15 37 -2
21 -10 49 -19 63 -19z"/>
</g>
</svg>
