<?xml version="1.0" standalone="no"?>
<!DOCTYPE svg PUBLIC "-//W3C//DTD SVG 20010904//EN"
 "http://www.w3.org/TR/2001/REC-SVG-20010904/DTD/svg10.dtd">
<svg version="1.0" xmlns="http://www.w3.org/2000/svg"
 width="125.000000pt" height="148.000000pt" viewBox="0 0 125.000000 148.000000"
 preserveAspectRatio="xMidYMid meet">
<metadata>
Created by potrace 1.16, written by Peter Selinger 2001-2019
</metadata>
<g transform="translate(0.000000,148.000000) scale(0.100000,-0.100000)"
fill="#000000" stroke="none">
<path d="M350 1165 c-11 -13 2 -29 85 -108 l97 -92 -80 -58 c-174 -124 -185
-149 -99 -231 29 -28 85 -69 124 -90 l72 -39 -16 -28 c-10 -16 -48 -70 -86
-120 -38 -50 -65 -94 -62 -97 15 -15 229 244 274 330 52 102 43 156 -54 286
-54 74 -223 262 -234 262 -5 0 -14 -7 -21 -15z m253 -297 c62 -89 58 -147 -17
-267 l-26 -41 -57 36 c-83 53 -130 94 -150 132 l-18 34 50 45 c61 56 157 123
170 119 6 -1 27 -27 48 -58z"/>
<path d="M714 828 c12 -77 37 -137 67 -163 40 -33 61 -32 104 6 37 33 65 104
65 166 l0 33 -121 0 -122 0 7 -42z m113 -48 c24 0 57 7 73 15 27 14 30 14 30
0 0 -25 -29 -88 -52 -112 -52 -55 -119 -5 -143 106 l-7 34 27 -21 c19 -15 42
-22 72 -22z"/>
</g>
</svg>
