<?xml version="1.0" standalone="no"?>
<!DOCTYPE svg PUBLIC "-//W3C//DTD SVG 20010904//EN"
 "http://www.w3.org/TR/2001/REC-SVG-20010904/DTD/svg10.dtd">
<svg version="1.0" xmlns="http://www.w3.org/2000/svg"
 width="150.000000pt" height="148.000000pt" viewBox="0 0 150.000000 148.000000"
 preserveAspectRatio="xMidYMid meet">
<metadata>
Created by potrace 1.16, written by Peter Selinger 2001-2019
</metadata>
<g transform="translate(0.000000,148.000000) scale(0.100000,-0.100000)"
fill="#000000" stroke="none">
<path d="M350 1165 c-10 -12 4 -30 86 -108 l97 -93 -69 -49 c-106 -75 -164
-133 -164 -163 0 -37 88 -118 178 -165 39 -21 72 -41 72 -45 0 -4 -38 -59 -85
-121 -47 -63 -83 -117 -79 -120 16 -15 234 250 281 343 48 94 34 152 -73 292
-59 78 -211 244 -224 244 -4 0 -13 -7 -20 -15z m238 -272 c75 -96 79 -140 22
-249 -22 -42 -42 -79 -44 -82 -3 -2 -36 16 -74 42 -72 48 -152 126 -152 149 0
7 13 26 29 41 32 30 172 135 183 136 3 0 20 -17 36 -37z"/>
<path d="M710 932 c0 -42 27 -126 51 -156 l20 -26 -37 0 -37 0 7 -56 c17 -148
103 -219 176 -146 30 31 60 114 60 169 0 31 -2 33 -37 33 l-36 0 20 23 c26 27
53 106 53 152 l0 35 -120 0 -120 0 0 -28z m120 -62 c23 0 54 7 70 15 27 14 30
14 30 0 0 -25 -29 -88 -52 -112 -46 -49 -114 -11 -138 75 -14 53 -13 54 20 37
16 -8 47 -15 70 -15z m0 -220 c14 0 43 9 64 20 l38 19 -6 -32 c-10 -49 -40
-100 -68 -117 -40 -22 -74 -1 -103 62 -14 29 -25 60 -25 69 0 15 4 15 37 -2
21 -10 49 -19 63 -19z"/>
<path d="M963 908 c12 -102 77 -188 131 -174 55 14 106 107 106 193 l0 33
-121 0 -122 0 6 -52z m124 -38 c28 0 58 7 71 16 20 14 22 14 22 -1 0 -25 -29
-88 -52 -112 -46 -49 -114 -11 -138 75 -14 53 -13 54 20 37 16 -8 51 -15 77
-15z"/>
</g>
</svg>
