<?xml version="1.0" standalone="no"?>
<!DOCTYPE svg PUBLIC "-//W3C//DTD SVG 20010904//EN"
 "http://www.w3.org/TR/2001/REC-SVG-20010904/DTD/svg10.dtd">
<svg version="1.0" xmlns="http://www.w3.org/2000/svg"
 width="173.000000pt" height="148.000000pt" viewBox="0 0 173.000000 148.000000"
 preserveAspectRatio="xMidYMid meet">
<metadata>
Created by potrace 1.16, written by Peter Selinger 2001-2019
</metadata>
<g transform="translate(0.000000,148.000000) scale(0.100000,-0.100000)"
fill="#000000" stroke="none">
<path d="M350 1165 c-10 -12 4 -30 86 -108 l97 -93 -69 -49 c-106 -75 -164
-133 -164 -163 0 -37 88 -118 178 -165 39 -21 72 -41 72 -45 0 -4 -38 -59 -85
-121 -47 -63 -83 -117 -79 -120 8 -8 119 113 195 213 67 88 104 156 114 207 8
46 -33 131 -114 232 -69 87 -199 227 -211 227 -4 0 -13 -7 -20 -15z m238 -272
c75 -96 79 -140 22 -249 -22 -42 -42 -79 -44 -82 -3 -2 -36 16 -74 42 -72 48
-152 126 -152 149 0 7 13 26 29 41 32 30 172 135 183 136 3 0 20 -17 36 -37z"/>
<path d="M952 918 c5 -35 19 -80 34 -105 l25 -43 -31 0 c-29 0 -30 -2 -30 -41
0 -97 57 -189 118 -189 57 0 105 79 114 185 3 39 2 40 -30 43 l-32 3 18 27
c24 33 40 84 44 137 l3 40 -121 3 -121 3 9 -63z m113 -28 c39 0 60 6 80 22
l28 22 -7 -30 c-42 -176 -159 -177 -200 0 l-7 28 27 -21 c19 -15 41 -21 79
-21z m-16 -216 c31 -5 50 -1 81 15 l40 21 -6 -28 c-11 -48 -38 -95 -67 -116
-26 -19 -30 -19 -54 -6 -32 18 -62 66 -73 116 -8 35 -8 35 15 20 13 -9 42 -18
64 -22z"/>
<path d="M1203 922 c2 -32 14 -77 26 -100 l21 -42 -25 0 c-23 0 -25 -4 -25
-44 0 -50 15 -99 42 -138 l18 -27 -27 -3 c-27 -3 -28 -5 -26 -52 5 -134 95
-222 164 -160 28 25 59 87 59 116 -1 16 -7 7 -20 -26 -24 -61 -56 -96 -88 -96
-31 0 -75 47 -90 98 -17 58 -16 68 8 47 31 -28 117 -31 158 -5 27 16 33 26 30
48 -2 21 -9 28 -31 30 -27 3 -28 4 -12 22 25 28 44 89 45 143 0 44 -2 47 -25
47 l-25 0 22 42 c12 24 24 67 26 100 l4 58 -117 0 -118 0 6 -58z m103 -30 c46
-4 61 -1 86 18 l30 22 -7 -33 c-4 -19 -17 -52 -29 -74 -20 -38 -23 -40 -71
-40 -48 0 -49 1 -71 45 -12 25 -25 58 -29 75 -6 29 -6 29 14 11 14 -12 42 -21
77 -24z m31 -207 c20 3 47 13 59 22 28 18 28 20 9 -43 -19 -65 -52 -97 -95
-92 -39 4 -65 34 -85 100 l-14 46 46 -20 c32 -14 55 -18 80 -13z"/>
<path d="M764 910 c-38 -15 -64 -59 -64 -107 0 -38 5 -50 34 -79 26 -26 42
-34 70 -34 49 0 92 23 111 60 50 96 -49 201 -151 160z"/>
</g>
</svg>
