<?xml version="1.0" standalone="no"?>
<!DOCTYPE svg PUBLIC "-//W3C//DTD SVG 20010904//EN"
 "http://www.w3.org/TR/2001/REC-SVG-20010904/DTD/svg10.dtd">
<svg version="1.0" xmlns="http://www.w3.org/2000/svg"
 width="150.000000pt" height="148.000000pt" viewBox="0 0 150.000000 148.000000"
 preserveAspectRatio="xMidYMid meet">
<metadata>
Created by potrace 1.16, written by Peter Selinger 2001-2019
</metadata>
<g transform="translate(0.000000,148.000000) scale(0.100000,-0.100000)"
fill="#000000" stroke="none">
<path d="M350 1165 c-10 -12 4 -30 86 -108 l97 -93 -69 -49 c-106 -75 -164
-133 -164 -163 0 -37 88 -118 178 -165 39 -21 72 -41 72 -45 0 -4 -38 -59 -85
-121 -47 -63 -83 -117 -79 -120 16 -15 234 250 281 343 48 94 34 152 -73 292
-59 78 -211 244 -224 244 -4 0 -13 -7 -20 -15z m238 -272 c75 -96 79 -140 22
-249 -22 -42 -42 -79 -44 -82 -3 -2 -36 16 -74 42 -72 48 -152 126 -152 149 0
7 13 26 29 41 32 30 172 135 183 136 3 0 20 -17 36 -37z"/>
<path d="M710 932 c0 -42 27 -126 51 -156 l20 -26 -37 0 -37 0 7 -57 c3 -32
17 -79 31 -105 l24 -48 -29 0 c-26 0 -30 -4 -30 -28 0 -84 57 -185 110 -197
54 -13 117 72 127 171 l6 54 -30 0 -30 0 24 49 c13 26 27 74 30 105 l6 56 -38
0 -38 0 20 23 c26 27 53 106 53 152 l0 35 -120 0 -120 0 0 -28z m120 -62 c23
0 54 7 70 15 27 14 30 14 30 0 0 -25 -29 -88 -52 -112 -46 -49 -114 -11 -138
75 -14 53 -13 54 20 37 16 -8 47 -15 70 -15z m0 -220 c14 0 43 9 64 20 l38 19
-6 -32 c-10 -51 -41 -101 -68 -111 -47 -17 -77 0 -104 57 -13 29 -24 59 -24
68 0 15 4 15 37 -2 21 -10 49 -19 63 -19z m-3 -200 c24 0 57 7 73 15 27 14 30
14 30 0 0 -9 -7 -32 -15 -53 -47 -112 -129 -108 -170 7 -23 65 -20 77 11 52
18 -14 41 -21 71 -21z"/>
<path d="M963 908 c4 -29 17 -74 30 -100 l24 -48 -30 0 -30 0 7 -55 c7 -65 40
-139 69 -160 35 -25 76 -19 108 16 31 33 59 112 59 166 0 30 -2 33 -32 33 -30
0 -30 1 -14 19 21 24 46 103 46 148 l0 33 -121 0 -122 0 6 -52z m124 -38 c28
0 58 7 71 16 20 14 22 14 22 -1 0 -22 -28 -86 -47 -107 -22 -25 -85 -24 -107
1 -18 20 -45 84 -46 109 0 10 7 9 30 -3 16 -8 51 -15 77 -15z m-2 -210 c16 0
45 9 63 20 l32 20 0 -22 c0 -33 -39 -107 -66 -125 -39 -25 -81 -2 -110 61 -13
28 -24 58 -24 67 0 15 4 15 37 -2 21 -10 51 -19 68 -19z"/>
</g>
</svg>
