<?xml version="1.0" standalone="no"?>
<!DOCTYPE svg PUBLIC "-//W3C//DTD SVG 20010904//EN"
 "http://www.w3.org/TR/2001/REC-SVG-20010904/DTD/svg10.dtd">
<svg version="1.0" xmlns="http://www.w3.org/2000/svg"
 width="118.000000pt" height="148.000000pt" viewBox="0 0 118.000000 148.000000"
 preserveAspectRatio="xMidYMid meet">
<metadata>
Created by potrace 1.16, written by Peter Selinger 2001-2019
</metadata>
<g transform="translate(0.000000,148.000000) scale(0.100000,-0.100000)"
fill="#000000" stroke="none">
<path d="M539 1164 c-11 -14 -8 -21 23 -49 l36 -33 -46 -39 c-26 -21 -59 -46
-74 -56 -15 -9 -61 -56 -103 -103 -64 -74 -75 -92 -75 -123 0 -41 38 -108 88
-155 17 -16 29 -32 27 -36 -3 -4 3 -7 12 -6 9 0 22 -8 27 -20 6 -11 16 -19 22
-17 5 2 20 -6 32 -17 11 -11 24 -20 26 -20 5 0 101 -56 115 -66 2 -2 -15 -29
-39 -60 -102 -135 21 -23 145 132 153 191 160 261 41 422 -52 69 -225 262
-236 262 -4 0 -14 -7 -21 -16z m150 -169 c43 -47 50 -61 26 -52 -9 4 -65 -45
-162 -143 -81 -83 -151 -150 -155 -150 -4 0 -12 10 -19 21 -10 20 2 35 137
173 l149 151 -152 -149 c-152 -149 -152 -150 -164 -124 -6 15 -9 38 -5 51 6
26 173 190 186 182 4 -2 26 16 50 40 24 25 49 45 56 45 6 0 30 -20 53 -45z m3
-154 l2 -72 -97 -97 c-53 -54 -97 -102 -97 -107 0 -6 43 35 95 89 l95 100 0
-40 c0 -36 -7 -46 -78 -117 l-77 -77 -65 59 -65 59 140 141 c76 77 140 139
142 138 1 -2 4 -36 5 -76z m92 40 c23 -32 26 -43 17 -60 -11 -20 -49 -51 -64
-51 -11 0 13 43 29 53 8 4 14 13 14 19 0 7 -5 6 -15 -2 -13 -11 -15 -8 -15 22
0 19 -5 39 -12 46 -9 9 -9 12 4 12 8 0 27 -18 42 -39z m52 -147 c-4 -18 -9
-34 -11 -34 -3 0 -16 10 -30 22 -19 16 -22 24 -14 35 6 7 8 13 3 13 -4 0 3 12
17 26 l24 25 8 -26 c5 -14 6 -42 3 -61z m-61 26 c-3 -5 -14 -10 -23 -10 -15 0
-15 2 -2 10 20 13 33 13 25 0z m7 -49 c30 -27 31 -29 18 -60 -12 -31 -55 -69
-65 -59 -3 3 7 22 21 44 15 21 19 32 10 25 -14 -12 -16 -9 -16 27 0 23 -5 43
-12 45 -10 4 -10 6 -1 6 7 1 27 -12 45 -28z m-87 -96 c-1 -16 -20 -45 -51 -78
l-49 -52 45 41 c30 28 57 43 83 47 42 7 43 11 -15 -75 -21 -32 -42 -58 -46
-58 -4 0 -31 16 -60 35 -60 41 -62 35 28 126 56 57 67 59 65 14z"/>
<path d="M435 858 l-90 -93 93 90 c85 83 97 95 89 95 -1 0 -43 -42 -92 -92z"/>
<path d="M560 725 c-62 -64 -111 -118 -108 -120 2 -2 58 50 123 115 66 66 115
120 109 120 -6 0 -61 -52 -124 -115z"/>
</g>
</svg>
