<?xml version="1.0" standalone="no"?>
<!DOCTYPE svg PUBLIC "-//W3C//DTD SVG 20010904//EN"
 "http://www.w3.org/TR/2001/REC-SVG-20010904/DTD/svg10.dtd">
<svg version="1.0" xmlns="http://www.w3.org/2000/svg"
 width="127.000000pt" height="160.000000pt" viewBox="0 0 127.000000 160.000000"
 preserveAspectRatio="xMidYMid meet">
<metadata>
Created by potrace 1.16, written by Peter Selinger 2001-2019
</metadata>
<g transform="translate(0.000000,160.000000) scale(0.100000,-0.100000)"
fill="#000000" stroke="none">
<path d="M601 1286 c-12 -15 -11 -20 12 -44 l27 -28 -93 -92 c-51 -51 -100
-92 -109 -92 -29 0 -77 -50 -90 -93 -7 -23 -20 -55 -30 -72 -23 -38 -23 -68 1
-119 10 -23 23 -60 30 -83 14 -50 61 -93 101 -93 19 0 65 -25 134 -72 l107
-71 -23 -26 c-12 -14 -38 -43 -57 -63 -25 -27 -30 -38 -19 -38 33 0 293 289
352 391 37 64 36 144 -1 208 -40 70 -162 226 -250 320 -71 76 -80 82 -92 67z
m143 -180 c78 -87 90 -104 57 -86 -11 5 -31 10 -45 10 -22 0 -26 -4 -26 -32
l0 -31 -22 21 c-27 24 -70 42 -104 42 -22 0 -24 -4 -25 -52 -1 -29 -4 -43 -6
-31 -2 12 -19 35 -37 50 l-32 28 75 83 c41 45 77 82 81 82 4 0 42 -38 84 -84z
m-66 -116 c65 -40 63 -109 -5 -151 -19 -12 -36 -19 -39 -17 -2 3 1 19 7 37 11
32 8 99 -6 134 -9 22 2 22 43 -3z m142 5 c57 -29 66 -87 23 -134 -16 -16 -39
-32 -51 -36 -22 -6 -23 -5 -11 16 15 29 15 118 0 147 -14 27 -3 29 39 7z m99
-120 c12 -25 21 -52 21 -61 0 -19 -40 -114 -49 -114 -3 0 -13 15 -21 32 -9 18
-31 40 -53 51 l-39 20 29 12 c33 15 68 51 78 83 3 12 8 22 10 22 1 0 12 -20
24 -45z m-339 -72 l0 -98 -17 34 c-9 18 -27 38 -40 44 -22 10 -32 27 -14 27
16 0 61 53 61 71 0 11 2 19 5 19 3 0 5 -44 5 -97z m150 -4 l0 -61 -30 25 c-16
14 -39 29 -51 32 -19 6 -17 9 19 25 22 10 43 23 46 29 13 21 16 11 16 -50z
m-311 1 c0 -3 -13 -15 -30 -28 l-29 -23 -11 27 c-7 20 -7 35 1 52 l10 23 30
-23 c16 -13 29 -25 29 -28z m281 -55 c33 -35 31 -79 -6 -115 -16 -15 -39 -31
-51 -35 -22 -6 -22 -5 -8 22 19 36 19 94 1 138 l-14 33 28 -9 c15 -6 38 -21
50 -34z m164 -28 c14 -38 -2 -77 -43 -104 -41 -28 -55 -29 -43 -5 23 44 21
105 -4 166 -7 18 -4 17 37 -5 26 -15 47 -35 53 -52z m-264 -147 c31 0 73 20
103 48 l27 26 0 -38 c0 -37 1 -38 28 -33 15 3 36 9 47 13 19 8 -20 -47 -83
-118 l-24 -27 -67 50 c-36 26 -77 57 -91 68 l-25 20 28 28 c15 16 28 38 29 49
1 10 3 -5 5 -33 3 -44 7 -53 23 -53z"/>
</g>
</svg>
