<?xml version="1.0" standalone="no"?>
<!DOCTYPE svg PUBLIC "-//W3C//DTD SVG 20010904//EN"
 "http://www.w3.org/TR/2001/REC-SVG-20010904/DTD/svg10.dtd">
<svg version="1.0" xmlns="http://www.w3.org/2000/svg"
 width="127.000000pt" height="148.000000pt" viewBox="0 0 127.000000 148.000000"
 preserveAspectRatio="xMidYMid meet">
<metadata>
Created by potrace 1.16, written by Peter Selinger 2001-2019
</metadata>
<g transform="translate(0.000000,148.000000) scale(0.100000,-0.100000)"
fill="#000000" stroke="none">
<path d="M639 1164 c-11 -13 0 -28 85 -107 l98 -92 -46 -32 c-26 -18 -50 -33
-54 -33 -4 0 -56 31 -117 69 -60 38 -113 67 -117 65 -22 -14 2 -34 102 -93 98
-57 108 -65 92 -77 -9 -7 -20 -14 -24 -14 -4 0 -54 29 -111 65 -108 67 -127
75 -127 51 0 -8 47 -42 105 -76 85 -50 103 -65 94 -76 -13 -16 -5 -19 -144 70
-55 35 -103 62 -107 59 -22 -13 3 -35 108 -97 63 -37 114 -70 111 -72 -3 -4
-179 10 -254 20 -27 4 -33 1 -33 -13 0 -15 12 -19 83 -24 45 -4 110 -7 143 -7
75 0 92 -20 41 -46 -18 -9 -73 -41 -124 -71 -65 -39 -90 -59 -86 -69 7 -20 9
-19 142 65 101 64 114 69 128 55 8 -8 14 -16 12 -18 -2 -1 -52 -31 -112 -65
-111 -66 -125 -77 -111 -91 8 -8 187 93 226 127 13 12 21 12 38 3 20 -11 16
-15 -62 -60 -46 -26 -98 -56 -115 -66 -32 -18 -42 -37 -25 -48 4 -2 61 29 126
70 l118 74 59 -33 59 -34 -41 -59 c-23 -32 -62 -85 -86 -117 -98 -127 -7 -50
123 104 21 24 59 77 86 118 46 71 48 76 48 145 0 69 -2 75 -47 144 -49 73
-247 302 -262 302 -5 0 -14 -7 -22 -16z m233 -266 c36 -47 68 -114 68 -141 0
-24 -72 -181 -87 -190 -16 -10 -98 51 -95 69 3 12 -1 15 -13 11 -21 -9 -54 13
-48 30 4 9 0 11 -11 7 -11 -4 -19 3 -28 23 -7 15 -17 31 -23 36 -6 4 -5 11 5
17 8 5 11 10 6 10 -5 0 -1 9 8 19 11 12 25 17 39 13 19 -5 20 -3 9 10 -10 13
-8 18 12 32 14 9 32 13 41 10 12 -5 16 -2 13 9 -3 14 54 65 73 67 4 0 18 -15
31 -32z"/>
</g>
</svg>
