<?xml version="1.0" standalone="no"?>
<!DOCTYPE svg PUBLIC "-//W3C//DTD SVG 20010904//EN"
 "http://www.w3.org/TR/2001/REC-SVG-20010904/DTD/svg10.dtd">
<svg version="1.0" xmlns="http://www.w3.org/2000/svg"
 width="118.000000pt" height="148.000000pt" viewBox="0 0 118.000000 148.000000"
 preserveAspectRatio="xMidYMid meet">
<metadata>
Created by potrace 1.16, written by Peter Selinger 2001-2019
</metadata>
<g transform="translate(0.000000,148.000000) scale(0.100000,-0.100000)"
fill="#000000" stroke="none">
<path d="M540 1165 c-11 -13 -8 -21 21 -51 l34 -35 -45 -36 c-25 -20 -91 -82
-147 -138 -96 -95 -103 -105 -103 -142 0 -49 39 -113 106 -172 44 -40 213
-156 238 -164 6 -2 -9 -29 -32 -61 -101 -133 15 -30 139 125 65 80 119 172
126 213 9 56 -4 98 -55 174 -46 71 -247 302 -262 302 -4 0 -13 -7 -20 -15z
m183 -210 c73 -84 117 -159 117 -197 0 -47 -152 -318 -179 -318 -14 0 -145 96
-205 151 -65 59 -116 131 -116 164 0 12 6 29 13 38 10 15 11 10 9 -32 -3 -42
0 -53 25 -80 53 -60 153 -50 188 19 44 85 -20 177 -116 168 -22 -2 -39 -2 -39
-1 0 11 208 173 220 171 7 -2 45 -39 83 -83z"/>
<path d="M600 750 l0 -230 25 0 c39 0 89 25 113 55 42 54 17 131 -51 160 l-31
13 31 16 c99 50 95 159 -7 200 -85 34 -80 46 -80 -214z m86 194 c68 -33 79
-102 22 -149 -40 -34 -61 -34 -48 1 14 37 12 105 -4 137 -17 32 -15 32 30 11z
m12 -234 c65 -40 61 -119 -9 -155 -37 -19 -45 -15 -29 16 12 22 9 108 -5 142
-9 22 2 22 43 -3z"/>
</g>
</svg>
