<?xml version="1.0" standalone="no"?>
<!DOCTYPE svg PUBLIC "-//W3C//DTD SVG 20010904//EN"
 "http://www.w3.org/TR/2001/REC-SVG-20010904/DTD/svg10.dtd">
<svg version="1.0" xmlns="http://www.w3.org/2000/svg"
 width="127.000000pt" height="148.000000pt" viewBox="0 0 127.000000 148.000000"
 preserveAspectRatio="xMidYMid meet">
<metadata>
Created by potrace 1.16, written by Peter Selinger 2001-2019
</metadata>
<g transform="translate(0.000000,148.000000) scale(0.100000,-0.100000)"
fill="#000000" stroke="none">
<path d="M629 1165 c-15 -15 -9 -23 77 -107 52 -50 94 -94 94 -98 0 -25 -39
-9 -143 56 -108 68 -137 79 -137 54 0 -5 51 -39 113 -76 61 -36 114 -68 116
-70 2 -2 -7 -8 -21 -14 -21 -10 -37 -4 -138 59 -79 49 -116 67 -121 59 -4 -7
-6 -15 -3 -19 2 -4 51 -34 110 -68 88 -52 103 -65 94 -77 -7 -8 -17 -14 -22
-14 -6 0 -59 29 -118 65 -111 67 -130 74 -130 52 0 -11 116 -85 199 -127 20
-10 21 -14 9 -26 -13 -13 -30 -5 -133 60 -66 41 -123 72 -127 70 -22 -14 2
-35 110 -96 111 -64 117 -69 116 -98 -1 -29 -9 -36 -105 -92 -118 -69 -137
-84 -124 -97 7 -7 54 17 130 64 110 67 121 72 137 58 16 -14 9 -21 -95 -80
-128 -73 -135 -79 -121 -93 8 -8 49 13 134 65 105 65 125 74 137 62 12 -12 -2
-23 -96 -76 -61 -34 -113 -66 -115 -70 -3 -4 -1 -12 3 -19 5 -8 45 12 129 64
107 66 124 74 143 63 21 -11 17 -14 -47 -48 -116 -61 -184 -105 -184 -118 0
-23 21 -14 147 63 117 71 127 75 154 64 l28 -12 -38 -57 c-22 -31 -62 -85 -90
-121 -27 -35 -48 -67 -45 -70 9 -8 147 141 211 227 76 102 107 173 100 229 -6
61 -93 186 -219 318 -96 100 -104 106 -119 91z m250 -296 c65 -97 63 -134 -15
-267 -23 -38 -27 -41 -47 -31 -12 7 -24 15 -27 18 -3 3 -17 12 -32 20 -23 12
-26 17 -15 29 10 13 9 15 -6 9 -23 -9 -57 9 -57 29 0 8 -4 13 -9 10 -15 -9
-44 33 -44 64 0 38 20 62 46 54 16 -5 19 -3 14 10 -8 21 33 49 59 39 16 -6 17
-4 7 8 -10 13 -7 18 17 33 17 9 30 14 30 9 0 -4 5 0 11 10 16 27 24 21 68 -44z"/>
<path d="M305 879 c-9 -13 -15 -10 95 -53 52 -20 105 -41 118 -47 31 -12 49
-12 36 1 -8 8 -231 110 -240 110 -2 0 -6 -5 -9 -11z"/>
<path d="M470 721 c-133 -50 -174 -71 -163 -82 10 -10 253 87 253 103 0 12 -7
10 -90 -21z"/>
</g>
</svg>
