<?xml version="1.0" standalone="no"?>
<!DOCTYPE svg PUBLIC "-//W3C//DTD SVG 20010904//EN"
 "http://www.w3.org/TR/2001/REC-SVG-20010904/DTD/svg10.dtd">
<svg version="1.0" xmlns="http://www.w3.org/2000/svg"
 width="118.000000pt" height="148.000000pt" viewBox="0 0 118.000000 148.000000"
 preserveAspectRatio="xMidYMid meet">
<metadata>
Created by potrace 1.16, written by Peter Selinger 2001-2019
</metadata>
<g transform="translate(0.000000,148.000000) scale(0.100000,-0.100000)"
fill="#000000" stroke="none">
<path d="M540 1165 c-11 -13 -8 -21 21 -51 l34 -35 -45 -36 c-25 -20 -91 -82
-147 -138 -96 -96 -103 -105 -103 -142 0 -48 41 -114 108 -174 43 -38 211
-154 236 -162 6 -2 -9 -29 -32 -61 -101 -133 15 -30 139 125 65 80 119 172
126 213 9 56 -4 98 -55 174 -46 71 -247 302 -262 302 -4 0 -13 -7 -20 -15z
m183 -210 c73 -84 117 -159 117 -197 0 -47 -152 -318 -179 -318 -14 0 -145 96
-205 151 -67 61 -116 131 -116 166 0 14 18 43 43 70 61 68 240 214 257 211 7
-2 45 -39 83 -83z"/>
<path d="M580 977 c-13 -7 -35 -28 -48 -47 -55 -81 18 -187 119 -172 37 5 85
52 92 89 17 91 -82 171 -163 130z"/>
<path d="M569 705 c-36 -20 -63 -78 -55 -120 9 -48 66 -95 115 -95 106 0 152
131 71 203 -34 31 -87 36 -131 12z"/>
</g>
</svg>
