<?xml version="1.0" standalone="no"?>
<!DOCTYPE svg PUBLIC "-//W3C//DTD SVG 20010904//EN"
 "http://www.w3.org/TR/2001/REC-SVG-20010904/DTD/svg10.dtd">
<svg version="1.0" xmlns="http://www.w3.org/2000/svg"
 width="112.000000pt" height="148.000000pt" viewBox="0 0 112.000000 148.000000"
 preserveAspectRatio="xMidYMid meet">
<metadata>
Created by potrace 1.16, written by Peter Selinger 2001-2019
</metadata>
<g transform="translate(0.000000,148.000000) scale(0.100000,-0.100000)"
fill="#000000" stroke="none">
<path d="M479 1164 c-11 -13 0 -28 85 -107 l98 -92 -78 -55 c-43 -30 -82 -56
-85 -58 -4 -2 -46 22 -93 53 -74 50 -106 61 -106 37 0 -4 38 -31 85 -61 l85
-53 -20 -25 c-48 -61 -3 -126 150 -214 l81 -46 -57 -79 c-31 -43 -72 -99 -92
-123 -62 -77 -8 -40 73 49 140 155 215 276 215 347 0 45 -32 111 -89 188 -52
68 -220 255 -230 255 -5 0 -14 -7 -22 -16z m234 -268 c47 -60 70 -120 63 -158
-14 -74 -21 -74 -136 8 -58 41 -104 78 -103 81 2 7 135 102 144 103 4 0 18
-15 32 -34z m-87 -167 c63 -39 114 -73 114 -76 0 -9 -40 -82 -48 -87 -21 -13
-195 122 -212 165 -11 25 -10 32 5 49 10 11 20 20 23 20 2 0 55 -32 118 -71z"/>
</g>
</svg>
