<?xml version="1.0" standalone="no"?>
<!DOCTYPE svg PUBLIC "-//W3C//DTD SVG 20010904//EN"
 "http://www.w3.org/TR/2001/REC-SVG-20010904/DTD/svg10.dtd">
<svg version="1.0" xmlns="http://www.w3.org/2000/svg"
 width="123.000000pt" height="148.000000pt" viewBox="0 0 123.000000 148.000000"
 preserveAspectRatio="xMidYMid meet">
<metadata>
Created by potrace 1.16, written by Peter Selinger 2001-2019
</metadata>
<g transform="translate(0.000000,148.000000) scale(0.100000,-0.100000)"
fill="#000000" stroke="none">
<path d="M590 1165 c-10 -12 -10 -18 0 -30 11 -13 -5 -34 -108 -138 -134 -138
-182 -204 -182 -254 0 -83 109 -216 268 -327 45 -32 82 -60 82 -64 0 -3 -7
-14 -17 -24 -9 -10 -13 -21 -10 -24 8 -8 57 32 88 73 13 17 54 68 91 114 165
203 168 275 18 463 -68 86 -198 226 -210 226 -4 0 -13 -7 -20 -15z m131 -152
c35 -38 76 -81 89 -96 l24 -28 -44 20 c-25 11 -60 21 -78 21 l-32 0 3 -180 c2
-99 6 -182 10 -186 11 -12 74 6 111 31 l36 25 -36 -58 c-20 -31 -59 -87 -86
-124 -55 -75 -53 -74 -118 -19 -27 23 -31 31 -17 31 32 0 67 45 67 85 0 46
-13 71 -48 89 -15 9 -21 15 -14 16 27 0 62 48 62 85 0 46 -13 71 -48 89 -18
10 -22 15 -10 16 27 0 58 49 58 89 -1 40 -14 62 -49 80 l-23 13 33 34 c18 19
36 34 39 34 3 0 35 -30 71 -67z m69 -118 c30 -15 47 -53 37 -79 -7 -17 -42
-41 -75 -51 -21 -6 -23 -5 -13 13 15 28 14 105 -1 120 -18 18 16 16 52 -3z
m-320 -7 c0 -18 41 -58 59 -58 9 0 3 -8 -15 -19 -62 -38 -62 -134 0 -163 l26
-11 -23 -11 c-12 -6 -29 -26 -37 -43 -8 -18 -18 -33 -21 -33 -9 0 -65 73 -88
116 -31 57 -27 94 15 151 64 84 84 101 84 71z m400 -58 c24 -47 25 -86 4 -140
l-16 -40 -22 33 c-12 17 -36 39 -53 48 l-32 16 34 16 c49 23 71 61 56 93 -18
40 7 18 29 -26z m-84 -116 c34 -16 52 -50 40 -79 -6 -18 -65 -55 -86 -55 -11
0 -11 3 -2 12 15 15 16 92 2 119 -13 24 -1 25 46 3z"/>
</g>
</svg>
