<?xml version="1.0" standalone="no"?>
<!DOCTYPE svg PUBLIC "-//W3C//DTD SVG 20010904//EN"
 "http://www.w3.org/TR/2001/REC-SVG-20010904/DTD/svg10.dtd">
<svg version="1.0" xmlns="http://www.w3.org/2000/svg"
 width="171.000000pt" height="148.000000pt" viewBox="0 0 171.000000 148.000000"
 preserveAspectRatio="xMidYMid meet">
<metadata>
Created by potrace 1.16, written by Peter Selinger 2001-2019
</metadata>
<g transform="translate(0.000000,148.000000) scale(0.100000,-0.100000)"
fill="#000000" stroke="none">
<path d="M539 1164 c-11 -14 -8 -21 23 -49 l36 -33 -51 -43 c-86 -71 -218
-202 -233 -231 -41 -80 17 -170 186 -289 36 -25 84 -56 108 -69 23 -13 42 -27
42 -31 0 -3 -18 -29 -40 -57 -22 -27 -40 -53 -40 -56 0 -19 27 5 106 95 163
184 224 297 203 373 -5 20 -32 68 -59 108 -49 74 -245 298 -259 298 -5 0 -15
-7 -22 -16z m140 -158 l33 -34 -41 5 c-41 6 -41 5 -41 -27 l0 -32 -31 26 c-17
14 -36 26 -42 26 -14 1 64 70 79 70 5 0 25 -15 43 -34z m-76 -87 c29 -32 32
-44 17 -83 -8 -23 -62 -66 -82 -66 -4 0 -2 13 3 30 12 32 8 113 -6 144 -7 16
-5 17 16 11 13 -3 36 -20 52 -36z m117 26 c62 -32 68 -97 15 -144 -36 -31 -79
-45 -56 -17 20 24 24 99 8 139 -18 41 -11 45 33 22z m-225 -195 c12 0 15 -19
15 -100 0 -93 -1 -100 -18 -91 -27 14 -118 113 -136 149 -27 52 -20 69 52 144
l67 70 3 -86 c2 -67 6 -86 17 -86z m342 21 c6 -45 -28 -124 -102 -236 -72
-108 -65 -105 -131 -59 l-57 39 40 7 c88 15 153 65 153 118 0 49 -90 110 -162
110 -30 1 -31 2 -13 12 11 6 30 20 43 31 l22 20 0 -31 c0 -28 4 -32 25 -32 46
0 102 36 122 79 l18 39 18 -29 c11 -16 21 -46 24 -68z m-178 -60 c104 -49 84
-128 -43 -166 l-45 -14 19 37 c25 46 25 75 0 130 l-19 42 27 -6 c15 -3 42 -14
61 -23z"/>
<path d="M920 950 c0 -43 23 -122 45 -155 l24 -35 -36 0 -36 0 6 -50 c17 -139
98 -216 170 -160 31 25 67 116 67 170 0 39 -1 40 -37 40 l-36 0 22 24 c25 27
51 103 51 153 l0 33 -120 0 c-112 0 -120 -1 -120 -20z m57 -59 c31 -16 99 -14
133 4 27 14 30 14 30 0 0 -9 -7 -32 -15 -53 -48 -114 -134 -107 -171 13 -16
53 -18 77 -6 59 4 -6 17 -16 29 -23z m63 -231 c14 0 43 9 64 20 l38 19 -5 -35
c-8 -47 -44 -103 -73 -114 -48 -19 -101 34 -119 117 l-6 31 37 -19 c21 -10 50
-19 64 -19z"/>
<path d="M1174 919 c10 -71 33 -125 68 -154 39 -33 60 -32 103 6 37 33 65 104
65 166 l0 33 -121 0 -122 0 7 -51z m53 -28 c31 -16 99 -14 133 4 27 14 30 14
30 0 0 -25 -29 -88 -52 -112 -46 -49 -106 -15 -137 76 -13 39 -15 72 -3 55 4
-6 17 -16 29 -23z"/>
</g>
</svg>
