<?xml version="1.0" standalone="no"?>
<!DOCTYPE svg PUBLIC "-//W3C//DTD SVG 20010904//EN"
 "http://www.w3.org/TR/2001/REC-SVG-20010904/DTD/svg10.dtd">
<svg version="1.0" xmlns="http://www.w3.org/2000/svg"
 width="118.000000pt" height="148.000000pt" viewBox="0 0 118.000000 148.000000"
 preserveAspectRatio="xMidYMid meet">
<metadata>
Created by potrace 1.16, written by Peter Selinger 2001-2019
</metadata>
<g transform="translate(0.000000,148.000000) scale(0.100000,-0.100000)"
fill="#000000" stroke="none">
<path d="M539 1164 c-11 -14 -8 -21 23 -50 l37 -33 -68 -55 c-38 -31 -105 -94
-150 -141 -72 -75 -81 -89 -81 -122 0 -54 73 -162 128 -192 13 -7 19 -17 16
-26 -5 -11 -2 -13 10 -9 19 7 49 -14 39 -29 -3 -5 -1 -7 5 -3 8 5 102 -45 151
-81 2 -1 -15 -28 -39 -59 -99 -132 18 -27 141 127 77 95 122 177 127 230 5 56
-16 108 -82 197 -52 69 -225 262 -236 262 -4 0 -14 -7 -21 -16z m135 -153 l29
-30 -154 -156 c-84 -85 -157 -154 -163 -152 -5 2 -14 11 -20 20 -9 14 14 42
144 174 l155 158 -155 -153 c-86 -84 -159 -150 -163 -146 -18 18 -4 58 36 101
50 55 237 213 253 213 5 0 23 -13 38 -29z m64 -77 c-300 -309 -309 -316 -329
-298 -19 18 -17 21 138 176 148 148 158 156 175 141 10 -9 17 -17 16 -19z m31
-32 c8 -16 -14 -43 -144 -172 -147 -147 -156 -154 -172 -137 -17 16 -10 25
137 172 85 85 158 155 162 155 4 0 12 -8 17 -18z m36 -53 c6 -18 -17 -46 -137
-166 -136 -136 -146 -144 -167 -132 -20 13 -15 20 131 166 84 84 156 153 160
153 4 0 10 -10 13 -21z m30 -56 c6 -24 -6 -39 -127 -160 -73 -73 -135 -133
-138 -133 -3 0 -14 7 -25 16 -19 14 -13 21 125 159 80 80 148 145 151 145 4 0
10 -12 14 -27z m-19 -110 c-17 -37 -53 -86 -99 -133 -61 -64 -63 -67 -13 -20
32 30 55 48 51 40 -21 -38 -87 -130 -93 -130 -4 0 -25 12 -46 26 l-38 26 128
129 c70 70 130 127 132 124 2 -2 -8 -30 -22 -62z"/>
</g>
</svg>
