<?xml version="1.0" standalone="no"?>
<!DOCTYPE svg PUBLIC "-//W3C//DTD SVG 20010904//EN"
 "http://www.w3.org/TR/2001/REC-SVG-20010904/DTD/svg10.dtd">
<svg version="1.0" xmlns="http://www.w3.org/2000/svg"
 width="130.000000pt" height="148.000000pt" viewBox="0 0 130.000000 148.000000"
 preserveAspectRatio="xMidYMid meet">
<metadata>
Created by potrace 1.16, written by Peter Selinger 2001-2019
</metadata>
<g transform="translate(0.000000,148.000000) scale(0.100000,-0.100000)"
fill="#000000" stroke="none">
<path d="M543 1163 c-9 -15 -6 -23 24 -49 l36 -30 -89 -76 c-117 -99 -201
-189 -210 -223 -12 -47 13 -101 74 -163 54 -55 169 -139 240 -176 17 -9 32
-21 32 -27 0 -6 -18 -34 -40 -62 -69 -86 -32 -67 53 28 45 50 140 150 211 223
72 72 126 132 121 132 -6 0 -45 -37 -89 -82 -43 -46 -77 -78 -74 -73 40 92 70
140 116 188 31 31 53 57 49 57 -5 0 -30 -23 -56 -51 l-48 -51 -7 33 c-6 30 -1
38 51 94 l58 60 -61 -58 -60 -58 -13 27 c-12 26 -9 30 51 93 l63 66 -66 -63
-65 -63 -32 45 c-18 24 -32 48 -32 53 0 5 29 38 65 72 36 35 65 66 65 69 0 4
-32 -25 -71 -63 l-70 -70 -35 37 c-18 21 -34 41 -34 46 0 4 23 31 50 59 28 28
50 55 50 59 0 5 -26 -17 -58 -49 l-58 -57 -59 60 c-33 33 -62 60 -65 60 -3 0
-10 -8 -17 -17z m107 -131 c0 -5 -11 -19 -25 -32 -14 -13 -23 -26 -20 -28 3
-3 18 6 33 21 l28 27 39 -40 39 -40 -32 -32 -32 -33 -21 22 -21 21 31 23 c17
12 31 27 31 33 0 5 -15 -5 -33 -22 -30 -29 -37 -32 -61 -22 -15 5 -41 10 -57
10 -16 0 -29 3 -29 8 1 9 110 92 121 92 5 0 9 -4 9 -8z m-122 -472 c81 0 170
58 158 103 -4 18 8 36 62 90 36 37 70 67 74 67 4 0 11 -16 17 -36 17 -62 -11
-117 -111 -215 -48 -47 -88 -89 -88 -94 0 -5 32 22 71 60 l72 70 -52 -77 c-28
-42 -55 -79 -61 -83 -16 -10 -158 93 -237 171 -88 88 -108 135 -74 182 11 16
47 54 78 82 l58 53 3 -186 2 -187 28 0z m94 344 c51 -29 51 -35 1 -86 -54 -55
-80 -64 -57 -20 7 15 14 33 14 41 0 8 10 26 23 40 l22 26 -23 -19 c-12 -11
-23 -17 -25 -15 -13 23 -27 50 -27 53 0 5 54 -9 72 -20z m147 5 c12 -20 7 -27
-64 -99 l-77 -78 -36 12 c-27 8 -32 12 -17 14 41 8 86 36 100 62 8 15 11 30 8
34 -6 6 55 76 67 76 3 0 11 -10 19 -21z m-16 -141 c-37 -37 -73 -68 -79 -68
-6 0 -17 7 -24 16 -12 13 -3 26 61 90 l74 75 18 -22 c18 -22 17 -23 -50 -91z
m-89 58 c-4 -9 -21 -24 -38 -33 l-31 -15 34 36 c36 37 46 41 35 12z m-68 -101
c13 -4 14 -8 4 -20 -17 -21 -25 -19 -38 10 -12 25 -13 25 34 10z m58 -37 c9
-12 16 -30 16 -40 0 -20 -45 -54 -85 -64 -25 -6 -27 -5 -20 12 4 10 10 33 13
49 5 34 28 65 48 65 7 0 20 -10 28 -22z"/>
<path d="M725 648 l-110 -113 113 110 c104 102 117 115 109 115 -1 0 -52 -51
-112 -112z"/>
<path d="M619 633 l-34 -38 38 34 c34 33 42 41 34 41 -2 0 -19 -17 -38 -37z"/>
<path d="M790 1075 c-35 -36 -62 -65 -59 -65 6 0 98 88 118 113 28 35 4 15
-59 -48z"/>
<path d="M870 973 l-65 -68 68 65 c37 35 67 66 67 67 0 8 -10 -2 -70 -64z"/>
<path d="M850 514 c-74 -73 -130 -134 -125 -134 13 0 271 258 264 264 -2 3
-65 -56 -139 -130z"/>
<path d="M870 445 c-47 -47 -82 -85 -78 -85 7 0 168 157 168 165 0 10 -5 5
-90 -80z"/>
</g>
</svg>
