<?xml version="1.0" standalone="no"?>
<!DOCTYPE svg PUBLIC "-//W3C//DTD SVG 20010904//EN"
 "http://www.w3.org/TR/2001/REC-SVG-20010904/DTD/svg10.dtd">
<svg version="1.0" xmlns="http://www.w3.org/2000/svg"
 width="152.000000pt" height="160.000000pt" viewBox="0 0 152.000000 160.000000"
 preserveAspectRatio="xMidYMid meet">
<metadata>
Created by potrace 1.16, written by Peter Selinger 2001-2019
</metadata>
<g transform="translate(0.000000,160.000000) scale(0.100000,-0.100000)"
fill="#000000" stroke="none">
<path d="M593 1282 c-9 -15 -7 -22 13 -38 13 -10 23 -23 24 -28 0 -5 -28 -36
-63 -70 -97 -93 -207 -216 -239 -265 -15 -25 -28 -59 -28 -76 0 -70 118 -197
291 -312 l99 -66 -56 -63 c-91 -104 -36 -74 70 38 179 188 276 326 276 393 0
41 -62 150 -141 250 -82 103 -218 255 -228 255 -3 0 -11 -8 -18 -18z m94 -119
c14 -16 48 -52 77 -82 l51 -53 -34 4 c-26 4 -35 1 -38 -12 -4 -16 -8 -16 -31
-5 -15 8 -40 15 -57 17 -26 3 -30 0 -33 -25 -3 -27 -4 -28 -22 -12 -10 9 -34
22 -53 29 l-35 12 70 77 c38 42 72 77 75 77 3 0 17 -12 30 -27z m-89 -185 c42
-40 23 -111 -38 -143 -40 -21 -41 -20 -24 20 17 42 17 78 0 127 l-13 36 26 -9
c14 -6 36 -20 49 -31z m138 12 c2 0 4 -31 4 -68 l0 -68 -36 -18 c-35 -16 -36
-16 -28 1 16 36 16 121 1 152 l-15 31 35 -15 c20 -8 37 -15 39 -15z m130 -33
c25 -38 26 -43 13 -66 -14 -25 -78 -75 -86 -67 -3 2 0 13 6 24 16 30 13 108
-4 142 l-15 29 29 -10 c16 -6 41 -29 57 -52z m-392 -336 c-10 -11 -103 102
-121 148 -16 42 -16 45 3 77 10 18 42 60 69 93 l50 61 3 -187 c1 -102 0 -189
-4 -192z m466 192 c1 -38 -179 -316 -233 -362 -9 -7 -37 9 -101 56 l-88 66 33
14 c19 8 43 23 54 33 21 20 21 20 19 -10 -1 -17 1 -32 5 -35 17 -10 88 19 119
48 57 55 36 140 -42 168 l-34 12 31 16 c30 15 32 15 39 -2 15 -37 123 8 148
60 l13 28 18 -40 c10 -22 19 -45 19 -52z m-316 20 c-1 -16 -2 -41 -3 -57 l-1
-29 -22 20 c-13 11 -34 24 -47 28 -25 7 -24 8 11 26 20 10 40 23 43 29 12 19
22 10 19 -17z m-71 -54 c74 -38 89 -100 37 -149 -16 -15 -38 -30 -48 -32 -17
-5 -18 -3 -6 31 17 46 17 76 0 124 -15 41 -14 42 17 26z m197 -36 c29 -38 25
-70 -14 -109 -39 -39 -74 -47 -56 -13 12 22 9 122 -4 151 -7 16 -5 17 23 7 17
-6 40 -22 51 -36z"/>
<path d="M1068 901 c-46 -41 -45 -92 1 -133 28 -25 39 -29 70 -24 79 12 108
101 52 157 -39 38 -80 39 -123 0z"/>
</g>
</svg>
