<?xml version="1.0" standalone="no"?>
<!DOCTYPE svg PUBLIC "-//W3C//DTD SVG 20010904//EN"
 "http://www.w3.org/TR/2001/REC-SVG-20010904/DTD/svg10.dtd">
<svg version="1.0" xmlns="http://www.w3.org/2000/svg"
 width="127.000000pt" height="160.000000pt" viewBox="0 0 127.000000 160.000000"
 preserveAspectRatio="xMidYMid meet">
<metadata>
Created by potrace 1.16, written by Peter Selinger 2001-2019
</metadata>
<g transform="translate(0.000000,160.000000) scale(0.100000,-0.100000)"
fill="#000000" stroke="none">
<path d="M601 1286 c-13 -15 -11 -20 12 -43 l26 -27 -137 -140 c-145 -150
-202 -224 -202 -265 0 -75 113 -199 289 -316 115 -77 113 -61 27 -152 -27 -29
-35 -43 -24 -43 18 0 188 174 270 276 88 110 108 151 108 221 0 55 -4 67 -48
134 -61 93 -149 203 -238 298 -63 67 -71 72 -83 57z m140 -177 l73 -81 -32 3
c-20 3 -36 -1 -41 -10 -5 -8 -14 -10 -22 -6 -7 5 -30 11 -51 15 -39 7 -42 4
-39 -32 3 -23 -1 -23 -45 7 -20 14 -46 25 -56 25 -15 0 -3 19 53 80 39 44 75
80 79 80 4 0 41 -36 81 -81z m-141 -134 c43 -46 24 -107 -42 -141 -38 -19 -39
-18 -22 21 18 43 18 86 0 130 l-14 33 28 -9 c15 -6 38 -21 50 -34z m121 22
c10 -8 18 -35 22 -75 7 -62 7 -62 -26 -82 -41 -25 -50 -25 -37 1 12 22 9 132
-4 161 -6 13 -4 15 11 12 10 -3 25 -11 34 -17z m142 -35 c30 -41 30 -43 15
-75 -9 -19 -31 -41 -49 -50 -39 -19 -45 -16 -29 13 12 23 10 122 -4 153 -16
34 35 3 67 -41z m-383 -154 l-1 -193 -58 62 c-33 34 -64 78 -71 97 -10 33 -9
41 12 76 20 34 108 148 116 150 1 0 2 -87 2 -192z m456 25 c5 -27 -1 -48 -25
-97 -31 -60 -173 -259 -202 -282 -11 -10 -32 1 -102 54 l-87 66 32 13 c18 8
43 24 55 35 l23 21 0 -36 c0 -36 1 -37 28 -31 57 13 97 40 116 79 19 38 19 39
0 74 -11 22 -35 44 -60 57 l-40 20 38 16 c37 16 38 16 38 -4 0 -17 4 -19 33
-13 51 11 87 34 105 66 15 26 18 27 29 12 7 -9 16 -32 19 -50z m-310 -80 c-3
-3 -13 3 -23 12 -9 10 -30 23 -46 30 l-29 12 30 12 c17 7 39 22 49 33 18 20
18 19 21 -37 2 -31 1 -60 -2 -62z m-68 23 c89 -46 84 -142 -8 -175 l-28 -9 14
33 c18 44 18 87 0 130 -17 39 -16 40 22 21z m152 -1 c83 -43 78 -126 -9 -170
-33 -16 -34 -16 -26 1 22 54 22 114 0 167 -9 21 -2 21 35 2z"/>
</g>
</svg>
