<?xml version="1.0" standalone="no"?>
<!DOCTYPE svg PUBLIC "-//W3C//DTD SVG 20010904//EN"
 "http://www.w3.org/TR/2001/REC-SVG-20010904/DTD/svg10.dtd">
<svg version="1.0" xmlns="http://www.w3.org/2000/svg"
 width="127.000000pt" height="160.000000pt" viewBox="0 0 127.000000 160.000000"
 preserveAspectRatio="xMidYMid meet">
<metadata>
Created by potrace 1.16, written by Peter Selinger 2001-2019
</metadata>
<g transform="translate(0.000000,160.000000) scale(0.100000,-0.100000)"
fill="#000000" stroke="none">
<path d="M600 1285 c-11 -14 -9 -20 13 -42 l26 -27 -137 -140 c-145 -150 -202
-224 -202 -265 0 -75 113 -199 289 -316 115 -77 113 -61 27 -152 -27 -29 -35
-43 -24 -43 33 0 293 289 352 391 37 64 36 144 -1 208 -39 69 -125 180 -217
284 -107 119 -110 121 -126 102z m155 -192 c93 -105 153 -188 175 -241 10 -26
10 -41 2 -70 -21 -68 -213 -339 -237 -334 -15 4 -165 116 -165 123 0 4 17 9
38 13 22 3 51 17 65 30 l27 25 0 -29 c0 -37 8 -42 55 -29 50 14 105 68 105
103 0 43 -26 82 -70 104 -38 19 -39 20 -16 26 35 9 86 71 86 105 0 54 -67 111
-130 111 -25 0 -30 -4 -30 -25 l0 -26 -29 22 c-16 12 -50 24 -75 26 l-46 6 4
-228 4 -227 -69 68 c-73 73 -115 141 -105 172 4 11 21 39 39 64 40 57 267 308
278 308 4 0 47 -44 94 -97z m-105 -132 c18 -34 11 -68 -19 -99 -35 -35 -77
-51 -64 -24 10 23 10 142 -1 165 -8 18 -6 17 32 -2 23 -12 46 -30 52 -40z
m130 14 c43 -46 24 -107 -42 -141 -37 -19 -39 -18 -22 14 18 35 18 93 0 137
l-14 33 28 -9 c15 -6 38 -21 50 -34z m-120 -170 l0 -54 -36 24 c-20 14 -44 25
-53 25 -9 0 3 9 25 19 23 10 45 24 48 30 13 20 16 11 16 -44z m-20 -62 c36
-47 18 -103 -43 -135 -38 -19 -39 -19 -31 -1 11 23 11 142 0 165 -7 16 -5 17
23 7 17 -6 40 -22 51 -36z m109 27 c82 -42 70 -134 -22 -169 l-27 -11 15 30
c19 37 19 91 1 135 -8 19 -13 35 -10 35 3 0 22 -9 43 -20z"/>
</g>
</svg>
