<?xml version="1.0" standalone="no"?>
<!DOCTYPE svg PUBLIC "-//W3C//DTD SVG 20010904//EN"
 "http://www.w3.org/TR/2001/REC-SVG-20010904/DTD/svg10.dtd">
<svg version="1.0" xmlns="http://www.w3.org/2000/svg"
 width="118.000000pt" height="148.000000pt" viewBox="0 0 118.000000 148.000000"
 preserveAspectRatio="xMidYMid meet">
<metadata>
Created by potrace 1.16, written by Peter Selinger 2001-2019
</metadata>
<g transform="translate(0.000000,148.000000) scale(0.100000,-0.100000)"
fill="#000000" stroke="none">
<path d="M540 1165 c-11 -13 -8 -21 21 -51 l34 -35 -40 -35 c-22 -19 -51 -42
-65 -51 -14 -9 -62 -56 -107 -105 -74 -79 -83 -92 -83 -126 0 -48 44 -117 111
-175 27 -23 49 -48 49 -54 0 -7 7 -13 16 -13 12 0 134 -68 173 -97 2 -1 -15
-28 -39 -59 -102 -135 21 -23 145 132 124 156 149 237 101 327 -14 26 -26 55
-26 64 0 8 -24 39 -53 67 -29 28 -88 90 -131 139 -44 48 -82 87 -86 87 -4 0
-13 -7 -20 -15z m135 -155 c22 -23 25 -30 12 -30 -9 0 -17 -4 -17 -10 0 -6 -9
-6 -26 0 -35 14 -84 13 -84 -2 0 -6 -3 -8 -7 -4 -9 8 65 76 83 76 5 0 23 -13
39 -30z m-113 -141 c3 -66 1 -73 -20 -87 -29 -19 -35 -12 -22 22 13 34 13 87
1 119 -12 30 -5 40 19 27 15 -8 19 -25 22 -81z m89 81 c16 -9 19 -22 19 -84 0
-68 -2 -74 -25 -84 -35 -16 -36 -16 -25 14 13 33 13 120 0 145 -12 22 0 25 31
9z m134 -71 c32 -45 28 -61 -17 -89 -43 -26 -49 -25 -38 6 13 34 13 110 -1
137 -12 22 -12 22 9 4 11 -10 33 -36 47 -58z m-325 -136 l0 -157 -31 30 c-43
40 -89 113 -89 142 0 15 20 45 57 83 31 32 58 59 60 59 1 0 3 -71 3 -157z
m379 20 c1 -12 -3 -33 -9 -48 l-10 -25 -20 20 c-12 12 -33 25 -48 31 l-27 11
30 12 c17 7 39 23 50 35 18 21 20 21 26 4 4 -10 8 -28 8 -40z m-166 -7 c-5
-22 -8 -23 -30 -13 l-24 11 23 13 c32 17 36 16 31 -11z m-103 10 c0 -2 -3 -11
-6 -20 -5 -12 -10 -13 -26 -5 -17 9 -18 13 -7 20 15 9 39 12 39 5z m-8 -123
c3 -70 1 -77 -20 -91 -29 -19 -35 -12 -22 22 14 38 13 91 -4 131 l-14 33 28
-10 c27 -9 29 -12 32 -85z m108 11 c0 -35 1 -67 1 -71 1 -5 -13 -17 -31 -27
-33 -20 -34 -20 -24 0 11 24 12 143 0 166 -7 16 -5 17 23 7 30 -11 31 -12 31
-75z m99 61 c16 -8 31 -22 35 -31 7 -19 -53 -135 -74 -142 -10 -4 -11 0 -5 14
14 31 18 112 6 144 -11 34 -4 37 38 15z m-186 -195 c7 1 30 7 52 15 48 18 46
18 43 3 -2 -6 7 -14 20 -17 l22 -6 -25 -37 c-14 -21 -29 -38 -33 -38 -4 0 -35
19 -70 43 -56 38 -61 43 -45 55 15 11 19 11 21 -2 2 -9 9 -16 15 -16z"/>
</g>
</svg>
