<?xml version="1.0" standalone="no"?>
<!DOCTYPE svg PUBLIC "-//W3C//DTD SVG 20010904//EN"
 "http://www.w3.org/TR/2001/REC-SVG-20010904/DTD/svg10.dtd">
<svg version="1.0" xmlns="http://www.w3.org/2000/svg"
 width="118.000000pt" height="148.000000pt" viewBox="0 0 118.000000 148.000000"
 preserveAspectRatio="xMidYMid meet">
<metadata>
Created by potrace 1.16, written by Peter Selinger 2001-2019
</metadata>
<g transform="translate(0.000000,148.000000) scale(0.100000,-0.100000)"
fill="#000000" stroke="none">
<path d="M540 1165 c-11 -13 -8 -21 21 -51 l34 -35 -45 -36 c-25 -20 -91 -82
-147 -138 -96 -96 -103 -105 -103 -142 0 -48 41 -114 108 -174 43 -38 211
-154 236 -162 6 -2 -9 -29 -32 -61 -101 -133 15 -30 139 125 65 80 119 172
126 213 9 56 -4 98 -55 174 -46 71 -247 302 -262 302 -4 0 -13 -7 -20 -15z
m139 -159 l33 -34 -41 5 c-41 6 -41 5 -41 -27 l0 -32 -31 26 c-17 14 -36 26
-42 26 -14 1 64 70 79 70 5 0 25 -15 43 -34z m-101 -66 c65 -40 61 -119 -9
-155 -37 -19 -45 -15 -29 16 12 22 9 108 -5 142 -9 22 2 22 43 -3z m142 5 c60
-31 67 -90 16 -141 -19 -19 -41 -34 -49 -34 -13 0 -13 5 -1 41 14 41 11 95 -8
132 -11 21 3 22 42 2z m-225 -195 c12 0 15 -19 15 -100 0 -93 -1 -100 -18 -91
-27 14 -118 113 -136 149 -27 52 -20 69 52 144 l67 70 3 -86 c2 -67 6 -86 17
-86z m345 10 c0 -14 -14 -54 -30 -89 -34 -72 -136 -231 -147 -231 -5 0 -33 17
-63 37 l-55 37 42 7 c53 10 117 43 137 71 44 63 -20 140 -129 157 l-42 6 38
27 39 28 0 -30 c0 -23 4 -30 20 -30 53 0 120 49 135 99 7 24 9 23 31 -20 13
-24 23 -55 24 -69z m-214 -35 c134 -40 124 -145 -17 -183 l-36 -10 20 49 c18
42 19 53 8 88 -6 22 -18 47 -27 56 -19 19 -11 19 52 0z"/>
</g>
</svg>
