<?xml version="1.0" standalone="no"?>
<!DOCTYPE svg PUBLIC "-//W3C//DTD SVG 20010904//EN"
 "http://www.w3.org/TR/2001/REC-SVG-20010904/DTD/svg10.dtd">
<svg version="1.0" xmlns="http://www.w3.org/2000/svg"
 width="118.000000pt" height="148.000000pt" viewBox="0 0 118.000000 148.000000"
 preserveAspectRatio="xMidYMid meet">
<metadata>
Created by potrace 1.16, written by Peter Selinger 2001-2019
</metadata>
<g transform="translate(0.000000,148.000000) scale(0.100000,-0.100000)"
fill="#000000" stroke="none">
<path d="M540 1165 c-11 -13 -8 -21 21 -51 l34 -35 -45 -36 c-25 -20 -91 -82
-147 -138 -96 -96 -103 -105 -103 -142 0 -48 41 -114 108 -174 43 -38 211
-154 236 -162 6 -2 -9 -29 -32 -61 -24 -32 -41 -60 -38 -63 7 -7 111 104 179
191 26 34 62 78 81 98 28 31 35 49 41 97 4 33 3 75 -1 93 -4 18 -8 49 -8 68
-1 27 -8 38 -36 57 -47 30 -41 24 -159 157 -57 64 -107 116 -111 116 -4 0 -13
-7 -20 -15z m150 -172 c41 -47 41 -48 18 -54 -12 -3 -49 -4 -81 -1 l-58 5 1
-99 c0 -54 3 -141 7 -191 l6 -93 28 0 c15 0 39 4 53 10 17 6 26 6 26 0 0 -6
14 -10 30 -10 l31 0 -41 -60 c-22 -33 -44 -60 -49 -60 -14 0 -145 96 -205 151
-66 60 -116 131 -116 165 0 11 19 43 43 70 49 55 236 214 254 214 6 0 30 -21
53 -47z m-11 -79 c2 -2 6 -32 8 -67 5 -61 4 -65 -19 -70 -36 -10 -39 -8 -28
12 15 29 12 93 -6 119 -15 22 -15 23 13 16 15 -4 30 -8 32 -10z m115 -48 c20
-30 36 -57 36 -61 0 -7 -64 -35 -81 -35 -8 0 -8 4 -2 13 24 29 23 68 -3 131
-13 34 12 9 50 -48z m52 9 c9 -13 14 -30 12 -36 -2 -7 -14 4 -26 24 -24 41
-12 51 14 12z m-13 -145 c-4 -4 -26 1 -48 10 -28 13 -34 19 -20 20 11 0 31 7
45 15 24 13 25 12 28 -12 2 -14 0 -29 -5 -33z m-146 13 c-3 -2 -16 -1 -29 3
l-23 8 25 6 c23 6 39 -4 27 -17z m1 -86 c2 -37 -1 -67 -5 -67 -4 0 -19 -3 -32
-7 -22 -5 -22 -4 -11 17 12 22 10 91 -4 122 -7 14 -4 16 21 9 27 -7 28 -10 31
-74z m126 56 c12 -7 10 -17 -17 -67 -18 -33 -38 -62 -44 -64 -9 -2 -8 4 2 25
19 36 19 61 0 97 -8 15 -15 30 -15 31 0 5 56 -12 74 -22z"/>
<path d="M418 835 c-83 -47 -53 -175 41 -175 47 0 77 21 91 64 26 79 -60 151
-132 111z"/>
</g>
</svg>
