<?xml version="1.0" standalone="no"?>
<!DOCTYPE svg PUBLIC "-//W3C//DTD SVG 20010904//EN"
 "http://www.w3.org/TR/2001/REC-SVG-20010904/DTD/svg10.dtd">
<svg version="1.0" xmlns="http://www.w3.org/2000/svg"
 width="139.000000pt" height="158.000000pt" viewBox="0 0 139.000000 158.000000"
 preserveAspectRatio="xMidYMid meet">
<metadata>
Created by potrace 1.16, written by Peter Selinger 2001-2019
</metadata>
<g transform="translate(0.000000,158.000000) scale(0.100000,-0.100000)"
fill="#000000" stroke="none">
<path d="M694 1265 c-3 -8 -3 -18 0 -23 3 -5 -40 -58 -95 -118 -153 -166 -250
-284 -266 -323 -9 -20 -20 -39 -26 -43 -26 -16 69 -89 295 -224 87 -52 158
-98 158 -102 0 -3 -20 -27 -45 -52 -32 -32 -44 -52 -39 -63 3 -9 10 -17 14
-17 7 0 203 214 306 335 105 123 119 178 63 254 -64 88 -335 391 -351 391 -5
0 -11 -7 -14 -15z m133 -157 c149 -152 242 -260 248 -289 9 -40 -14 -76 -114
-181 -48 -51 -107 -114 -131 -140 -24 -27 -47 -48 -52 -48 -17 0 -338 222
-389 269 -40 36 -50 51 -45 67 3 11 38 54 76 95 63 67 69 72 70 48 0 -15 9
-38 20 -52 20 -25 20 -26 2 -31 -29 -9 -61 -49 -67 -81 -7 -39 23 -89 62 -102
95 -33 170 81 101 154 l-21 23 20 0 c23 0 73 53 73 77 0 11 8 8 31 -11 43 -36
91 -35 130 3 39 40 40 89 0 133 -22 24 -37 32 -63 32 -47 0 -87 -28 -95 -64
l-5 -30 -30 25 c-18 15 -42 25 -61 25 -31 0 -31 1 53 85 47 47 87 85 90 85 3
0 46 -42 97 -92z"/>
<path d="M900 879 c0 -4 -19 -7 -42 -7 -24 1 -77 -1 -118 -4 l-75 -7 -3 -63
c-2 -35 -7 -67 -13 -72 -5 -6 -9 -43 -9 -83 l0 -74 93 6 c129 8 151 13 181 36
35 28 35 71 0 98 l-27 21 39 0 c45 0 99 30 109 59 8 25 -9 57 -38 73 -29 15
-97 28 -97 17z m110 -44 c20 -25 7 -59 -29 -77 -42 -21 -45 -19 -30 16 9 19 9
35 2 60 l-11 34 29 -10 c15 -5 33 -16 39 -23z m-124 13 c4 -6 8 -32 8 -57 0
-35 -4 -47 -16 -49 -15 -3 -15 1 -5 27 8 23 9 39 0 61 -11 29 -2 42 13 18z
m-146 -67 c0 -35 -4 -51 -16 -55 -24 -9 -26 -8 -14 13 13 25 13 67 -1 92 -10
19 -9 19 10 9 17 -8 21 -20 21 -59z m73 17 c-1 -47 -8 -68 -23 -68 -4 0 -3 14
3 30 9 22 8 38 0 61 -10 26 -10 30 4 27 12 -2 16 -14 16 -50z m91 -99 c32 -26
33 -43 1 -74 -39 -40 -50 -33 -50 35 0 66 7 72 49 39z m-104 -43 c0 -40 -4
-55 -16 -60 -24 -9 -28 -7 -14 9 7 8 11 34 8 60 -2 31 1 45 9 45 9 0 13 -17
13 -54z m-80 -11 c0 -37 -4 -55 -12 -55 -9 0 -13 18 -13 55 0 37 4 55 13 55 8
0 12 -18 12 -55z"/>
</g>
</svg>
