<?xml version="1.0" standalone="no"?>
<!DOCTYPE svg PUBLIC "-//W3C//DTD SVG 20010904//EN"
 "http://www.w3.org/TR/2001/REC-SVG-20010904/DTD/svg10.dtd">
<svg version="1.0" xmlns="http://www.w3.org/2000/svg"
 width="105.000000pt" height="148.000000pt" viewBox="0 0 105.000000 148.000000"
 preserveAspectRatio="xMidYMid meet">
<metadata>
Created by potrace 1.16, written by Peter Selinger 2001-2019
</metadata>
<g transform="translate(0.000000,148.000000) scale(0.100000,-0.100000)"
fill="#000000" stroke="none">
<path d="M352 1164 c-8 -14 10 -36 86 -108 l95 -92 -69 -49 c-103 -73 -164
-134 -164 -162 0 -37 71 -105 165 -158 47 -26 85 -50 85 -54 0 -3 -38 -58 -85
-121 -47 -63 -85 -116 -85 -117 0 -29 175 163 247 270 34 51 51 68 67 66 58
-4 56 -8 56 111 l0 110 -49 0 c-48 0 -49 0 -99 68 -57 76 -219 252 -232 252
-5 0 -13 -7 -18 -16z m234 -266 l27 -33 -36 -3 c-20 -2 -55 -2 -78 0 l-41 3
43 32 c24 18 47 32 51 33 3 0 19 -15 34 -32z m54 -91 c20 -45 18 -68 -10 -129
-11 -24 -19 -28 -57 -28 l-43 0 0 93 c0 52 3 97 7 100 3 4 24 7 45 7 36 0 40
-3 58 -43z m98 -59 l3 -98 -32 0 c-29 0 -31 2 -23 28 13 42 8 104 -10 140
l-17 33 38 -3 38 -3 3 -97z m-308 -5 l0 -98 -45 47 c-25 26 -45 52 -45 59 0
12 73 89 84 89 3 0 6 -44 6 -97z m170 -118 c0 -8 -15 -35 -36 -63 -3 -4 -114
69 -114 75 0 2 34 2 75 1 46 -1 75 -6 75 -13z"/>
</g>
</svg>
