<?xml version="1.0" standalone="no"?>
<!DOCTYPE svg PUBLIC "-//W3C//DTD SVG 20010904//EN"
 "http://www.w3.org/TR/2001/REC-SVG-20010904/DTD/svg10.dtd">
<svg version="1.0" xmlns="http://www.w3.org/2000/svg"
 width="121.000000pt" height="148.000000pt" viewBox="0 0 121.000000 148.000000"
 preserveAspectRatio="xMidYMid meet">
<metadata>
Created by potrace 1.16, written by Peter Selinger 2001-2019
</metadata>
<g transform="translate(0.000000,148.000000) scale(0.100000,-0.100000)"
fill="#000000" stroke="none">
<path d="M569 1164 c-11 -14 0 -28 86 -108 l98 -92 -29 -18 c-16 -11 -56 -40
-89 -65 -54 -41 -66 -46 -115 -47 -206 -2 -220 -4 -220 -20 0 -14 15 -16 119
-13 l118 4 -14 -21 c-10 -16 -11 -28 -3 -48 13 -35 13 -37 -2 -35 -7 1 -59 1
-115 0 -87 -1 -103 -3 -103 -17 0 -14 17 -15 130 -13 123 3 131 2 162 -21 18
-13 65 -42 105 -65 l73 -42 -56 -79 c-32 -43 -73 -98 -92 -122 -61 -74 -17
-45 68 46 141 150 220 274 220 347 0 81 -101 225 -291 418 -32 32 -33 32 -50
11z m233 -266 c36 -47 68 -113 68 -140 0 -24 -56 -147 -82 -181 -12 -16 -19
-14 -97 40 -46 31 -79 59 -72 61 19 6 12 22 -10 22 -23 0 -48 26 -49 49 0 19
39 61 57 61 7 0 13 6 13 13 0 11 126 107 141 107 4 0 18 -15 31 -32z"/>
</g>
</svg>
