<?xml version="1.0" standalone="no"?>
<!DOCTYPE svg PUBLIC "-//W3C//DTD SVG 20010904//EN"
 "http://www.w3.org/TR/2001/REC-SVG-20010904/DTD/svg10.dtd">
<svg version="1.0" xmlns="http://www.w3.org/2000/svg"
 width="135.000000pt" height="148.000000pt" viewBox="0 0 135.000000 148.000000"
 preserveAspectRatio="xMidYMid meet">
<metadata>
Created by potrace 1.16, written by Peter Selinger 2001-2019
</metadata>
<g transform="translate(0.000000,148.000000) scale(0.100000,-0.100000)"
fill="#000000" stroke="none">
<path d="M539 1164 c-11 -14 -8 -21 23 -50 l37 -33 -68 -55 c-38 -31 -105 -94
-150 -141 -73 -76 -81 -88 -81 -123 0 -47 42 -114 108 -173 43 -38 211 -154
236 -162 6 -2 -9 -29 -32 -61 -24 -32 -41 -60 -38 -64 16 -16 238 255 282 344
46 94 33 148 -67 281 -59 77 -218 253 -229 253 -4 0 -14 -7 -21 -16z m165
-186 c134 -149 155 -205 113 -298 -28 -64 -143 -240 -155 -240 -15 0 -145 95
-206 151 -67 61 -116 131 -116 166 0 14 18 43 43 70 52 57 238 213 254 213 6
0 37 -28 67 -62z"/>
<path d="M563 853 c4 -49 7 -134 7 -190 l0 -103 26 0 c43 0 103 22 129 46 51
47 24 106 -62 135 l-36 12 37 12 c103 36 114 114 23 156 -23 10 -62 19 -86 19
l-44 0 6 -87z m129 50 c15 -7 32 -22 38 -34 15 -27 -10 -66 -55 -85 -48 -20
-58 -18 -44 7 16 31 14 85 -5 115 -17 24 -17 25 11 18 15 -4 40 -13 55 -21z
m15 -198 c32 -21 38 -41 23 -69 -12 -23 -68 -56 -95 -56 -12 0 -12 4 1 28 18
35 18 60 -1 96 -8 15 -15 30 -15 31 0 7 64 -15 87 -30z"/>
<path d="M927 939 c-9 -5 -24 -24 -33 -41 -25 -49 -1 -107 56 -131 23 -9 23
-11 5 -15 -56 -12 -87 -79 -61 -131 20 -37 44 -51 88 -51 56 1 68 18 68 94 0
66 -1 67 -32 80 l-32 14 32 16 c31 16 32 19 32 81 0 55 -3 66 -22 79 -25 18
-74 20 -101 5z"/>
</g>
</svg>
