<?xml version="1.0" standalone="no"?>
<!DOCTYPE svg PUBLIC "-//W3C//DTD SVG 20010904//EN"
 "http://www.w3.org/TR/2001/REC-SVG-20010904/DTD/svg10.dtd">
<svg version="1.0" xmlns="http://www.w3.org/2000/svg"
 width="126.000000pt" height="148.000000pt" viewBox="0 0 126.000000 148.000000"
 preserveAspectRatio="xMidYMid meet">
<metadata>
Created by potrace 1.16, written by Peter Selinger 2001-2019
</metadata>
<g transform="translate(0.000000,148.000000) scale(0.100000,-0.100000)"
fill="#000000" stroke="none">
<path d="M352 1164 c-8 -14 10 -36 86 -108 l95 -92 -69 -49 c-103 -73 -164
-134 -164 -162 0 -37 71 -105 165 -158 47 -26 85 -50 85 -52 0 -8 -89 -133
-133 -186 -64 -78 -31 -68 45 13 139 150 222 275 235 354 7 44 -25 112 -96
206 -56 75 -219 250 -231 250 -5 0 -13 -7 -18 -16z m234 -266 c41 -49 74 -128
67 -158 -5 -23 -61 -139 -81 -168 -7 -10 -21 -6 -62 20 l-53 33 61 17 c161 48
165 164 7 214 l-54 17 37 28 c20 16 40 29 44 29 3 0 19 -15 34 -32z m-54 -58
c49 -14 98 -56 98 -84 0 -43 -47 -82 -122 -101 l-28 -7 16 38 c19 47 14 116
-11 144 -21 24 -11 26 47 10z m-120 -118 l3 -63 -37 40 c-21 22 -38 45 -38 50
0 6 15 27 33 47 37 43 34 48 39 -74z"/>
<path d="M717 1143 c-6 -9 10 -113 17 -121 3 -3 -1 -10 -10 -16 -13 -10 -13
-19 -1 -78 11 -54 11 -67 0 -74 -10 -7 -11 -22 -3 -73 8 -44 8 -66 1 -71 -7
-4 -8 -25 -1 -63 5 -31 6 -72 3 -90 -8 -52 23 -145 62 -184 40 -40 63 -41 104
-8 53 45 96 205 55 205 -8 0 -12 4 -9 10 13 21 25 124 14 130 -7 5 -7 27 0 70
11 65 8 85 -11 74 -8 -5 -9 -1 -4 12 17 44 27 126 17 138 -7 8 -7 31 -1 71 5
32 7 62 4 66 -6 11 -231 12 -237 2z m118 -93 c17 0 48 9 68 19 37 19 38 19 32
0 -18 -63 -10 -59 -100 -59 -78 0 -84 1 -90 23 -17 60 -19 57 22 36 20 -10 51
-19 68 -19z m5 -140 c19 0 50 9 68 20 l32 20 -6 -28 c-16 -66 -14 -64 -99 -64
-85 0 -83 -1 -98 63 l-7 27 37 -19 c21 -11 53 -19 73 -19z m-5 -150 c22 0 54
9 73 20 l32 20 -6 -28 c-14 -59 -19 -62 -99 -62 -80 0 -85 3 -99 62 l-6 28 32
-20 c19 -11 51 -20 73 -20z m0 -135 c49 0 68 4 85 20 l23 20 -6 -20 c-3 -11
-9 -32 -13 -47 -6 -28 -7 -28 -89 -28 -82 0 -83 0 -89 28 -4 15 -10 36 -13 47
l-6 20 23 -20 c17 -16 36 -20 85 -20z m5 -145 c23 0 54 7 70 15 27 14 30 14
30 0 0 -25 -29 -88 -52 -112 -46 -49 -114 -11 -138 75 -14 53 -13 54 20 37 16
-8 47 -15 70 -15z"/>
</g>
</svg>
