<?xml version="1.0" standalone="no"?>
<!DOCTYPE svg PUBLIC "-//W3C//DTD SVG 20010904//EN"
 "http://www.w3.org/TR/2001/REC-SVG-20010904/DTD/svg10.dtd">
<svg version="1.0" xmlns="http://www.w3.org/2000/svg"
 width="123.000000pt" height="148.000000pt" viewBox="0 0 123.000000 148.000000"
 preserveAspectRatio="xMidYMid meet">
<metadata>
Created by potrace 1.16, written by Peter Selinger 2001-2019
</metadata>
<g transform="translate(0.000000,148.000000) scale(0.100000,-0.100000)"
fill="#000000" stroke="none">
<path d="M590 1165 c-12 -14 -2 -27 78 -105 51 -49 92 -93 92 -98 0 -27 -36
-13 -143 54 -107 68 -137 79 -137 54 0 -4 46 -35 103 -69 56 -33 109 -65 117
-70 12 -7 10 -11 -10 -21 -24 -10 -35 -5 -135 58 -82 52 -113 67 -123 59 -17
-14 -1 -26 118 -93 49 -27 88 -53 87 -58 -2 -5 -10 -14 -19 -19 -12 -8 -41 6
-123 57 -96 59 -135 74 -135 49 0 -4 50 -37 110 -72 88 -51 108 -67 99 -77 -6
-8 -14 -12 -18 -10 -212 130 -236 143 -243 133 -10 -16 2 -26 121 -95 96 -57
104 -64 107 -95 2 -30 -1 -36 -34 -51 -62 -30 -202 -117 -202 -126 0 -25 29
-14 137 54 108 68 119 73 135 59 16 -15 12 -19 -55 -57 -156 -90 -166 -97
-160 -112 7 -20 9 -19 143 65 97 61 115 70 127 58 12 -12 0 -22 -81 -67 -121
-69 -138 -82 -127 -98 6 -10 37 5 129 63 107 66 124 75 143 64 20 -10 16 -14
-53 -52 -147 -82 -178 -102 -174 -112 6 -19 35 -7 151 65 109 68 118 71 145
60 l29 -12 -31 -47 c-17 -25 -58 -81 -90 -123 -33 -43 -55 -78 -50 -78 5 0 41
33 80 74 140 148 232 292 232 365 0 68 -111 230 -257 374 -62 61 -71 66 -83
52z m237 -277 c71 -100 75 -126 37 -208 -45 -96 -63 -121 -82 -110 -9 6 -30
19 -47 29 -16 10 -29 26 -28 35 0 12 -4 15 -14 12 -23 -9 -53 12 -46 31 5 12
2 15 -9 10 -18 -6 -42 17 -52 51 -5 14 -3 22 4 22 6 0 8 5 4 12 -10 16 23 37
49 30 19 -5 20 -3 9 11 -11 13 -10 18 11 32 13 8 32 13 41 9 12 -4 15 -2 10 9
-6 15 33 50 47 42 4 -3 9 2 13 10 9 24 21 18 53 -27z"/>
</g>
</svg>
