<?xml version="1.0" standalone="no"?>
<!DOCTYPE svg PUBLIC "-//W3C//DTD SVG 20010904//EN"
 "http://www.w3.org/TR/2001/REC-SVG-20010904/DTD/svg10.dtd">
<svg version="1.0" xmlns="http://www.w3.org/2000/svg"
 width="184.000000pt" height="115.000000pt" viewBox="0 0 184.000000 115.000000"
 preserveAspectRatio="xMidYMid meet">
<metadata>
Created by potrace 1.16, written by Peter Selinger 2001-2019
</metadata>
<g transform="translate(0.000000,115.000000) scale(0.100000,-0.100000)"
fill="#000000" stroke="none">
<path d="M841 810 c-46 -22 -123 -68 -172 -101 l-89 -61 -44 39 c-55 47 -213
130 -225 117 -4 -5 -4 -56 0 -114 4 -58 9 -168 11 -245 3 -123 5 -140 20 -143
35 -7 211 131 245 192 8 15 19 11 90 -38 44 -30 118 -74 164 -96 74 -36 91
-41 139 -37 33 2 96 20 156 44 117 46 406 203 401 217 -10 29 -360 211 -471
245 -97 30 -129 27 -225 -19z m200 -21 c76 -25 211 -81 368 -152 l114 -51 -88
-43 c-49 -24 -94 -43 -101 -43 -6 0 -27 17 -45 38 l-33 37 70 5 c65 5 67 5 29
12 -22 4 -59 8 -82 8 -37 0 -46 5 -87 53 -36 41 -46 48 -46 31 0 -11 11 -31
25 -44 31 -29 32 -40 1 -40 -16 0 -39 16 -69 50 -36 40 -46 47 -51 33 -4 -10
3 -27 21 -45 20 -21 23 -28 11 -28 -9 0 -34 21 -56 46 -30 36 -40 43 -45 30
-4 -10 5 -27 23 -46 25 -25 26 -30 11 -30 -10 0 -37 20 -60 45 -32 35 -43 42
-48 29 -3 -9 5 -27 23 -45 l28 -29 -24 0 c-16 0 -38 16 -67 48 -33 36 -42 43
-43 28 0 -11 12 -33 27 -48 l27 -28 -30 0 c-21 0 -40 10 -64 35 -24 25 -36 31
-41 23 -5 -8 1 -22 13 -35 l21 -23 -26 0 c-17 0 -27 -5 -27 -15 0 -11 11 -15
42 -15 38 0 48 -6 100 -57 67 -66 78 -59 17 11 l-41 46 34 0 c27 0 43 -9 78
-45 57 -58 72 -58 24 0 -35 43 -36 45 -13 45 14 0 42 -18 71 -47 57 -56 78
-50 23 7 -32 33 -36 40 -20 40 11 0 43 -20 70 -45 65 -58 82 -58 25 0 -35 36
-40 45 -25 45 11 0 41 -21 67 -47 57 -56 78 -50 23 7 l-39 40 35 0 c28 0 43
-9 79 -45 37 -38 42 -47 30 -55 -36 -23 -267 -112 -314 -122 -49 -11 -57 -10
-118 19 -37 17 -108 60 -160 95 -90 61 -93 64 -84 90 8 23 6 32 -14 53 -22 24
-22 25 -4 25 11 0 36 12 55 26 115 87 226 144 280 144 20 0 65 -9 100 -21z
m-661 -55 c0 -8 -7 -14 -15 -14 -8 0 -15 9 -15 20 0 13 5 18 15 14 8 -4 15
-12 15 -20z m-2 -45 c-2 -6 -8 -10 -13 -10 -5 0 -11 4 -13 10 -2 6 4 11 13 11
9 0 15 -5 13 -11z m105 -2 c15 -10 11 -12 -28 -9 -25 2 -45 8 -45 13 0 13 54
11 73 -4z m79 -57 l33 -29 -35 4 c-19 3 -60 7 -90 9 -30 3 -56 6 -57 6 -2 0
-3 6 -3 14 0 10 14 16 43 19 23 2 50 4 59 5 10 1 32 -11 50 -28z m-182 2 c0
-10 -7 -19 -15 -19 -8 0 -15 9 -15 19 0 10 7 18 15 18 8 0 15 -8 15 -18z m0
-57 c0 -8 -7 -15 -15 -15 -8 0 -15 7 -15 15 0 8 7 15 15 15 8 0 15 -7 15 -15z
m230 -5 c-8 -15 -21 -20 -53 -20 -80 0 -147 12 -147 26 0 11 23 14 105 14 103
0 105 -1 95 -20z m-226 -55 c4 -10 -1 -15 -14 -15 -11 0 -20 7 -20 15 0 8 6
15 14 15 8 0 16 -7 20 -15z m185 -2 c-9 -15 -23 -17 -85 -15 -56 3 -74 7 -74
18 0 11 18 14 85 14 79 0 84 -1 74 -17z m-47 -56 c-17 -18 -29 -22 -66 -19
-30 3 -46 9 -46 17 0 18 16 23 79 24 l54 1 -21 -23z m-132 -2 c0 -8 -9 -15
-20 -15 -11 0 -20 7 -20 15 0 8 9 15 20 15 11 0 20 -7 20 -15z m2 -63 c3 -23
-1 -32 -24 -45 l-28 -16 0 38 c0 42 5 51 31 51 11 0 18 -10 21 -28z m58 8
c-32 -25 -40 -25 -40 0 0 16 7 20 33 20 l32 0 -25 -20z"/>
</g>
</svg>
