<?xml version="1.0" standalone="no"?>
<!DOCTYPE svg PUBLIC "-//W3C//DTD SVG 20010904//EN"
 "http://www.w3.org/TR/2001/REC-SVG-20010904/DTD/svg10.dtd">
<svg version="1.0" xmlns="http://www.w3.org/2000/svg"
 width="148.000000pt" height="123.000000pt" viewBox="0 0 148.000000 123.000000"
 preserveAspectRatio="xMidYMid meet">
<metadata>
Created by potrace 1.16, written by Peter Selinger 2001-2019
</metadata>
<g transform="translate(0.000000,123.000000) scale(0.100000,-0.100000)"
fill="#000000" stroke="none">
<path d="M665 906 c-38 -12 -81 -28 -95 -36 -17 -9 -60 -13 -147 -11 -110 2
-123 1 -123 -15 0 -15 12 -16 119 -12 l118 4 -23 -51 c-13 -27 -29 -74 -36
-104 l-12 -53 -83 6 -83 7 0 -105 0 -106 118 6 117 6 45 -58 c57 -73 83 -82
229 -83 108 -1 117 1 175 30 66 34 130 78 123 86 -3 2 11 39 31 80 43 91 51
157 28 237 -20 68 -58 109 -131 141 -133 59 -253 69 -370 31z m231 -16 c34 -6
92 -20 129 -33 l67 -22 27 -65 c45 -106 46 -126 9 -237 -38 -117 -57 -138
-166 -184 -88 -37 -164 -43 -246 -20 -39 12 -45 16 -30 22 10 4 30 8 45 8 45
2 129 51 146 86 14 29 14 35 -2 64 -21 41 -99 79 -170 82 l-50 3 2 -117 c1
-64 0 -117 -3 -117 -3 0 -18 7 -34 15 -20 10 -41 39 -69 96 -48 95 -53 160
-22 251 34 100 46 115 108 138 109 41 158 46 259 30z m-426 -302 c0 -13 11
-47 25 -75 l24 -53 -43 0 c-24 0 -70 3 -102 6 l-59 6 3 64 c4 70 1 68 110 72
37 2 42 0 42 -20z m340 -42 c51 -25 70 -61 53 -99 -11 -24 -73 -59 -127 -71
l-28 -7 21 27 c28 35 28 107 1 152 l-20 32 28 -6 c15 -3 47 -16 72 -28z"/>
<path d="M856 842 c-3 -3 -6 -14 -6 -25 0 -14 -4 -17 -17 -12 -79 33 -156 44
-168 25 -4 -6 -3 -60 0 -120 l8 -110 36 0 c20 0 61 11 92 24 56 23 56 23 55 2
-1 -18 4 -21 39 -18 68 5 114 22 150 53 65 57 40 128 -58 163 -47 16 -123 27
-131 18z m141 -37 c43 -18 73 -50 73 -79 0 -38 -58 -82 -132 -100 l-28 -6 20
32 c11 19 20 51 20 73 0 22 -9 54 -20 73 l-20 32 28 -6 c15 -4 41 -12 59 -19z
m-189 -5 l42 -19 0 -61 c0 -60 -1 -61 -33 -75 -18 -7 -46 -17 -61 -21 l-28 -7
16 31 c23 44 21 113 -5 146 l-20 26 23 0 c13 0 42 -9 66 -20z"/>
</g>
</svg>
