<?xml version="1.0" standalone="no"?>
<!DOCTYPE svg PUBLIC "-//W3C//DTD SVG 20010904//EN"
 "http://www.w3.org/TR/2001/REC-SVG-20010904/DTD/svg10.dtd">
<svg version="1.0" xmlns="http://www.w3.org/2000/svg"
 width="148.000000pt" height="123.000000pt" viewBox="0 0 148.000000 123.000000"
 preserveAspectRatio="xMidYMid meet">
<metadata>
Created by potrace 1.16, written by Peter Selinger 2001-2019
</metadata>
<g transform="translate(0.000000,123.000000) scale(0.100000,-0.100000)"
fill="#000000" stroke="none">
<path d="M665 906 c-38 -12 -81 -28 -95 -36 -17 -9 -60 -13 -147 -11 -110 2
-123 1 -123 -15 0 -15 12 -16 119 -12 l118 4 -23 -51 c-13 -27 -29 -74 -36
-104 l-12 -53 -83 6 -83 7 0 -105 0 -106 118 6 117 6 45 -58 c57 -73 83 -82
229 -83 108 -1 117 1 175 30 66 34 130 78 123 86 -3 2 11 39 31 80 43 91 51
157 28 237 -20 68 -58 109 -131 141 -133 59 -253 69 -370 31z m235 -17 c36 -5
94 -20 128 -32 63 -22 64 -22 91 -87 45 -106 46 -126 9 -237 -38 -117 -57
-138 -166 -184 -111 -48 -189 -47 -294 3 l-76 36 -41 82 c-48 96 -54 160 -22
252 34 100 46 115 108 138 110 41 157 46 263 29z m-430 -301 c0 -13 11 -47 25
-75 l24 -53 -43 0 c-24 0 -70 3 -102 6 l-59 6 3 64 c4 70 1 68 110 72 37 2 42
0 42 -20z"/>
<path d="M771 749 c-23 -30 -23 -30 -107 -27 -66 2 -84 0 -84 -11 0 -10 17
-12 79 -10 l79 4 -14 -27 c-14 -27 -18 -28 -84 -28 l-70 0 0 -65 0 -65 83 0
c79 0 84 -1 104 -27 11 -16 31 -34 44 -41 22 -12 35 -6 164 68 77 44 140 86
140 93 0 15 -263 167 -291 167 -11 0 -30 -14 -43 -31z m183 -63 l139 -74 -59
-30 c-32 -17 -95 -51 -139 -76 -89 -51 -89 -51 -137 23 -34 54 -36 102 -7 151
17 28 58 80 64 80 0 0 63 -33 139 -74z m-246 -73 c-1 -10 2 -30 5 -45 l7 -28
-65 0 -65 0 0 45 0 45 59 0 c51 0 60 -3 59 -17z"/>
</g>
</svg>
