<?xml version="1.0" standalone="no"?>
<!DOCTYPE svg PUBLIC "-//W3C//DTD SVG 20010904//EN"
 "http://www.w3.org/TR/2001/REC-SVG-20010904/DTD/svg10.dtd">
<svg version="1.0" xmlns="http://www.w3.org/2000/svg"
 width="148.000000pt" height="123.000000pt" viewBox="0 0 148.000000 123.000000"
 preserveAspectRatio="xMidYMid meet">
<metadata>
Created by potrace 1.16, written by Peter Selinger 2001-2019
</metadata>
<g transform="translate(0.000000,123.000000) scale(0.100000,-0.100000)"
fill="#000000" stroke="none">
<path d="M665 906 c-38 -12 -81 -28 -95 -36 -17 -9 -60 -13 -147 -11 -110 2
-123 1 -123 -15 0 -15 12 -16 119 -12 l118 4 -23 -51 c-13 -27 -29 -74 -36
-104 l-12 -53 -83 6 -83 7 0 -105 0 -106 118 6 117 6 45 -58 c57 -73 83 -82
229 -83 108 -1 117 1 175 30 66 34 130 78 123 86 -3 2 11 39 31 81 44 93 52
166 27 242 -21 64 -60 104 -130 135 -133 59 -253 69 -370 31z m-5 -151 c-144
-144 -145 -145 -148 -114 -3 29 7 43 104 140 59 60 117 110 128 112 63 13 57
3 -84 -138z m214 138 c4 -4 -73 -87 -171 -185 -98 -98 -173 -178 -168 -178 6
0 92 81 190 181 170 170 182 180 208 172 27 -8 23 -12 -177 -212 l-205 -205
-21 48 c-11 26 -20 53 -20 59 0 7 71 83 157 169 149 149 183 174 207 151z
m-266 -101 c-45 -45 -83 -81 -84 -79 -1 1 10 30 26 63 26 58 31 63 81 82 30
11 55 19 56 18 2 -2 -34 -39 -79 -84z m404 70 c14 -6 -27 -52 -206 -231 l-225
-225 -12 28 c-13 27 -10 30 192 232 112 112 211 204 219 203 8 0 23 -4 32 -7z
m68 -22 c8 -5 15 -13 15 -17 1 -4 11 -27 23 -50 12 -23 22 -50 22 -60 0 -22
-369 -393 -390 -393 -21 0 -160 67 -160 77 0 15 445 453 460 453 8 0 22 -5 30
-10z m70 -234 c-17 -78 -30 -100 -103 -175 -66 -68 -131 -110 -167 -111 -8 0
32 47 90 105 58 58 100 105 95 105 -6 0 -59 -50 -119 -110 -88 -88 -115 -110
-138 -110 -15 0 -28 3 -28 7 0 4 82 90 182 190 160 160 184 180 190 162 4 -11
3 -40 -2 -63z m-680 -18 c0 -13 11 -47 25 -75 l24 -53 -43 0 c-24 0 -70 3
-102 6 l-59 6 3 64 c4 70 1 68 110 72 37 2 42 0 42 -20z m625 -147 c-6 -20
-70 -71 -87 -71 -5 0 13 21 39 48 27 26 50 46 51 45 2 -1 1 -11 -3 -22z"/>
<path d="M855 588 l-220 -223 223 220 c206 204 227 225 219 225 -1 0 -101
-100 -222 -222z"/>
<path d="M905 550 c-115 -116 -208 -210 -205 -210 3 0 100 94 215 210 115 116
208 210 205 210 -3 0 -100 -94 -215 -210z"/>
<path d="M1101 574 c-19 -19 -30 -34 -24 -34 11 0 68 58 62 64 -2 2 -19 -12
-38 -30z"/>
</g>
</svg>
