<?xml version="1.0" standalone="no"?>
<!DOCTYPE svg PUBLIC "-//W3C//DTD SVG 20010904//EN"
 "http://www.w3.org/TR/2001/REC-SVG-20010904/DTD/svg10.dtd">
<svg version="1.0" xmlns="http://www.w3.org/2000/svg"
 width="147.000000pt" height="123.000000pt" viewBox="0 0 147.000000 123.000000"
 preserveAspectRatio="xMidYMid meet">
<metadata>
Created by potrace 1.16, written by Peter Selinger 2001-2019
</metadata>
<g transform="translate(0.000000,123.000000) scale(0.100000,-0.100000)"
fill="#000000" stroke="none">
<path d="M730 911 c-30 -10 -70 -25 -89 -35 -28 -15 -55 -17 -185 -14 -144 3
-151 2 -151 -16 0 -19 7 -20 147 -17 l146 3 -24 -59 c-13 -32 -24 -66 -24 -75
0 -16 -13 -18 -125 -18 l-125 0 0 -146 0 -147 163 7 163 8 25 -36 c33 -48 84
-66 192 -66 67 0 97 5 125 19 59 31 136 89 138 105 1 8 14 45 30 83 38 94 41
155 15 242 -17 55 -26 71 -40 71 -18 0 -17 -3 4 -57 13 -32 26 -76 30 -98 6
-39 5 -39 -9 -15 -23 40 -90 72 -163 78 l-65 5 3 -52 c2 -28 1 -51 -2 -51 -4
0 -17 8 -30 18 -91 70 -190 131 -203 126 -9 -3 -16 -9 -16 -13 0 -4 20 -40 44
-81 l45 -74 -19 -31 c-34 -55 -70 -120 -70 -126 0 -4 7 -9 15 -13 9 -3 60 26
128 73 l112 79 3 -50 3 -50 47 6 c26 4 73 19 105 35 65 32 64 35 23 -68 -20
-53 -24 -56 -106 -99 -79 -41 -88 -44 -151 -40 -49 3 -81 11 -125 34 -60 32
-79 53 -47 55 12 1 10 3 -7 8 -29 8 -63 70 -80 147 -15 69 -8 80 53 89 29 5
45 9 37 11 -8 1 -31 5 -52 9 -36 6 -36 6 -26 41 21 77 47 124 68 124 11 0 20
4 20 9 0 5 24 18 53 27 79 28 174 23 280 -13 48 -17 87 -27 87 -23 0 9 -124
65 -175 79 -58 16 -132 13 -195 -8z m170 -303 c3 -4 -41 -36 -97 -72 l-103
-65 34 67 34 67 -34 67 -34 67 98 -62 c54 -34 100 -65 102 -69z m177 75 c44
-23 62 -60 46 -96 -11 -25 -73 -60 -127 -73 l-30 -7 22 28 c28 36 30 107 3
151 l-19 31 34 -7 c18 -4 50 -17 71 -27z m-535 -85 c4 -44 20 -91 56 -160 2
-5 -58 -8 -133 -8 l-136 0 3 103 3 102 65 6 c36 3 81 6 101 7 l37 2 4 -52z"/>
</g>
</svg>
