<?xml version="1.0" standalone="no"?>
<!DOCTYPE svg PUBLIC "-//W3C//DTD SVG 20010904//EN"
 "http://www.w3.org/TR/2001/REC-SVG-20010904/DTD/svg10.dtd">
<svg version="1.0" xmlns="http://www.w3.org/2000/svg"
 width="197.000000pt" height="123.000000pt" viewBox="0 0 197.000000 123.000000"
 preserveAspectRatio="xMidYMid meet">
<metadata>
Created by potrace 1.16, written by Peter Selinger 2001-2019
</metadata>
<g transform="translate(0.000000,123.000000) scale(0.100000,-0.100000)"
fill="#000000" stroke="none">
<path d="M619 918 c-1 -7 -1 -17 0 -22 2 -10 -39 -116 -52 -133 -5 -7 -17 -13
-26 -13 -23 0 -137 -55 -193 -93 -60 -40 -62 -63 -13 -156 70 -132 144 -189
229 -178 67 9 148 44 229 96 l73 48 39 -35 c91 -79 157 -132 165 -132 4 0 20
20 34 44 20 34 40 51 83 73 54 26 67 28 178 28 66 0 148 -4 182 -8 l61 -8 20
63 c23 71 42 150 42 171 0 16 -38 23 -323 62 -214 30 -465 55 -551 55 l-61 1
-50 74 c-49 73 -64 88 -66 63z m81 -129 c0 -8 -81 -21 -88 -14 -3 2 3 23 13
45 l18 40 28 -32 c16 -18 28 -36 29 -39z m75 -89 c3 0 1 9 -5 19 -5 11 -10 22
-10 24 0 6 115 0 300 -14 135 -10 572 -58 577 -63 4 -3 -36 -208 -41 -213 -2
-2 -51 3 -109 11 -132 20 -209 20 -276 0 -58 -17 -122 -69 -141 -113 l-12 -29
-84 84 c-46 46 -89 84 -95 84 -7 0 -33 -13 -58 -29 -143 -92 -281 -124 -348
-82 -42 27 -97 102 -123 171 l-21 54 23 18 c25 20 149 82 186 93 21 6 22 4 17
-22 -6 -30 -8 -31 30 23 6 9 38 18 75 23 61 7 67 6 87 -16 12 -12 25 -23 28
-23z"/>
</g>
</svg>
