<?xml version="1.0" standalone="no"?>
<!DOCTYPE svg PUBLIC "-//W3C//DTD SVG 20010904//EN"
 "http://www.w3.org/TR/2001/REC-SVG-20010904/DTD/svg10.dtd">
<svg version="1.0" xmlns="http://www.w3.org/2000/svg"
 width="273.000000pt" height="147.000000pt" viewBox="0 0 273.000000 147.000000"
 preserveAspectRatio="xMidYMid meet">
<metadata>
Created by potrace 1.16, written by Peter Selinger 2001-2019
</metadata>
<g transform="translate(0.000000,147.000000) scale(0.100000,-0.100000)"
fill="#000000" stroke="none">
<path d="M825 1137 c-184 -114 -325 -211 -325 -223 0 -11 -21 -14 -100 -14
-96 0 -100 -1 -100 -22 l0 -21 705 6 c437 4 705 3 705 -3 0 -5 -9 -48 -20 -95
-29 -126 -27 -198 10 -271 40 -81 102 -139 175 -165 78 -28 240 -36 372 -18
54 7 111 13 127 14 24 2 32 8 42 36 17 48 18 209 1 209 -9 0 -13 -22 -12 -82
0 -120 -6 -135 -58 -143 -23 -4 -114 -7 -202 -8 -166 -1 -224 8 -298 43 -22
11 -46 20 -51 20 -17 0 -57 65 -77 123 -22 63 -25 143 -5 154 8 5 15 35 19 78
3 41 26 137 56 235 28 91 51 168 51 173 0 4 -8 7 -19 7 -15 0 -24 -19 -47 -99
-16 -55 -32 -95 -35 -89 -6 9 -213 -6 -625 -47 l-51 -5 -92 120 c-51 66 -93
120 -94 119 -1 0 -24 -14 -52 -32z m62 -29 c25 -36 23 -42 -19 -64 -30 -15
-32 -15 -57 11 l-26 26 35 30 c19 16 37 29 40 29 3 0 15 -15 27 -32z m-103
-67 l27 -29 -78 -48 c-64 -40 -89 -49 -140 -54 -35 -3 -63 -3 -63 0 1 3 51 39
113 81 62 42 112 77 113 78 0 0 13 -12 28 -28z m252 -108 c0 -1 -26 -2 -57 -4
-54 -2 -57 -1 -93 39 l-37 41 38 25 37 26 57 -63 c31 -34 56 -63 55 -64z
m-172 27 c16 -17 27 -32 25 -34 -6 -5 -179 -13 -174 -8 14 14 102 71 110 71 6
1 23 -13 39 -29z m846 -32 l0 -41 -197 6 c-108 4 -242 8 -297 8 l-101 1 125
14 c69 8 186 22 260 33 74 10 152 19 173 20 l37 1 0 -42z"/>
<path d="M1851 938 c-47 -180 -93 -428 -80 -428 4 0 12 17 17 38 5 20 37 150
71 288 33 138 61 254 61 258 0 3 -6 6 -13 6 -9 0 -28 -54 -56 -162z"/>
<path d="M1925 838 c-18 -73 -61 -348 -55 -348 8 0 43 135 75 288 18 89 18 82
0 82 -8 0 -17 -10 -20 -22z"/>
<path d="M2002 728 c-46 -255 -32 -303 17 -60 36 180 35 172 17 172 -10 0 -20
-33 -34 -112z"/>
<path d="M2117 738 c-9 -46 -18 -101 -22 -123 -6 -40 -7 -41 -41 -37 -26 3
-34 1 -34 -12 0 -9 8 -16 19 -16 38 0 51 -11 45 -36 -4 -15 -2 -24 5 -24 6 0
11 9 11 19 0 27 8 30 55 22 38 -6 40 -8 37 -39 -4 -40 13 -42 22 -2 4 21 11
30 25 30 41 0 49 -9 43 -52 -4 -30 -2 -39 6 -34 7 4 12 17 12 29 0 39 14 49
54 42 21 -4 36 -3 36 3 0 5 -17 12 -38 16 l-38 6 22 107 c28 129 28 133 9 133
-8 0 -15 -1 -15 -3 0 -2 -9 -52 -20 -112 -11 -60 -20 -110 -20 -112 0 -11 -52
0 -56 11 -3 8 4 61 15 117 25 121 25 119 7 119 -10 0 -20 -34 -36 -119 -18
-97 -25 -118 -39 -115 -9 1 -28 5 -42 8 l-27 6 24 107 c27 127 29 143 10 143
-9 0 -18 -27 -29 -82z"/>
</g>
</svg>
