<?xml version="1.0" standalone="no"?>
<!DOCTYPE svg PUBLIC "-//W3C//DTD SVG 20010904//EN"
 "http://www.w3.org/TR/2001/REC-SVG-20010904/DTD/svg10.dtd">
<svg version="1.0" xmlns="http://www.w3.org/2000/svg"
 width="171.000000pt" height="139.000000pt" viewBox="0 0 171.000000 139.000000"
 preserveAspectRatio="xMidYMid meet">
<metadata>
Created by potrace 1.16, written by Peter Selinger 2001-2019
</metadata>
<g transform="translate(0.000000,139.000000) scale(0.100000,-0.100000)"
fill="#000000" stroke="none">
<path d="M301 881 c2 -195 7 -239 24 -211 4 6 73 10 181 10 l174 0 0 -190 0
-190 253 0 c280 0 482 9 470 21 -4 4 -164 11 -354 15 l-345 7 4 188 c4 166 3
189 -11 189 -8 0 -17 -4 -19 -9 -2 -5 -76 -7 -177 -4 l-174 6 7 161 c4 88 8
161 9 163 1 1 239 5 530 9 290 4 527 10 527 14 0 13 -174 20 -643 27 l-458 6
2 -212z"/>
<path d="M817 833 c-11 -10 -8 -183 2 -183 5 0 11 4 13 9 4 11 258 19 258 8 0
-5 4 -6 9 -3 4 3 26 -10 47 -28 43 -36 83 -60 90 -53 3 2 -25 32 -62 66 -64
58 -66 62 -61 97 3 20 8 38 10 40 2 2 60 7 130 10 70 4 130 11 133 16 3 4 -56
8 -130 8 -84 0 -136 4 -136 10 0 11 -292 14 -303 3z m271 -40 c-3 -25 -7 -28
-38 -26 -19 0 -74 1 -122 2 -80 1 -88 3 -88 21 0 17 8 20 93 23 50 1 107 4
125 5 31 2 33 0 30 -25z m-8 -70 l0 -28 -120 3 c-110 3 -120 5 -120 22 0 18
10 20 118 23 64 1 118 4 120 5 1 1 2 -10 2 -25z"/>
<path d="M1130 758 c1 -17 126 -111 141 -106 14 5 -109 118 -128 118 -7 0 -13
-6 -13 -12z"/>
</g>
</svg>
