<?xml version="1.0" standalone="no"?>
<!DOCTYPE svg PUBLIC "-//W3C//DTD SVG 20010904//EN"
 "http://www.w3.org/TR/2001/REC-SVG-20010904/DTD/svg10.dtd">
<svg version="1.0" xmlns="http://www.w3.org/2000/svg"
 width="173.000000pt" height="139.000000pt" viewBox="0 0 173.000000 139.000000"
 preserveAspectRatio="xMidYMid meet">
<metadata>
Created by potrace 1.16, written by Peter Selinger 2001-2019
</metadata>
<g transform="translate(0.000000,139.000000) scale(0.100000,-0.100000)"
fill="#000000" stroke="none">
<path d="M687 1083 c-4 -3 -7 -89 -7 -190 l0 -183 -190 0 -190 0 0 -207 0
-206 463 7 c254 3 505 9 558 12 l96 7 7 75 c3 41 6 211 6 377 l0 302 -122 6
c-158 9 -613 9 -621 0z m713 -315 c0 -161 3 -324 7 -362 l6 -69 -384 6 c-211
4 -457 7 -546 7 l-163 0 0 134 c0 73 3 147 6 163 l6 30 171 5 c108 4 177 2
185 -4 8 -7 12 -6 13 3 2 28 5 108 7 236 l2 133 198 2 c108 2 263 4 345 6
l147 3 0 -293z"/>
<path d="M805 918 c-74 -27 -72 -32 29 -77 52 -22 99 -41 105 -41 14 0 14 -1
0 -55 -9 -35 -8 -54 6 -100 9 -32 15 -58 13 -60 -2 -1 -48 -22 -103 -45 -55
-24 -104 -46 -108 -50 -15 -13 65 -42 128 -48 69 -5 119 13 136 51 6 13 47 41
102 69 83 43 227 155 227 177 0 14 -153 79 -234 100 -63 16 -84 26 -106 52
-25 31 -32 33 -96 36 -38 1 -82 -3 -99 -9z m165 -30 c43 -29 45 -39 13 -62
l-26 -19 -76 38 -76 38 30 13 c46 20 98 17 135 -8z m133 -77 c109 -28 229 -73
220 -81 -39 -37 -175 -123 -236 -150 -57 -25 -77 -39 -82 -57 -9 -39 -62 -65
-118 -59 -83 9 -88 19 -26 55 73 41 106 48 125 24 14 -17 15 -17 9 4 -4 15 0
25 12 32 16 9 16 10 -4 11 -17 0 -25 9 -32 38 -23 82 -9 152 32 152 20 1 20 1
4 11 -14 8 -16 14 -6 25 14 18 11 18 102 -5z"/>
</g>
</svg>
