<?xml version="1.0" standalone="no"?>
<!DOCTYPE svg PUBLIC "-//W3C//DTD SVG 20010904//EN"
 "http://www.w3.org/TR/2001/REC-SVG-20010904/DTD/svg10.dtd">
<svg version="1.0" xmlns="http://www.w3.org/2000/svg"
 width="173.000000pt" height="139.000000pt" viewBox="0 0 173.000000 139.000000"
 preserveAspectRatio="xMidYMid meet">
<metadata>
Created by potrace 1.16, written by Peter Selinger 2001-2019
</metadata>
<g transform="translate(0.000000,139.000000) scale(0.100000,-0.100000)"
fill="#000000" stroke="none">
<path d="M687 1083 c-4 -3 -7 -18 -7 -32 0 -20 -35 -61 -158 -184 -141 -141
-162 -158 -188 -155 l-29 3 -3 -207 -2 -208 304 0 c287 0 806 16 815 26 2 2 6
172 9 377 l5 374 -129 6 c-168 9 -609 9 -617 0z m713 -125 l0 -104 -258 -257
c-250 -250 -259 -257 -293 -253 -19 3 -52 5 -74 5 l-40 1 310 310 c170 171
305 310 300 310 -6 0 -150 -139 -320 -310 l-310 -310 -80 0 -80 0 345 345
c190 190 340 345 335 345 -6 0 -165 -155 -355 -345 l-345 -345 -113 0 c-62 0
-111 4 -108 8 3 5 6 79 7 165 l1 157 96 0 97 0 -83 -83 c-45 -45 -82 -87 -82
-92 0 -5 42 32 92 82 l93 92 73 7 c58 5 72 4 72 -7 0 -8 -64 -78 -142 -156
-78 -78 -140 -145 -137 -147 3 -3 159 149 348 338 l343 344 154 1 154 2 0
-103z m-520 89 c0 -1 -38 -40 -85 -87 l-85 -85 0 88 0 87 85 0 c47 0 85 -1 85
-3z m10 -172 c-96 -96 -179 -175 -184 -175 -5 0 -6 33 -2 77 l6 78 97 97 98
98 80 0 80 0 -175 -175z m-277 -97 l-67 -68 -73 0 c-40 0 -73 3 -73 7 0 4 62
70 138 146 l137 137 3 -77 3 -77 -68 -68z m787 -21 l0 -72 -172 -173 -173
-172 -75 0 -75 0 245 245 c135 135 246 245 247 245 2 0 3 -33 3 -73z m-720 8
l0 -55 -57 0 -57 0 54 55 c30 30 56 55 57 55 2 0 3 -25 3 -55z m648 -332 c-40
-40 -68 -73 -63 -73 5 0 38 28 72 62 l63 62 0 -72 0 -72 -157 0 c-86 0 -153 3
-149 8 4 4 74 76 154 160 l147 153 3 -77 3 -78 -73 -73z"/>
</g>
</svg>
