<?xml version="1.0" standalone="no"?>
<!DOCTYPE svg PUBLIC "-//W3C//DTD SVG 20010904//EN"
 "http://www.w3.org/TR/2001/REC-SVG-20010904/DTD/svg10.dtd">
<svg version="1.0" xmlns="http://www.w3.org/2000/svg"
 width="137.000000pt" height="130.000000pt" viewBox="0 0 137.000000 130.000000"
 preserveAspectRatio="xMidYMid meet">
<metadata>
Created by potrace 1.16, written by Peter Selinger 2001-2019
</metadata>
<g transform="translate(0.000000,130.000000) scale(0.100000,-0.100000)"
fill="#000000" stroke="none">
<path d="M512 937 c-139 -119 -185 -204 -205 -374 l-5 -43 121 -64 c109 -57
277 -133 332 -150 14 -4 24 1 35 19 8 13 38 53 67 88 l51 64 -101 74 c-56 40
-118 88 -138 107 l-37 32 44 77 c49 86 74 102 74 47 0 -27 -4 -34 -20 -34 -11
0 -20 -6 -20 -14 0 -18 36 -23 212 -32 l127 -6 10 39 c18 64 16 70 -31 71 -22
1 -95 11 -160 22 -66 11 -123 18 -128 15 -4 -2 -36 25 -72 60 -36 36 -69 65
-74 65 -5 0 -42 -28 -82 -63z m142 -21 c46 -41 48 -45 34 -64 -14 -21 -16 -20
-62 33 -41 48 -51 75 -28 75 4 0 29 -20 56 -44z m-42 -50 l58 -53 -33 -73 -32
-72 35 -30 c37 -31 204 -144 223 -151 5 -1 -13 -36 -41 -76 -28 -40 -52 -77
-55 -84 -2 -6 -72 25 -168 75 -212 110 -269 145 -269 167 0 30 49 164 75 203
23 35 135 148 145 147 3 0 31 -24 62 -53z m200 -61 c-3 -29 -8 -35 -27 -35
-19 0 -22 4 -18 23 9 42 12 47 31 47 15 0 17 -6 14 -35z m50 30 c22 -9 11 -75
-13 -75 -21 0 -22 3 -13 49 7 34 6 33 26 26z m68 -35 c0 -18 -6 -33 -15 -37
-22 -8 -26 -1 -19 35 8 42 34 42 34 2z m55 -12 c-9 -40 -10 -42 -29 -35 -9 4
-13 13 -11 22 3 8 7 22 10 30 2 8 12 15 20 15 13 0 15 -6 10 -32z m55 -3 c0
-29 -4 -35 -21 -35 -15 0 -19 4 -15 16 3 9 6 24 6 35 0 10 7 19 15 19 10 0 15
-11 15 -35z"/>
</g>
</svg>
