<?xml version="1.0" standalone="no"?>
<!DOCTYPE svg PUBLIC "-//W3C//DTD SVG 20010904//EN"
 "http://www.w3.org/TR/2001/REC-SVG-20010904/DTD/svg10.dtd">
<svg version="1.0" xmlns="http://www.w3.org/2000/svg"
 width="192.000000pt" height="182.000000pt" viewBox="0 0 192.000000 182.000000"
 preserveAspectRatio="xMidYMid meet">
<metadata>
Created by potrace 1.16, written by Peter Selinger 2001-2019
</metadata>
<g transform="translate(0.000000,182.000000) scale(0.100000,-0.100000)"
fill="#000000" stroke="none">
<path d="M711 1505 c-10 -13 -12 -39 -6 -113 l6 -97 -98 -39 c-133 -53 -283
-120 -283 -126 0 -3 4 -11 9 -19 7 -11 44 3 186 73 98 47 179 86 181 86 2 0 4
-44 4 -97 0 -54 4 -103 8 -109 9 -16 333 25 830 105 29 4 56 11 60 15 4 4 7
53 7 109 l0 102 -200 31 c-166 27 -470 68 -650 90 -29 3 -44 0 -54 -11z m170
-51 c43 -4 81 -9 86 -13 16 -11 83 -111 83 -123 0 -17 -50 -171 -59 -180 -3
-4 -63 -13 -133 -21 l-128 -13 0 40 c0 96 11 143 36 155 13 6 24 15 24 21 0 7
-6 8 -19 0 -11 -5 -22 -10 -25 -10 -3 0 -6 37 -6 81 l0 81 33 -6 c17 -3 66 -8
108 -12z m417 -43 c155 -15 284 -30 286 -32 2 -2 6 -46 9 -96 6 -91 5 -93 -16
-93 -12 -1 -145 -13 -295 -28 -172 -18 -271 -24 -268 -17 3 5 19 44 37 85 l32
75 -37 67 c-21 38 -36 68 -34 68 2 0 130 -13 286 -29z"/>
<path d="M712 755 c-10 -11 -11 -38 -7 -106 l7 -91 -206 3 c-193 4 -206 3
-206 -14 0 -16 14 -18 193 -17 105 0 198 1 205 0 9 0 12 -29 12 -109 0 -63 4
-112 10 -116 21 -13 866 108 885 126 6 6 12 54 13 108 l4 99 -29 6 c-15 3
-102 17 -193 31 -288 44 -300 47 -300 56 0 5 -17 7 -37 3 -32 -5 -219 14 -313
31 -15 3 -30 -2 -38 -10z m165 -59 c3 -2 7 -76 10 -165 l6 -160 -24 -5 c-13
-3 -50 -8 -81 -11 l-58 -6 0 34 c0 19 3 62 6 96 l7 61 69 0 c44 0 67 4 63 10
-3 6 -35 10 -71 10 l-64 0 0 78 0 78 66 -8 c37 -4 69 -9 71 -12z m258 -73 l34
-51 -30 -90 -30 -90 -50 -6 c-27 -3 -71 -9 -99 -12 l-50 -6 0 60 c0 32 3 106
6 163 l7 105 88 -11 89 -10 35 -52z m185 32 c80 -8 173 -17 206 -20 l61 -6 6
-92 c3 -51 3 -94 2 -95 -4 -4 -459 -50 -463 -47 -1 1 13 38 32 82 l34 80 -29
49 c-16 27 -29 52 -29 57 0 10 13 9 180 -8z"/>
</g>
</svg>
