<?xml version="1.0" standalone="no"?>
<!DOCTYPE svg PUBLIC "-//W3C//DTD SVG 20010904//EN"
 "http://www.w3.org/TR/2001/REC-SVG-20010904/DTD/svg10.dtd">
<svg version="1.0" xmlns="http://www.w3.org/2000/svg"
 width="186.000000pt" height="151.000000pt" viewBox="0 0 186.000000 151.000000"
 preserveAspectRatio="xMidYMid meet">
<metadata>
Created by potrace 1.16, written by Peter Selinger 2001-2019
</metadata>
<g transform="translate(0.000000,151.000000) scale(0.100000,-0.100000)"
fill="#000000" stroke="none">
<path d="M650 1195 c-9 -10 -10 -31 -6 -65 l7 -50 -176 0 c-155 0 -175 -2
-175 -16 0 -15 18 -16 175 -12 l175 5 0 -58 c0 -33 5 -61 12 -65 12 -8 877 -6
890 2 4 3 8 63 8 133 l0 128 -167 6 c-91 4 -293 7 -448 7 -240 0 -284 -2 -295
-15z m889 -239 c-2 -2 -199 -1 -437 2 l-433 5 7 46 c4 25 12 49 18 53 8 5 7 8
-2 8 -9 0 -12 15 -10 53 l3 52 420 5 420 5 9 -113 c5 -62 7 -114 5 -116z"/>
<path d="M654 573 c-13 -10 -15 -22 -9 -67 l6 -56 -175 0 c-156 0 -176 -2
-176 -16 0 -15 17 -16 175 -9 l175 7 0 -50 c0 -89 -36 -82 394 -82 209 0 411
3 449 7 l67 6 0 127 0 128 -122 6 c-243 13 -767 12 -784 -1z m881 -129 c4 -63
5 -116 4 -118 -2 -1 -199 0 -437 2 l-434 4 7 47 c4 25 12 50 18 54 9 6 9 10 0
14 -8 3 -13 24 -13 54 l0 49 388 3 c213 1 403 3 423 5 l37 2 7 -116z"/>
</g>
</svg>
