<?xml version="1.0" standalone="no"?>
<!DOCTYPE svg PUBLIC "-//W3C//DTD SVG 20010904//EN"
 "http://www.w3.org/TR/2001/REC-SVG-20010904/DTD/svg10.dtd">
<svg version="1.0" xmlns="http://www.w3.org/2000/svg"
 width="127.000000pt" height="105.000000pt" viewBox="0 0 127.000000 105.000000"
 preserveAspectRatio="xMidYMid meet">
<metadata>
Created by potrace 1.16, written by Peter Selinger 2001-2019
</metadata>
<g transform="translate(0.000000,105.000000) scale(0.100000,-0.100000)"
fill="#000000" stroke="none">
<path d="M548 743 l-248 -3 0 -159 c0 -87 3 -185 6 -217 l6 -59 207 6 c113 4
245 7 294 8 50 1 87 5 87 11 0 6 -104 10 -292 10 l-291 0 6 98 c4 53 7 136 7
183 l0 87 198 7 c108 4 211 8 227 9 l30 1 0 -75 c0 -148 5 -220 15 -220 6 0
10 60 10 160 0 88 -3 159 -7 158 -5 -2 -119 -4 -255 -5z"/>
<path d="M947 743 c-8 -14 -8 -193 0 -301 7 -106 8 -106 14 -47 11 94 10 355
0 355 -6 0 -12 -3 -14 -7z"/>
<path d="M690 688 c-125 -33 -134 -35 -160 -27 -14 4 -37 7 -52 8 l-28 1 0
-87 c0 -49 4 -93 8 -100 4 -6 34 -12 67 -14 42 -2 86 -13 143 -37 55 -23 86
-32 93 -25 6 6 8 68 7 155 l-3 146 -75 -20z m59 -107 c0 -55 3 -116 7 -135 l6
-36 -91 45 -91 46 0 59 c0 66 1 67 94 100 79 28 76 32 75 -79z m-211 53 c20
-6 22 -12 22 -70 l0 -64 -45 0 -45 0 0 54 c0 85 9 95 68 80z"/>
</g>
</svg>
