<?xml version="1.0" standalone="no"?>
<!DOCTYPE svg PUBLIC "-//W3C//DTD SVG 20010904//EN"
 "http://www.w3.org/TR/2001/REC-SVG-20010904/DTD/svg10.dtd">
<svg version="1.0" xmlns="http://www.w3.org/2000/svg"
 width="180.000000pt" height="152.000000pt" viewBox="0 0 180.000000 152.000000"
 preserveAspectRatio="xMidYMid meet">
<metadata>
Created by potrace 1.16, written by Peter Selinger 2001-2019
</metadata>
<g transform="translate(0.000000,152.000000) scale(0.100000,-0.100000)"
fill="#000000" stroke="none">
<path d="M870 1190 c-328 -74 -464 -146 -524 -275 -38 -81 -61 -225 -36 -225
6 0 10 16 10 35 0 40 32 143 57 184 32 51 89 103 143 131 49 24 237 90 259 90
4 0 11 -41 15 -92 4 -51 8 -94 10 -95 7 -7 686 84 695 93 2 2 2 6 0 9 -5 4
-364 -21 -415 -30 l-32 -5 6 90 c5 97 -3 121 -42 119 -11 0 -77 -13 -146 -29z
m154 -26 c3 -9 6 -46 6 -84 l0 -67 -31 -7 c-62 -12 -61 -13 -58 77 4 78 5 82
29 88 41 11 48 10 54 -7z m-111 -81 c2 -43 4 -79 3 -80 -2 -2 -24 -6 -49 -9
l-47 -7 0 56 c0 76 12 105 47 110 15 2 31 5 34 6 4 0 9 -34 12 -76z"/>
<path d="M790 806 l0 -114 -167 1 -168 2 3 -60 c2 -33 6 -62 8 -64 2 -3 21 12
42 32 21 20 46 37 57 37 17 0 17 -2 -3 -23 -36 -38 -26 -54 11 -19 18 18 41
32 52 32 17 0 17 -1 0 -20 -25 -28 -10 -38 18 -12 13 12 36 22 52 22 27 0 27
-1 11 -19 -10 -10 -13 -22 -8 -25 5 -3 17 3 27 14 18 19 55 28 55 13 0 -5 38
-9 85 -10 l85 -2 0 158 0 159 -31 6 c-17 3 -53 6 -80 6 l-49 0 0 -114z m138
-58 l4 -146 -44 9 c-24 4 -47 8 -51 9 -19 1 30 49 50 50 12 0 25 5 28 10 6 10
-16 13 -72 10 -24 -1 -33 3 -33 14 0 12 11 16 50 16 28 0 50 5 50 10 0 6 -22
10 -50 10 -38 0 -50 4 -50 15 0 11 12 15 50 15 28 0 50 5 50 10 0 6 -22 10
-50 10 -27 0 -50 5 -50 10 0 6 23 10 50 10 28 0 50 5 50 10 0 6 -22 10 -50 10
-27 0 -50 5 -50 10 0 6 23 10 50 10 28 0 50 5 50 10 0 6 -22 10 -50 10 -27 0
-50 4 -50 9 0 9 77 20 105 16 6 -1 11 -60 13 -147z m-325 -85 c-7 -2 -19 -2
-25 0 -7 3 -2 5 12 5 14 0 19 -2 13 -5z m72 -3 c-3 -5 -15 -10 -26 -10 -10 0
-19 5 -19 10 0 6 12 10 26 10 14 0 23 -4 19 -10z m85 -5 c-13 -16 -70 -21 -70
-7 0 16 13 22 48 22 29 0 33 -2 22 -15z m65 -5 c-10 -11 -29 -20 -43 -20 -24
0 -25 1 -7 20 10 11 29 20 43 20 24 0 25 -1 7 -20z m-305 -3 c0 -2 -9 -12 -20
-22 -19 -18 -20 -17 -20 3 0 15 6 22 20 22 11 0 20 -2 20 -3z"/>
<path d="M302 593 c10 -169 89 -235 334 -278 98 -17 312 -20 238 -4 l-42 10 5
87 c3 48 7 89 9 91 2 2 19 0 39 -3 l35 -7 1 -87 c1 -48 1 -90 0 -95 0 -4 3 -7
8 -7 12 0 21 52 21 126 0 67 2 70 48 58 20 -6 22 -13 23 -68 2 -72 12 -125 21
-110 4 5 8 47 9 93 l2 82 36 -5 c20 -3 101 -10 181 -16 80 -6 164 -12 188 -15
23 -2 42 -1 42 4 0 5 -48 16 -107 25 -95 15 -565 76 -585 76 -7 0 -3 -121 7
-199 l4 -33 -47 7 c-119 17 -250 48 -306 74 -98 44 -136 105 -136 219 0 41 -3
52 -16 52 -14 0 -16 -11 -12 -77z"/>
</g>
</svg>
