<?xml version="1.0" standalone="no"?>
<!DOCTYPE svg PUBLIC "-//W3C//DTD SVG 20010904//EN"
 "http://www.w3.org/TR/2001/REC-SVG-20010904/DTD/svg10.dtd">
<svg version="1.0" xmlns="http://www.w3.org/2000/svg"
 width="156.000000pt" height="118.000000pt" viewBox="0 0 156.000000 118.000000"
 preserveAspectRatio="xMidYMid meet">
<metadata>
Created by potrace 1.16, written by Peter Selinger 2001-2019
</metadata>
<g transform="translate(0.000000,118.000000) scale(0.100000,-0.100000)"
fill="#000000" stroke="none">
<path d="M307 873 c-9 -8 -9 -382 0 -490 l6 -83 241 1 c133 1 306 4 386 8
l144 6 1 25 c1 14 2 53 3 88 l2 62 48 0 c63 0 122 11 122 21 0 10 -153 12
-189 2 -23 -6 -24 -7 -17 -96 l7 -90 -137 6 c-75 4 -241 7 -367 7 l-230 0 8
248 c4 136 8 248 9 249 0 0 159 4 352 8 l351 8 7 -79 c4 -43 12 -84 18 -91 12
-15 188 -19 188 -4 0 12 -52 21 -119 21 l-57 0 4 83 4 84 -143 6 c-188 9 -634
9 -642 0z"/>
<path d="M530 765 c-13 -16 -11 -348 3 -361 4 -4 26 7 50 24 140 103 143 105
176 88 16 -9 43 -16 59 -16 l30 0 0 90 -1 90 -26 0 c-14 0 -41 -9 -59 -20
l-33 -20 -94 69 c-78 58 -95 67 -105 56z m50 -50 c7 -8 8 -15 2 -15 -5 0 -15
7 -22 15 -7 8 -8 15 -2 15 5 0 15 -7 22 -15z m6 -53 c-4 -3 -14 2 -24 12 -16
18 -16 18 6 6 13 -6 21 -14 18 -18z m126 -72 c3 -32 -1 -38 -44 -67 -26 -18
-50 -33 -53 -33 -3 0 -5 45 -5 100 l0 100 49 -32 c42 -28 50 -38 53 -68z m71
46 c-12 -16 -21 -21 -28 -15 -7 7 -3 15 9 25 30 22 39 17 19 -10z m-193 -23
c0 -14 -2 -14 -20 2 -11 10 -20 22 -20 27 0 5 9 4 20 -2 11 -6 20 -18 20 -27z
m167 -19 c7 -18 -17 -38 -31 -24 -11 11 -1 40 14 40 6 0 13 -7 17 -16z m-167
-31 c0 -14 -2 -14 -20 2 -11 10 -20 22 -20 27 0 5 9 4 20 -2 11 -6 20 -18 20
-27z m195 -41 c-8 -9 -35 20 -28 31 4 6 11 3 19 -8 8 -10 12 -21 9 -23z m-214
18 c10 -6 19 -20 19 -32 0 -21 0 -21 -25 2 -37 34 -34 51 6 30z m2 -86 c-27
-20 -33 -17 -33 16 0 30 0 30 25 14 24 -15 24 -17 8 -30z"/>
</g>
</svg>
