<?xml version="1.0" standalone="no"?>
<!DOCTYPE svg PUBLIC "-//W3C//DTD SVG 20010904//EN"
 "http://www.w3.org/TR/2001/REC-SVG-20010904/DTD/svg10.dtd">
<svg version="1.0" xmlns="http://www.w3.org/2000/svg"
 width="175.000000pt" height="127.000000pt" viewBox="0 0 175.000000 127.000000"
 preserveAspectRatio="xMidYMid meet">
<metadata>
Created by potrace 1.16, written by Peter Selinger 2001-2019
</metadata>
<g transform="translate(0.000000,127.000000) scale(0.100000,-0.100000)"
fill="#000000" stroke="none">
<path d="M880 960 c-8 -5 -42 -19 -75 -31 -90 -34 -185 -83 -233 -121 l-43
-34 -52 17 c-29 10 -80 21 -114 25 l-63 7 0 -183 0 -183 68 6 c37 3 87 13 111
21 l43 16 40 -35 c48 -40 163 -101 267 -140 68 -26 79 -27 120 -16 93 24 244
108 365 203 65 51 124 101 130 110 12 20 -2 34 -163 156 -110 82 -200 133
-303 168 -79 27 -77 26 -98 14z m195 -110 c93 -45 347 -201 352 -216 5 -14
-287 -191 -387 -235 -47 -20 -109 -42 -137 -49 -52 -12 -54 -11 -110 20 -71
40 -170 106 -200 133 l-23 20 35 39 c47 52 48 102 4 153 -31 35 -31 36 -13 51
49 38 113 81 182 120 l74 42 72 -20 c39 -10 107 -37 151 -58z m-602 -71 c20
-5 37 -13 37 -16 0 -9 -62 -73 -71 -73 -4 0 -10 11 -13 24 -3 14 -18 39 -33
56 l-27 32 35 -7 c19 -3 51 -11 72 -16z m153 -130 c5 -30 1 -41 -26 -72 -18
-21 -38 -37 -45 -37 -8 0 -32 21 -54 47 l-41 48 52 53 52 52 29 -28 c15 -15
30 -44 33 -63z m-131 -139 c-5 -8 -85 -30 -109 -30 -11 0 -8 7 10 27 13 14 27
37 31 50 l6 24 33 -32 c18 -18 31 -35 29 -39z"/>
<path d="M797 739 c-97 -58 -131 -82 -132 -98 -2 -22 65 -69 216 -150 l75 -41
75 51 c116 80 179 129 179 139 0 17 -238 179 -260 177 -12 -1 -81 -36 -153
-78z m298 -42 c28 -16 61 -37 74 -45 l24 -15 -24 -12 c-22 -12 -31 -8 -119 53
-155 108 -147 101 -131 111 10 7 32 -2 70 -26 31 -20 79 -50 106 -66z m-106
-3 c158 -99 147 -90 121 -104 -20 -11 -34 -4 -136 66 -112 75 -121 84 -107 97
10 11 9 11 122 -59z m-51 -40 c139 -87 137 -85 117 -97 -13 -7 -43 8 -131 68
-63 42 -112 81 -109 86 9 14 9 14 123 -57z m-59 -25 c53 -34 107 -69 121 -77
24 -15 24 -15 3 -25 -17 -7 -33 -1 -84 33 -118 79 -159 112 -153 121 8 14 11
13 113 -52z m4 -69 c79 -48 87 -55 71 -67 -9 -7 -22 -9 -28 -6 -22 13 -201
137 -211 145 -6 6 -5 12 5 18 10 6 24 2 45 -14 16 -12 70 -46 118 -76z"/>
</g>
</svg>
