<?xml version="1.0" standalone="no"?>
<!DOCTYPE svg PUBLIC "-//W3C//DTD SVG 20010904//EN"
 "http://www.w3.org/TR/2001/REC-SVG-20010904/DTD/svg10.dtd">
<svg version="1.0" xmlns="http://www.w3.org/2000/svg"
 width="156.000000pt" height="118.000000pt" viewBox="0 0 156.000000 118.000000"
 preserveAspectRatio="xMidYMid meet">
<metadata>
Created by potrace 1.16, written by Peter Selinger 2001-2019
</metadata>
<g transform="translate(0.000000,118.000000) scale(0.100000,-0.100000)"
fill="#000000" stroke="none">
<path d="M307 873 c-9 -8 -9 -382 0 -492 l6 -84 384 4 c245 3 383 8 384 14 1
6 0 19 -1 29 -1 11 1 48 5 83 l7 63 46 0 c63 0 122 11 122 21 0 5 -38 9 -85 9
l-85 0 0 75 0 75 85 0 c85 0 112 12 54 24 -17 3 -56 6 -85 6 l-54 0 0 83 0 84
-142 6 c-187 9 -633 9 -641 0z m643 -186 c0 -198 11 -363 21 -327 4 14 7 130
8 258 l1 232 33 0 34 0 7 -256 c4 -141 5 -258 3 -260 -2 -2 -131 -1 -287 3
l-284 6 120 114 c65 63 133 120 149 128 23 11 26 14 10 15 -12 0 -72 50 -145
120 l-125 119 90 4 c50 1 152 4 228 5 l137 2 0 -163z m-490 -97 l0 -250 -65 0
-65 0 0 68 c0 38 3 151 7 250 l6 182 59 0 58 0 0 -250z m159 95 l81 -70 -60
-3 c-43 -2 -60 -7 -60 -17 0 -10 17 -15 60 -17 l60 -3 -82 -70 c-45 -38 -95
-81 -111 -95 l-30 -24 6 79 c4 43 7 134 7 202 l0 125 24 -19 c12 -10 60 -49
105 -88z"/>
</g>
</svg>
