<?xml version="1.0" standalone="no"?>
<!DOCTYPE svg PUBLIC "-//W3C//DTD SVG 20010904//EN"
 "http://www.w3.org/TR/2001/REC-SVG-20010904/DTD/svg10.dtd">
<svg version="1.0" xmlns="http://www.w3.org/2000/svg"
 width="165.000000pt" height="123.000000pt" viewBox="0 0 165.000000 123.000000"
 preserveAspectRatio="xMidYMid meet">
<metadata>
Created by potrace 1.16, written by Peter Selinger 2001-2019
</metadata>
<g transform="translate(0.000000,123.000000) scale(0.100000,-0.100000)"
fill="#000000" stroke="none">
<path d="M596 922 c-5 -8 -41 -12 -110 -12 -109 0 -112 -1 -134 -52 -9 -23 -9
-26 3 -21 12 4 15 -8 15 -69 0 -72 -1 -75 -35 -108 -19 -19 -35 -38 -35 -44 0
-5 16 5 35 24 l35 34 0 -80 c0 -73 -2 -83 -25 -104 -14 -13 -25 -28 -25 -33 0
-6 11 0 25 13 l25 23 1 -21 c1 -12 3 -26 4 -32 1 -5 3 -32 4 -60 l1 -50 75 0
c52 0 75 -4 75 -12 0 -9 3 -9 12 0 7 7 43 12 90 12 69 0 77 -2 71 -17 -6 -17
-5 -17 14 -1 27 25 183 27 163 3 -18 -21 4 -19 23 3 22 24 187 31 167 7 -7 -8
-8 -15 -2 -15 5 0 15 7 22 15 7 8 25 15 40 15 23 0 28 4 28 26 0 14 9 35 21
48 27 28 28 45 1 21 -20 -18 -20 -17 -20 33 l0 52 58 0 c31 0 74 3 94 6 68 12
29 24 -75 24 l-101 0 32 33 c18 18 32 37 32 42 0 5 -45 -35 -101 -90 l-100
-100 3 83 3 82 68 67 c63 63 67 66 67 40 0 -24 2 -26 26 -17 14 6 61 10 105
10 43 0 79 4 79 9 0 5 -43 12 -95 16 -69 5 -95 11 -95 21 0 7 5 16 10 19 6 3
10 11 10 16 0 6 -4 7 -10 4 -6 -4 -10 17 -10 54 l0 61 -100 0 c-67 0 -100 4
-100 11 0 8 -4 8 -12 2 -7 -6 -29 -9 -48 -8 -19 2 -52 4 -73 4 -23 1 -36 5
-32 11 3 6 2 10 -4 10 -5 0 -13 -4 -16 -10 -9 -15 -162 -13 -167 2 -3 9 -6 9
-12 0z m304 -49 c0 -5 -112 -120 -250 -257 l-250 -249 0 79 0 79 173 172 c115
115 180 173 197 175 59 7 130 8 130 1z m70 -50 l0 -58 -197 -197 -198 -198
-75 0 -75 0 255 255 c140 140 263 255 272 255 15 0 18 -9 18 -57z m110 54 c0
-2 -16 -18 -35 -37 l-35 -34 0 37 c0 36 1 37 35 37 19 0 35 -1 35 -3z m50 -65
l0 -68 -60 -59 -60 -59 0 79 0 79 47 48 c64 65 73 63 73 -20z m-655 -12 c-38
-38 -70 -68 -72 -67 -1 2 0 33 4 70 l6 67 66 0 65 0 -69 -70z m245 67 c0 -1
-72 -74 -159 -161 l-160 -160 2 82 2 82 80 80 80 80 77 0 c43 0 78 -1 78 -3z
m143 -389 l-108 -108 -80 0 -80 0 185 185 185 185 3 -77 3 -77 -108 -108z m93
-87 c-16 -17 -35 -27 -49 -25 -12 1 -47 3 -77 3 l-55 1 95 95 95 96 9 -71 c9
-69 8 -72 -18 -99z m163 -17 c-7 -9 -31 -14 -65 -14 -52 0 -54 1 -54 27 0 20
17 44 63 91 l62 63 3 -77 c2 -47 -2 -81 -9 -90z m-139 1 c0 -8 -7 -15 -16 -15
-14 0 -14 3 -4 15 7 8 14 15 16 15 2 0 4 -7 4 -15z"/>
</g>
</svg>
