<?xml version="1.0" standalone="no"?>
<!DOCTYPE svg PUBLIC "-//W3C//DTD SVG 20010904//EN"
 "http://www.w3.org/TR/2001/REC-SVG-20010904/DTD/svg10.dtd">
<svg version="1.0" xmlns="http://www.w3.org/2000/svg"
 width="119.000000pt" height="131.000000pt" viewBox="0 0 119.000000 131.000000"
 preserveAspectRatio="xMidYMid meet">
<metadata>
Created by potrace 1.16, written by Peter Selinger 2001-2019
</metadata>
<g transform="translate(0.000000,131.000000) scale(0.100000,-0.100000)"
fill="#000000" stroke="none">
<path d="M584 848 l-280 -161 1 -40 1 -40 268 -154 c147 -85 273 -152 279
-150 12 4 -206 152 -385 261 -71 43 -128 81 -128 84 0 4 42 32 93 62 51 30
159 99 241 153 82 55 155 101 163 104 10 4 12 -3 7 -32 -7 -45 15 -576 26
-614 12 -43 22 200 18 453 -2 141 -7 231 -13 232 -5 2 -136 -69 -291 -158z"/>
<path d="M652 790 c-55 -13 -102 -70 -102 -125 0 -107 122 -172 211 -112 120
80 33 269 -109 237z"/>
</g>
</svg>
