<?xml version="1.0" standalone="no"?>
<!DOCTYPE svg PUBLIC "-//W3C//DTD SVG 20010904//EN"
 "http://www.w3.org/TR/2001/REC-SVG-20010904/DTD/svg10.dtd">
<svg version="1.0" xmlns="http://www.w3.org/2000/svg"
 width="156.000000pt" height="118.000000pt" viewBox="0 0 156.000000 118.000000"
 preserveAspectRatio="xMidYMid meet">
<metadata>
Created by potrace 1.16, written by Peter Selinger 2001-2019
</metadata>
<g transform="translate(0.000000,118.000000) scale(0.100000,-0.100000)"
fill="#000000" stroke="none">
<path d="M307 873 c-9 -8 -9 -382 0 -492 l6 -84 384 4 c210 2 383 6 383 9 1 3
2 37 4 75 2 39 4 78 5 88 1 13 11 17 49 17 63 0 122 11 122 21 0 5 -38 9 -85
9 l-85 0 0 75 0 75 85 0 c85 0 112 12 54 24 -17 3 -56 6 -85 6 l-54 0 0 83 0
84 -142 6 c-187 9 -633 9 -641 0z m643 -186 c0 -198 11 -363 21 -327 4 14 7
130 8 258 l1 232 33 0 34 0 7 -256 c4 -141 5 -259 2 -261 -2 -2 -101 -1 -219
3 l-215 7 54 66 c63 76 97 141 96 183 -1 37 -40 103 -108 184 -30 35 -54 65
-54 67 0 1 77 4 170 6 l170 3 0 -165z m-332 100 l52 -53 -70 -57 c-38 -31 -70
-64 -70 -72 0 -29 33 -65 91 -102 33 -20 59 -39 59 -43 0 -3 -17 -31 -38 -61
l-38 -54 -137 -3 -137 -3 0 69 c0 38 3 151 7 250 l6 182 111 0 112 0 52 -53z
m102 -115 c30 -46 30 -96 -1 -151 -12 -22 -26 -41 -29 -41 -4 0 -32 18 -63 40
-58 41 -75 68 -60 95 9 16 110 95 122 95 3 0 17 -17 31 -38z"/>
</g>
</svg>
