<?xml version="1.0" standalone="no"?>
<!DOCTYPE svg PUBLIC "-//W3C//DTD SVG 20010904//EN"
 "http://www.w3.org/TR/2001/REC-SVG-20010904/DTD/svg10.dtd">
<svg version="1.0" xmlns="http://www.w3.org/2000/svg"
 width="169.000000pt" height="169.000000pt" viewBox="0 0 169.000000 169.000000"
 preserveAspectRatio="xMidYMid meet">
<metadata>
Created by potrace 1.16, written by Peter Selinger 2001-2019
</metadata>
<g transform="translate(0.000000,169.000000) scale(0.100000,-0.100000)"
fill="#000000" stroke="none">
<path d="M562 1374 c-10 -11 -8 -25 9 -76 11 -35 30 -79 41 -99 l20 -36 -37
-48 c-46 -61 -69 -106 -90 -179 -15 -51 -19 -56 -33 -44 -10 8 -49 42 -89 76
-39 34 -74 62 -77 62 -3 0 -6 -88 -6 -195 0 -107 4 -195 9 -195 11 0 21 87 21
197 0 124 3 131 46 93 19 -16 52 -40 74 -52 63 -36 57 -63 -35 -138 -41 -34
-75 -64 -75 -68 0 -4 4 -14 9 -22 8 -11 23 0 75 54 60 61 66 65 66 42 0 -75
60 -178 135 -231 l46 -33 -24 -28 c-37 -44 -47 -69 -47 -114 0 -36 2 -41 18
-35 9 4 24 8 32 8 8 0 56 32 105 70 189 146 598 452 616 462 26 13 25 17 -21
45 -22 14 -38 30 -36 37 6 16 -10 27 -19 13 -4 -6 -24 2 -52 21 -32 23 -42 34
-34 42 18 18 12 31 -7 14 -16 -15 -21 -14 -65 15 -45 29 -47 32 -31 49 10 11
12 19 7 19 -6 0 -16 -6 -23 -14 -10 -13 -19 -10 -61 16 -48 29 -49 31 -33 49
9 11 12 19 7 19 -6 0 -16 -6 -23 -14 -10 -13 -19 -10 -61 16 -40 24 -47 33
-38 44 7 9 8 14 1 14 -6 0 -12 -5 -14 -12 -2 -6 -56 22 -129 69 -163 105 -161
104 -177 87z m126 -156 c-37 -32 -49 -26 -67 33 -7 23 -15 48 -18 55 -3 8 22
-2 56 -23 l62 -38 -33 -27z m127 -47 c-3 -3 -65 -65 -137 -138 -73 -73 -130
-135 -127 -137 2 -3 68 58 145 135 l141 140 47 -28 c25 -15 46 -30 46 -33 0
-3 -87 -92 -194 -199 l-194 -194 -7 46 c-4 26 -5 62 -1 79 3 18 8 48 10 66 8
67 66 164 143 240 l74 73 30 -22 c17 -11 28 -24 24 -28z m187 -98 l49 -27
-223 -223 c-123 -123 -225 -223 -229 -223 -3 0 -16 23 -29 50 l-24 51 199 199
c110 110 201 200 204 200 2 0 26 -12 53 -27z m158 -93 c0 -3 -106 -111 -235
-240 l-235 -234 -40 39 -40 39 226 227 227 227 48 -26 c27 -15 49 -29 49 -32z
m66 -36 l45 -27 -43 -46 c-157 -168 -294 -301 -365 -352 -74 -54 -85 -59 -105
-48 -55 28 -60 22 184 266 128 128 234 233 236 233 2 0 24 -12 48 -26z m105
-63 l31 -19 -168 -114 c-93 -62 -173 -115 -177 -117 -5 -1 54 58 130 133 76
75 141 136 145 136 4 0 22 -9 39 -19z m-578 -430 c4 -4 -16 -24 -45 -44 -29
-20 -55 -32 -57 -26 -1 5 9 28 24 50 22 31 32 38 49 33 12 -3 24 -9 29 -13z"/>
</g>
</svg>
