<?xml version="1.0" standalone="no"?>
<!DOCTYPE svg PUBLIC "-//W3C//DTD SVG 20010904//EN"
 "http://www.w3.org/TR/2001/REC-SVG-20010904/DTD/svg10.dtd">
<svg version="1.0" xmlns="http://www.w3.org/2000/svg"
 width="180.000000pt" height="152.000000pt" viewBox="0 0 180.000000 152.000000"
 preserveAspectRatio="xMidYMid meet">
<metadata>
Created by potrace 1.16, written by Peter Selinger 2001-2019
</metadata>
<g transform="translate(0.000000,152.000000) scale(0.100000,-0.100000)"
fill="#000000" stroke="none">
<path d="M950 1208 c-106 -22 -297 -70 -325 -82 -16 -7 -56 -23 -88 -36 -113
-44 -199 -150 -226 -278 -14 -66 -14 -122 -1 -122 6 0 10 15 10 33 0 125 98
274 210 321 25 10 54 22 65 27 11 5 40 16 65 24 43 15 38 8 -135 -165 -99 -99
-177 -180 -174 -180 3 0 84 79 180 176 96 97 188 182 206 190 95 41 71 8 -169
-236 l-223 -225 223 220 222 220 0 -40 c0 -38 -7 -47 -212 -255 l-213 -215
210 208 c116 114 214 207 218 207 4 0 7 -15 7 -32 0 -29 -23 -57 -207 -243
l-208 -210 216 213 c197 196 219 214 257 219 41 5 40 4 -198 -233 -132 -132
-240 -243 -240 -249 0 -5 114 103 253 242 l252 251 70 6 c91 8 499 66 504 72
2 2 2 6 0 9 -5 4 -364 -21 -415 -30 l-32 -5 6 90 c7 123 -1 131 -108 108z m78
-114 l3 -81 -32 -7 c-62 -12 -61 -14 -58 77 4 78 5 82 29 88 52 14 55 9 58
-77z m-115 -11 c2 -43 4 -79 3 -80 -1 -1 -23 -5 -49 -8 -44 -6 -47 -5 -47 16
0 13 10 34 23 48 12 14 14 19 4 12 -25 -19 -31 -8 -20 36 9 37 12 40 74 52 4
0 9 -34 12 -76z"/>
<path d="M884 1018 l-19 -23 23 19 c21 18 27 26 19 26 -2 0 -12 -10 -23 -22z"/>
<path d="M455 950 c-55 -55 -95 -100 -89 -100 6 0 54 45 107 100 53 55 93 100
89 100 -4 0 -52 -45 -107 -100z"/>
<path d="M710 675 c-140 -140 -250 -255 -245 -255 6 0 125 115 264 255 140
140 251 255 245 255 -5 0 -124 -115 -264 -255z"/>
<path d="M749 624 l-246 -246 -50 26 c-88 44 -128 114 -122 215 3 37 0 47 -14
49 -14 3 -17 -5 -17 -55 0 -207 141 -298 475 -308 139 -4 138 0 -4 21 l-34 5
34 35 c33 34 34 35 37 12 6 -49 11 -50 57 -7 25 23 42 45 39 48 -3 3 -19 -9
-35 -27 -16 -17 -30 -32 -32 -32 -2 0 -1 17 1 38 4 37 44 92 68 92 8 0 12 -27
13 -82 3 -107 3 -108 11 -108 10 0 20 65 20 133 0 59 3 63 48 51 20 -6 22 -13
23 -68 2 -72 12 -125 21 -110 4 5 8 47 9 92 l2 82 46 -5 c80 -10 396 -33 400
-29 2 2 2 6 0 9 -6 5 -392 61 -492 71 l-68 7 38 41 38 41 -40 -37 c-33 -31
-49 -38 -80 -38 l-40 0 85 88 85 87 -85 -82 c-65 -63 -92 -83 -113 -83 -23 0
-27 -4 -27 -27 0 -38 -133 -173 -171 -173 -14 0 -29 3 -33 7 -4 4 89 104 206
223 l213 215 -220 -217 c-200 -197 -223 -216 -247 -211 -16 3 -28 9 -28 13 0
4 109 114 241 244 133 130 240 239 237 241 -2 2 -114 -106 -249 -241z m131
-132 c0 -4 -9 -15 -20 -25 -19 -16 -20 -16 -20 8 0 18 5 25 20 25 11 0 20 -3
20 -8z m-112 -119 c-39 -39 -47 -43 -77 -37 l-33 7 74 74 73 74 3 -37 c3 -33
-2 -43 -40 -81z"/>
</g>
</svg>
