<?xml version="1.0" standalone="no"?>
<!DOCTYPE svg PUBLIC "-//W3C//DTD SVG 20010904//EN"
 "http://www.w3.org/TR/2001/REC-SVG-20010904/DTD/svg10.dtd">
<svg version="1.0" xmlns="http://www.w3.org/2000/svg"
 width="122.000000pt" height="136.000000pt" viewBox="0 0 122.000000 136.000000"
 preserveAspectRatio="xMidYMid meet">
<metadata>
Created by potrace 1.16, written by Peter Selinger 2001-2019
</metadata>
<g transform="translate(0.000000,136.000000) scale(0.100000,-0.100000)"
fill="#000000" stroke="none">
<path d="M735 1023 c-22 -20 -85 -77 -140 -128 -90 -83 -104 -92 -132 -88 -80
12 -163 -54 -163 -130 0 -86 58 -141 151 -141 l58 -1 117 -105 c64 -58 125
-111 135 -118 44 -31 11 11 -99 128 l-118 124 25 52 26 51 159 7 c149 6 176 9
165 20 -3 3 -75 6 -161 7 -86 1 -160 4 -165 8 -4 3 -20 22 -35 42 l-27 36 100
99 c104 103 167 174 152 174 -4 0 -26 -17 -48 -37z"/>
</g>
</svg>
