<?xml version="1.0" standalone="no"?>
<!DOCTYPE svg PUBLIC "-//W3C//DTD SVG 20010904//EN"
 "http://www.w3.org/TR/2001/REC-SVG-20010904/DTD/svg10.dtd">
<svg version="1.0" xmlns="http://www.w3.org/2000/svg"
 width="161.000000pt" height="94.000000pt" viewBox="0 0 161.000000 94.000000"
 preserveAspectRatio="xMidYMid meet">
<metadata>
Created by potrace 1.16, written by Peter Selinger 2001-2019
</metadata>
<g transform="translate(0.000000,94.000000) scale(0.100000,-0.100000)"
fill="#000000" stroke="none">
<path d="M438 633 c-182 -5 -184 -23 -3 -23 l135 0 0 -30 0 -30 -135 0 c-101
0 -135 -3 -135 -12 0 -10 32 -12 135 -10 l135 3 0 -26 0 -26 -135 3 c-103 2
-135 0 -135 -9 0 -10 34 -13 135 -13 l135 0 0 -30 0 -30 -135 0 c-83 0 -135
-4 -135 -10 0 -6 52 -10 135 -10 128 0 135 -1 135 -20 0 -19 -7 -20 -135 -20
-116 0 -135 -2 -135 -16 0 -14 16 -15 135 -8 102 5 135 4 135 -5 0 -9 57 -12
231 -10 l231 2 -4 156 c-2 86 -7 162 -11 169 -8 12 -184 13 -579 5z m302 -148
l-135 -136 -3 38 c-3 35 1 42 96 135 91 90 102 98 138 98 l39 0 -135 -135z
m80 -10 c-138 -138 -147 -145 -185 -145 l-40 0 145 145 c138 138 147 145 185
145 l40 0 -145 -145z m186 103 c-2 -24 -4 -55 -5 -70 -1 -19 -23 -48 -78 -105
-71 -71 -81 -78 -112 -75 l-34 4 114 115 c63 64 108 112 101 108 -8 -4 -62
-56 -120 -116 -101 -103 -109 -109 -147 -109 l-40 0 145 145 c80 80 153 145
162 145 15 0 17 -7 14 -42z m-326 29 c0 -2 -20 -23 -45 -47 l-45 -44 0 47 0
47 45 0 c25 0 45 -1 45 -3z m10 -82 c-58 -58 -87 -81 -92 -72 -17 27 -6 54 44
104 46 46 57 53 92 53 l41 0 -85 -85z m310 -135 l0 -70 -65 0 c-36 0 -65 3
-65 7 0 7 121 133 127 133 2 0 3 -31 3 -70z"/>
<path d="M960 354 c-13 -13 -20 -24 -14 -24 12 0 50 38 43 44 -2 2 -15 -7 -29
-20z"/>
<path d="M1040 620 c0 -6 52 -10 135 -10 83 0 135 4 135 10 0 6 -52 10 -135
10 -83 0 -135 -4 -135 -10z"/>
<path d="M1040 540 c0 -6 52 -10 135 -10 83 0 135 4 135 10 0 6 -52 10 -135
10 -83 0 -135 -4 -135 -10z"/>
<path d="M1040 470 c0 -6 50 -10 129 -10 76 0 132 4 136 10 4 6 -42 10 -129
10 -84 0 -136 -4 -136 -10z"/>
<path d="M1040 390 c0 -6 52 -10 135 -10 83 0 135 4 135 10 0 6 -52 10 -135
10 -83 0 -135 -4 -135 -10z"/>
<path d="M1040 324 c0 -14 10 -15 73 -11 39 4 100 6 135 7 40 0 61 4 57 10 -4
6 -60 10 -136 10 -112 0 -129 -2 -129 -16z"/>
</g>
</svg>
