<?xml version="1.0" standalone="no"?>
<!DOCTYPE svg PUBLIC "-//W3C//DTD SVG 20010904//EN"
 "http://www.w3.org/TR/2001/REC-SVG-20010904/DTD/svg10.dtd">
<svg version="1.0" xmlns="http://www.w3.org/2000/svg"
 width="94.000000pt" height="161.000000pt" viewBox="0 0 94.000000 161.000000"
 preserveAspectRatio="xMidYMid meet">
<metadata>
Created by potrace 1.16, written by Peter Selinger 2001-2019
</metadata>
<g transform="translate(0.000000,161.000000) scale(0.100000,-0.100000)"
fill="#000000" stroke="none">
<path d="M316 1175 c5 -102 4 -135 -5 -135 -9 0 -12 -57 -10 -231 l2 -231 156
4 c86 2 162 7 169 11 9 6 12 49 12 160 0 240 -12 557 -22 557 -4 0 -8 -61 -8
-135 l0 -135 -30 0 -30 0 0 135 c0 83 -4 135 -10 135 -6 0 -10 -52 -10 -135
l0 -135 -25 0 -25 0 0 135 c0 83 -4 135 -10 135 -6 0 -10 -52 -10 -135 l0
-135 -30 0 -30 0 0 135 c0 83 -4 135 -10 135 -6 0 -10 -52 -10 -135 0 -128 -1
-135 -20 -135 -19 0 -20 7 -20 135 0 116 -2 135 -16 135 -14 0 -15 -16 -8
-135z m114 -250 l-95 -96 -3 37 c-3 32 2 43 45 86 53 55 73 66 118 67 28 1 25
-4 -65 -94z m45 -45 c-77 -77 -143 -140 -146 -140 -4 0 -5 17 -2 38 4 31 21
53 106 140 95 96 104 102 142 102 l40 0 -140 -140z m-95 84 l-45 -45 -3 31
c-5 50 3 60 50 60 l42 0 -44 -46z m88 -183 l-143 -146 143 140 142 140 0 -40
c0 -38 -7 -47 -113 -152 -97 -96 -118 -113 -145 -113 -32 0 -32 0 -32 52 l0
53 143 143 142 142 3 -36 c3 -36 -2 -43 -140 -183z m152 9 c0 -25 -15 -45 -76
-105 -67 -65 -81 -75 -113 -75 l-36 0 105 105 c58 58 108 105 112 105 5 0 8
-14 8 -30z m-35 -150 c-29 -30 -41 -36 -66 -32 l-31 5 64 64 63 64 3 -32 c3
-25 -4 -39 -33 -69z m35 -15 c0 -20 -5 -25 -27 -25 l-26 0 23 25 c13 14 25 25
27 25 2 0 3 -11 3 -25z"/>
<path d="M314 478 c3 -50 6 -111 6 -135 0 -27 4 -42 10 -38 6 4 10 60 10 136
0 113 -2 129 -16 129 -15 0 -16 -11 -10 -92z"/>
<path d="M380 435 c0 -83 4 -135 10 -135 6 0 10 52 10 135 0 83 -4 135 -10
135 -6 0 -10 -52 -10 -135z"/>
<path d="M460 441 c0 -76 4 -132 10 -136 6 -4 10 42 10 129 0 84 -4 136 -10
136 -6 0 -10 -50 -10 -129z"/>
<path d="M530 435 c0 -83 4 -135 10 -135 6 0 10 52 10 135 0 83 -4 135 -10
135 -6 0 -10 -52 -10 -135z"/>
<path d="M610 441 c0 -76 4 -132 10 -136 6 -4 10 42 10 129 0 84 -4 136 -10
136 -6 0 -10 -50 -10 -129z"/>
</g>
</svg>
