<?xml version="1.0" standalone="no"?>
<!DOCTYPE svg PUBLIC "-//W3C//DTD SVG 20010904//EN"
 "http://www.w3.org/TR/2001/REC-SVG-20010904/DTD/svg10.dtd">
<svg version="1.0" xmlns="http://www.w3.org/2000/svg"
 width="119.000000pt" height="131.000000pt" viewBox="0 0 119.000000 131.000000"
 preserveAspectRatio="xMidYMid meet">
<metadata>
Created by potrace 1.16, written by Peter Selinger 2001-2019
</metadata>
<g transform="translate(0.000000,131.000000) scale(0.100000,-0.100000)"
fill="#000000" stroke="none">
<path d="M700 914 l-165 -95 -77 81 c-70 74 -98 90 -98 57 0 -6 32 -44 71 -83
l71 -72 -99 -58 -99 -57 1 -40 1 -40 268 -154 c147 -85 273 -152 279 -150 12
4 -206 152 -385 261 -71 43 -128 81 -128 84 1 4 44 33 97 65 l96 58 84 -83
c45 -45 83 -78 83 -72 0 6 -31 47 -70 91 l-69 81 137 91 c76 50 141 91 145 91
4 0 4 -16 1 -36 -7 -45 15 -575 26 -613 12 -43 22 200 18 453 -2 142 -7 230
-13 232 -5 2 -84 -39 -175 -92z"/>
</g>
</svg>
