<?xml version="1.0" standalone="no"?>
<!DOCTYPE svg PUBLIC "-//W3C//DTD SVG 20010904//EN"
 "http://www.w3.org/TR/2001/REC-SVG-20010904/DTD/svg10.dtd">
<svg version="1.0" xmlns="http://www.w3.org/2000/svg"
 width="156.000000pt" height="192.000000pt" viewBox="0 0 156.000000 192.000000"
 preserveAspectRatio="xMidYMid meet">
<metadata>
Created by potrace 1.16, written by Peter Selinger 2001-2019
</metadata>
<g transform="translate(0.000000,192.000000) scale(0.100000,-0.100000)"
fill="#000000" stroke="none">
<path d="M307 1613 c-9 -8 -9 -382 0 -492 l6 -83 331 6 c182 4 348 9 369 12
23 4 43 1 52 -6 16 -13 20 -5 15 34 -1 11 1 48 5 82 l6 62 85 7 c46 4 84 11
84 15 0 5 -38 11 -85 15 l-85 7 0 69 0 69 69 0 c38 0 76 3 85 6 34 13 1 24
-75 24 l-79 0 0 83 0 84 -97 6 c-129 9 -678 9 -686 0z m743 -120 c0 -60 3
-180 7 -267 l6 -159 -39 6 c-21 4 -122 7 -224 7 -147 1 -181 4 -166 13 10 7
45 29 77 49 84 53 148 149 123 184 -5 6 -31 44 -57 83 -27 39 -76 95 -108 124
l-60 52 213 5 c117 3 216 7 221 8 4 1 7 -46 7 -105z m-467 90 c-10 -3 -13 -64
-13 -255 l0 -251 -117 7 c-65 4 -119 9 -121 11 -3 2 -1 112 3 244 l7 240 112
4 c61 1 118 3 126 4 9 1 10 0 3 -4z m69 -262 l3 -193 -28 -15 c-16 -8 -31 -13
-33 -10 -2 2 -1 103 2 225 l7 221 23 -17 c22 -17 23 -22 26 -211z m92 90 c68
-88 72 -100 47 -148 -16 -33 -110 -128 -117 -120 -7 7 11 335 17 331 5 -3 29
-31 53 -63z"/>
<path d="M307 866 c-9 -23 -9 -390 0 -491 l6 -78 386 6 386 5 -3 28 c-2 15 -1
56 3 90 l7 63 81 3 c107 4 107 22 0 26 l-83 3 0 69 0 68 85 7 c47 4 85 11 85
16 0 5 -31 10 -70 10 -38 1 -76 2 -82 3 -9 1 -14 28 -16 89 l-3 87 -112 0
c-62 0 -236 3 -388 7 -255 5 -276 5 -282 -11z m747 -272 c4 -141 5 -259 2
-261 -3 -3 -102 -2 -222 2 l-217 8 57 30 c108 58 197 185 154 220 -8 7 -29 35
-46 63 -18 28 -63 81 -101 117 l-68 66 111 3 c61 2 159 4 217 6 l106 3 7 -257z
m-654 154 c0 -51 3 -164 7 -250 l6 -158 -41 0 -42 0 0 78 c0 42 3 155 7 250
l6 172 29 0 28 0 0 -92z m183 85 c-10 -3 -13 -63 -13 -249 l0 -244 -70 0 -71
0 2 244 c0 135 3 247 7 250 3 3 39 6 81 5 42 0 70 -3 64 -6z m49 -50 c16 -14
18 -35 18 -209 l0 -193 -32 -17 -31 -16 6 128 c4 71 7 173 7 227 0 53 3 97 7
97 3 0 15 -7 25 -17z m144 -159 c34 -49 35 -55 25 -87 -11 -33 -79 -109 -117
-130 -16 -9 -17 -4 -11 53 4 35 7 110 7 168 l0 106 30 -29 c17 -16 47 -53 66
-81z"/>
</g>
</svg>
