<?xml version="1.0" standalone="no"?>
<!DOCTYPE svg PUBLIC "-//W3C//DTD SVG 20010904//EN"
 "http://www.w3.org/TR/2001/REC-SVG-20010904/DTD/svg10.dtd">
<svg version="1.0" xmlns="http://www.w3.org/2000/svg"
 width="119.000000pt" height="106.000000pt" viewBox="0 0 119.000000 106.000000"
 preserveAspectRatio="xMidYMid meet">
<metadata>
Created by potrace 1.16, written by Peter Selinger 2001-2019
</metadata>
<g transform="translate(0.000000,106.000000) scale(0.100000,-0.100000)"
fill="#000000" stroke="none">
<path d="M300 576 c0 -101 3 -204 6 -230 l7 -46 201 1 c235 2 310 11 167 22
-52 4 -155 7 -229 7 l-135 0 6 113 c4 61 7 151 7 198 l0 86 262 6 c144 3 263
5 265 4 1 -1 5 -71 9 -155 4 -83 11 -152 15 -152 14 0 11 304 -3 318 -9 9 -88
12 -295 12 l-283 0 0 -184z"/>
<path d="M754 639 c-3 -6 -3 -47 0 -90 5 -53 4 -79 -3 -79 -6 0 -67 9 -136 20
l-126 21 -46 -33 c-26 -18 -48 -38 -50 -43 -2 -6 18 -23 44 -39 l48 -29 138
19 137 19 0 -37 c0 -21 5 -38 10 -38 6 0 10 60 10 160 0 147 -6 181 -26 149z
m-198 -165 c15 -4 20 -14 21 -38 1 -33 0 -34 -50 -40 -44 -5 -55 -2 -74 16
l-23 22 22 23 c21 23 59 29 104 17z m157 -19 c31 -4 47 -11 47 -21 0 -8 -8
-14 -19 -14 -10 0 -46 -3 -80 -6 l-61 -7 0 32 c0 30 2 32 33 27 17 -3 53 -8
80 -11z"/>
</g>
</svg>
