<?xml version="1.0" standalone="no"?>
<!DOCTYPE svg PUBLIC "-//W3C//DTD SVG 20010904//EN"
 "http://www.w3.org/TR/2001/REC-SVG-20010904/DTD/svg10.dtd">
<svg version="1.0" xmlns="http://www.w3.org/2000/svg"
 width="206.000000pt" height="127.000000pt" viewBox="0 0 206.000000 127.000000"
 preserveAspectRatio="xMidYMid meet">
<metadata>
Created by potrace 1.16, written by Peter Selinger 2001-2019
</metadata>
<g transform="translate(0.000000,127.000000) scale(0.100000,-0.100000)"
fill="#000000" stroke="none">
<path d="M764 934 c4 -19 10 -42 13 -51 5 -14 -1 -15 -47 -11 -51 5 -59 2
-174 -60 -136 -73 -241 -142 -241 -159 0 -6 -3 -15 -8 -19 -16 -16 -7 -91 16
-124 24 -35 300 -214 320 -207 6 2 -53 47 -130 101 -78 53 -151 109 -163 123
-14 18 -20 41 -20 77 l0 52 183 97 182 97 148 0 c91 0 147 4 147 10 0 6 -21
10 -46 10 -45 0 -45 0 -42 33 l3 32 235 3 c129 1 251 5 270 9 59 12 -105 21
-394 22 l-258 1 6 -36z m114 -34 c2 -29 1 -30 -38 -30 -38 0 -40 2 -40 30 0
28 2 30 38 30 35 0 38 -2 40 -30z"/>
<path d="M586 741 c-6 -8 71 -88 121 -127 17 -13 12 -19 -54 -80 -40 -36 -73
-70 -73 -75 0 -22 30 -4 93 56 42 40 73 62 82 59 8 -4 15 -1 15 5 0 6 17 11
38 11 l37 0 -59 -54 c-42 -37 -56 -55 -47 -60 9 -6 33 11 71 49 53 52 61 57
76 44 16 -12 17 -12 11 4 -5 14 0 17 30 17 l37 0 -44 -37 c-24 -21 -49 -42
-57 -46 -14 -8 -18 -37 -5 -37 4 0 34 24 67 54 47 42 64 52 77 45 15 -8 13
-14 -22 -45 -22 -20 -40 -40 -40 -45 0 -20 26 -6 82 46 49 46 63 54 74 44 13
-10 10 -18 -21 -49 -19 -20 -35 -39 -35 -43 0 -20 30 -1 80 48 l56 56 26 -21
c36 -28 46 -25 18 5 l-23 25 194 2 c107 1 201 2 209 4 8 1 49 3 90 4 l75 3
-85 8 c-47 4 -170 7 -274 8 -166 1 -187 3 -176 16 7 8 8 15 2 15 -5 0 -15 -7
-22 -15 -20 -25 -39 -18 -97 35 -30 28 -59 50 -64 50 -19 0 -8 -22 26 -51 41
-36 44 -49 13 -49 -14 0 -43 21 -75 52 -36 35 -56 49 -63 42 -7 -7 1 -21 25
-44 19 -19 35 -38 35 -42 0 -21 -38 -3 -91 43 -34 30 -63 48 -70 43 -8 -4 5
-22 37 -50 l49 -43 -40 -1 c-34 0 -46 7 -92 52 -38 37 -56 49 -64 41 -7 -7 3
-22 35 -50 25 -22 46 -43 46 -47 0 -3 -11 -6 -25 -6 -14 0 -25 5 -25 11 0 8
-4 8 -13 1 -10 -9 -25 0 -63 39 -61 63 -101 92 -108 80z m456 -163 c-9 -9 -15
-9 -24 0 -9 9 -7 12 12 12 19 0 21 -3 12 -12z m100 0 c-9 -9 -15 -9 -24 0 -9
9 -7 12 12 12 19 0 21 -3 12 -12z"/>
<path d="M745 409 c-5 -7 -2 -17 7 -23 8 -6 18 -28 22 -49 8 -45 26 -40 26 9
0 33 1 34 40 34 22 0 39 -3 39 -7 -1 -5 -1 -23 0 -40 1 -47 21 -41 21 6 l0 38
262 7 c244 7 278 10 267 20 -2 2 -155 7 -340 11 -265 5 -338 4 -344 -6z"/>
</g>
</svg>
