<?xml version="1.0" standalone="no"?>
<!DOCTYPE svg PUBLIC "-//W3C//DTD SVG 20010904//EN"
 "http://www.w3.org/TR/2001/REC-SVG-20010904/DTD/svg10.dtd">
<svg version="1.0" xmlns="http://www.w3.org/2000/svg"
 width="156.000000pt" height="118.000000pt" viewBox="0 0 156.000000 118.000000"
 preserveAspectRatio="xMidYMid meet">
<metadata>
Created by potrace 1.16, written by Peter Selinger 2001-2019
</metadata>
<g transform="translate(0.000000,118.000000) scale(0.100000,-0.100000)"
fill="#000000" stroke="none">
<path d="M307 873 c-9 -8 -9 -382 0 -490 l6 -83 241 1 c133 1 306 4 386 8
l144 6 1 30 c1 17 2 56 3 88 l2 57 48 0 c26 0 64 3 85 6 69 12 37 24 -63 24
l-100 0 0 -97 0 -96 -137 6 c-75 4 -183 7 -240 7 l-105 0 29 23 c15 13 70 53
121 90 l92 68 29 -22 c17 -13 50 -24 79 -27 l50 -4 1 121 2 121 -34 0 c-18 0
-55 -11 -82 -25 -27 -13 -53 -21 -59 -18 -59 36 -225 167 -218 172 6 3 114 8
241 10 l231 3 0 -95 c0 -53 4 -99 10 -102 6 -3 10 -1 10 4 0 7 33 11 90 11 89
0 119 12 59 24 -17 3 -57 6 -88 6 l-56 0 3 83 4 84 -144 6 c-187 9 -633 9
-641 0z m234 -42 c-12 -8 -13 -49 -8 -250 l6 -241 -104 0 -105 0 0 68 c0 38 3
151 7 250 l6 182 106 0 c66 0 101 -4 92 -9z m153 -123 l100 -68 0 -51 1 -51
-110 -76 c-60 -43 -113 -79 -117 -80 -9 -4 -10 317 -2 370 4 24 11 35 18 31 6
-4 56 -38 110 -75z m204 -46 c-28 -33 -33 -36 -55 -23 -14 8 -12 12 18 30 49
30 66 27 37 -7z m-28 -72 c0 -9 -39 -40 -51 -40 -10 0 -18 38 -12 60 5 18 7
18 34 4 16 -8 29 -19 29 -24z m40 -98 c-11 -4 -70 26 -70 36 0 5 5 13 12 20 9
9 18 4 39 -21 15 -17 23 -33 19 -35z"/>
</g>
</svg>
