<?xml version="1.0" standalone="no"?>
<!DOCTYPE svg PUBLIC "-//W3C//DTD SVG 20010904//EN"
 "http://www.w3.org/TR/2001/REC-SVG-20010904/DTD/svg10.dtd">
<svg version="1.0" xmlns="http://www.w3.org/2000/svg"
 width="180.000000pt" height="152.000000pt" viewBox="0 0 180.000000 152.000000"
 preserveAspectRatio="xMidYMid meet">
<metadata>
Created by potrace 1.16, written by Peter Selinger 2001-2019
</metadata>
<g transform="translate(0.000000,152.000000) scale(0.100000,-0.100000)"
fill="#000000" stroke="none">
<path d="M870 1190 c-328 -74 -464 -146 -524 -275 -26 -55 -46 -138 -46 -190
0 -54 17 -41 23 18 13 126 91 243 196 296 50 25 238 91 260 91 4 0 11 -41 15
-92 4 -51 8 -94 10 -95 7 -7 686 84 695 93 2 2 2 6 0 9 -5 4 -341 -20 -410
-30 l-36 -5 5 90 c5 97 -3 121 -42 119 -11 0 -77 -13 -146 -29z m158 -96 l3
-81 -32 -7 c-62 -12 -61 -14 -58 77 4 78 5 82 29 88 52 14 55 9 58 -77z m-115
-11 c2 -43 4 -79 3 -80 -2 -2 -24 -6 -49 -9 l-47 -7 0 56 c0 76 12 105 47 110
15 2 31 5 34 6 4 0 9 -34 12 -76z"/>
<path d="M640 761 c0 -88 3 -167 6 -175 6 -15 31 -16 243 -10 215 6 264 10
236 20 -6 3 -9 61 -6 157 l3 154 -138 6 c-75 4 -184 7 -241 7 l-103 0 0 -159z
m105 89 c23 -23 33 -40 25 -40 -8 0 -30 18 -48 40 -43 52 -27 52 23 0z m76
-38 c-11 -4 -70 57 -71 73 0 5 18 -9 40 -30 23 -22 36 -41 31 -43z m50 0 c-11
-4 -70 57 -71 73 0 5 18 -9 40 -30 23 -22 36 -41 31 -43z m32 38 c34 -32 38
-40 22 -40 -11 0 -35 18 -53 40 -43 52 -24 52 31 0z m52 0 c22 -22 33 -40 25
-40 -15 0 -80 58 -80 72 0 17 17 7 55 -32z m70 0 c38 -39 39 -40 14 -40 -18 0
-36 12 -58 40 -27 34 -29 40 -14 40 11 0 37 -18 58 -40z m65 -2 c0 -23 -3 -38
-8 -32 -4 5 -20 24 -36 42 l-30 32 37 0 c37 0 37 0 37 -42z m-390 -3 l34 -35
-37 0 c-36 0 -37 1 -37 35 0 19 1 35 3 35 2 0 18 -16 37 -35z m332 -97 c-24
-22 -46 -37 -50 -33 -4 4 13 25 36 47 24 22 46 37 50 33 4 -4 -13 -25 -36 -47z
m-329 8 c-36 -44 -43 -44 -43 -1 0 34 2 35 36 35 l36 0 -29 -34z m77 -1 c-21
-22 -43 -35 -59 -35 -25 0 -25 0 9 35 21 22 43 35 59 35 25 0 25 0 -9 -35z
m50 0 c-19 -19 -40 -35 -47 -35 -14 0 57 69 71 70 6 0 -5 -16 -24 -35z m60 0
c-19 -19 -41 -35 -49 -35 -10 0 -3 12 19 35 19 19 41 35 49 35 10 0 3 -12 -19
-35z m70 28 c0 -13 -54 -63 -67 -63 -8 0 1 15 19 34 33 33 48 43 48 29z m50 0
c0 -14 -54 -63 -69 -63 -10 0 -3 12 19 35 32 33 50 43 50 28z m77 -69 c-3 -3
-17 -2 -32 2 l-27 7 29 26 28 26 3 -28 c2 -16 1 -31 -1 -33z m-339 -57 c23
-23 42 -46 42 -50 0 -18 -22 -3 -60 43 -51 61 -40 66 18 7z m52 -2 c26 -27 38
-45 29 -45 -8 0 -32 20 -52 45 -21 25 -34 45 -30 45 5 0 29 -20 53 -45z m50 0
c26 -27 38 -45 29 -45 -8 0 -32 20 -52 45 -21 25 -34 45 -30 45 5 0 29 -20 53
-45z m55 -5 c30 -30 43 -50 34 -50 -14 0 -35 19 -83 78 -36 42 0 22 49 -28z
m53 7 c44 -45 50 -57 30 -57 -18 1 -103 100 -86 100 8 0 33 -19 56 -43z m77
-7 c48 -49 49 -50 22 -50 -19 0 -38 12 -65 41 -45 51 -49 59 -25 59 10 0 41
-22 68 -50z m61 5 c3 -25 5 -47 3 -49 -2 -2 -21 18 -42 45 l-38 49 35 0 c34 0
35 -1 42 -45z m-391 -5 l39 -40 -42 0 -42 0 0 40 c0 22 1 40 3 40 2 0 21 -18
42 -40z"/>
<path d="M302 591 c10 -165 94 -236 332 -276 80 -14 286 -21 275 -10 -3 2 -47
9 -99 15 -139 17 -277 48 -345 79 -97 44 -135 105 -135 219 0 41 -3 52 -16 52
-14 0 -16 -11 -12 -79z"/>
<path d="M807 453 c2 -54 7 -105 10 -113 10 -28 22 22 22 94 l1 69 36 -6 c20
-3 38 -8 40 -9 1 -2 4 -45 5 -96 1 -51 5 -92 9 -92 11 0 20 55 20 126 0 67 2
70 48 58 20 -6 22 -13 23 -68 2 -72 12 -125 21 -110 4 5 8 47 9 93 l2 82 36
-5 c20 -3 101 -10 181 -16 80 -6 164 -12 188 -15 23 -2 42 -1 42 4 0 5 -48 16
-107 25 -94 15 -565 76 -585 76 -3 0 -4 -44 -1 -97z"/>
</g>
</svg>
