<?xml version="1.0" standalone="no"?>
<!DOCTYPE svg PUBLIC "-//W3C//DTD SVG 20010904//EN"
 "http://www.w3.org/TR/2001/REC-SVG-20010904/DTD/svg10.dtd">
<svg version="1.0" xmlns="http://www.w3.org/2000/svg"
 width="169.000000pt" height="169.000000pt" viewBox="0 0 169.000000 169.000000"
 preserveAspectRatio="xMidYMid meet">
<metadata>
Created by potrace 1.16, written by Peter Selinger 2001-2019
</metadata>
<g transform="translate(0.000000,169.000000) scale(0.100000,-0.100000)"
fill="#000000" stroke="none">
<path d="M562 1374 c-10 -11 -8 -25 9 -76 11 -35 30 -79 41 -99 l20 -36 -37
-48 c-46 -61 -69 -106 -90 -179 -15 -51 -19 -56 -33 -44 -10 8 -49 42 -89 76
-39 34 -74 62 -77 62 -3 0 -6 -88 -6 -195 0 -107 4 -195 9 -195 11 0 21 87 21
197 0 124 3 131 46 93 19 -16 52 -40 73 -52 32 -18 39 -28 39 -51 -1 -23 -16
-40 -75 -88 -40 -33 -73 -63 -73 -67 0 -4 4 -14 9 -22 8 -11 23 0 75 54 66 67
66 68 66 37 0 -74 63 -178 140 -230 l49 -34 -25 -19 c-35 -28 -54 -70 -54
-119 0 -35 2 -40 18 -34 9 4 24 8 32 8 8 0 71 43 140 97 202 156 560 424 581
435 10 5 19 12 19 15 -1 7 -168 117 -500 331 -332 212 -312 201 -328 183z
m126 -156 c-37 -32 -49 -26 -67 33 -7 23 -15 48 -18 55 -3 8 22 -2 56 -23 l62
-38 -33 -27z m521 -266 l154 -90 -139 -92 c-77 -51 -208 -142 -292 -202 l-152
-109 -53 30 c-153 88 -226 254 -183 420 24 94 62 157 142 238 l72 72 149 -89
c81 -48 217 -128 302 -178z m-456 -501 c4 -4 -16 -24 -45 -44 -29 -20 -55 -32
-56 -26 -2 5 8 28 22 50 22 33 31 39 49 33 12 -3 25 -9 30 -13z"/>
<path d="M870 1040 c-8 -5 -62 -31 -120 -57 -58 -26 -107 -48 -108 -49 -11 -7
12 -45 23 -40 9 3 15 -3 17 -17 4 -26 179 -147 213 -147 38 0 205 119 205 147
0 14 -188 173 -205 173 -5 0 -17 -5 -25 -10z m83 -78 c34 -24 79 -53 100 -66
l39 -23 -26 -16 c-26 -17 -26 -17 -118 60 -51 42 -95 78 -97 80 -3 2 4 10 15
17 14 11 20 11 22 3 1 -7 31 -31 65 -55z m-67 -44 c27 -18 68 -45 93 -59 l44
-27 -30 -16 c-29 -14 -31 -14 -56 12 -15 15 -56 50 -91 77 -36 28 -65 53 -66
56 0 3 10 11 23 16 18 8 23 7 29 -7 4 -10 28 -33 54 -52z m-28 -66 l89 -58
-36 -20 -36 -20 -93 78 -93 78 33 20 c33 20 33 20 40 0 4 -11 47 -46 96 -78z"/>
</g>
</svg>
